<?xml version="1.0" encoding="UTF-8" standalone="no"?>
<svg
   xmlns:dc="http://purl.org/dc/elements/1.1/"
   xmlns:cc="http://creativecommons.org/ns#"
   xmlns:rdf="http://www.w3.org/1999/02/22-rdf-syntax-ns#"
   xmlns:svg="http://www.w3.org/2000/svg"
   xmlns="http://www.w3.org/2000/svg"
   xmlns:xlink="http://www.w3.org/1999/xlink"
   xmlns:sodipodi="http://sodipodi.sourceforge.net/DTD/sodipodi-0.dtd"
   xmlns:inkscape="http://www.inkscape.org/namespaces/inkscape"
   version="1.0"
   width="880"
   height="880"
   viewBox="0 0 704 704"
   preserveAspectRatio="xMidYMid meet"
   id="svg2"
   inkscape:version="0.48.4 r9939"
   sodipodi:docname="dome.svg">
  <defs
     id="defs26">
    <linearGradient
       id="linearGradient3806">
      <stop
         style="stop-color:#ff8284;stop-opacity:1;"
         offset="0"
         id="stop3808" />
      <stop
         style="stop-color:#fdd1d2;stop-opacity:1;"
         offset="1"
         id="stop3810" />
    </linearGradient>
    <linearGradient
       gradientTransform="translate(-300.17167,-62.677807)"
       y2="112.91946"
       x2="485.28409"
       y1="383.13223"
       x1="673.57593"
       gradientUnits="userSpaceOnUse"
       id="linearGradient3011"
       xlink:href="#linearGradient3806"
       inkscape:collect="always" />
    <linearGradient
       inkscape:collect="always"
       xlink:href="#linearGradient3806"
       id="linearGradient3052"
       gradientUnits="userSpaceOnUse"
       gradientTransform="matrix(0.8,0,0,0.8,0,3)"
       x1="518.88885"
       y1="394.1813"
       x2="485.28409"
       y2="112.91946" />
  </defs>
  <sodipodi:namedview
     pagecolor="#ffffff"
     bordercolor="#666666"
     borderopacity="1"
     objecttolerance="10"
     gridtolerance="10"
     guidetolerance="10"
     inkscape:pageopacity="0"
     inkscape:pageshadow="2"
     inkscape:window-width="921"
     inkscape:window-height="911"
     id="namedview24"
     showgrid="false"
     inkscape:zoom="0.59"
     inkscape:cx="445.23541"
     inkscape:cy="617.10428"
     inkscape:window-x="662"
     inkscape:window-y="134"
     inkscape:window-maximized="0"
     inkscape:current-layer="svg2" />
  <metadata
     id="metadata4">
Created by potrace 1.14, written by Peter Selinger 2001-2017
<rdf:RDF>
  <cc:Work
     rdf:about="">
    <dc:format>image/svg+xml</dc:format>
    <dc:type
       rdf:resource="http://purl.org/dc/dcmitype/StillImage" />
    <dc:title />
  </cc:Work>
</rdf:RDF>
</metadata>
  <g
     id="g3018"
     transform="translate(-47.091141,-5.8397878)">
    <g
       transform="translate(0,3)"
       style="fill:#cb3c32;fill-opacity:1"
       id="g3823">
      <g
         id="g3029"
         style="fill:#cb3c32;fill-opacity:1">
        <g
           id="g6"
           transform="matrix(0.1,0,0,-0.1,0,701)"
           style="fill:#cb3c32;fill-opacity:1;stroke:none">
          <path
             inkscape:connector-curvature="0"
             id="path8"
             d="m 4975,6110 c -10,-17 103,-152 119,-143 6,3 8,3 4,-2 -6,-6 7,-38 41,-95 5,-8 15,-28 22,-44 24,-50 33,-66 41,-66 5,0 8,-7 8,-15 0,-17 18,-52 38,-73 10,-11 12,-11 12,0 0,10 3,9 10,-2 6,-9 10,-10 10,-3 0,6 -7,18 -15,27 -8,8 -15,20 -15,26 0,27 -66,168 -92,195 -15,17 -28,35 -28,40 0,6 -30,41 -65,78 -36,38 -65,73 -65,78 0,12 -17,12 -25,-1 z"
             style="fill:#cb3c32;fill-opacity:1" />
          <path
             inkscape:connector-curvature="0"
             id="path10"
             d="m 5362,5432 c -8,-24 -8,-31 0,-26 7,5 9,0 6,-14 -3,-11 0,-29 6,-39 16,-23 33,-84 42,-148 3,-27 11,-59 17,-70 18,-35 27,-87 32,-195 7,-144 12,-174 34,-212 11,-18 22,-48 26,-65 3,-18 10,-31 15,-30 4,1 8,-2 8,-8 0,-5 -4,-9 -9,-8 -5,2 -9,-16 -9,-40 0,-39 -25,-149 -47,-207 -11,-28 -6,-60 8,-60 5,0 9,9 9,21 0,11 4,28 9,37 5,9 11,28 12,42 2,14 9,31 16,38 7,7 15,29 18,50 4,20 13,49 20,63 23,43 12,196 -20,263 -14,29 -25,61 -25,70 0,9 -9,34 -19,54 -11,22 -22,69 -25,110 -3,40 -14,92 -25,116 -10,25 -17,47 -14,50 3,3 1,12 -6,20 -6,8 -11,18 -10,22 1,5 0,16 -3,24 -3,8 -10,36 -17,62 -6,27 -17,62 -24,80 l -13,33 -12,-33 z"
             style="fill:#cb3c32;fill-opacity:1" />
          <path
             inkscape:connector-curvature="0"
             id="path12"
             d="m 2041,5351 c -13,-9 -39,-10 -211,-14 -59,-2 -75,-5 -75,-17 2,-37 18,-120 24,-120 4,0 8,-17 8,-37 1,-21 8,-109 16,-197 7,-87 12,-168 10,-180 -2,-11 0,-32 5,-46 16,-42 25,111 13,218 -10,90 -7,127 9,117 9,-6 21,62 15,90 -2,11 -6,41 -9,67 -5,45 -4,48 26,62 21,11 59,16 120,16 87,0 94,3 82,34 -7,18 -13,19 -33,7 z"
             style="fill:#cb3c32;fill-opacity:1" />
          <path
             inkscape:connector-curvature="0"
             id="path14"
             d="m 2034,4879 c -3,-6 -2,-14 3,-18 9,-5 10,-43 3,-61 -1,-3 -2,-9 -1,-14 1,-5 -4,-16 -12,-25 -32,-37 -47,-103 -32,-137 21,-47 28,-68 26,-77 -1,-4 5,-15 14,-23 8,-9 15,-24 15,-33 0,-10 7,-24 15,-31 10,-8 12,-17 6,-28 -6,-11 -2,-26 16,-48 31,-42 55,-36 40,9 -15,47 -40,96 -46,92 -4,-2 -7,9 -8,23 -14,191 -14,209 0,250 13,37 13,44 1,49 -8,3 -14,19 -14,38 0,35 -14,53 -26,34 z"
             style="fill:#cb3c32;fill-opacity:1" />
          <path
             inkscape:connector-curvature="0"
             id="path16"
             d="m 6101,3663 c 12,-21 30,-47 40,-58 10,-11 23,-33 29,-49 13,-35 2,-52 -42,-61 -36,-8 -26,-22 22,-30 19,-3 40,-12 46,-20 6,-8 21,-15 33,-15 12,0 21,-6 21,-15 0,-25 17,-17 25,12 3,15 13,32 21,37 8,7 11,20 8,34 -5,19 -13,23 -38,22 -49,-3 -56,-1 -56,15 0,8 -7,15 -15,15 -10,0 -15,10 -15,30 0,37 -26,80 -48,80 -8,0 -13,3 -9,6 8,8 -18,34 -33,34 -7,0 -2,-15 11,-37 z"
             style="fill:#cb3c32;fill-opacity:1" />
          <path
             inkscape:connector-curvature="0"
             id="path18"
             d="m 4458,3443 c -2,-10 -14,-16 -35,-17 -17,-1 -29,2 -26,7 6,9 -2,9 -73,-3 -108,-20 -169,-33 -179,-41 -9,-7 -124,-20 -170,-20 -11,0 -26,-5 -35,-12 -11,-9 -72,-13 -222,-12 -115,0 -208,-3 -208,-7 0,-5 -16,-8 -36,-8 -21,0 -33,4 -29,10 3,6 0,10 -8,10 -10,0 -13,-8 -9,-25 3,-18 0,-25 -11,-25 -8,0 -20,-7 -27,-15 -7,-8 -16,-12 -21,-9 -5,3 -9,0 -9,-5 0,-13 33,-15 44,-3 4,4 22,8 39,8 18,1 52,4 77,7 25,3 126,10 226,16 99,6 213,15 253,20 40,5 79,7 86,5 7,-3 16,-1 20,5 3,6 20,11 36,11 19,0 28,4 24,11 -5,6 7,9 32,7 26,-2 37,1 36,10 -4,15 2,15 27,0 16,-11 26,-9 54,6 30,16 42,17 78,8 27,-6 62,-7 95,-2 28,5 90,10 137,11 47,2 86,7 86,11 0,5 11,1 26,-8 17,-12 28,-14 36,-6 7,7 0,12 -24,18 -18,4 -36,7 -39,6 -4,0 -55,-2 -115,-4 -97,-3 -109,-1 -112,15 -2,12 3,17 17,17 12,0 21,5 21,10 0,18 -58,12 -62,-7 z"
             style="fill:#cb3c32;fill-opacity:1" />
          <path
             inkscape:connector-curvature="0"
             id="path20"
             d="m 2280,3243 c 0,-24 -8,-45 -22,-60 -18,-19 -19,-25 -8,-36 10,-10 12,-8 6,7 -6,17 -5,17 11,5 49,-38 50,-46 53,-216 1,-85 4,-111 14,-107 9,4 10,22 4,77 -6,48 -6,73 2,75 5,2 8,7 5,12 -8,13 18,154 29,162 6,4 30,5 53,3 25,-3 43,-1 43,5 0,6 11,8 25,4 14,-3 25,-2 25,4 0,5 18,8 43,5 23,-2 62,3 87,11 l 45,16 -40,-6 c -80,-12 -161,-13 -202,-2 -36,9 -47,8 -68,-6 -14,-9 -26,-12 -26,-6 -4,33 -20,60 -35,60 -8,0 -17,7 -20,15 -11,28 -24,15 -24,-22 z"
             style="fill:#cb3c32;fill-opacity:1" />
          <path
             inkscape:connector-curvature="0"
             id="path22"
             d="m 2283,694 c -6,-13 -7,-24 -3,-24 11,0 6,-69 -7,-100 -17,-41 -25,-100 -13,-100 5,0 10,-12 10,-26 0,-21 4,-25 23,-22 16,2 22,10 23,28 1,40 4,50 12,48 4,0 24,6 44,15 21,10 44,17 53,17 8,0 15,4 15,9 0,13 -39,21 -70,15 -38,-8 -52,15 -53,90 -1,69 -15,90 -34,50 z"
             style="fill:#cb3c32;fill-opacity:1" />
        </g>
        <path
           transform="scale(0.8,0.8)"
           inkscape:connector-curvature="0"
           d="m 234.70589,231.67436 c 1.02784,3.98836 2.45433,7.87996 3.96447,11.71053 1.2245,3.70324 3.27819,7.03062 4.91911,10.54397 1.05521,2.655 2.95845,4.98691 3.75318,7.75421 0.25214,0.87796 0.37693,1.78759 0.56539,2.68139 1.00853,9.14519 1.07736,18.36302 1.56687,27.54655 0.42961,7.72441 1.3909,15.38193 3.32733,22.87505 1.44916,4.82117 2.01748,9.83023 2.7303,14.79622 0.80353,5.20425 2.31285,10.25524 3.4436,15.38867 0.64507,3.60234 1.18375,7.21279 1.86734,10.80871 0.47773,5.76261 1.41998,11.44728 2.51048,17.11995 1.5941,7.49447 3.95321,14.81423 6.43,22.05918 0.93894,2.87414 2.43556,5.59616 3.07055,8.57111 0.21915,1.02676 0.6272,4.32353 0.74364,5.21135 0.76449,7.27635 3.42218,14.11296 5.49781,21.07116 1.56096,5.67953 4.02046,10.98119 6.417,16.33024 1.30963,2.76914 1.66493,5.74209 1.82987,8.75819 0.0799,3.1477 -0.0921,6.28082 0.3668,9.40318 0.13672,1.66037 0.69952,3.10775 1.60341,4.48317 0,0 -7.31359,4.27328 -7.31359,4.27328 l 0,0 c -0.95023,-1.48148 -1.63665,-3.02069 -1.77045,-4.8057 -0.4671,-3.14923 -0.32216,-6.30366 -0.39671,-9.48003 -0.13027,-2.92029 -0.42738,-5.81055 -1.63712,-8.51529 -2.31358,-5.42905 -4.70341,-10.80761 -6.29291,-16.51503 -2.08367,-6.98901 -4.79463,-13.83553 -5.65148,-21.13048 -0.0636,-0.43097 -0.63463,-4.3858 -0.7776,-5.0672 -0.62323,-2.97023 -2.00788,-5.72373 -2.9338,-8.59734 -2.3882,-7.31419 -4.76231,-14.6605 -6.42986,-22.17652 -1.17155,-5.63416 -2.1333,-11.29278 -2.72167,-17.02057 -0.65171,-3.60591 -1.18472,-7.21756 -1.763,-10.83534 -1.10553,-5.15854 -2.60684,-10.22984 -3.471,-15.44074 -0.71821,-4.94123 -1.2652,-9.92561 -2.65558,-14.73779 -1.87532,-7.58007 -2.78298,-15.31703 -3.22708,-23.10859 -0.48391,-9.11167 -0.51836,-18.27091 -1.69933,-27.32651 -0.18986,-0.83859 -0.32364,-1.69187 -0.56957,-2.51575 -0.81915,-2.74416 -2.68621,-5.07082 -3.74191,-7.71261 -1.64049,-3.53338 -3.67017,-6.89505 -4.88431,-10.61997 -1.53874,-3.86621 -2.92843,-7.79787 -4.18246,-11.76425 0,0 7.51228,-4.0164 7.51228,-4.0164 z"
           id="path3003"
           style="color:#000000;fill:#cb3c32;fill-opacity:1;fill-rule:nonzero;stroke:#c42836;stroke-width:0;stroke-linecap:square;stroke-linejoin:round;stroke-miterlimit:4;stroke-opacity:1;stroke-dasharray:none;stroke-dashoffset:0;marker:none;visibility:visible;display:inline;overflow:visible;enable-background:accumulate" />
        <path
           transform="scale(0.8,0.8)"
           inkscape:connector-curvature="0"
           d="m 293.52699,487.10496 c -0.0791,3.90449 -0.0572,7.81011 -0.0733,11.71517 -0.003,4.55572 0.009,9.11141 0.008,13.66711 0.002,3.73757 0.0152,7.4751 0.0288,11.21264 0.5173,3.06246 0.82133,6.12502 0.96487,9.23015 0.2047,6.72394 0.16201,13.45239 0.15282,20.17854 -0.17848,8.65808 -0.9251,17.28541 -1.55269,25.91798 -0.25659,6.14371 -1.05716,12.23958 -1.54912,18.36452 -0.51274,7.83379 -0.53329,15.68859 -0.59521,23.53562 0.16905,9.3276 -0.27785,18.62791 -1.08193,27.91611 -0.67488,6.97563 -1.0685,13.96872 -1.26271,20.97256 0.10556,11.10396 -0.84079,22.1673 -1.50631,33.24086 -0.55845,11.14689 -1.35972,22.27898 -1.86604,33.42869 -0.23546,5.38619 -0.33583,10.7769 -0.3711,16.1677 -0.43949,6.10973 -0.84471,12.15167 -0.0982,18.24601 0.56954,3.48863 2.10855,6.68768 3.77539,9.76827 1.36486,2.38153 2.55562,4.7872 3.2285,7.45499 0.51157,2.43595 0.54323,4.93304 0.57265,7.41138 -0.22895,2.15044 -0.74502,4.24955 -0.99428,6.40016 -0.0315,0.37747 -0.063,0.75495 -0.0945,1.13242 0,0 -7.58365,3.79145 -7.58365,3.79145 l 0,0 c 0.0268,-0.3848 0.0536,-0.7696 0.0804,-1.15439 0.21093,-2.13208 0.6181,-4.21989 1.04841,-6.3165 -0.0195,-2.41878 -0.0286,-4.8552 -0.48028,-7.24062 -0.61452,-2.61436 -1.77975,-4.94991 -3.10189,-7.27824 -1.71049,-3.18116 -3.25685,-6.49898 -3.83775,-10.0945 -0.70416,-6.13044 -0.37122,-12.21303 0.0905,-18.35642 0.008,-5.4197 0.005,-10.8407 0.4382,-16.24808 0.70572,-11.18239 1.6037,-22.3537 2.09388,-33.54847 0.66559,-11.0257 1.47265,-22.04917 1.30527,-33.10343 0.0901,-7.03461 0.45952,-14.04113 1.26382,-21.03526 0.83741,-9.26692 1.37587,-18.54839 1.12099,-27.85978 0.0161,-7.84236 0.0282,-15.69034 0.44336,-23.52388 0.43595,-6.15097 1.28851,-12.26073 1.65468,-18.41826 0.69355,-8.60837 1.34151,-17.22022 1.57221,-25.85617 -0.0329,-6.68553 -0.0389,-13.3742 -0.30239,-20.05552 -0.17742,-3.10749 -0.52473,-6.17129 -1.04549,-9.23752 0.0136,-3.74733 0.0267,-7.49464 0.0288,-11.242 -0.001,-4.55826 0.0106,-9.11651 0.008,-13.67478 -0.016,-3.88017 0.006,-7.76092 -0.0733,-11.64051 0,0 7.59139,-3.868 7.59139,-3.868 z"
           id="path3005"
           style="color:#000000;fill:#cb3c32;fill-opacity:1;fill-rule:nonzero;stroke:#c42836;stroke-width:0;stroke-linecap:square;stroke-linejoin:round;stroke-miterlimit:4;stroke-opacity:1;stroke-dasharray:none;stroke-dashoffset:0;marker:none;visibility:visible;display:inline;overflow:visible;enable-background:accumulate" />
        <path
           transform="scale(0.8,0.8)"
           inkscape:connector-curvature="0"
           d="m 313.83655,473.53265 c 8.19466,-0.76982 16.34685,-1.9627 24.52719,-2.88328 8.3292,-0.86833 16.68093,-1.52347 25.04675,-1.90282 3.19255,0.002 6.31726,-0.71687 9.47837,-1.07165 3.88644,-0.32802 7.79693,-0.23344 11.69308,-0.21571 7.60924,0.0379 15.21843,0.0226 22.82762,-0.0128 3.89914,-0.021 7.79834,-0.0357 11.69753,-0.0335 2.92421,-0.002 5.84842,-0.007 8.77263,-0.01 2.42989,-0.12324 4.91001,0.25019 7.30912,-0.19976 2.06626,-0.39377 4.0982,-0.83247 6.0726,-1.5704 0,0 -6.71085,5.2228 -6.71085,5.2228 l 0,0 c -2.01712,0.62959 -4.0682,1.10473 -6.15769,1.42693 -2.44509,0.21309 -4.90682,0.0409 -7.35876,0.094 -2.91477,-0.003 -5.82953,-0.008 -8.7443,-0.0107 -3.86436,8.3e-4 -7.72871,-0.0167 -11.59298,-0.0428 -7.59923,-0.0437 -15.19861,-0.0697 -22.79783,-0.005 -3.93421,0.0464 -7.88342,0.0121 -11.80194,0.4134 -3.12926,0.38421 -6.2432,0.99726 -9.41039,0.94172 -8.27037,0.29652 -16.53088,0.86361 -24.75837,1.7652 -8.32602,0.98164 -16.61995,2.26252 -24.96077,3.08454 0,0 6.86899,-4.99061 6.86899,-4.99061 z"
           id="path3007"
           style="color:#000000;fill:#cb3c32;fill-opacity:1;fill-rule:nonzero;stroke:#c42836;stroke-width:0;stroke-linecap:square;stroke-linejoin:round;stroke-miterlimit:4;stroke-opacity:1;stroke-dasharray:none;stroke-dashoffset:0;marker:none;visibility:visible;display:inline;overflow:visible;enable-background:accumulate" />
        <path
           transform="scale(0.8,0.8)"
           inkscape:connector-curvature="0"
           d="m 557.72121,446.5108 c 6.74061,-0.0849 13.47931,-0.57595 20.19564,-1.16113 7.69893,-0.82347 15.43647,-1.09305 23.1674,-1.43156 18.50647,-0.26658 36.95839,-1.55359 55.37153,-3.35181 9.89854,-1.18509 19.71055,-2.85734 29.66868,-3.44528 8.93852,-0.33606 17.88529,-0.32853 26.82875,-0.37238 4.9663,0.0199 9.91594,-0.59023 14.85533,-1.06718 8.99458,-0.76973 18.02306,-0.97727 27.04381,-1.20142 5.13595,-0.12497 10.27286,-0.20365 15.41024,-0.22908 1.32301,0.0373 2.59878,0.031 3.89982,-0.19975 0,0 -6.79609,5.07189 -6.79609,5.07189 l 0,0 c -1.30868,0.10762 -2.61073,0.11423 -3.92426,0.0843 -5.05775,-0.0151 -10.11574,-0.009 -15.17293,0.078 -9.05141,0.17746 -18.11218,0.42693 -27.12477,1.34009 -4.92815,0.50965 -9.87058,1.11843 -14.83474,0.95087 -8.92716,-0.0284 -17.86009,-0.0329 -26.7791,0.39819 -9.80935,0.63942 -19.51143,2.17794 -29.28546,3.19305 -18.51461,1.64951 -37.05732,2.89771 -55.63827,3.50586 -7.75911,0.42952 -15.52148,0.83798 -23.26216,1.53659 -6.83317,0.56269 -13.67735,1.05685 -20.52819,1.31733 0,0 6.90477,-5.01661 6.90477,-5.01661 z"
           id="path3009"
           style="color:#000000;fill:#cb3c32;fill-opacity:1;fill-rule:nonzero;stroke:#c42836;stroke-width:0;stroke-linecap:square;stroke-linejoin:round;stroke-miterlimit:4;stroke-opacity:1;stroke-dasharray:none;stroke-dashoffset:0;marker:none;visibility:visible;display:inline;overflow:visible;enable-background:accumulate" />
        <path
           transform="scale(0.8,0.8)"
           inkscape:connector-curvature="0"
           d="m 298.68178,804.9919 c 11.89197,-0.35419 23.75204,-1.32463 35.62049,-2.11226 10.25983,-0.82708 20.53486,-1.51813 30.74517,-2.8389 11.47473,-1.49189 22.9432,-2.94524 34.45617,-4.15563 14.34637,-1.43349 28.73582,-2.3945 43.08846,-3.7532 6.91172,-0.72194 13.82966,-1.36104 20.74216,-2.06662 11.90117,-0.49167 23.79331,-1.09265 35.67785,-1.90555 7.65809,-0.50229 15.30721,-1.19335 22.97894,-1.45774 0.90564,-0.0665 1.81442,-0.099 2.71691,-0.19957 2.70924,-0.30181 5.39244,-0.81075 8.10036,-1.12421 6.58976,-0.76283 13.2146,-1.07084 19.83522,-1.41801 11.60085,-0.27937 23.17032,-1.17596 34.75924,-1.70145 11.29255,-0.62821 22.59276,-1.07871 33.85092,-2.19349 6.61688,-0.82777 13.11173,-2.37444 19.76527,-2.88301 12.3341,-0.92117 24.71465,-1.07651 37.07179,-1.61343 10.19325,-0.37423 20.3741,-0.75055 30.53018,-1.71386 6.22336,-0.62379 12.48118,-0.63716 18.72857,-0.64841 9.22325,-0.43057 18.57683,-0.0279 27.60849,-2.20092 3.26543,-1.52393 6.43037,-2.96327 9.98653,-3.63926 2.64524,-0.42151 5.32905,-0.43734 8.00053,-0.44874 0,0 -6.84716,4.98207 -6.84716,4.98207 l 0,0 c -2.63491,0.0256 -5.28434,0.0691 -7.88128,0.56731 -3.45755,0.77251 -6.52973,2.37984 -9.85269,3.55401 -9.07813,1.86075 -18.40149,1.47381 -27.61452,1.98967 -6.2679,0.0983 -12.54192,0.18501 -18.788,0.77231 -10.04718,0.80848 -20.11433,1.04129 -30.18513,1.41502 -12.48211,0.52779 -24.99316,0.75394 -37.4359,1.92433 -6.56583,0.62397 -13.02014,2.0058 -19.57307,2.74977 -11.28451,1.01967 -22.60324,1.48067 -33.90968,2.188 -11.5116,0.53514 -23.01493,1.21764 -34.53558,1.54683 -5.82801,0.34293 -8.58243,0.44772 -14.31037,1.00009 -4.69449,0.4527 -9.31614,1.31347 -13.99762,1.83284 -0.91838,0.10189 -1.8434,0.13067 -2.76511,0.19601 -7.54707,0.25856 -15.08391,0.73491 -22.61891,1.22624 -11.982,0.78605 -23.97554,1.36485 -35.95617,2.14894 -6.83729,0.73057 -13.69344,1.23437 -20.53764,1.90099 -14.28076,1.23476 -28.59158,2.13465 -42.85303,3.59514 -11.65791,1.28348 -23.25117,2.93005 -34.87097,4.48038 -10.10362,1.19539 -20.27202,1.68557 -30.40845,2.5319 -12.07842,0.79224 -24.14433,1.75914 -36.22673,2.48901 0,0 6.90476,-5.0166 6.90476,-5.0166 z"
           id="path3011"
           style="color:#000000;fill:#cb3c32;fill-opacity:1;fill-rule:nonzero;stroke:#c42836;stroke-width:0;stroke-linecap:square;stroke-linejoin:round;stroke-miterlimit:4;stroke-opacity:1;stroke-dasharray:none;stroke-dashoffset:0;marker:none;visibility:visible;display:inline;overflow:visible;enable-background:accumulate" />
        <path
           transform="scale(0.8,0.8)"
           inkscape:connector-curvature="0"
           d="m 780.67168,440.72741 c -3.32098,7.03682 -5.0988,14.54427 -6.63882,22.12681 -2.56492,13.52459 -5.219,27.03113 -7.82021,40.54871 -1.63627,9.79288 -3.74652,19.55398 -4.35595,29.48351 0.036,7.92848 0.16264,15.85797 0.21337,23.78733 0.16871,19.76514 -0.25073,39.52467 -0.60181,59.28515 -0.431,15.47132 -0.94922,30.93977 -1.32728,46.41256 -0.2191,9.12136 -0.27925,18.24524 -0.32943,27.36874 6.6e-4,10.55039 -0.31627,21.12373 0.77635,31.63327 0.67089,4.39541 1.36628,8.77205 1.66681,13.21031 0.39738,5.14075 1.07394,8.27088 4.59406,12.15671 3.37676,2.71075 5.97861,3.32805 7.59468,7.65019 0.67886,2.60031 0.53296,5.30552 0.46269,7.96512 -0.3102,2.16046 -0.85396,4.26801 -1.11855,6.43811 -0.28906,1.64815 -0.76486,3.243 -1.41234,4.78289 0,0 -7.723,3.55 -7.723,3.55 l 0,0 c 0.64622,-1.48865 1.18576,-2.97315 1.53566,-4.56747 0.22395,-2.16037 0.65521,-4.27052 1.16323,-6.38073 0.0762,-2.56404 0.25198,-5.16881 -0.29962,-7.69459 -1.41203,-4.11839 -4.31322,-4.67393 -7.35062,-7.41777 -3.60953,-4.08307 -4.43491,-7.26333 -4.90692,-12.62032 -0.27244,-4.45151 -0.94039,-8.85048 -1.49061,-13.27373 -0.90558,-10.57344 -0.56809,-21.18783 -0.64497,-31.78835 -0.0286,-9.11526 -0.12958,-18.23582 0.22771,-27.34637 0.6605,-15.56776 1.54582,-31.12684 1.93367,-46.70561 0.33772,-19.67487 0.65424,-39.35105 0.14563,-59.0268 -0.14948,-7.90446 -0.53499,-15.80915 -0.51072,-23.71196 0.783,-10.0137 2.95695,-19.85753 4.65356,-29.7409 2.65962,-13.47764 5.26245,-26.96439 7.68545,-40.4866 1.45998,-7.51135 3.04101,-14.99976 6.18376,-22.02471 0,0 7.69422,-3.6135 7.69422,-3.6135 z"
           id="path3013"
           style="color:#000000;fill:#cb3c32;fill-opacity:1;fill-rule:nonzero;stroke:#c42836;stroke-width:0;stroke-linecap:square;stroke-linejoin:round;stroke-miterlimit:4;stroke-opacity:1;stroke-dasharray:none;stroke-dashoffset:0;marker:none;visibility:visible;display:inline;overflow:visible;enable-background:accumulate" />
        <path
           sodipodi:nodetypes="cccccccccccccccccccccccccccccccccccccccc"
           transform="scale(0.8,0.8)"
           inkscape:connector-curvature="0"
           d="m 769.53225,434.33328 c -0.47759,-5.32374 -2.75126,-10.19589 -4.78049,-15.06198 -2.23667,-4.43098 -3.67283,-9.12338 -4.45011,-14.00831 -0.461,-2.95463 -0.29515,-5.94814 -0.82907,-8.88838 -0.39465,-2.65739 -2.23725,-4.71648 -4.17721,-6.43853 -2.28732,-1.34367 -4.19268,-3.07282 -5.74343,-5.2132 -1.47949,-2.25412 -2.7653,-4.67283 -3.62245,-7.23623 -1.12252,-3.00801 -4.09433,-4.91755 -6.25222,-7.20817 -3.11822,-3.39909 -5.40243,-7.37767 -7.27783,-11.56445 -1.70143,-3.19193 -2.32438,-6.7267 -3.11894,-10.20429 -0.99121,-3.15548 -1.76254,-6.37214 -2.87824,-9.48789 -1.1761,-2.8883 -2.16714,-5.83925 -3.16706,-8.79302 -0.97593,-2.83149 -3.29774,-3.92028 -3.81293,-6.83462 -0.36632,-2.14704 -1.14462,-4.07097 -3.04221,-5.32494 -2.55518,-0.6761 -2.39766,-3.27236 -4.77497,-4.46402 -1.919,-1.2959 -3.28206,-3.2205 -5.17011,-4.54364 -1.6524,-1.45284 -2.8895,-3.26457 -4.49607,-4.78122 -2.13371,-1.34391 -3.4472,-3.13809 -4.1933,-5.51202 -0.31417,-1.53359 -0.18529,-0.75932 -0.38541,-2.323 l 7.50722,-3.9384 0,0 c 0.16412,1.48057 0.0564,0.75105 0.32007,2.189 0.66311,2.27257 1.98023,3.82628 3.959,5.13999 1.57633,1.49384 2.81161,3.2758 4.45902,4.68023 1.78557,1.36753 3.16245,3.20015 5.06275,4.42906 2.45055,1.1438 2.77141,3.96255 5.26517,4.95621 1.9516,1.51439 2.99499,3.11916 3.35015,5.51382 0.52678,2.87565 2.38393,3.9385 3.34479,6.73968 0.98391,2.95439 1.98497,5.89521 3.14862,8.78299 1.13335,3.14389 1.89564,6.39655 2.93715,9.5705 0.78988,3.42905 1.29478,6.94177 2.9839,10.09619 1.79189,4.12376 4.0663,7.99042 7.13261,11.3094 2.29436,2.33589 5.36207,4.33825 6.51926,7.4915 0.79498,2.49233 2.03734,4.83795 3.4904,7.00576 1.52915,2.08682 3.46539,3.6758 5.63449,5.0771 2.01928,1.86992 4.02952,4.08983 4.48273,6.90025 0.54605,2.96422 0.37646,5.96614 0.75961,8.95432 0.69699,4.84032 2.07612,9.48645 4.26187,13.88016 2.02595,4.90338 4.32732,9.78603 5.06552,15.09374 z"
           id="path3015"
           style="color:#000000;fill:#cb3c32;fill-opacity:1;fill-rule:nonzero;stroke:#c42836;stroke-width:0;stroke-linecap:square;stroke-linejoin:round;stroke-miterlimit:4;stroke-opacity:1;stroke-dasharray:none;stroke-dashoffset:0;marker:none;visibility:visible;display:inline;overflow:visible;enable-background:accumulate" />
        <path
           sodipodi:nodetypes="ccccccccsccccccccccccccccccccccsssccssccssccccccccccccccccccssscccsscccccccccccccccccccccccccccccc"
           transform="scale(0.8,0.8)"
           inkscape:connector-curvature="0"
           d="m 264.34467,325.69107 c 2.55633,2.61989 6.23609,3.92908 9.61538,5.16651 2.72022,0.96668 5.18803,2.40229 7.62421,3.92286 2.5822,1.15729 4.52514,3.15317 6.50866,5.09301 1.68173,1.75572 2.57929,4.05284 3.31065,6.33257 0.54972,2.55382 1.05602,5.00162 2.67664,7.0945 2.05661,2.69844 4.68224,4.9133 7.51443,6.74972 5.42632,3.2129 11.03836,6.07022 16.65794,8.92352 2.11281,1.21021 4.49355,1.84517 6.65741,2.94072 1.78284,0.90264 3.35489,2.16602 4.95409,3.34724 4.99928,3.85957 10.25515,5.67645 16.32736,7.12026 4.42958,1.08063 9.57808,0.53812 13.26065,3.59096 1.99924,2.99308 4.59767,5.30759 7.5083,7.37033 1.61468,1.3243 3.72397,1.64475 5.51836,2.59851 0.52012,0.27647 1.57236,1.05692 2.03702,1.39042 4.08628,2.92031 8.87286,4.61531 13.6437,6.03558 6.36241,1.78887 12.98333,1.96657 19.49646,2.76683 6.49866,1.454 12.97027,2.98383 19.53366,4.13865 5.32774,1.32211 8.20751,3.54051 13.17574,6.11484 1.9392,1.56586 4.43501,3.61563 6.67604,3.12967 1.30634,2.93102 3.19708,3.52653 6.04146,4.52497 3.99784,1.15123 8.04279,2.12229 12.05238,3.23355 4.70131,0.9589 9.30341,2.32762 13.99855,3.31109 3.7875,1.03266 7.65954,1.65197 11.45748,2.62801 2.31601,0.93511 4.46973,2.13962 6.81752,3.00233 4.41694,1.09526 8.97318,1.37843 13.41316,2.38796 3.36214,0.91821 6.80531,1.42228 10.27584,1.66452 4.68147,0.20648 9.36989,0.18481 14.05489,0.17646 4.17118,0.1825 7.88614,-0.0198 11.93436,-1.01827 5.05445,-1.01868 10.22497,-1.45322 15.36037,-1.8937 4.8594,-0.25728 9.70232,-0.435 14.22933,-2.36016 -2.03037,1.14065 -4.04586,2.30819 -6.0911,3.42195 -0.35887,0.19543 0.69756,-0.42719 1.02946,-0.66556 0.88215,-0.63357 1.59513,-1.49327 2.56407,-2.00834 2.91938,-1.55191 5.87794,-3.02897 8.81691,-4.54346 7.34727,-1.34143 14.63934,-2.81683 21.87218,-4.70054 3.41801,-1.08585 4.26733,-1.24951 7.45064,-2.64641 0.97511,-0.4279 3.76083,-1.9849 2.87282,-1.39723 -9.78726,6.47707 -3.43488,1.73797 -1.53412,0.14142 6.69531,-6.19497 14.81076,-10.49478 23.02427,-14.34618 3.78566,-1.75358 7.64667,-3.34012 11.40176,-5.16042 1.0207,-0.49479 4.00893,-2.12028 3.03548,-1.53801 -6.80511,4.07047 -5.37306,3.0937 -2.81781,1.00168 2.65396,-2.60239 4.14658,-6.04375 6.00255,-9.20614 2.75165,-5.06643 6.77361,-9.24361 10.27718,-13.77394 2.30534,-3.22848 4.16911,-6.63556 5.14141,-10.48713 0.54018,-3.79969 2.7889,-6.52608 5.28674,-9.25847 2.17645,-2.62503 3.76294,-5.66188 5.35327,-8.66034 1.30253,-2.50981 2.48083,-5.09453 3.54802,-7.71395 0.54612,-1.40139 0.74092,-2.88543 0.901,-4.369 l 7.59048,-3.77545 0,0 c -0.13413,1.54798 -0.29342,3.10071 -0.80082,4.58075 -1.00626,2.67458 -2.30396,5.24852 -3.55701,7.81281 -1.53546,3.0776 -3.23552,6.10233 -5.27984,8.8753 -2.44521,2.63771 -4.92992,5.11069 -5.43435,8.85637 -0.92109,3.99349 -2.75766,7.50417 -5.10716,10.85694 -3.46037,4.52453 -7.52987,8.62869 -10.27719,13.65832 -1.87046,3.21928 -3.36171,6.70225 -5.90339,9.47095 -7.39353,6.5074 -16.98078,9.74422 -25.74069,13.91317 -5.31919,2.56944 -5.06598,2.61063 -0.27038,-0.35222 0.98265,-0.60711 -2.00163,1.15818 -2.95247,1.81398 -0.80321,0.55398 -3.3065,2.63539 -4.14868,3.34917 -0.5037,0.42691 -0.99764,0.8652 -1.49647,1.29781 -6.55056,5.7991 -14.67498,9.63861 -23.03899,12.01373 -7.31662,1.86353 -14.71188,3.27142 -22.07856,4.89299 1.92609,-1.21832 3.87516,-2.40104 5.77827,-3.65494 0.59183,-0.38994 -1.25117,0.69375 -1.77355,1.17273 -3.01656,2.7659 -6.46976,4.33847 -10.27845,6.33714 -4.58501,1.64649 -9.40377,1.76049 -14.2266,2.05996 -5.15912,0.48053 -10.35386,0.97018 -15.4192,2.08548 -3.96632,0.88643 -7.94145,0.97047 -11.99804,0.82431 -4.72006,-0.0102 -9.44418,0.0327 -14.1605,-0.17923 -3.48204,-0.29006 -6.92417,-0.88033 -10.30001,-1.79407 -4.4879,-0.97707 -9.09241,-1.26233 -13.53249,-2.44192 -2.32121,-0.85249 -4.44051,-2.09865 -6.76655,-2.93595 -3.76293,-0.97951 -7.60083,-1.62997 -11.35496,-2.65527 -4.70227,-1.02241 -9.33988,-2.32203 -14.04411,-3.33674 -4.04565,-1.08824 -8.12016,-2.06432 -12.13883,-3.24995 -2.80622,-1.00435 -5.16412,-2.10984 -6.39882,-5.00725 -1.11247,-1.94588 -5.68689,-1.25722 -7.42368,-2.72375 -4.90135,-2.36616 -6.59157,-4.72742 -11.78159,-6.06944 -6.59279,-1.15673 -13.10414,-2.6699 -19.66059,-3.99744 -6.51505,-0.80564 -13.11432,-1.18469 -19.4738,-2.95205 -4.88212,-1.46463 -9.78023,-3.17554 -13.98912,-6.12908 -2.37599,-1.62741 -5.12717,-2.39767 -7.50664,-4.02953 -2.8952,-2.09305 -5.49444,-4.457 -7.58562,-7.3793 -3.59993,-2.81738 -8.66235,-2.20216 -12.86952,-3.40845 -6.15216,-1.53687 -11.53067,-3.43362 -16.63826,-7.30758 -3.68772,-2.6908 -7.24578,-4.43548 -11.44689,-6.23426 -5.63494,-2.89454 -11.27212,-5.78437 -16.75371,-8.96417 -2.91478,-1.89518 -5.66528,-4.13453 -7.77355,-6.9277 -1.6495,-2.18227 -2.29125,-4.6906 -2.82448,-7.3486 -0.66863,-2.15446 -1.5121,-4.32766 -3.09526,-5.98168 -1.92767,-1.92035 -3.89095,-3.77542 -6.40005,-4.93432 -2.40157,-1.45784 -4.82456,-2.86233 -7.47774,-3.82612 -3.49083,-1.35064 -7.20158,-2.75093 -9.93094,-5.39131 z"
           id="path3017"
           style="color:#000000;fill:#cb3c32;fill-opacity:1;fill-rule:nonzero;stroke:#c42836;stroke-width:0;stroke-linecap:square;stroke-linejoin:round;stroke-miterlimit:4;stroke-opacity:1;stroke-dasharray:none;stroke-dashoffset:0;marker:none;visibility:visible;display:inline;overflow:visible;enable-background:accumulate" />
        <path
           sodipodi:nodetypes="cccccccccccccccccccccccc"
           transform="scale(0.8,0.8)"
           inkscape:connector-curvature="0"
           d="m 673.7736,215.80713 c -0.54302,-3.39814 -1.37363,-6.74579 -2.46113,-10.0095 -0.84589,-2.95845 -2.38371,-5.60348 -4.01088,-8.18313 -1.57561,-1.5978 -2.29741,-3.69041 -3.32252,-5.6275 -1.14042,-2.93787 -3.36169,-4.60527 -6.20388,-5.75156 -2.43148,-0.59219 -1.51598,-1.63834 -2.00099,-4.38921 0.41206,-2.08784 -1.875,-3.54556 -1.21314,-5.58065 0.69898,-2.41907 0.82813,-4.93953 0.91168,-7.44048 0.0693,-2.24557 -1.23101,-3.50432 -2.65882,-5.01394 -1.19574,-1.65544 -3.06858,-2.78235 -4.91192,-3.6121 -0.29376,-0.17417 -0.58751,-0.34834 -0.88127,-0.52251 l 7.1235,-4.62634 0,0 c 0.28017,0.15696 0.56034,0.31393 0.84052,0.4709 1.89574,0.95764 1.89217,2.51967 3.15971,4.25664 1.5702,1.65523 1.80251,2.79718 1.80834,5.22564 -0.0697,2.56453 2.89885,5.14691 2.26157,7.64547 -0.57014,1.97071 -1.34441,3.84011 -2.35459,5.62833 0.0619,2.40105 3.1669,2.62897 4.9255,3.28582 2.92129,1.31685 5.32491,3.14813 6.54618,6.21022 1.03543,1.91073 1.7554,3.97541 3.28673,5.58314 1.638,2.64914 3.19983,5.36472 4.05847,8.38505 1.09866,3.28524 1.92397,6.65547 2.60922,10.0493 z"
           id="path3019"
           style="color:#000000;fill:#cb3c32;fill-opacity:1;fill-rule:nonzero;stroke:#c42836;stroke-width:0;stroke-linecap:square;stroke-linejoin:round;stroke-miterlimit:4;stroke-opacity:1;stroke-dasharray:none;stroke-dashoffset:0;marker:none;visibility:visible;display:inline;overflow:visible;enable-background:accumulate" />
        <path
           sodipodi:nodetypes="ccccccccccccccccccccccccccccccccccccccccccccccccccccccccccccccccccccccsscccc"
           transform="scale(0.8,0.8)"
           inkscape:connector-curvature="0"
           d="m 615.82644,109.77544 c -2.45346,-1.59676 -5.27089,-2.47697 -7.95373,-3.59578 -2.59665,-1.23507 -5.52347,-1.86982 -7.88529,-3.53856 -1.58667,-1.90785 -2.1643,-3.979734 -3.67698,-6.079263 -3.30035,-3.312614 -7.71454,-5.072925 -11.96939,-6.802637 -3.92366,-1.691584 -8.3259,-2.246799 -12.08958,-4.284011 -2.16244,-1.485598 -3.74311,-3.61677 -5.53597,-5.506063 -3.70085,-2.459081 -8.41106,-2.807749 -12.71682,-3.351605 -5.20509,-0.305643 -10.29811,-1.294188 -15.39511,-2.310085 -4.88135,-0.7743 -9.83492,-0.93667 -14.75815,-1.329479 -6.68731,-0.629547 -13.35304,-1.361242 -20.06388,-1.734011 -4.65883,0.279302 -9.04349,-1.195319 -13.54504,-2.034869 -6.16522,-0.788415 -12.40527,-0.733424 -18.60996,-0.816431 -9.13753,-0.07874 -18.27537,-0.0452 -27.41299,-0.008 -5.84795,-0.175899 -11.66433,0.247098 -17.4938,0.609245 -7.88326,0.666081 -15.59055,2.522583 -23.3044,4.187051 -3.4133,0.730608 -5.90692,4.15062 -9.35445,4.689359 -11.96474,-0.47355 6.30647,-9.984743 -3.48591,0.01593 -1.98811,2.127438 -4.16631,4.00228 -6.46707,5.776601 -3.9867,3.082315 -8.09728,5.983891 -12.25464,8.8293 -6.57155,4.817685 -12.55239,10.342578 -18.54548,15.842588 -4.11915,3.85896 -7.66807,8.26142 -11.091,12.73282 -2.90506,3.76504 -5.73585,7.58871 -8.7816,11.2422 -3.48244,3.75229 -5.9499,8.22343 -8.69983,12.49726 -3.44322,5.65597 -7.61587,10.81053 -11.43504,16.20766 -2.68908,3.58197 -4.28159,7.74294 -6.17137,11.7515 -1.30905,2.33152 -3.04889,4.39484 -4.87184,6.33991 -1.79917,1.78996 -3.02808,4.03259 -4.50827,6.07554 -1.87738,2.19868 -3.78528,4.36929 -5.52101,6.68447 -2.09766,2.69348 -4.01639,5.44666 -5.60789,8.46964 -1.93388,4.04491 -2.98684,8.44282 -3.89966,12.81116 -1.2763,7.2293 -3.47398,14.23652 -5.40574,21.30587 -1.9208,7.1395 -3.5951,14.35266 -5.8415,21.39998 -1.20555,3.5342 -3.2535,6.68063 -5.42062,9.69117 -2.1818,2.51252 -4.40518,4.9875 -6.58427,7.50198 -1.38138,1.77408 -3.27441,3.19542 -4.4093,5.15109 l -7.73752,3.54172 0,0 c 0.76339,-2.19857 2.97035,-3.61282 4.37841,-5.40046 2.12079,-2.55078 4.38386,-4.99145 6.60988,-7.44903 2.21067,-2.94221 4.29443,-6.04389 5.62418,-9.49329 2.401,-7.02013 4.14523,-14.2468 5.99617,-21.42547 1.9217,-7.02719 4.06294,-14.0082 5.31415,-21.19639 0.8267,-4.42621 1.86881,-8.86795 3.72569,-12.98808 1.54381,-3.06617 3.3417,-5.89466 5.50381,-8.56469 1.66837,-2.36507 3.57351,-4.55224 5.5125,-6.69712 1.57554,-2.0044 2.70978,-4.29149 4.43201,-6.17066 1.92572,-1.8061 3.55404,-3.93726 5.04643,-6.10775 1.99726,-4.02224 3.50462,-8.29792 6.23521,-11.92941 3.80153,-5.40675 8.0319,-10.51783 11.4576,-16.18189 2.77558,-4.25406 5.07558,-8.83482 8.59249,-12.56621 3.09376,-3.60231 5.87136,-7.45919 8.79092,-11.20171 3.45583,-4.51632 7.01776,-8.98184 11.1434,-12.91394 6.02084,-5.48351 11.98835,-11.02591 18.49388,-15.943869 4.08463,-2.832558 8.16374,-5.655058 12.08943,-8.708355 2.26247,-1.803269 4.5864,-3.491227 6.49478,-5.701046 9.49526,-5.618579 8.23971,-8.353365 18.7409,-9.882136 3.40627,-0.505513 5.04536,-2.262932 8.41512,-2.974883 7.76518,-1.667065 15.5264,-3.533275 23.46533,-4.157146 5.82042,-0.403349 11.62933,-0.750454 17.46893,-0.524871 9.12752,0.0225 18.25502,0.02879 27.38254,0.03944 6.29931,0.02214 12.64399,-0.04483 18.89828,0.796888 4.42449,0.884145 8.75186,2.259869 13.33701,2.046036 6.71843,0.399194 13.40015,1.099138 20.09782,1.729286 4.9808,0.368485 10.00378,0.437428 14.92645,1.337792 5.04871,1.05483 10.10418,1.987169 15.26498,2.325688 4.50298,0.581317 9.42769,0.932878 13.1817,3.730002 1.73703,1.818074 3.24916,3.901597 5.38035,5.280585 3.75771,1.93395 8.06289,2.601506 11.9353,4.287337 4.39476,1.805072 8.9455,3.67275 12.32738,7.128505 0.79579,1.094804 1.59018,2.177644 2.12806,3.430081 0.39117,0.91081 0.16847,0.905012 0.769,1.702752 0.18901,0.25108 0.43484,0.453838 0.65227,0.680756 2.36296,1.543296 5.20747,2.208388 7.74355,3.421618 2.72966,1.10827 5.52569,2.0852 8.07324,3.59101 z"
           id="path3021"
           style="color:#000000;fill:#cb3c32;fill-opacity:1;fill-rule:nonzero;stroke:#c42836;stroke-width:0;stroke-linecap:square;stroke-linejoin:round;stroke-miterlimit:4;stroke-opacity:1;stroke-dasharray:none;stroke-dashoffset:0;marker:none;visibility:visible;display:inline;overflow:visible;enable-background:accumulate" />
        <path
           transform="scale(0.8,0.8)"
           inkscape:connector-curvature="0"
           d="m 260.62386,204.65883 c 2.76997,0.0366 5.54028,0.029 8.31043,0.0267 2.67499,-0.003 5.34999,-0.006 8.02498,-0.007 2.05588,-8e-4 4.11175,-8.9e-4 6.16762,-9.7e-4 0,0 -6.85289,4.97892 -6.85289,4.97892 l 0,0 c -2.05498,-8e-5 -4.10997,-1.6e-4 -6.16495,-9.7e-4 -2.66866,-0.001 -5.33733,-0.004 -8.00599,-0.007 -2.79466,-0.002 -5.58947,-0.009 -8.38397,0.0267 0,0 6.90477,-5.0166 6.90477,-5.0166 z"
           id="path3023"
           style="color:#000000;fill:#cb3c32;fill-opacity:1;fill-rule:nonzero;stroke:#c42836;stroke-width:0;stroke-linecap:square;stroke-linejoin:round;stroke-miterlimit:4;stroke-opacity:1;stroke-dasharray:none;stroke-dashoffset:0;marker:none;visibility:visible;display:inline;overflow:visible;enable-background:accumulate" />
        <path
           transform="scale(0.8,0.8)"
           inkscape:connector-curvature="0"
           d="m 231.93864,233.00578 c -2.1581,3.45219 -3.04169,7.41832 -3.77269,11.36786 -0.81994,4.95362 -0.94584,9.98015 -1.01364,14.98928 -0.0483,4.39405 -0.0149,8.78861 0.0147,13.18271 0.014,4.592 0.0533,9.18354 -0.1812,13.7701 -0.58003,7.33166 -0.6541,14.6899 -1.10598,22.02712 -0.35196,5.86313 -1.33941,11.65971 -1.91852,17.50098 -0.38856,5.3285 -0.50023,10.66472 -0.87369,15.99515 -0.40177,7.99575 -0.8739,15.98407 -1.38706,23.9737 -0.44147,7.04981 -0.61268,14.11279 -0.67666,21.17496 0.22237,4.2064 0.80296,8.36951 0.9824,12.57965 0.19056,7.64968 0.1521,15.30284 0.14385,22.95422 0.11473,8.96391 -0.26347,17.9446 0.19661,26.90069 0.77946,7.24701 0.57623,14.51292 0.34478,21.78056 -0.37795,10.83029 -0.47816,21.66658 -0.49605,32.50251 -0.10482,4.16725 0.73912,8.30195 0.62833,12.46561 -0.0454,1.70771 -0.3038,3.88011 -0.47976,5.57621 -1.25351,6.85673 -2.46872,13.65656 -2.79,20.63 -0.29312,5.26856 -0.12578,9.47029 1.74417,14.39439 1.91308,4.81039 0.59524,10.2245 -0.29348,15.13732 -1.96499,7.74909 -2.78529,15.67589 -3.29481,23.63189 -0.11452,2.47702 -0.24228,3.47118 -0.10155,5.7696 0.0243,0.3977 0.0425,0.80332 0.15691,1.18498 0.0184,0.0613 0.23133,-0.10993 0.17381,-0.0818 -2.39381,1.17149 -4.78848,2.34121 -7.18273,3.51181 0,0 7.85569,-3.34063 7.85569,-3.34063 l 0,0 c -2.63666,1.46338 -5.16885,3.13329 -7.90998,4.39015 -0.40624,0.18627 -0.51045,-0.62932 -0.53542,-1.86469 -0.0493,-2.43715 0.0722,-3.27444 0.24272,-5.90972 0.53538,-7.95443 1.18437,-15.91025 3.15114,-23.66618 0.87511,-4.76104 2.19625,-9.99799 0.38267,-14.67615 -0.40611,-1.09442 -0.97301,-2.53187 -1.24315,-3.65627 -0.87505,-3.64224 -0.51203,-7.41523 -0.49968,-11.11736 0.276,-6.97359 1.44298,-13.78649 2.69675,-20.64143 0.16382,-1.51451 0.4554,-3.95194 0.51069,-5.4821 0.15153,-4.19368 -0.60773,-8.37598 -0.4536,-12.573 0.1475,-10.83653 0.25946,-21.67367 0.47419,-32.50913 0.16121,-7.23595 0.32054,-14.46194 -0.42132,-21.67676 -0.31757,-8.99033 0.0784,-17.99563 -0.0968,-26.99002 -0.0345,-7.60563 -0.0375,-15.21471 -0.32839,-22.81583 -0.2349,-4.22744 -0.792,-8.42427 -0.94572,-12.6561 0.11601,-7.09026 0.28775,-14.18028 0.74689,-21.2583 0.52025,-7.97799 1.01642,-15.95172 1.3207,-23.94147 0.32831,-5.32667 0.39816,-10.65663 0.7787,-15.97846 0.58115,-5.85617 1.66967,-11.65109 2.0391,-17.52901 0.49011,-7.32314 0.55563,-14.66974 1.07092,-21.99316 0.19036,-4.55728 0.0841,-9.11388 0.0828,-13.67429 0.006,-4.40843 0.002,-8.81687 0.0359,-13.22522 0.0852,-5.05018 0.14312,-10.12125 0.97044,-15.118 0.6776,-3.94405 1.41274,-8.01414 3.48749,-11.50117 0,0 7.76959,-3.51521 7.76959,-3.51521 z"
           id="path3025"
           style="color:#000000;fill:#cb3c32;fill-opacity:1;fill-rule:nonzero;stroke:#c42836;stroke-width:0;stroke-linecap:square;stroke-linejoin:round;stroke-miterlimit:4;stroke-opacity:1;stroke-dasharray:none;stroke-dashoffset:0;marker:none;visibility:visible;display:inline;overflow:visible;enable-background:accumulate" />
        <path
           transform="scale(0.8,0.8)"
           inkscape:connector-curvature="0"
           d="m 216.65885,597.94736 c 5.27029,2.60873 6.81979,6.08977 8.90692,11.36838 2.3337,6.31726 3.01166,13.03924 4.17573,19.62683 0.59043,4.08549 1.09255,8.14774 1.94297,12.19062 0.96635,6.30319 1.68083,12.64326 2.51382,18.96576 0.39212,3.14667 0.68252,6.33459 1.52175,9.40547 0.54864,2.00758 1.43623,3.93018 2.09523,5.90377 1.28227,5.15255 2.48185,10.31854 3.95362,15.42173 2.62723,8.71367 4.50574,17.63236 7.01039,26.3762 2.11238,7.01023 4.20071,14.02828 6.78265,20.88199 3.20262,9.07309 6.49634,18.12229 9.22339,27.35225 1.84998,5.21769 2.50167,10.80623 5.19585,15.68362 2.72134,4.25654 6.78196,7.28733 10.50594,10.59653 2.42569,2.25423 4.43805,4.97539 5.85827,7.96794 0.86242,2.54912 0.89587,5.25904 1.35961,7.89199 0.54147,1.81458 1.24523,3.57057 1.94014,5.32972 0,0 -7.40213,4.12952 -7.40213,4.12952 l 0,0 c -0.71645,-1.81219 -1.44811,-3.61616 -2.00801,-5.48584 -0.46111,-2.56472 -0.51842,-5.18817 -1.2657,-7.69256 -1.32742,-2.90735 -3.24317,-5.55408 -5.57472,-7.73824 -3.78546,-3.38404 -7.881,-6.50991 -10.68664,-10.82205 -2.7144,-5.00574 -3.30722,-10.5876 -5.07633,-15.95819 -2.61455,-9.24011 -5.90715,-18.26621 -9.24882,-27.26483 -2.5888,-6.87782 -4.7873,-13.89084 -6.77656,-20.96506 -2.43057,-8.75552 -4.28174,-17.6707 -7.07954,-26.3282 -1.5175,-5.06819 -2.80866,-10.18938 -4.0659,-15.32765 -0.66097,-2.00852 -1.52406,-3.97624 -2.0617,-6.02256 -0.81684,-3.10898 -1.10091,-6.32548 -1.4793,-9.50602 -0.82848,-6.28502 -1.62629,-12.57794 -2.61318,-18.83922 -0.87175,-4.05555 -1.4657,-8.11443 -1.93465,-12.23583 -1.04625,-6.56062 -1.66206,-13.24816 -3.99475,-19.52148 -1.98327,-4.84236 -3.69565,-8.57625 -8.79199,-10.64565 0,0 7.07364,-4.73894 7.07364,-4.73894 z"
           id="path3027"
           style="color:#000000;fill:#cb3c32;fill-opacity:1;fill-rule:nonzero;stroke:#c42836;stroke-width:0;stroke-linecap:square;stroke-linejoin:round;stroke-miterlimit:4;stroke-opacity:1;stroke-dasharray:none;stroke-dashoffset:0;marker:none;visibility:visible;display:inline;overflow:visible;enable-background:accumulate" />
      </g>
      <path
         style="color:#000000;fill:#cb3c32;fill-opacity:1;fill-rule:nonzero;stroke:#c42836;stroke-width:0;stroke-linecap:square;stroke-linejoin:round;stroke-miterlimit:4;stroke-opacity:1;stroke-dasharray:none;stroke-dashoffset:0;marker:none;visibility:visible;display:inline;overflow:visible;enable-background:accumulate"
         id="path3821"
         d="m 623.26435,121.79042 c -1.7281,-1.87999 -3.46204,-3.76085 -4.93053,-5.85619 -1.36476,-2.22403 -2.26887,-4.68639 -3.55437,-6.94895 -1.25651,-1.92865 -3.38829,-1.98839 -5.37605,-2.60066 0,0 7.00668,-4.79488 7.00668,-4.79488 l 0,0 c 2.22553,0.60158 4.39,1.05618 5.70952,3.16831 1.25476,2.24817 2.17439,4.66916 3.5046,6.88038 1.4449,2.05238 3.13979,3.9246 4.91418,5.69446 0,0 -7.27403,4.45753 -7.27403,4.45753 z"
         inkscape:connector-curvature="0"
         transform="scale(0.8,0.8)" />
    </g>
    <path
       inkscape:connector-curvature="0"
       id="path3849"
       d="m 233.86214,647.40844 c -0.37226,-0.37226 -0.42185,-3.40739 -0.1102,-6.74473 0.49987,-5.35302 0.20496,-6.89193 -2.50313,-13.06207 -2.9359,-6.68916 -3.06961,-7.56517 -3.06628,-20.08842 0.002,-7.20186 0.43938,-19.94471 0.97216,-28.31745 1.47274,-23.1449 2.90765,-52.72486 3.93055,-81.02655 0.50761,-14.0446 1.39637,-31.06018 1.97502,-37.81239 0.64792,-7.56033 0.79805,-21.74917 0.3908,-36.93329 -0.66772,-24.89508 0.12016,-34.43118 2.91096,-35.23303 0.6114,-0.17566 5.75225,-0.82892 11.42411,-1.45167 5.67185,-0.62276 13.40621,-1.74578 17.18745,-2.49562 9.6859,-1.92073 20.46149,-2.5972 52.71288,-3.30916 27.04278,-0.59699 28.25005,-0.70568 30.44634,-2.74102 2.10353,-1.94939 4.53209,-2.28579 30.27795,-4.19396 25.92531,-1.92146 34.12547,-3.06949 36.94847,-5.17278 1.31272,-0.97804 9.54044,-1.75235 24.92635,-2.34581 6.21203,-0.23961 15.45163,-0.85034 20.53243,-1.35717 6.25966,-0.62443 9.85574,-0.59082 11.15452,0.10426 1.33754,0.71584 2.23122,0.71126 2.95762,-0.0151 1.09157,-1.09157 0.21716,-1.63628 -3.70716,-2.30936 -1.08036,-0.1853 7.53792,-0.88601 19.15172,-1.55715 11.61381,-0.67113 27.08252,-1.85619 34.37491,-2.63346 7.29239,-0.77727 24.30796,-1.87334 37.81239,-2.43569 13.50442,-0.56236 29.54764,-1.30658 35.65159,-1.65383 8.91793,-0.50734 11.04023,-0.37724 10.80354,0.66225 -0.17203,0.75548 1.13543,1.7031 3.14293,2.27796 1.89063,0.5414 3.54492,1.05363 3.67621,1.1383 0.1313,0.0847 -0.63145,2.77195 -1.69498,5.97175 -1.06354,3.1998 -4.23386,17.52983 -7.04515,31.84452 l -5.11147,26.02671 -0.28976,35.84812 c -0.15936,19.71645 -0.73967,51.97976 -1.28957,71.69621 -0.97876,35.09351 -0.34796,57.76199 1.86901,67.16475 0.55015,2.33332 2.45525,5.4015 4.90174,7.8943 3.14902,3.20862 4.00184,4.81344 4.00184,7.53063 0,3.38908 -0.12283,3.49418 -6.62945,5.67238 -5.64235,1.88888 -9.91974,2.35026 -28.72759,3.0987 -40.35671,1.60596 -63.21962,2.94403 -75.13371,4.39726 -10.51888,1.28302 -22.10228,2.06624 -58.9284,3.98446 -5.94195,0.30951 -14.33924,0.95616 -18.66066,1.43701 -4.32142,0.48084 -16.69638,1.35926 -27.49992,1.95203 -23.12758,1.26897 -68.89952,5.18828 -91.83009,7.86312 -18.6897,2.18015 -33.12541,3.52481 -52.54449,4.89443 -7.56248,0.53338 -14.86027,1.22575 -16.21731,1.5386 -1.35703,0.31286 -2.77191,0.26426 -3.14417,-0.108 l 0,0 z"
       style="color:#000000;fill:#cfcfcf;fill-opacity:1;fill-rule:nonzero;stroke:#c42836;stroke-width:0;stroke-linecap:square;stroke-linejoin:round;stroke-miterlimit:4;stroke-opacity:1;stroke-dasharray:none;stroke-dashoffset:0;marker:none;visibility:visible;display:inline;overflow:visible;enable-background:accumulate" />
    <path
       inkscape:connector-curvature="0"
       id="path3857"
       d="m 221.3559,633.07138 -5.28098,-5.25968 -8.22163,-25.04457 c -9.6246,-29.31827 -19.26406,-64.75275 -20.83984,-76.60692 -4.08931,-30.76267 -6.72137,-40.64774 -11.59385,-43.54227 -1.55009,-0.92084 -1.21362,-5.85115 1.38514,-20.29683 1.25472,-6.97464 1.30179,-9.41084 0.28606,-14.80676 -0.75594,-4.01581 -0.95682,-9.03057 -0.53112,-13.25889 1.31775,-13.08875 2.01542,-63.07904 1.34906,-96.66612 -0.49138,-24.76856 -0.29925,-39.96069 0.71422,-56.47306 2.10778,-34.3419 3.35595,-48.77214 4.53646,-52.4463 0.70174,-2.18406 0.85668,-8.29996 0.44788,-17.67852 l -0.62503,-14.33922 2.30759,5.40178 c 1.26916,2.97096 3.30824,7.3529 4.53128,9.73763 1.84468,3.59681 2.37992,6.86121 3.14016,19.15173 0.80589,13.02823 2.91659,27.8365 5.75248,40.3583 0.49019,2.16444 2.23792,11.54709 3.88383,20.85032 1.64591,9.30323 4.50466,21.89613 6.35279,27.98419 1.84812,6.08808 4.65906,15.93083 6.24654,21.87277 1.58748,5.94195 4.04126,14.11826 5.45285,18.16959 1.41159,4.05133 2.90971,10.45979 3.32915,14.24103 0.51794,4.66922 1.15651,6.7962 1.99029,6.62944 1.66296,-0.33259 1.54994,1.8994 -0.21429,4.23192 -1.88068,2.48647 -1.91828,4.73077 -0.0674,4.02051 0.84586,-0.32459 2.27668,0.51593 3.47792,2.04306 1.82833,2.32435 1.8765,2.68651 0.46256,3.47779 -1.41178,0.79007 -1.54556,4.47488 -1.26811,34.92763 0.1706,18.72442 -0.24063,45.09346 -0.91384,58.59789 -0.67321,13.50443 -1.66762,33.72424 -2.20981,44.93291 -0.5422,11.20867 -1.50184,29.77111 -2.13256,41.24988 -0.63071,11.47876 -1.18316,27.72089 -1.22767,36.09364 -0.079,14.85824 -0.0149,15.34864 2.6759,20.45713 1.51625,2.87868 2.60564,5.68751 2.42086,6.24183 -0.18477,0.55432 -2.71238,-1.359 -5.61693,-4.25183 l 0,0 z"
       style="color:#000000;fill:#cfcfcf;fill-opacity:1;fill-rule:nonzero;stroke:#c42836;stroke-width:0;stroke-linecap:square;stroke-linejoin:round;stroke-miterlimit:4;stroke-opacity:1;stroke-dasharray:none;stroke-dashoffset:0;marker:none;visibility:visible;display:inline;overflow:visible;enable-background:accumulate" />
    <path
       inkscape:connector-curvature="0"
       id="path3859"
       d="m 220.68698,632.99567 c -4.75581,-5.04889 -5.08318,-5.79813 -12.5645,-28.75533 -4.2248,-12.96425 -7.81505,-24.23431 -7.97833,-25.04457 -0.16328,-0.81027 -0.3645,-1.47321 -0.44716,-1.47321 -0.0827,0 -0.31162,-0.66294 -0.5088,-1.47321 -0.42802,-1.75885 -0.39189,-1.62645 -5.36085,-19.6428 -5.47709,-19.85877 -5.08432,-18.04077 -7.81385,-36.16625 -3.84279,-25.51797 -5.07811,-30.26555 -9.56049,-36.74302 l -2.53852,-3.66839 1.80286,-12.04585 c 0.99156,-6.62521 1.61164,-14.03467 1.37794,-16.46547 -0.2337,-2.43079 -0.32165,-9.06024 -0.19544,-14.7321 0.12621,-5.67185 0.38783,-41.61939 0.5814,-79.88341 0.31634,-62.53372 0.66543,-77.6868 2.20979,-95.91964 0.25165,-2.97098 0.87948,-10.48435 1.39519,-16.69639 0.5157,-6.21203 1.33616,-13.72541 1.82324,-16.69637 0.48709,-2.97098 0.64556,-11.14729 0.35217,-18.1696 -0.29339,-7.0223 -0.31681,-12.54684 -0.0521,-12.27675 1.66424,1.6977 8.97475,19.62023 9.18321,22.5137 1.49222,20.71177 3.07434,33.65081 5.83363,47.70931 1.80238,9.18301 4.18303,21.79362 5.29035,28.02358 1.10732,6.22995 3.17474,15.29019 4.59427,20.13387 1.41952,4.84367 2.72503,9.46961 2.90114,10.27989 0.17611,0.81026 0.39084,1.4732 0.47719,1.4732 0.0864,0 0.31008,0.88393 0.49718,1.96428 0.81229,4.6902 2.74681,11.52774 6.11319,21.60708 1.98455,5.94195 3.498,11.356 3.36324,12.03122 -0.13476,0.67522 0.12161,1.22767 0.56971,1.22767 0.44811,0 0.87922,0.77343 0.95803,1.71875 0.61097,7.32862 2.12729,14.2998 3.26306,15.00174 1.14335,0.70663 1.08917,1.41469 -0.33716,4.40574 -0.9347,1.96008 -1.25,3.28601 -0.70065,2.94649 0.54934,-0.3395 0.9988,-0.14924 0.9988,0.42282 0,0.57205 0.51632,0.92961 1.14738,0.79457 1.61719,-0.34608 3.88614,4.31589 2.76058,5.67211 -0.49464,0.59602 -1.14325,17.62885 -1.44134,37.85075 -0.61622,41.80333 -1.83552,77.67009 -3.97102,116.81149 -0.81045,14.85487 -1.75369,37.71332 -2.09608,50.79657 l -0.62252,23.78772 2.70143,6.01959 c 3.68197,8.20451 2.16503,9.21179 -4.00623,2.66022 l 0,0 z"
       style="color:#000000;fill:#e8e8e8;fill-opacity:1;fill-rule:nonzero;stroke:#c42836;stroke-width:0;stroke-linecap:square;stroke-linejoin:round;stroke-miterlimit:4;stroke-opacity:1;stroke-dasharray:none;stroke-dashoffset:0;marker:none;visibility:visible;display:inline;overflow:visible;enable-background:accumulate" />
    <path
       inkscape:connector-curvature="0"
       id="path3867"
       d="m 451.36424,358.61394 c -1.63096,-0.75011 -0.57154,-2.36395 1.55184,-2.36395 0.92143,0 3.32007,-0.88153 5.33032,-1.95896 2.01025,-1.07742 7.55114,-2.82681 12.31311,-3.88752 11.93894,-2.65935 18.67798,-5.41247 24.34994,-9.94773 2.65721,-2.12471 8.87795,-5.81492 13.82385,-8.20048 12.1956,-5.88233 16.31731,-8.76615 18.7724,-13.13441 1.14431,-2.03602 4.46181,-6.93006 7.37223,-10.87565 2.91041,-3.94559 5.86366,-8.79095 6.56277,-10.76747 0.69912,-1.97651 3.13545,-6.46643 5.41408,-9.97758 3.562,-5.48871 7.39475,-13.44865 7.39475,-15.35759 0,-0.32216 -0.88393,-0.35459 -1.96428,-0.0721 -2.5213,0.65934 -2.50767,-1.06929 0.0642,-8.1417 1.08037,-2.97096 2.96143,-8.60735 4.18012,-12.52529 l 2.21581,-7.12352 4.31948,4.40125 c 2.37573,2.42068 6.235,5.18431 8.57616,6.14138 3.6554,1.49434 4.39381,2.29506 5.22759,5.6687 1.42825,5.77906 6.82825,23.91695 8.53536,28.66915 0.81313,2.2636 3.60978,6.76062 6.21476,9.99337 2.60498,3.23275 5.47145,7.29929 6.36993,9.03676 0.89848,1.73747 3.17467,4.57084 5.05818,6.29637 2.98166,2.73155 3.59571,4.12275 4.74761,10.75606 0.72767,4.1903 1.1202,8.14729 0.87229,8.7933 -0.24789,0.64602 0.83905,3.14609 2.41544,5.55573 1.57639,2.40963 3.15446,5.74722 3.50682,7.41686 l 0.64067,3.0357 -16.98563,0.67489 c -46.50618,1.84782 -60.21242,2.61721 -71.49437,4.01325 -16.24974,2.01077 -73.08937,4.9371 -75.38537,3.88115 z"
       style="color:#000000;fill:#fdd1d2;fill-opacity:1;fill-rule:nonzero;stroke:#c42836;stroke-width:0;stroke-linecap:square;stroke-linejoin:round;stroke-miterlimit:4;stroke-opacity:1;stroke-dasharray:none;stroke-dashoffset:0;marker:none;visibility:visible;display:inline;overflow:visible;enable-background:accumulate" />
    <path
       sodipodi:nodetypes="cssssssscssssssssssssssssssssssssssscc"
       inkscape:connector-curvature="0"
       id="path3875"
       d="m 235.54758,382.77559 c -0.35585,-1.1212 -1.56036,-2.88947 -2.67669,-3.92949 -1.55366,-1.44745 -2.19823,-3.6855 -2.7483,-9.54264 -0.4715,-5.02055 -1.81189,-10.33669 -3.89799,-15.45998 -1.74866,-4.29456 -4.05304,-11.58695 -5.12083,-16.20531 -1.0678,-4.61837 -3.67776,-14.09079 -5.79991,-21.04983 -2.12215,-6.95904 -4.52976,-17.12232 -5.35025,-22.58504 -0.8205,-5.46274 -2.13764,-13.02787 -2.92699,-16.8114 -0.78935,-3.78354 -1.43555,-7.43654 -1.43599,-8.1178 -8e-4,-1.58047 15.07179,5.90948 18.21236,9.05005 1.2514,1.25139 2.73829,3.99479 3.3042,6.09645 1.46187,5.42895 6.79892,10.05836 18.75038,16.26426 5.67185,2.94515 12.33477,6.52673 14.80649,7.95907 2.4717,1.43233 7.90077,3.45557 12.0646,4.4961 5.82189,1.45487 12.1,4.89043 15.18224,7.67504 6.75547,6.10316 14.84816,8.88191 26.69647,10.63762 5.67185,0.84047 13.18523,2.1393 16.69638,2.8863 3.51115,0.74701 8.88231,3.52451 11.16233,4.87709 7.64482,4.53514 12.02621,3.85181 13.23531,5.23916 6.54612,7.51122 -0.85201,1.74627 14.95241,5.52022 8.3373,1.99087 16.70559,4.24725 18.59621,5.01418 1.89061,0.76693 7.57543,2.12726 12.63292,3.02296 8.96901,1.58845 23.45841,1.56045 41.87585,-0.0809 4.14533,-0.36943 5.26732,-0.25053 3.78352,0.40096 -1.16012,0.50937 -2.40832,1.40993 -2.77377,2.00125 -0.41865,0.67738 -2.36335,0.85305 -5.25674,0.47482 -3.26521,-0.42682 -8.56569,0.2497 -18.34223,2.34111 -21.68032,4.63788 -27.18418,5.32682 -48.61593,6.0855 -11.07363,0.392 -21.79123,1.04822 -23.81689,1.45827 -2.5242,0.51096 -3.68303,0.39608 -3.68303,-0.36512 0,-0.61086 -0.66295,-1.11065 -1.47321,-1.11065 -0.8979,0 -1.47321,0.91514 -1.47321,2.34345 0,4.5089 -4.50843,5.51367 -24.73994,5.51367 -24.69447,0 -65.12649,3.44804 -67.9546,5.79516 -0.70133,0.58206 -3.00356,0.96245 -5.11605,0.84533 -2.11249,-0.11712 -4.79968,0.12717 -5.97151,0.54288 -1.66865,0.59196 -2.27089,0.31384 -2.77761,-1.28271 z"
       style="color:#000000;fill:#fdd1d2;fill-opacity:1;fill-rule:nonzero;stroke:#c42836;stroke-width:0;stroke-linecap:square;stroke-linejoin:round;stroke-miterlimit:4;stroke-opacity:1;stroke-dasharray:none;stroke-dashoffset:0;marker:none;visibility:visible;display:inline;overflow:visible;enable-background:accumulate" />
    <path
       inkscape:connector-curvature="0"
       id="path3877"
       d="m 199.32727,223.1321 c -0.33683,-0.87777 -0.61242,-3.46152 -0.61242,-5.74166 0,-2.79885 -1.22574,-6.6815 -3.77284,-11.95089 -2.07507,-4.29284 -4.33365,-9.57302 -5.01907,-11.73373 -0.68543,-2.16071 -1.94258,-4.47932 -2.79367,-5.15248 -0.98452,-0.77871 -1.69906,-3.32024 -1.96427,-6.98667 -0.41634,-5.75586 -0.41302,-5.76406 2.7845,-6.87873 1.76074,-0.61379 6.11864,-1.11871 9.68424,-1.12204 3.82916,-0.003 7.63442,-0.60662 9.29603,-1.4732 1.56881,-0.8182 5.37835,-1.46716 8.61244,-1.46716 l 5.79929,0 -0.63311,2.70088 c -7.61329,32.47905 -13.37273,48.44373 -15.488,42.93144 -0.96193,-2.50677 -2.56414,-0.63524 -1.97557,2.30765 0.38088,1.90437 -0.0217,3.19101 -1.38403,4.42395 -1.74654,1.5806 -1.97675,1.59356 -2.53352,0.14264 l 0,0 z"
       style="color:#000000;fill:#fdd1d2;fill-opacity:1;fill-rule:nonzero;stroke:#c42836;stroke-width:0;stroke-linecap:square;stroke-linejoin:round;stroke-miterlimit:4;stroke-opacity:1;stroke-dasharray:none;stroke-dashoffset:0;marker:none;visibility:visible;display:inline;overflow:visible;enable-background:accumulate" />
    <path
       sodipodi:nodetypes="cssssssssssssssssssssssscssssssssscsssssssssssssssssssccc"
       inkscape:connector-curvature="0"
       id="path3879"
       d="m 407.4196,353.41166 c -4.86159,-0.915 -10.8281,-2.38653 -13.2589,-3.27006 -2.43079,-0.88352 -10.38262,-3.00828 -17.67072,-4.7217 -15.5049,-3.64517 -21.26409,-3.50611 -22.92876,-7.52497 -1.55509,-3.75433 -3.50916,-3.75621 -36.47213,-11.53974 -9.99026,-2.35899 -20.97798,-6.63562 -27.3855,-12.5745 -2.37676,-2.20292 -5.36251,-3.91347 -7.45454,-4.27071 -6.89739,-1.17785 -13.18615,-3.37815 -17.62872,-6.1679 -2.48695,-1.5617 -8.69631,-4.97046 -13.79855,-7.575 -11.75652,-6.00135 -15.21448,-9.04069 -17.24654,-15.15867 -1.91066,-5.75243 -5.47953,-9.04559 -14.01614,-12.93331 -5.00285,-2.27838 -6.47624,-3.49746 -7.81831,-6.46882 -0.90954,-2.01375 -2.21439,-4.3489 -2.89966,-5.18922 -0.8258,-1.01263 -1.32479,-5.64938 -1.47973,-13.74996 -0.32848,-17.1736 0.25777,-20.73968 4.13554,-25.15622 5.12782,-5.84027 5.71022,-7.54664 15.73154,-46.0921 1.69464,-6.51816 3.02572,-9.17898 7.36977,-14.7321 2.91587,-3.72743 6.97355,-9.34094 9.01705,-12.47444 28.05417,-43.01806 36.87647,-53.769552 55.19666,-67.266587 4.09597,-3.017625 9.27887,-7.217312 11.51755,-9.332642 3.82145,-3.610869 4.81238,-3.988948 16.20531,-6.182919 17.06315,-3.285901 48.21986,-4.25715 66.15268,-2.062178 7.0223,0.859528 18.29236,2.058107 25.04456,2.663509 6.75222,0.605403 16.4754,1.729117 21.60708,2.497142 5.13169,0.768025 9.88152,1.399016 10.55518,1.4022 0.67366,0.0032 2.88348,1.480105 4.9107,3.282044 2.08258,1.85115 6.67634,4.304948 10.56084,5.641176 5.23536,1.80091 7.9688,3.475321 11.46142,7.020863 2.52255,2.560768 6.80636,5.657264 9.51958,6.881112 3.63196,1.638256 5.80581,3.520416 8.24179,7.135864 1.81976,2.700888 3.90513,4.776476 4.63416,4.612416 1.20743,-0.271712 10.83041,8.29214 10.83041,9.63839 0,0.31607 2.20196,4.71651 4.89323,9.77875 3.31289,6.23149 4.58828,9.57148 3.94903,10.34174 -0.65173,0.78529 -0.003,1.83346 2.09406,3.38395 2.88495,2.13295 3.00892,2.50075 2.45721,7.29008 -0.31956,2.7741 0.83689,6.11788 0.68956,7.43063 -0.2089,1.86141 -1.03613,2.79693 1.69266,4.25003 5.63677,3.0016 12.36437,16.41822 15.14011,30.19341 0.38096,1.89061 1.51098,6.31024 2.51115,9.8214 1.00019,3.51114 2.32651,12.57139 2.94739,20.13386 1.0668,12.99368 2.80595,19.95199 6.77135,27.09198 0.91228,1.64264 0.76796,2.50215 -3.41327,20.32794 -2.0718,8.83264 -2.35638,11.37322 -1.40273,12.52229 0.83826,1.01005 0.86639,1.44154 0.094,1.44154 -0.60631,0 -1.10239,0.68774 -1.10239,1.5283 0,2.07476 -5.21651,12.44813 -8.27887,16.4631 -1.36738,1.79273 -3.15834,5.16471 -3.97991,7.49331 -0.82158,2.32858 -3.64441,7.15983 -6.27299,10.73609 -2.62856,3.57626 -5.94709,8.37881 -7.37451,10.67233 -2.17661,3.4973 -4.21779,4.97983 -12.65248,9.18963 -5.53144,2.76076 -12.26699,6.66963 -14.96787,8.68634 -5.86881,4.38215 -8.22684,5.30382 -19.15173,7.48566 -4.59151,0.91699 -9.83131,2.50501 -11.644,3.52893 -3.97912,2.24765 -28.58708,5.76194 -39.42728,5.63063 -4.05133,-0.0491 -11.34372,-0.83786 -16.20531,-1.75289 z"
       style="color:#000000;fill:url(#linearGradient3052);fill-opacity:1;fill-rule:nonzero;stroke:#c42836;stroke-width:0;stroke-linecap:square;stroke-linejoin:round;stroke-miterlimit:4;stroke-opacity:1;stroke-dasharray:none;stroke-dashoffset:0;marker:none;visibility:visible;display:inline;overflow:visible;enable-background:accumulate" />
  </g>
</svg>
