<?xml version="1.0" encoding="UTF-8" standalone="no"?>
<svg
   xmlns:dc="http://purl.org/dc/elements/1.1/"
   xmlns:cc="http://creativecommons.org/ns#"
   xmlns:rdf="http://www.w3.org/1999/02/22-rdf-syntax-ns#"
   xmlns:svg="http://www.w3.org/2000/svg"
   xmlns="http://www.w3.org/2000/svg"
   xmlns:sodipodi="http://sodipodi.sourceforge.net/DTD/sodipodi-0.dtd"
   xmlns:inkscape="http://www.inkscape.org/namespaces/inkscape"
   version="1.0"
   width="880"
   height="880"
   viewBox="0 0 704 704"
   preserveAspectRatio="xMidYMid meet"
   id="svg2"
   inkscape:version="0.48.4 r9939"
   sodipodi:docname="flat.svg">
  <defs
     id="defs12" />
  <sodipodi:namedview
     pagecolor="#ffffff"
     bordercolor="#666666"
     borderopacity="1"
     objecttolerance="10"
     gridtolerance="10"
     guidetolerance="10"
     inkscape:pageopacity="0"
     inkscape:pageshadow="2"
     inkscape:window-width="1481"
     inkscape:window-height="888"
     id="namedview10"
     showgrid="false"
     inkscape:zoom="0.81454783"
     inkscape:cx="311.83095"
     inkscape:cy="438.125"
     inkscape:window-x="211"
     inkscape:window-y="176"
     inkscape:window-maximized="0"
     inkscape:current-layer="svg2" />
  <metadata
     id="metadata4">
Created by potrace 1.14, written by Peter Selinger 2001-2017
<rdf:RDF>
  <cc:Work
     rdf:about="">
    <dc:format>image/svg+xml</dc:format>
    <dc:type
       rdf:resource="http://purl.org/dc/dcmitype/StillImage" />
    <dc:title />
  </cc:Work>
</rdf:RDF>
</metadata>
  <g
     id="g2985"
     transform="matrix(1.34784,0,0,1.34784,-198.26499,-111.89034)">
    <path
       d="m 424,152.7 c -1.9,0.9 -7,1.7 -11.2,1.8 -10,0.4 -20,1.5 -21.3,2.5 -0.5,0.4 -3.2,1 -6,1.4 -5,0.6 -9.2,1.8 -15.5,4.2 -7.2,2.8 -21.4,6.2 -28.5,6.9 -2.7,0.3 -5.1,0.9 -5.3,1.5 -0.2,0.5 -1,1 -1.8,1 -0.8,0 -1.4,0.5 -1.4,1.1 0,0.5 -0.4,0.8 -0.9,0.5 -0.4,-0.3 -4.8,0.8 -9.7,2.5 -8.3,2.9 -10,3.1 -24.6,3.4 -11.8,0.2 -16.3,0.6 -18,1.7 -1.3,0.8 -3.4,1.8 -4.8,2.1 -1.4,0.3 -5.1,1.5 -8.2,2.6 -3.3,1.1 -11.1,2.5 -18,3.1 -6.8,0.6 -14.8,1.8 -17.8,2.6 -3,0.9 -7.3,2.1 -9.5,2.7 -2.2,0.6 -4.4,1.3 -5,1.6 -1.3,0.7 -3.2,1.1 -8,1.7 -2.2,0.3 -4.6,1.2 -5.4,1.9 -1.3,1.3 -1.2,1.8 0.8,3.9 2,2.1 2.2,3.1 1.6,6.3 -0.8,4.2 -1.1,8.7 -2,27.8 -1.2,26.7 -1.4,29.5 -2,30.5 -0.5,0.8 -0.9,11.2 -1.9,45 -0.1,3 0.1,5.9 0.3,6.5 1,1.9 1.5,7.2 1.3,13 -0.4,13.2 -0.1,22.3 0.9,29.2 0.6,4 0.8,7.6 0.5,8.1 -0.2,0.4 -0.7,4.4 -1.1,8.7 -0.3,4.4 -0.9,8.8 -1.1,9.7 -0.3,1 0.2,4.6 1.1,8 1.7,7 0.9,16.8 -2,25.5 -0.8,2.4 -1.5,4.9 -1.5,5.6 0.1,2 13.4,7.7 18.5,7.9 1.9,0.1 3.5,0.5 3.5,1 0,0.4 0.8,0.8 1.9,0.8 1,0 3,0.9 4.4,2 1.4,1.1 3,2 3.5,2 0.5,0 1.5,0.7 2.3,1.6 1.5,1.9 8.9,5.6 14.4,7.4 2.2,0.7 6.2,2.3 8.9,3.6 2.8,1.3 5.8,2.4 6.8,2.4 1,0 1.8,0.4 1.8,1 0,0.5 3.5,2.5 7.8,4.5 16,7.5 21.3,9.7 21.9,9.1 0.3,-0.3 1.7,0.6 3.1,2 1.5,1.3 3,2.4 3.4,2.4 0.5,0 1,0 1.3,0 0.3,0 2.6,1.5 5.3,3.3 2.6,1.8 6.2,3.9 8,4.6 1.8,0.8 4.7,2.7 6.4,4.2 1.7,1.6 4.2,3.2 5.7,3.6 3,0.7 13.2,6.1 18.6,9.7 1.9,1.3 5.4,2.7 7.8,3.1 2.3,0.4 5.4,1.4 7,2.1 1.5,0.8 2.7,1.1 2.7,0.7 0,-0.4 0.6,0.1 1.3,1.1 0.7,0.9 1.9,1.8 2.7,2 2.5,0.4 11.2,4.7 16.5,8.1 11.2,7.1 15.2,9.5 16.3,9.5 2.1,0 6.2,4.7 6.2,7.3 0,3.6 2.4,4 5.3,0.7 1.4,-1.5 3.8,-3.1 5.4,-3.4 1.6,-0.4 4.4,-2.1 6.3,-3.7 1.8,-1.7 4,-3.2 4.9,-3.5 17.1,-4.1 19.3,-4.9 23,-8.1 4.9,-4.2 11.2,-6.5 17,-6.4 5.9,0.2 13.2,-2.3 16.8,-5.7 1.6,-1.5 3.7,-2.5 5,-2.3 1.2,0.1 5.5,-1.1 9.5,-2.7 4,-1.6 8.9,-3.3 10.8,-3.7 1.9,-0.4 4.2,-1.3 5,-2 2.3,-2 8,-3.2 12.6,-2.7 3.1,0.3 5.9,-0.4 11.2,-2.7 3.9,-1.7 8.3,-3.1 9.9,-3.1 6.4,0 24.8,-6.6 29.3,-10.5 0.8,-0.7 4.8,-2.5 8.8,-4.1 4,-1.5 8.9,-4.3 11,-6.2 4.6,-4.3 9,-4.8 10.8,-1.4 l 1.2,2.4 1.6,-2.3 c 0.9,-1.3 1.6,-3 1.6,-3.7 0,-0.8 1,-2.2 2.2,-3.2 1.9,-1.5 2,-2 0.9,-3.4 -0.7,-0.9 -1.9,-1.6 -2.6,-1.6 -1.5,0 -4,-10.3 -2.5,-10.8 0.5,-0.2 0.8,-0.7 0.5,-1.1 -0.7,-1.2 -0.6,-24.2 0.1,-38.6 0.8,-15.2 0.9,-18.4 0.5,-28.5 -0.5,-14.4 0.4,-58.5 1.3,-59.9 1,-1.5 1.1,-10.8 0.2,-16.1 -2,-12.6 -2.7,-60 -0.8,-62.2 0.6,-0.8 1.1,-3 1,-4.9 0,-2 1.1,-5.5 2.6,-8.4 3,-5.6 2.9,-7 -0.9,-7.9 -2,-0.5 -3.1,-0.2 -3.9,1 -1,1.3 -2.2,1.5 -5.2,1 -2.1,-0.3 -5.9,-0.9 -8.4,-1.2 -2.5,-0.3 -6.5,-1.1 -9,-1.9 -2.5,-0.7 -5.6,-1.6 -7,-1.9 -1.4,-0.2 -4.5,-0.9 -7,-1.5 -2.5,-0.6 -6.1,-1.1 -8.1,-1.1 -2,0 -4.2,-0.6 -4.8,-1.4 -0.6,-0.7 -3,-1.7 -5.3,-2 -2.3,-0.4 -6.2,-1.6 -8.6,-2.6 -2.5,-1.1 -5.2,-2 -6.1,-2 -1,0 -3.3,-1.2 -5.2,-2.6 -3.6,-2.7 -9.9,-5.8 -11.1,-5.6 -0.5,0.1 -0.8,-0.3 -0.8,-0.8 0,-0.6 -0.7,-1 -1.6,-1 -0.9,0 -2.8,-0.6 -4.2,-1.4 -6.4,-3.5 -13.2,-6.5 -13.2,-5.8 0,0.4 -0.6,0 -1.3,-0.9 -1.2,-1.6 -3.9,-2.9 -7,-3.6 -1,-0.1 -3,-0.9 -4.5,-1.6 -1.5,-0.8 -4.7,-1.9 -7.2,-2.6 -2.5,-0.7 -5.4,-1.7 -6.5,-2.1 -1.1,-0.5 -3.7,-1.4 -5.8,-2 -2.1,-0.7 -7.1,-2.9 -11,-5 -4.1,-2.2 -11.7,-4.9 -17.6,-6.4 -5.8,-1.4 -12,-3.5 -13.8,-4.6 -1.9,-1.1 -3.5,-2 -3.6,-1.9 -0.1,0 -1.8,0.8 -3.7,1.6 z m 6.6,4.7 c 1.6,0.8 4.5,1.6 6.4,1.9 6.4,0.9 19.4,4.6 24,6.9 2.5,1.2 4.8,2.1 5.3,2 0.4,-0.1 0.7,0.2 0.7,0.7 0,0.5 1,1.1 2.3,1.5 1.3,0.3 4.1,1.3 6.3,2.3 2.1,1 4.4,1.8 4.9,1.8 2.2,0.2 13.2,3.8 15.8,5.1 1.5,0.9 2.7,1.2 2.7,0.7 0,-0.4 0.4,-0.3 0.8,0.3 0.4,0.5 2.5,1.8 4.7,2.8 2.2,1 6.3,2.8 9,4.1 5.3,2.4 8.6,3.8 9.6,3.9 0.3,0.1 3.2,1.8 6.3,3.8 3.2,2.1 6.3,3.8 6.9,3.8 0.6,0 2,0.8 3.1,1.9 1.2,1 4.4,2.4 7.1,3.1 2.8,0.7 5.5,1.6 6,2 2,1.3 10.6,4.2 13.8,4.5 5.6,0.7 12,2.3 17.8,4.4 3,1.2 7.4,2.2 9.7,2.3 3.3,0.1 4.2,0.5 4,1.7 -0.2,1.1 -2.6,2.2 -7.1,3.2 -3.7,0.9 -7.7,2.3 -9,3.1 -1.2,0.9 -4.8,1.8 -7.9,2.2 -3.2,0.4 -6,1.2 -6.4,1.7 -0.3,0.6 -1.2,0.8 -1.9,0.5 -0.7,-0.2 -1.6,0.2 -1.9,1.1 -0.4,0.8 -1.2,1.3 -2,1 -0.7,-0.3 -1.7,-0.2 -2.2,0.3 -1.7,1.5 -8,2.9 -14.6,3.2 -3.8,0.1 -6.8,0.5 -6.8,0.8 0,0.4 -2.1,1.7 -4.6,2.9 -2.5,1.3 -4.8,2.9 -5.1,3.7 -0.3,0.8 -1,1.3 -1.7,1.2 -1.4,-0.2 -9.7,2.3 -11.2,3.4 -0.7,0.5 -3.5,1.1 -6.3,1.4 -2.8,0.2 -6.2,0.9 -7.5,1.4 -1.3,0.5 -2.7,0.6 -3,0.3 -0.3,-0.4 -0.6,-0.2 -0.6,0.4 0,0.6 -2.7,2 -6,3.2 -3.3,1.2 -9.1,4 -12.9,6.2 -3.7,2.1 -7.4,3.9 -8.2,3.9 -1.4,0.1 -8.8,2.6 -14.4,5 -3.4,1.4 -8.1,2.9 -11,3.5 -1.1,0.3 -2.4,1 -3,1.7 -0.5,0.7 -2.7,1.4 -4.8,1.5 -2.1,0.1 -4.4,0.6 -5,1.1 -0.7,0.5 -2.9,1.3 -5.1,1.6 -2.1,0.4 -4.6,1.2 -5.5,1.7 -0.9,0.5 -4.1,1.8 -7.1,2.9 -4.8,1.6 -5.7,1.7 -7.1,0.4 -0.8,-0.8 -2.5,-1.4 -3.7,-1.4 -1.3,0 -5.5,-1.2 -9.5,-2.6 -6.6,-2.3 -9.1,-3.1 -12.3,-3.8 -0.7,-0.1 -1.9,-0.8 -2.8,-1.5 -0.9,-0.8 -1.9,-1.1 -2.2,-0.8 -0.4,0.3 -2.9,-0.3 -5.8,-1.5 -2.8,-1.1 -6.6,-2.5 -8.5,-3 -1.8,-0.5 -6,-2.3 -9.1,-3.9 -3.2,-1.6 -6.2,-2.9 -6.8,-2.9 -0.7,0 -3.3,-1 -5.9,-2.1 -2.7,-1.2 -6.6,-2.9 -8.8,-3.9 -2.2,-1 -6.1,-2.7 -8.6,-3.9 -2.5,-1.1 -6,-2.4 -7.7,-2.7 -1.7,-0.4 -3.7,-1.3 -4.3,-2 -0.6,-0.8 -2.1,-1.4 -3.3,-1.4 -1.2,0 -2.6,-0.4 -3.1,-0.8 -0.6,-0.4 -3.7,-1.6 -7,-2.6 -8.3,-2.6 -12.5,-4.5 -15.8,-7.2 -1.6,-1.3 -3.4,-2.4 -4.2,-2.4 -0.7,0 -1.5,-0.7 -1.9,-1.5 -0.3,-0.8 -1.2,-1.5 -2.1,-1.5 -0.8,0 -1.5,-0.4 -1.5,-0.9 0,-0.5 -5.3,-2.6 -11.7,-4.7 -6.5,-2.1 -12.9,-4.8 -14.3,-6 -2.5,-2.3 -10.6,-4.7 -14.4,-4.3 -1.2,0.1 -3,-0.1 -4.1,-0.6 -8.2,-3 -10.5,-4.1 -10.5,-4.8 0,-0.4 -0.6,-0.7 -1.4,-0.7 -1.9,0 -7.8,-5.4 -7,-6.3 0.4,-0.4 1.6,-0.7 2.6,-0.7 1,0 2.8,-0.5 4.1,-1.2 4.7,-2.4 5.9,-2.8 13.4,-4.9 4.3,-1.1 12.9,-2.4 19,-2.9 6.2,-0.5 11.8,-1.2 12.5,-1.7 0.7,-0.4 1.8,-0.8 2.3,-1 5.1,-1.1 12.4,-4.1 11.8,-4.8 -0.5,-0.4 -0.3,-0.5 0.3,-0.2 0.6,0.3 3.3,-0.1 6,-0.9 3.4,-1 7.8,-1.3 14.7,-1 5.3,0.2 9.9,0.1 10.1,-0.3 0.3,-0.4 2.4,-0.8 4.7,-1 2.3,-0.1 4.7,-0.5 5.3,-0.8 0.5,-0.4 2.3,-0.8 4,-1 1.6,-0.2 3.4,-0.7 4,-1.2 2.1,-1.7 12.1,-4.9 15.5,-4.9 4.8,-0.1 12,-1.8 24.1,-5.9 5.8,-2 12.5,-3.9 15,-4.3 2.5,-0.5 9.2,-1.8 14.9,-2.9 5.8,-1.2 15,-2.5 20.5,-3 5.6,-0.4 10.8,-0.9 11.7,-1 0.9,0 2.9,0.5 4.5,1.3 z M 215,210.5 c 2.2,1.4 4.4,2.5 4.8,2.5 0.5,0 2.2,0.6 3.8,1.4 1.6,0.8 5.6,1.8 8.9,2.1 6.3,0.7 15.8,4.2 15,5.5 -0.2,0.4 2.1,1.5 5.3,2.5 3.1,0.9 7.1,2.3 8.9,3.1 1.7,0.8 3.6,1.4 4.2,1.4 0.6,0 2.6,0.9 4.5,1.9 1.9,1.1 3.6,1.8 3.8,1.5 0.3,-0.2 1.3,0.5 2.3,1.6 1,1.1 2.2,2 2.7,2 0.5,0 1.9,0.9 3.1,2.1 2.7,2.6 8.4,5.3 15.7,7.4 5.3,1.6 10.3,3.3 22,7.7 3,1.2 6.6,2.9 8,3.8 1.4,1 4.6,2.5 7.2,3.4 2.6,0.8 6.4,2.5 8.5,3.6 2.1,1.1 4.2,2 4.6,2 0.5,0 3.6,1.3 7,2.9 6.6,3.1 12.9,5.3 21.7,7.9 3,0.9 5.7,1.9 5.8,2.4 0.2,0.4 1.4,0.8 2.6,0.8 1.3,0 3.8,0.7 5.7,1.6 9.4,4.3 10.4,5 10.7,7.4 1.2,10.2 1.6,20.7 1,27.1 -0.4,4.2 -0.5,9.8 -0.2,12.5 1,8.6 1.1,24.9 0.2,26.1 -0.5,0.7 -0.5,1.4 0.2,1.8 0.5,0.3 1,1.6 1,2.8 0.1,1.2 0.7,3.9 1.5,6 1.1,3.2 1.1,6 0.2,15.5 -0.7,6.5 -0.9,15.1 -0.6,19.2 0.9,11.5 -0.3,67.5 -1.8,82 -1.2,11.4 -0.3,33.1 1.3,34.8 0.9,0.8 1.4,2.6 1.2,4.1 -0.2,2.1 -0.8,2.5 -2.6,2.3 -3.1,-0.5 -13.9,-5.9 -18.2,-9.2 -2.9,-2.2 -16.1,-8.4 -18.1,-8.5 -0.3,0 -1.3,-0.8 -2.2,-1.7 -0.9,-0.9 -4.3,-2.2 -7.4,-2.9 -5.7,-1.2 -14.8,-5.3 -15.9,-7 -0.3,-0.5 -1,-0.7 -1.5,-0.4 -0.5,0.4 -0.9,0.3 -0.9,-0.2 0,-0.4 -2.5,-1.9 -5.5,-3.3 -3,-1.4 -5.5,-2.8 -5.5,-3.3 0,-0.4 -0.9,-0.7 -2,-0.7 -1,0 -2.4,-0.8 -2.9,-1.8 -0.6,-0.9 -1.1,-1.3 -1.1,-0.8 0,0.4 -1.6,-0.4 -3.5,-1.8 -2,-1.5 -5.4,-3.6 -7.8,-4.7 -2.3,-1.1 -5.5,-2.8 -7.2,-3.8 -1.6,-1 -3.3,-1.6 -3.7,-1.4 -0.5,0.2 -0.8,-0.1 -0.8,-0.6 0,-0.6 -0.5,-1.1 -1.1,-1.1 -0.6,0 -2.2,-0.9 -3.6,-2 -1.4,-1.1 -3.2,-2 -4,-2 -0.8,0 -3.7,-1.1 -6.5,-2.5 -2.7,-1.4 -5.8,-2.5 -6.8,-2.5 -1,0 -2.2,-0.5 -2.6,-1.1 -0.6,-1.1 -9.1,-5.2 -10.9,-5.3 -0.5,-0.1 -1.9,-0.9 -2.9,-1.9 -1.1,-0.9 -2.5,-1.7 -3,-1.7 -0.6,0 -2.3,-0.6 -3.7,-1.4 -2.6,-1.3 -9.7,-3.1 -11.2,-2.7 -0.5,0.1 -0.6,-0.3 -0.3,-0.8 0.3,-0.5 -1.5,-1.9 -4.2,-3.1 -2.6,-1.2 -5.9,-3.3 -7.4,-4.6 -1.6,-1.2 -3.8,-2.6 -5,-3 -1.3,-0.4 -3.4,-1.5 -4.7,-2.5 -1.3,-1.1 -3.9,-1.9 -5.7,-1.9 -1.8,0 -3.6,-0.5 -3.9,-1 -0.4,-0.6 -1,-0.8 -1.5,-0.5 -0.5,0.3 -1.8,-0.3 -2.8,-1.3 -1.1,-1.1 -2.5,-2.1 -3.3,-2.4 -1.1,-0.4 -1.1,-1.4 -0.1,-5.9 1.6,-7.6 1.8,-21.4 0.4,-28 -1,-4.3 -1,-6.9 -0.1,-11.5 0.6,-3.2 1.1,-7.9 1.1,-10.4 -0.3,-28.7 -0.9,-44.7 -1.6,-45.8 -1.4,-2.2 -0.8,-53.4 0.8,-61.2 0.3,-1.9 0.9,-11.2 1.2,-20.5 0.3,-9.4 0.7,-19 0.8,-21.5 0.3,-5.7 2.4,-13 3.7,-13 0.5,0 2.7,1.1 4.9,2.5 z m 395,12 c 0.7,0.9 1,3.2 0.7,6.2 -2.4,21.5 -2.7,26.3 -2.1,29.8 0.6,4 0.9,8.3 2,33 0.3,7.1 0.6,13.4 0.6,14 0.1,0.5 -0.3,3.7 -0.7,7 -1,7.6 -1.3,17.2 -1.2,40.5 0.1,30.9 0.1,33.1 -1.7,64.5 -0.1,2.2 0.1,10.7 0.5,19 0.4,9.4 0.2,15.5 -0.4,16.3 -1.6,2 -15.4,12.2 -16.6,12.2 -1.3,0 -13.5,5.9 -21.6,10.5 -5.5,3 -14.2,5.2 -21.3,5.3 -1.2,0.1 -5.1,1.4 -8.6,3.1 -4.9,2.3 -7.8,3 -12.2,3 -4.2,0 -8.2,0.8 -13.9,3 -4.4,1.7 -8.4,3.1 -9,3.1 -1.6,0 -6.5,2.4 -6.5,3.2 0,0.4 -2.1,1 -4.7,1.4 -4.7,0.7 -8.1,2.1 -13.4,5.7 -2.5,1.7 -5.3,2.3 -14.6,3.2 -4.6,0.4 -10.5,2.9 -12.4,5.1 -0.6,0.8 -1.7,1.4 -2.5,1.4 -0.7,0 -1.9,0.8 -2.6,1.8 -0.9,1.2 -3.9,2.3 -8.8,3.2 -9.8,1.8 -14.6,3.5 -18.7,6.6 -1.8,1.4 -4.8,2.8 -6.7,3.1 -2.9,0.5 -3.4,0.2 -4,-2.1 -0.3,-1.4 -0.3,-5.7 0,-9.6 0.6,-6.4 0.5,-7.2 -1.3,-8.5 -1.6,-1.1 -2,-2.7 -2.2,-8.7 -0.2,-4 -0.2,-8 -0.2,-8.8 1.2,-15.4 1.5,-33.6 0.5,-35.2 -0.3,-0.5 0,-1.5 0.6,-2.3 0.6,-0.8 0.9,-2.3 0.5,-3.4 -0.3,-1 -0.2,-2.2 0.3,-2.5 0.9,-0.5 0.9,-2.6 -0.2,-15.4 -0.2,-2.3 0,-4.4 0.3,-4.7 0.7,-0.4 0.6,-23.4 -0.2,-36 -0.3,-4.4 -0.3,-8.4 0,-8.9 0.3,-0.5 0.8,-2.7 0.9,-5 0.2,-2.3 0.6,-5.1 0.9,-6.4 0.3,-1.3 0.1,-2.2 -0.6,-2.2 -0.7,0 -0.9,-1 -0.7,-2.5 0.3,-1.4 0.2,-2.8 -0.2,-3 -1.7,-1 -3,-12.1 -1.7,-14.2 0.7,-1.1 0.3,-8.9 -0.8,-13.6 -0.9,-4.5 -1.5,-15.7 -0.7,-15.7 0.5,0 0.8,-4.5 0.8,-10.1 -0.1,-5.5 0.3,-10.3 0.8,-10.6 0.4,-0.3 0.6,-1.7 0.3,-3.2 -0.7,-3.6 -0.2,-4.2 6.8,-7.5 9.5,-4.6 11.6,-5.4 18,-7.2 3.3,-0.9 7.4,-2.2 9,-2.9 1.7,-0.7 5.3,-1.9 8,-2.8 10,-3.1 18.4,-6.3 20.1,-7.8 0.9,-0.7 1.9,-1.2 2.1,-1 0.6,0.5 13.7,-5.1 14.1,-6.1 0.2,-0.4 0.8,-0.6 1.3,-0.2 0.5,0.3 0.9,0 0.9,-0.5 0,-0.6 0.6,-1.1 1.3,-1.1 0.7,0 3.6,-1.1 6.4,-2.4 2.7,-1.4 7.9,-2.8 11.4,-3.1 7.3,-0.7 11.1,-2.3 27.5,-10.9 2,-1 6.2,-2.1 9.3,-2.3 6.5,-0.5 15.7,-2.9 16.6,-4.3 0.3,-0.6 1.9,-1 3.5,-1 1.6,0 3.1,-0.4 3.4,-0.9 0.3,-0.4 2.6,-1.1 5.1,-1.4 2.5,-0.4 7.9,-1.8 12.1,-3.3 4.1,-1.4 8.3,-2.3 9.3,-1.9 2.5,0.8 7.1,-1.1 7.1,-2.9 0,-1 1.3,-1.6 3.8,-1.9 2,-0.2 4,-0.4 4.3,-0.5 0.4,-0.1 1.2,0.5 1.9,1.3 z"
       id="path8"
       style="fill:#cb2b15;fill-opacity:1;stroke:none"
       inkscape:connector-curvature="0" />
    <path
       inkscape:connector-curvature="0"
       id="path3762"
       d="m 407.19645,282.9687 c -0.81027,-0.48415 -5.67187,-2.05592 -10.80355,-3.49282 -5.13168,-1.4369 -11.31916,-3.37312 -13.74996,-4.3027 -2.4308,-0.9296 -7.51336,-2.69319 -11.2946,-3.91908 -6.92613,-2.2455 -22.1313,-8.37336 -40.26775,-16.22838 -5.40177,-2.33954 -10.9263,-4.57047 -12.27674,-4.95762 -1.35045,-0.38716 -4.00223,-1.49879 -5.89284,-2.47028 -1.89063,-0.97151 -7.82912,-3.23115 -13.19666,-5.02144 -5.36754,-1.79028 -12.16102,-4.70139 -15.09662,-6.46912 -2.93561,-1.76772 -5.70392,-3.21405 -6.15181,-3.21405 -0.4479,0 -1.16778,-0.55246 -1.59976,-1.22767 -1.17762,-1.84076 -5.6979,-4.06013 -15.5175,-7.6188 -4.8616,-1.76187 -11.35031,-4.49889 -14.41936,-6.08228 -3.13284,-1.61628 -8.38909,-3.27668 -11.985,-3.78592 -6.80806,-0.96415 -13.84067,-3.32325 -16.39607,-5.50012 -0.8528,-0.72647 -2.00793,-1.32085 -2.56696,-1.32085 -0.55902,0 -2.18729,-1.17089 -3.61838,-2.60198 l -2.60198,-2.60197 5.16894,-1.87445 c 12.93366,-4.69023 17.70045,-5.85382 31.11085,-7.59421 12.61328,-1.63694 21.61696,-3.8423 28.07577,-6.87686 3.79634,-1.78364 12.46299,-3.00403 21.33335,-3.00403 10.87092,0 23.75569,-2.28201 31.69619,-5.61366 3.23773,-1.35849 9.46745,-3.04962 13.84381,-3.75806 4.37635,-0.70844 14.7652,-3.28364 23.08632,-5.72266 17.2847,-5.06636 31.33181,-7.92403 49.18493,-10.00591 12.44342,-1.45104 12.45204,-1.45061 20.98035,1.02079 4.69248,1.35983 9.13792,2.47242 9.87872,2.47242 2.18575,0 20.61806,6.56466 23.22092,8.27011 1.31566,0.86206 9.20412,3.81238 17.52987,6.55626 8.32576,2.74388 16.07984,5.58893 17.23129,6.32232 1.15144,0.73339 6.25255,3.11037 11.33578,5.28217 5.08325,2.17179 13.42237,6.34753 18.53141,9.27941 10.75575,6.17232 24.99744,11.74008 36.55456,14.29094 4.45039,0.98228 11.18537,2.68704 14.96661,3.78836 3.78123,1.10131 8.5899,2.29695 10.68592,2.65698 2.09603,0.36001 3.42192,1.01784 2.94642,1.46184 -1.07601,1.00476 -19.68361,7.16033 -26.6529,8.81704 -2.83989,0.6751 -7.03854,2.13623 -9.33033,3.24696 -2.29179,1.11074 -8.43659,2.57712 -13.65509,3.25862 -8.21146,1.07236 -10.25987,1.74054 -15.22317,4.96562 -6.35819,4.1315 -16.15167,7.65354 -25.86885,9.30328 -4.22308,0.71696 -10.87179,3.24704 -19.6428,7.47481 -7.29239,3.51507 -20.10932,8.80085 -28.48206,11.74621 -8.37274,2.94536 -15.64303,5.77192 -16.1562,6.28125 -0.51317,0.50933 -1.92076,0.92606 -3.12798,0.92606 -1.20721,0 -8.14748,1.98883 -15.4228,4.41963 -14.22972,4.75436 -14.16146,4.74008 -16.36429,3.42384 l 0,0 z"
       style="color:#000000;fill:#ffa3a4;fill-opacity:1;fill-rule:nonzero;stroke:#c42836;stroke-width:0;stroke-linecap:square;stroke-linejoin:round;stroke-miterlimit:4;stroke-opacity:1;stroke-dasharray:none;stroke-dashoffset:0;marker:none;visibility:visible;display:inline;overflow:visible;enable-background:accumulate" />
    <path
       inkscape:connector-curvature="0"
       id="path3770"
       d="m 410.14286,518.32513 c 0,-6.80847 -0.36796,-9.51544 -1.41112,-10.3812 -2.36732,-1.96471 -2.72892,-10.23074 -1.61339,-36.88177 0.58787,-14.04461 1.06422,-40.12042 1.05857,-57.94626 -0.006,-17.82584 0.42388,-35.02976 0.9545,-38.23094 0.53064,-3.20118 0.61142,-6.29492 0.17953,-6.87498 -1.41537,-1.90098 -3.01364,-13.63097 -3.2216,-23.64388 -0.36281,-17.46924 -0.10968,-36.8026 0.59219,-45.22837 l 0.6852,-8.22575 7.52644,-3.5857 c 4.13953,-1.97214 16.36569,-6.5576 27.16924,-10.18994 10.80353,-3.63233 21.41064,-7.49981 23.57136,-8.5944 2.1607,-1.09458 5.6964,-2.55173 7.85712,-3.23811 2.1607,-0.68637 5.6964,-2.1626 7.85712,-3.28049 2.1607,-1.11788 4.14953,-2.07102 4.41962,-2.11807 0.27009,-0.047 1.81696,-0.78058 3.4375,-1.63006 4.09436,-2.14628 11.68289,-4.46392 18.66065,-5.69921 3.29138,-0.58269 10.89584,-3.42742 17.22567,-6.4439 7.95052,-3.78882 13.69664,-5.81626 19.25304,-6.79317 4.35612,-0.76588 12.07328,-2.70344 17.14923,-4.30569 14.73793,-4.65208 28.09469,-8.03287 31.73609,-8.03287 2.16063,0 4.41551,-0.88063 6.28695,-2.45535 3.41512,-2.87364 9.69202,-3.41992 10.64873,-0.92677 0.32262,0.84072 0.0829,6.91771 -0.53264,13.50442 -1.5104,16.16155 -1.50988,16.03599 -0.16412,39.24938 0.88717,15.30299 0.92396,28.55129 0.14724,53.03557 -0.56944,17.95034 -1.33124,53.0541 -1.69288,78.00834 l -0.65754,45.37133 -5.50358,4.48446 c -3.02697,2.46646 -12.64915,8.01083 -21.38261,12.32084 -15.29783,7.54955 -24.30045,10.7999 -29.91292,10.7999 -1.4609,0 -6.11914,1.28731 -10.35166,2.86068 -4.23252,1.57337 -10.42513,3.1385 -13.76135,3.47806 -6.25208,0.63631 -23.78298,6.06679 -27.93054,8.65191 -1.28853,0.80312 -4.47456,1.97196 -7.08006,2.59741 -2.6055,0.62546 -7.02513,2.40779 -9.8214,3.96074 -2.86996,1.59388 -7.43662,3.11098 -10.4859,3.48354 -8.92569,1.09055 -12.92128,2.45127 -20.13387,6.85669 -4.68925,2.86418 -9.66587,4.88117 -15.65345,6.34422 -4.82816,1.17974 -11.50008,3.667 -14.82648,5.52723 -3.32641,1.86022 -6.99996,3.38224 -8.16344,3.38224 -2.01543,0 -2.11544,-0.4354 -2.11544,-9.21008 z"
       style="color:#000000;fill:#cfcfcf;fill-opacity:1;fill-rule:nonzero;stroke:#c42836;stroke-width:0;stroke-linecap:square;stroke-linejoin:round;stroke-miterlimit:4;stroke-opacity:1;stroke-dasharray:none;stroke-dashoffset:0;marker:none;visibility:visible;display:inline;overflow:visible;enable-background:accumulate" />
    <path
       inkscape:connector-curvature="0"
       id="path3778"
       d="m 396.28578,519.82604 c -21.39031,-11.30582 -34.94498,-17.88575 -40.75236,-19.78271 -7.88996,-2.57723 -23.30295,-10.53896 -42.5564,-21.98296 -5.09538,-3.02863 -10.17795,-5.79128 -11.29461,-6.13924 -1.11666,-0.34795 -2.25127,-0.95567 -2.52136,-1.35048 -0.74648,-1.09119 -7.55686,-4.36917 -15.22318,-7.32727 -3.78123,-1.45902 -12.17853,-5.25651 -18.66065,-8.43889 -6.48213,-3.18238 -13.9955,-6.32728 -16.69639,-6.98868 -2.70088,-0.6614 -5.79462,-1.92112 -6.87497,-2.79938 -5.4762,-4.45178 -21.42333,-12.9584 -27.39924,-14.61547 -3.69798,-1.02542 -7.60396,-2.74475 -8.67994,-3.82074 -1.84074,-1.84072 -1.8977,-2.55811 -0.96401,-12.14046 0.64053,-6.57373 0.66547,-13.44276 0.0703,-19.37605 -0.58053,-5.78774 -0.57381,-12.33101 0.0182,-17.66802 0.62868,-5.66799 0.56099,-16.93597 -0.20431,-34.01173 -1.45365,-32.43432 -1.4011,-55.03209 0.19412,-83.4819 2.04074,-36.39556 2.81252,-45.99779 3.9247,-48.83024 l 1.04827,-2.66965 7.18457,3.41193 c 3.95152,1.87657 10.59059,4.06362 14.75349,4.86012 7.88834,1.50928 13.82807,3.60538 16.40182,5.78809 0.83003,0.70393 5.48681,2.64835 10.34841,4.32093 11.88291,4.08818 16.65168,6.36789 23.20747,11.09427 3.8659,2.78712 10.38975,5.72371 21.68918,9.763 8.88814,3.17731 21.42685,8.182 27.86382,11.12155 15.70653,7.17265 32.78243,14.20572 41.16777,16.95581 14.72115,4.82802 20.78114,7.04919 24.7186,9.06016 4.01945,2.05283 4.10385,2.20241 4.65484,8.25019 0.30864,3.38769 0.76525,19.41833 1.01468,35.62364 0.34854,22.64421 0.80839,30.71453 1.98664,34.86596 1.07169,3.776 1.37084,7.61874 0.99393,12.76783 -0.29654,4.05133 -0.70254,24.38162 -0.9022,45.17844 -0.19965,20.79681 -0.9055,46.88155 -1.56854,57.96609 -1.16416,19.462 -0.86006,26.97484 1.61922,40.00237 0.51911,2.72771 0.32569,3.19195 -1.32989,3.19195 -1.06554,0 -4.31993,-1.2593 -7.23198,-2.79846 l 0,0 z"
       style="color:#000000;fill:#e8e8e8;fill-opacity:1;fill-rule:nonzero;stroke:#c42836;stroke-width:0;stroke-linecap:square;stroke-linejoin:round;stroke-miterlimit:4;stroke-opacity:1;stroke-dasharray:none;stroke-dashoffset:0;marker:none;visibility:visible;display:inline;overflow:visible;enable-background:accumulate" />
  </g>
</svg>
