<?xml version="1.0" encoding="UTF-8" standalone="no"?>
<svg
   xmlns:dc="http://purl.org/dc/elements/1.1/"
   xmlns:cc="http://creativecommons.org/ns#"
   xmlns:rdf="http://www.w3.org/1999/02/22-rdf-syntax-ns#"
   xmlns:svg="http://www.w3.org/2000/svg"
   xmlns="http://www.w3.org/2000/svg"
   xmlns:sodipodi="http://sodipodi.sourceforge.net/DTD/sodipodi-0.dtd"
   xmlns:inkscape="http://www.inkscape.org/namespaces/inkscape"
   version="1.0"
   width="825.000000pt"
   height="701.000000pt"
   viewBox="0 0 825.000000 701.000000"
   preserveAspectRatio="xMidYMid meet"
   id="svg2"
   inkscape:version="0.48.4 r9939"
   sodipodi:docname="Roof0_0.svg">
  <defs
     id="defs12" />
  <sodipodi:namedview
     pagecolor="#ffffff"
     bordercolor="#666666"
     borderopacity="1"
     objecttolerance="10"
     gridtolerance="10"
     guidetolerance="10"
     inkscape:pageopacity="0"
     inkscape:pageshadow="2"
     inkscape:window-width="1028"
     inkscape:window-height="888"
     id="namedview10"
     showgrid="false"
     inkscape:zoom="0.81454783"
     inkscape:cx="515.625"
     inkscape:cy="438.125"
     inkscape:window-x="664"
     inkscape:window-y="176"
     inkscape:window-maximized="0"
     inkscape:current-layer="svg2" />
  <metadata
     id="metadata4">
Created by potrace 1.14, written by Peter Selinger 2001-2017
<rdf:RDF>
  <cc:Work
     rdf:about="">
    <dc:format>image/svg+xml</dc:format>
    <dc:type
       rdf:resource="http://purl.org/dc/dcmitype/StillImage" />
    <dc:title></dc:title>
  </cc:Work>
</rdf:RDF>
</metadata>
  <path
     inkscape:connector-curvature="0"
     style="fill:#cb2b15;fill-opacity:1;stroke:none"
     id="path8"
     d="m 424,149.7 c -1.9,0.9 -7,1.7 -11.2,1.8 -10,0.4 -20,1.5 -21.3,2.5 -0.5,0.4 -3.2,1 -6,1.4 -5,0.6 -9.2,1.8 -15.5,4.2 -7.2,2.8 -21.4,6.2 -28.5,6.9 -2.7,0.3 -5.1,0.9 -5.3,1.5 -0.2,0.5 -1,1 -1.8,1 -0.8,0 -1.4,0.5 -1.4,1.1 0,0.5 -0.4,0.8 -0.9,0.5 -0.4,-0.3 -4.8,0.8 -9.7,2.5 -8.3,2.9 -10,3.1 -24.6,3.4 -11.8,0.2 -16.3,0.6 -18,1.7 -1.3,0.8 -3.4,1.8 -4.8,2.1 -1.4,0.3 -5.1,1.5 -8.2,2.6 -3.3,1.1 -11.1,2.5 -18,3.1 -6.8,0.6 -14.8,1.8 -17.8,2.6 -3,0.9 -7.3,2.1 -9.5,2.7 -2.2,0.6 -4.4,1.3 -5,1.6 -1.3,0.7 -3.2,1.1 -8,1.7 -2.2,0.3 -4.6,1.2 -5.4,1.9 -1.3,1.3 -1.2,1.8 0.8,3.9 2,2.1 2.2,3.1 1.6,6.3 -0.8,4.2 -1.1,8.7 -2,27.8 -1.2,26.7 -1.4,29.5 -2,30.5 -0.5,0.8 -0.9,11.2 -1.9,45 -0.1,3 0.1,5.9 0.3,6.5 1,1.9 1.5,7.2 1.3,13 -0.4,13.2 -0.1,22.3 0.9,29.2 0.6,4 0.8,7.6 0.5,8.1 -0.2,0.4 -0.7,4.4 -1.1,8.7 -0.3,4.4 -0.9,8.8 -1.1,9.7 -0.3,1 0.2,4.6 1.1,8 1.7,7 0.9,16.8 -2,25.5 -0.8,2.4 -1.5,4.9 -1.5,5.6 0.1,2 13.4,7.7 18.5,7.9 1.9,0.1 3.5,0.5 3.5,1 0,0.4 0.8,0.8 1.9,0.8 1,0 3,0.9 4.4,2 1.4,1.1 3,2 3.5,2 0.5,0 1.5,0.7 2.3,1.6 1.5,1.9 8.9,5.6 14.4,7.4 2.2,0.7 6.2,2.3 8.9,3.6 2.8,1.3 5.8,2.4 6.8,2.4 1,0 1.8,0.4 1.8,1 0,0.5 3.5,2.5 7.8,4.5 16,7.5 21.3,9.7 21.9,9.1 0.3,-0.3 1.7,0.6 3.1,2 1.5,1.3 3,2.4 3.4,2.4 0.5,0 1,0 1.3,0 0.3,0 2.6,1.5 5.3,3.3 2.6,1.8 6.2,3.9 8,4.6 1.8,0.8 4.7,2.7 6.4,4.2 1.7,1.6 4.2,3.2 5.7,3.6 3,0.7 13.2,6.1 18.6,9.7 1.9,1.3 5.4,2.7 7.8,3.1 2.3,0.4 5.4,1.4 7,2.1 1.5,0.8 2.7,1.1 2.7,0.7 0,-0.4 0.6,0.1 1.3,1.1 0.7,0.9 1.9,1.8 2.7,2 2.5,0.4 11.2,4.7 16.5,8.1 11.2,7.1 15.2,9.5 16.3,9.5 2.1,0 6.2,4.7 6.2,7.3 0,3.6 2.4,4 5.3,0.7 1.4,-1.5 3.8,-3.1 5.4,-3.4 1.6,-0.4 4.4,-2.1 6.3,-3.7 1.8,-1.7 4,-3.2 4.9,-3.5 17.1,-4.1 19.3,-4.9 23,-8.1 4.9,-4.2 11.2,-6.5 17,-6.4 5.9,0.2 13.2,-2.3 16.8,-5.7 1.6,-1.5 3.7,-2.5 5,-2.3 1.2,0.1 5.5,-1.1 9.5,-2.7 4,-1.6 8.9,-3.3 10.8,-3.7 1.9,-0.4 4.2,-1.3 5,-2 2.3,-2 8,-3.2 12.6,-2.7 3.1,0.3 5.9,-0.4 11.2,-2.7 3.9,-1.7 8.3,-3.1 9.9,-3.1 6.4,0 24.8,-6.6 29.3,-10.5 0.8,-0.7 4.8,-2.5 8.8,-4.1 4,-1.5 8.9,-4.3 11,-6.2 4.6,-4.3 9,-4.8 10.8,-1.4 l 1.2,2.4 1.6,-2.3 c 0.9,-1.3 1.6,-3 1.6,-3.7 0,-0.8 1,-2.2 2.2,-3.2 1.9,-1.5 2,-2 0.9,-3.4 -0.7,-0.9 -1.9,-1.6 -2.6,-1.6 -1.5,0 -4,-10.3 -2.5,-10.8 0.5,-0.2 0.8,-0.7 0.5,-1.1 -0.7,-1.2 -0.6,-24.2 0.1,-38.6 0.8,-15.2 0.9,-18.4 0.5,-28.5 -0.5,-14.4 0.4,-58.5 1.3,-59.9 1,-1.5 1.1,-10.8 0.2,-16.1 -2,-12.6 -2.7,-60 -0.8,-62.2 0.6,-0.8 1.1,-3 1,-4.9 0,-2 1.1,-5.5 2.6,-8.4 3,-5.6 2.9,-7 -0.9,-7.9 -2,-0.5 -3.1,-0.2 -3.9,1 -1,1.3 -2.2,1.5 -5.2,1 -2.1,-0.3 -5.9,-0.9 -8.4,-1.2 -2.5,-0.3 -6.5,-1.1 -9,-1.9 -2.5,-0.7 -5.6,-1.6 -7,-1.9 -1.4,-0.2 -4.5,-0.9 -7,-1.5 -2.5,-0.6 -6.1,-1.1 -8.1,-1.1 -2,0 -4.2,-0.6 -4.8,-1.4 -0.6,-0.7 -3,-1.7 -5.3,-2 -2.3,-0.4 -6.2,-1.6 -8.6,-2.6 -2.5,-1.1 -5.2,-2 -6.1,-2 -1,0 -3.3,-1.2 -5.2,-2.6 -3.6,-2.7 -9.9,-5.8 -11.1,-5.6 -0.5,0.1 -0.8,-0.3 -0.8,-0.8 0,-0.6 -0.7,-1 -1.6,-1 -0.9,0 -2.8,-0.6 -4.2,-1.4 -6.4,-3.5 -13.2,-6.5 -13.2,-5.8 0,0.4 -0.6,0 -1.3,-0.9 -1.2,-1.6 -3.9,-2.9 -7,-3.6 -1,-0.1 -3,-0.9 -4.5,-1.6 -1.5,-0.8 -4.7,-1.9 -7.2,-2.6 -2.5,-0.7 -5.4,-1.7 -6.5,-2.1 -1.1,-0.5 -3.7,-1.4 -5.8,-2 -2.1,-0.7 -7.1,-2.9 -11,-5 -4.1,-2.2 -11.7,-4.9 -17.6,-6.4 -5.8,-1.4 -12,-3.5 -13.8,-4.6 -1.9,-1.1 -3.5,-2 -3.6,-1.9 -0.1,0 -1.8,0.8 -3.7,1.6 z m 6.6,4.7 c 1.6,0.8 4.5,1.6 6.4,1.9 6.4,0.9 19.4,4.6 24,6.9 2.5,1.2 4.8,2.1 5.3,2 0.4,-0.1 0.7,0.2 0.7,0.7 0,0.5 1,1.1 2.3,1.5 1.3,0.3 4.1,1.3 6.3,2.3 2.1,1 4.4,1.8 4.9,1.8 2.2,0.2 13.2,3.8 15.8,5.1 1.5,0.9 2.7,1.2 2.7,0.7 0,-0.4 0.4,-0.3 0.8,0.3 0.4,0.5 2.5,1.8 4.7,2.8 2.2,1 6.3,2.8 9,4.1 5.3,2.4 8.6,3.8 9.6,3.9 0.3,0.1 3.2,1.8 6.3,3.8 3.2,2.1 6.3,3.8 6.9,3.8 0.6,0 2,0.8 3.1,1.9 1.2,1 4.4,2.4 7.1,3.1 2.8,0.7 5.5,1.6 6,2 2,1.3 10.6,4.2 13.8,4.5 5.6,0.7 12,2.3 17.8,4.4 3,1.2 7.4,2.2 9.7,2.3 3.3,0.1 4.2,0.5 4,1.7 -0.2,1.1 -2.6,2.2 -7.1,3.2 -3.7,0.9 -7.7,2.3 -9,3.1 -1.2,0.9 -4.8,1.8 -7.9,2.2 -3.2,0.4 -6,1.2 -6.4,1.7 -0.3,0.6 -1.2,0.8 -1.9,0.5 -0.7,-0.2 -1.6,0.2 -1.9,1.1 -0.4,0.8 -1.2,1.3 -2,1 -0.7,-0.3 -1.7,-0.2 -2.2,0.3 -1.7,1.5 -8,2.9 -14.6,3.2 -3.8,0.1 -6.8,0.5 -6.8,0.8 0,0.4 -2.1,1.7 -4.6,2.9 -2.5,1.3 -4.8,2.9 -5.1,3.7 -0.3,0.8 -1,1.3 -1.7,1.2 -1.4,-0.2 -9.7,2.3 -11.2,3.4 -0.7,0.5 -3.5,1.1 -6.3,1.4 -2.8,0.2 -6.2,0.9 -7.5,1.4 -1.3,0.5 -2.7,0.6 -3,0.3 -0.3,-0.4 -0.6,-0.2 -0.6,0.4 0,0.6 -2.7,2 -6,3.2 -3.3,1.2 -9.1,4 -12.9,6.2 -3.7,2.1 -7.4,3.9 -8.2,3.9 -1.4,0.1 -8.8,2.6 -14.4,5 -3.4,1.4 -8.1,2.9 -11,3.5 -1.1,0.3 -2.4,1 -3,1.7 -0.5,0.7 -2.7,1.4 -4.8,1.5 -2.1,0.1 -4.4,0.6 -5,1.1 -0.7,0.5 -2.9,1.3 -5.1,1.6 -2.1,0.4 -4.6,1.2 -5.5,1.7 -0.9,0.5 -4.1,1.8 -7.1,2.9 -4.8,1.6 -5.7,1.7 -7.1,0.4 -0.8,-0.8 -2.5,-1.4 -3.7,-1.4 -1.3,0 -5.5,-1.2 -9.5,-2.6 -6.6,-2.3 -9.1,-3.1 -12.3,-3.8 -0.7,-0.1 -1.9,-0.8 -2.8,-1.5 -0.9,-0.8 -1.9,-1.1 -2.2,-0.8 -0.4,0.3 -2.9,-0.3 -5.8,-1.5 -2.8,-1.1 -6.6,-2.5 -8.5,-3 -1.8,-0.5 -6,-2.3 -9.1,-3.9 -3.2,-1.6 -6.2,-2.9 -6.8,-2.9 -0.7,0 -3.3,-1 -5.9,-2.1 -2.7,-1.2 -6.6,-2.9 -8.8,-3.9 -2.2,-1 -6.1,-2.7 -8.6,-3.9 -2.5,-1.1 -6,-2.4 -7.7,-2.7 -1.7,-0.4 -3.7,-1.3 -4.3,-2 -0.6,-0.8 -2.1,-1.4 -3.3,-1.4 -1.2,0 -2.6,-0.4 -3.1,-0.8 -0.6,-0.4 -3.7,-1.6 -7,-2.6 -8.3,-2.6 -12.5,-4.5 -15.8,-7.2 -1.6,-1.3 -3.4,-2.4 -4.2,-2.4 -0.7,0 -1.5,-0.7 -1.9,-1.5 -0.3,-0.8 -1.2,-1.5 -2.1,-1.5 -0.8,0 -1.5,-0.4 -1.5,-0.9 0,-0.5 -5.3,-2.6 -11.7,-4.7 -6.5,-2.1 -12.9,-4.8 -14.3,-6 -2.5,-2.3 -10.6,-4.7 -14.4,-4.3 -1.2,0.1 -3,-0.1 -4.1,-0.6 -8.2,-3 -10.5,-4.1 -10.5,-4.8 0,-0.4 -0.6,-0.7 -1.4,-0.7 -1.9,0 -7.8,-5.4 -7,-6.3 0.4,-0.4 1.6,-0.7 2.6,-0.7 1,0 2.8,-0.5 4.1,-1.2 4.7,-2.4 5.9,-2.8 13.4,-4.9 4.3,-1.1 12.9,-2.4 19,-2.9 6.2,-0.5 11.8,-1.2 12.5,-1.7 0.7,-0.4 1.8,-0.8 2.3,-1 5.1,-1.1 12.4,-4.1 11.8,-4.8 -0.5,-0.4 -0.3,-0.5 0.3,-0.2 0.6,0.3 3.3,-0.1 6,-0.9 3.4,-1 7.8,-1.3 14.7,-1 5.3,0.2 9.9,0.1 10.1,-0.3 0.3,-0.4 2.4,-0.8 4.7,-1 2.3,-0.1 4.7,-0.5 5.3,-0.8 0.5,-0.4 2.3,-0.8 4,-1 1.6,-0.2 3.4,-0.7 4,-1.2 2.1,-1.7 12.1,-4.9 15.5,-4.9 4.8,-0.1 12,-1.8 24.1,-5.9 5.8,-2 12.5,-3.9 15,-4.3 2.5,-0.5 9.2,-1.8 14.9,-2.9 5.8,-1.2 15,-2.5 20.5,-3 5.6,-0.4 10.8,-0.9 11.7,-1 0.9,0 2.9,0.5 4.5,1.3 z M 215,207.5 c 2.2,1.4 4.4,2.5 4.8,2.5 0.5,0 2.2,0.6 3.8,1.4 1.6,0.8 5.6,1.8 8.9,2.1 6.3,0.7 15.8,4.2 15,5.5 -0.2,0.4 2.1,1.5 5.3,2.5 3.1,0.9 7.1,2.3 8.9,3.1 1.7,0.8 3.6,1.4 4.2,1.4 0.6,0 2.6,0.9 4.5,1.9 1.9,1.1 3.6,1.8 3.8,1.5 0.3,-0.2 1.3,0.5 2.3,1.6 1,1.1 2.2,2 2.7,2 0.5,0 1.9,0.9 3.1,2.1 2.7,2.6 8.4,5.3 15.7,7.4 5.3,1.6 10.3,3.3 22,7.7 3,1.2 6.6,2.9 8,3.8 1.4,1 4.6,2.5 7.2,3.4 2.6,0.8 6.4,2.5 8.5,3.6 2.1,1.1 4.2,2 4.6,2 0.5,0 3.6,1.3 7,2.9 6.6,3.1 12.9,5.3 21.7,7.9 3,0.9 5.7,1.9 5.8,2.4 0.2,0.4 1.4,0.8 2.6,0.8 1.3,0 3.8,0.7 5.7,1.6 9.4,4.3 10.4,5 10.7,7.4 1.2,10.2 1.6,20.7 1,27.1 -0.4,4.2 -0.5,9.8 -0.2,12.5 1,8.6 1.1,24.9 0.2,26.1 -0.5,0.7 -0.5,1.4 0.2,1.8 0.5,0.3 1,1.6 1,2.8 0.1,1.2 0.7,3.9 1.5,6 1.1,3.2 1.1,6 0.2,15.5 -0.7,6.5 -0.9,15.1 -0.6,19.2 0.9,11.5 -0.3,67.5 -1.8,82 -1.2,11.4 -0.3,33.1 1.3,34.8 0.9,0.8 1.4,2.6 1.2,4.1 -0.2,2.1 -0.8,2.5 -2.6,2.3 -3.1,-0.5 -13.9,-5.9 -18.2,-9.2 -2.9,-2.2 -16.1,-8.4 -18.1,-8.5 -0.3,0 -1.3,-0.8 -2.2,-1.7 -0.9,-0.9 -4.3,-2.2 -7.4,-2.9 -5.7,-1.2 -14.8,-5.3 -15.9,-7 -0.3,-0.5 -1,-0.7 -1.5,-0.4 -0.5,0.4 -0.9,0.3 -0.9,-0.2 0,-0.4 -2.5,-1.9 -5.5,-3.3 -3,-1.4 -5.5,-2.8 -5.5,-3.3 0,-0.4 -0.9,-0.7 -2,-0.7 -1,0 -2.4,-0.8 -2.9,-1.8 -0.6,-0.9 -1.1,-1.3 -1.1,-0.8 0,0.4 -1.6,-0.4 -3.5,-1.8 -2,-1.5 -5.4,-3.6 -7.8,-4.7 -2.3,-1.1 -5.5,-2.8 -7.2,-3.8 -1.6,-1 -3.3,-1.6 -3.7,-1.4 -0.5,0.2 -0.8,-0.1 -0.8,-0.6 0,-0.6 -0.5,-1.1 -1.1,-1.1 -0.6,0 -2.2,-0.9 -3.6,-2 -1.4,-1.1 -3.2,-2 -4,-2 -0.8,0 -3.7,-1.1 -6.5,-2.5 -2.7,-1.4 -5.8,-2.5 -6.8,-2.5 -1,0 -2.2,-0.5 -2.6,-1.1 -0.6,-1.1 -9.1,-5.2 -10.9,-5.3 -0.5,-0.1 -1.9,-0.9 -2.9,-1.9 -1.1,-0.9 -2.5,-1.7 -3,-1.7 -0.6,0 -2.3,-0.6 -3.7,-1.4 -2.6,-1.3 -9.7,-3.1 -11.2,-2.7 -0.5,0.1 -0.6,-0.3 -0.3,-0.8 0.3,-0.5 -1.5,-1.9 -4.2,-3.1 -2.6,-1.2 -5.9,-3.3 -7.4,-4.6 -1.6,-1.2 -3.8,-2.6 -5,-3 -1.3,-0.4 -3.4,-1.5 -4.7,-2.5 -1.3,-1.1 -3.9,-1.9 -5.7,-1.9 -1.8,0 -3.6,-0.5 -3.9,-1 -0.4,-0.6 -1,-0.8 -1.5,-0.5 -0.5,0.3 -1.8,-0.3 -2.8,-1.3 -1.1,-1.1 -2.5,-2.1 -3.3,-2.4 -1.1,-0.4 -1.1,-1.4 -0.1,-5.9 1.6,-7.6 1.8,-21.4 0.4,-28 -1,-4.3 -1,-6.9 -0.1,-11.5 0.6,-3.2 1.1,-7.9 1.1,-10.4 -0.3,-28.7 -0.9,-44.7 -1.6,-45.8 -1.4,-2.2 -0.8,-53.4 0.8,-61.2 0.3,-1.9 0.9,-11.2 1.2,-20.5 0.3,-9.4 0.7,-19 0.8,-21.5 0.3,-5.7 2.4,-13 3.7,-13 0.5,0 2.7,1.1 4.9,2.5 z m 395,12 c 0.7,0.9 1,3.2 0.7,6.2 -2.4,21.5 -2.7,26.3 -2.1,29.8 0.6,4 0.9,8.3 2,33 0.3,7.1 0.6,13.4 0.6,14 0.1,0.5 -0.3,3.7 -0.7,7 -1,7.6 -1.3,17.2 -1.2,40.5 0.1,30.9 0.1,33.1 -1.7,64.5 -0.1,2.2 0.1,10.7 0.5,19 0.4,9.4 0.2,15.5 -0.4,16.3 -1.6,2 -15.4,12.2 -16.6,12.2 -1.3,0 -13.5,5.9 -21.6,10.5 -5.5,3 -14.2,5.2 -21.3,5.3 -1.2,0.1 -5.1,1.4 -8.6,3.1 -4.9,2.3 -7.8,3 -12.2,3 -4.2,0 -8.2,0.8 -13.9,3 -4.4,1.7 -8.4,3.1 -9,3.1 -1.6,0 -6.5,2.4 -6.5,3.2 0,0.4 -2.1,1 -4.7,1.4 -4.7,0.7 -8.1,2.1 -13.4,5.7 -2.5,1.7 -5.3,2.3 -14.6,3.2 -4.6,0.4 -10.5,2.9 -12.4,5.1 -0.6,0.8 -1.7,1.4 -2.5,1.4 -0.7,0 -1.9,0.8 -2.6,1.8 -0.9,1.2 -3.9,2.3 -8.8,3.2 -9.8,1.8 -14.6,3.5 -18.7,6.6 -1.8,1.4 -4.8,2.8 -6.7,3.1 -2.9,0.5 -3.4,0.2 -4,-2.1 -0.3,-1.4 -0.3,-5.7 0,-9.6 0.6,-6.4 0.5,-7.2 -1.3,-8.5 -1.6,-1.1 -2,-2.7 -2.2,-8.7 -0.2,-4 -0.2,-8 -0.2,-8.8 1.2,-15.4 1.5,-33.6 0.5,-35.2 -0.3,-0.5 0,-1.5 0.6,-2.3 0.6,-0.8 0.9,-2.3 0.5,-3.4 -0.3,-1 -0.2,-2.2 0.3,-2.5 0.9,-0.5 0.9,-2.6 -0.2,-15.4 -0.2,-2.3 0,-4.4 0.3,-4.7 0.7,-0.4 0.6,-23.4 -0.2,-36 -0.3,-4.4 -0.3,-8.4 0,-8.9 0.3,-0.5 0.8,-2.7 0.9,-5 0.2,-2.3 0.6,-5.1 0.9,-6.4 0.3,-1.3 0.1,-2.2 -0.6,-2.2 -0.7,0 -0.9,-1 -0.7,-2.5 0.3,-1.4 0.2,-2.8 -0.2,-3 -1.7,-1 -3,-12.1 -1.7,-14.2 0.7,-1.1 0.3,-8.9 -0.8,-13.6 -0.9,-4.5 -1.5,-15.7 -0.7,-15.7 0.5,0 0.8,-4.5 0.8,-10.1 -0.1,-5.5 0.3,-10.3 0.8,-10.6 0.4,-0.3 0.6,-1.7 0.3,-3.2 -0.7,-3.6 -0.2,-4.2 6.8,-7.5 9.5,-4.6 11.6,-5.4 18,-7.2 3.3,-0.9 7.4,-2.2 9,-2.9 1.7,-0.7 5.3,-1.9 8,-2.8 10,-3.1 18.4,-6.3 20.1,-7.8 0.9,-0.7 1.9,-1.2 2.1,-1 0.6,0.5 13.7,-5.1 14.1,-6.1 0.2,-0.4 0.8,-0.6 1.3,-0.2 0.5,0.3 0.9,0 0.9,-0.5 0,-0.6 0.6,-1.1 1.3,-1.1 0.7,0 3.6,-1.1 6.4,-2.4 2.7,-1.4 7.9,-2.8 11.4,-3.1 7.3,-0.7 11.1,-2.3 27.5,-10.9 2,-1 6.2,-2.1 9.3,-2.3 6.5,-0.5 15.7,-2.9 16.6,-4.3 0.3,-0.6 1.9,-1 3.5,-1 1.6,0 3.1,-0.4 3.4,-0.9 0.3,-0.4 2.6,-1.1 5.1,-1.4 2.5,-0.4 7.9,-1.8 12.1,-3.3 4.1,-1.4 8.3,-2.3 9.3,-1.9 2.5,0.8 7.1,-1.1 7.1,-2.9 0,-1 1.3,-1.6 3.8,-1.9 2,-0.2 4,-0.4 4.3,-0.5 0.4,-0.1 1.2,0.5 1.9,1.3 z" />
  <path
     style="fill:#ffa3a4;fill-opacity:1;fill-rule:nonzero;stroke:#c42836;stroke-width:0;stroke-linecap:square;stroke-linejoin:round;stroke-miterlimit:4;stroke-opacity:1;stroke-dasharray:none;stroke-dashoffset:0;color:#000000;marker:none;visibility:visible;display:inline;overflow:visible;enable-background:accumulate"
     d="m 508.99556,349.96087 c -1.01284,-0.60518 -7.08983,-2.56989 -13.50443,-4.36602 -6.4146,-1.79612 -14.14895,-4.2164 -17.18745,-5.37838 -3.0385,-1.16199 -9.39171,-3.36648 -14.11826,-4.89885 -8.65766,-2.80687 -27.66412,-10.4667 -50.33468,-20.28547 -6.75221,-2.92443 -13.65788,-5.71309 -15.34593,-6.19703 -1.68806,-0.48394 -5.00278,-1.87348 -7.36605,-3.08785 -2.36328,-1.21438 -9.7864,-4.03893 -16.49582,-6.27679 -6.70943,-2.23786 -15.20128,-5.87674 -18.87078,-8.0864 -3.66951,-2.20966 -7.1299,-4.01757 -7.68976,-4.01757 -0.55987,0 -1.45973,-0.69057 -1.9997,-1.53459 -1.47203,-2.30095 -7.12238,-5.07516 -19.39688,-9.5235 -6.07699,-2.20233 -14.18788,-5.62361 -18.02419,-7.60284 -3.91605,-2.02036 -10.48637,-4.09586 -14.98125,-4.73241 -8.51008,-1.20518 -17.30084,-4.15406 -20.49509,-6.87514 -1.066,-0.90809 -2.50991,-1.65107 -3.2087,-1.65107 -0.69878,0 -2.73412,-1.46361 -4.52298,-3.25247 l -3.25247,-3.25246 6.46117,-2.34307 c 16.16708,-5.86279 22.12556,-7.31727 38.88857,-9.49276 15.7666,-2.04617 27.0212,-4.80287 35.09471,-8.59607 4.74542,-2.22956 15.57873,-3.75504 26.66669,-3.75504 13.58864,0 29.69461,-2.85251 39.62023,-7.01708 4.04717,-1.69811 11.83432,-3.81202 17.30476,-4.69757 5.47044,-0.88555 18.4565,-4.10455 28.8579,-7.15333 21.60588,-6.33295 39.16477,-9.90504 61.48117,-12.50738 15.55427,-1.8138 15.56505,-1.81327 26.22543,1.27598 5.86561,1.69979 11.4224,3.09053 12.34841,3.09053 2.73218,0 25.77257,8.20582 29.02614,10.33764 1.64458,1.07757 11.50515,4.76547 21.91234,8.19532 10.4072,3.42985 20.0998,6.98616 21.53912,7.9029 1.4393,0.91674 7.81568,3.88796 14.16972,6.60271 6.35406,2.71474 16.77796,7.93441 23.16426,11.59926 13.44469,7.7154 31.2468,14.67511 45.6932,17.86368 5.56299,1.22785 13.98171,3.3588 18.70826,4.73545 4.72654,1.37664 10.73738,2.87119 13.35741,3.32122 2.62003,0.45002 4.27739,1.27231 3.68302,1.82731 -1.34501,1.25594 -24.60451,8.95041 -33.31613,11.0213 -3.54986,0.84387 -8.79817,2.67028 -11.66291,4.0587 -2.86474,1.38842 -10.54573,3.22139 -17.06886,4.07327 -10.26433,1.34045 -12.82484,2.17567 -19.02896,6.20703 -7.94774,5.16437 -20.18959,9.56692 -32.33606,11.62909 -5.27886,0.89621 -13.58974,4.05881 -24.5535,9.34352 -9.11549,4.39383 -25.13665,11.00106 -35.60258,14.68276 -10.46592,3.6817 -19.55379,7.2149 -20.19525,7.85156 -0.64146,0.63667 -2.40095,1.15758 -3.90997,1.15758 -1.50902,0 -10.18435,2.48604 -19.2785,5.52453 -17.78715,5.94296 -17.70183,5.92511 -20.45537,4.2798 l 0,0 z"
     id="path3762"
     inkscape:connector-curvature="0"
     transform="scale(0.8,0.8)" />
  <path
     style="color:#000000;fill:#cfcfcf;fill-opacity:1;fill-rule:nonzero;stroke:#c42836;stroke-width:0;stroke-linecap:square;stroke-linejoin:round;stroke-miterlimit:4;stroke-opacity:1;stroke-dasharray:none;stroke-dashoffset:0;marker:none;visibility:visible;display:inline;overflow:visible;enable-background:accumulate"
     d="m 512.67858,644.15641 c 0,-8.51058 -0.45995,-11.8943 -1.76391,-12.9765 -2.95915,-2.45588 -3.41115,-12.78842 -2.01673,-46.10221 0.73483,-17.55576 1.33027,-50.15053 1.32321,-72.43283 -0.007,-22.2823 0.52985,-43.7872 1.19313,-47.78867 0.66329,-4.00147 0.76427,-7.86865 0.22441,-8.59373 -1.76921,-2.37622 -3.76705,-17.03871 -4.027,-29.55485 -0.45352,-21.83655 -0.1371,-46.00324 0.74023,-56.53546 l 0.8565,-10.28219 9.40805,-4.48212 c 5.17442,-2.46517 20.45712,-8.197 33.96155,-12.73742 13.50442,-4.54042 26.76331,-9.37477 29.4642,-10.743 2.70088,-1.36823 7.12051,-3.18967 9.8214,-4.04764 2.70088,-0.85797 7.12051,-2.70325 9.8214,-4.10061 2.70088,-1.39736 5.18692,-2.58878 5.52453,-2.64759 0.33761,-0.0588 2.2712,-0.97573 4.29687,-2.03758 5.11796,-2.68285 14.60362,-5.5799 23.32582,-7.12401 4.11422,-0.72836 13.6198,-4.28427 21.53208,-8.05487 9.93815,-4.73603 17.1208,-7.27033 24.06631,-8.49147 5.44515,-0.95735 15.09159,-3.3793 21.43653,-5.38211 18.42242,-5.8151 35.11837,-10.04109 39.67011,-10.04109 2.70079,0 5.51939,-1.10079 7.85869,-3.06919 4.2689,-3.59204 12.11503,-4.27489 13.31092,-1.15846 0.40327,1.0509 0.10362,8.64714 -0.6658,16.88053 -1.88801,20.20194 -1.88735,20.04498 -0.20515,49.06172 1.10896,19.12874 1.15494,35.68911 0.18404,66.29446 -0.7118,22.43793 -1.66405,66.31763 -2.1161,97.51043 l -0.82192,56.71416 -6.87947,5.60558 c -3.78372,3.08307 -15.81144,10.01353 -26.72827,15.40105 -19.12228,9.43693 -30.37556,13.49987 -37.39115,13.49987 -1.82612,0 -7.64892,1.60914 -12.93957,3.57585 -5.29065,1.96672 -13.03141,3.92313 -17.20169,4.34758 -7.8151,0.79539 -29.72872,7.58348 -34.91317,10.81488 -1.61067,1.00391 -5.5932,2.46495 -8.85008,3.24677 -3.25687,0.78182 -8.78141,3.00973 -12.27675,4.95092 -3.58745,1.99235 -9.29578,3.88873 -13.10737,4.35443 -11.15712,1.36318 -16.15161,3.06408 -25.16734,8.57086 -5.86157,3.58023 -12.08234,6.10146 -19.56682,7.93027 -6.0352,1.47468 -14.3751,4.58375 -18.5331,6.90904 -4.15801,2.32528 -8.74994,4.2278 -10.2043,4.2278 -2.51928,0 -2.64429,-0.54425 -2.64429,-11.5126 z"
     id="path3770"
     inkscape:connector-curvature="0"
     transform="scale(0.8,0.8)" />
  <path
     style="color:#000000;fill:#e8e8e8;fill-opacity:1;fill-rule:nonzero;stroke:#c42836;stroke-width:0;stroke-linecap:square;stroke-linejoin:round;stroke-miterlimit:4;stroke-opacity:1;stroke-dasharray:none;stroke-dashoffset:0;marker:none;visibility:visible;display:inline;overflow:visible;enable-background:accumulate"
     d="m 495.35722,646.03255 c -26.73788,-14.13228 -43.68122,-22.35719 -50.94045,-24.72839 -9.86245,-3.22153 -29.12868,-13.1737 -53.1955,-27.4787 -6.36922,-3.78578 -12.72243,-7.2391 -14.11826,-7.67405 -1.39582,-0.43494 -2.81409,-1.19459 -3.1517,-1.6881 -0.9331,-1.36398 -9.44607,-5.46146 -19.02897,-9.15909 -4.72654,-1.82377 -15.22317,-6.57063 -23.32582,-10.54861 -8.10266,-3.97797 -17.49437,-7.9091 -20.87048,-8.73585 -3.3761,-0.82675 -7.24328,-2.4014 -8.59372,-3.49922 -6.84525,-5.56473 -26.77916,-16.198 -34.24904,-18.26934 -4.62248,-1.28178 -9.50495,-3.43094 -10.84993,-4.77592 -2.30092,-2.30091 -2.37212,-3.19764 -1.20501,-15.17558 0.80066,-8.21716 0.83183,-16.80345 0.0879,-24.22006 -0.72566,-7.23468 -0.71726,-15.41377 0.0227,-22.08503 0.78585,-7.08498 0.70124,-21.16996 -0.25539,-42.51466 -1.81706,-40.5429 -1.75137,-68.79011 0.24265,-104.35238 2.55093,-45.49444 3.51565,-57.49723 4.90588,-61.03779 l 1.31033,-3.33707 8.98072,4.26492 c 4.93939,2.34571 13.23823,5.07952 18.44186,6.07514 9.86042,1.88661 17.28509,4.50673 20.50227,7.23512 1.03754,0.87991 6.85852,3.31044 12.93551,5.40116 14.85364,5.11023 20.81461,7.95986 29.00934,13.86784 4.83238,3.4839 12.98719,7.15464 27.11148,12.20375 11.11017,3.97163 26.78356,10.2275 34.82977,13.90193 19.63316,8.96582 40.97804,17.75716 51.45971,21.19477 18.40144,6.03502 25.97643,8.81149 30.89826,11.3252 5.02431,2.56604 5.12981,2.75301 5.81854,10.31273 0.38581,4.23462 0.95657,24.27292 1.26836,44.52955 0.43567,28.30527 1.01048,38.39317 2.4833,43.58246 1.33961,4.72 1.71355,9.52342 1.24241,15.95978 -0.37068,5.06416 -0.87818,30.47703 -1.12775,56.47305 -0.24957,25.99602 -1.13188,58.60194 -1.96068,72.45761 -1.4552,24.32751 -1.07507,33.71856 2.02403,50.00297 0.64889,3.40963 0.40711,3.98994 -1.66236,3.98994 -1.33193,0 -5.39992,-1.57413 -9.03998,-3.49808 l 0,0 z"
     id="path3778"
     inkscape:connector-curvature="0"
     transform="scale(0.8,0.8)" />
</svg>
