<?xml version="1.0" encoding="UTF-8" standalone="no"?>
<svg
   xmlns:dc="http://purl.org/dc/elements/1.1/"
   xmlns:cc="http://creativecommons.org/ns#"
   xmlns:rdf="http://www.w3.org/1999/02/22-rdf-syntax-ns#"
   xmlns:svg="http://www.w3.org/2000/svg"
   xmlns="http://www.w3.org/2000/svg"
   xmlns:sodipodi="http://sodipodi.sourceforge.net/DTD/sodipodi-0.dtd"
   xmlns:inkscape="http://www.inkscape.org/namespaces/inkscape"
   version="1.0"
   width="784.000000pt"
   height="701.000000pt"
   viewBox="0 0 784.000000 701.000000"
   preserveAspectRatio="xMidYMid meet"
   id="svg2"
   inkscape:version="0.48.4 r9939"
   sodipodi:docname="Roof2_0.svg">
  <defs
     id="defs14" />
  <sodipodi:namedview
     pagecolor="#ffffff"
     bordercolor="#666666"
     borderopacity="1"
     objecttolerance="10"
     gridtolerance="10"
     guidetolerance="10"
     inkscape:pageopacity="0"
     inkscape:pageshadow="2"
     inkscape:window-width="1054"
     inkscape:window-height="880"
     id="namedview12"
     showgrid="false"
     inkscape:zoom="0.77"
     inkscape:cx="368.42891"
     inkscape:cy="437.31373"
     inkscape:window-x="667"
     inkscape:window-y="247"
     inkscape:window-maximized="0"
     inkscape:current-layer="svg2" />
  <metadata
     id="metadata4">
Created by potrace 1.14, written by Peter Selinger 2001-2017
<rdf:RDF>
  <cc:Work
     rdf:about="">
    <dc:format>image/svg+xml</dc:format>
    <dc:type
       rdf:resource="http://purl.org/dc/dcmitype/StillImage" />
    <dc:title></dc:title>
  </cc:Work>
</rdf:RDF>
</metadata>
  <g
     id="g2995"
     style="fill:#cb3c32;fill-opacity:1">
    <g
       id="g6"
       stroke="none"
       fill="#000000"
       transform="translate(0.000000,701.000000) scale(0.100000,-0.100000)"
       style="fill:#cb3c32;fill-opacity:1">
      <path
         id="path8"
         d="M2335 6391 c-14 -24 -22 -47 -19 -52 3 -5 0 -9 -6 -9 -12 0 -31 -44 -33 -75 0 -11 -7 -28 -15 -37 -8 -10 -11 -18 -6 -18 5 0 1 -7 -9 -14 -10 -8 -18 -17 -18 -20 1 -3 1 -7 0 -8 0 -2 -2 -13 -5 -26 -5 -26 -45 -124 -54 -132 -3 -3 -11 -17 -17 -32 -9 -20 -9 -29 -1 -34 6 -4 8 -3 4 4 -3 6 4 20 16 31 12 12 18 21 14 21 -5 0 -3 7 4 15 7 8 10 15 6 15 -8 0 23 63 34 70 5 3 10 14 12 25 1 10 11 27 21 37 9 10 17 27 17 38 0 11 5 20 10 20 6 0 10 13 10 28 0 16 9 39 20 52 11 13 20 29 20 37 0 7 4 13 8 13 4 0 16 14 25 30 23 37 52 41 43 6 -8 -31 11 -44 31 -23 14 14 22 12 80 -19 36 -19 71 -34 79 -34 8 0 14 -4 14 -8 0 -5 26 -20 58 -35 31 -14 94 -46 138 -71 58 -31 85 -41 92 -34 8 8 9 5 6 -8 -5 -21 1 -26 105 -79 39 -20 77 -42 83 -48 24 -23 89 -57 109 -57 23 0 107 -41 165 -81 22 -15 76 -45 120 -67 43 -22 106 -56 138 -76 33 -20 63 -36 68 -36 4 0 36 -13 70 -29 35 -16 82 -32 105 -36 23 -3 53 -14 65 -24 79 -60 225 -126 313 -142 33 -6 83 -20 110 -31 28 -11 57 -21 64 -22 8 -2 17 -8 19 -14 2 -7 9 -12 15 -12 14 0 229 -108 237 -119 13 -18 78 -60 112 -70 20 -7 42 -19 48 -27 7 -7 19 -14 26 -14 8 0 36 -11 63 -24 32 -15 54 -20 64 -14 9 5 18 4 22 -2 3 -5 16 -10 29 -10 12 0 26 -4 32 -9 5 -5 27 -14 49 -21 54 -17 168 -69 175 -79 6 -10 94 -51 109 -51 16 0 23 -20 12 -34 -10 -12 -50 -147 -55 -186 -1 -8 -8 -28 -14 -43 -7 -16 -12 -37 -12 -49 0 -11 -6 -34 -14 -51 -14 -34 -30 -92 -48 -169 -6 -27 -15 -48 -19 -48 -5 0 -9 -13 -9 -29 0 -16 -7 -42 -15 -57 -8 -16 -15 -36 -15 -44 0 -8 -7 -24 -15 -34 -8 -11 -15 -26 -15 -34 0 -14 -16 -50 -101 -228 -21 -44 -41 -98 -45 -120 -3 -21 -13 -52 -21 -69 -29 -55 -32 -62 -38 -98 -4 -20 -13 -41 -21 -48 -8 -6 -12 -15 -9 -19 3 -5 -1 -28 -9 -52 -8 -24 -17 -54 -19 -68 -11 -58 -40 -158 -58 -197 -10 -23 -19 -46 -19 -51 0 -4 -9 -26 -20 -49 -10 -22 -21 -51 -23 -64 -3 -14 -17 -52 -31 -86 -14 -35 -26 -67 -26 -74 0 -24 -69 -169 -81 -169 -4 0 -11 5 -14 10 -11 18 -35 11 -35 -10 0 -11 -3 -20 -6 -20 -11 0 -123 59 -177 93 -30 20 -79 46 -109 58 -29 12 -60 28 -68 35 -8 7 -26 17 -40 23 -28 12 -50 25 -95 57 -35 25 -249 129 -285 139 -42 13 -163 76 -212 111 -25 19 -86 53 -135 75 -48 23 -110 52 -137 65 -27 13 -52 21 -56 19 -5 -3 -11 2 -14 11 -3 8 -10 13 -15 9 -6 -3 -14 1 -18 10 -13 22 -141 103 -183 115 -19 6 -49 18 -66 28 -17 9 -56 30 -87 46 -31 16 -54 33 -51 38 3 4 -1 8 -10 8 -8 0 -16 4 -18 8 -5 13 -74 52 -92 52 -9 0 -16 4 -16 8 0 4 -27 14 -60 20 -34 7 -95 31 -136 52 -41 22 -81 40 -89 40 -25 0 -203 60 -254 86 -27 13 -54 24 -61 24 -6 0 -41 13 -77 30 -35 16 -67 30 -70 30 -2 0 -28 20 -56 44 -61 51 -88 66 -117 66 -11 0 -23 7 -26 15 -4 8 -15 15 -25 15 -11 0 -19 7 -19 16 0 9 -9 18 -20 21 -11 3 -18 8 -16 12 2 3 -7 16 -20 29 -13 12 -24 20 -24 17 0 -3 -9 3 -20 13 -11 10 -39 25 -61 32 -22 8 -55 31 -75 52 -32 35 -34 42 -29 89 3 27 9 58 14 67 4 9 6 23 4 30 -3 6 1 12 7 12 7 0 10 7 6 15 -3 8 -1 15 4 15 5 0 7 6 4 14 -3 7 2 21 12 30 9 9 14 20 10 23 -3 4 1 17 9 30 9 13 13 28 10 33 -3 6 -1 10 5 10 6 0 8 5 5 10 -5 8 -11 7 -21 -1 -7 -6 -12 -14 -9 -18 2 -4 -2 -19 -10 -34 -7 -14 -11 -28 -7 -31 3 -3 0 -6 -6 -6 -7 0 -12 -8 -12 -19 0 -10 -7 -32 -15 -47 -8 -16 -15 -41 -15 -56 0 -16 -5 -28 -12 -28 -6 0 -9 -3 -5 -6 11 -12 -26 -39 -50 -36 -27 4 -32 -21 -7 -45 22 -22 14 -57 -14 -61 -27 -4 -41 -30 -22 -42 9 -6 10 -19 2 -55 -6 -29 -7 -59 -1 -79 19 -65 40 -450 29 -541 -10 -86 -4 -227 10 -235 6 -4 8 -14 4 -23 -3 -9 -2 -22 2 -29 4 -7 9 -19 9 -28 1 -8 5 -40 10 -70 4 -30 9 -203 11 -385 1 -181 6 -386 9 -455 5 -89 3 -137 -6 -165 -7 -22 -14 -41 -15 -43 -1 -2 -25 13 -53 34 -29 20 -54 34 -57 31 -17 -17 29 -74 108 -132 27 -20 27 -21 18 -90 -7 -54 -6 -73 4 -83 18 -18 54 3 62 36 4 12 10 22 15 22 5 0 13 9 17 19 7 19 8 19 52 1 25 -10 64 -23 87 -30 23 -7 53 -22 65 -34 31 -29 57 -41 116 -55 27 -7 65 -23 83 -37 18 -13 40 -24 50 -24 9 0 22 -6 28 -14 16 -19 120 -64 156 -68 17 -2 32 -5 35 -8 9 -9 97 -50 107 -50 5 0 24 -11 41 -24 18 -13 58 -31 90 -40 74 -22 150 -56 164 -74 16 -19 112 -66 102 -50 -9 16 22 -7 47 -34 9 -10 65 -38 125 -64 60 -25 121 -52 137 -60 15 -8 27 -12 27 -7 0 4 4 3 8 -2 7 -10 47 -31 117 -60 55 -24 129 -59 135 -65 3 -3 16 -11 30 -19 206 -118 290 -168 315 -186 46 -34 212 -117 240 -120 6 0 20 -6 32 -13 12 -7 27 -12 33 -12 13 0 168 -76 220 -108 19 -12 40 -22 47 -22 6 0 40 -27 75 -61 35 -33 75 -63 90 -66 15 -3 33 -12 40 -21 11 -13 11 -15 -2 -8 -8 4 -5 -2 8 -13 13 -11 30 -17 37 -14 8 3 15 0 15 -6 0 -6 7 -11 15 -11 8 0 15 -4 15 -8 0 -11 49 -34 60 -27 4 3 10 -4 13 -15 3 -11 1 -23 -4 -26 -13 -7 9 -34 27 -34 7 0 17 7 21 15 7 11 18 14 42 9 31 -6 32 -9 29 -47 -2 -29 2 -43 14 -51 27 -17 42 7 43 67 1 39 5 51 16 49 8 -1 3 7 -11 18 -25 20 -25 20 -5 36 37 28 249 150 355 204 58 29 122 64 142 77 21 12 44 23 52 23 7 0 19 6 25 14 7 8 26 18 42 21 16 4 32 11 35 17 3 5 25 18 48 29 22 11 68 40 101 64 33 25 103 67 155 94 107 53 163 85 200 111 14 10 68 39 120 64 52 25 115 58 140 72 115 68 180 102 275 144 28 12 73 32 100 45 70 33 95 39 96 23 2 -28 -3 -63 -12 -74 -11 -13 9 -34 32 -34 21 0 28 17 19 50 -7 30 -5 104 5 119 3 6 13 11 22 11 8 0 27 9 43 20 23 17 43 24 80 29 3 1 6 12 6 26 2 34 -16 32 -92 -7 -61 -31 -89 -33 -65 -5 13 17 14 43 3 122 -5 33 -7 83 -5 110 4 50 4 343 -1 525 -1 52 2 100 7 107 10 14 11 123 1 193 -6 52 -7 161 -2 532 4 290 7 304 52 274 38 -25 66 -21 66 9 0 15 -6 25 -14 25 -8 0 -36 20 -63 45 -33 31 -57 45 -75 45 -16 0 -28 5 -28 11 0 6 -33 46 -73 88 -40 42 -80 88 -89 102 -9 14 -46 49 -81 78 -39 32 -80 77 -102 113 -20 32 -48 70 -61 83 -14 14 -22 30 -19 35 3 6 -1 13 -9 16 -9 3 -14 10 -11 14 3 5 -8 18 -25 30 -16 12 -30 26 -30 32 0 5 -13 24 -30 41 -16 18 -44 49 -61 70 -18 22 -44 43 -57 48 -14 5 -22 12 -19 15 3 3 -8 19 -24 35 -16 15 -29 31 -29 34 0 4 -7 13 -15 21 -8 9 -15 24 -15 34 0 13 -5 17 -15 14 -11 -5 -13 -2 -9 10 3 9 1 16 -6 16 -6 0 -9 4 -6 8 3 5 -30 42 -73 83 -43 42 -88 90 -101 107 -13 17 -28 28 -33 25 -6 -3 -7 -1 -3 6 9 13 -27 61 -57 78 -12 6 -29 24 -37 39 -9 15 -25 33 -37 41 -20 13 -24 12 -43 -10 l-21 -24 -59 28 c-32 16 -61 33 -65 39 -3 5 -13 10 -21 10 -8 0 -56 20 -107 45 -50 24 -128 53 -172 64 -44 10 -98 26 -120 34 -54 21 -185 89 -237 124 -24 16 -74 44 -113 62 -38 19 -105 51 -148 72 -43 21 -104 43 -136 49 -83 15 -192 54 -259 91 -31 18 -59 35 -62 38 -15 17 -130 57 -157 54 -7 0 -11 3 -8 7 4 7 -59 34 -75 33 -8 -1 -84 39 -100 52 -26 23 -131 77 -137 71 -3 -3 -17 4 -31 14 -13 11 -29 20 -33 20 -5 0 -31 15 -57 33 -71 48 -103 64 -147 72 -22 4 -62 23 -89 42 -51 36 -154 93 -169 93 -5 0 -16 9 -25 20 -10 11 -46 34 -82 53 -36 18 -85 46 -110 63 -25 17 -56 34 -70 37 -14 4 -49 22 -78 42 -30 19 -58 35 -63 35 -5 0 -9 6 -9 14 0 17 -92 47 -133 43 -22 -1 -34 -12 -52 -46z m3223 -1500 c15 -10 37 -22 50 -25 12 -4 22 -10 22 -14 0 -4 12 -20 26 -37 14 -16 23 -25 20 -18 -4 6 -2 15 4 18 6 4 10 3 9 -2 -4 -17 21 -63 35 -63 13 0 29 -28 31 -53 0 -4 14 -16 32 -26 31 -19 104 -110 129 -161 17 -33 72 -92 106 -113 14 -9 38 -41 53 -72 15 -30 31 -55 36 -55 18 0 109 -101 115 -127 4 -16 12 -33 20 -39 7 -6 14 -16 16 -23 2 -7 14 -26 28 -42 74 -85 96 -109 103 -109 12 0 62 -40 51 -40 -5 0 -1 -5 9 -11 9 -5 17 -15 17 -22 1 -13 74 -97 85 -97 8 0 35 -27 35 -35 0 -8 -73 -3 -85 6 -6 4 -17 4 -25 -1 -23 -14 3 -34 75 -58 124 -42 118 -35 132 -174 11 -120 10 -339 -2 -508 -8 -110 -8 -121 1 -275 11 -181 7 -325 -8 -341 -4 -3 -3 -18 1 -32 9 -34 7 -354 -4 -441 -4 -36 -9 -83 -10 -105 -1 -23 -6 -54 -10 -69 -5 -20 -3 -33 9 -46 16 -18 15 -20 -26 -52 -24 -18 -45 -37 -48 -40 -3 -4 -17 -10 -32 -14 -15 -4 -32 -13 -39 -21 -6 -8 -20 -14 -30 -14 -11 0 -19 -4 -19 -10 0 -5 -11 -10 -24 -10 -14 0 -27 -4 -31 -9 -3 -5 -18 -12 -34 -16 -16 -3 -37 -15 -47 -26 -9 -10 -24 -19 -32 -19 -7 0 -26 -9 -41 -19 -33 -24 -222 -121 -235 -121 -5 0 -39 -20 -75 -44 -81 -53 -210 -126 -224 -126 -20 0 -105 -54 -174 -110 -7 -6 -14 -10 -17 -10 -2 0 -32 -18 -65 -40 -33 -22 -64 -40 -69 -40 -5 0 -15 -7 -22 -15 -6 -8 -15 -14 -18 -13 -9 2 -42 -10 -67 -25 -11 -6 -73 -37 -137 -68 -64 -32 -121 -66 -127 -76 -6 -10 -11 -15 -11 -10 0 4 -21 -4 -47 -18 -49 -26 -55 -29 -108 -59 -58 -33 -95 -50 -99 -45 -7 8 -28 244 -32 369 -2 69 -9 148 -15 175 -6 28 -13 160 -15 295 -2 135 -8 286 -13 335 -5 50 -9 116 -7 148 1 31 -1 57 -5 57 -11 0 -7 612 4 638 6 12 22 25 36 29 14 3 32 10 39 16 19 15 14 48 -8 54 -16 4 -20 12 -18 37 2 17 5 33 8 36 15 14 65 164 63 188 0 6 4 12 9 12 6 0 8 7 4 15 -3 8 -1 15 4 15 6 0 10 9 10 21 0 11 9 40 20 64 11 24 22 54 24 67 3 13 5 24 7 26 1 1 2 5 3 10 4 27 31 92 37 92 4 0 11 15 14 33 4 17 11 37 16 43 5 6 10 19 12 30 1 10 6 25 11 32 4 7 6 16 3 19 -3 2 1 22 8 44 8 22 12 46 9 54 -4 8 -1 15 5 15 6 0 8 6 6 13 -6 16 20 89 28 80 4 -3 8 -1 8 5 3 22 5 27 22 53 10 15 17 31 16 35 -4 17 13 64 23 64 6 0 8 6 5 14 -3 8 -2 16 2 18 4 2 20 41 35 88 16 47 35 93 43 102 8 9 12 22 8 27 -3 6 -1 11 4 11 6 0 11 7 11 15 0 8 5 15 10 15 6 0 10 7 10 15 0 8 5 15 11 15 5 0 8 4 5 9 -4 5 -1 22 6 38 6 15 10 34 9 41 -1 6 3 12 9 12 5 0 10 8 10 18 0 9 7 30 15 46 8 15 12 32 9 37 -3 5 0 9 5 9 6 0 11 14 11 31 0 17 6 37 14 44 8 8 17 37 21 65 4 27 11 50 17 50 6 0 8 7 4 15 -3 8 -1 15 5 15 5 0 7 11 3 25 -4 16 -2 25 6 25 7 0 9 8 5 21 -4 12 -1 27 8 37 8 9 18 28 21 42 20 74 31 100 43 100 7 0 14 10 15 23 0 12 2 27 3 32 2 6 3 13 4 18 2 14 43 7 69 -12z m-4070 -541 c7 -12 17 -18 22 -15 5 3 12 -1 17 -9 8 -15 103 -66 121 -66 6 0 40 -28 75 -63 35 -34 86 -73 113 -87 46 -23 113 -67 124 -81 8 -10 71 -44 105 -57 17 -6 55 -20 85 -32 77 -30 162 -61 180 -65 8 -2 37 -8 64 -15 52 -12 153 -56 173 -76 15 -14 53 -27 133 -43 56 -12 98 -34 233 -127 41 -29 97 -59 124 -69 26 -9 60 -23 76 -32 15 -8 27 -11 27 -6 0 4 4 4 8 -2 4 -5 34 -28 67 -50 33 -22 65 -45 70 -51 6 -7 28 -17 50 -24 22 -7 46 -19 53 -26 7 -8 25 -17 40 -20 40 -9 136 -56 145 -71 4 -7 14 -13 22 -13 7 0 15 -3 17 -7 4 -10 75 -63 83 -63 11 0 79 -32 95 -45 8 -7 33 -18 55 -25 57 -17 285 -131 319 -159 9 -7 16 -10 16 -7 0 4 12 -5 27 -19 15 -14 35 -25 44 -25 9 0 19 -6 22 -13 3 -8 32 -24 66 -36 33 -12 67 -28 75 -36 8 -8 19 -15 25 -15 6 0 11 -4 11 -8 0 -5 36 -26 80 -46 44 -21 83 -43 87 -49 4 -6 8 -142 10 -302 4 -374 10 -551 24 -648 5 -43 9 -126 8 -185 -4 -209 3 -352 19 -432 6 -25 11 -89 11 -143 1 -53 6 -131 10 -173 5 -41 7 -94 4 -118 -2 -23 1 -54 6 -69 9 -22 7 -29 -12 -42 -31 -22 -57 -19 -118 15 -30 16 -61 30 -69 30 -8 0 -41 21 -73 46 -32 25 -67 46 -77 47 -10 1 -17 4 -14 8 2 4 -4 10 -15 14 -11 3 -22 12 -25 20 -3 8 -12 15 -20 15 -7 0 -16 6 -19 13 -6 16 -228 139 -283 157 -21 7 -43 16 -49 20 -21 16 -157 70 -165 65 -4 -3 -13 2 -20 10 -7 8 -17 15 -22 15 -4 0 -38 23 -74 51 -37 28 -72 52 -79 53 -6 1 -24 9 -38 19 -15 9 -29 17 -32 17 -3 0 -33 17 -68 37 -34 21 -94 54 -132 73 -39 19 -72 38 -75 41 -3 3 -23 12 -45 19 -22 7 -65 26 -95 43 -90 50 -143 74 -180 82 -19 4 -47 16 -62 26 -14 11 -30 19 -35 19 -6 0 -18 10 -29 21 -10 12 -53 37 -94 56 -40 18 -88 44 -105 57 -16 12 -52 29 -80 36 -51 14 -107 37 -230 95 -38 18 -88 38 -110 45 -22 7 -92 39 -155 71 -63 32 -134 64 -157 71 -24 7 -43 16 -43 19 0 4 -12 10 -27 14 -16 3 -35 13 -44 21 -8 7 -44 24 -80 37 -35 13 -90 40 -121 61 l-58 37 -2 177 c-4 471 -16 866 -27 937 -5 33 -17 96 -25 140 -12 61 -15 140 -14 330 1 236 -3 332 -15 351 -2 5 -5 34 -5 66 0 42 5 61 19 77 20 22 24 37 11 43 -5 2 -12 15 -15 30 -6 22 -3 27 15 31 13 2 25 5 28 6 3 0 11 -8 18 -19z"
         style="fill:#cb3c32;fill-opacity:1" />
      <path
         id="path10"
         d="M4620 4716 c0 -9 24 -28 58 -46 31 -17 85 -48 120 -70 34 -21 91 -53 125 -71 34 -17 74 -37 89 -45 30 -16 68 -19 68 -4 0 5 -16 17 -35 26 -20 9 -40 25 -45 35 -6 9 -27 23 -47 29 -21 7 -45 18 -53 26 -8 7 -26 17 -40 23 -14 6 -32 15 -40 21 -8 5 -31 16 -50 24 -19 9 -46 25 -60 36 -35 28 -90 38 -90 16z"
         style="fill:#cb3c32;fill-opacity:1" />
    </g>
    <path
       transform="scale(0.8,0.8)"
       inkscape:connector-curvature="0"
       d="m 196.47476,281.527 c 0.49212,-0.96581 1.21476,-1.78716 1.91343,-2.60743 0.43786,-0.50807 0.8391,-1.03868 1.21156,-1.59581 0.27019,-0.4267 0.30651,-0.93616 0.43874,-1.41247 0.22257,-0.49903 0.51387,-0.92109 0.68251,-1.446 0.61282,-1.78375 1.6973,-3.34201 2.79827,-4.85349 0.9339,-1.35652 2.09507,-2.53002 3.0737,-3.85049 0.72137,-0.93608 0.86854,-2.06423 1.12301,-3.18276 0.74014,-2.88178 2.0862,-5.55637 3.39158,-8.21416 1.20473,-2.30069 2.37914,-4.61833 3.61821,-6.90089 0.68715,-0.97444 1.14979,-2.05402 1.64786,-3.12645 1.16565,-2.45153 2.39942,-4.8683 3.61129,-7.29707 1.27254,-2.65134 2.54544,-5.30248 3.82204,-7.95199 0.60206,-1.14637 1.16289,-2.31744 1.44758,-3.58547 0.32924,-1.56507 1.27904,-2.90789 2.09367,-4.25423 1.42205,-2.34964 2.9151,-4.65824 4.24561,-7.06177 0.74424,-1.32338 1.34741,-2.62461 1.46064,-4.14977 -0.0932,-1.72492 0.88179,-3.22638 1.64153,-4.70617 0.99386,-1.84907 2.02797,-3.68692 2.74438,-5.66697 0.45073,-1.24574 0.53481,-1.69939 0.85688,-2.96233 0.42479,-1.95514 0.72967,-3.81694 0.46817,-5.80912 -0.351,-1.61633 -0.26645,-1.9327 0.66126,-3.3543 1.17062,-1.7181 2.78097,-3.05529 4.13813,-4.61387 0.78651,-1.01913 1.27393,-2.17282 1.32051,-3.45868 -0.30829,-1.46884 0.27734,-2.35148 0.99334,-3.62115 1.32996,-2.2808 2.93243,-4.38367 4.35978,-6.60259 0.91435,-1.24513 1.31002,-2.699 1.7623,-4.14341 0.50121,-1.39296 1.60584,-2.43392 2.50257,-3.57619 1.21846,-1.65666 1.9798,-3.55889 2.48185,-5.53815 0.28877,-0.90784 0.2037,-1.89271 0.45221,-2.80596 0.14959,-0.54974 0.28202,-0.72288 0.55391,-1.22455 0.16435,-0.23788 0.31978,-0.48219 0.49306,-0.71364 1.43782,-1.9205 -0.14319,0.32384 1.35838,-1.74412 0.66044,-0.90956 1.2051,-1.83445 1.70288,-2.83958 0.65358,-1.3269 0.7003,-2.82789 1.30473,-4.16643 0.095,-0.164 0.17497,-0.33769 0.28502,-0.492 0.33095,-0.46402 0.67585,-0.7656 1.07388,-1.17825 0.62986,-0.65299 1.23683,-1.32259 1.83058,-2.00831 0.7073,-0.82181 1.27685,-1.72826 1.53524,-2.78496 0.15089,-0.62045 0.0782,-1.22596 -0.0328,-1.84252 -0.0869,-0.35828 -0.0781,-0.71234 0.002,-1.06843 0,0 1.89398,-0.89716 1.89398,-0.89716 l 0,0 c -0.12274,0.31921 -0.12943,0.64953 -0.052,0.98418 0.11692,0.642 0.2134,1.27095 0.0661,1.92066 -0.23953,1.09798 -0.80287,2.0423 -1.53317,2.89356 -0.59093,0.68907 -1.19371,1.36782 -1.82426,2.02129 -0.30237,0.31336 -0.79577,0.76167 -1.07009,1.12192 -0.11204,0.14714 -0.19316,0.31543 -0.28974,0.47314 -0.20937,0.41684 -0.29512,0.54291 -0.42956,1.00531 -0.30793,1.05911 -0.39442,2.18574 -0.91501,3.18157 -0.493,1.01959 -1.03637,1.95513 -1.69581,2.87871 -1.08738,1.52292 -0.2753,0.32904 -1.33797,1.72725 -0.17029,0.22405 -0.32497,0.45955 -0.48746,0.68933 -0.25512,0.43671 -0.43104,0.67624 -0.57749,1.16148 -0.27593,0.91425 -0.17325,1.91727 -0.47321,2.82945 -0.49289,1.99716 -1.24868,3.91833 -2.43903,5.61145 -0.87108,1.13634 -1.9715,2.1502 -2.50846,3.50035 -0.495,1.49816 -0.82086,2.90062 -1.78954,4.21433 -1.42938,2.21491 -3.03313,4.31395 -4.36348,6.59167 -0.69708,1.22522 -1.29266,2.0834 -0.98052,3.50512 -0.0321,1.36052 -0.49194,2.50071 -1.29609,3.60199 -1.34151,1.56726 -2.96635,2.88223 -4.14489,4.58875 -0.93681,1.3874 -1.04027,1.60084 -0.70671,3.21405 0.0639,0.51786 0.12075,0.86337 0.12189,1.39737 0.003,1.52185 -0.34286,3.0269 -0.62237,4.5131 -0.32252,1.2676 -0.41246,1.73885 -0.85686,2.99053 -0.70424,1.98349 -1.72244,3.82683 -2.71673,5.67491 -0.54767,1.07604 -1.39852,2.46489 -1.58859,3.67743 -0.0265,0.16935 -0.0207,0.74993 -0.0208,0.92302 -0.10813,1.59419 -0.68473,2.87335 -1.47269,4.25394 -1.33662,2.4043 -2.84115,4.71023 -4.2508,7.07176 -0.78963,1.32156 -1.71429,2.63939 -2.05576,4.16342 -0.27773,1.29684 -0.84796,2.49347 -1.47962,3.65411 -1.30353,2.65373 -2.60551,5.30789 -3.87556,7.97778 -1.18537,2.41154 -2.40767,4.80362 -3.5197,7.25052 -0.22047,0.46812 -0.38533,0.96594 -0.61938,1.4266 -0.30523,0.60075 -0.72035,1.13967 -1.05191,1.7248 -1.26388,2.28387 -2.46126,4.60452 -3.67364,6.91586 -1.29014,2.63647 -2.64843,5.28225 -3.36111,8.14574 -0.22882,1.13953 -0.34035,2.28885 -1.06033,3.24897 -0.97265,1.34098 -2.16536,2.50159 -3.10979,3.86628 -1.09515,1.4788 -2.17378,3.01066 -2.77802,4.76553 -0.03,0.11441 -0.13896,0.56827 -0.20785,0.71471 -0.11999,0.25509 -0.38216,0.43899 -0.45999,0.72271 -0.1423,0.49103 -0.1849,1.0074 -0.41409,1.4695 -0.3606,0.57854 -0.77938,1.10847 -1.21823,1.62973 -0.6969,0.8034 -1.43035,1.60512 -1.92121,2.5549 0,0 -1.90152,0.86031 -1.90152,0.86031 z"
       id="path2993"
       style="color:#000000;fill:#cb3c32;fill-opacity:1;fill-rule:nonzero;stroke:#c42836;stroke-width:0;stroke-linecap:square;stroke-linejoin:round;stroke-miterlimit:4;stroke-opacity:1;stroke-dasharray:none;stroke-dashoffset:0;marker:none;visibility:visible;display:inline;overflow:visible;enable-background:accumulate" />
  </g>
  <path
     style="color:#000000;fill:#e8e8e8;fill-opacity:1;fill-rule:nonzero;stroke:#c42836;stroke-width:0;stroke-linecap:square;stroke-linejoin:round;stroke-miterlimit:4;stroke-opacity:1;stroke-dasharray:none;stroke-dashoffset:0;marker:none;visibility:visible;display:inline;overflow:visible;enable-background:accumulate"
     d="m 574.01333,800.54825 c -8.9096,-3.94384 -24.76433,-13.76837 -37.66234,-23.3378 -12.0139,-8.9135 -44.0956,-24.99377 -61.35833,-30.75457 -2.3185,-0.77373 -7.9145,-4.04635 -12.43557,-7.27252 -7.14504,-5.09859 -56.98696,-33.23411 -58.87405,-33.23411 -0.38122,0 -7.21286,-3.17472 -15.18143,-7.05493 -7.96856,-3.88022 -17.85693,-8.30842 -21.97418,-9.84044 -4.11725,-1.53203 -10.31816,-4.69147 -13.7798,-7.02099 -9.44516,-6.35613 -30.00117,-17.1877 -38.63415,-20.35748 -10.82572,-3.97488 -57.45989,-24.375 -83.60665,-36.57372 -4.64285,-2.16611 -13.7013,-6.38422 -20.12987,-9.37357 -6.42857,-2.98934 -14.05666,-6.93139 -16.95132,-8.76011 l -5.26301,-3.32494 -1.51861,-67.3534 c -1.2799,-56.76614 -1.9326,-69.80312 -4.15227,-82.93782 -1.88628,-11.1619 -2.63374,-21.47942 -2.63396,-36.3577 -1.7e-4,-11.42531 -0.65354,-31.7313 -1.45194,-45.12442 -1.32561,-22.23702 -1.25984,-24.64386 0.75748,-27.72268 1.86564,-2.84733 1.96123,-3.96997 0.61479,-7.22055 -1.139,-2.7498 -1.19481,-4.24853 -0.19542,-5.24792 1.72191,-1.72191 2.1783,-1.50648 16.43813,7.75937 3.5327,2.2955 7.15129,4.17364 8.04131,4.17364 0.89002,0 5.01262,2.9902 9.16133,6.6449 7.95242,7.00547 32.51408,23.68187 41.30934,28.04741 5.22289,2.5924 31.12979,11.93413 48.05194,17.32699 5,1.59343 12.79204,4.85913 17.31565,7.25711 4.52361,2.39797 9.07128,4.35995 10.10591,4.35995 5.30617,0 18.73502,6.16819 32.27181,14.8232 8.33714,5.33051 19.35574,11.29733 24.48578,13.25961 5.13004,1.96228 13.12605,6.31235 17.76891,9.66683 8.94744,6.46454 19.09883,11.91151 31.87236,17.10186 4.28438,1.74089 12.45346,6.34297 18.15351,10.22682 5.70005,3.88385 15.33127,9.31774 21.4027,12.07529 26.93322,12.23273 35.51141,16.5663 52.51165,26.52813 9.95284,5.83219 18.71908,10.60791 19.48052,10.61273 0.76145,0.005 5.29444,2.48857 10.07331,5.51948 4.77888,3.0309 11.57771,7.0797 15.10852,8.99734 l 6.41965,3.48662 0.76563,40.01987 c 0.42111,22.01094 1.40212,49.95495 2.18006,62.09781 0.77792,12.14286 1.67742,34.05844 1.99888,48.7013 0.32147,14.64285 1.2134,33.05194 1.98208,40.90909 0.76866,7.85714 2.12482,26.55844 3.01366,41.55844 2.08199,35.13506 1.92275,35.42013 -15.48201,27.71588 l 0,0 z"
     id="path3769"
     inkscape:connector-curvature="0"
     transform="scale(0.8,0.8)" />
  <path
     style="color:#000000;fill:#cfcfcf;fill-opacity:1;fill-rule:nonzero;stroke:#c42836;stroke-width:0;stroke-linecap:square;stroke-linejoin:round;stroke-miterlimit:4;stroke-opacity:1;stroke-dasharray:none;stroke-dashoffset:0;marker:none;visibility:visible;display:inline;overflow:visible;enable-background:accumulate"
     d="m 595.02002,791.87932 c -0.43554,-4.16703 -1.40347,-17.17028 -2.15096,-28.89611 -0.74749,-11.72581 -1.67255,-23.07292 -2.05568,-25.21578 -2.54225,-14.21884 -7.17621,-180.54858 -5.24452,-188.24503 0.58962,-2.34924 2.35892,-4.10477 5.43031,-5.38808 5.8412,-2.44061 6.79881,-5.07395 3.22753,-8.87541 l -2.84251,-3.02571 5.35683,-16.06405 c 2.94626,-8.83524 5.87303,-17.23288 6.50395,-18.66146 0.63091,-1.42857 3.27455,-9.31818 5.87475,-17.53246 2.6002,-8.21429 5.16891,-15.51948 5.70825,-16.23377 2.28002,-3.01961 7.9437,-20.80826 8.71528,-27.37322 0.45995,-3.91347 1.33829,-7.42566 1.95188,-7.80487 0.61358,-0.37922 1.1156,-2.36649 1.1156,-4.41618 0,-2.04968 0.73052,-4.49896 1.62338,-5.44283 2.19609,-2.32159 7.46753,-13.6545 7.46753,-16.05422 0,-1.06202 0.57141,-2.94573 1.2698,-4.18604 0.69839,-1.24032 4.27811,-9.99861 7.95494,-19.4629 3.67684,-9.46429 7.19634,-17.20779 7.82112,-17.20779 0.62477,0 1.13596,-0.87663 1.13596,-1.94805 0,-1.07143 0.58441,-1.94806 1.2987,-1.94806 0.71428,0 1.3023,-1.60714 1.3067,-3.57142 0.004,-1.96429 0.81706,-5.12208 1.8059,-7.01732 0.98885,-1.89523 2.487,-5.69393 3.32924,-8.44155 0.84223,-2.74763 2.02242,-6.16451 2.62264,-7.59308 1.85016,-4.40356 8.17721,-25.58188 9.89371,-33.11689 2.03184,-8.91928 6.9393,-21.73502 9.93791,-25.95269 1.25,-1.75817 2.27273,-4.52768 2.27273,-6.15446 0,-1.79184 0.78493,-2.95778 1.99122,-2.95778 3.62059,0 14.80724,6.45569 17.00869,9.81553 1.19436,1.82283 2.9501,3.0001 3.91947,2.62812 0.97243,-0.37316 1.75594,0.15725 1.75594,1.1887 0,1.02438 1.75325,3.65606 3.89611,5.84817 2.14285,2.19211 3.8961,4.62235 3.8961,5.40053 0,0.77818 2.65959,3.75593 5.9102,6.61722 3.25059,2.8613 8.31457,8.77913 11.25328,13.15075 2.9387,4.37161 9.33756,12.18716 14.21968,17.36788 4.88211,5.18073 8.87658,10.05898 8.87658,10.84056 0,0.78158 3.68637,5.30904 8.19191,10.06102 4.50555,4.75198 10.2036,12.09772 12.66234,16.32388 4.11608,7.07486 19.56841,24.51163 22.69592,25.61061 0.73831,0.25944 4.14668,4.14226 7.57416,8.62851 3.42748,4.48625 7.64484,9.08269 9.37191,10.2143 4.72833,3.09813 3.81325,4.30357 -3.02871,3.98975 -10.76546,-0.49376 -7.99866,3.00272 6.53485,8.25826 4.28402,1.54917 8.35684,4.0095 9.48332,5.72874 2.74877,4.19514 4.23312,34.44499 3.16346,64.46818 -0.46754,13.12261 -0.69418,44.02163 -0.50367,68.66448 0.19052,24.64286 -0.30725,55.9091 -1.10616,69.48052 -0.79893,13.57143 -1.52368,28.55902 -1.61058,33.30574 -0.0949,5.18282 -0.86887,9.48697 -1.93753,10.77461 -2.65834,3.20311 -14.95658,10.07313 -26.68602,14.9073 -5.71429,2.35508 -11.26624,4.99891 -12.33767,5.87517 -1.07142,0.87626 -4.28571,2.76407 -7.14285,4.19512 -25.28839,12.66619 -36.44791,18.59383 -46.60544,24.75558 -6.50986,3.94902 -15.81463,9.11742 -20.67725,11.48535 -4.86261,2.36795 -11.84936,6.46656 -15.52611,9.10803 -11.55949,8.30468 -28.24445,17.87599 -46.81469,26.85521 -9.86434,4.76969 -19.77282,9.98067 -22.01884,11.57997 -3.68739,2.62566 -35.13247,19.23585 -36.41577,19.23585 -0.29311,0 -0.88928,-3.40939 -1.32482,-7.57643 l 0,0 z"
     id="path3777"
     inkscape:connector-curvature="0"
     transform="scale(0.8,0.8)" />
  <path
     style="color:#000000;fill:#cfcfcf;fill-opacity:1;fill-rule:nonzero;stroke:#c42836;stroke-width:0;stroke-linecap:square;stroke-linejoin:round;stroke-miterlimit:4;stroke-opacity:1;stroke-dasharray:none;stroke-dashoffset:0;marker:none;visibility:visible;display:inline;overflow:visible;enable-background:accumulate"
     d="m 559.07826,520.38528 c -10.35714,-5.62207 -26.72078,-14.64386 -36.36363,-20.04843 -9.64286,-5.40456 -25.90367,-13.64484 -36.13513,-18.31173 -10.23147,-4.66688 -23.38082,-11.35475 -29.22078,-14.86193 -11.61967,-6.97818 -24.84489,-13.76676 -35.9428,-18.44965 -3.92857,-1.6577 -11.55245,-6.0785 -16.94196,-9.82398 -5.38952,-3.74548 -13.57133,-8.43387 -18.18182,-10.41866 -8.59796,-3.70135 -23.42746,-11.66463 -24.60601,-13.21314 -2.80176,-3.6813 -19.019,-11.67756 -27.93254,-13.77275 -2.14286,-0.50371 -8.86364,-3.13629 -14.93507,-5.85021 -6.07143,-2.71391 -14.54545,-5.94256 -18.83117,-7.17477 -4.28571,-1.23222 -16.85065,-5.76888 -27.92208,-10.08149 -15.58257,-6.06981 -22.20373,-9.41548 -29.31041,-14.81052 -5.0493,-3.83318 -9.94785,-6.96942 -10.88567,-6.96942 -2.80866,0 -10.35896,-5.20369 -16.91788,-11.65987 -3.3902,-3.33709 -8.83807,-7.3244 -12.1064,-8.86069 -3.26833,-1.53629 -8.09936,-4.68709 -10.73563,-7.00176 l -4.79322,-4.20851 0.78139,-9.24376 c 0.42976,-5.08408 1.67006,-10.9479 2.75621,-13.03071 1.08616,-2.08279 1.97843,-4.77514 1.98283,-5.98298 0.004,-1.20785 0.52617,-2.51633 1.15948,-2.90774 0.63331,-0.39141 1.53232,-2.74169 1.99778,-5.22285 0.46547,-2.48114 3.17307,-8.18565 6.01689,-12.67667 2.84383,-4.49103 6.06706,-10.21095 7.16274,-12.71095 1.09567,-2.5 7.16651,-15.06494 13.49074,-27.92208 14.38265,-29.23988 18.23232,-38.44678 18.23232,-43.60456 0,-2.44919 1.29414,-5.61043 3.24676,-7.93098 1.78571,-2.1222 3.24675,-4.6306 3.24675,-5.57423 0,-0.94362 2.25343,-5.428 5.00762,-9.96529 2.75418,-4.53729 5.46922,-9.70879 6.0334,-11.49222 0.56418,-1.78343 2.78187,-6.45875 4.92819,-10.38961 5.13871,-9.4112 9.21448,-17.5058 12.42657,-24.67947 1.43923,-3.21429 4.03287,-8.47403 5.76364,-11.68831 1.73078,-3.21429 3.71013,-7.3052 4.39857,-9.09091 4.6331,-12.017623 11.88862,-23.376626 14.93174,-23.376626 0.58065,0 1.05572,1.461039 1.05572,3.246753 0,3.645203 0.38934,3.824819 4.04724,1.867167 2.14584,-1.148417 6.91313,0.81013 28.45048,11.688311 14.22999,7.187345 26.76532,13.067895 27.85632,13.067895 1.09099,0 1.98363,0.82896 1.98363,1.84213 0,1.01318 1.89935,2.97241 4.22078,4.35385 22.59852,13.448 30.10155,17.54357 34.22603,18.68239 2.64872,0.73135 13.52269,6.28102 24.16437,12.33261 28.25931,16.07017 42.00876,22.88951 52.97323,26.27319 5.35715,1.65324 13.53896,5.25904 18.18182,8.01289 12.2632,7.27377 19.33699,10.14153 38.91192,15.7752 9.61583,2.76744 18.38207,5.80856 19.48052,6.75803 1.09844,0.94947 8.13353,4.77117 15.63353,8.49265 7.5,3.72149 15.41852,8.1231 17.59671,9.78136 6.5985,5.02344 27.19948,15.03 32.56252,15.81665 9.52548,1.39721 28.73222,8.72126 44.64597,17.02472 5.35714,2.79523 10.59501,5.36459 11.63971,5.70967 1.59491,0.52682 1.34159,2.48659 -1.58005,12.2237 -1.91373,6.37796 -6.1685,21.18842 -9.45506,32.91213 -10.0877,35.98448 -15.3729,50.76222 -26.97982,75.43741 -3.19192,6.78571 -6.75352,15.55194 -7.91466,19.48051 -2.12822,7.20058 -6.11484,18.13176 -9.23591,25.32468 -0.92982,2.14286 -3.22213,10.22835 -5.09404,17.96777 -1.87191,7.7394 -7.40421,24.97966 -12.294,38.31168 -4.88979,13.33202 -9.62727,26.57769 -10.52773,29.43484 -1.76931,5.61396 -5.99108,14.58149 -8.10869,17.2238 -0.96496,1.20405 -1.7703,1.26059 -3.0327,0.21287 -2.02778,-1.68291 -4.43004,-0.53304 -4.43004,2.12049 0,1.02928 -0.43831,1.8675 -0.97402,1.86273 -0.53572,-0.005 -9.44806,-4.60856 -19.8052,-10.23062 l 0,0 z m 75.32468,-203.82907 c 0,-2.33444 -10.66611,-9.29976 -30.77086,-20.09443 -19.28934,-10.35683 -26.372,-13.0947 -26.372,-10.19433 0,1.97917 4.30767,4.93761 22.07792,15.16276 25.29611,14.55561 35.06494,18.76961 35.06494,15.126 l 0,0 z"
     id="path3785"
     inkscape:connector-curvature="0"
     transform="scale(0.8,0.8)" />
  <path
     style="color:#000000;fill:#ffa3a4;fill-opacity:1;fill-rule:nonzero;stroke:#c42836;stroke-width:0;stroke-linecap:square;stroke-linejoin:round;stroke-miterlimit:4;stroke-opacity:1;stroke-dasharray:none;stroke-dashoffset:0;marker:none;visibility:visible;display:inline;overflow:visible;enable-background:accumulate"
     d="m 570.76657,526.93371 c -12.95917,-6.6366 -42.07849,-22.49726 -49.49209,-26.95729 -4.00636,-2.41022 -19.20117,-10.24773 -33.76623,-17.41667 -14.56507,-7.16895 -37.58583,-18.87724 -51.15726,-26.01839 -13.57143,-7.14117 -25.55195,-13.37711 -26.62338,-13.85763 -1.07143,-0.48053 -4.57792,-2.74714 -7.79221,-5.03691 -3.21428,-2.28976 -12.56493,-7.38857 -20.77922,-11.33066 -8.21428,-3.9421 -17.96201,-9.4434 -21.66161,-12.22512 -3.69959,-2.7817 -11.00479,-6.67837 -16.23376,-8.65926 -5.22898,-1.98088 -13.89034,-5.37048 -19.24748,-7.53244 -5.35715,-2.16197 -17.62987,-6.70701 -27.27273,-10.10009 -24.09111,-8.47708 -44.61088,-16.84856 -45.7277,-18.65561 -0.51195,-0.82834 -1.09823,-1.23361 -1.30285,-0.90058 -0.20463,0.33302 -3.79442,-1.92276 -7.97731,-5.01285 -4.1829,-3.09009 -9.44744,-6.12698 -11.69899,-6.74867 -2.25155,-0.62168 -7.88762,-4.6344 -12.52461,-8.91717 -4.63698,-4.28278 -11.64516,-9.55178 -15.57374,-11.70891 -8.85255,-4.86083 -10.64783,-6.27797 -13.49402,-10.65175 -2.00305,-3.07812 -2.08235,-4.40657 -0.69774,-11.68831 1.58966,-8.36012 9.57993,-31.29724 12.1363,-34.83887 2.53135,-3.50698 5.02418,-8.19842 13.80146,-25.97403 20.11233,-40.7312 25.67521,-53.22948 26.78722,-60.18356 0.4609,-2.88232 2.20675,-7.25755 3.87966,-9.72273 1.67292,-2.46518 3.04167,-5.01224 3.04167,-5.66013 0,-0.64789 2.58825,-5.67997 5.75167,-11.1824 3.16342,-5.50244 5.93939,-10.78844 6.16883,-11.74669 0.22944,-0.95824 1.99625,-4.75694 3.92625,-8.44156 9.20391,-17.57141 24.41299,-48.957088 24.41299,-50.378988 0,-2.381338 10.26833,-17.684186 12.42035,-18.509994 1.2978,-0.498011 1.86536,0.220152 1.86536,2.360317 0,2.655646 0.62762,3.076124 4.59151,3.076124 2.52534,0 7.93118,1.651456 12.01299,3.669902 4.08182,2.018446 7.71369,3.699508 8.07083,3.735694 0.35714,0.03618 4.44995,2.211525 9.09512,4.834088 4.64518,2.622563 12.827,6.682837 18.18181,9.022827 5.35484,2.33998 10.45367,5.22667 11.33074,6.41485 2.08159,2.81992 29.54323,18.75262 36.6343,21.2545 3.02446,1.06709 17.27198,8.48793 31.66113,16.49075 23.01107,12.79807 44.32202,23.14882 47.66064,23.14882 0.61123,0 2.46431,0.5144 4.11795,1.14311 1.65365,0.62872 3.59104,1.26894 4.30532,1.42272 0.71429,0.15378 1.59091,0.6621 1.94805,1.12961 2.38806,3.126 26.88833,13.87399 41.94681,18.40158 13.30667,4.00088 22.66938,7.90045 36.36364,15.14544 10.14354,5.36649 19.31942,10.51741 20.39085,11.4465 4.96052,4.30154 28.14621,14.881 36.86296,16.8203 16.34606,3.63665 55.00734,21.51339 53.10513,24.55548 -0.51371,0.82153 -1.04107,2.19863 -1.17194,3.06021 -0.13086,0.86158 -1.1245,4.36807 -2.20807,7.7922 -1.08357,3.42415 -5.00205,17.03739 -8.70774,30.25168 -10.59471,37.78015 -13.86371,47.04839 -26.56783,75.32467 -9.57644,21.31483 -22.62607,59.41915 -27.28222,79.66286 -1.28256,5.57621 -19.23425,54.16836 -22.89612,61.97586 -3.74126,7.97678 -4.23761,8.48652 -7.76034,7.96948 -2.82536,-0.41466 -3.76344,-0.03 -3.76344,1.5431 0,2.80318 -0.76345,2.6692 -9.09091,-1.59541 z m 63.63637,-210.37898 c 0,-0.59556 -3.06819,-3.16822 -6.81819,-5.71701 -8.71581,-5.92395 -42.8798,-24.26057 -46.00357,-24.69119 -9.09996,-1.2545 5.31247,8.78575 34.29164,23.88884 13.96003,7.27554 18.53012,8.88343 18.53012,6.51936 z"
     id="path3787"
     inkscape:connector-curvature="0"
     transform="scale(0.8,0.8)" />
</svg>
