<?xml version="1.0" encoding="UTF-8" standalone="no"?>
<svg
   xmlns:dc="http://purl.org/dc/elements/1.1/"
   xmlns:cc="http://creativecommons.org/ns#"
   xmlns:rdf="http://www.w3.org/1999/02/22-rdf-syntax-ns#"
   xmlns:svg="http://www.w3.org/2000/svg"
   xmlns="http://www.w3.org/2000/svg"
   xmlns:sodipodi="http://sodipodi.sourceforge.net/DTD/sodipodi-0.dtd"
   xmlns:inkscape="http://www.inkscape.org/namespaces/inkscape"
   version="1.0"
   width="880"
   height="880"
   viewBox="0 0 704 704"
   preserveAspectRatio="xMidYMid meet"
   id="svg2"
   inkscape:version="0.48.4 r9939"
   sodipodi:docname="gabled.svg">
  <defs
     id="defs14" />
  <sodipodi:namedview
     pagecolor="#ffffff"
     bordercolor="#666666"
     borderopacity="1"
     objecttolerance="10"
     gridtolerance="10"
     guidetolerance="10"
     inkscape:pageopacity="0"
     inkscape:pageshadow="2"
     inkscape:window-width="1054"
     inkscape:window-height="880"
     id="namedview12"
     showgrid="false"
     inkscape:zoom="0.77"
     inkscape:cx="368.42891"
     inkscape:cy="437.31373"
     inkscape:window-x="667"
     inkscape:window-y="247"
     inkscape:window-maximized="0"
     inkscape:current-layer="svg2" />
  <metadata
     id="metadata4">
Created by potrace 1.14, written by Peter Selinger 2001-2017
<rdf:RDF>
  <cc:Work
     rdf:about="">
    <dc:format>image/svg+xml</dc:format>
    <dc:type
       rdf:resource="http://purl.org/dc/dcmitype/StillImage" />
    <dc:title />
  </cc:Work>
</rdf:RDF>
</metadata>
  <g
     id="g2990"
     transform="translate(-57.83138,-10.598443)">
    <g
       transform="translate(0,3)"
       style="fill:#cb3c32;fill-opacity:1"
       id="g2995">
      <g
         style="fill:#cb3c32;fill-opacity:1;stroke:none"
         transform="matrix(0.1,0,0,-0.1,0,701)"
         id="g6">
        <path
           inkscape:connector-curvature="0"
           style="fill:#cb3c32;fill-opacity:1"
           d="m 2335,6391 c -14,-24 -22,-47 -19,-52 3,-5 0,-9 -6,-9 -12,0 -31,-44 -33,-75 0,-11 -7,-28 -15,-37 -8,-10 -11,-18 -6,-18 5,0 1,-7 -9,-14 -10,-8 -18,-17 -18,-20 1,-3 1,-7 0,-8 0,-2 -2,-13 -5,-26 -5,-26 -45,-124 -54,-132 -3,-3 -11,-17 -17,-32 -9,-20 -9,-29 -1,-34 6,-4 8,-3 4,4 -3,6 4,20 16,31 12,12 18,21 14,21 -5,0 -3,7 4,15 7,8 10,15 6,15 -8,0 23,63 34,70 5,3 10,14 12,25 1,10 11,27 21,37 9,10 17,27 17,38 0,11 5,20 10,20 6,0 10,13 10,28 0,16 9,39 20,52 11,13 20,29 20,37 0,7 4,13 8,13 4,0 16,14 25,30 23,37 52,41 43,6 -8,-31 11,-44 31,-23 14,14 22,12 80,-19 36,-19 71,-34 79,-34 8,0 14,-4 14,-8 0,-5 26,-20 58,-35 31,-14 94,-46 138,-71 58,-31 85,-41 92,-34 8,8 9,5 6,-8 -5,-21 1,-26 105,-79 39,-20 77,-42 83,-48 24,-23 89,-57 109,-57 23,0 107,-41 165,-81 22,-15 76,-45 120,-67 43,-22 106,-56 138,-76 33,-20 63,-36 68,-36 4,0 36,-13 70,-29 35,-16 82,-32 105,-36 23,-3 53,-14 65,-24 79,-60 225,-126 313,-142 33,-6 83,-20 110,-31 28,-11 57,-21 64,-22 8,-2 17,-8 19,-14 2,-7 9,-12 15,-12 14,0 229,-108 237,-119 13,-18 78,-60 112,-70 20,-7 42,-19 48,-27 7,-7 19,-14 26,-14 8,0 36,-11 63,-24 32,-15 54,-20 64,-14 9,5 18,4 22,-2 3,-5 16,-10 29,-10 12,0 26,-4 32,-9 5,-5 27,-14 49,-21 54,-17 168,-69 175,-79 6,-10 94,-51 109,-51 16,0 23,-20 12,-34 -10,-12 -50,-147 -55,-186 -1,-8 -8,-28 -14,-43 -7,-16 -12,-37 -12,-49 0,-11 -6,-34 -14,-51 -14,-34 -30,-92 -48,-169 -6,-27 -15,-48 -19,-48 -5,0 -9,-13 -9,-29 0,-16 -7,-42 -15,-57 -8,-16 -15,-36 -15,-44 0,-8 -7,-24 -15,-34 -8,-11 -15,-26 -15,-34 0,-14 -16,-50 -101,-228 -21,-44 -41,-98 -45,-120 -3,-21 -13,-52 -21,-69 -29,-55 -32,-62 -38,-98 -4,-20 -13,-41 -21,-48 -8,-6 -12,-15 -9,-19 3,-5 -1,-28 -9,-52 -8,-24 -17,-54 -19,-68 -11,-58 -40,-158 -58,-197 -10,-23 -19,-46 -19,-51 0,-4 -9,-26 -20,-49 -10,-22 -21,-51 -23,-64 -3,-14 -17,-52 -31,-86 -14,-35 -26,-67 -26,-74 0,-24 -69,-169 -81,-169 -4,0 -11,5 -14,10 -11,18 -35,11 -35,-10 0,-11 -3,-20 -6,-20 -11,0 -123,59 -177,93 -30,20 -79,46 -109,58 -29,12 -60,28 -68,35 -8,7 -26,17 -40,23 -28,12 -50,25 -95,57 -35,25 -249,129 -285,139 -42,13 -163,76 -212,111 -25,19 -86,53 -135,75 -48,23 -110,52 -137,65 -27,13 -52,21 -56,19 -5,-3 -11,2 -14,11 -3,8 -10,13 -15,9 -6,-3 -14,1 -18,10 -13,22 -141,103 -183,115 -19,6 -49,18 -66,28 -17,9 -56,30 -87,46 -31,16 -54,33 -51,38 3,4 -1,8 -10,8 -8,0 -16,4 -18,8 -5,13 -74,52 -92,52 -9,0 -16,4 -16,8 0,4 -27,14 -60,20 -34,7 -95,31 -136,52 -41,22 -81,40 -89,40 -25,0 -203,60 -254,86 -27,13 -54,24 -61,24 -6,0 -41,13 -77,30 -35,16 -67,30 -70,30 -2,0 -28,20 -56,44 -61,51 -88,66 -117,66 -11,0 -23,7 -26,15 -4,8 -15,15 -25,15 -11,0 -19,7 -19,16 0,9 -9,18 -20,21 -11,3 -18,8 -16,12 2,3 -7,16 -20,29 -13,12 -24,20 -24,17 0,-3 -9,3 -20,13 -11,10 -39,25 -61,32 -22,8 -55,31 -75,52 -32,35 -34,42 -29,89 3,27 9,58 14,67 4,9 6,23 4,30 -3,6 1,12 7,12 7,0 10,7 6,15 -3,8 -1,15 4,15 5,0 7,6 4,14 -3,7 2,21 12,30 9,9 14,20 10,23 -3,4 1,17 9,30 9,13 13,28 10,33 -3,6 -1,10 5,10 6,0 8,5 5,10 -5,8 -11,7 -21,-1 -7,-6 -12,-14 -9,-18 2,-4 -2,-19 -10,-34 -7,-14 -11,-28 -7,-31 3,-3 0,-6 -6,-6 -7,0 -12,-8 -12,-19 0,-10 -7,-32 -15,-47 -8,-16 -15,-41 -15,-56 0,-16 -5,-28 -12,-28 -6,0 -9,-3 -5,-6 11,-12 -26,-39 -50,-36 -27,4 -32,-21 -7,-45 22,-22 14,-57 -14,-61 -27,-4 -41,-30 -22,-42 9,-6 10,-19 2,-55 -6,-29 -7,-59 -1,-79 19,-65 40,-450 29,-541 -10,-86 -4,-227 10,-235 6,-4 8,-14 4,-23 -3,-9 -2,-22 2,-29 4,-7 9,-19 9,-28 1,-8 5,-40 10,-70 4,-30 9,-203 11,-385 1,-181 6,-386 9,-455 5,-89 3,-137 -6,-165 -7,-22 -14,-41 -15,-43 -1,-2 -25,13 -53,34 -29,20 -54,34 -57,31 -17,-17 29,-74 108,-132 27,-20 27,-21 18,-90 -7,-54 -6,-73 4,-83 18,-18 54,3 62,36 4,12 10,22 15,22 5,0 13,9 17,19 7,19 8,19 52,1 25,-10 64,-23 87,-30 23,-7 53,-22 65,-34 31,-29 57,-41 116,-55 27,-7 65,-23 83,-37 18,-13 40,-24 50,-24 9,0 22,-6 28,-14 16,-19 120,-64 156,-68 17,-2 32,-5 35,-8 9,-9 97,-50 107,-50 5,0 24,-11 41,-24 18,-13 58,-31 90,-40 74,-22 150,-56 164,-74 16,-19 112,-66 102,-50 -9,16 22,-7 47,-34 9,-10 65,-38 125,-64 60,-25 121,-52 137,-60 15,-8 27,-12 27,-7 0,4 4,3 8,-2 7,-10 47,-31 117,-60 55,-24 129,-59 135,-65 3,-3 16,-11 30,-19 206,-118 290,-168 315,-186 46,-34 212,-117 240,-120 6,0 20,-6 32,-13 12,-7 27,-12 33,-12 13,0 168,-76 220,-108 19,-12 40,-22 47,-22 6,0 40,-27 75,-61 35,-33 75,-63 90,-66 15,-3 33,-12 40,-21 11,-13 11,-15 -2,-8 -8,4 -5,-2 8,-13 13,-11 30,-17 37,-14 8,3 15,0 15,-6 0,-6 7,-11 15,-11 8,0 15,-4 15,-8 0,-11 49,-34 60,-27 4,3 10,-4 13,-15 3,-11 1,-23 -4,-26 -13,-7 9,-34 27,-34 7,0 17,7 21,15 7,11 18,14 42,9 31,-6 32,-9 29,-47 -2,-29 2,-43 14,-51 27,-17 42,7 43,67 1,39 5,51 16,49 8,-1 3,7 -11,18 -25,20 -25,20 -5,36 37,28 249,150 355,204 58,29 122,64 142,77 21,12 44,23 52,23 7,0 19,6 25,14 7,8 26,18 42,21 16,4 32,11 35,17 3,5 25,18 48,29 22,11 68,40 101,64 33,25 103,67 155,94 107,53 163,85 200,111 14,10 68,39 120,64 52,25 115,58 140,72 115,68 180,102 275,144 28,12 73,32 100,45 70,33 95,39 96,23 2,-28 -3,-63 -12,-74 -11,-13 9,-34 32,-34 21,0 28,17 19,50 -7,30 -5,104 5,119 3,6 13,11 22,11 8,0 27,9 43,20 23,17 43,24 80,29 3,1 6,12 6,26 2,34 -16,32 -92,-7 -61,-31 -89,-33 -65,-5 13,17 14,43 3,122 -5,33 -7,83 -5,110 4,50 4,343 -1,525 -1,52 2,100 7,107 10,14 11,123 1,193 -6,52 -7,161 -2,532 4,290 7,304 52,274 38,-25 66,-21 66,9 0,15 -6,25 -14,25 -8,0 -36,20 -63,45 -33,31 -57,45 -75,45 -16,0 -28,5 -28,11 0,6 -33,46 -73,88 -40,42 -80,88 -89,102 -9,14 -46,49 -81,78 -39,32 -80,77 -102,113 -20,32 -48,70 -61,83 -14,14 -22,30 -19,35 3,6 -1,13 -9,16 -9,3 -14,10 -11,14 3,5 -8,18 -25,30 -16,12 -30,26 -30,32 0,5 -13,24 -30,41 -16,18 -44,49 -61,70 -18,22 -44,43 -57,48 -14,5 -22,12 -19,15 3,3 -8,19 -24,35 -16,15 -29,31 -29,34 0,4 -7,13 -15,21 -8,9 -15,24 -15,34 0,13 -5,17 -15,14 -11,-5 -13,-2 -9,10 3,9 1,16 -6,16 -6,0 -9,4 -6,8 3,5 -30,42 -73,83 -43,42 -88,90 -101,107 -13,17 -28,28 -33,25 -6,-3 -7,-1 -3,6 9,13 -27,61 -57,78 -12,6 -29,24 -37,39 -9,15 -25,33 -37,41 -20,13 -24,12 -43,-10 l -21,-24 -59,28 c -32,16 -61,33 -65,39 -3,5 -13,10 -21,10 -8,0 -56,20 -107,45 -50,24 -128,53 -172,64 -44,10 -98,26 -120,34 -54,21 -185,89 -237,124 -24,16 -74,44 -113,62 -38,19 -105,51 -148,72 -43,21 -104,43 -136,49 -83,15 -192,54 -259,91 -31,18 -59,35 -62,38 -15,17 -130,57 -157,54 -7,0 -11,3 -8,7 4,7 -59,34 -75,33 -8,-1 -84,39 -100,52 -26,23 -131,77 -137,71 -3,-3 -17,4 -31,14 -13,11 -29,20 -33,20 -5,0 -31,15 -57,33 -71,48 -103,64 -147,72 -22,4 -62,23 -89,42 -51,36 -154,93 -169,93 -5,0 -16,9 -25,20 -10,11 -46,34 -82,53 -36,18 -85,46 -110,63 -25,17 -56,34 -70,37 -14,4 -49,22 -78,42 -30,19 -58,35 -63,35 -5,0 -9,6 -9,14 0,17 -92,47 -133,43 -22,-1 -34,-12 -52,-46 z M 5558,4891 c 15,-10 37,-22 50,-25 12,-4 22,-10 22,-14 0,-4 12,-20 26,-37 14,-16 23,-25 20,-18 -4,6 -2,15 4,18 6,4 10,3 9,-2 -4,-17 21,-63 35,-63 13,0 29,-28 31,-53 0,-4 14,-16 32,-26 31,-19 104,-110 129,-161 17,-33 72,-92 106,-113 14,-9 38,-41 53,-72 15,-30 31,-55 36,-55 18,0 109,-101 115,-127 4,-16 12,-33 20,-39 7,-6 14,-16 16,-23 2,-7 14,-26 28,-42 74,-85 96,-109 103,-109 12,0 62,-40 51,-40 -5,0 -1,-5 9,-11 9,-5 17,-15 17,-22 1,-13 74,-97 85,-97 8,0 35,-27 35,-35 0,-8 -73,-3 -85,6 -6,4 -17,4 -25,-1 -23,-14 3,-34 75,-58 124,-42 118,-35 132,-174 11,-120 10,-339 -2,-508 -8,-110 -8,-121 1,-275 11,-181 7,-325 -8,-341 -4,-3 -3,-18 1,-32 9,-34 7,-354 -4,-441 -4,-36 -9,-83 -10,-105 -1,-23 -6,-54 -10,-69 -5,-20 -3,-33 9,-46 16,-18 15,-20 -26,-52 -24,-18 -45,-37 -48,-40 -3,-4 -17,-10 -32,-14 -15,-4 -32,-13 -39,-21 -6,-8 -20,-14 -30,-14 -11,0 -19,-4 -19,-10 0,-5 -11,-10 -24,-10 -14,0 -27,-4 -31,-9 -3,-5 -18,-12 -34,-16 -16,-3 -37,-15 -47,-26 -9,-10 -24,-19 -32,-19 -7,0 -26,-9 -41,-19 -33,-24 -222,-121 -235,-121 -5,0 -39,-20 -75,-44 -81,-53 -210,-126 -224,-126 -20,0 -105,-54 -174,-110 -7,-6 -14,-10 -17,-10 -2,0 -32,-18 -65,-40 -33,-22 -64,-40 -69,-40 -5,0 -15,-7 -22,-15 -6,-8 -15,-14 -18,-13 -9,2 -42,-10 -67,-25 -11,-6 -73,-37 -137,-68 -64,-32 -121,-66 -127,-76 -6,-10 -11,-15 -11,-10 0,4 -21,-4 -47,-18 -49,-26 -55,-29 -108,-59 -58,-33 -95,-50 -99,-45 -7,8 -28,244 -32,369 -2,69 -9,148 -15,175 -6,28 -13,160 -15,295 -2,135 -8,286 -13,335 -5,50 -9,116 -7,148 1,31 -1,57 -5,57 -11,0 -7,612 4,638 6,12 22,25 36,29 14,3 32,10 39,16 19,15 14,48 -8,54 -16,4 -20,12 -18,37 2,17 5,33 8,36 15,14 65,164 63,188 0,6 4,12 9,12 6,0 8,7 4,15 -3,8 -1,15 4,15 6,0 10,9 10,21 0,11 9,40 20,64 11,24 22,54 24,67 3,13 5,24 7,26 1,1 2,5 3,10 4,27 31,92 37,92 4,0 11,15 14,33 4,17 11,37 16,43 5,6 10,19 12,30 1,10 6,25 11,32 4,7 6,16 3,19 -3,2 1,22 8,44 8,22 12,46 9,54 -4,8 -1,15 5,15 6,0 8,6 6,13 -6,16 20,89 28,80 4,-3 8,-1 8,5 3,22 5,27 22,53 10,15 17,31 16,35 -4,17 13,64 23,64 6,0 8,6 5,14 -3,8 -2,16 2,18 4,2 20,41 35,88 16,47 35,93 43,102 8,9 12,22 8,27 -3,6 -1,11 4,11 6,0 11,7 11,15 0,8 5,15 10,15 6,0 10,7 10,15 0,8 5,15 11,15 5,0 8,4 5,9 -4,5 -1,22 6,38 6,15 10,34 9,41 -1,6 3,12 9,12 5,0 10,8 10,18 0,9 7,30 15,46 8,15 12,32 9,37 -3,5 0,9 5,9 6,0 11,14 11,31 0,17 6,37 14,44 8,8 17,37 21,65 4,27 11,50 17,50 6,0 8,7 4,15 -3,8 -1,15 5,15 5,0 7,11 3,25 -4,16 -2,25 6,25 7,0 9,8 5,21 -4,12 -1,27 8,37 8,9 18,28 21,42 20,74 31,100 43,100 7,0 14,10 15,23 0,12 2,27 3,32 2,6 3,13 4,18 2,14 43,7 69,-12 z M 1488,4350 c 7,-12 17,-18 22,-15 5,3 12,-1 17,-9 8,-15 103,-66 121,-66 6,0 40,-28 75,-63 35,-34 86,-73 113,-87 46,-23 113,-67 124,-81 8,-10 71,-44 105,-57 17,-6 55,-20 85,-32 77,-30 162,-61 180,-65 8,-2 37,-8 64,-15 52,-12 153,-56 173,-76 15,-14 53,-27 133,-43 56,-12 98,-34 233,-127 41,-29 97,-59 124,-69 26,-9 60,-23 76,-32 15,-8 27,-11 27,-6 0,4 4,4 8,-2 4,-5 34,-28 67,-50 33,-22 65,-45 70,-51 6,-7 28,-17 50,-24 22,-7 46,-19 53,-26 7,-8 25,-17 40,-20 40,-9 136,-56 145,-71 4,-7 14,-13 22,-13 7,0 15,-3 17,-7 4,-10 75,-63 83,-63 11,0 79,-32 95,-45 8,-7 33,-18 55,-25 57,-17 285,-131 319,-159 9,-7 16,-10 16,-7 0,4 12,-5 27,-19 15,-14 35,-25 44,-25 9,0 19,-6 22,-13 3,-8 32,-24 66,-36 33,-12 67,-28 75,-36 8,-8 19,-15 25,-15 6,0 11,-4 11,-8 0,-5 36,-26 80,-46 44,-21 83,-43 87,-49 4,-6 8,-142 10,-302 4,-374 10,-551 24,-648 5,-43 9,-126 8,-185 -4,-209 3,-352 19,-432 6,-25 11,-89 11,-143 1,-53 6,-131 10,-173 5,-41 7,-94 4,-118 -2,-23 1,-54 6,-69 9,-22 7,-29 -12,-42 -31,-22 -57,-19 -118,15 -30,16 -61,30 -69,30 -8,0 -41,21 -73,46 -32,25 -67,46 -77,47 -10,1 -17,4 -14,8 2,4 -4,10 -15,14 -11,3 -22,12 -25,20 -3,8 -12,15 -20,15 -7,0 -16,6 -19,13 -6,16 -228,139 -283,157 -21,7 -43,16 -49,20 -21,16 -157,70 -165,65 -4,-3 -13,2 -20,10 -7,8 -17,15 -22,15 -4,0 -38,23 -74,51 -37,28 -72,52 -79,53 -6,1 -24,9 -38,19 -15,9 -29,17 -32,17 -3,0 -33,17 -68,37 -34,21 -94,54 -132,73 -39,19 -72,38 -75,41 -3,3 -23,12 -45,19 -22,7 -65,26 -95,43 -90,50 -143,74 -180,82 -19,4 -47,16 -62,26 -14,11 -30,19 -35,19 -6,0 -18,10 -29,21 -10,12 -53,37 -94,56 -40,18 -88,44 -105,57 -16,12 -52,29 -80,36 -51,14 -107,37 -230,95 -38,18 -88,38 -110,45 -22,7 -92,39 -155,71 -63,32 -134,64 -157,71 -24,7 -43,16 -43,19 0,4 -12,10 -27,14 -16,3 -35,13 -44,21 -8,7 -44,24 -80,37 -35,13 -90,40 -121,61 l -58,37 -2,177 c -4,471 -16,866 -27,937 -5,33 -17,96 -25,140 -12,61 -15,140 -14,330 1,236 -3,332 -15,351 -2,5 -5,34 -5,66 0,42 5,61 19,77 20,22 24,37 11,43 -5,2 -12,15 -15,30 -6,22 -3,27 15,31 13,2 25,5 28,6 3,0 11,-8 18,-19 z"
           id="path8" />
        <path
           inkscape:connector-curvature="0"
           style="fill:#cb3c32;fill-opacity:1"
           d="m 4620,4716 c 0,-9 24,-28 58,-46 31,-17 85,-48 120,-70 34,-21 91,-53 125,-71 34,-17 74,-37 89,-45 30,-16 68,-19 68,-4 0,5 -16,17 -35,26 -20,9 -40,25 -45,35 -6,9 -27,23 -47,29 -21,7 -45,18 -53,26 -8,7 -26,17 -40,23 -14,6 -32,15 -40,21 -8,5 -31,16 -50,24 -19,9 -46,25 -60,36 -35,28 -90,38 -90,16 z"
           id="path10" />
      </g>
      <path
         style="color:#000000;fill:#cb3c32;fill-opacity:1;fill-rule:nonzero;stroke:#c42836;stroke-width:0;stroke-linecap:square;stroke-linejoin:round;stroke-miterlimit:4;stroke-opacity:1;stroke-dasharray:none;stroke-dashoffset:0;marker:none;visibility:visible;display:inline;overflow:visible;enable-background:accumulate"
         id="path2993"
         d="m 196.47476,281.527 c 0.49212,-0.96581 1.21476,-1.78716 1.91343,-2.60743 0.43786,-0.50807 0.8391,-1.03868 1.21156,-1.59581 0.27019,-0.4267 0.30651,-0.93616 0.43874,-1.41247 0.22257,-0.49903 0.51387,-0.92109 0.68251,-1.446 0.61282,-1.78375 1.6973,-3.34201 2.79827,-4.85349 0.9339,-1.35652 2.09507,-2.53002 3.0737,-3.85049 0.72137,-0.93608 0.86854,-2.06423 1.12301,-3.18276 0.74014,-2.88178 2.0862,-5.55637 3.39158,-8.21416 1.20473,-2.30069 2.37914,-4.61833 3.61821,-6.90089 0.68715,-0.97444 1.14979,-2.05402 1.64786,-3.12645 1.16565,-2.45153 2.39942,-4.8683 3.61129,-7.29707 1.27254,-2.65134 2.54544,-5.30248 3.82204,-7.95199 0.60206,-1.14637 1.16289,-2.31744 1.44758,-3.58547 0.32924,-1.56507 1.27904,-2.90789 2.09367,-4.25423 1.42205,-2.34964 2.9151,-4.65824 4.24561,-7.06177 0.74424,-1.32338 1.34741,-2.62461 1.46064,-4.14977 -0.0932,-1.72492 0.88179,-3.22638 1.64153,-4.70617 0.99386,-1.84907 2.02797,-3.68692 2.74438,-5.66697 0.45073,-1.24574 0.53481,-1.69939 0.85688,-2.96233 0.42479,-1.95514 0.72967,-3.81694 0.46817,-5.80912 -0.351,-1.61633 -0.26645,-1.9327 0.66126,-3.3543 1.17062,-1.7181 2.78097,-3.05529 4.13813,-4.61387 0.78651,-1.01913 1.27393,-2.17282 1.32051,-3.45868 -0.30829,-1.46884 0.27734,-2.35148 0.99334,-3.62115 1.32996,-2.2808 2.93243,-4.38367 4.35978,-6.60259 0.91435,-1.24513 1.31002,-2.699 1.7623,-4.14341 0.50121,-1.39296 1.60584,-2.43392 2.50257,-3.57619 1.21846,-1.65666 1.9798,-3.55889 2.48185,-5.53815 0.28877,-0.90784 0.2037,-1.89271 0.45221,-2.80596 0.14959,-0.54974 0.28202,-0.72288 0.55391,-1.22455 0.16435,-0.23788 0.31978,-0.48219 0.49306,-0.71364 1.43782,-1.9205 -0.14319,0.32384 1.35838,-1.74412 0.66044,-0.90956 1.2051,-1.83445 1.70288,-2.83958 0.65358,-1.3269 0.7003,-2.82789 1.30473,-4.16643 0.095,-0.164 0.17497,-0.33769 0.28502,-0.492 0.33095,-0.46402 0.67585,-0.7656 1.07388,-1.17825 0.62986,-0.65299 1.23683,-1.32259 1.83058,-2.00831 0.7073,-0.82181 1.27685,-1.72826 1.53524,-2.78496 0.15089,-0.62045 0.0782,-1.22596 -0.0328,-1.84252 -0.0869,-0.35828 -0.0781,-0.71234 0.002,-1.06843 0,0 1.89398,-0.89716 1.89398,-0.89716 l 0,0 c -0.12274,0.31921 -0.12943,0.64953 -0.052,0.98418 0.11692,0.642 0.2134,1.27095 0.0661,1.92066 -0.23953,1.09798 -0.80287,2.0423 -1.53317,2.89356 -0.59093,0.68907 -1.19371,1.36782 -1.82426,2.02129 -0.30237,0.31336 -0.79577,0.76167 -1.07009,1.12192 -0.11204,0.14714 -0.19316,0.31543 -0.28974,0.47314 -0.20937,0.41684 -0.29512,0.54291 -0.42956,1.00531 -0.30793,1.05911 -0.39442,2.18574 -0.91501,3.18157 -0.493,1.01959 -1.03637,1.95513 -1.69581,2.87871 -1.08738,1.52292 -0.2753,0.32904 -1.33797,1.72725 -0.17029,0.22405 -0.32497,0.45955 -0.48746,0.68933 -0.25512,0.43671 -0.43104,0.67624 -0.57749,1.16148 -0.27593,0.91425 -0.17325,1.91727 -0.47321,2.82945 -0.49289,1.99716 -1.24868,3.91833 -2.43903,5.61145 -0.87108,1.13634 -1.9715,2.1502 -2.50846,3.50035 -0.495,1.49816 -0.82086,2.90062 -1.78954,4.21433 -1.42938,2.21491 -3.03313,4.31395 -4.36348,6.59167 -0.69708,1.22522 -1.29266,2.0834 -0.98052,3.50512 -0.0321,1.36052 -0.49194,2.50071 -1.29609,3.60199 -1.34151,1.56726 -2.96635,2.88223 -4.14489,4.58875 -0.93681,1.3874 -1.04027,1.60084 -0.70671,3.21405 0.0639,0.51786 0.12075,0.86337 0.12189,1.39737 0.003,1.52185 -0.34286,3.0269 -0.62237,4.5131 -0.32252,1.2676 -0.41246,1.73885 -0.85686,2.99053 -0.70424,1.98349 -1.72244,3.82683 -2.71673,5.67491 -0.54767,1.07604 -1.39852,2.46489 -1.58859,3.67743 -0.0265,0.16935 -0.0207,0.74993 -0.0208,0.92302 -0.10813,1.59419 -0.68473,2.87335 -1.47269,4.25394 -1.33662,2.4043 -2.84115,4.71023 -4.2508,7.07176 -0.78963,1.32156 -1.71429,2.63939 -2.05576,4.16342 -0.27773,1.29684 -0.84796,2.49347 -1.47962,3.65411 -1.30353,2.65373 -2.60551,5.30789 -3.87556,7.97778 -1.18537,2.41154 -2.40767,4.80362 -3.5197,7.25052 -0.22047,0.46812 -0.38533,0.96594 -0.61938,1.4266 -0.30523,0.60075 -0.72035,1.13967 -1.05191,1.7248 -1.26388,2.28387 -2.46126,4.60452 -3.67364,6.91586 -1.29014,2.63647 -2.64843,5.28225 -3.36111,8.14574 -0.22882,1.13953 -0.34035,2.28885 -1.06033,3.24897 -0.97265,1.34098 -2.16536,2.50159 -3.10979,3.86628 -1.09515,1.4788 -2.17378,3.01066 -2.77802,4.76553 -0.03,0.11441 -0.13896,0.56827 -0.20785,0.71471 -0.11999,0.25509 -0.38216,0.43899 -0.45999,0.72271 -0.1423,0.49103 -0.1849,1.0074 -0.41409,1.4695 -0.3606,0.57854 -0.77938,1.10847 -1.21823,1.62973 -0.6969,0.8034 -1.43035,1.60512 -1.92121,2.5549 0,0 -1.90152,0.86031 -1.90152,0.86031 z"
         inkscape:connector-curvature="0"
         transform="scale(0.8,0.8)" />
    </g>
    <path
       inkscape:connector-curvature="0"
       id="path3769"
       d="m 459.21066,643.4386 c -7.12768,-3.15507 -19.81146,-11.0147 -30.12987,-18.67024 -9.61112,-7.1308 -35.27648,-19.99502 -49.08666,-24.60366 -1.8548,-0.61898 -6.3316,-3.23708 -9.94846,-5.81801 -5.71603,-4.07887 -45.58957,-26.58729 -47.09924,-26.58729 -0.30497,0 -5.77029,-2.53978 -12.14514,-5.64394 -6.37485,-3.10418 -14.28555,-6.64674 -17.57935,-7.87236 -3.2938,-1.22562 -8.25452,-3.75317 -11.02384,-5.61679 -7.55612,-5.0849 -24.00093,-13.75016 -30.90732,-16.28598 -8.66057,-3.17991 -45.96791,-19.5 -66.88532,-29.25898 -3.71428,-1.73289 -10.96104,-5.10737 -16.10389,-7.49885 -5.14286,-2.39148 -11.24533,-5.54512 -13.56106,-7.00809 l -4.21041,-2.65995 -1.21488,-53.88272 c -1.02392,-45.41292 -1.54608,-55.8425 -3.32182,-66.35026 -1.50902,-8.92952 -2.10699,-17.18354 -2.10717,-29.08616 -1.3e-4,-9.14025 -0.52283,-25.38504 -1.16155,-36.09954 -1.06049,-17.78961 -1.00787,-19.71508 0.60598,-22.17814 1.49252,-2.27786 1.56899,-3.17598 0.49184,-5.77644 -0.9112,-2.19984 -0.95585,-3.39882 -0.15634,-4.19834 1.37753,-1.37752 1.74264,-1.20518 13.1505,6.2075 2.82616,1.8364 5.72104,3.33891 6.43305,3.33891 0.71202,0 4.0101,2.39216 7.32907,5.31592 6.36193,5.60438 26.01126,18.9455 33.04747,22.43793 4.17831,2.07392 24.90383,9.5473 38.44155,13.86159 4,1.27475 10.23363,3.88731 13.85252,5.80569 3.61889,1.91838 7.25702,3.48796 8.08473,3.48796 4.24493,0 14.98801,4.93455 25.81745,11.85856 6.66971,4.26441 15.48459,9.03786 19.58862,10.60769 4.10403,1.56982 10.50084,5.04988 14.21513,7.73346 7.15795,5.17163 15.27906,9.52921 25.49789,13.68149 3.4275,1.39271 9.96276,5.07438 14.5228,8.18146 4.56004,3.10708 12.26502,7.45419 17.12216,9.66023 21.54658,9.78618 28.40913,13.25304 42.00932,21.2225 7.96228,4.66575 14.97527,8.48633 15.58442,8.49019 0.60916,0.004 4.23555,1.99085 8.05865,4.41558 3.8231,2.42472 9.26217,5.66376 12.08681,7.19787 l 5.13572,2.7893 0.61251,32.01589 c 0.33689,17.60876 1.12169,39.96396 1.74405,49.67825 0.62233,9.71429 1.34193,27.24675 1.5991,38.96104 0.25718,11.71428 0.97072,26.44155 1.58566,32.72727 0.61493,6.28572 1.69986,21.24676 2.41093,33.24676 1.66559,28.10804 1.5382,28.3361 -12.38561,22.1727 l 0,0 z"
       style="color:#000000;fill:#e8e8e8;fill-opacity:1;fill-rule:nonzero;stroke:#c42836;stroke-width:0;stroke-linecap:square;stroke-linejoin:round;stroke-miterlimit:4;stroke-opacity:1;stroke-dasharray:none;stroke-dashoffset:0;marker:none;visibility:visible;display:inline;overflow:visible;enable-background:accumulate" />
    <path
       inkscape:connector-curvature="0"
       id="path3777"
       d="m 476.01602,636.50346 c -0.34844,-3.33363 -1.12278,-13.73623 -1.72077,-23.11689 -0.59799,-9.38065 -1.33804,-18.45834 -1.64455,-20.17263 -2.0338,-11.37507 -5.74096,-144.43886 -4.19561,-150.59602 0.47169,-1.87939 1.88713,-3.28382 4.34425,-4.31046 4.67296,-1.95249 5.43904,-4.05916 2.58202,-7.10033 l -2.27401,-2.42057 4.28547,-12.85124 c 2.357,-7.06819 4.69842,-13.7863 5.20316,-14.92917 0.50472,-1.14285 2.61964,-7.45454 4.6998,-14.02597 2.08016,-6.57143 4.13512,-12.41558 4.5666,-12.98701 1.82401,-2.41569 6.35496,-16.64661 6.97222,-21.89858 0.36796,-3.13077 1.07063,-5.94053 1.5615,-6.24389 0.49087,-0.30338 0.89248,-1.8932 0.89248,-3.53295 0,-1.63974 0.58442,-3.59917 1.29871,-4.35426 1.75687,-1.85727 5.97402,-10.9236 5.97402,-12.84338 0,-0.84961 0.45713,-2.35658 1.01584,-3.34883 0.55871,-0.99226 3.42249,-7.99889 6.36395,-15.57032 2.94148,-7.57143 5.75708,-13.76623 6.2569,-13.76623 0.49982,0 0.90877,-0.70131 0.90877,-1.55844 0,-0.85715 0.46753,-1.55845 1.03896,-1.55845 0.57142,0 1.04184,-1.28571 1.04536,-2.85714 0.003,-1.57143 0.65365,-4.09766 1.44472,-5.61385 0.79108,-1.51619 1.9896,-4.55515 2.66339,-6.75324 0.67378,-2.19811 1.61794,-4.93161 2.09811,-6.07447 1.48013,-3.52284 6.54177,-20.4655 7.91497,-26.49351 1.62547,-7.13542 5.55144,-17.38801 7.95033,-20.76215 1,-1.40654 1.81818,-3.62214 1.81818,-4.92357 0,-1.43347 0.62795,-2.36622 1.59298,-2.36622 2.89647,0 11.84579,5.16455 13.60695,7.85242 0.95549,1.45827 2.36008,2.40008 3.13558,2.1025 0.77794,-0.29853 1.40475,0.1258 1.40475,0.95096 0,0.8195 1.4026,2.92485 3.11689,4.67853 1.71428,1.75369 3.11688,3.69788 3.11688,4.32043 0,0.62254 2.12767,3.00474 4.72816,5.29377 2.60047,2.28904 6.65165,7.02331 9.00262,10.5206 2.35096,3.49729 7.47005,9.74973 11.37574,13.89431 3.90569,4.14458 7.10127,8.04718 7.10127,8.67245 0,0.62526 2.94909,4.24723 6.55353,8.04881 3.60444,3.80159 8.16288,9.67818 10.12987,13.05911 3.29286,5.65988 15.65473,19.6093 18.15673,20.48848 0.59065,0.20756 3.31735,3.31381 6.05933,6.90281 2.74199,3.589 6.11587,7.26615 7.49753,8.17144 3.78266,2.47851 3.0506,3.44286 -2.42297,3.1918 -8.61237,-0.39501 -6.39893,2.40218 5.22788,6.60661 3.42722,1.23934 6.68547,3.2076 7.58666,4.58299 2.19901,3.35611 3.38649,27.55599 2.53077,51.57455 -0.37404,10.49808 -0.55535,35.2173 -0.40294,54.93158 0.15242,19.71429 -0.2458,44.72728 -0.88493,55.58442 -0.63914,10.85714 -1.21894,22.84721 -1.28846,26.64459 -0.0759,4.14625 -0.6951,7.58957 -1.55003,8.61969 -2.12667,2.56248 -11.96526,8.0585 -21.34881,11.92584 -4.57143,1.88406 -9.01299,3.99912 -9.87014,4.70013 -0.85713,0.70101 -3.42857,2.21126 -5.71428,3.3561 -20.23071,10.13295 -29.15833,14.87506 -37.28435,19.80446 -5.20789,3.15922 -12.6517,7.29394 -16.5418,9.18828 -3.89009,1.89436 -9.47949,5.17325 -12.42089,7.28643 -9.24759,6.64374 -22.59556,14.30079 -37.45175,21.48416 -7.89147,3.81576 -15.81826,7.98454 -17.61507,9.26398 -2.94991,2.10053 -28.10598,15.38868 -29.13262,15.38868 -0.23449,0 -0.71142,-2.72751 -1.05985,-6.06114 l 0,0 z"
       style="color:#000000;fill:#cfcfcf;fill-opacity:1;fill-rule:nonzero;stroke:#c42836;stroke-width:0;stroke-linecap:square;stroke-linejoin:round;stroke-miterlimit:4;stroke-opacity:1;stroke-dasharray:none;stroke-dashoffset:0;marker:none;visibility:visible;display:inline;overflow:visible;enable-background:accumulate" />
    <path
       inkscape:connector-curvature="0"
       id="path3785"
       d="m 447.26261,419.30822 c -8.28571,-4.49765 -21.37663,-11.71508 -29.09091,-16.03874 -7.71428,-4.32365 -20.72293,-10.91587 -28.9081,-14.64938 -8.18518,-3.73351 -18.70466,-9.0838 -23.37662,-11.88955 -9.29574,-5.58254 -19.87592,-11.01341 -28.75424,-14.75972 -3.14286,-1.32616 -9.24196,-4.8628 -13.55357,-7.85918 -4.31162,-2.99639 -10.85707,-6.7471 -14.54546,-8.33493 -6.87837,-2.96108 -18.74197,-9.3317 -19.68481,-10.57051 -2.2414,-2.94504 -15.2152,-9.34205 -22.34603,-11.0182 -1.71429,-0.40297 -7.09091,-2.50903 -11.94805,-4.68017 -4.85715,-2.17113 -11.63636,-4.75405 -15.06494,-5.73982 -3.42857,-0.98577 -13.48052,-4.6151 -22.33766,-8.06519 -12.46606,-4.85585 -17.76299,-7.53238 -23.44833,-11.84841 -4.03944,-3.06655 -7.95828,-5.57554 -8.70854,-5.57554 -2.24693,0 -8.28717,-4.16295 -13.5343,-9.3279 -2.71216,-2.66967 -7.07046,-5.85952 -9.68512,-7.08855 -2.61467,-1.22903 -6.47949,-3.74967 -8.58851,-5.60141 l -3.83457,-3.3668 0.62511,-7.39501 c 0.34381,-4.06727 1.33605,-8.75832 2.20497,-10.42457 0.86893,-1.66623 1.58274,-3.82011 1.58626,-4.78638 0.003,-0.96628 0.42094,-2.01307 0.92759,-2.3262 0.50664,-0.31312 1.22585,-2.19335 1.59822,-4.17828 0.37238,-1.98491 2.53846,-6.54852 4.81351,-10.14133 2.27507,-3.59283 4.85365,-8.16876 5.73019,-10.16876 0.87654,-2 5.73321,-12.05195 10.7926,-22.33767 11.50612,-23.3919 14.58585,-30.75742 14.58585,-34.88364 0,-1.95936 1.03531,-4.48835 2.59741,-6.34479 1.42857,-1.69776 2.5974,-3.70448 2.5974,-4.45938 0,-0.7549 1.80274,-4.3424 4.0061,-7.97223 2.20334,-3.62984 4.37537,-7.76704 4.82672,-9.19378 0.45134,-1.42674 2.22549,-5.167 3.94255,-8.31169 4.11097,-7.52896 7.37158,-14.00464 9.94125,-19.74357 1.15139,-2.571436 3.2263,-6.779228 4.61092,-9.350652 1.38462,-2.571432 2.9681,-5.84416 3.51885,-7.272728 3.70648,-9.614098 9.5109,-18.701301 11.94539,-18.701301 0.46452,0 0.84458,1.168831 0.84458,2.597403 0,2.916162 0.31147,3.059855 3.23779,1.493733 1.71667,-0.918733 5.53051,0.648104 22.76039,9.350649 11.38399,5.749876 21.41225,10.454316 22.28505,10.454316 0.87279,0 1.58691,0.663168 1.58691,1.473704 0,0.810544 1.51948,2.377928 3.37662,3.48308 18.07882,10.758396 24.08124,14.034856 27.38082,14.945916 2.11898,0.58508 10.81816,5.02481 19.3315,9.86608 22.60745,12.85614 33.60701,18.31161 42.37858,21.01856 4.28572,1.32259 10.83117,4.20723 14.54546,6.41031 9.81056,5.81901 15.46959,8.11322 31.12954,12.62016 7.69266,2.21395 14.70565,4.64685 15.58441,5.40642 0.87875,0.75958 6.50683,3.81694 12.50683,6.79412 6,2.97719 12.33481,6.49848 14.07736,7.82509 5.2788,4.01875 21.75959,12.024 26.05002,12.65332 7.62038,1.11777 22.98578,6.97701 35.71678,13.61978 4.28571,2.23618 8.476,4.29167 9.31176,4.56773 1.27593,0.42146 1.07328,1.98927 -1.26404,9.77896 -1.53098,5.10237 -4.9348,16.95074 -7.56404,26.32971 -8.07016,28.78758 -12.29832,40.60977 -21.58386,60.34992 -2.55354,5.42857 -5.40282,12.44156 -6.33173,15.58441 -1.70257,5.76047 -4.89187,14.50541 -7.38873,20.25975 -0.74385,1.71428 -2.5777,8.18268 -4.07523,14.37421 -1.49753,6.19152 -5.92337,19.98373 -9.8352,30.64935 -3.91183,10.66561 -7.70181,21.26215 -8.42218,23.54787 -1.41545,4.49117 -4.79287,11.66519 -6.48695,13.77904 -0.77197,0.96324 -1.41624,1.00847 -2.42616,0.17029 -1.62223,-1.34632 -3.54404,-0.42643 -3.54404,1.6964 0,0.82342 -0.35064,1.494 -0.77921,1.49018 -0.42858,-0.004 -7.55845,-3.68685 -15.84416,-8.1845 l 0,0 z m 60.25974,-163.06325 c 0,-1.86755 -8.53289,-7.43981 -24.61669,-16.07555 -15.43147,-8.28546 -21.0976,-10.47576 -21.0976,-8.15546 0,1.58334 3.44614,3.95009 17.66234,12.13021 20.23689,11.64449 28.05195,15.01569 28.05195,12.1008 l 0,0 z"
       style="color:#000000;fill:#cfcfcf;fill-opacity:1;fill-rule:nonzero;stroke:#c42836;stroke-width:0;stroke-linecap:square;stroke-linejoin:round;stroke-miterlimit:4;stroke-opacity:1;stroke-dasharray:none;stroke-dashoffset:0;marker:none;visibility:visible;display:inline;overflow:visible;enable-background:accumulate" />
    <path
       inkscape:connector-curvature="0"
       id="path3787"
       d="m 456.61326,424.54697 c -10.36734,-5.30928 -33.6628,-17.99781 -39.59368,-21.56583 -3.20508,-1.92818 -15.36093,-8.19819 -27.01298,-13.93334 -11.65206,-5.73516 -30.06866,-15.10179 -40.92581,-20.81471 -10.85714,-5.71294 -20.44156,-10.70169 -21.2987,-11.08611 -0.85715,-0.38442 -3.66234,-2.19771 -6.23377,-4.02952 -2.57142,-1.83181 -10.05194,-5.91086 -16.62338,-9.06453 -6.57142,-3.15368 -14.3696,-7.55472 -17.32928,-9.7801 -2.95968,-2.22536 -8.80384,-5.34269 -12.98701,-6.92741 -4.18319,-1.5847 -11.11227,-4.29638 -15.39799,-6.02595 -4.28572,-1.72957 -14.10389,-5.36561 -21.81818,-8.08007 -19.27289,-6.78166 -35.6887,-13.47885 -36.58216,-14.92449 -0.40956,-0.66267 -0.87858,-0.98689 -1.04228,-0.72046 -0.1637,0.26641 -3.03554,-1.53821 -6.38185,-4.01028 -3.34632,-2.47207 -7.55795,-4.90159 -9.35919,-5.39894 -1.80124,-0.49734 -6.3101,-3.70752 -10.01969,-7.13373 -3.70958,-3.42623 -9.31613,-7.64143 -12.45899,-9.36713 -7.08204,-3.88867 -8.51826,-5.02238 -10.79522,-8.5214 -1.60244,-2.4625 -1.66588,-3.52526 -0.55819,-9.35065 1.27173,-6.6881 7.66395,-25.03779 9.70904,-27.8711 2.02508,-2.80558 4.01935,-6.55873 11.04117,-20.77922 16.08986,-32.58496 20.54017,-42.58358 21.42978,-48.14685 0.36872,-2.30585 1.7654,-5.80604 3.10372,-7.77818 1.33834,-1.97215 2.43334,-4.00979 2.43334,-4.52811 0,-0.51831 2.0706,-4.54397 4.60134,-8.94592 2.53073,-4.40195 4.75151,-8.63075 4.93506,-9.39735 0.18355,-0.76659 1.597,-3.80555 3.141,-6.75325 7.36313,-14.05712 19.53039,-39.165666 19.53039,-40.303186 0,-1.905071 8.21467,-14.147349 9.93628,-14.807996 1.03824,-0.398408 1.49229,0.176122 1.49229,1.888254 0,2.124517 0.5021,2.460899 3.67321,2.460899 2.02027,0 6.34494,1.321165 9.61039,2.935922 3.26546,1.614757 6.17095,2.959606 6.45666,2.988555 0.28572,0.02894 3.55996,1.76922 7.2761,3.86727 3.71614,2.098051 10.2616,5.34627 14.54545,7.218262 4.28387,1.871984 8.36293,4.181336 9.06459,5.13188 1.66527,2.255936 23.63458,15.0021 29.30744,17.0036 2.41957,0.85367 13.81758,6.79034 25.3289,13.1926 18.40886,10.23846 35.45762,18.51906 38.12852,18.51906 0.48898,0 1.97144,0.41152 3.29436,0.91448 1.32292,0.50298 2.87283,1.01516 3.44425,1.13818 0.57143,0.12302 1.27273,0.52968 1.55844,0.90369 1.91045,2.5008 21.51067,11.09919 33.55745,14.72126 10.64534,3.20071 18.1355,6.32036 29.09091,12.11635 8.11483,4.2932 15.45554,8.41393 16.31268,9.1572 3.96842,3.44124 22.51697,11.9048 29.49037,13.45624 13.07685,2.90932 44.00587,17.21072 42.4841,19.64439 -0.41096,0.65722 -0.83285,1.7589 -0.93755,2.44817 -0.10469,0.68926 -0.8996,3.49445 -1.76645,6.23376 -0.86686,2.73932 -4.00164,13.62991 -6.9662,24.20134 -8.47576,30.22412 -11.09096,37.63871 -21.25426,60.25974 -7.66115,17.05186 -18.10086,47.53532 -21.82578,63.73028 -1.02604,4.46097 -15.3874,43.33469 -18.31689,49.58069 -2.99301,6.38143 -3.39009,6.78922 -6.20827,6.37559 -2.26029,-0.33173 -3.01076,-0.024 -3.01076,1.23448 0,2.24254 -0.61076,2.13536 -7.27272,-1.27633 z m 50.90909,-168.30319 c 0,-0.47644 -2.45455,-2.53457 -5.45455,-4.5736 -6.97265,-4.73916 -34.30384,-19.40846 -36.80286,-19.75296 -7.27996,-1.0036 4.24998,7.0286 27.43332,19.11108 11.16802,5.82043 14.82409,7.10674 14.82409,5.21548 z"
       style="color:#000000;fill:#ffa3a4;fill-opacity:1;fill-rule:nonzero;stroke:#c42836;stroke-width:0;stroke-linecap:square;stroke-linejoin:round;stroke-miterlimit:4;stroke-opacity:1;stroke-dasharray:none;stroke-dashoffset:0;marker:none;visibility:visible;display:inline;overflow:visible;enable-background:accumulate" />
  </g>
</svg>
