<?xml version="1.0" encoding="UTF-8" standalone="no"?>
<svg
   xmlns:dc="http://purl.org/dc/elements/1.1/"
   xmlns:cc="http://creativecommons.org/ns#"
   xmlns:rdf="http://www.w3.org/1999/02/22-rdf-syntax-ns#"
   xmlns:svg="http://www.w3.org/2000/svg"
   xmlns="http://www.w3.org/2000/svg"
   xmlns:sodipodi="http://sodipodi.sourceforge.net/DTD/sodipodi-0.dtd"
   xmlns:inkscape="http://www.inkscape.org/namespaces/inkscape"
   version="1.0"
   width="784.000000pt"
   height="701.000000pt"
   viewBox="0 0 784.000000 701.000000"
   preserveAspectRatio="xMidYMid meet"
   id="svg2"
   inkscape:version="0.48.4 r9939"
   sodipodi:docname="Roof4_0.svg">
  <defs
     id="defs12" />
  <sodipodi:namedview
     pagecolor="#ffffff"
     bordercolor="#666666"
     borderopacity="1"
     objecttolerance="10"
     gridtolerance="10"
     guidetolerance="10"
     inkscape:pageopacity="0"
     inkscape:pageshadow="2"
     inkscape:window-width="992"
     inkscape:window-height="1014"
     id="namedview10"
     showgrid="false"
     inkscape:zoom="0.75"
     inkscape:cx="490"
     inkscape:cy="683.45704"
     inkscape:window-x="835"
     inkscape:window-y="77"
     inkscape:window-maximized="0"
     inkscape:current-layer="svg2" />
  <metadata
     id="metadata4">
Created by potrace 1.14, written by Peter Selinger 2001-2017
<rdf:RDF>
  <cc:Work
     rdf:about="">
    <dc:format>image/svg+xml</dc:format>
    <dc:type
       rdf:resource="http://purl.org/dc/dcmitype/StillImage" />
    <dc:title></dc:title>
  </cc:Work>
</rdf:RDF>
</metadata>
  <g
     id="g2991"
     style="fill:#cb3c32;fill-opacity:1">
    <g
       id="g6"
       stroke="none"
       fill="#000000"
       transform="translate(0.000000,701.000000) scale(0.100000,-0.100000)"
       style="fill:#cb3c32;fill-opacity:1">
      <path
         id="path8"
         d="M5565 6825 c-3 -8 -7 -21 -9 -28 -2 -7 -30 -21 -62 -31 -33 -10 -90 -33 -129 -51 -98 -46 -126 -58 -240 -100 -132 -48 -215 -86 -215 -96 0 -5 -15 -15 -32 -23 -18 -7 -67 -29 -108 -49 -41 -20 -103 -44 -137 -53 -35 -9 -71 -24 -80 -33 -10 -9 -25 -15 -34 -13 -9 2 -23 -4 -32 -12 -8 -8 -17 -12 -21 -9 -3 4 -16 2 -29 -4 -12 -6 -44 -21 -70 -32 -26 -12 -45 -26 -42 -31 3 -6 -1 -7 -10 -4 -9 4 -25 -2 -35 -11 -11 -10 -23 -16 -26 -13 -3 4 -32 -3 -65 -14 -44 -15 -59 -24 -55 -35 4 -11 1 -13 -14 -8 -25 8 -157 -51 -157 -70 0 -10 8 -11 41 0 24 7 40 17 38 25 -2 7 3 10 12 7 18 -7 152 44 421 162 60 27 124 50 155 56 19 4 51 14 70 22 63 27 94 40 139 59 24 10 60 30 80 44 45 32 85 50 186 84 44 15 92 34 107 42 76 41 310 132 357 138 l54 7 53 -56 c30 -31 54 -61 54 -67 0 -5 21 -31 48 -57 26 -26 76 -84 112 -129 36 -46 89 -111 118 -144 29 -34 89 -110 133 -169 44 -59 87 -110 95 -113 8 -3 14 -12 14 -21 0 -8 4 -15 10 -15 5 0 16 -12 24 -28 8 -15 59 -74 115 -132 122 -127 161 -171 161 -185 0 -6 9 -16 20 -23 26 -16 27 -52 2 -52 -11 0 -27 -9 -37 -20 -10 -11 -24 -20 -31 -20 -32 0 -243 -111 -252 -132 -2 -5 -9 -8 -16 -8 -14 0 -108 -48 -116 -59 -8 -12 -120 -67 -203 -100 -43 -17 -110 -51 -148 -76 -38 -25 -97 -59 -130 -76 -34 -17 -83 -46 -110 -65 -27 -19 -52 -34 -56 -34 -4 0 -70 -31 -147 -69 -78 -37 -163 -78 -191 -90 -27 -13 -66 -31 -86 -42 -20 -10 -44 -19 -54 -19 -9 0 -47 -15 -83 -34 -37 -19 -93 -44 -125 -56 -33 -11 -73 -31 -90 -44 -33 -24 -283 -166 -293 -166 -19 0 -254 -126 -254 -137 0 -7 -5 -13 -11 -13 -5 0 -7 4 -4 10 3 5 -7 3 -22 -5 -15 -8 -57 -28 -93 -44 -36 -16 -99 -45 -141 -64 -124 -57 -217 -97 -225 -97 -4 0 -36 -17 -70 -37 -44 -26 -60 -40 -51 -46 7 -5 3 -6 -11 -2 -16 5 -36 -3 -72 -30 -57 -42 -65 -40 -102 26 -12 22 -25 39 -28 39 -4 0 -31 39 -61 86 -30 47 -68 107 -86 132 -18 26 -53 77 -79 115 -25 37 -54 72 -65 77 -10 6 -19 15 -19 20 0 8 -56 92 -297 443 -38 55 -72 106 -78 115 -31 49 -69 102 -150 206 -108 141 -129 172 -122 189 3 8 45 26 94 41 48 16 93 32 98 36 6 5 44 18 85 30 41 12 102 34 135 49 33 15 83 38 112 51 29 13 54 29 57 37 3 8 14 13 23 11 11 -2 17 2 15 10 -1 8 3 12 10 10 14 -5 89 19 183 59 96 40 105 45 98 56 -3 6 -1 7 5 3 6 -4 22 0 34 8 13 8 50 22 83 31 33 9 87 30 121 45 34 16 86 36 117 45 30 9 73 25 95 35 23 11 45 20 50 20 16 0 158 69 143 70 -11 0 -9 4 5 15 19 15 19 15 -1 9 -11 -3 -39 -15 -62 -25 -24 -10 -45 -19 -48 -19 -2 0 -31 -13 -64 -29 -33 -16 -84 -34 -113 -41 -66 -16 -74 -20 -57 -32 10 -7 9 -8 -6 -4 -11 3 -42 -5 -70 -17 -27 -13 -84 -34 -125 -47 -41 -13 -88 -33 -105 -44 -44 -31 -135 -76 -154 -76 -9 0 -29 -7 -45 -15 -15 -8 -33 -15 -38 -15 -5 0 -36 -13 -70 -30 -33 -16 -64 -30 -69 -30 -5 0 -51 -20 -104 -45 -52 -25 -119 -52 -149 -59 -30 -8 -65 -20 -77 -26 -40 -22 -203 -63 -241 -61 -34 1 -38 -2 -54 -36 -10 -21 -21 -40 -25 -43 -3 -3 -19 -14 -34 -25 -16 -11 -43 -35 -62 -54 -19 -18 -59 -50 -91 -71 -31 -21 -70 -50 -87 -65 -61 -56 -163 -135 -172 -135 -6 0 -31 -19 -55 -42 -51 -50 -280 -209 -370 -257 -47 -26 -82 -70 -68 -86 7 -8 5 -26 -5 -56 -9 -24 -19 -73 -22 -109 -3 -36 -20 -110 -38 -165 -18 -55 -40 -136 -50 -180 -33 -159 -48 -211 -77 -274 -17 -34 -30 -79 -30 -100 0 -20 -8 -56 -19 -80 -10 -24 -19 -50 -19 -57 0 -7 -9 -28 -19 -46 -11 -17 -17 -36 -14 -41 3 -6 7 -60 9 -121 1 -61 6 -199 10 -306 8 -224 8 -222 5 -395 -2 -156 5 -517 13 -670 12 -220 13 -398 3 -437 -8 -33 -7 -41 9 -53 11 -8 30 -15 44 -15 36 -1 127 -31 190 -65 59 -31 139 -64 180 -73 13 -3 31 -11 38 -19 7 -7 22 -13 33 -13 10 0 19 -4 19 -10 0 -5 6 -10 14 -10 8 0 16 -6 19 -13 3 -8 77 -49 166 -93 88 -43 161 -83 161 -89 0 -11 189 -105 210 -105 15 0 77 -28 110 -50 14 -10 43 -23 65 -30 64 -21 236 -106 282 -139 24 -17 48 -31 55 -31 17 0 132 -54 167 -78 14 -10 45 -26 69 -35 23 -9 60 -28 82 -42 22 -14 40 -23 40 -20 0 3 17 -5 38 -18 20 -13 47 -27 60 -31 12 -4 37 -22 56 -40 23 -21 64 -42 121 -61 48 -16 89 -34 92 -41 5 -14 173 -112 236 -137 37 -16 46 -34 27 -53 -16 -16 0 -52 27 -59 29 -7 36 -3 40 28 2 12 14 31 26 42 58 53 125 104 157 120 19 10 55 35 80 56 25 20 73 52 105 70 66 35 181 114 187 127 1 4 31 25 65 46 35 20 66 43 70 49 5 7 34 30 66 52 32 21 77 57 100 78 23 22 86 66 139 99 53 32 100 67 103 77 3 11 40 43 83 72 110 75 159 116 159 134 0 8 -4 15 -7 15 -13 0 -30 -27 -22 -34 4 -4 3 -7 -3 -6 -5 1 -15 2 -21 1 -17 -2 -159 -113 -157 -122 2 -5 -4 -9 -13 -9 -9 0 -30 -15 -48 -34 -17 -19 -51 -45 -76 -59 -25 -14 -44 -30 -43 -36 2 -6 -3 -8 -10 -6 -17 7 -143 -103 -139 -121 2 -12 -2 -14 -18 -9 -22 7 -90 -36 -90 -56 0 -12 -30 -44 -30 -32 -1 4 -9 -2 -20 -15 -10 -12 -22 -21 -27 -20 -4 2 -42 -23 -83 -54 -41 -31 -93 -65 -114 -77 -22 -11 -42 -25 -46 -31 -4 -6 -15 -12 -24 -14 -10 -1 -21 -8 -25 -15 -5 -7 -12 -13 -17 -13 -20 -1 -34 -11 -34 -23 0 -8 -5 -17 -12 -21 -7 -5 -8 -3 -3 5 7 12 -44 -16 -55 -30 -3 -3 -14 -9 -26 -13 -12 -3 -40 -24 -63 -45 -22 -21 -41 -36 -41 -33 0 2 -11 -3 -25 -12 -31 -20 -41 -20 -50 1 -4 10 -9 128 -12 263 -3 223 -9 420 -17 620 -2 41 -6 95 -10 120 -17 131 -25 732 -11 925 4 57 13 110 22 123 7 12 11 27 8 31 -5 8 65 71 79 71 3 0 28 16 55 35 26 19 54 35 61 35 7 0 42 20 79 44 36 24 86 54 110 66 37 19 42 24 28 32 -21 11 -117 -37 -117 -60 0 -9 -6 -12 -16 -8 -9 4 -24 0 -33 -7 -9 -8 -43 -29 -76 -46 -32 -18 -71 -41 -86 -52 -15 -10 -41 -19 -58 -19 -44 0 -54 30 -76 235 -4 33 -13 87 -21 120 -7 33 -15 90 -18 127 -4 63 -21 116 -33 105 -3 -3 0 -21 5 -39 6 -18 11 -53 11 -78 2 -60 6 -96 19 -150 6 -25 16 -115 22 -200 7 -85 12 -157 13 -160 0 -3 -3 -13 -8 -23 -4 -9 -3 -23 2 -30 5 -7 6 -73 1 -162 -5 -82 -8 -193 -7 -245 3 -130 3 -146 -2 -215 -3 -65 8 -405 16 -439 7 -33 15 -237 21 -546 3 -156 7 -298 9 -315 1 -16 -2 -36 -8 -43 -6 -8 -7 -16 -1 -22 12 -12 6 -80 -7 -80 -10 0 -218 100 -284 138 -27 15 -72 37 -100 50 -50 22 -79 38 -100 57 -7 6 -45 25 -86 44 -41 18 -83 38 -94 44 -98 52 -258 132 -299 149 -28 12 -58 27 -66 33 -21 17 -223 118 -290 145 -30 12 -63 28 -74 36 -10 7 -25 10 -32 7 -8 -3 -14 1 -14 10 0 11 -26 24 -80 41 -44 15 -129 55 -188 90 -59 35 -154 88 -212 119 -58 30 -144 75 -193 101 -48 25 -94 46 -102 46 -13 0 -46 16 -180 87 -11 6 -40 21 -65 33 -75 38 -76 41 -89 159 -7 60 -12 137 -11 172 1 35 -3 82 -10 104 -6 22 -10 58 -9 80 2 22 2 72 0 110 -4 73 -5 241 -2 310 1 22 -1 93 -5 158 -5 83 -3 122 5 130 15 15 14 104 -1 109 -9 3 -12 77 -12 304 1 262 3 303 18 332 10 19 17 52 18 75 0 23 4 49 9 59 5 9 11 41 14 73 3 31 22 95 41 142 20 47 37 104 38 125 2 22 8 44 15 51 6 6 11 23 11 38 0 34 33 164 65 259 14 41 32 113 40 160 10 55 24 97 40 120 14 20 25 41 25 47 0 15 58 63 76 63 8 0 14 4 14 8 0 7 65 59 109 87 9 6 37 25 62 42 26 18 55 33 65 33 11 0 24 12 32 28 11 25 59 64 109 87 29 13 103 82 103 96 0 5 4 8 9 4 5 -3 38 20 73 50 34 30 68 55 74 55 6 0 38 27 72 59 70 69 124 89 149 55 7 -10 19 -26 26 -34 7 -8 39 -51 72 -95 33 -44 83 -107 112 -139 29 -33 53 -62 53 -66 0 -6 49 -83 125 -199 11 -16 53 -75 93 -130 39 -55 72 -102 72 -105 0 -8 60 -96 125 -181 34 -44 76 -104 94 -132 18 -29 37 -53 42 -53 5 0 9 -5 9 -12 0 -6 18 -35 40 -64 22 -29 40 -56 40 -59 0 -4 13 -25 28 -48 16 -23 32 -50 35 -60 4 -9 25 -41 47 -71 27 -35 43 -68 46 -93 7 -68 15 -107 29 -153 8 -25 16 -54 18 -65 2 -11 10 -40 17 -65 7 -25 13 -49 11 -53 -1 -5 10 -46 24 -92 14 -46 25 -101 25 -123 0 -23 5 -44 10 -47 6 -3 10 -18 10 -33 1 -15 7 -40 15 -57 12 -27 13 -28 10 -5 -2 14 -4 25 -5 25 -2 0 -8 41 -15 90 -7 50 -22 125 -34 169 -12 43 -19 81 -17 84 3 3 1 10 -4 17 -5 7 -12 25 -14 41 -2 16 -6 36 -9 44 -3 8 -12 44 -21 80 -18 69 -21 240 -4 240 5 0 19 10 32 23 12 12 42 32 67 45 24 13 64 34 89 47 25 13 71 35 103 50 32 15 54 31 51 37 -4 6 1 8 12 4 23 -7 70 16 67 32 -2 8 7 9 26 6 16 -4 32 -1 35 5 4 6 15 11 24 11 9 0 28 9 42 20 14 11 32 20 41 20 9 0 34 13 55 28 22 16 45 27 52 24 6 -2 12 1 12 7 0 6 8 11 18 11 9 0 30 7 46 15 15 8 34 15 41 15 7 0 19 7 26 16 7 9 22 20 34 25 11 5 27 13 35 18 8 5 42 21 75 37 33 15 93 47 133 71 41 24 76 43 79 43 3 0 17 9 32 19 40 28 116 68 159 82 20 7 70 27 110 46 39 18 79 33 87 33 20 0 65 22 65 32 0 4 5 8 11 8 5 0 29 9 52 19 23 10 73 33 111 50 38 17 90 44 115 59 25 16 62 34 81 41 19 6 53 24 75 39 51 34 127 77 185 104 25 12 75 41 111 65 36 23 69 43 73 43 9 0 109 44 161 72 22 11 92 47 155 80 63 33 122 66 131 74 25 22 246 112 257 105 11 -7 52 -137 57 -181 1 -14 10 -39 19 -56 8 -16 18 -48 21 -70 3 -21 9 -46 12 -54 4 -8 12 -46 19 -85 7 -38 24 -113 39 -165 14 -52 28 -129 31 -170 5 -73 20 -144 35 -165 4 -5 19 -60 35 -121 24 -94 26 -115 16 -140 -16 -38 -98 -94 -242 -167 -63 -32 -122 -64 -130 -71 -8 -7 -40 -25 -70 -40 -30 -16 -62 -34 -70 -41 -8 -7 -40 -26 -70 -42 -30 -16 -80 -45 -110 -64 -30 -19 -68 -41 -85 -49 -16 -8 -57 -33 -91 -56 -33 -23 -110 -70 -170 -105 -60 -35 -111 -67 -112 -71 -2 -5 -8 -6 -12 -3 -9 5 -17 2 -72 -27 -13 -6 -75 -38 -138 -71 -274 -141 -347 -179 -380 -200 -19 -12 -60 -34 -90 -47 -30 -13 -73 -35 -95 -49 -22 -13 -66 -38 -97 -54 -32 -16 -58 -33 -58 -38 0 -5 -7 -9 -16 -9 -9 0 -37 -14 -62 -32 -82 -56 -96 -64 -132 -78 -19 -7 -46 -21 -60 -30 -14 -9 -55 -31 -93 -49 -40 -19 -65 -37 -61 -43 5 -7 2 -8 -5 -4 -12 8 -187 -72 -213 -97 -7 -7 -26 -18 -43 -26 -28 -13 -29 -14 -10 -23 17 -7 34 -1 85 31 36 22 92 53 125 68 131 60 180 88 177 102 -2 9 3 11 13 7 19 -7 194 83 214 110 3 5 11 9 16 9 21 0 144 79 138 88 -4 6 -1 7 6 2 17 -10 93 25 87 41 -3 8 2 10 15 7 12 -3 29 3 42 15 12 11 33 23 47 27 34 10 121 65 116 74 -3 4 10 7 28 7 19 0 46 10 67 26 19 15 58 38 87 51 30 14 64 35 78 48 13 12 24 19 24 15 0 -4 12 -1 28 8 15 8 56 28 92 45 36 17 88 44 115 59 28 16 68 35 90 42 22 7 56 25 75 40 19 15 37 28 40 28 12 -1 107 59 132 83 15 15 30 24 33 21 3 -4 9 -2 13 3 4 6 23 18 42 27 47 23 116 64 165 96 22 15 58 36 80 48 22 11 56 29 75 39 19 10 61 36 92 58 32 21 73 43 91 48 18 5 42 17 53 27 10 10 45 29 77 42 31 13 57 27 57 30 0 4 12 12 27 19 32 15 53 0 33 -24 -7 -8 -10 -18 -7 -21 3 -3 1 -18 -5 -33 -5 -14 -12 -123 -14 -241 -2 -118 -6 -260 -9 -315 -6 -129 -19 -492 -30 -880 -6 -209 -11 -242 -39 -272 -15 -15 -26 -31 -26 -35 0 -5 -7 -8 -15 -8 -22 0 -84 -42 -90 -61 -5 -15 -20 -24 -78 -48 -16 -6 -63 -37 -105 -70 -42 -32 -104 -75 -137 -97 -92 -60 -160 -116 -157 -128 2 -6 0 -8 -3 -4 -13 12 -88 -32 -170 -100 -44 -36 -42 -34 -102 -76 -24 -16 -40 -33 -36 -39 3 -6 1 -7 -5 -3 -7 4 -42 -10 -79 -30 -90 -50 -154 -81 -178 -89 -13 -4 -16 -8 -7 -14 7 -4 -2 -7 -21 -7 -30 -1 -56 -16 -211 -124 -12 -8 -37 -27 -56 -42 -19 -15 -48 -31 -63 -37 -17 -7 -25 -15 -21 -23 4 -7 3 -8 -4 -4 -14 9 -42 -6 -108 -56 -28 -21 -51 -45 -51 -53 0 -22 10 -19 63 24 27 21 81 54 120 74 39 19 90 51 115 69 83 63 184 126 252 157 38 17 66 34 63 39 -3 5 5 7 19 5 17 -4 51 13 127 64 57 39 121 80 143 93 22 13 61 42 86 64 26 23 73 57 105 76 33 19 88 55 124 79 35 25 80 54 100 65 19 10 60 42 91 70 30 28 82 64 115 80 32 16 77 43 99 61 22 18 73 49 113 70 92 47 131 95 77 95 -22 0 -25 5 -27 38 -1 20 -1 51 0 67 4 72 5 116 4 215 -2 161 -2 164 -8 183 -3 9 -2 17 3 17 4 0 9 30 11 68 1 37 4 97 7 134 2 37 0 81 -5 98 -5 18 -5 43 2 63 5 17 11 91 13 163 1 73 5 137 9 143 4 5 6 59 5 118 -1 124 0 178 6 213 2 14 7 50 10 80 4 30 13 64 20 75 30 48 33 150 7 225 -10 30 -24 84 -31 120 -7 36 -20 81 -29 100 -8 19 -21 82 -29 140 -7 58 -20 131 -28 163 -8 32 -15 69 -15 82 0 13 -5 27 -10 30 -6 4 -10 12 -9 18 2 7 -5 37 -13 67 -13 45 -81 323 -83 340 0 3 -6 15 -13 27 -14 26 -20 111 -8 134 5 12 0 24 -18 40 -52 47 -269 268 -295 300 -14 18 -60 74 -101 124 -41 51 -82 102 -90 115 -8 13 -41 55 -73 94 -32 39 -83 103 -114 141 -56 70 -86 104 -161 182 -22 23 -53 59 -68 80 -16 21 -43 55 -61 76 -18 20 -33 43 -33 50 0 17 -46 57 -65 57 -9 0 -18 -7 -20 -15z"
         style="fill:#cb3c32;fill-opacity:1" />
    </g>
    <path
       transform="scale(0.8,0.8)"
       inkscape:connector-curvature="0"
       d="m 446.15046,481.8278 c -0.0124,0.52459 -0.0301,1.04513 0.0691,1.56202 0.13752,0.55777 0.32547,1.09947 0.43978,1.66324 0.10037,0.53746 0.0927,1.08615 0.0988,1.63058 -0.021,0.51323 0.077,1.0116 0.2555,1.49006 0.2166,0.53346 0.2805,1.10274 0.32279,1.67166 0.009,0.43556 0.018,0.88446 0.45039,1.09117 0.18867,0.10258 0.093,0.0561 0.28688,0.13986 0,0 -1.17972,0.78261 -1.17972,0.78261 l 0,0 c -0.19888,-0.0944 -0.10147,-0.0445 -0.29235,-0.14949 -0.44457,-0.27378 -0.51391,-0.72053 -0.50949,-1.2187 -0.0397,-0.55537 -0.0965,-1.11232 -0.30993,-1.63268 -0.18728,-0.49199 -0.2954,-1.00726 -0.27301,-1.53661 -0.004,-0.53591 -0.004,-1.07512 -0.0911,-1.60546 -0.10692,-0.56577 -0.29233,-1.10775 -0.43619,-1.66412 -0.11133,-0.52267 -0.0946,-1.04738 -0.0961,-1.57978 0,0 1.26462,-0.64436 1.26462,-0.64436 z"
       id="path2989"
       style="color:#000000;fill:#cb3c32;fill-opacity:1;fill-rule:nonzero;stroke:#c42836;stroke-width:0;stroke-linecap:square;stroke-linejoin:round;stroke-miterlimit:4;stroke-opacity:1;stroke-dasharray:none;stroke-dashoffset:0;marker:none;visibility:visible;display:inline;overflow:visible;enable-background:accumulate" />
  </g>
  <g
     id="g3766">
    <path
       transform="scale(0.8,0.8)"
       inkscape:connector-curvature="0"
       d="m 508.84193,539.11976 c 0.89877,-0.65585 1.92396,-1.1514 2.89573,-1.66845 0.39303,-0.20912 0.8261,-0.33889 1.22617,-0.53611 0.8621,-0.40234 0.5443,-0.26502 -1.2236,0.72937 -0.086,0.0484 0.17011,-0.0999 0.25414,-0.15159 0.1401,-0.0861 0.36019,-0.23237 0.50362,-0.31352 0.70189,-0.39712 1.4071,-0.78834 2.11065,-1.1825 0.71827,-0.23194 2.01874,-0.92304 -1.12406,0.71907 -0.0664,0.0347 0.11729,-0.0945 0.16618,-0.15128 0.12693,-0.14732 0.14234,-0.2295 0.21433,-0.40836 0.14141,-0.54148 0.11398,-1.10192 0.21808,-1.6502 0.40381,-1.13428 1.78332,-1.84544 2.97364,-1.74975 0.0962,0.0107 0.19233,0.0214 0.2885,0.0321 0,0 -1.75447,1.25015 -1.75447,1.25015 l 0,0 c -0.0941,-0.007 -0.18826,-0.0138 -0.28238,-0.0207 -0.0867,0.002 -0.17406,-0.006 -0.26015,0.005 -0.077,0.009 -0.29096,0.0972 -0.22604,0.0548 3.45691,-2.25652 1.46886,-1.09745 1.20149,-0.51146 -0.12019,0.55557 -0.1093,1.11458 -0.20542,1.67419 -0.35383,1.25524 -1.75606,1.64258 -2.89448,2.0988 0.52799,-0.31094 1.05703,-0.62013 1.58399,-0.93283 0.17006,-0.10092 -0.33718,0.20674 -0.50418,0.31265 -0.8772,0.55635 -1.76877,1.10324 -2.71627,1.53129 -0.88612,0.39973 0.16765,-0.07 -0.79567,0.34017 -0.1442,0.0614 -0.55952,0.27872 -0.42963,0.19101 2.66118,-1.79714 1.4197,-0.81655 0.78325,-0.46536 0,0 -2.00342,0.80399 -2.00342,0.80399 z"
       id="path3764"
       style="color:#000000;fill:#cb3c32;fill-opacity:1;fill-rule:nonzero;stroke:#c42836;stroke-width:0;stroke-linecap:square;stroke-linejoin:round;stroke-miterlimit:4;stroke-opacity:1;stroke-dasharray:none;stroke-dashoffset:0;marker:none;visibility:visible;display:inline;overflow:visible;enable-background:accumulate" />
  </g>
  <path
     style="color:#000000;fill:#cfcfcf;fill-opacity:1;fill-rule:nonzero;stroke:#c42836;stroke-width:0;stroke-linecap:square;stroke-linejoin:round;stroke-miterlimit:4;stroke-opacity:1;stroke-dasharray:none;stroke-dashoffset:0;marker:none;visibility:visible;display:inline;overflow:visible;enable-background:accumulate"
     d="m 464.53131,824.83426 c -0.45205,-4.9737 -1.43068,-30.44506 -2.17474,-56.60303 -0.74406,-26.15797 -1.94048,-55.39729 -2.6587,-64.97627 -1.68848,-22.51933 -1.7662,-110.5223 -0.10531,-119.2348 2.75386,-14.44582 3.55341,-15.29049 27.59403,-29.15182 26.21834,-15.11695 27.4642,-15.89723 27.4642,-17.20075 0,-0.66405 0.81426,-1.20737 1.80948,-1.20737 2.30756,0 40.84386,-19.73867 44.41075,-22.74761 1.47369,-1.24317 5.43056,-3.27203 8.79306,-4.50856 3.36249,-1.23653 9.39121,-4.30488 13.39716,-6.81855 4.00595,-2.51369 10.29791,-6.17157 13.98213,-8.12864 3.68423,-1.95709 8.61771,-5.01797 10.96328,-6.80196 2.34558,-1.78401 5.39698,-3.24364 6.7809,-3.24364 1.3839,0 3.81041,-1.20575 5.39224,-2.67943 1.58182,-1.47369 3.49584,-2.67944 4.25341,-2.67944 1.79378,0 23.24024,-11.86162 24.17184,-13.36896 0.39277,-0.63552 2.51671,-1.59351 4.71987,-2.12886 3.7325,-0.90699 22.94049,-11.14277 27.45077,-14.6283 1.10526,-0.85415 12.55984,-6.57677 25.45462,-12.71693 22.21602,-10.57871 38.46402,-19.5809 47.66583,-26.40924 2.26877,-1.68358 7.09176,-4.62145 10.71774,-6.52862 5.93383,-3.12102 14.40476,-8.04956 49.46363,-28.77884 5.89475,-3.48539 13.12923,-7.50639 16.0766,-8.93555 2.94738,-1.42915 10.40593,-5.41525 16.57458,-8.85799 12.09355,-6.74946 15.77443,-7.75794 14.28952,-3.91502 -1.74235,4.50918 -3.17467,24.0284 -4.00606,54.59346 -1.5939,58.59801 -4.71718,144.72078 -5.54659,152.94394 -1.01472,10.06061 -4.17525,15.58924 -10.87608,19.02526 -2.79208,1.4317 -6.57551,4.20882 -8.40763,6.17137 -1.83213,1.96255 -6.05223,4.94592 -9.37801,6.62972 -6.18309,3.1304 -42.20416,28.25685 -48.24798,33.65531 -1.84211,1.64541 -5.45934,4.03935 -8.0383,5.31987 -5.46898,2.71549 -30.98131,21.8144 -32.5547,24.37092 -0.58925,0.95744 -1.82224,1.7408 -2.73999,1.7408 -2.35749,0 -30.92683,14.69487 -31.46786,16.18573 -0.24562,0.67683 -1.7595,1.23059 -3.3642,1.23059 -1.6047,0 -11.95401,6.08888 -22.99848,13.53083 -11.04446,7.44195 -21.30634,14.00884 -22.8042,14.59309 -3.5417,1.38145 -15.71682,10.60598 -17.1198,12.97087 -0.59792,1.00787 -1.69352,1.45772 -2.43468,0.99967 -0.74115,-0.45806 -1.67872,0.43358 -2.08349,1.98139 -0.40477,1.54783 -1.81723,2.81424 -3.13881,2.81424 -2.26653,0 -14.25986,8.43748 -18.78552,13.21586 -1.14125,1.20498 -2.99912,2.79375 -4.12859,3.5306 -10.0988,6.5882 -25.89269,18.81775 -32.44091,25.11969 -4.40244,4.23685 -9.20633,7.70337 -10.67531,7.70337 -1.46898,0 -4.86618,2.37796 -7.54934,5.28434 -2.68316,2.90638 -15.40159,12.25057 -28.26319,20.76486 -12.86159,8.51429 -24.3396,16.38517 -25.50668,17.49085 -1.16708,1.10568 -2.5525,2.01032 -3.07872,2.01032 -0.96306,0 -9.86829,5.70089 -20.79047,13.30947 -3.24247,2.25877 -6.6478,4.10685 -7.5674,4.10685 -1.08988,0 -1.95815,-3.14843 -2.4939,-9.04309 z"
     id="path3771"
     inkscape:connector-curvature="0"
     transform="scale(0.8,0.8)" />
  <path
     style="color:#000000;fill:#e8e8e8;fill-opacity:1;fill-rule:nonzero;stroke:#c42836;stroke-width:0;stroke-linecap:square;stroke-linejoin:round;stroke-miterlimit:4;stroke-opacity:1;stroke-dasharray:none;stroke-dashoffset:0;marker:none;visibility:visible;display:inline;overflow:visible;enable-background:accumulate"
     d="m 422.5097,813.69322 c -78.50045,-39.92607 -140.93742,-70.91661 -142.8764,-70.91661 -1.16182,0 -2.11239,-0.48428 -2.11239,-1.07618 0,-0.5919 -4.67226,-2.99438 -10.3828,-5.33883 -5.71055,-2.34446 -19.72733,-9.43096 -31.14842,-15.74778 -11.42109,-6.31683 -29.50726,-15.72061 -40.19151,-20.89732 -34.61825,-16.77312 -48.83719,-24.22513 -52.0352,-27.27118 -2.77181,-2.64009 -3.27805,-4.83391 -4.36402,-18.91151 -0.67567,-8.75874 -1.81273,-21.9537 -2.5268,-29.32214 -0.71407,-7.36845 -1.31161,-32.99053 -1.32787,-56.93797 -0.035,-51.5665 0.0258,-44.96609 -0.84558,-91.7706 -0.5752,-30.89557 -0.34191,-38.81174 1.32264,-44.88051 1.11156,-4.05265 2.98093,-12.7943 4.15414,-19.4259 1.17322,-6.6316 3.8573,-17.18187 5.96464,-23.44504 3.84055,-11.41447 4.95608,-15.40191 11.61873,-41.53122 1.97281,-7.73687 5.53915,-21.69011 7.92522,-31.00721 5.02254,-19.61199 10.12834,-30.04523 16.29529,-33.29798 2.34706,-1.23795 6.39611,-4.11988 8.9979,-6.40428 5.76481,-5.06157 18.91186,-13.90098 23.84102,-16.0295 1.98735,-0.85818 4.60896,-3.07981 5.82581,-4.93694 1.21684,-1.85714 5.31811,-5.27405 9.11394,-7.59313 3.79583,-2.31909 9.96085,-7.00651 13.70004,-10.4165 3.73919,-3.40998 11.72166,-9.74869 17.73881,-14.08602 6.01716,-4.33732 11.69947,-8.81111 12.62737,-9.94176 2.49503,-3.04021 13.26993,-9.63639 15.74109,-9.63639 1.17803,0 4.52652,3.16233 7.44109,7.0274 2.91458,3.86507 10.39231,13.34486 16.6172,21.06619 6.22489,7.72133 14.97408,19.78154 19.44265,26.80045 10.50823,16.50554 27.048,40.55864 45.95131,66.82505 27.0541,37.59204 45.4537,67.31203 46.66798,75.38047 0.48567,3.22715 4.12254,18.92386 8.08191,34.88159 3.95939,15.95772 7.19887,30.31558 7.19887,31.90635 0,1.59076 0.56222,3.94281 1.24937,5.22677 1.90978,3.56844 6.57451,34.16496 10.23838,67.15466 1.80436,16.24642 2.01289,28.52576 1.27408,75.02414 -0.69418,43.68914 -0.43473,62.41256 1.21125,87.41121 1.15206,17.49711 2.46506,53.51875 2.91781,80.04808 0.75292,44.11954 0.63596,48.23512 -1.37083,48.23512 -1.2067,0 -16.49621,-7.27425 -33.97672,-16.16498 z"
     id="path3779"
     inkscape:connector-curvature="0"
     transform="scale(0.8,0.8)" />
  <path
     style="color:#000000;fill:#e8e8e8;fill-opacity:1;fill-rule:nonzero;stroke:#c42836;stroke-width:0;stroke-linecap:square;stroke-linejoin:round;stroke-miterlimit:4;stroke-opacity:1;stroke-dasharray:none;stroke-dashoffset:0;marker:none;visibility:visible;display:inline;overflow:visible;enable-background:accumulate"
     d="m 461.41089,558.90047 c -1.75798,-2.23194 -2.59574,-6.01657 -4.99474,-22.56414 -4.50806,-31.09509 -6.15866,-41.1064 -8.04184,-48.77578 -1.08558,-4.42106 -3.53467,-16.47852 -5.44242,-26.79434 -1.90775,-10.31582 -5.24419,-25.49786 -7.41431,-33.73786 -2.17012,-8.24001 -4.33204,-20.42494 -4.80426,-27.07764 l -0.85859,-12.09581 4.25808,-3.97765 c 2.34195,-2.18769 11.02151,-7.42098 19.28791,-11.62953 8.26641,-4.20855 16.63009,-8.77201 18.58594,-10.14101 1.95586,-1.36902 4.72607,-2.48912 6.15602,-2.48912 1.42995,0 3.71034,-1.227 5.06752,-2.72668 1.35719,-1.49967 3.33692,-2.3931 4.39941,-1.98538 1.06248,0.40771 9.54074,-3.09297 18.84057,-7.77928 9.29982,-4.68632 19.24448,-9.29024 22.09924,-10.23092 2.85475,-0.9407 7.97917,-3.38118 11.38759,-5.4233 8.95929,-5.36788 50.4576,-27.97661 59.11594,-32.20701 4.05264,-1.98009 13.09573,-5.84163 20.09575,-8.58121 26.77097,-10.47726 65.89255,-30.12011 103.82806,-52.1318 5.15791,-2.99282 20.06479,-10.71387 33.1264,-17.15787 13.06161,-6.44401 28.43486,-14.40608 34.16278,-17.69348 10.74027,-6.16412 32.24935,-15.56682 35.60978,-15.56682 1.9265,0 2.30932,1.06002 10.16068,28.13405 5.18881,17.89273 14.37843,59.18546 16.14265,72.53555 0.74417,5.63129 2.83706,14.78486 4.65085,20.34127 5.32388,16.30923 6.85123,25.88862 4.75287,29.80944 -2.1786,4.07076 -10.67842,9.78395 -30.75881,20.6747 -21.24957,11.52486 -58.87723,33.60044 -88.22452,51.76001 -13.52337,8.36802 -25.13962,15.21458 -25.81388,15.21458 -3.13085,0 -100.37615,50.92808 -119.07233,62.35906 -10.72848,6.55947 -22.2298,12.89637 -50.23938,27.68046 -2.21053,1.16678 -10.03927,5.03933 -17.39719,8.6057 -7.35792,3.56637 -14.31521,7.39721 -15.46064,8.51299 -1.14544,1.1158 -4.94156,3.38684 -8.43583,5.04678 -3.49427,1.65994 -6.6996,3.92071 -7.12295,5.02394 -0.42335,1.10323 -1.84531,2.00586 -3.15992,2.00586 -1.3146,0 -8.00146,3.3158 -14.85968,7.36845 -12.56523,7.42501 -17.20335,8.77055 -19.62675,5.69379 l 0,0 z"
     id="path3787"
     inkscape:connector-curvature="0"
     transform="scale(0.8,0.8)" />
  <path
     style="color:#000000;fill:#ffa3a4;fill-opacity:1;fill-rule:nonzero;stroke:#c42836;stroke-width:0;stroke-linecap:square;stroke-linejoin:round;stroke-miterlimit:4;stroke-opacity:1;stroke-dasharray:none;stroke-dashoffset:0;marker:none;visibility:visible;display:inline;overflow:visible;enable-background:accumulate"
     d="m 459.85599,556.22104 c -0.77765,-2.39475 -3.2561,-16.71297 -5.50766,-31.81828 -2.25157,-15.1053 -4.7665,-29.87568 -5.58875,-32.82306 -0.82225,-2.94738 -1.71458,-7.13822 -1.98294,-9.313 -0.83569,-6.77207 -7.13372,-36.79787 -11.39459,-54.32355 -2.23929,-9.21055 -4.38923,-22.25996 -4.77764,-28.99866 l -0.70621,-12.25222 6.53887,-4.78157 c 7.19113,-5.25855 36.62905,-21.03679 42.20781,-22.62268 1.93366,-0.5497 4.26825,-1.90616 5.18798,-3.01436 0.91973,-1.10821 2.94792,-2.01493 4.50708,-2.01493 2.63398,0 37.1632,-15.55077 47.74632,-21.50329 2.57895,-1.45055 10.11486,-5.42237 16.74646,-8.82627 6.6316,-3.4039 19.29192,-10.27287 28.13405,-15.26438 8.84213,-4.99151 23.61251,-12.1811 32.82306,-15.97687 33.17907,-13.67344 60.5391,-27.08361 97.79933,-47.9351 15.84215,-8.86555 31.21541,-17.12088 34.16278,-18.34518 2.94738,-1.2243 18.32063,-9.08499 34.16278,-17.46819 27.80728,-14.7148 45.72624,-22.41604 47.65922,-20.48305 3.14558,3.14557 21.5669,77.09906 24.76326,99.41363 0.83865,5.85475 3.27987,16.34657 5.42493,23.31515 2.14506,6.96857 4.27512,15.86088 4.73346,19.76071 1.25345,10.66492 2.20093,9.90912 -47.74823,38.08943 -24.1124,13.60374 -79.09328,46.34663 -87.89518,52.34444 -3.02642,2.06227 -8.46724,4.87606 -12.0907,6.25286 -6.45256,2.45177 -82.77672,42.15574 -102.00411,53.06273 -5.35735,3.03901 -11.38608,6.43735 -13.39717,7.55185 -2.0111,1.11449 -7.27378,4.18736 -11.69484,6.82861 -9.24271,5.52179 -29.63006,16.36356 -55.50705,29.51802 -9.89723,5.03122 -18.33745,9.65024 -18.75603,10.26449 -0.41859,0.61424 -3.57084,2.45939 -7.00501,4.10035 -3.43417,1.64094 -6.58033,3.86014 -6.99147,4.93155 -0.41113,1.07141 -1.72607,1.94801 -2.92208,1.94801 -1.19601,0 -7.97841,3.3158 -15.07201,7.36845 -15.2942,8.73772 -19.50589,9.32669 -21.55572,3.01436 z"
     id="path3789"
     inkscape:connector-curvature="0"
     transform="scale(0.8,0.8)" />
  <path
     style="color:#000000;fill:#cb3c32;fill-opacity:1;fill-rule:nonzero;stroke:#c42836;stroke-width:0;stroke-linecap:square;stroke-linejoin:round;stroke-miterlimit:4;stroke-opacity:1;stroke-dasharray:none;stroke-dashoffset:0;marker:none;visibility:visible;display:inline;overflow:visible;enable-background:accumulate"
     id="path3803"
     d="m 486.64553,116.14039 c 1.17472,-0.9153 2.48226,-1.41042 3.88098,-1.78243 0.87738,-0.28542 1.79765,-0.35806 2.70024,-0.5172 0.69618,-0.057 1.28953,-0.41983 1.93231,-0.64594 0.53883,-0.19634 1.01875,-0.50461 1.56846,-0.67148 0.4358,-0.24982 0.91648,-0.34427 1.40896,-0.39889 0.26968,-0.0541 0.5229,-0.12209 0.77447,-0.23188 0,0 -1.58285,1.23957 -1.58285,1.23957 l 0,0 c -0.26322,0.0845 -0.52823,0.15605 -0.8027,0.19541 -0.48548,0.0744 -0.94043,0.22011 -1.38524,0.42975 -0.53237,0.19754 -1.02224,0.49164 -1.56168,0.67422 -0.63528,0.24959 -1.25175,0.54921 -1.94507,0.60794 -0.90353,0.14479 -1.81543,0.25068 -2.69036,0.53497 -0.41115,0.1161 -0.81718,0.2421 -1.22004,0.38478 -0.1284,0.0455 -0.49592,0.21802 -0.38348,0.14115 0.37881,-0.25895 2.05315,-1.22241 1.18177,-0.70594 0,0 -1.87577,0.74597 -1.87577,0.74597 z"
     inkscape:connector-curvature="0"
     transform="scale(0.8,0.8)" />
  <path
     style="color:#000000;fill:#ffa3a4;fill-opacity:1;fill-rule:nonzero;stroke:#c42836;stroke-width:0;stroke-linecap:square;stroke-linejoin:round;stroke-miterlimit:4;stroke-opacity:1;stroke-dasharray:none;stroke-dashoffset:0;marker:none;visibility:visible;display:inline;overflow:visible;enable-background:accumulate"
     d="m 422.33513,378.21132 c -1.35024,-1.94321 -3.37743,-4.8241 -4.50483,-6.40197 -1.12741,-1.57787 -8.01476,-11.72131 -15.30522,-22.54099 -14.24897,-21.14671 -19.34542,-28.12972 -22.24359,-30.47754 -1.01138,-0.81932 -3.07651,-3.51836 -4.58919,-5.99786 -6.99094,-11.45919 -52.62516,-77.5916 -63.91384,-92.62296 -14.30602,-19.04905 -15.81801,-21.56415 -14.02813,-23.33477 1.21747,-1.20437 15.40115,-6.60417 35.61033,-13.55702 14.01605,-4.82216 30.90616,-12.3593 34.99292,-15.61548 1.66413,-1.32591 3.56115,-2.41076 4.21558,-2.41076 0.65443,0 1.40219,-0.55328 1.66168,-1.22951 0.2595,-0.67623 1.38722,-1.2295 2.50605,-1.2295 3.94121,0 31.04295,-10.62363 33.26311,-13.03882 0.67623,-0.73564 2.52049,-1.76867 4.09836,-2.29563 4.8921,-1.63379 24.08844,-8.7387 45.4918,-16.83733 21.59386,-8.17071 29.47207,-11.74504 31.65125,-14.36013 0.82275,-0.98733 2.88151,-1.79478 5.44232,-2.13449 2.26542,-0.30051 5.46702,-1.46122 7.11466,-2.57934 1.64765,-1.11813 3.3813,-2.03295 3.85256,-2.03295 2.13743,0 17.68433,-5.9456 37.78574,-14.450378 19.06049,-8.064377 35.46714,-14.238124 37.83767,-14.238144 2.03139,-1.7e-5 25.23164,-10.566335 31.50756,-14.349799 4.094,-2.468086 13.24252,-6.658489 21.21905,-9.71921 7.71215,-2.959281 17.83454,-7.098717 22.49418,-9.198748 16.71531,-7.533349 31.6643,-12.894472 39.80129,-14.273848 l 4.28005,-0.725551 5.02347,5.231427 c 2.76291,2.877284 6.16744,6.821409 7.56562,8.764722 1.39818,1.943312 5.35236,6.668542 8.78707,10.500509 8.65203,9.652728 19.33981,22.64374 36.41484,44.2623 8.01162,10.14344 15.84423,19.91803 17.40581,21.72131 1.56159,1.80328 5.56768,6.66492 8.90245,10.80366 3.33477,4.13874 11.63605,13.50989 18.44728,20.8248 6.81124,7.31491 12.98409,14.25654 13.71745,15.42585 0.73336,1.16931 2.36394,3.33762 3.6235,4.81847 2.88089,3.38701 2.88963,4.86913 0.036,6.10884 -1.23976,0.53859 -3.36066,1.76102 -4.71312,2.71652 -1.35246,0.9555 -4.30328,2.3935 -6.55737,3.19557 -5.67448,2.01911 -22.31267,10.75301 -25.96145,13.62795 -1.65583,1.30466 -5.02929,3.12741 -7.49657,4.05053 -2.46727,0.92313 -6.7739,3.15718 -9.57028,4.96458 -6.52066,4.2145 -9.99041,5.99455 -25.0815,12.86737 -6.80466,3.09899 -15.10384,7.23669 -18.44262,9.19491 -3.3388,1.9582 -9.94349,5.76038 -14.67709,8.44929 -4.73361,2.68891 -11.79419,6.87162 -15.69019,9.29493 -8.37137,5.20696 -59.52994,29.65396 -69.55571,33.23838 -3.83197,1.37001 -9.01909,3.52581 -11.52696,4.79065 -2.50785,1.26484 -8.04162,3.74884 -12.29727,5.52 -4.25564,1.77115 -14.73676,7.34607 -23.29137,12.38872 -8.55462,5.04265 -22.93888,12.82285 -31.96503,17.28932 -17.05374,8.43885 -25.83737,13.50162 -25.83737,14.89233 0,0.44646 -0.70101,0.58924 -1.55781,0.3173 -0.98926,-0.31397 -5.85039,1.49267 -13.31967,4.95027 -17.66663,8.17807 -41.82029,18.91229 -44.13892,19.61595 -3.62203,1.0992 -14.27069,7.23045 -16.66141,9.59324 -1.27443,1.25954 -3.15372,2.29007 -4.1762,2.29007 -1.02248,0 -4.07824,1.43434 -6.79058,3.18741 -7.51142,4.85486 -7.98505,4.88782 -10.85635,0.75555 l 0,0 z"
     id="path3805"
     inkscape:connector-curvature="0"
     transform="scale(0.8,0.8)" />
  <path
     style="color:#000000;fill:#ffa3a4;fill-opacity:1;fill-rule:nonzero;stroke:#c42836;stroke-width:0;stroke-linecap:square;stroke-linejoin:round;stroke-miterlimit:4;stroke-opacity:1;stroke-dasharray:none;stroke-dashoffset:0;marker:none;visibility:visible;display:inline;overflow:visible;enable-background:accumulate"
     d="m 461.16538,558.88363 c -0.86637,-1.02308 -1.47006,-2.26068 -1.34154,-2.75022 0.12852,-0.48954 -0.14491,-1.34624 -0.60764,-1.90379 -0.46273,-0.55755 -0.61453,-1.24053 -0.33734,-1.51771 0.2772,-0.2772 0.22656,-1.16539 -0.11251,-1.97377 -0.33908,-0.80837 -0.73302,-2.20748 -0.87543,-3.10912 -0.14241,-0.90164 -0.82335,-5.32787 -1.5132,-9.83606 -1.22748,-8.02171 -4.2259,-26.34196 -6.69834,-40.92664 -0.6825,-4.02605 -1.47321,-7.69595 -1.75713,-8.15533 -0.28392,-0.45939 -0.58943,-1.59158 -0.67893,-2.51599 -0.64148,-6.62588 -7.01017,-37.50635 -11.57896,-56.14404 -1.15433,-4.70891 -2.09879,-9.41178 -2.09879,-10.45082 0,-1.03903 -0.32977,-1.88915 -0.73283,-1.88915 -0.40305,0 -0.50139,-0.92213 -0.21851,-2.04918 0.30296,-1.20712 0.16214,-2.04918 -0.34269,-2.04918 -0.5286,0 -0.67067,-1.14817 -0.37077,-2.9963 0.2794,-1.72174 0.16855,-2.79995 -0.2606,-2.53472 -0.41075,0.25386 -0.8005,-1.25641 -0.86611,-3.35616 -0.0656,-2.09976 -0.38248,-6.96626 -0.70418,-10.81445 l -0.58491,-6.99671 3.67686,-3.01291 c 2.02227,-1.6571 3.85083,-2.83893 4.06347,-2.62629 0.21263,0.21263 1.31678,-0.44698 2.45367,-1.4658 1.13688,-1.01882 2.57789,-1.96488 3.20224,-2.10237 0.62435,-0.13747 1.54051,-0.77724 2.0359,-1.42168 0.4954,-0.64445 1.14089,-0.93156 1.43443,-0.63801 0.29354,0.29354 0.53371,0.0816 0.53371,-0.47096 0,-0.55256 0.36885,-0.77669 0.81967,-0.49807 0.45082,0.27862 0.81967,0.0942 0.81967,-0.40984 0,-0.50403 0.33735,-0.70792 0.74966,-0.4531 0.41232,0.25483 0.87338,0.15222 1.02459,-0.22801 0.25868,-0.65048 17.51196,-9.53567 27.98248,-14.41058 2.6162,-1.21807 4.9304,-2.66725 5.14267,-3.2204 0.21227,-0.55316 1.26272,-1.07831 2.33434,-1.167 3.38093,-0.27981 25.50524,-9.36431 26.70069,-10.96361 0.22541,-0.30157 0.59426,-0.52939 0.81967,-0.50629 1.09399,0.11212 4.09836,-1.20879 4.09836,-1.80191 0,-0.37026 1.30124,-0.91732 2.89163,-1.21569 1.7675,-0.33158 2.6791,-0.88636 2.34492,-1.42706 -0.30624,-0.49551 -0.0924,-0.73315 0.48624,-0.54028 0.56811,0.18937 3.91729,-1.14597 7.44261,-2.96743 20.46851,-10.57567 27.58154,-14.34795 41.74567,-22.13921 8.63048,-4.74735 16.03565,-8.63156 16.45593,-8.63156 0.42028,0 0.76415,-0.39062 0.76415,-0.86805 0,-0.47742 0.36885,-0.64008 0.81967,-0.36145 0.45082,0.27862 0.81967,0.0545 0.81967,-0.49808 0,-0.55256 0.22881,-0.77585 0.50846,-0.49619 0.57275,0.57274 10.41493,-4.16828 10.81499,-5.20962 0.14183,-0.36918 0.78732,-0.46807 1.43443,-0.21975 0.6471,0.24832 1.17655,0.0214 1.17655,-0.50426 0,-0.52565 0.36885,-0.72778 0.81967,-0.44915 0.45082,0.27862 0.81967,0.0545 0.81967,-0.49808 0,-0.55256 0.2472,-0.75746 0.54932,-0.45533 0.30213,0.30213 1.43979,-0.0341 2.52812,-0.74723 1.08834,-0.71311 7.93891,-3.69618 15.2235,-6.62904 7.28459,-2.93286 13.43177,-5.63516 13.66041,-6.00509 0.22864,-0.36995 0.78455,-0.76661 1.23537,-0.88148 5.01964,-1.27903 40.97912,-19.09404 60.32199,-29.88466 7.8475,-4.37781 17.49273,-9.76078 21.43385,-11.96216 3.94112,-2.20138 7.53743,-4.00251 7.9918,-4.00251 0.45438,0 0.82613,-0.36182 0.82613,-0.80405 0,-0.44223 0.92213,-1.0355 2.04918,-1.31837 1.12705,-0.28287 2.04918,-0.86495 2.04918,-1.2935 0,-0.42855 0.36886,-0.55122 0.81968,-0.2726 0.45082,0.27862 0.81967,0.11596 0.81967,-0.36146 0,-0.47743 0.27664,-0.79497 0.61475,-0.70565 1.15307,0.3046 4.30328,-1.09021 4.30328,-1.90536 0,-0.44704 0.36885,-0.58484 0.81967,-0.30622 0.45082,0.27862 0.81968,0.11596 0.81968,-0.36146 0,-0.47743 0.27663,-0.79682 0.61475,-0.70976 0.96443,0.24831 51.18163,-25.34206 53.19134,-27.10598 0.5155,-0.45244 1.16099,-0.59889 1.43443,-0.32544 0.27345,0.27345 0.49718,0.0451 0.49718,-0.50748 0,-0.55257 0.34479,-0.79157 0.7662,-0.53113 0.92217,0.56994 8.25019,-2.86499 8.25019,-3.86718 0,-0.38759 0.36886,-0.47675 0.81968,-0.19813 0.45082,0.27862 0.81967,0.19446 0.81967,-0.18703 0,-0.38149 0.79673,-0.75363 1.77051,-0.82699 0.97378,-0.0734 2.07468,-0.61291 2.44646,-1.19901 0.37178,-0.58611 0.68161,-0.74385 0.68851,-0.35054 0.007,0.39332 0.50755,0.3043 1.11256,-0.1978 0.605,-0.50211 1.3427,-0.67023 1.63934,-0.37359 0.29663,0.29663 0.53934,0.0872 0.53934,-0.46532 0,-0.55257 0.34337,-0.79245 0.76303,-0.53308 0.41967,0.25937 0.99844,0.0907 1.28615,-0.37483 0.28771,-0.46553 0.84099,-0.64996 1.22951,-0.40984 0.38851,0.24012 0.94179,0.0557 1.22951,-0.40984 0.28771,-0.46552 0.84099,-0.64995 1.2295,-0.40983 0.38852,0.24011 0.91668,0.0963 1.17369,-0.31952 0.25701,-0.41585 1.19309,-0.56629 2.08018,-0.33431 2.03981,0.53342 4.27509,6.34341 7.66238,19.91612 1.40637,5.63525 2.84752,10.36962 3.20255,10.52083 0.35503,0.15121 0.44872,0.59336 0.20819,0.98254 -0.63705,1.03077 1.30195,8.16876 2.219,8.16876 0.42768,0 0.55332,0.70667 0.27919,1.57037 -0.27413,0.8637 -0.13067,1.79764 0.3188,2.07543 0.44947,0.27778 0.62375,1.00922 0.38729,1.62541 -0.23645,0.61619 -0.0209,1.37313 0.47898,1.68208 0.49989,0.30895 0.69447,1.23735 0.43238,2.06311 -0.26209,0.82576 -0.0866,1.74233 0.38986,2.03683 0.47651,0.2945 0.64419,0.89498 0.37261,1.3344 -0.27157,0.43942 -0.14344,1.24385 0.28474,1.78762 0.42818,0.54378 0.80965,1.54197 0.84771,2.2182 0.038,0.67623 0.80627,4.20334 1.70715,7.83804 2.04057,8.23283 2.65349,11.08616 2.71818,12.65376 0.028,0.67623 0.37568,1.64382 0.77283,2.15021 0.39715,0.50638 0.50615,1.48341 0.24223,2.17118 -0.26393,0.68777 -0.0798,1.49772 0.40906,1.79988 0.48891,0.30216 0.66673,0.9089 0.39515,1.34832 -0.27157,0.43942 -0.0707,1.3087 0.44636,1.93174 0.51708,0.62303 0.85606,1.62122 0.75329,2.21819 -0.10276,0.59697 0.0546,2.37638 0.34967,3.95425 0.29508,1.57787 1.13119,6.55738 1.85802,11.06557 0.72683,4.5082 2.36801,11.5164 3.64706,15.57377 2.4678,7.82832 4.44861,15.36164 5.28035,20.08197 0.79186,4.49402 0.9377,11.47541 0.23973,11.47541 -0.34762,0 -0.55701,0.27664 -0.46532,0.61476 0.24842,0.91603 -4.47941,5.94262 -5.58942,5.94262 -0.52761,0 -1.18057,0.57665 -1.45103,1.28146 -0.27045,0.7048 -0.8658,1.05028 -1.32299,0.76772 -0.45719,-0.28256 -1.05172,0.0608 -1.32119,0.76301 -0.26945,0.70222 -0.82013,1.07268 -1.22371,0.82325 -0.40358,-0.24943 -0.73379,-0.0629 -0.73379,0.41454 0,0.47743 -0.55327,0.86805 -1.2295,0.86805 -0.67623,0 -1.22951,0.39062 -1.22951,0.86805 0,0.47743 -0.37146,0.63847 -0.82546,0.35788 -0.45401,-0.28058 -1.04594,0.0643 -1.3154,0.76659 -0.26946,0.70222 -0.82014,1.07268 -1.22372,0.82325 -0.40358,-0.24942 -0.73378,-0.0411 -0.73378,0.46292 0,0.50403 -0.33736,0.70793 -0.74967,0.45311 -0.41231,-0.25483 -0.87337,-0.15433 -1.02459,0.22332 -0.15121,0.37767 -5.25443,3.3865 -11.3405,6.68632 -14.37047,7.79153 -59.50326,34.18718 -81.96721,47.93805 -23.85813,14.60428 -28.27869,17.24737 -28.27869,16.90807 0,-0.41076 -32.98023,16.15629 -52.45901,26.35188 -44.50652,23.2956 -66.97758,35.55706 -67.48634,36.82428 -0.15028,0.3743 -0.73948,0.68054 -1.30935,0.68054 -0.56987,0 -4.22766,2.00371 -8.12842,4.45268 -3.90076,2.44897 -7.09229,4.28376 -7.09229,4.07731 0,-0.20645 -1.10656,0.19686 -2.45901,0.89624 -1.35246,0.69939 -2.45902,1.63099 -2.45902,2.07023 0,0.43925 -0.29007,0.70641 -0.6446,0.59371 -0.58462,-0.18586 -13.33297,6.41297 -24.76524,12.81904 -2.47951,1.38938 -4.69262,2.54961 -4.91803,2.57828 -1.65752,0.21078 -4.09836,1.44714 -4.09836,2.07595 0,0.42043 -0.27664,0.69262 -0.61475,0.60484 -0.67302,-0.17471 -19.65623,9.48971 -25.69552,13.08168 -2.0731,1.23302 -6.3149,3.6816 -9.42623,5.4413 -3.11132,1.75969 -6.7635,4.19492 -8.11596,5.41163 -1.35246,1.2167 -4.05218,2.82722 -5.99938,3.57892 -1.94721,0.75171 -6.45285,3.01934 -10.01256,5.03919 -3.5597,2.01984 -6.85383,3.67245 -7.32028,3.67245 -0.46646,0 -0.84811,0.30737 -0.84811,0.68305 0,0.37569 -0.46106,0.70044 -1.02459,0.72167 -1.53673,0.0579 -8.04524,3.18664 -7.58544,3.64645 0.21951,0.2195 -0.82533,0.37156 -2.32185,0.33789 -1.76598,-0.0398 -3.27381,-0.71406 -4.29618,-1.92134 l 0,0 z"
     id="path3813"
     inkscape:connector-curvature="0"
     transform="scale(0.8,0.8)" />
  <path
     style="color:#000000;fill:#ff8284;fill-opacity:1;fill-rule:nonzero;stroke:#c42836;stroke-width:0;stroke-linecap:square;stroke-linejoin:round;stroke-miterlimit:4;stroke-opacity:1;stroke-dasharray:none;stroke-dashoffset:0;marker:none;visibility:visible;display:inline;overflow:visible;enable-background:accumulate"
     d="m 460.98552,558.76967 c -0.99286,-1.08576 -1.85227,-2.56117 -1.9098,-3.27869 -0.0575,-0.71752 -0.23865,-2.04229 -0.40248,-2.94393 -0.83937,-4.61944 -3.03483,-18.13882 -5.32437,-32.78688 -2.18038,-13.94967 -3.77611,-22.68625 -6.06336,-33.19672 -0.24526,-1.12705 -1.38007,-7.21312 -2.52179,-13.52459 -1.88734,-10.43328 -6.07536,-29.83408 -10.35108,-47.95082 -0.90438,-3.83197 -1.69793,-7.70492 -1.76345,-8.60656 -0.0655,-0.90164 -0.41711,-2.10371 -0.78132,-2.67127 -0.36422,-0.56756 -0.4145,-1.81238 -0.11175,-2.76626 0.30275,-0.9539 0.17995,-1.96494 -0.2729,-2.24677 -0.45284,-0.28183 -1.08852,-5.3201 -1.41263,-11.19616 l -0.58927,-10.68374 3.71696,-3.04577 c 2.04433,-1.67517 4.0464,-3.04577 4.44904,-3.04577 0.40265,0 1.46726,-0.64549 2.36581,-1.43442 0.89855,-0.78894 2.3513,-1.89416 3.22833,-2.45605 2.688,-1.72212 27.52002,-14.41697 32.7366,-16.7359 2.70186,-1.20106 5.77623,-2.95311 6.83192,-3.89344 1.0557,-0.94034 2.41941,-1.7097 3.03047,-1.7097 2.26346,0 13.41132,-4.44505 23.88207,-9.52263 5.93346,-2.8773 11.1896,-5.23146 11.68033,-5.23146 0.49073,0 0.89223,-0.32887 0.89223,-0.73082 0,-0.40195 1.01435,-0.98186 2.2541,-1.28869 2.15085,-0.53233 40.81054,-20.71182 56.35246,-29.41472 4.05738,-2.27198 8.85246,-4.87161 10.65574,-5.77695 1.80328,-0.90536 3.4024,-1.94239 3.55361,-2.30453 0.15121,-0.36215 0.61228,-0.44995 1.02459,-0.19512 0.41231,0.25482 0.74967,0.0509 0.74967,-0.45311 0,-0.50403 0.36885,-0.68846 0.81967,-0.40984 0.45082,0.27863 0.81967,0.0942 0.81967,-0.40983 0,-0.50403 0.41009,-0.66297 0.91131,-0.3532 0.50123,0.30977 1.18364,0.12259 1.51649,-0.41596 0.33284,-0.53855 1.12152,-1.05723 1.75262,-1.15264 0.6311,-0.0954 1.5163,-0.39718 1.96712,-0.67059 1.3418,-0.81378 22.39597,-9.70269 22.98167,-9.70269 0.29658,0 3.54622,-1.45601 7.2214,-3.23558 3.6752,-1.77956 11.47726,-5.39652 17.33791,-8.03769 15.45108,-6.9632 60.27759,-30.69927 77.98269,-41.29259 3.66917,-2.19534 7.19171,-3.99152 7.82787,-3.99152 0.63616,0 1.50707,-0.34611 1.93535,-0.76912 0.42828,-0.42302 10.36885,-5.57174 22.09016,-11.44161 11.72131,-5.86986 24.2623,-12.37184 27.86885,-14.44885 3.60656,-2.07701 6.91745,-3.84428 7.35754,-3.92725 0.44009,-0.083 1.29973,-0.61533 1.91034,-1.183 0.61061,-0.56767 1.4493,-0.82254 1.86378,-0.56638 0.41447,0.25616 0.75359,0.0534 0.75359,-0.45068 0,-0.50403 0.36885,-0.68845 0.81967,-0.40983 0.45082,0.27862 0.81967,0.11596 0.81967,-0.36146 0,-0.47743 0.27664,-0.79221 0.61476,-0.69952 0.33811,0.0927 1.72131,-0.4162 3.07377,-1.13085 4.84572,-2.56054 18.36369,-7.21324 19.59007,-6.74263 1.54286,0.59205 4.01788,7.05212 7.03444,18.36069 1.2627,4.7336 2.70736,9.65185 3.21036,10.92944 0.50301,1.27758 0.70573,2.66078 0.45049,3.07377 -0.25525,0.41299 -0.10799,0.75089 0.32723,0.75089 0.43522,0 0.5984,0.7377 0.36261,1.63934 -0.24917,0.95283 -0.0252,1.63934 0.53495,1.63934 0.53,0 0.74495,0.35385 0.47767,0.78634 -0.26729,0.43248 -0.12166,1.44682 0.32363,2.25409 0.44528,0.80728 1.94347,6.63171 3.3293,12.94318 1.38583,6.31148 3.78708,17.0082 5.33609,23.77049 1.54903,6.7623 3.58899,17.18938 4.53325,23.17131 0.94426,5.98191 2.63001,13.91224 3.74612,17.62295 3.8262,12.72092 6.21187,23.14419 6.51575,28.46804 l 0.30411,5.32787 -4.36501,4.09836 c -4.64869,4.36471 -6.37073,5.41727 -39.41598,24.09205 -25.9343,14.65618 -48.72052,28.06073 -77.45902,45.56719 -11.94672,7.2775 -23.38114,13.88 -25.40983,14.67221 -4.05214,1.58238 -43.71681,21.76215 -61.88525,31.48469 -6.31147,3.37748 -17.7459,9.4489 -25.40983,13.49204 -7.66394,4.04314 -17.43853,9.4109 -21.72132,11.92835 -4.28278,2.51746 -9.36337,5.42122 -11.29018,6.45282 -1.92681,1.03159 -5.53028,3.17228 -8.00772,4.75707 -2.47743,1.5848 -4.86611,2.88145 -5.30818,2.88145 -0.44206,0 -0.80375,0.39062 -0.80375,0.86805 0,0.47742 -0.36885,0.64008 -0.81967,0.36145 -0.45082,-0.27862 -0.81968,-0.17901 -0.81968,0.22136 0,0.40036 -1.93647,1.61347 -4.30328,2.6958 -2.3668,1.08233 -8.7295,4.33706 -14.13934,7.23274 -5.40984,2.89568 -16.84426,8.83579 -25.40984,13.20026 -15.95471,8.1295 -33.14413,17.92719 -36.06557,20.55679 -0.90164,0.81157 -6.25,3.83474 -11.88525,6.71816 -13.11389,6.71006 -15.92429,8.26048 -16.24148,8.95999 -0.14183,0.3128 -0.73976,0.3838 -1.32874,0.15778 -0.58897,-0.22601 -1.6335,0.15172 -2.32117,0.83939 -1.77746,1.77746 -5.69328,1.23559 -7.81161,-1.08096 l 0,0 z"
     id="path3815"
     inkscape:connector-curvature="0"
     transform="scale(0.8,0.8)" />
</svg>
