<?xml version="1.0" encoding="UTF-8" standalone="no"?>
<svg
   xmlns:dc="http://purl.org/dc/elements/1.1/"
   xmlns:cc="http://creativecommons.org/ns#"
   xmlns:rdf="http://www.w3.org/1999/02/22-rdf-syntax-ns#"
   xmlns:svg="http://www.w3.org/2000/svg"
   xmlns="http://www.w3.org/2000/svg"
   xmlns:sodipodi="http://sodipodi.sourceforge.net/DTD/sodipodi-0.dtd"
   xmlns:inkscape="http://www.inkscape.org/namespaces/inkscape"
   version="1.0"
   width="880"
   height="880"
   viewBox="0 0 704 704"
   preserveAspectRatio="xMidYMid meet"
   id="svg2"
   inkscape:version="0.48.4 r9939"
   sodipodi:docname="gambrel.svg">
  <defs
     id="defs12" />
  <sodipodi:namedview
     pagecolor="#ffffff"
     bordercolor="#666666"
     borderopacity="1"
     objecttolerance="10"
     gridtolerance="10"
     guidetolerance="10"
     inkscape:pageopacity="0"
     inkscape:pageshadow="2"
     inkscape:window-width="992"
     inkscape:window-height="1014"
     id="namedview10"
     showgrid="false"
     inkscape:zoom="0.75"
     inkscape:cx="490"
     inkscape:cy="533.21256"
     inkscape:window-x="835"
     inkscape:window-y="77"
     inkscape:window-maximized="0"
     inkscape:current-layer="svg2" />
  <metadata
     id="metadata4">
Created by potrace 1.14, written by Peter Selinger 2001-2017
<rdf:RDF>
  <cc:Work
     rdf:about="">
    <dc:format>image/svg+xml</dc:format>
    <dc:type
       rdf:resource="http://purl.org/dc/dcmitype/StillImage" />
    <dc:title />
  </cc:Work>
</rdf:RDF>
</metadata>
  <g
     id="g3007"
     transform="translate(-46.79488,0.60250366)">
    <g
       transform="translate(0,3)"
       style="fill:#cb3c32;fill-opacity:1"
       id="g2991">
      <g
         style="fill:#cb3c32;fill-opacity:1;stroke:none"
         transform="matrix(0.1,0,0,-0.1,0,701)"
         id="g6">
        <path
           inkscape:connector-curvature="0"
           style="fill:#cb3c32;fill-opacity:1"
           d="m 5565,6825 c -3,-8 -7,-21 -9,-28 -2,-7 -30,-21 -62,-31 -33,-10 -90,-33 -129,-51 -98,-46 -126,-58 -240,-100 -132,-48 -215,-86 -215,-96 0,-5 -15,-15 -32,-23 -18,-7 -67,-29 -108,-49 -41,-20 -103,-44 -137,-53 -35,-9 -71,-24 -80,-33 -10,-9 -25,-15 -34,-13 -9,2 -23,-4 -32,-12 -8,-8 -17,-12 -21,-9 -3,4 -16,2 -29,-4 -12,-6 -44,-21 -70,-32 -26,-12 -45,-26 -42,-31 3,-6 -1,-7 -10,-4 -9,4 -25,-2 -35,-11 -11,-10 -23,-16 -26,-13 -3,4 -32,-3 -65,-14 -44,-15 -59,-24 -55,-35 4,-11 1,-13 -14,-8 -25,8 -157,-51 -157,-70 0,-10 8,-11 41,0 24,7 40,17 38,25 -2,7 3,10 12,7 18,-7 152,44 421,162 60,27 124,50 155,56 19,4 51,14 70,22 63,27 94,40 139,59 24,10 60,30 80,44 45,32 85,50 186,84 44,15 92,34 107,42 76,41 310,132 357,138 l 54,7 53,-56 c 30,-31 54,-61 54,-67 0,-5 21,-31 48,-57 26,-26 76,-84 112,-129 36,-46 89,-111 118,-144 29,-34 89,-110 133,-169 44,-59 87,-110 95,-113 8,-3 14,-12 14,-21 0,-8 4,-15 10,-15 5,0 16,-12 24,-28 8,-15 59,-74 115,-132 122,-127 161,-171 161,-185 0,-6 9,-16 20,-23 26,-16 27,-52 2,-52 -11,0 -27,-9 -37,-20 -10,-11 -24,-20 -31,-20 -32,0 -243,-111 -252,-132 -2,-5 -9,-8 -16,-8 -14,0 -108,-48 -116,-59 -8,-12 -120,-67 -203,-100 -43,-17 -110,-51 -148,-76 -38,-25 -97,-59 -130,-76 -34,-17 -83,-46 -110,-65 -27,-19 -52,-34 -56,-34 -4,0 -70,-31 -147,-69 -78,-37 -163,-78 -191,-90 -27,-13 -66,-31 -86,-42 -20,-10 -44,-19 -54,-19 -9,0 -47,-15 -83,-34 -37,-19 -93,-44 -125,-56 -33,-11 -73,-31 -90,-44 -33,-24 -283,-166 -293,-166 -19,0 -254,-126 -254,-137 0,-7 -5,-13 -11,-13 -5,0 -7,4 -4,10 3,5 -7,3 -22,-5 -15,-8 -57,-28 -93,-44 -36,-16 -99,-45 -141,-64 -124,-57 -217,-97 -225,-97 -4,0 -36,-17 -70,-37 -44,-26 -60,-40 -51,-46 7,-5 3,-6 -11,-2 -16,5 -36,-3 -72,-30 -57,-42 -65,-40 -102,26 -12,22 -25,39 -28,39 -4,0 -31,39 -61,86 -30,47 -68,107 -86,132 -18,26 -53,77 -79,115 -25,37 -54,72 -65,77 -10,6 -19,15 -19,20 0,8 -56,92 -297,443 -38,55 -72,106 -78,115 -31,49 -69,102 -150,206 -108,141 -129,172 -122,189 3,8 45,26 94,41 48,16 93,32 98,36 6,5 44,18 85,30 41,12 102,34 135,49 33,15 83,38 112,51 29,13 54,29 57,37 3,8 14,13 23,11 11,-2 17,2 15,10 -1,8 3,12 10,10 14,-5 89,19 183,59 96,40 105,45 98,56 -3,6 -1,7 5,3 6,-4 22,0 34,8 13,8 50,22 83,31 33,9 87,30 121,45 34,16 86,36 117,45 30,9 73,25 95,35 23,11 45,20 50,20 16,0 158,69 143,70 -11,0 -9,4 5,15 19,15 19,15 -1,9 -11,-3 -39,-15 -62,-25 -24,-10 -45,-19 -48,-19 -2,0 -31,-13 -64,-29 -33,-16 -84,-34 -113,-41 -66,-16 -74,-20 -57,-32 10,-7 9,-8 -6,-4 -11,3 -42,-5 -70,-17 -27,-13 -84,-34 -125,-47 -41,-13 -88,-33 -105,-44 -44,-31 -135,-76 -154,-76 -9,0 -29,-7 -45,-15 -15,-8 -33,-15 -38,-15 -5,0 -36,-13 -70,-30 -33,-16 -64,-30 -69,-30 -5,0 -51,-20 -104,-45 -52,-25 -119,-52 -149,-59 -30,-8 -65,-20 -77,-26 -40,-22 -203,-63 -241,-61 -34,1 -38,-2 -54,-36 -10,-21 -21,-40 -25,-43 -3,-3 -19,-14 -34,-25 -16,-11 -43,-35 -62,-54 -19,-18 -59,-50 -91,-71 -31,-21 -70,-50 -87,-65 -61,-56 -163,-135 -172,-135 -6,0 -31,-19 -55,-42 -51,-50 -280,-209 -370,-257 -47,-26 -82,-70 -68,-86 7,-8 5,-26 -5,-56 -9,-24 -19,-73 -22,-109 -3,-36 -20,-110 -38,-165 -18,-55 -40,-136 -50,-180 -33,-159 -48,-211 -77,-274 -17,-34 -30,-79 -30,-100 0,-20 -8,-56 -19,-80 -10,-24 -19,-50 -19,-57 0,-7 -9,-28 -19,-46 -11,-17 -17,-36 -14,-41 3,-6 7,-60 9,-121 1,-61 6,-199 10,-306 8,-224 8,-222 5,-395 -2,-156 5,-517 13,-670 12,-220 13,-398 3,-437 -8,-33 -7,-41 9,-53 11,-8 30,-15 44,-15 36,-1 127,-31 190,-65 59,-31 139,-64 180,-73 13,-3 31,-11 38,-19 7,-7 22,-13 33,-13 10,0 19,-4 19,-10 0,-5 6,-10 14,-10 8,0 16,-6 19,-13 3,-8 77,-49 166,-93 88,-43 161,-83 161,-89 0,-11 189,-105 210,-105 15,0 77,-28 110,-50 14,-10 43,-23 65,-30 64,-21 236,-106 282,-139 24,-17 48,-31 55,-31 17,0 132,-54 167,-78 14,-10 45,-26 69,-35 23,-9 60,-28 82,-42 22,-14 40,-23 40,-20 0,3 17,-5 38,-18 20,-13 47,-27 60,-31 12,-4 37,-22 56,-40 23,-21 64,-42 121,-61 48,-16 89,-34 92,-41 5,-14 173,-112 236,-137 37,-16 46,-34 27,-53 -16,-16 0,-52 27,-59 29,-7 36,-3 40,28 2,12 14,31 26,42 58,53 125,104 157,120 19,10 55,35 80,56 25,20 73,52 105,70 66,35 181,114 187,127 1,4 31,25 65,46 35,20 66,43 70,49 5,7 34,30 66,52 32,21 77,57 100,78 23,22 86,66 139,99 53,32 100,67 103,77 3,11 40,43 83,72 110,75 159,116 159,134 0,8 -4,15 -7,15 -13,0 -30,-27 -22,-34 4,-4 3,-7 -3,-6 -5,1 -15,2 -21,1 -17,-2 -159,-113 -157,-122 2,-5 -4,-9 -13,-9 -9,0 -30,-15 -48,-34 -17,-19 -51,-45 -76,-59 -25,-14 -44,-30 -43,-36 2,-6 -3,-8 -10,-6 -17,7 -143,-103 -139,-121 2,-12 -2,-14 -18,-9 -22,7 -90,-36 -90,-56 0,-12 -30,-44 -30,-32 -1,4 -9,-2 -20,-15 -10,-12 -22,-21 -27,-20 -4,2 -42,-23 -83,-54 -41,-31 -93,-65 -114,-77 -22,-11 -42,-25 -46,-31 -4,-6 -15,-12 -24,-14 -10,-1 -21,-8 -25,-15 -5,-7 -12,-13 -17,-13 -20,-1 -34,-11 -34,-23 0,-8 -5,-17 -12,-21 -7,-5 -8,-3 -3,5 7,12 -44,-16 -55,-30 -3,-3 -14,-9 -26,-13 -12,-3 -40,-24 -63,-45 -22,-21 -41,-36 -41,-33 0,2 -11,-3 -25,-12 -31,-20 -41,-20 -50,1 -4,10 -9,128 -12,263 -3,223 -9,420 -17,620 -2,41 -6,95 -10,120 -17,131 -25,732 -11,925 4,57 13,110 22,123 7,12 11,27 8,31 -5,8 65,71 79,71 3,0 28,16 55,35 26,19 54,35 61,35 7,0 42,20 79,44 36,24 86,54 110,66 37,19 42,24 28,32 -21,11 -117,-37 -117,-60 0,-9 -6,-12 -16,-8 -9,4 -24,0 -33,-7 -9,-8 -43,-29 -76,-46 -32,-18 -71,-41 -86,-52 -15,-10 -41,-19 -58,-19 -44,0 -54,30 -76,235 -4,33 -13,87 -21,120 -7,33 -15,90 -18,127 -4,63 -21,116 -33,105 -3,-3 0,-21 5,-39 6,-18 11,-53 11,-78 2,-60 6,-96 19,-150 6,-25 16,-115 22,-200 7,-85 12,-157 13,-160 0,-3 -3,-13 -8,-23 -4,-9 -3,-23 2,-30 5,-7 6,-73 1,-162 -5,-82 -8,-193 -7,-245 3,-130 3,-146 -2,-215 -3,-65 8,-405 16,-439 7,-33 15,-237 21,-546 3,-156 7,-298 9,-315 1,-16 -2,-36 -8,-43 -6,-8 -7,-16 -1,-22 12,-12 6,-80 -7,-80 -10,0 -218,100 -284,138 -27,15 -72,37 -100,50 -50,22 -79,38 -100,57 -7,6 -45,25 -86,44 -41,18 -83,38 -94,44 -98,52 -258,132 -299,149 -28,12 -58,27 -66,33 -21,17 -223,118 -290,145 -30,12 -63,28 -74,36 -10,7 -25,10 -32,7 -8,-3 -14,1 -14,10 0,11 -26,24 -80,41 -44,15 -129,55 -188,90 -59,35 -154,88 -212,119 -58,30 -144,75 -193,101 -48,25 -94,46 -102,46 -13,0 -46,16 -180,87 -11,6 -40,21 -65,33 -75,38 -76,41 -89,159 -7,60 -12,137 -11,172 1,35 -3,82 -10,104 -6,22 -10,58 -9,80 2,22 2,72 0,110 -4,73 -5,241 -2,310 1,22 -1,93 -5,158 -5,83 -3,122 5,130 15,15 14,104 -1,109 -9,3 -12,77 -12,304 1,262 3,303 18,332 10,19 17,52 18,75 0,23 4,49 9,59 5,9 11,41 14,73 3,31 22,95 41,142 20,47 37,104 38,125 2,22 8,44 15,51 6,6 11,23 11,38 0,34 33,164 65,259 14,41 32,113 40,160 10,55 24,97 40,120 14,20 25,41 25,47 0,15 58,63 76,63 8,0 14,4 14,8 0,7 65,59 109,87 9,6 37,25 62,42 26,18 55,33 65,33 11,0 24,12 32,28 11,25 59,64 109,87 29,13 103,82 103,96 0,5 4,8 9,4 5,-3 38,20 73,50 34,30 68,55 74,55 6,0 38,27 72,59 70,69 124,89 149,55 7,-10 19,-26 26,-34 7,-8 39,-51 72,-95 33,-44 83,-107 112,-139 29,-33 53,-62 53,-66 0,-6 49,-83 125,-199 11,-16 53,-75 93,-130 39,-55 72,-102 72,-105 0,-8 60,-96 125,-181 34,-44 76,-104 94,-132 18,-29 37,-53 42,-53 5,0 9,-5 9,-12 0,-6 18,-35 40,-64 22,-29 40,-56 40,-59 0,-4 13,-25 28,-48 16,-23 32,-50 35,-60 4,-9 25,-41 47,-71 27,-35 43,-68 46,-93 7,-68 15,-107 29,-153 8,-25 16,-54 18,-65 2,-11 10,-40 17,-65 7,-25 13,-49 11,-53 -1,-5 10,-46 24,-92 14,-46 25,-101 25,-123 0,-23 5,-44 10,-47 6,-3 10,-18 10,-33 1,-15 7,-40 15,-57 12,-27 13,-28 10,-5 -2,14 -4,25 -5,25 -2,0 -8,41 -15,90 -7,50 -22,125 -34,169 -12,43 -19,81 -17,84 3,3 1,10 -4,17 -5,7 -12,25 -14,41 -2,16 -6,36 -9,44 -3,8 -12,44 -21,80 -18,69 -21,240 -4,240 5,0 19,10 32,23 12,12 42,32 67,45 24,13 64,34 89,47 25,13 71,35 103,50 32,15 54,31 51,37 -4,6 1,8 12,4 23,-7 70,16 67,32 -2,8 7,9 26,6 16,-4 32,-1 35,5 4,6 15,11 24,11 9,0 28,9 42,20 14,11 32,20 41,20 9,0 34,13 55,28 22,16 45,27 52,24 6,-2 12,1 12,7 0,6 8,11 18,11 9,0 30,7 46,15 15,8 34,15 41,15 7,0 19,7 26,16 7,9 22,20 34,25 11,5 27,13 35,18 8,5 42,21 75,37 33,15 93,47 133,71 41,24 76,43 79,43 3,0 17,9 32,19 40,28 116,68 159,82 20,7 70,27 110,46 39,18 79,33 87,33 20,0 65,22 65,32 0,4 5,8 11,8 5,0 29,9 52,19 23,10 73,33 111,50 38,17 90,44 115,59 25,16 62,34 81,41 19,6 53,24 75,39 51,34 127,77 185,104 25,12 75,41 111,65 36,23 69,43 73,43 9,0 109,44 161,72 22,11 92,47 155,80 63,33 122,66 131,74 25,22 246,112 257,105 11,-7 52,-137 57,-181 1,-14 10,-39 19,-56 8,-16 18,-48 21,-70 3,-21 9,-46 12,-54 4,-8 12,-46 19,-85 7,-38 24,-113 39,-165 14,-52 28,-129 31,-170 5,-73 20,-144 35,-165 4,-5 19,-60 35,-121 24,-94 26,-115 16,-140 -16,-38 -98,-94 -242,-167 -63,-32 -122,-64 -130,-71 -8,-7 -40,-25 -70,-40 -30,-16 -62,-34 -70,-41 -8,-7 -40,-26 -70,-42 -30,-16 -80,-45 -110,-64 -30,-19 -68,-41 -85,-49 -16,-8 -57,-33 -91,-56 -33,-23 -110,-70 -170,-105 -60,-35 -111,-67 -112,-71 -2,-5 -8,-6 -12,-3 -9,5 -17,2 -72,-27 -13,-6 -75,-38 -138,-71 -274,-141 -347,-179 -380,-200 -19,-12 -60,-34 -90,-47 -30,-13 -73,-35 -95,-49 -22,-13 -66,-38 -97,-54 -32,-16 -58,-33 -58,-38 0,-5 -7,-9 -16,-9 -9,0 -37,-14 -62,-32 -82,-56 -96,-64 -132,-78 -19,-7 -46,-21 -60,-30 -14,-9 -55,-31 -93,-49 -40,-19 -65,-37 -61,-43 5,-7 2,-8 -5,-4 -12,8 -187,-72 -213,-97 -7,-7 -26,-18 -43,-26 -28,-13 -29,-14 -10,-23 17,-7 34,-1 85,31 36,22 92,53 125,68 131,60 180,88 177,102 -2,9 3,11 13,7 19,-7 194,83 214,110 3,5 11,9 16,9 21,0 144,79 138,88 -4,6 -1,7 6,2 17,-10 93,25 87,41 -3,8 2,10 15,7 12,-3 29,3 42,15 12,11 33,23 47,27 34,10 121,65 116,74 -3,4 10,7 28,7 19,0 46,10 67,26 19,15 58,38 87,51 30,14 64,35 78,48 13,12 24,19 24,15 0,-4 12,-1 28,8 15,8 56,28 92,45 36,17 88,44 115,59 28,16 68,35 90,42 22,7 56,25 75,40 19,15 37,28 40,28 12,-1 107,59 132,83 15,15 30,24 33,21 3,-4 9,-2 13,3 4,6 23,18 42,27 47,23 116,64 165,96 22,15 58,36 80,48 22,11 56,29 75,39 19,10 61,36 92,58 32,21 73,43 91,48 18,5 42,17 53,27 10,10 45,29 77,42 31,13 57,27 57,30 0,4 12,12 27,19 32,15 53,0 33,-24 -7,-8 -10,-18 -7,-21 3,-3 1,-18 -5,-33 -5,-14 -12,-123 -14,-241 -2,-118 -6,-260 -9,-315 -6,-129 -19,-492 -30,-880 -6,-209 -11,-242 -39,-272 -15,-15 -26,-31 -26,-35 0,-5 -7,-8 -15,-8 -22,0 -84,-42 -90,-61 -5,-15 -20,-24 -78,-48 -16,-6 -63,-37 -105,-70 -42,-32 -104,-75 -137,-97 -92,-60 -160,-116 -157,-128 2,-6 0,-8 -3,-4 -13,12 -88,-32 -170,-100 -44,-36 -42,-34 -102,-76 -24,-16 -40,-33 -36,-39 3,-6 1,-7 -5,-3 -7,4 -42,-10 -79,-30 -90,-50 -154,-81 -178,-89 -13,-4 -16,-8 -7,-14 7,-4 -2,-7 -21,-7 -30,-1 -56,-16 -211,-124 -12,-8 -37,-27 -56,-42 -19,-15 -48,-31 -63,-37 -17,-7 -25,-15 -21,-23 4,-7 3,-8 -4,-4 -14,9 -42,-6 -108,-56 -28,-21 -51,-45 -51,-53 0,-22 10,-19 63,24 27,21 81,54 120,74 39,19 90,51 115,69 83,63 184,126 252,157 38,17 66,34 63,39 -3,5 5,7 19,5 17,-4 51,13 127,64 57,39 121,80 143,93 22,13 61,42 86,64 26,23 73,57 105,76 33,19 88,55 124,79 35,25 80,54 100,65 19,10 60,42 91,70 30,28 82,64 115,80 32,16 77,43 99,61 22,18 73,49 113,70 92,47 131,95 77,95 -22,0 -25,5 -27,38 -1,20 -1,51 0,67 4,72 5,116 4,215 -2,161 -2,164 -8,183 -3,9 -2,17 3,17 4,0 9,30 11,68 1,37 4,97 7,134 2,37 0,81 -5,98 -5,18 -5,43 2,63 5,17 11,91 13,163 1,73 5,137 9,143 4,5 6,59 5,118 -1,124 0,178 6,213 2,14 7,50 10,80 4,30 13,64 20,75 30,48 33,150 7,225 -10,30 -24,84 -31,120 -7,36 -20,81 -29,100 -8,19 -21,82 -29,140 -7,58 -20,131 -28,163 -8,32 -15,69 -15,82 0,13 -5,27 -10,30 -6,4 -10,12 -9,18 2,7 -5,37 -13,67 -13,45 -81,323 -83,340 0,3 -6,15 -13,27 -14,26 -20,111 -8,134 5,12 0,24 -18,40 -52,47 -269,268 -295,300 -14,18 -60,74 -101,124 -41,51 -82,102 -90,115 -8,13 -41,55 -73,94 -32,39 -83,103 -114,141 -56,70 -86,104 -161,182 -22,23 -53,59 -68,80 -16,21 -43,55 -61,76 -18,20 -33,43 -33,50 0,17 -46,57 -65,57 -9,0 -18,-7 -20,-15 z"
           id="path8" />
      </g>
      <path
         style="color:#000000;fill:#cb3c32;fill-opacity:1;fill-rule:nonzero;stroke:#c42836;stroke-width:0;stroke-linecap:square;stroke-linejoin:round;stroke-miterlimit:4;stroke-opacity:1;stroke-dasharray:none;stroke-dashoffset:0;marker:none;visibility:visible;display:inline;overflow:visible;enable-background:accumulate"
         id="path2989"
         d="m 446.15046,481.8278 c -0.0124,0.52459 -0.0301,1.04513 0.0691,1.56202 0.13752,0.55777 0.32547,1.09947 0.43978,1.66324 0.10037,0.53746 0.0927,1.08615 0.0988,1.63058 -0.021,0.51323 0.077,1.0116 0.2555,1.49006 0.2166,0.53346 0.2805,1.10274 0.32279,1.67166 0.009,0.43556 0.018,0.88446 0.45039,1.09117 0.18867,0.10258 0.093,0.0561 0.28688,0.13986 0,0 -1.17972,0.78261 -1.17972,0.78261 l 0,0 c -0.19888,-0.0944 -0.10147,-0.0445 -0.29235,-0.14949 -0.44457,-0.27378 -0.51391,-0.72053 -0.50949,-1.2187 -0.0397,-0.55537 -0.0965,-1.11232 -0.30993,-1.63268 -0.18728,-0.49199 -0.2954,-1.00726 -0.27301,-1.53661 -0.004,-0.53591 -0.004,-1.07512 -0.0911,-1.60546 -0.10692,-0.56577 -0.29233,-1.10775 -0.43619,-1.66412 -0.11133,-0.52267 -0.0946,-1.04738 -0.0961,-1.57978 0,0 1.26462,-0.64436 1.26462,-0.64436 z"
         inkscape:connector-curvature="0"
         transform="scale(0.8,0.8)" />
    </g>
    <g
       id="g2995">
      <g
         id="g3766"
         transform="translate(0,3)">
        <path
           transform="scale(0.8,0.8)"
           inkscape:connector-curvature="0"
           d="m 508.84193,539.11976 c 0.89877,-0.65585 1.92396,-1.1514 2.89573,-1.66845 0.39303,-0.20912 0.8261,-0.33889 1.22617,-0.53611 0.8621,-0.40234 0.5443,-0.26502 -1.2236,0.72937 -0.086,0.0484 0.17011,-0.0999 0.25414,-0.15159 0.1401,-0.0861 0.36019,-0.23237 0.50362,-0.31352 0.70189,-0.39712 1.4071,-0.78834 2.11065,-1.1825 0.71827,-0.23194 2.01874,-0.92304 -1.12406,0.71907 -0.0664,0.0347 0.11729,-0.0945 0.16618,-0.15128 0.12693,-0.14732 0.14234,-0.2295 0.21433,-0.40836 0.14141,-0.54148 0.11398,-1.10192 0.21808,-1.6502 0.40381,-1.13428 1.78332,-1.84544 2.97364,-1.74975 0.0962,0.0107 0.19233,0.0214 0.2885,0.0321 0,0 -1.75447,1.25015 -1.75447,1.25015 l 0,0 c -0.0941,-0.007 -0.18826,-0.0138 -0.28238,-0.0207 -0.0867,0.002 -0.17406,-0.006 -0.26015,0.005 -0.077,0.009 -0.29096,0.0972 -0.22604,0.0548 3.45691,-2.25652 1.46886,-1.09745 1.20149,-0.51146 -0.12019,0.55557 -0.1093,1.11458 -0.20542,1.67419 -0.35383,1.25524 -1.75606,1.64258 -2.89448,2.0988 0.52799,-0.31094 1.05703,-0.62013 1.58399,-0.93283 0.17006,-0.10092 -0.33718,0.20674 -0.50418,0.31265 -0.8772,0.55635 -1.76877,1.10324 -2.71627,1.53129 -0.88612,0.39973 0.16765,-0.07 -0.79567,0.34017 -0.1442,0.0614 -0.55952,0.27872 -0.42963,0.19101 2.66118,-1.79714 1.4197,-0.81655 0.78325,-0.46536 0,0 -2.00342,0.80399 -2.00342,0.80399 z"
           id="path3764"
           style="color:#000000;fill:#cb3c32;fill-opacity:1;fill-rule:nonzero;stroke:#c42836;stroke-width:0;stroke-linecap:square;stroke-linejoin:round;stroke-miterlimit:4;stroke-opacity:1;stroke-dasharray:none;stroke-dashoffset:0;marker:none;visibility:visible;display:inline;overflow:visible;enable-background:accumulate" />
      </g>
      <path
         style="color:#000000;fill:#cfcfcf;fill-opacity:1;fill-rule:nonzero;stroke:#c42836;stroke-width:0;stroke-linecap:square;stroke-linejoin:round;stroke-miterlimit:4;stroke-opacity:1;stroke-dasharray:none;stroke-dashoffset:0;marker:none;visibility:visible;display:inline;overflow:visible;enable-background:accumulate"
         d="m 371.62505,662.86741 c -0.36164,-3.97896 -1.14455,-24.35605 -1.73979,-45.28243 -0.59525,-20.92637 -1.55239,-44.31783 -2.12696,-51.98101 -1.35079,-18.01547 -1.41296,-88.41784 -0.0842,-95.38784 2.20309,-11.55666 2.84273,-12.23239 22.07522,-23.32146 20.97467,-12.09356 21.97136,-12.71778 21.97136,-13.7606 0,-0.53124 0.65141,-0.96589 1.44759,-0.96589 1.84604,0 32.67508,-15.79094 35.5286,-18.19809 1.17895,-0.99454 4.34444,-2.61763 7.03444,-3.60685 2.69,-0.98922 7.51297,-3.4439 10.71773,-5.45484 3.20476,-2.01095 8.23833,-4.93726 11.18571,-6.50291 2.94738,-1.56567 6.89416,-4.01438 8.77062,-5.44157 1.87646,-1.42721 4.31758,-2.59491 5.42472,-2.59491 1.10712,0 3.04833,-0.9646 4.31379,-2.14355 1.26546,-1.17895 2.79667,-2.14355 3.40273,-2.14355 1.43502,0 18.59219,-9.48929 19.33747,-10.69517 0.31422,-0.50841 2.01337,-1.2748 3.7759,-1.70308 2.986,-0.7256 18.35239,-8.91422 21.96061,-11.70264 0.88421,-0.68332 10.04788,-5.26142 20.3637,-10.17355 17.77282,-8.46297 30.77122,-15.66472 38.13266,-21.12739 1.81502,-1.34686 5.67341,-3.69716 8.5742,-5.2229 4.74706,-2.49681 11.5238,-6.43964 39.5709,-23.02307 4.7158,-2.78831 10.50338,-6.00511 12.86128,-7.14844 2.3579,-1.14332 8.32474,-4.3322 13.25966,-7.08639 9.67484,-5.39957 12.61955,-6.20635 11.43162,-3.13202 -1.39388,3.60735 -2.53974,19.22272 -3.20485,43.67477 -1.27512,46.87841 -3.77374,115.77663 -4.43727,122.35515 -0.81178,8.04849 -3.3402,12.4714 -8.70086,15.22021 -2.23367,1.14536 -5.26041,3.36706 -6.72611,4.9371 -1.4657,1.57004 -4.84178,3.95673 -7.50241,5.30377 -4.94647,2.50432 -33.76332,22.60548 -38.59838,26.92425 -1.47369,1.31633 -4.36747,3.23148 -6.43064,4.2559 -4.37518,2.17239 -24.78505,17.45152 -26.04376,19.49673 -0.4714,0.76596 -1.45779,1.39264 -2.19199,1.39264 -1.88599,0 -24.74147,11.7559 -25.17429,12.94859 -0.1965,0.54146 -1.4076,0.98447 -2.69136,0.98447 -1.28376,0 -9.56321,4.8711 -18.39878,10.82466 -8.83557,5.95356 -17.04508,11.20708 -18.24336,11.67448 -2.83336,1.10516 -12.57346,8.48478 -13.69584,10.37669 -0.47834,0.8063 -1.35482,1.16618 -1.94775,0.79974 -0.59292,-0.36645 -1.34297,0.34686 -1.66679,1.58511 -0.32382,1.23826 -1.45378,2.25139 -2.51105,2.25139 -1.81322,0 -11.40789,6.74999 -15.02841,10.57269 -0.913,0.96398 -2.3993,2.235 -3.30288,2.82448 -8.07904,5.27056 -20.71415,15.0542 -25.95272,20.09575 -3.52196,3.38948 -7.36507,6.1627 -8.54025,6.1627 -1.17519,0 -3.89295,1.90237 -6.03947,4.22747 -2.14653,2.3251 -12.32128,9.80046 -22.61056,16.61189 -10.28927,6.81143 -19.47168,13.10813 -20.40534,13.99268 -0.93366,0.88454 -2.042,1.60825 -2.46298,1.60825 -0.77044,0 -7.89463,4.56072 -16.63237,10.64758 -2.59398,1.80702 -5.31824,3.28548 -6.05392,3.28548 -0.87191,0 -1.56652,-2.51874 -1.99512,-7.23447 z"
         id="path3771"
         inkscape:connector-curvature="0" />
      <path
         style="color:#000000;fill:#e8e8e8;fill-opacity:1;fill-rule:nonzero;stroke:#c42836;stroke-width:0;stroke-linecap:square;stroke-linejoin:round;stroke-miterlimit:4;stroke-opacity:1;stroke-dasharray:none;stroke-dashoffset:0;marker:none;visibility:visible;display:inline;overflow:visible;enable-background:accumulate"
         d="M 338.00776,653.95458 C 275.2074,622.01372 225.25782,597.22129 223.70664,597.22129 c -0.92946,0 -1.68991,-0.38743 -1.68991,-0.86095 0,-0.47352 -3.73781,-2.3955 -8.30624,-4.27106 -4.56844,-1.87557 -15.78187,-7.54477 -24.91874,-12.59822 -9.13687,-5.05347 -23.60581,-12.57649 -32.15321,-16.71786 -27.6946,-13.4185 -39.06975,-19.3801 -41.62816,-21.81694 -2.21744,-2.11208 -2.62244,-3.86713 -3.49121,-15.12921 -0.54054,-7.00699 -1.45019,-17.56296 -2.02144,-23.45771 -0.57126,-5.89476 -1.04929,-26.39243 -1.0623,-45.55038 -0.028,-41.2532 0.0206,-35.97287 -0.67646,-73.41648 -0.46016,-24.71646 -0.27353,-31.04939 1.05811,-35.90441 0.88925,-3.24212 2.38474,-10.23544 3.32331,-15.54072 0.93858,-5.30528 3.08584,-13.74549 4.77171,-18.75603 3.07244,-9.13158 3.96487,-12.32153 9.29499,-33.22498 1.57825,-6.18949 4.43132,-17.35208 6.34017,-24.80576 4.01804,-15.6896 8.10268,-24.03619 13.03624,-26.63839 1.87764,-0.99036 5.11688,-3.2959 7.19832,-5.12342 4.61184,-4.04926 15.12948,-11.12079 19.07281,-12.8236 1.58988,-0.68655 3.68717,-2.46385 4.66065,-3.94955 0.97347,-1.48572 4.25449,-4.21924 7.29115,-6.07451 3.03667,-1.85527 7.96868,-5.60521 10.96003,-8.3332 2.99136,-2.72798 9.37733,-7.79895 14.19105,-11.26881 4.81373,-3.46986 9.35958,-7.04889 10.1019,-7.95341 1.99602,-2.43217 10.61594,-7.70911 12.59287,-7.70911 0.94242,0 3.62122,2.52986 5.95287,5.62192 2.33167,3.09205 8.31385,10.67588 13.29376,16.85295 4.97991,6.17706 11.97927,15.82523 15.55412,21.44036 8.40659,13.20443 21.6384,32.44691 36.76105,53.46004 21.64328,30.07363 36.36296,53.84962 37.33438,60.30437 0.38854,2.58172 3.29804,15.13909 6.46553,27.90528 3.16751,12.76617 5.7591,24.25246 5.7591,25.52508 0,1.2726 0.44977,3.15424 0.99949,4.18141 1.52783,2.85475 5.25961,27.33197 8.19071,53.72373 1.44349,12.99714 1.61031,22.82061 1.01926,60.01931 -0.55534,34.95131 -0.34778,49.93005 0.969,69.92897 0.92165,13.99769 1.97205,42.815 2.33425,64.03846 0.60234,35.29564 0.50877,38.5881 -1.09666,38.5881 -0.96536,0 -13.19697,-5.8194 -27.18138,-12.93198 z"
         id="path3779"
         inkscape:connector-curvature="0" />
      <path
         style="color:#000000;fill:#e8e8e8;fill-opacity:1;fill-rule:nonzero;stroke:#c42836;stroke-width:0;stroke-linecap:square;stroke-linejoin:round;stroke-miterlimit:4;stroke-opacity:1;stroke-dasharray:none;stroke-dashoffset:0;marker:none;visibility:visible;display:inline;overflow:visible;enable-background:accumulate"
         d="m 369.12871,450.12038 c -1.40638,-1.78556 -2.07659,-4.81326 -3.99579,-18.05132 -3.60645,-24.87607 -4.92693,-32.88512 -6.43347,-39.02062 -0.86847,-3.53685 -2.82774,-13.18282 -4.35394,-21.43547 -1.5262,-8.25266 -4.19535,-20.39829 -5.93145,-26.99029 -1.73609,-6.59201 -3.46563,-16.33995 -3.8434,-21.66211 l -0.68688,-9.67665 3.40647,-3.18212 c 1.87356,-1.75015 8.81721,-5.93678 15.43033,-9.30362 6.61312,-3.36684 13.30407,-7.01761 14.86875,-8.11281 1.56469,-1.09522 3.78085,-1.9913 4.92481,-1.9913 1.14396,0 2.96828,-0.9816 4.05402,-2.18134 1.08575,-1.19974 2.66954,-1.91448 3.51953,-1.58831 0.84998,0.32617 7.63259,-2.47437 15.07245,-6.22342 7.43986,-3.74906 15.39559,-7.43219 17.6794,-8.18474 2.2838,-0.75256 6.38333,-2.70494 9.11007,-4.33864 7.16743,-4.2943 40.36608,-22.38128 47.29275,-25.7656 3.24211,-1.58408 10.47658,-4.67331 16.0766,-6.86497 21.41678,-8.38181 52.71404,-24.09609 83.06245,-41.70544 4.12633,-2.39426 16.05183,-8.5711 26.50112,-13.7263 10.44929,-5.15521 22.74789,-11.52486 27.33022,-14.15478 8.59222,-4.9313 25.79948,-12.45346 28.48783,-12.45346 1.5412,0 1.84745,0.84802 8.12854,22.50724 4.15105,14.31419 11.50274,47.34837 12.91412,58.02844 0.59534,4.50503 2.26965,11.82789 3.72068,16.27302 4.2591,13.04738 5.48098,20.71089 3.8023,23.84755 -1.74288,3.25661 -8.54274,7.82716 -24.60705,16.53976 -16.99966,9.21989 -47.10179,26.88035 -70.57962,41.40801 -10.81869,6.69441 -20.11169,12.17166 -20.6511,12.17166 -2.50468,0 -80.30092,40.74247 -95.25787,49.88725 -8.58278,5.24758 -17.78384,10.3171 -40.1915,22.14437 -1.76842,0.93342 -8.03142,4.03146 -13.91775,6.88456 -5.88634,2.85309 -11.45217,5.91777 -12.36851,6.81039 -0.91636,0.89264 -3.95325,2.70947 -6.74867,4.03742 -2.79541,1.32796 -5.35968,3.13657 -5.69836,4.01916 -0.33868,0.88258 -1.47625,1.60468 -2.52793,1.60468 -1.05168,0 -6.40117,2.65264 -11.88775,5.89476 -10.05218,5.94001 -13.76268,7.01644 -15.7014,4.55504 l 0,0 z"
         id="path3787"
         inkscape:connector-curvature="0" />
      <path
         style="color:#000000;fill:#ffa3a4;fill-opacity:1;fill-rule:nonzero;stroke:#c42836;stroke-width:0;stroke-linecap:square;stroke-linejoin:round;stroke-miterlimit:4;stroke-opacity:1;stroke-dasharray:none;stroke-dashoffset:0;marker:none;visibility:visible;display:inline;overflow:visible;enable-background:accumulate"
         d="m 367.88479,447.97683 c -0.62212,-1.9158 -2.60488,-13.37037 -4.40613,-25.45462 -1.80125,-12.08424 -3.8132,-23.90055 -4.471,-26.25845 -0.6578,-2.3579 -1.37166,-5.71058 -1.58635,-7.4504 -0.66855,-5.41766 -5.70697,-29.4383 -9.11567,-43.45884 -1.79143,-7.36844 -3.51138,-17.80797 -3.82211,-23.19893 l -0.56497,-9.80177 5.2311,-3.82526 c 5.7529,-4.20684 29.30324,-16.82943 33.76624,-18.09814 1.54693,-0.43976 3.4146,-1.52493 4.15039,-2.41149 0.73578,-0.88657 2.35833,-1.61195 3.60566,-1.61195 2.10719,0 29.73056,-12.44061 38.19706,-17.20263 2.06316,-1.16044 8.09189,-4.33789 13.39717,-7.06101 5.30528,-2.72312 15.43353,-8.2183 22.50724,-12.21151 7.0737,-3.99321 18.89,-9.74488 26.25844,-12.78149 26.54326,-10.93876 48.43128,-21.66689 78.23947,-38.34808 12.67372,-7.09244 24.97233,-13.69671 27.33022,-14.67615 2.35791,-0.97944 14.65651,-7.26799 27.33023,-13.97455 22.24582,-11.77184 36.58099,-17.93283 38.12737,-16.38644 2.51647,2.51646 17.25352,61.67925 19.81061,79.5309 0.67092,4.6838 2.6239,13.07726 4.33994,18.65212 1.71605,5.57486 3.4201,12.68871 3.78677,15.80857 1.00276,8.53194 1.76075,7.9273 -38.19858,30.47155 -19.28992,10.88299 -63.27463,37.0773 -70.31615,41.87555 -2.42113,1.64981 -6.77379,3.90085 -9.67256,5.00229 -5.16204,1.96141 -66.22137,33.72459 -81.60328,42.45018 -4.28588,2.43121 -9.10887,5.14988 -10.71774,6.04148 -1.60888,0.89159 -5.81902,3.34989 -9.35587,5.46289 -7.39417,4.41743 -23.70405,13.09085 -44.40564,23.61441 -7.91779,4.02498 -14.66996,7.7202 -15.00483,8.2116 -0.33487,0.49139 -2.85667,1.96751 -5.604,3.28028 -2.74734,1.31275 -5.26427,3.08811 -5.59318,3.94524 -0.3289,0.85712 -1.38086,1.5584 -2.33766,1.5584 -0.95681,0 -6.38273,2.65264 -12.05761,5.89476 -12.23536,6.99018 -15.60471,7.46136 -17.24458,2.41149 z"
         id="path3789"
         inkscape:connector-curvature="0" />
      <path
         style="color:#000000;fill:#cb3c32;fill-opacity:1;fill-rule:nonzero;stroke:#c42836;stroke-width:0;stroke-linecap:square;stroke-linejoin:round;stroke-miterlimit:4;stroke-opacity:1;stroke-dasharray:none;stroke-dashoffset:0;marker:none;visibility:visible;display:inline;overflow:visible;enable-background:accumulate"
         id="path3803"
         d="m 389.31642,95.912312 c 0.93978,-0.73224 1.98581,-1.128336 3.10479,-1.425944 0.7019,-0.228336 1.43812,-0.286448 2.16019,-0.41376 0.55694,-0.0456 1.03162,-0.335864 1.54585,-0.516752 0.43106,-0.157072 0.815,-0.403688 1.25477,-0.537184 0.34864,-0.199856 0.73318,-0.275416 1.12716,-0.319112 0.21575,-0.04328 0.41832,-0.09767 0.61958,-0.185504 0,0 -1.26628,0.991656 -1.26628,0.991656 l 0,0 c -0.21058,0.0676 -0.42258,0.12484 -0.64216,0.156328 -0.38838,0.05952 -0.75234,0.176088 -1.10819,0.3438 -0.4259,0.158032 -0.81779,0.393312 -1.24935,0.539376 -0.50822,0.199672 -1.0014,0.439368 -1.55605,0.486352 -0.72283,0.115832 -1.45235,0.200544 -2.15229,0.427976 -0.32892,0.09288 -0.65374,0.19368 -0.97603,0.307824 -0.10272,0.0364 -0.39674,0.174416 -0.30679,0.11292 0.30305,-0.20716 1.64252,-0.977928 0.94542,-0.564752 0,0 -1.50062,0.596776 -1.50062,0.596776 z"
         inkscape:connector-curvature="0" />
      <path
         style="color:#000000;fill:#ffa3a4;fill-opacity:1;fill-rule:nonzero;stroke:#c42836;stroke-width:0;stroke-linecap:square;stroke-linejoin:round;stroke-miterlimit:4;stroke-opacity:1;stroke-dasharray:none;stroke-dashoffset:0;marker:none;visibility:visible;display:inline;overflow:visible;enable-background:accumulate"
         d="m 337.8681,305.56906 c -1.08019,-1.55457 -2.70194,-3.85928 -3.60386,-5.12158 -0.90193,-1.2623 -6.41181,-9.37705 -12.24418,-18.03279 -11.39917,-16.91737 -15.47633,-22.50378 -17.79487,-24.38203 -0.8091,-0.65546 -2.46121,-2.81469 -3.67135,-4.79829 -5.59275,-9.16735 -42.10013,-62.07328 -51.13107,-74.09837 -11.44482,-15.23924 -12.65441,-17.25132 -11.22251,-18.66782 0.97398,-0.96349 12.32092,-5.28333 28.48827,-10.84561 11.21284,-3.85773 24.72493,-9.88744 27.99433,-12.49239 1.33131,-1.06072 2.84892,-1.9286 3.37247,-1.9286 0.52354,0 1.12175,-0.44263 1.32934,-0.98361 0.2076,-0.54099 1.10978,-0.9836 2.00484,-0.9836 3.15297,0 24.83436,-8.49891 26.61049,-10.43106 0.54098,-0.58851 2.01639,-1.41493 3.27869,-1.8365 3.91368,-1.30703 19.27075,-6.99096 36.39344,-13.46987 17.27509,-6.53656 23.57765,-9.396028 25.321,-11.4881 0.6582,-0.789864 2.30521,-1.435824 4.35385,-1.707592 1.81234,-0.240408 4.37362,-1.168976 5.69173,-2.063472 1.31812,-0.894504 2.70504,-1.62636 3.08205,-1.62636 1.70994,0 14.14746,-4.75648 30.22859,-11.560302 15.24839,-6.451502 28.37371,-11.3905 30.27014,-11.390516 1.62511,-1.3e-5 20.18531,-8.453068 25.20605,-11.479839 3.2752,-1.974469 10.59401,-5.326791 16.97524,-7.775368 6.16972,-2.367425 14.26763,-5.678973 17.99534,-7.358998 13.37225,-6.026679 25.33144,-10.315578 31.84103,-11.419079 l 3.42404,-0.58044 4.01878,4.185141 c 2.21033,2.301827 4.93395,5.457127 6.05249,7.011778 1.11855,1.554649 4.28189,5.334833 7.02966,8.400407 6.92162,7.722182 15.47185,18.114992 29.13187,35.40984 6.4093,8.114752 12.67539,15.934424 13.92465,17.37705 1.24927,1.44262 4.45414,5.33193 7.12196,8.64293 2.66782,3.31099 9.30884,10.80791 14.75782,16.65984 5.449,5.85192 10.38728,11.40523 10.97396,12.34068 0.58669,0.93544 1.89116,2.67009 2.8988,3.85477 2.30472,2.70961 2.31171,3.89531 0.0288,4.88707 -0.9918,0.43088 -2.68852,1.40882 -3.77049,2.17322 -1.08197,0.7644 -3.44263,1.9148 -5.2459,2.55646 -4.53958,1.61528 -17.85013,8.6024 -20.76916,10.90236 -1.32466,1.04372 -4.02343,2.50192 -5.99725,3.24042 -1.97382,0.7385 -5.41912,2.52574 -7.65623,3.97166 -5.21653,3.3716 -7.99233,4.79564 -20.0652,10.2939 -5.44373,2.47919 -12.08307,5.78935 -14.75409,7.35593 -2.67104,1.56656 -7.9548,4.6083 -11.74168,6.75943 -3.78688,2.15113 -9.43535,5.4973 -12.55215,7.43594 -6.69709,4.16557 -47.62395,23.72317 -55.64457,26.59071 -3.06557,1.09601 -7.21527,2.82065 -9.22156,3.83252 -2.00628,1.01187 -6.4333,2.99907 -9.83782,4.416 -3.40451,1.41692 -11.78941,5.87685 -18.6331,9.91097 -6.84369,4.03412 -18.3511,10.25828 -25.57202,13.83146 -13.64299,6.75108 -20.6699,10.8013 -20.6699,11.91386 0,0.35717 -0.5608,0.4714 -1.24624,0.25384 -0.79141,-0.25117 -4.68032,1.19414 -10.65574,3.96022 -14.1333,6.54246 -33.45623,15.12983 -35.31114,15.69276 -2.89762,0.87936 -11.41655,5.78436 -13.32912,7.67459 -1.01955,1.00763 -2.52298,1.83206 -3.34096,1.83206 -0.81799,0 -3.2626,1.14747 -5.43247,2.54993 -6.00913,3.88388 -6.38804,3.91025 -8.68508,0.60444 l 0,0 z"
         id="path3805"
         inkscape:connector-curvature="0" />
      <path
         style="color:#000000;fill:#ffa3a4;fill-opacity:1;fill-rule:nonzero;stroke:#c42836;stroke-width:0;stroke-linecap:square;stroke-linejoin:round;stroke-miterlimit:4;stroke-opacity:1;stroke-dasharray:none;stroke-dashoffset:0;marker:none;visibility:visible;display:inline;overflow:visible;enable-background:accumulate"
         d="m 368.9323,450.1069 c -0.69309,-0.81846 -1.17604,-1.80854 -1.07323,-2.20017 0.10282,-0.39163 -0.11593,-1.07699 -0.48611,-1.52303 -0.37018,-0.44604 -0.49162,-0.99243 -0.26987,-1.21417 0.22176,-0.22176 0.18125,-0.93231 -0.09,-1.57902 -0.27126,-0.64669 -0.58642,-1.76598 -0.70034,-2.48729 -0.11393,-0.72132 -0.65868,-4.2623 -1.21056,-7.86885 -0.98199,-6.41737 -3.38072,-21.07357 -5.35868,-32.74131 -0.546,-3.22084 -1.17856,-6.15676 -1.4057,-6.52427 -0.22714,-0.36751 -0.47154,-1.27326 -0.54314,-2.01279 -0.51319,-5.3007 -5.60814,-30.00508 -9.26317,-44.91523 -0.92347,-3.76713 -1.67903,-7.52943 -1.67903,-8.36066 0,-0.83122 -0.26382,-1.51132 -0.58627,-1.51132 -0.32244,0 -0.40111,-0.7377 -0.17481,-1.63934 0.24237,-0.9657 0.12972,-1.63935 -0.27415,-1.63935 -0.42288,0 -0.53653,-0.91853 -0.29661,-2.39704 0.22352,-1.37739 0.13484,-2.23996 -0.20848,-2.02777 -0.3286,0.20309 -0.6404,-1.00513 -0.69289,-2.68493 -0.0525,-1.67981 -0.30599,-5.57301 -0.56335,-8.65156 l -0.46792,-5.59737 2.94148,-2.41033 c 1.61782,-1.32568 3.08067,-2.27114 3.25078,-2.10103 0.1701,0.17011 1.05342,-0.35758 1.96294,-1.17264 0.9095,-0.81505 2.06231,-1.5719 2.56179,-1.68189 0.49948,-0.10998 1.23241,-0.6218 1.62872,-1.13735 0.39632,-0.51556 0.91271,-0.74525 1.14754,-0.51041 0.23483,0.23484 0.42697,0.0653 0.42697,-0.37676 0,-0.44205 0.29508,-0.62136 0.65574,-0.39846 0.36065,0.2229 0.65573,0.0754 0.65573,-0.32787 0,-0.40323 0.26988,-0.56634 0.59973,-0.36248 0.32986,0.20386 0.6987,0.12177 0.81967,-0.18241 0.20695,-0.52038 14.00957,-7.62854 22.38599,-11.52846 2.09296,-0.97446 3.94432,-2.1338 4.11413,-2.57632 0.16982,-0.44253 1.01018,-0.86265 1.86747,-0.9336 2.70475,-0.22385 20.4042,-7.49145 21.36056,-8.77089 0.18032,-0.24126 0.4754,-0.42351 0.65573,-0.40503 0.87519,0.0897 3.27869,-0.96704 3.27869,-1.44153 0,-0.29621 1.04099,-0.73386 2.3133,-0.97255 1.414,-0.26527 2.14328,-0.70909 1.87594,-1.14165 -0.24499,-0.39641 -0.0739,-0.58652 0.38899,-0.43223 0.45449,0.1515 3.13383,-0.91677 5.95409,-2.37394 16.37481,-8.46054 22.06523,-11.47836 33.39654,-17.71137 6.90438,-3.79788 12.82852,-6.90525 13.16474,-6.90525 0.33622,0 0.61132,-0.31249 0.61132,-0.69444 0,-0.38193 0.29508,-0.51206 0.65574,-0.28916 0.36065,0.2229 0.65573,0.0436 0.65573,-0.39846 0,-0.44205 0.18305,-0.62068 0.40677,-0.39695 0.4582,0.45819 8.33194,-3.33463 8.65199,-4.1677 0.11347,-0.29534 0.62986,-0.37445 1.14755,-0.1758 0.51768,0.19866 0.94124,0.0171 0.94124,-0.40341 0,-0.42052 0.29508,-0.58222 0.65573,-0.35932 0.36066,0.2229 0.65574,0.0436 0.65574,-0.39846 0,-0.44205 0.19776,-0.60597 0.43945,-0.36426 0.24171,0.2417 1.15184,-0.0273 2.0225,-0.59779 0.87067,-0.57049 6.35113,-2.95694 12.1788,-5.30323 5.82767,-2.34629 10.74542,-4.50813 10.92833,-4.80407 0.18291,-0.29596 0.62764,-0.61329 0.98829,-0.70519 4.01572,-1.02322 32.7833,-15.27523 48.2576,-23.90772 6.278,-3.50225 13.99418,-7.80863 17.14708,-9.56973 3.15289,-1.76111 6.02994,-3.20201 6.39344,-3.20201 0.3635,0 0.6609,-0.28946 0.6609,-0.64324 0,-0.35378 0.7377,-0.8284 1.63934,-1.0547 0.90164,-0.22629 1.63935,-0.69196 1.63935,-1.0348 0,-0.34284 0.29509,-0.44097 0.65574,-0.21808 0.36066,0.2229 0.65574,0.0928 0.65574,-0.28916 0,-0.38195 0.22131,-0.63598 0.4918,-0.56452 0.92245,0.24368 3.44262,-0.87217 3.44262,-1.52429 0,-0.35763 0.29508,-0.46787 0.65574,-0.24498 0.36065,0.2229 0.65574,0.0928 0.65574,-0.28917 0,-0.38194 0.22131,-0.63745 0.4918,-0.5678 0.77155,0.19864 40.94531,-20.27365 42.55307,-21.68479 0.4124,-0.36195 0.9288,-0.47911 1.14755,-0.26035 0.21876,0.21876 0.39774,0.0361 0.39774,-0.40598 0,-0.44206 0.27583,-0.63326 0.61296,-0.42491 0.73774,0.45595 6.60015,-2.29199 6.60015,-3.09374 0,-0.31007 0.29509,-0.3814 0.65575,-0.15851 0.36065,0.2229 0.65573,0.15557 0.65573,-0.14962 0,-0.30519 0.63739,-0.6029 1.41641,-0.66159 0.77903,-0.0587 1.65975,-0.49033 1.95717,-0.95921 0.29742,-0.46889 0.54529,-0.59508 0.55081,-0.28043 0.006,0.31465 0.40604,0.24344 0.89005,-0.15824 0.484,-0.40169 1.07416,-0.53619 1.31147,-0.29887 0.2373,0.2373 0.43147,0.0698 0.43147,-0.37226 0,-0.44206 0.2747,-0.63396 0.61042,-0.42646 0.33574,0.20749 0.79876,0.0726 1.02892,-0.29987 0.23017,-0.37242 0.6728,-0.51997 0.98361,-0.32787 0.31081,0.1921 0.75343,0.0446 0.98361,-0.32787 0.23017,-0.37242 0.67279,-0.51996 0.9836,-0.32787 0.31082,0.19209 0.73334,0.077 0.93895,-0.25561 0.20561,-0.33268 0.95447,-0.45303 1.66415,-0.26745 1.63184,0.42674 3.42007,5.07473 6.1299,15.9329 1.1251,4.5082 2.27802,8.29569 2.56204,8.41666 0.28402,0.12097 0.35898,0.47469 0.16655,0.78603 -0.50964,0.82462 1.04156,6.53501 1.7752,6.53501 0.34215,0 0.44266,0.56534 0.22335,1.2563 -0.2193,0.69096 -0.10453,1.43811 0.25504,1.66034 0.35958,0.22222 0.499,0.80738 0.30984,1.30033 -0.18916,0.49295 -0.0167,1.0985 0.38318,1.34566 0.39991,0.24716 0.55558,0.98988 0.3459,1.65049 -0.20967,0.66061 -0.0693,1.39386 0.31189,1.62946 0.38121,0.2356 0.51535,0.71599 0.29809,1.06752 -0.21726,0.35154 -0.11475,0.99508 0.22779,1.4301 0.34255,0.43502 0.64772,1.23358 0.67817,1.77456 0.0304,0.54098 0.64502,3.36267 1.36572,6.27043 1.63246,6.58627 2.12279,8.86893 2.17454,10.12301 0.0224,0.54098 0.30055,1.31506 0.61827,1.72017 0.31772,0.4051 0.40492,1.18673 0.19378,1.73694 -0.21114,0.55022 -0.0638,1.19818 0.32725,1.43991 0.39113,0.24172 0.53338,0.72712 0.31612,1.07865 -0.21726,0.35154 -0.0566,1.04696 0.35709,1.54539 0.41366,0.49843 0.68485,1.29698 0.60263,1.77456 -0.0822,0.47757 0.0437,1.9011 0.27974,3.1634 0.23606,1.26229 0.90495,5.2459 1.48641,8.85245 0.58147,3.60656 1.89441,9.21312 2.91765,12.45902 1.97424,6.26265 3.55889,12.28931 4.22428,16.06557 0.63349,3.59522 0.75016,9.18033 0.19178,9.18033 -0.27809,0 -0.4456,0.22131 -0.37225,0.49181 0.19873,0.73282 -3.58353,4.7541 -4.47154,4.7541 -0.42209,0 -0.94445,0.46132 -1.16082,1.02516 -0.21636,0.56384 -0.69264,0.84023 -1.05839,0.61418 -0.36576,-0.22605 -0.84138,0.0486 -1.05696,0.61041 -0.21556,0.56177 -0.6561,0.85814 -0.97896,0.6586 -0.32287,-0.19955 -0.58704,-0.0503 -0.58704,0.33163 0,0.38194 -0.44261,0.69444 -0.9836,0.69444 -0.54098,0 -0.9836,0.3125 -0.9836,0.69444 0,0.38194 -0.29717,0.51078 -0.66037,0.2863 -0.36321,-0.22446 -0.83675,0.0514 -1.05232,0.61328 -0.21557,0.56177 -0.65611,0.85814 -0.97898,0.6586 -0.32286,-0.19954 -0.58702,-0.0329 -0.58702,0.37033 0,0.40323 -0.26989,0.56635 -0.59974,0.36249 -0.32985,-0.20386 -0.69869,-0.12346 -0.81967,0.17866 -0.12097,0.30213 -4.20354,2.7092 -9.0724,5.34905 -11.49638,6.23323 -47.60261,27.34975 -65.57377,38.35044 -19.0865,11.68343 -22.62295,13.7979 -22.62295,13.52646 0,-0.32861 -26.38418,12.92503 -41.96721,21.0815 -35.60521,18.63648 -53.58206,28.44565 -53.98907,29.45943 -0.12022,0.29944 -0.59158,0.54443 -1.04748,0.54443 -0.4559,0 -3.38213,1.60297 -6.50274,3.56214 -3.1206,1.95918 -5.67383,3.42701 -5.67383,3.26185 0,-0.16516 -0.88525,0.15749 -1.96721,0.71699 -1.08196,0.55951 -1.96721,1.30479 -1.96721,1.65619 0,0.3514 -0.23206,0.56512 -0.51568,0.47496 -0.4677,-0.14868 -10.66638,5.13038 -19.81219,10.25524 -1.98361,1.1115 -3.7541,2.03968 -3.93443,2.06262 -1.32601,0.16862 -3.27869,1.15771 -3.27869,1.66076 0,0.33634 -0.22131,0.5541 -0.4918,0.48387 -0.53841,-0.13977 -15.72498,7.59177 -20.55641,10.46535 -1.65848,0.98641 -5.05192,2.94528 -7.54099,4.35304 -2.48905,1.40775 -5.4108,3.35593 -6.49276,4.3293 -1.08197,0.97336 -3.24175,2.26178 -4.79951,2.86314 -1.55777,0.60136 -5.16228,2.41547 -8.01005,4.03135 -2.84776,1.61587 -5.48306,2.93796 -5.85622,2.93796 -0.37317,0 -0.67849,0.24589 -0.67849,0.54644 0,0.30055 -0.36885,0.56035 -0.81967,0.57733 -1.22938,0.0463 -6.43619,2.54932 -6.06835,2.91716 0.17561,0.1756 -0.66027,0.29725 -1.85748,0.27032 -1.41279,-0.0318 -2.61905,-0.57125 -3.43695,-1.53708 l 0,0 z"
         id="path3813"
         inkscape:connector-curvature="0" />
      <path
         style="color:#000000;fill:#ff8284;fill-opacity:1;fill-rule:nonzero;stroke:#c42836;stroke-width:0;stroke-linecap:square;stroke-linejoin:round;stroke-miterlimit:4;stroke-opacity:1;stroke-dasharray:none;stroke-dashoffset:0;marker:none;visibility:visible;display:inline;overflow:visible;enable-background:accumulate"
         d="m 368.78842,450.01574 c -0.79429,-0.86861 -1.48182,-2.04894 -1.52784,-2.62296 -0.046,-0.57401 -0.19092,-1.63383 -0.32199,-2.35514 -0.67149,-3.69555 -2.42786,-14.51106 -4.25949,-26.2295 -1.74431,-11.15974 -3.02089,-18.149 -4.85069,-26.55738 -0.19621,-0.90164 -1.10406,-5.7705 -2.01743,-10.81967 -1.50988,-8.34663 -4.86029,-23.86727 -8.28087,-38.36066 -0.7235,-3.06557 -1.35834,-6.16393 -1.41076,-6.88525 -0.0524,-0.72131 -0.33369,-1.68296 -0.62505,-2.13701 -0.29138,-0.45405 -0.3316,-1.44991 -0.0894,-2.21301 0.2422,-0.76312 0.14396,-1.57195 -0.21832,-1.79742 -0.36228,-0.22546 -0.87082,-4.25608 -1.13011,-8.95692 l -0.47141,-8.547 2.97356,-2.43661 c 1.63547,-1.34014 3.23712,-2.43662 3.55924,-2.43662 0.32212,0 1.1738,-0.51639 1.89264,-1.14753 0.71884,-0.63116 1.88104,-1.51533 2.58267,-1.96484 2.1504,-1.3777 22.01601,-11.53358 26.18928,-13.38872 2.16149,-0.96085 4.62098,-2.36249 5.46553,-3.11476 0.84456,-0.75227 1.93553,-1.36776 2.42438,-1.36776 1.81077,0 10.72906,-3.55604 19.10566,-7.6181 4.74676,-2.30184 8.95168,-4.18517 9.34426,-4.18517 0.39258,0 0.71378,-0.26309 0.71378,-0.58465 0,-0.32156 0.81148,-0.78549 1.80328,-1.03096 1.72068,-0.42586 32.64844,-16.56945 45.08197,-23.53177 3.24591,-1.81759 7.08197,-3.89729 8.52459,-4.62156 1.44263,-0.72429 2.72192,-1.55391 2.84289,-1.84363 0.12097,-0.28972 0.48983,-0.35996 0.81967,-0.15609 0.32985,0.20385 0.59974,0.0407 0.59974,-0.36249 0,-0.40322 0.29508,-0.55077 0.65574,-0.32787 0.36065,0.2229 0.65573,0.0754 0.65573,-0.32787 0,-0.40322 0.32807,-0.53037 0.72905,-0.28256 0.40098,0.24782 0.94691,0.0981 1.21319,-0.33276 0.26627,-0.43084 0.89722,-0.84579 1.4021,-0.92212 0.50488,-0.0763 1.21304,-0.31774 1.57369,-0.53647 1.07344,-0.65102 17.91678,-7.76215 18.38534,-7.76215 0.23726,0 2.83698,-1.16481 5.77712,-2.58846 2.94016,-1.42365 9.18181,-4.31722 13.87033,-6.43016 12.36086,-5.57056 48.22207,-24.55941 62.38615,-33.03407 2.93534,-1.75627 5.75337,-3.19321 6.2623,-3.19321 0.50892,0 1.20565,-0.27689 1.54828,-0.6153 0.34262,-0.33842 8.29508,-4.45739 17.67212,-9.15329 9.37705,-4.69589 19.40984,-9.89747 22.29508,-11.55908 2.88525,-1.66161 5.53396,-3.07542 5.88604,-3.1418 0.35207,-0.0664 1.03978,-0.49226 1.52827,-0.9464 0.48849,-0.45413 1.15944,-0.65803 1.49102,-0.4531 0.33158,0.20493 0.60287,0.0427 0.60287,-0.36055 0,-0.40322 0.29508,-0.55076 0.65574,-0.32786 0.36066,0.2229 0.65574,0.0928 0.65574,-0.28917 0,-0.38194 0.22131,-0.63377 0.4918,-0.55961 0.27049,0.0742 1.37705,-0.33296 2.45902,-0.90468 3.87658,-2.04844 14.69095,-5.7706 15.67206,-5.39411 1.23428,0.47364 3.2143,5.6417 5.62755,14.68855 1.01016,3.78688 2.16589,7.72148 2.56829,8.74356 0.4024,1.02206 0.56458,2.12862 0.36039,2.45901 -0.2042,0.33039 -0.0864,0.60071 0.26178,0.60071 0.34818,0 0.47872,0.59016 0.29009,1.31148 -0.19934,0.76226 -0.0202,1.31147 0.42796,1.31147 0.424,0 0.59596,0.28308 0.38214,0.62907 -0.21384,0.34598 -0.0973,1.15746 0.2589,1.80327 0.35622,0.64583 1.55478,5.30537 2.66344,10.35455 1.10866,5.04918 3.02966,13.60656 4.26887,19.01639 1.23923,5.40984 2.87119,13.7515 3.6266,18.53705 0.75541,4.78552 2.10401,11.12979 2.9969,14.09836 3.06096,10.17673 4.96949,18.51535 5.2126,22.77443 l 0.24329,4.26229 -3.49201,3.27869 c -3.71895,3.49177 -5.09659,4.33382 -31.53279,19.27364 -20.74744,11.72495 -38.97641,22.44859 -61.96721,36.45375 -9.55738,5.822 -18.70491,11.104 -20.32787,11.73777 -3.24171,1.26591 -34.97344,17.40972 -49.5082,25.18775 -5.04917,2.70199 -14.19672,7.55912 -20.32786,10.79364 -6.13115,3.23451 -13.95082,7.52872 -17.37706,9.54268 -3.42622,2.01396 -7.49069,4.33697 -9.03214,5.16225 -1.54145,0.82527 -4.42422,2.53783 -6.40618,3.80566 -1.98194,1.26784 -3.89288,2.30516 -4.24654,2.30516 -0.35365,0 -0.643,0.31249 -0.643,0.69444 0,0.38193 -0.29508,0.51206 -0.65574,0.28916 -0.36065,-0.2229 -0.65574,-0.14321 -0.65574,0.17709 0,0.32028 -1.54918,1.29077 -3.44262,2.15664 -1.89344,0.86586 -6.9836,3.46964 -11.31148,5.78619 -4.32787,2.31654 -13.4754,7.06863 -20.32787,10.56021 -12.76377,6.5036 -26.5153,14.34175 -28.85245,16.44543 -0.72132,0.64925 -5,3.06779 -9.5082,5.37453 -10.49112,5.36804 -12.73944,6.60838 -12.99319,7.16799 -0.11346,0.25024 -0.59181,0.30704 -1.06299,0.12622 -0.47118,-0.18081 -1.3068,0.12138 -1.85694,0.67151 -1.42196,1.42197 -4.55462,0.98848 -6.24928,-0.86476 l 0,0 z"
         id="path3815"
         inkscape:connector-curvature="0" />
    </g>
  </g>
</svg>
