<?xml version="1.0" encoding="UTF-8" standalone="no"?>
<svg
   xmlns:dc="http://purl.org/dc/elements/1.1/"
   xmlns:cc="http://creativecommons.org/ns#"
   xmlns:rdf="http://www.w3.org/1999/02/22-rdf-syntax-ns#"
   xmlns:svg="http://www.w3.org/2000/svg"
   xmlns="http://www.w3.org/2000/svg"
   xmlns:sodipodi="http://sodipodi.sourceforge.net/DTD/sodipodi-0.dtd"
   xmlns:inkscape="http://www.inkscape.org/namespaces/inkscape"
   version="1.0"
   width="784.000000pt"
   height="701.000000pt"
   viewBox="0 0 784.000000 701.000000"
   preserveAspectRatio="xMidYMid meet"
   id="svg2"
   inkscape:version="0.48.4 r9939"
   sodipodi:docname="Roof2_3.svg">
  <defs
     id="defs12" />
  <sodipodi:namedview
     pagecolor="#ffffff"
     bordercolor="#666666"
     borderopacity="1"
     objecttolerance="10"
     gridtolerance="10"
     guidetolerance="10"
     inkscape:pageopacity="0"
     inkscape:pageshadow="2"
     inkscape:window-width="1419"
     inkscape:window-height="1014"
     id="namedview10"
     showgrid="false"
     inkscape:zoom="2.88"
     inkscape:cx="646.01767"
     inkscape:cy="558.48222"
     inkscape:window-x="0"
     inkscape:window-y="0"
     inkscape:window-maximized="0"
     inkscape:current-layer="svg2" />
  <metadata
     id="metadata4">
Created by potrace 1.14, written by Peter Selinger 2001-2017
<rdf:RDF>
  <cc:Work
     rdf:about="">
    <dc:format>image/svg+xml</dc:format>
    <dc:type
       rdf:resource="http://purl.org/dc/dcmitype/StillImage" />
    <dc:title></dc:title>
  </cc:Work>
</rdf:RDF>
</metadata>
  <g
     id="g2993"
     style="fill:#cb3c32;fill-opacity:1">
    <g
       id="g6"
       stroke="none"
       fill="#000000"
       transform="translate(0.000000,701.000000) scale(0.100000,-0.100000)"
       style="fill:#cb3c32;fill-opacity:1">
      <path
         id="path8"
         d="M2870 6505 c-7 -8 -19 -15 -27 -15 -7 0 -16 -7 -19 -15 -3 -8 -40 -31 -82 -51 -43 -21 -89 -46 -104 -56 -14 -10 -34 -18 -43 -18 -9 0 -31 -10 -48 -22 -18 -13 -34 -23 -37 -24 -14 -2 -66 -27 -78 -37 -8 -6 -20 -12 -27 -13 -23 -3 -85 -36 -85 -45 0 -5 -7 -9 -15 -9 -17 0 -117 -48 -125 -60 -3 -4 -30 -15 -61 -23 -31 -9 -68 -26 -82 -38 -15 -11 -53 -29 -85 -40 -31 -11 -79 -30 -107 -43 -54 -26 -175 -66 -198 -66 -31 0 -51 -39 -50 -98 1 -34 -4 -63 -12 -72 -7 -8 -25 -53 -40 -100 -15 -47 -34 -104 -41 -126 -8 -23 -16 -51 -19 -62 -2 -11 -9 -31 -16 -44 -7 -13 -12 -26 -11 -30 1 -5 -2 -8 -6 -8 -5 0 -9 -6 -10 -12 -5 -62 -33 -159 -43 -152 -5 3 -9 -4 -9 -15 0 -11 -4 -22 -8 -25 -5 -3 -7 -19 -4 -37 3 -23 1 -30 -7 -25 -8 6 -10 0 -5 -18 5 -21 3 -26 -12 -26 -9 0 -15 -3 -11 -6 3 -3 -3 -15 -13 -27 -11 -11 -17 -24 -14 -28 6 -11 -26 -90 -35 -84 -10 6 -32 -58 -33 -95 -1 -16 -5 -27 -10 -24 -7 5 -12 -20 -5 -30 1 -3 -7 -15 -19 -28 -29 -32 -64 -104 -64 -132 0 -32 -20 -89 -36 -102 -14 -11 -19 -88 -10 -154 19 -152 26 -219 31 -314 3 -60 7 -112 10 -115 4 -7 12 -103 20 -236 2 -27 5 -66 8 -86 3 -19 8 -82 11 -140 4 -57 9 -147 12 -199 3 -52 8 -142 10 -200 2 -58 6 -152 9 -210 3 -58 8 -179 10 -270 3 -91 8 -171 10 -179 3 -7 0 -29 -7 -48 -9 -26 -17 -33 -31 -29 -13 3 -17 0 -13 -10 3 -8 1 -14 -4 -14 -28 0 26 -63 65 -76 11 -4 34 -18 52 -31 18 -14 37 -22 43 -18 6 4 9 2 8 -4 -2 -6 23 -22 54 -35 34 -14 76 -42 103 -70 26 -25 54 -45 63 -44 10 2 16 -3 15 -9 -2 -7 3 -13 11 -13 8 0 16 -7 20 -15 8 -21 92 -73 237 -146 68 -35 126 -67 127 -71 2 -4 8 -8 13 -8 12 0 112 -61 124 -76 6 -7 32 -24 60 -39 27 -14 70 -41 94 -61 25 -19 75 -44 113 -55 37 -12 71 -25 74 -30 3 -5 10 -7 15 -4 5 4 9 2 9 -4 0 -14 52 -39 69 -33 8 2 11 0 7 -6 -8 -13 19 -23 41 -15 9 4 14 2 10 -3 -3 -5 6 -14 19 -21 15 -7 22 -7 18 -1 -6 9 51 -27 66 -42 24 -24 91 -60 101 -54 7 4 10 3 6 -3 -6 -10 27 -28 63 -35 8 -2 21 -9 28 -16 7 -6 19 -12 26 -12 7 0 39 -17 72 -38 32 -21 86 -49 119 -62 105 -41 121 -49 203 -104 44 -30 94 -61 110 -70 16 -8 51 -31 77 -51 26 -20 44 -31 39 -23 -4 7 8 -3 27 -23 32 -34 93 -69 119 -69 6 0 18 -7 27 -15 8 -8 18 -13 23 -10 4 3 10 -1 13 -9 3 -8 27 -24 54 -36 124 -57 153 -72 153 -79 0 -7 61 -32 92 -38 16 -3 70 -26 183 -78 28 -13 57 -25 65 -27 8 -2 17 -5 20 -8 3 -3 24 -14 48 -24 23 -11 42 -23 42 -28 0 -4 6 -8 14 -8 13 0 65 -53 83 -84 6 -10 30 -18 70 -22 55 -6 62 -5 72 15 7 11 16 21 21 21 20 0 110 72 110 88 0 8 3 13 6 10 3 -4 21 0 39 8 19 8 46 14 60 14 14 0 36 7 50 16 27 17 66 71 44 59 -8 -3 -5 1 5 9 11 9 24 16 29 16 4 0 5 5 1 12 -5 7 -1 9 13 6 32 -8 146 13 173 32 14 10 40 21 59 25 19 4 71 26 115 49 45 23 116 56 158 74 77 32 181 92 193 112 3 5 17 10 30 10 31 0 171 74 167 89 -1 7 2 10 8 6 6 -3 22 3 36 14 15 12 37 21 50 21 28 0 197 74 274 120 8 5 51 26 95 47 44 20 96 49 115 63 19 15 56 35 81 44 25 9 58 30 72 46 15 16 45 42 67 56 22 15 40 32 40 38 0 6 28 22 63 35 34 13 81 32 103 42 23 10 61 21 85 25 51 8 101 47 92 73 -3 9 -16 25 -28 36 -15 14 -22 33 -23 62 -1 24 2 43 6 43 5 0 7 13 4 30 -2 16 -8 27 -13 24 -5 -3 -9 11 -9 31 0 26 3 34 13 28 6 -4 4 5 -5 20 -18 26 -25 62 -10 54 4 -3 6 214 4 481 -2 268 -3 604 -3 746 1 187 -3 278 -14 327 -12 60 -9 116 7 133 2 1 -3 10 -10 19 -8 9 -11 24 -8 34 2 10 8 43 11 73 3 30 10 69 14 86 12 44 1 55 -56 58 -32 1 -60 10 -81 25 -18 12 -36 20 -41 17 -5 -4 -11 -2 -13 3 -1 5 -9 11 -17 13 -7 2 -43 31 -79 66 -36 34 -68 62 -71 62 -3 1 -19 17 -36 36 -26 31 -123 130 -192 196 -13 11 -21 24 -18 27 2 4 -9 15 -24 24 -16 9 -31 27 -35 39 -3 13 -21 34 -41 47 -19 13 -35 30 -35 38 0 8 -12 25 -27 38 -27 22 -27 24 -10 43 17 18 17 20 -1 42 l-18 22 -32 -27 -31 -26 -46 26 c-25 15 -45 24 -45 21 0 -3 -9 3 -20 14 -31 31 -98 61 -184 81 -44 11 -84 24 -90 28 -6 5 -20 11 -31 13 -11 1 -23 7 -26 11 -3 4 -6 -5 -6 -21 0 -26 7 -32 49 -51 27 -12 87 -32 134 -46 46 -13 97 -34 113 -46 17 -12 34 -18 42 -14 8 5 10 4 5 -3 -4 -7 -1 -12 8 -12 9 0 16 -8 16 -19 0 -17 -35 -39 -71 -44 -24 -4 -40 -18 -33 -29 4 -6 3 -8 -3 -5 -5 3 -22 -3 -39 -14 -16 -10 -36 -19 -45 -19 -8 0 -35 -13 -60 -28 -43 -28 -70 -37 -133 -47 -16 -3 -41 -13 -55 -22 -14 -10 -31 -16 -38 -15 -7 2 -19 -9 -28 -22 -12 -18 -29 -27 -61 -32 -24 -3 -44 -11 -44 -16 0 -5 -4 -6 -10 -3 -5 3 -40 -6 -77 -20 -38 -15 -85 -33 -106 -41 -50 -19 -148 -81 -165 -105 -6 -9 -28 -23 -49 -30 -33 -11 -37 -10 -54 12 -10 13 -19 29 -20 34 0 6 -2 26 -3 45 -2 19 -9 49 -16 65 -7 17 -14 54 -16 82 -2 48 -45 184 -66 208 -4 5 -8 25 -8 46 0 34 -11 78 -30 124 -5 11 -11 36 -14 55 -13 83 -16 94 -30 109 -8 9 -17 47 -21 84 -4 38 -13 84 -21 103 -8 19 -12 39 -9 44 3 6 -1 24 -9 42 -9 18 -18 56 -21 83 -3 28 -10 74 -16 103 -6 30 -9 56 -6 58 2 2 15 -4 28 -14 13 -10 54 -36 92 -56 37 -21 67 -42 67 -47 0 -5 6 -9 14 -9 8 0 16 -7 20 -15 3 -8 14 -15 23 -15 10 0 27 -6 38 -14 11 -8 56 -26 100 -41 44 -15 82 -32 83 -36 2 -5 15 -9 28 -9 14 0 23 -4 20 -9 -5 -8 16 -23 36 -25 4 -1 15 -11 23 -24 9 -12 19 -20 23 -18 10 6 47 -23 39 -30 -9 -9 24 -33 46 -34 9 0 17 -6 17 -12 0 -15 90 -101 98 -94 2 3 22 -8 42 -24 21 -17 43 -30 50 -30 6 0 8 -4 5 -10 -3 -6 1 -7 9 -4 11 4 16 0 16 -11 0 -9 5 -13 10 -10 6 3 10 1 10 -4 0 -6 5 -11 12 -11 6 0 19 -7 29 -16 15 -14 17 -13 15 13 0 15 -4 29 -9 31 -4 1 -16 11 -27 22 -11 11 -28 20 -38 20 -19 0 -64 40 -46 40 10 1 -21 20 -33 22 -5 0 -14 9 -22 20 -7 11 -20 17 -28 14 -8 -3 -11 -1 -8 4 3 6 0 10 -9 10 -8 0 -16 3 -18 8 -9 20 -110 102 -119 97 -6 -4 -13 2 -16 14 -3 11 -9 19 -13 16 -4 -2 -17 7 -28 20 -12 14 -28 25 -36 25 -8 0 -17 7 -20 16 -3 8 -10 13 -15 10 -5 -4 -16 0 -23 8 -22 21 -78 47 -88 41 -6 -3 -10 -2 -10 3 0 12 -78 47 -87 39 -3 -4 -12 2 -20 13 -8 11 -19 20 -25 20 -5 0 -27 13 -47 29 -20 15 -56 38 -81 51 -25 12 -58 37 -75 54 -42 46 -80 90 -80 96 0 3 -7 16 -14 28 -11 20 -18 23 -47 17 -21 -4 -46 0 -67 9 -47 21 -140 62 -152 67 -30 12 -124 75 -125 84 0 17 -125 94 -213 133 -45 19 -99 46 -119 58 -21 13 -48 24 -60 24 -13 0 -36 8 -53 17 -96 52 -301 153 -311 153 -6 0 -16 6 -22 13 -6 7 -42 28 -79 47 -70 34 -151 80 -238 135 -60 38 -177 95 -194 95 -7 0 -9 5 -6 10 3 6 -5 14 -18 19 -13 5 -33 21 -45 35 -22 29 -53 34 -72 11z m105 -95 c28 -15 70 -38 95 -50 78 -36 124 -62 170 -95 25 -17 81 -50 125 -73 176 -90 247 -129 265 -145 11 -9 32 -17 47 -17 14 0 59 -20 99 -45 65 -41 156 -71 176 -59 5 3 11 -2 14 -10 3 -9 10 -13 15 -10 5 3 9 1 9 -5 0 -13 90 -62 101 -55 5 3 9 0 9 -5 0 -6 6 -11 14 -11 7 0 25 -9 40 -21 14 -11 31 -17 37 -13 8 4 9 3 5 -4 -4 -7 -3 -12 3 -12 6 0 28 -17 50 -37 73 -70 93 -82 221 -133 113 -45 158 -72 168 -99 6 -14 22 -56 36 -93 27 -71 55 -202 63 -300 3 -32 9 -56 13 -53 9 6 24 -43 21 -68 -2 -16 19 -85 40 -132 5 -11 11 -34 13 -52 3 -18 8 -38 12 -44 3 -6 8 -25 9 -42 2 -17 8 -33 14 -35 6 -2 9 -8 5 -13 -3 -5 0 -9 6 -9 6 0 8 -4 5 -10 -3 -5 -3 -16 1 -22 5 -7 9 -28 10 -48 4 -50 8 -66 24 -85 7 -9 15 -28 16 -42 2 -14 8 -29 14 -33 6 -4 12 -32 14 -62 2 -31 7 -61 11 -67 3 -6 7 -39 9 -73 1 -37 7 -63 14 -66 20 -6 14 -31 -13 -54 -18 -15 -25 -31 -24 -52 1 -26 -4 -53 -24 -131 -2 -5 -10 -23 -19 -40 -9 -16 -21 -50 -28 -75 -7 -25 -26 -74 -43 -109 -17 -36 -30 -70 -30 -78 0 -7 -4 -13 -9 -13 -4 0 -8 -9 -8 -19 0 -11 -6 -26 -13 -33 -16 -16 -50 -88 -50 -105 0 -7 -5 -13 -10 -13 -5 0 -7 -6 -4 -14 3 -7 -3 -26 -14 -42 -10 -16 -19 -25 -19 -20 0 5 -11 -13 -25 -39 -14 -26 -24 -50 -21 -52 2 -3 -4 -13 -14 -23 -20 -20 -38 -76 -42 -126 -1 -16 -5 -31 -8 -34 -7 -6 -55 -120 -56 -135 0 -5 -4 -18 -8 -27 -4 -9 -8 -22 -10 -30 -1 -7 -5 -19 -9 -25 -5 -7 -5 -18 -1 -25 4 -6 3 -8 -3 -5 -5 3 -17 -9 -26 -28 -9 -19 -21 -35 -26 -35 -5 0 -41 16 -80 35 -39 19 -75 35 -80 35 -5 0 -47 25 -92 55 -45 30 -85 52 -90 50 -4 -3 -10 3 -13 12 -6 19 -229 137 -324 173 -29 11 -64 31 -78 43 -14 13 -48 29 -75 35 -27 6 -68 24 -91 39 -24 15 -68 39 -98 53 -88 40 -210 111 -210 121 0 5 -12 14 -27 20 -16 5 -49 21 -74 34 -26 14 -52 25 -59 25 -7 0 -20 8 -29 18 -9 11 -52 37 -97 59 -44 22 -114 61 -155 88 -40 26 -105 63 -144 81 -38 19 -77 38 -85 43 -8 6 -44 24 -80 42 -36 17 -87 44 -115 60 -27 15 -61 33 -75 39 -14 6 -38 18 -55 27 -16 8 -61 28 -99 44 -38 16 -74 35 -80 42 -6 7 -38 23 -71 36 -80 30 -109 46 -148 82 -33 32 -103 65 -124 61 -7 -2 -13 2 -13 7 0 6 -13 17 -30 26 -16 9 -30 13 -30 9 0 -3 -16 8 -35 25 -20 17 -42 31 -50 31 -8 0 -15 5 -15 10 0 6 -8 10 -18 10 -10 0 -23 5 -30 12 -7 7 -12 9 -12 5 0 -4 -24 8 -52 28 -29 19 -58 35 -64 35 -16 0 -74 30 -95 49 -35 32 -48 41 -59 41 -16 0 -12 24 15 95 13 36 22 65 20 65 -3 0 4 15 15 33 11 17 20 40 20 49 0 9 6 23 13 30 8 7 17 30 21 50 4 20 11 38 17 40 5 2 11 13 12 26 0 12 5 22 9 22 4 0 8 6 8 14 0 8 10 32 22 52 12 21 23 47 23 58 1 11 7 22 14 24 6 2 8 8 5 13 -3 6 -1 16 6 24 6 7 13 25 16 39 2 14 9 38 16 53 6 16 13 39 15 53 2 14 12 43 22 65 22 47 34 77 35 87 1 3 4 10 9 14 4 4 7 17 7 29 0 13 6 28 14 34 8 6 17 32 21 56 3 25 11 45 16 45 6 0 8 4 5 9 -3 5 1 14 9 21 9 8 12 22 8 41 -3 18 -1 29 6 29 6 0 11 9 11 21 0 11 4 18 8 15 5 -3 15 11 22 30 8 19 20 40 27 46 15 12 18 58 3 58 -5 0 -7 7 -4 15 4 8 13 15 21 15 7 0 33 9 55 20 23 11 47 20 54 20 20 0 64 22 59 29 -2 4 4 7 13 8 38 3 178 57 192 74 3 3 21 13 40 22 221 97 304 140 293 151 -5 4 -1 6 8 4 8 -1 40 8 70 21 116 53 225 105 248 120 40 26 164 79 186 80 11 0 43 -13 70 -29z m3262 -1862 c18 -13 33 -27 33 -31 0 -4 21 -30 48 -57 26 -28 52 -56 58 -63 6 -6 27 -25 47 -41 20 -15 35 -31 33 -35 -3 -4 16 -27 42 -51 25 -25 42 -38 37 -30 -5 8 7 2 27 -15 20 -16 37 -38 37 -48 1 -10 6 -15 11 -12 6 3 10 -1 10 -9 0 -9 5 -16 12 -16 6 0 9 -3 6 -6 -6 -6 1 -15 65 -82 38 -40 150 -122 166 -122 6 0 11 -4 11 -10 0 -5 11 -10 23 -10 21 0 35 -8 85 -50 12 -11 14 -33 14 -135 -1 -64 0 -156 0 -175 0 -8 5 -21 11 -28 7 -9 12 -153 15 -415 5 -550 5 -591 -2 -847 -6 -197 -7 -400 -3 -495 3 -89 -2 -110 -32 -128 -16 -9 -37 -17 -47 -17 -31 0 -196 -73 -202 -89 -3 -9 -21 -30 -39 -47 -18 -17 -33 -35 -33 -40 0 -18 -60 -55 -98 -61 -43 -7 -98 -38 -106 -58 -3 -8 -12 -15 -19 -15 -8 0 -20 -7 -27 -15 -7 -8 -16 -13 -20 -10 -4 2 -16 -4 -26 -14 -11 -9 -26 -15 -33 -13 -9 3 -11 0 -6 -8 5 -8 4 -11 -2 -7 -14 9 -116 -36 -106 -46 4 -5 0 -5 -10 -1 -10 4 -17 1 -17 -6 0 -7 -6 -10 -14 -7 -8 3 -20 -1 -26 -9 -7 -8 -22 -14 -34 -14 -11 0 -30 -7 -40 -15 -11 -8 -34 -15 -51 -15 -35 0 -70 -21 -70 -42 0 -7 -10 -13 -23 -13 -23 0 -45 -23 -36 -37 3 -5 -6 -6 -20 -2 -14 3 -26 2 -26 -3 0 -5 -25 -17 -56 -28 -30 -10 -59 -26 -64 -34 -5 -9 -10 -12 -10 -8 0 10 -36 -9 -80 -43 -19 -14 -55 -32 -80 -39 -25 -7 -52 -19 -60 -26 -8 -7 -26 -16 -40 -20 -45 -13 -130 -55 -130 -63 0 -5 -24 -14 -52 -21 -29 -6 -76 -22 -103 -35 -28 -13 -76 -26 -106 -30 -46 -6 -59 -12 -82 -41 -15 -19 -33 -35 -40 -35 -7 0 -20 -8 -29 -19 -8 -10 -40 -24 -69 -31 -32 -7 -66 -24 -84 -40 -42 -39 -107 -72 -119 -60 -21 21 -31 159 -40 605 -4 145 -29 372 -43 386 -12 12 -13 -26 -1 -104 17 -114 18 -129 21 -204 1 -44 -2 -73 -8 -73 -7 0 -7 -3 0 -8 6 -4 10 -43 11 -87 0 -44 1 -105 2 -135 1 -30 1 -80 0 -110 -2 -30 1 -106 6 -167 8 -101 7 -113 -9 -119 -18 -7 -62 35 -97 91 -17 28 -18 29 -18 7 0 -21 -3 -23 -32 -17 -18 4 -53 18 -78 30 -25 12 -56 26 -70 30 -14 4 -52 20 -85 35 -72 33 -190 80 -203 80 -5 0 -20 10 -33 23 -14 12 -64 39 -111 61 -48 21 -101 49 -118 61 -18 13 -56 33 -86 45 -30 12 -54 26 -54 31 0 5 -6 9 -13 9 -7 0 -23 12 -36 26 -12 14 -35 30 -52 36 -16 5 -29 14 -29 19 0 6 -15 17 -32 25 -38 17 -67 34 -86 52 -7 6 -20 12 -28 12 -8 0 -14 5 -14 10 0 6 -4 10 -10 10 -5 0 -19 9 -30 20 -11 11 -26 20 -34 20 -7 0 -37 13 -67 29 -30 15 -66 31 -81 35 -23 5 -76 35 -113 63 -5 5 -26 14 -45 21 -19 8 -48 19 -65 25 -16 7 -32 15 -35 18 -3 3 -20 11 -37 18 -18 8 -33 17 -33 22 0 5 -5 9 -10 9 -6 0 -19 8 -30 18 -25 23 -113 70 -142 76 -30 6 -62 18 -68 26 -13 17 -142 79 -171 82 -13 2 -29 8 -35 13 -43 39 -94 73 -136 91 -47 20 -81 44 -63 44 5 0 -26 20 -69 45 -44 25 -81 45 -83 45 -1 0 -27 16 -58 35 -30 20 -55 33 -55 29 0 -4 -8 0 -18 9 -10 9 -27 18 -38 20 -11 1 -31 13 -44 25 -13 12 -29 22 -34 22 -11 0 -55 34 -91 70 -12 11 -28 20 -38 20 -9 0 -17 4 -17 9 0 6 -14 18 -30 28 -17 9 -30 23 -30 30 0 14 -19 26 -100 63 -94 42 -126 76 -141 145 -7 33 -14 96 -15 140 -2 44 -5 98 -8 120 -2 22 -7 99 -10 170 -15 316 -17 365 -23 450 -4 50 -7 146 -8 215 -4 217 -14 388 -30 485 -5 30 -10 118 -20 341 -4 95 -2 129 10 157 l15 37 79 -40 c44 -22 84 -40 89 -40 16 0 177 -85 214 -113 42 -32 219 -117 230 -111 4 3 8 -1 8 -9 0 -16 116 -81 305 -171 77 -37 147 -71 155 -77 22 -13 183 -90 195 -92 6 -1 16 -10 23 -19 7 -10 19 -18 26 -18 22 0 214 -102 311 -164 33 -21 73 -44 90 -50 17 -6 78 -39 135 -74 176 -106 304 -178 389 -220 35 -18 69 -36 75 -41 6 -5 43 -19 81 -32 39 -12 84 -33 100 -45 17 -12 41 -25 55 -29 13 -4 30 -14 38 -22 8 -7 23 -11 33 -8 11 4 19 2 19 -4 0 -6 5 -11 11 -11 7 0 17 -7 23 -15 6 -8 22 -16 35 -17 13 -2 36 -14 50 -27 26 -23 69 -46 83 -43 4 1 5 -4 3 -11 -4 -12 61 -59 101 -73 10 -4 33 -17 50 -30 49 -36 103 -64 124 -64 11 0 20 -4 20 -10 0 -5 6 -10 14 -10 7 0 30 -16 50 -35 21 -19 42 -35 47 -35 5 0 11 -10 13 -22 14 -70 26 -170 27 -220 1 -32 2 -78 3 -103 0 -25 4 -45 7 -45 6 0 20 -131 23 -207 1 -12 4 -25 9 -29 4 -4 8 -28 8 -53 l1 -46 9 50 c5 29 5 60 0 75 -10 26 -15 68 -32 250 -17 192 -21 279 -14 297 5 10 9 23 9 28 1 6 5 20 10 33 4 14 3 28 -3 36 -12 14 0 111 18 145 6 11 11 30 11 42 0 12 7 30 15 39 9 10 18 27 20 40 2 12 9 28 16 36 6 8 8 14 4 14 -4 0 -3 6 2 13 6 6 16 34 22 61 12 49 58 156 71 166 4 3 15 30 25 60 11 30 25 60 32 66 7 6 13 16 13 23 0 6 5 11 10 11 6 0 10 9 10 20 0 11 5 20 11 20 6 0 8 7 5 16 -3 9 3 29 15 45 12 17 19 33 16 36 -3 3 3 14 13 26 11 11 17 23 15 27 -3 5 2 11 11 14 9 3 14 13 10 21 -3 8 6 40 20 71 13 31 26 68 28 82 2 15 17 56 33 91 23 49 38 68 64 80 18 9 38 26 45 38 6 13 13 20 17 17 8 -8 46 14 98 57 26 22 50 39 53 39 4 0 23 11 44 24 37 24 187 78 268 96 23 5 69 28 100 50 32 22 63 40 71 40 7 0 13 3 13 8 0 4 16 8 36 9 20 1 44 5 53 9 9 4 18 8 21 8 3 1 16 11 29 23 13 12 38 25 55 28 17 4 48 17 68 31 20 13 49 26 65 30 15 4 51 18 78 31 61 28 61 28 102 1z"
         style="fill:#cb3c32;fill-opacity:1" />
    </g>
    <path
       transform="scale(0.8,0.8)"
       inkscape:connector-curvature="0"
       d="m 570.47982,698.45717 c -0.0956,-6.02694 -0.43958,-12.04574 -0.78789,-18.0622 -0.47032,-8.01955 -0.70584,-16.04859 -1.33941,-24.05793 -0.0794,-2.06346 -0.54109,-4.1332 -0.37584,-6.20558 0.0416,-0.52103 0.16488,-1.02205 0.2735,-1.53087 0.64924,-2.93634 0.32934,-5.98495 0.2151,-8.96209 -0.10105,-3.52231 -0.60509,-7.00467 -1.12305,-10.4836 -0.21072,-1.28674 -0.22767,-2.59181 -0.70998,-3.81296 -0.3124,-0.70081 -0.43113,-1.45055 -0.49586,-2.20824 -0.0487,-0.76003 -0.081,-1.51721 0.0565,-2.26848 0,0 2.49072,-1.20781 2.49072,-1.20781 l 0,0 c -0.15858,0.72895 -0.14546,1.45744 -0.093,2.20107 0.0544,0.73242 0.15502,1.45886 0.45527,2.13732 0.49102,1.25001 0.51328,2.572 0.69516,3.89369 0.47846,3.49889 0.98369,6.99624 1.08855,10.53224 0.12751,2.9816 0.4853,6.03773 -0.10841,8.98704 -0.0865,0.37562 -0.26821,1.11872 -0.31009,1.49464 -0.23095,2.07294 0.22671,4.15947 0.2657,6.22801 0.53489,8.03171 0.74197,16.07796 1.2422,24.11181 0.37773,5.98378 0.72764,11.96917 1.02752,17.95711 0,0 -2.46666,1.25683 -2.46666,1.25683 z"
       id="path2991"
       style="color:#000000;fill:#cb3c32;fill-opacity:1;fill-rule:nonzero;stroke:#c42836;stroke-width:0;stroke-linecap:square;stroke-linejoin:round;stroke-miterlimit:4;stroke-opacity:1;stroke-dasharray:none;stroke-dashoffset:0;marker:none;visibility:visible;display:inline;overflow:visible;enable-background:accumulate" />
  </g>
  <path
     style="color:#000000;fill:#ffa3a4;fill-opacity:1;fill-rule:nonzero;stroke:#c42836;stroke-width:0;stroke-linecap:square;stroke-linejoin:round;stroke-miterlimit:4;stroke-opacity:1;stroke-dasharray:none;stroke-dashoffset:0;marker:none;visibility:visible;display:inline;overflow:visible;enable-background:accumulate"
     d="m 543.26375,523.66704 c -5.80986,-2.55717 -14.85272,-7.28804 -20.09523,-10.51303 -5.24252,-3.22498 -9.90455,-5.86362 -10.36007,-5.86362 -0.4555,0 -2.78867,-1.64961 -5.1848,-3.66583 -2.39613,-2.01621 -13.57917,-8.14469 -24.8512,-13.61883 -11.27204,-5.47415 -22.07912,-11.02529 -24.01574,-12.33586 -1.93662,-1.31056 -6.05634,-3.19971 -9.15493,-4.19814 -7.05683,-2.2738 -44.08975,-21.90584 -47.88733,-25.38622 -1.54929,-1.41989 -8.20422,-5.1615 -14.78873,-8.31471 -6.58451,-3.15319 -20.21127,-10.54791 -30.28169,-16.43272 -24.29506,-14.19718 -67.43646,-36.83322 -97.88732,-51.36091 -13.55634,-6.46754 -28.45071,-14.39973 -33.0986,-17.6271 -4.64788,-3.22737 -10.03521,-6.35434 -11.97183,-6.94883 -1.93662,-0.59449 -7.95774,-3.76768 -13.38028,-7.05152 -5.42253,-3.28385 -13.02817,-7.5511 -16.90141,-9.48278 -26.70587,-13.31884 -35.88099,-18.98762 -35.87988,-22.16809 0.002,-5.23596 7.79177,-25.79554 18.94481,-50 4.80308,-10.42369 10.21149,-24.47062 13.01492,-33.80282 2.6603,-8.85575 16.8768,-47.05338 18.73308,-50.333 0.76134,-1.34513 1.38426,-3.78481 1.38426,-5.42151 0,-1.63671 2.3545,-6.79043 5.23222,-11.45271 2.88765,-4.67836 5.25439,-10.36144 5.28169,-12.68254 0.0456,-3.87929 0.75995,-4.46704 9.2044,-7.57343 5.03521,-1.85227 10.73943,-4.23551 12.67605,-5.2961 1.93662,-1.06059 5.3399,-2.36247 7.56284,-2.89308 2.22294,-0.53061 14.41184,-6.00406 27.08644,-12.16323 12.6746,-6.15917 23.47206,-11.19849 23.99436,-11.19849 0.52229,0 3.02703,-1.5845 5.56607,-3.52112 2.53904,-1.93662 5.45097,-3.516332 6.47097,-3.51047 1.02,0.0059 13.88765,-5.842409 28.59477,-12.996159 18.87089,-9.179054 28.19695,-12.980894 31.69014,-12.918727 4.90203,0.08724 16.15443,5.760877 54.56562,27.512876 30.02512,17.00301 39.90371,22.33501 41.38007,22.33501 0.81491,0 7.2215,2.85212 14.23686,6.33803 7.50306,3.72825 14.70634,6.33803 17.49368,6.33803 2.60615,0 4.73959,0.47535 4.74099,1.05634 0.003,1.37888 11.76411,8.80281 13.94521,8.80281 2.47646,0 16.66201,9.33872 25.0311,16.47864 4.40818,3.76075 13.33626,8.89156 22.59112,12.98273 8.41634,3.72049 16.68762,7.62958 18.38061,8.68688 5.10197,3.18623 13.13732,27.30565 15.20977,45.65457 0.52496,4.64789 1.72919,10.35211 2.67606,12.67606 0.94686,2.32394 2.196,6.76056 2.77586,9.85915 0.57986,3.09859 2.53236,10.07042 4.33891,15.49296 1.80654,5.42253 3.7455,12.39437 4.30879,15.49296 0.5633,3.09859 1.81895,6.90141 2.79033,8.4507 0.97138,1.5493 2.21394,6.22509 2.76125,10.39065 0.5473,4.16556 2.42718,10.82049 4.17751,14.78873 3.69535,8.37792 4.48172,11.68596 6.36526,26.77728 0.76277,6.11138 2.04941,11.90995 2.85923,12.88572 1.06463,1.28279 0.54025,3.14769 -1.89351,6.73403 -1.90572,2.80824 -3.73735,8.0963 -4.22215,12.18969 -1.11278,9.39572 -18.91851,54.75837 -27.78735,70.79225 -0.74403,1.34513 -1.35278,3.13037 -1.35278,3.96722 0,0.83684 -1.49155,3.53911 -3.31455,6.00502 -4.72941,6.39733 -11.71732,21.82089 -12.85736,28.37848 -0.53405,3.07183 -1.97615,7.50845 -3.20465,9.85916 -1.22851,2.35072 -3.88559,9.38232 -5.90462,15.6258 -2.01903,6.24346 -4.92082,13.0342 -6.44841,15.09049 l -2.77745,3.73874 -10.56338,-4.64943 0,0 z"
     id="path3776"
     inkscape:connector-curvature="0"
     transform="scale(0.8,0.8)" />
  <path
     style="color:#000000;fill:#ffa3a4;fill-opacity:1;fill-rule:nonzero;stroke:#c42836;stroke-width:0;stroke-linecap:square;stroke-linejoin:round;stroke-miterlimit:4;stroke-opacity:1;stroke-dasharray:none;stroke-dashoffset:0;marker:none;visibility:visible;display:inline;overflow:visible;enable-background:accumulate"
     d="m 566.37078,813.74296 c -4.2243,-5.05361 -5.642,-5.94883 -7.54185,-4.76235 -1.78203,1.11288 -5.67803,0.0993 -16.34677,-4.25293 -7.70393,-3.14272 -19.71137,-8.00051 -26.6832,-10.79507 -6.97183,-2.79457 -13.94366,-5.8235 -15.49296,-6.73096 -1.54929,-0.90745 -11.37324,-6.21272 -21.83098,-11.78947 -25.48741,-13.59153 -30.58271,-16.5771 -38.02817,-22.28245 -3.48592,-2.67119 -10.45775,-7.22305 -15.49296,-10.11524 -5.03521,-2.89218 -9.94455,-6.04424 -10.90965,-7.00457 -0.9651,-0.96033 -5.40172,-3.46453 -9.85915,-5.56486 -30.15521,-14.20907 -55.43957,-27.03061 -63.49182,-32.19626 -5.17075,-3.31712 -12.57037,-7.20338 -16.44361,-8.63611 -3.87324,-1.43273 -9.89436,-4.29814 -13.38028,-6.36758 -3.48591,-2.06943 -9.50704,-4.92632 -13.38028,-6.34863 -6.24873,-2.29462 -10.50218,-4.78635 -29.12017,-17.059 -9.78131,-6.44766 -24.30598,-14.97449 -38.13379,-22.38678 -7.88603,-4.22722 -17.95111,-10.52431 -22.36685,-13.99352 -4.41574,-3.46919 -8.60455,-6.30763 -9.30847,-6.30763 -0.70392,0 -3.76801,-2.55363 -6.80909,-5.67475 -3.04108,-3.12111 -10.40082,-8.24115 -16.35499,-11.37787 -5.95416,-3.1367 -11.8742,-7.30325 -13.15564,-9.25897 -1.28143,-1.95572 -2.88931,-7.45188 -3.57305,-12.21368 -1.58367,-11.02918 -5.01084,-69.64136 -7.67112,-131.19304 -1.13834,-26.33803 -2.74089,-54.85916 -3.56124,-63.38028 -2.13591,-22.18635 -2.43905,-60.71628 -0.49313,-62.67866 1.67404,-1.6882 27.13178,10.12414 57.58979,26.72154 8.52113,4.6434 16.25256,8.45374 17.18096,8.46744 0.9284,0.0137 3.43487,1.64383 5.56993,3.62254 2.13506,1.97871 21.02335,12.1403 41.97397,22.58132 55.85407,27.83561 74.01705,37.61519 134.14178,72.22665 10.99636,6.33018 25.57383,14.08917 32.39436,17.24221 6.82054,3.15303 18.11802,8.52778 25.10551,11.94389 6.98749,3.4161 13.76347,6.2111 15.05772,6.2111 1.29425,0 2.75235,0.64586 3.24021,1.43524 0.48786,0.78936 3.85273,3.01355 7.47749,4.94262 11.99474,6.38352 16.11658,8.94553 19.82362,12.32178 4.15731,3.78634 20.968,13.85153 32.5415,19.48381 4.26056,2.07341 9.81633,5.58035 12.34618,7.79319 5.37963,4.70557 6.48973,9.50209 8.75441,37.82617 1.74914,21.8765 3.18645,34.27588 6.34725,54.75681 1.3004,8.42611 2.03569,16.57702 1.63399,18.11315 -0.83913,3.2088 2.8985,66.86997 4.03388,68.70704 0.41313,0.66847 1.04924,15.35471 1.41357,32.6361 0.36432,17.28138 1.02187,40.4524 1.4612,51.49113 0.92139,23.15131 0.15026,24.38458 -8.6581,13.84693 l 0,0 z"
     id="path3778"
     inkscape:connector-curvature="0"
     transform="scale(0.8,0.8)" />
  <path
     style="color:#000000;fill:#e8e8e8;fill-opacity:1;fill-rule:nonzero;stroke:#c42836;stroke-width:0;stroke-linecap:square;stroke-linejoin:round;stroke-miterlimit:4;stroke-opacity:1;stroke-dasharray:none;stroke-dashoffset:0;marker:none;visibility:visible;display:inline;overflow:visible;enable-background:accumulate"
     d="m 567.51576,815.84165 c -3.1677,-3.43061 -6.90973,-6.40562 -8.3156,-6.61114 -6.89228,-1.00755 -11.00683,-1.72979 -11.00683,-1.93206 0,-0.12296 -0.95071,-0.42797 -2.11268,-0.67777 -3.07489,-0.66105 -39.15603,-15.8166 -45.77465,-19.22723 -22.88859,-11.79466 -40.91958,-21.67389 -41.31748,-22.63797 -0.25983,-0.62954 -1.05208,-0.78635 -1.76056,-0.34848 -0.70848,0.43786 -1.28815,0.0875 -1.28815,-0.77858 0,-0.86608 -0.63381,-1.18298 -1.40846,-0.70422 -0.77464,0.47876 -1.40845,0.19927 -1.40845,-0.6211 0,-0.82037 -0.89788,-1.49158 -1.99531,-1.49158 -1.0974,0 -2.20656,-0.47535 -2.46478,-1.05634 -0.25822,-0.58098 -5.223,-4.16014 -11.03286,-7.95367 -5.80986,-3.79354 -12.28068,-8.07171 -14.3796,-9.50704 -2.09891,-1.43534 -4.47567,-2.60971 -5.28169,-2.60971 -0.80601,0 -1.46547,-0.57748 -1.46547,-1.28327 0,-1.3915 -26.78569,-15.02701 -28.52113,-14.51894 -0.58099,0.17008 -1.05634,-0.36196 -1.05634,-1.18232 0,-0.82037 -0.6338,-1.09986 -1.40845,-0.6211 -0.77465,0.47876 -1.40845,0.16186 -1.40845,-0.70423 0,-0.86608 -0.6338,-1.18298 -1.40845,-0.70422 -0.77465,0.47876 -1.40845,0.16186 -1.40845,-0.70423 0,-0.86608 -0.63381,-1.18298 -1.40845,-0.70422 -0.77465,0.47876 -1.41119,0.35771 -1.41452,-0.26899 -0.003,-0.6267 -3.80343,-2.72397 -8.44464,-4.66059 -4.64121,-1.93662 -8.44129,-4.03389 -8.44463,-4.66059 -0.003,-0.62671 -0.63987,-0.74775 -1.41452,-0.26899 -0.77465,0.47876 -1.40845,0.16186 -1.40845,-0.70422 0,-0.86609 -0.63381,-1.18299 -1.40845,-0.70423 -0.77465,0.47876 -1.40845,0.16186 -1.40845,-0.70423 0,-0.86608 -0.63381,-1.18298 -1.40846,-0.70422 -0.77464,0.47876 -1.40845,0.16186 -1.40845,-0.70423 0,-0.86608 -0.6338,-1.18298 -1.40845,-0.70422 -0.77464,0.47876 -1.40845,0.22891 -1.40845,-0.5552 0,-0.78411 -2.69366,-2.68513 -5.98591,-4.22448 -3.29226,-1.53935 -7.57043,-3.76731 -9.50705,-4.95101 -5.89035,-3.6003 -40.06814,-19.70799 -41.19718,-19.41586 -0.58098,0.15032 -1.05634,-0.41331 -1.05634,-1.25251 0,-0.83921 -0.79225,-1.24819 -1.76056,-0.90886 -0.96831,0.33934 -4.01939,-1.15221 -6.78018,-3.31455 -2.7608,-2.16232 -6.72207,-4.70719 -8.80282,-5.65525 -2.08076,-0.94806 -3.7832,-2.29321 -3.7832,-2.98922 0,-0.69603 -0.6338,-0.87379 -1.40845,-0.39503 -0.77465,0.47876 -1.40845,0.17884 -1.40845,-0.6665 0,-0.84532 -1.10915,-1.99188 -2.46479,-2.5479 -1.35563,-0.55603 -8.48591,-4.59255 -15.84507,-8.97004 -7.35915,-4.37749 -16.39084,-9.41576 -20.07042,-11.19615 -3.67958,-1.78038 -6.69014,-3.78198 -6.69014,-4.44798 0,-0.66601 -0.6338,-0.81921 -1.40845,-0.34045 -0.77465,0.47876 -1.40845,0.19927 -1.40845,-0.6211 0,-0.82036 -0.8312,-1.49157 -1.8471,-1.49157 -1.0159,0 -3.20771,-1.26761 -4.87068,-2.8169 -1.66298,-1.5493 -3.43395,-2.81691 -3.93551,-2.81691 -0.50155,0 -2.66669,-1.42605 -4.81143,-3.16901 -2.14473,-1.74296 -5.6649,-4.43662 -7.82258,-5.98592 -2.15768,-1.54929 -6.19862,-4.84542 -8.97985,-7.32473 -2.78124,-2.47931 -7.43356,-5.58612 -10.33849,-6.90404 -2.90493,-1.31793 -5.28169,-2.97117 -5.28169,-3.67389 0,-0.70272 -0.6338,-0.88596 -1.40845,-0.40719 -0.77465,0.47876 -1.40845,0.19926 -1.40845,-0.6211 0,-0.82037 -0.47535,-1.33313 -1.05634,-1.13947 -1.41951,0.47317 -6.62529,-4.83386 -8.04962,-8.20618 -2.04904,-4.85142 -3.18533,-12.87813 -4.17185,-29.46987 -0.27636,-4.64789 -1.47631,-23.66198 -2.66656,-42.25353 -1.19026,-18.59154 -2.87558,-50.91549 -3.74516,-71.83098 -0.86959,-20.91549 -2.21782,-44.0493 -2.99608,-51.40845 -1.0974,-10.37696 -1.8872,-52.32959 -1.33335,-70.8242 0.0624,-2.08199 0.56469,-2.25244 2.92131,-0.99121 1.5653,0.83773 3.46671,1.13952 4.22535,0.67066 0.75864,-0.46887 1.37934,-0.14387 1.37934,0.72221 0,0.86609 0.63381,1.18299 1.40846,0.70423 0.77464,-0.47876 1.40845,-0.0936 1.40845,0.85584 0,0.94948 0.39725,1.32906 0.88279,0.84352 0.48554,-0.48553 2.8623,0.17295 5.28169,1.46329 2.41939,1.29035 4.87425,2.21578 5.45523,2.05651 0.58099,-0.15927 1.05634,0.38162 1.05634,1.20199 0,0.82036 0.6338,1.09986 1.40845,0.6211 0.77465,-0.47876 1.40845,-0.16186 1.40845,0.70423 0,0.86608 0.63381,1.18298 1.40845,0.70422 0.77465,-0.47876 1.40845,-0.0936 1.40845,0.85585 0,0.94947 0.39236,1.33396 0.8719,0.85441 0.47955,-0.47954 1.79825,0.0544 2.93045,1.18666 1.13221,1.1322 2.64126,1.69842 3.35346,1.25826 0.71219,-0.44016 1.2949,-0.0917 1.2949,0.7744 0,0.86608 0.57967,1.21644 1.28815,0.77857 0.70849,-0.43787 1.50074,-0.31682 1.76057,0.26899 0.25982,0.58581 9.02874,5.41274 19.48649,10.7265 10.45775,5.31377 19.96479,10.49453 21.12676,11.51281 2.89375,2.53591 62.2433,33.33341 64.43662,33.43727 0.96831,0.0459 1.76056,0.64895 1.76056,1.3402 0,0.69126 0.63381,0.86512 1.40845,0.38636 0.77465,-0.47876 1.40846,-0.16185 1.40846,0.70423 0,0.86608 0.6338,1.18298 1.40845,0.70422 0.77464,-0.47875 1.40845,-0.16185 1.40845,0.70423 0,0.86608 0.6338,1.18298 1.40845,0.70423 0.77465,-0.47876 1.40845,-0.16186 1.40845,0.70422 0,0.86608 0.6338,1.18299 1.40845,0.70423 0.77465,-0.47876 1.40845,-0.16186 1.40845,0.70422 0,0.86608 0.6338,1.18299 1.40845,0.70423 0.77465,-0.47876 1.40845,-0.24029 1.40845,0.52993 0,0.77023 2.21831,2.20256 4.92958,3.18297 2.71127,0.98041 4.92958,2.32644 4.92958,2.99119 0,0.66475 0.6338,0.81692 1.40845,0.33816 0.77464,-0.47876 1.40845,-0.16186 1.40845,0.70423 0,0.86608 0.6338,1.18298 1.40845,0.70422 0.77465,-0.47876 1.40845,-0.16186 1.40845,0.70423 0,0.86608 0.6338,1.18298 1.40845,0.70422 0.77465,-0.47876 1.40845,-0.16186 1.40845,0.70423 0,0.86608 0.6338,1.18298 1.40845,0.70422 0.77465,-0.47876 1.40845,-0.16186 1.40845,0.70423 0,0.86608 0.6338,1.18298 1.40845,0.70422 0.77465,-0.47876 1.40845,-0.19926 1.40845,0.62111 0,0.82036 0.6772,1.49157 1.50489,1.49157 1.87458,0 42.17601,22.4902 44.72248,24.95736 1.02363,0.99176 2.49121,1.8032 3.26127,1.8032 0.77005,0 6.90436,3.26893 13.63179,7.26428 17.53883,10.41613 57.56362,30.73713 58.56612,29.73462 0.46676,-0.46676 0.84866,-0.0718 0.84866,0.87765 0,0.94948 0.63381,1.33461 1.40846,0.85585 0.77464,-0.47876 1.40845,-0.16186 1.40845,0.70422 0,0.86609 0.6338,1.18299 1.40845,0.70423 0.77464,-0.47876 1.40845,-0.19927 1.40845,0.6211 0,0.82036 0.49307,1.33312 1.09572,1.13946 0.60264,-0.19366 3.93011,1.01996 7.39436,2.69694 3.46426,1.67699 7.88316,3.73224 9.81978,4.56724 4.36236,1.88091 8.88066,4.6866 10.00015,6.20974 0.46487,0.63249 1.8874,1.30294 3.16116,1.48988 1.27376,0.18696 4.37933,1.87844 6.90125,3.75886 2.52193,1.88043 5.06068,3.26983 5.64166,3.08758 0.58099,-0.18225 1.05634,0.25863 1.05634,0.97973 0,1.66414 27.06244,18.07582 31.74421,19.25086 1.92666,0.48357 4.10947,1.91762 4.85066,3.18679 0.7412,1.26918 1.37662,1.67379 1.41203,0.89914 0.043,-0.93897 0.40933,-0.93897 1.09917,0 0.56913,0.77465 2.30238,2.07435 3.85168,2.88821 1.54929,0.81388 4.55446,4.93359 6.67815,9.15493 3.29654,6.55265 4.0678,10.45604 5.27354,26.68926 0.77674,10.45774 2.71388,28.20422 4.30474,39.43662 1.59088,11.23239 3.47476,34.04929 4.18644,50.70422 0.71166,16.65493 1.99876,36.93662 2.8602,45.07042 0.86143,8.13381 1.79567,23.34507 2.0761,33.80282 0.2804,10.45775 0.89545,31.69014 1.36674,47.1831 0.4713,15.49296 0.28969,30.07042 -0.40356,32.39437 l -1.26045,4.22535 -5.75947,-6.23748 z"
     id="path3780"
     inkscape:connector-curvature="0"
     transform="scale(0.8,0.8)" />
  <path
     style="color:#000000;fill:#e8e8e8;fill-opacity:1;fill-rule:nonzero;stroke:#c42836;stroke-width:0;stroke-linecap:square;stroke-linejoin:round;stroke-miterlimit:4;stroke-opacity:1;stroke-dasharray:none;stroke-dashoffset:0;marker:none;visibility:visible;display:inline;overflow:visible;enable-background:accumulate"
     d="m 581.28737,815.0249 c -0.73881,-1.9432 -1.98416,-20.48193 -2.76746,-41.19718 -1.46588,-38.76676 -2.0178,-47.3924 -4.34761,-67.94578 -0.74638,-6.5845 -1.96701,-27.5 -2.71251,-46.47887 -0.7455,-18.97887 -2.30112,-39.57746 -3.45694,-45.77465 -3.61408,-19.37781 -6.84986,-63.04511 -5.13052,-69.23703 0.82636,-2.97597 1.506,-9.28916 1.51032,-14.02931 0.005,-5.41001 1.25692,-12.22633 3.36306,-18.30985 8.52747,-24.63133 14.08309,-38.46705 22.39737,-55.77841 4.94013,-10.28595 10.16418,-21.55385 11.60901,-25.03976 1.44483,-3.48592 3.65905,-7.92254 4.9205,-9.85916 1.26145,-1.93662 4.38049,-9.85915 6.9312,-17.60563 6.29503,-19.11789 9.27458,-24.84057 14.96275,-28.73816 2.66093,-1.8233 4.83805,-3.86719 4.83805,-4.54199 0,-0.67479 0.8239,-1.22689 1.83087,-1.22689 1.00698,0 5.68694,-2.80586 10.39991,-6.23524 11.58802,-8.43198 22.62807,-13.79702 37.76922,-18.3544 6.97183,-2.09847 15.21127,-5.24109 18.30986,-6.98361 3.09859,-1.74252 8.02985,-4.54153 10.95834,-6.22002 2.92849,-1.67849 6.75575,-3.0518 8.505,-3.0518 2.87809,0 7.96421,-2.16705 15.74793,-6.70972 4.04047,-2.35805 22.76656,-10.72418 30.66265,-13.69893 4.54814,-1.71346 7.59187,-2.12462 9.42067,-1.27259 1.48595,0.69228 10.35243,9.44545 19.70331,19.45147 9.35088,10.00602 18.90971,19.35316 21.24184,20.77141 2.33214,1.41826 4.96285,4.16461 5.84605,6.10301 0.88318,1.9384 2.00121,3.52436 2.48451,3.52436 0.48328,0 2.01598,1.92528 3.40601,4.27841 3.71038,6.28118 21.93071,21.29702 31.40655,25.88296 13.52955,6.54777 13.15235,5.80062 13.15235,26.05214 0,9.76181 0.60551,19.86004 1.34558,22.44051 2.2841,7.96418 3.32224,83.29085 2.20227,159.7942 -1.18427,80.89465 -0.46032,75.72679 -11.00559,78.56344 -13.74966,3.69861 -23.13589,9.22285 -29.37807,17.29035 -3.93651,5.08764 -8.01302,8.61958 -11.71364,10.14885 -3.12174,1.29007 -8.01532,3.30425 -10.87463,4.47597 -2.8593,1.17172 -5.48535,2.87732 -5.83568,3.79024 -0.63052,1.64311 -23.49074,13.48011 -26.03349,13.48011 -0.72576,0 -2.12131,0.96602 -3.1012,2.14672 -0.97988,1.18069 -2.10832,1.81999 -2.50764,1.42066 -0.39933,-0.39932 -1.41817,-0.15426 -2.26409,0.54457 -0.84593,0.69883 -7.35946,3.18728 -14.47453,5.5299 -7.11507,2.34262 -14.16613,5.33049 -15.66902,6.63972 -1.50289,1.30922 -4.07935,3.56878 -5.72548,5.02125 -1.64612,1.45246 -3.78521,2.64504 -4.75352,2.65018 -1.61598,0.008 -15.24534,6.65348 -32.74648,15.96531 -22.56252,12.00485 -53.84092,24.82834 -66.00978,27.06262 -2.99552,0.55 -7.43214,2.65852 -9.85915,4.68559 -7.75533,6.47736 -12.72012,9.53291 -18.49726,11.38399 -3.0986,0.99284 -7.53522,3.2173 -9.85916,4.94322 -4.30174,3.19479 -12.58257,7.78092 -14.04942,7.78092 -0.44497,0 -1.41351,-1.58989 -2.15231,-3.5331 z"
     id="path3788"
     inkscape:connector-curvature="0"
     transform="scale(0.8,0.8)" />
  <path
     style="color:#000000;fill:#cfcfcf;fill-opacity:1;fill-rule:nonzero;stroke:#c42836;stroke-width:0;stroke-linecap:square;stroke-linejoin:round;stroke-miterlimit:4;stroke-opacity:1;stroke-dasharray:none;stroke-dashoffset:0;marker:none;visibility:visible;display:inline;overflow:visible;enable-background:accumulate"
     d="m 580.74421,815.38899 c -0.48194,-1.74296 -1.51524,-19.01409 -2.29621,-38.38029 -0.78098,-19.36619 -2.33726,-46.30281 -3.45841,-59.85915 -2.40156,-29.03839 -3.29801,-43.24076 -4.35612,-69.01408 -0.42934,-10.45775 -1.97241,-27.25353 -3.42906,-37.32395 -4.12445,-28.51407 -6.19982,-59.94744 -4.48285,-67.89674 0.802,-3.71313 1.48336,-10.23706 1.51413,-14.49762 0.0308,-4.26057 1.2867,-11.2324 2.79094,-15.49296 9.16954,-25.97154 16.60723,-44.19376 26.1571,-64.08451 5.95074,-12.39437 12.00983,-25.07042 13.46464,-28.16901 1.4548,-3.0986 4.96655,-12.28874 7.80389,-20.42254 2.83733,-8.1338 6.20247,-16.42103 7.47809,-18.41606 2.54064,-3.97348 13.28231,-13.9783 15.00779,-13.9783 0.59371,0 6.26331,-3.52125 12.59912,-7.825 8.51084,-5.78118 16.26997,-9.48075 29.70687,-14.16428 10.00297,-3.48661 22.63683,-8.77219 28.07525,-11.74574 5.43841,-2.97355 11.9642,-5.8437 14.50175,-6.37812 2.53753,-0.53442 10.77697,-4.0203 18.30986,-7.74639 16.78232,-8.30129 30.9287,-14.11231 34.35505,-14.11231 2.78388,0 49.35646,46.13804 56.38693,55.86082 5.43531,7.51676 18.96167,18.46222 30.93288,25.03073 5.16294,2.83287 10.04922,5.9484 10.85841,6.9234 3.45607,4.16431 5.1059,59.80025 4.94838,166.87036 -0.13198,89.71896 -0.48147,107.80641 -2.11268,109.3411 -1.07499,1.01138 -5.44044,2.9519 -9.701,4.31227 -12.30401,3.92855 -20.58337,8.65082 -26.3429,15.02513 -9.11704,10.09017 -11.148,11.62608 -18.92755,14.31401 -4.15055,1.43406 -9.13096,4.04155 -11.06758,5.79442 -6.30897,5.71036 -37.30059,20.13345 -54.63884,25.42821 -3.32602,1.01571 -8.82,4.11875 -12.20888,6.89568 -3.38886,2.77692 -6.90856,5.04894 -7.82156,5.04894 -0.91299,0 -11.26407,4.91689 -23.00239,10.92643 -40.18968,20.57542 -56.34935,27.48788 -76.27199,32.62608 -3.09859,0.79916 -9.29951,4.20011 -13.77981,7.55769 -4.4803,3.35758 -10.50143,6.92565 -13.38028,7.92906 -2.87885,1.00339 -9.08128,4.29201 -13.78317,7.30804 -9.8142,6.29532 -12.6002,6.76161 -13.8298,2.31468 l 0,0 z"
     id="path3790"
     inkscape:connector-curvature="0"
     transform="scale(0.8,0.8)" />
  <path
     style="color:#000000;fill:#cb3c32;fill-opacity:1;fill-rule:nonzero;stroke:#c42836;stroke-width:0;stroke-linecap:square;stroke-linejoin:round;stroke-miterlimit:4;stroke-opacity:1;stroke-dasharray:none;stroke-dashoffset:0;marker:none;visibility:visible;display:inline;overflow:visible;enable-background:accumulate"
     id="path3798"
     d="m 714.51032,272.81764 c 1.2168,0.13574 2.41065,0.39925 3.55112,0.84473 0.83064,0.37353 1.82158,0.62798 2.35737,1.41321 0.19677,0.53084 -0.0794,0.95637 -0.32118,1.41258 0,0 -2.19998,0.99377 -2.19998,0.99377 l 0,0 c 0.18472,-0.37997 0.52711,-0.73865 0.44179,-1.18494 -0.49957,-0.73267 -1.5068,-0.93056 -2.26327,-1.30007 -1.13698,-0.42402 -2.32518,-0.66946 -3.53307,-0.78705 0,0 1.96722,-1.39223 1.96722,-1.39223 z"
     inkscape:connector-curvature="0"
     transform="scale(0.8,0.8)" />
  <path
     style="color:#000000;fill:#ff8284;fill-opacity:1;fill-rule:nonzero;stroke:#c42836;stroke-width:0;stroke-linecap:square;stroke-linejoin:round;stroke-miterlimit:4;stroke-opacity:1;stroke-dasharray:none;stroke-dashoffset:0;marker:none;visibility:visible;display:inline;overflow:visible;enable-background:accumulate"
     d="m 630.67495,360.61988 c -2.18042,-2.36182 -3.10658,-4.44975 -3.33545,-7.51945 -0.26655,-3.57513 -0.9942,-7.5697 -1.83664,-10.08258 -1.15389,-3.44193 -1.70791,-6.01742 -2.29985,-10.69147 -1.07854,-8.51639 -5.03712,-21.37457 -8.10036,-26.31147 -0.66695,-1.0749 -0.89049,-2.19318 -1.28404,-6.42361 -0.48602,-5.22434 -1.27559,-8.54404 -3.6059,-15.16084 -0.59936,-1.70185 -1.48334,-5.2956 -1.9644,-7.98611 -1.62821,-9.10638 -2.00544,-10.41569 -3.66036,-12.70434 -0.93179,-1.28862 -1.88829,-5.31962 -2.9204,-12.30747 -0.50618,-3.42709 -1.30325,-7.48959 -1.77128,-9.02777 -1.66646,-5.47692 -1.84382,-6.2777 -1.65702,-7.48126 0.13484,-0.86878 -0.15841,-2.21425 -1.02229,-4.69045 -1.69354,-4.85429 -2.16841,-6.88869 -2.99847,-12.84572 -0.39904,-2.86375 -1.03473,-6.93388 -1.41265,-9.04472 -1.12588,-6.28855 -1.32907,-8.52958 -0.79205,-8.73566 0.25482,-0.0978 2.14274,0.90997 4.1954,2.23945 2.05265,1.32947 4.90397,3.08684 6.33626,3.90526 5.98713,3.42108 10.68035,6.4985 12.035,7.89155 0.83293,0.85654 1.76644,1.48567 2.20444,1.48567 0.70359,0 2.77445,1.81206 2.77445,2.42772 0,0.40812 2.2478,1.39188 3.17747,1.39064 0.44857,-5.9e-4 2.53433,0.84852 4.63503,1.88694 2.10069,1.03842 7.25694,3.16734 11.45833,4.73094 7.84181,2.91842 9.82148,3.7778 11.22236,4.87166 0.44312,0.34601 1.53687,0.72369 2.43055,0.83928 2.99746,0.38773 3.18737,0.4711 3.18737,1.39926 0,0.96998 1.36111,1.98297 3.56809,2.65549 0.93122,0.28376 1.97154,1.13742 3.59024,2.94603 1.84893,2.06586 2.47112,2.54649 3.29645,2.54649 1.04515,0 3.24468,1.19194 4.09893,2.22125 0.26456,0.31877 0.49664,1.07426 0.51573,1.67886 0.0571,1.80777 2.55804,3.43418 6.53016,4.24668 0.69413,0.14198 1.1135,0.58475 1.60393,1.69345 0.7135,1.613 6.2193,7.41844 9.37973,9.89022 1.01976,0.79755 2.20235,1.45009 2.62799,1.45009 0.42564,0 2.93265,1.47658 5.57113,3.2813 2.63849,1.80471 5.25806,3.3825 5.82127,3.5062 0.89057,0.1956 0.99515,0.33993 0.80251,1.10747 -0.21059,0.83906 -0.1635,0.87313 0.95555,0.69154 1.48383,-0.24079 1.83801,-0.0101 2.14309,1.39613 0.2414,1.11269 0.4677,1.26848 1.66562,1.14659 0.36347,-0.037 0.74129,0.28894 0.93961,0.81058 0.2274,0.59809 0.74596,0.98575 1.64903,1.23277 0.72453,0.19818 2.15383,0.99715 3.17622,1.77549 1.02239,0.77835 1.95375,1.32031 2.0697,1.20436 0.11594,-0.11594 0.18616,-0.82892 0.15603,-1.58439 -0.057,-1.42912 0.1901,-1.61894 1.32015,-1.01415 0.41014,0.2195 0.67212,0.72643 0.67292,1.30208 0.004,3.1979 4.30126,5.42916 20.17485,10.47634 10.23585,3.2546 12.36207,4.10579 17.76502,7.11185 1.86365,1.03689 2.63453,1.28093 3.71945,1.17747 1.27091,-0.12121 1.35459,-0.0748 1.17268,0.64994 -0.15531,0.61882 0.009,0.86808 0.79444,1.20353 2.3726,1.0136 2.80936,2.29574 1.36626,4.01078 -1.20361,1.43041 -3.78773,2.72922 -7.16495,3.60122 -1.61327,0.41654 -3.4566,1.14655 -4.09628,1.62224 -0.97991,0.72868 -1.13165,1.02199 -0.96354,1.8625 0.18542,0.9271 0.12341,0.99761 -0.8773,0.99761 -0.63144,0 -2.39453,0.71246 -4.26277,1.7226 -1.75228,0.94742 -4.04742,1.94697 -5.10033,2.22122 -1.88876,0.49196 -5.48313,2.2227 -10.88293,5.24027 -3.13386,1.7513 -6.93237,3.03246 -11.41939,3.85152 -3.8048,0.69453 -4.84721,1.05975 -9.31468,3.26344 -1.95848,0.96608 -4.0115,1.7565 -4.56226,1.7565 -0.79586,0 -1.54665,0.56457 -3.65812,2.75077 -2.88637,2.98855 -3.032,3.05765 -9.21791,4.37445 -1.75204,0.37295 -3.01278,0.85301 -3.49263,1.3299 -0.52259,0.51937 -1.21977,0.75911 -2.29299,0.78849 -0.84815,0.0232 -2.71397,0.39049 -4.14626,0.81616 -3.67306,1.09161 -18.82089,6.97813 -21.71582,8.43887 -6.13184,3.09404 -12.99485,7.64795 -16.69504,11.07788 -2.69142,2.49484 -3.70125,3.12241 -6.66531,4.14219 -3.02149,1.03955 -4.11285,0.89807 -5.61377,-0.72772 l 0,0 z"
     id="path3802"
     inkscape:connector-curvature="0"
     transform="scale(0.8,0.8)" />
</svg>
