<?xml version="1.0" encoding="UTF-8" standalone="no"?>
<svg
   xmlns:dc="http://purl.org/dc/elements/1.1/"
   xmlns:cc="http://creativecommons.org/ns#"
   xmlns:rdf="http://www.w3.org/1999/02/22-rdf-syntax-ns#"
   xmlns:svg="http://www.w3.org/2000/svg"
   xmlns="http://www.w3.org/2000/svg"
   xmlns:sodipodi="http://sodipodi.sourceforge.net/DTD/sodipodi-0.dtd"
   xmlns:inkscape="http://www.inkscape.org/namespaces/inkscape"
   version="1.0"
   width="880"
   height="880"
   viewBox="0 0 704 704"
   preserveAspectRatio="xMidYMid meet"
   id="svg2"
   inkscape:version="0.48.4 r9939"
   sodipodi:docname="half-hipped.svg">
  <defs
     id="defs12" />
  <sodipodi:namedview
     pagecolor="#ffffff"
     bordercolor="#666666"
     borderopacity="1"
     objecttolerance="10"
     gridtolerance="10"
     guidetolerance="10"
     inkscape:pageopacity="0"
     inkscape:pageshadow="2"
     inkscape:window-width="1419"
     inkscape:window-height="1014"
     id="namedview10"
     showgrid="false"
     inkscape:zoom="0.33224977"
     inkscape:cx="286.3485"
     inkscape:cy="558.48222"
     inkscape:window-x="376"
     inkscape:window-y="40"
     inkscape:window-maximized="0"
     inkscape:current-layer="svg2" />
  <metadata
     id="metadata4">
Created by potrace 1.14, written by Peter Selinger 2001-2017
<rdf:RDF>
  <cc:Work
     rdf:about="">
    <dc:format>image/svg+xml</dc:format>
    <dc:type
       rdf:resource="http://purl.org/dc/dcmitype/StillImage" />
    <dc:title />
  </cc:Work>
</rdf:RDF>
</metadata>
  <g
     id="g2992"
     transform="translate(-58.676772,-7.9881244)">
    <g
       transform="translate(0,3)"
       style="fill:#cb3c32;fill-opacity:1"
       id="g2993">
      <g
         style="fill:#cb3c32;fill-opacity:1;stroke:none"
         transform="matrix(0.1,0,0,-0.1,0,701)"
         id="g6">
        <path
           inkscape:connector-curvature="0"
           style="fill:#cb3c32;fill-opacity:1"
           d="m 2870,6505 c -7,-8 -19,-15 -27,-15 -7,0 -16,-7 -19,-15 -3,-8 -40,-31 -82,-51 -43,-21 -89,-46 -104,-56 -14,-10 -34,-18 -43,-18 -9,0 -31,-10 -48,-22 -18,-13 -34,-23 -37,-24 -14,-2 -66,-27 -78,-37 -8,-6 -20,-12 -27,-13 -23,-3 -85,-36 -85,-45 0,-5 -7,-9 -15,-9 -17,0 -117,-48 -125,-60 -3,-4 -30,-15 -61,-23 -31,-9 -68,-26 -82,-38 -15,-11 -53,-29 -85,-40 -31,-11 -79,-30 -107,-43 -54,-26 -175,-66 -198,-66 -31,0 -51,-39 -50,-98 1,-34 -4,-63 -12,-72 -7,-8 -25,-53 -40,-100 -15,-47 -34,-104 -41,-126 -8,-23 -16,-51 -19,-62 -2,-11 -9,-31 -16,-44 -7,-13 -12,-26 -11,-30 1,-5 -2,-8 -6,-8 -5,0 -9,-6 -10,-12 -5,-62 -33,-159 -43,-152 -5,3 -9,-4 -9,-15 0,-11 -4,-22 -8,-25 -5,-3 -7,-19 -4,-37 3,-23 1,-30 -7,-25 -8,6 -10,0 -5,-18 5,-21 3,-26 -12,-26 -9,0 -15,-3 -11,-6 3,-3 -3,-15 -13,-27 -11,-11 -17,-24 -14,-28 6,-11 -26,-90 -35,-84 -10,6 -32,-58 -33,-95 -1,-16 -5,-27 -10,-24 -7,5 -12,-20 -5,-30 1,-3 -7,-15 -19,-28 -29,-32 -64,-104 -64,-132 0,-32 -20,-89 -36,-102 -14,-11 -19,-88 -10,-154 19,-152 26,-219 31,-314 3,-60 7,-112 10,-115 4,-7 12,-103 20,-236 2,-27 5,-66 8,-86 3,-19 8,-82 11,-140 4,-57 9,-147 12,-199 3,-52 8,-142 10,-200 2,-58 6,-152 9,-210 3,-58 8,-179 10,-270 3,-91 8,-171 10,-179 3,-7 0,-29 -7,-48 -9,-26 -17,-33 -31,-29 -13,3 -17,0 -13,-10 3,-8 1,-14 -4,-14 -28,0 26,-63 65,-76 11,-4 34,-18 52,-31 18,-14 37,-22 43,-18 6,4 9,2 8,-4 -2,-6 23,-22 54,-35 34,-14 76,-42 103,-70 26,-25 54,-45 63,-44 10,2 16,-3 15,-9 -2,-7 3,-13 11,-13 8,0 16,-7 20,-15 8,-21 92,-73 237,-146 68,-35 126,-67 127,-71 2,-4 8,-8 13,-8 12,0 112,-61 124,-76 6,-7 32,-24 60,-39 27,-14 70,-41 94,-61 25,-19 75,-44 113,-55 37,-12 71,-25 74,-30 3,-5 10,-7 15,-4 5,4 9,2 9,-4 0,-14 52,-39 69,-33 8,2 11,0 7,-6 -8,-13 19,-23 41,-15 9,4 14,2 10,-3 -3,-5 6,-14 19,-21 15,-7 22,-7 18,-1 -6,9 51,-27 66,-42 24,-24 91,-60 101,-54 7,4 10,3 6,-3 -6,-10 27,-28 63,-35 8,-2 21,-9 28,-16 7,-6 19,-12 26,-12 7,0 39,-17 72,-38 32,-21 86,-49 119,-62 105,-41 121,-49 203,-104 44,-30 94,-61 110,-70 16,-8 51,-31 77,-51 26,-20 44,-31 39,-23 -4,7 8,-3 27,-23 32,-34 93,-69 119,-69 6,0 18,-7 27,-15 8,-8 18,-13 23,-10 4,3 10,-1 13,-9 3,-8 27,-24 54,-36 124,-57 153,-72 153,-79 0,-7 61,-32 92,-38 16,-3 70,-26 183,-78 28,-13 57,-25 65,-27 8,-2 17,-5 20,-8 3,-3 24,-14 48,-24 23,-11 42,-23 42,-28 0,-4 6,-8 14,-8 13,0 65,-53 83,-84 6,-10 30,-18 70,-22 55,-6 62,-5 72,15 7,11 16,21 21,21 20,0 110,72 110,88 0,8 3,13 6,10 3,-4 21,0 39,8 19,8 46,14 60,14 14,0 36,7 50,16 27,17 66,71 44,59 -8,-3 -5,1 5,9 11,9 24,16 29,16 4,0 5,5 1,12 -5,7 -1,9 13,6 32,-8 146,13 173,32 14,10 40,21 59,25 19,4 71,26 115,49 45,23 116,56 158,74 77,32 181,92 193,112 3,5 17,10 30,10 31,0 171,74 167,89 -1,7 2,10 8,6 6,-3 22,3 36,14 15,12 37,21 50,21 28,0 197,74 274,120 8,5 51,26 95,47 44,20 96,49 115,63 19,15 56,35 81,44 25,9 58,30 72,46 15,16 45,42 67,56 22,15 40,32 40,38 0,6 28,22 63,35 34,13 81,32 103,42 23,10 61,21 85,25 51,8 101,47 92,73 -3,9 -16,25 -28,36 -15,14 -22,33 -23,62 -1,24 2,43 6,43 5,0 7,13 4,30 -2,16 -8,27 -13,24 -5,-3 -9,11 -9,31 0,26 3,34 13,28 6,-4 4,5 -5,20 -18,26 -25,62 -10,54 4,-3 6,214 4,481 -2,268 -3,604 -3,746 1,187 -3,278 -14,327 -12,60 -9,116 7,133 2,1 -3,10 -10,19 -8,9 -11,24 -8,34 2,10 8,43 11,73 3,30 10,69 14,86 12,44 1,55 -56,58 -32,1 -60,10 -81,25 -18,12 -36,20 -41,17 -5,-4 -11,-2 -13,3 -1,5 -9,11 -17,13 -7,2 -43,31 -79,66 -36,34 -68,62 -71,62 -3,1 -19,17 -36,36 -26,31 -123,130 -192,196 -13,11 -21,24 -18,27 2,4 -9,15 -24,24 -16,9 -31,27 -35,39 -3,13 -21,34 -41,47 -19,13 -35,30 -35,38 0,8 -12,25 -27,38 -27,22 -27,24 -10,43 17,18 17,20 -1,42 l -18,22 -32,-27 -31,-26 -46,26 c -25,15 -45,24 -45,21 0,-3 -9,3 -20,14 -31,31 -98,61 -184,81 -44,11 -84,24 -90,28 -6,5 -20,11 -31,13 -11,1 -23,7 -26,11 -3,4 -6,-5 -6,-21 0,-26 7,-32 49,-51 27,-12 87,-32 134,-46 46,-13 97,-34 113,-46 17,-12 34,-18 42,-14 8,5 10,4 5,-3 -4,-7 -1,-12 8,-12 9,0 16,-8 16,-19 0,-17 -35,-39 -71,-44 -24,-4 -40,-18 -33,-29 4,-6 3,-8 -3,-5 -5,3 -22,-3 -39,-14 -16,-10 -36,-19 -45,-19 -8,0 -35,-13 -60,-28 -43,-28 -70,-37 -133,-47 -16,-3 -41,-13 -55,-22 -14,-10 -31,-16 -38,-15 -7,2 -19,-9 -28,-22 -12,-18 -29,-27 -61,-32 -24,-3 -44,-11 -44,-16 0,-5 -4,-6 -10,-3 -5,3 -40,-6 -77,-20 -38,-15 -85,-33 -106,-41 -50,-19 -148,-81 -165,-105 -6,-9 -28,-23 -49,-30 -33,-11 -37,-10 -54,12 -10,13 -19,29 -20,34 0,6 -2,26 -3,45 -2,19 -9,49 -16,65 -7,17 -14,54 -16,82 -2,48 -45,184 -66,208 -4,5 -8,25 -8,46 0,34 -11,78 -30,124 -5,11 -11,36 -14,55 -13,83 -16,94 -30,109 -8,9 -17,47 -21,84 -4,38 -13,84 -21,103 -8,19 -12,39 -9,44 3,6 -1,24 -9,42 -9,18 -18,56 -21,83 -3,28 -10,74 -16,103 -6,30 -9,56 -6,58 2,2 15,-4 28,-14 13,-10 54,-36 92,-56 37,-21 67,-42 67,-47 0,-5 6,-9 14,-9 8,0 16,-7 20,-15 3,-8 14,-15 23,-15 10,0 27,-6 38,-14 11,-8 56,-26 100,-41 44,-15 82,-32 83,-36 2,-5 15,-9 28,-9 14,0 23,-4 20,-9 -5,-8 16,-23 36,-25 4,-1 15,-11 23,-24 9,-12 19,-20 23,-18 10,6 47,-23 39,-30 -9,-9 24,-33 46,-34 9,0 17,-6 17,-12 0,-15 90,-101 98,-94 2,3 22,-8 42,-24 21,-17 43,-30 50,-30 6,0 8,-4 5,-10 -3,-6 1,-7 9,-4 11,4 16,0 16,-11 0,-9 5,-13 10,-10 6,3 10,1 10,-4 0,-6 5,-11 12,-11 6,0 19,-7 29,-16 15,-14 17,-13 15,13 0,15 -4,29 -9,31 -4,1 -16,11 -27,22 -11,11 -28,20 -38,20 -19,0 -64,40 -46,40 10,1 -21,20 -33,22 -5,0 -14,9 -22,20 -7,11 -20,17 -28,14 -8,-3 -11,-1 -8,4 3,6 0,10 -9,10 -8,0 -16,3 -18,8 -9,20 -110,102 -119,97 -6,-4 -13,2 -16,14 -3,11 -9,19 -13,16 -4,-2 -17,7 -28,20 -12,14 -28,25 -36,25 -8,0 -17,7 -20,16 -3,8 -10,13 -15,10 -5,-4 -16,0 -23,8 -22,21 -78,47 -88,41 -6,-3 -10,-2 -10,3 0,12 -78,47 -87,39 -3,-4 -12,2 -20,13 -8,11 -19,20 -25,20 -5,0 -27,13 -47,29 -20,15 -56,38 -81,51 -25,12 -58,37 -75,54 -42,46 -80,90 -80,96 0,3 -7,16 -14,28 -11,20 -18,23 -47,17 -21,-4 -46,0 -67,9 -47,21 -140,62 -152,67 -30,12 -124,75 -125,84 0,17 -125,94 -213,133 -45,19 -99,46 -119,58 -21,13 -48,24 -60,24 -13,0 -36,8 -53,17 -96,52 -301,153 -311,153 -6,0 -16,6 -22,13 -6,7 -42,28 -79,47 -70,34 -151,80 -238,135 -60,38 -177,95 -194,95 -7,0 -9,5 -6,10 3,6 -5,14 -18,19 -13,5 -33,21 -45,35 -22,29 -53,34 -72,11 z m 105,-95 c 28,-15 70,-38 95,-50 78,-36 124,-62 170,-95 25,-17 81,-50 125,-73 176,-90 247,-129 265,-145 11,-9 32,-17 47,-17 14,0 59,-20 99,-45 65,-41 156,-71 176,-59 5,3 11,-2 14,-10 3,-9 10,-13 15,-10 5,3 9,1 9,-5 0,-13 90,-62 101,-55 5,3 9,0 9,-5 0,-6 6,-11 14,-11 7,0 25,-9 40,-21 14,-11 31,-17 37,-13 8,4 9,3 5,-4 -4,-7 -3,-12 3,-12 6,0 28,-17 50,-37 73,-70 93,-82 221,-133 113,-45 158,-72 168,-99 6,-14 22,-56 36,-93 27,-71 55,-202 63,-300 3,-32 9,-56 13,-53 9,6 24,-43 21,-68 -2,-16 19,-85 40,-132 5,-11 11,-34 13,-52 3,-18 8,-38 12,-44 3,-6 8,-25 9,-42 2,-17 8,-33 14,-35 6,-2 9,-8 5,-13 -3,-5 0,-9 6,-9 6,0 8,-4 5,-10 -3,-5 -3,-16 1,-22 5,-7 9,-28 10,-48 4,-50 8,-66 24,-85 7,-9 15,-28 16,-42 2,-14 8,-29 14,-33 6,-4 12,-32 14,-62 2,-31 7,-61 11,-67 3,-6 7,-39 9,-73 1,-37 7,-63 14,-66 20,-6 14,-31 -13,-54 -18,-15 -25,-31 -24,-52 1,-26 -4,-53 -24,-131 -2,-5 -10,-23 -19,-40 -9,-16 -21,-50 -28,-75 -7,-25 -26,-74 -43,-109 -17,-36 -30,-70 -30,-78 0,-7 -4,-13 -9,-13 -4,0 -8,-9 -8,-19 0,-11 -6,-26 -13,-33 -16,-16 -50,-88 -50,-105 0,-7 -5,-13 -10,-13 -5,0 -7,-6 -4,-14 3,-7 -3,-26 -14,-42 -10,-16 -19,-25 -19,-20 0,5 -11,-13 -25,-39 -14,-26 -24,-50 -21,-52 2,-3 -4,-13 -14,-23 -20,-20 -38,-76 -42,-126 -1,-16 -5,-31 -8,-34 -7,-6 -55,-120 -56,-135 0,-5 -4,-18 -8,-27 -4,-9 -8,-22 -10,-30 -1,-7 -5,-19 -9,-25 -5,-7 -5,-18 -1,-25 4,-6 3,-8 -3,-5 -5,3 -17,-9 -26,-28 -9,-19 -21,-35 -26,-35 -5,0 -41,16 -80,35 -39,19 -75,35 -80,35 -5,0 -47,25 -92,55 -45,30 -85,52 -90,50 -4,-3 -10,3 -13,12 -6,19 -229,137 -324,173 -29,11 -64,31 -78,43 -14,13 -48,29 -75,35 -27,6 -68,24 -91,39 -24,15 -68,39 -98,53 -88,40 -210,111 -210,121 0,5 -12,14 -27,20 -16,5 -49,21 -74,34 -26,14 -52,25 -59,25 -7,0 -20,8 -29,18 -9,11 -52,37 -97,59 -44,22 -114,61 -155,88 -40,26 -105,63 -144,81 -38,19 -77,38 -85,43 -8,6 -44,24 -80,42 -36,17 -87,44 -115,60 -27,15 -61,33 -75,39 -14,6 -38,18 -55,27 -16,8 -61,28 -99,44 -38,16 -74,35 -80,42 -6,7 -38,23 -71,36 -80,30 -109,46 -148,82 -33,32 -103,65 -124,61 -7,-2 -13,2 -13,7 0,6 -13,17 -30,26 -16,9 -30,13 -30,9 0,-3 -16,8 -35,25 -20,17 -42,31 -50,31 -8,0 -15,5 -15,10 0,6 -8,10 -18,10 -10,0 -23,5 -30,12 -7,7 -12,9 -12,5 0,-4 -24,8 -52,28 -29,19 -58,35 -64,35 -16,0 -74,30 -95,49 -35,32 -48,41 -59,41 -16,0 -12,24 15,95 13,36 22,65 20,65 -3,0 4,15 15,33 11,17 20,40 20,49 0,9 6,23 13,30 8,7 17,30 21,50 4,20 11,38 17,40 5,2 11,13 12,26 0,12 5,22 9,22 4,0 8,6 8,14 0,8 10,32 22,52 12,21 23,47 23,58 1,11 7,22 14,24 6,2 8,8 5,13 -3,6 -1,16 6,24 6,7 13,25 16,39 2,14 9,38 16,53 6,16 13,39 15,53 2,14 12,43 22,65 22,47 34,77 35,87 1,3 4,10 9,14 4,4 7,17 7,29 0,13 6,28 14,34 8,6 17,32 21,56 3,25 11,45 16,45 6,0 8,4 5,9 -3,5 1,14 9,21 9,8 12,22 8,41 -3,18 -1,29 6,29 6,0 11,9 11,21 0,11 4,18 8,15 5,-3 15,11 22,30 8,19 20,40 27,46 15,12 18,58 3,58 -5,0 -7,7 -4,15 4,8 13,15 21,15 7,0 33,9 55,20 23,11 47,20 54,20 20,0 64,22 59,29 -2,4 4,7 13,8 38,3 178,57 192,74 3,3 21,13 40,22 221,97 304,140 293,151 -5,4 -1,6 8,4 8,-1 40,8 70,21 116,53 225,105 248,120 40,26 164,79 186,80 11,0 43,-13 70,-29 z M 6237,4548 c 18,-13 33,-27 33,-31 0,-4 21,-30 48,-57 26,-28 52,-56 58,-63 6,-6 27,-25 47,-41 20,-15 35,-31 33,-35 -3,-4 16,-27 42,-51 25,-25 42,-38 37,-30 -5,8 7,2 27,-15 20,-16 37,-38 37,-48 1,-10 6,-15 11,-12 6,3 10,-1 10,-9 0,-9 5,-16 12,-16 6,0 9,-3 6,-6 -6,-6 1,-15 65,-82 38,-40 150,-122 166,-122 6,0 11,-4 11,-10 0,-5 11,-10 23,-10 21,0 35,-8 85,-50 12,-11 14,-33 14,-135 -1,-64 0,-156 0,-175 0,-8 5,-21 11,-28 7,-9 12,-153 15,-415 5,-550 5,-591 -2,-847 -6,-197 -7,-400 -3,-495 3,-89 -2,-110 -32,-128 -16,-9 -37,-17 -47,-17 -31,0 -196,-73 -202,-89 -3,-9 -21,-30 -39,-47 -18,-17 -33,-35 -33,-40 0,-18 -60,-55 -98,-61 -43,-7 -98,-38 -106,-58 -3,-8 -12,-15 -19,-15 -8,0 -20,-7 -27,-15 -7,-8 -16,-13 -20,-10 -4,2 -16,-4 -26,-14 -11,-9 -26,-15 -33,-13 -9,3 -11,0 -6,-8 5,-8 4,-11 -2,-7 -14,9 -116,-36 -106,-46 4,-5 0,-5 -10,-1 -10,4 -17,1 -17,-6 0,-7 -6,-10 -14,-7 -8,3 -20,-1 -26,-9 -7,-8 -22,-14 -34,-14 -11,0 -30,-7 -40,-15 -11,-8 -34,-15 -51,-15 -35,0 -70,-21 -70,-42 0,-7 -10,-13 -23,-13 -23,0 -45,-23 -36,-37 3,-5 -6,-6 -20,-2 -14,3 -26,2 -26,-3 0,-5 -25,-17 -56,-28 -30,-10 -59,-26 -64,-34 -5,-9 -10,-12 -10,-8 0,10 -36,-9 -80,-43 -19,-14 -55,-32 -80,-39 -25,-7 -52,-19 -60,-26 -8,-7 -26,-16 -40,-20 -45,-13 -130,-55 -130,-63 0,-5 -24,-14 -52,-21 -29,-6 -76,-22 -103,-35 -28,-13 -76,-26 -106,-30 -46,-6 -59,-12 -82,-41 -15,-19 -33,-35 -40,-35 -7,0 -20,-8 -29,-19 -8,-10 -40,-24 -69,-31 -32,-7 -66,-24 -84,-40 -42,-39 -107,-72 -119,-60 -21,21 -31,159 -40,605 -4,145 -29,372 -43,386 -12,12 -13,-26 -1,-104 17,-114 18,-129 21,-204 1,-44 -2,-73 -8,-73 -7,0 -7,-3 0,-8 6,-4 10,-43 11,-87 0,-44 1,-105 2,-135 1,-30 1,-80 0,-110 -2,-30 1,-106 6,-167 8,-101 7,-113 -9,-119 -18,-7 -62,35 -97,91 -17,28 -18,29 -18,7 0,-21 -3,-23 -32,-17 -18,4 -53,18 -78,30 -25,12 -56,26 -70,30 -14,4 -52,20 -85,35 -72,33 -190,80 -203,80 -5,0 -20,10 -33,23 -14,12 -64,39 -111,61 -48,21 -101,49 -118,61 -18,13 -56,33 -86,45 -30,12 -54,26 -54,31 0,5 -6,9 -13,9 -7,0 -23,12 -36,26 -12,14 -35,30 -52,36 -16,5 -29,14 -29,19 0,6 -15,17 -32,25 -38,17 -67,34 -86,52 -7,6 -20,12 -28,12 -8,0 -14,5 -14,10 0,6 -4,10 -10,10 -5,0 -19,9 -30,20 -11,11 -26,20 -34,20 -7,0 -37,13 -67,29 -30,15 -66,31 -81,35 -23,5 -76,35 -113,63 -5,5 -26,14 -45,21 -19,8 -48,19 -65,25 -16,7 -32,15 -35,18 -3,3 -20,11 -37,18 -18,8 -33,17 -33,22 0,5 -5,9 -10,9 -6,0 -19,8 -30,18 -25,23 -113,70 -142,76 -30,6 -62,18 -68,26 -13,17 -142,79 -171,82 -13,2 -29,8 -35,13 -43,39 -94,73 -136,91 -47,20 -81,44 -63,44 5,0 -26,20 -69,45 -44,25 -81,45 -83,45 -1,0 -27,16 -58,35 -30,20 -55,33 -55,29 0,-4 -8,0 -18,9 -10,9 -27,18 -38,20 -11,1 -31,13 -44,25 -13,12 -29,22 -34,22 -11,0 -55,34 -91,70 -12,11 -28,20 -38,20 -9,0 -17,4 -17,9 0,6 -14,18 -30,28 -17,9 -30,23 -30,30 0,14 -19,26 -100,63 -94,42 -126,76 -141,145 -7,33 -14,96 -15,140 -2,44 -5,98 -8,120 -2,22 -7,99 -10,170 -15,316 -17,365 -23,450 -4,50 -7,146 -8,215 -4,217 -14,388 -30,485 -5,30 -10,118 -20,341 -4,95 -2,129 10,157 l 15,37 79,-40 c 44,-22 84,-40 89,-40 16,0 177,-85 214,-113 42,-32 219,-117 230,-111 4,3 8,-1 8,-9 0,-16 116,-81 305,-171 77,-37 147,-71 155,-77 22,-13 183,-90 195,-92 6,-1 16,-10 23,-19 7,-10 19,-18 26,-18 22,0 214,-102 311,-164 33,-21 73,-44 90,-50 17,-6 78,-39 135,-74 176,-106 304,-178 389,-220 35,-18 69,-36 75,-41 6,-5 43,-19 81,-32 39,-12 84,-33 100,-45 17,-12 41,-25 55,-29 13,-4 30,-14 38,-22 8,-7 23,-11 33,-8 11,4 19,2 19,-4 0,-6 5,-11 11,-11 7,0 17,-7 23,-15 6,-8 22,-16 35,-17 13,-2 36,-14 50,-27 26,-23 69,-46 83,-43 4,1 5,-4 3,-11 -4,-12 61,-59 101,-73 10,-4 33,-17 50,-30 49,-36 103,-64 124,-64 11,0 20,-4 20,-10 0,-5 6,-10 14,-10 7,0 30,-16 50,-35 21,-19 42,-35 47,-35 5,0 11,-10 13,-22 14,-70 26,-170 27,-220 1,-32 2,-78 3,-103 0,-25 4,-45 7,-45 6,0 20,-131 23,-207 1,-12 4,-25 9,-29 4,-4 8,-28 8,-53 l 1,-46 9,50 c 5,29 5,60 0,75 -10,26 -15,68 -32,250 -17,192 -21,279 -14,297 5,10 9,23 9,28 1,6 5,20 10,33 4,14 3,28 -3,36 -12,14 0,111 18,145 6,11 11,30 11,42 0,12 7,30 15,39 9,10 18,27 20,40 2,12 9,28 16,36 6,8 8,14 4,14 -4,0 -3,6 2,13 6,6 16,34 22,61 12,49 58,156 71,166 4,3 15,30 25,60 11,30 25,60 32,66 7,6 13,16 13,23 0,6 5,11 10,11 6,0 10,9 10,20 0,11 5,20 11,20 6,0 8,7 5,16 -3,9 3,29 15,45 12,17 19,33 16,36 -3,3 3,14 13,26 11,11 17,23 15,27 -3,5 2,11 11,14 9,3 14,13 10,21 -3,8 6,40 20,71 13,31 26,68 28,82 2,15 17,56 33,91 23,49 38,68 64,80 18,9 38,26 45,38 6,13 13,20 17,17 8,-8 46,14 98,57 26,22 50,39 53,39 4,0 23,11 44,24 37,24 187,78 268,96 23,5 69,28 100,50 32,22 63,40 71,40 7,0 13,3 13,8 0,4 16,8 36,9 20,1 44,5 53,9 9,4 18,8 21,8 3,1 16,11 29,23 13,12 38,25 55,28 17,4 48,17 68,31 20,13 49,26 65,30 15,4 51,18 78,31 61,28 61,28 102,1 z"
           id="path8" />
      </g>
      <path
         style="color:#000000;fill:#cb3c32;fill-opacity:1;fill-rule:nonzero;stroke:#c42836;stroke-width:0;stroke-linecap:square;stroke-linejoin:round;stroke-miterlimit:4;stroke-opacity:1;stroke-dasharray:none;stroke-dashoffset:0;marker:none;visibility:visible;display:inline;overflow:visible;enable-background:accumulate"
         id="path2991"
         d="m 570.47982,698.45717 c -0.0956,-6.02694 -0.43958,-12.04574 -0.78789,-18.0622 -0.47032,-8.01955 -0.70584,-16.04859 -1.33941,-24.05793 -0.0794,-2.06346 -0.54109,-4.1332 -0.37584,-6.20558 0.0416,-0.52103 0.16488,-1.02205 0.2735,-1.53087 0.64924,-2.93634 0.32934,-5.98495 0.2151,-8.96209 -0.10105,-3.52231 -0.60509,-7.00467 -1.12305,-10.4836 -0.21072,-1.28674 -0.22767,-2.59181 -0.70998,-3.81296 -0.3124,-0.70081 -0.43113,-1.45055 -0.49586,-2.20824 -0.0487,-0.76003 -0.081,-1.51721 0.0565,-2.26848 0,0 2.49072,-1.20781 2.49072,-1.20781 l 0,0 c -0.15858,0.72895 -0.14546,1.45744 -0.093,2.20107 0.0544,0.73242 0.15502,1.45886 0.45527,2.13732 0.49102,1.25001 0.51328,2.572 0.69516,3.89369 0.47846,3.49889 0.98369,6.99624 1.08855,10.53224 0.12751,2.9816 0.4853,6.03773 -0.10841,8.98704 -0.0865,0.37562 -0.26821,1.11872 -0.31009,1.49464 -0.23095,2.07294 0.22671,4.15947 0.2657,6.22801 0.53489,8.03171 0.74197,16.07796 1.2422,24.11181 0.37773,5.98378 0.72764,11.96917 1.02752,17.95711 0,0 -2.46666,1.25683 -2.46666,1.25683 z"
         inkscape:connector-curvature="0"
         transform="scale(0.8,0.8)" />
    </g>
    <path
       inkscape:connector-curvature="0"
       id="path3776"
       d="m 434.611,421.93363 c -4.64789,-2.04573 -11.88218,-5.83043 -16.07618,-8.41042 -4.19402,-2.57999 -7.92364,-4.6909 -8.28806,-4.6909 -0.3644,0 -2.23094,-1.31969 -4.14784,-2.93266 -1.9169,-1.61297 -10.86334,-6.51575 -19.88096,-10.89507 -9.01763,-4.37932 -17.6633,-8.82023 -19.21259,-9.86868 -1.5493,-1.04845 -4.84507,-2.55977 -7.32395,-3.35852 -5.64546,-1.81904 -35.2718,-17.52467 -38.30986,-20.30897 -1.23943,-1.13591 -6.56338,-4.1292 -11.83098,-6.65177 -5.26761,-2.52255 -16.16902,-8.43833 -24.22536,-13.14618 -19.43604,-11.35774 -53.94916,-29.46657 -78.30985,-41.08872 -10.84507,-5.17404 -22.76057,-11.51979 -26.47888,-14.10168 -3.71831,-2.5819 -8.02817,-5.08348 -9.57747,-5.55907 -1.54929,-0.47559 -6.36619,-3.01414 -10.70422,-5.64121 -4.33802,-2.62708 -10.42254,-6.04088 -13.52113,-7.58623 -21.36469,-10.65507 -28.70479,-15.19009 -28.7039,-17.73447 0.002,-4.18877 6.23341,-20.63643 15.15585,-40 3.84246,-8.33895 8.16919,-19.5765 10.41193,-27.04226 2.12824,-7.0846 13.50144,-37.6427 14.98647,-40.2664 0.60907,-1.0761 1.1074,-3.02784 1.1074,-4.3372 0,-1.30937 1.8836,-5.43235 4.18578,-9.16217 2.31012,-3.74269 4.20351,-8.28915 4.22535,-10.14603 0.0365,-3.10344 0.60796,-3.57364 7.36352,-6.05875 4.02817,-1.48181 8.59155,-3.38841 10.14084,-4.23688 1.5493,-0.84847 4.27192,-1.88997 6.05027,-2.31446 1.77836,-0.42449 11.52948,-4.80325 21.66916,-9.730586 10.13968,-4.927336 18.77764,-8.958792 19.19548,-8.958792 0.41784,0 2.42163,-1.2676 4.45286,-2.816896 2.03123,-1.549296 4.36078,-2.813066 5.17678,-2.808376 0.816,0.0047 11.11012,-4.673927 22.87581,-10.396927 15.09671,-7.343243 22.55756,-10.384715 25.35211,-10.334982 3.92163,0.06979 12.92355,4.608702 43.6525,22.010301 24.0201,13.602408 31.92297,17.868008 33.10406,17.868008 0.65192,0 5.7772,2.2817 11.38948,5.07042 6.00245,2.9826 11.76508,5.07043 13.99495,5.07043 2.08492,0 3.79167,0.38028 3.79279,0.84507 0.002,1.1031 9.41129,7.04225 11.15617,7.04225 1.98117,0 13.32961,7.47097 20.02488,13.18291 3.52654,3.0086 10.66901,7.11325 18.07289,10.38618 6.73308,2.9764 13.3501,6.10367 14.70449,6.94951 4.08158,2.54898 10.50986,21.84452 12.16782,36.52365 0.41997,3.71832 1.38335,8.28169 2.14085,10.14085 0.75748,1.85915 1.7568,5.40845 2.22068,7.88732 0.46389,2.47887 2.02589,8.05634 3.47113,12.39437 1.44523,4.33802 2.9964,9.9155 3.44703,12.39437 0.45064,2.47887 1.45516,5.52113 2.23227,6.76056 0.7771,1.23944 1.77115,4.98007 2.209,8.31252 0.43784,3.33245 1.94174,8.65639 3.34201,11.83098 2.95628,6.70234 3.58537,9.34877 5.0922,21.42183 0.61022,4.8891 1.63953,9.52796 2.28739,10.30857 0.8517,1.02623 0.4322,2.51815 -1.51481,5.38723 -1.52458,2.24659 -2.98988,6.47704 -3.37772,9.75175 -0.89022,7.51657 -15.13481,43.80669 -22.22988,56.6338 -0.59522,1.0761 -1.08222,2.50429 -1.08222,3.17377 0,0.66948 -1.19324,2.83129 -2.65164,4.80402 -3.78353,5.11786 -9.37386,17.45671 -10.28589,22.70278 -0.42724,2.45747 -1.58092,6.00676 -2.56372,7.88733 -0.98281,1.88058 -3.10847,7.50586 -4.7237,12.50064 -1.61522,4.99477 -3.93665,10.42736 -5.15873,12.07239 l -2.22196,2.991 -8.4507,-3.71955 0,0 z"
       style="color:#000000;fill:#ffa3a4;fill-opacity:1;fill-rule:nonzero;stroke:#c42836;stroke-width:0;stroke-linecap:square;stroke-linejoin:round;stroke-miterlimit:4;stroke-opacity:1;stroke-dasharray:none;stroke-dashoffset:0;marker:none;visibility:visible;display:inline;overflow:visible;enable-background:accumulate" />
    <path
       inkscape:connector-curvature="0"
       id="path3778"
       d="m 453.09662,653.99437 c -3.37944,-4.04289 -4.5136,-4.75907 -6.03348,-3.80988 -1.42562,0.8903 -4.54242,0.0794 -13.07741,-3.40235 -6.16315,-2.51417 -15.7691,-6.4004 -21.34656,-8.63605 -5.57747,-2.23566 -11.15493,-4.6588 -12.39437,-5.38477 -1.23943,-0.72596 -9.09859,-4.97018 -17.46478,-9.43158 -20.38993,-10.87322 -24.46617,-13.26168 -30.42254,-17.82596 -2.78874,-2.13695 -8.3662,-5.77844 -12.39437,-8.09219 -4.02817,-2.31374 -7.95564,-4.83539 -8.72772,-5.60365 -0.77208,-0.76827 -4.32137,-2.77163 -7.88732,-4.45189 -24.12417,-11.36726 -44.35165,-21.62449 -50.79345,-25.75701 -4.1366,-2.6537 -10.0563,-5.7627 -13.15489,-6.90889 -3.09859,-1.14618 -7.91549,-3.43851 -10.70423,-5.09406 -2.78872,-1.65555 -7.60563,-3.94106 -10.70422,-5.07891 -4.99898,-1.83569 -8.40174,-3.82908 -23.29614,-13.6472 -7.82504,-5.15812 -19.44478,-11.97959 -30.50703,-17.90942 -6.30882,-3.38178 -14.36089,-8.41945 -17.89348,-11.19482 -3.53259,-2.77535 -6.88364,-5.0461 -7.44677,-5.0461 -0.56314,0 -3.01441,-2.0429 -5.44728,-4.5398 -2.43286,-2.49689 -8.32065,-6.59292 -13.08399,-9.1023 -4.76333,-2.50936 -9.49936,-5.8426 -10.52451,-7.40717 -1.02514,-1.56458 -2.31145,-5.96151 -2.85844,-9.77095 -1.26694,-8.82334 -4.00867,-55.71308 -6.1369,-104.95443 -0.91067,-21.07042 -2.19271,-43.88733 -2.84899,-50.70422 -1.70873,-17.74908 -1.95124,-48.57303 -0.3945,-50.14293 1.33923,-1.35056 21.70542,8.09931 46.07183,21.37723 6.8169,3.71472 13.00205,6.76299 13.74477,6.77395 0.74272,0.011 2.74789,1.31507 4.45594,2.89804 1.70805,1.58296 16.81868,9.71224 33.57918,18.06505 44.68325,22.26849 59.21364,30.09215 107.31342,57.78132 8.79709,5.06415 20.45907,11.27134 25.91549,13.79377 5.45643,2.52242 14.49442,6.82222 20.08441,9.55511 5.58999,2.73288 11.01077,4.96888 12.04617,4.96888 1.0354,0 2.20188,0.51669 2.59217,1.14819 0.39029,0.63149 3.08219,2.41084 5.98199,3.9541 9.5958,5.10682 12.89327,7.15642 15.8589,9.85742 3.32585,3.02908 16.7744,11.08123 26.0332,15.58705 3.40845,1.65873 7.85306,4.46428 9.87694,6.23455 4.30371,3.76446 5.19179,7.60168 7.00353,30.26094 1.39931,17.5012 2.54916,27.4207 5.0778,43.80545 1.04032,6.74089 1.62855,13.26161 1.30719,14.49052 -0.6713,2.56704 2.3188,53.49597 3.22711,54.96563 0.3305,0.53478 0.83939,12.28377 1.13085,26.10888 0.29146,13.8251 0.8175,32.36192 1.16896,41.1929 0.73712,18.52105 0.12021,19.50767 -6.92648,11.07755 l 0,0 z"
       style="color:#000000;fill:#ffa3a4;fill-opacity:1;fill-rule:nonzero;stroke:#c42836;stroke-width:0;stroke-linecap:square;stroke-linejoin:round;stroke-miterlimit:4;stroke-opacity:1;stroke-dasharray:none;stroke-dashoffset:0;marker:none;visibility:visible;display:inline;overflow:visible;enable-background:accumulate" />
    <path
       inkscape:connector-curvature="0"
       id="path3780"
       d="m 454.01261,655.67332 c -2.53416,-2.74449 -5.52779,-5.1245 -6.65248,-5.28891 -5.51383,-0.80604 -8.80547,-1.38383 -8.80547,-1.54565 0,-0.0984 -0.76056,-0.34238 -1.69014,-0.54222 -2.45991,-0.52884 -31.32482,-12.65328 -36.61972,-15.38178 -18.31087,-9.43573 -32.73566,-17.33911 -33.05398,-18.11038 -0.20787,-0.50363 -0.84167,-0.62908 -1.40845,-0.27878 -0.56679,0.35029 -1.03052,0.07 -1.03052,-0.62286 0,-0.69287 -0.50705,-0.94639 -1.12677,-0.56338 -0.61971,0.38301 -1.12676,0.15942 -1.12676,-0.49688 0,-0.6563 -0.7183,-1.19326 -1.59625,-1.19326 -0.87792,0 -1.76525,-0.38028 -1.97182,-0.84508 -0.20658,-0.46478 -4.1784,-3.32811 -8.82629,-6.36293 -4.64789,-3.03483 -9.82454,-6.45737 -11.50368,-7.60563 -1.67913,-1.14828 -3.58054,-2.08777 -4.22535,-2.08777 -0.64481,0 -1.17238,-0.46199 -1.17238,-1.02662 0,-1.1132 -21.42855,-12.02161 -22.8169,-11.61515 -0.46479,0.13606 -0.84507,-0.28957 -0.84507,-0.94586 0,-0.65629 -0.50704,-0.87988 -1.12676,-0.49688 -0.61972,0.38301 -1.12676,0.12949 -1.12676,-0.56338 0,-0.69286 -0.50704,-0.94638 -1.12676,-0.56338 -0.61972,0.38301 -1.12676,0.12949 -1.12676,-0.56338 0,-0.69286 -0.50705,-0.94638 -1.12676,-0.56338 -0.61972,0.38301 -1.12896,0.28617 -1.13162,-0.21519 -0.002,-0.50136 -3.04274,-2.17917 -6.75571,-3.72847 -3.71297,-1.5493 -6.75303,-3.22711 -6.75571,-3.72847 -0.002,-0.50137 -0.51189,-0.5982 -1.13161,-0.21519 -0.61972,0.383 -1.12676,0.12948 -1.12676,-0.56338 0,-0.69287 -0.50705,-0.94639 -1.12676,-0.56338 -0.61972,0.383 -1.12676,0.12948 -1.12676,-0.56339 0,-0.69286 -0.50705,-0.94638 -1.12677,-0.56337 -0.61971,0.383 -1.12676,0.12948 -1.12676,-0.56339 0,-0.69286 -0.50704,-0.94638 -1.12676,-0.56337 -0.61971,0.383 -1.12676,0.18312 -1.12676,-0.44416 0,-0.62729 -2.15493,-2.14811 -4.78873,-3.37959 -2.63381,-1.23148 -6.05634,-3.01385 -7.60564,-3.96081 -4.71228,-2.88024 -32.05451,-15.76639 -32.95774,-15.53268 -0.46479,0.12025 -0.84507,-0.33065 -0.84507,-1.00201 0,-0.67137 -0.6338,-0.99855 -1.40845,-0.72709 -0.77465,0.27147 -3.21551,-0.92177 -5.42415,-2.65164 -2.20864,-1.72986 -5.37765,-3.76575 -7.04225,-4.5242 -1.66461,-0.75845 -3.02656,-1.83457 -3.02656,-2.39138 0,-0.55682 -0.50704,-0.69903 -1.12676,-0.31602 -0.61972,0.38301 -1.12676,0.14307 -1.12676,-0.5332 0,-0.67626 -0.88732,-1.5935 -1.97183,-2.03832 -1.08451,-0.44482 -6.78873,-3.67404 -12.67606,-7.17603 -5.88732,-3.50199 -13.11267,-7.53261 -16.05634,-8.95692 -2.94366,-1.42431 -5.35211,-3.02559 -5.35211,-3.55839 0,-0.5328 -0.50704,-0.65536 -1.12676,-0.27236 -0.61972,0.38301 -1.12676,0.15942 -1.12676,-0.49688 0,-0.65628 -0.66496,-1.19325 -1.47768,-1.19325 -0.81272,0 -2.56617,-1.01409 -3.89654,-2.25352 -1.33039,-1.23944 -2.74716,-2.25353 -3.14841,-2.25353 -0.40124,0 -2.13335,-1.14084 -3.84914,-2.53521 -1.71579,-1.39437 -4.53192,-3.54929 -6.25807,-4.78873 -1.72614,-1.23944 -4.95889,-3.87634 -7.18388,-5.85979 -2.22499,-1.98345 -5.94685,-4.46889 -8.27079,-5.52323 -2.32394,-1.05434 -4.22535,-2.37694 -4.22535,-2.93911 0,-0.56218 -0.50704,-0.70877 -1.12676,-0.32575 -0.61972,0.383 -1.12676,0.1594 -1.12676,-0.49688 0,-0.6563 -0.38028,-1.06651 -0.84507,-0.91158 -1.13561,0.37854 -5.30024,-3.86709 -6.4397,-6.56494 -1.63923,-3.88114 -2.54826,-10.30251 -3.33748,-23.5759 -0.22109,-3.71831 -1.18105,-18.92958 -2.13325,-33.80282 -0.95221,-14.87324 -2.30046,-40.7324 -2.99613,-57.46479 -0.69567,-16.73239 -1.77425,-35.23944 -2.39686,-41.12676 -0.87792,-8.30157 -1.50976,-41.86367 -1.06668,-56.65936 0.0499,-1.66559 0.45175,-1.80195 2.33705,-0.79297 1.25224,0.67019 2.77337,0.91162 3.38028,0.53653 0.60691,-0.37509 1.10347,-0.11509 1.10347,0.57777 0,0.69287 0.50705,0.94639 1.12677,0.56338 0.61971,-0.383 1.12676,-0.0749 1.12676,0.68468 0,0.75958 0.3178,1.06324 0.70623,0.67481 0.38843,-0.38842 2.28984,0.13836 4.22535,1.17063 1.93551,1.03228 3.8994,1.77263 4.36419,1.64521 0.46479,-0.12741 0.84507,0.3053 0.84507,0.96159 0,0.65629 0.50704,0.87989 1.12676,0.49688 0.61972,-0.383 1.12676,-0.12948 1.12676,0.56339 0,0.69286 0.50705,0.94638 1.12676,0.56337 0.61972,-0.383 1.12676,-0.0749 1.12676,0.68468 0,0.75958 0.31389,1.06717 0.69752,0.68353 0.38364,-0.38363 1.4386,0.0435 2.34436,0.94933 0.90577,0.90576 2.11301,1.35874 2.68277,1.00661 0.56975,-0.35213 1.03592,-0.0734 1.03592,0.61952 0,0.69286 0.46373,0.97315 1.03052,0.62285 0.56679,-0.35029 1.20059,-0.25345 1.40845,0.2152 0.20786,0.46864 7.22299,4.33019 15.58919,8.5812 8.3662,4.25101 15.97184,8.39562 16.90141,9.21024 2.315,2.02873 49.79464,26.66673 51.5493,26.74982 0.77465,0.0367 1.40845,0.51916 1.40845,1.07216 0,0.55301 0.50704,0.6921 1.12676,0.30909 0.61972,-0.38301 1.12676,-0.12948 1.12676,0.56338 0,0.69287 0.50704,0.94639 1.12676,0.56338 0.61972,-0.383 1.12676,-0.12948 1.12676,0.56338 0,0.69287 0.50704,0.94639 1.12676,0.56339 0.61972,-0.38301 1.12676,-0.12949 1.12676,0.56337 0,0.69287 0.50704,0.94639 1.12676,0.56339 0.61972,-0.38301 1.12676,-0.12949 1.12676,0.56337 0,0.69287 0.50704,0.94639 1.12676,0.56339 0.61972,-0.38301 1.12676,-0.19224 1.12676,0.42394 0,0.61618 1.77465,1.76205 3.94367,2.54638 2.16901,0.78432 3.94366,1.86115 3.94366,2.39295 0,0.5318 0.50704,0.65353 1.12676,0.27053 0.61971,-0.38301 1.12676,-0.12949 1.12676,0.56338 0,0.69286 0.50704,0.94638 1.12676,0.56338 0.61972,-0.38301 1.12676,-0.12949 1.12676,0.56338 0,0.69286 0.50704,0.94638 1.12676,0.56338 0.61972,-0.38301 1.12676,-0.12949 1.12676,0.56338 0,0.69286 0.50704,0.94638 1.12676,0.56338 0.61972,-0.38301 1.12676,-0.12949 1.12676,0.56338 0,0.69286 0.50704,0.94638 1.12676,0.56338 0.61972,-0.38301 1.12676,-0.15941 1.12676,0.49688 0,0.65629 0.54176,1.19326 1.20391,1.19326 1.49967,0 33.74081,17.99216 35.77799,19.96589 0.8189,0.79341 1.99297,1.44256 2.60901,1.44256 0.61604,0 5.52349,2.61514 10.90544,5.81142 14.03106,8.33291 46.05089,24.58971 46.85289,23.7877 0.37341,-0.37341 0.67893,-0.0574 0.67893,0.70212 0,0.75958 0.50705,1.06769 1.12677,0.68468 0.61971,-0.38301 1.12676,-0.12949 1.12676,0.56337 0,0.69288 0.50704,0.9464 1.12676,0.56339 0.61971,-0.38301 1.12676,-0.15942 1.12676,0.49688 0,0.65629 0.39445,1.06649 0.87657,0.91157 0.48212,-0.15493 3.14409,0.81596 5.91549,2.15755 2.77141,1.34159 6.30653,2.98579 7.85583,3.65379 3.48988,1.50473 7.10452,3.74928 8.00012,4.96779 0.37189,0.50599 1.50992,1.04235 2.52892,1.19191 1.01901,0.14956 3.50347,1.50275 5.521,3.00708 2.01755,1.50435 4.04855,2.61587 4.51333,2.47007 0.46479,-0.1458 0.84507,0.2069 0.84507,0.78378 0,1.33131 21.64996,14.46066 25.39537,15.40069 1.54133,0.38686 3.28758,1.5341 3.88053,2.54943 0.59296,1.01535 1.1013,1.33903 1.12962,0.71931 0.0344,-0.75117 0.32747,-0.75117 0.87934,0 0.4553,0.61972 1.8419,1.65948 3.08134,2.31057 1.23944,0.65111 3.64357,3.94687 5.34252,7.32395 2.63724,5.24212 3.25424,8.36483 4.21884,21.3514 0.62139,8.3662 2.1711,22.56338 3.44379,31.5493 1.2727,8.98591 2.77981,27.23943 3.34915,40.56338 0.56933,13.32394 1.59901,29.54929 2.28816,36.05633 0.68914,6.50705 1.43654,18.67606 1.66088,27.04226 0.22432,8.3662 0.71636,25.35211 1.09339,37.74648 0.37704,12.39437 0.23175,24.05633 -0.32285,25.91549 l -1.00836,3.38028 -4.60757,-4.98998 z"
       style="color:#000000;fill:#e8e8e8;fill-opacity:1;fill-rule:nonzero;stroke:#c42836;stroke-width:0;stroke-linecap:square;stroke-linejoin:round;stroke-miterlimit:4;stroke-opacity:1;stroke-dasharray:none;stroke-dashoffset:0;marker:none;visibility:visible;display:inline;overflow:visible;enable-background:accumulate" />
    <path
       inkscape:connector-curvature="0"
       id="path3788"
       d="m 465.0299,655.01992 c -0.59105,-1.55456 -1.58733,-16.38554 -2.21397,-32.95774 -1.17271,-31.01341 -1.61424,-37.91392 -3.47809,-54.35663 -0.5971,-5.2676 -1.57361,-22 -2.17001,-37.18309 -0.5964,-15.1831 -1.84089,-31.66197 -2.76555,-36.61972 -2.89126,-15.50225 -5.47989,-50.43609 -4.10442,-55.38963 0.66109,-2.38077 1.2048,-7.43133 1.20826,-11.22345 0.004,-4.328 1.00554,-9.78106 2.69045,-14.64788 6.82197,-19.70506 11.26647,-30.77364 17.91789,-44.62272 3.95211,-8.22876 8.13135,-17.24308 9.28721,-20.03181 1.15587,-2.78874 2.92724,-6.33803 3.9364,-7.88733 1.00916,-1.5493 3.50439,-7.88732 5.54496,-14.0845 5.03603,-15.29432 7.41967,-19.87246 11.9702,-22.99053 2.12875,-1.45864 3.87044,-3.09375 3.87044,-3.63359 0,-0.53984 0.65912,-0.98152 1.4647,-0.98152 0.80558,0 4.54955,-2.24468 8.31993,-4.98819 9.27041,-6.74558 18.10245,-11.03761 30.21537,-14.68352 5.57747,-1.67877 12.16902,-4.19287 14.64789,-5.58689 2.47887,-1.39401 6.42388,-3.63322 8.76667,-4.97601 2.34279,-1.34279 5.4046,-2.44144 6.804,-2.44144 2.30247,0 6.37137,-1.73364 12.59835,-5.36778 3.23237,-1.88644 18.21324,-8.57934 24.53012,-10.95914 3.63851,-1.37077 6.07349,-1.6997 7.53653,-1.01807 1.18876,0.55382 8.28195,7.55636 15.76265,15.56117 7.4807,8.00482 15.12777,15.48253 16.99347,16.61713 1.86571,1.13461 3.97028,3.33169 4.67684,4.88241 0.70655,1.55072 1.60097,2.81949 1.98761,2.81949 0.38662,0 1.61278,1.54022 2.72481,3.42272 2.9683,5.02495 17.54457,17.03762 25.12524,20.70637 10.82364,5.23822 10.52188,4.6405 10.52188,20.84171 0,7.80945 0.48441,15.88804 1.07646,17.95241 1.82728,6.37135 2.65779,66.63268 1.76182,127.83536 -0.94742,64.71572 -0.36826,60.58143 -8.80447,62.85075 -10.99973,2.95889 -18.50872,7.37828 -23.50246,13.83228 -3.14921,4.07012 -6.41042,6.89567 -9.37091,8.11908 -2.49739,1.03206 -6.41226,2.6434 -8.69971,3.58078 -2.28744,0.93738 -4.38828,2.30186 -4.66854,3.03219 -0.50442,1.31449 -18.79259,10.78409 -20.82679,10.78409 -0.58061,0 -1.69705,0.77282 -2.48096,1.71738 -0.78391,0.94455 -1.68666,1.45599 -2.00611,1.13652 -0.31947,-0.31945 -1.13454,-0.1234 -1.81128,0.43566 -0.67674,0.55906 -5.88756,2.54982 -11.57962,4.42392 -5.69206,1.8741 -11.3329,4.26439 -12.53522,5.31178 -1.20231,1.04737 -3.26348,2.85502 -4.58038,4.017 -1.3169,1.16196 -3.02817,2.11603 -3.80282,2.12014 -1.29278,0.006 -12.19627,5.32278 -26.19718,12.77225 -18.05002,9.60388 -43.07274,19.86267 -52.80782,21.65009 -2.39642,0.44 -5.94572,2.12682 -7.88732,3.74848 -6.20427,5.18188 -10.1761,7.62632 -14.79781,9.10719 -2.47888,0.79427 -6.02818,2.57384 -7.88733,3.95457 -3.44139,2.55584 -10.06606,6.22474 -11.23954,6.22474 -0.35597,0 -1.1308,-1.27191 -1.72184,-2.82648 z"
       style="color:#000000;fill:#e8e8e8;fill-opacity:1;fill-rule:nonzero;stroke:#c42836;stroke-width:0;stroke-linecap:square;stroke-linejoin:round;stroke-miterlimit:4;stroke-opacity:1;stroke-dasharray:none;stroke-dashoffset:0;marker:none;visibility:visible;display:inline;overflow:visible;enable-background:accumulate" />
    <path
       inkscape:connector-curvature="0"
       id="path3790"
       d="m 464.59537,655.31119 c -0.38555,-1.39437 -1.21219,-15.21127 -1.83697,-30.70423 -0.62478,-15.49295 -1.86981,-37.04225 -2.76673,-47.88732 -1.92125,-23.23071 -2.63841,-34.59261 -3.48489,-55.21126 -0.34348,-8.3662 -1.57793,-21.80283 -2.74325,-29.85916 -3.29956,-22.81126 -4.95986,-47.95796 -3.58628,-54.3174 0.6416,-2.9705 1.18669,-8.18964 1.2113,-11.59809 0.0246,-3.40846 1.02936,-8.98592 2.23275,-12.39437 7.33564,-20.77723 13.28579,-35.35501 20.92568,-51.26761 4.7606,-9.91549 9.60787,-20.05633 10.77172,-22.53521 1.16384,-2.47888 3.97324,-9.83099 6.24311,-16.33803 2.26986,-6.50704 4.96197,-13.13682 5.98247,-14.73285 2.03251,-3.17878 10.62585,-11.18264 12.00623,-11.18264 0.47497,0 5.01065,-2.817 10.0793,-6.26 6.80867,-4.62494 13.01597,-7.5846 23.76549,-11.33142 8.00238,-2.78929 18.10947,-7.01775 22.4602,-9.39659 4.35073,-2.37884 9.57136,-4.67496 11.6014,-5.1025 2.03003,-0.42753 8.62158,-3.21624 14.64789,-6.19711 13.42586,-6.64103 24.74296,-11.28985 27.48404,-11.28985 2.22711,0 39.48517,36.91043 45.10955,44.68866 4.34824,6.01341 15.16933,14.76977 24.7463,20.02458 4.13035,2.2663 8.03938,4.75872 8.68673,5.53872 2.76485,3.33145 4.08472,47.8402 3.9587,133.49629 -0.10558,71.77517 -0.38517,86.24513 -1.69014,87.47288 -0.85999,0.8091 -4.35235,2.36152 -7.7608,3.44982 -9.84321,3.14284 -16.4667,6.92065 -21.07432,12.0201 -7.29363,8.07214 -8.9184,9.30086 -15.14204,11.45121 -3.32044,1.14725 -7.30477,3.23324 -8.85407,4.63553 -5.04717,4.56829 -29.84047,16.10676 -43.71107,20.34257 -2.66081,0.81257 -7.056,3.295 -9.7671,5.51655 -2.71109,2.22153 -5.52685,4.03915 -6.25725,4.03915 -0.73039,0 -9.01126,3.93351 -18.40191,8.74114 -32.15175,16.46034 -45.07948,21.99031 -61.01759,26.10087 -2.47888,0.63932 -7.43961,3.36008 -11.02385,6.04615 -3.58424,2.68606 -8.40115,5.54052 -10.70423,6.34325 -2.30308,0.80271 -7.26502,3.4336 -11.02653,5.84643 -7.85136,5.03625 -10.08016,5.40929 -11.06384,1.85174 l 0,0 z"
       style="color:#000000;fill:#cfcfcf;fill-opacity:1;fill-rule:nonzero;stroke:#c42836;stroke-width:0;stroke-linecap:square;stroke-linejoin:round;stroke-miterlimit:4;stroke-opacity:1;stroke-dasharray:none;stroke-dashoffset:0;marker:none;visibility:visible;display:inline;overflow:visible;enable-background:accumulate" />
    <path
       inkscape:connector-curvature="0"
       d="m 571.60826,221.25411 c 0.97344,0.10859 1.92852,0.3194 2.84089,0.67579 0.66451,0.29882 1.45727,0.50238 1.8859,1.13056 0.15741,0.42468 -0.0635,0.7651 -0.25695,1.13007 0,0 -1.75998,0.79501 -1.75998,0.79501 l 0,0 c 0.14778,-0.30397 0.42169,-0.59092 0.35343,-0.94795 -0.39965,-0.58613 -1.20544,-0.74445 -1.81061,-1.04005 -0.90959,-0.33922 -1.86015,-0.53557 -2.82646,-0.62964 0,0 1.57378,-1.11379 1.57378,-1.11379 z"
       id="path3798"
       style="color:#000000;fill:#cb3c32;fill-opacity:1;fill-rule:nonzero;stroke:#c42836;stroke-width:0;stroke-linecap:square;stroke-linejoin:round;stroke-miterlimit:4;stroke-opacity:1;stroke-dasharray:none;stroke-dashoffset:0;marker:none;visibility:visible;display:inline;overflow:visible;enable-background:accumulate" />
    <path
       inkscape:connector-curvature="0"
       id="path3802"
       d="m 504.53996,291.4959 c -1.74434,-1.88945 -2.48526,-3.5598 -2.66836,-6.01556 -0.21324,-2.8601 -0.79536,-6.05576 -1.46931,-8.06606 -0.92311,-2.75354 -1.36633,-4.81394 -1.83988,-8.55318 -0.86283,-6.81311 -4.0297,-17.09965 -6.48029,-21.04917 -0.53356,-0.85992 -0.71239,-1.75455 -1.02723,-5.13889 -0.38882,-4.17947 -1.02047,-6.83523 -2.88472,-12.12867 -0.47949,-1.36148 -1.18667,-4.23648 -1.57152,-6.38889 -1.30257,-7.2851 -1.60435,-8.33255 -2.92829,-10.16347 -0.74543,-1.0309 -1.51063,-4.2557 -2.33632,-9.84598 -0.40494,-2.74167 -1.0426,-5.99167 -1.41702,-7.22221 -1.33317,-4.38154 -1.47506,-5.02216 -1.32562,-5.98501 0.10787,-0.69503 -0.12673,-1.7714 -0.81783,-3.75236 -1.35483,-3.88343 -1.73473,-5.51095 -2.39878,-10.27658 -0.31923,-2.291 -0.82778,-5.5471 -1.13012,-7.23577 -0.9007,-5.03084 -1.06325,-6.82367 -0.63364,-6.98853 0.20386,-0.0782 1.71419,0.72797 3.35632,1.79156 1.64212,1.06357 3.92318,2.46947 5.06901,3.12421 4.7897,2.73686 8.54428,5.1988 9.628,6.31324 0.66634,0.68523 1.41315,1.18853 1.76355,1.18853 0.56287,0 2.21956,1.44965 2.21956,1.94218 0,0.32649 1.79824,1.1135 2.54198,1.11251 0.35885,-4.7e-4 2.02746,0.67882 3.70802,1.50955 1.68055,0.83074 5.80555,2.53387 9.16667,3.78475 6.27344,2.33474 7.85718,3.02224 8.97788,3.89733 0.3545,0.27681 1.2295,0.57895 1.94444,0.67143 2.39797,0.31018 2.5499,0.37688 2.5499,1.1194 0,0.77599 1.08889,1.58638 2.85447,2.1244 0.74498,0.227 1.57723,0.90993 2.87219,2.35682 1.47915,1.65269 1.9769,2.03719 2.63716,2.03719 0.83612,0 2.59575,0.95355 3.27915,1.777 0.21165,0.25502 0.39731,0.85941 0.41258,1.34309 0.0457,1.44622 2.04643,2.74734 5.22413,3.39734 0.5553,0.11359 0.8908,0.4678 1.28314,1.35476 0.5708,1.2904 4.97544,5.93476 7.50379,7.91218 0.81581,0.63804 1.76188,1.16007 2.10239,1.16007 0.34051,0 2.34612,1.18127 4.4569,2.62504 2.1108,1.44377 4.20645,2.706 4.65702,2.80496 0.71246,0.15648 0.79612,0.27195 0.64201,0.88598 -0.16847,0.67125 -0.1308,0.6985 0.76444,0.55323 1.18706,-0.19263 1.47041,-0.008 1.71447,1.1169 0.19312,0.89016 0.37416,1.01479 1.3325,0.91728 0.29077,-0.0296 0.59303,0.23115 0.75168,0.64846 0.18192,0.47847 0.59677,0.7886 1.31923,0.98622 0.57962,0.15854 1.72306,0.79772 2.54097,1.42039 0.81792,0.62268 1.563,1.05625 1.65576,0.96349 0.0928,-0.0928 0.14893,-0.66314 0.12483,-1.26752 -0.0456,-1.14329 0.15208,-1.29515 1.05612,-0.81132 0.32811,0.1756 0.53769,0.58115 0.53833,1.04167 0.003,2.55832 3.44101,4.34333 16.13988,8.38107 8.18868,2.60368 9.88966,3.28463 14.21202,5.68948 1.49092,0.82951 2.10762,1.02474 2.97556,0.94198 1.01673,-0.097 1.08367,-0.0598 0.93814,0.51995 -0.12424,0.49505 0.007,0.69446 0.63556,0.96282 1.89808,0.81088 2.24748,1.83659 1.093,3.20863 -0.96288,1.14432 -3.03018,2.18337 -5.73196,2.88097 -1.29061,0.33323 -2.76528,0.91724 -3.27702,1.29779 -0.78393,0.58295 -0.90532,0.8176 -0.77083,1.49 0.14833,0.74168 0.0987,0.79809 -0.70184,0.79809 -0.50515,0 -1.91563,0.56997 -3.41022,1.37808 -1.40182,0.75794 -3.23793,1.55758 -4.08026,1.77698 -1.51101,0.39357 -4.38651,1.77816 -8.70635,4.19221 -2.50708,1.40104 -5.54589,2.42597 -9.13551,3.08122 -3.04384,0.55562 -3.87777,0.8478 -7.45174,2.61075 -1.56679,0.77287 -3.2092,1.4052 -3.64981,1.4052 -0.63669,0 -1.23732,0.45166 -2.9265,2.20062 -2.30909,2.39084 -2.4256,2.44612 -7.37432,3.49956 -1.40164,0.29836 -2.41023,0.68241 -2.79411,1.06392 -0.41807,0.41549 -0.97581,0.60729 -1.83439,0.63079 -0.67852,0.0186 -2.17118,0.31239 -3.31701,0.65293 -2.93845,0.87329 -15.05671,5.5825 -17.37265,6.75109 -4.90548,2.47524 -10.39588,6.11836 -13.35604,8.86231 -2.15313,1.99587 -2.961,2.49793 -5.33224,3.31375 -2.4172,0.83164 -3.29028,0.71846 -4.49102,-0.58218 l 0,0 z"
       style="color:#000000;fill:#ff8284;fill-opacity:1;fill-rule:nonzero;stroke:#c42836;stroke-width:0;stroke-linecap:square;stroke-linejoin:round;stroke-miterlimit:4;stroke-opacity:1;stroke-dasharray:none;stroke-dashoffset:0;marker:none;visibility:visible;display:inline;overflow:visible;enable-background:accumulate" />
  </g>
</svg>
