<?xml version="1.0" encoding="UTF-8" standalone="no"?>
<svg
   xmlns:dc="http://purl.org/dc/elements/1.1/"
   xmlns:cc="http://creativecommons.org/ns#"
   xmlns:rdf="http://www.w3.org/1999/02/22-rdf-syntax-ns#"
   xmlns:svg="http://www.w3.org/2000/svg"
   xmlns="http://www.w3.org/2000/svg"
   xmlns:sodipodi="http://sodipodi.sourceforge.net/DTD/sodipodi-0.dtd"
   xmlns:inkscape="http://www.inkscape.org/namespaces/inkscape"
   version="1.0"
   width="880"
   height="880"
   viewBox="0 0 704 704"
   preserveAspectRatio="xMidYMid meet"
   id="svg2"
   inkscape:version="0.48.4 r9939"
   sodipodi:docname="hipped.svg">
  <defs
     id="defs12" />
  <sodipodi:namedview
     pagecolor="#ffffff"
     bordercolor="#666666"
     borderopacity="1"
     objecttolerance="10"
     gridtolerance="10"
     guidetolerance="10"
     inkscape:pageopacity="0"
     inkscape:pageshadow="2"
     inkscape:window-width="1088"
     inkscape:window-height="995"
     id="namedview10"
     showgrid="false"
     inkscape:zoom="0.87885424"
     inkscape:cx="490"
     inkscape:cy="438.125"
     inkscape:window-x="617"
     inkscape:window-y="155"
     inkscape:window-maximized="0"
     inkscape:current-layer="svg2" />
  <metadata
     id="metadata4">
Created by potrace 1.14, written by Peter Selinger 2001-2017
<rdf:RDF>
  <cc:Work
     rdf:about="">
    <dc:format>image/svg+xml</dc:format>
    <dc:type
       rdf:resource="http://purl.org/dc/dcmitype/StillImage" />
    <dc:title />
  </cc:Work>
</rdf:RDF>
</metadata>
  <g
     id="g2989"
     transform="matrix(1.1,0,0,1.1,-83.615908,-30.297432)">
    <g
       style="fill:#cb3c32;fill-opacity:1;stroke:none"
       id="g6"
       transform="matrix(0.1,0,0,-0.1,0,704)">
      <path
         inkscape:connector-curvature="0"
         style="fill:#cb3c32;fill-opacity:1"
         id="path8"
         d="m 3241,6343 c -33,-44 -34,-46 -91,-93 -29,-25 -62,-53 -72,-62 -10,-10 -23,-18 -28,-18 -19,0 -60,-32 -60,-47 0,-8 -4,-11 -10,-8 -5,3 -10,0 -10,-7 0,-7 -17,-23 -38,-35 -21,-12 -60,-42 -88,-66 -81,-74 -116,-102 -184,-145 -39,-25 -101,-81 -155,-139 -49,-54 -109,-114 -133,-133 -23,-19 -65,-55 -92,-80 -95,-86 -109,-97 -125,-104 -9,-3 -13,-10 -10,-16 3,-5 0,-10 -8,-10 -8,0 -22,-10 -33,-22 -13,-14 -14,-19 -4,-14 8,4 6,0 -5,-9 -11,-8 -56,-34 -100,-57 -44,-22 -100,-57 -125,-77 -24,-20 -48,-35 -52,-33 -5,1 -8,-5 -8,-13 0,-8 -3,-15 -7,-15 -10,0 -47,-62 -45,-73 2,-5 -2,-6 -7,-3 -5,4 -16,0 -23,-8 -8,-7 -23,-16 -35,-20 -12,-4 -24,-13 -27,-21 -3,-8 -12,-15 -19,-15 -8,0 -32,-19 -54,-42 -60,-65 -106,-99 -122,-93 -8,3 -34,3 -58,-1 -40,-6 -43,-8 -43,-38 0,-18 5,-37 11,-43 5,-5 9,-30 7,-54 -3,-43 -4,-44 -52,-60 -28,-8 -52,-21 -54,-27 -5,-15 34,-16 43,-2 4,6 22,9 42,8 34,-2 35,-3 30,-38 -2,-19 0,-50 5,-68 6,-21 6,-44 -1,-63 -5,-16 -7,-29 -3,-29 4,0 8,-8 8,-17 10,-225 14,-295 19,-303 3,-6 3,-20 0,-31 -4,-12 -3,-19 1,-16 5,3 10,-33 11,-79 1,-46 -2,-82 -6,-80 -4,3 -6,-13 -4,-35 2,-21 0,-39 -5,-39 -11,0 -4,-559 8,-593 7,-20 7,-34 0,-42 -5,-6 -6,-15 -2,-19 8,-8 10,-27 16,-131 2,-38 8,-83 13,-100 6,-16 11,-59 12,-95 2,-36 5,-81 7,-100 6,-56 4,-136 -5,-185 -5,-26 -5,-61 -1,-78 3,-18 5,-60 2,-94 l -4,-63 30,0 c 24,0 31,5 36,27 4,14 3,29 -2,32 -5,3 -12,16 -16,29 -9,27 13,30 49,6 13,-9 28,-13 32,-11 5,3 35,-17 68,-44 58,-48 105,-69 153,-69 12,0 22,-4 22,-8 0,-16 57,-72 72,-72 9,0 21,-7 28,-14 6,-8 28,-20 48,-27 52,-17 124,-50 142,-66 50,-43 81,-64 90,-58 5,3 10,-1 10,-10 0,-8 8,-18 18,-22 9,-3 26,-14 37,-23 21,-18 88,-57 192,-110 35,-17 75,-42 90,-54 28,-23 133,-80 133,-72 0,2 30,-12 68,-33 37,-20 83,-43 102,-50 19,-8 49,-24 65,-36 17,-12 57,-36 90,-55 33,-18 69,-41 80,-51 37,-32 236,-136 337,-175 27,-11 48,-22 48,-26 0,-4 17,-10 38,-14 20,-3 70,-24 110,-45 39,-22 72,-37 72,-34 0,8 82,-44 110,-70 14,-13 63,-38 110,-56 47,-17 103,-44 125,-58 69,-46 85,-54 314,-173 46,-24 94,-52 107,-63 12,-11 39,-35 59,-52 19,-18 41,-33 48,-33 7,0 37,23 67,51 52,48 138,99 167,99 7,0 13,5 13,10 0,6 6,10 14,10 8,0 24,12 37,26 50,53 65,66 107,85 23,11 42,24 42,29 0,6 9,10 20,10 11,0 20,5 20,12 0,6 3,9 6,5 4,-3 27,4 53,17 25,13 70,31 99,40 29,10 58,23 65,29 6,7 37,23 67,35 87,37 240,116 240,125 0,4 11,5 24,1 16,-4 25,-1 29,10 4,9 14,16 23,16 9,0 44,22 78,48 81,64 97,73 194,112 46,18 98,43 115,54 48,33 127,72 172,86 22,7 74,35 117,61 83,53 143,81 152,71 3,-3 6,-18 6,-32 0,-37 21,-54 45,-36 15,10 17,22 13,66 -5,51 -4,53 28,72 33,20 51,49 39,68 -8,13 -42,13 -50,0 -16,-26 -27,-8 -22,35 4,24 3,46 -1,49 -5,3 -6,210 -1,286 3,46 -6,130 -14,130 -5,0 -6,12 -2,27 10,35 11,106 2,120 -9,15 -12,393 -3,421 5,14 3,22 -4,22 -9,0 -10,26 -5,98 4,53 9,126 11,162 2,36 6,75 9,88 3,12 8,98 11,190 9,247 10,276 17,292 3,8 5,22 6,30 0,8 3,40 7,70 11,74 8,134 -5,138 -6,2 -24,17 -40,33 -16,16 -36,29 -43,29 -8,0 -23,7 -34,15 -10,8 -35,19 -56,25 -25,7 -52,28 -88,69 -28,34 -70,69 -95,81 -25,12 -73,49 -107,83 -35,33 -78,69 -97,80 -36,20 -144,123 -152,144 -2,6 -10,13 -17,15 -8,2 -39,26 -69,53 -31,28 -61,48 -67,47 -6,-2 -8,0 -3,4 9,9 -21,44 -38,44 -7,0 -22,9 -35,20 -13,11 -26,20 -30,20 -4,0 -25,16 -46,35 -61,54 -62,55 -75,55 -20,0 -123,67 -154,101 -16,17 -52,42 -78,54 -29,14 -62,41 -84,69 -19,25 -41,47 -47,48 -6,0 -16,2 -21,2 -19,2 -68,46 -92,82 -13,19 -28,32 -34,29 -5,-4 -8,-1 -7,7 2,7 -30,30 -76,53 -43,22 -100,61 -127,87 -26,26 -65,55 -86,64 -95,41 -108,50 -111,74 -2,14 -11,31 -20,37 -13,11 -20,9 -38,-8 l -22,-21 -62,31 c -34,17 -75,33 -91,36 -32,6 -117,45 -190,88 -25,15 -49,24 -52,20 -4,-3 -7,-1 -7,5 0,16 -58,71 -115,111 -27,19 -52,37 -55,41 -12,17 -134,100 -146,100 -7,0 -23,13 -35,30 -15,19 -35,32 -58,36 -41,7 -191,73 -191,84 0,4 -25,20 -56,36 -31,16 -67,39 -81,52 -13,12 -28,22 -34,22 -5,0 -14,11 -19,25 -13,33 -43,32 -69,-2 z m 39,-76 c 0,-16 9,-28 25,-35 18,-8 25,-8 25,-1 0,7 12,9 33,5 17,-4 39,-8 48,-9 10,-1 15,-7 11,-16 -3,-9 -1,-12 6,-7 6,3 13,2 16,-3 14,-22 151,-93 201,-103 30,-6 55,-15 55,-20 0,-5 5,-6 10,-3 6,3 10,1 10,-5 0,-13 51,-59 66,-60 6,0 23,-9 38,-21 14,-11 26,-17 26,-12 0,4 14,-8 30,-27 16,-19 30,-30 30,-25 0,6 5,2 11,-7 5,-10 15,-18 20,-18 6,0 34,-23 62,-50 78,-76 82,-80 99,-80 9,0 21,-7 28,-15 7,-8 19,-15 26,-15 8,0 14,-4 14,-10 0,-12 85,-52 160,-76 52,-17 136,-61 171,-91 22,-18 29,-99 35,-398 3,-132 9,-244 14,-250 4,-5 8,-26 9,-45 0,-19 2,-54 5,-77 3,-24 2,-43 -3,-43 -6,0 -14,-58 -12,-95 1,-29 12,-155 16,-190 5,-45 16,-397 14,-435 -3,-44 -1,-186 6,-490 3,-162 6,-309 7,-327 1,-47 -11,-83 -26,-83 -8,0 -49,18 -91,40 -42,22 -83,40 -91,40 -8,0 -14,4 -14,9 0,5 -30,21 -67,37 -38,15 -75,33 -83,39 -8,6 -28,17 -45,25 -16,8 -37,20 -45,27 -75,60 -100,75 -149,90 -31,9 -63,23 -71,32 -24,25 -88,71 -99,71 -21,0 -118,51 -167,89 -28,21 -67,44 -87,50 -20,7 -39,17 -42,22 -4,5 -14,9 -23,9 -10,0 -34,11 -55,25 -32,23 -198,108 -327,169 -25,11 -48,24 -51,29 -3,4 -10,7 -15,5 -5,-2 -20,5 -34,15 -76,54 -202,123 -235,129 -11,1 -28,11 -39,20 -10,9 -34,24 -52,33 -18,8 -46,27 -63,40 -30,26 -100,55 -131,55 -9,0 -42,18 -73,40 -32,22 -57,37 -57,33 0,-3 -8,1 -17,9 -10,9 -39,25 -65,36 -26,11 -62,32 -80,45 -32,24 -139,78 -155,78 -4,0 -12,7 -17,16 -4,8 -31,25 -60,38 -45,20 -70,37 -151,101 -11,9 -29,19 -41,24 -11,4 -49,27 -84,49 -35,23 -70,41 -79,41 -9,0 -35,9 -58,20 -48,21 -58,50 -18,50 19,0 25,5 25,23 0,25 133,160 169,172 12,3 27,18 35,33 8,15 16,25 18,23 1,-3 29,22 60,55 40,41 85,75 145,107 84,44 143,86 143,101 0,9 26,36 34,36 3,0 19,14 34,30 16,17 35,30 41,30 7,0 9,5 5,12 -4,6 -3,8 4,4 6,-3 16,0 24,8 32,34 46,55 40,61 -4,3 1,3 10,0 12,-5 58,34 170,146 84,83 178,168 208,187 70,46 101,73 94,83 -3,5 2,9 10,9 8,0 23,11 34,25 11,13 22,21 26,18 3,-3 6,1 6,10 0,9 6,14 13,11 14,-5 62,31 62,47 0,5 5,10 10,11 6,1 24,17 41,35 17,18 35,33 40,33 12,0 94,56 108,74 14,18 119,96 129,96 4,0 7,-11 7,-23 z m 1390,-759 c 0,-4 12,-8 28,-10 15,-2 26,-8 25,-15 -2,-7 0,-12 5,-11 14,3 42,-14 36,-23 -3,-5 2,-9 10,-9 8,0 18,-9 21,-20 3,-11 17,-23 30,-26 13,-3 26,-12 29,-20 3,-8 17,-14 31,-14 14,0 25,-4 25,-10 0,-5 9,-10 20,-10 11,0 20,-4 20,-10 0,-5 7,-10 15,-10 8,0 15,-4 15,-8 0,-4 23,-34 51,-65 35,-39 62,-60 90,-69 22,-6 45,-21 51,-32 20,-38 211,-196 237,-196 6,0 11,-4 11,-9 0,-5 19,-19 43,-30 23,-11 55,-32 71,-46 16,-13 33,-22 39,-18 6,3 7,1 3,-5 -8,-13 24,-32 52,-32 11,0 32,-13 45,-30 14,-16 28,-30 32,-30 3,0 29,-23 57,-51 27,-27 52,-48 55,-45 5,5 93,-79 93,-90 0,-11 80,-84 93,-85 7,-1 17,0 22,1 6,1 7,-2 3,-5 -8,-8 26,-38 55,-48 9,-4 26,-22 37,-40 11,-19 36,-42 55,-53 19,-10 35,-22 35,-27 0,-4 4,-6 9,-2 5,3 17,-2 25,-11 9,-8 16,-13 16,-9 0,11 26,-19 33,-38 4,-11 12,-15 19,-11 7,4 10,4 6,-1 -4,-4 -1,-20 7,-36 8,-15 15,-30 15,-33 0,-8 -90,21 -107,35 -17,15 -26,20 -111,66 -33,18 -62,29 -66,26 -9,-9 -7,-23 3,-23 6,0 22,-11 36,-24 14,-13 65,-40 113,-61 48,-21 96,-41 107,-46 59,-25 76,-28 94,-17 14,9 26,6 59,-12 23,-13 43,-29 46,-37 7,-18 -30,-40 -84,-48 -64,-11 -93,-23 -84,-37 4,-6 3,-8 -4,-4 -6,3 -17,-2 -24,-13 -19,-27 -76,-58 -123,-67 -47,-8 -177,-74 -254,-128 -50,-36 -57,-38 -104,-32 -39,6 -53,3 -68,-10 -10,-9 -16,-21 -13,-25 3,-5 -1,-9 -8,-9 -8,0 -29,-11 -48,-24 -30,-20 -43,-23 -91,-19 -61,6 -115,-17 -105,-44 3,-8 2,-12 -3,-9 -4,3 -18,-4 -29,-15 -12,-11 -22,-17 -22,-13 0,3 -7,1 -15,-6 -9,-7 -36,-12 -61,-12 -49,2 -98,-18 -113,-46 -5,-10 -36,-28 -68,-41 -32,-14 -80,-38 -108,-56 -27,-17 -72,-46 -100,-63 -27,-17 -54,-35 -60,-40 -5,-4 -37,-21 -70,-37 -73,-36 -156,-87 -174,-109 -23,-28 -41,-19 -42,22 -4,125 -10,189 -20,212 -1,3 -3,178 -5,390 -3,412 -7,522 -18,558 -4,12 -4,22 1,22 4,0 8,34 8,75 0,41 -3,75 -7,75 -3,0 -6,91 -6,203 0,111 -3,222 -5,247 -10,91 -19,195 -18,205 9,83 7,175 -5,209 -7,23 -14,63 -14,89 l 0,48 60,-3 c 33,-1 60,-6 60,-10 z M 1528,4712 c 17,-13 32,-21 32,-18 0,4 14,-1 30,-9 17,-9 36,-13 42,-9 7,5 8,3 3,-6 -6,-10 -4,-12 10,-6 10,4 21,3 24,-1 10,-14 87,-63 98,-63 5,0 29,-14 52,-30 41,-30 120,-77 171,-102 14,-7 33,-21 43,-32 9,-10 17,-16 17,-13 0,3 29,-10 65,-29 36,-19 65,-32 65,-27 0,4 4,4 8,-2 4,-5 22,-21 40,-34 30,-20 48,-28 75,-30 5,-1 5,-5 2,-11 -4,-6 5,-10 19,-10 14,0 26,-5 26,-11 0,-5 5,-7 10,-4 6,3 10,1 10,-4 0,-6 6,-11 14,-11 8,0 16,-7 20,-15 3,-8 11,-14 18,-13 7,2 12,-3 11,-9 -3,-12 10,-18 31,-14 4,1 15,-4 23,-11 8,-7 26,-14 40,-16 23,-3 102,-46 113,-62 8,-12 168,-90 184,-90 8,0 16,-4 18,-8 4,-9 202,-119 273,-151 28,-12 61,-29 75,-37 14,-8 59,-32 100,-53 41,-20 93,-49 115,-64 22,-14 59,-33 81,-41 23,-8 72,-33 110,-57 87,-54 192,-109 209,-109 8,0 31,-16 53,-35 43,-39 99,-71 142,-80 15,-3 37,-15 48,-25 12,-11 24,-20 27,-20 4,0 21,-11 39,-25 18,-14 40,-25 49,-25 10,0 17,-5 17,-12 0,-6 3,-8 7,-5 3,4 12,-2 20,-12 7,-11 34,-27 60,-37 26,-10 94,-44 151,-76 57,-32 107,-58 112,-58 4,0 11,-7 14,-16 4,-10 -8,-28 -34,-51 -26,-24 -38,-43 -36,-56 4,-31 17,-30 56,3 19,16 41,30 49,30 35,0 38,-28 35,-294 -3,-253 -11,-492 -19,-538 -19,-116 -24,-445 -9,-578 17,-138 11,-365 -9,-353 -6,4 -7,1 -1,-8 13,-21 15,-49 3,-49 -6,0 -8,-8 -5,-17 12,-39 17,-93 8,-93 -5,0 -9,-26 -9,-57 0,-66 -20,-153 -34,-153 -6,0 -41,16 -79,36 -38,19 -78,36 -89,37 -11,1 -18,3 -16,6 8,8 -74,52 -85,46 -6,-3 -10,-1 -10,4 0,6 -5,11 -10,11 -6,0 -20,9 -32,20 -12,10 -25,17 -30,14 -4,-3 -8,0 -8,5 0,6 -9,11 -20,11 -11,0 -20,4 -20,9 0,5 -10,13 -22,17 -12,3 -39,19 -61,35 -22,16 -43,26 -48,23 -5,-3 -9,-1 -9,4 0,9 -44,31 -71,36 -18,3 -90,37 -107,51 -7,5 -21,17 -30,26 -22,21 -77,49 -97,49 -8,0 -15,3 -15,8 0,9 -122,72 -141,72 -12,0 -92,36 -189,85 -108,55 -208,109 -221,121 -8,8 -20,14 -26,14 -6,0 -16,6 -22,14 -7,8 -24,17 -38,21 -15,3 -33,15 -41,26 -7,10 -19,19 -27,19 -8,0 -31,11 -51,25 -20,14 -47,25 -60,25 -13,0 -24,4 -24,9 0,11 -80,54 -80,43 0,-4 -4,-2 -8,4 -4,5 -40,26 -79,45 -40,18 -73,40 -73,47 0,11 -7,14 -26,11 -4,0 -10,4 -14,10 -3,6 -35,26 -71,45 -95,49 -133,70 -139,77 -17,18 -164,109 -178,109 -8,0 -12,3 -9,6 7,8 -36,44 -52,44 -6,0 -11,4 -11,9 0,5 -33,22 -74,39 -40,16 -98,50 -129,75 -50,40 -106,67 -144,67 -7,0 -36,21 -64,46 -29,26 -67,53 -86,60 -22,10 -33,21 -33,34 0,11 4,20 10,20 5,0 13,12 16,28 4,15 12,30 18,34 17,11 3,17 -26,11 -16,-3 -28,-12 -28,-19 0,-8 -9,-14 -21,-14 -19,0 -20,5 -19,63 3,127 0,168 -11,161 -8,-4 -9,9 -6,45 3,28 2,51 -1,51 -4,0 -8,51 -9,113 -2,61 -10,162 -19,222 -12,83 -15,179 -14,395 0,157 0,321 0,365 -1,44 -1,101 -2,128 0,26 -4,47 -8,47 -4,0 -8,21 -8,48 0,26 -1,139 -3,250 -2,112 -2,207 1,211 3,4 13,10 23,14 21,8 23,27 3,27 -18,0 -29,17 -21,30 9,14 43,3 83,-28 z m 5023,-729 c 2,-59 -3,-224 -7,-258 -3,-22 -7,-87 -9,-145 -3,-58 -7,-150 -11,-205 -9,-133 -6,-852 4,-929 9,-70 8,-258 -1,-273 -5,-8 -1,-174 5,-202 1,-3 -2,-27 -6,-53 l -8,-47 -69,-27 c -38,-15 -66,-31 -62,-37 3,-6 2,-7 -4,-4 -5,3 -40,-14 -78,-39 -38,-24 -75,-44 -82,-44 -24,0 -142,-64 -136,-73 4,-6 1,-7 -6,-2 -7,4 -22,-1 -34,-13 -12,-11 -32,-23 -45,-27 -12,-3 -20,-11 -17,-16 4,-5 -4,-9 -17,-9 -51,0 -208,-80 -208,-106 0,-6 -12,-17 -27,-24 -16,-8 -35,-22 -43,-33 -9,-10 -32,-20 -51,-22 -45,-6 -129,-42 -129,-56 0,-6 -4,-8 -8,-5 -5,3 -14,-4 -22,-14 -8,-10 -17,-17 -22,-14 -4,3 -22,-2 -40,-10 -18,-8 -46,-17 -63,-21 -16,-3 -48,-19 -70,-35 -22,-15 -59,-33 -81,-39 -45,-12 -163,-69 -209,-100 -16,-12 -37,-21 -45,-21 -8,0 -38,-24 -67,-54 -29,-29 -65,-57 -80,-61 -15,-3 -65,-29 -109,-56 -45,-27 -84,-49 -88,-49 -3,0 -3,51 0,113 3,61 5,151 5,199 0,48 3,90 8,92 8,5 6,240 -4,306 -15,103 -20,417 -9,500 3,19 7,67 9,105 2,39 7,124 11,190 4,66 7,164 7,218 0,53 2,97 6,97 3,0 7,75 8,166 2,154 3,168 22,186 16,14 19,23 11,37 -18,35 34,77 214,172 63,33 109,72 98,84 -4,5 3,6 14,3 14,-4 31,2 45,16 13,11 60,36 104,55 44,19 97,49 118,67 29,24 52,33 95,39 60,7 168,67 157,86 -7,10 17,13 83,10 48,-2 119,25 148,57 15,16 36,23 83,26 55,4 72,10 130,49 79,54 197,117 218,117 22,0 133,51 133,61 0,5 9,18 20,29 11,11 20,17 20,14 0,-3 6,-2 13,3 6,4 19,6 28,5 8,-1 28,4 43,12 16,8 34,12 41,10 7,-3 16,-1 20,5 10,18 45,13 46,-6 z" />
    </g>
    <path
       inkscape:connector-curvature="0"
       id="path3771"
       d="m 464.92088,387.73894 c -1.33362,-2.15783 -2.40074,-23.47808 -3.16717,-63.27675 -1.21617,-63.15333 -1.72442,-82.18872 -2.86796,-107.41257 -0.56743,-12.5163 -1.16366,-28.79382 -1.32496,-36.17228 -0.16129,-7.37844 -0.72125,-14.95649 -1.24434,-16.8401 -0.5231,-1.88361 -0.95336,-5.4089 -0.95615,-7.83398 l -0.005,-4.40922 4.77895,0.60354 c 6.36862,0.80431 10.98809,2.27906 11.87881,3.79228 0.40037,0.68017 1.17728,1.23667 1.72648,1.23667 0.54918,0 2.47455,1.42883 4.27857,3.17518 5.13412,4.96996 8.87691,7.74813 10.43841,7.74813 2.87415,0 8.43869,3.94439 13.65843,9.6817 2.93816,3.22948 7.23921,6.86229 9.55791,8.0729 2.31868,1.21061 6.74507,4.7771 9.8364,7.92552 3.09133,3.14842 8.00682,7.48712 10.92331,9.64154 6.86008,5.06758 23.07759,15.6538 23.98076,15.6538 0.38396,0 0.91807,0.57321 1.18691,1.27379 0.26884,0.70058 2.05356,1.78681 3.96606,2.41382 1.95676,0.64154 6.26351,3.72784 9.8492,7.05813 3.50456,3.25495 8.21524,7.26421 10.46817,8.90946 2.25294,1.64525 6.86303,6.06135 10.24467,9.81356 3.38164,3.7522 6.95994,7.07975 7.95178,7.39455 2.24518,0.71259 5.09451,3.03473 12.31696,10.03808 3.11047,3.01609 7.65562,6.49218 10.10033,7.72463 2.44471,1.23245 4.76118,2.73834 5.14772,3.34644 0.38653,0.60809 1.3066,1.70943 2.04458,2.44742 1.52735,1.52734 3.4306,6.07252 2.80484,6.69828 -0.85172,0.85172 -6.05924,-0.87562 -9.32872,-3.09435 -4.16339,-2.82535 -15.19662,-8.49697 -16.52951,-8.49697 -4.79192,0 2.95574,5.7285 15.2995,11.3122 11.40495,5.15904 16.52412,6.76363 18.84227,5.90608 2.71786,-1.0054 9.83143,2.72588 9.83143,5.15688 0,1.40063 -1.40633,2.14699 -7.09049,3.76304 -5.19135,1.47595 -8.49561,3.11983 -12.33661,6.13748 -3.22924,2.53704 -7.7745,4.98156 -11.82269,6.35843 -7.91108,2.69073 -15.85528,6.61117 -23.77339,11.7321 -5.10967,3.30461 -6.69825,3.85407 -12.28872,4.25036 -5.28478,0.37463 -6.56521,0.77717 -7.23873,2.27569 -1.31544,2.92671 -8.44174,5.74932 -15.58843,6.17432 -6.35935,0.37818 -10.44645,1.93667 -10.44645,3.98344 0,1.99714 -6.31886,4.99158 -12.32939,5.84278 -6.30908,0.89348 -10.19672,2.46409 -12.2636,4.95452 -0.68659,0.8273 -4.54819,3.16152 -8.58132,5.18716 -4.03314,2.02564 -12.04365,6.63758 -17.80115,10.24876 -5.7575,3.61118 -14.07924,8.50848 -18.49275,10.88289 -4.41352,2.37441 -9.38309,5.5099 -11.04349,6.96775 -3.31005,2.90627 -3.77001,3.08188 -4.59135,1.75292 l 0,0 z"
       style="color:#000000;fill:#ff8284;fill-opacity:1;fill-rule:nonzero;stroke:#c42836;stroke-width:0;stroke-linecap:square;stroke-linejoin:round;stroke-miterlimit:4;stroke-opacity:1;stroke-dasharray:none;stroke-dashoffset:0;marker:none;visibility:visible;display:inline;overflow:visible;enable-background:accumulate" />
    <path
       inkscape:connector-curvature="0"
       id="path3773"
       d="m 448.93498,387.43082 c -3.2808,-1.58972 -7.37704,-3.56908 -9.10276,-4.39858 -14.78662,-7.10743 -22.45661,-11.27447 -29.08053,-15.79919 -4.25555,-2.90691 -10.14373,-6.23347 -13.08487,-7.39235 -2.94112,-1.15888 -7.447,-3.69429 -10.01304,-5.63424 -2.56603,-1.93996 -7.40084,-4.78237 -10.74401,-6.31648 -3.34317,-1.5341 -8.46347,-4.40802 -11.37845,-6.38649 -4.44745,-3.01859 -16.55238,-9.30395 -17.91842,-9.30395 -0.2231,0 -3.00515,-1.47432 -6.18232,-3.27626 -3.17716,-1.80194 -13.96916,-7.39514 -23.98219,-12.42932 -10.01304,-5.03418 -20.70629,-10.72751 -23.76281,-12.65184 -3.0565,-1.92433 -8.70976,-4.95532 -12.56279,-6.73553 -3.85303,-1.78021 -11.07968,-5.82831 -16.05921,-8.99578 -4.97952,-3.16747 -10.90144,-6.22431 -13.1598,-6.79296 -3.7378,-0.94119 -12.76195,-5.70537 -32.76521,-17.29795 -4.00522,-2.32116 -9.12216,-5.03211 -11.371,-6.02435 -2.24883,-0.99224 -4.795,-2.50692 -5.65814,-3.36596 -0.86314,-0.85904 -3.65784,-2.62021 -6.21045,-3.91373 -2.5526,-1.2935 -7.13135,-4.18503 -10.17498,-6.42562 -7.20029,-5.30056 -21.64421,-13.42274 -28.17222,-15.84195 -5.8053,-2.15138 -7.40693,-4.24122 -3.92096,-5.11614 1.23396,-0.30971 2.24356,-1.09969 2.24356,-1.7555 0,-1.71815 6.93771,-9.57359 12.54778,-14.20764 2.64574,-2.18544 8.48782,-7.52841 12.98239,-11.87327 5.72895,-5.5381 11.45807,-9.89213 19.16415,-14.56441 6.04572,-3.66558 11.60064,-7.68875 12.34428,-8.94039 0.74364,-1.25162 4.02275,-4.3238 7.28692,-6.82706 6.08165,-4.66396 11.21569,-9.52866 11.22319,-10.63441 0.002,-0.34175 0.84578,-0.88847 1.87438,-1.21493 1.02859,-0.32646 7.07055,-5.5772 13.42657,-11.66832 13.28423,-12.73056 22.66018,-20.92227 28.71488,-25.08801 2.32816,-1.60182 4.23301,-3.47955 4.23301,-4.17274 0,-0.69318 0.75967,-1.50145 1.68817,-1.79614 0.92848,-0.29469 2.8742,-1.7446 4.3238,-3.22202 1.44961,-1.47742 3.12457,-2.6976 3.72214,-2.71151 0.59757,-0.0139 3.53965,-2.43316 6.53796,-5.37612 2.9983,-2.94296 8.24412,-7.257928 11.65738,-9.588816 3.41324,-2.330896 9.06952,-6.477 12.56951,-9.213583 3.49997,-2.736579 6.67456,-4.975599 7.05464,-4.975599 0.38006,0 0.69103,0.769092 0.69103,1.709094 0,2.859087 2.45755,4.075164 7.79872,3.859075 3.77875,-0.152877 5.09566,0.136824 5.50814,1.211702 0.29813,0.776935 0.89991,1.412615 1.33728,1.412615 0.43736,0 2.97482,1.39428 5.6388,3.098408 4.89572,3.13176 12.46359,6.51172 19.52988,8.722432 2.12129,0.663664 4.45508,2.119584 5.18618,3.2354 0.7311,1.115808 3.95085,3.494812 7.15498,5.286652 3.20413,1.79186 6.37672,3.92186 7.05019,4.73334 0.67347,0.81147 3.09135,2.75582 5.37308,4.32076 2.28173,1.56494 6.89735,5.4218 10.25693,8.5708 3.35959,3.14901 6.56716,5.72546 7.12795,5.72546 0.56078,0 3.23101,1.46784 5.93381,3.26186 2.7028,1.79402 9.29752,5.07313 14.65494,7.2869 13.03687,5.38707 18.7163,8.68906 20.22643,11.75954 0.89687,1.82354 1.60317,10.89722 2.47283,31.7673 0.66956,16.06806 1.6945,32.49165 2.27764,36.49687 0.81682,5.61013 0.80842,8.55184 -0.0366,12.81167 -0.82605,4.16424 -0.85656,8.09733 -0.12356,15.92983 1.10202,11.77575 1.55245,26.36203 2.85387,92.41704 0.91583,46.48419 0.71523,51.43443 -2.07758,51.27079 -0.63821,-0.0374 -3.84467,-1.36868 -7.12547,-2.9584 l -2e-5,0 z"
       style="color:#000000;fill:#ff8284;fill-opacity:1;fill-rule:nonzero;stroke:#c42836;stroke-width:0;stroke-linecap:square;stroke-linejoin:round;stroke-miterlimit:4;stroke-opacity:1;stroke-dasharray:none;stroke-dashoffset:0;marker:none;visibility:visible;display:inline;overflow:visible;enable-background:accumulate" />
    <path
       inkscape:connector-curvature="0"
       id="path3775"
       d="m 455.35522,390.53142 c 0,-0.45983 -2.66876,-1.72416 -5.93058,-2.80963 -3.26182,-1.08545 -6.49005,-2.53303 -7.17384,-3.21683 -0.6838,-0.6838 -1.49685,-0.98969 -1.80677,-0.67976 -0.30993,0.30992 -0.56351,0.15074 -0.56351,-0.35376 0,-0.5045 -2.86737,-2.07158 -6.37193,-3.48241 -3.50457,-1.41082 -6.37193,-2.93381 -6.37193,-3.38441 0,-0.4506 -0.40963,-0.56611 -0.91028,-0.25669 -0.50065,0.30942 -0.91028,0.10461 -0.91028,-0.45514 0,-0.55974 -0.40962,-0.76456 -0.91027,-0.45513 -0.50065,0.30941 -0.91028,0.1046 -0.91028,-0.45515 0,-0.55974 -0.40962,-0.76455 -0.91027,-0.45513 -0.50066,0.30942 -0.91028,0.1046 -0.91028,-0.45514 0,-0.55974 -0.40962,-0.76456 -0.91027,-0.45514 -0.50066,0.30942 -0.91028,0.16925 -0.91028,-0.31151 0,-0.86822 -5.99518,-4.78505 -7.73735,-5.05501 -0.50065,-0.0775 -2.825,-1.46036 -5.16521,-3.07284 -4.31451,-2.97281 -8.83822,-5.17441 -10.08191,-4.90664 -0.37549,0.0808 -0.68271,-0.23503 -0.68271,-0.70193 0,-0.74614 -3.32506,-2.2658 -4.55138,-2.08013 -0.25033,0.0378 -0.78271,-0.51642 -1.18307,-1.23184 -0.40037,-0.71542 -1.14454,-1.30076 -1.65372,-1.30076 -0.50919,0 -2.22973,-0.92268 -3.82344,-2.05041 -5.80034,-4.10436 -17.08829,-10.34121 -18.11824,-10.01075 -0.39009,0.12517 -0.70926,-0.18205 -0.70926,-0.6827 0,-0.50065 -0.3386,-0.91028 -0.75245,-0.91028 -0.41385,0 -4.17148,-1.84331 -8.35031,-4.09624 -4.17883,-2.25293 -8.14128,-4.09624 -8.80546,-4.09624 -0.66417,0 -1.20758,-0.4779 -1.20758,-1.062 0,-0.58408 -0.24846,-0.81352 -0.55214,-0.50985 -0.30366,0.30368 -1.02051,0.16089 -1.59298,-0.3173 -0.57246,-0.47818 -7.59483,-4.21555 -15.60526,-8.30525 -8.01044,-4.08971 -15.10571,-7.97491 -15.76728,-8.63376 -1.1304,-1.12575 -2.4546,-1.55465 -4.03123,-1.30572 -0.37549,0.0593 -0.6827,-0.326 -0.6827,-0.8562 0,-0.5302 -0.37465,-0.73245 -0.83253,-0.44947 -0.45789,0.283 -0.96992,0.18063 -1.13785,-0.22749 -0.51345,-1.24788 -10.45557,-6.56601 -11.08964,-5.93196 -0.32677,0.32678 -0.59413,0.048 -0.59413,-0.61956 0,-0.66753 -0.26097,-0.95272 -0.57995,-0.63375 -0.31898,0.31899 -1.65026,-0.17465 -2.9584,-1.09696 -3.11205,-2.19415 -12.31732,-6.82496 -12.65225,-6.36486 -0.14343,0.19702 -0.55305,-0.073 -0.91027,-0.60011 -1.07998,-1.59348 -7.15491,-4.97672 -7.79207,-4.33955 -0.32713,0.32714 -0.59478,0.11689 -0.59478,-0.4672 0,-0.58409 -0.58031,-1.06199 -1.28956,-1.06199 -0.70926,0 -1.4261,-0.30722 -1.59299,-0.6827 -0.16688,-0.3755 -1.53229,-1.34078 -3.03425,-2.14509 -12.50243,-6.69513 -17.75202,-9.11223 -18.62232,-8.57435 -0.43622,0.26959 -0.93051,0.17694 -1.09844,-0.20589 -0.16792,-0.38283 -2.96788,-2.09215 -6.22211,-3.79847 -3.25424,-1.70632 -6.12161,-3.38856 -6.37193,-3.7383 -0.25033,-0.34974 -1.3768,-0.92352 -2.50326,-1.27507 -1.12647,-0.35154 -2.04812,-1.04536 -2.04812,-1.54182 0,-0.49646 -0.40962,-0.64949 -0.91028,-0.34008 -0.50065,0.30943 -0.91027,0.10462 -0.91027,-0.45513 0,-0.55975 -0.40963,-0.76456 -0.91028,-0.45514 -0.50065,0.30942 -0.91027,0.10461 -0.91027,-0.45514 0,-0.55975 -0.37464,-0.78618 -0.83254,-0.50319 -0.45789,0.28299 -0.96992,0.20477 -1.13784,-0.17385 -0.16793,-0.3786 -3.3775,-2.29678 -7.13238,-4.26259 -3.7549,-1.96582 -7.03189,-3.85651 -7.28222,-4.20153 -0.25032,-0.34503 -2.29844,-1.54781 -4.55138,-2.67288 -2.25293,-1.12505 -4.91548,-2.7879 -5.91679,-3.69521 -1.0013,-0.90732 -2.38785,-1.78275 -3.08121,-1.9454 -0.69337,-0.16266 -2.27345,-1.20272 -3.5113,-2.31127 -1.23785,-1.10854 -2.51386,-1.94731 -2.83558,-1.86392 -0.32172,0.0834 -3.54461,-1.78788 -7.16199,-4.15839 -7.66661,-5.02403 -25.72501,-14.52858 -25.76544,-13.56095 -0.0152,0.36435 -0.45587,-0.0734 -0.97921,-0.97288 -0.76553,-1.31569 -0.49155,-1.99714 1.40177,-3.48642 1.29431,-1.01811 2.14693,-2.185 1.89471,-2.59311 -0.25222,-0.4081 0.1573,-0.97833 0.91004,-1.26719 0.75276,-0.28886 1.28034,-0.84381 1.17242,-1.23322 -0.18318,-0.66099 8.21497,-9.00072 18.58767,-18.45843 2.4709,-2.25293 5.91431,-5.40704 7.65203,-7.00913 1.73772,-1.60208 3.44623,-2.94865 3.79668,-2.99237 0.35046,-0.0437 1.9508,-1.24248 3.55632,-2.66391 1.60553,-1.42141 3.13198,-2.37156 3.39212,-2.11141 0.26013,0.26013 0.73036,-0.19774 1.04492,-1.0175 0.31458,-0.81976 0.87662,-1.30217 1.24899,-1.07204 0.37237,0.23014 1.45592,-0.2907 2.40788,-1.15742 0.95196,-0.86672 3.83417,-2.9131 6.4049,-4.5475 2.57075,-1.6344 6.05255,-4.59565 7.73735,-6.58057 1.6848,-1.98492 3.46848,-3.611 3.96373,-3.61352 0.49525,-0.002 1.92893,-0.98836 3.18597,-2.19078 8.26212,-7.90314 10.68798,-10.49938 10.23429,-10.95307 -0.28317,-0.28318 0.18206,-0.51486 1.03386,-0.51486 0.85179,0 5.16054,-3.48181 9.57499,-7.73735 4.41445,-4.25554 8.43412,-7.73734 8.93261,-7.73734 0.49848,0 3.32403,-2.55135 6.27899,-5.66965 2.95495,-3.11831 5.6563,-5.58391 6.00301,-5.47911 0.3467,0.1048 1.41879,-0.81177 2.38241,-2.03683 0.96362,-1.22505 1.96455,-2.01488 2.22426,-1.75517 0.25971,0.25972 1.33815,-0.62866 2.39654,-1.97417 1.05838,-1.34551 1.92432,-2.15048 1.92432,-1.78881 0,0.36167 2.23657,-1.52881 4.97014,-4.20106 5.21291,-5.09593 6.5641,-6.21064 13.23538,-10.919 2.25294,-1.59004 6.54715,-5.098884 9.5427,-7.797436 2.99556,-2.698552 7.86231,-6.624048 10.81503,-8.723328 2.9527,-2.09928 6.10001,-4.499574 6.99397,-5.333994 0.89399,-0.83442 1.80815,-1.334399 2.03148,-1.111066 0.22335,0.223334 1.79357,-0.890057 3.4894,-2.474202 1.69583,-1.584144 3.18936,-2.927473 3.31896,-2.985176 0.1296,-0.0577 1.05654,1.244965 2.05988,2.894817 1.65533,2.721977 2.18934,2.980833 5.7672,2.795629 2.81591,-0.145763 4.72828,0.355111 6.69049,1.752324 1.51115,1.076036 3.00852,1.695444 3.32751,1.376468 0.31897,-0.318976 0.57995,-0.172816 0.57995,0.3248 0,0.78984 8.35137,5.0088 21.84662,11.036512 3.497,1.561944 7.847,4.485944 12.5163,8.413252 0.62581,0.52637 1.1503,0.63367 1.16553,0.23844 0.0152,-0.39523 0.45002,0.007 0.96622,0.89353 0.5162,0.88667 1.32298,1.37453 1.79287,1.08412 0.46988,-0.2904 0.85433,-0.12761 0.85433,0.36175 0,0.48937 1.53609,1.82387 3.41354,2.96555 1.87744,1.14169 4.33468,3.12081 5.46054,4.39805 1.12586,1.27725 2.04751,1.98362 2.04812,1.56972 6.2e-4,-0.4139 1.06251,0.50885 2.35978,2.05056 1.29726,1.54172 2.66438,2.61417 3.03804,2.38324 0.37365,-0.23094 2.26276,1.20164 4.198,3.18352 1.93525,1.98188 3.84513,3.6034 4.24417,3.6034 0.39905,0 1.55973,0.8342 2.57929,1.85376 1.01958,1.01956 2.21346,1.63144 2.65308,1.35974 0.43964,-0.2717 0.93672,-0.1394 1.10465,0.29402 0.29845,0.77028 14.42505,7.84581 15.32487,7.67569 0.25033,-0.0474 0.69681,0.30498 0.99218,0.78291 0.29537,0.47792 1.42184,0.9356 2.50326,1.01706 1.08142,0.0815 1.96622,0.49474 1.96622,0.9184 0,0.42366 0.40962,0.51712 0.91028,0.2077 0.50064,-0.30942 0.91027,-0.1046 0.91027,0.45514 0,0.55974 0.40962,0.76456 0.91028,0.45514 0.50065,-0.30942 0.91027,-0.15639 0.91027,0.34008 0,0.49645 0.92166,1.19517 2.04812,1.5527 1.12647,0.35753 2.04813,0.5195 2.04813,0.35994 0,-0.15956 1.42257,1.0092 3.16125,2.59726 1.7387,1.58805 3.46675,2.88737 3.84012,2.88737 0.37336,0 0.45058,0.59481 0.1716,1.32182 -0.27897,0.727 -0.198,1.82216 0.17993,2.43368 0.37795,0.61153 0.79356,3.80573 0.92359,7.09823 0.13004,3.29251 0.47708,9.67299 0.7712,14.17886 1.90942,29.25174 2.46794,43.54432 2.46988,63.2036 8e-4,12.23264 0.32985,21.71098 0.73035,21.06297 0.40049,-0.64802 0.58255,4.49956 0.40458,11.43904 -0.1933,7.53745 -0.0164,11.70103 0.43937,10.34155 0.45713,-1.36353 0.73758,5.02158 0.69967,15.92983 -0.0348,10.01304 0.0981,34.18087 0.2953,53.70629 0.34236,33.89698 0.002,41.41757 -1.87045,41.41757 -0.46086,0 -0.83794,-0.37623 -0.83794,-0.83607 z"
       style="color:#000000;fill:#ffa3a4;fill-opacity:1;fill-rule:nonzero;stroke:#c42836;stroke-width:0;stroke-linecap:square;stroke-linejoin:round;stroke-miterlimit:4;stroke-opacity:1;stroke-dasharray:none;stroke-dashoffset:0;marker:none;visibility:visible;display:inline;overflow:visible;enable-background:accumulate" />
    <path
       inkscape:connector-curvature="0"
       id="path3783"
       d="m 444.88704,613.84966 c -4.00522,-1.74708 -7.89665,-3.57112 -8.64762,-4.05342 -0.75098,-0.4823 -3.61835,-2.04177 -6.37193,-3.46549 -8.73294,-4.51532 -11.37023,-6.03639 -11.68188,-6.73761 -0.16689,-0.37549 -0.85476,-0.68271 -1.52862,-0.68271 -0.67385,0 -3.60949,-1.56157 -6.52365,-3.47015 -6.23684,-4.08475 -12.34985,-7.23462 -19.78218,-10.19321 -2.95952,-1.17809 -7.23837,-3.55979 -9.50852,-5.29265 -2.27017,-1.73285 -5.9931,-3.97471 -8.27318,-4.98191 -2.28009,-1.00719 -5.61448,-2.80195 -7.40978,-3.98834 -1.7953,-1.18639 -6.45268,-3.38487 -10.34976,-4.88551 -9.52411,-3.6674 -29.39004,-13.67648 -43.2941,-21.8129 -19.08456,-11.16799 -21.9457,-12.73032 -24.43622,-13.3435 -1.32062,-0.32516 -3.63002,-1.50275 -5.13198,-2.61689 -1.50196,-1.11415 -3.66375,-2.30925 -4.80398,-2.65579 -1.14024,-0.34655 -5.37935,-2.54462 -9.42026,-4.88461 -9.84706,-5.7022 -9.99256,-5.79111 -13.10292,-8.0079 -1.49158,-1.06305 -5.16969,-3.17152 -8.1736,-4.68547 -3.00392,-1.51396 -9.22938,-5.23092 -13.83436,-8.25992 -4.60499,-3.029 -9.72529,-6.19001 -11.37845,-7.02446 -1.65317,-0.83447 -4.1061,-2.54611 -5.45096,-3.80366 -2.84578,-2.66102 -3.45066,-3.03195 -13.56046,-8.31582 -4.19149,-2.19068 -10.23337,-5.77184 -13.42638,-7.95814 -3.19301,-2.18631 -7.78764,-4.56374 -10.21029,-5.2832 -2.42265,-0.71944 -7.17878,-3.4342 -10.56918,-6.03281 -3.3904,-2.5986 -7.0998,-5.15094 -8.2431,-5.67186 -2.63775,-1.20185 -2.6094,-2.29139 0.19694,-7.56939 1.25164,-2.354 2.27569,-4.4238 2.27569,-4.59956 0,-1.13613 -4.33314,0.0132 -6.0183,1.59636 -3.33805,3.13593 -3.99473,1.54907 -3.99473,-9.65327 0,-5.6984 -0.35658,-10.58111 -0.7924,-10.85046 -0.43582,-0.26935 -1.06548,-5.92586 -1.39925,-12.57002 -0.33376,-6.64415 -1.21493,-18.63427 -1.95816,-26.6447 -1.21096,-13.05165 -2.60389,-59.93472 -3.71117,-124.90903 -0.38024,-22.3124 -0.3392,-22.9906 1.45918,-24.11371 2.18382,-1.36382 2.39942,-3.04305 0.485,-3.77769 -0.75098,-0.28817 -1.36541,-0.94644 -1.36541,-1.4628 0,-1.57321 2.82715,-1.0551 6.7471,1.23648 2.04659,1.19644 5.46197,2.69496 7.58975,3.33005 2.12777,0.63511 3.86867,1.48666 3.86867,1.89235 0,0.40569 0.59776,0.50824 1.32836,0.22788 0.7306,-0.28035 3.08594,0.69603 5.23409,2.16973 2.14815,1.47371 9.23084,5.79185 15.73931,9.59587 6.50848,3.80404 13.47209,8.0986 15.4747,9.54348 2.00261,1.44488 7.12291,4.18893 11.37845,6.09789 4.25554,1.90896 8.89538,4.43387 10.31076,5.61089 1.41538,1.17702 3.66832,2.40781 5.00652,2.73507 1.3382,0.32727 2.63792,0.86743 2.88824,1.20035 0.25032,0.33293 2.29845,1.48935 4.55138,2.56983 2.25294,1.08047 5.20483,2.99794 6.55978,4.26104 1.35494,1.26309 2.72672,2.29653 3.0484,2.29653 0.32167,0 1.87564,0.55881 3.45325,1.24179 1.57763,0.68298 4.64607,1.99064 6.81875,2.90591 2.17271,0.91527 6.58309,3.3933 9.80087,5.50675 3.21777,2.11344 8.99481,5.1516 12.83785,6.75146 3.84303,1.59986 8.6492,3.97224 10.68035,5.27195 2.03115,1.29971 12.0903,6.72386 22.35367,12.05367 30.06735,15.61411 51.02402,26.74873 57.04832,30.31071 3.08975,1.82688 7.55562,4.15228 9.92417,5.16755 2.36854,1.01529 6.70464,3.64872 9.63575,5.85208 2.93112,2.20336 7.53808,4.83251 10.2377,5.84257 2.69961,1.01005 7.68848,3.70097 11.08637,5.97982 3.39789,2.27885 6.61378,4.14734 7.14642,4.15219 0.53264,0.005 2.65495,1.33614 4.71625,2.9584 2.0613,1.62226 10.34575,6.21114 18.40988,10.19751 8.06413,3.98636 14.84367,7.7212 15.06564,8.29964 0.22197,0.57845 -1.20128,2.9938 -3.16276,5.36748 -5.875,7.10956 -3.99069,9.94509 3.22772,4.85708 7.2268,-5.09392 7.11142,-5.74588 6.55537,37.0369 -0.26028,20.02607 -0.96943,40.7121 -1.57588,45.96894 -0.6684,5.79375 -1.01059,19.05792 -0.86889,33.68022 0.68277,70.45352 -0.40547,92.89585 -4.53272,93.47654 -0.75097,0.10566 -4.6424,-1.23732 -8.64762,-2.9844 l 0,0 z"
       style="color:#000000;fill:#ffa3a4;fill-opacity:1;fill-rule:nonzero;stroke:#c42836;stroke-width:0;stroke-linecap:square;stroke-linejoin:round;stroke-miterlimit:4;stroke-opacity:1;stroke-dasharray:none;stroke-dashoffset:0;marker:none;visibility:visible;display:inline;overflow:visible;enable-background:accumulate" />
    <path
       inkscape:connector-curvature="0"
       id="path3785"
       d="m 452.62438,616.96424 c 0,-0.58409 -0.24856,-0.81342 -0.55236,-0.50962 -0.30381,0.3038 -2.86396,-0.48336 -5.68923,-1.74928 -5.88297,-2.63596 -9.48621,-4.08891 -10.14337,-4.09017 -0.25032,-4.9e-4 -1.06958,-0.53512 -1.82056,-1.18809 -0.75097,-0.65297 -4.02796,-2.61977 -7.2822,-4.37066 -13.01832,-7.00432 -20.79722,-11.3819 -23.306,-13.11544 -1.45027,-1.00214 -5.50424,-3.00493 -9.0088,-4.45065 -3.50456,-1.44572 -6.57675,-2.84703 -6.82708,-3.11401 -0.25032,-0.26699 -1.06957,-0.61857 -1.82055,-0.78128 -0.75097,-0.16271 -1.50195,-0.67474 -1.66883,-1.13785 -0.1669,-0.4631 -0.68246,-0.84201 -1.14573,-0.84201 -0.46327,0 -2.46057,-1.17225 -4.43845,-2.60503 -1.97788,-1.43277 -4.94412,-3.15042 -6.59162,-3.817 -1.64751,-0.66657 -3.20029,-1.4781 -3.45062,-1.8034 -0.25032,-0.3253 -3.52732,-2.03817 -7.2822,-3.80637 -9.61484,-4.52771 -12.18992,-5.60413 -12.97144,-5.42229 -0.37548,0.0874 -0.6827,-0.31904 -0.6827,-0.90314 0,-0.58409 -0.25634,-0.80565 -0.56965,-0.49235 -0.52317,0.52319 -16.73719,-7.37903 -19.13186,-9.3243 -0.57247,-0.46503 -1.28931,-0.59705 -1.59298,-0.29338 -0.30368,0.30367 -0.55214,0.0501 -0.55214,-0.56358 0,-0.61364 -0.40963,-0.86255 -0.91027,-0.55312 -0.50066,0.30942 -0.91028,0.1046 -0.91028,-0.45514 0,-0.55975 -0.40963,-0.76456 -0.91028,-0.45514 -0.50065,0.30942 -0.91028,0.1046 -0.91028,-0.45514 0,-0.55974 -0.40962,-0.76456 -0.91027,-0.45514 -0.50065,0.30942 -0.91028,0.16886 -0.91028,-0.31236 0,-0.48123 -1.12646,-1.28263 -2.50325,-1.7809 -1.3768,-0.49827 -5.98507,-2.97482 -10.24061,-5.50346 C 297.69986,536.55869 288.55064,531.55 287.68031,531.55 c -0.38435,0 -2.69599,-1.22887 -5.13699,-2.73082 -2.44098,-1.50196 -5.07556,-2.73084 -5.85461,-2.73084 -0.77904,0 -1.55298,-0.3202 -1.71988,-0.71156 -0.16688,-0.39136 -2.65876,-1.89202 -5.5375,-3.33481 -2.87875,-1.44279 -5.23409,-2.99007 -5.23409,-3.4384 0,-0.44834 -0.40962,-0.56199 -0.91028,-0.25257 -0.50065,0.30942 -0.91027,0.18694 -0.91027,-0.27218 0,-0.45912 -1.94572,-1.86604 -4.32382,-3.12648 -8.16149,-4.32578 -13.43025,-7.41177 -16.23761,-9.5106 -1.54607,-1.15587 -3.08216,-1.83046 -3.41353,-1.49909 -0.33137,0.33137 -0.6025,0.10043 -0.6025,-0.51322 0,-0.61364 -0.3667,-0.88907 -0.81489,-0.61207 -0.44819,0.27699 -1.07228,-0.16709 -1.38684,-0.98684 -0.31457,-0.81976 -0.80343,-1.25901 -1.08633,-0.97609 -0.42622,0.42622 -12.27519,-6.64224 -15.3726,-9.17046 -0.50065,-0.40866 -1.30689,-0.92492 -1.79163,-1.14727 -0.48475,-0.22234 -1.91844,-1.36953 -3.18597,-2.54932 -1.26754,-1.17979 -5.13889,-3.57518 -8.603,-5.3231 -3.46412,-1.74792 -6.87655,-3.75619 -7.58317,-4.46281 -0.70662,-0.70662 -1.66137,-1.05201 -2.12166,-0.76753 -0.46028,0.28447 -0.83688,0.0834 -0.83688,-0.44678 0,-0.5302 -0.61444,-0.964 -1.36542,-0.964 -0.75098,0 -1.36542,-0.40962 -1.36542,-0.91027 0,-0.50066 -0.35999,-0.91028 -0.79999,-0.91028 -0.43999,0 -3.18085,-1.43368 -6.09081,-3.18597 -2.90995,-1.75228 -6.03176,-3.18596 -6.93736,-3.18596 -0.90559,0 -1.64652,-0.38202 -1.64652,-0.84894 0,-0.86427 -3.53664,-2.39042 -4.77896,-2.06224 -0.37548,0.0992 -0.68271,-0.20693 -0.68271,-0.68025 0,-0.47334 -0.95813,-1.39499 -2.1292,-2.04812 -5.73874,-3.20067 -11.40685,-7.30418 -11.91375,-8.62515 -0.31094,-0.8103 -0.0202,-2.13088 0.64599,-2.93462 0.66624,-0.80374 1.6914,-2.58781 2.27812,-3.9646 0.99573,-2.33655 0.91954,-2.50326 -1.14417,-2.50326 -1.21601,0 -2.5444,0.59586 -2.95196,1.32412 -0.50579,0.9038 -1.17031,1.05931 -2.09335,0.48988 -0.98404,-0.60706 -1.51409,-3.38476 -1.94629,-10.19933 -0.32667,-5.15078 -0.8239,-11.00355 -1.10494,-13.00616 -1.09742,-7.81962 -3.5735,-40.36601 -3.49496,-45.93855 0.0457,-3.23752 -0.26018,-6.30969 -0.67958,-6.82707 -0.41942,-0.51737 -0.9788,-19.16895 -1.24307,-41.44796 -1.19192,-100.48304 -1.23928,-91.96739 0.517,-92.95401 2.10487,-1.18244 2.01668,-2.30184 -0.22757,-2.88872 -1.0013,-0.26185 -1.82055,-0.87629 -1.82055,-1.36542 0,-1.18944 3.47543,-2.05384 3.84155,-0.95546 0.15826,0.47476 0.89474,0.98508 1.63664,1.13404 1.21189,0.24332 3.96673,1.40701 13.42012,5.66893 1.63267,0.73607 3.34527,1.10543 3.80578,0.82082 0.46051,-0.28462 1.06934,-0.14202 1.35296,0.31688 0.28361,0.45889 6.55869,4.43641 13.94461,8.83893 7.38592,4.40252 13.72989,8.4372 14.09771,8.96596 0.41422,0.59544 0.67938,0.6149 0.69665,0.0511 0.0154,-0.50065 0.41629,-0.29584 0.89101,0.45514 0.47472,0.75098 1.18529,1.36605 1.57904,1.36682 0.39376,7.8e-4 1.94479,0.86412 3.44674,1.91852 1.50196,1.0544 5.39338,3.09059 8.64762,4.52486 3.25424,1.43426 6.36813,3.04114 6.91976,3.57082 0.55164,0.52968 4.44307,2.72285 8.64763,4.87372 9.28624,4.75043 10.4155,5.40701 14.46813,8.41224 1.75426,1.30086 5.23768,3.13084 7.74094,4.06663 2.50326,0.93577 5.93122,2.63055 7.6177,3.76617 1.68646,1.13563 3.42736,1.84162 3.86867,1.56888 0.44129,-0.27274 0.80236,-0.1163 0.80236,0.34765 0,0.87899 20.12145,11.33917 20.95873,10.89543 0.26263,-0.13919 1.08188,0.28041 1.82055,0.93244 1.61499,1.42559 7.42547,4.58123 23.18966,12.5942 6.50847,3.30827 12.12587,6.47672 12.4831,7.04098 0.35722,0.56426 0.97165,0.95417 1.36541,0.86644 0.39376,-0.0877 6.45065,2.85108 13.45977,6.53066 7.00913,3.67957 13.87034,7.1965 15.24713,7.81538 1.37679,0.61887 2.50326,1.49329 2.50326,1.94312 0,0.44984 0.40962,0.56472 0.91028,0.2553 0.50064,-0.30942 0.91027,-0.1046 0.91027,0.45514 0,0.55974 0.37465,0.78618 0.83253,0.50319 0.45788,-0.28299 0.96992,-0.20477 1.13784,0.17385 0.30353,0.68434 7.16104,4.48799 17.60056,9.7625 3.00392,1.5177 5.59905,3.06923 5.76698,3.44784 0.16793,0.37861 0.67996,0.45684 1.13784,0.17384 0.45789,-0.28298 0.83254,-0.0566 0.83254,0.5032 0,0.55975 0.3667,0.79108 0.81489,0.51408 0.44819,-0.27699 1.04977,0.10845 1.33684,0.85656 0.28707,0.7481 0.97176,1.36019 1.52154,1.36019 0.54977,0 2.32607,1.01177 3.94735,2.24837 3.13162,2.38861 11.48866,6.44445 12.63302,6.13108 0.37548,-0.10284 0.6827,0.22265 0.6827,0.72331 0,0.50065 0.37522,0.91027 0.83382,0.91027 0.45858,0 5.27167,2.81482 10.69574,6.25517 5.42406,3.44033 15.39186,9.01847 22.15066,12.39586 6.7588,3.37739 12.42612,6.50468 12.59404,6.94952 0.16793,0.44483 0.67996,0.57727 1.13784,0.29427 0.45789,-0.28299 0.83253,-0.0566 0.83253,0.50319 0,0.55975 0.30723,0.83173 0.68271,0.60441 0.37549,-0.22733 1.29715,0.25046 2.04812,1.06174 1.62507,1.75556 1.64013,1.85518 0.40703,2.69086 -2.30667,1.56323 -5.98279,7.54113 -5.71099,9.28689 0.28777,1.84828 0.43908,1.82031 4.65287,-0.86023 6.06889,-3.86062 7.02303,-3.67322 7.02303,1.37934 0,2.82988 0.32411,3.94964 1.01894,3.52021 0.74742,-0.46193 0.83726,4.31431 0.33716,17.92424 -0.37496,10.20467 -0.79633,24.49352 -0.93637,31.75297 -0.14004,7.25946 -0.59899,18.52412 -1.01989,25.03259 -0.42089,6.50847 -0.76526,33.81216 -0.76526,60.67487 0,26.86271 -0.24876,48.43838 -0.55281,47.94595 -0.30405,-0.49243 -0.58825,1.69682 -0.63157,4.86501 -0.11436,8.36557 -1.06705,14.16492 -2.52582,15.37559 -0.70195,0.58257 -1.0518,1.42242 -0.77743,1.86634 0.27435,0.44393 0.065,0.80714 -0.46516,0.80714 -0.5302,0 -0.96401,-0.4779 -0.96401,-1.06199 z"
       style="color:#000000;fill:#e8e8e8;fill-opacity:1;fill-rule:nonzero;stroke:#c42836;stroke-width:0;stroke-linecap:square;stroke-linejoin:round;stroke-miterlimit:4;stroke-opacity:1;stroke-dasharray:none;stroke-dashoffset:0;marker:none;visibility:visible;display:inline;overflow:visible;enable-background:accumulate" />
    <path
       inkscape:connector-curvature="0"
       id="path3793"
       d="m 461.32402,597.31745 c 1.1092,-27.55096 1.04171,-42.18443 -0.29914,-64.85717 -0.98493,-16.65447 -0.95249,-22.55522 0.21773,-39.59701 0.75633,-11.01434 1.78646,-29.65225 2.2892,-41.41757 0.50273,-11.76531 1.16941,-27.33104 1.48151,-34.59048 0.37739,-8.77826 0.98918,-13.87426 1.82661,-15.21511 0.69253,-1.10885 1.25915,-3.22745 1.25915,-4.70801 0,-3.5951 4.39454,-7.29084 16.94781,-14.25286 5.37609,-2.98157 11.12173,-6.75231 12.76808,-8.37943 1.64635,-1.62712 3.35775,-2.9584 3.8031,-2.9584 1.23627,0 18.12066,-8.89837 24.28355,-12.79784 3.0039,-1.90068 8.09964,-4.13116 11.32384,-4.95662 7.31247,-1.87212 12.09333,-4.27398 14.43641,-7.25273 1.58908,-2.02019 2.51634,-2.30597 7.59583,-2.34104 6.68672,-0.0462 11.02672,-1.38843 15.48539,-4.78921 2.22099,-1.69403 5.00468,-2.67363 9.34377,-3.28812 5.18916,-0.73487 7.73436,-1.81667 15.87024,-6.74539 10.99129,-6.65852 16.81939,-9.71446 18.52884,-9.7155 2.35,-0.002 13.0555,-5.64058 14.82825,-7.81081 1.28076,-1.56792 4.24962,-2.91713 10.01304,-4.55047 4.50587,-1.27694 8.80692,-2.39729 9.5579,-2.48964 2.08661,-0.25662 2.18391,8.70909 0.43056,39.67448 -1.28216,22.64371 -1.45832,38.47151 -1.07155,96.27986 0.25459,38.04973 0.24631,70.79594 -0.0184,72.76936 -0.44568,3.32289 -0.79227,3.69169 -4.68989,4.99063 -2.31475,0.77142 -5.64232,2.30409 -7.3946,3.40595 -7.23957,4.55231 -13.40962,7.81586 -21.84663,11.55542 -4.81897,2.13594 -12.5242,6.49611 -18.02359,10.19904 -2.15286,1.4496 -4.63228,2.63564 -5.50981,2.63564 -3.13093,0 -16.15963,7.33896 -21.7069,12.22735 -3.71938,3.27758 -6.97788,5.30587 -9.5579,5.94941 -4.18863,1.04476 -9.50264,3.48756 -13.92764,6.40236 -3.39442,2.23595 -3.21566,2.16034 -10.92332,4.62059 -3.50456,1.11864 -7.90416,2.99671 -9.77689,4.17348 -1.87274,1.17677 -6.58341,3.40041 -10.46818,4.9414 -11.09224,4.40001 -25.78815,12.54915 -30.27525,16.78817 -2.25293,2.12836 -8.19248,6.01844 -13.199,8.64463 -5.00652,2.62618 -9.91075,5.33272 -10.89829,6.01451 -0.98754,0.6818 -2.17924,1.23963 -2.64823,1.23963 -0.52836,0 -0.54952,-7.53034 -0.0556,-19.7985 z"
       style="color:#000000;fill:#cfcfcf;fill-opacity:1;fill-rule:nonzero;stroke:#c42836;stroke-width:0;stroke-linecap:square;stroke-linejoin:round;stroke-miterlimit:4;stroke-opacity:1;stroke-dasharray:none;stroke-dashoffset:0;marker:none;visibility:visible;display:inline;overflow:visible;enable-background:accumulate" />
  </g>
</svg>
