<?xml version="1.0" encoding="UTF-8" standalone="no"?>
<svg
   xmlns:dc="http://purl.org/dc/elements/1.1/"
   xmlns:cc="http://creativecommons.org/ns#"
   xmlns:rdf="http://www.w3.org/1999/02/22-rdf-syntax-ns#"
   xmlns:svg="http://www.w3.org/2000/svg"
   xmlns="http://www.w3.org/2000/svg"
   xmlns:sodipodi="http://sodipodi.sourceforge.net/DTD/sodipodi-0.dtd"
   xmlns:inkscape="http://www.inkscape.org/namespaces/inkscape"
   version="1.0"
   width="784.000000pt"
   height="701.000000pt"
   viewBox="0 0 784.000000 701.000000"
   preserveAspectRatio="xMidYMid meet"
   id="svg2"
   inkscape:version="0.48.4 r9939"
   sodipodi:docname="Roof2_4.svg">
  <defs
     id="defs12" />
  <sodipodi:namedview
     pagecolor="#ffffff"
     bordercolor="#666666"
     borderopacity="1"
     objecttolerance="10"
     gridtolerance="10"
     guidetolerance="10"
     inkscape:pageopacity="0"
     inkscape:pageshadow="2"
     inkscape:window-width="1088"
     inkscape:window-height="995"
     id="namedview10"
     showgrid="false"
     inkscape:zoom="0.87885424"
     inkscape:cx="490"
     inkscape:cy="438.125"
     inkscape:window-x="617"
     inkscape:window-y="155"
     inkscape:window-maximized="0"
     inkscape:current-layer="svg2" />
  <metadata
     id="metadata4">
Created by potrace 1.14, written by Peter Selinger 2001-2017
<rdf:RDF>
  <cc:Work
     rdf:about="">
    <dc:format>image/svg+xml</dc:format>
    <dc:type
       rdf:resource="http://purl.org/dc/dcmitype/StillImage" />
    <dc:title></dc:title>
  </cc:Work>
</rdf:RDF>
</metadata>
  <g
     transform="translate(0.000000,701.000000) scale(0.100000,-0.100000)"
     fill="#000000"
     stroke="none"
     id="g6"
     style="fill:#cb3c32;fill-opacity:1">
    <path
       d="M3241 6343 c-33 -44 -34 -46 -91 -93 -29 -25 -62 -53 -72 -62 -10 -10 -23 -18 -28 -18 -19 0 -60 -32 -60 -47 0 -8 -4 -11 -10 -8 -5 3 -10 0 -10 -7 0 -7 -17 -23 -38 -35 -21 -12 -60 -42 -88 -66 -81 -74 -116 -102 -184 -145 -39 -25 -101 -81 -155 -139 -49 -54 -109 -114 -133 -133 -23 -19 -65 -55 -92 -80 -95 -86 -109 -97 -125 -104 -9 -3 -13 -10 -10 -16 3 -5 0 -10 -8 -10 -8 0 -22 -10 -33 -22 -13 -14 -14 -19 -4 -14 8 4 6 0 -5 -9 -11 -8 -56 -34 -100 -57 -44 -22 -100 -57 -125 -77 -24 -20 -48 -35 -52 -33 -5 1 -8 -5 -8 -13 0 -8 -3 -15 -7 -15 -10 0 -47 -62 -45 -73 2 -5 -2 -6 -7 -3 -5 4 -16 0 -23 -8 -8 -7 -23 -16 -35 -20 -12 -4 -24 -13 -27 -21 -3 -8 -12 -15 -19 -15 -8 0 -32 -19 -54 -42 -60 -65 -106 -99 -122 -93 -8 3 -34 3 -58 -1 -40 -6 -43 -8 -43 -38 0 -18 5 -37 11 -43 5 -5 9 -30 7 -54 -3 -43 -4 -44 -52 -60 -28 -8 -52 -21 -54 -27 -5 -15 34 -16 43 -2 4 6 22 9 42 8 34 -2 35 -3 30 -38 -2 -19 0 -50 5 -68 6 -21 6 -44 -1 -63 -5 -16 -7 -29 -3 -29 4 0 8 -8 8 -17 10 -225 14 -295 19 -303 3 -6 3 -20 0 -31 -4 -12 -3 -19 1 -16 5 3 10 -33 11 -79 1 -46 -2 -82 -6 -80 -4 3 -6 -13 -4 -35 2 -21 0 -39 -5 -39 -11 0 -4 -559 8 -593 7 -20 7 -34 0 -42 -5 -6 -6 -15 -2 -19 8 -8 10 -27 16 -131 2 -38 8 -83 13 -100 6 -16 11 -59 12 -95 2 -36 5 -81 7 -100 6 -56 4 -136 -5 -185 -5 -26 -5 -61 -1 -78 3 -18 5 -60 2 -94 l-4 -63 30 0 c24 0 31 5 36 27 4 14 3 29 -2 32 -5 3 -12 16 -16 29 -9 27 13 30 49 6 13 -9 28 -13 32 -11 5 3 35 -17 68 -44 58 -48 105 -69 153 -69 12 0 22 -4 22 -8 0 -16 57 -72 72 -72 9 0 21 -7 28 -14 6 -8 28 -20 48 -27 52 -17 124 -50 142 -66 50 -43 81 -64 90 -58 5 3 10 -1 10 -10 0 -8 8 -18 18 -22 9 -3 26 -14 37 -23 21 -18 88 -57 192 -110 35 -17 75 -42 90 -54 28 -23 133 -80 133 -72 0 2 30 -12 68 -33 37 -20 83 -43 102 -50 19 -8 49 -24 65 -36 17 -12 57 -36 90 -55 33 -18 69 -41 80 -51 37 -32 236 -136 337 -175 27 -11 48 -22 48 -26 0 -4 17 -10 38 -14 20 -3 70 -24 110 -45 39 -22 72 -37 72 -34 0 8 82 -44 110 -70 14 -13 63 -38 110 -56 47 -17 103 -44 125 -58 69 -46 85 -54 314 -173 46 -24 94 -52 107 -63 12 -11 39 -35 59 -52 19 -18 41 -33 48 -33 7 0 37 23 67 51 52 48 138 99 167 99 7 0 13 5 13 10 0 6 6 10 14 10 8 0 24 12 37 26 50 53 65 66 107 85 23 11 42 24 42 29 0 6 9 10 20 10 11 0 20 5 20 12 0 6 3 9 6 5 4 -3 27 4 53 17 25 13 70 31 99 40 29 10 58 23 65 29 6 7 37 23 67 35 87 37 240 116 240 125 0 4 11 5 24 1 16 -4 25 -1 29 10 4 9 14 16 23 16 9 0 44 22 78 48 81 64 97 73 194 112 46 18 98 43 115 54 48 33 127 72 172 86 22 7 74 35 117 61 83 53 143 81 152 71 3 -3 6 -18 6 -32 0 -37 21 -54 45 -36 15 10 17 22 13 66 -5 51 -4 53 28 72 33 20 51 49 39 68 -8 13 -42 13 -50 0 -16 -26 -27 -8 -22 35 4 24 3 46 -1 49 -5 3 -6 210 -1 286 3 46 -6 130 -14 130 -5 0 -6 12 -2 27 10 35 11 106 2 120 -9 15 -12 393 -3 421 5 14 3 22 -4 22 -9 0 -10 26 -5 98 4 53 9 126 11 162 2 36 6 75 9 88 3 12 8 98 11 190 9 247 10 276 17 292 3 8 5 22 6 30 0 8 3 40 7 70 11 74 8 134 -5 138 -6 2 -24 17 -40 33 -16 16 -36 29 -43 29 -8 0 -23 7 -34 15 -10 8 -35 19 -56 25 -25 7 -52 28 -88 69 -28 34 -70 69 -95 81 -25 12 -73 49 -107 83 -35 33 -78 69 -97 80 -36 20 -144 123 -152 144 -2 6 -10 13 -17 15 -8 2 -39 26 -69 53 -31 28 -61 48 -67 47 -6 -2 -8 0 -3 4 9 9 -21 44 -38 44 -7 0 -22 9 -35 20 -13 11 -26 20 -30 20 -4 0 -25 16 -46 35 -61 54 -62 55 -75 55 -20 0 -123 67 -154 101 -16 17 -52 42 -78 54 -29 14 -62 41 -84 69 -19 25 -41 47 -47 48 -6 0 -16 2 -21 2 -19 2 -68 46 -92 82 -13 19 -28 32 -34 29 -5 -4 -8 -1 -7 7 2 7 -30 30 -76 53 -43 22 -100 61 -127 87 -26 26 -65 55 -86 64 -95 41 -108 50 -111 74 -2 14 -11 31 -20 37 -13 11 -20 9 -38 -8 l-22 -21 -62 31 c-34 17 -75 33 -91 36 -32 6 -117 45 -190 88 -25 15 -49 24 -52 20 -4 -3 -7 -1 -7 5 0 16 -58 71 -115 111 -27 19 -52 37 -55 41 -12 17 -134 100 -146 100 -7 0 -23 13 -35 30 -15 19 -35 32 -58 36 -41 7 -191 73 -191 84 0 4 -25 20 -56 36 -31 16 -67 39 -81 52 -13 12 -28 22 -34 22 -5 0 -14 11 -19 25 -13 33 -43 32 -69 -2z m39 -76 c0 -16 9 -28 25 -35 18 -8 25 -8 25 -1 0 7 12 9 33 5 17 -4 39 -8 48 -9 10 -1 15 -7 11 -16 -3 -9 -1 -12 6 -7 6 3 13 2 16 -3 14 -22 151 -93 201 -103 30 -6 55 -15 55 -20 0 -5 5 -6 10 -3 6 3 10 1 10 -5 0 -13 51 -59 66 -60 6 0 23 -9 38 -21 14 -11 26 -17 26 -12 0 4 14 -8 30 -27 16 -19 30 -30 30 -25 0 6 5 2 11 -7 5 -10 15 -18 20 -18 6 0 34 -23 62 -50 78 -76 82 -80 99 -80 9 0 21 -7 28 -15 7 -8 19 -15 26 -15 8 0 14 -4 14 -10 0 -12 85 -52 160 -76 52 -17 136 -61 171 -91 22 -18 29 -99 35 -398 3 -132 9 -244 14 -250 4 -5 8 -26 9 -45 0 -19 2 -54 5 -77 3 -24 2 -43 -3 -43 -6 0 -14 -58 -12 -95 1 -29 12 -155 16 -190 5 -45 16 -397 14 -435 -3 -44 -1 -186 6 -490 3 -162 6 -309 7 -327 1 -47 -11 -83 -26 -83 -8 0 -49 18 -91 40 -42 22 -83 40 -91 40 -8 0 -14 4 -14 9 0 5 -30 21 -67 37 -38 15 -75 33 -83 39 -8 6 -28 17 -45 25 -16 8 -37 20 -45 27 -75 60 -100 75 -149 90 -31 9 -63 23 -71 32 -24 25 -88 71 -99 71 -21 0 -118 51 -167 89 -28 21 -67 44 -87 50 -20 7 -39 17 -42 22 -4 5 -14 9 -23 9 -10 0 -34 11 -55 25 -32 23 -198 108 -327 169 -25 11 -48 24 -51 29 -3 4 -10 7 -15 5 -5 -2 -20 5 -34 15 -76 54 -202 123 -235 129 -11 1 -28 11 -39 20 -10 9 -34 24 -52 33 -18 8 -46 27 -63 40 -30 26 -100 55 -131 55 -9 0 -42 18 -73 40 -32 22 -57 37 -57 33 0 -3 -8 1 -17 9 -10 9 -39 25 -65 36 -26 11 -62 32 -80 45 -32 24 -139 78 -155 78 -4 0 -12 7 -17 16 -4 8 -31 25 -60 38 -45 20 -70 37 -151 101 -11 9 -29 19 -41 24 -11 4 -49 27 -84 49 -35 23 -70 41 -79 41 -9 0 -35 9 -58 20 -48 21 -58 50 -18 50 19 0 25 5 25 23 0 25 133 160 169 172 12 3 27 18 35 33 8 15 16 25 18 23 1 -3 29 22 60 55 40 41 85 75 145 107 84 44 143 86 143 101 0 9 26 36 34 36 3 0 19 14 34 30 16 17 35 30 41 30 7 0 9 5 5 12 -4 6 -3 8 4 4 6 -3 16 0 24 8 32 34 46 55 40 61 -4 3 1 3 10 0 12 -5 58 34 170 146 84 83 178 168 208 187 70 46 101 73 94 83 -3 5 2 9 10 9 8 0 23 11 34 25 11 13 22 21 26 18 3 -3 6 1 6 10 0 9 6 14 13 11 14 -5 62 31 62 47 0 5 5 10 10 11 6 1 24 17 41 35 17 18 35 33 40 33 12 0 94 56 108 74 14 18 119 96 129 96 4 0 7 -11 7 -23z m1390 -759 c0 -4 12 -8 28 -10 15 -2 26 -8 25 -15 -2 -7 0 -12 5 -11 14 3 42 -14 36 -23 -3 -5 2 -9 10 -9 8 0 18 -9 21 -20 3 -11 17 -23 30 -26 13 -3 26 -12 29 -20 3 -8 17 -14 31 -14 14 0 25 -4 25 -10 0 -5 9 -10 20 -10 11 0 20 -4 20 -10 0 -5 7 -10 15 -10 8 0 15 -4 15 -8 0 -4 23 -34 51 -65 35 -39 62 -60 90 -69 22 -6 45 -21 51 -32 20 -38 211 -196 237 -196 6 0 11 -4 11 -9 0 -5 19 -19 43 -30 23 -11 55 -32 71 -46 16 -13 33 -22 39 -18 6 3 7 1 3 -5 -8 -13 24 -32 52 -32 11 0 32 -13 45 -30 14 -16 28 -30 32 -30 3 0 29 -23 57 -51 27 -27 52 -48 55 -45 5 5 93 -79 93 -90 0 -11 80 -84 93 -85 7 -1 17 0 22 1 6 1 7 -2 3 -5 -8 -8 26 -38 55 -48 9 -4 26 -22 37 -40 11 -19 36 -42 55 -53 19 -10 35 -22 35 -27 0 -4 4 -6 9 -2 5 3 17 -2 25 -11 9 -8 16 -13 16 -9 0 11 26 -19 33 -38 4 -11 12 -15 19 -11 7 4 10 4 6 -1 -4 -4 -1 -20 7 -36 8 -15 15 -30 15 -33 0 -8 -90 21 -107 35 -17 15 -26 20 -111 66 -33 18 -62 29 -66 26 -9 -9 -7 -23 3 -23 6 0 22 -11 36 -24 14 -13 65 -40 113 -61 48 -21 96 -41 107 -46 59 -25 76 -28 94 -17 14 9 26 6 59 -12 23 -13 43 -29 46 -37 7 -18 -30 -40 -84 -48 -64 -11 -93 -23 -84 -37 4 -6 3 -8 -4 -4 -6 3 -17 -2 -24 -13 -19 -27 -76 -58 -123 -67 -47 -8 -177 -74 -254 -128 -50 -36 -57 -38 -104 -32 -39 6 -53 3 -68 -10 -10 -9 -16 -21 -13 -25 3 -5 -1 -9 -8 -9 -8 0 -29 -11 -48 -24 -30 -20 -43 -23 -91 -19 -61 6 -115 -17 -105 -44 3 -8 2 -12 -3 -9 -4 3 -18 -4 -29 -15 -12 -11 -22 -17 -22 -13 0 3 -7 1 -15 -6 -9 -7 -36 -12 -61 -12 -49 2 -98 -18 -113 -46 -5 -10 -36 -28 -68 -41 -32 -14 -80 -38 -108 -56 -27 -17 -72 -46 -100 -63 -27 -17 -54 -35 -60 -40 -5 -4 -37 -21 -70 -37 -73 -36 -156 -87 -174 -109 -23 -28 -41 -19 -42 22 -4 125 -10 189 -20 212 -1 3 -3 178 -5 390 -3 412 -7 522 -18 558 -4 12 -4 22 1 22 4 0 8 34 8 75 0 41 -3 75 -7 75 -3 0 -6 91 -6 203 0 111 -3 222 -5 247 -10 91 -19 195 -18 205 9 83 7 175 -5 209 -7 23 -14 63 -14 89 l0 48 60 -3 c33 -1 60 -6 60 -10z m-3142 -796 c17 -13 32 -21 32 -18 0 4 14 -1 30 -9 17 -9 36 -13 42 -9 7 5 8 3 3 -6 -6 -10 -4 -12 10 -6 10 4 21 3 24 -1 10 -14 87 -63 98 -63 5 0 29 -14 52 -30 41 -30 120 -77 171 -102 14 -7 33 -21 43 -32 9 -10 17 -16 17 -13 0 3 29 -10 65 -29 36 -19 65 -32 65 -27 0 4 4 4 8 -2 4 -5 22 -21 40 -34 30 -20 48 -28 75 -30 5 -1 5 -5 2 -11 -4 -6 5 -10 19 -10 14 0 26 -5 26 -11 0 -5 5 -7 10 -4 6 3 10 1 10 -4 0 -6 6 -11 14 -11 8 0 16 -7 20 -15 3 -8 11 -14 18 -13 7 2 12 -3 11 -9 -3 -12 10 -18 31 -14 4 1 15 -4 23 -11 8 -7 26 -14 40 -16 23 -3 102 -46 113 -62 8 -12 168 -90 184 -90 8 0 16 -4 18 -8 4 -9 202 -119 273 -151 28 -12 61 -29 75 -37 14 -8 59 -32 100 -53 41 -20 93 -49 115 -64 22 -14 59 -33 81 -41 23 -8 72 -33 110 -57 87 -54 192 -109 209 -109 8 0 31 -16 53 -35 43 -39 99 -71 142 -80 15 -3 37 -15 48 -25 12 -11 24 -20 27 -20 4 0 21 -11 39 -25 18 -14 40 -25 49 -25 10 0 17 -5 17 -12 0 -6 3 -8 7 -5 3 4 12 -2 20 -12 7 -11 34 -27 60 -37 26 -10 94 -44 151 -76 57 -32 107 -58 112 -58 4 0 11 -7 14 -16 4 -10 -8 -28 -34 -51 -26 -24 -38 -43 -36 -56 4 -31 17 -30 56 3 19 16 41 30 49 30 35 0 38 -28 35 -294 -3 -253 -11 -492 -19 -538 -19 -116 -24 -445 -9 -578 17 -138 11 -365 -9 -353 -6 4 -7 1 -1 -8 13 -21 15 -49 3 -49 -6 0 -8 -8 -5 -17 12 -39 17 -93 8 -93 -5 0 -9 -26 -9 -57 0 -66 -20 -153 -34 -153 -6 0 -41 16 -79 36 -38 19 -78 36 -89 37 -11 1 -18 3 -16 6 8 8 -74 52 -85 46 -6 -3 -10 -1 -10 4 0 6 -5 11 -10 11 -6 0 -20 9 -32 20 -12 10 -25 17 -30 14 -4 -3 -8 0 -8 5 0 6 -9 11 -20 11 -11 0 -20 4 -20 9 0 5 -10 13 -22 17 -12 3 -39 19 -61 35 -22 16 -43 26 -48 23 -5 -3 -9 -1 -9 4 0 9 -44 31 -71 36 -18 3 -90 37 -107 51 -7 5 -21 17 -30 26 -22 21 -77 49 -97 49 -8 0 -15 3 -15 8 0 9 -122 72 -141 72 -12 0 -92 36 -189 85 -108 55 -208 109 -221 121 -8 8 -20 14 -26 14 -6 0 -16 6 -22 14 -7 8 -24 17 -38 21 -15 3 -33 15 -41 26 -7 10 -19 19 -27 19 -8 0 -31 11 -51 25 -20 14 -47 25 -60 25 -13 0 -24 4 -24 9 0 11 -80 54 -80 43 0 -4 -4 -2 -8 4 -4 5 -40 26 -79 45 -40 18 -73 40 -73 47 0 11 -7 14 -26 11 -4 0 -10 4 -14 10 -3 6 -35 26 -71 45 -95 49 -133 70 -139 77 -17 18 -164 109 -178 109 -8 0 -12 3 -9 6 7 8 -36 44 -52 44 -6 0 -11 4 -11 9 0 5 -33 22 -74 39 -40 16 -98 50 -129 75 -50 40 -106 67 -144 67 -7 0 -36 21 -64 46 -29 26 -67 53 -86 60 -22 10 -33 21 -33 34 0 11 4 20 10 20 5 0 13 12 16 28 4 15 12 30 18 34 17 11 3 17 -26 11 -16 -3 -28 -12 -28 -19 0 -8 -9 -14 -21 -14 -19 0 -20 5 -19 63 3 127 0 168 -11 161 -8 -4 -9 9 -6 45 3 28 2 51 -1 51 -4 0 -8 51 -9 113 -2 61 -10 162 -19 222 -12 83 -15 179 -14 395 0 157 0 321 0 365 -1 44 -1 101 -2 128 0 26 -4 47 -8 47 -4 0 -8 21 -8 48 0 26 -1 139 -3 250 -2 112 -2 207 1 211 3 4 13 10 23 14 21 8 23 27 3 27 -18 0 -29 17 -21 30 9 14 43 3 83 -28z m5023 -729 c2 -59 -3 -224 -7 -258 -3 -22 -7 -87 -9 -145 -3 -58 -7 -150 -11 -205 -9 -133 -6 -852 4 -929 9 -70 8 -258 -1 -273 -5 -8 -1 -174 5 -202 1 -3 -2 -27 -6 -53 l-8 -47 -69 -27 c-38 -15 -66 -31 -62 -37 3 -6 2 -7 -4 -4 -5 3 -40 -14 -78 -39 -38 -24 -75 -44 -82 -44 -24 0 -142 -64 -136 -73 4 -6 1 -7 -6 -2 -7 4 -22 -1 -34 -13 -12 -11 -32 -23 -45 -27 -12 -3 -20 -11 -17 -16 4 -5 -4 -9 -17 -9 -51 0 -208 -80 -208 -106 0 -6 -12 -17 -27 -24 -16 -8 -35 -22 -43 -33 -9 -10 -32 -20 -51 -22 -45 -6 -129 -42 -129 -56 0 -6 -4 -8 -8 -5 -5 3 -14 -4 -22 -14 -8 -10 -17 -17 -22 -14 -4 3 -22 -2 -40 -10 -18 -8 -46 -17 -63 -21 -16 -3 -48 -19 -70 -35 -22 -15 -59 -33 -81 -39 -45 -12 -163 -69 -209 -100 -16 -12 -37 -21 -45 -21 -8 0 -38 -24 -67 -54 -29 -29 -65 -57 -80 -61 -15 -3 -65 -29 -109 -56 -45 -27 -84 -49 -88 -49 -3 0 -3 51 0 113 3 61 5 151 5 199 0 48 3 90 8 92 8 5 6 240 -4 306 -15 103 -20 417 -9 500 3 19 7 67 9 105 2 39 7 124 11 190 4 66 7 164 7 218 0 53 2 97 6 97 3 0 7 75 8 166 2 154 3 168 22 186 16 14 19 23 11 37 -18 35 34 77 214 172 63 33 109 72 98 84 -4 5 3 6 14 3 14 -4 31 2 45 16 13 11 60 36 104 55 44 19 97 49 118 67 29 24 52 33 95 39 60 7 168 67 157 86 -7 10 17 13 83 10 48 -2 119 25 148 57 15 16 36 23 83 26 55 4 72 10 130 49 79 54 197 117 218 117 22 0 133 51 133 61 0 5 9 18 20 29 11 11 20 17 20 14 0 -3 6 -2 13 3 6 4 19 6 28 5 8 -1 28 4 43 12 16 8 34 12 41 10 7 -3 16 -1 20 5 10 18 45 13 46 -6z"
       id="path8"
       style="fill:#cb3c32;fill-opacity:1" />
  </g>
  <path
     style="color:#000000;fill:#ff8284;fill-opacity:1;fill-rule:nonzero;stroke:#c42836;stroke-width:0;stroke-linecap:square;stroke-linejoin:round;stroke-miterlimit:4;stroke-opacity:1;stroke-dasharray:none;stroke-dashoffset:0;marker:none;visibility:visible;display:inline;overflow:visible;enable-background:accumulate"
     d="m 581.1511,480.92368 c -1.66702,-2.69729 -3.00093,-29.34761 -3.95896,-79.09594 -1.52022,-78.94167 -2.15553,-102.7359 -3.58495,-134.26572 -0.70929,-15.64537 -1.45458,-35.99227 -1.6562,-45.21534 -0.20162,-9.22306 -0.90156,-18.69562 -1.55543,-21.05013 -0.65387,-2.35451 -1.1917,-6.76112 -1.19519,-9.79247 l -0.006,-5.51153 5.97369,0.75443 c 7.96078,1.00538 13.73511,2.84882 14.84852,4.74035 0.50046,0.85021 1.4716,1.54583 2.15809,1.54583 0.68648,0 3.09319,1.78604 5.34822,3.96898 6.41765,6.21245 11.09614,9.68516 13.04801,9.68516 3.59269,0 10.54836,4.93049 17.07304,12.10213 3.6727,4.03685 9.04901,8.57786 11.94738,10.09112 2.89836,1.51326 8.43134,5.97137 12.2955,9.9069 3.86417,3.93553 10.00853,9.3589 13.65414,12.05193 8.5751,6.33447 28.84699,19.56725 29.97595,19.56725 0.47995,0 1.14759,0.71651 1.48364,1.59223 0.33605,0.87573 2.56695,2.23351 4.95758,3.01728 2.44595,0.80192 7.82938,4.6598 12.31149,8.82266 4.38071,4.06869 10.26905,9.08026 13.08522,11.13682 2.81617,2.05657 8.57879,7.57669 12.80584,12.26695 4.22705,4.69026 8.69992,8.84969 9.93972,9.24319 2.80647,0.89074 6.36814,3.79342 15.3962,12.5476 3.88809,3.77012 9.56952,8.11523 12.62541,9.65579 3.05589,1.54056 5.95148,3.42293 6.43465,4.18305 0.48317,0.76011 1.63325,2.13679 2.55573,3.05928 1.90919,1.90917 4.28825,7.59065 3.50605,8.37285 -1.06465,1.06465 -7.57405,-1.09453 -11.6609,-3.86794 -5.20424,-3.53169 -18.99578,-10.62121 -20.66189,-10.62121 -5.9899,0 3.69468,7.16062 19.12438,14.14025 14.25618,6.44879 20.65514,8.45453 23.55283,7.3826 3.39733,-1.25675 12.28929,3.40735 12.28929,6.4461 0,1.75078 -1.75791,2.68373 -8.86311,4.7038 -6.48919,1.84493 -10.61952,3.89978 -15.42076,7.67185 -4.03656,3.1713 -9.71813,6.22694 -14.77837,7.94803 -9.88885,3.36342 -19.8191,8.26396 -29.71673,14.66513 -6.38709,4.13076 -8.37282,4.81758 -15.36091,5.31295 -6.60597,0.46829 -8.20651,0.97146 -9.04841,2.84461 -1.6443,3.65839 -10.55217,7.18665 -19.48553,7.7179 -7.94919,0.47272 -13.05807,2.42084 -13.05807,4.9793 0,2.49642 -7.89857,6.23948 -15.41173,7.30348 -7.88635,1.11684 -12.74591,3.08011 -15.3295,6.19315 -0.85824,1.03412 -5.68524,3.9519 -10.72666,6.48395 -5.04142,2.53204 -15.05456,8.29697 -22.25143,12.81095 -7.19688,4.51397 -17.59905,10.6356 -23.11594,13.60361 -5.5169,2.96801 -11.72886,6.88737 -13.80436,8.70969 -4.13757,3.63283 -4.71252,3.85235 -5.73919,2.19115 l 0,0 z"
     id="path3771"
     inkscape:connector-curvature="0"
     transform="scale(0.8,0.8)" />
  <path
     style="color:#000000;fill:#ff8284;fill-opacity:1;fill-rule:nonzero;stroke:#c42836;stroke-width:0;stroke-linecap:square;stroke-linejoin:round;stroke-miterlimit:4;stroke-opacity:1;stroke-dasharray:none;stroke-dashoffset:0;marker:none;visibility:visible;display:inline;overflow:visible;enable-background:accumulate"
     d="m 561.16873,480.53853 c -4.101,-1.98716 -9.2213,-4.46135 -11.37845,-5.49823 -18.48328,-8.88429 -28.07077,-14.09309 -36.35067,-19.74899 -5.31943,-3.63363 -12.67966,-7.79183 -16.35608,-9.24043 -3.67641,-1.44861 -9.30875,-4.61787 -12.5163,-7.04281 -3.20754,-2.42495 -9.25105,-5.97796 -13.43002,-7.8956 -4.17896,-1.91762 -10.57934,-5.51002 -14.22306,-7.98311 -5.55931,-3.77323 -20.69047,-11.62994 -22.39802,-11.62994 -0.27888,0 -3.75644,-1.8429 -7.7279,-4.09532 -3.97146,-2.25243 -17.46145,-9.24392 -29.97774,-15.53665 -12.5163,-6.29272 -25.88287,-13.40939 -29.70351,-15.8148 -3.82063,-2.40541 -10.8872,-6.19415 -15.70349,-8.41941 -4.81629,-2.22526 -13.8496,-7.28539 -20.07401,-11.24473 -6.22441,-3.95934 -13.6268,-7.78038 -16.44975,-8.4912 -4.67225,-1.17649 -15.95244,-7.13171 -40.95652,-21.62243 -5.00652,-2.90145 -11.4027,-6.29014 -14.21375,-7.53044 -2.81104,-1.2403 -5.99375,-3.13365 -7.07267,-4.20745 -1.07893,-1.0738 -4.5723,-3.27527 -7.76306,-4.89216 -3.19076,-1.61688 -8.91419,-5.23129 -12.71873,-8.03203 -9.00036,-6.6257 -27.05526,-16.77842 -35.21528,-19.80244 -7.25662,-2.68922 -9.25866,-5.30152 -4.90119,-6.39517 1.54245,-0.38714 2.80445,-1.37461 2.80445,-2.19438 0,-2.14768 8.67213,-11.96698 15.68472,-17.75955 3.30718,-2.7318 10.60977,-9.41051 16.22799,-14.84158 7.16118,-6.92263 14.32258,-12.36517 23.95519,-18.20552 7.55714,-4.58197 14.50079,-9.61094 15.43034,-11.17548 0.92955,-1.56453 5.02844,-5.40476 9.10866,-8.53383 7.60206,-5.82995 14.01961,-11.91082 14.02898,-13.29301 0.003,-0.42719 1.05723,-1.11059 2.34298,-1.51866 1.28574,-0.40808 8.83818,-6.97151 16.78321,-14.5854 16.60529,-15.91321 28.32522,-26.15284 35.8936,-31.36002 2.9102,-2.00227 5.29126,-4.34943 5.29126,-5.21592 0,-0.86648 0.94959,-1.87681 2.11021,-2.24518 1.16061,-0.36836 3.59275,-2.18075 5.40476,-4.02752 1.81201,-1.84678 3.90571,-3.372 4.65267,-3.38939 0.74696,-0.0174 4.42456,-3.04145 8.17245,-6.72015 3.74788,-3.6787 10.30515,-9.07241 14.57172,-11.98602 4.26656,-2.91362 11.33691,-8.09625 15.71189,-11.516979 4.37497,-3.420724 8.3432,-6.219498 8.8183,-6.219498 0.47508,0 0.86379,0.961365 0.86379,2.136367 0,3.573859 3.07194,5.093955 9.7484,4.823844 4.72344,-0.191096 6.36958,0.17103 6.88517,1.514627 0.37267,0.971169 1.12489,1.765769 1.6716,1.765769 0.54671,0 3.71853,1.74285 7.0485,3.87301 6.11965,3.9147 15.57949,8.13965 24.41235,10.90304 2.65162,0.82958 5.56885,2.64948 6.48273,4.04425 0.91388,1.39476 4.93856,4.36851 8.94373,6.60832 4.00516,2.23982 7.9709,4.90232 8.81273,5.91667 0.84184,1.01434 3.86419,3.44477 6.71635,5.40095 2.85217,1.95618 8.62169,6.77725 12.82117,10.7135 4.19948,3.93626 8.20895,7.15682 8.90993,7.15682 0.70098,0 4.03876,1.8348 7.41726,4.07733 3.37851,2.24253 11.62191,6.34141 18.31868,9.10863 16.29609,6.73383 23.39537,10.86132 25.28304,14.69942 1.12108,2.27942 2.00396,13.62153 3.09104,39.70913 0.83694,20.08507 2.11812,40.61456 2.84705,45.62108 1.02102,7.01267 1.01052,10.6898 -0.0457,16.01459 -1.03257,5.2053 -1.0707,10.12166 -0.15445,19.91229 1.37752,14.71968 1.94056,32.95254 3.56733,115.5213 1.14479,58.10524 0.89404,64.29304 -2.59697,64.08849 -0.79776,-0.0468 -4.80584,-1.71085 -8.90684,-3.698 l -2e-5,0 z"
     id="path3773"
     inkscape:connector-curvature="0"
     transform="scale(0.8,0.8)" />
  <path
     style="color:#000000;fill:#ffa3a4;fill-opacity:1;fill-rule:nonzero;stroke:#c42836;stroke-width:0;stroke-linecap:square;stroke-linejoin:round;stroke-miterlimit:4;stroke-opacity:1;stroke-dasharray:none;stroke-dashoffset:0;marker:none;visibility:visible;display:inline;overflow:visible;enable-background:accumulate"
     d="m 569.19402,484.41428 c 0,-0.57479 -3.33595,-2.1552 -7.41322,-3.51204 -4.07727,-1.35682 -8.11256,-3.16629 -8.9673,-4.02104 -0.85475,-0.85475 -1.87106,-1.23711 -2.25846,-0.8497 -0.38742,0.3874 -0.70439,0.18842 -0.70439,-0.4422 0,-0.63063 -3.58421,-2.58947 -7.96491,-4.35301 -4.38071,-1.76353 -7.96492,-3.66726 -7.96492,-4.23052 0,-0.56324 -0.51203,-0.70763 -1.13784,-0.32086 -0.62582,0.38678 -1.13785,0.13076 -1.13785,-0.56892 0,-0.69968 -0.51203,-0.9557 -1.13784,-0.56892 -0.62582,0.38677 -1.13785,0.13076 -1.13785,-0.56893 0,-0.69968 -0.51203,-0.95569 -1.13784,-0.56892 -0.62582,0.38678 -1.13785,0.13076 -1.13785,-0.56892 0,-0.69968 -0.51203,-0.9557 -1.13784,-0.56892 -0.62582,0.38677 -1.13785,0.21156 -1.13785,-0.38939 0,-1.08528 -7.49397,-5.98131 -9.67168,-6.31877 -0.62582,-0.0969 -3.53125,-1.82544 -6.45652,-3.84104 -5.39313,-3.71602 -11.04777,-6.46802 -12.60239,-6.1333 -0.46936,0.10104 -0.85338,-0.29379 -0.85338,-0.87742 0,-0.93267 -4.15633,-2.83225 -5.68923,-2.60016 -0.31291,0.0473 -0.97839,-0.64553 -1.47884,-1.5398 -0.50046,-0.89427 -1.43067,-1.62595 -2.06715,-1.62595 -0.63648,0 -2.78716,-1.15335 -4.7793,-2.56301 -7.25042,-5.13045 -21.36036,-12.92652 -22.6478,-12.51344 -0.48761,0.15646 -0.88657,-0.22756 -0.88657,-0.85338 0,-0.62581 -0.42325,-1.13784 -0.94056,-1.13784 -0.51731,0 -5.21435,-2.30414 -10.43789,-5.12031 -5.22354,-2.81616 -10.1766,-5.1203 -11.00682,-5.1203 -0.83022,0 -1.50948,-0.59737 -1.50948,-1.32749 0,-0.73011 -0.31057,-1.0169 -0.69017,-0.63732 -0.37958,0.3796 -1.27564,0.20112 -1.99123,-0.39662 -0.71558,-0.59773 -9.49354,-5.26944 -19.50658,-10.38157 -10.01304,-5.11213 -18.88213,-9.96863 -19.7091,-10.79219 -1.413,-1.40719 -3.06824,-1.94332 -5.03903,-1.63215 -0.46936,0.0741 -0.85338,-0.4075 -0.85338,-1.07025 0,-0.66275 -0.46831,-0.91557 -1.04066,-0.56184 -0.57236,0.35375 -1.2124,0.22579 -1.42231,-0.28436 -0.64181,-1.55985 -13.06947,-8.20752 -13.86205,-7.41495 -0.40846,0.40847 -0.74266,0.06 -0.74266,-0.77446 0,-0.83441 -0.32622,-1.1909 -0.72494,-0.79218 -0.39873,0.39873 -2.06283,-0.21832 -3.698,-1.3712 -3.89007,-2.74269 -15.39665,-8.5312 -15.81531,-7.95608 -0.17929,0.24628 -0.69132,-0.0913 -1.13784,-0.75013 -1.34998,-1.99185 -8.94364,-6.2209 -9.74009,-5.42444 -0.40891,0.40892 -0.74348,0.14611 -0.74348,-0.584 0,-0.73012 -0.72538,-1.32749 -1.61195,-1.32749 -0.88657,0 -1.78262,-0.38402 -1.99123,-0.85338 -0.2086,-0.46937 -1.91537,-1.67597 -3.79282,-2.68136 -15.62803,-8.36891 -22.19002,-11.39028 -23.27789,-10.71794 -0.54528,0.33699 -1.16314,0.22118 -1.37305,-0.25736 -0.20991,-0.47854 -3.70985,-2.61519 -7.77764,-4.74808 -4.0678,-2.1329 -7.65201,-4.2357 -7.96492,-4.67288 -0.31291,-0.43718 -1.72099,-1.1544 -3.12907,-1.59384 -1.40809,-0.43942 -2.56015,-1.3067 -2.56015,-1.92727 0,-0.62058 -0.51203,-0.81187 -1.13785,-0.4251 -0.62581,0.38678 -1.13784,0.13077 -1.13784,-0.56892 0,-0.69968 -0.51203,-0.9557 -1.13785,-0.56892 -0.62581,0.38678 -1.13784,0.13076 -1.13784,-0.56892 0,-0.69969 -0.4683,-0.98273 -1.04067,-0.62899 -0.57236,0.35374 -1.2124,0.25596 -1.4223,-0.21731 -0.20991,-0.47326 -4.22187,-2.87098 -8.91548,-5.32824 -4.69362,-2.45728 -8.78986,-4.82064 -9.10277,-5.25192 -0.3129,-0.43128 -2.87305,-1.93476 -5.68922,-3.34109 -2.81617,-1.40632 -6.14436,-3.48488 -7.39599,-4.61902 -1.25163,-1.13415 -2.98482,-2.22844 -3.85152,-2.43175 -0.86671,-0.20332 -2.84181,-1.5034 -4.38912,-2.88908 -1.54731,-1.38568 -3.14232,-2.43414 -3.54448,-2.3299 -0.40215,0.10423 -4.43076,-2.23485 -8.95248,-5.19799 -9.58327,-6.28004 -32.15626,-18.16073 -32.2068,-16.95119 -0.019,0.45544 -0.56984,-0.0918 -1.22401,-1.2161 -0.95692,-1.64461 -0.61444,-2.49642 1.75221,-4.35803 1.61789,-1.27263 2.68366,-2.73125 2.36839,-3.24138 -0.31528,-0.51013 0.19662,-1.22292 1.13755,-1.58399 0.94094,-0.36107 1.60042,-1.05476 1.46552,-1.54153 -0.22897,-0.82623 10.26871,-11.2509 23.23459,-23.07303 3.08862,-2.81617 7.39288,-6.7588 9.56504,-8.76141 2.17215,-2.00261 4.30778,-3.68582 4.74585,-3.74047 0.43807,-0.0546 2.4385,-1.5531 4.4454,-3.32988 2.00691,-1.77677 3.91497,-2.96445 4.24014,-2.63927 0.32517,0.32517 0.91295,-0.24717 1.30616,-1.27187 0.39322,-1.0247 1.09577,-1.62772 1.56123,-1.34005 0.46547,0.28767 1.8199,-0.36338 3.00985,-1.44678 1.18995,-1.0834 4.79271,-3.64137 8.00613,-5.68437 3.21343,-2.043 7.56568,-5.74457 9.67169,-8.22572 2.106,-2.48115 4.3356,-4.51375 4.95466,-4.51689 0.61906,-0.003 2.41116,-1.23546 3.98246,-2.73848 10.32765,-9.87893 13.35997,-13.12423 12.79286,-13.69134 -0.35396,-0.35397 0.22758,-0.64357 1.29233,-0.64357 1.06474,0 6.45067,-4.35226 11.96873,-9.67169 5.51807,-5.31942 10.54266,-9.67168 11.16577,-9.67168 0.6231,0 4.15503,-3.18918 7.84873,-7.08706 3.69369,-3.89788 7.07038,-6.97988 7.50377,-6.84888 0.43337,0.131 1.77348,-1.01472 2.97801,-2.54604 1.20453,-1.53132 2.45569,-2.5186 2.78032,-2.19396 0.32464,0.32465 1.67269,-0.78583 2.99568,-2.46772 1.32297,-1.68189 2.4054,-2.6881 2.4054,-2.23601 0,0.45209 2.79571,-1.91101 6.21268,-5.25132 6.51613,-6.36992 8.20512,-7.76331 16.54422,-13.64875 2.81617,-1.98755 8.18394,-6.37361 11.92838,-9.7468 3.74444,-3.37319 9.82788,-8.28006 13.51878,-10.90416 3.69088,-2.6241 7.62501,-5.624467 8.74247,-6.667492 1.11748,-1.043025 2.26018,-1.667999 2.53935,-1.388833 0.27918,0.279167 2.24196,-1.112571 4.36174,-3.092752 2.11979,-1.98018 3.98671,-3.659342 4.14871,-3.73147 0.16199,-0.07213 1.32067,1.556206 2.57484,3.618521 2.06917,3.402471 2.73668,3.726041 7.209,3.494536 3.51989,-0.182204 5.91035,0.443889 8.36312,2.190405 1.88893,1.345045 3.76065,2.119305 4.15938,1.720585 0.39872,-0.39872 0.72494,-0.21602 0.72494,0.406 0,0.9873 10.43922,6.261 27.30828,13.79564 4.37125,1.95243 9.80875,5.60743 15.64537,10.51657 0.78227,0.65796 1.43788,0.79208 1.45691,0.29804 0.019,-0.49403 0.56253,0.009 1.20778,1.11692 0.64525,1.10834 1.65373,1.71816 2.24109,1.35515 0.58735,-0.363 1.06791,-0.15951 1.06791,0.45219 0,0.61171 1.92011,2.27983 4.26692,3.70693 2.34681,1.42711 5.41836,3.90101 6.82568,5.49757 1.40732,1.59656 2.55939,2.47952 2.56015,1.96215 7.7e-4,-0.51738 1.32814,0.63606 2.94972,2.5632 1.62158,1.92714 3.33048,3.26771 3.79756,2.97904 0.46706,-0.28867 2.82844,1.50206 5.2475,3.9794 2.41906,2.47735 4.80641,4.50426 5.30521,4.50426 0.49881,0 1.94966,1.04274 3.22411,2.31719 1.27447,1.27446 2.76682,2.03931 3.31635,1.69968 0.54955,-0.33963 1.1709,-0.17425 1.38081,0.36753 0.37306,0.96285 18.03131,9.80726 19.15609,9.59461 0.31291,-0.0592 0.87101,0.38122 1.24023,0.97863 0.36921,0.59741 1.77729,1.1695 3.12907,1.27133 1.35178,0.10182 2.45777,0.61842 2.45777,1.148 0,0.52957 0.51203,0.6464 1.13785,0.25963 0.62581,-0.38678 1.13784,-0.13076 1.13784,0.56892 0,0.69968 0.51203,0.9557 1.13785,0.56892 0.62581,-0.38677 1.13784,-0.19548 1.13784,0.4251 0,0.62057 1.15207,1.49397 2.56015,1.94088 1.40809,0.44691 2.56016,0.64937 2.56016,0.44992 0,-0.19945 1.77821,1.26151 3.95157,3.24658 2.17337,1.98506 4.33343,3.60921 4.80014,3.60921 0.4667,0 0.56323,0.74352 0.21451,1.65228 -0.34872,0.90875 -0.24751,2.2777 0.22491,3.0421 0.47244,0.76441 0.99195,4.75716 1.15449,8.87279 0.16255,4.11563 0.59634,12.09123 0.96399,17.72357 2.38678,36.56467 3.08493,54.4304 3.08735,79.0045 10e-4,15.2908 0.41232,27.13872 0.91294,26.32871 0.50061,-0.81002 0.72819,5.62445 0.50573,14.2988 -0.24163,9.42182 -0.0205,14.62629 0.54921,12.92694 0.57141,-1.70441 0.92197,6.27698 0.87459,19.91229 -0.0435,12.5163 0.1226,42.72609 0.36912,67.13286 0.42795,42.37122 0.003,51.77196 -2.33806,51.77196 -0.57608,0 -1.04743,-0.47029 -1.04743,-1.04508 z"
     id="path3775"
     inkscape:connector-curvature="0"
     transform="scale(0.8,0.8)" />
  <path
     style="color:#000000;fill:#ffa3a4;fill-opacity:1;fill-rule:nonzero;stroke:#c42836;stroke-width:0;stroke-linecap:square;stroke-linejoin:round;stroke-miterlimit:4;stroke-opacity:1;stroke-dasharray:none;stroke-dashoffset:0;marker:none;visibility:visible;display:inline;overflow:visible;enable-background:accumulate"
     d="m 556.1088,763.56207 c -5.00652,-2.18385 -9.87081,-4.4639 -10.80953,-5.06677 -0.93872,-0.60287 -4.52293,-2.55221 -7.96491,-4.33186 -10.91617,-5.64415 -14.21278,-7.54549 -14.60235,-8.42201 -0.20861,-0.46937 -1.06845,-0.85339 -1.91077,-0.85339 -0.84231,0 -4.51186,-1.95196 -8.15456,-4.33769 -7.79606,-5.10594 -15.43732,-9.04328 -24.72773,-12.74151 -3.6994,-1.47262 -9.04796,-4.44974 -11.88565,-6.61581 -2.83771,-2.16607 -7.49137,-4.96839 -10.34148,-6.22739 -2.85011,-1.25899 -7.0181,-3.50244 -9.26222,-4.98543 -2.24412,-1.48299 -8.06585,-4.23108 -12.9372,-6.10688 -11.90514,-4.58425 -36.73755,-17.0956 -54.11763,-27.26613 -23.8557,-13.95999 -27.43212,-15.9129 -30.54527,-16.67938 -1.65078,-0.40644 -4.53753,-1.87843 -6.41497,-3.27111 -1.87745,-1.39268 -4.57969,-2.88656 -6.00498,-3.31974 -1.4253,-0.43318 -6.72419,-3.18077 -11.77532,-6.10576 -12.30883,-7.12775 -12.4907,-7.23889 -16.37866,-10.00987 -1.86447,-1.32882 -6.46211,-3.9644 -10.217,-5.85684 -3.75489,-1.89245 -11.53672,-6.53865 -17.29295,-10.3249 -5.75623,-3.78625 -12.15661,-7.73751 -14.22306,-8.78058 -2.06646,-1.04308 -5.13262,-3.18263 -6.8137,-4.75457 -3.55722,-3.32628 -4.31332,-3.78994 -16.95057,-10.39477 -5.23937,-2.73835 -12.79171,-7.2148 -16.78298,-9.94768 -3.99126,-2.73289 -9.73455,-5.70468 -12.76286,-6.604 -3.02831,-0.8993 -8.97347,-4.29275 -13.21147,-7.54101 -4.238,-3.24825 -8.87475,-6.43868 -10.30388,-7.08983 -3.29719,-1.50231 -3.26175,-2.86423 0.24618,-9.46174 1.56454,-2.94249 2.84461,-5.52974 2.84461,-5.74944 0,-1.42017 -5.41643,0.0165 -7.52288,1.99545 -4.17256,3.91991 -4.99341,1.93633 -4.99341,-12.06659 0,-7.123 -0.44573,-13.22639 -0.9905,-13.56308 -0.54478,-0.33668 -1.33185,-7.40732 -1.74906,-15.71252 -0.4172,-8.30519 -1.51866,-23.29284 -2.4477,-33.30588 -1.5137,-16.31456 -3.25487,-74.9184 -4.63896,-156.13628 -0.4753,-27.89051 -0.424,-28.73826 1.82397,-30.14214 2.72978,-1.70478 2.99927,-3.80382 0.60625,-4.72211 -0.93872,-0.36022 -1.70676,-1.18305 -1.70676,-1.8285 0,-1.96652 3.53393,-1.31888 8.43387,1.5456 2.55824,1.49554 6.82747,3.36869 9.48719,4.16256 2.65971,0.79388 4.83584,1.85832 4.83584,2.36544 0,0.50711 0.7472,0.6353 1.66045,0.28485 0.91325,-0.35044 3.85742,0.87003 6.54261,2.71216 2.68519,1.84213 11.53855,7.23981 19.67414,11.99484 8.1356,4.75504 16.84011,10.12324 19.34337,11.92934 2.50326,1.8061 8.90364,5.23617 14.22306,7.62237 5.31943,2.3862 11.11923,5.54233 12.88846,7.01361 1.76922,1.47128 4.58539,3.00976 6.25815,3.41884 1.67275,0.40909 3.29739,1.08428 3.6103,1.50044 0.3129,0.41616 2.87306,1.86168 5.68922,3.21228 2.81617,1.35059 6.50604,3.74743 8.19972,5.3263 1.69368,1.57887 3.4084,2.87067 3.8105,2.87067 0.40209,0 2.34455,0.69851 4.31657,1.55223 1.97203,0.85373 5.80758,2.4883 8.52344,3.63239 2.71588,1.14409 8.22886,4.24163 12.25108,6.88344 4.02222,2.6418 11.24351,6.4395 16.04731,8.43932 4.80379,1.99983 10.8115,4.9653 13.35044,6.58994 2.53894,1.62464 15.11288,8.40483 27.94209,15.06709 37.58419,19.51764 63.78002,33.43591 71.3104,37.88839 3.86219,2.2836 9.44452,5.19034 12.40521,6.45943 2.96068,1.26911 8.3808,4.5609 12.04469,7.3151 3.6639,2.7542 9.4226,6.04064 12.79712,7.30321 3.37452,1.26257 9.6106,4.62622 13.85797,7.47478 4.24736,2.84856 8.26722,5.18417 8.93302,5.19024 0.6658,0.006 3.31869,1.67017 5.89531,3.698 2.57663,2.02782 12.93219,7.76392 23.01235,12.74688 10.08017,4.98295 18.55459,9.65151 18.83205,10.37456 0.27747,0.72306 -1.50159,3.74225 -3.95344,6.70934 -7.34375,8.88696 -4.98837,12.43137 4.03465,6.07136 9.0335,-6.3674 8.88927,-7.18235 8.19421,46.29612 -0.32535,25.03259 -1.21179,50.89012 -1.96985,57.46118 -0.8355,7.24218 -1.26324,23.82239 -1.08611,42.10027 0.85346,88.0669 -0.50684,116.11981 -5.6659,116.84568 -0.93872,0.13207 -5.80301,-1.54665 -10.80953,-3.73051 l 0,0 z"
     id="path3783"
     inkscape:connector-curvature="0"
     transform="scale(0.8,0.8)" />
  <path
     style="color:#000000;fill:#e8e8e8;fill-opacity:1;fill-rule:nonzero;stroke:#c42836;stroke-width:0;stroke-linecap:square;stroke-linejoin:round;stroke-miterlimit:4;stroke-opacity:1;stroke-dasharray:none;stroke-dashoffset:0;marker:none;visibility:visible;display:inline;overflow:visible;enable-background:accumulate"
     d="m 565.78048,767.4553 c 0,-0.73011 -0.31071,-1.01678 -0.69046,-0.63702 -0.37976,0.37975 -3.57995,-0.60421 -7.11153,-2.1866 -7.35372,-3.29495 -11.85777,-5.11114 -12.67922,-5.11272 -0.3129,-6.1e-4 -1.33697,-0.6689 -2.27569,-1.48511 -0.93872,-0.81621 -5.03496,-3.27471 -9.10276,-5.46333 -16.27289,-8.7554 -25.99652,-14.22737 -29.13249,-16.3943 -1.81284,-1.25267 -6.88031,-3.75616 -11.26101,-5.56331 -4.3807,-1.80715 -8.22093,-3.55878 -8.53384,-3.89251 -0.31291,-0.33374 -1.33697,-0.77321 -2.27569,-0.9766 -0.93872,-0.20339 -1.87744,-0.84343 -2.08604,-1.42231 -0.20862,-0.57888 -0.85308,-1.05251 -1.43216,-1.05251 -0.57909,0 -3.07571,-1.46532 -5.54807,-3.25629 -2.47235,-1.79097 -6.18014,-3.93803 -8.23952,-4.77125 -2.05939,-0.83321 -4.00036,-1.84763 -4.31327,-2.25425 -0.3129,-0.40663 -4.40915,-2.54772 -9.10276,-4.75797 -12.01855,-5.65963 -15.2374,-7.00516 -16.21429,-6.77786 -0.46936,0.10924 -0.85338,-0.3988 -0.85338,-1.12892 0,-0.73011 -0.32042,-1.00706 -0.71206,-0.61544 -0.65397,0.65399 -20.92149,-9.22379 -23.91483,-11.65538 -0.71559,-0.58128 -1.61164,-0.74631 -1.99122,-0.36672 -0.3796,0.37959 -0.69018,0.0626 -0.69018,-0.70447 0,-0.76706 -0.51203,-1.07819 -1.13784,-0.69141 -0.62582,0.38678 -1.13785,0.13076 -1.13785,-0.56892 0,-0.69969 -0.51203,-0.9557 -1.13784,-0.56893 -0.62582,0.38678 -1.13785,0.13076 -1.13785,-0.56892 0,-0.69968 -0.51203,-0.9557 -1.13784,-0.56892 -0.62582,0.38677 -1.13785,0.21107 -1.13785,-0.39046 0,-0.60153 -1.40808,-1.60328 -3.12907,-2.22612 -1.72099,-0.62284 -7.48133,-3.71853 -12.80076,-6.87933 -12.73829,-7.56906 -24.17481,-13.82992 -25.26272,-13.82992 -0.48044,0 -3.36999,-1.53609 -6.42124,-3.41353 -3.05123,-1.87745 -6.34445,-3.41354 -7.31826,-3.41354 -0.9738,0 -1.94123,-0.40026 -2.14985,-0.88945 -0.2086,-0.48921 -3.32345,-2.36503 -6.92188,-4.16852 -3.59844,-1.80348 -6.54261,-3.73758 -6.54261,-4.298 0,-0.56042 -0.51203,-0.70249 -1.13785,-0.31571 -0.62581,0.38678 -1.13784,0.23367 -1.13784,-0.34023 0,-0.5739 -2.43215,-2.33255 -5.40477,-3.9081 -10.20186,-5.40722 -16.78781,-9.26471 -20.29702,-11.88825 -1.93258,-1.44483 -3.85269,-2.28807 -4.26691,-1.87386 -0.41421,0.41422 -0.75312,0.12554 -0.75312,-0.64152 0,-0.76705 -0.45838,-1.11134 -1.01862,-0.76509 -0.56023,0.34624 -1.34034,-0.20886 -1.73354,-1.23355 -0.39322,-1.0247 -1.00429,-1.57376 -1.35792,-1.22011 -0.53277,0.53277 -15.34399,-8.3028 -19.21575,-11.46308 -0.62581,-0.51082 -1.63361,-1.15615 -2.23954,-1.43408 -0.60593,-0.27793 -2.39804,-1.71192 -3.98246,-3.18665 -1.58442,-1.47474 -6.42361,-4.46898 -10.75375,-6.65388 -4.33015,-2.1849 -8.59568,-4.69524 -9.47896,-5.57851 -0.88328,-0.88328 -2.07671,-1.31502 -2.65207,-0.95942 -0.57536,0.35559 -1.04611,0.10428 -1.04611,-0.55847 0,-0.66275 -0.76805,-1.205 -1.70677,-1.205 -0.93872,0 -1.70677,-0.51203 -1.70677,-1.13784 0,-0.62582 -0.44999,-1.13785 -0.99999,-1.13785 -0.54999,0 -3.97607,-1.7921 -7.61351,-3.98246 -3.63744,-2.19035 -7.53971,-3.98245 -8.6717,-3.98245 -1.13199,0 -2.05816,-0.47753 -2.05816,-1.06117 0,-1.08034 -4.4208,-2.98803 -5.97369,-2.57781 -0.46936,0.12399 -0.85339,-0.25866 -0.85339,-0.85031 0,-0.59167 -1.19767,-1.74374 -2.6615,-2.56015 -7.17343,-4.00084 -14.25856,-9.13022 -14.89219,-10.78143 -0.38868,-1.01288 -0.0253,-2.66361 0.80749,-3.66828 0.8328,-1.00468 2.11425,-3.23476 2.84765,-4.95575 1.24466,-2.92069 1.14942,-3.12908 -1.43021,-3.12908 -1.52002,0 -3.1805,0.74483 -3.68995,1.65516 -0.63224,1.12974 -1.46289,1.32413 -2.61669,0.61234 -1.23005,-0.75882 -1.89262,-4.23095 -2.43286,-12.74916 -0.40834,-6.43847 -1.02988,-13.75444 -1.38118,-16.2577 -1.37177,-9.77452 -4.46688,-50.45751 -4.3687,-57.42318 0.0571,-4.0469 -0.32522,-7.88712 -0.84948,-8.53384 -0.52427,-0.64671 -1.22349,-23.96119 -1.55383,-51.80995 -1.4899,-125.6038 -1.5491,-114.95924 0.64625,-116.19252 2.63108,-1.47805 2.52085,-2.8773 -0.28446,-3.6109 -1.25163,-0.32731 -2.27569,-1.09536 -2.27569,-1.70677 0,-1.4868 4.34428,-2.5673 4.80194,-1.19432 0.19782,0.59345 1.11842,1.23135 2.04579,1.41754 1.51487,0.30415 4.95842,1.75877 16.77516,7.08617 2.04083,0.92008 4.18158,1.38179 4.75722,1.02602 0.57564,-0.35577 1.33668,-0.17752 1.6912,0.3961 0.35451,0.57362 8.19836,5.54552 17.43076,11.04867 9.2324,5.50315 17.16236,10.5465 17.62214,11.20745 0.51777,0.7443 0.84923,0.76862 0.87081,0.0639 0.0192,-0.62582 0.52036,-0.3698 1.11376,0.56892 0.59341,0.93872 1.48162,1.70756 1.97381,1.70853 0.49219,9.7e-4 2.43098,1.08014 4.30842,2.39814 1.87745,1.318 6.74173,3.86324 10.80953,5.65608 4.0678,1.79283 7.96016,3.80142 8.6497,4.46352 0.68955,0.6621 5.55383,3.40357 10.80953,6.09215 11.6078,5.93804 13.01938,6.75877 18.08516,10.5153 2.19283,1.62608 6.54711,3.91356 9.67618,5.08329 3.12908,1.16972 7.41403,3.28819 9.52212,4.70772 2.10808,1.41953 4.28421,2.30202 4.83584,1.96109 0.55162,-0.34092 1.00295,-0.14537 1.00295,0.43457 0,1.09874 25.15182,14.17396 26.19841,13.61929 0.32829,-0.17399 1.35235,0.35051 2.27569,1.16555 2.01874,1.78198 9.28184,5.72653 28.98708,15.74275 8.13559,4.13533 15.15734,8.09589 15.60387,8.80122 0.44653,0.70532 1.21457,1.19271 1.70677,1.08305 0.49219,-0.10968 8.06331,3.56385 16.82471,8.16333 8.76141,4.59946 17.33792,8.99562 19.05891,9.76922 1.72099,0.77359 3.12907,1.86661 3.12907,2.4289 0,0.5623 0.51203,0.7059 1.13785,0.31913 0.62581,-0.38678 1.13784,-0.13076 1.13784,0.56892 0,0.69968 0.46831,0.98272 1.04066,0.62899 0.57236,-0.35374 1.2124,-0.25596 1.42231,0.21731 0.37941,0.85543 8.95129,5.60999 22.0007,12.20312 3.75489,1.89713 6.99881,3.83654 7.20872,4.30981 0.20991,0.47326 0.84995,0.57105 1.4223,0.2173 0.57236,-0.35373 1.04067,-0.0707 1.04067,0.62899 0,0.69969 0.45838,0.98886 1.01862,0.64261 0.56023,-0.34624 1.31221,0.13556 1.67105,1.07069 0.35884,0.93513 1.2147,1.70024 1.90192,1.70024 0.68721,0 2.90759,1.26471 4.93419,2.81047 3.91453,2.98576 14.36083,8.05556 15.79127,7.66384 0.46936,-0.12855 0.85338,0.27832 0.85338,0.90414 0,0.62581 0.46902,1.13784 1.04227,1.13784 0.57323,0 6.58959,3.51853 13.36968,7.81896 6.78008,4.30041 19.23982,11.27309 27.68832,15.49483 8.4485,4.22174 15.53265,8.13085 15.74256,8.6869 0.20991,0.55604 0.84994,0.72158 1.4223,0.36783 0.57236,-0.35373 1.04066,-0.0707 1.04066,0.62899 0,0.69969 0.38403,1.03966 0.85339,0.75551 0.46936,-0.28416 1.62143,0.31308 2.56015,1.32718 2.03133,2.19445 2.05016,2.31897 0.50878,3.36357 -2.88333,1.95404 -7.47848,9.42642 -7.13873,11.60862 0.35971,2.31035 0.54885,2.27538 5.81608,-1.07529 7.58611,-4.82578 8.77879,-4.59153 8.77879,1.72417 0,3.53735 0.40514,4.93705 1.27367,4.40027 0.93428,-0.57741 1.04658,5.39289 0.42146,22.4053 -0.46871,12.75584 -0.99542,30.6169 -1.17047,39.69121 -0.17505,9.07432 -0.74874,23.15515 -1.27486,31.29074 -0.52611,8.13559 -0.95657,42.2652 -0.95657,75.84359 0,33.57838 -0.31096,60.54797 -0.69102,59.93243 -0.38006,-0.61554 -0.73531,2.12103 -0.78946,6.08127 -0.14295,10.45696 -1.33381,17.70614 -3.15728,19.21948 -0.87743,0.72821 -1.31474,1.77803 -0.97178,2.33293 0.34294,0.55491 0.0813,1.00892 -0.58145,1.00892 -0.66275,0 -1.20501,-0.59737 -1.20501,-1.32749 z"
     id="path3785"
     inkscape:connector-curvature="0"
     transform="scale(0.8,0.8)" />
  <path
     style="color:#000000;fill:#cfcfcf;fill-opacity:1;fill-rule:nonzero;stroke:#c42836;stroke-width:0;stroke-linecap:square;stroke-linejoin:round;stroke-miterlimit:4;stroke-opacity:1;stroke-dasharray:none;stroke-dashoffset:0;marker:none;visibility:visible;display:inline;overflow:visible;enable-background:accumulate"
     d="m 576.65503,742.89681 c 1.3865,-34.4387 1.30213,-52.73053 -0.37393,-81.07146 -1.23116,-20.81809 -1.19061,-28.19403 0.27216,-49.49626 0.94541,-13.76793 2.23308,-37.06531 2.8615,-51.77196 0.62842,-14.70664 1.46177,-34.1638 1.85189,-43.23811 0.47174,-10.97282 1.23647,-17.34282 2.28326,-19.01888 0.86567,-1.38606 1.57394,-4.03432 1.57394,-5.88501 0,-4.49388 5.49317,-9.11356 21.18476,-17.81608 6.72012,-3.72696 13.90216,-8.44039 15.9601,-10.47429 2.05794,-2.0339 4.19719,-3.698 4.75388,-3.698 1.54533,0 22.65082,-11.12296 30.35443,-15.9973 3.75488,-2.37585 10.12455,-5.16395 14.15481,-6.19577 9.14058,-2.34015 15.11666,-5.34248 18.04551,-9.06592 1.98635,-2.52523 3.14542,-2.88246 9.49478,-2.9263 8.35841,-0.0577 13.7834,-1.73553 19.35674,-5.98651 2.77624,-2.11754 6.25585,-3.34203 11.67972,-4.11015 6.48645,-0.91859 9.66794,-2.27083 19.8378,-8.43174 13.73911,-8.32315 21.02423,-12.14307 23.16104,-12.14437 2.9375,-0.002 16.31938,-7.05073 18.53532,-9.76351 1.60095,-1.9599 5.31202,-3.64641 12.5163,-5.68809 5.63233,-1.59618 11.00865,-2.99661 11.94737,-3.11205 2.60827,-0.32077 2.72989,10.88636 0.5382,49.5931 -1.6027,28.30464 -1.8229,48.08939 -1.33943,120.34982 0.31823,47.56217 0.30788,88.49493 -0.023,90.96171 -0.55711,4.15361 -0.99034,4.61461 -5.86237,6.23828 -2.89344,0.96428 -7.0529,2.88012 -9.24325,4.25744 -9.04946,5.69039 -16.76202,9.76982 -27.30829,14.44428 -6.02371,2.66992 -15.65525,8.12013 -22.52948,12.74879 -2.69108,1.81201 -5.79035,3.29456 -6.88726,3.29456 -3.91367,0 -20.19954,9.1737 -27.13363,15.28418 -4.64922,4.09698 -8.72235,6.63234 -11.94738,7.43676 -5.23578,1.30596 -11.8783,4.35945 -17.40955,8.00296 -4.24302,2.79493 -4.01957,2.70042 -13.65414,5.77573 -4.38071,1.3983 -9.88021,3.74589 -12.22112,5.21685 -2.34092,1.47097 -8.22926,4.25051 -13.08522,6.17675 -13.8653,5.50001 -32.23519,15.68644 -37.84407,20.98521 -2.81616,2.66046 -10.2406,7.52306 -16.49875,10.80579 -6.25815,3.28273 -12.38843,6.6659 -13.62286,7.51814 -1.23442,0.85225 -2.72405,1.54954 -3.31028,1.54954 -0.66046,0 -0.68691,-9.41293 -0.0695,-24.74813 z"
     id="path3793"
     inkscape:connector-curvature="0"
     transform="scale(0.8,0.8)" />
</svg>
