<?xml version="1.0" encoding="UTF-8" standalone="no"?>
<svg
   xmlns:dc="http://purl.org/dc/elements/1.1/"
   xmlns:cc="http://creativecommons.org/ns#"
   xmlns:rdf="http://www.w3.org/1999/02/22-rdf-syntax-ns#"
   xmlns:svg="http://www.w3.org/2000/svg"
   xmlns="http://www.w3.org/2000/svg"
   xmlns:sodipodi="http://sodipodi.sourceforge.net/DTD/sodipodi-0.dtd"
   xmlns:inkscape="http://www.inkscape.org/namespaces/inkscape"
   version="1.0"
   width="880"
   height="880"
   viewBox="0 0 704 704"
   preserveAspectRatio="xMidYMid meet"
   id="svg2"
   inkscape:version="0.48.4 r9939"
   sodipodi:docname="mansard.svg">
  <defs
     id="defs20" />
  <sodipodi:namedview
     pagecolor="#ffffff"
     bordercolor="#666666"
     borderopacity="1"
     objecttolerance="10"
     gridtolerance="10"
     guidetolerance="10"
     inkscape:pageopacity="0"
     inkscape:pageshadow="2"
     inkscape:window-width="1370"
     inkscape:window-height="1057"
     id="namedview18"
     showgrid="false"
     inkscape:zoom="0.82106903"
     inkscape:cx="344.45804"
     inkscape:cy="375.68896"
     inkscape:window-x="441"
     inkscape:window-y="35"
     inkscape:window-maximized="0"
     inkscape:current-layer="svg2" />
  <metadata
     id="metadata4">
Created by potrace 1.14, written by Peter Selinger 2001-2017
<rdf:RDF>
  <cc:Work
     rdf:about="">
    <dc:format>image/svg+xml</dc:format>
    <dc:type
       rdf:resource="http://purl.org/dc/dcmitype/StillImage" />
    <dc:title />
  </cc:Work>
</rdf:RDF>
</metadata>
  <g
     id="g3002"
     transform="translate(-44.677121,3.4474594)">
    <g
       transform="translate(0,3)"
       style="fill:#cb3c32;fill-opacity:1"
       id="g3009">
      <g
         style="fill:#cb3c32;fill-opacity:1;stroke:none"
         transform="matrix(0.1,0,0,-0.1,0,701)"
         id="g6">
        <path
           inkscape:connector-curvature="0"
           style="fill:#cb3c32;fill-opacity:1"
           d="m 4880,6602 c -8,-3 -26,-13 -39,-23 -13,-11 -32,-19 -42,-19 -10,0 -25,-13 -33,-29 -8,-15 -29,-34 -46,-41 -16,-7 -30,-16 -30,-20 0,-4 -18,-18 -41,-29 -22,-12 -52,-32 -67,-46 -15,-14 -33,-25 -40,-25 -26,0 -172,-81 -172,-95 0,-8 -4,-16 -10,-16 -5,-1 -14,-2 -18,-3 -14,-2 -202,-131 -202,-139 0,-10 -110,-116 -132,-128 -13,-7 -26,-5 -44,7 -24,17 -28,17 -60,-1 -18,-10 -47,-33 -64,-51 -17,-19 -35,-34 -40,-34 -5,0 -22,-11 -37,-25 -15,-14 -34,-30 -41,-36 -8,-6 -50,-31 -95,-56 -45,-25 -95,-57 -112,-70 -43,-35 -205,-145 -239,-163 -17,-8 -54,-38 -84,-66 -30,-28 -76,-62 -103,-75 -27,-13 -49,-27 -49,-31 0,-5 -9,-8 -20,-8 -11,0 -20,-4 -20,-8 0,-4 -15,-14 -34,-20 -33,-12 -87,-48 -179,-119 -23,-17 -69,-46 -102,-64 -137,-72 -201,-119 -164,-119 5,0 7,-4 4,-10 -10,-16 -1,-12 74,30 39,22 77,40 86,40 8,0 15,5 15,10 0,6 7,10 15,10 8,0 24,9 35,20 10,10 37,31 60,45 22,14 40,29 40,33 0,9 106,82 120,82 15,0 141,67 143,76 1,5 8,8 14,8 7,-1 10,3 6,9 -4,6 0,8 9,4 10,-3 24,4 37,19 11,13 25,24 30,24 5,0 12,8 15,18 3,9 16,22 28,28 61,28 225,128 238,144 8,10 42,35 75,55 93,57 197,128 217,148 10,9 24,17 32,17 8,0 36,18 62,40 31,25 50,35 52,28 2,-7 8,-23 14,-34 12,-25 7,-72 -15,-159 -16,-64 -39,-200 -38,-225 1,-8 4,-69 7,-135 3,-66 9,-125 15,-131 20,-25 2,-181 -31,-259 -5,-11 -9,-27 -9,-35 -2,-78 -10,-144 -23,-190 -9,-30 -14,-58 -12,-62 2,-3 0,-17 -5,-31 -5,-14 -12,-65 -15,-114 -5,-75 -22,-159 -62,-301 -6,-20 -11,-23 -33,-17 -14,3 -48,10 -76,15 -47,8 -114,35 -125,50 -3,4 -30,15 -61,23 -30,9 -66,25 -78,36 -23,20 -41,26 -121,37 -25,3 -65,15 -89,26 -31,14 -57,19 -84,15 -24,-3 -64,2 -101,12 -34,10 -83,23 -111,29 -63,13 -164,40 -190,51 -71,30 -171,65 -190,66 -5,1 -35,13 -65,27 -99,48 -167,76 -199,83 -17,4 -31,10 -31,15 0,4 -8,7 -17,5 -16,-2 -89,21 -103,32 -2,3 20,27 50,54 49,46 152,106 212,124 51,16 167,86 162,99 -4,9 -30,1 -94,-31 -50,-25 -90,-47 -90,-51 0,-4 -13,-7 -29,-8 -33,-1 -90,-29 -175,-85 -66,-44 -102,-51 -93,-19 3,13 0,20 -9,20 -8,0 -14,7 -14,15 0,27 -28,16 -59,-22 -79,-98 -118,-147 -139,-176 -12,-18 -37,-48 -55,-67 -18,-19 -44,-51 -59,-70 -14,-19 -78,-91 -143,-159 -64,-68 -121,-133 -126,-145 -9,-22 -30,-57 -39,-66 -3,-3 -11,-17 -19,-33 -8,-15 -36,-41 -62,-58 -26,-16 -85,-69 -131,-117 -90,-93 -128,-125 -137,-115 -3,3 0,8 7,10 10,4 9,9 -4,24 -9,10 -21,19 -26,19 -6,0 -21,9 -35,19 -23,19 -53,19 -53,0 0,-6 -9,-19 -20,-31 -25,-27 -26,-55 -2,-62 15,-5 17,-26 18,-240 1,-129 5,-243 9,-253 4,-10 9,-38 11,-63 1,-24 7,-46 13,-48 16,-5 13,-22 -3,-22 -16,0 -26,-94 -25,-220 5,-562 5,-683 -3,-730 -5,-30 -11,-117 -14,-192 -5,-134 -5,-138 15,-138 11,0 31,5 45,11 20,10 32,8 66,-10 22,-11 46,-21 53,-21 7,0 37,-12 67,-27 30,-14 61,-25 68,-24 6,1 12,-2 12,-8 0,-14 179,-103 196,-97 7,3 13,0 11,-6 -1,-5 35,-23 80,-38 46,-16 83,-27 83,-24 0,3 12,-7 27,-21 15,-14 38,-25 51,-25 12,0 25,-7 28,-15 4,-8 12,-15 19,-15 7,0 15,-7 19,-15 3,-8 12,-15 21,-15 8,0 23,-4 33,-10 9,-5 58,-26 107,-46 50,-19 104,-41 120,-49 17,-7 41,-16 55,-20 14,-4 52,-20 85,-35 33,-15 71,-31 84,-35 13,-4 44,-20 69,-36 25,-16 53,-29 61,-29 15,0 77,-26 142,-61 20,-10 44,-19 53,-19 9,0 19,-7 22,-15 4,-8 12,-15 18,-15 7,0 38,-14 70,-31 31,-17 62,-32 69,-33 11,-3 46,-16 87,-33 8,-3 26,-8 40,-10 13,-2 27,-7 30,-11 13,-18 276,-139 304,-140 5,0 12,-4 15,-9 10,-14 150,-96 226,-132 39,-18 78,-37 87,-42 10,-5 86,-40 169,-79 103,-48 168,-85 207,-118 31,-27 65,-52 74,-55 22,-8 53,32 38,47 -21,21 -9,54 30,90 22,20 40,40 40,45 0,6 43,52 95,103 89,87 111,118 84,118 -18,0 -89,-61 -89,-76 0,-9 -5,-12 -11,-8 -6,3 -41,-23 -80,-62 -38,-37 -72,-65 -76,-60 -4,4 -8,59 -10,121 -1,63 -4,118 -6,122 -4,7 -1,1168 3,1168 1,0 3,90 5,200 3,186 7,223 34,330 6,22 8,56 5,76 -6,34 -3,38 42,73 27,20 65,47 84,60 23,15 34,29 32,41 -4,23 21,40 28,19 5,-13 12,-11 38,12 18,16 32,34 32,42 0,7 4,11 9,8 14,-9 71,49 62,63 -10,16 -41,0 -86,-45 -16,-16 -52,-46 -80,-65 -27,-19 -51,-37 -53,-41 -2,-5 -9,-8 -16,-8 -6,0 -26,-14 -44,-30 -38,-34 -85,-40 -98,-12 -10,23 -12,36 -18,203 -5,134 -37,397 -51,418 -3,6 -6,32 -6,60 -1,28 -6,48 -11,45 -5,-3 -7,11 -4,35 3,22 1,43 -3,45 -4,3 -9,43 -9,88 -2,92 -20,198 -33,198 -11,0 -11,107 0,133 3,10 18,24 31,30 38,19 34,59 -8,71 -19,5 -32,15 -32,25 0,42 201,196 345,264 35,17 171,133 268,229 37,37 78,70 90,74 12,4 35,19 50,34 16,15 49,38 75,51 26,13 49,26 52,29 3,3 23,14 45,25 22,10 54,33 70,52 17,18 59,53 95,77 48,32 64,48 62,62 -6,30 -9,29 -56,-4 -24,-18 -47,-32 -51,-32 -4,0 -30,-21 -59,-46 -28,-26 -75,-60 -103,-76 -29,-17 -53,-34 -53,-40 0,-5 -4,-7 -8,-4 -5,3 -19,-5 -33,-17 -13,-12 -49,-40 -79,-61 -30,-22 -75,-59 -100,-82 -94,-88 -113,-104 -124,-104 -6,-1 -26,-20 -45,-44 -18,-23 -50,-53 -71,-66 -22,-13 -37,-26 -35,-29 2,-4 -7,-7 -19,-7 -31,-2 -150,-61 -171,-85 -10,-10 -24,-19 -31,-19 -7,0 -17,-7 -22,-15 -13,-24 -102,-95 -118,-95 -11,0 -14,13 -13,55 1,31 6,58 11,61 4,3 6,9 4,12 -2,4 1,34 8,67 7,33 11,78 10,100 -3,40 21,178 34,199 3,6 7,27 8,46 1,19 5,60 9,90 3,30 8,71 10,90 2,19 10,59 18,88 8,29 12,64 9,79 -3,18 -1,24 7,19 6,-4 11,-1 11,8 0,9 -4,16 -9,16 -5,0 -9,12 -9,28 0,15 -3,92 -6,172 -4,87 -2,163 4,190 6,25 12,65 14,90 1,25 5,52 9,60 17,43 37,113 37,133 0,29 59,121 96,149 16,12 33,28 37,35 4,7 20,19 35,27 15,8 42,28 60,45 18,17 49,38 69,48 20,9 59,39 87,65 28,26 57,48 66,48 23,0 116,49 204,108 43,28 85,52 91,52 7,0 18,6 24,14 22,27 72,28 110,3 20,-13 54,-27 76,-31 22,-4 46,-12 52,-18 7,-6 19,-8 28,-5 8,4 17,2 20,-3 3,-5 12,-7 20,-3 8,3 15,0 15,-6 0,-6 9,-11 20,-11 10,0 23,-6 27,-13 12,-19 93,-56 109,-50 8,3 14,0 14,-6 0,-9 5,-9 21,0 12,6 19,7 15,1 -3,-6 14,-13 42,-17 64,-9 121,-29 219,-76 46,-21 87,-39 93,-39 6,0 33,-11 60,-25 28,-14 53,-26 57,-26 5,-1 24,-9 43,-19 19,-9 58,-25 85,-36 28,-10 52,-21 55,-25 9,-11 122,-69 137,-69 8,0 32,-9 53,-20 53,-27 52,-52 -2,-80 -24,-12 -54,-32 -68,-44 -46,-41 -175,-134 -210,-151 -19,-10 -38,-23 -42,-29 -4,-6 -8,-8 -8,-3 0,4 -9,-2 -20,-13 -11,-11 -28,-20 -39,-20 -10,0 -24,-7 -31,-15 -7,-8 -18,-15 -25,-15 -7,0 -45,-25 -83,-55 -39,-30 -75,-55 -80,-55 -6,0 -12,-7 -16,-15 -3,-8 -12,-15 -21,-15 -8,0 -24,-9 -35,-20 -23,-23 -120,-86 -190,-124 -25,-13 -67,-45 -95,-70 -27,-25 -71,-59 -97,-74 -27,-15 -48,-33 -48,-40 0,-8 5,-10 13,-6 8,5 7,2 -2,-9 -24,-30 -6,-28 45,5 27,18 51,35 54,38 3,3 24,20 48,39 23,18 39,38 36,43 -4,6 -2,8 3,5 6,-4 16,0 23,8 7,8 18,15 24,15 6,0 35,15 63,34 29,19 61,37 71,40 10,4 34,20 52,36 19,17 37,30 40,30 4,0 23,15 42,34 19,18 45,37 59,41 13,4 32,16 42,26 10,11 21,19 26,19 7,0 97,63 129,90 6,6 12,8 12,3 0,-4 7,2 16,13 8,10 13,14 10,8 -8,-17 65,10 115,42 28,17 40,31 36,43 -3,12 3,17 22,19 32,3 47,17 27,25 -9,4 -16,2 -16,-4 0,-6 -5,-7 -12,-3 -19,12 21,35 42,24 13,-7 22,-5 31,6 7,8 8,14 3,13 -20,-4 -26,2 -15,15 7,8 24,12 43,10 17,-2 34,0 37,4 10,15 94,43 100,35 3,-5 23,-19 43,-31 20,-13 59,-47 87,-77 27,-30 55,-55 61,-55 11,0 91,-56 121,-85 9,-8 20,-15 26,-15 5,0 25,-30 44,-67 33,-67 62,-100 145,-169 23,-19 52,-55 65,-81 13,-26 36,-65 52,-87 15,-21 27,-49 27,-62 0,-34 -76,-110 -123,-122 -45,-13 -177,-116 -177,-139 0,-15 -73,-93 -87,-93 -3,0 -29,-11 -57,-25 -53,-26 -76,-46 -123,-103 -14,-19 -41,-44 -59,-55 -88,-60 -241,-182 -259,-207 -13,-20 -29,-30 -46,-30 -25,0 -132,-59 -153,-84 -6,-7 -40,-35 -76,-62 -36,-26 -93,-71 -127,-99 -34,-27 -82,-65 -107,-83 -27,-19 -44,-38 -40,-44 4,-7 2,-8 -5,-4 -12,8 -198,-172 -194,-186 2,-4 -3,-5 -11,-2 -7,3 -29,-11 -49,-31 -19,-19 -40,-35 -47,-35 -7,0 -9,-8 -5,-22 4,-14 3,-18 -2,-11 -7,10 -18,6 -46,-13 -20,-13 -37,-29 -37,-35 0,-6 5,-7 10,-4 6,3 10,2 10,-4 0,-5 -6,-11 -12,-14 -7,-2 -10,-7 -7,-10 4,-6 43,25 112,87 9,9 21,16 26,16 5,0 18,11 29,25 11,14 25,25 31,25 6,0 61,49 122,110 63,61 123,112 138,115 32,7 103,55 109,74 3,9 0,11 -9,5 -12,-7 -12,-5 0,9 7,9 16,15 20,13 7,-5 37,15 39,27 1,4 2,12 2,17 0,6 7,10 15,10 8,0 15,4 15,9 0,5 16,15 35,21 20,7 53,27 73,46 20,20 56,46 79,60 27,16 40,30 36,40 -3,8 0,14 6,14 6,0 11,-4 11,-10 0,-15 34,-12 56,6 10,8 13,12 5,8 -9,-5 -12,-3 -7,5 4,6 12,9 17,6 5,-4 19,1 31,9 12,9 19,16 16,16 -4,0 4,11 18,25 14,14 22,30 18,37 -5,8 -2,9 10,5 17,-7 48,17 59,44 4,9 6,10 6,2 1,-17 31,-4 31,13 0,8 3,13 8,13 17,-3 32,2 32,10 0,5 20,30 45,56 25,25 42,51 39,57 -4,7 -2,8 5,4 6,-4 23,1 39,12 15,10 53,32 84,47 31,16 55,32 53,36 -3,4 7,10 21,13 18,5 24,12 20,22 -3,9 -1,12 4,9 6,-3 10,-1 10,4 0,6 7,11 15,11 9,0 19,8 23,19 9,23 68,91 80,91 4,0 23,11 42,25 19,14 41,25 49,25 9,0 27,9 41,20 14,11 32,20 41,20 40,0 43,-23 41,-320 0,-74 1,-157 2,-185 0,-27 -2,-117 -6,-200 -5,-82 -10,-193 -12,-245 -3,-52 -10,-117 -16,-145 -7,-30 -11,-119 -9,-225 2,-96 2,-213 1,-260 l -3,-85 -52,-54 c -28,-30 -75,-71 -104,-93 -29,-21 -53,-43 -53,-49 0,-6 5,-7 10,-4 6,3 10,1 10,-5 0,-7 -7,-9 -16,-6 -19,7 -70,-30 -139,-101 -27,-29 -62,-57 -77,-62 -18,-7 -26,-16 -22,-25 3,-8 -7,-23 -26,-36 -52,-37 -27,-33 38,6 34,20 81,55 104,77 120,117 309,268 329,263 28,-6 47,13 54,56 4,24 14,53 23,66 14,21 13,25 -7,46 -11,12 -21,32 -21,44 0,12 -3,22 -7,22 -5,0 -8,29 -8,64 0,35 3,62 7,60 4,-2 5,49 4,113 -2,65 1,156 6,203 5,47 11,112 12,146 1,33 6,65 9,71 4,6 3,13 -2,15 -4,1 -5,27 -1,56 3,29 3,55 -1,58 -4,2 -1,17 7,32 16,32 18,58 4,67 -13,8 -9,54 5,49 12,-5 18,65 10,124 -4,26 -10,40 -17,36 -6,-4 -8,4 -4,22 3,16 8,121 11,234 4,113 8,213 11,222 3,9 17,18 32,20 17,2 27,9 27,20 0,9 3,20 7,24 7,7 -27,63 -46,76 -6,4 -20,5 -32,2 -23,-6 -46,20 -77,87 -9,20 -23,42 -32,49 -8,7 -15,19 -15,26 0,15 -39,64 -51,64 -32,0 -149,124 -149,158 0,18 -86,94 -228,201 -18,13 -32,28 -32,33 0,5 -16,22 -35,39 -37,33 -43,57 -25,105 16,41 -7,61 -51,45 -27,-9 -35,-8 -52,6 -15,13 -21,15 -24,6 -5,-15 -53,-18 -53,-3 0,6 -9,10 -19,10 -11,0 -23,5 -26,10 -3,6 -16,10 -27,10 -12,0 -35,11 -52,24 -17,12 -39,22 -48,20 -10,-1 -15,3 -12,11 3,8 -24,23 -78,44 -46,18 -96,39 -111,47 -15,9 -34,13 -42,10 -8,-3 -14,0 -12,6 1,6 -20,17 -48,23 -57,14 -125,46 -144,69 -8,9 -21,16 -31,16 -10,0 -23,6 -29,14 -7,8 -45,16 -104,20 -89,7 -187,32 -187,48 0,4 -5,8 -12,8 -6,0 -19,6 -27,14 -14,13 -140,56 -162,56 -5,0 -9,-9 -9,-21 0,-11 -4,-17 -10,-14 -5,3 -10,17 -10,31 0,14 -7,27 -16,31 -11,4 -15,17 -12,47 1,22 -2,40 -7,38 -5,-2 -12,3 -15,11 -3,8 -12,12 -20,9 z M 1945,4691 c 7,-13 44,-11 74,3 19,8 25,8 28,-1 3,-9 10,-10 23,-3 12,7 34,4 73,-10 31,-11 63,-20 70,-20 7,0 32,-9 55,-20 22,-11 48,-20 57,-20 9,0 47,-18 86,-40 39,-22 78,-40 87,-40 25,0 154,-35 177,-48 33,-17 148,-55 180,-58 17,-2 60,-13 96,-24 40,-12 93,-19 133,-19 44,1 74,-4 89,-14 13,-8 58,-21 101,-27 43,-7 84,-19 92,-27 7,-8 23,-15 33,-16 11,0 18,-4 16,-8 -3,-3 6,-11 19,-17 17,-8 27,-7 35,1 10,9 12,9 9,-3 -2,-8 10,-18 30,-25 18,-6 42,-19 53,-28 10,-9 26,-17 34,-17 7,0 17,-4 20,-10 3,-5 21,-10 40,-10 43,0 83,-18 90,-41 3,-10 16,-19 28,-21 19,-3 22,-10 25,-62 2,-32 9,-68 16,-80 8,-11 17,-46 20,-76 4,-30 13,-77 21,-105 8,-27 16,-93 19,-145 2,-52 9,-115 14,-140 6,-25 16,-72 22,-105 7,-33 16,-73 21,-90 5,-16 8,-43 8,-60 -1,-16 1,-144 4,-283 5,-281 6,-278 -57,-248 -19,9 -47,16 -63,16 -40,0 -327,95 -379,125 -32,19 -44,21 -54,12 -10,-9 -11,-9 -6,1 4,7 0,14 -11,18 -10,3 -27,9 -38,14 -11,5 -27,11 -35,14 -8,3 -22,10 -30,15 -8,5 -35,15 -60,22 -25,7 -48,18 -52,25 -17,26 -189,100 -203,86 -3,-4 -9,-2 -13,3 -11,16 -155,84 -187,88 -17,3 -60,16 -95,30 -36,14 -81,29 -100,33 -41,9 -37,8 -77,25 -18,7 -33,17 -33,21 0,4 -9,8 -20,8 -11,0 -20,4 -20,8 0,4 -24,16 -52,26 -29,11 -57,23 -62,27 -6,5 -20,9 -32,9 -13,0 -29,7 -38,15 -8,8 -21,15 -29,15 -8,0 -31,7 -51,15 -20,8 -37,15 -38,14 -16,-4 -148,46 -183,70 -45,30 -96,55 -108,53 -4,-1 -23,5 -43,13 -20,8 -53,16 -75,17 -21,2 -39,6 -39,10 0,4 -6,5 -14,2 -8,-3 -25,0 -38,7 -13,7 -26,12 -30,11 -5,-1 -8,2 -8,7 0,4 -37,22 -82,39 -257,96 -339,124 -345,119 -9,-10 -43,12 -43,29 0,28 54,99 138,181 46,46 97,91 113,100 16,9 40,40 54,68 13,27 40,63 60,78 19,16 33,32 30,37 -3,5 8,19 25,31 16,13 30,29 30,36 0,7 4,13 9,13 12,0 61,44 61,54 0,4 17,25 38,47 20,21 57,66 82,99 25,34 60,76 79,93 19,18 41,40 50,50 16,18 66,23 76,8 z m -820,-958 c 44,-13 104,-36 133,-50 29,-13 59,-22 67,-19 8,3 17,1 21,-5 3,-6 12,-8 20,-5 8,3 14,1 14,-4 0,-6 9,-10 19,-10 11,0 21,-4 23,-10 2,-5 13,-11 25,-13 12,-2 26,-6 29,-10 4,-4 16,-7 26,-7 10,0 36,-9 57,-19 21,-11 84,-32 141,-46 56,-14 136,-42 179,-61 42,-20 85,-40 96,-45 31,-13 183,-69 250,-91 33,-11 65,-25 70,-31 6,-7 44,-25 85,-40 41,-16 83,-32 92,-38 10,-5 26,-9 35,-9 10,0 32,-9 49,-19 17,-10 80,-33 140,-51 109,-33 144,-46 219,-82 22,-11 72,-31 112,-44 39,-14 97,-40 128,-58 31,-19 104,-53 163,-76 59,-24 138,-58 175,-76 37,-19 80,-34 95,-34 15,0 69,-18 121,-40 52,-21 98,-37 102,-34 4,2 34,-12 67,-31 33,-19 69,-35 80,-35 17,0 21,-8 26,-52 3,-29 4,-69 1,-88 -8,-59 -4,-194 5,-200 6,-4 5,-20 -1,-41 -8,-22 -13,-189 -15,-494 -1,-253 -3,-482 -4,-510 -1,-27 -1,-133 -1,-235 1,-250 -6,-370 -22,-386 -12,-12 -97,16 -150,49 -28,18 -81,44 -117,56 -73,26 -230,101 -335,160 -122,68 -167,91 -176,91 -14,0 -214,94 -217,102 -2,5 -10,8 -17,8 -7,0 -15,4 -17,8 -1,5 -43,22 -93,39 -94,33 -216,92 -248,121 -11,9 -21,16 -23,14 -2,-1 -19,4 -37,12 -78,33 -228,101 -302,135 -78,37 -205,88 -375,151 -47,18 -91,37 -98,42 -15,13 -54,34 -150,83 -83,41 -167,69 -187,61 -9,-3 -12,0 -9,8 3,8 -10,19 -33,29 -21,9 -72,35 -113,57 -41,22 -77,41 -80,41 -9,1 -115,50 -150,69 -19,11 -34,25 -34,32 3,27 13,64 23,92 14,36 7,46 -10,14 -14,-27 -30,-39 -41,-32 -11,7 -4,327 7,344 5,8 4,15 -1,17 -5,2 -8,24 -7,50 1,26 -2,54 -7,62 -5,9 -4,24 2,36 13,24 10,236 -3,249 -9,9 0,266 11,319 12,59 11,179 -2,171 -9,-6 -12,40 -9,121 2,28 3,105 5,172 1,84 6,126 16,138 15,18 31,16 155,-22 z"
           id="path8" />
        <path
           inkscape:connector-curvature="0"
           style="fill:#cb3c32;fill-opacity:1"
           d="m 5025,3599 c -22,-22 -79,-70 -127,-107 -49,-36 -88,-69 -88,-73 0,-4 -14,-22 -30,-39 -43,-46 -23,-63 22,-20 18,18 32,37 30,42 -1,5 7,7 18,3 16,-5 33,7 79,52 32,32 62,69 66,82 6,18 9,21 16,10 7,-11 10,-9 15,8 4,13 10,21 14,18 13,-8 40,24 40,46 0,28 -11,24 -55,-22 z"
           id="path10" />
        <path
           inkscape:connector-curvature="0"
           style="fill:#cb3c32;fill-opacity:1"
           d="m 6356,2879 c -32,-27 -61,-49 -66,-49 -4,0 -28,-17 -52,-37 -23,-20 -34,-33 -24,-30 16,6 17,5 6,-8 -7,-8 -16,-13 -20,-10 -8,5 -50,-25 -95,-67 -17,-16 -34,-28 -38,-28 -5,0 -6,-7 -3,-16 3,-8 2,-12 -4,-9 -11,7 -110,-74 -110,-89 0,-6 13,2 28,17 15,15 32,27 38,27 5,0 -2,-9 -16,-20 -19,-15 -21,-20 -9,-20 16,0 34,26 31,42 -1,4 5,5 13,2 10,-4 15,0 15,11 0,9 4,14 9,10 6,-3 18,3 28,13 46,46 154,133 206,167 33,21 56,42 54,49 -3,8 3,12 17,12 16,-1 21,5 21,22 0,15 9,28 24,36 13,7 20,16 14,19 -5,3 -35,-17 -67,-44 z"
           id="path12" />
        <path
           inkscape:connector-curvature="0"
           style="fill:#cb3c32;fill-opacity:1"
           d="m 5966,2533 c -4,-4 -15,-8 -24,-8 -9,0 -16,-6 -14,-12 1,-7 -3,-12 -10,-10 -6,1 -14,-9 -18,-23 -4,-18 -13,-25 -30,-25 -14,0 -24,-5 -23,-12 2,-7 -4,-10 -13,-6 -13,5 -15,2 -10,-15 6,-17 2,-21 -21,-24 -22,-2 -29,-9 -31,-30 -2,-16 -8,-28 -13,-28 -6,0 -7,5 -4,10 3,6 2,10 -3,10 -5,0 -20,-15 -32,-32 -12,-18 -44,-51 -71,-73 -31,-26 -44,-42 -36,-47 13,-8 13,-8 -20,-12 -12,-1 -33,-14 -45,-27 -65,-69 -79,-88 -83,-109 -3,-13 -12,-31 -22,-39 -16,-15 -16,-15 -4,2 24,30 2,32 -25,1 -15,-16 -38,-42 -53,-57 -18,-20 -22,-30 -14,-35 9,-5 2,-14 -20,-26 l -32,-18 25,21 c 14,11 20,21 14,21 -7,0 -40,-27 -75,-61 -35,-33 -55,-58 -45,-55 16,5 17,4 6,-8 -6,-9 -17,-14 -23,-13 -6,1 -12,-6 -13,-16 -2,-15 -1,-15 3,-1 4,12 7,13 12,5 11,-17 286,252 278,273 -3,8 -2,18 3,21 6,4 10,2 10,-4 0,-6 10,0 23,12 28,27 25,38 -3,12 -11,-10 -20,-14 -20,-8 0,14 39,48 46,40 4,-3 31,14 60,39 36,31 51,51 47,62 -4,14 -3,15 6,2 9,-12 17,-8 55,29 28,28 42,49 38,59 -3,9 -1,13 5,9 6,-4 26,10 45,31 20,20 50,48 68,62 44,34 122,111 117,116 -2,2 -7,1 -11,-3 z"
           id="path14" />
        <path
           inkscape:connector-curvature="0"
           style="fill:#cb3c32;fill-opacity:1"
           d="m 4825,1467 c -27,-36 -32,-53 -13,-41 7,4 8,3 4,-4 -4,-6 -12,-9 -19,-6 -8,3 -30,-19 -52,-49 -23,-32 -54,-61 -79,-72 -51,-25 -98,-64 -91,-76 4,-5 -1,-6 -9,-3 -9,3 -21,-5 -33,-23 -9,-15 -22,-31 -28,-35 -5,-4 -11,-13 -11,-20 -1,-7 -2,-19 -3,-25 0,-7 -5,-13 -11,-13 -5,0 -7,7 -4,15 9,23 -4,18 -17,-6 -8,-15 -8,-19 0,-15 6,4 11,1 11,-6 0,-7 32,20 70,61 66,69 83,90 60,76 -5,-3 -7,0 -4,9 3,8 12,12 20,9 22,-8 129,48 112,58 -9,6 -6,9 11,9 18,0 22,4 18,19 -3,14 -1,18 9,14 8,-3 14,-1 14,5 0,6 -6,13 -12,15 -7,3 -3,6 9,6 17,1 21,5 16,18 -4,10 -2,14 4,10 5,-3 20,5 33,20 16,19 18,24 6,20 -22,-9 -20,6 3,27 14,13 20,14 23,5 2,-7 7,-9 10,-4 3,6 0,16 -8,22 -11,11 -18,7 -39,-20 z"
           id="path16" />
      </g>
      <path
         style="color:#000000;fill:#cb3c32;fill-opacity:1;fill-rule:nonzero;stroke:#c42836;stroke-width:0;stroke-linecap:square;stroke-linejoin:round;stroke-miterlimit:4;stroke-opacity:1;stroke-dasharray:none;stroke-dashoffset:0;marker:none;visibility:visible;display:inline;overflow:visible;enable-background:accumulate"
         id="path2997"
         d="m 306.82933,247.5513 c 2.63486,-1.96493 5.32751,-3.97532 8.46743,-5.07057 0.75737,-0.41297 1.59449,-0.60912 2.35558,-1.00487 0,0 -3.81444,3.03417 -3.81444,3.03417 l 0,0 c -0.78748,0.32725 -1.58903,0.6182 -2.36687,0.96941 -1.92896,0.80345 -0.98381,0.44862 2.71288,-1.73031 0.24826,-0.14633 -0.50098,0.28583 -0.74131,0.44486 -0.99793,0.66039 -0.47012,0.38238 -1.42677,1.09567 -0.21298,0.1588 -0.44058,0.29698 -0.66087,0.44547 0,0 -4.52563,1.81617 -4.52563,1.81617 z"
         inkscape:connector-curvature="0"
         transform="scale(0.8,0.8)" />
      <path
         style="color:#000000;fill:#cb3c32;fill-opacity:1;fill-rule:nonzero;stroke:#c42836;stroke-width:0;stroke-linecap:square;stroke-linejoin:round;stroke-miterlimit:4;stroke-opacity:1;stroke-dasharray:none;stroke-dashoffset:0;marker:none;visibility:visible;display:inline;overflow:visible;enable-background:accumulate"
         id="path2999"
         d="m 622.68926,239.12128 c 2.06324,-0.19036 4.12171,-0.33238 6.10579,-0.96179 1.05867,-0.34476 0.52635,-0.12582 1.45794,-0.59528 0.20415,-0.10288 0.81164,-0.42056 0.61363,-0.3063 -6.58261,3.79822 -4.0994,2.46325 -2.7537,1.40811 0.84304,-0.59689 1.36992,-1.47831 1.97425,-2.29158 0.48727,-0.58998 1.10373,-1.04179 1.62847,-1.59574 0,0 4.48837,-1.90097 4.48837,-1.90097 l 0,0 c -0.47716,0.61916 -1.06162,1.05612 -1.62855,1.58361 -0.68457,0.76602 -1.08324,1.76882 -1.94555,2.36863 -2.09529,2.03655 -4.92368,3.35653 -7.67923,4.29237 -2.02098,0.53572 -4.09337,0.66715 -6.16263,0.91879 0,0 3.90121,-2.91985 3.90121,-2.91985 z"
         inkscape:connector-curvature="0"
         transform="scale(0.8,0.8)" />
      <path
         style="color:#000000;fill:#cb3c32;fill-opacity:1;fill-rule:nonzero;stroke:#c42836;stroke-width:0;stroke-linecap:square;stroke-linejoin:round;stroke-miterlimit:4;stroke-opacity:1;stroke-dasharray:none;stroke-dashoffset:0;marker:none;visibility:visible;display:inline;overflow:visible;enable-background:accumulate"
         id="path3001"
         d="m 541.94967,499.18763 c 4.35087,-4.21842 9.36162,-7.68178 14.18918,-11.32193 4.19947,-3.41267 8.25221,-7.07202 11.56909,-11.36552 1.00027,-1.19039 1.26328,-2.7807 2.04043,-4.08752 0.45765,-0.76959 0.6857,-0.895 1.34276,-1.51636 2.39619,-1.63849 2.3011,-1.61402 6.37649,-3.76306 0.47242,-0.24912 1.00553,-0.36073 1.50339,-0.55408 1.86573,-0.72459 3.70048,-1.52877 5.53568,-2.3263 1.70602,-0.76464 3.28838,-1.7623 4.92942,-2.64975 0.42319,-0.22885 1.69158,-0.91588 1.28057,-0.66581 -1.02063,0.62097 -4.14353,2.38063 -3.11107,1.77953 1.66339,-0.96843 3.33594,-1.92104 5.00391,-2.88156 -1.15578,0.64966 -2.30044,1.31952 -3.46735,1.94896 -0.20696,0.11164 0.38238,-0.27491 0.58502,-0.39421 1.56546,-0.92166 3.12978,-1.84606 4.718,-2.72792 0.52029,-0.28889 1.19967,-0.48233 1.75992,-0.68522 1.49969,-0.84456 4.2836,-2.14415 -2.65323,1.54004 -0.29909,0.15885 0.49078,-0.47124 0.69314,-0.74278 0,0 4.46116,-1.96942 4.46116,-1.96942 l 0,0 c -1.21091,2.33268 -4.07567,3.03696 -6.33397,4.17597 -0.45713,0.18292 -0.7261,0.28508 -1.1746,0.48619 -0.18198,0.0816 -0.71213,0.35777 -0.54145,0.25459 1.19007,-0.71935 2.3934,-1.41679 3.60198,-2.10459 0.20611,-0.1173 -0.39035,0.26998 -0.59344,0.39243 -1.60306,0.96649 -3.21627,1.91602 -4.82441,2.87403 1.09289,-0.63364 4.37642,-2.52612 3.27868,-1.90091 -3.75131,2.13653 -7.46618,4.36491 -11.36146,6.23574 -1.84868,0.79764 -3.70552,1.56795 -5.5688,2.33056 -0.4927,0.20166 -1.89661,0.9369 -1.47554,0.61115 0.89295,-0.69081 1.93989,-1.15555 2.91491,-1.72468 0.35341,-0.20629 -0.69998,0.42406 -1.04996,0.63609 -0.52711,0.42984 -1.02251,0.76453 -1.4106,1.33495 -0.87519,1.28635 -1.03168,2.9843 -2.04921,4.1985 -3.31245,4.36583 -7.42283,8.04922 -11.63245,11.53066 -4.77037,3.60503 -9.71578,7.03007 -14.05927,11.15743 0,0 -4.47692,1.8948 -4.47692,1.8948 z"
         inkscape:connector-curvature="0"
         transform="scale(0.8,0.8)" />
      <path
         style="color:#000000;fill:#cb3c32;fill-opacity:1;fill-rule:nonzero;stroke:#c42836;stroke-width:0;stroke-linecap:square;stroke-linejoin:round;stroke-miterlimit:4;stroke-opacity:1;stroke-dasharray:none;stroke-dashoffset:0;marker:none;visibility:visible;display:inline;overflow:visible;enable-background:accumulate"
         id="path3003"
         d="m 630.93553,425.73956 c 1.40579,-1.0114 2.78089,-2.05932 4.10165,-3.17897 0.89934,-0.9039 1.62012,-1.87159 2.72056,-2.54454 1.97317,-2.25744 3.82389,-2.10081 5.90919,-3.13747 0,0 -3.81473,3.0303 -3.81473,3.0303 l 0,0 c -1.58152,0.66601 -4.39413,1.88004 2.45256,-1.64308 -1.33695,0.75949 -1.78683,1.27181 -2.76126,2.47542 -1.33321,1.09606 -2.64363,2.22197 -4.08235,3.18217 0,0 -4.52562,1.81617 -4.52562,1.81617 z"
         inkscape:connector-curvature="0"
         transform="scale(0.8,0.8)" />
      <path
         style="color:#000000;fill:#cb3c32;fill-opacity:1;fill-rule:nonzero;stroke:#c42836;stroke-width:0;stroke-linecap:square;stroke-linejoin:round;stroke-miterlimit:4;stroke-opacity:1;stroke-dasharray:none;stroke-dashoffset:0;marker:none;visibility:visible;display:inline;overflow:visible;enable-background:accumulate"
         id="path3005"
         d="m 602.87438,690.91736 c 2.28654,-1.65035 4.72241,-3.08949 7.14722,-4.5268 3.15459,-2.05274 6.33887,-4.06449 9.76466,-5.63771 0.2492,-0.0978 0.5045,-0.18122 0.7476,-0.29329 0.4165,-0.19203 0.81762,-0.41602 1.22091,-0.63444 0.19581,-0.10605 0.76943,-0.44869 0.57541,-0.3394 -3.6844,2.07544 -4.69268,2.83749 -2.9475,1.57755 1.72745,-1.3083 3.21458,-2.87931 4.73741,-4.41148 2.1691,-2.09087 4.53695,-3.96486 6.53539,-6.22573 1.33018,-1.53072 2.53077,-3.15543 4.05332,-4.50482 1.39786,-1.24793 3.06803,-2.11294 4.59732,-3.17455 1.0318,-0.97961 2.04145,-1.95891 3.21347,-2.77173 2.54034,-1.90301 9.94004,-5.43505 1.84899,-1.13307 -0.18495,0.0983 0.33093,-0.25709 0.49139,-0.39174 1.0654,-0.89405 -0.15725,0.0756 0.91567,-0.76193 0.83588,-0.62161 1.5256,-1.4104 1.95103,-2.3611 0.40139,-1.11309 1.0834,-2.08314 1.83535,-2.9845 0.55489,-0.49613 0.25919,-0.25839 0.89031,-0.70923 0,0 4.53617,-1.78075 4.53617,-1.78075 l 0,0 c -0.63585,0.41459 -0.32587,0.21331 -0.92983,0.60402 -0.8044,0.79902 -1.47216,1.77336 -1.90829,2.8195 -0.35433,1.04939 -0.99993,1.90356 -1.84231,2.62051 -0.50568,0.33261 -0.93694,0.88516 -1.4054,1.17745 -3.31808,2.07024 -8.24128,4.75235 -1.2285,0.73646 0.21321,-0.12209 -0.41437,0.26411 -0.62156,0.39617 -1.21902,0.74489 -2.27804,1.68676 -3.23081,2.75099 -1.47804,1.13174 -3.20632,1.90416 -4.61144,3.14381 -1.59569,1.27571 -2.77947,2.90833 -4.10769,4.44451 -1.95569,2.31225 -4.33163,4.18659 -6.52969,6.25933 -1.52003,1.5335 -2.97521,3.11862 -4.67272,4.46061 -2.38746,1.86907 -5.14633,3.28321 -7.91678,4.5079 -1.50597,0.69041 -4.63211,2.39373 1.70109,-1.16988 0.32957,-0.18544 -0.6414,0.40091 -0.95699,0.60926 -2.40459,1.58745 0.36649,-0.17503 -2.21169,1.44617 -2.40512,1.42562 -4.81919,2.847 -7.11588,4.44174 0,0 -4.52563,1.81617 -4.52563,1.81617 z"
         inkscape:connector-curvature="0"
         transform="scale(0.8,0.8)" />
      <path
         style="color:#000000;fill:#cb3c32;fill-opacity:1;fill-rule:nonzero;stroke:#c42836;stroke-width:0;stroke-linecap:square;stroke-linejoin:round;stroke-miterlimit:4;stroke-opacity:1;stroke-dasharray:none;stroke-dashoffset:0;marker:none;visibility:visible;display:inline;overflow:visible;enable-background:accumulate"
         id="path3007"
         d="m 529.94671,765.78888 c 1.64217,-2.86615 3.2963,-5.71875 5.0862,-8.4977 1.55605,-2.52568 3.05047,-5.09373 4.86915,-7.44223 1.21766,-1.70784 2.65355,-3.2377 4.07058,-4.77853 3.25062,-3.06048 7.29786,-5.13813 11.28254,-7.07338 4.01974,-1.76874 -1.7399,0.74088 1.91645,-0.77779 0.25131,-0.10439 0.97273,-0.48678 0.7378,-0.34946 -6.32857,3.69918 -3.86916,2.46324 -2.64825,1.15771 0.35507,-0.49331 0.79733,-0.87904 1.27623,-1.24337 0,0 4.54011,-1.77377 4.54011,-1.77377 l 0,0 c -0.52285,0.29503 -0.98733,0.6046 -1.33458,1.11268 -1.95395,2.6246 -5.38852,3.56201 -8.26455,4.88683 -2.30333,1.10844 -0.99539,0.52644 1.74318,-1.22414 0.4141,-0.2647 -0.85598,0.48393 -1.27171,0.74606 -0.77926,0.49136 -1.75669,1.18304 -2.47649,1.76434 -0.35863,0.28963 -0.6961,0.60451 -1.04415,0.90676 -1.41449,1.53425 -2.86019,3.04911 -4.08227,4.74405 -1.86833,2.31384 -3.38209,4.87458 -4.91978,7.41509 -1.80106,2.75562 -3.50061,5.56817 -5.01743,8.49125 0,0 -4.46303,1.9356 -4.46303,1.9356 z"
         inkscape:connector-curvature="0"
         transform="scale(0.8,0.8)" />
    </g>
    <path
       inkscape:connector-curvature="0"
       id="path3803"
       d="m 401.64306,624.38273 c -0.96294,-12.42139 -0.58122,-140.17535 0.47877,-160.23544 0.46877,-8.87131 1.30011,-17.65773 1.84741,-19.52538 0.54731,-1.86764 1.22978,-6.44612 1.5166,-10.17441 l 0.5215,-6.77868 7.2159,-5.33955 c 4.43218,-3.27967 7.53025,-6.23205 8.03076,-7.65311 1.10821,-3.14645 1.08508,-3.13048 2.65161,-1.83038 1.20933,1.00365 1.80858,0.69568 4.72029,-2.42582 1.83432,-1.96647 3.66376,-3.57541 4.06544,-3.57541 0.85504,0 5.99978,-5.69932 5.99978,-6.64653 0,-0.35472 2.0056,-2.15184 4.45688,-3.9936 6.20027,-4.65853 14.17924,-12.29151 15.49988,-14.82776 0.74376,-1.42836 4.32929,-3.74029 10.96571,-7.07061 6.63753,-3.33087 10.61806,-5.8976 12.17793,-7.85258 1.32978,-1.66658 3.08534,-2.90428 4.1195,-2.90429 1.85302,-3e-5 13.90302,-11.85351 13.90302,-13.67628 0,-0.51547 0.55347,-0.72482 1.22994,-0.46524 0.74416,0.28556 1.43734,-0.1815 1.75507,-1.18256 0.28881,-0.91 1.06361,-1.65454 1.72174,-1.65454 0.65814,0 1.82239,-0.95505 2.58722,-2.12233 0.76483,-1.16727 1.82419,-2.13605 2.35413,-2.15285 0.52993,-0.0168 1.9554,-0.87633 3.16771,-1.91008 3.79451,-3.23568 14.59657,-11.98855 16.98709,-13.76458 1.25692,-0.93382 6.75284,-5.81715 12.21317,-10.85182 5.54309,-5.111 12.04861,-10.25265 14.72959,-11.6416 6.07824,-3.14895 8.66311,-5.20284 8.94235,-7.10542 0.1212,-0.82575 1.11173,-1.95318 2.20119,-2.50539 1.08946,-0.55222 2.40034,-1.76224 2.91308,-2.68896 1.1625,-2.10106 3.04082,-3.56617 8.72349,-6.80435 6.81613,-3.8841 17.25219,-12.23206 17.25219,-13.80029 0,-1.08543 0.22638,-1.16918 1.01872,-0.37684 1.51914,1.51913 4.67669,1.23091 5.93682,-0.54193 0.61011,-0.85835 2.10306,-1.80642 3.31766,-2.10682 2.14567,-0.53068 6.70539,-6.00538 6.70539,-8.05095 0,-0.55854 0.94624,-1.01553 2.10276,-1.01553 1.29228,0 2.62579,-0.79826 3.45979,-2.07109 0.74636,-1.13911 1.87192,-1.87351 2.50124,-1.63202 0.62932,0.2415 1.56898,-0.35458 2.08812,-1.32462 0.51916,-0.97003 1.69451,-1.76371 2.6119,-1.76371 0.9174,0 1.66799,-0.32257 1.66799,-0.71684 0,-0.39426 1.87064,-2.85452 4.15698,-5.46725 2.28633,-2.61272 4.29193,-5.05978 4.45687,-5.43789 0.16496,-0.37812 4.03614,-2.58991 8.60266,-4.9151 4.56651,-2.32517 10.0296,-5.85884 12.14022,-7.85259 2.11061,-1.99375 4.169,-3.625 4.57418,-3.625 0.4052,0 1.50786,-1.24156 2.45036,-2.75901 0.94251,-1.51747 3.17905,-4.18444 4.97012,-5.92663 3.63312,-3.53398 19.26642,-11.82921 21.02308,-11.15511 0.62036,0.23806 1.36475,1.26594 1.65418,2.28419 2.00282,7.04609 0.99262,79.04214 -1.37068,97.68742 -0.47993,3.78642 -1.11716,20.17736 -1.41606,36.42429 l -0.54345,29.53988 -6.79143,6.55341 c -3.73529,3.60438 -8.51052,7.96666 -10.61162,9.69396 -3.15398,2.59287 -3.59812,3.2914 -2.54679,4.00563 1.03228,0.70128 0.8867,0.86754 -0.7688,0.87808 -2.37543,0.0151 -5.95572,2.58557 -13.72319,9.85249 -3.06802,2.87032 -6.42897,5.67406 -7.46876,6.23055 -1.0398,0.55648 -2.24205,1.93631 -2.67166,3.06628 -0.46998,1.23613 -1.24646,1.87592 -1.94934,1.6062 -0.64254,-0.24656 -4.37944,1.933 -8.30425,4.84348 -3.92481,2.91048 -8.40342,6.21481 -9.95247,7.34296 -1.54905,1.12815 -2.62504,2.55001 -2.39107,3.15972 0.24849,0.64755 -0.36867,1.30782 -1.48413,1.58778 -2.53655,0.63664 -14.10712,9.83355 -14.10712,11.21311 0,0.59556 -0.83663,1.34839 -1.85918,1.67295 -2.11057,0.66986 -12.62059,10.8733 -14.15691,13.74393 -0.55632,1.0395 -1.95552,2.12694 -3.10931,2.41652 -1.15381,0.28959 -2.09783,0.86712 -2.09783,1.28342 0,0.41629 -0.57303,0.7569 -1.27339,0.7569 -0.70037,0 -1.2734,0.68028 -1.2734,1.51174 0,0.90013 -1.03035,1.90066 -2.54678,2.47305 -1.40074,0.52872 -2.5468,1.56752 -2.5468,2.30844 0,0.74092 -0.47752,1.34972 -1.06116,1.35288 -1.55749,0.008 -15.3574,14.12074 -14.75742,15.09152 0.28066,0.45411 -0.57242,1.04222 -1.89573,1.30688 -2.83553,0.56711 -9.98229,7.66406 -12.42268,12.33609 -0.93382,1.78778 -2.12141,3.10608 -2.63909,2.92956 -1.45532,-0.49623 -10.54044,9.73385 -9.96837,11.22463 0.34517,0.8995 0.093,1.11796 -0.86581,0.75003 -1.51786,-0.58246 -12.41908,9.28912 -12.41908,11.24606 0,0.62635 -0.37221,1.13883 -0.82713,1.13883 -0.45493,0 -1.37589,1.05055 -2.04658,2.33456 -0.6707,1.284 -3.07815,3.74303 -5.3499,5.46449 -2.27174,1.72147 -7.15025,6.01567 -10.84112,9.54265 -3.69089,3.52699 -9.50379,8.01081 -12.91759,9.96402 -3.41379,1.95323 -6.03124,3.72698 -5.81654,3.94168 0.21469,0.21469 -0.36117,1.34576 -1.2797,2.51348 -0.91853,1.16772 -1.67017,2.35812 -1.6703,2.64534 -6.5e-4,1.39371 -11.17988,12.15434 -15.41,14.83298 -2.63924,1.67124 -5.51974,3.91024 -6.4011,4.97555 -0.88136,1.0653 -2.35114,2.35378 -3.2662,2.86329 -0.91506,0.5095 -2.80978,2.49334 -4.21052,4.40852 -1.40074,1.91519 -3.28047,3.74135 -4.17719,4.05813 -2.51039,0.88686 -10.4193,6.11197 -12.46398,8.23447 -1.00557,1.04384 -3.56098,4.57201 -5.6787,7.8404 -4.36361,6.73455 -9.70398,12.93123 -12.88203,14.9476 -1.18305,0.75061 -4.55305,3.52024 -7.4889,6.15474 -2.93584,2.6345 -5.4777,4.79 -5.64858,4.79 -0.17088,0 -0.62904,-4.1067 -1.01816,-9.12599 z"
       style="color:#000000;fill:#cfcfcf;fill-opacity:1;fill-rule:nonzero;stroke:#c42836;stroke-width:0;stroke-linecap:square;stroke-linejoin:round;stroke-miterlimit:4;stroke-opacity:1;stroke-dasharray:none;stroke-dashoffset:0;marker:none;visibility:visible;display:inline;overflow:visible;enable-background:accumulate" />
    <path
       inkscape:connector-curvature="0"
       id="path3805"
       d="m 388.60428,639.50198 c -1.16727,-0.35872 -5.35121,-2.27908 -9.29762,-4.26744 -3.9464,-1.98836 -11.95176,-5.6751 -17.78964,-8.19274 -5.8379,-2.51765 -17.451,-8.21304 -25.80689,-12.65643 -8.3559,-4.44339 -18.87843,-9.63889 -23.38343,-11.54556 -4.505,-1.90666 -11.34874,-5.1366 -15.20832,-7.17763 -3.85956,-2.04104 -11.35004,-5.40507 -16.64549,-7.47562 -10.32143,-4.03576 -17.9919,-7.65981 -20.0713,-9.48306 -1.61401,-1.41517 -45.58659,-20.95906 -59.11187,-26.27262 -5.53385,-2.17404 -13.4997,-5.30391 -17.7019,-6.95528 -4.2022,-1.65136 -9.74147,-4.25198 -12.30948,-5.77912 -11.09552,-6.59831 -24.44712,-12.30394 -28.79216,-12.30394 -1.43293,0 -2.64764,-0.55003 -2.94899,-1.33531 -0.28182,-0.73441 -9.04909,-5.49369 -19.48283,-10.57616 -10.43374,-5.08247 -19.48811,-9.86464 -20.12084,-10.62702 -0.973536,-1.17305 -0.91584,-2.29674 0.37526,-7.30867 1.71126,-6.64293 1.42132,-8.03975 -0.865308,-4.1688 -0.846528,1.43306 -2.039984,2.60556 -2.652128,2.60556 -0.890136,0 -1.118488,-4.63204 -1.140432,-23.13332 -0.01512,-12.72333 0.0712,-25.04342 0.19176,-27.37798 0.365776,-7.08351 0.228456,-15.51574 -0.463144,-28.43914 -0.478744,-8.94591 -0.308176,-16.02099 0.624224,-25.89234 0.987608,-10.45579 1.064168,-14.46237 0.332528,-17.40306 -1.012976,-4.07151 -0.900096,-37.43262 0.144032,-42.56749 0.426352,-2.09676 1.08956,-2.9237 2.508768,-3.12814 2.39588,-0.34512 14.59023,3.10974 24.50109,6.94156 4.10521,1.58719 8.97432,3.15669 10.82025,3.48776 1.84592,0.33107 4.74565,1.31079 6.44383,2.17713 3.31946,1.69346 17.81081,6.66298 32.22194,11.04988 4.90257,1.49239 12.35193,4.2193 16.55413,6.0598 4.2022,1.8405 14.13467,5.75382 22.07217,8.69626 7.93749,2.94246 16.72391,6.50244 19.52537,7.91107 2.80147,1.40862 8.14972,3.72621 11.88502,5.15017 19.78331,7.5418 25.05786,9.45596 29.61779,10.74841 6.86079,1.94459 34.93387,13.40863 44.14447,18.02702 11.5951,5.81401 37.60106,16.83443 44.23893,18.74692 10.10496,2.91141 23.37494,7.78177 28.3547,10.40676 2.61445,1.37816 5.21764,2.50657 5.78485,2.50757 2.25609,0.004 2.73905,3.76339 2.84952,22.18062 0.16937,28.23496 -1.6083,166.95656 -2.19613,171.37712 -0.9546,7.17861 -1.59953,7.71525 -7.20273,5.99326 l 0,0 z"
       style="color:#000000;fill:#cfcfcf;fill-opacity:1;fill-rule:nonzero;stroke:#c42836;stroke-width:0;stroke-linecap:square;stroke-linejoin:round;stroke-miterlimit:4;stroke-opacity:1;stroke-dasharray:none;stroke-dashoffset:0;marker:none;visibility:visible;display:inline;overflow:visible;enable-background:accumulate" />
    <path
       inkscape:connector-curvature="0"
       id="path3807"
       d="m 384.97466,638.24364 c -2.69666,-1.10891 -5.37079,-2.40175 -5.94251,-2.87298 -0.57172,-0.47123 -6.38774,-3.21483 -12.9245,-6.09689 -6.53675,-2.88206 -20.68024,-9.69803 -31.42996,-15.14661 -22.58791,-11.44884 -44.21606,-21.65621 -55.16084,-26.03306 -4.20221,-1.68047 -11.58515,-5.16094 -16.40654,-7.73437 -10.74095,-5.73302 -47.65461,-22.07842 -68.91088,-30.51378 -8.63785,-3.42786 -22.00849,-9.44005 -29.71253,-13.36044 -7.70404,-3.92037 -16.10844,-7.62325 -18.67644,-8.22862 -2.56802,-0.60536 -5.64356,-1.78335 -6.83452,-2.61773 -1.79669,-1.25874 -9.60642,-5.3289 -37.93989,-19.7729 -2.253098,-1.14859 -2.399746,-3.28752 -0.67767,-9.88412 l 1.21889,-4.66911 -2.052886,2.52936 c -1.314312,1.61937 -2.33764,2.23021 -2.844384,1.69787 -1.037312,-1.08973 -1.53856,-95.74197 -0.585032,-110.47288 0.397512,-6.14104 0.423952,-11.87132 0.05872,-12.73393 -0.783112,-1.84977 -0.770192,-37.56266 0.01488,-41.13709 0.369688,-1.68317 1.20976,-2.62322 2.672272,-2.99029 2.54494,-0.63873 12.97461,2.08411 23.49697,6.1343 4.13233,1.59058 8.24421,2.89197 9.13751,2.89197 0.8933,0 2.28754,0.3792 3.0983,0.84268 0.81076,0.46348 3.00218,1.36711 4.86982,2.00806 1.86765,0.64095 8.36196,2.90746 14.4318,5.03666 6.06985,2.12922 15.39909,5.25072 20.73164,6.93666 5.33256,1.68594 12.78192,4.42663 16.55413,6.09041 3.77221,1.66378 11.25177,4.67144 16.62125,6.68369 5.36948,2.01224 10.90875,4.13869 12.30948,4.72545 1.40073,0.58675 2.7378,1.11238 2.97125,1.16804 0.23346,0.0557 1.37951,0.62976 2.54679,1.27575 1.16728,0.646 2.12232,1.08311 2.12232,0.97136 0,-0.11173 2.48312,0.90461 5.51805,2.25856 3.03492,1.35395 8.38318,3.53328 11.88501,4.84296 3.50183,1.30968 9.0411,3.42944 12.30948,4.7106 3.26838,1.28115 9.76269,3.57393 14.4318,5.09508 9.01952,2.93847 31.8211,12.0275 39.27468,15.65544 19.49152,9.48729 45.39218,20.30418 52.83417,22.06513 2.69284,0.63719 30.94925,11.69586 32.97635,12.90591 1.2841,0.76652 1.3104,20.77453 0.16242,123.5796 -0.53642,48.03758 -1.09238,71.63168 -1.71535,72.7957 -0.50693,0.94722 -0.62174,1.72806 -0.25513,1.73522 0.36661,0.006 0.0935,0.38332 -0.60683,0.83592 -1.96703,1.2712 -4.24228,0.98416 -9.57213,-1.20758 l 0,0 z"
       style="color:#000000;fill:#cfcfcf;fill-opacity:1;fill-rule:nonzero;stroke:#c42836;stroke-width:0;stroke-linecap:square;stroke-linejoin:round;stroke-miterlimit:4;stroke-opacity:1;stroke-dasharray:none;stroke-dashoffset:0;marker:none;visibility:visible;display:inline;overflow:visible;enable-background:accumulate" />
    <path
       inkscape:connector-curvature="0"
       id="path3809"
       d="m 377.99266,635.07652 c -6.06984,-2.85135 -26.88984,-12.92794 -46.26665,-22.3924 -19.37682,-9.46447 -40.57883,-19.50597 -47.11559,-22.31446 -6.53676,-2.80848 -19.33436,-8.73018 -28.43914,-13.15934 -17.76791,-8.64349 -39.37353,-18.13261 -63.02939,-27.68231 -8.10998,-3.27394 -20.43708,-8.83803 -27.39357,-12.36464 -6.95648,-3.52661 -15.67534,-7.36831 -19.37524,-8.5371 -3.6999,-1.1688 -7.7277,-2.83346 -8.95066,-3.69926 -1.22297,-0.8658 -10.39152,-5.65826 -20.37454,-10.64991 l -18.150952,-9.07575 0.540896,-3.9729 c 0.297488,-2.1851 0.758676,-5.11896 1.024866,-6.5197 l 0.48397,-2.54679 -1.716764,2.12233 c -1.143664,1.41384 -1.99952,1.83893 -2.563808,1.27339 -0.70024,-0.70179 -1.139296,-62.3589 -0.828184,-116.30334 0.02424,-4.2022 -0.01816,-16.42752 -0.09416,-27.1674 -0.08811,-12.44675 0.199304,-20.41481 0.792664,-21.97547 0.897344,-2.36018 1.085376,-2.43013 5.217292,-1.94077 4.21504,0.49921 23.42512,6.55792 38.64728,12.18905 4.26192,1.57661 15.81592,5.51933 25.67557,8.76159 9.85965,3.24228 20.69831,7.08204 24.08592,8.53283 3.38761,1.45077 12.50251,5.05544 20.25535,8.01036 7.75283,2.95492 16.92126,6.68977 20.3743,8.29968 6.97362,3.25131 23.02252,9.40128 41.08436,15.74361 15.13918,5.31607 32.08321,12.26938 47.95867,19.6808 15.93715,7.4402 33.6082,14.88292 39.29587,16.55068 5.18613,1.52069 23.99523,8.53385 32.22694,12.01613 3.5605,1.50622 5.94682,3.06375 6.31182,4.1197 1.04925,3.03537 -0.85516,190.6661 -1.97747,194.82931 -1.29841,4.81646 -4.19135,4.51769 -17.69965,-1.82792 l 0,0 z"
       style="color:#000000;fill:#e8e8e8;fill-opacity:1;fill-rule:nonzero;stroke:#c42836;stroke-width:0;stroke-linecap:square;stroke-linejoin:round;stroke-miterlimit:4;stroke-opacity:1;stroke-dasharray:none;stroke-dashoffset:0;marker:none;visibility:visible;display:inline;overflow:visible;enable-background:accumulate" />
    <path
       inkscape:connector-curvature="0"
       id="path3817"
       d="m 400.61568,419.79073 c -0.43026,-0.8171 -1.04498,-6.64287 -1.36606,-12.94618 -1.04024,-20.42162 -2.68707,-34.15277 -8.10607,-67.58777 -0.46277,-2.8553 -0.84429,-7.24851 -0.84782,-9.76269 -0.008,-6.02406 -1.41791,-14.78131 -3.05248,-18.96559 -0.94135,-2.40978 -1.15366,-4.72161 -0.75167,-8.18523 0.47289,-4.07439 1.01213,-5.22702 3.45879,-7.39313 1.59421,-1.4114 2.89856,-3.16702 2.89856,-3.90137 0,-0.73435 -1.5362,-2.30495 -3.41379,-3.49021 -4.11838,-2.59983 -3.90085,-3.30634 2.94408,-9.56223 5.84456,-5.3416 13.86721,-10.97746 22.84317,-16.04716 8.46963,-4.78373 12.0581,-7.59554 26.62139,-20.85965 6.27896,-5.71881 12.65265,-11.16187 14.16378,-12.0957 1.51113,-0.93381 4.2499,-2.87673 6.08618,-4.31759 1.83626,-1.44086 6.96784,-4.64752 11.40349,-7.12589 4.43566,-2.47839 10.35694,-6.48696 13.15841,-8.90793 2.80146,-2.42098 6.97298,-5.8117 9.27005,-7.53493 2.29706,-1.72324 4.69513,-3.87363 5.32905,-4.77866 0.6339,-0.90504 1.63828,-1.45912 2.23196,-1.23132 1.51326,0.5807 10.6475,-5.49652 15.96488,-10.6218 2.45098,-2.36243 4.54167,-4.29532 4.64597,-4.29532 1.46871,0 21.44413,-12.43438 26.57108,-16.54007 3.7685,-3.01784 8.28907,-6.26836 10.04571,-7.22337 1.75664,-0.95501 6.63204,-4.19376 10.83424,-7.1972 8.07062,-5.76832 10.30248,-7.01148 16.71708,-9.3115 5.17071,-1.85401 9.38726,-4.70838 10.43122,-7.06138 0.45731,-1.03076 1.88988,-2.24306 3.18349,-2.69401 2.68848,-0.93721 3.27265,-3.04487 0.65414,-2.36012 -0.93382,0.2442 -1.69786,0.13862 -1.69786,-0.23463 0,-1.09027 2.51725,-1.74896 4.64396,-1.2152 2.23675,0.5614 3.82273,-1.15649 2.0686,-2.24062 -1.70524,-1.05389 -0.37452,-1.8836 4.12357,-2.57106 2.21108,-0.33792 5.82847,-1.31402 8.03864,-2.16909 3.87883,-1.50064 4.11749,-1.50138 6.86601,-0.0212 1.56612,0.84341 5.90599,4.3478 9.64415,7.78752 6.23037,5.73296 13.36544,11.24656 20.44016,15.79505 1.61116,1.03584 4.07565,4.13566 5.8998,7.42068 1.90033,3.42223 6.65632,9.33501 12.08927,15.02973 10.03517,10.51871 17.63822,22.42002 16.70309,26.14591 -0.80165,3.194 -6.80322,8.74936 -12.60288,11.66588 -7.27233,3.65709 -15.36263,10.24041 -17.91317,14.5765 -2.90804,4.94386 -5.13721,6.80232 -12.03668,10.03496 -4.36674,2.04596 -7.29317,4.23037 -11.03609,8.23778 -2.80146,2.99942 -10.25082,9.36245 -16.55412,14.14005 -6.3033,4.77759 -13.56165,10.584 -16.12966,12.90311 -2.56801,2.31913 -6.5792,4.92524 -8.91376,5.79138 -5.26647,1.9539 -8.93279,4.22881 -15.36343,9.53282 -2.75599,2.27316 -10.35913,8.27488 -16.89589,13.33718 -13.32724,10.32108 -14.14461,11.03513 -27.12132,23.69327 -5.1116,4.98611 -9.61155,9.06564 -9.9999,9.06564 -1.40489,0 -9.56696,7.0737 -9.45199,8.19162 0.0649,0.63064 -0.57649,1.14661 -1.42519,1.14661 -0.8487,0 -3.00286,1.41189 -4.78702,3.13754 -1.78416,1.72565 -3.49535,3.07442 -3.80265,2.99725 -0.30729,-0.0772 -2.89415,1.94356 -5.74856,4.4905 -2.85441,2.54695 -8.71528,7.49121 -13.02415,10.98727 -4.30886,3.49605 -9.17138,8.27777 -10.80556,10.62603 -2.57031,3.69343 -4.14167,4.84416 -11.64496,8.52777 -5.44866,2.67493 -9.23643,5.11032 -10.18715,6.54993 -2.81518,4.26284 -12.51611,13.40235 -18.49204,17.42186 -3.26838,2.19835 -9.66047,6.96397 -14.20466,10.59027 -14.77717,11.79232 -20.55298,14.5082 -22.59739,10.62569 z"
       style="color:#000000;fill:#ff8284;fill-opacity:1;fill-rule:nonzero;stroke:#c42836;stroke-width:0;stroke-linecap:square;stroke-linejoin:round;stroke-miterlimit:4;stroke-opacity:1;stroke-dasharray:none;stroke-dashoffset:0;marker:none;visibility:visible;display:inline;overflow:visible;enable-background:accumulate" />
    <path
       inkscape:connector-curvature="0"
       id="path3825"
       d="m 382.68253,273.35039 c 0.0114,-2.45129 0.37925,-6.00876 0.81741,-7.90549 0.43816,-1.89674 1.38136,-9.15508 2.096,-16.12966 0.71465,-6.97458 2.03066,-15.73719 2.92446,-19.47248 0.8938,-3.7353 1.88284,-10.03859 2.19787,-14.00734 0.31503,-3.96875 1.30533,-10.79163 2.20065,-15.16195 0.89533,-4.37032 1.62787,-9.01821 1.62787,-10.32865 0,-1.31042 0.47752,-2.55552 1.06116,-2.76688 0.84791,-0.30706 0.84848,-0.74455 0.003,-2.17691 -0.68285,-1.15668 -1.24977,-7.44509 -1.59807,-17.72621 -0.59991,-17.708 0.5308,-28.68834 4.42989,-43.01863 2.76957,-10.17895 5.74986,-16.01254 10.71947,-20.98215 4.40879,-4.408792 14.89248,-12.604752 21.0397,-16.448456 2.1011,-1.313768 5.73028,-4.00628 8.06483,-5.983366 2.33456,-1.977083 6.72777,-4.731994 9.76269,-6.122025 4.77323,-2.186198 19.87375,-10.74465 28.71023,-16.271967 3.48805,-2.181815 6.912,-2.238734 11.01104,-0.183047 3.69635,1.853737 12.80661,4.774819 17.4333,5.589751 1.78615,0.314609 4.46028,1.267163 5.94251,2.116785 1.48222,0.849623 4.41404,2.541386 6.51513,3.759471 2.10111,1.218086 4.65718,2.219303 5.68018,2.224927 1.02299,0.0056 2.09673,0.393277 2.38607,0.86145 0.34986,0.566067 1.07761,0.556062 2.17243,-0.02986 0.90548,-0.484605 1.64634,-0.552825 1.64634,-0.151604 0,0.401223 2.81775,1.340971 6.26168,2.08833 6.88653,1.494433 49.58564,19.420159 62.07714,26.060911 4.2022,2.23397 9.58523,4.69652 11.96228,5.47231 4.25301,1.38804 7.98756,4.0306 7.98756,5.65199 0,0.45452 -2.19661,2.21635 -4.88134,3.91518 -2.68474,1.69883 -7.17346,4.86976 -9.97492,7.0465 -6.22016,4.83307 -22.05496,15.6363 -25.46789,17.37536 -0.46691,0.23791 -1.80398,0.8263 -2.97125,1.30752 -3.20218,1.32014 -10.73698,6.32655 -29.28807,19.46012 -3.26838,2.3139 -9.38067,6.29773 -13.58287,8.85294 -4.2022,2.5552 -10.90691,7.28084 -14.89935,10.50142 -3.99244,3.22057 -8.62874,6.70214 -10.30288,7.73682 -1.67415,1.03468 -3.25153,2.6752 -3.50529,3.6456 -0.33146,1.26751 -0.91117,1.62163 -2.0585,1.25748 -1.61932,-0.51394 -9.87021,4.65147 -18.04742,11.29846 -2.10111,1.70792 -7.25835,5.36212 -11.46055,8.12045 -11.81141,7.75301 -22.96437,16.86458 -43.68564,35.6896 -4.88375,4.43682 -9.55257,8.06694 -10.37518,8.06694 -2.34642,0 -10.70839,3.96046 -15.24809,7.2219 -2.27009,1.63089 -4.44197,2.96526 -4.82641,2.96526 -0.38444,0 -1.62512,1.00616 -2.75705,2.23591 -2.70367,2.9373 -10.06414,8.80017 -11.04807,8.80017 -0.42498,0 -0.76336,-2.0056 -0.75194,-4.45688 z"
       style="color:#000000;fill:#ffa3a4;fill-opacity:1;fill-rule:nonzero;stroke:#c42836;stroke-width:0;stroke-linecap:square;stroke-linejoin:round;stroke-miterlimit:4;stroke-opacity:1;stroke-dasharray:none;stroke-dashoffset:0;marker:none;visibility:visible;display:inline;overflow:visible;enable-background:accumulate" />
    <path
       inkscape:connector-curvature="0"
       id="path3833"
       d="m 389.38139,430.63657 c -0.73986,-0.43897 -4.36904,-1.41851 -8.06483,-2.17676 -8.03633,-1.64878 -27.07702,-7.89444 -34.94974,-11.46411 -3.10573,-1.4082 -6.11767,-2.37966 -6.69323,-2.1588 -0.57555,0.22087 -1.17421,0.0183 -1.33036,-0.45014 -0.27969,-0.83909 -5.16938,-3.04656 -15.90555,-7.18062 -3.00747,-1.15806 -6.63665,-2.97316 -8.06482,-4.03358 -3.29166,-2.44402 -12.11699,-6.35662 -15.86128,-7.0319 -1.5758,-0.28419 -6.1223,-2.16813 -10.10336,-4.18654 -3.98105,-2.01841 -14.44501,-5.99397 -23.25325,-8.83459 -8.80823,-2.84061 -17.39357,-5.89804 -19.07854,-6.79429 -6.65153,-3.53802 -18.03274,-8.53145 -19.44521,-8.53145 -0.8209,0 -2.24608,-0.51939 -3.16706,-1.1542 -0.92098,-0.63481 -7.21378,-2.9367 -13.984,-5.11532 -7.0493,-2.26843 -14.84887,-5.44151 -18.25198,-7.42541 -7.6724,-4.47277 -14.24511,-6.53844 -27.91847,-8.77417 -1.34782,-0.22039 -4.74224,-1.59338 -7.54316,-3.05109 -6.46575,-3.36506 -38.90948,-15.22842 -41.64645,-15.22842 -1.13241,0 -2.51615,-0.55091 -3.07496,-1.22424 -2.00515,-2.41605 1.58132,-7.37264 14.72584,-20.3514 7.05296,-6.96404 14.16064,-14.65563 15.79483,-17.09242 1.63418,-2.43678 5.35886,-7.15874 8.27705,-10.49323 2.9182,-3.3345 5.30582,-6.40919 5.30582,-6.83264 0,-0.42347 0.7535,-1.00908 1.67443,-1.30138 0.92095,-0.29229 6.61747,-6.52583 12.65896,-13.85231 6.04149,-7.32647 12.89264,-15.18142 15.22479,-17.45542 3.98577,-3.88642 4.43608,-4.10017 7.50311,-3.5616 1.79457,0.31513 4.40891,0.55912 5.80965,0.54218 13.18588,-0.15937 14.32093,0.0115 25.79525,3.8841 6.31904,2.13265 14.75173,5.52449 18.73931,7.53743 3.98757,2.01293 8.96921,3.9273 11.07032,4.25417 2.10109,0.32688 8.02238,2.08535 13.1584,3.90772 13.9698,4.9568 31.24977,9.24917 40.32416,10.01658 4.43565,0.37512 9.1692,1.12401 10.519,1.66418 1.3498,0.54019 5.552,1.69205 9.33823,2.5597 6.98048,1.59965 14.45869,4.53394 15.38828,6.03806 0.28035,0.45361 1.61069,0.82476 2.95631,0.82476 1.34562,0 2.68442,0.38483 2.97512,0.85519 0.2907,0.47035 1.93682,1.57026 3.65806,2.44425 1.72123,0.87397 4.80015,2.43088 6.84204,3.4598 2.0419,1.0289 5.09805,2.06183 6.79144,2.29538 4.57723,0.6313 7.70559,2.01381 8.681,3.83638 0.47746,0.89214 1.79992,1.97634 2.93881,2.40935 1.61882,0.61547 2.07071,1.39992 2.07071,3.59454 0,1.54399 0.57288,4.89611 1.27308,7.44915 2.84172,10.36144 5.52414,25.21079 6.7296,37.25359 0.70166,7.00984 2.39358,17.8206 3.7598,24.0239 2.356,10.69731 2.50138,12.52599 2.82023,35.47323 0.18489,13.30697 0.13107,25.91016 -0.1196,28.00709 -0.47273,3.9544 -1.75428,4.96404 -4.34778,3.4253 l 0,0 z"
       style="color:#000000;fill:#fdd1d2;fill-opacity:1;fill-rule:nonzero;stroke:#c42836;stroke-width:0;stroke-linecap:square;stroke-linejoin:round;stroke-miterlimit:4;stroke-opacity:1;stroke-dasharray:none;stroke-dashoffset:0;marker:none;visibility:visible;display:inline;overflow:visible;enable-background:accumulate" />
    <path
       inkscape:connector-curvature="0"
       id="path3841"
       d="m 364.64742,278.61978 c -3.6046,-0.88625 -8.76184,-2.71619 -11.46056,-4.06653 -2.6987,-1.35034 -6.4348,-2.94936 -8.30244,-3.55338 -1.86765,-0.60401 -4.73771,-1.9844 -6.37792,-3.06752 -1.68852,-1.11501 -5.99548,-2.54091 -9.92842,-3.28697 -3.82042,-0.72472 -8.39971,-1.93862 -10.17621,-2.69755 -1.77649,-0.75892 -6.66815,-1.67105 -10.87035,-2.02697 -13.99166,-1.18503 -52.08692,-12.5641 -70.1459,-20.95261 -4.02882,-1.87142 -9.37708,-4.07224 -11.88502,-4.89074 -2.50794,-0.81849 -4.9419,-1.76982 -5.40882,-2.11407 -0.46691,-0.34425 -2.31552,-0.89042 -4.10803,-1.21371 -3.86948,-0.6979 -7.35252,-2.18283 -7.35252,-3.13462 0,-1.1227 9.64775,-8.79968 14.66914,-11.67262 2.57348,-1.47239 7.47976,-3.832 10.90285,-5.24358 8.12063,-3.34868 16.0086,-8.44861 16.01813,-10.35645 0.009,-1.70667 1.37727,-2.00544 1.94458,-0.42447 0.26101,0.72736 3.5545,-0.52679 10.47013,-3.98701 10.28919,-5.14815 16.17486,-9.0291 23.59845,-15.56056 2.29399,-2.0183 7.45123,-5.22656 11.46055,-7.12948 4.00932,-1.90291 8.9324,-4.55816 10.94017,-5.90056 2.00779,-1.3424 4.01338,-2.44073 4.45688,-2.44073 0.44351,0 0.80638,-0.38202 0.80638,-0.84893 0,-0.46691 0.48585,-0.84893 1.07967,-0.84893 0.59381,0 2.98142,-1.77787 5.30581,-3.95082 2.32437,-2.17296 8.81036,-6.61359 14.41329,-9.86808 5.60293,-3.25449 11.74216,-7.17627 13.64272,-8.71507 1.90054,-1.53881 7.44514,-5.40708 12.32131,-8.59615 4.87616,-3.18907 11.39205,-7.61289 14.47976,-9.83073 3.08771,-2.21782 5.97403,-4.03241 6.41405,-4.03241 0.44002,0 2.84811,-1.52807 5.35132,-3.39571 2.50322,-1.86765 4.84899,-3.39572 5.21282,-3.39572 0.36384,0 1.1099,1.49651 1.65791,3.32559 0.85768,2.8627 0.63127,5.25546 -1.62675,17.19082 -1.44273,7.62587 -2.86105,15.77532 -3.15183,18.10987 -0.59203,4.75308 0.87397,26.55744 2.06315,30.68598 0.98054,3.40418 -0.2949,15.13806 -2.38423,21.9346 -0.86342,2.80865 -1.84266,7.97177 -2.1761,11.4736 -0.33343,3.50183 -1.33283,10.11501 -2.22086,14.69594 -0.88804,4.58093 -2.19763,13.31804 -2.91021,19.41582 -0.71258,6.09777 -2.47989,15.81588 -3.92735,21.5958 -3.01614,12.04386 -2.08789,11.4073 -12.79555,8.77466 l 0,0 z"
       style="color:#000000;fill:#fdd1d2;fill-opacity:1;fill-rule:nonzero;stroke:#c42836;stroke-width:0;stroke-linecap:square;stroke-linejoin:round;stroke-miterlimit:4;stroke-opacity:1;stroke-dasharray:none;stroke-dashoffset:0;marker:none;visibility:visible;display:inline;overflow:visible;enable-background:accumulate" />
  </g>
</svg>
