<?xml version="1.0" encoding="UTF-8" standalone="no"?>
<svg
   xmlns:dc="http://purl.org/dc/elements/1.1/"
   xmlns:cc="http://creativecommons.org/ns#"
   xmlns:rdf="http://www.w3.org/1999/02/22-rdf-syntax-ns#"
   xmlns:svg="http://www.w3.org/2000/svg"
   xmlns="http://www.w3.org/2000/svg"
   xmlns:sodipodi="http://sodipodi.sourceforge.net/DTD/sodipodi-0.dtd"
   xmlns:inkscape="http://www.inkscape.org/namespaces/inkscape"
   version="1.0"
   width="784.000000pt"
   height="701.000000pt"
   viewBox="0 0 784.000000 701.000000"
   preserveAspectRatio="xMidYMid meet"
   id="svg2"
   inkscape:version="0.48.4 r9939"
   sodipodi:docname="Roof4_2.svg">
  <defs
     id="defs20" />
  <sodipodi:namedview
     pagecolor="#ffffff"
     bordercolor="#666666"
     borderopacity="1"
     objecttolerance="10"
     gridtolerance="10"
     guidetolerance="10"
     inkscape:pageopacity="0"
     inkscape:pageshadow="2"
     inkscape:window-width="1370"
     inkscape:window-height="1057"
     id="namedview18"
     showgrid="false"
     inkscape:zoom="0.94236332"
     inkscape:cx="490"
     inkscape:cy="375.68896"
     inkscape:window-x="441"
     inkscape:window-y="35"
     inkscape:window-maximized="0"
     inkscape:current-layer="svg2" />
  <metadata
     id="metadata4">
Created by potrace 1.14, written by Peter Selinger 2001-2017
<rdf:RDF>
  <cc:Work
     rdf:about="">
    <dc:format>image/svg+xml</dc:format>
    <dc:type
       rdf:resource="http://purl.org/dc/dcmitype/StillImage" />
    <dc:title></dc:title>
  </cc:Work>
</rdf:RDF>
</metadata>
  <g
     id="g3009"
     style="fill:#cb3c32;fill-opacity:1">
    <g
       id="g6"
       stroke="none"
       fill="#000000"
       transform="translate(0.000000,701.000000) scale(0.100000,-0.100000)"
       style="fill:#cb3c32;fill-opacity:1">
      <path
         id="path8"
         d="M4880 6602 c-8 -3 -26 -13 -39 -23 -13 -11 -32 -19 -42 -19 -10 0 -25 -13 -33 -29 -8 -15 -29 -34 -46 -41 -16 -7 -30 -16 -30 -20 0 -4 -18 -18 -41 -29 -22 -12 -52 -32 -67 -46 -15 -14 -33 -25 -40 -25 -26 0 -172 -81 -172 -95 0 -8 -4 -16 -10 -16 -5 -1 -14 -2 -18 -3 -14 -2 -202 -131 -202 -139 0 -10 -110 -116 -132 -128 -13 -7 -26 -5 -44 7 -24 17 -28 17 -60 -1 -18 -10 -47 -33 -64 -51 -17 -19 -35 -34 -40 -34 -5 0 -22 -11 -37 -25 -15 -14 -34 -30 -41 -36 -8 -6 -50 -31 -95 -56 -45 -25 -95 -57 -112 -70 -43 -35 -205 -145 -239 -163 -17 -8 -54 -38 -84 -66 -30 -28 -76 -62 -103 -75 -27 -13 -49 -27 -49 -31 0 -5 -9 -8 -20 -8 -11 0 -20 -4 -20 -8 0 -4 -15 -14 -34 -20 -33 -12 -87 -48 -179 -119 -23 -17 -69 -46 -102 -64 -137 -72 -201 -119 -164 -119 5 0 7 -4 4 -10 -10 -16 -1 -12 74 30 39 22 77 40 86 40 8 0 15 5 15 10 0 6 7 10 15 10 8 0 24 9 35 20 10 10 37 31 60 45 22 14 40 29 40 33 0 9 106 82 120 82 15 0 141 67 143 76 1 5 8 8 14 8 7 -1 10 3 6 9 -4 6 0 8 9 4 10 -3 24 4 37 19 11 13 25 24 30 24 5 0 12 8 15 18 3 9 16 22 28 28 61 28 225 128 238 144 8 10 42 35 75 55 93 57 197 128 217 148 10 9 24 17 32 17 8 0 36 18 62 40 31 25 50 35 52 28 2 -7 8 -23 14 -34 12 -25 7 -72 -15 -159 -16 -64 -39 -200 -38 -225 1 -8 4 -69 7 -135 3 -66 9 -125 15 -131 20 -25 2 -181 -31 -259 -5 -11 -9 -27 -9 -35 -2 -78 -10 -144 -23 -190 -9 -30 -14 -58 -12 -62 2 -3 0 -17 -5 -31 -5 -14 -12 -65 -15 -114 -5 -75 -22 -159 -62 -301 -6 -20 -11 -23 -33 -17 -14 3 -48 10 -76 15 -47 8 -114 35 -125 50 -3 4 -30 15 -61 23 -30 9 -66 25 -78 36 -23 20 -41 26 -121 37 -25 3 -65 15 -89 26 -31 14 -57 19 -84 15 -24 -3 -64 2 -101 12 -34 10 -83 23 -111 29 -63 13 -164 40 -190 51 -71 30 -171 65 -190 66 -5 1 -35 13 -65 27 -99 48 -167 76 -199 83 -17 4 -31 10 -31 15 0 4 -8 7 -17 5 -16 -2 -89 21 -103 32 -2 3 20 27 50 54 49 46 152 106 212 124 51 16 167 86 162 99 -4 9 -30 1 -94 -31 -50 -25 -90 -47 -90 -51 0 -4 -13 -7 -29 -8 -33 -1 -90 -29 -175 -85 -66 -44 -102 -51 -93 -19 3 13 0 20 -9 20 -8 0 -14 7 -14 15 0 27 -28 16 -59 -22 -79 -98 -118 -147 -139 -176 -12 -18 -37 -48 -55 -67 -18 -19 -44 -51 -59 -70 -14 -19 -78 -91 -143 -159 -64 -68 -121 -133 -126 -145 -9 -22 -30 -57 -39 -66 -3 -3 -11 -17 -19 -33 -8 -15 -36 -41 -62 -58 -26 -16 -85 -69 -131 -117 -90 -93 -128 -125 -137 -115 -3 3 0 8 7 10 10 4 9 9 -4 24 -9 10 -21 19 -26 19 -6 0 -21 9 -35 19 -23 19 -53 19 -53 0 0 -6 -9 -19 -20 -31 -25 -27 -26 -55 -2 -62 15 -5 17 -26 18 -240 1 -129 5 -243 9 -253 4 -10 9 -38 11 -63 1 -24 7 -46 13 -48 16 -5 13 -22 -3 -22 -16 0 -26 -94 -25 -220 5 -562 5 -683 -3 -730 -5 -30 -11 -117 -14 -192 -5 -134 -5 -138 15 -138 11 0 31 5 45 11 20 10 32 8 66 -10 22 -11 46 -21 53 -21 7 0 37 -12 67 -27 30 -14 61 -25 68 -24 6 1 12 -2 12 -8 0 -14 179 -103 196 -97 7 3 13 0 11 -6 -1 -5 35 -23 80 -38 46 -16 83 -27 83 -24 0 3 12 -7 27 -21 15 -14 38 -25 51 -25 12 0 25 -7 28 -15 4 -8 12 -15 19 -15 7 0 15 -7 19 -15 3 -8 12 -15 21 -15 8 0 23 -4 33 -10 9 -5 58 -26 107 -46 50 -19 104 -41 120 -49 17 -7 41 -16 55 -20 14 -4 52 -20 85 -35 33 -15 71 -31 84 -35 13 -4 44 -20 69 -36 25 -16 53 -29 61 -29 15 0 77 -26 142 -61 20 -10 44 -19 53 -19 9 0 19 -7 22 -15 4 -8 12 -15 18 -15 7 0 38 -14 70 -31 31 -17 62 -32 69 -33 11 -3 46 -16 87 -33 8 -3 26 -8 40 -10 13 -2 27 -7 30 -11 13 -18 276 -139 304 -140 5 0 12 -4 15 -9 10 -14 150 -96 226 -132 39 -18 78 -37 87 -42 10 -5 86 -40 169 -79 103 -48 168 -85 207 -118 31 -27 65 -52 74 -55 22 -8 53 32 38 47 -21 21 -9 54 30 90 22 20 40 40 40 45 0 6 43 52 95 103 89 87 111 118 84 118 -18 0 -89 -61 -89 -76 0 -9 -5 -12 -11 -8 -6 3 -41 -23 -80 -62 -38 -37 -72 -65 -76 -60 -4 4 -8 59 -10 121 -1 63 -4 118 -6 122 -4 7 -1 1168 3 1168 1 0 3 90 5 200 3 186 7 223 34 330 6 22 8 56 5 76 -6 34 -3 38 42 73 27 20 65 47 84 60 23 15 34 29 32 41 -4 23 21 40 28 19 5 -13 12 -11 38 12 18 16 32 34 32 42 0 7 4 11 9 8 14 -9 71 49 62 63 -10 16 -41 0 -86 -45 -16 -16 -52 -46 -80 -65 -27 -19 -51 -37 -53 -41 -2 -5 -9 -8 -16 -8 -6 0 -26 -14 -44 -30 -38 -34 -85 -40 -98 -12 -10 23 -12 36 -18 203 -5 134 -37 397 -51 418 -3 6 -6 32 -6 60 -1 28 -6 48 -11 45 -5 -3 -7 11 -4 35 3 22 1 43 -3 45 -4 3 -9 43 -9 88 -2 92 -20 198 -33 198 -11 0 -11 107 0 133 3 10 18 24 31 30 38 19 34 59 -8 71 -19 5 -32 15 -32 25 0 42 201 196 345 264 35 17 171 133 268 229 37 37 78 70 90 74 12 4 35 19 50 34 16 15 49 38 75 51 26 13 49 26 52 29 3 3 23 14 45 25 22 10 54 33 70 52 17 18 59 53 95 77 48 32 64 48 62 62 -6 30 -9 29 -56 -4 -24 -18 -47 -32 -51 -32 -4 0 -30 -21 -59 -46 -28 -26 -75 -60 -103 -76 -29 -17 -53 -34 -53 -40 0 -5 -4 -7 -8 -4 -5 3 -19 -5 -33 -17 -13 -12 -49 -40 -79 -61 -30 -22 -75 -59 -100 -82 -94 -88 -113 -104 -124 -104 -6 -1 -26 -20 -45 -44 -18 -23 -50 -53 -71 -66 -22 -13 -37 -26 -35 -29 2 -4 -7 -7 -19 -7 -31 -2 -150 -61 -171 -85 -10 -10 -24 -19 -31 -19 -7 0 -17 -7 -22 -15 -13 -24 -102 -95 -118 -95 -11 0 -14 13 -13 55 1 31 6 58 11 61 4 3 6 9 4 12 -2 4 1 34 8 67 7 33 11 78 10 100 -3 40 21 178 34 199 3 6 7 27 8 46 1 19 5 60 9 90 3 30 8 71 10 90 2 19 10 59 18 88 8 29 12 64 9 79 -3 18 -1 24 7 19 6 -4 11 -1 11 8 0 9 -4 16 -9 16 -5 0 -9 12 -9 28 0 15 -3 92 -6 172 -4 87 -2 163 4 190 6 25 12 65 14 90 1 25 5 52 9 60 17 43 37 113 37 133 0 29 59 121 96 149 16 12 33 28 37 35 4 7 20 19 35 27 15 8 42 28 60 45 18 17 49 38 69 48 20 9 59 39 87 65 28 26 57 48 66 48 23 0 116 49 204 108 43 28 85 52 91 52 7 0 18 6 24 14 22 27 72 28 110 3 20 -13 54 -27 76 -31 22 -4 46 -12 52 -18 7 -6 19 -8 28 -5 8 4 17 2 20 -3 3 -5 12 -7 20 -3 8 3 15 0 15 -6 0 -6 9 -11 20 -11 10 0 23 -6 27 -13 12 -19 93 -56 109 -50 8 3 14 0 14 -6 0 -9 5 -9 21 0 12 6 19 7 15 1 -3 -6 14 -13 42 -17 64 -9 121 -29 219 -76 46 -21 87 -39 93 -39 6 0 33 -11 60 -25 28 -14 53 -26 57 -26 5 -1 24 -9 43 -19 19 -9 58 -25 85 -36 28 -10 52 -21 55 -25 9 -11 122 -69 137 -69 8 0 32 -9 53 -20 53 -27 52 -52 -2 -80 -24 -12 -54 -32 -68 -44 -46 -41 -175 -134 -210 -151 -19 -10 -38 -23 -42 -29 -4 -6 -8 -8 -8 -3 0 4 -9 -2 -20 -13 -11 -11 -28 -20 -39 -20 -10 0 -24 -7 -31 -15 -7 -8 -18 -15 -25 -15 -7 0 -45 -25 -83 -55 -39 -30 -75 -55 -80 -55 -6 0 -12 -7 -16 -15 -3 -8 -12 -15 -21 -15 -8 0 -24 -9 -35 -20 -23 -23 -120 -86 -190 -124 -25 -13 -67 -45 -95 -70 -27 -25 -71 -59 -97 -74 -27 -15 -48 -33 -48 -40 0 -8 5 -10 13 -6 8 5 7 2 -2 -9 -24 -30 -6 -28 45 5 27 18 51 35 54 38 3 3 24 20 48 39 23 18 39 38 36 43 -4 6 -2 8 3 5 6 -4 16 0 23 8 7 8 18 15 24 15 6 0 35 15 63 34 29 19 61 37 71 40 10 4 34 20 52 36 19 17 37 30 40 30 4 0 23 15 42 34 19 18 45 37 59 41 13 4 32 16 42 26 10 11 21 19 26 19 7 0 97 63 129 90 6 6 12 8 12 3 0 -4 7 2 16 13 8 10 13 14 10 8 -8 -17 65 10 115 42 28 17 40 31 36 43 -3 12 3 17 22 19 32 3 47 17 27 25 -9 4 -16 2 -16 -4 0 -6 -5 -7 -12 -3 -19 12 21 35 42 24 13 -7 22 -5 31 6 7 8 8 14 3 13 -20 -4 -26 2 -15 15 7 8 24 12 43 10 17 -2 34 0 37 4 10 15 94 43 100 35 3 -5 23 -19 43 -31 20 -13 59 -47 87 -77 27 -30 55 -55 61 -55 11 0 91 -56 121 -85 9 -8 20 -15 26 -15 5 0 25 -30 44 -67 33 -67 62 -100 145 -169 23 -19 52 -55 65 -81 13 -26 36 -65 52 -87 15 -21 27 -49 27 -62 0 -34 -76 -110 -123 -122 -45 -13 -177 -116 -177 -139 0 -15 -73 -93 -87 -93 -3 0 -29 -11 -57 -25 -53 -26 -76 -46 -123 -103 -14 -19 -41 -44 -59 -55 -88 -60 -241 -182 -259 -207 -13 -20 -29 -30 -46 -30 -25 0 -132 -59 -153 -84 -6 -7 -40 -35 -76 -62 -36 -26 -93 -71 -127 -99 -34 -27 -82 -65 -107 -83 -27 -19 -44 -38 -40 -44 4 -7 2 -8 -5 -4 -12 8 -198 -172 -194 -186 2 -4 -3 -5 -11 -2 -7 3 -29 -11 -49 -31 -19 -19 -40 -35 -47 -35 -7 0 -9 -8 -5 -22 4 -14 3 -18 -2 -11 -7 10 -18 6 -46 -13 -20 -13 -37 -29 -37 -35 0 -6 5 -7 10 -4 6 3 10 2 10 -4 0 -5 -6 -11 -12 -14 -7 -2 -10 -7 -7 -10 4 -6 43 25 112 87 9 9 21 16 26 16 5 0 18 11 29 25 11 14 25 25 31 25 6 0 61 49 122 110 63 61 123 112 138 115 32 7 103 55 109 74 3 9 0 11 -9 5 -12 -7 -12 -5 0 9 7 9 16 15 20 13 7 -5 37 15 39 27 1 4 2 12 2 17 0 6 7 10 15 10 8 0 15 4 15 9 0 5 16 15 35 21 20 7 53 27 73 46 20 20 56 46 79 60 27 16 40 30 36 40 -3 8 0 14 6 14 6 0 11 -4 11 -10 0 -15 34 -12 56 6 10 8 13 12 5 8 -9 -5 -12 -3 -7 5 4 6 12 9 17 6 5 -4 19 1 31 9 12 9 19 16 16 16 -4 0 4 11 18 25 14 14 22 30 18 37 -5 8 -2 9 10 5 17 -7 48 17 59 44 4 9 6 10 6 2 1 -17 31 -4 31 13 0 8 3 13 8 13 17 -3 32 2 32 10 0 5 20 30 45 56 25 25 42 51 39 57 -4 7 -2 8 5 4 6 -4 23 1 39 12 15 10 53 32 84 47 31 16 55 32 53 36 -3 4 7 10 21 13 18 5 24 12 20 22 -3 9 -1 12 4 9 6 -3 10 -1 10 4 0 6 7 11 15 11 9 0 19 8 23 19 9 23 68 91 80 91 4 0 23 11 42 25 19 14 41 25 49 25 9 0 27 9 41 20 14 11 32 20 41 20 40 0 43 -23 41 -320 0 -74 1 -157 2 -185 0 -27 -2 -117 -6 -200 -5 -82 -10 -193 -12 -245 -3 -52 -10 -117 -16 -145 -7 -30 -11 -119 -9 -225 2 -96 2 -213 1 -260 l-3 -85 -52 -54 c-28 -30 -75 -71 -104 -93 -29 -21 -53 -43 -53 -49 0 -6 5 -7 10 -4 6 3 10 1 10 -5 0 -7 -7 -9 -16 -6 -19 7 -70 -30 -139 -101 -27 -29 -62 -57 -77 -62 -18 -7 -26 -16 -22 -25 3 -8 -7 -23 -26 -36 -52 -37 -27 -33 38 6 34 20 81 55 104 77 120 117 309 268 329 263 28 -6 47 13 54 56 4 24 14 53 23 66 14 21 13 25 -7 46 -11 12 -21 32 -21 44 0 12 -3 22 -7 22 -5 0 -8 29 -8 64 0 35 3 62 7 60 4 -2 5 49 4 113 -2 65 1 156 6 203 5 47 11 112 12 146 1 33 6 65 9 71 4 6 3 13 -2 15 -4 1 -5 27 -1 56 3 29 3 55 -1 58 -4 2 -1 17 7 32 16 32 18 58 4 67 -13 8 -9 54 5 49 12 -5 18 65 10 124 -4 26 -10 40 -17 36 -6 -4 -8 4 -4 22 3 16 8 121 11 234 4 113 8 213 11 222 3 9 17 18 32 20 17 2 27 9 27 20 0 9 3 20 7 24 7 7 -27 63 -46 76 -6 4 -20 5 -32 2 -23 -6 -46 20 -77 87 -9 20 -23 42 -32 49 -8 7 -15 19 -15 26 0 15 -39 64 -51 64 -32 0 -149 124 -149 158 0 18 -86 94 -228 201 -18 13 -32 28 -32 33 0 5 -16 22 -35 39 -37 33 -43 57 -25 105 16 41 -7 61 -51 45 -27 -9 -35 -8 -52 6 -15 13 -21 15 -24 6 -5 -15 -53 -18 -53 -3 0 6 -9 10 -19 10 -11 0 -23 5 -26 10 -3 6 -16 10 -27 10 -12 0 -35 11 -52 24 -17 12 -39 22 -48 20 -10 -1 -15 3 -12 11 3 8 -24 23 -78 44 -46 18 -96 39 -111 47 -15 9 -34 13 -42 10 -8 -3 -14 0 -12 6 1 6 -20 17 -48 23 -57 14 -125 46 -144 69 -8 9 -21 16 -31 16 -10 0 -23 6 -29 14 -7 8 -45 16 -104 20 -89 7 -187 32 -187 48 0 4 -5 8 -12 8 -6 0 -19 6 -27 14 -14 13 -140 56 -162 56 -5 0 -9 -9 -9 -21 0 -11 -4 -17 -10 -14 -5 3 -10 17 -10 31 0 14 -7 27 -16 31 -11 4 -15 17 -12 47 1 22 -2 40 -7 38 -5 -2 -12 3 -15 11 -3 8 -12 12 -20 9z m-2935 -1911 c7 -13 44 -11 74 3 19 8 25 8 28 -1 3 -9 10 -10 23 -3 12 7 34 4 73 -10 31 -11 63 -20 70 -20 7 0 32 -9 55 -20 22 -11 48 -20 57 -20 9 0 47 -18 86 -40 39 -22 78 -40 87 -40 25 0 154 -35 177 -48 33 -17 148 -55 180 -58 17 -2 60 -13 96 -24 40 -12 93 -19 133 -19 44 1 74 -4 89 -14 13 -8 58 -21 101 -27 43 -7 84 -19 92 -27 7 -8 23 -15 33 -16 11 0 18 -4 16 -8 -3 -3 6 -11 19 -17 17 -8 27 -7 35 1 10 9 12 9 9 -3 -2 -8 10 -18 30 -25 18 -6 42 -19 53 -28 10 -9 26 -17 34 -17 7 0 17 -4 20 -10 3 -5 21 -10 40 -10 43 0 83 -18 90 -41 3 -10 16 -19 28 -21 19 -3 22 -10 25 -62 2 -32 9 -68 16 -80 8 -11 17 -46 20 -76 4 -30 13 -77 21 -105 8 -27 16 -93 19 -145 2 -52 9 -115 14 -140 6 -25 16 -72 22 -105 7 -33 16 -73 21 -90 5 -16 8 -43 8 -60 -1 -16 1 -144 4 -283 5 -281 6 -278 -57 -248 -19 9 -47 16 -63 16 -40 0 -327 95 -379 125 -32 19 -44 21 -54 12 -10 -9 -11 -9 -6 1 4 7 0 14 -11 18 -10 3 -27 9 -38 14 -11 5 -27 11 -35 14 -8 3 -22 10 -30 15 -8 5 -35 15 -60 22 -25 7 -48 18 -52 25 -17 26 -189 100 -203 86 -3 -4 -9 -2 -13 3 -11 16 -155 84 -187 88 -17 3 -60 16 -95 30 -36 14 -81 29 -100 33 -41 9 -37 8 -77 25 -18 7 -33 17 -33 21 0 4 -9 8 -20 8 -11 0 -20 4 -20 8 0 4 -24 16 -52 26 -29 11 -57 23 -62 27 -6 5 -20 9 -32 9 -13 0 -29 7 -38 15 -8 8 -21 15 -29 15 -8 0 -31 7 -51 15 -20 8 -37 15 -38 14 -16 -4 -148 46 -183 70 -45 30 -96 55 -108 53 -4 -1 -23 5 -43 13 -20 8 -53 16 -75 17 -21 2 -39 6 -39 10 0 4 -6 5 -14 2 -8 -3 -25 0 -38 7 -13 7 -26 12 -30 11 -5 -1 -8 2 -8 7 0 4 -37 22 -82 39 -257 96 -339 124 -345 119 -9 -10 -43 12 -43 29 0 28 54 99 138 181 46 46 97 91 113 100 16 9 40 40 54 68 13 27 40 63 60 78 19 16 33 32 30 37 -3 5 8 19 25 31 16 13 30 29 30 36 0 7 4 13 9 13 12 0 61 44 61 54 0 4 17 25 38 47 20 21 57 66 82 99 25 34 60 76 79 93 19 18 41 40 50 50 16 18 66 23 76 8z m-820 -958 c44 -13 104 -36 133 -50 29 -13 59 -22 67 -19 8 3 17 1 21 -5 3 -6 12 -8 20 -5 8 3 14 1 14 -4 0 -6 9 -10 19 -10 11 0 21 -4 23 -10 2 -5 13 -11 25 -13 12 -2 26 -6 29 -10 4 -4 16 -7 26 -7 10 0 36 -9 57 -19 21 -11 84 -32 141 -46 56 -14 136 -42 179 -61 42 -20 85 -40 96 -45 31 -13 183 -69 250 -91 33 -11 65 -25 70 -31 6 -7 44 -25 85 -40 41 -16 83 -32 92 -38 10 -5 26 -9 35 -9 10 0 32 -9 49 -19 17 -10 80 -33 140 -51 109 -33 144 -46 219 -82 22 -11 72 -31 112 -44 39 -14 97 -40 128 -58 31 -19 104 -53 163 -76 59 -24 138 -58 175 -76 37 -19 80 -34 95 -34 15 0 69 -18 121 -40 52 -21 98 -37 102 -34 4 2 34 -12 67 -31 33 -19 69 -35 80 -35 17 0 21 -8 26 -52 3 -29 4 -69 1 -88 -8 -59 -4 -194 5 -200 6 -4 5 -20 -1 -41 -8 -22 -13 -189 -15 -494 -1 -253 -3 -482 -4 -510 -1 -27 -1 -133 -1 -235 1 -250 -6 -370 -22 -386 -12 -12 -97 16 -150 49 -28 18 -81 44 -117 56 -73 26 -230 101 -335 160 -122 68 -167 91 -176 91 -14 0 -214 94 -217 102 -2 5 -10 8 -17 8 -7 0 -15 4 -17 8 -1 5 -43 22 -93 39 -94 33 -216 92 -248 121 -11 9 -21 16 -23 14 -2 -1 -19 4 -37 12 -78 33 -228 101 -302 135 -78 37 -205 88 -375 151 -47 18 -91 37 -98 42 -15 13 -54 34 -150 83 -83 41 -167 69 -187 61 -9 -3 -12 0 -9 8 3 8 -10 19 -33 29 -21 9 -72 35 -113 57 -41 22 -77 41 -80 41 -9 1 -115 50 -150 69 -19 11 -34 25 -34 32 3 27 13 64 23 92 14 36 7 46 -10 14 -14 -27 -30 -39 -41 -32 -11 7 -4 327 7 344 5 8 4 15 -1 17 -5 2 -8 24 -7 50 1 26 -2 54 -7 62 -5 9 -4 24 2 36 13 24 10 236 -3 249 -9 9 0 266 11 319 12 59 11 179 -2 171 -9 -6 -12 40 -9 121 2 28 3 105 5 172 1 84 6 126 16 138 15 18 31 16 155 -22z"
         style="fill:#cb3c32;fill-opacity:1" />
      <path
         id="path10"
         d="M5025 3599 c-22 -22 -79 -70 -127 -107 -49 -36 -88 -69 -88 -73 0 -4 -14 -22 -30 -39 -43 -46 -23 -63 22 -20 18 18 32 37 30 42 -1 5 7 7 18 3 16 -5 33 7 79 52 32 32 62 69 66 82 6 18 9 21 16 10 7 -11 10 -9 15 8 4 13 10 21 14 18 13 -8 40 24 40 46 0 28 -11 24 -55 -22z"
         style="fill:#cb3c32;fill-opacity:1" />
      <path
         id="path12"
         d="M6356 2879 c-32 -27 -61 -49 -66 -49 -4 0 -28 -17 -52 -37 -23 -20 -34 -33 -24 -30 16 6 17 5 6 -8 -7 -8 -16 -13 -20 -10 -8 5 -50 -25 -95 -67 -17 -16 -34 -28 -38 -28 -5 0 -6 -7 -3 -16 3 -8 2 -12 -4 -9 -11 7 -110 -74 -110 -89 0 -6 13 2 28 17 15 15 32 27 38 27 5 0 -2 -9 -16 -20 -19 -15 -21 -20 -9 -20 16 0 34 26 31 42 -1 4 5 5 13 2 10 -4 15 0 15 11 0 9 4 14 9 10 6 -3 18 3 28 13 46 46 154 133 206 167 33 21 56 42 54 49 -3 8 3 12 17 12 16 -1 21 5 21 22 0 15 9 28 24 36 13 7 20 16 14 19 -5 3 -35 -17 -67 -44z"
         style="fill:#cb3c32;fill-opacity:1" />
      <path
         id="path14"
         d="M5966 2533 c-4 -4 -15 -8 -24 -8 -9 0 -16 -6 -14 -12 1 -7 -3 -12 -10 -10 -6 1 -14 -9 -18 -23 -4 -18 -13 -25 -30 -25 -14 0 -24 -5 -23 -12 2 -7 -4 -10 -13 -6 -13 5 -15 2 -10 -15 6 -17 2 -21 -21 -24 -22 -2 -29 -9 -31 -30 -2 -16 -8 -28 -13 -28 -6 0 -7 5 -4 10 3 6 2 10 -3 10 -5 0 -20 -15 -32 -32 -12 -18 -44 -51 -71 -73 -31 -26 -44 -42 -36 -47 13 -8 13 -8 -20 -12 -12 -1 -33 -14 -45 -27 -65 -69 -79 -88 -83 -109 -3 -13 -12 -31 -22 -39 -16 -15 -16 -15 -4 2 24 30 2 32 -25 1 -15 -16 -38 -42 -53 -57 -18 -20 -22 -30 -14 -35 9 -5 2 -14 -20 -26 l-32 -18 25 21 c14 11 20 21 14 21 -7 0 -40 -27 -75 -61 -35 -33 -55 -58 -45 -55 16 5 17 4 6 -8 -6 -9 -17 -14 -23 -13 -6 1 -12 -6 -13 -16 -2 -15 -1 -15 3 -1 4 12 7 13 12 5 11 -17 286 252 278 273 -3 8 -2 18 3 21 6 4 10 2 10 -4 0 -6 10 0 23 12 28 27 25 38 -3 12 -11 -10 -20 -14 -20 -8 0 14 39 48 46 40 4 -3 31 14 60 39 36 31 51 51 47 62 -4 14 -3 15 6 2 9 -12 17 -8 55 29 28 28 42 49 38 59 -3 9 -1 13 5 9 6 -4 26 10 45 31 20 20 50 48 68 62 44 34 122 111 117 116 -2 2 -7 1 -11 -3z"
         style="fill:#cb3c32;fill-opacity:1" />
      <path
         id="path16"
         d="M4825 1467 c-27 -36 -32 -53 -13 -41 7 4 8 3 4 -4 -4 -6 -12 -9 -19 -6 -8 3 -30 -19 -52 -49 -23 -32 -54 -61 -79 -72 -51 -25 -98 -64 -91 -76 4 -5 -1 -6 -9 -3 -9 3 -21 -5 -33 -23 -9 -15 -22 -31 -28 -35 -5 -4 -11 -13 -11 -20 -1 -7 -2 -19 -3 -25 0 -7 -5 -13 -11 -13 -5 0 -7 7 -4 15 9 23 -4 18 -17 -6 -8 -15 -8 -19 0 -15 6 4 11 1 11 -6 0 -7 32 20 70 61 66 69 83 90 60 76 -5 -3 -7 0 -4 9 3 8 12 12 20 9 22 -8 129 48 112 58 -9 6 -6 9 11 9 18 0 22 4 18 19 -3 14 -1 18 9 14 8 -3 14 -1 14 5 0 6 -6 13 -12 15 -7 3 -3 6 9 6 17 1 21 5 16 18 -4 10 -2 14 4 10 5 -3 20 5 33 20 16 19 18 24 6 20 -22 -9 -20 6 3 27 14 13 20 14 23 5 2 -7 7 -9 10 -4 3 6 0 16 -8 22 -11 11 -18 7 -39 -20z"
         style="fill:#cb3c32;fill-opacity:1" />
    </g>
    <path
       transform="scale(0.8,0.8)"
       inkscape:connector-curvature="0"
       d="m 306.82933,247.5513 c 2.63486,-1.96493 5.32751,-3.97532 8.46743,-5.07057 0.75737,-0.41297 1.59449,-0.60912 2.35558,-1.00487 0,0 -3.81444,3.03417 -3.81444,3.03417 l 0,0 c -0.78748,0.32725 -1.58903,0.6182 -2.36687,0.96941 -1.92896,0.80345 -0.98381,0.44862 2.71288,-1.73031 0.24826,-0.14633 -0.50098,0.28583 -0.74131,0.44486 -0.99793,0.66039 -0.47012,0.38238 -1.42677,1.09567 -0.21298,0.1588 -0.44058,0.29698 -0.66087,0.44547 0,0 -4.52563,1.81617 -4.52563,1.81617 z"
       id="path2997"
       style="color:#000000;fill:#cb3c32;fill-opacity:1;fill-rule:nonzero;stroke:#c42836;stroke-width:0;stroke-linecap:square;stroke-linejoin:round;stroke-miterlimit:4;stroke-opacity:1;stroke-dasharray:none;stroke-dashoffset:0;marker:none;visibility:visible;display:inline;overflow:visible;enable-background:accumulate" />
    <path
       transform="scale(0.8,0.8)"
       inkscape:connector-curvature="0"
       d="m 622.68926,239.12128 c 2.06324,-0.19036 4.12171,-0.33238 6.10579,-0.96179 1.05867,-0.34476 0.52635,-0.12582 1.45794,-0.59528 0.20415,-0.10288 0.81164,-0.42056 0.61363,-0.3063 -6.58261,3.79822 -4.0994,2.46325 -2.7537,1.40811 0.84304,-0.59689 1.36992,-1.47831 1.97425,-2.29158 0.48727,-0.58998 1.10373,-1.04179 1.62847,-1.59574 0,0 4.48837,-1.90097 4.48837,-1.90097 l 0,0 c -0.47716,0.61916 -1.06162,1.05612 -1.62855,1.58361 -0.68457,0.76602 -1.08324,1.76882 -1.94555,2.36863 -2.09529,2.03655 -4.92368,3.35653 -7.67923,4.29237 -2.02098,0.53572 -4.09337,0.66715 -6.16263,0.91879 0,0 3.90121,-2.91985 3.90121,-2.91985 z"
       id="path2999"
       style="color:#000000;fill:#cb3c32;fill-opacity:1;fill-rule:nonzero;stroke:#c42836;stroke-width:0;stroke-linecap:square;stroke-linejoin:round;stroke-miterlimit:4;stroke-opacity:1;stroke-dasharray:none;stroke-dashoffset:0;marker:none;visibility:visible;display:inline;overflow:visible;enable-background:accumulate" />
    <path
       transform="scale(0.8,0.8)"
       inkscape:connector-curvature="0"
       d="m 541.94967,499.18763 c 4.35087,-4.21842 9.36162,-7.68178 14.18918,-11.32193 4.19947,-3.41267 8.25221,-7.07202 11.56909,-11.36552 1.00027,-1.19039 1.26328,-2.7807 2.04043,-4.08752 0.45765,-0.76959 0.6857,-0.895 1.34276,-1.51636 2.39619,-1.63849 2.3011,-1.61402 6.37649,-3.76306 0.47242,-0.24912 1.00553,-0.36073 1.50339,-0.55408 1.86573,-0.72459 3.70048,-1.52877 5.53568,-2.3263 1.70602,-0.76464 3.28838,-1.7623 4.92942,-2.64975 0.42319,-0.22885 1.69158,-0.91588 1.28057,-0.66581 -1.02063,0.62097 -4.14353,2.38063 -3.11107,1.77953 1.66339,-0.96843 3.33594,-1.92104 5.00391,-2.88156 -1.15578,0.64966 -2.30044,1.31952 -3.46735,1.94896 -0.20696,0.11164 0.38238,-0.27491 0.58502,-0.39421 1.56546,-0.92166 3.12978,-1.84606 4.718,-2.72792 0.52029,-0.28889 1.19967,-0.48233 1.75992,-0.68522 1.49969,-0.84456 4.2836,-2.14415 -2.65323,1.54004 -0.29909,0.15885 0.49078,-0.47124 0.69314,-0.74278 0,0 4.46116,-1.96942 4.46116,-1.96942 l 0,0 c -1.21091,2.33268 -4.07567,3.03696 -6.33397,4.17597 -0.45713,0.18292 -0.7261,0.28508 -1.1746,0.48619 -0.18198,0.0816 -0.71213,0.35777 -0.54145,0.25459 1.19007,-0.71935 2.3934,-1.41679 3.60198,-2.10459 0.20611,-0.1173 -0.39035,0.26998 -0.59344,0.39243 -1.60306,0.96649 -3.21627,1.91602 -4.82441,2.87403 1.09289,-0.63364 4.37642,-2.52612 3.27868,-1.90091 -3.75131,2.13653 -7.46618,4.36491 -11.36146,6.23574 -1.84868,0.79764 -3.70552,1.56795 -5.5688,2.33056 -0.4927,0.20166 -1.89661,0.9369 -1.47554,0.61115 0.89295,-0.69081 1.93989,-1.15555 2.91491,-1.72468 0.35341,-0.20629 -0.69998,0.42406 -1.04996,0.63609 -0.52711,0.42984 -1.02251,0.76453 -1.4106,1.33495 -0.87519,1.28635 -1.03168,2.9843 -2.04921,4.1985 -3.31245,4.36583 -7.42283,8.04922 -11.63245,11.53066 -4.77037,3.60503 -9.71578,7.03007 -14.05927,11.15743 0,0 -4.47692,1.8948 -4.47692,1.8948 z"
       id="path3001"
       style="color:#000000;fill:#cb3c32;fill-opacity:1;fill-rule:nonzero;stroke:#c42836;stroke-width:0;stroke-linecap:square;stroke-linejoin:round;stroke-miterlimit:4;stroke-opacity:1;stroke-dasharray:none;stroke-dashoffset:0;marker:none;visibility:visible;display:inline;overflow:visible;enable-background:accumulate" />
    <path
       transform="scale(0.8,0.8)"
       inkscape:connector-curvature="0"
       d="m 630.93553,425.73956 c 1.40579,-1.0114 2.78089,-2.05932 4.10165,-3.17897 0.89934,-0.9039 1.62012,-1.87159 2.72056,-2.54454 1.97317,-2.25744 3.82389,-2.10081 5.90919,-3.13747 0,0 -3.81473,3.0303 -3.81473,3.0303 l 0,0 c -1.58152,0.66601 -4.39413,1.88004 2.45256,-1.64308 -1.33695,0.75949 -1.78683,1.27181 -2.76126,2.47542 -1.33321,1.09606 -2.64363,2.22197 -4.08235,3.18217 0,0 -4.52562,1.81617 -4.52562,1.81617 z"
       id="path3003"
       style="color:#000000;fill:#cb3c32;fill-opacity:1;fill-rule:nonzero;stroke:#c42836;stroke-width:0;stroke-linecap:square;stroke-linejoin:round;stroke-miterlimit:4;stroke-opacity:1;stroke-dasharray:none;stroke-dashoffset:0;marker:none;visibility:visible;display:inline;overflow:visible;enable-background:accumulate" />
    <path
       transform="scale(0.8,0.8)"
       inkscape:connector-curvature="0"
       d="m 602.87438,690.91736 c 2.28654,-1.65035 4.72241,-3.08949 7.14722,-4.5268 3.15459,-2.05274 6.33887,-4.06449 9.76466,-5.63771 0.2492,-0.0978 0.5045,-0.18122 0.7476,-0.29329 0.4165,-0.19203 0.81762,-0.41602 1.22091,-0.63444 0.19581,-0.10605 0.76943,-0.44869 0.57541,-0.3394 -3.6844,2.07544 -4.69268,2.83749 -2.9475,1.57755 1.72745,-1.3083 3.21458,-2.87931 4.73741,-4.41148 2.1691,-2.09087 4.53695,-3.96486 6.53539,-6.22573 1.33018,-1.53072 2.53077,-3.15543 4.05332,-4.50482 1.39786,-1.24793 3.06803,-2.11294 4.59732,-3.17455 1.0318,-0.97961 2.04145,-1.95891 3.21347,-2.77173 2.54034,-1.90301 9.94004,-5.43505 1.84899,-1.13307 -0.18495,0.0983 0.33093,-0.25709 0.49139,-0.39174 1.0654,-0.89405 -0.15725,0.0756 0.91567,-0.76193 0.83588,-0.62161 1.5256,-1.4104 1.95103,-2.3611 0.40139,-1.11309 1.0834,-2.08314 1.83535,-2.9845 0.55489,-0.49613 0.25919,-0.25839 0.89031,-0.70923 0,0 4.53617,-1.78075 4.53617,-1.78075 l 0,0 c -0.63585,0.41459 -0.32587,0.21331 -0.92983,0.60402 -0.8044,0.79902 -1.47216,1.77336 -1.90829,2.8195 -0.35433,1.04939 -0.99993,1.90356 -1.84231,2.62051 -0.50568,0.33261 -0.93694,0.88516 -1.4054,1.17745 -3.31808,2.07024 -8.24128,4.75235 -1.2285,0.73646 0.21321,-0.12209 -0.41437,0.26411 -0.62156,0.39617 -1.21902,0.74489 -2.27804,1.68676 -3.23081,2.75099 -1.47804,1.13174 -3.20632,1.90416 -4.61144,3.14381 -1.59569,1.27571 -2.77947,2.90833 -4.10769,4.44451 -1.95569,2.31225 -4.33163,4.18659 -6.52969,6.25933 -1.52003,1.5335 -2.97521,3.11862 -4.67272,4.46061 -2.38746,1.86907 -5.14633,3.28321 -7.91678,4.5079 -1.50597,0.69041 -4.63211,2.39373 1.70109,-1.16988 0.32957,-0.18544 -0.6414,0.40091 -0.95699,0.60926 -2.40459,1.58745 0.36649,-0.17503 -2.21169,1.44617 -2.40512,1.42562 -4.81919,2.847 -7.11588,4.44174 0,0 -4.52563,1.81617 -4.52563,1.81617 z"
       id="path3005"
       style="color:#000000;fill:#cb3c32;fill-opacity:1;fill-rule:nonzero;stroke:#c42836;stroke-width:0;stroke-linecap:square;stroke-linejoin:round;stroke-miterlimit:4;stroke-opacity:1;stroke-dasharray:none;stroke-dashoffset:0;marker:none;visibility:visible;display:inline;overflow:visible;enable-background:accumulate" />
    <path
       transform="scale(0.8,0.8)"
       inkscape:connector-curvature="0"
       d="m 529.94671,765.78888 c 1.64217,-2.86615 3.2963,-5.71875 5.0862,-8.4977 1.55605,-2.52568 3.05047,-5.09373 4.86915,-7.44223 1.21766,-1.70784 2.65355,-3.2377 4.07058,-4.77853 3.25062,-3.06048 7.29786,-5.13813 11.28254,-7.07338 4.01974,-1.76874 -1.7399,0.74088 1.91645,-0.77779 0.25131,-0.10439 0.97273,-0.48678 0.7378,-0.34946 -6.32857,3.69918 -3.86916,2.46324 -2.64825,1.15771 0.35507,-0.49331 0.79733,-0.87904 1.27623,-1.24337 0,0 4.54011,-1.77377 4.54011,-1.77377 l 0,0 c -0.52285,0.29503 -0.98733,0.6046 -1.33458,1.11268 -1.95395,2.6246 -5.38852,3.56201 -8.26455,4.88683 -2.30333,1.10844 -0.99539,0.52644 1.74318,-1.22414 0.4141,-0.2647 -0.85598,0.48393 -1.27171,0.74606 -0.77926,0.49136 -1.75669,1.18304 -2.47649,1.76434 -0.35863,0.28963 -0.6961,0.60451 -1.04415,0.90676 -1.41449,1.53425 -2.86019,3.04911 -4.08227,4.74405 -1.86833,2.31384 -3.38209,4.87458 -4.91978,7.41509 -1.80106,2.75562 -3.50061,5.56817 -5.01743,8.49125 0,0 -4.46303,1.9356 -4.46303,1.9356 z"
       id="path3007"
       style="color:#000000;fill:#cb3c32;fill-opacity:1;fill-rule:nonzero;stroke:#c42836;stroke-width:0;stroke-linecap:square;stroke-linejoin:round;stroke-miterlimit:4;stroke-opacity:1;stroke-dasharray:none;stroke-dashoffset:0;marker:none;visibility:visible;display:inline;overflow:visible;enable-background:accumulate" />
  </g>
  <path
     style="color:#000000;fill:#cfcfcf;fill-opacity:1;fill-rule:nonzero;stroke:#c42836;stroke-width:0;stroke-linecap:square;stroke-linejoin:round;stroke-miterlimit:4;stroke-opacity:1;stroke-dasharray:none;stroke-dashoffset:0;marker:none;visibility:visible;display:inline;overflow:visible;enable-background:accumulate"
     d="m 502.05383,776.72841 c -1.20368,-15.52673 -0.72653,-175.21918 0.59846,-200.2943 0.58596,-11.08914 1.62513,-22.07216 2.30926,-24.40672 0.68414,-2.33455 1.53722,-8.05765 1.89575,-12.71801 l 0.65187,-8.47336 9.01988,-6.67443 c 5.54022,-4.09959 9.41281,-7.79007 10.03845,-9.56639 1.38526,-3.93306 1.35635,-3.9131 3.31451,-2.28798 1.51167,1.25457 2.26073,0.86961 5.90037,-3.03227 2.29289,-2.45809 4.57969,-4.46926 5.08179,-4.46926 1.0688,0 7.49973,-7.12415 7.49973,-8.30817 0,-0.4434 2.507,-2.6898 5.5711,-4.99199 7.75034,-5.82317 17.72405,-15.36439 19.37485,-18.5347 0.9297,-1.78546 5.41161,-4.67537 13.70714,-8.83827 8.29691,-4.16359 13.27257,-7.372 15.22241,-9.81572 1.66222,-2.08323 3.85667,-3.63035 5.14937,-3.63037 2.31628,-3e-5 17.37878,-14.81688 17.37878,-17.09535 0,-0.64433 0.69184,-0.90602 1.53743,-0.58154 0.9302,0.35695 1.79667,-0.22688 2.19383,-1.47821 0.36102,-1.13749 1.32951,-2.06817 2.15218,-2.06817 0.82267,0 2.27798,-1.19381 3.23402,-2.65291 0.95604,-1.45909 2.28024,-2.67007 2.94266,-2.69106 0.66242,-0.021 2.44426,-1.09542 3.95964,-2.38761 4.74314,-4.0446 18.24572,-14.98568 21.23387,-17.20572 1.57115,-1.16728 8.44104,-7.27144 15.26646,-13.56478 6.92886,-6.38875 15.06076,-12.81581 18.41198,-14.55199 7.59781,-3.93619 10.82889,-6.50355 11.17794,-8.88178 0.1515,-1.03219 1.38967,-2.44148 2.75149,-3.13174 1.36182,-0.69027 3.00043,-2.2028 3.64135,-3.3612 1.45312,-2.62632 3.80103,-4.45771 10.90436,-8.50544 8.52016,-4.85512 21.56524,-15.29007 21.56524,-17.25036 0,-1.35679 0.28298,-1.46147 1.2734,-0.47105 1.89892,1.89892 5.84586,1.53864 7.42102,-0.67741 0.76264,-1.07294 2.62883,-2.25803 4.14708,-2.63353 2.68209,-0.66335 8.38174,-7.50672 8.38174,-10.06368 0,-0.69818 1.1828,-1.26941 2.62845,-1.26941 1.61535,0 3.28223,-0.99783 4.32473,-2.58887 0.93295,-1.42388 2.33991,-2.34189 3.12656,-2.04002 0.78665,0.30187 1.96122,-0.44323 2.61015,-1.65578 0.64894,-1.21254 2.11813,-2.20463 3.26487,-2.20463 1.14675,0 2.08499,-0.40322 2.08499,-0.89605 0,-0.49283 2.3383,-3.56816 5.19622,-6.83407 2.85792,-3.2659 5.36491,-6.32472 5.57109,-6.79736 0.2062,-0.47265 5.04518,-3.23739 10.75332,-6.14387 5.70814,-2.90647 12.53701,-7.32356 15.17528,-9.81574 2.63826,-2.49219 5.21125,-4.53125 5.71773,-4.53125 0.5065,0 1.88482,-1.55195 3.06295,-3.44877 1.17813,-1.89683 3.97381,-5.23055 6.21264,-7.40828 4.54141,-4.41748 24.08303,-14.78651 26.27885,-13.94389 0.77546,0.29757 1.70594,1.58243 2.06773,2.85524 2.50352,8.80761 1.24077,98.80267 -1.71335,122.10927 -0.59991,4.73303 -1.39645,25.2217 -1.77007,45.53037 l -0.67932,36.92484 -8.48929,8.19177 c -4.66911,4.50547 -10.63815,9.95832 -13.26452,12.11745 -3.94248,3.24108 -4.49765,4.11425 -3.18349,5.00704 1.29035,0.87659 1.10838,1.08442 -0.961,1.0976 -2.96929,0.0189 -7.44465,3.23196 -17.15399,12.31561 -3.83502,3.5879 -8.03621,7.09257 -9.33595,7.78818 -1.29975,0.69561 -2.80256,2.42039 -3.33957,3.83285 -0.58748,1.54517 -1.55807,2.34491 -2.43668,2.00775 -0.80317,-0.30819 -5.4743,2.41626 -10.38031,6.05436 -4.90601,3.6381 -10.50427,7.76851 -12.44058,9.1787 -1.93632,1.41018 -3.2813,3.18751 -2.98884,3.94964 0.31061,0.80944 -0.46084,1.63478 -1.85516,1.98473 -3.17069,0.7958 -17.6339,12.29194 -17.6339,14.01639 0,0.74445 -1.04579,1.68549 -2.32398,2.09118 -2.63821,0.83733 -15.77574,13.59163 -17.69614,17.17992 -0.6954,1.29937 -2.4444,2.65867 -3.88664,3.02065 -1.44226,0.36198 -2.62228,1.0839 -2.62228,1.60427 0,0.52037 -0.71629,0.94613 -1.59174,0.94613 -0.87546,0 -1.59175,0.85035 -1.59175,1.88967 0,1.12517 -1.28794,2.37583 -3.18348,3.09131 -1.75092,0.6609 -3.18349,1.9594 -3.18349,2.88556 0,0.92615 -0.5969,1.68714 -1.32645,1.69109 -1.94687,0.0106 -19.19675,17.65093 -18.44678,18.8644 0.35083,0.56764 -0.71552,1.30278 -2.36966,1.6336 -3.54442,0.70889 -12.47787,9.58008 -15.52835,15.42012 -1.16728,2.23472 -2.65177,3.8826 -3.29887,3.66195 -1.81914,-0.62029 -13.17554,12.16731 -12.46046,14.03079 0.43147,1.12437 0.11624,1.39744 -1.08226,0.93753 -1.89732,-0.72807 -15.52385,11.6114 -15.52385,14.05758 0,0.78294 -0.46526,1.42353 -1.03391,1.42353 -0.56866,0 -1.71986,1.31319 -2.55823,2.9182 -0.83837,1.60501 -3.84769,4.67879 -6.68737,6.83062 -2.83968,2.15184 -8.93781,7.51958 -13.5514,11.92831 -4.61361,4.40874 -11.87974,10.01351 -16.14699,12.45503 -4.26724,2.44153 -7.53905,4.65872 -7.27068,4.92709 0.26837,0.26837 -0.45146,1.68221 -1.59962,3.14186 -1.14816,1.45964 -2.08771,2.94765 -2.08787,3.30667 -8.2e-4,1.74214 -13.97485,15.19292 -19.2625,18.54123 -3.29906,2.08905 -6.89968,4.8878 -8.00138,6.21943 -1.1017,1.33163 -2.93893,2.94223 -4.08275,3.57911 -1.14382,0.63688 -3.51223,3.11668 -5.26315,5.51066 -1.75092,2.39398 -4.10059,4.67668 -5.22149,5.07266 -3.13798,1.10857 -13.02412,7.63996 -15.57997,10.29309 -1.25696,1.30479 -4.45123,5.71501 -7.09838,9.80049 -5.45451,8.41819 -12.12997,16.16404 -16.10254,18.68451 -1.47881,0.93826 -5.69131,4.4003 -9.36112,7.69342 -3.6698,3.29313 -6.84713,5.9875 -7.06072,5.9875 -0.2136,0 -0.78631,-5.13337 -1.2727,-11.40749 z"
     id="path3803"
     inkscape:connector-curvature="0"
     transform="scale(0.8,0.8)" />
  <path
     style="color:#000000;fill:#cfcfcf;fill-opacity:1;fill-rule:nonzero;stroke:#c42836;stroke-width:0;stroke-linecap:square;stroke-linejoin:round;stroke-miterlimit:4;stroke-opacity:1;stroke-dasharray:none;stroke-dashoffset:0;marker:none;visibility:visible;display:inline;overflow:visible;enable-background:accumulate"
     d="m 485.75535,795.62748 c -1.45909,-0.44841 -6.68901,-2.84885 -11.62202,-5.33431 -4.93301,-2.48545 -14.9397,-7.09387 -22.23706,-10.24092 -7.29737,-3.14706 -21.81374,-10.2663 -32.25861,-15.82054 -10.44487,-5.55423 -23.59804,-12.04861 -29.22929,-14.43195 -5.63124,-2.38332 -14.18592,-6.42075 -19.01039,-8.97203 -4.82446,-2.5513 -14.18756,-6.75634 -20.80687,-9.34453 -12.90178,-5.0447 -22.48987,-9.57476 -25.08912,-11.85382 -2.01752,-1.76897 -56.98324,-26.19883 -73.88984,-32.84078 -6.91731,-2.71755 -16.87463,-6.62989 -22.12738,-8.6941 -5.25275,-2.0642 -12.17683,-5.31497 -15.38685,-7.2239 -13.86939,-8.24789 -30.55889,-15.37993 -35.99019,-15.37993 -1.79117,0 -3.30956,-0.68753 -3.68624,-1.66913 -0.35228,-0.91801 -11.31137,-6.86711 -24.35354,-13.2202 -13.04217,-6.35309 -24.36014,-12.3308 -25.15105,-13.28378 -1.21692,-1.46631 -1.1448,-2.87092 0.46908,-9.13584 2.13907,-8.30366 1.77665,-10.04968 -1.08164,-5.21099 -1.05816,1.79132 -2.54998,3.25695 -3.31516,3.25695 -1.11267,0 -1.39811,-5.79005 -1.42554,-28.91666 -0.0189,-15.90416 0.089,-31.30427 0.2397,-34.22247 0.45722,-8.85439 0.28557,-19.39468 -0.57893,-35.54892 -0.59843,-11.18239 -0.38522,-20.02624 0.78028,-32.36543 1.23451,-13.06974 1.33021,-18.07796 0.41566,-21.75382 -1.26622,-5.08939 -1.12512,-46.79078 0.18004,-53.20937 0.53294,-2.62095 1.36195,-3.65462 3.13596,-3.91017 2.99485,-0.4314 18.23779,3.88717 30.62636,8.67695 5.13151,1.98399 11.2179,3.94586 13.52531,4.3597 2.30741,0.41384 5.93207,1.63848 8.05479,2.72141 4.14933,2.11683 22.26351,8.32873 40.27743,13.81235 6.12821,1.86549 15.43991,5.27413 20.69266,7.57475 5.25275,2.30062 17.66834,7.19227 27.59021,10.87033 9.92186,3.67807 20.90489,8.12804 24.40672,9.88883 3.50183,1.76078 10.18715,4.65776 14.85627,6.43772 24.72914,9.42725 31.32233,11.81994 37.02224,13.43551 8.57598,2.43074 43.66733,16.76079 55.18059,22.53377 14.49387,7.26751 47.00132,21.04304 55.29866,23.43365 12.6312,3.63926 29.21867,9.72721 35.44337,13.00845 3.26807,1.7227 6.52205,3.13322 7.23107,3.13447 2.82011,0.005 3.42381,4.70423 3.5619,27.72577 0.21171,35.2937 -2.01038,208.6957 -2.74517,214.2214 -1.19325,8.97326 -1.99941,9.64406 -9.00341,7.49158 l 0,0 z"
     id="path3805"
     inkscape:connector-curvature="0"
     transform="scale(0.8,0.8)" />
  <path
     style="color:#000000;fill:#cfcfcf;fill-opacity:1;fill-rule:nonzero;stroke:#c42836;stroke-width:0;stroke-linecap:square;stroke-linejoin:round;stroke-miterlimit:4;stroke-opacity:1;stroke-dasharray:none;stroke-dashoffset:0;marker:none;visibility:visible;display:inline;overflow:visible;enable-background:accumulate"
     d="m 481.21832,794.05455 c -3.37082,-1.38614 -6.71348,-3.00219 -7.42813,-3.59123 -0.71465,-0.58903 -7.98468,-4.01853 -16.15563,-7.62111 -8.17094,-3.60257 -25.8503,-12.12254 -39.28745,-18.93326 -28.23488,-14.31105 -55.27007,-27.07026 -68.95105,-32.54132 -5.25276,-2.10059 -14.48144,-6.45118 -20.50817,-9.66797 -13.42619,-7.16627 -59.56827,-27.59802 -86.1386,-38.14222 -10.79732,-4.28483 -27.51062,-11.80007 -37.14066,-16.70055 -9.63005,-4.90047 -20.13555,-9.52907 -23.34556,-10.28578 -3.21002,-0.7567 -7.05444,-2.22918 -8.54315,-3.27216 -2.24586,-1.57343 -12.00802,-6.66112 -47.42486,-24.71612 -2.81637,-1.43574 -2.99968,-4.10941 -0.84709,-12.35515 l 1.52362,-5.83639 -2.56611,3.1617 c -1.64289,2.02421 -2.92205,2.78776 -3.55548,2.12233 -1.29664,-1.36216 -1.9232,-119.67746 -0.73129,-138.09109 0.49689,-7.67631 0.52994,-14.83915 0.0734,-15.91742 -0.97889,-2.31221 -0.96274,-46.95332 0.0186,-51.42136 0.46211,-2.10396 1.5122,-3.27903 3.34034,-3.73786 3.18117,-0.79842 16.21826,2.60514 29.37121,7.66787 5.16541,1.98823 10.30526,3.61496 11.42189,3.61496 1.11663,0 2.85942,0.47401 3.87287,1.05336 1.01345,0.57935 3.75273,1.70888 6.08728,2.51007 2.33456,0.80119 10.45245,3.63432 18.03975,6.29583 7.58731,2.66152 19.24886,6.56339 25.91455,8.67082 6.6657,2.10743 15.9774,5.53329 20.69266,7.61301 4.71526,2.07973 14.06472,5.8393 20.77657,8.35461 6.71185,2.5153 13.63593,5.17337 15.38685,5.90682 1.75091,0.73344 3.42224,1.39047 3.71406,1.46005 0.29182,0.0696 1.72439,0.7872 3.18349,1.59469 1.4591,0.80749 2.6529,1.35388 2.6529,1.2142 0,-0.13967 3.1039,1.13076 6.89756,2.82319 3.79365,1.69244 10.47897,4.4166 14.85626,6.0537 4.37729,1.6371 11.30137,4.28681 15.38685,5.88825 4.08547,1.60144 12.20336,4.46742 18.03975,6.36886 11.2744,3.67308 39.77637,15.03437 49.09335,19.5693 24.3644,11.85911 56.74022,25.38022 66.04271,27.58141 3.36605,0.79648 38.68657,14.61982 41.22044,16.13238 1.60512,0.95815 1.638,25.96817 0.20302,154.47451 -0.67052,60.04697 -1.36547,89.5396 -2.14418,90.99462 -0.63367,1.18403 -0.77718,2.16008 -0.31891,2.16902 0.45826,0.008 0.11691,0.47915 -0.75854,1.04491 -2.45879,1.58899 -5.30285,1.2302 -11.96517,-1.50948 l 0,0 z"
     id="path3807"
     inkscape:connector-curvature="0"
     transform="scale(0.8,0.8)" />
  <path
     style="color:#000000;fill:#e8e8e8;fill-opacity:1;fill-rule:nonzero;stroke:#c42836;stroke-width:0;stroke-linecap:square;stroke-linejoin:round;stroke-miterlimit:4;stroke-opacity:1;stroke-dasharray:none;stroke-dashoffset:0;marker:none;visibility:visible;display:inline;overflow:visible;enable-background:accumulate"
     d="m 472.49083,790.09565 c -7.58731,-3.56419 -33.6123,-16.15992 -57.83332,-27.9905 -24.22102,-11.83059 -50.72354,-24.38246 -58.89448,-27.89307 -8.17095,-3.5106 -24.16796,-10.91273 -35.54893,-16.44918 -22.20989,-10.80436 -49.21691,-22.66576 -78.78674,-34.60289 -10.13747,-4.09242 -25.54635,-11.04753 -34.24196,-15.4558 -8.6956,-4.40826 -19.59418,-9.21038 -24.21905,-10.67137 -4.62487,-1.461 -9.65962,-3.54183 -11.18833,-4.62408 -1.52871,-1.08225 -12.98939,-7.07282 -25.46817,-13.31239 l -22.68869,-11.34468 0.67612,-4.96613 c 0.37186,-2.73137 0.94835,-6.3987 1.28108,-8.14962 l 0.60496,-3.18349 -2.14595,2.65291 c -1.42958,1.7673 -2.4994,2.29867 -3.20476,1.59174 -0.8753,-0.87724 -1.42412,-77.94863 -1.03523,-145.37917 0.0303,-5.25275 -0.0227,-20.53441 -0.1177,-33.95925 -0.11014,-15.55844 0.24913,-25.51852 0.99083,-27.46934 1.12168,-2.95023 1.35672,-3.03767 6.52162,-2.42596 5.26879,0.62401 29.2814,8.19739 48.3091,15.23631 5.32739,1.97076 19.7699,6.89916 32.09446,10.95199 12.32456,4.05284 25.87289,8.85255 30.1074,10.66603 4.23451,1.81347 15.62814,6.3193 25.31918,10.01295 9.69104,3.69365 21.15158,8.36222 25.46788,10.3746 8.71702,4.06414 28.77815,11.7516 51.35545,19.67952 18.92398,6.64508 40.10401,15.33672 59.94834,24.60099 19.92143,9.30025 42.01025,18.60365 49.11983,20.68835 6.48267,1.90087 29.99404,10.66732 40.28368,15.02017 4.45063,1.88277 7.43353,3.82968 7.88978,5.14962 1.31156,3.79421 -1.06896,238.33263 -2.47184,243.53664 -1.62301,6.02058 -5.23919,5.64711 -22.12456,-2.2849 l 0,0 z"
     id="path3809"
     inkscape:connector-curvature="0"
     transform="scale(0.8,0.8)" />
  <path
     style="color:#000000;fill:#ff8284;fill-opacity:1;fill-rule:nonzero;stroke:#c42836;stroke-width:0;stroke-linecap:square;stroke-linejoin:round;stroke-miterlimit:4;stroke-opacity:1;stroke-dasharray:none;stroke-dashoffset:0;marker:none;visibility:visible;display:inline;overflow:visible;enable-background:accumulate"
     d="m 500.7696,520.98841 c -0.53782,-1.02137 -1.30623,-8.30359 -1.70758,-16.18272 -1.30029,-25.52703 -3.35883,-42.69097 -10.13258,-84.48472 -0.57847,-3.56912 -1.05537,-9.06063 -1.05978,-12.20336 -0.0106,-7.53007 -1.77239,-18.47664 -3.8156,-23.70699 -1.17669,-3.01222 -1.44207,-5.90201 -0.93958,-10.23153 0.59111,-5.09299 1.26516,-6.53378 4.32348,-9.24141 1.99276,-1.76425 3.6232,-3.95878 3.6232,-4.87672 0,-0.91794 -1.92025,-2.88119 -4.26723,-4.36276 -5.14798,-3.24979 -4.87607,-4.13293 3.6801,-11.95279 7.3057,-6.677 17.33401,-13.72182 28.55396,-20.05895 10.58704,-5.97966 15.07262,-9.49442 33.27674,-26.07456 7.84869,-7.14851 15.81581,-13.95234 17.70472,-15.11962 1.88891,-1.16727 5.31238,-3.59592 7.60772,-5.39699 2.29533,-1.80108 8.7098,-5.8094 14.25437,-8.90737 5.54457,-3.09798 12.94617,-8.10869 16.44801,-11.13491 3.50183,-3.02622 8.71623,-7.26462 11.58756,-9.41866 2.87133,-2.15405 5.86892,-4.84204 6.66131,-5.97333 0.79238,-1.13129 2.04786,-1.8239 2.78995,-1.53914 1.89158,0.72587 13.30938,-6.87066 19.95611,-13.27725 3.06372,-2.95304 5.67708,-5.36915 5.80746,-5.36915 1.83588,0 26.80516,-15.54298 33.21385,-20.67509 4.71062,-3.7723 10.36134,-7.83545 12.55713,-9.02922 2.1958,-1.19376 8.29006,-5.24219 13.54281,-8.9965 10.08827,-7.2104 12.87809,-8.76435 20.89635,-11.63937 6.46338,-2.31751 11.73407,-5.88548 13.03902,-8.82673 0.57164,-1.28844 2.36235,-2.80382 3.97936,-3.36751 3.3606,-1.17151 4.09082,-3.80609 0.81768,-2.95015 -1.16728,0.30525 -2.12233,0.17328 -2.12233,-0.29328 0,-1.36284 3.14656,-2.18621 5.80495,-1.519 2.79594,0.70174 4.77842,-1.44562 2.58575,-2.80078 -2.13155,-1.31736 -0.46815,-2.3545 5.15447,-3.21382 2.76384,-0.42241 7.28558,-1.64253 10.0483,-2.71137 4.84853,-1.8758 5.14686,-1.87672 8.58251,-0.0265 1.95765,1.05427 7.38249,5.43475 12.05519,9.7344 7.78796,7.1662 16.7068,14.0582 25.5502,19.74382 2.01394,1.2948 5.09456,5.16957 7.37474,9.27584 2.37542,4.27779 8.3204,11.66877 15.11159,18.78717 12.54397,13.14839 22.04778,28.02502 20.87886,32.68239 -1.00206,3.99249 -8.50402,10.9367 -15.75359,14.58234 -9.09042,4.57137 -19.20329,12.80052 -22.39147,18.22063 -3.63505,6.17983 -6.42151,8.5029 -15.04585,12.5437 -5.45842,2.55745 -9.11646,5.28796 -13.79511,10.29722 -3.50183,3.74928 -12.81353,11.70307 -20.69265,17.67507 -7.87913,5.97199 -16.95206,13.23 -20.16208,16.12889 -3.21001,2.89891 -8.224,6.15655 -11.1422,7.23922 -6.58308,2.44237 -11.16598,5.28601 -19.20428,11.91603 -3.44499,2.84144 -12.94892,10.3436 -21.11987,16.67147 -16.65905,12.90135 -17.68076,13.79391 -33.90164,29.61659 -6.3895,6.23263 -12.01444,11.33205 -12.49988,11.33205 -1.75611,0 -11.9587,8.84212 -11.81499,10.23952 0.0811,0.7883 -0.72061,1.43326 -1.78148,1.43326 -1.06088,0 -3.75358,1.76487 -5.98378,3.92193 -2.2302,2.15706 -4.36919,3.84302 -4.75331,3.74656 -0.38412,-0.0965 -3.61769,2.42945 -7.1857,5.61313 -3.56802,3.18368 -10.8941,9.36401 -16.28019,13.73409 -5.38608,4.37006 -11.46422,10.34721 -13.50695,13.28253 -3.21289,4.61679 -5.17709,6.0552 -14.5562,10.65972 -6.81082,3.34366 -11.54554,6.38789 -12.73394,8.18741 -3.51897,5.32855 -15.64513,16.75294 -23.11505,21.77732 -4.08547,2.74794 -12.07559,8.70497 -17.75582,13.23784 -18.47147,14.7404 -25.69123,18.13525 -28.24674,13.28211 z"
     id="path3817"
     inkscape:connector-curvature="0"
     transform="scale(0.8,0.8)" />
  <path
     style="color:#000000;fill:#ffa3a4;fill-opacity:1;fill-rule:nonzero;stroke:#c42836;stroke-width:0;stroke-linecap:square;stroke-linejoin:round;stroke-miterlimit:4;stroke-opacity:1;stroke-dasharray:none;stroke-dashoffset:0;marker:none;visibility:visible;display:inline;overflow:visible;enable-background:accumulate"
     d="m 478.35316,337.93799 c 0.0143,-3.06411 0.47406,-7.51095 1.02176,-9.88187 0.5477,-2.37092 1.7267,-11.44385 2.62001,-20.16207 0.89331,-8.71822 2.53832,-19.67149 3.65557,-24.3406 1.11725,-4.66912 2.35355,-12.54824 2.74734,-17.50918 0.39379,-4.96093 1.63166,-13.48953 2.75081,-18.95243 1.11916,-5.4629 2.03484,-11.27277 2.03484,-12.91081 0,-1.63803 0.5969,-3.1944 1.32645,-3.4586 1.05988,-0.38383 1.0606,-0.93069 0.004,-2.72114 -0.85356,-1.44585 -1.56221,-9.30636 -1.99759,-22.15776 -0.74989,-22.13501 0.6635,-35.86043 5.53736,-53.77329 3.46196,-12.72369 7.18733,-20.01568 13.39934,-26.22769 5.51099,-5.51099 18.6156,-15.75594 26.29962,-20.56057 2.62638,-1.64221 7.16285,-5.00785 10.08104,-7.479208 2.9182,-2.471353 8.40971,-5.914992 12.20336,-7.652531 5.96654,-2.732747 24.84219,-13.430812 35.88779,-20.339958 4.36007,-2.727269 8.64,-2.798418 13.7638,-0.228809 4.62044,2.317171 16.00827,5.968524 21.79163,6.987189 2.23269,0.393261 5.57535,1.583953 7.42813,2.645981 1.85278,1.062029 5.51755,3.176732 8.14392,4.699339 2.62638,1.522607 5.82147,2.774128 7.10022,2.781158 1.27874,0.007 2.62091,0.491596 2.98259,1.076813 0.43732,0.707584 1.34701,0.695077 2.71554,-0.03733 1.13185,-0.605756 2.05792,-0.691031 2.05792,-0.189505 0,0.501528 3.52219,1.676213 7.8271,2.610412 8.60816,1.868042 61.98205,24.275199 77.59643,32.576139 5.25275,2.79247 11.98153,5.87065 14.95285,6.84039 5.31626,1.73505 9.98445,5.03825 9.98445,7.06499 0,0.56815 -2.74576,2.77044 -6.10168,4.89398 -3.35592,2.12353 -8.96682,6.08719 -12.46865,8.80812 -7.7752,6.04134 -27.5687,19.54537 -31.83486,21.7192 -0.58364,0.29739 -2.25497,1.03287 -3.71406,1.6344 -4.00273,1.65017 -13.42123,7.90819 -36.61009,24.32515 -4.08547,2.89238 -11.72584,7.87216 -16.97859,11.06617 -5.25275,3.19401 -13.63363,9.10106 -18.62418,13.12678 -4.99056,4.02571 -10.78593,8.37767 -12.87861,9.67102 -2.09268,1.29335 -4.06441,3.344 -4.38161,4.55701 -0.41432,1.58438 -1.13896,2.02703 -2.57312,1.57185 -2.02415,-0.64243 -12.33777,5.81433 -22.55928,14.12307 -2.62638,2.1349 -9.07294,6.70265 -14.32569,10.15056 -14.76426,9.69127 -28.70546,21.08073 -54.60705,44.612 -6.10468,5.54603 -11.94071,10.08368 -12.96897,10.08368 -2.93303,0 -13.38549,4.95057 -19.06011,9.02737 -2.83761,2.03862 -5.55246,3.70658 -6.03301,3.70658 -0.48055,0 -2.0314,1.2577 -3.44632,2.79488 -3.37958,3.67163 -12.58017,11.00022 -13.81008,11.00022 -0.53123,0 -0.9542,-2.507 -0.93993,-5.5711 z"
     id="path3825"
     inkscape:connector-curvature="0"
     transform="scale(0.8,0.8)" />
  <path
     style="color:#000000;fill:#fdd1d2;fill-opacity:1;fill-rule:nonzero;stroke:#c42836;stroke-width:0;stroke-linecap:square;stroke-linejoin:round;stroke-miterlimit:4;stroke-opacity:1;stroke-dasharray:none;stroke-dashoffset:0;marker:none;visibility:visible;display:inline;overflow:visible;enable-background:accumulate"
     d="m 486.72674,534.54571 c -0.92483,-0.54871 -5.4613,-1.77314 -10.08104,-2.72095 -10.04541,-2.06097 -33.84628,-9.86805 -43.68718,-14.33013 -3.88216,-1.76025 -7.64708,-2.97458 -8.36653,-2.6985 -0.71944,0.27608 -1.46776,0.0229 -1.66295,-0.56268 -0.34962,-1.04886 -6.46173,-3.8082 -19.88194,-8.97578 -3.75934,-1.44757 -8.29581,-3.71645 -10.08103,-5.04197 -4.11457,-3.05503 -15.14623,-7.94578 -19.8266,-8.78987 -1.96974,-0.35524 -7.65287,-2.71017 -12.62919,-5.23318 -4.97632,-2.52301 -18.05627,-7.49246 -29.06657,-11.04324 -11.01029,-3.55076 -21.74196,-7.37255 -23.84817,-8.49286 -8.31442,-4.42253 -22.54093,-10.66431 -24.30652,-10.66431 -1.02612,0 -2.80759,-0.64924 -3.95882,-1.44275 -1.15123,-0.79352 -9.01723,-3.67088 -17.48,-6.39415 -8.81163,-2.83554 -18.56109,-6.80189 -22.81498,-9.28177 -9.59049,-5.59096 -17.80638,-8.17304 -34.89808,-10.96771 -1.68478,-0.27548 -5.9278,-1.99172 -9.42895,-3.81386 -8.08219,-4.20633 -48.63685,-19.03552 -52.05806,-19.03552 -1.41552,0 -3.14519,-0.68864 -3.84371,-1.53031 -2.50643,-3.02006 1.97666,-9.21579 18.4073,-25.43925 8.81621,-8.70505 17.7008,-18.31953 19.74354,-21.36552 2.04273,-3.04598 6.69858,-8.94843 10.34632,-13.11654 3.64775,-4.16812 6.63227,-8.01148 6.63227,-8.5408 0,-0.52933 0.94187,-1.26135 2.09304,-1.62672 1.15118,-0.36537 8.27184,-8.15729 15.8237,-17.31539 7.55186,-9.15809 16.1158,-18.97677 19.03098,-21.81928 4.98222,-4.85802 5.54511,-5.12521 9.37889,-4.45199 2.24322,0.39391 5.51114,0.69889 7.26206,0.67772 16.48235,-0.19921 17.90117,0.0144 32.24407,4.85512 7.8988,2.66582 18.43966,6.90562 23.42413,9.42179 4.98447,2.51616 11.21152,4.90913 13.8379,5.31772 2.62637,0.40859 10.02798,2.60668 16.44801,4.88465 17.46225,6.196 39.06221,11.56146 50.40519,12.52072 5.54457,0.4689 11.46151,1.40501 13.14876,2.08023 1.68724,0.67523 6.93999,2.11506 11.67278,3.19962 8.7256,1.99956 18.07336,5.66743 19.23535,7.54757 0.35044,0.56702 2.01336,1.03095 3.69539,1.03095 1.68202,0 3.35553,0.48104 3.7189,1.06899 0.36338,0.58794 2.42102,1.96283 4.57257,3.05531 2.15154,1.09247 6.00019,3.03861 8.55256,4.32475 2.55237,1.28613 6.37256,2.57729 8.4893,2.86923 5.72153,0.78912 9.63198,2.51726 10.85125,4.79548 0.59682,1.11517 2.24989,2.47042 3.67351,3.01168 2.02352,0.76934 2.58838,1.7499 2.58838,4.49318 0,1.92999 0.71611,6.12013 1.59135,9.31143 3.55215,12.9518 6.90518,31.51349 8.412,46.56699 0.87708,8.7623 2.99198,22.27575 4.69976,30.02988 2.94499,13.37164 3.12672,15.65749 3.52528,44.34154 0.23112,16.63371 0.16384,32.3877 -0.1495,35.00886 -0.59091,4.943 -2.19285,6.20505 -5.43472,4.28162 l 0,0 z"
     id="path3833"
     inkscape:connector-curvature="0"
     transform="scale(0.8,0.8)" />
  <path
     style="color:#000000;fill:#fdd1d2;fill-opacity:1;fill-rule:nonzero;stroke:#c42836;stroke-width:0;stroke-linecap:square;stroke-linejoin:round;stroke-miterlimit:4;stroke-opacity:1;stroke-dasharray:none;stroke-dashoffset:0;marker:none;visibility:visible;display:inline;overflow:visible;enable-background:accumulate"
     d="m 455.80927,344.52472 c -4.50575,-1.10781 -10.9523,-3.39523 -14.32569,-5.08316 -3.37338,-1.68792 -8.04351,-3.6867 -10.37806,-4.44172 -2.33456,-0.75502 -5.92213,-2.4805 -7.97239,-3.8344 -2.11066,-1.39377 -7.49435,-3.17614 -12.41053,-4.10872 -4.77552,-0.9059 -10.49964,-2.42327 -12.72026,-3.37193 -2.22062,-0.94865 -8.33519,-2.08882 -13.58794,-2.53371 -17.48957,-1.48129 -65.10865,-15.70513 -87.68238,-26.19077 -5.03602,-2.33927 -11.72134,-5.0903 -14.85627,-6.11342 -3.13492,-1.02311 -6.17738,-2.21228 -6.76102,-2.64259 -0.58364,-0.43031 -2.89441,-1.11303 -5.13504,-1.51714 -4.83685,-0.87237 -9.19065,-2.72853 -9.19065,-3.91827 0,-1.40338 12.05968,-10.9996 18.33642,-14.59078 3.21685,-1.84049 9.3497,-4.79 13.62856,-6.55447 10.15079,-4.18585 20.01075,-10.56076 20.02267,-12.94557 0.0107,-2.13333 1.72159,-2.50679 2.43072,-0.53058 0.32626,0.9092 4.44313,-0.65849 13.08767,-4.98376 12.86148,-6.43519 20.21857,-11.28638 29.49806,-19.4507 2.86748,-2.52288 9.31404,-6.53321 14.32568,-8.91185 5.01166,-2.37864 11.1655,-5.69771 13.67522,-7.37571 2.50973,-1.678 5.01672,-3.05091 5.5711,-3.05091 0.55439,0 1.00797,-0.47752 1.00797,-1.06116 0,-0.58364 0.60731,-1.06116 1.34959,-1.06116 0.74226,0 3.72678,-2.22234 6.63226,-4.93853 2.90547,-2.7162 11.01295,-8.26699 18.01662,-12.3351 7.00366,-4.06811 14.67769,-8.97034 17.05339,-10.89384 2.37568,-1.92351 9.30643,-6.75884 15.40164,-10.74518 6.0952,-3.98634 14.24007,-9.51612 18.0997,-12.28841 3.85964,-2.77228 7.46754,-5.04052 8.01756,-5.04052 0.55003,0 3.56014,-1.91009 6.68916,-4.24464 3.12902,-2.33456 6.06123,-4.24465 6.51602,-4.24465 0.4548,0 1.38737,1.87064 2.07239,4.15699 1.0721,3.57838 0.78908,6.56933 -2.03344,21.48853 -1.80341,9.53234 -3.57631,19.71915 -3.93979,22.63734 -0.74004,5.94135 1.09247,33.19679 2.57894,38.35747 1.22567,4.25522 -0.36863,18.92258 -2.98029,27.41825 -1.07927,3.51081 -2.30332,9.96471 -2.72012,14.342 -0.41679,4.37729 -1.66604,12.64376 -2.77608,18.36992 -1.11005,5.72617 -2.74704,16.64756 -3.63776,24.26978 -0.89072,7.62221 -3.09986,19.76985 -4.90919,26.99475 -3.77017,15.05482 -2.60986,14.25912 -15.99444,10.96832 l 0,0 z"
     id="path3841"
     inkscape:connector-curvature="0"
     transform="scale(0.8,0.8)" />
</svg>
