<?xml version="1.0" encoding="UTF-8" standalone="no"?>
<svg
   xmlns:dc="http://purl.org/dc/elements/1.1/"
   xmlns:cc="http://creativecommons.org/ns#"
   xmlns:rdf="http://www.w3.org/1999/02/22-rdf-syntax-ns#"
   xmlns:svg="http://www.w3.org/2000/svg"
   xmlns="http://www.w3.org/2000/svg"
   xmlns:xlink="http://www.w3.org/1999/xlink"
   xmlns:sodipodi="http://sodipodi.sourceforge.net/DTD/sodipodi-0.dtd"
   xmlns:inkscape="http://www.inkscape.org/namespaces/inkscape"
   version="1.0"
   width="712.000000pt"
   height="701.000000pt"
   viewBox="0 0 712.000000 701.000000"
   preserveAspectRatio="xMidYMid meet"
   id="svg2"
   inkscape:version="0.48.4 r9939"
   sodipodi:docname="Roof8.svg">
  <defs
     id="defs16">
    <linearGradient
       inkscape:collect="always"
       xlink:href="#linearGradient3806"
       id="linearGradient3812"
       x1="673.57593"
       y1="383.13223"
       x2="485.28409"
       y2="112.91946"
       gradientUnits="userSpaceOnUse" />
    <linearGradient
       id="linearGradient3806">
      <stop
         style="stop-color:#ff8284;stop-opacity:1;"
         offset="0"
         id="stop3808" />
      <stop
         style="stop-color:#fdd1d2;stop-opacity:1;"
         offset="1"
         id="stop3810" />
    </linearGradient>
    <linearGradient
       gradientTransform="translate(-300.17167,-62.677807)"
       y2="112.91946"
       x2="485.28409"
       y1="383.13223"
       x1="673.57593"
       gradientUnits="userSpaceOnUse"
       id="linearGradient3011"
       xlink:href="#linearGradient3806"
       inkscape:collect="always" />
    <linearGradient
       inkscape:collect="always"
       xlink:href="#linearGradient3806"
       id="linearGradient3864"
       gradientUnits="userSpaceOnUse"
       x1="673.57593"
       y1="383.13223"
       x2="485.28409"
       y2="112.91946"
       gradientTransform="matrix(0.42553191,0,0,0.42553191,625,371.96762)" />
    <linearGradient
       inkscape:collect="always"
       xlink:href="#linearGradient3806"
       id="linearGradient3868"
       gradientUnits="userSpaceOnUse"
       x1="673.57593"
       y1="383.13223"
       x2="485.28409"
       y2="112.91946"
       gradientTransform="matrix(0.28089888,0,0,0.28089888,190.41273,415.29501)" />
    <linearGradient
       inkscape:collect="always"
       xlink:href="#linearGradient3806"
       id="linearGradient3872"
       gradientUnits="userSpaceOnUse"
       x1="673.57593"
       y1="383.13223"
       x2="485.28409"
       y2="112.91946"
       gradientTransform="matrix(0.69444444,0,0,0.69444444,189.51542,319.26661)" />
  </defs>
  <sodipodi:namedview
     pagecolor="#ffffff"
     bordercolor="#666666"
     borderopacity="1"
     objecttolerance="10"
     gridtolerance="10"
     guidetolerance="10"
     inkscape:pageopacity="0"
     inkscape:pageshadow="2"
     inkscape:window-width="1920"
     inkscape:window-height="1147"
     id="namedview14"
     showgrid="false"
     inkscape:zoom="0.55048947"
     inkscape:cx="297.15431"
     inkscape:cy="241.01117"
     inkscape:window-x="-8"
     inkscape:window-y="-8"
     inkscape:window-maximized="1"
     inkscape:current-layer="svg2" />
  <metadata
     id="metadata4">
Created by potrace 1.14, written by Peter Selinger 2001-2017
<rdf:RDF>
  <cc:Work
     rdf:about="">
    <dc:format>image/svg+xml</dc:format>
    <dc:type
       rdf:resource="http://purl.org/dc/dcmitype/StillImage" />
    <dc:title></dc:title>
  </cc:Work>
</rdf:RDF>
</metadata>
  <g
     id="g3021"
     style="fill:#cb3c32;fill-opacity:1">
    <g
       id="g6"
       stroke="none"
       fill="#000000"
       transform="translate(0.000000,701.000000) scale(0.100000,-0.100000)"
       style="fill:#cb3c32;fill-opacity:1">
      <path
         id="path8"
         d="M4780 4618 c0 -3 29 -67 64 -144 35 -76 73 -159 84 -184 11 -25 36 -80 56 -124 41 -90 41 -92 21 -114 -100 -109 -181 -167 -345 -248 -449 -223 -1175 -276 -1744 -129 -198 51 -400 132 -495 199 -28 20 -55 36 -61 36 -6 0 -55 45 -110 99 -108 107 -150 176 -176 286 l-14 60 4 -62 c4 -68 45 -169 94 -233 21 -27 28 -50 33 -105 9 -97 41 -173 108 -258 31 -40 68 -95 82 -124 13 -29 49 -81 79 -116 158 -185 443 -316 814 -374 137 -22 495 -24 631 -5 168 24 396 84 466 123 13 7 30 14 36 15 25 4 169 86 218 124 57 45 110 94 142 132 23 29 73 117 73 131 0 7 25 39 111 145 31 38 61 128 66 197 7 88 25 114 43 61 17 -53 27 -52 45 6 12 42 13 58 3 85 -10 29 -9 39 11 80 12 25 24 69 26 97 3 28 2 42 -1 31 -10 -41 -38 -111 -52 -133 -14 -22 -16 -20 -72 80 -145 259 -208 363 -223 366 -10 2 -17 2 -17 0z m226 -671 c-4 -24 -23 -77 -42 -118 -81 -170 -308 -330 -599 -423 -203 -64 -359 -92 -596 -107 -493 -30 -985 77 -1280 279 -99 67 -129 97 -130 130 -1 17 -3 20 -6 10 -2 -10 -8 -18 -11 -18 -11 0 -83 101 -98 137 -19 44 -45 145 -39 151 3 3 26 -15 53 -39 67 -62 111 -99 116 -99 3 0 42 -23 88 -50 193 -115 434 -192 773 -247 172 -27 582 -25 774 6 285 45 537 126 728 234 113 64 124 72 207 149 33 31 63 55 65 53 2 -2 0 -24 -3 -48z m-209 -394 c-21 -40 -132 -144 -205 -191 -33 -22 -58 -43 -54 -46 3 -4 -2 -4 -12 0 -15 6 -17 4 -11 -6 5 -9 4 -11 -4 -6 -6 4 -17 4 -24 -2 -7 -5 -48 -24 -92 -42 -232 -96 -481 -140 -787 -140 -500 0 -946 146 -1137 372 -20 24 -42 49 -49 57 -30 31 1 20 61 -23 221 -154 557 -256 943 -287 407 -32 870 52 1169 211 86 46 190 113 200 131 15 22 16 -1 2 -28z"
         style="fill:#cb3c32;fill-opacity:1" />
      <path
         id="path10"
         d="M1827 4485 c1 -54 4 -100 6 -102 2 -2 3 -27 1 -56 -3 -54 0 -49 11 17 3 21 8 36 10 34 2 -2 18 -69 35 -148 17 -80 33 -152 37 -160 3 -8 7 -24 8 -35 2 -11 29 -130 60 -265 86 -370 109 -469 154 -655 47 -195 48 -210 21 -225 -25 -13 -26 -33 -2 -26 13 5 22 -1 31 -20 9 -20 6 -85 -13 -317 -59 -695 -96 -1425 -66 -1298 4 18 13 37 20 41 8 5 10 18 6 36 -4 16 1 77 9 134 9 58 18 134 21 170 2 36 11 126 19 200 19 173 62 631 78 825 l12 150 155 8 c85 4 270 14 410 22 140 7 302 16 359 19 114 5 164 25 71 28 l-55 1 50 7 50 7 -45 3 -45 3 50 7 50 7 -69 1 c-38 1 -220 -7 -405 -19 -185 -11 -392 -21 -461 -22 l-125 -2 -31 120 c-18 66 -57 219 -89 340 -31 121 -68 261 -81 310 -14 50 -27 99 -29 110 -3 11 -22 88 -44 170 -21 83 -54 209 -72 280 -19 72 -37 132 -42 133 -4 2 -5 8 -1 13 3 5 2 15 -3 22 -4 6 -9 21 -10 32 -2 11 -14 60 -26 109 l-23 90 3 -99z"
         style="fill:#cb3c32;fill-opacity:1" />
      <path
         id="path12"
         d="M5548 3049 c-24 -14 -24 -39 12 -465 32 -387 69 -734 99 -934 l19 -125 1 110 c1 120 -22 656 -40 905 -36 535 -37 541 -91 509z"
         style="fill:#cb3c32;fill-opacity:1" />
    </g>
    <path
       transform="scale(0.8,0.8)"
       inkscape:connector-curvature="0"
       d="m 397.25403,515.87139 c 9.60972,0.0648 19.21979,0.0738 28.82971,0.0738 8.80148,0.13141 17.5939,-0.11362 26.38306,-0.54593 5.04897,-0.14858 10.09054,-0.42817 15.13579,-0.66768 5.30504,-0.16952 10.59117,-0.67821 15.88585,-1.03075 3.37947,-0.41207 6.66777,-1.31222 10.00523,-1.96205 9.7899,-1.66804 19.6057,-3.14156 29.47334,-4.26474 5.78008,-0.60977 11.57765,-1.08858 17.38884,-1.24688 5.78746,-0.47084 11.5018,-1.5871 17.21754,-2.57654 5.58038,-0.94044 11.19432,-1.72251 16.84217,-2.10803 5.95364,-0.76116 11.90801,-1.43895 17.89718,-1.87803 5.68628,-0.53592 11.42315,-0.30339 17.10861,-0.78148 0.44494,-0.0533 0.89342,-0.0826 1.33482,-0.15995 2.31599,-0.40575 -0.17361,-0.12898 2.21415,-0.51876 2.36882,-0.3867 4.79406,-0.54859 7.18148,-0.74982 7.5512,-0.29894 15.07062,-0.95714 22.5906,-1.67878 4.58682,-0.37897 9.17038,-0.74541 13.74487,-1.2554 6.67038,-0.6562 13.37285,-0.85886 20.06938,-1.04232 3.7099,-0.10223 7.42118,-0.13182 11.13233,-0.13213 1.96989,3e-4 3.93978,0.002 5.90967,0.002 0,0 -4.52031,3.28314 -4.52031,3.28314 l 0,0 c -1.96402,-0.005 -3.92805,-0.0124 -5.89208,-0.0138 -3.68985,0.003 -7.37986,0.0154 -11.06888,0.10341 -6.69556,0.16556 -13.39767,0.38432 -20.06166,1.09493 -4.56627,0.5111 -9.14302,0.85846 -13.72249,1.22715 -7.52289,0.70051 -15.04704,1.30817 -22.59436,1.67833 -2.40664,0.2291 -4.82662,0.42941 -7.20879,0.86099 -1.18444,0.21459 -1.06392,0.29745 -2.24488,0.46465 -0.44271,0.0627 -0.88973,0.0897 -1.3346,0.13453 -5.66851,0.35666 -11.36624,0.21613 -17.02946,0.72413 -6.01385,0.4619 -11.98427,1.21067 -17.96894,1.92759 -5.61289,0.40388 -11.19634,1.14563 -16.74124,2.10236 -5.75327,0.99455 -11.50609,2.15985 -17.33792,2.56753 -5.76313,0.16482 -11.51583,0.58745 -17.2485,1.20154 -9.88674,1.12407 -19.7243,2.59877 -29.51861,4.35717 -3.3491,0.698 -6.66728,1.61781 -10.08383,1.92841 -5.28245,0.33612 -10.55684,0.81601 -15.84832,0.99204 -5.05084,0.25332 -10.09816,0.54211 -15.15399,0.67916 -8.74843,0.37578 -17.49996,0.54698 -26.25715,0.42306 -9.67762,-2e-5 -19.35539,0.009 -29.03283,0.0738 0,0 4.52422,-3.28703 4.52422,-3.28703 z"
       id="path2993"
       style="color:#000000;fill:#cb3c32;fill-opacity:1;fill-rule:nonzero;stroke:#c42836;stroke-width:0;stroke-linecap:square;stroke-linejoin:round;stroke-miterlimit:4;stroke-opacity:1;stroke-dasharray:none;stroke-dashoffset:0;marker:none;visibility:visible;display:inline;overflow:visible;enable-background:accumulate" />
    <path
       transform="scale(0.8,0.8)"
       inkscape:connector-curvature="0"
       d="m 636.47497,366.74854 c 0.87166,4.35128 3.06423,8.2587 4.98467,12.2088 2.61504,5.32087 5.14991,10.68069 7.77178,15.99884 1.39538,3.84569 3.58689,7.25562 5.70058,10.71859 1.05573,2.04428 1.47737,4.31328 2.20236,6.47632 0.87588,2.61324 1.17457,3.17961 2.28869,5.84527 3.16366,7.95796 6.67733,15.76605 10.52288,23.41647 2.07343,4.25562 4.80381,8.14673 7.00056,12.33123 0.92639,1.59876 0.84648,3.46985 1.28972,5.20678 0.38085,1.4924 0.89056,2.59894 1.47204,4.03935 3.08217,6.28889 6.65384,12.32766 9.92833,18.52176 2.27577,4.03026 3.80221,8.38699 5.32374,12.7357 0.49204,1.27296 1.17991,2.49102 1.94603,3.621 0,0 -4.83201,2.83299 -4.83201,2.83299 l 0,0 c -0.78163,-1.17879 -1.49427,-2.43704 -1.99411,-3.76056 -1.46361,-4.34432 -2.93214,-8.69687 -5.18243,-12.7172 -3.27364,-6.21608 -6.88015,-12.25074 -10.01265,-18.53555 -0.59228,-1.4311 -1.14993,-2.63307 -1.55201,-4.1228 -0.4536,-1.68061 -0.35759,-3.49569 -1.22336,-5.05825 -2.153,-4.21018 -4.84914,-8.12868 -6.901,-12.39669 -3.82981,-7.66983 -7.33977,-15.48976 -10.56395,-23.43371 -1.05755,-2.47293 -1.5176,-3.41569 -2.36704,-5.86703 -1.64177,-4.73786 0.28237,0.4684 -1.13345,-3.79279 -0.25005,-0.75257 -0.71238,-1.79601 -1.03361,-2.54583 -2.0911,-3.49464 -4.26522,-6.93656 -5.66404,-10.79475 -2.61388,-5.32265 -5.14992,-10.68255 -7.77179,-16.00059 -1.95603,-3.98379 -4.17036,-7.91565 -5.12709,-12.29307 0,0 4.92716,-2.63428 4.92716,-2.63428 z"
       id="path2995"
       style="color:#000000;fill:#cb3c32;fill-opacity:1;fill-rule:nonzero;stroke:#c42836;stroke-width:0;stroke-linecap:square;stroke-linejoin:round;stroke-miterlimit:4;stroke-opacity:1;stroke-dasharray:none;stroke-dashoffset:0;marker:none;visibility:visible;display:inline;overflow:visible;enable-background:accumulate" />
    <path
       transform="scale(0.8,0.8)"
       inkscape:connector-curvature="0"
       d="m 710.47315,663.44712 c 0.77422,3.55202 2.46454,6.7911 3.63782,10.21525 1.43983,3.95756 1.91306,8.1362 2.48505,12.27766 0.49685,2.52477 0.53492,5.11905 0.96269,7.64942 0.52837,2.25318 0.60929,4.56623 0.69754,6.86851 0.12118,3.28614 -0.003,6.57695 0.17712,9.86021 0.29095,2.53714 1.07971,5.01404 2.27038,7.27059 0.83815,1.30274 1.55421,2.33741 1.23887,3.93316 -0.51847,1.33167 -1.31131,2.41163 -1.29577,3.88172 0.10402,0.90003 0.27552,1.79022 0.4281,2.68279 0,0 -4.937,2.62141 -4.937,2.62141 l 0,0 c -0.1551,-0.91303 -0.32545,-1.82343 -0.4622,-2.73949 -0.14397,-1.68908 0.45612,-2.59916 1.20427,-4.04077 0.56422,-1.43306 -0.32621,-2.35668 -1.02583,-3.5651 -1.21587,-2.33173 -2.03294,-4.87957 -2.35813,-7.49157 -0.21008,-3.28429 -0.0555,-6.57893 -0.18969,-9.86745 -0.0834,-2.2754 -0.16138,-4.56353 -0.68517,-6.78992 -0.45483,-2.53644 -0.42416,-5.1531 -0.9322,-7.68789 -0.56651,-4.1081 -0.98583,-8.26253 -2.42937,-12.18647 -1.17568,-3.44284 -2.86633,-6.69372 -3.71167,-10.24534 0,0 4.92519,-2.64672 4.92519,-2.64672 z"
       id="path2997"
       style="color:#000000;fill:#cb3c32;fill-opacity:1;fill-rule:nonzero;stroke:#c42836;stroke-width:0;stroke-linecap:square;stroke-linejoin:round;stroke-miterlimit:4;stroke-opacity:1;stroke-dasharray:none;stroke-dashoffset:0;marker:none;visibility:visible;display:inline;overflow:visible;enable-background:accumulate" />
    <path
       transform="scale(0.8,0.8)"
       inkscape:connector-curvature="0"
       d="m 269.3617,702.25607 c -0.94515,4.72523 -1.50344,9.51374 -2.09245,14.293 -0.56082,4.45943 -0.79858,8.94797 -0.92454,13.43781 0.004,2.38324 0.12644,4.48079 -0.78385,6.71165 -2.3123,4.07321 -4.00758,8.40783 -5.47762,12.84353 -1.69345,5.08877 -2.65152,10.3629 -3.19165,15.6861 -0.0128,0.53983 -0.0256,1.07967 -0.0384,1.61951 0,0 -4.95778,2.51227 -4.95778,2.51227 l 0,0 c 0.0115,-0.55565 0.023,-1.11131 0.0345,-1.66696 0.5514,-5.3622 1.49861,-10.6791 3.18197,-15.81345 1.44107,-4.42932 3.03431,-8.80902 5.37701,-12.85484 1.07396,-2.28879 0.86664,-4.03663 0.89826,-6.53073 0.14769,-4.5115 0.37977,-9.02356 0.94539,-13.50496 0.58368,-4.77648 1.14356,-9.55838 2.00191,-14.29517 0,0 5.02729,-2.43776 5.02729,-2.43776 z"
       id="path2999"
       style="color:#000000;fill:#cb3c32;fill-opacity:1;fill-rule:nonzero;stroke:#c42836;stroke-width:0;stroke-linecap:square;stroke-linejoin:round;stroke-miterlimit:4;stroke-opacity:1;stroke-dasharray:none;stroke-dashoffset:0;marker:none;visibility:visible;display:inline;overflow:visible;enable-background:accumulate" />
    <path
       transform="scale(0.8,0.8)"
       inkscape:connector-curvature="0"
       d="m 255.44205,768.33011 c 12.99357,-0.86142 26.01274,-1.22572 39.02217,-1.75925 13.33773,-0.52143 26.6754,-0.86516 39.99098,-1.81678 5.71786,-0.29487 11.40001,-0.94683 17.08659,-1.57986 6.84805,-1.26607 13.68699,-2.57868 20.52548,-3.90117 16.55411,-3.06638 32.92608,-6.9724 49.24545,-11.08416 4.22406,-1.16402 8.56907,-1.81613 12.75574,-3.12088 2.0408,-0.636 4.03408,-1.46251 6.00013,-2.2959 0.73545,-0.21723 1.45698,-0.48882 2.20635,-0.65167 2.09495,-0.45529 5.70763,-0.83179 7.66744,-1.03232 6.33373,-0.64806 12.68989,-1.06422 19.03258,-1.61487 10.26073,-0.67863 20.45652,-2.00008 30.65323,-3.28631 5.31943,-1.16624 10.75239,-1.23673 16.16797,-1.46318 9.36456,-0.30647 18.73854,-0.55874 28.07666,-1.37407 5.32919,-0.4653 10.64387,-1.08419 15.96773,-1.60697 13.86857,-1.21665 27.73838,-2.40532 41.64421,-3.0984 5.85226,-0.47109 11.74996,-0.12704 17.59972,-0.55744 3.67105,-1.03331 7.49517,-1.17867 11.2797,-1.46539 11.65204,-0.43752 23.12703,-2.49994 34.62712,-4.25701 9.305,-1.16858 18.58177,-2.53847 27.87432,-3.80135 3.77909,-0.78316 7.55609,-1.30576 11.4088,-1.47009 2.56181,-0.006 5.11759,-0.19845 7.67278,-0.35871 0,0 -4.44445,3.27101 -4.44445,3.27101 l 0,0 c -2.56195,0.15465 -5.12429,0.32188 -7.69137,0.36332 -3.82587,0.20637 -7.58011,0.79331 -11.34806,1.48327 -9.25533,1.21874 -18.49571,2.54612 -27.75593,3.72554 -11.54294,1.77077 -23.06743,3.76696 -34.75523,4.30314 -3.81167,0.31505 -7.61493,0.62983 -11.34378,1.50128 -5.81835,0.30021 -11.66152,0.0578 -17.47883,0.4592 -13.86445,0.66025 -27.69636,1.7967 -41.51977,3.03963 -5.3288,0.53043 -10.64993,1.1427 -15.98531,1.60229 -9.38542,0.80846 -18.80459,1.07639 -28.21349,1.45717 -5.42432,0.26392 -10.85048,0.45187 -16.19049,1.53245 -10.15805,1.22179 -20.3148,2.47069 -30.52657,3.16827 -6.36843,0.55843 -12.75334,0.98391 -19.10759,1.69219 -2.28608,0.25482 -5.3645,0.60574 -7.68531,1.16968 -0.744,0.18078 -1.45768,0.46911 -2.18652,0.70366 -6.07818,2.49629 -12.22455,3.82389 -18.64252,5.22521 -16.33493,4.05338 -32.71775,7.91517 -49.25674,11.0581 -6.90397,1.36803 -13.79934,2.78757 -20.73246,3.99893 -5.65144,0.60654 -11.30245,1.19248 -16.9822,1.4755 -13.27907,0.89134 -26.57839,1.1945 -39.87569,1.71328 -13.09302,0.53353 -26.19806,0.92368 -39.26448,1.95457 0,0 4.48164,-3.30191 4.48164,-3.30191 z"
       id="path3001"
       style="color:#000000;fill:#cb3c32;fill-opacity:1;fill-rule:nonzero;stroke:#c42836;stroke-width:0;stroke-linecap:square;stroke-linejoin:round;stroke-miterlimit:4;stroke-opacity:1;stroke-dasharray:none;stroke-dashoffset:0;marker:none;visibility:visible;display:inline;overflow:visible;enable-background:accumulate" />
    <path
       transform="scale(0.8,0.8)"
       inkscape:connector-curvature="0"
       d="m 231.84994,314.52308 c -3.77353,3.93506 -6.3017,8.72562 -8.39572,13.70438 -3.50626,9.42227 -4.28927,19.5284 -4.95628,29.474 -0.46602,8.40714 -0.54512,16.82859 -0.53045,25.24651 0.0737,3.30423 -1.34154,6.16396 -2.76158,9.04825 -0.42355,0.86028 -0.85756,1.71537 -1.28635,2.57305 -0.46752,0.9555 -0.93504,1.91101 -1.40256,2.86652 -2.28982,5.31614 -4.23847,10.80476 -5.55988,16.44692 -0.74735,3.19103 -1.51101,7.74251 -2.07933,10.93197 -2.00046,12.6258 -3.87476,25.27593 -5.39994,37.96864 -0.88147,8.02017 -1.80306,16.03837 -2.81885,24.04248 -1.43769,11.33954 -1.60168,22.78891 -2.20098,34.19195 -0.80477,11.90321 -1.92453,23.7982 -4.22434,35.51342 0,0 -4.92161,2.38435 -4.92161,2.38435 l 0,0 c 2.46779,-11.69028 3.6093,-23.59408 4.39102,-35.50565 0.57078,-11.39265 0.70267,-22.83018 2.05754,-34.16575 1.02144,-8.01918 1.94034,-16.05273 2.90131,-24.07977 1.55521,-12.69633 3.44295,-25.35066 5.38414,-37.99301 0.53036,-3.04467 1.33265,-7.89894 2.02937,-10.95816 1.28847,-5.65752 3.20881,-11.16125 5.4421,-16.50906 2.24826,-4.64315 0.5145,-1.08973 2.66435,-5.42914 1.39628,-2.81835 2.89831,-5.58629 2.87439,-8.82595 0.0508,-8.4482 0.18209,-16.89912 0.63209,-25.33671 0.64555,-9.97335 1.39713,-20.1077 4.79252,-29.59172 2.03956,-5.01939 4.52922,-9.8259 8.21155,-13.86122 0,0 5.15749,-2.1363 5.15749,-2.1363 z"
       id="path3003"
       style="color:#000000;fill:#cb3c32;fill-opacity:1;fill-rule:nonzero;stroke:#c42836;stroke-width:0;stroke-linecap:square;stroke-linejoin:round;stroke-miterlimit:4;stroke-opacity:1;stroke-dasharray:none;stroke-dashoffset:0;marker:none;visibility:visible;display:inline;overflow:visible;enable-background:accumulate" />
    <path
       transform="scale(0.8,0.8)"
       inkscape:connector-curvature="0"
       d="m 252.87596,768.53438 c -1.01282,-11.75754 -9.62857,-25.11664 -13.54705,-36.15154 -6.21613,-17.05692 -12.67338,-34.02411 -19.53038,-50.83383 -2.41114,-6.40979 -6.0488,-12.61496 -6.73982,-19.53729 0.0346,-0.62598 0.0386,-1.25441 0.10393,-1.87794 0.35492,-3.38913 1.07283,-6.72128 1.41892,-10.11823 0.55209,-5.41907 0.60866,-7.71294 0.93225,-13.42225 3.58836,-29.46348 -21.75028,-42.19771 -24.84908,-65.54929 -0.79905,-1.99389 0.29034,-4.64768 -0.64911,-6.59039 -1.10054,-2.0687 -1.88357,-4.25968 -2.35381,-6.55041 -0.16953,-0.89556 -0.23233,-1.80411 -0.29324,-2.71162 l 4.96713,-2.56957 0,0 c 0.0498,0.88558 0.10025,1.77232 0.25295,2.64786 0.43236,2.25199 1.18406,4.40597 2.28415,6.42499 0.95155,1.94278 1.30973,4.00617 2.01298,6.03577 8.46573,27.57608 17.62082,41.51469 23.36066,66.48211 -0.28033,5.94304 -0.29538,7.79197 -0.80041,13.39422 -0.30482,3.38125 -0.93205,6.6772 -1.32253,10.04018 -0.0694,0.59795 -0.0926,1.20037 -0.13888,1.80055 0.51009,6.90015 4.15659,13.11072 6.45931,19.5055 6.72533,16.87313 13.15733,33.8601 19.46951,50.89182 2.67914,7.44388 5.4442,14.88611 7.39725,22.56515 1.23629,4.86084 1.0174,4.75127 1.66827,9.15905 0.10553,0.71467 0.23629,1.42539 0.35443,2.13808 z"
       id="path3007"
       style="color:#000000;fill:#cb3c32;fill-opacity:1;fill-rule:nonzero;stroke:#c42836;stroke-width:0;stroke-linecap:square;stroke-linejoin:round;stroke-miterlimit:4;stroke-opacity:1;stroke-dasharray:none;stroke-dashoffset:0;marker:none;visibility:visible;display:inline;overflow:visible;enable-background:accumulate"
       sodipodi:nodetypes="cccccscccccccccccsccccsscc" />
    <path
       transform="scale(0.8,0.8)"
       inkscape:connector-curvature="0"
       d="m 233.23022,306.50808 c 6.09833,-0.93923 12.29564,-1.03668 18.44418,-1.48502 10.87685,-0.84015 21.78785,-1.01268 32.68115,-1.55282 4.64619,-0.37922 9.7719,-0.029 14.01154,-2.29524 7.30554,-3.45596 15.58628,-3.89752 23.49684,-4.82277 17.22613,-1.53645 34.51083,-2.23385 51.76797,-3.32014 8.32574,-0.69683 16.69705,-0.81935 25.0051,-1.71785 0.52,-0.10327 1.05533,-0.14736 1.55998,-0.30979 0.37591,-0.12099 1.40476,-0.722 1.0581,-0.53287 -1.34503,0.73377 -2.66316,1.52346 -4.0536,2.16704 -0.26603,0.12314 0.43742,-0.39051 0.65047,-0.59187 1.54263,-1.45799 -0.55991,0.42279 1.8515,-1.6871 3.6593,-2.28729 4.54156,-2.90345 9.82833,-5.4296 1.40379,-0.67077 2.90416,-1.11755 4.36521,-1.65223 6.23218,-2.2807 12.54118,-4.26023 18.88699,-6.19684 9.78297,-2.82038 19.72351,-5.10861 29.79628,-6.61679 5.01565,-0.75099 7.62151,-0.95995 12.57649,-1.46297 7.0236,-0.48121 14.03098,-1.08591 21.02186,-1.91039 5.65626,-0.60684 11.36072,-0.49461 17.04049,-0.50596 9.68484,-0.006 19.3697,-0.0138 29.05453,-0.0318 4.01548,-0.008 8.03094,-0.0213 12.04643,-0.0179 7.53163,0.0302 15.06332,0.0406 22.59501,0.0458 7.47532,0.13363 14.94148,-0.13386 22.4042,-0.53021 0.64971,-0.0349 1.29943,-0.0698 1.94914,-0.10465 0,0 -4.46925,3.28181 -4.46925,3.28181 l 0,0 c -0.64426,0.0307 -1.28853,0.0614 -1.93279,0.0921 -7.43787,0.34774 -14.87805,0.56634 -22.32545,0.43893 -7.5731,0.005 -15.14619,0.0163 -22.71924,0.0443 -3.99209,6.3e-4 -7.98411,-0.0196 -11.97617,-0.0333 -9.67031,-0.0296 -19.34083,-0.0496 -29.0111,0.004 -5.70085,0.0504 -11.42371,-0.005 -17.09851,0.62299 -6.94825,0.78142 -13.91469,1.31317 -20.88961,1.80276 -5.10028,0.5154 -7.336,0.68246 -12.5165,1.46248 -10.05602,1.5141 -19.97808,3.81211 -29.73739,6.65893 -6.56282,2.02555 -7.38286,2.21335 -13.67815,4.39813 -1.76919,0.61399 -3.53153,1.24824 -5.28506,1.90563 -1.46997,0.55108 -2.83762,1.45191 -4.38454,1.71942 -0.67931,0.11747 2.32769,-1.11855 1.65029,-1.24658 -0.77045,-0.14563 -1.35925,0.78209 -2.03887,1.17313 -0.40284,0.33921 -0.81754,0.66481 -1.20852,1.01762 -0.15427,0.13921 -1.0886,1.13953 -1.26506,1.2547 -3.16436,2.06525 -4.8382,3.63413 -8.19061,4.07035 -8.25361,0.79981 -16.56,0.8976 -24.82525,1.55731 -17.26578,1.02884 -34.55968,1.7106 -51.78148,3.36833 -7.95851,0.97104 -16.27151,1.50335 -23.5718,5.11318 -4.36488,1.96326 -9.35186,1.70093 -14.02421,2.02177 -10.89532,0.49232 -21.80659,0.69367 -32.68124,1.5704 -6.17976,0.45794 -12.41849,0.57129 -18.53208,1.63599 0,0 4.4544,-3.37263 4.4544,-3.37263 z"
       id="path3009"
       style="color:#000000;fill:#cb3c32;fill-opacity:1;fill-rule:nonzero;stroke:#c42836;stroke-width:0;stroke-linecap:square;stroke-linejoin:round;stroke-miterlimit:4;stroke-opacity:1;stroke-dasharray:none;stroke-dashoffset:0;marker:none;visibility:visible;display:inline;overflow:visible;enable-background:accumulate" />
    <path
       transform="scale(0.8,0.8)"
       inkscape:connector-curvature="0"
       d="m 590.79449,270.18358 c 1.5305,3.46563 4.42499,5.96304 7.13435,8.49522 1.8011,1.6156 3.48969,3.34069 4.92419,5.29076 0.73951,1.30998 1.58296,2.55509 2.37492,3.83249 0.75969,1.30152 1.44967,2.57711 1.81504,4.04694 0.24884,1.36189 0.67679,2.67182 0.89198,4.04254 0.2512,2.12833 0.20604,4.27875 0.21567,6.41807 -0.0168,1.82965 -0.075,3.66753 0.43647,5.43908 0,0 -4.90972,2.68232 -4.90972,2.68232 l 0,0 c -0.5505,-1.81879 -0.52326,-3.70467 -0.48605,-5.59143 -0.0113,-2.11057 0.0101,-4.22971 -0.20671,-6.33156 -0.19691,-1.36048 -0.6255,-2.65311 -0.86916,-4.0007 -0.32623,-1.42116 -0.99723,-2.63752 -1.7243,-3.89184 -0.78679,-1.26354 -1.62599,-2.49421 -2.34951,-3.79698 -1.41049,-1.92188 -3.0732,-3.6236 -4.83794,-5.22372 -2.757,-2.60205 -5.66711,-5.17946 -7.28521,-8.68831 0,0 4.87598,-2.72288 4.87598,-2.72288 z"
       id="path3013"
       style="color:#000000;fill:#cb3c32;fill-opacity:1;fill-rule:nonzero;stroke:#c42836;stroke-width:0;stroke-linecap:square;stroke-linejoin:round;stroke-miterlimit:4;stroke-opacity:1;stroke-dasharray:none;stroke-dashoffset:0;marker:none;visibility:visible;display:inline;overflow:visible;enable-background:accumulate" />
    <path
       transform="scale(0.8,0.8)"
       inkscape:connector-curvature="0"
       d="m 300.33885,436.91304 c -1.48139,-2.33708 -3.13665,-4.5676 -4.59171,-6.92115 -0.95841,-1.58968 -1.28248,-3.36667 -1.42257,-5.18632 -0.0949,-1.50716 -0.62095,-2.80749 -1.42856,-4.05579 -1.00214,-1.51091 -2.4968,-2.56592 -3.85492,-3.72554 -1.24565,-0.92521 -2.50398,-1.87486 -3.42441,-3.1362 -0.66158,-1.50944 -0.97428,-3.01122 -2.01658,-4.33625 -1.41782,-1.34681 -2.92079,-2.53385 -4.07774,-4.13121 -0.91248,-1.36086 -1.10401,-2.80992 -0.93194,-4.39435 0.26933,-1.74861 -0.0456,-3.50517 -0.39046,-5.21862 -0.45177,-1.79768 -0.50798,-3.65616 -0.79895,-5.47703 -0.16328,-1.78117 -1.18697,-3.01181 -2.35781,-4.26225 -1.31435,-1.79568 -2.15765,-3.865 -3.2492,-5.78899 -0.97787,-1.3919 -1.17446,-3.06145 -1.67178,-4.63341 -0.88467,-2.24829 -3.11646,-3.38313 -4.8829,-4.85323 -1.24602,-1.44587 -0.9031,-3.01021 -0.38969,-4.67887 0.48806,-1.51612 0.99058,-3.02262 1.50516,-4.52982 0.40673,-1.65237 -0.70105,-2.95794 -1.43273,-4.33193 -0.84143,-1.75308 -0.90183,-3.69576 -1.20761,-5.57603 -0.26436,-1.52006 -0.50007,-3.02358 -1.10767,-4.44921 -0.94335,-1.26 -2.07127,-2.29527 -2.82669,-3.69676 -0.75869,-1.98022 -0.79347,-4.13623 -0.85649,-6.22989 -0.12071,-1.74849 0.30587,-3.45892 0.54663,-5.17822 0.3612,-1.80349 1.25217,-3.43596 1.82333,-5.17662 0.84896,-2.42691 1.22199,-4.97065 1.47412,-7.51791 0.16422,-1.86427 0.18086,-3.7365 0.18649,-5.60657 -0.13231,-2.8453 0.1438,-5.64117 0.67554,-8.43284 0.70574,-3.03373 1.52979,-6.0328 2.21677,-9.07229 0.31065,-2.38861 1.41797,-4.47904 2.42181,-6.62152 1.15618,-3.06369 1.02652,-6.4467 1.10428,-9.67334 0.17337,-3.78735 0.29974,-7.64915 1.67858,-11.22171 0.88982,-1.70775 2.04408,-3.17142 2.76768,-4.96856 0.87123,-2.99848 2.5064,-5.48171 4.43048,-7.90161 2.16176,-2.46125 4.6808,-4.58925 6.62732,-7.23521 1.19288,-1.58897 2.13702,-2.2575 2.63656,-4.24635 0.29033,-2.08809 0.45527,-4.20966 1.1363,-6.2214 0.61584,-1.81918 1.08425,-2.53588 1.9958,-4.2797 2.41156,-4.1499 5.27921,-7.99499 8.38011,-11.64759 1.81415,-1.89115 3.38423,-3.97056 5.34648,-5.71284 4.5922,-3.59459 9.93744,-5.99484 15.42332,-7.85008 1.56205,-0.50901 3.1467,-0.9605 4.70382,-1.4834 0.41497,-0.13935 1.59677,-0.7007 1.22849,-0.46409 -5.8697,3.77117 -4.53681,2.73192 -3.06496,1.49463 0.2439,-0.27286 0.50068,-0.53472 0.73169,-0.81857 0.50485,-0.62028 1.26179,-1.74263 1.78612,-2.31935 1.43395,-1.57723 3.25767,-2.73408 4.97721,-3.9653 5.39582,-3.64521 11.16993,-6.69197 17.15397,-9.24451 0.50728,-0.19537 1.02749,-0.36001 1.52185,-0.58611 0.42341,-0.19364 1.63929,-0.88364 1.22542,-0.67035 -1.27269,0.65589 -2.46925,1.47548 -3.80214,1.99829 -0.35815,0.14048 0.55662,-0.53287 0.80817,-0.82394 0.42382,-0.49041 1.16327,-1.57123 1.51846,-2.07564 3.69002,-4.74571 9.53822,-7.31959 14.61813,-10.21269 3.06244,-1.52969 6.23562,-2.82354 9.3365,-4.26932 0.61615,-0.28728 2.39449,-1.28054 1.82747,-0.90549 -1.03544,0.6849 -2.15913,1.22597 -3.2387,1.83895 2.74976,-1.75063 4.40542,-4.62251 6.37915,-7.12628 3.5421,-4.43707 7.54893,-8.47089 11.67799,-12.35651 1.81305,-2.06634 4.18725,-3.54347 6.01638,-5.58664 0.90748,-1.01366 1.21502,-1.54644 1.97588,-2.6664 2.01421,-3.78689 4.78551,-7.01505 7.67825,-10.14974 2.86919,-2.94392 5.43311,-6.17659 8.33907,-9.08266 2.22558,-1.76031 3.03776,-4.31345 4.08739,-6.82389 1.70814,-4.29152 3.44639,-8.56759 5.15238,-12.85952 1.33306,-3.03473 2.18421,-6.23541 2.99829,-9.43765 0.68337,-2.690706 0.64603,-5.481226 0.87085,-8.229357 0.17172,-2.684733 1.49083,-4.948335 2.68126,-7.276518 0.89345,-1.865807 1.10412,-3.905528 1.22617,-5.940767 0.1704,-2.249861 1.26951,-4.288391 2.28021,-6.26478 0.6097,-1.270671 0.32797,-0.632278 0.84741,-1.914188 0,0 5.06692,-2.348068 5.06692,-2.348068 l 0,0 c -0.49995,1.323943 -0.22655,0.666145 -0.8221,1.972603 -1.03229,1.883802 -2.11235,3.89715 -2.38148,6.046426 -0.10878,2.095152 -0.28445,4.198872 -1.12935,6.149375 -1.14433,2.293669 -2.58795,4.454021 -2.79174,7.093145 -0.24757,2.769139 -0.16439,5.584242 -0.82046,8.304176 -0.80082,3.234323 -1.6784,6.462443 -3.01023,9.526003 -1.72379,4.27808 -3.43969,8.55842 -5.11718,12.85541 -1.08122,2.52121 -1.74606,5.23262 -3.99664,7.02635 -2.99297,2.82791 -5.48548,6.1498 -8.38683,9.07237 -2.89911,3.09084 -5.71731,6.26673 -7.68168,10.05269 -0.73113,1.12813 -1.06894,1.72674 -1.94025,2.75919 -1.78581,2.11608 -4.22761,3.53155 -6.04165,5.62914 -4.1349,3.85421 -8.15776,7.85159 -11.69097,12.27472 -2.01186,2.50065 -3.61315,5.42586 -6.28382,7.30896 -2.09146,1.20348 -4.16384,2.44074 -6.27438,3.61042 -3.5741,1.9808 -7.5664,3.1651 -11.12719,5.18117 0.81612,-0.48998 1.62631,-0.98999 2.44837,-1.46993 0.69095,-0.4034 -1.37668,0.81599 -2.05501,1.24027 -1.64257,1.02739 -3.25894,2.10871 -4.59588,3.52703 -0.36459,0.38678 -0.6766,0.81995 -1.01491,1.22993 -0.61926,0.89697 -1.33878,2.40283 -2.26239,3.03786 -2.77054,1.9049 -5.37137,3.64517 -8.47066,4.78267 -1.22903,0.52897 -2.31122,0.98351 -3.52708,1.55497 -0.70115,0.32954 -2.51393,1.66599 -2.08945,1.0179 0.52883,-0.8074 1.92845,-0.73873 2.44189,-1.55601 0.93423,-1.48707 -5.44674,4.03798 -4.48903,2.75794 -1.67737,1.19566 -3.56224,2.30865 -4.99977,3.80655 -0.67692,0.70535 -1.17886,1.55167 -1.76148,2.32844 -0.22466,0.29951 -0.4685,0.58414 -0.70275,0.87621 -3.3136,3.44435 -8.03956,4.59113 -12.41066,5.97796 -1.14178,0.39188 -2.62892,0.88589 -3.7463,1.33642 -0.644,0.25965 -2.39485,1.32922 -1.90946,0.83268 0.79431,-0.81254 1.95578,-1.16283 2.87933,-1.82481 1.00486,-0.72027 -3.97811,2.3391 -3.11566,2.01234 -2.02683,1.67651 -3.55006,3.7704 -5.39169,5.6378 -3.11042,3.63094 -6.03208,7.41381 -8.45641,11.54909 -0.85529,1.58765 -1.42536,2.48731 -2.0213,4.15668 -0.70886,1.98563 -0.90423,4.09886 -1.11425,6.17977 -0.11466,0.60098 -0.20535,1.30326 -0.46729,1.87176 -0.47116,1.02262 -1.56174,1.59123 -2.08264,2.58137 -1.87253,2.72568 -4.42249,4.85422 -6.64664,7.28002 -1.92971,2.36392 -3.63779,4.7446 -4.45851,7.72779 -0.32068,0.84683 -0.60103,1.7328 -1.10023,2.49769 -0.47879,0.7336 -0.64088,0.70273 -1.12848,1.4691 -0.20738,0.32595 -0.36597,0.68051 -0.54895,1.02076 -1.55874,3.45124 -1.58816,7.33083 -1.80322,11.05183 -0.0686,3.28306 0.0793,6.7005 -0.95739,9.85524 -0.96641,2.13097 -2.20146,4.14639 -2.48731,6.52416 -0.69754,3.03742 -1.47936,6.04595 -2.24322,9.06596 -0.55231,2.75393 -0.83958,5.50534 -0.68118,8.31723 -0.004,1.88783 -0.0183,3.77776 -0.17665,5.6603 -0.24383,2.57529 -0.58614,5.15811 -1.41974,7.61889 -0.51361,1.73945 -1.36552,3.34335 -1.85194,5.08616 -0.21994,1.69959 -0.68492,3.38097 -0.6006,5.10431 0.0507,2.00927 0.0618,4.08116 0.74469,5.99508 0.75651,1.4173 1.96188,2.41729 2.85309,3.73622 0.64038,1.46384 0.90221,3.00258 1.16428,4.57185 0.31652,1.81806 0.32191,3.71133 1.1233,5.41722 0.79773,1.50425 1.9429,2.9197 1.64652,4.72909 -0.48151,1.52029 -1.06034,3.0024 -1.50903,4.53457 -0.51005,1.40702 -1.01327,2.83248 0.0574,4.09596 1.85603,1.53019 4.12017,2.77065 5.0503,5.11829 0.52006,1.52537 0.65425,3.17704 1.61558,4.53961 1.06044,1.89087 1.88251,3.92251 3.18294,5.67424 1.23156,1.32528 2.32533,2.67143 2.52189,4.54406 0.32137,1.81037 0.32705,3.67118 0.78433,5.46351 0.36286,1.76017 0.72357,3.56983 0.48641,5.37187 -0.19789,1.4606 -0.15028,2.7588 0.72462,4.02942 1.15732,1.5846 2.69255,2.73589 4.0621,4.11978 1.03021,1.34033 1.45896,2.79277 2.03711,4.34091 0.90605,1.21794 2.16033,2.1058 3.34927,3.03004 1.40549,1.18781 2.91091,2.30843 3.94326,3.86177 0.86373,1.32234 1.43001,2.71058 1.56397,4.30485 0.10868,1.73575 0.37088,3.43578 1.27938,4.95814 1.44202,2.35934 3.08155,4.60233 4.59924,6.91199 0,0 -4.83161,2.81212 -4.83161,2.81212 z"
       id="path3015"
       style="color:#000000;fill:#cb3c32;fill-opacity:1;fill-rule:nonzero;stroke:#c42836;stroke-width:0;stroke-linecap:square;stroke-linejoin:round;stroke-miterlimit:4;stroke-opacity:1;stroke-dasharray:none;stroke-dashoffset:0;marker:none;visibility:visible;display:inline;overflow:visible;enable-background:accumulate" />
    <path
       sodipodi:nodetypes="ccccccccccccccccccccccccccccccccccccccccsccccccccccccccccccccccccccccccccccccccccccccccccccccccccccccccccccccccccccccccccccccccccccccc"
       transform="scale(0.8,0.8)"
       inkscape:connector-curvature="0"
       d="m 439.24732,69.899041 c 0.0977,2.2569 0.47589,4.511806 1.19568,6.654788 0.62072,1.434948 0.94225,2.942322 1.10877,4.488582 4.48274,8.542272 3.56742,6.170202 6.25649,11.789492 0.82541,1.159965 1.04712,2.585669 1.6506,3.869467 0.65788,1.094811 1.80178,1.733863 2.71205,2.590307 1.20825,1.124023 1.88892,2.649793 2.87149,3.947233 0.83545,1.20062 1.69476,2.38584 2.21104,3.76276 0.41124,1.3848 0.39525,2.83007 0.70701,4.23479 0.53287,1.17255 1.10026,2.34061 1.72242,3.46906 0.61723,1.07744 1.29597,2.11786 1.93477,3.1855 0.47088,1.20184 1.0217,2.36517 1.57346,3.53325 0.56312,1.50905 1.08191,3.03919 1.39823,4.62075 0.28426,1.71059 1.02745,3.27763 1.50637,4.9316 0.27572,1.30031 0.71756,2.55816 1.25888,3.76928 0.55523,1.19585 1.10292,2.33323 1.36305,3.63645 0.0459,1.79411 0.91736,3.17024 1.87926,4.60371 1.12466,1.34454 2.35235,2.59388 3.50885,3.91146 1.51602,1.38919 2.12623,3.27951 2.94279,5.09307 8.11846,10.80694 8.1119,10.89429 14.71212,14.17804 15.3848,5.68925 7.71058,3.44877 16.78572,7.47039 2.01055,0.88706 4.24776,0.98519 6.37762,1.46113 2.79635,0.72959 5.63933,1.57046 8.26295,2.8055 1.88669,1.17964 3.817,2.26032 5.78732,3.30162 1.79545,0.85502 3.70556,1.40857 5.38692,2.48613 1.34344,1.04348 2.54772,2.29576 4.26062,2.66679 2.56992,0.0374 5.13276,-0.1446 7.70314,-0.0421 4.07675,0.12176 8.06659,1.03524 12.09317,1.60487 2.46415,0.28779 4.92343,0.68569 7.28352,1.4572 1.70919,0.53323 3.36757,1.24061 5.01379,1.94558 1.68646,0.9683 3.37352,1.9259 5.05176,2.91061 5.68716,2.57718 11.51609,4.81877 17.34913,7.041 5.16146,1.9555 10.51836,3.80667 14.9763,7.14338 2.32506,2.38092 4.32708,5.07244 6.44739,7.64421 2.02455,2.44561 3.94696,4.97466 5.88635,7.48785 1.53081,1.69287 2.9768,3.46102 4.2678,5.34574 1.40007,2.10616 2.3775,4.43779 3.30697,6.77773 0.75703,1.79968 0.87105,3.73596 1.11958,5.64329 0.60212,2.93023 1.39858,5.82988 2.32756,8.67395 0.77727,2.36159 1.77775,4.65501 2.86167,6.89156 0.88299,1.56763 1.72646,3.24647 2.88289,4.64178 0.28087,0.33889 1.54595,1.56747 1.87549,1.89143 3.01041,2.61784 3.00605,6.82983 3.44084,10.50622 0.42437,5.38494 1.16205,10.73229 1.89206,16.08128 0.58362,2.75902 0.88542,5.68742 1.93949,8.32617 0.11781,0.281 0.11042,0.19593 0.025,0.66293 -0.49087,2.68406 -0.69957,5.327 -0.86225,8.05772 -0.30646,6.47625 -0.34689,12.96106 -0.37732,19.44329 -0.0951,3.60634 0.15183,7.22406 -0.0713,10.82579 -0.60964,4.56725 -1.60726,9.06926 -2.46949,13.59273 -1.28987,6.46291 -2.09861,13.00205 -3.57038,19.42928 -0.70531,3.44165 -1.7155,6.77466 -2.93232,10.06449 -1.90197,4.58745 -4.62,8.79257 -7.18628,13.0294 -2.38936,3.71624 -4.31584,7.76133 -7.10078,11.21143 -1.03868,0.97293 -1.69144,2.16595 -2.44174,3.3618 -2.4162,3.32767 -4.45015,6.89644 -6.56665,10.41447 -1.4987,2.30859 -2.61742,4.81835 -3.86786,7.25952 -0.90137,1.87399 -2.4021,3.35567 -3.65647,4.99123 -1.1374,1.26907 -1.96633,2.762 -2.9897,4.11523 -0.89739,1.1696 -1.70987,2.39889 -2.61112,3.5668 -0.11191,0.17448 -0.22383,0.34896 -0.33574,0.52344 l -5.11921,2.27555 0,0 c 0.10364,-0.19376 0.20727,-0.38753 0.31091,-0.5813 0.86817,-1.19823 1.79008,-2.35409 2.60785,-3.59019 1.12151,-1.2803 1.81848,-2.86945 3.01147,-4.10068 1.21123,-1.65187 2.73248,-3.09353 3.68863,-4.91052 1.32824,-2.41659 2.34153,-5.00542 3.89184,-7.30465 2.13341,-3.50185 4.11845,-7.0958 6.53529,-10.418 0.79247,-1.19355 1.29092,-2.50547 2.40613,-3.42522 2.95246,-3.32338 4.78301,-7.47319 7.21063,-11.16362 2.54769,-4.20535 5.22931,-8.38534 7.17717,-12.90973 1.21359,-3.28112 2.28085,-6.5862 2.99508,-10.01846 1.54357,-6.41344 2.34865,-12.95264 3.61229,-19.42185 0.82838,-4.49545 1.7752,-8.97004 2.4205,-13.49677 0.27387,-3.59731 0.0195,-7.21845 0.14202,-10.82246 0.0468,-6.49122 0.12409,-12.98373 0.37159,-19.47081 0.0911,-1.78528 0.16517,-3.61305 0.32408,-5.39657 0.0826,-0.9267 0.0889,-1.8778 0.35995,-2.76781 0.0252,-0.0828 0.16889,-0.0752 0.21191,-0.15032 0.0256,-0.0447 -0.0271,-0.0993 -0.0406,-0.14899 -1.01538,-2.70601 -1.35753,-5.66209 -1.94001,-8.47538 -0.70211,-5.35757 -1.43306,-10.71083 -1.87507,-16.09868 -0.43286,-3.55755 -0.39025,-7.62305 -3.31062,-10.15234 -2.04341,-2.03447 -3.58829,-4.08797 -4.85662,-6.69453 -1.09781,-2.25798 -2.11376,-4.574 -2.88988,-6.96272 -0.93861,-2.87393 -1.72933,-5.8042 -2.39097,-8.75306 -0.26947,-1.85942 -0.32451,-3.7628 -1.05442,-5.52711 -0.90176,-2.30642 -1.85297,-4.60474 -3.24064,-6.67051 -1.28767,-1.87441 -2.74892,-3.61571 -4.24597,-5.32382 -1.92394,-2.51619 -3.84288,-5.0402 -5.86671,-7.4771 -2.09284,-2.53595 -4.05921,-5.202 -6.36968,-7.53472 -4.42771,-3.27646 -9.71258,-5.12579 -14.81903,-7.06486 -5.87169,-2.24099 -11.76075,-4.45726 -17.48467,-7.05819 -1.67108,-0.95924 -3.34857,-1.90323 -5.03327,-2.83752 -1.64514,-0.6792 -3.28092,-1.39912 -4.98983,-1.90332 -2.33415,-0.73995 -4.76969,-1.09052 -7.19283,-1.40614 -4.01001,-0.59141 -7.99388,-1.48173 -12.0617,-1.55085 -2.60628,-0.0592 -5.22519,0.22201 -7.81781,-0.0404 -1.68729,-0.5631 -2.9586,-1.73141 -4.34328,-2.8043 -1.69136,-1.02228 -3.59859,-1.56345 -5.35601,-2.45832 -1.96286,-1.03299 -3.86017,-2.15455 -5.76601,-3.2801 -2.61333,-1.17915 -5.40496,-2.03588 -8.18519,-2.71033 -2.16822,-0.45016 -4.4398,-0.57398 -6.46495,-1.53308 -1.68664,-0.68457 -3.46862,-0.94716 -5.28197,-1.0505 -2.63106,-0.0648 -5.27391,-0.15496 -7.86771,-0.63968 -2.24912,-0.48266 -4.5487,-1.00578 -6.48896,-2.30121 -1.36495,-0.97453 -2.69722,-1.92175 -3.4599,-3.482 -0.91912,-1.50881 -2.03129,-2.89478 -2.91198,-4.43089 -0.94094,-1.3972 -2.07617,-2.66294 -2.84752,-4.17328 -1.12819,-1.88245 -2.07455,-3.87418 -2.84639,-5.92889 -0.80036,-1.76284 -1.37684,-3.60192 -2.86197,-4.94808 -1.17559,-1.33217 -2.4319,-2.59039 -3.54862,-3.97295 -0.99493,-1.48412 -1.94388,-2.94052 -1.99377,-4.79746 -0.23016,-1.26938 -0.77035,-2.35868 -1.30662,-3.51936 -0.55198,-1.2349 -1.0213,-2.51412 -1.2918,-3.84299 -0.46595,-1.67458 -1.22524,-3.25201 -1.52357,-4.97577 -0.29254,-1.54124 -0.8059,-3.02242 -1.33884,-4.49455 -0.54419,-1.15146 -1.1061,-2.29016 -1.5502,-3.48333 -0.64255,-1.07304 -1.32339,-2.1201 -1.94173,-3.2048 -0.64641,-1.17538 -1.23826,-2.38816 -1.79926,-3.60641 -0.31843,-1.38436 -0.33346,-2.79186 -0.67222,-4.17128 -0.47706,-1.33264 -1.32915,-2.4646 -2.12346,-3.62461 -0.95087,-1.27905 -1.63359,-2.76402 -2.82427,-3.85599 -0.98191,-0.88281 -2.1576,-1.59461 -2.82147,-2.77733 -0.0816,-0.173395 -0.55205,-1.163802 -0.61271,-1.328025 -0.29293,-0.793101 -0.29557,-1.687398 -0.91534,-2.331333 -1.34863,-1.061646 -3.20488,-0.994037 -4.53225,-2.127218 -1.56777,-1.536185 -1.90038,-3.205714 -1.8376,-5.355306 3.6e-4,-1.561763 0.0103,-3.125746 -0.098,-4.684671 -0.14307,-1.50946 -0.43396,-2.981781 -1.04308,-4.380942 -0.7469,-2.194754 -1.11734,-4.506614 -1.28288,-6.814913 l 4.98272,-2.538821 z"
       id="path3019"
       style="color:#000000;fill:#cb3c32;fill-opacity:1;fill-rule:nonzero;stroke:#c42836;stroke-width:0;stroke-linecap:square;stroke-linejoin:round;stroke-miterlimit:4;stroke-opacity:1;stroke-dasharray:none;stroke-dashoffset:0;marker:none;visibility:visible;display:inline;overflow:visible;enable-background:accumulate" />
  </g>
  <path
     style="color:#000000;fill:#cb3c32;fill-opacity:1;fill-rule:nonzero;stroke:#c42836;stroke-width:0;stroke-linecap:square;stroke-linejoin:round;stroke-miterlimit:4;stroke-opacity:1;stroke-dasharray:none;stroke-dashoffset:0;marker:none;visibility:visible;display:inline;overflow:visible;enable-background:accumulate"
     id="path3806"
     d="m 709.11235,715.93645 c 1.5275,0.38002 3.06842,0.60766 4.63242,0.75359 0,0 -5.17979,3.67974 -5.17979,3.67974 l 0,0 c -1.57872,-0.18977 -3.14209,-0.43929 -4.69283,-0.79846 0,0 5.2402,-3.63487 5.2402,-3.63487 z"
     inkscape:connector-curvature="0"
     transform="scale(0.8,0.8)" />
  <path
     style="color:#000000;fill:#cb3c32;fill-opacity:1;fill-rule:nonzero;stroke:#c42836;stroke-width:0;stroke-linecap:square;stroke-linejoin:round;stroke-miterlimit:4;stroke-opacity:1;stroke-dasharray:none;stroke-dashoffset:0;marker:none;visibility:visible;display:inline;overflow:visible;enable-background:accumulate"
     id="path3808"
     d="m 710.90728,715.6598 c 0.48815,0.002 0.9763,0.004 1.46445,0.006 0,0 -5.14303,3.73663 -5.14303,3.73663 l 0,0 c -0.49392,0.002 -0.98783,0.004 -1.48175,0.006 0,0 5.16033,-3.7492 5.16033,-3.7492 z"
     inkscape:connector-curvature="0"
     transform="scale(0.8,0.8)" />
  <path
     style="color:#000000;fill:#cfcfcf;fill-opacity:1;fill-rule:nonzero;stroke:#c42836;stroke-width:0;stroke-linecap:square;stroke-linejoin:round;stroke-miterlimit:4;stroke-opacity:1;stroke-dasharray:none;stroke-dashoffset:0;marker:none;visibility:visible;display:inline;overflow:visible;enable-background:accumulate"
     d="m 256.90052,764.9354 c 0.43986,-1.71173 1.47233,-6.25137 2.29438,-10.08809 0.82204,-3.83673 2.77257,-9.61654 4.33449,-12.84404 2.36504,-4.887 2.90398,-7.24874 3.22329,-14.12506 0.21088,-4.54128 0.75604,-9.28899 1.21147,-10.55045 0.45543,-1.26147 0.90127,-5.38991 0.99077,-9.17432 0.0895,-3.7844 0.72345,-11.4031 1.4088,-16.93043 2.01877,-16.28144 10.10983,-99.4134 12.81745,-131.69342 1.37554,-16.39908 2.7399,-30.1057 3.0319,-30.45915 0.292,-0.35344 27.75834,-2.11644 61.0363,-3.91777 61.27144,-3.31662 67.1251,-3.7636 68.00859,-5.19313 0.27089,-0.43831 7.44072,-0.79692 15.93295,-0.79692 21.50674,0 46.51283,-1.58476 57.38707,-3.63691 11.5877,-2.18679 27.85658,-4.34444 38.53211,-5.1103 4.54129,-0.32579 15.27523,-1.56176 23.85321,-2.7466 22.17932,-3.06353 31.26512,-4.05225 45.87156,-4.99171 7.06422,-0.45437 22.33945,-1.70581 33.94496,-2.781 11.6055,-1.07518 29.66345,-2.2374 40.12876,-2.58271 16.45689,-0.54301 19.10055,-0.4419 19.56599,0.74831 0.29599,0.75688 0.7117,5.29817 0.92381,10.09174 1.07012,24.18421 9.4678,114.19071 14.00638,150.12044 0.4378,3.46587 0.81008,7.33369 0.82729,8.59516 0.0547,4.01 3.26661,17.54762 3.91457,16.49918 0.59927,-0.96963 2.31051,13.95623 3.0851,26.90889 0.31434,5.25672 0.15638,6.16865 -0.99218,5.7279 -0.75134,-0.28831 -3.90548,-0.0976 -7.00922,0.42387 -13.05274,2.1929 -58.94193,8.44153 -71.23949,9.70053 -7.31652,0.74904 -21.14679,1.75397 -30.73395,2.23318 -9.58716,0.4792 -22.38532,1.30056 -28.44037,1.82524 -6.05504,0.52467 -17.61468,1.53279 -25.68807,2.24025 -8.07339,0.70746 -20.66514,1.5503 -27.98165,1.87298 -7.31651,0.32269 -19.70184,1.36179 -27.52294,2.30912 -7.8211,0.94733 -19.79357,2.17505 -26.6055,2.72827 -17.32422,1.40695 -26.0693,2.62954 -29.72013,4.15495 -4.81667,2.01253 -42.64128,10.91426 -65.69272,15.46026 -22.48904,4.43511 -33.95214,5.62317 -67.43119,6.98875 -12.11009,0.49396 -27.88077,1.1697 -35.04594,1.50166 l -13.0276,0.60355 0.79975,-3.11222 0,0 z"
     id="path3810"
     inkscape:connector-curvature="0"
     transform="scale(0.8,0.8)" />
  <path
     style="color:#000000;fill:#cfcfcf;fill-opacity:1;fill-rule:nonzero;stroke:#c42836;stroke-width:0;stroke-linecap:square;stroke-linejoin:round;stroke-miterlimit:4;stroke-opacity:1;stroke-dasharray:none;stroke-dashoffset:0;marker:none;visibility:visible;display:inline;overflow:visible;enable-background:accumulate"
     d="m 284.44954,518.81908 c 0,-0.18895 -5.38577,-20.93436 -11.96837,-46.10092 -6.58261,-25.16656 -16.50376,-63.30325 -22.04699,-84.7482 -5.54324,-21.44496 -11.09615,-42.29358 -12.3398,-46.33028 -1.98204,-6.43337 -7.77328,-29.5264 -7.77328,-30.99657 0,-0.82136 6.47165,-1.55435 20.19008,-2.28678 l 12.39192,-0.6616 -0.28485,6.88073 c -0.31767,7.67338 -3.41158,19.6495 -4.84706,18.76232 -0.5528,-0.34165 -0.74303,0.28453 -0.47808,1.57366 0.24202,1.1776 0.69585,4.41173 1.00851,7.18696 0.31265,2.77523 1.99841,8.6298 3.74612,13.01015 2.54061,6.36764 3.06035,8.69789 2.59251,11.62361 -0.49968,3.12478 -0.29314,3.83759 1.41392,4.87975 2.0924,1.27741 8.30363,12.85015 8.30363,15.47129 0,0.83432 0.82569,3.91684 1.83486,6.85006 1.00917,2.93322 1.83486,6.26154 1.83486,7.39628 0,1.13473 1.44496,3.79265 3.21101,5.90647 1.76606,2.11383 3.21101,4.21275 3.21101,4.66425 0,0.45151 2.02218,3.05388 4.49374,5.78306 2.57424,2.84256 4.77082,6.27566 5.14242,8.03723 0.77775,3.6869 5.08752,10.86932 6.52347,10.87162 0.56211,9.1e-4 2.1862,1.68155 3.60908,3.73477 3.90275,5.63168 16.08995,16.69737 24.54587,22.28707 25.16599,16.63575 61.18115,27.64214 97.88726,29.91477 27.93262,1.72943 52.7147,0.89199 70.6422,-2.38717 51.57316,-9.43336 84.64122,-27.3372 107.26198,-58.07422 2.43835,-3.31322 5.1602,-7.46899 6.04856,-9.23505 0.88837,-1.76605 5.01276,-8.37156 9.16533,-14.6789 4.15256,-6.30734 9.55016,-14.92625 11.99467,-19.15315 l 4.44454,-7.68526 6.72856,13.64857 c 3.70072,7.50671 8.10517,17.15773 9.78768,21.44672 4.53381,11.5574 11.16102,25.99095 15.23427,33.1791 1.97773,3.49012 4.06264,8.07911 4.63312,10.19776 0.5705,2.11865 4.29745,10.08448 8.28212,17.70185 3.98467,7.61737 7.24486,14.3303 7.24486,14.91763 0,0.7538 -3.30544,1.06952 -11.23854,1.07344 -6.18119,0.003 -23.41743,1.07117 -38.30275,2.37358 -14.88532,1.30242 -32.43119,2.70731 -38.99082,3.12198 -14.58989,0.92231 -34.94063,3.18011 -45.41285,5.03831 -4.28899,0.76104 -13.37156,1.82251 -20.18348,2.35883 -12.46626,0.98151 -30.90018,3.4153 -44.49542,5.87465 -4.03669,0.73024 -15.18348,1.75828 -24.77064,2.28454 -20.20481,1.1091 -54.33583,1.13823 -50.91743,0.0435 3.35353,-1.07399 -9.19113,-1.05938 -28.89908,0.0337 -58.73986,3.25778 -100.45872,5.00611 -100.45872,4.20993 z"
     id="path3820"
     inkscape:connector-curvature="0"
     transform="scale(0.8,0.8)" />
  <path
     style="color:#000000;fill:#fdd1d2;fill-opacity:1;fill-rule:nonzero;stroke:#c42836;stroke-width:0;stroke-linecap:square;stroke-linejoin:round;stroke-miterlimit:4;stroke-opacity:1;stroke-dasharray:none;stroke-dashoffset:0;marker:none;visibility:visible;display:inline;overflow:visible;enable-background:accumulate"
     d="m 284.07041,518.15899 c -0.23728,-0.70947 -9.16658,-34.93674 -19.8429,-76.06059 -10.67631,-41.12386 -21.23497,-81.37615 -23.46369,-89.44954 -2.22872,-8.0734 -4.22255,-15.50459 -4.43074,-16.51376 -0.20819,-1.00918 -1.71418,-7.13537 -3.34665,-13.61376 -2.37567,-9.42773 -2.72772,-11.92747 -1.76371,-12.52326 0.66244,-0.40941 5.78791,-1.00377 11.38994,-1.32081 5.60203,-0.31704 12.61736,-0.81829 15.58963,-1.11389 l 5.40412,-0.53745 -0.65454,6.2977 c -1.21738,11.71325 -2.30112,16.93076 -4.40573,21.2109 -1.25371,2.54964 0.23748,11.57482 3.19103,19.31322 1.09645,2.87272 1.90757,5.53276 1.8025,5.9112 -0.10508,0.37844 0.17109,0.68807 0.61371,0.68807 0.44261,0 0.69151,2.09888 0.55309,4.66417 -0.22322,4.13718 0.0458,4.92918 2.38073,7.00964 1.44782,1.29001 2.43488,2.66505 2.19349,3.05564 -0.2414,0.39059 -0.12671,0.84864 0.25488,1.01788 1.36695,0.60628 4.16304,7.82842 7.13805,18.43717 3.01589,10.7545 3.46185,11.58006 11.21629,20.76361 1.63991,1.94214 2.98165,3.99718 2.98165,4.56675 0,0.56958 0.31206,1.0356 0.69348,1.0356 0.38141,0 1.23432,1.34174 1.89535,2.98165 3.00736,7.46077 4.07644,9.21762 8.62263,14.16984 15.41593,16.79276 23.47016,23.23048 39.32568,31.43291 18.76355,9.70683 38.6104,16.11191 62.58536,20.19789 23.08379,3.93409 69.12843,4.15836 91.21611,0.44428 33.23051,-5.58775 64.00544,-17.44715 83.29928,-32.10011 11.62637,-8.8298 25.56125,-24.34367 32.11168,-35.75031 1.44883,-2.52294 6.63765,-10.8123 11.53071,-18.42079 4.89306,-7.6085 10.01899,-16.04884 11.39098,-18.7563 l 2.49449,-4.92266 6.31621,13.15797 c 3.47391,7.23688 6.3162,13.50979 6.3162,13.93978 0,0.43 0.41285,0.78181 0.91744,0.78181 0.50458,0 0.86854,0.30964 0.80878,0.68808 -0.0597,0.37844 -0.008,0.9977 0.11468,1.37614 0.12283,0.37844 0.30953,0.99771 0.41488,1.37615 1.12938,4.05681 10.6165,25.12583 15.65572,34.76826 3.20328,6.12943 5.63792,11.33064 5.4103,11.55826 -0.22762,0.22762 3.30456,7.80438 7.84929,16.83724 4.54473,9.03287 8.26658,16.87485 8.2708,17.42662 0.005,0.66121 -5.07475,1.20397 -14.9006,1.59207 -8.19954,0.32386 -25.02294,1.43043 -37.38532,2.45905 -12.36239,1.0286 -25.16055,2.06877 -28.44037,2.31146 -17.06169,1.26252 -38.471,3.47606 -48.9672,5.06278 -6.49618,0.98204 -18.46866,2.41952 -26.60551,3.1944 -8.13684,0.77487 -21.39977,2.42952 -29.47316,3.67699 -19.57151,3.0241 -19.05024,2.96561 -35.3211,3.96293 -21.08501,1.29237 -51.22745,1.39711 -52.69029,0.18306 -1.25745,-1.0436 -14.12999,-0.62177 -68.41063,2.24174 -46.0727,2.43053 -61.35903,2.74944 -61.84702,1.29032 l 0,0 z"
     id="path3822"
     inkscape:connector-curvature="0"
     transform="scale(0.8,0.8)" />
  <path
     style="color:#000000;fill:#ff8284;fill-opacity:1;fill-rule:nonzero;stroke:#c42836;stroke-width:0;stroke-linecap:square;stroke-linejoin:round;stroke-miterlimit:4;stroke-opacity:1;stroke-dasharray:none;stroke-dashoffset:0;marker:none;visibility:visible;display:inline;overflow:visible;enable-background:accumulate"
     d="m 436.74312,485.50417 c -42.6246,-1.64995 -85.50813,-13.77664 -111.65048,-31.57273 -8.26269,-5.62472 -20.45961,-18.38219 -20.45961,-21.3999 0,-0.26601 3.61238,1.84903 8.02752,4.7001 40.27566,26.00793 107.40469,39.64085 166.17305,33.74732 42.53328,-4.26541 76.39301,-14.3161 104.56712,-31.03898 5.2259,-3.10186 11.10893,-7.01366 13.0734,-8.69289 2.28085,-1.94968 3.57175,-2.57968 3.57175,-1.74315 0,1.99258 -4.62505,7.88621 -10.64734,13.56774 -6.36354,6.00348 -22.53158,18.29277 -24.06633,18.29277 -0.58637,0 -1.06614,0.32499 -1.06614,0.7222 0,0.39721 -0.72248,0.78234 -1.60551,0.85584 -0.88303,0.0735 -4.70183,1.57012 -8.48624,3.32582 -31.23952,14.49298 -71.1343,21.02796 -117.43119,19.23586 z"
     id="path3830"
     inkscape:connector-curvature="0"
     transform="scale(0.8,0.8)" />
  <path
     style="color:#000000;fill:#ff8284;fill-opacity:1;fill-rule:nonzero;stroke:#c42836;stroke-width:0;stroke-linecap:square;stroke-linejoin:round;stroke-miterlimit:4;stroke-opacity:1;stroke-dasharray:none;stroke-dashoffset:0;marker:none;visibility:visible;display:inline;overflow:visible;enable-background:accumulate"
     d="m 430.77982,463.50922 c -37.26486,-2.24863 -74.30088,-11.09998 -100.91743,-24.11856 -17.1081,-8.36784 -34.40367,-21.31938 -34.40367,-25.76268 0,-0.93309 -0.41285,-1.95167 -0.91744,-2.26353 -0.50458,-0.31185 -0.91743,-0.12979 -0.91743,0.40457 0,1.98863 -1.83756,0.8743 -3.31467,-2.01007 -0.83981,-1.63991 -2.64419,-4.26485 -4.00974,-5.8332 -2.08464,-2.39425 -2.56857,-3.98549 -3.01757,-9.92237 -0.31852,-4.21149 -1.14768,-8.00624 -2.05043,-9.38401 -2.79718,-4.26903 -0.69429,-3.23049 6.42611,3.17363 4.25814,3.82979 11.32012,8.76199 17.75664,12.40153 20.88002,11.80664 36.33263,17.97752 60.22671,24.05108 34.90383,8.87209 55.42175,11.11334 93.14427,10.17451 25.69859,-0.63959 40.31848,-2.05775 57.77446,-5.60428 42.5757,-8.65009 77.04625,-23.63248 99.54129,-43.26495 8.74458,-7.63181 9.18761,-7.89467 9.45825,-5.61196 0.38344,3.23398 -3.40765,13.85336 -7.67607,21.50178 -4.57855,8.20412 -16.73538,20.2823 -27.89981,27.7193 -21.67119,14.43591 -51.70991,25.27624 -85.35362,30.8023 -19.82765,3.25674 -52.58538,4.83005 -73.84985,3.54691 z"
     id="path3838"
     inkscape:connector-curvature="0"
     transform="scale(0.8,0.8)" />
  <path
     style="color:#000000;fill:url(#linearGradient3812);fill-opacity:1;fill-rule:nonzero;stroke:#c42836;stroke-width:0;stroke-linecap:square;stroke-linejoin:round;stroke-miterlimit:4;stroke-opacity:1;stroke-dasharray:none;stroke-dashoffset:0;marker:none;visibility:visible;display:inline;overflow:visible;enable-background:accumulate"
     d="m 414.22701,425.10346 c -43.3246,-4.30017 -85.86853,-17.20352 -113.26371,-34.35228 -8.2092,-5.13878 -16.23905,-12.13265 -24.97821,-21.75562 -4.5126,-4.96897 -5.17882,-6.15787 -4.72425,-8.4307 0.29105,-1.45529 0.0663,-3.51098 -0.49957,-4.56822 -0.56582,-1.05724 -1.43647,-4.0721 -1.93478,-6.69968 -0.49831,-2.62758 -1.58204,-5.52442 -2.40829,-6.43742 -2.4277,-2.68257 -2.60046,-9.64011 -0.41506,-16.71562 1.1554,-3.74075 1.93264,-8.74466 1.93264,-12.44247 l 0,-6.18532 10.77982,-0.55781 c 7.997,-0.41382 12.51073,-1.1511 17.4849,-2.85598 10.24663,-3.512 22.74985,-4.84738 69.4417,-7.41661 14.12844,-0.77742 27.02039,-1.6285 28.64876,-1.89127 1.62838,-0.26277 4.72471,-1.81556 6.88074,-3.45063 6.22304,-4.71941 32.07573,-12.81345 53.00261,-16.59421 19.23054,-3.4743 37.02158,-4.43575 90.43083,-4.88704 49.33529,-0.41686 52.48614,-0.54132 54.58715,-2.15628 2.18599,-1.68028 1.30305,-1.71407 -45.01798,-1.72264 -46.12666,-0.008 -62.75478,0.69359 -87.15596,3.68022 -18.7199,2.29124 -47.31199,10.30752 -61.92661,17.36215 l -9.17431,4.42854 -33.94495,2.01126 c -41.79149,2.47616 -53.028,3.71373 -61.90571,6.81815 -5.49453,1.92135 -9.30503,2.51605 -19.14532,2.98799 -11.8075,0.56627 -12.26471,0.521 -11.75179,-1.16375 0.29353,-0.96412 0.94107,-3.61423 1.43899,-5.88914 0.49792,-2.27492 1.49087,-5.57767 2.20656,-7.33945 0.71569,-1.76179 1.53934,-6.77968 1.83034,-11.15088 0.67245,-10.1012 4.5644,-18.77912 12.40611,-27.66207 4.27978,-4.84806 5.58193,-7.03704 6.05241,-10.17442 1.176,-7.84213 12.63548,-23.4307 19.28264,-26.23059 2.04282,-0.86046 5.76227,-2.31279 8.26545,-3.22739 2.80518,-1.02495 6.27149,-3.38317 9.03521,-6.14689 2.95464,-2.95463 7.39152,-5.89868 13.00882,-8.63186 6.04931,-2.94338 9.37208,-5.20215 11.4424,-7.7784 2.13923,-2.66197 5.46808,-4.87007 12.47813,-8.27701 9.06547,-4.40588 9.93922,-5.08916 16.8718,-13.19412 4.02118,-4.70119 9.39759,-10.33902 11.94759,-12.52852 2.55001,-2.18951 6.01414,-6.04514 7.69807,-8.56807 1.68394,-2.52294 6.36717,-8.20149 10.40717,-12.61901 6.81049,-7.44689 7.64914,-8.81662 11.5151,-18.80733 4.85661,-12.55083 6.16992,-17.018878 6.17696,-21.014962 0.003,-1.595008 0.92006,-5.290896 2.03831,-8.213085 1.81092,-4.732206 2.10182,-5.067108 2.66085,-3.063288 0.34521,1.23738 0.66881,4.00437 0.7191,6.148865 0.0644,2.744773 0.66861,4.408337 2.04099,5.619266 6.57228,5.799073 13.64679,15.129494 13.64679,17.998474 0,0.78902 1.22108,3.85354 2.71352,6.81005 1.49244,2.9565 4.22233,10.06629 6.06642,15.79952 2.2358,6.95103 4.34524,11.64673 6.33133,14.09379 1.63813,2.01835 4.12594,5.94037 5.52847,8.7156 4.43169,8.76915 9.61962,15.68332 12.74868,16.99073 1.61094,0.67309 5.59472,1.49667 8.85285,1.83018 10.63936,1.08904 22.21445,4.65609 31.07593,9.57654 7.04292,3.91066 9.08658,4.63064 13.15287,4.63376 9.80442,0.007 21.84056,2.65282 30.94964,6.80215 4.7999,2.18641 12.6491,5.52512 17.44267,7.41934 14.18752,5.60631 14.92415,6.1332 23.84225,17.05361 9.95474,12.18979 10.65089,13.46018 13.47545,24.59119 2.44532,9.63648 5.46479,16.31253 9.41034,20.80627 2.04405,2.32804 2.7503,4.24568 3.23827,8.79277 0.34324,3.19847 1.25737,9.94382 2.03141,14.9897 2.94505,19.19842 0.2648,63.92472 -3.9142,65.31772 -1.05123,0.35041 -0.87885,0.62577 -15.292,-24.42755 l -11.83834,-20.57771 -0.16997,-9.2388 c -0.21747,-11.82008 -1.13787,-13.69895 -12.77005,-26.0683 -4.15493,-4.41824 -4.8242,-4.8056 -6.77064,-3.91875 -1.18797,0.54128 -2.15995,1.44292 -2.15995,2.00364 0,0.56073 2.8381,4.18197 6.3069,8.0472 7.13297,7.94814 8.96953,11.07698 9.85764,16.79377 0.60994,3.92618 0.58928,3.96757 -1.19278,2.38988 -2.60223,-2.3038 -4.10072,-2.08385 -3.12506,0.45871 0.43565,1.13532 6.85655,15.41591 14.26866,31.73464 7.41211,16.31874 13.69115,30.99274 13.95341,32.6089 0.44237,2.72599 -0.12005,3.5065 -7.77789,10.79394 -10.17319,9.6811 -18.88019,15.49246 -35.50189,23.69518 -27.45701,13.54992 -57.95174,21.51951 -96.78899,25.29516 -16.45834,1.60003 -55.62557,1.56323 -72.05739,-0.0677 l 0,0 z"
     id="path3840"
     inkscape:connector-curvature="0"
     transform="scale(0.8,0.8)" />
  <path
     style="color:#000000;fill:url(#linearGradient3864);fill-opacity:1;fill-rule:nonzero;stroke:#c42836;stroke-width:0;stroke-linecap:square;stroke-linejoin:round;stroke-miterlimit:4;stroke-opacity:1;stroke-dasharray:none;stroke-dashoffset:0;marker:none;visibility:visible;display:inline;overflow:visible;enable-background:accumulate"
     d="m 626.00435,391.11655 c 0.27339,-1.25359 0.87547,-5.25549 1.74326,-11.58702 0.65574,-4.78443 1.51371,-7.13638 2.60327,-7.13638 0.71001,0 2.28444,3.08666 2.29935,4.50785 0.0206,1.96645 -3.2678,9.61537 -5.92861,13.79002 -0.80245,1.25899 -0.91339,1.32481 -0.71727,0.42553 z"
     id="path3862"
     inkscape:connector-curvature="0"
     transform="scale(0.8,0.8)" />
  <path
     style="color:#000000;fill:url(#linearGradient3872);fill-opacity:1;fill-rule:nonzero;stroke:#c42836;stroke-width:0;stroke-linecap:square;stroke-linejoin:round;stroke-miterlimit:4;stroke-opacity:1;stroke-dasharray:none;stroke-dashoffset:0;marker:none;visibility:visible;display:inline;overflow:visible;enable-background:accumulate"
     d="m 252.39907,756.36933 c -1.58161,-8.43071 -11.41698,-35.95903 -26.44568,-74.01906 -3.67097,-9.29671 -6.93934,-18.30936 -7.26305,-20.02811 -0.38045,-2.02003 -0.2521,-5.70327 0.36298,-10.41667 1.60474,-12.29716 1.45845,-18.2045 -0.63154,-25.50338 -2.04716,-7.14932 -5.813,-17.46662 -12.23649,-33.52439 -2.36819,-5.92014 -5.84032,-15.39868 -7.71585,-21.06343 -1.87553,-5.66474 -3.73872,-10.91366 -4.14043,-11.66426 -0.40171,-0.7506 -0.9684,-2.67831 -1.25931,-4.2838 -0.32273,-1.78105 -0.86833,-2.84458 -1.3995,-2.72801 -0.54124,0.11878 -0.72988,-0.27527 -0.49868,-1.04167 1.21081,-4.01367 3.44325,-28.33082 4.25715,-46.37161 0.68716,-15.23141 5.25399,-53.37151 9.43589,-78.80433 2.30322,-14.00734 5.51378,-24.83159 10.30225,-34.73354 2.68751,-5.55741 2.82161,-6.14665 2.8374,-12.46706 0.0279,-11.17558 1.26523,-30.85612 2.3684,-37.67155 1.33301,-8.23544 2.77766,-13.04328 5.48914,-18.26797 l 2.16239,-4.16666 0.46193,4.16666 c 0.25407,2.29167 0.53073,6.82292 0.61481,10.06945 l 0.15287,5.90278 1.20703,-4.86111 c 0.67866,-2.73317 1.38793,-4.40513 1.62026,-3.81945 0.22727,0.57292 1.54372,6.04167 2.92545,12.15278 1.38173,6.11111 3.72261,16.26736 5.20197,22.56944 1.47935,6.30209 4.09834,17.70834 5.81997,25.34723 1.72163,7.63888 8.16924,35.29513 14.32802,61.45833 11.73059,49.83291 13.39014,57.60411 12.7207,59.56766 -0.2243,0.65792 -1.35262,2.00833 -2.50736,3.00089 -2.41171,2.073 -2.05727,3.40367 0.90662,3.40367 3.35207,0 3.71072,1.61175 3.2383,14.55282 -0.23067,6.31887 -1.68892,27.73885 -3.24055,47.59996 -3.15138,40.33821 -6.6516,94.87621 -7.30933,113.88889 -0.23783,6.875 -0.86383,15.625 -1.39111,19.44444 -0.52729,3.81945 -1.1697,10.5382 -1.42759,14.93056 -0.39721,6.76523 -0.794,8.72926 -2.59555,12.84722 -1.16967,2.67361 -2.96271,7.64792 -3.98455,11.05401 l -1.85788,6.19291 -0.50908,-2.71364 z"
     id="path3870"
     inkscape:connector-curvature="0"
     transform="scale(0.8,0.8)" />
  <path
     style="color:#000000;fill:#e8e8e8;fill-opacity:1;fill-rule:nonzero;stroke:#c42836;stroke-width:0;stroke-linecap:square;stroke-linejoin:round;stroke-miterlimit:4;stroke-opacity:1;stroke-dasharray:none;stroke-dashoffset:0;marker:none;visibility:visible;display:inline;overflow:visible;enable-background:accumulate"
     d="m 252.39684,757.0519 c -1.58959,-8.47322 -10.22252,-32.77481 -25.75766,-72.50752 -4.10677,-10.50347 -7.7369,-20.49454 -8.06695,-22.20239 -0.40232,-2.08175 -0.22943,-6.316 0.52457,-12.84722 1.88438,-16.32289 1.15565,-19.83422 -10.17824,-49.04323 -5.85986,-15.10166 -9.44666,-25.01516 -15.80562,-43.68493 -0.58541,-1.71875 -1.34393,-3.31335 -1.68561,-3.54356 -0.36228,-0.24409 -0.32359,-2.12562 0.0928,-4.51389 1.20015,-6.88321 2.0767,-16.48648 3.19449,-34.99811 1.16237,-19.24967 1.63273,-24.3541 4.22348,-45.83333 5.46446,-45.30438 8.35489,-59.07221 15.68517,-74.71212 l 2.90151,-6.19066 0.54902,-15.97222 c 0.90753,-26.40221 2.61702,-37.03451 7.5264,-46.81106 l 2.5833,-5.14439 0.45762,4.3782 c 0.25169,2.40801 0.48951,6.75424 0.52851,9.65828 0.0634,4.72061 0.14374,5.02254 0.75838,2.84952 0.37812,-1.3368 1.01322,-3.2118 1.41133,-4.16666 0.6787,-1.62785 0.78109,-1.49792 1.64187,2.08333 1.28702,5.35461 7.16707,30.81008 12.43194,53.81944 2.44705,10.69445 9.32736,40.2257 15.28959,65.625 10.48119,44.65025 12.84007,55.26648 12.84032,57.78834 6e-5,0.65512 -0.93738,2.25887 -2.08322,3.5639 -2.37569,2.70576 -2.70212,4.24935 -0.79307,3.75012 4.19518,-1.09706 5.32328,3.38369 4.3161,17.14324 -0.42123,5.75451 -2.15642,29.21274 -3.85598,52.1294 -3.3802,45.57816 -5.45437,77.92411 -6.61285,103.125 -0.41261,8.9757 -1.19372,20.2257 -1.73579,25 -0.54207,4.77431 -1.18375,11.64931 -1.42594,15.27778 -0.35918,5.38112 -0.86848,7.55731 -2.76291,11.80556 -1.2774,2.86458 -3.07926,7.83355 -4.00414,11.04214 l -1.68159,5.83381 -0.50685,-2.70177 0,0 z"
     id="path3874"
     inkscape:connector-curvature="0"
     transform="scale(0.8,0.8)" />
</svg>
