<?xml version="1.0" encoding="UTF-8" standalone="no"?>
<svg
   xmlns:dc="http://purl.org/dc/elements/1.1/"
   xmlns:cc="http://creativecommons.org/ns#"
   xmlns:rdf="http://www.w3.org/1999/02/22-rdf-syntax-ns#"
   xmlns:svg="http://www.w3.org/2000/svg"
   xmlns="http://www.w3.org/2000/svg"
   xmlns:xlink="http://www.w3.org/1999/xlink"
   xmlns:sodipodi="http://sodipodi.sourceforge.net/DTD/sodipodi-0.dtd"
   xmlns:inkscape="http://www.inkscape.org/namespaces/inkscape"
   version="1.0"
   width="880"
   height="880"
   viewBox="0 0 704 704"
   preserveAspectRatio="xMidYMid meet"
   id="svg2"
   inkscape:version="0.48.4 r9939"
   sodipodi:docname="onion.svg">
  <defs
     id="defs16">
    <linearGradient
       inkscape:collect="always"
       xlink:href="#linearGradient3806"
       id="linearGradient3812"
       x1="673.57593"
       y1="383.13223"
       x2="485.28409"
       y2="112.91946"
       gradientUnits="userSpaceOnUse"
       gradientTransform="matrix(0.8,0,0,0.8,0,3)" />
    <linearGradient
       id="linearGradient3806">
      <stop
         style="stop-color:#ff8284;stop-opacity:1;"
         offset="0"
         id="stop3808" />
      <stop
         style="stop-color:#fdd1d2;stop-opacity:1;"
         offset="1"
         id="stop3810" />
    </linearGradient>
    <linearGradient
       gradientTransform="translate(-300.17167,-62.677807)"
       y2="112.91946"
       x2="485.28409"
       y1="383.13223"
       x1="673.57593"
       gradientUnits="userSpaceOnUse"
       id="linearGradient3011"
       xlink:href="#linearGradient3806"
       inkscape:collect="always" />
    <linearGradient
       inkscape:collect="always"
       xlink:href="#linearGradient3806"
       id="linearGradient3864"
       gradientUnits="userSpaceOnUse"
       x1="673.57593"
       y1="383.13223"
       x2="485.28409"
       y2="112.91946"
       gradientTransform="matrix(0.34042553,0,0,0.34042553,500,300.5741)" />
    <linearGradient
       inkscape:collect="always"
       xlink:href="#linearGradient3806"
       id="linearGradient3868"
       gradientUnits="userSpaceOnUse"
       x1="673.57593"
       y1="383.13223"
       x2="485.28409"
       y2="112.91946"
       gradientTransform="matrix(0.28089888,0,0,0.28089888,190.41273,415.29501)" />
    <linearGradient
       inkscape:collect="always"
       xlink:href="#linearGradient3806"
       id="linearGradient3872"
       gradientUnits="userSpaceOnUse"
       x1="673.57593"
       y1="383.13223"
       x2="485.28409"
       y2="112.91946"
       gradientTransform="matrix(0.55555555,0,0,0.55555555,151.61234,258.41329)" />
    <linearGradient
       inkscape:collect="always"
       xlink:href="#linearGradient3806"
       id="linearGradient3045"
       gradientUnits="userSpaceOnUse"
       gradientTransform="matrix(0.8,0,0,0.8,0,3)"
       x1="673.57593"
       y1="383.13223"
       x2="485.28409"
       y2="112.91946" />
    <linearGradient
       inkscape:collect="always"
       xlink:href="#linearGradient3806"
       id="linearGradient3047"
       gradientUnits="userSpaceOnUse"
       gradientTransform="matrix(0.34042553,0,0,0.34042553,500,300.5741)"
       x1="673.57593"
       y1="383.13223"
       x2="485.28409"
       y2="112.91946" />
    <linearGradient
       inkscape:collect="always"
       xlink:href="#linearGradient3806"
       id="linearGradient3049"
       gradientUnits="userSpaceOnUse"
       gradientTransform="matrix(0.55555555,0,0,0.55555555,151.61234,258.41329)"
       x1="673.57593"
       y1="383.13223"
       x2="485.28409"
       y2="112.91946" />
  </defs>
  <sodipodi:namedview
     pagecolor="#ffffff"
     bordercolor="#666666"
     borderopacity="1"
     objecttolerance="10"
     gridtolerance="10"
     guidetolerance="10"
     inkscape:pageopacity="0"
     inkscape:pageshadow="2"
     inkscape:window-width="1920"
     inkscape:window-height="1147"
     id="namedview14"
     showgrid="false"
     inkscape:zoom="0.55048947"
     inkscape:cx="80.074772"
     inkscape:cy="241.01117"
     inkscape:window-x="-8"
     inkscape:window-y="-8"
     inkscape:window-maximized="1"
     inkscape:current-layer="svg2" />
  <metadata
     id="metadata4">
Created by potrace 1.14, written by Peter Selinger 2001-2017
<rdf:RDF>
  <cc:Work
     rdf:about="">
    <dc:format>image/svg+xml</dc:format>
    <dc:type
       rdf:resource="http://purl.org/dc/dcmitype/StillImage" />
    <dc:title />
  </cc:Work>
</rdf:RDF>
</metadata>
  <g
     id="g3016"
     transform="translate(-10.932251,13.080803)">
    <g
       transform="translate(0,3)"
       style="fill:#cb3c32;fill-opacity:1"
       id="g3021">
      <g
         style="fill:#cb3c32;fill-opacity:1;stroke:none"
         transform="matrix(0.1,0,0,-0.1,0,701)"
         id="g6">
        <path
           inkscape:connector-curvature="0"
           style="fill:#cb3c32;fill-opacity:1"
           d="m 4780,4618 c 0,-3 29,-67 64,-144 35,-76 73,-159 84,-184 11,-25 36,-80 56,-124 41,-90 41,-92 21,-114 -100,-109 -181,-167 -345,-248 -449,-223 -1175,-276 -1744,-129 -198,51 -400,132 -495,199 -28,20 -55,36 -61,36 -6,0 -55,45 -110,99 -108,107 -150,176 -176,286 l -14,60 4,-62 c 4,-68 45,-169 94,-233 21,-27 28,-50 33,-105 9,-97 41,-173 108,-258 31,-40 68,-95 82,-124 13,-29 49,-81 79,-116 158,-185 443,-316 814,-374 137,-22 495,-24 631,-5 168,24 396,84 466,123 13,7 30,14 36,15 25,4 169,86 218,124 57,45 110,94 142,132 23,29 73,117 73,131 0,7 25,39 111,145 31,38 61,128 66,197 7,88 25,114 43,61 17,-53 27,-52 45,6 12,42 13,58 3,85 -10,29 -9,39 11,80 12,25 24,69 26,97 3,28 2,42 -1,31 -10,-41 -38,-111 -52,-133 -14,-22 -16,-20 -72,80 -145,259 -208,363 -223,366 -10,2 -17,2 -17,0 z m 226,-671 c -4,-24 -23,-77 -42,-118 -81,-170 -308,-330 -599,-423 -203,-64 -359,-92 -596,-107 -493,-30 -985,77 -1280,279 -99,67 -129,97 -130,130 -1,17 -3,20 -6,10 -2,-10 -8,-18 -11,-18 -11,0 -83,101 -98,137 -19,44 -45,145 -39,151 3,3 26,-15 53,-39 67,-62 111,-99 116,-99 3,0 42,-23 88,-50 193,-115 434,-192 773,-247 172,-27 582,-25 774,6 285,45 537,126 728,234 113,64 124,72 207,149 33,31 63,55 65,53 2,-2 0,-24 -3,-48 z m -209,-394 c -21,-40 -132,-144 -205,-191 -33,-22 -58,-43 -54,-46 3,-4 -2,-4 -12,0 -15,6 -17,4 -11,-6 5,-9 4,-11 -4,-6 -6,4 -17,4 -24,-2 -7,-5 -48,-24 -92,-42 -232,-96 -481,-140 -787,-140 -500,0 -946,146 -1137,372 -20,24 -42,49 -49,57 -30,31 1,20 61,-23 221,-154 557,-256 943,-287 407,-32 870,52 1169,211 86,46 190,113 200,131 15,22 16,-1 2,-28 z"
           id="path8" />
        <path
           inkscape:connector-curvature="0"
           style="fill:#cb3c32;fill-opacity:1"
           d="m 1827,4485 c 1,-54 4,-100 6,-102 2,-2 3,-27 1,-56 -3,-54 0,-49 11,17 3,21 8,36 10,34 2,-2 18,-69 35,-148 17,-80 33,-152 37,-160 3,-8 7,-24 8,-35 2,-11 29,-130 60,-265 86,-370 109,-469 154,-655 47,-195 48,-210 21,-225 -25,-13 -26,-33 -2,-26 13,5 22,-1 31,-20 9,-20 6,-85 -13,-317 -59,-695 -96,-1425 -66,-1298 4,18 13,37 20,41 8,5 10,18 6,36 -4,16 1,77 9,134 9,58 18,134 21,170 2,36 11,126 19,200 19,173 62,631 78,825 l 12,150 155,8 c 85,4 270,14 410,22 140,7 302,16 359,19 114,5 164,25 71,28 l -55,1 50,7 50,7 -45,3 -45,3 50,7 50,7 -69,1 c -38,1 -220,-7 -405,-19 -185,-11 -392,-21 -461,-22 l -125,-2 -31,120 c -18,66 -57,219 -89,340 -31,121 -68,261 -81,310 -14,50 -27,99 -29,110 -3,11 -22,88 -44,170 -21,83 -54,209 -72,280 -19,72 -37,132 -42,133 -4,2 -5,8 -1,13 3,5 2,15 -3,22 -4,6 -9,21 -10,32 -2,11 -14,60 -26,109 l -23,90 3,-99 z"
           id="path10" />
        <path
           inkscape:connector-curvature="0"
           style="fill:#cb3c32;fill-opacity:1"
           d="m 5548,3049 c -24,-14 -24,-39 12,-465 32,-387 69,-734 99,-934 l 19,-125 1,110 c 1,120 -22,656 -40,905 -36,535 -37,541 -91,509 z"
           id="path12" />
      </g>
      <path
         style="color:#000000;fill:#cb3c32;fill-opacity:1;fill-rule:nonzero;stroke:#c42836;stroke-width:0;stroke-linecap:square;stroke-linejoin:round;stroke-miterlimit:4;stroke-opacity:1;stroke-dasharray:none;stroke-dashoffset:0;marker:none;visibility:visible;display:inline;overflow:visible;enable-background:accumulate"
         id="path2993"
         d="m 397.25403,515.87139 c 9.60972,0.0648 19.21979,0.0738 28.82971,0.0738 8.80148,0.13141 17.5939,-0.11362 26.38306,-0.54593 5.04897,-0.14858 10.09054,-0.42817 15.13579,-0.66768 5.30504,-0.16952 10.59117,-0.67821 15.88585,-1.03075 3.37947,-0.41207 6.66777,-1.31222 10.00523,-1.96205 9.7899,-1.66804 19.6057,-3.14156 29.47334,-4.26474 5.78008,-0.60977 11.57765,-1.08858 17.38884,-1.24688 5.78746,-0.47084 11.5018,-1.5871 17.21754,-2.57654 5.58038,-0.94044 11.19432,-1.72251 16.84217,-2.10803 5.95364,-0.76116 11.90801,-1.43895 17.89718,-1.87803 5.68628,-0.53592 11.42315,-0.30339 17.10861,-0.78148 0.44494,-0.0533 0.89342,-0.0826 1.33482,-0.15995 2.31599,-0.40575 -0.17361,-0.12898 2.21415,-0.51876 2.36882,-0.3867 4.79406,-0.54859 7.18148,-0.74982 7.5512,-0.29894 15.07062,-0.95714 22.5906,-1.67878 4.58682,-0.37897 9.17038,-0.74541 13.74487,-1.2554 6.67038,-0.6562 13.37285,-0.85886 20.06938,-1.04232 3.7099,-0.10223 7.42118,-0.13182 11.13233,-0.13213 1.96989,3e-4 3.93978,0.002 5.90967,0.002 0,0 -4.52031,3.28314 -4.52031,3.28314 l 0,0 c -1.96402,-0.005 -3.92805,-0.0124 -5.89208,-0.0138 -3.68985,0.003 -7.37986,0.0154 -11.06888,0.10341 -6.69556,0.16556 -13.39767,0.38432 -20.06166,1.09493 -4.56627,0.5111 -9.14302,0.85846 -13.72249,1.22715 -7.52289,0.70051 -15.04704,1.30817 -22.59436,1.67833 -2.40664,0.2291 -4.82662,0.42941 -7.20879,0.86099 -1.18444,0.21459 -1.06392,0.29745 -2.24488,0.46465 -0.44271,0.0627 -0.88973,0.0897 -1.3346,0.13453 -5.66851,0.35666 -11.36624,0.21613 -17.02946,0.72413 -6.01385,0.4619 -11.98427,1.21067 -17.96894,1.92759 -5.61289,0.40388 -11.19634,1.14563 -16.74124,2.10236 -5.75327,0.99455 -11.50609,2.15985 -17.33792,2.56753 -5.76313,0.16482 -11.51583,0.58745 -17.2485,1.20154 -9.88674,1.12407 -19.7243,2.59877 -29.51861,4.35717 -3.3491,0.698 -6.66728,1.61781 -10.08383,1.92841 -5.28245,0.33612 -10.55684,0.81601 -15.84832,0.99204 -5.05084,0.25332 -10.09816,0.54211 -15.15399,0.67916 -8.74843,0.37578 -17.49996,0.54698 -26.25715,0.42306 -9.67762,-2e-5 -19.35539,0.009 -29.03283,0.0738 0,0 4.52422,-3.28703 4.52422,-3.28703 z"
         inkscape:connector-curvature="0"
         transform="scale(0.8,0.8)" />
      <path
         style="color:#000000;fill:#cb3c32;fill-opacity:1;fill-rule:nonzero;stroke:#c42836;stroke-width:0;stroke-linecap:square;stroke-linejoin:round;stroke-miterlimit:4;stroke-opacity:1;stroke-dasharray:none;stroke-dashoffset:0;marker:none;visibility:visible;display:inline;overflow:visible;enable-background:accumulate"
         id="path2995"
         d="m 636.47497,366.74854 c 0.87166,4.35128 3.06423,8.2587 4.98467,12.2088 2.61504,5.32087 5.14991,10.68069 7.77178,15.99884 1.39538,3.84569 3.58689,7.25562 5.70058,10.71859 1.05573,2.04428 1.47737,4.31328 2.20236,6.47632 0.87588,2.61324 1.17457,3.17961 2.28869,5.84527 3.16366,7.95796 6.67733,15.76605 10.52288,23.41647 2.07343,4.25562 4.80381,8.14673 7.00056,12.33123 0.92639,1.59876 0.84648,3.46985 1.28972,5.20678 0.38085,1.4924 0.89056,2.59894 1.47204,4.03935 3.08217,6.28889 6.65384,12.32766 9.92833,18.52176 2.27577,4.03026 3.80221,8.38699 5.32374,12.7357 0.49204,1.27296 1.17991,2.49102 1.94603,3.621 0,0 -4.83201,2.83299 -4.83201,2.83299 l 0,0 c -0.78163,-1.17879 -1.49427,-2.43704 -1.99411,-3.76056 -1.46361,-4.34432 -2.93214,-8.69687 -5.18243,-12.7172 -3.27364,-6.21608 -6.88015,-12.25074 -10.01265,-18.53555 -0.59228,-1.4311 -1.14993,-2.63307 -1.55201,-4.1228 -0.4536,-1.68061 -0.35759,-3.49569 -1.22336,-5.05825 -2.153,-4.21018 -4.84914,-8.12868 -6.901,-12.39669 -3.82981,-7.66983 -7.33977,-15.48976 -10.56395,-23.43371 -1.05755,-2.47293 -1.5176,-3.41569 -2.36704,-5.86703 -1.64177,-4.73786 0.28237,0.4684 -1.13345,-3.79279 -0.25005,-0.75257 -0.71238,-1.79601 -1.03361,-2.54583 -2.0911,-3.49464 -4.26522,-6.93656 -5.66404,-10.79475 -2.61388,-5.32265 -5.14992,-10.68255 -7.77179,-16.00059 -1.95603,-3.98379 -4.17036,-7.91565 -5.12709,-12.29307 0,0 4.92716,-2.63428 4.92716,-2.63428 z"
         inkscape:connector-curvature="0"
         transform="scale(0.8,0.8)" />
      <path
         style="color:#000000;fill:#cb3c32;fill-opacity:1;fill-rule:nonzero;stroke:#c42836;stroke-width:0;stroke-linecap:square;stroke-linejoin:round;stroke-miterlimit:4;stroke-opacity:1;stroke-dasharray:none;stroke-dashoffset:0;marker:none;visibility:visible;display:inline;overflow:visible;enable-background:accumulate"
         id="path2997"
         d="m 710.47315,663.44712 c 0.77422,3.55202 2.46454,6.7911 3.63782,10.21525 1.43983,3.95756 1.91306,8.1362 2.48505,12.27766 0.49685,2.52477 0.53492,5.11905 0.96269,7.64942 0.52837,2.25318 0.60929,4.56623 0.69754,6.86851 0.12118,3.28614 -0.003,6.57695 0.17712,9.86021 0.29095,2.53714 1.07971,5.01404 2.27038,7.27059 0.83815,1.30274 1.55421,2.33741 1.23887,3.93316 -0.51847,1.33167 -1.31131,2.41163 -1.29577,3.88172 0.10402,0.90003 0.27552,1.79022 0.4281,2.68279 0,0 -4.937,2.62141 -4.937,2.62141 l 0,0 c -0.1551,-0.91303 -0.32545,-1.82343 -0.4622,-2.73949 -0.14397,-1.68908 0.45612,-2.59916 1.20427,-4.04077 0.56422,-1.43306 -0.32621,-2.35668 -1.02583,-3.5651 -1.21587,-2.33173 -2.03294,-4.87957 -2.35813,-7.49157 -0.21008,-3.28429 -0.0555,-6.57893 -0.18969,-9.86745 -0.0834,-2.2754 -0.16138,-4.56353 -0.68517,-6.78992 -0.45483,-2.53644 -0.42416,-5.1531 -0.9322,-7.68789 -0.56651,-4.1081 -0.98583,-8.26253 -2.42937,-12.18647 -1.17568,-3.44284 -2.86633,-6.69372 -3.71167,-10.24534 0,0 4.92519,-2.64672 4.92519,-2.64672 z"
         inkscape:connector-curvature="0"
         transform="scale(0.8,0.8)" />
      <path
         style="color:#000000;fill:#cb3c32;fill-opacity:1;fill-rule:nonzero;stroke:#c42836;stroke-width:0;stroke-linecap:square;stroke-linejoin:round;stroke-miterlimit:4;stroke-opacity:1;stroke-dasharray:none;stroke-dashoffset:0;marker:none;visibility:visible;display:inline;overflow:visible;enable-background:accumulate"
         id="path2999"
         d="m 269.3617,702.25607 c -0.94515,4.72523 -1.50344,9.51374 -2.09245,14.293 -0.56082,4.45943 -0.79858,8.94797 -0.92454,13.43781 0.004,2.38324 0.12644,4.48079 -0.78385,6.71165 -2.3123,4.07321 -4.00758,8.40783 -5.47762,12.84353 -1.69345,5.08877 -2.65152,10.3629 -3.19165,15.6861 -0.0128,0.53983 -0.0256,1.07967 -0.0384,1.61951 0,0 -4.95778,2.51227 -4.95778,2.51227 l 0,0 c 0.0115,-0.55565 0.023,-1.11131 0.0345,-1.66696 0.5514,-5.3622 1.49861,-10.6791 3.18197,-15.81345 1.44107,-4.42932 3.03431,-8.80902 5.37701,-12.85484 1.07396,-2.28879 0.86664,-4.03663 0.89826,-6.53073 0.14769,-4.5115 0.37977,-9.02356 0.94539,-13.50496 0.58368,-4.77648 1.14356,-9.55838 2.00191,-14.29517 0,0 5.02729,-2.43776 5.02729,-2.43776 z"
         inkscape:connector-curvature="0"
         transform="scale(0.8,0.8)" />
      <path
         style="color:#000000;fill:#cb3c32;fill-opacity:1;fill-rule:nonzero;stroke:#c42836;stroke-width:0;stroke-linecap:square;stroke-linejoin:round;stroke-miterlimit:4;stroke-opacity:1;stroke-dasharray:none;stroke-dashoffset:0;marker:none;visibility:visible;display:inline;overflow:visible;enable-background:accumulate"
         id="path3001"
         d="m 255.44205,768.33011 c 12.99357,-0.86142 26.01274,-1.22572 39.02217,-1.75925 13.33773,-0.52143 26.6754,-0.86516 39.99098,-1.81678 5.71786,-0.29487 11.40001,-0.94683 17.08659,-1.57986 6.84805,-1.26607 13.68699,-2.57868 20.52548,-3.90117 16.55411,-3.06638 32.92608,-6.9724 49.24545,-11.08416 4.22406,-1.16402 8.56907,-1.81613 12.75574,-3.12088 2.0408,-0.636 4.03408,-1.46251 6.00013,-2.2959 0.73545,-0.21723 1.45698,-0.48882 2.20635,-0.65167 2.09495,-0.45529 5.70763,-0.83179 7.66744,-1.03232 6.33373,-0.64806 12.68989,-1.06422 19.03258,-1.61487 10.26073,-0.67863 20.45652,-2.00008 30.65323,-3.28631 5.31943,-1.16624 10.75239,-1.23673 16.16797,-1.46318 9.36456,-0.30647 18.73854,-0.55874 28.07666,-1.37407 5.32919,-0.4653 10.64387,-1.08419 15.96773,-1.60697 13.86857,-1.21665 27.73838,-2.40532 41.64421,-3.0984 5.85226,-0.47109 11.74996,-0.12704 17.59972,-0.55744 3.67105,-1.03331 7.49517,-1.17867 11.2797,-1.46539 11.65204,-0.43752 23.12703,-2.49994 34.62712,-4.25701 9.305,-1.16858 18.58177,-2.53847 27.87432,-3.80135 3.77909,-0.78316 7.55609,-1.30576 11.4088,-1.47009 2.56181,-0.006 5.11759,-0.19845 7.67278,-0.35871 0,0 -4.44445,3.27101 -4.44445,3.27101 l 0,0 c -2.56195,0.15465 -5.12429,0.32188 -7.69137,0.36332 -3.82587,0.20637 -7.58011,0.79331 -11.34806,1.48327 -9.25533,1.21874 -18.49571,2.54612 -27.75593,3.72554 -11.54294,1.77077 -23.06743,3.76696 -34.75523,4.30314 -3.81167,0.31505 -7.61493,0.62983 -11.34378,1.50128 -5.81835,0.30021 -11.66152,0.0578 -17.47883,0.4592 -13.86445,0.66025 -27.69636,1.7967 -41.51977,3.03963 -5.3288,0.53043 -10.64993,1.1427 -15.98531,1.60229 -9.38542,0.80846 -18.80459,1.07639 -28.21349,1.45717 -5.42432,0.26392 -10.85048,0.45187 -16.19049,1.53245 -10.15805,1.22179 -20.3148,2.47069 -30.52657,3.16827 -6.36843,0.55843 -12.75334,0.98391 -19.10759,1.69219 -2.28608,0.25482 -5.3645,0.60574 -7.68531,1.16968 -0.744,0.18078 -1.45768,0.46911 -2.18652,0.70366 -6.07818,2.49629 -12.22455,3.82389 -18.64252,5.22521 -16.33493,4.05338 -32.71775,7.91517 -49.25674,11.0581 -6.90397,1.36803 -13.79934,2.78757 -20.73246,3.99893 -5.65144,0.60654 -11.30245,1.19248 -16.9822,1.4755 -13.27907,0.89134 -26.57839,1.1945 -39.87569,1.71328 -13.09302,0.53353 -26.19806,0.92368 -39.26448,1.95457 0,0 4.48164,-3.30191 4.48164,-3.30191 z"
         inkscape:connector-curvature="0"
         transform="scale(0.8,0.8)" />
      <path
         style="color:#000000;fill:#cb3c32;fill-opacity:1;fill-rule:nonzero;stroke:#c42836;stroke-width:0;stroke-linecap:square;stroke-linejoin:round;stroke-miterlimit:4;stroke-opacity:1;stroke-dasharray:none;stroke-dashoffset:0;marker:none;visibility:visible;display:inline;overflow:visible;enable-background:accumulate"
         id="path3003"
         d="m 231.84994,314.52308 c -3.77353,3.93506 -6.3017,8.72562 -8.39572,13.70438 -3.50626,9.42227 -4.28927,19.5284 -4.95628,29.474 -0.46602,8.40714 -0.54512,16.82859 -0.53045,25.24651 0.0737,3.30423 -1.34154,6.16396 -2.76158,9.04825 -0.42355,0.86028 -0.85756,1.71537 -1.28635,2.57305 -0.46752,0.9555 -0.93504,1.91101 -1.40256,2.86652 -2.28982,5.31614 -4.23847,10.80476 -5.55988,16.44692 -0.74735,3.19103 -1.51101,7.74251 -2.07933,10.93197 -2.00046,12.6258 -3.87476,25.27593 -5.39994,37.96864 -0.88147,8.02017 -1.80306,16.03837 -2.81885,24.04248 -1.43769,11.33954 -1.60168,22.78891 -2.20098,34.19195 -0.80477,11.90321 -1.92453,23.7982 -4.22434,35.51342 0,0 -4.92161,2.38435 -4.92161,2.38435 l 0,0 c 2.46779,-11.69028 3.6093,-23.59408 4.39102,-35.50565 0.57078,-11.39265 0.70267,-22.83018 2.05754,-34.16575 1.02144,-8.01918 1.94034,-16.05273 2.90131,-24.07977 1.55521,-12.69633 3.44295,-25.35066 5.38414,-37.99301 0.53036,-3.04467 1.33265,-7.89894 2.02937,-10.95816 1.28847,-5.65752 3.20881,-11.16125 5.4421,-16.50906 2.24826,-4.64315 0.5145,-1.08973 2.66435,-5.42914 1.39628,-2.81835 2.89831,-5.58629 2.87439,-8.82595 0.0508,-8.4482 0.18209,-16.89912 0.63209,-25.33671 0.64555,-9.97335 1.39713,-20.1077 4.79252,-29.59172 2.03956,-5.01939 4.52922,-9.8259 8.21155,-13.86122 0,0 5.15749,-2.1363 5.15749,-2.1363 z"
         inkscape:connector-curvature="0"
         transform="scale(0.8,0.8)" />
      <path
         sodipodi:nodetypes="cccccscccccccccccsccccsscc"
         style="color:#000000;fill:#cb3c32;fill-opacity:1;fill-rule:nonzero;stroke:#c42836;stroke-width:0;stroke-linecap:square;stroke-linejoin:round;stroke-miterlimit:4;stroke-opacity:1;stroke-dasharray:none;stroke-dashoffset:0;marker:none;visibility:visible;display:inline;overflow:visible;enable-background:accumulate"
         id="path3007"
         d="m 252.87596,768.53438 c -1.01282,-11.75754 -9.62857,-25.11664 -13.54705,-36.15154 -6.21613,-17.05692 -12.67338,-34.02411 -19.53038,-50.83383 -2.41114,-6.40979 -6.0488,-12.61496 -6.73982,-19.53729 0.0346,-0.62598 0.0386,-1.25441 0.10393,-1.87794 0.35492,-3.38913 1.07283,-6.72128 1.41892,-10.11823 0.55209,-5.41907 0.60866,-7.71294 0.93225,-13.42225 3.58836,-29.46348 -21.75028,-42.19771 -24.84908,-65.54929 -0.79905,-1.99389 0.29034,-4.64768 -0.64911,-6.59039 -1.10054,-2.0687 -1.88357,-4.25968 -2.35381,-6.55041 -0.16953,-0.89556 -0.23233,-1.80411 -0.29324,-2.71162 l 4.96713,-2.56957 0,0 c 0.0498,0.88558 0.10025,1.77232 0.25295,2.64786 0.43236,2.25199 1.18406,4.40597 2.28415,6.42499 0.95155,1.94278 1.30973,4.00617 2.01298,6.03577 8.46573,27.57608 17.62082,41.51469 23.36066,66.48211 -0.28033,5.94304 -0.29538,7.79197 -0.80041,13.39422 -0.30482,3.38125 -0.93205,6.6772 -1.32253,10.04018 -0.0694,0.59795 -0.0926,1.20037 -0.13888,1.80055 0.51009,6.90015 4.15659,13.11072 6.45931,19.5055 6.72533,16.87313 13.15733,33.8601 19.46951,50.89182 2.67914,7.44388 5.4442,14.88611 7.39725,22.56515 1.23629,4.86084 1.0174,4.75127 1.66827,9.15905 0.10553,0.71467 0.23629,1.42539 0.35443,2.13808 z"
         inkscape:connector-curvature="0"
         transform="scale(0.8,0.8)" />
      <path
         style="color:#000000;fill:#cb3c32;fill-opacity:1;fill-rule:nonzero;stroke:#c42836;stroke-width:0;stroke-linecap:square;stroke-linejoin:round;stroke-miterlimit:4;stroke-opacity:1;stroke-dasharray:none;stroke-dashoffset:0;marker:none;visibility:visible;display:inline;overflow:visible;enable-background:accumulate"
         id="path3009"
         d="m 233.23022,306.50808 c 6.09833,-0.93923 12.29564,-1.03668 18.44418,-1.48502 10.87685,-0.84015 21.78785,-1.01268 32.68115,-1.55282 4.64619,-0.37922 9.7719,-0.029 14.01154,-2.29524 7.30554,-3.45596 15.58628,-3.89752 23.49684,-4.82277 17.22613,-1.53645 34.51083,-2.23385 51.76797,-3.32014 8.32574,-0.69683 16.69705,-0.81935 25.0051,-1.71785 0.52,-0.10327 1.05533,-0.14736 1.55998,-0.30979 0.37591,-0.12099 1.40476,-0.722 1.0581,-0.53287 -1.34503,0.73377 -2.66316,1.52346 -4.0536,2.16704 -0.26603,0.12314 0.43742,-0.39051 0.65047,-0.59187 1.54263,-1.45799 -0.55991,0.42279 1.8515,-1.6871 3.6593,-2.28729 4.54156,-2.90345 9.82833,-5.4296 1.40379,-0.67077 2.90416,-1.11755 4.36521,-1.65223 6.23218,-2.2807 12.54118,-4.26023 18.88699,-6.19684 9.78297,-2.82038 19.72351,-5.10861 29.79628,-6.61679 5.01565,-0.75099 7.62151,-0.95995 12.57649,-1.46297 7.0236,-0.48121 14.03098,-1.08591 21.02186,-1.91039 5.65626,-0.60684 11.36072,-0.49461 17.04049,-0.50596 9.68484,-0.006 19.3697,-0.0138 29.05453,-0.0318 4.01548,-0.008 8.03094,-0.0213 12.04643,-0.0179 7.53163,0.0302 15.06332,0.0406 22.59501,0.0458 7.47532,0.13363 14.94148,-0.13386 22.4042,-0.53021 0.64971,-0.0349 1.29943,-0.0698 1.94914,-0.10465 0,0 -4.46925,3.28181 -4.46925,3.28181 l 0,0 c -0.64426,0.0307 -1.28853,0.0614 -1.93279,0.0921 -7.43787,0.34774 -14.87805,0.56634 -22.32545,0.43893 -7.5731,0.005 -15.14619,0.0163 -22.71924,0.0443 -3.99209,6.3e-4 -7.98411,-0.0196 -11.97617,-0.0333 -9.67031,-0.0296 -19.34083,-0.0496 -29.0111,0.004 -5.70085,0.0504 -11.42371,-0.005 -17.09851,0.62299 -6.94825,0.78142 -13.91469,1.31317 -20.88961,1.80276 -5.10028,0.5154 -7.336,0.68246 -12.5165,1.46248 -10.05602,1.5141 -19.97808,3.81211 -29.73739,6.65893 -6.56282,2.02555 -7.38286,2.21335 -13.67815,4.39813 -1.76919,0.61399 -3.53153,1.24824 -5.28506,1.90563 -1.46997,0.55108 -2.83762,1.45191 -4.38454,1.71942 -0.67931,0.11747 2.32769,-1.11855 1.65029,-1.24658 -0.77045,-0.14563 -1.35925,0.78209 -2.03887,1.17313 -0.40284,0.33921 -0.81754,0.66481 -1.20852,1.01762 -0.15427,0.13921 -1.0886,1.13953 -1.26506,1.2547 -3.16436,2.06525 -4.8382,3.63413 -8.19061,4.07035 -8.25361,0.79981 -16.56,0.8976 -24.82525,1.55731 -17.26578,1.02884 -34.55968,1.7106 -51.78148,3.36833 -7.95851,0.97104 -16.27151,1.50335 -23.5718,5.11318 -4.36488,1.96326 -9.35186,1.70093 -14.02421,2.02177 -10.89532,0.49232 -21.80659,0.69367 -32.68124,1.5704 -6.17976,0.45794 -12.41849,0.57129 -18.53208,1.63599 0,0 4.4544,-3.37263 4.4544,-3.37263 z"
         inkscape:connector-curvature="0"
         transform="scale(0.8,0.8)" />
      <path
         style="color:#000000;fill:#cb3c32;fill-opacity:1;fill-rule:nonzero;stroke:#c42836;stroke-width:0;stroke-linecap:square;stroke-linejoin:round;stroke-miterlimit:4;stroke-opacity:1;stroke-dasharray:none;stroke-dashoffset:0;marker:none;visibility:visible;display:inline;overflow:visible;enable-background:accumulate"
         id="path3013"
         d="m 590.79449,270.18358 c 1.5305,3.46563 4.42499,5.96304 7.13435,8.49522 1.8011,1.6156 3.48969,3.34069 4.92419,5.29076 0.73951,1.30998 1.58296,2.55509 2.37492,3.83249 0.75969,1.30152 1.44967,2.57711 1.81504,4.04694 0.24884,1.36189 0.67679,2.67182 0.89198,4.04254 0.2512,2.12833 0.20604,4.27875 0.21567,6.41807 -0.0168,1.82965 -0.075,3.66753 0.43647,5.43908 0,0 -4.90972,2.68232 -4.90972,2.68232 l 0,0 c -0.5505,-1.81879 -0.52326,-3.70467 -0.48605,-5.59143 -0.0113,-2.11057 0.0101,-4.22971 -0.20671,-6.33156 -0.19691,-1.36048 -0.6255,-2.65311 -0.86916,-4.0007 -0.32623,-1.42116 -0.99723,-2.63752 -1.7243,-3.89184 -0.78679,-1.26354 -1.62599,-2.49421 -2.34951,-3.79698 -1.41049,-1.92188 -3.0732,-3.6236 -4.83794,-5.22372 -2.757,-2.60205 -5.66711,-5.17946 -7.28521,-8.68831 0,0 4.87598,-2.72288 4.87598,-2.72288 z"
         inkscape:connector-curvature="0"
         transform="scale(0.8,0.8)" />
      <path
         style="color:#000000;fill:#cb3c32;fill-opacity:1;fill-rule:nonzero;stroke:#c42836;stroke-width:0;stroke-linecap:square;stroke-linejoin:round;stroke-miterlimit:4;stroke-opacity:1;stroke-dasharray:none;stroke-dashoffset:0;marker:none;visibility:visible;display:inline;overflow:visible;enable-background:accumulate"
         id="path3015"
         d="m 300.33885,436.91304 c -1.48139,-2.33708 -3.13665,-4.5676 -4.59171,-6.92115 -0.95841,-1.58968 -1.28248,-3.36667 -1.42257,-5.18632 -0.0949,-1.50716 -0.62095,-2.80749 -1.42856,-4.05579 -1.00214,-1.51091 -2.4968,-2.56592 -3.85492,-3.72554 -1.24565,-0.92521 -2.50398,-1.87486 -3.42441,-3.1362 -0.66158,-1.50944 -0.97428,-3.01122 -2.01658,-4.33625 -1.41782,-1.34681 -2.92079,-2.53385 -4.07774,-4.13121 -0.91248,-1.36086 -1.10401,-2.80992 -0.93194,-4.39435 0.26933,-1.74861 -0.0456,-3.50517 -0.39046,-5.21862 -0.45177,-1.79768 -0.50798,-3.65616 -0.79895,-5.47703 -0.16328,-1.78117 -1.18697,-3.01181 -2.35781,-4.26225 -1.31435,-1.79568 -2.15765,-3.865 -3.2492,-5.78899 -0.97787,-1.3919 -1.17446,-3.06145 -1.67178,-4.63341 -0.88467,-2.24829 -3.11646,-3.38313 -4.8829,-4.85323 -1.24602,-1.44587 -0.9031,-3.01021 -0.38969,-4.67887 0.48806,-1.51612 0.99058,-3.02262 1.50516,-4.52982 0.40673,-1.65237 -0.70105,-2.95794 -1.43273,-4.33193 -0.84143,-1.75308 -0.90183,-3.69576 -1.20761,-5.57603 -0.26436,-1.52006 -0.50007,-3.02358 -1.10767,-4.44921 -0.94335,-1.26 -2.07127,-2.29527 -2.82669,-3.69676 -0.75869,-1.98022 -0.79347,-4.13623 -0.85649,-6.22989 -0.12071,-1.74849 0.30587,-3.45892 0.54663,-5.17822 0.3612,-1.80349 1.25217,-3.43596 1.82333,-5.17662 0.84896,-2.42691 1.22199,-4.97065 1.47412,-7.51791 0.16422,-1.86427 0.18086,-3.7365 0.18649,-5.60657 -0.13231,-2.8453 0.1438,-5.64117 0.67554,-8.43284 0.70574,-3.03373 1.52979,-6.0328 2.21677,-9.07229 0.31065,-2.38861 1.41797,-4.47904 2.42181,-6.62152 1.15618,-3.06369 1.02652,-6.4467 1.10428,-9.67334 0.17337,-3.78735 0.29974,-7.64915 1.67858,-11.22171 0.88982,-1.70775 2.04408,-3.17142 2.76768,-4.96856 0.87123,-2.99848 2.5064,-5.48171 4.43048,-7.90161 2.16176,-2.46125 4.6808,-4.58925 6.62732,-7.23521 1.19288,-1.58897 2.13702,-2.2575 2.63656,-4.24635 0.29033,-2.08809 0.45527,-4.20966 1.1363,-6.2214 0.61584,-1.81918 1.08425,-2.53588 1.9958,-4.2797 2.41156,-4.1499 5.27921,-7.99499 8.38011,-11.64759 1.81415,-1.89115 3.38423,-3.97056 5.34648,-5.71284 4.5922,-3.59459 9.93744,-5.99484 15.42332,-7.85008 1.56205,-0.50901 3.1467,-0.9605 4.70382,-1.4834 0.41497,-0.13935 1.59677,-0.7007 1.22849,-0.46409 -5.8697,3.77117 -4.53681,2.73192 -3.06496,1.49463 0.2439,-0.27286 0.50068,-0.53472 0.73169,-0.81857 0.50485,-0.62028 1.26179,-1.74263 1.78612,-2.31935 1.43395,-1.57723 3.25767,-2.73408 4.97721,-3.9653 5.39582,-3.64521 11.16993,-6.69197 17.15397,-9.24451 0.50728,-0.19537 1.02749,-0.36001 1.52185,-0.58611 0.42341,-0.19364 1.63929,-0.88364 1.22542,-0.67035 -1.27269,0.65589 -2.46925,1.47548 -3.80214,1.99829 -0.35815,0.14048 0.55662,-0.53287 0.80817,-0.82394 0.42382,-0.49041 1.16327,-1.57123 1.51846,-2.07564 3.69002,-4.74571 9.53822,-7.31959 14.61813,-10.21269 3.06244,-1.52969 6.23562,-2.82354 9.3365,-4.26932 0.61615,-0.28728 2.39449,-1.28054 1.82747,-0.90549 -1.03544,0.6849 -2.15913,1.22597 -3.2387,1.83895 2.74976,-1.75063 4.40542,-4.62251 6.37915,-7.12628 3.5421,-4.43707 7.54893,-8.47089 11.67799,-12.35651 1.81305,-2.06634 4.18725,-3.54347 6.01638,-5.58664 0.90748,-1.01366 1.21502,-1.54644 1.97588,-2.6664 2.01421,-3.78689 4.78551,-7.01505 7.67825,-10.14974 2.86919,-2.94392 5.43311,-6.17659 8.33907,-9.08266 2.22558,-1.76031 3.03776,-4.31345 4.08739,-6.82389 1.70814,-4.29152 3.44639,-8.56759 5.15238,-12.85952 1.33306,-3.03473 2.18421,-6.23541 2.99829,-9.43765 0.68337,-2.690706 0.64603,-5.481226 0.87085,-8.229357 0.17172,-2.684733 1.49083,-4.948335 2.68126,-7.276518 0.89345,-1.865807 1.10412,-3.905528 1.22617,-5.940767 0.1704,-2.249861 1.26951,-4.288391 2.28021,-6.26478 0.6097,-1.270671 0.32797,-0.632278 0.84741,-1.914188 0,0 5.06692,-2.348068 5.06692,-2.348068 l 0,0 c -0.49995,1.323943 -0.22655,0.666145 -0.8221,1.972603 -1.03229,1.883802 -2.11235,3.89715 -2.38148,6.046426 -0.10878,2.095152 -0.28445,4.198872 -1.12935,6.149375 -1.14433,2.293669 -2.58795,4.454021 -2.79174,7.093145 -0.24757,2.769139 -0.16439,5.584242 -0.82046,8.304176 -0.80082,3.234323 -1.6784,6.462443 -3.01023,9.526003 -1.72379,4.27808 -3.43969,8.55842 -5.11718,12.85541 -1.08122,2.52121 -1.74606,5.23262 -3.99664,7.02635 -2.99297,2.82791 -5.48548,6.1498 -8.38683,9.07237 -2.89911,3.09084 -5.71731,6.26673 -7.68168,10.05269 -0.73113,1.12813 -1.06894,1.72674 -1.94025,2.75919 -1.78581,2.11608 -4.22761,3.53155 -6.04165,5.62914 -4.1349,3.85421 -8.15776,7.85159 -11.69097,12.27472 -2.01186,2.50065 -3.61315,5.42586 -6.28382,7.30896 -2.09146,1.20348 -4.16384,2.44074 -6.27438,3.61042 -3.5741,1.9808 -7.5664,3.1651 -11.12719,5.18117 0.81612,-0.48998 1.62631,-0.98999 2.44837,-1.46993 0.69095,-0.4034 -1.37668,0.81599 -2.05501,1.24027 -1.64257,1.02739 -3.25894,2.10871 -4.59588,3.52703 -0.36459,0.38678 -0.6766,0.81995 -1.01491,1.22993 -0.61926,0.89697 -1.33878,2.40283 -2.26239,3.03786 -2.77054,1.9049 -5.37137,3.64517 -8.47066,4.78267 -1.22903,0.52897 -2.31122,0.98351 -3.52708,1.55497 -0.70115,0.32954 -2.51393,1.66599 -2.08945,1.0179 0.52883,-0.8074 1.92845,-0.73873 2.44189,-1.55601 0.93423,-1.48707 -5.44674,4.03798 -4.48903,2.75794 -1.67737,1.19566 -3.56224,2.30865 -4.99977,3.80655 -0.67692,0.70535 -1.17886,1.55167 -1.76148,2.32844 -0.22466,0.29951 -0.4685,0.58414 -0.70275,0.87621 -3.3136,3.44435 -8.03956,4.59113 -12.41066,5.97796 -1.14178,0.39188 -2.62892,0.88589 -3.7463,1.33642 -0.644,0.25965 -2.39485,1.32922 -1.90946,0.83268 0.79431,-0.81254 1.95578,-1.16283 2.87933,-1.82481 1.00486,-0.72027 -3.97811,2.3391 -3.11566,2.01234 -2.02683,1.67651 -3.55006,3.7704 -5.39169,5.6378 -3.11042,3.63094 -6.03208,7.41381 -8.45641,11.54909 -0.85529,1.58765 -1.42536,2.48731 -2.0213,4.15668 -0.70886,1.98563 -0.90423,4.09886 -1.11425,6.17977 -0.11466,0.60098 -0.20535,1.30326 -0.46729,1.87176 -0.47116,1.02262 -1.56174,1.59123 -2.08264,2.58137 -1.87253,2.72568 -4.42249,4.85422 -6.64664,7.28002 -1.92971,2.36392 -3.63779,4.7446 -4.45851,7.72779 -0.32068,0.84683 -0.60103,1.7328 -1.10023,2.49769 -0.47879,0.7336 -0.64088,0.70273 -1.12848,1.4691 -0.20738,0.32595 -0.36597,0.68051 -0.54895,1.02076 -1.55874,3.45124 -1.58816,7.33083 -1.80322,11.05183 -0.0686,3.28306 0.0793,6.7005 -0.95739,9.85524 -0.96641,2.13097 -2.20146,4.14639 -2.48731,6.52416 -0.69754,3.03742 -1.47936,6.04595 -2.24322,9.06596 -0.55231,2.75393 -0.83958,5.50534 -0.68118,8.31723 -0.004,1.88783 -0.0183,3.77776 -0.17665,5.6603 -0.24383,2.57529 -0.58614,5.15811 -1.41974,7.61889 -0.51361,1.73945 -1.36552,3.34335 -1.85194,5.08616 -0.21994,1.69959 -0.68492,3.38097 -0.6006,5.10431 0.0507,2.00927 0.0618,4.08116 0.74469,5.99508 0.75651,1.4173 1.96188,2.41729 2.85309,3.73622 0.64038,1.46384 0.90221,3.00258 1.16428,4.57185 0.31652,1.81806 0.32191,3.71133 1.1233,5.41722 0.79773,1.50425 1.9429,2.9197 1.64652,4.72909 -0.48151,1.52029 -1.06034,3.0024 -1.50903,4.53457 -0.51005,1.40702 -1.01327,2.83248 0.0574,4.09596 1.85603,1.53019 4.12017,2.77065 5.0503,5.11829 0.52006,1.52537 0.65425,3.17704 1.61558,4.53961 1.06044,1.89087 1.88251,3.92251 3.18294,5.67424 1.23156,1.32528 2.32533,2.67143 2.52189,4.54406 0.32137,1.81037 0.32705,3.67118 0.78433,5.46351 0.36286,1.76017 0.72357,3.56983 0.48641,5.37187 -0.19789,1.4606 -0.15028,2.7588 0.72462,4.02942 1.15732,1.5846 2.69255,2.73589 4.0621,4.11978 1.03021,1.34033 1.45896,2.79277 2.03711,4.34091 0.90605,1.21794 2.16033,2.1058 3.34927,3.03004 1.40549,1.18781 2.91091,2.30843 3.94326,3.86177 0.86373,1.32234 1.43001,2.71058 1.56397,4.30485 0.10868,1.73575 0.37088,3.43578 1.27938,4.95814 1.44202,2.35934 3.08155,4.60233 4.59924,6.91199 0,0 -4.83161,2.81212 -4.83161,2.81212 z"
         inkscape:connector-curvature="0"
         transform="scale(0.8,0.8)" />
      <path
         style="color:#000000;fill:#cb3c32;fill-opacity:1;fill-rule:nonzero;stroke:#c42836;stroke-width:0;stroke-linecap:square;stroke-linejoin:round;stroke-miterlimit:4;stroke-opacity:1;stroke-dasharray:none;stroke-dashoffset:0;marker:none;visibility:visible;display:inline;overflow:visible;enable-background:accumulate"
         id="path3019"
         d="m 439.24732,69.899041 c 0.0977,2.2569 0.47589,4.511806 1.19568,6.654788 0.62072,1.434948 0.94225,2.942322 1.10877,4.488582 4.48274,8.542272 3.56742,6.170202 6.25649,11.789492 0.82541,1.159965 1.04712,2.585669 1.6506,3.869467 0.65788,1.094811 1.80178,1.733863 2.71205,2.590307 1.20825,1.124023 1.88892,2.649793 2.87149,3.947233 0.83545,1.20062 1.69476,2.38584 2.21104,3.76276 0.41124,1.3848 0.39525,2.83007 0.70701,4.23479 0.53287,1.17255 1.10026,2.34061 1.72242,3.46906 0.61723,1.07744 1.29597,2.11786 1.93477,3.1855 0.47088,1.20184 1.0217,2.36517 1.57346,3.53325 0.56312,1.50905 1.08191,3.03919 1.39823,4.62075 0.28426,1.71059 1.02745,3.27763 1.50637,4.9316 0.27572,1.30031 0.71756,2.55816 1.25888,3.76928 0.55523,1.19585 1.10292,2.33323 1.36305,3.63645 0.0459,1.79411 0.91736,3.17024 1.87926,4.60371 1.12466,1.34454 2.35235,2.59388 3.50885,3.91146 1.51602,1.38919 2.12623,3.27951 2.94279,5.09307 8.11846,10.80694 8.1119,10.89429 14.71212,14.17804 15.3848,5.68925 7.71058,3.44877 16.78572,7.47039 2.01055,0.88706 4.24776,0.98519 6.37762,1.46113 2.79635,0.72959 5.63933,1.57046 8.26295,2.8055 1.88669,1.17964 3.817,2.26032 5.78732,3.30162 1.79545,0.85502 3.70556,1.40857 5.38692,2.48613 1.34344,1.04348 2.54772,2.29576 4.26062,2.66679 2.56992,0.0374 5.13276,-0.1446 7.70314,-0.0421 4.07675,0.12176 8.06659,1.03524 12.09317,1.60487 2.46415,0.28779 4.92343,0.68569 7.28352,1.4572 1.70919,0.53323 3.36757,1.24061 5.01379,1.94558 1.68646,0.9683 3.37352,1.9259 5.05176,2.91061 5.68716,2.57718 11.51609,4.81877 17.34913,7.041 5.16146,1.9555 10.51836,3.80667 14.9763,7.14338 2.32506,2.38092 4.32708,5.07244 6.44739,7.64421 2.02455,2.44561 3.94696,4.97466 5.88635,7.48785 1.53081,1.69287 2.9768,3.46102 4.2678,5.34574 1.40007,2.10616 2.3775,4.43779 3.30697,6.77773 0.75703,1.79968 0.87105,3.73596 1.11958,5.64329 0.60212,2.93023 1.39858,5.82988 2.32756,8.67395 0.77727,2.36159 1.77775,4.65501 2.86167,6.89156 0.88299,1.56763 1.72646,3.24647 2.88289,4.64178 0.28087,0.33889 1.54595,1.56747 1.87549,1.89143 3.01041,2.61784 3.00605,6.82983 3.44084,10.50622 0.42437,5.38494 1.16205,10.73229 1.89206,16.08128 0.58362,2.75902 0.88542,5.68742 1.93949,8.32617 0.11781,0.281 0.11042,0.19593 0.025,0.66293 -0.49087,2.68406 -0.69957,5.327 -0.86225,8.05772 -0.30646,6.47625 -0.34689,12.96106 -0.37732,19.44329 -0.0951,3.60634 0.15183,7.22406 -0.0713,10.82579 -0.60964,4.56725 -1.60726,9.06926 -2.46949,13.59273 -1.28987,6.46291 -2.09861,13.00205 -3.57038,19.42928 -0.70531,3.44165 -1.7155,6.77466 -2.93232,10.06449 -1.90197,4.58745 -4.62,8.79257 -7.18628,13.0294 -2.38936,3.71624 -4.31584,7.76133 -7.10078,11.21143 -1.03868,0.97293 -1.69144,2.16595 -2.44174,3.3618 -2.4162,3.32767 -4.45015,6.89644 -6.56665,10.41447 -1.4987,2.30859 -2.61742,4.81835 -3.86786,7.25952 -0.90137,1.87399 -2.4021,3.35567 -3.65647,4.99123 -1.1374,1.26907 -1.96633,2.762 -2.9897,4.11523 -0.89739,1.1696 -1.70987,2.39889 -2.61112,3.5668 -0.11191,0.17448 -0.22383,0.34896 -0.33574,0.52344 l -5.11921,2.27555 0,0 c 0.10364,-0.19376 0.20727,-0.38753 0.31091,-0.5813 0.86817,-1.19823 1.79008,-2.35409 2.60785,-3.59019 1.12151,-1.2803 1.81848,-2.86945 3.01147,-4.10068 1.21123,-1.65187 2.73248,-3.09353 3.68863,-4.91052 1.32824,-2.41659 2.34153,-5.00542 3.89184,-7.30465 2.13341,-3.50185 4.11845,-7.0958 6.53529,-10.418 0.79247,-1.19355 1.29092,-2.50547 2.40613,-3.42522 2.95246,-3.32338 4.78301,-7.47319 7.21063,-11.16362 2.54769,-4.20535 5.22931,-8.38534 7.17717,-12.90973 1.21359,-3.28112 2.28085,-6.5862 2.99508,-10.01846 1.54357,-6.41344 2.34865,-12.95264 3.61229,-19.42185 0.82838,-4.49545 1.7752,-8.97004 2.4205,-13.49677 0.27387,-3.59731 0.0195,-7.21845 0.14202,-10.82246 0.0468,-6.49122 0.12409,-12.98373 0.37159,-19.47081 0.0911,-1.78528 0.16517,-3.61305 0.32408,-5.39657 0.0826,-0.9267 0.0889,-1.8778 0.35995,-2.76781 0.0252,-0.0828 0.16889,-0.0752 0.21191,-0.15032 0.0256,-0.0447 -0.0271,-0.0993 -0.0406,-0.14899 -1.01538,-2.70601 -1.35753,-5.66209 -1.94001,-8.47538 -0.70211,-5.35757 -1.43306,-10.71083 -1.87507,-16.09868 -0.43286,-3.55755 -0.39025,-7.62305 -3.31062,-10.15234 -2.04341,-2.03447 -3.58829,-4.08797 -4.85662,-6.69453 -1.09781,-2.25798 -2.11376,-4.574 -2.88988,-6.96272 -0.93861,-2.87393 -1.72933,-5.8042 -2.39097,-8.75306 -0.26947,-1.85942 -0.32451,-3.7628 -1.05442,-5.52711 -0.90176,-2.30642 -1.85297,-4.60474 -3.24064,-6.67051 -1.28767,-1.87441 -2.74892,-3.61571 -4.24597,-5.32382 -1.92394,-2.51619 -3.84288,-5.0402 -5.86671,-7.4771 -2.09284,-2.53595 -4.05921,-5.202 -6.36968,-7.53472 -4.42771,-3.27646 -9.71258,-5.12579 -14.81903,-7.06486 -5.87169,-2.24099 -11.76075,-4.45726 -17.48467,-7.05819 -1.67108,-0.95924 -3.34857,-1.90323 -5.03327,-2.83752 -1.64514,-0.6792 -3.28092,-1.39912 -4.98983,-1.90332 -2.33415,-0.73995 -4.76969,-1.09052 -7.19283,-1.40614 -4.01001,-0.59141 -7.99388,-1.48173 -12.0617,-1.55085 -2.60628,-0.0592 -5.22519,0.22201 -7.81781,-0.0404 -1.68729,-0.5631 -2.9586,-1.73141 -4.34328,-2.8043 -1.69136,-1.02228 -3.59859,-1.56345 -5.35601,-2.45832 -1.96286,-1.03299 -3.86017,-2.15455 -5.76601,-3.2801 -2.61333,-1.17915 -5.40496,-2.03588 -8.18519,-2.71033 -2.16822,-0.45016 -4.4398,-0.57398 -6.46495,-1.53308 -1.68664,-0.68457 -3.46862,-0.94716 -5.28197,-1.0505 -2.63106,-0.0648 -5.27391,-0.15496 -7.86771,-0.63968 -2.24912,-0.48266 -4.5487,-1.00578 -6.48896,-2.30121 -1.36495,-0.97453 -2.69722,-1.92175 -3.4599,-3.482 -0.91912,-1.50881 -2.03129,-2.89478 -2.91198,-4.43089 -0.94094,-1.3972 -2.07617,-2.66294 -2.84752,-4.17328 -1.12819,-1.88245 -2.07455,-3.87418 -2.84639,-5.92889 -0.80036,-1.76284 -1.37684,-3.60192 -2.86197,-4.94808 -1.17559,-1.33217 -2.4319,-2.59039 -3.54862,-3.97295 -0.99493,-1.48412 -1.94388,-2.94052 -1.99377,-4.79746 -0.23016,-1.26938 -0.77035,-2.35868 -1.30662,-3.51936 -0.55198,-1.2349 -1.0213,-2.51412 -1.2918,-3.84299 -0.46595,-1.67458 -1.22524,-3.25201 -1.52357,-4.97577 -0.29254,-1.54124 -0.8059,-3.02242 -1.33884,-4.49455 -0.54419,-1.15146 -1.1061,-2.29016 -1.5502,-3.48333 -0.64255,-1.07304 -1.32339,-2.1201 -1.94173,-3.2048 -0.64641,-1.17538 -1.23826,-2.38816 -1.79926,-3.60641 -0.31843,-1.38436 -0.33346,-2.79186 -0.67222,-4.17128 -0.47706,-1.33264 -1.32915,-2.4646 -2.12346,-3.62461 -0.95087,-1.27905 -1.63359,-2.76402 -2.82427,-3.85599 -0.98191,-0.88281 -2.1576,-1.59461 -2.82147,-2.77733 -0.0816,-0.173395 -0.55205,-1.163802 -0.61271,-1.328025 -0.29293,-0.793101 -0.29557,-1.687398 -0.91534,-2.331333 -1.34863,-1.061646 -3.20488,-0.994037 -4.53225,-2.127218 -1.56777,-1.536185 -1.90038,-3.205714 -1.8376,-5.355306 3.6e-4,-1.561763 0.0103,-3.125746 -0.098,-4.684671 -0.14307,-1.50946 -0.43396,-2.981781 -1.04308,-4.380942 -0.7469,-2.194754 -1.11734,-4.506614 -1.28288,-6.814913 l 4.98272,-2.538821 z"
         inkscape:connector-curvature="0"
         transform="scale(0.8,0.8)"
         sodipodi:nodetypes="ccccccccccccccccccccccccccccccccccccccccsccccccccccccccccccccccccccccccccccccccccccccccccccccccccccccccccccccccccccccccccccccccccccccc" />
    </g>
    <path
       inkscape:connector-curvature="0"
       d="m 567.28988,575.74916 c 1.222,0.30402 2.45474,0.48613 3.70594,0.60287 0,0 -4.14384,2.94379 -4.14384,2.94379 l 0,0 c -1.26297,-0.15181 -2.51367,-0.35143 -3.75426,-0.63876 0,0 4.19216,-2.9079 4.19216,-2.9079 z"
       id="path3806"
       style="color:#000000;fill:#cb3c32;fill-opacity:1;fill-rule:nonzero;stroke:#c42836;stroke-width:0;stroke-linecap:square;stroke-linejoin:round;stroke-miterlimit:4;stroke-opacity:1;stroke-dasharray:none;stroke-dashoffset:0;marker:none;visibility:visible;display:inline;overflow:visible;enable-background:accumulate" />
    <path
       inkscape:connector-curvature="0"
       d="m 568.72582,575.52784 c 0.39052,0.002 0.78104,0.003 1.17156,0.005 0,0 -4.11442,2.9893 -4.11442,2.9893 l 0,0 c -0.39514,0.002 -0.79026,0.003 -1.1854,0.005 0,0 4.12826,-2.99936 4.12826,-2.99936 z"
       id="path3808"
       style="color:#000000;fill:#cb3c32;fill-opacity:1;fill-rule:nonzero;stroke:#c42836;stroke-width:0;stroke-linecap:square;stroke-linejoin:round;stroke-miterlimit:4;stroke-opacity:1;stroke-dasharray:none;stroke-dashoffset:0;marker:none;visibility:visible;display:inline;overflow:visible;enable-background:accumulate" />
    <path
       inkscape:connector-curvature="0"
       id="path3810"
       d="m 205.52042,614.94832 c 0.35188,-1.36938 1.17786,-5.0011 1.8355,-8.07047 0.65763,-3.06939 2.21806,-7.69323 3.46759,-10.27523 1.89203,-3.9096 2.32319,-5.799 2.57863,-11.30005 0.16871,-3.63303 0.60484,-7.43119 0.96918,-8.44036 0.36434,-1.00918 0.72102,-4.31193 0.79262,-7.33946 0.0716,-3.02752 0.57876,-9.12248 1.12704,-13.54434 1.61501,-13.02515 8.08786,-79.53072 10.25396,-105.35474 1.10043,-13.11926 2.19192,-24.08456 2.42552,-24.36732 0.2336,-0.28275 22.20667,-1.69315 48.82904,-3.13421 49.01715,-2.6533 53.70008,-3.01088 54.40687,-4.15451 0.21671,-0.35065 5.95257,-0.63753 12.74636,-0.63753 17.20539,0 37.21026,-1.26781 45.90965,-2.90953 9.27016,-1.74943 22.28527,-3.47555 30.82569,-4.08824 3.63303,-0.26063 12.22019,-1.24941 19.08257,-2.19728 17.74346,-2.45083 25.0121,-3.2418 36.69725,-3.99337 5.65137,-0.3635 17.87156,-1.36465 27.15597,-2.2248 9.2844,-0.86014 23.73076,-1.78992 32.103,-2.06617 13.16552,-0.43441 15.28044,-0.35352 15.6528,0.59865 0.23679,0.6055 0.56936,4.23854 0.73904,8.07339 0.8561,19.34737 7.57424,91.35257 11.20511,120.09635 0.35024,2.7727 0.64806,5.86696 0.66183,6.87613 0.0438,3.208 2.61329,14.0381 3.13166,13.19935 0.47941,-0.77571 1.8484,11.16498 2.46808,21.52711 0.25147,4.20537 0.1251,4.93492 -0.79375,4.58232 -0.60107,-0.23065 -3.12438,-0.0781 -5.60737,0.33909 -10.4422,1.75432 -47.15355,6.75323 -56.9916,7.76043 -5.85321,0.59923 -16.91743,1.40317 -24.58716,1.78654 -7.66972,0.38336 -17.90825,1.04045 -22.75229,1.46019 -4.84403,0.41974 -14.09175,1.22624 -20.55046,1.7922 -6.45871,0.56597 -16.53211,1.24024 -22.38532,1.49839 -5.85321,0.25815 -15.76147,1.08943 -22.01835,1.84729 -6.25688,0.75787 -15.83486,1.74004 -21.2844,2.18262 -13.85938,1.12556 -20.85544,2.10363 -23.7761,3.32396 -3.85334,1.61002 -34.11303,8.73141 -52.55418,12.36821 -17.99123,3.54809 -27.16171,4.49853 -53.94495,5.591 -9.68807,0.39517 -22.30462,0.93576 -28.03675,1.20133 l -10.42208,0.48284 0.6398,-2.48978 0,0 z"
       style="color:#000000;fill:#cfcfcf;fill-opacity:1;fill-rule:nonzero;stroke:#c42836;stroke-width:0;stroke-linecap:square;stroke-linejoin:round;stroke-miterlimit:4;stroke-opacity:1;stroke-dasharray:none;stroke-dashoffset:0;marker:none;visibility:visible;display:inline;overflow:visible;enable-background:accumulate" />
    <path
       inkscape:connector-curvature="0"
       id="path3820"
       d="m 227.55963,418.05526 c 0,-0.15116 -4.30861,-16.74748 -9.57469,-36.88073 -5.26609,-20.13325 -13.20301,-50.6426 -17.6376,-67.79856 -4.43459,-17.15597 -8.87692,-33.83487 -9.87184,-37.06423 -1.58563,-5.14669 -6.21862,-23.62112 -6.21862,-24.79725 0,-0.65709 5.17732,-1.24348 16.15206,-1.82943 l 9.91354,-0.52928 -0.22788,5.50459 c -0.25414,6.1387 -2.72926,15.7196 -3.87765,15.00985 -0.44224,-0.27332 -0.59442,0.22763 -0.38246,1.25893 0.19361,0.94208 0.55668,3.52939 0.80681,5.74957 0.25012,2.22018 1.59872,6.90384 2.99689,10.40812 2.03249,5.09411 2.44828,6.95831 2.07401,9.29889 -0.39974,2.49982 -0.23451,3.07007 1.13114,3.9038 1.67392,1.02193 6.6429,10.28012 6.6429,12.37703 0,0.66746 0.66055,3.13347 1.46789,5.48005 0.80733,2.34657 1.46789,5.00923 1.46789,5.91702 0,0.90779 1.15596,3.03412 2.5688,4.72518 1.41285,1.69106 2.56881,3.3702 2.56881,3.7314 0,0.36121 1.61775,2.4431 3.59499,4.62645 2.0594,2.27404 3.81666,5.02052 4.11394,6.42978 0.6222,2.94952 4.07002,8.69546 5.21878,8.6973 0.44968,7.2e-4 1.74896,1.34524 2.88726,2.98781 3.1222,4.50535 12.87196,13.3579 19.6367,17.82966 20.13279,13.3086 48.94492,22.11371 78.3098,23.93181 22.3461,1.38355 42.17176,0.7136 56.51376,-1.90973 41.25853,-7.54669 67.71298,-21.86976 85.80959,-46.45938 1.95068,-2.65057 4.12816,-5.97519 4.83885,-7.38804 0.71069,-1.41284 4.0102,-6.69725 7.33226,-11.74312 3.32205,-5.04587 7.64013,-11.941 9.59574,-15.32252 l 3.55563,-6.14821 5.38285,10.91886 c 2.96057,6.00537 6.48413,13.72618 7.83014,17.15738 3.62705,9.24592 8.92882,20.79276 12.18742,26.54328 1.58218,2.79209 3.25011,6.46328 3.70649,8.1582 0.4564,1.69492 3.43796,8.06759 6.6257,14.16148 3.18773,6.0939 5.79589,11.46424 5.79589,11.93411 0,0.60304 -2.64436,0.85561 -8.99084,0.85875 -4.94495,0.002 -18.73394,0.85694 -30.6422,1.89886 -11.90825,1.04194 -25.94495,2.16585 -31.19265,2.49759 -11.67191,0.73785 -27.95251,2.54409 -36.33028,4.03065 -3.43119,0.60883 -10.69725,1.458 -16.14679,1.88706 -9.973,0.78521 -24.72014,2.73224 -35.59633,4.69972 -3.22935,0.58419 -12.14679,1.40662 -19.81651,1.82763 -16.16385,0.88728 -43.46867,0.91059 -40.73395,0.0348 2.68283,-0.85919 -7.3529,-0.8475 -23.11926,0.027 -46.99189,2.60623 -80.36698,4.00489 -80.36698,3.36795 z"
       style="color:#000000;fill:#cfcfcf;fill-opacity:1;fill-rule:nonzero;stroke:#c42836;stroke-width:0;stroke-linecap:square;stroke-linejoin:round;stroke-miterlimit:4;stroke-opacity:1;stroke-dasharray:none;stroke-dashoffset:0;marker:none;visibility:visible;display:inline;overflow:visible;enable-background:accumulate" />
    <path
       inkscape:connector-curvature="0"
       id="path3822"
       d="m 227.25633,417.52719 c -0.18983,-0.56757 -7.33327,-27.94939 -15.87432,-60.84847 -8.54105,-32.89909 -16.98798,-65.10092 -18.77095,-71.55963 -1.78298,-6.45872 -3.37804,-12.40367 -3.5446,-13.21101 -0.16655,-0.80734 -1.37134,-5.7083 -2.67732,-10.89101 -1.90053,-7.54218 -2.18217,-9.54197 -1.41096,-10.01861 0.52995,-0.32752 4.63032,-0.80301 9.11195,-1.05664 4.48162,-0.25364 10.09389,-0.65464 12.4717,-0.89112 l 4.3233,-0.42996 -0.52363,5.03816 c -0.97391,9.3706 -1.8409,13.54461 -3.52459,16.96872 -1.00297,2.03972 0.18999,9.25986 2.55283,15.45058 0.87716,2.29818 1.52605,4.42621 1.442,4.72896 -0.0841,0.30275 0.13687,0.55046 0.49096,0.55046 0.35409,0 0.55321,1.6791 0.44248,3.73133 -0.17858,3.30975 0.0366,3.94335 1.90458,5.60771 1.15826,1.03201 1.9479,2.13204 1.75479,2.44452 -0.19312,0.31247 -0.10137,0.67891 0.20391,0.8143 1.09356,0.48502 3.33043,6.26274 5.71044,14.74974 2.41271,8.6036 2.76948,9.26404 8.97303,16.61088 1.31193,1.55372 2.38532,3.19775 2.38532,3.6534 0,0.45567 0.24965,0.82848 0.55478,0.82848 0.30513,0 0.98746,1.0734 1.51628,2.38532 2.40589,5.96862 3.26115,7.3741 6.89811,11.33588 12.33274,13.4342 18.77612,18.58438 31.46054,25.14632 15.01084,7.76547 30.88832,12.88953 50.06829,16.15832 18.46703,3.14727 55.30274,3.32668 72.97289,0.35542 26.5844,-4.4702 51.20435,-13.95772 66.63942,-25.68009 9.3011,-7.06384 20.449,-19.47493 25.68934,-28.60025 1.15907,-2.01835 5.31012,-8.64984 9.22457,-14.73663 3.91445,-6.0868 8.01519,-12.83907 9.11279,-15.00504 l 1.99559,-3.93813 5.05297,10.52638 c 2.77912,5.7895 5.05296,10.80783 5.05296,11.15182 0,0.344 0.33028,0.62545 0.73395,0.62545 0.40366,0 0.69483,0.24771 0.64702,0.55047 -0.0478,0.30275 -0.006,0.79816 0.0918,1.10091 0.0983,0.30275 0.24762,0.79817 0.3319,1.10092 0.9035,3.24545 8.4932,20.10066 12.52458,27.81461 2.56262,4.90354 4.51033,9.06451 4.32824,9.2466 -0.1821,0.1821 2.64364,6.24351 6.27943,13.4698 3.63578,7.22629 6.61326,13.49988 6.61664,13.94129 0.004,0.52897 -4.0598,0.96318 -11.92048,1.27366 -6.55963,0.25909 -20.01835,1.14434 -29.90826,1.96724 -9.88991,0.82288 -20.12844,1.65501 -22.75229,1.84917 -13.64936,1.01001 -30.7768,2.78084 -39.17376,4.05022 -5.19695,0.78563 -14.77493,1.93562 -21.28441,2.55552 -6.50947,0.6199 -17.11982,1.94362 -23.57853,2.94159 -15.65721,2.41928 -15.24019,2.37249 -28.25688,3.17035 -16.86801,1.03389 -40.98196,1.11768 -42.15223,0.14644 -1.00596,-0.83488 -11.30399,-0.49741 -54.72851,1.7934 -36.85816,1.94442 -49.08722,2.19955 -49.47761,1.03225 l 0,0 z"
       style="color:#000000;fill:#fdd1d2;fill-opacity:1;fill-rule:nonzero;stroke:#c42836;stroke-width:0;stroke-linecap:square;stroke-linejoin:round;stroke-miterlimit:4;stroke-opacity:1;stroke-dasharray:none;stroke-dashoffset:0;marker:none;visibility:visible;display:inline;overflow:visible;enable-background:accumulate" />
    <path
       inkscape:connector-curvature="0"
       id="path3830"
       d="m 349.3945,391.40334 c -34.09968,-1.31996 -68.40651,-11.02132 -89.32039,-25.25819 -6.61015,-4.49977 -16.36769,-14.70575 -16.36769,-17.11992 0,-0.21281 2.88991,1.47923 6.42202,3.76008 32.22053,20.80635 85.92375,31.71268 132.93844,26.99786 34.02662,-3.41233 61.11441,-11.45288 83.6537,-24.83119 4.18072,-2.48148 8.88714,-5.61092 10.45872,-6.95431 1.82468,-1.55974 2.8574,-2.06374 2.8574,-1.39452 0,1.59407 -3.70004,6.30897 -8.51788,10.85419 -5.09083,4.80279 -18.02526,14.63422 -19.25306,14.63422 -0.4691,0 -0.85291,0.25999 -0.85291,0.57776 0,0.31777 -0.57799,0.62587 -1.28441,0.68467 -0.70642,0.0588 -3.76146,1.2561 -6.78899,2.66066 -24.99162,11.59438 -56.90744,16.82237 -93.94495,15.38869 z"
       style="color:#000000;fill:#ff8284;fill-opacity:1;fill-rule:nonzero;stroke:#c42836;stroke-width:0;stroke-linecap:square;stroke-linejoin:round;stroke-miterlimit:4;stroke-opacity:1;stroke-dasharray:none;stroke-dashoffset:0;marker:none;visibility:visible;display:inline;overflow:visible;enable-background:accumulate" />
    <path
       inkscape:connector-curvature="0"
       id="path3838"
       d="m 344.62386,373.80738 c -29.81189,-1.79891 -59.44071,-8.87999 -80.73395,-19.29485 -13.68648,-6.69427 -27.52293,-17.05551 -27.52293,-20.61015 0,-0.74647 -0.33028,-1.56133 -0.73396,-1.81082 -0.40366,-0.24948 -0.73394,-0.10383 -0.73394,0.32366 0,1.5909 -1.47005,0.69944 -2.65174,-1.60806 -0.67184,-1.31193 -2.11535,-3.41188 -3.20779,-4.66656 -1.66771,-1.9154 -2.05485,-3.18839 -2.41405,-7.9379 -0.25482,-3.36919 -0.91815,-6.40499 -1.64035,-7.5072 -2.23774,-3.41523 -0.55543,-2.5844 5.14089,2.5389 3.40651,3.06383 9.0561,7.00959 14.20531,9.92122 16.70402,9.44532 29.06611,14.38202 48.18137,19.24087 27.92306,7.09767 44.3374,8.89067 74.51542,8.13961 20.55887,-0.51168 32.25478,-1.6462 46.21956,-4.48343 34.06056,-6.92007 61.637,-18.90598 79.63304,-34.61196 6.99566,-6.10545 7.35008,-6.31573 7.5666,-4.48957 0.30675,2.58719 -2.72612,11.08269 -6.14086,17.20143 -3.66284,6.56329 -13.3883,16.22584 -22.31985,22.17544 -17.33695,11.54873 -41.36793,20.22099 -68.28289,24.64184 -15.86212,2.60539 -42.06831,3.86404 -59.07988,2.83753 z"
       style="color:#000000;fill:#ff8284;fill-opacity:1;fill-rule:nonzero;stroke:#c42836;stroke-width:0;stroke-linecap:square;stroke-linejoin:round;stroke-miterlimit:4;stroke-opacity:1;stroke-dasharray:none;stroke-dashoffset:0;marker:none;visibility:visible;display:inline;overflow:visible;enable-background:accumulate" />
    <path
       inkscape:connector-curvature="0"
       id="path3840"
       d="m 331.38161,343.08277 c -34.65968,-3.44014 -68.69483,-13.76282 -90.61097,-27.48183 -6.56736,-4.11102 -12.99124,-9.70612 -19.98257,-17.40449 -3.61008,-3.97518 -4.14305,-4.9263 -3.7794,-6.74456 0.23284,-1.16423 0.053,-2.80879 -0.39965,-3.65458 -0.45266,-0.84579 -1.14918,-3.25768 -1.54783,-5.35974 -0.39865,-2.10207 -1.26563,-4.41954 -1.92663,-5.14994 -1.94216,-2.14605 -2.08037,-7.71209 -0.33205,-13.37249 0.92432,-2.9926 1.54611,-6.99573 1.54611,-9.95398 l 0,-4.94826 8.62386,-0.44624 c 6.3976,-0.33106 10.00858,-0.92088 13.98792,-2.28479 8.1973,-2.8096 18.19988,-3.8779 55.55336,-5.93329 11.30275,-0.62193 21.61631,-1.3028 22.91901,-1.51301 1.3027,-0.21022 3.77977,-1.45245 5.50459,-2.76051 4.97843,-3.77552 25.66058,-10.25076 42.40209,-13.27536 15.38443,-2.77944 29.61726,-3.5486 72.34466,-3.90964 39.46823,-0.33348 41.98891,-0.43305 43.66972,-1.72502 1.74879,-1.34422 1.04244,-1.37126 -36.01438,-1.37811 -36.90133,-0.006 -50.20383,0.55487 -69.72477,2.94417 -14.97592,1.833 -37.84959,8.24602 -49.54129,13.88972 l -7.33945,3.54284 -27.15596,1.609 c -33.43319,1.98093 -42.4224,2.97099 -49.52456,5.45452 -4.39563,1.53708 -7.44403,2.01284 -15.31626,2.3904 -9.446,0.45301 -9.81177,0.4168 -9.40143,-0.931 0.23482,-0.7713 0.75285,-2.89139 1.15119,-4.71132 0.39834,-1.81993 1.1927,-4.46213 1.76525,-5.87156 0.57255,-1.40943 1.23147,-5.42374 1.46427,-8.9207 0.53796,-8.08096 3.65152,-15.0233 9.92489,-22.12966 3.42382,-3.87844 4.46554,-5.62963 4.84193,-8.13953 0.9408,-6.27371 10.10838,-18.74456 15.42611,-20.98447 1.63425,-0.68837 4.60981,-1.85024 6.61236,-2.58192 2.24414,-0.81996 5.01719,-2.70653 7.22817,-4.91751 2.36371,-2.3637 5.91321,-4.71894 10.40705,-6.90549 4.83945,-2.3547 7.49767,-4.16172 9.15392,-6.22272 1.71139,-2.12957 4.37447,-3.89605 9.98251,-6.6216 7.25237,-3.52471 7.95137,-4.07133 13.49744,-10.5553 3.21694,-3.76095 7.51807,-8.27122 9.55807,-10.02282 2.04001,-1.7516 4.81131,-4.83611 6.15845,-6.85445 1.34716,-2.01835 5.09374,-6.56119 8.32574,-10.09521 5.44839,-5.95751 6.11931,-7.0533 9.21208,-15.045864 3.88529,-10.040664 4.93594,-13.615102 4.94157,-16.81197 0.002,-1.276006 0.73605,-4.232716 1.63065,-6.570468 1.44873,-3.785764 1.68145,-4.053686 2.12868,-2.45063 0.27616,0.989904 0.53504,3.203496 0.57528,4.919092 0.0515,2.195818 0.53488,3.52667 1.63279,4.495413 5.25782,4.639258 10.91743,12.103595 10.91743,14.398779 0,0.631216 0.97686,3.082832 2.17082,5.44804 1.19395,2.3652 3.37786,8.053028 4.85313,12.639618 1.78864,5.56082 3.47619,9.31738 5.06507,11.27503 1.3105,1.61468 3.30075,4.7523 4.42277,6.97248 3.54535,7.01532 7.6957,12.54666 10.19895,13.59258 1.28875,0.53848 4.47577,1.19734 7.08228,1.46415 8.51148,0.87123 17.77156,3.72487 24.86074,7.66123 5.63434,3.12853 7.26926,3.70451 10.5223,3.70701 7.84353,0.006 17.47244,2.12225 24.75971,5.44172 3.83992,1.74913 10.11928,4.42009 13.95413,5.93547 11.35002,4.48505 11.93932,4.90656 19.0738,13.64289 7.9638,9.75183 8.52072,10.76814 10.78036,19.67295 1.95626,7.70918 4.37184,13.05002 7.52828,16.64502 1.63524,1.86243 2.20024,3.39654 2.59061,7.03421 0.27459,2.55878 1.0059,7.95506 1.62513,11.99176 2.35604,15.35874 0.21184,51.13978 -3.13136,52.25418 -0.84098,0.28033 -0.70308,0.50061 -12.2336,-19.54204 l -9.47067,-16.46217 -0.13598,-7.39104 c -0.17397,-9.45606 -0.91029,-10.95916 -10.21604,-20.85464 -3.32394,-3.53459 -3.85936,-3.84448 -5.41651,-3.135 -0.95038,0.43302 -1.72796,1.15434 -1.72796,1.60291 0,0.44859 2.27048,3.34558 5.04552,6.43776 5.70638,6.35851 7.17562,8.86159 7.88611,13.43502 0.48795,3.14094 0.47143,3.17405 -0.95422,1.9119 -2.08179,-1.84304 -3.28058,-1.66708 -2.50005,0.36697 0.34852,0.90826 5.48524,12.33273 11.41493,25.38771 5.92969,13.05499 10.95292,24.79419 11.16273,26.08712 0.35389,2.18079 -0.096,2.8052 -6.22232,8.63515 -8.13855,7.74488 -15.10415,12.39397 -28.40151,18.95615 -21.96561,10.83993 -46.36139,17.21561 -77.43119,20.23613 -13.16667,1.28002 -44.50046,1.25058 -57.64591,-0.0542 l 0,0 z"
       style="color:#000000;fill:url(#linearGradient3045);fill-opacity:1;fill-rule:nonzero;stroke:#c42836;stroke-width:0;stroke-linecap:square;stroke-linejoin:round;stroke-miterlimit:4;stroke-opacity:1;stroke-dasharray:none;stroke-dashoffset:0;marker:none;visibility:visible;display:inline;overflow:visible;enable-background:accumulate" />
    <path
       inkscape:connector-curvature="0"
       id="path3862"
       d="m 500.80348,315.89324 c 0.21871,-1.00287 0.70038,-4.20439 1.39461,-9.26962 0.52459,-3.82754 1.21097,-5.7091 2.08261,-5.7091 0.56801,0 1.82756,2.46933 1.83948,3.60628 0.0165,1.57316 -2.61424,7.6923 -4.74288,11.03202 -0.64196,1.00719 -0.73072,1.05984 -0.57382,0.34042 z"
       style="color:#000000;fill:url(#linearGradient3047);fill-opacity:1;fill-rule:nonzero;stroke:#c42836;stroke-width:0;stroke-linecap:square;stroke-linejoin:round;stroke-miterlimit:4;stroke-opacity:1;stroke-dasharray:none;stroke-dashoffset:0;marker:none;visibility:visible;display:inline;overflow:visible;enable-background:accumulate" />
    <path
       inkscape:connector-curvature="0"
       id="path3870"
       d="m 201.91926,608.09546 c -1.26529,-6.74456 -9.13359,-28.76722 -21.15655,-59.21524 -2.93677,-7.43737 -5.55147,-14.64749 -5.81044,-16.02249 -0.30436,-1.61603 -0.20168,-4.56262 0.29039,-8.33334 1.28379,-9.83773 1.16676,-14.5636 -0.50524,-20.4027 -1.63772,-5.71946 -4.6504,-13.9733 -9.78919,-26.81951 -1.89455,-4.73612 -4.67225,-12.31895 -6.17268,-16.85075 -1.50042,-4.53179 -2.99097,-8.73093 -3.31234,-9.33141 -0.32137,-0.60048 -0.77472,-2.14264 -1.00745,-3.42704 -0.25818,-1.42484 -0.69466,-2.27566 -1.1196,-2.1824 -0.43299,0.095 -0.5839,-0.22022 -0.39894,-0.83334 0.96864,-3.21094 2.7546,-22.66466 3.40572,-37.09729 0.54972,-12.18513 4.20319,-42.69721 7.54871,-63.04346 1.84257,-11.20587 4.41102,-19.86527 8.2418,-27.78683 2.15001,-4.44593 2.25729,-4.91732 2.26992,-9.97365 0.0223,-8.94047 1.01218,-24.6849 1.89472,-30.13724 1.06641,-6.58835 2.22213,-10.43463 4.39131,-14.61438 l 1.72991,-3.33333 0.36955,3.33333 c 0.20325,1.83334 0.42458,5.45834 0.49184,8.05556 l 0.1223,4.72223 0.96562,-3.88889 c 0.54293,-2.18654 1.11035,-3.52411 1.29621,-3.05556 0.18182,0.45833 1.23498,4.83333 2.34036,9.72222 1.10539,4.88889 2.97809,13.01389 4.16158,18.05555 1.18348,5.04168 3.27867,14.16668 4.65597,20.27779 1.37731,6.1111 6.5354,28.2361 11.46242,49.16666 9.38447,39.86633 10.71211,46.08329 10.17656,47.65413 -0.17944,0.52634 -1.0821,1.60666 -2.00589,2.40071 -1.92937,1.6584 -1.64581,2.72294 0.7253,2.72294 2.68165,0 2.96857,1.2894 2.59064,11.64225 -0.18454,5.0551 -1.35114,22.19108 -2.59244,38.07997 -2.52111,32.27057 -5.32128,75.90097 -5.84747,91.11111 -0.19026,5.5 -0.69106,12.5 -1.11288,15.55556 -0.42184,3.05556 -0.93576,8.43056 -1.14208,11.94444 -0.31776,5.41219 -0.6352,6.98341 -2.07644,10.27778 -0.93573,2.13889 -2.37016,6.11834 -3.18764,8.84321 l -1.4863,4.95433 -0.40726,-2.17092 z"
       style="color:#000000;fill:url(#linearGradient3049);fill-opacity:1;fill-rule:nonzero;stroke:#c42836;stroke-width:0;stroke-linecap:square;stroke-linejoin:round;stroke-miterlimit:4;stroke-opacity:1;stroke-dasharray:none;stroke-dashoffset:0;marker:none;visibility:visible;display:inline;overflow:visible;enable-background:accumulate" />
    <path
       inkscape:connector-curvature="0"
       id="path3874"
       d="m 201.91747,608.64152 c -1.27167,-6.77858 -8.17801,-26.21985 -20.60613,-58.00602 -3.28541,-8.40277 -6.18952,-16.39563 -6.45356,-17.76191 -0.32185,-1.6654 -0.18354,-5.0528 0.41966,-10.27777 1.5075,-13.05832 0.92452,-15.86738 -8.14259,-39.23459 -4.68789,-12.08133 -7.55733,-20.01213 -12.6445,-34.94794 -0.46833,-1.375 -1.07514,-2.65068 -1.34849,-2.83485 -0.28982,-0.19527 -0.25887,-1.7005 0.0742,-3.61111 0.96012,-5.50657 1.66136,-13.18919 2.5556,-27.99849 0.92989,-15.39974 1.30618,-19.48328 3.37878,-36.66666 4.37157,-36.24351 6.68391,-47.25777 12.54814,-59.7697 l 2.3212,-4.95253 0.43922,-12.77777 c 0.72602,-21.12177 2.09362,-29.62761 6.02112,-37.44885 l 2.06664,-4.11551 0.3661,3.50256 c 0.20135,1.9264 0.3916,5.40339 0.4228,7.72662 0.0507,3.77649 0.115,4.01803 0.60671,2.27962 0.30249,-1.06944 0.81057,-2.56944 1.12906,-3.33333 0.54296,-1.30228 0.62487,-1.19834 1.3135,1.66666 1.02961,4.28369 5.73365,24.64807 9.94555,43.05555 1.95764,8.55556 7.46189,32.18056 12.23167,52.5 8.38495,35.7202 10.27206,44.21319 10.27226,46.23068 5e-5,0.52409 -0.74991,1.80709 -1.66658,2.85112 -1.90055,2.1646 -2.16169,3.39948 -0.63445,3.00009 3.35614,-0.87765 4.25862,2.70695 3.45288,13.71459 -0.33699,4.60361 -1.72514,23.3702 -3.08479,41.70352 -2.70416,36.46253 -4.36349,62.33929 -5.29028,82.5 -0.33009,7.18056 -0.95497,16.18056 -1.38863,20 -0.43366,3.81945 -0.947,9.31945 -1.14075,12.22223 -0.28735,4.30489 -0.69479,6.04585 -2.21033,9.44445 -1.02192,2.29166 -2.46341,6.26684 -3.20331,8.83371 l -1.34527,4.66705 -0.40548,-2.16142 0,0 z"
       style="color:#000000;fill:#e8e8e8;fill-opacity:1;fill-rule:nonzero;stroke:#c42836;stroke-width:0;stroke-linecap:square;stroke-linejoin:round;stroke-miterlimit:4;stroke-opacity:1;stroke-dasharray:none;stroke-dashoffset:0;marker:none;visibility:visible;display:inline;overflow:visible;enable-background:accumulate" />
  </g>
</svg>
