<?xml version="1.0" encoding="UTF-8" standalone="no"?>
<svg
   xmlns:dc="http://purl.org/dc/elements/1.1/"
   xmlns:cc="http://creativecommons.org/ns#"
   xmlns:rdf="http://www.w3.org/1999/02/22-rdf-syntax-ns#"
   xmlns:svg="http://www.w3.org/2000/svg"
   xmlns="http://www.w3.org/2000/svg"
   xmlns:sodipodi="http://sodipodi.sourceforge.net/DTD/sodipodi-0.dtd"
   xmlns:inkscape="http://www.inkscape.org/namespaces/inkscape"
   version="1.0"
   width="880"
   height="880"
   viewBox="0 0 704 704"
   preserveAspectRatio="xMidYMid meet"
   id="svg2"
   inkscape:version="0.48.4 r9939"
   sodipodi:docname="pyramidal.svg">
  <defs
     id="defs12" />
  <sodipodi:namedview
     pagecolor="#ffffff"
     bordercolor="#666666"
     borderopacity="1"
     objecttolerance="10"
     gridtolerance="10"
     guidetolerance="10"
     inkscape:pageopacity="0"
     inkscape:pageshadow="2"
     inkscape:window-width="806"
     inkscape:window-height="758"
     id="namedview10"
     showgrid="false"
     inkscape:zoom="0.6251321"
     inkscape:cx="490"
     inkscape:cy="438.125"
     inkscape:window-x="885"
     inkscape:window-y="260"
     inkscape:window-maximized="0"
     inkscape:current-layer="svg2" />
  <metadata
     id="metadata4">
Created by potrace 1.14, written by Peter Selinger 2001-2017
<rdf:RDF>
  <cc:Work
     rdf:about="">
    <dc:format>image/svg+xml</dc:format>
    <dc:type
       rdf:resource="http://purl.org/dc/dcmitype/StillImage" />
    <dc:title />
  </cc:Work>
</rdf:RDF>
</metadata>
  <g
     id="g2988"
     transform="matrix(1.21,0,0,1.21,-127.3415,-94.695545)">
    <path
       d="m 326.1,144.8 c -0.7,1.4 -0.8,2.2 -0.1,2.2 1.7,0 1.1,4.7 -0.7,5.4 -1.7,0.5 -2.4,0.9 -6.8,3.5 -1.1,0.6 -3.9,2.1 -6.3,3.2 -2.4,1.1 -4.6,2.7 -4.9,3.5 -0.3,0.8 -1.2,1.3 -1.9,1 -0.8,-0.3 -1.4,-0.1 -1.4,0.4 0,0.5 -1.9,1.4 -4.1,2 -2.3,0.6 -5.2,2.1 -6.5,3.3 -1.3,1.3 -5.1,3.1 -8.4,4 -3.3,1 -6,2.2 -6,2.7 0,0.5 -1.6,1.8 -3.5,3 -2,1.2 -4.1,2.7 -4.8,3.4 -0.6,0.6 -4.1,2.6 -7.7,4.5 -3.6,1.9 -7.9,4.4 -9.6,5.7 -1.7,1.3 -3.4,2 -3.8,1.7 -0.3,-0.3 -0.8,0.1 -1.2,1 -0.8,2.1 -7.1,5.7 -15.9,9.1 -3.8,1.5 -8.4,3.5 -10.1,4.4 -1.8,0.9 -6.1,3.2 -9.8,5.1 -3.6,1.8 -6.6,3.7 -6.6,4.3 0,0.5 -0.4,0.6 -1,0.3 -0.5,-0.3 -1,-0.1 -1,0.4 0,0.6 -0.3,1 -0.7,0.9 -0.5,-0.1 -2.1,0.4 -3.8,1.1 -1.6,0.7 -3.2,1.2 -3.4,1.1 -0.2,-0.1 -1,1.1 -1.8,2.7 -0.8,1.7 -3.7,4.2 -7.1,6.1 -3.1,1.8 -6.4,3.7 -7.2,4.1 -0.8,0.5 -6.6,3.2 -12.8,6 -9.4,4.2 -12,5 -15,4.5 l -3.7,-0.6 0.4,18.9 c 0.8,43.1 0.9,53.1 0,58.3 -0.8,5.3 -2,17.9 -2,21 0,4 -0.2,30 -0.3,33.2 0,2 -0.4,3.9 -0.7,4.2 -0.3,0.4 -0.2,2.9 0.2,5.8 0.5,3.1 0.4,5.8 -0.2,6.9 -0.5,1 -1.4,5.6 -1.9,10.1 -1.5,12.5 -1.7,13.1 -4.3,12.4 -3.5,-0.8 -4.4,0.5 -4.4,6.5 0,4.9 0.3,5.7 2.6,7.2 1.4,0.9 3.3,2.1 4.1,2.6 2.5,1.6 10.6,5.1 11.7,5.1 0.6,0 1.3,0.6 1.6,1.4 0.3,0.7 1.8,1.7 3.4,2 1.5,0.4 3.5,1.3 4.3,2 2.5,2.1 12.9,5.9 14.5,5.3 0.8,-0.4 2,0 2.7,0.7 1.2,1.2 2.8,1.6 7.1,1.7 0.9,0 1.7,0.4 1.7,0.9 0,0.9 3.9,2.5 5.3,2.2 0.4,-0.1 0.7,0.3 0.7,0.9 0,0.5 0.4,0.8 0.9,0.5 0.5,-0.3 1.1,0.1 1.5,0.9 0.3,0.8 1.5,1.5 2.6,1.5 1.1,0 2,0.4 2,1 0,0.5 0.8,1 1.8,1 1.7,0 27.2,12.5 28.2,13.8 0.8,1.1 12.4,6.7 13.3,6.4 0.4,-0.1 0.7,0.3 0.7,0.8 0,0.6 2.5,2.2 5.5,3.6 3,1.5 5.5,3 5.5,3.4 0,0.5 1.3,1.1 3,1.5 1.6,0.4 3.2,1.1 3.5,1.6 0.4,0.5 1.5,0.9 2.5,0.9 1,0 2.5,0.6 3.2,1.3 2.3,2.2 11.8,7.7 13.3,7.7 0.8,0 1.5,0.4 1.5,1 0,0.5 0.3,0.9 0.8,0.8 0.4,-0.1 2.1,0.5 3.7,1.2 8.8,4 34.9,16.5 40.6,19.5 3.7,1.9 7.3,3.5 8,3.5 0.7,0 7.7,3.2 15.5,7 7.9,3.9 14.6,7 15,7 1.5,0 11.9,5.7 14.2,7.7 1.3,1.2 4.3,3.2 6.6,4.4 2.2,1.1 5.2,2.7 6.6,3.5 1.4,0.7 3.3,1.4 4.3,1.4 0.9,0 1.7,0.5 1.7,1.1 0,0.5 0.4,0.7 1,0.4 0.5,-0.3 1,-0.2 1,0.3 0,0.6 1.1,1.3 2.5,1.6 1.4,0.4 2.5,1 2.5,1.5 0,0.5 2.5,1.9 5.5,3 3,1.1 7.3,3.2 9.5,4.6 2.3,1.4 4.6,2.3 5.2,1.9 0.6,-0.4 0.8,-0.3 0.5,0.3 -0.8,1.2 3.8,2.9 8.6,3.2 1.1,0.1 1.5,0.6 1.1,1.3 -0.4,0.7 -0.3,0.8 0.4,0.4 1.3,-0.8 4.7,0.8 7.7,3.5 1.1,1 2.2,1.7 2.5,1.6 0.3,-0.1 1.2,0.4 2,1.1 2.6,2.2 9.1,6.2 10,6.2 0.6,0 1,0.4 1,1 0,1.4 9.9,5.9 10.6,4.8 1.1,-1.8 -0.6,-5.8 -2.5,-5.8 -1.9,0 -3.1,-1.8 -3.1,-4.6 0,-0.8 0.7,-1.4 1.6,-1.4 0.8,0 1.3,-0.4 1,-0.8 -0.3,-0.5 0.8,-1.6 2.5,-2.6 1.6,-0.9 2.9,-2.2 2.9,-2.7 0,-0.6 0.5,-0.7 1,-0.4 0.6,0.3 1.3,-0.1 1.6,-0.9 0.3,-0.9 1,-1.4 1.4,-1.1 0.5,0.3 1.2,-0.1 1.7,-0.8 0.4,-0.8 2.2,-2.2 3.8,-3.3 1.7,-1 3.2,-2.1 3.5,-2.4 0.5,-0.5 4.8,-2.9 10.3,-5.8 1.5,-0.7 3.3,-2.3 4,-3.3 0.6,-1 1.7,-1.9 2.3,-1.9 0.6,0 1.7,-0.7 2.4,-1.5 0.7,-0.9 1.9,-1.4 2.6,-1.1 0.7,0.3 1.5,-0.2 1.8,-1 0.3,-0.8 2.6,-2.4 5.2,-3.5 2.5,-1.2 6.3,-3.8 8.5,-6 2.1,-2.1 4.4,-3.9 4.9,-3.9 0.6,0 1,-0.6 1,-1.4 0,-0.8 1.4,-1.9 3,-2.5 1.7,-0.5 3,-1.5 3,-2 0,-0.6 0.7,-1.1 1.5,-1.1 0.8,0 2.4,-0.9 3.5,-2 1.1,-1.1 2.4,-2 3,-2 0.6,0 1,-0.5 1,-1.2 0,-0.6 0.3,-0.9 0.6,-0.6 0.3,0.4 1.4,-0.1 2.4,-1 1,-0.9 3.7,-3.1 6,-4.7 2.3,-1.7 5.8,-4.4 7.8,-6 2,-1.7 5.7,-4.4 8.2,-6 4.3,-2.8 7,-5 10.8,-8.6 3,-2.7 7.9,-5.9 8.6,-5.4 0.3,0.3 0.4,0.2 0.1,-0.1 -0.6,-0.9 2.1,-3.4 3.8,-3.4 1.6,0 10.7,-8.7 10.7,-10.2 0,-0.4 0.6,-0.8 1.3,-0.8 0.7,0 1.9,-1 2.7,-2.1 0.8,-1.2 3.9,-4 6.9,-6.3 16.2,-12.4 17.8,-13.2 17.3,-8.5 -0.4,3.7 1.1,5.3 3.7,4 1.7,-1 2.1,-2.1 2.1,-6.1 0,-4.8 0.1,-5 5.3,-8.8 6,-4.5 9.7,-6.6 11.4,-6.7 0.7,0 1.3,-0.3 1.3,-0.8 0,-0.4 0,-1.9 0,-3.4 l 0,-2.7 -4,3.9 c -2.2,2.1 -4,3.5 -4,3 0,-0.6 -0.7,-0.1 -1.6,1 -0.8,1.1 -1.6,1.9 -1.7,1.7 -0.1,-0.2 -1.5,0.1 -3,0.7 -1.6,0.6 -3.2,1.1 -3.6,1.1 -1.2,0 -2,-11.3 -1,-12.5 2.7,-3.5 3,-69.8 0.4,-81.3 -0.5,-2.1 -0.4,-3.2 0.4,-3.2 0.7,0 0.9,-2.7 0.4,-9 -0.4,-6.7 -0.3,-9.3 0.7,-10.5 1,-1.2 1.4,-6.5 1.5,-20.3 0.2,-14.5 0.6,-19.9 1.9,-24 1,-2.9 1.9,-7.2 2.1,-9.5 0.9,-8 1.3,-10.6 2,-11.6 1,-1.7 -0.2,-4.4 -2.5,-5.9 -1.8,-1.1 -2.5,-0.9 -5.4,1.3 -4.1,3.1 -5.1,3.1 -10.1,0 -2.2,-1.3 -4.6,-2.5 -5.3,-2.5 -2.2,0 -12.1,-5 -12.9,-6.5 -0.5,-0.8 -3.5,-2.1 -6.8,-2.9 -3.3,-0.9 -9.1,-3.1 -13,-5 -6.5,-3.2 -18.8,-7.4 -19.1,-6.5 -0.1,0.2 -1,-0.3 -2,-1.1 -2.9,-2.3 -21,-11 -23,-11 -0.4,0 -5.7,-2.5 -11.6,-5.5 -5.9,-3 -11.6,-5.5 -12.7,-5.5 -1.1,0 -2.3,-0.5 -2.6,-1 -0.3,-0.6 -1.7,-1 -3.1,-1 -1.3,0 -2.4,-0.3 -2.4,-0.8 0,-0.4 -2.1,-1.6 -4.8,-2.6 -2.6,-1.1 -8,-3.4 -12,-5.3 -3.9,-1.8 -7.7,-3.3 -8.3,-3.3 -1.4,0 -5.7,-1.9 -18.4,-8 -5.5,-2.7 -11.8,-5.6 -14,-6.5 -2.2,-0.9 -5.7,-2.6 -7.8,-3.6 -2.1,-1 -4.4,-1.9 -5.1,-1.9 -0.7,0 -1.9,-0.7 -2.6,-1.5 -0.7,-0.8 -1.6,-1.2 -2.2,-0.9 -0.5,0.3 -1.4,0.1 -2.1,-0.4 -2.4,-2 -8.8,-5.2 -10.2,-5.2 -0.8,0 -1.5,-0.5 -1.5,-1.1 0,-0.5 -0.4,-0.7 -1,-0.4 -0.5,0.3 -1,0.1 -1,-0.4 0,-0.6 -0.9,-1.1 -2,-1.1 -1.1,0 -2,-0.4 -2,-0.9 0,-0.5 -0.8,-0.8 -1.7,-0.7 -1,0 -1.9,-0.9 -2.3,-2.3 -0.3,-1.3 -1.2,-2.7 -2,-3.1 -0.8,-0.4 -2.5,-1.2 -3.7,-1.8 -1.3,-0.7 -3,-1.2 -3.8,-1.2 -0.9,0 -1.8,-0.6 -2.1,-1.3 -0.3,-0.9 -3,-1.2 -9.7,-1.1 -5,0 -11.8,-0.5 -15.1,-1.1 -3.2,-0.7 -6.8,-1.2 -8,-1.1 -1.1,0.1 -2.3,-0.1 -2.6,-0.5 -0.3,-0.4 -2.2,-0.9 -4.4,-1.2 -2.1,-0.3 -4.3,-1 -4.9,-1.6 -0.6,-0.6 -2.2,-1.1 -3.4,-1.1 -1.3,0 -3.6,-0.9 -5.1,-2 -1.5,-1.1 -4.1,-2.3 -5.7,-2.6 -1.6,-0.3 -3.9,-1.7 -5.2,-3.1 -2.2,-2.3 -2.9,-2.5 -7.3,-1.9 -3.5,0.5 -4.9,0.3 -5.2,-0.6 -0.3,-0.8 -0.9,-0.5 -1.7,1 z m 17.6,12.2 c 2.6,1.3 5.6,2.7 6.5,3.2 1.1,0.5 2.2,0.3 3.3,-0.8 1.4,-1.4 1.9,-1.4 5.3,-0.1 2,0.8 4.5,1.3 5.5,1.1 1,-0.1 3.5,0.3 5.6,1.1 2,0.7 7,1.6 11.1,1.9 12.2,1.1 15,1.7 15,3.1 0,1.9 -0.3,2 -12,5 -5.8,1.4 -11.3,3 -12.2,3.5 -1,0.6 -2.3,1 -2.9,1 -0.7,0 -4.1,1.3 -7.6,3 -3.4,1.6 -7,3 -7.8,3 -0.8,0 -2.4,0.4 -3.5,1 -1.1,0.5 -2.9,1.4 -4,2 -1.1,0.5 -3.1,1 -4.5,1 -1.4,0 -3.3,0.4 -4.3,0.9 -2.9,1.4 -18.6,6.2 -20.4,6.1 -2.2,0 -6.6,1.9 -9.7,4.2 -1.3,1 -3.1,1.8 -4,1.8 -0.9,0 -2.9,0.7 -4.5,1.5 -1.5,0.8 -3.2,1.5 -3.7,1.5 -0.5,0 -4.4,1.6 -8.7,3.6 -9.2,4.2 -9.2,4.2 -21.2,8.4 -5.2,1.8 -10.9,3.4 -12.6,3.6 -1.7,0.1 -6.7,1.9 -11.3,3.9 -4.5,2 -10.5,4 -13.4,4.5 -2.9,0.5 -9,2.6 -13.7,4.8 -15.4,7.2 -36.2,10 -24.5,3.4 3.1,-1.8 7.5,-6 7.5,-7.2 0,-0.4 0.8,-1 1.8,-1.4 0.9,-0.3 3.5,-1.7 5.7,-3 2.2,-1.4 5.1,-3 6.5,-3.6 1.4,-0.6 3.2,-1.7 4,-2.5 0.8,-0.7 4.2,-2.2 7.5,-3.3 7.3,-2.5 25.7,-12 26.8,-13.8 0.4,-0.8 1.3,-1.4 2,-1.4 0.7,0 3.8,-1.8 7,-4 3.1,-2.2 6,-4 6.2,-4 0.8,0 8.9,-5.3 9.6,-6.3 0.7,-0.9 6.3,-4.2 9.9,-5.8 4.9,-2.2 15.5,-7.4 16,-7.9 0.4,-0.4 4.6,-2.7 14.2,-7.7 1.5,-0.8 3,-1.8 3.3,-2.4 0.4,-0.5 1.4,-0.9 2.3,-0.9 0.9,0 3.7,-1.2 6.2,-2.5 5.4,-3 10.6,-2.8 17.7,0.5 z m 66.1,15.9 c 0.9,0.5 4.9,1.9 8.7,3.1 6.4,2 13.5,5 28.5,11.7 3,1.4 6,2.6 6.5,2.7 0.6,0.1 2.4,1 4.1,1.9 1.7,0.9 3.5,1.3 3.8,0.9 0.4,-0.3 1,-0.1 1.4,0.5 1.4,2.1 22.6,12 26.7,12.4 0.6,0 2.1,0.7 3.5,1.4 4.1,2.3 12.2,5.5 13.6,5.5 0.8,0 1.4,0.4 1.4,0.9 0,0.5 2,1.5 4.5,2.2 2.5,0.7 4.5,1.7 4.5,2.1 0,0.4 0.6,0.8 1.4,0.8 1.6,0 6.8,2.3 11.4,5 1.8,1.1 6.1,3.2 9.5,4.6 3.4,1.4 8,3.4 10.2,4.4 2.2,1 6,2.6 8.5,3.6 2.5,1 5.2,2.4 6.2,3.2 1.4,1.2 3.4,1.9 6.1,2.1 0.5,0.1 0.5,0.5 0.2,1.1 -0.3,0.5 0,0.7 0.8,0.4 0.8,-0.3 1.8,-0.1 2.2,0.5 0.3,0.6 1.9,1.1 3.6,1.1 2.4,0 2.9,0.4 2.9,2.4 0,1.4 -0.5,2.8 -1,3.1 -2.1,1.3 1.2,3.7 4.2,3.1 2,-0.4 3,-0.1 3.4,0.9 0.4,0.8 1,1.2 1.5,0.9 0.5,-0.3 0.9,0.3 1,1.3 0,1.1 0.3,1.3 0.6,0.5 0.3,-0.7 -0.9,-2.7 -2.6,-4.4 -1.7,-1.8 -3.1,-3.5 -3.1,-4 0,-1.2 2.3,-0.9 4.5,0.6 4.2,2.9 9.6,5.6 11.4,5.6 1,0 2.1,0.3 2.5,0.7 0.3,0.4 1.5,0.8 2.6,1 3.7,0.6 12,4.7 12,6 0,0.7 -0.7,1.3 -1.5,1.3 -4.2,0 0.5,4.6 5.8,5.5 2,0.4 3.7,1.1 3.7,1.6 0,0.5 0.5,0.9 1,0.9 1.9,0 1,-1.7 -1.7,-3 -6,-3 -8.6,-6.8 -3.8,-5.6 3,0.8 11.5,5.8 11.5,6.8 0,1.2 -7.8,8.8 -9,8.8 -1.6,0 -7,4.2 -6.5,5 0.4,0.6 -1.9,1.8 -4.6,2.4 -0.4,0 -1.5,1.1 -2.5,2.3 -2,2.2 -14.8,9.3 -16.9,9.3 -0.6,0 -3.1,1.8 -5.5,4 -2.4,2.2 -4.8,4 -5.3,4 -0.5,0 -4,2.2 -7.7,5 -3.7,2.7 -7.4,5 -8.3,5 -0.8,0 -1.8,0.7 -2.1,1.6 -0.3,0.8 -1.1,1.2 -1.7,0.8 -0.7,-0.4 -1.7,-0.1 -2.3,0.7 -0.6,0.8 -2.9,2.3 -5.1,3.3 -2.2,1.1 -4.2,2.2 -4.5,2.5 -0.8,1 -21,16.1 -21.6,16.1 -0.2,0 -1.3,0.8 -2.3,1.7 -3.5,3.2 -5,4.3 -5.8,4.3 -0.4,0 -2.2,1.5 -4,3.3 -1.8,1.7 -5.3,5.2 -7.9,7.7 -2.6,2.5 -7,6.9 -9.8,9.7 -2.9,2.9 -5.6,5.3 -6,5.3 -0.5,0 -2.4,1.2 -4.3,2.6 -1.9,1.4 -3.7,2.4 -4,2.1 -0.3,-0.3 -1.8,0.8 -3.4,2.4 -1.5,1.6 -3.4,2.9 -4.2,2.9 -0.7,0 -2.2,0.7 -3.3,1.5 -2.5,1.9 -5.4,1.9 -5.4,-0.1 0,-1.1 -0.5,-1.4 -1.6,-1 -0.9,0.3 -2,0.6 -2.5,0.6 -0.5,0 -0.8,1 -0.6,2.2 0.1,1.3 -0.4,2.3 -1.3,2.5 -1.8,0.4 -4.5,-8.6 -5.5,-18.2 -0.4,-3.3 -1,-6.5 -1.3,-7 -0.4,-0.6 -0.7,-1.5 -0.8,-2 -0.6,-3.4 -5.6,-23.4 -6.4,-25 -0.5,-1.1 -1.1,-3.8 -1.4,-6 -0.9,-7.5 -1.6,-10.5 -3,-13.3 -0.7,-1.5 -1.7,-6 -2,-10.1 -0.4,-4 -1.1,-8.1 -1.6,-9 -2.2,-4.5 -3.1,-7.2 -4.6,-13.6 -0.8,-3.9 -1.5,-7.9 -1.5,-9 0,-1 -0.4,-2.4 -0.9,-3 -0.9,-1.1 -3.5,-12.2 -4.7,-20 -0.2,-1.7 -0.8,-3.9 -1.3,-5 -1.6,-3.6 -5.7,-18.7 -9,-32.5 -1.8,-7.4 -4.6,-16.7 -6.3,-20.5 -1.7,-3.9 -3.4,-9 -3.8,-11.5 -0.4,-2.5 -1,-6 -1.4,-7.8 -0.8,-3.4 0,-4 3.3,-2.3 z m -8.4,1.4 c 0.8,0.7 1.6,2.8 1.9,4.7 1,6.5 2.4,10.8 4.6,13.9 1.3,1.8 2,3.9 1.7,4.9 -0.4,1.1 0.2,2.6 1.2,3.8 1.2,1.3 1.8,3.2 1.7,5.4 -0.1,1.9 0.6,6 1.7,9 2.5,7.3 6.8,23.7 6.8,26.1 0,1.1 0.7,2.2 1.5,2.5 0.9,0.4 1.5,1.1 1.4,1.8 -0.1,0.6 0.1,1.8 0.4,2.6 0.3,0.8 1.5,6.4 2.7,12.5 1.1,6 2.6,11.9 3.1,13.1 0.6,1.2 1,3 0.8,4 -0.1,1 0.3,3.1 0.9,4.5 0.5,1.4 1.4,4.8 1.8,7.5 0.4,2.7 1.1,5.2 1.6,5.5 0.5,0.3 1.6,4.4 2.4,9 0.8,4.6 2.5,12 3.8,16.4 1.3,4.4 3,10.7 3.7,14 0.7,3.3 1.6,6.2 1.9,6.5 0.7,0.6 6,22.8 6,25.2 0,0.9 0.4,1.9 0.9,2.2 0.5,0.3 0.8,3.1 0.7,6.2 -0.1,3 0.2,5.8 0.6,6 0.4,0.3 0.8,1.6 0.8,3 0,3.7 -2,3.4 -13.7,-1.7 -2.4,-1.1 -4.7,-1.9 -5.3,-1.9 -0.5,0 -2.4,-0.9 -4.2,-2 -1.8,-1.1 -4.3,-2 -5.5,-2 -1.2,0 -2.8,-0.8 -3.5,-1.8 -0.7,-0.9 -2.2,-1.9 -3.3,-2 -1.1,-0.2 -2.2,-0.7 -2.5,-1.1 -0.3,-0.4 -3.4,-1.8 -7,-3 -3.6,-1.3 -8.5,-3.4 -11,-4.6 -2.5,-1.3 -8.1,-4.2 -12.5,-6.4 -4.4,-2.2 -8.6,-4.1 -9.2,-4.1 -1.3,0 -22,-8.7 -27.6,-11.6 -1.6,-0.8 -3.6,-1.4 -4.4,-1.4 -0.9,0 -5.8,-2.2 -10.8,-4.9 -5,-2.8 -12.3,-6.2 -16,-7.6 -3.8,-1.4 -7.6,-3.1 -8.5,-3.9 -5.1,-4.3 -26,-14.6 -26,-12.9 0,0.4 -1,-0.3 -2.2,-1.4 -1.3,-1 -4.8,-3.1 -7.8,-4.6 -3,-1.4 -9.8,-4.6 -15,-7.1 -5.3,-2.5 -10.1,-4.6 -10.7,-4.6 -0.7,0 -2.7,-0.6 -4.5,-1.4 -1.8,-0.8 -5.3,-2.2 -7.8,-3.2 -2.5,-1 -7.6,-3.6 -11.5,-5.9 -6.7,-3.9 -17.3,-8.6 -22.5,-10 -3.2,-0.8 -14.6,-6.7 -22.8,-11.7 -3.4,-2.1 -7.1,-3.8 -8.2,-3.8 -1.1,0 -2,-0.5 -2,-1 0,-0.6 -0.8,-1 -1.8,-1 -3,0 -4.1,-1.9 -3.1,-5 0.8,-2.2 1.8,-2.9 5.2,-3.5 2.3,-0.4 4.6,-0.7 5,-0.6 0.5,0.1 2,-0.5 3.5,-1.3 1.5,-0.8 8.1,-2.9 14.7,-4.5 18.5,-4.7 25.7,-6.8 31.1,-9.2 2.7,-1.2 5.7,-2.1 6.8,-2 1,0.2 2.2,-0.1 2.5,-0.6 0.3,-0.5 4.4,-2 9.1,-3.2 10.4,-2.9 16.3,-4.8 21.5,-7.1 2.2,-1 7.6,-2.8 12,-4 4.4,-1.2 8.9,-3 10,-4 3,-2.7 8.7,-5.7 12.5,-6.5 1.9,-0.4 6.2,-2 9.5,-3.6 5.8,-2.8 13.2,-5.2 26,-8.5 3.3,-0.9 7.3,-2.2 9,-2.9 1.6,-0.8 3.3,-1.1 3.7,-0.9 0.4,0.3 0.8,0.1 0.8,-0.3 0,-0.5 1.4,-1 3,-1.1 4.5,-0.3 11.6,-2.9 20.3,-7.3 4.7,-2.4 9.4,-4 11.8,-4.1 2.2,-0.1 4.2,-0.5 4.5,-0.9 0.3,-0.5 2,-0.8 3.9,-0.7 1.9,0.1 3.8,-0.2 4.2,-0.5 1.1,-1.1 4.4,-0.8 5.7,0.6 z m -236.8,84.9 c 3.8,1.8 7.4,3.3 7.9,3.4 1.8,0.2 4.9,1.7 11.6,5.5 3.6,2.1 7.2,3.9 8,4.1 0.7,0.2 2,0.9 2.8,1.6 0.7,0.7 2,1.1 2.7,0.8 0.7,-0.3 1.9,0 2.6,0.7 0.7,0.7 4.5,2.3 8.3,3.5 3.9,1.3 9.3,3.6 12,5.2 7.1,4.1 16.7,9 17.6,9 0.4,0 4.2,1.6 8.3,3.5 4.2,1.9 8.2,3.5 9,3.5 1.2,0 22.3,10.1 27.6,13.1 0.8,0.5 2.6,1.4 4,2 9.9,4.5 12.9,6.1 13.2,6.8 0.3,0.9 21.7,11.7 27.8,14.1 1.9,0.8 5.6,2.6 8.1,4.1 2.5,1.5 5.7,3 7,3.4 1.3,0.4 5.6,2.2 9.4,4.1 3.9,1.8 8.6,3.6 10.5,3.9 1.9,0.3 3.9,1 4.5,1.4 1,0.8 5.6,2.8 15.7,6.8 2.7,1 4.8,2.2 4.8,2.6 0,0.5 0.5,0.5 1.1,0.1 0.6,-0.3 1.4,-0.2 1.8,0.3 0.7,1.3 20.3,10.7 28.5,13.8 3.4,1.3 10.1,4.2 14.9,6.5 4.9,2.3 10,4.4 11.5,4.6 1.5,0.3 2.9,0.8 3.2,1.2 0.3,0.4 1.9,1.4 3.5,2.2 3.5,1.8 4.9,7 1.9,7 -1.8,0 -4.3,2.7 -4.4,4.6 0,1.8 5.3,1.3 7.9,-0.8 1.4,-1 2.8,-1.5 3.3,-1 1,1 1.3,18.7 0.3,20.2 -0.3,0.5 -0.8,8.5 -1,17.7 -0.2,9.3 -0.8,19.7 -1.3,23.3 -0.5,3.6 -0.8,8.3 -0.6,10.5 0.4,6.9 1.6,49.9 1.5,53 0,1.6 -0.2,14.9 -0.4,29.5 -0.2,24.5 -0.4,26.5 -2,26.8 -1.5,0.3 -11.1,-4.1 -21.5,-9.8 -2.6,-1.4 -8.4,-3.8 -11.2,-4.5 -1.4,-0.4 -3.2,-1.3 -4,-2 -1.3,-1.1 -18,-9.4 -22,-10.9 -1.7,-0.7 -2.9,-1.4 -10.8,-6.9 -3.1,-2 -6.3,-3.7 -7.3,-3.7 -0.9,0 -1.9,-0.7 -2.3,-1.5 -0.4,-1.1 -14.4,-8.5 -16.2,-8.5 -0.2,0 -6.3,-2.9 -13.6,-6.4 -7.3,-3.5 -15,-7 -17,-7.7 -2.1,-0.7 -3.8,-1.6 -3.8,-2 0,-0.4 -1.5,-1.2 -3.2,-1.9 -4,-1.6 -15.9,-7.1 -24.8,-11.5 -28.5,-14 -54.6,-27.5 -60,-31 -5.8,-3.7 -8.6,-5.3 -15.4,-8.8 -1.1,-0.5 -3.9,-2 -6.2,-3.3 -2.4,-1.3 -5,-2.4 -5.8,-2.4 -0.8,0 -3.5,-1.5 -6,-3.4 -2.4,-1.9 -5.3,-3.5 -6.3,-3.5 -1.9,0 -3.5,-0.3 -6.8,-1.5 -6.1,-2.3 -10.3,-4.2 -12.7,-5.8 -1.4,-1 -4.1,-2.1 -6,-2.4 -3,-0.5 -6.5,-1.8 -12.8,-4.7 -1.4,-0.6 -5.3,-2.9 -8.7,-5 -5.3,-3.4 -6.2,-4.3 -5.7,-6.2 0.3,-1.3 0.1,-2.6 -0.5,-2.9 -1.2,-0.8 -0.4,-26.6 1,-30.3 0.5,-1.3 0.9,-6.2 0.8,-10.8 0,-4.6 0.2,-8.8 0.4,-9.3 1.2,-1.7 1.7,-23.5 0.7,-24.7 -1.1,-1.3 0.5,-18.9 1.8,-21 0.4,-0.6 0.7,-14.6 0.7,-31.2 0.1,-19.7 0.5,-30.6 1.2,-31.5 0.6,-0.7 0.7,-2.1 0.2,-3.3 -1.2,-3.1 -1.1,-3.5 1.4,-4.5 1.2,-0.5 2.3,-0.9 2.3,-0.9 0.1,-0.1 3.2,1.4 7,3.1 z m 475.9,16.5 c 1.4,1.4 1.6,2.7 1,7.7 -0.5,3.4 -0.8,6.9 -0.9,7.8 0,1 -0.3,1.8 -0.6,1.8 -0.3,0 -0.6,2.1 -0.8,4.7 -0.1,2.5 -0.6,5.1 -1.1,5.7 -0.5,0.6 -0.5,3.6 0,6.6 1.2,8.9 1,16.3 -0.7,22.1 -2.2,7.2 -2.5,30.6 -0.6,54.4 0.7,9.9 1.1,20 0.8,22.5 -0.3,2.5 -0.8,7.2 -1.1,10.5 -0.3,3.3 -1.1,10.3 -1.7,15.5 -0.6,5.2 -1.1,12.1 -1.1,15.3 l 0.1,5.9 -9.9,6.4 c -5.4,3.5 -9.8,7 -9.6,7.6 0.1,0.7 -0.3,1.2 -0.8,1.3 -0.6,0 -2.9,1.8 -5.3,3.9 -2.3,2.1 -5.2,4.6 -6.4,5.5 -1.3,0.8 -3.9,3.1 -5.9,5.1 -5,4.8 -8.9,8 -10,8 -1.3,0 -5.9,4.2 -5.9,5.4 0,0.6 -1.9,2.3 -4.2,3.8 -7.7,4.8 -19.3,13.1 -19.6,13.9 -0.2,0.5 -0.9,0.9 -1.5,0.9 -0.7,0 -2.1,1.4 -3.2,3 -1.1,1.6 -2.4,3 -2.8,3 -1.5,0 -21.2,13.4 -26,17.6 -2.6,2.3 -7.3,5.9 -10.5,8 -3.1,2.1 -6,4.2 -6.4,4.8 -0.4,0.6 -0.8,0.8 -0.8,0.4 0,-0.4 -2.8,1.1 -6.2,3.3 -3.5,2.1 -7.3,4.3 -8.6,4.9 -1.2,0.5 -2.5,1.7 -2.8,2.5 -0.4,0.8 -1.3,1.5 -2,1.5 -1.4,0 -3.4,1.3 -15,9.7 -2.4,1.8 -4.7,3.3 -5,3.3 -0.7,0 0,-4.7 1.1,-7.3 0.5,-1.3 0.2,-1.7 -1.4,-1.7 -2.1,0 -2.2,-0.2 -1.5,-13.8 1.1,-22 0.4,-69.9 -1.1,-74 -0.2,-0.6 0.1,-1.2 0.7,-1.2 0.7,0 0.8,-1.3 0.3,-4.3 -1.1,-5.5 -1.3,-13.7 -0.3,-13.7 0.4,0 0.7,-3.5 0.7,-7.8 -0.1,-9 0.8,-30.5 1.7,-41 0.4,-4.8 0.2,-7.7 -0.6,-8.6 -0.7,-1 -0.8,-1.6 0,-2.1 0.5,-0.3 1,-1.5 1,-2.5 0,-1.1 0.9,-2.4 2.1,-3.1 1.4,-0.7 1.9,-1.7 1.6,-3.1 -0.6,-2.3 0.1,-4.8 1.4,-4.8 0.5,0 3.5,-1.9 6.6,-4.3 3.2,-2.4 9,-6.2 12.8,-8.5 7.9,-4.7 12.5,-8.5 12.5,-10.4 0.1,-1.8 2.5,-4.8 3.9,-4.8 0.6,0 1.6,-0.9 2.3,-2 0.7,-1.1 1.7,-2 2.3,-2 0.6,0 2.5,-1.6 4.2,-3.5 1.8,-1.9 3.5,-3.5 3.9,-3.5 0.3,0 2,-1.1 3.8,-2.5 1.7,-1.4 6.9,-5.3 11.6,-8.7 4.7,-3.4 11,-8 14,-10.3 3,-2.3 6.6,-4.6 8,-5 2.5,-0.7 12.1,-6.3 13,-7.6 0.3,-0.4 2.4,-1.5 4.8,-2.4 2.4,-1 4.9,-2.9 5.9,-4.6 0.9,-1.5 2,-2.6 2.4,-2.3 0.4,0.2 1.3,-0.2 2.1,-0.9 1.7,-1.6 10.2,-6.6 15.1,-8.9 2,-0.9 3.7,-2.1 3.7,-2.6 0,-0.5 1.8,-1.4 3.9,-2.1 2.3,-0.6 5.3,-2.7 7.2,-4.9 1.8,-2 3.5,-3.6 3.7,-3.4 0.2,0.2 1.1,-0.5 2,-1.5 1.7,-1.8 4.3,-3.4 9.5,-6.1 1.5,-0.7 2.7,-2 2.7,-2.8 0,-2 5.4,-1.8 7.5,0.3 z"
       id="path8"
       inkscape:connector-curvature="0"
       style="fill:#cb2b15;fill-opacity:1;stroke:none" />
    <path
       inkscape:connector-curvature="0"
       id="path2990"
       d="m 442.77664,382.60887 c -5.94195,-2.45014 -12.03462,-4.84885 -13.53927,-5.33045 -1.50466,-0.4816 -4.15644,-1.74754 -5.89284,-2.81319 -1.73642,-1.06564 -7.13478,-3.57663 -11.99637,-5.57996 -4.86159,-2.00333 -13.03791,-5.73917 -18.16959,-8.30185 -5.13168,-2.56268 -13.52898,-6.32959 -18.66066,-8.37088 -5.13169,-2.04132 -12.46192,-5.13605 -16.28941,-6.87719 -3.82749,-1.74114 -8.68908,-3.72759 -10.80354,-4.41433 -2.11445,-0.68673 -8.17607,-3.41208 -13.47027,-6.0563 -5.29419,-2.64422 -11.81671,-5.67126 -14.49447,-6.72674 -2.67776,-1.05548 -8.78543,-4.28028 -13.57259,-7.16624 -4.78715,-2.88596 -11.30255,-6.24584 -14.47865,-7.46641 -3.17611,-1.22058 -7.32161,-3.07783 -9.21223,-4.12723 -9.95924,-5.52794 -21.37829,-10.92737 -31.8672,-15.06821 -6.45333,-2.54766 -17.39701,-7.47019 -24.31929,-10.93895 -6.92227,-3.46876 -15.56411,-7.42667 -19.20408,-8.79535 -5.30255,-1.99384 -18.52244,-8.56917 -30.56072,-15.20033 -0.87617,-0.48264 -3.69236,-1.78799 -6.2582,-2.90079 -3.24104,-1.40563 -4.66517,-2.59841 -4.66517,-3.90732 0,-2.39662 3.59162,-4.94184 6.97357,-4.94184 1.43437,0 4.24343,-0.68335 6.24236,-1.51856 1.99893,-0.83521 9.89775,-3.21857 17.55292,-5.29638 31.01411,-8.41801 86.78609,-27.02051 92.70448,-30.92117 3.50621,-2.31086 33.36601,-14.31731 35.60686,-14.31731 0.57472,0 5.78788,-1.51948 11.58479,-3.37663 5.79691,-1.85713 13.41261,-4.10607 16.92376,-4.99761 3.51115,-0.89155 10.80354,-3.53055 16.20531,-5.86443 10.19149,-4.40334 23.67019,-7.7202 29.20072,-7.18576 3.03624,0.29341 3.27415,0.61908 4.88904,6.69233 0.93363,3.51115 2.53508,8.37275 3.55876,10.80354 2.94117,6.98387 4.21608,10.92788 5.23838,16.20531 0.52319,2.70089 2.20202,9.33033 3.73072,14.7321 1.52869,5.40177 3.32284,12.2522 3.987,15.22317 0.66417,2.97097 1.7519,6.06471 2.41721,6.87498 1.15942,1.41205 3.65275,11.62915 8.9367,36.62058 1.34615,6.36681 2.91596,12.77527 3.48849,14.24103 0.57252,1.46576 2.54606,9.07348 4.38562,16.90605 1.83958,7.83256 4.96145,19.98655 6.93751,27.00885 4.57813,16.2693 7.13638,27.65349 8.16618,36.33918 0.44831,3.78124 0.90926,7.31694 1.02432,7.85712 0.37167,1.74483 -0.004,3.43782 -0.76001,3.42473 -0.40513,-0.007 -5.5982,-2.01742 -11.54014,-4.46756 l 0,0 z"
       style="fill:#ffa3a4;fill-opacity:1;fill-rule:nonzero;stroke:#c42836;stroke-width:0.76560003;stroke-linecap:square;stroke-linejoin:round;stroke-miterlimit:4;stroke-opacity:1;stroke-dasharray:none;stroke-dashoffset:0" />
    <path
       inkscape:connector-curvature="0"
       id="path3760"
       d="m 439.83022,380.79253 c -7.0223,-2.87492 -23.37493,-10.08967 -36.33918,-16.03279 -12.96425,-5.9431 -33.9575,-15.2329 -46.65165,-20.64399 -23.98381,-10.22347 -27.34872,-11.81549 -66.29445,-31.36542 -12.96425,-6.50779 -26.88608,-13.27352 -30.93741,-15.03498 -23.84708,-10.36833 -49.51995,-22.16773 -69.97747,-32.16206 -17.91388,-8.75166 -23.32583,-11.81651 -23.32583,-13.20965 0,-2.33686 -0.37784,-2.19938 31.91955,-11.61424 49.39052,-14.3976 69.48878,-21.37386 104.57935,-36.30029 7.82235,-3.32738 23.24457,-8.70919 34.27161,-11.95957 11.02702,-3.25038 24.07328,-7.45608 28.99168,-9.34602 14.91308,-5.73047 21.41312,-7.48833 28.06252,-7.58917 l 6.35213,-0.0963 4.25914,11.78568 c 2.34253,6.48212 6.44618,20.18298 9.11922,30.44634 2.67305,10.26336 6.37667,23.52226 8.23026,29.4642 1.85359,5.94194 4.98597,18.09593 6.96086,27.00885 1.97488,8.91292 7.54687,31.5502 12.38219,50.30506 11.11079,43.09563 14.72042,61.7824 11.9019,61.6152 -0.40513,-0.0241 -6.48212,-2.3959 -13.50442,-5.27082 z"
       style="fill:#ffa3a4;fill-opacity:1;fill-rule:nonzero;stroke:#c42836;stroke-width:0;stroke-linecap:square;stroke-linejoin:round;stroke-miterlimit:4;stroke-opacity:1;stroke-dasharray:none;stroke-dashoffset:0" />
    <path
       inkscape:connector-curvature="0"
       id="path3762"
       d="m 460.15758,385.64844 c -0.60717,-1.33259 -1.78219,-6.33205 -2.61116,-11.1099 -0.82897,-4.77784 -3.05624,-14.62614 -4.94949,-21.88508 -1.89324,-7.25893 -4.13547,-16.51279 -4.98274,-20.56411 -0.84725,-4.05133 -2.36495,-10.45979 -3.37265,-14.24103 -1.0077,-3.78124 -2.13496,-9.286 -2.50504,-12.23279 -0.37006,-2.94679 -1.703,-8.09467 -2.96208,-11.43973 -1.25907,-3.34506 -2.81372,-9.11036 -3.45478,-12.81178 -0.64106,-3.70142 -1.72466,-8.32342 -2.408,-10.27112 -0.68334,-1.94769 -1.98134,-7.25124 -2.88442,-11.78568 -0.9031,-4.53443 -2.90041,-12.44307 -4.43848,-17.57475 -1.53807,-5.13169 -4.5877,-16.18076 -6.77696,-24.5535 -2.18924,-8.37275 -5.49217,-19.42323 -7.33983,-24.55663 -1.84765,-5.1334 -3.672,-11.83567 -4.0541,-14.89393 l -0.69474,-5.56048 11.64286,4.23821 c 6.40357,2.33101 18.32845,7.15494 26.49975,10.71984 8.1713,3.56489 15.33374,6.48163 15.91655,6.48163 0.58281,0 3.25897,1.29677 5.94703,2.88169 4.86144,2.86641 17.96209,8.90399 19.32033,8.90399 0.83285,0 15.4243,6.02599 22.53039,9.30462 2.70088,1.24615 6.89953,3.15863 9.33032,4.24995 2.4308,1.09133 8.61828,3.96056 13.74996,6.37604 5.13169,2.4155 12.2031,5.59984 15.71424,7.07632 3.51116,1.47648 9.35614,4.18025 12.98884,6.00838 3.63272,1.82813 7.27891,3.32387 8.10266,3.32387 0.82375,0 1.49773,0.38452 1.49773,0.8545 0,0.46997 2.02907,1.42261 4.50904,2.11695 4.83777,1.3545 6.23997,3.07563 4.35554,5.34622 -1.70915,2.05941 -0.37491,3.46801 3.28494,3.46801 1.85711,0 4.09415,0.83831 5.34381,2.00254 2.96436,2.76173 2.70098,0.55374 -0.42245,-3.54128 -3.05613,-4.00679 -2.33849,-4.19027 3.44906,-0.8819 2.37305,1.35653 7.49334,3.53347 11.37843,4.83765 8.23387,2.76402 14.2622,5.51104 14.2622,6.49907 0,0.38235 -0.72309,0.97264 -1.60689,1.31179 -1.46911,0.56375 -1.45895,0.78012 0.11876,2.52345 0.94911,1.04876 3.32957,2.42303 5.28992,3.05395 1.96034,0.6309 4.1274,1.59445 4.81568,2.1412 0.68827,0.54676 1.5722,0.66536 1.96428,0.26356 0.39207,-0.40181 -0.30841,-1.45921 -1.55665,-2.34978 -1.24823,-0.89057 -3.45805,-2.63853 -4.9107,-3.88435 l -2.64119,-2.26514 2.45535,0.64838 c 3.86211,1.01985 10.80355,5.30995 10.80355,6.67705 0,1.67762 -5.64523,6.92516 -9.58684,8.91146 -1.76162,0.88774 -3.74627,2.48408 -4.41035,3.54745 -0.66408,1.06336 -1.66545,1.93338 -2.22528,1.93338 -0.55981,0 -3.36554,1.76402 -6.23494,3.92005 -2.86941,2.15602 -8.16107,5.319 -11.75925,7.02882 -3.59819,1.70982 -8.31001,4.49014 -10.47071,6.1785 -2.16071,1.68835 -7.24329,5.23003 -11.29462,7.87041 -4.05132,2.64037 -8.56355,5.60939 -10.02716,6.59783 -1.46362,0.98842 -3.09161,1.79715 -3.61776,1.79715 -1.59256,0 -10.78895,5.94659 -21.70186,14.03291 -5.6775,4.20695 -12.25346,9.06854 -14.61324,10.80354 -2.35979,1.73499 -10.39126,8.95846 -17.8477,16.05213 -7.59038,7.22108 -16.0763,14.32093 -19.28084,16.13155 -3.14802,1.77869 -6.88034,4.18363 -8.29407,5.34434 -4.44879,3.65258 -8.46329,4.8926 -11.1626,3.44798 -2.93296,-1.56967 -5.41873,-0.68689 -5.41873,1.92439 0,2.72855 -1.41497,2.50868 -2.75292,-0.42779 l 0,0 z"
       style="fill:#ff8284;fill-opacity:1;fill-rule:nonzero;stroke:#c42836;stroke-width:0;stroke-linecap:square;stroke-linejoin:round;stroke-miterlimit:4;stroke-opacity:1;stroke-dasharray:none;stroke-dashoffset:0" />
    <path
       inkscape:connector-curvature="0"
       id="path3764"
       d="m 186.92917,236.82177 c 0,-0.54018 0.4125,-0.98214 0.91668,-0.98214 0.50417,0 3.10392,-2.13045 5.77721,-4.73432 5.16331,-5.02921 18.45013,-13.06628 28.79456,-17.41753 9.00437,-3.78759 21.03041,-9.93896 26.46251,-13.53571 2.58082,-1.70883 8.05985,-5.09581 12.17561,-7.5266 4.11576,-2.4308 9.34081,-5.77546 11.61122,-7.4326 2.27041,-1.65713 12.52531,-7.32913 22.78868,-12.60445 10.26336,-5.27531 19.3236,-10.16961 20.13387,-10.87623 2.82715,-2.4655 14.40501,-6.40797 18.73771,-6.38053 2.61472,0.0166 6.85053,1.15064 10.64574,2.85028 4.93378,2.20952 6.77028,2.60994 8.45333,1.84309 1.55076,-0.70657 4.99572,-0.41964 12.35749,1.02927 5.61404,1.10492 14.185,2.51766 19.0466,3.13943 8.22956,1.05251 11.41765,2.11829 10.1446,3.39134 -0.29039,0.29039 -5.78546,2.04536 -12.21127,3.89992 -6.42581,1.85457 -16.98685,5.4203 -23.46897,7.92386 -6.48212,2.50355 -14.87942,5.36004 -18.66066,6.34774 -3.78124,0.98771 -8.10262,2.26803 -9.60308,2.84519 -1.50046,0.57714 -6.36205,1.97484 -10.80354,3.10599 -4.44149,1.13114 -9.40133,2.86383 -11.02186,3.85041 -1.62054,0.98657 -6.92409,3.34822 -11.78568,5.24809 -4.86159,1.89988 -13.25889,5.29216 -18.66066,7.5384 -5.40177,2.24623 -14.90397,5.55522 -21.11601,7.35328 -6.21203,1.79807 -13.72541,4.24092 -16.69638,5.42855 -2.97097,1.18764 -8.95847,3.20082 -13.30554,4.47376 -4.34707,1.27293 -10.50486,3.46475 -13.68396,4.8707 -5.88743,2.6037 -22.19173,7.32598 -25.30946,7.33047 -0.9453,0.002 -1.71874,-0.43949 -1.71874,-0.97966 z"
       style="fill:#fdd1d2;fill-opacity:1;fill-rule:nonzero;stroke:#c42836;stroke-width:0;stroke-linecap:square;stroke-linejoin:round;stroke-miterlimit:4;stroke-opacity:1;stroke-dasharray:none;stroke-dashoffset:0" />
    <path
       inkscape:connector-curvature="0"
       id="path3766"
       d="m 442.73629,575.07102 c -30.42963,-14.38707 -46.41288,-22.32427 -52.01307,-25.8294 -13.93904,-8.72438 -19.35348,-11.56729 -40.23205,-21.12422 -12.12696,-5.55098 -22.62056,-10.5159 -23.31911,-11.03318 -0.69855,-0.51727 -5.46873,-2.86889 -10.60041,-5.22584 -17.01917,-7.81678 -65.13585,-32.25751 -76.60692,-38.91226 -6.21203,-3.60382 -15.49326,-8.6037 -20.62494,-11.11086 -5.13168,-2.50714 -11.31917,-5.72255 -13.74996,-7.14535 -2.4308,-1.42279 -5.9665,-2.90293 -7.85712,-3.28918 -1.89062,-0.38626 -7.63614,-2.60456 -12.76782,-4.92955 -5.13168,-2.325 -11.09819,-4.69944 -13.25889,-5.27656 -4.77162,-1.27445 -16.13071,-7.03887 -20.62409,-10.46613 -3.06048,-2.33435 -3.32872,-3.00808 -3.98469,-10.00823 -0.46636,-4.97675 -0.12396,-13.14728 1.01628,-24.25126 0.94576,-9.21022 1.87429,-26.46905 2.06339,-38.35294 0.18909,-11.88389 0.78632,-24.70082 1.32717,-28.48206 0.54085,-3.78124 1.27572,-19.69191 1.63304,-35.35704 0.87639,-38.42059 0.69832,-35.8788 2.58758,-36.93608 1.86814,-1.04546 16.28474,4.73255 32.18663,12.90004 5.13168,2.63573 13.04392,6.17032 17.58275,7.85466 4.53884,1.68434 14.26202,6.05827 21.60708,9.71983 7.34506,3.66157 18.21625,8.56949 24.1582,10.90649 5.94195,2.33701 21.18967,9.54069 33.88383,16.0082 47.87961,24.39399 74.32008,37.00205 77.59732,37.00205 1.60586,0 25.68787,10.38227 35.34877,15.23962 4.59152,2.30853 16.74549,7.79254 27.00886,12.18671 27.38621,11.72512 29.40429,12.81182 29.77497,16.03336 0.21929,1.90582 -0.13194,2.70089 -1.19311,2.70089 -1.48456,0 -3.53729,2.81227 -3.53729,4.84613 0,1.59926 5.17181,1.2456 7.70209,-0.52668 1.23549,-0.86536 2.54922,-1.26673 2.91943,-0.89194 1.00995,1.0225 0.56796,20.65594 -1.07259,47.64377 -1.12819,18.55927 -1.2634,30.01482 -0.59116,50.08913 0.8056,24.057 0.3707,75.17121 -0.68312,80.28995 -0.25023,1.2154 -0.79616,2.20981 -1.2132,2.20981 -0.41703,0 -6.92756,-2.91684 -14.46785,-6.48188 l 0,0 z"
       style="fill:#e8e8e8;fill-opacity:1;fill-rule:nonzero;stroke:#c42836;stroke-width:0;stroke-linecap:square;stroke-linejoin:round;stroke-miterlimit:4;stroke-opacity:1;stroke-dasharray:none;stroke-dashoffset:0" />
    <path
       inkscape:connector-curvature="0"
       id="path3768"
       d="m 466.348,574.67793 c 0.52927,-3.13275 0.3652,-3.92856 -0.80996,-3.92856 -1.28286,0 -1.49351,-5.05503 -1.62683,-39.04007 -0.0842,-21.47204 -0.28309,-44.12264 -0.44191,-50.33468 -0.15881,-6.21203 0.0805,-17.2611 0.53171,-24.55349 0.45125,-7.29239 1.06555,-22.5257 1.36512,-33.85179 0.45658,-17.26276 0.81825,-20.99516 2.23648,-23.08029 0.93049,-1.36807 1.91279,-3.69787 2.18288,-5.17735 0.39927,-2.18708 3.42869,-4.6657 16.20531,-13.25888 12.72379,-8.55766 16.04278,-11.26983 17.44071,-14.25196 0.94956,-2.02567 2.13339,-3.68304 2.63073,-3.68304 0.49734,0 1.52443,-0.62016 2.28242,-1.37816 6.84756,-6.84756 41.08925,-32.11455 50.81556,-37.49688 4.05133,-2.24192 9.80158,-5.43716 12.77832,-7.10055 2.97675,-1.66338 6.70563,-4.37431 8.28641,-6.02429 1.58077,-1.64997 3.26427,-2.99995 3.74111,-2.99995 0.47683,0 2.71444,-1.26644 4.97248,-2.8143 2.25804,-1.54787 6.31533,-4.00768 9.01622,-5.46627 9.97589,-5.38735 14.0345,-8.02416 18.68673,-12.14043 2.62053,-2.31862 7.28725,-5.7481 10.37049,-7.62107 3.08323,-1.87297 5.85863,-4.06406 6.16755,-4.86911 0.73785,-1.92282 3.5492,-1.85991 6.40935,0.14342 2.12054,1.48529 2.24546,2.0624 1.6475,7.61159 -0.35586,3.30244 -1.3262,9.31916 -2.15629,13.37049 -1.08735,5.30686 -1.33856,10.11164 -0.89858,17.18745 0.44653,7.18111 0.18718,11.93362 -0.96476,17.67852 -1.83001,9.12655 -2.04902,35.21726 -0.49697,59.20187 0.83283,12.86994 0.69557,17.48274 -0.96434,32.41063 -1.06446,9.57276 -1.93924,20.80756 -1.94397,24.9662 l -0.009,7.56116 -7.41319,4.98006 c -4.07726,2.73903 -13.60368,10.38559 -21.16983,16.99234 -7.56615,6.60676 -15.94947,13.46623 -18.62959,15.24328 -2.68012,1.77706 -5.41816,4.13274 -6.08456,5.23486 -0.66637,1.1021 -4.7473,4.47038 -9.06872,7.48506 -12.33046,8.60185 -18.52206,13.34257 -20.32284,15.56056 -0.9142,1.12601 -4.44991,3.68167 -7.85712,5.67925 -3.40698,1.99758 -13.26611,8.96305 -21.90894,15.47883 -8.64283,6.51577 -16.37718,12.11436 -17.18746,12.44128 -3.54795,1.43152 -16.27768,9.39427 -16.99071,10.62809 -0.43197,0.74747 -1.31261,1.35906 -1.95698,1.35906 -0.64437,0 -5.00456,2.65177 -9.68931,5.89284 -4.68476,3.24105 -8.81504,5.89284 -9.17842,5.89284 -0.36338,0 -0.36201,-1.76786 0.003,-3.92856 l 0,0 z"
       style="fill:#cfcfcf;fill-opacity:1;fill-rule:nonzero;stroke:#c42836;stroke-width:0;stroke-linecap:square;stroke-linejoin:round;stroke-miterlimit:4;stroke-opacity:1;stroke-dasharray:none;stroke-dashoffset:0" />
  </g>
</svg>
