<?xml version="1.0" encoding="UTF-8" standalone="no"?>
<svg
   xmlns:dc="http://purl.org/dc/elements/1.1/"
   xmlns:cc="http://creativecommons.org/ns#"
   xmlns:rdf="http://www.w3.org/1999/02/22-rdf-syntax-ns#"
   xmlns:svg="http://www.w3.org/2000/svg"
   xmlns="http://www.w3.org/2000/svg"
   xmlns:sodipodi="http://sodipodi.sourceforge.net/DTD/sodipodi-0.dtd"
   xmlns:inkscape="http://www.inkscape.org/namespaces/inkscape"
   version="1.0"
   width="784.000000pt"
   height="701.000000pt"
   viewBox="0 0 784.000000 701.000000"
   preserveAspectRatio="xMidYMid meet"
   id="svg2"
   inkscape:version="0.48.4 r9939"
   sodipodi:docname="Roof2_5.svg">
  <defs
     id="defs12" />
  <sodipodi:namedview
     pagecolor="#ffffff"
     bordercolor="#666666"
     borderopacity="1"
     objecttolerance="10"
     gridtolerance="10"
     guidetolerance="10"
     inkscape:pageopacity="0"
     inkscape:pageshadow="2"
     inkscape:window-width="806"
     inkscape:window-height="758"
     id="namedview10"
     showgrid="false"
     inkscape:zoom="0.81454783"
     inkscape:cx="490"
     inkscape:cy="438.125"
     inkscape:window-x="885"
     inkscape:window-y="260"
     inkscape:window-maximized="0"
     inkscape:current-layer="svg2" />
  <metadata
     id="metadata4">
Created by potrace 1.14, written by Peter Selinger 2001-2017
<rdf:RDF>
  <cc:Work
     rdf:about="">
    <dc:format>image/svg+xml</dc:format>
    <dc:type
       rdf:resource="http://purl.org/dc/dcmitype/StillImage" />
    <dc:title></dc:title>
  </cc:Work>
</rdf:RDF>
</metadata>
  <path
     style="fill:#cb2b15;stroke:none;fill-opacity:1"
     inkscape:connector-curvature="0"
     id="path8"
     d="m 326.1,141.8 c -0.7,1.4 -0.8,2.2 -0.1,2.2 1.7,0 1.1,4.7 -0.7,5.4 -1.7,0.5 -2.4,0.9 -6.8,3.5 -1.1,0.6 -3.9,2.1 -6.3,3.2 -2.4,1.1 -4.6,2.7 -4.9,3.5 -0.3,0.8 -1.2,1.3 -1.9,1 -0.8,-0.3 -1.4,-0.1 -1.4,0.4 0,0.5 -1.9,1.4 -4.1,2 -2.3,0.6 -5.2,2.1 -6.5,3.3 -1.3,1.3 -5.1,3.1 -8.4,4 -3.3,1 -6,2.2 -6,2.7 0,0.5 -1.6,1.8 -3.5,3 -2,1.2 -4.1,2.7 -4.8,3.4 -0.6,0.6 -4.1,2.6 -7.7,4.5 -3.6,1.9 -7.9,4.4 -9.6,5.7 -1.7,1.3 -3.4,2 -3.8,1.7 -0.3,-0.3 -0.8,0.1 -1.2,1 -0.8,2.1 -7.1,5.7 -15.9,9.1 -3.8,1.5 -8.4,3.5 -10.1,4.4 -1.8,0.9 -6.1,3.2 -9.8,5.1 -3.6,1.8 -6.6,3.7 -6.6,4.3 0,0.5 -0.4,0.6 -1,0.3 -0.5,-0.3 -1,-0.1 -1,0.4 0,0.6 -0.3,1 -0.7,0.9 -0.5,-0.1 -2.1,0.4 -3.8,1.1 -1.6,0.7 -3.2,1.2 -3.4,1.1 -0.2,-0.1 -1,1.1 -1.8,2.7 -0.8,1.7 -3.7,4.2 -7.1,6.1 -3.1,1.8 -6.4,3.7 -7.2,4.1 -0.8,0.5 -6.6,3.2 -12.8,6 -9.4,4.2 -12,5 -15,4.5 l -3.7,-0.6 0.4,18.9 c 0.8,43.1 0.9,53.1 0,58.3 -0.8,5.3 -2,17.9 -2,21 0,4 -0.2,30 -0.3,33.2 0,2 -0.4,3.9 -0.7,4.2 -0.3,0.4 -0.2,2.9 0.2,5.8 0.5,3.1 0.4,5.8 -0.2,6.9 -0.5,1 -1.4,5.6 -1.9,10.1 -1.5,12.5 -1.7,13.1 -4.3,12.4 -3.5,-0.8 -4.4,0.5 -4.4,6.5 0,4.9 0.3,5.7 2.6,7.2 1.4,0.9 3.3,2.1 4.1,2.6 2.5,1.6 10.6,5.1 11.7,5.1 0.6,0 1.3,0.6 1.6,1.4 0.3,0.7 1.8,1.7 3.4,2 1.5,0.4 3.5,1.3 4.3,2 2.5,2.1 12.9,5.9 14.5,5.3 0.8,-0.4 2,0 2.7,0.7 1.2,1.2 2.8,1.6 7.1,1.7 0.9,0 1.7,0.4 1.7,0.9 0,0.9 3.9,2.5 5.3,2.2 0.4,-0.1 0.7,0.3 0.7,0.9 0,0.5 0.4,0.8 0.9,0.5 0.5,-0.3 1.1,0.1 1.5,0.9 0.3,0.8 1.5,1.5 2.6,1.5 1.1,0 2,0.4 2,1 0,0.5 0.8,1 1.8,1 1.7,0 27.2,12.5 28.2,13.8 0.8,1.1 12.4,6.7 13.3,6.4 0.4,-0.1 0.7,0.3 0.7,0.8 0,0.6 2.5,2.2 5.5,3.6 3,1.5 5.5,3 5.5,3.4 0,0.5 1.3,1.1 3,1.5 1.6,0.4 3.2,1.1 3.5,1.6 0.4,0.5 1.5,0.9 2.5,0.9 1,0 2.5,0.6 3.2,1.3 2.3,2.2 11.8,7.7 13.3,7.7 0.8,0 1.5,0.4 1.5,1 0,0.5 0.3,0.9 0.8,0.8 0.4,-0.1 2.1,0.5 3.7,1.2 8.8,4 34.9,16.5 40.6,19.5 3.7,1.9 7.3,3.5 8,3.5 0.7,0 7.7,3.2 15.5,7 7.9,3.9 14.6,7 15,7 1.5,0 11.9,5.7 14.2,7.7 1.3,1.2 4.3,3.2 6.6,4.4 2.2,1.1 5.2,2.7 6.6,3.5 1.4,0.7 3.3,1.4 4.3,1.4 0.9,0 1.7,0.5 1.7,1.1 0,0.5 0.4,0.7 1,0.4 0.5,-0.3 1,-0.2 1,0.3 0,0.6 1.1,1.3 2.5,1.6 1.4,0.4 2.5,1 2.5,1.5 0,0.5 2.5,1.9 5.5,3 3,1.1 7.3,3.2 9.5,4.6 2.3,1.4 4.6,2.3 5.2,1.9 0.6,-0.4 0.8,-0.3 0.5,0.3 -0.8,1.2 3.8,2.9 8.6,3.2 1.1,0.1 1.5,0.6 1.1,1.3 -0.4,0.7 -0.3,0.8 0.4,0.4 1.3,-0.8 4.7,0.8 7.7,3.5 1.1,1 2.2,1.7 2.5,1.6 0.3,-0.1 1.2,0.4 2,1.1 2.6,2.2 9.1,6.2 10,6.2 0.6,0 1,0.4 1,1 0,1.4 9.9,5.9 10.6,4.8 1.1,-1.8 -0.6,-5.8 -2.5,-5.8 -1.9,0 -3.1,-1.8 -3.1,-4.6 0,-0.8 0.7,-1.4 1.6,-1.4 0.8,0 1.3,-0.4 1,-0.8 -0.3,-0.5 0.8,-1.6 2.5,-2.6 1.6,-0.9 2.9,-2.2 2.9,-2.7 0,-0.6 0.5,-0.7 1,-0.4 0.6,0.3 1.3,-0.1 1.6,-0.9 0.3,-0.9 1,-1.4 1.4,-1.1 0.5,0.3 1.2,-0.1 1.7,-0.8 0.4,-0.8 2.2,-2.2 3.8,-3.3 1.7,-1 3.2,-2.1 3.5,-2.4 0.5,-0.5 4.8,-2.9 10.3,-5.8 1.5,-0.7 3.3,-2.3 4,-3.3 0.6,-1 1.7,-1.9 2.3,-1.9 0.6,0 1.7,-0.7 2.4,-1.5 0.7,-0.9 1.9,-1.4 2.6,-1.1 0.7,0.3 1.5,-0.2 1.8,-1 0.3,-0.8 2.6,-2.4 5.2,-3.5 2.5,-1.2 6.3,-3.8 8.5,-6 2.1,-2.1 4.4,-3.9 4.9,-3.9 0.6,0 1,-0.6 1,-1.4 0,-0.8 1.4,-1.9 3,-2.5 1.7,-0.5 3,-1.5 3,-2 0,-0.6 0.7,-1.1 1.5,-1.1 0.8,0 2.4,-0.9 3.5,-2 1.1,-1.1 2.4,-2 3,-2 0.6,0 1,-0.5 1,-1.2 0,-0.6 0.3,-0.9 0.6,-0.6 0.3,0.4 1.4,-0.1 2.4,-1 1,-0.9 3.7,-3.1 6,-4.7 2.3,-1.7 5.8,-4.4 7.8,-6 2,-1.7 5.7,-4.4 8.2,-6 4.3,-2.8 7,-5 10.8,-8.6 3,-2.7 7.9,-5.9 8.6,-5.4 0.3,0.3 0.4,0.2 0.1,-0.1 -0.6,-0.9 2.1,-3.4 3.8,-3.4 1.6,0 10.7,-8.7 10.7,-10.2 0,-0.4 0.6,-0.8 1.3,-0.8 0.7,0 1.9,-1 2.7,-2.1 0.8,-1.2 3.9,-4 6.9,-6.3 16.2,-12.4 17.8,-13.2 17.3,-8.5 -0.4,3.7 1.1,5.3 3.7,4 1.7,-1 2.1,-2.1 2.1,-6.1 0,-4.8 0.1,-5 5.3,-8.8 6,-4.5 9.7,-6.6 11.4,-6.7 0.7,0 1.3,-0.3 1.3,-0.8 0,-0.4 0,-1.9 0,-3.4 l 0,-2.7 -4,3.9 c -2.2,2.1 -4,3.5 -4,3 0,-0.6 -0.7,-0.1 -1.6,1 -0.8,1.1 -1.6,1.9 -1.7,1.7 -0.1,-0.2 -1.5,0.1 -3,0.7 -1.6,0.6 -3.2,1.1 -3.6,1.1 -1.2,0 -2,-11.3 -1,-12.5 2.7,-3.5 3,-69.8 0.4,-81.3 -0.5,-2.1 -0.4,-3.2 0.4,-3.2 0.7,0 0.9,-2.7 0.4,-9 -0.4,-6.7 -0.3,-9.3 0.7,-10.5 1,-1.2 1.4,-6.5 1.5,-20.3 0.2,-14.5 0.6,-19.9 1.9,-24 1,-2.9 1.9,-7.2 2.1,-9.5 0.9,-8 1.3,-10.6 2,-11.6 1,-1.7 -0.2,-4.4 -2.5,-5.9 -1.8,-1.1 -2.5,-0.9 -5.4,1.3 -4.1,3.1 -5.1,3.1 -10.1,0 -2.2,-1.3 -4.6,-2.5 -5.3,-2.5 -2.2,0 -12.1,-5 -12.9,-6.5 -0.5,-0.8 -3.5,-2.1 -6.8,-2.9 -3.3,-0.9 -9.1,-3.1 -13,-5 -6.5,-3.2 -18.8,-7.4 -19.1,-6.5 -0.1,0.2 -1,-0.3 -2,-1.1 -2.9,-2.3 -21,-11 -23,-11 -0.4,0 -5.7,-2.5 -11.6,-5.5 -5.9,-3 -11.6,-5.5 -12.7,-5.5 -1.1,0 -2.3,-0.5 -2.6,-1 -0.3,-0.6 -1.7,-1 -3.1,-1 -1.3,0 -2.4,-0.3 -2.4,-0.8 0,-0.4 -2.1,-1.6 -4.8,-2.6 -2.6,-1.1 -8,-3.4 -12,-5.3 -3.9,-1.8 -7.7,-3.3 -8.3,-3.3 -1.4,0 -5.7,-1.9 -18.4,-8 -5.5,-2.7 -11.8,-5.6 -14,-6.5 -2.2,-0.9 -5.7,-2.6 -7.8,-3.6 -2.1,-1 -4.4,-1.9 -5.1,-1.9 -0.7,0 -1.9,-0.7 -2.6,-1.5 -0.7,-0.8 -1.6,-1.2 -2.2,-0.9 -0.5,0.3 -1.4,0.1 -2.1,-0.4 -2.4,-2 -8.8,-5.2 -10.2,-5.2 -0.8,0 -1.5,-0.5 -1.5,-1.1 0,-0.5 -0.4,-0.7 -1,-0.4 -0.5,0.3 -1,0.1 -1,-0.4 0,-0.6 -0.9,-1.1 -2,-1.1 -1.1,0 -2,-0.4 -2,-0.9 0,-0.5 -0.8,-0.8 -1.7,-0.7 -1,0 -1.9,-0.9 -2.3,-2.3 -0.3,-1.3 -1.2,-2.7 -2,-3.1 -0.8,-0.4 -2.5,-1.2 -3.7,-1.8 -1.3,-0.7 -3,-1.2 -3.8,-1.2 -0.9,0 -1.8,-0.6 -2.1,-1.3 -0.3,-0.9 -3,-1.2 -9.7,-1.1 -5,0 -11.8,-0.5 -15.1,-1.1 -3.2,-0.7 -6.8,-1.2 -8,-1.1 -1.1,0.1 -2.3,-0.1 -2.6,-0.5 -0.3,-0.4 -2.2,-0.9 -4.4,-1.2 -2.1,-0.3 -4.3,-1 -4.9,-1.6 -0.6,-0.6 -2.2,-1.1 -3.4,-1.1 -1.3,0 -3.6,-0.9 -5.1,-2 -1.5,-1.1 -4.1,-2.3 -5.7,-2.6 -1.6,-0.3 -3.9,-1.7 -5.2,-3.1 -2.2,-2.3 -2.9,-2.5 -7.3,-1.9 -3.5,0.5 -4.9,0.3 -5.2,-0.6 -0.3,-0.8 -0.9,-0.5 -1.7,1 z m 17.6,12.2 c 2.6,1.3 5.6,2.7 6.5,3.2 1.1,0.5 2.2,0.3 3.3,-0.8 1.4,-1.4 1.9,-1.4 5.3,-0.1 2,0.8 4.5,1.3 5.5,1.1 1,-0.1 3.5,0.3 5.6,1.1 2,0.7 7,1.6 11.1,1.9 12.2,1.1 15,1.7 15,3.1 0,1.9 -0.3,2 -12,5 -5.8,1.4 -11.3,3 -12.2,3.5 -1,0.6 -2.3,1 -2.9,1 -0.7,0 -4.1,1.3 -7.6,3 -3.4,1.6 -7,3 -7.8,3 -0.8,0 -2.4,0.4 -3.5,1 -1.1,0.5 -2.9,1.4 -4,2 -1.1,0.5 -3.1,1 -4.5,1 -1.4,0 -3.3,0.4 -4.3,0.9 -2.9,1.4 -18.6,6.2 -20.4,6.1 -2.2,0 -6.6,1.9 -9.7,4.2 -1.3,1 -3.1,1.8 -4,1.8 -0.9,0 -2.9,0.7 -4.5,1.5 -1.5,0.8 -3.2,1.5 -3.7,1.5 -0.5,0 -4.4,1.6 -8.7,3.6 -9.2,4.2 -9.2,4.2 -21.2,8.4 -5.2,1.8 -10.9,3.4 -12.6,3.6 -1.7,0.1 -6.7,1.9 -11.3,3.9 -4.5,2 -10.5,4 -13.4,4.5 -2.9,0.5 -9,2.6 -13.7,4.8 -15.4,7.2 -36.2,10 -24.5,3.4 3.1,-1.8 7.5,-6 7.5,-7.2 0,-0.4 0.8,-1 1.8,-1.4 0.9,-0.3 3.5,-1.7 5.7,-3 2.2,-1.4 5.1,-3 6.5,-3.6 1.4,-0.6 3.2,-1.7 4,-2.5 0.8,-0.7 4.2,-2.2 7.5,-3.3 7.3,-2.5 25.7,-12 26.8,-13.8 0.4,-0.8 1.3,-1.4 2,-1.4 0.7,0 3.8,-1.8 7,-4 3.1,-2.2 6,-4 6.2,-4 0.8,0 8.9,-5.3 9.6,-6.3 0.7,-0.9 6.3,-4.2 9.9,-5.8 4.9,-2.2 15.5,-7.4 16,-7.9 0.4,-0.4 4.6,-2.7 14.2,-7.7 1.5,-0.8 3,-1.8 3.3,-2.4 0.4,-0.5 1.4,-0.9 2.3,-0.9 0.9,0 3.7,-1.2 6.2,-2.5 5.4,-3 10.6,-2.8 17.7,0.5 z m 66.1,15.9 c 0.9,0.5 4.9,1.9 8.7,3.1 6.4,2 13.5,5 28.5,11.7 3,1.4 6,2.6 6.5,2.7 0.6,0.1 2.4,1 4.1,1.9 1.7,0.9 3.5,1.3 3.8,0.9 0.4,-0.3 1,-0.1 1.4,0.5 1.4,2.1 22.6,12 26.7,12.4 0.6,0 2.1,0.7 3.5,1.4 4.1,2.3 12.2,5.5 13.6,5.5 0.8,0 1.4,0.4 1.4,0.9 0,0.5 2,1.5 4.5,2.2 2.5,0.7 4.5,1.7 4.5,2.1 0,0.4 0.6,0.8 1.4,0.8 1.6,0 6.8,2.3 11.4,5 1.8,1.1 6.1,3.2 9.5,4.6 3.4,1.4 8,3.4 10.2,4.4 2.2,1 6,2.6 8.5,3.6 2.5,1 5.2,2.4 6.2,3.2 1.4,1.2 3.4,1.9 6.1,2.1 0.5,0.1 0.5,0.5 0.2,1.1 -0.3,0.5 0,0.7 0.8,0.4 0.8,-0.3 1.8,-0.1 2.2,0.5 0.3,0.6 1.9,1.1 3.6,1.1 2.4,0 2.9,0.4 2.9,2.4 0,1.4 -0.5,2.8 -1,3.1 -2.1,1.3 1.2,3.7 4.2,3.1 2,-0.4 3,-0.1 3.4,0.9 0.4,0.8 1,1.2 1.5,0.9 0.5,-0.3 0.9,0.3 1,1.3 0,1.1 0.3,1.3 0.6,0.5 0.3,-0.7 -0.9,-2.7 -2.6,-4.4 -1.7,-1.8 -3.1,-3.5 -3.1,-4 0,-1.2 2.3,-0.9 4.5,0.6 4.2,2.9 9.6,5.6 11.4,5.6 1,0 2.1,0.3 2.5,0.7 0.3,0.4 1.5,0.8 2.6,1 3.7,0.6 12,4.7 12,6 0,0.7 -0.7,1.3 -1.5,1.3 -4.2,0 0.5,4.6 5.8,5.5 2,0.4 3.7,1.1 3.7,1.6 0,0.5 0.5,0.9 1,0.9 1.9,0 1,-1.7 -1.7,-3 -6,-3 -8.6,-6.8 -3.8,-5.6 3,0.8 11.5,5.8 11.5,6.8 0,1.2 -7.8,8.8 -9,8.8 -1.6,0 -7,4.2 -6.5,5 0.4,0.6 -1.9,1.8 -4.6,2.4 -0.4,0 -1.5,1.1 -2.5,2.3 -2,2.2 -14.8,9.3 -16.9,9.3 -0.6,0 -3.1,1.8 -5.5,4 -2.4,2.2 -4.8,4 -5.3,4 -0.5,0 -4,2.2 -7.7,5 -3.7,2.7 -7.4,5 -8.3,5 -0.8,0 -1.8,0.7 -2.1,1.6 -0.3,0.8 -1.1,1.2 -1.7,0.8 -0.7,-0.4 -1.7,-0.1 -2.3,0.7 -0.6,0.8 -2.9,2.3 -5.1,3.3 -2.2,1.1 -4.2,2.2 -4.5,2.5 -0.8,1 -21,16.1 -21.6,16.1 -0.2,0 -1.3,0.8 -2.3,1.7 -3.5,3.2 -5,4.3 -5.8,4.3 -0.4,0 -2.2,1.5 -4,3.3 -1.8,1.7 -5.3,5.2 -7.9,7.7 -2.6,2.5 -7,6.9 -9.8,9.7 -2.9,2.9 -5.6,5.3 -6,5.3 -0.5,0 -2.4,1.2 -4.3,2.6 -1.9,1.4 -3.7,2.4 -4,2.1 -0.3,-0.3 -1.8,0.8 -3.4,2.4 -1.5,1.6 -3.4,2.9 -4.2,2.9 -0.7,0 -2.2,0.7 -3.3,1.5 -2.5,1.9 -5.4,1.9 -5.4,-0.1 0,-1.1 -0.5,-1.4 -1.6,-1 -0.9,0.3 -2,0.6 -2.5,0.6 -0.5,0 -0.8,1 -0.6,2.2 0.1,1.3 -0.4,2.3 -1.3,2.5 -1.8,0.4 -4.5,-8.6 -5.5,-18.2 -0.4,-3.3 -1,-6.5 -1.3,-7 -0.4,-0.6 -0.7,-1.5 -0.8,-2 -0.6,-3.4 -5.6,-23.4 -6.4,-25 -0.5,-1.1 -1.1,-3.8 -1.4,-6 -0.9,-7.5 -1.6,-10.5 -3,-13.3 -0.7,-1.5 -1.7,-6 -2,-10.1 -0.4,-4 -1.1,-8.1 -1.6,-9 -2.2,-4.5 -3.1,-7.2 -4.6,-13.6 -0.8,-3.9 -1.5,-7.9 -1.5,-9 0,-1 -0.4,-2.4 -0.9,-3 -0.9,-1.1 -3.5,-12.2 -4.7,-20 -0.2,-1.7 -0.8,-3.9 -1.3,-5 -1.6,-3.6 -5.7,-18.7 -9,-32.5 -1.8,-7.4 -4.6,-16.7 -6.3,-20.5 -1.7,-3.9 -3.4,-9 -3.8,-11.5 -0.4,-2.5 -1,-6 -1.4,-7.8 -0.8,-3.4 0,-4 3.3,-2.3 z m -8.4,1.4 c 0.8,0.7 1.6,2.8 1.9,4.7 1,6.5 2.4,10.8 4.6,13.9 1.3,1.8 2,3.9 1.7,4.9 -0.4,1.1 0.2,2.6 1.2,3.8 1.2,1.3 1.8,3.2 1.7,5.4 -0.1,1.9 0.6,6 1.7,9 2.5,7.3 6.8,23.7 6.8,26.1 0,1.1 0.7,2.2 1.5,2.5 0.9,0.4 1.5,1.1 1.4,1.8 -0.1,0.6 0.1,1.8 0.4,2.6 0.3,0.8 1.5,6.4 2.7,12.5 1.1,6 2.6,11.9 3.1,13.1 0.6,1.2 1,3 0.8,4 -0.1,1 0.3,3.1 0.9,4.5 0.5,1.4 1.4,4.8 1.8,7.5 0.4,2.7 1.1,5.2 1.6,5.5 0.5,0.3 1.6,4.4 2.4,9 0.8,4.6 2.5,12 3.8,16.4 1.3,4.4 3,10.7 3.7,14 0.7,3.3 1.6,6.2 1.9,6.5 0.7,0.6 6,22.8 6,25.2 0,0.9 0.4,1.9 0.9,2.2 0.5,0.3 0.8,3.1 0.7,6.2 -0.1,3 0.2,5.8 0.6,6 0.4,0.3 0.8,1.6 0.8,3 0,3.7 -2,3.4 -13.7,-1.7 -2.4,-1.1 -4.7,-1.9 -5.3,-1.9 -0.5,0 -2.4,-0.9 -4.2,-2 -1.8,-1.1 -4.3,-2 -5.5,-2 -1.2,0 -2.8,-0.8 -3.5,-1.8 -0.7,-0.9 -2.2,-1.9 -3.3,-2 -1.1,-0.2 -2.2,-0.7 -2.5,-1.1 -0.3,-0.4 -3.4,-1.8 -7,-3 -3.6,-1.3 -8.5,-3.4 -11,-4.6 -2.5,-1.3 -8.1,-4.2 -12.5,-6.4 -4.4,-2.2 -8.6,-4.1 -9.2,-4.1 -1.3,0 -22,-8.7 -27.6,-11.6 -1.6,-0.8 -3.6,-1.4 -4.4,-1.4 -0.9,0 -5.8,-2.2 -10.8,-4.9 -5,-2.8 -12.3,-6.2 -16,-7.6 -3.8,-1.4 -7.6,-3.1 -8.5,-3.9 -5.1,-4.3 -26,-14.6 -26,-12.9 0,0.4 -1,-0.3 -2.2,-1.4 -1.3,-1 -4.8,-3.1 -7.8,-4.6 -3,-1.4 -9.8,-4.6 -15,-7.1 -5.3,-2.5 -10.1,-4.6 -10.7,-4.6 -0.7,0 -2.7,-0.6 -4.5,-1.4 -1.8,-0.8 -5.3,-2.2 -7.8,-3.2 -2.5,-1 -7.6,-3.6 -11.5,-5.9 -6.7,-3.9 -17.3,-8.6 -22.5,-10 -3.2,-0.8 -14.6,-6.7 -22.8,-11.7 -3.4,-2.1 -7.1,-3.8 -8.2,-3.8 -1.1,0 -2,-0.5 -2,-1 0,-0.6 -0.8,-1 -1.8,-1 -3,0 -4.1,-1.9 -3.1,-5 0.8,-2.2 1.8,-2.9 5.2,-3.5 2.3,-0.4 4.6,-0.7 5,-0.6 0.5,0.1 2,-0.5 3.5,-1.3 1.5,-0.8 8.1,-2.9 14.7,-4.5 18.5,-4.7 25.7,-6.8 31.1,-9.2 2.7,-1.2 5.7,-2.1 6.8,-2 1,0.2 2.2,-0.1 2.5,-0.6 0.3,-0.5 4.4,-2 9.1,-3.2 10.4,-2.9 16.3,-4.8 21.5,-7.1 2.2,-1 7.6,-2.8 12,-4 4.4,-1.2 8.9,-3 10,-4 3,-2.7 8.7,-5.7 12.5,-6.5 1.9,-0.4 6.2,-2 9.5,-3.6 5.8,-2.8 13.2,-5.2 26,-8.5 3.3,-0.9 7.3,-2.2 9,-2.9 1.6,-0.8 3.3,-1.1 3.7,-0.9 0.4,0.3 0.8,0.1 0.8,-0.3 0,-0.5 1.4,-1 3,-1.1 4.5,-0.3 11.6,-2.9 20.3,-7.3 4.7,-2.4 9.4,-4 11.8,-4.1 2.2,-0.1 4.2,-0.5 4.5,-0.9 0.3,-0.5 2,-0.8 3.9,-0.7 1.9,0.1 3.8,-0.2 4.2,-0.5 1.1,-1.1 4.4,-0.8 5.7,0.6 z m -236.8,84.9 c 3.8,1.8 7.4,3.3 7.9,3.4 1.8,0.2 4.9,1.7 11.6,5.5 3.6,2.1 7.2,3.9 8,4.1 0.7,0.2 2,0.9 2.8,1.6 0.7,0.7 2,1.1 2.7,0.8 0.7,-0.3 1.9,0 2.6,0.7 0.7,0.7 4.5,2.3 8.3,3.5 3.9,1.3 9.3,3.6 12,5.2 7.1,4.1 16.7,9 17.6,9 0.4,0 4.2,1.6 8.3,3.5 4.2,1.9 8.2,3.5 9,3.5 1.2,0 22.3,10.1 27.6,13.1 0.8,0.5 2.6,1.4 4,2 9.9,4.5 12.9,6.1 13.2,6.8 0.3,0.9 21.7,11.7 27.8,14.1 1.9,0.8 5.6,2.6 8.1,4.1 2.5,1.5 5.7,3 7,3.4 1.3,0.4 5.6,2.2 9.4,4.1 3.9,1.8 8.6,3.6 10.5,3.9 1.9,0.3 3.9,1 4.5,1.4 1,0.8 5.6,2.8 15.7,6.8 2.7,1 4.8,2.2 4.8,2.6 0,0.5 0.5,0.5 1.1,0.1 0.6,-0.3 1.4,-0.2 1.8,0.3 0.7,1.3 20.3,10.7 28.5,13.8 3.4,1.3 10.1,4.2 14.9,6.5 4.9,2.3 10,4.4 11.5,4.6 1.5,0.3 2.9,0.8 3.2,1.2 0.3,0.4 1.9,1.4 3.5,2.2 3.5,1.8 4.9,7 1.9,7 -1.8,0 -4.3,2.7 -4.4,4.6 0,1.8 5.3,1.3 7.9,-0.8 1.4,-1 2.8,-1.5 3.3,-1 1,1 1.3,18.7 0.3,20.2 -0.3,0.5 -0.8,8.5 -1,17.7 -0.2,9.3 -0.8,19.7 -1.3,23.3 -0.5,3.6 -0.8,8.3 -0.6,10.5 0.4,6.9 1.6,49.9 1.5,53 0,1.6 -0.2,14.9 -0.4,29.5 -0.2,24.5 -0.4,26.5 -2,26.8 -1.5,0.3 -11.1,-4.1 -21.5,-9.8 -2.6,-1.4 -8.4,-3.8 -11.2,-4.5 -1.4,-0.4 -3.2,-1.3 -4,-2 -1.3,-1.1 -18,-9.4 -22,-10.9 -1.7,-0.7 -2.9,-1.4 -10.8,-6.9 -3.1,-2 -6.3,-3.7 -7.3,-3.7 -0.9,0 -1.9,-0.7 -2.3,-1.5 -0.4,-1.1 -14.4,-8.5 -16.2,-8.5 -0.2,0 -6.3,-2.9 -13.6,-6.4 -7.3,-3.5 -15,-7 -17,-7.7 -2.1,-0.7 -3.8,-1.6 -3.8,-2 0,-0.4 -1.5,-1.2 -3.2,-1.9 -4,-1.6 -15.9,-7.1 -24.8,-11.5 -28.5,-14 -54.6,-27.5 -60,-31 -5.8,-3.7 -8.6,-5.3 -15.4,-8.8 -1.1,-0.5 -3.9,-2 -6.2,-3.3 -2.4,-1.3 -5,-2.4 -5.8,-2.4 -0.8,0 -3.5,-1.5 -6,-3.4 -2.4,-1.9 -5.3,-3.5 -6.3,-3.5 -1.9,0 -3.5,-0.3 -6.8,-1.5 -6.1,-2.3 -10.3,-4.2 -12.7,-5.8 -1.4,-1 -4.1,-2.1 -6,-2.4 -3,-0.5 -6.5,-1.8 -12.8,-4.7 -1.4,-0.6 -5.3,-2.9 -8.7,-5 -5.3,-3.4 -6.2,-4.3 -5.7,-6.2 0.3,-1.3 0.1,-2.6 -0.5,-2.9 -1.2,-0.8 -0.4,-26.6 1,-30.3 0.5,-1.3 0.9,-6.2 0.8,-10.8 0,-4.6 0.2,-8.8 0.4,-9.3 1.2,-1.7 1.7,-23.5 0.7,-24.7 -1.1,-1.3 0.5,-18.9 1.8,-21 0.4,-0.6 0.7,-14.6 0.7,-31.2 0.1,-19.7 0.5,-30.6 1.2,-31.5 0.6,-0.7 0.7,-2.1 0.2,-3.3 -1.2,-3.1 -1.1,-3.5 1.4,-4.5 1.2,-0.5 2.3,-0.9 2.3,-0.9 0.1,-0.1 3.2,1.4 7,3.1 z m 475.9,16.5 c 1.4,1.4 1.6,2.7 1,7.7 -0.5,3.4 -0.8,6.9 -0.9,7.8 0,1 -0.3,1.8 -0.6,1.8 -0.3,0 -0.6,2.1 -0.8,4.7 -0.1,2.5 -0.6,5.1 -1.1,5.7 -0.5,0.6 -0.5,3.6 0,6.6 1.2,8.9 1,16.3 -0.7,22.1 -2.2,7.2 -2.5,30.6 -0.6,54.4 0.7,9.9 1.1,20 0.8,22.5 -0.3,2.5 -0.8,7.2 -1.1,10.5 -0.3,3.3 -1.1,10.3 -1.7,15.5 -0.6,5.2 -1.1,12.1 -1.1,15.3 l 0.1,5.9 -9.9,6.4 c -5.4,3.5 -9.8,7 -9.6,7.6 0.1,0.7 -0.3,1.2 -0.8,1.3 -0.6,0 -2.9,1.8 -5.3,3.9 -2.3,2.1 -5.2,4.6 -6.4,5.5 -1.3,0.8 -3.9,3.1 -5.9,5.1 -5,4.8 -8.9,8 -10,8 -1.3,0 -5.9,4.2 -5.9,5.4 0,0.6 -1.9,2.3 -4.2,3.8 -7.7,4.8 -19.3,13.1 -19.6,13.9 -0.2,0.5 -0.9,0.9 -1.5,0.9 -0.7,0 -2.1,1.4 -3.2,3 -1.1,1.6 -2.4,3 -2.8,3 -1.5,0 -21.2,13.4 -26,17.6 -2.6,2.3 -7.3,5.9 -10.5,8 -3.1,2.1 -6,4.2 -6.4,4.8 -0.4,0.6 -0.8,0.8 -0.8,0.4 0,-0.4 -2.8,1.1 -6.2,3.3 -3.5,2.1 -7.3,4.3 -8.6,4.9 -1.2,0.5 -2.5,1.7 -2.8,2.5 -0.4,0.8 -1.3,1.5 -2,1.5 -1.4,0 -3.4,1.3 -15,9.7 -2.4,1.8 -4.7,3.3 -5,3.3 -0.7,0 0,-4.7 1.1,-7.3 0.5,-1.3 0.2,-1.7 -1.4,-1.7 -2.1,0 -2.2,-0.2 -1.5,-13.8 1.1,-22 0.4,-69.9 -1.1,-74 -0.2,-0.6 0.1,-1.2 0.7,-1.2 0.7,0 0.8,-1.3 0.3,-4.3 -1.1,-5.5 -1.3,-13.7 -0.3,-13.7 0.4,0 0.7,-3.5 0.7,-7.8 -0.1,-9 0.8,-30.5 1.7,-41 0.4,-4.8 0.2,-7.7 -0.6,-8.6 -0.7,-1 -0.8,-1.6 0,-2.1 0.5,-0.3 1,-1.5 1,-2.5 0,-1.1 0.9,-2.4 2.1,-3.1 1.4,-0.7 1.9,-1.7 1.6,-3.1 -0.6,-2.3 0.1,-4.8 1.4,-4.8 0.5,0 3.5,-1.9 6.6,-4.3 3.2,-2.4 9,-6.2 12.8,-8.5 7.9,-4.7 12.5,-8.5 12.5,-10.4 0.1,-1.8 2.5,-4.8 3.9,-4.8 0.6,0 1.6,-0.9 2.3,-2 0.7,-1.1 1.7,-2 2.3,-2 0.6,0 2.5,-1.6 4.2,-3.5 1.8,-1.9 3.5,-3.5 3.9,-3.5 0.3,0 2,-1.1 3.8,-2.5 1.7,-1.4 6.9,-5.3 11.6,-8.7 4.7,-3.4 11,-8 14,-10.3 3,-2.3 6.6,-4.6 8,-5 2.5,-0.7 12.1,-6.3 13,-7.6 0.3,-0.4 2.4,-1.5 4.8,-2.4 2.4,-1 4.9,-2.9 5.9,-4.6 0.9,-1.5 2,-2.6 2.4,-2.3 0.4,0.2 1.3,-0.2 2.1,-0.9 1.7,-1.6 10.2,-6.6 15.1,-8.9 2,-0.9 3.7,-2.1 3.7,-2.6 0,-0.5 1.8,-1.4 3.9,-2.1 2.3,-0.6 5.3,-2.7 7.2,-4.9 1.8,-2 3.5,-3.6 3.7,-3.4 0.2,0.2 1.1,-0.5 2,-1.5 1.7,-1.8 4.3,-3.4 9.5,-6.1 1.5,-0.7 2.7,-2 2.7,-2.8 0,-2 5.4,-1.8 7.5,0.3 z" />
  <path
     style="fill:#ffa3a4;fill-opacity:1;fill-rule:nonzero;stroke:#c42836;stroke-width:0.95699999999999996;stroke-linecap:square;stroke-linejoin:round;stroke-miterlimit:4;stroke-opacity:1;stroke-dasharray:none;stroke-dashoffset:0"
     d="m 553.4708,474.51109 c -7.42744,-3.06268 -15.04328,-6.06106 -16.92409,-6.66307 -1.88082,-0.602 -5.19555,-2.18442 -7.36605,-3.51648 -2.17052,-1.33205 -8.91847,-4.47079 -14.99546,-6.97495 -6.07699,-2.50416 -16.29739,-7.17396 -22.71199,-10.37732 -6.4146,-3.20334 -16.91122,-7.91198 -23.32582,-10.4636 -6.41461,-2.55164 -15.5774,-6.42006 -20.36177,-8.59648 -4.78436,-2.17643 -10.86135,-4.65949 -13.50442,-5.51791 -2.64306,-0.85842 -10.22009,-4.2651 -16.83784,-7.57038 -6.61774,-3.30528 -14.77088,-7.08908 -18.11808,-8.40842 -3.34721,-1.31935 -10.98179,-5.35036 -16.96574,-8.95781 -5.98394,-3.60744 -14.12819,-7.8073 -18.09832,-9.33301 -3.97013,-1.52572 -9.15201,-3.84729 -11.51528,-5.15904 -12.44905,-6.90992 -26.72287,-13.65921 -39.834,-18.83526 -8.06667,-3.18457 -21.74627,-9.33774 -30.39911,-13.67368 -8.65284,-4.33595 -19.45514,-9.28334 -24.0051,-10.99419 -6.62819,-2.4923 -23.15306,-10.71147 -38.2009,-19.00042 -1.09522,-0.60329 -4.61546,-2.23498 -7.82276,-3.62598 -4.05129,-1.75704 -5.83146,-3.24802 -5.83146,-4.88415 0,-2.99578 4.48953,-6.1773 8.71696,-6.1773 1.79297,0 5.30429,-0.85419 7.80296,-1.8982 2.49866,-1.04401 12.37218,-4.02322 21.94115,-6.62048 38.76763,-10.52251 108.48261,-33.77563 115.88059,-38.65146 4.38277,-2.88858 41.70752,-17.89664 44.50858,-17.89664 0.7184,0 7.23485,-1.89935 14.48099,-4.22078 7.24614,-2.32142 16.76576,-5.13259 21.1547,-6.24702 4.38893,-1.11444 13.50442,-4.41318 20.25663,-7.33054 12.73937,-5.50417 29.58774,-9.65024 36.5009,-8.98219 3.7953,0.36676 4.09269,0.77385 6.11131,8.36541 1.16703,4.38894 3.16884,10.46593 4.44845,13.50442 3.67646,8.72984 5.27009,13.65985 6.54797,20.25664 0.65399,3.37611 2.75252,11.66291 4.6634,18.41512 1.91086,6.75222 4.15355,15.31525 4.98375,19.02897 0.83021,3.71371 2.18988,7.58089 3.02151,8.59372 1.44928,1.76507 4.56594,14.53644 11.17088,45.77573 1.68268,7.95851 3.64495,15.96909 4.36061,17.80129 0.71565,1.83219 3.18257,11.34185 5.48203,21.13256 2.29947,9.7907 6.20181,24.98318 8.67188,33.76106 5.72266,20.33663 8.92048,34.56686 10.20773,45.42397 0.56038,4.72655 1.13657,9.14618 1.2804,9.8214 0.46459,2.18104 -0.005,4.29728 -0.95001,4.28092 -0.50642,-0.009 -6.99775,-2.52178 -14.42518,-5.58445 l 0,0 z"
     id="path2990"
     inkscape:connector-curvature="0"
     transform="scale(0.8,0.8)" />
  <path
     style="fill:#ffa3a4;fill-opacity:1;fill-rule:nonzero;stroke:#c42836;stroke-width:0;stroke-linecap:square;stroke-linejoin:round;stroke-miterlimit:4;stroke-opacity:1;stroke-dasharray:none;stroke-dashoffset:0"
     d="m 549.78777,472.24066 c -8.77787,-3.59365 -29.21866,-12.61209 -45.42397,-20.04098 -16.20531,-7.42888 -42.44687,-19.04113 -58.31456,-25.80499 -29.97977,-12.77934 -34.1859,-14.76936 -82.86807,-39.20678 -16.20531,-8.13474 -33.6076,-16.5919 -38.67176,-18.79372 -29.80885,-12.96041 -61.89993,-27.70966 -87.47184,-40.20258 -22.39234,-10.93957 -29.15728,-14.77063 -29.15728,-16.51206 0,-2.92108 -0.4723,-2.74923 39.89943,-14.5178 61.73815,-17.997 86.86098,-26.71732 130.72419,-45.37536 9.77794,-4.15923 29.05571,-10.88649 42.83951,-14.94946 13.78378,-4.06298 30.09161,-9.32011 36.23961,-11.68253 18.64135,-7.16309 26.7664,-9.36041 35.07814,-9.48646 l 7.94017,-0.12042 5.32392,14.7321 c 2.92817,8.10266 8.05773,25.22873 11.39903,38.05793 3.34131,12.8292 7.97083,29.40282 10.28782,36.83025 2.31699,7.42743 6.23247,22.61991 8.70108,33.76106 2.4686,11.14115 9.43358,39.43775 15.47773,62.88133 13.88849,53.86954 18.40053,77.228 14.87738,77.019 -0.50641,-0.0301 -8.10265,-2.99488 -16.88053,-6.58853 z"
     id="path3760"
     inkscape:connector-curvature="0"
     transform="scale(0.8,0.8)" />
  <path
     style="fill:#ff8284;fill-opacity:1;fill-rule:nonzero;stroke:#c42836;stroke-width:0;stroke-linecap:square;stroke-linejoin:round;stroke-miterlimit:4;stroke-opacity:1;stroke-dasharray:none;stroke-dashoffset:0"
     d="m 575.19698,478.31055 c -0.75897,-1.66574 -2.22774,-7.91506 -3.26396,-13.88738 -1.03621,-5.9723 -3.8203,-18.28267 -6.18686,-27.35634 -2.36655,-9.07367 -5.16934,-20.64099 -6.22842,-25.70514 -1.05907,-5.06416 -2.95619,-13.07474 -4.21582,-17.80129 -1.25962,-4.72655 -2.6687,-11.6075 -3.13129,-15.29099 -0.46258,-3.68349 -2.12875,-10.11834 -3.7026,-14.29966 -1.57384,-4.18133 -3.51716,-11.38795 -4.31848,-16.01473 -0.80132,-4.62677 -2.15582,-10.40427 -3.01,-12.83889 -0.85418,-2.43462 -2.47667,-9.06406 -3.60553,-14.7321 -1.12887,-5.66804 -3.62551,-15.55384 -5.5481,-21.96844 -1.92258,-6.41461 -5.73462,-20.22595 -8.47119,-30.69188 -2.73656,-10.46593 -6.86522,-24.27903 -9.17479,-30.69578 -2.30956,-6.41675 -4.59,-14.79459 -5.06763,-18.61742 l -0.86842,-6.9506 14.55357,5.29776 c 8.00446,2.91377 22.91057,8.94368 33.12469,13.3998 10.21412,4.45612 19.16718,8.10204 19.89569,8.10204 0.72851,0 4.07371,1.62096 7.43378,3.60212 6.0768,3.58301 22.45262,11.12998 24.15042,11.12998 1.04106,0 19.28037,7.53249 28.16298,11.63078 3.37611,1.55768 8.62442,3.94828 11.66291,5.31244 3.0385,1.36416 10.77285,4.95069 17.18745,7.97005 6.41461,3.01937 15.25387,6.9998 19.6428,8.8454 4.38894,1.8456 11.69517,5.22531 16.23605,7.51047 4.54089,2.28516 9.09863,4.15484 10.12832,4.15484 1.02969,0 1.87216,0.48065 1.87216,1.06812 0,0.58747 2.53634,1.77826 5.6363,2.64619 6.04721,1.69312 7.79996,3.84454 5.44443,6.68278 -2.13644,2.57426 -0.46864,4.33501 4.10617,4.33501 2.32139,0 5.11769,1.04788 6.67976,2.50317 3.70546,3.45217 3.37623,0.69218 -0.52806,-4.4266 -3.82016,-5.00848 -2.92311,-5.23784 4.31133,-1.10237 2.96631,1.69566 9.36667,4.41683 14.22304,6.04706 10.29233,3.45502 17.82775,6.8888 17.82775,8.12384 0,0.47793 -0.90387,1.2158 -2.00862,1.63973 -1.83639,0.70469 -1.82368,0.97515 0.14845,3.15432 1.18639,1.31095 4.16196,3.02879 6.6124,3.81743 2.45043,0.78863 5.15925,1.99307 6.0196,2.6765 0.86034,0.68345 1.96525,0.8317 2.45535,0.32945 0.49009,-0.50226 -0.38551,-1.82401 -1.94581,-2.93722 -1.56029,-1.11321 -4.32256,-3.29816 -6.13838,-4.85544 l -3.30148,-2.83142 3.06919,0.81047 c 4.82763,1.27481 13.50443,6.63744 13.50443,8.34631 0,2.09703 -7.05654,8.65645 -11.98355,11.13933 -2.20202,1.10967 -4.68283,3.1051 -5.51293,4.43431 -0.8301,1.3292 -2.08182,2.41673 -2.7816,2.41673 -0.69977,0 -4.20693,2.20502 -7.79368,4.90006 -3.58676,2.69503 -10.20134,6.64875 -14.69906,8.78602 -4.49774,2.13728 -10.38751,5.61268 -13.08839,7.72313 -2.70089,2.11044 -9.05411,6.53754 -14.11827,9.83801 -5.06416,3.30046 -10.70444,7.01174 -12.53396,8.24729 -1.82952,1.23553 -3.86451,2.24644 -4.5222,2.24644 -1.9907,0 -13.48618,7.43324 -27.12732,17.54114 -7.09687,5.25868 -15.31682,11.33567 -18.26655,13.50442 -2.94974,2.16874 -12.98907,11.19807 -22.30963,20.06516 -9.48797,9.02635 -20.09537,17.90116 -24.10105,20.16444 -3.93502,2.22336 -8.60042,5.22954 -10.36758,6.68042 -5.56099,4.56573 -10.57912,6.11576 -13.95325,4.30998 -3.6662,-1.96209 -6.77341,-0.85861 -6.77341,2.40549 0,3.41069 -1.76872,3.13585 -3.44115,-0.53474 l 0,0 z"
     id="path3762"
     inkscape:connector-curvature="0"
     transform="scale(0.8,0.8)" />
  <path
     style="fill:#fdd1d2;fill-opacity:1;fill-rule:nonzero;stroke:#c42836;stroke-width:0;stroke-linecap:square;stroke-linejoin:round;stroke-miterlimit:4;stroke-opacity:1;stroke-dasharray:none;stroke-dashoffset:0"
     d="m 233.66146,292.27721 c 0,-0.67522 0.51563,-1.22767 1.14585,-1.22767 0.63021,0 3.8799,-2.66306 7.22152,-5.9179 6.45413,-6.28652 23.06266,-16.33285 35.99319,-21.77192 11.25547,-4.73448 26.28802,-12.4237 33.07814,-16.91963 3.22603,-2.13604 10.07482,-6.36976 15.21952,-9.40825 5.1447,-3.0385 11.67601,-7.21933 14.51402,-9.29075 2.83801,-2.07141 15.65664,-9.16141 28.48585,-15.75556 12.8292,-6.59414 24.1545,-12.71202 25.16734,-13.59529 3.53393,-3.08188 18.00626,-8.00997 23.42214,-7.97567 3.26839,0.0207 8.56316,1.43831 13.30717,3.56285 6.16722,2.76191 8.46285,3.26243 10.56666,2.30387 1.93845,-0.88322 6.24465,-0.52455 15.44687,1.28658 7.01754,1.38115 17.73125,3.14708 23.80824,3.92429 10.28696,1.31564 14.27207,2.64787 12.68076,4.23918 -0.36299,0.36299 -7.23183,2.5567 -15.26409,4.8749 -8.03226,2.31821 -21.23356,6.77537 -29.33622,9.90482 -8.10265,3.12944 -18.59927,6.70005 -23.32582,7.93468 -4.72655,1.23463 -10.12828,2.83504 -12.00385,3.55648 -1.87557,0.72143 -7.95256,2.46855 -13.50443,3.88249 -5.55186,1.41393 -11.75166,3.57979 -13.77732,4.81301 -2.02567,1.23322 -8.65511,4.18528 -14.7321,6.56012 -6.07699,2.37485 -16.57361,6.6152 -23.32583,9.423 -6.75221,2.80779 -18.62996,6.94402 -26.39501,9.1916 -7.76504,2.24759 -17.15676,5.30115 -20.87047,6.78569 -3.71372,1.48454 -11.19809,4.00102 -16.63193,5.59219 -5.43384,1.59117 -13.13107,4.33094 -17.10495,6.08838 -7.35929,3.25463 -27.73966,9.15747 -31.63682,9.16309 -1.18163,0.002 -2.14843,-0.54936 -2.14843,-1.22458 z"
     id="path3764"
     inkscape:connector-curvature="0"
     transform="scale(0.8,0.8)" />
  <path
     style="fill:#e8e8e8;fill-opacity:1;fill-rule:nonzero;stroke:#c42836;stroke-width:0;stroke-linecap:square;stroke-linejoin:round;stroke-miterlimit:4;stroke-opacity:1;stroke-dasharray:none;stroke-dashoffset:0"
     d="m 553.42036,715.08878 c -38.03704,-17.98384 -58.0161,-27.90534 -65.01634,-32.28676 -17.42379,-10.90547 -24.19184,-14.45911 -50.29006,-26.40527 -15.1587,-6.93872 -28.2757,-13.14488 -29.14888,-13.79147 -0.87319,-0.64659 -6.83592,-3.58612 -13.25052,-6.53231 -21.27396,-9.77097 -81.41981,-40.32188 -95.75865,-48.64032 -7.76504,-4.50477 -19.36657,-10.75462 -25.78117,-13.88857 -6.4146,-3.13393 -14.14896,-7.15319 -17.18745,-8.93169 -3.0385,-1.77849 -7.45813,-3.62866 -9.8214,-4.11148 -2.36328,-0.48282 -9.54518,-3.2557 -15.95978,-6.16194 -6.4146,-2.90625 -13.87273,-5.8743 -16.57361,-6.59569 -5.96453,-1.59307 -20.16339,-8.79859 -25.78011,-13.08267 -3.8256,-2.91794 -4.1609,-3.7601 -4.98086,-12.51029 -0.58295,-6.22093 -0.15496,-16.43409 1.27034,-30.31407 1.18221,-11.51278 2.34287,-33.08631 2.57924,-47.94118 0.23636,-14.85486 0.9829,-30.87602 1.65896,-35.60257 0.67607,-4.72655 1.59466,-24.61489 2.04131,-44.1963 1.09548,-48.02574 0.8729,-44.8485 3.23447,-46.1701 2.33518,-1.30683 20.35593,5.91569 40.23329,16.12505 6.4146,3.29466 16.3049,7.7129 21.97844,9.81833 5.67354,2.10542 17.82752,7.57283 27.00885,12.14978 9.18132,4.57696 22.77031,10.71186 30.19774,13.63312 7.42744,2.92126 26.48709,11.92586 42.35479,20.01024 59.84951,30.49249 92.9001,46.25257 96.99665,46.25257 2.00733,0 32.10984,12.97783 44.18597,19.04952 5.73939,2.88566 20.93186,9.74068 33.76107,15.23339 34.23276,14.6564 36.75536,16.01478 37.21871,20.0417 0.27411,2.38228 -0.16492,3.37611 -1.49139,3.37611 -1.8557,0 -4.42161,3.51534 -4.42161,6.05767 0,1.99907 6.46476,1.557 9.62762,-0.65836 1.54436,-1.0817 3.18652,-1.58341 3.64928,-1.11492 1.26244,1.27812 0.70995,25.81993 -1.34073,59.55471 -1.41024,23.19909 -1.57925,37.51853 -0.73896,62.61142 1.007,30.07124 0.46338,93.96401 -0.8539,100.36243 -0.31278,1.51925 -0.9952,2.76227 -1.5165,2.76227 -0.52128,0 -8.65945,-3.64606 -18.08481,-8.10235 l 0,0 z"
     id="path3766"
     inkscape:connector-curvature="0"
     transform="scale(0.8,0.8)" />
  <path
     style="fill:#cfcfcf;fill-opacity:1;fill-rule:nonzero;stroke:#c42836;stroke-width:0;stroke-linecap:square;stroke-linejoin:round;stroke-miterlimit:4;stroke-opacity:1;stroke-dasharray:none;stroke-dashoffset:0"
     d="m 582.935,714.59741 c 0.66159,-3.91594 0.4565,-4.9107 -1.01245,-4.9107 -1.60358,0 -1.86689,-6.31878 -2.03354,-48.80008 -0.10529,-26.84005 -0.35386,-55.1533 -0.55238,-62.91835 -0.19852,-7.76504 0.10057,-21.57638 0.66463,-30.69187 0.56406,-9.11549 1.33194,-28.15712 1.7064,-42.31474 0.57073,-21.57844 1.02282,-26.24394 2.7956,-28.85036 1.16312,-1.71008 2.39099,-4.62234 2.7286,-6.47168 0.49909,-2.73386 4.28587,-5.83213 20.25664,-16.57361 15.90474,-10.69707 20.05348,-14.08728 21.80089,-17.81495 1.18695,-2.53208 2.66674,-4.60379 3.28841,-4.60379 0.62168,0 1.90554,-0.77521 2.85303,-1.7227 8.55945,-8.55945 51.36156,-40.14319 63.51945,-46.8711 5.06416,-2.8024 12.25197,-6.79646 15.9729,-8.87569 3.72093,-2.07923 8.38203,-5.46789 10.35801,-7.53036 1.97596,-2.06247 4.08033,-3.74994 4.67638,-3.74994 0.59604,0 3.39306,-1.58305 6.2156,-3.51788 2.82255,-1.93483 7.89417,-5.0096 11.27028,-6.83283 12.46986,-6.73419 17.54313,-10.0302 23.35841,-15.17554 3.27567,-2.89828 9.10906,-7.18513 12.96311,-9.52634 3.85404,-2.34121 7.32329,-5.08008 7.70944,-6.08639 0.92232,-2.40352 4.4365,-2.32488 8.01169,0.17928 2.65068,1.85661 2.80683,2.578 2.05937,9.51448 -0.44482,4.12805 -1.65774,11.64896 -2.69536,16.71312 -1.35919,6.63357 -1.6732,12.63955 -1.12322,21.48431 0.55816,8.97639 0.23397,14.91703 -1.20595,22.09815 -2.28751,11.40819 -2.56128,44.02157 -0.62121,74.00234 1.04103,16.08742 0.86946,21.85342 -1.20543,40.51328 -1.33057,11.96596 -2.42405,26.00946 -2.42996,31.20775 l -0.011,9.45146 -9.26649,6.22507 c -5.09657,3.42379 -17.0046,12.98199 -26.46229,21.24042 -9.45769,8.25845 -19.93683,16.83279 -23.28698,19.05411 -3.35016,2.22132 -6.77271,5.16592 -7.6057,6.54357 -0.83297,1.37763 -5.93413,5.58798 -11.3359,9.35632 -15.41308,10.75232 -23.15258,16.67822 -25.40356,19.45071 -1.14275,1.40751 -5.56238,4.60208 -9.8214,7.09906 -4.25872,2.49697 -16.58263,11.20381 -27.38617,19.34854 -10.80354,8.14471 -20.47148,15.14294 -21.48432,15.55159 -4.43494,1.7894 -20.3471,11.74284 -21.23839,13.28512 -0.53997,0.93434 -1.64077,1.69882 -2.44623,1.69882 -0.80546,0 -6.2557,3.31472 -12.11164,7.36605 -5.85594,4.05132 -11.0188,7.36605 -11.47302,7.36605 -0.45423,0 -0.45251,-2.20982 0.004,-4.9107 l 0,0 z"
     id="path3768"
     inkscape:connector-curvature="0"
     transform="scale(0.8,0.8)" />
</svg>
