<?xml version="1.0" encoding="UTF-8" standalone="no"?>
<svg
   xmlns:dc="http://purl.org/dc/elements/1.1/"
   xmlns:cc="http://creativecommons.org/ns#"
   xmlns:rdf="http://www.w3.org/1999/02/22-rdf-syntax-ns#"
   xmlns:svg="http://www.w3.org/2000/svg"
   xmlns="http://www.w3.org/2000/svg"
   xmlns:xlink="http://www.w3.org/1999/xlink"
   xmlns:sodipodi="http://sodipodi.sourceforge.net/DTD/sodipodi-0.dtd"
   xmlns:inkscape="http://www.inkscape.org/namespaces/inkscape"
   version="1.0"
   width="784.000000pt"
   height="701.000000pt"
   viewBox="0 0 784.000000 701.000000"
   preserveAspectRatio="xMidYMid meet"
   id="svg2"
   inkscape:version="0.48.4 r9939"
   sodipodi:docname="Roof5_0.svg">
  <defs
     id="defs16">
    <linearGradient
       id="linearGradient3806">
      <stop
         style="stop-color:#ff8284;stop-opacity:1;"
         offset="0"
         id="stop3808" />
      <stop
         style="stop-color:#fdd1d2;stop-opacity:1;"
         offset="1"
         id="stop3810" />
    </linearGradient>
    <linearGradient
       inkscape:collect="always"
       xlink:href="#linearGradient3806"
       id="linearGradient3812"
       x1="673.57593"
       y1="383.13223"
       x2="485.28409"
       y2="112.91946"
       gradientUnits="userSpaceOnUse" />
  </defs>
  <sodipodi:namedview
     pagecolor="#ffffff"
     bordercolor="#666666"
     borderopacity="1"
     objecttolerance="10"
     gridtolerance="10"
     guidetolerance="10"
     inkscape:pageopacity="0"
     inkscape:pageshadow="2"
     inkscape:window-width="1116"
     inkscape:window-height="1086"
     id="namedview14"
     showgrid="false"
     inkscape:zoom="0.94"
     inkscape:cx="338.0089"
     inkscape:cy="372.27856"
     inkscape:window-x="546"
     inkscape:window-y="15"
     inkscape:window-maximized="0"
     inkscape:current-layer="svg2" />
  <metadata
     id="metadata4">
Created by potrace 1.14, written by Peter Selinger 2001-2017
<rdf:RDF>
  <cc:Work
     rdf:about="">
    <dc:format>image/svg+xml</dc:format>
    <dc:type
       rdf:resource="http://purl.org/dc/dcmitype/StillImage" />
    <dc:title></dc:title>
  </cc:Work>
</rdf:RDF>
</metadata>
  <g
     id="g2999"
     style="fill:#cb3c32;fill-opacity:1">
    <g
       id="g6"
       stroke="none"
       fill="#000000"
       transform="translate(0.000000,701.000000) scale(0.100000,-0.100000)"
       style="fill:#cb3c32;fill-opacity:1">
      <path
         id="path8"
         d="M5199 6576 c-2 -3 -53 -7 -111 -10 -102 -5 -168 -21 -182 -45 -4 -6 -23 -11 -42 -11 -19 0 -49 -8 -67 -17 -18 -9 -45 -18 -60 -20 -29 -3 -82 -27 -107 -48 -8 -7 -49 -25 -90 -39 -41 -15 -89 -33 -107 -41 -17 -8 -36 -15 -41 -15 -5 0 -43 -16 -83 -36 -88 -43 -109 -52 -213 -94 -44 -18 -87 -36 -95 -41 -9 -4 -45 -18 -81 -29 -83 -28 -220 -88 -240 -105 -9 -8 -49 -28 -90 -45 -41 -17 -88 -37 -105 -45 -16 -7 -50 -20 -75 -28 -55 -19 -141 -56 -235 -102 -89 -44 -236 -105 -252 -105 -7 0 -29 -9 -49 -21 -20 -11 -79 -31 -131 -45 -52 -13 -125 -40 -161 -58 -68 -35 -158 -71 -247 -101 -27 -9 -54 -20 -60 -25 -19 -16 -126 -49 -181 -56 -45 -5 -57 -11 -64 -29 -5 -12 -24 -29 -43 -39 -55 -25 -169 -157 -212 -244 -21 -42 -50 -102 -66 -132 -40 -80 -56 -127 -113 -328 -8 -29 -18 -87 -21 -128 -6 -89 -20 -156 -42 -201 -11 -24 -14 -51 -10 -101 3 -37 1 -110 -4 -162 -5 -52 -12 -131 -15 -175 -7 -90 -7 -612 0 -721 2 -39 0 -90 -4 -115 -5 -24 -10 -91 -11 -149 -2 -58 -9 -130 -17 -160 -10 -38 -12 -84 -8 -150 8 -130 6 -278 -4 -305 -12 -30 6 -53 45 -57 24 -2 30 -7 28 -25 -3 -24 11 -31 23 -12 7 13 55 3 69 -14 6 -7 30 -23 54 -36 24 -13 73 -46 109 -73 60 -44 66 -47 78 -30 12 16 13 15 8 -4 -5 -18 5 -28 58 -59 73 -44 147 -96 200 -139 68 -57 102 -81 110 -79 4 2 8 -1 8 -5 0 -5 21 -23 46 -41 25 -18 71 -56 102 -83 31 -28 93 -74 137 -103 44 -29 103 -74 130 -99 51 -48 132 -96 160 -96 9 0 29 -13 45 -29 16 -16 36 -31 45 -34 8 -4 15 -13 15 -21 0 -14 79 -86 95 -86 5 0 15 -7 24 -15 38 -36 117 -95 127 -95 6 0 60 -39 120 -86 60 -48 132 -102 159 -120 87 -58 100 -68 112 -85 19 -25 79 -83 100 -95 17 -11 17 -12 0 -31 -14 -16 -15 -22 -5 -31 17 -13 49 3 78 40 12 16 26 28 31 28 15 0 50 40 44 50 -4 6 1 10 10 10 14 0 93 46 105 61 7 9 83 49 93 49 22 0 163 108 247 190 82 80 185 160 205 160 19 0 135 66 135 77 0 7 7 10 14 7 17 -6 65 25 66 42 0 7 8 11 18 10 10 0 16 5 14 14 -2 8 0 12 4 8 4 -4 34 17 67 48 78 72 120 98 204 125 82 27 96 35 195 116 42 35 87 69 100 76 88 46 179 113 204 148 38 55 101 109 171 147 32 17 88 61 124 99 50 51 89 79 155 113 92 46 209 143 200 167 -3 6 1 10 7 7 7 -2 22 4 33 15 12 10 36 26 53 36 l33 17 -7 -30 c-8 -38 9 -50 36 -26 12 10 19 30 19 51 0 26 5 36 20 40 11 3 20 8 20 12 0 4 16 15 35 24 23 11 35 24 35 37 0 34 -57 20 -92 -24 -18 -20 -18 -20 -13 34 2 30 7 72 11 93 5 26 2 42 -8 55 -12 13 -14 32 -9 80 4 34 4 62 1 62 -3 0 -5 29 -5 65 0 45 -4 65 -12 65 -7 0 -13 5 -13 11 0 5 3 8 8 6 7 -5 16 230 17 456 0 70 2 127 6 127 6 0 6 -22 11 510 2 286 6 411 15 425 7 13 10 52 8 105 -12 240 -18 326 -26 336 -5 6 -4 15 3 22 8 8 8 15 0 24 -6 8 -13 36 -16 63 -10 105 -19 154 -27 149 -9 -5 -14 19 -9 41 1 6 -2 6 -7 2 -4 -5 -12 18 -18 50 -5 32 -14 58 -20 58 -10 -1 -24 32 -51 120 -9 28 -20 54 -25 60 -5 5 -9 22 -9 37 0 16 -4 36 -9 46 -5 9 -17 53 -26 97 -10 44 -31 103 -46 132 -42 78 -46 85 -64 131 -10 23 -22 42 -27 42 -4 0 -8 9 -8 19 0 11 -4 23 -10 26 -5 3 -17 23 -27 43 -28 59 -138 212 -153 212 -4 0 -23 15 -42 33 -30 31 -91 65 -261 149 -72 35 -157 58 -218 58 -26 0 -49 5 -51 11 -2 5 -6 8 -9 5z m56 -71 c94 -11 190 -39 230 -66 21 -15 45 -25 52 -22 7 3 13 1 13 -4 0 -9 88 -39 103 -35 4 1 7 -2 7 -7 0 -5 18 -22 40 -39 22 -16 37 -31 34 -34 -3 -4 2 -5 10 -4 17 1 127 -147 152 -206 9 -21 20 -38 25 -38 11 0 120 -224 142 -290 9 -25 18 -63 22 -85 4 -22 11 -53 16 -70 4 -16 9 -47 11 -67 1 -21 6 -38 10 -38 4 0 8 -9 8 -19 0 -26 37 -111 48 -111 5 0 19 -24 31 -52 13 -29 30 -66 38 -83 8 -16 17 -54 20 -82 3 -29 10 -50 14 -47 13 8 11 -10 -2 -23 -8 -8 -7 -17 2 -34 17 -33 29 -337 20 -512 -1 -18 -99 -87 -123 -87 -20 0 -119 -70 -113 -80 3 -5 0 -12 -6 -16 -8 -4 -9 -3 -5 4 4 7 5 12 2 12 -3 0 -66 -29 -141 -64 -99 -48 -137 -71 -144 -88 -5 -13 -6 -27 -3 -33 3 -5 1 -7 -3 -2 -10 9 -45 -21 -45 -40 0 -16 -17 -17 -23 0 -4 7 -6 6 -6 -5 -1 -12 -10 -16 -35 -15 -35 1 -90 -28 -81 -42 2 -5 -3 -15 -12 -22 -15 -12 -16 -12 -10 4 6 15 4 16 -13 7 -13 -7 -17 -16 -13 -28 6 -14 4 -15 -9 -4 -13 10 -18 10 -24 1 -5 -8 -3 -9 6 -4 9 5 11 4 6 -3 -4 -7 -14 -12 -22 -12 -12 0 -18 -11 -16 -31 1 -3 -9 -5 -21 -5 -12 1 -22 -4 -22 -11 0 -20 -14 -26 -29 -14 -13 11 -26 5 -75 -33 -33 -26 -66 -54 -73 -64 -7 -9 -24 -24 -38 -31 -85 -50 -127 -71 -141 -71 -17 0 -29 -19 -29 -47 0 -14 2 -14 23 0 13 8 42 21 65 27 22 7 61 29 86 49 102 82 125 99 239 171 37 23 67 46 67 51 0 5 6 9 13 9 22 0 86 60 80 75 -3 8 0 15 7 15 6 0 8 -5 4 -11 -5 -9 1 -10 19 -5 53 13 74 25 133 75 32 29 106 75 164 104 58 29 123 64 145 78 22 14 60 33 85 43 25 10 60 25 78 34 17 8 34 13 37 10 12 -12 29 -793 17 -812 -7 -13 -7 -6 -22 -191 -7 -82 -9 -177 -6 -210 9 -84 8 -533 0 -547 -8 -12 -9 -23 -12 -146 -2 -69 -3 -73 -29 -83 -28 -10 -155 -114 -162 -132 -9 -25 -41 -50 -101 -80 -36 -18 -66 -35 -68 -39 -2 -5 -10 -8 -18 -8 -8 0 -44 -29 -80 -65 -36 -36 -67 -65 -70 -65 -8 0 -39 -33 -39 -41 0 -4 -4 -11 -9 -16 -6 -5 -6 -2 -1 6 6 11 4 13 -11 6 -10 -4 -34 -13 -52 -20 -40 -14 -102 -63 -102 -80 0 -7 -9 -24 -20 -37 -10 -14 -17 -28 -15 -32 3 -3 2 -4 -1 -1 -8 5 -34 -20 -34 -34 0 -6 -8 -11 -17 -11 -10 0 -29 -10 -43 -21 -14 -11 -19 -17 -11 -13 9 5 12 3 7 -5 -4 -6 -11 -9 -16 -6 -15 9 -81 -28 -76 -42 3 -7 -8 -20 -24 -28 -17 -9 -30 -13 -30 -11 0 3 -15 -9 -32 -26 -18 -16 -50 -43 -70 -58 -21 -15 -34 -30 -30 -34 3 -4 -1 -4 -10 -1 -9 4 -19 2 -23 -4 -3 -6 -15 -11 -26 -11 -12 0 -17 -4 -13 -11 4 -8 0 -9 -15 -4 -11 3 -21 3 -21 -2 0 -4 -12 -9 -26 -10 -15 0 -30 -6 -34 -13 -4 -6 -10 -11 -14 -11 -19 3 -29 -3 -72 -41 -85 -76 -113 -106 -106 -114 4 -4 2 -4 -5 -1 -6 4 -29 -8 -50 -26 -22 -18 -58 -41 -81 -51 -23 -10 -39 -23 -35 -29 3 -6 1 -7 -5 -3 -16 10 -54 -12 -46 -26 4 -7 2 -8 -5 -4 -17 11 -211 -89 -211 -109 -1 -15 -96 -115 -109 -115 -6 0 -11 -5 -11 -10 0 -6 -20 -19 -44 -30 -24 -10 -47 -23 -50 -29 -11 -17 -145 -92 -182 -103 -19 -5 -34 -13 -34 -17 0 -5 -15 -18 -32 -30 -18 -12 -51 -34 -73 -51 -22 -16 -49 -29 -59 -30 -17 0 -18 6 -13 64 l6 65 -30 -4 c-17 -2 -27 0 -23 6 3 5 1 16 -6 24 -6 8 -7 16 -2 19 17 10 25 96 10 114 -7 9 -8 13 -2 9 18 -11 24 44 23 193 -1 74 3 169 10 210 13 88 10 331 -3 327 -9 -3 -9 -26 -2 -164 1 -24 -2 -43 -6 -43 -4 0 -7 -21 -5 -48 1 -26 -2 -58 -6 -72 -6 -19 -6 -21 2 -10 9 13 11 13 11 0 0 -9 -4 -20 -9 -25 -6 -6 -11 -36 -13 -68 -2 -33 -6 -61 -9 -63 -3 -2 -2 -29 2 -60 4 -31 5 -63 2 -71 -3 -8 0 -25 7 -38 11 -20 10 -26 -4 -40 -9 -10 -16 -34 -17 -58 0 -64 -9 -180 -14 -195 -3 -8 -18 3 -41 28 -20 22 -42 40 -48 40 -7 0 -23 12 -37 26 -14 15 -31 23 -41 21 -12 -4 -18 1 -18 13 0 16 -68 70 -90 70 -5 0 -10 4 -10 10 0 15 -39 47 -145 117 -55 37 -105 74 -112 82 -6 9 -14 13 -18 9 -4 -4 -18 6 -32 23 -14 16 -30 29 -37 29 -7 0 -32 23 -56 50 -32 37 -66 61 -125 89 -51 25 -104 61 -145 100 -36 33 -78 67 -95 76 -86 46 -129 75 -173 118 -26 26 -52 47 -58 47 -5 0 -16 9 -24 20 -8 11 -18 20 -22 20 -8 0 -21 11 -81 62 -18 15 -39 25 -47 23 -8 -3 -22 0 -30 6 -12 8 -10 9 8 4 12 -3 22 -4 22 -2 0 8 -114 93 -169 126 -29 18 -59 30 -67 27 -9 -3 -11 0 -7 11 5 13 2 15 -12 9 -11 -4 -16 -4 -12 0 10 11 -31 36 -46 28 -6 -4 -9 -4 -5 1 4 4 -7 21 -25 36 -18 16 -39 36 -48 45 -10 8 -41 28 -70 43 -30 15 -55 34 -57 43 -2 8 15 26 38 42 36 24 52 46 33 46 -13 0 -98 -44 -105 -55 -11 -16 -63 20 -66 47 -2 13 -10 30 -17 38 -18 20 -39 134 -25 138 11 4 13 54 4 89 -4 13 -11 20 -17 16 -13 -8 -1 147 17 207 7 25 14 88 14 140 1 52 6 127 12 165 6 40 7 89 2 115 -11 64 -5 712 8 759 5 21 11 70 11 110 1 62 4 71 20 71 10 0 33 8 51 18 18 10 53 24 78 31 43 12 118 41 168 64 12 6 22 14 22 19 0 15 -49 8 -112 -16 -35 -13 -83 -29 -108 -35 -25 -7 -52 -14 -60 -17 -8 -2 -21 0 -29 5 -11 7 -11 20 -2 73 6 36 11 89 11 120 0 30 6 68 14 84 8 16 17 58 21 94 17 165 147 483 245 601 22 26 40 51 40 57 0 33 194 127 292 142 43 6 91 15 107 20 16 4 49 4 74 -2 31 -6 52 -6 65 1 16 8 21 7 26 -5 4 -11 14 -13 40 -8 45 8 227 -30 281 -59 40 -22 145 -96 177 -126 63 -57 197 -203 198 -213 0 -13 48 -77 53 -72 3 3 10 -4 17 -15 6 -12 8 -21 4 -21 -3 0 -2 -6 4 -12 22 -29 82 -154 82 -173 0 -12 15 -53 33 -91 19 -38 42 -95 52 -127 10 -32 22 -60 26 -63 5 -3 9 -18 9 -34 0 -15 5 -30 10 -32 15 -5 60 -182 70 -276 5 -46 15 -94 23 -105 8 -12 16 -58 19 -102 3 -44 11 -93 19 -110 12 -27 33 -181 44 -330 3 -33 10 -98 16 -145 9 -77 19 -330 20 -547 0 -46 5 -85 10 -88 5 -4 6 -11 3 -17 -4 -6 -10 -5 -15 3 -6 9 -7 3 -4 -16 2 -16 6 -135 9 -263 2 -128 7 -236 10 -239 17 -17 25 202 16 432 -6 145 -3 214 15 300 3 17 8 40 11 52 3 16 14 24 42 29 59 10 179 84 168 103 -4 5 4 15 16 21 22 11 22 10 4 -4 -31 -25 0 -19 68 13 59 29 115 75 104 86 -3 3 -12 -1 -21 -9 -8 -8 -17 -12 -21 -9 -3 4 -6 0 -6 -7 0 -7 -3 -11 -6 -7 -4 3 -13 0 -21 -8 -8 -8 -30 -15 -50 -15 -46 0 -133 -51 -133 -78 0 -5 -11 -13 -25 -16 -14 -4 -25 -11 -25 -16 0 -5 -7 -6 -17 -3 -9 4 -14 2 -11 -3 4 -5 -9 -9 -28 -9 -19 0 -39 7 -44 15 -9 15 -26 158 -20 175 8 25 -18 249 -30 253 -4 2 -4 17 0 34 7 22 5 34 -6 45 -9 9 -14 32 -13 61 0 26 -2 70 -5 97 -3 28 -7 64 -9 81 -2 17 -7 36 -11 42 -3 6 -7 27 -8 47 -1 19 -5 35 -10 35 -5 0 -9 10 -8 23 6 67 -1 137 -15 151 -9 8 -15 33 -15 59 0 24 -7 64 -16 88 -8 24 -15 58 -16 74 0 17 -6 39 -12 50 -7 11 -25 58 -40 105 -15 47 -34 99 -41 115 -37 86 -65 161 -71 191 -3 19 -10 34 -14 34 -5 0 -12 10 -16 23 -3 12 -12 29 -19 37 -8 8 -13 18 -12 21 1 4 -10 26 -25 49 -16 23 -28 45 -28 49 0 4 -11 18 -25 31 -14 13 -25 29 -25 36 0 6 -7 17 -15 24 -8 7 -13 15 -11 19 2 3 -8 15 -22 25 -15 12 -22 14 -17 5 7 -12 6 -12 -6 -1 -8 7 -14 17 -14 22 0 5 -21 34 -48 64 -31 36 -53 53 -62 50 -8 -4 -15 -1 -15 6 0 6 -4 9 -9 5 -5 -3 -13 0 -17 6 -3 6 -1 15 6 19 9 6 7 11 -9 19 -12 7 -19 16 -16 22 4 5 -1 9 -9 9 -9 0 -16 8 -16 18 -1 11 -26 30 -78 55 -42 21 -82 38 -88 38 -6 -1 -31 8 -55 18 -43 19 -199 37 -281 33 -32 -2 -38 1 -38 18 0 23 17 32 61 34 16 1 29 6 29 12 0 7 11 15 25 18 16 4 23 11 19 18 -5 7 -3 8 5 3 8 -4 46 8 92 30 70 33 95 42 122 44 5 1 6 5 3 9 -3 5 8 8 24 7 17 -1 30 2 30 6 0 4 11 10 25 13 14 4 25 11 25 16 0 5 7 6 17 3 10 -4 14 -2 10 4 -7 11 22 28 31 18 3 -3 -1 -5 -8 -5 -7 0 -11 -2 -8 -5 8 -8 59 6 53 14 -2 4 6 7 18 7 13 -1 21 4 19 12 -1 6 6 12 15 12 24 0 94 25 88 31 -2 3 11 5 30 5 40 0 56 11 35 25 -13 9 -13 10 0 8 27 -3 41 1 36 9 -3 5 9 9 26 10 17 0 36 6 42 13 8 9 8 10 -3 4 -9 -5 -12 -4 -7 3 4 6 13 9 21 5 8 -3 23 -2 33 2 9 5 24 9 32 11 8 2 16 8 18 14 2 5 9 7 15 3 6 -4 8 0 4 9 -4 11 1 16 19 16 14 0 33 7 43 16 19 17 36 22 26 7 -11 -19 46 -3 73 20 15 13 35 22 45 21 10 -2 17 3 17 12 0 10 6 13 15 10 9 -4 15 0 15 9 0 12 8 14 37 10 31 -5 35 -4 30 11 -4 9 -3 15 1 13 12 -8 54 12 47 22 -3 5 0 13 6 17 7 4 9 3 5 -4 -9 -15 16 -21 39 -8 24 13 35 27 29 37 -2 4 2 6 9 6 24 -1 77 16 77 25 0 5 4 7 9 3 5 -3 12 -1 15 4 3 5 14 7 24 4 25 -6 95 24 87 37 -4 6 1 7 11 3 12 -5 15 -3 9 6 -5 10 -2 11 14 6 14 -4 23 -1 27 9 3 9 10 13 15 10 5 -3 9 0 9 6 0 6 10 8 24 4 31 -7 67 11 60 31 -4 10 0 15 16 15 11 0 18 -4 15 -10 -3 -6 1 -7 9 -4 9 3 13 10 10 15 -3 5 2 6 10 3 18 -7 65 25 66 46 1 10 3 11 7 3 6 -15 39 -17 48 -3 3 6 19 10 36 10 16 0 29 4 29 9 0 12 65 37 120 46 25 4 54 12 65 19 11 7 55 27 97 44 61 25 86 31 116 26 34 -5 42 -3 59 19 21 27 92 52 127 44 11 -3 44 -1 71 3 28 4 59 6 70 4 11 -2 43 -6 70 -9z"
         style="fill:#cb3c32;fill-opacity:1" />
      <path
         id="path10"
         d="M4358 5747 c-24 -19 -70 -175 -69 -234 1 -35 -4 -56 -14 -67 -9 -9 -13 -16 -8 -16 4 0 4 -4 -2 -8 -18 -13 -34 -49 -25 -58 5 -5 10 -20 12 -34 3 -28 41 -39 68 -20 13 9 13 12 -2 20 -14 8 -17 22 -14 63 1 29 6 59 11 67 10 17 10 55 0 93 -7 26 -1 50 31 124 8 17 14 38 14 46 0 9 6 17 13 20 6 2 9 7 6 11 -3 3 -12 0 -21 -7z"
         style="fill:#cb3c32;fill-opacity:1" />
      <path
         id="path12"
         d="M5016 3725 c-3 -8 -17 -20 -31 -25 -14 -5 -25 -14 -25 -20 0 -6 5 -8 11 -4 7 4 10 1 7 -7 -3 -8 -9 -14 -14 -15 -21 -2 -44 -17 -38 -25 3 -5 -1 -6 -9 -3 -16 6 -42 -21 -33 -35 3 -5 -3 -7 -14 -4 -12 3 -29 -2 -40 -12 -11 -10 -20 -14 -20 -9 0 5 -4 3 -8 -3 -7 -11 -32 -19 -65 -22 -5 -1 -5 -6 -1 -13 5 -8 2 -9 -11 -4 -14 5 -16 4 -7 -7 9 -10 9 -14 -1 -14 -16 0 -89 -34 -104 -49 -7 -6 -9 -14 -6 -18 4 -3 -8 -6 -25 -6 -17 0 -45 -8 -62 -18 -24 -15 -27 -21 -17 -32 10 -10 9 -12 -6 -7 -18 7 -69 -22 -92 -51 -6 -7 -53 -34 -105 -60 -52 -26 -93 -51 -92 -56 2 -5 -10 -15 -27 -24 -18 -8 -31 -22 -31 -33 0 -22 15 -25 27 -6 4 7 19 18 33 25 14 7 54 30 90 52 36 22 75 45 88 50 12 5 25 17 28 25 4 8 12 15 20 15 8 0 14 4 14 9 0 10 74 55 185 112 38 20 69 42 67 48 -1 7 3 11 10 9 17 -3 78 33 72 43 -2 4 5 5 15 2 11 -3 33 4 50 16 16 12 33 21 38 21 19 0 137 124 139 146 3 27 -1 31 -10 9z"
         style="fill:#cb3c32;fill-opacity:1" />
    </g>
    <path
       transform="scale(0.8,0.8)"
       inkscape:connector-curvature="0"
       d="m 459.39845,669.37749 c 0.69121,-3.90699 0.88747,-7.8788 1.08043,-11.83489 0.26768,-4.82805 0.1728,-9.65833 -0.14394,-14.47986 -0.24453,-2.51834 -0.61116,-5.02113 -0.83236,-7.54195 -0.20382,-2.17211 0.40301,-4.31589 0.76882,-6.44106 0.4983,-3.27303 0.87447,-6.55983 1.09655,-9.86277 0.14975,-2.12192 0.19955,-4.25611 -0.25624,-6.34279 0,0 2.57533,-1.38268 2.57533,-1.38268 l 0,0 c 0.46195,2.11852 0.42722,4.28502 0.24987,6.43857 -0.23092,3.31144 -0.62538,6.60414 -1.08997,9.8907 -0.34095,2.0991 -0.90685,4.21318 -0.75239,6.35294 0.18706,2.53667 0.53391,5.05599 0.75163,7.58992 0.28007,4.8379 0.38386,9.68405 0.12018,14.52638 -0.18187,3.93833 -0.39776,7.87791 -0.89506,11.79141 0,0 -2.67285,1.29608 -2.67285,1.29608 z"
       id="path2993"
       style="color:#000000;fill:#cb3c32;fill-opacity:1;fill-rule:nonzero;stroke:#c42836;stroke-width:0;stroke-linecap:square;stroke-linejoin:round;stroke-miterlimit:4;stroke-opacity:1;stroke-dasharray:none;stroke-dashoffset:0;marker:none;visibility:visible;display:inline;overflow:visible;enable-background:accumulate" />
    <path
       transform="scale(0.8,0.8)"
       inkscape:connector-curvature="0"
       d="m 513.74644,487.31716 c 0.58694,-0.73306 1.08743,-1.53497 1.75951,-2.19505 1.07215,-0.90802 2.3796,-1.46676 3.599,-2.15299 0.22216,-0.12502 0.89713,-0.48431 0.67686,-0.35598 -0.74382,0.43333 -1.49744,0.84964 -2.24616,1.27446 0.37221,-0.23512 0.19299,-0.11392 0.53841,-0.3625 0,0 2.75188,-1.10595 2.75188,-1.10595 l 0,0 c -0.32522,0.29315 -0.14925,0.16192 -0.52897,0.39228 -0.94267,0.55041 -1.88237,1.10591 -2.82799,1.65123 -0.10752,0.062 -0.22071,0.11357 -0.33101,0.17048 -1.70236,0.87843 3.09649,-1.98731 1.44611,-0.88585 -0.11821,0.0789 -0.22643,0.17182 -0.33964,0.25772 -0.72476,0.5929 -1.19649,1.40645 -1.76964,2.1364 0,0 -2.72836,1.17575 -2.72836,1.17575 z"
       id="path2995"
       style="color:#000000;fill:#cb3c32;fill-opacity:1;fill-rule:nonzero;stroke:#c42836;stroke-width:0;stroke-linecap:square;stroke-linejoin:round;stroke-miterlimit:4;stroke-opacity:1;stroke-dasharray:none;stroke-dashoffset:0;marker:none;visibility:visible;display:inline;overflow:visible;enable-background:accumulate" />
    <path
       transform="scale(0.8,0.8)"
       inkscape:connector-curvature="0"
       d="m 622.75578,414.67976 c 1.63781,-1.07872 3.334,-2.09374 5.13185,-2.88162 0.84369,-0.46307 1.7731,-0.71949 2.68539,-1.00756 0.9367,-0.42846 2.77578,-1.45975 -1.38106,0.84116 -0.1107,0.0613 0.2082,-0.14388 0.31027,-0.21864 0.56336,-0.41262 0.0166,-0.0385 0.58874,-0.42066 0.25078,-0.19664 7.93872,-4.40691 1.98205,-1.03076 0,0 2.7623,-1.07516 2.7623,-1.07516 l 0,0 c -0.94177,0.54799 -1.87954,1.10293 -2.82533,1.64398 -0.0853,0.0488 -0.58061,0.2777 -0.66521,0.31625 -0.11901,0.0542 -0.46967,0.22851 -0.35811,0.16026 0.61397,-0.37558 3.16185,-1.86609 1.86758,-1.08371 -0.33019,0.18507 -0.58518,0.45374 -0.9019,0.64527 -1.16488,0.70441 -2.39694,1.54861 -3.71473,2.03234 -0.90593,0.29634 -1.81955,0.57208 -2.66116,1.03096 -0.97122,0.45129 -2.72659,1.53862 1.12778,-0.77083 0.28654,-0.17169 -0.57305,0.34352 -0.85545,0.52195 -0.10915,0.069 -0.22158,0.13261 -0.33238,0.19891 0,0 -2.76063,1.09786 -2.76063,1.09786 z"
       id="path2997"
       style="color:#000000;fill:#cb3c32;fill-opacity:1;fill-rule:nonzero;stroke:#c42836;stroke-width:0;stroke-linecap:square;stroke-linejoin:round;stroke-miterlimit:4;stroke-opacity:1;stroke-dasharray:none;stroke-dashoffset:0;marker:none;visibility:visible;display:inline;overflow:visible;enable-background:accumulate" />
  </g>
  <path
     style="color:#000000;fill:#cfcfcf;fill-opacity:1;fill-rule:nonzero;stroke:#c42836;stroke-width:0;stroke-linecap:square;stroke-linejoin:round;stroke-miterlimit:4;stroke-opacity:1;stroke-dasharray:none;stroke-dashoffset:0;marker:none;visibility:visible;display:inline;overflow:visible;enable-background:accumulate"
     d="m 463.25589,784.07783 0.74767,-7.97873 -3.29621,0 c -2.59472,0 -3.43297,-0.54491 -3.93885,-2.56049 -0.35345,-1.40826 -0.0825,-3.60712 0.60212,-4.88635 0.68462,-1.27921 1.12134,-4.55519 0.9705,-7.27993 -0.15084,-2.72474 0.0405,-6.15089 0.42514,-7.61365 0.81602,-3.10301 3.089,-47.82575 3.56849,-70.21277 0.18171,-8.48404 0.60819,-26.67553 0.94772,-40.42553 0.33953,-13.75 0.5935,-42.95213 0.56439,-64.89362 -0.0492,-37.06485 0.62384,-49.81866 3.14461,-59.58993 0.88742,-3.43994 1.59354,-3.97279 8.83152,-6.66446 8.86634,-3.29722 16.29014,-8.21027 17.7006,-11.71418 0.52041,-1.29282 0.97654,-1.75916 1.01363,-1.03631 0.16085,3.13509 16.78839,-5.56846 21.62949,-11.32178 1.52276,-1.8097 3.45904,-3.29036 4.30283,-3.29036 0.84379,0 2.12012,-0.70603 2.83628,-1.56897 0.71617,-0.86292 6.79109,-4.72064 13.49982,-8.57271 6.70873,-3.85206 14.99359,-9.24975 18.41079,-11.99487 3.41719,-2.74511 10.653,-7.38472 16.07958,-10.31026 5.42656,-2.92553 11.81384,-6.74805 14.19395,-8.49449 2.38009,-1.74644 6.12267,-3.99697 8.31681,-5.00118 2.19415,-1.00421 3.98937,-2.32796 3.98937,-2.94168 0,-0.61371 1.25821,-1.11584 2.79603,-1.11584 4.65113,0 13.70003,-6.03088 21.19457,-14.12567 3.89705,-4.20917 7.6333,-7.6607 8.30278,-7.67007 4.20182,-0.0588 17.41332,-6.79669 25.7761,-13.14584 5.25937,-3.993 14.57883,-10.6256 20.7099,-14.7391 6.13108,-4.11351 11.79697,-8.26177 12.59087,-9.21836 0.79391,-0.95659 1.90934,-1.73926 2.47876,-1.73926 1.95647,0 7.4275,-4.5536 9.44378,-7.86017 1.11012,-1.82052 2.0202,-2.73453 2.02238,-2.03114 0.009,2.6774 9.68114,-1.673 18.89339,-8.49739 14.53017,-10.7639 60.78049,-35.27472 62.78282,-33.2724 1.16635,1.16635 2.19906,26.37644 2.55204,62.2994 0.27057,27.53485 -0.0127,38.17819 -1.24555,46.80851 -1.24865,8.74057 -1.52919,20.07894 -1.28976,52.12766 0.1683,22.5266 -0.1836,46.70213 -0.78199,53.72341 -0.59839,7.02127 -1.37833,16.96516 -1.7332,22.09752 -0.63248,9.14737 -0.71153,9.36552 -4.00523,11.0515 -4.84264,2.47885 -13.17548,9.3414 -19.31748,15.90901 -3.40766,3.6438 -9.28081,7.9622 -16.34338,12.01695 -7.35796,4.22434 -14.43381,9.47785 -21.2766,15.79697 -7.2747,6.71797 -11.70873,9.96126 -15.26678,11.16693 -7.78108,2.63667 -14.06396,7.54289 -17.66214,13.79215 -3.72445,6.46855 -9.21185,12.53067 -11.34271,12.53067 -0.80553,0 -2.40601,1.19681 -3.55662,2.65957 -1.15062,1.46277 -3.17379,2.65958 -4.49595,2.65958 -1.44062,0 -3.97817,1.70521 -6.33242,4.25532 -2.16067,2.34042 -4.46257,4.25532 -5.11535,4.25532 -0.65277,0 -5.42503,3.52743 -10.60502,7.83874 -5.17999,4.3113 -11.18221,8.47662 -13.33825,9.25626 -2.15606,0.77963 -3.9201,1.85591 -3.9201,2.39172 0,0.53581 -0.95697,0.72394 -2.1266,0.41807 -1.16963,-0.30586 -2.39469,-0.12234 -2.72236,0.40784 -0.32767,0.53019 -1.35908,0.96396 -2.29203,0.96396 -4.34605,0 -13.71571,5.96218 -21.89502,13.93242 -4.80147,4.67874 -13.03846,11.22984 -18.30442,14.558 -5.26595,3.32817 -9.81383,6.34392 -10.10638,6.7017 -0.29255,0.35778 -1.8484,0.97269 -3.45745,1.36648 -1.60904,0.39378 -2.92553,1.42494 -2.92553,2.29146 0,0.89073 -0.96993,1.57547 -2.23165,1.57547 -4.14743,0 -20.43966,8.85655 -24.34657,13.23493 -7.61458,8.53348 -16.27476,16.65196 -19.53417,18.31228 -1.84563,0.94016 -7.22539,4.2709 -11.95502,7.40166 -4.72963,3.13075 -11.23872,6.85954 -14.46463,8.28619 -3.22592,1.42666 -9.17005,5.0715 -13.20918,8.09965 -7.47357,5.60295 -14.27512,9.55891 -16.43482,9.55891 -0.84681,0 -0.97825,-2.33412 -0.44931,-7.97872 l 0,0 z"
     id="path3788"
     inkscape:connector-curvature="0"
     transform="scale(0.8,0.8)" />
  <path
     style="color:#000000;fill:#e8e8e8;fill-opacity:1;fill-rule:nonzero;stroke:#c42836;stroke-width:0;stroke-linecap:square;stroke-linejoin:round;stroke-miterlimit:4;stroke-opacity:1;stroke-dasharray:none;stroke-dashoffset:0;marker:none;visibility:visible;display:inline;overflow:visible;enable-background:accumulate"
     d="m 447.04991,779.08567 c -8.2401,-6.82371 -13.28596,-10.43337 -14.58466,-10.43341 -0.63716,-2e-5 -2.43776,-1.60335 -4.00134,-3.56295 -1.56357,-1.95962 -4.58451,-4.3894 -6.71318,-5.39953 -2.12867,-1.01011 -4.13166,-2.51765 -4.45109,-3.35009 -0.55672,-1.45076 -32.55919,-24.92144 -33.98061,-24.92144 -0.84161,0 -6.8115,-4.91601 -15.62618,-12.86764 -3.62936,-3.274 -11.14671,-8.61756 -16.70522,-11.87457 -5.55851,-3.257 -13.59364,-8.87334 -17.85584,-12.48074 -4.26221,-3.60741 -11.85633,-9.09465 -16.87586,-12.19388 -5.01951,-3.09922 -12.06417,-8.09714 -15.65479,-11.10649 -16.63774,-13.94428 -26.86215,-21.38839 -29.40075,-21.40586 -1.93948,-0.0133 -2.26052,-0.27101 -1.18573,-0.95169 1.1016,-0.69765 -0.53348,-2.41788 -6.47385,-6.811 -11.12376,-8.22641 -17.96404,-12.43579 -20.20827,-12.43579 -1.05566,0 -1.92487,-0.5984 -1.93159,-1.32978 -0.007,-0.73139 -2.01165,-2.28724 -4.45542,-3.45745 -2.44376,-1.17021 -6.68231,-4.30771 -9.41898,-6.97222 -2.73668,-2.66453 -8.39131,-6.90827 -12.56586,-9.43058 -4.17455,-2.5223 -7.59009,-5.21185 -7.59009,-5.97679 0,-0.76493 1.9149,-3.02987 4.25532,-5.03318 3.81703,-3.26723 5.46299,-6.09787 3.5458,-6.09787 -0.39024,0 -3.8204,1.70995 -7.62258,3.79989 -6.81561,3.74633 -6.94922,3.77257 -9.47967,1.86171 -1.41165,-1.06601 -3.96689,-5.12932 -5.67833,-9.02959 -3.18809,-7.2655 -3.96289,-13.72835 -2.55398,-21.30355 0.50496,-2.71501 0.20423,-4.98152 -0.97448,-7.3443 -2.1428,-4.29535 -2.16342,-11.71179 -0.0648,-23.30331 2.86073,-15.80082 3.92879,-39.73492 3.75042,-84.04255 -0.15526,-38.56281 0.35758,-52.75512 2.95348,-81.73529 l 0.6986,-7.79912 5.31915,-1.95503 c 2.92553,-1.07527 9.86702,-3.62718 15.42553,-5.67091 15.75385,-5.79233 20.21277,-7.93583 20.21277,-9.71674 0,-2.38176 -1.47909,-2.12549 -18.20178,3.15368 -14.84814,4.6874 -19.49052,5.59322 -20.4457,3.98937 -0.78675,-1.32105 2.32526,-29.0871 3.96451,-35.37234 0.83931,-3.21809 2.05659,-9.06943 2.70506,-13.00297 3.62207,-21.97101 17.1988,-54.98508 29.21436,-71.03959 2.40849,-3.21808 5.19321,-7.12145 6.18828,-8.67414 3.78419,-5.90483 23.48499,-14.73369 40.03629,-17.94216 9.85962,-1.91129 27.95315,-2.32414 29.60184,-0.67545 0.3828,0.38281 3.20709,0.69601 6.27618,0.69601 6.87942,0 20.09411,2.46611 28.62454,5.34188 3.66268,1.23475 10.56347,5.13464 16.14077,9.12174 11.16438,7.98119 31.5035,28.26041 36.51873,36.4112 1.86833,3.03642 4.19781,6.11634 5.17663,6.84425 2.22814,1.657 10.91925,19.32612 14.90165,30.29525 1.64982,4.54425 5.38071,14.24632 8.29087,21.56015 9.9546,25.01799 12.43906,33.20439 15.33572,50.53191 1.17376,7.02128 2.80798,14.92021 3.63162,17.55319 0.82363,2.63298 1.79323,7.65958 2.15466,11.17022 0.36143,3.51063 1.57052,10.45212 2.68686,15.42553 1.82271,8.12027 6.05872,44.34504 7.96166,68.0851 0.39866,4.97341 1.09665,22.44681 1.55111,38.82979 0.45445,16.38298 1.17836,30.63043 1.60869,31.661 0.56026,1.34171 0.3712,1.71559 -0.66581,1.31669 -1.20474,-0.46341 -1.33031,2.7093 -0.74681,18.87092 1.2312,34.10154 0.6563,109.34916 -0.98276,128.63499 -0.46391,5.45836 -0.38941,8.96403 0.18296,8.61024 0.55599,-0.34367 0.6274,0.48896 0.16837,1.96321 -2.3792,7.64118 -3.46448,20.18966 -2.67242,30.89946 0.63985,8.65155 0.49208,12.28593 -0.62718,15.42553 -0.80533,2.25902 -1.52073,7.69775 -1.58978,12.08605 -0.0691,4.38829 -0.44911,10.04076 -0.84457,12.56103 l -0.71902,4.58231 -5.53346,-4.58231 0,0 z"
     id="path3790"
     inkscape:connector-curvature="0"
     transform="scale(0.8,0.8)" />
  <path
     style="color:#000000;fill:url(#linearGradient3812);fill-opacity:1;fill-rule:nonzero;stroke:#c42836;stroke-width:0;stroke-linecap:square;stroke-linejoin:round;stroke-miterlimit:4;stroke-opacity:1;stroke-dasharray:none;stroke-dashoffset:0;marker:none;visibility:visible;display:inline;overflow:visible;enable-background:accumulate"
     d="m 468.42886,506.97399 c -2.84326,-1.14911 -3.38913,-4.248 -4.68913,-26.61957 -0.561,-9.65425 -1.55755,-19.70744 -2.21454,-22.34042 -0.657,-2.63298 -1.1467,-6.56242 -1.08822,-8.73208 0.0585,-2.16966 -0.35507,-5.15836 -0.91897,-6.64156 -0.56392,-1.4832 -1.50929,-8.5644 -2.10084,-15.73601 -0.59154,-7.17161 -1.83675,-16.39035 -2.7671,-20.4861 -0.93036,-4.09574 -2.10009,-12.07061 -2.59941,-17.72194 -0.49932,-5.65133 -1.66085,-11.73128 -2.58118,-13.511 -0.92033,-1.77973 -1.67333,-4.63147 -1.67333,-6.33722 0,-6.4535 -5.50246,-26.90065 -11.7903,-43.81282 -3.58939,-9.65425 -8.11324,-21.8617 -10.05298,-27.12766 -3.80631,-10.33322 -14.20918,-30.35104 -19.86766,-38.2305 -1.92601,-2.68195 -4.96235,-6.90598 -6.74744,-9.38673 -1.78509,-2.48073 -3.74857,-4.51042 -4.36328,-4.51042 -0.61472,0 -3.48441,-3.11171 -6.37709,-6.9149 -3.70125,-4.86628 -6.75901,-7.63796 -10.32115,-9.35551 -4.11683,-1.985 -4.93815,-2.83 -4.39969,-4.52651 0.43388,-1.36705 0.0868,-2.30664 -1.00706,-2.72639 -0.918,-0.35228 -1.6691,-1.08396 -1.6691,-1.62597 0,-2.20622 -7.53887,-8.29662 -14.2121,-11.48146 -15.24411,-7.27534 -30.15647,-10.70969 -46.50276,-10.70969 -5.3629,0 -9.66592,-0.47503 -10.05862,-1.11043 -1.11982,-1.8119 1.56412,-4.10107 5.7208,-4.87937 3.61912,-0.67764 9.81414,-4.16497 10.62006,-5.97829 0.19503,-0.43883 1.07331,-0.79787 1.95173,-0.79787 0.87842,0 6.18,-1.91489 11.78129,-4.25532 5.6013,-2.34042 11.0661,-4.25532 12.14402,-4.25532 1.07791,0 1.95984,-0.47872 1.95984,-1.06383 0,-0.5851 1.07712,-1.06959 2.39361,-1.07664 1.31649,-0.007 4.47706,-1.20386 7.02349,-2.65958 2.54642,-1.45571 5.29908,-2.64675 6.11702,-2.64675 0.81793,0 1.48715,-0.43391 1.48715,-0.96424 0,-0.53033 0.9566,-0.71407 2.12578,-0.40833 1.16918,0.30575 3.30659,-0.2178 4.74981,-1.16343 1.44321,-0.94563 3.31906,-1.71932 4.16854,-1.71932 0.84949,0 1.7041,-0.43721 1.89914,-0.97157 0.4116,-1.1277 11.62884,-5.32436 16.31205,-6.10275 5.72474,-0.9515 6.24091,-1.2805 4.77679,-3.04466 -1.10516,-1.33163 -0.88064,-1.58315 1.41315,-1.58315 1.49988,0 3.02292,-0.47872 3.38453,-1.06383 0.36162,-0.58511 1.79184,-1.06383 3.17829,-1.06383 1.38643,0 3.23888,-0.71809 4.11654,-1.59575 0.87766,-0.87766 2.58411,-1.59574 3.7921,-1.59574 3.28005,0 10.72158,-3.49686 10.72158,-5.03819 0,-0.73963 0.83777,-1.34658 1.8617,-1.34877 1.02394,-0.002 3.41756,-0.95259 5.31915,-2.11202 1.9016,-1.15942 3.45745,-1.63636 3.45745,-1.05985 0,0.5765 0.5984,1.04838 1.32979,1.0486 1.67957,5.2e-4 15.0375,-6.64062 15.51418,-7.71317 0.19504,-0.43883 1.00902,-0.79788 1.80884,-0.79788 0.79983,0 1.89403,-0.78588 2.43157,-1.7464 0.69467,-1.24131 1.86376,-1.57669 4.04223,-1.15963 1.85538,0.35522 3.69461,0.0143 4.66062,-0.86379 0.87766,-0.79781 2.5587,-2.31605 3.73562,-3.37386 1.17694,-1.05782 3.03508,-1.75091 4.12919,-1.5402 2.65954,0.51218 6.84428,-1.82474 7.61479,-4.25241 0.34167,-1.07653 1.52869,-1.95732 2.63782,-1.95732 1.10912,0 4.44565,-0.95745 7.4145,-2.12766 2.96885,-1.17022 6.74956,-2.12766 8.40156,-2.12766 1.65201,0 4.70706,-1.15596 6.78899,-2.5688 2.08194,-1.41284 4.06363,-2.2905 4.40378,-1.95035 0.34014,0.34014 0.61843,0.0599 0.61843,-0.6227 0,-0.68262 0.83777,-1.25636 1.86171,-1.27496 1.02393,-0.0186 2.79096,-0.7367 3.92673,-1.59575 1.13577,-0.85905 3.64906,-1.56191 5.58511,-1.56191 3.43755,0 6.97951,-2.41351 8.00133,-5.452129 0.40887,-1.215877 0.81962,-1.193433 2.43364,0.132979 1.47968,1.216017 2.04825,1.279304 2.3893,0.265957 0.24617,-0.731383 1.40195,-1.329787 2.56842,-1.329787 1.16646,0 3.44752,-1.316489 5.06903,-2.925532 1.66088,-1.64812 4.2961,-3.013266 6.03518,-3.126459 5.70338,-0.371226 10.52028,-1.64213 12.37281,-3.264481 1.01146,-0.885777 6.51678,-2.939129 12.23404,-4.563004 5.71728,-1.623876 14.70356,-4.75746 19.96951,-6.963521 6.16449,-2.582481 11.84779,-4.181059 15.95745,-4.488454 5.07374,-0.379507 7.08748,-1.092884 9.81768,-3.477966 3.84842,-3.361947 5.82327,-3.798696 21.21223,-4.691197 16.30497,-0.945626 38.62011,3.24665 47.98516,9.014823 1.91574,1.179951 4.16231,2.145366 4.99239,2.145366 0.83007,0 3.09243,0.911056 5.02748,2.02457 1.93504,1.113513 5.13479,2.361688 7.11056,2.773721 6.00019,1.2513 20.34957,15.178519 27.88578,27.065374 2.80002,4.41647 6.75223,10.66293 8.78268,13.88102 10.80573,17.12615 19.15866,38.08688 22.46881,56.38297 1.00566,5.55851 2.22883,11.06383 2.71816,12.23405 0.48934,1.17021 1.67144,4.61387 2.62691,7.65257 0.95547,3.0387 2.6019,6.62913 3.65874,7.97872 3.95352,5.04866 9.87918,18.43252 11.39662,25.74074 0.86382,4.16028 2.01711,7.72243 2.56285,7.91591 0.59881,0.21229 0.56792,1.14468 -0.0779,2.35142 -0.72673,1.35791 -0.69488,3.46413 0.0993,6.56312 0.64319,2.50991 1.42506,17.76612 1.7375,33.90269 l 0.56808,29.33921 -4.075,3.35896 c -2.24124,1.84742 -5.52973,4.02682 -7.30776,4.84309 -1.77803,0.81627 -4.95743,2.28008 -7.06536,3.25291 -2.10792,0.97282 -5.63884,3.42323 -7.84647,5.44535 -2.20765,2.02212 -4.461,3.67658 -5.00746,3.67658 -0.54645,0 -7.83057,3.28004 -16.18692,7.28897 -10.15824,4.87338 -15.86625,8.24971 -17.22379,10.18799 -1.11674,1.59446 -3.34692,4.31497 -4.95596,6.04559 -1.60904,1.7306 -2.92553,3.66 -2.92553,4.28753 0,0.62753 -0.67129,0.88337 -1.49174,0.56853 -0.82046,-0.31484 -1.81697,-0.24637 -2.21447,0.15214 -0.3975,0.39852 -3.43032,1.44359 -6.7396,2.3224 -4.79526,1.27342 -6.31424,2.21824 -7.48144,4.65353 -1.13146,2.36071 -1.68382,2.72317 -2.42857,1.59366 -0.77637,-1.17745 -1.35537,-0.99612 -2.97462,0.93158 -1.10584,1.31649 -2.85143,2.39362 -3.8791,2.39362 -1.02766,0 -1.55238,0.3161 -1.16603,0.70245 0.38635,0.38634 -0.25194,1.37094 -1.41843,2.18798 -1.16649,0.81704 -2.1209,2.17647 -2.1209,3.02095 0,0.84449 -0.97247,1.53542 -2.16104,1.53542 -1.18859,0 -2.45028,0.75371 -2.80377,1.67489 -0.44523,1.16026 -1.42567,1.47837 -3.19094,1.03532 -2.94981,-0.74036 -8.53298,2.74467 -17.52152,10.93697 -5.49784,5.01079 -20.81742,14.0124 -23.84733,14.0124 -0.80923,0 -2.18553,1.31649 -3.05845,2.92553 -0.87292,1.60904 -1.60629,2.28457 -1.62971,1.50118 -0.0275,-0.91727 -1.20789,-0.44383 -3.31572,1.32979 -1.8002,1.51477 -3.77093,2.75414 -4.37939,2.75414 -0.60845,0 -0.84903,0.98372 -0.53462,2.18605 0.42364,1.62 -0.0951,2.43957 -2.00358,3.16516 -1.41639,0.53851 -2.57525,1.46968 -2.57525,2.06927 0,0.59958 -1.00226,1.09015 -2.22725,1.09015 -1.33258,0 -2.45076,0.85469 -2.78365,2.12766 -0.30602,1.17022 -1.17932,2.12766 -1.94066,2.12766 -0.76134,0 -3.76705,1.19681 -6.67936,2.65958 -2.9123,1.46276 -5.99009,2.65957 -6.83952,2.65957 -1.82256,0 -6.1253,3.51901 -6.1253,5.00959 0,0.57014 -1.87065,1.59707 -4.15699,2.28207 -2.28635,0.68501 -5.61753,2.60982 -7.40264,4.27735 -1.7851,1.66754 -4.99168,3.31523 -7.12573,3.66154 -5.10308,0.82811 -9.07867,3.47215 -8.29428,5.51625 0.44321,1.15501 -0.12409,1.59363 -2.06121,1.59363 -1.47,0 -4.57719,1.59113 -6.90486,3.53584 -2.32766,1.9447 -9.22171,6.26755 -15.32008,9.60633 -7.08631,3.87965 -13.58558,8.45859 -18.0085,12.68756 -7.74729,7.40758 -13.28497,10.78451 -19.50602,11.89501 -5.93634,1.05967 -11.83321,4.30553 -14.58578,8.02857 -1.29425,1.75057 -2.76501,3.18286 -3.26834,3.18286 -0.50334,0 -2.89685,0.95745 -5.31891,2.12766 -4.82478,2.33108 -5.59411,2.42506 -8.9033,1.08765 l 0,0 z m 72.53679,-294.84125 c 0.32074,-0.51897 -0.22358,-1.75032 -1.20959,-2.73633 -1.50261,-1.50261 -1.66123,-2.92167 -0.98009,-8.76843 0.44696,-3.83663 0.91671,-11.04483 1.04389,-16.01824 0.17296,-6.76349 0.96336,-11.0535 3.13606,-17.02127 1.59765,-4.3883 3.39891,-8.57713 4.00278,-9.30851 0.8023,-0.9717 0.6174,-1.32979 -0.68658,-1.32979 -3.39402,0 -10.17811,19.78507 -10.17811,29.68333 0,2.3741 -1.36224,6.74544 -3.32788,10.67907 -3.0735,6.15061 -3.23159,6.98112 -2.06809,10.86453 0.78318,2.61404 2.12783,4.52596 3.55417,5.0536 2.5075,0.92758 5.79376,0.39013 6.71344,-1.09796 l 0,0 z"
     id="path3798"
     inkscape:connector-curvature="0"
     transform="scale(0.8,0.8)" />
</svg>
