<?xml version="1.0" encoding="UTF-8" standalone="no"?>
<svg
   xmlns:dc="http://purl.org/dc/elements/1.1/"
   xmlns:cc="http://creativecommons.org/ns#"
   xmlns:rdf="http://www.w3.org/1999/02/22-rdf-syntax-ns#"
   xmlns:svg="http://www.w3.org/2000/svg"
   xmlns="http://www.w3.org/2000/svg"
   xmlns:xlink="http://www.w3.org/1999/xlink"
   xmlns:sodipodi="http://sodipodi.sourceforge.net/DTD/sodipodi-0.dtd"
   xmlns:inkscape="http://www.inkscape.org/namespaces/inkscape"
   version="1.0"
   width="880"
   height="880"
   viewBox="0 0 704 704"
   preserveAspectRatio="xMidYMid meet"
   id="svg2"
   inkscape:version="0.48.4 r9939"
   sodipodi:docname="round.svg">
  <defs
     id="defs16">
    <linearGradient
       id="linearGradient3806">
      <stop
         style="stop-color:#ff8284;stop-opacity:1;"
         offset="0"
         id="stop3808" />
      <stop
         style="stop-color:#fdd1d2;stop-opacity:1;"
         offset="1"
         id="stop3810" />
    </linearGradient>
    <linearGradient
       inkscape:collect="always"
       xlink:href="#linearGradient3806"
       id="linearGradient3812"
       x1="673.57593"
       y1="383.13223"
       x2="485.28409"
       y2="112.91946"
       gradientUnits="userSpaceOnUse"
       gradientTransform="matrix(0.8,0,0,0.8,0,3)" />
    <linearGradient
       inkscape:collect="always"
       xlink:href="#linearGradient3806"
       id="linearGradient3009"
       gradientUnits="userSpaceOnUse"
       gradientTransform="matrix(0.8,0,0,0.8,0,3)"
       x1="673.57593"
       y1="383.13223"
       x2="485.28409"
       y2="112.91946" />
  </defs>
  <sodipodi:namedview
     pagecolor="#ffffff"
     bordercolor="#666666"
     borderopacity="1"
     objecttolerance="10"
     gridtolerance="10"
     guidetolerance="10"
     inkscape:pageopacity="0"
     inkscape:pageshadow="2"
     inkscape:window-width="1116"
     inkscape:window-height="1086"
     id="namedview14"
     showgrid="false"
     inkscape:zoom="0.82"
     inkscape:cx="338.0089"
     inkscape:cy="482.02263"
     inkscape:window-x="546"
     inkscape:window-y="15"
     inkscape:window-maximized="0"
     inkscape:current-layer="svg2" />
  <metadata
     id="metadata4">
Created by potrace 1.14, written by Peter Selinger 2001-2017
<rdf:RDF>
  <cc:Work
     rdf:about="">
    <dc:format>image/svg+xml</dc:format>
    <dc:type
       rdf:resource="http://purl.org/dc/dcmitype/StillImage" />
    <dc:title />
  </cc:Work>
</rdf:RDF>
</metadata>
  <g
     id="g2996"
     transform="translate(-42.316228,5.2365856)">
    <g
       transform="translate(0,3)"
       style="fill:#cb3c32;fill-opacity:1"
       id="g2999">
      <g
         style="fill:#cb3c32;fill-opacity:1;stroke:none"
         transform="matrix(0.1,0,0,-0.1,0,701)"
         id="g6">
        <path
           inkscape:connector-curvature="0"
           style="fill:#cb3c32;fill-opacity:1"
           d="m 5199,6576 c -2,-3 -53,-7 -111,-10 -102,-5 -168,-21 -182,-45 -4,-6 -23,-11 -42,-11 -19,0 -49,-8 -67,-17 -18,-9 -45,-18 -60,-20 -29,-3 -82,-27 -107,-48 -8,-7 -49,-25 -90,-39 -41,-15 -89,-33 -107,-41 -17,-8 -36,-15 -41,-15 -5,0 -43,-16 -83,-36 -88,-43 -109,-52 -213,-94 -44,-18 -87,-36 -95,-41 -9,-4 -45,-18 -81,-29 -83,-28 -220,-88 -240,-105 -9,-8 -49,-28 -90,-45 -41,-17 -88,-37 -105,-45 -16,-7 -50,-20 -75,-28 -55,-19 -141,-56 -235,-102 -89,-44 -236,-105 -252,-105 -7,0 -29,-9 -49,-21 -20,-11 -79,-31 -131,-45 -52,-13 -125,-40 -161,-58 -68,-35 -158,-71 -247,-101 -27,-9 -54,-20 -60,-25 -19,-16 -126,-49 -181,-56 -45,-5 -57,-11 -64,-29 -5,-12 -24,-29 -43,-39 -55,-25 -169,-157 -212,-244 -21,-42 -50,-102 -66,-132 -40,-80 -56,-127 -113,-328 -8,-29 -18,-87 -21,-128 -6,-89 -20,-156 -42,-201 -11,-24 -14,-51 -10,-101 3,-37 1,-110 -4,-162 -5,-52 -12,-131 -15,-175 -7,-90 -7,-612 0,-721 2,-39 0,-90 -4,-115 -5,-24 -10,-91 -11,-149 -2,-58 -9,-130 -17,-160 -10,-38 -12,-84 -8,-150 8,-130 6,-278 -4,-305 -12,-30 6,-53 45,-57 24,-2 30,-7 28,-25 -3,-24 11,-31 23,-12 7,13 55,3 69,-14 6,-7 30,-23 54,-36 24,-13 73,-46 109,-73 60,-44 66,-47 78,-30 12,16 13,15 8,-4 -5,-18 5,-28 58,-59 73,-44 147,-96 200,-139 68,-57 102,-81 110,-79 4,2 8,-1 8,-5 0,-5 21,-23 46,-41 25,-18 71,-56 102,-83 31,-28 93,-74 137,-103 44,-29 103,-74 130,-99 51,-48 132,-96 160,-96 9,0 29,-13 45,-29 16,-16 36,-31 45,-34 8,-4 15,-13 15,-21 0,-14 79,-86 95,-86 5,0 15,-7 24,-15 38,-36 117,-95 127,-95 6,0 60,-39 120,-86 60,-48 132,-102 159,-120 87,-58 100,-68 112,-85 19,-25 79,-83 100,-95 17,-11 17,-12 0,-31 -14,-16 -15,-22 -5,-31 17,-13 49,3 78,40 12,16 26,28 31,28 15,0 50,40 44,50 -4,6 1,10 10,10 14,0 93,46 105,61 7,9 83,49 93,49 22,0 163,108 247,190 82,80 185,160 205,160 19,0 135,66 135,77 0,7 7,10 14,7 17,-6 65,25 66,42 0,7 8,11 18,10 10,0 16,5 14,14 -2,8 0,12 4,8 4,-4 34,17 67,48 78,72 120,98 204,125 82,27 96,35 195,116 42,35 87,69 100,76 88,46 179,113 204,148 38,55 101,109 171,147 32,17 88,61 124,99 50,51 89,79 155,113 92,46 209,143 200,167 -3,6 1,10 7,7 7,-2 22,4 33,15 12,10 36,26 53,36 l 33,17 -7,-30 c -8,-38 9,-50 36,-26 12,10 19,30 19,51 0,26 5,36 20,40 11,3 20,8 20,12 0,4 16,15 35,24 23,11 35,24 35,37 0,34 -57,20 -92,-24 -18,-20 -18,-20 -13,34 2,30 7,72 11,93 5,26 2,42 -8,55 -12,13 -14,32 -9,80 4,34 4,62 1,62 -3,0 -5,29 -5,65 0,45 -4,65 -12,65 -7,0 -13,5 -13,11 0,5 3,8 8,6 7,-5 16,230 17,456 0,70 2,127 6,127 6,0 6,-22 11,510 2,286 6,411 15,425 7,13 10,52 8,105 -12,240 -18,326 -26,336 -5,6 -4,15 3,22 8,8 8,15 0,24 -6,8 -13,36 -16,63 -10,105 -19,154 -27,149 -9,-5 -14,19 -9,41 1,6 -2,6 -7,2 -4,-5 -12,18 -18,50 -5,32 -14,58 -20,58 -10,-1 -24,32 -51,120 -9,28 -20,54 -25,60 -5,5 -9,22 -9,37 0,16 -4,36 -9,46 -5,9 -17,53 -26,97 -10,44 -31,103 -46,132 -42,78 -46,85 -64,131 -10,23 -22,42 -27,42 -4,0 -8,9 -8,19 0,11 -4,23 -10,26 -5,3 -17,23 -27,43 -28,59 -138,212 -153,212 -4,0 -23,15 -42,33 -30,31 -91,65 -261,149 -72,35 -157,58 -218,58 -26,0 -49,5 -51,11 -2,5 -6,8 -9,5 z m 56,-71 c 94,-11 190,-39 230,-66 21,-15 45,-25 52,-22 7,3 13,1 13,-4 0,-9 88,-39 103,-35 4,1 7,-2 7,-7 0,-5 18,-22 40,-39 22,-16 37,-31 34,-34 -3,-4 2,-5 10,-4 17,1 127,-147 152,-206 9,-21 20,-38 25,-38 11,0 120,-224 142,-290 9,-25 18,-63 22,-85 4,-22 11,-53 16,-70 4,-16 9,-47 11,-67 1,-21 6,-38 10,-38 4,0 8,-9 8,-19 0,-26 37,-111 48,-111 5,0 19,-24 31,-52 13,-29 30,-66 38,-83 8,-16 17,-54 20,-82 3,-29 10,-50 14,-47 13,8 11,-10 -2,-23 -8,-8 -7,-17 2,-34 17,-33 29,-337 20,-512 -1,-18 -99,-87 -123,-87 -20,0 -119,-70 -113,-80 3,-5 0,-12 -6,-16 -8,-4 -9,-3 -5,4 4,7 5,12 2,12 -3,0 -66,-29 -141,-64 -99,-48 -137,-71 -144,-88 -5,-13 -6,-27 -3,-33 3,-5 1,-7 -3,-2 -10,9 -45,-21 -45,-40 0,-16 -17,-17 -23,0 -4,7 -6,6 -6,-5 -1,-12 -10,-16 -35,-15 -35,1 -90,-28 -81,-42 2,-5 -3,-15 -12,-22 -15,-12 -16,-12 -10,4 6,15 4,16 -13,7 -13,-7 -17,-16 -13,-28 6,-14 4,-15 -9,-4 -13,10 -18,10 -24,1 -5,-8 -3,-9 6,-4 9,5 11,4 6,-3 -4,-7 -14,-12 -22,-12 -12,0 -18,-11 -16,-31 1,-3 -9,-5 -21,-5 -12,1 -22,-4 -22,-11 0,-20 -14,-26 -29,-14 -13,11 -26,5 -75,-33 -33,-26 -66,-54 -73,-64 -7,-9 -24,-24 -38,-31 -85,-50 -127,-71 -141,-71 -17,0 -29,-19 -29,-47 0,-14 2,-14 23,0 13,8 42,21 65,27 22,7 61,29 86,49 102,82 125,99 239,171 37,23 67,46 67,51 0,5 6,9 13,9 22,0 86,60 80,75 -3,8 0,15 7,15 6,0 8,-5 4,-11 -5,-9 1,-10 19,-5 53,13 74,25 133,75 32,29 106,75 164,104 58,29 123,64 145,78 22,14 60,33 85,43 25,10 60,25 78,34 17,8 34,13 37,10 12,-12 29,-793 17,-812 -7,-13 -7,-6 -22,-191 -7,-82 -9,-177 -6,-210 9,-84 8,-533 0,-547 -8,-12 -9,-23 -12,-146 -2,-69 -3,-73 -29,-83 -28,-10 -155,-114 -162,-132 -9,-25 -41,-50 -101,-80 -36,-18 -66,-35 -68,-39 -2,-5 -10,-8 -18,-8 -8,0 -44,-29 -80,-65 -36,-36 -67,-65 -70,-65 -8,0 -39,-33 -39,-41 0,-4 -4,-11 -9,-16 -6,-5 -6,-2 -1,6 6,11 4,13 -11,6 -10,-4 -34,-13 -52,-20 -40,-14 -102,-63 -102,-80 0,-7 -9,-24 -20,-37 -10,-14 -17,-28 -15,-32 3,-3 2,-4 -1,-1 -8,5 -34,-20 -34,-34 0,-6 -8,-11 -17,-11 -10,0 -29,-10 -43,-21 -14,-11 -19,-17 -11,-13 9,5 12,3 7,-5 -4,-6 -11,-9 -16,-6 -15,9 -81,-28 -76,-42 3,-7 -8,-20 -24,-28 -17,-9 -30,-13 -30,-11 0,3 -15,-9 -32,-26 -18,-16 -50,-43 -70,-58 -21,-15 -34,-30 -30,-34 3,-4 -1,-4 -10,-1 -9,4 -19,2 -23,-4 -3,-6 -15,-11 -26,-11 -12,0 -17,-4 -13,-11 4,-8 0,-9 -15,-4 -11,3 -21,3 -21,-2 0,-4 -12,-9 -26,-10 -15,0 -30,-6 -34,-13 -4,-6 -10,-11 -14,-11 -19,3 -29,-3 -72,-41 -85,-76 -113,-106 -106,-114 4,-4 2,-4 -5,-1 -6,4 -29,-8 -50,-26 -22,-18 -58,-41 -81,-51 -23,-10 -39,-23 -35,-29 3,-6 1,-7 -5,-3 -16,10 -54,-12 -46,-26 4,-7 2,-8 -5,-4 -17,11 -211,-89 -211,-109 -1,-15 -96,-115 -109,-115 -6,0 -11,-5 -11,-10 0,-6 -20,-19 -44,-30 -24,-10 -47,-23 -50,-29 -11,-17 -145,-92 -182,-103 -19,-5 -34,-13 -34,-17 0,-5 -15,-18 -32,-30 -18,-12 -51,-34 -73,-51 -22,-16 -49,-29 -59,-30 -17,0 -18,6 -13,64 l 6,65 -30,-4 c -17,-2 -27,0 -23,6 3,5 1,16 -6,24 -6,8 -7,16 -2,19 17,10 25,96 10,114 -7,9 -8,13 -2,9 18,-11 24,44 23,193 -1,74 3,169 10,210 13,88 10,331 -3,327 -9,-3 -9,-26 -2,-164 1,-24 -2,-43 -6,-43 -4,0 -7,-21 -5,-48 1,-26 -2,-58 -6,-72 -6,-19 -6,-21 2,-10 9,13 11,13 11,0 0,-9 -4,-20 -9,-25 -6,-6 -11,-36 -13,-68 -2,-33 -6,-61 -9,-63 -3,-2 -2,-29 2,-60 4,-31 5,-63 2,-71 -3,-8 0,-25 7,-38 11,-20 10,-26 -4,-40 -9,-10 -16,-34 -17,-58 0,-64 -9,-180 -14,-195 -3,-8 -18,3 -41,28 -20,22 -42,40 -48,40 -7,0 -23,12 -37,26 -14,15 -31,23 -41,21 -12,-4 -18,1 -18,13 0,16 -68,70 -90,70 -5,0 -10,4 -10,10 0,15 -39,47 -145,117 -55,37 -105,74 -112,82 -6,9 -14,13 -18,9 -4,-4 -18,6 -32,23 -14,16 -30,29 -37,29 -7,0 -32,23 -56,50 -32,37 -66,61 -125,89 -51,25 -104,61 -145,100 -36,33 -78,67 -95,76 -86,46 -129,75 -173,118 -26,26 -52,47 -58,47 -5,0 -16,9 -24,20 -8,11 -18,20 -22,20 -8,0 -21,11 -81,62 -18,15 -39,25 -47,23 -8,-3 -22,0 -30,6 -12,8 -10,9 8,4 12,-3 22,-4 22,-2 0,8 -114,93 -169,126 -29,18 -59,30 -67,27 -9,-3 -11,0 -7,11 5,13 2,15 -12,9 -11,-4 -16,-4 -12,0 10,11 -31,36 -46,28 -6,-4 -9,-4 -5,1 4,4 -7,21 -25,36 -18,16 -39,36 -48,45 -10,8 -41,28 -70,43 -30,15 -55,34 -57,43 -2,8 15,26 38,42 36,24 52,46 33,46 -13,0 -98,-44 -105,-55 -11,-16 -63,20 -66,47 -2,13 -10,30 -17,38 -18,20 -39,134 -25,138 11,4 13,54 4,89 -4,13 -11,20 -17,16 -13,-8 -1,147 17,207 7,25 14,88 14,140 1,52 6,127 12,165 6,40 7,89 2,115 -11,64 -5,712 8,759 5,21 11,70 11,110 1,62 4,71 20,71 10,0 33,8 51,18 18,10 53,24 78,31 43,12 118,41 168,64 12,6 22,14 22,19 0,15 -49,8 -112,-16 -35,-13 -83,-29 -108,-35 -25,-7 -52,-14 -60,-17 -8,-2 -21,0 -29,5 -11,7 -11,20 -2,73 6,36 11,89 11,120 0,30 6,68 14,84 8,16 17,58 21,94 17,165 147,483 245,601 22,26 40,51 40,57 0,33 194,127 292,142 43,6 91,15 107,20 16,4 49,4 74,-2 31,-6 52,-6 65,1 16,8 21,7 26,-5 4,-11 14,-13 40,-8 45,8 227,-30 281,-59 40,-22 145,-96 177,-126 63,-57 197,-203 198,-213 0,-13 48,-77 53,-72 3,3 10,-4 17,-15 6,-12 8,-21 4,-21 -3,0 -2,-6 4,-12 22,-29 82,-154 82,-173 0,-12 15,-53 33,-91 19,-38 42,-95 52,-127 10,-32 22,-60 26,-63 5,-3 9,-18 9,-34 0,-15 5,-30 10,-32 15,-5 60,-182 70,-276 5,-46 15,-94 23,-105 8,-12 16,-58 19,-102 3,-44 11,-93 19,-110 12,-27 33,-181 44,-330 3,-33 10,-98 16,-145 9,-77 19,-330 20,-547 0,-46 5,-85 10,-88 5,-4 6,-11 3,-17 -4,-6 -10,-5 -15,3 -6,9 -7,3 -4,-16 2,-16 6,-135 9,-263 2,-128 7,-236 10,-239 17,-17 25,202 16,432 -6,145 -3,214 15,300 3,17 8,40 11,52 3,16 14,24 42,29 59,10 179,84 168,103 -4,5 4,15 16,21 22,11 22,10 4,-4 -31,-25 0,-19 68,13 59,29 115,75 104,86 -3,3 -12,-1 -21,-9 -8,-8 -17,-12 -21,-9 -3,4 -6,0 -6,-7 0,-7 -3,-11 -6,-7 -4,3 -13,0 -21,-8 -8,-8 -30,-15 -50,-15 -46,0 -133,-51 -133,-78 0,-5 -11,-13 -25,-16 -14,-4 -25,-11 -25,-16 0,-5 -7,-6 -17,-3 -9,4 -14,2 -11,-3 4,-5 -9,-9 -28,-9 -19,0 -39,7 -44,15 -9,15 -26,158 -20,175 8,25 -18,249 -30,253 -4,2 -4,17 0,34 7,22 5,34 -6,45 -9,9 -14,32 -13,61 0,26 -2,70 -5,97 -3,28 -7,64 -9,81 -2,17 -7,36 -11,42 -3,6 -7,27 -8,47 -1,19 -5,35 -10,35 -5,0 -9,10 -8,23 6,67 -1,137 -15,151 -9,8 -15,33 -15,59 0,24 -7,64 -16,88 -8,24 -15,58 -16,74 0,17 -6,39 -12,50 -7,11 -25,58 -40,105 -15,47 -34,99 -41,115 -37,86 -65,161 -71,191 -3,19 -10,34 -14,34 -5,0 -12,10 -16,23 -3,12 -12,29 -19,37 -8,8 -13,18 -12,21 1,4 -10,26 -25,49 -16,23 -28,45 -28,49 0,4 -11,18 -25,31 -14,13 -25,29 -25,36 0,6 -7,17 -15,24 -8,7 -13,15 -11,19 2,3 -8,15 -22,25 -15,12 -22,14 -17,5 7,-12 6,-12 -6,-1 -8,7 -14,17 -14,22 0,5 -21,34 -48,64 -31,36 -53,53 -62,50 -8,-4 -15,-1 -15,6 0,6 -4,9 -9,5 -5,-3 -13,0 -17,6 -3,6 -1,15 6,19 9,6 7,11 -9,19 -12,7 -19,16 -16,22 4,5 -1,9 -9,9 -9,0 -16,8 -16,18 -1,11 -26,30 -78,55 -42,21 -82,38 -88,38 -6,-1 -31,8 -55,18 -43,19 -199,37 -281,33 -32,-2 -38,1 -38,18 0,23 17,32 61,34 16,1 29,6 29,12 0,7 11,15 25,18 16,4 23,11 19,18 -5,7 -3,8 5,3 8,-4 46,8 92,30 70,33 95,42 122,44 5,1 6,5 3,9 -3,5 8,8 24,7 17,-1 30,2 30,6 0,4 11,10 25,13 14,4 25,11 25,16 0,5 7,6 17,3 10,-4 14,-2 10,4 -7,11 22,28 31,18 3,-3 -1,-5 -8,-5 -7,0 -11,-2 -8,-5 8,-8 59,6 53,14 -2,4 6,7 18,7 13,-1 21,4 19,12 -1,6 6,12 15,12 24,0 94,25 88,31 -2,3 11,5 30,5 40,0 56,11 35,25 -13,9 -13,10 0,8 27,-3 41,1 36,9 -3,5 9,9 26,10 17,0 36,6 42,13 8,9 8,10 -3,4 -9,-5 -12,-4 -7,3 4,6 13,9 21,5 8,-3 23,-2 33,2 9,5 24,9 32,11 8,2 16,8 18,14 2,5 9,7 15,3 6,-4 8,0 4,9 -4,11 1,16 19,16 14,0 33,7 43,16 19,17 36,22 26,7 -11,-19 46,-3 73,20 15,13 35,22 45,21 10,-2 17,3 17,12 0,10 6,13 15,10 9,-4 15,0 15,9 0,12 8,14 37,10 31,-5 35,-4 30,11 -4,9 -3,15 1,13 12,-8 54,12 47,22 -3,5 0,13 6,17 7,4 9,3 5,-4 -9,-15 16,-21 39,-8 24,13 35,27 29,37 -2,4 2,6 9,6 24,-1 77,16 77,25 0,5 4,7 9,3 5,-3 12,-1 15,4 3,5 14,7 24,4 25,-6 95,24 87,37 -4,6 1,7 11,3 12,-5 15,-3 9,6 -5,10 -2,11 14,6 14,-4 23,-1 27,9 3,9 10,13 15,10 5,-3 9,0 9,6 0,6 10,8 24,4 31,-7 67,11 60,31 -4,10 0,15 16,15 11,0 18,-4 15,-10 -3,-6 1,-7 9,-4 9,3 13,10 10,15 -3,5 2,6 10,3 18,-7 65,25 66,46 1,10 3,11 7,3 6,-15 39,-17 48,-3 3,6 19,10 36,10 16,0 29,4 29,9 0,12 65,37 120,46 25,4 54,12 65,19 11,7 55,27 97,44 61,25 86,31 116,26 34,-5 42,-3 59,19 21,27 92,52 127,44 11,-3 44,-1 71,3 28,4 59,6 70,4 11,-2 43,-6 70,-9 z"
           id="path8" />
        <path
           inkscape:connector-curvature="0"
           style="fill:#cb3c32;fill-opacity:1"
           d="m 4358,5747 c -24,-19 -70,-175 -69,-234 1,-35 -4,-56 -14,-67 -9,-9 -13,-16 -8,-16 4,0 4,-4 -2,-8 -18,-13 -34,-49 -25,-58 5,-5 10,-20 12,-34 3,-28 41,-39 68,-20 13,9 13,12 -2,20 -14,8 -17,22 -14,63 1,29 6,59 11,67 10,17 10,55 0,93 -7,26 -1,50 31,124 8,17 14,38 14,46 0,9 6,17 13,20 6,2 9,7 6,11 -3,3 -12,0 -21,-7 z"
           id="path10" />
        <path
           inkscape:connector-curvature="0"
           style="fill:#cb3c32;fill-opacity:1"
           d="m 5016,3725 c -3,-8 -17,-20 -31,-25 -14,-5 -25,-14 -25,-20 0,-6 5,-8 11,-4 7,4 10,1 7,-7 -3,-8 -9,-14 -14,-15 -21,-2 -44,-17 -38,-25 3,-5 -1,-6 -9,-3 -16,6 -42,-21 -33,-35 3,-5 -3,-7 -14,-4 -12,3 -29,-2 -40,-12 -11,-10 -20,-14 -20,-9 0,5 -4,3 -8,-3 -7,-11 -32,-19 -65,-22 -5,-1 -5,-6 -1,-13 5,-8 2,-9 -11,-4 -14,5 -16,4 -7,-7 9,-10 9,-14 -1,-14 -16,0 -89,-34 -104,-49 -7,-6 -9,-14 -6,-18 4,-3 -8,-6 -25,-6 -17,0 -45,-8 -62,-18 -24,-15 -27,-21 -17,-32 10,-10 9,-12 -6,-7 -18,7 -69,-22 -92,-51 -6,-7 -53,-34 -105,-60 -52,-26 -93,-51 -92,-56 2,-5 -10,-15 -27,-24 -18,-8 -31,-22 -31,-33 0,-22 15,-25 27,-6 4,7 19,18 33,25 14,7 54,30 90,52 36,22 75,45 88,50 12,5 25,17 28,25 4,8 12,15 20,15 8,0 14,4 14,9 0,10 74,55 185,112 38,20 69,42 67,48 -1,7 3,11 10,9 17,-3 78,33 72,43 -2,4 5,5 15,2 11,-3 33,4 50,16 16,12 33,21 38,21 19,0 137,124 139,146 3,27 -1,31 -10,9 z"
           id="path12" />
      </g>
      <path
         style="color:#000000;fill:#cb3c32;fill-opacity:1;fill-rule:nonzero;stroke:#c42836;stroke-width:0;stroke-linecap:square;stroke-linejoin:round;stroke-miterlimit:4;stroke-opacity:1;stroke-dasharray:none;stroke-dashoffset:0;marker:none;visibility:visible;display:inline;overflow:visible;enable-background:accumulate"
         id="path2993"
         d="m 459.39845,669.37749 c 0.69121,-3.90699 0.88747,-7.8788 1.08043,-11.83489 0.26768,-4.82805 0.1728,-9.65833 -0.14394,-14.47986 -0.24453,-2.51834 -0.61116,-5.02113 -0.83236,-7.54195 -0.20382,-2.17211 0.40301,-4.31589 0.76882,-6.44106 0.4983,-3.27303 0.87447,-6.55983 1.09655,-9.86277 0.14975,-2.12192 0.19955,-4.25611 -0.25624,-6.34279 0,0 2.57533,-1.38268 2.57533,-1.38268 l 0,0 c 0.46195,2.11852 0.42722,4.28502 0.24987,6.43857 -0.23092,3.31144 -0.62538,6.60414 -1.08997,9.8907 -0.34095,2.0991 -0.90685,4.21318 -0.75239,6.35294 0.18706,2.53667 0.53391,5.05599 0.75163,7.58992 0.28007,4.8379 0.38386,9.68405 0.12018,14.52638 -0.18187,3.93833 -0.39776,7.87791 -0.89506,11.79141 0,0 -2.67285,1.29608 -2.67285,1.29608 z"
         inkscape:connector-curvature="0"
         transform="scale(0.8,0.8)" />
      <path
         style="color:#000000;fill:#cb3c32;fill-opacity:1;fill-rule:nonzero;stroke:#c42836;stroke-width:0;stroke-linecap:square;stroke-linejoin:round;stroke-miterlimit:4;stroke-opacity:1;stroke-dasharray:none;stroke-dashoffset:0;marker:none;visibility:visible;display:inline;overflow:visible;enable-background:accumulate"
         id="path2995"
         d="m 513.74644,487.31716 c 0.58694,-0.73306 1.08743,-1.53497 1.75951,-2.19505 1.07215,-0.90802 2.3796,-1.46676 3.599,-2.15299 0.22216,-0.12502 0.89713,-0.48431 0.67686,-0.35598 -0.74382,0.43333 -1.49744,0.84964 -2.24616,1.27446 0.37221,-0.23512 0.19299,-0.11392 0.53841,-0.3625 0,0 2.75188,-1.10595 2.75188,-1.10595 l 0,0 c -0.32522,0.29315 -0.14925,0.16192 -0.52897,0.39228 -0.94267,0.55041 -1.88237,1.10591 -2.82799,1.65123 -0.10752,0.062 -0.22071,0.11357 -0.33101,0.17048 -1.70236,0.87843 3.09649,-1.98731 1.44611,-0.88585 -0.11821,0.0789 -0.22643,0.17182 -0.33964,0.25772 -0.72476,0.5929 -1.19649,1.40645 -1.76964,2.1364 0,0 -2.72836,1.17575 -2.72836,1.17575 z"
         inkscape:connector-curvature="0"
         transform="scale(0.8,0.8)" />
      <path
         style="color:#000000;fill:#cb3c32;fill-opacity:1;fill-rule:nonzero;stroke:#c42836;stroke-width:0;stroke-linecap:square;stroke-linejoin:round;stroke-miterlimit:4;stroke-opacity:1;stroke-dasharray:none;stroke-dashoffset:0;marker:none;visibility:visible;display:inline;overflow:visible;enable-background:accumulate"
         id="path2997"
         d="m 622.75578,414.67976 c 1.63781,-1.07872 3.334,-2.09374 5.13185,-2.88162 0.84369,-0.46307 1.7731,-0.71949 2.68539,-1.00756 0.9367,-0.42846 2.77578,-1.45975 -1.38106,0.84116 -0.1107,0.0613 0.2082,-0.14388 0.31027,-0.21864 0.56336,-0.41262 0.0166,-0.0385 0.58874,-0.42066 0.25078,-0.19664 7.93872,-4.40691 1.98205,-1.03076 0,0 2.7623,-1.07516 2.7623,-1.07516 l 0,0 c -0.94177,0.54799 -1.87954,1.10293 -2.82533,1.64398 -0.0853,0.0488 -0.58061,0.2777 -0.66521,0.31625 -0.11901,0.0542 -0.46967,0.22851 -0.35811,0.16026 0.61397,-0.37558 3.16185,-1.86609 1.86758,-1.08371 -0.33019,0.18507 -0.58518,0.45374 -0.9019,0.64527 -1.16488,0.70441 -2.39694,1.54861 -3.71473,2.03234 -0.90593,0.29634 -1.81955,0.57208 -2.66116,1.03096 -0.97122,0.45129 -2.72659,1.53862 1.12778,-0.77083 0.28654,-0.17169 -0.57305,0.34352 -0.85545,0.52195 -0.10915,0.069 -0.22158,0.13261 -0.33238,0.19891 0,0 -2.76063,1.09786 -2.76063,1.09786 z"
         inkscape:connector-curvature="0"
         transform="scale(0.8,0.8)" />
    </g>
    <path
       inkscape:connector-curvature="0"
       id="path3788"
       d="m 370.60471,630.26226 0.59814,-6.38298 -2.63697,0 c -2.07578,0 -2.74638,-0.43593 -3.15108,-2.04839 -0.28276,-1.12661 -0.066,-2.8857 0.4817,-3.90908 0.54769,-1.02337 0.89707,-3.64415 0.7764,-5.82395 -0.12068,-2.17979 0.0324,-4.92071 0.34011,-6.09092 0.65281,-2.4824 2.4712,-38.2606 2.85479,-56.17021 0.14537,-6.78723 0.48655,-21.34043 0.75818,-32.34043 0.27162,-11 0.4748,-34.3617 0.45151,-51.91489 -0.0394,-29.65188 0.49907,-39.85493 2.51569,-47.67195 0.70993,-2.75195 1.27483,-3.17823 7.06521,-5.33156 7.09307,-2.63778 13.03211,-6.56822 14.16048,-9.37135 0.41633,-1.03425 0.78123,-1.40733 0.81091,-0.82905 0.12868,2.50808 13.43071,-4.45476 17.30359,-9.05742 1.21821,-1.44776 2.76723,-2.63229 3.44226,-2.63229 0.67503,0 1.6961,-0.56482 2.26903,-1.25517 0.57293,-0.69034 5.43287,-3.77652 10.79985,-6.85817 5.36699,-3.08165 11.99487,-7.3998 14.72863,-9.5959 2.73376,-2.19609 8.5224,-5.90777 12.86367,-8.24821 4.34125,-2.34042 9.45107,-5.39844 11.35516,-6.79559 1.90407,-1.39715 4.89813,-3.19757 6.65345,-4.00094 1.75532,-0.80337 3.19149,-1.86237 3.19149,-2.35335 0,-0.49096 1.00657,-0.89267 2.23683,-0.89267 3.7209,0 10.96002,-4.8247 16.95565,-11.30053 3.11764,-3.36734 6.10664,-6.12856 6.64223,-6.13606 3.36145,-0.047 13.93065,-5.43735 20.62088,-10.51667 4.20749,-3.1944 11.66306,-8.50048 16.56792,-11.79128 4.90486,-3.29081 9.43757,-6.60942 10.07269,-7.37469 0.63513,-0.76527 1.52747,-1.39141 1.98301,-1.39141 1.56518,0 5.942,-3.64288 7.55502,-6.28813 0.8881,-1.45642 1.61616,-2.18763 1.61791,-1.62492 0.007,2.14192 7.74491,-1.3384 15.11471,-6.79791 11.62414,-8.61112 48.62439,-28.21977 50.22626,-26.61792 0.93308,0.93308 1.75924,21.10115 2.04163,49.83952 0.21645,22.02788 -0.0102,30.54255 -0.99644,37.44681 -0.99892,6.99246 -1.22335,16.06315 -1.03181,41.70213 0.13464,18.02128 -0.14688,37.3617 -0.62559,42.97873 -0.47871,5.61701 -1.10267,13.57212 -1.38656,17.67801 -0.50599,7.3179 -0.56923,7.49242 -3.20419,8.8412 -3.87411,1.98308 -10.54038,7.47312 -15.45398,12.72721 -2.72613,2.91504 -7.42465,6.36976 -13.0747,9.61356 -5.88637,3.37947 -11.54705,7.58228 -17.02128,12.63758 -5.81976,5.37437 -9.36699,7.969 -12.21343,8.93354 -6.22486,2.10934 -11.25117,6.03431 -14.12971,11.03372 -2.97956,5.17484 -7.36948,10.02454 -9.07417,10.02454 -0.64442,0 -1.92481,0.95744 -2.84529,2.12765 -0.9205,1.17022 -2.53904,2.12767 -3.59676,2.12767 -1.1525,0 -3.18254,1.36416 -5.06594,3.40425 -1.72854,1.87234 -3.57006,3.40426 -4.09228,3.40426 -0.52222,0 -4.34002,2.82194 -8.48402,6.27099 -4.14399,3.44904 -8.94576,6.7813 -10.6706,7.40501 -1.72484,0.6237 -3.13608,1.48473 -3.13608,1.91337 0,0.42865 -0.76557,0.57916 -1.70128,0.33446 -0.9357,-0.24469 -1.91575,-0.0979 -2.17788,0.32627 -0.26214,0.42415 -1.08727,0.77117 -1.83363,0.77117 -3.47684,0 -10.97257,4.76974 -17.51601,11.14594 -3.84118,3.74299 -10.43077,8.98387 -14.64354,11.6464 -4.21276,2.66253 -7.85106,5.07513 -8.0851,5.36136 -0.23404,0.28622 -1.47872,0.77815 -2.76596,1.09318 -1.28724,0.31502 -2.34043,1.13995 -2.34043,1.83317 0,0.71258 -0.77594,1.26037 -1.78532,1.26037 -3.31794,0 -16.35173,7.08524 -19.47725,10.58795 -6.09167,6.82678 -13.01981,13.32157 -15.62734,14.64982 -1.4765,0.75213 -5.78031,3.41672 -9.56402,5.92133 -3.7837,2.5046 -8.99097,5.48763 -11.5717,6.62895 -2.58074,1.14133 -7.33604,4.0572 -10.56734,6.47972 -5.97886,4.48236 -11.4201,7.64713 -13.14786,7.64713 -0.67745,0 -0.7826,-1.8673 -0.35945,-6.38298 l 0,0 z"
       style="color:#000000;fill:#cfcfcf;fill-opacity:1;fill-rule:nonzero;stroke:#c42836;stroke-width:0;stroke-linecap:square;stroke-linejoin:round;stroke-miterlimit:4;stroke-opacity:1;stroke-dasharray:none;stroke-dashoffset:0;marker:none;visibility:visible;display:inline;overflow:visible;enable-background:accumulate" />
    <path
       inkscape:connector-curvature="0"
       id="path3790"
       d="m 357.63993,626.26854 c -6.59208,-5.45897 -10.62877,-8.3467 -11.66773,-8.34673 -0.50973,-2e-5 -1.95021,-1.28268 -3.20107,-2.85036 -1.25086,-1.5677 -3.66761,-3.51152 -5.37055,-4.31963 -1.70293,-0.80808 -3.30532,-2.01412 -3.56087,-2.68007 -0.44537,-1.16061 -26.04735,-19.93715 -27.18449,-19.93715 -0.67328,0 -5.4492,-3.93281 -12.50094,-10.29411 -2.90349,-2.6192 -8.91737,-6.89405 -13.36418,-9.49966 -4.4468,-2.6056 -10.87491,-7.09867 -14.28467,-9.98459 -3.40977,-2.88593 -9.48506,-7.27572 -13.50069,-9.7551 -4.0156,-2.47938 -9.65133,-6.47772 -12.52383,-8.8852 -13.31019,-11.15542 -21.48972,-17.11071 -23.5206,-17.12468 -1.55158,-0.0106 -1.80841,-0.21681 -0.94858,-0.76136 0.88128,-0.55812 -0.42679,-1.9343 -5.17908,-5.4488 -8.89901,-6.58112 -14.37123,-9.94863 -16.16662,-9.94863 -0.84453,0 -1.53989,-0.47872 -1.54527,-1.06382 -0.006,-0.58511 -1.60932,-1.82979 -3.56434,-2.76596 -1.955,-0.93617 -5.34584,-3.44617 -7.53518,-5.57778 -2.18934,-2.13162 -6.71305,-5.52661 -10.05269,-7.54446 -3.33964,-2.01784 -6.07207,-4.16948 -6.07207,-4.78143 0,-0.61195 1.53192,-2.4239 3.40426,-4.02655 3.05362,-2.61378 4.37039,-4.87829 2.83664,-4.87829 -0.3122,0 -3.05632,1.36796 -6.09807,3.03991 -5.45249,2.99706 -5.55937,3.01805 -7.58373,1.48937 -1.12932,-0.85281 -3.17352,-4.10346 -4.54267,-7.22368 -2.55047,-5.8124 -3.17031,-10.98268 -2.04318,-17.04284 0.40397,-2.172 0.16338,-3.98521 -0.77959,-5.87544 -1.71424,-3.43628 -1.73073,-9.36943 -0.0518,-18.64264 2.28859,-12.64066 3.14304,-31.78794 3.00034,-67.23404 -0.12421,-30.85025 0.28606,-42.2041 2.36278,-65.38824 l 0.55888,-6.23929 4.25532,-1.56403 c 2.34043,-0.86021 7.89362,-2.90174 12.34043,-4.53672 12.60308,-4.63387 16.17021,-6.34867 16.17021,-7.7734 0,-1.9054 -1.18327,-1.70039 -14.56142,2.52295 -11.87851,3.74992 -15.59242,4.47457 -16.35656,3.19149 -0.6294,-1.05684 1.86021,-23.26968 3.17161,-28.29787 0.67145,-2.57447 1.64527,-7.25554 2.16405,-10.40237 2.89765,-17.57681 13.75904,-43.98807 23.37148,-56.83168 1.9268,-2.57446 4.15457,-5.69716 4.95063,-6.93931 3.02735,-4.72386 18.78799,-11.78695 32.02903,-14.35373 7.8877,-1.52903 22.36252,-1.85931 23.68147,-0.54036 0.30624,0.30625 2.56567,0.55681 5.02095,0.55681 5.50353,0 16.07528,1.97289 22.89963,4.27351 2.93014,0.9878 8.45077,4.10771 12.91261,7.29739 8.93151,6.38495 25.2028,22.60833 29.21499,29.12896 1.49466,2.42913 3.35825,4.89307 4.1413,5.4754 1.78251,1.3256 8.7354,15.46089 11.92132,24.2362 1.31986,3.6354 4.30457,11.39705 6.6327,17.24812 7.96368,20.01439 9.95125,26.56351 12.26857,40.42553 0.93901,5.61702 2.24639,11.93616 2.9053,14.04255 0.6589,2.10638 1.43458,6.12766 1.72373,8.93617 0.28914,2.80851 1.25641,8.3617 2.14949,12.34043 1.45816,6.49621 4.84697,35.47603 6.36932,54.46808 0.31893,3.97873 0.87732,17.95745 1.24089,31.06383 0.36356,13.10638 0.94269,24.50434 1.28695,25.3288 0.44821,1.07337 0.29696,1.37247 -0.53264,1.05335 -0.9638,-0.37073 -1.06425,2.16744 -0.59745,15.09674 0.98496,27.28123 0.52504,87.47933 -0.78621,102.90799 -0.37113,4.36669 -0.31153,7.17122 0.14637,6.88819 0.44479,-0.27493 0.50192,0.39117 0.13469,1.57057 -1.90336,6.11294 -2.77158,16.15173 -2.13793,24.71957 0.51188,6.92124 0.39366,9.82874 -0.50175,12.34042 -0.64426,1.80722 -1.21658,6.1582 -1.27182,9.66884 -0.0553,3.51063 -0.35929,8.03261 -0.67566,10.04883 l -0.57521,3.66584 -4.42677,-3.66584 0,0 z"
       style="color:#000000;fill:#e8e8e8;fill-opacity:1;fill-rule:nonzero;stroke:#c42836;stroke-width:0;stroke-linecap:square;stroke-linejoin:round;stroke-miterlimit:4;stroke-opacity:1;stroke-dasharray:none;stroke-dashoffset:0;marker:none;visibility:visible;display:inline;overflow:visible;enable-background:accumulate" />
    <path
       inkscape:connector-curvature="0"
       id="path3798"
       d="m 374.74309,408.57919 c -2.27461,-0.91929 -2.71131,-3.3984 -3.75131,-21.29565 -0.4488,-7.7234 -1.24604,-15.76596 -1.77163,-17.87234 -0.5256,-2.10638 -0.91736,-5.24994 -0.87057,-6.98566 0.0468,-1.73573 -0.28406,-4.12669 -0.73518,-5.31325 -0.45114,-1.18656 -1.20743,-6.85152 -1.68067,-12.58881 -0.47323,-5.73729 -1.4694,-13.11228 -2.21368,-16.38888 -0.74429,-3.27659 -1.68007,-9.65649 -2.07953,-14.17755 -0.39946,-4.52107 -1.32868,-9.38503 -2.06494,-10.8088 -0.73627,-1.42379 -1.33867,-3.70518 -1.33867,-5.06978 0,-5.1628 -4.40197,-21.52052 -9.43224,-35.05025 -2.87151,-7.7234 -6.49059,-17.48936 -8.04238,-21.70213 -3.04505,-8.26658 -11.36735,-24.28083 -15.89413,-30.5844 -1.54081,-2.14556 -3.96988,-5.52479 -5.39795,-7.50939 -1.42807,-1.98458 -2.99886,-3.60833 -3.49063,-3.60833 -0.49177,0 -2.78752,-2.48937 -5.10167,-5.53192 -2.961,-3.89303 -5.40721,-6.11037 -8.25692,-7.48441 -3.29346,-1.588 -3.95052,-2.264 -3.51975,-3.62121 0.3471,-1.09364 0.0694,-1.84531 -0.80565,-2.18111 -0.7344,-0.28182 -1.33528,-0.86717 -1.33528,-1.30078 0,-1.76497 -6.03109,-6.63729 -11.36968,-9.18516 -12.19529,-5.82028 -24.12517,-8.56776 -37.20221,-8.56776 -4.29032,0 -7.73273,-0.38002 -8.04689,-0.88834 -0.89586,-1.44952 1.25129,-3.28086 4.57664,-3.9035 2.89529,-0.54211 7.85131,-3.33197 8.49605,-4.78263 0.15602,-0.35106 0.85864,-0.63829 1.56138,-0.63829 0.70274,0 4.944,-1.53192 9.42503,-3.40426 4.48104,-1.87234 8.85288,-3.40426 9.71522,-3.40426 0.86233,0 1.56787,-0.38297 1.56787,-0.85106 0,-0.46808 0.8617,-0.85567 1.91489,-0.86131 1.05319,-0.006 3.58165,-0.96309 5.61879,-2.12767 2.03714,-1.16456 4.23926,-2.1174 4.89362,-2.1174 0.65434,0 1.18972,-0.34712 1.18972,-0.77139 0,-0.42426 0.76528,-0.57125 1.70062,-0.32666 0.93534,0.2446 2.64527,-0.17424 3.79985,-0.93075 1.15457,-0.7565 2.65525,-1.37545 3.33483,-1.37545 0.67959,0 1.36328,-0.34977 1.51931,-0.77726 0.32928,-0.90216 9.30307,-4.25949 13.04964,-4.8822 4.57979,-0.7612 4.99273,-1.0244 3.82143,-2.43573 -0.88412,-1.0653 -0.70451,-1.26652 1.13052,-1.26652 1.19991,0 2.41834,-0.38297 2.70763,-0.85106 0.28929,-0.46809 1.43347,-0.85106 2.54263,-0.85106 1.10914,0 2.5911,-0.57448 3.29323,-1.2766 0.70213,-0.70213 2.06729,-1.2766 3.03368,-1.2766 2.62404,0 8.57727,-2.79748 8.57727,-4.03055 0,-0.5917 0.67021,-1.07726 1.48936,-1.07901 0.81915,-0.002 2.73404,-0.76208 4.25532,-1.68962 1.52128,-0.92754 2.76596,-1.30909 2.76596,-0.84788 0,0.4612 0.47872,0.8387 1.06383,0.83888 1.34365,4.2e-4 12.03,-5.3125 12.41134,-6.17054 0.15603,-0.35106 0.80722,-0.6383 1.44707,-0.6383 0.63987,0 1.51523,-0.6287 1.94526,-1.39712 0.55574,-0.99305 1.49101,-1.26135 3.23378,-0.9277 1.48431,0.28417 2.95569,0.0114 3.7285,-0.69104 0.70213,-0.63824 2.04696,-1.85284 2.9885,-2.69908 0.94155,-0.84626 2.42806,-1.40073 3.30335,-1.23216 2.12763,0.40974 5.47542,-1.459796 6.09183,-3.401932 0.27334,-0.861224 1.22295,-1.565856 2.11026,-1.565856 0.88729,0 3.55652,-0.76596 5.9316,-1.702128 2.37508,-0.936176 5.39964,-1.702128 6.72124,-1.702128 1.32161,0 3.76565,-0.924768 5.4312,-2.05504 1.66555,-1.130272 3.2509,-1.8324 3.52302,-1.56028 0.27211,0.272112 0.49474,0.04792 0.49474,-0.49816 0,-0.546096 0.67022,-1.005088 1.48937,-1.019968 0.81915,-0.01488 2.23277,-0.58936 3.14139,-1.2766 0.90861,-0.68724 2.91924,-1.249528 4.46808,-1.249528 2.75004,0 5.58361,-1.930808 6.40107,-4.361703 0.32709,-0.972702 0.65569,-0.954747 1.94691,0.106383 1.18374,0.972814 1.6386,1.023443 1.91144,0.212766 0.19694,-0.585107 1.12156,-1.06383 2.05474,-1.06383 0.93316,0 2.75801,-1.053191 4.05522,-2.340426 1.3287,-1.318496 3.43688,-2.410612 4.82814,-2.501167 4.56271,-0.296981 8.41623,-1.313704 9.89825,-2.611585 0.80917,-0.708621 5.21343,-2.351303 9.78723,-3.650403 4.57383,-1.299101 11.76285,-3.805968 15.97561,-5.570817 4.93159,-2.065984 9.47823,-3.344847 12.76596,-3.590763 4.05899,-0.303605 5.66999,-0.874307 7.85415,-2.782373 3.07873,-2.689557 4.65861,-3.038956 16.96978,-3.752957 13.04398,-0.756501 30.89609,2.59732 38.38813,7.211858 1.53259,0.943961 3.32985,1.716293 3.99391,1.716293 0.66406,0 2.47394,0.728845 4.02198,1.619656 1.54804,0.89081 4.10784,1.88935 5.68845,2.218977 4.80015,1.00104 16.27966,12.142815 22.30863,21.652299 2.24001,3.533176 5.40178,8.530344 7.02614,11.104816 8.64458,13.700916 15.32693,30.469506 17.97505,45.106376 0.80453,4.44681 1.78306,8.85106 2.17453,9.78724 0.39147,0.93617 1.33715,3.6911 2.10152,6.12206 0.76438,2.43096 2.08152,5.3033 2.927,6.38297 3.16281,4.03893 7.90334,14.74602 9.11729,20.59259 0.69106,3.32823 1.61369,6.17795 2.05028,6.33273 0.47905,0.16983 0.45434,0.91575 -0.0623,1.88114 -0.58138,1.08633 -0.5559,2.7713 0.0794,5.25049 0.51455,2.00793 1.14005,14.2129 1.39,27.12216 l 0.45447,23.47136 -3.26,2.68717 c -1.793,1.47794 -4.42379,3.22146 -5.84621,3.87447 -1.42243,0.65302 -3.96595,1.82407 -5.65229,2.60233 -1.68634,0.77826 -4.51107,2.73859 -6.27718,4.35628 -1.76612,1.6177 -3.5688,2.94127 -4.00596,2.94127 -0.43716,0 -6.26446,2.62403 -12.94954,5.83117 -8.12659,3.89871 -12.693,6.59977 -13.77903,8.15039 -0.89339,1.27557 -2.67754,3.45198 -3.96477,4.83648 -1.28723,1.38448 -2.34042,2.928 -2.34042,3.43002 0,0.50202 -0.53704,0.7067 -1.1934,0.45482 -0.65636,-0.25187 -1.45357,-0.19709 -1.77157,0.12172 -0.318,0.31881 -2.74426,1.15487 -5.39168,1.85792 -3.83621,1.01873 -5.05139,1.77459 -5.98515,3.72282 -0.90517,1.88857 -1.34706,2.17854 -1.94286,1.27493 -0.6211,-0.94196 -1.0843,-0.7969 -2.3797,0.74526 -0.88467,1.05319 -2.28114,1.9149 -3.10328,1.9149 -0.82212,0 -1.2419,0.25288 -0.93282,0.56196 0.30908,0.30907 -0.20155,1.09675 -1.13474,1.75038 -0.9332,0.65363 -1.69672,1.74118 -1.69672,2.41676 0,0.67559 -0.77798,1.22834 -1.72884,1.22834 -0.95087,0 -1.96022,0.60297 -2.24301,1.33991 -0.35619,0.92821 -1.14054,1.1827 -2.55275,0.82826 -2.35985,-0.59229 -6.82639,2.19573 -14.01722,8.74957 -4.39827,4.00863 -16.65394,11.20992 -19.07786,11.20992 -0.64739,0 -1.74843,1.05319 -2.44676,2.34043 -0.69834,1.28723 -1.28504,1.82765 -1.30377,1.20094 -0.022,-0.73382 -0.96631,-0.35506 -2.65258,1.06383 -1.44016,1.21182 -3.01674,2.20331 -3.50351,2.20331 -0.48676,0 -0.67922,0.78698 -0.4277,1.74884 0.33892,1.296 -0.0761,1.95166 -1.60286,2.53213 -1.13311,0.43081 -2.0602,1.17575 -2.0602,1.65542 0,0.47966 -0.80181,0.87212 -1.7818,0.87212 -1.06606,0 -1.96061,0.68375 -2.22692,1.70213 -0.24482,0.93617 -0.94346,1.70212 -1.55253,1.70212 -0.60907,0 -3.01364,0.95745 -5.34349,2.12767 -2.32984,1.17021 -4.79207,2.12765 -5.47161,2.12765 -1.45805,0 -4.90024,2.81521 -4.90024,4.00768 0,0.45611 -1.49652,1.27765 -3.32559,1.82565 -1.82908,0.54801 -4.49403,2.08786 -5.92212,3.42188 -1.42808,1.33403 -3.99334,2.65219 -5.70058,2.92923 -4.08246,0.66249 -7.26294,2.77772 -6.63542,4.413 0.35456,0.92401 -0.0993,1.27491 -1.64897,1.27491 -1.176,0 -3.66175,1.2729 -5.52389,2.82867 -1.86213,1.55576 -7.37737,5.01404 -12.25606,7.68506 -5.66905,3.10372 -10.86847,6.76688 -14.4068,10.15005 -6.19784,5.92607 -10.62798,8.62761 -15.60482,9.51601 -4.74907,0.84774 -9.46657,3.44442 -11.66862,6.42286 -1.0354,1.40045 -2.21201,2.54628 -2.61468,2.54628 -0.40267,0 -2.31748,0.76596 -4.25512,1.70213 -3.85983,1.86487 -4.47529,1.94005 -7.12264,0.87012 l 0,0 z m 58.02943,-235.873 c 0.25659,-0.41517 -0.17886,-1.40025 -0.96767,-2.18906 -1.20209,-1.20209 -1.32899,-2.33734 -0.78407,-7.01475 0.35756,-3.0693 0.73336,-8.83586 0.83511,-12.81459 0.13837,-5.41079 0.77069,-8.8428 2.50885,-13.61701 1.27812,-3.51064 2.71912,-6.86171 3.20222,-7.44681 0.64184,-0.77736 0.49392,-1.06383 -0.54926,-1.06383 -2.71522,0 -8.14249,15.82805 -8.14249,23.74666 0,1.89928 -1.08979,5.39635 -2.66231,8.54326 -2.4588,4.92048 -2.58527,5.58489 -1.65447,8.69162 0.62655,2.09123 1.70227,3.62077 2.84334,4.04288 2.006,0.74206 4.63501,0.3121 5.37075,-0.87837 l 0,0 z"
       style="color:#000000;fill:url(#linearGradient3009);fill-opacity:1;fill-rule:nonzero;stroke:#c42836;stroke-width:0;stroke-linecap:square;stroke-linejoin:round;stroke-miterlimit:4;stroke-opacity:1;stroke-dasharray:none;stroke-dashoffset:0;marker:none;visibility:visible;display:inline;overflow:visible;enable-background:accumulate" />
  </g>
</svg>
