<?xml version="1.0" encoding="UTF-8" standalone="no"?>
<svg
   xmlns:dc="http://purl.org/dc/elements/1.1/"
   xmlns:cc="http://creativecommons.org/ns#"
   xmlns:rdf="http://www.w3.org/1999/02/22-rdf-syntax-ns#"
   xmlns:svg="http://www.w3.org/2000/svg"
   xmlns="http://www.w3.org/2000/svg"
   xmlns:sodipodi="http://sodipodi.sourceforge.net/DTD/sodipodi-0.dtd"
   xmlns:inkscape="http://www.inkscape.org/namespaces/inkscape"
   version="1.0"
   width="784.000000pt"
   height="701.000000pt"
   viewBox="0 0 784.000000 701.000000"
   preserveAspectRatio="xMidYMid meet"
   id="svg2"
   inkscape:version="0.48.4 r9939"
   sodipodi:docname="Roof3_1.svg">
  <defs
     id="defs16" />
  <sodipodi:namedview
     pagecolor="#ffffff"
     bordercolor="#666666"
     borderopacity="1"
     objecttolerance="10"
     gridtolerance="10"
     guidetolerance="10"
     inkscape:pageopacity="0"
     inkscape:pageshadow="2"
     inkscape:window-width="1056"
     inkscape:window-height="992"
     id="namedview14"
     showgrid="false"
     inkscape:zoom="1.02"
     inkscape:cx="437.89781"
     inkscape:cy="445.1229"
     inkscape:window-x="681"
     inkscape:window-y="79"
     inkscape:window-maximized="0"
     inkscape:current-layer="svg2" />
  <metadata
     id="metadata4">
Created by potrace 1.14, written by Peter Selinger 2001-2017
<rdf:RDF>
  <cc:Work
     rdf:about="">
    <dc:format>image/svg+xml</dc:format>
    <dc:type
       rdf:resource="http://purl.org/dc/dcmitype/StillImage" />
    <dc:title></dc:title>
  </cc:Work>
</rdf:RDF>
</metadata>
  <g
     id="g3774">
    <g
       style="fill:#cb3c32;fill-opacity:1"
       id="g2995">
      <g
         style="fill:#cb3c32;fill-opacity:1"
         transform="translate(0.000000,701.000000) scale(0.100000,-0.100000)"
         fill="#000000"
         stroke="none"
         id="g6">
        <path
           style="fill:#cb3c32;fill-opacity:1"
           d="M4930 6610 c-6 -11 -17 -20 -25 -20 -7 0 -23 -12 -34 -26 -28 -36 -147 -125 -235 -176 -39 -23 -91 -56 -116 -74 -61 -43 -117 -75 -245 -137 -46 -23 -190 -100 -295 -159 -25 -14 -99 -53 -165 -88 -166 -88 -368 -206 -445 -261 -36 -26 -103 -66 -149 -90 -46 -24 -86 -52 -89 -61 -2 -10 -11 -18 -18 -18 -8 0 -44 -21 -81 -46 -38 -26 -87 -55 -111 -65 -24 -10 -41 -23 -37 -29 3 -5 0 -7 -8 -4 -14 5 -230 -116 -242 -136 -13 -20 -85 -64 -230 -138 -49 -25 -100 -56 -113 -68 -12 -12 -44 -27 -70 -34 -59 -16 -85 -38 -79 -67 3 -16 -11 -37 -59 -85 -34 -35 -71 -70 -81 -78 -155 -124 -295 -249 -338 -302 -16 -20 -65 -64 -107 -98 -43 -34 -78 -65 -78 -69 0 -4 -38 -40 -85 -81 -46 -40 -91 -88 -100 -106 -8 -18 -27 -42 -42 -54 -23 -18 -28 -19 -48 -6 -26 17 -39 10 -50 -24 -4 -14 -16 -36 -26 -49 -14 -17 -16 -28 -8 -42 5 -10 14 -19 18 -19 15 0 23 -141 22 -407 0 -157 -4 -280 -11 -313 -13 -59 -24 -246 -33 -537 0 -18 -4 -33 -9 -33 -5 0 -6 -4 -3 -10 11 -17 8 -154 -5 -199 -7 -28 -12 -118 -11 -243 0 -189 -1 -198 -19 -198 -16 0 -48 -37 -38 -44 2 -2 58 -29 125 -61 68 -33 123 -62 123 -67 0 -4 5 -8 10 -8 6 0 10 8 10 19 0 21 -49 61 -100 81 -19 7 -39 17 -45 22 -21 19 -25 243 -7 463 7 88 14 239 16 335 3 96 8 186 12 199 5 17 4 22 -4 17 -7 -4 -12 -2 -12 3 0 6 4 11 8 11 4 0 8 39 9 87 2 168 6 224 16 211 5 -8 6 -2 2 17 -4 17 -9 113 -11 215 -2 102 -5 224 -6 273 -4 102 9 119 15 20 2 -42 4 -20 5 55 2 136 -1 128 87 202 17 14 46 46 67 70 20 25 57 65 83 90 26 25 64 62 84 84 20 21 52 49 71 62 47 32 199 184 206 206 3 10 13 18 23 18 9 0 37 21 61 46 25 25 68 63 95 84 28 20 89 74 136 118 l86 81 94 -3 c64 -2 104 -8 124 -19 17 -9 35 -17 41 -17 5 0 33 -11 61 -25 28 -13 64 -27 80 -31 15 -4 35 -12 43 -18 35 -26 63 -36 142 -51 78 -16 270 -77 383 -123 28 -11 70 -26 94 -33 53 -16 71 -32 64 -59 -4 -14 3 -24 25 -37 23 -13 35 -31 48 -73 9 -30 23 -59 31 -63 7 -4 13 -13 13 -19 0 -6 11 -26 25 -44 14 -18 25 -39 25 -46 1 -7 9 -31 20 -53 11 -22 19 -46 20 -53 0 -7 4 -20 9 -30 32 -66 46 -96 46 -101 1 -14 28 -87 36 -97 5 -6 6 -14 3 -17 -4 -3 5 -25 19 -49 60 -103 77 -138 77 -158 0 -11 9 -30 20 -42 11 -12 20 -27 20 -34 0 -7 14 -38 31 -68 16 -31 27 -56 23 -56 -4 0 1 -9 11 -20 18 -20 35 -18 35 3 0 8 -3 8 -9 -2 -5 -8 -11 -9 -15 -3 -3 6 -2 13 3 16 6 4 4 17 -5 34 -7 15 -14 33 -14 40 0 7 -13 33 -30 57 -17 24 -30 51 -30 59 0 9 -5 16 -11 16 -5 0 -8 4 -5 9 13 20 -83 198 -99 183 -5 -4 -5 -1 -1 5 4 7 0 34 -9 60 -9 27 -19 59 -21 73 -3 14 -12 30 -20 37 -15 11 -31 54 -60 161 -13 48 -57 139 -73 152 -3 3 -15 29 -25 59 l-19 55 21 14 c12 8 22 24 22 36 0 12 12 28 28 38 125 80 165 106 217 147 33 26 84 61 114 79 29 18 65 44 80 58 14 14 49 39 76 55 28 17 77 47 110 69 33 21 74 46 90 54 17 9 42 24 56 33 80 56 229 152 250 163 13 7 26 16 29 20 3 3 48 32 100 64 52 32 104 66 115 76 11 9 45 30 75 46 30 16 59 32 65 37 103 74 152 107 161 107 6 0 21 9 34 20 13 11 27 20 33 20 5 0 23 11 41 25 17 14 36 29 42 34 6 5 20 11 31 15 10 3 28 14 39 24 56 50 201 152 294 206 83 47 200 122 222 141 9 8 48 31 85 51 37 20 73 39 78 44 6 4 25 12 43 18 26 9 32 8 32 -4 0 -8 4 -22 9 -32 42 -80 71 -143 81 -177 12 -37 31 -80 52 -115 5 -8 14 -27 21 -42 6 -16 14 -28 18 -28 21 0 13 38 -22 107 -22 42 -41 87 -43 98 -10 50 -21 82 -40 115 -16 26 -21 52 -21 104 0 47 -4 71 -12 73 -7 3 -13 11 -13 19 0 8 -7 17 -15 20 -8 4 -15 14 -15 23 0 26 -90 62 -192 76 -128 19 -218 39 -254 58 -16 8 -84 29 -149 46 -188 47 -216 57 -280 91 -54 30 -140 60 -172 60 -7 0 -17 -9 -23 -20z m149 -67 c62 -28 154 -62 190 -69 13 -3 36 -11 51 -19 15 -8 36 -12 47 -9 11 3 55 -6 97 -21 45 -16 85 -24 99 -20 14 4 18 3 9 -3 -17 -12 47 -39 113 -47 51 -6 104 -19 140 -35 11 -5 33 -11 48 -15 16 -3 44 -22 64 -41 l35 -36 -23 -16 c-13 -9 -47 -36 -76 -59 -29 -24 -56 -43 -60 -43 -5 0 -23 -13 -41 -28 -19 -16 -57 -41 -85 -57 -29 -15 -62 -36 -73 -47 -12 -11 -29 -20 -37 -22 -8 -1 -31 -14 -50 -29 -20 -15 -38 -27 -41 -27 -12 0 -208 -140 -252 -181 -12 -10 -27 -19 -33 -19 -6 0 -59 -31 -117 -70 -57 -38 -109 -70 -114 -70 -6 0 -10 -4 -10 -9 0 -5 -10 -13 -22 -17 -13 -4 -43 -21 -67 -38 -116 -82 -137 -96 -146 -96 -5 -1 -26 -14 -45 -30 -19 -17 -38 -30 -44 -30 -5 0 -24 -11 -42 -25 -18 -14 -37 -25 -42 -25 -4 0 -26 -15 -48 -32 -46 -39 -57 -45 -178 -115 -11 -7 -50 -33 -86 -58 -81 -57 -215 -139 -257 -159 -17 -8 -58 -34 -89 -58 -32 -24 -89 -65 -128 -91 -39 -27 -80 -57 -91 -67 -11 -10 -30 -21 -42 -24 -11 -4 -24 -13 -27 -22 -3 -8 -25 -23 -48 -33 -24 -10 -52 -28 -64 -38 -30 -30 -91 -48 -118 -35 -11 6 -32 13 -46 15 -62 13 -171 47 -235 75 -87 37 -241 87 -320 103 -33 7 -64 16 -69 21 -6 4 -19 8 -31 8 -12 0 -63 22 -115 48 -52 27 -114 54 -137 60 -108 30 -123 36 -123 50 0 17 34 49 60 57 10 3 21 12 24 20 3 8 13 15 23 15 10 0 29 9 43 20 14 11 33 20 42 20 9 0 21 6 25 13 4 7 27 21 50 31 23 10 50 28 60 38 10 11 43 36 73 56 30 19 64 43 75 53 22 19 63 43 180 104 100 52 128 69 186 117 26 21 52 38 58 38 6 0 8 8 5 18 -4 13 -3 14 4 4 7 -11 19 -9 60 12 27 14 56 31 63 38 8 8 30 24 49 37 19 14 46 34 60 46 14 12 49 32 77 44 29 12 74 36 100 53 26 18 86 52 133 76 47 24 90 48 96 53 15 12 147 79 157 79 5 0 23 11 40 24 18 13 70 43 117 66 47 24 103 55 125 70 22 15 43 28 47 29 45 9 161 69 223 116 33 24 71 49 85 55 14 6 89 54 168 106 103 69 142 100 142 115 0 17 5 19 38 13 20 -3 61 -17 91 -31z"
           id="path8" />
        <path
           style="fill:#cb3c32;fill-opacity:1"
           d="M6202 5738 c2 -13 14 -45 27 -71 13 -27 24 -59 24 -72 0 -13 16 -43 38 -67 21 -24 50 -73 65 -110 15 -37 35 -75 46 -84 10 -10 18 -23 18 -30 0 -8 10 -36 21 -63 17 -38 26 -48 44 -47 25 1 23 22 -2 43 -8 6 -13 16 -10 20 3 5 -7 29 -24 54 -16 24 -29 51 -29 59 0 26 -73 170 -86 170 -7 0 -15 14 -19 30 -4 17 -11 28 -16 25 -5 -4 -6 1 -3 9 3 9 1 16 -5 16 -6 0 -11 11 -11 23 0 20 -64 117 -77 117 -2 0 -2 -10 -1 -22z"
           id="path10" />
        <path
           style="fill:#cb3c32;fill-opacity:1"
           d="M6521 5158 c11 -21 11 -22 -4 -9 -10 7 -17 10 -17 6 0 -9 27 -70 53 -120 58 -111 97 -194 97 -208 0 -6 8 -19 18 -30 19 -21 27 -143 10 -164 -5 -6 -30 -23 -56 -36 -26 -14 -85 -53 -132 -88 -47 -35 -117 -84 -155 -109 -39 -24 -72 -47 -75 -51 -5 -7 -120 -84 -241 -161 -41 -26 -113 -78 -162 -115 -158 -122 -298 -227 -361 -270 -33 -24 -60 -47 -59 -52 2 -6 -3 -8 -11 -5 -30 11 -217 -109 -208 -134 5 -16 -15 -16 -21 1 -4 10 -6 10 -6 0 -1 -7 -8 -13 -17 -13 -10 0 -14 -6 -11 -14 4 -11 1 -13 -10 -9 -11 5 -14 3 -9 -6 6 -9 2 -12 -10 -11 -11 1 -27 2 -36 1 -16 -1 -196 -133 -338 -247 -25 -20 -48 -45 -52 -55 -4 -10 -19 -21 -33 -25 -26 -6 -35 -24 -12 -25 6 0 -5 -7 -25 -16 -21 -8 -38 -19 -38 -24 0 -5 -5 -9 -11 -9 -13 0 -89 -59 -132 -102 -15 -15 -31 -28 -36 -28 -5 0 -13 -9 -16 -21 -4 -11 -9 -18 -12 -15 -3 3 -27 -10 -53 -29 -26 -19 -53 -35 -59 -35 -6 0 -11 -4 -11 -9 0 -5 -17 -16 -37 -25 -21 -9 -46 -21 -56 -27 -14 -8 -19 -4 -27 18 -6 16 -15 35 -20 43 -6 8 -13 22 -16 30 -3 8 -14 33 -24 55 -10 22 -27 60 -38 85 -31 71 -52 113 -65 135 -35 57 -50 74 -60 68 -6 -3 -7 -1 -3 5 8 14 -18 55 -28 45 -4 -4 -5 -1 -1 7 3 9 -3 20 -14 27 -32 20 -37 -15 -6 -47 14 -14 25 -29 25 -33 0 -8 60 -100 74 -112 18 -15 91 -200 115 -290 25 -89 34 -105 59 -98 10 2 29 0 44 -6 26 -10 26 -12 28 -113 3 -121 3 -117 0 -418 -2 -129 -3 -370 -2 -535 1 -334 -3 -530 -13 -573 -3 -16 -8 -96 -11 -178 -3 -82 -6 -158 -6 -169 -1 -11 0 -54 1 -95 7 -174 7 -174 -49 -214 -58 -42 -61 -42 -85 -16 -10 11 -28 20 -40 20 -11 0 -25 4 -31 10 -5 5 -20 11 -33 13 -12 2 -26 8 -29 14 -12 18 -114 64 -337 153 -93 37 -269 122 -273 132 -2 4 -12 8 -23 8 -11 0 -54 19 -97 41 -42 23 -95 50 -117 61 -22 12 -41 24 -43 29 -2 5 -9 9 -16 9 -6 0 -30 9 -51 21 -22 11 -69 32 -105 45 -36 14 -81 36 -100 48 -66 43 -145 83 -200 101 -30 9 -73 26 -96 36 -22 10 -46 19 -52 19 -7 0 -12 4 -12 9 0 6 -26 18 -57 28 -32 9 -62 23 -66 30 -4 7 -16 13 -25 13 -9 0 -26 7 -36 15 -10 8 -23 12 -29 8 -6 -3 -7 -1 -3 6 5 8 -27 28 -96 61 -57 27 -110 50 -119 50 -9 0 -19 3 -23 8 -4 4 -11 7 -14 7 -4 0 -50 26 -103 58 -66 39 -102 55 -114 50 -13 -4 -16 -3 -11 6 5 8 1 14 -12 17 -11 3 -39 16 -63 30 -24 13 -64 33 -89 44 -104 49 -137 66 -173 89 -32 20 -40 22 -47 11 -13 -22 9 -42 39 -36 14 3 20 3 13 0 -16 -7 3 -34 23 -34 8 0 15 -4 17 -8 1 -5 35 -21 73 -36 39 -15 86 -38 105 -50 19 -12 73 -39 120 -60 47 -22 111 -56 143 -78 31 -21 83 -48 115 -59 75 -27 183 -78 272 -128 40 -23 84 -44 98 -48 14 -3 37 -12 51 -19 14 -8 31 -14 38 -14 6 0 13 -4 15 -10 2 -5 50 -28 107 -49 57 -22 111 -46 120 -54 9 -7 59 -35 111 -60 52 -26 102 -51 110 -57 8 -5 50 -24 94 -41 43 -17 100 -47 128 -65 67 -46 403 -210 458 -224 25 -7 74 -27 111 -46 36 -19 74 -36 85 -38 40 -9 235 -119 251 -142 25 -39 113 -27 144 19 4 6 17 7 28 4 25 -6 71 31 71 57 0 9 25 43 55 76 30 33 55 64 55 68 0 17 357 372 373 372 10 0 50 33 90 74 40 40 110 97 157 127 47 29 99 66 115 82 17 15 49 42 72 60 23 18 41 37 38 43 -2 7 4 10 15 7 13 -4 35 9 67 40 26 25 62 56 78 69 31 24 53 43 171 149 39 35 97 82 129 104 73 51 174 134 245 201 63 60 186 156 227 178 15 8 46 33 68 56 42 43 103 89 158 116 18 9 46 29 62 45 17 15 49 40 71 56 23 15 66 51 96 78 30 28 82 73 116 100 127 102 136 111 129 130 -4 9 -16 19 -26 22 -33 8 -38 42 -34 208 4 165 5 356 3 529 -1 81 -5 102 -18 113 -12 9 -14 15 -6 20 11 8 25 87 30 173 5 101 5 330 -1 340 -3 5 -2 10 4 10 12 0 13 137 2 209 -4 27 -4 99 0 158 10 130 -3 194 -42 203 -18 4 -29 21 -49 71 -22 56 -41 94 -81 159 -5 8 -18 34 -30 58 -12 23 -28 42 -35 42 -10 0 -13 7 -9 23 4 15 -2 37 -15 60 -24 40 -38 51 -19 15z m237 -698 c2 -80 3 -188 4 -240 2 -117 -7 -413 -13 -426 -2 -5 -3 -40 -3 -79 5 -204 4 -416 -1 -424 -3 -6 -1 -12 4 -15 4 -3 7 -34 5 -68 -1 -35 -5 -125 -9 -200 -3 -75 -9 -159 -14 -185 -6 -28 -6 -54 0 -65 18 -34 7 -57 -61 -127 -39 -39 -74 -71 -78 -71 -4 0 -29 -21 -55 -45 -26 -25 -51 -45 -56 -45 -4 0 -16 -9 -27 -21 -10 -11 -64 -50 -119 -86 -92 -61 -178 -139 -169 -154 2 -4 -4 -6 -14 -5 -9 0 -16 -4 -15 -10 1 -7 -5 -11 -15 -10 -9 0 -16 -4 -15 -11 2 -7 -3 -10 -10 -8 -15 6 -89 -59 -79 -70 4 -4 2 -5 -5 -1 -15 8 -53 -14 -53 -32 0 -7 -4 -11 -9 -8 -13 9 -104 -82 -95 -95 4 -8 3 -9 -4 -5 -10 6 -41 -16 -94 -67 -10 -9 -22 -17 -28 -17 -5 0 -10 -4 -10 -9 0 -5 -12 -12 -26 -15 -29 -8 -87 -52 -173 -134 -31 -30 -83 -76 -116 -103 -33 -26 -96 -78 -140 -114 -43 -36 -83 -65 -87 -65 -4 0 -8 -7 -8 -16 0 -8 -4 -13 -9 -10 -13 9 -62 -34 -54 -47 3 -7 3 -9 -2 -5 -4 4 -29 -10 -54 -31 -25 -21 -61 -46 -80 -56 -23 -11 -30 -19 -22 -25 9 -5 8 -9 -4 -13 -9 -4 -13 -3 -10 3 3 6 1 10 -6 10 -6 0 -46 -35 -89 -78 -43 -42 -95 -86 -116 -97 -38 -20 -358 -335 -397 -390 -11 -16 -34 -43 -50 -59 -24 -24 -31 -26 -42 -15 -11 11 -12 35 -6 106 4 51 5 114 1 140 -4 27 -4 58 1 70 16 42 21 270 23 963 1 388 4 710 8 716 4 5 3 27 -2 47 -4 20 -5 37 -1 37 3 0 5 40 3 88 -3 87 -3 88 23 100 14 7 28 19 31 27 4 8 12 15 19 15 7 0 29 15 48 33 19 17 58 53 87 80 29 26 47 47 41 47 -7 0 -9 5 -5 11 4 8 9 7 14 -2 6 -9 18 -3 47 25 21 21 61 51 88 67 28 15 75 51 105 80 30 28 100 85 155 125 55 41 117 88 137 105 21 16 65 46 99 65 105 59 179 107 179 115 0 4 6 9 13 11 10 3 173 98 255 150 15 10 41 25 57 34 27 15 61 42 120 93 43 37 224 171 309 227 145 97 188 127 251 174 33 26 96 68 140 95 69 42 92 58 150 103 33 26 102 62 115 59 12 -2 16 -28 18 -147z"
           id="path12" />
      </g>
      <path
         style="color:#000000;fill:#cb3c32;fill-opacity:1;fill-rule:nonzero;stroke:#c42836;stroke-width:0;stroke-linecap:square;stroke-linejoin:round;stroke-miterlimit:4;stroke-opacity:1;stroke-dasharray:none;stroke-dashoffset:0;marker:none;visibility:visible;display:inline;overflow:visible;enable-background:accumulate"
         id="path2993"
         d="m 478.37987,443.1246 c 0.40867,0.64499 0.94866,1.19255 1.39225,1.81449 0.37663,0.49907 0.70609,1.02771 1.02091,1.56691 0.19524,0.4424 0.32858,0.91414 0.47265,1.37639 0.11773,0.50167 0.26407,0.9966 0.36633,1.50191 0.0562,0.46242 0.12297,0.92154 0.19636,1.38175 0.0827,0.55253 0.17067,1.10581 0.26961,1.65595 0.32072,-0.38672 -0.83299,0.46377 -1.28762,0.59216 -0.0783,0.0221 0.0155,-0.16208 0.0198,-0.24335 0.0209,-0.39461 -0.006,-0.76357 -0.0609,-1.15413 -0.0332,-0.15817 -0.34872,-1.38152 -0.65821,-1.10132 2.04943,-1.16187 0.99152,-1.06608 1.32048,-0.51499 0.082,0.13737 0.18665,0.25942 0.2678,0.39901 0.143,0.36191 0.25756,0.7303 0.42106,1.08444 0.2467,0.31804 0.58281,0.55424 0.91168,0.78287 0.0552,0.0454 0.11035,0.0908 0.16552,0.13626 0,0 -1.26026,0.79009 -1.26026,0.79009 l 0,0 c -0.0531,-0.0428 -0.10624,-0.0855 -0.15936,-0.12825 -0.34607,-0.24893 -0.70597,-0.49569 -0.95395,-0.84834 -0.1607,-0.34994 -0.28184,-0.71088 -0.41535,-1.07109 -0.53919,-0.91956 -0.73095,-0.63989 0.90207,-1.5275 0.53205,0.14287 0.62504,0.86975 0.7591,1.31195 0.0608,0.39656 0.0889,0.77217 0.0858,1.17324 -6.4e-4,0.084 0.0624,0.19899 -0.003,0.25192 -0.40614,0.32973 -0.87437,0.57631 -1.33123,0.83114 -0.0225,0.0126 -0.0256,-0.0448 -0.0383,-0.0672 -0.0812,-0.55438 -0.18216,-1.10496 -0.26597,-1.65846 -0.0731,-0.45864 -0.15146,-0.91368 -0.19518,-1.37626 -0.0961,-0.50171 -0.24331,-0.99118 -0.35618,-1.48903 -0.14202,-0.4517 -0.27768,-0.91012 -0.45936,-1.34643 -0.30676,-0.53833 -0.62766,-1.06632 -1.00214,-1.56131 -0.44564,-0.62365 -0.9783,-1.17692 -1.40967,-1.80974 0,0 1.28513,-0.75304 1.28513,-0.75304 z"
         inkscape:connector-curvature="0"
         transform="scale(0.8,0.8)" />
    </g>
    <path
       transform="scale(0.8,0.8)"
       inkscape:connector-curvature="0"
       d="m 773.07476,154.85935 c 0.47903,0.31889 0.985,0.59559 1.4406,0.9483 0.34762,0.28969 0.7008,0.55059 1.1076,0.75267 0.48339,0.21492 0.86592,0.44943 1.11231,0.92842 0.25819,0.44622 0.3078,0.95787 0.43394,1.44588 0.0764,0.34869 0.2876,0.64016 0.51546,0.90701 0,0 -1.55881,0.93652 -1.55881,0.93652 l 0,0 c -0.23964,-0.29078 -0.47115,-0.60233 -0.55387,-0.97717 -0.12724,-0.47439 -0.16005,-0.97749 -0.41615,-1.41141 -0.22307,-0.44343 -0.61575,-0.62799 -1.05213,-0.83205 -0.40845,-0.21666 -0.769,-0.48532 -1.12274,-0.78138 -0.46044,-0.34744 -0.96367,-0.62921 -1.44761,-0.94187 0,0 1.5414,-0.97492 1.5414,-0.97492 z"
       id="path3770"
       style="color:#000000;fill:#cb3c32;fill-opacity:1;fill-rule:nonzero;stroke:#c42836;stroke-width:0;stroke-linecap:square;stroke-linejoin:round;stroke-miterlimit:4;stroke-opacity:1;stroke-dasharray:none;stroke-dashoffset:0;marker:none;visibility:visible;display:inline;overflow:visible;enable-background:accumulate" />
    <path
       transform="scale(0.8,0.8)"
       inkscape:connector-curvature="0"
       d="m 808.49374,222.40694 c 0.48176,0.8184 1.13668,1.5061 1.74613,2.22702 0.64436,0.71571 1.22867,1.47886 1.79388,2.25749 0.3928,0.40078 0.62406,0.91019 0.9164,1.3789 0.28921,0.53839 0.58658,1.07122 0.86182,1.61754 0.37396,0.62784 0.62889,1.31034 0.87555,1.99486 0.18466,0.71882 0.26464,1.44967 0.46311,2.16678 0.16438,0.52652 0.45774,0.97454 0.8261,1.37872 0.0492,0.0593 0.0983,0.1186 0.14753,0.1779 0,0 -1.55868,0.93532 -1.55868,0.93532 l 0,0 c -0.0477,-0.0576 -0.0955,-0.11513 -0.14322,-0.1727 -0.37889,-0.4322 -0.6889,-0.9009 -0.85711,-1.45689 -0.19628,-0.7126 -0.29399,-1.43492 -0.46174,-2.15249 -0.2393,-0.67913 -0.48474,-1.35801 -0.85834,-1.97779 -0.27814,-0.53936 -0.57872,-1.06407 -0.86571,-1.59816 -0.28617,-0.46736 -0.51905,-0.96931 -0.89903,-1.37444 -0.55479,-0.77983 -1.13282,-1.54185 -1.7772,-2.25082 -0.61752,-0.72837 -1.26669,-1.43212 -1.7855,-2.23778 0,0 1.57601,-0.91346 1.57601,-0.91346 z"
       id="path3772"
       style="color:#000000;fill:#cb3c32;fill-opacity:1;fill-rule:nonzero;stroke:#c42836;stroke-width:0;stroke-linecap:square;stroke-linejoin:round;stroke-miterlimit:4;stroke-opacity:1;stroke-dasharray:none;stroke-dashoffset:0;marker:none;visibility:visible;display:inline;overflow:visible;enable-background:accumulate" />
  </g>
  <path
     style="color:#000000;fill:#ff8284;fill-opacity:1;fill-rule:nonzero;stroke:#c42836;stroke-width:0;stroke-linecap:square;stroke-linejoin:round;stroke-miterlimit:4;stroke-opacity:1;stroke-dasharray:none;stroke-dashoffset:0;marker:none;visibility:visible;display:inline;overflow:visible;enable-background:accumulate"
     d="m 517.03963,511.16878 c -1.53573,-3.32292 -6.05969,-13.16113 -10.05325,-21.8627 -7.13363,-15.54349 -13.12155,-25.75792 -15.09983,-25.75792 -0.55113,0 -1.00206,-0.94336 -1.00206,-2.09635 0,-1.15299 -0.94737,-2.68797 -2.10526,-3.41109 -1.1579,-0.72312 -2.10527,-2.11626 -2.10527,-3.09588 0,-0.97963 -0.94737,-2.0818 -2.10526,-2.44931 -1.2771,-0.40534 -2.10526,-1.59266 -2.10526,-3.01831 0,-1.29255 -0.41647,-2.80011 -0.92548,-3.35011 -0.509,-0.55 -1.51215,-2.89474 -2.2292,-5.21053 -0.71705,-2.31579 -3.15553,-7.60787 -5.41883,-11.76019 -2.2633,-4.1523 -5.05184,-10.27234 -6.19675,-13.60009 -2.19285,-6.37363 -6.38006,-14.26298 -9.44594,-17.79761 -1.00434,-1.1579 -2.66228,-5.59299 -3.68431,-9.85577 -1.02204,-4.26277 -3.15502,-10.18382 -4.73997,-13.1579 -1.58495,-2.97406 -4.80869,-11.17522 -7.16386,-18.22478 -2.35518,-7.04958 -5.48942,-14.72986 -6.96498,-17.06729 -1.47555,-2.33743 -3.93188,-7.36996 -5.45849,-11.18337 -2.75721,-6.88739 -2.76208,-6.94888 -0.73142,-9.24851 1.12433,-1.27326 2.8366,-3.5924 3.80503,-5.15365 0.96843,-1.56125 7.56904,-6.79255 14.66802,-11.62511 18.43981,-12.55274 34.10329,-23.6036 40.80197,-28.78653 3.18421,-2.46369 13.36842,-9.0605 22.63157,-14.65957 9.26316,-5.59907 21.34211,-13.17839 26.84211,-16.84294 5.5,-3.66455 21.8421,-14.23231 36.31579,-23.48391 14.47368,-9.25159 32.12367,-20.53834 39.22219,-25.08167 7.09851,-4.54332 14.9143,-9.47564 17.36842,-10.96071 2.45412,-1.48508 6.54974,-4.09034 9.1014,-5.78948 2.55166,-1.69914 7.2885,-4.78311 10.52632,-6.85327 3.23781,-2.07016 9.9141,-6.807 14.8362,-10.52631 4.92209,-3.71932 15.00185,-10.55186 22.39947,-15.18344 7.39762,-4.63158 19.9494,-12.57144 27.89284,-17.64412 15.73777,-10.05015 29.58544,-17.61904 32.23495,-17.61904 0.92475,0 1.68137,0.61716 1.68137,1.37147 0,0.75431 1.94824,5.37273 4.32944,10.26316 2.38119,4.89043 5.45968,11.86184 6.8411,15.49202 4.37048,11.48501 10.80054,23.38508 12.32067,22.80175 0.87258,-0.33484 1.83569,0.75982 2.57457,2.92621 4.2941,12.59044 7.67083,20.09441 11.65865,25.90857 2.51159,3.66185 5.74606,9.32505 7.18771,12.58488 1.44166,3.25983 3.50975,7.17483 4.59576,8.7 1.08602,1.52517 2.98889,5.48402 4.2286,8.79746 1.23972,3.31343 3.62984,7.43186 5.31139,9.15206 1.68156,1.7202 3.051,3.70341 3.04322,4.40714 -0.007,0.70372 4.06468,9.80581 9.0499,20.22686 4.98522,10.42105 10.22345,21.40525 11.64051,24.40934 2.1397,4.53606 2.52381,6.76657 2.26589,13.15789 l -0.31057,7.69593 -6.31579,4.11547 c -3.47368,2.26352 -14.13158,9.58338 -23.68421,16.26636 -9.55263,6.68299 -27.55263,18.97741 -40,27.32095 -19.64195,13.16609 -75.57329,54.02347 -83.1579,60.74614 -1.44736,1.28289 -3.94942,2.64322 -5.5601,3.02296 -4.70998,1.11045 -17.49299,9.23098 -21.50625,13.66205 -2.40801,2.6587 -3.95727,3.65933 -4.44466,2.87073 -0.49613,-0.80278 -2.03441,0.0386 -4.56641,2.49764 -2.18983,2.12674 -4.88286,3.70822 -6.31454,3.70822 -1.37298,0 -5.88538,2.33469 -10.02757,5.18819 -13.07701,9.00862 -37.88738,28.53072 -39.62009,31.17516 -0.91543,1.39712 -3.1194,3.29261 -4.89771,4.21221 -2.04521,1.05762 -3.0207,2.22605 -2.65471,3.1798 0.31823,0.8293 0.21397,1.5078 -0.23169,1.5078 -3.0398,0 -26.77678,18.18235 -31.05354,23.78677 -1.06144,1.39096 -2.37503,2.52902 -2.91908,2.52902 -0.54406,0 -4.61898,2.40375 -9.05538,5.34166 -9.0687,6.00554 -15.35252,9.40051 -17.36949,9.38422 -0.74675,-0.006 -2.61423,-2.72971 -4.14995,-6.05263 l 0,0 z"
     id="path3784"
     inkscape:connector-curvature="0"
     transform="scale(0.8,0.8)" />
  <path
     style="color:#000000;fill:#ff8284;fill-opacity:1;fill-rule:nonzero;stroke:#c42836;stroke-width:0;stroke-linecap:square;stroke-linejoin:round;stroke-miterlimit:4;stroke-opacity:1;stroke-dasharray:none;stroke-dashoffset:0;marker:none;visibility:visible;display:inline;overflow:visible;enable-background:accumulate"
     d="m 409.83186,302.5812 c -7.23685,-2.18514 -19.78948,-6.43908 -27.89474,-9.45319 -12.47499,-4.63907 -33.61752,-11.19341 -47.89474,-14.84771 -2.02631,-0.51864 -8.77332,-3.34422 -14.99335,-6.27906 -6.22002,-2.93485 -15.81213,-6.78594 -21.31579,-8.55798 -5.50365,-1.77205 -10.00665,-3.69401 -10.00665,-4.27105 0,-2.68413 9.28807,-9.57881 18.94737,-14.06491 3.76316,-1.74775 8.26316,-4.07534 10,-5.17243 1.73684,-1.0971 4.34211,-2.70043 5.78948,-3.56297 1.44736,-0.86253 8.36769,-5.75953 15.3785,-10.8822 7.0108,-5.12269 19.80028,-13.16769 28.42105,-17.8778 8.62077,-4.71011 19.60683,-11.39096 24.41347,-14.84634 4.80664,-3.45539 11.9119,-7.83185 15.78948,-9.72547 3.87757,-1.89363 11.55013,-6.75787 17.05013,-10.80941 5.5,-4.05155 13.05116,-8.89935 16.78036,-10.77289 3.72918,-1.87353 15.09761,-8.1447 25.26315,-13.93592 10.16554,-5.79121 22.74596,-12.66407 27.95649,-15.27301 5.21052,-2.60894 12.55263,-6.51891 16.31579,-8.68882 20.97135,-12.0925 31.83533,-17.95413 38.42105,-20.72996 4.05263,-1.70815 17.78947,-9.753661 30.52632,-17.878911 28.82867,-18.390758 37.02718,-24.114194 39.12205,-27.311348 2.33605,-3.565279 6.12466,-3.237287 18.08785,1.565925 14.87196,5.97108 32.18776,11.710837 35.32947,11.710837 3.12836,0 22.44606,5.001191 24.82905,6.428036 3.41418,2.044277 7.1654,3.262583 14.73684,4.786167 17.85441,3.592804 31.04489,9.117354 33.72487,14.124926 0.79125,1.478472 -0.42318,2.854394 -6.66781,7.554478 -7.50306,5.64726 -27.21778,19.07309 -36.53075,24.87764 -19.19522,11.96393 -28.99864,18.43696 -36.13733,23.86085 -8.85257,6.7261 -11.55193,8.49829 -30.17846,19.81291 -6.65789,4.04432 -13.05263,8.13709 -14.21052,9.09503 -1.1579,0.95795 -4.46402,3.08835 -7.34695,4.73422 -2.88291,1.64587 -8.69871,5.39563 -12.92398,8.33281 -4.22527,2.93716 -10.75615,7.23504 -14.51305,9.55083 -3.75691,2.31579 -11.85736,7.52631 -18.00101,11.57894 -6.14365,4.05264 -16.02729,10.44737 -21.96362,14.21053 -5.93634,3.76316 -17.12535,10.92919 -24.86448,15.92451 -7.73911,4.99531 -17.46101,11.0298 -21.6042,13.40994 -4.14319,2.38016 -14.56424,9.37895 -23.15789,15.55288 -8.59365,6.17392 -17.28272,12.31628 -19.30903,13.64969 -2.02632,1.33341 -5.34211,3.6723 -7.36842,5.19754 -3.48429,2.62267 -11.01152,7.23613 -18.298,11.21488 -4.58171,2.50181 -6.76876,2.27687 -21.702,-2.23219 l 0,0 z"
     id="path3792"
     inkscape:connector-curvature="0"
     transform="scale(0.8,0.8)" />
  <path
     style="color:#000000;fill:#ffa3a4;fill-opacity:1;fill-rule:nonzero;stroke:#c42836;stroke-width:0;stroke-linecap:square;stroke-linejoin:round;stroke-miterlimit:4;stroke-opacity:1;stroke-dasharray:none;stroke-dashoffset:0;marker:none;visibility:visible;display:inline;overflow:visible;enable-background:accumulate"
     d="m 416.14765,304.99506 c -2.60527,-0.75876 -5.58506,-1.88445 -6.62177,-2.50152 -1.03671,-0.61708 -2.33934,-0.84112 -2.89474,-0.49786 -0.55539,0.34325 -1.00981,0.20193 -1.00981,-0.31404 0,-1.14869 -7.37209,-3.51862 -8.59474,-2.76297 -0.48342,0.29877 -0.87894,-0.009 -0.87894,-0.68416 0,-0.67505 -0.71053,-0.95473 -1.57895,-0.62147 -0.86842,0.33324 -1.57895,0.0964 -1.57895,-0.52632 0,-0.62273 -0.67992,-0.87131 -1.51094,-0.55242 -0.83101,0.31889 -1.65996,0.14643 -1.8421,-0.38325 -0.18214,-0.52969 -1.51538,-1.1784 -2.96275,-1.44159 -1.44737,-0.2632 -2.75,-0.57295 -2.89473,-0.68834 -0.14474,-0.11539 -0.61843,-0.28323 -1.05264,-0.37298 -0.95908,-0.19824 -31.72399,-10.13904 -33.94736,-10.96912 -0.86843,-0.32422 -2.05264,-0.62908 -2.63158,-0.67747 -0.57895,-0.0484 -1.64474,-0.45868 -2.36842,-0.91176 -0.72369,-0.45307 -1.78948,-0.53102 -2.36843,-0.17321 -0.57894,0.35781 -1.05263,0.25223 -1.05263,-0.23461 0,-0.48684 -1.25473,-0.98901 -2.7883,-1.11592 -1.53357,-0.12693 -3.35346,-0.69981 -4.04422,-1.27309 -0.69076,-0.57328 -1.5676,-0.73064 -1.94854,-0.3497 -0.38094,0.38094 -0.69262,0.0893 -0.69262,-0.64807 0,-0.75926 -0.68476,-1.07792 -1.57895,-0.73479 -0.86842,0.33325 -1.57895,0.11913 -1.57895,-0.47582 0,-0.59494 -0.47368,-0.78897 -1.05263,-0.43116 -0.57895,0.35782 -1.05263,0.12097 -1.05263,-0.52631 0,-0.64729 -0.47368,-0.88413 -1.05263,-0.52632 -0.57895,0.35781 -1.05263,0.23934 -1.05263,-0.26327 0,-0.50261 -2.25,-1.67648 -5,-2.60862 -2.75,-0.93214 -7.84211,-2.8545 -11.31579,-4.27191 -6.80317,-2.77599 -10.21732,-4.03206 -11.05263,-4.06629 -0.28948,-0.0119 -1.09768,-0.49575 -1.796,-1.07531 -0.69832,-0.57955 -1.76411,-0.74815 -2.36842,-0.37467 -0.60431,0.37348 -1.09874,0.14946 -1.09874,-0.49782 0,-0.64729 -0.42405,-0.9148 -0.94233,-0.59449 -0.51829,0.32032 -1.17495,-0.0238 -1.45925,-0.76467 -0.68337,-1.78083 4.5281,-7.52713 8.85658,-9.76546 1.89313,-0.97898 4.09045,-2.42835 4.88292,-3.22082 0.79248,-0.79249 2.59196,-1.72978 3.99884,-2.08289 1.40689,-0.3531 2.55798,-1.14328 2.55798,-1.75596 0,-0.61268 0.30179,-0.81216 0.67065,-0.4433 0.36886,0.36886 2.02675,-0.29498 3.68421,-1.47519 1.65746,-1.18021 3.01356,-1.85775 3.01356,-1.50563 0,0.73711 13.13338,-8.20562 16.38363,-11.1559 1.19521,-1.08489 2.73468,-1.97253 3.42105,-1.97253 0.68637,0 1.24795,-0.47369 1.24795,-1.05264 0,-0.57894 0.72539,-1.05263 1.61198,-1.05263 0.88659,0 1.8836,-0.70781 2.21557,-1.5729 0.33196,-0.8651 0.99851,-1.32881 1.48121,-1.03049 0.4827,0.29832 1.34711,-0.2965 1.92092,-1.32184 0.57381,-1.02534 1.43187,-1.79525 1.9068,-1.71094 1.34562,0.23891 9.81089,-4.97509 9.81089,-6.0428 0,-0.52393 0.35526,-0.89651 0.78947,-0.82795 1.8719,0.29557 3.16433,-0.25532 5.32783,-2.27093 1.26706,-1.18044 2.311,-1.77255 2.31987,-1.31579 0.009,0.45677 0.36413,0.32893 0.78947,-0.28408 0.42535,-0.61301 4.08915,-2.92979 8.14178,-5.14839 4.05263,-2.21861 9.61952,-5.62495 12.37086,-7.56966 2.75134,-1.94469 5.42434,-3.53581 5.94001,-3.53581 0.51566,0 1.22175,-0.74054 1.56907,-1.64566 0.34733,-0.90511 1.11188,-1.34878 1.699,-0.98591 0.58713,0.36286 1.35064,-0.0781 1.69669,-0.97987 0.34604,-0.9018 1.05323,-1.37755 1.5715,-1.05723 0.51829,0.32032 0.94234,0.15971 0.94234,-0.35693 0,-0.51662 0.62293,-0.93931 1.38427,-0.93931 0.76136,0 2.77452,-0.95792 4.47369,-2.12872 1.69918,-1.17079 6.4052,-4.1999 10.45783,-6.73136 4.05263,-2.53144 7.70641,-5.08668 8.11951,-5.67829 0.41308,-0.59161 1.15415,-1.07566 1.64682,-1.07566 0.49266,0 4.65467,-2.42572 9.24891,-5.3905 10.19916,-6.58173 24.35271,-14.58715 27.56371,-15.59036 1.30263,-0.40698 2.36842,-1.20968 2.36842,-1.78378 0,-0.5741 0.47368,-0.75107 1.05263,-0.39326 0.57895,0.35781 1.05263,0.12097 1.05263,-0.52631 0,-0.64729 0.40195,-0.92846 0.89322,-0.62484 0.49127,0.30362 1.8619,-0.35043 3.04585,-1.45344 1.18393,-1.10301 2.43988,-1.71821 2.79098,-1.36711 0.35111,0.3511 0.63837,0.0578 0.63837,-0.65182 0,-0.70961 0.47369,-0.99745 1.05263,-0.63964 0.57895,0.35781 1.05264,0.12097 1.05264,-0.52631 0,-0.64728 0.45641,-0.8948 1.01424,-0.55005 0.55782,0.34476 1.9394,-0.29834 3.07017,-1.4291 1.13077,-1.13077 2.33225,-1.77962 2.66998,-1.4419 0.33771,0.33771 0.61403,0.0334 0.61403,-0.67616 0,-0.70961 0.47368,-0.99744 1.05263,-0.63963 0.57895,0.35781 1.05263,0.12096 1.05263,-0.52632 0,-0.64728 0.41753,-0.91883 0.92784,-0.60344 0.51032,0.31539 2.52348,-0.50796 4.47369,-1.82967 1.95021,-1.32171 7.09847,-4.27548 11.44058,-6.56395 4.3421,-2.28846 8.05361,-4.51905 8.2478,-4.95687 0.19419,-0.43781 0.78629,-0.52828 1.31579,-0.20103 0.52949,0.32725 0.96272,0.0654 0.96272,-0.58188 0,-0.64728 0.47369,-0.88413 1.05263,-0.52632 0.57895,0.35781 1.05263,0.18566 1.05263,-0.38256 0,-0.56821 1.6579,-1.58027 3.68422,-2.24902 2.02631,-0.66874 3.68484,-1.53442 3.68561,-1.92374 7.7e-4,-0.38931 3.19814,-2.36573 7.10526,-4.39205 3.90713,-2.02631 7.26274,-4.04242 7.45693,-4.48024 0.19418,-0.43782 0.78629,-0.52828 1.31578,-0.20103 0.5295,0.32725 0.96273,0.0654 0.96273,-0.58188 0,-0.64729 0.4355,-0.90773 0.96777,-0.57877 0.53227,0.32897 1.69957,-0.13368 2.59399,-1.0281 0.89441,-0.89442 1.99839,-1.66298 2.45328,-1.70791 1.77332,-0.17517 15.29386,-7.419784 22.27135,-11.933501 4.03998,-2.613448 7.85457,-4.751723 8.47688,-4.751723 0.62231,0 1.13147,-0.473684 1.13147,-1.052631 0,-0.578948 0.49367,-1.052632 1.09706,-1.052632 0.60338,0 1.66917,-0.492287 2.36842,-1.093971 0.69924,-0.601685 8.13978,-5.603241 16.53452,-11.11457 8.39473,-5.511329 16.44737,-11.12286 17.89473,-12.470069 3.57966,-3.331933 9.47369,-6.255616 9.47369,-4.699336 0,0.674347 0.90243,0.966443 2.05479,0.665093 1.13014,-0.295537 2.20295,-0.09289 2.38401,0.450317 0.18107,0.543212 1.388,1.067413 2.68205,1.164891 1.29405,0.09748 2.35283,0.471168 2.35283,0.830422 0,0.359253 0.59509,0.653188 1.32242,0.653188 0.72733,0 5.21206,1.5 9.96605,3.333333 4.75399,1.833334 9.36943,3.333334 10.25652,3.333334 0.8871,0 1.61291,0.444245 1.61291,0.987211 0,0.542967 0.82895,0.98582 1.8421,0.984119 2.28642,-0.0038 10.52773,2.158526 13.6132,3.571851 1.26358,0.578791 3.0399,0.76743 3.94737,0.419199 0.90748,-0.348232 1.64996,-0.233542 1.64996,0.254867 0,0.488409 1.18032,0.888016 2.62293,0.888016 2.50051,0 12.12068,3.099373 19.02267,6.128618 1.77349,0.77838 5.32613,1.736484 7.89474,2.12912 2.5686,0.392636 5.25626,1.175894 5.97258,1.740574 0.7163,0.564679 2.01893,0.75172 2.89473,0.415646 0.87579,-0.336074 1.59235,-0.09698 1.59235,0.531322 0,0.628301 0.94737,0.894622 2.10526,0.591826 1.1579,-0.302795 2.10527,-0.07053 2.10527,0.516166 0,0.586687 0.71052,0.79405 1.57894,0.460806 0.86842,-0.333245 1.57895,-0.0964 1.57895,0.526316 0,0.622718 0.71053,0.85956 1.57895,0.526315 0.86842,-0.333245 1.57895,-0.0964 1.57895,0.526316 0,0.622718 0.71052,0.85956 1.57894,0.526316 0.86842,-0.333245 1.57895,-0.204549 1.57895,0.28599 0,0.889061 4.8426,3.24946 6.84211,3.335002 1.47964,0.0633 5.78947,4.260466 5.78947,5.638122 0,1.912579 -8.24609,9.756587 -9.74483,9.269677 -0.46203,-0.15011 -1.11336,0.43928 -1.44739,1.30974 -0.33403,0.87047 -0.99897,1.34062 -1.47763,1.04479 -0.47868,-0.29584 -1.61326,0.52281 -2.52129,1.81921 -0.90803,1.2964 -1.66603,1.89643 -1.68444,1.3334 -0.0184,-0.56303 -0.72895,-0.10421 -1.57895,1.0196 -0.85001,1.12381 -1.56053,1.5975 -1.57894,1.05263 -0.0184,-0.54486 -0.61053,-0.27932 -1.31579,0.5901 -0.70528,0.86942 -3.10456,2.52731 -5.33176,3.68421 -2.22719,1.1569 -5.18772,3.14662 -6.57895,4.42161 -1.39122,1.27499 -2.5295,2.10707 -2.5295,1.84907 0,-0.258 -1.22216,0.59356 -2.71592,1.89236 -1.49376,1.29881 -3.16893,2.36146 -3.72261,2.36146 -0.55367,0 -1.45583,0.71053 -2.0048,1.57895 -0.54897,0.86842 -1.01263,1.10526 -1.03036,0.52632 -0.0206,-0.6748 -0.30982,-0.66333 -0.80559,0.032 -0.42535,0.59653 -5.81644,4.27666 -11.98021,8.17806 -10.6104,6.71594 -23.78507,15.84698 -27.18833,18.84355 -0.85418,0.75212 -1.80155,1.37026 -2.10526,1.37365 -0.92098,0.0105 -8.68964,4.97463 -13.52756,8.64443 -2.50486,1.90007 -5.22854,3.45467 -6.05263,3.45467 -0.82407,0 -1.49831,0.38268 -1.49831,0.85038 0,0.46772 -4.61842,3.58634 -10.26316,6.93029 -5.64474,3.34393 -13.25405,8.17179 -16.9096,10.72855 -3.65554,2.55677 -7.08975,4.64868 -7.63158,4.64868 -0.54182,0 -0.98514,0.50164 -0.98514,1.11476 0,0.61311 -0.47703,0.81992 -1.06006,0.45958 -0.58304,-0.36032 -1.3432,0.0826 -1.68925,0.98447 -0.34605,0.9018 -1.02412,1.39553 -1.50681,1.09721 -0.48271,-0.29832 -1.36604,0.2965 -1.96296,1.32184 -0.59693,1.02534 -1.09973,1.49053 -1.11733,1.03376 -0.0176,-0.45676 -1.04335,0.11172 -2.27942,1.26331 -1.23608,1.15158 -3.84135,2.85015 -5.78947,3.7746 -1.94814,0.92446 -3.54207,2.16024 -3.54207,2.74618 0,0.58596 -0.47368,0.77262 -1.05263,0.41481 -0.57894,-0.35781 -1.05263,-0.25664 -1.05263,0.22482 0,0.48147 -1.77631,1.80752 -3.94737,2.94678 -2.17105,1.13928 -4.18421,2.32833 -4.47368,2.64234 -0.28948,0.31402 -3.13158,2.20473 -6.31579,4.20158 -3.18421,1.99685 -5.94835,3.99742 -6.14254,4.4457 -0.19419,0.44828 -0.72669,0.58414 -1.18336,0.30191 -0.45666,-0.28224 -2.04487,0.61246 -3.52933,1.98823 -1.48448,1.37576 -2.96513,2.23531 -3.29033,1.91011 -0.32521,-0.32521 -0.59128,-0.0387 -0.59128,0.63678 0,0.67544 -0.67106,1.22807 -1.49123,1.22807 -0.82017,0 -1.64912,0.35526 -1.84211,0.78947 -0.50966,1.14675 -15.39366,10.78948 -16.65404,10.78948 -0.5859,0 -1.06525,0.50164 -1.06525,1.11475 0,0.61312 -0.40195,0.86634 -0.89323,0.56272 -0.49126,-0.30362 -1.89251,0.37895 -3.11387,1.51682 -1.22137,1.13788 -2.71416,2.06886 -3.31732,2.06886 -0.60314,0 -1.09664,0.50165 -1.09664,1.11476 0,0.61312 -0.47703,0.81993 -1.06006,0.45959 -0.58304,-0.36032 -1.3432,0.0826 -1.68925,0.98447 -0.34605,0.9018 -1.05657,1.37548 -1.57895,1.05263 -0.52237,-0.32285 -1.2329,0.15084 -1.57895,1.05263 -0.34604,0.9018 -1.03595,1.38822 -1.53311,1.08096 -0.49717,-0.30727 -1.86858,0.40598 -3.0476,1.585 -1.17901,1.17901 -2.49892,2.13978 -2.93313,2.13504 -0.43421,-0.005 -1.61842,0.70115 -2.63158,1.56864 -1.01316,0.8675 -1.8421,1.32638 -1.8421,1.01975 0,-0.30664 -0.59211,-0.0595 -1.31579,0.54926 -3.03284,2.55106 -30.56064,21.08149 -31.31754,21.08149 -0.45411,0 -1.0983,0.71052 -1.43155,1.57894 -0.33324,0.86842 -1.33128,1.57895 -2.21788,1.57895 -0.88659,0 -1.61198,0.47368 -1.61198,1.05263 0,0.57895 -0.68699,1.05263 -1.52664,1.05263 -0.83966,0 -1.90545,0.67689 -2.36842,1.50418 -0.46298,0.8273 -1.31547,1.62977 -1.89441,1.78328 -0.57895,0.15349 -1.52632,0.65368 -2.10527,1.11152 -0.57895,0.45784 -2.52637,2.01059 -4.3276,3.45054 -1.80123,1.43996 -3.56639,2.32666 -3.92259,1.97047 -0.35619,-0.3562 -0.94525,0.12798 -1.30902,1.07594 -0.36376,0.94796 -1.08544,1.46148 -1.60371,1.14117 -0.51829,-0.32032 -0.94234,-0.15696 -0.94234,0.36301 0,0.51998 -1.88931,1.85056 -4.19845,2.95686 -2.30915,1.1063 -4.20389,2.39468 -4.21053,2.86305 -0.006,0.46838 -0.48911,0.55677 -1.07214,0.19644 -0.58304,-0.36033 -1.31208,0.002 -1.6201,0.80427 -0.35802,0.93299 -2.51562,1.54866 -5.98148,1.7068 -2.9818,0.13606 -5.68695,0.38214 -6.01148,0.54683 -0.32452,0.1647 -2.72161,-0.32135 -5.32687,-1.08009 z"
     id="path3794"
     inkscape:connector-curvature="0"
     transform="scale(0.8,0.8)" />
  <path
     style="color:#000000;fill:#ffa3a4;fill-opacity:1;fill-rule:nonzero;stroke:#c42836;stroke-width:0;stroke-linecap:square;stroke-linejoin:round;stroke-miterlimit:4;stroke-opacity:1;stroke-dasharray:none;stroke-dashoffset:0;marker:none;visibility:visible;display:inline;overflow:visible;enable-background:accumulate"
     d="m 529.2754,800.12711 c -0.63487,-1.7035 0.0166,-32.95383 1.40988,-67.63158 0.60479,-15.05263 1.35223,-69.04547 1.66099,-119.98411 0.52985,-87.41425 0.66713,-92.69029 2.44453,-93.9443 1.03574,-0.73075 2.83053,-2.17419 3.98843,-3.20764 1.15789,-1.03347 3.52631,-2.77016 5.26315,-3.85932 4.53522,-2.844 19.47369,-17.53734 19.47369,-19.15414 0,-0.75695 0.67719,-1.1035 1.52251,-0.77912 0.88373,0.33911 4.52731,-1.8073 8.68421,-5.11583 3.93894,-3.13505 8.81959,-6.81377 10.84591,-8.17495 2.02631,-1.36118 7.47368,-5.63657 12.10526,-9.50085 17.49585,-14.5974 37.05783,-29.02075 50.91631,-37.54138 7.89077,-4.8515 16.71527,-10.49205 19.61001,-12.53458 2.89473,-2.04252 13.95132,-8.87193 24.57019,-15.17646 10.61886,-6.30454 21.75044,-13.5379 24.73684,-16.07415 13.18238,-11.19534 51.30796,-38.52637 87.23983,-62.53947 7.10975,-4.75142 16.24261,-10.98305 20.29524,-13.84808 10.50953,-7.42977 17.48715,-10.97299 18.87609,-9.58521 2.13246,2.13069 0.81943,202.62794 -1.4329,218.79919 -0.81425,5.84617 -0.88852,9.81222 -0.21967,11.73087 0.73929,2.12074 0.59677,3.70534 -0.53109,5.90461 -3.61672,7.05253 -27.18757,27.73717 -47.74506,41.89879 -11.20869,7.72145 -22.10526,17.13212 -22.10526,19.09093 0,0.81946 -0.54739,1.48994 -1.21643,1.48994 -0.66903,0 -2.76901,1.18421 -4.66661,2.63158 -1.8976,1.44736 -3.89835,2.63157 -4.44612,2.63157 -0.54776,0 -2.83375,1.77632 -5.07997,3.94737 -2.24622,2.17106 -5.39558,4.53538 -6.99858,5.25406 -1.603,0.71867 -3.18877,2.0213 -3.52392,2.89473 -0.33517,0.87343 -1.16863,1.58806 -1.85214,1.58806 -1.62831,0 -11.1636,9.69616 -11.1636,11.35194 0,0.7038 -0.68296,1.27963 -1.51769,1.27963 -0.83473,0 -4.14613,2.30009 -7.35866,5.1113 -3.21253,2.81121 -8.56905,6.57174 -11.90337,8.35671 -3.33431,1.78498 -13.16765,9.52028 -21.85186,17.18955 -8.68421,7.66928 -21.71053,18.6398 -28.94737,24.37897 -7.23684,5.73916 -13.6838,11.09852 -14.32657,11.90967 -0.64277,0.81117 -1.66645,1.47486 -2.27485,1.47486 -0.60839,0 -2.3548,1.4839 -3.88089,3.29757 -2.74497,3.26221 -6.91679,6.45758 -16.62295,12.7322 -2.75,1.77775 -5,3.85713 -5,4.62085 0,0.76371 -0.66528,1.13327 -1.4784,0.82125 -0.88053,-0.33789 -5.45663,2.99473 -11.31579,8.24093 -5.41056,4.84452 -11.93804,10.43431 -14.50549,12.42173 -7.80345,6.0405 -29.94621,27.20455 -40.71786,38.9181 -20.38897,22.17185 -19.84191,21.68419 -20.95997,18.68421 z"
     id="path3802"
     inkscape:connector-curvature="0"
     transform="scale(0.8,0.8)" />
  <path
     style="color:#000000;fill:#cfcfcf;fill-opacity:1;fill-rule:nonzero;stroke:#c42836;stroke-width:0;stroke-linecap:square;stroke-linejoin:round;stroke-miterlimit:4;stroke-opacity:1;stroke-dasharray:none;stroke-dashoffset:0;marker:none;visibility:visible;display:inline;overflow:visible;enable-background:accumulate"
     d="m 528.34116,798.78818 c -0.36007,-1.43464 -0.41658,-3.67423 -0.12557,-4.97686 1.2229,-5.47406 3.18961,-105.05611 4.15263,-210.26316 0.50471,-55.13842 0.93305,-63.91885 3.20944,-65.78947 0.70453,-0.57895 2.83421,-2.23684 4.73261,-3.68421 7.34799,-5.60219 20.13252,-17.16228 22.21599,-20.08822 1.20219,-1.68832 2.84758,-3.06968 3.65644,-3.06968 0.80885,0 3.08913,-1.42105 5.06728,-3.15789 1.97816,-1.73684 4.10268,-3.1579 4.72117,-3.1579 0.61848,0 1.50332,-0.62465 1.9663,-1.3881 0.46297,-0.76347 3.16295,-2.96676 5.99993,-4.89623 2.83699,-1.92947 8.37701,-6.2785 12.31117,-9.66453 3.93415,-3.38602 7.66732,-6.1564 8.29593,-6.1564 0.62861,0 1.41558,-0.71053 1.74882,-1.57895 0.33325,-0.86842 1.24908,-1.57894 2.03519,-1.57894 0.78611,0 1.93631,-0.94737 2.556,-2.10527 0.61968,-1.15789 1.78109,-2.10526 2.58089,-2.10526 0.79981,0 1.61209,-0.42209 1.80507,-0.93797 0.48851,-1.30588 11.12416,-9.58835 12.31256,-9.58835 0.53404,0 1.25515,-0.74054 1.60248,-1.64566 0.34732,-0.90512 1.11187,-1.34878 1.699,-0.98592 0.58712,0.36287 1.35167,-0.0808 1.699,-0.98591 0.34732,-0.90512 1.29135,-1.64566 2.09783,-1.64566 0.80647,0 1.46633,-0.47369 1.46633,-1.05264 0,-0.57894 0.71052,-1.05263 1.57894,-1.05263 0.86842,0 1.57895,-0.47368 1.57895,-1.05263 0,-0.57895 0.71053,-1.05263 1.57895,-1.05263 0.86842,0 1.57895,-0.50164 1.57895,-1.11476 0,-0.61311 0.43323,-0.847 0.96272,-0.51976 0.5295,0.32726 1.1216,0.18548 1.31579,-0.31506 0.19419,-0.50054 4.66438,-3.56766 9.93377,-6.81583 5.26939,-3.24817 10.17832,-6.62585 10.90875,-7.50596 0.73042,-0.8801 1.74805,-1.34061 2.2614,-1.02334 0.51334,0.31727 0.93336,0.0473 0.93336,-0.60003 0,-0.64728 0.44456,-0.90211 0.98793,-0.56629 0.54337,0.33581 1.47633,-0.22834 2.07325,-1.25368 0.59693,-1.02533 1.10698,-1.39055 1.13345,-0.81161 0.0297,0.6489 0.34475,0.62394 0.82148,-0.0651 0.42535,-0.61475 8.93891,-6.02983 18.91902,-12.03352 9.98012,-6.00369 20.40117,-12.74364 23.1579,-14.97767 2.75672,-2.23402 6.53449,-5.29485 8.39505,-6.80183 1.86055,-1.50698 5.17634,-3.97459 7.36842,-5.48357 2.19207,-1.50898 4.3644,-3.3357 4.82738,-4.05939 0.46298,-0.72368 1.52877,-1.31579 2.36842,-1.31579 0.83965,-2e-5 1.52664,-0.4737 1.52664,-1.05265 0,-0.57895 0.71053,-1.05263 1.57895,-1.05263 0.86842,0 1.57895,-0.39592 1.57895,-0.87981 0,-0.4839 7.46052,-6.01695 16.57894,-12.29567 9.11843,-6.27872 19.76907,-13.69859 23.6681,-16.48861 3.89902,-2.79001 7.57007,-5.07275 8.15789,-5.07275 0.58781,0 1.06875,-0.47369 1.06875,-1.05264 0,-0.57894 0.65985,-1.05263 1.46633,-1.05263 0.80648,0 1.7505,-0.74055 2.09783,-1.64566 0.34733,-0.90512 1.11187,-1.34878 1.699,-0.98592 0.58713,0.36287 1.35167,-0.0808 1.699,-0.98591 0.34733,-0.90512 1.04909,-1.64567 1.55948,-1.64567 0.51039,0 1.76234,-0.67303 2.78212,-1.49562 3.97023,-3.20257 22.56507,-15.34648 23.49862,-15.34648 0.54291,0 0.9871,-0.47368 0.9871,-1.05263 0,-0.57895 0.71052,-1.05263 1.57894,-1.05263 0.86842,0 1.57895,-0.47369 1.57895,-1.05264 0,-0.57894 0.71053,-1.05263 1.57895,-1.05263 0.86842,0 1.57894,-0.50164 1.57894,-1.11475 0,-0.61312 0.47369,-0.822 1.05264,-0.46419 0.57894,0.35781 1.05263,0.07 1.05263,-0.63964 0,-0.7096 0.31168,-0.97851 0.69262,-0.59757 0.38095,0.38095 1.26546,0.21721 1.9656,-0.36385 3.53773,-2.93605 3.69382,0.67703 3.94047,91.20639 0.13388,49.13812 -0.0575,87.68414 -0.42533,85.65782 -0.36781,-2.02631 -0.72074,4.36842 -0.78429,14.21053 -0.21171,32.79023 -0.64347,44.73396 -1.61715,44.73541 -0.53069,7.9e-4 -0.65648,0.30986 -0.27951,0.68682 0.37697,0.37697 -0.13619,1.28616 -1.14035,2.02041 -1.00416,0.73427 -1.82575,1.78807 -1.82575,2.34179 0,1.41032 -8.14649,9.65791 -9.01148,9.12331 -0.38991,-0.24097 -2.63855,1.5641 -4.99697,4.01127 -6.91389,7.17406 -9.66465,9.71257 -10.52467,9.71257 -0.44406,0 -2.44787,1.53728 -4.45291,3.41618 -2.00505,1.8789 -4.25251,3.41838 -4.99437,3.42105 -0.74186,0.003 -1.62148,0.7154 -1.95472,1.58382 -0.33326,0.86842 -1.22628,1.57895 -1.98452,1.57895 -0.75823,0 -1.53649,0.38776 -1.72948,0.86168 -0.19298,0.47393 -4.61403,3.99091 -9.82456,7.81551 -5.21053,3.82459 -12.25947,9.83157 -15.66433,13.34883 -3.40485,3.51727 -6.77649,6.39503 -7.49253,6.39503 -1.12995,0 -8.36997,5.22691 -21.54919,15.55734 -3.8596,3.02532 -7.49681,6.51591 -11.25123,10.79767 -1.2502,1.4258 -4.56599,4.24712 -7.36843,6.2696 -2.80244,2.0225 -5.47414,4.2725 -5.93712,5 -0.46298,0.72752 -1.52877,1.32276 -2.36842,1.32276 -0.83966,0 -1.52665,0.55263 -1.52665,1.22807 0,0.67544 -0.28731,0.94075 -0.63848,0.58959 -0.35116,-0.35117 -1.1801,-0.18459 -1.8421,0.37017 -0.66199,0.55477 -3.19124,2.30321 -5.62054,3.88544 -2.4293,1.58222 -9.64139,7.49459 -16.02686,13.13859 -6.38547,5.644 -12.06085,10.26182 -12.61195,10.26182 -0.5511,0 -2.02665,1.30264 -3.279,2.89474 -1.25235,1.59211 -2.66214,2.89474 -3.13287,2.89474 -0.47071,0 -2.02567,1.18421 -3.45544,2.63158 -3.10346,3.14165 -6.44267,5.9692 -15.23486,12.90045 -3.61842,2.85255 -6.57895,5.69585 -6.57895,6.31844 0,0.62259 -0.28731,0.84466 -0.63848,0.49351 -0.67939,-0.67939 -1.24322,-0.30981 -6.20362,4.06635 -7.04774,6.21765 -11.85616,9.90546 -12.91543,9.90546 -0.61582,0 -1.27756,0.35526 -1.47054,0.78947 -0.53097,1.1947 -9.043,7.63158 -10.09186,7.63158 -0.50438,0 -4.55848,3.35534 -9.00909,7.45631 -4.45062,4.10096 -8.09203,7.07434 -8.09203,6.60751 0,-0.46683 -1.3277,0.55941 -2.95044,2.28054 -1.62274,1.72112 -6.95169,6.52909 -11.84211,10.68438 -8.6283,7.33127 -30.39602,29.07051 -44.03723,43.9796 -7.3939,8.08112 -10.06084,9.35283 -11.08197,5.28431 l 0,0 z"
     id="path3804"
     inkscape:connector-curvature="0"
     transform="scale(0.8,0.8)" />
  <path
     style="color:#000000;fill:#cb3c32;fill-opacity:1;fill-rule:nonzero;stroke:#c42836;stroke-width:0;stroke-linecap:square;stroke-linejoin:round;stroke-miterlimit:4;stroke-opacity:1;stroke-dasharray:none;stroke-dashoffset:0;marker:none;visibility:visible;display:inline;overflow:visible;enable-background:accumulate"
     id="path3812"
     d="m 157.64078,647.47172 c 2.12029,0.50343 4.23167,1.04272 6.3506,1.55119 1.49696,0.4546 3.15816,0.69544 4.4103,1.69576 0.54053,0.60007 1.09888,1.03394 1.81102,1.40334 0.39931,0.2177 0.64391,0.54887 0.88899,0.91668 0,0 -2.93023,1.71855 -2.93023,1.71855 l 0,0 c -0.21886,-0.32219 -0.43861,-0.59527 -0.79906,-0.77238 -0.72509,-0.37578 -1.27279,-0.87712 -1.83853,-1.45939 -1.23215,-0.92972 -2.83977,-1.16394 -4.28152,-1.61038 -2.13887,-0.5235 -4.27567,-1.05438 -6.42479,-1.53462 0,0 2.81322,-1.90875 2.81322,-1.90875 z"
     inkscape:connector-curvature="0"
     transform="scale(0.8,0.8)" />
  <path
     style="color:#000000;fill:#e8e8e8;fill-opacity:1;fill-rule:nonzero;stroke:#c42836;stroke-width:0;stroke-linecap:square;stroke-linejoin:round;stroke-miterlimit:4;stroke-opacity:1;stroke-dasharray:none;stroke-dashoffset:0;marker:none;visibility:visible;display:inline;overflow:visible;enable-background:accumulate"
     d="m 506.80713,814.83271 c -1.34804,-0.97205 -5.31862,-2.8141 -8.82353,-4.09343 -3.5049,-1.27934 -8.35784,-3.55489 -10.78431,-5.05678 -2.42647,-1.50189 -13.45588,-6.512 -24.5098,-11.13357 -11.05393,-4.62157 -27.15687,-11.84183 -35.78432,-16.04503 -8.62745,-4.20319 -16.78921,-7.9839 -18.13725,-8.40158 -3.57052,-1.10628 -23.52056,-11.17112 -26.94118,-13.59189 -1.60687,-1.13717 -9.32746,-4.84224 -17.15686,-8.23349 -7.82941,-3.39124 -18.86765,-8.74924 -24.52941,-11.90666 -5.66177,-3.15741 -15.58824,-7.79305 -22.05883,-10.30144 -6.47059,-2.50838 -14.41176,-5.84166 -17.64706,-7.4073 -13.27225,-6.42276 -25.06333,-11.80326 -25.86617,-11.80326 -0.46999,0 -1.43657,-0.70133 -2.14796,-1.55851 -1.54144,-1.85732 -18.3763,-10.39519 -23.94665,-12.14465 -2.15686,-0.6774 -8.9951,-4.01906 -15.19608,-7.42592 -6.20098,-3.40686 -13.03921,-6.99505 -15.19608,-7.97378 -2.15686,-0.97872 -4.14215,-2.05412 -4.41176,-2.38977 -0.26961,-0.33565 -9.62886,-5.05684 -20.79835,-10.49152 -11.16948,-5.43468 -21.2761,-10.99449 -22.45915,-12.35512 -1.18306,-1.36064 -3.73557,-2.99 -5.67225,-3.62079 -1.93668,-0.63081 -5.33502,-2.38576 -7.55188,-3.89989 -2.21685,-1.51413 -5.89092,-3.4973 -8.16459,-4.40704 -2.29467,-0.91815 -4.48258,-2.57455 -4.91754,-3.72296 -1.56602,-4.13467 -2.1126,-25.9971 -1.0689,-42.75515 0.58769,-9.43628 1.71553,-31.41895 2.50631,-48.8504 0.79077,-17.43146 1.68933,-32.10057 1.99678,-32.59804 0.30746,-0.49747 -0.14431,-0.9045 -1.00393,-0.9045 -1.24351,0 -1.35472,-0.38907 -0.54413,-1.90366 0.56034,-1.04702 1.29782,-9.31908 1.63883,-18.38235 0.34101,-9.06329 0.97151,-16.92953 1.4011,-17.48054 0.42959,-0.55102 0.38387,-7.83043 -0.10162,-16.17647 -1.05785,-18.18578 -1.03351,-55.64218 0.0334,-51.44914 0.5144,2.0216 0.78637,0.0292 0.86986,-6.37255 0.0668,-5.12255 0.56106,-10.85784 1.09834,-12.7451 0.72507,-2.54689 6.72547,-9.2475 23.27884,-25.99534 12.26609,-12.41019 26.05198,-25.81283 30.63531,-29.78365 4.58333,-3.97081 11.11774,-10.36114 14.5209,-14.20073 3.40316,-3.83958 8.32986,-8.52518 10.94821,-10.41243 5.4897,-3.95686 20.60858,-16.9935 34.95581,-30.14152 l 9.93473,-9.10434 11.6339,0.88359 c 11.02569,0.8374 12.42833,1.2013 26.82998,6.96073 8.35784,3.34243 16.51961,6.88878 18.13725,7.88077 1.61765,0.992 8.41669,3.18504 15.10897,4.87343 14.54133,3.6686 25.94058,7.25497 45.67535,14.37011 21.507,7.7541 22.05882,8.03153 22.05882,11.0899 0,1.72342 1.28483,3.84791 3.83034,6.33354 2.10669,2.05712 4.58464,5.78636 5.50656,8.2872 0.92192,2.50084 2.65282,6.09109 3.84644,7.97835 1.19362,1.88725 3.29457,5.21614 4.66878,7.39752 1.37419,2.18138 4.30771,8.79903 6.51893,14.70588 2.21121,5.90686 6.23526,16.22234 8.94232,22.92329 2.70706,6.70096 4.92192,12.83941 4.92192,13.64102 0,0.80159 2.39606,5.74715 5.32458,10.99012 2.92852,5.24297 5.79767,11.28957 6.37588,13.43689 0.57821,2.14731 1.93215,5.02403 3.00875,6.39271 1.07661,1.36868 1.95746,2.81963 1.95746,3.22432 0,1.72665 8.27733,18.63262 9.47237,19.34677 0.72157,0.43121 1.3192,1.53415 1.32807,2.45098 0.0199,2.05255 2.57802,6.29424 14.30905,23.72579 4.82907,7.1757 10.6268,20.74905 15.20432,35.59559 4.46573,14.48397 4.81817,15.02312 10.21837,15.63181 2.49716,0.28146 5.05341,1.02658 5.68053,1.65582 1.56006,1.56531 1.25813,188.09691 -0.32857,202.99914 -0.60284,5.66176 -1.3361,25.07353 -1.62948,43.13725 -0.404,24.87527 -0.84963,33.34511 -1.83682,34.91224 -1.41741,2.25009 -9.94309,8.24423 -11.65454,8.19396 -0.58158,-0.0171 -2.16036,-0.82637 -3.5084,-1.79843 l 0,0 z"
     id="path3824"
     inkscape:connector-curvature="0"
     transform="scale(0.8,0.8)" />
</svg>
