<?xml version="1.0" encoding="UTF-8" standalone="no"?>
<svg
   xmlns:dc="http://purl.org/dc/elements/1.1/"
   xmlns:cc="http://creativecommons.org/ns#"
   xmlns:rdf="http://www.w3.org/1999/02/22-rdf-syntax-ns#"
   xmlns:svg="http://www.w3.org/2000/svg"
   xmlns="http://www.w3.org/2000/svg"
   xmlns:sodipodi="http://sodipodi.sourceforge.net/DTD/sodipodi-0.dtd"
   xmlns:inkscape="http://www.inkscape.org/namespaces/inkscape"
   version="1.0"
   width="880"
   height="880"
   viewBox="0 0 704 704"
   preserveAspectRatio="xMidYMid meet"
   id="svg2"
   inkscape:version="0.48.4 r9939"
   sodipodi:docname="saltbox.svg">
  <defs
     id="defs16" />
  <sodipodi:namedview
     pagecolor="#ffffff"
     bordercolor="#666666"
     borderopacity="1"
     objecttolerance="10"
     gridtolerance="10"
     guidetolerance="10"
     inkscape:pageopacity="0"
     inkscape:pageshadow="2"
     inkscape:window-width="1056"
     inkscape:window-height="992"
     id="namedview14"
     showgrid="false"
     inkscape:zoom="0.83039936"
     inkscape:cx="437.89781"
     inkscape:cy="445.1229"
     inkscape:window-x="681"
     inkscape:window-y="79"
     inkscape:window-maximized="0"
     inkscape:current-layer="svg2" />
  <metadata
     id="metadata4">
Created by potrace 1.14, written by Peter Selinger 2001-2017
<rdf:RDF>
  <cc:Work
     rdf:about="">
    <dc:format>image/svg+xml</dc:format>
    <dc:type
       rdf:resource="http://purl.org/dc/dcmitype/StillImage" />
    <dc:title />
  </cc:Work>
</rdf:RDF>
</metadata>
  <g
     id="g2997"
     transform="translate(-41.941393,0.02888094)">
    <g
       transform="translate(0,3)"
       id="g3774">
      <g
         id="g2995"
         style="fill:#cb3c32;fill-opacity:1">
        <g
           id="g6"
           transform="matrix(0.1,0,0,-0.1,0,701)"
           style="fill:#cb3c32;fill-opacity:1;stroke:none">
          <path
             inkscape:connector-curvature="0"
             id="path8"
             d="m 4930,6610 c -6,-11 -17,-20 -25,-20 -7,0 -23,-12 -34,-26 -28,-36 -147,-125 -235,-176 -39,-23 -91,-56 -116,-74 -61,-43 -117,-75 -245,-137 -46,-23 -190,-100 -295,-159 -25,-14 -99,-53 -165,-88 -166,-88 -368,-206 -445,-261 -36,-26 -103,-66 -149,-90 -46,-24 -86,-52 -89,-61 -2,-10 -11,-18 -18,-18 -8,0 -44,-21 -81,-46 -38,-26 -87,-55 -111,-65 -24,-10 -41,-23 -37,-29 3,-5 0,-7 -8,-4 -14,5 -230,-116 -242,-136 -13,-20 -85,-64 -230,-138 -49,-25 -100,-56 -113,-68 -12,-12 -44,-27 -70,-34 -59,-16 -85,-38 -79,-67 3,-16 -11,-37 -59,-85 -34,-35 -71,-70 -81,-78 -155,-124 -295,-249 -338,-302 -16,-20 -65,-64 -107,-98 -43,-34 -78,-65 -78,-69 0,-4 -38,-40 -85,-81 -46,-40 -91,-88 -100,-106 -8,-18 -27,-42 -42,-54 -23,-18 -28,-19 -48,-6 -26,17 -39,10 -50,-24 -4,-14 -16,-36 -26,-49 -14,-17 -16,-28 -8,-42 5,-10 14,-19 18,-19 15,0 23,-141 22,-407 0,-157 -4,-280 -11,-313 -13,-59 -24,-246 -33,-537 0,-18 -4,-33 -9,-33 -5,0 -6,-4 -3,-10 11,-17 8,-154 -5,-199 -7,-28 -12,-118 -11,-243 0,-189 -1,-198 -19,-198 -16,0 -48,-37 -38,-44 2,-2 58,-29 125,-61 68,-33 123,-62 123,-67 0,-4 5,-8 10,-8 6,0 10,8 10,19 0,21 -49,61 -100,81 -19,7 -39,17 -45,22 -21,19 -25,243 -7,463 7,88 14,239 16,335 3,96 8,186 12,199 5,17 4,22 -4,17 -7,-4 -12,-2 -12,3 0,6 4,11 8,11 4,0 8,39 9,87 2,168 6,224 16,211 5,-8 6,-2 2,17 -4,17 -9,113 -11,215 -2,102 -5,224 -6,273 -4,102 9,119 15,20 2,-42 4,-20 5,55 2,136 -1,128 87,202 17,14 46,46 67,70 20,25 57,65 83,90 26,25 64,62 84,84 20,21 52,49 71,62 47,32 199,184 206,206 3,10 13,18 23,18 9,0 37,21 61,46 25,25 68,63 95,84 28,20 89,74 136,118 l 86,81 94,-3 c 64,-2 104,-8 124,-19 17,-9 35,-17 41,-17 5,0 33,-11 61,-25 28,-13 64,-27 80,-31 15,-4 35,-12 43,-18 35,-26 63,-36 142,-51 78,-16 270,-77 383,-123 28,-11 70,-26 94,-33 53,-16 71,-32 64,-59 -4,-14 3,-24 25,-37 23,-13 35,-31 48,-73 9,-30 23,-59 31,-63 7,-4 13,-13 13,-19 0,-6 11,-26 25,-44 14,-18 25,-39 25,-46 1,-7 9,-31 20,-53 11,-22 19,-46 20,-53 0,-7 4,-20 9,-30 32,-66 46,-96 46,-101 1,-14 28,-87 36,-97 5,-6 6,-14 3,-17 -4,-3 5,-25 19,-49 60,-103 77,-138 77,-158 0,-11 9,-30 20,-42 11,-12 20,-27 20,-34 0,-7 14,-38 31,-68 16,-31 27,-56 23,-56 -4,0 1,-9 11,-20 18,-20 35,-18 35,3 0,8 -3,8 -9,-2 -5,-8 -11,-9 -15,-3 -3,6 -2,13 3,16 6,4 4,17 -5,34 -7,15 -14,33 -14,40 0,7 -13,33 -30,57 -17,24 -30,51 -30,59 0,9 -5,16 -11,16 -5,0 -8,4 -5,9 13,20 -83,198 -99,183 -5,-4 -5,-1 -1,5 4,7 0,34 -9,60 -9,27 -19,59 -21,73 -3,14 -12,30 -20,37 -15,11 -31,54 -60,161 -13,48 -57,139 -73,152 -3,3 -15,29 -25,59 l -19,55 21,14 c 12,8 22,24 22,36 0,12 12,28 28,38 125,80 165,106 217,147 33,26 84,61 114,79 29,18 65,44 80,58 14,14 49,39 76,55 28,17 77,47 110,69 33,21 74,46 90,54 17,9 42,24 56,33 80,56 229,152 250,163 13,7 26,16 29,20 3,3 48,32 100,64 52,32 104,66 115,76 11,9 45,30 75,46 30,16 59,32 65,37 103,74 152,107 161,107 6,0 21,9 34,20 13,11 27,20 33,20 5,0 23,11 41,25 17,14 36,29 42,34 6,5 20,11 31,15 10,3 28,14 39,24 56,50 201,152 294,206 83,47 200,122 222,141 9,8 48,31 85,51 37,20 73,39 78,44 6,4 25,12 43,18 26,9 32,8 32,-4 0,-8 4,-22 9,-32 42,-80 71,-143 81,-177 12,-37 31,-80 52,-115 5,-8 14,-27 21,-42 6,-16 14,-28 18,-28 21,0 13,38 -22,107 -22,42 -41,87 -43,98 -10,50 -21,82 -40,115 -16,26 -21,52 -21,104 0,47 -4,71 -12,73 -7,3 -13,11 -13,19 0,8 -7,17 -15,20 -8,4 -15,14 -15,23 0,26 -90,62 -192,76 -128,19 -218,39 -254,58 -16,8 -84,29 -149,46 -188,47 -216,57 -280,91 -54,30 -140,60 -172,60 -7,0 -17,-9 -23,-20 z m 149,-67 c 62,-28 154,-62 190,-69 13,-3 36,-11 51,-19 15,-8 36,-12 47,-9 11,3 55,-6 97,-21 45,-16 85,-24 99,-20 14,4 18,3 9,-3 -17,-12 47,-39 113,-47 51,-6 104,-19 140,-35 11,-5 33,-11 48,-15 16,-3 44,-22 64,-41 l 35,-36 -23,-16 c -13,-9 -47,-36 -76,-59 -29,-24 -56,-43 -60,-43 -5,0 -23,-13 -41,-28 -19,-16 -57,-41 -85,-57 -29,-15 -62,-36 -73,-47 -12,-11 -29,-20 -37,-22 -8,-1 -31,-14 -50,-29 -20,-15 -38,-27 -41,-27 -12,0 -208,-140 -252,-181 -12,-10 -27,-19 -33,-19 -6,0 -59,-31 -117,-70 -57,-38 -109,-70 -114,-70 -6,0 -10,-4 -10,-9 0,-5 -10,-13 -22,-17 -13,-4 -43,-21 -67,-38 -116,-82 -137,-96 -146,-96 -5,-1 -26,-14 -45,-30 -19,-17 -38,-30 -44,-30 -5,0 -24,-11 -42,-25 -18,-14 -37,-25 -42,-25 -4,0 -26,-15 -48,-32 -46,-39 -57,-45 -178,-115 -11,-7 -50,-33 -86,-58 -81,-57 -215,-139 -257,-159 -17,-8 -58,-34 -89,-58 -32,-24 -89,-65 -128,-91 -39,-27 -80,-57 -91,-67 -11,-10 -30,-21 -42,-24 -11,-4 -24,-13 -27,-22 -3,-8 -25,-23 -48,-33 -24,-10 -52,-28 -64,-38 -30,-30 -91,-48 -118,-35 -11,6 -32,13 -46,15 -62,13 -171,47 -235,75 -87,37 -241,87 -320,103 -33,7 -64,16 -69,21 -6,4 -19,8 -31,8 -12,0 -63,22 -115,48 -52,27 -114,54 -137,60 -108,30 -123,36 -123,50 0,17 34,49 60,57 10,3 21,12 24,20 3,8 13,15 23,15 10,0 29,9 43,20 14,11 33,20 42,20 9,0 21,6 25,13 4,7 27,21 50,31 23,10 50,28 60,38 10,11 43,36 73,56 30,19 64,43 75,53 22,19 63,43 180,104 100,52 128,69 186,117 26,21 52,38 58,38 6,0 8,8 5,18 -4,13 -3,14 4,4 7,-11 19,-9 60,12 27,14 56,31 63,38 8,8 30,24 49,37 19,14 46,34 60,46 14,12 49,32 77,44 29,12 74,36 100,53 26,18 86,52 133,76 47,24 90,48 96,53 15,12 147,79 157,79 5,0 23,11 40,24 18,13 70,43 117,66 47,24 103,55 125,70 22,15 43,28 47,29 45,9 161,69 223,116 33,24 71,49 85,55 14,6 89,54 168,106 103,69 142,100 142,115 0,17 5,19 38,13 20,-3 61,-17 91,-31 z"
             style="fill:#cb3c32;fill-opacity:1" />
          <path
             inkscape:connector-curvature="0"
             id="path10"
             d="m 6202,5738 c 2,-13 14,-45 27,-71 13,-27 24,-59 24,-72 0,-13 16,-43 38,-67 21,-24 50,-73 65,-110 15,-37 35,-75 46,-84 10,-10 18,-23 18,-30 0,-8 10,-36 21,-63 17,-38 26,-48 44,-47 25,1 23,22 -2,43 -8,6 -13,16 -10,20 3,5 -7,29 -24,54 -16,24 -29,51 -29,59 0,26 -73,170 -86,170 -7,0 -15,14 -19,30 -4,17 -11,28 -16,25 -5,-4 -6,1 -3,9 3,9 1,16 -5,16 -6,0 -11,11 -11,23 0,20 -64,117 -77,117 -2,0 -2,-10 -1,-22 z"
             style="fill:#cb3c32;fill-opacity:1" />
          <path
             inkscape:connector-curvature="0"
             id="path12"
             d="m 6521,5158 c 11,-21 11,-22 -4,-9 -10,7 -17,10 -17,6 0,-9 27,-70 53,-120 58,-111 97,-194 97,-208 0,-6 8,-19 18,-30 19,-21 27,-143 10,-164 -5,-6 -30,-23 -56,-36 -26,-14 -85,-53 -132,-88 -47,-35 -117,-84 -155,-109 -39,-24 -72,-47 -75,-51 -5,-7 -120,-84 -241,-161 -41,-26 -113,-78 -162,-115 -158,-122 -298,-227 -361,-270 -33,-24 -60,-47 -59,-52 2,-6 -3,-8 -11,-5 -30,11 -217,-109 -208,-134 5,-16 -15,-16 -21,1 -4,10 -6,10 -6,0 -1,-7 -8,-13 -17,-13 -10,0 -14,-6 -11,-14 4,-11 1,-13 -10,-9 -11,5 -14,3 -9,-6 6,-9 2,-12 -10,-11 -11,1 -27,2 -36,1 -16,-1 -196,-133 -338,-247 -25,-20 -48,-45 -52,-55 -4,-10 -19,-21 -33,-25 -26,-6 -35,-24 -12,-25 6,0 -5,-7 -25,-16 -21,-8 -38,-19 -38,-24 0,-5 -5,-9 -11,-9 -13,0 -89,-59 -132,-102 -15,-15 -31,-28 -36,-28 -5,0 -13,-9 -16,-21 -4,-11 -9,-18 -12,-15 -3,3 -27,-10 -53,-29 -26,-19 -53,-35 -59,-35 -6,0 -11,-4 -11,-9 0,-5 -17,-16 -37,-25 -21,-9 -46,-21 -56,-27 -14,-8 -19,-4 -27,18 -6,16 -15,35 -20,43 -6,8 -13,22 -16,30 -3,8 -14,33 -24,55 -10,22 -27,60 -38,85 -31,71 -52,113 -65,135 -35,57 -50,74 -60,68 -6,-3 -7,-1 -3,5 8,14 -18,55 -28,45 -4,-4 -5,-1 -1,7 3,9 -3,20 -14,27 -32,20 -37,-15 -6,-47 14,-14 25,-29 25,-33 0,-8 60,-100 74,-112 18,-15 91,-200 115,-290 25,-89 34,-105 59,-98 10,2 29,0 44,-6 26,-10 26,-12 28,-113 3,-121 3,-117 0,-418 -2,-129 -3,-370 -2,-535 1,-334 -3,-530 -13,-573 -3,-16 -8,-96 -11,-178 -3,-82 -6,-158 -6,-169 -1,-11 0,-54 1,-95 7,-174 7,-174 -49,-214 -58,-42 -61,-42 -85,-16 -10,11 -28,20 -40,20 -11,0 -25,4 -31,10 -5,5 -20,11 -33,13 -12,2 -26,8 -29,14 -12,18 -114,64 -337,153 -93,37 -269,122 -273,132 -2,4 -12,8 -23,8 -11,0 -54,19 -97,41 -42,23 -95,50 -117,61 -22,12 -41,24 -43,29 -2,5 -9,9 -16,9 -6,0 -30,9 -51,21 -22,11 -69,32 -105,45 -36,14 -81,36 -100,48 -66,43 -145,83 -200,101 -30,9 -73,26 -96,36 -22,10 -46,19 -52,19 -7,0 -12,4 -12,9 0,6 -26,18 -57,28 -32,9 -62,23 -66,30 -4,7 -16,13 -25,13 -9,0 -26,7 -36,15 -10,8 -23,12 -29,8 -6,-3 -7,-1 -3,6 5,8 -27,28 -96,61 -57,27 -110,50 -119,50 -9,0 -19,3 -23,8 -4,4 -11,7 -14,7 -4,0 -50,26 -103,58 -66,39 -102,55 -114,50 -13,-4 -16,-3 -11,6 5,8 1,14 -12,17 -11,3 -39,16 -63,30 -24,13 -64,33 -89,44 -104,49 -137,66 -173,89 -32,20 -40,22 -47,11 -13,-22 9,-42 39,-36 14,3 20,3 13,0 -16,-7 3,-34 23,-34 8,0 15,-4 17,-8 1,-5 35,-21 73,-36 39,-15 86,-38 105,-50 19,-12 73,-39 120,-60 47,-22 111,-56 143,-78 31,-21 83,-48 115,-59 75,-27 183,-78 272,-128 40,-23 84,-44 98,-48 14,-3 37,-12 51,-19 14,-8 31,-14 38,-14 6,0 13,-4 15,-10 2,-5 50,-28 107,-49 57,-22 111,-46 120,-54 9,-7 59,-35 111,-60 52,-26 102,-51 110,-57 8,-5 50,-24 94,-41 43,-17 100,-47 128,-65 67,-46 403,-210 458,-224 25,-7 74,-27 111,-46 36,-19 74,-36 85,-38 40,-9 235,-119 251,-142 25,-39 113,-27 144,19 4,6 17,7 28,4 25,-6 71,31 71,57 0,9 25,43 55,76 30,33 55,64 55,68 0,17 357,372 373,372 10,0 50,33 90,74 40,40 110,97 157,127 47,29 99,66 115,82 17,15 49,42 72,60 23,18 41,37 38,43 -2,7 4,10 15,7 13,-4 35,9 67,40 26,25 62,56 78,69 31,24 53,43 171,149 39,35 97,82 129,104 73,51 174,134 245,201 63,60 186,156 227,178 15,8 46,33 68,56 42,43 103,89 158,116 18,9 46,29 62,45 17,15 49,40 71,56 23,15 66,51 96,78 30,28 82,73 116,100 127,102 136,111 129,130 -4,9 -16,19 -26,22 -33,8 -38,42 -34,208 4,165 5,356 3,529 -1,81 -5,102 -18,113 -12,9 -14,15 -6,20 11,8 25,87 30,173 5,101 5,330 -1,340 -3,5 -2,10 4,10 12,0 13,137 2,209 -4,27 -4,99 0,158 10,130 -3,194 -42,203 -18,4 -29,21 -49,71 -22,56 -41,94 -81,159 -5,8 -18,34 -30,58 -12,23 -28,42 -35,42 -10,0 -13,7 -9,23 4,15 -2,37 -15,60 -24,40 -38,51 -19,15 z m 237,-698 c 2,-80 3,-188 4,-240 2,-117 -7,-413 -13,-426 -2,-5 -3,-40 -3,-79 5,-204 4,-416 -1,-424 -3,-6 -1,-12 4,-15 4,-3 7,-34 5,-68 -1,-35 -5,-125 -9,-200 -3,-75 -9,-159 -14,-185 -6,-28 -6,-54 0,-65 18,-34 7,-57 -61,-127 -39,-39 -74,-71 -78,-71 -4,0 -29,-21 -55,-45 -26,-25 -51,-45 -56,-45 -4,0 -16,-9 -27,-21 -10,-11 -64,-50 -119,-86 -92,-61 -178,-139 -169,-154 2,-4 -4,-6 -14,-5 -9,0 -16,-4 -15,-10 1,-7 -5,-11 -15,-10 -9,0 -16,-4 -15,-11 2,-7 -3,-10 -10,-8 -15,6 -89,-59 -79,-70 4,-4 2,-5 -5,-1 -15,8 -53,-14 -53,-32 0,-7 -4,-11 -9,-8 -13,9 -104,-82 -95,-95 4,-8 3,-9 -4,-5 -10,6 -41,-16 -94,-67 -10,-9 -22,-17 -28,-17 -5,0 -10,-4 -10,-9 0,-5 -12,-12 -26,-15 -29,-8 -87,-52 -173,-134 -31,-30 -83,-76 -116,-103 -33,-26 -96,-78 -140,-114 -43,-36 -83,-65 -87,-65 -4,0 -8,-7 -8,-16 0,-8 -4,-13 -9,-10 -13,9 -62,-34 -54,-47 3,-7 3,-9 -2,-5 -4,4 -29,-10 -54,-31 -25,-21 -61,-46 -80,-56 -23,-11 -30,-19 -22,-25 9,-5 8,-9 -4,-13 -9,-4 -13,-3 -10,3 3,6 1,10 -6,10 -6,0 -46,-35 -89,-78 -43,-42 -95,-86 -116,-97 -38,-20 -358,-335 -397,-390 -11,-16 -34,-43 -50,-59 -24,-24 -31,-26 -42,-15 -11,11 -12,35 -6,106 4,51 5,114 1,140 -4,27 -4,58 1,70 16,42 21,270 23,963 1,388 4,710 8,716 4,5 3,27 -2,47 -4,20 -5,37 -1,37 3,0 5,40 3,88 -3,87 -3,88 23,100 14,7 28,19 31,27 4,8 12,15 19,15 7,0 29,15 48,33 19,17 58,53 87,80 29,26 47,47 41,47 -7,0 -9,5 -5,11 4,8 9,7 14,-2 6,-9 18,-3 47,25 21,21 61,51 88,67 28,15 75,51 105,80 30,28 100,85 155,125 55,41 117,88 137,105 21,16 65,46 99,65 105,59 179,107 179,115 0,4 6,9 13,11 10,3 173,98 255,150 15,10 41,25 57,34 27,15 61,42 120,93 43,37 224,171 309,227 145,97 188,127 251,174 33,26 96,68 140,95 69,42 92,58 150,103 33,26 102,62 115,59 12,-2 16,-28 18,-147 z"
             style="fill:#cb3c32;fill-opacity:1" />
        </g>
        <path
           transform="scale(0.8,0.8)"
           inkscape:connector-curvature="0"
           d="m 478.37987,443.1246 c 0.40867,0.64499 0.94866,1.19255 1.39225,1.81449 0.37663,0.49907 0.70609,1.02771 1.02091,1.56691 0.19524,0.4424 0.32858,0.91414 0.47265,1.37639 0.11773,0.50167 0.26407,0.9966 0.36633,1.50191 0.0562,0.46242 0.12297,0.92154 0.19636,1.38175 0.0827,0.55253 0.17067,1.10581 0.26961,1.65595 0.32072,-0.38672 -0.83299,0.46377 -1.28762,0.59216 -0.0783,0.0221 0.0155,-0.16208 0.0198,-0.24335 0.0209,-0.39461 -0.006,-0.76357 -0.0609,-1.15413 -0.0332,-0.15817 -0.34872,-1.38152 -0.65821,-1.10132 2.04943,-1.16187 0.99152,-1.06608 1.32048,-0.51499 0.082,0.13737 0.18665,0.25942 0.2678,0.39901 0.143,0.36191 0.25756,0.7303 0.42106,1.08444 0.2467,0.31804 0.58281,0.55424 0.91168,0.78287 0.0552,0.0454 0.11035,0.0908 0.16552,0.13626 0,0 -1.26026,0.79009 -1.26026,0.79009 l 0,0 c -0.0531,-0.0428 -0.10624,-0.0855 -0.15936,-0.12825 -0.34607,-0.24893 -0.70597,-0.49569 -0.95395,-0.84834 -0.1607,-0.34994 -0.28184,-0.71088 -0.41535,-1.07109 -0.53919,-0.91956 -0.73095,-0.63989 0.90207,-1.5275 0.53205,0.14287 0.62504,0.86975 0.7591,1.31195 0.0608,0.39656 0.0889,0.77217 0.0858,1.17324 -6.4e-4,0.084 0.0624,0.19899 -0.003,0.25192 -0.40614,0.32973 -0.87437,0.57631 -1.33123,0.83114 -0.0225,0.0126 -0.0256,-0.0448 -0.0383,-0.0672 -0.0812,-0.55438 -0.18216,-1.10496 -0.26597,-1.65846 -0.0731,-0.45864 -0.15146,-0.91368 -0.19518,-1.37626 -0.0961,-0.50171 -0.24331,-0.99118 -0.35618,-1.48903 -0.14202,-0.4517 -0.27768,-0.91012 -0.45936,-1.34643 -0.30676,-0.53833 -0.62766,-1.06632 -1.00214,-1.56131 -0.44564,-0.62365 -0.9783,-1.17692 -1.40967,-1.80974 0,0 1.28513,-0.75304 1.28513,-0.75304 z"
           id="path2993"
           style="color:#000000;fill:#cb3c32;fill-opacity:1;fill-rule:nonzero;stroke:#c42836;stroke-width:0;stroke-linecap:square;stroke-linejoin:round;stroke-miterlimit:4;stroke-opacity:1;stroke-dasharray:none;stroke-dashoffset:0;marker:none;visibility:visible;display:inline;overflow:visible;enable-background:accumulate" />
      </g>
      <path
         style="color:#000000;fill:#cb3c32;fill-opacity:1;fill-rule:nonzero;stroke:#c42836;stroke-width:0;stroke-linecap:square;stroke-linejoin:round;stroke-miterlimit:4;stroke-opacity:1;stroke-dasharray:none;stroke-dashoffset:0;marker:none;visibility:visible;display:inline;overflow:visible;enable-background:accumulate"
         id="path3770"
         d="m 773.07476,154.85935 c 0.47903,0.31889 0.985,0.59559 1.4406,0.9483 0.34762,0.28969 0.7008,0.55059 1.1076,0.75267 0.48339,0.21492 0.86592,0.44943 1.11231,0.92842 0.25819,0.44622 0.3078,0.95787 0.43394,1.44588 0.0764,0.34869 0.2876,0.64016 0.51546,0.90701 0,0 -1.55881,0.93652 -1.55881,0.93652 l 0,0 c -0.23964,-0.29078 -0.47115,-0.60233 -0.55387,-0.97717 -0.12724,-0.47439 -0.16005,-0.97749 -0.41615,-1.41141 -0.22307,-0.44343 -0.61575,-0.62799 -1.05213,-0.83205 -0.40845,-0.21666 -0.769,-0.48532 -1.12274,-0.78138 -0.46044,-0.34744 -0.96367,-0.62921 -1.44761,-0.94187 0,0 1.5414,-0.97492 1.5414,-0.97492 z"
         inkscape:connector-curvature="0"
         transform="scale(0.8,0.8)" />
      <path
         style="color:#000000;fill:#cb3c32;fill-opacity:1;fill-rule:nonzero;stroke:#c42836;stroke-width:0;stroke-linecap:square;stroke-linejoin:round;stroke-miterlimit:4;stroke-opacity:1;stroke-dasharray:none;stroke-dashoffset:0;marker:none;visibility:visible;display:inline;overflow:visible;enable-background:accumulate"
         id="path3772"
         d="m 808.49374,222.40694 c 0.48176,0.8184 1.13668,1.5061 1.74613,2.22702 0.64436,0.71571 1.22867,1.47886 1.79388,2.25749 0.3928,0.40078 0.62406,0.91019 0.9164,1.3789 0.28921,0.53839 0.58658,1.07122 0.86182,1.61754 0.37396,0.62784 0.62889,1.31034 0.87555,1.99486 0.18466,0.71882 0.26464,1.44967 0.46311,2.16678 0.16438,0.52652 0.45774,0.97454 0.8261,1.37872 0.0492,0.0593 0.0983,0.1186 0.14753,0.1779 0,0 -1.55868,0.93532 -1.55868,0.93532 l 0,0 c -0.0477,-0.0576 -0.0955,-0.11513 -0.14322,-0.1727 -0.37889,-0.4322 -0.6889,-0.9009 -0.85711,-1.45689 -0.19628,-0.7126 -0.29399,-1.43492 -0.46174,-2.15249 -0.2393,-0.67913 -0.48474,-1.35801 -0.85834,-1.97779 -0.27814,-0.53936 -0.57872,-1.06407 -0.86571,-1.59816 -0.28617,-0.46736 -0.51905,-0.96931 -0.89903,-1.37444 -0.55479,-0.77983 -1.13282,-1.54185 -1.7772,-2.25082 -0.61752,-0.72837 -1.26669,-1.43212 -1.7855,-2.23778 0,0 1.57601,-0.91346 1.57601,-0.91346 z"
         inkscape:connector-curvature="0"
         transform="scale(0.8,0.8)" />
    </g>
    <path
       inkscape:connector-curvature="0"
       id="path3784"
       d="m 413.6317,411.93502 c -1.22858,-2.65833 -4.84775,-10.5289 -8.0426,-17.49016 -5.7069,-12.43479 -10.49724,-20.60633 -12.07986,-20.60633 -0.4409,0 -0.80165,-0.75469 -0.80165,-1.67708 0,-0.92239 -0.75789,-2.15038 -1.68421,-2.72887 -0.92632,-0.5785 -1.68421,-1.69301 -1.68421,-2.47671 0,-0.7837 -0.7579,-1.66544 -1.68421,-1.95945 -1.02168,-0.32427 -1.68421,-1.27412 -1.68421,-2.41464 0,-1.03404 -0.33317,-2.24009 -0.74038,-2.68009 -0.4072,-0.44 -1.20972,-2.31579 -1.78336,-4.16843 -0.57364,-1.85263 -2.52443,-6.08629 -4.33507,-9.40815 -1.81064,-3.32184 -4.04147,-8.21787 -4.9574,-10.88007 -1.75428,-5.0989 -5.10404,-11.41038 -7.55675,-14.23809 -0.80347,-0.92632 -2.12982,-4.47439 -2.94745,-7.88461 -0.81763,-3.41022 -2.52401,-8.14706 -3.79197,-10.52632 -1.26796,-2.37925 -3.84695,-8.94018 -5.73109,-14.57983 -1.88414,-5.63966 -4.39154,-11.78389 -5.57198,-13.65383 -1.18044,-1.86994 -3.14551,-5.89597 -4.3668,-8.9467 -2.20576,-5.50991 -2.20966,-5.5591 -0.58513,-7.3988 0.89946,-1.01861 2.26928,-2.87392 3.04402,-4.12292 0.77475,-1.249 6.05523,-5.43404 11.73442,-9.30009 14.75185,-10.04219 27.28263,-18.88288 32.64157,-23.02923 2.54737,-1.97095 10.69474,-7.2484 18.10526,-11.72765 7.41053,-4.47926 17.07369,-10.54271 21.47369,-13.47435 4.4,-2.93164 17.47368,-11.38585 29.05263,-18.78713 11.57894,-7.40127 25.69894,-16.43067 31.37775,-20.06534 5.67881,-3.63465 11.93144,-7.58051 13.89474,-8.76857 1.96329,-1.18806 5.23979,-3.27227 7.28112,-4.63158 2.04133,-1.35931 5.8308,-3.82649 8.42105,-5.48262 2.59025,-1.65612 7.93128,-5.4456 11.86896,-8.42104 3.93768,-2.97546 12.00148,-8.44149 17.91958,-12.14676 5.9181,-3.70526 15.95952,-10.05715 22.31427,-14.11529 12.59022,-8.040122 23.66835,-14.095234 25.78796,-14.095234 0.7398,0 1.3451,0.493728 1.3451,1.097176 0,0.603448 1.55859,4.298184 3.46355,8.210528 1.90495,3.91234 4.36774,9.48947 5.47288,12.39362 3.49638,9.188 8.64043,18.70806 9.85654,18.2414 0.69806,-0.26788 1.46855,0.60785 2.05965,2.34096 3.43528,10.07236 6.13667,16.07553 9.32692,20.72686 2.00927,2.92948 4.59685,7.46004 5.75017,10.0679 1.15333,2.60787 2.8078,5.73987 3.67661,6.96 0.86881,1.22014 2.39111,4.38722 3.38288,7.03797 0.99177,2.65075 2.90387,5.94549 4.24911,7.32165 1.34525,1.37616 2.4408,2.96273 2.43458,3.52571 -0.006,0.56298 3.25174,7.84465 7.23992,16.18149 3.98817,8.33684 8.17876,17.1242 9.3124,19.52747 1.71176,3.62885 2.01905,5.41326 1.81272,10.52631 l -0.24846,6.15675 -5.05263,3.29237 c -2.77895,1.81082 -11.30527,7.66671 -18.94737,13.01309 -7.6421,5.34639 -22.0421,15.18193 -32,21.85676 -15.71356,10.53287 -60.45863,43.21878 -66.52632,48.59691 -1.15789,1.02632 -3.15954,2.11458 -4.44808,2.41837 -3.76798,0.88836 -13.99439,7.38479 -17.205,10.92964 -1.92641,2.12696 -3.16582,2.92747 -3.55573,2.29659 -0.3969,-0.64223 -1.62753,0.0309 -3.65313,1.99811 -1.75186,1.70139 -3.90628,2.96657 -5.05163,2.96657 -1.09838,0 -4.7083,1.86776 -8.02205,4.15056 -10.46161,7.20689 -30.30991,22.82457 -31.69608,24.94012 -0.73234,1.1177 -2.49552,2.63409 -3.91816,3.36977 -1.63617,0.8461 -2.41656,1.78084 -2.12377,2.54384 0.25458,0.66344 0.17117,1.20624 -0.18535,1.20624 -2.43184,0 -21.42143,14.54588 -24.84284,19.02942 -0.84915,1.11277 -1.90002,2.02321 -2.33526,2.02321 -0.43525,0 -3.69518,1.923 -7.2443,4.27333 -7.25496,4.80443 -12.28202,7.52041 -13.8956,7.50738 -0.5974,-0.005 -2.09138,-2.18377 -3.31996,-4.84211 l 0,0 z"
       style="color:#000000;fill:#ff8284;fill-opacity:1;fill-rule:nonzero;stroke:#c42836;stroke-width:0;stroke-linecap:square;stroke-linejoin:round;stroke-miterlimit:4;stroke-opacity:1;stroke-dasharray:none;stroke-dashoffset:0;marker:none;visibility:visible;display:inline;overflow:visible;enable-background:accumulate" />
    <path
       inkscape:connector-curvature="0"
       id="path3792"
       d="m 327.86549,245.06496 c -5.78948,-1.74811 -15.83159,-5.15126 -22.31579,-7.56255 -9.98,-3.71126 -26.89402,-8.95473 -38.3158,-11.87817 -1.62104,-0.41491 -7.01865,-2.67538 -11.99468,-5.02325 -4.97601,-2.34788 -12.6497,-5.42875 -17.05263,-6.84638 -4.40292,-1.41764 -8.00532,-2.95521 -8.00532,-3.41684 0,-2.14731 7.43046,-7.66305 15.1579,-11.25193 3.01053,-1.3982 6.61053,-3.26027 8,-4.13794 1.38947,-0.87768 3.47369,-2.16035 4.63158,-2.85038 1.15789,-0.69002 6.69415,-4.60762 12.3028,-8.70576 5.60864,-4.09815 15.84023,-10.53415 22.73684,-14.30224 6.89662,-3.76809 15.68547,-9.11277 19.53078,-11.87707 3.84531,-2.76431 9.52952,-6.26548 12.63158,-7.78038 3.10206,-1.5149 9.24011,-5.40629 13.64011,-8.64753 4.4,-3.24124 10.44092,-7.11948 13.42428,-8.61831 2.98335,-1.49882 12.07809,-6.51576 20.21052,-11.14873 8.13244,-4.63297 18.19677,-10.13126 22.3652,-12.21841 4.16841,-2.08715 10.0421,-5.21513 13.05263,-6.95106 16.77708,-9.673998 25.46826,-14.363302 30.73684,-16.583966 3.2421,-1.36652 14.23157,-7.802929 24.42105,-14.303129 23.06294,-14.712606 29.62175,-19.291355 31.29764,-21.849078 1.86884,-2.852223 4.89973,-2.58983 14.47028,1.25274 11.89757,4.776864 25.75021,9.368669 28.26358,9.368669 2.50269,0 17.95685,4.000953 19.86324,5.142429 2.73134,1.635422 5.73232,2.610067 11.78947,3.828934 14.28353,2.874243 24.83591,7.293883 26.9799,11.299941 0.633,1.182777 -0.33855,2.283515 -5.33425,6.043582 -6.00245,4.517808 -21.77422,15.258468 -29.2246,19.902108 -15.35618,9.57115 -23.19891,14.74957 -28.90986,19.08868 -7.08206,5.38088 -9.24155,6.79864 -24.14277,15.85033 -5.32631,3.23546 -10.44211,6.50967 -11.36842,7.27603 -0.92632,0.76636 -3.57121,2.47068 -5.87756,3.78737 -2.30633,1.3167 -6.95897,4.31651 -10.33918,6.66625 -3.38022,2.34973 -8.60492,5.78803 -11.61044,7.64066 -3.00553,1.85264 -9.48589,6.02105 -14.40081,9.26316 -4.91492,3.24211 -12.82183,8.35789 -17.5709,11.36842 -4.74907,3.01053 -13.70028,8.74335 -19.89158,12.73961 -6.19129,3.99625 -13.96881,8.82384 -17.28336,10.72795 -3.31455,1.90413 -11.65139,7.50316 -18.52631,12.4423 -6.87492,4.93914 -13.82618,9.85303 -15.44723,10.91976 -1.62105,1.06672 -4.27368,2.93784 -5.89473,4.15803 -2.78743,2.09813 -8.80922,5.7889 -14.6384,8.9719 -3.66537,2.00145 -5.41501,1.8215 -17.3616,-1.78575 l 0,0 z"
       style="color:#000000;fill:#ff8284;fill-opacity:1;fill-rule:nonzero;stroke:#c42836;stroke-width:0;stroke-linecap:square;stroke-linejoin:round;stroke-miterlimit:4;stroke-opacity:1;stroke-dasharray:none;stroke-dashoffset:0;marker:none;visibility:visible;display:inline;overflow:visible;enable-background:accumulate" />
    <path
       inkscape:connector-curvature="0"
       id="path3794"
       d="m 332.91812,246.99605 c -2.08422,-0.60701 -4.46805,-1.50756 -5.29742,-2.00122 -0.82936,-0.49366 -1.87147,-0.67289 -2.31579,-0.39829 -0.44431,0.2746 -0.80785,0.16155 -0.80785,-0.25123 0,-0.91895 -5.89767,-2.81489 -6.87579,-2.21037 -0.38673,0.23901 -0.70315,-0.007 -0.70315,-0.54733 0,-0.54004 -0.56842,-0.76379 -1.26316,-0.49718 -0.69474,0.26659 -1.26316,0.0771 -1.26316,-0.42105 0,-0.49819 -0.54394,-0.69705 -1.20875,-0.44194 -0.66481,0.25511 -1.32797,0.11714 -1.47368,-0.3066 -0.14571,-0.42375 -1.21231,-0.94272 -2.3702,-1.15327 -1.1579,-0.21056 -2.2,-0.45836 -2.31579,-0.55067 -0.11579,-0.0923 -0.49474,-0.22659 -0.84211,-0.29839 -0.76726,-0.15859 -25.37919,-8.11123 -27.15789,-8.77529 -0.69474,-0.25938 -1.64211,-0.50327 -2.10526,-0.54198 -0.46316,-0.0387 -1.31579,-0.36694 -1.89474,-0.72941 -0.57895,-0.36245 -1.43158,-0.42481 -1.89474,-0.13857 -0.46315,0.28625 -0.8421,0.20179 -0.8421,-0.18768 0,-0.38948 -1.00379,-0.79121 -2.23064,-0.89274 -1.22686,-0.10154 -2.68277,-0.55985 -3.23538,-1.01847 -0.55261,-0.45863 -1.25408,-0.58451 -1.55883,-0.27976 -0.30475,0.30475 -0.5541,0.0714 -0.5541,-0.51846 0,-0.60741 -0.54781,-0.86233 -1.26316,-0.58783 -0.69473,0.2666 -1.26316,0.0953 -1.26316,-0.38066 0,-0.47595 -0.37894,-0.63117 -0.8421,-0.34492 -0.46316,0.28625 -0.84211,0.0968 -0.84211,-0.42105 0,-0.51783 -0.37894,-0.70731 -0.8421,-0.42106 -0.46316,0.28625 -0.8421,0.19147 -0.8421,-0.21061 0,-0.40209 -1.8,-1.34119 -4,-2.0869 -2.2,-0.74571 -6.27369,-2.2836 -9.05264,-3.41753 -5.44253,-2.22079 -8.17385,-3.22565 -8.8421,-3.25303 -0.23158,-0.01 -0.87814,-0.3966 -1.4368,-0.86025 -0.55866,-0.46364 -1.41129,-0.59852 -1.89474,-0.29973 -0.48344,0.29878 -0.87899,0.11956 -0.87899,-0.39826 0,-0.51783 -0.33924,-0.73184 -0.75386,-0.47559 -0.41463,0.25625 -0.93996,-0.019 -1.1674,-0.61174 -0.5467,-1.42466 3.62248,-6.0217 7.08526,-7.81237 1.51451,-0.78318 3.27236,-1.94268 3.90634,-2.57665 0.63398,-0.63399 2.07357,-1.38383 3.19907,-1.66631 1.12551,-0.28248 2.04638,-0.91463 2.04638,-1.40477 0,-0.49015 0.24144,-0.64973 0.53652,-0.35464 0.29509,0.29509 1.6214,-0.23599 2.94737,-1.18015 1.32597,-0.94417 2.41085,-1.4862 2.41085,-1.20451 0,0.58969 10.5067,-6.56449 13.1069,-8.92472 0.95617,-0.86791 2.18775,-1.57802 2.73684,-1.57802 0.5491,0 0.99836,-0.37895 0.99836,-0.84211 0,-0.46316 0.58032,-0.84211 1.28959,-0.84211 0.70927,0 1.50688,-0.56625 1.77245,-1.25832 0.26557,-0.69208 0.79881,-1.06305 1.18497,-0.82439 0.38616,0.23866 1.07769,-0.2372 1.53674,-1.05747 0.45905,-0.82027 1.14549,-1.4362 1.52544,-1.36875 1.07649,0.19112 7.84871,-3.98008 7.84871,-4.83424 0,-0.41915 0.28421,-0.71721 0.63158,-0.66236 1.49752,0.23645 2.53146,-0.20426 4.26226,-1.81675 1.01365,-0.94435 1.8488,-1.41804 1.8559,-1.05263 0.007,0.36542 0.2913,0.26314 0.63157,-0.22726 0.34028,-0.49041 3.27132,-2.34384 6.51343,-4.11872 3.2421,-1.77488 7.69561,-4.49996 9.89668,-6.05572 2.20108,-1.55576 4.33948,-2.82865 4.75201,-2.82865 0.41253,0 0.9774,-0.59243 1.25526,-1.31653 0.27786,-0.72409 0.8895,-1.07902 1.3592,-0.78873 0.4697,0.29029 1.08051,-0.0625 1.35735,-0.78389 0.27683,-0.72144 0.84258,-1.10204 1.2572,-0.84579 0.41463,0.25626 0.75387,0.12777 0.75387,-0.28554 0,-0.4133 0.49835,-0.75145 1.10742,-0.75145 0.60909,0 2.21961,-0.76634 3.57895,-1.70298 1.35934,-0.93663 5.12416,-3.35992 8.36626,-5.38508 3.24211,-2.02516 6.16513,-4.06935 6.49561,-4.54264 0.33047,-0.47328 0.92332,-0.86052 1.31746,-0.86052 0.39413,0 3.72373,-1.94058 7.39913,-4.3124 8.15932,-5.26539 19.48216,-11.66972 22.05096,-12.47229 1.04211,-0.32559 1.89474,-0.96775 1.89474,-1.42703 0,-0.45928 0.37894,-0.60085 0.8421,-0.3146 0.46316,0.28624 0.84211,0.0968 0.84211,-0.42105 0,-0.51783 0.32156,-0.74277 0.71457,-0.49987 0.39302,0.24289 1.48952,-0.28035 2.43668,-1.16276 0.94715,-0.8824 1.95191,-1.37456 2.23279,-1.09368 0.28089,0.28088 0.51069,0.0462 0.51069,-0.52146 0,-0.56769 0.37896,-0.79796 0.84211,-0.51171 0.46316,0.28625 0.84211,0.0968 0.84211,-0.42105 0,-0.51782 0.36513,-0.71584 0.81139,-0.44004 0.44626,0.27581 1.55152,-0.23867 2.45614,-1.14328 0.90461,-0.90462 1.8658,-1.4237 2.13598,-1.15352 0.27017,0.27017 0.49123,0.0267 0.49123,-0.54093 0,-0.56769 0.37894,-0.79795 0.8421,-0.5117 0.46316,0.28625 0.8421,0.0968 0.8421,-0.42106 0,-0.51782 0.33403,-0.73506 0.74228,-0.48275 0.40825,0.25231 2.01878,-0.40637 3.57895,-1.46374 1.56017,-1.05736 5.67877,-3.42038 9.15246,-5.25116 3.47368,-1.83076 6.44289,-3.61524 6.59824,-3.96549 0.15535,-0.35025 0.62903,-0.42263 1.05263,-0.16083 0.4236,0.2618 0.77018,0.0523 0.77018,-0.4655 0,-0.517824 0.37895,-0.707304 0.8421,-0.421056 0.46316,0.286246 0.84211,0.148528 0.84211,-0.306048 0,-0.454568 1.32632,-1.264216 2.94737,-1.799216 1.62105,-0.534992 2.94788,-1.227536 2.94849,-1.538992 6.2e-4,-0.311448 2.55851,-1.892584 5.68421,-3.51364 3.1257,-1.621048 5.81019,-3.233936 5.96554,-3.584192 0.15535,-0.350256 0.62904,-0.422624 1.05263,-0.160824 0.4236,0.2618 0.77018,0.05232 0.77018,-0.465504 0,-0.517832 0.3484,-0.726184 0.77422,-0.463016 0.42581,0.263176 1.35965,-0.106944 2.07519,-0.82248 0.71553,-0.715536 1.59871,-1.330384 1.96262,-1.366328 1.41866,-0.140136 12.23509,-5.935827 17.81708,-9.546801 3.23199,-2.090758 6.28366,-3.801378 6.78151,-3.801378 0.49785,0 0.90517,-0.378947 0.90517,-0.842105 0,-0.463158 0.39494,-0.842106 0.87765,-0.842106 0.48271,0 1.33534,-0.393829 1.89474,-0.875176 0.55939,-0.481348 6.51182,-4.482593 13.22761,-8.891656 6.71579,-4.409064 13.1579,-8.898288 14.31579,-9.976056 2.86373,-2.665546 7.57895,-5.004492 7.57895,-3.759468 0,0.539477 0.72194,0.773154 1.64383,0.532074 0.90411,-0.23643 1.76236,-0.07431 1.90721,0.360254 0.14486,0.434569 1.1104,0.85393 2.14564,0.931912 1.03524,0.07798 1.88226,0.376935 1.88226,0.664338 0,0.287402 0.47608,0.52255 1.05794,0.52255 0.58186,0 4.16965,1.2 7.97284,2.666667 3.80319,1.466667 7.49554,2.666667 8.20522,2.666667 0.70968,0 1.29032,0.355396 1.29032,0.789769 0,0.434373 0.66316,0.788656 1.47368,0.787295 1.82914,-0.003 8.42219,1.726821 10.89056,2.857481 1.01087,0.463033 2.43192,0.613944 3.1579,0.335359 0.72598,-0.278586 1.31997,-0.186834 1.31997,0.203894 0,0.390727 0.94425,0.710412 2.09834,0.710412 2.00041,0 9.69655,2.479499 15.21814,4.902895 1.41879,0.622704 4.2609,1.389187 6.31579,1.703296 2.05488,0.314109 4.20501,0.940715 4.77806,1.392459 0.57304,0.451743 1.61515,0.601376 2.31579,0.332517 0.70063,-0.268859 1.27388,-0.07758 1.27388,0.425057 0,0.502641 0.75789,0.715698 1.68421,0.473461 0.92632,-0.242236 1.68421,-0.05642 1.68421,0.412933 0,0.46935 0.56842,0.63524 1.26315,0.368645 0.69474,-0.266596 1.26316,-0.07712 1.26316,0.421053 0,0.498174 0.56843,0.687648 1.26316,0.421052 0.69474,-0.266596 1.26316,-0.07712 1.26316,0.421052 0,0.498175 0.56842,0.687648 1.26316,0.421053 0.69473,-0.266596 1.26316,-0.163639 1.26316,0.228792 0,0.711249 3.87408,2.599568 5.47368,2.668002 1.18372,0.05064 4.63158,3.408373 4.63158,4.510497 0,1.530064 -6.59687,7.80527 -7.79586,7.415742 -0.36963,-0.120088 -0.89069,0.351424 -1.15792,1.047792 -0.26722,0.696376 -0.79917,1.072496 -1.1821,0.835832 -0.38294,-0.236672 -1.29061,0.418248 -2.01703,1.455368 -0.72643,1.03712 -1.33283,1.517144 -1.34755,1.06672 -0.0147,-0.450424 -0.58316,-0.08337 -1.26316,0.81568 -0.68001,0.899048 -1.24843,1.278 -1.26316,0.842104 -0.0147,-0.435888 -0.48842,-0.223456 -1.05263,0.47208 -0.56422,0.695536 -2.48365,2.021848 -4.26541,2.947368 -1.78175,0.92552 -4.15017,2.517296 -5.26316,3.53729 -1.11297,1.01999 -2.0236,1.68565 -2.0236,1.47925 0,-0.2064 -0.97772,0.47485 -2.17273,1.51389 -1.19501,1.03905 -2.53515,1.88917 -2.97809,1.88917 -0.44294,0 -1.16466,0.56842 -1.60384,1.26316 -0.43918,0.69474 -0.8101,0.88421 -0.82429,0.42106 -0.0165,-0.53984 -0.24785,-0.53067 -0.64447,0.0256 -0.34028,0.47722 -4.65315,3.42132 -9.58417,6.54244 -8.48832,5.37276 -19.02805,12.67759 -21.75066,15.07484 -0.68335,0.6017 -1.44124,1.09621 -1.68421,1.09892 -0.73678,0.008 -6.95171,3.97971 -10.82205,6.91555 -2.00389,1.52005 -4.18283,2.76373 -4.8421,2.76373 -0.65926,0 -1.19865,0.30615 -1.19865,0.68031 0,0.37417 -3.69474,2.86907 -8.21053,5.54423 -4.51579,2.67514 -10.60324,6.53743 -13.52768,8.58284 -2.92443,2.04542 -5.6718,3.71894 -6.10526,3.71894 -0.43346,0 -0.78811,0.40132 -0.78811,0.89181 0,0.49049 -0.38163,0.65594 -0.84805,0.36767 -0.46643,-0.28826 -1.07456,0.0661 -1.3514,0.78757 -0.27684,0.72144 -0.8193,1.11643 -1.20545,0.87777 -0.38617,-0.23866 -1.09283,0.2372 -1.57037,1.05747 -0.47754,0.82027 -0.87978,1.19243 -0.89386,0.82701 -0.0141,-0.36541 -0.83468,0.0894 -1.82354,1.01065 -0.98886,0.92126 -3.07308,2.28012 -4.63157,3.01968 -1.55852,0.73957 -2.83366,1.72819 -2.83366,2.19694 0,0.46877 -0.37894,0.6181 -0.8421,0.33185 -0.46316,-0.28625 -0.84211,-0.20531 -0.84211,0.17986 0,0.38517 -1.42105,1.44601 -3.15789,2.35742 -1.73684,0.91142 -3.34737,1.86266 -3.57895,2.11387 -0.23158,0.25122 -2.50526,1.76379 -5.05263,3.36127 -2.54737,1.59748 -4.75868,3.19793 -4.91403,3.55656 -0.15535,0.35862 -0.58135,0.46731 -0.94669,0.24152 -0.36533,-0.22579 -1.6359,0.48997 -2.82346,1.59059 -1.18759,1.10061 -2.37211,1.78825 -2.63227,1.52809 -0.26017,-0.26017 -0.47302,-0.031 -0.47302,0.50942 0,0.54035 -0.53685,0.98246 -1.19299,0.98246 -0.65613,0 -1.31929,0.2842 -1.47368,0.63157 -0.40773,0.9174 -12.31493,8.63159 -13.32324,8.63159 -0.46872,0 -0.8522,0.40131 -0.8522,0.8918 0,0.49049 -0.32156,0.69307 -0.71458,0.45017 -0.39301,-0.24289 -1.51401,0.30316 -2.4911,1.21346 -0.97709,0.9103 -2.17132,1.65509 -2.65385,1.65509 -0.48251,0 -0.87731,0.40132 -0.87731,0.8918 0,0.4905 -0.38163,0.65595 -0.84805,0.36768 -0.46643,-0.28826 -1.07456,0.0661 -1.3514,0.78757 -0.27684,0.72144 -0.84526,1.10039 -1.26316,0.84211 -0.4179,-0.25828 -0.98632,0.12067 -1.26316,0.8421 -0.27683,0.72144 -0.82876,1.11058 -1.22649,0.86477 -0.39774,-0.24582 -1.49486,0.32478 -2.43808,1.268 -0.94321,0.94321 -1.99914,1.71182 -2.3465,1.70803 -0.34737,-0.004 -1.29474,0.56092 -2.10527,1.25491 -0.81053,0.694 -1.47368,1.06111 -1.47368,0.8158 0,-0.24531 -0.47369,-0.0476 -1.05263,0.43941 -2.42627,2.04085 -24.44851,16.86519 -25.05403,16.86519 -0.36329,0 -0.87864,0.56842 -1.14524,1.26315 -0.26659,0.69474 -1.06503,1.26316 -1.77431,1.26316 -0.70927,0 -1.28958,0.37895 -1.28958,0.84211 0,0.46316 -0.54959,0.8421 -1.22131,0.8421 -0.67173,0 -1.52436,0.54151 -1.89474,1.20335 -0.37038,0.66184 -1.05237,1.30381 -1.51553,1.42662 -0.46316,0.12279 -1.22105,0.52294 -1.68421,0.88922 -0.46316,0.36627 -2.0211,1.60847 -3.46208,2.76043 -1.44099,1.15197 -2.85311,1.86133 -3.13807,1.57637 -0.28496,-0.28496 -0.7562,0.10239 -1.04722,0.86076 -0.29101,0.75836 -0.86835,1.16918 -1.28297,0.91293 -0.41463,-0.25625 -0.75387,-0.12557 -0.75387,0.29041 0,0.41598 -1.51145,1.48045 -3.35876,2.36549 -1.84732,0.88504 -3.36311,1.91574 -3.36842,2.29044 -0.005,0.3747 -0.39129,0.44541 -0.85772,0.15715 -0.46643,-0.28826 -1.04966,0.002 -1.29608,0.64342 -0.28641,0.74639 -2.01249,1.23892 -4.78518,1.36544 -2.38544,0.10884 -4.54956,0.30571 -4.80918,0.43746 -0.25962,0.13176 -2.17729,-0.25708 -4.2615,-0.86407 z"
       style="color:#000000;fill:#ffa3a4;fill-opacity:1;fill-rule:nonzero;stroke:#c42836;stroke-width:0;stroke-linecap:square;stroke-linejoin:round;stroke-miterlimit:4;stroke-opacity:1;stroke-dasharray:none;stroke-dashoffset:0;marker:none;visibility:visible;display:inline;overflow:visible;enable-background:accumulate" />
    <path
       inkscape:connector-curvature="0"
       id="path3802"
       d="m 423.42032,643.10169 c -0.5079,-1.3628 0.0133,-26.36307 1.1279,-54.10527 0.48384,-12.0421 1.08179,-55.23637 1.3288,-95.98728 0.42388,-69.9314 0.5337,-74.15224 1.95562,-75.15544 0.82859,-0.5846 2.26442,-1.73936 3.19074,-2.56612 0.92632,-0.82677 2.82105,-2.21612 4.21052,-3.08745 3.62818,-2.2752 15.57896,-14.02987 15.57896,-15.32331 0,-0.60556 0.54175,-0.8828 1.218,-0.6233 0.70699,0.27129 3.62185,-1.44584 6.94737,-4.09266 3.15115,-2.50804 7.05567,-5.45102 8.67673,-6.53996 1.62105,-1.08895 5.97894,-4.50926 9.68421,-7.60068 13.99668,-11.67792 29.64626,-23.2166 40.73305,-30.03311 6.31261,-3.8812 13.37221,-8.39364 15.688,-10.02766 2.31579,-1.63402 11.16106,-7.09755 19.65616,-12.14117 8.49508,-5.04363 17.40035,-10.83032 19.78947,-12.85932 10.5459,-8.95627 41.04637,-30.8211 69.79186,-50.03158 5.6878,-3.80113 12.99409,-8.78644 16.23619,-11.07846 8.40763,-5.94382 13.98972,-8.77839 15.10088,-7.66817 1.70596,1.70455 0.65554,162.10235 -1.14632,175.03935 -0.6514,4.67694 -0.71082,7.84978 -0.17574,9.3847 0.59143,1.69659 0.47742,2.96427 -0.42487,4.72369 -2.89338,5.64202 -21.75006,22.18973 -38.19605,33.51903 -8.96695,6.17716 -17.68421,13.7057 -17.68421,15.27274 0,0.65557 -0.43791,1.19196 -0.97314,1.19196 -0.53523,0 -2.21521,0.94736 -3.73329,2.10526 -1.51808,1.15789 -3.11868,2.10526 -3.5569,2.10526 -0.4382,0 -2.267,1.42105 -4.06397,3.15789 -1.79698,1.73685 -4.31647,3.62831 -5.59887,4.20325 -1.2824,0.57494 -2.55101,1.61704 -2.81913,2.31578 -0.26814,0.69875 -0.93491,1.27045 -1.48171,1.27045 -1.30265,0 -8.93088,7.75693 -8.93088,9.08155 0,0.56304 -0.54637,1.02371 -1.21416,1.02371 -0.66778,0 -3.3169,1.84007 -5.88692,4.08904 -2.57003,2.24897 -6.85524,5.25739 -9.5227,6.68537 -2.66745,1.42798 -10.53412,7.61622 -17.48149,13.75164 -6.94737,6.13542 -17.36842,14.91184 -23.15789,19.50317 -5.78948,4.59133 -10.94704,8.87882 -11.46126,9.52774 -0.51422,0.64893 -1.33316,1.17989 -1.81988,1.17989 -0.48671,0 -1.88384,1.18712 -3.10471,2.63805 -2.19598,2.60977 -5.53343,5.16607 -13.29836,10.18576 -2.2,1.4222 -4,3.08571 -4,3.69668 0,0.61097 -0.53223,0.90662 -1.18272,0.657 -0.70443,-0.27031 -4.36531,2.39579 -9.05263,6.59275 -4.32845,3.87561 -9.55044,8.34744 -11.6044,9.93738 -6.24276,4.8324 -23.95696,21.76364 -32.57428,31.13448 -16.31118,17.73748 -15.87353,17.34735 -16.76798,14.94737 z"
       style="color:#000000;fill:#ffa3a4;fill-opacity:1;fill-rule:nonzero;stroke:#c42836;stroke-width:0;stroke-linecap:square;stroke-linejoin:round;stroke-miterlimit:4;stroke-opacity:1;stroke-dasharray:none;stroke-dashoffset:0;marker:none;visibility:visible;display:inline;overflow:visible;enable-background:accumulate" />
    <path
       inkscape:connector-curvature="0"
       id="path3804"
       d="m 422.67293,642.03054 c -0.28806,-1.14771 -0.33327,-2.93938 -0.10046,-3.98148 0.97832,-4.37925 2.55169,-84.04489 3.32211,-168.21053 0.40376,-44.11074 0.74644,-51.13508 2.56755,-52.63158 0.56362,-0.46316 2.26737,-1.78947 3.78609,-2.94737 5.87839,-4.48175 16.10601,-13.72982 17.77279,-16.07057 0.96175,-1.35066 2.27806,-2.45575 2.92515,-2.45575 0.64708,0 2.4713,-1.13684 4.05382,-2.52631 1.58253,-1.38947 3.28215,-2.52632 3.77694,-2.52632 0.49478,0 1.20266,-0.49972 1.57304,-1.11048 0.37038,-0.61077 2.53036,-2.37341 4.79994,-3.91698 2.2696,-1.54358 6.70161,-5.0228 9.84894,-7.73163 3.14732,-2.70881 6.13386,-4.92512 6.63674,-4.92512 0.50289,0 1.13247,-0.56842 1.39906,-1.26316 0.2666,-0.69473 0.99926,-1.26315 1.62815,-1.26315 0.62889,0 1.54905,-0.75789 2.0448,-1.68421 0.49575,-0.92632 1.42487,-1.68421 2.06471,-1.68421 0.63985,0 1.28968,-0.33767 1.44406,-0.75038 0.39081,-1.0447 8.89933,-7.67068 9.85005,-7.67068 0.42723,0 1.00412,-0.59243 1.28198,-1.31653 0.27786,-0.72409 0.8895,-1.07902 1.3592,-0.78873 0.4697,0.29029 1.08134,-0.0646 1.3592,-0.78873 0.27786,-0.7241 1.03308,-1.31653 1.67827,-1.31653 0.64517,0 1.17306,-0.37895 1.17306,-0.84211 0,-0.46315 0.56842,-0.8421 1.26315,-0.8421 0.69474,0 1.26316,-0.37895 1.26316,-0.84211 0,-0.46316 0.56843,-0.8421 1.26316,-0.8421 0.69474,0 1.26316,-0.40131 1.26316,-0.89181 0,-0.49049 0.34659,-0.6776 0.77018,-0.41581 0.4236,0.26181 0.89728,0.14839 1.05263,-0.25205 0.15535,-0.40043 3.7315,-2.85412 7.94702,-5.45266 4.21551,-2.59854 8.14265,-5.30068 8.727,-6.00477 0.58433,-0.70408 1.39844,-1.07249 1.80912,-0.81867 0.41067,0.25382 0.74668,0.0378 0.74668,-0.48002 0,-0.51783 0.35565,-0.72169 0.79035,-0.45304 0.43469,0.26865 1.18106,-0.18267 1.6586,-1.00294 0.47754,-0.82026 0.88558,-1.11244 0.90676,-0.64929 0.0238,0.51912 0.2758,0.49915 0.65718,-0.0521 0.34028,-0.4918 7.15113,-4.82386 15.13522,-9.62681 7.98409,-4.80296 16.32093,-10.19492 18.52632,-11.98214 2.20537,-1.78722 5.22759,-4.23588 6.71604,-5.44146 1.48844,-1.20559 4.14107,-3.17968 5.89473,-4.38686 1.75366,-1.20718 3.49152,-2.66856 3.86191,-3.24751 0.37038,-0.57895 1.22301,-1.05263 1.89473,-1.05263 0.67172,-2e-5 1.22132,-0.37896 1.22132,-0.84212 0,-0.46316 0.56842,-0.84211 1.26316,-0.84211 0.69473,0 1.26316,-0.31673 1.26316,-0.70385 0,-0.38712 5.96841,-4.81356 13.26315,-9.83653 7.29474,-5.02298 15.81525,-10.95887 18.93448,-13.19089 3.11921,-2.23201 6.05605,-4.0582 6.52631,-4.0582 0.47025,0 0.855,-0.37895 0.855,-0.84211 0,-0.46315 0.52788,-0.84211 1.17306,-0.84211 0.64519,0 1.4004,-0.59244 1.67827,-1.31652 0.27786,-0.7241 0.88949,-1.07903 1.3592,-0.78874 0.4697,0.2903 1.08133,-0.0646 1.3592,-0.78873 0.27786,-0.72409 0.83927,-1.31653 1.24758,-1.31653 0.40831,0 1.40987,-0.53843 2.2257,-1.1965 3.17618,-2.56206 18.05205,-12.27718 18.79889,-12.27718 0.43433,0 0.78968,-0.37895 0.78968,-0.84211 0,-0.46316 0.56842,-0.8421 1.26316,-0.8421 0.69473,0 1.26316,-0.37895 1.26316,-0.84211 0,-0.46316 0.56842,-0.84211 1.26316,-0.84211 0.69473,0 1.26315,-0.40131 1.26315,-0.8918 0,-0.49049 0.37895,-0.6576 0.84211,-0.37135 0.46315,0.28625 0.8421,0.056 0.8421,-0.51171 0,-0.56768 0.24935,-0.78281 0.5541,-0.47806 0.30476,0.30476 1.01237,0.17377 1.57248,-0.29108 2.83018,-2.34884 2.95506,0.54163 3.15238,72.96511 0.1071,39.3105 -0.046,70.14732 -0.34027,68.52626 -0.29425,-1.62105 -0.57659,3.49474 -0.62743,11.36842 -0.16937,26.23219 -0.51478,35.78717 -1.29372,35.78833 -0.42455,6.3e-4 -0.52518,0.24789 -0.22361,0.54946 0.30158,0.30157 -0.10895,1.02893 -0.91228,1.61633 -0.80333,0.58741 -1.4606,1.43045 -1.4606,1.87343 0,1.12825 -6.51719,7.72633 -7.20918,7.29865 -0.31193,-0.19278 -2.11084,1.25128 -3.99758,3.20901 -5.53111,5.73925 -7.73172,7.77006 -8.41973,7.77006 -0.35525,0 -1.9583,1.22982 -3.56233,2.73294 -1.60404,1.50312 -3.40201,2.73471 -3.9955,2.73684 -0.59349,0.002 -1.29718,0.57232 -1.56377,1.26706 -0.26661,0.69473 -0.98103,1.26316 -1.58762,1.26316 -0.60658,0 -1.22919,0.31021 -1.38358,0.68934 -0.15439,0.37915 -3.69123,3.19273 -7.85965,6.25241 -4.16843,3.05967 -9.80758,7.86526 -12.53147,10.67906 -2.72388,2.81382 -5.42119,5.11603 -5.99402,5.11603 -0.90396,0 -6.69598,4.18153 -17.23935,12.44587 -3.08768,2.42026 -5.99745,5.21273 -9.00099,8.63814 -1.00016,1.14064 -3.65279,3.39769 -5.89474,5.01568 -2.24195,1.618 -4.37931,3.418 -4.7497,4 -0.37038,0.58201 -1.22301,1.0582 -1.89473,1.0582 -0.67173,0 -1.22132,0.44211 -1.22132,0.98246 0,0.54035 -0.22985,0.7526 -0.51079,0.47167 -0.28092,-0.28093 -0.94408,-0.14767 -1.47368,0.29614 -0.52959,0.44381 -2.55299,1.84257 -4.49643,3.10835 -1.94344,1.26578 -7.71311,5.99567 -12.82149,10.51087 -5.10837,4.5152 -9.64868,8.20946 -10.08956,8.20946 -0.44088,0 -1.62132,1.04211 -2.6232,2.31579 -1.00188,1.27369 -2.12971,2.31579 -2.50629,2.31579 -0.37657,0 -1.62054,0.94737 -2.76435,2.10527 -2.48277,2.51332 -5.15414,4.77536 -12.18789,10.32036 -2.89474,2.28204 -5.26316,4.55668 -5.26316,5.05475 0,0.49807 -0.22985,0.67573 -0.51079,0.39481 -0.54351,-0.54352 -0.99457,-0.24785 -4.96289,3.25308 -5.63819,4.97412 -9.48493,7.92436 -10.33235,7.92436 -0.49265,0 -1.02204,0.28421 -1.17643,0.63158 -0.42477,0.95576 -7.2344,6.10526 -8.07349,6.10526 -0.4035,0 -3.64678,2.68428 -7.20727,5.96505 -3.56049,3.28077 -6.47362,5.65947 -6.47362,5.28601 0,-0.37346 -1.06216,0.44753 -2.36035,1.82443 -1.2982,1.3769 -5.56136,5.22327 -9.47369,8.54751 -6.90264,5.86501 -24.31682,23.2564 -35.22979,35.18368 -5.91512,6.46489 -8.04867,7.48226 -8.86557,4.22744 l 0,0 z"
       style="color:#000000;fill:#cfcfcf;fill-opacity:1;fill-rule:nonzero;stroke:#c42836;stroke-width:0;stroke-linecap:square;stroke-linejoin:round;stroke-miterlimit:4;stroke-opacity:1;stroke-dasharray:none;stroke-dashoffset:0;marker:none;visibility:visible;display:inline;overflow:visible;enable-background:accumulate" />
    <path
       inkscape:connector-curvature="0"
       d="m 126.11262,520.97738 c 1.69624,0.40274 3.38534,0.83417 5.08048,1.24095 1.19757,0.36368 2.52653,0.55635 3.52824,1.35661 0.43243,0.48005 0.87911,0.82715 1.44882,1.12267 0.31945,0.17416 0.51513,0.43909 0.71119,0.73334 0,0 -2.34418,1.37484 -2.34418,1.37484 l 0,0 c -0.17509,-0.25775 -0.35089,-0.47621 -0.63925,-0.6179 -0.58007,-0.30063 -1.01823,-0.7017 -1.47082,-1.16751 -0.98572,-0.74378 -2.27182,-0.93116 -3.42522,-1.28831 -1.7111,-0.4188 -3.42054,-0.8435 -5.13983,-1.22769 0,0 2.25057,-1.527 2.25057,-1.527 z"
       id="path3812"
       style="color:#000000;fill:#cb3c32;fill-opacity:1;fill-rule:nonzero;stroke:#c42836;stroke-width:0;stroke-linecap:square;stroke-linejoin:round;stroke-miterlimit:4;stroke-opacity:1;stroke-dasharray:none;stroke-dashoffset:0;marker:none;visibility:visible;display:inline;overflow:visible;enable-background:accumulate" />
    <path
       inkscape:connector-curvature="0"
       id="path3824"
       d="m 405.4457,654.86617 c -1.07843,-0.77764 -4.25489,-2.25128 -7.05882,-3.27475 -2.80392,-1.02347 -6.68627,-2.84391 -8.62745,-4.04542 -1.94117,-1.20151 -10.7647,-5.2096 -19.60784,-8.90686 -8.84314,-3.69725 -21.72549,-9.47346 -28.62745,-12.83602 -6.90196,-3.36255 -13.43137,-6.38712 -14.5098,-6.72126 -2.85642,-0.88503 -18.81645,-8.9369 -21.55295,-10.87352 -1.28549,-0.90973 -7.46197,-3.87379 -13.72549,-6.58679 -6.26352,-2.71299 -15.09412,-6.99939 -19.62352,-9.52533 -4.52942,-2.52592 -12.4706,-6.23444 -17.64707,-8.24115 -5.17647,-2.0067 -11.52941,-4.67333 -14.11765,-5.92584 -10.6178,-5.13821 -20.05066,-9.44261 -20.69293,-9.44261 -0.37599,0 -1.14926,-0.56106 -1.71837,-1.2468 -1.23315,-1.48586 -14.70104,-8.31616 -19.15732,-9.71572 -1.72549,-0.54192 -7.19608,-3.21525 -12.15686,-5.94074 -4.96079,-2.72549 -10.43137,-5.59604 -12.15687,-6.37902 -1.72549,-0.78298 -3.31372,-1.6433 -3.52941,-1.91182 -0.21568,-0.26852 -7.70308,-4.04547 -16.63868,-8.39322 -8.93558,-4.34774 -17.02088,-8.79559 -17.96732,-9.88409 -0.94644,-1.08851 -2.98845,-2.392 -4.5378,-2.89663 -1.54934,-0.50465 -4.26801,-1.90861 -6.0415,-3.11992 -1.77348,-1.2113 -4.71274,-2.79784 -6.53167,-3.52563 -1.83574,-0.73452 -3.58607,-2.05964 -3.93403,-2.97837 -1.25282,-3.30773 -1.69008,-20.79768 -0.85512,-34.20412 0.47015,-7.54902 1.37242,-25.13516 2.00504,-39.08032 0.63262,-13.94516 1.35147,-25.68045 1.59743,-26.07843 0.24597,-0.39797 -0.11545,-0.7236 -0.80315,-0.7236 -0.9948,0 -1.08377,-0.31125 -0.4353,-1.52293 0.44827,-0.83761 1.03826,-7.45526 1.31106,-14.70588 0.27281,-7.25063 0.77721,-13.54362 1.12088,-13.98443 0.34368,-0.44081 0.3071,-6.26434 -0.0813,-12.94117 -0.84628,-14.54863 -0.82681,-44.51375 0.0267,-41.15932 0.41152,1.61728 0.62909,0.0234 0.69589,-5.09804 0.0534,-4.09804 0.44884,-8.68627 0.87867,-10.19608 0.58005,-2.03751 5.38037,-7.398 18.62307,-20.79627 9.81287,-9.92815 20.84158,-20.65026 24.50825,-23.82692 3.66666,-3.17665 8.89419,-8.28891 11.61672,-11.36058 2.72253,-3.07167 6.66389,-6.82015 8.75857,-8.32995 4.39176,-3.16548 16.48686,-13.5948 27.96464,-24.11321 l 7.94779,-7.28347 9.30712,0.70687 c 8.82055,0.66992 9.94266,0.96104 21.46398,5.56858 6.68627,2.67395 13.21569,5.51103 14.5098,6.30462 1.29412,0.7936 6.73335,2.54803 12.08718,3.89874 11.63306,2.93488 20.75246,5.80398 36.54028,11.49609 17.2056,6.20328 17.64705,6.42522 17.64705,8.87192 0,1.37874 1.02787,3.07833 3.06428,5.06683 1.68535,1.6457 3.66771,4.62909 4.40524,6.62976 0.73754,2.00067 2.12226,4.87287 3.07716,6.38268 0.95489,1.5098 2.63565,4.17291 3.73502,5.91802 1.09935,1.7451 3.44617,7.03922 5.21514,11.7647 1.76897,4.72549 4.98821,12.97787 7.15386,18.33863 2.16565,5.36077 3.93754,10.27153 3.93754,10.91282 0,0.64127 1.91684,4.59772 4.25966,8.7921 2.34282,4.19437 4.63814,9.03165 5.1007,10.74951 0.46257,1.71785 1.54572,4.01922 2.407,5.11417 0.86129,1.09494 1.56597,2.2557 1.56597,2.57945 0,1.38132 6.62187,14.9061 7.5779,15.47742 0.57725,0.34497 1.05536,1.22732 1.06245,1.96078 0.0159,1.64204 2.06242,5.03539 11.44724,18.98063 3.86326,5.74056 8.50144,16.59924 12.16346,28.47648 3.57258,11.58717 3.85454,12.01849 8.1747,12.50544 1.99772,0.22517 4.04272,0.82127 4.54442,1.32466 1.24805,1.25225 1.0065,150.47753 -0.26286,162.39931 -0.48227,4.52941 -1.06888,20.05883 -1.30358,34.5098 -0.3232,19.90022 -0.6797,26.67609 -1.46946,27.92979 -1.13392,1.80008 -7.95447,6.59539 -9.32363,6.55517 -0.46526,-0.0137 -1.72829,-0.66109 -2.80672,-1.43874 l 0,0 z"
       style="color:#000000;fill:#e8e8e8;fill-opacity:1;fill-rule:nonzero;stroke:#c42836;stroke-width:0;stroke-linecap:square;stroke-linejoin:round;stroke-miterlimit:4;stroke-opacity:1;stroke-dasharray:none;stroke-dashoffset:0;marker:none;visibility:visible;display:inline;overflow:visible;enable-background:accumulate" />
  </g>
</svg>
