<?xml version="1.0" encoding="UTF-8" standalone="no"?>
<svg
   xmlns:dc="http://purl.org/dc/elements/1.1/"
   xmlns:cc="http://creativecommons.org/ns#"
   xmlns:rdf="http://www.w3.org/1999/02/22-rdf-syntax-ns#"
   xmlns:svg="http://www.w3.org/2000/svg"
   xmlns="http://www.w3.org/2000/svg"
   xmlns:sodipodi="http://sodipodi.sourceforge.net/DTD/sodipodi-0.dtd"
   xmlns:inkscape="http://www.inkscape.org/namespaces/inkscape"
   version="1.0"
   width="784.000000pt"
   height="701.000000pt"
   viewBox="0 0 784.000000 701.000000"
   preserveAspectRatio="xMidYMid meet"
   id="svg2"
   inkscape:version="0.48.4 r9939"
   sodipodi:docname="Roof1_0.svg">
  <defs
     id="defs14" />
  <sodipodi:namedview
     pagecolor="#ffffff"
     bordercolor="#666666"
     borderopacity="1"
     objecttolerance="10"
     gridtolerance="10"
     guidetolerance="10"
     inkscape:pageopacity="0"
     inkscape:pageshadow="2"
     inkscape:window-width="1118"
     inkscape:window-height="784"
     id="namedview12"
     showgrid="false"
     inkscape:zoom="0.87885424"
     inkscape:cx="457.77816"
     inkscape:cy="677.56559"
     inkscape:window-x="490"
     inkscape:window-y="148"
     inkscape:window-maximized="0"
     inkscape:current-layer="svg2" />
  <metadata
     id="metadata4">
Created by potrace 1.14, written by Peter Selinger 2001-2017
<rdf:RDF>
  <cc:Work
     rdf:about="">
    <dc:format>image/svg+xml</dc:format>
    <dc:type
       rdf:resource="http://purl.org/dc/dcmitype/StillImage" />
    <dc:title></dc:title>
  </cc:Work>
</rdf:RDF>
</metadata>
  <path
     style="fill:#c93c32;stroke:none;fill-opacity:1"
     inkscape:connector-curvature="0"
     id="path10"
     d="m 187.9,472.8 c 1.6,2.9 4.9,5.4 6.2,4.6 0.7,-0.4 1,-0.3 0.5,0.4 -0.3,0.6 0.4,1.3 1.6,1.7 1.3,0.4 4.1,1.5 6.3,2.5 2.2,1.1 6.9,2.2 10.5,2.6 3.6,0.4 7,1 7.5,1.4 2,1.4 10.8,4.2 13.1,4.2 1.3,0 2.2,0.4 1.9,0.8 -0.4,0.6 3.9,2 6,1.9 0.3,0 1.3,0.7 2.2,1.6 0.8,0.9 2.2,1.4 3,1.1 0.8,-0.3 1.2,-0.2 0.9,0.3 -0.9,1.3 1.3,2.6 7.9,4.9 3.3,1.1 6.8,2.4 7.8,2.7 1.2,0.5 1.7,0.2 1.7,-0.9 0,-1.4 -1.1,-1.9 -3.6,-1.5 -0.4,0 -1,-0.3 -1.3,-0.8 -0.3,-0.5 -2.6,-1.6 -5,-2.6 -3.5,-1.3 -4.7,-1.4 -5.3,-0.4 -0.5,0.8 -0.8,0.7 -0.8,-0.5 0,-2.1 -5.2,-4.8 -17,-8.9 -4.7,-1.6 -8.6,-2.9 -8.8,-2.9 -0.1,0 -1.6,-0.7 -3.3,-1.5 -1.6,-0.9 -5.3,-1.9 -8.2,-2.2 -2.9,-0.3 -5.7,-1 -6.3,-1.4 -0.6,-0.5 -2.3,-1 -3.8,-1.1 -1.4,-0.1 -2.6,-0.5 -2.6,-0.8 0,-0.3 -1.5,-1.1 -3.4,-1.8 -1.8,-0.7 -4.1,-2.1 -5.1,-3.2 -2.2,-2.5 -3.9,-2.6 -2.6,-0.2 z" />
  <path
     style="color:#000000;fill:#c93c32;fill-opacity:1;fill-rule:nonzero;stroke:#c42836;stroke-width:0;stroke-linecap:square;stroke-linejoin:round;stroke-miterlimit:4;stroke-opacity:1;stroke-dasharray:none;stroke-dashoffset:0;marker:none;visibility:visible;display:inline;overflow:visible;enable-background:accumulate"
     id="path3763"
     d="m 615.60901,262.62795 c -0.12747,-0.97748 -0.16592,-1.9675 -0.44183,-2.91724 -0.2896,-0.74623 -0.48905,-1.51233 -0.58847,-2.30547 -0.17396,-0.62937 -0.30769,-1.26097 -0.36858,-1.91127 -0.0847,-0.87205 -0.006,-1.7525 -0.10631,-2.62196 0,0 0.31616,-0.16572 0.31616,-0.16572 l 0,0 c 0.10126,0.86958 0.0214,1.75026 0.107,2.62247 0.0614,0.64983 0.19396,1.28131 0.36831,1.91022 0.0976,0.79176 0.29506,1.55673 0.58328,2.30182 0.27637,0.95271 0.31386,1.94422 0.45178,2.92342 0,0 -0.32134,0.16373 -0.32134,0.16373 z"
     inkscape:connector-curvature="0" />
  <path
     style="fill:#c93c32;fill-opacity:1;stroke:#c93c32;stroke-width:0.86815745px;stroke-linecap:butt;stroke-linejoin:miter;stroke-opacity:1"
     d="m 263.92297,502.70074 49.93184,27.98741"
     id="path3785"
     inkscape:connector-curvature="0" />
  <path
     style="fill:none;stroke:#cb3c32;stroke-width:1px;stroke-linecap:butt;stroke-linejoin:miter;stroke-opacity:1"
     d="m 226.80288,584.18269 8.17308,5.28846"
     id="path3799"
     inkscape:connector-curvature="0"
     transform="scale(0.8,0.8)" />
  <path
     style="color:#000000;fill:#e8e8e8;fill-opacity:1;fill-rule:nonzero;stroke:#cb3c32;stroke-width:0;stroke-linecap:square;stroke-linejoin:round;stroke-miterlimit:4;stroke-opacity:1;stroke-dasharray:none;stroke-dashoffset:0;marker:none;visibility:visible;display:inline;overflow:visible;enable-background:accumulate"
     d="m 244.20236,594.82872 c -2.47168,-1.32225 -5.75362,-3.46402 -7.29318,-4.75947 -1.53956,-1.29546 -3.9219,-2.93594 -5.29408,-3.64553 -1.37218,-0.70958 -3.0843,-2.42997 -3.80471,-3.82308 -0.83504,-1.6148 -3.91995,-4.05732 -8.51051,-6.73831 -7.78409,-4.54607 -21.93135,-18.05291 -23.1146,-22.06824 -0.35306,-1.19812 -0.64193,-38.84089 -0.64193,-83.65061 0,-91.70446 -0.37292,-86.45517 6.58862,-92.7445 3.72115,-3.36183 5.54642,-3.75721 8.17321,-1.77041 0.93028,0.70364 2.6199,1.27933 3.75471,1.27933 1.16328,0 1.82672,0.38277 1.52095,0.87752 -0.29829,0.48263 0.16871,1.14301 1.03777,1.4675 0.86906,0.32449 2.04178,1.22961 2.60605,2.01138 0.56426,0.78177 2.72088,2.17252 4.79248,3.09057 2.0716,0.91804 4.15866,2.14674 4.63791,2.73043 2.98274,3.63278 46.03995,27.08155 54.89571,29.89597 1.91699,0.60923 3.87756,1.41362 4.3568,1.78752 0.47925,0.37391 2.31463,0.94952 4.07861,1.27914 1.76398,0.32961 3.41815,1.14893 3.67594,1.82069 0.25777,0.67177 1.36133,1.22139 2.45235,1.22139 1.09102,0 6.29881,1.66648 11.57287,3.70328 l 9.58921,3.70329 -34.63658,0.22783 -34.63658,0.22784 0,83.20493 c 0,45.76272 -0.29408,83.17584 -0.65352,83.14028 -0.35944,-0.0356 -2.67581,-1.14649 -5.1475,-2.46874 l 0,0 z"
     id="path3801"
     inkscape:connector-curvature="0"
     transform="scale(0.8,0.8)" />
  <path
     style="color:#000000;fill:#e8e8e8;fill-opacity:1;fill-rule:nonzero;stroke:#cb3c32;stroke-width:0;stroke-linecap:square;stroke-linejoin:round;stroke-miterlimit:4;stroke-opacity:1;stroke-dasharray:none;stroke-dashoffset:0;marker:none;visibility:visible;display:inline;overflow:visible;enable-background:accumulate"
     d="m 488.32049,714.99579 c -0.29619,-0.47925 -1.50099,-0.87136 -2.67734,-0.87136 -2.38269,0 -5.26524,-1.43296 -7.30347,-3.63067 -2.24571,-2.42142 -14.82972,-8.56838 -17.54113,-8.56838 -1.397,0 -2.54,-0.34558 -2.54,-0.76796 0,-1.13592 -5.39054,-6.20292 -6.599,-6.20292 -0.57199,0 -1.23949,-0.76289 -1.48333,-1.69533 -0.50843,-1.94426 -7.59854,-5.63537 -12.5504,-6.53375 -1.83133,-0.33225 -3.91785,-1.34796 -4.63673,-2.25713 -0.71887,-0.90918 -6.20844,-4.472 -12.19904,-7.91738 -11.92872,-6.86057 -12.63219,-7.22907 -26.5765,-13.92151 -13.43404,-6.44753 -60.69268,-32.81486 -62.44195,-34.83864 -0.79569,-0.92056 -2.16808,-1.67871 -3.04976,-1.68478 -0.88168,-0.006 -3.91295,-1.1824 -6.73617,-2.61408 -2.82321,-1.43168 -6.4083,-2.60305 -7.96685,-2.60305 -1.68277,0 -3.03237,-0.5176 -3.32277,-1.27436 -0.73418,-1.91324 -9.58221,-6.07844 -22.08415,-10.3961 -6.13837,-2.11994 -12.63699,-4.48624 -14.44139,-5.25845 -1.8044,-0.77221 -6.11763,-1.98113 -9.58496,-2.68648 -13.17331,-2.67985 -20.8398,-5.64831 -26.43916,-10.23724 -1.38625,-1.13609 -4.00039,-2.96017 -5.80919,-4.05351 -1.8088,-1.09334 -3.82988,-3.03438 -4.4913,-4.31342 -0.70201,-1.35753 -4.68112,-4.47746 -9.55948,-7.49536 -6.27161,-3.87981 -10.07348,-7.06505 -15.23612,-12.76492 l -6.87921,-7.59509 -0.6103,-14.23384 c -0.33567,-7.82861 -0.47691,-45.40677 -0.31388,-83.50701 0.29116,-68.04 0.32875,-69.34296 2.11166,-73.19428 1.99093,-4.30066 7.404,-9.60095 9.76062,-9.55726 0.82201,0.0152 2.25571,0.60341 3.18599,1.30704 0.93028,0.70364 2.6199,1.27933 3.75471,1.27933 1.16328,0 1.82672,0.38277 1.52095,0.87752 -0.29829,0.48263 0.11346,1.12917 0.91499,1.43674 0.80153,0.30758 2.40555,1.43801 3.56448,2.51208 1.15894,1.07407 3.37081,2.46785 4.91527,3.09729 1.54446,0.62944 3.20022,1.62845 3.67947,2.22003 2.7994,3.45554 43.59547,25.75714 54.02435,29.53297 2.39624,0.86757 4.74892,1.86691 5.22816,2.22075 0.47925,0.35384 2.31463,0.91303 4.07861,1.24265 1.76398,0.32961 3.41815,1.14893 3.67594,1.82069 0.25777,0.67177 1.36324,1.21101 2.4566,1.19832 3.84102,-0.0446 31.8268,11.82631 52.09113,22.09581 47.04897,23.84335 56.85449,28.64945 69.70885,34.16723 7.42834,3.18865 16.64298,6.88084 20.47697,8.20488 7.62345,2.6327 45.59089,22.39394 53.07753,27.62573 5.79114,4.04694 6.80173,5.58757 7.62308,11.62133 0.35881,2.63586 1.07778,7.53726 1.59771,10.892 0.51993,3.35474 0.9528,7.27586 0.96192,8.71361 0.0377,5.95398 -1.92654,47.01457 -2.75124,57.50979 -0.48956,6.23023 -0.99455,25.05162 -1.12221,41.82531 -0.12765,16.77369 -0.69705,34.81085 -1.26533,40.08258 -0.56827,5.27174 -1.39004,12.96102 -1.82615,17.08731 -0.94857,8.97511 -2.71407,12.97463 -5.72735,12.97463 -1.15753,0 -2.34694,-0.39211 -2.64313,-0.87136 z"
     id="path3803"
     inkscape:connector-curvature="0"
     transform="scale(0.8,0.8)" />
  <path
     style="color:#000000;fill:#cfcfcf;fill-opacity:1;fill-rule:nonzero;stroke:#c42836;stroke-width:0;stroke-linecap:square;stroke-linejoin:round;stroke-miterlimit:4;stroke-opacity:1;stroke-dasharray:none;stroke-dashoffset:0;marker:none;visibility:visible;display:inline;overflow:visible;enable-background:accumulate"
     d="m 502.93714,714.77795 c -0.85438,-11.81986 -0.84804,-13.82979 0.2162,-68.61964 0.94857,-48.83491 2.05154,-78.17221 3.25958,-86.70037 0.27155,-1.917 0.79464,-8.08616 1.16243,-13.70926 0.5823,-8.90286 0.92056,-10.47902 2.61805,-12.19905 2.29815,-2.32866 7.8143,-10.71757 8.8906,-13.52076 0.41402,-1.07831 1.20765,-1.96056 1.76362,-1.96056 0.55597,0 1.86715,-0.92396 2.91374,-2.05326 1.0466,-1.1293 2.2679,-2.20761 2.71401,-2.39624 1.04915,-0.44364 10.89427,-12.12675 11.45891,-13.59818 0.23686,-0.61724 0.8263,-1.12225 1.30988,-1.12225 0.48358,0 2.69627,-1.30642 4.9171,-2.90314 2.22082,-1.59672 7.37082,-4.92819 11.44443,-7.40326 4.07361,-2.47508 10.73952,-7.49057 14.81313,-11.14554 4.07361,-3.65497 8.77895,-7.64898 10.45632,-8.87557 3.10102,-2.26767 8.8459,-7.44841 11.46508,-10.33924 8.9853,-9.91725 32.92431,-33.6701 37.33111,-37.04084 3.11512,-2.38272 10.56525,-8.92822 16.55585,-14.54555 5.99061,-5.61733 13.8045,-12.13393 17.36421,-14.48134 3.5597,-2.3474 10.22561,-7.82873 14.81313,-12.18073 4.58751,-4.352 12.85022,-11.88198 18.36157,-16.7333 5.51136,-4.85131 16.4905,-15.29614 24.3981,-23.21072 7.9076,-7.91459 16.45413,-16.42419 18.99229,-18.91023 2.53816,-2.48604 5.51391,-6.38379 6.6128,-8.66167 3.0174,-6.25477 16.87449,-23.56676 18.86361,-23.56676 0.95856,0 2.1539,29.80256 2.062,51.41027 -0.10529,24.75459 -1.80652,66.92679 -2.95855,73.34031 -0.45905,2.55555 -0.99217,16.99799 -1.1847,32.09432 -0.40994,32.14165 -4.46939,131.18742 -5.71411,139.41768 -0.47112,3.11512 -0.62871,8.6458 -0.35019,12.2904 0.65242,8.53733 -0.30457,16.1717 -2.27407,18.1412 -0.87124,0.87124 -3.53356,1.77028 -6.16542,2.08198 -2.61821,0.31009 -5.99285,1.44627 -7.76208,2.61336 -1.72153,1.13562 -6.59522,3.68608 -10.83044,5.66769 -4.2352,1.98161 -8.47909,4.5929 -9.43085,5.80286 -2.54195,3.23156 -8.14603,6.22804 -17.84016,9.53904 -4.72814,1.61489 -9.98177,3.53442 -11.67471,4.26562 -1.69295,0.73121 -6.38419,1.78213 -10.42498,2.33539 -4.06233,0.55622 -11.45126,2.51498 -16.52752,4.38138 -5.04936,1.85649 -13.82103,4.35716 -19.49262,5.55704 -6.90549,1.46091 -11.61438,2.98629 -14.25458,4.61756 -2.16843,1.33978 -4.68408,2.82304 -5.59035,3.29612 -0.90627,0.47308 -1.64775,1.50688 -1.64775,2.29734 0,0.87039 -0.94503,1.62681 -2.39624,1.91799 -4.54938,0.91279 -13.77825,4.51529 -16.36117,6.38659 -1.42501,1.0324 -5.83276,5.04015 -9.79501,8.90609 -8.03916,7.84377 -15.33994,11.90555 -25.90761,14.4137 -10.97138,2.60398 -27.75895,8.43635 -33.98307,11.80649 -3.35473,1.81647 -10.02064,4.3933 -14.81312,5.7263 -4.79249,1.33299 -9.77245,2.94919 -11.06658,3.59154 -5.07891,2.52098 -5.74003,1.89035 -6.31187,-6.0208 l 0,0 z"
     id="path3805"
     inkscape:connector-curvature="0"
     transform="scale(0.8,0.8)" />
  <path
     style="color:#000000;fill:#ffa3a4;fill-opacity:1;fill-rule:nonzero;stroke:#c42836;stroke-width:0;stroke-linecap:square;stroke-linejoin:round;stroke-miterlimit:4;stroke-opacity:1;stroke-dasharray:none;stroke-dashoffset:0;marker:none;visibility:visible;display:inline;overflow:visible;enable-background:accumulate"
     id="path3819"
     d="m 272.12088,313.07175 c 0.0179,-0.0574 0.0562,-0.10215 0.1015,-0.14 0.0653,-0.0481 0.13406,-0.0925 0.21089,-0.11945 0.0505,-0.0225 0.10505,-0.0319 0.15753,-0.0483 0.032,-0.0127 0.0592,-0.0453 0.0862,-0.0747 0.0438,-0.0383 0.089,-0.0735 0.13894,-0.10335 0.0509,-0.0349 0.11155,-0.0413 0.16942,-0.0573 0.0363,-0.0128 0.045,-0.0265 0.0785,-0.0533 0,0 0.0213,-0.009 0.0213,-0.009 l 0,0 c -0.0367,0.0294 -0.0723,0.0608 -0.11792,0.0757 -0.0433,0.0119 -0.088,0.019 -0.12999,0.0351 -0.05,0.0298 -0.0953,0.0646 -0.13921,0.10275 -0.0368,0.0399 -0.0727,0.0777 -0.12536,0.0975 -0.0524,0.0163 -0.10683,0.0258 -0.15728,0.0482 -0.0153,0.005 -0.0316,0.008 -0.0462,0.0155 -0.0447,0.022 -0.0848,0.0537 -0.12584,0.0815 -0.0453,0.0372 -0.0837,0.0815 -0.10161,0.13846 0,0 -0.0209,0.01 -0.0209,0.01 z"
     inkscape:connector-curvature="0"
     transform="scale(0.8,0.8)" />
  <path
     style="fill:#000000;stroke:#cb3c32;stroke-width:1px;stroke-linecap:butt;stroke-linejoin:miter;stroke-opacity:1;fill-opacity:1"
     d="m 272.01162,313.19484 0.56113,-0.56114"
     id="path3821"
     inkscape:connector-curvature="0"
     transform="scale(0.8,0.8)" />
  <path
     style="fill:none;stroke:#cb3c32;stroke-width:1px;stroke-linecap:butt;stroke-linejoin:miter;stroke-opacity:1"
     d="m 273.22741,312.49342 -0.70142,0.1169"
     id="path3823"
     inkscape:connector-curvature="0"
     transform="scale(0.8,0.8)" />
  <g
     id="g3841">
    <path
       d="m 406.37927,109.12073 c -6.8,4.5 -8.1,4.8 -8.8,2 -0.3,-1.1 -1,-2 -1.5,-2 -1.2,0 -4.2,6.1 -4.2,8.7 0,1 -2.2,3.4 -4.7,5.3 -2.6,1.9 -5.9,4.5 -7.3,5.7 -1.4,1.2 -3.8,3.3 -5.5,4.7 -1.6,1.3 -2.7,2.7 -2.3,3.1 0.9,1 4.8,-1.4 4.5,-2.7 -0.1,-0.7 0.4,-1.3 1.1,-1.4 0.6,-0.1 1.4,-0.3 1.7,-0.4 0.3,-0.1 0.9,-0.3 1.4,-0.4 0.4,0 2.3,-1.6 4.2,-3.4 1.8,-1.7 3.7,-3.2 4.1,-3.2 0.5,0 2.1,-1.1 3.6,-2.6 3.3,-3.1 5.9,-2.8 12.8,1.5 7.8,4.8 18.2,9.1 22.2,9.1 4.1,0 13.3,3 23.2,7.6 5.2,2.4 10.6,4.5 12,4.6 1.4,0.2 2.7,0.6 3,1 0.3,0.3 1.4,0.8 2.5,1 1.1,0.1 2.5,0.8 3,1.4 1,1.2 15.5,6.9 19.6,7.8 3.2,0.7 10.7,3.4 13.9,5 1.4,0.8 3.6,1.8 5,2.4 1.4,0.6 6.2,2.7 10.6,4.6 4.5,2 8.7,3.6 9.4,3.6 0.6,0 1.9,0.9 2.8,2 2.2,2.4 16.7,10.2 17.5,9.3 0.4,-0.3 0.7,-0.1 0.7,0.5 0,1.2 10.2,6.3 13.1,6.5 1,0.1 1.9,0.5 1.9,1 0,0.4 0.5,0.5 1,0.2 0.6,-0.3 1,-0.2 1,0.2 0,0.9 2.3,2 21,9.8 6.9,2.9 15.2,6.6 18.5,8.4 6,3.2 6,3.2 6.1,7.9 0.2,3.6 -0.4,5.5 -2.2,7.9 -1.3,1.7 -2.4,3.5 -2.4,3.8 0,0.3 -1.4,1.8 -3,3.2 -1.7,1.4 -2.9,2.8 -2.6,3 0.3,0.3 -0.8,1.6 -2.5,3 -1.6,1.4 -2.9,3.1 -2.9,3.9 0,0.8 -0.4,1.4 -0.8,1.4 -0.4,0 -1.6,1.5 -2.7,3.2 -1,1.8 -4,5.3 -6.7,7.7 -2.6,2.4 -4.5,4.7 -4.2,5.2 0.3,0.5 0,0.9 -0.6,0.9 -1.7,0 -9.7,7.8 -12.2,11.9 -2.6,4.2 -3,4.6 -8.3,8.6 -2.1,1.6 -6.2,5.2 -9,8 -11.3,11.1 -18.4,17.4 -21.4,18.9 -1.7,0.9 -3.1,2.1 -3.1,2.6 0,0.6 -0.7,1 -1.5,1 -1.8,0 -6.5,4.3 -6.5,6 0,0.5 -0.7,1 -1.5,1 -0.8,0 -2.2,1.4 -3,3 -0.9,1.7 -2,2.8 -2.5,2.5 -0.5,-0.3 -1.6,0.5 -2.5,1.8 -0.8,1.3 -3.1,3.2 -5,4.3 -1.9,1 -3.5,2.4 -3.5,3.1 0,0.7 -0.7,1.3 -1.5,1.3 -0.9,0 -1.8,0.7 -2.1,1.5 -0.4,0.8 -1.3,1.5 -2.2,1.5 -0.8,0 -1.2,0.3 -0.9,0.7 0.4,0.3 -0.7,1.4 -2.3,2.4 -1.7,1.1 -3,2.6 -3,3.4 0,0.8 -0.4,1.5 -1,1.5 -0.5,0 -5.3,4.4 -10.7,9.8 -17.3,17.3 -37,34.2 -39.8,34.2 -0.5,0 -4.4,3.2 -8.5,7 -4.1,3.9 -9.4,8.5 -11.8,10.2 -2.8,2.1 -4.1,3.7 -3.7,4.7 0.3,0.9 0.3,1.2 0,0.9 -0.4,-0.4 -1.8,-0.3 -3.1,0.2 -1.6,0.6 -3.2,0.5 -5.1,-0.5 -1.5,-0.8 -3.4,-1.5 -4.1,-1.5 -2.1,0 -8.6,-3.2 -9.5,-4.7 -0.4,-0.7 -1.3,-1.3 -1.8,-1.3 -0.6,0 -3.6,-1.8 -6.7,-4 -3.1,-2.2 -6.2,-3.8 -6.9,-3.6 -0.7,0.3 -1.3,0.1 -1.3,-0.5 0,-0.6 -0.7,-0.9 -1.5,-0.5 -0.8,0.3 -1.5,0.1 -1.5,-0.4 0,-0.6 -0.8,-1 -1.9,-1 -1,0 -2.4,-0.6 -3,-1.4 -0.7,-0.8 -3.4,-2.2 -6.2,-3.2 -2.7,-1 -4.9,-2.1 -4.9,-2.6 0,-0.4 -0.7,-0.4 -1.7,-0.1 -1,0.4 -1.4,0.2 -1,-0.4 0.7,-1.2 -1.4,-2.3 -4.3,-2.3 -1.8,0 -18.4,-6.8 -22.5,-9.2 -5.7,-3.4 -10.8,-5.8 -12.1,-5.8 -1.5,0 -11.5,-5 -12.5,-6.3 -1.1,-1.5 -8.4,-4.7 -11.1,-4.9 -1.5,-0.1 -2.8,-0.6 -2.8,-1 0,-0.4 -0.7,-0.8 -1.6,-0.8 -0.8,0 -3.2,-1.3 -5.2,-2.9 -2,-1.6 -4.9,-3.2 -6.4,-3.5 -1.6,-0.4 -2.8,-1.1 -2.8,-1.6 0,-0.6 -0.6,-1 -1.2,-1 -0.7,0 -3.5,-1.1 -6.3,-2.5 -2.7,-1.4 -6,-2.6 -7.2,-2.7 -1.3,-0.2 -2.3,-0.6 -2.3,-1 0,-0.4 -0.7,-0.8 -1.5,-0.8 -0.8,0 -1.5,-0.3 -1.5,-0.8 0,-1.5 -20.1,-8.6 -23.8,-8.4 -1.3,0.1 -2.1,-0.2 -1.8,-0.7 0.3,-0.5 -0.9,-1.5 -2.7,-2.2 -1.7,-0.7 -3.4,-1.5 -3.7,-1.8 -0.7,-0.9 -8,-4.1 -10,-4.5 -1.8,-0.4 -11.3,-5.5 -15.2,-8.3 -2.6,-1.8 -5.4,-3.3 -6.2,-3.3 -0.8,0 -1.6,-0.6 -1.9,-1.3 -0.5,-1.4 -8.2,-5.7 -10.4,-5.7 -0.8,0 -1.1,0.5 -0.7,1.2 0.4,0.7 0.3,0.8 -0.5,0.4 -0.6,-0.4 -0.9,-1.2 -0.5,-1.7 0.3,-0.6 -1.2,-2.8 -3.4,-5 -2.3,-2.2 -4,-4.8 -3.9,-5.8 0.1,-1.1 0.4,-1.8 0.8,-1.6 0.9,0.6 5,-4 4.2,-4.8 -0.3,-0.4 -0.1,-0.7 0.6,-0.7 1.9,0 7.1,-4.2 6.4,-5.3 -0.3,-0.6 -0.1,-0.7 0.4,-0.4 0.6,0.4 2.2,-0.4 3.7,-1.8 1.4,-1.3 2.6,-2.2 2.6,-1.9 0,0.3 0.9,0 2,-0.6 1.1,-0.6 1.8,-1.5 1.5,-2.1 -0.4,-0.5 -0.2,-0.8 0.3,-0.7 1.2,0.4 14.2,-9.9 14.2,-11.3 0,-0.6 0.5,-0.7 1.1,-0.4 0.6,0.4 1.3,-0.2 1.6,-1.3 0.3,-1.1 1.1,-1.8 1.7,-1.6 0.7,0.3 1.9,-0.2 2.6,-1.1 0.7,-0.8 0.9,-1.5 0.5,-1.5 -0.4,0 -0.2,-0.7 0.5,-1.5 0.7,-0.8 2.1,-1.5 3.1,-1.5 1.3,0 1.7,-0.5 1.2,-1.8 -0.6,-1.4 -0.4,-1.5 0.9,-0.5 1.2,1.1 1.8,0.9 3.3,-0.7 1,-1.1 2.2,-2 2.8,-2 0.5,0 1.8,-1.1 2.9,-2.5 1.4,-1.9 2.6,-2.4 4,-1.9 1.5,0.4 1.8,0.3 1.3,-0.6 -0.6,-0.9 -0.4,-1.1 0.5,-0.5 0.7,0.4 1.5,0.3 1.9,-0.2 0.3,-0.5 2.9,-2.3 5.6,-3.8 7.3,-4.2 19.3,-13.3 21.1,-16.1 0.9,-1.3 2,-2.2 2.4,-1.9 0.7,0.4 7.4,-5.1 15.2,-12.5 2,-1.9 4.5,-4 5.5,-4.7 1,-0.6 1.7,-1.6 1.6,-2.2 -0.2,-0.6 0.1,-1.1 0.5,-1.1 0.5,0 0.9,-0.7 0.9,-1.7 0,-1.1 -0.8,-0.7 -2.9,1.6 -1.5,1.7 -3,3.1 -3.4,3 -0.9,-0.1 -14.7,11.8 -17.4,15.1 -1.4,1.6 -3,3 -3.7,3 -0.6,0 -1.3,0.4 -1.5,0.9 -0.1,0.4 -4.1,3.4 -8.8,6.6 -4.7,3.2 -8.9,6.5 -9.3,7.2 -0.4,0.7 -1.4,1.3 -2.2,1.3 -1.7,0 -13.7,6.2 -17.1,8.9 -1.3,1 -2,2.1 -1.7,2.5 0.3,0.3 0.1,0.6 -0.6,0.6 -1.1,0 -9.9,7.2 -17.2,14.1 -1.6,1.5 -3,2.4 -3.3,2.2 -0.3,-0.3 -2.2,0.8 -4.3,2.4 -2.1,1.7 -7.2,5.5 -11.3,8.5 -4.1,3.1 -9.9,7.9 -12.9,10.8 -5.9,5.7 -5.7,5.7 -15.5,2 -3.2,-1.1 -6.5,-1.9 -7.2,-1.6 -2.6,1 -1.4,3.6 2.2,5.1 3.5,1.4 3.6,1.6 2.9,5.7 -0.4,2.4 -1.1,4.8 -1.6,5.4 -0.6,0.7 -0.2,2.1 1.1,3.7 2.1,2.6 2.5,4.8 1.3,6.1 -0.4,0.4 -0.9,8.5 -1,17.9 -0.2,9.5 -0.5,23.7 -0.8,31.7 -0.6,17.4 -0.6,16.9 -0.5,25 0,3.6 -0.2,7.6 -0.3,8.9 -0.2,1.3 0.2,4 0.8,6 0.8,2.3 1.2,9.8 1.1,20.5 -0.2,16.1 -0.3,16.9 -2.4,18.6 -2.7,2.2 -2.8,4.1 -0.3,5.7 1.3,0.8 1.8,1.9 1.4,3.2 -0.6,2.5 1.7,3.7 4.5,2.2 1.6,-0.9 2.7,-0.5 5.7,1.9 2.1,1.6 4.1,2.7 4.6,2.4 0.5,-0.2 1.4,0.5 2.1,1.6 0.7,1.1 3.3,3.3 5.8,4.7 2.5,1.5 5.1,3.3 5.9,4 1.7,1.7 2.8,0.8 1.3,-1 -0.7,-0.8 -0.9,-1.6 -0.7,-1.9 0.3,-0.3 -1.4,-1.5 -3.7,-2.6 -5.8,-2.9 -11.9,-7.3 -13.2,-9.6 -1,-1.7 -3.7,-4.5 -7.3,-7.6 -0.8,-0.6 -1.2,-6.9 -1.3,-20.7 -0.1,-10.9 -0.2,-21.8 -0.2,-24.3 -0.1,-2.5 -0.1,-19.8 -0.1,-38.5 0.1,-54 0.1,-53.7 4.8,-58.9 3.6,-4 5,-4.3 8.3,-2 1.2,0.8 2.6,1.3 3.1,0.9 0.5,-0.3 1.3,0 1.7,0.6 0.5,0.8 0.3,0.9 -0.6,0.4 -0.9,-0.5 -1.1,-0.4 -0.6,0.4 0.4,0.6 1.2,0.9 1.7,0.6 0.5,-0.4 0.9,-0.1 0.9,0.5 0,1.4 6.1,5 7.3,4.3 0.6,-0.3 0.7,-0.1 0.4,0.4 -0.4,0.6 0.9,1.8 2.8,2.7 1.9,0.9 6.3,3.6 9.7,5.9 7,4.7 30.9,16.7 33.2,16.7 0.8,0 1.8,0.5 2.1,1 0.4,0.6 1,0.8 1.5,0.5 0.5,-0.3 1.1,-0.1 1.5,0.4 0.3,0.6 1.3,0.7 2.2,0.4 1.1,-0.4 1.4,-0.3 0.9,0.6 -0.5,0.8 -0.3,1.1 0.5,1 0.8,-0.1 2.1,0.1 2.9,0.4 0.8,0.3 3.5,1.2 6,2.1 2.5,0.8 9,3.5 14.4,6 5.4,2.5 10.2,4.6 10.6,4.6 0.5,0 4.1,1.9 8.2,4.3 4,2.3 9.3,5.1 11.8,6.2 2.5,1.1 4.7,2.2 5,2.5 0.3,0.4 2.1,1.2 4,2 1.9,0.8 5.1,2.3 7,3.5 1.9,1.2 6,3.3 9,4.7 14.7,6.9 18.9,8.8 19.6,8.8 0.5,0 3.4,1.3 6.4,2.8 3,1.5 7.8,3.4 10.5,4.2 2.8,0.7 5.5,1.6 6,2.1 0.6,0.4 6.9,3.7 14,7.4 17.5,9.1 18.6,9.7 22.6,12.5 5.4,3.9 5.9,4.6 5.9,9.4 0,2.5 0.4,4.6 1,4.6 0.5,0 0.7,0.7 0.4,1.5 -0.4,0.9 -0.1,3.6 0.5,6.1 0.6,2.5 0.9,5 0.5,5.6 -0.9,1.5 -1.4,9.7 -1.7,32.5 -0.2,13.9 -0.7,19.5 -1.6,20.7 -1,1.2 -1.1,3.2 -0.6,7.8 1,8.2 1.3,36.8 0.4,36.8 -0.4,0 -0.7,3.8 -0.7,8.5 0,4.6 -0.4,9 -0.8,9.7 -0.4,0.7 -0.8,3.7 -0.9,6.8 -0.2,7.5 -1.8,11 -5,11 -1.4,0 -2.5,-0.5 -2.5,-1.1 0,-0.6 -0.9,-0.9 -2,-0.6 -1.1,0.3 -2,0.1 -2,-0.4 0,-0.5 -0.7,-0.9 -1.5,-0.9 -0.8,0 -1.5,-0.4 -1.5,-1 0,-0.5 -1.5,-1.7 -3.2,-2.5 -1.8,-0.9 -4.9,-2.4 -6.8,-3.5 -1.9,-1.1 -4.3,-1.8 -5.3,-1.6 -0.9,0.2 -1.5,0.1 -1.2,-0.3 0.5,-1 -4.1,-5.1 -5.7,-5.1 -0.6,0 -0.8,-0.3 -0.5,-0.6 0.9,-1 -4.1,-4.6 -5.3,-3.9 -0.5,0.3 -1,0.1 -1,-0.4 0,-0.6 -0.3,-1 -0.7,-1 -1.5,0.3 -7.4,-1.4 -6.8,-1.9 0.6,-0.7 -2.1,-2.5 -8.7,-6.1 -7.5,-3.9 -10,-5.4 -11.6,-6.8 -0.7,-0.7 -2.2,-1.3 -3.3,-1.3 -1.1,0 -4.1,-1.4 -6.5,-3.1 -2.5,-1.7 -4.8,-2.8 -5.2,-2.4 -1.1,1.1 5.9,6.5 9.8,7.5 1.9,0.5 5.9,2.5 8.8,4.4 8.1,5.4 17.9,10.6 18.6,9.9 0.3,-0.4 0.6,-0.1 0.6,0.5 0,0.6 2.1,2.1 4.8,3.3 2.6,1.2 6.5,3.7 8.8,5.5 3.6,3 12.4,7.6 13.9,7.4 0.4,-0.1 1.5,0.9 2.5,2.2 1.1,1.3 1.9,1.9 2,1.5 0,-0.5 0.7,-0.2 1.5,0.5 3.8,3.4 4.7,3.9 6.1,3.4 0.9,-0.3 1.2,-0.1 0.9,0.4 -0.3,0.6 0.1,1 0.9,1 1.7,0 2.8,3.2 2.4,7 -0.4,3.3 2.4,3.8 5.3,0.9 1.8,-1.8 2.5,-2 4,-1 2.6,1.6 5.9,1.4 6.5,-0.4 0.4,-0.8 1.2,-1.5 2,-1.5 0.8,0 1.4,-0.4 1.4,-0.8 0,-0.4 1.5,-0.9 3.3,-1 1.7,-0.1 7.3,-2.2 12.2,-4.6 10.1,-5 23.2,-9.8 31.6,-11.5 6.3,-1.3 18.3,-8.6 17.5,-10.6 -0.8,-2.1 9.3,-9.9 11.7,-8.9 1.6,0.6 6.5,-1.1 8.7,-3.1 0.8,-0.7 2.7,-2.4 4.1,-3.7 3.5,-3.1 9.4,-5.8 12.9,-5.8 4.5,0 13,-2.1 13,-3.1 0,-0.6 0.4,-0.8 0.8,-0.5 0.5,0.3 2.3,-0.4 4.2,-1.5 2.1,-1.3 5.7,-2.2 10.4,-2.5 7.2,-0.5 14.1,-2 16.3,-3.6 0.6,-0.5 3.9,-1.3 7.4,-1.9 6.4,-1 8.9,-2.2 8.9,-4.3 0,-1.5 3.6,-4.6 4.4,-3.9 0.3,0.4 0.6,-0.1 0.6,-1 0,-0.9 0.6,-1.4 1.3,-1.2 0.6,0.3 4.6,-1.2 8.7,-3.3 8.4,-4.1 13.7,-4.4 13.3,-0.7 -0.4,3.2 1.2,4.8 3.9,4.2 l 2.5,-0.7 -0.4,-26.2 c -0.3,-14.5 0,-31.3 0.6,-37.3 0.6,-6.1 1.3,-18.9 1.6,-28.5 1,-33.9 1.2,-37.6 2,-45 0.5,-4.1 0.8,-18.2 0.7,-31.3 -0.1,-13 0.2,-23.7 0.6,-23.7 0.4,0 0.7,-2.8 0.7,-6.2 0.1,-3.5 0.4,-9.2 0.8,-12.8 1.4,-13.3 1.6,-24.7 0.5,-31.8 -0.6,-3.9 -1.3,-7.2 -1.7,-7.2 -0.3,0 -0.6,9.5 -0.6,21 0,11.6 -0.3,21 -0.7,21 -0.4,0 -0.7,3.7 -0.5,8.2 0.2,10.1 -0.8,24.4 -2,27.6 -0.5,1.3 -0.5,6 -0.1,10.5 0.4,4.5 0.5,11.8 0.2,16.2 -0.3,4.4 -0.7,13.2 -0.9,19.5 -0.2,6.3 -0.6,15.8 -0.9,21 -0.3,5.2 -0.8,17.6 -1.1,27.5 -0.3,9.9 -0.8,20.2 -1,23 -0.2,2.7 -0.4,8 -0.5,11.7 -0.1,3.8 -0.5,6.8 -0.9,6.8 -0.4,0 -0.4,3 0.1,6.6 0.7,6.5 -0.1,13.7 -1.9,15.5 -0.5,0.5 -2.8,1 -5.2,1.2 -2.5,0.2 -4.8,0.9 -5.5,1.8 -0.6,0.9 -4.4,2.9 -8.5,4.5 -4.1,1.6 -7.6,3.6 -7.8,4.4 -0.6,2.3 -6.4,5.7 -12.9,7.6 -3.3,0.9 -7,2.2 -8.4,2.9 -4.2,2.2 -6.3,2.8 -12.3,3.2 -3.8,0.2 -8.1,1.5 -12.3,3.4 -3.5,1.7 -9.5,3.5 -13.2,4 -9,1.3 -13.1,2.7 -15.7,5.5 -1.2,1.3 -2.5,2.1 -2.8,1.7 -0.4,-0.3 -0.7,0.2 -0.7,1.2 0,1 -0.3,1.6 -0.6,1.2 -0.4,-0.3 -2.4,0.3 -4.5,1.3 -2.1,1.1 -4.7,2 -5.7,2 -1,0 -2.8,0.9 -4,2 -1.2,1.1 -2.5,2 -2.9,2 -0.5,0 -0.8,0.3 -0.8,0.7 -0.1,1.5 -10,10.5 -13.5,12.2 -4.1,2.1 -9.2,3.8 -13.8,4.6 -1.8,0.3 -5.2,1.2 -7.5,2.1 -2.3,0.8 -5.6,1.9 -7.2,2.3 -1.7,0.4 -3.9,1.2 -5,1.8 -1.1,0.6 -3.3,1.7 -5,2.4 -1.6,0.8 -3.3,1.7 -3.6,2.1 -0.3,0.5 -4.3,1.7 -9,2.9 -4.6,1.2 -8.8,2.5 -9.3,3 -0.6,0.5 -1.9,0.9 -2.9,0.9 -1.8,0 -1.9,-0.5 -1.3,-5.5 0.4,-3.7 0.3,-5.5 -0.5,-5.5 -0.8,0 -0.9,-3.5 -0.3,-12.3 0.4,-6.7 0.8,-24.6 0.9,-39.7 0.1,-31.4 1.2,-58.8 2.7,-70.5 0.6,-4.4 1,-9.9 0.9,-12.2 -0.1,-3.3 0.2,-4.4 1.9,-5.3 1.1,-0.6 2,-1.7 2,-2.5 0,-0.8 1.3,-3 3,-4.8 1.6,-1.9 2.6,-3.7 2.3,-4.1 -0.4,-0.4 0.3,-0.9 1.5,-1.3 1.2,-0.3 2,-0.9 1.7,-1.3 -0.3,-0.5 0.4,-1.1 1.5,-1.5 1.1,-0.3 2,-1 2,-1.4 0,-0.4 1.8,-2.5 4,-4.7 2.2,-2.1 4,-4.5 4,-5.2 0,-0.6 0.6,-1.2 1.3,-1.2 0.7,0 2.3,-1 3.7,-2.3 1.4,-1.2 5.4,-3.7 9,-5.6 3.9,-2 9.2,-6 13.3,-10.2 3.8,-3.8 7.5,-6.9 8.2,-6.9 0.7,0 2.5,-1.6 3.9,-3.5 1.5,-1.9 3.4,-3.5 4.2,-3.5 0.7,0 1.4,-0.6 1.4,-1.3 0,-0.7 1,-2.3 2.3,-3.4 1.2,-1.1 6.1,-6 10.8,-10.9 10.4,-10.7 15.5,-15.4 16.7,-15.4 0.5,0 4.9,-3.9 9.9,-8.8 9.6,-9.4 12.9,-12.2 14.1,-12.2 1.2,0 13.3,-9.9 16.1,-13.2 1.3,-1.7 5.4,-5.4 9,-8.3 7.6,-6.1 32.1,-30.1 32.1,-31.4 0,-0.5 0.8,-1.1 1.9,-1.4 2.1,-0.5 10.4,-10.5 9.7,-11.6 -0.3,-0.4 1.1,-2.5 3,-4.6 1.9,-2.1 4.9,-6 6.7,-8.7 1.7,-2.6 4,-4.8 4.9,-4.8 1.6,0 1.7,0.9 1.4,7.7 -0.2,4.3 0,9.8 0.4,12.3 0.8,5.1 1.2,2.8 1.1,-6.3 0,-3.1 0.3,-5.7 0.8,-5.7 0.6,0 1,-0.8 1,-1.8 0.2,-6.9 1.1,-12.4 2.6,-15.2 1.6,-3.1 1.9,-3.2 3,-1.7 0.9,1.3 1.8,1.5 3.5,0.9 2.1,-0.8 2.4,-1.6 2.5,-7.5 0.2,-5.7 0,-6.7 -1.5,-6.7 -0.9,0 -2.5,0.9 -3.5,2 -2.4,2.6 -3.3,2.6 -12.3,-1.2 -4.2,-1.8 -8,-3.1 -8.4,-3 -0.5,0.1 -0.8,-0.2 -0.8,-0.6 0,-0.5 -1.9,-1.5 -4.2,-2.2 -2.4,-0.8 -4.7,-1.7 -5.3,-2.1 -0.5,-0.4 -3,-1.3 -5.5,-2 -2.5,-0.7 -5.7,-2.1 -7.2,-3.1 -1.4,-1 -3.1,-1.8 -3.6,-1.8 -0.6,0 -2.7,-0.9 -4.6,-2.1 -2,-1.2 -3.6,-1.8 -3.6,-1.3 0,0.4 -0.8,0 -1.7,-0.8 -2.3,-1.9 -8.4,-4.4 -10,-4 -0.7,0.2 -1.3,-0.2 -1.3,-0.7 0,-0.9 -5.1,-4.2 -7,-4.6 -1.5,-0.4 -7,-3.2 -10.5,-5.5 -7.7,-5 -29.4,-15 -32.5,-15 -1,0 -2,-0.5 -2.2,-1.1 -0.5,-1.4 -7.5,-4.1 -10.5,-4.1 -1.3,0 -2.3,-0.4 -2.3,-0.9 0,-0.5 -1.1,-0.9 -2.3,-0.9 -1.3,0 -2.7,-0.3 -3.1,-0.7 -1,-1.1 -9.9,-4.3 -11.7,-4.3 -0.9,0 -2.2,-0.7 -2.9,-1.5 -0.7,-0.8 -3.8,-2.2 -6.9,-3.1 -3.1,-0.9 -7.3,-2.5 -9.3,-3.5 -2.1,-1.1 -3.8,-1.6 -3.8,-1.2 0,0.4 -0.6,0 -1.2,-0.8 -1.7,-2.1 -11.3,-5.9 -14.8,-5.9 -1.5,0 -3,-0.3 -3.4,-0.7 -0.7,-0.8 -4,-1.5 -7.3,-1.7 -1.1,-0.1 -1.9,-0.4 -1.6,-0.9 0.2,-0.4 -1,-0.7 -2.6,-0.7 -1.7,0 -3.1,-0.5 -3.1,-1.1 0,-0.5 -0.4,-0.7 -1,-0.4 -0.5,0.3 -1,0.1 -1,-0.5 0,-0.7 -0.7,-0.9 -1.6,-0.6 -0.8,0.3 -1.2,0.2 -0.9,-0.4 0.3,-0.6 -0.3,-1 -1.4,-1 -1.1,0 -2.3,-0.5 -2.7,-1.2 -0.5,-0.7 -0.2,-0.9 0.7,-0.3 0.8,0.4 -0.1,-0.7 -1.9,-2.4 -1.8,-1.8 -3,-3.7 -2.7,-4.2 1,-1.5 6.4,-4 8.1,-3.7 2.6,0.5 4.2,-2.8 2.4,-4.7 -1.4,-1.3 -2.2,-1 -7.5,2.5 z"
       id="path8"
       inkscape:connector-curvature="0"
       style="fill:#c93c32;fill-opacity:1;stroke:none" />
    <path
       transform="scale(0.8,0.8)"
       inkscape:connector-curvature="0"
       d="m 362.22771,247.14322 c 0.58516,-0.0438 1.05184,-0.42198 1.59141,-0.61145 0.36713,-0.39596 0.93439,-0.2949 1.36806,-0.52189 0.20958,-0.1333 0.47722,-0.0914 0.70021,-0.16588 0.0695,-0.0232 0.12372,-0.0791 0.18971,-0.11091 0.17211,-0.0829 0.25302,-0.092 0.43896,-0.13735 0.082,-0.0126 0.16766,-0.0104 0.24601,-0.0377 0.0646,-0.0225 0.79244,-0.51129 0.36314,-0.26731 -13.35362,7.58903 -7.16219,4.57108 -5.51694,3.11576 0.37992,-0.42732 0.60636,-0.94758 0.90624,-1.42773 0.42921,-0.54506 0.91292,-1.11422 1.52025,-1.47167 5.38533,-3.16953 4.45112,-2.66457 7.11212,-4.08042 0.87156,-0.44784 1.74054,-0.89455 2.6124,-1.3403 -13.46675,6.94071 -6.16864,4.11323 -4.72634,2.50728 0.3344,-0.43288 0.64653,-0.87425 1.04544,-1.25347 2.1125,-2.00823 6.45444,-3.97688 8.00809,-4.87143 1.06606,-0.57768 2.21633,-0.99347 3.29428,-1.54378 0.21173,-0.10809 0.81918,-0.48274 0.61247,-0.36534 -1.85948,1.05605 -3.71394,2.12091 -5.57091,3.18137 0.64032,-0.41297 0.99231,-1.07418 1.41852,-1.67747 0.45157,-0.63921 0.54724,-0.72366 1.06862,-1.34007 1.54955,-1.59261 3.57486,-2.58913 5.41627,-3.79619 1.11296,-0.71175 2.17251,-1.49937 2.83543,-2.65919 0.35506,-1.04406 0.80506,-2.00481 1.66311,-2.74046 0.2959,-0.25369 0.62769,-0.46225 0.94154,-0.69337 2.34212,-1.34162 4.65153,-2.74205 7.02637,-4.02488 0.14702,-0.0794 2.84781,-1.054 2.93481,-1.08455 0.51696,-0.18153 1.04246,-0.33868 1.55635,-0.52871 1.17669,-0.43512 1.73606,-0.70656 2.86372,-1.21082 0.63979,-0.32897 1.53621,-0.783 2.17904,-1.13803 0.27477,-0.15176 1.08919,-0.62465 0.81552,-0.47088 -8.79332,4.94078 -6.21791,4.11875 -4.52638,2.17473 0.43227,-0.57872 0.83058,-1.18444 1.34656,-1.69558 0.50464,-0.49991 0.94513,-0.82517 1.57515,-1.17738 2.35667,-1.3175 4.73625,-2.59358 7.10438,-3.89037 2.70987,-0.93773 5.51658,-1.60332 8.15111,-2.74607 2.28054,-1.09983 6.26766,-3.26687 -4.06194,2.40214 -0.171,0.0938 0.31035,-0.23684 0.45743,-0.36496 0.37523,-0.32685 0.72561,-0.68118 1.08784,-1.02238 2.70402,-2.21141 5.99986,-3.72446 9.0565,-5.28493 0.50301,-0.25679 1.06554,-0.37494 1.60108,-0.55428 1.29033,-0.43211 2.58672,-0.84596 3.87821,-1.2746 1.82847,-0.64809 3.68433,-1.23012 5.44075,-2.06366 0.44852,-0.21285 1.74769,-0.94215 1.31901,-0.69173 -6.54484,3.8232 -6.24327,3.64866 -4.13841,2.29414 1.03535,-0.61599 1.63657,-1.61322 2.29718,-2.5778 1.01752,-1.27947 2.21317,-2.38815 3.16836,-3.71827 0.75498,-1.22453 1.22868,-2.58017 1.49575,-3.98687 0.17162,-1.39304 0.62587,-2.13168 1.64854,-3.07223 0.85505,-0.71009 1.82,-1.27286 2.68137,-1.9746 0.6522,-0.53133 0.74969,-0.66669 1.3278,-1.26395 0.73602,-0.90017 1.55494,-1.74534 2.21,-2.70898 0.40437,-0.87752 1.01323,-1.60093 1.65962,-2.3077 1.03064,-1.04972 1.92657,-2.21216 2.79611,-3.39515 0.66343,-0.83206 1.12762,-1.79002 1.70193,-2.68005 0.72666,-0.88417 1.51512,-1.7113 2.20588,-2.62615 0.53749,-0.69994 0.95615,-1.48924 1.54385,-2.1493 0.13502,-0.079 4.20479,-3.46489 6.66952,-3.77766 0.0983,-0.0125 0.19947,-0.003 0.2962,-0.0247 0.23857,-0.053 0.46045,-0.15898 0.70631,-0.20536 0.55557,-0.0705 1.10321,-0.0164 1.62509,0.18173 0,0 -5.91552,4.06665 -5.91552,4.06665 l 0,0 c -0.48164,-0.0567 -0.9576,-0.0395 -1.42235,0.11712 -0.23416,0.0725 -0.47471,0.11849 -0.70809,0.1874 -0.21845,0.0645 -0.27248,0.1151 -0.46508,0.23303 1.95575,-1.14955 3.91149,-2.29911 5.86724,-3.44867 -0.79714,0.43206 -1.14959,1.30542 -1.68897,1.99815 -0.64017,0.94141 -1.36505,1.83004 -2.18824,2.61826 -0.67698,0.84973 -1.05725,1.87045 -1.7514,2.70943 -0.86622,1.18982 -1.73118,2.38029 -2.73571,3.45956 -0.61646,0.65231 -1.31245,1.29806 -1.66209,2.13959 -0.56839,1.10931 -1.55413,1.91529 -2.29054,2.90905 -0.48208,0.54757 -0.74416,0.87616 -1.28845,1.36856 -0.8081,0.73105 -1.74559,1.3006 -2.63077,1.9294 -1.07678,0.82018 -1.59125,1.21676 -1.80497,2.60923 -0.27555,1.49863 -0.7598,2.93489 -1.46841,4.28829 -0.16165,0.25992 -0.30968,0.52883 -0.48495,0.77977 -0.75312,1.07825 -1.7752,1.92579 -2.60406,2.94033 -0.13043,0.16309 -0.27413,0.3164 -0.39129,0.48928 -0.87671,1.29366 0.25727,-0.20915 -0.57151,0.99281 -0.35901,0.52067 -0.79068,0.9995 -1.31397,1.35772 -2.87786,1.908 -5.83642,3.75883 -9.01012,5.13142 -1.75051,0.75707 -3.57723,1.31101 -5.37169,1.94954 -0.81473,0.27698 -3.11986,1.05467 -3.96188,1.36355 -0.54988,0.20171 -2.11036,0.98209 -1.63816,0.63556 1.44347,-1.05935 3.0583,-1.86283 4.58502,-2.79822 0.32262,-0.19766 -0.65596,0.37804 -0.97269,0.58502 -0.27399,0.17905 -0.53202,0.38143 -0.79804,0.57214 -0.34459,0.33668 -0.70214,0.66033 -1.03753,1.00617 -0.14504,0.14957 -0.24087,0.35498 -0.41795,0.46474 -2.68413,1.66366 -5.13025,3.33816 -7.9885,4.48653 -2.67162,0.99961 -5.45652,1.66666 -8.10569,2.73261 1.60043,-0.96358 3.21222,-1.90852 4.80128,-2.89073 0.28779,-0.17788 -0.60792,0.29941 -0.89598,0.47683 -0.65841,0.40553 -1.19795,0.93712 -1.65259,1.5577 -0.12884,0.17587 -0.24242,0.36244 -0.36363,0.54366 -1.82092,2.68988 -3.69544,2.8047 -7.42178,5.01501 -0.93379,0.55389 -1.94286,0.97703 -2.91409,1.45677 -1.45488,0.60925 -2.92364,1.13815 -4.40329,1.68194 -0.5164,0.18979 -1.03229,0.38173 -1.54069,0.59202 -0.47921,0.19822 -1.85617,0.91538 -1.42113,0.63311 1.56021,-1.01233 3.20544,-1.88716 4.80816,-2.83074 -1.33081,0.80477 -2.23836,1.43595 -2.58477,3.01277 -0.55314,1.43454 -1.57917,2.26353 -2.85749,3.07993 -0.96635,0.66848 -1.96404,1.25996 -2.96366,1.87647 -0.26544,0.16371 -1.46967,0.91897 -1.74485,1.12431 -0.24883,0.18568 -0.47406,0.40104 -0.71109,0.60155 -0.52232,0.57662 -0.59447,0.6245 -1.03693,1.22782 -0.45922,0.62619 -0.75084,1.3588 -1.30389,1.91981 -2.17591,1.28005 -4.34358,2.57422 -6.52772,3.84016 -0.25734,0.14916 -1.11009,0.52207 -1.3497,0.63345 -0.84873,0.39448 -1.6907,0.80477 -2.51778,1.24296 1.74287,-1.0217 3.479,-2.05499 5.22861,-3.0651 0.22405,-0.12935 -0.43727,0.27679 -0.65113,0.42236 -0.50423,0.34323 -1.00731,0.70479 -1.37424,1.20078 -0.0814,0.11006 -0.14337,0.23327 -0.21505,0.3499 -0.1188,0.17616 -0.1948,0.38214 -0.33304,0.54349 -0.0559,0.0653 -0.1447,0.0938 -0.20994,0.14974 -2.02852,1.73999 -4.55298,2.569 -6.89878,4.08471 -0.86295,0.41177 -1.68571,0.90334 -2.54758,1.31819 -2.38988,1.2885 -1.12355,0.61372 5.0122,-2.95233 0.16223,-0.0943 -0.32226,0.19251 -0.47936,0.29511 -0.49789,0.32515 -0.37165,0.24418 -0.78916,0.64089 -0.0976,0.0927 -0.19579,0.1848 -0.29369,0.2772 -0.36409,0.45058 -0.5422,0.96954 -0.8762,1.43239 -1.31901,2.60139 -4.62323,3.67363 -7.37184,4.43965 -0.43222,0.1715 -0.88684,0.24918 -1.31862,0.42625 -0.48852,0.0925 -0.8755,0.37055 -1.3315,0.54966 -0.54167,0.25891 -1.10475,0.4231 -1.69835,0.5183 0,0 5.74695,-4.35127 5.74695,-4.35127 z"
       id="path3839"
       style="color:#000000;fill:#cb3c32;fill-opacity:1;fill-rule:nonzero;stroke:#cb3c32;stroke-width:0;stroke-linecap:square;stroke-linejoin:round;stroke-miterlimit:4;stroke-opacity:1;stroke-dasharray:none;stroke-dashoffset:0;marker:none;visibility:visible;display:inline;overflow:visible;enable-background:accumulate" />
  </g>
  <path
     style="color:#000000;fill:#ffa3a4;fill-opacity:1;fill-rule:nonzero;stroke:#c42836;stroke-width:0;stroke-linecap:square;stroke-linejoin:round;stroke-miterlimit:4;stroke-opacity:1;stroke-dasharray:none;stroke-dashoffset:0;marker:none;visibility:visible;display:inline;overflow:visible;enable-background:accumulate"
     d="m 504.22437,513.86832 c -3.93047,-1.48384 -9.05077,-3.94755 -11.37845,-5.47491 -13.00426,-8.53302 -17.39814,-11.01288 -23.57553,-13.30574 -3.75489,-1.3937 -7.86343,-3.20431 -9.1301,-4.02357 -1.26667,-0.81926 -5.1069,-2.66355 -8.53384,-4.09842 -3.42694,-1.43487 -6.99885,-3.19381 -7.93757,-3.90875 -0.93872,-0.71493 -4.77895,-2.22257 -8.53384,-3.35028 -3.75489,-1.12773 -14.83031,-5.83318 -24.61206,-10.45656 -9.78173,-4.6234 -18.25358,-8.40616 -18.82634,-8.40616 -0.57274,0 -4.85823,-2.30794 -9.5233,-5.12875 -4.66506,-2.82082 -11.0975,-5.90822 -14.2943,-6.86092 -3.1968,-0.95268 -8.71114,-3.47771 -12.25408,-5.61116 -3.54294,-2.13345 -7.45274,-4.19989 -8.68843,-4.59208 -1.23568,-0.39219 -2.88977,-1.33113 -3.67575,-2.08652 -0.78598,-0.75539 -5.01325,-2.80312 -9.39396,-4.55048 -4.3807,-1.74737 -11.54912,-4.92764 -15.92983,-7.06726 -8.62019,-4.21027 -18.81583,-7.94043 -26.39005,-9.65503 -2.62405,-0.59402 -6.59499,-2.31781 -8.8243,-3.83067 -2.22931,-1.51285 -8.01883,-4.37607 -12.86559,-6.36271 -9.99719,-4.09776 -27.21956,-13.66823 -37.68002,-20.93881 -2.60607,-1.81136 -6.26433,-3.34745 -8.12946,-3.41354 -1.86513,-0.0661 -3.39231,-0.55888 -3.39374,-1.0951 -0.001,-0.53622 -2.05072,-3.54728 -4.55397,-6.69125 -2.50326,-3.14396 -4.55138,-6.10255 -4.55138,-6.57464 0,-0.47209 1.24124,-1.67164 2.75831,-2.66566 1.51707,-0.99402 3.08767,-2.84503 3.49021,-4.11332 0.40255,-1.2683 1.41992,-2.30601 2.26084,-2.30601 0.84092,0 2.75687,-1.40808 4.25766,-3.12907 2.68016,-3.07341 5.20096,-4.83517 11.39845,-7.96626 1.71343,-0.86566 3.50554,-2.20525 3.98246,-2.97685 0.47691,-0.77161 2.57117,-2.59261 4.65391,-4.04668 2.08273,-1.45408 6.94702,-5.43508 10.80952,-8.84669 3.86251,-3.41161 8.17481,-6.66382 9.58289,-7.22712 1.40809,-0.56332 2.56016,-1.81589 2.56016,-2.78353 0,-0.96762 1.28007,-2.34256 2.84461,-3.05541 1.56454,-0.71286 2.84461,-1.72594 2.84461,-2.2513 0,-0.52536 0.8631,-0.9552 1.918,-0.9552 1.0549,0 4.34695,-2.04812 7.31567,-4.55138 2.96872,-2.50326 6.43486,-4.55138 7.70253,-4.55138 2.75834,0 26.24347,-15.60163 36.28729,-24.10637 23.7547,-20.11456 33.25274,-28.48979 33.25274,-29.32173 0,-0.51797 1.26486,-1.25922 2.8108,-1.64723 1.54593,-0.388 3.97807,-1.90055 5.40476,-3.36121 1.42669,-1.46067 5.15412,-4.39547 8.28319,-6.52178 3.12908,-2.12632 9.01743,-6.70824 13.08522,-10.18205 4.0678,-3.47381 9.55695,-7.26039 12.19811,-8.41462 2.64117,-1.15423 5.6647,-3.05174 6.71897,-4.21669 1.05425,-1.16495 2.4385,-2.11809 3.07609,-2.11809 1.01738,0 8.25473,-3.33887 25.60838,-11.81416 4.74535,-2.31757 11.5664,-9.36355 11.5664,-11.94782 0,-0.68558 2.43648,-3.9401 5.4144,-7.23225 2.97793,-3.29215 6.59701,-7.64983 8.0424,-9.68373 1.4454,-2.0339 3.61284,-3.698 4.81656,-3.698 1.20371,0 2.8281,-1.02406 3.60976,-2.27569 0.78165,-1.25163 1.99388,-2.27569 2.69381,-2.27569 0.69994,0 5.78874,-3.32819 11.30844,-7.39599 5.51971,-4.0678 11.09623,-7.40031 12.39228,-7.40559 1.29605,-0.005 8.50082,3.08978 16.0106,6.87789 9.76636,4.92639 16.13018,7.34687 22.35014,8.50089 4.78281,0.88737 16.30349,4.63992 25.60152,8.339 9.29804,3.69908 18.18558,7.09829 19.75012,7.5538 1.56454,0.45551 6.4946,2.55776 10.95572,4.67165 4.4611,2.1139 14.3352,5.93937 21.94244,8.50105 7.60724,2.56169 17.78207,6.46349 22.61072,8.67068 4.82866,2.20719 12.61877,5.5435 17.31137,7.41402 4.69258,1.87052 11.86101,5.5853 15.92983,8.25506 9.98026,6.54859 29.01665,15.71058 68.84147,33.13263 21.7615,9.51994 27.61415,12.66962 28.45292,15.31238 1.84639,5.81748 -2.46647,15.52718 -10.69112,24.06924 -1.00758,1.04648 -4.64814,5.64442 -8.09012,10.21765 -3.44198,4.57324 -8.9463,11.18777 -12.23183,14.69895 -3.28553,3.5112 -5.97369,6.89555 -5.97369,7.52079 0,0.62523 -1.18164,1.67518 -2.62586,2.3332 -1.44422,0.65803 -5.15644,4.13081 -8.24938,7.71728 -14.7793,17.13761 -56.52933,55.17091 -60.56237,55.17091 -0.47619,0 -4.56629,3.82332 -9.08912,8.49628 -4.52282,4.67295 -11.03991,10.62281 -14.4824,13.22192 -3.4425,2.59911 -6.25908,5.17617 -6.25908,5.7268 0,0.55062 -0.78412,1.00113 -1.74248,1.00113 -0.95837,0 -2.03721,0.76804 -2.39743,1.70677 -0.36023,0.93872 -1.09513,1.70676 -1.63313,1.70676 -1.01626,0 -8.46458,7.0855 -9.18015,8.73297 -0.72359,1.66594 -39.90887,38.05342 -50.33026,46.73671 -5.55386,4.62759 -11.1862,8.83338 -12.51629,9.34618 -2.71971,1.04856 -30.9741,25.41707 -31.59966,27.2537 -0.84369,2.47708 -7.291,2.31633 -14.37602,-0.35843 l 0,0 z"
     id="path3857"
     inkscape:connector-curvature="0"
     transform="scale(0.8,0.8)" />
</svg>
