<?xml version="1.0" encoding="UTF-8" standalone="no"?>
<svg
   xmlns:dc="http://purl.org/dc/elements/1.1/"
   xmlns:cc="http://creativecommons.org/ns#"
   xmlns:rdf="http://www.w3.org/1999/02/22-rdf-syntax-ns#"
   xmlns:svg="http://www.w3.org/2000/svg"
   xmlns="http://www.w3.org/2000/svg"
   xmlns:sodipodi="http://sodipodi.sourceforge.net/DTD/sodipodi-0.dtd"
   xmlns:inkscape="http://www.inkscape.org/namespaces/inkscape"
   version="1.0"
   width="880"
   height="880"
   viewBox="0 0 704 704"
   preserveAspectRatio="xMidYMid meet"
   id="svg2"
   inkscape:version="0.48.4 r9939"
   sodipodi:docname="skillion.svg">
  <defs
     id="defs14" />
  <sodipodi:namedview
     pagecolor="#ffffff"
     bordercolor="#666666"
     borderopacity="1"
     objecttolerance="10"
     gridtolerance="10"
     guidetolerance="10"
     inkscape:pageopacity="0"
     inkscape:pageshadow="2"
     inkscape:window-width="1203"
     inkscape:window-height="987"
     id="namedview12"
     showgrid="false"
     inkscape:zoom="0.87885424"
     inkscape:cx="457.77816"
     inkscape:cy="454.87605"
     inkscape:window-x="490"
     inkscape:window-y="148"
     inkscape:window-maximized="0"
     inkscape:current-layer="svg2" />
  <metadata
     id="metadata4">
Created by potrace 1.14, written by Peter Selinger 2001-2017
<rdf:RDF>
  <cc:Work
     rdf:about="">
    <dc:format>image/svg+xml</dc:format>
    <dc:type
       rdf:resource="http://purl.org/dc/dcmitype/StillImage" />
    <dc:title />
  </cc:Work>
</rdf:RDF>
</metadata>
  <g
     id="g2995"
     transform="matrix(1.21,0,0,1.21,-117.07284,-70.191689)">
    <path
       d="m 187.9,475.8 c 1.6,2.9 4.9,5.4 6.2,4.6 0.7,-0.4 1,-0.3 0.5,0.4 -0.3,0.6 0.4,1.3 1.6,1.7 1.3,0.4 4.1,1.5 6.3,2.5 2.2,1.1 6.9,2.2 10.5,2.6 3.6,0.4 7,1 7.5,1.4 2,1.4 10.8,4.2 13.1,4.2 1.3,0 2.2,0.4 1.9,0.8 -0.4,0.6 3.9,2 6,1.9 0.3,0 1.3,0.7 2.2,1.6 0.8,0.9 2.2,1.4 3,1.1 0.8,-0.3 1.2,-0.2 0.9,0.3 -0.9,1.3 1.3,2.6 7.9,4.9 3.3,1.1 6.8,2.4 7.8,2.7 1.2,0.5 1.7,0.2 1.7,-0.9 0,-1.4 -1.1,-1.9 -3.6,-1.5 -0.4,0 -1,-0.3 -1.3,-0.8 -0.3,-0.5 -2.6,-1.6 -5,-2.6 -3.5,-1.3 -4.7,-1.4 -5.3,-0.4 -0.5,0.8 -0.8,0.7 -0.8,-0.5 0,-2.1 -5.2,-4.8 -17,-8.9 -4.7,-1.6 -8.6,-2.9 -8.8,-2.9 -0.1,0 -1.6,-0.7 -3.3,-1.5 -1.6,-0.9 -5.3,-1.9 -8.2,-2.2 -2.9,-0.3 -5.7,-1 -6.3,-1.4 -0.6,-0.5 -2.3,-1 -3.8,-1.1 -1.4,-0.1 -2.6,-0.5 -2.6,-0.8 0,-0.3 -1.5,-1.1 -3.4,-1.8 -1.8,-0.7 -4.1,-2.1 -5.1,-3.2 -2.2,-2.5 -3.9,-2.6 -2.6,-0.2 z"
       id="path10"
       inkscape:connector-curvature="0"
       style="fill:#c93c32;fill-opacity:1;stroke:none" />
    <path
       inkscape:connector-curvature="0"
       d="m 615.60901,265.62795 c -0.12747,-0.97748 -0.16592,-1.9675 -0.44183,-2.91724 -0.2896,-0.74623 -0.48905,-1.51233 -0.58847,-2.30547 -0.17396,-0.62937 -0.30769,-1.26097 -0.36858,-1.91127 -0.0847,-0.87205 -0.006,-1.7525 -0.10631,-2.62196 0,0 0.31616,-0.16572 0.31616,-0.16572 l 0,0 c 0.10126,0.86958 0.0214,1.75026 0.107,2.62247 0.0614,0.64983 0.19396,1.28131 0.36831,1.91022 0.0976,0.79176 0.29506,1.55673 0.58328,2.30182 0.27637,0.95271 0.31386,1.94422 0.45178,2.92342 0,0 -0.32134,0.16373 -0.32134,0.16373 z"
       id="path3763"
       style="color:#000000;fill:#c93c32;fill-opacity:1;fill-rule:nonzero;stroke:#c42836;stroke-width:0;stroke-linecap:square;stroke-linejoin:round;stroke-miterlimit:4;stroke-opacity:1;stroke-dasharray:none;stroke-dashoffset:0;marker:none;visibility:visible;display:inline;overflow:visible;enable-background:accumulate" />
    <path
       inkscape:connector-curvature="0"
       id="path3785"
       d="m 263.92297,505.70074 49.93184,27.98741"
       style="fill:#c93c32;fill-opacity:1;stroke:#c93c32;stroke-width:0.86815745px;stroke-linecap:butt;stroke-linejoin:miter;stroke-opacity:1" />
    <path
       inkscape:connector-curvature="0"
       id="path3799"
       d="m 181.4423,470.34615 6.53847,4.23077"
       style="fill:none;stroke:#cb3c32;stroke-width:0.80000001px;stroke-linecap:butt;stroke-linejoin:miter;stroke-opacity:1" />
    <path
       inkscape:connector-curvature="0"
       id="path3801"
       d="m 195.36189,478.86298 c -1.97735,-1.0578 -4.6029,-2.77122 -5.83455,-3.80758 -1.23164,-1.03637 -3.13752,-2.34875 -4.23526,-2.91642 -1.09774,-0.56767 -2.46744,-1.94398 -3.04377,-3.05847 -0.66803,-1.29184 -3.13596,-3.24585 -6.80841,-5.39065 -6.22727,-3.63685 -17.54508,-14.44232 -18.49168,-17.65459 -0.28244,-0.95849 -0.51354,-31.07271 -0.51354,-66.92049 0,-73.36356 -0.29834,-69.16413 5.2709,-74.1956 2.97692,-2.68946 4.43713,-3.00576 6.53856,-1.41632 0.74423,0.56291 2.09592,1.02346 3.00377,1.02346 0.93063,0 1.46138,0.30622 1.21676,0.70202 -0.23863,0.3861 0.13497,0.9144 0.83022,1.174 0.69525,0.25959 1.63342,0.98368 2.08484,1.6091 0.45141,0.62542 2.1767,1.73802 3.83398,2.47246 1.65728,0.73443 3.32693,1.71739 3.71033,2.18434 2.38619,2.90622 36.83196,21.66524 43.91657,23.91678 1.53359,0.48738 3.10205,1.13089 3.48544,1.43001 0.3834,0.29913 1.8517,0.75962 3.26289,1.02331 1.41118,0.26369 2.73452,0.91915 2.94075,1.45656 0.20621,0.53741 1.08906,0.97711 1.96188,0.97711 0.87281,0 5.03905,1.33318 9.25829,2.96262 l 7.67137,2.96263 -27.70926,0.18227 -27.70927,0.18227 0,66.56394 c 0,36.61018 -0.23526,66.54068 -0.52281,66.51223 -0.28755,-0.0285 -2.14065,-0.91719 -4.118,-1.97499 l 0,0 z"
       style="color:#000000;fill:#e8e8e8;fill-opacity:1;fill-rule:nonzero;stroke:#cb3c32;stroke-width:0;stroke-linecap:square;stroke-linejoin:round;stroke-miterlimit:4;stroke-opacity:1;stroke-dasharray:none;stroke-dashoffset:0;marker:none;visibility:visible;display:inline;overflow:visible;enable-background:accumulate" />
    <path
       inkscape:connector-curvature="0"
       id="path3803"
       d="m 390.65639,574.99663 c -0.23695,-0.3834 -1.20079,-0.69709 -2.14187,-0.69709 -1.90615,0 -4.21219,-1.14636 -5.84278,-2.90453 -1.79656,-1.93714 -11.86377,-6.85471 -14.0329,-6.85471 -1.1176,0 -2.032,-0.27646 -2.032,-0.61436 0,-0.90874 -4.31243,-4.96234 -5.2792,-4.96234 -0.45759,0 -0.99159,-0.61031 -1.18666,-1.35626 -0.40675,-1.55541 -6.07884,-4.5083 -10.04032,-5.227 -1.46507,-0.2658 -3.13428,-1.07837 -3.70939,-1.80571 -0.57509,-0.72734 -4.96675,-3.5776 -9.75923,-6.3339 -9.54298,-5.48846 -10.10575,-5.78326 -21.2612,-11.13721 -10.74723,-5.15802 -48.55414,-26.25189 -49.95356,-27.87091 -0.63655,-0.73645 -1.73446,-1.34297 -2.43981,-1.34783 -0.70534,-0.005 -3.13036,-0.94592 -5.38893,-2.09126 -2.25857,-1.14534 -5.12664,-2.08244 -6.37348,-2.08244 -1.34622,0 -2.4259,-0.41408 -2.65822,-1.01949 -0.58734,-1.53059 -7.66577,-4.86275 -17.66732,-8.31688 -4.9107,-1.69595 -10.10959,-3.58899 -11.55311,-4.20676 -1.44352,-0.61777 -4.89411,-1.5849 -7.66797,-2.14918 -10.53865,-2.14388 -16.67184,-4.51865 -21.15133,-8.18979 -1.109,-0.90888 -3.20031,-2.36814 -4.64735,-3.24281 -1.44704,-0.87467 -3.0639,-2.42751 -3.59304,-3.45074 -0.56161,-1.08602 -3.7449,-3.58197 -7.64758,-5.99629 -5.01729,-3.10384 -8.05879,-5.65204 -12.1889,-10.21193 l -5.50337,-6.07607 -0.48824,-11.38708 c -0.26853,-6.26288 -0.38153,-36.32541 -0.2511,-66.8056 0.23293,-54.432 0.263,-55.47437 1.68933,-58.55543 1.59274,-3.44053 5.9232,-7.68076 7.80849,-7.64581 0.65761,0.0122 1.80457,0.48273 2.54879,1.04564 0.74423,0.56291 2.09592,1.02346 3.00377,1.02346 0.93063,0 1.46138,0.30622 1.21676,0.70202 -0.23863,0.3861 0.0908,0.90333 0.73199,1.14939 0.64123,0.24606 1.92444,1.15041 2.85159,2.00966 0.92715,0.85926 2.69665,1.97428 3.93221,2.47783 1.23557,0.50356 2.56018,1.30276 2.94358,1.77603 2.23952,2.76443 34.87638,20.60571 43.21948,23.62637 1.91699,0.69406 3.79914,1.49353 4.18253,1.7766 0.3834,0.28308 1.8517,0.73043 3.26289,0.99412 1.41118,0.26369 2.73452,0.91915 2.94075,1.45656 0.20621,0.53741 1.09059,0.9688 1.96528,0.95865 3.07281,-0.0357 25.46144,9.46105 41.6729,17.67665 37.63918,19.07468 45.48359,22.91956 55.76708,27.33378 5.94267,2.55092 13.31439,5.50468 16.38158,6.56391 6.09876,2.10616 36.47271,17.91515 42.46202,22.10058 4.63291,3.23755 5.44139,4.47006 6.09847,9.29707 0.28704,2.10868 0.86222,6.0298 1.27816,8.7136 0.41595,2.68379 0.76224,5.82068 0.76954,6.97088 0.0302,4.76319 -1.54123,37.61166 -2.20099,46.00784 -0.39165,4.98418 -0.79564,20.04129 -0.89777,33.46024 -0.10212,13.41896 -0.55764,27.84868 -1.01226,32.06607 -0.45462,4.21739 -1.11204,10.36881 -1.46092,13.66985 -0.75886,7.18008 -2.17126,10.3797 -4.58188,10.3797 -0.92603,0 -1.87756,-0.31369 -2.11451,-0.69709 z"
       style="color:#000000;fill:#e8e8e8;fill-opacity:1;fill-rule:nonzero;stroke:#cb3c32;stroke-width:0;stroke-linecap:square;stroke-linejoin:round;stroke-miterlimit:4;stroke-opacity:1;stroke-dasharray:none;stroke-dashoffset:0;marker:none;visibility:visible;display:inline;overflow:visible;enable-background:accumulate" />
    <path
       inkscape:connector-curvature="0"
       id="path3805"
       d="m 402.34971,574.82236 c -0.6835,-9.45589 -0.67843,-11.06383 0.17296,-54.89571 0.75886,-39.06793 1.64123,-62.53777 2.60767,-69.3603 0.21724,-1.5336 0.63571,-6.46893 0.92994,-10.96741 0.46584,-7.12228 0.73645,-8.38321 2.09444,-9.75924 1.83852,-1.86292 6.25144,-8.57405 7.11248,-10.8166 0.33122,-0.86265 0.96612,-1.56845 1.4109,-1.56845 0.44477,0 1.49372,-0.73917 2.33099,-1.64261 0.83728,-0.90344 1.81432,-1.76609 2.17121,-1.91699 0.83932,-0.35491 8.71541,-9.7014 9.16712,-10.87855 0.18949,-0.49379 0.66104,-0.8978 1.04791,-0.8978 0.38686,0 2.15701,-1.04513 3.93368,-2.32251 1.77665,-1.27737 5.89665,-3.94255 9.15554,-5.92261 3.25889,-1.98006 8.59162,-5.99245 11.85051,-8.91643 3.25888,-2.92397 7.02316,-6.11918 8.36505,-7.10045 2.48082,-1.81414 7.07672,-5.95873 9.17207,-8.2714 7.18824,-7.9338 26.33944,-26.93608 29.86488,-29.63267 2.4921,-1.90617 8.4522,-7.14257 13.24468,-11.63644 4.79249,-4.49386 11.0436,-9.70714 13.89137,-11.58507 2.84776,-1.87792 8.18049,-6.26298 11.85051,-9.74458 3.67,-3.4816 10.28017,-9.50559 14.68925,-13.38664 4.40909,-3.88105 13.1924,-12.23692 19.51848,-18.56858 6.32608,-6.33167 13.16331,-13.13935 15.19383,-15.12818 2.03053,-1.98884 4.41113,-5.10704 5.29024,-6.92934 2.41392,-5.00382 13.4996,-18.85341 15.09089,-18.85341 0.76685,0 1.72312,23.84205 1.6496,41.12822 -0.0842,19.80367 -1.44521,53.54143 -2.36684,58.67225 -0.36724,2.04444 -0.79373,13.59839 -0.94776,25.67545 -0.32795,25.71332 -3.57551,104.94994 -4.57129,111.53415 -0.37689,2.49209 -0.50296,6.91664 -0.28015,9.83232 0.52194,6.82986 -0.24365,12.93736 -1.81925,14.51296 -0.697,0.69699 -2.82685,1.41622 -4.93234,1.66558 -2.09457,0.24807 -4.79428,1.15702 -6.20966,2.09069 -1.37723,0.90849 -5.27618,2.94886 -8.66436,4.53415 -3.38816,1.58529 -6.78327,3.67432 -7.54468,4.64229 -2.03356,2.58525 -6.51682,4.98243 -14.27212,7.63123 -3.78252,1.29191 -7.98542,2.82754 -9.33977,3.4125 -1.35436,0.58496 -5.10735,1.4257 -8.33999,1.86831 -3.24986,0.44497 -9.161,2.01198 -13.22201,3.5051 -4.03949,1.48519 -11.05683,3.48573 -15.5941,4.44563 -5.52439,1.16873 -9.2915,2.38904 -11.40366,3.69405 -1.73475,1.07183 -3.74727,2.25843 -4.47228,2.6369 -0.72502,0.37846 -1.3182,1.2055 -1.3182,1.83787 0,0.69631 -0.75603,1.30145 -1.91699,1.53439 -3.63951,0.73023 -11.0226,3.61223 -13.08894,5.10927 -1.14001,0.82592 -4.66621,4.03212 -7.83601,7.12488 -6.43133,6.27501 -12.27195,9.52444 -20.72609,11.53096 -8.7771,2.08318 -22.20716,6.74908 -27.18645,9.44519 -2.68379,1.45317 -8.01651,3.51464 -11.8505,4.58104 -3.83399,1.06639 -7.81796,2.35935 -8.85326,2.87323 -4.06313,2.01678 -4.59203,1.51228 -5.0495,-4.81664 l 0,0 z"
       style="color:#000000;fill:#cfcfcf;fill-opacity:1;fill-rule:nonzero;stroke:#c42836;stroke-width:0;stroke-linecap:square;stroke-linejoin:round;stroke-miterlimit:4;stroke-opacity:1;stroke-dasharray:none;stroke-dashoffset:0;marker:none;visibility:visible;display:inline;overflow:visible;enable-background:accumulate" />
    <path
       inkscape:connector-curvature="0"
       d="m 217.6967,253.4574 c 0.0143,-0.0459 0.045,-0.0817 0.0812,-0.112 0.0522,-0.0385 0.10725,-0.074 0.16872,-0.0956 0.0404,-0.018 0.084,-0.0255 0.12602,-0.0386 0.0256,-0.0102 0.0474,-0.0362 0.069,-0.0598 0.035,-0.0306 0.0712,-0.0588 0.11115,-0.0827 0.0407,-0.0279 0.0892,-0.033 0.13554,-0.0458 0.029,-0.0102 0.036,-0.0212 0.0628,-0.0426 0,0 0.017,-0.007 0.017,-0.007 l 0,0 c -0.0294,0.0235 -0.0578,0.0486 -0.0943,0.0606 -0.0346,0.01 -0.0704,0.0152 -0.10399,0.0281 -0.04,0.0238 -0.0762,0.0517 -0.11137,0.0822 -0.0294,0.0319 -0.0582,0.0622 -0.10029,0.078 -0.0419,0.013 -0.0855,0.0206 -0.12582,0.0386 -0.0122,0.004 -0.0253,0.006 -0.037,0.0124 -0.0358,0.0176 -0.0678,0.043 -0.10067,0.0652 -0.0362,0.0298 -0.067,0.0652 -0.0813,0.11077 0,0 -0.0167,0.008 -0.0167,0.008 z"
       id="path3819"
       style="color:#000000;fill:#ffa3a4;fill-opacity:1;fill-rule:nonzero;stroke:#c42836;stroke-width:0;stroke-linecap:square;stroke-linejoin:round;stroke-miterlimit:4;stroke-opacity:1;stroke-dasharray:none;stroke-dashoffset:0;marker:none;visibility:visible;display:inline;overflow:visible;enable-background:accumulate" />
    <path
       inkscape:connector-curvature="0"
       id="path3821"
       d="m 217.6093,253.55587 0.4489,-0.44891"
       style="fill:#000000;fill-opacity:1;stroke:#cb3c32;stroke-width:0.80000001px;stroke-linecap:butt;stroke-linejoin:miter;stroke-opacity:1" />
    <path
       inkscape:connector-curvature="0"
       id="path3823"
       d="m 218.58193,252.99474 -0.56114,0.0935"
       style="fill:none;stroke:#cb3c32;stroke-width:0.80000001px;stroke-linecap:butt;stroke-linejoin:miter;stroke-opacity:1" />
    <g
       transform="translate(0,3)"
       id="g3841">
      <path
         style="fill:#c93c32;fill-opacity:1;stroke:none"
         inkscape:connector-curvature="0"
         id="path8"
         d="m 406.37927,109.12073 c -6.8,4.5 -8.1,4.8 -8.8,2 -0.3,-1.1 -1,-2 -1.5,-2 -1.2,0 -4.2,6.1 -4.2,8.7 0,1 -2.2,3.4 -4.7,5.3 -2.6,1.9 -5.9,4.5 -7.3,5.7 -1.4,1.2 -3.8,3.3 -5.5,4.7 -1.6,1.3 -2.7,2.7 -2.3,3.1 0.9,1 4.8,-1.4 4.5,-2.7 -0.1,-0.7 0.4,-1.3 1.1,-1.4 0.6,-0.1 1.4,-0.3 1.7,-0.4 0.3,-0.1 0.9,-0.3 1.4,-0.4 0.4,0 2.3,-1.6 4.2,-3.4 1.8,-1.7 3.7,-3.2 4.1,-3.2 0.5,0 2.1,-1.1 3.6,-2.6 3.3,-3.1 5.9,-2.8 12.8,1.5 7.8,4.8 18.2,9.1 22.2,9.1 4.1,0 13.3,3 23.2,7.6 5.2,2.4 10.6,4.5 12,4.6 1.4,0.2 2.7,0.6 3,1 0.3,0.3 1.4,0.8 2.5,1 1.1,0.1 2.5,0.8 3,1.4 1,1.2 15.5,6.9 19.6,7.8 3.2,0.7 10.7,3.4 13.9,5 1.4,0.8 3.6,1.8 5,2.4 1.4,0.6 6.2,2.7 10.6,4.6 4.5,2 8.7,3.6 9.4,3.6 0.6,0 1.9,0.9 2.8,2 2.2,2.4 16.7,10.2 17.5,9.3 0.4,-0.3 0.7,-0.1 0.7,0.5 0,1.2 10.2,6.3 13.1,6.5 1,0.1 1.9,0.5 1.9,1 0,0.4 0.5,0.5 1,0.2 0.6,-0.3 1,-0.2 1,0.2 0,0.9 2.3,2 21,9.8 6.9,2.9 15.2,6.6 18.5,8.4 6,3.2 6,3.2 6.1,7.9 0.2,3.6 -0.4,5.5 -2.2,7.9 -1.3,1.7 -2.4,3.5 -2.4,3.8 0,0.3 -1.4,1.8 -3,3.2 -1.7,1.4 -2.9,2.8 -2.6,3 0.3,0.3 -0.8,1.6 -2.5,3 -1.6,1.4 -2.9,3.1 -2.9,3.9 0,0.8 -0.4,1.4 -0.8,1.4 -0.4,0 -1.6,1.5 -2.7,3.2 -1,1.8 -4,5.3 -6.7,7.7 -2.6,2.4 -4.5,4.7 -4.2,5.2 0.3,0.5 0,0.9 -0.6,0.9 -1.7,0 -9.7,7.8 -12.2,11.9 -2.6,4.2 -3,4.6 -8.3,8.6 -2.1,1.6 -6.2,5.2 -9,8 -11.3,11.1 -18.4,17.4 -21.4,18.9 -1.7,0.9 -3.1,2.1 -3.1,2.6 0,0.6 -0.7,1 -1.5,1 -1.8,0 -6.5,4.3 -6.5,6 0,0.5 -0.7,1 -1.5,1 -0.8,0 -2.2,1.4 -3,3 -0.9,1.7 -2,2.8 -2.5,2.5 -0.5,-0.3 -1.6,0.5 -2.5,1.8 -0.8,1.3 -3.1,3.2 -5,4.3 -1.9,1 -3.5,2.4 -3.5,3.1 0,0.7 -0.7,1.3 -1.5,1.3 -0.9,0 -1.8,0.7 -2.1,1.5 -0.4,0.8 -1.3,1.5 -2.2,1.5 -0.8,0 -1.2,0.3 -0.9,0.7 0.4,0.3 -0.7,1.4 -2.3,2.4 -1.7,1.1 -3,2.6 -3,3.4 0,0.8 -0.4,1.5 -1,1.5 -0.5,0 -5.3,4.4 -10.7,9.8 -17.3,17.3 -37,34.2 -39.8,34.2 -0.5,0 -4.4,3.2 -8.5,7 -4.1,3.9 -9.4,8.5 -11.8,10.2 -2.8,2.1 -4.1,3.7 -3.7,4.7 0.3,0.9 0.3,1.2 0,0.9 -0.4,-0.4 -1.8,-0.3 -3.1,0.2 -1.6,0.6 -3.2,0.5 -5.1,-0.5 -1.5,-0.8 -3.4,-1.5 -4.1,-1.5 -2.1,0 -8.6,-3.2 -9.5,-4.7 -0.4,-0.7 -1.3,-1.3 -1.8,-1.3 -0.6,0 -3.6,-1.8 -6.7,-4 -3.1,-2.2 -6.2,-3.8 -6.9,-3.6 -0.7,0.3 -1.3,0.1 -1.3,-0.5 0,-0.6 -0.7,-0.9 -1.5,-0.5 -0.8,0.3 -1.5,0.1 -1.5,-0.4 0,-0.6 -0.8,-1 -1.9,-1 -1,0 -2.4,-0.6 -3,-1.4 -0.7,-0.8 -3.4,-2.2 -6.2,-3.2 -2.7,-1 -4.9,-2.1 -4.9,-2.6 0,-0.4 -0.7,-0.4 -1.7,-0.1 -1,0.4 -1.4,0.2 -1,-0.4 0.7,-1.2 -1.4,-2.3 -4.3,-2.3 -1.8,0 -18.4,-6.8 -22.5,-9.2 -5.7,-3.4 -10.8,-5.8 -12.1,-5.8 -1.5,0 -11.5,-5 -12.5,-6.3 -1.1,-1.5 -8.4,-4.7 -11.1,-4.9 -1.5,-0.1 -2.8,-0.6 -2.8,-1 0,-0.4 -0.7,-0.8 -1.6,-0.8 -0.8,0 -3.2,-1.3 -5.2,-2.9 -2,-1.6 -4.9,-3.2 -6.4,-3.5 -1.6,-0.4 -2.8,-1.1 -2.8,-1.6 0,-0.6 -0.6,-1 -1.2,-1 -0.7,0 -3.5,-1.1 -6.3,-2.5 -2.7,-1.4 -6,-2.6 -7.2,-2.7 -1.3,-0.2 -2.3,-0.6 -2.3,-1 0,-0.4 -0.7,-0.8 -1.5,-0.8 -0.8,0 -1.5,-0.3 -1.5,-0.8 0,-1.5 -20.1,-8.6 -23.8,-8.4 -1.3,0.1 -2.1,-0.2 -1.8,-0.7 0.3,-0.5 -0.9,-1.5 -2.7,-2.2 -1.7,-0.7 -3.4,-1.5 -3.7,-1.8 -0.7,-0.9 -8,-4.1 -10,-4.5 -1.8,-0.4 -11.3,-5.5 -15.2,-8.3 -2.6,-1.8 -5.4,-3.3 -6.2,-3.3 -0.8,0 -1.6,-0.6 -1.9,-1.3 -0.5,-1.4 -8.2,-5.7 -10.4,-5.7 -0.8,0 -1.1,0.5 -0.7,1.2 0.4,0.7 0.3,0.8 -0.5,0.4 -0.6,-0.4 -0.9,-1.2 -0.5,-1.7 0.3,-0.6 -1.2,-2.8 -3.4,-5 -2.3,-2.2 -4,-4.8 -3.9,-5.8 0.1,-1.1 0.4,-1.8 0.8,-1.6 0.9,0.6 5,-4 4.2,-4.8 -0.3,-0.4 -0.1,-0.7 0.6,-0.7 1.9,0 7.1,-4.2 6.4,-5.3 -0.3,-0.6 -0.1,-0.7 0.4,-0.4 0.6,0.4 2.2,-0.4 3.7,-1.8 1.4,-1.3 2.6,-2.2 2.6,-1.9 0,0.3 0.9,0 2,-0.6 1.1,-0.6 1.8,-1.5 1.5,-2.1 -0.4,-0.5 -0.2,-0.8 0.3,-0.7 1.2,0.4 14.2,-9.9 14.2,-11.3 0,-0.6 0.5,-0.7 1.1,-0.4 0.6,0.4 1.3,-0.2 1.6,-1.3 0.3,-1.1 1.1,-1.8 1.7,-1.6 0.7,0.3 1.9,-0.2 2.6,-1.1 0.7,-0.8 0.9,-1.5 0.5,-1.5 -0.4,0 -0.2,-0.7 0.5,-1.5 0.7,-0.8 2.1,-1.5 3.1,-1.5 1.3,0 1.7,-0.5 1.2,-1.8 -0.6,-1.4 -0.4,-1.5 0.9,-0.5 1.2,1.1 1.8,0.9 3.3,-0.7 1,-1.1 2.2,-2 2.8,-2 0.5,0 1.8,-1.1 2.9,-2.5 1.4,-1.9 2.6,-2.4 4,-1.9 1.5,0.4 1.8,0.3 1.3,-0.6 -0.6,-0.9 -0.4,-1.1 0.5,-0.5 0.7,0.4 1.5,0.3 1.9,-0.2 0.3,-0.5 2.9,-2.3 5.6,-3.8 7.3,-4.2 19.3,-13.3 21.1,-16.1 0.9,-1.3 2,-2.2 2.4,-1.9 0.7,0.4 7.4,-5.1 15.2,-12.5 2,-1.9 4.5,-4 5.5,-4.7 1,-0.6 1.7,-1.6 1.6,-2.2 -0.2,-0.6 0.1,-1.1 0.5,-1.1 0.5,0 0.9,-0.7 0.9,-1.7 0,-1.1 -0.8,-0.7 -2.9,1.6 -1.5,1.7 -3,3.1 -3.4,3 -0.9,-0.1 -14.7,11.8 -17.4,15.1 -1.4,1.6 -3,3 -3.7,3 -0.6,0 -1.3,0.4 -1.5,0.9 -0.1,0.4 -4.1,3.4 -8.8,6.6 -4.7,3.2 -8.9,6.5 -9.3,7.2 -0.4,0.7 -1.4,1.3 -2.2,1.3 -1.7,0 -13.7,6.2 -17.1,8.9 -1.3,1 -2,2.1 -1.7,2.5 0.3,0.3 0.1,0.6 -0.6,0.6 -1.1,0 -9.9,7.2 -17.2,14.1 -1.6,1.5 -3,2.4 -3.3,2.2 -0.3,-0.3 -2.2,0.8 -4.3,2.4 -2.1,1.7 -7.2,5.5 -11.3,8.5 -4.1,3.1 -9.9,7.9 -12.9,10.8 -5.9,5.7 -5.7,5.7 -15.5,2 -3.2,-1.1 -6.5,-1.9 -7.2,-1.6 -2.6,1 -1.4,3.6 2.2,5.1 3.5,1.4 3.6,1.6 2.9,5.7 -0.4,2.4 -1.1,4.8 -1.6,5.4 -0.6,0.7 -0.2,2.1 1.1,3.7 2.1,2.6 2.5,4.8 1.3,6.1 -0.4,0.4 -0.9,8.5 -1,17.9 -0.2,9.5 -0.5,23.7 -0.8,31.7 -0.6,17.4 -0.6,16.9 -0.5,25 0,3.6 -0.2,7.6 -0.3,8.9 -0.2,1.3 0.2,4 0.8,6 0.8,2.3 1.2,9.8 1.1,20.5 -0.2,16.1 -0.3,16.9 -2.4,18.6 -2.7,2.2 -2.8,4.1 -0.3,5.7 1.3,0.8 1.8,1.9 1.4,3.2 -0.6,2.5 1.7,3.7 4.5,2.2 1.6,-0.9 2.7,-0.5 5.7,1.9 2.1,1.6 4.1,2.7 4.6,2.4 0.5,-0.2 1.4,0.5 2.1,1.6 0.7,1.1 3.3,3.3 5.8,4.7 2.5,1.5 5.1,3.3 5.9,4 1.7,1.7 2.8,0.8 1.3,-1 -0.7,-0.8 -0.9,-1.6 -0.7,-1.9 0.3,-0.3 -1.4,-1.5 -3.7,-2.6 -5.8,-2.9 -11.9,-7.3 -13.2,-9.6 -1,-1.7 -3.7,-4.5 -7.3,-7.6 -0.8,-0.6 -1.2,-6.9 -1.3,-20.7 -0.1,-10.9 -0.2,-21.8 -0.2,-24.3 -0.1,-2.5 -0.1,-19.8 -0.1,-38.5 0.1,-54 0.1,-53.7 4.8,-58.9 3.6,-4 5,-4.3 8.3,-2 1.2,0.8 2.6,1.3 3.1,0.9 0.5,-0.3 1.3,0 1.7,0.6 0.5,0.8 0.3,0.9 -0.6,0.4 -0.9,-0.5 -1.1,-0.4 -0.6,0.4 0.4,0.6 1.2,0.9 1.7,0.6 0.5,-0.4 0.9,-0.1 0.9,0.5 0,1.4 6.1,5 7.3,4.3 0.6,-0.3 0.7,-0.1 0.4,0.4 -0.4,0.6 0.9,1.8 2.8,2.7 1.9,0.9 6.3,3.6 9.7,5.9 7,4.7 30.9,16.7 33.2,16.7 0.8,0 1.8,0.5 2.1,1 0.4,0.6 1,0.8 1.5,0.5 0.5,-0.3 1.1,-0.1 1.5,0.4 0.3,0.6 1.3,0.7 2.2,0.4 1.1,-0.4 1.4,-0.3 0.9,0.6 -0.5,0.8 -0.3,1.1 0.5,1 0.8,-0.1 2.1,0.1 2.9,0.4 0.8,0.3 3.5,1.2 6,2.1 2.5,0.8 9,3.5 14.4,6 5.4,2.5 10.2,4.6 10.6,4.6 0.5,0 4.1,1.9 8.2,4.3 4,2.3 9.3,5.1 11.8,6.2 2.5,1.1 4.7,2.2 5,2.5 0.3,0.4 2.1,1.2 4,2 1.9,0.8 5.1,2.3 7,3.5 1.9,1.2 6,3.3 9,4.7 14.7,6.9 18.9,8.8 19.6,8.8 0.5,0 3.4,1.3 6.4,2.8 3,1.5 7.8,3.4 10.5,4.2 2.8,0.7 5.5,1.6 6,2.1 0.6,0.4 6.9,3.7 14,7.4 17.5,9.1 18.6,9.7 22.6,12.5 5.4,3.9 5.9,4.6 5.9,9.4 0,2.5 0.4,4.6 1,4.6 0.5,0 0.7,0.7 0.4,1.5 -0.4,0.9 -0.1,3.6 0.5,6.1 0.6,2.5 0.9,5 0.5,5.6 -0.9,1.5 -1.4,9.7 -1.7,32.5 -0.2,13.9 -0.7,19.5 -1.6,20.7 -1,1.2 -1.1,3.2 -0.6,7.8 1,8.2 1.3,36.8 0.4,36.8 -0.4,0 -0.7,3.8 -0.7,8.5 0,4.6 -0.4,9 -0.8,9.7 -0.4,0.7 -0.8,3.7 -0.9,6.8 -0.2,7.5 -1.8,11 -5,11 -1.4,0 -2.5,-0.5 -2.5,-1.1 0,-0.6 -0.9,-0.9 -2,-0.6 -1.1,0.3 -2,0.1 -2,-0.4 0,-0.5 -0.7,-0.9 -1.5,-0.9 -0.8,0 -1.5,-0.4 -1.5,-1 0,-0.5 -1.5,-1.7 -3.2,-2.5 -1.8,-0.9 -4.9,-2.4 -6.8,-3.5 -1.9,-1.1 -4.3,-1.8 -5.3,-1.6 -0.9,0.2 -1.5,0.1 -1.2,-0.3 0.5,-1 -4.1,-5.1 -5.7,-5.1 -0.6,0 -0.8,-0.3 -0.5,-0.6 0.9,-1 -4.1,-4.6 -5.3,-3.9 -0.5,0.3 -1,0.1 -1,-0.4 0,-0.6 -0.3,-1 -0.7,-1 -1.5,0.3 -7.4,-1.4 -6.8,-1.9 0.6,-0.7 -2.1,-2.5 -8.7,-6.1 -7.5,-3.9 -10,-5.4 -11.6,-6.8 -0.7,-0.7 -2.2,-1.3 -3.3,-1.3 -1.1,0 -4.1,-1.4 -6.5,-3.1 -2.5,-1.7 -4.8,-2.8 -5.2,-2.4 -1.1,1.1 5.9,6.5 9.8,7.5 1.9,0.5 5.9,2.5 8.8,4.4 8.1,5.4 17.9,10.6 18.6,9.9 0.3,-0.4 0.6,-0.1 0.6,0.5 0,0.6 2.1,2.1 4.8,3.3 2.6,1.2 6.5,3.7 8.8,5.5 3.6,3 12.4,7.6 13.9,7.4 0.4,-0.1 1.5,0.9 2.5,2.2 1.1,1.3 1.9,1.9 2,1.5 0,-0.5 0.7,-0.2 1.5,0.5 3.8,3.4 4.7,3.9 6.1,3.4 0.9,-0.3 1.2,-0.1 0.9,0.4 -0.3,0.6 0.1,1 0.9,1 1.7,0 2.8,3.2 2.4,7 -0.4,3.3 2.4,3.8 5.3,0.9 1.8,-1.8 2.5,-2 4,-1 2.6,1.6 5.9,1.4 6.5,-0.4 0.4,-0.8 1.2,-1.5 2,-1.5 0.8,0 1.4,-0.4 1.4,-0.8 0,-0.4 1.5,-0.9 3.3,-1 1.7,-0.1 7.3,-2.2 12.2,-4.6 10.1,-5 23.2,-9.8 31.6,-11.5 6.3,-1.3 18.3,-8.6 17.5,-10.6 -0.8,-2.1 9.3,-9.9 11.7,-8.9 1.6,0.6 6.5,-1.1 8.7,-3.1 0.8,-0.7 2.7,-2.4 4.1,-3.7 3.5,-3.1 9.4,-5.8 12.9,-5.8 4.5,0 13,-2.1 13,-3.1 0,-0.6 0.4,-0.8 0.8,-0.5 0.5,0.3 2.3,-0.4 4.2,-1.5 2.1,-1.3 5.7,-2.2 10.4,-2.5 7.2,-0.5 14.1,-2 16.3,-3.6 0.6,-0.5 3.9,-1.3 7.4,-1.9 6.4,-1 8.9,-2.2 8.9,-4.3 0,-1.5 3.6,-4.6 4.4,-3.9 0.3,0.4 0.6,-0.1 0.6,-1 0,-0.9 0.6,-1.4 1.3,-1.2 0.6,0.3 4.6,-1.2 8.7,-3.3 8.4,-4.1 13.7,-4.4 13.3,-0.7 -0.4,3.2 1.2,4.8 3.9,4.2 l 2.5,-0.7 -0.4,-26.2 c -0.3,-14.5 0,-31.3 0.6,-37.3 0.6,-6.1 1.3,-18.9 1.6,-28.5 1,-33.9 1.2,-37.6 2,-45 0.5,-4.1 0.8,-18.2 0.7,-31.3 -0.1,-13 0.2,-23.7 0.6,-23.7 0.4,0 0.7,-2.8 0.7,-6.2 0.1,-3.5 0.4,-9.2 0.8,-12.8 1.4,-13.3 1.6,-24.7 0.5,-31.8 -0.6,-3.9 -1.3,-7.2 -1.7,-7.2 -0.3,0 -0.6,9.5 -0.6,21 0,11.6 -0.3,21 -0.7,21 -0.4,0 -0.7,3.7 -0.5,8.2 0.2,10.1 -0.8,24.4 -2,27.6 -0.5,1.3 -0.5,6 -0.1,10.5 0.4,4.5 0.5,11.8 0.2,16.2 -0.3,4.4 -0.7,13.2 -0.9,19.5 -0.2,6.3 -0.6,15.8 -0.9,21 -0.3,5.2 -0.8,17.6 -1.1,27.5 -0.3,9.9 -0.8,20.2 -1,23 -0.2,2.7 -0.4,8 -0.5,11.7 -0.1,3.8 -0.5,6.8 -0.9,6.8 -0.4,0 -0.4,3 0.1,6.6 0.7,6.5 -0.1,13.7 -1.9,15.5 -0.5,0.5 -2.8,1 -5.2,1.2 -2.5,0.2 -4.8,0.9 -5.5,1.8 -0.6,0.9 -4.4,2.9 -8.5,4.5 -4.1,1.6 -7.6,3.6 -7.8,4.4 -0.6,2.3 -6.4,5.7 -12.9,7.6 -3.3,0.9 -7,2.2 -8.4,2.9 -4.2,2.2 -6.3,2.8 -12.3,3.2 -3.8,0.2 -8.1,1.5 -12.3,3.4 -3.5,1.7 -9.5,3.5 -13.2,4 -9,1.3 -13.1,2.7 -15.7,5.5 -1.2,1.3 -2.5,2.1 -2.8,1.7 -0.4,-0.3 -0.7,0.2 -0.7,1.2 0,1 -0.3,1.6 -0.6,1.2 -0.4,-0.3 -2.4,0.3 -4.5,1.3 -2.1,1.1 -4.7,2 -5.7,2 -1,0 -2.8,0.9 -4,2 -1.2,1.1 -2.5,2 -2.9,2 -0.5,0 -0.8,0.3 -0.8,0.7 -0.1,1.5 -10,10.5 -13.5,12.2 -4.1,2.1 -9.2,3.8 -13.8,4.6 -1.8,0.3 -5.2,1.2 -7.5,2.1 -2.3,0.8 -5.6,1.9 -7.2,2.3 -1.7,0.4 -3.9,1.2 -5,1.8 -1.1,0.6 -3.3,1.7 -5,2.4 -1.6,0.8 -3.3,1.7 -3.6,2.1 -0.3,0.5 -4.3,1.7 -9,2.9 -4.6,1.2 -8.8,2.5 -9.3,3 -0.6,0.5 -1.9,0.9 -2.9,0.9 -1.8,0 -1.9,-0.5 -1.3,-5.5 0.4,-3.7 0.3,-5.5 -0.5,-5.5 -0.8,0 -0.9,-3.5 -0.3,-12.3 0.4,-6.7 0.8,-24.6 0.9,-39.7 0.1,-31.4 1.2,-58.8 2.7,-70.5 0.6,-4.4 1,-9.9 0.9,-12.2 -0.1,-3.3 0.2,-4.4 1.9,-5.3 1.1,-0.6 2,-1.7 2,-2.5 0,-0.8 1.3,-3 3,-4.8 1.6,-1.9 2.6,-3.7 2.3,-4.1 -0.4,-0.4 0.3,-0.9 1.5,-1.3 1.2,-0.3 2,-0.9 1.7,-1.3 -0.3,-0.5 0.4,-1.1 1.5,-1.5 1.1,-0.3 2,-1 2,-1.4 0,-0.4 1.8,-2.5 4,-4.7 2.2,-2.1 4,-4.5 4,-5.2 0,-0.6 0.6,-1.2 1.3,-1.2 0.7,0 2.3,-1 3.7,-2.3 1.4,-1.2 5.4,-3.7 9,-5.6 3.9,-2 9.2,-6 13.3,-10.2 3.8,-3.8 7.5,-6.9 8.2,-6.9 0.7,0 2.5,-1.6 3.9,-3.5 1.5,-1.9 3.4,-3.5 4.2,-3.5 0.7,0 1.4,-0.6 1.4,-1.3 0,-0.7 1,-2.3 2.3,-3.4 1.2,-1.1 6.1,-6 10.8,-10.9 10.4,-10.7 15.5,-15.4 16.7,-15.4 0.5,0 4.9,-3.9 9.9,-8.8 9.6,-9.4 12.9,-12.2 14.1,-12.2 1.2,0 13.3,-9.9 16.1,-13.2 1.3,-1.7 5.4,-5.4 9,-8.3 7.6,-6.1 32.1,-30.1 32.1,-31.4 0,-0.5 0.8,-1.1 1.9,-1.4 2.1,-0.5 10.4,-10.5 9.7,-11.6 -0.3,-0.4 1.1,-2.5 3,-4.6 1.9,-2.1 4.9,-6 6.7,-8.7 1.7,-2.6 4,-4.8 4.9,-4.8 1.6,0 1.7,0.9 1.4,7.7 -0.2,4.3 0,9.8 0.4,12.3 0.8,5.1 1.2,2.8 1.1,-6.3 0,-3.1 0.3,-5.7 0.8,-5.7 0.6,0 1,-0.8 1,-1.8 0.2,-6.9 1.1,-12.4 2.6,-15.2 1.6,-3.1 1.9,-3.2 3,-1.7 0.9,1.3 1.8,1.5 3.5,0.9 2.1,-0.8 2.4,-1.6 2.5,-7.5 0.2,-5.7 0,-6.7 -1.5,-6.7 -0.9,0 -2.5,0.9 -3.5,2 -2.4,2.6 -3.3,2.6 -12.3,-1.2 -4.2,-1.8 -8,-3.1 -8.4,-3 -0.5,0.1 -0.8,-0.2 -0.8,-0.6 0,-0.5 -1.9,-1.5 -4.2,-2.2 -2.4,-0.8 -4.7,-1.7 -5.3,-2.1 -0.5,-0.4 -3,-1.3 -5.5,-2 -2.5,-0.7 -5.7,-2.1 -7.2,-3.1 -1.4,-1 -3.1,-1.8 -3.6,-1.8 -0.6,0 -2.7,-0.9 -4.6,-2.1 -2,-1.2 -3.6,-1.8 -3.6,-1.3 0,0.4 -0.8,0 -1.7,-0.8 -2.3,-1.9 -8.4,-4.4 -10,-4 -0.7,0.2 -1.3,-0.2 -1.3,-0.7 0,-0.9 -5.1,-4.2 -7,-4.6 -1.5,-0.4 -7,-3.2 -10.5,-5.5 -7.7,-5 -29.4,-15 -32.5,-15 -1,0 -2,-0.5 -2.2,-1.1 -0.5,-1.4 -7.5,-4.1 -10.5,-4.1 -1.3,0 -2.3,-0.4 -2.3,-0.9 0,-0.5 -1.1,-0.9 -2.3,-0.9 -1.3,0 -2.7,-0.3 -3.1,-0.7 -1,-1.1 -9.9,-4.3 -11.7,-4.3 -0.9,0 -2.2,-0.7 -2.9,-1.5 -0.7,-0.8 -3.8,-2.2 -6.9,-3.1 -3.1,-0.9 -7.3,-2.5 -9.3,-3.5 -2.1,-1.1 -3.8,-1.6 -3.8,-1.2 0,0.4 -0.6,0 -1.2,-0.8 -1.7,-2.1 -11.3,-5.9 -14.8,-5.9 -1.5,0 -3,-0.3 -3.4,-0.7 -0.7,-0.8 -4,-1.5 -7.3,-1.7 -1.1,-0.1 -1.9,-0.4 -1.6,-0.9 0.2,-0.4 -1,-0.7 -2.6,-0.7 -1.7,0 -3.1,-0.5 -3.1,-1.1 0,-0.5 -0.4,-0.7 -1,-0.4 -0.5,0.3 -1,0.1 -1,-0.5 0,-0.7 -0.7,-0.9 -1.6,-0.6 -0.8,0.3 -1.2,0.2 -0.9,-0.4 0.3,-0.6 -0.3,-1 -1.4,-1 -1.1,0 -2.3,-0.5 -2.7,-1.2 -0.5,-0.7 -0.2,-0.9 0.7,-0.3 0.8,0.4 -0.1,-0.7 -1.9,-2.4 -1.8,-1.8 -3,-3.7 -2.7,-4.2 1,-1.5 6.4,-4 8.1,-3.7 2.6,0.5 4.2,-2.8 2.4,-4.7 -1.4,-1.3 -2.2,-1 -7.5,2.5 z" />
      <path
         style="color:#000000;fill:#cb3c32;fill-opacity:1;fill-rule:nonzero;stroke:#cb3c32;stroke-width:0;stroke-linecap:square;stroke-linejoin:round;stroke-miterlimit:4;stroke-opacity:1;stroke-dasharray:none;stroke-dashoffset:0;marker:none;visibility:visible;display:inline;overflow:visible;enable-background:accumulate"
         id="path3839"
         d="m 362.22771,247.14322 c 0.58516,-0.0438 1.05184,-0.42198 1.59141,-0.61145 0.36713,-0.39596 0.93439,-0.2949 1.36806,-0.52189 0.20958,-0.1333 0.47722,-0.0914 0.70021,-0.16588 0.0695,-0.0232 0.12372,-0.0791 0.18971,-0.11091 0.17211,-0.0829 0.25302,-0.092 0.43896,-0.13735 0.082,-0.0126 0.16766,-0.0104 0.24601,-0.0377 0.0646,-0.0225 0.79244,-0.51129 0.36314,-0.26731 -13.35362,7.58903 -7.16219,4.57108 -5.51694,3.11576 0.37992,-0.42732 0.60636,-0.94758 0.90624,-1.42773 0.42921,-0.54506 0.91292,-1.11422 1.52025,-1.47167 5.38533,-3.16953 4.45112,-2.66457 7.11212,-4.08042 0.87156,-0.44784 1.74054,-0.89455 2.6124,-1.3403 -13.46675,6.94071 -6.16864,4.11323 -4.72634,2.50728 0.3344,-0.43288 0.64653,-0.87425 1.04544,-1.25347 2.1125,-2.00823 6.45444,-3.97688 8.00809,-4.87143 1.06606,-0.57768 2.21633,-0.99347 3.29428,-1.54378 0.21173,-0.10809 0.81918,-0.48274 0.61247,-0.36534 -1.85948,1.05605 -3.71394,2.12091 -5.57091,3.18137 0.64032,-0.41297 0.99231,-1.07418 1.41852,-1.67747 0.45157,-0.63921 0.54724,-0.72366 1.06862,-1.34007 1.54955,-1.59261 3.57486,-2.58913 5.41627,-3.79619 1.11296,-0.71175 2.17251,-1.49937 2.83543,-2.65919 0.35506,-1.04406 0.80506,-2.00481 1.66311,-2.74046 0.2959,-0.25369 0.62769,-0.46225 0.94154,-0.69337 2.34212,-1.34162 4.65153,-2.74205 7.02637,-4.02488 0.14702,-0.0794 2.84781,-1.054 2.93481,-1.08455 0.51696,-0.18153 1.04246,-0.33868 1.55635,-0.52871 1.17669,-0.43512 1.73606,-0.70656 2.86372,-1.21082 0.63979,-0.32897 1.53621,-0.783 2.17904,-1.13803 0.27477,-0.15176 1.08919,-0.62465 0.81552,-0.47088 -8.79332,4.94078 -6.21791,4.11875 -4.52638,2.17473 0.43227,-0.57872 0.83058,-1.18444 1.34656,-1.69558 0.50464,-0.49991 0.94513,-0.82517 1.57515,-1.17738 2.35667,-1.3175 4.73625,-2.59358 7.10438,-3.89037 2.70987,-0.93773 5.51658,-1.60332 8.15111,-2.74607 2.28054,-1.09983 6.26766,-3.26687 -4.06194,2.40214 -0.171,0.0938 0.31035,-0.23684 0.45743,-0.36496 0.37523,-0.32685 0.72561,-0.68118 1.08784,-1.02238 2.70402,-2.21141 5.99986,-3.72446 9.0565,-5.28493 0.50301,-0.25679 1.06554,-0.37494 1.60108,-0.55428 1.29033,-0.43211 2.58672,-0.84596 3.87821,-1.2746 1.82847,-0.64809 3.68433,-1.23012 5.44075,-2.06366 0.44852,-0.21285 1.74769,-0.94215 1.31901,-0.69173 -6.54484,3.8232 -6.24327,3.64866 -4.13841,2.29414 1.03535,-0.61599 1.63657,-1.61322 2.29718,-2.5778 1.01752,-1.27947 2.21317,-2.38815 3.16836,-3.71827 0.75498,-1.22453 1.22868,-2.58017 1.49575,-3.98687 0.17162,-1.39304 0.62587,-2.13168 1.64854,-3.07223 0.85505,-0.71009 1.82,-1.27286 2.68137,-1.9746 0.6522,-0.53133 0.74969,-0.66669 1.3278,-1.26395 0.73602,-0.90017 1.55494,-1.74534 2.21,-2.70898 0.40437,-0.87752 1.01323,-1.60093 1.65962,-2.3077 1.03064,-1.04972 1.92657,-2.21216 2.79611,-3.39515 0.66343,-0.83206 1.12762,-1.79002 1.70193,-2.68005 0.72666,-0.88417 1.51512,-1.7113 2.20588,-2.62615 0.53749,-0.69994 0.95615,-1.48924 1.54385,-2.1493 0.13502,-0.079 4.20479,-3.46489 6.66952,-3.77766 0.0983,-0.0125 0.19947,-0.003 0.2962,-0.0247 0.23857,-0.053 0.46045,-0.15898 0.70631,-0.20536 0.55557,-0.0705 1.10321,-0.0164 1.62509,0.18173 0,0 -5.91552,4.06665 -5.91552,4.06665 l 0,0 c -0.48164,-0.0567 -0.9576,-0.0395 -1.42235,0.11712 -0.23416,0.0725 -0.47471,0.11849 -0.70809,0.1874 -0.21845,0.0645 -0.27248,0.1151 -0.46508,0.23303 1.95575,-1.14955 3.91149,-2.29911 5.86724,-3.44867 -0.79714,0.43206 -1.14959,1.30542 -1.68897,1.99815 -0.64017,0.94141 -1.36505,1.83004 -2.18824,2.61826 -0.67698,0.84973 -1.05725,1.87045 -1.7514,2.70943 -0.86622,1.18982 -1.73118,2.38029 -2.73571,3.45956 -0.61646,0.65231 -1.31245,1.29806 -1.66209,2.13959 -0.56839,1.10931 -1.55413,1.91529 -2.29054,2.90905 -0.48208,0.54757 -0.74416,0.87616 -1.28845,1.36856 -0.8081,0.73105 -1.74559,1.3006 -2.63077,1.9294 -1.07678,0.82018 -1.59125,1.21676 -1.80497,2.60923 -0.27555,1.49863 -0.7598,2.93489 -1.46841,4.28829 -0.16165,0.25992 -0.30968,0.52883 -0.48495,0.77977 -0.75312,1.07825 -1.7752,1.92579 -2.60406,2.94033 -0.13043,0.16309 -0.27413,0.3164 -0.39129,0.48928 -0.87671,1.29366 0.25727,-0.20915 -0.57151,0.99281 -0.35901,0.52067 -0.79068,0.9995 -1.31397,1.35772 -2.87786,1.908 -5.83642,3.75883 -9.01012,5.13142 -1.75051,0.75707 -3.57723,1.31101 -5.37169,1.94954 -0.81473,0.27698 -3.11986,1.05467 -3.96188,1.36355 -0.54988,0.20171 -2.11036,0.98209 -1.63816,0.63556 1.44347,-1.05935 3.0583,-1.86283 4.58502,-2.79822 0.32262,-0.19766 -0.65596,0.37804 -0.97269,0.58502 -0.27399,0.17905 -0.53202,0.38143 -0.79804,0.57214 -0.34459,0.33668 -0.70214,0.66033 -1.03753,1.00617 -0.14504,0.14957 -0.24087,0.35498 -0.41795,0.46474 -2.68413,1.66366 -5.13025,3.33816 -7.9885,4.48653 -2.67162,0.99961 -5.45652,1.66666 -8.10569,2.73261 1.60043,-0.96358 3.21222,-1.90852 4.80128,-2.89073 0.28779,-0.17788 -0.60792,0.29941 -0.89598,0.47683 -0.65841,0.40553 -1.19795,0.93712 -1.65259,1.5577 -0.12884,0.17587 -0.24242,0.36244 -0.36363,0.54366 -1.82092,2.68988 -3.69544,2.8047 -7.42178,5.01501 -0.93379,0.55389 -1.94286,0.97703 -2.91409,1.45677 -1.45488,0.60925 -2.92364,1.13815 -4.40329,1.68194 -0.5164,0.18979 -1.03229,0.38173 -1.54069,0.59202 -0.47921,0.19822 -1.85617,0.91538 -1.42113,0.63311 1.56021,-1.01233 3.20544,-1.88716 4.80816,-2.83074 -1.33081,0.80477 -2.23836,1.43595 -2.58477,3.01277 -0.55314,1.43454 -1.57917,2.26353 -2.85749,3.07993 -0.96635,0.66848 -1.96404,1.25996 -2.96366,1.87647 -0.26544,0.16371 -1.46967,0.91897 -1.74485,1.12431 -0.24883,0.18568 -0.47406,0.40104 -0.71109,0.60155 -0.52232,0.57662 -0.59447,0.6245 -1.03693,1.22782 -0.45922,0.62619 -0.75084,1.3588 -1.30389,1.91981 -2.17591,1.28005 -4.34358,2.57422 -6.52772,3.84016 -0.25734,0.14916 -1.11009,0.52207 -1.3497,0.63345 -0.84873,0.39448 -1.6907,0.80477 -2.51778,1.24296 1.74287,-1.0217 3.479,-2.05499 5.22861,-3.0651 0.22405,-0.12935 -0.43727,0.27679 -0.65113,0.42236 -0.50423,0.34323 -1.00731,0.70479 -1.37424,1.20078 -0.0814,0.11006 -0.14337,0.23327 -0.21505,0.3499 -0.1188,0.17616 -0.1948,0.38214 -0.33304,0.54349 -0.0559,0.0653 -0.1447,0.0938 -0.20994,0.14974 -2.02852,1.73999 -4.55298,2.569 -6.89878,4.08471 -0.86295,0.41177 -1.68571,0.90334 -2.54758,1.31819 -2.38988,1.2885 -1.12355,0.61372 5.0122,-2.95233 0.16223,-0.0943 -0.32226,0.19251 -0.47936,0.29511 -0.49789,0.32515 -0.37165,0.24418 -0.78916,0.64089 -0.0976,0.0927 -0.19579,0.1848 -0.29369,0.2772 -0.36409,0.45058 -0.5422,0.96954 -0.8762,1.43239 -1.31901,2.60139 -4.62323,3.67363 -7.37184,4.43965 -0.43222,0.1715 -0.88684,0.24918 -1.31862,0.42625 -0.48852,0.0925 -0.8755,0.37055 -1.3315,0.54966 -0.54167,0.25891 -1.10475,0.4231 -1.69835,0.5183 0,0 5.74695,-4.35127 5.74695,-4.35127 z"
         inkscape:connector-curvature="0"
         transform="scale(0.8,0.8)" />
    </g>
    <path
       inkscape:connector-curvature="0"
       id="path3857"
       d="m 403.3795,414.09466 c -3.14438,-1.18708 -7.24062,-3.15804 -9.10276,-4.37993 -10.40341,-6.82642 -13.91852,-8.81031 -18.86043,-10.64459 -3.00391,-1.11496 -6.29074,-2.56345 -7.30408,-3.21886 -1.01333,-0.65541 -4.08552,-2.13084 -6.82707,-3.27874 -2.74155,-1.14789 -5.59908,-2.55504 -6.35006,-3.127 -0.75097,-0.57194 -3.82316,-1.77805 -6.82707,-2.68022 -3.00391,-0.90218 -11.86425,-4.66654 -19.68965,-8.36525 -7.82538,-3.69872 -14.60286,-6.72493 -15.06107,-6.72493 -0.45819,0 -3.88658,-1.84635 -7.61864,-4.103 -3.73205,-2.25665 -8.878,-4.72657 -11.43544,-5.48873 -2.55744,-0.76215 -6.96891,-2.78217 -9.80326,-4.48893 -2.83435,-1.70676 -5.96219,-3.35991 -6.95075,-3.67366 -0.98854,-0.31376 -2.31181,-1.06491 -2.9406,-1.66922 -0.62878,-0.60431 -4.0106,-2.2425 -7.51516,-3.64038 -3.50456,-1.3979 -9.2393,-3.94212 -12.74387,-5.65381 -6.89615,-3.36822 -15.05266,-6.35235 -21.11204,-7.72403 -2.09924,-0.47521 -5.27599,-1.85424 -7.05944,-3.06453 -1.78345,-1.21028 -6.41506,-3.50086 -10.29247,-5.09017 -7.99775,-3.27821 -21.77565,-10.93458 -30.14402,-16.75105 -2.08485,-1.44909 -5.01146,-2.67796 -6.50356,-2.73083 -1.49211,-0.0529 -2.71385,-0.4471 -2.715,-0.87608 -8e-4,-0.42898 -1.64057,-2.83782 -3.64317,-5.353 -2.00261,-2.51517 -3.64111,-4.88204 -3.64111,-5.25971 0,-0.37767 0.993,-1.33731 2.20665,-2.13253 1.21366,-0.79522 2.47014,-2.27602 2.79217,-3.29066 0.32204,-1.01464 1.13594,-1.8448 1.80867,-1.8448 0.67274,0 2.2055,-1.12647 3.40613,-2.50326 2.14413,-2.45873 4.16077,-3.86814 9.11876,-6.37301 1.37074,-0.69253 2.80443,-1.7642 3.18597,-2.38148 0.38153,-0.61729 2.05693,-2.07409 3.72313,-3.23734 1.66618,-1.16327 5.55761,-4.34807 8.64761,-7.07735 3.09001,-2.72929 6.53985,-5.33106 7.66631,-5.7817 1.12648,-0.45066 2.04813,-1.45271 2.04813,-2.22682 0,-0.7741 1.02406,-1.87405 2.27569,-2.44433 1.25163,-0.57029 2.27569,-1.38075 2.27569,-1.80104 0,-0.42029 0.69048,-0.76416 1.5344,-0.76416 0.84392,0 3.47756,-1.6385 5.85253,-3.64111 2.37498,-2.0026 5.14789,-3.6411 6.16203,-3.6411 2.20667,0 20.99477,-12.4813 29.02983,-19.2851 19.00376,-16.09164 26.60219,-22.79183 26.60219,-23.45738 0,-0.41438 1.01189,-1.00738 2.24864,-1.31778 1.23675,-0.3104 3.18246,-1.52044 4.32381,-2.68897 1.14135,-1.16854 4.1233,-3.51638 6.62655,-5.21743 2.50327,-1.70105 7.21395,-5.36659 10.46818,-8.14564 3.25424,-2.77904 7.64556,-5.80831 9.75849,-6.73169 2.11293,-0.92339 4.53176,-2.44139 5.37517,-3.37335 0.8434,-0.93196 1.9508,-1.69448 2.46087,-1.69448 0.81391,0 6.60379,-2.67109 20.48671,-9.45132 3.79628,-1.85406 9.25312,-7.49084 9.25312,-9.55826 0,-0.54846 1.94918,-3.15208 4.33152,-5.7858 2.38234,-2.63372 5.27761,-6.11986 6.43392,-7.74698 1.15632,-1.62712 2.89027,-2.9584 3.85325,-2.9584 0.96296,0 2.26248,-0.81925 2.8878,-1.82056 0.62532,-1.0013 1.59511,-1.82055 2.15505,-1.82055 0.55995,0 4.63099,-2.66255 9.04675,-5.91679 4.41577,-3.25424 8.87699,-5.92025 9.91383,-5.92447 1.03684,-0.004 6.80065,2.47182 12.80848,5.50231 7.81309,3.94111 12.90414,5.8775 17.88011,6.80071 3.82625,0.7099 13.04279,3.71194 20.48122,6.6712 7.43843,2.95927 14.54846,5.67863 15.80009,6.04304 1.25163,0.36441 5.19568,2.04621 8.76458,3.73732 3.56888,1.69112 11.46816,4.7515 17.55395,6.80084 6.08579,2.04935 14.22566,5.17079 18.08858,6.93655 3.86292,1.76575 10.09501,4.4348 13.84909,5.93121 3.75407,1.49642 9.48881,4.46824 12.74387,6.60405 7.9842,5.23887 23.21332,12.56846 55.07317,26.5061 17.4092,7.61596 22.09132,10.1357 22.76234,12.24991 1.47711,4.65398 -1.97318,12.42174 -8.5529,19.25539 -0.80606,0.83718 -3.71851,4.51554 -6.47209,8.17412 -2.75359,3.65859 -7.15704,8.95022 -9.78547,11.75916 -2.62842,2.80896 -4.77895,5.51644 -4.77895,6.01663 0,0.50019 -0.94531,1.34015 -2.10069,1.86656 -1.15537,0.52643 -4.12515,3.30465 -6.5995,6.17383 -11.82344,13.71008 -45.22347,44.13672 -48.4499,44.13672 -0.38095,0 -3.65303,3.05866 -7.27129,6.79703 -3.61826,3.73836 -8.83193,8.49825 -11.58592,10.57753 -2.754,2.07929 -5.00727,4.14094 -5.00727,4.58144 0,0.4405 -0.62729,0.80091 -1.39398,0.80091 -0.7667,0 -1.62977,0.61443 -1.91795,1.36541 -0.28818,0.75098 -0.8761,1.36541 -1.3065,1.36541 -0.81301,0 -6.77166,5.6684 -7.34412,6.98638 -0.57887,1.33275 -31.9271,30.44273 -40.26421,37.38937 -4.44309,3.70207 -8.94896,7.0667 -10.01303,7.47694 -2.17577,0.83885 -24.77928,20.33366 -25.27973,21.80296 -0.67495,1.98166 -5.8328,1.85306 -11.50081,-0.28674 l 0,0 z"
       style="color:#000000;fill:#ffa3a4;fill-opacity:1;fill-rule:nonzero;stroke:#c42836;stroke-width:0;stroke-linecap:square;stroke-linejoin:round;stroke-miterlimit:4;stroke-opacity:1;stroke-dasharray:none;stroke-dashoffset:0;marker:none;visibility:visible;display:inline;overflow:visible;enable-background:accumulate" />
  </g>
</svg>
