<?xml version="1.0" encoding="utf-8"?>
<!-- Generator: Adobe Illustrator 15.0.0, SVG Export Plug-In . SVG Version: 6.00 Build 0)  -->
<!DOCTYPE svg PUBLIC "-//W3C//DTD SVG 1.1//EN" "http://www.w3.org/Graphics/SVG/1.1/DTD/svg11.dtd">
<svg version="1.1" xmlns="http://www.w3.org/2000/svg" xmlns:xlink="http://www.w3.org/1999/xlink" x="0px" y="0px" width="580px"
	 height="580px" viewBox="0 0 580 580" enable-background="new 0 0 580 580" xml:space="preserve">
<g id="Layer_1">
	<g id="Layer_2">
		<g id="g1327">
			<path id="path1329" fill="#111111" stroke="#EEEEEE" stroke-width="3.408" d="M66.275,1.768
				c-41.335,0-64.571,21.371-64.571,65.036v450.123c0,40.844,20.895,62.229,62.192,62.229h452.024
				c41.307,0,62.229-20.315,62.229-62.229V66.804c0-42.602-20.923-65.036-63.521-65.036C514.625,1.768,66.133,1.625,66.275,1.768z"
				/>
		</g>
	</g>
</g>
<g id="Layer_2_1_">
	<g>
		<path fill="#FFFFFF" d="M445.174,493.401l-87.088,40.128c0,0-10.246,5.978-27.322,0l-140.877-56.35
			c0,0-20.208-12.713,5.407-24.666l103.027,21.25l45.25-11.1l-68.304-4.27c0,0-22.198-16.223-0.854-31.59h71.721
			c0,0,31.59-17.93,77.695-9.393l111.85-5.977v96.48L445.174,493.401z"/>
		<path fill="#FFFFFF" d="M134.825,265.413l87.089,40.128c0,0,10.245,5.978,27.322,0l140.876-56.35c0,0,20.207-12.713-5.406-24.666
			l-103.027,21.25l-45.251-11.1l68.305-4.27c0,0,22.197-16.223,0.854-31.59h-71.72c0,0-31.591-17.93-77.696-9.393l-111.849-5.977
			v96.48L134.825,265.413z"/>
		<g>
			<path fill="#FFFFFF" d="M282.714,51.704v4.85c-10.058,1.222-17.78,4.398-22.968,9.472c-5.78,5.653-8.712,12.517-8.712,20.401
				c0,7.946,2.969,14.539,8.824,19.595c5.223,4.512,12.907,7.892,22.855,10.075v40.397c-4.313-0.943-7.901-2.906-10.695-5.863
				c-3.543-3.751-5.932-9.19-7.103-16.172c-0.053-0.314-0.35-0.529-0.666-0.483l-15.361,2.313c-0.306,0.046-0.523,0.321-0.497,0.629
				c0.806,9.607,4.406,17.193,10.701,22.549c5.64,4.798,13.58,7.919,23.621,9.309v6.781c0,4.357,3.534,7.89,7.891,7.89
				c4.357,0,7.891-3.532,7.891-7.89v-6.963c10.109-1.256,18.662-4.736,23.941-9.839c6.518-6.302,9.822-13.858,9.822-22.464
				c0-8.425-3.023-15.333-8.99-20.533c-4.893-4.263-13.611-7.762-24.773-9.984V69.605c3.215,0.97,6.307,2.351,8.102,4.124
				c2.801,2.768,4.668,6.59,5.553,11.361c0.057,0.305,0.342,0.512,0.648,0.475l15.959-1.95c0.16-0.021,0.305-0.104,0.4-0.233
				c0.096-0.131,0.135-0.295,0.105-0.454c-1.441-8.01-5.045-14.33-10.711-18.786c-4.385-3.446-11.529-6.029-20.057-7.319v-5.118
				c0-4.357-3.533-7.89-7.891-7.89C286.248,43.814,282.714,47.346,282.714,51.704z M282.714,102.134
				c-4.188-1.413-7.619-3.229-10.232-5.424c-3.26-2.737-4.911-6.536-4.911-11.294c0-4.154,1.607-7.868,4.778-11.04
				c2.535-2.536,6.015-4.363,10.365-5.455V102.134z M298.496,120.03c6.527,2.003,10.664,3.937,12.576,5.871
				c2.805,2.834,4.227,6.647,4.227,11.33c0,5.347-1.891,9.835-5.619,13.34c-2.73,2.568-7.016,4.343-11.184,5.423V120.03z"/>
		</g>
	</g>
</g>
</svg>
