<?xml version="1.0" encoding="UTF-8" standalone="no"?>
<!-- Generator: Adobe Illustrator 15.0.0, SVG Export Plug-In . SVG Version: 6.00 Build 0)  -->

<svg
   xmlns:dc="http://purl.org/dc/elements/1.1/"
   xmlns:cc="http://creativecommons.org/ns#"
   xmlns:rdf="http://www.w3.org/1999/02/22-rdf-syntax-ns#"
   xmlns:svg="http://www.w3.org/2000/svg"
   xmlns="http://www.w3.org/2000/svg"
   xmlns:sodipodi="http://sodipodi.sourceforge.net/DTD/sodipodi-0.dtd"
   xmlns:inkscape="http://www.inkscape.org/namespaces/inkscape"
   version="1.1"
   x="0px"
   y="0px"
   width="580px"
   height="580px"
   viewBox="0 0 580 580"
   enable-background="new 0 0 580 580"
   xml:space="preserve"
   id="svg901"
   sodipodi:docname="cash_withdrawal.svg"
   inkscape:version="0.92.3 (2405546, 2018-03-11)"><metadata
   id="metadata907"><rdf:RDF><cc:Work
       rdf:about=""><dc:format>image/svg+xml</dc:format><dc:type
         rdf:resource="http://purl.org/dc/dcmitype/StillImage" /><dc:title></dc:title></cc:Work></rdf:RDF></metadata><defs
   id="defs905">
	
	
	
	
</defs><sodipodi:namedview
   pagecolor="#ffffff"
   bordercolor="#666666"
   borderopacity="1"
   objecttolerance="10"
   gridtolerance="10"
   guidetolerance="10"
   inkscape:pageopacity="0"
   inkscape:pageshadow="2"
   inkscape:window-width="1405"
   inkscape:window-height="892"
   id="namedview903"
   showgrid="false"
   inkscape:zoom="1.0074671"
   inkscape:cx="290"
   inkscape:cy="290"
   inkscape:window-x="277"
   inkscape:window-y="171"
   inkscape:window-maximized="0"
   inkscape:current-layer="svg901" />
<g
   id="Layer_1">
	<g
   id="Layer_2">
		<g
   id="g1327">
			<path
   id="path1329"
   fill="#111111"
   stroke="#EEEEEE"
   stroke-width="3.408"
   d="M66.275,1.768     c-41.335,0-64.571,21.371-64.571,65.036v450.123c0,40.844,20.895,62.229,62.192,62.229h452.024     c41.307,0,62.229-20.315,62.229-62.229V66.804c0-42.602-20.923-65.036-63.521-65.036C514.625,1.768,66.133,1.625,66.275,1.768z" />
		</g>
	</g>
</g>
<g
   id="g882">
		<path
   style="fill:#ffffff"
   inkscape:connector-curvature="0"
   id="path880"
   d="m 445.174,508.44 -87.088,40.128 c 0,0 -10.246,5.978 -27.322,0 l -140.877,-56.35 c 0,0 -20.208,-12.713 5.407,-24.666 l 103.027,21.25 45.25,-11.1 -68.305,-4.27 c 0,0 -22.198,-16.223 -0.854,-31.59 h 71.722 c 0,0 31.59,-17.93 77.695,-9.393 l 111.85,-5.977 v 96.48 z" />
	</g><path
   style="fill:#ffffff"
   inkscape:connector-curvature="0"
   id="path884"
   d="m 134.825,238.375 87.089,40.127 c 0,0 10.245,5.979 27.322,0 l 140.877,-56.349 c 0,0 20.207,-12.713 -5.406,-24.666 l -103.027,21.25 -45.251,-11.1 68.306,-4.27 c 0,0 22.197,-16.223 0.854,-31.59 h -71.721 c 0,0 -31.591,-17.93 -77.696,-9.393 L 44.323,156.407 v 96.48 z" /><g
   id="g888">
		<path
   style="fill:#ffffff"
   inkscape:connector-curvature="0"
   id="path886"
   d="m 276.711,36.665 v 4.85 c -10.059,1.222 -17.781,4.398 -22.969,9.472 -5.779,5.653 -8.711,12.517 -8.711,20.401 0,7.946 2.969,14.539 8.824,19.595 5.223,4.512 12.906,7.892 22.855,10.075 v 40.397 c -4.313,-0.943 -7.902,-2.906 -10.695,-5.863 -3.543,-3.751 -5.932,-9.19 -7.104,-16.172 -0.053,-0.314 -0.35,-0.529 -0.666,-0.483 l -15.361,2.313 c -0.305,0.046 -0.523,0.321 -0.496,0.629 0.805,9.607 4.406,17.193 10.701,22.549 5.639,4.798 13.58,7.919 23.621,9.309 v 6.781 c 0,4.357 3.533,7.89 7.891,7.89 4.358,0 7.89,-3.532 7.89,-7.89 v -6.963 c 10.109,-1.256 18.662,-4.736 23.941,-9.839 6.518,-6.302 9.822,-13.858 9.822,-22.464 0,-8.425 -3.023,-15.333 -8.99,-20.533 -4.893,-4.263 -13.611,-7.762 -24.773,-9.984 V 54.567 c 3.215,0.97 6.307,2.351 8.102,4.124 2.801,2.768 4.668,6.59 5.553,11.361 0.057,0.305 0.342,0.512 0.648,0.475 l 15.959,-1.95 c 0.16,-0.021 0.305,-0.104 0.4,-0.233 0.096,-0.131 0.135,-0.295 0.105,-0.454 -1.441,-8.01 -5.045,-14.33 -10.711,-18.786 -4.385,-3.446 -11.529,-6.029 -20.057,-7.319 v -5.118 c 0,-4.357 -3.533,-7.89 -7.89,-7.89 -4.357,0 -7.889,3.531 -7.889,7.888 z m 0,50.43 c -4.188,-1.413 -7.619,-3.229 -10.232,-5.424 -3.26,-2.737 -4.912,-6.536 -4.912,-11.294 0,-4.154 1.607,-7.868 4.779,-11.04 2.535,-2.536 6.014,-4.363 10.365,-5.455 z m 15.781,17.896 c 6.527,2.003 10.664,3.937 12.576,5.871 2.805,2.834 4.227,6.647 4.227,11.33 0,5.347 -1.891,9.835 -5.619,13.34 -2.73,2.568 -7.016,4.343 -11.184,5.423 z" />
	</g>
<g
   transform="matrix(2.0036199,0,0,2.0036199,197.34065,267.83119)"
   id="g5191"><path
     d="m 6.64,37.198 c -2.187,2.187 -2.187,5.727 0,7.913 L 54.882,93.36 c 2.186,2.186 5.736,2.186 7.923,0 L 64.242,91.923 8.077,35.762 Z"
     id="path829"
     inkscape:connector-curvature="0"
     style="clip-rule:evenodd;fill:#ffffff;fill-opacity:1;fill-rule:evenodd" /><path
     d="M 93.36,54.878 45.117,6.64 C 42.93,4.453 39.39,4.453 37.204,6.64 L 12.491,31.348 68.656,87.508 93.36,62.801 c 2.187,-2.188 2.187,-5.737 0,-7.923 z M 73.497,74.816 57.558,58.875 73.497,42.936 89.435,58.875 Z"
     id="path831"
     inkscape:connector-curvature="0"
     style="clip-rule:evenodd;fill:#ffffff;fill-opacity:1;fill-rule:evenodd" /></g></svg>