<?xml version="1.0" encoding="UTF-8" standalone="no"?>
<!-- Generator: Adobe Illustrator 15.0.0, SVG Export Plug-In . SVG Version: 6.00 Build 0)  -->

<svg
   xmlns:dc="http://purl.org/dc/elements/1.1/"
   xmlns:cc="http://creativecommons.org/ns#"
   xmlns:rdf="http://www.w3.org/1999/02/22-rdf-syntax-ns#"
   xmlns:svg="http://www.w3.org/2000/svg"
   xmlns="http://www.w3.org/2000/svg"
   xmlns:sodipodi="http://sodipodi.sourceforge.net/DTD/sodipodi-0.dtd"
   xmlns:inkscape="http://www.inkscape.org/namespaces/inkscape"
   version="1.1"
   x="0px"
   y="0px"
   width="580px"
   height="580px"
   viewBox="0 0 580 580"
   enable-background="new 0 0 580 580"
   xml:space="preserve"
   id="svg853"
   sodipodi:docname="payment_terminal.svg"
   inkscape:version="0.92.3 (2405546, 2018-03-11)"><metadata
   id="metadata859"><rdf:RDF><cc:Work
       rdf:about=""><dc:format>image/svg+xml</dc:format><dc:type
         rdf:resource="http://purl.org/dc/dcmitype/StillImage" /><dc:title></dc:title></cc:Work></rdf:RDF></metadata><defs
   id="defs857">
	
	
</defs><sodipodi:namedview
   pagecolor="#ffffff"
   bordercolor="#666666"
   borderopacity="1"
   objecttolerance="10"
   gridtolerance="10"
   guidetolerance="10"
   inkscape:pageopacity="0"
   inkscape:pageshadow="2"
   inkscape:window-width="1453"
   inkscape:window-height="866"
   id="namedview855"
   showgrid="false"
   inkscape:zoom="0.61580177"
   inkscape:cx="290"
   inkscape:cy="290"
   inkscape:window-x="576"
   inkscape:window-y="132"
   inkscape:window-maximized="0"
   inkscape:current-layer="g5934" />
<g
   id="Layer_2_1_">
	<g
   id="Layer_2">
		<g
   id="g1327">
			<path
   id="path1329"
   d="M66.275,1.768     c-41.335,0-64.571,21.371-64.571,65.036v450.123c0,40.844,20.895,62.229,62.192,62.229h452.024     c41.307,0,62.229-20.315,62.229-62.229V66.804c0-42.602-20.923-65.036-63.521-65.036C514.625,1.768,66.133,1.625,66.275,1.768z"
   stroke-width="3.408"
   stroke="#EEEEEE"
   fill="#111111" />
		</g>
	</g>
</g>
<path
   style="fill:#ffffff"
   inkscape:connector-curvature="0"
   id="path850"
   d="m 506.465,106.233 h -234.91 c -6.628,0 -12,5.373 -12,12 v 408.078 c 0,6.627 5.372,12 12,12 h 234.91 c 6.629,0 12,-5.373 12,-12 V 118.233 c 0,-6.627 -5.371,-12 -12,-12 z M 291.754,138.177 H 486.266 V 259.226 H 291.754 Z M 281.223,322.272 291.638,273.5 H 486.15 l 10.646,48.772 z" />
<g
   id="g5934"
   transform="rotate(90,193.45427,290.87731)"><g
     id="g5939"
     transform="matrix(0.84893037,0,0,0.84893037,-58.827907,93.79732)"><path
       style="fill:#ffffff;fill-opacity:1;stroke:none;stroke-width:0.73538381"
       d="m 119.5692,281.23948 c -0.62684,-24.71436 -20.883735,-44.57844 -45.748245,-44.57844 -25.25922,0 -45.76626,20.50702 -45.76626,45.76624 0,25.2592 20.50704,45.76624 45.76626,45.76624 25.2592,0 45.748245,-20.50703 45.748245,-45.76624 0,-0.39468 0.01,-0.79551 0,-1.1878 z"
       id="path4559"
       inkscape:connector-curvature="0"
       sodipodi:nodetypes="ssssss" /><path
       style="fill:#ffffff;fill-opacity:1;stroke:none;stroke-width:0.73538381"
       d="m 164.11329,361.84533 c -0.51284,-15.8345 -13.5831,-28.47259 -29.51665,-28.36074 -16.18646,0.1136 -29.23545,13.34705 -29.12183,29.53352 0.11361,16.18647 13.34706,29.23545 29.53353,29.12184 16.18647,-0.11361 29.22391,-13.34698 29.11029,-29.53345 -0.001,-0.25292 0.003,-0.50982 -0.005,-0.76117 z"
       id="path4559-1-0"
       inkscape:connector-curvature="0"
       sodipodi:nodetypes="ssssss" /><rect
       style="fill:#ffffff;fill-opacity:1;fill-rule:nonzero;stroke:#ffffff;stroke-width:6.69199324;stroke-linecap:square;stroke-linejoin:round;stroke-miterlimit:4;stroke-dasharray:none;stroke-opacity:1"
       id="rect4618"
       width="173.49474"
       height="102.92061"
       x="-52.953598"
       y="-439.64774"
       transform="rotate(132.7355)" /></g></g></svg>