<?xml version="1.0" encoding="UTF-8" standalone="no"?>
<!-- Generator: Adobe Illustrator 15.0.0, SVG Export Plug-In . SVG Version: 6.00 Build 0)  -->

<svg
   xmlns:dc="http://purl.org/dc/elements/1.1/"
   xmlns:cc="http://creativecommons.org/ns#"
   xmlns:rdf="http://www.w3.org/1999/02/22-rdf-syntax-ns#"
   xmlns:svg="http://www.w3.org/2000/svg"
   xmlns="http://www.w3.org/2000/svg"
   xmlns:sodipodi="http://sodipodi.sourceforge.net/DTD/sodipodi-0.dtd"
   xmlns:inkscape="http://www.inkscape.org/namespaces/inkscape"
   version="1.1"
   x="0px"
   y="0px"
   width="580px"
   height="580px"
   viewBox="0 0 580 580"
   enable-background="new 0 0 580 580"
   xml:space="preserve"
   id="svg3000"
   inkscape:version="0.92.3 (2405546, 2018-03-11)"
   sodipodi:docname="interpolation.svg"><metadata
   id="metadata3013"><rdf:RDF><cc:Work
       rdf:about=""><dc:format>image/svg+xml</dc:format><dc:type
         rdf:resource="http://purl.org/dc/dcmitype/StillImage" /><dc:title></dc:title></cc:Work></rdf:RDF></metadata><defs
   id="defs3011">
</defs><sodipodi:namedview
   pagecolor="#ffffff"
   bordercolor="#666666"
   borderopacity="1"
   objecttolerance="10"
   gridtolerance="10"
   guidetolerance="10"
   inkscape:pageopacity="0"
   inkscape:pageshadow="2"
   inkscape:window-width="1725"
   inkscape:window-height="1026"
   id="namedview3009"
   showgrid="false"
   inkscape:snap-nodes="false"
   inkscape:zoom="1.0965517"
   inkscape:cx="243.49057"
   inkscape:cy="290"
   inkscape:window-x="1813"
   inkscape:window-y="127"
   inkscape:window-maximized="0"
   inkscape:current-layer="svg3000" />
<g
   id="Layer_1">
	<g
   id="Layer_2">
		<g
   id="g1327">
			<path
   id="path1329"
   d="M66.275,1.768     c-41.335,0-64.571,21.371-64.571,65.036v450.123c0,40.844,20.895,62.229,62.192,62.229h452.024     c41.307,0,62.229-20.315,62.229-62.229V66.804c0-42.602-20.923-65.036-63.521-65.036C514.625,1.768,66.133,1.625,66.275,1.768z"
   stroke-width="3.408"
   stroke="#EEEEEE"
   fill="#111111" />
		</g>
	</g>
</g><path
   style="fill:#ffffff;fill-opacity:1;fill-rule:evenodd;stroke:#ffffff;stroke-width:21.84198189;stroke-linecap:round;stroke-linejoin:miter;stroke-miterlimit:4;stroke-dasharray:none;stroke-opacity:1"
   d="M 169.03537,380.8712 405.49293,200.95269"
   id="path1138"
   inkscape:connector-curvature="0" />

<rect
   style="fill:none;stroke:#ffffff;stroke-width:21.802;stroke-linejoin:round;stroke-miterlimit:4;stroke-dasharray:none;stroke-opacity:1"
   id="rect3253"
   width="223.54617"
   height="132.93942"
   x="296.3244"
   y="64.042519"
   rx="9.227705"
   ry="9.227705"
   inkscape:export-xdpi="147.22044"
   inkscape:export-ydpi="147.22044" /><text
   xml:space="preserve"
   style="font-style:normal;font-variant:normal;font-weight:bold;font-stretch:normal;font-size:6.82923269px;line-height:0%;font-family:Arial;-inkscape-font-specification:'Arial Bold';text-align:start;letter-spacing:0px;word-spacing:0px;writing-mode:lr-tb;text-anchor:start;fill:#ffffff;fill-opacity:1;stroke:none;stroke-width:10.912;stroke-miterlimit:4;stroke-dasharray:none"
   x="343.8674"
   y="173.21623"
   id="text4023"><tspan
     sodipodi:role="line"
     id="tspan4025"
     x="343.8674"
     y="173.21623"
     style="font-size:118.82853699px;line-height:1.25;stroke-width:10.912;stroke-miterlimit:4;stroke-dasharray:none">42</tspan></text>

<rect
   inkscape:export-ydpi="147.22044"
   inkscape:export-xdpi="147.22044"
   ry="9.227705"
   rx="9.227705"
   y="387.11746"
   x="53.078571"
   height="140.24084"
   width="235.82399"
   id="rect296"
   style="fill:none;stroke:#ffffff;stroke-width:21.802;stroke-linejoin:round;stroke-miterlimit:4;stroke-dasharray:none;stroke-opacity:1" /><g
   aria-label="24"
   style="font-style:normal;font-variant:normal;font-weight:bold;font-stretch:normal;font-size:80px;line-height:125%;font-family:Arial;-inkscape-font-specification:'Arial Bold';letter-spacing:0px;word-spacing:0px;fill:#ffffff;fill-opacity:1;stroke:none;stroke-width:1px;stroke-linecap:butt;stroke-linejoin:miter;stroke-opacity:1"
   id="flowRoot1125"
   transform="matrix(1.5610156,0,0,1.5610156,-27.245358,-224.40766)"><path
     d="m 121.63281,453.0916 v 10.19532 H 83.15625 q 0.625,-5.78125 3.75,-10.9375 3.125,-5.19532 12.34375,-13.75 7.42188,-6.91407 9.10156,-9.375 2.26563,-3.39844 2.26563,-6.71875 0,-3.67188 -1.99219,-5.625 -1.95312,-1.99219 -5.42969,-1.99219 -3.437498,0 -5.468748,2.07031 -2.03125,2.07031 -2.34375,6.875 l -10.9375,-1.09375 q 0.976563,-9.0625 6.132813,-13.00781 5.15625,-3.94531 12.890625,-3.94531 8.47656,0 13.32031,4.57031 4.84375,4.57031 4.84375,11.36719 0,3.86718 -1.40625,7.38281 -1.36718,3.47656 -4.375,7.30469 -1.99218,2.53906 -7.1875,7.30468 -5.19531,4.76563 -6.60156,6.32813 -1.36719,1.5625 -2.226563,3.04687 z"
     id="path1133"
     inkscape:connector-curvature="0" /><path
     d="m 150.61719,463.28692 v -11.52344 h -23.4375 v -9.60938 l 24.84375,-36.36718 h 9.21875 v 36.32812 h 7.10937 v 9.64844 h -7.10937 v 11.52344 z m 0,-21.17188 v -19.57031 l -13.16407,19.57031 z"
     id="path1135"
     inkscape:connector-curvature="0" /></g></svg>