<?xml version="1.0" encoding="UTF-8" standalone="no"?>
<!-- Generator: Adobe Illustrator 15.0.0, SVG Export Plug-In . SVG Version: 6.00 Build 0)  -->

<svg
   xmlns:dc="http://purl.org/dc/elements/1.1/"
   xmlns:cc="http://creativecommons.org/ns#"
   xmlns:rdf="http://www.w3.org/1999/02/22-rdf-syntax-ns#"
   xmlns:svg="http://www.w3.org/2000/svg"
   xmlns="http://www.w3.org/2000/svg"
   xmlns:xlink="http://www.w3.org/1999/xlink"
   xmlns:sodipodi="http://sodipodi.sourceforge.net/DTD/sodipodi-0.dtd"
   xmlns:inkscape="http://www.inkscape.org/namespaces/inkscape"
   version="1.1"
   x="0px"
   y="0px"
   width="580px"
   height="580px"
   viewBox="0 0 580 580"
   enable-background="new 0 0 580 580"
   xml:space="preserve"
   id="svg3000"
   inkscape:version="0.48.4 r9939"
   sodipodi:docname="saddle_sp.svg"><metadata
   id="metadata3013"><rdf:RDF><cc:Work
       rdf:about=""><dc:format>image/svg+xml</dc:format><dc:type
         rdf:resource="http://purl.org/dc/dcmitype/StillImage" /><dc:title></dc:title></cc:Work></rdf:RDF></metadata><defs
   id="defs3011" /><sodipodi:namedview
   pagecolor="#ffffff"
   bordercolor="#666666"
   borderopacity="1"
   objecttolerance="10"
   gridtolerance="10"
   guidetolerance="10"
   inkscape:pageopacity="0"
   inkscape:pageshadow="2"
   inkscape:window-width="1725"
   inkscape:window-height="1026"
   id="namedview3009"
   showgrid="false"
   inkscape:snap-nodes="false"
   inkscape:zoom="1.0965517"
   inkscape:cx="6.3836502"
   inkscape:cy="290"
   inkscape:window-x="0"
   inkscape:window-y="0"
   inkscape:window-maximized="0"
   inkscape:current-layer="svg3000" />
<g
   id="Layer_1">
	<g
   id="Layer_2">
		<g
   id="g1327">
			<path
   id="path1329"
   d="M66.275,1.768     c-41.335,0-64.571,21.371-64.571,65.036v450.123c0,40.844,20.895,62.229,62.192,62.229h452.024     c41.307,0,62.229-20.315,62.229-62.229V66.804c0-42.602-20.923-65.036-63.521-65.036C514.625,1.768,66.133,1.625,66.275,1.768z"
   stroke-width="3.408"
   stroke="#EEEEEE"
   fill="#111111" />
		</g>
	</g>
</g>

<g
   transform="matrix(27.142009,0,0,27.142009,19.55611,18.131505)"
   id="g7356"><path
     inkscape:connector-curvature="0"
     inkscape:connector-type="polyline"
     id="path5190"
     d="M 6.9348819,7.9651663 10.174679,13.793064"
     style="fill:none;stroke:#ffffff;stroke-width:0.80238014;stroke-linecap:square;stroke-linejoin:miter;stroke-miterlimit:4;stroke-opacity:1;stroke-dasharray:none" /><path
     inkscape:connector-curvature="0"
     inkscape:connector-type="polyline"
     id="path5192"
     d="M 8.0177879,6.8910818 13.958053,10.175776"
     style="fill:none;stroke:#ffffff;stroke-width:0.80230635;stroke-linecap:square;stroke-linejoin:miter;stroke-miterlimit:4;stroke-opacity:1;stroke-dasharray:none" /><path
     inkscape:connector-curvature="0"
     inkscape:connector-type="polyline"
     id="path5194"
     d="M 8.4425879,5.4896094 13.187689,5.0660616"
     style="fill:none;stroke:#ffffff;stroke-width:0.92164463;stroke-linecap:square;stroke-linejoin:miter;stroke-miterlimit:4;stroke-opacity:1;stroke-dasharray:none" /><use
     height="20"
     width="20"
     transform="translate(10.80088,-10.47918)"
     id="use3189"
     xlink:href="#path3187"
     y="0"
     x="0" /><path
     transform="matrix(0.01445402,0,0,0.01741603,4.2942188,15.262488)"
     d="m 149.50257,18.484772 c 0,61.089156 -59.47228,110.611698 -132.835053,110.611698 -73.362774,0 -132.835057,-49.522542 -132.835057,-110.611698 0,-61.089156 59.472283,-110.611702 132.835057,-110.611702 73.362773,0 132.835053,49.522546 132.835053,110.611702 z"
     sodipodi:ry="110.6117"
     sodipodi:rx="132.83505"
     sodipodi:cy="18.484772"
     sodipodi:cx="16.667517"
     id="path3187"
     style="fill:#ffffff;fill-opacity:1;stroke:#e0e0e0;stroke-width:1;stroke-linejoin:miter;stroke-miterlimit:4;stroke-opacity:0.50196078;stroke-dasharray:none;stroke-dashoffset:0"
     sodipodi:type="arc" /><use
     height="20"
     width="20"
     transform="translate(10.886575,-4.4449901)"
     id="use3966"
     xlink:href="#path3187"
     y="0"
     x="0" /><use
     height="20"
     width="20"
     transform="translate(6.5407377,-0.265165)"
     id="use5182"
     xlink:href="#path3187"
     y="0"
     x="0" /><path
     transform="translate(-1.0606602,-1.2374369)"
     d="m 9.5459416,6.8301363 c 0,1.5620971 -1.2663299,2.8284271 -2.8284271,2.8284271 -1.5620971,0 -2.8284271,-1.26633 -2.8284271,-2.8284271 0,-1.5620971 1.26633,-2.8284271 2.8284271,-2.8284271 1.5620972,0 2.8284271,1.26633 2.8284271,2.8284271 z"
     sodipodi:ry="2.8284271"
     sodipodi:rx="2.8284271"
     sodipodi:cy="6.8301363"
     sodipodi:cx="6.7175145"
     id="path5184"
     style="fill:#ffffff;fill-opacity:1;stroke:#ffffff;stroke-width:0.5;stroke-linecap:square;stroke-linejoin:miter;stroke-miterlimit:4;stroke-opacity:1;stroke-dasharray:none;stroke-dashoffset:4.6"
     sodipodi:type="arc" /><path
     style="fill:none;stroke:#ffffff;stroke-width:0.80238014;stroke-linecap:square;stroke-linejoin:miter;stroke-miterlimit:4;stroke-opacity:1;stroke-dasharray:none"
     d="M 5.3448419,7.9607502 4.639719,14.54748"
     id="path3000"
     inkscape:connector-type="polyline"
     inkscape:connector-curvature="0" /></g></svg>