<?xml version="1.0" encoding="utf-8"?>
<!-- Generator: Adobe Illustrator 15.0.0, SVG Export Plug-In . SVG Version: 6.00 Build 0)  -->
<!DOCTYPE svg PUBLIC "-//W3C//DTD SVG 1.1//EN" "http://www.w3.org/Graphics/SVG/1.1/DTD/svg11.dtd">
<svg version="1.1" xmlns="http://www.w3.org/2000/svg" xmlns:xlink="http://www.w3.org/1999/xlink" x="0px" y="0px" width="580px"
	 height="580px" viewBox="0 0 580 580" enable-background="new 0 0 580 580" xml:space="preserve">
<g id="Layer_2">
	<g id="g1327">
		<path id="path1329" fill="#111111" stroke="#EEEEEE" stroke-width="3.408" d="M66.275,1.768
			c-41.335,0-64.571,21.371-64.571,65.036v450.123c0,40.844,20.894,62.229,62.192,62.229H515.92
			c41.307,0,62.229-20.316,62.229-62.229V66.804c0-42.601-20.923-65.036-63.522-65.036C514.624,1.768,66.133,1.625,66.275,1.768z"/>
	</g>
</g>
<g id="svg2" xmlns:inkscape="http://www.inkscape.org/namespaces/inkscape" xmlns:cc="http://creativecommons.org/ns#" xmlns:svg="http://www.w3.org/2000/svg" xmlns:dc="http://purl.org/dc/elements/1.1/" xmlns:rdf="http://www.w3.org/1999/02/22-rdf-syntax-ns#" xmlns:sodipodi="http://sodipodi.sourceforge.net/DTD/sodipodi-0.dtd" inkscape:output_extension="org.inkscape.output.svg.inkscape" sodipodi:docname="waste_bin.svg" sodipodi:version="0.32" inkscape:version="0.46">
	<g>
		<path fill="#FFFFFF" d="M406.918,128.326c10.395,0,19.441-3.752,27.145-11.258c7.697-7.507,11.549-16.646,11.549-27.417
			c0-10.784-3.852-19.928-11.549-27.435c-7.703-7.505-16.75-11.26-27.145-11.26c-10.773,0-19.912,3.755-27.416,11.26
			c-7.508,7.507-11.262,16.65-11.26,27.435c-0.002,10.771,3.752,19.91,11.26,27.417
			C387.006,124.574,396.145,128.326,406.918,128.326z"/>
		<path fill="#FFFFFF" d="M513.447,136.414c-4.041-3.852-8.758-5.779-14.146-5.779c-5.393,0-9.629,1.539-12.705,4.616
			l-49.654,49.671l-60.049-60.048c-4.617-4.629-10.389-6.943-17.32-6.943h-94.107c-5.781,0-10.785,2.314-15.015,6.943
			l-64.663,74.479c-4.617,3.841-6.927,8.65-6.926,14.43c-0.001,5.392,1.923,10.012,5.771,13.858
			c3.846,3.847,8.465,5.771,13.858,5.771c5.767,0,10.771-2.309,15.012-6.926l60.05-69.862l34.641,0.581L175.972,310.781
			l-89.492-0.582c-7.317,0-13.479,2.313-18.483,6.936c-5.004,4.621-7.506,10.586-7.506,17.893c0,6.93,2.502,12.799,7.506,17.611
			c5.004,4.809,10.973,7.215,17.902,7.215h104.505c4.238,0,8.085-0.383,11.542-1.146c8.854-1.537,15.017-4.234,18.481-8.088
			l165.136-161.082l36.949,36.948c3.852,3.842,8.281,5.763,13.285,5.763c6.543,0,12.891-2.884,19.047-8.65l60.049-60.05
			c3.078-3.854,4.615-8.088,4.617-12.704C519.508,145.077,517.488,140.267,513.447,136.414z"/>
		<path fill="#FFFFFF" d="M492.474,269.613c-5.004-4.623-11.166-6.934-18.484-6.934l-142.543,0.582l-57.445,49.073h200.57
			c6.93,0,12.898-2.406,17.902-7.217s7.506-10.682,7.506-17.612C499.979,280.201,497.478,274.234,492.474,269.613z"/>
		<polygon fill="#FFFFFF" points="395.574,341.553 378.927,341.553 378.927,514.045 332.577,514.045 332.577,529.043 
			439.071,529.043 439.071,514.045 395.574,514.045 		"/>
	</g>
</g>
</svg>
