<?xml version="1.0" encoding="utf-8"?>
<!-- Generator: Adobe Illustrator 15.0.0, SVG Export Plug-In . SVG Version: 6.00 Build 0)  -->
<!DOCTYPE svg PUBLIC "-//W3C//DTD SVG 1.1//EN" "http://www.w3.org/Graphics/SVG/1.1/DTD/svg11.dtd">
<svg version="1.1" xmlns="http://www.w3.org/2000/svg" xmlns:xlink="http://www.w3.org/1999/xlink" x="0px" y="0px" width="580px"
	 height="580px" viewBox="0 0 580 580" enable-background="new 0 0 580 580" xml:space="preserve">
<g id="Layer_2">
	<g id="g1327">
		<path id="path1329" fill="#111111" stroke="#EEEEEE" stroke-width="3.408" d="M66.275,1.768
			c-41.335,0-64.571,21.371-64.571,65.036v450.123c0,40.844,20.894,62.229,62.192,62.229H515.92
			c41.307,0,62.229-20.316,62.229-62.229V66.804c0-42.601-20.923-65.036-63.522-65.036C514.624,1.768,66.133,1.625,66.275,1.768z"/>
	</g>
</g>
<g id="svg2" inkscape:output_extension="org.inkscape.output.svg.inkscape" inkscape:version="0.46" sodipodi:docname="waste_bin.svg" sodipodi:version="0.32" xmlns:inkscape="http://www.inkscape.org/namespaces/inkscape" xmlns:rdf="http://www.w3.org/1999/02/22-rdf-syntax-ns#" xmlns:svg="http://www.w3.org/2000/svg" xmlns:sodipodi="http://sodipodi.sourceforge.net/DTD/sodipodi-0.dtd" xmlns:cc="http://creativecommons.org/ns#" xmlns:dc="http://purl.org/dc/elements/1.1/">
	<g>
		<path fill="#FFFFFF" d="M195.317,225.708c58.494,1.177,133.46,12.306,200.534,29.77c12.598,3.28,27.978,7.586,43.435,12.653
			c1.37-17.168,1.234-33.532-0.324-48.965c-0.784,0.018-1.569,0.035-2.35,0.035c-45.755,0-85.126-30.976-123.54-61.195
			c-35.904-28.246-73.033-57.453-114.906-60.947l0.113-1.364c-1.105,0.52-2.213,1.034-3.314,1.575
			c-51.642,25.348-90.302,69.29-108.858,123.73c-3.215,9.434-5.743,18.987-7.62,28.602
			C98.304,232.569,137.438,224.542,195.317,225.708z"/>
		<path fill="#FFFFFF" d="M483.314,195.396c-17.824-36.203-44.559-65.175-76.268-85.599c11.067,12.146,20.313,26.279,27.513,42.219
			c7.306,16.174,12.484,34.018,15.494,53.082c10.294-1.556,20.923-4.948,31.985-10.585l5.902,11.583
			c-12.538,6.39-24.577,10.218-36.194,11.965c1.802,17.354,1.884,35.59,0.208,54.405c21.693,7.752,42.042,16.893,53.333,26.668
			C506.813,263.644,499.438,228.143,483.314,195.396z"/>
		<path fill="#FFFFFF" d="M437.271,206.112c-9.766-61.228-43.4-105.953-96.172-124.657c-39.587-9.69-82.076-8.291-122.462,5.9
			c37.512,9.35,70.461,35.251,102.474,60.435C359.166,177.727,395.65,206.421,437.271,206.112z"/>
		<path fill="#FFFFFF" d="M282.885,359.906c58.133-22.934,109.007-42.997,144.812-28.761c4.724-16.338,8.189-33.055,10.239-49.722
			c-13.068-4.388-28.17-8.889-45.359-13.365c-66.146-17.222-139.984-28.195-197.521-29.353
			c-66.131-1.332-107.521,10.068-116.572,32.097l-2.934-1.205c-3.895,39.392,3.222,79.173,21.137,115.557l-3.927,1.934l0.139,0.281
			l3.924-1.938c2.548,5.156,5.281,10.16,8.18,15.019C161.076,407.939,225.737,382.45,282.885,359.906z"/>
		<path fill="#FFFFFF" d="M382.932,424.907c17.068-23.649,31.022-51.634,40.877-81.272c-31.308-12.993-82.338,7.134-136.153,28.364
			c-55.095,21.735-116.999,46.137-173.569,42.409c36.542,51.669,93.443,83.458,154.086,89.737l-0.376-3.073
			C322.336,494.407,360.511,455.975,382.932,424.907z"/>
		<path fill="#FFFFFF" d="M435.177,350.59c-10.217,29.843-24.436,57.998-41.704,81.926c-16.292,22.574-34.793,40.983-54.989,54.715
			c-10.659,7.247-21.675,13.094-32.967,17.529c26.903-1.899,53.875-8.892,79.52-21.479c29.976-14.713,55.565-35.7,75.4-61.36
			C458.01,386.434,449.728,362.998,435.177,350.59z"/>
		<path fill="#FFFFFF" d="M450.475,285.827c-2.29,17.315-6.043,34.66-11.092,51.597c17.439,12.201,28.144,34.6,32.511,68.143
			c9.017-14.246,16.422-29.651,21.999-46.014c5.162-15.146,8.59-30.596,10.308-46.119l-2.775,1.012
			C499.077,308.007,482.297,297.517,450.475,285.827z"/>
	</g>
</g>
</svg>
