<?xml version="1.0" encoding="utf-8"?>
<!-- Generator: Adobe Illustrator 15.0.0, SVG Export Plug-In . SVG Version: 6.00 Build 0)  -->
<!DOCTYPE svg PUBLIC "-//W3C//DTD SVG 1.1//EN" "http://www.w3.org/Graphics/SVG/1.1/DTD/svg11.dtd">
<svg version="1.1" xmlns="http://www.w3.org/2000/svg" xmlns:xlink="http://www.w3.org/1999/xlink" x="0px" y="0px" width="580px"
	 height="580px" viewBox="0 0 580 580" enable-background="new 0 0 580 580" xml:space="preserve">
<g id="Layer_2">
	<g id="g1327">
		<path id="path1329" fill="#111111" stroke="#EEEEEE" stroke-width="3.408" d="M66.275,1.768
			c-41.335,0-64.571,21.371-64.571,65.036v450.123c0,40.844,20.895,62.229,62.192,62.229H515.92
			c41.307,0,62.229-20.315,62.229-62.229V66.804c0-42.601-20.923-65.036-63.521-65.036C514.624,1.768,66.133,1.625,66.275,1.768z"/>
	</g>
</g>
<g id="svg2" xmlns:cc="http://creativecommons.org/ns#" xmlns:sodipodi="http://sodipodi.sourceforge.net/DTD/sodipodi-0.dtd" xmlns:svg="http://www.w3.org/2000/svg" xmlns:inkscape="http://www.inkscape.org/namespaces/inkscape" xmlns:rdf="http://www.w3.org/1999/02/22-rdf-syntax-ns#" xmlns:dc="http://purl.org/dc/elements/1.1/" sodipodi:version="0.32" inkscape:version="0.46" sodipodi:docname="amenity_atm.svg" inkscape:output_extension="org.inkscape.output.svg.inkscape" sodipodi:docbase="s:\Data\FacilityIcons" display="none">
	
		<sodipodi:namedview  id="base" inkscape:window-x="0" inkscape:current-layer="svg2" inkscape:pageshadow="2" inkscape:window-height="1005" inkscape:window-width="1280" inkscape:window-y="0" inkscape:pageopacity="0.0" gridtolerance="10.0" inkscape:cy="302.63451" inkscape:cx="285.84646" borderopacity="1.0" objecttolerance="10.0" pagecolor="#ffffff" inkscape:zoom="1.3034483" guidetolerance="10.0" bordercolor="#666666" showgrid="false">
		</sodipodi:namedview>
	<defs  display="inline">
		
		
			<inkscape:perspective  id="perspective2441" inkscape:vp_y="0 : 1000 : 0" inkscape:vp_x="0 : 290 : 1" inkscape:vp_z="580 : 290 : 1" sodipodi:type="inkscape:persp3d" inkscape:persp3d-origin="290 : 193.33333 : 1">
			</inkscape:perspective>
	</defs>
	
		<path id="rect3241" sodipodi:nodetypes="ccccccccc" display="inline" opacity="0.75" fill="#FFFFFF" stroke="#FFFFFF" stroke-width="35.845" stroke-linecap="round" stroke-linejoin="round" enable-background="new    " d="
		M103.979,82.413v62.924h112.403c7.778-20.622,12.715-34.171,13.042-36.067l190.991-1.647l14.588,37.714h69.613V82.413H103.979z"/>
	
		<path id="path2443" sodipodi:nodetypes="ccccccc" display="inline" fill="none" stroke="#FFFFFF" stroke-width="20" stroke-linejoin="round" d="
		M227.906,158.094l-40.375,0.375c-1.603,9.296-122.313,358.625-122.313,358.625l403.813-3.406l-15.594-40.313l-333.094,2.844
		C120.344,476.219,195.438,243.832,227.906,158.094z"/>
	
		<path id="path3243" sodipodi:nodetypes="ccccc" display="inline" fill="none" stroke="#FFFFFF" stroke-width="20" stroke-linejoin="round" d="
		M242.694,117.588c-1.603,9.296-122.338,358.618-122.338,358.618l403.838-3.412L401.652,116.069L242.694,117.588z"/>
	
		<path id="path3163" sodipodi:nodetypes="ccccc" display="inline" opacity="0.1" fill="#FFFFFF" stroke="#FFFFFF" stroke-width="20" stroke-linecap="round" stroke-linejoin="round" enable-background="new    " d="
		M242.694,117.588c-1.603,9.296-122.338,358.618-122.338,358.618l403.838-3.412L401.652,116.069L242.694,117.588z"/>
	
		<path id="path3165" sodipodi:nodetypes="ccccccc" display="inline" opacity="0.1" fill="#FFFFFF" stroke="#FFFFFF" stroke-width="20" stroke-linecap="round" stroke-linejoin="round" enable-background="new    " d="
		M227.906,158.094l-40.375,0.375c-1.603,9.296-122.313,358.625-122.313,358.625l403.813-3.406l-15.594-40.313l-333.094,2.844
		C120.344,476.219,195.438,243.832,227.906,158.094z"/>
	<g id="g4372" transform="translate(-130.0802,122.26983)" display="inline">
	</g>
	<g id="g4998" transform="translate(-133.14896,123.86039)" display="inline">
		<g id="g5004">
			<path id="text2413" fill="#FFFFFF" d="M465.402,153.84c0.229,0.097,1.086,0.291,2.572,0.581
				c23.434,3.872,41.037,10.938,52.811,21.199c11.773,10.26,17.661,23.715,17.661,40.364c0,17.036-6.459,31.798-19.376,44.285
				c-12.917,12.487-30.807,19.263-53.669,20.327v26.426h-18.347v-26.135c-23.32-2.227-41.209-8.64-53.669-19.238
				c-12.46-10.6-19.49-25.434-21.09-44.504l30.864-4.646c2.4,14.326,7.259,25.36,14.575,33.104
				c7.315,7.744,17.089,12.148,29.321,13.213V175.62c-23.205-4.26-40.581-11.374-52.126-21.344
				c-11.545-9.97-17.318-22.795-17.318-38.477c0-15.584,5.716-28.966,17.147-40.146s28.863-17.641,52.297-19.384V43.782h18.347
				v12.487c19.433,1.646,34.75,6.873,45.953,15.681c11.202,8.809,18.232,21.15,21.091,37.025l-32.064,3.92
				c-1.829-9.873-5.659-17.689-11.488-23.449c-5.83-5.759-13.66-9.462-23.491-11.107V153.84z M447.055,150.646V78.048
				c-12.46,1.839-22.006,6.074-28.635,12.705c-6.63,6.631-9.945,14.302-9.945,23.014c0,9.971,3.429,17.835,10.288,23.595
				C425.622,143.12,435.052,147.549,447.055,150.646L447.055,150.646z M465.402,258.817c12.003-1.549,21.891-5.977,29.664-13.285
				c7.772-7.309,11.659-16.528,11.659-27.66c0-9.776-2.943-17.641-8.83-23.594c-5.888-5.953-16.719-11.012-32.493-15.174V258.817z"
				/>
		</g>
		
			<path id="path4370" sodipodi:nodetypes="cc" fill="none" stroke="#FFFFFF" stroke-width="30" stroke-linecap="round" stroke-linejoin="round" d="
			M455.376,43.427v265.043"/>
	</g>
</g>
<g id="Layer_3" display="none">
	
		<image display="inline" overflow="visible" width="260" height="470" xlink:href="B185E4A5.jpg"  transform="matrix(1 0 0 1 656.5 0)">
	</image>
</g>
<g id="Layer_4">
	<g>
		<path fill="#FFFFFF" d="M101.067,154.256l124.681,110.68c1.234,1.096,2.58,1.983,3.991,2.68l66.268,92.467
			c0.66,2.077,1.61,4.1,2.875,6.006l92.012,138.683c4.621,6.964,12.248,10.735,20.023,10.735c4.557,0,9.166-1.297,13.248-4.005
			c11.046-7.329,14.06-22.225,6.73-33.271l-82.501-124.348l9.454-6.775l81.717,123.168c4.62,6.965,12.248,10.735,20.023,10.735
			c4.557,0,9.166-1.296,13.247-4.004c11.047-7.329,14.061-22.225,6.731-33.271l-92.01-138.683c-0.078-0.117-0.162-0.229-0.241-0.345
			c-0.419-0.791-0.874-1.569-1.41-2.317l-51.096-71.297l131.663,2.651c0.124,0.002,0.246,0.003,0.369,0.003
			c9.773,0,17.794-7.823,17.991-17.64c0.2-9.94-7.695-18.161-17.636-18.361l-166.687-3.357c-6.338-0.127-11.937,3.013-15.24,7.861
			l-11.577,8.296c12.077-15.876,13.001-38.376,0.774-55.437c-15.016-20.952-44.172-25.764-65.124-10.75
			c-13.497,9.673-20.283,25.213-19.399,40.648l-64.977-57.68c-7.436-6.6-18.814-5.924-25.414,1.512
			C92.955,136.277,93.632,147.655,101.067,154.256z M251.343,226.567l-8.069,5.782l-3.911-3.471
			C243.4,228.637,247.429,227.878,251.343,226.567z"/>
		<circle fill="#FFFFFF" cx="169.32" cy="92.561" r="43.061"/>
		<path fill="#FFFFFF" d="M558.405,518.638c-0.477-2.156-2.61-3.518-4.768-3.044c-11.932,2.633-45.628,7.847-58.101,0.464
			c-18.839-11.151-56.516-0.854-58.109-0.411l-0.403,0.112l-0.371,0.193c-0.403,0.209-40.587,20.711-69.455,0.283
			c-17.824-12.616-62.931-1.883-68.016-0.617l-0.261,0.074c-0.394,0.127-39.573,12.533-59.114,0.409
			c-32.706-20.292-68.651-2.112-72.181-0.232c-3.013,1.179-42.145,15.982-66.987,0.252c-20.692-13.104-76.625-1.047-78.997-0.528
			c-2.158,0.473-3.524,2.605-3.051,4.764c0.473,2.157,2.604,3.521,4.764,3.051c15.257-3.344,58.113-9.957,73.003-0.528
			c29.166,18.471,72.636,1.075,74.472,0.324l0.414-0.197c0.343-0.187,34.57-18.579,64.344-0.107
			c22.235,13.797,62.521,1.444,65.648,0.452c12.94-3.198,48.805-9.456,61.339-0.586c11.255,7.966,23.725,10.611,35.325,10.611
			c20.91,0,38.996-8.596,42.051-10.127c10.279-2.798,38.448-8.036,51.51-0.307c17.733,10.495,62.023,0.877,63.899,0.464
			C557.52,522.93,558.882,520.795,558.405,518.638z"/>
	</g>
</g>
</svg>
