<?xml version="1.0" encoding="UTF-8" standalone="no"?>
<!-- Generator: Adobe Illustrator 15.0.0, SVG Export Plug-In . SVG Version: 6.00 Build 0)  -->

<svg
   xmlns:dc="http://purl.org/dc/elements/1.1/"
   xmlns:cc="http://creativecommons.org/ns#"
   xmlns:rdf="http://www.w3.org/1999/02/22-rdf-syntax-ns#"
   xmlns:svg="http://www.w3.org/2000/svg"
   xmlns="http://www.w3.org/2000/svg"
   xmlns:sodipodi="http://sodipodi.sourceforge.net/DTD/sodipodi-0.dtd"
   xmlns:inkscape="http://www.inkscape.org/namespaces/inkscape"
   version="1.1"
   x="0px"
   y="0px"
   width="580px"
   height="580px"
   viewBox="0 0 580 580"
   enable-background="new 0 0 580 580"
   xml:space="preserve"
   id="svg881"
   sodipodi:docname="bike_park.svg"
   inkscape:version="0.92.3 (2405546, 2018-03-11)"><metadata
   id="metadata887"><rdf:RDF><cc:Work
       rdf:about=""><dc:format>image/svg+xml</dc:format><dc:type
         rdf:resource="http://purl.org/dc/dcmitype/StillImage" /><dc:title></dc:title></cc:Work></rdf:RDF></metadata><defs
   id="defs885" /><sodipodi:namedview
   pagecolor="#ffffff"
   bordercolor="#666666"
   borderopacity="1"
   objecttolerance="10"
   gridtolerance="10"
   guidetolerance="10"
   inkscape:pageopacity="0"
   inkscape:pageshadow="2"
   inkscape:window-width="1920"
   inkscape:window-height="1147"
   id="namedview883"
   showgrid="false"
   inkscape:zoom="1.2316035"
   inkscape:cx="246.65766"
   inkscape:cy="290"
   inkscape:window-x="-8"
   inkscape:window-y="-8"
   inkscape:window-maximized="1"
   inkscape:current-layer="svg881" />
<g
   id="Layer_2"
   transform="translate(0.81194959,-0.5683013)">
	<g
   id="g1327">
		<path
   id="path1329"
   d="M 66.275,1.768 C 24.94,1.768 1.704,23.139 1.704,66.804 v 450.123 c 0,40.844 20.894,62.229 62.192,62.229 H 515.92 c 41.307,0 62.229,-20.316 62.229,-62.229 V 66.804 c 0,-42.601 -20.923,-65.036 -63.522,-65.036 -0.003,0 -448.494,-0.143 -448.352,0 z"
   inkscape:connector-curvature="0"
   style="fill:#111111;stroke:#eeeeee;stroke-width:3.40799999" />
	</g>
</g>

<g
   id="g1661"
   transform="matrix(1.0837212,0,0,1.0837212,-54.354798,-24.267588)"><g
     transform="matrix(1.0689515,0,0,1.0689515,-6.0937906,-69.522101)"
     id="g1622"><path
       d="m 440.55119,171.59275 -0.41769,0.66145 -0.49602,0.56572 -0.32197,0.58311 -0.41769,0.66145 -0.49603,0.56572 -0.41769,0.66144 -0.41768,0.66144 -0.41769,0.66146 -0.41769,0.66144 -0.4177,0.66145 -0.32196,0.58311 -0.41769,0.66145 -0.41769,0.66144 -0.24363,0.67885 -0.32197,0.58311 -0.24363,0.67884 c -3.52407,7.99811 -2.47034,17.68424 2.56906,24.42856 5.76177,7.43178 17.00579,7.5006 25.12515,2.77441 5.16053,-3.26391 10.08593,-8.57296 13.5841,-13.67304 v 0 z"
       style="font-style:normal;font-variant:normal;font-weight:normal;font-stretch:normal;letter-spacing:normal;word-spacing:normal;text-anchor:start;fill:#ffffff;fill-opacity:1;fill-rule:nonzero;stroke:#ffffff;stroke-width:0;stroke-linecap:butt;stroke-linejoin:miter;stroke-miterlimit:10.43299961;stroke-dasharray:none;stroke-dashoffset:0;stroke-opacity:1"
       id="path18"
       inkscape:connector-curvature="0" /><path
       d="m 478.29666,192.32884 0.41768,-0.66144 0.4003,-0.48738 0.64392,-1.16622 0.72226,-1.0705 0.73964,-1.24456 0.64393,-1.16622 0.32197,-0.58311 0.32196,-0.58311 0.32196,-0.58311 0.32197,-0.58313 0.24363,-0.67883 0.32196,-0.58311 c 3.13253,-6.71876 3.25379,-14.96902 -0.602,-21.24345 -4.24744,-6.75307 -13.26374,-9.7636 -20.93076,-7.80492 v 0 l -29.71948,8.01737 z"
       style="font-style:normal;font-variant:normal;font-weight:normal;font-stretch:normal;letter-spacing:normal;word-spacing:normal;text-anchor:start;fill:#ffffff;fill-opacity:1;fill-rule:nonzero;stroke:#ffffff;stroke-width:0;stroke-linecap:butt;stroke-linejoin:miter;stroke-miterlimit:10.43299961;stroke-dasharray:none;stroke-dashoffset:0;stroke-opacity:1"
       id="path20"
       inkscape:connector-curvature="0" /><path
       inkscape:connector-curvature="0"
       style="font-style:normal;font-variant:normal;font-weight:normal;font-stretch:normal;letter-spacing:normal;word-spacing:normal;text-anchor:start;fill:#ffffff;fill-opacity:1;fill-rule:nonzero;stroke:#ffffff;stroke-width:0;stroke-linecap:butt;stroke-linejoin:miter;stroke-miterlimit:10.43299961;stroke-dasharray:none;stroke-dashoffset:0;stroke-opacity:1"
       d="m 420.76931,166.92981 c -0.68133,-0.82157 -1.41469,-1.58717 -2.20233,-2.28117 -5.40478,-4.84706 -13.36665,-6.96057 -20.63351,-7.24725 -10.65226,-0.71287 -21.78409,0.72321 -31.80958,2.5341 l -2.67927,0.43596 -2.6041,0.5309 -5.47259,1.12421 -5.30067,1.14001 -5.31675,1.31468 -5.33404,1.48782 -2.62016,0.70557 -2.63747,0.87873 -2.53949,0.80106 -2.63747,0.87873 -2.54224,0.8008 -2.46308,0.89753 c -9.83392,3.41219 -19.13719,7.66809 -27.90925,12.76855 -3.62893,2.0106 -7.11677,4.38603 -9.88405,7.44962 -3.34162,3.53358 -5.31712,8.3463 -6.07391,13.28084 l -8.76858,52.56664 -26.1244,15.14403 c -10.51398,-14.41107 -24.8148,-23.48728 -42.19448,-26.36667 -17.63208,-2.99253 -34.07169,0.55072 -48.52632,10.62087 -28.9702,19.87053 -37.32899,60.43495 -17.64114,90.35376 24.2486,37.05478 77.37007,40.25423 105.73877,6.1721 l 36.03187,22.93748 99.35482,-45.18278 -4.12263,23.67167 c -8.88554,0.079 -17.59672,1.9338 -25.67269,5.34586 -24.35835,10.66264 -40.6654,36.63311 -39.46254,63.29839 1.35953,26.85672 20.27172,51.33475 45.2058,59.53972 8.51154,2.78429 17.3883,3.67135 26.16936,2.87877 16.13489,-1.37617 30.16256,-8.06022 41.35352,-19.77497 22.63432,-23.31638 24.40864,-60.40767 4.55576,-86.036 -9.9743,-12.775 -23.31755,-20.87641 -39.26998,-23.96476 l 1.83699,-10.45227 8.55035,-54.78556 23.54157,4.5496 c -0.6438,2.92417 -0.30464,5.68389 0.8269,8.4339 3.42947,7.9019 15.14447,10.30374 21.53191,4.4376 6.69202,-6.27518 5.2376,-17.23238 -2.83022,-21.81819 l -11.52994,-97.48675 c -0.89146,-7.24174 -3.12796,-15.83001 -7.89474,-21.58313 z m -14.55777,42.19202 10.79632,71.39638 -31.38157,-6.12417 -3.42672,25.49975 -30.70631,-18.18735 10.16654,-10.23476 -24.73869,-48.0023 z m -26.23848,104.26098 -0.16569,2.5331 -98.83536,45.2347 -30.50397,-19.3094 0.96595,-1.74945 0.96595,-1.74944 0.79129,-1.76551 0.71364,-1.86348 0.71486,-1.86198 0.71213,-1.86224 0.54049,-1.88079 0.53897,-1.87955 0.46104,-1.97478 0.36458,-1.89836 0.36582,-1.89686 0.28789,-1.99208 0.19144,-1.91566 0.28514,-1.99236 0.0183,-1.93298 0.11199,-2.00965 c 0.0863,-9.66011 -2.18546,-19.46788 -6.58969,-28.17037 l 17.27453,-10.14072 -5.94862,59.52862 c -0.45222,4.52549 1.22084,8.91111 4.59773,12.06129 5.68332,5.57808 14.91588,5.53506 20.51136,-0.32232 l 53.28423,-53.83104 z m -67.79164,-68.38942 14.26477,21.72833 -18.47628,-11.25104 z m 5.73708,31.42456 -32.97207,38.80711 18.16021,-47.14369 z m 90.63008,110.75416 0.78296,0.95681 0.70503,0.86158 0.70504,0.86158 0.78419,0.95832 0.70503,0.86158 0.68774,1.03473 c 14.29144,20.58981 9.72379,49.57913 -10.58747,64.60159 -19.7543,14.72652 -48.26435,11.52499 -64.25269,-7.03694 -15.64023,-18.52713 -14.69344,-46.47183 2.07563,-63.8699 8.59774,-8.63377 19.18922,-13.46425 31.19902,-14.02207 l -6.11579,40.96479 4.90862,10.68637 c 1.74082,3.68986 6.43135,5.1265 9.90362,2.92445 2.81957,-1.82779 3.80381,-5.50959 2.51559,-8.45104 l -3.66479,-8.18869 4.41892,-37.17871 1.20026,0.29483 1.02559,0.27875 1.2015,0.29633 1.10627,0.37426 1.0271,0.27752 1.10476,0.37549 1.10504,0.37275 1.00952,0.45342 1.10627,0.37426 1.00829,0.45191 1.08897,0.54741 0.9143,0.53133 1.0083,0.45192 0.99222,0.62657 0.9143,0.53134 0.99223,0.62657 0.81907,0.60928 0.99223,0.62656 0.89549,0.70574 0.81784,0.60775 0.80026,0.78366 0.89699,0.7045 0.80026,0.78365 0.80178,0.78243 0.80026,0.78365 z m -180.86802,-107.55343 1.25298,1.53121 -39.63202,21.88178 c -2.8022,1.65372 -4.58542,4.55248 -4.37633,7.73769 0.16555,2.74137 1.58429,5.25449 3.88195,6.89045 l 39.03401,25.43738 c -12.25257,13.54241 -31.81643,19.32268 -49.88383,13.64974 -17.64096,-5.54243 -30.9139,-21.37193 -33.10831,-39.87392 -2.29902,-20.97357 9.57091,-41.23595 28.58592,-49.44403 l 1.82807,-0.6959 1.82684,-0.6974 1.80925,-0.52151 1.81077,-0.52274 1.88841,-0.42477 1.87139,-0.25436 1.87111,-0.25161 1.86987,-0.25313 1.85381,-0.0785 1.93297,0.0183 1.93173,0.0168 1.83651,0.0947 1.91416,0.19267 1.82044,0.26935 1.89562,0.36431 1.89685,0.36581 1.88079,0.54049 1.70639,0.52167 1.86074,0.71336 1.78556,0.6184 1.76551,0.79129 1.67152,0.87073 1.67028,0.8692 1.65421,1.04387 1.5763,0.94866 1.55747,1.12302 1.6354,1.21827 1.46225,1.20096 1.36702,1.27889 1.44495,1.3741 z m 8.21554,12.77535 c 2.84622,5.82197 4.30919,12.29614 4.17043,18.96249 0.0788,7.12759 -1.69629,14.33405 -5.23786,20.74825 l -20.40979,-13.0279 -9.68602,-5.977 c -0.56572,-0.49602 -0.93953,-1.14924 -0.69589,-1.82807 0.0348,-0.34811 0.33899,-0.75774 0.70449,-0.897 z"
       id="path24" /></g><g
     transform="matrix(0.89801133,0,0,1.0689515,51.228466,-69.522101)"
     id="g1633"><rect
       style="color:#000000;display:inline;overflow:visible;visibility:visible;opacity:1;fill:#ffffff;fill-opacity:1;fill-rule:nonzero;stroke:none;stroke-width:0.1;stroke-linecap:round;stroke-linejoin:round;stroke-miterlimit:10.43299961;stroke-dasharray:none;stroke-opacity:1;marker:none;enable-background:accumulate"
       id="rect1624"
       width="196.49181"
       height="45.469177"
       x="50.340881"
       y="382.69623" /><rect
       y="428.16541"
       x="50.340881"
       height="45.469177"
       width="237.08929"
       id="rect1626"
       style="color:#000000;display:inline;overflow:visible;visibility:visible;opacity:1;fill:#ffffff;fill-opacity:1;fill-rule:nonzero;stroke:none;stroke-width:0.10984587;stroke-linecap:round;stroke-linejoin:round;stroke-miterlimit:10.43299961;stroke-dasharray:none;stroke-opacity:1;marker:none;enable-background:accumulate" /><rect
       style="color:#000000;display:inline;overflow:visible;visibility:visible;opacity:1;fill:#ffffff;fill-opacity:1;fill-rule:nonzero;stroke:none;stroke-width:0.1204331;stroke-linecap:round;stroke-linejoin:round;stroke-miterlimit:10.43299961;stroke-dasharray:none;stroke-opacity:1;marker:none;enable-background:accumulate"
       id="rect1628"
       width="284.99432"
       height="45.469177"
       x="50.340881"
       y="473.63458" /></g></g></svg>