<?xml version="1.0" encoding="UTF-8" standalone="no"?>
<!-- Generator: Adobe Illustrator 15.0.0, SVG Export Plug-In . SVG Version: 6.00 Build 0)  -->

<svg
   xmlns:osb="http://www.openswatchbook.org/uri/2009/osb"
   xmlns:dc="http://purl.org/dc/elements/1.1/"
   xmlns:cc="http://creativecommons.org/ns#"
   xmlns:rdf="http://www.w3.org/1999/02/22-rdf-syntax-ns#"
   xmlns:svg="http://www.w3.org/2000/svg"
   xmlns="http://www.w3.org/2000/svg"
   xmlns:xlink="http://www.w3.org/1999/xlink"
   xmlns:sodipodi="http://sodipodi.sourceforge.net/DTD/sodipodi-0.dtd"
   xmlns:inkscape="http://www.inkscape.org/namespaces/inkscape"
   version="1.1"
   x="0px"
   y="0px"
   width="580px"
   height="580px"
   viewBox="0 0 580 580"
   enable-background="new 0 0 580 580"
   xml:space="preserve"
   id="svg2"
   inkscape:version="0.48.4 r9939"
   sodipodi:docname="billards_sp.svg"><metadata
   id="metadata47"><rdf:RDF><cc:Work
       rdf:about=""><dc:format>image/svg+xml</dc:format><dc:type
         rdf:resource="http://purl.org/dc/dcmitype/StillImage" /><dc:title></dc:title></cc:Work></rdf:RDF></metadata><defs
   id="defs45"><linearGradient
   id="linearGradient5239"
   osb:paint="solid"><stop
     style="stop-color:#ff0000;stop-opacity:1;"
     offset="0"
     id="stop5241" /></linearGradient>
	
	
	
<linearGradient
   inkscape:collect="always"
   xlink:href="#linearGradient5239"
   id="linearGradient5243"
   x1="54.106"
   y1="392.046"
   x2="309.094"
   y2="392.046"
   gradientUnits="userSpaceOnUse" /><linearGradient
   inkscape:collect="always"
   xlink:href="#linearGradient5239"
   id="linearGradient5245"
   x1="298.391"
   y1="157.95843"
   x2="553.25937"
   y2="157.95843"
   gradientUnits="userSpaceOnUse" />
	

		
	</defs><sodipodi:namedview
   pagecolor="#ffffff"
   bordercolor="#666666"
   borderopacity="1"
   objecttolerance="10"
   gridtolerance="10"
   guidetolerance="10"
   inkscape:pageopacity="0"
   inkscape:pageshadow="2"
   inkscape:window-width="1311"
   inkscape:window-height="993"
   id="namedview43"
   showgrid="false"
   inkscape:zoom="0.97"
   inkscape:cx="192.93584"
   inkscape:cy="290"
   inkscape:window-x="555"
   inkscape:window-y="24"
   inkscape:window-maximized="0"
   inkscape:current-layer="svg2" />


<g
   id="g5293"><path
     style="fill:#111111;stroke:#eeeeee;stroke-width:3.40799999"
     inkscape:connector-curvature="0"
     d="M 66.275,1.768 C 24.94,1.768 1.704,23.139 1.704,66.804 v 450.123 c 0,40.844 20.894,62.229 62.192,62.229 H 515.92 c 41.307,0 62.229,-20.316 62.229,-62.229 V 66.804 c 0,-42.601 -20.923,-65.036 -63.522,-65.036 -0.003,0 -448.494,-0.143 -448.352,0 z"
     id="path1329" /><path
     transform="matrix(1.2165138,0,0,1.2165138,-145.83277,-143.41581)"
     d="m 514.96802,356.63058 a 156.76471,156.76471 0 1 1 -313.52942,0 156.76471,156.76471 0 1 1 313.52942,0 z"
     sodipodi:ry="156.76471"
     sodipodi:rx="156.76471"
     sodipodi:cy="356.63058"
     sodipodi:cx="358.20331"
     id="path5268"
     style="fill:#ffffff;fill-opacity:1;fill-rule:nonzero;stroke:#ffffff;stroke-width:9.10000038;stroke-linecap:square;stroke-linejoin:round;stroke-miterlimit:4;stroke-opacity:1;stroke-dasharray:none"
     sodipodi:type="arc" /><path
     transform="matrix(1.1577259,0,0,1.1577259,-91.235221,-45.432123)"
     d="m 414.24871,241.69687 a 72.696587,72.696587 0 1 1 -145.39317,0 72.696587,72.696587 0 1 1 145.39317,0 z"
     sodipodi:ry="72.696587"
     sodipodi:rx="72.696587"
     sodipodi:cy="241.69687"
     sodipodi:cx="341.55212"
     id="path5272"
     style="fill:#000000;fill-opacity:1;fill-rule:nonzero;stroke:#000000;stroke-width:9.10000038000000090;stroke-linecap:square;stroke-linejoin:round;stroke-miterlimit:4;stroke-opacity:1;stroke-dasharray:none"
     sodipodi:type="arc" /><path
     d="m 292.20581,223.81999 c -3.98682,-3.78079 -6.42742,-7.7716 -7.3218,-11.97244 -0.89445,-4.20072 -0.37296,-8.54232 1.56447,-13.02482 2.92434,-6.76584 7.81413,-11.4025 14.66943,-13.90998 6.85517,-2.50731 14.3212,-2.01551 22.39809,1.47538 8.11903,3.50933 13.63341,8.69069 16.54315,15.54407 2.90957,6.85349 2.90221,13.66319 -0.0221,20.42906 -1.86438,4.31331 -4.61767,7.57737 -8.2599,9.79217 -3.64237,2.21486 -8.14283,3.19305 -13.50141,2.93455 4.90446,4.32809 7.95177,9.20848 9.14189,14.64113 1.18997,5.4327 0.54215,11.02457 -1.94349,16.77558 -3.43622,7.94996 -9.13613,13.41586 -17.09973,16.39772 -7.96373,2.98184 -16.53371,2.48967 -25.70995,-1.4765 -9.17632,-3.9662 -15.40222,-9.88167 -18.67773,-17.74642 -3.27556,-7.86478 -3.15869,-15.85671 0.35058,-23.97584 2.61364,-6.04701 6.33524,-10.44833 11.16484,-13.20395 4.82956,-2.75555 10.39741,-3.6488 16.70363,-2.67971 z m 6.07839,-20.3333 c -1.9009,4.39791 -2.03785,8.6046 -0.41088,12.62007 1.62687,4.01558 4.70269,7.00118 9.22746,8.95681 4.39779,1.90089 8.60134,2.07413 12.61064,0.51974 4.0092,-1.55433 6.88198,-4.34014 8.61842,-8.35745 1.80936,-4.18636 1.88262,-8.33274 0.21976,-12.43918 -1.66301,-4.1063 -4.65111,-7.09165 -8.96431,-8.956 -4.35563,-1.8825 -8.57433,-2.04974 -12.65608,-0.50172 -4.08189,1.54815 -6.96355,4.26739 -8.64501,8.15773 z m -22.23963,41.35236 c -1.40739,3.25612 -1.99731,6.74006 -1.76978,10.45183 0.22748,3.7118 1.50259,7.06086 3.82533,10.04716 2.32269,2.98631 5.23895,5.23797 8.74881,6.75498 5.45498,2.35778 10.71706,2.5494 15.78624,0.57488 5.06906,-1.97454 8.77337,-5.66816 11.11295,-11.0809 2.37598,-5.49731 2.51188,-10.83366 0.40769,-16.00906 -2.10431,-5.17535 -5.90509,-8.95109 -11.40234,-11.32716 -5.37051,-2.3212 -10.58885,-2.46883 -15.65509,-0.44291 -5.0663,2.02598 -8.7509,5.70304 -11.05381,11.03118 z"
     style="font-size:64px;font-style:normal;font-weight:normal;line-height:125%;letter-spacing:0px;word-spacing:0px;fill:#ffffff;fill-opacity:1;stroke:none;font-family:Sans"
     id="path5289"
     inkscape:connector-curvature="0" /></g></svg>