<?xml version="1.0" encoding="UTF-8" standalone="no"?>
<!-- Generator: Adobe Illustrator 15.0.0, SVG Export Plug-In . SVG Version: 6.00 Build 0)  -->

<svg
   xmlns:osb="http://www.openswatchbook.org/uri/2009/osb"
   xmlns:dc="http://purl.org/dc/elements/1.1/"
   xmlns:cc="http://creativecommons.org/ns#"
   xmlns:rdf="http://www.w3.org/1999/02/22-rdf-syntax-ns#"
   xmlns:svg="http://www.w3.org/2000/svg"
   xmlns="http://www.w3.org/2000/svg"
   xmlns:xlink="http://www.w3.org/1999/xlink"
   xmlns:sodipodi="http://sodipodi.sourceforge.net/DTD/sodipodi-0.dtd"
   xmlns:inkscape="http://www.inkscape.org/namespaces/inkscape"
   version="1.1"
   x="0px"
   y="0px"
   width="580px"
   height="580px"
   viewBox="0 0 580 580"
   enable-background="new 0 0 580 580"
   xml:space="preserve"
   id="svg2"
   inkscape:version="0.48.4 r9939"
   sodipodi:docname="billards_sp.svg"><metadata
   id="metadata47"><rdf:RDF><cc:Work
       rdf:about=""><dc:format>image/svg+xml</dc:format><dc:type
         rdf:resource="http://purl.org/dc/dcmitype/StillImage" /><dc:title></dc:title></cc:Work></rdf:RDF></metadata><defs
   id="defs45"><linearGradient
   id="linearGradient5239"
   osb:paint="solid"><stop
     style="stop-color:#ff0000;stop-opacity:1;"
     offset="0"
     id="stop5241" /></linearGradient>
	
	
	
<linearGradient
   inkscape:collect="always"
   xlink:href="#linearGradient5239"
   id="linearGradient5243"
   x1="54.106"
   y1="392.046"
   x2="309.094"
   y2="392.046"
   gradientUnits="userSpaceOnUse" /><linearGradient
   inkscape:collect="always"
   xlink:href="#linearGradient5239"
   id="linearGradient5245"
   x1="298.391"
   y1="157.95843"
   x2="553.25937"
   y2="157.95843"
   gradientUnits="userSpaceOnUse" />
	
</defs><sodipodi:namedview
   pagecolor="#ffffff"
   bordercolor="#666666"
   borderopacity="1"
   objecttolerance="10"
   gridtolerance="10"
   guidetolerance="10"
   inkscape:pageopacity="0"
   inkscape:pageshadow="2"
   inkscape:window-width="1311"
   inkscape:window-height="993"
   id="namedview43"
   showgrid="false"
   inkscape:zoom="0.97"
   inkscape:cx="192.93584"
   inkscape:cy="290"
   inkscape:window-x="555"
   inkscape:window-y="24"
   inkscape:window-maximized="0"
   inkscape:current-layer="svg2" />
<g
   id="g1327">
		<path
   style="fill:#111111;stroke:#eeeeee;stroke-width:3.40799999"
   inkscape:connector-curvature="0"
   d="M 66.275,1.768 C 24.94,1.768 1.704,23.139 1.704,66.804 v 450.123 c 0,40.844 20.894,62.229 62.192,62.229 H 515.92 c 41.307,0 62.229,-20.316 62.229,-62.229 V 66.804 c 0,-42.601 -20.923,-65.036 -63.522,-65.036 -0.003,0 -448.494,-0.143 -448.352,0 z"
   id="path1329" />
	</g>

<path
   sodipodi:type="arc"
   style="fill:#ffffff;fill-opacity:1;fill-rule:nonzero;stroke:#ffffff;stroke-width:9.10000038;stroke-linecap:square;stroke-linejoin:round;stroke-miterlimit:4;stroke-opacity:1;stroke-dasharray:none"
   id="path5268"
   sodipodi:cx="358.20331"
   sodipodi:cy="356.63058"
   sodipodi:rx="156.76471"
   sodipodi:ry="156.76471"
   d="m 514.96802,356.63058 a 156.76471,156.76471 0 1 1 -313.52942,0 156.76471,156.76471 0 1 1 313.52942,0 z"
   transform="matrix(1.2165138,0,0,1.2165138,-145.83277,-143.41581)" /><path
   sodipodi:type="arc"
   style="fill:#000000;fill-opacity:1;fill-rule:nonzero;stroke:#000000;stroke-width:9.10000038000000090;stroke-linecap:square;stroke-linejoin:round;stroke-miterlimit:4;stroke-opacity:1;stroke-dasharray:none"
   id="path5272"
   sodipodi:cx="341.55212"
   sodipodi:cy="241.69687"
   sodipodi:rx="72.696587"
   sodipodi:ry="72.696587"
   d="m 414.24871,241.69687 a 72.696587,72.696587 0 1 1 -145.39317,0 72.696587,72.696587 0 1 1 145.39317,0 z"
   transform="matrix(1.1577259,0,0,1.1577259,-91.235221,-45.432123)" /><g
   transform="matrix(2.0297777,0.87731306,-0.87731306,2.0297777,-99.330509,-486.09292)"
   style="font-size:64px;font-style:normal;font-weight:normal;line-height:125%;letter-spacing:0px;word-spacing:0px;fill:#ffffff;fill-opacity:1;stroke:none;font-family:Sans"
   id="flowRoot5274"><path
     d="m 289.90625,224.44545 c -2.33334,-0.85414 -4.06251,-2.07289 -5.1875,-3.65625 -1.125,-1.5833 -1.6875,-3.47913 -1.6875,-5.6875 0,-3.33329 1.19791,-6.13537 3.59375,-8.40625 2.39582,-2.27079 5.58332,-3.4062 9.5625,-3.40625 3.99998,5e-5 7.21873,1.16151 9.65625,3.48438 2.43747,2.32295 3.65622,5.15108 3.65625,8.48437 -3e-5,2.12503 -0.55732,3.97399 -1.67188,5.54688 -1.11461,1.57294 -2.80731,2.78648 -5.07812,3.64062 2.81247,0.91669 4.9531,2.39586 6.42187,4.4375 1.46872,2.04169 2.2031,4.47919 2.20313,7.3125 -3e-5,3.91668 -1.38545,7.20834 -4.15625,9.875 -2.77086,2.66667 -6.41669,4 -10.9375,4 -4.52085,0 -8.16668,-1.33854 -10.9375,-4.01562 -2.77084,-2.67708 -4.15625,-6.01562 -4.15625,-10.01563 0,-2.97915 0.7552,-5.47394 2.26562,-7.48437 1.51042,-2.0104 3.66145,-3.38019 6.45313,-4.10938 z m -1.125,-9.53125 c -10e-6,2.1667 0.69791,3.93753 2.09375,5.3125 1.39582,1.37503 3.20832,2.06253 5.4375,2.0625 2.16665,3e-5 3.94269,-0.68226 5.32812,-2.04687 1.3854,-1.36456 2.0781,-3.03643 2.07813,-5.01563 -3e-5,-2.06246 -0.71357,-3.79683 -2.14063,-5.20312 -1.4271,-1.40621 -3.20314,-2.10934 -5.32812,-2.10938 -2.14585,4e-5 -3.9271,0.68754 -5.34375,2.0625 -1.41668,1.37504 -2.12501,3.02087 -2.125,4.9375 z m -1.8125,21.15625 c -10e-6,1.60418 0.3802,3.15626 1.14062,4.65625 0.76041,1.50001 1.89062,2.66147 3.39063,3.48438 1.49999,0.82292 3.11457,1.23438 4.84375,1.23437 2.68748,1e-5 4.90623,-0.86458 6.65625,-2.59375 1.74997,-1.72916 2.62497,-3.92707 2.625,-6.59375 -3e-5,-2.70832 -0.90107,-4.9479 -2.70313,-6.71875 -1.8021,-1.77081 -4.05731,-2.65623 -6.76562,-2.65625 -2.64585,2e-5 -4.83855,0.87502 -6.57813,2.625 -1.73959,1.75002 -2.60938,3.93752 -2.60937,6.5625 z"
     style=""
     id="path5289" /></g></svg>