<?xml version="1.0" encoding="utf-8"?>
<!-- Generator: Adobe Illustrator 15.0.0, SVG Export Plug-In . SVG Version: 6.00 Build 0)  -->
<!DOCTYPE svg PUBLIC "-//W3C//DTD SVG 1.1//EN" "http://www.w3.org/Graphics/SVG/1.1/DTD/svg11.dtd">
<svg version="1.1" xmlns="http://www.w3.org/2000/svg" xmlns:xlink="http://www.w3.org/1999/xlink" x="0px" y="0px" width="580px"
	 height="580px" viewBox="0 0 580 580" enable-background="new 0 0 580 580" xml:space="preserve">
<g id="Layer_2">
	<g id="g1327">
		<path id="path1329" fill="#111111" stroke="#EEEEEE" stroke-width="3.408" d="M66.275,1.768
			c-41.335,0-64.571,21.371-64.571,65.036v450.123c0,40.844,20.894,62.229,62.192,62.229H515.92
			c41.307,0,62.229-20.316,62.229-62.229V66.804c0-42.601-20.923-65.036-63.522-65.036C514.624,1.768,66.133,1.625,66.275,1.768z"/>
	</g>
</g>
<g id="svg2" inkscape:output_extension="org.inkscape.output.svg.inkscape" xmlns:cc="http://creativecommons.org/ns#" xmlns:svg="http://www.w3.org/2000/svg" xmlns:sodipodi="http://sodipodi.sourceforge.net/DTD/sodipodi-0.dtd" xmlns:rdf="http://www.w3.org/1999/02/22-rdf-syntax-ns#" xmlns:dc="http://purl.org/dc/elements/1.1/" xmlns:inkscape="http://www.inkscape.org/namespaces/inkscape" sodipodi:docname="waste_bin.svg" inkscape:version="0.46" sodipodi:version="0.32">
	<g>
		<g>
			<path fill="#FFFFFF" d="M251.36,425.497c7.065,6.875,19.582,5.951,26.64,3.67c6.886-2.559,15.196-5.35,14.806-17.713
				c-0.739-12.586-6.546-116.459-17.521-146.277l-82.008-15.197l31.291-63.077c10.516,8.322,19.127,15.129,26.508,20.182
				c7.037,5.038,9.796,9.394,16.984,10.006c6.977,0.414,13.405-2.668,26.113-7.142c12.724-4.413,40.926-12.223,49.809-19.587
				c8.456-7.623,5.225-20.285,1.923-25.203c-3.385-4.959-10.857-5.811-21.83-3.793c-11.32,2.003-26.214,7.247-45.167,15.901
				c-16.763-15.005-30.406-26.395-41.495-34.994c-11.189-8.495-15.95-12.9-24.459-15.917c-8.981-3.191-18.95-5.695-27.442-2.841
				c-8.454,2.771-13.823,6.916-22.674,20.006c-9.074,13.238-22.466,41.184-30.697,58.361c-8.4,16.896-15.222,30.707-18.487,42.583
				c-3.371,11.776-4.142,19.291-0.981,27.88c3.163,8.588,8.819,16.707,19.762,22.555c10.73,5.447,26.169,7.186,44.686,10.301
				c18.399,3.156,39.679,5.775,64.996,8.203L251.36,425.497z"/>
			<path fill="#FFFFFF" d="M176.116,109.549c32.738-11.609,53.418,3.292,70.952,25.113l20.658,6.285l4.9-31.744l-34.722-10.575
				l4.081-25.159l35.246,11.895c1.012-23.1-10.904-41.853-42.242-51.805c-20.388-1.848-41.706-4.181-59.845,31.575
				C169.196,79.52,168.94,95.007,176.116,109.549z"/>
		</g>
		<path fill="#FFFFFF" d="M431.402,277.818c-12.362,3.041-23.546,8.403-33.239,15.487c-1.366-2.371-2.745-4.765-4.129-7.165
			c-7.666-13.301-15.465-26.802-21.941-37.809c-6.382-10.842-11.396-17.253-13.735-22.178c-1.821-3.838,3.387-4.75,7.675-10.575
			c3.239-4.397,5.286-10.985,4.908-17.084c-0.382-5.352-2.743-10.242-6.17-13.879c-11.414-10.632-19.449-8.402-30.157-5.768
			c-14.08,3.464-37.318,9.181-37.317,9.182l5.713,22.844l35.82-8.734c4.275-1.043,7.968,4.419,0.192,8.81
			c-3.41,1.912-6.413,7.272-6.449,13.007c-0.036,5.733,2.31,10.867,5.529,15.365c0.743,1.033,2.507,4.336,5.033,8.945
			l-162.337,40.809l-15.378-21.135c10.227-5.144-54.03-9.027-54.03-9.027c5.651,18.454,21.318,18.912,29.557,18.192l15.026,20.65
			c-0.804,1.077-1.415,2.31-1.763,3.655l-14.712,56.978c-11.764-1.718-24.035-1.261-36.271,1.75
			c-50.846,12.509-82.035,64.051-69.527,114.896c12.509,50.847,64.052,82.036,114.898,69.527
			c47.905-11.786,78.346-58.223,71.247-106.078l2.96-0.729c5.623,9.708,15.482,16.47,26.816,18.73l-1.33,8.006l-16.033,4.101
			c-3.435,0.879-5.508,4.376-4.629,7.813c0.874,3.416,4.336,5.484,7.753,4.644c0.02-0.005,0.038-0.01,0.058-0.015l35.99-9.204
			c3.435-0.879,5.509-4.376,4.629-7.813c-0.873-3.415-4.336-5.484-7.753-4.644c-0.019,0.005-0.039,0.01-0.059,0.015l-10.225,2.614
			l0.78-4.695c3.22-0.058,6.491-0.464,9.764-1.27c22.244-5.472,36.166-26.888,31.036-47.739c-1.131-4.599-3.097-8.789-5.712-12.473
			l81.918-90.916c1.246,2.164,2.482,4.315,3.702,6.438c-17.431,22.203-24.885,51.894-17.634,81.367
			c12.509,50.846,64.05,82.034,114.897,69.525c50.845-12.509,82.036-64.051,69.527-114.896S482.247,265.31,431.402,277.818z
			 M353.984,267.22c3.384,5.786,7.029,12.064,10.776,18.538l-87.289,96.878c-1.908-0.829-3.89-1.517-5.929-2.061l1.372-8.255
			l16.104-4.118c3.436-0.879,5.508-4.376,4.629-7.813c-0.873-3.416-4.336-5.484-7.754-4.644c-0.02,0.005-0.037,0.01-0.058,0.015
			l-35.989,9.205c-3.437,0.878-5.509,4.375-4.63,7.812c0.874,3.416,4.336,5.484,7.753,4.644c0.019-0.005,0.038-0.01,0.058-0.015
			l10.155-2.597l-0.724,4.36c-4.09-0.186-8.295,0.204-12.5,1.238c-0.761,0.187-1.51,0.397-2.251,0.62l-53.574-73.626L353.984,267.22
			z M171.396,318.952l55.342,76.056c-5.188,6.387-8.342,14.158-8.807,22.294l-3.456,0.851
			c-9.877-25.631-30.141-45.022-54.639-54.438L171.396,318.952z M183.004,425.895l-41.886,10.305l10.635-41.182
			C165.272,401.129,176.54,411.931,183.004,425.895z M140.944,513.458c-33.695,8.29-67.852-12.378-76.142-46.074
			c-8.29-33.696,12.38-67.854,46.075-76.143c6.904-1.698,13.824-2.163,20.54-1.566l-15.057,58.309
			c-0.925,3.583,0.102,7.388,2.703,10.02c2.602,2.632,6.395,3.701,9.988,2.817l59.481-14.633
			C191.566,476.812,171.68,505.896,140.944,513.458z M469.122,431.138c-33.698,8.29-67.854-12.379-76.143-46.074
			c-3.652-14.848-1.677-29.781,4.552-42.557c1.292,2.198,2.465,4.178,3.493,5.901c2.039,3.424,3.125,5.357,4.659,7.476l0.638,0.88
			l0.797,0.744c0.58,0.563,7.484,11.041,20.843,17.79l0.108,0.037l0.083,0.077c9.544,4.615,16.959,5.288,21.614,5.597
			c4.893,0.279,10.938-1.97,12.803-7.385c1.547-4.017-2.266-10.44-7.604-12.616c-2.089-0.807-8.229-3.622-15.895-7.592
			c-6.862-3.64-8.266-7.371-13.071-12.449c0.131,0.17-1.455-2.276-3.354-5.463c-1.949-3.27-4.518-7.646-7.48-12.746
			c-0.281-0.484-0.569-0.98-0.858-1.478c7.015-5.741,15.375-10.053,24.747-12.358c33.694-8.289,67.853,12.379,76.143,46.075
			C523.486,388.691,502.816,422.849,469.122,431.138z"/>
	</g>
</g>
</svg>
