<?xml version="1.0" encoding="utf-8"?>
<!-- Generator: Adobe Illustrator 15.0.0, SVG Export Plug-In . SVG Version: 6.00 Build 0)  -->
<!DOCTYPE svg PUBLIC "-//W3C//DTD SVG 1.1//EN" "http://www.w3.org/Graphics/SVG/1.1/DTD/svg11.dtd">
<svg version="1.1" xmlns="http://www.w3.org/2000/svg" xmlns:xlink="http://www.w3.org/1999/xlink" x="0px" y="0px" width="580px"
	 height="580px" viewBox="0 0 580 580" enable-background="new 0 0 580 580" xml:space="preserve">
<g id="Layer_2">
	<g id="g1327">
		<path id="path1329" fill="#111111" stroke="#EEEEEE" stroke-width="3.408" d="M66.275,1.768
			c-41.335,0-64.571,21.371-64.571,65.036v450.123c0,40.844,20.894,62.229,62.192,62.229H515.92
			c41.307,0,62.229-20.316,62.229-62.229V66.804c0-42.601-20.923-65.036-63.522-65.036C514.624,1.768,66.133,1.625,66.275,1.768z"/>
	</g>
</g>
<g id="svg2" inkscape:output_extension="org.inkscape.output.svg.inkscape" inkscape:version="0.46" sodipodi:docname="waste_bin.svg" sodipodi:version="0.32" xmlns:inkscape="http://www.inkscape.org/namespaces/inkscape" xmlns:rdf="http://www.w3.org/1999/02/22-rdf-syntax-ns#" xmlns:svg="http://www.w3.org/2000/svg" xmlns:sodipodi="http://sodipodi.sourceforge.net/DTD/sodipodi-0.dtd" xmlns:cc="http://creativecommons.org/ns#" xmlns:dc="http://purl.org/dc/elements/1.1/">
	<g id="layer1" transform="translate(-257.14284,-335.21933)" inkscape:groupmode="layer" inkscape:label="Ebene 1">
		
			<path id="path2385" sodipodi:ry="15.714286" sodipodi:rx="15.714286" sodipodi:cy="342.36218" sodipodi:cx="324.28571" sodipodi:type="arc" opacity="0.5" fill="#FFFFFF" d="
			M763.115,454.451c0,30.513-24.738,55.249-55.247,55.249c-30.516,0-55.251-24.735-55.251-55.249
			c0-30.515,24.735-55.249,55.251-55.249C738.377,399.202,763.115,423.937,763.115,454.451z"/>
		
			<path id="path2387" sodipodi:ry="15.714286" sodipodi:rx="15.714286" sodipodi:cy="342.36218" sodipodi:cx="324.28571" sodipodi:type="arc" opacity="0.5" fill="#FFFFFF" d="
			M441.668,524.768c0,30.513-24.734,55.249-55.251,55.249c-30.51,0-55.247-24.736-55.247-55.249c0-30.515,24.737-55.25,55.247-55.25
			C416.934,469.519,441.668,494.254,441.668,524.768z"/>
		
			<path id="path2389" sodipodi:ry="15.714286" sodipodi:rx="15.714286" sodipodi:cy="342.36218" sodipodi:cx="324.28571" sodipodi:type="arc" opacity="0.5" fill="#FFFFFF" d="
			M622.483,795.989c0,30.512-24.738,55.248-55.247,55.248c-30.517,0-55.251-24.736-55.251-55.248
			c0-30.514,24.734-55.248,55.251-55.248C597.744,740.741,622.483,765.475,622.483,795.989z"/>
		
			<path id="path2391" sodipodi:ry="15.714286" sodipodi:rx="15.714286" sodipodi:cy="342.36218" sodipodi:cx="324.28571" sodipodi:type="arc" fill="#FFFFFF" d="
			M662.664,574.994c0,24.965-20.24,45.203-45.204,45.203c-24.966,0-45.205-20.238-45.205-45.203
			c0-24.966,20.239-45.205,45.205-45.205C642.424,529.789,662.664,550.027,662.664,574.994z"/>
	</g>
</g>
</svg>
