<?xml version="1.0" encoding="utf-8"?>
<!-- Generator: Adobe Illustrator 17.0.0, SVG Export Plug-In . SVG Version: 6.00 Build 0)  -->
<!DOCTYPE svg PUBLIC "-//W3C//DTD SVG 1.1//EN" "http://www.w3.org/Graphics/SVG/1.1/DTD/svg11.dtd">
<svg version="1.1" id="Ebene_1" xmlns="http://www.w3.org/2000/svg" xmlns:xlink="http://www.w3.org/1999/xlink" x="0px" y="0px"
	 width="580px" height="580px" viewBox="0 0 580 580" enable-background="new 0 0 580 580" xml:space="preserve">
<g id="Layer_2">
	<g id="g1327">
		<path id="path1329" fill="#111111" stroke="#EEEEEE" stroke-width="3.408" d="M66.709,0.347
			c-41.335,0-64.571,21.371-64.571,65.036v450.123c0,40.844,20.894,62.229,62.192,62.229h452.024
			c41.307,0,62.229-20.316,62.229-62.229V65.383c0-42.601-20.923-65.036-63.522-65.036C515.058,0.347,66.567,0.204,66.709,0.347z"/>
	</g>
</g>
<g id="svg2" xmlns:sodipodi="http://sodipodi.sourceforge.net/DTD/sodipodi-0.dtd" xmlns:dc="http://purl.org/dc/elements/1.1/" xmlns:svg="http://www.w3.org/2000/svg" xmlns:cc="http://creativecommons.org/ns#" xmlns:inkscape="http://www.inkscape.org/namespaces/inkscape" xmlns:rdf="http://www.w3.org/1999/02/22-rdf-syntax-ns#" sodipodi:docname="waste_bin.svg" inkscape:version="0.46" inkscape:output_extension="org.inkscape.output.svg.inkscape" sodipodi:version="0.32">
	<g>
		<path fill="#FFFFFF" d="M374.758,147.674c10.395,0,19.441-3.752,27.145-11.258c7.697-7.507,11.549-16.646,11.549-27.417
			c0-10.784-3.852-19.928-11.549-27.435c-7.703-7.505-16.75-11.26-27.145-11.26c-10.773,0-19.912,3.755-27.416,11.26
			c-7.508,7.507-11.262,16.65-11.26,27.435c-0.002,10.771,3.752,19.91,11.26,27.417
			C354.846,143.922,363.984,147.674,374.758,147.674z"/>
		<circle fill="#FFFFFF" cx="511.922" cy="337.669" r="39.748"/>
		<path fill="#FFFFFF" d="M474.973,272.464l-70.032-67.85l-0.159-0.344l-60.049-60.048c-4.617-4.629-10.389-6.943-17.32-6.943
			h-94.107c-5.781,0-10.785,2.314-15.015,6.943l-64.663,74.479c-4.617,3.841-6.927,8.65-6.926,14.43
			c-0.001,5.392,1.923,10.012,5.771,13.858c3.846,3.847,8.465,5.771,13.858,5.771c5.768,0,10.771-2.309,15.012-6.926l60.05-69.862
			l34.64,0.581L146.4,335.917c0,0-99.904,22.684-107.9,29.333c-7.333,3.333-12.169,10.486-12.169,17.792
			c0,6.93,1.166,13.98,6.169,18.791c2.663,4.513,14,8,22,7.333c8-0.667,102-23.333,102-23.333s12-2,19.333-6
			c5.333-2.667,8.97-6.01,12.434-9.864l51.38-57.159l60.049,57.741L275.45,478.508c-0.775,2.314-1.164,4.24-1.164,5.779
			c0,6.93,2.502,12.896,7.507,17.901c5.005,5.004,10.971,7.507,17.902,7.507c13.086,0,21.172-6.737,24.264-20.211l29.443-131.057
			c3.465-13.861,1.926-24.063-4.617-30.606l-52.544-52.544l56.461-65.579l94.437,91.494c3.885,3.764,8.902,5.636,13.915,5.636
			c5.225,0,10.443-2.035,14.366-6.083C483.105,292.812,482.905,280.15,474.973,272.464z"/>
	</g>
</g>
<ellipse transform="matrix(-0.5491 -0.8357 0.8357 -0.5491 512.0846 901.9968)" cx="499.344" cy="312.87" rx="4.463" ry="5.726"/>
<ellipse transform="matrix(-0.7926 -0.6097 0.6097 -0.7926 673.9672 880.1644)" cx="486.663" cy="325.468" rx="4.463" ry="5.726"/>
<ellipse transform="matrix(-0.7025 -0.7117 0.7117 -0.7025 622.7705 921.1429)" cx="503.909" cy="330.409" rx="5.261" ry="6.931"/>
</svg>
