<?xml version="1.0" encoding="utf-8"?>
<!-- Generator: Adobe Illustrator 15.0.0, SVG Export Plug-In . SVG Version: 6.00 Build 0)  -->
<!DOCTYPE svg PUBLIC "-//W3C//DTD SVG 1.1//EN" "http://www.w3.org/Graphics/SVG/1.1/DTD/svg11.dtd">
<svg version="1.1" xmlns="http://www.w3.org/2000/svg" xmlns:xlink="http://www.w3.org/1999/xlink" x="0px" y="0px" width="580px"
	 height="580px" viewBox="0 0 580 580" enable-background="new 0 0 580 580" xml:space="preserve">
<g id="Layer_2">
	<g id="g1327">
		<path id="path1329" fill="#111111" stroke="#EEEEEE" stroke-width="3.408" d="M66.275,1.768
			c-41.335,0-64.571,21.371-64.571,65.036v450.123c0,40.844,20.894,62.229,62.192,62.229H515.92
			c41.307,0,62.229-20.316,62.229-62.229V66.804c0-42.601-20.923-65.036-63.522-65.036C514.624,1.768,66.133,1.625,66.275,1.768z"/>
	</g>
</g>
<g id="svg2" inkscape:output_extension="org.inkscape.output.svg.inkscape" xmlns:cc="http://creativecommons.org/ns#" xmlns:svg="http://www.w3.org/2000/svg" xmlns:sodipodi="http://sodipodi.sourceforge.net/DTD/sodipodi-0.dtd" xmlns:rdf="http://www.w3.org/1999/02/22-rdf-syntax-ns#" xmlns:dc="http://purl.org/dc/elements/1.1/" xmlns:inkscape="http://www.inkscape.org/namespaces/inkscape" sodipodi:docname="waste_bin.svg" inkscape:version="0.46" sodipodi:version="0.32">
	<g>
		<g>
			<rect x="49.5" y="49.5" fill-rule="evenodd" clip-rule="evenodd" fill="#FFFFFF" width="60.125" height="60.125"/>
		</g>
		<g>
			<rect x="169.75" y="49.5" fill-rule="evenodd" clip-rule="evenodd" fill="#FFFFFF" width="60.125" height="60.125"/>
		</g>
		<g>
			<rect x="169.75" y="49.5" fill-rule="evenodd" clip-rule="evenodd" fill="#FFFFFF" width="60.125" height="60.125"/>
		</g>
		<g>
			<rect x="290" y="49.5" fill-rule="evenodd" clip-rule="evenodd" fill="#FFFFFF" width="60.125" height="60.125"/>
		</g>
		<g>
			<rect x="290" y="49.5" fill-rule="evenodd" clip-rule="evenodd" fill="#FFFFFF" width="60.125" height="60.125"/>
		</g>
		<g>
			<rect x="410.25" y="49.5" fill-rule="evenodd" clip-rule="evenodd" fill="#FFFFFF" width="60.125" height="60.125"/>
		</g>
		<g>
			<rect x="410.25" y="49.5" fill-rule="evenodd" clip-rule="evenodd" fill="#FFFFFF" width="60.125" height="60.125"/>
		</g>
		<g>
			<rect x="410.25" y="49.5" fill-rule="evenodd" clip-rule="evenodd" fill="#FFFFFF" width="60.125" height="60.125"/>
		</g>
		<g>
			<rect x="109.625" y="109.625" fill-rule="evenodd" clip-rule="evenodd" fill="#FFFFFF" width="60.125" height="60.125"/>
		</g>
		<g>
			<rect x="109.625" y="109.625" fill-rule="evenodd" clip-rule="evenodd" fill="#FFFFFF" width="60.125" height="60.125"/>
		</g>
		<g>
			<rect x="229.875" y="109.625" fill-rule="evenodd" clip-rule="evenodd" fill="#FFFFFF" width="60.125" height="60.125"/>
		</g>
		<g>
			<rect x="229.875" y="109.625" fill-rule="evenodd" clip-rule="evenodd" fill="#FFFFFF" width="60.125" height="60.125"/>
		</g>
		<g>
			<rect x="350.125" y="109.625" fill-rule="evenodd" clip-rule="evenodd" fill="#FFFFFF" width="60.125" height="60.125"/>
		</g>
		<g>
			<rect x="350.125" y="109.625" fill-rule="evenodd" clip-rule="evenodd" fill="#FFFFFF" width="60.125" height="60.125"/>
		</g>
		<g>
			<rect x="350.125" y="109.625" fill-rule="evenodd" clip-rule="evenodd" fill="#FFFFFF" width="60.125" height="60.125"/>
		</g>
		<g>
			<rect x="470.375" y="109.625" fill-rule="evenodd" clip-rule="evenodd" fill="#FFFFFF" width="60.125" height="60.125"/>
		</g>
		<g>
			<rect x="49.5" y="169.75" fill-rule="evenodd" clip-rule="evenodd" fill="#FFFFFF" width="60.125" height="60.125"/>
		</g>
		<g>
			<rect x="169.75" y="169.75" fill-rule="evenodd" clip-rule="evenodd" fill="#FFFFFF" width="60.125" height="60.125"/>
		</g>
		<g>
			<rect x="169.75" y="169.75" fill-rule="evenodd" clip-rule="evenodd" fill="#FFFFFF" width="60.125" height="60.125"/>
		</g>
		<g>
			<rect x="290" y="169.75" fill-rule="evenodd" clip-rule="evenodd" fill="#FFFFFF" width="60.125" height="60.125"/>
		</g>
		<g>
			<rect x="290" y="169.75" fill-rule="evenodd" clip-rule="evenodd" fill="#FFFFFF" width="60.125" height="60.125"/>
		</g>
		<g>
			<rect x="410.25" y="169.75" fill-rule="evenodd" clip-rule="evenodd" fill="#FFFFFF" width="60.125" height="60.125"/>
		</g>
		<g>
			<rect x="410.25" y="169.75" fill-rule="evenodd" clip-rule="evenodd" fill="#FFFFFF" width="60.125" height="60.125"/>
		</g>
		<g>
			<rect x="410.25" y="169.75" fill-rule="evenodd" clip-rule="evenodd" fill="#FFFFFF" width="60.125" height="60.125"/>
		</g>
		<g>
			<rect x="109.625" y="229.875" fill-rule="evenodd" clip-rule="evenodd" fill="#FFFFFF" width="60.125" height="60.125"/>
		</g>
		<g>
			<rect x="109.625" y="229.875" fill-rule="evenodd" clip-rule="evenodd" fill="#FFFFFF" width="60.125" height="60.125"/>
		</g>
		<g>
			<rect x="229.875" y="229.875" fill-rule="evenodd" clip-rule="evenodd" fill="#FFFFFF" width="60.125" height="60.125"/>
		</g>
		<g>
			<rect x="229.875" y="229.875" fill-rule="evenodd" clip-rule="evenodd" fill="#FFFFFF" width="60.125" height="60.125"/>
		</g>
		<g>
			<rect x="350.125" y="229.875" fill-rule="evenodd" clip-rule="evenodd" fill="#FFFFFF" width="60.125" height="60.125"/>
		</g>
		<g>
			<rect x="350.125" y="229.875" fill-rule="evenodd" clip-rule="evenodd" fill="#FFFFFF" width="60.125" height="60.125"/>
		</g>
		<g>
			<rect x="350.125" y="229.875" fill-rule="evenodd" clip-rule="evenodd" fill="#FFFFFF" width="60.125" height="60.125"/>
		</g>
		<g>
			<rect x="470.375" y="229.875" fill-rule="evenodd" clip-rule="evenodd" fill="#FFFFFF" width="60.125" height="60.125"/>
		</g>
		<g>
			<rect x="49.5" y="290" fill-rule="evenodd" clip-rule="evenodd" fill="#FFFFFF" width="60.125" height="60.125"/>
		</g>
		<g>
			<rect x="169.75" y="290" fill-rule="evenodd" clip-rule="evenodd" fill="#FFFFFF" width="60.125" height="60.125"/>
		</g>
		<g>
			<rect x="169.75" y="290" fill-rule="evenodd" clip-rule="evenodd" fill="#FFFFFF" width="60.125" height="60.125"/>
		</g>
		<g>
			<rect x="290" y="290" fill-rule="evenodd" clip-rule="evenodd" fill="#FFFFFF" width="60.125" height="60.125"/>
		</g>
		<g>
			<rect x="290" y="290" fill-rule="evenodd" clip-rule="evenodd" fill="#FFFFFF" width="60.125" height="60.125"/>
		</g>
		<g>
			<rect x="410.25" y="290" fill-rule="evenodd" clip-rule="evenodd" fill="#FFFFFF" width="60.125" height="60.125"/>
		</g>
		<g>
			<rect x="410.25" y="290" fill-rule="evenodd" clip-rule="evenodd" fill="#FFFFFF" width="60.125" height="60.125"/>
		</g>
		<g>
			<rect x="410.25" y="290" fill-rule="evenodd" clip-rule="evenodd" fill="#FFFFFF" width="60.125" height="60.125"/>
		</g>
		<g>
			<rect x="109.625" y="350.125" fill-rule="evenodd" clip-rule="evenodd" fill="#FFFFFF" width="60.125" height="60.125"/>
		</g>
		<g>
			<rect x="109.625" y="350.125" fill-rule="evenodd" clip-rule="evenodd" fill="#FFFFFF" width="60.125" height="60.125"/>
		</g>
		<g>
			<rect x="229.875" y="350.125" fill-rule="evenodd" clip-rule="evenodd" fill="#FFFFFF" width="60.125" height="60.125"/>
		</g>
		<g>
			<rect x="229.875" y="350.125" fill-rule="evenodd" clip-rule="evenodd" fill="#FFFFFF" width="60.125" height="60.125"/>
		</g>
		<g>
			<rect x="350.125" y="350.125" fill-rule="evenodd" clip-rule="evenodd" fill="#FFFFFF" width="60.125" height="60.125"/>
		</g>
		<g>
			<rect x="350.125" y="350.125" fill-rule="evenodd" clip-rule="evenodd" fill="#FFFFFF" width="60.125" height="60.125"/>
		</g>
		<g>
			<rect x="350.125" y="350.125" fill-rule="evenodd" clip-rule="evenodd" fill="#FFFFFF" width="60.125" height="60.125"/>
		</g>
		<g>
			<rect x="470.375" y="350.125" fill-rule="evenodd" clip-rule="evenodd" fill="#FFFFFF" width="60.125" height="60.125"/>
		</g>
		<g>
			<rect x="49.5" y="410.25" fill-rule="evenodd" clip-rule="evenodd" fill="#FFFFFF" width="60.125" height="60.125"/>
		</g>
		<g>
			<rect x="169.75" y="410.25" fill-rule="evenodd" clip-rule="evenodd" fill="#FFFFFF" width="60.125" height="60.125"/>
		</g>
		<g>
			<rect x="169.75" y="410.25" fill-rule="evenodd" clip-rule="evenodd" fill="#FFFFFF" width="60.125" height="60.125"/>
		</g>
		<g>
			<rect x="290" y="410.25" fill-rule="evenodd" clip-rule="evenodd" fill="#FFFFFF" width="60.125" height="60.125"/>
		</g>
		<g>
			<rect x="290" y="410.25" fill-rule="evenodd" clip-rule="evenodd" fill="#FFFFFF" width="60.125" height="60.125"/>
		</g>
		<g>
			<rect x="410.25" y="410.25" fill-rule="evenodd" clip-rule="evenodd" fill="#FFFFFF" width="60.125" height="60.125"/>
		</g>
		<g>
			<rect x="410.25" y="410.25" fill-rule="evenodd" clip-rule="evenodd" fill="#FFFFFF" width="60.125" height="60.125"/>
		</g>
		<g>
			<rect x="410.25" y="410.25" fill-rule="evenodd" clip-rule="evenodd" fill="#FFFFFF" width="60.125" height="60.125"/>
		</g>
		<g>
			<rect x="109.625" y="470.375" fill-rule="evenodd" clip-rule="evenodd" fill="#FFFFFF" width="60.125" height="60.125"/>
		</g>
		<g>
			<rect x="109.625" y="470.375" fill-rule="evenodd" clip-rule="evenodd" fill="#FFFFFF" width="60.125" height="60.125"/>
		</g>
		<g>
			<rect x="229.875" y="470.375" fill-rule="evenodd" clip-rule="evenodd" fill="#FFFFFF" width="60.125" height="60.125"/>
		</g>
		<g>
			<rect x="229.875" y="470.375" fill-rule="evenodd" clip-rule="evenodd" fill="#FFFFFF" width="60.125" height="60.125"/>
		</g>
		<g>
			<rect x="350.125" y="470.375" fill-rule="evenodd" clip-rule="evenodd" fill="#FFFFFF" width="60.125" height="60.125"/>
		</g>
		<g>
			<rect x="350.125" y="470.375" fill-rule="evenodd" clip-rule="evenodd" fill="#FFFFFF" width="60.125" height="60.125"/>
		</g>
		<g>
			<rect x="350.125" y="470.375" fill-rule="evenodd" clip-rule="evenodd" fill="#FFFFFF" width="60.125" height="60.125"/>
		</g>
		<g>
			<rect x="470.375" y="470.375" fill-rule="evenodd" clip-rule="evenodd" fill="#FFFFFF" width="60.125" height="60.125"/>
		</g>
		<g>
			<path fill="#FFFFFF" d="M531.5,531.5h-483v-483h483V531.5z M50.5,529.5h479v-479h-479V529.5z"/>
		</g>
	</g>
</g>
</svg>
