<?xml version="1.0" encoding="UTF-8" standalone="no"?>
<!-- Generator: Adobe Illustrator 15.0.0, SVG Export Plug-In . SVG Version: 6.00 Build 0)  -->

<svg
   xmlns:dc="http://purl.org/dc/elements/1.1/"
   xmlns:cc="http://creativecommons.org/ns#"
   xmlns:rdf="http://www.w3.org/1999/02/22-rdf-syntax-ns#"
   xmlns:svg="http://www.w3.org/2000/svg"
   xmlns="http://www.w3.org/2000/svg"
   xmlns:sodipodi="http://sodipodi.sourceforge.net/DTD/sodipodi-0.dtd"
   xmlns:inkscape="http://www.inkscape.org/namespaces/inkscape"
   version="1.1"
   x="0px"
   y="0px"
   width="580px"
   height="580px"
   viewBox="0 0 580 580"
   enable-background="new 0 0 580 580"
   xml:space="preserve"
   id="svg881"
   sodipodi:docname="climbing_route_bottom.svg"
   inkscape:version="0.92.3 (2405546, 2018-03-11)"><metadata
   id="metadata887"><rdf:RDF><cc:Work
       rdf:about=""><dc:format>image/svg+xml</dc:format><dc:type
         rdf:resource="http://purl.org/dc/dcmitype/StillImage" /><dc:title /></cc:Work></rdf:RDF></metadata><defs
   id="defs885"><marker
     inkscape:stockid="EmptyTriangleInL"
     orient="auto"
     refY="0.0"
     refX="0.0"
     id="EmptyTriangleInL"
     style="overflow:visible"
     inkscape:isstock="true"><path
       id="path2236"
       d="M 5.77,0.0 L -2.88,5.0 L -2.88,-5.0 L 5.77,0.0 z "
       style="fill-rule:evenodd;fill:#ffffff;stroke:#000000;stroke-width:1pt;stroke-opacity:1"
       transform="scale(-0.8) translate(-6,0)" /></marker><marker
     inkscape:stockid="EmptyTriangleInL"
     orient="auto"
     refY="0"
     refX="0"
     id="EmptyTriangleInL-4"
     style="overflow:visible"
     inkscape:isstock="true"><path
       inkscape:connector-curvature="0"
       id="path2236-2"
       d="M 5.77,0 -2.88,5 V -5 Z"
       style="fill:#ffffff;fill-rule:evenodd;stroke:#000000;stroke-width:1.00000003pt;stroke-opacity:1"
       transform="matrix(-0.8,0,0,-0.8,4.8,0)" /></marker></defs><sodipodi:namedview
   pagecolor="#ffffff"
   bordercolor="#666666"
   borderopacity="1"
   objecttolerance="10"
   gridtolerance="10"
   guidetolerance="10"
   inkscape:pageopacity="0"
   inkscape:pageshadow="2"
   inkscape:window-width="1387"
   inkscape:window-height="981"
   id="namedview883"
   showgrid="false"
   inkscape:zoom="1.2316035"
   inkscape:cx="299.06495"
   inkscape:cy="288.84935"
   inkscape:window-x="383"
   inkscape:window-y="81"
   inkscape:window-maximized="0"
   inkscape:current-layer="svg881" />
<g
   id="Layer_2"
   transform="translate(0.81194959,-0.5683013)">
	<g
   id="g1327">
		<path
   id="path1329"
   d="M 66.275,1.768 C 24.94,1.768 1.704,23.139 1.704,66.804 v 450.123 c 0,40.844 20.894,62.229 62.192,62.229 H 515.92 c 41.307,0 62.229,-20.316 62.229,-62.229 V 66.804 c 0,-42.601 -20.923,-65.036 -63.522,-65.036 -0.003,0 -448.494,-0.143 -448.352,0 z"
   inkscape:connector-curvature="0"
   style="fill:#111111;stroke:#eeeeee;stroke-width:3.40799999" />
	</g>
</g>

<path
   inkscape:connector-curvature="0"
   d="m 103.42423,75.02976 14.84322,34.10188 c 2.07713,4.77215 92.92477,-24.343663 96.0478,-20.179863 10.30801,24.299363 46.06,20.089303 60.96617,48.539593 l 35.13144,-37.625814 49.68805,-8.554716 38.45649,6.274043 c 32.89796,8.955807 45.85613,-27.487164 89.67673,-20.573234 39.38699,2.41101 25.23134,289.946991 25.56137,384.358981 0.10092,28.86948 -12.69306,44.73794 -40.62615,45.22351 l -369.74512,-1.6239 C 85.158899,504.89002 70.351908,490.1631 70.351908,471.89793 V 108.10241 c 0,-18.26519 14.806815,-33.07233 33.072322,-33.07233 z"
   id="path8585"
   style="fill:#c8c8c8;fill-opacity:1;stroke-width:33.07231903"
   sodipodi:nodetypes="csccccccscssscc" /><path
   style="fill:none;fill-opacity:1;fill-rule:evenodd;stroke:#ffffff;stroke-width:20;stroke-linecap:butt;stroke-linejoin:miter;stroke-miterlimit:4;stroke-dasharray:none;stroke-opacity:1"
   d="M 302.04526,498.80503 246.22972,402.12968 291.07822,247.6274 242.56061,163.59243 310.93184,95.221203"
   id="path2077"
   inkscape:connector-curvature="0"
   sodipodi:nodetypes="ccccc" /><g
   id="g19515"
   transform="matrix(1.1239042,0,0,1.1239042,-134.52538,-224.22563)"><path
     style="fill:none;fill-rule:evenodd;stroke:#000000;stroke-width:18.8864193;stroke-linecap:butt;stroke-linejoin:miter;stroke-miterlimit:4;stroke-dasharray:none;stroke-opacity:1;marker-start:url(#EmptyTriangleInL-4)"
     d="m 377.17057,558.90967 1.06052,126.3885"
     id="path2083"
     inkscape:connector-curvature="0" /></g></svg>