<?xml version="1.0" encoding="UTF-8" standalone="no"?>
<!-- Generator: Adobe Illustrator 15.0.0, SVG Export Plug-In . SVG Version: 6.00 Build 0)  -->

<svg
   xmlns:dc="http://purl.org/dc/elements/1.1/"
   xmlns:cc="http://creativecommons.org/ns#"
   xmlns:rdf="http://www.w3.org/1999/02/22-rdf-syntax-ns#"
   xmlns:svg="http://www.w3.org/2000/svg"
   xmlns="http://www.w3.org/2000/svg"
   xmlns:sodipodi="http://sodipodi.sourceforge.net/DTD/sodipodi-0.dtd"
   xmlns:inkscape="http://www.inkscape.org/namespaces/inkscape"
   version="1.1"
   x="0px"
   y="0px"
   width="580px"
   height="580px"
   viewBox="0 0 580 580"
   enable-background="new 0 0 580 580"
   xml:space="preserve"
   id="svg881"
   sodipodi:docname="climbing_route.svg"
   inkscape:version="0.92.3 (2405546, 2018-03-11)"><metadata
   id="metadata887"><rdf:RDF><cc:Work
       rdf:about=""><dc:format>image/svg+xml</dc:format><dc:type
         rdf:resource="http://purl.org/dc/dcmitype/StillImage" /><dc:title /></cc:Work></rdf:RDF></metadata><defs
   id="defs885" /><sodipodi:namedview
   pagecolor="#ffffff"
   bordercolor="#666666"
   borderopacity="1"
   objecttolerance="10"
   gridtolerance="10"
   guidetolerance="10"
   inkscape:pageopacity="0"
   inkscape:pageshadow="2"
   inkscape:window-width="1387"
   inkscape:window-height="981"
   id="namedview883"
   showgrid="false"
   inkscape:zoom="1.2316035"
   inkscape:cx="130.15557"
   inkscape:cy="288.84935"
   inkscape:window-x="383"
   inkscape:window-y="81"
   inkscape:window-maximized="0"
   inkscape:current-layer="svg881" />
<g
   id="Layer_2"
   transform="translate(0.81194959,-0.5683013)">
	<g
   id="g1327">
		<path
   id="path1329"
   d="M 66.275,1.768 C 24.94,1.768 1.704,23.139 1.704,66.804 v 450.123 c 0,40.844 20.894,62.229 62.192,62.229 H 515.92 c 41.307,0 62.229,-20.316 62.229,-62.229 V 66.804 c 0,-42.601 -20.923,-65.036 -63.522,-65.036 -0.003,0 -448.494,-0.143 -448.352,0 z"
   inkscape:connector-curvature="0"
   style="fill:#111111;stroke:#eeeeee;stroke-width:3.40799999" />
	</g>
</g>

<path
   inkscape:connector-curvature="0"
   d="m 103.42423,75.02976 14.84322,34.10188 c 2.07713,4.77215 92.92477,-24.343663 96.0478,-20.179863 10.30801,24.299363 46.06,20.089303 60.96617,48.539593 l 35.13144,-37.625814 49.68805,-8.554716 38.45649,6.274043 c 32.89796,8.955807 45.85613,-27.487164 89.67673,-20.573234 39.38699,2.41101 25.23134,289.946991 25.56137,384.358981 0.10092,28.86948 -12.69306,44.73794 -40.62615,45.22351 l -369.74512,-1.6239 C 85.158899,504.89002 70.351908,490.1631 70.351908,471.89793 V 108.10241 c 0,-18.26519 14.806815,-33.07233 33.072322,-33.07233 z"
   id="path8585"
   style="fill:#c8c8c8;fill-opacity:1;stroke-width:33.07231903"
   sodipodi:nodetypes="csccccccscssscc" /><g
   id="g19515"
   transform="matrix(0.66527879,0,0,0.66527879,93.794896,139.51743)"><g
     id="g2081"
     transform="matrix(0.91603653,0,0,1.2239289,140.48583,-66.238332)"><path
       style="font-style:normal;font-variant:normal;font-weight:normal;font-stretch:normal;font-size:40px;line-height:125%;font-family:NPSPICT3;-inkscape-font-specification:NPSPICT3;text-align:start;writing-mode:lr-tb;text-anchor:start;fill:#ffffff;fill-opacity:1;stroke:none"
       d="m 245.07327,199.02606 c -2.2e-4,8.57791 2.98514,15.85208 8.95608,21.82254 5.97048,5.97095 13.23997,8.95631 21.80852,8.95607 8.26903,2.4e-4 15.46611,-2.98512 21.59127,-8.95607 6.12461,-5.97046 9.18705,-13.24463 9.18733,-21.82254 -2.8e-4,-8.56802 -3.06272,-15.83752 -9.18733,-21.80852 -6.12516,-5.97042 -13.32224,-8.95576 -21.59127,-8.95606 -8.56855,3e-4 -15.83804,2.98564 -21.80852,8.95606 -5.97094,5.971 -8.9563,13.2405 -8.95608,21.80852 z m 68.88746,161.67178 V 250.4639 c -0.91599,-9.18477 -5.81215,-13.77727 -14.68852,-13.7775 h -58.33358 l -43.96496,-12.38396 -33.65431,-59.23129 c -3.67227,-3.98023 -7.95642,-5.97047 -12.85246,-5.97071 -10.40914,2.4e-4 -15.61366,5.35893 -15.61355,16.07607 -1.1e-4,3.98071 1.3781,7.6575 4.13464,11.03041 l 35.70232,63.91176 c 3.67196,3.6723 1.14257,2.79592 7.05901,7.67815 l 54.14364,15.31102 v 85.2914 l -91.03623,86.44702 c -0.9252,2.14906 -1.38772,4.29346 -1.38756,6.43324 -1.6e-4,6.12016 2.29608,11.40176 6.88875,15.84481 4.59232,4.44293 9.95334,6.66444 16.08308,6.66449 11.01619,-5e-5 10.98843,-1.05593 18.49529,-5.06634 L 274.46432,389.16385 349.60508,468.1 c 9.94756,10.51095 13.64856,12.64713 24.66525,12.64719 6.12923,-6e-5 11.49026,-2.21923 16.08308,-6.65748 4.59217,-4.43838 6.88841,-9.71765 6.88875,-15.83781 -3.4e-4,-2.14913 -0.30868,-4.29353 -0.92504,-6.43324 z"
       id="flowRoot3192"
       sodipodi:nodetypes="csssscssccccccccssccccccssscccssscc"
       inkscape:connector-curvature="0" /><path
       sodipodi:nodetypes="cccssccccc"
       id="path19513"
       d="m 301.21525,236.85636 51.01732,-12.55392 33.65431,-59.23129 c 3.67227,-3.98023 7.95642,-5.97047 12.85246,-5.97071 10.40914,2.4e-4 15.61366,5.35893 15.61355,16.07607 1.1e-4,3.98071 -1.3781,7.6575 -4.13464,11.03041 l -35.70232,63.91176 c -3.67196,3.6723 -1.14257,2.79592 -7.05901,7.67815 l -54.14364,15.31102 z"
       style="font-style:normal;font-variant:normal;font-weight:normal;font-stretch:normal;font-size:40px;line-height:125%;font-family:NPSPICT3;-inkscape-font-specification:NPSPICT3;text-align:start;writing-mode:lr-tb;text-anchor:start;fill:#ffffff;fill-opacity:1;stroke:none"
       inkscape:connector-curvature="0" /></g></g><path
   style="fill:none;fill-opacity:1;fill-rule:evenodd;stroke:#ffffff;stroke-width:20;stroke-linecap:butt;stroke-linejoin:miter;stroke-miterlimit:4;stroke-dasharray:none;stroke-opacity:1"
   d="M 302.04526,498.80503 246.22972,402.12968 291.07822,247.6274 242.56061,163.59243 310.93184,95.221203"
   id="path2077"
   inkscape:connector-curvature="0"
   sodipodi:nodetypes="ccccc" /></svg>