<?xml version="1.0" encoding="utf-8"?>
<!-- Generator: Adobe Illustrator 15.0.0, SVG Export Plug-In . SVG Version: 6.00 Build 0)  -->
<!DOCTYPE svg PUBLIC "-//W3C//DTD SVG 1.1//EN" "http://www.w3.org/Graphics/SVG/1.1/DTD/svg11.dtd">
<svg version="1.1" xmlns="http://www.w3.org/2000/svg" xmlns:xlink="http://www.w3.org/1999/xlink" x="0px" y="0px" width="580px"
	 height="580px" viewBox="0 0 580 580" enable-background="new 0 0 580 580" xml:space="preserve">
<g id="Layer_2">
	<g id="g1327">
		<path id="path1329" fill="#111111" stroke="#EEEEEE" stroke-width="3.408" d="M66.275,1.768
			c-41.335,0-64.571,21.371-64.571,65.036v450.123c0,40.844,20.894,62.229,62.192,62.229H515.92
			c41.307,0,62.229-20.316,62.229-62.229V66.804c0-42.601-20.923-65.036-63.522-65.036C514.624,1.768,66.133,1.625,66.275,1.768z"/>
	</g>
</g>
<g id="svg2" inkscape:output_extension="org.inkscape.output.svg.inkscape" xmlns:cc="http://creativecommons.org/ns#" xmlns:svg="http://www.w3.org/2000/svg" xmlns:sodipodi="http://sodipodi.sourceforge.net/DTD/sodipodi-0.dtd" xmlns:rdf="http://www.w3.org/1999/02/22-rdf-syntax-ns#" xmlns:dc="http://purl.org/dc/elements/1.1/" xmlns:inkscape="http://www.inkscape.org/namespaces/inkscape" sodipodi:docname="waste_bin.svg" inkscape:version="0.46" sodipodi:version="0.32">
	<g>
		<path fill="#FFFFFF" d="M330.776,180.275c9.734,0.001,18.116-3.543,25.146-10.632c7.028-7.088,10.543-15.797,10.543-26.129
			c0-10.342-3.515-19.058-10.543-26.146c-7.03-7.087-15.412-10.631-25.146-10.632c-9.725,0.001-18.014,3.545-24.866,10.632
			c-6.854,7.089-10.279,15.805-10.279,26.146c0,10.332,3.426,19.041,10.279,26.129C312.763,176.732,321.052,180.276,330.776,180.275
			z"/>
		<path fill="#FFFFFF" d="M428.138,335.222c-0.401-5.088-2.24-9.771-5.12-13.636l-41.609-110.554
			c-6.527-17.341-25.874-26.109-43.216-19.58c-10.646,4.007-18.052,12.849-20.68,23.09l-18.042,7.935l-26.822-40.905
			c-5.551-8.466-16.035-11.72-25.174-8.504l-4.77-9.814l6.785-9.547c0.477-0.671,0.529-1.554,0.139-2.277L182.182,26.932
			c-0.279-0.515-0.756-0.895-1.32-1.051s-1.168-0.077-1.673,0.222l-28.272,16.692c-0.978,0.577-1.341,1.814-0.829,2.829
			l63.916,126.581c0.4,0.793,1.252,1.26,2.129,1.175l11.016-1.05l7.404,13.19c-2.461,6.287-1.959,13.626,2.025,19.702l36.83,56.171
			c4.094,6.243,10.959,9.743,18.046,9.743c2.912,0,5.863-0.592,8.673-1.827l27.046-11.896l38.022,101.023
			c2.186,5.806,5.812,10.644,10.314,14.274v146.463c0,14.558,11.802,26.359,26.359,26.359s26.359-11.802,26.359-26.359V357.772
			C430.722,350.714,430.874,342.79,428.138,335.222z"/>
		<path fill="#FFFFFF" d="M262.533,354.535c0-5.522-4.477-10-10-10h-24.666c-5.523,0-10,4.478-10,10s4.477,10,10,10h24.666
			C258.057,364.535,262.533,360.058,262.533,354.535z"/>
		<path fill="#FFFFFF" d="M225.877,368.535c-0.004,0-0.008,0-0.01,0c-5.52,0-9.996,4.471-10,9.99l-0.158,165.662
			c-0.006,5.523,4.467,10.005,9.99,10.01c0.004,0,0.006,0,0.01,0c5.518,0,9.994-4.471,10-9.99l0.158-165.662
			C235.871,373.021,231.398,368.54,225.877,368.535z"/>
		<path fill="#FFFFFF" d="M265.877,368.535c-0.004,0-0.008,0-0.01,0c-5.52,0-9.996,4.471-10,9.99l-0.158,165.662
			c-0.006,5.523,4.467,10.005,9.99,10.01c0.004,0,0.006,0,0.01,0c5.518,0,9.994-4.471,10-9.99l0.158-165.662
			C275.871,373.021,271.398,368.54,265.877,368.535z"/>
		<path fill="#FFFFFF" d="M305.877,368.535c-0.004,0-0.007,0-0.01,0c-5.519,0-9.995,4.471-10,9.99l-0.158,165.662
			c-0.005,5.523,4.468,10.005,9.99,10.01c0.004,0,0.007,0,0.01,0c5.519,0,9.995-4.471,10-9.99l0.158-165.662
			C315.872,373.021,311.399,368.54,305.877,368.535z"/>
		<path fill="#FFFFFF" d="M314.534,354.535c0-5.522-4.478-10-10-10h-24.667c-5.523,0-10,4.478-10,10s4.477,10,10,10h24.667
			C310.057,364.535,314.534,360.058,314.534,354.535z"/>
	</g>
	<g>
		<g>
			<rect x="54.243" y="40.603" fill="#FFFFFF" width="3.397" height="504.931"/>
			<rect x="60.91" y="40.603" fill="#FFFFFF" width="3.397" height="504.931"/>
			<rect x="67.577" y="40.603" fill="#FFFFFF" width="3.397" height="504.931"/>
			<rect x="74.244" y="40.603" fill="#FFFFFF" width="3.397" height="504.931"/>
			<rect x="80.911" y="40.603" fill="#FFFFFF" width="3.397" height="504.931"/>
			<rect x="87.578" y="40.603" fill="#FFFFFF" width="3.397" height="504.931"/>
			<rect x="94.245" y="40.603" fill="#FFFFFF" width="3.397" height="504.931"/>
			<rect x="100.912" y="40.603" fill="#FFFFFF" width="3.397" height="504.931"/>
			<rect x="107.579" y="40.603" fill="#FFFFFF" width="3.397" height="504.931"/>
		</g>
		<g>
			<rect x="469.023" y="40.603" fill="#FFFFFF" width="3.397" height="504.931"/>
			<rect x="475.689" y="40.603" fill="#FFFFFF" width="3.398" height="504.931"/>
			<rect x="482.357" y="40.603" fill="#FFFFFF" width="3.397" height="504.931"/>
			<rect x="489.023" y="40.603" fill="#FFFFFF" width="3.398" height="504.931"/>
			<rect x="495.691" y="40.603" fill="#FFFFFF" width="3.397" height="504.931"/>
			<rect x="502.357" y="40.603" fill="#FFFFFF" width="3.398" height="504.931"/>
			<rect x="509.025" y="40.603" fill="#FFFFFF" width="3.397" height="504.931"/>
			<rect x="515.691" y="40.603" fill="#FFFFFF" width="3.398" height="504.931"/>
			<rect x="522.359" y="40.603" fill="#FFFFFF" width="3.397" height="504.931"/>
		</g>
	</g>
</g>
</svg>
