<?xml version="1.0" encoding="utf-8"?>
<!-- Generator: Adobe Illustrator 15.0.0, SVG Export Plug-In . SVG Version: 6.00 Build 0)  -->
<!DOCTYPE svg PUBLIC "-//W3C//DTD SVG 1.1//EN" "http://www.w3.org/Graphics/SVG/1.1/DTD/svg11.dtd">
<svg version="1.1" xmlns="http://www.w3.org/2000/svg" xmlns:xlink="http://www.w3.org/1999/xlink" x="0px" y="0px" width="580px"
	 height="580px" viewBox="0 0 580 580" enable-background="new 0 0 580 580" xml:space="preserve">
<g id="Layer_2">
	<g id="g1327">
		<path id="path1329" fill="#111111" stroke="#EEEEEE" stroke-width="3.408" d="M66.275,1.768
			c-41.335,0-64.571,21.371-64.571,65.036v450.123c0,40.844,20.894,62.229,62.192,62.229H515.92
			c41.307,0,62.229-20.316,62.229-62.229V66.804c0-42.601-20.923-65.036-63.522-65.036C514.624,1.768,66.133,1.625,66.275,1.768z"/>
	</g>
</g>
<g id="svg2" inkscape:output_extension="org.inkscape.output.svg.inkscape" inkscape:version="0.46" sodipodi:docname="waste_bin.svg" sodipodi:version="0.32" xmlns:inkscape="http://www.inkscape.org/namespaces/inkscape" xmlns:rdf="http://www.w3.org/1999/02/22-rdf-syntax-ns#" xmlns:svg="http://www.w3.org/2000/svg" xmlns:sodipodi="http://sodipodi.sourceforge.net/DTD/sodipodi-0.dtd" xmlns:cc="http://creativecommons.org/ns#" xmlns:dc="http://purl.org/dc/elements/1.1/">
	<g>
		<g id="path2383">
			<path fill="#FFFFFF" d="M138.749,459.591l-18-0.012l0.11-183.845c0-0.233,0.009-0.466,0.028-0.699
				c0.13-1.66,3.445-41.1,25.677-81.292c20.809-37.621,62.574-82.7,143.367-83.814c80.928-1.159,122.748,44.153,143.601,82.325
				c22.227,40.686,25.561,81.093,25.692,82.793c0.018,0.23,0.026,0.461,0.026,0.692v183.845h-18v-183.45
				c-0.343-3.656-4.202-40.168-23.788-75.749c-26.904-48.873-69.697-73.253-127.283-72.458
				c-57.932,0.799-100.952,25.874-127.864,74.528c-19.376,35.031-23.115,70.054-23.457,73.683L138.749,459.591z"/>
		</g>
		<g id="path3157">
			
				<path sodipodi:ry="115.71429" sodipodi:rx="115.71429" sodipodi:cy="548.07648" sodipodi:cx="424.28571" sodipodi:type="arc" fill="#FFFFFF" d="
				M394.215,356.876c0,57.556-46.66,104.215-104.214,104.215c-57.557,0-104.215-46.659-104.215-104.215S232.444,252.663,290,252.663
				C347.555,252.663,394.215,299.32,394.215,356.876z"/>
		</g>
	</g>
</g>
</svg>
