<?xml version="1.0" encoding="utf-8"?>
<!-- Generator: Adobe Illustrator 15.0.0, SVG Export Plug-In . SVG Version: 6.00 Build 0)  -->
<!DOCTYPE svg PUBLIC "-//W3C//DTD SVG 1.1//EN" "http://www.w3.org/Graphics/SVG/1.1/DTD/svg11.dtd">
<svg version="1.1" xmlns="http://www.w3.org/2000/svg" xmlns:xlink="http://www.w3.org/1999/xlink" x="0px" y="0px" width="580px"
	 height="580px" viewBox="0 0 580 580" enable-background="new 0 0 580 580" xml:space="preserve">
<g id="Layer_2">
	<g id="g1327">
		<path id="path1329" fill="#111111" stroke="#EEEEEE" stroke-width="3.408" d="M66.275,1.768
			c-41.335,0-64.571,21.371-64.571,65.036v450.123c0,40.844,20.894,62.229,62.192,62.229H515.92
			c41.307,0,62.229-20.316,62.229-62.229V66.804c0-42.601-20.923-65.036-63.522-65.036C514.624,1.768,66.133,1.625,66.275,1.768z"/>
	</g>
</g>
<g id="svg2" inkscape:output_extension="org.inkscape.output.svg.inkscape" inkscape:version="0.46" sodipodi:docname="waste_bin.svg" sodipodi:version="0.32" xmlns:inkscape="http://www.inkscape.org/namespaces/inkscape" xmlns:rdf="http://www.w3.org/1999/02/22-rdf-syntax-ns#" xmlns:svg="http://www.w3.org/2000/svg" xmlns:sodipodi="http://sodipodi.sourceforge.net/DTD/sodipodi-0.dtd" xmlns:cc="http://creativecommons.org/ns#" xmlns:dc="http://purl.org/dc/elements/1.1/">
	<g>
		<path fill="#FFFFFF" d="M398.295,253.607c9.924-4.14,11.016-16.434,9.617-21.851c-1.461-5.479-7.85-8.582-18.258-10.226
			c-10.713-1.766-25.625-1.766-45.225,0c-10.227-18.624-18.809-33.05-25.99-44.188c-7.305-11.077-10.164-16.495-16.799-21.851
			c-7-5.66-15.095-11.017-23.556-11.139c-8.399-0.183-14.484,1.826-26.474,10.712c-12.235,8.947-32.93,29.643-45.649,42.363
			c-12.783,12.417-23.192,22.581-29.826,32.137c-6.695,9.434-9.739,15.886-9.617,24.529c0.123,8.643,2.615,17.65,10.53,26.293
			c7.852,8.218,21.06,14.608,36.58,23.189c15.4,8.582,33.537,17.591,55.329,27.693c-0.426,25.078-0.426,45.348,0,62.451
			c0.181,16.738-1.767,29.823,2.374,38.345c4.137,8.339,15.579,11.443,22.58,11.625c6.938-0.12,15.217,0,18.746-11.139
			c3.289-11.441,1.279-33.414,1.463-55.813c0.182-22.642-0.063-48.023-0.488-78.03l-68.291-39.258l47.658-46.38
			c6.758,10.713,12.295,19.478,17.285,26.293c4.689,6.695,5.781,11.442,11.992,14.242c6.086,2.557,12.779,1.826,25.504,1.826
			C360.498,255.494,388.072,257.381,398.295,253.607z"/>
		<path fill="#FFFFFF" d="M342.422,161.087c22.813,0,41.328-17.178,41.328-38.345c0-21.168-18.516-38.346-41.328-38.346
			c-22.814,0-41.328,17.18-41.328,38.346S319.607,161.087,342.422,161.087z"/>
		<path fill="#FFFFFF" d="M155.041,332.862c-48.406,0-87.693,36.454-87.693,81.37s39.287,81.371,87.693,81.371
			c48.404,0,87.693-36.455,87.693-81.371S203.446,332.862,155.041,332.862z"/>
		<path fill="#FFFFFF" d="M424.959,332.862c-48.408,0-87.693,36.454-87.693,81.37s39.285,81.371,87.693,81.371
			c48.402,0,87.693-36.455,87.693-81.371S473.365,332.862,424.959,332.862z"/>
	</g>
</g>
</svg>
