<?xml version="1.0" encoding="UTF-8" standalone="no"?>
<!-- Generator: Adobe Illustrator 15.0.0, SVG Export Plug-In . SVG Version: 6.00 Build 0)  -->

<svg
   xmlns:dc="http://purl.org/dc/elements/1.1/"
   xmlns:cc="http://creativecommons.org/ns#"
   xmlns:rdf="http://www.w3.org/1999/02/22-rdf-syntax-ns#"
   xmlns:svg="http://www.w3.org/2000/svg"
   xmlns="http://www.w3.org/2000/svg"
   xmlns:sodipodi="http://sodipodi.sourceforge.net/DTD/sodipodi-0.dtd"
   xmlns:inkscape="http://www.inkscape.org/namespaces/inkscape"
   version="1.1"
   x="0px"
   y="0px"
   width="580px"
   height="580px"
   viewBox="0 0 580 580"
   enable-background="new 0 0 580 580"
   xml:space="preserve"
   id="svg837"
   sodipodi:docname="disc_golf.svg"
   inkscape:version="0.92.3 (2405546, 2018-03-11)"><metadata
   id="metadata843"><rdf:RDF><cc:Work
       rdf:about=""><dc:format>image/svg+xml</dc:format><dc:type
         rdf:resource="http://purl.org/dc/dcmitype/StillImage" /></cc:Work></rdf:RDF></metadata><defs
   id="defs841">
		
			
		
			
	</defs><sodipodi:namedview
   pagecolor="#ffffff"
   bordercolor="#666666"
   borderopacity="1"
   objecttolerance="10"
   gridtolerance="10"
   guidetolerance="10"
   inkscape:pageopacity="0"
   inkscape:pageshadow="2"
   inkscape:window-width="1451"
   inkscape:window-height="1008"
   id="namedview839"
   showgrid="false"
   inkscape:zoom="1.47"
   inkscape:cx="290"
   inkscape:cy="290"
   inkscape:window-x="299"
   inkscape:window-y="108"
   inkscape:window-maximized="0"
   inkscape:current-layer="svg837" />
<g
   id="Layer_2">
	<g
   id="g1327">
		<path
   id="path1329"
   fill="#111111"
   stroke="#EEEEEE"
   stroke-width="3.408"
   d="M66.275,1.768    c-41.335,0-64.571,21.371-64.571,65.036v450.123c0,40.844,20.894,62.229,62.192,62.229H515.92    c41.307,0,62.229-20.316,62.229-62.229V66.804c0-42.601-20.923-65.036-63.522-65.036C514.624,1.768,66.133,1.625,66.275,1.768z" />
	</g>
</g>
<g
   id="svg2"
   inkscape:output_extension="org.inkscape.output.svg.inkscape"
   inkscape:version="0.46"
   sodipodi:docname="waste_bin.svg"
   sodipodi:version="0.32"
   transform="matrix(-0.74855234,0,0,0.74855234,437.83616,94.135052)">
	<path
   style="fill:#ffffff"
   d="m 277.507,52.637 c -27.596,0 -49.971,22.376 -49.971,49.972 0,27.597 22.375,49.972 49.971,49.972 27.596,0 49.971,-22.375 49.971,-49.972 10e-4,-27.596 -22.374,-49.972 -49.971,-49.972 z M 143.60765,204.36857 c 23.34052,29.59409 21.178,23.16843 42.54635,23.16843 h 41.383 c 14.835,24.986 7.856,61.756 12.493,99.942 h -22.644 c -24.986,0 -64.806,24.986 -39.821,74.958 l 37.479,74.955 c 24.986,49.972 62.464,12.494 49.972,-12.492 l -37.479,-74.956 c -6.246,-12.493 6.587,-12.493 12.493,-12.493 h 61.659 c 0,0 29.596,65.636 64.415,110.63 12.859,16.64 27.108,39.283 44.944,39.283 12.494,0 33.893,-19.324 11.104,-46.505 C 379.5,429.96 352.465,377.451 352.465,352.465 c 0,-29.061 -5.124,-90.281 -12.493,-124.928 h 37.479 c 12.199,24.449 31.23,62.464 31.23,62.464 13.812,23.911 43.726,22.106 43.726,0 0,-3.025 0,-9.711 -3.488,-16.91 l -40.237,-83.033 c -2.586,-5.319 -6.343,-12.493 -24.984,-12.493 l -204.5454,2.72635 -51.45521,-49.74103 c -16.38301,-15.83722 -40.089869,-25.89478 -40.089869,-0.90878 2.862196,25.56017 12.347255,28.28655 19.537999,36.52861 12.18688,13.96866 24.58994,23.36151 36.46213,38.19842 z"
   sodipodi:nodetypes="ssssscsccsssssccssssccssssccscsc"
   inkscape:connector-curvature="0"
   id="path10527-1" />
</g>
<ellipse
   style="color:#000000;display:inline;overflow:visible;visibility:visible;opacity:1;fill:#ffffff;fill-opacity:1;fill-rule:nonzero;stroke:#ffffff;stroke-width:17.55584145;stroke-linejoin:round;stroke-miterlimit:4;stroke-dasharray:none;stroke-opacity:1;marker:none;enable-background:accumulate"
   id="path845"
   cx="451.70068"
   cy="181.36546"
   rx="62.888744"
   ry="14.594334" /></svg>