<?xml version="1.0" encoding="UTF-8"?>
<svg id="svg837" xmlns="http://www.w3.org/2000/svg" version="1.1" xmlns:cc="http://creativecommons.org/ns#" xmlns:dc="http://purl.org/dc/elements/1.1/" xmlns:inkscape="http://www.inkscape.org/namespaces/inkscape" xmlns:rdf="http://www.w3.org/1999/02/22-rdf-syntax-ns#" xmlns:sodipodi="http://sodipodi.sourceforge.net/DTD/sodipodi-0.dtd" xmlns:svg="http://www.w3.org/2000/svg" viewBox="0 0 580 580">
  <!-- Generator: Adobe Illustrator 29.5.1, SVG Export Plug-In . SVG Version: 2.1.0 Build 141)  -->
  <defs>
    <style>
      .st0, .st1 {
        fill: #fff;
      }

      .st1 {
        stroke-linejoin: round;
        stroke-width: 17.56px;
      }

      .st1, .st2 {
        stroke: #fff;
      }

      .st3 {
        fill: #111;
        stroke: #eee;
        stroke-width: 3.41px;
      }

      .st2 {
        fill: none;
        stroke-linecap: round;
        stroke-miterlimit: 10;
        stroke-width: 25px;
      }
    </style>
  </defs>
  <sodipodi:namedview id="namedview839" bordercolor="#666666" borderopacity="1" gridtolerance="10" guidetolerance="10" inkscape:current-layer="svg837" inkscape:cx="290" inkscape:cy="290" inkscape:pageopacity="0" inkscape:pageshadow="2" inkscape:window-height="1008" inkscape:window-maximized="0" inkscape:window-width="1451" inkscape:window-x="299" inkscape:window-y="108" inkscape:zoom="1.47" objecttolerance="10" pagecolor="#ffffff" showgrid="false"/>
  <g id="Layer_2">
    <g id="g1327">
      <path id="path1329" class="st3" d="M66.28,1.77C24.94,1.77,1.7,23.14,1.7,66.8v450.12c0,40.84,20.89,62.23,62.19,62.23h452.02c41.31,0,62.23-20.32,62.23-62.23V66.8c0-42.6-20.92-65.04-63.52-65.04,0,0-448.49-.14-448.35,0h.01Z"/>
    </g>
  </g>
  <g id="svg2" inkscape:output_extension="org.inkscape.output.svg.inkscape" inkscape:version="0.46" sodipodi:docname="waste_bin.svg" sodipodi:version="0.32">
    <path id="path10527-1" class="st0" d="M230.11,133.54c20.66,0,37.41,16.75,37.41,37.41s-16.75,37.41-37.41,37.41-37.41-16.75-37.41-37.41,16.75-37.41,37.41-37.41h0ZM330.34,247.12c-17.47,22.15-15.85,17.34-31.85,17.34h-30.98c-11.1,18.7-5.88,46.23-9.35,74.81h16.95c18.7,0,48.51,18.7,29.81,56.11l-28.05,56.11c-18.7,37.41-46.76,9.35-37.41-9.35l28.05-56.11c4.68-9.35-4.93-9.35-9.35-9.35h-46.15s-22.15,49.13-48.22,82.81c-9.63,12.46-20.29,29.41-33.64,29.41-9.35,0-25.37-14.47-8.31-34.81,31.93-38.1,52.16-77.41,52.16-96.11,0-21.75,3.84-67.58,9.35-93.52h-28.05c-9.13,18.3-23.38,46.76-23.38,46.76-10.34,17.9-32.73,16.55-32.73,0,0-2.26,0-7.27,2.61-12.66l30.12-62.15c1.94-3.98,4.75-9.35,18.7-9.35l153.11,2.04,38.52-37.23c12.26-11.85,30.01-19.38,30.01-.68-2.14,19.13-9.24,21.17-14.63,27.34-9.12,10.46-18.41,17.49-27.29,28.59h0Z" inkscape:connector-curvature="0" sodipodi:nodetypes="ssssscsccsssssccssssccssssccscsc"/>
  </g>
  <ellipse id="path845" class="st1" cx="451.7" cy="181.37" rx="62.89" ry="14.59"/>
  <line class="st2" x1="65" y1="517.89" x2="487.7" y2="517.89"/>
</svg>