<?xml version="1.0" encoding="utf-8"?>
<!-- Generator: Adobe Illustrator 15.0.0, SVG Export Plug-In . SVG Version: 6.00 Build 0)  -->
<!DOCTYPE svg PUBLIC "-//W3C//DTD SVG 1.1//EN" "http://www.w3.org/Graphics/SVG/1.1/DTD/svg11.dtd">
<svg version="1.1" xmlns="http://www.w3.org/2000/svg" xmlns:xlink="http://www.w3.org/1999/xlink" x="0px" y="0px" width="580px"
	 height="580px" viewBox="0 0 580 580" enable-background="new 0 0 580 580" xml:space="preserve">
<g id="Layer_2">
	<g id="g1327">
		<path id="path1329" fill="#111111" stroke="#EEEEEE" stroke-width="3.408" d="M66.275,1.768
			c-41.335,0-64.571,21.371-64.571,65.036v450.123c0,40.844,20.894,62.229,62.192,62.229H515.92
			c41.307,0,62.229-20.316,62.229-62.229V66.804c0-42.601-20.923-65.036-63.522-65.036C514.624,1.768,66.133,1.625,66.275,1.768z"/>
	</g>
</g>
<g id="svg2" inkscape:output_extension="org.inkscape.output.svg.inkscape" xmlns:cc="http://creativecommons.org/ns#" xmlns:svg="http://www.w3.org/2000/svg" xmlns:sodipodi="http://sodipodi.sourceforge.net/DTD/sodipodi-0.dtd" xmlns:rdf="http://www.w3.org/1999/02/22-rdf-syntax-ns#" xmlns:dc="http://purl.org/dc/elements/1.1/" xmlns:inkscape="http://www.inkscape.org/namespaces/inkscape" sodipodi:docname="waste_bin.svg" inkscape:version="0.46" sodipodi:version="0.32">
	<path fill="#FFFFFF" d="M215.661,257.505c0,0-51.692-3.268-69.517,23.766c0,0-16.933,17.826-25.548,23.173
		c-8.615,5.347-26.44,16.042-38.917,5.05s-5.646-13.369-16.934-16.339c0,0,2.376,12.774,9.804,15.745
		c7.427,2.97-5.942,3.267-5.942,3.565c0,0.295-17.23,4.8-23.469,1.805c-6.238-2.995-10.398-5.37-8.912-7.153
		c1.485-1.781-8.615-6.238-10.695,1.485s7.427,14.26,13.666,14.854c6.238,0.595,23.172,3.27,24.36,2.971
		c1.188-0.297-6.536,4.159-8.912,4.159c-2.377,0-3.862-4.159-13.369,0c0,0-16.934,6.834-9.209,10.992
		c7.724,4.159,19.904,2.377,20.795,1.783c0.891-0.596,22.875-13.963,23.469-15.448c0.594-1.486,42.779,10.992,49.315,9.507
		c6.535-1.485,11.882,3.564,21.983-1.188c10.101-4.754,2.079,14.854,31.49-1.189c29.411-16.042,40.996-32.381,40.996-32.381
		s11.29-6.833,21.984-3.861c10.695,2.971,74.566,23.766,87.043,29.113c12.478,5.347,43.373,8.318,75.457-24.955
		c0,0,9.508,7.724,13.666,12.774s3.267,7.724,14.26,7.428c0,0-2.079,3.565,9.507,4.753c11.584,1.188,38.024,4.753,46.046,4.456
		c8.021-0.298,10.101,1.485,10.101,1.485s0.893,4.753,6.536,1.781c5.645-2.97,13.072,8.319,15.447,8.616
		c2.377,0.298,6.24,7.13,11.587,4.456c5.349-2.673,11.586,2.972,10.398-3.564c-1.189-6.536-9.211-10.993-15.151-13.072
		c0,0,10.396,2.971,12.774,1.188c2.377-1.782,13.367-7.724,13.072-9.209c-0.299-1.485,4.158-3.564,2.673-5.645
		s-13.964-2.08-19.904,1.783c-5.942,3.861-19.014,2.673-23.173,1.782c-4.158-0.891-32.976-7.131-38.62-9.506
		c-5.645-2.378-19.31-10.993-28.814-14.558c0,0-2.082-19.904-3.27-21.39c0,0,3.863-3.268,10.399-0.891
		c6.533,2.376,24.954,8.913,33.569,9.208c8.615,0.298,23.171,5.05,27.033,6.24c3.861,1.188,5.645,9.209,19.311,3.267
		c0,0-5.942-8.021-9.806-9.803l2.676-3.565c0,0,11.882,3.861,15.447,2.97c3.564-0.891,14.26-7.13,3.862-15.448l-22.281-11.116
		c0,0-4.158-4.333-5.05-9.977c-0.892-5.644-28.817-19.013-45.156-13.071c0,0-13.072,0.891-16.041-2.971
		c-2.971-3.862-15.745-2.674-20.796-2.674c0,0-30.601-6.238-69.219,4.16c0,0-36.244,6.535-40.998,11.288
		C324.687,244.137,238.536,248.593,215.661,257.505z"/>
</g>
</svg>
