<?xml version="1.0" encoding="UTF-8" standalone="no"?>
<!-- Created with Inkscape (http://www.inkscape.org/) -->

<svg
   xmlns:dc="http://purl.org/dc/elements/1.1/"
   xmlns:cc="http://creativecommons.org/ns#"
   xmlns:rdf="http://www.w3.org/1999/02/22-rdf-syntax-ns#"
   xmlns:svg="http://www.w3.org/2000/svg"
   xmlns="http://www.w3.org/2000/svg"
   xmlns:sodipodi="http://sodipodi.sourceforge.net/DTD/sodipodi-0.dtd"
   xmlns:inkscape="http://www.inkscape.org/namespaces/inkscape"
   version="1.0"
   width="580"
   height="580"
   id="svg2"
   sodipodi:version="0.32"
   inkscape:version="0.92.3 (2405546, 2018-03-11)"
   sodipodi:docname="driving_range.svg"
   inkscape:output_extension="org.inkscape.output.svg.inkscape">
  <metadata
     id="metadata2975">
    <rdf:RDF>
      <cc:Work
         rdf:about="">
        <dc:format>image/svg+xml</dc:format>
        <dc:type
           rdf:resource="http://purl.org/dc/dcmitype/StillImage" />
        <cc:license
           rdf:resource="http://web.resource.org/cc/PublicDomain" />
        <dc:language>en</dc:language>
        <dc:title></dc:title>
      </cc:Work>
    </rdf:RDF>
  </metadata>
  <sodipodi:namedview
     inkscape:window-height="1005"
     inkscape:window-width="1280"
     inkscape:pageshadow="2"
     inkscape:pageopacity="0.0"
     guidetolerance="10.0"
     gridtolerance="10.0"
     objecttolerance="10.0"
     borderopacity="1.0"
     bordercolor="#666666"
     pagecolor="#ffffff"
     id="base"
     inkscape:zoom="0.65172414"
     inkscape:cx="290"
     inkscape:cy="290.7672"
     inkscape:window-x="-4"
     inkscape:window-y="-4"
     inkscape:current-layer="svg2"
     showgrid="false"
     inkscape:window-maximized="1" />
  <defs
     id="defs4">
    <inkscape:perspective
       sodipodi:type="inkscape:persp3d"
       inkscape:vp_x="0 : 290 : 1"
       inkscape:vp_y="0 : 1000 : 0"
       inkscape:vp_z="580 : 290 : 1"
       inkscape:persp3d-origin="290 : 193.33333 : 1"
       id="perspective10" />
  </defs>
  <g
     id="g1327">
    <path
       d="M 66.275,1.768 C 24.94,1.768 1.704,23.139 1.704,66.804 L 1.704,516.927 C 1.704,557.771 22.599,579.156 63.896,579.156 L 515.92,579.156 C 557.227,579.156 578.149,558.841 578.149,516.927 L 578.149,66.804 C 578.149,24.203 557.227,1.768 514.628,1.768 C 514.624,1.768 66.133,1.625 66.275,1.768 z "
       style="fill:#111;stroke:#eee;stroke-width:3.40799999"
       id="path1329" />
  </g>
  <path
     style="font-style:normal;font-weight:normal;font-size:40px;font-family:'Bitstream Vera Sans';fill:#ffffff;fill-opacity:1;stroke:none;stroke-width:4.03758287px;stroke-linecap:butt;stroke-linejoin:miter;stroke-opacity:1"
     d="m 273.82208,157.35681 c -2.9e-4,-10.4682 -3.77958,-19.28955 -11.33794,-26.46409 -7.55892,-7.17386 -16.5725,-10.76097 -27.04078,-10.76129 -10.45694,3.2e-4 -19.36999,3.58743 -26.73914,10.76129 -7.3696,7.17454 -11.05426,15.99589 -11.05405,26.46409 -2.1e-4,10.45702 3.68445,19.27248 11.05405,26.44637 7.36915,7.17447 16.2822,10.76158 26.73914,10.76133 10.46828,2.5e-4 19.48186,-3.58686 27.04078,-10.76133 7.55836,-7.17389 11.33765,-15.98935 11.33794,-26.44637 z M 173.82096,544.56854 c 8.13803,-8e-5 14.72668,-3.87402 19.76598,-11.62186 l 109.29867,-164.55121 5.81977,22.67591 -16.27057,123.26261 c -0.78103,6.19825 0.57338,11.72231 4.06318,16.57222 3.4892,4.84974 8.33313,7.85427 14.53179,9.01358 6.2098,1.15915 11.92904,-0.10062 17.15775,-3.7793 5.22798,-3.67884 8.23251,-8.62331 9.01358,-14.83339 l 16.8561,-126.15477 c 0.38999,-4.27015 0.006,-8.72962 -1.15329,-13.37845 L 315.67849,233.511 l 97.109,-17.44163 c 5.03866,-0.76864 9.10778,-3.38281 12.20739,-7.84256 3.09873,-4.45919 4.25796,-9.20848 3.47769,-14.24783 -1.15967,-5.03882 -4.06366,-9.30311 -8.71197,-12.79292 L 196.49687,34.094205 176.14531,63.743268 c -5.03927,6.979407 -3.87414,12.988461 3.49542,18.027163 6.96701,4.258762 12.97013,3.093636 18.00944,-3.495417 L 209.28975,60.833342 390.67938,180.03273 242.43423,206.77186 c -5.4297,1.15952 -9.79158,3.96887 -13.08569,8.42809 -3.29458,4.45972 -4.16694,9.20901 -2.61712,14.24783 L 258.7048,354.44925 154.05493,510.8563 c -1.9401,3.47761 -2.91009,7.15641 -2.90993,11.03633 -1.6e-4,6.19825 2.22959,11.52714 6.68923,15.98669 4.4593,4.45939 9.78819,6.68914 15.98673,6.68922 z"
     id="flowRoot2383"
     inkscape:connector-curvature="0" />
</svg>
