<?xml version="1.0" encoding="utf-8"?>
<!-- Generator: Adobe Illustrator 15.0.0, SVG Export Plug-In . SVG Version: 6.00 Build 0)  -->
<!DOCTYPE svg PUBLIC "-//W3C//DTD SVG 1.1//EN" "http://www.w3.org/Graphics/SVG/1.1/DTD/svg11.dtd">
<svg version="1.1" xmlns="http://www.w3.org/2000/svg" xmlns:xlink="http://www.w3.org/1999/xlink" x="0px" y="0px" width="580px"
	 height="580px" viewBox="0 0 580 580" enable-background="new 0 0 580 580" xml:space="preserve">
<g id="Layer_2">
	<g id="g1327">
		<path id="path1329" fill="#111111" stroke="#EEEEEE" stroke-width="3.408" d="M66.275,1.768
			c-41.335,0-64.571,21.371-64.571,65.036v450.123c0,40.844,20.894,62.229,62.192,62.229H515.92
			c41.307,0,62.229-20.316,62.229-62.229V66.804c0-42.601-20.923-65.036-63.522-65.036C514.624,1.768,66.133,1.625,66.275,1.768z"/>
	</g>
</g>
<g id="svg2" inkscape:version="0.46" sodipodi:docname="waste_bin.svg" sodipodi:version="0.32" xmlns:inkscape="http://www.inkscape.org/namespaces/inkscape" xmlns:rdf="http://www.w3.org/1999/02/22-rdf-syntax-ns#" xmlns:dc="http://purl.org/dc/elements/1.1/" xmlns:cc="http://creativecommons.org/ns#" xmlns:svg="http://www.w3.org/2000/svg" xmlns:sodipodi="http://sodipodi.sourceforge.net/DTD/sodipodi-0.dtd" inkscape:output_extension="org.inkscape.output.svg.inkscape">
	<g>
		<path fill="#FFFFFF" d="M325.475,150.822c8.312,0,15.545-3,21.703-9.002c6.155-6.002,9.234-13.31,9.234-21.922
			c0-8.622-3.079-15.934-9.234-21.936c-6.158-6.001-13.392-9.003-21.703-9.003c-8.614,0-15.921,3.002-21.922,9.003
			c-6.002,6.002-9.004,13.313-9.002,21.936c-0.002,8.612,3,15.92,9.002,21.922C309.554,147.822,316.86,150.822,325.475,150.822z"/>
		<path fill="#FFFFFF" d="M68.796,335.945h83.56c3.389,0,6.465-0.306,9.228-0.916c7.081-1.23,12.007-3.386,14.778-6.467
			l41.082-45.703l48.014,46.168l-19.386,86.32c-0.62,1.851-0.93,3.391-0.93,4.621c0,5.541,2,10.312,6.001,14.313
			c4.001,4.001,8.772,6.002,14.315,6.002c10.462,0,16.928-5.387,19.399-16.16l23.542-104.789c2.771-11.083,1.541-19.24-3.691-24.472
			l-42.011-42.013l45.703-53.085l29.544,29.543c3.08,3.071,6.621,4.607,10.623,4.607c5.231,0,10.307-2.306,15.229-6.917
			l48.014-48.014c2.46-3.081,3.689-6.467,3.691-10.158c-0.002-4.611-1.616-8.457-4.848-11.538c-3.23-3.08-7.002-4.621-11.312-4.621
			c-4.312,0-7.698,1.23-10.158,3.691l-39.702,39.715l-48.014-48.013c-3.691-3.701-8.307-5.552-13.849-5.552h-75.246
			c-4.622,0-8.623,1.851-12.004,5.552l-51.704,59.552c-3.691,3.071-5.538,6.917-5.537,11.538c-0.001,4.311,1.537,8.005,4.614,11.081
			c3.075,3.075,6.769,4.613,11.081,4.613c4.611,0,8.613-1.846,12.003-5.537l48.014-55.86l27.697,0.465l-105.72,122.796
			l-71.555-0.466c-5.851,0-10.777,1.849-14.779,5.545c-4,3.695-6.001,8.465-6.001,14.307c0,5.541,2.001,10.234,6.001,14.081
			C58.483,334.021,63.255,335.945,68.796,335.945z"/>
		<path fill="#FFFFFF" d="M533.431,176.569c4.158-2.724,5.321-8.302,2.599-12.46c-2.723-4.157-8.3-5.323-12.46-2.599l-113,74
			c-3.451,2.26-4.924,6.576-3.574,10.475l73.093,211.055H59.5c-9.389,0-17,7.611-17,17s7.611,17,17,17h457c9.389,0,17-7.611,17-17
			s-7.611-17-17-17h-17.362l-72.837-210.315L533.431,176.569z"/>
	</g>
</g>
</svg>
