<?xml version="1.0" encoding="utf-8"?>
<!-- Generator: Adobe Illustrator 15.0.0, SVG Export Plug-In . SVG Version: 6.00 Build 0)  -->
<!DOCTYPE svg PUBLIC "-//W3C//DTD SVG 1.1//EN" "http://www.w3.org/Graphics/SVG/1.1/DTD/svg11.dtd">
<svg version="1.1" xmlns="http://www.w3.org/2000/svg" xmlns:xlink="http://www.w3.org/1999/xlink" x="0px" y="0px" width="580px"
	 height="580px" viewBox="0 0 580 580" enable-background="new 0 0 580 580" xml:space="preserve">
<g id="Layer_2">
	<g id="g1327">
		<path id="path1329" fill="#111111" stroke="#EEEEEE" stroke-width="3.408" d="M66.275,1.768
			c-41.335,0-64.571,21.371-64.571,65.036v450.123c0,40.844,20.894,62.229,62.192,62.229H515.92
			c41.307,0,62.229-20.316,62.229-62.229V66.804c0-42.601-20.923-65.036-63.522-65.036C514.624,1.768,66.133,1.625,66.275,1.768z"/>
	</g>
</g>
<g id="svg2" inkscape:output_extension="org.inkscape.output.svg.inkscape" inkscape:version="0.46" sodipodi:docname="waste_bin.svg" sodipodi:version="0.32" xmlns:inkscape="http://www.inkscape.org/namespaces/inkscape" xmlns:rdf="http://www.w3.org/1999/02/22-rdf-syntax-ns#" xmlns:svg="http://www.w3.org/2000/svg" xmlns:sodipodi="http://sodipodi.sourceforge.net/DTD/sodipodi-0.dtd" xmlns:cc="http://creativecommons.org/ns#" xmlns:dc="http://purl.org/dc/elements/1.1/">
	<g>
		<path fill="#FFFFFF" d="M64.917,288.877c0.899,24.193,31.237,61.347,78.201,90.648c25.531-75.028,14.951-149.047-0.216-180.37
			C94.926,227.767,64.002,264.291,64.917,288.877z"/>
		<path fill="#FFFFFF" d="M447.237,202.729c23.207,47.916,32.249,122.455-2.645,177.929c43.586-27.976,70.377-63.698,70.51-89.48
			C515.231,265.884,488.957,230.855,447.237,202.729z"/>
		<path fill="#FFFFFF" d="M306.652,201.457h-1.378v-1.287c-0.432-0.528-0.777-1.104-1.049-1.71c0.345,1.009,0.662,2.075,0.945,3.206
			c0.593-0.002,1.184-0.001,1.776-0.002C306.847,201.597,306.749,201.529,306.652,201.457z"/>
		<path fill="#FFFFFF" d="M284.465,201.035v-0.379c-0.083-0.093-0.164-0.187-0.243-0.283
			C284.304,200.592,284.386,200.811,284.465,201.035z"/>
		<path fill="#FFFFFF" d="M287.152,218.778c0.089-0.128,0.174-0.259,0.272-0.383c0.138-0.175,0.295-0.322,0.445-0.481v-0.911h1.015
			c0.71-0.526,1.488-0.933,2.312-1.182c0.055-0.516,0.09-1.104,0.11-1.728c-1.396,0.045-2.789,0.094-4.177,0.15
			C287.224,215.757,287.245,217.283,287.152,218.778z"/>
		<path fill="#FFFFFF" d="M268.294,215.39c0.105,1.527,0.136,3.07,0.054,4.585c0.029-0.043,0.056-0.086,0.086-0.128v-1.093h0.945
			c0.755-0.724,1.628-1.276,2.57-1.631c0.013-0.599,0.001-1.274-0.041-2.013C270.697,215.199,269.492,215.292,268.294,215.39z"/>
		<path fill="#FFFFFF" d="M250.115,217.326c0.002,0.755-0.01,1.508-0.048,2.253h1.213c0.574-0.427,1.198-0.766,1.853-1.013
			c0.011-0.49,0-1.044-0.026-1.629C252.098,217.062,251.106,217.193,250.115,217.326z"/>
		<path fill="#FFFFFF" d="M284.835,201.042h-0.368c0.129,0.366,0.256,0.737,0.379,1.117c0.466-0.02,0.93-0.043,1.397-0.063
			c-0.262-0.155-0.524-0.314-0.772-0.504C285.247,201.419,285.036,201.234,284.835,201.042z"/>
		<path fill="#FFFFFF" d="M325.781,219.958c0.17-0.25,0.352-0.494,0.555-0.727c0.021-0.025,0.048-0.043,0.069-0.068v-0.73h0.755
			c1.023-0.87,2.224-1.44,3.483-1.683c0.178-0.664,0.343-1.453,0.482-2.328c-1.482-0.075-2.975-0.142-4.474-0.202
			C326.509,216.201,326.224,218.138,325.781,219.958z"/>
		<path fill="#FFFFFF" d="M290.694,155.59c-37.943,0.809-74.346,9.687-106.428,22.892c21.205,23.341,39.069,143.864-0.759,222.204
			c33.123,14.32,71.072,23.78,111.045,23.78c37.316,0,72.05-7.595,102.409-19.538c38.04-67.924,25.156-188.606,1.069-228.557
			C365.916,163.067,329.242,154.769,290.694,155.59z M372.523,212.754c-0.442,2.757-2.671,4.759-5.313,5.071
			c-0.736,4.859-2.293,9.43-4.934,12.389c-0.223,0.25-0.457,0.479-0.692,0.704v0.05h-0.049c-2.038,1.917-4.505,2.898-6.975,2.899
			c-2.289,0-4.578-0.837-6.525-2.537c-3.175-2.771-3.501-7.589-0.73-10.764c0.212-0.242,0.447-0.449,0.681-0.659v-0.283h0.309
			c0.983-0.787,2.122-1.303,3.311-1.531c0.157-0.594,0.307-1.289,0.436-2.052c-1.854-0.199-3.731-0.387-5.643-0.559
			c-0.666,5.228-2.26,10.229-5.084,13.391c-2.159,2.418-4.937,3.651-7.716,3.651c-2.286,0-4.574-0.834-6.521-2.53
			c-0.078-0.069-0.148-0.144-0.223-0.215h-0.45v-0.457c-1.367-1.527-2.021-3.49-1.932-5.439c-0.566,1.278-1.24,2.441-2.05,3.425
			c-0.447,0.545-0.911,0.997-1.377,1.401v0.355h-0.412c-1.738,1.362-3.507,1.875-4.829,2.043c-0.4,0.051-0.803,0.076-1.203,0.076
			c-2.146,0-4.251-0.738-6.069-2.12h-1.086v-0.969c-1.55-1.666-2.234-3.89-1.989-6.052c-0.581,2.021-1.408,3.827-2.523,5.278
			c-1.737,2.256-4.135,3.675-6.755,3.999c-0.386,0.048-0.771,0.071-1.157,0.071c-2.231,0-4.444-0.791-6.335-2.283
			c-0.297-0.235-0.565-0.493-0.817-0.76h0v0c-0.944-0.999-1.578-2.204-1.877-3.482c-0.422,1.198-0.954,2.32-1.646,3.312
			c-1.619,2.314-3.946,3.815-6.554,4.234c-0.492,0.079-0.989,0.118-1.484,0.118c-2.165,0-4.331-0.745-6.227-2.162
			c-0.113-0.085-0.215-0.178-0.323-0.268h-1.324v-1.419c-0.561-0.789-0.96-1.667-1.187-2.583c-0.432,1.279-0.983,2.476-1.717,3.525
			c-1.616,2.314-3.944,3.818-6.557,4.237c-0.491,0.079-0.986,0.117-1.481,0.117c-2.169,0-4.338-0.747-6.236-2.17
			c-0.357-0.268-0.678-0.565-0.974-0.88h-1.278v-1.836c-0.197-0.396-0.355-0.807-0.48-1.229c-0.53,1.427-1.204,2.714-2.041,3.801
			c-1.728,2.248-4.123,3.668-6.742,3.996c-0.388,0.049-0.778,0.073-1.167,0.073c-2.065,0-4.113-0.686-5.909-1.971h-2.177v-2.276
			c-1.507-2.424-1.564-5.559,0-8.061v-1.006h0.775c0.966-1.091,2.171-1.862,3.484-2.259c0.011-0.1,0.017-0.216,0.026-0.321
			c-1.476,0.293-2.928,0.593-4.327,0.908c-0.45,0.101-0.901,0.149-1.344,0.149c-2.793,0-5.313-1.929-5.951-4.768
			c-0.739-3.289,1.329-6.556,4.618-7.295c1.782-0.401,3.645-0.78,5.547-1.148c-0.02-0.057-0.04-0.128-0.06-0.184
			c-1.491-0.079-2.972-0.595-4.244-1.575c-0.097-0.075-0.184-0.157-0.276-0.235h-0.418v-0.376
			c-2.714-2.667-3.075-6.997-0.696-10.087c0.219-0.284,0.458-0.537,0.696-0.793v-0.087h0.076c2.429-2.568,5.752-3.69,9.104-2.987
			c2.31,0.483,4.355,1.748,6.105,3.742c0.165-0.382,0.373-0.753,0.605-1.114v-2.027h1.738c2.168-1.984,4.982-2.898,7.896-2.459
			c3.098,0.471,5.833,2.377,8.12,5.591c0.206-0.975,0.606-1.924,1.212-2.791c0.288-0.412,0.599-0.795,0.926-1.152v-0.012h0.013
			c2.233-2.426,5.334-3.569,8.544-3.083c3.95,0.599,7.314,3.516,9.903,8.526c-0.267-1.949,0.214-4,1.507-5.683
			c0.125-0.162,0.264-0.298,0.394-0.451v-0.746h0.673c2.396-2.351,5.584-3.351,8.805-2.681c4.261,0.887,7.63,4.431,9.883,10.329
			c-0.623-2.297-0.171-4.849,1.448-6.831v-0.404h0.156v-0.307h0.506c2.58-2.672,6.066-3.768,9.515-2.896
			c4.047,1.019,7.137,4.423,9.093,9.923c-0.036-1.818,0.571-3.651,1.848-5.13v-0.711h0.7c2.778-2.701,6.419-3.688,9.915-2.602
			c3.486,1.084,7.901,4.558,9.338,14.843c0.282,0.024,0.567,0.047,0.849,0.072v-0.5c-2.306-2.853-2.281-7.032,0.24-9.859
			c2.838-3.18,6.77-4.384,10.529-3.218c3.545,1.099,8.055,4.651,9.417,15.334c0.028,0.228,0.049,0.467,0.076,0.7
			c0.001,0,0.003,0,0.005,0C370.79,206.293,373.057,209.425,372.523,212.754z"/>
		<path fill="#FFFFFF" d="M325.932,202c0.153,0.005,0.307,0.012,0.46,0.017v-0.358c-0.28-0.323-0.532-0.663-0.749-1.019
			c0.093,0.404,0.184,0.81,0.267,1.231C325.918,201.913,325.924,201.958,325.932,202z"/>
		<path fill="#FFFFFF" d="M305.901,220.216c0.286-0.759,0.694-1.487,1.237-2.148c0.096-0.116,0.207-0.209,0.309-0.318v-0.03h0.029
			c1.03-1.104,2.31-1.858,3.689-2.206c0.086-0.493,0.157-1.059,0.216-1.659c-1.604-0.013-3.209-0.019-4.818-0.017
			C306.526,216.043,306.316,218.206,305.901,220.216z"/>
	</g>
</g>
</svg>
