<?xml version="1.0" encoding="UTF-8" standalone="no"?>
<!-- Generator: Adobe Illustrator 15.0.0, SVG Export Plug-In . SVG Version: 6.00 Build 0)  -->

<svg
   xmlns:dc="http://purl.org/dc/elements/1.1/"
   xmlns:cc="http://creativecommons.org/ns#"
   xmlns:rdf="http://www.w3.org/1999/02/22-rdf-syntax-ns#"
   xmlns:svg="http://www.w3.org/2000/svg"
   xmlns="http://www.w3.org/2000/svg"
   xmlns:sodipodi="http://sodipodi.sourceforge.net/DTD/sodipodi-0.dtd"
   xmlns:inkscape="http://www.inkscape.org/namespaces/inkscape"
   version="1.1"
   x="0px"
   y="0px"
   width="580px"
   height="580px"
   viewBox="0 0 580 580"
   enable-background="new 0 0 580 580"
   xml:space="preserve"
   id="svg915"
   sodipodi:docname="hall.svg"
   inkscape:version="0.92.3 (2405546, 2018-03-11)"><metadata
   id="metadata921"><rdf:RDF><cc:Work
       rdf:about=""><dc:format>image/svg+xml</dc:format><dc:type
         rdf:resource="http://purl.org/dc/dcmitype/StillImage" /><dc:title></dc:title></cc:Work></rdf:RDF></metadata><defs
   id="defs919">
	
	
	
	
	
</defs><sodipodi:namedview
   pagecolor="#ffffff"
   bordercolor="#666666"
   borderopacity="1"
   objecttolerance="10"
   gridtolerance="10"
   guidetolerance="10"
   inkscape:pageopacity="0"
   inkscape:pageshadow="2"
   inkscape:window-width="1406"
   inkscape:window-height="792"
   id="namedview917"
   showgrid="false"
   inkscape:zoom="1.19"
   inkscape:cx="290"
   inkscape:cy="290"
   inkscape:window-x="360"
   inkscape:window-y="129"
   inkscape:window-maximized="0"
   inkscape:current-layer="svg915" />
<g
   id="Layer_1">
	<g
   id="Layer_1_1_">
		<g
   id="Layer_2">
			<g
   id="g1327">
				<path
   id="path1329"
   d="M66.275,1.768      c-41.335,0-64.571,21.371-64.571,65.036v450.123c0,40.844,20.895,62.229,62.192,62.229H515.92      c41.307,0,62.229-20.315,62.229-62.229V66.804c0-42.601-20.925-65.036-63.521-65.036C514.624,1.768,66.133,1.625,66.275,1.768z"
   stroke-width="3.408"
   stroke="#EEEEEE"
   fill="#111111" />
			</g>
		</g>
	</g>
</g>
<g
   id="g888">
		<g
   id="g876">
			<polygon
   style="fill:#ffffff"
   id="polygon874"
   points="42.734,201.239 29.002,172.336 285.139,50.641 550.998,172.237 537.688,201.338 285.395,85.946 " />
		</g>
		<g
   id="g886">
			<g
   id="g880">
				<rect
   style="fill:#ffffff"
   id="rect878"
   height="323.33401"
   width="15"
   y="206.02499"
   x="51.512001" />
			</g>
			<g
   id="g884">
				<rect
   style="fill:#ffffff"
   id="rect882"
   height="323.33401"
   width="15"
   y="206.02499"
   x="513.48798" />
			</g>
		</g>
	</g>
<g
   transform="matrix(1.1789801,0,0,1.1789801,-207.56066,147.92028)"
   id="g1000"><path
     style="fill:#ffffff"
     inkscape:connector-curvature="0"
     id="path990"
     d="m 461.512,208.626 c -2.871,-1.186 -5.912,-2.272 -9.078,-3.274 -0.002,0.006 -0.003,0.013 -0.005,0.021 0.03,0.009 0.06,0.018 0.088,0.026 v 68.919 c 3.139,-0.997 6.146,-2.084 8.997,-3.262 18.854,-7.792 29.238,-18.882 29.238,-31.228 0,-12.333 -10.385,-23.414 -29.24,-31.202 z" /><path
     style="fill:#ffffff"
     inkscape:connector-curvature="0"
     id="path992"
     d="m 344.765,205.398 c 0.026,-0.008 0.053,-0.016 0.08,-0.024 -0.02,-0.071 -0.035,-0.143 -0.049,-0.215 -3.387,1.054 -6.634,2.205 -9.691,3.467 -18.856,7.789 -29.24,18.869 -29.24,31.202 0,12.345 10.384,23.435 29.239,31.228 3.07,1.269 6.324,2.43 9.727,3.488 0.016,-0.035 0.034,-0.069 0.052,-0.104 -0.039,-0.012 -0.079,-0.024 -0.117,-0.036 v -69.006 z" /><path
     style="fill:#ffffff"
     inkscape:connector-curvature="0"
     id="path994"
     d="m 362.587,200.834 v 78.017 c 11.145,2.025 23.248,3.091 35.717,3.091 12.725,0 25.067,-1.108 36.398,-3.214 v -77.771 c -11.332,-2.105 -23.675,-3.214 -36.398,-3.214 -12.468,0 -24.572,1.066 -35.717,3.091 z m 60.288,23.697 h -48.329 v -8.856 h 48.329 z" /><path
     style="fill:#ffffff"
     inkscape:connector-curvature="0"
     id="path996"
     d="m 538.063,42.49 h -16.102 v 137.334 c -15.672,1.903 -27.257,8.312 -27.257,16.151 0,6.934 9.029,13.174 21.939,15.741 2.281,0.454 4.474,0.873 6.684,0.738 h 14.735 V 42.49 Z" /><path
     style="fill:#ffffff"
     inkscape:connector-curvature="0"
     id="path998"
     d="m 464.905,132.706 c 9.266,0 16.774,-7.51 16.774,-16.774 v -38.15 c 0,-9.264 -7.509,-16.774 -16.774,-16.774 h -1.093 c -9.265,0 -16.774,7.51 -16.774,16.774 V 93.24 H 355.217 V 77.782 c 0,-9.264 -7.511,-16.774 -16.774,-16.774 h -1.094 c -9.265,0 -16.774,7.51 -16.774,16.774 v 38.15 c 0,9.264 7.51,16.774 16.774,16.774 h 1.094 c 9.264,0 16.774,-7.51 16.774,-16.774 v -9.81 h 91.821 v 9.81 c 0,9.264 7.51,16.774 16.774,16.774 z" /></g></svg>