<?xml version="1.0" encoding="utf-8"?>
<!-- Generator: Adobe Illustrator 15.0.0, SVG Export Plug-In . SVG Version: 6.00 Build 0)  -->
<!DOCTYPE svg PUBLIC "-//W3C//DTD SVG 1.1//EN" "http://www.w3.org/Graphics/SVG/1.1/DTD/svg11.dtd">
<svg version="1.1" xmlns="http://www.w3.org/2000/svg" xmlns:xlink="http://www.w3.org/1999/xlink" x="0px" y="0px" width="580px"
	 height="580px" viewBox="0 0 580 580" enable-background="new 0 0 580 580" xml:space="preserve">
<g id="Layer_2">
	<g id="g1327">
		<path id="path1329" fill="#111111" stroke="#EEEEEE" stroke-width="3.408" d="M66.275,1.768
			c-41.335,0-64.571,21.371-64.571,65.036v450.123c0,40.844,20.894,62.229,62.192,62.229H515.92
			c41.307,0,62.229-20.316,62.229-62.229V66.804c0-42.601-20.923-65.036-63.522-65.036C514.624,1.768,66.133,1.625,66.275,1.768z"/>
	</g>
</g>
<g id="svg2" inkscape:output_extension="org.inkscape.output.svg.inkscape" inkscape:version="0.46" sodipodi:docname="waste_bin.svg" sodipodi:version="0.32" xmlns:inkscape="http://www.inkscape.org/namespaces/inkscape" xmlns:rdf="http://www.w3.org/1999/02/22-rdf-syntax-ns#" xmlns:svg="http://www.w3.org/2000/svg" xmlns:sodipodi="http://sodipodi.sourceforge.net/DTD/sodipodi-0.dtd" xmlns:cc="http://creativecommons.org/ns#" xmlns:dc="http://purl.org/dc/elements/1.1/">
	<g>
		<path fill="#FFFFFF" d="M163.064,355.439c13.52-9.053,76.151-56.766,76.151-56.766l-26.342-27.814
			c0,0-63.555,50.414-73.651,60.389c-10.317,10.191-19.602,15.106-8.556,26.046C141.877,368.399,149.327,364.639,163.064,355.439z"
			/>
		<path fill="#FFFFFF" d="M100.202,505.036c-8.957,11.749-5.377,18.584,1.879,24.185c7.088,5.473,17.009,4.128,24.553-5.221
			c7.414-9.188,153.785-190.655,153.785-190.655l-23.531-20.512C256.888,312.833,109.037,493.446,100.202,505.036z"/>
		<ellipse fill="#FFFFFF" cx="230.916" cy="70.534" rx="23.82" ry="22.977"/>
		<path fill="#FFFFFF" d="M471.586,229.027c0,0-57.986-55.342-83.56-68.382c-25.354-12.93-22.802-14.442-53.602-23.488
			c-30.8-9.048-87.548,0.95-108.488-13.085c-20.573-13.788-20.006-39.449-25.648-47.96c-5.573-8.406-17.674-3.504-15.277,21.799
			c2.554,26.956,13.11,62.621,60.833,70.821c47.787,8.213,26.27,19.913,5.087,46.439c0,0-17.265,20.77-25.296,31.837
			c-8.129,11.202-7.567,13.727-1.208,23.697c6.658,10.437,54.535,48.806,63.757,53.286c9.303,4.517,15.556-1.116,21.589-8.62
			c6.131-7.624,35.825-54.587,55.43-80.797c13.969-19.553,37.097-14.828,55.928,1.135c18.689,15.844,26.535,20.663,1.137,36.741
			c-25.145,15.917-37.13,19.026-49.462,24.444c-11.875,5.22-24.728,12.591-22.313,24.519c2.425,11.978,10.75,12.205,28.922,6.466
			c18.344-5.793,55.197-20.415,82.791-34.892C491.154,277.796,490.775,252.393,471.586,229.027z"/>
		<circle fill="#FFFFFF" cx="386.632" cy="104.639" r="38.374"/>
	</g>
</g>
</svg>
