<?xml version="1.0" encoding="UTF-8" standalone="no"?>
<!-- Generator: Adobe Illustrator 15.0.0, SVG Export Plug-In . SVG Version: 6.00 Build 0)  -->

<svg
   xmlns:dc="http://purl.org/dc/elements/1.1/"
   xmlns:cc="http://creativecommons.org/ns#"
   xmlns:rdf="http://www.w3.org/1999/02/22-rdf-syntax-ns#"
   xmlns:svg="http://www.w3.org/2000/svg"
   xmlns="http://www.w3.org/2000/svg"
   xmlns:sodipodi="http://sodipodi.sourceforge.net/DTD/sodipodi-0.dtd"
   xmlns:inkscape="http://www.inkscape.org/namespaces/inkscape"
   version="1.1"
   x="0px"
   y="0px"
   width="580px"
   height="580px"
   viewBox="0 0 580 580"
   enable-background="new 0 0 580 580"
   xml:space="preserve"
   id="svg4643"
   sodipodi:docname="hockey.svg"
   inkscape:version="0.92.3 (2405546, 2018-03-11)"><metadata
   id="metadata4649"><rdf:RDF><cc:Work
       rdf:about=""><dc:format>image/svg+xml</dc:format><dc:type
         rdf:resource="http://purl.org/dc/dcmitype/StillImage" /><dc:title></dc:title></cc:Work></rdf:RDF></metadata><defs
   id="defs4647">
	

		
		
	</defs><sodipodi:namedview
   pagecolor="#ffffff"
   bordercolor="#666666"
   borderopacity="1"
   objecttolerance="10"
   gridtolerance="10"
   guidetolerance="10"
   inkscape:pageopacity="0"
   inkscape:pageshadow="2"
   inkscape:window-width="1752"
   inkscape:window-height="1090"
   id="namedview4645"
   showgrid="false"
   inkscape:zoom="0.96"
   inkscape:cx="-16.861911"
   inkscape:cy="290"
   inkscape:window-x="0"
   inkscape:window-y="0"
   inkscape:window-maximized="0"
   inkscape:current-layer="svg4643" />
<g
   id="Layer_2">
	<g
   id="g1327">
		<path
   id="path1329"
   fill="#111111"
   stroke="#EEEEEE"
   stroke-width="3.408"
   d="M66.275,1.768    c-41.335,0-64.571,21.371-64.571,65.036v450.123c0,40.844,20.894,62.229,62.192,62.229H515.92    c41.307,0,62.229-20.316,62.229-62.229V66.804c0-42.601-20.923-65.036-63.522-65.036C514.624,1.768,66.133,1.625,66.275,1.768z" />
	</g>
</g>
<g
   id="g5857"
   transform="translate(42.764009,-2.1468416)"><circle
     transform="rotate(-0.04352629)"
     style="fill:#ffffff;stroke-width:0.94893515"
     id="circle4636"
     r="35.977928"
     cy="175.32147"
     cx="388.65558" /><path
     sodipodi:nodetypes="cccccccccccccccsccsccsccccccccccccccccccccccscc"
     style="fill:#ffffff;stroke-width:0.94893515"
     inkscape:connector-curvature="0"
     id="path4638"
     d="m 382.52585,438.75948 -29.36046,-40.45022 c 10.3992,-1.49962 17.95416,-10.85048 17.05031,-21.4551 L 355.61808,205.5416 c -0.39735,-4.66941 -2.42286,-9.05005 -5.72294,-12.37736 l -76.96543,-77.60905 c -4.11109,-4.14467 -9.82056,-6.28114 -15.6505,-5.86012 -5.82234,0.42575 -11.16735,3.3753 -14.63119,8.07516 l -49.24645,66.80451 -18.67238,-24.84419 -11.17747,8.23513 15.11962,21.72553 -13.66614,0.5693 c -2.40263,0.10052 -4.72533,0.48091 -6.94822,1.09466 -3.36534,-0.54688 -6.88661,-0.24244 -10.22686,1.01174 -7.80087,2.93055 -12.96595,10.39405 -12.95962,18.72665 l 0.10712,141.00793 -74.734022,74.14206 c -7.837045,7.77584 -7.887215,20.42993 -0.112326,28.26792 7.774889,7.838 20.428979,7.88532 28.266975,0.11233 l 80.651873,-80.01288 c 3.78719,-3.75591 5.91461,-8.87134 5.91056,-14.20531 l -0.0729,-96.00469 66.85467,76.55298 -3.12078,114.02266 c -0.30192,11.03539 8.39826,20.22682 19.43366,20.52779 0.19169,0.006 0.38243,0.007 0.57316,0.007 10.77706,-0.008 19.65826,-8.59805 19.95463,-19.44081 l 3.335,-121.83351 c 0.012,-0.43747 -0.008,-0.87492 -0.0257,-1.31046 l 93.99602,121.52578 c 25.41062,11.46262 33.61901,12.48269 64.10374,3.08419 l -1.12596,-14.43364 -23.01778,3.43076 c -9.89754,3.45857 -21.16761,0.0545 -33.32259,-7.77418 z m -121.54722,-278.48422 24.74631,24.95244 -44.50745,1.85576 z m 57.92993,85.29945 10.28228,120.66072 -87.77653,-117.42956 z m -103.61287,4.32045 6.56452,-0.27448 32.11452,44.56513 z" /></g>
</svg>