<?xml version="1.0" encoding="utf-8"?>
<!-- Generator: Adobe Illustrator 15.0.0, SVG Export Plug-In . SVG Version: 6.00 Build 0)  -->
<!DOCTYPE svg PUBLIC "-//W3C//DTD SVG 1.1//EN" "http://www.w3.org/Graphics/SVG/1.1/DTD/svg11.dtd">
<svg version="1.1" xmlns="http://www.w3.org/2000/svg" xmlns:xlink="http://www.w3.org/1999/xlink" x="0px" y="0px" width="580px"
	 height="580px" viewBox="0 0 580 580" enable-background="new 0 0 580 580" xml:space="preserve">
<g id="Layer_2">
	<g id="g1327">
		<path id="path1329" fill="#111111" stroke="#EEEEEE" stroke-width="3.408" d="M66.275,1.768
			c-41.335,0-64.571,21.371-64.571,65.036v450.123c0,40.844,20.894,62.229,62.192,62.229H515.92
			c41.307,0,62.229-20.316,62.229-62.229V66.804c0-42.601-20.923-65.036-63.522-65.036C514.624,1.768,66.133,1.625,66.275,1.768z"/>
	</g>
</g>
<g id="svg2" inkscape:version="0.46" sodipodi:docname="waste_bin.svg" sodipodi:version="0.32" xmlns:cc="http://creativecommons.org/ns#" xmlns:dc="http://purl.org/dc/elements/1.1/" xmlns:rdf="http://www.w3.org/1999/02/22-rdf-syntax-ns#" xmlns:inkscape="http://www.inkscape.org/namespaces/inkscape" xmlns:svg="http://www.w3.org/2000/svg" xmlns:sodipodi="http://sodipodi.sourceforge.net/DTD/sodipodi-0.dtd" inkscape:output_extension="org.inkscape.output.svg.inkscape">
	<g>
		<circle fill="#FFFFFF" cx="394.408" cy="168.49" r="37.914"/>
		<path fill="#FFFFFF" d="M401.63,463.979l-44.941-60.219c10.96-1.572,18.929-11.42,17.985-22.596l-15.246-180.543
			c-0.415-4.921-2.546-9.539-6.021-13.048l-81.045-81.847c-4.329-4.371-10.344-6.627-16.488-6.188
			c-6.136,0.444-11.771,3.548-15.425,8.498l-51.95,70.36l-74.616-99.981l-7.107,13.355l66.196,92.006l-14.402,0.589
			c-2.532,0.104-4.98,0.503-7.323,1.148c-3.546-0.579-7.257-0.261-10.778,1.058c-8.223,3.082-13.672,10.943-13.672,19.724v148.596
			l-78.815,78.072c-8.265,8.188-8.328,21.523-0.141,29.789s21.522,8.326,29.788,0.141l85.056-84.254
			c3.994-3.955,6.24-9.344,6.24-14.965V262.503l70.391,80.726l-3.38,120.156c-0.327,11.629,8.834,21.322,20.463,21.648
			c0.202,0.006,0.403,0.008,0.604,0.008c11.357,0,20.723-9.045,21.044-20.471l3.612-128.387c0.013-0.461-0.008-0.922-0.026-1.381
			L401.63,501.586l136.627-16.545v-21.063H401.63z M259.732,152.843l26.058,26.315l-46.904,1.92L259.732,152.843z M320.711,242.779
			l10.739,127.162l-92.406-123.819L320.711,242.779z M211.519,247.249l6.918-0.284l33.807,46.989L211.519,247.249z"/>
	</g>
</g>
</svg>
