<?xml version="1.0" encoding="UTF-8" standalone="no"?>
<!-- Generator: Adobe Illustrator 15.0.0, SVG Export Plug-In . SVG Version: 6.00 Build 0)  -->

<svg
   xmlns:dc="http://purl.org/dc/elements/1.1/"
   xmlns:cc="http://creativecommons.org/ns#"
   xmlns:rdf="http://www.w3.org/1999/02/22-rdf-syntax-ns#"
   xmlns:svg="http://www.w3.org/2000/svg"
   xmlns="http://www.w3.org/2000/svg"
   xmlns:sodipodi="http://sodipodi.sourceforge.net/DTD/sodipodi-0.dtd"
   xmlns:inkscape="http://www.inkscape.org/namespaces/inkscape"
   version="1.1"
   x="0px"
   y="0px"
   width="580px"
   height="580px"
   viewBox="0 0 580 580"
   enable-background="new 0 0 580 580"
   xml:space="preserve"
   id="svg4643"
   sodipodi:docname="ice_hockey_21013.svg"
   inkscape:version="0.92.3 (2405546, 2018-03-11)"><metadata
   id="metadata4649"><rdf:RDF><cc:Work
       rdf:about=""><dc:format>image/svg+xml</dc:format><dc:type
         rdf:resource="http://purl.org/dc/dcmitype/StillImage" /><dc:title></dc:title></cc:Work></rdf:RDF></metadata><defs
   id="defs4647" /><sodipodi:namedview
   pagecolor="#ffffff"
   bordercolor="#666666"
   borderopacity="1"
   objecttolerance="10"
   gridtolerance="10"
   guidetolerance="10"
   inkscape:pageopacity="0"
   inkscape:pageshadow="2"
   inkscape:window-width="1752"
   inkscape:window-height="1090"
   id="namedview4645"
   showgrid="false"
   inkscape:zoom="0.16794594"
   inkscape:cx="290"
   inkscape:cy="290"
   inkscape:window-x="0"
   inkscape:window-y="0"
   inkscape:window-maximized="0"
   inkscape:current-layer="svg4643" />
<g
   id="Layer_2">
	<g
   id="g1327">
		<path
   id="path1329"
   fill="#111111"
   stroke="#EEEEEE"
   stroke-width="3.408"
   d="M66.275,1.768    c-41.335,0-64.571,21.371-64.571,65.036v450.123c0,40.844,20.894,62.229,62.192,62.229H515.92    c41.307,0,62.229-20.316,62.229-62.229V66.804c0-42.601-20.923-65.036-63.522-65.036C514.624,1.768,66.133,1.625,66.275,1.768z" />
	</g>
</g>
<g
   id="svg2"
   inkscape:version="0.46"
   sodipodi:docname="waste_bin.svg"
   sodipodi:version="0.32"
   inkscape:output_extension="org.inkscape.output.svg.inkscape"
   transform="matrix(0.9489349,-7.2088422e-4,7.2088422e-4,0.9489349,14.399687,15.424439)">
	<g
   id="g4640">
		<circle
   cx="394.40799"
   cy="168.49001"
   r="37.914001"
   id="circle4636"
   style="fill:#ffffff" />
		<path
   d="M 401.63,463.979 356.689,403.76 c 10.96,-1.572 18.929,-11.42 17.985,-22.596 L 359.428,200.621 c -0.415,-4.921 -2.546,-9.539 -6.021,-13.048 l -81.045,-81.847 c -4.329,-4.371 -10.344,-6.627 -16.488,-6.188 -6.136,0.444 -11.771,3.548 -15.425,8.498 l -51.95,70.36 -74.616,-99.981 -7.107,13.355 66.196,92.006 -14.402,0.589 c -2.532,0.104 -4.98,0.503 -7.323,1.148 -3.546,-0.579 -7.257,-0.261 -10.778,1.058 -8.223,3.082 -13.672,10.943 -13.672,19.724 v 148.596 l -78.815,78.072 c -8.265,8.188 -8.328,21.523 -0.141,29.789 8.187,8.266 21.522,8.326 29.788,0.141 l 85.056,-84.254 c 3.994,-3.955 6.24,-9.344 6.24,-14.965 V 262.503 l 70.391,80.726 -3.38,120.156 c -0.327,11.629 8.834,21.322 20.463,21.648 0.202,0.006 0.403,0.008 0.604,0.008 11.357,0 20.723,-9.045 21.044,-20.471 l 3.612,-128.387 c 0.013,-0.461 -0.008,-0.922 -0.026,-1.381 L 401.63,501.586 538.257,485.041 V 463.978 H 401.63 Z m -141.898,-311.136 26.058,26.315 -46.904,1.92 z m 60.979,89.936 10.739,127.162 -92.406,-123.819 z m -109.192,4.47 6.918,-0.284 33.807,46.989 z"
   id="path4638"
   inkscape:connector-curvature="0"
   style="fill:#ffffff" />
	</g>
</g>
<path
   inkscape:connector-curvature="0"
   id="path5997"
   d="m 19.215793,425.12554 66.421749,66.36941 c 0,0 4.449042,5.44354 9.735569,0.26171 l 5.286509,-5.28654 9.78794,9.84027 c 0,0 -15.754893,20.25628 -30.829329,8.58406 L 9.6372381,434.86112 Z"
   style="fill:#ffffff;stroke-width:1.31466115" /><path
   inkscape:connector-curvature="0"
   id="path5997-9"
   d="m 196.50472,482.5246 93.89745,0.126 c 0,0 6.99389,0.71535 7.08077,-6.68675 l 0.013,-7.47627 13.87916,0.0611 c 0,0 3.13875,25.46923 -15.77814,27.84213 l -99.00486,-0.20888 z"
   style="fill:#ffffff;stroke-width:1.31466115" /></svg>