<?xml version="1.0" encoding="utf-8"?>
<!-- Generator: Adobe Illustrator 15.0.0, SVG Export Plug-In . SVG Version: 6.00 Build 0)  -->
<!DOCTYPE svg PUBLIC "-//W3C//DTD SVG 1.1//EN" "http://www.w3.org/Graphics/SVG/1.1/DTD/svg11.dtd">
<svg version="1.1" xmlns="http://www.w3.org/2000/svg" xmlns:xlink="http://www.w3.org/1999/xlink" x="0px" y="0px" width="580px"
	 height="580px" viewBox="0 0 580 580" enable-background="new 0 0 580 580" xml:space="preserve">
<g id="Layer_2">
	<g id="g1327">
		<path id="path1329" fill="#111111" stroke="#EEEEEE" stroke-width="3.408" d="M66.275,1.768
			c-41.335,0-64.571,21.371-64.571,65.036v450.123c0,40.844,20.894,62.229,62.192,62.229H515.92
			c41.307,0,62.229-20.316,62.229-62.229V66.804c0-42.601-20.923-65.036-63.522-65.036C514.624,1.768,66.133,1.625,66.275,1.768z"/>
	</g>
</g>
<g id="svg2" inkscape:version="0.46" sodipodi:docname="waste_bin.svg" sodipodi:version="0.32" xmlns:cc="http://creativecommons.org/ns#" xmlns:dc="http://purl.org/dc/elements/1.1/" xmlns:rdf="http://www.w3.org/1999/02/22-rdf-syntax-ns#" xmlns:inkscape="http://www.inkscape.org/namespaces/inkscape" xmlns:svg="http://www.w3.org/2000/svg" xmlns:sodipodi="http://sodipodi.sourceforge.net/DTD/sodipodi-0.dtd" inkscape:output_extension="org.inkscape.output.svg.inkscape">
	<g>
		<path fill="#FFFFFF" d="M498.636,277.176h-39.292l-108.186-92.729l-60.176,18.745l-0.271,22.687h-25.375v-13.809
			c0-3.271-2.647-5.919-5.918-5.919s-5.919,2.647-5.919,5.919v46.361c0,3.271,2.647,5.919,5.919,5.919s5.918-2.647,5.918-5.919
			v-25.646h25.293l-0.526,44.391H179.26l-48.078-92.729l-50.31,20.716v72.036c-19.114,0.267-34.53,15.817-34.53,34.996
			c0,19.34,15.675,35.016,35.021,35.016h37.755c3.861-21.549,22.704-37.976,45.356-37.976s41.495,16.427,45.356,37.976h139.131
			c3.861-21.549,22.704-37.976,45.356-37.976c22.651,0,41.494,16.427,45.355,37.976h58.962c19.34,0,35.021-15.676,35.021-35.016
			C533.657,292.852,517.976,277.176,498.636,277.176z"/>
		<path fill="#FFFFFF" d="M164.475,315.153c-19.38,0-35.599,13.779-39.368,32.057c-0.543,2.636-0.833,5.352-0.833,8.138
			c0,22.173,18.034,40.206,40.2,40.206s40.2-18.033,40.2-40.206c0-2.786-0.289-5.502-0.833-8.138
			C200.074,328.933,183.855,315.153,164.475,315.153z"/>
		<path fill="#FFFFFF" d="M394.318,315.153c-19.381,0-35.6,13.779-39.368,32.057c-0.543,2.636-0.832,5.352-0.832,8.138
			c0,22.173,18.033,40.206,40.2,40.206c22.166,0,40.2-18.033,40.2-40.206c0-2.786-0.289-5.502-0.833-8.138
			C429.917,328.933,413.698,315.153,394.318,315.153z"/>
	</g>
</g>
</svg>
