<?xml version="1.0" encoding="utf-8"?>
<!-- Generator: Adobe Illustrator 15.0.0, SVG Export Plug-In . SVG Version: 6.00 Build 0)  -->
<!DOCTYPE svg PUBLIC "-//W3C//DTD SVG 1.1//EN" "http://www.w3.org/Graphics/SVG/1.1/DTD/svg11.dtd">
<svg version="1.1" xmlns="http://www.w3.org/2000/svg" xmlns:xlink="http://www.w3.org/1999/xlink" x="0px" y="0px" width="580px"
	 height="580px" viewBox="0 0 580 580" enable-background="new 0 0 580 580" xml:space="preserve">
<g id="Layer_2">
	<g id="g1327">
		<path id="path1329" fill="#111111" stroke="#EEEEEE" stroke-width="3.408" d="M66.275,1.768
			c-41.335,0-64.571,21.371-64.571,65.036v450.123c0,40.844,20.894,62.229,62.192,62.229H515.92
			c41.307,0,62.229-20.316,62.229-62.229V66.804c0-42.601-20.923-65.036-63.522-65.036C514.624,1.768,66.133,1.625,66.275,1.768z"/>
	</g>
</g>
<g id="svg2" inkscape:version="0.46" sodipodi:docname="waste_bin.svg" sodipodi:version="0.32" xmlns:cc="http://creativecommons.org/ns#" xmlns:dc="http://purl.org/dc/elements/1.1/" xmlns:rdf="http://www.w3.org/1999/02/22-rdf-syntax-ns#" xmlns:inkscape="http://www.inkscape.org/namespaces/inkscape" xmlns:svg="http://www.w3.org/2000/svg" xmlns:sodipodi="http://sodipodi.sourceforge.net/DTD/sodipodi-0.dtd" inkscape:output_extension="org.inkscape.output.svg.inkscape">
	<path fill-rule="evenodd" clip-rule="evenodd" fill="#FFFFFF" d="M341.445,203.829c-47.777-28.505-99.5-62.198-148.351-92.246
		c-5.789-3.563-16.993-12.781-21.849-12.48c-10.638,0.659-21.919,10.47-31.606,11.574c38.269,45.426,77.462,88.854,115.736,134.273
		c-33.347,15.501-68.961,32.315-102.232,47.677c-5.135,2.369-11.219,6.295-14.824,6.706c-3.437,0.394-11.275-4.292-15.778-6.382
		c-11.705-5.431-19.624-9.573-31.049-14.871c-5.037-2.339-12.178-6.656-16.342-6.179c-7.55,0.869-12.275,5.305-20.112,8.006
		c7.604,8.768,13.461,18.53,20.605,28.298c5.958,8.146,17.383,19.313,20.602,28.297c1.747,4.874,0.855,11.664,1.273,17.458
		c1.295,18.068,2.675,35.069,4.584,52.723c6.683-4.033,14.145-3.036,20.317-7.44c2.854-2.034,6.093-11.111,7.925-15.062
		c7.692-16.579,14.321-33.162,22.383-47.24c41.06-10.406,83.152-23.044,124.14-33.297c-0.015,59.338-1.896,117.804-1.656,177.26
		c10.724-3.927,21.447-7.854,32.172-11.78c19.012-55.667,35.111-110.078,53.486-166.798c1.912-5.901,5.303-21.069,8.625-23.643
		c2.877-2.225,8.039-2.457,11.494-3.567c64.627-20.777,118.762-56.498,143.971-96.245
		C474.576,163.941,411.223,176.96,341.445,203.829z"/>
</g>
</svg>
