<?xml version="1.0" encoding="utf-8"?>
<!-- Generator: Adobe Illustrator 15.0.0, SVG Export Plug-In . SVG Version: 6.00 Build 0)  -->
<!DOCTYPE svg PUBLIC "-//W3C//DTD SVG 1.1//EN" "http://www.w3.org/Graphics/SVG/1.1/DTD/svg11.dtd">
<svg version="1.1" xmlns="http://www.w3.org/2000/svg" xmlns:xlink="http://www.w3.org/1999/xlink" x="0px" y="0px" width="580px"
	 height="580px" viewBox="0 0 580 580" enable-background="new 0 0 580 580" xml:space="preserve">
<g id="Layer_2">
	<g id="g1327">
		<path id="path1329" fill="#111111" stroke="#EEEEEE" stroke-width="3.408" d="M66.275,1.768
			c-41.335,0-64.571,21.371-64.571,65.036v450.123c0,40.844,20.894,62.229,62.192,62.229H515.92
			c41.307,0,62.229-20.316,62.229-62.229V66.804c0-42.601-20.923-65.036-63.522-65.036C514.624,1.768,66.133,1.625,66.275,1.768z"/>
	</g>
</g>
<g id="svg2" inkscape:output_extension="org.inkscape.output.svg.inkscape" inkscape:version="0.46" sodipodi:docname="waste_bin.svg" sodipodi:version="0.32" xmlns:inkscape="http://www.inkscape.org/namespaces/inkscape" xmlns:rdf="http://www.w3.org/1999/02/22-rdf-syntax-ns#" xmlns:svg="http://www.w3.org/2000/svg" xmlns:sodipodi="http://sodipodi.sourceforge.net/DTD/sodipodi-0.dtd" xmlns:cc="http://creativecommons.org/ns#" xmlns:dc="http://purl.org/dc/elements/1.1/">
	<g>
		<path fill="#FFFFFF" d="M222.028,381.071c37.035-27.355,97.891-58.02,100.899-94.548c-21.604-51.371-12.075-90.771,30.139-119.464
			c-7.351-67.754-59.993-44.204-100.99-35.661c2.062,3.79,4.215,7.55,6.284,11.337l-102.393-6.278
			c-12.608,1.212-23.505,7.082-30.821,22.698c-4.167,16.493-4.369,54.659-6.553,81.996l59.016,3.352l2.911-77.814l89.051,6.036
			c1.618,12.993-1.6,27.557-14.567,45.288c-6.301-6.266-13.272-10.17-23.126-3.905l-54.653,36.587l-58.866-4.576
			c0.347,14.119-3.612,35.133,1.096,42.269l-58.663,39.248c-1.862,6.489,0.928,18.579,15.895,22.501
			C111.207,325.688,177.792,287.047,222.028,381.071z"/>
		<path fill="#FFFFFF" d="M120.928,155.215c12.533-23.872,32.169-26.283,53.66-23.093l15.082-7.309l-13.941-20.667l-25.355,12.278
			l-10.938-16.485l26.35-11.803c-11.6-13.693-28.274-18.095-51.372-7.247c-12.589,9.695-25.964,19.602-17.45,49.535
			C101.157,141.754,109.175,150.713,120.928,155.215z"/>
		<path fill="#FFFFFF" d="M319.273,223.727c-3.838,18.975-0.056,38.308,10.647,54.438c13.466,20.293,36.061,32.409,60.443,32.41
			c0.001,0,0.001,0,0.002,0c14.257,0,28.094-4.182,40.016-12.093c16.13-10.704,27.127-27.048,30.964-46.023
			c3.837-18.974,0.056-38.307-10.647-54.437c-13.466-20.294-36.062-32.41-60.443-32.41c-14.258,0-28.096,4.182-40.017,12.093
			C334.107,188.408,323.11,204.752,319.273,223.727z M364.408,199.059c7.708-5.115,16.646-7.818,25.847-7.818
			c15.771,0,30.384,7.832,39.088,20.951c6.919,10.426,9.363,22.922,6.883,35.187s-9.588,22.829-20.014,29.748
			c-7.709,5.115-16.646,7.819-25.847,7.818c-15.772,0-30.385-7.832-39.089-20.951c-6.919-10.426-9.363-22.922-6.883-35.187
			S353.981,205.978,364.408,199.059z"/>
		<path fill="#FFFFFF" d="M185.662,460.906c15.178-10.707,25.537-26.531,29.234-44.813c3.837-18.975,0.056-38.308-10.647-54.438
			c-13.466-20.294-36.062-32.409-60.443-32.409c-14.258,0-28.095,4.181-40.017,12.092c-33.297,22.097-42.412,67.163-20.316,100.461
			c13.466,20.293,36.061,32.408,60.443,32.409c0.001,0,0.001,0,0.002,0c6.871,0,13.642-0.98,20.151-2.873
			c-49.476,23.264-81.272,33.864-81.272,33.864h436.923V211.767C407.957,336.583,275.259,416.498,185.662,460.906z M143.916,448.579
			c-15.771-0.001-30.384-7.833-39.089-20.95c-14.281-21.523-8.39-50.653,13.133-64.936c7.708-5.115,16.646-7.819,25.846-7.819
			c15.771,0,30.383,7.832,39.088,20.951c6.918,10.427,9.363,22.923,6.882,35.188c-2.48,12.265-9.588,22.829-20.014,29.747
			C162.053,445.876,153.115,448.579,143.916,448.579z"/>
	</g>
</g>
</svg>
