<?xml version="1.0" encoding="utf-8"?>
<!-- Generator: Adobe Illustrator 15.0.0, SVG Export Plug-In . SVG Version: 6.00 Build 0)  -->
<!DOCTYPE svg PUBLIC "-//W3C//DTD SVG 1.1//EN" "http://www.w3.org/Graphics/SVG/1.1/DTD/svg11.dtd">
<svg version="1.1" id="Layer_1" xmlns="http://www.w3.org/2000/svg" xmlns:xlink="http://www.w3.org/1999/xlink" x="0px" y="0px"
	 width="580px" height="580px" viewBox="0 0 580 580" enable-background="new 0 0 580 580" xml:space="preserve">
<g id="Layer_2">
	<g id="g1327">
		<path id="path1329" fill="#111111" stroke="#EEEEEE" stroke-width="3.408" d="M66.275,1.768
			c-41.335,0-64.571,21.371-64.571,65.036v450.123c0,40.844,20.895,62.229,62.192,62.229h452.024
			c41.307,0,62.229-20.315,62.229-62.229V66.804c0-42.602-20.923-65.036-63.521-65.036C514.625,1.768,66.133,1.625,66.275,1.768z"/>
	</g>
</g>
<g id="svg2" sodipodi:version="0.32" inkscape:version="0.46" sodipodi:docname="waste_bin.svg" xmlns:cc="http://creativecommons.org/ns#" xmlns:sodipodi="http://sodipodi.sourceforge.net/DTD/sodipodi-0.dtd" xmlns:svg="http://www.w3.org/2000/svg" xmlns:inkscape="http://www.inkscape.org/namespaces/inkscape" xmlns:rdf="http://www.w3.org/1999/02/22-rdf-syntax-ns#" xmlns:dc="http://purl.org/dc/elements/1.1/" inkscape:output_extension="org.inkscape.output.svg.inkscape">
	<g>
		<g>
			<path fill="#FFFFFF" d="M95.278,175.097c30.204,0.606,68.915,6.354,103.55,15.372c6.505,1.692,14.447,3.917,22.429,6.532
				c0.707-8.863,0.638-17.313-0.168-25.282c-0.403,0.009-0.811,0.018-1.213,0.018c-23.627,0-43.957-15.994-63.793-31.599
				c-18.54-14.585-37.712-29.667-59.334-31.473l0.06-0.704c-0.57,0.27-1.144,0.534-1.712,0.813
				c-26.666,13.089-46.63,35.778-56.211,63.891c-1.66,4.871-2.967,9.806-3.936,14.77C45.183,178.639,65.39,174.494,95.278,175.097z"
				/>
			<path fill="#FFFFFF" d="M243.991,159.444c-9.204-18.694-23.009-33.654-39.382-44.201c5.715,6.271,10.489,13.57,14.206,21.801
				c3.771,8.353,6.447,17.565,8.001,27.41c5.314-0.804,10.804-2.555,16.517-5.467l3.048,5.981c-6.475,3.3-12.69,5.275-18.688,6.179
				c0.93,8.961,0.973,18.378,0.106,28.094c11.201,4.003,21.709,8.723,27.539,13.771
				C256.124,194.686,252.316,176.354,243.991,159.444z"/>
			<path fill="#FFFFFF" d="M220.215,164.978c-5.043-31.616-22.41-54.711-49.659-64.369c-20.441-5.004-42.383-4.281-63.236,3.047
				c19.37,4.828,36.384,18.202,52.915,31.206C179.884,150.32,198.724,165.138,220.215,164.978z"/>
			<path fill="#FFFFFF" d="M140.495,244.393c30.02-11.844,56.288-22.202,74.776-14.853c2.438-8.437,4.229-17.067,5.287-25.675
				c-6.748-2.266-14.546-4.59-23.422-6.901c-34.155-8.893-72.283-14.559-101.993-15.156c-34.148-0.688-55.521,5.198-60.195,16.573
				l-1.515-0.621c-2.012,20.341,1.664,40.883,10.915,59.67l-2.028,0.998l0.072,0.146l2.024-1.001
				c1.316,2.663,2.729,5.246,4.225,7.755C77.596,269.195,110.986,256.033,140.495,244.393z"/>
			<path fill="#FFFFFF" d="M192.156,277.957c8.814-12.212,16.02-26.662,21.108-41.967c-16.167-6.709-42.519,3.684-70.307,14.646
				c-28.449,11.224-60.415,23.822-89.626,21.897c18.869,26.682,48.251,43.097,79.565,46.338l-0.194-1.587
				C160.867,313.845,180.579,293.999,192.156,277.957z"/>
			<path fill="#FFFFFF" d="M219.134,239.582c-5.275,15.409-12.617,29.948-21.534,42.305c-8.412,11.655-17.967,21.162-28.396,28.253
				c-5.504,3.742-11.191,6.762-17.022,9.052c13.893-0.979,27.818-4.592,41.062-11.092c15.479-7.598,28.692-18.436,38.936-31.686
				C230.924,258.09,226.648,245.989,219.134,239.582z"/>
			<path fill="#FFFFFF" d="M227.034,206.14c-1.183,8.94-3.121,17.896-5.728,26.644c9.005,6.3,14.531,17.866,16.786,35.188
				c4.656-7.356,8.48-15.312,11.359-23.761c2.666-7.82,4.437-15.799,5.323-23.813l-1.435,0.521
				C252.13,217.594,243.465,212.176,227.034,206.14z"/>
		</g>
		<g>
			<path fill="#FFFFFF" d="M343.759,100.304c-20.096,34.137-24.752,72.179-15.559,103.001l1.281,3.998
				c0.598,1.736,1.229,3.439,1.922,5.109c7.143,20.61,13.932,60.196-12.902,107.354l2.951,1.746l3.492,2.049l2.969,1.746
				c25.281-41.602,58.398-56.587,80.451-61.942c3.096-0.084,6.207-0.32,9.326-0.708c3.879-0.506,7.775-1.249,11.664-2.227
				l0.211-0.051c30.334-7.708,59.959-29.887,79.389-62.902c33.664-57.252,23.992-125.409-21.623-152.243
				C441.719,18.402,377.431,43.052,343.759,100.304z M350.69,241.348c4.385,4.259,9.274,8.02,14.682,11.19
				c4.791,2.825,9.799,5.076,14.961,6.789c-15.576,7.852-27.694,18.425-36.785,28.622
				C348.101,274.92,351.491,258.998,350.69,241.348z M352.688,103.88c30.696-52.176,88.885-74.886,129.971-50.708
				c41.086,24.169,49.513,86.061,18.814,138.243c-30.695,52.185-88.894,74.886-129.979,50.717S321.993,156.063,352.688,103.88z"/>
			<path fill="#FFFFFF" d="M335.638,322.027c0,0-13.865,1.637-16.994-10.438l-67.75,108.348c0,0-7.902,7.371-8.543,9.227
				c0,0,12.582,17.187,25.595,15.5c0,0,0.109-1.713,2.438-7.909L335.638,322.027z"/>
		</g>
		<path id="path10456" fill="#FFFFFF" d="M450.016,360.725c-53.588,0-97.085,41.42-97.085,92.451
			c0,51.029,43.494,92.438,97.085,92.438c53.59,0,97.085-41.408,97.085-92.438C547.101,402.145,503.604,360.725,450.016,360.725z
			 M442.73,368.405l20.254,16.746l-5.355,21.371l-22.498,10.453l-28.465-7.544l-4.229-17.4l10.916-16.477L442.73,368.405z
			 M493.162,377.337l26.073,21.383l-7.342,26.736l-23.829,3.563l-22.295-22.295l3.563-20.253L493.162,377.337z M399.325,381.306
			c-0.927,3.641-1.858,7.288-2.719,10.928l-13.104,3.372c1.06-1.919,2.393-3.702,3.98-5.354c1.39-1.788,2.843-3.519,4.895-4.907
			C394.43,383.756,396.479,382.497,399.325,381.306z M403.497,416.39l26.266,7.341l6.688,28.453l-27.393,21.179l-23.829-0.666
			l-6.021-31.633L403.497,416.39z M515.198,432.527l13.362,22.509l-18.46,30.505l-23.163-2.188l-8.47-19.386l14.231-27.403
			L515.198,432.527z M358.027,440.207l13.838,4.433l7.341,30.708l-8.933,16.082c-2.116,0.856-4.106-1.394-6.225-6.022
			c-2.315-5.029-5.426-15.157-6.483-22.701C356.572,455.094,356.638,447.685,358.027,440.207z M541.078,452.578
			c0.066,7.678-0.534,14.163-1.792,20.717c-1.521,6.482-3.773,12.377-6.021,17.142c-2.248,4.498-4.305,7.683-6.688,9.8
			l-10.713-12.45l18.721-31.632L541.078,452.578z M441.738,457.676l29.852,7.814l9.528,22.431l-16.477,21.642l-37.191-7.804
			l-12.247-24.494L441.738,457.676z M424.405,507.307l39.447,6.957l11.312,17.333l-2.842,7.611
			c-5.493,0.799-11.061,1.392-16.95,1.523c-6.088,0.132-12.569-0.006-18.461-0.666c-6.286-0.926-12.112-2.584-17.208-4.24
			c-5.096-1.785-8.998-3.766-12.438-6.214l-0.464-8.932L424.405,507.307z"/>
	</g>
</g>
</svg>
