<?xml version="1.0" encoding="utf-8"?>
<!-- Generator: Adobe Illustrator 15.0.0, SVG Export Plug-In . SVG Version: 6.00 Build 0)  -->
<!DOCTYPE svg PUBLIC "-//W3C//DTD SVG 1.1//EN" "http://www.w3.org/Graphics/SVG/1.1/DTD/svg11.dtd">
<svg version="1.1" xmlns="http://www.w3.org/2000/svg" xmlns:xlink="http://www.w3.org/1999/xlink" x="0px" y="0px" width="580px"
	 height="580px" viewBox="0 0 580 580" enable-background="new 0 0 580 580" xml:space="preserve">
<g id="Layer_2">
	<g id="g1327">
		<path id="path1329" fill="#111111" stroke="#EEEEEE" stroke-width="3.408" d="M66.275,1.768
			c-41.335,0-64.571,21.371-64.571,65.036v450.123c0,40.844,20.894,62.229,62.192,62.229H515.92
			c41.307,0,62.229-20.316,62.229-62.229V66.804c0-42.601-20.923-65.036-63.522-65.036C514.624,1.768,66.133,1.625,66.275,1.768z"/>
	</g>
</g>
<g id="svg2" inkscape:output_extension="org.inkscape.output.svg.inkscape" xmlns:cc="http://creativecommons.org/ns#" xmlns:svg="http://www.w3.org/2000/svg" xmlns:sodipodi="http://sodipodi.sourceforge.net/DTD/sodipodi-0.dtd" xmlns:rdf="http://www.w3.org/1999/02/22-rdf-syntax-ns#" xmlns:dc="http://purl.org/dc/elements/1.1/" xmlns:inkscape="http://www.inkscape.org/namespaces/inkscape" sodipodi:docname="waste_bin.svg" inkscape:version="0.46" sodipodi:version="0.32">
	<g>
		<g>
			<path fill="#FFFFFF" d="M288.095,287.382c7.272,0.001,13.601-2.625,18.985-7.875c5.386-5.25,8.078-11.646,8.079-19.188
				c-0.001-7.534-2.693-13.926-8.079-19.176c-5.385-5.25-11.713-7.875-18.985-7.875c-7.534,0-13.926,2.625-19.176,7.875
				c-5.25,5.25-7.874,11.643-7.874,19.176c0,7.542,2.625,13.938,7.874,19.188C274.168,284.757,280.561,287.383,288.095,287.382z"/>
			<path fill="#FFFFFF" d="M397.143,277.684c-4.305,0-8.072,1.75-11.301,5.25l-31.5,31.094l-29.887-17.365
				c-3.229-2.414-5.517-3.491-6.864-3.229h-8.89h-42.402h-8.89c-1.348-0.263-3.636,0.814-6.865,3.229l-29.886,17.365l-31.5-31.094
				c-3.229-3.5-6.996-5.25-11.302-5.25c-9.152,0-13.729,4.712-13.729,14.136c0,3.501,1.211,6.733,3.636,9.698l39.979,39.979
				c3.229,3.229,6.729,4.844,10.5,4.844c2.416,0,5.242-0.94,8.479-2.822l26.25-14.542v71.479l-39.979,122.759
				c-0.813,1.89-1.221,3.775-1.221,5.657c0,5.382,2.02,10.025,6.058,13.933c1.848,1.788,3.84,3.162,5.972,4.132
				c2.752,1.411,5.747,2.122,8.987,2.122c9.688,0,16.28-4.979,19.781-14.937l34.93-104.778l34.93,104.778
				c3.501,9.958,10.093,14.937,19.78,14.937c3.242,0,6.237-0.712,8.99-2.123c2.131-0.97,4.122-2.344,5.97-4.131
				c4.038-3.907,6.058-8.551,6.058-13.933c0-1.882-0.407-3.768-1.221-5.657l-39.979-122.759v-71.479l26.251,14.542
				c3.236,1.882,6.063,2.822,8.479,2.822c3.771,0,7.271-1.614,10.5-4.844l39.979-39.979c2.425-2.965,3.637-6.197,3.637-9.698
				C410.872,282.396,406.295,277.684,397.143,277.684z"/>
		</g>
		<path fill="#FFFFFF" d="M548,196.191c0-62.546-115.511-165.25-258-165.25S32,133.645,32,196.191c0,3.491,0.38,6.942,1.084,10.353
			c7.075-5.831,14.996-11.4,23.672-16.674l199.522,103.634l-52.313-152.105c28.28-4.195,58.353-6.457,89.536-6.457
			c26.717,0,52.618,1.66,77.274,4.774l-52.893,153.789l206.334-107.172c8.508,4.848,16.361,9.964,23.479,15.325
			C547.892,199.845,548,198.024,548,196.191z M245.722,281.26L62.86,186.279c35.248-20.063,81.836-35.458,135.079-43.952
			L245.722,281.26z M328.438,281.26l48.405-140.742c55.195,7.569,103.861,22.464,141.061,42.332L328.438,281.26z"/>
	</g>
</g>
</svg>
