<?xml version="1.0" encoding="utf-8"?>
<!-- Generator: Adobe Illustrator 15.0.0, SVG Export Plug-In . SVG Version: 6.00 Build 0)  -->
<!DOCTYPE svg PUBLIC "-//W3C//DTD SVG 1.1//EN" "http://www.w3.org/Graphics/SVG/1.1/DTD/svg11.dtd">
<svg version="1.1" xmlns="http://www.w3.org/2000/svg" xmlns:xlink="http://www.w3.org/1999/xlink" x="0px" y="0px" width="580px"
	 height="580px" viewBox="0 0 580 580" enable-background="new 0 0 580 580" xml:space="preserve">
<g id="Layer_2">
	<g id="g1327">
		<path id="path1329" fill="#111111" stroke="#EEEEEE" stroke-width="3.408" d="M66.275,1.768
			c-41.335,0-64.571,21.371-64.571,65.036v450.123c0,40.844,20.894,62.229,62.192,62.229H515.92
			c41.307,0,62.229-20.316,62.229-62.229V66.804c0-42.601-20.923-65.036-63.522-65.036C514.624,1.768,66.133,1.625,66.275,1.768z"/>
	</g>
</g>
<g id="svg2" inkscape:output_extension="org.inkscape.output.svg.inkscape" inkscape:version="0.46" sodipodi:docname="waste_bin.svg" sodipodi:version="0.32" xmlns:inkscape="http://www.inkscape.org/namespaces/inkscape" xmlns:rdf="http://www.w3.org/1999/02/22-rdf-syntax-ns#" xmlns:svg="http://www.w3.org/2000/svg" xmlns:sodipodi="http://sodipodi.sourceforge.net/DTD/sodipodi-0.dtd" xmlns:cc="http://creativecommons.org/ns#" xmlns:dc="http://purl.org/dc/elements/1.1/">
	<g id="g16714">
		
			<path id="path7488" inkscape:connector-curvature="0" sodipodi:nodetypes="ssssscssccssssssccssssccssssscccssc" opacity="0.3" fill="#FFFFFF" enable-background="new    " d="
			M277.507,52.637c-27.596,0-49.971,22.376-49.971,49.972c0,27.597,22.375,49.972,49.971,49.972
			c27.596,0,49.971-22.375,49.971-49.972C327.479,75.013,305.104,52.637,277.507,52.637z M133.841,152.58l12.493,49.971
			c6.246,24.986,21.178,24.986,39.82,24.986h41.383c14.835,24.986,7.856,61.756,12.493,99.942h-22.644
			c-24.986,0-64.806,24.986-39.821,74.958l37.479,74.955c24.986,49.972,62.464,12.494,49.972-12.492l-37.479-74.956
			c-6.246-12.493,6.587-12.493,12.493-12.493c24.986,0,49.971,0,49.971,0h11.688c0,0,29.596,65.636,64.415,110.63
			c12.859,16.64,27.108,39.283,44.944,39.283c12.494,0,33.893-19.324,11.104-46.505c-42.652-50.899-69.687-103.408-69.687-128.394
			c0-29.061-5.124-90.281-12.493-124.928h37.479c12.199,24.449,31.23,62.464,31.23,62.464c13.812,23.911,43.726,22.106,43.726,0
			c0-3.025,0-9.711-3.488-16.91l-40.237-83.033c-2.586-5.319-6.343-12.493-24.984-12.493h-56.218h-89.011h-48.41l-18.739-62.464
			c-7.491-24.986-43.725-24.986-43.725,0C127.594,127.594,132.035,142.771,133.841,152.58z"/>
		
			<path id="path10527-1" inkscape:connector-curvature="0" sodipodi:nodetypes="ssssscssccsssssccssssccssssccssc" fill="#FFFFFF" d="
			M277.507,52.637c-27.596,0-49.971,22.376-49.971,49.972c0,27.597,22.375,49.972,49.971,49.972
			c27.596,0,49.971-22.375,49.971-49.972C327.479,75.013,305.104,52.637,277.507,52.637z M133.841,152.58l12.493,49.971
			c6.246,24.986,21.178,24.986,39.82,24.986h41.383c14.835,24.986,7.856,61.756,12.493,99.942h-22.644
			c-24.986,0-64.806,24.986-39.821,74.958l37.479,74.955c24.986,49.972,62.464,12.494,49.972-12.492l-37.479-74.956
			c-6.246-12.493,6.587-12.493,12.493-12.493h61.659c0,0,29.596,65.636,64.415,110.63c12.859,16.64,27.108,39.283,44.944,39.283
			c12.494,0,33.893-19.324,11.104-46.505c-42.652-50.899-69.687-103.408-69.687-128.394c0-29.061-5.124-90.281-12.493-124.928
			h37.479c12.199,24.449,31.23,62.464,31.23,62.464c13.812,23.911,43.726,22.106,43.726,0c0-3.025,0-9.711-3.488-16.91
			l-40.237-83.033c-2.586-5.319-6.343-12.493-24.984-12.493H190.058l-18.739-62.464c-7.491-24.986-43.725-24.986-43.725,0
			C127.594,127.594,132.035,142.771,133.841,152.58z"/>
	</g>
</g>
</svg>
