<?xml version="1.0" encoding="UTF-8" standalone="no"?>
<!-- Generator: Adobe Illustrator 15.0.0, SVG Export Plug-In . SVG Version: 6.00 Build 0)  -->

<svg
   xmlns:dc="http://purl.org/dc/elements/1.1/"
   xmlns:cc="http://creativecommons.org/ns#"
   xmlns:rdf="http://www.w3.org/1999/02/22-rdf-syntax-ns#"
   xmlns:svg="http://www.w3.org/2000/svg"
   xmlns="http://www.w3.org/2000/svg"
   xmlns:sodipodi="http://sodipodi.sourceforge.net/DTD/sodipodi-0.dtd"
   xmlns:inkscape="http://www.inkscape.org/namespaces/inkscape"
   version="1.1"
   x="0px"
   y="0px"
   width="580px"
   height="580px"
   viewBox="0 0 580 580"
   enable-background="new 0 0 580 580"
   xml:space="preserve"
   id="svg881"
   sodipodi:docname="racetrack.svg"
   inkscape:version="0.92.3 (2405546, 2018-03-11)"><metadata
   id="metadata887"><rdf:RDF><cc:Work
       rdf:about=""><dc:format>image/svg+xml</dc:format><dc:type
         rdf:resource="http://purl.org/dc/dcmitype/StillImage" /><dc:title></dc:title></cc:Work></rdf:RDF></metadata><defs
   id="defs885" /><sodipodi:namedview
   pagecolor="#ffffff"
   bordercolor="#666666"
   borderopacity="1"
   objecttolerance="10"
   gridtolerance="10"
   guidetolerance="10"
   inkscape:pageopacity="0"
   inkscape:pageshadow="2"
   inkscape:window-width="1387"
   inkscape:window-height="981"
   id="namedview883"
   showgrid="false"
   inkscape:zoom="1.2316035"
   inkscape:cx="289.13919"
   inkscape:cy="290"
   inkscape:window-x="383"
   inkscape:window-y="81"
   inkscape:window-maximized="0"
   inkscape:current-layer="svg881" />
<g
   id="Layer_2"
   transform="translate(0.81194959,-0.5683013)">
	<g
   id="g1327">
		<path
   id="path1329"
   d="M 66.275,1.768 C 24.94,1.768 1.704,23.139 1.704,66.804 v 450.123 c 0,40.844 20.894,62.229 62.192,62.229 H 515.92 c 41.307,0 62.229,-20.316 62.229,-62.229 V 66.804 c 0,-42.601 -20.923,-65.036 -63.522,-65.036 -0.003,0 -448.494,-0.143 -448.352,0 z"
   inkscape:connector-curvature="0"
   style="fill:#111111;stroke:#eeeeee;stroke-width:3.40799999" />
	</g>
</g>

<path
   inkscape:connector-curvature="0"
   d="m 177.11938,320.78562 c -22.66993,22.66992 -22.66993,59.42509 0,82.09502 22.66995,22.66994 59.42512,22.66994 82.09504,0 L 402.88039,259.21439 c 22.66994,-22.66992 22.66994,-59.4251 0,-82.09504 -22.66964,-22.66994 -59.42511,-22.66994 -82.09474,0 z m -61.5712,-61.57123 143.66624,-143.66625 c 56.67471,-56.674693 148.56248,-56.674693 205.23718,0 56.67499,56.67471 56.67499,148.56277 0,205.23748 L 320.78565,464.45185 c -56.675,56.67471 -148.56277,56.67471 -205.23747,0 -56.674702,-56.67469 -56.674702,-148.56276 0,-205.23746 z m 41.04737,41.04739 143.66627,-143.66597 c 34.00475,-34.00505 89.13765,-34.00505 123.14241,0 34.00476,34.00476 34.00476,89.13737 0,123.14241 L 279.73796,423.40419 c -34.00475,34.00505 -89.13763,34.00505 -123.14241,0 -34.00476,-34.00477 -34.00476,-89.13737 0,-123.14241 z m -20.52354,-20.52356 c -45.339873,45.33958 -45.339873,118.84993 0,164.18981 45.33958,45.33987 118.84992,45.33987 164.18981,0 L 443.92806,300.26178 c 45.33959,-45.3396 45.33959,-118.84993 0,-164.1898 -45.33987,-45.339871 -118.85021,-45.339871 -164.1901,0 z"
   id="path6828"
   style="fill:#ffffff;fill-opacity:1;stroke-width:29.02495193" /></svg>