<?xml version="1.0" encoding="utf-8"?>
<!-- Generator: Adobe Illustrator 15.0.0, SVG Export Plug-In . SVG Version: 6.00 Build 0)  -->
<!DOCTYPE svg PUBLIC "-//W3C//DTD SVG 1.1//EN" "http://www.w3.org/Graphics/SVG/1.1/DTD/svg11.dtd">
<svg version="1.1" xmlns="http://www.w3.org/2000/svg" xmlns:xlink="http://www.w3.org/1999/xlink" x="0px" y="0px" width="580px"
	 height="580px" viewBox="0 0 580 580" enable-background="new 0 0 580 580" xml:space="preserve">
<g id="Layer_2">
	<g id="g1327">
		<path id="path1329" fill="#111111" stroke="#EEEEEE" stroke-width="3.408" d="M66.275,1.768
			c-41.335,0-64.571,21.371-64.571,65.036v450.123c0,40.844,20.894,62.229,62.192,62.229H515.92
			c41.307,0,62.229-20.316,62.229-62.229V66.804c0-42.601-20.923-65.036-63.522-65.036C514.624,1.768,66.133,1.625,66.275,1.768z"/>
	</g>
</g>
<g id="svg2" inkscape:output_extension="org.inkscape.output.svg.inkscape" inkscape:version="0.46" sodipodi:docname="waste_bin.svg" sodipodi:version="0.32" xmlns:inkscape="http://www.inkscape.org/namespaces/inkscape" xmlns:rdf="http://www.w3.org/1999/02/22-rdf-syntax-ns#" xmlns:svg="http://www.w3.org/2000/svg" xmlns:sodipodi="http://sodipodi.sourceforge.net/DTD/sodipodi-0.dtd" xmlns:cc="http://creativecommons.org/ns#" xmlns:dc="http://purl.org/dc/elements/1.1/">
	<g>
		<path fill="#FFFFFF" d="M332.956,197.374c19.492,0,35.296-16.985,35.296-37.944c0-20.959-15.804-37.944-35.296-37.944
			s-35.294,16.985-35.294,37.944C297.662,180.389,313.464,197.374,332.956,197.374z"/>
		<path fill="#FFFFFF" d="M97.39,164.587c8.991,0,16.229-7.807,16.229-17.458c0-9.652-7.238-17.506-16.229-17.506
			c-8.989,0-16.274,7.854-16.274,17.506C81.115,156.78,88.401,164.587,97.39,164.587z"/>
		<path fill="#FFFFFF" d="M499.024,179.774c-11.546-9.226-24.604-18.972-34.208-13.2c-9.603,5.725-22,26.542-29.616,40.404
			c-7.524,13.957,1.183,38.464,1.183,38.464s-18.121,28.48-25.786,38.843c-7.664,10.362-12.159,18.358-23.846,33.827
			c-22-16.228-34.301-31.698-43.384-46.033c-8.99-14.336-4.115-29.05-7.523-39.836c-3.407-10.787-7.098-19.209-12.729-24.271
			c-5.676-4.968-14.714-1.136-20.818-5.583c-6.101-4.542-5.677-15.944-15.662-21.148c-10.027-5.251-26.965-10.267-43.95-9.983
			c-17.08,0.332-41.493,4.732-57.295,11.828c-15.755,7.144-29.807,21.575-36.478,30.469c-6.576,8.895-6.055,18.735-2.884,22.425
			c3.215,3.643,11.306,3.501,21.998-0.614c10.74-4.259,27.726-20.582,41.636-24.271c13.957-3.643,27.394-2.839,41.114,2.46
			c-27.726,54.881-52.752,102.571-76.407,145.625c-23.656,42.962-51.002,84.264-64.25,110.145
			c-13.059,25.594-15.283,34.301-13.863,42.91c1.513,8.516,14.857,10.268,22.567,8.09c7.664-2.225,13.153-9.463,23.135-21.146
			c10.077-11.734,19.114-24.65,36.478-48.543c17.458-24.036,39.458-54.787,67.136-93.962l46.885,35.483
			c-4.118,21.526-7.333,41.92-9.841,62.215c-2.557,20.297-8.088,46.791-5.205,58.479c2.934,11.543,16.041,12.867,22.568,10.596
			c6.483-2.363,9.418-6.057,16.185-24.27c6.86-18.451,19.634-63.398,24.317-84.643c4.636-21.052,7.144-28.528,3.452-41.066
			c-3.737-12.538-15.044-22.284-25.453-33.591c-10.407-11.309-22.377-22.285-36.477-33.593l22.613-29.853
			c8.376,13.673,17.081,25.265,26.591,35.436c9.558,10.126,21.622,19.114,30.091,24.888c8.467,5.771,14.336,9.936,20.25,9.368
			c5.96-0.663,7.711-4.023,15.092-13.107c7.426-9.13,22.422-30.657,28.905-41.018c6.483-10.361,18.12-29.238,23.895-37.329
			c6.15,0,29.616,2.318,44.188-14.619c9.651-11.923,24.271-29.807,25.029-40.168C519.461,189.52,510.567,189.047,499.024,179.774z
			 M503.277,213.98l-12.441,17.079c-12.254,15.898-31.605,21.527-43.197,12.585c-11.589-8.942-11.071-29.049,1.137-44.946
			c12.254-15.896,20.25-29.144,31.888-20.202l11.308,7.617C503.563,195.055,515.532,198.083,503.277,213.98z"/>
		<polygon fill="#FFFFFF" points="172.759,284.049 177.376,284.049 198.685,304.677 203.417,296.964 182.063,275.566 
			181.985,236.075 172.759,241.515 172.759,274.682 61.292,274.682 61.292,284.002 172.759,284.002 		"/>
		<polygon fill="#FFFFFF" points="182.08,55.628 172.759,55.628 172.759,182.896 182.08,178.591 		"/>
		<polygon fill="#FFFFFF" points="344.026,420.826 422.708,496.006 429.283,489.43 347.387,408.762 		"/>
	</g>
</g>
</svg>
