<?xml version="1.0" encoding="utf-8"?>
<!-- Generator: Adobe Illustrator 15.0.0, SVG Export Plug-In . SVG Version: 6.00 Build 0)  -->
<!DOCTYPE svg PUBLIC "-//W3C//DTD SVG 1.1//EN" "http://www.w3.org/Graphics/SVG/1.1/DTD/svg11.dtd">
<svg version="1.1" xmlns="http://www.w3.org/2000/svg" xmlns:xlink="http://www.w3.org/1999/xlink" x="0px" y="0px" width="580px"
	 height="580px" viewBox="0 0 580 580" enable-background="new 0 0 580 580" xml:space="preserve">
<g id="Layer_2">
	<g id="g1327">
		<path id="path1329" fill="#111111" stroke="#EEEEEE" stroke-width="3.408" d="M66.275,1.768
			c-41.335,0-64.571,21.371-64.571,65.036v450.123c0,40.844,20.894,62.229,62.192,62.229H515.92
			c41.307,0,62.229-20.316,62.229-62.229V66.804c0-42.601-20.923-65.036-63.522-65.036C514.624,1.768,66.133,1.625,66.275,1.768z"/>
	</g>
</g>
<g id="svg2" inkscape:version="0.46" sodipodi:docname="waste_bin.svg" sodipodi:version="0.32" xmlns:cc="http://creativecommons.org/ns#" xmlns:dc="http://purl.org/dc/elements/1.1/" xmlns:rdf="http://www.w3.org/1999/02/22-rdf-syntax-ns#" xmlns:inkscape="http://www.inkscape.org/namespaces/inkscape" xmlns:svg="http://www.w3.org/2000/svg" xmlns:sodipodi="http://sodipodi.sourceforge.net/DTD/sodipodi-0.dtd" inkscape:output_extension="org.inkscape.output.svg.inkscape">
	<g>
		<path fill="#FFFFFF" d="M486.457,338.602c-23.16,0-43.003,15.996-51.332,38.728l-27.717-7.249l12.85-46.254l7.065-2.568h35.975
			l25.055-21.844l-14.775-8.352l-26.981-41.757c0,0-5.781-7.066-12.206-7.066s-78.375-8.352-132.337,0
			c-53.964,8.352-48.823,7.066-63.599,14.134c-2.051,0.98-4.29,2.239-6.621,3.67h78.273l-26.126,33.8l-84.714-9.203
			c0,0-5.613,1.995-14.153,5.172l79.081-225.945l-6.607-2.313L176.573,293.02c-24.371,9.245-61.116,23.971-72.384,32.734H84.917
			c0,0-6.424,1.927-5.14,8.352l8.185,14.321c-28.697,7.622-49.94,34.989-49.94,67.587c0,38.494,29.625,69.701,66.168,69.701
			c36.545,0,66.169-31.207,66.169-69.701c0-22.146-9.804-41.874-25.088-54.642c3.437-3.42,8.072-6.415,14.166-7.352
			c16.703-2.569,21.843-6.424,21.843-6.424l-0.901-3l78.995-23.709l28.516,40.115c17.987,1.864,34.655,10.131,47.581,23.746
			c4.666,4.917,8.665,10.347,11.953,16.166h54.203l10.28,12.206l20.989,4.664c6.434,26.563,27.975,46.089,53.562,46.089
			c30.665,0,55.522-28.043,55.522-62.636C541.979,366.644,517.122,338.602,486.457,338.602z M118.643,442.031
			c-12.24,0-22.163-11.361-22.163-25.375c0-14.016,9.923-25.378,22.163-25.378c12.242,0,22.164,11.362,22.164,25.378
			C140.807,430.67,130.884,442.031,118.643,442.031z M377.123,309.501l-78.917,11.274l-7.829-16.911l37.265-43.821l40.085-6.285
			l16.911,40.085L377.123,309.501z M384.639,253.758h46.294l20.723,30.69l-37.579,2.817L384.639,253.758z M498.585,424.617
			c-10.271,0-18.598-10.208-18.598-22.804c0-12.591,8.326-22.803,18.598-22.803s18.599,10.212,18.599,22.803
			C517.184,414.409,508.856,424.617,498.585,424.617z"/>
		<path fill="#FFFFFF" d="M199.266,284.64l32.542-24.581C217.348,268.939,199.266,284.64,199.266,284.64z"/>
		<path fill="#FFFFFF" d="M231.829,260.043l-0.021,0.016c0.009-0.005,0.017-0.01,0.026-0.016H231.829z"/>
		<path fill="#FFFFFF" d="M224.63,384.749c14.752-15.541,34.383-24.112,55.287-24.147l-23.048-32.424l-74.436,22.342
			c1.931,5.515,4.71,17.13-5.01,19.561c-12.848,3.214-17.345,4.498-17.345,4.498l10.279,23.127l36.617,3.21h5.702
			C215.965,395.096,219.963,389.666,224.63,384.749z"/>
		<path fill="#FFFFFF" d="M292.912,368.07c-2.761-0.523-5.578-0.879-8.44-1.063c-1.463-0.092-2.937-0.146-4.422-0.146
			c-25.096,0-47.186,13.536-60.061,34.053c-7.512,11.97-11.89,26.315-11.89,41.738c0,41.859,32.213,75.793,71.95,75.793
			c39.736,0,71.951-33.934,71.951-75.793c0-15.423-4.378-29.769-11.891-41.738C329.487,383.988,312.593,371.813,292.912,368.07z
			 M295.768,470.944c-13.312,0-24.101-12.353-24.101-27.593c0-15.237,10.789-27.592,24.101-27.592c13.309,0,24.1,12.354,24.1,27.592
			C319.867,458.592,309.076,470.944,295.768,470.944z"/>
	</g>
</g>
</svg>
