<?xml version="1.0" encoding="utf-8"?>
<!-- Generator: Adobe Illustrator 15.0.0, SVG Export Plug-In . SVG Version: 6.00 Build 0)  -->
<!DOCTYPE svg PUBLIC "-//W3C//DTD SVG 1.1//EN" "http://www.w3.org/Graphics/SVG/1.1/DTD/svg11.dtd">
<svg version="1.1" xmlns="http://www.w3.org/2000/svg" xmlns:xlink="http://www.w3.org/1999/xlink" x="0px" y="0px" width="580px"
	 height="580px" viewBox="0 0 580 580" enable-background="new 0 0 580 580" xml:space="preserve">
<g id="Layer_2">
	<g id="g1327">
		<path id="path1329" fill="#111111" stroke="#EEEEEE" stroke-width="3.408" d="M66.275,1.768
			c-41.335,0-64.571,21.371-64.571,65.036v450.123c0,40.844,20.894,62.229,62.192,62.229H515.92
			c41.307,0,62.229-20.316,62.229-62.229V66.804c0-42.601-20.923-65.036-63.522-65.036C514.624,1.768,66.133,1.625,66.275,1.768z"/>
	</g>
</g>
<g id="svg2" inkscape:output_extension="org.inkscape.output.svg.inkscape" inkscape:version="0.46" sodipodi:docname="waste_bin.svg" sodipodi:version="0.32" xmlns:inkscape="http://www.inkscape.org/namespaces/inkscape" xmlns:rdf="http://www.w3.org/1999/02/22-rdf-syntax-ns#" xmlns:svg="http://www.w3.org/2000/svg" xmlns:sodipodi="http://sodipodi.sourceforge.net/DTD/sodipodi-0.dtd" xmlns:cc="http://creativecommons.org/ns#" xmlns:dc="http://purl.org/dc/elements/1.1/">
	<path fill="#FFFFFF" d="M394.107,417.231l-50.893-62.457c10.32-1.192,20.379-2.829,30.021-4.986
		c44.627-9.976,143.771-60.534,143.771-60.534s-94.466-57.014-143.771-68.102c-8.075-1.816-16.188-3.273-24.321-4.412l44.438-54.537
		l10.509,7.842l62.263-73.361l-23.289-17.381l-6.286-5.122l-0.219,0.268l-6.704-5.003l-62.263,73.361l8.251,6.158l-53.112,65.185
		c-32.783-1.879-65.498,1.036-96.819,7.002c-47.52,9.052-162.688,64.318-162.688,64.318s112.938,54.841,162.688,64.317
		c29.851,5.688,60.927,8.113,90.66,7.012l60.027,73.671l-9.007,6.722l62.263,73.361l36.498-27.236l-62.263-73.364L394.107,417.231z
		 M380.802,289.204c0,0.017,0,0.034,0,0.05c0.022,18.919-24.641,34.887-58.417,39.955l-32.556-39.955l32.557-39.956
		C356.124,254.363,380.78,270.303,380.802,289.204z M218.116,289.305c0-0.017,0-0.034,0-0.05
		c-0.028-22.26,34.112-40.45,77.075-41.587l-25.112,30.819l13.215,10.768l-13.215,10.767l25.11,30.816
		C252.271,329.702,218.142,311.547,218.116,289.305z"/>
</g>
</svg>
