<?xml version="1.0" encoding="utf-8"?>
<!-- Generator: Adobe Illustrator 15.0.0, SVG Export Plug-In . SVG Version: 6.00 Build 0)  -->
<!DOCTYPE svg PUBLIC "-//W3C//DTD SVG 1.1//EN" "http://www.w3.org/Graphics/SVG/1.1/DTD/svg11.dtd">
<svg version="1.1" xmlns="http://www.w3.org/2000/svg" xmlns:xlink="http://www.w3.org/1999/xlink" x="0px" y="0px" width="580px"
	 height="580px" viewBox="0 0 580 580" enable-background="new 0 0 580 580" xml:space="preserve">
<g id="Layer_2">
	<g id="g1327">
		<path id="path1329" fill="#111111" stroke="#EEEEEE" stroke-width="3.408" d="M66.275,1.768
			c-41.335,0-64.571,21.371-64.571,65.036v450.123c0,40.844,20.894,62.229,62.192,62.229H515.92
			c41.307,0,62.229-20.316,62.229-62.229V66.804c0-42.601-20.923-65.036-63.522-65.036C514.624,1.768,66.133,1.625,66.275,1.768z"/>
	</g>
</g>
<g id="svg2" inkscape:output_extension="org.inkscape.output.svg.inkscape" xmlns:cc="http://creativecommons.org/ns#" xmlns:svg="http://www.w3.org/2000/svg" xmlns:sodipodi="http://sodipodi.sourceforge.net/DTD/sodipodi-0.dtd" xmlns:rdf="http://www.w3.org/1999/02/22-rdf-syntax-ns#" xmlns:dc="http://purl.org/dc/elements/1.1/" xmlns:inkscape="http://www.inkscape.org/namespaces/inkscape" sodipodi:docname="waste_bin.svg" inkscape:version="0.46" sodipodi:version="0.32">
	<g>
		<g>
			<path fill="#FFFFFF" d="M487.584,195.423c6.907,0,12.919-2.493,18.037-7.481c5.116-4.988,7.675-11.062,7.675-18.219
				c0-7.166-2.559-13.242-7.675-18.23c-5.118-4.987-11.13-7.482-18.037-7.482c-7.158,0-13.231,2.495-18.219,7.482
				c-4.988,4.988-7.482,11.064-7.481,18.23c-0.001,7.157,2.493,13.23,7.481,18.219C474.353,192.93,480.426,195.423,487.584,195.423z
				"/>
			<path fill="#FFFFFF" d="M558.374,200.798c-2.686-2.56-5.82-3.84-9.401-3.84c-3.583,0-6.397,1.022-8.442,3.067l-32.995,33.007
				l-39.902-39.902c-3.068-3.076-6.904-4.614-11.511-4.614h-62.534c-3.842,0-7.167,1.538-9.978,4.614l-42.969,49.492
				c-3.068,2.552-4.603,5.748-4.603,9.589c0,3.582,1.278,6.652,3.836,9.209c2.555,2.556,5.625,3.834,9.209,3.834
				c3.832,0,7.156-1.534,9.975-4.603l39.904-46.423l23.018,0.386l-87.861,102.052l-59.468-0.387c-4.863,0-8.958,1.537-12.283,4.609
				c-3.325,3.07-4.987,7.033-4.987,11.889c0,4.605,1.663,8.506,4.987,11.703c3.325,3.195,7.292,4.795,11.896,4.795h69.444
				c2.816,0,5.373-0.254,7.67-0.762c5.884-1.021,9.979-2.814,12.281-5.375l34.142-37.982l39.903,38.369l-16.111,71.738
				c-0.515,1.539-0.773,2.818-0.773,3.842c0,4.604,1.663,8.568,4.988,11.895c3.326,3.326,7.29,4.988,11.896,4.988
				c8.695,0,14.068-4.477,16.123-13.43l19.564-87.088c2.303-9.211,1.28-15.99-3.067-20.338l-34.915-34.917l37.982-44.117
				l24.554,24.552c2.56,2.554,5.503,3.83,8.828,3.83c4.348,0,8.566-1.917,12.657-5.748l39.902-39.904
				c2.045-2.56,3.066-5.374,3.068-8.441C562.4,206.555,561.059,203.358,558.374,200.798z"/>
		</g>
		<g>
			<path fill="#FFFFFF" d="M247.8,195.423c6.907,0,12.919-2.493,18.037-7.481c5.116-4.988,7.675-11.062,7.675-18.219
				c0-7.166-2.559-13.242-7.675-18.23c-5.118-4.987-11.13-7.482-18.037-7.482c-7.158,0-13.231,2.495-18.219,7.482
				c-4.988,4.988-7.482,11.064-7.481,18.23c-0.001,7.157,2.493,13.23,7.481,18.219C234.569,192.93,240.642,195.423,247.8,195.423z"
				/>
			<path fill="#FFFFFF" d="M318.591,200.798c-2.686-2.56-5.82-3.84-9.402-3.84c-3.583,0-6.397,1.022-8.442,3.067l-32.995,33.007
				l-39.902-39.902c-3.068-3.076-6.904-4.614-11.511-4.614h-62.534c-3.842,0-7.167,1.538-9.978,4.614l-42.969,49.492
				c-3.068,2.552-4.603,5.748-4.603,9.589c0,3.582,1.278,6.652,3.836,9.209c2.555,2.556,5.625,3.834,9.209,3.834
				c3.832,0,7.156-1.534,9.975-4.603l39.904-46.423l23.018,0.386L94.335,316.666l-59.468-0.387c-4.863,0-8.958,1.537-12.283,4.609
				c-3.325,3.07-4.987,7.033-4.987,11.889c0,4.605,1.663,8.506,4.987,11.703c3.325,3.195,7.292,4.795,11.896,4.795h69.444
				c2.816,0,5.373-0.254,7.67-0.762c5.884-1.021,9.979-2.814,12.281-5.375l34.142-37.982l39.903,38.369l-16.111,71.738
				c-0.515,1.539-0.773,2.818-0.773,3.842c0,4.604,1.663,8.568,4.988,11.895c3.326,3.326,7.29,4.988,11.896,4.988
				c8.695,0,14.068-4.477,16.123-13.43l19.564-87.088c2.303-9.211,1.28-15.99-3.067-20.338l-34.915-34.917l37.982-44.117
				l24.554,24.552c2.56,2.554,5.503,3.83,8.828,3.83c4.348,0,8.566-1.917,12.657-5.748l39.902-39.904
				c2.045-2.56,3.066-5.374,3.068-8.441C322.616,206.555,321.274,203.358,318.591,200.798z"/>
		</g>
	</g>
</g>
</svg>
