<?xml version="1.0" encoding="utf-8"?>
<!-- Generator: Adobe Illustrator 15.0.0, SVG Export Plug-In . SVG Version: 6.00 Build 0)  -->
<!DOCTYPE svg PUBLIC "-//W3C//DTD SVG 1.1//EN" "http://www.w3.org/Graphics/SVG/1.1/DTD/svg11.dtd">
<svg version="1.1" xmlns="http://www.w3.org/2000/svg" xmlns:xlink="http://www.w3.org/1999/xlink" x="0px" y="0px" width="580px"
	 height="580px" viewBox="0 0 580 580" enable-background="new 0 0 580 580" xml:space="preserve">
<g id="Layer_2">
	<g id="g1327">
		<path id="path1329" fill="#111111" stroke="#EEEEEE" stroke-width="3.408" d="M66.275,1.768
			c-41.335,0-64.571,21.371-64.571,65.036v450.123c0,40.844,20.894,62.229,62.192,62.229H515.92
			c41.307,0,62.229-20.316,62.229-62.229V66.804c0-42.601-20.923-65.036-63.522-65.036C514.624,1.768,66.133,1.625,66.275,1.768z"/>
	</g>
</g>
<g id="svg2" inkscape:version="0.46" sodipodi:docname="waste_bin.svg" sodipodi:version="0.32" xmlns:cc="http://creativecommons.org/ns#" xmlns:dc="http://purl.org/dc/elements/1.1/" xmlns:rdf="http://www.w3.org/1999/02/22-rdf-syntax-ns#" xmlns:inkscape="http://www.inkscape.org/namespaces/inkscape" xmlns:svg="http://www.w3.org/2000/svg" xmlns:sodipodi="http://sodipodi.sourceforge.net/DTD/sodipodi-0.dtd" inkscape:output_extension="org.inkscape.output.svg.inkscape">
	<g>
		<g>
			<circle fill="#FFFFFF" cx="134.588" cy="165.479" r="46.597"/>
			<path fill="#FFFFFF" d="M86.488,365.702v-86.328h9.02v100.371h78.161V279.374h9.019v86.328
				c17.179-3.684,30.062-18.947,30.062-37.225v-40.279l-3.007-36.706c-5.788-13.649-19.312-23.224-35.071-23.224H94.504
				c-15.76,0-29.283,9.574-35.071,23.225l-3.006,36.704v40.28C56.427,346.755,69.31,362.021,86.488,365.702z"/>
		</g>
		<path fill="#FFFFFF" d="M496.573,112.378H280.587c-14.912,0-27,12.088-27,27v137.629c0,14.912,12.088,27,27,27h43.454
			l-46.803,157.186c-0.788,2.646,0.718,5.431,3.365,6.219c2.647,0.788,5.43-0.719,6.219-3.365l47.652-160.039h108.212
			l47.652,160.039c0.788,2.646,3.571,4.153,6.219,3.365c2.646-0.788,4.152-3.572,3.364-6.219L453.12,304.008h43.453
			c14.912,0,27-12.088,27-27V139.378C523.573,124.467,511.485,112.378,496.573,112.378z M458.899,229.871h-48.641v48.643h-43.356
			v-48.643h-48.642v-43.355h48.642v-48.643h43.356v48.643h48.641V229.871z"/>
	</g>
</g>
</svg>
