<?xml version="1.0" encoding="utf-8"?>
<!-- Generator: Adobe Illustrator 15.0.0, SVG Export Plug-In . SVG Version: 6.00 Build 0)  -->
<!DOCTYPE svg PUBLIC "-//W3C//DTD SVG 1.1//EN" "http://www.w3.org/Graphics/SVG/1.1/DTD/svg11.dtd">
<svg version="1.1" xmlns="http://www.w3.org/2000/svg" xmlns:xlink="http://www.w3.org/1999/xlink" x="0px" y="0px" width="580px"
	 height="580px" viewBox="0 0 580 580" enable-background="new 0 0 580 580" xml:space="preserve">
<g id="Layer_2">
	<g id="g1327">
		<path id="path1329" fill="#111111" stroke="#EEEEEE" stroke-width="3.408" d="M66.275,1.768
			c-41.335,0-64.571,21.371-64.571,65.036v450.123c0,40.844,20.894,62.229,62.192,62.229H515.92
			c41.307,0,62.229-20.316,62.229-62.229V66.804c0-42.601-20.923-65.036-63.522-65.036C514.624,1.768,66.133,1.625,66.275,1.768z"/>
	</g>
</g>
<g id="svg2" inkscape:output_extension="org.inkscape.output.svg.inkscape" inkscape:version="0.46" sodipodi:docname="waste_bin.svg" sodipodi:version="0.32" xmlns:inkscape="http://www.inkscape.org/namespaces/inkscape" xmlns:rdf="http://www.w3.org/1999/02/22-rdf-syntax-ns#" xmlns:svg="http://www.w3.org/2000/svg" xmlns:sodipodi="http://sodipodi.sourceforge.net/DTD/sodipodi-0.dtd" xmlns:cc="http://creativecommons.org/ns#" xmlns:dc="http://purl.org/dc/elements/1.1/">
	<g>
		<path fill="#FFFFFF" d="M115.238,119.695c7.051,0,16.747,2.154,29.087,6.463c12.339,4.308,22.029,6.462,29.068,6.462
			c7.051,0,16.747-2.154,29.087-6.462c12.339-4.309,22.035-6.463,29.086-6.463c7.039,0,16.825,2.154,29.356,6.463
			c12.53,4.308,22.13,6.462,28.8,6.462c7.039,0,16.827-2.154,29.364-6.462c12.536-4.309,22.324-6.463,29.364-6.463
			c6.656,0,16.254,2.154,28.791,6.463c12.536,4.308,22.324,6.462,29.364,6.462c7.051,0,16.746-2.154,29.087-6.462
			c12.34-4.309,22.029-6.463,29.068-6.463c7.051,0,16.747,2.154,29.087,6.463c12.34,4.308,22.029,6.462,29.068,6.462V89.147
			c-7.039,0-16.729-2.056-29.068-6.167s-22.036-6.167-29.087-6.167c-7.039,0-16.827,2.056-29.364,6.167s-22.135,6.167-28.791,6.167
			c-7.04,0-16.828-2.056-29.364-6.167c-12.537-4.111-22.135-6.167-28.791-6.167c-7.04,0-16.828,2.056-29.364,6.167
			c-12.537,4.111-22.325,6.167-29.364,6.167c-6.67,0-16.27-2.056-28.8-6.167c-12.531-4.111-22.317-6.167-29.356-6.167
			c-7.051,0-16.747,2.056-29.086,6.167c-12.34,4.111-22.036,6.167-29.087,6.167c-7.039,0-16.729-2.056-29.068-6.167
			c-12.34-4.111-22.036-6.167-29.087-6.167c-7.039,0-16.828,2.056-29.364,6.167c-12.537,4.111-22.135,6.167-28.791,6.167v43.473
			c6.656,0,16.254-2.154,28.791-6.462C98.41,121.85,108.199,119.695,115.238,119.695z"/>
		<path fill="#FFFFFF" d="M535.453,271.333c-2.222-7.284-6.648-12.618-13.281-16c-9.412-4.8-18.695-4.262-27.85,1.614
			l-132.809,84.586l-136.174,9.7c-7.365,0.631-13.689,2.68-18.97,6.143L53.206,455.994c-3.158,1.904-5.715,4.773-7.669,8.605
			c-2.672,5.238-3.027,10.887-1.065,16.945c1.962,6.059,5.562,10.422,10.8,13.094c7.677,3.914,15.123,3.533,22.338-1.145
			l106.688-69.555l162.469-13.436c7.014-0.811,13.161-2.947,18.442-6.412L524.434,302.63c3.872-2.412,6.965-5.886,9.278-10.421
			C537.095,285.576,537.675,278.617,535.453,271.333z"/>
		<path fill="#FFFFFF" d="M97.099,327.096v-75c0-3.313-2.687-6-6-6s-6,2.687-6,6v74.292c-0.503,2.402-1.146,8.241,2.857,13.326
			c3.644,4.629,9.824,6.966,18.399,6.966c0.943,0,1.918-0.028,2.919-0.085h5.386c3.339,10.244,9.88,17.852,19.625,22.82
			c9.774,4.984,19.797,5.811,30.071,2.477c10.272-3.334,17.901-9.887,22.885-19.662c4.8-9.412,5.533-19.254,2.199-29.525
			c-3.334-10.273-9.888-17.902-19.662-22.887c-9.763-4.979-19.781-5.801-30.054-2.468c-10.272,3.333-17.809,9.706-22.608,19.118
			c-3.034,5.95-4.518,11.992-4.47,18.127h-3.547c-0.12,0-0.239,0.004-0.358,0.011c-8.368,0.495-10.781-1.612-11.321-2.271
			c-1.026-1.251-0.641-3.202-0.564-3.537C97.059,328.191,97.099,327.748,97.099,327.096z"/>
		<circle fill="#FFFFFF" cx="160.652" cy="185.348" r="9.5"/>
		<circle fill="#FFFFFF" cx="199.75" cy="146.25" r="9.5"/>
		<circle fill="#FFFFFF" cx="123.257" cy="222.742" r="9.5"/>
	</g>
</g>
</svg>
