<?xml version="1.0" encoding="utf-8"?>
<!-- Generator: Adobe Illustrator 15.0.0, SVG Export Plug-In . SVG Version: 6.00 Build 0)  -->
<!DOCTYPE svg PUBLIC "-//W3C//DTD SVG 1.1//EN" "http://www.w3.org/Graphics/SVG/1.1/DTD/svg11.dtd">
<svg version="1.1" xmlns="http://www.w3.org/2000/svg" xmlns:xlink="http://www.w3.org/1999/xlink" x="0px" y="0px" width="580px"
	 height="580px" viewBox="0 0 580 580" enable-background="new 0 0 580 580" xml:space="preserve">
<g id="Layer_2">
	<g id="g1327">
		<path id="path1329" fill="#111111" stroke="#EEEEEE" stroke-width="3.408" d="M66.275,1.768
			c-41.335,0-64.571,21.371-64.571,65.036v450.123c0,40.844,20.894,62.229,62.192,62.229H515.92
			c41.307,0,62.229-20.316,62.229-62.229V66.804c0-42.601-20.923-65.036-63.522-65.036C514.624,1.768,66.133,1.625,66.275,1.768z"/>
	</g>
</g>
<g id="svg2" inkscape:output_extension="org.inkscape.output.svg.inkscape" inkscape:version="0.46" sodipodi:docname="waste_bin.svg" sodipodi:version="0.32" xmlns:inkscape="http://www.inkscape.org/namespaces/inkscape" xmlns:rdf="http://www.w3.org/1999/02/22-rdf-syntax-ns#" xmlns:svg="http://www.w3.org/2000/svg" xmlns:sodipodi="http://sodipodi.sourceforge.net/DTD/sodipodi-0.dtd" xmlns:cc="http://creativecommons.org/ns#" xmlns:dc="http://purl.org/dc/elements/1.1/">
	<path fill="#FFFFFF" d="M546.831,229.837c-3.121-6.858-11.207-9.886-18.068-6.767l-72.664,33.068H101.106
		c-1.866,0-3.713,0.383-5.425,1.125l-55.52,24.063c-6.914,2.997-10.089,11.031-7.093,17.944c2.231,5.146,7.252,8.221,12.525,8.221
		c1.811,0,3.651-0.362,5.418-1.128l52.924-22.939h57.3v15.683c-11.803,4.173-20.262,15.426-20.262,28.657
		c0,16.786,13.607,30.393,30.392,30.393c16.786,0,30.394-13.606,30.394-30.393c0-13.231-8.459-24.483-20.262-28.656v-15.684h233.615
		v15.683c-11.804,4.173-20.263,15.426-20.263,28.657c0,16.786,13.606,30.393,30.393,30.393c16.785,0,30.393-13.606,30.393-30.393
		c0-13.231-8.459-24.484-20.263-28.657v-15.683h23.683c1.95,0,3.877-0.417,5.651-1.225l75.358-34.293
		C546.923,244.785,549.952,236.695,546.831,229.837z"/>
</g>
</svg>
