<?xml version="1.0" encoding="UTF-8" standalone="no"?>
<!-- Generator: Adobe Illustrator 15.0.0, SVG Export Plug-In . SVG Version: 6.00 Build 0)  -->

<svg
   version="1.1"
   x="0px"
   y="0px"
   width="580px"
   height="580px"
   viewBox="0 0 580 580"
   enable-background="new 0 0 580 580"
   xml:space="preserve"
   id="svg837"
   sodipodi:docname="ski_jumping.svg"
   inkscape:version="1.4 (86a8ad7, 2024-10-11)"
   xmlns:inkscape="http://www.inkscape.org/namespaces/inkscape"
   xmlns:sodipodi="http://sodipodi.sourceforge.net/DTD/sodipodi-0.dtd"
   xmlns="http://www.w3.org/2000/svg"
   xmlns:svg="http://www.w3.org/2000/svg"
   xmlns:rdf="http://www.w3.org/1999/02/22-rdf-syntax-ns#"
   xmlns:cc="http://creativecommons.org/ns#"
   xmlns:dc="http://purl.org/dc/elements/1.1/"><metadata
   id="metadata843"><rdf:RDF><cc:Work
       rdf:about=""><dc:format>image/svg+xml</dc:format><dc:type
         rdf:resource="http://purl.org/dc/dcmitype/StillImage" /></cc:Work></rdf:RDF></metadata><defs
   id="defs841">
		
			
		
			
	</defs><sodipodi:namedview
   pagecolor="#ffffff"
   bordercolor="#666666"
   borderopacity="1"
   objecttolerance="10"
   gridtolerance="10"
   guidetolerance="10"
   inkscape:pageopacity="0"
   inkscape:pageshadow="2"
   inkscape:window-width="1451"
   inkscape:window-height="1008"
   id="namedview839"
   showgrid="false"
   inkscape:zoom="1.19"
   inkscape:cx="290.33613"
   inkscape:cy="289.91597"
   inkscape:window-x="299"
   inkscape:window-y="108"
   inkscape:window-maximized="0"
   inkscape:current-layer="svg837"
   inkscape:showpageshadow="2"
   inkscape:pagecheckerboard="0"
   inkscape:deskcolor="#d1d1d1" />


<g
   id="Layer_2"
   transform="translate(0,-1.0004444)">
	<g
   id="g1327">
		<path
   id="path1329"
   fill="#111111"
   stroke="#eeeeee"
   stroke-width="3.408"
   d="M 66.275,1.768 C 24.94,1.768 1.704,23.139 1.704,66.804 v 450.123 c 0,40.844 20.894,62.229 62.192,62.229 H 515.92 c 41.307,0 62.229,-20.316 62.229,-62.229 V 66.804 c 0,-42.601 -20.923,-65.036 -63.522,-65.036 -0.003,0 -448.494,-0.143 -448.352,0 z" />
	</g>
</g><g
   id="g1"
   transform="matrix(2.1238843,0,0,2.1238843,-301.59955,-129.29197)"><g
     style="fill:#ffffff;fill-opacity:1"
     id="g7194"
     transform="matrix(25.897825,0,0,-25.897825,323.5924,123.23693)"><path
       d="M 0,0 C 0.367,0 0.662,0.295 0.662,0.66 0.662,1.025 0.367,1.322 0,1.322 -0.365,1.322 -0.66,1.025 -0.66,0.66 -0.66,0.295 -0.365,0 0,0"
       style="fill:#ffffff;fill-opacity:1;fill-rule:nonzero;stroke:none"
       id="path7196"
       inkscape:connector-curvature="0" /></g><g
     style="fill:#ffffff;fill-opacity:1"
     id="g7198"
     transform="matrix(25.897825,0,0,-25.897825,250.90756,192.68743)"><path
       d="M 0,0 2.379,1.537 C 2.689,1.734 2.783,2.145 2.586,2.455 2.391,2.766 1.979,2.859 1.668,2.662 L -0.086,1.529 C -0.186,1.465 -0.264,1.381 -0.314,1.283 L -2.14,-2.314 c -0.107,-0.213 -0.023,-0.471 0.188,-0.579 0.211,-0.107 0.471,-0.023 0.578,0.188 z"
       style="fill:#ffffff;fill-opacity:1;fill-rule:nonzero;stroke:none"
       id="path7200"
       inkscape:connector-curvature="0" /></g><g
     style="fill:#ffffff;fill-opacity:1"
     id="g7202"
     transform="matrix(25.897825,0,0,-25.897825,370.887,186.16118)"><path
       d="M 0,0 C 0.314,0.197 0.412,0.611 0.215,0.926 L -0.016,0.785 C 0.104,0.596 0.045,0.348 -0.145,0.23 l -7.303,-4.623 0.144,-0.228 z"
       style="fill:#ffffff;fill-opacity:1;fill-rule:nonzero;stroke:none"
       id="path7204"
       inkscape:connector-curvature="0" /></g></g></svg>
