<?xml version="1.0" encoding="utf-8"?>
<!-- Generator: Adobe Illustrator 15.0.0, SVG Export Plug-In . SVG Version: 6.00 Build 0)  -->
<!DOCTYPE svg PUBLIC "-//W3C//DTD SVG 1.1//EN" "http://www.w3.org/Graphics/SVG/1.1/DTD/svg11.dtd">
<svg version="1.1" xmlns="http://www.w3.org/2000/svg" xmlns:xlink="http://www.w3.org/1999/xlink" x="0px" y="0px" width="580px"
	 height="580px" viewBox="0 0 580 580" enable-background="new 0 0 580 580" xml:space="preserve">
<g id="Layer_2">
	<g id="g1327">
		<path id="path1329" fill="#111111" stroke="#EEEEEE" stroke-width="3.408" d="M66.275,1.768
			c-41.335,0-64.571,21.371-64.571,65.036v450.123c0,40.844,20.894,62.229,62.192,62.229H515.92
			c41.307,0,62.229-20.316,62.229-62.229V66.804c0-42.601-20.923-65.036-63.522-65.036C514.624,1.768,66.133,1.625,66.275,1.768z"/>
	</g>
</g>
<g id="svg2" inkscape:output_extension="org.inkscape.output.svg.inkscape" inkscape:version="0.46" sodipodi:docname="waste_bin.svg" sodipodi:version="0.32" xmlns:inkscape="http://www.inkscape.org/namespaces/inkscape" xmlns:rdf="http://www.w3.org/1999/02/22-rdf-syntax-ns#" xmlns:svg="http://www.w3.org/2000/svg" xmlns:sodipodi="http://sodipodi.sourceforge.net/DTD/sodipodi-0.dtd" xmlns:cc="http://creativecommons.org/ns#" xmlns:dc="http://purl.org/dc/elements/1.1/">
	<g>
		<g id="path113">
			<path fill="#FFFFFF" d="M520.083,438.008c-4.073,1.243-9.333,1.005-16.232-0.471c-7.012-1.596-13.404-9.036-25.054-8.625
				c-11.935,0.414-28.789,11.104-45.075,11.104c-16.517-0.352-35.066-11.577-51.92-11.577
				c-16.797,0.119-32.067,11.753-48.186,12.108c-16.401,0.058-32.746-10.866-48.808-11.103c-16.288-0.412-31.728,9.688-46.942,9.567
				c-14.987-0.293-28.278-11.045-43.152-10.573c-15.271,0.594-32.012,12.404-46.942,13.113
				c-15.043,0.237-28.674-10.984-41.964-11.104c-13.403-0.236-28.448,8.21-37.497,10.101c-9.05,1.715-14.762,1.892-16.91,0.532
				v31.304c2.148,1.357,7.86,1.182,16.91-0.532c9.049-1.891,24.093-10.336,37.497-10.101c13.291,0.119,26.921,11.34,41.964,11.102
				c14.931-0.588,31.672-12.697,46.942-13.111c14.874-0.59,28.164,10.396,43.152,10.631c15.215,0.12,30.654-9.92,46.942-9.625
				c16.062,0.234,32.406,11.159,48.808,11.104c16.118-0.355,31.389-11.991,48.186-12.109c16.854-0.057,35.403,11.341,51.92,11.639
				c16.286,0,33.143-10.694,45.075-11.105c11.649-0.533,18.042,7.027,25.054,8.563c6.899,1.477,12.159,1.712,16.232,0.472V438.008z"
				/>
		</g>
		<g id="path115">
			<path fill="#FFFFFF" d="M252.062,421.355l129.399-69.043c-10.178-22.326-17.361-39.157-21.547-51.147
				c-4.3-11.931-6.108-14.588-3.677-20.258c2.488-5.848-0.962-6.733,17.985-14.47c18.945-8.032,75.614-31.066,94.108-32.188
				c18.098-0.944,17.363,19.018,14.366,25.752c-3.281,6.555-20.136,8.208-32.916,13.406c-12.953,4.961-27.204,10.513-43.662,16.655
				l59.213,130.289c-7.634,6.555-17.759,9.097-31.444,8.091c-13.913-1.355-32.465-14.585-49.77-14.647
				c-17.25,0.063-36.932,14.826-52.71,15.12c-15.835-0.061-28.391-12.815-41.626-14.113
				C276.494,413.498,263.995,415.683,252.062,421.355z"/>
		</g>
		<g id="path117">
			<path fill="#FFFFFF" d="M484.546,308.613c19.949,0,36.138,16.906,36.138,37.739s-16.189,37.739-36.138,37.739
				s-36.14-16.906-36.14-37.739S464.597,308.613,484.546,308.613"/>
		</g>
		<g id="path119">
			<path fill="#FFFFFF" d="M164.739,423.894c-15.327-2.836-30.936-7.202-47.902-13.113c-17.08-6.257-46.206-14.646-53.106-22.855
				c-6.899-8.445-1.867-25.336,12.047-26.104c13.969-0.768,41.682,11.636,70.469,21.913c28.617,10.16,61.363,22.857,99.991,38.745
				c-4.751,2.599-11.028,3.425-19.06,2.243c-8.145-1.36-18.437-8.86-28.9-9.096C187.758,415.448,176.729,418.284,164.739,423.894z"
				/>
		</g>
		<g id="path121">
			<path fill="#FFFFFF" d="M520.083,490.398c-4.073,1.12-9.333,0.944-16.232-0.532c-7.012-1.534-13.404-9.098-25.054-8.565
				c-11.935,0.412-28.789,11.103-45.075,11.103c-16.517-0.353-35.066-11.574-51.92-11.574
				c-16.797,0.119-32.067,11.754-48.186,12.106c-16.401,0.06-32.746-10.866-48.808-11.104c-16.288-0.414-31.728,9.687-46.942,9.568
				c-14.987-0.295-28.278-11.045-43.152-10.571c-15.271,0.589-32.012,12.401-46.942,13.112
				c-15.043,0.234-28.674-10.987-41.964-11.105c-13.403-0.234-28.448,8.21-37.497,10.101c-9.05,1.833-14.762,1.771-16.91,0.473
				v31.303c2.148,1.299,7.86,1.36,16.91-0.473c9.049-1.893,24.093-10.335,37.497-10.101c13.291,0.118,26.921,11.34,41.964,11.105
				c14.931-0.712,31.672-12.523,46.942-13.113c14.874-0.473,28.164,10.277,43.152,10.572c15.215,0.118,30.654-9.982,46.942-9.568
				c16.062,0.237,32.406,11.163,48.808,11.103c16.118-0.353,31.389-11.991,48.186-12.106c16.854,0,35.403,11.223,51.92,11.575
				c16.286,0,33.143-10.69,45.075-11.104c11.649-0.414,18.042,7.026,25.054,8.624c6.899,1.477,12.159,1.714,16.232,0.475V490.398z"
				/>
		</g>
	</g>
	<g>
		<circle fill="#FFFFFF" cx="153.45" cy="152.705" r="56.247"/>
		<g>
			<rect x="149.675" y="28.964" fill="#FFFFFF" width="7.549" height="60.543"/>
		</g>
		<g>
			
				<rect x="215.768" y="56.341" transform="matrix(0.7071 0.7071 -0.7071 0.7071 125.5468 -129.8717)" fill="#FFFFFF" width="7.549" height="60.542"/>
		</g>
		<g>
			<rect x="216.648" y="148.931" fill="#FFFFFF" width="60.542" height="7.549"/>
		</g>
		<g>
			
				<rect x="189.272" y="215.024" transform="matrix(0.7071 0.7071 -0.7071 0.7071 219.0146 -91.1556)" fill="#FFFFFF" width="60.542" height="7.549"/>
		</g>
		<g>
			<rect x="149.675" y="215.904" fill="#FFFFFF" width="7.549" height="60.542"/>
		</g>
		<g>
			
				<rect x="83.582" y="188.527" transform="matrix(0.7071 0.7071 -0.7071 0.7071 180.3 2.314)" fill="#FFFFFF" width="7.549" height="60.542"/>
		</g>
		<g>
			<rect x="29.708" y="148.931" fill="#FFFFFF" width="60.542" height="7.549"/>
		</g>
		<g>
			
				<rect x="57.085" y="82.838" transform="matrix(0.7071 0.7071 -0.7071 0.7071 86.8283 -36.4021)" fill="#FFFFFF" width="60.542" height="7.549"/>
		</g>
	</g>
</g>
</svg>
