<?xml version="1.0" encoding="utf-8"?>
<!-- Generator: Adobe Illustrator 15.0.0, SVG Export Plug-In . SVG Version: 6.00 Build 0)  -->
<!DOCTYPE svg PUBLIC "-//W3C//DTD SVG 1.1//EN" "http://www.w3.org/Graphics/SVG/1.1/DTD/svg11.dtd">
<svg version="1.1" xmlns="http://www.w3.org/2000/svg" xmlns:xlink="http://www.w3.org/1999/xlink" x="0px" y="0px" width="580px"
	 height="580px" viewBox="0 0 580 580" enable-background="new 0 0 580 580" xml:space="preserve">
<g id="Layer_2">
	<g id="g1327">
		<path id="path1329" fill="#111111" stroke="#EEEEEE" stroke-width="3.408" d="M66.275,1.768
			c-41.335,0-64.571,21.371-64.571,65.036v450.123c0,40.844,20.894,62.229,62.192,62.229H515.92
			c41.307,0,62.229-20.316,62.229-62.229V66.804c0-42.601-20.923-65.036-63.522-65.036C514.624,1.768,66.133,1.625,66.275,1.768z"/>
	</g>
</g>
<g id="svg2" inkscape:output_extension="org.inkscape.output.svg.inkscape" inkscape:version="0.46" sodipodi:docname="waste_bin.svg" sodipodi:version="0.32" xmlns:inkscape="http://www.inkscape.org/namespaces/inkscape" xmlns:rdf="http://www.w3.org/1999/02/22-rdf-syntax-ns#" xmlns:svg="http://www.w3.org/2000/svg" xmlns:sodipodi="http://sodipodi.sourceforge.net/DTD/sodipodi-0.dtd" xmlns:cc="http://creativecommons.org/ns#" xmlns:dc="http://purl.org/dc/elements/1.1/">
	<g>
		<path fill="#FFFFFF" d="M262.714,198.183c24.813-70.732,3.133-142.734-48.425-160.821S100.82,61.953,76.007,132.685
			c-22.103,63.007-2.178,100.34,37.757,126.357c-7.212,30.592-20.728,78.396-38.639,99.307c-2.406,6.859,0.996,11.903,6.679,13.896
			l19.202,6.736c5.682,1.993,11.904-0.997,13.896-6.679c6.392-37.175,21.822-76.736,32.715-101.614
			C194.819,274.762,240.742,260.816,262.714,198.183z"/>
		<path fill="#FFFFFF" d="M503.756,295.938c-27.308-69.807-90.693-110.261-141.577-90.356
			c-50.884,19.904-69.996,92.63-42.688,162.438c24.325,62.183,63.774,77.497,111.017,71.184
			c14.479,27.896,35.401,72.953,35.457,100.486c2.648,6.77,8.517,8.375,14.124,6.182l18.952-7.414
			c5.607-2.193,8.375-8.517,6.182-14.124c-19.394-32.354-33.491-72.409-41.453-98.374
			C502.212,398.27,527.937,357.752,503.756,295.938z"/>
		<circle fill="#FFFFFF" cx="223.729" cy="397.65" r="24"/>
	</g>
</g>
</svg>
