<?xml version="1.0" encoding="utf-8"?>
<!-- Generator: Adobe Illustrator 15.0.0, SVG Export Plug-In . SVG Version: 6.00 Build 0)  -->
<!DOCTYPE svg PUBLIC "-//W3C//DTD SVG 1.1//EN" "http://www.w3.org/Graphics/SVG/1.1/DTD/svg11.dtd">
<svg version="1.1" xmlns="http://www.w3.org/2000/svg" xmlns:xlink="http://www.w3.org/1999/xlink" x="0px" y="0px" width="580px"
	 height="580px" viewBox="0 0 580 580" enable-background="new 0 0 580 580" xml:space="preserve">
<g id="Layer_2">
	<g id="g1327">
		<path id="path1329" fill="#111111" stroke="#EEEEEE" stroke-width="3.408" d="M66.275,1.768
			c-41.335,0-64.571,21.371-64.571,65.036v450.123c0,40.844,20.894,62.229,62.192,62.229H515.92
			c41.307,0,62.229-20.316,62.229-62.229V66.804c0-42.601-20.923-65.036-63.522-65.036C514.624,1.768,66.133,1.625,66.275,1.768z"/>
	</g>
</g>
<g id="svg2" inkscape:output_extension="org.inkscape.output.svg.inkscape" inkscape:version="0.46" sodipodi:docname="waste_bin.svg" sodipodi:version="0.32" xmlns:inkscape="http://www.inkscape.org/namespaces/inkscape" xmlns:rdf="http://www.w3.org/1999/02/22-rdf-syntax-ns#" xmlns:svg="http://www.w3.org/2000/svg" xmlns:sodipodi="http://sodipodi.sourceforge.net/DTD/sodipodi-0.dtd" xmlns:cc="http://creativecommons.org/ns#" xmlns:dc="http://purl.org/dc/elements/1.1/">
	<g>
		<path fill="#FFFFFF" d="M464.146,222.511c-0.016,0.128-0.034,0.246-0.056,0.354l-0.232,1.159
			c14,48.916,11.725,81.234,7.412,86.979c-0.009,0.012-0.018,0.02-0.026,0.031c1.785,12.754-1.038,21.775-4.298,32.131
			c-0.334,1.059-0.674,2.14-1.017,3.248c-4.269,13.776-9.898,22.784-18.217,29.15c-16.925,37.201-32.691,48.897-43.214,52.022
			l0.541,0.608l-0.165,1.345c-0.796,6.497-2.795,12.455-5.968,17.873c12.946-9.009,35.201-27.078,53.02-54.825
			c10.294-16.524,17.836-34.282,22.657-52.611C483.345,303.707,479.866,264.418,464.146,222.511z"/>
		<path fill="#FFFFFF" d="M141.459,226.753c-0.053,0.18-0.109,0.356-0.161,0.536c-0.341,1.163-0.653,2.342-0.975,3.515
			c-3.731,13.854-6.08,28.396-6.994,43.635c-2.966,49.47,10.81,89.888,13.729,97.811h0c6.331-3.138,11.858-6.013,16.703-8.646
			c17.072-10.036,29.313-20.022,32.958-23.111c-2.413-24.933-2.132-47.131-0.053-66.768c0.446-6.595,1.183-13.933,2.351-17.36
			l-0.318-0.293l0.186-1.526c1.786-14.628,6.464-28.437,10.707-38.612c5.233-14.558,11.29-26.565,17.166-36.181
			c16.842-27.561,34.952-41.074,40.481-44.79c-0.08-0.622-0.169-1.217-0.257-1.815c-1.383-6.634-2.976-12.286-4.735-16.868
			c-4.929-10.271-11.748-12.404-15.785-12.669c-0.472,0.113-0.948,0.218-1.419,0.334c-0.142,0.078-0.278,0.159-0.434,0.233
			C191.353,133.855,156.808,174.964,141.459,226.753z"/>
		<path fill="#FFFFFF" d="M139.369,376.014c-4.191-12.45-16.073-53.104-12.334-102.8c1.178-15.652,3.827-30.681,7.884-45.015
			c0.242-0.868,0.485-1.735,0.738-2.599c0.112-0.378,0.228-0.753,0.342-1.129c4.299-14.385,10.096-28.101,17.402-41.037
			c14.315-25.351,34.399-47.751,59.905-66.873c-7.854,4.431-17.464,10.382-27.698,17.917c-23.436,17.255-55.045,46.595-72.54,88.384
			c-0.942,2.25-1.819,4.518-2.663,6.795c-16.331,49.696-11.981,104.735,12.762,151.43c1.085-0.014,2.346-0.093,3.783-0.283
			C131.194,379.354,135.341,377.74,139.369,376.014z"/>
		<path fill="#FFFFFF" d="M270.871,391.624c3.803-4.438,6.631-7.699,8.938-9.962c-1.874-0.964-3.758-1.983-5.833-3.114
			c-51.829-21.603-66.184-28.301-73.145-33.01c-3.09,3.595-11.167,10.652-32.167,22.225c-6.524,3.904-13.802,7.848-21.639,11.457
			l0.386,0.858l-1.826,0.907l-0.658,0.83l-0.958-0.046c-6.184,2.881-11.429,4.268-15.574,4.885
			c-0.607,0.204-1.213,0.411-1.824,0.609c8.678,15.008,19.532,29.059,32.554,41.675c7.145,6.922,14.734,13.205,22.688,18.845
			c0.282,0.106,0.56,0.228,0.843,0.329c2.111-0.322,4.234-0.6,6.293-0.869c4.088-0.535,8.203-1.075,12.5-1.967
			C234.257,434.322,256.646,408.221,270.871,391.624z"/>
		<path fill="#FFFFFF" d="M328.976,421.105c2.977-4.489,6.082-9.304,9.325-14.473c-4.006-2.028-14.099-6.761-39.448-17.76
			c-3.465-1.434-6.797-2.813-10.017-4.148c-41.626,50.497-66.208,62.196-85.985,66.38c-3.666,1.217-7.451,2.256-11.36,3.078
			c1.307,0.829,2.825,1.761,4.523,2.758c3.688,2.148,7.441,4.171,11.254,6.058c0.196,0.097,0.396,0.193,0.595,0.29
			c0.978,0.48,1.961,0.947,2.946,1.41c13.552,6.316,31.792,12.773,52.828,15.037C291.34,477.074,317.999,433.475,328.976,421.105z"
			/>
		<path fill="#FFFFFF" d="M393.402,427.899l-3.732-1.659c-0.507-0.208-0.995-0.408-1.499-0.615
			c-7.227-2.671-19.73-7.565-41.908-17.198c-1.753,2.979-5.433,8.422-12.73,16.646c-17.759,26.688-33.143,45.156-45.623,54.816
			c26.932-0.249,77.899-4.108,100.303-28.285c2.313-7.237,4.673-15.025,7.057-23.223c-0.939-0.155-1.524-0.35-1.686-0.408
			L393.402,427.899z"/>
		<path fill="#FFFFFF" d="M272.886,132.078c0.083,0.399,0.168,0.788,0.249,1.193c2.13,0.724,3.646,0.857,6.569,1.115
			c7.125,0.629,21.874,1.934,70.416,14.791c0.878-0.755,1.557-1.641,2.046-2.667c0.628-3.888-0.327-13.196-11.711-33.922
			c-1.836-2.672-3.558-4.972-4.917-6.676c-3.822-1.792-15.545-5.803-43.983-5.803c-9.315,0-19.702,0.43-30.969,1.28
			c2.725,2.938,5.143,7.179,7.278,12.733C270.002,118.734,271.769,124.609,272.886,132.078z"/>
		<path fill="#FFFFFF" d="M358.984,144.194c-0.186,1.51-0.563,2.9-1.094,4.19c-0.177,0.777-0.411,1.503-0.705,2.175
			c6.623,2.295,20.474,8.014,48.43,22.262c0.616-11.896,1.075-20.35,1.397-25.744c0.067-1.116,0.127-2.078,0.18-2.91
			c-1.128-3.267-9.624-21.373-62.277-35.914c0.224,0.4,0.427,0.783,0.645,1.179C351.784,118.503,360.328,133.24,358.984,144.194z"/>
		<path fill="#FFFFFF" d="M449.331,204.352c1.029-4.85,1.761-8.336,2.148-10.195c-6.493-15.919-18.307-34.941-38.233-46.671
			c-0.271,11.928-0.742,20.575-1.4,25.714c-0.106,0.829-0.216,1.687-0.371,2.506c-0.01,0.193-0.02,0.382-0.03,0.577
			c5.561,3.134,10.475,6.207,14.765,9.132C436.183,192.213,443.721,198.726,449.331,204.352z"/>
		<path fill="#FFFFFF" d="M455.313,205.063c-0.301,1.418-0.628,2.955-0.98,4.611c1.127,1.279,2.132,2.483,3.032,3.607
			C456.888,210.892,456.215,208.119,455.313,205.063z"/>
		<path fill="#FFFFFF" d="M445.782,369.408c6.415-5.524,10.801-13.1,14.416-24.771c0.346-1.117,0.688-2.207,1.024-3.275
			c3.414-10.843,5.884-18.722,3.875-30.865c-0.074-0.143-0.153-0.271-0.22-0.435c-7.721-10.1-26.472-28.304-26.387-28.673
			c-0.837-0.691-1.698-1.389-2.58-2.092c-0.854-0.682-1.729-1.368-2.625-2.061c-5.538-4.277-11.883-8.75-19.137-13.289
			c-33.036-20.672-93.147-47.799-192.24-60.038c-0.117,0.219-0.247,0.464-0.382,0.722c-1.458,2.774-3.944,7.762-6.59,14.173
			c-3.661,10.323-6.899,21.953-9.326,34.998c1.445,0.863,3.699,2.142,6.66,3.78c78.69,31.941,140.31,59.357,183.241,81.534
			c8.024,4.146,14.791,7.796,20.521,11.013c0.937,0.526,1.846,1.041,2.728,1.543c0.922,0.526,1.821,1.043,2.686,1.545
			c15.135,8.782,21.397,13.768,23.964,16.29L445.782,369.408z"/>
		<path fill="#FFFFFF" d="M413.056,362.072c0.247-0.984,0.494-1.97,0.741-2.955c0.244-0.977,0.488-1.953,0.732-2.93
			c-6.034-3.423-13.23-7.328-21.771-11.739c-31.573-16.311-73.327-35.479-124.613-57.219c-10.291-4.363-20.976-8.832-32.03-13.398
			c-8.522-3.521-17.267-7.104-26.237-10.744c-1.816-0.736-3.634-1.475-5.467-2.216c-0.708,4.496-1.322,9.142-1.823,13.951
			c-1.027,15.555-1.342,40.014,1.476,65.388c46.054,18.52,61.939,27.166,72.516,32.926c0.017,0.009,0.032,0.018,0.049,0.026
			c3.388,1.412,6.932,2.886,10.634,4.423c0.233,0.019,0.464,0.047,0.688,0.099l0.512,0.167c4.652,2,9.009,3.883,13.104,5.659
			c12.313,5.092,26.144,10.792,41.711,17.193l0.034-0.08l2.798,1.193c0.723,0.315,1.424,0.62,2.126,0.925
			c12.852,5.283,26.846,11.028,42.074,17.277c2.706,1,4.661,1.685,6.095,2.186c0.206,0.072,0.396,0.139,0.586,0.205
			c5.1-17.867,10.283-37.447,15.326-57.404C412.563,364.028,412.81,363.051,413.056,362.072z"/>
		<path fill="#FFFFFF" d="M432.164,366.895c-3.172-2.112-7.2-4.637-12.232-7.591c-0.188,0.756-0.378,1.512-0.567,2.267
			c-0.246,0.981-0.493,1.963-0.74,2.943c-0.245,0.975-0.491,1.947-0.737,2.92c-4.744,18.746-9.609,37.144-14.412,54.098
			c7.964-2.792,21.887-12.585,37.393-45.464c0.278-0.591,0.558-1.186,0.837-1.791c-0.316-0.373-0.796-0.85-1.458-1.43
			C438.674,371.467,436.062,369.489,432.164,366.895z"/>
		<path fill="#FFFFFF" d="M225.242,198.288c75.203,9.534,137.391,28.434,184.876,56.211c9.546,5.583,17.696,11.085,24.63,16.297
			c0.897,0.676,1.78,1.347,2.638,2.012c0.886,0.688,1.75,1.369,2.594,2.044c15.907,12.738,24.271,23.26,27.716,28.166
			c0.974,1.387,1.557,2.328,1.803,2.74c0.167,0.28,0.309,0.532,0.449,0.786c2.404-8.792,3.769-36.428-8.552-80.193
			c0,0-12.69-13.925-13.582-14.884c-0.175-0.188-0.354-0.379-0.534-0.57c-5.607-5.947-13.677-13.231-24.941-20.858
			c-0.035-0.023-0.073-0.049-0.109-0.072c-4.279-2.894-9.192-5.936-14.764-9.037c-27.291-15.195-70.723-31.842-136.846-39.637
			C266.521,144.501,248.241,160.06,225.242,198.288z"/>
	</g>
</g>
</svg>
