<?xml version="1.0" encoding="utf-8"?>
<!-- Generator: Adobe Illustrator 15.0.0, SVG Export Plug-In . SVG Version: 6.00 Build 0)  -->
<!DOCTYPE svg PUBLIC "-//W3C//DTD SVG 1.1//EN" "http://www.w3.org/Graphics/SVG/1.1/DTD/svg11.dtd">
<svg version="1.1" xmlns="http://www.w3.org/2000/svg" xmlns:xlink="http://www.w3.org/1999/xlink" x="0px" y="0px" width="580px"
	 height="580px" viewBox="0 0 580 580" enable-background="new 0 0 580 580" xml:space="preserve">
<g id="Layer_2">
	<g id="g1327">
		<path id="path1329" fill="#111111" stroke="#EEEEEE" stroke-width="3.408" d="M66.275,1.768
			c-41.335,0-64.571,21.371-64.571,65.036v450.123c0,40.844,20.894,62.229,62.192,62.229H515.92
			c41.307,0,62.229-20.316,62.229-62.229V66.804c0-42.601-20.923-65.036-63.522-65.036C514.624,1.768,66.133,1.625,66.275,1.768z"/>
	</g>
</g>
<g id="svg2" inkscape:output_extension="org.inkscape.output.svg.inkscape" xmlns:cc="http://creativecommons.org/ns#" xmlns:svg="http://www.w3.org/2000/svg" xmlns:sodipodi="http://sodipodi.sourceforge.net/DTD/sodipodi-0.dtd" xmlns:rdf="http://www.w3.org/1999/02/22-rdf-syntax-ns#" xmlns:dc="http://purl.org/dc/elements/1.1/" xmlns:inkscape="http://www.inkscape.org/namespaces/inkscape" sodipodi:docname="waste_bin.svg" inkscape:version="0.46" sodipodi:version="0.32">
	<g>
		<path fill="#FFFFFF" d="M309.094,427.584h-66.456c1.362-3.477,2.116-7.256,2.116-11.215v-32.546l-2.429-29.659
			c-4.677-11.028-15.604-18.766-28.338-18.766h-64.775c-12.734,0-23.661,7.737-28.338,18.767l-2.429,29.657v32.547
			c0,3.959,0.754,7.738,2.116,11.215H54.106v22.498v9v77.996h10.5v-77.996h233.988v77.996h10.498v-77.996h0.002V427.584z
			 M220.464,376.693v50.891h-7.287v-50.891H220.464z M142.735,376.693h7.288v50.891h-7.288V376.693z"/>
		<circle fill="#FFFFFF" cx="181.6" cy="284.664" r="37.65"/>
	</g>
	<path fill="#FFFFFF" d="M342.777,72.985c0,25.123-15.889,38.425-33.255,38.425c-18.289,0-32.701-13.671-32.701-36.394
		c0-21.431,13.118-37.688,33.809-37.688C331.137,37.329,342.777,52.479,342.777,72.985z M297.7,74.461
		c-0.185,12.563,4.247,21.616,12.378,21.616c7.944,0,11.822-8.128,11.822-21.8c0-12.193-3.326-21.615-12.193-21.615
		C301.395,52.662,297.7,62.269,297.7,74.461z M310.813,161.476l69.096-123.962h14.964l-68.906,123.962H310.813z M429.236,122.865
		c0,24.94-15.887,38.242-33.252,38.242c-18.106,0-32.518-13.669-32.518-36.21c0-21.43,13.117-37.687,33.624-37.687
		C417.597,87.21,429.236,102.358,429.236,122.865z M384.343,124.157c-0.187,12.563,4.25,21.615,12.193,21.615
		c7.941,0,11.823-8.127,11.823-21.615c0-12.191-3.325-21.613-12.008-21.613C388.037,102.544,384.343,112.15,384.343,124.157z"/>
	<path fill="#FFFFFF" d="M362.083,192.601v40.273h38.61v17.18h-38.61v40.829h-18.106v-40.829h-38.611v-17.18h38.611v-40.273H362.083
		z"/>
	<path fill="#FFFFFF" d="M533.16,99.402v18.661h-48.401V99.402H533.16z"/>
	<path fill="#FFFFFF" d="M455.66,295.416l39.536-133.94h18.66l-39.538,133.94H455.66z"/>
</g>
</svg>
