<?xml version="1.0" encoding="UTF-8" standalone="no"?>
<!-- Generator: Adobe Illustrator 15.0.0, SVG Export Plug-In . SVG Version: 6.00 Build 0)  -->

<svg
   version="1.1"
   x="0px"
   y="0px"
   width="580px"
   height="580px"
   viewBox="0 0 580 580"
   enable-background="new 0 0 580 580"
   xml:space="preserve"
   id="svg20"
   sodipodi:docname="accountant_25023.svg"
   inkscape:version="1.2.2 (b0a8486541, 2022-12-01)"
   xmlns:inkscape="http://www.inkscape.org/namespaces/inkscape"
   xmlns:sodipodi="http://sodipodi.sourceforge.net/DTD/sodipodi-0.dtd"
   xmlns="http://www.w3.org/2000/svg"
   xmlns:svg="http://www.w3.org/2000/svg"><defs
   id="defs24" /><sodipodi:namedview
   id="namedview22"
   pagecolor="#ffffff"
   bordercolor="#666666"
   borderopacity="1.0"
   inkscape:showpageshadow="2"
   inkscape:pageopacity="0.0"
   inkscape:pagecheckerboard="0"
   inkscape:deskcolor="#d1d1d1"
   showgrid="true"
   inkscape:zoom="0.62603333"
   inkscape:cx="57.504925"
   inkscape:cy="654.11853"
   inkscape:window-width="1444"
   inkscape:window-height="1220"
   inkscape:window-x="0"
   inkscape:window-y="0"
   inkscape:window-maximized="0"
   inkscape:current-layer="svg2" />
<g
   id="Layer_2">
	<g
   id="g1327">
		<path
   id="path1329"
   fill="#111111"
   stroke="#EEEEEE"
   stroke-width="3.408"
   d="M66.275,1.768    c-41.335,0-64.571,21.371-64.571,65.036v450.123c0,40.844,20.894,62.229,62.192,62.229H515.92    c41.307,0,62.229-20.316,62.229-62.229V66.804c0-42.601-20.923-65.036-63.522-65.036C514.624,1.768,66.133,1.625,66.275,1.768z" />
	</g>
</g>
<g
   id="svg2"
   inkscape:output_extension="org.inkscape.output.svg.inkscape"
   sodipodi:docname="waste_bin.svg"
   inkscape:version="0.46"
   sodipodi:version="0.32">
	<g
   id="g9">
		<path
   fill="#FFFFFF"
   d="M309.094,427.584h-66.456c1.362-3.477,2.116-7.256,2.116-11.215v-32.546l-2.429-29.659    c-4.677-11.028-15.604-18.766-28.338-18.766h-64.775c-12.734,0-23.661,7.737-28.338,18.767l-2.429,29.657v32.547    c0,3.959,0.754,7.738,2.116,11.215H54.106v22.498v9v77.996h10.5v-77.996h233.988v77.996h10.498v-77.996h0.002V427.584z     M220.464,376.693v50.891h-7.287v-50.891H220.464z M142.735,376.693h7.288v50.891h-7.288V376.693z"
   id="path5" />
		<circle
   fill="#FFFFFF"
   cx="181.6"
   cy="284.664"
   r="37.65"
   id="circle7" />
	</g>
	
	
	
	<g
   id="g190"
   transform="matrix(1.2146241,0,0,1.2146241,-114.42899,-8.0114887)"><path
     fill="#ffffff"
     d="m 342.777,72.985 c 0,25.123 -15.889,38.425 -33.255,38.425 -18.289,0 -32.701,-13.671 -32.701,-36.394 0,-21.431 13.118,-37.688 33.809,-37.688 20.507,10e-4 32.147,15.151 32.147,35.657 z M 297.7,74.461 c -0.185,12.563 4.247,21.616 12.378,21.616 7.944,0 11.822,-8.128 11.822,-21.8 0,-12.193 -3.326,-21.615 -12.193,-21.615 -8.312,0 -12.007,9.607 -12.007,21.799 z m 13.113,87.015 69.096,-123.962 h 14.964 l -68.906,123.962 z m 118.423,-38.611 c 0,24.94 -15.887,38.242 -33.252,38.242 -18.106,0 -32.518,-13.669 -32.518,-36.21 0,-21.43 13.117,-37.687 33.624,-37.687 20.507,0 32.146,15.148 32.146,35.655 z m -44.893,1.292 c -0.187,12.563 4.25,21.615 12.193,21.615 7.941,0 11.823,-8.127 11.823,-21.615 0,-12.191 -3.325,-21.613 -12.008,-21.613 -8.314,0 -12.008,9.606 -12.008,21.613 z"
     id="path11" /><path
     fill="#ffffff"
     d="m 362.083,192.601 v 40.273 h 38.61 v 17.18 h -38.61 v 40.829 h -18.106 v -40.829 h -38.611 v -17.18 h 38.611 v -40.273 z"
     id="path13" /><path
     fill="#ffffff"
     d="m 533.16,99.402 v 18.661 H 484.759 V 99.402 Z"
     id="path15" /><path
     fill="#ffffff"
     d="m 455.66,295.416 39.536,-133.94 h 18.66 l -39.538,133.94 z"
     id="path17" /></g>
</g>
</svg>
