<?xml version="1.0" encoding="UTF-8" standalone="no"?>
<!-- Generator: Adobe Illustrator 15.0.0, SVG Export Plug-In . SVG Version: 6.00 Build 0)  -->

<svg
   version="1.1"
   x="0px"
   y="0px"
   width="580px"
   height="580px"
   viewBox="0 0 580 580"
   enable-background="new 0 0 580 580"
   xml:space="preserve"
   id="svg16"
   sodipodi:docname="administrative_25001.svg"
   inkscape:version="1.2.2 (b0a8486541, 2022-12-01)"
   xmlns:inkscape="http://www.inkscape.org/namespaces/inkscape"
   xmlns:sodipodi="http://sodipodi.sourceforge.net/DTD/sodipodi-0.dtd"
   xmlns="http://www.w3.org/2000/svg"
   xmlns:svg="http://www.w3.org/2000/svg"><defs
   id="defs20" /><sodipodi:namedview
   id="namedview18"
   pagecolor="#ffffff"
   bordercolor="#666666"
   borderopacity="1.0"
   inkscape:showpageshadow="2"
   inkscape:pageopacity="0.0"
   inkscape:pagecheckerboard="0"
   inkscape:deskcolor="#d1d1d1"
   showgrid="false"
   inkscape:zoom="0.44267241"
   inkscape:cx="-277.85784"
   inkscape:cy="365.9591"
   inkscape:window-width="2560"
   inkscape:window-height="1367"
   inkscape:window-x="0"
   inkscape:window-y="0"
   inkscape:window-maximized="1"
   inkscape:current-layer="svg2" />
<g
   id="Layer_2">
	<g
   id="g1327">
		<path
   id="path1329"
   fill="#111111"
   stroke="#EEEEEE"
   stroke-width="3.408"
   d="M66.275,1.768    c-41.335,0-64.571,21.371-64.571,65.036v450.123c0,40.844,20.894,62.229,62.192,62.229H515.92    c41.307,0,62.229-20.316,62.229-62.229V66.804c0-42.601-20.923-65.036-63.522-65.036C514.624,1.768,66.133,1.625,66.275,1.768z" />
	</g>
</g>
<g
   id="svg2"
   inkscape:version="0.46"
   sodipodi:docname="waste_bin.svg"
   sodipodi:version="0.32"
   inkscape:output_extension="org.inkscape.output.svg.inkscape">
	<g
   id="g9">
		<path
   fill="#FFFFFF"
   d="M309.094,427.584h-66.456c1.362-3.477,2.116-7.256,2.116-11.215v-32.546l-2.429-29.659    c-4.677-11.028-15.604-18.766-28.338-18.766h-64.775c-12.734,0-23.661,7.737-28.338,18.767l-2.429,29.657v32.547    c0,3.959,0.754,7.738,2.116,11.215H54.106v22.498v9v77.996h10.5v-77.996h233.988v77.996h10.498v-77.996h0.002V427.584z     M220.464,376.693v50.891h-7.287v-50.891H220.464z M142.735,376.693h7.288v50.891h-7.288V376.693z"
   id="path5" />
		<circle
   fill="#FFFFFF"
   cx="181.6"
   cy="284.664"
   r="37.65"
   id="circle7" />
	</g>
	<polygon
   fill="#ffffff"
   points="356,56.5 509.5,56.5 515.5,56.5 515.5,62.5 515.5,306.898 538,306.898 538,34 356,34 "
   id="polygon11"
   transform="matrix(1.19862,0,0,1.19862,-106.85758,-6.7530811)" />
	<path
   fill="#ffffff"
   d="M 319.85115,68.160671 H 285.69048 V 395.26168 H 503.83933 V 361.10101 68.160671 Z M 471.47659,337.44744 H 319.85115 v -5.9931 h 151.62544 z m 0,-29.82166 H 319.85115 v -5.9931 h 151.62544 z m 0,-29.82287 H 319.85115 v -5.9931 h 151.62544 z m 0,-29.82286 H 319.85115 v -5.9931 h 151.62544 z m 0,-29.82167 H 319.85115 v -5.9931 h 151.62544 z m 0,-29.82287 H 319.85115 v -5.9931 h 151.62544 z m 0,-29.82286 H 319.85115 v -5.9931 h 151.62544 z m 0,-29.82167 H 319.85115 v -5.9931 h 151.62544 z"
   id="path13"
   style="stroke-width:1.19862" />
</g>
</svg>
