<?xml version="1.0" encoding="utf-8"?>
<!-- Generator: Adobe Illustrator 16.0.0, SVG Export Plug-In . SVG Version: 6.00 Build 0)  -->
<!DOCTYPE svg PUBLIC "-//W3C//DTD SVG 1.1//EN" "http://www.w3.org/Graphics/SVG/1.1/DTD/svg11.dtd">
<svg version="1.1" id="Ebene_1" xmlns="http://www.w3.org/2000/svg" xmlns:xlink="http://www.w3.org/1999/xlink" x="0px" y="0px"
	 width="580px" height="580px" viewBox="0 0 580 580" enable-background="new 0 0 580 580" xml:space="preserve">
<g>
	<defs>
		<rect id="SVGID_1_" width="580" height="580"/>
	</defs>
	<clipPath id="SVGID_2_">
		<use xlink:href="#SVGID_1_"  overflow="visible"/>
	</clipPath>
	<path clip-path="url(#SVGID_2_)" fill="#111111" d="M66.275,1.768c-41.335,0-64.571,21.371-64.571,65.036v450.123
		c0,40.845,20.894,62.229,62.192,62.229H515.92c41.307,0,62.229-20.316,62.229-62.229V66.804c0-42.601-20.924-65.036-63.522-65.036
		C514.624,1.768,66.133,1.625,66.275,1.768"/>
	<path clip-path="url(#SVGID_2_)" fill="#EEEEEE" d="M515.92,580.86H63.896c-20.964,0-37.043-5.484-47.792-16.301
		C5.418,553.806,0,537.779,0,516.927V66.804c0-43.662,22.917-66.74,66.275-66.74v0.028c0.519-0.039,1.239-0.042,2.269-0.045
		c1.493-0.005,3.699-0.009,6.553-0.013c5.706-0.008,14.004-0.015,24.376-0.02c103.438-0.048,413.251,0.049,415.146,0.05
		c21.565,0,38.039,5.741,48.97,17.063c10.792,11.179,16.265,27.893,16.265,49.677v450.123
		C579.854,559.35,558.343,580.86,515.92,580.86z M67.437,3.46l-0.005,0.012h-1.157c-20.36,0-36.035,5.267-46.591,15.654
		C8.884,29.754,3.408,45.795,3.408,66.804v450.123c0,40.162,20.351,60.525,60.488,60.525H515.92
		c40.728,0,60.525-19.798,60.525-60.525V66.804c0-42.024-20.799-63.332-61.818-63.332c-1.523,0-199.84-0.063-332.176-0.063
		C98.422,3.409,72.676,3.435,67.437,3.46z"/>
	<path clip-path="url(#SVGID_2_)" fill="#FFFFFF" d="M309.094,427.584h-66.456c1.362-3.477,2.116-7.256,2.116-11.215v-32.546
		l-2.429-29.659c-4.677-11.028-15.604-18.766-28.338-18.766h-64.775c-12.734,0-23.661,7.736-28.338,18.767l-2.429,29.657v32.547
		c0,3.959,0.754,7.738,2.116,11.215H54.106v22.498v9v77.996h10.5v-77.996h233.988v77.996h10.498v-77.996h0.002V427.584z
		 M220.464,427.584h-7.287v-50.891h7.287V427.584z M142.735,376.693h7.288v50.891h-7.288V376.693z"/>
	<path clip-path="url(#SVGID_2_)" fill="#FFFFFF" d="M181.6,247.014c20.794,0,37.65,16.856,37.65,37.65s-16.856,37.65-37.65,37.65
		s-37.65-16.856-37.65-37.65S160.806,247.014,181.6,247.014"/>
	<path clip-path="url(#SVGID_2_)" fill="#FFFFFF" d="M478.257,171.736c-1.972,9.023-4.293,17.185-7.315,25.12
		c-2.577,6.766-5.519,13.36-9.762,19.249c-2.109,2.926-4.426,5.665-7.594,7.434c-4.241,2.368-9.112,2.427-13.216-1.341
		c-2.538-2.33-4.99-4.767-7.375-7.262c-5.378-5.626-11.66-9.948-18.374-13.69c-9.36-5.216-18.99-9.853-28.846-13.987
		c-6.345-2.662-12.728-5.243-19.172-7.639c-8.524-3.168-17.18-5.933-26.1-7.731c-3.294-0.664-4.84,0.137-6.147,3.337
		c-1.191,2.919-2.7,24.474-1.467,41.372c1.359,16.567,3.963,27.571,4.274,28.826c0.596,2.405-0.324,7.621-4.211,8.04
		c-5.508,0.244-12.325-3.479-15.974-5.765c-5.532-3.467-8.681-8.528-9.949-14.948c-1.143-5.782-1.216-11.633-1.163-17.495
		c0.068-7.543,0.255-15.089-0.461-22.615c-0.527-5.557-1.627-9.895-3.296-15.395c-2.225-4.931-4.308-6.314-7.152-7.87
		c-2.323-0.901-17.355-3.25-19.727-4.021c-6.491-2.109-15.137-11.736-14.189-33.927c1.053-21.221,12.426-30.411,16.218-32.458
		c4.633-2.477,16.778-2.8,27.029-3.988c8.663-1.34,14.444-2.088,22.488-3.683c14.882-2.74,28.603-5.448,42.12-9.936
		c12.519-4.156,24.734-9.108,36.704-14.697c8.73-4.077,17.238-8.584,25.448-13.68c3.052-1.895,5.086-3.395,6.722-6.666
		c1.538-3.077,3.135-5.854,5.984-8.173c2.559-2.083,4.403-3.213,6.604-3.808c1.727-0.416,2.87-0.486,3.954-0.411
		c3.997,0.277,7.861,1.108,11.207,3.571c2.974,2.189,4.979,5.175,6.59,8.465c4.219,8.611,6.496,17.836,8.147,27.251
		c2.592,14.779,3.591,29.696,3.646,44.693c0.033,9.065-0.396,18.109-1.336,27.119C481.67,153.655,480.31,162.925,478.257,171.736
		 M425.503,196.231c0.073-0.047,0.146-0.094,0.219-0.141c-0.268-1.479-0.51-1.545-0.807-3.018
		c-1.073-5.301-2.292-10.576-3.225-15.903c-2.36-13.489-3.3-27.109-3.309-40.803c-0.007-9.954,0.407-19.892,1.651-29.763
		c0.812-6.427,1.874-12.828,3.061-19.195c1.117-6,2.773-11.87,4.975-17.563c-0.203-0.158-1.597,1.014-3.397,2.186
		c-8.579,5.578-17.744,9.896-27.369,13.176c-10.627,3.621-21.306,7.08-31.946,10.661c-6.411,2.158-12.767,4.467-18.751,7.722
		c-5.708,3.105-9.997,7.5-12.226,13.82c-1.808,5.125-3.029,6.129-3.448,11.571c-0.528,6.861,0.138,12.128,2.91,18.473
		c2.104,4.819,5.148,8.938,9.731,11.469c2.802,1.548,5.884,2.622,8.925,3.646c6.216,2.093,12.5,3.974,18.735,6.006
		c7.063,2.301,14.078,4.741,20.812,7.948c9.371,4.463,18.535,9.31,27.124,15.226C421.299,193.215,423.392,194.736,425.503,196.231
		 M436.235,177.128c0.121,0.02,0.242,0.039,0.364,0.059c0.528-0.895,1.094-1.769,1.578-2.688c2.392-4.545,4.347-9.281,5.958-14.175
		c2.252-6.841,4.08-13.79,4.882-20.971c1.104-9.868,0.646-19.678-1.537-29.373c-1.552-6.894-3.772-12.997-8.497-18.348
		c-0.165-0.186-0.936-0.877-2.104-1.595c-0.44,3.594-4.45,24.757-4.126,43.312c-0.324,15.241,2.356,33.653,2.844,39.991
		C435.693,174.612,436.017,175.866,436.235,177.128"/>
	<path clip-path="url(#SVGID_2_)" fill="#FFFFFF" d="M508.781,206.53c0.074-0.786,0.4-1.078,0.798-1.701
		c2.321-3.643,4.756-7.214,6.975-10.921c3.783-6.323,7.316-12.829,9.793-19.791c2.304-6.476,4.311-12.945,5.67-19.688
		c1.196-5.932,2.68-12.269,3.134-18.314c0.717-9.554,0.125-19.653-1.194-29.15c-1.175-8.467-4.068-16.195-7.561-24.006
		c-2.012-4.503-4.476-8.734-7.62-12.523c-1.577-1.9-3.151-3.803-4.719-5.711c-0.178-0.217-0.38-0.599-0.275-1.079
		c0.469-1.172,1.879-0.41,1.928-0.479c0.677,0.32,2.257,1.113,2.708,1.438c2.031,1.386,3.854,2.7,5.705,4.184
		c5.097,4.087,9.772,8.609,13.573,14.019c6.014,8.564,9.967,18.038,12.029,28.355c0.956,4.784,1.348,9.997,1.514,14.679
		c0.002,3.847-0.338,8.639-0.974,12.209c-0.936,5.252-1.814,9.04-3.098,14.216c-4.731,15.889-12.026,29.955-22.771,42.214
		c-3.282,3.746-6.859,7.223-10.334,10.79c-0.64,0.657-1.73,1.606-2.453,2.179C510.393,208.491,508.71,208.204,508.781,206.53"/>
	<path clip-path="url(#SVGID_2_)" fill="#FFFFFF" d="M490.229,194.059c0.12-0.661,0.293-0.979,0.591-1.441
		c1.889-2.921,3.85-5.794,5.68-8.752c2.759-4.46,4.889-9.243,6.575-14.224c2.633-7.778,4.781-15.7,6.365-23.771
		c1.557-7.923,1.687-15.934,1.156-23.966c-0.43-6.509-1.095-12.999-3.032-19.245c-2.07-6.677-5.071-12.913-9.219-18.52
		c-0.866-1.172-1.979-2.15-2.944-3.25c-0.333-0.379-0.735-0.94-0.632-1.58c0.625-1.545,1.719-1.172,2.24-0.959
		c0.434,0.151,1.859,1.205,2.223,1.46c1.566,1.094,3.162,2.16,4.623,3.391c4.246,3.579,8.208,7.453,11.391,12.091
		c4.34,6.326,7.227,13.29,8.697,20.863c1.559,8.017,1.46,16.046,0.113,24.085c-2.188,13.053-6.859,25.066-14.354,35.886
		c-4.224,6.095-9.1,11.617-14.435,16.713c-0.563,0.538-1.428,1.286-2.412,1.857C491.412,195.636,490.229,194.964,490.229,194.059"/>
</g>
</svg>
