<?xml version="1.0" encoding="utf-8"?>
<!-- Generator: Adobe Illustrator 15.0.0, SVG Export Plug-In . SVG Version: 6.00 Build 0)  -->
<!DOCTYPE svg PUBLIC "-//W3C//DTD SVG 1.1//EN" "http://www.w3.org/Graphics/SVG/1.1/DTD/svg11.dtd">
<svg version="1.1" xmlns="http://www.w3.org/2000/svg" xmlns:xlink="http://www.w3.org/1999/xlink" x="0px" y="0px" width="580px"
	 height="580px" viewBox="0 0 580 580" enable-background="new 0 0 580 580" xml:space="preserve">
<g id="Layer_2">
	<g id="g1327">
		<path id="path1329" fill="#111111" stroke="#EEEEEE" stroke-width="3.408" d="M66.275,1.768
			c-41.335,0-64.571,21.371-64.571,65.036v450.123c0,40.844,20.894,62.229,62.192,62.229H515.92
			c41.307,0,62.229-20.316,62.229-62.229V66.804c0-42.601-20.923-65.036-63.522-65.036C514.624,1.768,66.133,1.625,66.275,1.768z"/>
	</g>
</g>
<g id="svg2" inkscape:output_extension="org.inkscape.output.svg.inkscape" xmlns:cc="http://creativecommons.org/ns#" xmlns:svg="http://www.w3.org/2000/svg" xmlns:sodipodi="http://sodipodi.sourceforge.net/DTD/sodipodi-0.dtd" xmlns:rdf="http://www.w3.org/1999/02/22-rdf-syntax-ns#" xmlns:dc="http://purl.org/dc/elements/1.1/" xmlns:inkscape="http://www.inkscape.org/namespaces/inkscape" sodipodi:docname="waste_bin.svg" inkscape:version="0.46" sodipodi:version="0.32">
	<g>
		<path fill="#FFFFFF" d="M309.094,427.584h-66.456c1.362-3.477,2.116-7.256,2.116-11.215v-32.546l-2.429-29.659
			c-4.677-11.028-15.604-18.766-28.338-18.766h-64.775c-12.734,0-23.661,7.737-28.338,18.767l-2.429,29.657v32.547
			c0,3.959,0.754,7.738,2.116,11.215H54.106v22.498v9v77.996h10.5v-77.996h233.988v77.996h10.498v-77.996h0.002V427.584z
			 M220.464,376.693v50.891h-7.287v-50.891H220.464z M142.735,376.693h7.288v50.891h-7.288V376.693z"/>
		<circle fill="#FFFFFF" cx="181.6" cy="284.664" r="37.65"/>
	</g>
	<g>
		<path fill="#FFFFFF" d="M553.084,275.946H323.731L553.084,77.319V275.946z M399.28,247.779h125.638V138.974L399.28,247.779z"/>
	</g>
	<g>
		<path fill="#FFFFFF" d="M265.35,44.853l-0.003,0.009l5.318,28.06c0.71,3.701,4.057,6.233,7.79,6.156l1.041,5.192
			c-12.171,3.025-22.703,11.784-27.409,24.384c-7.59,20.314,2.769,43.028,23.081,50.615c0.057,0.022,0.119,0.024,0.185,0.048
			l2.892,142.586c-1.24,16.641,5.121,22.881,11.146,25.153l3.216,22.769l0.667-16.213l-0.11-5.563
			c3.363,0.511,5.966,0.062,5.966,0.062l-12.213-160.217c-4.484-4.205-6.293-10.85-4.008-16.967
			c0.574-1.536,1.431-2.892,2.395-4.123l-0.043-0.571c0,0,6.685-4.977-10.612-21.496l0.509,25.099
			c-13.809-6.932-20.51-23.345-14.976-38.159c5.925-15.86,23.641-23.934,39.495-18.012c15.853,5.922,23.936,23.634,18.011,39.495
			c-1.089,2.916-2.579,5.562-4.388,7.917l-13.201-20.477c-4.974,11.915-4.505,17.887-3.88,20.246
			c2.272-0.198,4.601,0.031,6.877,0.881c8.104,3.028,12.236,12.088,9.212,20.182c-0.448,1.199-1.062,2.273-1.737,3.281
			l84.913,141.114c0,0,2.79-0.41,5.283-2.767l0.822,1.086l10.81,16.221l-8.184-23.965c0.892-4.502,0.256-11.113-3.938-20.922
			l-82.09-127.3c3.197-3.556,5.824-7.732,7.596-12.475c7.592-20.321-2.762-43.021-23.082-50.612
			c-5.782-2.16-11.761-2.814-17.529-2.259l-1.294-6.545c1.715-1.729,2.598-4.208,2.109-6.761l-5.321-28.05l-0.002-0.021
			c-0.791-4.117-4.865-6.814-9.069-6.016C267.354,36.718,264.544,40.719,265.35,44.853z"/>
	</g>
</g>
</svg>
