<?xml version="1.0" encoding="utf-8"?>
<!-- Generator: Adobe Illustrator 15.0.0, SVG Export Plug-In . SVG Version: 6.00 Build 0)  -->
<!DOCTYPE svg PUBLIC "-//W3C//DTD SVG 1.1//EN" "http://www.w3.org/Graphics/SVG/1.1/DTD/svg11.dtd">
<svg version="1.1" xmlns="http://www.w3.org/2000/svg" xmlns:xlink="http://www.w3.org/1999/xlink" x="0px" y="0px" width="580px"
	 height="580px" viewBox="0 0 580 580" enable-background="new 0 0 580 580" xml:space="preserve">
<g id="Layer_2">
	<g id="g1327">
		<path id="path1329" fill="#111111" stroke="#EEEEEE" stroke-width="3.408" d="M66.275,1.768
			c-41.335,0-64.571,21.371-64.571,65.036v450.123c0,40.844,20.894,62.229,62.192,62.229H515.92
			c41.307,0,62.229-20.316,62.229-62.229V66.804c0-42.601-20.923-65.036-63.522-65.036C514.624,1.768,66.133,1.625,66.275,1.768z"/>
	</g>
</g>
<g id="svg2" inkscape:output_extension="org.inkscape.output.svg.inkscape" xmlns:cc="http://creativecommons.org/ns#" xmlns:svg="http://www.w3.org/2000/svg" xmlns:sodipodi="http://sodipodi.sourceforge.net/DTD/sodipodi-0.dtd" xmlns:rdf="http://www.w3.org/1999/02/22-rdf-syntax-ns#" xmlns:dc="http://purl.org/dc/elements/1.1/" xmlns:inkscape="http://www.inkscape.org/namespaces/inkscape" sodipodi:docname="waste_bin.svg" inkscape:version="0.46" sodipodi:version="0.32">
	<g>
		<path fill="#FFFFFF" d="M309.094,427.584h-66.456c1.362-3.477,2.116-7.256,2.116-11.215v-32.546l-2.429-29.659
			c-4.677-11.028-15.604-18.766-28.338-18.766h-64.775c-12.734,0-23.661,7.737-28.338,18.767l-2.429,29.657v32.547
			c0,3.959,0.754,7.738,2.116,11.215H54.106v22.498v9v77.996h10.5v-77.996h233.988v77.996h10.498v-77.996h0.002V427.584z
			 M220.464,376.693v50.891h-7.287v-50.891H220.464z M142.735,376.693h7.288v50.891h-7.288V376.693z"/>
		<circle fill="#FFFFFF" cx="181.6" cy="284.664" r="37.65"/>
	</g>
	<path fill="#FFFFFF" d="M173.52,164.723l24.192,10.08l28.495-98.023l-21.82-6.943L173.52,164.723z"/>
	<path fill="#FFFFFF" d="M508.433,153.544l-29.376,1.574c0,0-35.475-0.994-35.274,21.524c-10.162-4.983-41.251,0-25.109,24.512
		c0,0-12.955-14.35-17.936-19.132c-5.383-6.376-34.477-2.79-22.121,22.121l11.956,15.544c0,0-7.473-7.375-11.956-11.957
		c-4.484-4.584-18.533-2.991-16.739,11.957l4.782,13.151c0,0-20.924,6.777-20.129-5.38l4.983-17.535l-4.386-4.185l-13.35,27.1
		c0,0-16.144,10.165-14.947-9.565l18.533-37.664l-5.979-5.38l-25.107,35.872c0,0-17.936,5.978-17.936-15.546l32.283-49.623
		l-5.979-7.771l-40.654,50.222c0,0-17.934,4.783-16.142-15.547l60.981-75.327c0,0,19.729-25.709,37.068-29.297
		c0,0,16.944,18.812,37.066,10.762c11.956-4.782,9.565-19.729,9.565-19.729l93.323,9.391l-1.593-10.115l-100.698-8.244
		c0,0-20.927-28.695-53.808-7.771L276.98,84.574l-48.501,1.513l-22.954,78.965c10.163,1.083,37.097,4.793,40.966,13.981
		c0,0-2.989,24.513,29.295,26.904c0,0,4.783,26.902,31.089,23.915c0,0,12.554,20.922,33.478,10.163c0,0,21.524,11.957,33.48-0.597
		c0,0,13.751,5.977,23.318-8.371c0,0,33.478,12.556,30.489-21.524c0,0,31.087,13.75,31.087-25.107c0,0,22.121,2.389,22.719-19.133
		l28.237-3.799L508.433,153.544z"/>
	<path fill="#FFFFFF" d="M498.697,60.946l15.517,98.566l26.132-1.986L521.294,57.238L498.697,60.946z"/>
</g>
</svg>
