<?xml version="1.0" encoding="UTF-8" standalone="no"?>
<!-- Generator: Adobe Illustrator 15.0.0, SVG Export Plug-In . SVG Version: 6.00 Build 0)  -->

<svg
   xmlns:dc="http://purl.org/dc/elements/1.1/"
   xmlns:cc="http://creativecommons.org/ns#"
   xmlns:rdf="http://www.w3.org/1999/02/22-rdf-syntax-ns#"
   xmlns:svg="http://www.w3.org/2000/svg"
   xmlns="http://www.w3.org/2000/svg"
   xmlns:sodipodi="http://sodipodi.sourceforge.net/DTD/sodipodi-0.dtd"
   xmlns:inkscape="http://www.inkscape.org/namespaces/inkscape"
   version="1.1"
   x="0px"
   y="0px"
   width="580px"
   height="580px"
   viewBox="0 0 580 580"
   enable-background="new 0 0 580 580"
   xml:space="preserve"
   id="svg70"
   sodipodi:docname="charity.svg"
   inkscape:version="0.92.3 (2405546, 2018-03-11)"><metadata
   id="metadata76"><rdf:RDF><cc:Work
       rdf:about=""><dc:format>image/svg+xml</dc:format><dc:type
         rdf:resource="http://purl.org/dc/dcmitype/StillImage" /></cc:Work></rdf:RDF></metadata><defs
   id="defs74">
	
	
	
</defs><sodipodi:namedview
   pagecolor="#ffffff"
   bordercolor="#666666"
   borderopacity="1"
   objecttolerance="10"
   gridtolerance="10"
   guidetolerance="10"
   inkscape:pageopacity="0"
   inkscape:pageshadow="2"
   inkscape:window-width="1155"
   inkscape:window-height="899"
   id="namedview72"
   showgrid="false"
   inkscape:zoom="0.9"
   inkscape:cx="290"
   inkscape:cy="290"
   inkscape:window-x="476"
   inkscape:window-y="129"
   inkscape:window-maximized="0"
   inkscape:current-layer="svg70" />
<g
   id="Layer_2">
	<g
   id="g1327">
		<path
   id="path1329"
   fill="#111111"
   stroke="#EEEEEE"
   stroke-width="3.408"
   d="M66.275,1.768    c-41.335,0-64.571,21.371-64.571,65.036v450.123c0,40.844,20.894,62.229,62.192,62.229H515.92    c41.307,0,62.229-20.316,62.229-62.229V66.804c0-42.601-20.923-65.036-63.522-65.036C514.624,1.768,66.133,1.625,66.275,1.768z" />
	</g>
</g>
<path
   style="fill:#ffffff"
   inkscape:connector-curvature="0"
   id="path67"
   d="m 451.296,170.275 -106.992,49.299 c 0,0 -12.586,7.342 -33.565,0 L 137.667,150.345 c 0,0 -24.826,-15.618 6.643,-30.302 l 126.571,26.106 55.593,-13.636 -83.915,-5.245 c 0,0 -27.271,-19.929 -1.049,-38.81 h 88.111 c 0,0 38.811,-22.027 95.453,-11.539 l 137.409,-7.342 v 118.528 z" />
<g
   transform="translate(1.7333329,-0.93488878)"
   id="g3808"><path
     style="fill:#ffffff"
     inkscape:connector-curvature="0"
     id="path3804"
     d="m 309.094,427.584 h -66.456 c 1.362,-3.477 2.116,-7.256 2.116,-11.215 v -32.546 l -2.429,-29.659 c -4.677,-11.028 -15.604,-18.766 -28.338,-18.766 h -64.775 c -12.734,0 -23.661,7.737 -28.338,18.767 l -2.429,29.657 v 32.547 c 0,3.959 0.754,7.738 2.116,11.215 H 54.106 v 22.498 9 77.996 h 10.5 v -77.996 h 233.988 v 77.996 h 10.498 v -77.996 h 0.002 z m -88.63,-50.891 v 50.891 h -7.287 v -50.891 z m -77.729,0 h 7.288 v 50.891 h -7.288 z" /><circle
     style="fill:#ffffff"
     id="circle3806"
     r="37.650002"
     cy="284.664"
     cx="181.60001" /></g></svg>