<?xml version="1.0" encoding="UTF-8" standalone="no"?>
<!-- Generator: Adobe Illustrator 15.0.0, SVG Export Plug-In . SVG Version: 6.00 Build 0)  -->

<svg
   xmlns:dc="http://purl.org/dc/elements/1.1/"
   xmlns:cc="http://creativecommons.org/ns#"
   xmlns:rdf="http://www.w3.org/1999/02/22-rdf-syntax-ns#"
   xmlns:svg="http://www.w3.org/2000/svg"
   xmlns="http://www.w3.org/2000/svg"
   xmlns:sodipodi="http://sodipodi.sourceforge.net/DTD/sodipodi-0.dtd"
   xmlns:inkscape="http://www.inkscape.org/namespaces/inkscape"
   version="1.1"
   x="0px"
   y="0px"
   width="580px"
   height="580px"
   viewBox="0 0 580 580"
   enable-background="new 0 0 580 580"
   xml:space="preserve"
   id="svg7189"
   sodipodi:docname="construction_company.svg"
   inkscape:version="0.92.3 (2405546, 2018-03-11)"><metadata
   id="metadata7195"><rdf:RDF><cc:Work
       rdf:about=""><dc:format>image/svg+xml</dc:format><dc:type
         rdf:resource="http://purl.org/dc/dcmitype/StillImage" /><dc:title></dc:title></cc:Work></rdf:RDF></metadata><defs
   id="defs7193">
	
	
	
	
	
</defs><sodipodi:namedview
   pagecolor="#ffffff"
   bordercolor="#666666"
   borderopacity="1"
   objecttolerance="10"
   gridtolerance="10"
   guidetolerance="10"
   inkscape:pageopacity="0"
   inkscape:pageshadow="2"
   inkscape:window-width="1000"
   inkscape:window-height="788"
   id="namedview7191"
   showgrid="false"
   inkscape:zoom="0.40689655"
   inkscape:cx="290"
   inkscape:cy="290"
   inkscape:window-x="600"
   inkscape:window-y="197"
   inkscape:window-maximized="0"
   inkscape:current-layer="svg7189" />
<g
   id="Layer_2">
	<g
   id="g1327">
		<path
   id="path1329"
   fill="#111111"
   stroke="#EEEEEE"
   stroke-width="3.408"
   d="M66.275,1.768    c-41.335,0-64.571,21.371-64.571,65.036v450.123c0,40.844,20.894,62.229,62.192,62.229H515.92    c41.307,0,62.229-20.316,62.229-62.229V66.804c0-42.601-20.923-65.036-63.522-65.036C514.624,1.768,66.133,1.625,66.275,1.768z" />
	</g>
</g>
<g
   id="g7178">
		<path
   style="fill:#ffffff"
   inkscape:connector-curvature="0"
   id="path7174"
   d="m 309.094,427.584 h -66.456 c 1.362,-3.477 2.116,-7.256 2.116,-11.215 v -32.546 l -2.429,-29.659 c -4.677,-11.028 -15.604,-18.766 -28.338,-18.766 h -64.775 c -12.734,0 -23.661,7.737 -28.338,18.767 l -2.429,29.657 v 32.547 c 0,3.959 0.754,7.738 2.116,11.215 H 54.106 v 22.498 9 77.996 h 10.5 v -77.996 h 233.988 v 77.996 h 10.498 v -77.996 h 0.002 z m -88.63,-50.891 v 50.891 h -7.287 v -50.891 z m -77.729,0 h 7.288 v 50.891 h -7.288 z" />
		<circle
   style="fill:#ffffff"
   id="circle7176"
   r="37.650002"
   cy="284.664"
   cx="181.60001" />
	</g>
<g
   id="g2689"
   transform="matrix(0.68337333,0,0,0.68337333,258.02626,59.449443)"
   style="fill:#ffffff;fill-opacity:1"><path
     inkscape:connector-curvature="0"
     style="font-size:12px;fill:#ffffff;fill-opacity:1;fill-rule:evenodd"
     id="path633"
     d="m 385.98026,297.1542 -245.6152,0.3158 c -2.2248,-0.2008 -3.8363,-0.7083 -2.994,-3.3628 l 90.2505,-115.6881 c 3.1212,-4.4233 7.8301,-6.815 12.5675,-6.679 l 45.3513,-0.0968 c 7.3551,-0.003 10.1913,2.1257 14.2385,7.2074 l 88.3754,114.1202 c 0.8088,2.0078 0.0841,4.0156 -2.174,4.1833 z" /><rect
     style="font-size:12px;fill:#ffffff;fill-opacity:1;fill-rule:evenodd"
     id="rect613"
     transform="matrix(0.8854492,0.4647361,-0.4080531,0.9129582,0,0)"
     y="-14.842998"
     x="123.87642"
     ry="7.6598845"
     rx="7.2629361"
     height="124.68408"
     width="62.141693" /><rect
     style="font-size:12px;fill:#ffffff;fill-opacity:1;fill-rule:evenodd"
     id="rect615"
     y="46.624874"
     x="62.235527"
     ry="5.1857066"
     rx="6.1008315"
     height="32.5"
     width="100.00001" /><rect
     style="font-size:12px;fill:#ffffff;fill-opacity:1;fill-rule:evenodd"
     id="rect616"
     transform="matrix(0.4686899,-0.8833628,0.7446349,0.6674719,0,0)"
     y="81.759407"
     x="-81.341789"
     ry="4.4107256"
     rx="5.6854782"
     height="27.643017"
     width="93.191841" /><rect
     style="font-size:12px;fill:#ffffff;fill-opacity:1;fill-rule:evenodd"
     id="rect617"
     transform="matrix(0.8845854,0.4663782,-0.4366812,0.8996163,0,0)"
     y="83.646034"
     x="80.548698"
     ry="2.4741275"
     rx="17.846991"
     height="15.505919"
     width="292.53378" /><rect
     style="font-size:12px;fill:#ffffff;fill-opacity:1;fill-rule:evenodd"
     id="rect618"
     transform="matrix(-0.05720584,-0.9983624,0.9970356,-0.07694218,0,0)"
     y="144.00377"
     x="-203.17215"
     ry="4.3130631"
     rx="8.2331781"
     height="27.030947"
     width="134.95171" /><ellipse
     style="font-size:12px;fill:#ffffff;fill-opacity:1;fill-rule:evenodd;stroke-width:1"
     id="path619"
     transform="matrix(0.957573,0,0,0.972804,-219.55633,-423.0267)"
     ry="32.5"
     rx="31.25"
     cy="467.36218"
     cx="418.75" /><rect
     style="font-size:12px;fill:#ffffff;fill-opacity:1;fill-rule:evenodd"
     id="rect621"
     transform="matrix(-0.2340079,-0.9722347,0.9856452,-0.16883,0,0)"
     y="45.608078"
     x="-250.27161"
     ry="4.9840412"
     rx="4.7626944"
     height="31.236115"
     width="78.066315" /><rect
     style="font-size:12px;fill:#ffffff;fill-opacity:1;fill-rule:evenodd"
     id="rect622"
     transform="matrix(-0.00756986,-0.9999713,0.9970336,0.07696706,0,0)"
     y="100.42473"
     x="-287.73053"
     ry="4.9855928"
     rx="4.7732983"
     height="31.245834"
     width="78.240143" /><rect
     style="font-size:12px;fill:#ffffff;fill-opacity:1;fill-rule:evenodd"
     id="rect623"
     transform="matrix(0.4947081,-0.8690592,0.8178671,0.5754071,0,0)"
     y="135.70329"
     x="-232.42075"
     ry="5.0984578"
     rx="9.560359"
     height="31.953188"
     width="156.70583" /></g></svg>