<?xml version="1.0" encoding="UTF-8" standalone="no"?>
<!-- Generator: Adobe Illustrator 15.0.0, SVG Export Plug-In . SVG Version: 6.00 Build 0)  -->

<svg
   version="1.1"
   x="0px"
   y="0px"
   width="580px"
   height="580px"
   viewBox="0 0 580 580"
   enable-background="new 0 0 580 580"
   xml:space="preserve"
   id="svg36"
   sodipodi:docname="cooperative_25045.svg"
   inkscape:version="1.2.2 (b0a8486541, 2022-12-01)"
   xmlns:inkscape="http://www.inkscape.org/namespaces/inkscape"
   xmlns:sodipodi="http://sodipodi.sourceforge.net/DTD/sodipodi-0.dtd"
   xmlns="http://www.w3.org/2000/svg"
   xmlns:svg="http://www.w3.org/2000/svg"><defs
   id="defs40" /><sodipodi:namedview
   id="namedview38"
   pagecolor="#ffffff"
   bordercolor="#666666"
   borderopacity="1.0"
   inkscape:showpageshadow="2"
   inkscape:pageopacity="0.0"
   inkscape:pagecheckerboard="0"
   inkscape:deskcolor="#d1d1d1"
   showgrid="false"
   inkscape:zoom="0.62603333"
   inkscape:cx="-420.10543"
   inkscape:cy="271.55104"
   inkscape:window-width="2560"
   inkscape:window-height="1367"
   inkscape:window-x="0"
   inkscape:window-y="0"
   inkscape:window-maximized="1"
   inkscape:current-layer="svg2" />
<g
   id="Layer_2">
	<g
   id="g1327">
		<path
   id="path1329"
   fill="#111111"
   stroke="#EEEEEE"
   stroke-width="3.408"
   d="M66.275,1.768    c-41.335,0-64.571,21.371-64.571,65.036v450.123c0,40.844,20.894,62.229,62.192,62.229H515.92    c41.307,0,62.229-20.316,62.229-62.229V66.804c0-42.601-20.923-65.036-63.522-65.036C514.624,1.768,66.133,1.625,66.275,1.768z" />
	</g>
</g>
<g
   id="svg2"
   inkscape:version="0.46"
   sodipodi:docname="waste_bin.svg"
   sodipodi:version="0.32"
   inkscape:output_extension="org.inkscape.output.svg.inkscape">
	<g
   id="g9">
		<path
   fill="#FFFFFF"
   d="M309.094,427.584h-66.456c1.362-3.477,2.116-7.256,2.116-11.215v-32.546l-2.429-29.659    c-4.677-11.028-15.604-18.766-28.338-18.766h-64.775c-12.734,0-23.661,7.737-28.338,18.767l-2.429,29.657v32.547    c0,3.959,0.754,7.738,2.116,11.215H54.106v22.498v9v77.996h10.5v-77.996h233.988v77.996h10.498v-77.996h0.002V427.584z     M220.464,376.693v50.891h-7.287v-50.891H220.464z M142.735,376.693h7.288v50.891h-7.288V376.693z"
   id="path5" />
		<circle
   fill="#FFFFFF"
   cx="181.6"
   cy="284.664"
   r="37.65"
   id="circle7" />
	</g>
	
	
	
	<g
   id="g162"
   transform="matrix(1.1333894,0,0,1.1333894,-74.32031,-3.2049471)"><g
     id="g15">
		<circle
   fill="#ffffff"
   cx="520.23798"
   cy="104.043"
   r="22.016001"
   id="circle11" />
		<path
   fill="#ffffff"
   d="m 483.309,162.025 v 19.031 c 0,8.636 6.086,15.849 14.203,17.587 v -40.787 h 4.262 v 56.54 h 36.93 v -56.54 h 4.261 v 40.787 c 8.117,-1.739 14.203,-8.951 14.203,-17.587 v -19.03 l -1.42,-17.344 c -2.735,-6.449 -9.124,-10.972 -16.57,-10.972 H 501.3 c -7.446,0 -13.835,4.522 -16.569,10.973 z"
   id="path13" />
	</g><g
     id="g21">
		<circle
   fill="#ffffff"
   cx="327.36401"
   cy="104.043"
   r="22.016001"
   id="circle17" />
		<path
   fill="#ffffff"
   d="m 290.435,162.025 v 19.031 c 0,8.636 6.086,15.849 14.203,17.587 v -40.787 h 4.262 v 56.54 h 36.93 v -56.54 h 4.261 v 40.787 c 8.117,-1.739 14.203,-8.951 14.203,-17.587 v -19.03 l -1.42,-17.344 c -2.735,-6.449 -9.124,-10.972 -16.57,-10.972 h -37.878 c -7.446,0 -13.835,4.522 -16.569,10.973 z"
   id="path19" />
	</g><g
     id="g27">
		<circle
   fill="#ffffff"
   cx="425.29401"
   cy="46.042999"
   r="22.016001"
   id="circle23" />
		<path
   fill="#ffffff"
   d="m 388.364,104.025 v 19.031 c 0,8.636 6.086,15.849 14.203,17.587 V 99.856 h 4.262 v 56.54 h 36.93 v -56.54 h 4.261 v 40.787 c 8.117,-1.739 14.203,-8.951 14.203,-17.587 v -19.03 l -1.42,-17.344 C 458.068,80.233 451.679,75.71 444.233,75.71 h -37.878 c -7.446,0 -13.835,4.522 -16.569,10.973 z"
   id="path25" />
	</g><g
     id="g33">
		<circle
   fill="#ffffff"
   cx="425.29401"
   cy="225.045"
   r="22.016001"
   id="circle29" />
		<path
   fill="#ffffff"
   d="m 388.364,283.027 v 19.031 c 0,8.636 6.086,15.849 14.203,17.587 v -40.787 h 4.262 v 56.54 h 36.93 v -56.54 h 4.261 v 40.787 c 8.117,-1.739 14.203,-8.951 14.203,-17.587 v -19.03 l -1.42,-17.344 c -2.735,-6.449 -9.124,-10.972 -16.57,-10.972 h -37.878 c -7.446,0 -13.835,4.522 -16.569,10.973 z"
   id="path31" />
	</g></g>
</g>
</svg>
