<?xml version="1.0" encoding="UTF-8" standalone="no"?>
<!-- Generator: Adobe Illustrator 15.0.0, SVG Export Plug-In . SVG Version: 6.00 Build 0)  -->

<svg
   xmlns:dc="http://purl.org/dc/elements/1.1/"
   xmlns:cc="http://creativecommons.org/ns#"
   xmlns:rdf="http://www.w3.org/1999/02/22-rdf-syntax-ns#"
   xmlns:svg="http://www.w3.org/2000/svg"
   xmlns="http://www.w3.org/2000/svg"
   xmlns:sodipodi="http://sodipodi.sourceforge.net/DTD/sodipodi-0.dtd"
   xmlns:inkscape="http://www.inkscape.org/namespaces/inkscape"
   version="1.1"
   x="0px"
   y="0px"
   width="580px"
   height="580px"
   viewBox="0 0 580 580"
   enable-background="new 0 0 580 580"
   xml:space="preserve"
   id="svg7189"
   sodipodi:docname="courier.svg"
   inkscape:version="0.92.3 (2405546, 2018-03-11)"><metadata
   id="metadata7195"><rdf:RDF><cc:Work
       rdf:about=""><dc:format>image/svg+xml</dc:format><dc:type
         rdf:resource="http://purl.org/dc/dcmitype/StillImage" /><dc:title></dc:title></cc:Work></rdf:RDF></metadata><defs
   id="defs7193">
	
	
	
	
	
</defs><sodipodi:namedview
   pagecolor="#ffffff"
   bordercolor="#666666"
   borderopacity="1"
   objecttolerance="10"
   gridtolerance="10"
   guidetolerance="10"
   inkscape:pageopacity="0"
   inkscape:pageshadow="2"
   inkscape:window-width="1000"
   inkscape:window-height="788"
   id="namedview7191"
   showgrid="false"
   inkscape:zoom="0.40689655"
   inkscape:cx="290"
   inkscape:cy="290"
   inkscape:window-x="909"
   inkscape:window-y="230"
   inkscape:window-maximized="0"
   inkscape:current-layer="svg7189" />
<g
   id="Layer_2">
	<g
   id="g1327">
		<path
   id="path1329"
   fill="#111111"
   stroke="#EEEEEE"
   stroke-width="3.408"
   d="M66.275,1.768    c-41.335,0-64.571,21.371-64.571,65.036v450.123c0,40.844,20.894,62.229,62.192,62.229H515.92    c41.307,0,62.229-20.316,62.229-62.229V66.804c0-42.601-20.923-65.036-63.522-65.036C514.624,1.768,66.133,1.625,66.275,1.768z" />
	</g>
</g>
<g
   id="g7178">
		<path
   style="fill:#ffffff"
   inkscape:connector-curvature="0"
   id="path7174"
   d="m 309.094,427.584 h -66.456 c 1.362,-3.477 2.116,-7.256 2.116,-11.215 v -32.546 l -2.429,-29.659 c -4.677,-11.028 -15.604,-18.766 -28.338,-18.766 h -64.775 c -12.734,0 -23.661,7.737 -28.338,18.767 l -2.429,29.657 v 32.547 c 0,3.959 0.754,7.738 2.116,11.215 H 54.106 v 22.498 9 77.996 h 10.5 v -77.996 h 233.988 v 77.996 h 10.498 v -77.996 h 0.002 z m -88.63,-50.891 v 50.891 h -7.287 v -50.891 z m -77.729,0 h 7.288 v 50.891 h -7.288 z" />
		<circle
   style="fill:#ffffff"
   id="circle7176"
   r="37.650002"
   cy="284.664"
   cx="181.60001" />
	</g>
<path
   inkscape:connector-curvature="0"
   style="font-style:normal;font-variant:normal;font-weight:normal;font-stretch:normal;font-size:40px;line-height:125%;font-family:NPSPICT3;-inkscape-font-specification:NPSPICT3;text-align:start;writing-mode:lr-tb;text-anchor:start;fill:#ffffff;fill-opacity:1;stroke:none;stroke-width:0.50386208px;stroke-linecap:butt;stroke-linejoin:miter;stroke-opacity:1"
   d="m 317.62595,110.67508 50.2995,50.54421 -50.2995,50.2995 z m 156.48238,-9.47704 -61.9567,61.7194 c -3.08004,3.07999 -6.96825,4.61994 -11.66462,4.61988 -4.85975,6e-5 -8.91109,-1.62146 -12.15404,-4.8646 l -61.47468,-61.47468 z m 9.72175,110.32075 -50.2995,-50.2995 50.2995,-50.54421 z m -157.21651,9.47703 50.54421,-50.2995 2.18758,2.18759 c 5.83344,5.67046 12.88064,8.50566 21.14165,8.5056 8.26076,6e-5 15.22641,-2.83514 20.89695,-8.5056 l 2.18757,-2.18759 50.5368,50.2995 z m -22.5951,13.60749 H 497.92699 V 87.345846 H 304.01847 Z"
   id="flowRoot3192" /></svg>