<?xml version="1.0" encoding="utf-8"?>
<!-- Generator: Adobe Illustrator 15.0.0, SVG Export Plug-In . SVG Version: 6.00 Build 0)  -->
<!DOCTYPE svg PUBLIC "-//W3C//DTD SVG 1.1//EN" "http://www.w3.org/Graphics/SVG/1.1/DTD/svg11.dtd">
<svg version="1.1" xmlns="http://www.w3.org/2000/svg" xmlns:xlink="http://www.w3.org/1999/xlink" x="0px" y="0px" width="580px"
	 height="580px" viewBox="0 0 580 580" enable-background="new 0 0 580 580" xml:space="preserve">
<g id="Layer_2">
	<g id="g1327">
		<path id="path1329" fill="#111111" stroke="#EEEEEE" stroke-width="3.408" d="M66.275,1.768
			c-41.335,0-64.571,21.371-64.571,65.036v450.123c0,40.844,20.894,62.229,62.192,62.229H515.92
			c41.307,0,62.229-20.316,62.229-62.229V66.804c0-42.601-20.923-65.036-63.522-65.036C514.624,1.768,66.133,1.625,66.275,1.768z"/>
	</g>
</g>
<g id="svg2" inkscape:output_extension="org.inkscape.output.svg.inkscape" xmlns:cc="http://creativecommons.org/ns#" xmlns:svg="http://www.w3.org/2000/svg" xmlns:sodipodi="http://sodipodi.sourceforge.net/DTD/sodipodi-0.dtd" xmlns:rdf="http://www.w3.org/1999/02/22-rdf-syntax-ns#" xmlns:dc="http://purl.org/dc/elements/1.1/" xmlns:inkscape="http://www.inkscape.org/namespaces/inkscape" sodipodi:docname="waste_bin.svg" inkscape:version="0.46" sodipodi:version="0.32">
	<g>
		<g>
			<path fill="#FFFFFF" d="M309.094,427.584h-66.456c1.362-3.477,2.116-7.256,2.116-11.215v-32.546l-2.429-29.659
				c-4.677-11.028-15.604-18.766-28.338-18.766h-64.775c-12.734,0-23.661,7.737-28.338,18.767l-2.429,29.657v32.547
				c0,3.959,0.754,7.738,2.116,11.215H54.106v22.498v9v77.996h10.5v-77.996h233.988v77.996h10.498v-77.996h0.002V427.584z
				 M220.464,376.693v50.891h-7.287v-50.891H220.464z M142.735,376.693h7.288v50.891h-7.288V376.693z"/>
		</g>
		<g>
			<circle fill="#FFFFFF" cx="181.6" cy="284.664" r="37.65"/>
		</g>
	</g>
	<g>
		<path fill="#FFFFFF" d="M314.602,144.882c2.689,0,5.2-0.663,7.514-1.968c2.313-1.305,3.953-2.891,4.921-4.769
			c0.969-1.878,1.457-4.32,1.457-7.325v-3.861c-3.32,1.186-6.792,2.232-10.391,3.142c-4.903,1.305-8.007,2.596-9.312,3.861
			c-1.345,1.305-2.006,2.787-2.006,4.448c0,1.897,0.663,3.45,1.987,4.656C310.097,144.272,312.031,144.882,314.602,144.882z"/>
		<path fill="#FFFFFF" d="M409.745,179.896c-3.282,0-5.949,1.203-8.025,3.635c-2.076,2.432-3.123,6.128-3.123,11.071
			c0,5.417,1.03,9.341,3.067,11.772c2.035,2.432,4.599,3.653,7.721,3.653c2.887,0,5.312-1.204,7.269-3.595
			c1.957-2.393,2.951-6.42,2.951-12.075c0-4.982-0.958-8.626-2.877-10.958C414.811,181.065,412.473,179.896,409.745,179.896z"/>
		<path fill="#FFFFFF" d="M534.098,71.107h-99.9L413.33,21.849c-1.595-3.765-5.435-5.896-9.298-5.496
			c-3.871-0.401-7.708,1.735-9.3,5.505l-20.803,49.25h-98.176c-3.344,0-6.056,2.711-6.056,6.057v161.698
			c0,3.345,2.712,6.057,6.056,6.057h29.769l-16.759,40.574c-1.916,4.637,0.291,9.949,4.929,11.864c1.134,0.47,2.308,0.69,3.463,0.69
			c3.569,0,6.955-2.115,8.401-5.618l19.623-47.51h157.704l19.624,47.51c1.915,4.637,7.228,6.844,11.865,4.928
			c4.636-1.915,6.844-7.227,4.928-11.864l-16.758-40.574h31.555c3.346,0,6.058-2.712,6.058-6.057V77.164
			C540.155,73.819,537.443,71.107,534.098,71.107z M404.043,46.507l10.422,24.601H393.65L404.043,46.507z M282.579,140.188
			c0-4.785,1.413-8.725,4.221-11.81c2.806-3.085,7.986-5.368,15.539-6.871c9.055-1.819,14.912-3.091,17.602-3.824
			c2.688-0.731,5.55-1.69,8.554-2.875c0-2.967-0.609-5.042-1.835-6.228c-1.227-1.186-3.39-1.779-6.474-1.779
			c-3.954,0-6.918,0.627-8.896,1.894c-1.542,0.988-2.798,2.854-3.747,5.583l-23.07-2.442c0.868-4.033,2.125-7.206,3.766-9.52
			c1.64-2.313,4.013-4.318,7.097-6.018c2.214-1.227,5.247-2.167,9.122-2.839s8.079-1.022,12.586-1.022
			c7.236,0,13.042,0.42,17.432,1.23c4.389,0.811,8.052,2.502,10.978,5.072c2.056,1.78,3.678,4.29,4.864,7.552
			c1.187,3.263,1.778,6.384,1.778,9.35v27.803c0,2.965,0.191,5.304,0.568,6.984c0.334,1.497,1.043,3.385,2.084,5.621l-0.009,0.813
			h-22.27c-0.911-1.621-1.503-2.859-1.779-3.709c-0.277-0.85-0.557-2.193-0.833-4.013c-3.163,3.045-6.32,5.225-9.444,6.53
			c-4.271,1.741-9.222,2.612-14.877,2.612c-7.512,0-13.214-1.744-17.109-5.223C284.532,149.578,282.579,145.289,282.579,140.188z
			 M440.292,212.071c-2.294,5.239-5.468,9.144-9.521,11.734c-4.052,2.591-8.551,3.899-13.494,3.899
			c-4.23,0-8.101-0.925-11.621-2.744c-2.649-1.424-5.526-4.092-8.648-8.006v9.311h-22.599v-86.948h24.377v30.131
			c2.412-2.531,5.149-4.431,8.214-5.697s6.447-1.892,10.163-1.893c7.672,0.001,14.02,2.754,19.041,8.271
			c5.021,5.516,7.532,13.433,7.532,23.752C443.736,200.763,442.585,206.832,440.292,212.071z M512.742,147.286
			c-2.887,3.499-6.564,6.22-11.054,8.157c-4.487,1.938-10.188,2.896-17.109,2.896c-6.683,0-12.244-0.628-16.693-1.874
			c-4.447-1.245-8.284-3.25-11.486-6.037c-3.204-2.788-5.715-6.066-7.534-9.823c-1.818-3.757-2.725-8.744-2.725-14.953
			c0-6.484,1.098-11.872,3.312-16.182c1.62-3.163,3.836-6.006,6.644-8.517c2.807-2.511,5.702-4.376,8.669-5.602
			c4.705-1.938,10.737-2.915,18.093-2.915c10.28,0,18.108,1.849,23.507,5.526c5.396,3.678,9.199,9.047,11.375,16.125l-22.731,3.028
			c-0.712-2.689-2.002-4.711-3.88-6.076s-4.407-2.044-7.569-2.044c-3.995,0-7.22,1.43-9.691,4.297s-3.709,7.209-3.709,13.021
			c0,5.179,1.219,9.103,3.672,11.791c2.45,2.689,5.592,4.051,9.388,4.051c3.162,0,5.813-0.821,7.968-2.442
			c2.154-1.621,3.777-4.114,4.845-7.476l22.938,2.611C517.704,139.635,515.629,143.786,512.742,147.286z"/>
	</g>
</g>
</svg>
