<?xml version="1.0" encoding="utf-8"?>
<!-- Generator: Adobe Illustrator 15.0.0, SVG Export Plug-In . SVG Version: 6.00 Build 0)  -->
<!DOCTYPE svg PUBLIC "-//W3C//DTD SVG 1.1//EN" "http://www.w3.org/Graphics/SVG/1.1/DTD/svg11.dtd">
<svg version="1.1" xmlns="http://www.w3.org/2000/svg" xmlns:xlink="http://www.w3.org/1999/xlink" x="0px" y="0px" width="580px"
	 height="580px" viewBox="0 0 580 580" enable-background="new 0 0 580 580" xml:space="preserve">
<g id="Layer_2">
	<g id="g1327">
		<path id="path1329" fill="#111111" stroke="#EEEEEE" stroke-width="3.408" d="M66.275,1.768
			c-41.335,0-64.571,21.371-64.571,65.036v450.123c0,40.844,20.894,62.229,62.192,62.229H515.92
			c41.307,0,62.229-20.316,62.229-62.229V66.804c0-42.601-20.923-65.036-63.522-65.036C514.624,1.768,66.133,1.625,66.275,1.768z"/>
	</g>
</g>
<g id="svg2" inkscape:version="0.46" sodipodi:docname="waste_bin.svg" sodipodi:version="0.32" xmlns:inkscape="http://www.inkscape.org/namespaces/inkscape" xmlns:rdf="http://www.w3.org/1999/02/22-rdf-syntax-ns#" xmlns:dc="http://purl.org/dc/elements/1.1/" xmlns:cc="http://creativecommons.org/ns#" xmlns:svg="http://www.w3.org/2000/svg" xmlns:sodipodi="http://sodipodi.sourceforge.net/DTD/sodipodi-0.dtd" inkscape:output_extension="org.inkscape.output.svg.inkscape">
	<g>
		<path fill="#FFFFFF" d="M309.094,427.584h-66.456c1.362-3.477,2.116-7.256,2.116-11.215v-32.546l-2.429-29.659
			c-4.677-11.028-15.604-18.766-28.338-18.766h-64.775c-12.734,0-23.661,7.737-28.338,18.767l-2.429,29.657v32.547
			c0,3.959,0.754,7.738,2.116,11.215H54.106v22.498v9v77.996h10.5v-77.996h233.988v77.996h10.498v-77.996h0.002V427.584z
			 M220.464,376.693v50.891h-7.287v-50.891H220.464z M142.735,376.693h7.288v50.891h-7.288V376.693z"/>
		<circle fill="#FFFFFF" cx="181.6" cy="284.664" r="37.65"/>
	</g>
	<g>
		<circle fill="#FFFFFF" cx="519.73" cy="97.228" r="22.016"/>
		<path fill="#FFFFFF" d="M482.801,155.21v19.031c0,8.636,6.086,15.849,14.203,17.587v-40.787h4.262v56.54h36.93v-56.54h4.261
			v40.787c8.117-1.739,14.203-8.951,14.203-17.587v-19.03l-1.42-17.344c-2.735-6.449-9.124-10.972-16.57-10.972h-37.878
			c-7.446,0-13.835,4.522-16.569,10.973L482.801,155.21z"/>
	</g>
	<g>
		<circle fill="#FFFFFF" cx="438.73" cy="97.228" r="22.016"/>
		<path fill="#FFFFFF" d="M401.801,155.21v19.031c0,8.636,6.086,15.849,14.203,17.587v-40.787h4.262v56.54h36.93v-56.54h4.261
			v40.787c8.117-1.739,14.203-8.951,14.203-17.587v-19.03l-1.42-17.344c-2.735-6.449-9.124-10.972-16.57-10.972h-37.878
			c-7.446,0-13.835,4.522-16.569,10.973L401.801,155.21z"/>
	</g>
	<g>
		<circle fill="#FFFFFF" cx="344.061" cy="56.378" r="30.165"/>
		<path fill="#FFFFFF" d="M293.46,135.823v26.076c0,11.833,8.339,21.716,19.461,24.099v-55.886h5.839v77.469h50.601v-77.469h5.838
			v55.886c11.122-2.385,19.461-12.266,19.461-24.099v-26.075l-1.945-23.763c-3.748-8.837-12.502-15.034-22.704-15.034h-51.9
			c-10.202,0-18.956,6.197-22.703,15.035L293.46,135.823z"/>
	</g>
	<g>
		<circle fill="#FFFFFF" cx="246.786" cy="97.228" r="22.016"/>
		<path fill="#FFFFFF" d="M209.856,155.21v19.031c0,8.636,6.086,15.849,14.203,17.587v-40.787h4.262v56.54h36.93v-56.54h4.261
			v40.787c8.117-1.739,14.203-8.951,14.203-17.587v-19.03l-1.42-17.344c-2.735-6.449-9.124-10.972-16.57-10.972h-37.878
			c-7.446,0-13.835,4.522-16.569,10.973L209.856,155.21z"/>
	</g>
</g>
</svg>
