<?xml version="1.0" encoding="UTF-8" standalone="no"?>
<!-- Generator: Adobe Illustrator 15.0.0, SVG Export Plug-In . SVG Version: 6.00 Build 0)  -->

<svg
   xmlns:dc="http://purl.org/dc/elements/1.1/"
   xmlns:cc="http://creativecommons.org/ns#"
   xmlns:rdf="http://www.w3.org/1999/02/22-rdf-syntax-ns#"
   xmlns:svg="http://www.w3.org/2000/svg"
   xmlns="http://www.w3.org/2000/svg"
   xmlns:sodipodi="http://sodipodi.sourceforge.net/DTD/sodipodi-0.dtd"
   xmlns:inkscape="http://www.inkscape.org/namespaces/inkscape"
   version="1.1"
   x="0px"
   y="0px"
   width="580px"
   height="580px"
   viewBox="0 0 580 580"
   enable-background="new 0 0 580 580"
   xml:space="preserve"
   id="svg3813"
   sodipodi:docname="energy_supplier.svg"
   inkscape:version="0.92.3 (2405546, 2018-03-11)"><metadata
   id="metadata3819"><rdf:RDF><cc:Work
       rdf:about=""><dc:format>image/svg+xml</dc:format><dc:type
         rdf:resource="http://purl.org/dc/dcmitype/StillImage" /><dc:title></dc:title></cc:Work></rdf:RDF></metadata><defs
   id="defs3817">
	
	
</defs><sodipodi:namedview
   pagecolor="#ffffff"
   bordercolor="#666666"
   borderopacity="1"
   objecttolerance="10"
   gridtolerance="10"
   guidetolerance="10"
   inkscape:pageopacity="0"
   inkscape:pageshadow="2"
   inkscape:window-width="1124"
   inkscape:window-height="732"
   id="namedview3815"
   showgrid="false"
   inkscape:zoom="0.9"
   inkscape:cx="290"
   inkscape:cy="290"
   inkscape:window-x="596"
   inkscape:window-y="-5"
   inkscape:window-maximized="0"
   inkscape:current-layer="svg3813" />
<g
   id="Layer_2">
	<g
   id="g1327">
		<path
   id="path1329"
   d="M66.275,1.768    c-41.335,0-64.571,21.371-64.571,65.036v450.123c0,40.844,20.894,62.229,62.192,62.229H515.92    c41.307,0,62.229-20.316,62.229-62.229V66.804c0-42.601-20.923-65.036-63.522-65.036C514.624,1.768,66.133,1.625,66.275,1.768z"
   stroke-width="3.408"
   stroke="#EEEEEE"
   fill="#111111" />
	</g>
</g>
<g
   id="g3808">
		<path
   style="fill:#ffffff"
   inkscape:connector-curvature="0"
   id="path3804"
   d="m 309.094,427.584 h -66.456 c 1.362,-3.477 2.116,-7.256 2.116,-11.215 v -32.546 l -2.429,-29.659 c -4.677,-11.028 -15.604,-18.766 -28.338,-18.766 h -64.775 c -12.734,0 -23.661,7.737 -28.338,18.767 l -2.429,29.657 v 32.547 c 0,3.959 0.754,7.738 2.116,11.215 H 54.106 v 22.498 9 77.996 h 10.5 v -77.996 h 233.988 v 77.996 h 10.498 v -77.996 h 0.002 z m -88.63,-50.891 v 50.891 h -7.287 v -50.891 z m -77.729,0 h 7.288 v 50.891 h -7.288 z" />
		<circle
   style="fill:#ffffff"
   id="circle3806"
   r="37.650002"
   cy="284.664"
   cx="181.60001" />
	</g>
<g
   transform="matrix(0.62254249,0,0,0.62254249,201.06555,-0.80299089)"
   id="g3989"><path
     style="fill:#ffffff"
     inkscape:connector-curvature="0"
     id="path3976"
     d="m 237.315,97.139 h -66.01 v -2.681 c 0,-7.956 -7.255,-14.404 -16.203,-14.404 -8.948,0 -16.202,6.449 -16.202,14.405 v 23.865 H 87.228 c -7.19,0 -13.021,5.83 -13.021,13.021 0,7.189 5.83,13.021 13.021,13.021 h 51.673 v 68.776 H 87.228 c -7.19,0 -13.021,5.829 -13.021,13.02 0,7.191 5.83,13.022 13.021,13.022 h 51.673 v 23.863 c 0,7.956 7.254,14.404 16.202,14.404 8.949,0 16.203,-6.448 16.203,-14.404 v -2.681 h 66.01 c 35.794,0 64.81,-29.014 64.81,-64.81 v -33.607 c -10e-4,-35.795 -29.017,-64.81 -64.811,-64.81 z" /><path
     style="fill:none;stroke:#ffffff;stroke-width:50;stroke-linecap:round;stroke-linejoin:round;stroke-miterlimit:10"
     inkscape:connector-curvature="0"
     id="path3978"
     d="m 257.792,185.896 h 178.001 c 38.5,0 70,31.5 70,70 v 44.643 c 0,38.5 -31.5,70 -70,70 H 189.792 c -38.5,0 -70,27.45 -70,61 0,33.551 31.5,61 70,61 h 177"
     stroke-miterlimit="10" /></g></svg>