<?xml version="1.0" encoding="UTF-8" standalone="no"?>
<!-- Generator: Adobe Illustrator 15.0.0, SVG Export Plug-In . SVG Version: 6.00 Build 0)  -->

<svg
   xmlns:dc="http://purl.org/dc/elements/1.1/"
   xmlns:cc="http://creativecommons.org/ns#"
   xmlns:rdf="http://www.w3.org/1999/02/22-rdf-syntax-ns#"
   xmlns:svg="http://www.w3.org/2000/svg"
   xmlns="http://www.w3.org/2000/svg"
   xmlns:sodipodi="http://sodipodi.sourceforge.net/DTD/sodipodi-0.dtd"
   xmlns:inkscape="http://www.inkscape.org/namespaces/inkscape"
   version="1.1"
   x="0px"
   y="0px"
   width="580px"
   height="580px"
   viewBox="0 0 580 580"
   enable-background="new 0 0 580 580"
   xml:space="preserve"
   id="svg9161"
   sodipodi:docname="engineer.svg"
   inkscape:version="0.92.3 (2405546, 2018-03-11)"><metadata
   id="metadata9167"><rdf:RDF><cc:Work
       rdf:about=""><dc:format>image/svg+xml</dc:format><dc:type
         rdf:resource="http://purl.org/dc/dcmitype/StillImage" /><dc:title></dc:title></cc:Work></rdf:RDF></metadata><defs
   id="defs9165">
	
	
	
</defs><sodipodi:namedview
   pagecolor="#ffffff"
   bordercolor="#666666"
   borderopacity="1"
   objecttolerance="10"
   gridtolerance="10"
   guidetolerance="10"
   inkscape:pageopacity="0"
   inkscape:pageshadow="2"
   inkscape:window-width="1063"
   inkscape:window-height="805"
   id="namedview9163"
   showgrid="false"
   inkscape:zoom="0.40689655"
   inkscape:cx="290"
   inkscape:cy="290"
   inkscape:window-x="370"
   inkscape:window-y="139"
   inkscape:window-maximized="0"
   inkscape:current-layer="svg9161" />
<g
   id="Layer_2">
	<g
   id="g1327">
		<path
   id="path1329"
   fill="#111111"
   stroke="#EEEEEE"
   stroke-width="3.408"
   d="M66.275,1.768    c-41.335,0-64.571,21.371-64.571,65.036v450.123c0,40.844,20.894,62.229,62.192,62.229H515.92    c41.307,0,62.229-20.316,62.229-62.229V66.804c0-42.601-20.923-65.036-63.522-65.036C514.624,1.768,66.133,1.625,66.275,1.768z" />
	</g>
</g>
<g
   id="g9150">
		<path
   style="fill:#ffffff"
   inkscape:connector-curvature="0"
   id="path9146"
   d="m 309.094,427.584 h -66.456 c 1.362,-3.477 2.116,-7.256 2.116,-11.215 v -32.546 l -2.429,-29.659 c -4.677,-11.028 -15.604,-18.766 -28.338,-18.766 h -64.775 c -12.734,0 -23.661,7.737 -28.338,18.767 l -2.429,29.657 v 32.547 c 0,3.959 0.754,7.738 2.116,11.215 H 54.106 v 22.498 9 77.996 h 10.5 v -77.996 h 233.988 v 77.996 h 10.498 v -77.996 h 0.002 z m -88.63,-50.891 v 50.891 h -7.287 v -50.891 z m -77.729,0 h 7.288 v 50.891 h -7.288 z" />
		<circle
   style="fill:#ffffff"
   id="circle9148"
   r="37.650002"
   cy="284.664"
   cx="181.60001" />
	</g><g
   id="g9154">
		
	</g>
<g
   id="g9096"
   style="fill:#ffffff;fill-opacity:1"
   transform="matrix(2.0028287,0,0,2.0028287,483.7377,345.20315)"><g
     aria-label="e"
     style="font-style:normal;font-variant:normal;font-weight:bold;font-stretch:normal;font-size:149.33332825px;line-height:125%;font-family:Helsinki;-inkscape-font-specification:'Helsinki Bold';letter-spacing:0px;word-spacing:0px;fill:#ffffff;fill-opacity:1;stroke:none;stroke-width:1px;stroke-linecap:butt;stroke-linejoin:miter;stroke-opacity:1"
     id="flowRoot9078"><path
       d="m -92.825522,-64.178397 q 0.583334,9.843749 4.739583,15.093749 4.229167,5.25 11.375,5.25 10.71875,0 13.708333,-8.677083 h 20.927083 q -3.208334,12.322916 -12.03125,18.739583 -8.75,6.343749 -22.604166,6.343749 -17.354166,0 -27.197911,-10.937499 -9.84375,-11.010417 -9.84375,-30.479166 0,-19.104166 9.69791,-30.187499 9.697918,-11.156247 26.177084,-11.156247 17.0625,0 26.395833,10.791664 9.40625,10.791666 9.40625,30.552082 v 4.666667 z m 29.822916,-14.072917 q -0.947917,-15.531249 -14.875,-15.531249 -6.489583,0 -10.427083,4.083333 -3.864583,4.010417 -4.520833,11.447916 z"
       style="fill:#ffffff;fill-opacity:1"
       id="path9098"
       inkscape:connector-curvature="0" /></g><g
     aria-label="x"
     style="font-style:normal;font-variant:normal;font-weight:bold;font-stretch:normal;font-size:96px;line-height:125%;font-family:Helsinki;-inkscape-font-specification:'Helsinki Bold';letter-spacing:0px;word-spacing:0px;fill:#ffffff;fill-opacity:1;stroke:none;stroke-width:1px;stroke-linecap:butt;stroke-linejoin:miter;stroke-opacity:1"
     id="text9088"><path
       d="m -2.5785484,-79.693748 -8.8593746,-14.859375 -8.8125,14.859375 h -16.125 l 16.875,-26.203122 -15.9375,-24.65625 h 16.125 l 7.875,13.35937 7.8749996,-13.35937 H 12.562077 l -15.9375004,24.65625 16.9218754,26.203122 z"
       style="fill:#ffffff;fill-opacity:1"
       id="path9101"
       inkscape:connector-curvature="0" /></g></g></svg>