<?xml version="1.0" encoding="UTF-8" standalone="no"?>
<!-- Generator: Adobe Illustrator 15.0.0, SVG Export Plug-In . SVG Version: 6.00 Build 0)  -->

<svg
   version="1.1"
   x="0px"
   y="0px"
   width="580px"
   height="580px"
   viewBox="0 0 580 580"
   enable-background="new 0 0 580 580"
   xml:space="preserve"
   id="svg210"
   sodipodi:docname="financial_25046.svg"
   inkscape:version="1.2.2 (b0a8486541, 2022-12-01)"
   xmlns:inkscape="http://www.inkscape.org/namespaces/inkscape"
   xmlns:sodipodi="http://sodipodi.sourceforge.net/DTD/sodipodi-0.dtd"
   xmlns="http://www.w3.org/2000/svg"
   xmlns:svg="http://www.w3.org/2000/svg"><defs
   id="defs214" /><sodipodi:namedview
   id="namedview212"
   pagecolor="#ffffff"
   bordercolor="#666666"
   borderopacity="1.0"
   inkscape:showpageshadow="2"
   inkscape:pageopacity="0.0"
   inkscape:pagecheckerboard="0"
   inkscape:deskcolor="#d1d1d1"
   showgrid="true"
   showguides="true"
   inkscape:zoom="0.31301667"
   inkscape:cx="242.79857"
   inkscape:cy="797.08215"
   inkscape:window-width="1444"
   inkscape:window-height="1236"
   inkscape:window-x="0"
   inkscape:window-y="0"
   inkscape:window-maximized="0"
   inkscape:current-layer="svg2" />
<g
   id="Layer_2">
	<g
   id="g1327">
		<path
   id="path1329"
   fill="#111111"
   stroke="#EEEEEE"
   stroke-width="3.408"
   d="M66.275,1.768    c-41.335,0-64.571,21.371-64.571,65.036v450.123c0,40.844,20.894,62.229,62.192,62.229H515.92    c41.307,0,62.229-20.316,62.229-62.229V66.804c0-42.601-20.923-65.036-63.522-65.036C514.624,1.768,66.133,1.625,66.275,1.768z" />
	</g>
</g>
<g
   id="svg2"
   inkscape:version="0.46"
   sodipodi:docname="waste_bin.svg"
   sodipodi:version="0.32"
   inkscape:output_extension="org.inkscape.output.svg.inkscape">
	<g
   id="g199">
		<path
   fill="#FFFFFF"
   d="M309.094,427.584h-66.456c1.362-3.477,2.116-7.256,2.116-11.215v-32.546l-2.429-29.659    c-4.677-11.028-15.604-18.766-28.338-18.766h-64.775c-12.734,0-23.661,7.737-28.338,18.767l-2.429,29.657v32.547    c0,3.959,0.754,7.738,2.116,11.215H54.106v22.498v9v77.996h10.5v-77.996h233.988v77.996h10.498v-77.996h0.002V427.584z     M220.464,376.693v50.891h-7.287v-50.891H220.464z M142.735,376.693h7.288v50.891h-7.288V376.693z"
   id="path195" />
		<circle
   fill="#FFFFFF"
   cx="181.6"
   cy="284.664"
   r="37.65"
   id="circle197" />
	</g>
	
	
	
	<g
   id="g220"
   transform="matrix(1.1452622,0,0,1.1452622,-77.464559,-6.3292194)"><path
     fill="#ffffff"
     d="m 355.762,183.115 v -13.861 c -6.931,-0.875 -12.565,-2.426 -16.903,-4.659 -4.338,-2.234 -8.086,-5.84 -11.243,-10.82 -3.158,-4.979 -4.994,-11.063 -5.507,-18.252 l 13.938,-2.618 c 1.079,7.444 2.978,12.913 5.7,16.403 3.901,4.928 8.573,7.676 14.015,8.24 V 113.42 c -5.698,-1.078 -11.526,-3.286 -17.48,-6.623 -4.417,-2.464 -7.818,-5.879 -10.205,-10.242 -2.387,-4.364 -3.581,-9.318 -3.581,-14.863 0,-9.858 3.492,-17.84 10.475,-23.951 4.67,-4.106 11.602,-6.623 20.792,-7.547 v -6.623 h 8.163 v 6.623 c 8.061,0.77 14.452,3.131 19.177,7.084 6.058,5.032 9.703,11.937 10.936,20.716 l -14.324,2.156 c -0.822,-5.442 -2.53,-9.613 -5.122,-12.514 -2.593,-2.9 -6.147,-4.814 -10.666,-5.738 v 39.969 c 6.982,1.746 11.604,3.107 13.863,4.082 4.312,1.9 7.828,4.21 10.551,6.931 2.719,2.722 4.813,5.957 6.275,9.703 1.464,3.749 2.194,7.805 2.194,12.168 0,9.601 -3.055,17.61 -9.164,24.027 -6.109,6.418 -14.015,9.858 -23.72,10.319 v 14.016 h -8.164 z m 0,-121.369 c -5.391,0.822 -9.64,2.979 -12.745,6.469 -3.107,3.492 -4.658,7.624 -4.658,12.398 0,4.725 1.32,8.678 3.966,11.86 2.644,3.185 7.124,5.726 13.438,7.624 V 61.746 Z m 8.163,95.801 c 5.391,-0.667 9.845,-3.003 13.362,-7.008 3.515,-4.004 5.274,-8.958 5.274,-14.862 0,-5.032 -1.245,-9.075 -3.735,-12.129 -2.49,-3.054 -7.458,-5.788 -14.901,-8.202 z"
     id="path201" /><path
     fill="#ffffff"
     d="m 508.861,64.827 c -8.626,0 -15.865,2.079 -21.718,6.237 -3.492,2.464 -6.649,5.957 -9.472,10.473 -2.877,4.673 -4.571,9.114 -5.083,13.323 h 52.521 l -2.079,10.32 h -51.673 c -0.053,1.078 -0.079,2.105 -0.079,3.08 0,3.955 0.026,6.315 0.079,7.085 h 49.594 l -2.156,10.319 h -45.822 c 2.158,11.757 7.343,20.099 15.558,25.029 5.903,3.542 12.295,5.313 19.176,5.313 9.6,0 17.096,-2.515 22.486,-7.547 v 15.864 c -6.417,2.977 -13.502,4.467 -21.254,4.467 -23.208,0 -38.891,-9.651 -47.055,-28.956 -1.645,-3.901 -3.056,-8.625 -4.235,-14.17 h -11.782 l 2.156,-10.319 h 8.085 c -0.153,-2.157 -0.23,-4.492 -0.23,-7.009 0,-1.026 0.026,-2.079 0.077,-3.157 h -10.088 l 2.156,-10.32 h 8.934 c 3.183,-16.736 11.475,-28.75 24.874,-36.041 8.266,-4.518 17.377,-6.777 27.339,-6.777 9.55,0 17.584,2.079 24.104,6.238 l -3.081,14.324 c -6.263,-5.184 -13.376,-7.776 -21.332,-7.776 z"
     id="path203" /><path
     fill="#ffffff"
     d="m 480.443,265.018 h 24.258 v 11.397 h -21.869 c 0.974,2.261 1.462,4.519 1.462,6.777 0,4.467 -1.065,9.192 -3.195,14.17 -2.131,4.98 -5.636,10.063 -10.513,15.248 4.056,-1.129 7.752,-1.695 11.09,-1.695 4.262,0 9.062,0.643 14.401,1.926 8.829,2.105 14.811,3.158 17.942,3.158 3.8,0 8.728,-1.438 14.786,-4.313 l 4.468,12.707 c -4.725,2.002 -8.383,3.311 -10.974,3.928 -2.594,0.615 -5.175,0.924 -7.739,0.924 -2.156,0 -4.341,-0.205 -6.547,-0.617 -1.387,-0.256 -4.711,-1.193 -9.973,-2.811 -5.264,-1.617 -8.664,-2.58 -10.205,-2.889 -2.413,-0.41 -4.826,-0.615 -7.239,-0.615 -3.696,0 -7.636,0.643 -11.82,1.926 -4.184,1.283 -7.996,3.029 -11.436,5.236 l -5.314,-13.322 c 4.93,-2.721 9.112,-6.609 12.554,-11.668 3.439,-5.057 5.16,-11.23 5.16,-18.521 0,-3.131 -0.438,-6.314 -1.31,-9.55 h -15.095 v -11.397 h 11.859 c -1.694,-5.749 -2.771,-9.946 -3.235,-12.591 -0.461,-2.644 -0.692,-5.224 -0.692,-7.74 0,-10.678 3.954,-19.021 11.859,-25.028 6.366,-4.774 14.067,-7.162 23.104,-7.162 9.292,0 16.954,2.555 22.987,7.663 6.032,5.109 9.741,12.283 11.128,21.524 l -13.784,2.079 c -0.771,-6.16 -3.069,-11.012 -6.894,-14.555 -3.825,-3.543 -8.407,-5.313 -13.745,-5.313 -5.699,0 -10.436,1.836 -14.209,5.506 -3.774,3.671 -5.661,8.1 -5.661,13.284 0.002,5.7 1.466,13.145 4.391,22.334 z"
     id="path205" /><path
     fill="#ffffff"
     d="M 353.222,329.477 V 304.45 h -31.96 v -10.705 h 31.96 v -11.012 h -31.96 v -11.397 h 26.261 L 316.256,216.58 h 15.401 l 22.334,39.738 c 2.514,4.518 4.468,8.472 5.853,11.859 1.18,-2.721 3.285,-6.904 6.315,-12.553 l 21.101,-39.045 h 16.48 l -31.189,54.756 h 26.261 v 11.397 h -31.729 v 11.012 h 31.729 v 10.705 h -31.729 v 25.027 h -13.861 z"
     id="path207" /></g>
</g>
</svg>
