<?xml version="1.0" encoding="UTF-8" standalone="no"?>
<!-- Generator: Adobe Illustrator 15.0.0, SVG Export Plug-In . SVG Version: 6.00 Build 0)  -->

<svg
   xmlns:dc="http://purl.org/dc/elements/1.1/"
   xmlns:cc="http://creativecommons.org/ns#"
   xmlns:rdf="http://www.w3.org/1999/02/22-rdf-syntax-ns#"
   xmlns:svg="http://www.w3.org/2000/svg"
   xmlns="http://www.w3.org/2000/svg"
   xmlns:sodipodi="http://sodipodi.sourceforge.net/DTD/sodipodi-0.dtd"
   xmlns:inkscape="http://www.inkscape.org/namespaces/inkscape"
   version="1.1"
   x="0px"
   y="0px"
   width="580px"
   height="580px"
   viewBox="0 0 580 580"
   enable-background="new 0 0 580 580"
   xml:space="preserve"
   id="svg863"
   sodipodi:docname="financial_institute.svg"
   inkscape:version="0.92.3 (2405546, 2018-03-11)"><metadata
   id="metadata869"><rdf:RDF><cc:Work
       rdf:about=""><dc:format>image/svg+xml</dc:format><dc:type
         rdf:resource="http://purl.org/dc/dcmitype/StillImage" /><dc:title></dc:title></cc:Work></rdf:RDF></metadata><defs
   id="defs867">
	
	
	
</defs><sodipodi:namedview
   pagecolor="#ffffff"
   bordercolor="#666666"
   borderopacity="1"
   objecttolerance="10"
   gridtolerance="10"
   guidetolerance="10"
   inkscape:pageopacity="0"
   inkscape:pageshadow="2"
   inkscape:window-width="1614"
   inkscape:window-height="925"
   id="namedview865"
   showgrid="false"
   inkscape:zoom="1.2258621"
   inkscape:cx="290"
   inkscape:cy="350.61174"
   inkscape:window-x="0"
   inkscape:window-y="0"
   inkscape:window-maximized="1"
   inkscape:current-layer="svg863" />
<g
   id="Layer_2">
	<g
   id="g1327">
		<path
   id="path1329"
   fill="#111111"
   stroke="#EEEEEE"
   stroke-width="3.408"
   d="M66.275,1.768    c-41.335,0-64.571,21.371-64.571,65.036v450.123c0,40.844,20.894,62.229,62.192,62.229H515.92    c41.307,0,62.229-20.316,62.229-62.229V66.804c0-42.601-20.923-65.036-63.522-65.036C514.624,1.768,66.133,1.625,66.275,1.768z" />
	</g>
</g>
<g
   id="g850">
		<path
   style="fill:#ffffff"
   inkscape:connector-curvature="0"
   id="path846"
   d="m 309.094,427.584 h -66.456 c 1.362,-3.477 2.116,-7.256 2.116,-11.215 v -32.546 l -2.429,-29.659 c -4.677,-11.028 -15.604,-18.766 -28.338,-18.766 h -64.775 c -12.734,0 -23.661,7.737 -28.338,18.767 l -2.429,29.657 v 32.547 c 0,3.959 0.754,7.738 2.116,11.215 H 54.106 v 22.498 9 77.996 h 10.5 v -77.996 h 233.988 v 77.996 h 10.498 v -77.996 h 0.002 z m -88.63,-50.891 v 50.891 h -7.287 v -50.891 z m -77.729,0 h 7.288 v 50.891 h -7.288 z" />
		<circle
   style="fill:#ffffff"
   id="circle848"
   r="37.650002"
   cy="284.664"
   cx="181.60001" />
	</g>
<path
   inkscape:connector-curvature="0"
   id="path898"
   style="font-style:normal;font-variant:normal;font-weight:bold;font-stretch:normal;font-size:261.33334351px;line-height:125%;font-family:Helsinki;-inkscape-font-specification:'Helsinki Bold';letter-spacing:0px;word-spacing:0px;fill:#ffffff;fill-opacity:1;stroke:none;stroke-width:1px;stroke-linecap:butt;stroke-linejoin:miter;stroke-opacity:1"
   d="m 431.67934,102.94588 q -7.27344,1.91406 -11.48438,8.03906 -4.21093,5.99739 -4.21093,14.54687 0,8.42188 3.70052,13.78125 3.70052,5.23178 11.99479,8.67709 z m 20.92708,140.23698 q 8.03907,-1.27604 13.65365,-8.16667 5.74219,-6.89062 5.74219,-15.82291 0,-8.9323 -4.21094,-14.03646 -4.08333,-5.23177 -15.1849,-9.82552 z m -20.92708,50.91406 v -22.96875 q -26.54167,-4.08333 -39.30209,-19.26823 -12.76041,-15.18489 -13.65364,-44.02344 h 34.96354 q 0,15.56771 3.95573,23.22396 3.95573,7.65625 14.03646,11.35677 V 186.1438 l -16.71615,-7.27344 q -17.35417,-7.65625 -25.64844,-20.67188 -8.29427,-13.01562 -8.29427,-32.66667 0,-19.65104 14.54688,-34.325518 14.54687,-14.80208 36.11198,-17.22656 V 52.54223 h 20.92708 v 21.437502 q 49.12761,8.16667 49.12761,57.039058 h -34.96354 q 0,-12.12239 -3.19011,-18.63021 -3.1901,-6.63541 -10.97396,-9.95312 v 54.74219 l 20.92709,9.1875 q 16.33333,7.27344 24.88281,20.54427 8.54948,13.14323 8.54948,31.13542 0,20.67187 -15.95052,36.11198 -15.95052,15.4401 -38.40886,16.97135 v 22.96875 z" /></svg>