<?xml version="1.0" encoding="utf-8"?>
<!-- Generator: Adobe Illustrator 15.0.0, SVG Export Plug-In . SVG Version: 6.00 Build 0)  -->
<!DOCTYPE svg PUBLIC "-//W3C//DTD SVG 1.1//EN" "http://www.w3.org/Graphics/SVG/1.1/DTD/svg11.dtd">
<svg version="1.1" xmlns="http://www.w3.org/2000/svg" xmlns:xlink="http://www.w3.org/1999/xlink" x="0px" y="0px" width="580px"
	 height="580px" viewBox="0 0 580 580" enable-background="new 0 0 580 580" xml:space="preserve">
<g id="Layer_2">
	<g id="g1327">
		<path id="path1329" fill="#111111" stroke="#EEEEEE" stroke-width="3.408" d="M66.275,1.768
			c-41.335,0-64.571,21.371-64.571,65.036v450.123c0,40.844,20.894,62.229,62.192,62.229H515.92
			c41.307,0,62.229-20.316,62.229-62.229V66.804c0-42.601-20.923-65.036-63.522-65.036C514.624,1.768,66.133,1.625,66.275,1.768z"/>
	</g>
</g>
<g id="svg2" inkscape:version="0.46" sodipodi:docname="waste_bin.svg" sodipodi:version="0.32" inkscape:output_extension="org.inkscape.output.svg.inkscape" xmlns:sodipodi="http://sodipodi.sourceforge.net/DTD/sodipodi-0.dtd" xmlns:inkscape="http://www.inkscape.org/namespaces/inkscape" xmlns:cc="http://creativecommons.org/ns#" xmlns:rdf="http://www.w3.org/1999/02/22-rdf-syntax-ns#" xmlns:svg="http://www.w3.org/2000/svg" xmlns:dc="http://purl.org/dc/elements/1.1/">
	<g>
		<path fill="#FFFFFF" d="M309.094,427.584h-66.456c1.362-3.477,2.116-7.256,2.116-11.215v-32.546l-2.429-29.659
			c-4.677-11.028-15.604-18.766-28.338-18.766h-64.775c-12.734,0-23.661,7.737-28.338,18.767l-2.429,29.657v32.547
			c0,3.959,0.754,7.738,2.116,11.215H54.106v22.498v9v77.996h10.5v-77.996h233.988v77.996h10.498v-77.996h0.002V427.584z
			 M220.464,376.693v50.891h-7.287v-50.891H220.464z M142.735,376.693h7.288v50.891h-7.288V376.693z"/>
		<circle fill="#FFFFFF" cx="181.6" cy="284.664" r="37.65"/>
	</g>
	<path fill="#FFFFFF" d="M355.762,183.115v-13.861c-6.931-0.875-12.565-2.426-16.903-4.659c-4.338-2.234-8.086-5.84-11.243-10.82
		c-3.158-4.979-4.994-11.063-5.507-18.252l13.938-2.618c1.079,7.444,2.978,12.913,5.7,16.403c3.901,4.928,8.573,7.676,14.015,8.24
		V113.42c-5.698-1.078-11.526-3.286-17.48-6.623c-4.417-2.464-7.818-5.879-10.205-10.242c-2.387-4.364-3.581-9.318-3.581-14.863
		c0-9.858,3.492-17.84,10.475-23.951c4.67-4.106,11.602-6.623,20.792-7.547v-6.623h8.163v6.623
		c8.061,0.77,14.452,3.131,19.177,7.084c6.058,5.032,9.703,11.937,10.936,20.716l-14.324,2.156
		c-0.822-5.442-2.53-9.613-5.122-12.514c-2.593-2.9-6.147-4.814-10.666-5.738v39.969c6.982,1.746,11.604,3.107,13.863,4.082
		c4.312,1.9,7.828,4.21,10.551,6.931c2.719,2.722,4.813,5.957,6.275,9.703c1.464,3.749,2.194,7.805,2.194,12.168
		c0,9.601-3.055,17.61-9.164,24.027c-6.109,6.418-14.015,9.858-23.72,10.319v14.016H355.762z M355.762,61.746
		c-5.391,0.822-9.64,2.979-12.745,6.469c-3.107,3.492-4.658,7.624-4.658,12.398c0,4.725,1.32,8.678,3.966,11.86
		c2.644,3.185,7.124,5.726,13.438,7.624V61.746z M363.925,157.547c5.391-0.667,9.845-3.003,13.362-7.008
		c3.515-4.004,5.274-8.958,5.274-14.862c0-5.032-1.245-9.075-3.735-12.129s-7.458-5.788-14.901-8.202V157.547z"/>
	<path fill="#FFFFFF" d="M508.861,64.827c-8.626,0-15.865,2.079-21.718,6.237c-3.492,2.464-6.649,5.957-9.472,10.473
		c-2.877,4.673-4.571,9.114-5.083,13.323h52.521l-2.079,10.32h-51.673c-0.053,1.078-0.079,2.105-0.079,3.08
		c0,3.955,0.026,6.315,0.079,7.085h49.594l-2.156,10.319h-45.822c2.158,11.757,7.343,20.099,15.558,25.029
		c5.903,3.542,12.295,5.313,19.176,5.313c9.6,0,17.096-2.515,22.486-7.547v15.864c-6.417,2.977-13.502,4.467-21.254,4.467
		c-23.208,0-38.891-9.651-47.055-28.956c-1.645-3.901-3.056-8.625-4.235-14.17h-11.782l2.156-10.319h8.085
		c-0.153-2.157-0.23-4.492-0.23-7.009c0-1.026,0.026-2.079,0.077-3.157h-10.088l2.156-10.32h8.934
		c3.183-16.736,11.475-28.75,24.874-36.041c8.266-4.518,17.377-6.777,27.339-6.777c9.55,0,17.584,2.079,24.104,6.238l-3.081,14.324
		C523.93,67.419,516.817,64.827,508.861,64.827z"/>
	<path fill="#FFFFFF" d="M480.443,265.018h24.258v11.397h-21.869c0.974,2.261,1.462,4.519,1.462,6.777
		c0,4.467-1.065,9.192-3.195,14.17c-2.131,4.98-5.636,10.063-10.513,15.248c4.056-1.129,7.752-1.695,11.09-1.695
		c4.262,0,9.062,0.643,14.401,1.926c8.829,2.105,14.811,3.158,17.942,3.158c3.8,0,8.728-1.438,14.786-4.313l4.468,12.707
		c-4.725,2.002-8.383,3.311-10.974,3.928c-2.594,0.615-5.175,0.924-7.739,0.924c-2.156,0-4.341-0.205-6.547-0.617
		c-1.387-0.256-4.711-1.193-9.973-2.811c-5.264-1.617-8.664-2.58-10.205-2.889c-2.413-0.41-4.826-0.615-7.239-0.615
		c-3.696,0-7.636,0.643-11.82,1.926s-7.996,3.029-11.436,5.236l-5.314-13.322c4.93-2.721,9.112-6.609,12.554-11.668
		c3.439-5.057,5.16-11.23,5.16-18.521c0-3.131-0.438-6.314-1.31-9.55h-15.095v-11.397h11.859c-1.694-5.749-2.771-9.946-3.235-12.591
		c-0.461-2.644-0.692-5.224-0.692-7.74c0-10.678,3.954-19.021,11.859-25.028c6.366-4.774,14.067-7.162,23.104-7.162
		c9.292,0,16.954,2.555,22.987,7.663c6.032,5.109,9.741,12.283,11.128,21.524l-13.784,2.079c-0.771-6.16-3.069-11.012-6.894-14.555
		c-3.825-3.543-8.407-5.313-13.745-5.313c-5.699,0-10.436,1.836-14.209,5.506c-3.774,3.671-5.661,8.1-5.661,13.284
		C476.054,248.384,477.518,255.829,480.443,265.018z"/>
	<path fill="#FFFFFF" d="M353.222,329.477v-25.027h-31.96v-10.705h31.96v-11.012h-31.96v-11.397h26.261l-31.267-54.756h15.401
		l22.334,39.738c2.514,4.518,4.468,8.472,5.853,11.859c1.18-2.721,3.285-6.904,6.315-12.553l21.101-39.045h16.48l-31.189,54.756
		h26.261v11.397h-31.729v11.012h31.729v10.705h-31.729v25.027H353.222z"/>
</g>
</svg>
