<?xml version="1.0" encoding="utf-8"?>
<!-- Generator: Adobe Illustrator 15.0.0, SVG Export Plug-In . SVG Version: 6.00 Build 0)  -->
<!DOCTYPE svg PUBLIC "-//W3C//DTD SVG 1.1//EN" "http://www.w3.org/Graphics/SVG/1.1/DTD/svg11.dtd">
<svg version="1.1" xmlns="http://www.w3.org/2000/svg" xmlns:xlink="http://www.w3.org/1999/xlink" x="0px" y="0px" width="580px"
	 height="580px" viewBox="0 0 580 580" enable-background="new 0 0 580 580" xml:space="preserve">
<g id="Layer_2">
	<g id="g1327">
		<path id="path1329" fill="#111111" stroke="#EEEEEE" stroke-width="3.408" d="M66.275,1.768
			c-41.335,0-64.571,21.371-64.571,65.036v450.123c0,40.844,20.894,62.229,62.192,62.229H515.92
			c41.307,0,62.229-20.316,62.229-62.229V66.804c0-42.601-20.923-65.036-63.522-65.036C514.624,1.768,66.133,1.625,66.275,1.768z"/>
	</g>
</g>
<g id="svg2" inkscape:output_extension="org.inkscape.output.svg.inkscape" xmlns:cc="http://creativecommons.org/ns#" xmlns:svg="http://www.w3.org/2000/svg" xmlns:sodipodi="http://sodipodi.sourceforge.net/DTD/sodipodi-0.dtd" xmlns:rdf="http://www.w3.org/1999/02/22-rdf-syntax-ns#" xmlns:dc="http://purl.org/dc/elements/1.1/" xmlns:inkscape="http://www.inkscape.org/namespaces/inkscape" sodipodi:docname="waste_bin.svg" inkscape:version="0.46" sodipodi:version="0.32">
	<g>
		<g>
			<path fill="#FFFFFF" d="M309.094,427.584h-66.456c1.362-3.477,2.116-7.256,2.116-11.215v-32.546l-2.429-29.659
				c-4.677-11.028-15.604-18.766-28.338-18.766h-64.775c-12.734,0-23.661,7.737-28.338,18.767l-2.429,29.657v32.547
				c0,3.959,0.754,7.738,2.116,11.215H54.106v22.498v9v77.996h10.5v-77.996h233.988v77.996h10.498v-77.996h0.002V427.584z
				 M220.464,376.693v50.891h-7.287v-50.891H220.464z M142.735,376.693h7.288v50.891h-7.288V376.693z"/>
		</g>
		<g>
			<circle fill="#FFFFFF" cx="181.6" cy="284.664" r="37.65"/>
		</g>
	</g>
	<path fill="#FFFFFF" d="M475.782,232.04l-87.089,40.128c0,0-10.245,5.977-27.322,0l-140.876-56.35c0,0-20.208-12.713,5.407-24.667
		l103.026,21.25l45.251-11.1l-68.305-4.269c0,0-22.199-16.223-0.854-31.59h71.721c0,0,31.591-17.93,77.696-9.392l111.849-5.977
		v96.479L475.782,232.04z"/>
	<g>
		<path fill="#FFFFFF" d="M313.322,34.67v4.85c-10.058,1.222-17.78,4.398-22.968,9.472c-5.78,5.653-8.711,12.517-8.711,20.402
			c0,7.946,2.969,14.539,8.823,19.595c5.223,4.512,12.908,7.891,22.856,10.075v40.397c-4.313-0.943-7.901-2.905-10.695-5.862
			c-3.543-3.751-5.932-9.191-7.103-16.172c-0.053-0.315-0.35-0.529-0.666-0.483l-15.361,2.313c-0.305,0.046-0.523,0.321-0.498,0.629
			c0.806,9.607,4.407,17.193,10.702,22.548c5.64,4.798,13.58,7.919,23.621,9.309v6.782c0,4.357,3.534,7.89,7.892,7.89
			s7.891-3.532,7.891-7.89v-6.963c10.109-1.256,18.661-4.736,23.941-9.839c6.518-6.301,9.822-13.859,9.822-22.463
			c0-8.425-3.024-15.333-8.991-20.533c-4.893-4.263-13.61-7.762-24.772-9.985V52.571c3.214,0.97,6.307,2.351,8.101,4.124
			c2.802,2.768,4.669,6.59,5.553,11.361c0.057,0.305,0.342,0.512,0.648,0.475l15.959-1.951c0.16-0.021,0.306-0.104,0.401-0.234
			c0.096-0.131,0.134-0.294,0.105-0.453c-1.442-8.01-5.046-14.33-10.712-18.786c-4.384-3.446-11.528-6.029-20.056-7.319V34.67
			c0-4.357-3.533-7.89-7.891-7.89S313.322,30.313,313.322,34.67z M313.322,85.1c-4.188-1.413-7.619-3.23-10.232-5.424
			c-3.26-2.737-4.911-6.536-4.911-11.294c0-4.154,1.607-7.868,4.778-11.04c2.535-2.536,6.015-4.363,10.365-5.455V85.1z
			 M329.104,102.996c6.526,2.003,10.663,3.937,12.576,5.872c2.804,2.834,4.226,6.647,4.226,11.331c0,5.346-1.891,9.834-5.619,13.34
			c-2.73,2.568-7.015,4.342-11.183,5.422V102.996z"/>
	</g>
</g>
</svg>
