<?xml version="1.0" encoding="utf-8"?>
<!-- Generator: Adobe Illustrator 15.0.0, SVG Export Plug-In . SVG Version: 6.00 Build 0)  -->
<!DOCTYPE svg PUBLIC "-//W3C//DTD SVG 1.1//EN" "http://www.w3.org/Graphics/SVG/1.1/DTD/svg11.dtd">
<svg version="1.1" xmlns="http://www.w3.org/2000/svg" xmlns:xlink="http://www.w3.org/1999/xlink" x="0px" y="0px" width="580px"
	 height="580px" viewBox="0 0 580 580" enable-background="new 0 0 580 580" xml:space="preserve">
<g id="Layer_2">
	<g id="g1327">
		<path id="path1329" fill="#111111" stroke="#EEEEEE" stroke-width="3.408" d="M66.275,1.768
			c-41.335,0-64.571,21.371-64.571,65.036v450.123c0,40.844,20.894,62.229,62.192,62.229H515.92
			c41.307,0,62.229-20.316,62.229-62.229V66.804c0-42.601-20.923-65.036-63.522-65.036C514.624,1.768,66.133,1.625,66.275,1.768z"/>
	</g>
</g>
<g id="svg2" inkscape:version="0.46" sodipodi:docname="waste_bin.svg" sodipodi:version="0.32" xmlns:inkscape="http://www.inkscape.org/namespaces/inkscape" xmlns:rdf="http://www.w3.org/1999/02/22-rdf-syntax-ns#" xmlns:dc="http://purl.org/dc/elements/1.1/" xmlns:cc="http://creativecommons.org/ns#" xmlns:svg="http://www.w3.org/2000/svg" xmlns:sodipodi="http://sodipodi.sourceforge.net/DTD/sodipodi-0.dtd" inkscape:output_extension="org.inkscape.output.svg.inkscape">
	<g>
		<path fill="#FFFFFF" d="M309.094,427.584h-66.456c1.362-3.477,2.116-7.256,2.116-11.215v-32.546l-2.429-29.659
			c-4.677-11.028-15.604-18.766-28.338-18.766h-64.775c-12.734,0-23.661,7.737-28.338,18.767l-2.429,29.657v32.547
			c0,3.959,0.754,7.738,2.116,11.215H54.106v22.498v9v77.996h10.5v-77.996h233.988v77.996h10.498v-77.996h0.002V427.584z
			 M220.464,376.693v50.891h-7.287v-50.891H220.464z M142.735,376.693h7.288v50.891h-7.288V376.693z"/>
		<circle fill="#FFFFFF" cx="181.6" cy="284.664" r="37.65"/>
	</g>
	<path fill="#FFFFFF" d="M531.286,45.282c-1.121-0.692-2.663-0.761-3.833-0.178c-0.245,0.12-24.65,11.95-44.207,11.95
		c-9.507,0-19.583-3.635-29.93-7.684l-2.063-0.81c-9.683-3.808-18.828-7.406-28.106-7.406c-9.332,0-20.324,3.609-31.962,7.431
		l-2.187,0.716c-12.481,4.085-24.398,7.752-33.016,7.752c-9.849,0-22.192-4.84-28.674-7.725c-5.736-2.554-10.487-5.12-12.977-6.521
		c-0.383-1.786-2.041-3.183-3.865-3.184h-9.463c-2.102,0.001-3.946,1.846-3.948,3.948v299.175c0.002,2.102,1.847,3.947,3.949,3.947
		h9.462c0,0,0.001,0,0.002,0c2.101,0,3.946-1.846,3.947-3.947v-127.3c3.131,2.55,7.165,5.033,12.014,7.392
		c10.646,5.182,21.693,8.275,29.553,8.275c10.575,0,22.978-4.061,34.971-7.986l0.494-0.162c11.103-3.633,23.686-7.751,31.699-7.751
		c7.647,0,17.02,3.667,26.943,7.551l0.338,0.133c9.354,3.66,20.994,8.215,32.817,8.215c22.383,0,47.484-12.66,47.731-12.785
		c1.303-0.652,2.181-2.07,2.183-3.53V48.635C533.157,47.3,532.422,45.984,531.286,45.282z"/>
</g>
</svg>
