<?xml version="1.0" encoding="UTF-8" standalone="no"?>
<!-- Generator: Adobe Illustrator 15.0.0, SVG Export Plug-In . SVG Version: 6.00 Build 0)  -->

<svg
   xmlns:dc="http://purl.org/dc/elements/1.1/"
   xmlns:cc="http://creativecommons.org/ns#"
   xmlns:rdf="http://www.w3.org/1999/02/22-rdf-syntax-ns#"
   xmlns:svg="http://www.w3.org/2000/svg"
   xmlns="http://www.w3.org/2000/svg"
   xmlns:sodipodi="http://sodipodi.sourceforge.net/DTD/sodipodi-0.dtd"
   xmlns:inkscape="http://www.inkscape.org/namespaces/inkscape"
   version="1.1"
   x="0px"
   y="0px"
   width="580px"
   height="580px"
   viewBox="0 0 580 580"
   enable-background="new 0 0 580 580"
   xml:space="preserve"
   id="svg859"
   sodipodi:docname="graphic_design.svg"
   inkscape:version="0.92.3 (2405546, 2018-03-11)"><metadata
   id="metadata865"><rdf:RDF><cc:Work
       rdf:about=""><dc:format>image/svg+xml</dc:format><dc:type
         rdf:resource="http://purl.org/dc/dcmitype/StillImage" /><dc:title></dc:title></cc:Work></rdf:RDF></metadata><defs
   id="defs863">
	
	
	
</defs><sodipodi:namedview
   pagecolor="#ffffff"
   bordercolor="#666666"
   borderopacity="1"
   objecttolerance="10"
   gridtolerance="10"
   guidetolerance="10"
   inkscape:pageopacity="0"
   inkscape:pageshadow="2"
   inkscape:window-width="1508"
   inkscape:window-height="797"
   id="namedview861"
   showgrid="false"
   inkscape:zoom="1.04"
   inkscape:cx="290"
   inkscape:cy="349.70259"
   inkscape:window-x="234"
   inkscape:window-y="234"
   inkscape:window-maximized="0"
   inkscape:current-layer="svg859" />
<g
   id="Layer_2">
	<g
   id="g1327">
		<path
   id="path1329"
   fill="#111111"
   stroke="#EEEEEE"
   stroke-width="3.408"
   d="M66.275,1.768    c-41.335,0-64.571,21.371-64.571,65.036v450.123c0,40.844,20.894,62.229,62.192,62.229H515.92    c41.307,0,62.229-20.316,62.229-62.229V66.804c0-42.601-20.923-65.036-63.522-65.036C514.624,1.768,66.133,1.625,66.275,1.768z" />
	</g>
</g>
<g
   id="g848">
		<path
   style="fill:#ffffff"
   inkscape:connector-curvature="0"
   id="path844"
   d="m 309.094,427.584 h -66.456 c 1.362,-3.477 2.116,-7.256 2.116,-11.215 v -32.546 l -2.429,-29.659 c -4.677,-11.028 -15.604,-18.766 -28.338,-18.766 h -64.775 c -12.734,0 -23.661,7.737 -28.338,18.767 l -2.429,29.657 v 32.547 c 0,3.959 0.754,7.738 2.116,11.215 H 54.106 v 22.498 9 77.996 h 10.5 v -77.996 h 233.988 v 77.996 h 10.498 v -77.996 h 0.002 z m -88.63,-50.891 v 50.891 h -7.287 v -50.891 z m -77.729,0 h 7.288 v 50.891 h -7.288 z" />
		<circle
   style="fill:#ffffff"
   id="circle846"
   r="37.650002"
   cy="284.664"
   cx="181.60001" />
	</g>
<g
   transform="matrix(0.59461814,0,0,0.59461814,212.21138,9.0033431)"
   id="Layer_4"><g
     id="g1527"><path
       style="fill:#808080"
       inkscape:connector-curvature="0"
       d="m 215.318,240.369 c 10.324,-5.972 21.438,-10.726 33.133,-14.106 -0.556,-5.229 -0.862,-10.531 -0.862,-15.907 0,-40.543 16.181,-77.295 42.419,-104.191 -27.105,-27.792 -64.955,-45.056 -106.843,-45.056 -27.186,0 -52.671,7.272 -74.624,19.972 -44.609,25.806 -74.624,74.034 -74.624,129.275 0,6.131 0.378,12.173 1.097,18.11 5.753,47.559 33.869,88.224 73.527,111.165 10.286,5.951 21.355,10.691 33.004,14.068 5.151,-48.486 33.515,-90.041 73.773,-113.33 z"
       id="path1521" /><path
       style="fill:#b2b2b2"
       inkscape:connector-curvature="0"
       d="m 438.345,353.74 c -13.178,3.811 -27.102,5.862 -41.508,5.862 -27.186,0 -52.672,-7.271 -74.625,-19.972 -11.868,-6.865 -22.692,-15.329 -32.203,-25.079 -22.27,-22.829 -37.292,-52.76 -41.323,-86.086 -0.089,-0.731 -0.156,-1.469 -0.234,-2.203 -11.695,3.38 -22.809,8.134 -33.133,14.106 -40.259,23.289 -68.622,64.844 -73.773,113.331 -0.556,5.239 -0.851,10.558 -0.851,15.944 0,6.131 0.378,12.174 1.097,18.111 5.754,47.559 33.869,88.223 73.527,111.164 21.953,12.701 47.438,19.973 74.624,19.973 26.043,0 50.523,-6.678 71.834,-18.402 46.141,-25.387 77.412,-74.461 77.412,-130.846 -0.001,-5.372 -0.292,-10.676 -0.844,-15.903 z"
       id="path1523" /><path
       style="fill:#ffffff"
       inkscape:connector-curvature="0"
       d="m 396.837,61.108 c -27.186,0 -52.672,7.272 -74.625,19.972 -11.869,6.866 -22.691,15.333 -32.204,25.084 -26.238,26.896 -42.419,63.648 -42.419,104.191 0,5.376 0.307,10.679 0.862,15.907 0.078,0.734 0.146,1.472 0.234,2.203 4.031,33.326 19.054,63.257 41.323,86.086 9.511,9.75 20.335,18.214 32.203,25.079 21.953,12.7 47.439,19.972 74.625,19.972 14.406,0 28.33,-2.052 41.508,-5.862 10.645,-3.078 20.804,-7.301 30.326,-12.54 46.141,-25.386 77.412,-74.461 77.412,-130.845 C 546.083,127.929 479.263,61.108 396.837,61.108 Z"
       id="path1525" /></g></g></svg>