<?xml version="1.0" encoding="utf-8"?>
<!-- Generator: Adobe Illustrator 15.0.0, SVG Export Plug-In . SVG Version: 6.00 Build 0)  -->
<!DOCTYPE svg PUBLIC "-//W3C//DTD SVG 1.1//EN" "http://www.w3.org/Graphics/SVG/1.1/DTD/svg11.dtd">
<svg version="1.1" xmlns="http://www.w3.org/2000/svg" xmlns:xlink="http://www.w3.org/1999/xlink" x="0px" y="0px" width="580px"
	 height="580px" viewBox="0 0 580 580" enable-background="new 0 0 580 580" xml:space="preserve">
<g id="Layer_2">
	<g id="g1327">
		<path id="path1329" fill="#111111" stroke="#EEEEEE" stroke-width="3.408" d="M66.275,1.768
			c-41.335,0-64.571,21.371-64.571,65.036v450.123c0,40.844,20.894,62.229,62.192,62.229H515.92
			c41.307,0,62.229-20.316,62.229-62.229V66.804c0-42.601-20.923-65.036-63.522-65.036C514.624,1.768,66.133,1.625,66.275,1.768z"/>
	</g>
</g>
<g id="svg2" xmlns:inkscape="http://www.inkscape.org/namespaces/inkscape" xmlns:cc="http://creativecommons.org/ns#" xmlns:svg="http://www.w3.org/2000/svg" xmlns:dc="http://purl.org/dc/elements/1.1/" xmlns:rdf="http://www.w3.org/1999/02/22-rdf-syntax-ns#" xmlns:sodipodi="http://sodipodi.sourceforge.net/DTD/sodipodi-0.dtd" inkscape:output_extension="org.inkscape.output.svg.inkscape" sodipodi:docname="waste_bin.svg" sodipodi:version="0.32" inkscape:version="0.46">
	<g>
		<path fill="#FFFFFF" d="M309.094,427.584h-66.456c1.362-3.477,2.116-7.256,2.116-11.215v-32.546l-2.429-29.659
			c-4.677-11.028-15.604-18.766-28.338-18.766h-64.775c-12.734,0-23.661,7.737-28.338,18.767l-2.429,29.657v32.547
			c0,3.959,0.754,7.738,2.116,11.215H54.106v22.498v9v77.996h10.5v-77.996h233.988v77.996h10.498v-77.996h0.002V427.584z
			 M220.464,376.693v50.891h-7.287v-50.891H220.464z M142.735,376.693h7.288v50.891h-7.288V376.693z"/>
		<circle fill="#FFFFFF" cx="181.6" cy="284.664" r="37.65"/>
	</g>
	<g>
		<path fill="#FFFFFF" d="M360.543,82.082c0,3.956,1.373,7.115,4.083,9.391c2.173,1.824,5.026,3.334,8.509,4.509V68.368
			c-3.618,0.908-6.511,2.427-8.619,4.536C361.879,75.54,360.543,78.628,360.543,82.082z"/>
		<path fill="#FFFFFF" d="M386.256,110.861v29.903c3.465-0.898,7.027-2.375,9.298-4.509c3.1-2.914,4.672-6.646,4.672-11.091
			c0-3.894-1.183-7.063-3.514-9.42C395.121,114.134,391.682,112.526,386.256,110.861z"/>
		<path fill="#FFFFFF" d="M383.484,40.853V25.819c0-2.222-1.802-4.023-4.023-4.023s-4.023,1.801-4.023,4.023v15.034
			c-85.869,1.978-155.841,67.099-163.756,149.96h0.292c2.879-10.431,26.686-18.568,55.634-18.568s52.755,8.137,55.635,18.568h0.585
			c2.744-9.943,24.508-17.795,51.61-18.51V348.55c0,11.938-9.712,21.649-21.65,21.649c-11.938,0-21.649-9.712-21.649-21.649
			c0-6.041,2.427-11.646,6.833-15.786c1.619-1.521,1.698-4.067,0.178-5.687c-1.521-1.62-4.068-1.7-5.688-0.178
			c-5.955,5.594-9.369,13.484-9.369,21.65c0,16.374,13.321,29.697,29.695,29.697c16.376,0,29.697-13.323,29.697-29.697V172.304
			c27.104,0.714,48.867,8.567,51.61,18.51h0.586c2.879-10.431,26.686-18.568,55.634-18.568s52.755,8.137,55.634,18.568h0.293
			C539.326,107.952,469.355,42.831,383.484,40.853z M406.161,143.059c-4.389,4.243-11.5,7.136-19.905,8.18v5.789
			c0,3.624-2.938,6.561-6.561,6.561s-6.561-2.937-6.561-6.561v-5.638c-8.35-1.155-14.951-3.75-19.641-7.74
			c-5.233-4.452-8.227-10.759-8.897-18.747c-0.021-0.256,0.16-0.485,0.414-0.523l12.772-1.922c0.263-0.039,0.51,0.139,0.553,0.401
			c0.974,5.804,2.96,10.327,5.905,13.445c2.323,2.459,5.307,4.09,8.894,4.875v-33.587c-8.272-1.815-14.661-4.625-19.004-8.376
			c-4.868-4.204-7.336-9.685-7.336-16.292c0-6.555,2.437-12.262,7.242-16.962c4.313-4.219,10.734-6.86,19.098-7.876v-4.032
			c0-3.623,2.938-6.561,6.561-6.561s6.561,2.938,6.561,6.561v4.254c7.09,1.072,13.03,3.22,16.675,6.086
			c4.711,3.704,7.707,8.959,8.906,15.619c0.024,0.132-0.008,0.268-0.088,0.376c-0.079,0.108-0.2,0.178-0.333,0.194l-13.27,1.622
			c-0.255,0.03-0.492-0.142-0.538-0.395c-0.735-3.967-2.288-7.145-4.617-9.446c-1.492-1.474-4.063-2.622-6.735-3.429v30.072
			c9.281,1.848,16.528,4.757,20.597,8.302c4.96,4.323,7.476,10.067,7.476,17.071C414.328,131.537,411.58,137.82,406.161,143.059z"/>
	</g>
</g>
</svg>
