<?xml version="1.0" encoding="utf-8"?>
<!-- Generator: Adobe Illustrator 15.0.0, SVG Export Plug-In . SVG Version: 6.00 Build 0)  -->
<!DOCTYPE svg PUBLIC "-//W3C//DTD SVG 1.1//EN" "http://www.w3.org/Graphics/SVG/1.1/DTD/svg11.dtd">
<svg version="1.1" xmlns="http://www.w3.org/2000/svg" xmlns:xlink="http://www.w3.org/1999/xlink" x="0px" y="0px" width="580px"
	 height="580px" viewBox="0 0 580 580" enable-background="new 0 0 580 580" xml:space="preserve">
<g id="Layer_2">
	<g id="g1327">
		<path id="path1329" fill="#111111" stroke="#EEEEEE" stroke-width="3.408" d="M66.275,1.768
			c-41.335,0-64.571,21.371-64.571,65.036v450.123c0,40.844,20.894,62.229,62.192,62.229H515.92
			c41.307,0,62.229-20.316,62.229-62.229V66.804c0-42.601-20.923-65.036-63.522-65.036C514.624,1.768,66.133,1.625,66.275,1.768z"/>
	</g>
</g>
<g id="svg2" inkscape:version="0.46" sodipodi:docname="waste_bin.svg" sodipodi:version="0.32" xmlns:inkscape="http://www.inkscape.org/namespaces/inkscape" xmlns:rdf="http://www.w3.org/1999/02/22-rdf-syntax-ns#" xmlns:dc="http://purl.org/dc/elements/1.1/" xmlns:cc="http://creativecommons.org/ns#" xmlns:svg="http://www.w3.org/2000/svg" xmlns:sodipodi="http://sodipodi.sourceforge.net/DTD/sodipodi-0.dtd" inkscape:output_extension="org.inkscape.output.svg.inkscape">
	<g>
		<path fill="#FFFFFF" d="M309.094,427.584h-66.456c1.362-3.477,2.116-7.256,2.116-11.215v-32.546l-2.429-29.659
			c-4.677-11.028-15.604-18.766-28.338-18.766h-64.775c-12.734,0-23.661,7.737-28.338,18.767l-2.429,29.657v32.547
			c0,3.959,0.754,7.738,2.116,11.215H54.106v22.498v9v77.996h10.5v-77.996h233.988v77.996h10.498v-77.996h0.002V427.584z
			 M220.464,376.693v50.891h-7.287v-50.891H220.464z M142.735,376.693h7.288v50.891h-7.288V376.693z"/>
		<circle fill="#FFFFFF" cx="181.6" cy="284.664" r="37.65"/>
	</g>
	<g>
		<path fill="#FFFFFF" d="M324.951,217.855h190.645c10.382,0,18.827-8.446,18.827-18.827V63.317
			c0-10.382-8.445-18.828-18.827-18.828H324.951c-10.381,0-18.827,8.446-18.827,18.828v135.711
			C306.124,209.409,314.57,217.855,324.951,217.855z M325.036,63.401h190.476v135.542H325.035L325.036,63.401z"/>
		<polygon fill="#FFFFFF" points="381.652,71.013 381.652,166.174 408.185,143.213 431.023,182.772 451,171.239 428.318,131.953 
			458.449,121.431 		"/>
		<path fill="#FFFFFF" d="M559.665,285.987l-27.313-54.195c-0.22-0.438-0.436-0.875-0.651-1.31c-2.27-4.599-4.413-8.94-9.691-8.94
			h-203.47c-5.279,0-7.424,4.343-9.693,8.942c-0.214,0.434-0.43,0.872-0.65,1.309l-27.313,54.195
			c-0.852,1.689-0.73,3.511,0.351,5.266c1.815,2.949,6.204,5.257,9.992,5.257h258.098c3.788,0,8.177-2.308,9.992-5.256
			C560.396,289.498,560.517,287.677,559.665,285.987z"/>
	</g>
</g>
</svg>
