<?xml version="1.0" encoding="utf-8"?>
<!-- Generator: Adobe Illustrator 15.0.0, SVG Export Plug-In . SVG Version: 6.00 Build 0)  -->
<!DOCTYPE svg PUBLIC "-//W3C//DTD SVG 1.1//EN" "http://www.w3.org/Graphics/SVG/1.1/DTD/svg11.dtd">
<svg version="1.1" xmlns="http://www.w3.org/2000/svg" xmlns:xlink="http://www.w3.org/1999/xlink" x="0px" y="0px" width="580px"
	 height="580px" viewBox="0 0 580 580" enable-background="new 0 0 580 580" xml:space="preserve">
<g id="Layer_2">
	<g id="g1327">
		<path id="path1329" fill="#111111" stroke="#EEEEEE" stroke-width="3.408" d="M66.275,1.768
			c-41.335,0-64.571,21.371-64.571,65.036v450.123c0,40.844,20.894,62.229,62.192,62.229H515.92
			c41.307,0,62.229-20.316,62.229-62.229V66.804c0-42.601-20.923-65.036-63.522-65.036C514.624,1.768,66.133,1.625,66.275,1.768z"/>
	</g>
</g>
<g id="svg2" inkscape:version="0.46" sodipodi:docname="waste_bin.svg" sodipodi:version="0.32" xmlns:inkscape="http://www.inkscape.org/namespaces/inkscape" xmlns:rdf="http://www.w3.org/1999/02/22-rdf-syntax-ns#" xmlns:dc="http://purl.org/dc/elements/1.1/" xmlns:cc="http://creativecommons.org/ns#" xmlns:svg="http://www.w3.org/2000/svg" xmlns:sodipodi="http://sodipodi.sourceforge.net/DTD/sodipodi-0.dtd" inkscape:output_extension="org.inkscape.output.svg.inkscape">
	<g>
		<path fill="#FFFFFF" d="M309.094,427.584h-66.456c1.362-3.477,2.116-7.256,2.116-11.215v-32.546l-2.429-29.659
			c-4.677-11.028-15.604-18.766-28.338-18.766h-64.775c-12.734,0-23.661,7.737-28.338,18.767l-2.429,29.657v32.547
			c0,3.959,0.754,7.738,2.116,11.215H54.106v22.498v9v77.996h10.5v-77.996h233.988v77.996h10.498v-77.996h0.002V427.584z
			 M220.464,376.693v50.891h-7.287v-50.891H220.464z M142.735,376.693h7.288v50.891h-7.288V376.693z"/>
		<circle fill="#FFFFFF" cx="181.6" cy="284.664" r="37.65"/>
	</g>
	<path fill="#FFFFFF" d="M536.971,215.435l1.793-0.464L501.266,70.098h10.754c4.136,0,7.488-3.353,7.488-7.488
		c0-4.134-3.353-7.487-7.488-7.487H392.221V43.372c0-2.174-1.916-3.936-4.279-3.936s-4.278,1.762-4.278,3.936v11.751h-119.8
		c-4.135,0-7.488,3.353-7.488,7.487c0,4.136,3.353,7.488,7.488,7.488h14.81l-37.498,144.873l1.791,0.464h-5.078
		c0,22.524,19.984,40.782,44.635,40.782c24.651,0,44.635-18.258,44.635-40.782h-5.078l1.794-0.464l-37.5-144.873h97.289v218.849
		c-43.499,0.829-78.084,14.218-78.084,30.613h164.726c0-16.396-34.586-29.785-78.084-30.613V70.098h101.343l-37.498,144.873
		l1.792,0.464h-5.076c0,22.524,19.984,40.782,44.635,40.782s44.635-18.258,44.635-40.782H536.971z M320.169,215.435H244.88
		l37.618-145.337h0.051L320.169,215.435z M459.771,215.435L497.39,70.098h0.05l37.619,145.337H459.771z"/>
</g>
</svg>
