<?xml version="1.0" encoding="utf-8"?>
<!-- Generator: Adobe Illustrator 15.0.0, SVG Export Plug-In . SVG Version: 6.00 Build 0)  -->
<!DOCTYPE svg PUBLIC "-//W3C//DTD SVG 1.1//EN" "http://www.w3.org/Graphics/SVG/1.1/DTD/svg11.dtd">
<svg version="1.1" xmlns="http://www.w3.org/2000/svg" xmlns:xlink="http://www.w3.org/1999/xlink" x="0px" y="0px" width="580px"
	 height="580px" viewBox="0 0 580 580" enable-background="new 0 0 580 580" xml:space="preserve">
<g id="Layer_2">
	<g id="g1327">
		<path id="path1329" fill="#111111" stroke="#EEEEEE" stroke-width="3.408" d="M66.275,1.768
			c-41.335,0-64.571,21.371-64.571,65.036v450.123c0,40.844,20.894,62.229,62.192,62.229H515.92
			c41.307,0,62.229-20.316,62.229-62.229V66.804c0-42.601-20.923-65.036-63.522-65.036C514.624,1.768,66.133,1.625,66.275,1.768z"/>
	</g>
</g>
<g id="svg2" inkscape:version="0.46" sodipodi:docname="waste_bin.svg" sodipodi:version="0.32" inkscape:output_extension="org.inkscape.output.svg.inkscape" xmlns:sodipodi="http://sodipodi.sourceforge.net/DTD/sodipodi-0.dtd" xmlns:inkscape="http://www.inkscape.org/namespaces/inkscape" xmlns:cc="http://creativecommons.org/ns#" xmlns:rdf="http://www.w3.org/1999/02/22-rdf-syntax-ns#" xmlns:svg="http://www.w3.org/2000/svg" xmlns:dc="http://purl.org/dc/elements/1.1/">
	<g>
		<path fill="#FFFFFF" d="M309.094,427.584h-66.456c1.362-3.477,2.116-7.256,2.116-11.215v-32.546l-2.429-29.659
			c-4.677-11.028-15.604-18.766-28.338-18.766h-64.775c-12.734,0-23.661,7.737-28.338,18.767l-2.429,29.657v32.547
			c0,3.959,0.754,7.738,2.116,11.215H54.106v22.498v9v77.996h10.5v-77.996h233.988v77.996h10.498v-77.996h0.002V427.584z
			 M220.464,376.693v50.891h-7.287v-50.891H220.464z M142.735,376.693h7.288v50.891h-7.288V376.693z"/>
		<circle fill="#FFFFFF" cx="181.6" cy="284.664" r="37.65"/>
	</g>
	<g>
		<path fill="#FFFFFF" d="M524.806,66.004H380.43c-4.624,0-8.37,3.748-8.37,8.37v107.411c0,4.624,3.746,8.37,8.37,8.37h144.376
			c4.626,0,8.369-3.746,8.369-8.37V74.374C533.175,69.752,529.432,66.004,524.806,66.004z"/>
		<circle fill="#FFFFFF" cx="334.048" cy="222.587" r="23.365"/>
		<path fill="#FFFFFF" d="M500.683,199.222c-12.903,0-23.366,10.462-23.366,23.366c0,12.903,10.463,23.365,23.366,23.365
			c12.909,0,23.365-10.462,23.365-23.365C524.048,209.684,513.592,199.222,500.683,199.222z"/>
		<polygon fill="#FFFFFF" points="364.854,196.432 374.152,215.032 469.008,215.032 458.778,196.432 		"/>
		<path fill="#FFFFFF" d="M364.854,176.206v-62.076c0-11.857-9.882-10.113-9.882-10.113s-24.063,0-30.6,0
			c-6.532,0-10.553,5.581-10.553,5.581s-19.46,33.723-27.088,46.616c-1.325,2.242-2.901,6.495-2.901,10.143
			c0,9.108,0,28.447,0,42.63c0,19.181,17.785,13.602,17.785,13.602c0-0.807,0-4.058,0-15.345c0-18.832,21.971-17.088,21.971-17.088
			h29.991C366.479,190.155,364.854,176.206,364.854,176.206z"/>
	</g>
	<g>
		<path fill="#FFFFFF" d="M192.252,81.153v87.998l77.256-41.316V53.883L192.252,81.153z"/>
		<path fill="#FFFFFF" d="M226.251,42.963l-20.884-4.261l-79.63,19.985l25.25,7.731L226.251,42.963z"/>
		<path fill="#FFFFFF" d="M241.322,46.036l-75.547,24.91l25.237,7.726l76.634-27.265L241.322,46.036z"/>
		<path fill="#FFFFFF" d="M149.256,69.061l-23.52-7.33v79.739l22.383,9.737L149.256,69.061z"/>
		<path fill="#FFFFFF" d="M160.041,72.836l-2.053,82.667l31.37,13.648V81.563l-28.674-8.936L160.041,72.836z"/>
	</g>
</g>
</svg>
