<?xml version="1.0" encoding="UTF-8" standalone="no"?>
<!-- Generator: Adobe Illustrator 15.0.0, SVG Export Plug-In . SVG Version: 6.00 Build 0)  -->

<svg
   xmlns:dc="http://purl.org/dc/elements/1.1/"
   xmlns:cc="http://creativecommons.org/ns#"
   xmlns:rdf="http://www.w3.org/1999/02/22-rdf-syntax-ns#"
   xmlns:svg="http://www.w3.org/2000/svg"
   xmlns="http://www.w3.org/2000/svg"
   xmlns:sodipodi="http://sodipodi.sourceforge.net/DTD/sodipodi-0.dtd"
   xmlns:inkscape="http://www.inkscape.org/namespaces/inkscape"
   version="1.1"
   x="0px"
   y="0px"
   width="580px"
   height="580px"
   viewBox="0 0 580 580"
   enable-background="new 0 0 580 580"
   xml:space="preserve"
   id="svg2"
   inkscape:version="0.48.4 r9939"
   sodipodi:docname="moving_company.svg"><metadata
   id="metadata43"><rdf:RDF><cc:Work
       rdf:about=""><dc:format>image/svg+xml</dc:format><dc:type
         rdf:resource="http://purl.org/dc/dcmitype/StillImage" /></cc:Work></rdf:RDF></metadata><defs
   id="defs41">
	
	
	
</defs><sodipodi:namedview
   pagecolor="#ffffff"
   bordercolor="#666666"
   borderopacity="1"
   objecttolerance="10"
   gridtolerance="10"
   guidetolerance="10"
   inkscape:pageopacity="0"
   inkscape:pageshadow="2"
   inkscape:window-width="1293"
   inkscape:window-height="738"
   id="namedview39"
   showgrid="false"
   inkscape:zoom="0.81454783"
   inkscape:cx="143.29284"
   inkscape:cy="290"
   inkscape:window-x="421"
   inkscape:window-y="266"
   inkscape:window-maximized="0"
   inkscape:current-layer="svg2" />
<g
   id="Layer_2">
	<g
   id="g1327">
		<path
   id="path1329"
   fill="#111111"
   stroke="#EEEEEE"
   stroke-width="3.408"
   d="M66.275,1.768    c-41.335,0-64.571,21.371-64.571,65.036v450.123c0,40.844,20.894,62.229,62.192,62.229H515.92    c41.307,0,62.229-20.316,62.229-62.229V66.804c0-42.601-20.923-65.036-63.522-65.036C514.624,1.768,66.133,1.625,66.275,1.768z" />
	</g>
</g>
<g
   id="g9">
		<path
   style="fill:#ffffff"
   inkscape:connector-curvature="0"
   id="path11"
   d="m 309.094,427.584 h -66.456 c 1.362,-3.477 2.116,-7.256 2.116,-11.215 v -32.546 l -2.429,-29.659 c -4.677,-11.028 -15.604,-18.766 -28.338,-18.766 h -64.775 c -12.734,0 -23.661,7.737 -28.338,18.767 l -2.429,29.657 v 32.547 c 0,3.959 0.754,7.738 2.116,11.215 H 54.106 v 22.498 9 77.996 h 10.5 v -77.996 h 233.988 v 77.996 h 10.498 v -77.996 h 0.002 v -31.498 z m -88.63,-50.891 v 50.891 h -7.287 v -50.891 h 7.287 z m -77.729,0 h 7.288 v 50.891 h -7.288 v -50.891 z" />
		<circle
   style="fill:#ffffff"
   sodipodi:ry="37.650002"
   sodipodi:rx="37.650002"
   sodipodi:cy="284.664"
   sodipodi:cx="181.60001"
   id="circle13"
   r="37.650002"
   cy="284.664"
   cx="181.60001" />
	</g><g
   id="g15"
   transform="matrix(1.1132428,0,0,1.1132428,283.37077,19.534372)">
		<path
   style="fill:#ffffff"
   inkscape:connector-curvature="0"
   id="path17"
   d="M 524.806,66.004 H 380.43 c -4.624,0 -8.37,3.748 -8.37,8.37 v 107.411 c 0,4.624 3.746,8.37 8.37,8.37 h 144.376 c 4.626,0 8.369,-3.746 8.369,-8.37 V 74.374 c 0,-4.622 -3.743,-8.37 -8.369,-8.37 z" />
		<circle
   style="fill:#ffffff"
   sodipodi:ry="23.365"
   sodipodi:rx="23.365"
   sodipodi:cy="222.58701"
   sodipodi:cx="334.048"
   id="circle19"
   r="23.365"
   cy="222.58701"
   cx="334.048"
   d="m 357.413,222.58701 c 0,12.90413 -10.46086,23.365 -23.365,23.365 -12.90413,0 -23.365,-10.46087 -23.365,-23.365 0,-12.90414 10.46087,-23.365 23.365,-23.365 12.90414,0 23.365,10.46086 23.365,23.365 z" />
		<path
   style="fill:#ffffff"
   inkscape:connector-curvature="0"
   id="path21"
   d="m 500.683,199.222 c -12.903,0 -23.366,10.462 -23.366,23.366 0,12.903 10.463,23.365 23.366,23.365 12.909,0 23.365,-10.462 23.365,-23.365 0,-12.904 -10.456,-23.366 -23.365,-23.366 z" />
		<polygon
   style="fill:#ffffff"
   id="polygon23"
   points="364.854,196.432 374.152,215.032 469.008,215.032 458.778,196.432 " />
		<path
   style="fill:#ffffff"
   inkscape:connector-curvature="0"
   id="path25"
   d="M 364.854,176.206 V 114.13 c 0,-11.857 -9.882,-10.113 -9.882,-10.113 0,0 -24.063,0 -30.6,0 -6.532,0 -10.553,5.581 -10.553,5.581 0,0 -19.46,33.723 -27.088,46.616 -1.325,2.242 -2.901,6.495 -2.901,10.143 0,9.108 0,28.447 0,42.63 0,19.181 17.785,13.602 17.785,13.602 0,-0.807 0,-4.058 0,-15.345 0,-18.832 21.971,-17.088 21.971,-17.088 h 29.991 c 12.902,-0.001 11.277,-13.95 11.277,-13.95 z" />
	</g>
<g
   transform="translate(82.254226,35.602575)"
   id="g3035">
		<path
   d="m 192.252,81.153 v 87.998 l 77.256,-41.316 V 53.883 l -77.256,27.27 z"
   id="path3037"
   inkscape:connector-curvature="0"
   style="fill:#ffffff" />
		<path
   d="m 226.251,42.963 -20.884,-4.261 -79.63,19.985 25.25,7.731 75.264,-23.455 z"
   id="path3039"
   inkscape:connector-curvature="0"
   style="fill:#ffffff" />
		<path
   d="m 241.322,46.036 -75.547,24.91 25.237,7.726 76.634,-27.265 -26.324,-5.371 z"
   id="path3041"
   inkscape:connector-curvature="0"
   style="fill:#ffffff" />
		<path
   d="m 149.256,69.061 -23.52,-7.33 v 79.739 l 22.383,9.737 1.137,-82.146 z"
   id="path3043"
   inkscape:connector-curvature="0"
   style="fill:#ffffff" />
		<path
   d="m 160.041,72.836 -2.053,82.667 31.37,13.648 V 81.563 l -28.674,-8.936 -0.643,0.209 z"
   id="path3045"
   inkscape:connector-curvature="0"
   style="fill:#ffffff" />
	</g><g
   id="g27"
   transform="translate(254.12872,34.374901)">
		<path
   style="fill:#ffffff"
   inkscape:connector-curvature="0"
   id="path29"
   d="m 192.252,81.153 v 87.998 l 77.256,-41.316 V 53.883 l -77.256,27.27 z" />
		<path
   style="fill:#ffffff"
   inkscape:connector-curvature="0"
   id="path31"
   d="m 226.251,42.963 -20.884,-4.261 -79.63,19.985 25.25,7.731 75.264,-23.455 z" />
		<path
   style="fill:#ffffff"
   inkscape:connector-curvature="0"
   id="path33"
   d="m 241.322,46.036 -75.547,24.91 25.237,7.726 76.634,-27.265 -26.324,-5.371 z" />
		<path
   style="fill:#ffffff"
   inkscape:connector-curvature="0"
   id="path35"
   d="m 149.256,69.061 -23.52,-7.33 v 79.739 l 22.383,9.737 1.137,-82.146 z" />
		<path
   style="fill:#ffffff"
   inkscape:connector-curvature="0"
   id="path37"
   d="m 160.041,72.836 -2.053,82.667 31.37,13.648 V 81.563 l -28.674,-8.936 -0.643,0.209 z" />
	</g><g
   id="g3047"
   transform="translate(254.12872,170.64682)">
		<path
   style="fill:#ffffff"
   inkscape:connector-curvature="0"
   id="path3049"
   d="m 192.252,81.153 v 87.998 l 77.256,-41.316 V 53.883 l -77.256,27.27 z" />
		<path
   style="fill:#ffffff"
   inkscape:connector-curvature="0"
   id="path3051"
   d="m 226.251,42.963 -20.884,-4.261 -79.63,19.985 25.25,7.731 75.264,-23.455 z" />
		<path
   style="fill:#ffffff"
   inkscape:connector-curvature="0"
   id="path3053"
   d="m 241.322,46.036 -75.547,24.91 25.237,7.726 76.634,-27.265 -26.324,-5.371 z" />
		<path
   style="fill:#ffffff"
   inkscape:connector-curvature="0"
   id="path3055"
   d="m 149.256,69.061 -23.52,-7.33 v 79.739 l 22.383,9.737 1.137,-82.146 z" />
		<path
   style="fill:#ffffff"
   inkscape:connector-curvature="0"
   id="path3057"
   d="m 160.041,72.836 -2.053,82.667 31.37,13.648 V 81.563 l -28.674,-8.936 -0.643,0.209 z" />
	</g></svg>