<?xml version="1.0" encoding="utf-8"?>
<!-- Generator: Adobe Illustrator 15.0.0, SVG Export Plug-In . SVG Version: 6.00 Build 0)  -->
<!DOCTYPE svg PUBLIC "-//W3C//DTD SVG 1.1//EN" "http://www.w3.org/Graphics/SVG/1.1/DTD/svg11.dtd">
<svg version="1.1" xmlns="http://www.w3.org/2000/svg" xmlns:xlink="http://www.w3.org/1999/xlink" x="0px" y="0px" width="580px"
	 height="580px" viewBox="0 0 580 580" enable-background="new 0 0 580 580" xml:space="preserve">
<g id="Layer_2">
	<g id="g1327">
		<path id="path1329" fill="#111111" stroke="#EEEEEE" stroke-width="3.408" d="M66.275,1.768
			c-41.335,0-64.571,21.371-64.571,65.036v450.123c0,40.844,20.894,62.229,62.192,62.229H515.92
			c41.307,0,62.229-20.316,62.229-62.229V66.804c0-42.601-20.923-65.036-63.522-65.036C514.624,1.768,66.133,1.625,66.275,1.768z"/>
	</g>
</g>
<g id="svg2" inkscape:version="0.46" sodipodi:docname="waste_bin.svg" sodipodi:version="0.32" xmlns:inkscape="http://www.inkscape.org/namespaces/inkscape" xmlns:rdf="http://www.w3.org/1999/02/22-rdf-syntax-ns#" xmlns:dc="http://purl.org/dc/elements/1.1/" xmlns:cc="http://creativecommons.org/ns#" xmlns:svg="http://www.w3.org/2000/svg" xmlns:sodipodi="http://sodipodi.sourceforge.net/DTD/sodipodi-0.dtd" inkscape:output_extension="org.inkscape.output.svg.inkscape">
	<g>
		<path fill="#FFFFFF" d="M309.094,427.584h-66.456c1.362-3.477,2.116-7.256,2.116-11.215v-32.546l-2.429-29.659
			c-4.677-11.028-15.604-18.766-28.338-18.766h-64.775c-12.734,0-23.661,7.737-28.338,18.767l-2.429,29.657v32.547
			c0,3.959,0.754,7.738,2.116,11.215H54.106v22.498v9v77.996h10.5v-77.996h233.988v77.996h10.498v-77.996h0.002V427.584z
			 M220.464,376.693v50.891h-7.287v-50.891H220.464z M142.735,376.693h7.288v50.891h-7.288V376.693z"/>
		<circle fill="#FFFFFF" cx="181.6" cy="284.664" r="37.65"/>
	</g>
	<g>
		<circle fill="#FFFFFF" cx="396.188" cy="113.324" r="30.958"/>
		<circle fill="#FFFFFF" cx="294.326" cy="76.705" r="30.958"/>
		<circle fill="#FFFFFF" cx="498.049" cy="76.705" r="30.958"/>
		<path fill="#FFFFFF" d="M524.68,118.422h-53.262c-13.973,0-25.298,11.326-25.298,25.298v26.75
			c-3.847-9.069-12.831-15.429-23.302-15.429h-53.263c-10.471,0-19.455,6.36-23.3,15.43V143.72
			c0-13.972-11.327-25.298-25.299-25.298h-53.263c-13.972,0-25.298,11.326-25.298,25.298v41.279
			c0,12.145,8.559,22.286,19.972,24.732v-57.355h5.992v79.505h51.929v-79.505h5.993v57.355c8.125-1.742,14.801-7.386,17.975-14.875
			v26.762c0,12.144,8.559,22.286,19.973,24.731v-57.354h5.992V268.5h51.93v-79.505h5.992v57.354
			c11.413-2.446,19.972-12.587,19.972-24.731v-26.761c3.174,7.489,9.851,13.132,17.976,14.874v-57.355h5.992v79.505h51.93v-79.505
			h5.992v57.355c11.414-2.447,19.973-12.588,19.973-24.732V143.72C549.979,129.749,538.652,118.422,524.68,118.422z"/>
	</g>
</g>
</svg>
