<?xml version="1.0" encoding="utf-8"?>
<!-- Generator: Adobe Illustrator 15.0.0, SVG Export Plug-In . SVG Version: 6.00 Build 0)  -->
<!DOCTYPE svg PUBLIC "-//W3C//DTD SVG 1.1//EN" "http://www.w3.org/Graphics/SVG/1.1/DTD/svg11.dtd">
<svg version="1.1" xmlns="http://www.w3.org/2000/svg" xmlns:xlink="http://www.w3.org/1999/xlink" x="0px" y="0px" width="580px"
	 height="580px" viewBox="0 0 580 580" enable-background="new 0 0 580 580" xml:space="preserve">
<g id="Layer_2">
	<g id="g1327">
		<path id="path1329" fill="#111111" stroke="#EEEEEE" stroke-width="3.408" d="M66.275,1.768
			c-41.335,0-64.571,21.371-64.571,65.036v450.123c0,40.844,20.894,62.229,62.192,62.229H515.92
			c41.307,0,62.229-20.316,62.229-62.229V66.804c0-42.601-20.923-65.036-63.522-65.036C514.624,1.768,66.133,1.625,66.275,1.768z"/>
	</g>
</g>
<g id="svg2" inkscape:version="0.46" sodipodi:docname="waste_bin.svg" sodipodi:version="0.32" inkscape:output_extension="org.inkscape.output.svg.inkscape" xmlns:sodipodi="http://sodipodi.sourceforge.net/DTD/sodipodi-0.dtd" xmlns:inkscape="http://www.inkscape.org/namespaces/inkscape" xmlns:cc="http://creativecommons.org/ns#" xmlns:rdf="http://www.w3.org/1999/02/22-rdf-syntax-ns#" xmlns:svg="http://www.w3.org/2000/svg" xmlns:dc="http://purl.org/dc/elements/1.1/">
	<g>
		<path fill="#FFFFFF" d="M309.094,427.584h-66.456c1.362-3.477,2.116-7.256,2.116-11.215v-32.546l-2.429-29.659
			c-4.677-11.028-15.604-18.766-28.338-18.766h-64.775c-12.734,0-23.661,7.737-28.338,18.767l-2.429,29.657v32.547
			c0,3.959,0.754,7.738,2.116,11.215H54.106v22.498v9v77.996h10.5v-77.996h233.988v77.996h10.498v-77.996h0.002V427.584z
			 M220.464,376.693v50.891h-7.287v-50.891H220.464z M142.735,376.693h7.288v50.891h-7.288V376.693z"/>
		<circle fill="#FFFFFF" cx="181.6" cy="284.664" r="37.65"/>
	</g>
	<g>
		<path fill="#FFFFFF" d="M546.03,306.613H289.553V117.282l120.951-48.309V54.792h-9.875V39.978h9.875V29.092h14.814v10.886h9.876
			v14.814h-9.876v13.953L546.03,117.29V306.613z M299.429,296.737h236.726V123.963L418.209,76.53l-118.78,47.441V296.737z"/>
	</g>
	<g>
		<g>
			<path fill="#FFFFFF" d="M427.09,212.076c0.244,2.187,2.242,3.903,4.44,3.813l17.459-0.937c2.194-0.157,3.705-2.062,3.357-4.235
				l-0.86-5.369c-0.348-2.172-2.427-3.798-4.619-3.614l-16.797,1.049c-2.198,0.102-3.796,1.974-3.553,4.16L427.09,212.076z"/>
		</g>
		<g>
			<path fill="#FFFFFF" d="M431.942,219.588c-2.198,0.091-3.797,1.954-3.553,4.141l0.687,6.163c0.244,2.187,2.242,3.894,4.439,3.792
				l18.298-1.089c2.193-0.171,3.703-2.089,3.355-4.261l-0.969-6.042c-0.348-2.172-2.428-3.82-4.623-3.663L431.942,219.588z"/>
		</g>
		<g>
			<path fill="#FFFFFF" d="M405.275,223.757c0.295-2.181-1.263-4.035-3.461-4.12l-19.621-1.041
				c-2.194-0.159-4.274,1.489-4.622,3.663l-0.968,6.04c-0.349,2.171,1.162,4.089,3.355,4.261l19.948,1.167
				c2.199,0.096,4.238-1.608,4.533-3.789L405.275,223.757z"/>
		</g>
		<g>
			<path fill="#FFFFFF" d="M407.543,206.982c0.295-2.181-1.263-4.041-3.461-4.134l-19.178-1.151
				c-2.192-0.184-4.271,1.442-4.619,3.615l-0.86,5.374c-0.348,2.172,1.163,4.077,3.357,4.234l19.532,1.019
				c2.198,0.083,4.238-1.632,4.533-3.812L407.543,206.982z"/>
		</g>
		<g>
			<path fill="#FFFFFF" d="M373.785,245.89c-0.349,2.173,1.161,4.104,3.354,4.292l20.364,1.321c2.198,0.11,4.236-1.584,4.531-3.764
				l0.834-6.173c0.295-2.181-1.262-4.045-3.46-4.144l-20.038-1.188c-2.193-0.173-4.272,1.463-4.62,3.635L373.785,245.89z"/>
		</g>
		<g>
			<path fill="#FFFFFF" d="M454.635,250.217c2.192-0.187,3.7-2.116,3.353-4.289l-0.965-6.023c-0.349-2.172-2.428-3.808-4.621-3.635
				l-18.473,1.113c-2.198,0.103-3.797,1.975-3.553,4.162l0.686,6.154c0.244,2.186,2.241,3.883,4.438,3.771L454.635,250.217z"/>
		</g>
		<g>
			<path fill="#FFFFFF" d="M376.593,204.901c0.349-2.172-1.148-4.21-3.325-4.53l-17.912-2.992c-2.156-0.436-4.285,0.97-4.729,3.124
				l-1.291,6.245c-0.445,2.155,0.968,4.204,3.14,4.555l18.642,2.52c2.185,0.26,4.257-1.304,4.604-3.477L376.593,204.901z"/>
		</g>
		<g>
			<path fill="#FFFFFF" d="M456.051,210.381c0.349,2.172,2.421,3.739,4.605,3.48l18.648-2.499c2.172-0.348,3.585-2.396,3.141-4.55
				l-1.288-6.227c-0.444-2.155-2.573-3.564-4.73-3.131l-17.92,2.966c-2.178,0.316-3.674,2.353-3.326,4.524L456.051,210.381z"/>
		</g>
		<g>
			<path fill="#FFFFFF" d="M495.11,229.993c-2.15,0.467-3.545,2.612-3.1,4.767l1.165,5.638c0.445,2.154,2.106,3.622,3.692,3.26
				c0,0,0,0,1.324-0.322c11.276-2.746,18.949-5.701,18.949-5.701c2.053-0.791,3.346-3.196,2.871-5.344l-1.095-4.967
				c-0.474-2.148-2.565-3.326-4.647-2.617c0,0-6.771,2.305-14.995,4.315C496.839,229.618,495.11,229.993,495.11,229.993z"/>
		</g>
		<g>
			<path fill="#FFFFFF" d="M461.244,217.531c-2.185,0.259-3.688,2.25-3.339,4.421l0.963,6.017c0.349,2.172,2.419,3.722,4.602,3.443
				l19.399-2.795c2.168-0.375,3.577-2.444,3.132-4.598l-1.186-5.737c-0.445-2.154-2.587-3.632-4.76-3.284L461.244,217.531z"/>
		</g>
		<g>
			<path fill="#FFFFFF" d="M345.78,223.949c-0.445,2.154,0.964,4.227,3.131,4.604l19.393,2.817c2.182,0.281,4.252-1.267,4.601-3.439
				l0.962-6.014c0.349-2.173-1.153-4.164-3.338-4.426l-18.806-2.553c-2.172-0.351-4.313,1.125-4.758,3.278L345.78,223.949z"/>
		</g>
		<g>
			<path fill="#FFFFFF" d="M486.424,245.827c2.164-0.402,3.568-2.494,3.123-4.648l-1.175-5.691
				c-0.446-2.154-2.585-3.611-4.752-3.236l-19.563,2.828c-2.182,0.28-3.683,2.285-3.335,4.458l0.961,5.998
				c0.348,2.172,2.416,3.705,4.596,3.405L486.424,245.827z"/>
		</g>
		<g>
			<path fill="#FFFFFF" d="M459.841,257.498c-0.348-2.172-2.426-3.796-4.619-3.608l-19.31,1.276
				c-2.196,0.114-3.795,1.996-3.551,4.183l0.644,5.771c0.243,2.187,2.238,3.838,4.432,3.67l19.874-1.827
				c2.187-0.243,3.69-2.22,3.343-4.393L459.841,257.498z"/>
		</g>
		<g>
			<path fill="#FFFFFF" d="M342.234,241.103c-0.445,2.154,0.96,4.249,3.123,4.654l20.138,3.137c2.18,0.303,4.247-1.228,4.596-3.4
				l0.96-5.995c0.348-2.172-1.153-4.18-3.335-4.462l-19.556-2.85c-2.167-0.377-4.305,1.077-4.751,3.23L342.234,241.103z"/>
		</g>
		<g>
			<path fill="#FFFFFF" d="M486.095,206.132c0.444,2.155,2.572,3.554,4.727,3.108c0,0,4.08-0.841,7.371-1.643
				c6.307-1.537,11.589-3.214,11.589-3.214c2.097-0.666,3.425-2.968,2.951-5.117l-1.899-8.611c-0.473-2.148-2.426-3.019-4.34-1.932
				l-18.754,5.775c-2.078,0.723-3.413,3.079-2.968,5.233L486.095,206.132z"/>
		</g>
		<g>
			<path fill="#FFFFFF" d="M333.953,207.598c3.196,0.778,7.008,1.569,7.008,1.569c2.153,0.447,4.28-0.951,4.726-3.105l1.326-6.418
				c0.445-2.154-0.889-4.511-2.966-5.238l-18.396-5.682c-1.913-1.085-3.775-0.199-4.14,1.971l-1.476,8.811
				c-0.364,2.17,1.057,4.481,3.157,5.137C323.193,204.643,328.074,206.167,333.953,207.598z"/>
		</g>
		<g>
			<path fill="#FFFFFF" d="M336.237,251.786c0.445-2.154-0.478-4.212-2.052-4.573c0,0,0,0-1.315-0.321
				c-8.869-2.168-15.997-4.656-15.997-4.656c-2.077-0.725-4.074,0.458-4.438,2.627l-1.001,5.974
				c-0.363,2.169,1.083,4.388,3.216,4.929l15.98,3.384c2.149,0.472,4.271-0.903,4.717-3.058L336.237,251.786z"/>
		</g>
		<g>
			<path fill="#FFFFFF" d="M499.275,246.891c-1.425,0.348-1.425,0.348-1.425,0.348c-1.713,0.391-2.75,2.474-2.304,4.628l1.026,4.968
				c0.445,2.155,2.569,3.537,4.719,3.071l19.803-4.142c2.133-0.541,3.49-2.742,3.016-4.89l-1.561-7.084
				c-0.475-2.148-2.547-3.271-4.605-2.495C517.944,241.296,510.158,244.23,499.275,246.891z"/>
		</g>
		<g>
			<path fill="#FFFFFF" d="M491.572,212.874c-2.154,0.446-3.553,2.573-3.108,4.728l1.177,5.689c0.444,2.155,2.568,3.537,4.718,3.069
				c0,0,1.492-0.324,3.834-0.893c8.447-2.058,15.274-4.414,15.274-4.414c2.08-0.718,3.394-3.063,2.92-5.211l-1.126-5.107
				c-0.474-2.148-2.579-3.366-4.678-2.707c0,0-5.165,1.625-11.308,3.126C495.893,211.981,491.572,212.874,491.572,212.874z"/>
		</g>
		<g>
			<path fill="#FFFFFF" d="M335.168,243.631c1.446,0.332,2.994-1.16,3.439-3.314l1.164-5.633c0.445-2.155-0.949-4.302-3.099-4.771
				c0,0-1.468-0.32-3.803-0.891c-7.131-1.743-13.148-3.708-13.148-3.708c-2.092-0.684-4.1,0.534-4.463,2.704l-0.874,5.212
				c-0.363,2.17,1.034,4.549,3.107,5.287c0,0,7.21,2.566,16.461,4.819C335.168,243.631,335.168,243.631,335.168,243.631z"/>
		</g>
		<g>
			<path fill="#FFFFFF" d="M322.575,208.34c-2.103-0.648-4.12,0.597-4.483,2.767l-0.887,5.295c-0.364,2.17,1.047,4.512,3.136,5.205
				c0,0,6.188,2.052,13.612,3.861c2.24,0.544,3.471,0.813,3.471,0.813c2.149,0.469,4.272-0.912,4.718-3.065l1.175-5.684
				c0.445-2.155-0.953-4.284-3.106-4.731c0,0-4.052-0.842-7.34-1.646C327.236,209.776,322.575,208.34,322.575,208.34z"/>
		</g>
		<g>
			<path fill="#FFFFFF" d="M491.918,252.648c-0.445-2.155-2.579-3.589-4.743-3.187l-20.31,3.145
				c-2.179,0.301-3.678,2.324-3.329,4.496l0.8,4.992c0.348,2.172,2.413,3.684,4.589,3.359l20.87-3.323
				c2.167-0.38,3.576-2.453,3.131-4.608L491.918,252.648z"/>
		</g>
		<g>
			<path fill="#FFFFFF" d="M400.463,259.363c0.295-2.181-1.262-4.056-3.459-4.167l-20.454-1.342
				c-2.191-0.189-4.271,1.434-4.618,3.606l-0.737,4.606c-0.349,2.173,1.154,4.164,3.339,4.426l20.654,2.077
				c2.192,0.188,4.227-1.442,4.521-3.623L400.463,259.363z"/>
		</g>
		<g>
			<path fill="#FFFFFF" d="M368.237,257.062c0.348-2.172-1.15-4.198-3.33-4.501l-20.302-3.169c-2.162-0.405-4.296,1.026-4.741,3.181
				l-0.874,4.229c-0.445,2.154,0.962,4.24,3.126,4.634l20.814,3.458c2.174,0.341,4.237-1.158,4.585-3.331L368.237,257.062z"/>
		</g>
	</g>
</g>
</svg>
