<?xml version="1.0" encoding="utf-8"?>
<!-- Generator: Adobe Illustrator 15.0.0, SVG Export Plug-In . SVG Version: 6.00 Build 0)  -->
<!DOCTYPE svg PUBLIC "-//W3C//DTD SVG 1.1//EN" "http://www.w3.org/Graphics/SVG/1.1/DTD/svg11.dtd">
<svg version="1.1" xmlns="http://www.w3.org/2000/svg" xmlns:xlink="http://www.w3.org/1999/xlink" x="0px" y="0px" width="580px"
	 height="580px" viewBox="0 0 580 580" enable-background="new 0 0 580 580" xml:space="preserve">
<g id="Layer_2">
	<g id="g1327">
		<path id="path1329" fill="#111111" stroke="#EEEEEE" stroke-width="3.408" d="M66.275,1.768
			c-41.335,0-64.571,21.371-64.571,65.036v450.123c0,40.844,20.894,62.229,62.192,62.229H515.92
			c41.307,0,62.229-20.316,62.229-62.229V66.804c0-42.601-20.923-65.036-63.522-65.036C514.624,1.768,66.133,1.625,66.275,1.768z"/>
	</g>
</g>
<g id="svg2" inkscape:version="0.46" sodipodi:docname="waste_bin.svg" sodipodi:version="0.32" inkscape:output_extension="org.inkscape.output.svg.inkscape" xmlns:sodipodi="http://sodipodi.sourceforge.net/DTD/sodipodi-0.dtd" xmlns:inkscape="http://www.inkscape.org/namespaces/inkscape" xmlns:cc="http://creativecommons.org/ns#" xmlns:rdf="http://www.w3.org/1999/02/22-rdf-syntax-ns#" xmlns:svg="http://www.w3.org/2000/svg" xmlns:dc="http://purl.org/dc/elements/1.1/">
	<g>
		<g>
			<path fill="#FFFFFF" d="M309.094,427.584h-66.456c1.362-3.477,2.116-7.256,2.116-11.215v-32.546l-2.429-29.659
				c-4.677-11.028-15.604-18.766-28.338-18.766h-64.775c-12.734,0-23.661,7.737-28.338,18.767l-2.429,29.657v32.547
				c0,3.959,0.754,7.738,2.116,11.215H54.106v22.498v9v77.996h10.5v-77.996h233.988v77.996h10.498v-77.996h0.002V427.584z
				 M220.464,376.693v50.891h-7.287v-50.891H220.464z M142.735,376.693h7.288v50.891h-7.288V376.693z"/>
		</g>
		<g>
			<circle fill="#FFFFFF" cx="181.6" cy="284.664" r="37.65"/>
		</g>
	</g>
	<g>
		<path fill="#FFFFFF" d="M300.322,194.996c-9.421,0-17.084,7.664-17.084,17.084s7.664,17.084,17.084,17.084
			c9.42,0,17.084-7.664,17.084-17.084S309.742,194.996,300.322,194.996z"/>
		<path fill="#FFFFFF" d="M529.343,59.32c-0.257-3.396-3.088-6.022-6.494-6.022h-26.063c-1.802-5.984-5.65-10.132-10.123-10.132
			c-6.195,0-11.217,7.938-11.217,17.73s5.021,17.731,11.217,17.731c4.997,0,9.226-5.167,10.676-12.303h19.292
			c0.574,18.636,0.146,75.654-24.625,102.352c-8.616,9.286-19.123,13.8-32.118,13.8c-0.001,0-0.001,0-0.001,0
			c-12.996,0-23.502-4.514-32.118-13.8c-24.772-26.699-25.199-83.721-24.626-102.352h17.843c1.451,7.136,5.681,12.303,10.677,12.303
			c6.196,0,11.217-7.939,11.217-17.731s-5.021-17.73-11.217-17.73c-4.472,0-8.32,4.147-10.123,10.132h-24.613
			c-3.407,0-6.237,2.625-6.494,6.021c-0.252,3.332-5.786,82.008,27.772,118.201c9.637,10.391,21.519,16.317,35.386,17.676
			c0.28,10.671,0.472,34.438-2.244,58.946c-4.533,40.921-15.243,66.128-30.158,70.976c-9.976,3.242-23.112-1.934-39.047-15.386
			c-18.371-15.509-39.999-41.834-64.362-78.315c5.278-4.768,8.597-11.665,8.597-19.338c0-14.388-11.663-26.053-26.053-26.053
			c-14.388,0-26.053,11.665-26.053,26.053c0,14.389,11.665,26.053,26.053,26.053c2.009,0,3.961-0.235,5.839-0.665
			c45.348,68.162,81.183,101.622,108.963,101.62c3.488,0,6.853-0.528,10.091-1.58c20.651-6.714,33.8-34.278,39.078-81.929
			c2.8-25.267,2.633-49.253,2.337-60.422c13.677-1.44,25.407-7.354,34.939-17.635C535.128,141.328,529.595,62.652,529.343,59.32z
			 M300.322,233.323c-11.713,0-21.244-9.53-21.244-21.243s9.53-21.243,21.244-21.243c11.713,0,21.242,9.53,21.242,21.243
			S312.035,233.323,300.322,233.323z"/>
	</g>
</g>
</svg>
