<?xml version="1.0" encoding="utf-8"?>
<!-- Generator: Adobe Illustrator 15.0.0, SVG Export Plug-In . SVG Version: 6.00 Build 0)  -->
<!DOCTYPE svg PUBLIC "-//W3C//DTD SVG 1.1//EN" "http://www.w3.org/Graphics/SVG/1.1/DTD/svg11.dtd">
<svg version="1.1" xmlns="http://www.w3.org/2000/svg" xmlns:xlink="http://www.w3.org/1999/xlink" x="0px" y="0px" width="580px"
	 height="580px" viewBox="0 0 580 580" enable-background="new 0 0 580 580" xml:space="preserve">
<g id="Layer_2">
	<g id="g1327">
		<path id="path1329" fill="#111111" stroke="#EEEEEE" stroke-width="3.408" d="M66.275,1.768
			c-41.335,0-64.571,21.371-64.571,65.036v450.123c0,40.844,20.894,62.229,62.192,62.229H515.92
			c41.307,0,62.229-20.316,62.229-62.229V66.804c0-42.601-20.923-65.036-63.522-65.036C514.624,1.768,66.133,1.625,66.275,1.768z"/>
	</g>
</g>
<g id="svg2" inkscape:version="0.46" sodipodi:docname="waste_bin.svg" sodipodi:version="0.32" xmlns:inkscape="http://www.inkscape.org/namespaces/inkscape" xmlns:rdf="http://www.w3.org/1999/02/22-rdf-syntax-ns#" xmlns:dc="http://purl.org/dc/elements/1.1/" xmlns:cc="http://creativecommons.org/ns#" xmlns:svg="http://www.w3.org/2000/svg" xmlns:sodipodi="http://sodipodi.sourceforge.net/DTD/sodipodi-0.dtd" inkscape:output_extension="org.inkscape.output.svg.inkscape">
	<g>
		<path fill="#FFFFFF" d="M309.094,427.584h-66.456c1.362-3.477,2.116-7.256,2.116-11.215v-32.546l-2.429-29.659
			c-4.677-11.028-15.604-18.766-28.338-18.766h-64.775c-12.734,0-23.661,7.737-28.338,18.767l-2.429,29.657v32.547
			c0,3.959,0.754,7.738,2.116,11.215H54.106v22.498v9v77.996h10.5v-77.996h233.988v77.996h10.498v-77.996h0.002V427.584z
			 M220.464,376.693v50.891h-7.287v-50.891H220.464z M142.735,376.693h7.288v50.891h-7.288V376.693z"/>
		<circle fill="#FFFFFF" cx="181.6" cy="284.664" r="37.65"/>
	</g>
	<g>
		<path fill="#FFFFFF" d="M245.747,149.394V174.8v10.163l44.16,88.076h11.857l-44.16-88.076h264.227l-44.013,88.076h11.855
			l44.013-88.076h0.002v-35.569H245.747z"/>
	</g>
	<rect x="386.33" y="106.856" fill="#FFFFFF" width="6.775" height="58.72"/>
	<ellipse fill="#FFFFFF" cx="389.718" cy="85.4" rx="17.688" ry="27.102"/>
	
		<rect x="315.013" y="98.568" transform="matrix(0.9138 0.4062 -0.4062 0.9138 79.4064 -118.2959)" fill="#FFFFFF" width="6.775" height="58.721"/>
	
		<ellipse transform="matrix(0.9138 0.4062 -0.4062 0.9138 62.3273 -130.6846)" fill="#FFFFFF" cx="339.042" cy="81.494" rx="17.688" ry="27.102"/>
	
		<rect x="456.501" y="98.568" transform="matrix(-0.9138 0.4062 -0.4062 -0.9138 932.0958 58.0385)" fill="#FFFFFF" width="6.775" height="58.721"/>
	
		<ellipse transform="matrix(-0.9138 0.4062 -0.4062 -0.9138 873.7319 -22.448)" fill="#FFFFFF" cx="439.248" cy="81.494" rx="17.688" ry="27.102"/>
	<rect x="283.34" y="273.039" fill="#FFFFFF" width="212.755" height="5.461"/>
</g>
</svg>
