<?xml version="1.0" encoding="UTF-8" standalone="no"?>
<!-- Generator: Adobe Illustrator 15.0.0, SVG Export Plug-In . SVG Version: 6.00 Build 0)  -->

<svg
   xmlns:dc="http://purl.org/dc/elements/1.1/"
   xmlns:cc="http://creativecommons.org/ns#"
   xmlns:rdf="http://www.w3.org/1999/02/22-rdf-syntax-ns#"
   xmlns:svg="http://www.w3.org/2000/svg"
   xmlns="http://www.w3.org/2000/svg"
   xmlns:sodipodi="http://sodipodi.sourceforge.net/DTD/sodipodi-0.dtd"
   xmlns:inkscape="http://www.inkscape.org/namespaces/inkscape"
   version="1.1"
   x="0px"
   y="0px"
   width="580px"
   height="580px"
   viewBox="0 0 580 580"
   enable-background="new 0 0 580 580"
   xml:space="preserve"
   id="svg859"
   sodipodi:docname="private_investigator.svg"
   inkscape:version="0.92.3 (2405546, 2018-03-11)"><metadata
   id="metadata865"><rdf:RDF><cc:Work
       rdf:about=""><dc:format>image/svg+xml</dc:format><dc:type
         rdf:resource="http://purl.org/dc/dcmitype/StillImage" /><dc:title></dc:title></cc:Work></rdf:RDF></metadata><defs
   id="defs863">
	
	
	
</defs><sodipodi:namedview
   pagecolor="#ffffff"
   bordercolor="#666666"
   borderopacity="1"
   objecttolerance="10"
   gridtolerance="10"
   guidetolerance="10"
   inkscape:pageopacity="0"
   inkscape:pageshadow="2"
   inkscape:window-width="1508"
   inkscape:window-height="797"
   id="namedview861"
   showgrid="false"
   inkscape:zoom="1.04"
   inkscape:cx="290"
   inkscape:cy="349.70259"
   inkscape:window-x="234"
   inkscape:window-y="234"
   inkscape:window-maximized="0"
   inkscape:current-layer="svg859" />
<g
   id="Layer_2">
	<g
   id="g1327">
		<path
   id="path1329"
   fill="#111111"
   stroke="#EEEEEE"
   stroke-width="3.408"
   d="M66.275,1.768    c-41.335,0-64.571,21.371-64.571,65.036v450.123c0,40.844,20.894,62.229,62.192,62.229H515.92    c41.307,0,62.229-20.316,62.229-62.229V66.804c0-42.601-20.923-65.036-63.522-65.036C514.624,1.768,66.133,1.625,66.275,1.768z" />
	</g>
</g>
<g
   id="g848">
		<path
   style="fill:#ffffff"
   inkscape:connector-curvature="0"
   id="path844"
   d="m 309.094,427.584 h -66.456 c 1.362,-3.477 2.116,-7.256 2.116,-11.215 v -32.546 l -2.429,-29.659 c -4.677,-11.028 -15.604,-18.766 -28.338,-18.766 h -64.775 c -12.734,0 -23.661,7.737 -28.338,18.767 l -2.429,29.657 v 32.547 c 0,3.959 0.754,7.738 2.116,11.215 H 54.106 v 22.498 9 77.996 h 10.5 v -77.996 h 233.988 v 77.996 h 10.498 v -77.996 h 0.002 z m -88.63,-50.891 v 50.891 h -7.287 v -50.891 z m -77.729,0 h 7.288 v 50.891 h -7.288 z" />
		<circle
   style="fill:#ffffff"
   id="circle846"
   r="37.650002"
   cy="284.664"
   cx="181.60001" />
	</g>
<g
   transform="matrix(0.60808031,0,0,0.60808031,207.99246,-42.334179)"
   id="g1442"><ellipse
     ry="84.411385"
     rx="86.979942"
     style="color:#000000;display:inline;overflow:visible;visibility:visible;opacity:1;fill:none;fill-opacity:1;fill-rule:nonzero;stroke:#ffffff;stroke-width:21.61924744;stroke-miterlimit:4;stroke-dasharray:none;stroke-opacity:1;marker:none;enable-background:accumulate"
     id="path875"
     cx="158.97729"
     cy="290" /><ellipse
     ry="33.632385"
     rx="36.290764"
     cy="246.66086"
     cx="289.99994"
     id="path921"
     style="color:#000000;display:inline;overflow:visible;visibility:visible;opacity:1;fill:#ffffff;fill-opacity:1;fill-rule:nonzero;stroke:#ffffff;stroke-width:20.84430885;stroke-miterlimit:4;stroke-dasharray:none;stroke-opacity:1;marker:none;enable-background:accumulate" /><ellipse
     ry="84.411385"
     rx="86.979942"
     style="color:#000000;display:inline;overflow:visible;visibility:visible;opacity:1;fill:none;fill-opacity:1;fill-rule:nonzero;stroke:#ffffff;stroke-width:21.61924744;stroke-miterlimit:4;stroke-dasharray:none;stroke-opacity:1;marker:none;enable-background:accumulate"
     id="path875-7"
     cx="420.97559"
     cy="290" /></g></svg>