<?xml version="1.0" encoding="utf-8"?>
<!-- Generator: Adobe Illustrator 15.0.0, SVG Export Plug-In . SVG Version: 6.00 Build 0)  -->
<!DOCTYPE svg PUBLIC "-//W3C//DTD SVG 1.1//EN" "http://www.w3.org/Graphics/SVG/1.1/DTD/svg11.dtd">
<svg version="1.1" xmlns="http://www.w3.org/2000/svg" xmlns:xlink="http://www.w3.org/1999/xlink" x="0px" y="0px" width="580px"
	 height="580px" viewBox="0 0 580 580" enable-background="new 0 0 580 580" xml:space="preserve">
<g id="Layer_2">
	<g id="g1327">
		<path id="path1329" fill="#111111" stroke="#EEEEEE" stroke-width="3.408" d="M66.275,1.768
			c-41.335,0-64.571,21.371-64.571,65.036v450.123c0,40.844,20.894,62.229,62.192,62.229H515.92
			c41.307,0,62.229-20.316,62.229-62.229V66.804c0-42.601-20.923-65.036-63.522-65.036C514.624,1.768,66.133,1.625,66.275,1.768z"/>
	</g>
</g>
<g id="svg2" sodipodi:docname="waste_bin.svg" inkscape:version="0.46" sodipodi:version="0.32" inkscape:output_extension="org.inkscape.output.svg.inkscape" xmlns:inkscape="http://www.inkscape.org/namespaces/inkscape" xmlns:dc="http://purl.org/dc/elements/1.1/" xmlns:rdf="http://www.w3.org/1999/02/22-rdf-syntax-ns#" xmlns:sodipodi="http://sodipodi.sourceforge.net/DTD/sodipodi-0.dtd" xmlns:svg="http://www.w3.org/2000/svg" xmlns:cc="http://creativecommons.org/ns#">
	<g>
		<path fill="#FFFFFF" d="M309.094,427.584h-66.456c1.362-3.477,2.116-7.256,2.116-11.215v-32.546l-2.429-29.659
			c-4.677-11.028-15.604-18.766-28.338-18.766h-64.775c-12.734,0-23.661,7.737-28.338,18.767l-2.429,29.657v32.547
			c0,3.959,0.754,7.738,2.116,11.215H54.106v22.498v9v77.996h10.5v-77.996h233.988v77.996h10.498v-77.996h0.002V427.584z
			 M220.464,376.693v50.891h-7.287v-50.891H220.464z M142.735,376.693h7.288v50.891h-7.288V376.693z"/>
		<circle fill="#FFFFFF" cx="181.6" cy="284.664" r="37.65"/>
	</g>
	<g>
		<circle fill="#FFFFFF" cx="396.188" cy="113.324" r="30.958"/>
		<circle fill="#FFFFFF" cx="294.326" cy="76.705" r="30.958"/>
		<circle fill="#FFFFFF" cx="498.049" cy="76.705" r="30.958"/>
		<path fill="#FFFFFF" d="M524.68,118.422h-53.262c-13.973,0-25.298,11.326-25.298,25.298v26.75
			c-3.847-9.069-12.831-15.429-23.302-15.429h-53.263c-10.471,0-19.455,6.36-23.3,15.43V143.72
			c0-13.972-11.327-25.298-25.299-25.298h-53.263c-13.972,0-25.298,11.326-25.298,25.298v41.279
			c0,12.145,8.559,22.286,19.972,24.732v-57.355h5.992v79.505h51.929v-79.505h5.993v57.355c8.125-1.742,14.801-7.386,17.975-14.875
			v26.762c0,12.144,8.559,22.286,19.973,24.731v-57.354h5.992V268.5h51.93v-79.505h5.992v57.354
			c11.413-2.446,19.972-12.587,19.972-24.731v-26.761c3.174,7.489,9.851,13.132,17.976,14.874v-57.355h5.992v79.505h51.93v-79.505
			h5.992v57.355c11.414-2.447,19.973-12.588,19.973-24.732V143.72C549.979,129.749,538.652,118.422,524.68,118.422z"/>
	</g>
	<path fill="#FFFFFF" d="M218.353,47.583c-0.537-0.332-1.276-0.365-1.837-0.085c-0.117,0.058-11.809,5.725-21.177,5.725
		c-4.554,0-9.381-1.741-14.337-3.681l-0.988-0.388c-4.639-1.824-9.02-3.548-13.465-3.548c-4.47,0-9.735,1.729-15.311,3.56
		l-1.047,0.343c-5.979,1.957-11.688,3.714-15.816,3.714c-4.718,0-10.631-2.319-13.736-3.701c-2.748-1.223-5.023-2.452-6.216-3.124
		c-0.183-0.855-0.978-1.525-1.852-1.525h-4.533c-1.007,0-1.891,0.884-1.892,1.891v143.317c0.001,1.007,0.885,1.891,1.892,1.891
		h4.533c0,0,0,0,0.001,0c1.006,0,1.891-0.884,1.891-1.891v-60.982c1.5,1.222,3.432,2.411,5.755,3.541
		c5.1,2.482,10.392,3.964,14.157,3.964c5.066,0,11.007-1.944,16.752-3.825l0.237-0.078c5.318-1.74,11.346-3.713,15.185-3.713
		c3.664,0,8.153,1.757,12.907,3.617l0.162,0.063c4.48,1.753,10.057,3.936,15.721,3.936c10.723,0,22.747-6.064,22.865-6.124
		c0.624-0.313,1.045-0.992,1.046-1.69v-79.6C219.249,48.55,218.896,47.919,218.353,47.583z"/>
</g>
</svg>
