<?xml version="1.0" encoding="UTF-8" standalone="no"?>
<!-- Generator: Adobe Illustrator 15.0.0, SVG Export Plug-In . SVG Version: 6.00 Build 0)  -->

<svg
   version="1.1"
   x="0px"
   y="0px"
   width="580px"
   height="580px"
   viewBox="0 0 580 580"
   enable-background="new 0 0 580 580"
   xml:space="preserve"
   id="svg2"
   inkscape:version="1.2.2 (b0a8486541, 2022-12-01)"
   sodipodi:docname="religious.svg"
   xmlns:inkscape="http://www.inkscape.org/namespaces/inkscape"
   xmlns:sodipodi="http://sodipodi.sourceforge.net/DTD/sodipodi-0.dtd"
   xmlns="http://www.w3.org/2000/svg"
   xmlns:svg="http://www.w3.org/2000/svg"
   xmlns:rdf="http://www.w3.org/1999/02/22-rdf-syntax-ns#"
   xmlns:cc="http://creativecommons.org/ns#"
   xmlns:dc="http://purl.org/dc/elements/1.1/"><metadata
   id="metadata47"><rdf:RDF><cc:Work
       rdf:about=""><dc:format>image/svg+xml</dc:format><dc:type
         rdf:resource="http://purl.org/dc/dcmitype/StillImage" /></cc:Work></rdf:RDF></metadata><defs
   id="defs45">
	
	
	
</defs><sodipodi:namedview
   pagecolor="#ffffff"
   bordercolor="#666666"
   borderopacity="1"
   objecttolerance="10"
   gridtolerance="10"
   guidetolerance="10"
   inkscape:pageopacity="0"
   inkscape:pageshadow="2"
   inkscape:window-width="1622"
   inkscape:window-height="1125"
   id="namedview43"
   showgrid="false"
   inkscape:zoom="0.6155722"
   inkscape:cx="-128.33588"
   inkscape:cy="259.92077"
   inkscape:window-x="0"
   inkscape:window-y="0"
   inkscape:window-maximized="0"
   inkscape:current-layer="g3053"
   inkscape:showpageshadow="2"
   inkscape:pagecheckerboard="0"
   inkscape:deskcolor="#d1d1d1" />
<g
   id="Layer_2">
	<g
   id="g1327">
		<path
   id="path1329"
   fill="#111111"
   stroke="#EEEEEE"
   stroke-width="3.408"
   d="M66.275,1.768    c-41.335,0-64.571,21.371-64.571,65.036v450.123c0,40.844,20.894,62.229,62.192,62.229H515.92    c41.307,0,62.229-20.316,62.229-62.229V66.804c0-42.601-20.923-65.036-63.522-65.036C514.624,1.768,66.133,1.625,66.275,1.768z" />
	</g>
</g>

<g
   id="g3053"><g
     id="g29"
     transform="matrix(1.1720952,0,0,1.1720952,-95.213297,-4.7544749)">
		<path
   d="m 403.83,109.506 -9.14,-15.835 9.098,-15.64 c 5.004,-8.601 9.117,-16.189 9.14,-16.862 0.033,-0.938 -4.36,-1.224 -18.826,-1.224 H 375.23 L 367.5,46.479 c -8.496,-14.8 -11.109,-18.852 -12.156,-18.852 -0.381,0 -4.868,7.271 -9.971,16.157 l -9.277,16.158 -18.853,10e-4 c -13.65,0.001 -18.852,0.315 -18.852,1.138 0,0.625 3.72,7.566 8.267,15.424 4.547,7.858 8.562,15.063 8.923,16.012 0.447,1.176 -2.204,6.697 -8.339,17.361 -4.946,8.601 -8.716,16.087 -8.375,16.638 0.387,0.625 7.517,1.005 18.924,1.01 l 18.305,0.009 9.304,16.142 c 5.117,8.878 9.604,16.146 9.971,16.15 1.018,0.013 3.675,-4.116 12.13,-18.843 l 7.73,-13.466 h 18.872 c 13.187,0 18.87,-0.327 18.87,-1.087 -0.001,-0.599 -4.115,-8.215 -9.143,-16.925 z M 388.425,70.718 h 6.867 l -3.157,5.859 c -1.736,3.223 -3.377,5.862 -3.646,5.864 -0.269,0.003 -1.938,-2.634 -3.71,-5.859 l -3.223,-5.864 z M 355.681,48.193 c 0.456,0 6.366,10.34 6.366,11.136 0,0.339 -2.865,0.616 -6.366,0.616 -3.5,0 -6.365,-0.277 -6.365,-0.616 -10e-4,-0.796 5.911,-11.136 6.365,-11.136 z m -32.872,22.525 h 6.867 l -3.155,5.859 c -1.736,3.223 -3.378,5.862 -3.646,5.864 -0.27,0.003 -1.939,-2.634 -3.711,-5.859 l -3.222,-5.864 z m 0.065,46.028 h -6.933 l 3.222,-5.864 c 1.771,-3.226 3.441,-5.864 3.711,-5.864 0.269,0 1.938,2.639 3.711,5.864 l 3.221,5.864 z m 36.163,17.264 c -1.655,2.893 -3.166,5.261 -3.356,5.261 -0.454,0 -6.365,-10.34 -6.365,-11.137 0,-0.339 2.865,-0.616 6.365,-0.616 3.501,0 6.366,0.277 6.366,0.616 0,0.338 -1.354,2.983 -3.01,5.876 z m 13.621,-23.874 -3.843,6.61 h -13.059 c -9.284,0 -13.332,-0.354 -14.011,-1.225 -1.863,-2.392 -12.017,-20.952 -12.017,-21.967 0,-0.567 2.784,-5.828 6.188,-11.69 l 6.188,-10.657 h 13.618 13.618 l 6.344,11.173 6.344,11.174 -2.766,4.985 c -1.518,2.743 -4.491,7.961 -6.604,11.597 z m 15.83,6.61 h -6.933 l 3.223,-5.864 c 1.771,-3.226 3.441,-5.864 3.71,-5.864 0.27,0 1.939,2.639 3.711,5.864 l 3.222,5.864 z"
   id="path31"
   inkscape:connector-curvature="0"
   style="fill:#ffffff" />
		<path
   d="m 552.644,89.55 c -0.796,-2.072 -5.473,-4.295 -8.328,-3.958 -2.163,0.255 -2.469,-0.081 -3.036,-3.35 -3.587,-20.655 -21.972,-39.125 -42.443,-43.333 -3.403,-0.7 -4.042,-0.758 -6.01,-0.951 -0.023,-5.811 -0.57,-9.313 -6.306,-9.513 -7.257,-0.249 -6.845,5.045 -7.297,9.791 -3.416,0.762 -3.649,0.182 -6.685,0.934 -9.989,2.475 -16.908,6.627 -25.176,14.897 -8.065,8.069 -12.05,14.919 -14.733,25.332 l -1.607,6.241 -3.409,0.206 c -4.548,0.274 -7.039,2.646 -7.039,6.699 0,4.46 2.929,7.413 7.354,7.413 1.415,0 2.156,0.051 3.494,0.156 4.39,21.967 22.479,43.167 42.931,47.191 l 5.271,1.038 v 3.515 c 0,2.305 0.626,4.142 1.817,5.333 2.335,2.333 8.218,2.464 10.239,0.227 0.79,-0.874 1.568,-3.213 1.73,-5.197 l 0.295,-3.607 6.813,-1.891 c 13.233,-3.674 24.632,-11.686 31.943,-22.453 4.148,-6.109 7.864,-14.613 8.811,-20.166 0.604,-3.545 0.786,-3.711 4.611,-4.226 5.843,-0.786 8.728,-5.195 6.76,-10.328 z M 520.613,69.069 c 0.395,0 2.646,2.92 4.131,6.23 1.469,3.275 2.172,6.935 2.319,8.129 0.251,2.05 0.145,2.071 -11.329,2.258 -6.371,0.104 -11.583,-0.024 -11.583,-0.285 0,-0.651 15.806,-16.332 16.462,-16.332 z m -27.161,-4.996 0.253,-11.811 2.271,0.284 c 1.25,0.157 5.146,0.688 8.54,2.281 l 6.068,3.794 -8.692,8.63 -8.692,8.63 z m -16.327,-11.734 2.498,-0.564 v 11.827 c 0,6.504 -0.111,11.827 -0.245,11.827 -0.612,0 -15.968,-16.029 -16.106,-16.646 -0.222,-0.982 9.3,-6.245 13.853,-6.444 z m -26.442,19.699 1.938,-3.135 8.051,8.013 c 4.428,4.407 8.05,8.226 8.05,8.486 0,0.26 -5.109,0.473 -11.354,0.473 -9.874,0 -10.857,0.107 -11.457,0.023 1.198,-6.532 2.596,-10.337 4.772,-13.86 z m 1.757,44.055 c -0.886,0.357 -5.312,-9.098 -6.016,-12.854 l -0.616,-3.282 h 12.029 12.028 l -8.418,7.948 c -4.629,4.372 -8.682,8.056 -9.007,8.188 z m 18.423,15.62 c -4.829,-1.985 -6.759,-4.154 -7.857,-4.96 0.892,-1.286 3.291,-3.909 7.539,-8.18 4.222,-4.244 7.991,-7.715 8.377,-7.715 0.386,0 0.701,5.11 0.701,11.355 0,7.126 -0.104,9.973 0.147,11.871 -1.525,-0.23 -4.86,-0.708 -8.907,-2.371 z m 18.98,-30.664 c -3.291,1.702 -7.411,0.439 -9.958,-2.542 -2.221,-2.599 -3.179,-7.717 0.732,-11.401 4.008,-3.777 8.699,-3.753 12.312,0.208 2.265,2.483 3.003,5.538 1.797,8.424 -0.756,1.811 -3.321,4.504 -4.883,5.311 z m 17.062,28.531 c -3.219,1.505 -7.181,3.003 -8.805,3.327 l -4.851,0.889 v -11.469 c 0,-6.309 0.315,-11.469 0.7,-11.469 0.386,0 4.348,3.664 8.805,8.142 l 8.104,8.142 z m 20.337,-26.626 c -0.311,1.374 -0.929,3.955 -2.351,7.078 -1.422,3.122 -3.721,6.277 -4.133,6.277 -0.41,0 -4.409,-3.68 -8.885,-8.176 l -8.139,-8.176 h 12.035 12.035 z"
   id="path33"
   inkscape:connector-curvature="0"
   style="fill:#ffffff" />
		<g
   id="g35">
			<path
   d="m 385.789,276.906 c -8.698,1.749 -11.129,1.894 -16.429,0.986 -17.079,-2.925 -32.541,-16.195 -38.646,-33.163 -2.948,-8.195 -2.937,-23.029 0.024,-31.278 6.277,-17.485 21.983,-30.644 39.442,-33.042 6.063,-0.833 8.665,-0.682 16.508,0.961 9.799,2.054 11.648,1.972 9.66,-0.424 -3.89,-4.687 -23.103,-11.102 -33.249,-11.102 -6.808,0 -18.585,2.184 -23.888,4.43 -14.595,6.182 -27.829,20.417 -33.063,35.561 -1.914,5.542 -3.006,10.757 -3.076,18.889 -0.073,8.125 1.162,14.159 3.076,19.701 5.489,15.884 20.197,30.96 35.429,36.313 2.972,1.045 7.172,2.251 9.332,2.681 10.568,2.101 25.311,0.301 35.421,-4.328 6.846,-3.135 11.515,-6.457 10.477,-7.457 -0.445,-0.427 -5.404,0.145 -11.018,1.272 z"
   id="path37"
   inkscape:connector-curvature="0"
   style="fill:#ffffff" />
			<path
   d="m 416.477,221.167 c -4.137,-0.264 -8.285,-0.094 -12.427,-0.142 -1.963,-5.059 -2.857,-10.742 -6.07,-15.165 -0.251,-0.202 -0.581,-0.357 -0.917,-0.262 -2.089,1.503 -2.49,4.452 -3.594,6.654 -1.005,2.751 -1.937,5.534 -2.917,8.296 -5.284,0.45 -10.884,-0.243 -15.962,1.405 -1.282,1.513 1.331,2.696 2.19,3.678 3.237,2.655 6.762,4.913 10.034,7.535 -1.393,5.075 -3.959,9.991 -4.25,15.283 0.874,2.349 3.543,0.424 4.766,-0.502 3.338,-2.205 6.459,-5.094 10.055,-6.735 4.597,2.458 8.502,6.205 13.093,8.737 2.052,0.059 1.456,-2.834 1.214,-4.142 -0.758,-4.211 -2.862,-8.313 -3.547,-12.416 3.771,-3.881 8.781,-6.316 12.379,-10.367 0.231,-2.033 -2.754,-1.542 -4.047,-1.857 z"
   id="path39"
   inkscape:connector-curvature="0"
   style="fill:#ffffff" />
		</g>
		<path
   d="m 527.409,207.636 c -3.854,-0.01 -7.712,-0.005 -11.567,0 -2.26,0.003 -4.519,0.007 -6.778,0.007 -4.341,0 -7.778,-0.012 -10.981,-0.04 -0.008,-0.284 0.015,-0.654 0.031,-0.911 0.028,-0.485 0.059,-0.985 0.021,-1.504 -0.011,-6.169 -0.009,-12.44 -0.007,-18.506 0,-3.79 0.001,-7.58 0,-11.37 0,-1.218 -0.988,-2.205 -2.207,-2.205 H 476.9 c -1.22,0 -2.207,0.987 -2.207,2.206 v 32.376 c -0.073,0.005 -0.161,0.009 -0.267,0.009 -0.351,0 -0.74,-0.038 -1.116,-0.073 l -0.305,-0.028 c -0.074,-0.006 -0.148,-0.009 -0.223,-0.009 -3.028,0.039 -6.231,0.057 -10.388,0.057 -1.966,0 -3.932,-0.004 -5.896,-0.008 -3.359,-0.006 -6.717,-0.012 -10.075,0 -1.215,0.005 -2.198,0.992 -2.198,2.207 v 16.988 c 0,1.216 0.984,2.204 2.199,2.207 3.729,0.01 7.461,0.005 11.191,0 2.183,-0.003 4.367,-0.006 6.55,-0.006 4.177,0 7.49,0.012 10.574,0.038 0.006,0.285 -0.017,0.655 -0.032,0.913 -0.028,0.484 -0.059,0.984 -0.021,1.503 0.01,11.203 0.008,22.592 0.007,33.609 0,6.995 -10e-4,13.99 0,20.984 0,1.218 0.987,2.206 2.207,2.206 h 19.021 c 1.218,0 2.205,-0.986 2.207,-2.203 0.011,-7.38 0.005,-14.884 0,-22.141 -0.01,-11.458 -0.019,-23.295 0.035,-34.948 0.039,-0.001 0.081,-0.002 0.127,-0.002 0.235,0 0.5,0.016 0.781,0.033 0.319,0.02 0.649,0.039 0.991,0.039 0.183,0 0.352,-0.006 0.513,-0.018 3.518,-0.006 7.037,-0.008 10.555,-0.008 l 11.998,10e-4 c 1.427,0 2.851,0 4.275,0 1.219,0 2.206,-0.989 2.206,-2.207 v -16.988 c 0,-1.218 -0.984,-2.204 -2.2,-2.208 z"
   id="path41"
   inkscape:connector-curvature="0"
   style="fill:#ffffff" />
	</g><g
     id="g9"
     transform="translate(1.0349191,1.1325991)"><path
       d="m 309.094,427.584 h -66.456 c 1.362,-3.477 2.116,-7.256 2.116,-11.215 v -32.546 l -2.429,-29.659 c -4.677,-11.028 -15.604,-18.766 -28.338,-18.766 h -64.775 c -12.734,0 -23.661,7.737 -28.338,18.767 l -2.429,29.657 v 32.547 c 0,3.959 0.754,7.738 2.116,11.215 H 54.106 v 22.498 9 77.996 h 10.5 v -77.996 h 233.988 v 77.996 h 10.498 v -77.996 h 0.002 v -31.498 z m -88.63,-50.891 v 50.891 h -7.287 v -50.891 h 7.287 z m -77.729,0 h 7.288 v 50.891 h -7.288 v -50.891 z"
       id="path11"
       inkscape:connector-curvature="0"
       style="fill:#ffffff" /><circle
       cx="181.60001"
       cy="284.664"
       r="37.650002"
       id="circle13"
       sodipodi:cx="181.60001"
       sodipodi:cy="284.664"
       sodipodi:rx="37.650002"
       sodipodi:ry="37.650002"
       style="fill:#ffffff"
       d="m 219.25001,284.664 c 0,20.79352 -16.85648,37.65 -37.65,37.65 -20.79353,0 -37.65001,-16.85648 -37.65001,-37.65 0,-20.79352 16.85648,-37.65 37.65001,-37.65 20.79352,0 37.65,16.85648 37.65,37.65 z" /></g></g></svg>
