<?xml version="1.0" encoding="utf-8"?>
<!-- Generator: Adobe Illustrator 15.0.0, SVG Export Plug-In . SVG Version: 6.00 Build 0)  -->
<!DOCTYPE svg PUBLIC "-//W3C//DTD SVG 1.1//EN" "http://www.w3.org/Graphics/SVG/1.1/DTD/svg11.dtd">
<svg version="1.1" xmlns="http://www.w3.org/2000/svg" xmlns:xlink="http://www.w3.org/1999/xlink" x="0px" y="0px" width="580px"
	 height="580px" viewBox="0 0 580 580" enable-background="new 0 0 580 580" xml:space="preserve">
<g id="Layer_2">
	<g id="g1327">
		<path id="path1329" fill="#111111" stroke="#EEEEEE" stroke-width="3.408" d="M66.275,1.768
			c-41.335,0-64.571,21.371-64.571,65.036v450.123c0,40.844,20.894,62.229,62.192,62.229H515.92
			c41.307,0,62.229-20.316,62.229-62.229V66.804c0-42.601-20.923-65.036-63.522-65.036C514.624,1.768,66.133,1.625,66.275,1.768z"/>
	</g>
</g>
<g id="svg2" inkscape:output_extension="org.inkscape.output.svg.inkscape" xmlns:cc="http://creativecommons.org/ns#" xmlns:svg="http://www.w3.org/2000/svg" xmlns:sodipodi="http://sodipodi.sourceforge.net/DTD/sodipodi-0.dtd" xmlns:rdf="http://www.w3.org/1999/02/22-rdf-syntax-ns#" xmlns:dc="http://purl.org/dc/elements/1.1/" xmlns:inkscape="http://www.inkscape.org/namespaces/inkscape" sodipodi:docname="waste_bin.svg" inkscape:version="0.46" sodipodi:version="0.32">
	<g>
		<path fill="#FFFFFF" d="M309.094,427.584h-66.456c1.362-3.477,2.116-7.256,2.116-11.215v-32.546l-2.429-29.659
			c-4.677-11.028-15.604-18.766-28.338-18.766h-64.775c-12.734,0-23.661,7.737-28.338,18.767l-2.429,29.657v32.547
			c0,3.959,0.754,7.738,2.116,11.215H54.106v22.498v9v77.996h10.5v-77.996h233.988v77.996h10.498v-77.996h0.002V427.584z
			 M220.464,376.693v50.891h-7.287v-50.891H220.464z M142.735,376.693h7.288v50.891h-7.288V376.693z"/>
		<circle fill="#FFFFFF" cx="181.6" cy="284.664" r="37.65"/>
	</g>
	<g>
		<path fill="#FFFFFF" d="M331.89,347.5h216.457l-30.179-29.139h-78.049c-116.462-95.125-33.943-137.844-7.423-148.275
			l23.373,46.273c3.951,7.748,16.736,4.03,30.281-2.806c13.848-8.691,21.287-16.254,18.712-21.934l-67.97-134.529
			c-3.147-6.198-12.8-7.916-23.47-4.857l-14.254-28.217c-1.333-2.601-6.063-2.854-10.601-0.559c-4.555,2.299-7.156,6.268-5.839,8.87
			l14.345,28.412c-8.207,6.675-12.175,15.1-9.157,21.091l25.903,51.28c-150.669,71.865-28.017,185.25-28.017,185.25h-21.854
			L331.89,347.5z M429.712,133.496c8.86,0,16.066,7.208,16.066,16.066c0,8.861-7.206,16.069-16.066,16.069
			c-8.869,0-16.084-7.208-16.084-16.069C413.628,140.704,420.843,133.496,429.712,133.496z"/>
		<path fill="#FFFFFF" d="M429.712,162.212c6.975,0,12.647-5.674,12.647-12.649c0-6.974-5.673-12.647-12.647-12.647
			c-6.983,0-12.665,5.673-12.665,12.647C417.047,156.538,422.729,162.212,429.712,162.212z"/>
		<polygon fill="#FFFFFF" points="461.714,244.586 528.266,205.845 523.308,197.3 456.754,236.04 		"/>
		<polygon fill="#FFFFFF" points="486.314,251.528 499.113,244.576 492.657,232.681 479.86,239.634 		"/>
		<polygon fill="#FFFFFF" points="510.592,237.309 523.388,230.356 516.934,218.463 504.136,225.414 		"/>
	</g>
</g>
</svg>
