<?xml version="1.0" encoding="UTF-8" standalone="no"?>
<!-- Generator: Adobe Illustrator 15.0.0, SVG Export Plug-In . SVG Version: 6.00 Build 0)  -->

<svg
   xmlns:i="http://ns.adobe.com/AdobeIllustrator/10.0/"
   xmlns:dc="http://purl.org/dc/elements/1.1/"
   xmlns:cc="http://creativecommons.org/ns#"
   xmlns:rdf="http://www.w3.org/1999/02/22-rdf-syntax-ns#"
   xmlns:svg="http://www.w3.org/2000/svg"
   xmlns="http://www.w3.org/2000/svg"
   xmlns:sodipodi="http://sodipodi.sourceforge.net/DTD/sodipodi-0.dtd"
   xmlns:inkscape="http://www.inkscape.org/namespaces/inkscape"
   version="1.1"
   x="0px"
   y="0px"
   width="580px"
   height="580px"
   viewBox="0 0 580 580"
   enable-background="new 0 0 580 580"
   xml:space="preserve"
   id="svg3813"
   sodipodi:docname="surveyor.svg"
   inkscape:version="0.92.3 (2405546, 2018-03-11)"><metadata
   id="metadata3819"><rdf:RDF><cc:Work
       rdf:about=""><dc:format>image/svg+xml</dc:format><dc:type
         rdf:resource="http://purl.org/dc/dcmitype/StillImage" /><dc:title></dc:title></cc:Work></rdf:RDF></metadata><defs
   id="defs3817">
	
	
</defs><sodipodi:namedview
   pagecolor="#ffffff"
   bordercolor="#666666"
   borderopacity="1"
   objecttolerance="10"
   gridtolerance="10"
   guidetolerance="10"
   inkscape:pageopacity="0"
   inkscape:pageshadow="2"
   inkscape:window-width="1124"
   inkscape:window-height="732"
   id="namedview3815"
   showgrid="false"
   inkscape:zoom="0.9"
   inkscape:cx="290"
   inkscape:cy="290"
   inkscape:window-x="596"
   inkscape:window-y="-5"
   inkscape:window-maximized="0"
   inkscape:current-layer="svg3813" />
<g
   id="Layer_2">
	<g
   id="g1327">
		<path
   id="path1329"
   fill="#111111"
   stroke="#EEEEEE"
   stroke-width="3.408"
   d="M66.275,1.768    c-41.335,0-64.571,21.371-64.571,65.036v450.123c0,40.844,20.894,62.229,62.192,62.229H515.92    c41.307,0,62.229-20.316,62.229-62.229V66.804c0-42.601-20.923-65.036-63.522-65.036C514.624,1.768,66.133,1.625,66.275,1.768z" />
	</g>
</g>
<g
   id="g3808">
		<path
   style="fill:#ffffff"
   inkscape:connector-curvature="0"
   id="path3804"
   d="m 309.094,427.584 h -66.456 c 1.362,-3.477 2.116,-7.256 2.116,-11.215 v -32.546 l -2.429,-29.659 c -4.677,-11.028 -15.604,-18.766 -28.338,-18.766 h -64.775 c -12.734,0 -23.661,7.737 -28.338,18.767 l -2.429,29.657 v 32.547 c 0,3.959 0.754,7.738 2.116,11.215 H 54.106 v 22.498 9 77.996 h 10.5 v -77.996 h 233.988 v 77.996 h 10.498 v -77.996 h 0.002 z m -88.63,-50.891 v 50.891 h -7.287 v -50.891 z m -77.729,0 h 7.288 v 50.891 h -7.288 z" />
		<circle
   style="fill:#ffffff"
   id="circle3806"
   r="37.650002"
   cy="284.664"
   cx="181.60001" />
	</g>
<g
   transform="matrix(0.70228783,0,0,0.70228783,200.84802,1.6315778)"
   id="g3897"><path
     inkscape:connector-curvature="0"
     style="clip-rule:evenodd;fill:#ffffff;fill-opacity:1;fill-rule:evenodd"
     id="path117"
     i:knockout="Off"
     d="m 293.41477,110.48793 c 25.9886,0 47.07745,22.02402 47.07745,49.16329 0,27.13926 -21.09049,49.16328 -47.07745,49.16328 -25.98696,0 -47.07914,-22.02402 -47.07914,-49.16328 0,-27.13927 21.0905,-49.16329 47.07914,-49.16329" /><path
     inkscape:connector-curvature="0"
     id="path4758"
     d="M 222.50836,105.59421 H 368.48164"
     style="fill:none;fill-rule:evenodd;stroke:#ffffff;stroke-width:45.08664703;stroke-linecap:round;stroke-linejoin:miter;stroke-miterlimit:4;stroke-dasharray:none;stroke-opacity:1" /><path
     inkscape:connector-curvature="0"
     id="path5269"
     d="M 143.14404,440.28564 263.09481,187.45446"
     style="fill:none;fill-rule:evenodd;stroke:#ffffff;stroke-width:35.82465744;stroke-linecap:round;stroke-linejoin:miter;stroke-miterlimit:4;stroke-dasharray:none;stroke-opacity:1" /><path
     inkscape:connector-curvature="0"
     id="path5271"
     d="M 442.99353,434.28901 323.04276,181.45783"
     style="fill:none;fill-rule:evenodd;stroke:#ffffff;stroke-width:35.82465744;stroke-linecap:round;stroke-linejoin:miter;stroke-miterlimit:4;stroke-dasharray:none;stroke-opacity:1" /><path
     inkscape:connector-curvature="0"
     id="path5273"
     d="M 292.60524,513.80679 293.5323,201.19958"
     style="fill:none;fill-rule:evenodd;stroke:#ffffff;stroke-width:35.9272995;stroke-linecap:round;stroke-linejoin:miter;stroke-miterlimit:4;stroke-dasharray:none;stroke-opacity:1" /></g></svg>