<?xml version="1.0" encoding="utf-8"?>
<!-- Generator: Adobe Illustrator 15.0.0, SVG Export Plug-In . SVG Version: 6.00 Build 0)  -->
<!DOCTYPE svg PUBLIC "-//W3C//DTD SVG 1.1//EN" "http://www.w3.org/Graphics/SVG/1.1/DTD/svg11.dtd">
<svg version="1.1" xmlns="http://www.w3.org/2000/svg" xmlns:xlink="http://www.w3.org/1999/xlink" x="0px" y="0px" width="580px"
	 height="580px" viewBox="0 0 580 580" enable-background="new 0 0 580 580" xml:space="preserve">
<g id="Layer_2">
	<g id="g1327">
		<path id="path1329" fill="#111111" stroke="#EEEEEE" stroke-width="3.408" d="M66.275,1.768
			c-41.335,0-64.571,21.371-64.571,65.036v450.123c0,40.844,20.894,62.229,62.192,62.229H515.92
			c41.307,0,62.229-20.316,62.229-62.229V66.804c0-42.601-20.923-65.036-63.522-65.036C514.624,1.768,66.133,1.625,66.275,1.768z"/>
	</g>
</g>
<g id="svg2" inkscape:output_extension="org.inkscape.output.svg.inkscape" xmlns:cc="http://creativecommons.org/ns#" xmlns:svg="http://www.w3.org/2000/svg" xmlns:sodipodi="http://sodipodi.sourceforge.net/DTD/sodipodi-0.dtd" xmlns:rdf="http://www.w3.org/1999/02/22-rdf-syntax-ns#" xmlns:dc="http://purl.org/dc/elements/1.1/" xmlns:inkscape="http://www.inkscape.org/namespaces/inkscape" sodipodi:docname="waste_bin.svg" inkscape:version="0.46" sodipodi:version="0.32">
	<g>
		<path fill="#FFFFFF" d="M309.094,427.584h-66.456c1.362-3.477,2.116-7.256,2.116-11.215v-32.546l-2.429-29.659
			c-4.677-11.028-15.604-18.766-28.338-18.766h-64.775c-12.734,0-23.661,7.737-28.338,18.767l-2.429,29.657v32.547
			c0,3.959,0.754,7.738,2.116,11.215H54.106v22.498v9v77.996h10.5v-77.996h233.988v77.996h10.498v-77.996h0.002V427.584z
			 M220.464,376.693v50.891h-7.287v-50.891H220.464z M142.735,376.693h7.288v50.891h-7.288V376.693z"/>
		<circle fill="#FFFFFF" cx="181.6" cy="284.664" r="37.65"/>
	</g>
	<polygon fill="#FFFFFF" points="356,34 356,56.5 509.5,56.5 515.5,56.5 515.5,62.5 515.5,306.898 538,306.898 538,34 	"/>
	<g>
		<path fill="#FFFFFF" d="M381.654,153.945c0,7.588,2.636,13.649,7.833,18.015c4.169,3.5,9.644,6.398,16.322,8.65v-52.975
			c-6.94,1.743-12.489,4.656-16.533,8.701C384.218,141.394,381.654,147.318,381.654,153.945z"/>
		<path fill="#FFFFFF" d="M430.983,209.155v57.367c6.648-1.724,13.481-4.555,17.837-8.65c5.946-5.591,8.962-12.75,8.963-21.279
			c-0.001-7.469-2.269-13.55-6.74-18.072C447.99,215.435,441.394,212.351,430.983,209.155z"/>
		<path fill="#FFFFFF" d="M356,62.5h-28.5v272.898h182v-28.5V62.5H356z M469.171,270.926c-8.422,8.141-22.063,13.69-38.188,15.693
			v11.106c0,6.951-5.636,12.586-12.586,12.586c-6.952,0-12.588-5.635-12.588-12.586v-10.816
			c-16.017-2.217-28.682-7.195-37.678-14.849c-10.041-8.541-15.784-20.641-17.069-35.964c-0.041-0.492,0.306-0.931,0.794-1.005
			l24.503-3.689c0.505-0.073,0.977,0.268,1.063,0.771c1.865,11.134,5.676,19.812,11.328,25.794
			c4.456,4.717,10.181,7.847,17.06,9.353v-64.437c-15.868-3.482-28.124-8.874-36.457-16.07c-9.339-8.064-14.074-18.58-14.074-31.255
			c0-12.576,4.676-23.524,13.896-32.542c8.275-8.094,20.593-13.16,36.636-15.11v-7.734c0-6.951,5.636-12.586,12.588-12.586
			c6.95,0,12.586,5.635,12.586,12.586v8.162c13.601,2.058,24.998,6.179,31.989,11.676c9.037,7.107,14.786,17.188,17.085,29.964
			c0.047,0.254-0.015,0.514-0.166,0.722c-0.153,0.207-0.385,0.342-0.641,0.374l-25.455,3.112c-0.491,0.058-0.944-0.272-1.033-0.758
			c-1.411-7.61-4.392-13.706-8.858-18.122c-2.862-2.827-7.795-5.03-12.921-6.578v57.692c17.805,3.546,31.708,9.126,39.513,15.928
			c9.517,8.293,14.342,19.312,14.342,32.75C484.838,248.82,479.567,260.875,469.171,270.926z"/>
	</g>
</g>
</svg>
