<?xml version="1.0" encoding="utf-8"?>
<!-- Generator: Adobe Illustrator 15.0.0, SVG Export Plug-In . SVG Version: 6.00 Build 0)  -->
<!DOCTYPE svg PUBLIC "-//W3C//DTD SVG 1.1//EN" "http://www.w3.org/Graphics/SVG/1.1/DTD/svg11.dtd">
<svg version="1.1" xmlns="http://www.w3.org/2000/svg" xmlns:xlink="http://www.w3.org/1999/xlink" x="0px" y="0px" width="580px"
	 height="580px" viewBox="0 0 580 580" enable-background="new 0 0 580 580" xml:space="preserve">
<g id="Layer_2">
	<g id="g1327">
		<path id="path1329" fill="#111111" stroke="#EEEEEE" stroke-width="3.408" d="M66.275,1.768
			c-41.335,0-64.571,21.371-64.571,65.036v450.123c0,40.844,20.894,62.229,62.192,62.229H515.92
			c41.307,0,62.229-20.316,62.229-62.229V66.804c0-42.601-20.923-65.036-63.522-65.036C514.624,1.768,66.133,1.625,66.275,1.768z"/>
	</g>
</g>
<g id="svg2" inkscape:version="0.46" sodipodi:docname="waste_bin.svg" sodipodi:version="0.32" xmlns:inkscape="http://www.inkscape.org/namespaces/inkscape" xmlns:rdf="http://www.w3.org/1999/02/22-rdf-syntax-ns#" xmlns:dc="http://purl.org/dc/elements/1.1/" xmlns:cc="http://creativecommons.org/ns#" xmlns:svg="http://www.w3.org/2000/svg" xmlns:sodipodi="http://sodipodi.sourceforge.net/DTD/sodipodi-0.dtd" inkscape:output_extension="org.inkscape.output.svg.inkscape">
	<g>
		<path fill="#FFFFFF" d="M309.094,427.584h-66.456c1.362-3.477,2.116-7.256,2.116-11.215v-32.546l-2.429-29.659
			c-4.677-11.028-15.604-18.766-28.338-18.766h-64.775c-12.734,0-23.661,7.737-28.338,18.767l-2.429,29.657v32.547
			c0,3.959,0.754,7.738,2.116,11.215H54.106v22.498v9v77.996h10.5v-77.996h233.988v77.996h10.498v-77.996h0.002V427.584z
			 M220.464,376.693v50.891h-7.287v-50.891H220.464z M142.735,376.693h7.288v50.891h-7.288V376.693z"/>
		<circle fill="#FFFFFF" cx="181.6" cy="284.664" r="37.65"/>
	</g>
	<g>
		<g>
			<path fill="#FFFFFF" d="M473.628,85.553c-44.16-39.392-102.892-57.247-165.374-50.276c-5.072,0.567-8.722,5.135-8.156,10.205
				c0.565,5.071,5.136,8.722,10.205,8.157c57.199-6.382,110.832,9.85,151.027,45.702c39.448,35.19,61.265,85.285,61.43,141.057
				c0.05,17.08-1.992,34.396-6.072,51.467c-1.185,4.961,1.877,9.945,6.839,11.131c3.242,0.775,6.49-0.263,8.687-2.458
				c1.165-1.166,2.035-2.658,2.446-4.38c4.417-18.492,6.629-37.271,6.576-55.813C541.056,179.254,517.046,124.283,473.628,85.553z"
				/>
			<path fill="#FFFFFF" d="M411.183,143.614c-30.603-24.239-70.048-33.745-111.073-26.767c-5.025,0.855-8.413,5.625-7.557,10.656
				c0.855,5.03,5.627,8.412,10.657,7.558c35.789-6.088,70.062,2.092,96.501,23.036c25.438,20.148,40.618,49.942,42.742,83.896
				c0.982,15.687-0.887,31.588-5.553,47.264c-1.456,4.889,1.328,10.033,6.219,11.488c3.365,1.002,6.854-0.005,9.175-2.326
				c1.049-1.05,1.861-2.368,2.313-3.891c5.289-17.763,7.404-35.828,6.285-53.689C458.436,201.588,440.781,167.059,411.183,143.614z"
				/>
			<path fill="#FFFFFF" d="M370.036,281.809c3.432,1.143,7.06,0.158,9.454-2.237c0.982-0.982,1.758-2.204,2.228-3.612
				c3.064-9.223,4.506-18.557,4.286-27.737c-0.487-20.283-8.938-37.951-23.793-49.749c-15.647-12.425-36.223-16.788-57.938-12.286
				c-4.999,1.037-8.205,5.926-7.171,10.922c1.036,4.994,5.926,8.206,10.921,7.169c16.255-3.37,31.419-0.294,42.697,8.663
				c10.488,8.33,16.458,21.016,16.811,35.725c0.172,7.048-0.955,14.269-3.346,21.463
				C362.574,274.97,365.194,280.201,370.036,281.809z"/>
		</g>
		<circle fill="#FFFFFF" cx="313.633" cy="266.822" r="16.725"/>
	</g>
</g>
</svg>
