<?xml version="1.0" encoding="utf-8"?>
<!-- Generator: Adobe Illustrator 15.0.0, SVG Export Plug-In . SVG Version: 6.00 Build 0)  -->
<!DOCTYPE svg PUBLIC "-//W3C//DTD SVG 1.1//EN" "http://www.w3.org/Graphics/SVG/1.1/DTD/svg11.dtd">
<svg version="1.1" xmlns="http://www.w3.org/2000/svg" xmlns:xlink="http://www.w3.org/1999/xlink" x="0px" y="0px" width="580px"
	 height="580px" viewBox="0 0 580 580" enable-background="new 0 0 580 580" xml:space="preserve">
<g id="Layer_2">
	<g id="g1327">
		<path id="path1329" fill="#111111" stroke="#EEEEEE" stroke-width="3.408" d="M66.275,1.768
			c-41.335,0-64.571,21.371-64.571,65.036v450.123c0,40.844,20.894,62.229,62.192,62.229H515.92
			c41.307,0,62.229-20.316,62.229-62.229V66.804c0-42.601-20.923-65.036-63.522-65.036C514.624,1.768,66.133,1.625,66.275,1.768z"/>
	</g>
</g>
<g id="svg2" inkscape:version="0.46" sodipodi:docname="waste_bin.svg" sodipodi:version="0.32" inkscape:output_extension="org.inkscape.output.svg.inkscape" xmlns:sodipodi="http://sodipodi.sourceforge.net/DTD/sodipodi-0.dtd" xmlns:inkscape="http://www.inkscape.org/namespaces/inkscape" xmlns:cc="http://creativecommons.org/ns#" xmlns:rdf="http://www.w3.org/1999/02/22-rdf-syntax-ns#" xmlns:svg="http://www.w3.org/2000/svg" xmlns:dc="http://purl.org/dc/elements/1.1/">
	<g>
		<g>
			<path fill="#FFFFFF" d="M309.094,427.584h-66.456c1.362-3.477,2.116-7.256,2.116-11.215v-32.546l-2.429-29.659
				c-4.677-11.028-15.604-18.766-28.338-18.766h-64.775c-12.734,0-23.661,7.737-28.338,18.767l-2.429,29.657v32.547
				c0,3.959,0.754,7.738,2.116,11.215H54.106v22.498v9v77.996h10.5v-77.996h233.988v77.996h10.498v-77.996h0.002V427.584z
				 M220.464,376.693v50.891h-7.287v-50.891H220.464z M142.735,376.693h7.288v50.891h-7.288V376.693z"/>
		</g>
		<g>
			<circle fill="#FFFFFF" cx="181.6" cy="284.664" r="37.65"/>
		</g>
	</g>
	<path fill="#FFFFFF" d="M235.16,166.045h223.653c0,0,16.987,0,26.896,11.325c9.91,11.324,31.142,29.018,31.142,29.018
		l16.987-20.171c0,0,4.069-3.539,8.848-3.185c4.776,0.353,13.093,6.015,10.263,14.863l-35.389,34.68l-46.005-33.265L235.16,199.35
		V166.045z"/>
	<rect x="235.16" y="206.427" fill="#999999" width="233.563" height="14.864"/>
	<path fill="#FFFFFF" d="M533.838,164.337c0,12.082-9.716,21.88-21.704,21.88c-11.987,0-21.702-9.798-21.702-21.88
		c0-12.087,9.715-21.88,21.702-21.88C524.122,142.457,533.838,152.25,533.838,164.337z"/>
	<path fill="#FFFFFF" d="M438.383,55.147c0,12.081-9.716,21.874-21.702,21.874c-11.989,0-21.703-9.793-21.703-21.874
		c0-12.088,9.714-21.886,21.703-21.886C428.667,33.261,438.383,43.06,438.383,55.147z"/>
	<path fill="#FFFFFF" d="M296.083,158.259h70.07l29.019-29.726l33.265,29.726h33.973c0,0,7.785,0.947,0-15.802
		c-7.784-16.754-58.744-61.343-58.744-61.343s-12.741-9.202-27.604,0C361.198,90.314,296.083,158.259,296.083,158.259z"/>
</g>
</svg>
