<?xml version="1.0" encoding="UTF-8" standalone="no"?>
<!-- Generator: Adobe Illustrator 15.0.0, SVG Export Plug-In . SVG Version: 6.00 Build 0)  -->

<svg
   xmlns:dc="http://purl.org/dc/elements/1.1/"
   xmlns:cc="http://creativecommons.org/ns#"
   xmlns:rdf="http://www.w3.org/1999/02/22-rdf-syntax-ns#"
   xmlns:svg="http://www.w3.org/2000/svg"
   xmlns="http://www.w3.org/2000/svg"
   xmlns:sodipodi="http://sodipodi.sourceforge.net/DTD/sodipodi-0.dtd"
   xmlns:inkscape="http://www.inkscape.org/namespaces/inkscape"
   version="1.1"
   x="0px"
   y="0px"
   width="580px"
   height="580px"
   viewBox="0 0 580 580"
   enable-background="new 0 0 580 580"
   xml:space="preserve"
   id="svg92"
   sodipodi:docname="translator.svg"
   inkscape:version="0.92.3 (2405546, 2018-03-11)"><metadata
   id="metadata98"><rdf:RDF><cc:Work
       rdf:about=""><dc:format>image/svg+xml</dc:format><dc:type
         rdf:resource="http://purl.org/dc/dcmitype/StillImage" /><dc:title></dc:title></cc:Work></rdf:RDF></metadata><defs
   id="defs96"><marker
   inkscape:stockid="TriangleInL"
   orient="auto"
   refY="0.0"
   refX="0.0"
   id="TriangleInL"
   style="overflow:visible"
   inkscape:isstock="true"><path
     id="path1082"
     d="M 5.77,0.0 L -2.88,5.0 L -2.88,-5.0 L 5.77,0.0 z "
     style="fill-rule:evenodd;stroke:#ffffff;stroke-width:1pt;stroke-opacity:1;fill:#ffffff;fill-opacity:1"
     transform="scale(-0.8)" /></marker><marker
   inkscape:stockid="TriangleOutM"
   orient="auto"
   refY="0.0"
   refX="0.0"
   id="TriangleOutM"
   style="overflow:visible"
   inkscape:isstock="true"><path
     id="path1094"
     d="M 5.77,0.0 L -2.88,5.0 L -2.88,-5.0 L 5.77,0.0 z "
     style="fill-rule:evenodd;stroke:none;stroke-width:1pt;stroke-opacity:1;fill:#ffffff;fill-opacity:1"
     transform="scale(0.4)" /></marker><marker
   inkscape:stockid="TriangleOutL"
   orient="auto"
   refY="0.0"
   refX="0.0"
   id="marker1233"
   style="overflow:visible"
   inkscape:isstock="true"><path
     id="path1231"
     d="M 5.77,0.0 L -2.88,5.0 L -2.88,-5.0 L 5.77,0.0 z "
     style="fill-rule:evenodd;stroke:none;stroke-width:1pt;stroke-opacity:1;fill:#ffffff;fill-opacity:1"
     transform="scale(0.8)" /></marker><marker
   inkscape:stockid="TriangleOutL"
   orient="auto"
   refY="0.0"
   refX="0.0"
   id="TriangleOutL"
   style="overflow:visible"
   inkscape:isstock="true"><path
     id="path1091"
     d="M 5.77,0.0 L -2.88,5.0 L -2.88,-5.0 L 5.77,0.0 z "
     style="fill-rule:evenodd;stroke:none;stroke-width:1pt;stroke-opacity:1;fill:#ffffff;fill-opacity:1"
     transform="scale(0.8)" /></marker>
	
	
	
</defs><sodipodi:namedview
   pagecolor="#ffffff"
   bordercolor="#666666"
   borderopacity="1"
   objecttolerance="10"
   gridtolerance="10"
   guidetolerance="10"
   inkscape:pageopacity="0"
   inkscape:pageshadow="2"
   inkscape:window-width="1307"
   inkscape:window-height="915"
   id="namedview94"
   showgrid="false"
   inkscape:zoom="1.1575153"
   inkscape:cx="290"
   inkscape:cy="290"
   inkscape:window-x="531"
   inkscape:window-y="119"
   inkscape:window-maximized="0"
   inkscape:current-layer="svg92" />
<g
   id="Layer_2">
	<g
   id="g1327">
		<path
   id="path1329"
   d="M 66.275,1.768 C 24.94,1.768 1.704,23.139 1.704,66.804 v 450.123 c 0,40.844 20.894,62.229 62.192,62.229 H 515.92 c 41.307,0 62.229,-20.316 62.229,-62.229 V 66.804 c 0,-42.601 -20.923,-65.036 -63.522,-65.036 -0.003,0 -448.494,-0.143 -448.352,0 z"
   inkscape:connector-curvature="0"
   style="fill:#111111;stroke:#eeeeee;stroke-width:3.40799999" />
	</g>
</g>
<g
   id="g81">
		<path
   style="fill:#ffffff"
   inkscape:connector-curvature="0"
   id="path77"
   d="m 309.094,427.584 h -66.456 c 1.362,-3.477 2.116,-7.256 2.116,-11.215 v -32.546 l -2.429,-29.659 c -4.677,-11.028 -15.604,-18.766 -28.338,-18.766 h -64.775 c -12.734,0 -23.661,7.737 -28.338,18.767 l -2.429,29.657 v 32.547 c 0,3.959 0.754,7.738 2.116,11.215 H 54.106 v 22.498 9 77.996 h 10.5 v -77.996 h 233.988 v 77.996 h 10.498 v -77.996 h 0.002 z m -88.63,-50.891 v 50.891 h -7.287 v -50.891 z m -77.729,0 h 7.288 v 50.891 h -7.288 z" />
		<circle
   style="fill:#ffffff"
   id="circle79"
   r="37.650002"
   cy="284.664"
   cx="181.60001" />
	</g>
<g
   transform="matrix(0.62905531,0,0,0.62905531,-106.29083,-104.63409)"
   id="g109"><polygon
     id="polygon37"
     points="522.007,242.993 522.007,249.391 522.007,510.007 546,510.007 546,219 351.923,219 351.923,242.993 515.608,242.993 "
     style="fill:#ffffff" /><path
     id="path39"
     d="M 351.923,249.391 H 321.532 V 540.398 H 515.608 V 510.006 249.391 Z M 486.817,488.963 H 351.923 v -5.331 h 134.895 v 5.331 z m 0,-26.531 H 351.923 V 457.1 h 134.895 v 5.332 z m 0,-26.533 H 351.923 v -5.332 h 134.895 v 5.332 z m 0,-26.53 H 351.923 v -5.332 h 134.895 v 5.332 z m 0,-26.532 H 351.923 v -5.332 h 134.895 v 5.332 z m 0,-26.531 H 351.923 v -5.331 h 134.895 v 5.331 z m 0,-26.532 H 351.923 v -5.332 h 134.895 v 5.332 z m 0,-26.532 H 351.923 v -5.332 h 134.895 v 5.332 z"
     inkscape:connector-curvature="0"
     style="fill:#ffffff" /></g><g
   id="g136"
   transform="matrix(0.62905531,0,0,0.62905531,205.58409,-102.90626)"><polygon
     style="fill:#ffffff"
     points="351.923,219 351.923,242.993 515.608,242.993 522.007,242.993 522.007,249.391 522.007,510.007 546,510.007 546,219 "
     id="polygon132" /><path
     style="fill:#ffffff"
     inkscape:connector-curvature="0"
     d="M 351.923,249.391 H 321.532 V 540.398 H 515.608 V 510.006 249.391 Z M 486.817,488.963 H 351.923 v -5.331 h 134.895 v 5.331 z m 0,-26.531 H 351.923 V 457.1 h 134.895 v 5.332 z m 0,-26.533 H 351.923 v -5.332 h 134.895 v 5.332 z m 0,-26.53 H 351.923 v -5.332 h 134.895 v 5.332 z m 0,-26.532 H 351.923 v -5.332 h 134.895 v 5.332 z m 0,-26.531 H 351.923 v -5.331 h 134.895 v 5.331 z m 0,-26.532 H 351.923 v -5.332 h 134.895 v 5.332 z m 0,-26.532 H 351.923 v -5.332 h 134.895 v 5.332 z"
     id="path134" /></g><circle
   id="path138"
   style="fill:#000000;stroke:none"
   cx="359.3905"
   cy="136.80933"
   r="1.5" /><circle
   id="path140"
   style="fill:#000000;stroke:none"
   cx="385.30807"
   cy="136.80933"
   r="1.5" /><path
   style="fill:#ffffff;fill-opacity:1;fill-rule:evenodd;stroke:#ffffff;stroke-width:9.8876009;stroke-linecap:butt;stroke-linejoin:miter;stroke-miterlimit:4;stroke-dasharray:none;stroke-opacity:1;marker-start:url(#TriangleInL)"
   d="M 327.11661,132.48974 H 260.79354"
   id="path1357"
   inkscape:connector-curvature="0" /></svg>