<?xml version="1.0" encoding="UTF-8" standalone="no"?>
<!-- Generator: Adobe Illustrator 15.0.0, SVG Export Plug-In . SVG Version: 6.00 Build 0)  -->

<svg
   xmlns:dc="http://purl.org/dc/elements/1.1/"
   xmlns:cc="http://creativecommons.org/ns#"
   xmlns:rdf="http://www.w3.org/1999/02/22-rdf-syntax-ns#"
   xmlns:svg="http://www.w3.org/2000/svg"
   xmlns="http://www.w3.org/2000/svg"
   xmlns:sodipodi="http://sodipodi.sourceforge.net/DTD/sodipodi-0.dtd"
   xmlns:inkscape="http://www.inkscape.org/namespaces/inkscape"
   version="1.1"
   x="0px"
   y="0px"
   width="580px"
   height="580px"
   viewBox="0 0 580 580"
   enable-background="new 0 0 580 580"
   xml:space="preserve"
   id="svg891"
   sodipodi:docname="union.svg"
   inkscape:version="0.92.3 (2405546, 2018-03-11)"><metadata
   id="metadata897"><rdf:RDF><cc:Work
       rdf:about=""><dc:format>image/svg+xml</dc:format><dc:type
         rdf:resource="http://purl.org/dc/dcmitype/StillImage" /><dc:title /></cc:Work></rdf:RDF></metadata><defs
   id="defs895">
	
	
	
	
	
</defs><sodipodi:namedview
   pagecolor="#ffffff"
   bordercolor="#666666"
   borderopacity="1"
   objecttolerance="10"
   gridtolerance="10"
   guidetolerance="10"
   inkscape:pageopacity="0"
   inkscape:pageshadow="2"
   inkscape:window-width="1920"
   inkscape:window-height="1147"
   id="namedview893"
   showgrid="false"
   inkscape:zoom="1.18"
   inkscape:cx="290"
   inkscape:cy="290"
   inkscape:window-x="-8"
   inkscape:window-y="-8"
   inkscape:window-maximized="1"
   inkscape:current-layer="svg891" />
<g
   id="Layer_2">
	<g
   id="g1327">
		<path
   id="path1329"
   fill="#111111"
   stroke="#EEEEEE"
   stroke-width="3.408"
   d="M66.275,1.768    c-41.335,0-64.571,21.371-64.571,65.036v450.123c0,40.844,20.894,62.229,62.192,62.229H515.92    c41.307,0,62.229-20.316,62.229-62.229V66.804c0-42.601-20.923-65.036-63.522-65.036C514.624,1.768,66.133,1.625,66.275,1.768z" />
	</g>
</g>
<g
   id="g864">
		<path
   style="fill:#ffffff"
   inkscape:connector-curvature="0"
   id="path860"
   d="m 309.094,427.584 h -66.456 c 1.362,-3.477 2.116,-7.256 2.116,-11.215 v -32.546 l -2.429,-29.659 c -4.677,-11.028 -15.604,-18.766 -28.338,-18.766 h -64.775 c -12.734,0 -23.661,7.737 -28.338,18.767 l -2.429,29.657 v 32.547 c 0,3.959 0.754,7.738 2.116,11.215 H 54.106 v 22.498 9 77.996 h 10.5 v -77.996 h 233.988 v 77.996 h 10.498 v -77.996 h 0.002 z m -88.63,-50.891 v 50.891 h -7.287 v -50.891 z m -77.729,0 h 7.288 v 50.891 h -7.288 z" />
		<circle
   style="fill:#ffffff"
   id="circle862"
   r="37.650002"
   cy="284.664"
   cx="181.60001" />
	</g>
<g
   transform="matrix(0.53134689,0,0,0.53134689,233.19745,18.386122)"
   id="Layer_4"><g
     id="g5244"><path
       style="fill:#ffffff"
       inkscape:connector-curvature="0"
       d="M 539.122,265.404 507.7,233.982 c -7.795,-7.795 -20.432,-7.795 -28.227,0 l -5.088,5.088 -26.457,-25.025 c 18.224,-22.78 0,-37.358 0,-37.358 0,0 -27.335,-28.246 -73.804,-71.071 -46.47,-42.824 -197.723,-35.535 -197.723,-35.535 61.958,7.29 122.096,67.426 143.964,97.495 21.867,30.067 0,46.47 0,46.47 l 0.538,0.413 c -6.745,5.729 -13.988,12.993 -22.004,21.008 l -51.051,51.052 64.659,64.66 51.053,-51.054 c 12.725,-13.875 39.04,-42.474 39.04,-42.474 l 26.521,26.683 -5.568,5.569 c -7.796,7.795 -7.796,20.432 0,28.227 l 31.42,31.422 c 7.795,7.795 20.434,7.795 28.228,0 l 55.92,-55.92 c 7.796,-7.794 7.796,-20.433 10e-4,-28.228 z"
       id="path5238" /><path
       style="fill:#ffffff"
       inkscape:connector-curvature="0"
       d="M 121.576,412.791 C 96.858,437.508 83.67,464.395 92.121,472.846 l 34.06,34.061 c 8.45,8.45 35.339,-4.738 60.053,-29.453 l 77.115,-77.115 -64.659,-64.66 z"
       id="path5240" /><path
       style="fill:#ffffff"
       inkscape:connector-curvature="0"
       d="m 305.137,358.549 -64.66,-64.658 -48.354,-48.354 c 16.825,-31.554 11.942,-71.641 -14.655,-98.238 -16.292,-16.291 -37.646,-24.438 -58.999,-24.438 -10.064,0 -20.126,1.81 -29.663,5.428 l 56.517,56.516 -48.348,48.347 -56.515,-56.515 c -11.296,29.763 -4.961,64.688 19.009,88.659 16.291,16.29 37.643,24.436 58.994,24.436 13.509,0 27.017,-3.26 39.244,-9.78 l 48.354,48.355 64.66,64.66 113.426,113.425 c 2.665,2.665 6.158,3.997 9.651,3.997 3.493,0 6.985,-1.332 9.651,-3.997 l 15.114,-15.113 c 5.329,-5.329 5.329,-13.973 -10e-4,-19.303 z M 405.271,493.1 c -2.603,2.601 -6.013,3.902 -9.424,3.902 -3.411,0 -6.821,-1.302 -9.424,-3.902 -5.204,-5.205 -5.204,-13.644 0,-18.848 2.603,-2.602 6.013,-3.903 9.424,-3.903 3.411,0 6.821,1.302 9.424,3.903 5.205,5.204 5.205,13.643 0,18.848 z"
       id="path5242" /></g></g></svg>