<?xml version="1.0" encoding="utf-8"?>
<!-- Generator: Adobe Illustrator 15.0.0, SVG Export Plug-In . SVG Version: 6.00 Build 0)  -->
<!DOCTYPE svg PUBLIC "-//W3C//DTD SVG 1.1//EN" "http://www.w3.org/Graphics/SVG/1.1/DTD/svg11.dtd">
<svg version="1.1" xmlns="http://www.w3.org/2000/svg" xmlns:xlink="http://www.w3.org/1999/xlink" x="0px" y="0px" width="580px"
	 height="580px" viewBox="0 0 580 580" enable-background="new 0 0 580 580" xml:space="preserve">
<g id="Layer_2">
	<g id="g1327">
		<path id="path1329" fill="#111111" stroke="#EEEEEE" stroke-width="3.408" d="M66.275,1.768
			c-41.335,0-64.571,21.371-64.571,65.036v450.123c0,40.844,20.894,62.229,62.192,62.229H515.92
			c41.307,0,62.229-20.316,62.229-62.229V66.804c0-42.601-20.923-65.036-63.522-65.036C514.624,1.768,66.133,1.625,66.275,1.768z"/>
	</g>
</g>
<g id="svg2" inkscape:version="0.46" sodipodi:docname="waste_bin.svg" sodipodi:version="0.32" inkscape:output_extension="org.inkscape.output.svg.inkscape" xmlns:sodipodi="http://sodipodi.sourceforge.net/DTD/sodipodi-0.dtd" xmlns:inkscape="http://www.inkscape.org/namespaces/inkscape" xmlns:cc="http://creativecommons.org/ns#" xmlns:rdf="http://www.w3.org/1999/02/22-rdf-syntax-ns#" xmlns:svg="http://www.w3.org/2000/svg" xmlns:dc="http://purl.org/dc/elements/1.1/">
	<g>
		<g>
			<path fill="#FFFFFF" d="M309.094,427.584h-66.456c1.362-3.477,2.116-7.256,2.116-11.215v-32.546l-2.429-29.659
				c-4.677-11.028-15.604-18.766-28.338-18.766h-64.775c-12.734,0-23.661,7.737-28.338,18.767l-2.429,29.657v32.547
				c0,3.959,0.754,7.738,2.116,11.215H54.106v22.498v9v77.996h10.5v-77.996h233.988v77.996h10.498v-77.996h0.002V427.584z
				 M220.464,376.693v50.891h-7.287v-50.891H220.464z M142.735,376.693h7.288v50.891h-7.288V376.693z"/>
		</g>
		<g>
			<circle fill="#FFFFFF" cx="181.6" cy="284.664" r="37.65"/>
		</g>
	</g>
	<g>
		<g>
			<polygon fill="#FFFFFF" points="549.751,106.619 408.376,41.958 272.397,106.564 264.702,90.367 408.232,22.174 557.21,90.312 
							"/>
		</g>
		<g>
			<g>
				<rect x="277.316" y="109.246" fill="#FFFFFF" width="8.405" height="181.184"/>
			</g>
			<g>
				<rect x="536.19" y="109.246" fill="#FFFFFF" width="8.406" height="181.184"/>
			</g>
		</g>
	</g>
	<path fill="#FFFFFF" d="M427.05,186.8l60.261-60.26c4.444-4.444,4.444-11.649,0-16.094c-4.444-4.445-11.649-4.445-16.094,0
		l-60.261,60.26l-60.26-60.26c-4.445-4.445-11.65-4.445-16.094,0c-4.444,4.444-4.444,11.649,0,16.094l60.26,60.26l-60.261,60.26
		c-4.444,4.444-4.444,11.649,0,16.094c2.223,2.223,5.134,3.333,8.047,3.333c2.912,0,5.825-1.111,8.047-3.333l60.261-60.26
		l60.26,60.261c2.223,2.223,5.134,3.333,8.047,3.333c2.912,0,5.825-1.111,8.047-3.333c4.444-4.444,4.444-11.649,0-16.094
		L427.05,186.8z"/>
</g>
</svg>
