<?xml version="1.0" encoding="UTF-8" standalone="no"?>
<!-- Generator: Adobe Illustrator 15.0.0, SVG Export Plug-In . SVG Version: 6.00 Build 0)  -->

<svg
   version="1.1"
   x="0px"
   y="0px"
   width="580px"
   height="580px"
   viewBox="0 0 580 580"
   enable-background="new 0 0 580 580"
   xml:space="preserve"
   id="svg3813"
   sodipodi:docname="water_utility.svg"
   inkscape:version="1.2.2 (b0a8486541, 2022-12-01)"
   xmlns:inkscape="http://www.inkscape.org/namespaces/inkscape"
   xmlns:sodipodi="http://sodipodi.sourceforge.net/DTD/sodipodi-0.dtd"
   xmlns="http://www.w3.org/2000/svg"
   xmlns:svg="http://www.w3.org/2000/svg"
   xmlns:rdf="http://www.w3.org/1999/02/22-rdf-syntax-ns#"
   xmlns:cc="http://creativecommons.org/ns#"
   xmlns:dc="http://purl.org/dc/elements/1.1/"><metadata
   id="metadata3819"><rdf:RDF><cc:Work
       rdf:about=""><dc:format>image/svg+xml</dc:format><dc:type
         rdf:resource="http://purl.org/dc/dcmitype/StillImage" /><dc:title /></cc:Work></rdf:RDF></metadata><defs
   id="defs3817">
	
	
</defs><sodipodi:namedview
   pagecolor="#ffffff"
   bordercolor="#666666"
   borderopacity="1"
   objecttolerance="10"
   gridtolerance="10"
   guidetolerance="10"
   inkscape:pageopacity="0"
   inkscape:pageshadow="2"
   inkscape:window-width="1124"
   inkscape:window-height="732"
   id="namedview3815"
   showgrid="false"
   inkscape:zoom="0.9"
   inkscape:cx="220"
   inkscape:cy="290.55556"
   inkscape:window-x="0"
   inkscape:window-y="0"
   inkscape:window-maximized="0"
   inkscape:current-layer="svg3813"
   inkscape:showpageshadow="2"
   inkscape:pagecheckerboard="0"
   inkscape:deskcolor="#d1d1d1" />
<g
   id="Layer_2">
	<g
   id="g1327">
		<path
   id="path1329"
   d="M66.275,1.768    c-41.335,0-64.571,21.371-64.571,65.036v450.123c0,40.844,20.894,62.229,62.192,62.229H515.92    c41.307,0,62.229-20.316,62.229-62.229V66.804c0-42.601-20.923-65.036-63.522-65.036C514.624,1.768,66.133,1.625,66.275,1.768z"
   stroke-width="3.408"
   stroke="#EEEEEE"
   fill="#111111" />
	</g>
</g>
<g
   id="g3808">
		<path
   style="fill:#ffffff"
   inkscape:connector-curvature="0"
   id="path3804"
   d="m 309.094,427.584 h -66.456 c 1.362,-3.477 2.116,-7.256 2.116,-11.215 v -32.546 l -2.429,-29.659 c -4.677,-11.028 -15.604,-18.766 -28.338,-18.766 h -64.775 c -12.734,0 -23.661,7.737 -28.338,18.767 l -2.429,29.657 v 32.547 c 0,3.959 0.754,7.738 2.116,11.215 H 54.106 v 22.498 9 77.996 h 10.5 v -77.996 h 233.988 v 77.996 h 10.498 v -77.996 h 0.002 z m -88.63,-50.891 v 50.891 h -7.287 v -50.891 z m -77.729,0 h 7.288 v 50.891 h -7.288 z" />
		<circle
   style="fill:#ffffff"
   id="circle3806"
   r="37.650002"
   cy="284.664"
   cx="181.60001" />
	</g>
<g
   transform="matrix(0.81340973,0,0,0.81340973,173.64351,14.980925)"
   id="Layer_1"><g
     id="g4095"><path
       style="fill:#ffffff"
       inkscape:connector-curvature="0"
       d="M 390.244,122.006 H 267.659 V 76.01 h 33.748 c 7.041,0 12.749,-5.708 12.749,-12.75 0,-7.041 -5.708,-12.749 -12.749,-12.749 h -88.496 c -7.041,0 -12.749,5.708 -12.749,12.749 0,7.042 5.708,12.75 12.749,12.75 h 33.749 v 45.996 H 87.102 v 67 h 269.642 v 155.491 h 67 V 155.506 c 0,-18.501 -14.998,-33.5 -33.5,-33.5 z"
       id="path4063" /><path
       style="fill:#ffffff"
       inkscape:connector-curvature="0"
       d="m 363.58,367.995 c -3.59,0 -6.5,2.91 -6.5,6.5 v 1.5 c 0,3.59 2.91,6.5 6.5,6.5 3.59,0 6.5,-2.91 6.5,-6.5 v -1.5 c 0,-3.59 -2.91,-6.5 -6.5,-6.5 z"
       id="path4065" /><path
       style="fill:#ffffff"
       inkscape:connector-curvature="0"
       d="m 363.58,440.776 c -3.59,0 -6.5,2.91 -6.5,6.5 v 2.93 c 0,3.59 2.91,6.5 6.5,6.5 3.59,0 6.5,-2.91 6.5,-6.5 v -2.93 c 0,-3.59 -2.91,-6.5 -6.5,-6.5 z"
       id="path4067" /><path
       style="fill:#ffffff"
       inkscape:connector-curvature="0"
       d="m 363.58,477.882 c -3.59,0 -6.5,2.91 -6.5,6.5 v 2.93 c 0,3.59 2.91,6.5 6.5,6.5 3.59,0 6.5,-2.91 6.5,-6.5 v -2.93 c 0,-3.59 -2.91,-6.5 -6.5,-6.5 z"
       id="path4069" /><path
       style="fill:#ffffff"
       inkscape:connector-curvature="0"
       d="m 363.58,403.671 c -3.59,0 -6.5,2.91 -6.5,6.5 v 2.93 c 0,3.59 2.91,6.5 6.5,6.5 3.59,0 6.5,-2.91 6.5,-6.5 v -2.93 c 0,-3.59 -2.91,-6.5 -6.5,-6.5 z"
       id="path4071" /><path
       style="fill:#ffffff"
       inkscape:connector-curvature="0"
       d="m 363.58,514.988 c -3.59,0 -6.5,2.91 -6.5,6.5 v 1.5 c 0,3.59 2.91,6.5 6.5,6.5 3.59,0 6.5,-2.91 6.5,-6.5 v -1.5 c 0,-3.59 -2.91,-6.5 -6.5,-6.5 z"
       id="path4073" /><path
       style="fill:#ffffff"
       inkscape:connector-curvature="0"
       d="m 417.244,367.995 c -3.59,0 -6.5,2.91 -6.5,6.5 v 1.5 c 0,3.59 2.91,6.5 6.5,6.5 3.59,0 6.5,-2.91 6.5,-6.5 v -1.5 c 0,-3.59 -2.91,-6.5 -6.5,-6.5 z"
       id="path4075" /><path
       style="fill:#ffffff"
       inkscape:connector-curvature="0"
       d="m 417.244,440.776 c -3.59,0 -6.5,2.91 -6.5,6.5 v 2.93 c 0,3.59 2.91,6.5 6.5,6.5 3.59,0 6.5,-2.91 6.5,-6.5 v -2.93 c 0,-3.59 -2.91,-6.5 -6.5,-6.5 z"
       id="path4077" /><path
       style="fill:#ffffff"
       inkscape:connector-curvature="0"
       d="m 417.244,477.882 c -3.59,0 -6.5,2.91 -6.5,6.5 v 2.93 c 0,3.59 2.91,6.5 6.5,6.5 3.59,0 6.5,-2.91 6.5,-6.5 v -2.93 c 0,-3.59 -2.91,-6.5 -6.5,-6.5 z"
       id="path4079" /><path
       style="fill:#ffffff"
       inkscape:connector-curvature="0"
       d="m 417.244,403.671 c -3.59,0 -6.5,2.91 -6.5,6.5 v 2.93 c 0,3.59 2.91,6.5 6.5,6.5 3.59,0 6.5,-2.91 6.5,-6.5 v -2.93 c 0,-3.59 -2.91,-6.5 -6.5,-6.5 z"
       id="path4081" /><path
       style="fill:#ffffff"
       inkscape:connector-curvature="0"
       d="m 417.244,514.988 c -3.59,0 -6.5,2.91 -6.5,6.5 v 1.5 c 0,3.59 2.91,6.5 6.5,6.5 3.59,0 6.5,-2.91 6.5,-6.5 v -1.5 c 0,-3.59 -2.91,-6.5 -6.5,-6.5 z"
       id="path4083" /><path
       style="fill:#ffffff"
       inkscape:connector-curvature="0"
       d="m 390.244,367.995 c -3.59,0 -6.5,2.91 -6.5,6.5 v 1.5 c 0,3.59 2.91,6.5 6.5,6.5 3.59,0 6.5,-2.91 6.5,-6.5 v -1.5 c 0,-3.59 -2.91,-6.5 -6.5,-6.5 z"
       id="path4085" /><path
       style="fill:#ffffff"
       inkscape:connector-curvature="0"
       d="m 390.244,403.671 c -3.59,0 -6.5,2.91 -6.5,6.5 v 2.93 c 0,3.59 2.91,6.5 6.5,6.5 3.59,0 6.5,-2.91 6.5,-6.5 v -2.93 c 0,-3.59 -2.91,-6.5 -6.5,-6.5 z"
       id="path4087" /><path
       style="fill:#ffffff"
       inkscape:connector-curvature="0"
       d="m 390.244,440.776 c -3.59,0 -6.5,2.91 -6.5,6.5 v 2.93 c 0,3.59 2.91,6.5 6.5,6.5 3.59,0 6.5,-2.91 6.5,-6.5 v -2.93 c 0,-3.59 -2.91,-6.5 -6.5,-6.5 z"
       id="path4089" /><path
       style="fill:#ffffff"
       inkscape:connector-curvature="0"
       d="m 390.244,477.882 c -3.59,0 -6.5,2.91 -6.5,6.5 v 2.93 c 0,3.59 2.91,6.5 6.5,6.5 3.59,0 6.5,-2.91 6.5,-6.5 v -2.93 c 0,-3.59 -2.91,-6.5 -6.5,-6.5 z"
       id="path4091" /><path
       style="fill:#ffffff"
       inkscape:connector-curvature="0"
       d="m 390.244,514.988 c -3.59,0 -6.5,2.91 -6.5,6.5 v 1.5 c 0,3.59 2.91,6.5 6.5,6.5 3.59,0 6.5,-2.91 6.5,-6.5 v -1.5 c 0,-3.59 -2.91,-6.5 -6.5,-6.5 z"
       id="path4093" /></g></g></svg>
