<?xml version="1.0" encoding="utf-8"?>
<!-- Generator: Adobe Illustrator 15.0.0, SVG Export Plug-In . SVG Version: 6.00 Build 0)  -->
<!DOCTYPE svg PUBLIC "-//W3C//DTD SVG 1.1//EN" "http://www.w3.org/Graphics/SVG/1.1/DTD/svg11.dtd">
<svg version="1.1" xmlns="http://www.w3.org/2000/svg" xmlns:xlink="http://www.w3.org/1999/xlink" x="0px" y="0px" width="580px"
	 height="580px" viewBox="0 0 580 580" enable-background="new 0 0 580 580" xml:space="preserve">
<g id="Layer_2">
	<g id="g1327">
		<path id="path1329" fill="#111111" stroke="#EEEEEE" stroke-width="3.408" d="M66.275,1.768
			c-41.335,0-64.571,21.371-64.571,65.036v450.123c0,40.844,20.894,62.229,62.192,62.229H515.92
			c41.307,0,62.229-20.316,62.229-62.229V66.804c0-42.601-20.923-65.036-63.522-65.036C514.624,1.768,66.133,1.625,66.275,1.768z"/>
	</g>
</g>
<g id="svg2" inkscape:output_extension="org.inkscape.output.svg.inkscape" inkscape:version="0.46" sodipodi:docname="waste_bin.svg" sodipodi:version="0.32" xmlns:inkscape="http://www.inkscape.org/namespaces/inkscape" xmlns:rdf="http://www.w3.org/1999/02/22-rdf-syntax-ns#" xmlns:svg="http://www.w3.org/2000/svg" xmlns:sodipodi="http://sodipodi.sourceforge.net/DTD/sodipodi-0.dtd" xmlns:cc="http://creativecommons.org/ns#" xmlns:dc="http://purl.org/dc/elements/1.1/">
	<g>
		<path fill="#FFFFFF" d="M247.842,150.768c0,0-28.431-117.677-42.122-117.677h-25.157h-42.841h-25.461
			c-13.69,0-42.102,117.677-42.102,117.677c-7.055,0.905-19.561,9.187-19.561,24.874v58.437h17.323v18.688
			c0,22.993,32.539,22.721,32.539,0v-18.688h58.531h0.019h58.531v18.688c0,22.721,32.538,22.993,32.538,0v-18.688h17.322v-58.437
			C267.403,159.954,254.896,151.673,247.842,150.768z M135.178,56.008h16.479V39.529h14.688v16.479h16.478v14.688h-16.478v16.479
			h-14.688V70.695h-16.479V56.008z M84.712,198.864c-8.301,0-15.027-6.945-15.027-15.501s6.726-15.482,15.027-15.482
			c8.301,0,15.027,6.926,15.027,15.482C99.738,191.919,93.013,198.864,84.712,198.864z M159.01,150.293h-0.018h-0.039H88.583
			l13.414-48.931c1.676-5.08,4.188-8.749,10.056-8.804h46.901h0.039h0.018h46.919c5.868,0.055,8.38,3.724,10.056,8.804
			l13.414,48.931H159.01z M233.289,198.864c-8.301,0-15.046-6.945-15.046-15.501s6.746-15.482,15.046-15.482
			s15.026,6.926,15.026,15.482S241.59,198.864,233.289,198.864z"/>
		<path fill="#FFFFFF" d="M509.842,150.768c0,0-28.43-117.677-42.121-117.677h-25.156h-42.842h-25.461
			c-13.689,0-42.102,117.677-42.102,117.677c-7.055,0.905-19.561,9.187-19.561,24.874v58.437h17.322v18.688
			c0,22.993,32.539,22.721,32.539,0v-18.688h58.531h0.018h58.531v18.688c0,22.721,32.539,22.993,32.539,0v-18.688h17.322v-58.437
			C529.402,159.954,516.896,151.673,509.842,150.768z M397.178,56.008h16.479V39.529h14.688v16.479h16.479v14.688h-16.479v16.479
			h-14.688V70.695h-16.479V56.008z M346.713,198.864c-8.301,0-15.027-6.945-15.027-15.501s6.727-15.482,15.027-15.482
			s15.027,6.926,15.027,15.482C361.738,191.919,355.014,198.864,346.713,198.864z M421.01,150.293h-0.018h-0.039h-70.371
			l13.414-48.931c1.676-5.08,4.189-8.749,10.057-8.804h46.9h0.039h0.018h46.92c5.867,0.055,8.379,3.724,10.057,8.804l13.414,48.931
			H421.01z M495.289,198.864c-8.301,0-15.047-6.945-15.047-15.501s6.746-15.482,15.047-15.482s15.025,6.926,15.025,15.482
			S503.59,198.864,495.289,198.864z"/>
		<path fill="#FFFFFF" d="M247.842,427.768c0,0-28.431-117.677-42.122-117.677h-25.157h-42.841h-25.461
			c-13.69,0-42.102,117.677-42.102,117.677c-7.055,0.905-19.561,9.187-19.561,24.874v58.437h17.323v18.688
			c0,22.992,32.539,22.721,32.539,0v-18.688h58.531h0.019h58.531v18.688c0,22.721,32.538,22.992,32.538,0v-18.688h17.322v-58.437
			C267.403,436.954,254.896,428.673,247.842,427.768z M135.178,333.008h16.479v-16.479h14.688v16.479h16.478v14.688h-16.478v16.479
			h-14.688v-16.479h-16.479V333.008z M84.712,475.864c-8.301,0-15.027-6.945-15.027-15.501s6.726-15.482,15.027-15.482
			c8.301,0,15.027,6.927,15.027,15.482C99.738,468.919,93.013,475.864,84.712,475.864z M159.01,427.294h-0.018h-0.039H88.583
			l13.414-48.932c1.676-5.08,4.188-8.748,10.056-8.804h46.901h0.039h0.018h46.919c5.868,0.056,8.38,3.724,10.056,8.804
			l13.414,48.932H159.01z M233.289,475.864c-8.301,0-15.046-6.945-15.046-15.501s6.746-15.482,15.046-15.482
			s15.026,6.927,15.026,15.482S241.59,475.864,233.289,475.864z"/>
		<path fill="#FFFFFF" d="M509.842,427.768c0,0-28.43-117.677-42.121-117.677h-25.156h-42.842h-25.461
			c-13.689,0-42.102,117.677-42.102,117.677c-7.055,0.905-19.561,9.187-19.561,24.874v58.437h17.322v18.688
			c0,22.992,32.539,22.721,32.539,0v-18.688h58.531h0.018h58.531v18.688c0,22.721,32.539,22.992,32.539,0v-18.688h17.322v-58.437
			C529.402,436.954,516.896,428.673,509.842,427.768z M397.178,333.008h16.479v-16.479h14.688v16.479h16.479v14.688h-16.479v16.479
			h-14.688v-16.479h-16.479V333.008z M346.713,475.864c-8.301,0-15.027-6.945-15.027-15.501s6.727-15.482,15.027-15.482
			s15.027,6.927,15.027,15.482C361.738,468.919,355.014,475.864,346.713,475.864z M421.01,427.294h-0.018h-0.039h-70.371
			l13.414-48.932c1.676-5.08,4.189-8.748,10.057-8.804h46.9h0.039h0.018h46.92c5.867,0.056,8.379,3.724,10.057,8.804l13.414,48.932
			H421.01z M495.289,475.864c-8.301,0-15.047-6.945-15.047-15.501s6.746-15.482,15.047-15.482s15.025,6.927,15.025,15.482
			S503.59,475.864,495.289,475.864z"/>
	</g>
</g>
</svg>
