<?xml version="1.0" encoding="utf-8"?>
<!-- Generator: Adobe Illustrator 15.0.0, SVG Export Plug-In . SVG Version: 6.00 Build 0)  -->
<!DOCTYPE svg PUBLIC "-//W3C//DTD SVG 1.1//EN" "http://www.w3.org/Graphics/SVG/1.1/DTD/svg11.dtd">
<svg version="1.1" id="Layer_1" xmlns="http://www.w3.org/2000/svg" xmlns:xlink="http://www.w3.org/1999/xlink" x="0px" y="0px"
	 width="580px" height="580px" viewBox="0 0 580 580" enable-background="new 0 0 580 580" xml:space="preserve">
<g id="Layer_2">
	<g id="g1327">
		<path id="path1329" fill="#111111" stroke="#EEEEEE" stroke-width="3.408" d="M66.275,1.768
			c-41.335,0-64.571,21.371-64.571,65.036v450.123c0,40.844,20.895,62.229,62.192,62.229h452.024
			c41.307,0,62.229-20.315,62.229-62.229V66.804c0-42.602-20.923-65.036-63.521-65.036C514.625,1.768,66.133,1.625,66.275,1.768z"/>
	</g>
</g>
<g>
	<path fill="#FFFFFF" d="M414.819,291.693c-3.338-50.122-37.358-90.193-81.786-97.704c-54.124-9.119-84.119,21.245-103.768,51.656
		c-19.514-30.388-45.299-58.014-98.281-52.54c-46.821,4.86-82.964,48.687-86.339,95.839c-2.958,41.286,11.941,69.095,27.553,94.918
		c37.518,62.15,101.19,111.314,157.068,149.312c56.479-38.07,126.645-92.415,162.579-157.608
		C404.167,353.156,416.979,324.463,414.819,291.693z M272.442,470.484c-13.82,17.158-28.277,33.678-44.084,48.847
		c-8.468-20.079-16.212-40.894-25.712-59.916c6.407-0.885,14.028,4.933,21.109,6.455c5.105-29.896,9.205-60.8,12.875-92.17
		c-22.644,13.82-46.748,34.192-70.729,49.755c7.683-68.237,14.396-142.145,21.134-208.283c17.44,9.831,29.406,25.16,39.494,42.415
		c-8.775,36.033-15.034,69.502-23.883,105.977l84.499-60.788c-10.346,54.137-24.006,112.972-36.745,167.709
		C254.351,471.467,263.752,469.92,272.442,470.484z"/>
	<polygon fill="#FFFFFF" points="435.192,46.825 485.462,46.825 485.462,97.094 535.732,97.094 535.732,147.364 485.462,147.364 
		485.462,197.634 435.192,197.634 435.192,147.364 384.923,147.364 384.923,97.094 435.192,97.094 	"/>
</g>
</svg>
