<?xml version="1.0" encoding="UTF-8" standalone="no"?>
<!-- Generator: Adobe Illustrator 15.0.0, SVG Export Plug-In . SVG Version: 6.00 Build 0)  -->

<svg
   xmlns:dc="http://purl.org/dc/elements/1.1/"
   xmlns:cc="http://creativecommons.org/ns#"
   xmlns:rdf="http://www.w3.org/1999/02/22-rdf-syntax-ns#"
   xmlns:svg="http://www.w3.org/2000/svg"
   xmlns="http://www.w3.org/2000/svg"
   xmlns:sodipodi="http://sodipodi.sourceforge.net/DTD/sodipodi-0.dtd"
   xmlns:inkscape="http://www.inkscape.org/namespaces/inkscape"
   version="1.1"
   x="0px"
   y="0px"
   width="580px"
   height="580px"
   viewBox="0 0 580 580"
   enable-background="new 0 0 580 580"
   xml:space="preserve"
   id="svg2"
   inkscape:version="0.92.3 (2405546, 2018-03-11)"
   sodipodi:docname="emergency_help_point_sp.svg"><metadata
   id="metadata25"><rdf:RDF><cc:Work
       rdf:about=""><dc:format>image/svg+xml</dc:format><dc:type
         rdf:resource="http://purl.org/dc/dcmitype/StillImage" /><dc:title></dc:title></cc:Work></rdf:RDF></metadata><defs
   id="defs23">
	

		
		
		
		
		
	</defs><sodipodi:namedview
   pagecolor="#ffffff"
   bordercolor="#666666"
   borderopacity="1"
   objecttolerance="10"
   gridtolerance="10"
   guidetolerance="10"
   inkscape:pageopacity="0"
   inkscape:pageshadow="2"
   inkscape:window-width="1920"
   inkscape:window-height="1147"
   id="namedview21"
   showgrid="false"
   inkscape:zoom="1.2432572"
   inkscape:cx="193.88152"
   inkscape:cy="290"
   inkscape:window-x="-8"
   inkscape:window-y="-8"
   inkscape:window-maximized="1"
   inkscape:current-layer="svg2" />
<g
   id="Layer_2">
	<g
   id="g1327">
		<path
   id="path1329"
   fill="#111111"
   stroke="#EEEEEE"
   stroke-width="3.408"
   d="M66.275,1.768    c-41.335,0-64.571,21.371-64.571,65.036v450.123c0,40.844,20.894,62.229,62.192,62.229H515.92    c41.307,0,62.229-20.316,62.229-62.229V66.804c0-42.601-20.923-65.036-63.522-65.036C514.624,1.768,66.133,1.625,66.275,1.768z" />
	</g>
</g>
<polygon
   points="457.355,104.35 431.813,78.807 408.591,165.494 495.271,142.266 470.083,117.078 537.555,49.606 524.826,36.878 "
   id="polygon13"
   style="fill:#ffffff" /><polygon
   points="462.922,470.084 530.394,537.555 543.122,524.826 475.65,457.355 501.193,431.813 414.506,408.591 437.734,495.271 "
   id="polygon15"
   style="fill:#ffffff" /><polygon
   points="122.645,475.65 148.188,501.193 171.409,414.506 84.729,437.734 109.917,462.923 42.446,530.394 55.173,543.122 "
   id="polygon17"
   style="fill:#ffffff" /><polygon
   points="49.606,42.446 36.878,55.173 104.35,122.645 78.807,148.188 165.494,171.409 142.266,84.729 117.077,109.917 "
   id="polygon19"
   style="fill:#ffffff" />
<circle
   style="fill:none;fill-opacity:1;fill-rule:nonzero;stroke:#ffffff;stroke-width:38.41133858;stroke-linecap:square;stroke-linejoin:round;stroke-miterlimit:4;stroke-dasharray:none;stroke-opacity:1"
   id="path3025"
   cx="290"
   cy="290"
   r="122.03893" /></svg>