<?xml version="1.0" encoding="utf-8"?>
<!-- Generator: Adobe Illustrator 15.0.0, SVG Export Plug-In . SVG Version: 6.00 Build 0)  -->
<!DOCTYPE svg PUBLIC "-//W3C//DTD SVG 1.1//EN" "http://www.w3.org/Graphics/SVG/1.1/DTD/svg11.dtd">
<svg version="1.1" xmlns="http://www.w3.org/2000/svg" xmlns:xlink="http://www.w3.org/1999/xlink" x="0px" y="0px" width="580px"
	 height="580px" viewBox="0 0 580 580" enable-background="new 0 0 580 580" xml:space="preserve">
<g id="Layer_1">
	<g id="Layer_2">
		<g id="g1327">
			<path id="path1329" fill="#111111" stroke="#EEEEEE" stroke-width="3.408" d="M66.275,1.768
				c-41.335,0-64.571,21.371-64.571,65.036v450.123c0,40.844,20.895,62.229,62.192,62.229h452.024
				c41.307,0,62.229-20.315,62.229-62.229V66.804c0-42.602-20.923-65.036-63.521-65.036C514.625,1.768,66.133,1.625,66.275,1.768z"
				/>
		</g>
	</g>
</g>
<g id="Layer_2_1_">
	<path fill="#FFFFFF" d="M516.048,412.315l-31.023-50.506l-139.129,50.446l25.056,40.973
		c-51.811,17.792-113.837,8.509-169.673-26.224C136.08,386.452,95.408,321.506,95.128,257.51
		c0.023-88.061,70.267-159.696,156.604-159.696c86.328,0,156.563,71.661,156.573,159.75
		c-0.005,66.615-53.088,120.807-118.336,120.807c-65.234,0-118.305-54.198-118.305-120.817c0-45.124,35.918-81.834,80.067-81.834
		c44.133,0,80.038,36.71,80.038,81.834c0,23.645-18.751,42.88-41.801,42.88c-23.049,0-41.8-19.235-41.8-42.88h-31.175
		c0,40.833,32.736,74.055,72.975,74.055s72.974-33.222,72.974-74.055c0-62.313-49.889-113.008-111.211-113.008
		c-61.34,0-111.242,50.695-111.242,113.008c0,83.808,67.056,151.991,149.479,151.991c82.431,0,149.493-68.165,149.511-151.96l0,0
		c0-0.005,0-0.01,0-0.015c0-0.005,0-0.01,0-0.015l0,0c-0.018-105.273-84.233-190.915-187.748-190.915
		c-103.542,0-187.779,85.644-187.779,190.915H79.54l-15.588,0.066c0.316,74.635,46.627,149.683,120.861,195.856
		c42.335,26.334,88.113,39.761,131.835,39.761c24.612,0,48.573-4.266,70.902-12.869l20.177,32.992L516.048,412.315z"/>
</g>
</svg>
