<?xml version="1.0" encoding="UTF-8" standalone="no"?>
<!-- Generator: Adobe Illustrator 15.0.0, SVG Export Plug-In . SVG Version: 6.00 Build 0)  -->

<svg
   xmlns:dc="http://purl.org/dc/elements/1.1/"
   xmlns:cc="http://creativecommons.org/ns#"
   xmlns:rdf="http://www.w3.org/1999/02/22-rdf-syntax-ns#"
   xmlns:svg="http://www.w3.org/2000/svg"
   xmlns="http://www.w3.org/2000/svg"
   xmlns:sodipodi="http://sodipodi.sourceforge.net/DTD/sodipodi-0.dtd"
   xmlns:inkscape="http://www.inkscape.org/namespaces/inkscape"
   version="1.1"
   x="0px"
   y="0px"
   width="580px"
   height="580px"
   viewBox="0 0 580 580"
   enable-background="new 0 0 580 580"
   xml:space="preserve"
   id="svg2229"
   sodipodi:docname="fire_alarm.svg"
   inkscape:version="0.92.3 (2405546, 2018-03-11)"><metadata
   id="metadata2235"><rdf:RDF><cc:Work
       rdf:about=""><dc:format>image/svg+xml</dc:format><dc:type
         rdf:resource="http://purl.org/dc/dcmitype/StillImage" /><dc:title></dc:title></cc:Work></rdf:RDF></metadata><defs
   id="defs2233">
	
	
</defs><sodipodi:namedview
   pagecolor="#ffffff"
   bordercolor="#666666"
   borderopacity="1"
   objecttolerance="10"
   gridtolerance="10"
   guidetolerance="10"
   inkscape:pageopacity="0"
   inkscape:pageshadow="2"
   inkscape:window-width="1227"
   inkscape:window-height="947"
   id="namedview2231"
   showgrid="false"
   inkscape:zoom="1.0074671"
   inkscape:cx="290"
   inkscape:cy="290"
   inkscape:window-x="346"
   inkscape:window-y="129"
   inkscape:window-maximized="0"
   inkscape:current-layer="svg2229" />
<g
   id="Layer_1">
	<g
   id="Layer_1_1_">
		<g
   id="Layer_2">
			<g
   id="g1327">
				<path
   id="path1329"
   d="M66.275,1.768      c-41.335,0-64.571,21.371-64.571,65.036v450.123c0,40.844,20.895,62.229,62.192,62.229H515.92      c41.307,0,62.229-20.315,62.229-62.229V66.804c0-42.601-20.925-65.036-63.521-65.036C514.624,1.768,66.133,1.625,66.275,1.768z"
   stroke-width="3.408"
   stroke="#EEEEEE"
   fill="#111111" />
			</g>
		</g>
	</g>
</g>

<g
   id="g2899"
   transform="matrix(2.0660423,0,0,2.0660423,-309.59457,-313.72231)"><path
     style="fill:#ffffff;stroke:#000000;stroke-width:1.00370002;stroke-linecap:round"
     inkscape:connector-curvature="0"
     d="m 189.3915,202.61022 h 201.08 v 175.65 h -201.08 z"
     id="path2842" /><path
     style="stroke:#000000;stroke-width:0.93180299;stroke-linecap:round"
     inkscape:connector-curvature="0"
     d="m 324.52876,290.43203 c 0,20.70188 -15.49134,37.48522 -34.60166,37.48522 -19.11031,0 -34.60165,-16.78233 -34.60165,-37.48522 0,-20.70289 15.49134,-37.48522 34.60165,-37.48522 19.11032,0 34.60166,16.78233 34.60166,37.48522 z"
     id="path2844" /><path
     style="fill:none;stroke:#000000;stroke-width:4"
     inkscape:connector-curvature="0"
     d="m 195.8915,298.60022 -0.0446,-17.321 h 28.214 v -10.893 l 20.536,20.536 -19.911,19.554 v -12.232 l -28.795,0.3571 z"
     id="path2846" /><path
     style="fill:none;stroke:#000000;stroke-width:4"
     inkscape:connector-curvature="0"
     d="m 380.7215,298.60022 0.0446,-17.321 h -28.214 v -10.893 l -20.536,20.536 19.911,19.554 v -12.232 l 28.795,0.3571 z"
     id="path2848" /></g></svg>