<?xml version="1.0" encoding="utf-8"?>
<!-- Generator: Adobe Illustrator 15.0.0, SVG Export Plug-In . SVG Version: 6.00 Build 0)  -->
<!DOCTYPE svg PUBLIC "-//W3C//DTD SVG 1.1//EN" "http://www.w3.org/Graphics/SVG/1.1/DTD/svg11.dtd">
<svg version="1.1" xmlns="http://www.w3.org/2000/svg" xmlns:xlink="http://www.w3.org/1999/xlink" x="0px" y="0px" width="580px"
	 height="580px" viewBox="0 0 580 580" enable-background="new 0 0 580 580" xml:space="preserve">
<g id="Layer_2">
	<g id="g1327">
		<path id="path1329" fill="#111111" stroke="#EEEEEE" stroke-width="3.408" d="M66.275,1.768
			c-41.335,0-64.571,21.371-64.571,65.036v450.123c0,40.844,20.894,62.229,62.192,62.229H515.92
			c41.307,0,62.229-20.316,62.229-62.229V66.804c0-42.601-20.923-65.036-63.522-65.036C514.624,1.768,66.133,1.625,66.275,1.768z"/>
	</g>
</g>
<g id="svg2" inkscape:output_extension="org.inkscape.output.svg.inkscape" inkscape:version="0.46" sodipodi:docname="waste_bin.svg" sodipodi:version="0.32" xmlns:inkscape="http://www.inkscape.org/namespaces/inkscape" xmlns:rdf="http://www.w3.org/1999/02/22-rdf-syntax-ns#" xmlns:svg="http://www.w3.org/2000/svg" xmlns:sodipodi="http://sodipodi.sourceforge.net/DTD/sodipodi-0.dtd" xmlns:cc="http://creativecommons.org/ns#" xmlns:dc="http://purl.org/dc/elements/1.1/">
	<path fill="#FFFFFF" d="M359.905,512.149c2.051-0.645,4.095-1.32,6.125-2.022c0.279-0.096,0.557-0.192,0.839-0.292
		c1.855-0.651,3.702-1.318,5.541-2.017c0.245-0.089,0.493-0.185,0.735-0.273c6.214-2.375,12.326-5.01,18.325-7.909
		c0.33-0.161,0.663-0.324,0.996-0.488c1.654-0.804,3.299-1.635,4.932-2.481c0.362-0.188,0.722-0.372,1.084-0.563
		c1.781-0.935,3.549-1.894,5.308-2.873c0.139-0.078,0.277-0.148,0.412-0.228c3.87-2.174,7.681-4.46,11.432-6.861
		c0.343-0.215,0.682-0.442,1.024-0.657c1.493-0.972,2.98-1.955,4.455-2.957c0.413-0.279,0.825-0.563,1.237-0.848
		c1.495-1.029,2.977-2.077,4.449-3.144c0.3-0.215,0.603-0.43,0.901-0.649c3.573-2.616,7.079-5.336,10.515-8.167
		c0.293-0.242,0.583-0.488,0.878-0.736c1.387-1.153,2.763-2.323,4.125-3.516c0.405-0.354,0.811-0.713,1.216-1.068
		c1.298-1.149,2.587-2.318,3.862-3.497c0.354-0.33,0.709-0.657,1.063-0.983c18.353-17.214,34.211-37.708,46.613-61.208
		c11.713-22.192,19.468-45.419,23.545-68.877l0,0c0-0.006,0-0.016,0.002-0.022c3.216-18.514,4.133-37.17,2.864-55.578
		c0-0.002,0-0.008,0-0.009c-0.155-2.257-0.345-4.508-0.564-6.755c-0.009-0.078-0.016-0.158-0.023-0.236
		c-0.678-6.838-1.654-13.636-2.929-20.37c-0.005-0.02-0.007-0.037-0.011-0.059c-0.405-2.149-0.848-4.289-1.313-6.424
		c-0.044-0.19-0.083-0.382-0.127-0.571c-0.468-2.114-0.96-4.22-1.485-6.317c-0.013-0.05-0.023-0.102-0.039-0.153
		c-1.113-4.434-2.354-8.835-3.726-13.195c-0.005-0.018-0.012-0.032-0.017-0.05c-0.643-2.052-1.322-4.094-2.024-6.126
		c-0.097-0.278-0.192-0.556-0.291-0.834c-0.648-1.858-1.321-3.708-2.018-5.55c-0.091-0.242-0.183-0.486-0.272-0.729
		c-2.372-6.214-5.011-12.327-7.907-18.325c-0.164-0.333-0.325-0.665-0.487-0.997c-0.81-1.654-1.638-3.299-2.486-4.934
		c-0.185-0.36-0.371-0.72-0.561-1.079c-0.935-1.783-1.894-3.557-2.878-5.317c-0.076-0.134-0.146-0.271-0.223-0.403
		c-2.173-3.873-4.463-7.685-6.858-11.437c-0.219-0.341-0.441-0.676-0.661-1.015c-0.969-1.498-1.955-2.987-2.961-4.467
		c-0.278-0.409-0.557-0.819-0.838-1.227c-1.034-1.5-2.087-2.988-3.157-4.466c-0.214-0.296-0.423-0.592-0.638-0.886
		c-2.616-3.576-5.34-7.084-8.171-10.521c-0.241-0.292-0.488-0.58-0.731-0.871c-1.156-1.392-2.33-2.769-3.522-4.136
		c-0.353-0.403-0.707-0.805-1.063-1.205c-1.152-1.303-2.322-2.594-3.509-3.875c-0.325-0.351-0.646-0.703-0.974-1.051
		c-17.213-18.354-37.707-34.216-61.208-46.619c-41.877-22.102-87.426-30.149-131.271-25.843c-0.061,0.007-0.123,0.013-0.186,0.019
		c-6.849,0.679-13.657,1.654-20.403,2.933c-0.007,0.002-0.016,0.003-0.022,0.006c-2.161,0.408-4.315,0.85-6.463,1.32
		c-0.181,0.038-0.362,0.078-0.543,0.12c-2.121,0.469-4.238,0.963-6.343,1.492c-0.045,0.011-0.092,0.021-0.137,0.033
		c-4.436,1.112-8.838,2.356-13.201,3.727c-0.014,0.006-0.028,0.01-0.043,0.015c-2.055,0.646-4.098,1.324-6.132,2.026
		c-0.278,0.097-0.555,0.194-0.834,0.292c-1.856,0.647-3.705,1.319-5.545,2.015c-0.244,0.092-0.49,0.185-0.736,0.276
		c-6.21,2.371-12.321,5.009-18.319,7.905c-0.337,0.161-0.672,0.328-1.007,0.493c-1.65,0.806-3.292,1.632-4.921,2.477
		c-0.364,0.189-0.727,0.376-1.088,0.565c-1.778,0.934-3.547,1.891-5.303,2.87c-0.14,0.079-0.278,0.153-0.418,0.229
		c-3.868,2.174-7.678,4.46-11.428,6.857c-0.344,0.219-0.685,0.446-1.029,0.668c-1.493,0.966-2.976,1.948-4.447,2.949
		c-0.416,0.283-0.83,0.565-1.242,0.849c-1.493,1.028-2.972,2.075-4.441,3.14c-0.303,0.22-0.609,0.435-0.91,0.656
		c-3.572,2.614-7.079,5.335-10.509,8.163c-0.299,0.244-0.591,0.495-0.888,0.741c-1.385,1.153-2.756,2.321-4.116,3.509
		c-0.409,0.355-0.814,0.717-1.221,1.075c-1.298,1.146-2.582,2.312-3.855,3.49c-0.356,0.331-0.716,0.659-1.07,0.992
		c-18.35,17.211-34.209,37.704-46.61,61.201c-22.101,41.874-30.149,87.424-25.845,131.266c0.009,0.065,0.015,0.13,0.021,0.194
		c0.679,6.849,1.655,13.655,2.932,20.397c0.001,0.011,0.004,0.023,0.007,0.032c0.408,2.158,0.85,4.308,1.319,6.451
		c0.04,0.185,0.078,0.369,0.12,0.555c0.469,2.116,0.964,4.227,1.49,6.329c0.011,0.05,0.023,0.099,0.035,0.149
		c1.114,4.433,2.355,8.835,3.729,13.193c0.002,0.017,0.007,0.03,0.011,0.045c0.646,2.055,1.326,4.098,2.026,6.133
		c0.098,0.278,0.194,0.553,0.294,0.833c0.646,1.858,1.319,3.701,2.012,5.541c0.096,0.248,0.185,0.495,0.278,0.743
		c2.372,6.209,5.009,12.319,7.905,18.318c0.163,0.334,0.327,0.67,0.491,1.003c0.806,1.651,1.633,3.29,2.479,4.921
		c0.188,0.365,0.376,0.729,0.568,1.092c0.933,1.779,1.886,3.547,2.868,5.301c0.077,0.138,0.152,0.279,0.231,0.418
		c2.171,3.871,4.459,7.682,6.855,11.431c0.22,0.342,0.446,0.684,0.668,1.029c0.964,1.492,1.948,2.975,2.948,4.448
		c0.282,0.415,0.564,0.829,0.851,1.242c1.027,1.488,2.072,2.968,3.133,4.436c0.223,0.304,0.439,0.611,0.662,0.917
		c2.612,3.571,5.335,7.075,8.161,10.506c0.246,0.295,0.499,0.593,0.746,0.891c1.151,1.381,2.319,2.753,3.503,4.11
		c0.358,0.411,0.719,0.821,1.08,1.226c1.146,1.294,2.306,2.58,3.483,3.847c0.333,0.361,0.664,0.721,0.999,1.081
		c17.212,18.349,37.701,34.204,61.199,46.607c22.192,11.712,45.42,19.467,68.876,23.542l0,0c0.007,0.004,0.018,0.004,0.026,0.004
		c18.514,3.219,37.167,4.132,55.576,2.865c0.001,0,0.004,0,0.005,0c2.26-0.157,4.513-0.346,6.763-0.566
		c0.075-0.009,0.152-0.017,0.229-0.021c6.841-0.679,13.641-1.656,20.376-2.931c0.017-0.005,0.033-0.005,0.047-0.009
		c2.151-0.409,4.298-0.852,6.434-1.314c0.19-0.045,0.38-0.083,0.569-0.128c2.112-0.465,4.215-0.959,6.313-1.484
		c0.055-0.012,0.106-0.024,0.161-0.037c4.432-1.113,8.833-2.355,13.192-3.727C359.873,512.162,359.889,512.158,359.905,512.149z
		 M494.163,397.756c-11.124,21.08-25.174,39.982-41.616,56.31l-59.793-51.278c12.707-11.576,23.661-25.508,32.147-41.587
		c9.411-17.831,14.928-36.678,16.867-55.576l75.835,23.616C513.504,352.857,505.678,375.944,494.163,397.756z M145.565,334.643
		c-6.084-19.683-8.061-39.973-6.046-59.867l-0.022-0.007c1.936-19.105,7.552-37.85,16.785-55.344
		c8.326-15.775,19.148-29.698,31.96-41.357l0.016,0.014c16.192-14.737,35.561-25.859,57.101-32.517
		c19.681-6.083,39.969-8.061,59.865-6.046l0.007-0.021c19.106,1.936,37.851,7.551,55.345,16.785
		c15.777,8.328,29.699,19.149,41.359,31.959l-0.016,0.018c14.739,16.191,25.859,35.561,32.517,57.1
		c6.083,19.681,8.062,39.971,6.046,59.866l0.021,0.007c-1.937,19.104-7.553,37.849-16.786,55.344
		c-8.326,15.774-19.147,29.698-31.959,41.358l-0.017-0.013c-16.191,14.734-35.561,25.855-57.1,32.515
		c-19.681,6.083-39.971,8.061-59.866,6.045l-0.006,0.023c-19.107-1.935-37.851-7.552-55.344-16.786
		c-15.775-8.325-29.698-19.148-41.358-31.96l0.013-0.015C163.344,375.55,152.222,356.18,145.565,334.643z M454.065,127.451
		l-51.278,59.795c-11.577-12.706-25.508-23.662-41.586-32.148c-17.831-9.41-36.68-14.928-55.577-16.865l23.617-75.835
		c23.616,4.098,46.703,11.927,68.515,23.438C418.836,96.962,437.738,111.01,454.065,127.451z M127.452,125.936l59.795,51.277
		c-12.707,11.577-23.662,25.507-32.149,41.586c-9.409,17.831-14.927,36.68-16.865,55.576L62.396,250.76
		c4.1-23.618,11.928-46.703,23.44-68.516C96.961,161.166,111.011,142.262,127.452,125.936z M182.242,494.165
		c-21.075-11.123-39.979-25.178-56.305-41.618l51.278-59.794c11.575,12.707,25.507,23.664,41.585,32.148
		c17.831,9.41,36.679,14.929,55.575,16.867l-23.614,75.835C227.142,513.506,204.056,505.677,182.242,494.165z"/>
</g>
</svg>
