<?xml version="1.0" encoding="utf-8"?>
<!-- Generator: Adobe Illustrator 15.0.0, SVG Export Plug-In . SVG Version: 6.00 Build 0)  -->
<!DOCTYPE svg PUBLIC "-//W3C//DTD SVG 1.1//EN" "http://www.w3.org/Graphics/SVG/1.1/DTD/svg11.dtd">
<svg version="1.1" xmlns="http://www.w3.org/2000/svg" xmlns:xlink="http://www.w3.org/1999/xlink" x="0px" y="0px" width="580px"
	 height="580px" viewBox="0 0 580 580" enable-background="new 0 0 580 580" xml:space="preserve">
<g id="Layer_2">
	<g id="g1327">
		<path id="path1329" fill="#111111" stroke="#EEEEEE" stroke-width="3.408" d="M66.275,1.768
			c-41.335,0-64.571,21.371-64.571,65.036v450.123c0,40.844,20.894,62.229,62.192,62.229H515.92
			c41.307,0,62.229-20.316,62.229-62.229V66.804c0-42.601-20.923-65.036-63.522-65.036C514.624,1.768,66.133,1.625,66.275,1.768z"/>
	</g>
</g>
<g id="svg2" xmlns:inkscape="http://www.inkscape.org/namespaces/inkscape" xmlns:rdf="http://www.w3.org/1999/02/22-rdf-syntax-ns#" xmlns:svg="http://www.w3.org/2000/svg" xmlns:sodipodi="http://sodipodi.sourceforge.net/DTD/sodipodi-0.dtd" xmlns:cc="http://creativecommons.org/ns#" xmlns:dc="http://purl.org/dc/elements/1.1/" inkscape:output_extension="org.inkscape.output.svg.inkscape" inkscape:version="0.46" sodipodi:docname="waste_bin.svg" sodipodi:version="0.32">
	<path fill="#FFFFFF" d="M288.234,90.872h-67.511V72.366c0-9.042-7.356-16.398-16.398-16.398h-43.901
		c-9.042,0-16.398,7.356-16.398,16.398v18.505h-67.51c-5.843,0-10.58,4.737-10.58,10.579v128.001c0,5.843,4.736,10.579,10.58,10.579
		h211.718c5.843,0,10.579-4.736,10.579-10.579V101.451C298.813,95.608,294.077,90.872,288.234,90.872z M155.664,72.366
		c0-2.625,2.135-4.761,4.761-4.761h43.901c2.625,0,4.761,2.135,4.761,4.761v18.505h-53.422V72.366z M237.119,178.146H195.07v42.05
		h-25.391v-42.05h-42.05v-25.39h42.05v-42.051h25.391v42.051h42.049V178.146z"/>
	<path id="path111" fill="#FFFFFF" d="M109.836,431.195c6.085-5.114,20.21-19.643,43.346-45.129
		c23.048-25.567,53.887-60.547,93.822-106.489c26.134,40.989,45.37,70.857,59.575,90.256c13.881,19.317,21.591,27.514,23.457,25.242
		c14.775-14.609,27.193-27.028,37.906-37.904c10.552-10.875,18.746-19.885,25.241-27.028
		c32.467,45.128,59.412,82.302,83.031,113.712c23.212,31.168,41.641,54.789,55.925,72.156l-88.391-81.244
		c-7.306,20.938-19.235,31.489-36.117,32.547c-17.209,0.649-43.67-22.89-64.934-27.109c-21.345-4.303-42.451,8.926-61.443,1.784
		c-19.156-7.63-34.172-37.253-52.271-45.045c-18.262-7.631-36.521-7.631-56.003,0C151.962,408.306,130.94,419.749,109.836,431.195z"
		/>
</g>
</svg>
