<?xml version="1.0" encoding="utf-8"?>
<!-- Generator: Adobe Illustrator 15.0.0, SVG Export Plug-In . SVG Version: 6.00 Build 0)  -->
<!DOCTYPE svg PUBLIC "-//W3C//DTD SVG 1.1//EN" "http://www.w3.org/Graphics/SVG/1.1/DTD/svg11.dtd">
<svg version="1.1" xmlns="http://www.w3.org/2000/svg" xmlns:xlink="http://www.w3.org/1999/xlink" x="0px" y="0px" width="580px"
	 height="580px" viewBox="0 0 580 580" enable-background="new 0 0 580 580" xml:space="preserve">
<g id="Layer_2">
	<g id="g1327">
		<path id="path1329" fill="#111111" stroke="#EEEEEE" stroke-width="3.408" d="M66.275,1.768
			c-41.335,0-64.571,21.371-64.571,65.036v450.123c0,40.844,20.894,62.229,62.192,62.229H515.92
			c41.307,0,62.229-20.316,62.229-62.229V66.804c0-42.601-20.923-65.036-63.522-65.036C514.624,1.768,66.133,1.625,66.275,1.768z"/>
	</g>
</g>
<g id="svg2" inkscape:output_extension="org.inkscape.output.svg.inkscape" inkscape:version="0.46" sodipodi:docname="waste_bin.svg" sodipodi:version="0.32" xmlns:inkscape="http://www.inkscape.org/namespaces/inkscape" xmlns:rdf="http://www.w3.org/1999/02/22-rdf-syntax-ns#" xmlns:svg="http://www.w3.org/2000/svg" xmlns:sodipodi="http://sodipodi.sourceforge.net/DTD/sodipodi-0.dtd" xmlns:cc="http://creativecommons.org/ns#" xmlns:dc="http://purl.org/dc/elements/1.1/">
	<g>
		<path fill="#FFFFFF" d="M290,47.012C155.802,47.012,47.012,155.802,47.012,290c0,134.199,108.79,242.988,242.988,242.988
			S532.987,424.199,532.987,290C532.987,155.802,424.198,47.012,290,47.012z M196.134,343.308
			c-4.594,7.22-11.092,12.585-19.493,16.096c-8.4,3.51-18.869,5.266-31.403,5.266c-18.245,0-32.257-4.215-42.036-12.649
			c-9.779-8.433-15.62-20.722-17.522-36.867l28.352-2.757c1.706,9.518,5.168,16.506,10.386,20.969
			c5.218,4.465,12.256,6.694,21.117,6.694c9.383,0,16.455-1.983,21.214-5.956c4.758-3.971,7.138-8.614,7.138-13.93
			c0-3.411-1.002-6.315-3.002-8.712c-2.003-2.396-5.497-4.479-10.484-6.252c-3.414-1.181-11.19-3.28-23.332-6.3
			c-15.62-3.871-26.58-8.63-32.881-14.275c-8.859-7.94-13.289-17.62-13.289-29.04c0-7.35,2.082-14.225,6.25-20.625
			c4.167-6.398,10.172-11.272,18.016-14.619c7.842-3.347,17.31-5.02,28.401-5.02c18.113,0,31.747,3.972,40.902,11.912
			c9.155,7.941,13.962,18.541,14.423,31.797l-29.14,1.28c-1.247-7.416-3.922-12.749-8.023-15.998
			c-4.102-3.249-10.256-4.873-18.458-4.873c-8.466,0-15.096,1.739-19.886,5.217c-3.084,2.231-4.626,5.218-4.626,8.959
			c0,3.414,1.442,6.333,4.332,8.761c3.675,3.086,12.601,6.3,26.777,9.647c14.175,3.347,24.66,6.809,31.453,10.385
			c6.792,3.578,12.108,8.466,15.948,14.668s5.758,13.866,5.758,22.986C203.025,328.343,200.727,336.088,196.134,343.308z
			 M342.616,344.833c-12.666,13.158-29.599,19.738-50.796,19.738c-21.46,0-38.524-6.547-51.189-19.641
			c-12.668-13.093-19-31.122-19-54.094c0-14.701,2.198-27.039,6.596-37.015c3.281-7.35,7.76-13.946,13.437-19.787
			c5.677-5.841,11.896-10.173,18.656-12.995c8.989-3.806,19.358-5.71,31.107-5.71c21.264,0,38.277,6.596,51.043,19.787
			c12.764,13.192,19.147,31.536,19.147,55.03C361.617,313.446,355.282,331.675,342.616,344.833z M467.937,359.403
			c-8.401,3.51-18.869,5.266-31.404,5.266c-18.245,0-32.258-4.215-42.035-12.649c-9.779-8.433-15.621-20.722-17.523-36.867
			l28.352-2.757c1.706,9.518,5.17,16.506,10.386,20.969c5.218,4.465,12.257,6.694,21.117,6.694c9.385,0,16.455-1.983,21.215-5.956
			c4.758-3.971,7.137-8.614,7.137-13.93c0-3.411-1.001-6.315-3.003-8.712c-2.002-2.396-5.497-4.479-10.483-6.252
			c-3.414-1.181-11.19-3.28-23.332-6.3c-15.62-3.871-26.579-8.63-32.88-14.275c-8.86-7.94-13.29-17.62-13.29-29.04
			c0-7.35,2.082-14.225,6.252-20.625c4.167-6.398,10.171-11.272,18.015-14.619c7.842-3.347,17.31-5.02,28.401-5.02
			c18.114,0,31.747,3.972,40.903,11.912c9.155,7.941,13.961,18.541,14.422,31.797l-29.14,1.28
			c-1.247-7.416-3.923-12.749-8.023-15.998c-4.102-3.249-10.254-4.873-18.458-4.873c-8.466,0-15.096,1.739-19.885,5.217
			c-3.086,2.231-4.628,5.218-4.628,8.959c0,3.414,1.443,6.333,4.332,8.761c3.675,3.086,12.601,6.3,26.776,9.647
			c14.176,3.347,24.66,6.809,31.453,10.385c6.792,3.578,12.108,8.466,15.947,14.668c3.84,6.202,5.76,13.866,5.76,22.986
			c0,8.269-2.299,16.014-6.892,23.233C482.833,350.527,476.337,355.893,467.937,359.403z"/>
		<path fill="#FFFFFF" d="M291.722,240.237c-12.011,0-21.691,4.119-29.041,12.354c-7.35,8.237-11.024,20.658-11.024,37.261
			c0,16.341,3.773,28.731,11.319,37.163c7.547,8.434,17.129,12.65,28.746,12.65c11.617,0,21.148-4.184,28.598-12.553
			c7.449-8.366,11.173-20.919,11.173-37.654c0-16.538-3.626-28.875-10.877-37.015C313.362,244.307,303.731,240.237,291.722,240.237z
			"/>
	</g>
</g>
</svg>
