<?xml version="1.0" encoding="UTF-8"?>
<!-- Generator: Adobe Illustrator 15.0.0, SVG Export Plug-In . SVG Version: 6.00 Build 0)  -->
<!DOCTYPE svg PUBLIC "-//W3C//DTD SVG 1.1//EN" "http://www.w3.org/Graphics/SVG/1.1/DTD/svg11.dtd">
<svg version="1.1" xmlns="http://www.w3.org/2000/svg" xmlns:xlink="http://www.w3.org/1999/xlink" x="0px" y="0px" width="580px" height="580px" viewBox="0 0 580 580" enable-background="new 0 0 580 580" xml:space="preserve">
<g id="Layer_2">
	<g id="g1327">
		<path id="path1329" fill="#111111" stroke="#EEEEEE" stroke-width="3.408" d="M66.275,1.768    c-41.335,0-64.571,21.371-64.571,65.036v450.123c0,40.844,20.894,62.229,62.192,62.229H515.92    c41.307,0,62.229-20.316,62.229-62.229V66.804c0-42.601-20.923-65.036-63.522-65.036C514.624,1.768,66.133,1.625,66.275,1.768z"/>
	</g>
</g>
<g id="svg2" inkscape:output_extension="org.inkscape.output.svg.inkscape" inkscape:version="0.46" sodipodi:docname="waste_bin.svg" sodipodi:version="0.32" xmlns:inkscape="http://www.inkscape.org/namespaces/inkscape" xmlns:rdf="http://www.w3.org/1999/02/22-rdf-syntax-ns#" xmlns:svg="http://www.w3.org/2000/svg" xmlns:sodipodi="http://sodipodi.sourceforge.net/DTD/sodipodi-0.dtd" xmlns:cc="http://creativecommons.org/ns#" xmlns:dc="http://purl.org/dc/elements/1.1/">
	<path fill="#FFFFFF" d="M524.342,423.008c-4.074,1.243-9.334,1.005-16.232-0.471c-7.012-1.596-13.404-9.036-25.055-8.625   c-11.934,0.414-28.789,11.104-45.074,11.104c-16.518-0.352-35.066-11.577-51.92-11.577c-16.797,0.119-32.068,11.753-48.186,12.108   c-16.402,0.058-32.746-10.866-48.808-11.103c-16.288-0.412-31.728,9.688-46.942,9.567c-14.987-0.293-28.278-11.045-43.152-10.573   c-15.271,0.594-32.012,12.404-46.942,13.113c-15.043,0.237-28.674-10.984-41.964-11.104c-13.403-0.236-28.448,8.21-37.497,10.101   c-9.05,1.715-14.762,1.892-16.91,0.532v31.304c2.148,1.357,7.86,1.182,16.91-0.532c9.049-1.891,24.093-10.336,37.497-10.101   c13.291,0.119,26.921,11.34,41.964,11.102c14.931-0.588,31.672-12.697,46.942-13.111c14.874-0.59,28.164,10.396,43.152,10.631   c15.215,0.12,30.654-9.92,46.942-9.625c16.062,0.234,32.406,11.159,48.808,11.104c16.117-0.355,31.389-11.991,48.186-12.109   c16.854-0.057,35.402,11.341,51.92,11.639c16.285,0,33.143-10.694,45.074-11.105c11.65-0.533,18.043,7.027,25.055,8.563   c6.898,1.477,12.158,1.712,16.232,0.472V423.008z"/>
	<path fill="#FFFFFF" d="M524.342,475.398c-4.074,1.12-9.334,0.944-16.232-0.532c-7.012-1.534-13.404-9.098-25.055-8.565   c-11.934,0.412-28.789,11.103-45.074,11.103c-16.518-0.353-35.066-11.574-51.92-11.574c-16.797,0.119-32.068,11.754-48.186,12.106   c-16.402,0.06-32.746-10.866-48.808-11.104c-16.288-0.414-31.728,9.687-46.942,9.568c-14.987-0.295-28.278-11.045-43.152-10.571   c-15.271,0.589-32.012,12.401-46.942,13.112c-15.043,0.234-28.674-10.987-41.964-11.105c-13.403-0.234-28.448,8.21-37.497,10.101   c-9.05,1.833-14.762,1.771-16.91,0.473v31.303c2.148,1.299,7.86,1.36,16.91-0.473c9.049-1.893,24.093-10.335,37.497-10.101   c13.291,0.118,26.921,11.34,41.964,11.105c14.931-0.712,31.672-12.523,46.942-13.113c14.874-0.473,28.164,10.277,43.152,10.572   c15.215,0.118,30.654-9.982,46.942-9.568c16.062,0.237,32.406,11.163,48.808,11.103c16.117-0.353,31.389-11.991,48.186-12.106   c16.854,0,35.402,11.223,51.92,11.575c16.285,0,33.143-10.69,45.074-11.104c11.65-0.414,18.043,7.026,25.055,8.624   c6.898,1.477,12.158,1.714,16.232,0.475V475.398z"/>
	<path fill="#FFFFFF" d="M441.15,360l-1.65-2.858V261.5c0-11.046-8.954-20-20-20h-239v-132c0-1.022-0.101-2.019-0.249-3   c0.148-0.981,0.249-1.978,0.249-3c0-11.046-8.954-20-20-20h-144v40h124v138c0,11.046,8.954,20,20,20h239v75.642L397.85,360   l-21.65,37.5H419.5h43.301L441.15,360z"/>
</g>
</svg>