<?xml version="1.0" encoding="utf-8"?>
<!-- Generator: Adobe Illustrator 15.0.0, SVG Export Plug-In . SVG Version: 6.00 Build 0)  -->
<!DOCTYPE svg PUBLIC "-//W3C//DTD SVG 1.1//EN" "http://www.w3.org/Graphics/SVG/1.1/DTD/svg11.dtd">
<svg version="1.1" xmlns="http://www.w3.org/2000/svg" xmlns:xlink="http://www.w3.org/1999/xlink" x="0px" y="0px" width="580px"
	 height="580px" viewBox="0 0 580 580" enable-background="new 0 0 580 580" xml:space="preserve">
<g id="Layer_1">
	<g id="Layer_2">
		<g id="g1327">
			<path id="path1329" fill="#111111" stroke="#EEEEEE" stroke-width="3.408" d="M66.275,1.768
				c-41.335,0-64.571,21.371-64.571,65.036v450.123c0,40.844,20.895,62.229,62.192,62.229h452.024
				c41.307,0,62.229-20.315,62.229-62.229V66.804c0-42.602-20.923-65.036-63.521-65.036C514.625,1.768,66.133,1.625,66.275,1.768z"
				/>
		</g>
	</g>
</g>
<g id="Layer_2_1_">
	<path fill="#FFFFFF" d="M292.382,58.262c38.996,0,75.658,15.186,103.232,42.76s42.76,64.236,42.76,103.232v127.031v31.755v123.058
		c0,19.651-15.987,35.639-35.638,35.639H177.264c-19.651,0-35.638-15.987-35.638-35.639V363.041v-31.755V204.255
		c0-38.996,15.186-75.658,42.76-103.232s64.236-42.76,103.232-42.76H292.382 M292.382,46.262h-4.764
		c-87.257,0-157.992,70.735-157.992,157.992v127.031v31.755v123.058c0,26.31,21.328,47.639,47.638,47.639h225.472
		c26.31,0,47.638-21.329,47.638-47.639V363.041v-31.755V204.255C450.374,116.997,379.638,46.262,292.382,46.262L292.382,46.262z"/>
	<path fill="#FFFFFF" d="M288.006,134.801c78.081,87.292-132.29,59.228-132.29,132.29v57.478v26.59v103.038
		c0,22.03,17.858,39.889,39.888,39.889h188.792c22.029,0,39.888-17.858,39.888-39.889V351.159v-26.59v-46.979
		C424.284,204.528,405.562,95.892,288.006,134.801z"/>
</g>
</svg>
