<?xml version="1.0" encoding="utf-8"?>
<!-- Generator: Adobe Illustrator 15.0.0, SVG Export Plug-In . SVG Version: 6.00 Build 0)  -->
<!DOCTYPE svg PUBLIC "-//W3C//DTD SVG 1.1//EN" "http://www.w3.org/Graphics/SVG/1.1/DTD/svg11.dtd">
<svg version="1.1" xmlns="http://www.w3.org/2000/svg" xmlns:xlink="http://www.w3.org/1999/xlink" x="0px" y="0px" width="580px"
	 height="580px" viewBox="0 0 580 580" enable-background="new 0 0 580 580" xml:space="preserve">
<g id="Layer_2">
	<g id="g1327">
		<path id="path1329" fill="#111111" stroke="#EEEEEE" stroke-width="3.408" d="M66.275,1.768
			c-41.335,0-64.571,21.371-64.571,65.036v450.123c0,40.844,20.894,62.229,62.192,62.229H515.92
			c41.307,0,62.229-20.316,62.229-62.229V66.804c0-42.601-20.923-65.036-63.522-65.036C514.624,1.768,66.133,1.625,66.275,1.768z"/>
	</g>
</g>
<g id="svg2" inkscape:output_extension="org.inkscape.output.svg.inkscape" inkscape:version="0.46" sodipodi:docname="waste_bin.svg" sodipodi:version="0.32" xmlns:inkscape="http://www.inkscape.org/namespaces/inkscape" xmlns:rdf="http://www.w3.org/1999/02/22-rdf-syntax-ns#" xmlns:svg="http://www.w3.org/2000/svg" xmlns:sodipodi="http://sodipodi.sourceforge.net/DTD/sodipodi-0.dtd" xmlns:cc="http://creativecommons.org/ns#" xmlns:dc="http://purl.org/dc/elements/1.1/">
	<g>
		<path fill="#FFFFFF" d="M198.511,276.714c-47.899,25.235-134.616,45.728-126.58,89.288
			c9.162,49.024,104.639,15.351,161.701,43.158c57.062,28.129,110.104,116.694,142.252,102.389
			c50.872-22.304,0.763-121.034-18.646-190.192C340.039,261.042,273.495,237.253,198.511,276.714z"/>
		<path fill="#FFFFFF" d="M125.697,274.543c25.999,12.779,55.615-2.17,66.224-33.995c10.608-31.504-1.849-67.67-27.808-82.699
			c-25.959-10.93-55.574,4.42-66.183,36.246C87.322,225.519,99.739,261.765,125.697,274.543z"/>
		<path fill="#FFFFFF" d="M331.641,189.354c21.98-34.397,21.98-82.699,0-107.574c-22.302-25.235-58.146-17.559-80.449,16.839
			c-21.98,34.397-21.98,82.657,0,107.893C273.495,231.386,309.339,224.073,331.641,189.354z"/>
		<path fill="#FFFFFF" d="M442.469,269.079c34.759-24.151,53.766-68.393,42.434-99.135c-11.693-30.74-49.386-36.205-83.783-12.094
			h-0.321c-34.76,24.149-53.445,68.393-42.073,99.132C370.057,287.724,407.709,293.188,442.469,269.079z"/>
		<path fill="#FFFFFF" d="M507.928,360.858c-5.104-27.807-35.12-43.157-66.906-34.719c-31.825,8.76-53.404,37.651-48.663,65.098
			c5.144,27.808,35.121,43.158,66.947,34.72C491.131,417.557,512.71,388.303,507.928,360.858z"/>
	</g>
</g>
</svg>
