<?xml version="1.0" encoding="UTF-8" standalone="no"?>
<!-- Generator: Adobe Illustrator 15.0.0, SVG Export Plug-In . SVG Version: 6.00 Build 0)  -->

<svg
   xmlns:dc="http://purl.org/dc/elements/1.1/"
   xmlns:cc="http://creativecommons.org/ns#"
   xmlns:rdf="http://www.w3.org/1999/02/22-rdf-syntax-ns#"
   xmlns:svg="http://www.w3.org/2000/svg"
   xmlns="http://www.w3.org/2000/svg"
   xmlns:sodipodi="http://sodipodi.sourceforge.net/DTD/sodipodi-0.dtd"
   xmlns:inkscape="http://www.inkscape.org/namespaces/inkscape"
   version="1.1"
   x="0px"
   y="0px"
   width="580px"
   height="580px"
   viewBox="0 0 580 580"
   enable-background="new 0 0 580 580"
   xml:space="preserve"
   id="svg3047"
   sodipodi:docname="garagesl.svg"
   inkscape:version="0.92.3 (2405546, 2018-03-11)"
   inkscape:export-filename="../png/building_school.png"
   inkscape:export-xdpi="7.9448276"
   inkscape:export-ydpi="7.9448276"><metadata
   id="metadata2704"><rdf:RDF><cc:Work
       rdf:about=""><dc:format>image/svg+xml</dc:format><dc:type
         rdf:resource="http://purl.org/dc/dcmitype/StillImage" /><dc:title></dc:title></cc:Work></rdf:RDF></metadata><defs
   id="defs3051" /><sodipodi:namedview
   id="namedview3049"
   pagecolor="#ffffff"
   bordercolor="#666666"
   borderopacity="1.0"
   inkscape:pageshadow="2"
   inkscape:pageopacity="0.0"
   inkscape:pagecheckerboard="0"
   inkscape:deskcolor="#d1d1d1"
   showgrid="false"
   inkscape:zoom="1"
   inkscape:cx="262.64359"
   inkscape:cy="285.77404"
   inkscape:window-width="1431"
   inkscape:window-height="915"
   inkscape:window-x="321"
   inkscape:window-y="12"
   inkscape:window-maximized="0"
   inkscape:current-layer="svg3047" />
<g
   id="Layer_1">
	<g
   id="Layer_2">
		<g
   id="g1327">
			<path
   id="path1329"
   d="M66.275,1.768     c-41.335,0-64.571,21.371-64.571,65.036v450.123c0,40.844,20.895,62.229,62.192,62.229H515.92     c41.307,0,62.229-20.315,62.229-62.229V66.804c0-42.601-20.924-65.036-63.521-65.036C514.624,1.768,66.133,1.625,66.275,1.768z"
   stroke-width="3.408"
   stroke="#EEEEEE"
   fill="#111111" />
		</g>
	</g>
</g>

<g
   id="g4066"
   transform="translate(-8.4058725,18.191798)"><g
     transform="matrix(0.80172243,0,0,0.80172243,-77.6374,-36.415138)"
     id="g4024"><g
       id="g5256"
       transform="matrix(0.66666475,0,0,0.6057717,115.45677,220.87234)"><g
         id="g3437"
         transform="translate(4.9212008,-12.886918)">
		<polygon
   points="42.629,195.047 28.896,166.144 285.033,44.448 550.893,166.045 537.582,195.146 285.29,79.754 "
   id="polygon3435"
   style="fill:#ffffff" />
	</g><g
         id="g3447"
         transform="translate(4.9212008,-12.886918)">
		<g
   id="g3441">
			<rect
   x="51.512001"
   y="199.83299"
   width="15"
   height="323.33301"
   id="rect3439"
   style="fill:#ffffff" />
		</g>
		<g
   id="g3445">
			<rect
   x="513.48798"
   y="199.83299"
   width="15"
   height="323.33301"
   id="rect3443"
   style="fill:#ffffff" />
		</g>
	</g></g><path
       inkscape:connector-curvature="0"
       style="fill:#ffffff;stroke:none;stroke-width:0.50845927"
       d="m 256.41745,315.876 c -16.13316,0 -24.69145,8.80766 -28.64247,19.11734 l -20.97317,54.15461 c -8.31415,1.06609 -23.05261,10.82536 -23.05261,29.31326 v 68.86713 h 20.41419 v 22.02408 c 0,27.09608 38.34647,26.77696 38.34647,0 v -22.02408 h 68.97894 0.0224 68.9789 v 22.02408 c 0,26.77696 38.34629,27.09608 38.3465,0 v -22.02408 h 20.41416 v -68.86713 c 0,-18.48788 -14.73836,-28.24717 -23.05265,-29.31326 L 395.20263,334.99334 C 391.25162,324.68366 382.69342,315.876 366.56013,315.876 H 336.91155 286.4238 Z m -0.24596,19.72105 h 55.2726 0.0447 0.0224 55.29491 c 6.91389,0.0644 9.87501,4.38817 11.8505,10.37478 l 15.80811,42.61713 h -82.95352 -0.0224 -0.0447 -82.93124 l 15.80812,-42.61713 c 1.97553,-5.98661 4.9359,-10.3104 11.85052,-10.37478 z m -32.21997,73.71913 c 9.78307,0 17.70869,8.16245 17.70869,18.24532 0,10.08359 -7.92562,18.26768 -17.70869,18.26768 -9.78236,0 -17.7087,-8.18411 -17.7087,-18.26768 0,-10.08285 7.92634,-18.24532 17.7087,-18.24532 z m 175.09693,0 c 9.78308,0 17.70876,8.16247 17.70869,18.24532 0,10.08357 -7.92561,18.26768 -17.70869,18.26768 -9.78235,0 -17.7311,-8.18409 -17.7311,-18.26768 0,-10.08287 7.94875,-18.24532 17.7311,-18.24532 z"
       id="path2301" /></g><g
     id="g4044"
     transform="matrix(0.80172243,0,0,0.80172243,174.02734,-36.415138)"><g
       transform="matrix(0.66666475,0,0,0.6057717,115.45677,220.87234)"
       id="g4040"><g
         transform="translate(4.9212008,-12.886918)"
         id="g4028">
		<polygon
   style="fill:#ffffff"
   id="polygon4026"
   points="537.582,195.146 285.29,79.754 42.629,195.047 28.896,166.144 285.033,44.448 550.893,166.045 " />
	</g><g
         transform="translate(4.9212008,-12.886918)"
         id="g4038">
		<g
   id="g4032">
			<rect
   style="fill:#ffffff"
   id="rect4030"
   height="323.33301"
   width="15"
   y="199.83299"
   x="51.512001" />
		</g>
		<g
   id="g4036">
			<rect
   style="fill:#ffffff"
   id="rect4034"
   height="323.33301"
   width="15"
   y="199.83299"
   x="513.48798" />
		</g>
	</g></g><path
       id="path4042"
       d="m 256.41745,315.876 c -16.13316,0 -24.69145,8.80766 -28.64247,19.11734 l -20.97317,54.15461 c -8.31415,1.06609 -23.05261,10.82536 -23.05261,29.31326 v 68.86713 h 20.41419 v 22.02408 c 0,27.09608 38.34647,26.77696 38.34647,0 v -22.02408 h 68.97894 0.0224 68.9789 v 22.02408 c 0,26.77696 38.34629,27.09608 38.3465,0 v -22.02408 h 20.41416 v -68.86713 c 0,-18.48788 -14.73836,-28.24717 -23.05265,-29.31326 L 395.20263,334.99334 C 391.25162,324.68366 382.69342,315.876 366.56013,315.876 H 336.91155 286.4238 Z m -0.24596,19.72105 h 55.2726 0.0447 0.0224 55.29491 c 6.91389,0.0644 9.87501,4.38817 11.8505,10.37478 l 15.80811,42.61713 h -82.95352 -0.0224 -0.0447 -82.93124 l 15.80812,-42.61713 c 1.97553,-5.98661 4.9359,-10.3104 11.85052,-10.37478 z m -32.21997,73.71913 c 9.78307,0 17.70869,8.16245 17.70869,18.24532 0,10.08359 -7.92562,18.26768 -17.70869,18.26768 -9.78236,0 -17.7087,-8.18411 -17.7087,-18.26768 0,-10.08285 7.92634,-18.24532 17.7087,-18.24532 z m 175.09693,0 c 9.78308,0 17.70876,8.16247 17.70869,18.24532 0,10.08357 -7.92561,18.26768 -17.70869,18.26768 -9.78235,0 -17.7311,-8.18409 -17.7311,-18.26768 0,-10.08287 7.94875,-18.24532 17.7311,-18.24532 z"
       style="fill:#ffffff;stroke:none;stroke-width:0.50845927"
       inkscape:connector-curvature="0" /></g></g></svg>