<?xml version="1.0" encoding="utf-8"?>
<!-- Generator: Adobe Illustrator 15.0.0, SVG Export Plug-In . SVG Version: 6.00 Build 0)  -->
<!DOCTYPE svg PUBLIC "-//W3C//DTD SVG 1.1//EN" "http://www.w3.org/Graphics/SVG/1.1/DTD/svg11.dtd">
<svg version="1.1" xmlns="http://www.w3.org/2000/svg" xmlns:xlink="http://www.w3.org/1999/xlink" x="0px" y="0px" width="580px"
	 height="580px" viewBox="0 0 580 580" enable-background="new 0 0 580 580" xml:space="preserve">
<g id="Layer_2">
	<g id="g1327">
		<path id="path1329" fill="#111111" stroke="#EEEEEE" stroke-width="3.408" d="M66.275,1.768
			c-41.335,0-64.571,21.371-64.571,65.036v450.123c0,40.844,20.894,62.229,62.192,62.229H515.92
			c41.307,0,62.229-20.316,62.229-62.229V66.804c0-42.601-20.923-65.036-63.522-65.036C514.624,1.768,66.133,1.625,66.275,1.768z"/>
	</g>
</g>
<g id="svg2" inkscape:output_extension="org.inkscape.output.svg.inkscape" inkscape:version="0.46" sodipodi:docname="waste_bin.svg" sodipodi:version="0.32" xmlns:inkscape="http://www.inkscape.org/namespaces/inkscape" xmlns:rdf="http://www.w3.org/1999/02/22-rdf-syntax-ns#" xmlns:svg="http://www.w3.org/2000/svg" xmlns:sodipodi="http://sodipodi.sourceforge.net/DTD/sodipodi-0.dtd" xmlns:cc="http://creativecommons.org/ns#" xmlns:dc="http://purl.org/dc/elements/1.1/">
	<path id="path6080-4" inkscape:connector-curvature="0" sodipodi:nodetypes="ssscccscccsssscccccss" fill="#FFFFFF" d="
		M165.56,52.982c-7.494,0-8.883,16.578-8.883,29.627v59.255c0,60.181,59.255,90.734,118.51,88.882v237.016
		c-29.627-59.254-118.51-148.135-207.391-118.507c0,0,74.067,177.762,222.204,177.762c148.137,0,222.205-177.762,222.205-177.762
		c-88.882-29.628-177.764,59.253-207.39,118.507V230.747c59.254,1.852,118.508-28.701,118.508-88.882V82.609
		c0-13.049-1.388-29.627-8.881-29.627c-5.701,0-12.615,6.682-20.745,14.814l-44.442,44.441l-44.439-49.997
		c-4.63-5.209-7.321-9.258-14.815-9.258c-7.493,0-10.184,4.049-14.813,9.258l-44.441,49.997l-44.441-44.441
		C178.175,59.665,171.259,52.982,165.56,52.982z"/>
</g>
</svg>
