<?xml version="1.0" encoding="UTF-8" standalone="no"?>
<!-- Generator: Adobe Illustrator 15.0.0, SVG Export Plug-In . SVG Version: 6.00 Build 0)  -->

<svg
   xmlns:dc="http://purl.org/dc/elements/1.1/"
   xmlns:cc="http://creativecommons.org/ns#"
   xmlns:rdf="http://www.w3.org/1999/02/22-rdf-syntax-ns#"
   xmlns:svg="http://www.w3.org/2000/svg"
   xmlns="http://www.w3.org/2000/svg"
   xmlns:sodipodi="http://sodipodi.sourceforge.net/DTD/sodipodi-0.dtd"
   xmlns:inkscape="http://www.inkscape.org/namespaces/inkscape"
   version="1.1"
   x="0px"
   y="0px"
   width="580px"
   height="580px"
   viewBox="0 0 580 580"
   enable-background="new 0 0 580 580"
   xml:space="preserve"
   id="svg3047"
   sodipodi:docname="greenhouse.svg"
   inkscape:version="0.92.3 (2405546, 2018-03-11)"
   inkscape:export-filename="../png/building_school.png"
   inkscape:export-xdpi="7.9448276"
   inkscape:export-ydpi="7.9448276"><metadata
   id="metadata2704"><rdf:RDF><cc:Work
       rdf:about=""><dc:format>image/svg+xml</dc:format><dc:type
         rdf:resource="http://purl.org/dc/dcmitype/StillImage" /><dc:title></dc:title></cc:Work></rdf:RDF></metadata><defs
   id="defs3051">
		
		
	
		
		
	</defs><sodipodi:namedview
   id="namedview3049"
   pagecolor="#ffffff"
   bordercolor="#666666"
   borderopacity="1.0"
   inkscape:pageshadow="2"
   inkscape:pageopacity="0.0"
   inkscape:pagecheckerboard="0"
   inkscape:deskcolor="#d1d1d1"
   showgrid="false"
   inkscape:zoom="1"
   inkscape:cx="304.34359"
   inkscape:cy="285.77404"
   inkscape:window-width="1431"
   inkscape:window-height="915"
   inkscape:window-x="321"
   inkscape:window-y="12"
   inkscape:window-maximized="0"
   inkscape:current-layer="svg3047" />
<g
   id="Layer_1">
	<g
   id="Layer_2">
		<g
   id="g1327">
			<path
   id="path1329"
   d="M66.275,1.768     c-41.335,0-64.571,21.371-64.571,65.036v450.123c0,40.844,20.895,62.229,62.192,62.229H515.92     c41.307,0,62.229-20.315,62.229-62.229V66.804c0-42.601-20.924-65.036-63.521-65.036C514.624,1.768,66.133,1.625,66.275,1.768z"
   stroke-width="3.408"
   stroke="#EEEEEE"
   fill="#111111" />
		</g>
	</g>
</g>

<g
   id="g2288"
   transform="matrix(0.99139765,0,0,1.1806494,2.4940499,-52.466047)"><g
     id="g2277"><g
       transform="matrix(0.53448008,0,0,0.48566076,9.151294,152.5963)"
       id="g3437">
		<polygon
   style="fill:#ffffff"
   id="polygon3435"
   points="550.893,166.045 537.582,195.146 285.29,79.754 42.629,195.047 28.896,166.144 285.033,44.448 " />
	</g><g
       id="g3441"
       transform="matrix(0.53448008,0,0,0.48566076,9.151294,152.5963)">
			<rect
   x="51.512001"
   y="199.83299"
   width="15"
   height="323.33301"
   id="rect3439"
   style="fill:#ffffff" />
		</g><g
       id="g4028"
       transform="matrix(0.53448008,0,0,0.48566076,260.81603,152.5963)">
		<polygon
   points="28.896,166.144 285.033,44.448 550.893,166.045 537.582,195.146 285.29,79.754 42.629,195.047 "
   id="polygon4026"
   style="fill:#ffffff" />
	</g></g><g
     transform="matrix(0.53448008,0,0,0.48566076,260.81603,152.5963)"
     id="g4036">
			<rect
   x="513.48798"
   y="199.83299"
   width="15"
   height="323.33301"
   id="rect4034"
   style="fill:#ffffff" />
		</g></g><g
   transform="matrix(0.23718667,0,0,0.23718667,40.304004,274.92108)"
   id="Layer_2_1_"><g
     id="g2151"><path
       style="fill:#ffffff"
       inkscape:connector-curvature="0"
       d="m 162.978,168.224 c 18.464,45.516 37.79,90.662 58.367,135.146 20.61,44.448 42.395,88.339 66.588,130.537 12.119,21.063 24.855,41.71 38.653,61.306 4.674,6.63 9.485,13.118 14.439,19.426 L 336.03,472.278 C 393.511,122.46 169.606,71.718 122.894,64.978 c 12.818,34.617 26.246,69.04 40.084,103.246 z"
       id="path2147" /><path
       style="fill:#ffffff"
       inkscape:connector-curvature="0"
       d="M 301.412,512.201 C 287.704,490.974 275.44,469.164 263.883,447.09 240.846,402.907 220.619,357.671 201.621,312.025 182.669,266.359 165.066,220.23 148.358,173.815 135.916,139.142 123.917,104.354 112.509,69.343 -3.107,382.201 279.274,510.73 279.274,510.73 l 36.663,22.728 c -5.056,-6.996 -9.886,-14.088 -14.525,-21.257 z"
       id="path2149" /></g><g
     id="g2157"><path
       style="fill:#ffffff"
       inkscape:connector-curvature="0"
       d="m 460.47,379.732 c -13.152,20.813 -26.697,41.366 -40.8,61.482 -14.115,20.096 -28.762,39.812 -44.446,58.478 -7.851,9.314 -15.968,18.367 -24.515,26.808 -2.896,2.855 -5.846,5.629 -8.85,8.3 l 6.229,-20.453 c 2.727,-177.672 117.688,-182.809 141.33,-181.983 -9.399,15.937 -19.081,31.725 -28.948,47.368 z"
       id="path2153" /><path
       style="fill:#ffffff"
       inkscape:connector-curvature="0"
       d="m 361.619,537.117 c 8.648,-9.253 16.635,-18.922 24.298,-28.784 15.29,-19.749 29.287,-40.268 42.714,-61.096 13.407,-20.845 26.189,-42.035 38.556,-63.448 9.218,-15.998 18.229,-32.094 26.967,-48.351 29.236,164.605 -121.483,202.92 -121.483,202.92 l -20.105,7.954 c 3.114,-3.003 6.127,-6.072 9.053,-9.195 z"
       id="path2155" /></g></g><g
   id="g2302"
   transform="matrix(0.23718667,0,0,0.23718667,158.304,274.92108)"><g
     id="g2294"><path
       id="path2290"
       d="m 162.978,168.224 c 18.464,45.516 37.79,90.662 58.367,135.146 20.61,44.448 42.395,88.339 66.588,130.537 12.119,21.063 24.855,41.71 38.653,61.306 4.674,6.63 9.485,13.118 14.439,19.426 L 336.03,472.278 C 393.511,122.46 169.606,71.718 122.894,64.978 c 12.818,34.617 26.246,69.04 40.084,103.246 z"
       inkscape:connector-curvature="0"
       style="fill:#ffffff" /><path
       id="path2292"
       d="M 301.412,512.201 C 287.704,490.974 275.44,469.164 263.883,447.09 240.846,402.907 220.619,357.671 201.621,312.025 182.669,266.359 165.066,220.23 148.358,173.815 135.916,139.142 123.917,104.354 112.509,69.343 -3.107,382.201 279.274,510.73 279.274,510.73 l 36.663,22.728 c -5.056,-6.996 -9.886,-14.088 -14.525,-21.257 z"
       inkscape:connector-curvature="0"
       style="fill:#ffffff" /></g><g
     id="g2300"><path
       id="path2296"
       d="m 460.47,379.732 c -13.152,20.813 -26.697,41.366 -40.8,61.482 -14.115,20.096 -28.762,39.812 -44.446,58.478 -7.851,9.314 -15.968,18.367 -24.515,26.808 -2.896,2.855 -5.846,5.629 -8.85,8.3 l 6.229,-20.453 c 2.727,-177.672 117.688,-182.809 141.33,-181.983 -9.399,15.937 -19.081,31.725 -28.948,47.368 z"
       inkscape:connector-curvature="0"
       style="fill:#ffffff" /><path
       id="path2298"
       d="m 361.619,537.117 c 8.648,-9.253 16.635,-18.922 24.298,-28.784 15.29,-19.749 29.287,-40.268 42.714,-61.096 13.407,-20.845 26.189,-42.035 38.556,-63.448 9.218,-15.998 18.229,-32.094 26.967,-48.351 29.236,164.605 -121.483,202.92 -121.483,202.92 l -20.105,7.954 c 3.114,-3.003 6.127,-6.072 9.053,-9.195 z"
       inkscape:connector-curvature="0"
       style="fill:#ffffff" /></g></g><g
   transform="matrix(0.23718667,0,0,0.23718667,277.304,273.92108)"
   id="g2316"><g
     id="g2308"><path
       style="fill:#ffffff"
       inkscape:connector-curvature="0"
       d="m 162.978,168.224 c 18.464,45.516 37.79,90.662 58.367,135.146 20.61,44.448 42.395,88.339 66.588,130.537 12.119,21.063 24.855,41.71 38.653,61.306 4.674,6.63 9.485,13.118 14.439,19.426 L 336.03,472.278 C 393.511,122.46 169.606,71.718 122.894,64.978 c 12.818,34.617 26.246,69.04 40.084,103.246 z"
       id="path2304" /><path
       style="fill:#ffffff"
       inkscape:connector-curvature="0"
       d="M 301.412,512.201 C 287.704,490.974 275.44,469.164 263.883,447.09 240.846,402.907 220.619,357.671 201.621,312.025 182.669,266.359 165.066,220.23 148.358,173.815 135.916,139.142 123.917,104.354 112.509,69.343 -3.107,382.201 279.274,510.73 279.274,510.73 l 36.663,22.728 c -5.056,-6.996 -9.886,-14.088 -14.525,-21.257 z"
       id="path2306" /></g><g
     id="g2314"><path
       style="fill:#ffffff"
       inkscape:connector-curvature="0"
       d="m 460.47,379.732 c -13.152,20.813 -26.697,41.366 -40.8,61.482 -14.115,20.096 -28.762,39.812 -44.446,58.478 -7.851,9.314 -15.968,18.367 -24.515,26.808 -2.896,2.855 -5.846,5.629 -8.85,8.3 l 6.229,-20.453 c 2.727,-177.672 117.688,-182.809 141.33,-181.983 -9.399,15.937 -19.081,31.725 -28.948,47.368 z"
       id="path2310" /><path
       style="fill:#ffffff"
       inkscape:connector-curvature="0"
       d="m 361.619,537.117 c 8.648,-9.253 16.635,-18.922 24.298,-28.784 15.29,-19.749 29.287,-40.268 42.714,-61.096 13.407,-20.845 26.189,-42.035 38.556,-63.448 9.218,-15.998 18.229,-32.094 26.967,-48.351 29.236,164.605 -121.483,202.92 -121.483,202.92 l -20.105,7.954 c 3.114,-3.003 6.127,-6.072 9.053,-9.195 z"
       id="path2312" /></g></g><g
   id="g2330"
   transform="matrix(0.23718667,0,0,0.23718667,394.304,273.92108)"><g
     id="g2322"><path
       id="path2318"
       d="m 162.978,168.224 c 18.464,45.516 37.79,90.662 58.367,135.146 20.61,44.448 42.395,88.339 66.588,130.537 12.119,21.063 24.855,41.71 38.653,61.306 4.674,6.63 9.485,13.118 14.439,19.426 L 336.03,472.278 C 393.511,122.46 169.606,71.718 122.894,64.978 c 12.818,34.617 26.246,69.04 40.084,103.246 z"
       inkscape:connector-curvature="0"
       style="fill:#ffffff" /><path
       id="path2320"
       d="M 301.412,512.201 C 287.704,490.974 275.44,469.164 263.883,447.09 240.846,402.907 220.619,357.671 201.621,312.025 182.669,266.359 165.066,220.23 148.358,173.815 135.916,139.142 123.917,104.354 112.509,69.343 -3.107,382.201 279.274,510.73 279.274,510.73 l 36.663,22.728 c -5.056,-6.996 -9.886,-14.088 -14.525,-21.257 z"
       inkscape:connector-curvature="0"
       style="fill:#ffffff" /></g><g
     id="g2328"><path
       id="path2324"
       d="m 460.47,379.732 c -13.152,20.813 -26.697,41.366 -40.8,61.482 -14.115,20.096 -28.762,39.812 -44.446,58.478 -7.851,9.314 -15.968,18.367 -24.515,26.808 -2.896,2.855 -5.846,5.629 -8.85,8.3 l 6.229,-20.453 c 2.727,-177.672 117.688,-182.809 141.33,-181.983 -9.399,15.937 -19.081,31.725 -28.948,47.368 z"
       inkscape:connector-curvature="0"
       style="fill:#ffffff" /><path
       id="path2326"
       d="m 361.619,537.117 c 8.648,-9.253 16.635,-18.922 24.298,-28.784 15.29,-19.749 29.287,-40.268 42.714,-61.096 13.407,-20.845 26.189,-42.035 38.556,-63.448 9.218,-15.998 18.229,-32.094 26.967,-48.351 29.236,164.605 -121.483,202.92 -121.483,202.92 l -20.105,7.954 c 3.114,-3.003 6.127,-6.072 9.053,-9.195 z"
       inkscape:connector-curvature="0"
       style="fill:#ffffff" /></g></g></svg>