<?xml version="1.0" encoding="UTF-8" standalone="no"?>
<!-- Generator: Adobe Illustrator 15.0.0, SVG Export Plug-In . SVG Version: 6.00 Build 0)  -->

<svg
   xmlns:dc="http://purl.org/dc/elements/1.1/"
   xmlns:cc="http://creativecommons.org/ns#"
   xmlns:rdf="http://www.w3.org/1999/02/22-rdf-syntax-ns#"
   xmlns:svg="http://www.w3.org/2000/svg"
   xmlns="http://www.w3.org/2000/svg"
   xmlns:sodipodi="http://sodipodi.sourceforge.net/DTD/sodipodi-0.dtd"
   xmlns:inkscape="http://www.inkscape.org/namespaces/inkscape"
   version="1.1"
   x="0px"
   y="0px"
   width="580px"
   height="580px"
   viewBox="0 0 580 580"
   enable-background="new 0 0 580 580"
   xml:space="preserve"
   id="svg3000"
   inkscape:version="0.48.4 r9939"
   sodipodi:docname="residential_sp.svg"><metadata
   id="metadata3013"><rdf:RDF><cc:Work
       rdf:about=""><dc:format>image/svg+xml</dc:format><dc:type
         rdf:resource="http://purl.org/dc/dcmitype/StillImage" /><dc:title></dc:title></cc:Work></rdf:RDF></metadata><defs
   id="defs3011" /><sodipodi:namedview
   pagecolor="#ffffff"
   bordercolor="#666666"
   borderopacity="1"
   objecttolerance="10"
   gridtolerance="10"
   guidetolerance="10"
   inkscape:pageopacity="0"
   inkscape:pageshadow="2"
   inkscape:window-width="1725"
   inkscape:window-height="1026"
   id="namedview3009"
   showgrid="false"
   inkscape:snap-nodes="false"
   inkscape:zoom="1.0965517"
   inkscape:cx="44.703621"
   inkscape:cy="398.69183"
   inkscape:window-x="145"
   inkscape:window-y="76"
   inkscape:window-maximized="0"
   inkscape:current-layer="svg3000" />
<g
   id="Layer_1"
   transform="translate(0.0735,-0.43022222)">
	<g
   id="Layer_2">
		<g
   id="g1327">
			<path
   id="path1329"
   d="M 66.275,1.768 C 24.94,1.768 1.704,23.139 1.704,66.804 v 450.123 c 0,40.844 20.895,62.229 62.192,62.229 H 515.92 c 41.307,0 62.229,-20.315 62.229,-62.229 V 66.804 c 0,-42.602 -20.923,-65.036 -63.521,-65.036 -0.003,0 -448.495,-0.143 -448.353,0 z"
   inkscape:connector-curvature="0"
   style="fill:#111111;stroke:#eeeeee;stroke-width:3.40799999" />
		</g>
	</g>
</g>

<g
   id="g5041"
   transform="translate(-11.39937,1.35377)"><path
     sodipodi:nodetypes="cccc"
     style="fill:none;stroke:#ffffff;stroke-width:38.46075821;stroke-linecap:butt;stroke-linejoin:miter;stroke-miterlimit:4;stroke-opacity:1;stroke-dasharray:none"
     d="m 180.9093,208.90143 -1.19078,227.47197 237.27556,1.85462 -0.18112,-228.35322"
     id="path4434"
     inkscape:connector-curvature="0" /><path
     style="fill:none;stroke:#ffffff;stroke-width:38.46075821;stroke-linecap:butt;stroke-linejoin:miter;stroke-miterlimit:4;stroke-opacity:1;stroke-dasharray:none"
     d="M 120.2141,248.48646 294.2339,139.06444 482.58464,246.63185"
     id="path4438"
     inkscape:connector-curvature="0" /><path
     sodipodi:nodetypes="ccccc"
     inkscape:connector-curvature="0"
     id="path4525"
     d="m 199.89861,231.89874 77.18329,-0.66656 1.30279,84.68194 -78.80418,0.31812 z"
     style="fill:none;stroke:#ffffff;stroke-width:1.42858648px;stroke-linecap:butt;stroke-linejoin:miter;stroke-opacity:1" /><path
     sodipodi:nodetypes="ccccc"
     inkscape:connector-curvature="0"
     id="path5035"
     d="m 295.83729,442.54668 1.16906,-141.45665 68.46051,0.25711 1.68329,143.53767 z"
     style="fill:none;stroke:#ffffff;stroke-width:1.2819382px;stroke-linecap:butt;stroke-linejoin:miter;stroke-opacity:1" /><path
     inkscape:connector-curvature="0"
     id="path5039"
     d="m 367.80965,408.88522 c -0.5214,-54.79268 -1.36773,-107.31677 -1.73495,-107.67351 -0.25079,-0.24363 -16.05032,-0.58093 -35.11007,-0.74956 l -34.65408,-0.30659 -0.5542,42.85146 c -0.3048,23.56831 -0.61258,49.93048 -0.68396,58.5826 l -0.12977,15.73113 -48.02559,0 -48.0256,0 0.60296,-36.25 c 0.33163,-19.9375 0.60353,-42.50825 0.60421,-50.15723 l 0.001,-13.90723 39.81603,0 39.81602,0 -0.60219,-23.40265 c -0.3312,-12.87146 -0.60218,-32.38099 -0.60218,-43.35452 l 0,-19.95187 -39.25299,0.2649 -39.25298,0.26489 0.26713,-4.8643 0.26714,-4.8643 24.16666,-15.2164 c 13.29167,-8.36901 34.48406,-21.69986 47.0942,-29.62411 l 22.92754,-14.40772 50.94039,29.12001 50.94039,29.12001 0.23204,99.07124 0.23204,99.07123 -14.59525,0 -14.59524,0 -0.0889,-9.34748 -3e-5,0 z"
     style="fill:#ffffff;fill-opacity:1;stroke:#ffffff;stroke-width:14.59119511;stroke-linecap:butt;stroke-linejoin:miter;stroke-miterlimit:4;stroke-opacity:1;stroke-dasharray:none" /></g></svg>