<?xml version="1.0" encoding="UTF-8" standalone="no"?>
<!-- Generator: Adobe Illustrator 15.0.0, SVG Export Plug-In . SVG Version: 6.00 Build 0)  -->

<svg
   xmlns:osb="http://www.openswatchbook.org/uri/2009/osb"
   xmlns:dc="http://purl.org/dc/elements/1.1/"
   xmlns:cc="http://creativecommons.org/ns#"
   xmlns:rdf="http://www.w3.org/1999/02/22-rdf-syntax-ns#"
   xmlns:svg="http://www.w3.org/2000/svg"
   xmlns="http://www.w3.org/2000/svg"
   xmlns:xlink="http://www.w3.org/1999/xlink"
   xmlns:sodipodi="http://sodipodi.sourceforge.net/DTD/sodipodi-0.dtd"
   xmlns:inkscape="http://www.inkscape.org/namespaces/inkscape"
   version="1.1"
   x="0px"
   y="0px"
   width="580px"
   height="580px"
   viewBox="0 0 580 580"
   enable-background="new 0 0 580 580"
   xml:space="preserve"
   id="svg3000"
   inkscape:version="0.48.4 r9939"
   sodipodi:docname="landuse_sp.svg"><metadata
   id="metadata3013"><rdf:RDF><cc:Work
       rdf:about=""><dc:format>image/svg+xml</dc:format><dc:type
         rdf:resource="http://purl.org/dc/dcmitype/StillImage" /><dc:title></dc:title></cc:Work></rdf:RDF></metadata><defs
   id="defs3011"><pattern
     inkscape:stockid="Checkerboard white"
     id="Checkerboardwhite"
     patternTransform="translate(0,0) scale(10,10)"
     height="2"
     width="2"
     patternUnits="userSpaceOnUse"
     inkscape:collect="always"><rect
       id="rect7033"
       height="1"
       width="1"
       y="0"
       x="0"
       style="fill:white;stroke:none" /><rect
       id="rect7035"
       height="1"
       width="1"
       y="1"
       x="1"
       style="fill:white;stroke:none" /></pattern><linearGradient
     id="linearGradient7668"
     osb:paint="solid"><stop
       style="stop-color:#000000;stop-opacity:1;"
       offset="0"
       id="stop7670" /></linearGradient><linearGradient
     inkscape:collect="always"
     xlink:href="#linearGradient7668"
     id="linearGradient7672"
     x1="78.866604"
     y1="284.8132"
     x2="538.46031"
     y2="284.8132"
     gradientUnits="userSpaceOnUse" /><linearGradient
     inkscape:collect="always"
     xlink:href="#linearGradient7668"
     id="linearGradient7760"
     gradientUnits="userSpaceOnUse"
     x1="78.866604"
     y1="284.8132"
     x2="538.46031"
     y2="284.8132" /></defs><sodipodi:namedview
   pagecolor="#ffffff"
   bordercolor="#666666"
   borderopacity="1"
   objecttolerance="10"
   gridtolerance="10"
   guidetolerance="10"
   inkscape:pageopacity="0"
   inkscape:pageshadow="2"
   inkscape:window-width="1725"
   inkscape:window-height="1026"
   id="namedview3009"
   showgrid="false"
   inkscape:snap-nodes="false"
   inkscape:zoom="1.0965517"
   inkscape:cx="142.58516"
   inkscape:cy="345.30308"
   inkscape:window-x="145"
   inkscape:window-y="76"
   inkscape:window-maximized="0"
   inkscape:current-layer="svg3000" />
<g
   id="Layer_1"
   transform="translate(0.0735,-0.43022222)">
	<g
   id="Layer_2">
		<g
   id="g1327">
			<path
   id="path1329"
   d="M 66.275,1.768 C 24.94,1.768 1.704,23.139 1.704,66.804 v 450.123 c 0,40.844 20.895,62.229 62.192,62.229 H 515.92 c 41.307,0 62.229,-20.315 62.229,-62.229 V 66.804 c 0,-42.602 -20.923,-65.036 -63.521,-65.036 -0.003,0 -448.495,-0.143 -448.353,0 z"
   inkscape:connector-curvature="0"
   style="fill:#111111;stroke:#eeeeee;stroke-width:3.40799999" />
		</g>
	</g>
</g>

<g
   id="g7756"
   transform="translate(-18.663456,5.1868044)"><path
     sodipodi:nodetypes="csscscsssssssssc"
     inkscape:connector-curvature="0"
     id="path5724"
     d="m 120.37736,478.77358 c 106.69812,-17.32704 67.48428,29.18239 130.40881,5.4717 62.92453,-23.71069 62.92453,-8.20755 79.33962,-49.24528 16.4151,-41.03774 67.48428,-47.42139 67.48428,-47.42139 0,0 -16.41509,-2.73585 38.30189,1.8239 54.71698,4.55975 66.57233,-39.21384 66.57233,-39.21384 0,0 -6.38365,-32.83019 10.94339,-83.89937 17.32705,-51.06918 41.03774,-144.08805 -15.50314,-148.6478 -56.54088,-4.55975 -16.4151,-30.094341 -96.66667,-26.446542 -80.25157,3.647799 -37.38994,-32.83019 -80.25157,3.647799 -42.86164,36.477983 -70.22013,-43.773586 -130.40881,3.647798 -60.18868,47.421385 -43.77359,-11.855346 -66.57233,49.245285 -22.79874,61.10063 -41.037737,0 -40.125787,88.45912 0.91195,88.45912 51.069187,76.60378 31.006287,124.93711 -20.062891,48.33334 3.64781,-5.47169 -20.062891,48.33334 -25.33217,57.48453 25.534591,69.30817 25.534591,69.30817 z"
     style="fill:url(#linearGradient7760);fill-opacity:1;stroke:#ffffff;stroke-width:10;stroke-linecap:butt;stroke-linejoin:miter;stroke-miterlimit:4;stroke-opacity:1;stroke-dasharray:none" /><path
     inkscape:connector-curvature="0"
     id="path7730"
     d="m 204.50655,479.3939 c -16.87249,-8.60613 -23.91738,-9.96983 -47.87736,-9.26779 -9.78066,0.28658 -21.88679,1.13762 -26.90252,1.8912 l -9.11949,1.37016 -5.78831,-2.70046 c -14.65837,-6.83869 -21.207556,-16.80781 -21.250866,-32.3479 -0.02695,-9.66997 1.646331,-15.71991 9.406706,-34.01108 10.14651,-23.91528 18.88534,-46.16961 20.37361,-51.88345 2.58172,-9.9119 1.27461,-21.23113 -3.3585,-29.08368 -1.04795,-1.77613 -5.71208,-8.93154 -10.36475,-15.90091 -14.683,-21.99413 -19.051198,-37.30074 -20.166532,-70.66558 -0.603396,-18.05042 0.667729,-36.18133 3.036917,-43.31761 1.652801,-4.97845 1.722798,-5.04403 9.416755,-8.82247 13.32889,-6.54572 18.57807,-13.80838 29.15774,-40.34211 3.08214,-7.72998 6.35948,-15.52715 7.28297,-17.32704 l 1.67908,-3.27254 8.98256,-0.0315 c 8.05283,-0.0282 9.68846,-0.33488 15.80267,-2.96289 8.26328,-3.55172 15.14752,-7.72218 26.01007,-15.75685 11.692,-8.648178 16.38092,-11.348969 24.32746,-14.012465 13.87033,-4.649013 25.08428,-2.765251 48.2885,8.111686 19.55487,9.166309 25.05148,10.785809 35.2277,10.379319 6.92833,-0.27675 8.87083,-0.75107 14.81358,-3.61723 3.76179,-1.8143 9.91745,-5.945157 13.67924,-9.179688 3.7618,-3.234532 8.82652,-7.397502 11.25494,-9.251046 l 4.41531,-3.370079 3.44255,2.726547 c 4.51648,3.577115 10.24172,5.97083 18.9409,7.919157 5.83998,1.307965 12.30571,1.615511 36.72618,1.746903 39.83011,0.214302 43.66259,0.989038 55.09514,11.137496 10.81313,9.59862 18.37694,12.64078 37.76149,15.18767 11.79709,1.55 16.8245,3.49999 21.76757,8.44306 7.14253,7.14253 10.22133,16.77772 10.95528,34.28482 1.0532,25.12249 -3.98261,51.20139 -19.32018,100.05325 -8.9959,28.65295 -11.61959,43.93159 -11.83721,68.93209 -0.1518,17.43863 -0.26206,18.49034 -2.29478,21.88679 -11.28629,18.85824 -27.21261,27.73458 -49.76257,27.73458 -4.72518,0 -17.10304,-0.65649 -27.50633,-1.45888 -17.81647,-1.37415 -19.46159,-1.36521 -28.32461,0.15397 -6.28891,1.07795 -9.27402,1.96594 -9.00096,2.67753 0.23814,0.62057 -1.55279,1.75612 -4.29327,2.72218 -17.69571,6.23804 -34.69644,18.8909 -43.18391,32.13977 -1.853,2.89253 -5.96541,11.00198 -9.13869,18.02101 -8.8801,19.64203 -10.65173,21.29358 -28.21042,26.29833 -6.44379,1.83666 -23.00136,7.10525 -36.7946,11.70797 -22.66142,7.56197 -25.86971,8.40406 -33.28617,8.73668 l -8.20755,0.3681 -11.85534,-6.04704 0,0 z"
     style="fill:url(#Checkerboardwhite);fill-opacity:1;stroke:#ffffff;stroke-width:0;stroke-linecap:butt;stroke-linejoin:miter;stroke-miterlimit:4;stroke-opacity:1;stroke-dasharray:none;stroke-dashoffset:5.8" /></g></svg>