<?xml version="1.0" encoding="utf-8"?>
<!-- Generator: Adobe Illustrator 15.0.0, SVG Export Plug-In . SVG Version: 6.00 Build 0)  -->
<!DOCTYPE svg PUBLIC "-//W3C//DTD SVG 1.1//EN" "http://www.w3.org/Graphics/SVG/1.1/DTD/svg11.dtd">
<svg version="1.1" xmlns="http://www.w3.org/2000/svg" xmlns:xlink="http://www.w3.org/1999/xlink" x="0px" y="0px" width="580px"
	 height="580px" viewBox="0 0 580 580" enable-background="new 0 0 580 580" xml:space="preserve">
<g id="Layer_2">
	<g id="g1327">
		<path id="path1329" fill="#111111" stroke="#EEEEEE" stroke-width="3.408" d="M66.275,1.768
			c-41.335,0-64.571,21.371-64.571,65.036v450.123c0,40.844,20.894,62.229,62.192,62.229H515.92
			c41.307,0,62.229-20.316,62.229-62.229V66.804c0-42.601-20.923-65.036-63.522-65.036C514.624,1.768,66.133,1.625,66.275,1.768z"/>
	</g>
</g>
<g id="svg2" inkscape:output_extension="org.inkscape.output.svg.inkscape" inkscape:version="0.46" sodipodi:docname="waste_bin.svg" sodipodi:version="0.32" xmlns:inkscape="http://www.inkscape.org/namespaces/inkscape" xmlns:rdf="http://www.w3.org/1999/02/22-rdf-syntax-ns#" xmlns:svg="http://www.w3.org/2000/svg" xmlns:sodipodi="http://sodipodi.sourceforge.net/DTD/sodipodi-0.dtd" xmlns:cc="http://creativecommons.org/ns#" xmlns:dc="http://purl.org/dc/elements/1.1/">
	<path id="path4390-3" inkscape:connector-curvature="0" sodipodi:nodetypes="scsscccsscsscccccccsccccc" fill="#FFFFFF" d="
		M323.326,278.553c0-24.506-15.563-45.478-37.205-53.661c9.032-10.105,14.31-23.298,14.31-37.921
		c0-31.614-25.623-57.238-57.238-57.238c-4.517,0-8.675,0.447-12.879,1.431c-4.785-26.785-27.657-47.222-55.808-47.222
		c-28.149,0-51.022,20.437-55.808,47.222c-4.203-0.983-8.362-1.431-12.878-1.431c-31.616,0-57.239,25.624-57.239,57.238
		c0,14.646,5.277,27.815,14.31,37.921c-21.643,8.184-37.205,29.155-37.205,53.661c0,31.615,22.896,57.238,57.239,57.238h11.447
		l45.791,80.135v80.133h68.687v-80.133l45.79-80.135l16.456-0.334C300.431,335.791,323.326,308.424,323.326,278.553z
		 M140.163,335.791h68.687l-22.896,45.791h-22.896L140.163,335.791z"/>
	<g>
		<path fill="#FFFFFF" d="M500.228,458.47h-13.068c-7.574,0-13.715,8.415-13.715,18.794c0,10.381,6.141,18.795,13.715,18.795h13.068
			c7.574,0,13.715-8.414,13.715-18.795C513.942,466.885,507.802,458.47,500.228,458.47z"/>
		<path fill="#FFFFFF" d="M520.46,392.918c-0.889-2.76-3.846-4.277-6.606-3.389l-207.029,66.637
			c-2.76,0.889-4.276,3.847-3.389,6.606c0.889,2.76,3.847,4.277,6.606,3.389l6.974-2.245c-2.508,3.406-4.063,8.127-4.063,13.348
			c0,10.381,6.141,18.795,13.715,18.795h13.068c7.574,0,13.715-8.414,13.715-18.795c0-10.379-6.141-18.794-13.715-18.794h-5.798
			l76.83-24.729l-33.318,58.433h76.496l-34.848-61.113l97.974-31.535C519.831,398.636,521.349,395.679,520.46,392.918z"/>
	</g>
</g>
</svg>
