<?xml version="1.0" encoding="utf-8"?>
<!-- Generator: Adobe Illustrator 15.0.0, SVG Export Plug-In . SVG Version: 6.00 Build 0)  -->
<!DOCTYPE svg PUBLIC "-//W3C//DTD SVG 1.1//EN" "http://www.w3.org/Graphics/SVG/1.1/DTD/svg11.dtd">
<svg version="1.1" xmlns="http://www.w3.org/2000/svg" xmlns:xlink="http://www.w3.org/1999/xlink" x="0px" y="0px" width="580px"
	 height="580px" viewBox="0 0 580 580" enable-background="new 0 0 580 580" xml:space="preserve">
<g id="Layer_1">
	<g id="Layer_2">
		<g id="g1327">
			<path id="path1329" fill="#111111" stroke="#EEEEEE" stroke-width="3.408" d="M66.275,1.768
				c-41.335,0-64.571,21.371-64.571,65.036v450.123c0,40.844,20.895,62.229,62.192,62.229h452.024
				c41.307,0,62.229-20.315,62.229-62.229V66.804c0-42.602-20.923-65.036-63.521-65.036C514.625,1.768,66.133,1.625,66.275,1.768z"
				/>
		</g>
	</g>
</g>
<g id="Layer_2_1_">
	<g>
		<path fill="#FFFFFF" d="M162.978,168.224c18.464,45.516,37.79,90.662,58.367,135.146c20.61,44.448,42.395,88.339,66.588,130.537
			c12.119,21.063,24.855,41.71,38.653,61.306c4.674,6.63,9.485,13.118,14.439,19.426l-4.995-42.361
			c57.481-349.818-166.424-400.56-213.136-407.3C135.712,99.595,149.14,134.018,162.978,168.224z"/>
		<path fill="#FFFFFF" d="M301.412,512.201c-13.708-21.227-25.972-43.037-37.529-65.111
			c-23.037-44.183-43.264-89.419-62.262-135.065c-18.952-45.666-36.555-91.795-53.263-138.21
			c-12.442-34.673-24.441-69.461-35.849-104.472C-3.107,382.201,279.274,510.73,279.274,510.73l36.663,22.728
			C310.881,526.462,306.051,519.37,301.412,512.201z"/>
	</g>
	<g>
		<path fill="#FFFFFF" d="M460.47,379.732c-13.152,20.813-26.697,41.366-40.8,61.482c-14.115,20.096-28.762,39.812-44.446,58.478
			c-7.851,9.314-15.968,18.367-24.515,26.808c-2.896,2.855-5.846,5.629-8.85,8.3l6.229-20.453
			c2.727-177.672,117.688-182.809,141.33-181.983C480.019,348.301,470.337,364.089,460.47,379.732z"/>
		<path fill="#FFFFFF" d="M361.619,537.117c8.648-9.253,16.635-18.922,24.298-28.784c15.29-19.749,29.287-40.268,42.714-61.096
			c13.407-20.845,26.189-42.035,38.556-63.448c9.218-15.998,18.229-32.094,26.967-48.351
			c29.236,164.605-121.483,202.92-121.483,202.92l-20.105,7.954C355.68,543.309,358.693,540.24,361.619,537.117z"/>
	</g>
</g>
</svg>
