<?xml version="1.0" encoding="utf-8"?>
<!-- Generator: Adobe Illustrator 15.0.0, SVG Export Plug-In . SVG Version: 6.00 Build 0)  -->
<!DOCTYPE svg PUBLIC "-//W3C//DTD SVG 1.1//EN" "http://www.w3.org/Graphics/SVG/1.1/DTD/svg11.dtd">
<svg version="1.1" xmlns="http://www.w3.org/2000/svg" xmlns:xlink="http://www.w3.org/1999/xlink" x="0px" y="0px" width="580px"
	 height="580px" viewBox="0 0 580 580" enable-background="new 0 0 580 580" xml:space="preserve">
<g id="Layer_2_1_">
	<g id="Layer_2">
		<g id="g1327">
			<path id="path1329" fill="#111111" stroke="#EEEEEE" stroke-width="3.408" d="M66.275,1.768
				c-41.335,0-64.571,21.371-64.571,65.036v450.123c0,40.844,20.895,62.229,62.192,62.229h452.024
				c41.307,0,62.229-20.315,62.229-62.229V66.804c0-42.602-20.923-65.036-63.521-65.036C514.625,1.768,66.133,1.625,66.275,1.768z"
				/>
		</g>
	</g>
</g>
<g id="Layer_1">
	<g>
		<g>
			<polyline fill="none" stroke="#FFFFFF" stroke-width="18" stroke-linejoin="round" stroke-miterlimit="10" points="
				313.666,314.75 338.333,124.083 173.666,61.416 153.666,250.083 			"/>
			<polygon opacity="0.5" fill="#FFFFFF" points="162.141,251.261 269.666,243.416 180.807,73.261 			"/>
			<polygon opacity="0.5" fill="#FFFFFF" points="180.057,71.57 338.333,128.083 426.334,314.75 322.807,316.594 319.666,260.083 
				269.666,243.416 			"/>
		</g>
		<g>
			<path fill="#FFFFFF" d="M45.75,427.91h4.533h70.271c0,0,41.937,64.605,90.673,71.406c48.737,6.799,191.547,0,191.547,0
				s38.536-6.801,77.071-80.473h54.404v99.74H45.75V427.91z"/>
			<path opacity="0.5" fill="#FFFFFF" d="M479.845,418.844h-37.262c0,0-139.389,105.655-290.197,46.965l-14.47,8.965l9.333,38
				l336-10L479.845,418.844z"/>
		</g>
	</g>
</g>
</svg>
