<?xml version="1.0" encoding="utf-8"?>
<!-- Generator: Adobe Illustrator 15.0.0, SVG Export Plug-In . SVG Version: 6.00 Build 0)  -->
<!DOCTYPE svg PUBLIC "-//W3C//DTD SVG 1.1//EN" "http://www.w3.org/Graphics/SVG/1.1/DTD/svg11.dtd">
<svg version="1.1" xmlns="http://www.w3.org/2000/svg" xmlns:xlink="http://www.w3.org/1999/xlink" x="0px" y="0px" width="580px"
	 height="580px" viewBox="0 0 580 580" enable-background="new 0 0 580 580" xml:space="preserve">
<g id="Layer_1">
	<g id="Layer_2">
		<g id="g1327">
			<path id="path1329" fill="#111111" stroke="#EEEEEE" stroke-width="3.408" d="M66.275,1.768
				c-41.335,0-64.571,21.371-64.571,65.036v450.123c0,40.844,20.895,62.229,62.192,62.229H515.92
				c41.307,0,62.229-20.315,62.229-62.229V66.804c0-42.601-20.924-65.036-63.521-65.036C514.624,1.768,66.133,1.625,66.275,1.768z"
				/>
		</g>
	</g>
</g>
<g id="Layer_4">
	<path fill="#FFFFFF" d="M541.021,192.61c-1.539-3.13-4.524-5.299-7.979-5.788c-0.441-0.057-1.438-0.372-2.836-1.512
		c-1.383-1.119-3.055-3.019-4.598-5.551c-1.549-2.533-2.984-5.685-4.086-9.202c-1.109-3.541-1.891-7.454-2.212-11.503
		c0-0.003-0.001-0.006-0.001-0.009c0-0.006,0-0.013,0-0.021c-0.008-0.083-0.009-0.163-0.015-0.244l16.461-26.914
		c1.877-3.068,2.062-6.885,0.488-10.116c-1.575-3.233-4.69-5.446-8.261-5.862l-249.74-29.089c-0.219-0.026-0.44-0.024-0.659-0.036
		c-0.539-0.045-1.085-0.098-1.592-0.098c-0.806,0-1.602,0.056-2.365,0.152c-1.521,0.193-3.05,0.594-4.475,1.172
		c-1.433,0.575-2.766,1.333-3.951,2.204c-1.192,0.866-2.245,1.849-3.17,2.895c-9.229,10.434-18.46,20.867-27.69,31.3l-34.964-29.414
		l-61.544-10.932l-0.386-0.378l-0.259,0.264l-23.787-4.226l28.495,78.606l35.794,30.114
		C132.865,239.09,88.042,289.757,43.216,340.424c-0.104,0.119-0.186,0.252-0.284,0.373c-2.648,3.143-3.943,6.824-4.555,10.281
		c-0.334,1.914-0.475,3.854-0.479,5.82c0.003,2.633,0.256,5.338,0.729,8.131c0.816,4.852,2.288,9.998,4.385,15.41
		c2.091,5.375,4.635,10.545,7.467,15.371c2.82,4.801,5.928,9.27,9.221,13.258c3.285,3.979,6.744,7.486,10.419,10.383
		c3.692,2.877,7.58,5.234,12.242,6.496l280.456,74.004c0.89,0.232,1.788,0.346,2.677,0.346s1.766-0.119,2.611-0.336
		c0.944-0.238,1.858-0.6,2.707-1.096c0.358-0.207,0.698-0.445,1.028-0.693c0.079-0.059,0.152-0.123,0.228-0.184
		c0.243-0.195,0.476-0.398,0.702-0.611c0.107-0.102,0.215-0.207,0.317-0.314c0.214-0.219,0.412-0.449,0.604-0.688
		c0.119-0.148,0.234-0.297,0.346-0.451c0.186-0.258,0.359-0.521,0.524-0.789c0.035-0.061,0.079-0.113,0.114-0.176l54.101-95.297
		l28.569,24.035c0.39,0.223,12.07,10.854,28.905,11.016c0.091,0,0.181,0,0.273,0c9.902,0,21.294-4.426,31.049-16.227
		c5.459-6.496,8.558-13.152,9.875-19.488c1.376-3.084,2.324-6.162,2.682-9.154c0.092-0.805,0.133-1.572,0.133-2.314
		c0.015-3.369-0.979-6.484-3.148-8.688c-0.478-0.492-1.011-0.912-1.569-1.287c-1.366-3.588-3.103-6.746-4.832-9.387
		c-3.744-5.699-7.517-9.145-8.223-9.779l-0.077-0.066l-0.037-0.035l-40.683-34.223l69.033-121.599
		C542.45,199.431,542.561,195.744,541.021,192.61z M156.817,139.043c-2.677,3.076-3.495,6.879-3.489,10.319
		c0.013,1.448,0.155,2.87,0.377,4.233l-2.296-1.931l-14.21-39.198l14.344-14.603l42.909,7.623l1.81,1.521
		c-0.952-0.138-1.883-0.223-2.801-0.223c-5.325-0.012-9.288,2.649-14.125,6.704c-3.782,3.22-4.587,7.882-4.6,11.879
		c0.01,2.744,0.404,5.391,0.863,7.555c-0.709-0.042-1.465-0.066-2.258-0.066C168.359,132.89,161.533,133.744,156.817,139.043z
		 M365.506,489.758L85.051,415.754c-2.633-0.697-5.494-2.295-8.415-4.59c-2.922-2.299-5.914-5.299-8.806-8.803
		c-2.9-3.516-5.709-7.545-8.258-11.887c-2.56-4.361-4.861-9.047-6.73-13.855c-1.879-4.834-3.144-9.336-3.817-13.338
		c-0.678-4.027-0.757-7.547-0.26-10.385c0.499-2.854,1.581-5.016,3.217-6.305c1.642-1.295,3.842-1.711,6.569-1.066l282.554,66.744
		c11.921-19.23,23.843-38.463,35.762-57.695l4.86,13.9l20.057,57.383L365.506,489.758z M478.353,422.342
		c-2.783-0.793-5.331-1.891-7.456-3.029c-2.002-1.07-3.623-2.146-4.713-2.934c-0.546-0.393-0.956-0.717-1.218-0.926
		c-0.133-0.104-0.227-0.18-0.279-0.227c-0.037-0.031-0.037-0.031-0.037-0.031L163.482,161.82l0.068-0.035v-0.004
		c0,0-0.183-0.336-0.5-1.043c-0.979-2.1-2.906-7.145-2.872-11.379c0.007-2.436,0.562-4.397,1.803-5.818
		c2.37-2.854,7.164-3.871,11.358-3.838c1.752,0,3.332,0.154,4.453,0.306c0.375,0.051,0.675,0.101,0.936,0.144
		c10.813,9.143,89.955,76.702,167.263,142.713c55.715,47.581,110.489,94.368,138.078,117.934c-3.216,5.113-5.446,10.377-6.05,15.395
		c-0.094,0.785-0.14,1.566-0.141,2.311C477.873,419.838,478.031,421.129,478.353,422.342z M505.101,366.82
		c0.487,0.438,3.448,3.236,6.239,7.498c0.483,0.73,0.95,1.518,1.407,2.328c-2.601,0.785-5.32,2.023-8.164,3.719
		c-6.214,3.729-11.94,9.025-16.538,14.82c-66.367-56.691-285.795-244.114-304.843-260.224c-0.001-0.004-0.003-0.01-0.004-0.014
		c-0.54-1.721-1.624-5.859-1.611-9.58c-0.012-3.132,0.771-5.556,2.133-6.615c4.834-3.992,6.908-5.106,9.741-5.119
		c1.189-0.003,2.669,0.221,4.613,0.75c4.256,1.153,6.991,1.498,8.789,1.541L505.101,366.82z M463.488,317.16l-33.39-28.089
		l-1.884-1.584l80.402-131.456c0.021,1.264,0.08,2.549,0.185,3.855c0.385,4.853,1.313,9.523,2.66,13.821
		c1.34,4.28,3.1,8.197,5.153,11.555c2.051,3.351,4.396,6.153,6.923,8.216c2.527,2.063,5.239,3.39,8.021,3.782L463.488,317.16z"/>
</g>
</svg>
