<?xml version="1.0" encoding="utf-8"?>
<!-- Generator: Adobe Illustrator 15.0.0, SVG Export Plug-In . SVG Version: 6.00 Build 0)  -->
<!DOCTYPE svg PUBLIC "-//W3C//DTD SVG 1.1//EN" "http://www.w3.org/Graphics/SVG/1.1/DTD/svg11.dtd">
<svg version="1.1" xmlns="http://www.w3.org/2000/svg" xmlns:xlink="http://www.w3.org/1999/xlink" x="0px" y="0px" width="580px"
	 height="580px" viewBox="0 0 580 580" enable-background="new 0 0 580 580" xml:space="preserve">
<g id="Layer_2">
	<g id="g1327">
		<path id="path1329" fill="#111111" stroke="#EEEEEE" stroke-width="3.408" d="M66.275,1.768
			c-41.335,0-64.571,21.371-64.571,65.036v450.123c0,40.844,20.894,62.229,62.192,62.229H515.92
			c41.307,0,62.229-20.316,62.229-62.229V66.804c0-42.601-20.923-65.036-63.522-65.036C514.624,1.768,66.133,1.625,66.275,1.768z"/>
	</g>
</g>
<g id="svg2" inkscape:output_extension="org.inkscape.output.svg.inkscape" inkscape:version="0.46" sodipodi:docname="waste_bin.svg" sodipodi:version="0.32" xmlns:inkscape="http://www.inkscape.org/namespaces/inkscape" xmlns:rdf="http://www.w3.org/1999/02/22-rdf-syntax-ns#" xmlns:svg="http://www.w3.org/2000/svg" xmlns:sodipodi="http://sodipodi.sourceforge.net/DTD/sodipodi-0.dtd" xmlns:cc="http://creativecommons.org/ns#" xmlns:dc="http://purl.org/dc/elements/1.1/">
	<g>
		<g>
			<path fill="#FFFFFF" d="M413.354,81.035l-82.838-34.59l-2.727,36.313c-0.063,0.839-0.563,1.516-1.242,1.907
				c25.026,5.561,47.692,15.673,67.501,28.532l19.096-31.883C413.205,81.212,413.28,81.125,413.354,81.035z"/>
			<path fill="#FFFFFF" d="M170.891,114.887l-19.216-32.082c-0.051-0.086-0.084-0.176-0.125-0.266l-61.337,62.268
				c0.198,0.083,0.394,0.184,0.571,0.325l27.813,21.902c13.713-18.652,31.669-36.568,53.2-51.267
				C171.435,115.564,171.119,115.268,170.891,114.887z"/>
			<path fill="#FFFFFF" d="M86.976,246.945c-0.416,0-0.837-0.107-1.223-0.33l-33.397-19.283c-1.172-0.677-1.574-2.176-0.896-3.348
				c0.676-1.173,2.175-1.574,3.348-0.896l33.094,19.107c0.808-20.933,10.613-46.534,27.838-71.171l-27.988-22.04
				c-0.125-0.098-0.235-0.208-0.334-0.323l-36.794,72.643L47.711,394.06l40.286-0.083V246.702
				C87.675,246.851,87.332,246.945,86.976,246.945z M84.464,321.273H51.522c-1.354,0-2.451-1.098-2.451-2.451
				s1.097-2.451,2.451-2.451h32.942c1.354,0,2.451,1.098,2.451,2.451S85.817,321.273,84.464,321.273z"/>
			<path fill="#FFFFFF" d="M517.502,322.303h-32.938c-1.354,0-2.452-1.098-2.452-2.451c0-1.353,1.099-2.451,2.452-2.451h32.938
				c0.412,0,0.793,0.111,1.134,0.29l0.271-94.447l-33.967-75.215l-67.716-63.98l-19.088,31.868l0,0
				c21.58,14.711,39.59,32.649,53.327,51.333l26.778-21.087c1.062-0.839,2.604-0.655,3.441,0.408
				c0.838,1.063,0.654,2.605-0.41,3.442l-26.954,21.227c17.285,24.724,27.092,50.417,27.835,71.391l32.064-18.514
				c1.17-0.676,2.671-0.277,3.349,0.897c0.676,1.172,0.275,2.671-0.896,3.348l-33.396,19.282c-0.387,0.224-0.808,0.329-1.225,0.329
				c-0.172,0-0.342-0.028-0.51-0.065v145.182h36.881l0.203-71.07C518.287,322.194,517.909,322.303,517.502,322.303z"/>
			<path fill="#FFFFFF" d="M323.343,83.969c-0.312-0.447-0.485-0.993-0.442-1.579l2.744-36.547c0.034-0.438,0.19-0.837,0.421-1.179
				h-82.712c0.007,0.051,0.022,0.098,0.026,0.15l2.745,36.547c0.102,1.35-0.91,2.525-2.26,2.627
				c-0.063,0.004-0.125,0.007-0.187,0.007c-1.27,0-2.345-0.98-2.441-2.268l-2.745-36.547c-0.008-0.117,0.001-0.23,0.009-0.343
				l-82.717,35.318c0.031,0.044,0.069,0.082,0.096,0.129l19.216,32.082c0.185,0.309,0.289,0.641,0.328,0.976
				c30.808-20.14,68.579-33.655,111.413-33.655v0.255C299.474,80.169,311.658,81.573,323.343,83.969z"/>
		</g>
		<path fill="#FFFFFF" d="M299.032,418.446c23.763,0,43.69,17.355,48.724,40.519l56.476-172.548H101.414l49.779,168.091
			c6.477-20.896,25.342-36.062,47.557-36.062c27.548,0,49.96,23.319,49.96,51.979c0,0.344-0.018,0.685-0.025,1.028h0.411
			c-0.007-0.344-0.025-0.685-0.025-1.028C249.07,441.766,271.483,418.446,299.032,418.446z"/>
		<path fill="#FFFFFF" d="M299.032,510.965c20.915,0,37.978-17.633,38.498-39.511h-76.997
			C261.055,493.332,278.118,510.965,299.032,510.965z"/>
		<path fill="#FFFFFF" d="M337.556,470.426c0-22.354-17.282-40.541-38.523-40.541c-21.243,0-38.524,18.187-38.524,40.541
			c0,0.344,0.017,0.685,0.025,1.028h76.997C337.539,471.11,337.556,470.77,337.556,470.426z"/>
		<path fill="#FFFFFF" d="M198.75,510.965c20.914,0,37.975-17.633,38.498-39.511H160.25
			C160.772,493.332,177.835,510.965,198.75,510.965z"/>
		<path fill="#FFFFFF" d="M198.75,429.885c-21.243,0-38.524,18.187-38.524,40.541c0,0.344,0.017,0.685,0.025,1.028h76.997
			c0.008-0.344,0.024-0.685,0.024-1.028C237.271,448.071,219.991,429.885,198.75,429.885z"/>
	</g>
</g>
</svg>
