<?xml version="1.0" encoding="UTF-8" standalone="no"?>
<!-- Generator: Adobe Illustrator 15.0.0, SVG Export Plug-In . SVG Version: 6.00 Build 0)  -->

<svg
   xmlns:dc="http://purl.org/dc/elements/1.1/"
   xmlns:cc="http://creativecommons.org/ns#"
   xmlns:rdf="http://www.w3.org/1999/02/22-rdf-syntax-ns#"
   xmlns:svg="http://www.w3.org/2000/svg"
   xmlns="http://www.w3.org/2000/svg"
   xmlns:sodipodi="http://sodipodi.sourceforge.net/DTD/sodipodi-0.dtd"
   xmlns:inkscape="http://www.inkscape.org/namespaces/inkscape"
   version="1.1"
   x="0px"
   y="0px"
   width="580px"
   height="580px"
   viewBox="0 0 580 580"
   enable-background="new 0 0 580 580"
   xml:space="preserve"
   id="svg1602"
   sodipodi:docname="beehive.svg"
   inkscape:version="0.92.3 (2405546, 2018-03-11)"><metadata
   id="metadata1608"><rdf:RDF><cc:Work
       rdf:about=""><dc:format>image/svg+xml</dc:format><dc:type
         rdf:resource="http://purl.org/dc/dcmitype/StillImage" /><dc:title></dc:title></cc:Work></rdf:RDF></metadata><defs
   id="defs1606">
	
	
	

		
		
	</defs><sodipodi:namedview
   pagecolor="#ffffff"
   bordercolor="#666666"
   borderopacity="1"
   objecttolerance="10"
   gridtolerance="10"
   guidetolerance="10"
   inkscape:pageopacity="0"
   inkscape:pageshadow="2"
   inkscape:window-width="1241"
   inkscape:window-height="834"
   id="namedview1604"
   showgrid="false"
   inkscape:zoom="0.87885424"
   inkscape:cx="290"
   inkscape:cy="290"
   inkscape:window-x="605"
   inkscape:window-y="237"
   inkscape:window-maximized="0"
   inkscape:current-layer="svg1602" />
<g
   id="Layer_2_1_">
	<g
   id="Layer_2">
		<g
   id="g1327">
			<path
   id="path1329"
   d="M66.275,1.768     c-41.335,0-64.571,21.371-64.571,65.036v450.123c0,40.844,20.895,62.229,62.192,62.229h452.024     c41.307,0,62.229-20.315,62.229-62.229V66.804c0-42.602-20.923-65.036-63.521-65.036C514.625,1.768,66.133,1.625,66.275,1.768z"
   stroke-width="3.408"
   stroke="#EEEEEE"
   fill="#111111" />
		</g>
	</g>
</g>
<g
   id="g2193"
   transform="matrix(1.5224266,0,0,1.5224266,-364.71694,-302.06776)"><g
     id="g1593">
			<path
   style="fill:#ffffff"
   inkscape:connector-curvature="0"
   id="path1589"
   d="m 354.55,382.745 c -3.824,0 -6.924,3.102 -6.924,6.927 v 123.261 c 0,3.825 3.1,6.927 6.924,6.927 3.826,0 6.927,-3.102 6.927,-6.927 V 389.672 c -10e-4,-3.826 -3.101,-6.927 -6.927,-6.927 z" />
			<path
   style="fill:#ffffff"
   inkscape:connector-curvature="0"
   id="path1591"
   d="m 511.67,382.745 c -3.825,0 -6.925,3.102 -6.925,6.927 v 123.261 c 0,3.825 3.1,6.927 6.925,6.927 3.826,0 6.926,-3.102 6.926,-6.927 V 389.672 c -10e-4,-3.826 -3.1,-6.927 -6.926,-6.927 z" />
		</g><polyline
     points="315.5,297.25 429.648,258.5 544.5,297.25  "
     id="polyline1597"
     style="fill:#ffffff" /><path
     d="M 334.5,295.724 V 389.5 h 192 v -93.775 h -192 z M 511.67,367.5 H 354.551 v -10 H 511.67 Z"
     id="path1599"
     inkscape:connector-curvature="0"
     style="fill:#ffffff" /></g>
</svg>