<?xml version="1.0" encoding="UTF-8" standalone="no"?>
<!-- Generator: Adobe Illustrator 15.0.0, SVG Export Plug-In . SVG Version: 6.00 Build 0)  -->

<svg
   version="1.1"
   x="0px"
   y="0px"
   width="580px"
   height="580px"
   viewBox="0 0 580 580"
   enable-background="new 0 0 580 580"
   xml:space="preserve"
   id="svg3047"
   sodipodi:docname="building-school.svg"
   inkscape:version="1.2-beta (1b65182, 2022-04-05)"
   inkscape:export-filename="../png/building_school.png"
   inkscape:export-xdpi="7.9448276"
   inkscape:export-ydpi="7.9448276"
   xmlns:inkscape="http://www.inkscape.org/namespaces/inkscape"
   xmlns:sodipodi="http://sodipodi.sourceforge.net/DTD/sodipodi-0.dtd"
   xmlns="http://www.w3.org/2000/svg"
   xmlns:svg="http://www.w3.org/2000/svg"><defs
   id="defs3051" /><sodipodi:namedview
   id="namedview3049"
   pagecolor="#ffffff"
   bordercolor="#666666"
   borderopacity="1.0"
   inkscape:pageshadow="2"
   inkscape:pageopacity="0.0"
   inkscape:pagecheckerboard="0"
   inkscape:deskcolor="#d1d1d1"
   showgrid="false"
   inkscape:zoom="0.24291556"
   inkscape:cx="-1214.4138"
   inkscape:cy="401.37404"
   inkscape:window-width="1920"
   inkscape:window-height="1006"
   inkscape:window-x="0"
   inkscape:window-y="27"
   inkscape:window-maximized="1"
   inkscape:current-layer="svg3047" />
<g
   id="Layer_1">
	<g
   id="Layer_2">
		<g
   id="g1327">
			<path
   id="path1329"
   fill="#111111"
   stroke="#EEEEEE"
   stroke-width="3.408"
   d="M66.275,1.768     c-41.335,0-64.571,21.371-64.571,65.036v450.123c0,40.844,20.895,62.229,62.192,62.229H515.92     c41.307,0,62.229-20.315,62.229-62.229V66.804c0-42.601-20.924-65.036-63.521-65.036C514.624,1.768,66.133,1.625,66.275,1.768z" />
		</g>
	</g>
</g>
<g
   id="Layer_4"
   transform="matrix(0.61518911,0,0,0.61518911,111.59508,156.38091)">
	<path
   fill="#ffffff"
   d="m 541.021,192.61 c -1.539,-3.13 -4.524,-5.299 -7.979,-5.788 -0.441,-0.057 -1.438,-0.372 -2.836,-1.512 -1.383,-1.119 -3.055,-3.019 -4.598,-5.551 -1.549,-2.533 -2.984,-5.685 -4.086,-9.202 -1.109,-3.541 -1.891,-7.454 -2.212,-11.503 0,-0.003 -10e-4,-0.006 -10e-4,-0.009 0,-0.006 0,-0.013 0,-0.021 -0.008,-0.083 -0.009,-0.163 -0.015,-0.244 l 16.461,-26.914 c 1.877,-3.068 2.062,-6.885 0.488,-10.116 -1.575,-3.233 -4.69,-5.446 -8.261,-5.862 L 278.242,86.799 c -0.219,-0.026 -0.44,-0.024 -0.659,-0.036 -0.539,-0.045 -1.085,-0.098 -1.592,-0.098 -0.806,0 -1.602,0.056 -2.365,0.152 -1.521,0.193 -3.05,0.594 -4.475,1.172 -1.433,0.575 -2.766,1.333 -3.951,2.204 -1.192,0.866 -2.245,1.849 -3.17,2.895 -9.229,10.434 -18.46,20.867 -27.69,31.3 l -34.964,-29.414 -61.544,-10.932 -0.386,-0.378 -0.259,0.264 -23.787,-4.226 28.495,78.606 35.794,30.114 C 132.865,239.09 88.042,289.757 43.216,340.424 c -0.104,0.119 -0.186,0.252 -0.284,0.373 -2.648,3.143 -3.943,6.824 -4.555,10.281 -0.334,1.914 -0.475,3.854 -0.479,5.82 0.003,2.633 0.256,5.338 0.729,8.131 0.816,4.852 2.288,9.998 4.385,15.41 2.091,5.375 4.635,10.545 7.467,15.371 2.82,4.801 5.928,9.27 9.221,13.258 3.285,3.979 6.744,7.486 10.419,10.383 3.692,2.877 7.58,5.234 12.242,6.496 l 280.456,74.004 c 0.89,0.232 1.788,0.346 2.677,0.346 0.889,0 1.766,-0.119 2.611,-0.336 0.944,-0.238 1.858,-0.6 2.707,-1.096 0.358,-0.207 0.698,-0.445 1.028,-0.693 0.079,-0.059 0.152,-0.123 0.228,-0.184 0.243,-0.195 0.476,-0.398 0.702,-0.611 0.107,-0.102 0.215,-0.207 0.317,-0.314 0.214,-0.219 0.412,-0.449 0.604,-0.688 0.119,-0.148 0.234,-0.297 0.346,-0.451 0.186,-0.258 0.359,-0.521 0.524,-0.789 0.035,-0.061 0.079,-0.113 0.114,-0.176 l 54.101,-95.297 28.569,24.035 c 0.39,0.223 12.07,10.854 28.905,11.016 0.091,0 0.181,0 0.273,0 9.902,0 21.294,-4.426 31.049,-16.227 5.459,-6.496 8.558,-13.152 9.875,-19.488 1.376,-3.084 2.324,-6.162 2.682,-9.154 0.092,-0.805 0.133,-1.572 0.133,-2.314 0.015,-3.369 -0.979,-6.484 -3.148,-8.688 -0.478,-0.492 -1.011,-0.912 -1.569,-1.287 -1.366,-3.588 -3.103,-6.746 -4.832,-9.387 -3.744,-5.699 -7.517,-9.145 -8.223,-9.779 l -0.077,-0.066 -0.037,-0.035 -40.683,-34.223 69.033,-121.599 c 1.724,-3.035 1.835,-6.722 0.295,-9.856 z M 156.817,139.043 c -2.677,3.076 -3.495,6.879 -3.489,10.319 0.013,1.448 0.155,2.87 0.377,4.233 l -2.296,-1.931 -14.21,-39.198 14.344,-14.603 42.909,7.623 1.81,1.521 c -0.952,-0.138 -1.883,-0.223 -2.801,-0.223 -5.325,-0.012 -9.288,2.649 -14.125,6.704 -3.782,3.22 -4.587,7.882 -4.6,11.879 0.01,2.744 0.404,5.391 0.863,7.555 -0.709,-0.042 -1.465,-0.066 -2.258,-0.066 -4.982,0.034 -11.808,0.888 -16.524,6.187 z M 365.506,489.758 85.051,415.754 c -2.633,-0.697 -5.494,-2.295 -8.415,-4.59 -2.922,-2.299 -5.914,-5.299 -8.806,-8.803 -2.9,-3.516 -5.709,-7.545 -8.258,-11.887 -2.56,-4.361 -4.861,-9.047 -6.73,-13.855 -1.879,-4.834 -3.144,-9.336 -3.817,-13.338 -0.678,-4.027 -0.757,-7.547 -0.26,-10.385 0.499,-2.854 1.581,-5.016 3.217,-6.305 1.642,-1.295 3.842,-1.711 6.569,-1.066 l 282.554,66.744 c 11.921,-19.23 23.843,-38.463 35.762,-57.695 l 4.86,13.9 20.057,57.383 z m 112.847,-67.416 c -2.783,-0.793 -5.331,-1.891 -7.456,-3.029 -2.002,-1.07 -3.623,-2.146 -4.713,-2.934 -0.546,-0.393 -0.956,-0.717 -1.218,-0.926 -0.133,-0.104 -0.227,-0.18 -0.279,-0.227 -0.037,-0.031 -0.037,-0.031 -0.037,-0.031 L 163.482,161.82 l 0.068,-0.035 v -0.004 c 0,0 -0.183,-0.336 -0.5,-1.043 -0.979,-2.1 -2.906,-7.145 -2.872,-11.379 0.007,-2.436 0.562,-4.397 1.803,-5.818 2.37,-2.854 7.164,-3.871 11.358,-3.838 1.752,0 3.332,0.154 4.453,0.306 0.375,0.051 0.675,0.101 0.936,0.144 10.813,9.143 89.955,76.702 167.263,142.713 55.715,47.581 110.489,94.368 138.078,117.934 -3.216,5.113 -5.446,10.377 -6.05,15.395 -0.094,0.785 -0.14,1.566 -0.141,2.311 -0.005,1.332 0.153,2.623 0.475,3.836 z m 26.748,-55.522 c 0.487,0.438 3.448,3.236 6.239,7.498 0.483,0.73 0.95,1.518 1.407,2.328 -2.601,0.785 -5.32,2.023 -8.164,3.719 -6.214,3.729 -11.94,9.025 -16.538,14.82 C 421.678,338.494 202.25,151.071 183.202,134.961 c -0.001,-0.004 -0.003,-0.01 -0.004,-0.014 -0.54,-1.721 -1.624,-5.859 -1.611,-9.58 -0.012,-3.132 0.771,-5.556 2.133,-6.615 4.834,-3.992 6.908,-5.106 9.741,-5.119 1.189,-0.003 2.669,0.221 4.613,0.75 4.256,1.153 6.991,1.498 8.789,1.541 z m -41.613,-49.66 -33.39,-28.089 -1.884,-1.584 80.402,-131.456 c 0.021,1.264 0.08,2.549 0.185,3.855 0.385,4.853 1.313,9.523 2.66,13.821 1.34,4.28 3.1,8.197 5.153,11.555 2.051,3.351 4.396,6.153 6.923,8.216 2.527,2.063 5.239,3.39 8.021,3.782 z"
   id="path3044" />
</g>
<g
   id="g5256"
   transform="translate(-4.8157008,13.430069)"><g
     id="g3437"
     transform="translate(4.9212008,-12.886918)">
		<polygon
   fill="#ffffff"
   points="285.033,44.448 550.893,166.045 537.582,195.146 285.29,79.754 42.629,195.047 28.896,166.144 "
   id="polygon3435" />
	</g><g
     id="g3447"
     transform="translate(4.9212008,-12.886918)">
		<g
   id="g3441">
			<rect
   x="51.512001"
   y="199.83299"
   fill="#ffffff"
   width="15"
   height="323.33301"
   id="rect3439" />
		</g>
		<g
   id="g3445">
			<rect
   x="513.48798"
   y="199.83299"
   fill="#ffffff"
   width="15"
   height="323.33301"
   id="rect3443" />
		</g>
	</g></g></svg>
