<?xml version="1.0" encoding="utf-8"?>
<!-- Generator: Adobe Illustrator 15.0.0, SVG Export Plug-In . SVG Version: 6.00 Build 0)  -->
<!DOCTYPE svg PUBLIC "-//W3C//DTD SVG 1.1//EN" "http://www.w3.org/Graphics/SVG/1.1/DTD/svg11.dtd">
<svg version="1.1" xmlns="http://www.w3.org/2000/svg" xmlns:xlink="http://www.w3.org/1999/xlink" x="0px" y="0px" width="580px"
	 height="580px" viewBox="0 0 580 580" enable-background="new 0 0 580 580" xml:space="preserve">
<g id="Layer_2">
	<g id="g1327">
		<path id="path1329" fill="#111111" stroke="#EEEEEE" stroke-width="3.408" d="M66.275,1.768
			c-41.335,0-64.571,21.371-64.571,65.036v450.123c0,40.844,20.894,62.229,62.192,62.229H515.92
			c41.307,0,62.229-20.316,62.229-62.229V66.804c0-42.601-20.923-65.036-63.522-65.036C514.624,1.768,66.133,1.625,66.275,1.768z"/>
	</g>
</g>
<g id="svg2" xmlns:inkscape="http://www.inkscape.org/namespaces/inkscape" xmlns:rdf="http://www.w3.org/1999/02/22-rdf-syntax-ns#" xmlns:svg="http://www.w3.org/2000/svg" xmlns:sodipodi="http://sodipodi.sourceforge.net/DTD/sodipodi-0.dtd" xmlns:cc="http://creativecommons.org/ns#" xmlns:dc="http://purl.org/dc/elements/1.1/" inkscape:output_extension="org.inkscape.output.svg.inkscape" inkscape:version="0.46" sodipodi:docname="waste_bin.svg" sodipodi:version="0.32">
	<g>
		<path fill="#FFFFFF" d="M391.191,274.906c0,30.612-62.259,80.063-115.345,80.063c-109.577,0-84.586-37.133-84.586-67.745
			c0-30.612,31.5-43.111,84.586-43.111S391.191,219.478,391.191,274.906z"/>
		<path fill="#FFFFFF" d="M485.755,450.151c-1.356,43.707-160.565,74.237-268.253,70.9c-107.687-3.337-108.33-36.991-121.716-82.985
			c-15.796-54.276,91.271-54.572,197.437-73.096C407.448,345.04,487.109,406.444,485.755,450.151z"/>
		<path fill="#FFFFFF" d="M356.777,196.638c0,20.374-34.926,22.456-64.157,22.456c-29.233,0-57.602-1.562-64.158-20.852
			c-22.897-67.365,34.925-52.93,64.158-52.93C321.852,145.312,356.777,145.312,356.777,196.638z"/>
		<path fill="#FFFFFF" d="M329.114,89.174c0,16.831-11.848,30.475-26.465,30.475c-14.616,0-51.764-7.228-51.764-24.059
			c0-16.831,37.147-36.891,51.764-36.891C317.267,58.699,329.114,72.343,329.114,89.174z"/>
	</g>
</g>
</svg>
