<?xml version="1.0" encoding="utf-8"?>
<!-- Generator: Adobe Illustrator 15.0.0, SVG Export Plug-In . SVG Version: 6.00 Build 0)  -->
<!DOCTYPE svg PUBLIC "-//W3C//DTD SVG 1.1//EN" "http://www.w3.org/Graphics/SVG/1.1/DTD/svg11.dtd">
<svg version="1.1" xmlns="http://www.w3.org/2000/svg" xmlns:xlink="http://www.w3.org/1999/xlink" x="0px" y="0px" width="580px"
	 height="580px" viewBox="0 0 580 580" enable-background="new 0 0 580 580" xml:space="preserve">
<g id="Layer_1">
	<g id="Layer_2">
		<g id="g1327">
			<path id="path1329" fill="#111111" stroke="#EEEEEE" stroke-width="3.408" d="M66.275,1.768
				c-41.335,0-64.571,21.371-64.571,65.036v450.123c0,40.844,20.895,62.229,62.192,62.229h452.024
				c41.307,0,62.229-20.315,62.229-62.229V66.804c0-42.602-20.923-65.036-63.521-65.036C514.625,1.768,66.133,1.625,66.275,1.768z"
				/>
		</g>
	</g>
</g>
<g id="Layer_2_1_">
	<g>
		<path fill="#FFFFFF" d="M423.962,34.255c-27.84,0-52.238,14.718-65.85,36.795c-6.074-2.267-12.646-3.511-19.51-3.511
			c-28.289,0-51.648,21.044-55.316,48.329c-0.172-0.002-0.344-0.013-0.516-0.013c-19.273,0-34.896,15.623-34.896,34.896
			s15.623,34.896,34.896,34.896c11.406,0,21.533-5.476,27.9-13.938c8.219,4.759,17.752,7.496,27.932,7.496
			c12.342,0,23.738-4.012,32.982-10.792c13.773,12.698,32.168,20.455,52.377,20.455c42.695,0,77.307-34.611,77.307-77.307
			S466.657,34.255,423.962,34.255z"/>
		<polygon fill="#FFFFFF" points="78.731,535.245 261.78,441.945 431.215,535.245 		"/>
		<g>
			<polygon fill="#FFFFFF" points="293.02,448.277 293.02,213.412 230.54,213.412 230.54,446.513 261.78,428.584 			"/>
		</g>
	</g>
</g>
</svg>
