<?xml version="1.0" encoding="utf-8"?>
<!-- Generator: Adobe Illustrator 15.0.0, SVG Export Plug-In . SVG Version: 6.00 Build 0)  -->
<!DOCTYPE svg PUBLIC "-//W3C//DTD SVG 1.1//EN" "http://www.w3.org/Graphics/SVG/1.1/DTD/svg11.dtd">
<svg version="1.1" xmlns="http://www.w3.org/2000/svg" xmlns:xlink="http://www.w3.org/1999/xlink" x="0px" y="0px" width="580px"
	 height="580px" viewBox="0 0 580 580" enable-background="new 0 0 580 580" xml:space="preserve">
<g id="Layer_2">
	<g id="g1327">
		<path id="path1329" fill="#111111" stroke="#EEEEEE" stroke-width="3.408" d="M66.275,1.768
			c-41.335,0-64.571,21.371-64.571,65.036v450.123c0,40.844,20.894,62.229,62.192,62.229H515.92
			c41.307,0,62.229-20.316,62.229-62.229V66.804c0-42.601-20.923-65.036-63.522-65.036C514.624,1.768,66.133,1.625,66.275,1.768z"/>
	</g>
</g>
<g id="svg2" xmlns:inkscape="http://www.inkscape.org/namespaces/inkscape" xmlns:rdf="http://www.w3.org/1999/02/22-rdf-syntax-ns#" xmlns:svg="http://www.w3.org/2000/svg" xmlns:sodipodi="http://sodipodi.sourceforge.net/DTD/sodipodi-0.dtd" xmlns:cc="http://creativecommons.org/ns#" xmlns:dc="http://purl.org/dc/elements/1.1/" inkscape:output_extension="org.inkscape.output.svg.inkscape" inkscape:version="0.46" sodipodi:docname="waste_bin.svg" sodipodi:version="0.32">
	<g>
		<path fill="#FFFFFF" d="M291.557,101.284c11.535,0,21.828,4.205,28.582,10.782v-24.53c0-16.125-13.072-29.196-29.197-29.196
			c-16.124,0-29.195,13.072-29.195,29.196v25.801C268.442,106.036,279.297,101.284,291.557,101.284z"/>
		<path fill="#FFFFFF" d="M395.484,204.151v-84.59c0-16.125-13.072-29.196-29.197-29.196s-29.195,13.072-29.195,29.196v102.938
			C358.16,218.898,377.852,212.614,395.484,204.151z"/>
		<path fill="#FFFFFF" d="M295.65,225.985c8.303,0,16.477-0.41,24.488-1.201v-76.969c0-16.125-13.072-29.197-29.197-29.197
			c-16.124,0-29.195,13.072-29.195,29.197v75.847C272.737,225.183,284.068,225.985,295.65,225.985z"/>
		<path fill="#FFFFFF" d="M242.91,220.283V119.561c0-16.125-13.072-29.196-29.197-29.196c-16.124,0-29.196,13.072-29.196,29.196
			v78.71C201.854,208.025,221.572,215.552,242.91,220.283z"/>
		<g id="path113">
			<path fill="#FFFFFF" d="M524.342,434.013c-4.074,1.243-9.334,1.005-16.232-0.471c-7.012-1.596-13.404-9.036-25.055-8.625
				c-11.934,0.414-28.789,11.104-45.074,11.104c-16.518-0.352-35.066-11.577-51.92-11.577
				c-16.797,0.119-32.068,11.753-48.186,12.108c-16.402,0.058-32.746-10.866-48.808-11.103c-16.288-0.412-31.728,9.688-46.942,9.567
				c-14.987-0.293-28.278-11.045-43.152-10.573c-15.271,0.594-32.012,12.404-46.942,13.113
				c-15.043,0.237-28.674-10.984-41.964-11.104c-13.403-0.236-28.448,8.21-37.497,10.101c-9.05,1.715-14.762,1.892-16.91,0.532
				v31.304c2.148,1.357,7.86,1.182,16.91-0.532c9.049-1.891,24.093-10.336,37.497-10.101c13.291,0.119,26.921,11.34,41.964,11.102
				c14.931-0.588,31.672-12.697,46.942-13.111c14.874-0.59,28.164,10.396,43.152,10.631c15.215,0.12,30.654-9.92,46.942-9.625
				c16.062,0.234,32.406,11.159,48.808,11.104c16.117-0.355,31.389-11.991,48.186-12.109c16.854-0.057,35.402,11.341,51.92,11.639
				c16.285,0,33.143-10.694,45.074-11.105c11.65-0.533,18.043,7.027,25.055,8.563c6.898,1.477,12.158,1.712,16.232,0.472V434.013z"
				/>
		</g>
		<g>
			<path fill="#FFFFFF" d="M198.972,406.444c14.874-0.472,28.165,10.28,43.152,10.573c0.262,0.002,0.524-0.006,0.786-0.01V280.556
				c-21.336-4.73-41.056-12.253-58.393-22.005v150.991C189.411,407.88,194.262,406.628,198.972,406.444z"/>
		</g>
		<g>
			<path fill="#FFFFFF" d="M337.875,418.553c16.117-0.355,31.389-11.989,48.186-12.108c3.092,0,6.24,0.38,9.424,0.999V264.432
				c-17.633,8.462-37.326,14.748-58.393,18.348v135.759C337.352,418.544,337.613,418.554,337.875,418.553z"/>
		</g>
		<g>
			<path fill="#FFFFFF" d="M289.067,407.45c10.261,0.151,20.638,4.662,31.072,7.887V285.054c-8.014,0.791-16.184,1.207-24.488,1.207
				c-11.583,0-22.913-0.803-33.904-2.323v129.269C270.652,410.438,279.72,407.214,289.067,407.45z"/>
		</g>
		<g id="path121">
			<path fill="#FFFFFF" d="M524.342,486.403c-4.074,1.12-9.334,0.944-16.232-0.532c-7.012-1.534-13.404-9.098-25.055-8.565
				c-11.934,0.412-28.789,11.103-45.074,11.103c-16.518-0.353-35.066-11.574-51.92-11.574
				c-16.797,0.119-32.068,11.754-48.186,12.106c-16.402,0.06-32.746-10.866-48.808-11.104c-16.288-0.414-31.728,9.687-46.942,9.568
				c-14.987-0.295-28.278-11.045-43.152-10.571c-15.271,0.589-32.012,12.401-46.942,13.112
				c-15.043,0.234-28.674-10.987-41.964-11.105c-13.403-0.234-28.448,8.21-37.497,10.101c-9.05,1.833-14.762,1.771-16.91,0.473
				v31.303c2.148,1.299,7.86,1.36,16.91-0.473c9.049-1.893,24.093-10.335,37.497-10.101c13.291,0.118,26.921,11.34,41.964,11.105
				c14.931-0.712,31.672-12.523,46.942-13.113c14.874-0.473,28.164,10.277,43.152,10.572c15.215,0.118,30.654-9.982,46.942-9.568
				c16.062,0.237,32.406,11.163,48.808,11.103c16.117-0.353,31.389-11.991,48.186-12.106c16.854,0,35.402,11.223,51.92,11.575
				c16.285,0,33.143-10.69,45.074-11.104c11.65-0.414,18.043,7.026,25.055,8.624c6.898,1.477,12.158,1.714,16.232,0.475V486.403z"/>
		</g>
	</g>
</g>
</svg>
