<?xml version="1.0" encoding="UTF-8" standalone="no"?>
<!-- Generator: Adobe Illustrator 15.0.0, SVG Export Plug-In . SVG Version: 6.00 Build 0)  -->

<svg
   xmlns:dc="http://purl.org/dc/elements/1.1/"
   xmlns:cc="http://creativecommons.org/ns#"
   xmlns:rdf="http://www.w3.org/1999/02/22-rdf-syntax-ns#"
   xmlns:svg="http://www.w3.org/2000/svg"
   xmlns="http://www.w3.org/2000/svg"
   xmlns:sodipodi="http://sodipodi.sourceforge.net/DTD/sodipodi-0.dtd"
   xmlns:inkscape="http://www.inkscape.org/namespaces/inkscape"
   version="1.1"
   x="0px"
   y="0px"
   width="580px"
   height="580px"
   viewBox="0 0 580 580"
   enable-background="new 0 0 580 580"
   xml:space="preserve"
   id="svg1602"
   sodipodi:docname="dovecote.svg"
   inkscape:version="0.92.3 (2405546, 2018-03-11)"><metadata
   id="metadata1608"><rdf:RDF><cc:Work
       rdf:about=""><dc:format>image/svg+xml</dc:format><dc:type
         rdf:resource="http://purl.org/dc/dcmitype/StillImage" /><dc:title></dc:title></cc:Work></rdf:RDF></metadata><defs
   id="defs1606">
	
	
	

		
		
	</defs><sodipodi:namedview
   pagecolor="#ffffff"
   bordercolor="#666666"
   borderopacity="1"
   objecttolerance="10"
   gridtolerance="10"
   guidetolerance="10"
   inkscape:pageopacity="0"
   inkscape:pageshadow="2"
   inkscape:window-width="1241"
   inkscape:window-height="834"
   id="namedview1604"
   showgrid="false"
   inkscape:zoom="0.87885424"
   inkscape:cx="287.05596"
   inkscape:cy="290"
   inkscape:window-x="605"
   inkscape:window-y="237"
   inkscape:window-maximized="0"
   inkscape:current-layer="svg1602" />
<g
   id="Layer_2_1_">
	<g
   id="Layer_2">
		<g
   id="g1327">
			<path
   id="path1329"
   d="M66.275,1.768     c-41.335,0-64.571,21.371-64.571,65.036v450.123c0,40.844,20.895,62.229,62.192,62.229h452.024     c41.307,0,62.229-20.315,62.229-62.229V66.804c0-42.602-20.923-65.036-63.521-65.036C514.625,1.768,66.133,1.625,66.275,1.768z"
   stroke-width="3.408"
   stroke="#EEEEEE"
   fill="#111111" />
		</g>
	</g>
</g>
<g
   id="g2202"
   transform="matrix(0.6736292,0,0,0.6450772,-0.95544491,37.019547)"><polyline
     transform="matrix(1.5224266,0,0,1.5224266,-364.71694,-302.06776)"
     points="315.5,297.25 429.648,258.5 544.5,297.25  "
     id="polyline1597"
     style="fill:#ffffff" /><path
     d="m 144.53476,148.15032 v 360.0955 h 292.3059 V 148.15418 H 144.53476 Z M 414.26308,423.76685 H 175.06093 V 385.3673 h 239.20215 z"
     id="path1599"
     inkscape:connector-curvature="0"
     style="fill:#ffffff;stroke-width:2.41786003" /></g>
<path
   style="fill:#ffffff;stroke-width:0.30916548"
   inkscape:connector-curvature="0"
   id="path2229"
   d="m 346.66565,97.8276 c 0,0 26.27907,-0.61833 57.04103,23.18741 0,0 27.67031,-21.64158 66.316,-31.22571 0,0 -66.16141,42.0465 -66.316,51.9398 0,0 -29.5253,-34.9357 -57.04103,-43.9015 z" /><path
   d="m 320.49521,273.05574 c 0,0 26.27907,-0.61833 57.04103,23.18741 0,0 27.67031,-21.64158 66.316,-31.22571 0,0 -66.16141,42.0465 -66.316,51.9398 0,0 -29.5253,-34.9357 -57.04103,-43.9015 z"
   id="path2811"
   inkscape:connector-curvature="0"
   style="fill:#ffffff;stroke-width:0.30916548" /><path
   style="fill:#ffffff;stroke-width:0.30916548"
   inkscape:connector-curvature="0"
   id="path2813"
   d="m 352.35487,335.63722 c 0,0 26.27907,-0.61833 57.04103,23.18741 0,0 27.67031,-21.64158 66.316,-31.22571 0,0 -66.16141,42.0465 -66.316,51.9398 0,0 -29.5253,-34.9357 -57.04103,-43.9015 z" /><path
   d="m 408.10928,290.12342 c 0,0 26.27907,-0.61833 57.04103,23.18741 0,0 27.67031,-21.64158 66.316,-31.22571 0,0 -66.16141,42.0465 -66.316,51.9398 0,0 -29.5253,-34.9357 -57.04103,-43.9015 z"
   id="path2815"
   inkscape:connector-curvature="0"
   style="fill:#ffffff;stroke-width:0.30916548" /><path
   d="m 381.93885,151.30632 c 0,0 26.27907,-0.61833 57.04103,23.18741 0,0 27.67031,-21.64158 66.316,-31.22571 0,0 -66.16141,42.0465 -66.316,51.9398 0,0 -29.5253,-34.9357 -57.04103,-43.9015 z"
   id="path2817"
   inkscape:connector-curvature="0"
   style="fill:#ffffff;stroke-width:0.30916548" /><path
   style="fill:#ffffff;stroke-width:0.30916548"
   inkscape:connector-curvature="0"
   id="path2819"
   d="m 336.42505,178.6146 c 0,0 26.27907,-0.61833 57.04103,23.18741 0,0 27.67031,-21.64158 66.316,-31.22571 0,0 -66.16141,42.0465 -66.316,51.9398 0,0 -29.5253,-34.9357 -57.04103,-43.9015 z" /><path
   d="m 261.32727,399.35655 c 0,0 26.27907,-0.61833 57.04103,23.18741 0,0 27.67031,-21.64158 66.316,-31.22571 0,0 -66.16141,42.0465 -66.316,51.9398 0,0 -29.5253,-34.9357 -57.04103,-43.9015 z"
   id="path2821"
   inkscape:connector-curvature="0"
   style="fill:#ffffff;stroke-width:0.30916548" /><path
   style="fill:#ffffff;stroke-width:0.30916548"
   inkscape:connector-curvature="0"
   id="path2823"
   d="m 181.67811,438.04328 c 0,0 26.27907,-0.61833 57.04103,23.18741 0,0 27.67031,-21.64158 66.316,-31.22571 0,0 -66.16141,42.0465 -66.316,51.9398 0,0 -29.5253,-34.9357 -57.04103,-43.9015 z" /><path
   d="m 375.11178,455.11096 c 0,0 26.27907,-0.61833 57.04103,23.18741 0,0 27.67031,-21.64158 66.316,-31.22571 0,0 -66.16141,42.0465 -66.316,51.9398 0,0 -29.5253,-34.9357 -57.04103,-43.9015 z"
   id="path2825"
   inkscape:connector-curvature="0"
   style="fill:#ffffff;stroke-width:0.30916548" /></svg>