<?xml version="1.0" encoding="utf-8"?>
<!-- Generator: Adobe Illustrator 15.0.0, SVG Export Plug-In . SVG Version: 6.00 Build 0)  -->
<!DOCTYPE svg PUBLIC "-//W3C//DTD SVG 1.1//EN" "http://www.w3.org/Graphics/SVG/1.1/DTD/svg11.dtd">
<svg version="1.1" xmlns="http://www.w3.org/2000/svg" xmlns:xlink="http://www.w3.org/1999/xlink" x="0px" y="0px" width="580px"
	 height="580px" viewBox="0 0 580 580" enable-background="new 0 0 580 580" xml:space="preserve">
<g id="Layer_2">
	<g id="g1327">
		<path id="path1329" fill="#111111" stroke="#EEEEEE" stroke-width="3.408" d="M66.275,1.768
			c-41.335,0-64.571,21.371-64.571,65.036v450.123c0,40.844,20.894,62.229,62.192,62.229H515.92
			c41.307,0,62.229-20.316,62.229-62.229V66.804c0-42.601-20.923-65.036-63.522-65.036C514.624,1.768,66.133,1.625,66.275,1.768z"/>
	</g>
</g>
<g id="svg2" xmlns:inkscape="http://www.inkscape.org/namespaces/inkscape" xmlns:rdf="http://www.w3.org/1999/02/22-rdf-syntax-ns#" xmlns:svg="http://www.w3.org/2000/svg" xmlns:sodipodi="http://sodipodi.sourceforge.net/DTD/sodipodi-0.dtd" xmlns:cc="http://creativecommons.org/ns#" xmlns:dc="http://purl.org/dc/elements/1.1/" inkscape:output_extension="org.inkscape.output.svg.inkscape" inkscape:version="0.46" sodipodi:docname="waste_bin.svg" sodipodi:version="0.32">
	<g>
		<polygon fill="#FFFFFF" points="335.873,367.246 37.389,367.246 97.386,212.754 275.876,212.754 		"/>
		<path fill="#FFFFFF" d="M505.922,266.208c-16.4,0.06-32.746-10.866-48.807-11.104c-16.289-0.414-31.729,9.687-46.943,9.568
			c-2.625-0.052-5.199-0.429-7.738-1.006c-4.299-1.239-8.586-2.764-12.861-4.184c-7.398-2.796-14.758-5.63-22.553-5.382
			c-4.793,0.185-9.732,1.477-14.715,3.183c0,0.121-0.002,0.24-0.002,0.36c-8.283,2.313-16.393,5.524-24.418,6.633l11.156,28.725
			c9.789-2.906,19.762-6.856,30.074-6.595c6.773,0.1,13.596,2.103,20.453,4.378c4.248,1.606,8.508,3.195,12.869,4.186
			c5.152,1.485,10.316,2.559,15.484,2.539c12.371-0.271,24.244-7.185,36.689-10.439v-0.64c0.832-0.032,1.666-0.045,2.504-0.023
			c16.061,0.237,32.406,11.163,48.807,11.103c12.371-0.271,24.244-7.185,36.689-10.439V255.77
			C530.166,259.025,518.293,265.938,505.922,266.208z"/>
		<path fill="#FFFFFF" d="M505.922,335.944c-16.4,0.06-32.746-10.866-48.807-11.104c-16.289-0.414-31.729,9.687-46.943,9.568
			c-2.625-0.052-5.199-0.429-7.738-1.006c-4.299-1.239-8.586-2.764-12.861-4.184c-7.398-2.796-14.758-5.63-22.553-5.382
			c-4.793,0.185-9.732,1.477-14.715,3.183c0,0.046,0,0.09,0,0.135l11.348,29.224c1.811-0.189,3.631-0.282,5.463-0.235
			c6.773,0.1,13.596,2.103,20.453,4.378c4.248,1.606,8.508,3.195,12.869,4.186c5.152,1.485,10.316,2.559,15.484,2.539
			c12.371-0.271,24.244-7.185,36.689-10.439v-0.64c0.832-0.032,1.666-0.045,2.504-0.023c16.061,0.237,32.406,11.163,48.807,11.103
			c12.371-0.271,24.244-7.185,36.689-10.439v-31.301C530.166,328.762,518.293,335.674,505.922,335.944z"/>
	</g>
</g>
</svg>
