<?xml version="1.0" encoding="UTF-8" standalone="no"?>
<!-- Generator: Adobe Illustrator 15.0.0, SVG Export Plug-In . SVG Version: 6.00 Build 0)  -->

<svg
   xmlns:dc="http://purl.org/dc/elements/1.1/"
   xmlns:cc="http://creativecommons.org/ns#"
   xmlns:rdf="http://www.w3.org/1999/02/22-rdf-syntax-ns#"
   xmlns:svg="http://www.w3.org/2000/svg"
   xmlns="http://www.w3.org/2000/svg"
   xmlns:sodipodi="http://sodipodi.sourceforge.net/DTD/sodipodi-0.dtd"
   xmlns:inkscape="http://www.inkscape.org/namespaces/inkscape"
   version="1.1"
   id="Layer_1"
   x="0px"
   y="0px"
   width="580px"
   height="580px"
   viewBox="0 0 580 580"
   enable-background="new 0 0 580 580"
   xml:space="preserve"
   sodipodi:docname="gantry.svg"
   inkscape:version="0.92.3 (2405546, 2018-03-11)"><metadata
   id="metadata4602"><rdf:RDF><cc:Work
       rdf:about=""><dc:format>image/svg+xml</dc:format><dc:type
         rdf:resource="http://purl.org/dc/dcmitype/StillImage" /></cc:Work></rdf:RDF></metadata><defs
   id="defs4600" /><sodipodi:namedview
   pagecolor="#ffffff"
   bordercolor="#666666"
   borderopacity="1"
   objecttolerance="10"
   gridtolerance="10"
   guidetolerance="10"
   inkscape:pageopacity="0"
   inkscape:pageshadow="2"
   inkscape:window-width="1336"
   inkscape:window-height="1135"
   id="namedview4598"
   showgrid="false"
   inkscape:zoom="1.2432572"
   inkscape:cx="290"
   inkscape:cy="290"
   inkscape:window-x="303"
   inkscape:window-y="-1"
   inkscape:window-maximized="0"
   inkscape:current-layer="Layer_1" />
<g
   id="Layer_2">
	<g
   id="g1327">
		<path
   id="path1329"
   fill="#111111"
   stroke="#EEEEEE"
   stroke-width="3.408"
   d="M66.275,1.768    c-41.335,0-64.571,21.371-64.571,65.036v450.123c0,40.844,20.895,62.229,62.192,62.229h452.024    c41.307,0,62.229-20.315,62.229-62.229V66.804c0-42.602-20.923-65.036-63.521-65.036C514.625,1.768,66.133,1.625,66.275,1.768z" />
	</g>
</g>
<path
   d="m 526.145,398.212 h -9.062 V 112.492 96.5 H 501.091 78.909 62.917 v 15.992 285.72 h -9.062 c -5.889,0 -10.661,4.772 -10.661,10.66 v 63.968 c 0,5.888 4.772,10.661 10.661,10.661 h 33.049 c 5.888,0 10.661,-4.773 10.661,-10.661 v -63.968 c 0,-5.888 -4.773,-10.66 -10.661,-10.66 H 78.908 V 186.587 h 422.183 v 211.625 h -7.996 c -5.89,0 -10.661,4.772 -10.661,10.66 v 63.968 c 0,5.888 4.771,10.661 10.661,10.661 h 33.05 c 5.889,0 10.661,-4.773 10.661,-10.661 v -63.968 c 0,-5.888 -4.773,-10.66 -10.661,-10.66 z m -86.888,-285.72 c 0,64.5 -0.34075,32.74721 0,64.5 H 394.48 v -64.5 z m -50.109,0 v 64.5 h -45.843 v -64.5 z m -51.172,0 v 64.5 h -45.312 v -64.5 z m -50.642,0 v 64.5 h -45.31 v -64.5 z m -50.64,0 c 0,64.5 -1.64206,38.33551 0,64.5 h -46.909 v -64.5 z m -52.239,0 v 64.5 h -43.711 c 0,-64.5 0.21485,-26.24485 0,-64.5 z m -105.546,0 h 56.504 v 64.5 H 78.909 Z m 365.679,64.5 c 0,-64.5 0,0 0,-64.5 h 56.504 v 64.5 z"
   id="path4595"
   inkscape:connector-curvature="0"
   style="fill:#ffffff"
   sodipodi:nodetypes="sccccccccssssssssccccsssssssscccccccccccccccccccccccccccccccccccccccc" />
</svg>