<?xml version="1.0" encoding="UTF-8" standalone="no"?>
<!-- Generator: Adobe Illustrator 16.0.0, SVG Export Plug-In . SVG Version: 6.00 Build 0)  -->

<svg
   xmlns:dc="http://purl.org/dc/elements/1.1/"
   xmlns:cc="http://creativecommons.org/ns#"
   xmlns:rdf="http://www.w3.org/1999/02/22-rdf-syntax-ns#"
   xmlns:svg="http://www.w3.org/2000/svg"
   xmlns="http://www.w3.org/2000/svg"
   xmlns:xlink="http://www.w3.org/1999/xlink"
   xmlns:sodipodi="http://sodipodi.sourceforge.net/DTD/sodipodi-0.dtd"
   xmlns:inkscape="http://www.inkscape.org/namespaces/inkscape"
   version="1.1"
   id="Ebene_1"
   x="0px"
   y="0px"
   width="580px"
   height="580px"
   viewBox="0 0 580 580"
   enable-background="new 0 0 580 580"
   xml:space="preserve"
   inkscape:version="0.48.4 r9939"
   sodipodi:docname="12454.svg"><metadata
   id="metadata31"><rdf:RDF><cc:Work
       rdf:about=""><dc:format>image/svg+xml</dc:format><dc:type
         rdf:resource="http://purl.org/dc/dcmitype/StillImage" /><dc:title></dc:title></cc:Work></rdf:RDF></metadata><defs
   id="defs29">
	<defs
   id="defs5">
		<rect
   height="580"
   width="580"
   id="SVGID_1_" />
	</defs>
	<clipPath
   id="SVGID_2_">
		<use
   id="use9"
   overflow="visible"
   xlink:href="#SVGID_1_" />
	</clipPath>
	
	
	
	
	
	
	
	
</defs><sodipodi:namedview
   pagecolor="#ffffff"
   bordercolor="#666666"
   borderopacity="1"
   objecttolerance="10"
   gridtolerance="10"
   guidetolerance="10"
   inkscape:pageopacity="0"
   inkscape:pageshadow="2"
   inkscape:window-width="1297"
   inkscape:window-height="873"
   id="namedview27"
   showgrid="false"
   inkscape:zoom="0.76095916"
   inkscape:cx="132.96135"
   inkscape:cy="290"
   inkscape:window-x="1913"
   inkscape:window-y="237"
   inkscape:window-maximized="0"
   inkscape:current-layer="Ebene_1" />
<path
   style="fill:#111111"
   inkscape:connector-curvature="0"
   id="path11"
   d="M 66.275,1.768 C 24.94,1.768 1.704,23.139 1.704,66.804 v 450.123 c 0,40.845 20.895,62.229 62.192,62.229 H 515.92 c 41.307,0 62.229,-20.315 62.229,-62.229 V 66.804 c 0,-42.601 -20.926,-65.036 -63.521,-65.036 -0.004,0 -448.495,-0.143 -448.353,0"
   clip-path="url(#SVGID_2_)" /><path
   style="fill:#eeeeee"
   inkscape:connector-curvature="0"
   id="path13"
   d="M 515.92,580.86 H 63.896 c -20.963,0 -37.043,-5.484 -47.791,-16.301 C 5.418,553.805 0,537.779 0,516.927 V 66.804 C 0,23.142 22.917,0.064 66.275,0.064 v 0.028 c 0.519,-0.039 1.239,-0.042 2.269,-0.045 1.493,-0.005 3.699,-0.009 6.553,-0.013 5.706,-0.008 14.004,-0.015 24.376,-0.02 103.392,-0.049 412.972,0.049 415.144,0.05 21.567,0 38.04,5.741 48.971,17.063 10.793,11.18 16.266,27.894 16.266,49.677 v 450.123 c 0,42.423 -21.511,63.933 -63.934,63.933 z M 67.437,3.46 67.432,3.472 H 66.275 C 45.915,3.472 30.24,8.739 19.684,19.126 8.884,29.754 3.408,45.795 3.408,66.804 v 450.123 c 0,40.162 20.351,60.525 60.488,60.525 H 515.92 c 40.728,0 60.525,-19.798 60.525,-60.525 V 66.804 C 576.445,24.78 555.646,3.472 514.628,3.472 512.88,3.472 314.713,3.409 182.451,3.409 98.422,3.409 72.676,3.435 67.437,3.46 z"
   clip-path="url(#SVGID_2_)" /><g
   id="g3020"
   transform="matrix(1.3921633,0,0,1.3921633,-190.17652,-272.62038)"><path
     clip-path="url(#SVGID_2_)"
     d="m 402.233,439 -11.294,-29.132 c -2.126,-5.546 -6.729,-10.284 -15.407,-10.284 h -15.949 -27.159 -16.142 c -8.678,0 -13.281,4.738 -15.407,10.284 L 289.592,439 c -4.472,0.573 -12.4,5.823 -12.4,15.768 v 37.046 h 10.981 v 11.849 c 0,14.576 20.627,14.403 20.627,0 v -11.849 h 37.104 0.012 37.106 v 11.849 c 0,14.403 20.628,14.576 20.628,0 v -11.849 h 10.98 v -37.046 c 0.005,-9.945 -7.924,-15.195 -12.397,-15.768 m -103.415,30.489 c -5.262,0 -9.526,-4.401 -9.526,-9.826 0,-5.424 4.264,-9.814 9.526,-9.814 5.262,0 9.526,4.392 9.526,9.814 0.001,5.425 -4.264,9.826 -9.526,9.826 m 47.1,-30.791 h -0.012 -0.024 -44.61 l 8.504,-22.926 c 1.062,-3.221 2.654,-5.546 6.375,-5.58 h 29.731 0.024 0.012 29.745 c 3.72,0.034 5.313,2.359 6.375,5.58 l 8.504,22.926 h -44.624 z m 47.09,30.791 c -5.263,0 -9.537,-4.401 -9.537,-9.826 0,-5.424 4.274,-9.814 9.537,-9.814 5.263,0 9.526,4.392 9.526,9.814 0.001,5.425 -4.263,9.826 -9.526,9.826"
     id="path17"
     inkscape:connector-curvature="0"
     style="fill:#ffffff" /><rect
     x="468.05301"
     y="381.436"
     clip-path="url(#SVGID_2_)"
     width="14.277"
     height="132.65601"
     id="rect19"
     style="fill:#ffffff" /><rect
     x="207.774"
     y="381.436"
     clip-path="url(#SVGID_2_)"
     width="14.277"
     height="132.65601"
     id="rect21"
     style="fill:#ffffff" /><polygon
     clip-path="url(#SVGID_2_)"
     points="504.033,379.022 494.513,396.129 345.523,313.201 195.102,395.657 185.69,378.49 345.596,290.837 "
     id="polygon23"
     style="fill:#ffffff" /><rect
     x="207.729"
     y="514.01801"
     clip-path="url(#SVGID_2_)"
     width="274.60001"
     height="3.4130001"
     id="rect25"
     style="fill:#ffffff" /></g>
</svg>