<?xml version="1.0" encoding="utf-8"?>
<!-- Generator: Adobe Illustrator 15.0.0, SVG Export Plug-In . SVG Version: 6.00 Build 0)  -->
<!DOCTYPE svg PUBLIC "-//W3C//DTD SVG 1.1//EN" "http://www.w3.org/Graphics/SVG/1.1/DTD/svg11.dtd">
<svg version="1.1" xmlns="http://www.w3.org/2000/svg" xmlns:xlink="http://www.w3.org/1999/xlink" x="0px" y="0px" width="580px"
	 height="580px" viewBox="0 0 580 580" enable-background="new 0 0 580 580" xml:space="preserve">
<g id="Layer_2">
	<g id="g1327">
		<path id="path1329" fill="#111111" stroke="#EEEEEE" stroke-width="3.408" d="M66.275,1.768
			c-41.335,0-64.571,21.371-64.571,65.036v450.123c0,40.844,20.894,62.229,62.192,62.229H515.92
			c41.307,0,62.229-20.316,62.229-62.229V66.804c0-42.601-20.923-65.036-63.522-65.036C514.624,1.768,66.133,1.625,66.275,1.768z"/>
	</g>
</g>
<g id="svg2" xmlns:inkscape="http://www.inkscape.org/namespaces/inkscape" xmlns:rdf="http://www.w3.org/1999/02/22-rdf-syntax-ns#" xmlns:svg="http://www.w3.org/2000/svg" xmlns:sodipodi="http://sodipodi.sourceforge.net/DTD/sodipodi-0.dtd" xmlns:cc="http://creativecommons.org/ns#" xmlns:dc="http://purl.org/dc/elements/1.1/" inkscape:output_extension="org.inkscape.output.svg.inkscape" inkscape:version="0.46" sodipodi:docname="waste_bin.svg" sodipodi:version="0.32">
	<path fill="#FFFFFF" d="M427.19,83.997c-1.627-0.583-3.264-1.167-4.944-1.733c-18.336-6.17-39.811-11.051-63.554-14.281
		c-1.627-0.222-3.293-0.416-4.944-0.622c-19.876-2.478-41.216-3.838-63.559-3.848c-0.063,0-0.126,0-0.188,0
		c-1.598,0-3.167,0.029-4.756,0.043c-22.387,0.194-43.76,1.704-63.559,4.379c-1.667,0.227-3.298,0.473-4.944,0.714
		c-25.115,3.689-47.593,9.221-66.301,16.204c-0.739,0.274-1.468,0.56-2.197,0.838c-34.79,13.414-55.995,31.895-55.995,52.596v86.517
		v291.682h2.473H485.28h2.471V224.804v-86.517C487.751,116.697,464.68,97.53,427.19,83.997z M422.246,87.542v81.239
		c-18.336-6.169-39.811-11.051-63.554-14.281V73.053C382.499,76.355,404.035,81.314,422.246,87.542z M353.748,238.904
		c-19.93-2.548-41.298-3.952-63.559-3.96v-79.971c22.271,0.01,43.649,1.405,63.559,3.938V238.904z M285.245,234.986
		c-22.314,0.197-43.702,1.77-63.559,4.513v-79.984c19.837-2.732,41.234-4.301,63.559-4.499V234.986z M216.742,240.222
		c-23.903,3.587-45.455,8.867-63.555,15.449v-80.016c17.999-6.571,39.57-11.847,63.555-15.429V240.222z M422.246,254.058
		c-18.302-6.239-39.83-11.2-63.554-14.502v-79.986c23.807,3.302,45.343,8.26,63.554,14.489V254.058z M353.748,72.396v81.48
		c-19.876-2.476-41.216-3.838-63.559-3.848V68.457C312.46,68.467,333.838,69.861,353.748,72.396z M285.245,68.5v81.573
		c-22.387,0.192-43.76,1.704-63.559,4.379V73C241.523,70.267,262.92,68.698,285.245,68.5z M216.742,155.166
		c-23.908,3.51-45.407,8.7-63.555,15.212V89.139c17.999-6.57,39.57-11.848,63.555-15.43V155.166z M97.193,138.288
		c0-18.221,19.384-34.824,51.05-47.271v81.192c-24.975,9.626-42.906,21.871-51.05,35.674V138.288z M148.243,177.534v80.014
		c-26.429,10.328-44.721,23.535-51.05,38.226v-70.969C97.193,206.583,116.577,189.98,148.243,177.534z M482.808,295.773
		c-6.687-15.528-26.719-29.405-55.617-39.969v-80.003c34.36,12.615,55.617,29.923,55.617,49.003V295.773z M427.19,170.514V89.284
		c34.36,12.615,55.617,29.924,55.617,49.003v69.595C474.175,193.254,454.536,180.387,427.19,170.514z"/>
</g>
</svg>
