<?xml version="1.0" encoding="UTF-8" standalone="no"?>
<!-- Generator: Adobe Illustrator 15.0.0, SVG Export Plug-In . SVG Version: 6.00 Build 0)  -->

<svg
   xmlns:dc="http://purl.org/dc/elements/1.1/"
   xmlns:cc="http://creativecommons.org/ns#"
   xmlns:rdf="http://www.w3.org/1999/02/22-rdf-syntax-ns#"
   xmlns:svg="http://www.w3.org/2000/svg"
   xmlns="http://www.w3.org/2000/svg"
   xmlns:sodipodi="http://sodipodi.sourceforge.net/DTD/sodipodi-0.dtd"
   xmlns:inkscape="http://www.inkscape.org/namespaces/inkscape"
   version="1.1"
   x="0px"
   y="0px"
   width="580px"
   height="580px"
   viewBox="0 0 580 580"
   enable-background="new 0 0 580 580"
   xml:space="preserve"
   id="svg881"
   sodipodi:docname="manhole.svg"
   inkscape:version="0.92.3 (2405546, 2018-03-11)"><metadata
   id="metadata887"><rdf:RDF><cc:Work
       rdf:about=""><dc:format>image/svg+xml</dc:format><dc:type
         rdf:resource="http://purl.org/dc/dcmitype/StillImage" /><dc:title></dc:title></cc:Work></rdf:RDF></metadata><defs
   id="defs885" /><sodipodi:namedview
   pagecolor="#ffffff"
   bordercolor="#666666"
   borderopacity="1"
   objecttolerance="10"
   gridtolerance="10"
   guidetolerance="10"
   inkscape:pageopacity="0"
   inkscape:pageshadow="2"
   inkscape:window-width="1387"
   inkscape:window-height="981"
   id="namedview883"
   showgrid="false"
   inkscape:zoom="1.2316035"
   inkscape:cx="289.13919"
   inkscape:cy="290"
   inkscape:window-x="383"
   inkscape:window-y="81"
   inkscape:window-maximized="0"
   inkscape:current-layer="svg881" />
<g
   id="Layer_2"
   transform="translate(0.81194959,-0.5683013)">
	<g
   id="g1327">
		<path
   id="path1329"
   d="M 66.275,1.768 C 24.94,1.768 1.704,23.139 1.704,66.804 v 450.123 c 0,40.844 20.894,62.229 62.192,62.229 H 515.92 c 41.307,0 62.229,-20.316 62.229,-62.229 V 66.804 c 0,-42.601 -20.923,-65.036 -63.522,-65.036 -0.003,0 -448.494,-0.143 -448.352,0 z"
   inkscape:connector-curvature="0"
   style="fill:#111111;stroke:#eeeeee;stroke-width:3.40799999" />
	</g>
</g>

<path
   inkscape:connector-curvature="0"
   d="M 332.08629,75.359929 C 437.30202,96.403072 508.8487,188.99289 508.8487,290 c 0,101.00707 -71.54668,193.59691 -176.76241,214.64007 0,0 -10.16803,-29.4604 -42.08628,-29.4604 -33.66903,0 -42.08629,29.4604 -42.08629,29.4604 C 142.698,483.59691 71.151302,391.00707 71.151302,290 c 0,-101.00711 71.546698,-193.596928 176.762418,-214.640072 0,0 8.41726,29.460402 42.08629,29.460402 33.66903,0 42.08628,-29.460402 42.08628,-29.460401 z m 75.75533,332.481681 h -92.58984 c -16.83452,0 -16.83452,33.66903 0,33.66903 h 92.58984 c 16.83451,0 16.83451,-33.66903 0,-33.66903 z m -143.09338,0 h -92.58983 c -16.83453,0 -16.83453,33.66903 0,33.66903 h 92.58983 c 16.83451,0 16.83451,-33.66903 0,-33.66903 z m 0,-67.33807 H 138.48937 c -16.83452,0 -16.83452,33.66903 0,33.66903 h 126.25887 c 16.83451,0 16.83451,-33.66903 0,-33.66903 z m 176.76241,0 H 315.25178 c -16.83452,0 -16.83452,33.66903 0,33.66903 h 126.25887 c 16.83451,0 16.83451,-33.66903 0,-33.66903 z m 16.83451,-67.33807 H 315.25178 c -16.83452,0 -16.83452,33.66903 0,33.66903 h 143.09338 c 16.83451,0 16.83451,-33.66903 0,-33.66903 z m -193.59692,0 H 121.65485 c -16.83451,0 -16.83451,33.66903 0,33.66903 h 143.09339 c 16.83451,0 16.83451,-33.66903 0,-33.66903 z m 0,-67.33804 H 138.48937 c -16.83452,0 -16.83452,33.66901 0,33.66901 h 126.25887 c 16.83451,0 16.83451,-33.66901 0,-33.66901 z m 176.76241,0 H 315.25178 c -16.83452,0 -16.83452,33.66901 0,33.66901 h 126.25887 c 16.83451,0 16.83451,-33.66901 0,-33.66901 z m -33.66903,-67.33807 h -92.58984 c -16.83452,0 -16.83452,33.66903 0,33.66903 h 92.58984 c 16.83451,0 16.83451,-33.66903 0,-33.66903 z m -143.09338,0 h -92.58983 c -16.83453,0 -16.83453,33.66903 0,33.66903 h 92.58983 c 16.83451,0 16.83451,-33.66903 0,-33.66903 z"
   id="path7410"
   style="stroke-width:33.66903305;fill:#ffffff;fill-opacity:1" /></svg>