<?xml version="1.0" encoding="utf-8"?>
<!-- Generator: Adobe Illustrator 15.0.0, SVG Export Plug-In . SVG Version: 6.00 Build 0)  -->
<!DOCTYPE svg PUBLIC "-//W3C//DTD SVG 1.1//EN" "http://www.w3.org/Graphics/SVG/1.1/DTD/svg11.dtd">
<svg version="1.1" xmlns="http://www.w3.org/2000/svg" xmlns:xlink="http://www.w3.org/1999/xlink" x="0px" y="0px" width="580px"
	 height="580px" viewBox="0 0 580 580" enable-background="new 0 0 580 580" xml:space="preserve">
<g id="Layer_2">
	<g id="g1327">
		<path id="path1329" fill="#111111" stroke="#EEEEEE" stroke-width="3.408" d="M66.275,1.768
			c-41.335,0-64.571,21.371-64.571,65.036v450.123c0,40.844,20.894,62.229,62.192,62.229H515.92
			c41.307,0,62.229-20.316,62.229-62.229V66.804c0-42.601-20.923-65.036-63.522-65.036C514.624,1.768,66.133,1.625,66.275,1.768z"/>
	</g>
</g>
<g id="svg2" xmlns:inkscape="http://www.inkscape.org/namespaces/inkscape" xmlns:rdf="http://www.w3.org/1999/02/22-rdf-syntax-ns#" xmlns:svg="http://www.w3.org/2000/svg" xmlns:sodipodi="http://sodipodi.sourceforge.net/DTD/sodipodi-0.dtd" xmlns:cc="http://creativecommons.org/ns#" xmlns:dc="http://purl.org/dc/elements/1.1/" inkscape:output_extension="org.inkscape.output.svg.inkscape" inkscape:version="0.46" sodipodi:docname="waste_bin.svg" sodipodi:version="0.32">
	<path fill="#FFFFFF" d="M338.549,197.454h-56.292v-46.323h27.256v-31.572c0-3.118-2.527-5.646-5.646-5.646
		s-5.646,2.528-5.646,5.646v20.281h-15.965V94.477h27.256V62.905c0-3.118-2.527-5.646-5.646-5.646s-5.646,2.528-5.646,5.646v20.281
		h-15.965V50.421c0-5.3-4.297-9.598-9.598-9.598c-5.3,0-9.598,4.297-9.598,9.598v32.765h-15.964V62.905
		c0-3.118-2.528-5.646-5.646-5.646c-3.118,0-5.646,2.528-5.646,5.646v31.572h27.256v45.363h-15.964v-20.281
		c0-3.118-2.528-5.646-5.646-5.646c-3.118,0-5.646,2.528-5.646,5.646v31.572h27.256v378.447c0,5.301,4.297,9.598,9.598,9.598
		c5.301,0,9.598-4.297,9.598-9.598V208.746h56.292c3.118,0,5.646-2.528,5.646-5.646S341.667,197.454,338.549,197.454z"/>
</g>
</svg>
