<?xml version="1.0" encoding="utf-8"?>
<!-- Generator: Adobe Illustrator 15.0.0, SVG Export Plug-In . SVG Version: 6.00 Build 0)  -->
<!DOCTYPE svg PUBLIC "-//W3C//DTD SVG 1.1//EN" "http://www.w3.org/Graphics/SVG/1.1/DTD/svg11.dtd">
<svg version="1.1" xmlns="http://www.w3.org/2000/svg" xmlns:xlink="http://www.w3.org/1999/xlink" x="0px" y="0px" width="580px"
	 height="580px" viewBox="0 0 580 580" enable-background="new 0 0 580 580" xml:space="preserve">
<g id="Layer_2">
	<g id="g1327">
		<path id="path1329" fill="#111111" stroke="#EEEEEE" stroke-width="3.408" d="M66.275,1.768
			c-41.335,0-64.571,21.371-64.571,65.036v450.123c0,40.844,20.894,62.229,62.192,62.229H515.92
			c41.307,0,62.229-20.316,62.229-62.229V66.804c0-42.601-20.923-65.036-63.522-65.036C514.624,1.768,66.133,1.625,66.275,1.768z"/>
	</g>
</g>
<g id="svg2" xmlns:inkscape="http://www.inkscape.org/namespaces/inkscape" xmlns:rdf="http://www.w3.org/1999/02/22-rdf-syntax-ns#" xmlns:svg="http://www.w3.org/2000/svg" xmlns:sodipodi="http://sodipodi.sourceforge.net/DTD/sodipodi-0.dtd" xmlns:cc="http://creativecommons.org/ns#" xmlns:dc="http://purl.org/dc/elements/1.1/" inkscape:output_extension="org.inkscape.output.svg.inkscape" inkscape:version="0.46" sodipodi:docname="waste_bin.svg" sodipodi:version="0.32">
	<g>
		<g>
			<path fill="#FFFFFF" d="M187.961,149.202c0.118-0.647,2.902-16.052,2.94-33.914c0.054-25.085-5.285-42.086-15.868-50.531
				c-9.438-7.531-22.272-7.901-38.147-1.097c-51.38,22.02-55.36,20.378-74.477,12.485c-3.692-1.524-11.626-3.252-16.726-5.101
				v10.342c4.874,1.767,8.94,3.445,12.528,4.927c22.59,9.326,29.247,10.499,83.008-12.542c11.857-5.082,20.924-5.223,26.949-0.418
				c16.079,12.822,11.928,59.651,8.972,75.85H89.555V198.7h185.991v-49.498H187.961z"/>
			<rect x="89.555" y="213.699" fill="#FFFFFF" width="185.991" height="49.498"/>
			<rect x="89.555" y="278.195" fill="#FFFFFF" width="185.991" height="49.498"/>
			<rect x="89.555" y="342.692" fill="#FFFFFF" width="185.991" height="49.497"/>
			<rect x="89.555" y="407.189" fill="#FFFFFF" width="185.991" height="49.496"/>
			<rect x="89.555" y="471.686" fill="#FFFFFF" width="185.991" height="49.496"/>
		</g>
		<g>
			<path fill="#FFFFFF" d="M392.039,149.202c-0.118-0.647-2.901-16.052-2.94-33.914c-0.053-25.085,5.285-42.086,15.868-50.531
				c9.438-7.531,22.272-7.901,38.147-1.097c51.379,22.02,55.359,20.378,74.477,12.485c3.692-1.524,11.627-3.252,16.727-5.101v10.342
				c-4.874,1.767-8.941,3.445-12.529,4.927c-22.59,9.326-29.246,10.499-83.008-12.542c-11.857-5.082-20.924-5.223-26.949-0.418
				c-16.078,12.822-11.928,59.651-8.972,75.85h87.585V198.7h-185.99v-49.498H392.039z"/>
			<rect x="304.454" y="213.699" fill="#FFFFFF" width="185.99" height="49.498"/>
			<rect x="304.454" y="278.195" fill="#FFFFFF" width="185.99" height="49.498"/>
			<rect x="304.454" y="342.692" fill="#FFFFFF" width="185.99" height="49.497"/>
			<rect x="304.454" y="407.189" fill="#FFFFFF" width="185.99" height="49.496"/>
			<rect x="304.454" y="471.686" fill="#FFFFFF" width="185.99" height="49.496"/>
		</g>
	</g>
</g>
</svg>
