<?xml version="1.0" encoding="UTF-8" standalone="no"?>
<!-- Generator: Adobe Illustrator 15.0.0, SVG Export Plug-In . SVG Version: 6.00 Build 0)  -->

<svg
   xmlns:dc="http://purl.org/dc/elements/1.1/"
   xmlns:cc="http://creativecommons.org/ns#"
   xmlns:rdf="http://www.w3.org/1999/02/22-rdf-syntax-ns#"
   xmlns:svg="http://www.w3.org/2000/svg"
   xmlns="http://www.w3.org/2000/svg"
   xmlns:sodipodi="http://sodipodi.sourceforge.net/DTD/sodipodi-0.dtd"
   xmlns:inkscape="http://www.inkscape.org/namespaces/inkscape"
   version="1.1"
   x="0px"
   y="0px"
   width="580px"
   height="580px"
   viewBox="0 0 580 580"
   enable-background="new 0 0 580 580"
   xml:space="preserve"
   id="svg859"
   sodipodi:docname="obelisk.svg"
   inkscape:version="0.92.3 (2405546, 2018-03-11)"><metadata
   id="metadata865"><rdf:RDF><cc:Work
       rdf:about=""><dc:format>image/svg+xml</dc:format><dc:type
         rdf:resource="http://purl.org/dc/dcmitype/StillImage" /><dc:title></dc:title></cc:Work></rdf:RDF></metadata><defs
   id="defs863">
	
	
	
</defs><sodipodi:namedview
   pagecolor="#ffffff"
   bordercolor="#666666"
   borderopacity="1"
   objecttolerance="10"
   gridtolerance="10"
   guidetolerance="10"
   inkscape:pageopacity="0"
   inkscape:pageshadow="2"
   inkscape:window-width="1508"
   inkscape:window-height="989"
   id="namedview861"
   showgrid="false"
   inkscape:zoom="0.96"
   inkscape:cx="330.22156"
   inkscape:cy="349.70259"
   inkscape:window-x="185"
   inkscape:window-y="60"
   inkscape:window-maximized="1"
   inkscape:current-layer="svg859" />
<g
   id="Layer_2">
	<g
   id="g1327">
		<path
   id="path1329"
   d="M66.275,1.768    c-41.335,0-64.571,21.371-64.571,65.036v450.123c0,40.844,20.894,62.229,62.192,62.229H515.92    c41.307,0,62.229-20.316,62.229-62.229V66.804c0-42.601-20.923-65.036-63.522-65.036C514.624,1.768,66.133,1.625,66.275,1.768z"
   stroke-width="3.408"
   stroke="#EEEEEE"
   fill="#111111" />
	</g>
</g>

<path
   inkscape:connector-curvature="0"
   d="m 289.9265,64.159391 c 0,0 -64.64882,48.377779 -64.64882,64.648719 v 258.5953 h 129.29764 v -258.5953 c 0,-15.49616 -64.64882,-64.648719 -64.64882,-64.648719 z M 192.95326,419.72782 c -32.32441,0 -32.32441,32.32441 -32.32441,64.64882 h -32.32441 l -32.32441,32.32441 h 387.89294 l -32.32441,-32.32441 h -32.32442 c 0,-32.32441 0,-64.64882 -32.32441,-64.64882 z"
   id="monument"
   style="fill:#ffffff;fill-opacity:1;stroke:none;stroke-width:32.3244133" /></svg>