<?xml version="1.0" encoding="UTF-8" standalone="no"?>
<!-- Created with Inkscape (http://www.inkscape.org/) -->

<svg
   xmlns:dc="http://purl.org/dc/elements/1.1/"
   xmlns:cc="http://creativecommons.org/ns#"
   xmlns:rdf="http://www.w3.org/1999/02/22-rdf-syntax-ns#"
   xmlns:svg="http://www.w3.org/2000/svg"
   xmlns="http://www.w3.org/2000/svg"
   xmlns:sodipodi="http://sodipodi.sourceforge.net/DTD/sodipodi-0.dtd"
   xmlns:inkscape="http://www.inkscape.org/namespaces/inkscape"
   version="1.0"
   width="580"
   height="580"
   id="svg2"
   sodipodi:version="0.32"
   inkscape:version="0.92.3 (2405546, 2018-03-11)"
   sodipodi:docname="planter.svg"
   inkscape:output_extension="org.inkscape.output.svg.inkscape">
  <metadata
     id="metadata2975">
    <rdf:RDF>
      <cc:Work
         rdf:about="">
        <dc:format>image/svg+xml</dc:format>
        <dc:type
           rdf:resource="http://purl.org/dc/dcmitype/StillImage" />
        <dc:title />
      </cc:Work>
    </rdf:RDF>
  </metadata>
  <sodipodi:namedview
     inkscape:window-height="1147"
     inkscape:window-width="1920"
     inkscape:pageshadow="2"
     inkscape:pageopacity="0.0"
     guidetolerance="10.0"
     gridtolerance="10.0"
     objecttolerance="10.0"
     borderopacity="1.0"
     bordercolor="#666666"
     pagecolor="#ffffff"
     id="base"
     inkscape:zoom="0.73"
     inkscape:cx="367.55756"
     inkscape:cy="562.73973"
     inkscape:window-x="-8"
     inkscape:window-y="-8"
     inkscape:current-layer="svg2"
     showgrid="false"
     inkscape:window-maximized="1" />
  <defs
     id="defs4">
    <inkscape:perspective
       sodipodi:type="inkscape:persp3d"
       inkscape:vp_x="0 : 290 : 1"
       inkscape:vp_y="0 : 1000 : 0"
       inkscape:vp_z="580 : 290 : 1"
       inkscape:persp3d-origin="290 : 193.33333 : 1"
       id="perspective2441" />
    <inkscape:perspective
       id="perspective2466"
       inkscape:persp3d-origin="372.04724 : 350.78739 : 1"
       inkscape:vp_z="744.09448 : 526.18109 : 1"
       inkscape:vp_y="0 : 1000 : 0"
       inkscape:vp_x="0 : 526.18109 : 1"
       sodipodi:type="inkscape:persp3d" />
    <inkscape:perspective
       id="perspective3333"
       inkscape:persp3d-origin="372.04724 : 350.78739 : 1"
       inkscape:vp_z="744.09448 : 526.18109 : 1"
       inkscape:vp_y="0 : 1000 : 0"
       inkscape:vp_x="0 : 526.18109 : 1"
       sodipodi:type="inkscape:persp3d" />
    <inkscape:perspective
       id="perspective3401"
       inkscape:persp3d-origin="372.04724 : 350.78739 : 1"
       inkscape:vp_z="744.09448 : 526.18109 : 1"
       inkscape:vp_y="0 : 1000 : 0"
       inkscape:vp_x="0 : 526.18109 : 1"
       sodipodi:type="inkscape:persp3d" />
    <inkscape:perspective
       id="perspective3464"
       inkscape:persp3d-origin="372.04724 : 350.78739 : 1"
       inkscape:vp_z="744.09448 : 526.18109 : 1"
       inkscape:vp_y="0 : 1000 : 0"
       inkscape:vp_x="0 : 526.18109 : 1"
       sodipodi:type="inkscape:persp3d" />
    <inkscape:perspective
       id="perspective3581"
       inkscape:persp3d-origin="225 : 150 : 1"
       inkscape:vp_z="450 : 225 : 1"
       inkscape:vp_y="0 : 1000 : 0"
       inkscape:vp_x="0 : 225 : 1"
       sodipodi:type="inkscape:persp3d" />
    <inkscape:perspective
       id="perspective4312"
       inkscape:persp3d-origin="225 : 150 : 1"
       inkscape:vp_z="450 : 225 : 1"
       inkscape:vp_y="0 : 1000 : 0"
       inkscape:vp_x="0 : 225 : 1"
       sodipodi:type="inkscape:persp3d" />
    <inkscape:perspective
       id="perspective8860"
       inkscape:persp3d-origin="372.04724 : 350.78739 : 1"
       inkscape:vp_z="744.09448 : 526.18109 : 1"
       inkscape:vp_y="0 : 1000 : 0"
       inkscape:vp_x="0 : 526.18109 : 1"
       sodipodi:type="inkscape:persp3d" />
    <inkscape:perspective
       id="perspective8887"
       inkscape:persp3d-origin="372.04724 : 350.78739 : 1"
       inkscape:vp_z="744.09448 : 526.18109 : 1"
       inkscape:vp_y="0 : 1000 : 0"
       inkscape:vp_x="0 : 526.18109 : 1"
       sodipodi:type="inkscape:persp3d" />
    <inkscape:perspective
       sodipodi:type="inkscape:persp3d"
       inkscape:vp_x="0 : 16 : 1"
       inkscape:vp_y="0 : 1000 : 0"
       inkscape:vp_z="32 : 16 : 1"
       inkscape:persp3d-origin="16 : 10.666667 : 1"
       id="perspective4904" />
    <inkscape:perspective
       sodipodi:type="inkscape:persp3d"
       inkscape:vp_x="0 : 6 : 1"
       inkscape:vp_y="0 : 1000 : 0"
       inkscape:vp_z="12 : 6 : 1"
       inkscape:persp3d-origin="6 : 4 : 1"
       id="perspective4668" />
    <inkscape:perspective
       sodipodi:type="inkscape:persp3d"
       inkscape:vp_x="0 : 526.18109 : 1"
       inkscape:vp_y="0 : 1000 : 0"
       inkscape:vp_z="744.09448 : 526.18109 : 1"
       inkscape:persp3d-origin="372.04724 : 350.78739 : 1"
       id="perspective4471" />
    <symbol
       id="symbol-university"
       viewBox="244.5 110 489 219.9">
      <path
         d="M79,43l57,119c0,0,21-96,104-96s124,106,124,106l43-133l82-17L0,17L79,43z"
         id="path4460" />
      <path
         fill="none"
         stroke="#000000"
         stroke-width="20"
         d="M94,176l-21,39"
         id="path4462" />
      <path
         d="M300,19c0,10.5-22.6,19-50.5,19S199,29.5,199,19s22.6-19,50.5-19S300,8.5,300,19z"
         id="path4464" />
      <path
         ill="none"
         stroke="#000000"
         stroke-width="20"
         d="M112,216l-16-38L64,88c0,0-9-8-4-35s16-24,16-24"
         id="path4466" />
    </symbol>
    <inkscape:perspective
       sodipodi:type="inkscape:persp3d"
       inkscape:vp_x="0 : 30 : 1"
       inkscape:vp_y="0 : 1000 : 0"
       inkscape:vp_z="60 : 30 : 1"
       inkscape:persp3d-origin="30 : 20 : 1"
       id="perspective3452" />
    <inkscape:perspective
       id="perspective9479"
       inkscape:persp3d-origin="290 : 193.33333 : 1"
       inkscape:vp_z="580 : 290 : 1"
       inkscape:vp_y="0 : 1000 : 0"
       inkscape:vp_x="0 : 290 : 1"
       sodipodi:type="inkscape:persp3d" />
    <inkscape:perspective
       id="perspective9690"
       inkscape:persp3d-origin="372.04724 : 350.78739 : 1"
       inkscape:vp_z="744.09448 : 526.18109 : 1"
       inkscape:vp_y="0 : 1000 : 0"
       inkscape:vp_x="0 : 526.18109 : 1"
       sodipodi:type="inkscape:persp3d" />
    <inkscape:perspective
       sodipodi:type="inkscape:persp3d"
       inkscape:vp_x="0 : 290 : 1"
       inkscape:vp_y="0 : 1000 : 0"
       inkscape:vp_z="580 : 290 : 1"
       inkscape:persp3d-origin="290 : 193.33333 : 1"
       id="perspective9819" />
    <inkscape:perspective
       id="perspective9817"
       inkscape:persp3d-origin="30 : 20 : 1"
       inkscape:vp_z="60 : 30 : 1"
       inkscape:vp_y="0 : 1000 : 0"
       inkscape:vp_x="0 : 30 : 1"
       sodipodi:type="inkscape:persp3d" />
    <symbol
       viewBox="244.5 110 489 219.9"
       id="symbol9807">
      <path
         id="path9809"
         d="M79,43l57,119c0,0,21-96,104-96s124,106,124,106l43-133l82-17L0,17L79,43z" />
      <path
         id="path9811"
         d="M94,176l-21,39"
         stroke-width="20"
         stroke="#000000"
         fill="none" />
      <path
         id="path9813"
         d="M300,19c0,10.5-22.6,19-50.5,19S199,29.5,199,19s22.6-19,50.5-19S300,8.5,300,19z" />
      <path
         id="path9815"
         d="M112,216l-16-38L64,88c0,0-9-8-4-35s16-24,16-24"
         stroke-width="20"
         stroke="#000000"
         ill="none" />
    </symbol>
    <inkscape:perspective
       id="perspective9805"
       inkscape:persp3d-origin="372.04724 : 350.78739 : 1"
       inkscape:vp_z="744.09448 : 526.18109 : 1"
       inkscape:vp_y="0 : 1000 : 0"
       inkscape:vp_x="0 : 526.18109 : 1"
       sodipodi:type="inkscape:persp3d" />
    <inkscape:perspective
       id="perspective9803"
       inkscape:persp3d-origin="6 : 4 : 1"
       inkscape:vp_z="12 : 6 : 1"
       inkscape:vp_y="0 : 1000 : 0"
       inkscape:vp_x="0 : 6 : 1"
       sodipodi:type="inkscape:persp3d" />
    <inkscape:perspective
       id="perspective9801"
       inkscape:persp3d-origin="16 : 10.666667 : 1"
       inkscape:vp_z="32 : 16 : 1"
       inkscape:vp_y="0 : 1000 : 0"
       inkscape:vp_x="0 : 16 : 1"
       sodipodi:type="inkscape:persp3d" />
    <inkscape:perspective
       sodipodi:type="inkscape:persp3d"
       inkscape:vp_x="0 : 526.18109 : 1"
       inkscape:vp_y="0 : 1000 : 0"
       inkscape:vp_z="744.09448 : 526.18109 : 1"
       inkscape:persp3d-origin="372.04724 : 350.78739 : 1"
       id="perspective9799" />
    <inkscape:perspective
       sodipodi:type="inkscape:persp3d"
       inkscape:vp_x="0 : 526.18109 : 1"
       inkscape:vp_y="0 : 1000 : 0"
       inkscape:vp_z="744.09448 : 526.18109 : 1"
       inkscape:persp3d-origin="372.04724 : 350.78739 : 1"
       id="perspective9797" />
    <inkscape:perspective
       sodipodi:type="inkscape:persp3d"
       inkscape:vp_x="0 : 225 : 1"
       inkscape:vp_y="0 : 1000 : 0"
       inkscape:vp_z="450 : 225 : 1"
       inkscape:persp3d-origin="225 : 150 : 1"
       id="perspective9795" />
    <inkscape:perspective
       sodipodi:type="inkscape:persp3d"
       inkscape:vp_x="0 : 225 : 1"
       inkscape:vp_y="0 : 1000 : 0"
       inkscape:vp_z="450 : 225 : 1"
       inkscape:persp3d-origin="225 : 150 : 1"
       id="perspective9793" />
    <inkscape:perspective
       sodipodi:type="inkscape:persp3d"
       inkscape:vp_x="0 : 526.18109 : 1"
       inkscape:vp_y="0 : 1000 : 0"
       inkscape:vp_z="744.09448 : 526.18109 : 1"
       inkscape:persp3d-origin="372.04724 : 350.78739 : 1"
       id="perspective9791" />
    <inkscape:perspective
       sodipodi:type="inkscape:persp3d"
       inkscape:vp_x="0 : 526.18109 : 1"
       inkscape:vp_y="0 : 1000 : 0"
       inkscape:vp_z="744.09448 : 526.18109 : 1"
       inkscape:persp3d-origin="372.04724 : 350.78739 : 1"
       id="perspective9789" />
    <inkscape:perspective
       sodipodi:type="inkscape:persp3d"
       inkscape:vp_x="0 : 526.18109 : 1"
       inkscape:vp_y="0 : 1000 : 0"
       inkscape:vp_z="744.09448 : 526.18109 : 1"
       inkscape:persp3d-origin="372.04724 : 350.78739 : 1"
       id="perspective9787" />
    <inkscape:perspective
       sodipodi:type="inkscape:persp3d"
       inkscape:vp_x="0 : 526.18109 : 1"
       inkscape:vp_y="0 : 1000 : 0"
       inkscape:vp_z="744.09448 : 526.18109 : 1"
       inkscape:persp3d-origin="372.04724 : 350.78739 : 1"
       id="perspective9785" />
    <inkscape:perspective
       id="perspective9783"
       inkscape:persp3d-origin="290 : 193.33333 : 1"
       inkscape:vp_z="580 : 290 : 1"
       inkscape:vp_y="0 : 1000 : 0"
       inkscape:vp_x="0 : 290 : 1"
       sodipodi:type="inkscape:persp3d" />
    <defs
       id="defs48974" />
    <sodipodi:namedview
       pagecolor="#ffffff"
       inkscape:zoom="0.61399264"
       inkscape:window-y="26"
       inkscape:window-x="0"
       inkscape:window-width="1012"
       inkscape:window-height="739"
       inkscape:pageshadow="2"
       inkscape:pageopacity="0.0"
       inkscape:cy="250.37448"
       inkscape:cx="475.26707"
       id="namedview4258"
       borderopacity="1.0"
       bordercolor="#666666" />
    <inkscape:perspective
       id="perspective11483"
       inkscape:persp3d-origin="100 : 66.666667 : 1"
       inkscape:vp_z="200 : 100 : 1"
       inkscape:vp_y="0 : 1000 : 0"
       inkscape:vp_x="0 : 100 : 1"
       sodipodi:type="inkscape:persp3d" />
    <linearGradient
       id="linearGradient2936">
      <stop
         style="stop-color:#8acf6b;stop-opacity:1.0000000;"
         offset="0.0000000"
         id="stop2938" />
      <stop
         style="stop-color:#368912;stop-opacity:1.0000000;"
         offset="1.0000000"
         id="stop2940" />
    </linearGradient>
    <linearGradient
       id="linearGradient2952">
      <stop
         style="stop-color:#c0d50d;stop-opacity:1;"
         offset="0"
         id="stop2954" />
      <stop
         style="stop-color:#eef2cd;stop-opacity:1.0000000;"
         offset="1.0000000"
         id="stop2956" />
    </linearGradient>
    <inkscape:perspective
       id="perspective34"
       inkscape:persp3d-origin="372.04724 : 350.78739 : 1"
       inkscape:vp_z="744.09448 : 526.18109 : 1"
       inkscape:vp_y="0 : 1000 : 0"
       inkscape:vp_x="0 : 526.18109 : 1"
       sodipodi:type="inkscape:persp3d" />
  </defs>
  <g
     id="g1327">
    <path
       d="M 66.275,1.768 C 24.94,1.768 1.704,23.139 1.704,66.804 L 1.704,516.927 C 1.704,557.771 22.599,579.156 63.896,579.156 L 515.92,579.156 C 557.227,579.156 578.149,558.841 578.149,516.927 L 578.149,66.804 C 578.149,24.203 557.227,1.768 514.628,1.768 C 514.624,1.768 66.133,1.625 66.275,1.768 z "
       style="fill:#111;stroke:#eee;stroke-width:3.40799999"
       id="path1329" />
  </g>
  <g
     id="layer3"
     inkscape:label="Layout"
     style="stroke:#757575;stroke-opacity:1;display:none"
     transform="matrix(48.14969,0,0,48.14969,-1210.2219,-51.870914)">
    <rect
       style="fill:none;stroke:#757575;stroke-width:0.1;stroke-miterlimit:4;stroke-dasharray:none;stroke-opacity:1;display:inline"
       id="rect4134"
       width="10"
       height="10"
       x="1"
       y="1" />
    <rect
       style="fill:none;stroke:#757575;stroke-width:0.1;stroke-miterlimit:4;stroke-dasharray:none;stroke-opacity:1;display:inline"
       id="rect4136"
       width="8"
       height="8"
       x="2"
       y="2" />
  </g>
  <g
     id="g9828"
     inkscape:label="Layout"
     style="stroke:#757575;stroke-opacity:1;display:none"
     transform="matrix(48.14969,0,0,48.14969,-1870.5198,102.97115)">
    <rect
       style="fill:none;stroke:#757575;stroke-width:0.1;stroke-miterlimit:4;stroke-dasharray:none;stroke-opacity:1;display:inline"
       id="rect9830"
       width="10"
       height="10"
       x="1"
       y="1" />
    <rect
       style="fill:none;stroke:#757575;stroke-width:0.1;stroke-miterlimit:4;stroke-dasharray:none;stroke-opacity:1;display:inline"
       id="rect9832"
       width="8"
       height="8"
       x="2"
       y="2" />
  </g>
  <g
     id="g961"
     transform="matrix(0.34220882,0,0,0.34220882,93.186566,114.43922)">
    <path
       d="m 387.99683,121.29864 c -10.31157,22.46277 -54.80143,68.35329 -78.63948,57.4104 -23.83804,-10.9429 -18.04181,-74.59579 -7.73024,-97.058554 10.31157,-22.462776 45.09341,-40.634293 59.64586,-13.844296 30.63221,-6.047904 37.03543,31.029688 26.72386,53.49245 z"
       id="path3737"
       sodipodi:nodetypes="ccccc"
       style="fill:#ffffff;fill-opacity:1;stroke:none;stroke-width:0.16121733;stroke-linecap:round;stroke-linejoin:round;stroke-miterlimit:4;stroke-opacity:1"
       inkscape:connector-curvature="0" />
    <path
       d="m 402.73084,252.22536 c -24.67013,1.51358 -86.12764,-16.04374 -87.73389,-42.22426 -1.60625,-26.18052 57.24403,-51.11909 81.9141,-52.63268 24.67012,-1.51358 57.10876,20.57069 40.36137,46.0462 19.792,24.14927 -9.87151,47.29713 -34.54158,48.81074 z"
       id="path3741"
       sodipodi:nodetypes="ccccc"
       style="fill:#ffffff;fill-opacity:1;stroke:none;stroke-width:0.16121733;stroke-linecap:round;stroke-linejoin:round;stroke-miterlimit:4;stroke-opacity:1"
       inkscape:connector-curvature="0" />
    <path
       d="m 169.71491,272.4472 c 13.75024,-20.53865 64.96744,-58.77588 86.76356,-44.18379 21.79611,14.59206 5.95813,76.51497 -7.7921,97.05361 -13.75022,20.53863 -50.97778,32.95186 -61.08796,4.18971 -31.20406,1.10312 -31.6337,-36.52087 -17.8835,-57.05953 z"
       id="path3749"
       sodipodi:nodetypes="ccccc"
       style="fill:#ffffff;fill-opacity:1;stroke:none;stroke-width:0.16121733;stroke-linecap:round;stroke-linejoin:round;stroke-miterlimit:4;stroke-opacity:1"
       inkscape:connector-curvature="0" />
    <path
       d="m 177.25987,139.80678 c 24.27348,4.65867 79.44787,36.92431 74.504,62.68394 -4.94386,25.7596 -68.14307,35.30666 -92.41654,30.648 -24.27349,-4.65864 -50.21364,-34.10499 -27.66581,-54.62504 -13.17685,-28.30692 21.30487,-43.36551 45.57835,-38.7069 z"
       id="path3753"
       sodipodi:nodetypes="ccccc"
       style="fill:#ffffff;fill-opacity:1;stroke:none;stroke-width:0.16121733;stroke-linecap:round;stroke-linejoin:round;stroke-miterlimit:4;stroke-opacity:1"
       inkscape:connector-curvature="0" />
    <path
       d="m 277.10264,77.667803 c 11.31571,21.974066 19.98122,85.300167 -3.33823,97.308657 -23.31941,12.00847 -69.83674,-31.82557 -81.15243,-53.79963 -11.31568,-21.974088 -4.1566,-60.5581 25.90513,-55.481698 14.13988,-27.83835 47.26982,-10.001404 58.58553,11.972671 z"
       id="path3755"
       sodipodi:nodetypes="ccccc"
       style="fill:#ffffff;fill-opacity:1;stroke:none;stroke-width:0.16121733;stroke-linecap:round;stroke-linejoin:round;stroke-miterlimit:4;stroke-opacity:1"
       inkscape:connector-curvature="0" />
    <ellipse
       transform="matrix(0.7053332,0,0,0.7053332,114.12867,-60.986774)"
       id="path2974"
       style="fill:#ffffff;fill-opacity:1;stroke:none;stroke-width:0.25;stroke-linecap:round;stroke-linejoin:round;stroke-miterlimit:4;stroke-opacity:1"
       cx="239"
       cy="376.36218"
       rx="59"
       ry="58" />
    <path
       style="fill:#ffffff;fill-opacity:1;stroke:none;stroke-width:0.16121733;stroke-linecap:round;stroke-linejoin:round;stroke-miterlimit:4;stroke-opacity:1"
       sodipodi:nodetypes="ccccc"
       id="path12269"
       d="m 274.86005,324.15543 c -8.58767,-23.17665 -9.56558,-87.08541 15.03005,-96.19884 24.59561,-9.11343 65.49685,40.0025 74.08452,63.17913 8.58765,23.17666 -3.16494,60.61803 -32.39677,51.95906 -17.3888,25.93336 -48.13013,4.2373 -56.7178,-18.93935 z"
       inkscape:connector-curvature="0" />
    <path
       id="path12271"
       d="m 276.375,192.0625 c -4.22066,11.41596 -8.426,22.8376 -12.65625,34.25 3.64033,0.53581 8.31521,5.68528 10.625,1.03125 7.60631,-9.38564 20.91626,-12.91607 32.28125,-8.65625 -1.36395,-5.28108 -1.78523,-10.79477 -0.84375,-16.1875 -9.42273,-4.48305 -18.93139,-8.697 -28.71875,-12.34375 -0.22917,0.63542 -0.45833,1.27083 -0.6875,1.90625 z m 79.21875,65.65625 C 370.9151,275.63926 381.1882,300.0815 375,323.6875 c -2.0368,8.92708 -7.66231,16.58551 -13.75,22.9375 -13.33763,59.51675 -34.66786,116.92182 -56.81044,173.69863 -0.37944,4.78377 9.99398,5.0247 14.03276,7.94124 6.9758,2.84409 13.96999,5.64346 20.93393,8.51638 23.79787,-60.85348 46.64982,-122.54607 60.53125,-186.5 5.14805,-24.69902 8.68472,-52.1996 -3.65625,-75.34375 -2.77011,-4.50612 -5.02568,-10.22697 -9.15625,-13.25 -12.22697,-1.16677 -23.88404,-5.66749 -35.625,-9.09375 1.36458,1.70833 2.72917,3.41667 4.09375,5.125 z"
       style="color:#000000;font-style:normal;font-variant:normal;font-weight:normal;font-stretch:normal;font-size:medium;line-height:normal;font-family:'Bitstream Charter';-inkscape-font-specification:'Bitstream Charter';text-indent:0;text-align:start;text-decoration:none;text-decoration-line:none;letter-spacing:normal;word-spacing:normal;text-transform:none;writing-mode:lr-tb;direction:ltr;text-anchor:start;display:inline;overflow:visible;visibility:visible;fill:#ffffff;fill-opacity:1;stroke:none;stroke-width:34.55872726;marker:none;enable-background:accumulate"
       inkscape:connector-curvature="0" />
  </g>
  <g
     transform="matrix(0.34220882,0,0,0.34220882,188.13417,114.43922)"
     id="g979">
    <path
       inkscape:connector-curvature="0"
       style="fill:#ffffff;fill-opacity:1;stroke:none;stroke-width:0.16121733;stroke-linecap:round;stroke-linejoin:round;stroke-miterlimit:4;stroke-opacity:1"
       sodipodi:nodetypes="ccccc"
       id="path963"
       d="m 387.99683,121.29864 c -10.31157,22.46277 -54.80143,68.35329 -78.63948,57.4104 -23.83804,-10.9429 -18.04181,-74.59579 -7.73024,-97.058554 10.31157,-22.462776 45.09341,-40.634293 59.64586,-13.844296 30.63221,-6.047904 37.03543,31.029688 26.72386,53.49245 z" />
    <path
       inkscape:connector-curvature="0"
       style="fill:#ffffff;fill-opacity:1;stroke:none;stroke-width:0.16121733;stroke-linecap:round;stroke-linejoin:round;stroke-miterlimit:4;stroke-opacity:1"
       sodipodi:nodetypes="ccccc"
       id="path965"
       d="m 402.73084,252.22536 c -24.67013,1.51358 -86.12764,-16.04374 -87.73389,-42.22426 -1.60625,-26.18052 57.24403,-51.11909 81.9141,-52.63268 24.67012,-1.51358 57.10876,20.57069 40.36137,46.0462 19.792,24.14927 -9.87151,47.29713 -34.54158,48.81074 z" />
    <path
       inkscape:connector-curvature="0"
       style="fill:#ffffff;fill-opacity:1;stroke:none;stroke-width:0.16121733;stroke-linecap:round;stroke-linejoin:round;stroke-miterlimit:4;stroke-opacity:1"
       sodipodi:nodetypes="ccccc"
       id="path967"
       d="m 169.71491,272.4472 c 13.75024,-20.53865 64.96744,-58.77588 86.76356,-44.18379 21.79611,14.59206 5.95813,76.51497 -7.7921,97.05361 -13.75022,20.53863 -50.97778,32.95186 -61.08796,4.18971 -31.20406,1.10312 -31.6337,-36.52087 -17.8835,-57.05953 z" />
    <path
       inkscape:connector-curvature="0"
       style="fill:#ffffff;fill-opacity:1;stroke:none;stroke-width:0.16121733;stroke-linecap:round;stroke-linejoin:round;stroke-miterlimit:4;stroke-opacity:1"
       sodipodi:nodetypes="ccccc"
       id="path969"
       d="m 177.25987,139.80678 c 24.27348,4.65867 79.44787,36.92431 74.504,62.68394 -4.94386,25.7596 -68.14307,35.30666 -92.41654,30.648 -24.27349,-4.65864 -50.21364,-34.10499 -27.66581,-54.62504 -13.17685,-28.30692 21.30487,-43.36551 45.57835,-38.7069 z" />
    <path
       inkscape:connector-curvature="0"
       style="fill:#ffffff;fill-opacity:1;stroke:none;stroke-width:0.16121733;stroke-linecap:round;stroke-linejoin:round;stroke-miterlimit:4;stroke-opacity:1"
       sodipodi:nodetypes="ccccc"
       id="path971"
       d="m 277.10264,77.667803 c 11.31571,21.974066 19.98122,85.300167 -3.33823,97.308657 -23.31941,12.00847 -69.83674,-31.82557 -81.15243,-53.79963 -11.31568,-21.974088 -4.1566,-60.5581 25.90513,-55.481698 14.13988,-27.83835 47.26982,-10.001404 58.58553,11.972671 z" />
    <ellipse
       ry="58"
       rx="59"
       cy="376.36218"
       cx="239"
       style="fill:#ffffff;fill-opacity:1;stroke:none;stroke-width:0.25;stroke-linecap:round;stroke-linejoin:round;stroke-miterlimit:4;stroke-opacity:1"
       id="ellipse973"
       transform="matrix(0.7053332,0,0,0.7053332,114.12867,-60.986774)" />
    <path
       inkscape:connector-curvature="0"
       d="m 274.86005,324.15543 c -8.58767,-23.17665 -9.56558,-87.08541 15.03005,-96.19884 24.59561,-9.11343 65.49685,40.0025 74.08452,63.17913 8.58765,23.17666 -3.16494,60.61803 -32.39677,51.95906 -17.3888,25.93336 -48.13013,4.2373 -56.7178,-18.93935 z"
       id="path975"
       sodipodi:nodetypes="ccccc"
       style="fill:#ffffff;fill-opacity:1;stroke:none;stroke-width:0.16121733;stroke-linecap:round;stroke-linejoin:round;stroke-miterlimit:4;stroke-opacity:1" />
    <path
       inkscape:connector-curvature="0"
       style="color:#000000;font-style:normal;font-variant:normal;font-weight:normal;font-stretch:normal;font-size:medium;line-height:normal;font-family:'Bitstream Charter';-inkscape-font-specification:'Bitstream Charter';text-indent:0;text-align:start;text-decoration:none;text-decoration-line:none;letter-spacing:normal;word-spacing:normal;text-transform:none;writing-mode:lr-tb;direction:ltr;text-anchor:start;display:inline;overflow:visible;visibility:visible;fill:#ffffff;fill-opacity:1;stroke:none;stroke-width:34.55872726;marker:none;enable-background:accumulate"
       d="m 276.375,192.0625 c -4.22066,11.41596 -8.426,22.8376 -12.65625,34.25 3.64033,0.53581 8.31521,5.68528 10.625,1.03125 7.60631,-9.38564 20.91626,-12.91607 32.28125,-8.65625 -1.36395,-5.28108 -1.78523,-10.79477 -0.84375,-16.1875 -9.42273,-4.48305 -18.93139,-8.697 -28.71875,-12.34375 -0.22917,0.63542 -0.45833,1.27083 -0.6875,1.90625 z m 79.21875,65.65625 C 370.9151,275.63926 381.1882,300.0815 375,323.6875 c -2.0368,8.92708 -7.66231,16.58551 -13.75,22.9375 -13.33763,59.51675 -34.66786,116.92182 -56.81044,173.69863 -0.37944,4.78377 9.99398,5.0247 14.03276,7.94124 6.9758,2.84409 13.96999,5.64346 20.93393,8.51638 23.79787,-60.85348 46.64982,-122.54607 60.53125,-186.5 5.14805,-24.69902 8.68472,-52.1996 -3.65625,-75.34375 -2.77011,-4.50612 -5.02568,-10.22697 -9.15625,-13.25 -12.22697,-1.16677 -23.88404,-5.66749 -35.625,-9.09375 1.36458,1.70833 2.72917,3.41667 4.09375,5.125 z"
       id="path977" />
  </g>
  <g
     id="g997"
     transform="matrix(0.34220882,0,0,0.34220882,292.71007,114.43922)">
    <path
       d="m 387.99683,121.29864 c -10.31157,22.46277 -54.80143,68.35329 -78.63948,57.4104 -23.83804,-10.9429 -18.04181,-74.59579 -7.73024,-97.058554 10.31157,-22.462776 45.09341,-40.634293 59.64586,-13.844296 30.63221,-6.047904 37.03543,31.029688 26.72386,53.49245 z"
       id="path981"
       sodipodi:nodetypes="ccccc"
       style="fill:#ffffff;fill-opacity:1;stroke:none;stroke-width:0.16121733;stroke-linecap:round;stroke-linejoin:round;stroke-miterlimit:4;stroke-opacity:1"
       inkscape:connector-curvature="0" />
    <path
       d="m 402.73084,252.22536 c -24.67013,1.51358 -86.12764,-16.04374 -87.73389,-42.22426 -1.60625,-26.18052 57.24403,-51.11909 81.9141,-52.63268 24.67012,-1.51358 57.10876,20.57069 40.36137,46.0462 19.792,24.14927 -9.87151,47.29713 -34.54158,48.81074 z"
       id="path983"
       sodipodi:nodetypes="ccccc"
       style="fill:#ffffff;fill-opacity:1;stroke:none;stroke-width:0.16121733;stroke-linecap:round;stroke-linejoin:round;stroke-miterlimit:4;stroke-opacity:1"
       inkscape:connector-curvature="0" />
    <path
       d="m 169.71491,272.4472 c 13.75024,-20.53865 64.96744,-58.77588 86.76356,-44.18379 21.79611,14.59206 5.95813,76.51497 -7.7921,97.05361 -13.75022,20.53863 -50.97778,32.95186 -61.08796,4.18971 -31.20406,1.10312 -31.6337,-36.52087 -17.8835,-57.05953 z"
       id="path985"
       sodipodi:nodetypes="ccccc"
       style="fill:#ffffff;fill-opacity:1;stroke:none;stroke-width:0.16121733;stroke-linecap:round;stroke-linejoin:round;stroke-miterlimit:4;stroke-opacity:1"
       inkscape:connector-curvature="0" />
    <path
       d="m 177.25987,139.80678 c 24.27348,4.65867 79.44787,36.92431 74.504,62.68394 -4.94386,25.7596 -68.14307,35.30666 -92.41654,30.648 -24.27349,-4.65864 -50.21364,-34.10499 -27.66581,-54.62504 -13.17685,-28.30692 21.30487,-43.36551 45.57835,-38.7069 z"
       id="path987"
       sodipodi:nodetypes="ccccc"
       style="fill:#ffffff;fill-opacity:1;stroke:none;stroke-width:0.16121733;stroke-linecap:round;stroke-linejoin:round;stroke-miterlimit:4;stroke-opacity:1"
       inkscape:connector-curvature="0" />
    <path
       d="m 277.10264,77.667803 c 11.31571,21.974066 19.98122,85.300167 -3.33823,97.308657 -23.31941,12.00847 -69.83674,-31.82557 -81.15243,-53.79963 -11.31568,-21.974088 -4.1566,-60.5581 25.90513,-55.481698 14.13988,-27.83835 47.26982,-10.001404 58.58553,11.972671 z"
       id="path989"
       sodipodi:nodetypes="ccccc"
       style="fill:#ffffff;fill-opacity:1;stroke:none;stroke-width:0.16121733;stroke-linecap:round;stroke-linejoin:round;stroke-miterlimit:4;stroke-opacity:1"
       inkscape:connector-curvature="0" />
    <ellipse
       transform="matrix(0.7053332,0,0,0.7053332,114.12867,-60.986774)"
       id="ellipse991"
       style="fill:#ffffff;fill-opacity:1;stroke:none;stroke-width:0.25;stroke-linecap:round;stroke-linejoin:round;stroke-miterlimit:4;stroke-opacity:1"
       cx="239"
       cy="376.36218"
       rx="59"
       ry="58" />
    <path
       style="fill:#ffffff;fill-opacity:1;stroke:none;stroke-width:0.16121733;stroke-linecap:round;stroke-linejoin:round;stroke-miterlimit:4;stroke-opacity:1"
       sodipodi:nodetypes="ccccc"
       id="path993"
       d="m 274.86005,324.15543 c -8.58767,-23.17665 -9.56558,-87.08541 15.03005,-96.19884 24.59561,-9.11343 65.49685,40.0025 74.08452,63.17913 8.58765,23.17666 -3.16494,60.61803 -32.39677,51.95906 -17.3888,25.93336 -48.13013,4.2373 -56.7178,-18.93935 z"
       inkscape:connector-curvature="0" />
    <path
       id="path995"
       d="m 276.375,192.0625 c -4.22066,11.41596 -8.426,22.8376 -12.65625,34.25 3.64033,0.53581 8.31521,5.68528 10.625,1.03125 7.60631,-9.38564 20.91626,-12.91607 32.28125,-8.65625 -1.36395,-5.28108 -1.78523,-10.79477 -0.84375,-16.1875 -9.42273,-4.48305 -18.93139,-8.697 -28.71875,-12.34375 -0.22917,0.63542 -0.45833,1.27083 -0.6875,1.90625 z m 79.21875,65.65625 C 370.9151,275.63926 381.1882,300.0815 375,323.6875 c -2.0368,8.92708 -7.66231,16.58551 -13.75,22.9375 -13.33763,59.51675 -34.66786,116.92182 -56.81044,173.69863 -0.37944,4.78377 9.99398,5.0247 14.03276,7.94124 6.9758,2.84409 13.96999,5.64346 20.93393,8.51638 23.79787,-60.85348 46.64982,-122.54607 60.53125,-186.5 5.14805,-24.69902 8.68472,-52.1996 -3.65625,-75.34375 -2.77011,-4.50612 -5.02568,-10.22697 -9.15625,-13.25 -12.22697,-1.16677 -23.88404,-5.66749 -35.625,-9.09375 1.36458,1.70833 2.72917,3.41667 4.09375,5.125 z"
       style="color:#000000;font-style:normal;font-variant:normal;font-weight:normal;font-stretch:normal;font-size:medium;line-height:normal;font-family:'Bitstream Charter';-inkscape-font-specification:'Bitstream Charter';text-indent:0;text-align:start;text-decoration:none;text-decoration-line:none;letter-spacing:normal;word-spacing:normal;text-transform:none;writing-mode:lr-tb;direction:ltr;text-anchor:start;display:inline;overflow:visible;visibility:visible;fill:#ffffff;fill-opacity:1;stroke:none;stroke-width:34.55872726;marker:none;enable-background:accumulate"
       inkscape:connector-curvature="0" />
  </g>
  <path
     style="color:#000000;display:inline;overflow:visible;visibility:visible;opacity:1;fill:#ffffff;fill-opacity:1;fill-rule:nonzero;stroke:#ffffff;stroke-width:10.38666248;stroke-miterlimit:4;stroke-dasharray:none;stroke-opacity:1;marker:none;enable-background:accumulate"
     d="M 74.858002,266.96356 H 504.995 L 480.33747,458.0822 96.77581,456.71234 Z"
     id="rect999"
     inkscape:connector-curvature="0"
     sodipodi:nodetypes="ccccc" />
</svg>
