<?xml version="1.0" encoding="utf-8"?>
<!-- Generator: Adobe Illustrator 15.0.0, SVG Export Plug-In . SVG Version: 6.00 Build 0)  -->
<!DOCTYPE svg PUBLIC "-//W3C//DTD SVG 1.1//EN" "http://www.w3.org/Graphics/SVG/1.1/DTD/svg11.dtd">
<svg version="1.1" xmlns="http://www.w3.org/2000/svg" xmlns:xlink="http://www.w3.org/1999/xlink" x="0px" y="0px" width="580px"
	 height="580px" viewBox="0 0 580 580" enable-background="new 0 0 580 580" xml:space="preserve">
<g id="Layer_2">
	<g id="g1327">
		<path id="path1329" fill="#111111" stroke="#EEEEEE" stroke-width="3.408" d="M66.275,1.768
			c-41.335,0-64.571,21.371-64.571,65.036v450.123c0,40.844,20.894,62.229,62.192,62.229H515.92
			c41.307,0,62.229-20.316,62.229-62.229V66.804c0-42.601-20.923-65.036-63.522-65.036C514.624,1.768,66.133,1.625,66.275,1.768z"/>
	</g>
</g>
<g id="svg2" inkscape:output_extension="org.inkscape.output.svg.inkscape" xmlns:cc="http://creativecommons.org/ns#" xmlns:svg="http://www.w3.org/2000/svg" xmlns:sodipodi="http://sodipodi.sourceforge.net/DTD/sodipodi-0.dtd" xmlns:rdf="http://www.w3.org/1999/02/22-rdf-syntax-ns#" xmlns:dc="http://purl.org/dc/elements/1.1/" xmlns:inkscape="http://www.inkscape.org/namespaces/inkscape" sodipodi:docname="waste_bin.svg" inkscape:version="0.46" sodipodi:version="0.32" display="none">
	<g display="inline">
		<path fill="#FFFFFF" d="M290.876,140.752c10.721,0,20.05-3.87,27.987-11.609c7.939-7.739,11.908-17.168,11.91-28.287
			c-0.002-11.106-3.971-20.53-11.91-28.27c-7.938-7.739-17.267-11.609-27.987-11.609c-11.106,0-20.53,3.87-28.27,11.609
			C254.869,80.326,251,89.75,251,100.856c0,11.118,3.868,20.547,11.606,28.287C270.346,136.882,279.77,140.752,290.876,140.752z"/>
		<path fill="#FFFFFF" d="M541.896,143.079l-8.222-7.308c-7.431-6.604-18.809-5.934-25.412,1.496l-12.623,14.201l-52.32-46.503
			l12.623-14.202c6.604-7.431,5.934-18.807-1.496-25.412l-8.222-7.308c-7.431-6.604-18.808-5.935-25.412,1.496l-37.202,41.856
			c-6.605,7.43-5.935,18.807,1.496,25.412l8.221,7.308c7.431,6.604,18.809,5.934,25.412-1.496l15.59-17.54l13.227,11.756
			c-4.676,0.886-8.872,3.333-12.584,7.356l-46.436,45.837l-44.059-25.599c-4.76-3.559-8.133-5.146-10.119-4.759h-13.104h-62.507
			h-13.105c-1.988-0.387-5.359,1.201-10.119,4.759l-44.058,25.599l-46.436-45.837c-3.711-4.023-7.907-6.47-12.583-7.356
			l13.227-11.756l15.589,17.54c6.604,7.43,17.981,8.1,25.412,1.496l8.222-7.308c7.43-6.604,8.101-17.981,1.496-25.412
			l-37.203-41.856c-6.604-7.431-17.982-8.101-25.412-1.496l-8.222,7.308c-7.43,6.604-8.1,17.981-1.496,25.412l12.622,14.202
			l-52.32,46.503l-12.623-14.201c-6.604-7.43-17.981-8.1-25.412-1.496l-8.222,7.308c-7.43,6.604-8.1,17.981-1.496,25.412
			l37.203,41.857c6.604,7.431,17.982,8.1,25.412,1.495l8.222-7.307c7.43-6.605,8.1-17.981,1.496-25.412l-15.589-17.539l14.828-13.18
			c0.241,4.733,1.996,9.13,5.31,13.184l58.936,58.936c4.759,4.761,9.919,7.141,15.479,7.141c3.56,0,7.726-1.387,12.5-4.161
			l38.696-21.437v105.372l-58.936,180.965c-1.199,2.785-1.799,5.565-1.799,8.34c0,7.934,2.977,14.778,8.93,20.539
			c2.724,2.636,5.661,4.661,8.805,6.091c4.057,2.08,8.471,3.128,13.248,3.128c14.281,0,24.001-7.339,29.16-22.019L290,350.023
			l51.492,154.46c5.161,14.68,14.878,22.019,29.159,22.019c4.779,0,9.195-1.05,13.252-3.13c3.143-1.43,6.078-3.455,8.801-6.089
			c5.953-5.761,8.93-12.605,8.93-20.539c0-2.774-0.6-5.555-1.799-8.34l-58.936-180.965V202.068l38.697,21.437
			c4.771,2.774,8.939,4.161,12.498,4.161c5.561,0,10.721-2.38,15.479-7.141l58.936-58.936c3.314-4.053,5.072-8.451,5.313-13.184
			l14.828,13.18l-15.59,17.539c-6.604,7.431-5.934,18.807,1.496,25.412l8.223,7.307c7.43,6.605,18.807,5.936,25.411-1.495
			l37.202-41.857C549.996,161.06,549.325,149.684,541.896,143.079z"/>
	</g>
</g>
<g id="Layer_3">
	<g>
		<path fill="#FFFFFF" d="M494.135,406.577c-12.334-4.309-22.025-6.463-29.076-6.463c-0.504,0-1.026,0.014-1.559,0.036V144.083
			c0-16.568-13.432-30-30-30h-115v-7.5c0-4.418-3.582-8-8-8h-24c-0.339,0-0.672,0.028-1,0.069V58.583c0-4.418-3.582-8-8-8h-201
			c-4.418,0-8,3.582-8,8v250c0,4.418,3.582,8,8,8h201c4.418,0,8-3.582,8-8V189.514c0.328,0.041,0.661,0.069,1,0.069h24
			c4.418,0,8-3.582,8-8v-7.5h85v238.803c-6.688-0.555-15.34-2.653-25.971-6.309c-12.531-4.309-22.125-6.463-28.783-6.463
			c-7.051,0-16.842,2.154-29.373,6.463S297.051,413.04,290,413.04c-7.039,0-16.729-2.154-29.068-6.463s-22.035-6.463-29.088-6.463
			c-7.039,0-16.729,2.154-29.068,6.463s-22.035,6.463-29.086,6.463c-7.039,0-16.729-2.154-29.068-6.463s-22.035-6.463-29.087-6.463
			c-7.051,0-16.842,2.154-29.373,6.463s-22.322,6.463-29.374,6.463v42.881c7.052,0,16.843-2.154,29.374-6.462
			c12.531-4.309,22.322-6.463,29.373-6.463c6.657,0,16.254,2.154,28.791,6.463c12.536,4.308,22.325,6.462,29.364,6.462
			c7.051,0,16.746-2.154,29.086-6.462c12.34-4.309,22.029-6.463,29.068-6.463c7.053,0,16.748,2.154,29.088,6.463
			c12.34,4.308,22.029,6.462,29.068,6.462c7.051,0,16.842-2.154,29.373-6.462c12.531-4.309,22.322-6.463,29.373-6.463
			c6.658,0,16.252,2.154,28.783,6.463c12.529,4.308,22.322,6.462,29.373,6.462c6.656,0,16.25-2.154,28.781-6.462
			c12.531-4.309,22.322-6.463,29.375-6.463c7.051,0,16.742,2.154,29.076,6.463c12.334,4.308,22.027,6.462,29.078,6.462V413.04
			C516.162,413.04,506.469,410.886,494.135,406.577z"/>
		<path fill="#FFFFFF" d="M465.059,473.61c-7.053,0-16.844,2.154-29.375,6.463s-22.125,6.463-28.781,6.463
			c-7.051,0-16.844-2.154-29.373-6.463c-12.531-4.309-22.125-6.463-28.783-6.463c-7.051,0-16.842,2.154-29.373,6.463
			s-22.322,6.463-29.373,6.463c-7.039,0-16.729-2.154-29.068-6.463s-22.035-6.463-29.088-6.463c-7.039,0-16.729,2.154-29.068,6.463
			s-22.035,6.463-29.086,6.463c-7.039,0-16.729-2.154-29.068-6.463s-22.035-6.463-29.087-6.463c-7.051,0-16.842,2.154-29.373,6.463
			s-22.322,6.463-29.374,6.463v42.881c7.052,0,16.843-2.154,29.374-6.462c12.531-4.309,22.322-6.463,29.373-6.463
			c6.657,0,16.254,2.154,28.791,6.463c12.536,4.308,22.325,6.462,29.364,6.462c7.051,0,16.746-2.154,29.086-6.462
			c12.34-4.309,22.029-6.463,29.068-6.463c7.053,0,16.748,2.154,29.088,6.463c12.34,4.308,22.029,6.462,29.068,6.462
			c7.051,0,16.842-2.154,29.373-6.462c12.531-4.309,22.322-6.463,29.373-6.463c6.658,0,16.252,2.154,28.783,6.463
			c12.529,4.308,22.322,6.462,29.373,6.462c6.656,0,16.25-2.154,28.781-6.462c12.531-4.309,22.322-6.463,29.375-6.463
			c7.051,0,16.742,2.154,29.076,6.463c12.334,4.308,22.027,6.462,29.078,6.462v-42.881c-7.051,0-16.744-2.154-29.078-6.463
			S472.109,473.61,465.059,473.61z"/>
	</g>
</g>
</svg>
