<?xml version="1.0" encoding="utf-8"?>
<!-- Generator: Adobe Illustrator 15.0.0, SVG Export Plug-In . SVG Version: 6.00 Build 0)  -->
<!DOCTYPE svg PUBLIC "-//W3C//DTD SVG 1.1//EN" "http://www.w3.org/Graphics/SVG/1.1/DTD/svg11.dtd">
<svg version="1.1" xmlns="http://www.w3.org/2000/svg" xmlns:xlink="http://www.w3.org/1999/xlink" x="0px" y="0px" width="580px"
	 height="580px" viewBox="0 0 580 580" enable-background="new 0 0 580 580" xml:space="preserve">
<g id="Layer_2">
	<g id="g1327">
		<path id="path1329" fill="#111111" stroke="#EEEEEE" stroke-width="3.408" d="M66.275,1.768
			c-41.335,0-64.571,21.371-64.571,65.036v450.123c0,40.844,20.894,62.229,62.192,62.229H515.92
			c41.307,0,62.229-20.316,62.229-62.229V66.804c0-42.601-20.923-65.036-63.522-65.036C514.624,1.768,66.133,1.625,66.275,1.768z"/>
	</g>
</g>
<g id="svg2" xmlns:inkscape="http://www.inkscape.org/namespaces/inkscape" xmlns:rdf="http://www.w3.org/1999/02/22-rdf-syntax-ns#" xmlns:svg="http://www.w3.org/2000/svg" xmlns:sodipodi="http://sodipodi.sourceforge.net/DTD/sodipodi-0.dtd" xmlns:cc="http://creativecommons.org/ns#" xmlns:dc="http://purl.org/dc/elements/1.1/" inkscape:output_extension="org.inkscape.output.svg.inkscape" inkscape:version="0.46" sodipodi:docname="waste_bin.svg" sodipodi:version="0.32">
	<g>
		<path fill="#FFFFFF" d="M293.19,54.965h-6.379c-53.292,0-96.494,43.201-96.494,96.493v11.008
			c3.239,2.236,6.759,4.386,10.578,6.426c23.742,12.682,55.386,19.666,89.104,19.666c33.719,0,65.363-6.984,89.104-19.666
			c3.819-2.04,7.34-4.189,10.578-6.426v-11.008C389.683,98.167,346.481,54.965,293.19,54.965z"/>
		<path fill="#FFFFFF" d="M290,223.006c-34.871,0-67.711-7.283-92.469-20.508c-2.519-1.345-4.921-2.739-7.213-4.174v322.724
			c0,1.335,0.035,2.664,0.088,3.987h199.189c0.054-1.323,0.088-2.652,0.088-3.987V198.325c-2.293,1.435-4.694,2.828-7.213,4.173
			C357.711,215.723,324.871,223.006,290,223.006z"/>
		<path fill="#FFFFFF" d="M290,195.7c-34.871,0-67.711-7.283-92.469-20.508c-2.521-1.347-4.92-2.743-7.213-4.179v18.768
			c3.237,2.234,6.762,4.378,10.578,6.417c23.742,12.682,55.386,19.666,89.104,19.666c33.719,0,65.363-6.984,89.104-19.666
			c3.816-2.039,7.342-4.183,10.578-6.417v-18.768c-2.293,1.436-4.692,2.832-7.213,4.178C357.711,188.417,324.871,195.7,290,195.7z"
			/>
	</g>
</g>
</svg>
