<?xml version="1.0" encoding="utf-8"?>
<!-- Generator: Adobe Illustrator 15.0.0, SVG Export Plug-In . SVG Version: 6.00 Build 0)  -->
<!DOCTYPE svg PUBLIC "-//W3C//DTD SVG 1.1//EN" "http://www.w3.org/Graphics/SVG/1.1/DTD/svg11.dtd">
<svg version="1.1" xmlns="http://www.w3.org/2000/svg" xmlns:xlink="http://www.w3.org/1999/xlink" x="0px" y="0px" width="580px"
	 height="580px" viewBox="0 0 580 580" enable-background="new 0 0 580 580" xml:space="preserve">
<g id="Layer_2">
	<g id="g1327">
		<path id="path1329" fill="#111111" stroke="#EEEEEE" stroke-width="3.408" d="M66.275,1.768
			c-41.335,0-64.571,21.371-64.571,65.036v450.123c0,40.844,20.894,62.229,62.192,62.229H515.92
			c41.307,0,62.229-20.316,62.229-62.229V66.804c0-42.601-20.923-65.036-63.522-65.036C514.624,1.768,66.133,1.625,66.275,1.768z"/>
	</g>
</g>
<g id="svg2" inkscape:version="0.46" sodipodi:docname="waste_bin.svg" sodipodi:version="0.32" xmlns:dc="http://purl.org/dc/elements/1.1/" xmlns:cc="http://creativecommons.org/ns#" xmlns:sodipodi="http://sodipodi.sourceforge.net/DTD/sodipodi-0.dtd" xmlns:svg="http://www.w3.org/2000/svg" xmlns:rdf="http://www.w3.org/1999/02/22-rdf-syntax-ns#" xmlns:inkscape="http://www.inkscape.org/namespaces/inkscape" inkscape:output_extension="org.inkscape.output.svg.inkscape">
	<path fill="#FFFFFF" d="M434.943,232.258c-1.075-33.32-14.315-56.748-25.235-70.535c-13.106-16.549-30.32-28.768-47.228-33.523
		c-26.082-7.336-118.913-32.877-133.413-36.866c0.033-7.663-2.838-20.436-20.875-26.448c-26.702-8.9-53.404-14.836-65.27-8.9
		c-11.867,5.935-13.056,17.192-13.056,19.574c0,2.382-2.969,20.774,12.461,28.49c15.43,7.715,49.2,16.407,72.985,8.307
		c7.749-2.638,11.82-5.129,13.807-7.293c22.171,6.101,105.344,28.995,129.779,35.867c23.357,6.57,61.071,37.289,62.826,91.755
		c1.237,38.339,10.198,215.69,15.429,317.997l13.207-0.676C445.132,447.747,436.177,270.489,434.943,232.258z M196.39,100.302
		c-1.21,5.737-12.979,8.108-26.288,5.296c-13.306-2.809-23.114-9.736-21.901-15.473c1.21-5.736,12.979-8.107,26.289-5.297
		C187.795,87.637,197.603,94.565,196.39,100.302z"/>
</g>
</svg>
