<?xml version="1.0" encoding="utf-8"?>
<!-- Generator: Adobe Illustrator 15.0.0, SVG Export Plug-In . SVG Version: 6.00 Build 0)  -->
<!DOCTYPE svg PUBLIC "-//W3C//DTD SVG 1.1//EN" "http://www.w3.org/Graphics/SVG/1.1/DTD/svg11.dtd">
<svg version="1.1" xmlns="http://www.w3.org/2000/svg" xmlns:xlink="http://www.w3.org/1999/xlink" x="0px" y="0px" width="580px"
	 height="580px" viewBox="0 0 580 580" enable-background="new 0 0 580 580" xml:space="preserve">
<g id="Layer_2">
	<g id="g1327">
		<path id="path1329" fill="#111111" stroke="#EEEEEE" stroke-width="3.408" d="M66.275,1.768
			c-41.335,0-64.571,21.371-64.571,65.036v450.123c0,40.844,20.894,62.229,62.192,62.229H515.92
			c41.307,0,62.229-20.316,62.229-62.229V66.804c0-42.601-20.923-65.036-63.522-65.036C514.624,1.768,66.133,1.625,66.275,1.768z"/>
	</g>
</g>
<g id="svg2" xmlns:inkscape="http://www.inkscape.org/namespaces/inkscape" xmlns:rdf="http://www.w3.org/1999/02/22-rdf-syntax-ns#" xmlns:svg="http://www.w3.org/2000/svg" xmlns:sodipodi="http://sodipodi.sourceforge.net/DTD/sodipodi-0.dtd" xmlns:cc="http://creativecommons.org/ns#" xmlns:dc="http://purl.org/dc/elements/1.1/" inkscape:output_extension="org.inkscape.output.svg.inkscape" inkscape:version="0.46" sodipodi:docname="waste_bin.svg" sodipodi:version="0.32">
	<g>
		<rect x="380.585" y="284.591" fill="#FFFFFF" width="63.996" height="38.497"/>
		<rect x="380.585" y="232.093" fill="#FFFFFF" width="63.996" height="38.498"/>
		<rect x="380.585" y="337.088" fill="#FFFFFF" width="63.996" height="38.498"/>
		<path fill="#FFFFFF" d="M303.839,57.852C187.451,57.852,93.1,83.706,93.1,115.599v416.979h273.485V192.095h14v25.998h63.996
			v-25.998h14v340.483h55.997V115.599C514.578,83.706,420.227,57.852,303.839,57.852z"/>
		<rect x="380.585" y="389.586" fill="#FFFFFF" width="63.996" height="38.498"/>
		<rect x="380.585" y="494.582" fill="#FFFFFF" width="63.996" height="37.996"/>
		<rect x="380.585" y="442.084" fill="#FFFFFF" width="63.996" height="38.498"/>
	</g>
</g>
</svg>
