<?xml version="1.0" encoding="UTF-8" standalone="no"?>
<!-- Generator: Adobe Illustrator 15.0.0, SVG Export Plug-In . SVG Version: 6.00 Build 0)  -->

<svg
   xmlns:dc="http://purl.org/dc/elements/1.1/"
   xmlns:cc="http://creativecommons.org/ns#"
   xmlns:rdf="http://www.w3.org/1999/02/22-rdf-syntax-ns#"
   xmlns:svg="http://www.w3.org/2000/svg"
   xmlns="http://www.w3.org/2000/svg"
   xmlns:sodipodi="http://sodipodi.sourceforge.net/DTD/sodipodi-0.dtd"
   xmlns:inkscape="http://www.inkscape.org/namespaces/inkscape"
   version="1.1"
   x="0px"
   y="0px"
   width="580px"
   height="580px"
   viewBox="0 0 580 580"
   enable-background="new 0 0 580 580"
   xml:space="preserve"
   id="svg4550"
   sodipodi:docname="telecommunication.svg"
   inkscape:version="0.92.3 (2405546, 2018-03-11)"><metadata
   id="metadata4556"><rdf:RDF><cc:Work
       rdf:about=""><dc:format>image/svg+xml</dc:format><dc:type
         rdf:resource="http://purl.org/dc/dcmitype/StillImage" /><dc:title></dc:title></cc:Work></rdf:RDF></metadata><defs
   id="defs4554">
	
	
</defs><sodipodi:namedview
   pagecolor="#ffffff"
   bordercolor="#666666"
   borderopacity="1"
   objecttolerance="10"
   gridtolerance="10"
   guidetolerance="10"
   inkscape:pageopacity="0"
   inkscape:pageshadow="2"
   inkscape:window-width="1498"
   inkscape:window-height="1020"
   id="namedview4552"
   showgrid="false"
   inkscape:zoom="1.47"
   inkscape:cx="290"
   inkscape:cy="290"
   inkscape:window-x="99"
   inkscape:window-y="0"
   inkscape:window-maximized="0"
   inkscape:current-layer="svg4550" />
<g
   id="Layer_2">
	<g
   id="g1327">
		<path
   id="path1329"
   d="M66.275,1.768    c-41.335,0-64.571,21.371-64.571,65.036v450.123c0,40.844,20.894,62.229,62.192,62.229H515.92    c41.307,0,62.229-20.316,62.229-62.229V66.804c0-42.601-20.923-65.036-63.522-65.036C514.624,1.768,66.133,1.625,66.275,1.768z"
   stroke-width="3.408"
   stroke="#EEEEEE"
   fill="#111111" />
	</g>
</g>
<path
   style="fill:#ffffff;stroke-width:0.78537625"
   inkscape:connector-curvature="0"
   id="path4547"
   d="M 524.29013,125.98323 C 513.26717,101.6159 494.48174,81.979518 471.36456,69.170748 c -0.0831,-0.15217 -0.15004,-0.27375 -0.17908,-0.3288 l -0.2186,0.10934 c -17.92472,-9.85031 -38.42752,-15.60129 -59.94591,-16.25584 l -0.17504,-1.06975 c -1.35115,0.19651 -2.83056,0.54061 -4.40354,1.0017 -17.16163,0.0558 -33.92235,3.3576 -49.8272,9.82278 -20.73189,8.42805 -37.89997,21.47998 -50.75809,37.33972 -0.30814,0.13764 -0.62677,0.273752 -0.92685,0.414452 l 0.23232,0.44197 c -20.49554,25.75364 -29.71401,58.74018 -24.44735,91.37038 l -0.21376,0.20722 c 0.0452,0.0413 0.15407,0.14223 0.29362,0.2684 1.61412,9.73714 4.51486,19.4391 8.7974,28.90403 20.16158,44.56497 66.2467,73.36041 117.40731,73.36041 17.31408,0 34.22726,-3.30561 50.26844,-9.82737 31.34427,-12.74453 55.57867,-36.29444 68.23834,-66.31563 12.65968,-30.01966 12.22812,-62.91826 -1.21644,-92.63053 z m -2.89025,68.67765 c -10.18324,-2.53254 -21.44417,-5.31207 -33.3593,-8.23688 2.98867,-13.63536 3.83808,-26.57565 3.50573,-38.14873 -0.0984,-3.39431 -0.30411,-6.71293 -0.58321,-9.96883 12.06194,8.10536 22.53638,17.46323 31.1055,27.91762 l 1.139,-0.83807 c 0.78488,9.76467 0.18876,19.59434 -1.80772,29.27489 z M 398.38227,283.9124 c -5.23601,-0.36551 -10.39297,-1.07664 -15.45313,-2.08445 2.76119,-8.0289 6.39921,-19.80538 10.53333,-33.82307 13.09769,2.85828 27.31663,4.85327 42.47533,5.41836 -10.64222,10.77401 -23.28738,20.75737 -37.95886,29.90802 z M 292.5513,152.68351 c 6.14834,1.47579 17.17776,4.12303 31.41041,7.54793 -2.35947,13.74012 -2.97253,29.07302 -0.77519,45.90312 -18.16915,-10.70367 -29.60916,-20.38269 -32.33888,-22.77913 -0.95105,-10.34734 -0.35735,-20.66867 1.70366,-30.67192 z m 44.9929,10.81761 c 17.85616,4.29966 39.06721,9.41827 61.28819,14.79993 -5.18439,18.74786 -10.40507,37.34584 -15.15225,53.77526 -10.60512,-2.98369 -21.18442,-6.74427 -31.72178,-11.30163 -4.65522,-2.01411 -9.08699,-4.0978 -13.28403,-6.20519 -3.72434,-19.00937 -3.56058,-36.06886 -1.13013,-51.06837 z m 25.68315,-60.02786 c 13.72447,-0.13535 28.90494,0.88394 44.56054,3.4593 3.37022,0.55514 6.69526,1.17758 9.9848,1.852 -4.53583,16.86145 -9.88961,36.62019 -15.4257,56.76278 -22.53719,-5.45889 -44.03298,-10.64403 -62.05128,-14.98498 2.88057,-10.85431 6.86868,-20.40717 11.19479,-28.57217 3.58962,-6.7718 7.56805,-12.94259 11.73685,-18.51693 z m -17.5222,129.08478 c 9.96544,4.33178 21.48854,8.57945 34.29825,12.12211 -4.17768,14.16833 -7.8157,25.94863 -10.50106,33.67855 -3.07094,-0.98717 -6.08542,-2.09746 -9.04666,-3.31861 l 1.05027,-0.52685 c -8.52475,-15.25032 -14.57629,-29.66945 -18.66766,-43.22682 0.94944,0.42438 1.89726,0.84877 2.86686,1.27162 z m 51.42519,2.8797 c 4.77783,-16.51276 10.00497,-35.13216 15.18774,-53.86855 19.79213,4.80052 39.99486,9.7165 59.02551,14.37402 -5.01983,15.98516 -12.9904,30.87303 -23.92867,44.60167 -16.78169,0.25311 -33.56016,-1.45437 -50.28458,-5.10714 z m 18.70234,-66.62149 c 5.54819,-20.18465 10.90601,-39.97168 15.44426,-56.85301 16.17831,4.30426 31.166,10.14012 44.64281,17.33324 0.92766,6.28242 1.56411,12.91735 1.73996,19.82144 0.30331,11.8086 -0.69695,23.15534 -2.97011,34.03105 -18.98144,-4.64605 -39.12044,-9.54597 -58.85692,-14.33272 z m 98.2363,-38.67788 c 1.93437,4.2729 3.538,8.6238 4.88028,13.01828 -9.47338,-8.80731 -19.73487,-16.15796 -30.3174,-22.28439 -2.46111,-13.48855 -6.06929,-25.061632 -9.37174,-33.852892 14.89734,11.17469 26.99236,25.842342 34.80886,43.119002 z m -41.43474,-17.54429 c -12.79197,-5.89627 -25.69364,-10.23493 -37.92014,-13.436552 3.69449,-13.79823 6.57345,-24.6403 8.15046,-30.59927 5.59659,1.71818 11.02701,3.82558 16.25092,6.30459 l -0.23474,0.11776 c 0.11938,0.2164 8.2158,15.08439 13.7535,37.613472 z M 429.40469,65.249588 c -1.5504,5.84733 -4.44952,16.75745 -8.19725,30.74456 -3.7929,-0.78225 -7.48497,-1.46279 -11.04152,-2.04699 -11.91513,-1.95981 -24.09969,-3.10527 -35.9156,-3.48913 15.45152,-16.12202 31.24102,-24.71524 38.70824,-25.80411 l -0.21618,-1.3305 c 5.64821,0.2661 11.21173,0.913 16.66231,1.92617 z m -68.40613,6.89185 c 6.80173,-2.765 13.77851,-4.86857 20.87709,-6.35889 -8.48764,6.24954 -17.43105,14.5109 -25.77914,24.69919 -10.6382,0.38997 -20.63913,1.44673 -29.47606,3.14197 9.75652,-8.81267 21.28526,-16.15949 34.37811,-21.48227 z m -49.86269,39.859272 c 7.53659,-3.5633 19.77439,-6.37494 34.86774,-7.70392 -2.42642,3.73994 -4.75443,7.6588 -6.93725,11.77954 -4.73588,8.93731 -9.11603,19.3787 -12.28054,31.23623 -13.88579,-3.34231 -24.66031,-5.92838 -30.7417,-7.38735 3.43878,-10.12558 8.39811,-19.76179 14.74408,-28.5844 z M 299.81444,217.2412 c -2.0352,-4.5 -3.69369,-9.06042 -5.05855,-13.65065 7.68825,5.5797 18.32967,12.59007 31.54351,19.6058 3.06288,13.10928 7.84555,27.00997 14.76505,41.66309 -17.85615,-11.60061 -32.33403,-27.91227 -41.25001,-47.61824 z m 153.07122,57.99617 c -10.00254,4.06797 -20.3826,6.73051 -30.9845,8.03272 12.92991,-9.59721 23.59311,-19.64021 32.34614,-29.87056 12.31362,-0.50238 25.13866,-1.99805 38.38235,-4.76228 -10.97698,11.2848 -24.4167,20.36893 -39.74399,26.60012 z m 53.08933,-43.28188 -0.0694,-0.21563 c -13.64863,3.91734 -27.33357,6.51794 -41.02576,7.83238 9.29349,-13.51607 15.61123,-27.15755 19.75987,-40.36929 11.88447,2.91946 23.11475,5.69057 33.27218,8.217 -0.82925,2.44384 -1.71899,4.87469 -2.73376,7.2803 -2.55469,6.0622 -5.65628,11.81547 -9.20315,17.25524 z" />
<g
   id="g4819"
   transform="matrix(0.55686335,0.12737124,-0.12737124,0.55686335,13.451118,36.644465)"
   style="stroke:#ffffff;stroke-width:4.83341503;stroke-miterlimit:4;stroke-dasharray:none;stroke-opacity:1"><path
     inkscape:connector-curvature="0"
     id="rect4059"
     d="m 211.85009,83.51522 c -11.01956,0.554986 -19.72761,9.619286 -19.72761,20.78151 v 416.91459 c 0,11.52229 9.29215,20.81444 20.81444,20.81444 h 167.3389 c 11.52229,0 20.7815,-9.29215 20.7815,-20.81444 V 104.29673 c 0,-11.522296 -9.25921,-20.78151 -20.7815,-20.78151 h -167.3389 c -0.36007,0 -0.73136,-0.01791 -1.08683,0 z m 17.8833,25.78751 h 133.71303 c 9.86043,0 17.81742,7.957 17.81742,17.81743 v 178.04252 c 0,9.86043 -7.95699,17.81743 -17.81742,17.81743 H 229.73339 c -9.86043,0 -17.78449,-7.957 -17.78449,-17.81743 V 127.12016 c 0,-9.86043 7.92406,-17.81743 17.78449,-17.81743 z m -6.78446,242.39604 h 23.41625 c 6.32475,0 11.42818,5.0705 11.42818,11.39524 v 22.13182 c 0,6.32474 -5.10343,11.39524 -11.42818,11.39524 h -23.41625 c -6.32474,0 -11.42818,-5.0705 -11.42818,-11.39524 v -22.13182 c 0,-6.32474 5.10344,-11.39524 11.42818,-11.39524 z m 61.4553,0 h 23.41625 c 6.32475,0 11.39525,5.0705 11.39525,11.39524 v 22.13182 c 0,6.32474 -5.0705,11.39524 -11.39525,11.39524 h -23.41625 c -6.32474,0 -11.42818,-5.0705 -11.42818,-11.39524 v -22.13182 c 0,-6.32474 5.10344,-11.39524 11.42818,-11.39524 z m 61.42237,0 h 23.44918 c 6.32474,0 11.39525,5.0705 11.39525,11.39524 v 22.13182 c 0,6.32474 -5.07051,11.39524 -11.39525,11.39524 H 345.8266 c -6.32475,0 -11.39525,-5.0705 -11.39525,-11.39524 v -22.13182 c 0,-6.32474 5.0705,-11.39524 11.39525,-11.39524 z M 222.94893,413.187 h 23.41625 c 6.32475,0 11.42818,5.10344 11.42818,11.42818 v 22.09888 c 0,6.32474 -5.10343,11.42818 -11.42818,11.42818 h -23.41625 c -6.32474,0 -11.42818,-5.10344 -11.42818,-11.42818 v -22.09888 c 0,-6.32474 5.10344,-11.42818 11.42818,-11.42818 z m 61.4553,0 h 23.41625 c 6.32475,0 11.39525,5.10344 11.39525,11.42818 v 22.09888 c 0,6.32474 -5.0705,11.42818 -11.39525,11.42818 h -23.41625 c -6.32474,0 -11.42818,-5.10344 -11.42818,-11.42818 v -22.09888 c 0,-6.32474 5.10344,-11.42818 11.42818,-11.42818 z m 61.42237,0 h 23.44918 c 6.32474,0 11.39525,5.10344 11.39525,11.42818 v 22.09888 c 0,6.32474 -5.07051,11.42818 -11.39525,11.42818 H 345.8266 c -6.32475,0 -11.39525,-5.10344 -11.39525,-11.42818 v -22.09888 c 0,-6.32474 5.0705,-11.42818 11.39525,-11.42818 z m -122.87767,61.52117 h 23.41625 c 6.32475,0 11.42818,5.0705 11.42818,11.39525 v 22.13181 c 0,6.32474 -5.10343,11.39525 -11.42818,11.39525 h -23.41625 c -6.32474,0 -11.42818,-5.07051 -11.42818,-11.39525 v -22.13181 c 0,-6.32475 5.10344,-11.39525 11.42818,-11.39525 z m 61.4553,0 h 23.41625 c 6.32475,0 11.39525,5.0705 11.39525,11.39525 v 22.13181 c 0,6.32474 -5.0705,11.39525 -11.39525,11.39525 h -23.41625 c -6.32474,0 -11.42818,-5.07051 -11.42818,-11.39525 v -22.13181 c 0,-6.32475 5.10344,-11.39525 11.42818,-11.39525 z m 61.42237,0 h 23.44918 c 6.32474,0 11.39525,5.0705 11.39525,11.39525 v 22.13181 c 0,6.32474 -5.07051,11.39525 -11.39525,11.39525 H 345.8266 c -6.32475,0 -11.39525,-5.07051 -11.39525,-11.39525 v -22.13181 c 0,-6.32475 5.0705,-11.39525 11.39525,-11.39525 z"
     style="fill:#ffffff;fill-opacity:1;stroke:#ffffff;stroke-width:4.83341503;stroke-miterlimit:4;stroke-dasharray:none;stroke-opacity:1"
     sodipodi:nodetypes="cccccccccccccccccccccccccccccccccccccccccccccccccccccccccccccccccccccccccccccccccccccccccccccccccccc" /><rect
     rx="12.486436"
     ry="12.486436"
     y="32.841595"
     x="343.72568"
     height="59.324993"
     width="38.001587"
     id="rect3935"
     style="fill:#ffffff;fill-opacity:1;stroke:#ffffff;stroke-width:4.83341503;stroke-miterlimit:4;stroke-dasharray:none;stroke-opacity:1" /><path
     inkscape:connector-curvature="0"
     sodipodi:nodetypes="ccccccc"
     id="rect4099"
     d="m 192.12247,331.01606 v 190.19526 c 0,11.52229 9.29215,20.81444 20.81444,20.81444 H 380.2758 c 11.52229,0 20.7815,-9.29215 20.7815,-20.81444 V 331.01606 Z"
     style="opacity:0.2;fill:#ffffff;fill-opacity:1;stroke:#ffffff;stroke-width:4.83341503;stroke-miterlimit:4;stroke-dasharray:none;stroke-opacity:1" /><path
     inkscape:connector-curvature="0"
     id="rect4119"
     d="m 211.85009,83.51522 c -11.01956,0.554986 -19.72761,9.619286 -19.72761,20.78151 V 327.45916 H 401.05732 V 104.29673 c 0,-11.522296 -9.25921,-20.78151 -20.7815,-20.78151 h -167.3389 c -0.36007,0 -0.73136,-0.01791 -1.08683,0 z"
     style="opacity:0.2;fill:#ffffff;fill-opacity:1;stroke:#ffffff;stroke-width:4.83341503;stroke-miterlimit:4;stroke-dasharray:none;stroke-opacity:1"
     sodipodi:nodetypes="cccccccc" /></g><g
   id="g1331"
   transform="matrix(0.47112604,0.32847087,-0.32847087,0.47112604,242.70925,177.31653)"><path
     inkscape:connector-curvature="0"
     d="m 309.337,64.0439 c -22.379,2.504 -103.754,39.6981 -106.129,231.4791 -2.5,202.025 83.75,244.525 106.37,244.067 V 406.154 c -18.62,0 -22.366,-20.275 -26.62,-62.106 -2.814,-27.679 -3.634,-61.942 0,-96 2.552,-23.897 7,-47.223 26.5,-47.223 z"
     id="path1333"
     style="fill:#ffffff;stroke:none" /><path
     inkscape:connector-curvature="0"
     d="m 357.583,539.825 c 8.625,0 14.811,-7.027 14.811,-14.902 l 0.062,-0.062 c 0,0 -0.062,-104 -0.062,-104.063 0,-8.25 -6.686,-14.754 -14.811,-14.754 h -37.799 v 133.781 c 0,0 37.707,0.058 37.738,0.027 z"
     id="path1335"
     style="fill:#ffffff;stroke:none" /><path
     inkscape:connector-curvature="0"
     d="m 357.583,200.825 c 8.625,0 14.811,-7.027 14.811,-14.902 l 0.062,-0.062 c 0,0 -0.062,-107.0001 -0.062,-107.0631 0,-8.25 -6.686,-14.754 -14.811,-14.754 H 319.784 V 200.825 c 0,0 37.707,0.058 37.738,0.027 z"
     id="path1337"
     style="fill:#ffffff;stroke:none" /></g></svg>