<?xml version="1.0" encoding="UTF-8" standalone="no"?>
<!-- Generator: Adobe Illustrator 15.0.0, SVG Export Plug-In . SVG Version: 6.00 Build 0)  -->

<svg
   xmlns:dc="http://purl.org/dc/elements/1.1/"
   xmlns:cc="http://creativecommons.org/ns#"
   xmlns:rdf="http://www.w3.org/1999/02/22-rdf-syntax-ns#"
   xmlns:svg="http://www.w3.org/2000/svg"
   xmlns="http://www.w3.org/2000/svg"
   xmlns:sodipodi="http://sodipodi.sourceforge.net/DTD/sodipodi-0.dtd"
   xmlns:inkscape="http://www.inkscape.org/namespaces/inkscape"
   version="1.1"
   x="0px"
   y="0px"
   width="580px"
   height="580px"
   viewBox="0 0 580 580"
   enable-background="new 0 0 580 580"
   xml:space="preserve"
   id="svg898"
   sodipodi:docname="telescope.svg"
   inkscape:version="0.92.3 (2405546, 2018-03-11)"><metadata
   id="metadata904"><rdf:RDF><cc:Work
       rdf:about=""><dc:format>image/svg+xml</dc:format><dc:type
         rdf:resource="http://purl.org/dc/dcmitype/StillImage" /><dc:title></dc:title></cc:Work></rdf:RDF></metadata><defs
   id="defs902" /><sodipodi:namedview
   pagecolor="#ffffff"
   bordercolor="#666666"
   borderopacity="1"
   objecttolerance="10"
   gridtolerance="10"
   guidetolerance="10"
   inkscape:pageopacity="0"
   inkscape:pageshadow="2"
   inkscape:window-width="1243"
   inkscape:window-height="878"
   id="namedview900"
   showgrid="false"
   inkscape:zoom="1"
   inkscape:cx="301.54259"
   inkscape:cy="290"
   inkscape:window-x="618"
   inkscape:window-y="66"
   inkscape:window-maximized="0"
   inkscape:current-layer="svg898"><inkscape:grid
     type="xygrid"
     id="grid1858" /></sodipodi:namedview>
<g
   id="Layer_2">
	<g
   id="g1327">
		<path
   id="path1329"
   d="M66.275,1.768    c-41.335,0-64.571,21.371-64.571,65.036v450.123c0,40.844,20.894,62.229,62.192,62.229H515.92    c41.307,0,62.229-20.316,62.229-62.229V66.804c0-42.601-20.923-65.036-63.522-65.036C514.624,1.768,66.133,1.625,66.275,1.768z"
   stroke-width="3.408"
   stroke="#EEEEEE"
   fill="#111111" />
	</g>
</g>

<g
   id="g2908"
   transform="matrix(0.60968603,0,0,0.60968603,24.471336,207.38205)"><path
     inkscape:connector-curvature="0"
     d="m 452.54952,238.94221 v 29.75484 c -0.31797,3.76753 -1.16591,7.40498 -2.47154,11.04725 -1.04064,3.17494 -2.39927,6.29689 -4.15777,9.35139 -13.76933,25.6067 -47.95656,46.98335 -93.35967,59.63976 h -0.0819 c -28.05897,7.80487 -60.42026,12.21799 -94.85802,12.21799 -34.43776,0 -66.79422,-4.41312 -94.86282,-12.21799 h -0.0626 C 117.2776,336.06941 83.1,314.69757 69.321041,289.09569 c -1.748868,-3.04968 -3.11231,-6.17163 -4.157776,-9.35139 -1.300811,-3.64227 -2.143929,-7.28454 -2.466723,-11.04725 v -29.75484 c 0,-91.80834 63.484378,-168.80188 148.991008,-189.402868 36.96712,24.691315 64.70811,98.957978 68.54791,189.402868 0.25534,6.17162 0.39024,12.41069 0.45769,18.77021 34.94845,-2.00903 67.04957,-8.70098 93.82218,-18.77021 5.26106,-1.95122 10.3294,-4.03252 15.20022,-6.31135 -5.97891,-87.9059 -34.63048,-158.332753 -71.93002,-179.131272 78.23654,25.341721 134.76399,98.765262 134.76399,185.442622 z"
     id="path1878-2"
     style="fill:#ffffff;fill-opacity:1;stroke-width:4.81781769" /><path
     inkscape:connector-curvature="0"
     d="m 452.54952,301.44375 v 132.4129 c 0,34.57266 -35.93128,64.91528 -90.18472,82.19679 v -79.40727 c -13.32127,4.29749 -27.75063,7.73741 -43.02311,10.27159 v 79.40727 c -19.358,3.2472 -40.14688,4.99607 -61.71625,4.99607 -107.65895,0 -194.919262,-43.60607 -194.919262,-97.45963 V 301.44375 c 2.143929,19.43026 15.595275,37.29955 37.232094,52.04207 5.978908,4.09996 12.603408,7.93013 19.820498,11.50976 h 0.0626 c 35.34351,17.59467 83.95047,28.45404 137.80885,28.45404 53.8632,0 102.46053,-10.85937 137.80885,-28.45404 h 0.0723 c 7.21709,-3.57963 13.84159,-7.41462 19.81569,-11.50976 21.62718,-14.74252 35.07853,-32.61181 37.22245,-52.04207 z"
     id="path1880-6"
     style="fill:#ffffff;fill-opacity:1;stroke-width:4.81781769" /><circle
     cx="332.75449"
     cy="194.6761"
     r="38.985779"
     id="circle1882-2"
     style="fill:#ffffff;fill-opacity:1;stroke-width:4.81781769" /></g><g
   id="g2934"><path
     transform="rotate(61.219589)"
     d="m 499.79007,-290.22095 a 135,135 0 0 1 -67.5,116.91343 135,135 0 0 1 -135,0 135,135 0 0 1 -67.5,-116.91343 l 135,0 z"
     sodipodi:end="3.1415927"
     sodipodi:start="0"
     sodipodi:ry="135"
     sodipodi:rx="135"
     sodipodi:cy="-290.22095"
     sodipodi:cx="364.79007"
     sodipodi:type="arc"
     id="path2914"
     style="color:#000000;display:inline;overflow:visible;visibility:visible;opacity:1;fill:#ffffff;fill-opacity:1;fill-rule:nonzero;stroke:none;stroke-width:23.67873955;stroke-linecap:round;stroke-linejoin:miter;stroke-miterlimit:4;stroke-dasharray:none;stroke-dashoffset:0;stroke-opacity:0.8;marker:none;enable-background:accumulate" /><path
     sodipodi:nodetypes="ccccc"
     inkscape:connector-curvature="0"
     id="rect2916"
     d="m 360.00001,320 h 80 l 40,140 h -160 z"
     style="color:#000000;display:inline;overflow:visible;visibility:visible;opacity:1;fill:#ffffff;fill-opacity:1;fill-rule:nonzero;stroke:none;stroke-width:23.67873955;stroke-linecap:round;stroke-linejoin:miter;stroke-miterlimit:4;stroke-dasharray:none;stroke-dashoffset:0;stroke-opacity:0.8;marker:none;enable-background:accumulate" /><rect
     transform="rotate(150.89783)"
     y="-375.15115"
     x="-398.87836"
     height="30"
     width="100"
     id="rect2929"
     style="color:#000000;display:inline;overflow:visible;visibility:visible;opacity:1;fill:#ffffff;fill-opacity:1;fill-rule:nonzero;stroke:none;stroke-width:23.67873955;stroke-linecap:round;stroke-linejoin:miter;stroke-miterlimit:4;stroke-dasharray:none;stroke-dashoffset:0;stroke-opacity:0.8;marker:none;enable-background:accumulate" /></g></svg>