<?xml version="1.0" encoding="utf-8"?>
<!-- Generator: Adobe Illustrator 15.0.0, SVG Export Plug-In . SVG Version: 6.00 Build 0)  -->
<!DOCTYPE svg PUBLIC "-//W3C//DTD SVG 1.1//EN" "http://www.w3.org/Graphics/SVG/1.1/DTD/svg11.dtd">
<svg version="1.1" xmlns="http://www.w3.org/2000/svg" xmlns:xlink="http://www.w3.org/1999/xlink" x="0px" y="0px" width="580px"
	 height="580px" viewBox="0 0 580 580" enable-background="new 0 0 580 580" xml:space="preserve">
<g id="Layer_2">
	<g id="g1327">
		<path id="path1329" fill="#111111" stroke="#EEEEEE" stroke-width="3.408" d="M66.275,1.768
			c-41.335,0-64.571,21.371-64.571,65.036v450.123c0,40.844,20.894,62.229,62.192,62.229H515.92
			c41.307,0,62.229-20.316,62.229-62.229V66.804c0-42.601-20.923-65.036-63.522-65.036C514.624,1.768,66.133,1.625,66.275,1.768z"/>
	</g>
</g>
<g id="svg2" inkscape:output_extension="org.inkscape.output.svg.inkscape" inkscape:version="0.46" sodipodi:docname="waste_bin.svg" sodipodi:version="0.32" xmlns:inkscape="http://www.inkscape.org/namespaces/inkscape" xmlns:rdf="http://www.w3.org/1999/02/22-rdf-syntax-ns#" xmlns:svg="http://www.w3.org/2000/svg" xmlns:sodipodi="http://sodipodi.sourceforge.net/DTD/sodipodi-0.dtd" xmlns:cc="http://creativecommons.org/ns#" xmlns:dc="http://purl.org/dc/elements/1.1/">
	<g>
		
			<path id="path2172" sodipodi:ry="88.571426" sodipodi:rx="88.571426" sodipodi:cy="452.36218" sodipodi:cx="534.28571" sodipodi:type="arc" fill="#FFFFFF" d="
			M280.627,276.383c0.02,32.176-26.049,58.275-58.227,58.294c-32.176,0.019-58.274-26.05-58.293-58.226c0-0.023,0-0.047,0-0.068
			c-0.019-32.176,26.05-58.275,58.226-58.294c32.176-0.02,58.275,26.05,58.294,58.226
			C280.627,276.337,280.627,276.36,280.627,276.383z"/>
		<path fill="#FFFFFF" d="M178.175,467.479c-0.013,0.027-0.027,0.054-0.04,0.08l0.661,0.01l-0.917,60.835l-0.264-0.004
			c0.036,0.269,0.056,0.54,0.053,0.812h251.684v-61.732H178.175z"/>
		<path fill="#FFFFFF" d="M165.479,528.218l-0.309-0.005l0.917-60.733H84.379v61.732h80.963
			C165.358,528.877,165.403,528.543,165.479,528.218z"/>
		<path fill="#FFFFFF" d="M289.777,363.079c-0.101,0.346-0.233,0.681-0.401,0.996l0.175,0.003l-0.917,60.733h141.624v-61.732
			H289.777z"/>
		<path fill="#FFFFFF" d="M276.027,424.724l-0.103-0.002l0.918-60.834l0.09,0.001c-0.085-0.264-0.151-0.534-0.195-0.81H85.285
			v61.732h190.753C276.034,424.782,276.03,424.753,276.027,424.724z"/>
		<path fill="#FFFFFF" d="M314.059,50.788c-23.17,0-44.015,9.881-58.606,25.638c0.099,0.075,0.19,0.155,0.28,0.237l0.1-0.128
			l55.441,42.786c1.025-0.28,2.1-0.444,3.211-0.446c6.781,0,12.281,5.49,12.291,12.238c0.01,6.757-5.48,12.263-12.238,12.273h-0.031
			c-6.676,0.001-12.119-5.372-12.248-12.019L246.64,88.447l0.242-0.314c-0.115-0.047-0.228-0.098-0.336-0.153
			c-7.829,12.352-12.377,26.989-12.377,42.696c0,44.121,35.768,79.889,79.89,79.889c44.121,0,79.889-35.768,79.889-79.889
			C393.947,86.555,358.18,50.788,314.059,50.788z"/>
		<path fill="#FFFFFF" d="M130.678,50.788c-44.122,0-79.889,35.767-79.889,79.889c0,23.157,9.863,44.003,25.605,58.594
			c0.103-0.082,0.21-0.158,0.319-0.231l-0.178-0.137l42.786-55.443c-0.281-1.024-0.445-2.098-0.446-3.21
			c-0.011-6.773,5.479-12.279,12.237-12.29c6.765,0,12.264,5.49,12.274,12.238c0.007,6.7-5.365,12.148-12.019,12.278l-42.922,55.619
			l-0.298-0.23c-0.054,0.113-0.108,0.225-0.17,0.333c12.352,7.828,26.992,12.368,42.698,12.368
			c44.121,0,79.888-35.768,79.888-79.889C210.565,86.555,174.799,50.788,130.678,50.788z"/>
		<rect id="rect3192" x="443.877" y="68.037" fill="#FFFFFF" width="85.334" height="174.302"/>
	</g>
</g>
</svg>
