<?xml version="1.0" encoding="utf-8"?>
<!-- Generator: Adobe Illustrator 15.0.0, SVG Export Plug-In . SVG Version: 6.00 Build 0)  -->
<!DOCTYPE svg PUBLIC "-//W3C//DTD SVG 1.1//EN" "http://www.w3.org/Graphics/SVG/1.1/DTD/svg11.dtd">
<svg version="1.1" xmlns="http://www.w3.org/2000/svg" xmlns:xlink="http://www.w3.org/1999/xlink" x="0px" y="0px" width="580px"
	 height="580px" viewBox="0 0 580 580" enable-background="new 0 0 580 580" xml:space="preserve">
<g id="Layer_2">
	<g id="g1327">
		<path id="path1329" fill="#111111" stroke="#EEEEEE" stroke-width="3.408" d="M66.275,1.768
			c-41.335,0-64.571,21.371-64.571,65.036v450.123c0,40.844,20.894,62.229,62.192,62.229H515.92
			c41.307,0,62.229-20.316,62.229-62.229V66.804c0-42.601-20.923-65.036-63.522-65.036C514.624,1.768,66.133,1.625,66.275,1.768z"/>
	</g>
</g>
<g id="svg2" inkscape:output_extension="org.inkscape.output.svg.inkscape" inkscape:version="0.46" sodipodi:docname="waste_bin.svg" sodipodi:version="0.32" xmlns:inkscape="http://www.inkscape.org/namespaces/inkscape" xmlns:rdf="http://www.w3.org/1999/02/22-rdf-syntax-ns#" xmlns:svg="http://www.w3.org/2000/svg" xmlns:sodipodi="http://sodipodi.sourceforge.net/DTD/sodipodi-0.dtd" xmlns:cc="http://creativecommons.org/ns#" xmlns:dc="http://purl.org/dc/elements/1.1/">
	<g>
		<polygon id="rect3155" fill="#FFFFFF" points="123.771,54.589 463.906,54.589 501.08,199.927 140.5,199.927 		"/>
		<polyline fill="none" stroke="#FFFFFF" stroke-width="6" stroke-miterlimit="10" points="116.009,54.589 80.011,199.927 
			98.01,199.927 98.01,411.449 		"/>
		<g>
			<path fill="#FFFFFF" d="M280.615,313.986c20.533-20.549,47.838-31.864,76.886-31.864c29.015,0,56.298,11.293,76.823,31.803
				c15.163,15.15,25.289,33.945,29.582,54.395V214.433H140.5v197.017h110.327C244.258,377.23,254.186,340.439,280.615,313.986z
				 M240.865,320.766h-63.193v-78.064h63.193V320.766z"/>
			<path fill="#FFFFFF" d="M343.988,390.836l-49.452-49.451c-15.872,20.193-20.641,46.305-14.337,70.064h43.175L343.988,390.836z"/>
			<path fill="#FFFFFF" d="M357.501,310.746c-18.161,0-35.384,6.023-49.43,17.094l49.456,49.457l49.429-49.43
				C392.878,316.77,375.655,310.746,357.501,310.746z"/>
			<path fill="#FFFFFF" d="M420.499,341.402l-49.433,49.434l20.614,20.613h43.262c1.761-6.645,2.68-13.559,2.677-20.619
				C437.611,372.668,431.578,355.445,420.499,341.402z"/>
			<polygon fill="#FFFFFF" points="364.602,411.449 357.527,404.375 350.453,411.449 			"/>
		</g>
		<g>
			<path opacity="0.75" fill="#FFFFFF" d="M406.983,453.832l-38.206-38.207h-22.5l-38.183,38.184
				c14.052,11.084,31.288,17.117,49.459,17.117C375.715,470.926,392.938,464.902,406.983,453.832z"/>
			<path opacity="0.75" fill="#FFFFFF" d="M319.198,415.625H281.43c2.839,8.75,7.206,17.109,13.131,24.639L319.198,415.625z"/>
			<path opacity="0.75" fill="#FFFFFF" d="M433.706,415.625h-37.851l24.667,24.668C426.387,432.854,430.819,424.516,433.706,415.625
				z"/>
			<path opacity="0.75" fill="#FFFFFF" d="M463.418,415.625c-4.535,19.557-14.438,37.508-28.979,52.061
				c-20.531,20.547-47.836,31.863-76.885,31.863c-28.95,0-56.176-11.242-76.685-31.666l-0.302-0.303
				c-14.8-14.828-24.411-32.906-28.848-51.955H47.012V525.41h485.977V415.625H463.418z"/>
		</g>
	</g>
</g>
</svg>
