<?xml version="1.0" encoding="utf-8"?>
<!-- Generator: Adobe Illustrator 15.0.0, SVG Export Plug-In . SVG Version: 6.00 Build 0)  -->
<!DOCTYPE svg PUBLIC "-//W3C//DTD SVG 1.1//EN" "http://www.w3.org/Graphics/SVG/1.1/DTD/svg11.dtd">
<svg version="1.1" xmlns="http://www.w3.org/2000/svg" xmlns:xlink="http://www.w3.org/1999/xlink" x="0px" y="0px" width="580px"
	 height="580px" viewBox="0 0 580 580" enable-background="new 0 0 580 580" xml:space="preserve">
<g id="Layer_2">
	<g id="g1327">
		<path id="path1329" fill="#111111" stroke="#EEEEEE" stroke-width="3.408" d="M66.275,1.768
			c-41.335,0-64.571,21.371-64.571,65.036v450.123c0,40.844,20.894,62.229,62.192,62.229H515.92
			c41.307,0,62.229-20.316,62.229-62.229V66.804c0-42.601-20.923-65.036-63.522-65.036C514.624,1.768,66.133,1.625,66.275,1.768z"/>
	</g>
</g>
<g id="svg2" xmlns:inkscape="http://www.inkscape.org/namespaces/inkscape" xmlns:rdf="http://www.w3.org/1999/02/22-rdf-syntax-ns#" xmlns:svg="http://www.w3.org/2000/svg" xmlns:sodipodi="http://sodipodi.sourceforge.net/DTD/sodipodi-0.dtd" xmlns:cc="http://creativecommons.org/ns#" xmlns:dc="http://purl.org/dc/elements/1.1/" inkscape:output_extension="org.inkscape.output.svg.inkscape" inkscape:version="0.46" sodipodi:docname="waste_bin.svg" sodipodi:version="0.32">
	<path fill="#FFFFFF" d="M489.172,255.586c0,0-98.994-10.5-83.994,0c14.119,9.884,96.012,45.02-25.796,81.639V195.588h40.998
		c4.694,0,8.5-3.806,8.5-8.5v-86.996c0-4.694-3.806-8.5-8.5-8.5H262.142c-19.005-18.364-44.876-29.666-73.391-29.666h-34.098
		C96.313,61.927,49.02,109.22,49.02,167.56v105.633h24.285v111.103c0,4.694,3.806,8.5,8.5,8.5h84.6v63.997
		c0,4.694,3.806,8.5,8.5,8.5h43.254c-7.783,29.768-4.972,52.781-4.972,52.781h283.485c-28.498-34.499-52.484-93.997,24-163.492
		C556.004,322.478,489.172,255.586,489.172,255.586z M223.609,448.292h-40.205v-63.997c0-4.694-3.806-8.5-8.5-8.5h-84.6V273.192
		h33.616v-63.702h78v63.702h92.465V167.56c0-21.837-6.627-42.126-17.979-58.967H411.88v69.996h-40.998c-4.694,0-8.5,3.806-8.5,8.5
		V341.99c-2.659,0.697-5.386,1.395-8.202,2.092C273.667,364.019,238.63,409.041,223.609,448.292z"/>
</g>
</svg>
