<?xml version="1.0" encoding="UTF-8" standalone="no"?>
<!-- Generator: Adobe Illustrator 15.0.0, SVG Export Plug-In . SVG Version: 6.00 Build 0)  -->

<svg
   version="1.1"
   id="Layer_1"
   x="0px"
   y="0px"
   width="580px"
   height="580px"
   viewBox="0 0 580 580"
   enable-background="new 0 0 580 580"
   xml:space="preserve"
   sodipodi:docname="weather_station.svg"
   inkscape:version="1.4 (86a8ad7, 2024-10-11)"
   xmlns:inkscape="http://www.inkscape.org/namespaces/inkscape"
   xmlns:sodipodi="http://sodipodi.sourceforge.net/DTD/sodipodi-0.dtd"
   xmlns="http://www.w3.org/2000/svg"
   xmlns:svg="http://www.w3.org/2000/svg"><defs
   id="defs1">
	

		
		
	</defs><sodipodi:namedview
   id="namedview1"
   pagecolor="#ffffff"
   bordercolor="#666666"
   borderopacity="1.0"
   inkscape:showpageshadow="2"
   inkscape:pageopacity="0.0"
   inkscape:pagecheckerboard="0"
   inkscape:deskcolor="#d1d1d1"
   inkscape:zoom="1.5568966"
   inkscape:cx="289.35769"
   inkscape:cy="289.99999"
   inkscape:window-width="1904"
   inkscape:window-height="1131"
   inkscape:window-x="428"
   inkscape:window-y="46"
   inkscape:window-maximized="0"
   inkscape:current-layer="Layer_1"
   showgrid="false" />
<g
   id="Layer_2_1_">
	<g
   id="Layer_2">
		<g
   id="g1327">
			<path
   id="path1329"
   fill="#111111"
   stroke="#EEEEEE"
   stroke-width="3.408"
   d="M66.275,1.768     c-41.335,0-64.571,21.371-64.571,65.036v450.123c0,40.844,20.896,62.229,62.192,62.229h452.024     c41.307,0,62.229-20.314,62.229-62.229V66.804c0-42.603-20.923-65.036-63.521-65.036C514.625,1.768,66.133,1.625,66.275,1.768z" />
		</g>
	</g>
</g><g
   id="g4"
   transform="matrix(5.3649875,0,0,5.3649875,21.742578,21.753307)"><path
     fill="#000000"
     d="M 42.046,70.668 V 27.449 c 0,-0.672 -0.543,-1.216 -1.215,-1.216 -0.671,0 -1.215,0.544 -1.215,1.216 v 43.219 c -3.95,0.588 -6.992,3.996 -6.992,8.105 0,4.527 3.681,8.211 8.206,8.211 4.525,0 8.209,-3.684 8.209,-8.211 -0.001,-4.109 -3.043,-7.513 -6.993,-8.105 z"
     id="path1"
     style="fill:#ffffff;fill-opacity:1" /><path
     fill="#000000"
     d="M 50.346,63.922 V 12.79 c 0,-2.873 -1.008,-5.276 -2.917,-6.951 -1.664,-1.461 -3.922,-2.265 -6.355,-2.265 -4.731,0 -9.758,3.229 -9.758,9.216 v 51.13 c -5.031,3.23 -8.134,8.855 -8.134,14.857 0,9.73 7.917,17.648 17.65,17.648 9.732,0 17.649,-7.918 17.649,-17.648 -0.002,-6.002 -3.103,-11.625 -8.135,-14.855 z m -9.515,30.072 c -8.392,0 -15.219,-6.826 -15.219,-15.217 0,-5.381 2.888,-10.416 7.535,-13.141 0.02,-0.01 0.034,-0.025 0.052,-0.037 0.012,-0.008 0.022,-0.018 0.034,-0.025 0.055,-0.037 0.106,-0.08 0.152,-0.125 0.006,-0.006 0.011,-0.012 0.017,-0.018 0.049,-0.051 0.094,-0.105 0.132,-0.16 0.006,-0.008 0.009,-0.018 0.014,-0.025 0.037,-0.057 0.07,-0.115 0.097,-0.178 0.006,-0.014 0.01,-0.027 0.016,-0.043 0.022,-0.059 0.042,-0.117 0.055,-0.178 0.004,-0.02 0.007,-0.039 0.01,-0.059 0.009,-0.061 0.017,-0.119 0.018,-0.18 0,-0.008 0.002,-0.016 0.002,-0.025 v -3.07 h 1.789 c 0.672,0 1.216,-0.545 1.216,-1.217 0,-0.672 -0.544,-1.215 -1.216,-1.215 h -1.789 v -6.148 h 1.789 c 0.672,0 1.216,-0.543 1.216,-1.217 0,-0.67 -0.544,-1.215 -1.216,-1.215 h -1.789 v -6.147 h 1.789 c 0.672,0 1.216,-0.544 1.216,-1.216 0,-0.672 -0.544,-1.215 -1.216,-1.215 h -1.789 v -6.148 h 1.789 c 0.672,0 1.216,-0.544 1.216,-1.216 0,-0.671 -0.544,-1.216 -1.216,-1.216 h -1.789 v -6.147 h 1.789 c 0.672,0 1.216,-0.544 1.216,-1.215 0,-0.672 -0.544,-1.217 -1.216,-1.217 h -1.789 v -6.146 h 1.789 c 0.672,0 1.216,-0.545 1.216,-1.216 0,-0.672 -0.544,-1.216 -1.216,-1.216 H 33.746 V 12.79 c 0,-4.454 3.687,-6.785 7.328,-6.785 1.843,0 3.531,0.591 4.752,1.662 1.367,1.199 2.09,2.971 2.09,5.123 v 7.685 h -1.96 c -0.672,0 -1.216,0.545 -1.216,1.216 0,0.672 0.544,1.216 1.216,1.216 h 1.96 v 6.146 h -1.96 c -0.672,0 -1.216,0.545 -1.216,1.217 0,0.671 0.544,1.216 1.216,1.216 h 1.96 v 6.146 h -1.96 c -0.672,0 -1.216,0.544 -1.216,1.217 0,0.671 0.544,1.215 1.216,1.215 h 1.96 v 6.148 h -1.96 c -0.672,0 -1.216,0.544 -1.216,1.215 0,0.672 0.544,1.216 1.216,1.216 h 1.96 v 6.148 h -1.96 c -0.672,0 -1.216,0.543 -1.216,1.215 0,0.672 0.544,1.217 1.216,1.217 h 1.96 v 7.361 c 0,0.008 0.002,0.014 0.002,0.02 10e-4,0.066 0.009,0.133 0.02,0.199 0.004,0.014 0.004,0.025 0.008,0.039 0.014,0.068 0.034,0.135 0.061,0.199 0.003,0.008 0.006,0.016 0.009,0.023 0.029,0.068 0.064,0.133 0.106,0.195 10e-4,0.002 0.002,0.004 0.004,0.006 0.042,0.062 0.089,0.119 0.144,0.174 0.002,0.002 0.003,0.006 0.006,0.008 0.049,0.047 0.104,0.092 0.162,0.133 0.008,0.006 0.016,0.012 0.023,0.018 0.02,0.014 0.035,0.027 0.055,0.039 4.647,2.725 7.536,7.76 7.536,13.141 -0.002,8.39 -6.829,15.216 -15.221,15.216 z"
     id="path2"
     style="fill:#ffffff;fill-opacity:1" /><path
     fill="#000000"
     d="m 72.794,56.779 c -0.957,-0.848 -1.861,-1.646 -2.528,-2.729 -0.222,-0.359 -0.613,-0.578 -1.035,-0.578 -0.422,0 -0.813,0.219 -1.034,0.576 -0.668,1.082 -1.572,1.883 -2.53,2.73 -1.887,1.67 -4.025,3.562 -4.025,7.736 0,4.186 3.405,7.59 7.59,7.59 4.184,0 7.589,-3.404 7.589,-7.59 -0.002,-4.17 -2.14,-6.065 -4.027,-7.735 z M 69.23,69.674 c -2.844,0 -5.159,-2.314 -5.159,-5.158 0,-3.078 1.415,-4.33 3.208,-5.916 0.658,-0.582 1.329,-1.176 1.951,-1.883 0.621,0.707 1.293,1.301 1.952,1.885 1.791,1.584 3.206,2.836 3.206,5.914 10e-4,2.843 -2.314,5.158 -5.158,5.158 z"
     id="path3"
     style="fill:#ffffff;fill-opacity:1" /><path
     fill="#000000"
     d="m 61.984,54.289 c 4.185,0 7.59,-3.404 7.59,-7.589 0,-4.174 -2.14,-6.066 -4.026,-7.736 -0.958,-0.848 -1.861,-1.647 -2.529,-2.73 -0.442,-0.719 -1.626,-0.718 -2.07,0 -0.667,1.083 -1.57,1.884 -2.527,2.73 -1.887,1.67 -4.025,3.563 -4.025,7.736 -10e-4,4.185 3.403,7.589 7.587,7.589 z M 60.032,40.785 c 0.658,-0.584 1.331,-1.179 1.952,-1.885 0.621,0.706 1.294,1.301 1.951,1.884 1.793,1.586 3.207,2.838 3.207,5.916 0,2.844 -2.314,5.157 -5.158,5.157 -2.844,0 -5.158,-2.313 -5.158,-5.157 0,-3.078 1.415,-4.33 3.206,-5.915 z"
     id="path4"
     style="fill:#ffffff;fill-opacity:1" /></g>

</svg>
