<?xml version="1.0" encoding="UTF-8" standalone="no"?>
<!-- Generator: Adobe Illustrator 15.0.0, SVG Export Plug-In . SVG Version: 6.00 Build 0)  -->

<svg
   xmlns:dc="http://purl.org/dc/elements/1.1/"
   xmlns:cc="http://creativecommons.org/ns#"
   xmlns:rdf="http://www.w3.org/1999/02/22-rdf-syntax-ns#"
   xmlns:svg="http://www.w3.org/2000/svg"
   xmlns="http://www.w3.org/2000/svg"
   xmlns:sodipodi="http://sodipodi.sourceforge.net/DTD/sodipodi-0.dtd"
   xmlns:inkscape="http://www.inkscape.org/namespaces/inkscape"
   version="1.1"
   id="Layer_1"
   x="0px"
   y="0px"
   width="580px"
   height="580px"
   viewBox="0 0 580 580"
   enable-background="new 0 0 580 580"
   xml:space="preserve"
   inkscape:version="0.92.3 (2405546, 2018-03-11)"
   sodipodi:docname="windpump.svg"><metadata
   id="metadata18"><rdf:RDF><cc:Work
       rdf:about=""><dc:format>image/svg+xml</dc:format><dc:type
         rdf:resource="http://purl.org/dc/dcmitype/StillImage" /><dc:title></dc:title></cc:Work></rdf:RDF></metadata><defs
   id="defs16">
	

		
		
	</defs><sodipodi:namedview
   pagecolor="#ffffff"
   bordercolor="#666666"
   borderopacity="1"
   objecttolerance="10"
   gridtolerance="10"
   guidetolerance="10"
   inkscape:pageopacity="0"
   inkscape:pageshadow="2"
   inkscape:window-width="1536"
   inkscape:window-height="1067"
   id="namedview14"
   showgrid="false"
   inkscape:zoom="1.56"
   inkscape:cx="258.73351"
   inkscape:cy="290.04574"
   inkscape:window-x="384"
   inkscape:window-y="42"
   inkscape:window-maximized="1"
   inkscape:current-layer="Layer_1" />
<g
   id="Layer_2_1_">
	<g
   id="Layer_2">
		<g
   id="g1327">
			<path
   id="path1329"
   fill="#111111"
   stroke="#EEEEEE"
   stroke-width="3.408"
   d="M66.275,1.768     c-41.335,0-64.571,21.371-64.571,65.036v450.123c0,40.844,20.896,62.229,62.192,62.229h452.024     c41.307,0,62.229-20.314,62.229-62.229V66.804c0-42.603-20.923-65.036-63.521-65.036C514.625,1.768,66.133,1.625,66.275,1.768z" />
		</g>
	</g>
</g>

<path
   inkscape:connector-curvature="0"
   d="m 404.95651,289.99773 59.67962,218.79036 c 2.31583,8.48635 -2.68851,17.24218 -11.17549,19.55672 -7.54345,2.0578 -15.29969,-1.66599 -18.55586,-8.48061 l -1.00023,-2.69488 -14.1988,-51.97244 h -50.07519 l 0.004,63.70889 h -31.85444 l -0.004,-63.70889 h -50.10705 l -14.15931,51.97244 c -2.31581,8.48635 -11.07005,13.48972 -19.55672,11.17518 -7.54345,-2.0578 -12.33467,-9.20403 -11.68071,-16.72709 l 0.50649,-2.82868 59.63981,-218.79037 z m -67.18103,15.92723 h -6.65759 L 296.3647,433.34274 h 41.41078 z m 38.51202,0 h -6.65757 v 127.41778 h 41.41078 z m 4.97504,-254.835277 c 3.51863,0 6.37088,2.850977 6.3712,6.370576 0,0.837762 -0.15928,1.665977 -0.48418,2.440041 l -28.77764,69.43028 c 5.77076,0.80273 11.07229,3.07077 15.51599,6.41771 l 28.78655,-69.422627 c 1.34744,-3.250422 5.07505,-4.7925 8.32547,-3.444742 0.77088,0.318549 1.47487,0.789992 2.06417,1.379308 l 38.96182,38.968821 c 2.48782,2.48782 2.48782,6.52187 -6.5e-4,9.0097 -0.59248,0.5925 -1.29329,1.06076 -2.06735,1.38249 l -69.44366,28.74609 c 3.34759,4.43286 5.62105,9.72229 6.43302,15.48126 l 69.44205,-28.71965 c 3.25139,-1.34426 6.97741,0.19113 8.32198,3.4527 0.31855,0.77088 0.48419,1.5991 0.48419,2.43368 l 0.003,55.12094 c 0,3.51832 -2.85096,6.37089 -6.37056,6.3712 -0.83778,0 -1.66599,-0.15926 -2.43687,-0.48418 l -69.43728,-28.74864 c -0.80911,5.77203 -3.08351,11.07325 -6.43778,15.51502 l 69.44141,28.75598 c 3.25076,1.34744 4.79506,5.07281 3.44857,8.32357 -0.32172,0.77406 -0.78999,1.47485 -1.38248,2.06735 l -38.96882,38.96213 c -2.48784,2.48783 -6.52188,2.48783 -9.00972,-9.6e-4 -0.59249,-0.5925 -1.06075,-1.29329 -1.3793,-2.06417 l -28.77698,-69.42485 c -4.43478,3.34057 -9.72452,5.60733 -15.48222,6.41325 l 28.74864,69.43538 c 1.34425,3.25074 -0.19113,6.97739 -3.4492,8.32324 -0.77087,0.31854 -1.59909,0.48418 -2.43686,0.48418 l -55.10821,0.005 c -3.51863,0 -6.3712,-2.85098 -6.37151,-6.37025 0,-0.83459 0.15926,-1.66281 0.48418,-2.43687 l 28.74003,-69.44078 c -5.7717,-0.8091 -11.07324,-3.08351 -15.5147,-6.4381 l -28.74769,69.44492 c -1.34744,3.25107 -5.07218,4.79537 -8.32325,3.44984 -0.77406,-0.32173 -1.47486,-0.78999 -2.06735,-1.38248 l -38.96977,-38.97329 c -2.48784,-2.48783 -2.48784,-6.52188 3.1e-4,-9.0097 0.5925,-0.59249 1.29329,-1.06076 2.06418,-1.37931 l 69.42453,-28.77699 c -3.34727,-4.44338 -5.61593,-9.74491 -6.41771,-15.51565 l -69.42837,28.7773 c -3.25042,1.34744 -6.9774,-0.19113 -8.32484,-3.44569 -0.32172,-0.77407 -0.48419,-1.60228 -0.48419,-2.44006 l -0.005,-55.10437 c 0,-3.51864 2.85097,-6.3712 6.37026,-6.37152 0.83777,0 1.66598,0.15926 2.43686,0.48418 l 69.44079,28.74036 c 0.8091,-5.77203 3.08351,-11.07356 6.4381,-15.51503 l -69.44748,-28.74769 c -3.25106,-1.34425 -4.79537,-5.07218 -3.44984,-8.32325 0.32174,-0.77406 0.78999,-1.47486 1.38249,-2.06735 l 38.96977,-38.966265 c 2.48784,-2.487836 6.52188,-2.487836 9.00972,3.18e-4 0.59249,0.592494 1.06076,1.293289 1.38248,2.067354 l 28.74609,69.443013 c 4.44147,-3.35395 9.743,-5.62995 15.51471,-6.43778 L 320.26478,59.899652 c -1.34745,-3.25074 0.19113,-6.977396 3.44919,-8.323247 0.77407,-0.318549 1.60228,-0.484192 2.43688,-0.484192 z m -266.46438,63.708577 111.49057,31.85445 v 31.85445 l -111.49057,31.85445 31.85445,-47.78168 z"
   id="path843-6"
   style="stroke-width:31.85444641;stroke:none;stroke-opacity:1;fill:#ffffff;fill-opacity:1" /></svg>