<?xml version="1.0" encoding="utf-8"?>
<!-- Generator: Adobe Illustrator 15.0.0, SVG Export Plug-In . SVG Version: 6.00 Build 0)  -->
<!DOCTYPE svg PUBLIC "-//W3C//DTD SVG 1.1//EN" "http://www.w3.org/Graphics/SVG/1.1/DTD/svg11.dtd">
<svg version="1.1" xmlns="http://www.w3.org/2000/svg" xmlns:xlink="http://www.w3.org/1999/xlink" x="0px" y="0px" width="580px"
	 height="580px" viewBox="0 0 580 580" enable-background="new 0 0 580 580" xml:space="preserve">
<g id="Layer_2">
	<g id="g1327">
		<path id="path1329" fill="#111111" stroke="#EEEEEE" stroke-width="3.408" d="M66.275,1.768
			c-41.335,0-64.571,21.371-64.571,65.036v450.123c0,40.844,20.895,62.229,62.192,62.229H515.92
			c41.307,0,62.229-20.315,62.229-62.229V66.804c0-42.601-20.923-65.036-63.521-65.036C514.624,1.768,66.133,1.625,66.275,1.768z"/>
	</g>
</g>
<g id="Layer_3">
	<path fill="#FFFFFF" d="M434.241,265.979h-96.828V142.47l184.621-87.678l-11.391-23.984L57.966,245.788l11.391,23.984
		l259.207-123.1v119.306H226.045c-42.363,0-76.703,34.341-76.703,76.703v129.806c0,42.363,34.34,76.705,76.703,76.705h208.196
		c42.362,0,76.703-34.342,76.703-76.705V342.682C510.944,300.319,476.604,265.979,434.241,265.979z M255.547,396.206
		c0,32.121-20.378,58.159-45.518,58.159c-25.137,0-45.516-26.038-45.516-58.159v-45.518c0-32.12,20.378-58.16,45.516-58.16
		c25.139,0,45.518,26.04,45.518,58.16V396.206z M392.096,441.564c0,46.173-27.171,83.604-60.688,83.604
		c-33.519,0-60.688-37.431-60.688-83.604v-65.431c0-46.173,27.169-83.605,60.688-83.605c33.518,0,60.688,37.433,60.688,83.605
		V441.564z M495.772,396.206c0,32.121-20.379,58.159-45.516,58.159c-25.14,0-45.518-26.038-45.518-58.159v-45.518
		c0-32.12,20.378-58.16,45.518-58.16c25.137,0,45.516,26.04,45.516,58.16V396.206z"/>
</g>
</svg>
