<?xml version="1.0" encoding="utf-8"?>
<!-- Generator: Adobe Illustrator 15.0.0, SVG Export Plug-In . SVG Version: 6.00 Build 0)  -->
<!DOCTYPE svg PUBLIC "-//W3C//DTD SVG 1.1//EN" "http://www.w3.org/Graphics/SVG/1.1/DTD/svg11.dtd">
<svg version="1.1" xmlns="http://www.w3.org/2000/svg" xmlns:xlink="http://www.w3.org/1999/xlink" x="0px" y="0px" width="580px"
	 height="580px" viewBox="0 0 580 580" enable-background="new 0 0 580 580" xml:space="preserve">
<g id="Layer_2_1_">
	<g id="Layer_2">
		<g id="g1327">
			<path id="path1329" fill="#111111" stroke="#EEEEEE" stroke-width="3.408" d="M66.275,1.768
				c-41.335,0-64.571,21.371-64.571,65.036v450.123c0,40.844,20.896,62.229,62.192,62.229h452.024
				c41.307,0,62.229-20.314,62.229-62.229V66.804c0-42.602-20.923-65.036-63.521-65.036C514.625,1.768,66.133,1.625,66.275,1.768z"
				/>
		</g>
	</g>
</g>
<g id="Layer_1">
	<path fill="#FFFFFF" d="M432.829,214.498v-33.541h-0.011c0-1.213-0.623-2.37-1.705-3.011L327.73,116.682l-24.096-70.959
		c-0.482-1.419-1.815-2.375-3.314-2.375h-2.58h-15.481h-2.578c-1.5,0-2.832,0.955-3.314,2.375l-24.096,70.959l-103.384,61.265
		c-1.082,0.642-1.705,1.798-1.705,3.011h-0.011v33.541h7v-30.041h97.497v40.948l-102.781,60.908
		c-1.082,0.642-1.705,1.798-1.705,3.011h-0.011v33.542h7v-30.041h97.497v97.498l-79.533,141.109
		c-0.851,1.509-0.47,3.413,0.896,4.479c0.635,0.495,1.395,0.74,2.152,0.74c0.87,0,1.737-0.323,2.409-0.96L290,429.095
		l112.408,106.596c0.672,0.637,1.539,0.96,2.409,0.96c0.757,0,1.517-0.245,2.152-0.74c1.365-1.065,1.746-2.97,0.896-4.479
		l-79.533-141.109v-97.498h97.497v30.041h7v-33.542h-0.011c0-1.213-0.623-2.37-1.705-3.011l-102.781-60.908v-40.948h97.497v30.041
		H432.829z M258.668,126.827l26.064,23.168l-26.064,23.168V126.827z M264.373,122.533h51.254L290,145.313L264.373,122.533z
		 M290,154.678l25.626,22.779h-51.253L290,154.678z M295.267,149.995l26.064-23.168v46.337L295.267,149.995z M282.188,50.348h0.07
		h15.481h0.072l22.135,65.185h-59.895L282.188,50.348z M163.442,177.458l88.226-52.282v52.282H163.442z M258.668,235.194
		l26.269,23.35l-26.269,23.604V235.194z M264.373,230.9H315.7l-25.524,22.936L264.373,230.9z M290.201,263.224l25.426,22.601H265.05
		L290.201,263.224z M295.44,258.516l25.892-23.266v46.28L295.44,258.516z M321.332,220.861l-25.022-16.682l25.022-16.681V220.861z
		 M313.272,223.9h-46.544L290,208.385L313.272,223.9z M258.668,220.861v-33.363l25.022,16.681L258.668,220.861z M251.668,233.543
		v52.282h-88.226L251.668,233.543z M321.332,379.979l-27.203-39.534l27.203-39.798V379.979z M320.253,390.76L290,419.449
		l-30.26-28.695l30.153-44.113L320.253,390.76z M258.668,379.919V301.26l26.973,39.198L258.668,379.919z M189.654,514.605
		l66.36-117.738l28.899,27.405L189.654,514.605z M390.345,514.605l-95.259-90.333l28.898-27.405L390.345,514.605z M289.875,334.263
		l-28.514-41.438H318.2L289.875,334.263z M416.557,285.824h-88.226v-52.282L416.557,285.824z M290,199.972l-23.272-15.515h46.544
		L290,199.972z M328.332,177.458v-52.282l88.226,52.282H328.332z"/>
</g>
</svg>
