<?xml version="1.0" encoding="utf-8"?>
<!-- Generator: Adobe Illustrator 15.0.0, SVG Export Plug-In . SVG Version: 6.00 Build 0)  -->
<!DOCTYPE svg PUBLIC "-//W3C//DTD SVG 1.1//EN" "http://www.w3.org/Graphics/SVG/1.1/DTD/svg11.dtd">
<svg version="1.1" xmlns="http://www.w3.org/2000/svg" xmlns:xlink="http://www.w3.org/1999/xlink" x="0px" y="0px" width="580px"
	 height="580px" viewBox="0 0 580 580" enable-background="new 0 0 580 580" xml:space="preserve">
<g id="Layer_1">
	<g id="Layer_2">
		<g id="g1327">
			<path id="path1329" fill="#111111" stroke="#EEEEEE" stroke-width="3.408" d="M66.275,1.768
				c-41.335,0-64.571,21.371-64.571,65.036v450.123c0,40.844,20.895,62.229,62.192,62.229H515.92
				c41.307,0,62.229-20.315,62.229-62.229V66.804c0-42.601-20.924-65.036-63.521-65.036C514.624,1.768,66.133,1.625,66.275,1.768z"
				/>
		</g>
	</g>
</g>
<g id="Layer_2_1_">
	<g>
		<polygon opacity="0.99" fill="#FFFFFF" enable-background="new    " points="509.834,437.518 479.809,458.542 432.239,390.608 
			495.44,346.354 475.523,317.905 412.32,362.162 390.197,330.568 361.766,350.478 383.889,382.071 320.688,426.326 
			340.604,454.773 403.807,410.517 451.377,478.451 421.354,499.475 441.27,527.923 529.75,465.965 		"/>
		<polygon opacity="0.99" fill="#FFFFFF" enable-background="new    " points="213.536,313.733 180.908,301.862 167.716,338.107 
			95.218,311.72 83.343,344.348 155.841,370.732 127.475,448.67 93.039,436.135 81.164,468.763 182.663,505.701 194.538,473.081 
			160.101,460.546 188.468,382.606 260.962,408.989 272.841,376.369 200.343,349.982 		"/>
		<polygon opacity="0.99" fill="#FFFFFF" enable-background="new    " points="401.809,219.099 365.162,219.099 365.162,253.814 
			473.179,253.814 473.179,219.099 436.531,219.099 436.531,136.158 513.683,136.158 513.683,101.436 436.531,101.436 
			436.531,62.864 401.809,62.864 401.809,101.436 324.658,101.436 324.658,136.158 401.809,136.158 		"/>
		<polygon opacity="0.99" fill="#FFFFFF" enable-background="new    " points="155.311,237.673 127.234,214.111 180.55,150.577 
			239.651,200.169 261.965,173.574 202.865,123.984 227.663,94.433 201.067,72.115 176.268,101.667 117.168,52.077 94.85,78.665 
			153.953,128.259 100.638,191.793 72.568,168.237 50.25,194.833 132.993,264.261 		"/>
	</g>
</g>
</svg>
