<?xml version="1.0" encoding="UTF-8" standalone="no"?>
<!-- Generator: Adobe Illustrator 15.0.0, SVG Export Plug-In . SVG Version: 6.00 Build 0)  -->

<svg
   xmlns:dc="http://purl.org/dc/elements/1.1/"
   xmlns:cc="http://creativecommons.org/ns#"
   xmlns:rdf="http://www.w3.org/1999/02/22-rdf-syntax-ns#"
   xmlns:svg="http://www.w3.org/2000/svg"
   xmlns="http://www.w3.org/2000/svg"
   xmlns:sodipodi="http://sodipodi.sourceforge.net/DTD/sodipodi-0.dtd"
   xmlns:inkscape="http://www.inkscape.org/namespaces/inkscape"
   version="1.1"
   x="0px"
   y="0px"
   width="580px"
   height="580px"
   viewBox="0 0 580 580"
   enable-background="new 0 0 580 580"
   xml:space="preserve"
   id="svg2"
   inkscape:version="0.48.4 r9939"
   sodipodi:docname="16005.svg"><metadata
   id="metadata27"><rdf:RDF><cc:Work
       rdf:about=""><dc:format>image/svg+xml</dc:format><dc:type
         rdf:resource="http://purl.org/dc/dcmitype/StillImage" /><dc:title></dc:title></cc:Work></rdf:RDF></metadata><defs
   id="defs25">
	
	
	
</defs><sodipodi:namedview
   pagecolor="#ffffff"
   bordercolor="#666666"
   borderopacity="1"
   objecttolerance="10"
   gridtolerance="10"
   guidetolerance="10"
   inkscape:pageopacity="0"
   inkscape:pageshadow="2"
   inkscape:window-width="879"
   inkscape:window-height="738"
   id="namedview23"
   showgrid="false"
   inkscape:zoom="0.051"
   inkscape:cx="290"
   inkscape:cy="290"
   inkscape:window-x="1244"
   inkscape:window-y="266"
   inkscape:window-maximized="0"
   inkscape:current-layer="svg2" />
<g
   id="Layer_2">
	<g
   id="g1327">
		<path
   id="path1329"
   fill="#111111"
   stroke="#EEEEEE"
   stroke-width="3.408"
   d="M66.275,1.768    c-41.335,0-64.571,21.371-64.571,65.036v450.123c0,40.844,20.894,62.229,62.192,62.229H515.92    c41.307,0,62.229-20.316,62.229-62.229V66.804c0-42.601-20.923-65.036-63.522-65.036C514.624,1.768,66.133,1.625,66.275,1.768z" />
	</g>
</g>
<g
   id="Layer_2_1_"
   transform="matrix(0.85744493,0,0,0.85744493,69.804335,53.638238)">
		<g
   id="g18">
			<path
   style="fill:#ffffff"
   inkscape:connector-curvature="0"
   d="m 513.385,398.864 c -1.39,0.976 -3.285,1.188 -4.856,0.541 l -27.968,-11.52 -0.415,-0.15 c -7.795,-2.506 -14.146,-6.412 -19.573,-7.477 -71.729,54.076 -143.436,108.147 -215.175,162.214 -0.064,0.054 -0.132,0.093 -0.196,0.146 -13.124,10.723 -32.74,6.393 -42.012,-6.818 l -0.024,0.018 c -0.061,-0.072 -0.106,-0.15 -0.164,-0.221 -0.042,-0.06 -0.088,-0.112 -0.127,-0.173 l 0.024,-0.019 c -10.022,-12.593 -7.982,-32.024 5.23,-41.791 0.056,-0.044 0.114,-0.087 0.173,-0.128 53.936,-36.607 108.512,-72.242 162.627,-108.435 0.01,-0.007 0.017,-0.014 0.024,-0.02 20.906,-14.249 42.473,-27.639 62.594,-42.084 0.547,-16.303 -0.637,-33.291 -0.669,-50.344 -0.013,-1.933 1.182,-3.822 2.932,-4.641 l 68.033,-31.935 c 2.136,-0.997 4.935,-0.254 6.297,1.669 l 12.188,17.12 c 1.532,2.155 0.986,5.5 -1.147,7.055 -13.854,10.204 -28.308,19.616 -41.301,29.819 0.404,7.755 1.26,15.725 2.618,23.239 6.642,3.775 13.988,7.185 21.153,10.078 14.294,-9.249 28.197,-20.021 42.711,-30.024 2.173,-1.506 5.512,-0.921 7.043,1.233 l 13.371,18.721 c 1.34,1.886 1.157,4.701 -0.414,6.399 l -52.145,56.796 c -0.249,0.275 -0.529,0.52 -0.832,0.732 l 0,0 z M 231.733,526.292 c 0.181,-0.131 0.353,-0.276 0.525,-0.425 0.097,-0.092 0.198,-0.179 0.301,-0.261 4.985,-3.704 4.701,-12.215 -0.475,-15.645 -0.093,-0.068 -0.185,-0.141 -0.273,-0.216 -5.75,-4.402 -15.76,1.01 -15.192,8.251 0.012,0.175 0.015,0.352 0.007,0.527 -0.189,7.002 9.535,11.812 15.107,7.769 l 0,0 z"
   id="rect3530_1_" />
		</g>
	</g>
<path
   style="fill:#ffffff"
   inkscape:connector-curvature="0"
   id="path29"
   d="m 378.51911,144.63366 c -9.87351,0 -19.29693,1.97402 -27.89669,5.5405 -0.79509,-2.75197 -1.60389,-5.54393 -2.41383,-8.3473 -3.38028,-11.68189 -6.82452,-23.54083 -9.725,-33.23042 -2.85479,-9.545648 -5.49937,-15.424286 -6.36415,-19.655627 -0.67514,-3.296881 3.50137,-3.013573 7.90292,-6.681725 3.3243,-2.769106 6.14367,-7.448256 7.00616,-12.210799 0.71855,-4.18793 -0.1725,-8.395281 -2.1191,-11.84067 -6.76512,-10.337311 -13.36573,-10.141966 -22.10144,-10.141966 -11.48311,0 -30.43846,0 -30.43846,0 l 0.072,18.651484 29.20241,0.0594 c 3.48424,0.0069 5.29032,4.906482 -1.52163,6.810813 -2.98045,0.827076 -6.30703,4.380991 -7.4197,8.783687 -1.11153,4.402696 -0.27988,8.796253 1.34686,12.863092 0.37355,0.935602 1.10581,3.808664 2.17964,7.833231 l -132.57553,0.66829 -7.82752,-19.162122 c 8.83852,-2.021996 29.11902,-6.885068 31.92811,-9.559357 3.33458,-3.037563 0,-7.608188 -2.58518,-7.608188 h -69.1888 c 0.85449,15.262071 12.81625,18.580657 19.29007,19.585943 l 7.64815,18.724594 c -0.8225,0.67628 -1.52506,1.50907 -2.04598,2.4778 l -23.11015,42.91771 c -8.41584,-3.39055 -17.59936,-5.25947 -27.21355,-5.25947 -40.292554,0 -73.072877,32.78032 -73.072877,73.07287 0,40.29141 32.780323,73.07059 73.072877,73.07059 37.89243,0 69.13968,-28.99336 72.7233,-65.96276 h 7.24834 c 2.40812,7.4711 8.05143,13.64562 15.40487,17.11157 l -3.55277,8.27305 -13.10756,0.11995 c -2.80909,0.0251 -5.06642,2.32358 -5.04014,5.13152 0.0263,2.7931 2.2973,5.039 5.08583,5.039 0.0148,0 0.0308,0 0.048,0 l 29.41947,-0.2696 c 2.8068,-0.0263 5.06413,-2.32358 5.03899,-5.13267 -0.0274,-2.79195 -2.29844,-5.039 -5.08469,-5.039 -0.0171,0 -0.0308,0 -0.048,0 l -8.35872,0.0765 2.52464,-5.87521 c 2.16136,0.45695 4.40498,0.70599 6.71371,0.70599 16.72316,0 30.32651,-12.68032 30.32651,-28.26682 0,-3.21463 -0.58946,-6.30246 -1.65187,-9.18466 l 82.39805,-55.91218 c 0.76653,2.65487 1.52506,5.28232 2.26646,7.85494 -16.72545,13.40343 -27.45459,33.99009 -27.45459,57.03856 0,40.29255 32.77918,73.07173 73.07059,73.07173 40.29255,0 73.07287,-32.77918 73.07287,-73.07173 0,-40.29255 -32.78032,-73.07059 -73.07287,-73.07059 z M 320.9859,119.69571 c 1.5045,5.08698 3.12438,10.61377 4.77968,16.2982 l -87.72149,59.52322 c -0.93675,-0.67172 -1.91347,-1.29774 -2.93133,-1.86664 l 3.63731,-8.46153 13.16468,-0.11995 c 2.8068,-0.0251 5.06413,-2.32359 5.03785,-5.13267 -0.0263,-2.80909 -2.35671,-5.05042 -5.13152,-5.039 l -29.42176,0.2696 c -2.80794,0.0251 -5.06413,2.32358 -5.03671,5.13267 0.024,2.7931 2.29617,5.039 5.08241,5.039 0.016,0 0.032,0 0.0468,0 l 8.30389,-0.0754 -2.40812,5.60333 c -2.79195,-0.79281 -5.75298,-1.22348 -8.82253,-1.22348 -0.27188,0 -0.54034,0.0126 -0.80765,0.0183 l -28.3148,-69.3042 130.54325,-0.66143 z m -150.21601,5.24005 29.18414,71.43586 c -4.29303,3.40084 -7.55907,7.89035 -9.30347,13.00932 h -7.65388 c -2.72227,-20.77287 -14.20195,-38.82461 -30.60067,-50.32371 l 18.37388,-34.12147 z m -9.13211,84.44518 h -36.33766 l 16.99962,-31.57056 c 9.89521,7.65846 16.95619,18.79771 19.33804,31.57056 z m -51.08909,61.52465 c -28.663222,0 -51.982431,-23.31921 -51.982431,-51.98015 0,-28.66322 23.319209,-51.98243 51.982431,-51.98243 5.99744,0 11.75614,1.03271 17.12071,2.91076 l -23.64022,43.90701 c -1.38912,2.57948 -1.31944,5.70158 0.18278,8.21708 1.50336,2.5155 4.21763,4.05655 7.14781,4.05655 h 50.67098 c -3.47623,25.30808 -25.23152,44.87118 -51.48206,44.87118 z m 267.97042,-1.21777 c -28.66322,0 -51.98015,-23.31921 -51.98015,-51.98129 0,-13.13497 4.90534,-25.13786 12.97048,-34.29853 0.86363,2.91876 1.64158,5.49709 2.29159,7.62875 0.92304,3.02043 1.39027,4.71228 2.16822,6.63146 l 0.32444,0.79738 0.47408,0.72197 c 0.33814,0.54263 3.66701,9.90778 12.66432,17.62564 l 0.0743,0.0491 0.0491,0.0754 c 6.46582,5.35543 12.04173,7.27576 15.5648,8.39414 3.70928,1.14122 8.78255,0.55519 11.24321,-3.2569 1.94889,-2.79767 0.23305,-8.45926 -3.45909,-11.14154 -1.4531,-1.01671 -5.64217,-4.3433 -10.78969,-8.84652 -4.59005,-4.09654 -4.96132,-7.23463 -7.6973,-12.04744 0.0708,0.15536 -0.68885,-2.02656 -1.54677,-4.8368 -0.88076,-2.88334 -2.02542,-6.73427 -3.33914,-11.21807 -0.31758,-1.08754 -0.64773,-2.21392 -0.98473,-3.37228 6.6783,-3.1301 14.12313,-4.88935 21.97236,-4.88935 28.66436,0 51.98357,23.32035 51.98357,51.98243 0,28.66436 -23.32035,51.98243 -51.98357,51.98243 z" /></svg>