<?xml version="1.0" encoding="UTF-8" standalone="no"?>
<!-- Created with Inkscape (http://www.inkscape.org/) -->

<svg
   xmlns:dc="http://purl.org/dc/elements/1.1/"
   xmlns:cc="http://creativecommons.org/ns#"
   xmlns:rdf="http://www.w3.org/1999/02/22-rdf-syntax-ns#"
   xmlns:svg="http://www.w3.org/2000/svg"
   xmlns="http://www.w3.org/2000/svg"
   xmlns:sodipodi="http://sodipodi.sourceforge.net/DTD/sodipodi-0.dtd"
   xmlns:inkscape="http://www.inkscape.org/namespaces/inkscape"
   version="1.0"
   width="580"
   height="580"
   id="svg2"
   sodipodi:version="0.32"
   inkscape:version="0.92.3 (2405546, 2018-03-11)"
   sodipodi:docname="car_pooling.svg"
   inkscape:output_extension="org.inkscape.output.svg.inkscape">
  <metadata
     id="metadata10">
    <rdf:RDF>
      <cc:Work
         rdf:about="">
        <dc:format>image/svg+xml</dc:format>
        <dc:type
           rdf:resource="http://purl.org/dc/dcmitype/StillImage" />
        <cc:license
           rdf:resource="http://web.resource.org/cc/PublicDomain" />
        <dc:language>en</dc:language>
        <dc:title></dc:title>
      </cc:Work>
    </rdf:RDF>
  </metadata>
  <sodipodi:namedview
     inkscape:window-height="1002"
     inkscape:window-width="1280"
     inkscape:pageshadow="2"
     inkscape:pageopacity="0.0"
     guidetolerance="10.0"
     gridtolerance="10.0"
     objecttolerance="10.0"
     borderopacity="1.0"
     bordercolor="#666666"
     pagecolor="#ffffff"
     id="base"
     showgrid="false"
     inkscape:zoom="0.70710678"
     inkscape:cx="128.3312"
     inkscape:cy="399.03428"
     inkscape:window-x="243"
     inkscape:window-y="31"
     inkscape:current-layer="svg2"
     inkscape:window-maximized="0" />
  <defs
     id="defs4">
    <inkscape:perspective
       sodipodi:type="inkscape:persp3d"
       inkscape:vp_x="0 : 290 : 1"
       inkscape:vp_y="0 : 1000 : 0"
       inkscape:vp_z="580 : 290 : 1"
       inkscape:persp3d-origin="290 : 193.33333 : 1"
       id="perspective12" />
    <style
       type="text/css"
       id="style6">
   
    .fil0 {fill:#EF7900}
   
  </style>
    <inkscape:perspective
       id="perspective6807"
       inkscape:persp3d-origin="29.116032 : 19.410688 : 1"
       inkscape:vp_z="58.232063 : 29.116032 : 1"
       inkscape:vp_y="0 : 1000 : 0"
       inkscape:vp_x="0 : 29.116032 : 1"
       sodipodi:type="inkscape:persp3d" />
    <inkscape:perspective
       id="perspective6954"
       inkscape:persp3d-origin="290 : 193.33333 : 1"
       inkscape:vp_z="580 : 290 : 1"
       inkscape:vp_y="0 : 1000 : 0"
       inkscape:vp_x="0 : 290 : 1"
       sodipodi:type="inkscape:persp3d" />
    <marker
       viewBox="0 0 10 10"
       refY="5"
       refX="10"
       orient="auto"
       markerWidth="4"
       markerUnits="strokeWidth"
       markerHeight="3"
       id="ArrowStart">
      <path
         id="path2295"
         d="M 10 0 L 0 5 L 10 10 z" />
    </marker>
    <marker
       viewBox="0 0 10 10"
       refY="5"
       refX="0"
       orient="auto"
       markerWidth="4"
       markerUnits="strokeWidth"
       markerHeight="3"
       id="ArrowEnd">
      <path
         id="path2292"
         d="M 0 0 L 10 5 L 0 10 z" />
    </marker>
    <inkscape:perspective
       id="perspective7597"
       inkscape:persp3d-origin="178.5405 : 158.483 : 1"
       inkscape:vp_z="357.08099 : 237.7245 : 1"
       inkscape:vp_y="0 : 1000 : 0"
       inkscape:vp_x="0 : 237.7245 : 1"
       sodipodi:type="inkscape:persp3d" />
  </defs>
  <g
     id="g1327">
    <path
       d="m 66.3485,1.3377778 c -41.335,0 -64.571,21.3710002 -64.571,65.0360002 V 516.49678 c 0,40.844 20.894,62.229 62.192,62.229 h 452.024 c 41.307,0 62.229,-20.316 62.229,-62.229 V 66.373778 c 0,-42.601 -20.922,-65.0360002 -63.522,-65.0360002 -0.003,0 -448.494,-0.143 -448.352,0 z"
       style="fill:#111111;stroke:#eeeeee;stroke-width:3.40799999"
       id="path1329"
       inkscape:connector-curvature="0" />
  </g>
  <path
     style="fill:#ffffff;stroke:none;stroke-width:1.3128798"
     d="m 194.69209,105.13827 c -27.91482,0 -42.72301,15.23966 -49.55936,33.07826 l -36.28937,93.70238 c -14.385759,1.84464 -39.887348,18.73086 -39.887348,50.72001 v 119.1591 h 35.322168 v 38.10772 c 0,46.88367 66.34994,46.33151 66.34995,0 v -38.10772 h 119.35256 0.0387 119.35248 v 38.10772 c 0,46.33151 66.34965,46.88367 66.35002,0 v -38.10772 h 35.3221 v -119.1591 c 0,-31.98912 -25.5014,-48.87537 -39.88742,-50.72001 l -36.32793,-93.70238 c -6.83633,-17.8386 -21.64439,-33.07826 -49.55941,-33.07826 h -51.30021 -87.3577 -51.91926 z m -0.42558,34.12284 h 95.63682 0.0773 0.0387 95.67543 c 11.96293,0.11146 17.08648,7.59274 20.50464,17.95122 l 27.35238,73.73939 h -143.53245 -0.0387 -0.0773 -143.49389 l 27.35242,-73.73939 c 3.41819,-10.35848 8.54045,-17.83982 20.50465,-17.95122 z m -55.74942,127.5544 c 16.9274,0 30.64091,14.12328 30.64091,31.56942 -2e-5,17.44738 -13.71351,31.60812 -30.64091,31.60812 -16.92618,0 -30.64093,-14.16077 -30.64093,-31.60812 0,-17.4461 13.71475,-31.56942 30.64093,-31.56942 z m 302.9659,0 c 16.92741,0 30.64103,14.12332 30.64091,31.56942 0,17.44735 -13.7135,31.60812 -30.64091,31.60812 -16.92615,0 -30.67967,-14.16074 -30.67967,-31.60812 0,-17.44614 13.75352,-31.56942 30.67967,-31.56942 z"
     id="path2301"
     inkscape:connector-curvature="0" />
  <g
     id="g2319"
     transform="translate(879.29125,36.805119)">
    <path
       id="path2323"
       style="fill:#ffffff;stroke:none"
       d="" />
  </g>
  <g
     id="g2325"
     transform="translate(879.29125,36.805119)">
    <path
       id="path2329"
       style="fill:#ffffff;stroke:none"
       d="" />
  </g>
  <g
     id="g6804"
     transform="matrix(0.57652834,0,0,0.57652834,127.02918,141.51535)">
    <path
       id="path8791-2"
       d="m 169.8083,21.036129 c -10.69513,3.97e-4 -20.00111,3.873175 -27.92337,11.595293 -7.92154,7.722865 -11.8907,17.107746 -11.89109,28.189584 3.8e-4,11.094644 3.96955,20.52658 11.89109,28.248744 7.92226,7.7228 17.22824,11.56603 27.92337,11.56571 0.39434,0 0.7931,-0.02 1.18319,-0.0295 0.39452,0.0109 0.78433,0.0298 1.18319,0.0295 10.69514,3.2e-4 20.00115,-3.84291 27.92339,-11.56571 7.92155,-7.722164 11.86114,-17.1541 11.86151,-28.248744 -3.6e-4,-11.081838 -3.93996,-20.466719 -11.86151,-28.189584 -7.92224,-7.722118 -17.22825,-11.594896 -27.92339,-11.595293 -0.39875,9e-6 -0.7888,0.01959 -1.18319,0.02953 -0.38999,-0.0095 -0.78895,-0.02953 -1.18319,-0.02953 z m -30.28976,88.502861 c -2.41909,7e-5 -4.6052,0.27098 -6.56672,0.79866 a 33.927916,33.927916 0 0 0 -3.87496,-0.1479 33.927916,33.927916 0 0 0 -33.09984,34.69716 l 0.70992,79.12606 a 33.927916,33.927916 0 0 0 23.84135,33.0111 v 9.90925 3.01714 l 50.4632,-1.47899 50.4928,1.47899 v -3.01714 -11.41782 a 33.927916,33.927916 0 0 0 19.87765,-32.1237 l -0.70991,-79.12607 a 33.927916,33.927916 0 0 0 -31.88707,-33.98724 c -1.88809,-0.47812 -3.96823,-0.73944 -6.27092,-0.7395 z"
       style="font-style:normal;font-variant:normal;font-weight:normal;font-stretch:normal;font-size:40px;line-height:125%;font-family:NPSPICT3;-inkscape-font-specification:NPSPICT3;text-align:start;writing-mode:lr-tb;text-anchor:start;opacity:1;fill:#ffffff;fill-opacity:1;stroke:#ffffff;stroke-width:1.55347908;stroke-linecap:round;stroke-linejoin:round;stroke-opacity:1"
       inkscape:connector-curvature="0" />
    <path
       inkscape:connector-curvature="0"
       style="font-style:normal;font-variant:normal;font-weight:normal;font-stretch:normal;font-size:40px;line-height:125%;font-family:NPSPICT3;-inkscape-font-specification:NPSPICT3;text-align:start;writing-mode:lr-tb;text-anchor:start;fill:#ffffff;fill-opacity:1;stroke:#ffffff;stroke-width:1.55347908;stroke-linecap:round;stroke-linejoin:round;stroke-opacity:1"
       d="m 397.8083,21.036129 c -10.69513,3.97e-4 -20.00111,3.873175 -27.92337,11.595293 -7.92154,7.722865 -11.8907,17.107746 -11.89109,28.189584 3.8e-4,11.094644 3.96955,20.52658 11.89109,28.248744 7.92226,7.7228 17.22824,11.56603 27.92337,11.56571 0.39434,0 0.7931,-0.02 1.18319,-0.0295 0.39452,0.0109 0.78433,0.0298 1.18319,0.0295 10.69514,3.2e-4 20.00115,-3.84291 27.92339,-11.56571 7.92155,-7.722164 11.86114,-17.1541 11.86151,-28.248744 -3.6e-4,-11.081838 -3.93996,-20.466719 -11.86151,-28.189584 -7.92224,-7.722118 -17.22825,-11.594896 -27.92339,-11.595293 -0.39875,9e-6 -0.7888,0.01959 -1.18319,0.02953 -0.38999,-0.0095 -0.78895,-0.02953 -1.18319,-0.02953 z m -30.28976,88.502861 c -2.41909,7e-5 -4.6052,0.27098 -6.56672,0.79866 a 33.927916,33.927916 0 0 0 -3.87496,-0.1479 33.927916,33.927916 0 0 0 -33.09984,34.69716 l 0.70992,79.12606 a 33.927916,33.927916 0 0 0 23.84135,33.0111 v 9.90925 3.01714 l 50.4632,-1.47899 50.4928,1.47899 v -3.01714 -11.41782 a 33.927916,33.927916 0 0 0 19.87765,-32.1237 l -0.70991,-79.12607 a 33.927916,33.927916 0 0 0 -31.88707,-33.98724 c -1.88809,-0.47812 -3.96823,-0.73944 -6.27092,-0.7395 z"
       id="path20631" />
  </g>
</svg>
