<?xml version="1.0" encoding="utf-8"?>
<!-- Generator: Adobe Illustrator 15.0.0, SVG Export Plug-In . SVG Version: 6.00 Build 0)  -->
<!DOCTYPE svg PUBLIC "-//W3C//DTD SVG 1.1//EN" "http://www.w3.org/Graphics/SVG/1.1/DTD/svg11.dtd">
<svg version="1.1" xmlns="http://www.w3.org/2000/svg" xmlns:xlink="http://www.w3.org/1999/xlink" x="0px" y="0px" width="580px"
	 height="580px" viewBox="0 0 580 580" enable-background="new 0 0 580 580" xml:space="preserve">
<g id="Layer_2">
	<g id="g1327">
		<path id="path1329" fill="#111111" stroke="#EEEEEE" stroke-width="3.408" d="M66.275,1.768
			c-41.335,0-64.571,21.371-64.571,65.036v450.123c0,40.844,20.895,62.229,62.192,62.229H515.92
			c41.307,0,62.229-20.315,62.229-62.229V66.804c0-42.601-20.923-65.036-63.521-65.036C514.624,1.768,66.133,1.625,66.275,1.768z"/>
	</g>
</g>
<g id="Layer_3">
	<g>
		<polygon fill="#FFFFFF" points="299.221,339.133 306.979,325.027 306.979,170.416 530.416,64.304 518.615,39.453 49.583,262.2 
			61.385,287.05 299.221,174.101 		"/>
		<polygon fill="#FFFFFF" points="362.379,348.775 362.379,243.33 306.979,344.057 303.391,350.579 256.268,436.259 
			256.268,526.014 326.5,409.491 		"/>
		<polygon fill="#FFFFFF" points="370.459,353.126 334.396,414.153 259.709,540.547 345.074,540.547 455.801,350.8 371.193,353.106 
					"/>
	</g>
</g>
</svg>
