<?xml version="1.0" encoding="UTF-8" standalone="no"?>
<!-- Generator: Adobe Illustrator 15.0.0, SVG Export Plug-In . SVG Version: 6.00 Build 0)  -->

<svg
   xmlns:dc="http://purl.org/dc/elements/1.1/"
   xmlns:cc="http://creativecommons.org/ns#"
   xmlns:rdf="http://www.w3.org/1999/02/22-rdf-syntax-ns#"
   xmlns:svg="http://www.w3.org/2000/svg"
   xmlns="http://www.w3.org/2000/svg"
   xmlns:sodipodi="http://sodipodi.sourceforge.net/DTD/sodipodi-0.dtd"
   xmlns:inkscape="http://www.inkscape.org/namespaces/inkscape"
   version="1.1"
   x="0px"
   y="0px"
   width="580px"
   height="580px"
   viewBox="0 0 580 580"
   enable-background="new 0 0 580 580"
   xml:space="preserve"
   id="svg843"
   sodipodi:docname="charge_point.svg"
   inkscape:version="0.92.3 (2405546, 2018-03-11)"><metadata
   id="metadata849"><rdf:RDF><cc:Work
       rdf:about=""><dc:format>image/svg+xml</dc:format><dc:type
         rdf:resource="http://purl.org/dc/dcmitype/StillImage" /></cc:Work></rdf:RDF></metadata><defs
   id="defs847">
	

		
		
	</defs><sodipodi:namedview
   pagecolor="#ffffff"
   bordercolor="#666666"
   borderopacity="1"
   objecttolerance="10"
   gridtolerance="10"
   guidetolerance="10"
   inkscape:pageopacity="0"
   inkscape:pageshadow="2"
   inkscape:window-width="1575"
   inkscape:window-height="891"
   id="namedview845"
   showgrid="false"
   inkscape:zoom="1.6896552"
   inkscape:cx="290"
   inkscape:cy="398.45216"
   inkscape:window-x="130"
   inkscape:window-y="130"
   inkscape:window-maximized="0"
   inkscape:current-layer="svg843" />
<g
   id="Layer_2">
	<g
   id="g1327">
		<path
   id="path1329"
   fill="#111111"
   stroke="#EEEEEE"
   stroke-width="3.408"
   d="M66.275,1.768    c-41.335,0-64.571,21.371-64.571,65.036v450.123c0,40.844,20.894,62.229,62.192,62.229H515.92    c41.307,0,62.229-20.316,62.229-62.229V66.804c0-42.601-20.923-65.036-63.522-65.036C514.624,1.768,66.133,1.625,66.275,1.768z" />
	</g>
</g>
<g
   id="g858"
   transform="translate(-0.0735,85.248636)"><path
     sodipodi:nodetypes="ssssccssscssssssscc"
     style="fill:#ffffff"
     inkscape:connector-curvature="0"
     id="path836"
     d="M 460.846,42.66 H 119.154 c -15.482,0 -28.078,12.596 -28.078,28.078 v 268.214 c 0,15.482 12.596,28.078 28.078,28.078 356.88815,0.48091 -15.71015,1.23811 341.692,-10e-4 15.482,0 28.078,-12.596 28.078,-28.078 V 70.737 c 0,-15.482 -12.596,-28.077 -28.078,-28.077 z m 17.324,296.291 c 0,9.553 -7.771,17.324 -17.324,17.324 H 119.154 c -9.553,0 -17.325,-7.771 -17.325,-17.324 V 70.737 c 0,-9.553 7.772,-17.325 17.325,-17.325 h 341.691 c 9.553,0 17.324,7.772 17.324,17.325 v 268.214 z" /><path
     style="fill:#ffffff"
     inkscape:connector-curvature="0"
     id="path838"
     d="m 290,90.595 c -63.099,0 -114.25,51.151 -114.25,114.25 0,63.099 51.151,114.25 114.25,114.25 63.099,0 114.25,-51.151 114.25,-114.25 0,-63.099 -51.151,-114.25 -114.25,-114.25 z m -55.498,110.374 c -15.324,0 -27.748,-12.423 -27.748,-27.748 0,-15.325 12.424,-27.749 27.748,-27.749 15.326,0 27.75,12.424 27.75,27.749 0,15.325 -12.424,27.748 -27.75,27.748 z M 290,264.218 c -15.324,0 -27.748,-12.424 -27.748,-27.749 0,-15.325 12.424,-27.748 27.748,-27.748 15.326,0 27.749,12.423 27.749,27.748 0,15.325 -12.424,27.749 -27.749,27.749 z m 55.496,-62.249 c -15.324,0 -27.748,-12.423 -27.747,-27.748 0,-15.325 12.424,-27.749 27.748,-27.749 15.325,0 27.749,12.424 27.749,27.749 0,15.325 -12.424,27.748 -27.75,27.748 z" /></g>
</svg>