<?xml version="1.0" encoding="utf-8"?>
<!-- Generator: Adobe Illustrator 15.0.0, SVG Export Plug-In . SVG Version: 6.00 Build 0)  -->
<!DOCTYPE svg PUBLIC "-//W3C//DTD SVG 1.1//EN" "http://www.w3.org/Graphics/SVG/1.1/DTD/svg11.dtd">
<svg version="1.1" xmlns="http://www.w3.org/2000/svg" xmlns:xlink="http://www.w3.org/1999/xlink" x="0px" y="0px" width="580px"
	 height="580px" viewBox="0 0 580 580" enable-background="new 0 0 580 580" xml:space="preserve">
<g id="Layer_2">
	<g id="g1327">
		<path id="path1329" fill="#111111" stroke="#EEEEEE" stroke-width="3.408" d="M66.275,1.768
			c-41.335,0-64.571,21.371-64.571,65.036v450.123c0,40.844,20.894,62.229,62.192,62.229H515.92
			c41.307,0,62.229-20.316,62.229-62.229V66.804c0-42.601-20.923-65.036-63.522-65.036C514.624,1.768,66.133,1.625,66.275,1.768z"/>
	</g>
</g>
<g id="svg2" inkscape:version="0.46" sodipodi:docname="waste_bin.svg" sodipodi:version="0.32" xmlns:cc="http://creativecommons.org/ns#" xmlns:dc="http://purl.org/dc/elements/1.1/" xmlns:rdf="http://www.w3.org/1999/02/22-rdf-syntax-ns#" xmlns:inkscape="http://www.inkscape.org/namespaces/inkscape" xmlns:svg="http://www.w3.org/2000/svg" xmlns:sodipodi="http://sodipodi.sourceforge.net/DTD/sodipodi-0.dtd" inkscape:output_extension="org.inkscape.output.svg.inkscape">
	<path fill="#FFFFFF" d="M457.446,110.009H117.47c-33.689,0-61,27.311-61,61v237.982c0,33.689,27.311,61,61,61h339.977
		c33.689,0,61-27.311,61-61V171.009C518.446,137.319,491.136,110.009,457.446,110.009z M156.5,404.662L93,441.322v-48.881
		L135.333,368L93,343.559v-48.881l63.5,36.66L220,368L156.5,404.662z M156.5,248.661L93,285.323v-48.882L135.333,212L93,187.559
		v-48.882l63.5,36.661L220,212L156.5,248.661z M481.916,343.559L439.582,368l42.334,24.441v48.881l-63.5-36.66L354.916,368
		l63.5-36.662l63.5-36.66V343.559z M481.916,187.559L439.582,212l42.334,24.441v48.882l-63.5-36.662L354.916,212l63.5-36.662
		l63.5-36.661V187.559z"/>
</g>
</svg>
