<?xml version="1.0" encoding="UTF-8" standalone="no"?>
<!-- Generator: Adobe Illustrator 15.0.0, SVG Export Plug-In . SVG Version: 6.00 Build 0)  -->

<svg
   xmlns:dc="http://purl.org/dc/elements/1.1/"
   xmlns:cc="http://creativecommons.org/ns#"
   xmlns:rdf="http://www.w3.org/1999/02/22-rdf-syntax-ns#"
   xmlns:svg="http://www.w3.org/2000/svg"
   xmlns="http://www.w3.org/2000/svg"
   xmlns:sodipodi="http://sodipodi.sourceforge.net/DTD/sodipodi-0.dtd"
   xmlns:inkscape="http://www.inkscape.org/namespaces/inkscape"
   version="1.1"
   x="0px"
   y="0px"
   width="580px"
   height="580px"
   viewBox="0 0 580 580"
   enable-background="new 0 0 580 580"
   xml:space="preserve"
   id="svg8694"
   sodipodi:docname="departures_board.svg"
   inkscape:version="0.92.3 (2405546, 2018-03-11)"><metadata
   id="metadata8700"><rdf:RDF><cc:Work
       rdf:about=""><dc:format>image/svg+xml</dc:format><dc:type
         rdf:resource="http://purl.org/dc/dcmitype/StillImage" /><dc:title></dc:title></cc:Work></rdf:RDF></metadata><defs
   id="defs8698" /><sodipodi:namedview
   pagecolor="#ffffff"
   bordercolor="#666666"
   borderopacity="1"
   objecttolerance="10"
   gridtolerance="10"
   guidetolerance="10"
   inkscape:pageopacity="0"
   inkscape:pageshadow="2"
   inkscape:window-width="1245"
   inkscape:window-height="839"
   id="namedview8696"
   showgrid="false"
   inkscape:zoom="1.0824912"
   inkscape:cx="321.28464"
   inkscape:cy="290"
   inkscape:window-x="484"
   inkscape:window-y="172"
   inkscape:window-maximized="0"
   inkscape:current-layer="svg8694" />
<g
   id="Layer_2_1_">
	<g
   id="Layer_2">
		<g
   id="g1327">
			<path
   id="path1329"
   fill="#111111"
   stroke="#EEEEEE"
   stroke-width="3.408"
   d="M66.275,1.768     c-41.335,0-64.571,21.371-64.571,65.036v450.123c0,40.844,20.895,62.229,62.192,62.229h452.024     c41.307,0,62.229-20.315,62.229-62.229V66.804c0-42.602-20.923-65.036-63.521-65.036C514.625,1.768,66.133,1.625,66.275,1.768z" />
		</g>
	</g>
</g>

<g
   aria-label="London Gate 1 20:00"
   style="font-style:normal;font-variant:normal;font-weight:bold;font-stretch:normal;font-size:42.66666794px;line-height:125%;font-family:sans-serif;-inkscape-font-specification:'sans-serif Bold';letter-spacing:0px;word-spacing:0px;fill:#ffffff;fill-opacity:1;stroke:none;stroke-width:1px;stroke-linecap:butt;stroke-linejoin:miter;stroke-opacity:1"
   id="text9535"><path
     d="m 42.728572,51.894101 h 8.020833 v 25.041667 h 14.083334 v 6.0625 H 42.728572 Z"
     style=""
     id="path9676" /><path
     d="m 80.666073,64.435768 q -2.479166,0 -3.791666,1.791666 -1.291667,1.770834 -1.291667,5.125 0,3.354167 1.291667,5.145834 1.3125,1.770833 3.791666,1.770833 2.4375,0 3.729167,-1.770833 1.291667,-1.791667 1.291667,-5.145834 0,-3.354166 -1.291667,-5.125 -1.291667,-1.791666 -3.729167,-1.791666 z m 0,-5.333334 q 6.020834,0 9.395834,3.25 3.395833,3.25 3.395833,9 0,5.750001 -3.395833,9.000001 -3.375,3.25 -9.395834,3.25 -6.041667,0 -9.458333,-3.25 -3.395834,-3.25 -3.395834,-9.000001 0,-5.75 3.395834,-9 3.416666,-3.25 9.458333,-3.25 z"
     style=""
     id="path9678" /><path
     d="m 122.35357,68.789934 v 14.208334 h -7.5 v -2.3125 -8.5625 q 0,-3.020834 -0.14583,-4.166667 -0.125,-1.145833 -0.45833,-1.6875 -0.4375,-0.729167 -1.1875,-1.125 -0.75,-0.416667 -1.70834,-0.416667 -2.33333,0 -3.66666,1.8125 -1.33334,1.791667 -1.33334,4.979167 V 82.998268 H 98.895238 V 59.664934 h 7.458332 v 3.416667 q 1.6875,-2.041667 3.58334,-3 1.89583,-0.979167 4.1875,-0.979167 4.04166,0 6.125,2.479167 2.10416,2.479167 2.10416,7.208333 z"
     style=""
     id="path9680" /><path
     d="M 145.18691,63.081601 V 50.5816 h 7.5 v 32.416668 h -7.5 v -3.375 q -1.54167,2.0625 -3.39583,3.020833 -1.85417,0.958334 -4.29167,0.958334 -4.3125,0 -7.08333,-3.416667 -2.77084,-3.4375 -2.77084,-8.833334 0,-5.395833 2.77084,-8.8125 2.77083,-3.4375 7.08333,-3.4375 2.41667,0 4.27083,0.979167 1.875,0.958333 3.41667,3 z m -4.91667,15.104167 q 2.39584,0 3.64584,-1.75 1.27083,-1.75 1.27083,-5.083334 0,-3.333333 -1.27083,-5.083333 -1.25,-1.75 -3.64584,-1.75 -2.375,0 -3.64583,1.75 -1.25,1.75 -1.25,5.083333 0,3.333334 1.25,5.083334 1.27083,1.75 3.64583,1.75 z"
     style=""
     id="path9682" /><path
     d="m 170.99941,64.435768 q -2.47917,0 -3.79167,1.791666 -1.29167,1.770834 -1.29167,5.125 0,3.354167 1.29167,5.145834 1.3125,1.770833 3.79167,1.770833 2.4375,0 3.72916,-1.770833 1.29167,-1.791667 1.29167,-5.145834 0,-3.354166 -1.29167,-5.125 -1.29166,-1.791666 -3.72916,-1.791666 z m 0,-5.333334 q 6.02083,0 9.39583,3.25 3.39583,3.25 3.39583,9 0,5.750001 -3.39583,9.000001 -3.375,3.25 -9.39583,3.25 -6.04167,0 -9.45834,-3.25 -3.39583,-3.25 -3.39583,-9.000001 0,-5.75 3.39583,-9 3.41667,-3.25 9.45834,-3.25 z"
     style=""
     id="path9684" /><path
     d="m 212.68692,68.789934 v 14.208334 h -7.5 v -2.3125 -8.5625 q 0,-3.020834 -0.14584,-4.166667 -0.125,-1.145833 -0.45833,-1.6875 -0.4375,-0.729167 -1.1875,-1.125 -0.75,-0.416667 -1.70833,-0.416667 -2.33334,0 -3.66667,1.8125 -1.33333,1.791667 -1.33333,4.979167 v 11.479167 h -7.45834 V 59.664934 h 7.45834 v 3.416667 q 1.6875,-2.041667 3.58333,-3 1.89583,-0.979167 4.1875,-0.979167 4.04167,0 6.125,2.479167 2.10417,2.479167 2.10417,7.208333 z"
     style=""
     id="path9686" /><path
     d="m 262.77025,80.685768 q -3,1.458333 -6.22917,2.1875 -3.22916,0.729167 -6.66666,0.729167 -7.77084,0 -12.3125,-4.333334 -4.54167,-4.354166 -4.54167,-11.791667 0,-7.520833 4.625,-11.833333 4.625,-4.3125 12.66667,-4.3125 3.10416,0 5.9375,0.583333 2.85416,0.583333 5.375,1.729167 v 6.4375 q -2.60417,-1.479167 -5.1875,-2.208334 -2.5625,-0.729166 -5.14584,-0.729166 -4.79166,0 -7.39583,2.6875 -2.58333,2.666667 -2.58333,7.645833 0,4.9375 2.5,7.625001 2.5,2.6875 7.10416,2.6875 1.25,0 2.3125,-0.145834 1.08334,-0.166666 1.9375,-0.5 v -6.041667 h -4.89583 v -5.375 h 12.5 z"
     style=""
     id="path9688" /><path
     d="m 279.93692,72.498268 q -2.33334,0 -3.52084,0.791667 -1.16666,0.791666 -1.16666,2.333333 0,1.416667 0.9375,2.229167 0.95833,0.791666 2.64583,0.791666 2.10417,0 3.54167,-1.5 1.4375,-1.520833 1.4375,-3.791666 v -0.854167 z m 11.39583,-2.8125 v 13.3125 h -7.52083 v -3.458333 q -1.5,2.125 -3.375,3.104166 -1.875,0.958334 -4.5625,0.958334 -3.625,0 -5.89584,-2.104167 -2.25,-2.125 -2.25,-5.5 0,-4.104167 2.8125,-6.020834 2.83334,-1.916666 8.875,-1.916666 h 4.39584 v -0.583334 q 0,-1.770833 -1.39584,-2.583333 -1.39583,-0.833333 -4.35416,-0.833333 -2.39584,0 -4.45834,0.479166 -2.0625,0.479167 -3.83333,1.4375 v -5.6875 q 2.39583,-0.583333 4.8125,-0.875 2.41667,-0.3125 4.83333,-0.3125 6.3125,0 9.10417,2.5 2.8125,2.479167 2.8125,8.083334 z"
     style=""
     id="path9690" /><path
     d="m 306.45774,53.039934 v 6.625 h 7.6875 v 5.333334 h -7.6875 v 9.895833 q 0,1.625 0.64584,2.208334 0.64583,0.5625 2.5625,0.5625 h 3.83333 v 5.333333 h -6.39583 q -4.41667,0 -6.27084,-1.833333 -1.83333,-1.854167 -1.83333,-6.270834 v -9.895833 h -3.70833 v -5.333334 h 3.70833 v -6.625 z"
     style=""
     id="path9692" /><path
     d="m 342.02025,71.269101 v 2.125 h -17.4375 q 0.27083,2.625 1.89583,3.9375 1.625,1.3125 4.54167,1.3125 2.35417,0 4.8125,-0.6875 2.47917,-0.708333 5.08333,-2.125 v 5.75 q -2.64583,1 -5.29166,1.5 -2.64584,0.520834 -5.29167,0.520834 -6.33333,0 -9.85417,-3.208334 -3.5,-3.229166 -3.5,-9.041667 0,-5.708333 3.4375,-8.979166 3.45834,-3.270834 9.5,-3.270834 5.5,0 8.79167,3.3125 3.3125,3.3125 3.3125,8.854167 z m -7.66667,-2.479167 q 0,-2.125 -1.25,-3.416666 -1.22916,-1.3125 -3.22916,-1.3125 -2.16667,0 -3.52084,1.229166 -1.35416,1.208334 -1.6875,3.5 z"
     style=""
     id="path9694" /><path
     d="m 363.89525,77.456601 h 7.08333 V 57.352434 l -7.27083,1.5 v -5.458333 l 7.22917,-1.5 h 7.625 v 25.5625 h 7.08333 v 5.541667 h -21.75 z"
     style=""
     id="path9696" /><path
     d="m 415.68692,77.102435 h 13.6875 v 5.895833 h -22.60417 v -5.895833 l 11.35417,-10.020834 q 1.52083,-1.375 2.25,-2.6875 0.72916,-1.3125 0.72916,-2.729167 0,-2.1875 -1.47916,-3.520833 -1.45834,-1.333334 -3.89584,-1.333334 -1.875,0 -4.10416,0.8125 -2.22917,0.791667 -4.77084,2.375 v -6.833333 q 2.70834,-0.895833 5.35417,-1.354167 2.64583,-0.479166 5.1875,-0.479166 5.58333,0 8.66667,2.458333 3.10416,2.458333 3.10416,6.854167 0,2.541667 -1.3125,4.75 -1.3125,2.1875 -5.52083,5.875 z"
     style=""
     id="path9698" /><path
     d="m 452.68691,67.414934 q 0,-5.833333 -1.10417,-8.208333 -1.08333,-2.395834 -3.66667,-2.395834 -2.58333,0 -3.6875,2.395834 -1.10416,2.375 -1.10416,8.208333 0,5.895834 1.10416,8.312501 1.10417,2.416666 3.6875,2.416666 2.5625,0 3.66667,-2.416666 1.10417,-2.416667 1.10417,-8.312501 z m 8.02083,0.0625 q 0,7.729167 -3.33333,11.937501 -3.33334,4.1875 -9.45834,4.1875 -6.14583,0 -9.47916,-4.1875 -3.33334,-4.208334 -3.33334,-11.937501 0,-7.75 3.33334,-11.9375 3.33333,-4.208333 9.47916,-4.208333 6.125,0 9.45834,4.208333 3.33333,4.1875 3.33333,11.9375 z"
     style=""
     id="path9700" /><path
     d="m 467.49943,59.664934 h 7.52083 v 8.0625 h -7.52083 z m 0,15.270834 h 7.52083 v 8.0625 h -7.52083 z"
     style=""
     id="path9702" /><path
     d="m 499.43691,67.414934 q 0,-5.833333 -1.10417,-8.208333 -1.08333,-2.395834 -3.66667,-2.395834 -2.58333,0 -3.6875,2.395834 -1.10416,2.375 -1.10416,8.208333 0,5.895834 1.10416,8.312501 1.10417,2.416666 3.6875,2.416666 2.5625,0 3.66667,-2.416666 1.10417,-2.416667 1.10417,-8.312501 z m 8.02083,0.0625 q 0,7.729167 -3.33333,11.937501 -3.33334,4.1875 -9.45834,4.1875 -6.14583,0 -9.47916,-4.1875 -3.33334,-4.208334 -3.33334,-11.937501 0,-7.75 3.33334,-11.9375 3.33333,-4.208333 9.47916,-4.208333 6.125,0 9.45834,4.208333 3.33333,4.1875 3.33333,11.9375 z"
     style=""
     id="path9704" /><path
     d="m 529.10359,67.414934 q 0,-5.833333 -1.10416,-8.208333 -1.08334,-2.395834 -3.66667,-2.395834 -2.58333,0 -3.6875,2.395834 -1.10417,2.375 -1.10417,8.208333 0,5.895834 1.10417,8.312501 1.10417,2.416666 3.6875,2.416666 2.5625,0 3.66667,-2.416666 1.10416,-2.416667 1.10416,-8.312501 z m 8.02084,0.0625 q 0,7.729167 -3.33334,11.937501 -3.33333,4.1875 -9.45833,4.1875 -6.14583,0 -9.47917,-4.1875 -3.33333,-4.208334 -3.33333,-11.937501 0,-7.75 3.33333,-11.9375 3.33334,-4.208333 9.47917,-4.208333 6.125,0 9.45833,4.208333 3.33334,4.1875 3.33334,11.9375 z"
     style=""
     id="path9706" /></g><g
   aria-label="Paris     Gate 3 21:10"
   style="font-style:normal;font-variant:normal;font-weight:bold;font-stretch:normal;font-size:42.66666794px;line-height:125%;font-family:sans-serif;-inkscape-font-specification:'sans-serif Bold';letter-spacing:0px;word-spacing:0px;fill:#ffffff;fill-opacity:1;stroke:none;stroke-width:1px;stroke-linecap:butt;stroke-linejoin:miter;stroke-opacity:1"
   id="text9539"><path
     d="m 43.652365,104.55042 h 13.312501 q 5.9375,0 9.104167,2.64583 3.1875,2.625 3.1875,7.5 0,4.89584 -3.1875,7.54167 -3.166667,2.625 -9.104167,2.625 h -5.291667 v 10.79167 h -8.020834 z m 8.020834,5.8125 v 8.6875 h 4.4375 q 2.333334,0 3.604167,-1.125 1.270833,-1.14583 1.270833,-3.22917 0,-2.08333 -1.270833,-3.20833 -1.270833,-1.125 -3.604167,-1.125 z"
     style=""
     id="path9645" /><path
     d="m 83.8607,125.15459 q -2.333334,0 -3.520834,0.79166 -1.166666,0.79167 -1.166666,2.33334 0,1.41666 0.9375,2.22916 0.958333,0.79167 2.645833,0.79167 2.104167,0 3.541667,-1.5 1.4375,-1.52083 1.4375,-3.79167 v -0.85416 z m 11.395833,-2.8125 v 13.3125 H 87.7357 v -3.45834 q -1.5,2.125 -3.375,3.10417 -1.875,0.95833 -4.5625,0.95833 -3.625,0 -5.895834,-2.10416 -2.25,-2.125 -2.25,-5.5 0,-4.10417 2.8125,-6.02084 2.833334,-1.91666 8.875,-1.91666 H 87.7357 v -0.58334 q 0,-1.77083 -1.395834,-2.58333 -1.395833,-0.83333 -4.354166,-0.83333 -2.395834,0 -4.458334,0.47916 -2.0625,0.47917 -3.833333,1.4375 v -5.6875 q 2.395833,-0.58333 4.8125,-0.875 2.416667,-0.3125 4.833333,-0.3125 6.312501,0 9.104167,2.5 2.8125,2.47917 2.8125,8.08334 z"
     style=""
     id="path9647" /><path
     d="m 119.56903,118.67542 q -0.97916,-0.45833 -1.95833,-0.66667 -0.95833,-0.22916 -1.9375,-0.22916 -2.875,0 -4.4375,1.85416 -1.54167,1.83334 -1.54167,5.27084 v 10.75 h -7.45833 v -23.33334 h 7.45833 v 3.83334 q 1.4375,-2.29167 3.29167,-3.33334 1.875,-1.0625 4.47917,-1.0625 0.375,0 0.8125,0.0417 0.4375,0.0208 1.27083,0.125 z"
     style=""
     id="path9649" /><path
     d="m 123.31903,112.32125 h 7.45834 v 23.33334 h -7.45834 z m 0,-9.08333 h 7.45834 v 6.08333 h -7.45834 z"
     style=""
     id="path9651" /><path
     d="m 156.21487,113.05042 v 5.66667 q -2.39583,-1 -4.625,-1.5 -2.22917,-0.5 -4.20833,-0.5 -2.125,0 -3.16667,0.54166 -1.02083,0.52084 -1.02083,1.625 0,0.89584 0.77083,1.375 0.79167,0.47917 2.8125,0.70834 l 1.3125,0.1875 q 5.72917,0.72916 7.70833,2.39583 1.97917,1.66667 1.97917,5.22917 0,3.72916 -2.75,5.60416 -2.75,1.875 -8.20833,1.875 -2.3125,0 -4.79167,-0.375 -2.45833,-0.35416 -5.0625,-1.08333 v -5.66667 q 2.22917,1.08334 4.5625,1.625 2.35417,0.54167 4.77083,0.54167 2.1875,0 3.29167,-0.60417 1.10417,-0.60416 1.10417,-1.79166 0,-1 -0.77084,-1.47917 -0.75,-0.5 -3.02083,-0.77083 l -1.3125,-0.16667 q -4.97917,-0.625 -6.97917,-2.3125 -2,-1.6875 -2,-5.125 0,-3.70833 2.54167,-5.5 2.54167,-1.79167 7.79167,-1.79167 2.0625,0 4.33333,0.3125 2.27083,0.3125 4.9375,0.97917 z"
     style=""
     id="path9653" /><path
     d="m 265.8607,133.34209 q -3,1.45833 -6.22917,2.1875 -3.22916,0.72916 -6.66666,0.72916 -7.77084,0 -12.3125,-4.33333 -4.54167,-4.35417 -4.54167,-11.79167 0,-7.52083 4.625,-11.83333 4.625,-4.3125 12.66667,-4.3125 3.10416,0 5.9375,0.58333 2.85416,0.58334 5.375,1.72917 v 6.4375 q -2.60417,-1.47917 -5.1875,-2.20833 -2.5625,-0.72917 -5.14584,-0.72917 -4.79166,0 -7.39583,2.6875 -2.58333,2.66667 -2.58333,7.64583 0,4.9375 2.5,7.625 2.5,2.6875 7.10416,2.6875 1.25,0 2.3125,-0.14583 1.08334,-0.16667 1.9375,-0.5 v -6.04167 h -4.89583 v -5.375 h 12.5 z"
     style=""
     id="path9655" /><path
     d="m 283.02737,125.15459 q -2.33334,0 -3.52084,0.79166 -1.16666,0.79167 -1.16666,2.33334 0,1.41666 0.9375,2.22916 0.95833,0.79167 2.64583,0.79167 2.10417,0 3.54167,-1.5 1.4375,-1.52083 1.4375,-3.79167 v -0.85416 z m 11.39583,-2.8125 v 13.3125 h -7.52083 v -3.45834 q -1.5,2.125 -3.375,3.10417 -1.875,0.95833 -4.5625,0.95833 -3.625,0 -5.89584,-2.10416 -2.25,-2.125 -2.25,-5.5 0,-4.10417 2.8125,-6.02084 2.83334,-1.91666 8.875,-1.91666 h 4.39584 v -0.58334 q 0,-1.77083 -1.39584,-2.58333 -1.39583,-0.83333 -4.35416,-0.83333 -2.39584,0 -4.45834,0.47916 -2.0625,0.47917 -3.83333,1.4375 v -5.6875 q 2.39583,-0.58333 4.8125,-0.875 2.41667,-0.3125 4.83333,-0.3125 6.3125,0 9.10417,2.5 2.8125,2.47917 2.8125,8.08334 z"
     style=""
     id="path9657" /><path
     d="m 309.54821,105.69625 v 6.625 h 7.6875 v 5.33334 h -7.6875 v 9.89583 q 0,1.625 0.64583,2.20833 0.64584,0.5625 2.5625,0.5625 h 3.83334 v 5.33334 h -6.39584 q -4.41666,0 -6.27083,-1.83334 -1.83333,-1.85416 -1.83333,-6.27083 v -9.89583 h -3.70834 v -5.33334 h 3.70834 v -6.625 z"
     style=""
     id="path9659" /><path
     d="m 345.1107,123.92542 v 2.125 h -17.4375 q 0.27083,2.625 1.89583,3.9375 1.625,1.3125 4.54167,1.3125 2.35417,0 4.8125,-0.6875 2.47917,-0.70833 5.08333,-2.125 v 5.75 q -2.64583,1 -5.29166,1.5 -2.64584,0.52083 -5.29167,0.52083 -6.33333,0 -9.85417,-3.20833 -3.5,-3.22917 -3.5,-9.04167 0,-5.70833 3.4375,-8.97916 3.45834,-3.27084 9.5,-3.27084 5.5,0 8.79167,3.3125 3.3125,3.3125 3.3125,8.85417 z m -7.66667,-2.47917 q 0,-2.125 -1.25,-3.41666 -1.22916,-1.3125 -3.22916,-1.3125 -2.16667,0 -3.52084,1.22916 -1.35416,1.20834 -1.6875,3.5 z"
     style=""
     id="path9661" /><path
     d="m 381.8607,118.88375 q 3.14583,0.8125 4.77083,2.83334 1.64584,2 1.64584,5.10416 0,4.625 -3.54167,7.04167 -3.54167,2.39583 -10.33333,2.39583 -2.39584,0 -4.8125,-0.39583 -2.39584,-0.375 -4.75,-1.14583 v -6.1875 q 2.25,1.125 4.45833,1.70833 2.22917,0.5625 4.375,0.5625 3.1875,0 4.875,-1.10417 1.70833,-1.10416 1.70833,-3.16666 0,-2.125 -1.75,-3.20834 -1.72916,-1.10416 -5.125,-1.10416 h -3.20833 v -5.16667 h 3.375 q 3.02083,0 4.5,-0.9375 1.47917,-0.95833 1.47917,-2.89583 0,-1.79167 -1.4375,-2.77084 -1.4375,-0.97916 -4.0625,-0.97916 -1.9375,0 -3.91667,0.4375 -1.97917,0.4375 -3.9375,1.29166 v -5.875 q 2.375,-0.66666 4.70833,-1 2.33334,-0.33333 4.58334,-0.33333 6.0625,0 9.0625,2 3.02083,1.97917 3.02083,5.97917 0,2.72916 -1.4375,4.47916 -1.4375,1.72917 -4.25,2.4375 z"
     style=""
     id="path9663" /><path
     d="m 418.77737,129.75875 h 13.6875 v 5.89584 H 409.8607 v -5.89584 l 11.35417,-10.02083 q 1.52083,-1.375 2.25,-2.6875 0.72916,-1.3125 0.72916,-2.72917 0,-2.1875 -1.47916,-3.52083 -1.45834,-1.33333 -3.89584,-1.33333 -1.875,0 -4.10416,0.8125 -2.22917,0.79166 -4.77084,2.375 v -6.83334 q 2.70834,-0.89583 5.35417,-1.35416 2.64583,-0.47917 5.1875,-0.47917 5.58333,0 8.66667,2.45833 3.10416,2.45834 3.10416,6.85417 0,2.54167 -1.3125,4.75 -1.3125,2.1875 -5.52083,5.875 z"
     style=""
     id="path9665" /><path
     d="m 441.15239,130.11292 h 7.08333 v -20.10417 l -7.27083,1.5 v -5.45833 l 7.22916,-1.5 h 7.625 v 25.5625 h 7.08334 v 5.54167 h -21.75 z"
     style=""
     id="path9667" /><path
     d="m 470.58988,112.32125 h 7.52083 v 8.0625 h -7.52083 z m 0,15.27084 h 7.52083 v 8.0625 h -7.52083 z"
     style=""
     id="path9669" /><path
     d="m 487.90239,130.11292 h 7.08333 v -20.10417 l -7.27083,1.5 v -5.45833 l 7.22916,-1.5 h 7.625 v 25.5625 h 7.08334 v 5.54167 h -21.75 z"
     style=""
     id="path9671" /><path
     d="m 532.19404,120.07125 q 0,-5.83333 -1.10416,-8.20833 -1.08334,-2.39583 -3.66667,-2.39583 -2.58333,0 -3.6875,2.39583 -1.10417,2.375 -1.10417,8.20833 0,5.89584 1.10417,8.3125 1.10417,2.41667 3.6875,2.41667 2.5625,0 3.66667,-2.41667 1.10416,-2.41666 1.10416,-8.3125 z m 8.02084,0.0625 q 0,7.72917 -3.33334,11.9375 -3.33333,4.1875 -9.45833,4.1875 -6.14583,0 -9.47917,-4.1875 -3.33333,-4.20833 -3.33333,-11.9375 0,-7.75 3.33333,-11.9375 3.33334,-4.20833 9.47917,-4.20833 6.125,0 9.45833,4.20833 3.33334,4.1875 3.33334,11.9375 z"
     style=""
     id="path9673" /></g><g
   aria-label="Zürich   Gate 5 21:15"
   style="font-style:normal;font-variant:normal;font-weight:bold;font-stretch:normal;font-size:42.66666794px;line-height:125%;font-family:sans-serif;-inkscape-font-specification:'sans-serif Bold';letter-spacing:0px;word-spacing:0px;fill:#ffffff;fill-opacity:1;stroke:none;stroke-width:1px;stroke-linecap:butt;stroke-linejoin:miter;stroke-opacity:1"
   id="text9543"><path
     d="m 43.979124,156.28295 h 26.145834 v 4.85416 l -16.687501,20.18751 h 17.166667 v 6.0625 H 43.499957 v -4.85417 l 16.6875,-20.1875 H 43.979124 Z"
     style=""
     id="path9612" /><path
     d="m 75.833291,178.30378 v -14.25 h 7.500001 v 2.33333 q 0,1.89584 -0.02083,4.77084 -0.02083,2.85417 -0.02083,3.8125 0,2.8125 0.145833,4.0625 0.145834,1.22917 0.5,1.79167 0.458334,0.72916 1.1875,1.125 0.75,0.39583 1.708334,0.39583 2.333333,0 3.666667,-1.79167 1.333333,-1.79166 1.333333,-4.97916 v -11.52084 h 7.458334 v 23.33334 h -7.458334 v -3.375 q -1.6875,2.04166 -3.583333,3.02083 -1.875001,0.95833 -4.145834,0.95833 -4.041667,0 -6.166667,-2.47916 -2.104167,-2.47917 -2.104167,-7.20834 z m 5.187501,-23.9375 h 4.895833 v 5.125 h -4.895833 z m 8.229167,0 h 4.895833 v 5.125 h -4.895833 z"
     style=""
     id="path9614" /><path
     d="m 123.83329,170.40795 q -0.97916,-0.45834 -1.95833,-0.66667 -0.95833,-0.22917 -1.9375,-0.22917 -2.875,0 -4.4375,1.85417 -1.54167,1.83334 -1.54167,5.27084 v 10.75 h -7.45833 v -23.33334 h 7.45833 v 3.83333 q 1.4375,-2.29166 3.29167,-3.33333 1.875,-1.0625 4.47917,-1.0625 0.375,0 0.8125,0.0417 0.4375,0.0208 1.27083,0.125 z"
     style=""
     id="path9616" /><path
     d="m 127.5833,164.05378 h 7.45833 v 23.33334 h -7.45833 z m 0,-9.08333 h 7.45833 v 6.08333 h -7.45833 z"
     style=""
     id="path9618" /><path
     d="m 161.10413,164.78295 v 6.08333 q -1.52084,-1.04167 -3.0625,-1.54167 -1.52084,-0.5 -3.16667,-0.5 -3.125,0 -4.875,1.83334 -1.72917,1.8125 -1.72917,5.08333 0,3.27084 1.72917,5.10417 1.75,1.8125 4.875,1.8125 1.75,0 3.3125,-0.52083 1.58333,-0.52084 2.91667,-1.54167 v 6.10417 q -1.75,0.64583 -3.5625,0.95833 -1.79167,0.33333 -3.60417,0.33333 -6.3125,0 -9.875,-3.22916 -3.5625,-3.25 -3.5625,-9.02084 0,-5.77083 3.5625,-9 3.5625,-3.25 9.875,-3.25 1.83333,0 3.60417,0.33333 1.79166,0.3125 3.5625,0.95834 z"
     style=""
     id="path9620" /><path
     d="m 191.04163,173.17878 v 14.20834 h -7.5 v -2.3125 -8.52084 q 0,-3.0625 -0.14583,-4.20833 -0.125,-1.14584 -0.45834,-1.6875 -0.4375,-0.72917 -1.1875,-1.125 -0.75,-0.41667 -1.70833,-0.41667 -2.33333,0 -3.66667,1.8125 -1.33333,1.79167 -1.33333,4.97917 v 11.47917 h -7.45833 v -32.41667 h 7.45833 v 12.5 q 1.6875,-2.04167 3.58333,-3 1.89584,-0.97917 4.1875,-0.97917 4.04167,0 6.125,2.47917 2.10417,2.47916 2.10417,7.20833 z"
     style=""
     id="path9622" /><path
     d="m 270.79163,185.07462 q -3,1.45833 -6.22916,2.1875 -3.22917,0.72916 -6.66667,0.72916 -7.77083,0 -12.3125,-4.33333 -4.54167,-4.35417 -4.54167,-11.79167 0,-7.52083 4.625,-11.83333 4.625,-4.3125 12.66667,-4.3125 3.10417,0 5.9375,0.58333 2.85417,0.58333 5.375,1.72917 v 6.4375 q -2.60417,-1.47917 -5.1875,-2.20834 -2.5625,-0.72916 -5.14583,-0.72916 -4.79167,0 -7.39584,2.6875 -2.58333,2.66666 -2.58333,7.64583 0,4.9375 2.5,7.625 2.5,2.6875 7.10417,2.6875 1.25,0 2.3125,-0.14583 1.08333,-0.16667 1.9375,-0.5 v -6.04167 h -4.89584 v -5.375 h 12.5 z"
     style=""
     id="path9624" /><path
     d="m 287.9583,176.88712 q -2.33333,0 -3.52083,0.79166 -1.16667,0.79167 -1.16667,2.33334 0,1.41666 0.9375,2.22916 0.95833,0.79167 2.64583,0.79167 2.10417,0 3.54167,-1.5 1.4375,-1.52083 1.4375,-3.79167 v -0.85416 z m 11.39583,-2.8125 v 13.3125 h -7.52083 v -3.45834 q -1.5,2.125 -3.375,3.10417 -1.875,0.95833 -4.5625,0.95833 -3.625,0 -5.89583,-2.10416 -2.25,-2.125 -2.25,-5.5 0,-4.10417 2.8125,-6.02084 2.83333,-1.91666 8.875,-1.91666 h 4.39583 v -0.58334 q 0,-1.77083 -1.39583,-2.58333 -1.39584,-0.83334 -4.35417,-0.83334 -2.39583,0 -4.45833,0.47917 -2.0625,0.47917 -3.83334,1.4375 v -5.6875 q 2.39584,-0.58333 4.8125,-0.875 2.41667,-0.3125 4.83334,-0.3125 6.3125,0 9.10416,2.5 2.8125,2.47917 2.8125,8.08334 z"
     style=""
     id="path9626" /><path
     d="m 314.47914,157.42878 v 6.625 h 7.6875 v 5.33333 h -7.6875 v 9.89584 q 0,1.625 0.64584,2.20833 0.64583,0.5625 2.5625,0.5625 h 3.83333 v 5.33334 h -6.39583 q -4.41667,0 -6.27084,-1.83334 -1.83333,-1.85416 -1.83333,-6.27083 v -9.89584 h -3.70833 v -5.33333 h 3.70833 v -6.625 z"
     style=""
     id="path9628" /><path
     d="m 350.04163,175.65795 v 2.125 h -17.4375 q 0.27084,2.625 1.89584,3.9375 1.625,1.3125 4.54166,1.3125 2.35417,0 4.8125,-0.6875 2.47917,-0.70833 5.08334,-2.125 v 5.75 q -2.64584,1 -5.29167,1.5 -2.64583,0.52083 -5.29167,0.52083 -6.33333,0 -9.85416,-3.20833 -3.5,-3.22917 -3.5,-9.04167 0,-5.70833 3.4375,-8.97917 3.45833,-3.27083 9.5,-3.27083 5.5,0 8.79166,3.3125 3.3125,3.3125 3.3125,8.85417 z m -7.66666,-2.47917 q 0,-2.125 -1.25,-3.41667 -1.22917,-1.3125 -3.22917,-1.3125 -2.16667,0 -3.52083,1.22917 -1.35417,1.20833 -1.6875,3.5 z"
     style=""
     id="path9630" /><path
     d="m 371.43747,156.28295 h 19.9375 v 5.89583 H 377.8333 v 4.8125 q 0.91667,-0.25 1.83333,-0.375 0.9375,-0.14583 1.9375,-0.14583 5.6875,0 8.85417,2.85416 3.16667,2.83334 3.16667,7.91667 0,5.04167 -3.45834,7.89584 -3.4375,2.85416 -9.5625,2.85416 -2.64583,0 -5.25,-0.52083 -2.58333,-0.5 -5.14583,-1.54167 v -6.3125 q 2.54167,1.45834 4.8125,2.1875 2.29167,0.72917 4.3125,0.72917 2.91667,0 4.58333,-1.41667 1.6875,-1.4375 1.6875,-3.875 0,-2.45833 -1.6875,-3.875 -1.66666,-1.41666 -4.58333,-1.41666 -1.72917,0 -3.6875,0.45833 -1.95833,0.4375 -4.20833,1.375 z"
     style=""
     id="path9632" /><path
     d="m 423.7083,181.49128 h 13.6875 v 5.89584 h -22.60417 v -5.89584 l 11.35417,-10.02083 q 1.52083,-1.375 2.25,-2.6875 0.72917,-1.3125 0.72917,-2.72917 0,-2.1875 -1.47917,-3.52083 -1.45833,-1.33334 -3.89583,-1.33334 -1.875,0 -4.10417,0.8125 -2.22917,0.79167 -4.77083,2.375 v -6.83333 q 2.70833,-0.89583 5.35416,-1.35417 2.64584,-0.47916 5.1875,-0.47916 5.58334,0 8.66667,2.45833 3.10417,2.45833 3.10417,6.85417 0,2.54166 -1.3125,4.75 -1.3125,2.1875 -5.52084,5.875 z"
     style=""
     id="path9634" /><path
     d="m 446.08329,181.84545 h 7.08333 v -20.10417 l -7.27083,1.5 v -5.45833 l 7.22917,-1.5 h 7.625 v 25.5625 h 7.08333 v 5.54167 h -21.75 z"
     style=""
     id="path9636" /><path
     d="m 475.52081,164.05378 h 7.52083 v 8.0625 h -7.52083 z m 0,15.27084 h 7.52083 v 8.0625 h -7.52083 z"
     style=""
     id="path9638" /><path
     d="m 492.83332,181.84545 h 7.08333 v -20.10417 l -7.27083,1.5 v -5.45833 l 7.22917,-1.5 h 7.625 v 25.5625 h 7.08333 v 5.54167 h -21.75 z"
     style=""
     id="path9640" /><path
     d="m 522.02081,156.28295 h 19.9375 v 5.89583 h -13.54167 v 4.8125 q 0.91667,-0.25 1.83334,-0.375 0.9375,-0.14583 1.9375,-0.14583 5.6875,0 8.85416,2.85416 3.16667,2.83334 3.16667,7.91667 0,5.04167 -3.45833,7.89584 -3.4375,2.85416 -9.5625,2.85416 -2.64584,0 -5.25,-0.52083 -2.58334,-0.5 -5.14584,-1.54167 v -6.3125 q 2.54167,1.45834 4.8125,2.1875 2.29167,0.72917 4.3125,0.72917 2.91667,0 4.58334,-1.41667 1.6875,-1.4375 1.6875,-3.875 0,-2.45833 -1.6875,-3.875 -1.66667,-1.41666 -4.58334,-1.41666 -1.72916,0 -3.6875,0.45833 -1.95833,0.4375 -4.20833,1.375 z"
     style=""
     id="path9642" /></g><g
   aria-label="..............................."
   style="font-style:normal;font-variant:normal;font-weight:bold;font-stretch:normal;font-size:42.66666794px;line-height:125%;font-family:sans-serif;-inkscape-font-specification:'sans-serif Bold';letter-spacing:0px;word-spacing:0px;fill:#ffffff;fill-opacity:1;stroke:none;stroke-width:1px;stroke-linecap:butt;stroke-linejoin:miter;stroke-opacity:1"
   id="text9547"><path
     d="m 46.861251,230.13335 h 7.5 v 8.0625 h -7.5 z"
     style=""
     id="path9549" /><path
     d="m 63.111251,230.13335 h 7.5 v 8.0625 h -7.5 z"
     style=""
     id="path9551" /><path
     d="m 79.361251,230.13335 h 7.5 v 8.0625 h -7.5 z"
     style=""
     id="path9553" /><path
     d="m 95.611251,230.13335 h 7.499999 v 8.0625 h -7.499999 z"
     style=""
     id="path9555" /><path
     d="m 111.86125,230.13335 h 7.5 v 8.0625 h -7.5 z"
     style=""
     id="path9557" /><path
     d="m 128.11125,230.13335 h 7.5 v 8.0625 h -7.5 z"
     style=""
     id="path9559" /><path
     d="m 144.36125,230.13335 h 7.5 v 8.0625 h -7.5 z"
     style=""
     id="path9561" /><path
     d="m 160.61125,230.13335 h 7.5 v 8.0625 h -7.5 z"
     style=""
     id="path9563" /><path
     d="m 176.86125,230.13335 h 7.5 v 8.0625 h -7.5 z"
     style=""
     id="path9565" /><path
     d="m 193.11125,230.13335 h 7.5 v 8.0625 h -7.5 z"
     style=""
     id="path9567" /><path
     d="m 209.36125,230.13335 h 7.5 v 8.0625 h -7.5 z"
     style=""
     id="path9569" /><path
     d="m 225.61125,230.13335 h 7.5 v 8.0625 h -7.5 z"
     style=""
     id="path9571" /><path
     d="m 241.86125,230.13335 h 7.5 v 8.0625 h -7.5 z"
     style=""
     id="path9573" /><path
     d="m 258.11125,230.13335 h 7.5 v 8.0625 h -7.5 z"
     style=""
     id="path9575" /><path
     d="m 274.36125,230.13335 h 7.5 v 8.0625 h -7.5 z"
     style=""
     id="path9577" /><path
     d="m 290.61125,230.13335 h 7.5 v 8.0625 h -7.5 z"
     style=""
     id="path9579" /><path
     d="m 306.86125,230.13335 h 7.5 v 8.0625 h -7.5 z"
     style=""
     id="path9581" /><path
     d="m 323.11125,230.13335 h 7.5 v 8.0625 h -7.5 z"
     style=""
     id="path9583" /><path
     d="m 339.36125,230.13335 h 7.5 v 8.0625 h -7.5 z"
     style=""
     id="path9585" /><path
     d="m 355.61125,230.13335 h 7.5 v 8.0625 h -7.5 z"
     style=""
     id="path9587" /><path
     d="m 371.86125,230.13335 h 7.5 v 8.0625 h -7.5 z"
     style=""
     id="path9589" /><path
     d="m 388.11125,230.13335 h 7.5 v 8.0625 h -7.5 z"
     style=""
     id="path9591" /><path
     d="m 404.36125,230.13335 h 7.5 v 8.0625 h -7.5 z"
     style=""
     id="path9593" /><path
     d="m 420.61125,230.13335 h 7.5 v 8.0625 h -7.5 z"
     style=""
     id="path9595" /><path
     d="m 436.86125,230.13335 h 7.5 v 8.0625 h -7.5 z"
     style=""
     id="path9597" /><path
     d="m 453.11125,230.13335 h 7.5 v 8.0625 h -7.5 z"
     style=""
     id="path9599" /><path
     d="m 469.36125,230.13335 h 7.5 v 8.0625 h -7.5 z"
     style=""
     id="path9601" /><path
     d="m 485.61125,230.13335 h 7.5 v 8.0625 h -7.5 z"
     style=""
     id="path9603" /><path
     d="m 501.86125,230.13335 h 7.5 v 8.0625 h -7.5 z"
     style=""
     id="path9605" /><path
     d="m 518.11125,230.13335 h 7.5 v 8.0625 h -7.5 z"
     style=""
     id="path9607" /><path
     d="m 534.36125,230.13335 h 7.5 v 8.0625 h -7.5 z"
     style=""
     id="path9609" /></g></svg>