<?xml version="1.0" encoding="utf-8"?>
<!-- Generator: Adobe Illustrator 15.0.0, SVG Export Plug-In . SVG Version: 6.00 Build 0)  -->
<!DOCTYPE svg PUBLIC "-//W3C//DTD SVG 1.1//EN" "http://www.w3.org/Graphics/SVG/1.1/DTD/svg11.dtd">
<svg version="1.1" xmlns="http://www.w3.org/2000/svg" xmlns:xlink="http://www.w3.org/1999/xlink" x="0px" y="0px" width="580px"
	 height="580px" viewBox="0 0 580 580" enable-background="new 0 0 580 580" xml:space="preserve">
<g id="Layer_1">
	<g id="Layer_2">
		<g id="g1327">
			<path id="path1329" fill="#111111" stroke="#EEEEEE" stroke-width="3.408" d="M66.275,1.768
				c-41.335,0-64.571,21.371-64.571,65.036v450.123c0,40.844,20.895,62.229,62.192,62.229h452.024
				c41.307,0,62.229-20.315,62.229-62.229V66.804c0-42.602-20.923-65.036-63.521-65.036C514.625,1.768,66.133,1.625,66.275,1.768z"
				/>
		</g>
	</g>
</g>
<g id="Layer_2_1_">
	<g>
		<polygon fill="#FFFFFF" points="518.5,49.5 468.5,49.5 468.5,29.5 451.5,29.5 451.5,49.5 128.5,49.5 128.5,29.5 111.5,29.5 
			111.5,49.5 61.5,49.5 61.5,128.5 111.5,128.5 111.5,443.5 61.5,443.5 61.5,522.5 111.5,522.5 111.5,550.5 128.5,550.5 
			128.5,522.5 451.5,522.5 451.5,550.5 468.5,550.5 468.5,522.5 518.5,522.5 518.5,443.5 468.5,443.5 468.5,407.5 451.5,407.5 
			451.5,443.5 363.5,443.5 363.5,510.5 217.5,510.5 217.5,443.5 128.5,443.5 128.5,128.5 217.5,128.5 217.5,76.5 363.5,76.5 
			363.5,128.5 451.5,128.5 451.5,194.52 468.5,177.418 468.5,128.5 518.5,128.5 		"/>
		<path fill="#FFFFFF" d="M357.5,82.5h-134v46v315v61h134v-61v-42h94h17h26V159.773l-26,26.156l-17,17.102l-94,94.563V128.5V82.5z"
			/>
	</g>
</g>
</svg>
