<?xml version="1.0" encoding="utf-8"?>
<!-- Generator: Adobe Illustrator 15.0.0, SVG Export Plug-In . SVG Version: 6.00 Build 0)  -->
<!DOCTYPE svg PUBLIC "-//W3C//DTD SVG 1.1//EN" "http://www.w3.org/Graphics/SVG/1.1/DTD/svg11.dtd">
<svg version="1.1" xmlns="http://www.w3.org/2000/svg" xmlns:xlink="http://www.w3.org/1999/xlink" x="0px" y="0px" width="580px"
	 height="580px" viewBox="0 0 580 580" enable-background="new 0 0 580 580" xml:space="preserve">
<g id="Layer_2">
	<g id="g1327">
		<path id="path1329" fill="#111111" stroke="#EEEEEE" stroke-width="3.408" d="M66.275,1.768
			c-41.335,0-64.571,21.371-64.571,65.036v450.123c0,40.844,20.895,62.229,62.192,62.229H515.92
			c41.307,0,62.229-20.315,62.229-62.229V66.804c0-42.601-20.923-65.036-63.521-65.036C514.624,1.768,66.133,1.625,66.275,1.768z"/>
	</g>
</g>
<g id="Layer_3">
	<path fill="#FFFFFF" d="M374.523,266.413h-37.968V145.138l181.282-86.093l-11.184-23.55L62.162,246.588l11.185,23.55
		l254.52-120.874v117.148h-36.108c-41.595,0-75.315,33.72-75.315,75.317v127.458c0,41.596,33.721,75.316,75.315,75.316h82.766
		c41.597,0,75.318-33.721,75.318-75.316V341.73C449.842,300.133,416.12,266.413,374.523,266.413z M432.46,388.076
		c0,31.542-25.568,57.109-57.107,57.109h-84.421c-31.54,0-57.108-25.567-57.108-57.109v-44.691c0-31.54,25.568-57.108,57.108-57.108
		h84.421c31.539,0,57.107,25.568,57.107,57.108V388.076z"/>
</g>
</svg>
