<?xml version="1.0" encoding="utf-8"?>
<!-- Generator: Adobe Illustrator 15.0.0, SVG Export Plug-In . SVG Version: 6.00 Build 0)  -->
<!DOCTYPE svg PUBLIC "-//W3C//DTD SVG 1.1//EN" "http://www.w3.org/Graphics/SVG/1.1/DTD/svg11.dtd">
<svg version="1.1" id="Layer_1" xmlns="http://www.w3.org/2000/svg" xmlns:xlink="http://www.w3.org/1999/xlink" x="0px" y="0px"
	 width="580px" height="580px" viewBox="0 0 580 580" enable-background="new 0 0 580 580" xml:space="preserve">
<g id="Layer_2_1_">
	<g id="Layer_2">
		<g id="g1327">
			<path id="path1329" fill="#111111" stroke="#EEEEEE" stroke-width="3.408" d="M66.275,1.768
				c-41.335,0-64.571,21.371-64.571,65.036v450.123c0,40.844,20.896,62.229,62.192,62.229h452.024
				c41.307,0,62.229-20.314,62.229-62.229V66.804c0-42.603-20.923-65.036-63.521-65.036C514.625,1.768,66.133,1.625,66.275,1.768z"
				/>
		</g>
	</g>
</g>
<g id="Layer_1_1_">
	<g>
		<path fill="#FFFFFF" d="M275.412,68.011h-12v35.749H132.508V68.011h-12v35.749H76.466v5h44.042v47.496H76.466v5h44.042v47.497
			H76.466v5h44.042v47.496H76.466v5h44.042v47.497H76.466v5h44.042v47.498H76.466v5h44.042v47.496H76.466v5h44.042v47.498H76.466v5
			h44.042v35.748h12V476.24h130.904v35.748h12V476.24h44.042v-5h-44.042v-47.498h44.042v-5h-44.042v-47.496h44.042v-5h-44.042
			v-47.498h44.042v-5h-44.042v-47.497h44.042v-5h-44.042v-47.496h44.042v-5h-44.042v-47.497h44.042v-5h-44.042V108.76h44.042v-5
			h-44.042V68.011z M263.412,471.24H132.508v-47.498h130.904V471.24z M263.412,418.742H132.508v-47.496h130.904V418.742z
			 M263.412,366.246H132.508v-47.498h130.904V366.246z M263.412,313.748H132.508v-47.497h130.904V313.748z M263.412,261.251H132.508
			v-47.496h130.904V261.251z M263.412,208.755H132.508v-47.497h130.904V208.755z M263.412,156.258H132.508V108.76h130.904V156.258z"
			/>
		<rect x="389.54" y="106.26" fill="#FFFFFF" width="113.994" height="209.986"/>
	</g>
</g>
</svg>
