<?xml version="1.0" encoding="UTF-8" standalone="no"?>
<!-- Generator: Adobe Illustrator 15.0.0, SVG Export Plug-In . SVG Version: 6.00 Build 0)  -->

<svg
   xmlns:dc="http://purl.org/dc/elements/1.1/"
   xmlns:cc="http://creativecommons.org/ns#"
   xmlns:rdf="http://www.w3.org/1999/02/22-rdf-syntax-ns#"
   xmlns:svg="http://www.w3.org/2000/svg"
   xmlns="http://www.w3.org/2000/svg"
   xmlns:sodipodi="http://sodipodi.sourceforge.net/DTD/sodipodi-0.dtd"
   xmlns:inkscape="http://www.inkscape.org/namespaces/inkscape"
   version="1.1"
   x="0px"
   y="0px"
   width="580px"
   height="580px"
   viewBox="0 0 580 580"
   enable-background="new 0 0 580 580"
   xml:space="preserve"
   id="svg845"
   sodipodi:docname="heliport.svg"
   inkscape:version="0.92.3 (2405546, 2018-03-11)"><metadata
   id="metadata851"><rdf:RDF><cc:Work
       rdf:about=""><dc:format>image/svg+xml</dc:format><dc:type
         rdf:resource="http://purl.org/dc/dcmitype/StillImage" /></cc:Work></rdf:RDF></metadata><defs
   id="defs849" /><sodipodi:namedview
   pagecolor="#ffffff"
   bordercolor="#666666"
   borderopacity="1"
   objecttolerance="10"
   gridtolerance="10"
   guidetolerance="10"
   inkscape:pageopacity="0"
   inkscape:pageshadow="2"
   inkscape:window-width="1357"
   inkscape:window-height="763"
   id="namedview847"
   showgrid="false"
   inkscape:zoom="0.97035431"
   inkscape:cx="290"
   inkscape:cy="290"
   inkscape:window-x="208"
   inkscape:window-y="208"
   inkscape:window-maximized="0"
   inkscape:current-layer="svg845" />
<g
   id="Layer_1">
	<g
   id="Layer_2">
		<g
   id="g1327">
			<path
   id="path1329"
   fill="#111111"
   stroke="#EEEEEE"
   stroke-width="3.408"
   d="M66.275,1.768     c-41.335,0-64.571,21.371-64.571,65.036v450.123c0,40.844,20.895,62.229,62.192,62.229H515.92     c41.307,0,62.229-20.315,62.229-62.229V66.804c0-42.601-20.924-65.036-63.521-65.036C514.624,1.768,66.133,1.625,66.275,1.768z" />
		</g>
	</g>
</g>
<g
   id="Layer_2_1_"
   transform="matrix(0.59991432,0,0,0.59991432,27.646812,-21.356192)">
	<g
   id="g842">
		<path
   d="M 520.153,397.054 H 268.14 c -43.598,0 -43.598,58.594 0,58.594 h 252.014 c 42.279,-0.001 42.279,-58.594 -10e-4,-58.594 z"
   id="path838"
   inkscape:connector-curvature="0"
   style="fill:#ffffff" />
		<path
   d="m 245.047,297.652 14.515,36.622 c 3.11,11.51 12.441,25.112 31.104,25.112 h 225.395 c 25.845,-0.126 43.392,-21.14 33.021,-45.155 l -28.929,-70.41 c -10.37,-25.653 -32.748,-49.752 -72.932,-49.752 H 342.62 V 143.71 h 29.298 c 1.861,4.682 6.21,8.371 13.074,8.371 h 145.304 c 19.357,0 19.357,-27.728 0,-27.728 H 384.992 c -6.606,0 -10.886,3.417 -12.857,7.848 h -82.217 c -2.026,-4.431 -6.425,-7.848 -13.216,-7.848 H 133.035 c -20.751,0 -20.461,27.728 0,27.728 h 143.667 c 7.055,0 11.526,-3.688 13.438,-8.371 h 29.984 v 50.359 H 138.049 c -8.208,-21.383 -28.92,-36.567 -53.19,-36.567 -31.461,0 -56.97,25.506 -56.97,56.971 0,31.461 25.508,56.969 56.97,56.969 17.423,0 33.01,-7.831 43.46,-20.156 z M 466.922,219.26 c 12.023,2.899 24.031,13.646 31.945,31.384 l 12.28,28.655 H 466.921 V 219.26 Z m -61.992,-2.473 h 38.362 v 62.254 H 404.93 Z m -61.96,0 h 38.878 v 62.254 H 342.97 Z M 84.859,250.724 c -20.022,0 -36.254,-16.232 -36.254,-36.252 0,-20.024 16.231,-36.254 36.254,-36.254 12.455,0 23.44,6.283 29.967,15.851 H 86.777 c -22.924,0 -27.836,29.831 -7.673,37.667 l 28.192,11.199 c -6.172,4.873 -13.962,7.789 -22.437,7.789 z"
   id="path840"
   inkscape:connector-curvature="0"
   style="fill:#ffffff" />
	</g>
</g>
<g
   transform="matrix(-0.59991432,0,0,0.59991432,542.54669,248.64827)"
   id="g4578">
	<g
   id="g4576">
		<path
   style="fill:#ffffff"
   inkscape:connector-curvature="0"
   id="path4572"
   d="M 520.153,397.054 H 268.14 c -43.598,0 -43.598,58.594 0,58.594 h 252.014 c 42.279,-0.001 42.279,-58.594 -10e-4,-58.594 z" />
		<path
   style="fill:#ffffff"
   inkscape:connector-curvature="0"
   id="path4574"
   d="m 245.047,297.652 14.515,36.622 c 3.11,11.51 12.441,25.112 31.104,25.112 h 225.395 c 25.845,-0.126 43.392,-21.14 33.021,-45.155 l -28.929,-70.41 c -10.37,-25.653 -32.748,-49.752 -72.932,-49.752 H 342.62 V 143.71 h 29.298 c 1.861,4.682 6.21,8.371 13.074,8.371 h 145.304 c 19.357,0 19.357,-27.728 0,-27.728 H 384.992 c -6.606,0 -10.886,3.417 -12.857,7.848 h -82.217 c -2.026,-4.431 -6.425,-7.848 -13.216,-7.848 H 133.035 c -20.751,0 -20.461,27.728 0,27.728 h 143.667 c 7.055,0 11.526,-3.688 13.438,-8.371 h 29.984 v 50.359 H 138.049 c -8.208,-21.383 -28.92,-36.567 -53.19,-36.567 -31.461,0 -56.97,25.506 -56.97,56.971 0,31.461 25.508,56.969 56.97,56.969 17.423,0 33.01,-7.831 43.46,-20.156 z M 466.922,219.26 c 12.023,2.899 24.031,13.646 31.945,31.384 l 12.28,28.655 H 466.921 V 219.26 Z m -61.992,-2.473 h 38.362 v 62.254 H 404.93 Z m -61.96,0 h 38.878 v 62.254 H 342.97 Z M 84.859,250.724 c -20.022,0 -36.254,-16.232 -36.254,-36.252 0,-20.024 16.231,-36.254 36.254,-36.254 12.455,0 23.44,6.283 29.967,15.851 H 86.777 c -22.924,0 -27.836,29.831 -7.673,37.667 l 28.192,11.199 c -6.172,4.873 -13.962,7.789 -22.437,7.789 z" />
	</g>
</g></svg>