<?xml version="1.0" encoding="utf-8"?>
<!-- Generator: Adobe Illustrator 15.0.0, SVG Export Plug-In . SVG Version: 6.00 Build 0)  -->
<!DOCTYPE svg PUBLIC "-//W3C//DTD SVG 1.1//EN" "http://www.w3.org/Graphics/SVG/1.1/DTD/svg11.dtd">
<svg version="1.1" xmlns="http://www.w3.org/2000/svg" xmlns:xlink="http://www.w3.org/1999/xlink" x="0px" y="0px" width="580px"
	 height="580px" viewBox="0 0 580 580" enable-background="new 0 0 580 580" xml:space="preserve">
<g id="Layer_1">
	<g id="Layer_1_1_">
		<g id="Layer_2">
			<g id="g1327">
				<path id="path1329" fill="#111111" stroke="#EEEEEE" stroke-width="3.408" d="M66.275,1.768
					c-41.335,0-64.571,21.371-64.571,65.036v450.123c0,40.844,20.896,62.229,62.192,62.229h452.024
					c41.307,0,62.229-20.314,62.229-62.229V66.804c0-42.602-20.924-65.036-63.521-65.036C514.625,1.768,66.133,1.625,66.275,1.768z"
					/>
			</g>
		</g>
	</g>
</g>
<g id="Layer_2_2_">
	<g>
		<g>
			<polygon fill="#FFFFFF" points="68.5,515 187.5,515 231.5,69 192.5,69 			"/>
		</g>
		<g>
			<polygon fill="#FFFFFF" points="511.5,515 392.5,515 347.5,69 386.5,69 			"/>
		</g>
		<g>
			<g>
				<rect x="288.927" y="65" fill="#FFFFFF" width="6" height="20"/>
			</g>
			<g>
				<path fill="#FFFFFF" d="M294.927,451.363h-6v-36.636h6V451.363z M294.927,378.091h-6v-36.637h6V378.091z M294.927,304.818h-6
					v-36.637h6V304.818z M294.927,231.545h-6v-36.636h6V231.545z M294.927,158.272h-6v-36.636h6V158.272z"/>
			</g>
			<g>
				<rect x="288.927" y="488" fill="#FFFFFF" width="6" height="20"/>
			</g>
		</g>
	</g>
</g>
</svg>
