<?xml version="1.0" encoding="utf-8"?>
<!-- Generator: Adobe Illustrator 15.0.0, SVG Export Plug-In . SVG Version: 6.00 Build 0)  -->
<!DOCTYPE svg PUBLIC "-//W3C//DTD SVG 1.1//EN" "http://www.w3.org/Graphics/SVG/1.1/DTD/svg11.dtd">
<svg version="1.1" xmlns="http://www.w3.org/2000/svg" xmlns:xlink="http://www.w3.org/1999/xlink" x="0px" y="0px" width="580px"
	 height="580px" viewBox="0 0 580 580" enable-background="new 0 0 580 580" xml:space="preserve">
<g id="Layer_2">
	<g id="g1327">
		<path id="path1329" fill="#111111" stroke="#EEEEEE" stroke-width="3.408" d="M66.275,1.768
			c-41.335,0-64.571,21.371-64.571,65.036v450.123c0,40.844,20.894,62.229,62.192,62.229H515.92
			c41.307,0,62.229-20.316,62.229-62.229V66.804c0-42.601-20.923-65.036-63.522-65.036C514.624,1.768,66.133,1.625,66.275,1.768z"/>
	</g>
</g>
<g id="svg2" inkscape:version="0.46" sodipodi:docname="waste_bin.svg" sodipodi:version="0.32" xmlns:cc="http://creativecommons.org/ns#" xmlns:dc="http://purl.org/dc/elements/1.1/" xmlns:rdf="http://www.w3.org/1999/02/22-rdf-syntax-ns#" xmlns:inkscape="http://www.inkscape.org/namespaces/inkscape" xmlns:svg="http://www.w3.org/2000/svg" xmlns:sodipodi="http://sodipodi.sourceforge.net/DTD/sodipodi-0.dtd" inkscape:output_extension="org.inkscape.output.svg.inkscape">
	<g>
		<path fill="#FFFFFF" d="M144.058,228.717c-43.557-70.313-85.4-114.938-87.16-116.803c-3.979-4.217-10.622-4.409-14.84-0.432
			c-4.218,3.979-4.413,10.623-0.436,14.842c0.419,0.444,42.378,45.231,84.829,113.849c38.921,62.91,86.27,159.352,90.811,261.533
			c0.25,5.635,4.897,10.034,10.482,10.034c0.157,0,0.315-0.003,0.474-0.011c5.794-0.257,10.281-5.162,10.023-10.955
			c-2.102-47.302-12.987-97.226-32.355-148.384C190.47,311.669,169.668,270.059,144.058,228.717z"/>
		<path fill="#FFFFFF" d="M537.943,111.483c-4.218-3.979-10.863-3.786-14.843,0.431c-1.76,1.865-43.604,46.489-87.16,116.803
			c-25.609,41.342-46.412,82.952-61.828,123.674c-19.367,51.158-30.254,101.082-32.355,148.384
			c-0.258,5.793,4.229,10.698,10.023,10.955c0.159,0.008,0.316,0.011,0.474,0.011c5.584,0,10.231-4.399,10.481-10.034
			c4.542-102.182,51.891-198.623,90.812-261.533c42.451-68.617,84.41-113.404,84.829-113.849
			C542.354,122.106,542.16,115.463,537.943,111.483z"/>
		<path fill="#FFFFFF" d="M396.686,78.01c-3.483-6.033-9.921-9.75-16.888-9.75H200.201c-6.967,0-13.404,3.717-16.888,9.75
			s-3.483,13.467,0,19.5l89.799,155.537c3.483,6.033,9.921,9.75,16.888,9.75c6.966,0,13.404-3.717,16.887-9.75L396.686,97.51
			C400.169,91.477,400.169,84.043,396.686,78.01z"/>
	</g>
</g>
</svg>
