<?xml version="1.0" encoding="UTF-8" standalone="no"?>
<!-- Generator: Adobe Illustrator 15.0.0, SVG Export Plug-In . SVG Version: 6.00 Build 0)  -->

<svg
   xmlns:dc="http://purl.org/dc/elements/1.1/"
   xmlns:cc="http://creativecommons.org/ns#"
   xmlns:rdf="http://www.w3.org/1999/02/22-rdf-syntax-ns#"
   xmlns:svg="http://www.w3.org/2000/svg"
   xmlns="http://www.w3.org/2000/svg"
   xmlns:sodipodi="http://sodipodi.sourceforge.net/DTD/sodipodi-0.dtd"
   xmlns:inkscape="http://www.inkscape.org/namespaces/inkscape"
   version="1.1"
   x="0px"
   y="0px"
   width="580px"
   height="580px"
   viewBox="0 0 580 580"
   enable-background="new 0 0 580 580"
   xml:space="preserve"
   id="svg3028"
   inkscape:version="0.48.4 r9939"
   sodipodi:docname="mixed_lift_10008.svg"><metadata
   id="metadata3053"><rdf:RDF><cc:Work
       rdf:about=""><dc:format>image/svg+xml</dc:format><dc:type
         rdf:resource="http://purl.org/dc/dcmitype/StillImage" /><dc:title></dc:title></cc:Work></rdf:RDF></metadata><defs
   id="defs3051">
	

		
		
		
		
		
		
	</defs><sodipodi:namedview
   pagecolor="#ffffff"
   bordercolor="#666666"
   borderopacity="1"
   objecttolerance="10"
   gridtolerance="10"
   guidetolerance="10"
   inkscape:pageopacity="0"
   inkscape:pageshadow="2"
   inkscape:window-width="1685"
   inkscape:window-height="1007"
   id="namedview3049"
   showgrid="false"
   inkscape:zoom="0.066"
   inkscape:cx="290"
   inkscape:cy="302.11658"
   inkscape:window-x="208"
   inkscape:window-y="50"
   inkscape:window-maximized="0"
   inkscape:current-layer="svg3028" />
<g
   id="Layer_2_1_">
	<g
   id="Layer_2">
		<g
   id="g1327">
			<path
   id="path1329"
   d="M66.275,1.768     c-41.335,0-64.571,21.371-64.571,65.036v450.123c0,40.844,20.896,62.229,62.192,62.229h452.024     c41.307,0,62.229-20.314,62.229-62.229V66.804c0-42.602-20.923-65.036-63.521-65.036C514.625,1.768,66.133,1.625,66.275,1.768z"
   stroke-width="3.408"
   stroke="#EEEEEE"
   fill="#111111" />
		</g>
	</g>
</g>
<g
   id="g3949"><g
     id="g3953"
     transform="matrix(0.99246069,0.12256336,-0.12256336,0.99246069,32.117177,-41.654851)"><path
       d="m 232.0836,123.5457 c 4.007,1.597 8.368,2.502 12.945,2.502 2.398,0 4.739,-0.244 7,-0.703 8.363,-1.698 15.617,-6.397 20.654,-12.9 4.587,-5.919 7.345,-13.328997 7.345,-21.395997 0,-16.933 -12.025,-31.052996 -27.999,-34.295996 -2.261,-0.459 -4.602,-0.703 -7,-0.703 -18.119,0 -33.022,13.769 -34.817,31.414996 -0.086,1.188 -0.182,2.375 -0.182,3.584 0,1.209 0.095,2.396 0.182,3.584 1.342,13.188997 10.017,24.184997 21.872,28.912997 z"
       id="path3039"
       inkscape:connector-curvature="0"
       style="fill:#ffffff" /><path
       d="m 262.59126,173.95883 c 0.63268,-4.19803 0.2848,-8.38286 -0.89558,-12.2831 -1.89996,-6.27712 -5.97957,-11.7976 -11.65362,-15.43505 -1.95399,-1.25154 -4.08601,-2.29296 -6.39687,-3.04774 -7.28239,-2.3786 -14.83187,-1.60116 -21.18418,1.56608 -2.94978,1.47189 -5.62468,3.4775 -7.91057,5.90894 -2.72671,2.90181 -4.89666,6.41154 -6.21466,10.44674 -0.49304,1.50952 -0.79411,3.02389 -1.02366,4.54478 l -0.0827,-0.027 -12.77211,84.19129 0.0837,0.0273 c -1.09575,7.26482 0.74731,14.48593 4.78193,20.25366 3.04636,4.35191 7.35033,7.85852 12.60978,9.92459 0.51383,0.20149 1.02204,0.41377 1.55341,0.58733 l 13.30811,4.34675 3.43824,1.12302 49.79229,16.26337 -3.47554,10.64078 -19.07261,58.39313 -3.53173,10.81284 -0.19002,0.58175 c -0.0508,0.1812 -0.0522,0.36272 -0.0957,0.54419 -1.65451,7.00762 2.27773,14.25151 9.24642,16.52766 2.43349,0.79483 4.91555,0.83863 7.25453,0.33495 4.53082,-0.96915 8.48084,-4.11523 10.21001,-8.7136 0.0722,-0.19524 0.12481,-0.38214 0.19001,-0.58176 l 2.59377,-7.94114 30.00624,-91.86777 c 3.60129,-11.02577 -2.41657,-22.88006 -13.44234,-26.48134 l -35.09919,-11.46425 -13.30811,-4.34675 1.02032,-6.71823 4.41884,-29.09492 5.92179,-38.99138 -0.0798,-0.0261 z"
       id="path3041"
       inkscape:connector-curvature="0"
       style="fill:#ffffff" /></g></g><path
   d="m 406.9748,348.04039 -11.15618,3.9538 -51.76015,18.34632 -37.54892,13.31506 -14.5401,5.14893 -179.14194,63.50231 6.11158,18.67606 194.2981,-68.85403 73.60975,-26.0883 32.46411,-11.50068 21.49246,-7.61967 c 6.49421,-17.17298 6.91265,-17.48694 9.57913,-25.90938 z"
   id="path3045"
   inkscape:connector-curvature="0"
   style="fill:#ffffff"
   sodipodi:nodetypes="ccccccccccccc" />
<path
   sodipodi:type="arc"
   id="path3173"
   style="fill:#000000;stroke:none"
   sodipodi:cx="85.535767"
   sodipodi:cy="552.17511"
   sodipodi:rx="1.5"
   sodipodi:ry="1.5"
   d="m 87.035767,552.17511 a 1.5,1.5 0 1 1 -3,0 1.5,1.5 0 1 1 3,0 z" /><path
   sodipodi:type="arc"
   id="path3175"
   style="fill:#000000;stroke:none"
   sodipodi:cx="503.93964"
   sodipodi:cy="398.62296"
   sodipodi:rx="1.5"
   sodipodi:ry="1.5"
   d="m 505.43964,398.62296 a 1.5,1.5 0 1 1 -3,0 1.5,1.5 0 1 1 3,0 z" /><path
   sodipodi:type="arc"
   id="path3177"
   style="fill:#000000;stroke:none"
   sodipodi:cx="84.505219"
   sodipodi:cy="553.20569"
   sodipodi:rx="1.5"
   sodipodi:ry="1.5"
   d="m 86.005219,553.20569 a 1.5,1.5 0 1 1 -3,0 1.5,1.5 0 1 1 3,0 z" /><path
   style="fill:none;stroke:#ffffff;stroke-width:28.6519165;stroke-linecap:round;stroke-linejoin:miter;stroke-miterlimit:4;stroke-opacity:1;stroke-dasharray:none"
   d="M 71.278346,518.46621 525.38672,349.60746"
   id="path3179"
   inkscape:connector-curvature="0" /></svg>