<?xml version="1.0" encoding="utf-8"?>
<!-- Generator: Adobe Illustrator 15.0.0, SVG Export Plug-In . SVG Version: 6.00 Build 0)  -->
<!DOCTYPE svg PUBLIC "-//W3C//DTD SVG 1.1//EN" "http://www.w3.org/Graphics/SVG/1.1/DTD/svg11.dtd">
<svg version="1.1" xmlns="http://www.w3.org/2000/svg" xmlns:xlink="http://www.w3.org/1999/xlink" x="0px" y="0px" width="580px"
	 height="580px" viewBox="0 0 580 580" enable-background="new 0 0 580 580" xml:space="preserve">
<g id="Layer_2_1_">
	<g id="Layer_2">
		<g id="g1327">
			<path id="path1329" fill="#111111" stroke="#EEEEEE" stroke-width="3.408" d="M66.275,1.768
				c-41.335,0-64.571,21.371-64.571,65.036v450.123c0,40.844,20.896,62.229,62.192,62.229h452.024
				c41.307,0,62.229-20.314,62.229-62.229V66.804c0-42.602-20.923-65.036-63.521-65.036C514.625,1.768,66.133,1.625,66.275,1.768z"
				/>
		</g>
	</g>
</g>
<g id="Layer_1">
	<g>
		<polygon fill="#FFFFFF" points="216.678,209.53 262.001,66.007 248.001,66.007 219.947,154.844 207.302,194.887 206.472,197.511 
			193.423,238.839 198.255,267.868 		"/>
		<path fill="#FFFFFF" d="M130.059,189.501c4.007,1.597,8.368,2.502,12.945,2.502c2.398,0,4.739-0.244,7-0.703
			c8.363-1.698,15.617-6.397,20.654-12.9c4.587-5.919,7.345-13.329,7.345-21.396c0-16.933-12.025-31.053-27.999-34.296
			c-2.261-0.459-4.602-0.703-7-0.703c-18.119,0-33.022,13.769-34.817,31.415c-0.086,1.188-0.182,2.375-0.182,3.584
			c0,1.209,0.095,2.396,0.182,3.584C109.529,173.777,118.204,184.773,130.059,189.501z"/>
		<path fill="#FFFFFF" d="M177.566,229.365c-0.702-4.187-2.332-8.057-4.665-11.398c-3.755-5.377-9.347-9.358-15.87-11.054
			c-2.246-0.583-4.596-0.911-7.027-0.911c-7.661,0-14.596,3.083-19.651,8.066c-2.347,2.315-4.267,5.052-5.685,8.073
			c-1.691,3.605-2.664,7.615-2.664,11.86c0,1.588,0.184,3.121,0.438,4.638h-0.087l13.999,83.996h0.088
			c1.214,7.246,5.208,13.538,10.834,17.768c4.247,3.191,9.427,5.188,15.068,5.519c0.551,0.032,1.1,0.076,1.659,0.076h14h3.617
			h52.381v11.194v61.429v11.375v0.612c0.008,0.188,0.063,0.361,0.078,0.547c0.603,7.175,6.59,12.84,13.921,12.84
			c2.56,0,4.933-0.729,7-1.934c4.006-2.328,6.784-6.545,7-11.453c0.008-0.208,0-0.402,0-0.612v-8.354v-96.644
			c0-11.599-9.401-20.999-21-20.999h-36.924h-14l-1.116-6.703l-4.833-29.029l-6.477-38.903H177.566z"/>
		<path fill="#FFFFFF" d="M156.68,401.822l34.11,0.125l12.845,0.05c21.396,0,21.418-28.065,0.175-27.912l-22.426-0.088l-3.879-0.016
			l-18.55-0.071c-4.361-0.314-8.937-0.454-13.299-1.75c-14.441-4.416-24.545-16.162-27.299-29.924L93.944,209.938
			c-1.705-9.25-7.935-13.487-14.087-13.562v0.001c-2.521-0.031-5.021,0.645-7.195,1.953c-4.644,2.797-7.772,8.515-6.279,16.597
			l24.062,132.208c4.568,23.897,21.898,44.285,46.724,51.711C143.664,400.821,150.184,401.822,156.68,401.822z"/>
		<path fill="#FFFFFF" d="M310.848,434.578l-7.497,2.554l-34.783,11.851l-25.233,8.601l-9.771,3.326l-120.384,41.02l4.107,12.064
			l130.569-44.477l49.466-16.852l21.816-7.429l14.443-4.922c-3.194-3.283-6.188-6.761-8.931-10.438L310.848,434.578z"/>
		<path fill="#FFFFFF" d="M429.996,122.251v-13.998V94.182V66.007h-27.999v28.175v14.071v13.998
			c-47.065,3.255-83.998,42.207-83.998,90.127v155.21c0,11.615,2.193,22.694,6.152,32.878c3.503,9.015,8.386,17.332,14.429,24.663
			c2.997,3.636,6.286,7.019,9.813,10.142c9.326,8.266,20.378,14.632,32.574,18.483c8.639,2.726,17.841,4.209,27.405,4.209h15.247
			c50.067,0,90.373-40.31,90.373-90.375v-155.21C513.993,164.458,477.061,125.506,429.996,122.251z M421.579,331.999h-11.167
			c-35.685,0-64.414-28.729-64.414-64.416V214.42c0-35.686,28.729-64.416,64.414-64.416h11.167
			c35.687,0,64.414,28.729,64.414,64.416v53.163C485.993,303.269,457.265,331.999,421.579,331.999z"/>
	</g>
</g>
</svg>
