<?xml version="1.0" encoding="UTF-8" standalone="no"?>
<!-- Generator: Adobe Illustrator 15.0.0, SVG Export Plug-In . SVG Version: 6.00 Build 0)  -->

<svg
   xmlns:dc="http://purl.org/dc/elements/1.1/"
   xmlns:cc="http://creativecommons.org/ns#"
   xmlns:rdf="http://www.w3.org/1999/02/22-rdf-syntax-ns#"
   xmlns:svg="http://www.w3.org/2000/svg"
   xmlns="http://www.w3.org/2000/svg"
   xmlns:sodipodi="http://sodipodi.sourceforge.net/DTD/sodipodi-0.dtd"
   xmlns:inkscape="http://www.inkscape.org/namespaces/inkscape"
   version="1.1"
   x="0px"
   y="0px"
   width="580px"
   height="580px"
   viewBox="0 0 580 580"
   enable-background="new 0 0 580 580"
   xml:space="preserve"
   id="svg2"
   inkscape:version="0.92.3 (2405546, 2018-03-11)"
   sodipodi:docname="motorcycle_rental.svg"><metadata
   id="metadata27"><rdf:RDF><cc:Work
       rdf:about=""><dc:format>image/svg+xml</dc:format><dc:type
         rdf:resource="http://purl.org/dc/dcmitype/StillImage" /><dc:title></dc:title></cc:Work></rdf:RDF></metadata><defs
   id="defs25">
	
	
	
</defs><sodipodi:namedview
   pagecolor="#ffffff"
   bordercolor="#666666"
   borderopacity="1"
   objecttolerance="10"
   gridtolerance="10"
   guidetolerance="10"
   inkscape:pageopacity="0"
   inkscape:pageshadow="2"
   inkscape:window-width="1672"
   inkscape:window-height="1040"
   id="namedview23"
   showgrid="false"
   inkscape:zoom="0.76095916"
   inkscape:cx="281.45815"
   inkscape:cy="290"
   inkscape:window-x="89"
   inkscape:window-y="16"
   inkscape:window-maximized="0"
   inkscape:current-layer="svg2" />
<g
   id="Layer_2">
	<g
   id="g1327">
		<path
   id="path1329"
   fill="#111111"
   stroke="#EEEEEE"
   stroke-width="3.408"
   d="M66.275,1.768    c-41.335,0-64.571,21.371-64.571,65.036v450.123c0,40.844,20.894,62.229,62.192,62.229H515.92    c41.307,0,62.229-20.316,62.229-62.229V66.804c0-42.601-20.923-65.036-63.522-65.036C514.624,1.768,66.133,1.625,66.275,1.768z" />
	</g>
</g>

<g
   id="g2303"
   transform="matrix(1.1575693,0,0,1.1575693,76.520422,38.17559)"
   style="fill:#ffffff;fill-opacity:1;stroke:#ffffff;stroke-width:10;stroke-linecap:round;stroke-linejoin:round;stroke-miterlimit:4;stroke-opacity:1;stroke-dasharray:none"><g
     id="g2305"
     style="fill:#ffffff;fill-opacity:1;stroke:#ffffff;stroke-width:10;stroke-linecap:round;stroke-linejoin:round;stroke-miterlimit:4;stroke-opacity:1;stroke-dasharray:none"><path
       inkscape:connector-curvature="0"
       style="fill:#ffffff;fill-opacity:1;stroke:#ffffff;stroke-width:10.00000095;stroke-linecap:round;stroke-linejoin:round;stroke-miterlimit:4;stroke-opacity:1;stroke-dasharray:none"
       d="M 100.25,5.75 C 60.335317,5.4974281 26.826507,47.079175 35.324049,86.079571 c 5.57579,32.628219 37.203485,59.513449 70.832201,56.201679 22.48284,-1.38839 43.50902,-14.78319 54.8125,-34.09375 10.25433,-8.04484 25.57155,2.6096 35.65625,-6.0625 6.89511,-7.134767 12.65993,-16.629284 22.375,-19.84375 7.79207,2.201331 11.2873,10.646529 17.71875,14.5625 6.4579,-4.13743 10.19115,-13.979468 19.03125,-13.9375 6.25373,3.764238 10.21886,10.40689 16.125,14.34375 6.70904,-4.292637 10.68564,-14.550643 19.8125,-14.5625 6.3804,3.59771 9.90619,11.109119 16.5625,13.96875 9.26043,-8.352172 18.73735,-16.999679 26.46875,-26.9375 -0.0281,-5.622835 -7.6363,-8.738413 -10.65641,-13.336982 C 317.78098,50.838171 312.47635,40.600972 302.59375,42.71875 289.22865,43.785674 275.56059,42.397209 262.0625,42.9375 229.36594,42.923262 196.41274,43.721279 163.875,42.125 154.95723,34.457888 150.20766,22.500694 139.25,17.0625 127.86772,9.4689786 114.03062,5.323508 100.25,5.75 z M 73.09375,50.53125 c 19.527198,-0.486224 31.18454,27.24599 17,40.71875 -11.479386,12.63316 -36.049436,8.571659 -40.875,-8.375 -5.349057,-15.155352 7.109688,-34.021744 23.875,-32.34375 z"
       id="path2307" /><path
       inkscape:connector-curvature="0"
       style="fill:#ffffff;fill-opacity:1;stroke:#ffffff;stroke-width:10;stroke-linecap:round;stroke-linejoin:round;stroke-miterlimit:4;stroke-opacity:1;stroke-dasharray:none"
       id="path2309"
       d="" /></g></g><g
   transform="matrix(1.1123193,0,0,1.1946906,-83.300765,-103.42178)"
   id="g78"><path
     style="fill:#ffffff"
     inkscape:connector-curvature="0"
     id="path74"
     d="m 202.134,399.41 c -35.521,0 -64.419,28.898 -64.419,64.42 0,35.522 28.898,64.42 64.419,64.42 35.521,0 64.42,-28.898 64.42,-64.42 0,-35.522 -28.899,-64.42 -64.42,-64.42 z m 0,105.527 c -22.666,0 -41.106,-18.44 -41.106,-41.106 0,-22.666 18.44,-41.106 41.106,-41.106 22.666,0 41.106,18.44 41.106,41.106 0,22.666 -18.44,41.106 -41.106,41.106 z" /><path
     style="fill:#ffffff"
     inkscape:connector-curvature="0"
     id="path76"
     d="m 470.086,399.41 c -3.576,0 -7.079,0.307 -10.498,0.869 l -22.695,-43.526 c 13.474,-8.43 31.002,-14.548 49.97,-7.363 7.89,2.989 9.853,6.821 11.368,-3.789 0,0 -5.305,-20.463 -59.114,-8.337 -3.605,0.813 -7.292,1.685 -11.027,2.602 l -12.481,-23.943 c -1.176,-2.254 -3.509,-3.668 -6.049,-3.668 h -31.831 c -3.769,0 -6.82,3.054 -6.82,6.821 0,3.767 3.052,6.82 6.82,6.82 h 27.695 l 9.092,17.438 C 365.884,356.21 314.065,374.4 314.065,374.4 c 0,0 -35.621,1.516 -54.568,-10.61 -18.947,-12.126 -65.178,-40.926 -122.777,-2.273 0,0 -0.758,10.61 9.095,9.094 9.853,-1.516 16.673,-15.157 36.378,-4.547 19.705,10.61 118.229,71.999 148.544,100.04 30.315,28.042 75.789,-84.883 80.336,-87.914 1.626,-1.083 6.856,-6.94 14.651,-13.351 l 20.437,39.195 c -23.707,9.52 -40.496,32.727 -40.496,59.796 0,35.521 28.896,64.42 64.42,64.42 35.52,0 64.42,-28.898 64.42,-64.42 0,-35.522 -28.9,-64.42 -64.419,-64.42 z m 0,106.779 c -23.357,0 -42.359,-19.003 -42.359,-42.359 0,-23.356 19.002,-42.359 42.359,-42.359 23.355,0 42.358,19.003 42.358,42.359 0,23.356 -19.003,42.359 -42.358,42.359 z" /></g></svg>