<?xml version="1.0" encoding="utf-8"?>
<!-- Generator: Adobe Illustrator 15.0.0, SVG Export Plug-In . SVG Version: 6.00 Build 0)  -->
<!DOCTYPE svg PUBLIC "-//W3C//DTD SVG 1.1//EN" "http://www.w3.org/Graphics/SVG/1.1/DTD/svg11.dtd">
<svg version="1.1" xmlns="http://www.w3.org/2000/svg" xmlns:xlink="http://www.w3.org/1999/xlink" x="0px" y="0px" width="580px"
	 height="580px" viewBox="0 0 580 580" enable-background="new 0 0 580 580" xml:space="preserve">
<g id="Layer_2">
	<g id="g1327">
		<path id="path1329" fill="#111111" stroke="#EEEEEE" stroke-width="3.408" d="M66.275,1.768
			c-41.335,0-64.571,21.371-64.571,65.036v450.123c0,40.844,20.894,62.229,62.192,62.229H515.92
			c41.307,0,62.229-20.316,62.229-62.229V66.804c0-42.601-20.923-65.036-63.522-65.036C514.624,1.768,66.133,1.625,66.275,1.768z"/>
	</g>
</g>
<g id="svg2" inkscape:version="0.46" sodipodi:docname="waste_bin.svg" sodipodi:version="0.32" xmlns:dc="http://purl.org/dc/elements/1.1/" xmlns:cc="http://creativecommons.org/ns#" xmlns:sodipodi="http://sodipodi.sourceforge.net/DTD/sodipodi-0.dtd" xmlns:svg="http://www.w3.org/2000/svg" xmlns:rdf="http://www.w3.org/1999/02/22-rdf-syntax-ns#" xmlns:inkscape="http://www.inkscape.org/namespaces/inkscape" inkscape:output_extension="org.inkscape.output.svg.inkscape">
	<path fill="#FFFFFF" d="M297.131,238.286c20.017-21.782,30.024-48.4,30.024-79.854c0-18.333-3.743-35.153-11.228-50.46
		c-7.485-15.307-17.367-27.206-29.646-35.701c-12.279-8.493-27.501-14.255-45.666-17.282c-12.952-2.354-31.707-3.532-56.265-3.532
		H44.829V421.33h48.946V270.958h94.865C240.952,270.958,277.115,260.068,297.131,238.286z M93.775,95.104h94.613
		c22.203,0,37.425,1.093,45.667,3.279c12.783,3.533,23.086,10.808,30.907,21.824c7.821,11.018,11.731,24.264,11.731,39.737
		c0,21.362-6.644,37.93-19.932,49.704s-35.743,17.661-67.364,17.661H93.775V95.104z"/>
	<g>
		<path fill="#FFFFFF" d="M202.134,399.41c-35.521,0-64.419,28.898-64.419,64.42s28.898,64.42,64.419,64.42
			c35.521,0,64.42-28.898,64.42-64.42S237.655,399.41,202.134,399.41z M202.134,504.937c-22.666,0-41.106-18.44-41.106-41.106
			s18.44-41.106,41.106-41.106c22.666,0,41.106,18.44,41.106,41.106S224.8,504.937,202.134,504.937z"/>
		<path fill="#FFFFFF" d="M470.086,399.41c-3.576,0-7.079,0.307-10.498,0.869l-22.695-43.526c13.474-8.43,31.002-14.548,49.97-7.363
			c7.89,2.989,9.853,6.821,11.368-3.789c0,0-5.305-20.463-59.114-8.337c-3.605,0.813-7.292,1.685-11.027,2.602l-12.481-23.943
			c-1.176-2.254-3.509-3.668-6.049-3.668h-31.831c-3.769,0-6.82,3.054-6.82,6.821c0,3.767,3.052,6.82,6.82,6.82h27.695l9.092,17.438
			C365.884,356.21,314.065,374.4,314.065,374.4s-35.621,1.516-54.568-10.61c-18.947-12.126-65.178-40.926-122.777-2.273
			c0,0-0.758,10.61,9.095,9.094c9.853-1.516,16.673-15.157,36.378-4.547c19.705,10.61,118.229,71.999,148.544,100.04
			c30.315,28.042,75.789-84.883,80.336-87.914c1.626-1.083,6.856-6.94,14.651-13.351l20.437,39.195
			c-23.707,9.52-40.496,32.727-40.496,59.796c0,35.521,28.896,64.42,64.42,64.42c35.52,0,64.42-28.898,64.42-64.42
			S505.605,399.41,470.086,399.41z M470.086,506.189c-23.357,0-42.359-19.003-42.359-42.359s19.002-42.359,42.359-42.359
			c23.355,0,42.358,19.003,42.358,42.359S493.441,506.189,470.086,506.189z"/>
	</g>
</g>
</svg>
