<?xml version="1.0" encoding="utf-8"?>
<!-- Generator: Adobe Illustrator 15.0.0, SVG Export Plug-In . SVG Version: 6.00 Build 0)  -->
<!DOCTYPE svg PUBLIC "-//W3C//DTD SVG 1.1//EN" "http://www.w3.org/Graphics/SVG/1.1/DTD/svg11.dtd">
<svg version="1.1" id="Layer_1" xmlns="http://www.w3.org/2000/svg" xmlns:xlink="http://www.w3.org/1999/xlink" x="0px" y="0px"
	 width="580px" height="580px" viewBox="0 0 580 580" enable-background="new 0 0 580 580" xml:space="preserve">
<g id="Layer_1_1_">
	<g id="Layer_2">
		<g id="g1327">
			<path id="path1329" fill="#111111" stroke="#EEEEEE" stroke-width="3.408" d="M66.275,1.768
				c-41.335,0-64.571,21.371-64.571,65.036v450.123c0,40.844,20.895,62.229,62.192,62.229H515.92
				c41.307,0,62.229-20.315,62.229-62.229V66.804c0-42.601-20.925-65.036-63.521-65.036C514.624,1.768,66.133,1.625,66.275,1.768z"
				/>
		</g>
	</g>
</g>
<path fill="#FFFFFF" d="M411.178,174.147c-7.163-14.648-16.831-26.25-28.734-34.483c-11.711-8.101-26.279-13.65-43.298-16.495
	c-11.922-2.161-28.466-3.211-50.576-3.211H166.865c-4.817,0-8.723,3.905-8.723,8.723v322.637c0,4.817,3.905,8.722,8.723,8.722
	h42.696c4.817,0,8.723-3.905,8.723-8.723V328.873h74.027c48.635,0,81.69-10.245,101.057-31.32
	c18.904-20.571,28.489-45.993,28.49-75.558C421.856,204.737,418.264,188.639,411.178,174.147z M292.971,273.354h-74.687v-97.876
	h73.805c23.075,0.001,33.183,1.398,37.512,2.546c9.242,2.554,16.494,7.683,22.171,15.679c5.802,8.173,8.623,17.859,8.624,29.612
	c-0.001,16.168-4.728,28.214-14.449,36.828C336.054,268.909,318.229,273.354,292.971,273.354z"/>
<g>
	<rect x="54.5" y="66.999" fill="#FFFFFF" width="62" height="446"/>
	<rect x="463.5" y="66.999" fill="#FFFFFF" width="62" height="446"/>
</g>
</svg>
