<?xml version="1.0" encoding="utf-8"?>
<!-- Generator: Adobe Illustrator 15.0.0, SVG Export Plug-In . SVG Version: 6.00 Build 0)  -->
<!DOCTYPE svg PUBLIC "-//W3C//DTD SVG 1.1//EN" "http://www.w3.org/Graphics/SVG/1.1/DTD/svg11.dtd">
<svg version="1.1" xmlns="http://www.w3.org/2000/svg" xmlns:xlink="http://www.w3.org/1999/xlink" x="0px" y="0px" width="580px"
	 height="580px" viewBox="0 0 580 580" enable-background="new 0 0 580 580" xml:space="preserve">
<g id="Layer_1">
	<g id="Layer_1_1_">
		<g id="Layer_2">
			<g id="g1327">
				<path id="path1329" fill="#111111" stroke="#EEEEEE" stroke-width="3.408" d="M66.275,1.768
					c-41.335,0-64.571,21.371-64.571,65.036v450.123c0,40.844,20.896,62.229,62.192,62.229h452.024
					c41.307,0,62.229-20.314,62.229-62.229V66.804c0-42.602-20.924-65.036-63.521-65.036C514.625,1.768,66.133,1.625,66.275,1.768z"
					/>
			</g>
		</g>
	</g>
</g>
<g id="Layer_2_2_">
	<g>
		<rect x="54.427" y="132.674" fill="#FFFFFF" width="7.537" height="13.984"/>
		<rect x="54.427" y="274.744" fill="#FFFFFF" width="7.537" height="25.617"/>
		<rect x="54.427" y="377.213" fill="#FFFFFF" width="7.537" height="25.616"/>
		<rect x="54.427" y="325.978" fill="#FFFFFF" width="7.537" height="25.617"/>
		<rect x="54.427" y="172.275" fill="#FFFFFF" width="7.537" height="25.617"/>
		<rect x="54.427" y="223.51" fill="#FFFFFF" width="7.537" height="25.616"/>
		<rect x="54.427" y="428.446" fill="#FFFFFF" width="7.537" height="13.985"/>
		<polygon fill="#FFFFFF" points="525.573,182.826 200.83,182.826 176.988,135.47 128,135.47 184.524,447.326 334,447.326 
			272.302,324.781 525.573,268.826 		"/>
	</g>
</g>
</svg>
