<?xml version="1.0" encoding="UTF-8" standalone="no"?>
<!-- Generator: Adobe Illustrator 15.0.0, SVG Export Plug-In . SVG Version: 6.00 Build 0)  -->

<svg
   xmlns:dc="http://purl.org/dc/elements/1.1/"
   xmlns:cc="http://creativecommons.org/ns#"
   xmlns:rdf="http://www.w3.org/1999/02/22-rdf-syntax-ns#"
   xmlns:svg="http://www.w3.org/2000/svg"
   xmlns="http://www.w3.org/2000/svg"
   xmlns:sodipodi="http://sodipodi.sourceforge.net/DTD/sodipodi-0.dtd"
   xmlns:inkscape="http://www.inkscape.org/namespaces/inkscape"
   version="1.1"
   x="0px"
   y="0px"
   width="580px"
   height="580px"
   viewBox="0 0 580 580"
   enable-background="new 0 0 580 580"
   xml:space="preserve"
   id="svg851"
   sodipodi:docname="platform_train.svg"
   inkscape:version="0.92.3 (2405546, 2018-03-11)"><metadata
   id="metadata857"><rdf:RDF><cc:Work
       rdf:about=""><dc:format>image/svg+xml</dc:format><dc:type
         rdf:resource="http://purl.org/dc/dcmitype/StillImage" /><dc:title></dc:title></cc:Work></rdf:RDF></metadata><defs
   id="defs855" /><sodipodi:namedview
   pagecolor="#ffffff"
   bordercolor="#666666"
   borderopacity="1"
   objecttolerance="10"
   gridtolerance="10"
   guidetolerance="10"
   inkscape:pageopacity="0"
   inkscape:pageshadow="2"
   inkscape:window-width="1357"
   inkscape:window-height="788"
   id="namedview853"
   showgrid="false"
   inkscape:zoom="0.97035431"
   inkscape:cx="290"
   inkscape:cy="290"
   inkscape:window-x="234"
   inkscape:window-y="234"
   inkscape:window-maximized="0"
   inkscape:current-layer="svg851" />
<g
   id="Layer_2">
	<g
   id="g1327">
		<path
   id="path1329"
   d="M66.275,1.768    c-41.335,0-64.571,21.371-64.571,65.036v450.123c0,40.844,20.894,62.229,62.192,62.229H515.92    c41.307,0,62.229-20.316,62.229-62.229V66.804c0-42.601-20.923-65.036-63.522-65.036C514.624,1.768,66.133,1.625,66.275,1.768z"
   stroke-width="3.408"
   stroke="#EEEEEE"
   fill="#111111" />
	</g>
</g>

<path
   inkscape:connector-curvature="0"
   d="m 188.37516,246.78445 c -0.0871,3.60162 -1.49826,7.17827 -4.24826,9.92653 l -29.03599,29.03597 c -4.54296,4.54297 -11.53135,5.55981 -17.1803,2.5 l -7.60337,-4.11846 v 33.19307 l 35.52844,17.76452 c 4.9187,2.45934 8.02555,7.48634 8.02555,12.98518 v 43.55398 c 0,8.018 -6.49999,14.51798 -14.51799,14.51798 -8.01829,0 -14.518,-6.49998 -14.518,-14.51798 v -34.58128 l -27.55225,-13.77614 c -0.4849,0.31941 -0.9785,0.62718 -1.48374,0.92046 v 32.92043 l -0.74622,4.59115 -14.51799,43.55399 c -2.534835,7.60655 -10.757251,11.71747 -18.364093,9.18175 -7.606571,-2.53484 -11.71748,-10.75724 -9.181772,-18.3638 l 13.77294,-41.31908 V 344.18828 C 78.073252,339.16767 72.234126,329.78411 72.234126,319.03672 v -50.81298 c 0,-16.03599 12.999696,-29.03598 29.035974,-29.03598 6.09698,0 11.75523,1.87862 16.42682,5.0903 l 24.51914,13.28106 21.37804,-21.37804 c 5.66986,-5.66957 14.86207,-5.66957 20.53164,0 2.74971,2.74971 4.16464,6.32491 4.24825,9.92653 V 144.82079 c 0,-32.07227 25.99971,-58.07198 58.07199,-58.07198 h 203.25191 c 32.07228,0 58.07197,25.99971 58.07197,58.07198 v 203.25192 c 0,32.07228 -25.99969,58.07197 -58.07197,58.07197 H 246.44598 c -32.07228,0 -58.07199,-25.99969 -58.07199,-58.07197 z m 108.88495,173.87677 -7.259,14.51799 h 116.14397 l -7.25901,-14.51799 h 43.55397 l 36.29499,72.58997 H 435.18105 L 420.66307,464.21521 H 275.48312 l -14.518,29.03598 h -43.55396 l 36.29497,-72.58997 z m 94.36696,-87.10796 c 0,16.03628 12.99999,29.036 29.036,29.036 16.03628,0 29.03598,-12.99972 29.03598,-29.036 0,-16.03599 -12.9997,-29.03599 -29.03598,-29.03599 -16.03601,0 -29.036,13 -29.036,29.03599 z m -87.10796,0 c 0,-16.03599 -12.99971,-29.03599 -29.03599,-29.03599 -16.03599,0 -29.03599,13 -29.03599,29.03599 0,16.03628 13,29.036 29.03599,29.036 16.03628,0 29.03599,-12.99972 29.03599,-29.036 z m -87.22817,-174.14421 0.42974,87.10797 c 0.029,7.99012 6.52786,14.44627 14.51769,14.44627 h 87.01156 c 8.01829,0 14.51801,-6.49999 14.51801,-14.518 0,-0.0239 0,-0.058 0,-0.058 l -0.42973,-87.10797 c -0.0291,-7.98981 -6.52789,-14.44627 -14.51771,-14.44627 h -87.01157 c -8.01829,0 -14.51799,6.5 -14.51799,14.51801 0,0.0239 0,0.058 0,0.058 z m 145.17993,0 0.42974,87.10797 c 0.0291,7.99012 6.52787,14.44627 14.51771,14.44627 h 87.01156 c 8.01829,0 14.51799,-6.49999 14.51799,-14.518 0,-0.0239 0,-0.058 0,-0.058 l -0.42973,-87.10797 c -0.029,-7.98981 -6.52786,-14.44627 -14.5177,-14.44627 h -87.01157 c -8.01828,0 -14.518,6.5 -14.518,14.51801 0,0.0239 0,0.058 0,0.058 z m -261.1996,72.51825 c -16.036292,0 -29.035988,-12.9997 -29.035988,-29.03598 0,-16.03599 12.999696,-29.03599 29.035988,-29.03599 16.03599,0 29.03597,13 29.03597,29.03599 0,16.03628 -12.99998,29.03598 -29.03597,29.03598 z"
   id="path869"
   style="fill:#ffffff;fill-opacity:1;stroke-width:29.03598785" /></svg>