<?xml version="1.0" encoding="UTF-8" standalone="no"?>
<!-- Generator: Adobe Illustrator 15.0.0, SVG Export Plug-In . SVG Version: 6.00 Build 0)  -->

<svg
   xmlns:dc="http://purl.org/dc/elements/1.1/"
   xmlns:cc="http://creativecommons.org/ns#"
   xmlns:rdf="http://www.w3.org/1999/02/22-rdf-syntax-ns#"
   xmlns:svg="http://www.w3.org/2000/svg"
   xmlns="http://www.w3.org/2000/svg"
   xmlns:sodipodi="http://sodipodi.sourceforge.net/DTD/sodipodi-0.dtd"
   xmlns:inkscape="http://www.inkscape.org/namespaces/inkscape"
   version="1.1"
   x="0px"
   y="0px"
   width="580px"
   height="580px"
   viewBox="0 0 580 580"
   enable-background="new 0 0 580 580"
   xml:space="preserve"
   id="svg851"
   sodipodi:docname="platform_bus.svg"
   inkscape:version="0.92.3 (2405546, 2018-03-11)"><metadata
   id="metadata857"><rdf:RDF><cc:Work
       rdf:about=""><dc:format>image/svg+xml</dc:format><dc:type
         rdf:resource="http://purl.org/dc/dcmitype/StillImage" /><dc:title></dc:title></cc:Work></rdf:RDF></metadata><defs
   id="defs855" /><sodipodi:namedview
   pagecolor="#ffffff"
   bordercolor="#666666"
   borderopacity="1"
   objecttolerance="10"
   gridtolerance="10"
   guidetolerance="10"
   inkscape:pageopacity="0"
   inkscape:pageshadow="2"
   inkscape:window-width="1357"
   inkscape:window-height="788"
   id="namedview853"
   showgrid="false"
   inkscape:zoom="0.97035431"
   inkscape:cx="213.38546"
   inkscape:cy="290"
   inkscape:window-x="234"
   inkscape:window-y="234"
   inkscape:window-maximized="0"
   inkscape:current-layer="svg851" />
<g
   id="Layer_2">
	<g
   id="g1327">
		<path
   id="path1329"
   d="M66.275,1.768    c-41.335,0-64.571,21.371-64.571,65.036v450.123c0,40.844,20.894,62.229,62.192,62.229H515.92    c41.307,0,62.229-20.316,62.229-62.229V66.804c0-42.601-20.923-65.036-63.522-65.036C514.624,1.768,66.133,1.625,66.275,1.768z"
   stroke-width="3.408"
   stroke="#EEEEEE"
   fill="#111111" />
	</g>
</g>

<path
   inkscape:connector-curvature="0"
   d="m 187.72914,158.50372 c 0,-32.2766 26.16533,-58.44193 58.44194,-58.44193 h 204.54675 c 32.27661,0 58.44193,26.16533 58.44193,58.44193 v 233.76773 c 0,29.22097 -29.22096,29.22097 -29.22096,29.22097 v 29.22095 c 0,16.13816 -13.08252,29.22097 -29.22097,29.22097 -16.13815,0 -29.22097,-13.08281 -29.22097,-29.22097 V 421.49242 H 275.39203 v 29.22095 c 0,16.13816 -13.08251,29.22097 -29.22095,29.22097 -16.13816,0 -29.22097,-13.08281 -29.22097,-29.22097 v -29.22095 c -29.22097,0 -29.22097,-29.22097 -29.22097,-29.22097 V 281.2084 Z m 43.83144,29.22097 c -8.06907,0 -14.61047,6.54112 -14.61047,14.61048 v 87.6629 c 0,8.06907 6.5414,14.61048 14.61047,14.61048 h 233.76773 c 8.06909,0 14.61049,-6.54141 14.61049,-14.61048 v -87.6629 c 0,-8.06936 -6.5414,-14.61048 -14.61049,-14.61048 z m 14.6105,146.10483 c -16.13875,0 -29.22097,13.08222 -29.22097,29.22097 0,16.13873 13.08222,29.22096 29.22097,29.22096 16.13873,0 29.22095,-13.08223 29.22095,-29.22096 0,-16.13875 -13.08222,-29.22097 -29.22095,-29.22097 z m 204.54675,0 c -16.13873,0 -29.22097,13.08222 -29.22097,29.22097 0,16.13873 13.08224,29.22096 29.22097,29.22096 16.13874,0 29.22097,-13.08223 29.22097,-29.22096 0,-16.13875 -13.08223,-29.22097 -29.22097,-29.22097 z M 246.17108,143.89324 c 0,8.06907 6.5414,14.61048 14.61047,14.61048 h 175.3258 c 8.06908,0 14.61048,-6.54141 14.61048,-14.61048 0,-8.06937 -6.5414,-14.61048 -14.61048,-14.61048 h -175.3258 c -8.06907,0 -14.61047,6.54111 -14.61047,14.61048 z M 114.67673,388.36197 v 33.13045 l -0.75098,4.62012 -14.610494,43.83145 c -2.55098,7.65501 -10.825782,11.79212 -18.480793,9.24054 -7.65502,-2.55099 -11.792124,-10.82607 -9.240547,-18.48108 l 13.860676,-41.58202 v -30.75946 c -8.734148,-5.0523 -14.61049,-14.49564 -14.61049,-25.31148 v -51.1367 c 0,-16.13844 13.082813,-29.22097 29.220978,-29.22097 6.13611,0 11.83039,1.8906 16.53175,5.12245 l 24.67536,13.36596 21.51423,-21.51453 c 5.70568,-5.70568 14.95646,-5.70568 20.66243,0 5.70569,5.70569 5.70569,14.95675 0,20.66244 l -29.22097,29.22096 c -4.57191,4.57192 -11.60481,5.59523 -17.29004,2.51593 l -7.6518,-4.1447 v 33.40482 l 35.75506,17.87739 c 4.94975,2.47501 8.07638,7.53404 8.07638,13.0682 v 43.83145 c 0,8.06908 -6.54139,14.61049 -14.61048,14.61049 -8.06907,0 -14.61047,-6.54141 -14.61047,-14.61049 v -34.80188 l -27.72749,-13.86389 c -0.48799,0.32143 -0.98474,0.63117 -1.49319,0.92631 z M 100.06625,275.38759 c -16.138163,0 -29.220977,-13.08282 -29.220977,-29.22097 0,-16.13845 13.082814,-29.22097 29.220977,-29.22097 16.13844,0 29.22096,13.08252 29.22096,29.22097 0,16.13815 -13.08252,29.22097 -29.22096,29.22097 z"
   id="path1447"
   style="fill:#ffffff;fill-opacity:1;stroke-width:29.22096634" /></svg>