<?xml version="1.0" encoding="UTF-8" standalone="no"?>
<!-- Created with Inkscape (http://www.inkscape.org/) -->

<svg
   xmlns:dc="http://purl.org/dc/elements/1.1/"
   xmlns:cc="http://creativecommons.org/ns#"
   xmlns:rdf="http://www.w3.org/1999/02/22-rdf-syntax-ns#"
   xmlns:svg="http://www.w3.org/2000/svg"
   xmlns="http://www.w3.org/2000/svg"
   xmlns:sodipodi="http://sodipodi.sourceforge.net/DTD/sodipodi-0.dtd"
   xmlns:inkscape="http://www.inkscape.org/namespaces/inkscape"
   version="1.0"
   width="580"
   height="580"
   id="svg2"
   sodipodi:version="0.32"
   inkscape:version="0.92.3 (2405546, 2018-03-11)"
   sodipodi:docname="platform_subway.svg"
   inkscape:output_extension="org.inkscape.output.svg.inkscape">
  <metadata
     id="metadata10">
    <rdf:RDF>
      <cc:Work
         rdf:about="">
        <dc:format>image/svg+xml</dc:format>
        <dc:type
           rdf:resource="http://purl.org/dc/dcmitype/StillImage" />
        <cc:license
           rdf:resource="http://web.resource.org/cc/PublicDomain" />
        <dc:language>en</dc:language>
        <dc:title></dc:title>
      </cc:Work>
    </rdf:RDF>
  </metadata>
  <sodipodi:namedview
     inkscape:window-height="701"
     inkscape:window-width="1440"
     inkscape:pageshadow="2"
     inkscape:pageopacity="0.0"
     guidetolerance="10.0"
     gridtolerance="10.0"
     objecttolerance="10.0"
     borderopacity="1.0"
     bordercolor="#666666"
     pagecolor="#ffffff"
     id="base"
     showgrid="false"
     inkscape:zoom="1.01"
     inkscape:cx="232.82943"
     inkscape:cy="284.04921"
     inkscape:window-x="234"
     inkscape:window-y="234"
     inkscape:current-layer="svg2"
     inkscape:window-maximized="0">
    <inkscape:grid
       type="xygrid"
       id="grid3779" />
  </sodipodi:namedview>
  <defs
     id="defs4">
    <inkscape:perspective
       sodipodi:type="inkscape:persp3d"
       inkscape:vp_x="0 : 290 : 1"
       inkscape:vp_y="0 : 1000 : 0"
       inkscape:vp_z="580 : 290 : 1"
       inkscape:persp3d-origin="290 : 193.33333 : 1"
       id="perspective12" />
    <style
       type="text/css"
       id="style6">
   
    .fil0 {fill:#EF7900}
   
  </style>
    <inkscape:perspective
       id="perspective6807"
       inkscape:persp3d-origin="29.116032 : 19.410688 : 1"
       inkscape:vp_z="58.232063 : 29.116032 : 1"
       inkscape:vp_y="0 : 1000 : 0"
       inkscape:vp_x="0 : 29.116032 : 1"
       sodipodi:type="inkscape:persp3d" />
    <inkscape:perspective
       id="perspective6954"
       inkscape:persp3d-origin="290 : 193.33333 : 1"
       inkscape:vp_z="580 : 290 : 1"
       inkscape:vp_y="0 : 1000 : 0"
       inkscape:vp_x="0 : 290 : 1"
       sodipodi:type="inkscape:persp3d" />
    <marker
       viewBox="0 0 10 10"
       refY="5"
       refX="10"
       orient="auto"
       markerWidth="4"
       markerUnits="strokeWidth"
       markerHeight="3"
       id="ArrowStart">
      <path
         id="path2295"
         d="M 10 0 L 0 5 L 10 10 z" />
    </marker>
    <marker
       viewBox="0 0 10 10"
       refY="5"
       refX="0"
       orient="auto"
       markerWidth="4"
       markerUnits="strokeWidth"
       markerHeight="3"
       id="ArrowEnd">
      <path
         id="path2292"
         d="M 0 0 L 10 5 L 0 10 z" />
    </marker>
    <inkscape:perspective
       id="perspective7597"
       inkscape:persp3d-origin="178.5405 : 158.483 : 1"
       inkscape:vp_z="357.08099 : 237.7245 : 1"
       inkscape:vp_y="0 : 1000 : 0"
       inkscape:vp_x="0 : 237.7245 : 1"
       sodipodi:type="inkscape:persp3d" />
  </defs>
  <g
     id="g1327">
    <path
       d="M 66.275,1.768 C 24.94,1.768 1.704,23.139 1.704,66.804 L 1.704,516.927 C 1.704,557.771 22.598,579.156 63.896,579.156 L 515.92,579.156 C 557.227,579.156 578.149,558.84 578.149,516.927 L 578.149,66.804 C 578.149,24.203 557.227,1.768 514.627,1.768 C 514.624,1.768 66.133,1.625 66.275,1.768 z"
       style="fill:#111111;stroke:#eeeeee;stroke-width:3.40799999"
       id="path1329" />
  </g>
  <g
     id="g2319"
     transform="translate(879.29125,36.805119)">
    <path
       id="path2323"
       style="fill:#ffffff;stroke:none"
       d="" />
  </g>
  <g
     id="g2325"
     transform="translate(879.29125,36.805119)">
    <path
       id="path2329"
       style="fill:#ffffff;stroke:none"
       d="" />
  </g>
  <path
     inkscape:connector-curvature="0"
     style="fill:#ffffff;fill-opacity:1;stroke:none;stroke-width:0.74806166"
     d="m 293.98595,219.06712 h -21.52962 c -26.29368,0 -47.25023,21.52779 -47.25023,47.82205 v 97.35796 c 0,21.03515 13.50812,38.70365 32.38925,44.96386 v 15.05178 h 16.76622 v -12.00338 h 117.17311 v 12.00338 h 16.76623 v -14.47993 c 19.72189,-5.8151 34.10363,-23.8647 34.10363,-45.53571 v -97.35796 c 0,-26.29426 -20.95594,-47.82205 -47.25017,-47.82205 h -24.5774 z m 57.53851,0 h -38.2958 z m -89.73755,23.24403 h 140.41716 c 10.0012,0 18.67146,7.90815 18.67146,17.90934 v 66.30267 c 0,10.00118 -8.67026,17.90935 -18.67146,17.90935 H 261.78691 c -10.00118,0 -18.48063,-7.90817 -18.48063,-17.90935 v -66.30267 c 0,-10.00119 8.47945,-17.90934 18.48063,-17.90934 z m 5.14448,115.64893 c 8.25081,0 14.86092,6.80036 14.86092,15.05117 0,8.25077 -6.61011,14.86093 -14.86092,14.86093 -8.25081,0 -14.86092,-6.61016 -14.86092,-14.86093 0,-8.25081 6.61011,-15.05117 14.86092,-15.05117 z m 130.12822,0 c 8.25076,0 15.05178,6.80036 15.05178,15.05117 0,8.25077 -6.80102,14.86093 -15.05178,14.86093 -8.2508,0 -14.86097,-6.61016 -14.86097,-14.86093 0,-8.25081 6.61017,-15.05117 14.86097,-15.05117 z"
     id="rect4085"
     sodipodi:nodetypes="ccccccccccccccccccccccccccccccsssccsssc" />
  <circle
     r="205.81845"
     cy="326.37872"
     cx="291.57001"
     style="opacity:0.5;fill:none;stroke:#ffffff;stroke-width:41.53925323;stroke-linecap:round;stroke-linejoin:round;stroke-miterlimit:4;stroke-dasharray:none;stroke-dashoffset:0;stroke-opacity:1"
     id="path3478" />
  <rect
     style="opacity:0.5;fill:#ffffff;fill-opacity:1;fill-rule:evenodd;stroke:none;stroke-width:0.97546053"
     id="rect3480"
     width="477.00766"
     height="39.750637"
     x="53.066864"
     y="38.515812" />
  <path
     inkscape:connector-curvature="0"
     d="m 169.50855,348.71957 v 22.62233 l -0.51279,3.15475 -9.97642,29.92925 c -1.74186,5.22704 -7.39213,8.05196 -12.61917,6.30967 -5.22704,-1.74187 -8.05196,-7.39231 -6.30968,-12.61935 l 9.46443,-28.39329 v -21.00336 c -5.9639,-3.44984 -9.97643,-9.89799 -9.97643,-17.28333 v -34.91748 c 0,-11.01974 8.9333,-19.95283 19.95285,-19.95283 4.1899,0 8.0781,1.29095 11.28831,3.49774 l 16.84898,9.12662 14.69047,-14.69068 c 3.89599,-3.89598 10.21266,-3.89598 14.10885,0 3.89599,3.896 3.89599,10.21286 0,14.10886 l -19.95284,19.95283 c -3.12182,3.12182 -7.92407,3.82057 -11.80609,1.71794 l -5.22484,-2.83011 v 22.80969 l 24.41448,12.20714 c 3.37982,1.69 5.51477,5.14444 5.51477,8.92331 v 29.92924 c 0,5.50979 -4.46664,9.97644 -9.97643,9.97644 -5.50977,0 -9.9764,-4.46665 -9.9764,-9.97644 v -23.76362 l -18.93306,-9.46662 c -0.33321,0.21948 -0.67241,0.43097 -1.01958,0.6325 z m -9.9764,-77.14185 c -11.01956,0 -19.95286,-8.93328 -19.95286,-19.95282 0,-11.01976 8.9333,-19.95285 19.95286,-19.95285 11.01975,0 19.95282,8.93309 19.95282,19.95285 0,11.01954 -8.93307,19.95282 -19.95282,19.95282 z"
     id="path1447"
     style="fill:#ffffff;fill-opacity:1;stroke-width:19.95283699"
     sodipodi:nodetypes="ccccccccsssccccscccccssssccccsssss" />
</svg>
