<?xml version="1.0" encoding="utf-8"?>
<!-- Generator: Adobe Illustrator 15.0.0, SVG Export Plug-In . SVG Version: 6.00 Build 0)  -->
<!DOCTYPE svg PUBLIC "-//W3C//DTD SVG 1.1//EN" "http://www.w3.org/Graphics/SVG/1.1/DTD/svg11.dtd">
<svg version="1.1" xmlns="http://www.w3.org/2000/svg" xmlns:xlink="http://www.w3.org/1999/xlink" x="0px" y="0px" width="580px"
	 height="580px" viewBox="0 0 580 580" enable-background="new 0 0 580 580" xml:space="preserve">
<g id="Layer_2_1_">
	<g id="Layer_2">
		<g id="g1327">
			<path id="path1329" fill="#111111" stroke="#EEEEEE" stroke-width="3.408" d="M66.275,1.768
				c-41.335,0-64.571,21.371-64.571,65.036v450.123c0,40.844,20.895,62.229,62.192,62.229h452.024
				c41.307,0,62.229-20.315,62.229-62.229V66.804c0-42.602-20.923-65.036-63.521-65.036C514.625,1.768,66.133,1.625,66.275,1.768z"
				/>
		</g>
	</g>
</g>
<g id="Layer_1">
	<path fill="#FFFFFF" d="M349.711,289.815l183.62-86.59l14.946-47.769l-62.715-4.487L288.006,247.91l-189.1-90.97l-65.691-1.484
		l10.45,58.218l165.716,79.127L37.694,377.889l-5.971,50.772c0,0,59.72,1.484,64.198-1.502
		c4.479-2.985,192.586-98.541,192.586-98.541l192.587,98.541l58.209-5.972l-14.911-50.754L349.711,289.815z M484.078,410.748
		L288.507,306.236L83.979,412.232l-16.43-25.368l182.137-95.556L64.563,200.24l16.43-28.363l207.309,94.743l195.776-96.234
		l20.899,29.855L316.87,286.83l188.107,91.059L484.078,410.748z"/>
</g>
</svg>
