<?xml version="1.0" encoding="UTF-8" standalone="no"?>
<!-- Generator: Adobe Illustrator 15.0.0, SVG Export Plug-In . SVG Version: 6.00 Build 0)  -->

<svg
   xmlns:dc="http://purl.org/dc/elements/1.1/"
   xmlns:cc="http://creativecommons.org/ns#"
   xmlns:rdf="http://www.w3.org/1999/02/22-rdf-syntax-ns#"
   xmlns:svg="http://www.w3.org/2000/svg"
   xmlns="http://www.w3.org/2000/svg"
   xmlns:sodipodi="http://sodipodi.sourceforge.net/DTD/sodipodi-0.dtd"
   xmlns:inkscape="http://www.inkscape.org/namespaces/inkscape"
   version="1.1"
   id="Layer_1"
   x="0px"
   y="0px"
   width="580px"
   height="580px"
   viewBox="0 0 580 580"
   enable-background="new 0 0 580 580"
   xml:space="preserve"
   inkscape:version="0.92.3 (2405546, 2018-03-11)"
   sodipodi:docname="railway_junction.svg"><metadata
   id="metadata18"><rdf:RDF><cc:Work
       rdf:about=""><dc:format>image/svg+xml</dc:format><dc:type
         rdf:resource="http://purl.org/dc/dcmitype/StillImage" /><dc:title></dc:title></cc:Work></rdf:RDF></metadata><defs
   id="defs16"><inkscape:path-effect
   bendpath2-nodetypes="cc"
   bendpath4-nodetypes="cc"
   bendpath4="M 438.4112,113.99865 C 381.11485,185.1398 346.8762,259.22341 337.77017,328.22653"
   bendpath3="M 337.77017,328.22653 H 218.79636"
   bendpath2="M 366.23226,48.614029 C 296.34893,129.77676 236.18843,216.585 218.79636,328.22653"
   bendpath1="M 337.77017,93.485824 H 218.79636"
   xx="true"
   yy="false"
   is_visible="true"
   id="path-effect4739"
   effect="envelope" /><inkscape:path-effect
   effect="envelope"
   id="path-effect4735"
   is_visible="true"
   yy="false"
   xx="true"
   bendpath1="M 219.2476,89.888748 H 338.22141"
   bendpath2="M 190.78551,45.016953 C 260.66884,126.17968 320.82934,212.98792 338.22141,324.62945"
   bendpath3="M 219.2476,324.62945 H 338.22141"
   bendpath4="m 118.60657,110.40157 c 57.29635,71.14115 91.535,145.22476 100.64103,214.22788"
   bendpath4-nodetypes="cc"
   bendpath2-nodetypes="cc" /><inkscape:path-effect
   effect="envelope"
   id="path-effect4733"
   is_visible="true"
   yy="false"
   xx="true"
   bendpath1="M 1.704,1.7044444 H 578.149"
   bendpath2="M 578.149,1.7044444 V 579.156"
   bendpath3="M 1.704,579.156 H 578.149"
   bendpath4="M 1.704,1.7044444 V 579.156" /><inkscape:path-effect
   effect="bend_path"
   id="path-effect4731"
   is_visible="true"
   bendpath="M 261.32486,176.3246 H 380.29867"
   prop_scale="0.94215438"
   scale_y_rel="false"
   vertical="false" />
	

		
		
	</defs><sodipodi:namedview
   pagecolor="#ffffff"
   bordercolor="#666666"
   borderopacity="1"
   objecttolerance="10"
   gridtolerance="10"
   guidetolerance="10"
   inkscape:pageopacity="0"
   inkscape:pageshadow="2"
   inkscape:window-width="1536"
   inkscape:window-height="1067"
   id="namedview14"
   showgrid="false"
   inkscape:zoom="0.41986485"
   inkscape:cx="258.73351"
   inkscape:cy="290.04574"
   inkscape:window-x="384"
   inkscape:window-y="42"
   inkscape:window-maximized="1"
   inkscape:current-layer="Layer_1" />
<g
   id="Layer_2_1_">
	<g
   id="Layer_2">
		<g
   id="g1327">
			<path
   id="path1329"
   d="m 66.273296,1.7662956 c -41.335,0 -64.571,21.3710004 -64.571,65.0360004 V 516.9253 c 0,40.844 20.896,62.229 62.192,62.229 150.674664,0 301.349334,0 452.024004,0 41.307,0 62.229,-20.314 62.229,-62.229 V 66.802296 c 0,-42.603 -20.923,-65.0360004 -63.521,-65.0360004 -0.003,0 -448.495004,-0.143 -448.353004,0 z"
   inkscape:connector-curvature="0"
   style="fill:#111111;stroke:#eeeeee;stroke-width:3.40799999"
   inkscape:path-effect="#path-effect4733"
   inkscape:original-d="M 66.275,1.768 C 24.94,1.768 1.704,23.139 1.704,66.804 v 450.123 c 0,40.844 20.896,62.229 62.192,62.229 H 515.92 c 41.307,0 62.229,-20.314 62.229,-62.229 V 66.804 c 0,-42.603 -20.923,-65.036 -63.521,-65.036 -0.003,0 -448.495,-0.143 -448.353,0 z" />
		</g>
	</g>
</g>

<g
   id="g4744"
   transform="matrix(1.1034861,0,0,1,-17.123719,-8.911445)"
   style="fill:#ffffff;fill-opacity:1;stroke:#ffffff;stroke-opacity:1"><path
     style="fill:#ffffff;fill-opacity:1;stroke:#ffffff;stroke-width:2.68203187;stroke-miterlimit:4;stroke-dasharray:none;stroke-opacity:1"
     inkscape:connector-curvature="0"
     id="path10"
     d="m 316.66094,305.74912 -5.81897,0.0344 0.10995,18.86565 -63.47716,0.37515 -0.10995,-18.86563 -5.81897,0.0344 0.10995,18.86564 -21.35657,0.12622 0.0154,2.63862 21.35657,-0.12622 0.14608,25.06483 -21.35657,0.12622 0.0154,2.63862 21.35657,-0.12622 0.14608,25.06536 -21.35657,0.12622 0.0154,2.63863 21.35658,-0.12623 0.14606,25.06483 -21.35657,0.12623 0.0154,2.63862 21.35657,-0.12622 0.14608,25.06536 -21.35658,0.12622 0.0154,2.63863 21.35658,-0.12623 0.14608,25.06589 -21.35657,0.12622 0.0153,2.63863 21.35657,-0.12622 0.14609,25.06483 -21.35657,0.12622 0.0153,2.63863 21.35657,-0.12622 0.14609,25.06588 -21.35658,0.12621 0.0154,2.63863 21.35657,-0.12623 0.10996,18.86513 5.81895,-0.0344 -0.10994,-18.86405 63.47718,-0.37517 0.10994,18.86512 5.81897,-0.0344 -0.10996,-18.86511 21.35658,-0.12622 -0.0153,-2.63863 -21.35658,0.12622 -0.14608,-25.06588 21.35657,-0.12622 -0.0154,-2.63863 -21.35658,0.12622 -0.14608,-25.06483 21.35658,-0.12622 -0.0154,-2.63862 -21.35658,0.12622 -0.14608,-25.06588 21.35658,-0.12624 -0.0154,-2.63862 -21.35657,0.12622 -0.14608,-25.06536 21.35658,-0.12622 -0.0154,-2.63863 -21.35656,0.12622 -0.14609,-25.06482 21.35659,-0.12622 -0.0154,-2.63863 -21.35658,0.12622 -0.14608,-25.06535 21.35657,-0.12622 -0.0154,-2.63863 -21.35658,0.12622 -0.14608,-25.06587 21.35657,-0.12623 -0.0153,-2.63863 -21.35658,0.12623 z m -4.5788,212.82845 -63.47716,0.37516 -0.14609,-25.06589 63.47717,-0.37516 z m -0.16146,-27.70452 -63.47717,0.37516 -0.14608,-25.06483 63.47717,-0.37516 z m -0.16146,-27.70346 -63.47716,0.37517 -0.14609,-25.06588 63.47716,-0.37517 z m -0.16146,-27.7045 -63.47716,0.37516 -0.14609,-25.06535 63.47716,-0.37517 z m -0.16146,-27.70399 -63.47716,0.37517 -0.14608,-25.06483 63.47716,-0.37517 z m -0.16145,-27.70345 -63.47717,0.37517 -0.14608,-25.06537 63.47717,-0.37516 z m -0.16146,-27.70399 -63.47717,0.37517 -0.14608,-25.06588 63.47716,-0.37517 z" /><path
     inkscape:original-d="m 315.60932,89.888748 -5.81897,0.0344 0.10995,18.865652 -63.47716,0.37515 -0.10995,-18.865632 -5.81897,0.0344 0.10995,18.865642 -21.35657,0.12622 0.0154,2.63862 21.35657,-0.12622 0.14608,25.06483 -21.35657,0.12622 0.0154,2.63862 21.35657,-0.12622 0.14608,25.06536 -21.35657,0.12622 0.0154,2.63863 21.35658,-0.12623 0.14606,25.06483 -21.35657,0.12623 0.0154,2.63862 21.35657,-0.12622 0.14608,25.06536 -21.35658,0.12622 0.0154,2.63863 21.35658,-0.12623 0.14608,25.06589 -21.35657,0.12622 0.0153,2.63863 21.35657,-0.12622 0.14609,25.06483 -21.35657,0.12622 0.0153,2.63863 21.35657,-0.12622 0.14609,25.06588 -21.35658,0.12621 0.0154,2.63863 21.35657,-0.12623 0.10996,18.86513 5.81895,-0.0344 -0.10994,-18.86405 63.47718,-0.37517 0.10994,18.86512 5.81897,-0.0344 -0.10996,-18.86511 21.35658,-0.12622 -0.0153,-2.63863 -21.35658,0.12622 -0.14608,-25.06588 21.35657,-0.12622 -0.0154,-2.63863 -21.35658,0.12622 -0.14608,-25.06483 21.35658,-0.12622 -0.0154,-2.63862 -21.35658,0.12622 -0.14608,-25.06588 21.35658,-0.12624 -0.0154,-2.63862 -21.35657,0.12622 -0.14608,-25.06536 21.35658,-0.12622 -0.0154,-2.63863 -21.35656,0.12622 -0.14609,-25.06482 21.35659,-0.12622 -0.0154,-2.63863 -21.35658,0.12622 -0.14608,-25.06535 21.35657,-0.12622 -0.0154,-2.63863 -21.35658,0.12622 -0.14608,-25.06587 21.35657,-0.12623 -0.0153,-2.63863 -21.35658,0.12623 z m -4.5788,212.828452 -63.47716,0.37516 -0.14609,-25.06589 63.47717,-0.37516 z m -0.16146,-27.70452 -63.47717,0.37516 -0.14608,-25.06483 63.47717,-0.37516 z m -0.16146,-27.70346 -63.47716,0.37517 -0.14609,-25.06588 63.47716,-0.37517 z m -0.16146,-27.7045 -63.47716,0.37516 -0.14609,-25.06535 63.47716,-0.37517 z m -0.16146,-27.70399 -63.47716,0.37517 -0.14608,-25.06483 63.47716,-0.37517 z m -0.16145,-27.70345 -63.47717,0.37517 -0.14608,-25.06537 63.47717,-0.37516 z m -0.16146,-27.70399 -63.47717,0.37517 -0.14608,-25.06588 63.47716,-0.37517 z"
     inkscape:path-effect="#path-effect4735"
     d="m 177.24554,57.940137 c -1.14156,1.107892 -2.28523,2.213285 -3.43102,3.316173 5.30033,6.20466 10.53887,12.455695 15.69846,18.75935 -13.28035,11.346121 -26.88752,22.27895 -40.82546,32.79266 -4.29605,-5.50788 -8.67675,-10.96101 -13.13155,-16.360677 -1.19248,1.047551 -2.38712,2.092534 -3.58393,3.134942 4.36866,5.313175 8.66334,10.681745 12.87408,16.106555 -4.70974,3.5114 -9.45694,6.97527 -14.24174,10.39141 0.54392,0.71407 1.0863,1.42939 1.6271,2.14596 4.83066,-3.37005 9.62279,-6.7894 14.37653,-10.25783 5.56294,7.22834 10.97594,14.55704 16.21558,21.98825 -5.16351,3.06991 -10.37156,6.07874 -15.62422,9.02635 0.50906,0.74013 1.01634,1.48149 1.52184,2.22409 5.29541,-2.90456 10.54586,-5.8713 15.75141,-8.90008 5.20307,7.45309 10.23095,15.00985 15.06019,22.6726 -5.59051,2.64282 -11.2266,5.21729 -16.90826,7.72337 0.46963,0.76595 0.93726,1.53312 1.40289,2.30151 5.71999,-2.46504 11.39463,-4.99884 17.02391,-7.60134 4.78712,7.68505 9.37366,15.47719 13.73612,23.37894 -5.97692,2.21935 -11.9944,4.3694 -18.05234,6.45018 0.42559,0.79155 0.84898,1.58432 1.27014,2.3783 6.09053,-2.04073 12.1414,-4.15048 18.1525,-6.32928 1.97872,3.63407 3.90986,7.29136 5.79116,10.97215 1.47102,2.87594 2.91376,5.76736 4.32725,8.67406 0.71692,1.47192 1.42606,2.94822 2.12724,4.4288 -6.30916,1.79758 -12.6483,3.53384 -19.01726,5.20894 0.37691,0.81707 0.75137,1.63537 1.12334,2.45489 6.39645,-1.63681 12.76399,-3.33364 19.1025,-5.09065 3.80138,8.16161 7.35883,16.45121 10.63957,24.85481 -6.59524,1.35354 -13.21147,2.65669 -19.84858,3.90959 0.32119,0.84144 0.63953,1.68397 0.95498,2.52758 6.66027,-1.21046 13.30042,-2.47025 19.92036,-3.7795 3.22199,8.42707 6.16383,16.96662 8.79273,25.60459 -6.83197,0.87284 -13.67762,1.70394 -20.53686,2.49341 0.25718,0.86268 0.51112,1.7263 0.76177,2.59085 6.87795,-0.74336 13.74292,-1.52766 20.59483,-2.35299 2.56275,8.65889 4.80908,17.4147 6.70618,26.25329 -7.01817,0.36055 -14.04437,0.68572 -21.07853,0.97559 0.18488,0.88078 0.36612,1.76235 0.54368,2.64469 7.04831,-0.24059 14.0891,-0.516 21.12232,-0.8263 1.37219,6.66511 2.54459,13.37628 3.50323,20.12744 1.94188,0.0152 3.88341,0.0279 5.82459,0.0383 -0.98101,-6.85213 -2.17913,-13.66289 -3.58031,-20.426 20.89221,-0.97875 41.71743,-2.26589 62.47381,-3.86324 1.74944,7.86973 3.25602,15.79948 4.50511,23.78056 1.93328,-0.0416 3.8662,-0.0856 5.79875,-0.13196 -1.27582,-8.08665 -2.81317,-16.12152 -4.59738,-24.09571 6.97915,-0.55656 13.9505,-1.14825 20.91399,-1.77515 -0.26794,-1.16958 -0.54101,-2.33795 -0.81916,-3.50506 -6.94432,0.68161 -13.89696,1.32751 -20.85786,1.93778 -2.46202,-10.57245 -5.35622,-21.03559 -8.64822,-31.36863 6.75895,-1.1152 13.50453,-2.27178 20.23666,-3.46985 -0.37112,-1.14102 -0.74694,-2.28053 -1.12742,-3.41852 -6.70665,1.25201 -13.42737,2.46181 -20.16207,3.62951 -3.37523,-10.305 -7.14459,-20.47772 -11.27371,-30.49745 6.47638,-1.65882 12.93217,-3.36756 19.36724,-5.12637 -0.4653,-1.10662 -0.93487,-2.21146 -1.40867,-3.3145 -6.4034,1.81149 -12.82829,3.57197 -19.27455,5.2816 -4.20466,-9.98772 -8.76549,-19.82023 -13.64813,-29.47689 6.13264,-2.18237 12.23579,-4.42549 18.3093,-6.72954 -0.55053,-1.06642 -1.10491,-2.13078 -1.66308,-3.19306 -6.03576,2.35497 -12.10209,4.64787 -18.19884,6.87886 -0.8135,-1.58089 -1.6356,-3.15697 -2.46613,-4.72815 -1.81417,-3.43629 -3.66765,-6.85057 -5.55896,-10.242 -2.5107,-4.50579 -5.08844,-8.9748 -7.72873,-13.40883 5.72992,-2.66503 11.41967,-5.39924 17.06914,-8.20267 -0.62407,-1.02275 -1.25122,-2.04353 -1.88141,-3.06235 -5.60826,2.84595 -11.25757,5.62247 -16.94782,8.3296 -5.6018,-9.27846 -11.47538,-18.40506 -17.57921,-27.3964 5.30976,-3.08514 10.57403,-6.23882 15.79279,-9.46097 -0.683,-0.98404 -1.36852,-1.96636 -2.05651,-2.94699 -5.17819,3.25902 -10.40206,6.44997 -15.67162,9.57279 -6.152,-8.96329 -12.53046,-17.79387 -19.09385,-26.50811 4.89024,-3.46353 9.73575,-6.98861 14.53658,-10.575127 -0.73006,-0.950785 -1.46209,-1.900116 -2.19602,-2.848018 -4.7622,3.618778 -9.56868,7.177125 -14.41951,10.674905 -6.60205,-8.690169 -13.38542,-17.2667 -20.30855,-25.745655 4.48525,-3.810941 8.93255,-7.670176 13.34206,-11.57749 -0.76528,-0.922982 -1.53197,-1.844769 -2.29999,-2.765383 -4.37413,3.935989 -8.78509,7.8255 -13.23303,11.66831 -5.23254,-6.366421 -10.54227,-12.679128 -15.91142,-18.944815 z M 305.6575,297.40324 c -20.70288,1.75618 -41.47862,3.19778 -62.32536,4.32668 -1.93696,-8.96872 -4.22898,-17.85177 -6.84313,-26.6345 20.34442,-2.51951 40.57329,-5.40176 60.6842,-8.64938 3.2304,10.19747 6.06992,20.52329 8.48429,30.9572 z m -9.51742,-34.17331 c -20.03985,3.40253 -40.2031,6.43336 -60.4873,9.09523 -2.68148,-8.76108 -5.6816,-17.4203 -8.96742,-25.96307 19.64336,-3.97152 39.10792,-8.38034 58.39069,-13.22991 4.05242,9.88864 7.75184,19.92795 11.06403,30.09775 z m -12.35555,-33.21571 c -19.19449,4.99908 -38.57761,9.54918 -58.14634,13.65382 -3.34576,-8.51845 -6.97378,-16.91889 -10.85116,-25.18681 18.7926,-5.31973 37.32842,-11.17154 55.60391,-17.55969 4.79112,9.5313 9.26706,19.23557 13.39359,29.09268 z m -14.91706,-32.09691 c -18.17035,6.53082 -36.60927,12.51514 -55.31317,17.95731 -0.71,-1.4888 -1.42802,-2.97322 -2.15387,-4.45317 -1.44127,-2.94409 -2.91229,-5.87253 -4.41204,-8.78504 -1.92443,-3.74056 -3.90041,-7.45715 -5.92551,-11.15014 17.80216,-6.58779 35.25256,-13.78569 52.34843,-21.59478 2.58428,4.3693 5.10673,8.77209 7.56305,13.21004 1.85493,3.34814 3.67304,6.71843 5.45291,10.11006 0.82185,1.56371 1.6353,3.13231 2.4402,4.70572 z m -17.18398,-30.92687 c -16.9792,7.93392 -34.31973,15.25477 -52.019,21.96343 -4.4521,-8.00674 -9.13416,-15.90287 -14.0213,-23.69202 16.65824,-7.84651 32.91549,-16.29978 48.77111,-25.35864 5.99991,8.89311 11.76969,17.91702 17.26919,27.08723 z M 232.5118,137.09891 c -15.73644,9.17145 -31.8762,17.74075 -48.41887,25.70652 -4.93018,-7.76689 -10.06335,-15.42799 -15.37467,-22.98673 15.39956,-9.10274 30.40235,-18.7532 45.00992,-28.94795 6.46095,8.62455 12.73553,17.36218 18.78362,26.22816 z m -20.83025,-28.9482 c -14.48978,10.29817 -29.37139,20.06079 -44.64658,29.28422 -5.3487,-7.53745 -10.87358,-14.9738 -16.54982,-22.31228 14.06718,-10.38854 27.7953,-21.210049 41.1881,-32.458886 6.82556,8.395145 13.50838,16.8858 20.0083,25.486946 z"
     id="path4729"
     inkscape:connector-curvature="0"
     style="fill:#ffffff;fill-opacity:1;stroke:#ffffff;stroke-width:2.68203187;stroke-miterlimit:4;stroke-dasharray:none;stroke-opacity:1" /><path
     style="fill:#ffffff;fill-opacity:1;stroke:#ffffff;stroke-width:2.68203187;stroke-miterlimit:4;stroke-dasharray:none;stroke-opacity:1"
     inkscape:connector-curvature="0"
     id="path4737"
     d="m 425.27129,101.15568 c -1.1588,-1.08729 -2.3197,-2.172086 -3.48273,-3.254376 -4.32373,5.295596 -8.58593,10.657536 -12.77646,16.088076 -13.46183,-11.11843 -27.2504,-21.823568 -41.36965,-32.109579 5.04725,-6.229769 10.16073,-12.392611 15.32391,-18.495949 -1.2097,-1.026955 -2.42156,-2.051342 -3.63558,-3.073156 -5.24877,6.190098 -10.44768,12.437779 -15.57962,18.750942 -4.77073,-3.434788 -9.57892,-6.822055 -14.4247,-10.161579 -0.76245,0.927803 -1.52349,1.85674 -2.28308,2.786839 4.89131,3.293276 9.7441,6.63585 14.55851,10.027509 -6.79288,8.412119 -13.46243,16.940679 -19.96839,25.603853 -5.22085,-2.99134 -10.48624,-5.9216 -15.79623,-8.790641 -0.72705,0.954365 -1.45213,1.910121 -2.17519,2.867301 5.35236,2.82578 10.65977,5.71374 15.92229,8.66374 -6.47111,8.69175 -12.77364,17.519 -18.8673,26.49966 -5.64367,-2.56179 -11.33291,-5.05523 -17.0677,-7.48027 -0.6798,0.98637 -1.35707,1.97438 -2.03176,2.96408 5.7727,2.38374 11.50007,4.83623 17.18208,7.35743 -6.04903,9.01283 -11.8844,18.18006 -17.46585,27.51936 -6.02535,-2.13533 -12.09125,-4.20136 -18.19761,-6.19812 -0.62074,1.02375 -1.23839,2.04941 -1.85289,3.07701 6.13846,1.9564 12.23728,3.98182 18.29633,6.07631 -2.53542,4.30054 -5.01644,8.63755 -7.4392,13.01272 -1.90225,3.43793 -3.7631,6.89949 -5.58113,10.38381 -0.91876,1.76305 -1.82683,3.53162 -2.72401,5.30557 -6.35219,-1.71 -12.73434,-3.35866 -19.14631,-4.94615 -0.54735,1.06637 -1.09083,2.13475 -1.63041,3.2051 6.43889,1.54884 12.84889,3.15771 19.22985,4.82677 -4.86338,9.78804 -9.39395,19.73673 -13.55827,29.82488 -6.63188,-1.26246 -13.28475,-2.47453 -19.95847,-3.63633 -0.46188,1.10544 -0.91949,2.21261 -1.37278,3.32147 6.69623,1.11906 13.37236,2.28746 20.02829,3.50533 -4.08667,10.11687 -7.8036,20.37099 -11.11737,30.74124 -6.86135,-0.7788 -13.73636,-1.51586 -20.62494,-2.21128 -0.36769,1.13861 -0.73068,2.27866 -1.08893,3.42012 6.90656,0.64906 13.80015,1.33905 20.68069,2.07009 -3.22866,10.39491 -6.05061,20.90376 -8.43246,31.5055 -7.03939,-0.26408 -14.08679,-0.49278 -21.14214,-0.68617 -0.26474,1.16587 -0.52436,2.33289 -0.77884,3.50104 7.06867,0.1439 14.12986,0.32262 21.18348,0.53624 -1.72261,7.99364 -3.19393,16.03866 -4.39972,24.12608 1.94578,-0.0419 3.89121,-0.0813 5.83628,-0.11842 1.18501,-7.98528 2.63211,-15.9295 4.3271,-23.82393 20.95289,0.6914 41.83895,1.69125 62.65634,3.00136 -1.36445,6.78434 -2.52136,13.60648 -3.45712,20.46007 1.93721,0.0149 3.87406,0.0322 5.81054,0.0519 0.91075,-6.7477 2.03856,-13.46434 3.36985,-20.14382 6.99968,0.45993 13.99159,0.955 20.97565,1.48527 0.16865,-0.87979 0.34097,-1.75889 0.51694,-2.63728 -6.96572,-0.5852 -13.93973,-1.13468 -20.92199,-1.64852 1.84417,-8.86098 4.04424,-17.65483 6.56837,-26.36715 6.7877,1.02096 13.56205,2.08331 20.32296,3.18716 0.24187,-0.8636 0.48704,-1.72635 0.73547,-2.58823 -6.73617,-1.15805 -13.4864,-2.27387 -20.2506,-3.34759 2.5919,-8.69463 5.50449,-17.30624 8.70592,-25.82034 6.51247,1.5675 13.00436,3.18494 19.47555,4.85245 0.30706,-0.84417 0.61703,-1.68733 0.92987,-2.52948 -6.44016,-1.7205 -12.90181,-3.38999 -19.38481,-5.0086 3.26204,-8.49377 6.8096,-16.88853 10.61083,-25.16973 6.17518,2.09448 12.32088,4.24974 18.43696,6.46594 0.36417,-0.82151 0.73087,-1.64185 1.10006,-2.46103 -6.07889,-2.26749 -12.18833,-4.47289 -18.3282,-6.61637 0.63288,-1.35582 1.2725,-2.70854 1.91873,-4.0581 1.41682,-2.95413 2.86636,-5.89226 4.3477,-8.81416 1.95833,-3.86 3.96631,-7.69037 6.02152,-11.49151 5.77795,2.58077 11.51573,5.23073 17.21323,7.94992 0.41425,-0.79712 0.83077,-1.59308 1.24954,-2.38788 -5.65678,-2.76201 -11.3546,-5.4546 -17.09335,-8.07778 4.35794,-7.95237 8.92136,-15.77564 13.668,-23.47343 5.36255,3.00389 10.67963,6.07632 15.95121,9.21723 0.45968,-0.77261 0.92142,-1.54403 1.3852,-2.31429 -5.23143,-3.17804 -10.50854,-6.288 -15.83132,-9.32982 4.78502,-7.67151 9.75038,-15.21708 14.87375,-22.64053 4.94729,3.38477 9.84985,6.8311 14.70774,10.33886 0.50058,-0.74782 1.00299,-1.49445 1.50723,-2.23989 -4.81963,-3.54024 -9.68354,-7.02004 -14.59179,-10.43927 5.15644,-7.39785 10.46791,-14.67306 15.912,-21.82963 4.54599,3.73417 9.05405,7.51662 13.52433,11.34716 0.53691,-0.72277 1.07545,-1.44435 1.61558,-2.16473 -4.43522,-3.85937 -8.90726,-7.67227 -13.41627,-11.43846 4.1182,-5.36746 8.30982,-10.66747 12.56529,-15.90179 z M 315.11141,303.89466 c -20.76632,-1.46956 -41.60535,-2.62448 -62.5152,-3.46665 2.34403,-10.47111 5.12225,-20.85215 8.30139,-31.12259 20.42956,2.23926 40.74372,4.84133 60.94007,7.80885 -2.58381,8.84856 -4.83654,17.78033 -6.72626,26.78039 z m 7.5532,-29.57202 c -20.12748,-3.12317 -40.37821,-5.87458 -60.74975,-8.25696 3.26304,-10.24649 6.92344,-20.38024 10.94791,-30.38064 19.75037,3.69992 39.32204,7.83724 58.71205,12.41539 -3.27644,8.64598 -6.25717,17.39171 -8.91021,26.22221 z m 9.95476,-28.94942 c -19.30368,-4.72857 -38.79586,-9.00806 -58.47353,-12.84201 4.10093,-9.97251 8.56246,-19.80953 13.35127,-29.49037 18.91882,5.05836 37.58096,10.64889 55.98287,16.77586 -3.89126,8.40749 -7.52213,16.93134 -10.86061,25.55652 z m 12.09811,-28.20773 c -18.29846,-6.27071 -36.86539,-11.99482 -55.6972,-17.17668 0.87695,-1.74179 1.76444,-3.47842 2.66229,-5.20977 1.79021,-3.44688 3.62275,-6.87139 5.49621,-10.2727 2.39205,-4.33872 4.8413,-8.6394 7.34396,-12.90365 17.94471,6.33719 35.53775,13.28457 52.77634,20.84321 -2.09713,3.84255 -4.14692,7.71546 -6.14682,11.61924 -1.51777,2.96522 -3.00271,5.94739 -4.45388,8.94623 -0.66725,1.38143 -1.3276,2.76616 -1.9809,4.15412 z m 13.9829,-27.26995 c -17.12335,-7.68438 -34.60793,-14.75563 -52.45117,-21.21461 5.49299,-9.23354 11.23396,-18.29606 17.18406,-27.20414 16.81499,7.60489 33.22907,15.81659 49.24161,24.63393 -4.84944,7.7967 -9.51549,15.7234 -13.9745,23.78482 z m 15.51207,-26.24277 c -15.89463,-8.9307 -32.1925,-17.25921 -48.89317,-24.98413 5.99378,-8.87587 12.19203,-17.5982 18.55585,-26.18378 15.5689,8.8686 30.74112,18.28494 45.51821,28.24559 -5.22484,7.51369 -10.29305,15.15283 -15.18089,22.92232 z m 16.83608,-25.291 c -14.66042,-10.06469 -29.71259,-19.59381 -45.15824,-28.58372 6.39833,-8.55708 12.95741,-16.978185 19.63835,-25.280386 14.24753,10.160345 28.15609,20.753656 41.72943,31.774306 -5.54083,7.24081 -10.95193,14.60238 -16.20954,22.0898 z"
     inkscape:path-effect="#path-effect4739"
     inkscape:original-d="m 241.40845,93.485824 5.81897,0.0344 -0.10995,18.865656 63.47716,0.37515 0.10995,-18.865636 5.81897,0.0344 -0.10995,18.865646 21.35657,0.12622 -0.0154,2.63862 -21.35657,-0.12622 -0.14608,25.06483 21.35657,0.12622 -0.0154,2.63862 -21.35657,-0.12622 -0.14608,25.06536 21.35657,0.12622 -0.0154,2.63863 -21.35658,-0.12623 -0.14606,25.06483 21.35657,0.12623 -0.0154,2.63862 -21.35657,-0.12622 -0.14608,25.06536 21.35658,0.12622 -0.0154,2.63863 -21.35658,-0.12623 -0.14608,25.06589 21.35657,0.12622 -0.0153,2.63863 -21.35657,-0.12622 -0.14609,25.06483 21.35657,0.12622 -0.0153,2.63863 -21.35657,-0.12622 -0.14609,25.06588 21.35658,0.12621 -0.0154,2.63863 -21.35657,-0.12623 -0.10996,18.86513 -5.81895,-0.0344 0.10994,-18.86405 -63.47718,-0.37517 -0.10994,18.86512 -5.81897,-0.0344 0.10996,-18.86511 -21.35658,-0.12622 0.0153,-2.63863 21.35658,0.12622 0.14608,-25.06588 -21.35657,-0.12622 0.0154,-2.63863 21.35658,0.12622 0.14608,-25.06483 -21.35658,-0.12622 0.0154,-2.63862 21.35658,0.12622 0.14608,-25.06588 -21.35658,-0.12624 0.0154,-2.63862 21.35657,0.12622 0.14608,-25.06536 -21.35658,-0.12622 0.0154,-2.63863 21.35656,0.12622 0.14609,-25.06482 -21.35659,-0.12622 0.0154,-2.63863 21.35658,0.12622 0.14608,-25.06535 -21.35657,-0.12622 0.0154,-2.63863 21.35658,0.12622 0.14608,-25.06587 -21.35657,-0.12623 0.0153,-2.63863 21.35658,0.12623 z m 4.5788,212.828456 63.47716,0.37516 0.14609,-25.06589 -63.47717,-0.37516 z m 0.16146,-27.70452 63.47717,0.37516 0.14608,-25.06483 -63.47717,-0.37516 z m 0.16146,-27.70346 63.47716,0.37517 0.14609,-25.06588 -63.47716,-0.37517 z m 0.16146,-27.7045 63.47716,0.37516 0.14609,-25.06535 -63.47716,-0.37517 z m 0.16146,-27.70399 63.47716,0.37517 0.14608,-25.06483 -63.47716,-0.37517 z m 0.16145,-27.70345 63.47717,0.37517 0.14608,-25.06537 -63.47717,-0.37516 z m 0.16146,-27.70399 63.47717,0.37517 0.14608,-25.06588 -63.47716,-0.37517 z" /></g></svg>