<?xml version="1.0" encoding="UTF-8" standalone="no"?>
<!-- Generator: Adobe Illustrator 15.0.0, SVG Export Plug-In . SVG Version: 6.00 Build 0)  -->

<svg
   xmlns:dc="http://purl.org/dc/elements/1.1/"
   xmlns:cc="http://creativecommons.org/ns#"
   xmlns:rdf="http://www.w3.org/1999/02/22-rdf-syntax-ns#"
   xmlns:svg="http://www.w3.org/2000/svg"
   xmlns="http://www.w3.org/2000/svg"
   xmlns:sodipodi="http://sodipodi.sourceforge.net/DTD/sodipodi-0.dtd"
   xmlns:inkscape="http://www.inkscape.org/namespaces/inkscape"
   version="1.1"
   x="0px"
   y="0px"
   width="580px"
   height="580px"
   viewBox="0 0 580 580"
   enable-background="new 0 0 580 580"
   xml:space="preserve"
   id="svg881"
   sodipodi:docname="railway_signals.svg"
   inkscape:version="0.92.3 (2405546, 2018-03-11)"><metadata
   id="metadata887"><rdf:RDF><cc:Work
       rdf:about=""><dc:format>image/svg+xml</dc:format><dc:type
         rdf:resource="http://purl.org/dc/dcmitype/StillImage" /><dc:title></dc:title></cc:Work></rdf:RDF></metadata><defs
   id="defs885" /><sodipodi:namedview
   pagecolor="#ffffff"
   bordercolor="#666666"
   borderopacity="1"
   objecttolerance="10"
   gridtolerance="10"
   guidetolerance="10"
   inkscape:pageopacity="0"
   inkscape:pageshadow="2"
   inkscape:window-width="1387"
   inkscape:window-height="981"
   id="namedview883"
   showgrid="false"
   inkscape:zoom="1.2316035"
   inkscape:cx="290"
   inkscape:cy="290"
   inkscape:window-x="383"
   inkscape:window-y="81"
   inkscape:window-maximized="0"
   inkscape:current-layer="svg881" />
<g
   id="Layer_2"
   transform="translate(0.81194959,-0.5683013)">
	<g
   id="g1327">
		<path
   id="path1329"
   d="M 66.275,1.768 C 24.94,1.768 1.704,23.139 1.704,66.804 v 450.123 c 0,40.844 20.894,62.229 62.192,62.229 H 515.92 c 41.307,0 62.229,-20.316 62.229,-62.229 V 66.804 c 0,-42.601 -20.923,-65.036 -63.522,-65.036 -0.003,0 -448.494,-0.143 -448.352,0 z"
   inkscape:connector-curvature="0"
   style="fill:#111111;stroke:#eeeeee;stroke-width:3.40799999" />
	</g>
</g>

<path
   inkscape:connector-curvature="0"
   d="m 351.5563,74.517005 c 45.32327,0 82.09903,37.098985 82.09903,82.889125 v 265.18773 c 0,45.75423 -36.73986,82.88913 -82.09903,82.88913 l -123.11261,-0.0359 c -45.35917,0.0359 -82.09903,-37.09899 -82.09903,-82.85322 V 157.40613 c 0,-45.79014 36.73986,-82.889125 82.09903,-82.889125 z M 289.99998,325.91384 c -29.73665,0 -53.87074,24.09817 -53.87074,53.87074 0,29.73665 24.13409,53.87075 53.87074,53.87075 29.73668,0 53.87075,-24.1341 53.87075,-53.87075 0,-29.77257 -24.13407,-53.87074 -53.87075,-53.87074 z m 0,-179.56918 c -29.77255,0 -53.87074,24.1341 -53.87074,53.87075 0,29.73665 24.09819,53.87074 53.87074,53.87074 29.73668,0 53.87075,-24.13409 53.87075,-53.87074 0,-29.73665 -24.13407,-53.87075 -53.87075,-53.87075 z"
   id="path3230"
   style="stroke-width:35.9138298;fill:#ffffff;fill-opacity:1" /></svg>