<?xml version="1.0" encoding="UTF-8" standalone="no"?>
<!-- Generator: Adobe Illustrator 15.0.0, SVG Export Plug-In . SVG Version: 6.00 Build 0)  -->

<svg
   version="1.1"
   id="Layer_1"
   x="0px"
   y="0px"
   width="580px"
   height="580px"
   viewBox="0 0 580 580"
   enable-background="new 0 0 580 580"
   xml:space="preserve"
   sodipodi:docname="railyway_platform_edge.svg"
   inkscape:version="1.4 (86a8ad7, 2024-10-11)"
   xmlns:inkscape="http://www.inkscape.org/namespaces/inkscape"
   xmlns:sodipodi="http://sodipodi.sourceforge.net/DTD/sodipodi-0.dtd"
   xmlns="http://www.w3.org/2000/svg"
   xmlns:svg="http://www.w3.org/2000/svg"><defs
   id="defs1">
	

		
		
	</defs><sodipodi:namedview
   id="namedview1"
   pagecolor="#ffffff"
   bordercolor="#666666"
   borderopacity="1.0"
   inkscape:showpageshadow="2"
   inkscape:pageopacity="0.0"
   inkscape:pagecheckerboard="0"
   inkscape:deskcolor="#d1d1d1"
   inkscape:zoom="1.5568966"
   inkscape:cx="289.67885"
   inkscape:cy="290"
   inkscape:window-width="1920"
   inkscape:window-height="1147"
   inkscape:window-x="-8"
   inkscape:window-y="-8"
   inkscape:window-maximized="1"
   inkscape:current-layer="Layer_1" />
<g
   id="Layer_2_1_">
	<g
   id="Layer_2">
		<g
   id="g1327">
			<path
   id="path1329"
   fill="#111111"
   stroke="#EEEEEE"
   stroke-width="3.408"
   d="M66.275,1.768     c-41.335,0-64.571,21.371-64.571,65.036v450.123c0,40.844,20.896,62.229,62.192,62.229h452.024     c41.307,0,62.229-20.314,62.229-62.229V66.804c0-42.603-20.923-65.036-63.521-65.036C514.625,1.768,66.133,1.625,66.275,1.768z" />
		</g>
	</g>
</g>
<path
   fill="#ffffff"
   d="m 452.44054,56.957297 h -7.57371 V 95.003648 H 362.24862 V 56.957297 h -7.57364 v 38.046351 h -27.79644 v 5.321312 h 27.79644 v 50.54825 h -27.79644 v 5.32132 h 27.79644 v 50.54934 h -27.79644 v 5.3213 h 27.79644 v 50.5482 h -27.79644 v 5.32135 h 27.79644 v 50.54934 h -27.79644 v 5.32125 h 27.79644 v 50.55043 h -27.79644 v 5.32131 h 27.79644 v 50.54823 h -27.79644 v 5.32135 h 27.79644 v 50.55035 h -27.79644 v 5.32133 h 27.79644 v 38.04525 h 7.57364 v -38.04312 h 82.61821 v 38.0453 h 7.57371 v -38.0453 h 27.79642 v -5.32132 h -27.79642 v -50.55039 h 27.79642 v -5.32131 H 452.44054 V 379.6792 h 27.79642 v -5.32135 h -27.79642 v -50.55034 h 27.79642 v -5.32133 h -27.79642 v -50.54929 h 27.79642 v -5.32137 h -27.79642 v -50.54823 h 27.79642 v -5.32127 h -27.79642 v -50.54939 h 27.79642 v -5.32135 h -27.79642 v -50.55032 h 27.79642 v -5.321312 h -27.79642 z m -7.57371,429.141823 h -82.61821 v -50.55039 h 82.61821 z m 0,-55.8717 H 362.24862 V 379.6792 h 82.61821 z m 0,-55.86957 h -82.61821 v -50.55034 h 82.61821 z m 0,-55.87167 h -82.61821 v -50.54929 h 82.61821 z m 0,-55.87066 h -82.61821 v -50.54823 h 82.61821 z m 0,-55.8695 h -82.61821 v -50.54939 h 82.61821 z m 0,-55.87074 h -82.61821 v -50.55032 h 82.61821 z"
   id="path1"
   style="stroke:#ffffff;stroke-width:8.19562;stroke-dasharray:none;stroke-opacity:1" />
<path
   style="fill:none;fill-rule:evenodd;stroke:#ffffff;stroke-width:18.2;stroke-linecap:butt;stroke-linejoin:miter;stroke-dasharray:none;stroke-opacity:1"
   d="M 73.864895,70.974531 H 250.49834 V 509.02547 H 75.149502"
   id="path2" /><path
   style="fill:none;fill-rule:evenodd;stroke:#ffffff;stroke-width:8.8;stroke-linecap:butt;stroke-linejoin:miter;stroke-dasharray:none;stroke-opacity:1"
   d="M 272.97896,64.230343 V 517.69657"
   id="path3" /></svg>
