<?xml version="1.0" encoding="utf-8"?>
<!-- Generator: Adobe Illustrator 15.0.0, SVG Export Plug-In . SVG Version: 6.00 Build 0)  -->
<!DOCTYPE svg PUBLIC "-//W3C//DTD SVG 1.1//EN" "http://www.w3.org/Graphics/SVG/1.1/DTD/svg11.dtd">
<svg version="1.1" xmlns="http://www.w3.org/2000/svg" xmlns:xlink="http://www.w3.org/1999/xlink" x="0px" y="0px" width="580px"
	 height="580px" viewBox="0 0 580 580" enable-background="new 0 0 580 580" xml:space="preserve">
<g id="Layer_2">
	<g id="g1327">
		<path id="path1329" fill="#111111" stroke="#EEEEEE" stroke-width="3.408" d="M66.275,1.768
			c-41.335,0-64.571,21.371-64.571,65.036v450.123c0,40.844,20.894,62.229,62.192,62.229H515.92
			c41.307,0,62.229-20.316,62.229-62.229V66.804c0-42.601-20.923-65.036-63.522-65.036C514.624,1.768,66.133,1.625,66.275,1.768z"/>
	</g>
</g>
<g id="svg2" inkscape:output_extension="org.inkscape.output.svg.inkscape" inkscape:version="0.46" sodipodi:docname="waste_bin.svg" sodipodi:version="0.32" xmlns:inkscape="http://www.inkscape.org/namespaces/inkscape" xmlns:rdf="http://www.w3.org/1999/02/22-rdf-syntax-ns#" xmlns:svg="http://www.w3.org/2000/svg" xmlns:sodipodi="http://sodipodi.sourceforge.net/DTD/sodipodi-0.dtd" xmlns:cc="http://creativecommons.org/ns#" xmlns:dc="http://purl.org/dc/elements/1.1/">
	<path fill="#FFFFFF" d="M445.019,500.71v-64.996h68.496v-28H348.523v28h68.495v64.996H224.803
		c-4.318-30.999-22.157-164.018-16.047-203.908c7.032,3.557,14.976,5.574,23.395,5.574c28.667,0,51.907-23.239,51.907-51.906
		c0-0.185-0.012-0.366-0.015-0.55c25.104-3.643,44.387-25.243,44.387-51.357c0-21.193-12.709-39.41-30.917-47.473
		c2.336-5.906,3.633-12.336,3.633-19.073c0-28.667-23.238-51.907-51.906-51.907c-15.271,0-28.999,6.597-38.496,17.093
		c-9.175-14.657-25.454-24.412-44.021-24.412c-26.574,0-48.469,19.974-51.527,45.724c-5.552-2.027-11.547-3.134-17.801-3.134
		c-28.667,0-51.906,23.239-51.906,51.905c0,19.444,10.697,36.379,26.521,45.272c-8.212,9.182-13.212,21.297-13.212,34.585
		c0,28.667,23.24,51.906,51.907,51.906c13.259,0,25.352-4.979,34.526-13.16c-2,30.496-8.017,177.737-26.059,214.821H45.487v13
		h489.025v-13H445.019z"/>
</g>
</svg>
