<?xml version="1.0" encoding="UTF-8" standalone="no"?>
<!-- Generator: Adobe Illustrator 15.0.0, SVG Export Plug-In . SVG Version: 6.00 Build 0)  -->

<svg
   xmlns:dc="http://purl.org/dc/elements/1.1/"
   xmlns:cc="http://creativecommons.org/ns#"
   xmlns:rdf="http://www.w3.org/1999/02/22-rdf-syntax-ns#"
   xmlns:svg="http://www.w3.org/2000/svg"
   xmlns="http://www.w3.org/2000/svg"
   xmlns:sodipodi="http://sodipodi.sourceforge.net/DTD/sodipodi-0.dtd"
   xmlns:inkscape="http://www.inkscape.org/namespaces/inkscape"
   version="1.1"
   x="0px"
   y="0px"
   width="580px"
   height="580px"
   viewBox="0 0 580 580"
   enable-background="new 0 0 580 580"
   xml:space="preserve"
   id="svg3000"
   inkscape:version="0.48.4 r9939"
   sodipodi:docname="route_sp.svg"><sodipodi:namedview
   pagecolor="#ffffff"
   bordercolor="#666666"
   borderopacity="1"
   objecttolerance="10"
   gridtolerance="10"
   guidetolerance="10"
   inkscape:pageopacity="0"
   inkscape:pageshadow="2"
   inkscape:window-width="1725"
   inkscape:window-height="1026"
   id="namedview3009"
   showgrid="false"
   inkscape:snap-nodes="false"
   inkscape:zoom="1.0965517"
   inkscape:cx="140.05831"
   inkscape:cy="242.01887"
   inkscape:window-x="145"
   inkscape:window-y="76"
   inkscape:window-maximized="0"
   inkscape:current-layer="svg3000" /><metadata
   id="metadata3013"><rdf:RDF><cc:Work
       rdf:about=""><dc:format>image/svg+xml</dc:format><dc:type
         rdf:resource="http://purl.org/dc/dcmitype/StillImage" /><dc:title /></cc:Work></rdf:RDF></metadata><defs
   id="defs3011"><marker
     style="overflow:visible;"
     id="Arrow1Send"
     refX="0.0"
     refY="0.0"
     orient="auto"
     inkscape:stockid="Arrow1Send"><path
       transform="scale(0.2) rotate(180) translate(6,0)"
       style="fill-rule:evenodd;stroke:#000000;stroke-width:1.0pt;"
       d="M 0.0,0.0 L 5.0,-5.0 L -12.5,0.0 L 5.0,5.0 L 0.0,0.0 z "
       id="path8595" /></marker><marker
     inkscape:stockid="Arrow2Lstart"
     orient="auto"
     refY="0.0"
     refX="0.0"
     id="Arrow2Lstart"
     style="overflow:visible"><path
       id="path8598"
       style="fill-rule:evenodd;stroke-width:0.62500000;stroke-linejoin:round"
       d="M 8.7185878,4.0337352 L -2.2072895,0.016013256 L 8.7185884,-4.0017078 C 6.9730900,-1.6296469 6.9831476,1.6157441 8.7185878,4.0337352 z "
       transform="scale(1.1) translate(1,0)" /></marker><marker
     style="overflow:visible;"
     id="Arrow1Lend"
     refX="0.0"
     refY="0.0"
     orient="auto"
     inkscape:stockid="Arrow1Lend"><path
       transform="scale(0.8) rotate(180) translate(12.5,0)"
       style="fill-rule:evenodd;stroke:#000000;stroke-width:1.0pt;"
       d="M 0.0,0.0 L 5.0,-5.0 L -12.5,0.0 L 5.0,5.0 L 0.0,0.0 z "
       id="path8583" /></marker><marker
     style="overflow:visible"
     id="Arrow1Lstart"
     refX="0.0"
     refY="0.0"
     orient="auto"
     inkscape:stockid="Arrow1Lstart"><path
       transform="scale(0.8) translate(12.5,0)"
       style="fill-rule:evenodd;stroke:#000000;stroke-width:1.0pt"
       d="M 0.0,0.0 L 5.0,-5.0 L -12.5,0.0 L 5.0,5.0 L 0.0,0.0 z "
       id="path8580" /></marker><marker
     style="overflow:visible"
     id="DiamondLend"
     refX="0.0"
     refY="0.0"
     orient="auto"
     inkscape:stockid="DiamondLend"><path
       transform="scale(0.8) translate(-7,0)"
       style="fill-rule:evenodd;stroke:#000000;stroke-width:1.0pt"
       d="M 0,-7.0710768 L -7.0710894,0 L 0,7.0710589 L 7.0710462,0 L 0,-7.0710768 z "
       id="path8677" /></marker><marker
     style="overflow:visible;"
     id="Arrow2Lend"
     refX="0.0"
     refY="0.0"
     orient="auto"
     inkscape:stockid="Arrow2Lend"><path
       transform="scale(1.1) rotate(180) translate(1,0)"
       d="M 8.7185878,4.0337352 L -2.2072895,0.016013256 L 8.7185884,-4.0017078 C 6.9730900,-1.6296469 6.9831476,1.6157441 8.7185878,4.0337352 z "
       style="fill-rule:evenodd;stroke-width:0.62500000;stroke-linejoin:round;"
       id="path8601" /></marker><marker
     style="overflow:visible;"
     id="Arrow1Mend"
     refX="0.0"
     refY="0.0"
     orient="auto"
     inkscape:stockid="Arrow1Mend"><path
       transform="scale(0.4) rotate(180) translate(10,0)"
       style="fill-rule:evenodd;stroke:#000000;stroke-width:1.0pt;"
       d="M 0.0,0.0 L 5.0,-5.0 L -12.5,0.0 L 5.0,5.0 L 0.0,0.0 z "
       id="path8589" /></marker><marker
     inkscape:stockid="Arrow2LstartF"
     orient="auto"
     refY="0.0"
     refX="0.0"
     id="Arrow2LstartF"
     style="overflow:visible"><path
       id="path11179"
       style="stroke-linejoin:round;stroke:#ffffff;stroke-width:0.62500000;fill:#ffffff;fill-rule:evenodd"
       d="M 8.7185878,4.0337352 L -2.2072895,0.016013256 L 8.7185884,-4.0017078 C 6.9730900,-1.6296469 6.9831476,1.6157441 8.7185878,4.0337352 z "
       transform="scale(1.1) translate(1,0)" /></marker><marker
     style="overflow:visible;"
     id="Arrow1LendQ"
     refX="0.0"
     refY="0.0"
     orient="auto"
     inkscape:stockid="Arrow1LendQ"><path
       transform="scale(0.8) rotate(180) translate(12.5,0)"
       style="stroke:#ffffff;stroke-width:1.0pt;fill:#ffffff;fill-rule:evenodd"
       d="M 0.0,0.0 L 5.0,-5.0 L -12.5,0.0 L 5.0,5.0 L 0.0,0.0 z "
       id="path11182" /></marker><marker
     style="overflow:visible;"
     id="Arrow1Lends"
     refX="0.0"
     refY="0.0"
     orient="auto"
     inkscape:stockid="Arrow1Lends"><path
       transform="scale(0.8) rotate(180) translate(12.5,0)"
       style="stroke:#ffffff;stroke-width:1.0pt;fill:#ffffff;fill-rule:evenodd"
       d="M 0.0,0.0 L 5.0,-5.0 L -12.5,0.0 L 5.0,5.0 L 0.0,0.0 z "
       id="path11185" /></marker><marker
     style="overflow:visible;"
     id="Arrow1LendA"
     refX="0.0"
     refY="0.0"
     orient="auto"
     inkscape:stockid="Arrow1LendA"><path
       transform="scale(0.8) rotate(180) translate(12.5,0)"
       style="stroke:#ffffff;stroke-width:1.0pt;fill:#ffffff;fill-rule:evenodd"
       d="M 0.0,0.0 L 5.0,-5.0 L -12.5,0.0 L 5.0,5.0 L 0.0,0.0 z "
       id="path11648" /></marker><marker
     style="overflow:visible;"
     id="Arrow1Lendsm"
     refX="0.0"
     refY="0.0"
     orient="auto"
     inkscape:stockid="Arrow1Lendsm"><path
       transform="scale(0.8) rotate(180) translate(12.5,0)"
       style="fill-rule:evenodd;stroke:#ffffff;stroke-width:1.0pt;fill:#ffffff"
       d="M 0.0,0.0 L 5.0,-5.0 L -12.5,0.0 L 5.0,5.0 L 0.0,0.0 z "
       id="path11651" /></marker><marker
     style="overflow:visible;"
     id="Arrow1MendO"
     refX="0.0"
     refY="0.0"
     orient="auto"
     inkscape:stockid="Arrow1MendO"><path
       transform="scale(0.4) rotate(180) translate(10,0)"
       style="stroke:#ffffff;stroke-width:1.0pt;fill:#ffffff;fill-rule:evenodd"
       d="M 0.0,0.0 L 5.0,-5.0 L -12.5,0.0 L 5.0,5.0 L 0.0,0.0 z "
       id="path12130" /></marker><marker
     style="overflow:visible;"
     id="Arrow1Mendp"
     refX="0.0"
     refY="0.0"
     orient="auto"
     inkscape:stockid="Arrow1Mendp"><path
       transform="scale(0.4) rotate(180) translate(10,0)"
       style="stroke:#ffffff;stroke-width:1.0pt;fill:#ffffff;fill-rule:evenodd"
       d="M 0.0,0.0 L 5.0,-5.0 L -12.5,0.0 L 5.0,5.0 L 0.0,0.0 z "
       id="path12133" /></marker><marker
     style="overflow:visible;"
     id="Arrow1Send2"
     refX="0.0"
     refY="0.0"
     orient="auto"
     inkscape:stockid="Arrow1Send2"><path
       transform="scale(0.2) rotate(180) translate(6,0)"
       style="stroke:#ffffff;stroke-width:1.0pt;fill:#ffffff;fill-rule:evenodd"
       d="M 0.0,0.0 L 5.0,-5.0 L -12.5,0.0 L 5.0,5.0 L 0.0,0.0 z "
       id="path13046" /></marker></defs>
<g
   transform="translate(0.0735,-0.43022222)"
   id="Layer_1">
	<g
   id="Layer_2">
		<g
   id="g1327">
			<path
   style="fill:#111111;stroke:#eeeeee;stroke-width:3.40799999"
   inkscape:connector-curvature="0"
   d="M 66.275,1.768 C 24.94,1.768 1.704,23.139 1.704,66.804 v 450.123 c 0,40.844 20.895,62.229 62.192,62.229 H 515.92 c 41.307,0 62.229,-20.315 62.229,-62.229 V 66.804 c 0,-42.602 -20.923,-65.036 -63.521,-65.036 -0.003,0 -448.495,-0.143 -448.353,0 z"
   id="path1329" />
		</g>
	</g>
</g>

<text
   sodipodi:linespacing="125%"
   id="text8545"
   y="513.42767"
   x="60.18869"
   style="font-size:144px;font-style:normal;font-variant:normal;font-weight:bold;font-stretch:normal;text-align:start;line-height:125%;letter-spacing:0px;word-spacing:0px;writing-mode:lr-tb;text-anchor:start;fill:#ffffff;fill-opacity:1;stroke:#ffffff;stroke-opacity:1;font-family:Arial;-inkscape-font-specification:Arial Bold"
   xml:space="preserve"><tspan
     y="513.42767"
     x="60.18869"
     id="tspan8547"
     sodipodi:role="line">A</tspan></text>






<text
   sodipodi:linespacing="125%"
   id="text8549"
   y="82.987411"
   x="435"
   style="font-size:40px;font-style:normal;font-weight:normal;line-height:125%;letter-spacing:0px;word-spacing:0px;fill:#000000;fill-opacity:1;stroke:none;font-family:Sans"
   xml:space="preserve"><tspan
     y="82.987411"
     x="435"
     id="tspan8551"
     sodipodi:role="line">B</tspan></text>






<text
   sodipodi:linespacing="125%"
   id="text8545-4"
   y="152.00085"
   x="423.3222"
   style="font-size:144px;font-style:normal;font-variant:normal;font-weight:bold;font-stretch:normal;text-align:start;line-height:125%;letter-spacing:0px;word-spacing:0px;writing-mode:lr-tb;text-anchor:start;fill:#ffffff;fill-opacity:1;stroke:#ffffff;stroke-opacity:1;font-family:Arial;-inkscape-font-specification:Arial Bold"
   xml:space="preserve"><tspan
     y="152.00085"
     x="423.3222"
     id="tspan8547-0"
     sodipodi:role="line">B</tspan></text>






<path
   inkscape:connector-curvature="0"
   id="path3797"
   d="m 426.08222,173.65181 c 0,0 -26.52485,29.4321 -45.56774,65.99239 -17.31462,33.24225 -9.90789,64.85029 -63.2996,53.37523 -53.3917,-11.47505 -62.2622,-53.92547 -111.33217,9.12609 -49.06997,63.05157 -47.0424,76.6208 -47.0424,76.6208 l -50.25952,-8.93648 c 0,0 28.33024,-52.05606 77.40021,-115.10764 49.06997,-63.05154 57.69083,-21.63352 108.3467,1.69689 49.60281,22.8454 46.4525,31.26538 77.4759,-25.27106 17.67548,-32.21145 45.67672,-69.41701 45.67672,-69.41701 z"
   style="fill:#ffffff;fill-opacity:1;stroke:#ffffff;stroke-width:0.43747723px;stroke-linecap:butt;stroke-linejoin:miter;stroke-opacity:1"
   sodipodi:nodetypes="ssscccssscs" /></svg>