<?xml version="1.0" encoding="UTF-8" standalone="no"?>
<!-- Generator: Adobe Illustrator 15.0.0, SVG Export Plug-In . SVG Version: 6.00 Build 0)  -->

<svg
   xmlns:dc="http://purl.org/dc/elements/1.1/"
   xmlns:cc="http://creativecommons.org/ns#"
   xmlns:rdf="http://www.w3.org/1999/02/22-rdf-syntax-ns#"
   xmlns:svg="http://www.w3.org/2000/svg"
   xmlns="http://www.w3.org/2000/svg"
   xmlns:sodipodi="http://sodipodi.sourceforge.net/DTD/sodipodi-0.dtd"
   xmlns:inkscape="http://www.inkscape.org/namespaces/inkscape"
   version="1.1"
   x="0px"
   y="0px"
   width="580px"
   height="580px"
   viewBox="0 0 580 580"
   enable-background="new 0 0 580 580"
   xml:space="preserve"
   id="svg5281"
   sodipodi:docname="runway.svg"
   inkscape:version="0.92.3 (2405546, 2018-03-11)"><metadata
   id="metadata5287"><rdf:RDF><cc:Work
       rdf:about=""><dc:format>image/svg+xml</dc:format><dc:type
         rdf:resource="http://purl.org/dc/dcmitype/StillImage" /><dc:title></dc:title></cc:Work></rdf:RDF></metadata><defs
   id="defs5285">
	

		
		
		
	</defs><sodipodi:namedview
   pagecolor="#ffffff"
   bordercolor="#666666"
   borderopacity="1"
   objecttolerance="10"
   gridtolerance="10"
   guidetolerance="10"
   inkscape:pageopacity="0"
   inkscape:pageshadow="2"
   inkscape:window-width="1215"
   inkscape:window-height="841"
   id="namedview5283"
   showgrid="false"
   inkscape:zoom="0.94316065"
   inkscape:cx="290"
   inkscape:cy="290"
   inkscape:window-x="278"
   inkscape:window-y="233"
   inkscape:window-maximized="0"
   inkscape:current-layer="svg5281" />
<g
   id="Layer_1">
	<g
   id="Layer_1_1_">
		<g
   id="Layer_2">
			<g
   id="g1327">
				<path
   id="path1329"
   fill="#111111"
   stroke="#EEEEEE"
   stroke-width="3.408"
   d="M66.275,1.768      c-41.335,0-64.571,21.371-64.571,65.036v450.123c0,40.844,20.896,62.229,62.192,62.229h452.024      c41.307,0,62.229-20.314,62.229-62.229V66.804c0-42.602-20.924-65.036-63.521-65.036C514.625,1.768,66.133,1.625,66.275,1.768z" />
			</g>
		</g>
	</g>
</g>
<g
   id="g5258"
   transform="matrix(0.29098859,0,0,1,48.567282,0)">
			<polygon
   points="231.5,69 192.5,69 68.5,515 187.5,515 "
   id="polygon5256"
   style="fill:#ffffff" />
		</g><g
   id="g5262"
   transform="matrix(0.26945172,0,0,1,373.67545,0)">
			<polygon
   points="392.5,515 347.5,69 386.5,69 511.5,515 "
   id="polygon5260"
   style="fill:#ffffff" />
		</g><g
   id="g5276">
			<g
   id="g5266">
				<rect
   x="288.927"
   y="65"
   width="6"
   height="20"
   id="rect5264"
   style="fill:#ffffff" />
			</g>
			<g
   id="g5270">
				<path
   d="m 294.927,451.363 h -6 v -36.636 h 6 z m 0,-73.272 h -6 v -36.637 h 6 z m 0,-73.273 h -6 v -36.637 h 6 z m 0,-73.273 h -6 v -36.636 h 6 z m 0,-73.273 h -6 v -36.636 h 6 z"
   id="path5268"
   inkscape:connector-curvature="0"
   style="fill:#ffffff" />
			</g>
			<g
   id="g5274">
				<rect
   x="288.927"
   y="488"
   width="6"
   height="20"
   id="rect5272"
   style="fill:#ffffff" />
			</g>
		</g>
<g
   id="g1970"
   transform="matrix(0.6804642,0,0,0.6804642,137.51987,137.61355)"
   style="fill:#ffffff;fill-opacity:1"><path
     inkscape:connector-curvature="0"
     style="fill:#ffffff;fill-opacity:1;stroke:none"
     id="path1972"
     d="m 196.91,25.3815 c 0.06,-34 51.309,-34 51.275,0.958 V 169.031 l 199.764,120.064 v 52.717 l -198.805,-65.43 v 106.647 l 46.008,35.944 v 41.694 l -70.927,-22.046 -70.927,22.046 v -41.694 l 45.529,-35.944 V 276.382 L 0,341.812 V 289.095 L 196.91,169.031 Z" /></g></svg>