<?xml version="1.0" encoding="UTF-8" standalone="no"?>
<!-- Created with Inkscape (http://www.inkscape.org/) -->

<svg
   xmlns:dc="http://purl.org/dc/elements/1.1/"
   xmlns:cc="http://creativecommons.org/ns#"
   xmlns:rdf="http://www.w3.org/1999/02/22-rdf-syntax-ns#"
   xmlns:svg="http://www.w3.org/2000/svg"
   xmlns="http://www.w3.org/2000/svg"
   xmlns:sodipodi="http://sodipodi.sourceforge.net/DTD/sodipodi-0.dtd"
   xmlns:inkscape="http://www.inkscape.org/namespaces/inkscape"
   version="1.0"
   width="580"
   height="580"
   id="svg2"
   sodipodi:version="0.32"
   inkscape:version="0.92.3 (2405546, 2018-03-11)"
   sodipodi:docname="share_taxi.svg"
   inkscape:output_extension="org.inkscape.output.svg.inkscape">
  <defs
     id="defs22">
    <inkscape:perspective
       sodipodi:type="inkscape:persp3d"
       inkscape:vp_x="0 : 290 : 1"
       inkscape:vp_y="0 : 1000 : 0"
       inkscape:vp_z="580 : 290 : 1"
       inkscape:persp3d-origin="290 : 193.33333 : 1"
       id="perspective24" />
    <marker
       viewBox="0 0 10 10"
       refY="5"
       refX="10"
       orient="auto"
       markerWidth="4"
       markerUnits="strokeWidth"
       markerHeight="3"
       id="ArrowStart">
      <path
         id="path3568"
         d="M 10 0 L 0 5 L 10 10 z" />
    </marker>
    <marker
       viewBox="0 0 10 10"
       refY="5"
       refX="0"
       orient="auto"
       markerWidth="4"
       markerUnits="strokeWidth"
       markerHeight="3"
       id="ArrowEnd">
      <path
         id="path3565"
         d="M 0 0 L 10 5 L 0 10 z" />
    </marker>
    <inkscape:perspective
       id="perspective2683"
       inkscape:persp3d-origin="306.082 : 204.39034 : 1"
       inkscape:vp_z="612.164 : 306.58551 : 1"
       inkscape:vp_y="0 : 1000 : 0"
       inkscape:vp_x="0 : 306.58551 : 1"
       sodipodi:type="inkscape:persp3d" />
    <marker
       viewBox="0 0 10 10"
       refY="5"
       refX="10"
       orient="auto"
       markerWidth="4"
       markerUnits="strokeWidth"
       markerHeight="3"
       id="marker2959">
      <path
         id="path2626"
         d="M 10 0 L 0 5 L 10 10 z" />
    </marker>
    <marker
       viewBox="0 0 10 10"
       refY="5"
       refX="0"
       orient="auto"
       markerWidth="4"
       markerUnits="strokeWidth"
       markerHeight="3"
       id="marker2956">
      <path
         id="path2623"
         d="M 0 0 L 10 5 L 0 10 z" />
    </marker>
    <inkscape:perspective
       id="perspective2953"
       inkscape:persp3d-origin="306.082 : 204.39034 : 1"
       inkscape:vp_z="612.164 : 306.58551 : 1"
       inkscape:vp_y="0 : 1000 : 0"
       inkscape:vp_x="0 : 306.58551 : 1"
       sodipodi:type="inkscape:persp3d" />
    <marker
       viewBox="0 0 10 10"
       refY="5"
       refX="10"
       orient="auto"
       markerWidth="4"
       markerUnits="strokeWidth"
       markerHeight="3"
       id="marker3077">
      <path
         id="path3298"
         d="M 10 0 L 0 5 L 10 10 z" />
    </marker>
    <marker
       viewBox="0 0 10 10"
       refY="5"
       refX="0"
       orient="auto"
       markerWidth="4"
       markerUnits="strokeWidth"
       markerHeight="3"
       id="marker3074">
      <path
         id="path3295"
         d="M 0 0 L 10 5 L 0 10 z" />
    </marker>
    <inkscape:perspective
       id="perspective3071"
       inkscape:persp3d-origin="180.936 : 163.92867 : 1"
       inkscape:vp_z="361.87201 : 245.89301 : 1"
       inkscape:vp_y="0 : 1000 : 0"
       inkscape:vp_x="0 : 245.89301 : 1"
       sodipodi:type="inkscape:persp3d" />
    <marker
       viewBox="0 0 10 10"
       refY="5"
       refX="10"
       orient="auto"
       markerWidth="4"
       markerUnits="strokeWidth"
       markerHeight="3"
       id="marker3188">
      <path
         id="path3318"
         d="M 10 0 L 0 5 L 10 10 z" />
    </marker>
    <marker
       viewBox="0 0 10 10"
       refY="5"
       refX="0"
       orient="auto"
       markerWidth="4"
       markerUnits="strokeWidth"
       markerHeight="3"
       id="marker3185">
      <path
         id="path3315"
         d="M 0 0 L 10 5 L 0 10 z" />
    </marker>
    <inkscape:perspective
       id="perspective3182"
       inkscape:persp3d-origin="306.082 : 204.39034 : 1"
       inkscape:vp_z="612.164 : 306.58551 : 1"
       inkscape:vp_y="0 : 1000 : 0"
       inkscape:vp_x="0 : 306.58551 : 1"
       sodipodi:type="inkscape:persp3d" />
  </defs>
  <metadata
     id="metadata10">
    <rdf:RDF>
      <cc:Work
         rdf:about="">
        <dc:format>image/svg+xml</dc:format>
        <dc:type
           rdf:resource="http://purl.org/dc/dcmitype/StillImage" />
        <cc:license
           rdf:resource="http://web.resource.org/cc/PublicDomain" />
        <dc:language>en</dc:language>
        <dc:title></dc:title>
      </cc:Work>
    </rdf:RDF>
  </metadata>
  <sodipodi:namedview
     inkscape:window-height="1005"
     inkscape:window-width="1280"
     inkscape:pageshadow="2"
     inkscape:pageopacity="0.0"
     guidetolerance="10.0"
     gridtolerance="10.0"
     objecttolerance="10.0"
     borderopacity="1.0"
     bordercolor="#666666"
     pagecolor="#ffffff"
     id="base"
     showgrid="false"
     inkscape:zoom="0.94316065"
     inkscape:cx="306.25606"
     inkscape:cy="415.25176"
     inkscape:window-x="317"
     inkscape:window-y="53"
     inkscape:current-layer="svg2"
     inkscape:window-maximized="0" />
  <path
     inkscape:connector-curvature="0"
     id="path1329"
     style="fill:#111111;stroke:#eeeeee;stroke-width:3.40799999"
     d="M 66.275,1.768 C 24.94,1.768 1.704,23.139 1.704,66.804 v 450.123 c 0,40.844 20.894,62.229 62.192,62.229 H 515.92 c 41.307,0 62.229,-20.316 62.229,-62.229 V 66.804 c 0,-42.601 -20.922,-65.036 -63.522,-65.036 -0.003,0 -448.494,-0.143 -448.352,0 z" />
  <g
     id="g2319"
     transform="translate(879.29125,36.805119)">
    <path
       id="path2323"
       style="fill:#ffffff;stroke:none"
       d="" />
  </g>
  <g
     id="g2325"
     transform="translate(879.29125,36.805119)">
    <path
       id="path2329"
       style="fill:#ffffff;stroke:none"
       d="" />
  </g>
  <g
     id="g3324"
     transform="matrix(0.79410025,0,0,0.79410025,46.860843,141.68326)">
    <path
       style="fill:#ffffff;stroke:none"
       d="m 269.59375,90.625 c -7.5,0 -12.12499,4.312502 -12.125,12.8125 v 21.25 H 211.9375 c -24.5,0 -37.49999,13.25 -43.5,28.75 l -31.875,81.40625 c -12.626,1.603 -34.96875,16.26649 -34.96875,44.0625 v 103.5625 h 31 v 33.09375 c 0,40.736 58.21874,40.25699 58.21875,0 v -33.09375 h 104.75 0.0625 104.71875 v 33.09375 c 0,40.257 58.24999,40.73599 58.25,0 v -33.09375 h 30.96875 v -103.5625 c 0,-27.796 -22.374,-42.4595 -35,-44.0625 l -31.875,-81.40625 c -6,-15.5 -19.00001,-28.75 -43.5,-28.75 h -45 v -21.25 c 0,-8.5 -4.625,-12.812503 -12.125,-12.8125 h -26.4375 -0.0625 z m -58.03125,63.71875 h 83.9375 0.0625 0.0625 83.9375 c 10.49999,0.097 15,6.59375 18,15.59375 l 24,62.96875 H 295.625 295.5625 295.5 169.5625 l 24,-62.96875 c 3,-9 7.5,-15.49675 18,-15.59375 z m -48.9375,109.9375 c 14.85499,0 26.90625,12.2785 26.90625,27.4375 0,15.15899 -12.05125,27.46875 -26.90625,27.46875 -14.85701,10e-6 -26.90625,-12.30975 -26.90625,-27.46875 0,-15.15901 12.04925,-27.4375 26.90625,-27.4375 z m 265.875,0 c 14.855,0 26.90624,12.27849 26.90625,27.4375 0,15.159 -12.05124,27.46876 -26.90625,27.46875 -14.856,0 -26.87498,-12.30976 -26.875,-27.46875 0,-15.159 12.01901,-27.4375 26.875,-27.4375 z"
       transform="translate(10.51126,70.239291)"
       id="path3326"
       inkscape:connector-curvature="0" />
    <g
       id="g3328">
      <g
         id="g3332">
        <g
           id="g3334">
          <path
             id="path3338"
             style="fill:#000000;stroke:none"
             d=""
             inkscape:connector-curvature="0" />
        </g>
        <g
           id="g3340">
          <path
             id="path3344"
             style="fill:#000000;stroke:none"
             d=""
             inkscape:connector-curvature="0" />
        </g>
      </g>
    </g>
  </g>
  <g
     transform="translate(7.2503353,13.581596)"
     id="g183">
    <path
       id="path8791-2"
       d="m 169.8083,21.036129 c -10.69513,3.97e-4 -20.00111,3.873175 -27.92337,11.595293 -7.92154,7.722865 -11.8907,17.107746 -11.89109,28.189584 3.8e-4,11.094644 3.96955,20.52658 11.89109,28.248744 7.92226,7.7228 17.22824,11.56603 27.92337,11.56571 0.39434,0 0.7931,-0.02 1.18319,-0.0295 0.39452,0.0109 0.78433,0.0298 1.18319,0.0295 10.69514,3.2e-4 20.00115,-3.84291 27.92339,-11.56571 7.92155,-7.722164 11.86114,-17.1541 11.86151,-28.248744 -3.6e-4,-11.081838 -3.93996,-20.466719 -11.86151,-28.189584 -7.92224,-7.722118 -17.22825,-11.594896 -27.92339,-11.595293 -0.39875,9e-6 -0.7888,0.01959 -1.18319,0.02953 -0.38999,-0.0095 -0.78895,-0.02953 -1.18319,-0.02953 z m -30.28976,88.502861 c -2.41909,7e-5 -4.6052,0.27098 -6.56672,0.79866 a 33.927916,33.927916 0 0 0 -3.87496,-0.1479 33.927916,33.927916 0 0 0 -33.09984,34.69716 l 0.70992,79.12606 a 33.927916,33.927916 0 0 0 23.84135,33.0111 v 9.90925 3.01714 l 50.4632,-1.47899 50.4928,1.47899 v -3.01714 -11.41782 a 33.927916,33.927916 0 0 0 19.87765,-32.1237 l -0.70991,-79.12607 a 33.927916,33.927916 0 0 0 -31.88707,-33.98724 c -1.88809,-0.47812 -3.96823,-0.73944 -6.27092,-0.7395 z"
       style="font-style:normal;font-variant:normal;font-weight:normal;font-stretch:normal;font-size:40px;line-height:125%;font-family:NPSPICT3;-inkscape-font-specification:NPSPICT3;text-align:start;writing-mode:lr-tb;text-anchor:start;opacity:1;fill:#ffffff;fill-opacity:1;stroke:#ffffff;stroke-width:1.55347908;stroke-linecap:round;stroke-linejoin:round;stroke-opacity:1"
       inkscape:connector-curvature="0" />
    <path
       inkscape:connector-curvature="0"
       style="font-style:normal;font-variant:normal;font-weight:normal;font-stretch:normal;font-size:40px;line-height:125%;font-family:NPSPICT3;-inkscape-font-specification:NPSPICT3;text-align:start;writing-mode:lr-tb;text-anchor:start;fill:#ffffff;fill-opacity:1;stroke:#ffffff;stroke-width:1.55347908;stroke-linecap:round;stroke-linejoin:round;stroke-opacity:1"
       d="m 397.8083,21.036129 c -10.69513,3.97e-4 -20.00111,3.873175 -27.92337,11.595293 -7.92154,7.722865 -11.8907,17.107746 -11.89109,28.189584 3.8e-4,11.094644 3.96955,20.52658 11.89109,28.248744 7.92226,7.7228 17.22824,11.56603 27.92337,11.56571 0.39434,0 0.7931,-0.02 1.18319,-0.0295 0.39452,0.0109 0.78433,0.0298 1.18319,0.0295 10.69514,3.2e-4 20.00115,-3.84291 27.92339,-11.56571 7.92155,-7.722164 11.86114,-17.1541 11.86151,-28.248744 -3.6e-4,-11.081838 -3.93996,-20.466719 -11.86151,-28.189584 -7.92224,-7.722118 -17.22825,-11.594896 -27.92339,-11.595293 -0.39875,9e-6 -0.7888,0.01959 -1.18319,0.02953 -0.38999,-0.0095 -0.78895,-0.02953 -1.18319,-0.02953 z m -30.28976,88.502861 c -2.41909,7e-5 -4.6052,0.27098 -6.56672,0.79866 a 33.927916,33.927916 0 0 0 -3.87496,-0.1479 33.927916,33.927916 0 0 0 -33.09984,34.69716 l 0.70992,79.12606 a 33.927916,33.927916 0 0 0 23.84135,33.0111 v 9.90925 3.01714 l 50.4632,-1.47899 50.4928,1.47899 v -3.01714 -11.41782 a 33.927916,33.927916 0 0 0 19.87765,-32.1237 l -0.70991,-79.12607 a 33.927916,33.927916 0 0 0 -31.88707,-33.98724 c -1.88809,-0.47812 -3.96823,-0.73944 -6.27092,-0.7395 z"
       id="path20631" />
  </g>
</svg>
