<?xml version="1.0" encoding="UTF-8" standalone="no"?>
<!-- Created with Inkscape (http://www.inkscape.org/) -->

<svg
   xmlns:dc="http://purl.org/dc/elements/1.1/"
   xmlns:cc="http://creativecommons.org/ns#"
   xmlns:rdf="http://www.w3.org/1999/02/22-rdf-syntax-ns#"
   xmlns:svg="http://www.w3.org/2000/svg"
   xmlns="http://www.w3.org/2000/svg"
   xmlns:sodipodi="http://sodipodi.sourceforge.net/DTD/sodipodi-0.dtd"
   xmlns:inkscape="http://www.inkscape.org/namespaces/inkscape"
   version="1.0"
   width="580"
   height="580"
   id="svg2"
   sodipodi:version="0.32"
   inkscape:version="0.92.3 (2405546, 2018-03-11)"
   sodipodi:docname="subway_entrance.svg"
   inkscape:output_extension="org.inkscape.output.svg.inkscape">
  <metadata
     id="metadata10">
    <rdf:RDF>
      <cc:Work
         rdf:about="">
        <dc:format>image/svg+xml</dc:format>
        <dc:type
           rdf:resource="http://purl.org/dc/dcmitype/StillImage" />
        <cc:license
           rdf:resource="http://web.resource.org/cc/PublicDomain" />
        <dc:language>en</dc:language>
        <dc:title></dc:title>
      </cc:Work>
    </rdf:RDF>
  </metadata>
  <sodipodi:namedview
     inkscape:window-height="839"
     inkscape:window-width="1355"
     inkscape:pageshadow="2"
     inkscape:pageopacity="0.0"
     guidetolerance="10.0"
     gridtolerance="10.0"
     objecttolerance="10.0"
     borderopacity="1.0"
     bordercolor="#666666"
     pagecolor="#ffffff"
     id="base"
     showgrid="false"
     inkscape:zoom="0.5"
     inkscape:cx="279.90882"
     inkscape:cy="377.48075"
     inkscape:window-x="122"
     inkscape:window-y="126"
     inkscape:current-layer="svg2"
     inkscape:window-maximized="0">
    <inkscape:grid
       type="xygrid"
       id="grid3779" />
  </sodipodi:namedview>
  <defs
     id="defs4">
    <inkscape:perspective
       sodipodi:type="inkscape:persp3d"
       inkscape:vp_x="0 : 290 : 1"
       inkscape:vp_y="0 : 1000 : 0"
       inkscape:vp_z="580 : 290 : 1"
       inkscape:persp3d-origin="290 : 193.33333 : 1"
       id="perspective12" />
    <style
       type="text/css"
       id="style6">
   
    .fil0 {fill:#EF7900}
   
  </style>
    <inkscape:perspective
       id="perspective6807"
       inkscape:persp3d-origin="29.116032 : 19.410688 : 1"
       inkscape:vp_z="58.232063 : 29.116032 : 1"
       inkscape:vp_y="0 : 1000 : 0"
       inkscape:vp_x="0 : 29.116032 : 1"
       sodipodi:type="inkscape:persp3d" />
    <inkscape:perspective
       id="perspective6954"
       inkscape:persp3d-origin="290 : 193.33333 : 1"
       inkscape:vp_z="580 : 290 : 1"
       inkscape:vp_y="0 : 1000 : 0"
       inkscape:vp_x="0 : 290 : 1"
       sodipodi:type="inkscape:persp3d" />
    <marker
       viewBox="0 0 10 10"
       refY="5"
       refX="10"
       orient="auto"
       markerWidth="4"
       markerUnits="strokeWidth"
       markerHeight="3"
       id="ArrowStart">
      <path
         id="path2295"
         d="M 10 0 L 0 5 L 10 10 z" />
    </marker>
    <marker
       viewBox="0 0 10 10"
       refY="5"
       refX="0"
       orient="auto"
       markerWidth="4"
       markerUnits="strokeWidth"
       markerHeight="3"
       id="ArrowEnd">
      <path
         id="path2292"
         d="M 0 0 L 10 5 L 0 10 z" />
    </marker>
    <inkscape:perspective
       id="perspective7597"
       inkscape:persp3d-origin="178.5405 : 158.483 : 1"
       inkscape:vp_z="357.08099 : 237.7245 : 1"
       inkscape:vp_y="0 : 1000 : 0"
       inkscape:vp_x="0 : 237.7245 : 1"
       sodipodi:type="inkscape:persp3d" />
  </defs>
  <g
     id="g1327">
    <path
       d="M 66.275,1.768 C 24.94,1.768 1.704,23.139 1.704,66.804 L 1.704,516.927 C 1.704,557.771 22.598,579.156 63.896,579.156 L 515.92,579.156 C 557.227,579.156 578.149,558.84 578.149,516.927 L 578.149,66.804 C 578.149,24.203 557.227,1.768 514.627,1.768 C 514.624,1.768 66.133,1.625 66.275,1.768 z"
       style="fill:#111111;stroke:#eeeeee;stroke-width:3.40799999"
       id="path1329" />
  </g>
  <g
     id="g2319"
     transform="translate(879.29125,36.805119)">
    <path
       id="path2323"
       style="fill:#ffffff;stroke:none"
       d="" />
  </g>
  <g
     id="g2325"
     transform="translate(879.29125,36.805119)">
    <path
       id="path2329"
       style="fill:#ffffff;stroke:none"
       d="" />
  </g>
  <g
     id="g4718"
     transform="translate(-15.492958,1.4084507)">
    <path
       inkscape:connector-curvature="0"
       id="path24"
       d="m 407.11903,199.69204 c 10.28218,-0.0393 18.60786,-8.36217 18.57417,-18.57137 0.0365,-10.33832 -8.29199,-18.66399 -18.57417,-18.70609 -10.25972,0.0421 -18.5882,8.36777 -18.57136,18.70609 -0.0168,10.2064 8.31164,18.53207 18.57136,18.57137 z"
       style="fill:#ffffff;fill-opacity:1;stroke-width:2.80703759" />
    <path
       inkscape:connector-curvature="0"
       id="path28"
       d="m 536.31779,184.10682 h -43.20873 c -8.93761,-0.0732 -20.43804,4.26355 -27.26756,12.33799 l -40.0424,47.48143 v -13.89896 c -0.0168,-29.6218 -36.84237,-29.29896 -36.88447,0 v 56.69415 h 0.13193 l -34.77359,41.2309 c -3.31511,3.89743 -3.71651,4.06051 -10.13902,4.06051 -0.0281,0.009 -21.3391,0 -21.3391,0 -21.36155,0 -34.19814,22.81212 -34.25147,42.16948 0.0533,19.31408 12.88992,43.75374 36.22482,43.73709 0,0 28.9181,0.0199 37.80238,0 9.00498,0.0199 19.84575,-4.03721 28.85073,-14.06203 L 502.33018,272.81915 c 2.33265,-2.55946 3.65195,-3.33162 7.77269,-3.28169 0,0 15.24782,-0.0532 27.39668,0 13.14255,-0.0532 31.80093,-17.77642 31.75041,-43.25783 0.0505,-25.33497 -18.74821,-42.18945 -32.93217,-42.17281 z m -1.84984,63.25754 h -23.43876 c -9.92288,-0.009 -14.3187,1.63752 -20.02822,8.43057 L 379.1714,388.24435 c -4.466,5.43843 -10.20358,7.56521 -17.51872,7.492 H 324.7682 c -9.50182,0.0731 -17.84434,-9.42241 -17.78258,-21.86357 -0.0618,-12.51438 7.89619,-19.49713 16.0731,-19.5271 h 25.29141 c 7.42461,0.03 12.26956,-2.46626 16.46046,-7.48865 L 478.49281,212.06449 c 4.68776,-5.50833 9.30253,-6.19728 17.25206,-6.24388 h 38.85782 c 9.5327,0.0466 15.90187,12.59426 15.94397,20.14948 -0.0449,7.40879 -4.56424,21.38429 -16.07871,21.39427 z"
       style="fill:#ffffff;fill-opacity:1;stroke-width:3.05657387" />
  </g>
  <path
     inkscape:connector-curvature="0"
     style="fill:#ffffff;fill-opacity:1;stroke:none;stroke-width:0.6787976"
     d="M 101.42902,232.24955 H 81.892863 c -23.859123,0 -42.875279,19.5345 -42.875279,43.39414 v 88.34346 c 0,19.08748 12.257382,35.12004 29.390289,40.8006 v 13.65812 h 15.21382 V 407.5539 H 189.94559 v 10.89197 h 15.21381 v -13.13921 c 17.89583,-5.27667 30.94595,-21.65504 30.94595,-41.31951 v -88.34346 c 0,-23.85964 -19.01561,-43.39414 -42.87522,-43.39414 h -22.30176 z m 52.21094,0 H 118.89002 Z M 72.211323,253.34138 H 199.62708 c 9.07519,0 16.94265,7.17593 16.94265,16.25109 v 60.16363 c 0,9.07515 -7.86746,16.2511 -16.94265,16.2511 H 72.211323 c -9.07516,0 -16.769477,-7.17595 -16.769477,-16.2511 v -60.16363 c 0,-9.07516 7.694317,-16.25109 16.769477,-16.25109 z m 4.66815,104.94085 c 7.48686,0 13.48494,6.17071 13.48494,13.65757 0,7.48681 -5.99808,13.48493 -13.48494,13.48493 -7.48686,0 -13.48493,-5.99812 -13.48493,-13.48493 0,-7.48686 5.99807,-13.65757 13.48493,-13.65757 z m 118.079487,0 c 7.48681,0 13.65812,6.17071 13.65812,13.65757 0,7.48681 -6.17131,13.48493 -13.65812,13.48493 -7.48685,0 -13.48498,-5.99812 -13.48498,-13.48493 0,-7.48686 5.99813,-13.65757 13.48498,-13.65757 z"
     id="rect4085"
     sodipodi:nodetypes="ccccccccccccccccccccccccccccccsssccsssc" />
  <rect
     style="opacity:0.5;fill:#ffffff;fill-opacity:1;fill-rule:evenodd;stroke:none;stroke-width:0.6185165"
     id="rect3480"
     width="275.59918"
     height="27.661436"
     x="37.790337"
     y="166.80617" />
</svg>
