<?xml version="1.0" encoding="utf-8"?>
<!-- Generator: Adobe Illustrator 15.0.0, SVG Export Plug-In . SVG Version: 6.00 Build 0)  -->
<!DOCTYPE svg PUBLIC "-//W3C//DTD SVG 1.1//EN" "http://www.w3.org/Graphics/SVG/1.1/DTD/svg11.dtd">
<svg version="1.1" xmlns="http://www.w3.org/2000/svg" xmlns:xlink="http://www.w3.org/1999/xlink" x="0px" y="0px" width="580px"
	 height="580px" viewBox="0 0 580 580" enable-background="new 0 0 580 580" xml:space="preserve">
<g id="Layer_2_1_">
	<g id="Layer_2">
		<g id="g1327">
			<path id="path1329" fill="#111111" stroke="#EEEEEE" stroke-width="3.408" d="M66.275,1.768
				c-41.335,0-64.571,21.371-64.571,65.036v450.123c0,40.844,20.895,62.229,62.192,62.229h452.024
				c41.307,0,62.229-20.315,62.229-62.229V66.804c0-42.602-20.923-65.036-63.521-65.036C514.625,1.768,66.133,1.625,66.275,1.768z"
				/>
		</g>
	</g>
</g>
<g id="Layer_1">
	<path fill="#FFFFFF" d="M501.994,54.611c-8.58,38.612-23.439,57.748-139.855,143.462c-62.314,45.881-86.258,88.724-95.37,116.586
		c-0.965,2.949-1.782,5.792-2.486,8.534V147.341c49.294-40.906,59.137-59.893,65.854-90.127l-11.715-2.603
		c-5.737,25.821-14.292,42.937-54.14,77.074V90.41h-12v51.3c-18.469,15.092-42.418,33.318-73.716,56.363
		c-62.315,45.881-86.258,88.724-95.37,116.586c-2.42,7.398-3.959,14.163-4.905,20.198V90.41h-12v434.978h12v-80.996h12v-80.294
		l-0.209-0.771c-0.192-0.71-17.936-71.998,95.6-155.591c27.21-20.034,49.016-36.553,66.601-50.629v368.281h12v-80.996h9.581v-80.294
		l-0.209-0.771c-0.192-0.71-17.936-71.998,95.6-155.591C488.936,119.617,504.35,99.33,513.709,57.214L501.994,54.611z"/>
</g>
</svg>
