<?xml version="1.0" encoding="utf-8"?>
<!-- Generator: Adobe Illustrator 15.0.0, SVG Export Plug-In . SVG Version: 6.00 Build 0)  -->
<!DOCTYPE svg PUBLIC "-//W3C//DTD SVG 1.1//EN" "http://www.w3.org/Graphics/SVG/1.1/DTD/svg11.dtd">
<svg version="1.1" xmlns="http://www.w3.org/2000/svg" xmlns:xlink="http://www.w3.org/1999/xlink" x="0px" y="0px" width="580px"
	 height="580px" viewBox="0 0 580 580" enable-background="new 0 0 580 580" xml:space="preserve">
<g id="Layer_2">
	<g id="g1327">
		<path id="path1329" fill="#111111" stroke="#EEEEEE" stroke-width="3.408" d="M66.275,1.768
			c-41.335,0-64.571,21.371-64.571,65.036v450.123c0,40.844,20.895,62.229,62.192,62.229H515.92
			c41.307,0,62.229-20.315,62.229-62.229V66.804c0-42.601-20.923-65.036-63.521-65.036C514.624,1.768,66.133,1.625,66.275,1.768z"/>
	</g>
</g>
<g id="Layer_3">
	<path fill="#FFFFFF" d="M404.133,327.167V102.095l114.782-54.511l-11.236-23.661L61.084,236.014l11.237,23.661L175.867,210.5
		v233.678c-19.491,32.831-40.533,67.983-58.158,97.264l9.315,5.607c11.915-19.793,116.525-193.735,120.601-206.009l-10.319-3.428
		c-1.672,4.905-24.653,44.446-52.708,91.838V206.354l210.804-100.113v235.652c-19.491,32.832-40.533,67.986-58.159,97.268
		l9.316,5.607c11.914-19.794,116.522-193.737,120.599-206.009l-10.318-3.43C455.168,240.234,432.188,279.775,404.133,327.167z"/>
</g>
</svg>
