<?xml version="1.0" encoding="UTF-8" standalone="no"?>
<!-- Generator: Adobe Illustrator 15.0.0, SVG Export Plug-In . SVG Version: 6.00 Build 0)  -->

<svg
   xmlns:osb="http://www.openswatchbook.org/uri/2009/osb"
   xmlns:dc="http://purl.org/dc/elements/1.1/"
   xmlns:cc="http://creativecommons.org/ns#"
   xmlns:rdf="http://www.w3.org/1999/02/22-rdf-syntax-ns#"
   xmlns:svg="http://www.w3.org/2000/svg"
   xmlns="http://www.w3.org/2000/svg"
   xmlns:sodipodi="http://sodipodi.sourceforge.net/DTD/sodipodi-0.dtd"
   xmlns:inkscape="http://www.inkscape.org/namespaces/inkscape"
   version="1.1"
   x="0px"
   y="0px"
   width="580px"
   height="580px"
   viewBox="0 0 580 580"
   enable-background="new 0 0 580 580"
   xml:space="preserve"
   id="svg857"
   sodipodi:docname="ticket_validator.svg"
   inkscape:version="0.92.3 (2405546, 2018-03-11)"><metadata
   id="metadata863"><rdf:RDF><cc:Work
       rdf:about=""><dc:format>image/svg+xml</dc:format><dc:type
         rdf:resource="http://purl.org/dc/dcmitype/StillImage" /><dc:title></dc:title></cc:Work></rdf:RDF></metadata><defs
   id="defs861"><linearGradient
     id="linearGradient869"
     osb:paint="solid"><stop
       style="stop-color:#ffffff;stop-opacity:1;"
       offset="0"
       id="stop867" /></linearGradient></defs><sodipodi:namedview
   pagecolor="#ffffff"
   bordercolor="#666666"
   borderopacity="1"
   objecttolerance="10"
   gridtolerance="10"
   guidetolerance="10"
   inkscape:pageopacity="0"
   inkscape:pageshadow="2"
   inkscape:window-width="1265"
   inkscape:window-height="929"
   id="namedview859"
   showgrid="false"
   inkscape:zoom="1.2036126"
   inkscape:cx="279.17208"
   inkscape:cy="290"
   inkscape:window-x="435"
   inkscape:window-y="93"
   inkscape:window-maximized="0"
   inkscape:current-layer="svg857" />
<g
   id="Layer_1">
	<g
   id="Layer_2">
		<g
   id="g1327">
			<path
   id="path1329"
   fill="#111111"
   stroke="#EEEEEE"
   stroke-width="3.408"
   d="M66.275,1.768     c-41.335,0-64.571,21.371-64.571,65.036v450.123c0,40.844,20.895,62.229,62.192,62.229h452.024     c41.307,0,62.229-20.315,62.229-62.229V66.804c0-42.602-20.923-65.036-63.521-65.036C514.625,1.768,66.133,1.625,66.275,1.768z" />
		</g>
	</g>
</g>

<g
   inkscape:groupmode="layer"
   id="layer1"
   inkscape:label="Layer 1"><g
     id="g877"
     transform="matrix(1.3007839,0,0,1,-144.44273,0)"><rect
       y="66.936371"
       x="196.07639"
       height="446.9877"
       width="284.14459"
       id="rect865"
       style="color:#000000;display:inline;overflow:visible;visibility:visible;opacity:1;fill:none;fill-opacity:1;fill-rule:nonzero;stroke:#ffffff;stroke-width:36.02267838;stroke-linejoin:round;stroke-miterlimit:4;stroke-dasharray:none;stroke-opacity:1;marker:none;enable-background:accumulate" /><rect
       y="187.0164"
       x="254.23462"
       height="31.571621"
       width="169.48976"
       id="rect873"
       style="color:#000000;display:inline;overflow:visible;visibility:visible;opacity:1;fill:none;fill-opacity:1;fill-rule:nonzero;stroke:#ffffff;stroke-width:21.66047287;stroke-linejoin:round;stroke-miterlimit:4;stroke-dasharray:none;stroke-opacity:1;marker:none;enable-background:accumulate" /></g></g><g
   id="Layer_2_1_"
   transform="matrix(0.58167102,0,0,0.58167102,112.83304,179.57972)"><g
     id="g854"><g
       id="g850"
       style="opacity:0.5"><rect
         x="271.20801"
         y="195.659"
         transform="matrix(0.7071,0.7071,-0.7071,0.7071,262.6363,-186.1794)"
         width="169.69901"
         height="56.567001"
         id="rect844"
         style="fill:#ffffff" /><rect
         x="105.154"
         y="361.71201"
         transform="matrix(0.7071,0.7071,-0.7071,0.7071,331.4186,-20.126)"
         width="169.69901"
         height="56.567001"
         id="rect846"
         style="fill:#ffffff" /><rect
         x="189.99899"
         y="234.015"
         transform="matrix(0.7071,0.7071,-0.7071,0.7071,296.2747,-104.9703)"
         width="169.69901"
         height="142.271"
         id="rect848"
         style="fill:#ffffff" /></g><path
       d="m 490.179,257.855 40.836,-40.835 c 7.011,-7.01 7.01,-18.376 0,-25.386 L 388.367,48.985 c -7.012,-7.011 -18.377,-7.011 -25.388,0 l -40.836,40.835 1.6,1.6 -3.862,3.862 -1.6,-1.599 -269.297,269.296 c -7.01,7.011 -7.01,18.375 10e-4,25.387 l 44.008,44.008 c 15.086,-15.086 39.547,-15.086 54.633,0 15.086,15.087 15.086,39.547 0,54.633 l 44.008,44.009 c 7.009,7.01 18.375,7.01 25.386,0 l 269.297,-269.296 -1.6,-1.599 3.864,-3.863 z m -41.159,-41.159 6.593,6.593 -3.862,3.863 -6.594,-6.593 z m -13.187,-13.187 6.593,6.593 -3.862,3.863 -6.594,-6.593 z m -13.188,-13.187 6.594,6.594 -3.862,3.863 -6.594,-6.593 z m -13.186,-13.188 6.593,6.594 -3.862,3.863 -6.594,-6.594 z m -13.188,-13.186 6.594,6.594 -3.862,3.863 -6.594,-6.594 z m -13.186,-13.188 6.593,6.594 -3.862,3.863 -6.594,-6.593 z m -13.188,-13.187 6.594,6.594 -3.862,3.862 -6.594,-6.593 z m -13.186,-13.187 6.594,6.594 -3.863,3.863 -6.594,-6.594 z m -23.644,-15.917 -6.594,-6.593 3.863,-3.863 6.593,6.594 z m 10.456,2.73 6.594,6.594 -3.862,3.863 -6.594,-6.594 z M 230.002,469.993 110.007,349.998 150.006,309.999 270,429.995 Z M 284.545,415.449 164.55,295.454 265.152,194.853 385.148,314.848 Z M 396.056,303.939 276.06,183.944 316.059,143.945 436.054,263.94 Z m 68.881,-63.6 -6.594,-6.593 3.863,-3.863 6.593,6.593 z m 13.188,13.187 -6.594,-6.594 3.862,-3.863 6.595,6.594 z"
       id="path852"
       inkscape:connector-curvature="0"
       style="fill:#ffffff" /></g></g></svg>