<?xml version="1.0" encoding="utf-8"?>
<!-- Generator: Adobe Illustrator 15.0.0, SVG Export Plug-In . SVG Version: 6.00 Build 0)  -->
<!DOCTYPE svg PUBLIC "-//W3C//DTD SVG 1.1//EN" "http://www.w3.org/Graphics/SVG/1.1/DTD/svg11.dtd">
<svg version="1.1" id="Layer_1" xmlns="http://www.w3.org/2000/svg" xmlns:xlink="http://www.w3.org/1999/xlink" x="0px" y="0px"
	 width="580px" height="580px" viewBox="0 0 580 580" enable-background="new 0 0 580 580" xml:space="preserve">
<g id="Layer_2">
	<g id="g1327">
		<path id="path1329" fill="#111111" stroke="#EEEEEE" stroke-width="3.408" d="M66.275,1.768
			c-41.335,0-64.571,21.371-64.571,65.036v450.123c0,40.844,20.895,62.229,62.192,62.229h452.024
			c41.307,0,62.229-20.315,62.229-62.229V66.804c0-42.602-20.923-65.036-63.521-65.036C514.625,1.768,66.133,1.625,66.275,1.768z"/>
	</g>
</g>
<path fill="#FFFFFF" d="M526.145,398.212h-9.062v-285.72V96.5h-15.992H78.909H62.917v15.992v285.72h-9.062
	c-5.889,0-10.661,4.772-10.661,10.66v63.968c0,5.888,4.772,10.661,10.661,10.661h33.049c5.888,0,10.661-4.773,10.661-10.661v-63.968
	c0-5.888-4.773-10.66-10.661-10.66h-7.996V186.587h422.183v211.625h-7.996c-5.89,0-10.661,4.772-10.661,10.66v63.968
	c0,5.888,4.771,10.661,10.661,10.661h33.05c5.889,0,10.661-4.773,10.661-10.661v-63.968
	C536.806,402.984,532.033,398.212,526.145,398.212z M439.257,112.492v21.322h-29.317v25.587h29.317v17.591H394.48v-64.5H439.257z
	 M389.148,112.492v64.5h-45.843v-17.591h29.317v-25.587h-29.317v-21.322H389.148z M337.976,112.492v21.322h-29.318v25.587h29.318
	v17.591h-45.312v-64.5H337.976z M287.334,112.492v64.5h-45.31v-17.591h29.317v-25.587h-29.317v-21.322H287.334z M236.694,112.492
	v21.322h-29.318v25.587h29.318v17.591h-46.909v-64.5H236.694z M184.455,112.492v64.5h-43.711v-17.591h29.318v-25.587h-29.318
	v-21.322H184.455z M78.909,112.492h56.504v21.322h-29.317v25.587h29.317v17.591H78.909V112.492z M444.588,176.992v-17.591h29.317
	v-25.587h-29.317v-21.322h56.504v64.5H444.588z"/>
</svg>
