<?xml version="1.0" encoding="UTF-8" standalone="no"?>
<!-- Generator: Adobe Illustrator 15.0.0, SVG Export Plug-In . SVG Version: 6.00 Build 0)  -->

<svg
   xmlns:dc="http://purl.org/dc/elements/1.1/"
   xmlns:cc="http://creativecommons.org/ns#"
   xmlns:rdf="http://www.w3.org/1999/02/22-rdf-syntax-ns#"
   xmlns:svg="http://www.w3.org/2000/svg"
   xmlns="http://www.w3.org/2000/svg"
   xmlns:sodipodi="http://sodipodi.sourceforge.net/DTD/sodipodi-0.dtd"
   xmlns:inkscape="http://www.inkscape.org/namespaces/inkscape"
   version="1.1"
   x="0px"
   y="0px"
   width="580px"
   height="580px"
   viewBox="0 0 580 580"
   enable-background="new 0 0 580 580"
   xml:space="preserve"
   id="svg1648"
   sodipodi:docname="train_wash.svg"
   inkscape:version="0.92.3 (2405546, 2018-03-11)"><metadata
   id="metadata1654"><rdf:RDF><cc:Work
       rdf:about=""><dc:format>image/svg+xml</dc:format><dc:type
         rdf:resource="http://purl.org/dc/dcmitype/StillImage" /><dc:title></dc:title></cc:Work></rdf:RDF></metadata><defs
   id="defs1652">
	
	
</defs><sodipodi:namedview
   pagecolor="#ffffff"
   bordercolor="#666666"
   borderopacity="1"
   objecttolerance="10"
   gridtolerance="10"
   guidetolerance="10"
   inkscape:pageopacity="0"
   inkscape:pageshadow="2"
   inkscape:window-width="1043"
   inkscape:window-height="798"
   id="namedview1650"
   showgrid="false"
   inkscape:zoom="0.81454783"
   inkscape:cx="290"
   inkscape:cy="290"
   inkscape:window-x="724"
   inkscape:window-y="108"
   inkscape:window-maximized="0"
   inkscape:current-layer="svg1648" />
<g
   id="Layer_2">
	<g
   id="g1327">
		<path
   id="path1329"
   fill="#111111"
   stroke="#EEEEEE"
   stroke-width="3.408"
   d="M66.275,1.768    c-41.335,0-64.571,21.371-64.571,65.036v450.123c0,40.844,20.895,62.229,62.192,62.229H515.92    c41.307,0,62.229-20.315,62.229-62.229V66.804c0-42.601-20.923-65.036-63.521-65.036C514.624,1.768,66.133,1.625,66.275,1.768z" />
	</g>
</g>
<g
   id="g1645">
		<ellipse
   style="fill:#ffffff"
   id="ellipse1631"
   ry="34.403"
   rx="19.867001"
   cy="181.136"
   cx="483.82001" />
		<ellipse
   style="fill:#ffffff"
   id="ellipse1633"
   ry="34.403"
   rx="19.867001"
   cy="233.468"
   cx="418.89099" />
		<ellipse
   style="fill:#ffffff"
   id="ellipse1635"
   ry="34.403"
   rx="19.867001"
   cy="157.87801"
   cx="353.961" />
		<ellipse
   style="fill:#ffffff"
   id="ellipse1637"
   ry="34.403"
   rx="19.867001"
   cy="172.414"
   cx="214.41" />
		<ellipse
   style="fill:#ffffff"
   id="ellipse1639"
   ry="34.403"
   rx="19.865999"
   cy="136.558"
   cx="146.573" />
		<ellipse
   style="fill:#ffffff"
   id="ellipse1641"
   ry="34.403"
   rx="19.867001"
   cy="189.858"
   cx="96.18" />
		<ellipse
   style="fill:#ffffff"
   id="ellipse1643"
   ry="34.403"
   rx="19.867001"
   cy="129.774"
   cx="283.216" />
	</g>
<g
   id="g3574"
   transform="matrix(0.73221533,0,0,0.73221533,66.043266,124.43816)"><g
     id="g3576"><path
       inkscape:connector-curvature="0"
       style="fill:#ffffff;stroke:none"
       d="M 295.5625,77.1875 213.03125,77.25 c -38.43866,-1.1e-5 -66.71875,30.86801 -66.71875,64.5 v 238.21875 c 3e-5,32.58264 25.49108,59.30702 51.125,63.4375 l -76.875,115.3125 h 44.375 L 219.90625,478.125 h 75.28125 0.0625 0.0625 75.28125 l 54.96875,80.59375 h 44.375 l -76.875,-115.3125 c 25.63388,-4.1305 51.15625,-30.85484 51.15625,-63.4375 V 141.75 c -4e-5,-33.63196 -28.31137,-64.5 -66.75,-64.5 z M 262.875,91 h 32.3125 0.0625 0.0625 32.3125 c 5.84817,0 10.9375,4.90183 10.9375,10.75 v 18.9375 c 0,5.84817 -4.81084,10.875 -10.9375,10.875 H 295.3125 295.25 295.1875 262.875 c -6.12665,0 -10.9375,-5.02683 -10.9375,-10.875 V 101.75 c 0,-5.84817 5.08932,-10.749997 10.9375,-10.75 z m -47.625,53.40625 h 79.9375 0.125 79.9375 c 21.72176,1e-5 33.25001,15.552 33.25,33.375 v 42.875 c 0.16931,20.60784 -14.87004,33.25 -33.25,33.25 H 295.3125 295.25 295.1875 215.25 c -18.37997,0 -33.41932,-12.64216 -33.25,-33.25 v -42.875 c -1e-5,-17.823 11.52822,-33.375 33.25,-33.375 z m -3.625,205.75 c 16.15766,-3e-5 29.28125,13.09234 29.28125,29.25 0,16.1565 -13.12359,29.25 -29.28125,29.25 -16.15769,-2e-5 -29.25,-13.09346 -29.25,-29.25 -4e-5,-16.1577 13.09234,-29.25 29.25,-29.25 z m 166.5625,0 c 16.15764,-2e-5 29.25,13.09233 29.25,29.25 -2e-5,16.15652 -13.09233,29.25001 -29.25,29.25 -16.15768,-2e-5 -29.25001,-13.09347 -29.25,-29.25 -2e-5,-16.15768 13.09235,-29.25 29.25,-29.25 z"
       transform="matrix(0.8977168,0,0,0.8977168,40.710583,46.777129)"
       id="path3578" /></g><g
     id="g3584" /></g></svg>