<?xml version="1.0" encoding="utf-8"?>
<!-- Generator: Adobe Illustrator 15.0.0, SVG Export Plug-In . SVG Version: 6.00 Build 0)  -->
<!DOCTYPE svg PUBLIC "-//W3C//DTD SVG 1.1//EN" "http://www.w3.org/Graphics/SVG/1.1/DTD/svg11.dtd">
<svg version="1.1" xmlns="http://www.w3.org/2000/svg" xmlns:xlink="http://www.w3.org/1999/xlink" x="0px" y="0px" width="580px"
	 height="580px" viewBox="0 0 580 580" enable-background="new 0 0 580 580" xml:space="preserve">
<g id="Layer_2_1_">
	<g id="Layer_2">
		<g id="g1327">
			<path id="path1329" fill="#111111" stroke="#EEEEEE" stroke-width="3.408" d="M66.275,1.768
				c-41.335,0-64.571,21.371-64.571,65.036v450.123c0,40.844,20.895,62.229,62.192,62.229h452.024
				c41.307,0,62.229-20.315,62.229-62.229V66.804c0-42.602-20.923-65.036-63.521-65.036C514.625,1.768,66.133,1.625,66.275,1.768z"
				/>
		</g>
	</g>
</g>
<g id="Layer_1">
	<g>
		<path fill="#FFFFFF" d="M325.376,481.789c67.023-0.028,121.941-51.774,127.039-117.484l-254.178,0.09
			C203.381,430.107,258.347,481.817,325.376,481.789z"/>
		<path fill="#FFFFFF" d="M198.218,344.343l254.196-0.157c-5.108-65.749-60.092-117.496-127.146-117.466
			C258.198,226.747,203.247,278.566,198.218,344.343z"/>
		<path fill="#FFFFFF" d="M472.166,349.174l-19.47,0.012l-254.753,0.156l-27.956,0.018l-0.258-0.055
			c-0.353-0.075-0.708-0.113-1.058-0.113H54.155c-2.792,0-5.063,2.271-5.063,5.063s2.271,5.063,5.063,5.063h89.185l0.188,0.028
			c0.301,0.046,0.544,0.067,0.766,0.068l53.658-0.019l254.746-0.09l19.435-0.007c2.805,0,5.076-2.265,5.083-5.049
			c0.004-1.352-0.52-2.624-1.473-3.583C474.788,349.707,473.518,349.177,472.166,349.174z"/>
		<path fill="#FFFFFF" d="M529.125,178.181c-2.694-3.191-7.464-3.597-10.656-0.903l-80.586,67.984
			c-3.192,2.693-3.597,7.464-0.904,10.657c1.496,1.772,3.633,2.686,5.785,2.686c1.721,0,3.452-0.585,4.872-1.782l80.586-67.984
			C531.413,186.145,531.818,181.374,529.125,178.181z"/>
		<path fill="#FFFFFF" d="M385.056,216.92c1.054,0.503,2.165,0.743,3.26,0.743c2.82,0,5.528-1.586,6.827-4.3l40.916-85.488
			c1.803-3.767,0.211-8.283-3.557-10.086c-3.769-1.801-8.284-0.21-10.087,3.558L381.5,206.833
			C379.697,210.6,381.289,215.117,385.056,216.92z"/>
		<path fill="#FFFFFF" d="M324.782,204.085c4.176,0,7.562-3.386,7.562-7.562v-90.75c0-4.176-3.386-7.562-7.562-7.562
			c-4.177,0-7.563,3.386-7.563,7.562v90.75C317.219,200.699,320.605,204.085,324.782,204.085z"/>
		<path fill="#FFFFFF" d="M256.945,214.272c1.297,2.719,4.006,4.309,6.831,4.309c1.091,0,2.2-0.237,3.25-0.738
			c3.77-1.799,5.368-6.312,3.57-10.082l-41.651-87.326c-1.798-3.769-6.312-5.367-10.082-3.57c-3.77,1.799-5.368,6.312-3.57,10.082
			L256.945,214.272z"/>
		<path fill="#FFFFFF" d="M123.473,184.518l82.781,70.121c1.421,1.204,3.157,1.792,4.885,1.792c2.146,0,4.278-0.909,5.774-2.674
			c2.7-3.188,2.305-7.959-0.882-10.659l-82.781-70.121c-3.186-2.698-7.959-2.304-10.659,0.882
			C119.891,177.047,120.286,181.818,123.473,184.518z"/>
	</g>
</g>
</svg>
