<?xml version="1.0" encoding="UTF-8" standalone="no"?>
<!-- Generator: Adobe Illustrator 15.0.0, SVG Export Plug-In . SVG Version: 6.00 Build 0)  -->

<svg
   xmlns:dc="http://purl.org/dc/elements/1.1/"
   xmlns:cc="http://creativecommons.org/ns#"
   xmlns:rdf="http://www.w3.org/1999/02/22-rdf-syntax-ns#"
   xmlns:svg="http://www.w3.org/2000/svg"
   xmlns="http://www.w3.org/2000/svg"
   xmlns:sodipodi="http://sodipodi.sourceforge.net/DTD/sodipodi-0.dtd"
   xmlns:inkscape="http://www.inkscape.org/namespaces/inkscape"
   version="1.1"
   id="Layer_1"
   x="0px"
   y="0px"
   width="580px"
   height="580px"
   viewBox="0 0 580 580"
   enable-background="new 0 0 580 580"
   xml:space="preserve"
   inkscape:version="0.48.4 r9939"
   sodipodi:docname="29022.svg"><metadata
   id="metadata28"><rdf:RDF><cc:Work
       rdf:about=""><dc:format>image/svg+xml</dc:format><dc:type
         rdf:resource="http://purl.org/dc/dcmitype/StillImage" /><dc:title></dc:title></cc:Work></rdf:RDF></metadata><defs
   id="defs26" /><sodipodi:namedview
   pagecolor="#ffffff"
   bordercolor="#666666"
   borderopacity="1"
   objecttolerance="10"
   gridtolerance="10"
   guidetolerance="10"
   inkscape:pageopacity="0"
   inkscape:pageshadow="2"
   inkscape:window-width="1399"
   inkscape:window-height="955"
   id="namedview24"
   showgrid="false"
   inkscape:zoom="0.32"
   inkscape:cx="184.60183"
   inkscape:cy="290"
   inkscape:window-x="310"
   inkscape:window-y="76"
   inkscape:window-maximized="0"
   inkscape:current-layer="Layer_1" />
<g
   id="Layer_2">
	<g
   id="g1327">
		<path
   id="path1329"
   fill="#111111"
   stroke="#EEEEEE"
   stroke-width="3.408"
   d="M66.275,1.768    c-41.335,0-64.571,21.371-64.571,65.036v450.123c0,40.844,20.896,62.229,62.192,62.229h452.024    c41.307,0,62.229-20.314,62.229-62.229V66.804c0-42.602-20.923-65.036-63.521-65.036C514.625,1.768,66.133,1.625,66.275,1.768z" />
	</g>
</g>
<g
   id="svg2"
   inkscape:output_extension="org.inkscape.output.svg.inkscape"
   sodipodi:version="0.32"
   sodipodi:docname="amenity_atm.svg"
   inkscape:version="0.46"
   sodipodi:docbase="s:\Data\FacilityIcons"
   display="none">
	
		<sodipodi:namedview
   id="base"
   inkscape:window-width="1280"
   inkscape:window-x="0"
   inkscape:window-height="1005"
   inkscape:current-layer="svg2"
   inkscape:pageshadow="2"
   inkscape:window-y="0"
   inkscape:pageopacity="0.0"
   gridtolerance="10.0"
   objecttolerance="10.0"
   guidetolerance="10.0"
   inkscape:zoom="1.3034483"
   showgrid="false"
   borderopacity="1.0"
   bordercolor="#666666"
   pagecolor="#ffffff"
   inkscape:cy="302.63451"
   inkscape:cx="285.84646">
		</sodipodi:namedview>
	<defs
   display="inline"
   id="defs8">
		
		
			<inkscape:perspective
   id="perspective2441"
   inkscape:persp3d-origin="290 : 193.33333 : 1"
   inkscape:vp_z="580 : 290 : 1"
   inkscape:vp_y="0 : 1000 : 0"
   inkscape:vp_x="0 : 290 : 1"
   sodipodi:type="inkscape:persp3d">
			</inkscape:perspective>
	</defs>
	
		<path
   id="rect3241"
   sodipodi:nodetypes="ccccccccc"
   display="inline"
   opacity="0.75"
   fill="#FFFFFF"
   stroke="#FFFFFF"
   stroke-width="35.845"
   stroke-linecap="round"
   stroke-linejoin="round"
   enable-background="new    "
   d="   M103.979,82.413v62.924h112.402c7.778-20.622,12.716-34.171,13.042-36.066l190.991-1.647l14.589,37.714h69.612V82.413H103.979z" />
	
		<path
   id="path2443"
   sodipodi:nodetypes="ccccccc"
   display="inline"
   fill="none"
   stroke="#FFFFFF"
   stroke-width="20"
   stroke-linejoin="round"
   d="   M227.906,158.094l-40.375,0.375c-1.603,9.296-122.313,358.625-122.313,358.625l403.813-3.406l-15.594-40.313l-333.094,2.845   C120.344,476.219,195.438,243.832,227.906,158.094z" />
	
		<path
   id="path3243"
   sodipodi:nodetypes="ccccc"
   display="inline"
   fill="none"
   stroke="#FFFFFF"
   stroke-width="20"
   stroke-linejoin="round"
   d="   M242.694,117.588c-1.604,9.296-122.338,358.618-122.338,358.618l403.838-3.411L401.652,116.069L242.694,117.588z" />
	
		<path
   id="path3163"
   sodipodi:nodetypes="ccccc"
   display="inline"
   opacity="0.1"
   fill="#FFFFFF"
   stroke="#FFFFFF"
   stroke-width="20"
   stroke-linecap="round"
   stroke-linejoin="round"
   enable-background="new    "
   d="   M242.694,117.588c-1.604,9.296-122.338,358.618-122.338,358.618l403.838-3.411L401.652,116.069L242.694,117.588z" />
	
		<path
   id="path3165"
   sodipodi:nodetypes="ccccccc"
   display="inline"
   opacity="0.1"
   fill="#FFFFFF"
   stroke="#FFFFFF"
   stroke-width="20"
   stroke-linecap="round"
   stroke-linejoin="round"
   enable-background="new    "
   d="   M227.906,158.094l-40.375,0.375c-1.603,9.296-122.313,358.625-122.313,358.625l403.813-3.406l-15.594-40.313l-333.094,2.845   C120.344,476.219,195.438,243.832,227.906,158.094z" />
	<g
   id="g4372"
   transform="translate(-130.0802,122.26983)"
   display="inline">
	</g>
	<g
   id="g4998"
   transform="translate(-133.14896,123.86039)"
   display="inline">
		<g
   id="g5004">
			<path
   id="text2413"
   fill="#FFFFFF"
   d="M465.402,153.84c0.229,0.098,1.086,0.291,2.572,0.581     c23.435,3.872,41.037,10.938,52.811,21.199c11.772,10.261,17.66,23.716,17.66,40.364c0,17.036-6.459,31.798-19.376,44.285     c-12.917,12.487-30.807,19.263-53.669,20.327v26.426h-18.347v-26.135c-23.32-2.228-41.209-8.641-53.669-19.238     c-12.46-10.6-19.49-25.434-21.09-44.504l30.864-4.646c2.399,14.326,7.259,25.36,14.574,33.104s17.09,12.148,29.321,13.213V175.62     c-23.205-4.26-40.581-11.374-52.126-21.344s-17.318-22.795-17.318-38.478c0-15.584,5.717-28.966,17.147-40.146     s28.863-17.641,52.297-19.384V43.782h18.347v12.487c19.434,1.646,34.75,6.873,45.953,15.681     c11.202,8.81,18.232,21.15,21.091,37.025l-32.063,3.92c-1.829-9.873-5.659-17.689-11.488-23.449     c-5.83-5.759-13.66-9.462-23.491-11.107L465.402,153.84L465.402,153.84z M447.055,150.646V78.048     c-12.46,1.84-22.006,6.074-28.635,12.705c-6.63,6.632-9.945,14.303-9.945,23.015c0,9.971,3.429,17.835,10.288,23.595     C425.622,143.12,435.052,147.549,447.055,150.646L447.055,150.646z M465.402,258.817c12.003-1.549,21.892-5.977,29.664-13.285     s11.659-16.527,11.659-27.66c0-9.775-2.942-17.641-8.83-23.594s-16.719-11.012-32.493-15.174V258.817z" />
		</g>
		
			<path
   id="path4370"
   sodipodi:nodetypes="cc"
   fill="none"
   stroke="#FFFFFF"
   stroke-width="30"
   stroke-linecap="round"
   stroke-linejoin="round"
   d="    M455.376,43.427V308.47" />
	</g>
</g>
<path
   id="path2323"
   d="m 220.54873,50.746888 c -20.32094,0 -31.09927,11.092778 -36.07526,24.078144 l -26.4157,68.210248 c -10.47067,1.34253 -29.03549,13.63459 -29.03549,36.92028 v 86.73861 h 25.71224 v 27.73958 c 0,34.12928 48.29783,33.72669 48.29783,0 v -27.73958 h 86.88015 0.028 86.88016 v 27.73958 c 0,33.72669 48.29698,34.12928 48.29868,0 v -27.73958 h 25.71138 v -86.73946 c 0,-23.28568 -18.56312,-35.57775 -29.03549,-36.92028 L 395.35154,74.824185 C 390.3747,61.838819 379.59637,50.74604 359.27543,50.74604 h -37.34236 -63.59024 -37.7941 z m -0.30935,24.839247 h 69.61718 0.0559 0.028 69.64516 c 8.70692,0.08137 12.437,5.526896 14.92542,13.066731 l 19.90987,53.677254 h -104.4796 -0.028 -0.0559 -104.45417 l 19.90987,-53.677254 c 2.48842,-7.539835 6.21765,-12.986213 14.92627,-13.066731 z m -40.58171,92.850325 c 12.32258,0 22.30337,10.28167 22.30337,22.98141 0,12.69889 -9.98164,23.00768 -22.30337,23.00768 -12.32088,0 -22.30421,-10.30794 -22.30421,-23.00768 0,-12.69974 9.98333,-22.98141 22.30421,-22.98141 z m 220.53848,0 c 12.32089,0 22.30252,10.28167 22.30252,22.98141 0,12.69889 -9.98163,23.00768 -22.30252,23.00768 -12.32173,0 -22.33472,-10.30794 -22.33472,-23.00768 0.002,-12.69974 10.01299,-22.98141 22.33472,-22.98141 z"
   inkscape:connector-curvature="0"
   style="fill:#ffffff" />

<rect
   style="color:#000000;fill:#ffffff;fill-opacity:1;fill-rule:nonzero;stroke:#c8c8c8;stroke-width:0;stroke-linecap:round;stroke-linejoin:miter;stroke-miterlimit:4;stroke-opacity:1;stroke-dasharray:none;stroke-dashoffset:1.76000004;marker:none;visibility:visible;display:inline;overflow:visible;enable-background:accumulate"
   id="rect30"
   width="42.332054"
   height="20.734066"
   x="380.20609"
   y="321.37848" /><rect
   y="321.37848"
   x="156.45094"
   height="20.734066"
   width="42.332054"
   id="rect32"
   style="color:#000000;fill:#ffffff;fill-opacity:1;fill-rule:nonzero;stroke:#c8c8c8;stroke-width:0;stroke-linecap:round;stroke-linejoin:miter;stroke-miterlimit:4;stroke-opacity:1;stroke-dasharray:none;stroke-dashoffset:1.76000004;marker:none;visibility:visible;display:inline;overflow:visible;enable-background:accumulate" /><rect
   style="color:#000000;fill:#ffffff;fill-opacity:1;fill-rule:nonzero;stroke:#c8c8c8;stroke-width:0;stroke-linecap:round;stroke-linejoin:miter;stroke-miterlimit:4;stroke-opacity:1;stroke-dasharray:none;stroke-dashoffset:1.76000004;marker:none;visibility:visible;display:inline;overflow:visible;enable-background:accumulate"
   id="rect34"
   width="265.22327"
   height="11.230952"
   x="157.31487"
   y="341.55823" /><rect
   style="color:#000000;fill:#ffffff;fill-opacity:1;fill-rule:nonzero;stroke:#c8c8c8;stroke-width:0;stroke-linecap:round;stroke-linejoin:miter;stroke-miterlimit:4;stroke-opacity:1;stroke-dasharray:none;stroke-dashoffset:1.76000004;marker:none;visibility:visible;display:inline;overflow:visible;enable-background:accumulate"
   id="rect36"
   width="22.461905"
   height="75.160988"
   x="278.69556"
   y="352.78918" /><rect
   style="color:#000000;fill:#ffffff;fill-opacity:1;fill-rule:nonzero;stroke:#c8c8c8;stroke-width:0;stroke-linecap:round;stroke-linejoin:miter;stroke-miterlimit:4;stroke-opacity:1;stroke-dasharray:none;stroke-dashoffset:1.76000004;marker:none;visibility:visible;display:inline;overflow:visible;enable-background:accumulate"
   id="rect38"
   width="33.69286"
   height="101.94249"
   x="273.08008"
   y="427.08624" /></svg>