<?xml version="1.0" encoding="utf-8"?>
<!-- Generator: Adobe Illustrator 15.0.0, SVG Export Plug-In . SVG Version: 6.00 Build 0)  -->
<!DOCTYPE svg PUBLIC "-//W3C//DTD SVG 1.1//EN" "http://www.w3.org/Graphics/SVG/1.1/DTD/svg11.dtd">
<svg version="1.1" id="Layer_1" xmlns="http://www.w3.org/2000/svg" xmlns:xlink="http://www.w3.org/1999/xlink" x="0px" y="0px"
	 width="580px" height="580px" viewBox="0 0 580 580" enable-background="new 0 0 580 580" xml:space="preserve">
<g id="Layer_2">
	<g id="g1327">
		<path id="path1329" fill="#111111" stroke="#EEEEEE" stroke-width="3.408" d="M66.275,1.768
			c-41.335,0-64.571,21.371-64.571,65.036v450.123c0,40.844,20.895,62.229,62.192,62.229H515.92
			c41.307,0,62.229-20.315,62.229-62.229V66.804c0-42.601-20.924-65.036-63.521-65.036C514.624,1.768,66.133,1.625,66.275,1.768z"/>
	</g>
</g>
<g>
	<polygon fill="#FFFFFF" points="220.465,87.072 220.465,187.719 319.231,196.631 319.231,71.956 216.918,87.072 	"/>
	<polygon fill="#FFFFFF" points="67.24,173.895 152.35,181.574 152.35,96.611 67.24,109.187 	"/>
	<polygon fill="#FFFFFF" points="469.082,44.5 469.082,49.815 387.346,61.892 387.346,202.776 469.082,210.151 469.082,545.143 
		503.141,545.143 503.141,44.5 	"/>
</g>
</svg>
