<?xml version="1.0" encoding="UTF-8" standalone="no"?>
<!-- Created with Inkscape (http://www.inkscape.org/) -->

<svg
   version="1.0"
   width="580"
   height="580"
   id="svg2"
   sodipodi:version="0.32"
   inkscape:version="1.2.2 (b0a8486541, 2022-12-01)"
   sodipodi:docname="substation.svg"
   inkscape:output_extension="org.inkscape.output.svg.inkscape"
   xmlns:inkscape="http://www.inkscape.org/namespaces/inkscape"
   xmlns:sodipodi="http://sodipodi.sourceforge.net/DTD/sodipodi-0.dtd"
   xmlns="http://www.w3.org/2000/svg"
   xmlns:svg="http://www.w3.org/2000/svg"
   xmlns:rdf="http://www.w3.org/1999/02/22-rdf-syntax-ns#"
   xmlns:cc="http://creativecommons.org/ns#"
   xmlns:dc="http://purl.org/dc/elements/1.1/">
  <metadata
     id="metadata10">
    <rdf:RDF>
      <cc:Work
         rdf:about="">
        <dc:format>image/svg+xml</dc:format>
        <dc:type
           rdf:resource="http://purl.org/dc/dcmitype/StillImage" />
        <cc:license
           rdf:resource="http://web.resource.org/cc/PublicDomain" />
        <dc:language>en</dc:language>
        <dc:title />
      </cc:Work>
    </rdf:RDF>
  </metadata>
  <sodipodi:namedview
     inkscape:window-height="1357"
     inkscape:window-width="1550"
     inkscape:pageshadow="2"
     inkscape:pageopacity="0.0"
     guidetolerance="10.0"
     gridtolerance="10.0"
     objecttolerance="10.0"
     borderopacity="1.0"
     bordercolor="#666666"
     pagecolor="#ffffff"
     id="base"
     showgrid="false"
     inkscape:zoom="0.5"
     inkscape:cx="194"
     inkscape:cy="312"
     inkscape:window-x="0"
     inkscape:window-y="0"
     inkscape:current-layer="svg2"
     inkscape:window-maximized="0"
     inkscape:showpageshadow="2"
     inkscape:pagecheckerboard="0"
     inkscape:deskcolor="#d1d1d1"
     showguides="true" />
  <defs
     id="defs4">
    <inkscape:perspective
       sodipodi:type="inkscape:persp3d"
       inkscape:vp_x="0 : 290 : 1"
       inkscape:vp_y="0 : 1000 : 0"
       inkscape:vp_z="580 : 290 : 1"
       inkscape:persp3d-origin="290 : 193.33333 : 1"
       id="perspective12" />
    <style
       type="text/css"
       id="style6">
   
    .fil0 {fill:#EF7900}
   
  </style>
    <inkscape:perspective
       id="perspective6807"
       inkscape:persp3d-origin="29.116032 : 19.410688 : 1"
       inkscape:vp_z="58.232063 : 29.116032 : 1"
       inkscape:vp_y="0 : 1000 : 0"
       inkscape:vp_x="0 : 29.116032 : 1"
       sodipodi:type="inkscape:persp3d" />
    <inkscape:perspective
       id="perspective6954"
       inkscape:persp3d-origin="290 : 193.33333 : 1"
       inkscape:vp_z="580 : 290 : 1"
       inkscape:vp_y="0 : 1000 : 0"
       inkscape:vp_x="0 : 290 : 1"
       sodipodi:type="inkscape:persp3d" />
    <inkscape:perspective
       id="perspective2541"
       inkscape:persp3d-origin="240 : 160 : 1"
       inkscape:vp_z="480 : 240 : 1"
       inkscape:vp_y="0 : 1000 : 0"
       inkscape:vp_x="0 : 240 : 1"
       sodipodi:type="inkscape:persp3d" />
    <inkscape:perspective
       id="perspective2750"
       inkscape:persp3d-origin="215 : 143.33333 : 1"
       inkscape:vp_z="430 : 215 : 1"
       inkscape:vp_y="0 : 1000 : 0"
       inkscape:vp_x="0 : 215 : 1"
       sodipodi:type="inkscape:persp3d" />
    <inkscape:perspective
       id="perspective3730"
       inkscape:persp3d-origin="88.929146 : 101.19778 : 1"
       inkscape:vp_z="177.85829 : 151.79668 : 1"
       inkscape:vp_y="0 : 1000 : 0"
       inkscape:vp_x="0 : 151.79668 : 1"
       sodipodi:type="inkscape:persp3d" />
  </defs>
  <g
     id="g1327">
    <path
       d="M 66.275,1.768 C 24.94,1.768 1.704,23.139 1.704,66.804 L 1.704,516.927 C 1.704,557.771 22.598,579.156 63.896,579.156 L 515.92,579.156 C 557.227,579.156 578.149,558.84 578.149,516.927 L 578.149,66.804 C 578.149,24.203 557.227,1.768 514.627,1.768 C 514.624,1.768 66.133,1.625 66.275,1.768 z"
       style="fill:#111111;stroke:#eeeeee;stroke-width:3.40799999"
       id="path1329" />
  </g>
  <polygon
     fill="#ffffff"
     points="306.608,44.157 272.303,32.971 236.811,162.652 231.731,181.212 249.422,177.711 322.167,164.107 296.002,252.572 279.075,236.26 281.412,304.975 328.999,255.348 306.829,256.159 348.268,145.145 265.239,152.978 "
     id="polygon309-5"
     transform="matrix(0.85437618,0,0,0.85437618,-102.10468,12.611196)" />
  <g
     style="stroke-width:25.8332;stroke-miterlimit:4;stroke-dasharray:none"
     transform="matrix(0.70750768,0,0,0.70750768,-54.312361,177.51252)"
     id="g5464">
    <path
       inkscape:connector-curvature="0"
       id="path5466"
       style="fill:none;stroke:#ffffff;stroke-width:25.8332;stroke-linecap:round;stroke-miterlimit:4;stroke-dasharray:none;stroke-dashoffset:0;stroke-opacity:1"
       d="m 439.36679,494.83382 c -0.24704,0.005 -40.22701,0.008 -40.47526,0.008 v 0 c -19.5539,0 -35.40547,-15.85157 -35.40547,-35.40547 0,-19.5539 15.85157,-35.40547 35.40547,-35.40547 0.24825,0 0.49591,0.003 0.74294,0.008 m 0,-0.57537 c -0.24703,0.005 -0.49469,0.008 -0.74294,0.008 v 0 c -19.5539,0 -35.40547,-15.85157 -35.40547,-35.40547 0,-19.5539 15.85157,-35.40547 35.40547,-35.40547 0.24825,0 0.49591,0.003 0.74294,0.008 m 0,-1.31115 c -0.24703,0.005 -0.49469,0.008 -0.74294,0.008 v 0 c -19.5539,0 -35.40547,-15.85157 -35.40547,-35.40547 0,-19.5539 15.85157,-35.40547 35.40547,-35.40547 0.24825,0 0.49591,0.003 0.74294,0.008 m 0,-0.57537 c -0.24703,0.005 -0.49469,0.008 -0.74294,0.008 v 0 c -19.5539,0 -35.40547,-15.85157 -35.40547,-35.40547 0,-19.5539 15.85157,-35.40547 35.40547,-35.40547 0.24825,0 40.22822,0.003 40.47526,0.008" />
    <path
       d="m 136.32934,494.83382 c 0.24703,0.005 40.22701,0.008 40.47526,0.008 v 0 c 19.5539,0 35.40547,-15.85157 35.40547,-35.40547 0,-19.5539 -15.85157,-35.40547 -35.40547,-35.40547 -0.24825,0 -0.49591,0.003 -0.74295,0.008 m 0,-0.57537 c 0.24704,0.005 0.4947,0.008 0.74295,0.008 v 0 c 19.5539,0 35.40547,-15.85157 35.40547,-35.40547 0,-19.5539 -15.85157,-35.40547 -35.40547,-35.40547 -0.24825,0 -0.49591,0.003 -0.74295,0.008 m 0,-1.31115 c 0.24704,0.005 0.4947,0.008 0.74295,0.008 v 0 c 19.5539,0 35.40547,-15.85157 35.40547,-35.40547 0,-19.5539 -15.85157,-35.40547 -35.40547,-35.40547 -0.24825,0 -0.49591,0.003 -0.74295,0.008 m 0,-0.57537 c 0.24704,0.005 0.4947,0.008 0.74295,0.008 v 0 c 19.5539,0 35.40547,-15.85157 35.40547,-35.40547 0,-19.5539 -15.85157,-35.40547 -35.40547,-35.40547 -0.24825,0 -40.22823,0.003 -40.47526,0.008"
       style="fill:none;stroke:#ffffff;stroke-width:25.8332;stroke-linecap:round;stroke-miterlimit:4;stroke-dasharray:none;stroke-dashoffset:0;stroke-opacity:1"
       id="path5468"
       inkscape:connector-curvature="0" />
    <path
       style="fill:none;stroke:#ffffff;stroke-width:25.8332;stroke-linecap:round;stroke-linejoin:miter;stroke-miterlimit:4;stroke-dasharray:none;stroke-opacity:1"
       d="M 316.33325,212.53913 V 493.48902"
       id="path5470"
       inkscape:connector-curvature="0" />
    <path
       inkscape:connector-curvature="0"
       id="path5472"
       d="M 262.25974,212.53913 V 493.48902"
       style="fill:none;stroke:#ffffff;stroke-width:25.8332;stroke-linecap:round;stroke-linejoin:miter;stroke-miterlimit:4;stroke-dasharray:none;stroke-opacity:1" />
  </g>
  <g
     style="stroke-width:25.8332;stroke-miterlimit:4;stroke-dasharray:none"
     transform="matrix(0.70750768,0,0,0.70750768,227.00293,-90.373909)"
     id="g5484">
    <path
       inkscape:connector-curvature="0"
       id="path5486"
       style="fill:none;stroke:#ffffff;stroke-width:25.8332;stroke-linecap:round;stroke-miterlimit:4;stroke-dasharray:none;stroke-dashoffset:0;stroke-opacity:1"
       d="m 439.36679,494.83382 c -0.24704,0.005 -40.22701,0.008 -40.47526,0.008 v 0 c -19.5539,0 -35.40547,-15.85157 -35.40547,-35.40547 0,-19.5539 15.85157,-35.40547 35.40547,-35.40547 0.24825,0 0.49591,0.003 0.74294,0.008 m 0,-0.57537 c -0.24703,0.005 -0.49469,0.008 -0.74294,0.008 v 0 c -19.5539,0 -35.40547,-15.85157 -35.40547,-35.40547 0,-19.5539 15.85157,-35.40547 35.40547,-35.40547 0.24825,0 0.49591,0.003 0.74294,0.008 m 0,-1.31115 c -0.24703,0.005 -0.49469,0.008 -0.74294,0.008 v 0 c -19.5539,0 -35.40547,-15.85157 -35.40547,-35.40547 0,-19.5539 15.85157,-35.40547 35.40547,-35.40547 0.24825,0 0.49591,0.003 0.74294,0.008 m 0,-0.57537 c -0.24703,0.005 -0.49469,0.008 -0.74294,0.008 v 0 c -19.5539,0 -35.40547,-15.85157 -35.40547,-35.40547 0,-19.5539 15.85157,-35.40547 35.40547,-35.40547 0.24825,0 40.22822,0.003 40.47526,0.008" />
    <path
       d="m 136.32934,494.83382 c 0.24703,0.005 40.22701,0.008 40.47526,0.008 v 0 c 19.5539,0 35.40547,-15.85157 35.40547,-35.40547 0,-19.5539 -15.85157,-35.40547 -35.40547,-35.40547 -0.24825,0 -0.49591,0.003 -0.74295,0.008 m 0,-0.57537 c 0.24704,0.005 0.4947,0.008 0.74295,0.008 v 0 c 19.5539,0 35.40547,-15.85157 35.40547,-35.40547 0,-19.5539 -15.85157,-35.40547 -35.40547,-35.40547 -0.24825,0 -0.49591,0.003 -0.74295,0.008 m 0,-1.31115 c 0.24704,0.005 0.4947,0.008 0.74295,0.008 v 0 c 19.5539,0 35.40547,-15.85157 35.40547,-35.40547 0,-19.5539 -15.85157,-35.40547 -35.40547,-35.40547 -0.24825,0 -0.49591,0.003 -0.74295,0.008 m 0,-0.57537 c 0.24704,0.005 0.4947,0.008 0.74295,0.008 v 0 c 19.5539,0 35.40547,-15.85157 35.40547,-35.40547 0,-19.5539 -15.85157,-35.40547 -35.40547,-35.40547 -0.24825,0 -40.22823,0.003 -40.47526,0.008"
       style="fill:none;stroke:#ffffff;stroke-width:25.8332;stroke-linecap:round;stroke-miterlimit:4;stroke-dasharray:none;stroke-dashoffset:0;stroke-opacity:1"
       id="path5488"
       inkscape:connector-curvature="0" />
    <path
       style="fill:none;stroke:#ffffff;stroke-width:25.8332;stroke-linecap:round;stroke-linejoin:miter;stroke-miterlimit:4;stroke-dasharray:none;stroke-opacity:1"
       d="M 316.33325,212.53913 V 493.48902"
       id="path5490"
       inkscape:connector-curvature="0" />
    <path
       inkscape:connector-curvature="0"
       id="path5492"
       d="M 262.25974,212.53913 V 493.48902"
       style="fill:none;stroke:#ffffff;stroke-width:25.8332;stroke-linecap:round;stroke-linejoin:miter;stroke-miterlimit:4;stroke-dasharray:none;stroke-opacity:1" />
  </g>
  <polygon
     fill="#ffffff"
     points="322.167,164.107 296.002,252.572 279.075,236.26 281.412,304.975 328.999,255.348 306.829,256.159 348.268,145.145 265.239,152.978 306.608,44.157 272.303,32.971 236.811,162.652 231.731,181.212 249.422,177.711 "
     id="polygon309"
     transform="matrix(0.85437618,0,0,0.85437618,184.98068,288.38284)" />
</svg>
