<?xml version="1.0" encoding="utf-8"?>
<!-- Generator: Adobe Illustrator 15.0.0, SVG Export Plug-In . SVG Version: 6.00 Build 0)  -->
<!DOCTYPE svg PUBLIC "-//W3C//DTD SVG 1.1//EN" "http://www.w3.org/Graphics/SVG/1.1/DTD/svg11.dtd">
<svg version="1.1" xmlns="http://www.w3.org/2000/svg" xmlns:xlink="http://www.w3.org/1999/xlink" x="0px" y="0px" width="580px"
	 height="580px" viewBox="0 0 580 580" enable-background="new 0 0 580 580" xml:space="preserve">
<g id="Layer_1">
	<g id="Layer_2">
		<g id="g1327">
			<path id="path1329" fill="#111111" stroke="#EEEEEE" stroke-width="3.408" d="M66.275,1.768
				c-41.335,0-64.571,21.371-64.571,65.036v450.123c0,40.844,20.895,62.229,62.192,62.229h452.024
				c41.307,0,62.229-20.315,62.229-62.229V66.804c0-42.602-20.923-65.036-63.521-65.036C514.625,1.768,66.133,1.625,66.275,1.768z"
				/>
		</g>
	</g>
</g>
<g id="Layer_2_1_">
	<path fill="#FFFFFF" d="M290,184.09c-67.599,0-122.397,54.799-122.397,122.397v48.72v61.199v37.5
		c2.614,0.402,5.287,0.785,7.988,1.158c0.744,0.104,1.499,0.202,2.25,0.303c2.124,0.285,4.273,0.561,6.449,0.827
		c0.682,0.085,1.357,0.169,2.044,0.251c5.777,0.689,11.725,1.314,17.825,1.877c0.493,0.045,0.991,0.09,1.487,0.134
		c2.802,0.253,5.634,0.493,8.499,0.719c0.306,0.023,0.608,0.05,0.915,0.073c6.563,0.511,13.283,0.949,20.142,1.318
		c0.206,0.011,0.412,0.021,0.618,0.032c3.39,0.181,6.811,0.344,10.266,0.489c0.021,0.002,0.041,0.002,0.063,0.004l0,0
		c14.148,0.594,28.81,0.9,43.851,0.9c45.646,0,87.897-2.773,122.397-8.086v-37.5v-61.199v-48.72
		C412.397,238.888,357.598,184.09,290,184.09z"/>
	<path opacity="0.8" fill="#FFFFFF" d="M412.396,453.906c-34.5,5.313-76.75,8.086-122.397,8.086c-15.041,0-29.701-0.307-43.851-0.9
		c-28.787-1.209-55.414-3.625-78.546-7.186c0,0-26.782,15.189-36.802,53.775c14.716,3.855,32.091,7.025,51.485,9.471
		c8.464,1.066,17.32,1.992,26.495,2.78c24.997,2.149,52.426,3.259,81.218,3.259c39.36,0,76.194-2.065,107.714-6.039
		c19.395-2.445,36.77-5.615,51.486-9.471C439.179,469.095,412.396,453.906,412.396,453.906z"/>
	<polygon opacity="0.8" fill="#FFFFFF" points="281.546,56.808 298.454,56.808 295.454,167.803 284.546,167.803 	"/>
	<polygon opacity="0.8" fill="#FFFFFF" points="406.837,83.966 421.775,91.885 367.135,188.546 357.497,183.436 	"/>
	<polygon opacity="0.8" fill="#FFFFFF" points="504.812,166.646 514.302,180.641 420.75,240.447 414.628,231.419 	"/>
	<polygon opacity="0.8" fill="#FFFFFF" points="552.647,285.589 554.475,302.397 443.808,311.417 442.629,300.572 	"/>
	<polygon opacity="0.8" fill="#FFFFFF" points="173.163,83.966 158.224,91.885 212.865,188.546 222.503,183.436 	"/>
	<polygon opacity="0.8" fill="#FFFFFF" points="75.187,166.646 65.698,180.641 159.25,240.447 165.372,231.419 	"/>
	<polygon opacity="0.8" fill="#FFFFFF" points="27.352,285.589 25.524,302.397 136.191,311.417 137.371,300.572 	"/>
</g>
</svg>
