<?xml version="1.0" encoding="UTF-8" standalone="no"?>
<!-- Generator: Adobe Illustrator 16.0.0, SVG Export Plug-In . SVG Version: 6.00 Build 0)  -->

<svg
   xmlns:dc="http://purl.org/dc/elements/1.1/"
   xmlns:cc="http://creativecommons.org/ns#"
   xmlns:rdf="http://www.w3.org/1999/02/22-rdf-syntax-ns#"
   xmlns:svg="http://www.w3.org/2000/svg"
   xmlns="http://www.w3.org/2000/svg"
   xmlns:xlink="http://www.w3.org/1999/xlink"
   xmlns:sodipodi="http://sodipodi.sourceforge.net/DTD/sodipodi-0.dtd"
   xmlns:inkscape="http://www.inkscape.org/namespaces/inkscape"
   version="1.1"
   id="Ebene_1"
   x="0px"
   y="0px"
   width="580px"
   height="580px"
   viewBox="0 0 580 580"
   enable-background="new 0 0 580 580"
   xml:space="preserve"
   sodipodi:docname="highway_corridor.svg"
   inkscape:version="0.92.3 (2405546, 2018-03-11)"><metadata
   id="metadata1052"><rdf:RDF><cc:Work
       rdf:about=""><dc:format>image/svg+xml</dc:format><dc:type
         rdf:resource="http://purl.org/dc/dcmitype/StillImage" /><dc:title></dc:title></cc:Work></rdf:RDF></metadata><defs
   id="defs1050">
	<defs
   id="defs1018">
		<rect
   height="580"
   width="580"
   id="SVGID_1_" />
	</defs>
	<clipPath
   id="SVGID_2_">
		<use
   id="use1020"
   overflow="visible"
   xlink:href="#SVGID_1_" />
	</clipPath>
	
	
	
	
	
	
	
	
	
	
	
</defs><sodipodi:namedview
   pagecolor="#ffffff"
   bordercolor="#666666"
   borderopacity="1"
   objecttolerance="10"
   gridtolerance="10"
   guidetolerance="10"
   inkscape:pageopacity="0"
   inkscape:pageshadow="2"
   inkscape:window-width="1472"
   inkscape:window-height="894"
   id="namedview1048"
   showgrid="false"
   inkscape:zoom="0.98491553"
   inkscape:cx="290"
   inkscape:cy="290"
   inkscape:window-x="360"
   inkscape:window-y="117"
   inkscape:window-maximized="0"
   inkscape:current-layer="Ebene_1" />
<path
   style="fill:#111111"
   inkscape:connector-curvature="0"
   id="path1023"
   d="M 66.275,1.768 C 24.94,1.768 1.704,23.139 1.704,66.804 v 450.123 c 0,40.845 20.894,62.229 62.192,62.229 H 515.92 c 41.307,0 62.229,-20.316 62.229,-62.229 V 66.804 c 0,-42.601 -20.924,-65.036 -63.522,-65.036 -0.003,0 -448.494,-0.143 -448.352,0"
   clip-path="url(#SVGID_2_)" /><path
   style="fill:#eeeeee"
   inkscape:connector-curvature="0"
   id="path1025"
   d="M 515.92,580.86 H 63.896 c -20.964,0 -37.043,-5.484 -47.792,-16.301 C 5.418,553.806 0,537.779 0,516.927 V 66.804 C 0,23.142 22.917,0.064 66.275,0.064 v 0.028 c 0.519,-0.039 1.239,-0.042 2.269,-0.045 1.493,-0.005 3.699,-0.009 6.553,-0.013 5.706,-0.008 14.004,-0.015 24.376,-0.02 103.438,-0.048 413.251,0.049 415.146,0.05 21.565,0 38.039,5.741 48.97,17.063 10.792,11.179 16.265,27.893 16.265,49.677 v 450.123 c 0,42.423 -21.511,63.933 -63.934,63.933 z M 67.437,3.46 67.432,3.472 H 66.275 C 45.915,3.472 30.24,8.739 19.684,19.126 8.884,29.754 3.408,45.795 3.408,66.804 v 450.123 c 0,40.162 20.351,60.525 60.488,60.525 H 515.92 c 40.728,0 60.525,-19.798 60.525,-60.525 V 66.804 c 0,-42.024 -20.799,-63.332 -61.818,-63.332 -1.523,0 -199.84,-0.063 -332.176,-0.063 -84.029,0 -109.775,0.026 -115.014,0.051 z"
   clip-path="url(#SVGID_2_)" />
<rect
   style="color:#000000;display:inline;overflow:visible;visibility:visible;opacity:1;fill:none;fill-opacity:1;fill-rule:nonzero;stroke:#ffffff;stroke-width:18.01270294;stroke-miterlimit:4;stroke-dasharray:none;stroke-opacity:1;marker:none;enable-background:accumulate"
   id="rect1077"
   width="149.1964"
   height="149.1964"
   x="215.40179"
   y="215.40179" /><path
   style="fill:none;fill-rule:evenodd;stroke:#ffffff;stroke-width:18;stroke-linecap:butt;stroke-linejoin:miter;stroke-miterlimit:4;stroke-dasharray:none;stroke-opacity:1"
   d="M 69.258041,69.258041 215.40179,215.40179 v 0 0"
   id="path1624"
   inkscape:connector-curvature="0" /><path
   style="fill:none;fill-rule:evenodd;stroke:#ffffff;stroke-width:18;stroke-linecap:butt;stroke-linejoin:miter;stroke-miterlimit:4;stroke-dasharray:none;stroke-opacity:1"
   d="M 362.57533,362.57532 509.6658,509.66581 v 0 0"
   id="path1624-0"
   inkscape:connector-curvature="0" /><path
   style="fill:none;fill-rule:evenodd;stroke:#ffffff;stroke-width:18;stroke-linecap:butt;stroke-linejoin:miter;stroke-miterlimit:4;stroke-dasharray:none;stroke-opacity:1"
   d="M 509.53917,70.460811 360.42622,219.57376 v 0 0"
   id="path1624-1"
   inkscape:connector-curvature="0" /><path
   style="fill:none;fill-rule:evenodd;stroke:#ffffff;stroke-width:18;stroke-linecap:butt;stroke-linejoin:miter;stroke-miterlimit:4;stroke-dasharray:none;stroke-opacity:1"
   d="M 219.94824,362.32745 75.891484,506.38421 v 0 0"
   id="path1624-1-6"
   inkscape:connector-curvature="0" /><path
   style="fill:none;fill-rule:evenodd;stroke:#ffffff;stroke-width:12;stroke-linecap:butt;stroke-linejoin:miter;stroke-opacity:1;stroke-miterlimit:4;stroke-dasharray:none"
   d="M 103.54391,475.31825 V 223.85448 l 54.26536,31.33012 v 165.51708 h -4.20018"
   id="path1662"
   inkscape:connector-curvature="0" /><path
   style="fill:none;fill-rule:evenodd;stroke:#ffffff;stroke-width:12;stroke-linecap:butt;stroke-linejoin:miter;stroke-miterlimit:4;stroke-dasharray:none;stroke-opacity:1"
   d="M 477.71935,471.38636 V 219.92259 l -54.26536,31.33012 v 165.51708 h 4.20018"
   id="path1662-1"
   inkscape:connector-curvature="0" /><circle
   style="color:#000000;display:inline;overflow:visible;visibility:visible;opacity:1;fill:none;fill-opacity:1;fill-rule:nonzero;stroke:#ffffff;stroke-width:8;stroke-miterlimit:4;stroke-dasharray:none;stroke-opacity:1;marker:none;enable-background:accumulate"
   id="path1679"
   cx="138.24817"
   cy="330.24301"
   r="3.9824579" /><circle
   style="color:#000000;display:inline;overflow:visible;visibility:visible;opacity:1;fill:none;fill-opacity:1;fill-rule:nonzero;stroke:#ffffff;stroke-width:8;stroke-miterlimit:4;stroke-dasharray:none;stroke-opacity:1;marker:none;enable-background:accumulate"
   id="path1679-2"
   cx="457.41373"
   cy="334.22546"
   r="3.9824579" /></svg>