<?xml version="1.0" encoding="UTF-8" standalone="no"?>
<svg
   xmlns:dc="http://purl.org/dc/elements/1.1/"
   xmlns:cc="http://creativecommons.org/ns#"
   xmlns:rdf="http://www.w3.org/1999/02/22-rdf-syntax-ns#"
   xmlns:svg="http://www.w3.org/2000/svg"
   xmlns="http://www.w3.org/2000/svg"
   xmlns:sodipodi="http://sodipodi.sourceforge.net/DTD/sodipodi-0.dtd"
   xmlns:inkscape="http://www.inkscape.org/namespaces/inkscape"
   viewBox="0 0 105.82599 173.87333"
   height="173.87332"
   width="105.826"
   xml:space="preserve"
   id="svg2"
   version="1.1"
   sodipodi:docname="asl.svg"
   inkscape:version="0.92.3 (2405546, 2018-03-11)"><sodipodi:namedview
     pagecolor="#ffffff"
     bordercolor="#666666"
     borderopacity="1"
     objecttolerance="10"
     gridtolerance="10"
     guidetolerance="10"
     inkscape:pageopacity="0"
     inkscape:pageshadow="2"
     inkscape:window-width="1074"
     inkscape:window-height="827"
     id="namedview879"
     showgrid="false"
     fit-margin-top="0"
     fit-margin-left="0"
     fit-margin-right="0"
     fit-margin-bottom="0"
     inkscape:zoom="2.5191891"
     inkscape:cx="52.916336"
     inkscape:cy="86.937002"
     inkscape:window-x="182"
     inkscape:window-y="182"
     inkscape:window-maximized="0"
     inkscape:current-layer="svg2" /><metadata
     id="metadata8"><rdf:RDF><cc:Work
         rdf:about=""><dc:format>image/svg+xml</dc:format><dc:type
           rdf:resource="http://purl.org/dc/dcmitype/StillImage" /><dc:title></dc:title></cc:Work></rdf:RDF></metadata><defs
     id="defs6" /><g
     transform="matrix(0,1.3333333,1.3333333,0,0,0)"
     id="g10"><g
       transform="scale(0.1)"
       id="g12"><path
         id="path14"
         style="fill:#bdbcbc;fill-opacity:1;fill-rule:nonzero;stroke:none"
         d="M 0,0.273438 H 1303.92 V 792.98844 H 0 Z"
         inkscape:connector-curvature="0" /><path
         id="path16"
         style="fill:#918f90;fill-opacity:1;fill-rule:nonzero;stroke:none"
         d="M 1304.05,169.336 V 0 H 270.742 v 54.0234 c 0,63.4176 51.895,115.3126 115.305,115.3126 h 918.003 v 0"
         inkscape:connector-curvature="0" /><path
         id="path18"
         style="fill:#ffffff;fill-opacity:1;fill-rule:nonzero;stroke:none"
         d="M 1304.05,340.68 V 315.215 H 337.539 v 25.465 h 966.511 v 0"
         inkscape:connector-curvature="0" /><path
         id="path20"
         style="fill:#ffffff;fill-opacity:1;fill-rule:nonzero;stroke:none"
         d="m 609.199,510.844 h 25.469 V 340.746 h -25.469 v 170.098"
         inkscape:connector-curvature="0" /><path
         id="path22"
         style="fill:#fcd213;fill-opacity:1;fill-rule:nonzero;stroke:none"
         d="M 1304.05,545.828 V 510.844 H 609.414 v 34.984 h 694.636 v 0"
         inkscape:connector-curvature="0" /><path
         id="path24"
         style="fill:#918f90;fill-opacity:1;fill-rule:nonzero;stroke:none"
         d="m 271.23,731.734 c -0.351,3.516 -0.488,6.965 -0.488,10.555 v 51.406 H 1304.05 V 626.98 H 386.047 v 0 c -37.602,0 -71.137,18.219 -92.192,46.235 h 13.254 v 24.289 h 101.164 v 1.449 H 307.109 v 7.039 h 101.164 v 1.449 H 307.109 v 24.293 H 271.23 v 0"
         inkscape:connector-curvature="0" /><path
         id="path26"
         style="fill:#fcd213;fill-opacity:1;fill-rule:nonzero;stroke:none"
         d="m 337.539,637.742 c 8.977,-4.207 18.566,-7.312 28.566,-9.035 V 340.816 h -28.566 v 296.926"
         inkscape:connector-curvature="0" /><path
         id="path28"
         style="fill:#fcd213;fill-opacity:1;fill-rule:nonzero;stroke:none"
         d="m 438.281,464.82 -4.355,13.879 3.535,6.301 3.828,-2.809 -1.687,-4.355 2.488,-8.871 4.336,-1.82 0.144,10.457 9.875,-6.082 0.118,64.636 -5.625,3.024 v 0 c 0.007,-0.367 -0.071,-1.953 -0.071,-2.321 -0.086,-1.621 -0.469,-3.89 -1.187,-5.394 -0.364,-0.774 -0.969,-1.524 -1.77,-1.82 -0.613,-0.235 -1.387,-0.29 -1.926,0.117 -0.425,0.332 -0.632,1.097 -0.711,1.648 -0.085,0.57 -0.058,3.313 -0.058,3.895 0.019,1.418 -0.352,4.578 -0.52,5.98 -0.125,1.137 -0.515,4.43 -0.73,5.547 v 0 l -1.199,5.215 v 0 c -0.168,0.93 -0.305,2.172 0.027,3.07 0.305,0.836 0.918,1.586 1.777,1.875 0.75,0.25 1.629,0.051 2.356,-0.269 0.801,-0.352 1.551,-0.883 2.039,-1.633 0.383,-0.61 0.801,-2.242 0.984,-2.945 v 0 l 0.918,-3.575 v 0 c 0.317,-1.14 0.356,-2.554 0.403,-3.761 v 0 l 5.546,-3.34 21.172,10.14 v 0 c -0.449,1.153 -1.113,2.895 -1.465,4.079 -1.21,4.078 -1.406,8.417 -0.859,12.628 1.106,8.403 5.066,16.157 11.25,21.918 6.301,5.899 14.453,9.375 23.066,9.575 9.258,0.214 18.211,-3.325 24.883,-9.743 6.934,-6.648 10.813,-15.851 10.84,-25.441 0.039,-8.887 -3.203,-17.492 -9.238,-23.988 -2.942,-3.16 -6.504,-5.699 -10.391,-7.551 -3.281,-1.559 -6.765,-2.641 -10.359,-3.125 -1.106,-0.137 -2.68,-0.27 -3.781,-0.352 v 0 l -0.086,-12.796 v 0 c 0.222,-0.086 0.515,-0.188 0.742,-0.27 0.879,-0.316 1.695,-0.75 2.488,-1.285 0.988,-0.688 1.887,-1.539 2.52,-2.559 0.234,-0.386 0.539,-0.965 0.722,-1.386 v 0 l 4.993,1.187 -0.665,2.926 2.418,0.648 1.887,-7.433 -2.117,-0.586 -0.734,2.41 -5.047,-1.305 v 0 c 0.047,-0.281 0.136,-0.719 0.164,-1.008 0.488,-3.656 -0.899,-7.332 -3.672,-9.754 -2.813,-2.421 -6.641,-3.324 -10.188,-2.222 -0.242,0.086 -0.64,0.219 -0.894,0.316 v 0 l -28.34,-36.937 5.645,-3.907 v 0 c 0.769,0.969 1.855,2.34 2.695,3.243 6.558,7.265 15.918,11.64 25.683,11.109 19.637,-1.07 35.614,-16.855 35.145,-36.539 -0.457,-19.277 -16.98,-33.828 -36.27,-34.578 -11.281,-0.453 -21.804,5.41 -28.171,14.765 -6.907,10.157 -8.528,23.137 -3.664,34.434 0.378,0.848 1.003,2.117 1.425,2.953 v 0 l -27.273,17.442 -0.324,-9.524 -12.735,5.867 v 0"
         inkscape:connector-curvature="0" /><path
         id="path30"
         style="fill:#231f20;fill-opacity:1;fill-rule:nonzero;stroke:none"
         d="m 176.633,731.734 h 130.476 v -24.293 h 101.164 v -1.449 H 307.109 v -7.039 h 101.164 v -1.449 H 307.109 V 673.215 H 176.633 v 58.519"
         inkscape:connector-curvature="0" /><path
         id="path32"
         style="fill:#bdbcbc;fill-opacity:1;fill-rule:nonzero;stroke:none"
         d="m 510.52,437.383 -24.25,15.586 v 0 c 0.371,0.484 0.871,1.136 1.242,1.586 5.508,6.664 13.789,10.41 22.422,9.976 16.414,-0.801 30.398,-13.316 30.586,-29.769 0.195,-16.793 -13.723,-29.992 -30.469,-30.813 -9.809,-0.48 -18.965,4.602 -24.582,12.653 -3.992,5.781 -5.711,12.828 -5.52,19.828 0.117,3.574 0.793,7.433 2.531,10.558 0.262,0.453 0.684,1.137 0.965,1.586 v 0 l 24.582,-15.883 v 0 c 0.071,-0.035 1.641,-1.054 1.719,-1.074 1.027,-0.23 2.078,0.219 2.676,1.074 0.793,1.098 0.723,2.602 -0.164,3.622 v 0 l -1.738,1.07 v 0"
         inkscape:connector-curvature="0" /><path
         id="path34"
         style="fill:#bdbcbc;fill-opacity:1;fill-rule:nonzero;stroke:none"
         d="m 504.617,564.547 -21.902,-10.91 v 0 c -0.164,0.535 -0.418,1.332 -0.567,1.871 -2.46,8.617 -0.976,17.84 3.887,25.39 5.469,8.493 14.746,14.051 24.832,13.715 16.496,-0.531 30.571,-13.093 30.942,-29.617 0.347,-15.754 -11.704,-28.836 -27.297,-31.008 -0.481,-0.066 -1.16,-0.148 -1.653,-0.199 v 0 l -0.3,23.941 v 0 c 0.488,0.165 1.191,0.434 1.64,0.684 2.285,1.234 3.762,3.629 3.543,6.215 -0.281,3.305 -2.996,5.879 -6.316,6.016 -3.094,0.117 -5.891,-1.891 -6.621,-4.899 -0.078,-0.332 -0.149,-0.848 -0.188,-1.199 v 0"
         inkscape:connector-curvature="0" /><path
         id="path36"
         style="fill:#bdbcbc;fill-opacity:1;fill-rule:nonzero;stroke:none"
         d="m 461.711,468.121 0.098,64.27 36.668,-21.715 v 0 c -0.215,-0.754 -0.497,-1.875 -0.606,-2.645 -0.066,-0.586 -0.066,-1.468 -0.066,-2.054 v 0 l -3.325,-0.766 -0.703,2.422 -2,-0.621 1.883,-7.332 2.07,0.55 -0.613,2.422 2.981,0.77 v 0 c 0.215,-0.723 0.562,-1.785 0.965,-2.422 0.312,-0.5 0.917,-1.156 1.335,-1.57 v 0 l -28.472,-37.645 -10.215,6.336 v 0"
         inkscape:connector-curvature="0" /><path
         id="path38"
         style="fill:#bdbcbc;fill-opacity:1;fill-rule:nonzero;stroke:none"
         d="m 462.441,538.305 17.918,8.922 v 0 c 0.434,-0.872 1.086,-2.09 1.582,-2.926 4.563,-7.516 12.786,-12.176 21.379,-14.067 1.203,-0.25 2.891,-0.531 4.114,-0.73 v 0 l 0.164,-12.199 v 0 c -0.442,-0.082 -1.075,-0.215 -1.504,-0.332 -0.633,-0.2 -1.27,-0.469 -1.856,-0.774 -0.539,-0.281 -1.086,-0.613 -1.55,-0.98 -0.305,-0.235 -0.723,-0.606 -0.989,-0.867 v 0 l -39.258,23.953 v 0"
         inkscape:connector-curvature="0" /><path
         id="path40"
         style="fill:#bdbcbc;fill-opacity:1;fill-rule:nonzero;stroke:none"
         d="m 484.551,549.711 21.281,10.508 v 0 c 0.176,-0.215 0.457,-0.531 0.684,-0.703 0.214,-0.18 0.566,-0.379 0.82,-0.516 v 0 l 0.262,-24.492 v 0 c -0.567,0.019 -1.387,0.066 -1.953,0.117 -8.055,0.734 -15.04,5.918 -19.551,12.633 -0.489,0.703 -1.106,1.715 -1.543,2.453 v 0"
         inkscape:connector-curvature="0" /><path
         id="path42"
         style="fill:#bdbcbc;fill-opacity:1;fill-rule:nonzero;stroke:none"
         d="m 506.531,498.656 5.852,8.438 3.703,1.019 v 0 c 0.059,-0.23 0.137,-0.597 0.184,-0.832 0.683,-4.746 -3.321,-8.707 -8.118,-8.769 -0.464,0 -1.148,0.082 -1.621,0.144 v 0"
         inkscape:connector-curvature="0" /><path
         id="path44"
         style="fill:#bdbcbc;fill-opacity:1;fill-rule:nonzero;stroke:none"
         d="m 502.734,501.387 c -0.117,0.152 -0.3,0.386 -0.418,0.539 -0.441,0.597 -0.753,1.383 -0.91,2.086 v 0 l 4.035,1.039 -2.707,-3.664 v 0"
         inkscape:connector-curvature="0" /><path
         id="path46"
         style="fill:#bdbcbc;fill-opacity:1;fill-rule:nonzero;stroke:none"
         d="m 503.281,507.113 -2.414,-0.683 v 0 c -0.125,0.617 0.051,1.468 0.156,2.086 v 0 l 2.258,-1.403 v 0"
         inkscape:connector-curvature="0" /><path
         id="path48"
         style="fill:#bdbcbc;fill-opacity:1;fill-rule:nonzero;stroke:none"
         d="m 506.863,510.746 -3.297,2.008 v 0 c 0.223,0.152 0.575,0.387 0.789,0.531 0.52,0.352 1.204,0.774 1.79,0.938 0.21,0.07 0.535,0.132 0.73,0.168 v 0 l -0.012,-3.645 v 0"
         inkscape:connector-curvature="0" /><path
         id="path50"
         style="fill:#bdbcbc;fill-opacity:1;fill-rule:nonzero;stroke:none"
         d="m 512.109,509.305 -0.039,4.078 v 0 c 0.325,-0.18 0.813,-0.449 1.106,-0.668 0.535,-0.367 1.023,-0.836 1.453,-1.32 0.273,-0.297 0.637,-0.766 0.891,-1.102 v 0 l -3.411,-0.988 v 0"
         inkscape:connector-curvature="0" /><path
         id="path52"
         style="fill:#918f90;fill-opacity:1;fill-rule:nonzero;stroke:none"
         d="m 178.281,730.145 h 127.168 v -55.27 H 178.281 v 55.27"
         inkscape:connector-curvature="0" /><path
         id="path54"
         style="fill:#231f20;fill-opacity:1;fill-rule:nonzero;stroke:none"
         d="m 202.156,716 c 7.453,0 13.528,-6.074 13.528,-13.523 0,-7.457 -6.075,-13.528 -13.528,-13.528 -7.449,0 -13.523,6.071 -13.523,13.528 0,7.449 6.074,13.523 13.523,13.523 v 0"
         inkscape:connector-curvature="0" /><path
         id="path56"
         style="fill:#231f20;fill-opacity:1;fill-rule:nonzero;stroke:none"
         d="m 241.836,716 c 7.449,0 13.594,-6.074 13.594,-13.523 0,-7.457 -6.145,-13.528 -13.594,-13.528 -7.449,0 -13.523,6.071 -13.523,13.528 0,7.449 6.074,13.523 13.523,13.523 v 0"
         inkscape:connector-curvature="0" /><path
         id="path58"
         style="fill:#231f20;fill-opacity:1;fill-rule:nonzero;stroke:none"
         d="m 281.516,716 c 7.515,0 13.589,-6.074 13.589,-13.523 0,-7.457 -6.074,-13.528 -13.589,-13.528 -7.461,0 -13.528,6.071 -13.528,13.528 0,7.449 6.067,13.523 13.528,13.523 v 0"
         inkscape:connector-curvature="0" /><path
         id="path60"
         style="fill:#ffffff;fill-opacity:1;fill-rule:nonzero;stroke:none"
         d="m 202.156,714.551 2.414,-0.278 2.278,-0.687 2.066,-1.106 1.801,-1.519 1.441,-1.727 1.106,-2.07 0.691,-2.277 0.277,-2.41 -0.277,-2.418 -0.691,-2.282 -1.106,-1.996 -1.441,-1.797 -1.801,-1.519 -2.066,-1.102 -2.278,-0.687 -2.414,-0.207 -2.41,0.207 -2.285,0.687 -1.992,1.102 -1.797,1.519 -1.524,1.797 -1.101,1.996 -0.688,2.282 -0.203,2.418 0.203,2.41 0.688,2.277 1.101,2.07 1.524,1.727 1.797,1.519 1.992,1.106 2.285,0.687 2.41,0.278 v 0"
         inkscape:connector-curvature="0" /><path
         id="path62"
         style="fill:#ffffff;fill-opacity:1;fill-rule:nonzero;stroke:none"
         d="m 241.836,714.551 2.41,-0.278 2.277,-0.687 2.071,-1.106 1.797,-1.519 1.445,-1.797 1.105,-2 0.692,-2.277 0.273,-2.41 -0.273,-2.418 -0.692,-2.282 -1.105,-1.996 -1.445,-1.797 -1.797,-1.519 -2.071,-1.102 -2.277,-0.687 -2.41,-0.207 -2.422,0.207 -2.207,0.687 -2.07,1.102 -1.785,1.519 -1.457,1.797 -1.106,1.996 -0.75,2.282 -0.215,2.418 0.215,2.41 0.75,2.277 1.106,2 1.457,1.797 1.785,1.519 2.07,1.106 2.207,0.687 2.422,0.278 v 0"
         inkscape:connector-curvature="0" /><path
         id="path64"
         style="fill:#ffffff;fill-opacity:1;fill-rule:nonzero;stroke:none"
         d="m 281.516,714.551 2.476,-0.278 2.207,-0.687 2.074,-1.106 1.793,-1.519 1.45,-1.797 1.101,-2 0.762,-2.277 0.207,-2.41 -0.207,-2.418 -0.762,-2.282 -1.101,-1.996 -1.45,-1.797 -1.793,-1.519 -2.074,-1.102 -2.207,-0.687 -2.476,-0.207 -2.422,0.207 -2.207,0.687 -2.071,1.102 -1.789,1.519 -1.457,1.797 -1.101,1.996 -0.696,2.282 -0.269,2.418 0.269,2.41 0.696,2.277 1.101,2 1.457,1.797 1.789,1.519 2.071,1.106 2.207,0.687 2.422,0.278 v 0"
         inkscape:connector-curvature="0" /></g></g></svg>