<?xml version="1.0" encoding="UTF-8" standalone="no"?>
<!DOCTYPE svg PUBLIC "-//W3C//DTD SVG 1.0//EN" "http://www.w3.org/TR/2001/REC-SVG-20010904/DTD/svg10.dtd">
<svg
   xmlns:svg="http://www.w3.org/2000/svg"
   xmlns="http://www.w3.org/2000/svg"
   version="1.0"
   width="106.65369"
   height="106.65369"
   id="svg1891">
  <defs
     id="defs1893" />
  <g
     transform="translate(-226.6732,-367.6068)"
     id="layer1">
    <g
       transform="matrix(1.249992,0,0,-1.249992,-90.64763,951.9552)"
       style="font-style:normal;font-variant:normal;font-weight:normal;font-stretch:normal;letter-spacing:normal;word-spacing:normal;text-anchor:start;fill:none;fill-opacity:1;stroke:black;stroke-linecap:butt;stroke-linejoin:miter;stroke-miterlimit:10.43299961;stroke-dasharray:none;stroke-dashoffset:0;stroke-opacity:1"
       id="g10"
       xml:space="preserve">
<path
   d="M 296.52,467.34 L 298.7,467.29 L 300.86,467.12 L 302.99,466.85 L 305.09,466.48 L 307.14,466.01 L 309.16,465.43 L 311.14,464.76 L 313.07,464 L 314.95,463.15 L 316.78,462.21 L 318.57,461.19 L 320.29,460.08 L 321.96,458.9 L 323.56,457.64 L 325.11,456.3 L 326.58,454.89 L 327.99,453.41 L 329.33,451.87 L 330.59,450.27 L 331.78,448.6 L 332.88,446.87 L 333.91,445.09 L 334.85,443.26 L 335.7,441.38 L 336.46,439.44 L 337.13,437.47 L 337.7,435.45 L 338.18,433.39 L 338.55,431.3 L 338.82,429.17 L 338.98,427.01 L 339.04,424.82 C 339.04,401.34 320,382.3 296.52,382.3 C 273.04,382.3 254,401.34 254,424.82 C 254,448.31 273.04,467.34 296.52,467.34 z "
   style="fill:white;fill-rule:nonzero;stroke:white;stroke-width:0;stroke-linejoin:round"
   id="path12" />
<path
   d="M 296.52,467.34 L 298.7,467.29 L 300.86,467.12 L 302.99,466.85 L 305.09,466.48 L 307.14,466.01 L 309.16,465.43 L 311.14,464.76 L 313.07,464 L 314.95,463.15 L 316.78,462.21 L 318.57,461.19 L 320.29,460.08 L 321.96,458.9 L 323.56,457.64 L 325.11,456.3 L 326.58,454.89 L 327.99,453.41 L 329.33,451.87 L 330.59,450.27 L 331.78,448.6 L 332.88,446.87 L 333.91,445.09 L 334.85,443.26 L 335.7,441.38 L 336.46,439.44 L 337.13,437.47 L 337.7,435.45 L 338.18,433.39 L 338.55,431.3 L 338.82,429.17 L 338.98,427.01 L 339.04,424.82 C 339.04,401.34 320,382.3 296.52,382.3 C 273.04,382.3 254,401.34 254,424.82 C 254,448.31 273.04,467.34 296.52,467.34 z "
   style="stroke-width:0.28349999;stroke-linejoin:round"
   id="path14" />
<path
   d="M 296.51,465.93 L 297.55,465.91 L 298.59,465.88 L 299.62,465.81 L 300.65,465.72 L 301.67,465.61 L 302.68,465.47 L 303.69,465.31 L 304.69,465.12 L 305.69,464.9 L 306.68,464.66 L 307.67,464.4 L 308.65,464.11 L 309.62,463.79 L 310.59,463.45 L 311.55,463.09 L 312.51,462.7 C 317.43,460.61 321.79,457.68 325.58,453.89 C 329.37,450.09 332.31,445.74 334.39,440.82 C 336.54,435.73 337.62,430.4 337.62,424.82 C 337.62,419.25 336.54,413.91 334.39,408.82 C 332.31,403.91 329.37,399.55 325.58,395.76 C 321.79,391.96 317.43,389.03 312.51,386.95 C 307.42,384.8 302.09,383.72 296.51,383.72 C 290.94,383.72 285.61,384.8 280.52,386.95 C 275.6,389.03 271.24,391.96 267.45,395.76 C 263.66,399.55 260.72,403.91 258.64,408.82 C 256.49,413.91 255.41,419.25 255.41,424.82 C 255.41,430.4 256.49,435.73 258.64,440.82 C 260.72,445.74 263.66,450.09 267.45,453.89 C 271.24,457.68 275.6,460.61 280.52,462.7 C 285.61,464.85 290.94,465.93 296.51,465.93 z "
   style="fill:#0070ff;fill-rule:nonzero;stroke:#0070ff;stroke-width:0"
   id="path16" />
<path
   d="M 307.41,410.45 L 307.41,410.43 L 307.41,410.41 L 307.4,410.39 L 307.39,410.38 L 307.39,410.36 L 307.38,410.34 L 307.36,410.32 L 307.35,410.3 L 307.33,410.28 L 307.32,410.26 L 307.3,410.24 L 307.28,410.22 L 307.26,410.2 L 307.24,410.18 L 307.22,410.16 L 307.2,410.14 L 307.15,410.1 L 307.11,410.05 L 307.06,410.01 L 307.02,409.97 L 306.99,409.95 L 306.97,409.94 L 306.95,409.92 L 306.93,409.9 L 306.91,409.88 L 306.89,409.86 L 306.87,409.85 L 306.85,409.83 C 306.7,409.7 306.54,409.59 306.37,409.48 C 306.25,409.41 305.91,409.2 305.82,409.1 C 305.77,409.07 305.51,408.66 305.49,408.61 L 305.49,408.61 L 304.76,407.7 L 304.29,407.02 L 303.73,406.39 L 303.47,405.77 L 303.47,405.77 C 303.41,405.63 303.21,405.35 303.12,405.2 C 302.96,404.96 302.8,404.71 302.69,404.43 C 302.55,404.21 302.44,403.93 302.43,403.66 C 302.41,403.57 302.38,403.27 302.31,403.24 C 302.27,403.2 302.09,403.18 302.05,403.2 C 301.9,403.18 301.64,403.12 301.51,403.08 C 301.36,403.06 301.05,402.97 300.91,402.91 C 300.79,402.85 300.65,402.75 300.6,402.63 C 300.56,402.55 300.57,402.44 300.59,402.35 C 300.59,402.31 300.69,401.96 300.69,401.94 C 300.71,401.82 300.73,401.68 300.75,401.57 C 300.72,401.36 300.63,401.14 300.54,400.94 C 300.46,400.77 300.29,400.52 300.2,400.36 L 300.2,400.36 L 296.62,400.37 L 296.62,400.37 C 296.7,400.52 296.79,400.71 296.88,400.86 C 297.08,401.25 297.34,401.75 297.67,402.1 C 297.88,402.33 298.37,402.7 298.64,402.92 C 298.75,403.01 299.11,403.29 299.21,403.37 C 299.34,403.44 299.47,403.54 299.55,403.61 C 299.56,403.72 299.57,403.88 299.6,403.98 C 299.65,404.29 299.84,404.59 300.05,404.83 C 300.25,405.08 300.48,405.3 300.72,405.5 C 300.89,405.61 301.14,405.76 301.29,405.86 C 301.35,406.02 301.42,406.21 301.47,406.35 L 301.47,406.35 L 301.96,407.66 L 301.96,407.66 C 302.07,407.95 302.38,408.79 302.5,409.06 L 302.5,409.06 L 303.29,410.57 L 303.29,410.57 C 303.44,410.92 303.58,411.26 303.69,411.6 C 303.72,411.73 303.77,411.89 303.79,412.01 C 303.79,412.12 303.77,412.21 303.77,412.3 C 303.74,412.46 303.7,412.64 303.63,412.8 L 303.63,412.8 L 303.22,413.62 L 303.22,413.62 C 303.05,413.95 302.93,414.27 302.86,414.61 C 302.73,415.06 302.64,415.53 302.58,415.96 C 302.5,416.39 302.44,416.82 302.41,417.26 L 302.41,417.26 L 302.35,418.44 L 302.35,418.44 C 302.35,418.58 302.33,418.77 302.31,418.9 C 302.14,418.88 301.88,418.85 301.7,418.8 C 301.3,418.71 300.73,418.57 300.32,418.47 C 299.89,418.36 299.27,418.21 298.86,418.07 L 298.86,418.07 L 297.2,417.45 L 297.2,417.45 C 296.71,417.32 295.89,417.19 295.42,417.1 C 294.84,417.02 293.49,416.79 292.91,416.73 C 292.28,416.67 291.6,416.65 290.95,416.7 C 290.45,416.73 289.5,416.89 288.98,416.96 C 288.67,417.01 288.31,417.08 287.96,417.12 C 287.77,417.15 287.48,417.2 287.28,417.22 C 287.31,417.04 287.3,416.76 287.3,416.57 C 287.31,416.18 287.34,415.77 287.37,415.36 C 287.39,414.82 287.45,414.23 287.52,413.69 C 287.53,413.64 287.82,411.88 287.82,411.82 C 287.86,411.59 288.07,410.09 288.13,409.87 C 288.22,409.37 288.34,408.88 288.48,408.39 C 288.53,408.21 288.7,407.61 288.75,407.43 C 288.77,407.37 288.93,406.56 288.93,406.52 C 288.98,406.41 289.04,406.25 289.1,406.14 C 289.14,406.05 289.18,405.95 289.24,405.86 L 289.24,405.86 L 289.55,405.35 L 289.68,404.93 L 289.68,404.93 C 289.71,404.86 289.8,404.73 289.87,404.68 C 289.93,404.62 290.04,404.49 290.05,404.38 C 290.09,404.27 290.06,404.15 290.02,404.02 C 289.95,403.88 289.77,403.77 289.62,403.7 C 289.54,403.66 289.35,403.56 289.3,403.48 C 289.23,403.43 289.21,403.34 289.21,403.22 C 289.21,403.15 289.29,403 289.33,402.91 L 289.33,402.91 L 289.56,402.25 L 289.56,402.25 C 289.59,402.14 289.71,401.88 289.72,401.74 C 289.75,401.56 289.66,401.17 289.61,400.99 L 289.61,400.99 L 289.45,400.37 L 289.45,400.37 C 289.41,400.25 289.36,400.08 289.3,399.95 C 289.19,399.93 289.04,399.92 288.91,399.93 C 288.6,399.88 288.22,399.88 287.91,399.88 L 287.91,399.88 L 287.14,399.92 L 286.41,399.93 L 286.41,399.93 C 286.38,399.93 285.96,399.96 285.91,399.95 C 285.81,399.94 285.67,399.95 285.57,399.93 C 285.57,400.05 285.58,400.25 285.61,400.37 C 285.66,400.69 285.8,400.98 285.95,401.25 C 286.06,401.5 286.23,401.71 286.43,401.91 L 286.43,401.91 L 286.83,402.37 L 286.83,402.37 C 286.91,402.47 287.02,402.6 287.05,402.73 C 287.09,402.8 287.11,402.91 287.11,403.01 C 287.13,403.24 287.09,403.61 287.05,403.83 C 287.03,404.21 286.96,404.67 286.96,405.05 C 286.97,405.19 286.96,405.44 286.94,405.57 C 286.91,405.65 286.76,406.01 286.73,406.1 C 286.62,406.29 286.57,406.49 286.5,406.69 C 286.49,406.76 286.41,406.96 286.4,407.05 L 286.4,407.05 L 285.92,407.97 L 285.92,407.97 C 285.87,408.12 285.59,408.83 285.55,408.98 C 285.31,409.6 284.71,410.79 284.43,411.39 C 284.27,411.73 283.66,412.92 283.5,413.25 L 283.5,413.25 L 282.49,415.07 L 282.49,415.07 C 282.36,415.27 282.09,415.75 281.95,415.96 C 281.85,416.13 281.68,416.37 281.57,416.54 C 281.39,416.49 281.19,416.46 281.02,416.42 L 281.02,416.42 L 278.94,416 L 278.94,416 C 278.56,415.92 277.64,415.75 277.24,415.64 C 276.91,415.58 275.92,415.36 275.59,415.32 C 275.44,415.29 275.2,415.29 275.05,415.26 C 275,415.13 274.93,414.93 274.88,414.77 C 274.84,414.63 274.62,413.75 274.59,413.61 C 274.53,413.34 274.32,412.48 274.29,412.22 C 274.27,412.04 274.24,411.82 274.27,411.62 C 274.3,411.41 274.38,411.2 274.47,411.02 C 274.55,410.86 274.64,410.68 274.74,410.55 C 274.88,410.36 275.05,410.2 275.24,410.09 C 275.43,410 275.7,409.95 275.91,409.93 L 275.91,409.93 L 276.89,409.81 L 276.89,409.81 C 277.02,409.8 277.42,409.73 277.58,409.73 C 277.64,409.75 277.87,409.75 277.92,409.71 C 278.02,409.68 278.12,409.53 278.15,409.46 C 278.21,409.38 278.3,409.25 278.41,409.2 C 278.52,409.14 278.71,409.15 278.86,409.16 C 279.05,409.2 279.49,409.22 279.68,409.23 C 279.9,409.22 280.14,409.18 280.32,409.07 C 280.53,408.95 280.73,408.73 280.86,408.51 C 280.95,408.36 281.05,408.18 281.15,408 C 281.26,407.76 281.36,407.52 281.46,407.28 C 281.55,407.06 281.63,406.82 281.67,406.57 C 281.72,406.36 281.78,406.1 281.8,405.89 C 281.68,405.9 281.53,405.95 281.43,405.98 C 281.22,406.05 280.99,406.16 280.81,406.25 C 280.73,406.28 280.57,406.32 280.49,406.37 C 280.44,406.36 280.11,406.41 280.09,406.41 C 280.01,406.41 279.91,406.43 279.84,406.46 C 279.79,406.5 279.59,406.67 279.53,406.69 C 279.4,406.84 279.21,406.93 279.02,407 C 278.88,407.04 278.72,407.07 278.55,407.07 L 278.55,407.07 L 277.91,407.01 L 277.91,407.01 C 277.79,407 277.64,407.04 277.52,407.04 C 277.27,407.08 277.01,407.14 276.81,407.23 C 276.52,407.34 276.17,407.53 275.91,407.7 C 275.72,407.82 275.32,408.09 275.08,408.17 C 274.79,408.31 274.35,408.43 274.05,408.5 L 274.05,408.5 L 272.95,408.77 L 272.95,408.77 C 272.78,408.83 272.52,408.89 272.35,408.95 C 272.18,409.03 271.98,409.14 271.88,409.29 C 271.73,409.46 271.69,409.77 271.67,409.98 C 271.67,410.14 271.62,411.01 271.61,411.17 C 271.58,411.7 271.53,412.26 271.48,412.79 C 271.44,413.27 271.39,413.73 271.34,414.2 C 271.3,414.53 271.25,415.04 271.26,415.36 C 271.27,415.65 271.3,415.98 271.44,416.23 C 271.57,416.48 271.79,416.7 272.04,416.87 C 272.34,417.12 272.8,417.36 273.18,417.53 C 273.52,417.71 274.58,418.23 274.93,418.41 C 275.11,418.52 276.14,419.18 276.34,419.29 C 276.76,419.58 277.21,419.86 277.64,420.09 C 278.15,420.38 278.62,420.65 279.13,420.92 C 279.29,421.01 279.48,421.11 279.64,421.18 C 279.59,421.33 279.49,421.55 279.45,421.69 C 279.33,421.96 279.23,422.55 279.16,422.85 L 279.16,422.85 L 278.88,424.17 L 278.88,424.17 C 278.8,424.67 278.68,425.3 278.62,425.82 C 278.6,425.96 278.56,426.2 278.54,426.34 C 278.46,426.44 278.34,426.61 278.25,426.72 C 278.01,427.06 277.68,427.54 277.45,427.91 C 277.26,428.18 276.97,428.61 276.78,428.9 L 276.78,428.9 L 275.91,430.05 L 275.91,430.05 C 275.82,430.18 275.7,430.35 275.6,430.5 C 275.48,430.5 275.18,430.5 275.05,430.51 C 274.73,430.54 274.38,430.57 274.04,430.56 C 273.82,430.57 273.16,430.61 272.94,430.62 C 272.61,430.64 272.26,430.67 271.92,430.74 C 271.7,430.79 271.45,430.83 271.22,430.92 C 271.02,430.97 270.73,431.04 270.54,431.11 C 270.51,431.06 270.46,431 270.42,430.98 L 270.42,430.98 L 269.99,430.66 L 269.99,430.66 C 269.95,430.64 269.7,430.43 269.68,430.43 C 269.66,430.43 269.23,430.38 269.21,430.37 C 269.14,430.36 268.75,430.24 268.68,430.21 C 268.44,430.14 268.23,430.07 268.02,430.07 C 267.84,430.07 267.66,430.09 267.51,430.12 C 267.28,430.19 267.07,430.32 266.88,430.43 C 266.69,430.54 266.53,430.66 266.36,430.8 C 266.22,430.92 266.08,431.06 266.01,431.21 C 265.9,431.47 265.89,431.85 265.93,432.12 L 265.93,432.12 L 266.12,433.44 L 266.12,433.44 C 266.17,433.8 266.2,434.17 266.17,434.51 C 266.19,435.01 266.11,435.54 266.03,436.02 C 265.98,436.34 265.87,436.97 265.91,437.3 L 265.91,437.3 L 266.02,438.07 L 266.02,438.07 C 266.06,438.17 266.07,438.54 266.08,438.64 C 266.11,439.06 266.16,439.54 266.29,439.91 C 266.4,440.32 266.6,440.69 266.82,441.05 C 266.92,441.18 267.1,441.5 267.16,441.68 C 267.18,441.79 267.17,441.93 267.12,442.06 C 267.11,442.18 267.04,442.32 267,442.42 C 266.97,442.5 266.83,442.81 266.8,442.89 L 266.8,442.89 L 266.43,443.51 L 266.43,443.51 C 266.39,443.6 266.36,443.73 266.32,443.83 C 266.47,443.86 266.57,443.95 266.72,443.95 C 267.02,443.94 267.38,443.8 267.65,443.68 C 267.91,443.53 268.23,443.37 268.47,443.18 C 268.66,443.05 268.86,442.9 269.02,442.73 C 269.17,442.62 269.33,442.46 269.46,442.33 C 269.56,442.41 269.77,442.51 269.89,442.58 C 270.28,442.77 270.91,442.82 271.35,442.86 C 271.76,442.9 272.25,442.91 272.64,442.91 C 274.82,442.88 277.2,441.8 279.01,440.71 C 280.57,439.81 282.16,438.75 283.49,437.59 C 283.72,437.4 286.18,434.97 286.41,434.77 C 286.8,434.41 287.2,434.03 287.61,433.7 C 287.7,433.61 287.9,433.45 287.97,433.38 C 288.07,433.41 288.24,433.45 288.33,433.49 C 288.57,433.57 288.8,433.67 289.01,433.77 C 289.17,433.83 289.34,433.93 289.46,434.04 C 289.57,434.13 289.68,434.21 289.77,434.33 C 289.83,434.42 289.86,434.51 289.91,434.6 L 289.91,434.6 L 289.98,435.06 L 289.98,435.06 C 290.06,435.37 290.27,435.67 290.48,435.93 C 290.74,436.2 291.04,436.44 291.35,436.62 L 291.35,436.62 L 292.55,437.23 L 292.55,437.23 C 292.66,437.31 292.8,437.37 292.88,437.48 C 292.95,437.54 293.02,437.62 293.05,437.69 C 293.06,437.76 293.04,437.89 293.03,437.96 C 293,438.19 292.96,438.45 292.9,438.66 L 292.9,438.66 L 292.54,440.07 L 292.54,440.07 C 292.38,440.62 292.26,441.21 292.16,441.77 C 292.06,442.31 291.97,442.95 292,443.5 C 292.01,444.01 292.1,444.51 292.25,445.02 C 292.36,445.31 292.49,445.61 292.71,445.85 C 292.75,445.9 292.83,446.01 292.86,446.05 C 292.87,446.12 292.82,446.25 292.79,446.3 L 292.79,446.3 L 292.62,446.85 L 292.62,446.85 C 292.55,447.03 292.45,447.2 292.33,447.36 C 292.26,447.49 292.14,447.59 292.04,447.69 C 292.01,447.74 291.93,447.79 291.88,447.81 C 291.82,447.83 291.71,447.79 291.66,447.76 C 291.58,447.72 291.45,447.72 291.36,447.69 C 291.19,447.68 291.02,447.67 290.86,447.74 C 290.73,447.82 290.63,447.93 290.55,448.02 C 290.45,448.15 290.41,448.31 290.36,448.45 C 290.36,448.54 290.3,448.71 290.27,448.78 C 290.24,448.83 290.18,448.9 290.11,448.89 C 290.08,448.89 290.02,448.86 290,448.86 C 289.95,448.82 289.83,448.77 289.78,448.77 C 289.73,448.82 289.68,448.96 289.67,449.02 C 289.62,449.2 289.62,449.4 289.64,449.61 C 289.65,449.73 289.67,449.95 289.66,450.06 C 289.62,450.14 289.55,450.27 289.5,450.34 C 289.42,450.48 289.34,450.63 289.26,450.79 C 289.19,451 289.13,451.23 289.12,451.46 C 289.11,451.73 289.19,452.02 289.31,452.27 C 289.45,452.52 289.67,452.73 289.91,452.91 C 290.16,453.08 290.68,453.24 290.96,453.31 L 290.96,453.31 L 291.88,453.59 L 291.88,453.59 C 292.09,453.67 292.38,453.73 292.6,453.74 C 292.82,453.72 293.04,453.66 293.21,453.58 C 293.55,453.42 293.84,453.14 294.07,452.87 C 294.28,452.62 294.46,452.32 294.58,452.04 C 294.64,451.86 294.68,451.63 294.7,451.48 C 294.73,451.29 294.75,451.09 294.78,450.91 C 294.82,450.62 294.86,450.18 294.88,449.88 C 294.89,449.77 294.89,449.53 294.9,449.43 C 294.94,449.32 294.99,449.21 295.06,449.1 C 295.12,448.92 295.23,448.73 295.34,448.58 C 295.45,448.46 295.59,448.34 295.72,448.24 L 295.72,448.24 L 296.91,447.7 L 296.91,447.7 C 297.52,447.42 298.02,447 298.42,446.5 C 298.76,446.06 299.05,445.54 299.24,445.02 L 299.24,445.02 L 299.99,443.11 L 299.99,443.11 C 300.27,442.5 300.72,441.75 301.09,441.18 C 301.37,440.75 301.69,440.27 301.98,439.85 C 302.09,439.72 302.29,439.45 302.38,439.3 C 302.48,439.07 302.56,438.84 302.53,438.58 C 302.49,438.27 302.27,437.94 302.1,437.69 C 301.95,437.5 301.8,437.32 301.66,437.14 L 301.66,437.14 L 301.06,436.53 L 301.06,436.53 C 300.97,436.45 300.86,436.34 300.79,436.26 C 300.86,436.19 300.95,436.06 300.98,435.97 C 301.23,435.61 301.39,435.14 301.51,434.75 C 301.69,434.18 301.81,433.63 301.89,433.06 C 301.95,432.56 302,432.06 302.01,431.55 C 302,431.38 301.98,431.16 301.98,430.99 C 302.27,431 302.68,431.04 302.94,431.06 C 303.8,431.07 304.69,431.08 305.57,431.05 C 306.05,431.06 307.54,431.01 308.03,430.98 C 308.69,430.96 309.77,430.89 310.38,430.68 C 310.84,430.5 311.59,430.05 312,429.79 C 312.16,429.7 312.32,429.59 312.48,429.5 C 312.63,429.52 312.91,429.6 313.06,429.63 C 313.82,429.8 314.7,429.99 315.48,430.05 C 316.48,430.16 317.52,430.14 318.49,429.95 C 319.33,429.77 320.11,429.48 320.84,429.04 C 321.53,428.63 322.12,428.11 322.59,427.48 C 323.05,426.87 323.52,425.91 323.83,425.23 C 324.19,424.43 324.54,423.62 324.88,422.81 C 325.16,422.11 325.5,421.27 325.74,420.55 L 325.74,420.55 L 326.41,418.49 L 326.41,418.49 C 326.54,418.09 326.73,417.7 326.93,417.32 C 327.21,416.82 327.57,416.29 328.07,415.95 C 328.29,415.78 329.18,415.32 329.42,415.2 C 329.65,415.09 329.98,414.91 330.22,414.77 C 330.32,414.72 330.52,414.59 330.53,414.47 C 330.57,414.36 330.46,414.2 330.4,414.13 C 330.3,413.97 330.15,413.85 329.98,413.75 C 329.73,413.6 329.42,413.54 329.13,413.55 C 328.75,413.51 328.26,413.59 327.88,413.67 C 327.19,413.83 326.52,414.07 325.89,414.35 C 325.18,414.7 324.51,415.18 323.93,415.68 C 323.36,416.14 322.86,416.67 322.41,417.2 C 321.81,418 321.32,419.01 320.96,419.9 C 320.68,420.58 320.44,421.28 320.19,421.97 C 319.98,422.52 319.59,423.64 319.35,424.17 C 319.08,424.76 318.75,425.36 318.32,425.85 C 317.91,426.33 317.41,426.73 316.85,427.05 C 316.42,427.29 315.95,427.49 315.47,427.6 C 315.12,427.66 314.74,427.68 314.37,427.62 C 314.24,427.61 314.02,427.58 313.88,427.54 C 314,427.44 314.14,427.25 314.23,427.14 C 314.48,426.79 314.66,426.31 314.79,425.91 C 315.03,425.2 315.18,424.45 315.24,423.7 C 315.29,422.96 315.22,422.18 315.06,421.44 C 314.88,420.72 314.59,419.96 314.28,419.28 C 314.28,419.28 313.63,417.87 313.61,417.87 C 313.48,417.57 313.2,416.98 313.03,416.68 C 313,416.6 312.91,416.46 312.86,416.38 C 312.95,416.27 313.04,416.12 313.12,416.05 C 313.3,415.77 313.62,415.44 313.85,415.21 C 314.08,414.96 314.39,414.62 314.67,414.41 C 314.75,414.35 314.92,414.23 314.98,414.15 C 315.04,414.07 315.08,413.93 315.1,413.82 L 315.1,413.82 L 315.19,413.34 L 315.31,412.81 L 315.31,412.81 C 315.34,412.56 315.31,412.04 315.29,411.79 C 315.29,411.46 315.29,411.13 315.3,410.82 C 315.31,410.38 315.36,409.87 315.49,409.45 C 315.58,409.12 315.73,408.79 315.94,408.49 C 316.09,408.27 316.34,408.07 316.56,407.89 C 316.68,407.82 316.81,407.72 316.92,407.64 C 316.9,407.55 316.88,407.42 316.86,407.33 C 316.84,407.15 316.86,406.96 316.95,406.81 C 317.04,406.68 317.21,406.59 317.38,406.57 C 317.48,406.54 317.61,406.54 317.7,406.55 L 317.7,406.55 L 318.23,406.64 L 318.23,406.64 C 318.28,406.64 318.54,406.68 318.59,406.68 C 318.66,406.69 318.81,406.72 318.86,406.7 C 318.97,406.66 319.02,406.59 319.09,406.52 C 319.17,406.44 319.27,406.27 319.3,406.18 C 319.36,406.12 319.71,405.5 319.75,405.43 L 319.75,405.43 L 320.17,404.5 L 320.17,404.5 C 320.2,404.43 320.3,404.26 320.29,404.17 C 320.27,404.1 320.18,404.04 320.11,403.98 C 320.05,403.95 319.93,403.91 319.83,403.9 C 319.69,403.88 319.52,403.85 319.35,403.83 C 319.09,403.82 318.79,403.79 318.5,403.77 L 318.5,403.77 L 317.57,403.75 L 317.57,403.75 C 317.42,403.74 317.16,403.72 317.03,403.77 C 316.84,403.82 316.65,403.95 316.52,404.07 L 316.52,404.07 L 315.95,404.59 L 315.95,404.59 C 315.88,404.66 315.13,405.24 315.04,405.3 C 314.73,405.57 314.38,405.86 314.16,406.18 C 313.91,406.54 313.7,407.18 313.6,407.59 C 313.52,407.79 313.19,409 313.12,409.21 C 313.02,409.59 312.87,410.09 312.74,410.48 C 312.72,410.63 312.64,410.86 312.57,411 L 312.57,411 L 312.32,411.43 L 312.08,411.93 L 312.08,411.93 C 311.96,412.14 311.55,412.39 311.34,412.5 C 311.02,412.7 310.7,412.9 310.42,413.14 L 310.42,413.14 L 309.74,413.79 L 309.74,413.79 C 309.54,413.99 309.29,414.17 309.07,414.35 C 308.97,414.4 308.83,414.48 308.73,414.5 C 308.62,414.54 308.5,414.54 308.43,414.51 C 308.35,414.48 308.26,414.4 308.22,414.32 C 308.18,414.24 308.15,414.12 308.13,414.04 C 308.12,413.93 307.98,413.37 307.96,413.27 C 307.87,412.88 307.81,412.46 307.74,412.06 C 307.73,411.93 307.63,411.23 307.59,411.09 C 307.55,410.92 307.46,410.63 307.41,410.45 z "
   style="fill:white;fill-rule:nonzero;stroke:white;stroke-width:0"
   id="path18" />
<path
   d="M 293.5,435.06 L 293.75,433.06 L 293.75,433.06 C 293.63,433.02 293.45,432.93 293.33,432.86 C 293,432.72 292.53,432.57 292.2,432.48 C 291.78,432.36 291.15,432.16 290.77,432.01 C 290.6,431.96 290.33,431.88 290.18,431.84 C 290.06,431.8 289.87,431.77 289.72,431.73 C 289.67,431.8 289.57,431.86 289.52,431.93 L 289.52,431.93 L 289.24,432.19 L 289.02,432.39 L 289.02,432.39 C 288.93,432.46 288.85,432.56 288.77,432.62 L 288.77,432.62 L 290.38,433.62 L 290.38,433.62 C 290.43,433.58 290.54,433.53 290.59,433.49 C 290.74,433.44 290.91,433.39 291.1,433.35 C 291.25,433.32 291.45,433.3 291.59,433.37 C 291.71,433.41 291.84,433.52 291.95,433.63 C 291.99,433.68 292.07,433.78 292.09,433.86 C 292.13,433.93 292.1,434.11 292.09,434.2 L 292.09,434.2 L 292.06,434.41 L 292.06,434.41 C 292.05,434.45 292.05,434.54 292.04,434.59 C 292.11,434.61 292.23,434.66 292.3,434.66 L 292.3,434.66 L 292.75,434.79 L 293.17,434.97 L 293.17,434.97 C 293.27,435 293.4,435.05 293.5,435.06 z "
   style="fill:#0070ff;fill-rule:nonzero;stroke:#0070ff;stroke-width:0"
   id="path20" />
<path
   d="M 272.57,436.3 L 272.57,436.29 L 272.58,436.28 L 272.58,436.26 L 272.59,436.24 L 272.59,436.23 L 272.6,436.21 L 272.61,436.17 L 272.62,436.14 L 272.63,436.1 L 272.65,436.06 L 272.66,436.02 L 272.68,435.95 L 272.7,435.91 L 272.71,435.87 L 272.73,435.83 L 272.74,435.8 L 272.75,435.76 L 272.77,435.73 C 272.85,435.55 273.13,435.01 273.24,434.85 C 273.27,434.73 273.6,434.15 273.66,434.04 C 273.7,434 274.11,433.34 274.14,433.29 C 274.21,433.12 274.29,432.91 274.33,432.73 C 274.4,432.48 274.48,432.21 274.52,431.94 C 274.52,431.92 274.59,431.56 274.59,431.52 C 274.64,431.45 274.64,431.36 274.68,431.29 C 274.51,431.27 274.27,431.27 274.09,431.26 C 273.99,431.28 273.48,431.29 273.39,431.3 C 273.2,431.3 272.58,431.33 272.38,431.38 C 272.18,431.39 271.62,431.5 271.41,431.57 C 271.27,431.6 270.91,431.66 270.77,431.71 C 270.68,431.74 270.53,431.79 270.44,431.84 C 270.43,431.93 270.39,432.05 270.38,432.12 C 270.36,432.32 270.34,432.6 270.39,432.81 C 270.44,433.01 270.6,433.25 270.75,433.42 L 270.75,433.42 L 271.28,434.07 L 271.28,434.07 C 271.51,434.36 271.74,434.66 271.94,434.98 C 272.12,435.29 272.27,435.63 272.42,435.96 C 272.46,436.05 272.54,436.2 272.57,436.3 z "
   style="fill:#0070ff;fill-rule:nonzero;stroke:#0070ff;stroke-width:0"
   id="path22" />
</g>  </g>
</svg>
