<?xml version="1.0" encoding="UTF-8" standalone="no"?>
<svg
   xmlns:dc="http://purl.org/dc/elements/1.1/"
   xmlns:cc="http://creativecommons.org/ns#"
   xmlns:rdf="http://www.w3.org/1999/02/22-rdf-syntax-ns#"
   xmlns:svg="http://www.w3.org/2000/svg"
   xmlns="http://www.w3.org/2000/svg"
   xmlns:sodipodi="http://sodipodi.sourceforge.net/DTD/sodipodi-0.dtd"
   xmlns:inkscape="http://www.inkscape.org/namespaces/inkscape"
   viewBox="0 0 105.79173 173.85601"
   height="173.856"
   width="105.79173"
   xml:space="preserve"
   id="svg2"
   version="1.1"
   sodipodi:docname="bus-lane.svg"
   inkscape:version="0.92.3 (2405546, 2018-03-11)"><sodipodi:namedview
     pagecolor="#ffffff"
     bordercolor="#666666"
     borderopacity="1"
     objecttolerance="10"
     gridtolerance="10"
     guidetolerance="10"
     inkscape:pageopacity="0"
     inkscape:pageshadow="2"
     inkscape:window-width="1068"
     inkscape:window-height="812"
     id="namedview70"
     showgrid="false"
     fit-margin-top="0"
     fit-margin-left="0"
     fit-margin-right="0"
     fit-margin-bottom="0"
     inkscape:zoom="1.44"
     inkscape:cx="52.894531"
     inkscape:cy="86.925472"
     inkscape:window-x="182"
     inkscape:window-y="182"
     inkscape:window-maximized="0"
     inkscape:current-layer="svg2" /><metadata
     id="metadata8"><rdf:RDF><cc:Work
         rdf:about=""><dc:format>image/svg+xml</dc:format><dc:type
           rdf:resource="http://purl.org/dc/dcmitype/StillImage" /><dc:title></dc:title></cc:Work></rdf:RDF></metadata><defs
     id="defs6" /><g
     id="g137"
     transform="rotate(90,52.893335,52.893335)"><path
       inkscape:connector-curvature="0"
       d="M 0,-0.00506069 H 173.856 V 69.499204 H 0 V -0.00506069"
       style="fill:#bdbcbc;fill-opacity:1;fill-rule:nonzero;stroke:none;stroke-width:0.13333333"
       id="path14" /><path
       inkscape:connector-curvature="0"
       d="M 173.856,72.283071 V 105.78667 H 0 V 72.283071 h 173.856 v 0"
       style="fill:#bdbcbc;fill-opacity:1;fill-rule:nonzero;stroke:none;stroke-width:0.13333333"
       id="path16" /><path
       inkscape:connector-curvature="0"
       d="m 7.6796931,35.226805 v 2.496267 H 41.952132 V 35.226805 H 7.6796931 v 0"
       style="fill:#fcd213;fill-opacity:1;fill-rule:nonzero;stroke:none;stroke-width:0.13333333"
       id="path18" /><path
       inkscape:connector-curvature="0"
       d="m 50.111999,35.226805 v 2.496267 H 83.712531 V 35.226805 H 50.111999 v 0"
       style="fill:#fcd213;fill-opacity:1;fill-rule:nonzero;stroke:none;stroke-width:0.13333333"
       id="path20" /><path
       inkscape:connector-curvature="0"
       d="m 91.871331,35.226805 v 2.496267 H 125.47133 V 35.226805 H 91.871331 v 0"
       style="fill:#fcd213;fill-opacity:1;fill-rule:nonzero;stroke:none;stroke-width:0.13333333"
       id="path22" /><path
       inkscape:connector-curvature="0"
       d="m 133.632,35.226805 v 2.496267 h 33.6 v -2.496267 h -33.6 v 0"
       style="fill:#fcd213;fill-opacity:1;fill-rule:nonzero;stroke:none;stroke-width:0.13333333"
       id="path24" /><path
       inkscape:connector-curvature="0"
       d="m 54.239599,31.002805 v -5.279733 c 0,-1.631733 -2.3032,-2.975467 -6.432267,-3.455733 -1.247466,-0.1932 -2.495866,-0.1932 -3.743333,-0.1932 -0.192667,0 -0.288,0 -0.480667,0 h -3.8396 v 0 c -3.359333,0 -5.952,0.3844 -7.199466,1.7292 -1.2484,-0.864 -3.4568,-1.536 -7.680667,-1.536 h -3.647466 v 0 c -8.25624,0 -9.98436,2.6876 -9.98436,3.8396 v 4.895866 h 43.007826 v 0"
       style="fill:#fcd213;fill-opacity:1;fill-rule:nonzero;stroke:none;stroke-width:0.13333333"
       id="path26" /><path
       inkscape:connector-curvature="0"
       d="m 11.231773,20.923605 h 32.351559 v 0 c 6.913067,0 11.136933,-1.728133 11.136933,-4.223866 0,-2.4964 -4.512933,-4.3204 -10.848933,-4.3204 H 11.231773 v 2.399467 h 31.392226 v 0 c 2.592133,0 3.167733,0.0964 3.8396,0.1928 1.8244,0.287466 2.976533,0.959333 2.976533,1.728133 0,0.671867 -1.152133,1.343733 -2.976533,1.7276 -0.863067,0.09533 -1.440133,0.09533 -3.648533,0.09533 H 11.231773 v 2.400933"
       style="fill:#fcd213;fill-opacity:1;fill-rule:nonzero;stroke:none;stroke-width:0.13333333"
       id="path28" /><path
       inkscape:connector-curvature="0"
       d="m 42.048399,11.611206 c 7.583333,0.287466 13.055733,-1.8245336 13.055733,-4.4157335 0,-2.4009333 -4.8968,-4.3202666 -11.040133,-4.3202666 -3.84,0 -6.528533,0.7682667 -9.6968,1.8245333 v 0 l -9.9828,3.6467999 v 0 c -1.056266,0.4808 -2.2084,0.5770667 -3.072933,0.5770667 -2.4,0 -4.224,-0.7681334 -4.224,-1.7281333 0,-0.8645333 1.7276,-1.6328 4.032267,-1.7290667 v 0 l 0.191733,-2.3031999 v 0 c -5.855733,0 -10.463546,1.9204 -10.463546,4.0322666 0,2.3037332 4.799413,4.1275995 10.463546,4.1275995 2.592133,0 4.992133,-0.383733 7.776,-1.3437329 v 0 l 11.2328,-4.0327999 v 0 c 1.247466,-0.4801334 2.4,-0.6718667 3.647466,-0.6718667 2.783867,0 4.992133,0.8650667 4.992133,1.9208 0,1.2474666 -2.303599,2.1119999 -6.720266,1.9193333 v 0 l -0.1912,2.4964002 v 0"
       style="fill:#fcd213;fill-opacity:1;fill-rule:nonzero;stroke:none;stroke-width:0.13333333"
       id="path30" /><path
       inkscape:connector-curvature="0"
       d="m 164.064,31.002805 v -5.279733 c 0,-1.631733 -2.304,-2.975467 -6.432,-3.455733 -1.248,-0.1932 -2.496,-0.1932 -3.744,-0.1932 -0.19334,0 -0.288,0 -0.48,0 h -3.84 v 0 c -3.36134,0 -5.952,0.3844 -7.20134,1.7292 -1.24666,-0.864 -3.45466,-1.536 -7.67866,-1.536 h -3.64894 v 0 c -8.2552,0 -9.9828,2.6876 -9.9828,3.8396 v 4.895866 H 164.064 v 0"
       style="fill:#fcd213;fill-opacity:1;fill-rule:nonzero;stroke:none;stroke-width:0.13333333"
       id="path32" /><path
       inkscape:connector-curvature="0"
       d="M 121.05626,20.923605 H 153.408 v 0 c 6.912,0 11.136,-1.728133 11.136,-4.223866 0,-2.4964 -4.51334,-4.3204 -10.84934,-4.3204 h -32.6384 v 2.399467 H 152.448 v 0 c 2.59066,0 3.168,0.0964 3.84,0.1928 1.824,0.287466 2.976,0.959333 2.976,1.728133 0,0.671867 -1.152,1.343733 -2.976,1.7276 -0.864,0.09533 -1.44,0.09533 -3.648,0.09533 h -31.58374 v 2.400933"
       style="fill:#fcd213;fill-opacity:1;fill-rule:nonzero;stroke:none;stroke-width:0.13333333"
       id="path34" /><path
       inkscape:connector-curvature="0"
       d="m 151.872,11.611206 c 7.584,0.287466 13.05466,-1.8245336 13.05466,-4.4157335 0,-2.4009333 -4.896,-4.3202666 -11.03866,-4.3202666 -3.84,0 -6.528,0.7682667 -9.696,1.8245333 v 0 l -9.98534,3.6467999 v 0 c -1.0556,0.4808 -2.20666,0.5770667 -3.0712,0.5770667 -2.39946,0 -4.224,-0.7681334 -4.224,-1.7281333 0,-0.8645333 1.72814,-1.6328 4.0328,-1.7290667 v 0 l 0.1912,-2.3031999 v 0 c -5.8552,0 -10.4636,1.9204 -10.4636,4.0322666 0,2.3037332 4.79947,4.1275995 10.4636,4.1275995 2.59254,0 4.99254,-0.383733 7.77654,-1.3437329 v 0 l 11.23066,-4.0327999 v 0 C 151.392,5.4664058 152.544,5.2746725 153.792,5.2746725 c 2.784,0 4.992,0.8650667 4.992,1.9208 0,1.2474666 -2.30534,2.1119999 -6.72,1.9193333 v 0 l -0.192,2.4964002 v 0"
       style="fill:#fcd213;fill-opacity:1;fill-rule:nonzero;stroke:none;stroke-width:0.13333333"
       id="path36" /><path
       inkscape:connector-curvature="0"
       d="M 29.855733,28.602805 H 16.703066 v -1.920266 c 0,-1.343734 1.920934,-1.919334 4.7048,-1.919334 0,0 0.192667,0 0.287467,0 h 3.6484 v 0 c 2.0156,0 3.552133,0.383867 4.224,0.959867 0.09627,0.1928 0.288,0.383867 0.288,1.440133 v 1.4396"
       style="fill:#bdbcbc;fill-opacity:1;fill-rule:nonzero;stroke:none;stroke-width:0.13333333"
       id="path38" /><path
       inkscape:connector-curvature="0"
       d="M 48.768265,28.602805 H 35.519732 v -2.304666 c 0,-1.246934 1.536534,-1.822934 4.511467,-1.822934 h 4.0328 v 0 c 3.264133,0 4.704266,0.576 4.704266,1.822934 v 2.304666"
       style="fill:#bdbcbc;fill-opacity:1;fill-rule:nonzero;stroke:none;stroke-width:0.13333333"
       id="path40" /><path
       inkscape:connector-curvature="0"
       d="m 139.68,28.602805 h -13.1524 v -1.920266 c 0,-1.343734 1.92026,-1.919334 4.70413,-1.919334 0,0 0.19173,0 0.288,0 h 3.64827 v 0 c 2.016,0 3.552,0.383867 4.224,0.959867 0.096,0.1928 0.288,0.383867 0.288,1.440133 v 1.4396"
       style="fill:#bdbcbc;fill-opacity:1;fill-rule:nonzero;stroke:none;stroke-width:0.13333333"
       id="path42" /><path
       inkscape:connector-curvature="0"
       d="M 158.59066,28.602805 H 145.344 v -2.304666 c 0,-1.246934 1.536,-1.822934 4.512,-1.822934 h 4.032 v 0 c 3.26266,0 4.70266,0.576 4.70266,1.822934 v 2.304666"
       style="fill:#bdbcbc;fill-opacity:1;fill-rule:nonzero;stroke:none;stroke-width:0.13333333"
       id="path44" /></g></svg>