<?xml version="1.0" encoding="UTF-8" standalone="no"?>
<svg
   viewBox="0 0 174.19075 174.21039"
   height="174.21037"
   width="174.19075"
   xml:space="preserve"
   id="svg2"
   version="1.1"
   sodipodi:docname="bus-lane2.svg"
   inkscape:version="1.2-beta (1b65182, 2022-04-05)"
   inkscape:export-filename="../png/bus-lane2.png"
   inkscape:export-xdpi="96"
   inkscape:export-ydpi="96"
   xmlns:inkscape="http://www.inkscape.org/namespaces/inkscape"
   xmlns:sodipodi="http://sodipodi.sourceforge.net/DTD/sodipodi-0.dtd"
   xmlns="http://www.w3.org/2000/svg"
   xmlns:svg="http://www.w3.org/2000/svg"
   xmlns:rdf="http://www.w3.org/1999/02/22-rdf-syntax-ns#"
   xmlns:cc="http://creativecommons.org/ns#"
   xmlns:dc="http://purl.org/dc/elements/1.1/"><sodipodi:namedview
     pagecolor="#ffffff"
     bordercolor="#666666"
     borderopacity="1"
     objecttolerance="10"
     gridtolerance="10"
     guidetolerance="10"
     inkscape:pageopacity="0"
     inkscape:pageshadow="2"
     inkscape:window-width="1920"
     inkscape:window-height="1006"
     id="namedview70"
     showgrid="false"
     fit-margin-top="0"
     fit-margin-left="0"
     fit-margin-right="0"
     fit-margin-bottom="0"
     inkscape:zoom="2"
     inkscape:cx="166"
     inkscape:cy="90.25"
     inkscape:window-x="0"
     inkscape:window-y="27"
     inkscape:window-maximized="1"
     inkscape:current-layer="g137"
     inkscape:pagecheckerboard="0"
     inkscape:deskcolor="#d1d1d1" /><metadata
     id="metadata8"><rdf:RDF><cc:Work
         rdf:about=""><dc:format>image/svg+xml</dc:format><dc:type
           rdf:resource="http://purl.org/dc/dcmitype/StillImage" /></cc:Work></rdf:RDF></metadata><defs
     id="defs6"><clipPath
       clipPathUnits="userSpaceOnUse"
       id="clipPath20774"><rect
         style="display:inline;fill:none;fill-opacity:1;stroke:none;stroke-width:1.00733;stroke-linecap:square;stroke-dasharray:none;stroke-dashoffset:0;stroke-opacity:1"
         id="rect20776"
         width="173.19009"
         height="173.16344"
         x="-45.435684"
         y="29.337624"
         ry="16.985287"
         inkscape:label="Border"
         transform="rotate(-90)" /></clipPath><clipPath
       clipPathUnits="userSpaceOnUse"
       id="clipPath20778"><rect
         style="display:inline;fill:none;fill-opacity:1;stroke:none;stroke-width:1.00733;stroke-linecap:square;stroke-dasharray:none;stroke-dashoffset:0;stroke-opacity:1"
         id="rect20780"
         width="173.19009"
         height="173.16344"
         x="-45.435684"
         y="29.337624"
         ry="16.985287"
         inkscape:label="Border"
         transform="rotate(-90)" /></clipPath><clipPath
       clipPathUnits="userSpaceOnUse"
       id="clipPath20782"><rect
         style="display:inline;fill:none;fill-opacity:1;stroke:none;stroke-width:1.00733;stroke-linecap:square;stroke-dasharray:none;stroke-dashoffset:0;stroke-opacity:1"
         id="rect20784"
         width="173.19009"
         height="173.16344"
         x="-45.435684"
         y="29.337624"
         ry="16.985287"
         inkscape:label="Border"
         transform="rotate(-90)" /></clipPath></defs><g
     id="g137"
     transform="rotate(90,37.382976,8.5702988)"><g
       id="g5834"
       transform="matrix(1.0048311,0,0,1.0046764,-0.66667825,0.30511621)"><rect
         style="display:inline;fill:none;fill-opacity:1;stroke:none;stroke-width:1.00733;stroke-linecap:square;stroke-dasharray:none;stroke-dashoffset:0;stroke-opacity:1"
         id="rect20772"
         width="173.19009"
         height="173.16344"
         x="-45.43568"
         y="29.337624"
         ry="16.985287"
         inkscape:label="Border backup"
         transform="rotate(-90)" /><path
         inkscape:connector-curvature="0"
         d="M 28.784895,-128.48676 H 203.76823 V -16.084182 H 28.784895 V -128.48676"
         style="display:inline;fill:#a5402a;fill-opacity:1;fill-rule:nonzero;stroke:none;stroke-width:0.170109"
         id="path7713"
         inkscape:label="RightBG"
         clip-path="url(#clipPath20782)" /><path
         inkscape:connector-curvature="0"
         d="M 28.801187,-22.102063 H 204.04073 V 46.194893 H 28.801187 v -68.296956"
         style="display:inline;fill:#868585;fill-opacity:1;fill-rule:nonzero;stroke:none;stroke-width:0.132695"
         id="path14"
         inkscape:label="RightBG"
         clip-path="url(#clipPath20778)" /><path
         style="fill:#ffffff;stroke:#ffffff;stroke-width:8.74482;stroke-linecap:butt;stroke-linejoin:miter;stroke-dasharray:17.4896, 34.9793;stroke-dashoffset:0;stroke-opacity:1"
         d="M 28.720771,-17.525608 205.15444,-18.132197"
         id="path3259"
         sodipodi:nodetypes="cc"
         inkscape:label="Stripes"
         clip-path="url(#clipPath20774)" /><g
         id="g18105"
         transform="matrix(1.2589231,0,0,1.2589231,49.971092,-367.89469)"
         clip-path="none"
         inkscape:label="g18105"><path
           d="m 53.519526,211.42987 c -2.519146,0 -4.596794,2.07765 -4.596794,4.62241 0,2.54548 2.077648,4.57118 4.596794,4.57118 2.519148,0 4.596435,-2.0257 4.596435,-4.57118 0,-2.54476 -2.077287,-4.62241 -4.596435,-4.62241"
           id="path55"
           style="fill:#ffffff;fill-opacity:1;fill-rule:nonzero;stroke:none;stroke-width:0.0360703" /><path
           d="m 53.519526,211.42987 c -2.519146,0 -4.596794,2.07765 -4.596794,4.62241 0,2.54548 2.077648,4.57118 4.596794,4.57118 2.519148,0 4.596435,-2.0257 4.596435,-4.57118 0,-2.54476 -2.077287,-4.62241 -4.596435,-4.62241 z"
           id="path57"
           style="fill:none;stroke:#ffffff;stroke-width:0.0775511;stroke-linecap:butt;stroke-linejoin:miter;stroke-miterlimit:4;stroke-dasharray:none;stroke-opacity:1" /><path
           d="m 53.519526,247.16552 c -2.519146,0 -4.596794,2.07757 -4.596794,4.59669 0,2.51915 2.077648,4.59687 4.596794,4.59687 2.519148,0 4.596435,-2.07772 4.596435,-4.59687 0,-2.51912 -2.077287,-4.59669 -4.596435,-4.59669"
           id="path59"
           style="fill:#ffffff;fill-opacity:1;fill-rule:nonzero;stroke:none;stroke-width:0.0360703" /><path
           d="m 53.519526,247.16552 c -2.519146,0 -4.596794,2.07757 -4.596794,4.59669 0,2.51915 2.077648,4.59687 4.596794,4.59687 2.519148,0 4.596435,-2.07772 4.596435,-4.59687 0,-2.51912 -2.077287,-4.59669 -4.596435,-4.59669 z"
           id="path61"
           style="fill:none;stroke:#ffffff;stroke-width:0.0775511;stroke-linecap:butt;stroke-linejoin:miter;stroke-miterlimit:4;stroke-dasharray:none;stroke-opacity:1" /><path
           d="m 33.729574,261.08569 c 0,0.20783 0.155823,0.41549 0.389558,0.49344 l 10.725856,3.50599 h 7.817149 c 0.46747,0 0.857029,-0.36351 0.857029,-0.85695 v -6.67441 c -7.687295,-0.0261 -7.687295,-11.55699 0,-11.55699 v -24.17866 c -7.687295,-0.026 -7.687295,-11.55691 0,-11.55691 v -12.05036 c 0,-0.2597 -0.233736,-0.49344 -0.519773,-0.49344 H 34.794368 c -0.597324,0 -1.064794,0.46747 -1.064794,1.01285 v 62.35515"
           id="path63"
           style="fill:#ffffff;fill-opacity:1;fill-rule:nonzero;stroke:none;stroke-width:0.0360703" /><path
           d="m 33.729574,261.08569 v 0 c 0,0.20783 0.155823,0.41549 0.389558,0.49344 l 10.725856,3.50599 h 7.817149 c 0.46747,0 0.857029,-0.36351 0.857029,-0.85695 v -6.67441 c -7.687295,-0.0261 -7.687295,-11.55699 0,-11.55699 v -24.17866 c -7.687295,-0.026 -7.687295,-11.55691 0,-11.55691 v -12.05036 c 0,-0.2597 -0.233736,-0.49344 -0.519773,-0.49344 H 34.794368 c -0.597324,0 -1.064794,0.46747 -1.064794,1.01285 v 62.35515 z"
           id="path65"
           style="fill:none;stroke:#ffffff;stroke-width:0.0775511;stroke-linecap:butt;stroke-linejoin:miter;stroke-miterlimit:4;stroke-dasharray:none;stroke-opacity:1" /><path
           d="m 37.391427,214.2347 h 5.297641 c -0.02561,0 0,0 0,0 0.467471,0 0.85703,-0.36359 0.85703,-0.883 v -13.50471 c 0,-0.49344 -0.389559,-0.883 -0.85703,-0.883 h -5.298001 c -0.467471,0 -0.85703,0.38956 -0.85703,0.883 v 13.50471 c 0,0.51941 0.389559,0.883 0.85703,0.883"
           id="path67"
           style="fill:#a5402a;fill-opacity:1;fill-rule:nonzero;stroke:none;stroke-width:0.0360703" /><path
           d="m 37.391427,247.73688 h 5.297641 c -0.02561,0 0,0 0,0 0.467471,0 0.85703,-0.3896 0.85703,-0.88304 v -13.68658 c 0,-0.51941 -0.389559,-0.88336 -0.85703,-0.88336 h -5.298001 c -0.467471,0 -0.85703,0.36395 -0.85703,0.88336 v 13.68658 c 0,0.49344 0.389559,0.88304 0.85703,0.88304"
           id="path71"
           style="fill:#a5402a;fill-opacity:1;fill-rule:nonzero;stroke:none;stroke-width:0.0360703" /><path
           d="m 37.391427,247.73688 h 5.297641 c -0.02561,0 0,0 0,0 0.467471,0 0.85703,-0.3896 0.85703,-0.88304 v -13.68658 c 0,-0.51941 -0.389559,-0.88336 -0.85703,-0.88336 h -5.298001 c -0.467471,0 -0.85703,0.36395 -0.85703,0.88336 v 13.68658 0 c 0,0.49344 0.389559,0.88304 0.85703,0.88304 v 0 z"
           id="path73"
           style="fill:none;stroke:#ffffff;stroke-width:0.0775511;stroke-linecap:butt;stroke-linejoin:miter;stroke-miterlimit:4;stroke-dasharray:none;stroke-opacity:1" /><path
           d="m 37.391427,230.88185 h 5.297641 c -0.02561,0 0,0 0,0 0.467471,0 0.85703,-0.38956 0.85703,-0.85703 v -13.53068 c 0,-0.46747 -0.389559,-0.85703 -0.85703,-0.85703 h -5.298001 c -0.467471,0 -0.85703,0.38956 -0.85703,0.85703 v 13.53068 c 0,0.46747 0.389559,0.85703 0.85703,0.85703"
           id="path75"
           style="fill:#a5402a;fill-opacity:1;fill-rule:nonzero;stroke:none;stroke-width:0.0360703" /><path
           d="m 37.391427,230.88185 h 5.297641 c -0.02561,0 0,0 0,0 0.467471,0 0.85703,-0.38956 0.85703,-0.85703 v -13.53068 c 0,-0.46747 -0.389559,-0.85703 -0.85703,-0.85703 h -5.298001 c -0.467471,0 -0.85703,0.38956 -0.85703,0.85703 v 13.53068 0 c 0,0.46747 0.389559,0.85703 0.85703,0.85703 v 0 z"
           id="path77"
           style="fill:none;stroke:#ffffff;stroke-width:0.0775511;stroke-linecap:butt;stroke-linejoin:miter;stroke-miterlimit:4;stroke-dasharray:none;stroke-opacity:1" /><path
           d="m 36.534398,249.97027 v 10.38824 c 0,0.2078 0.129853,0.41549 0.363588,0.46751 l 5.505766,1.81787 c 0.07791,0.0261 0.181794,0.052 0.285677,0.052 0.46747,0 0.857029,-0.36355 0.857029,-0.88304 v -11.84259 c 0,-0.4675 -0.389559,-0.88303 -0.857029,-0.88303 h -5.298002 c -0.46747,0 -0.857029,0.41553 -0.857029,0.88303"
           id="path79"
           style="fill:#a5402a;fill-opacity:1;fill-rule:nonzero;stroke:none;stroke-width:0.0360703" /><path
           d="m 36.534398,249.97027 v 10.38824 0 c 0,0.2078 0.129853,0.41549 0.363588,0.46751 l 5.505766,1.81787 c 0.07791,0.0261 0.181794,0.052 0.285677,0.052 0.46747,0 0.857029,-0.36355 0.857029,-0.88304 v -11.84259 c 0,-0.4675 -0.389559,-0.88303 -0.857029,-0.88303 h -5.298002 c -0.46747,0 -0.857029,0.41553 -0.857029,0.88303 z"
           id="path81"
           style="fill:none;stroke:#ffffff;stroke-width:0.0775511;stroke-linecap:butt;stroke-linejoin:miter;stroke-miterlimit:4;stroke-dasharray:none;stroke-opacity:1"
           inkscape:label="path81" /></g></g></g></svg>
