<?xml version="1.0" encoding="UTF-8" standalone="no"?>
<!--
   ***************************************************************************
   Bundesanstalt fuer Strassenwesen
   RWBA-Symbol
   Bezeichnung:
   Kraftomnibus
   Ausdehnung in cm:
         X_min     X_max     Y_min     Y_max
         0.00000  15.00000   0.00000  15.00000
-->

<svg
   xmlns:dc="http://purl.org/dc/elements/1.1/"
   xmlns:cc="http://creativecommons.org/ns#"
   xmlns:rdf="http://www.w3.org/1999/02/22-rdf-syntax-ns#"
   xmlns:svg="http://www.w3.org/2000/svg"
   xmlns="http://www.w3.org/2000/svg"
   xmlns:sodipodi="http://sodipodi.sourceforge.net/DTD/sodipodi-0.dtd"
   xmlns:inkscape="http://www.inkscape.org/namespaces/inkscape"
   width="150"
   height="150"
   version="1.1"
   id="svg2"
   inkscape:version="0.48.2 r9819"
   sodipodi:docname="RWBA_Bus.svg">
  <metadata
     id="metadata12">
    <rdf:RDF>
      <cc:Work
         rdf:about="">
        <dc:format>image/svg+xml</dc:format>
        <dc:type
           rdf:resource="http://purl.org/dc/dcmitype/StillImage" />
      </cc:Work>
    </rdf:RDF>
  </metadata>
  <defs
     id="defs10" />
  <sodipodi:namedview
     pagecolor="#ffffff"
     bordercolor="#666666"
     borderopacity="1"
     objecttolerance="10"
     gridtolerance="10"
     guidetolerance="10"
     inkscape:pageopacity="0"
     inkscape:pageshadow="2"
     inkscape:window-width="640"
     inkscape:window-height="480"
     id="namedview8"
     showgrid="false"
     inkscape:zoom="1.5733333"
     inkscape:cx="75"
     inkscape:cy="75"
     inkscape:window-x="0"
     inkscape:window-y="0"
     inkscape:window-maximized="0"
     inkscape:current-layer="svg2" />
  <!--
   ***************************************************************************
-->
  <!--
      INHALT
      BUS
      ** AEUSSERE UMRANDUNG **
-->
  <path
     fill="black"
     fill-rule="evenodd"
     stroke="none"
     d="M122.4999 92.5A11.25 11.25 0 0 0 105.6249 82.7572142074251A11.25 11.25 0 0 0 99.9999 92.5L53.7498 92.5A11.25 11.25 0 0 0 36.8748 82.7572142074251A11.25 11.25 0 0 0 31.2498 92.5L14.9997 92.5A5 5 0 0 1 9.9997 87.5L9.9997 73.5504A7.5 7.5 0 0 1 10.2882705401004 71.4899910248467L15.3921803600669 53.6262940165645A5 5 0 0 1 20.1998 49.9999L133.75 49.9999A1.25 1.25 0 0 1 135 51.2499L135 53.7499A1.25 1.25 0 0 1 134.002664351533 54.9740979927547L134.002736716782 54.9741017867545A1.25 1.25 0 0 0 133.07822258073 56.6187204128725L139.563064515622 74.7765775227652A7.5 7.5 0 0 1 140 77.2991L140 90A2.5 2.5 0 0 1 137.5 92.5L122.5 92.5Z   M133.5893 72.5L118.625 72.5A1.875 1.875 0 0 1 116.75 70.625L116.75 56.8749A1.875 1.875 0 0 1 118.625 54.9999L128.6786 54.9999A1.875 1.875 0 0 1 130.444366128906 56.2442693806913L135.355066128906 69.9943693806913A1.875 1.875 0 0 1 133.5893 72.5Z   M111.625 72.5L98.4857 72.5A1.875 1.875 0 0 1 96.6828426350251 70.1098977562117L100.611342635025 56.3597977562117A1.875 1.875 0 0 1 102.4142 54.9999L111.625 54.9999A1.875 1.875 0 0 1 113.5 56.8749L113.5 70.625A1.875 1.875 0 0 1 111.625 72.5Z   M91.3356 72.5L78.7356 72.5A1.875 1.875 0 0 1 76.9327426350251 70.1098977562117L80.8613426350251 56.3597977562117A1.875 1.875 0 0 1 82.6642 54.9999L95.2642 54.9999A1.875 1.875 0 0 1 97.0670573649749 57.3900022437883L93.1384573649749 71.1401022437883A1.875 1.875 0 0 1 91.3356 72.5Z   M71.5856 72.5L58.9856 72.5A1.875 1.875 0 0 1 57.1827426350251 70.1098977562117L61.1112426350251 56.3597977562117A1.875 1.875 0 0 1 62.9141 54.9999L75.5141 54.9999A1.875 1.875 0 0 1 77.3169573649749 57.3900022437883L73.3884573649749 71.1401022437883A1.875 1.875 0 0 1 71.5856 72.5Z   M51.8355 72.5L39.2355 72.5A1.875 1.875 0 0 1 37.4326426350251 70.1098977562117L41.3612426350251 56.3597977562117A1.875 1.875 0 0 1 43.1641 54.9999L55.7641 54.9999A1.875 1.875 0 0 1 57.5669573649749 57.3900022437883L53.6383573649749 71.1401022437883A1.875 1.875 0 0 1 51.8355 72.5Z   M32.0854 72.5L19.4855 72.5A1.875 1.875 0 0 1 17.6826426350251 70.1098977562117L21.6111426350251 56.3597977562117A1.875 1.875 0 0 1 23.414 54.9999L36.014 54.9999A1.875 1.875 0 0 1 37.8168573649749 57.3900022437883L33.8882573649749 71.1401022437883A1.875 1.875 0 0 1 32.0854 72.5Z   M33.7498 92.5A8.75 8.75 0 0 1 46.8748 84.9222777168862A8.75 8.75 0 0 1 46.8748 100.077722283114A8.75 8.75 0 0 1 33.7498 92.5M102.4999 92.5A8.75 8.75 0 0 1 115.6249 84.9222777168862A8.75 8.75 0 0 1 115.6249 100.077722283114A8.75 8.75 0 0 1 102.4999 92.5Z"
     id="path6" />
  <!--
       ** 1. FENSTER (VON LINKS) **
       ** 2. FENSTER (VON LINKS) **
       ** 3. FENSTER (VON LINKS) **
       ** 4. FENSTER (VON LINKS) **
       ** 5. FENSTER (VON LINKS) **
       ** 6. FENSTER (VON LINKS) **
       ** RAEDER **
-->
</svg>
