<?xml version="1.0" encoding="utf-8"?>
<!-- Generator: Adobe Illustrator 15.0.0, SVG Export Plug-In  -->
<!DOCTYPE svg PUBLIC "-//W3C//DTD SVG 1.1//EN" "http://www.w3.org/Graphics/SVG/1.1/DTD/svg11.dtd" [
	<!ENTITY ns_flows "http://ns.adobe.com/Flows/1.0/">
]>
<svg version="1.1"
	 xmlns="http://www.w3.org/2000/svg" xmlns:xlink="http://www.w3.org/1999/xlink" xmlns:a="http://ns.adobe.com/AdobeSVGViewerExtensions/3.0/"
	 x="0px" y="0px" width="503px" height="505px" viewBox="0 -0.61 503 505" enable-background="new 0 -0.61 503 505"
	 xml:space="preserve">
<defs>
</defs>
<g>
	<rect x="0.5" y="0.5" fill="#FFFFFF" width="502" height="503"/>
	<g>
		<polyline fill="none" stroke="#000000" points="502.5,497.5 502.5,503.5 496.5,503.5 		"/>
		<line fill="none" stroke="#000000" stroke-dasharray="11.9512,11.9512" x1="484.549" y1="503.5" x2="12.476" y2="503.5"/>
		<polyline fill="none" stroke="#000000" points="6.5,503.5 0.5,503.5 0.5,497.5 		"/>
		<line fill="none" stroke="#000000" stroke-dasharray="11.9756,11.9756" x1="0.5" y1="485.524" x2="0.5" y2="12.488"/>
		<polyline fill="none" stroke="#000000" points="0.5,6.5 0.5,0.5 6.5,0.5 		"/>
		<line fill="none" stroke="#000000" stroke-dasharray="11.9512,11.9512" x1="18.451" y1="0.5" x2="490.524" y2="0.5"/>
		<polyline fill="none" stroke="#000000" points="496.5,0.5 502.5,0.5 502.5,6.5 		"/>
		<line fill="none" stroke="#000000" stroke-dasharray="11.9756,11.9756" x1="502.5" y1="18.476" x2="502.5" y2="491.512"/>
	</g>
</g>
<rect x="18.5" y="17.5" stroke="#000000" width="467" height="469"/>
<rect x="51" y="52.5" fill="#FFFFFF" stroke="#000000" width="401" height="399"/>
<polygon fill="none" points="254.475,149.558 294.959,83 214.127,83 "/>
<polygon fill="none" points="253.419,292.244 218.575,350.412 186.373,404.17 320.465,404.17 288.262,350.412 "/>
<path fill="#010101" d="M408.819,404.17L261.777,161.603L309.588,83h-14.629l-40.484,66.558L214.127,83h-14.933l47.801,78.854
	L99.604,404.17H68v13.22h370.5v-13.22H408.819z M323.105,408.577l-2.641-4.407H186.373l-2.64,4.407h-77.289l74.54-122.501
	l74.533-122.501l74.536,122.501l74.538,122.501H323.105z"/>
<polygon fill="#010101" stroke="#010101" stroke-linecap="round" stroke-linejoin="round" points="254.297,173.899 114.232,404.17 
	186.373,404.17 218.575,350.412 253.419,292.244 288.262,350.412 320.465,404.17 393.886,404.17 "/>
<polygon fill="#010101" stroke="#010101" stroke-linecap="round" stroke-linejoin="round" points="255.518,163.574 180.984,286.076 
	106.444,408.577 183.733,408.577 186.373,404.17 114.232,404.17 254.297,173.899 393.886,404.17 320.465,404.17 323.105,408.577 
	404.592,408.577 330.054,286.076 "/>
</svg>
