<?xml version="1.0" encoding="utf-8"?>
<!-- Generator: Adobe Illustrator 15.0.0, SVG Export Plug-In  -->
<!DOCTYPE svg PUBLIC "-//W3C//DTD SVG 1.1//EN" "http://www.w3.org/Graphics/SVG/1.1/DTD/svg11.dtd" [
	<!ENTITY ns_flows "http://ns.adobe.com/Flows/1.0/">
]>
<svg version="1.1"
	 xmlns="http://www.w3.org/2000/svg" xmlns:xlink="http://www.w3.org/1999/xlink" xmlns:a="http://ns.adobe.com/AdobeSVGViewerExtensions/3.0/"
	 x="0px" y="0px" width="503px" height="505px" viewBox="0 -0.61 503 505" enable-background="new 0 -0.61 503 505"
	 xml:space="preserve">
<defs>
</defs>
<g>
	<rect x="0.5" y="0.5" fill="#FFFFFF" width="502" height="503"/>
	<g>
		<polyline fill="none" stroke="#000000" points="502.5,497.5 502.5,503.5 496.5,503.5 		"/>
		<line fill="none" stroke="#000000" stroke-dasharray="11.9512,11.9512" x1="484.549" y1="503.5" x2="12.476" y2="503.5"/>
		<polyline fill="none" stroke="#000000" points="6.5,503.5 0.5,503.5 0.5,497.5 		"/>
		<line fill="none" stroke="#000000" stroke-dasharray="11.9756,11.9756" x1="0.5" y1="485.524" x2="0.5" y2="12.488"/>
		<polyline fill="none" stroke="#000000" points="0.5,6.5 0.5,0.5 6.5,0.5 		"/>
		<line fill="none" stroke="#000000" stroke-dasharray="11.9512,11.9512" x1="18.451" y1="0.5" x2="490.524" y2="0.5"/>
		<polyline fill="none" stroke="#000000" points="496.5,0.5 502.5,0.5 502.5,6.5 		"/>
		<line fill="none" stroke="#000000" stroke-dasharray="11.9756,11.9756" x1="502.5" y1="18.476" x2="502.5" y2="491.512"/>
	</g>
</g>
<rect x="18.5" y="17.5" stroke="#000000" width="467" height="469"/>
<rect x="51" y="52.5" fill="#FFFFFF" stroke="#000000" width="401" height="399"/>
<ellipse fill="#010101" cx="232.776" cy="328.312" rx="29.09" ry="29.477"/>
<path fill="#010101" d="M407.303,356.083l-2.307,0.018l20.299-45.998l-9.257,0.319h-46.354V186.533
	c-28.366-28.429-80.351-47.477-139.794-47.477c-66.548,0-123.751,23.874-148.923,58.057v125.135h29.961v34.041H79.5v10.946h342.715
	v-10.946h-16.116L407.303,356.083z M121.535,356.289v-34.041h73.905c5.389-17.887,19.923-30.704,37.014-30.704
	c15.677,0,29.192,10.787,35.484,26.373v4.587h137.483l-16.369,33.785H121.535z"/>
<path fill="#FFFFFF" d="M163.748,212.786c-0.808-12.056-11.82-21.607-25.292-21.607c-13.473,0-24.485,9.551-25.293,21.607h-0.053
	v79.037h0.239c1.681,11.238,12.276,19.901,25.106,19.901c12.829,0,23.426-8.663,25.106-19.901h0.238v-79.037H163.748z
	 M139.291,236.487c-10.281,0-18.617-8.446-18.617-18.864c0-10.418,8.336-18.865,18.617-18.865c10.283,0,18.618,8.446,18.618,18.865
	C157.909,228.041,149.574,236.487,139.291,236.487z"/>
<path fill="#FFFFFF" d="M250.307,192.939c-11.683,0.834-20.938,12.198-20.938,26.102s9.255,25.268,20.938,26.102v0.055h76.587
	v-0.246c10.89-1.734,19.285-12.67,19.285-25.91s-8.396-24.176-19.285-25.91v-0.246h-76.587V192.939z"/>
</svg>
