<?xml version="1.0" encoding="UTF-8" standalone="no"?>
<svg
   xmlns:dc="http://purl.org/dc/elements/1.1/"
   xmlns:cc="http://creativecommons.org/ns#"
   xmlns:rdf="http://www.w3.org/1999/02/22-rdf-syntax-ns#"
   xmlns:svg="http://www.w3.org/2000/svg"
   xmlns="http://www.w3.org/2000/svg"
   viewBox="0 0 180.09 180.09"
   height="180.09"
   width="180.09"
   xml:space="preserve"
   version="1.1"
   id="svg3386"><metadata
     id="metadata3392"><rdf:RDF><cc:Work
         rdf:about=""><dc:format>image/svg+xml</dc:format><dc:type
           rdf:resource="http://purl.org/dc/dcmitype/StillImage" /><dc:title></dc:title></cc:Work></rdf:RDF></metadata><defs
     id="defs3390" /><g
     transform="matrix(1.25,0,0,-1.25,0,180.08999)"
     id="g3394"><g
       id="g3396"><path
         id="path3398"
         style="fill:#000000;fill-opacity:1;fill-rule:evenodd;stroke:none"
         d="m 0,0.506 0,143.566 143.566,0 0,-143.566 L 0,0.506 Z" /><path
         id="path3400"
         style="fill:#ffffff;fill-opacity:1;fill-rule:evenodd;stroke:none"
         d="m 3.602,4.103 0,136.367 136.367,0 0,-136.367 -136.367,0 z" /><path
         id="path3402"
         style="fill:#000000;fill-opacity:1;fill-rule:evenodd;stroke:none"
         d="m 16.559,12.384 0,119.809 6.48,0 0,-7.922 3.168,0 0,7.922 6.481,0 0,-7.922 3.242,0 0,7.922 6.476,0 0,-48.098 11.449,0 0,13.61 7.922,7.918 7.918,-7.918 0,-13.61 11.375,0 0,13.61 7.922,7.918 7.848,-7.918 0,-13.61 11.519,0 0,33.77 7.2,0 0,-7.922 4.25,0 0,7.922 7.199,0 0,-105.481 -110.449,0 20.089,0 -20.089,0 z" /><path
         id="path3404"
         style="fill:#ffffff;fill-opacity:1;fill-rule:evenodd;stroke:none"
         d="m 61.777,15.982 0,18.867 0.071,0.43 0.074,0.504 0.07,0.434 0.145,0.429 0.429,0.867 0.289,0.36 0.29,0.429 0.359,0.364 0.359,0.359 0.434,0.359 0.43,0.36 0.433,0.289 0.504,0.285 0.504,0.289 0.504,0.219 0.574,0.215 0.578,0.215 0.574,0.144 0.649,0.145 0.578,0.07 0.648,0.144 0.575,0 0.648,0.075 0.574,0 0.649,-0.075 0.578,0 0.648,-0.144 0.575,-0.07 0.648,-0.145 0.574,-0.144 0.578,-0.215 0.575,-0.215 0.503,-0.219 0.504,-0.289 0.504,-0.285 0.434,-0.289 0.433,-0.36 0.43,-0.359 0.723,-0.723 0.285,-0.429 0.289,-0.36 0.215,-0.433 0.219,-0.434 0.14,-0.429 0.074,-0.434 0.071,-0.504 0.074,-0.43 0,-18.867 -20.016,0 z" /></g></g></svg>