<?xml version="1.0" encoding="UTF-8" standalone="no"?>
<svg
   xmlns:dc="http://purl.org/dc/elements/1.1/"
   xmlns:cc="http://creativecommons.org/ns#"
   xmlns:rdf="http://www.w3.org/1999/02/22-rdf-syntax-ns#"
   xmlns:svg="http://www.w3.org/2000/svg"
   xmlns="http://www.w3.org/2000/svg"
   xmlns:sodipodi="http://sodipodi.sourceforge.net/DTD/sodipodi-0.dtd"
   xmlns:inkscape="http://www.inkscape.org/namespaces/inkscape"
   width="131pt"
   height="80pt"
   viewBox="0 0 131 80"
   id="svg2"
   version="1.1"
   inkscape:version="0.48.4 r9939"
   sodipodi:docname="CH-Markierung-604-Doppellinie.svg">
  <metadata
     id="metadata60">
    <rdf:RDF>
      <cc:Work
         rdf:about="">
        <dc:format>image/svg+xml</dc:format>
        <dc:type
           rdf:resource="http://purl.org/dc/dcmitype/StillImage" />
      </cc:Work>
    </rdf:RDF>
  </metadata>
  <defs
     id="defs58" />
  <sodipodi:namedview
     pagecolor="#ffffff"
     bordercolor="#666666"
     borderopacity="1"
     objecttolerance="10"
     gridtolerance="10"
     guidetolerance="10"
     inkscape:pageopacity="0"
     inkscape:pageshadow="2"
     inkscape:window-width="640"
     inkscape:window-height="480"
     id="namedview56"
     showgrid="false"
     inkscape:zoom="2.0274809"
     inkscape:cx="81.875"
     inkscape:cy="50"
     inkscape:window-x="0"
     inkscape:window-y="0"
     inkscape:window-maximized="0"
     inkscape:current-layer="svg2" />
  <g
     transform="translate(0, 0.583984)"
     style="fill:#c4c6c7; fill-rule:nonzero; stroke:none; stroke-width:1; stroke-linecap:butt; stroke-linejoin:miter; stroke-dasharray:none;"
     id="g4">
    <path
       d="M0 0 C0 0 130.393 0 130.393 0 C130.393 0 130.393 38.8799 130.393 38.8799 C130.393 38.8799 0 38.8799 0 38.8799 C0 38.8799 0 0 0 0 "
       id="path6" />
  </g>
  <g
     transform="translate(0, 41.4805)"
     style="fill:#c4c6c7; fill-rule:nonzero; stroke:none; stroke-width:1; stroke-linecap:butt; stroke-linejoin:miter; stroke-dasharray:none;"
     id="g8">
    <path
       d="M130.393 0 C130.393 0 0 0 0 0 C0 0 0 38.5195 0 38.5195 C0 38.5195 130.393 38.5195 130.393 38.5195 C130.393 38.5195 130.393 0 130.393 0 "
       id="path10" />
  </g>
  <g
     transform="translate(76.8242, 43.2803)"
     style="fill:#ffffff; fill-rule:nonzero; stroke:none; stroke-width:1; stroke-linecap:butt; stroke-linejoin:miter; stroke-dasharray:none;"
     id="g12">
    <path
       d="M0 0 C0 0 12.0235 0 12.0235 0 C12.0235 0 12.0235 2.0879 12.0235 2.0879 C12.0235 2.0879 0 2.0879 0 2.0879 C0 2.0879 0 0 0 0 "
       id="path14" />
  </g>
  <g
     transform="translate(112.681, 43.2803)"
     style="fill:#ffffff; fill-rule:nonzero; stroke:none; stroke-width:1; stroke-linecap:butt; stroke-linejoin:miter; stroke-dasharray:none;"
     id="g16">
    <path
       d="M0 0 C0 0 12.167 0 12.167 0 C12.167 0 12.167 2.0879 12.167 2.0879 C12.167 2.0879 0 2.0879 0 2.0879 C0 2.0879 0 0 0 0 "
       id="path18" />
  </g>
  <g
     transform="translate(4.75195, 35.5039)"
     style="fill:#ffffff; fill-rule:nonzero; stroke:none; stroke-width:1; stroke-linecap:butt; stroke-linejoin:miter; stroke-dasharray:none;"
     id="g20">
    <path
       d="M0 0 C0 0 0 2.0879 0 2.0879 C0 2.0879 11.9522 2.0879 11.9522 2.0879 C11.9522 2.0879 11.9522 0 11.9522 0 C11.9522 0 0 0 0 0 "
       id="path22" />
  </g>
  <g
     transform="translate(40.6074, 35.5039)"
     style="fill:#ffffff; fill-rule:nonzero; stroke:none; stroke-width:1; stroke-linecap:butt; stroke-linejoin:miter; stroke-dasharray:none;"
     id="g24">
    <path
       d="M0 0 C0 0 0 2.0879 0 2.0879 C0 2.0879 12.169 2.0879 12.169 2.0879 C12.169 2.0879 12.169 0 12.169 0 C12.169 0 0 0 0 0 "
       id="path26" />
  </g>
</svg>
