<?xml version="1.0" encoding="UTF-8" standalone="no"?>
<svg
   xmlns:dc="http://purl.org/dc/elements/1.1/"
   xmlns:cc="http://creativecommons.org/ns#"
   xmlns:rdf="http://www.w3.org/1999/02/22-rdf-syntax-ns#"
   xmlns:svg="http://www.w3.org/2000/svg"
   xmlns="http://www.w3.org/2000/svg"
   xmlns:sodipodi="http://sodipodi.sourceforge.net/DTD/sodipodi-0.dtd"
   xmlns:inkscape="http://www.inkscape.org/namespaces/inkscape"
   viewBox="0 0 173.85333 105.85333"
   height="105.85333"
   width="173.85333"
   xml:space="preserve"
   id="svg2"
   version="1.1"
   inkscape:version="0.48.4 r9939"
   sodipodi:docname="CH-Markierung-610-Haltelinie-611-Stop-612-Ununterbrochene-Längslinie.svg"><sodipodi:namedview
     pagecolor="#ffffff"
     bordercolor="#666666"
     borderopacity="1"
     objecttolerance="10"
     gridtolerance="10"
     guidetolerance="10"
     inkscape:pageopacity="0"
     inkscape:pageshadow="2"
     inkscape:window-width="1692"
     inkscape:window-height="942"
     id="namedview36"
     showgrid="false"
     inkscape:zoom="2.91"
     inkscape:cx="86.926666"
     inkscape:cy="52.926666"
     inkscape:window-x="0"
     inkscape:window-y="0"
     inkscape:window-maximized="0"
     inkscape:current-layer="svg2" /><metadata
     id="metadata8"><rdf:RDF><cc:Work
         rdf:about=""><dc:format>image/svg+xml</dc:format><dc:type
           rdf:resource="http://purl.org/dc/dcmitype/StillImage" /></cc:Work></rdf:RDF></metadata><defs
     id="defs6" /><g
     id="g97"><path
       inkscape:connector-curvature="0"
       d="M 0,105.85333 H 173.856 V -0.00546735 H 0 z"
       style="fill:#bdbcbc;fill-opacity:1;fill-rule:nonzero;stroke:none"
       id="path14" /><path
       inkscape:connector-curvature="0"
       d="m 157.584,54.944931 h 8.16041 V 52.305345 H 157.584 z"
       style="fill:#ffffff;fill-opacity:1;fill-rule:nonzero;stroke:none"
       id="path16" /><path
       inkscape:connector-curvature="0"
       d="m 141.716,54.944931 h 8.15885 V 52.305345 H 141.716 z"
       style="fill:#ffffff;fill-opacity:1;fill-rule:nonzero;stroke:none"
       id="path18" /><path
       inkscape:connector-curvature="0"
       d="m 126.59426,54.944931 h 8.16042 v -2.639586 h -8.16042 z"
       style="fill:#ffffff;fill-opacity:1;fill-rule:nonzero;stroke:none"
       id="path20" /><path
       inkscape:connector-curvature="0"
       d="m 26.927599,0.03306598 c 0,11.32813302 9.264533,20.83226602 20.563066,20.83226602 H 173.856 V 0.03306598 H 26.927599 v 0"
       style="fill:#918f90;fill-opacity:1;fill-rule:nonzero;stroke:none"
       id="path22" /><path
       inkscape:connector-curvature="0"
       d="M 173.856,85.262131 V 105.85333 H 26.927599 v -0.0286 c 0,-11.29947 9.264533,-20.562549 20.563066,-20.562549 H 173.856 v 0"
       style="fill:#918f90;fill-opacity:1;fill-rule:nonzero;stroke:none"
       id="path24" /><path
       inkscape:connector-curvature="0"
       d="m 30.568266,11.902266 0.0072,40.403199 h 87.311994 v 2.639466 l -91.057194,-0.0312 0.02853,-54.91973169 v 0 c 0,4.31973319 1.403734,8.59213309 3.709467,11.90826669 v 0"
       style="fill:#ffffff;fill-opacity:1;fill-rule:nonzero;stroke:none"
       id="path26" /><path
       inkscape:connector-curvature="0"
       d="m 53.471865,50.941865 c 4.319867,0.2208 7.545867,-1.372934 7.545867,-3.321334 0,-1.824533 -2.775067,-3.283333 -6.4516,-3.283333 -2.256267,0 -3.8688,0.5468 -5.6068,1.3916 v 0 l -5.9328,2.7652 v 0 c -0.7104,0.326 -1.295333,0.431733 -1.871866,0.431733 -1.353067,0 -2.514534,-0.624 -2.514534,-1.3052 0,-0.681733 1.0364,-1.267733 2.447867,-1.306266 v -1.784933 c -3.418267,0.02813 -6.124933,1.458933 -6.124933,3.091199 0,1.7276 2.8416,3.119734 6.124933,3.119734 1.612533,0 2.966133,-0.2208 4.7136,-1.0364 v 0 l 6.576,-3.063067 v 0 c 0.7104,-0.3552 1.3536,-0.4896 2.1208,-0.4896 1.6808,0 2.9672,0.652667 2.9672,1.469333 0,0.873467 -1.421334,1.6224 -3.993734,1.4588 v 1.862534"
       style="fill:#ffffff;fill-opacity:1;fill-rule:nonzero;stroke:none"
       id="path28" /><path
       inkscape:connector-curvature="0"
       d="m 60.690665,41.466932 v -1.786 H 38.572399 v -2.476534 h -3.2156 v 6.604667 h 3.2156 v -2.342133 h 22.118266"
       style="fill:#ffffff;fill-opacity:1;fill-rule:nonzero;stroke:none"
       id="path30" /><path
       inkscape:connector-curvature="0"
       d="m 61.017732,33.469998 c 0,-0.03853 0,-0.03853 0,-0.0672 0,-0.911999 -0.519334,-1.690133 -1.747467,-2.342133 -1.0948,-0.586533 -2.447866,-0.912533 -4.704133,-0.912533 v 0 l -13.2192,-0.038 v 0 c -3.7344,0 -6.4412,1.333867 -6.4412,3.292666 0,1.919867 2.7068,3.254134 6.4412,3.283334 h 13.151467 v 0 c 3.869333,0.038 6.519333,-1.334934 6.519333,-3.216134 v 0"
       style="fill:#ffffff;fill-opacity:1;fill-rule:nonzero;stroke:none"
       id="path32" /><path
       inkscape:connector-curvature="0"
       d="m 60.690665,28.554399 v -1.824 H 49.535999 v -1.728134 c 0,-1.104133 -0.643334,-1.784933 -1.545867,-2.245866 -0.586,-0.317067 -1.353733,-0.518667 -2.188533,-0.6432 -0.7776,-0.134934 -1.613067,-0.163467 -2.457867,-0.163467 h -0.05733 -2.1984 v 0 c -2.707333,0 -4.320267,0.585867 -5.155733,1.497333 -0.326,0.288534 -0.575467,0.778134 -0.575467,1.9208 v 3.186534 h 25.333866 v 0"
       style="fill:#ffffff;fill-opacity:1;fill-rule:nonzero;stroke:none"
       id="path34" /><path
       inkscape:connector-curvature="0"
       d="m 57.791732,33.402798 c 0,0.872934 -0.969333,1.497467 -3.676667,1.497467 v 0 l -12.960399,-0.03867 v 0 c -1.804667,0 -2.966134,-0.585866 -2.966134,-1.430133 0,-0.874 1.0948,-1.497466 2.966134,-1.497466 v 0 l 12.960399,0.03867 v 0 c 0.259467,0 0.518267,0 0.643334,0 1.938933,0 3.033333,0.5848 3.033333,1.430133 v 0"
       style="fill:#bdbcbc;fill-opacity:1;fill-rule:nonzero;stroke:none"
       id="path36" /><path
       inkscape:connector-curvature="0"
       d="m 46.252666,26.701732 h -7.680267 v -1.564533 c 0,-0.940667 0.8448,-1.334934 2.582267,-1.334934 h 2.390666 v 0 c 2.572934,0 2.707334,0.7776 2.707334,1.593734 v 1.305733"
       style="fill:#bdbcbc;fill-opacity:1;fill-rule:nonzero;stroke:none"
       id="path38" /></g></svg>