<?xml version="1.0" encoding="UTF-8" standalone="no"?>
<svg
   xmlns:dc="http://purl.org/dc/elements/1.1/"
   xmlns:cc="http://creativecommons.org/ns#"
   xmlns:rdf="http://www.w3.org/1999/02/22-rdf-syntax-ns#"
   xmlns:svg="http://www.w3.org/2000/svg"
   xmlns="http://www.w3.org/2000/svg"
   xmlns:sodipodi="http://sodipodi.sourceforge.net/DTD/sodipodi-0.dtd"
   xmlns:inkscape="http://www.inkscape.org/namespaces/inkscape"
   viewBox="0 0 173.85333 105.84"
   height="105.84"
   width="173.85333"
   xml:space="preserve"
   id="svg2"
   version="1.1"
   inkscape:version="0.48.4 r9939"
   sodipodi:docname="CH-Markierung-619-Längsstreifen-für-Fussgänger.svg"><sodipodi:namedview
     pagecolor="#ffffff"
     bordercolor="#666666"
     borderopacity="1"
     objecttolerance="10"
     gridtolerance="10"
     guidetolerance="10"
     inkscape:pageopacity="0"
     inkscape:pageshadow="2"
     inkscape:window-width="640"
     inkscape:window-height="480"
     id="namedview54"
     showgrid="false"
     inkscape:zoom="1.9096557"
     inkscape:cx="86.926666"
     inkscape:cy="41.062365"
     inkscape:window-x="0"
     inkscape:window-y="0"
     inkscape:window-maximized="0"
     inkscape:current-layer="svg2" /><metadata
     id="metadata8"><rdf:RDF><cc:Work
         rdf:about=""><dc:format>image/svg+xml</dc:format><dc:type
           rdf:resource="http://purl.org/dc/dcmitype/StillImage" /></cc:Work></rdf:RDF></metadata><defs
     id="defs6" /><path
     id="path14"
     style="fill:#bdbcbc;fill-opacity:1;fill-rule:nonzero;stroke:none"
     d="M 80.755198,58.032135 H 101.9224 V 6.5280025 H 80.755198 z"
     inkscape:connector-curvature="0" /><path
     id="path16"
     style="fill:#bdbcbc;fill-opacity:1;fill-rule:nonzero;stroke:none"
     d="M 80.755198,4.3681359 H 101.9224 V -9.0687331e-5 H 80.755198 z"
     inkscape:connector-curvature="0" /><path
     id="path18"
     style="fill:#bdbcbc;fill-opacity:1;fill-rule:nonzero;stroke:none"
     d="m 104.0828,4.3681359 h 21.1964 V -9.0687331e-5 h -21.1964 z"
     inkscape:connector-curvature="0" /><path
     id="path20"
     style="fill:#bdbcbc;fill-opacity:1;fill-rule:nonzero;stroke:none"
     d="m 127.4396,4.3681359 h 21.18746 V -9.0687331e-5 H 127.4396 z"
     inkscape:connector-curvature="0" /><path
     id="path22"
     style="fill:#bdbcbc;fill-opacity:1;fill-rule:nonzero;stroke:none"
     d="m 104.0828,58.032135 h 21.1964 V 6.5280025 h -21.1964 z"
     inkscape:connector-curvature="0" /><path
     id="path24"
     style="fill:#bdbcbc;fill-opacity:1;fill-rule:nonzero;stroke:none"
     d="m 127.4396,58.032135 h 21.18746 V 6.5280025 H 127.4396 z"
     inkscape:connector-curvature="0" /><path
     id="path26"
     style="fill:#bdbcbc;fill-opacity:1;fill-rule:nonzero;stroke:none"
     d="M 0,-1.3068733e-4 V 105.84 H 173.856 V -1.3068733e-4 H 150.78666 L 150.772,60.418668 v 0 c -24.0684,0 -48.12934,-0.05373 -72.196535,-0.05373 V -1.3068733e-4 H 0 v 0"
     inkscape:connector-curvature="0" /><path
     id="path28"
     style="fill:#918f90;fill-opacity:1;fill-rule:nonzero;stroke:none"
     d="m 40.627066,69.196801 c 0,10.7708 -8.8036,19.602533 -19.5844,19.602533 H 0 V -1.3068733e-4 H 40.627066 V 69.196801"
     inkscape:connector-curvature="0" /><path
     id="path30"
     style="fill:#656263;fill-opacity:1;fill-rule:nonzero;stroke:none"
     d="M 0,66.940001 H 14.7552 V -1.3068733e-4 l -14.7552,0 z"
     inkscape:connector-curvature="0" /><path
     id="path32"
     style="fill:#fcd213;fill-opacity:1;fill-rule:nonzero;stroke:none"
     d="m 61.938532,88.799334 h 5.933333 v -28.4344 h -5.933333 z"
     inkscape:connector-curvature="0" /><path
     id="path34"
     style="fill:#fcd213;fill-opacity:1;fill-rule:nonzero;stroke:none"
     d="m 159.61866,88.799334 h 5.90364 v -28.4344 h -5.90364 z"
     inkscape:connector-curvature="0" /><path
     id="path36"
     style="fill:#fcd213;fill-opacity:1;fill-rule:nonzero;stroke:none"
     d="m 171.072,88.799334 h 2.78385 v -28.4344 H 171.072 z"
     inkscape:connector-curvature="0" /><path
     id="path38"
     style="fill:#fcd213;fill-opacity:1;fill-rule:nonzero;stroke:none"
     d="m 41.231732,88.799334 h 5.904173 v -28.4344 h -5.904173 z"
     inkscape:connector-curvature="0" /><path
     id="path40"
     style="fill:#fcd213;fill-opacity:1;fill-rule:nonzero;stroke:none"
     d="m 51.599465,88.799334 h 5.904174 v -28.4344 h -5.904174 z"
     inkscape:connector-curvature="0" /><path
     id="path42"
     style="fill:#fcd213;fill-opacity:1;fill-rule:nonzero;stroke:none"
     d="m 72.528132,88.799334 h 82.127598 v -28.4344 H 72.528132 z"
     inkscape:connector-curvature="0" /><path
     id="path44"
     style="fill:#fcd213;fill-opacity:1;fill-rule:nonzero;stroke:none"
     d="m 47.586932,60.364934 h 2.159893 V -1.3068733e-4 h -2.159893 z"
     inkscape:connector-curvature="0" /><path
     id="path46"
     style="fill:#bdbcbc;fill-opacity:1;fill-rule:nonzero;stroke:none"
     d="M 128.89893,86.5728 149.25066,66.221201 V 86.5728 h -20.35173"
     inkscape:connector-curvature="0" /><path
     id="path48"
     style="fill:#bdbcbc;fill-opacity:1;fill-rule:nonzero;stroke:none"
     d="M 100.57866,86.5728 H 79.007865 L 102.83546,62.735868 h 21.58067 L 100.57866,86.5728"
     inkscape:connector-curvature="0" /><path
     id="path50"
     style="fill:#bdbcbc;fill-opacity:1;fill-rule:nonzero;stroke:none"
     d="M 77.922931,62.735868 V 84.268134 L 99.455198,62.735868 H 77.922931"
     inkscape:connector-curvature="0" /><path
     id="path52"
     style="fill:#bdbcbc;fill-opacity:1;fill-rule:nonzero;stroke:none"
     d="m 125.52026,86.5728 h -21.552 L 127.7948,62.735868 h 21.45586 L 125.52026,86.5728"
     inkscape:connector-curvature="0" /><path
     id="path54"
     style="fill:#231f20;fill-opacity:1;fill-rule:nonzero;stroke:none"
     d="m 122.61146,16.588402 v -0.04733 l -1.50786,-4.348933 h -0.65254 -11.5208 -0.64333 l -1.5156,4.348933 h -0.0192 v 0.04733 c 0,10.752133 0,21.4756 0,32.227599 h 1.7952 l 0.31667,-0.671866 h 11.63546 l 0.31614,0.671866 h 1.79586 v 0 c 0,-10.751999 0,-21.475466 0,-32.227599 v 0"
     inkscape:connector-curvature="0" /><path
     id="path56"
     style="fill:#231f20;fill-opacity:1;fill-rule:nonzero;stroke:none"
     d="M 97.632264,53.904001 H 84.047331 l -1.1328,-4.050933 V 15.600402 l 1.1328,-5.7125329 v 0 c 0.1152,-0.3066667 0.595867,-0.576 1.171467,-0.576 0.604667,0 1.104133,0.2693333 1.180667,0.6245333 h 9.235466 v 0 c 0.07653,-0.3552 0.575467,-0.6245333 1.180667,-0.6245333 0.595333,0 1.104133,0.2693333 1.1708,0.6245333 v 0 l 0.261466,1.1890666 0.871467,4.474933 v 34.252666 l -1.132933,4.050933 h -0.354134 v 0"
     inkscape:connector-curvature="0" /><path
     id="path58"
     style="fill:#231f20;fill-opacity:1;fill-rule:nonzero;stroke:none"
     d="m 130.41613,51.821201 h -0.0287 l -0.6432,-3.456266 h -0.0287 l 0.001,-29.275466 -0.001,-0.0812 v 0 c 0.0765,-0.336533 0.4308,-2.304267 1.05573,-3.792267 0.70053,-1.631733 2.0156,-3.359866 2.09267,-3.359866 h 9.408 v 0 c 0.21066,0.336 1.31466,1.487466 1.98666,3.359866 0.55734,1.536 1.008,3.455734 1.056,3.792267 v 0 l 0.048,1.842133 -0.02,27.514533 v 0 l -0.57466,3.456266 v 0 c -1.03734,0 -2.064,0 -3.10134,0 v -0.864 H 133.488 v 0.864 c -1.03694,0 -2.0448,0 -3.07187,0 v 0"
     inkscape:connector-curvature="0" /><path
     id="path60"
     style="fill:#bdbcbc;fill-opacity:1;fill-rule:nonzero;stroke:none"
     d="m 108.14373,14.476402 -0.7484,2.112 v 31.584399 h 0.62347 l 0.12493,-0.6052 V 14.476402"
     inkscape:connector-curvature="0" /><path
     id="path62"
     style="fill:#bdbcbc;fill-opacity:1;fill-rule:nonzero;stroke:none"
     d="m 108.78693,41.020668 h 11.71251 v -7.27656 h -11.71251 z"
     inkscape:connector-curvature="0" /><path
     id="path64"
     style="fill:#bdbcbc;fill-opacity:1;fill-rule:nonzero;stroke:none"
     d="m 120.49946,41.664535 h -11.71253 v 5.8364 h 11.71253 v -5.8364"
     inkscape:connector-curvature="0" /><path
     id="path66"
     style="fill:#bdbcbc;fill-opacity:1;fill-rule:nonzero;stroke:none"
     d="m 108.78693,33.100935 h 11.71251 V 22.157189 h -11.71251 z"
     inkscape:connector-curvature="0" /><path
     id="path68"
     style="fill:#bdbcbc;fill-opacity:1;fill-rule:nonzero;stroke:none"
     d="m 108.78693,21.504002 h 11.71251 v -8.658853 h -11.71251 z"
     inkscape:connector-curvature="0" /><path
     id="path70"
     style="fill:#bdbcbc;fill-opacity:1;fill-rule:nonzero;stroke:none"
     d="m 121.1516,14.188936 v 33.283332 l 0.16293,0.700533 h 0.65373 V 16.559736 l -0.81666,-2.3708"
     inkscape:connector-curvature="0" /><path
     id="path72"
     style="fill:#bdbcbc;fill-opacity:1;fill-rule:nonzero;stroke:none"
     d="m 97.362531,21.647869 c -2.112,-0.383334 -4.224,-0.690667 -6.3552,-0.690667 -2.112,0 -4.223467,0.307333 -6.335466,0.786933 v -6.143733 l 0.9792,-4.9156 v 0 c 0.09587,-0.02867 0.192133,-0.07653 0.287466,-0.125066 h 10.157333 v 0 c 0.06773,0.04853 0.191067,0.0964 0.287467,0.125066 v 0 l 0.9792,4.9156 v 6.047467"
     inkscape:connector-curvature="0" /><path
     id="path74"
     style="fill:#bdbcbc;fill-opacity:1;fill-rule:nonzero;stroke:none"
     d="M 84.671865,53.261335 V 43.181202 c 2.111999,0.4796 4.223466,0.786933 6.335466,0.786933 2.1312,0 4.2432,-0.307333 6.3552,-0.6912 v 9.9844 H 84.671865 v 0"
     inkscape:connector-curvature="0" /><path
     id="path76"
     style="fill:#bdbcbc;fill-opacity:1;fill-rule:nonzero;stroke:none"
     d="m 83.567731,49.824401 0.451067,1.708267 V 15.600402 h 0.02853 l 0.931867,-4.8964 v 0 c -0.1448,-0.0192 -0.288533,-0.04787 -0.432267,-0.09573 v 0 l -0.9792,4.992133 v 34.223999"
     inkscape:connector-curvature="0" /><path
     id="path78"
     style="fill:#bdbcbc;fill-opacity:1;fill-rule:nonzero;stroke:none"
     d="m 98.466664,49.824401 -0.450533,1.708267 V 15.600402 h -0.02973 l -0.9312,-4.8964 v 0 c 0.1448,-0.0192 0.288,-0.04787 0.4036,-0.09573 v 0 l 1.007866,4.992133 v 34.223999"
     inkscape:connector-curvature="0" /><path
     id="path80"
     style="fill:#bdbcbc;fill-opacity:1;fill-rule:nonzero;stroke:none"
     d="m 97.362531,42.605068 c -2.112,0.3552 -4.224,0.6912 -6.3552,0.719867 -2.112,0 -4.223467,-0.336 -6.335466,-0.796933 v -1.968267 h 12.690666 v 2.045333"
     inkscape:connector-curvature="0" /><path
     id="path82"
     style="fill:#bdbcbc;fill-opacity:1;fill-rule:nonzero;stroke:none"
     d="m 84.671865,39.936402 h 12.690626 v -14.7364 H 84.671865 z"
     inkscape:connector-curvature="0" /><path
     id="path84"
     style="fill:#bdbcbc;fill-opacity:1;fill-rule:nonzero;stroke:none"
     d="m 97.362531,22.320669 v 2.236 H 84.671865 v -2.159334 c 2.111999,-0.460933 4.223466,-0.796933 6.335466,-0.796933 2.1312,0.02867 4.2432,0.364533 6.3552,0.720267 v 0"
     inkscape:connector-curvature="0" /><path
     id="path86"
     style="fill:#bdbcbc;fill-opacity:1;fill-rule:nonzero;stroke:none"
     d="M 144.69066,25.517069 C 142.32,25.084802 139.92,24.768135 137.52,24.768135 c -2.38134,0 -4.78094,0.316667 -7.15227,0.8448 v -6.604666 c 0.0484,-0.431867 0.43227,-2.0156 1.05627,-3.571333 0.28746,-0.719867 0.71973,-1.440134 1.12333,-2.016267 v 0 l 0.172,10.607866 0.21093,-0.02867 0.36614,-11.471867 h 8.46626 l 0.36534,11.471867 0.21066,0.02867 0.172,-10.588533 v 0 c 0.384,0.576534 0.81734,1.277067 1.104,1.996934 0.644,1.632266 0.92934,3.202 1.076,3.6192 0.0133,0.03547 0.0173,0.0136 0.0173,0.03333 v 0 l -0.0173,6.4276 v 0"
     inkscape:connector-curvature="0" /><path
     id="path88"
     style="fill:#bdbcbc;fill-opacity:1;fill-rule:nonzero;stroke:none"
     d="M 144.69066,26.140535 C 142.32,25.776402 139.92,25.420669 137.52,25.420669 c -2.38134,-0.02853 -4.78094,0.336 -7.15227,0.816666 v 1.007334 h 14.32293 v -1.104134"
     inkscape:connector-curvature="0" /><path
     id="path90"
     style="fill:#bdbcbc;fill-opacity:1;fill-rule:nonzero;stroke:none"
     d="m 130.36773,39.072268 h 14.32293 V 27.916535 h -14.32293 z"
     inkscape:connector-curvature="0" /><path
     id="path92"
     style="fill:#bdbcbc;fill-opacity:1;fill-rule:nonzero;stroke:none"
     d="m 130.36773,47.328001 h 14.32293 v -7.583853 h -14.32293 z"
     inkscape:connector-curvature="0" /><path
     id="path94"
     style="fill:#bdbcbc;fill-opacity:1;fill-rule:nonzero;stroke:none"
     d="m 144.69066,47.981201 h -14.32293 v 0.3552 h 0.0197 l 0.52707,2.831734 h 1.92093 v -0.864134 h 0.65254 8.17866 0.624 v 0.864134 h 1.92 l 0.48,-2.831734 v -0.3552"
     inkscape:connector-curvature="0" /></svg>