<?xml version="1.0" encoding="UTF-8" standalone="no"?>
<!DOCTYPE svg PUBLIC "-//W3C//DTD SVG 1.0//EN" "http://www.w3.org/TR/2001/REC-SVG-20010904/DTD/svg10.dtd">
<svg
   xmlns:svg="http://www.w3.org/2000/svg"
   xmlns="http://www.w3.org/2000/svg"
   version="1.0"
   width="18.537382"
   height="35.437275"
   id="svg1885">
  <defs
     id="defs1887" />
  <g
     transform="translate(-822.1599,-508.9295)"
     id="layer1">
    <g
       transform="matrix(1.249992,0,0,-1.249992,460.7872,1057.676)"
       style="font-style:normal;font-variant:normal;font-weight:normal;font-stretch:normal;letter-spacing:normal;word-spacing:normal;text-anchor:start;fill:none;fill-opacity:1;stroke:black;stroke-linecap:butt;stroke-linejoin:miter;stroke-miterlimit:10.43299961;stroke-dasharray:none;stroke-dashoffset:0;stroke-opacity:1"
       id="g10"
       xml:space="preserve">
<path
   d="M 290.45,410.65 L 290.19,410.65 L 290.19,410.65 L 290.19,410.65 C 289.87,410.65 289.62,410.9 289.62,411.22 C 289.62,411.31 289.64,411.4 289.68,411.48 L 289.68,411.48 L 294.77,421.46 L 294.77,422.21 L 294.77,422.21 L 299.31,422.21 L 299.3,421.46 L 303.93,412.38 L 303.93,411.41 L 303.93,411.41 C 303.93,411 303.59,410.66 303.18,410.66 L 303.18,410.66 L 303.04,410.65 L 303.04,410.65 L 303.04,410.65 L 303.04,410.65 L 303.04,410.65 L 303.04,410.65 L 303.04,410.65 L 303.04,410.65 C 302.82,410.65 302.63,410.78 302.54,410.97 L 302.54,410.97 L 297.71,420.43 L 297.71,420.43 C 297.59,420.68 297.33,420.84 297.04,420.84 C 296.74,420.84 296.48,420.67 296.36,420.43 L 296.36,420.43 L 291.81,411.48 L 291.81,411.48 C 291.55,410.99 291.04,410.65 290.45,410.65 z "
   style="fill:black;fill-rule:nonzero;stroke-width:0"
   id="path12" />
<path
   d="M 289.21,424.01 L 289.2,423.99 L 289.18,423.97 L 289.17,423.95 L 289.16,423.93 L 289.16,423.91 L 289.15,423.89 L 289.14,423.87 L 289.13,423.85 L 289.12,423.83 L 289.12,423.81 L 289.11,423.79 L 289.11,423.77 L 289.11,423.74 L 289.1,423.72 L 289.1,423.7 L 289.1,423.68 C 289.1,423.49 289.2,423.32 289.35,423.21 C 289.56,423.06 289.82,422.98 290.1,422.98 C 290.55,422.98 290.95,423.2 291.19,423.54 L 291.19,423.54 L 294.77,428.65 L 294.77,422.98 L 299.31,422.98 L 299.3,430.17 L 301.98,427.49 L 301.98,423.71 L 301.98,423.71 L 301.98,423.71 L 301.98,423.71 L 301.98,423.71 L 301.98,423.71 C 301.98,423.5 302.16,423.33 302.36,423.33 L 302.36,423.33 L 302.36,423.33 L 302.36,423.33 L 302.36,423.33 L 302.36,423.33 L 302.36,423.33 C 303.19,423.33 303.87,424.01 303.87,424.84 L 303.87,424.84 L 303.87,427.49 L 303.87,427.49 C 303.87,428.01 303.66,428.48 303.32,428.82 L 303.32,428.82 L 299.23,432.91 L 299.23,432.91 C 298.75,433.39 298.1,433.69 297.36,433.69 C 296.47,433.69 295.68,433.24 295.2,432.55 L 295.2,432.55 L 289.21,424.01 z "
   style="fill:black;fill-rule:nonzero;stroke-width:0"
   id="path14" />
<path
   d="M 298.07,436.73 L 298.07,436.85 L 298.06,436.96 L 298.04,437.08 L 298.02,437.19 L 298,437.3 L 297.97,437.41 L 297.93,437.51 L 297.89,437.61 L 297.84,437.71 L 297.79,437.81 L 297.74,437.91 L 297.68,438 L 297.62,438.09 L 297.55,438.17 L 297.48,438.26 L 297.4,438.34 L 297.32,438.41 L 297.24,438.48 L 297.15,438.55 L 297.07,438.61 L 296.97,438.67 L 296.88,438.73 L 296.78,438.78 L 296.68,438.82 L 296.58,438.86 L 296.47,438.9 L 296.36,438.93 L 296.25,438.95 L 296.14,438.97 L 296.03,438.99 L 295.91,439 L 295.8,439 C 294.54,439 293.53,437.98 293.53,436.73 C 293.53,435.48 294.54,434.46 295.8,434.46 C 297.05,434.46 298.07,435.48 298.07,436.73 z "
   style="fill:black;fill-rule:nonzero;stroke-width:0"
   id="path16" />
</g>  </g>
</svg>
