<?xml version="1.0" encoding="UTF-8" standalone="no"?>
<!-- Created with Inkscape (http://www.inkscape.org/) -->

<svg
   xmlns:dc="http://purl.org/dc/elements/1.1/"
   xmlns:cc="http://creativecommons.org/ns#"
   xmlns:rdf="http://www.w3.org/1999/02/22-rdf-syntax-ns#"
   xmlns:svg="http://www.w3.org/2000/svg"
   xmlns="http://www.w3.org/2000/svg"
   xmlns:sodipodi="http://sodipodi.sourceforge.net/DTD/sodipodi-0.dtd"
   xmlns:inkscape="http://www.inkscape.org/namespaces/inkscape"
   version="1.0"
   width="1242.8523"
   height="829.71222"
   id="svg2"
   inkscape:version="0.48.1 r9760"
   sodipodi:docname="Zeichen_310.svg">
  <metadata
     id="metadata12">
    <rdf:RDF>
      <cc:Work
         rdf:about="">
        <dc:format>image/svg+xml</dc:format>
        <dc:type
           rdf:resource="http://purl.org/dc/dcmitype/StillImage" />
        <dc:title></dc:title>
      </cc:Work>
    </rdf:RDF>
  </metadata>
  <sodipodi:namedview
     pagecolor="#ffffff"
     bordercolor="#666666"
     borderopacity="1"
     objecttolerance="10"
     gridtolerance="10"
     guidetolerance="10"
     inkscape:pageopacity="0"
     inkscape:pageshadow="2"
     inkscape:window-width="866"
     inkscape:window-height="890"
     id="namedview10"
     showgrid="false"
     fit-margin-top="0"
     fit-margin-left="0"
     fit-margin-right="0"
     fit-margin-bottom="0"
     inkscape:zoom="0.28095238"
     inkscape:cx="621.42612"
     inkscape:cy="414.85609"
     inkscape:window-x="0"
     inkscape:window-y="0"
     inkscape:window-maximized="0"
     inkscape:current-layer="svg2" />
  <defs
     id="defs9" />
  <path
     d="M 1.3889257,46.799262 1.0629437,778.22234 c 0,19.18106 23.7146793,50.42691 55.4373353,50.42691 l 1135.232521,0 c 22.6181,0 49.5866,-28.01558 49.5866,-50.79207 l 0.4699,-724.287267 c 0,-27.201413 -27.1156,-52.5069693 -52.8255,-52.5069693 L 51.886313,1.5327347 c -28.661988,0 -50.4973873,30.3199683 -50.4973873,45.2665273 z"
     style="fill:#f0c900;fill-opacity:1;fill-rule:evenodd;stroke:#000000;stroke-width:2.12588739;stroke-linecap:butt;stroke-linejoin:miter;stroke-miterlimit:4;stroke-opacity:1;stroke-dasharray:none"
     id="path3829"
     inkscape:connector-curvature="0" />
  <path
     d="m 181.071,416.05437 -56.4628,-225.3871 36.19807,0 35.4246,160.26152 0.61877,0 43.778,-160.26152 24.59612,0 43.77801,160.26152 0.61877,0 35.4246,-160.26152 36.19807,0 -56.4628,225.3871 -28.46343,0 -43.15924,-162.42722 -0.61877,0 -43.00454,162.42722 -28.46343,0 z m 233.54178,0 0,-160.57091 32.33075,0 0,160.57091 -32.33075,0 z m 0,-193.05635 0,-32.33075 32.33075,0 0,32.33075 -32.33075,0 z m 83.18061,154.22851 0,-186.55926 32.33075,0 0,183.92949 c -5e-5,7.42528 4.02195,11.13789 12.06602,11.13786 l 10.98318,0 0,30.31975 -14.23172,0 c -11.75669,0 -21.55388,-2.86181 -29.39159,-8.58544 -7.83779,-5.72361 -11.75666,-15.8044 -11.75664,-30.2424 l 0,0 z m 71.88802,12.06602 22.58512,-22.27573 c 14.02542,13.71611 30.8869,20.57414 50.58448,20.57412 9.17834,2e-5 16.75827,-1.72738 22.73981,-5.18221 5.98134,-3.45476 8.97206,-8.58539 8.97217,-15.39191 -1.1e-4,-9.38462 -6.54875,-14.64417 -19.64596,-15.77864 l -28.46344,-2.62978 c -13.30361,-1.03121 -24.33833,-5.41417 -33.10421,-13.14887 -8.76593,-7.73454 -13.14888,-18.51145 -13.14887,-32.33075 -10e-6,-16.29416 5.72361,-28.61799 17.17088,-36.97153 11.44721,-8.35324 25.67891,-12.52994 42.69515,-12.5301 14.02538,1.6e-4 26.03982,1.98538 36.04338,5.95567 10.00333,3.97059 18.97549,9.25592 26.91651,15.85599 l -19.95535,23.51327 c -6.39407,-4.33127 -12.99428,-7.8892 -19.80065,-10.67379 -6.80656,-2.78433 -14.54118,-4.17657 -23.20389,-4.1767 -10.3129,1.3e-4 -17.48032,1.83066 -21.50227,5.49159 -4.02205,3.66118 -6.03305,8.27617 -6.03301,13.84499 -4e-5,3.50647 1.49532,6.75501 4.48609,9.74563 2.99067,2.99082 8.55959,4.79557 16.7068,5.41424 l 26.60712,1.85631 c 16.60356,1.13451 28.51488,6.26514 35.73399,15.39191 7.21885,9.12694 10.82834,20.03275 10.82848,32.71749 -1.4e-4,15.77867 -6.44566,27.94781 -19.33657,36.50745 -12.89116,8.55966 -28.61822,12.83948 -47.18124,12.83948 -26.7103,0 -50.27512,-9.53937 -70.69452,-28.61813 l 0,0 z m 179.86346,-133.80909 0,-48.72816 32.33075,0 0,48.72816 23.51328,0 0,24.75082 -23.51328,0 0,93.43432 c -5e-5,8.04405 3.81569,12.06605 11.44725,12.06602 l 12.06603,0 0,30.31975 -16.8615,0 c -11.24104,0 -20.54837,-3.40323 -27.92201,-10.20971 -7.3737,-6.80646 -11.06054,-16.55208 -11.06052,-29.2369 l 0,-96.37348 -16.08803,0 0,-24.75082 16.08803,0 z m 218.38195,92.50617 -99.93141,0 c -5e-5,13.20049 3.58366,23.10081 10.75113,29.70098 7.16736,6.60025 16.32,9.90035 27.45794,9.90033 13.30346,2e-5 25.06009,-5.15639 35.26991,-15.46926 l 23.35858,19.95534 c -7.94102,9.28157 -16.8874,15.90756 -26.83917,19.878 -9.95199,3.97044 -20.34217,5.95566 -31.17055,5.95566 -16.50061,0 -32.4855,-5.33689 -47.95471,-16.01068 -15.46928,-10.67376 -23.2039,-32.51118 -23.20388,-65.51231 -2e-5,-31.24779 7.14162,-52.85317 21.42492,-64.8162 14.28323,-11.96273 29.21105,-17.94418 44.7835,-17.94434 17.63486,1.6e-4 33.05254,6.11052 46.25309,18.33107 13.20029,12.22085 19.80051,28.69559 19.80065,49.42429 l 0,26.60712 z m -99.93141,-26.60712 67.75535,0 c -0.51575,-12.06592 -3.91899,-21.2959 -10.20971,-27.68998 -6.29093,-6.39383 -14.18024,-9.59081 -23.66797,-9.59094 -9.59101,1.3e-4 -17.55767,3.19711 -23.9,9.59094 -6.34245,6.39408 -9.66833,15.62406 -9.97767,27.68998 l 0,0 z m 141.96379,94.67186 0,-160.57091 32.3307,0 0,17.17088 0.6188,0 c 10.0034,-12.68464 23.9257,-19.02703 41.767,-19.02719 11.7565,1.6e-4 22.9459,4.1253 33.5683,12.37541 l -23.3586,27.84467 c -7.0128,-5.25943 -14.1287,-7.8892 -21.3476,-7.88933 -7.9409,1.3e-4 -15.1341,2.65569 -21.5796,7.96667 -6.4456,5.31123 -9.6683,13.8451 -9.6683,25.60163 l 0,96.52817 -32.3307,0 z"
     style="font-size:316.8104248px;font-style:normal;font-variant:normal;font-weight:normal;font-stretch:normal;text-align:center;line-height:100%;letter-spacing:8px;writing-mode:lr-tb;text-anchor:middle;fill:#000000;fill-opacity:1;stroke:none;font-family:DIN 1451 Mittelschrift"
     id="text2030"
     inkscape:connector-curvature="0" />
  <g
     transform="translate(-5.03425,-5.1439033)"
     style="fill:#000000"
     id="g2049">
    <path
       d="m 147.82635,624.7954 0,-97.53919 14.79489,0 0,50.27586 0.33473,0 40.10019,-50.27586 17.60659,0 -31.26342,38.4935 34.54374,59.04569 -17.53965,0 -26.6442,-47.665 -17.13798,17.94132 0,29.72368 -14.79489,0 z m 89.28822,0 0,-69.48914 13.99155,0 0,7.43092 0.26778,0 c 4.3291,-5.48944 10.35416,-8.2342 18.07521,-8.23427 5.08779,7e-5 9.93016,1.78528 14.52712,5.35562 l -10.10873,12.05014 c -3.0349,-2.27608 -6.11437,-3.41415 -9.23844,-3.4142 -3.43656,5e-5 -6.54951,1.14928 -9.33886,3.44767 -2.78941,2.29851 -4.1841,5.99165 -4.18408,11.07944 l 0,41.77382 -13.99155,0 z m 111.11236,-29.4559 -43.24662,0 c -2e-5,5.71268 1.55088,9.99717 4.6527,12.85348 3.10176,2.85635 7.06269,4.28451 11.88277,4.2845 5.75725,10e-6 10.84508,-2.23149 15.26351,-6.69452 l 10.10873,8.63593 c -3.43658,4.01672 -7.30824,6.8842 -11.61499,8.60246 -4.30686,1.71826 -8.80334,2.57739 -13.48947,2.57739 -7.14085,0 -14.05852,-2.30961 -20.75302,-6.92883 -6.69453,-4.61921 -10.04178,-14.06963 -10.04178,-28.3513 0,-13.52289 3.09063,-22.8729 9.27191,-28.05005 6.18126,-5.17703 12.64147,-7.76558 19.38065,-7.76565 7.63171,7e-5 14.30391,2.64441 20.01662,7.93301 5.7126,5.28873 8.56893,12.41839 8.56899,21.389 l 0,11.51458 z m -43.24662,-11.51458 29.32201,0 c -0.2232,-5.22168 -1.69599,-9.21607 -4.41838,-11.98319 -2.72248,-2.76702 -6.13669,-4.15055 -10.24262,-4.15061 -4.15064,6e-5 -7.59831,1.38359 -10.34304,4.15061 -2.74478,2.76712 -4.1841,6.76151 -4.31797,11.98319 l 0,0 z m 62.37624,40.97048 0,-69.48914 13.99155,0 0,69.48914 -13.99155,0 z m 0,-83.54764 0,-13.99155 13.99155,0 0,13.99155 -13.99155,0 z m 28.83668,71.96612 9.77401,-9.64012 c 6.06968,5.93583 13.3667,8.90373 21.89109,8.90372 3.97204,10e-6 7.25235,-0.74754 9.84094,-2.24267 2.58851,-1.49509 3.88278,-3.71544 3.88283,-6.66105 -5e-5,-4.06131 -2.83406,-6.33745 -8.50205,-6.82841 l -12.31792,-1.13807 c -5.75731,-0.44627 -10.53273,-2.34305 -14.32628,-5.69034 -3.79357,-3.34723 -5.69035,-8.01107 -5.69034,-13.99155 -1e-5,-7.05151 2.47696,-12.38481 7.43092,-15.99991 4.95393,-3.61498 11.11288,-5.4225 18.47688,-5.42257 6.06966,7e-5 11.26907,0.8592 15.59824,2.57739 4.32907,1.71833 8.21189,4.00562 11.64847,6.86189 l -8.63594,10.17567 c -2.76711,-1.87441 -5.62344,-3.41415 -8.56898,-4.61922 -2.94563,-1.20495 -6.29289,-1.80746 -10.04179,-1.80752 -4.46304,6e-5 -7.56483,0.79224 -9.30538,2.37656 -1.7406,1.58442 -2.61089,3.58162 -2.61087,5.9916 -2e-5,1.51747 0.64712,2.92332 1.94141,4.21755 1.29425,1.29431 3.70428,2.07534 7.23009,2.34308 l 11.51458,0.80334 c 7.1854,0.49097 12.34018,2.71132 15.46434,6.66105 3.12405,3.9498 4.68611,8.66943 4.68617,14.15892 -6e-5,6.82842 -2.78944,12.09477 -8.36815,15.79907 -5.57882,3.7043 -12.38491,5.55645 -20.4183,5.55645 -11.55923,0 -21.75721,-4.12828 -30.59397,-12.38486 l 0,0 z"
       style="font-size:137.1038208px;font-style:normal;font-variant:normal;font-weight:normal;font-stretch:normal;text-align:center;line-height:100%;letter-spacing:4px;writing-mode:lr-tb;text-anchor:middle;fill:#000000;fill-opacity:1;stroke:none;font-family:DIN 1451 Mittelschrift"
       id="text2035"
       inkscape:connector-curvature="0" />
    <path
       d="m 522.75303,613.07284 9.77373,-11.1126 c 3.65955,2.94553 7.87698,5.31086 12.65229,7.096 4.77527,1.78517 9.7737,2.67775 14.99532,2.67773 6.02485,2e-5 10.75551,-1.24959 14.19199,-3.74883 3.43637,-2.4992 5.15458,-5.77942 5.15464,-9.84067 -6e-5,-7.67614 -4.2398,-12.07208 -12.71924,-13.18784 -2.23149,-0.26774 -4.30673,-0.53551 -6.22573,-0.80332 -1.91908,-0.26774 -4.15053,-0.58014 -6.69434,-0.93721 -8.43489,-1.16031 -14.86144,-4.25086 -19.27969,-9.27166 -4.41827,-5.02069 -6.6274,-11.07906 -6.62739,-18.17512 -10e-6,-8.3009 2.77814,-15.12911 8.33445,-20.48467 5.55628,-5.35537 13.37748,-8.0331 23.46365,-8.0332 6.02485,10e-5 11.69272,0.95962 17.00361,2.87856 5.31078,1.91914 10.19764,4.35141 14.6606,7.29683 l -8.23404,12.18369 c -3.57037,-2.23137 -7.40845,-4.03883 -11.51425,-5.42241 -4.10591,-1.38341 -8.30102,-2.07516 -12.58536,-2.07525 -4.55218,9e-5 -8.41258,1.16044 -11.5812,3.48106 -3.16867,2.32078 -4.753,5.80183 -4.75298,10.44316 -2e-5,2.76706 1.07107,5.35554 3.21328,7.76543 2.14216,2.41002 5.69016,3.99435 10.644,4.75298 1.2942,0.2232 2.85621,0.45751 4.68603,0.70291 1.82975,0.24551 3.9273,0.50213 6.29268,0.76985 9.10424,1.11577 15.83204,4.41831 20.18342,9.90761 4.35125,5.4894 6.52691,11.55893 6.52698,18.2086 -7e-5,8.97043 -3.10178,15.93253 -9.30513,20.88633 -6.20347,4.95381 -14.52676,7.43071 -24.96987,7.43071 -14.68294,0 -27.11207,-4.46289 -37.28745,-13.38867 l 0,0 z m 90.82554,-56.90186 0,-21.08716 13.99116,0 0,21.08716 10.17539,0 0,10.71094 -10.17539,0 0,40.43379 c -2e-5,3.48107 1.65125,5.22159 4.95381,5.22158 l 5.22158,0 0,13.1209 -7.29682,0 c -4.86458,0 -8.89233,-1.47275 -12.08328,-4.41826 -3.19098,-2.9455 -4.78646,-7.16293 -4.78645,-12.6523 l 0,-41.70571 -6.96211,0 0,-10.71094 6.96211,0 z m 95.04297,40.03213 -43.24541,0 c -2e-5,5.71253 1.55083,9.9969 4.65256,12.85313 3.10168,2.85626 7.06249,4.28438 11.88245,4.28437 5.75708,10e-6 10.84477,-2.23143 15.26308,-6.69433 l 10.10845,8.63569 c -3.43648,4.01661 -7.30804,6.88401 -11.61467,8.60222 -4.30674,1.71821 -8.8031,2.57732 -13.48909,2.57732 -7.14065,0 -14.05813,-2.30954 -20.75244,-6.92864 -6.69435,-4.61908 -10.04151,-14.06924 -10.04151,-28.35051 0,-13.52251 3.09055,-22.87226 9.27166,-28.04927 6.18108,-5.17689 12.64111,-7.76536 19.3801,-7.76543 7.6315,7e-5 14.30352,2.64433 20.01607,7.93279 5.71244,5.28858 8.56869,12.41804 8.56875,21.3884 l 0,11.51426 z m -43.24541,-11.51426 29.32119,0 c -0.22319,-5.22153 -1.69595,-9.21582 -4.41826,-11.98286 -2.72241,-2.76694 -6.13652,-4.15043 -10.24234,-4.15049 -4.15052,6e-5 -7.5981,1.38355 -10.34275,4.15049 -2.7447,2.76704 -4.18398,6.76133 -4.31784,11.98286 l 0,0 z m 62.37461,40.96934 0,-69.48721 13.99116,0 0,69.48721 -13.99116,0 z m 0,-83.54532 0,-13.99116 13.99116,0 0,13.99116 -13.99116,0 z m 36.53448,83.54532 0,-69.48721 13.99116,0 0,7.43071 0.26778,0 c 4.32897,-5.48928 10.35387,-8.23396 18.0747,-8.23403 5.40006,7e-5 10.61048,2.053 15.63128,6.15879 5.02069,4.10592 7.53106,10.08619 7.53113,17.94082 l 0,46.19092 -13.99116,0 0,-41.371 c -6e-5,-4.68599 -1.30545,-8.34555 -3.91619,-10.97871 -2.61084,-2.63305 -5.85759,-3.9496 -9.74026,-3.94966 -4.01664,6e-5 -7.33033,1.31661 -9.94109,3.94966 -2.61082,2.63316 -3.91621,6.29272 -3.91619,10.97871 l 0,41.371 -13.99116,0 z m 77.63768,0 0,-97.53648 13.99116,0 0,35.47998 c 2.58845,-2.45452 5.32197,-4.44051 8.20057,-5.95796 2.87853,-1.51731 6.12528,-2.276 9.74025,-2.27607 4.23971,7e-5 7.89927,0.85918 10.97872,2.57732 3.07934,1.71828 5.62318,3.87162 7.63154,6.46003 1.91898,2.49928 3.22437,5.41132 3.91619,8.73611 0.69168,3.32491 1.03755,9.22707 1.03762,17.70652 -7e-5,8.56878 -0.34594,14.53789 -1.03762,17.90735 -0.69182,3.3695 -1.99721,6.28153 -3.91619,8.73611 -2.00836,2.63311 -4.5522,4.78645 -7.63154,6.46004 -3.07945,1.67358 -6.73901,2.51037 -10.97872,2.51037 -7.14065,0 -13.12092,-2.67773 -17.94082,-8.0332 l 0,7.22988 -13.99116,0 z m 27.71455,-56.29937 c -6.56048,6e-5 -10.48782,2.34307 -11.78203,7.02906 -1.29426,4.68608 -1.94138,9.50599 -1.94136,14.45976 -2e-5,5.08773 0.6471,9.97459 1.94136,14.6606 1.29421,4.68605 5.22155,7.02906 11.78203,7.02905 6.56041,10e-6 10.49891,-2.25374 11.81551,-6.76128 1.3165,-4.50749 1.97477,-9.48361 1.97483,-14.92837 -6e-5,-5.3108 -0.65833,-10.21997 -1.97483,-14.72754 -1.3166,-4.50746 -5.2551,-6.76122 -11.81551,-6.76128 l 0,0 z m 47.5132,33.00308 0,-46.19092 13.99117,0 0,41.43794 c -3e-5,4.73069 1.30537,8.40141 3.91618,11.01219 2.61076,2.6108 5.92446,3.91619 9.94109,3.91618 3.88268,10e-6 7.12943,-1.30538 9.74026,-3.91618 2.61074,-2.61078 3.91614,-6.2815 3.91619,-11.01219 l 0,-41.43794 13.99116,0 0,69.48721 -13.99116,0 0,-7.36377 -0.26778,0 c -4.32905,5.44473 -10.30931,8.16709 -17.94082,8.16709 -5.48938,0 -10.74443,-2.04177 -15.76516,-6.12532 -5.02076,-4.08353 -7.53114,-10.07496 -7.53113,-17.97429 l 0,0 z m 77.6377,23.29629 0,-69.48721 13.99115,0 0,7.43071 0.2678,0 c 4.329,-5.48928 10.3539,-8.23396 18.0747,-8.23403 5.0876,7e-5 9.9299,1.78523 14.5267,5.35547 l -10.1084,12.0498 c -3.0349,-2.27601 -6.1142,-3.41405 -9.2382,-3.41411 -3.4365,6e-5 -6.5494,1.14925 -9.3386,3.44759 -2.7894,2.29844 -4.184,5.99147 -4.184,11.07912 l 0,41.77266 -13.99115,0 z m 96.31485,-0.0669 0,-7.16294 c -4.8646,5.35547 -10.8448,8.0332 -17.9408,8.0332 -4.5522,0 -8.3568,-0.90373 -11.4138,-2.7112 -3.0571,-1.80747 -5.3667,-3.71536 -6.9287,-5.72366 -2.0083,-2.58847 -3.3806,-5.33314 -4.117,-8.23404 -0.7364,-2.90086 -1.1046,-9.17121 -1.1046,-18.81108 0,-9.6398 0.3682,-15.91016 1.1046,-18.81109 0.7364,-2.90082 2.1087,-5.66781 4.117,-8.30097 1.562,-1.96361 3.8716,-3.87149 6.9287,-5.72366 3.057,-1.85203 6.8616,-2.77808 11.4138,-2.77815 6.7836,7e-5 12.7638,2.74475 17.9408,8.23403 l 0,-7.43071 13.9912,0 0,67.88057 c -10e-5,10.44316 -3.046,18.14163 -9.1378,23.09546 -6.0919,4.95378 -13.0874,7.43068 -20.9867,7.43071 -4.4629,-3e-5 -8.8366,-1.07112 -13.1209,-3.21328 -4.2844,-2.14221 -7.9663,-4.95383 -11.0457,-8.43486 l 10.8448,-8.6357 c 1.6959,1.69589 3.7154,3.16865 6.0584,4.41827 2.343,1.24959 4.8534,1.8744 7.5311,1.87441 4.6414,-10e-6 8.446,-1.29425 11.4139,-3.88271 2.9678,-2.58849 4.4517,-6.29269 4.4517,-11.1126 l 0,0 z m -27.5137,-34.60972 c 0,5.57864 0.145,9.28284 0.4351,11.1126 0.2901,1.8298 1.0599,3.5257 2.3096,5.08769 0.9372,1.24963 2.3207,2.45461 4.1505,3.61494 1.8297,1.16037 4.1504,1.74054 6.9621,1.74053 2.7223,10e-6 4.9872,-0.58016 6.7947,-1.74053 1.8075,-1.16033 3.2021,-2.36531 4.184,-3.61494 1.2049,-1.56199 1.9525,-3.25789 2.2426,-5.08769 0.29,-1.82976 0.4351,-5.53396 0.4351,-11.1126 0,-5.57857 -0.1451,-9.28277 -0.4351,-11.1126 -0.2901,-1.82974 -1.0377,-3.54795 -2.2426,-5.15464 -0.9819,-1.20493 -2.3765,-2.39875 -4.184,-3.58147 -1.8075,-1.18261 -4.0724,-1.77394 -6.7947,-1.774 -2.8117,6e-5 -5.1324,0.59139 -6.9621,1.774 -1.8298,1.18272 -3.2133,2.37654 -4.1505,3.58147 -1.2497,1.60669 -2.0195,3.3249 -2.3096,5.15464 -0.2901,1.82983 -0.4351,5.53403 -0.4351,11.1126 l 0,0 z"
       style="font-size:137.1000061px;font-style:normal;font-variant:normal;font-weight:normal;font-stretch:normal;text-align:center;line-height:100%;letter-spacing:4px;writing-mode:lr-tb;text-anchor:middle;fill:#000000;fill-opacity:1;stroke:none;font-family:DIN 1451 Mittelschrift"
       id="text2043"
       inkscape:connector-curvature="0" />
  </g>
  <path
     d="M 25.60517,54.936606 25.298497,770.68474 c 0,18.04523 12.901937,33.32816 37.74786,33.32816 l 1125.634843,0 c 15.9865,0 28.1274,-14.00803 28.1274,-35.43578 l 0.442,-707.858822 c 0,-25.590657 -13.7493,-35.285041 -37.9368,-35.285041 L 54.883438,25.875227 c -19.318775,0 -29.278268,14.999901 -29.278268,29.061379 z"
     style="fill:none;stroke:#000000;stroke-width:18;stroke-linecap:butt;stroke-linejoin:miter;stroke-miterlimit:4;stroke-opacity:1;stroke-dasharray:none"
     id="path2057"
     inkscape:connector-curvature="0" />
</svg>
