<?xml version="1.0" encoding="UTF-8" standalone="no"?>
<!DOCTYPE svg PUBLIC "-//W3C//DTD SVG 1.0//EN" "http://www.w3.org/TR/2001/REC-SVG-20010904/DTD/svg10.dtd">
<svg
   xmlns:svg="http://www.w3.org/2000/svg"
   xmlns="http://www.w3.org/2000/svg"
   version="1.0"
   width="106.29932"
   height="106.29932"
   id="svg1949">
  <defs
     id="defs1951" />
  <g
     transform="translate(-298.2789,-390.6411)"
     id="layer1">
    <g
       transform="matrix(1.249992,0,0,-1.249992,-19.21906,974.8249)"
       style="font-style:normal;font-variant:normal;font-weight:normal;font-stretch:normal;letter-spacing:normal;word-spacing:normal;text-anchor:start;fill:none;fill-opacity:1;stroke:black;stroke-linecap:butt;stroke-linejoin:miter;stroke-miterlimit:10.43299961;stroke-dasharray:none;stroke-dashoffset:0;stroke-opacity:1"
       id="g10"
       xml:space="preserve">
<path
   d="M 296.52,467.35 L 298.71,467.3 L 300.87,467.13 L 303,466.86 L 305.09,466.49 L 307.15,466.01 L 309.17,465.44 L 311.14,464.77 L 313.07,464.01 L 314.96,463.16 L 316.79,462.22 L 318.57,461.2 L 320.3,460.09 L 321.96,458.9 L 323.57,457.64 L 325.11,456.3 L 326.59,454.9 L 328,453.42 L 329.33,451.88 L 330.6,450.27 L 331.78,448.6 L 332.89,446.88 L 333.91,445.1 L 334.85,443.26 L 335.7,441.38 L 336.46,439.45 L 337.13,437.47 L 337.7,435.45 L 338.18,433.4 L 338.55,431.3 L 338.82,429.18 L 338.99,427.02 L 339.04,424.83 C 339.04,401.35 320.01,382.31 296.52,382.31 C 273.04,382.31 254,401.35 254,424.83 C 254,448.31 273.04,467.35 296.52,467.35 z "
   style="fill:#ff1721;fill-rule:nonzero;stroke:#ff1721;stroke-width:0"
   id="path12" />
<path
   d="M 296.52,453.18 L 297.24,453.17 L 297.96,453.14 L 298.67,453.1 L 299.38,453.04 L 300.08,452.96 L 300.78,452.86 L 301.48,452.75 L 302.17,452.62 L 302.86,452.47 L 303.54,452.31 L 304.22,452.13 L 304.89,451.93 L 305.56,451.71 L 306.23,451.47 L 306.89,451.22 L 307.55,450.95 C 310.94,449.52 313.95,447.5 316.57,444.88 C 319.19,442.25 321.21,439.25 322.65,435.86 C 324.13,432.36 324.87,428.68 324.87,424.83 C 324.87,420.98 324.13,417.3 322.65,413.8 C 321.21,410.41 319.19,407.41 316.57,404.79 C 313.95,402.17 310.94,400.14 307.55,398.71 C 304.05,397.23 300.38,396.48 296.52,396.48 C 292.67,396.48 289,397.23 285.49,398.71 C 282.11,400.14 279.1,402.17 276.48,404.79 C 273.86,407.41 271.83,410.41 270.4,413.8 C 268.92,417.3 268.18,420.98 268.18,424.83 C 268.18,428.68 268.92,432.36 270.4,435.86 C 271.83,439.25 273.86,442.25 276.48,444.88 C 279.1,447.5 282.11,449.52 285.49,450.95 C 289,452.44 292.67,453.18 296.52,453.18 z "
   style="fill:white;fill-rule:nonzero;stroke:white;stroke-width:0"
   id="path14" />
</g>  </g>
</svg>
