<?xml version="1.0" encoding="UTF-8" standalone="no"?>
<!DOCTYPE svg PUBLIC "-//W3C//DTD SVG 1.0//EN" "http://www.w3.org/TR/2001/REC-SVG-20010904/DTD/svg10.dtd">
<svg
   xmlns:svg="http://www.w3.org/2000/svg"
   xmlns="http://www.w3.org/2000/svg"
   version="1.0"
   width="150.39304"
   height="131.88977"
   id="svg1905">
  <defs
     id="defs1907" />
  <g
     transform="translate(-256.2321,-377.8459)"
     id="layer1">
    <g
       transform="matrix(1.249992,0,0,-1.249992,-45.31369,985.3201)"
       style="font-style:normal;font-variant:normal;font-weight:normal;font-stretch:normal;letter-spacing:normal;word-spacing:normal;text-anchor:start;fill:none;fill-opacity:1;stroke:black;stroke-linecap:butt;stroke-linejoin:miter;stroke-miterlimit:10.43299961;stroke-dasharray:none;stroke-dashoffset:0;stroke-opacity:1"
       id="g10"
       xml:space="preserve">
<path
   d="M 246.21,380.47 L 356.59,380.47 L 356.59,380.47 C 360.41,380.47 362.79,384.61 360.88,387.91 L 360.88,387.91 L 305.69,483.5 L 305.69,483.5 C 303.79,486.81 299.01,486.81 297.1,483.5 L 297.1,483.5 L 241.91,387.91 L 241.91,387.91 C 240,384.61 242.39,380.47 246.21,380.47 z "
   style="fill:#ff1721;fill-rule:nonzero;stroke:#ff1721;stroke-width:0"
   id="path12" />
<polygon
   points="254.8,390.39 348,390.39 301.4,471.1 254.8,390.39 "
   style="fill:white;fill-rule:nonzero;stroke:white;stroke-width:0"
   id="polygon14" />
<path
   d="M 339.18,397.63 L 339.11,397.64 L 339.04,397.65 L 338.97,397.66 L 338.9,397.68 L 338.76,397.71 L 338.61,397.76 L 338.47,397.8 L 338.32,397.86 L 338.17,397.91 L 338.03,397.98 L 337.88,398.04 L 337.74,398.12 L 337.61,398.19 L 337.54,398.23 L 337.48,398.28 L 337.41,398.32 L 337.35,398.36 L 337.29,398.41 L 337.24,398.45 L 337.18,398.5 L 337.13,398.54 L 337.08,398.59 L 337.03,398.64 C 336.56,399.12 336.15,399.7 335.93,400.34 C 335.87,400.51 335.8,400.78 335.77,400.96 L 334.73,403.79 C 334.62,404.06 334.45,404.31 334.23,404.52 C 333.75,404.98 332.75,405.27 332.25,405.72 L 331.13,407.26 C 331.04,407.41 330.65,408 330.5,408.1 C 330.05,408.4 329.05,408.55 328.61,408.88 C 327.93,409.36 327.35,410.38 326.79,411.05 C 326.35,411.56 325.81,412 325.24,412.35 C 324.57,412.77 323.87,413.27 323.11,413.5 C 322.8,413.61 322.45,413.61 322.11,413.58 C 321.24,413.5 319.77,413.43 319.06,412.89 L 318.01,411.14 C 317.57,410.27 316.8,409.29 316.06,408.63 C 315.93,408.52 315.77,408.32 315.65,408.19 C 315.16,408.37 314.65,408.61 314.22,408.88 C 313.8,409.14 313.36,409.46 312.96,409.76 C 312.48,410.14 311.97,410.61 311.54,411.05 L 310.56,412.11 C 310.19,412.47 309.75,412.78 309.31,413.07 L 303,417.2 C 303.14,417.59 303.39,418.14 303.57,418.48 C 303.73,418.79 303.99,419.37 304.11,419.66 C 304.23,419.97 304.35,420.29 304.46,420.61 L 305.73,423.93 C 305.92,424.3 306.12,424.66 306.34,425.01 C 306.57,425.39 306.88,425.84 307.13,426.18 C 307.3,426.53 307.96,427.28 308.18,427.59 C 308.54,428.13 308.79,428.76 308.93,429.4 C 309.08,430.13 308.98,430.92 308.77,431.63 C 308.63,432.2 308.4,432.76 308.16,433.29 C 308.05,433.55 307.91,433.84 307.79,434.1 L 307.48,434.75 C 307.54,434.8 307.62,434.89 307.68,434.91 C 307.79,434.96 308.13,435.32 308.24,435.29 C 308.53,435.2 308.64,434.57 308.94,434.63 L 309.5,434.89 C 309.61,434.97 309.69,434.96 310.01,435.16 C 310.24,435.3 310.78,435.09 311.12,435.36 C 311.23,435.44 311.54,435.31 311.62,435.39 C 311.75,435.52 312.29,436.11 312.48,436.23 L 313.02,436.52 L 313.45,436.89 C 313.52,436.98 313.93,437.2 314.01,437.27 C 314.31,437.54 314.52,437.77 314.59,438.08 C 314.68,438.42 314.7,438.79 314.69,439.14 C 314.68,439.62 314.57,440.11 314.35,440.53 C 314.11,440.98 313.78,441.39 313.39,441.72 C 312.95,442.12 312.36,442.36 311.81,442.6 C 311.16,442.88 310.14,442.93 309.18,442.64 C 308.8,442.52 308.54,442.34 308.18,442.02 C 307.8,441.68 307.5,441.2 307.33,440.77 C 307.1,440.24 306.93,439.62 306.62,439.13 C 306.43,438.84 306.11,438.64 305.79,438.5 C 305.7,438.46 305.59,438.41 305.49,438.38 C 305.31,438.54 305.05,438.8 304.88,438.95 C 304.62,439.23 304.32,439.57 304.02,439.78 C 303.58,440.07 302.96,440.22 302.43,440.29 C 301.63,440.39 300.84,440.43 300.03,440.41 C 299.14,440.39 298.26,440.35 297.37,440.28 C 296.61,440.22 295.83,440.15 295.07,440.08 C 294.15,439.99 292.8,439.75 291.9,439.63 C 291.4,439.56 290.56,439.41 290.12,439.17 C 289.87,439.04 289.62,438.74 289.45,438.51 C 289.08,438 288.73,437.4 288.55,436.83 L 286.9,431.28 C 286.75,430.78 286.63,430.03 286.67,429.46 C 286.68,429.29 286.86,428.91 286.92,428.75 C 286.68,428.66 286.25,428.29 286.2,428.32 L 285.44,428.77 C 285.2,428.91 284.9,428.87 284.72,428.66 C 284.5,428.4 284.55,428.01 284.83,427.82 L 285.73,427.12 C 285.76,427.09 285.5,426.84 285.68,426.71 C 286.32,426.2 286.44,426.02 287.18,425.77 C 287.19,425.76 286.91,425.1 286.89,425.05 C 286.65,424.52 286.43,423.87 286.28,423.31 C 286.11,422.73 286.01,422.1 286.03,421.49 L 286.66,418.13 C 286.87,417.22 287.07,416.13 287.19,415.18 C 287.23,414.83 287.27,414.47 287.3,414.11 C 287.32,413.7 287.35,413.3 287.36,412.9 C 287.39,411.93 287.38,410.92 287.34,409.95 C 287.32,409.36 287.28,408.62 287.2,408.03 L 286.14,399.5 L 286.5,398.32 C 286.33,398.32 286.07,398.32 285.91,398.36 C 285.68,398.39 285.35,398.52 285.12,398.59 L 283.28,398.46 C 282.81,398.34 282.57,398.32 282.23,398.29 C 281.58,398.23 280.94,398.46 280.27,398.57 C 279.88,398.67 279.2,398.42 278.93,398.71 L 277.87,400.67 C 277.78,400.95 277.55,401.19 277.32,401.37 L 276.55,401.89 L 275.68,402.62 C 275.54,402.82 275.42,403.21 275.31,403.43 C 275.2,403.67 275.02,403.89 274.79,404.02 C 274.26,404.31 273.4,404.37 272.85,404.61 C 272.71,404.67 272.37,404.81 272.22,404.8 C 271.95,404.78 271.5,404.45 271.29,404.28 C 270.7,403.84 269.75,403.24 269.25,402.7 C 268.86,402.29 268.6,401.71 268.43,401.17 C 268.32,400.82 268.17,400.22 268,399.87 C 267.73,399.31 267.24,398.8 266.76,398.39 C 266.6,398.27 266.16,398.08 265.99,397.97 L 263.36,397.88 L 263.38,396.06 L 339.19,396.07 L 339.18,397.63 z "
   style="fill:black;fill-rule:nonzero;stroke-width:0"
   id="path16" />
<path
   d="M 299.69,423.46 L 299.7,423.52 L 299.71,423.57 L 299.72,423.68 L 299.73,423.79 L 299.74,423.9 L 299.75,424.01 L 299.76,424.13 L 299.77,424.25 L 299.78,424.36 L 299.79,424.48 L 299.8,424.59 L 299.82,424.71 L 299.83,424.76 L 299.84,424.82 L 299.85,424.87 L 299.86,424.93 L 299.88,424.98 L 299.89,425.03 L 299.91,425.08 L 299.93,425.13 L 299.95,425.18 L 299.98,425.23 C 300.09,425.45 300.27,425.65 300.46,425.82 L 302.82,427.62 C 302.96,427.73 303.2,428 303.34,428.11 L 302.61,426.59 C 302.17,425.95 301.92,425.11 301.75,424.36 L 301.48,423.08 C 301.38,422.6 301.29,421.82 301.17,421.32 C 301.1,421 301.05,420.58 301.02,420.25 L 299.5,422.86 C 299.57,423.02 299.66,423.29 299.69,423.46 z "
   style="fill:black;fill-rule:nonzero;stroke-width:0"
   id="path18" />
<path
   d="M 290.4,431.07 L 290.45,431.16 L 290.49,431.24 L 290.53,431.33 L 290.56,431.41 L 290.59,431.5 L 290.62,431.58 L 290.65,431.67 L 290.68,431.75 L 290.72,431.92 L 290.77,432.09 L 290.8,432.25 L 290.84,432.42 L 290.87,432.58 L 290.91,432.74 L 290.94,432.9 L 290.98,433.05 L 291.03,433.2 L 291.06,433.28 L 291.08,433.35 L 291.11,433.43 L 291.15,433.5 L 291.18,433.57 L 291.22,433.64 L 292.46,435.82 L 296.44,435.91 L 294.77,434.46 L 292.04,431.86 L 290.25,430.15 C 290.25,430.39 290.29,430.86 290.4,431.07 z "
   style="fill:black;fill-rule:nonzero;stroke-width:0"
   id="path20" />
<polygon
   points="294.18,397.84 294.15,398.65 295,398.28 295.7,398.57 296.05,398.07 294.18,397.84 "
   style="fill:black;fill-rule:nonzero;stroke-width:0"
   id="polygon22" />
<path
   d="M 295.4,405.9 L 294.12,402.91 C 293.84,402.32 294.63,402.34 294.45,401.9 C 294.24,401.41 293.62,400.88 293.42,400.4 C 293.34,400.22 293.15,399.32 293.24,399.17 C 293.28,399.1 291.67,399.67 291.18,399.79 C 291.29,399.91 291.43,400.08 291.5,400.23 C 291.64,400.52 291.58,401.06 291.62,401.36 L 292.91,406.75 L 293.53,409.19 L 293.96,410.75 C 294.06,411.09 294.16,411.44 294.21,411.78 C 294.38,412.84 294.27,414.28 294.27,415.36 C 294.27,415.98 294.27,416.86 294.21,417.47 C 294.2,417.72 294.18,417.98 294.15,418.23 C 294.31,418.12 294.49,417.98 294.64,417.86 C 295.02,417.57 295.31,417.13 295.61,416.76 L 297.79,414.07 C 297.96,413.86 298.36,413.35 298.39,413.05 C 298.46,412.48 297.75,411.18 297.53,410.71 L 295.4,405.9 z "
   style="fill:black;fill-rule:nonzero;stroke-width:0"
   id="path24" />
<path
   d="M 311.17,404.3 L 311.15,404.28 L 311.13,404.25 L 311.12,404.23 L 311.1,404.21 L 311.09,404.18 L 311.08,404.16 L 311.07,404.13 L 311.06,404.1 L 311.05,404.07 L 311.05,404.04 L 311.04,404.02 L 311.04,403.99 L 311.03,403.96 L 311.03,403.93 L 311.03,403.87 L 311.03,403.8 L 311.03,403.74 L 311.02,403.68 L 311.02,403.62 L 311.02,403.59 L 311.02,403.57 L 311.01,403.54 L 311.01,403.51 L 311.01,403.48 L 311,403.46 L 310.99,403.43 L 310.98,403.41 C 310.95,403.32 310.87,403.19 310.82,403.11 C 310.5,402.6 310.77,401.59 310.54,401.06 C 310.39,400.7 309.89,400.41 309.56,400.2 L 308.11,399.35 C 307.7,399.12 307.21,398.8 306.78,398.63 C 306.46,398.51 305.94,398.41 305.61,398.34 L 303.84,398.01 L 301.08,397.95 C 301.09,398.28 301.13,398.73 300.95,399 C 300.78,399.22 300.35,399.41 300.09,399.51 L 298.73,400.15 C 298.65,400.18 298.44,400.27 298.38,400.33 C 298.29,400.45 298.26,400.7 298.26,400.85 C 298.48,400.83 298.92,400.82 299.09,400.96 C 299.22,401.07 299.31,401.42 299.35,401.59 C 299.49,402.2 299.81,402.77 300.1,403.33 C 300.37,403.87 300.7,404.61 300.95,405.18 L 302.68,408.72 L 303.92,411.18 C 304.18,411.7 304.61,412.43 304.68,413.02 C 304.75,413.54 304.53,414.14 304.34,414.67 L 305.22,414.1 L 309.43,411.22 C 309.7,411.02 309.93,410.79 310.12,410.52 C 310.53,409.98 311.09,409.3 311.48,408.7 L 313.75,406.61 C 313.8,406.56 312.84,405.84 311.17,404.3 z "
   style="fill:black;fill-rule:nonzero;stroke-width:0"
   id="path26" />
<polygon
   points="295,398.28 294.15,398.65 294.18,397.84 296.05,398.07 295.7,398.57 295,398.28 "
   style="fill:white;fill-rule:nonzero;stroke:white;stroke-width:0"
   id="polygon28" />
<path
   d="M 311.48,408.7 L 311.4,408.82 L 311.32,408.93 L 311.24,409.05 L 311.16,409.16 L 311.07,409.28 L 310.99,409.4 L 310.81,409.63 L 310.63,409.87 L 310.54,409.98 L 310.45,410.09 L 310.37,410.2 L 310.28,410.31 L 310.2,410.42 L 310.12,410.52 C 309.93,410.79 309.7,411.02 309.43,411.22 L 305.22,414.1 L 304.34,414.67 C 304.53,414.14 304.75,413.54 304.68,413.02 C 304.61,412.43 304.18,411.7 303.92,411.18 L 302.68,408.72 L 300.95,405.18 C 300.7,404.61 300.37,403.87 300.1,403.33 C 299.81,402.77 299.49,402.2 299.35,401.59 C 299.31,401.42 299.22,401.07 299.09,400.96 C 298.92,400.82 298.48,400.83 298.26,400.85 C 298.26,400.7 298.29,400.45 298.38,400.33 C 298.44,400.27 298.65,400.18 298.73,400.15 L 300.09,399.51 C 300.35,399.41 300.78,399.22 300.95,399 C 301.13,398.73 301.09,398.28 301.08,397.95 L 303.84,398.01 L 305.61,398.34 C 305.94,398.41 306.46,398.51 306.78,398.63 C 307.21,398.8 307.7,399.12 308.11,399.35 L 309.56,400.2 C 309.89,400.41 310.39,400.7 310.54,401.06 C 310.77,401.59 310.5,402.6 310.82,403.11 C 310.87,403.19 310.95,403.32 310.98,403.41 C 311.08,403.66 310.94,404.08 311.17,404.3 C 312.84,405.84 313.8,406.56 313.75,406.61 L 311.48,408.7 z "
   style="fill:white;fill-rule:nonzero;stroke:white;stroke-width:0"
   id="path30" />
<path
   d="M 298.39,413.05 L 298.39,413.08 L 298.38,413.11 L 298.37,413.14 L 298.36,413.17 L 298.35,413.21 L 298.34,413.24 L 298.32,413.27 L 298.31,413.31 L 298.29,413.34 L 298.27,413.38 L 298.25,413.41 L 298.23,413.45 L 298.19,413.52 L 298.14,413.59 L 298.09,413.67 L 298.04,413.74 L 298,413.8 L 297.97,413.83 L 297.95,413.87 L 297.93,413.9 L 297.9,413.92 L 297.88,413.95 L 297.86,413.98 L 297.84,414 L 297.82,414.03 L 297.81,414.05 L 297.79,414.07 L 295.61,416.76 C 295.31,417.13 295.02,417.57 294.64,417.86 C 294.49,417.98 294.31,418.12 294.15,418.23 C 294.18,417.98 294.2,417.72 294.21,417.47 C 294.27,416.86 294.27,415.98 294.27,415.36 C 294.27,414.28 294.38,412.84 294.21,411.78 C 294.16,411.44 294.06,411.09 293.96,410.75 L 293.53,409.19 L 292.91,406.75 L 291.62,401.36 C 291.58,401.06 291.64,400.52 291.5,400.23 C 291.43,400.08 291.29,399.91 291.18,399.79 C 291.67,399.67 293.28,399.1 293.24,399.17 C 293.15,399.32 293.34,400.22 293.42,400.4 C 293.62,400.88 294.24,401.41 294.45,401.9 C 294.63,402.34 293.84,402.32 294.12,402.91 L 295.4,405.9 L 297.53,410.71 C 297.75,411.18 298.46,412.48 298.39,413.05 z "
   style="fill:white;fill-rule:nonzero;stroke:white;stroke-width:0"
   id="path32" />
<path
   d="M 294.77,434.46 L 296.44,435.91 L 292.46,435.82 L 291.22,433.64 C 290.8,432.9 290.89,431.98 290.4,431.07 C 290.29,430.86 290.25,430.39 290.25,430.15 L 292.04,431.86 L 294.77,434.46 z "
   style="fill:white;fill-rule:nonzero;stroke:white;stroke-width:0"
   id="path34" />
<path
   d="M 301.17,421.32 L 301.18,421.37 L 301.19,421.42 L 301.2,421.47 L 301.21,421.52 L 301.23,421.63 L 301.25,421.74 L 301.27,421.85 L 301.29,421.97 L 301.31,422.09 L 301.33,422.21 L 301.35,422.32 L 301.37,422.44 L 301.39,422.56 L 301.4,422.67 L 301.42,422.78 L 301.44,422.89 L 301.45,422.94 L 301.46,422.99 L 301.47,423.04 L 301.48,423.08 L 301.75,424.36 C 301.92,425.11 302.17,425.95 302.61,426.59 L 303.34,428.11 C 303.2,428 302.96,427.73 302.82,427.62 L 300.46,425.82 C 300.27,425.65 300.09,425.45 299.98,425.23 C 299.72,424.73 299.79,424.01 299.69,423.46 C 299.66,423.29 299.57,423.02 299.5,422.86 L 301.02,420.25 C 301.05,420.58 301.1,421 301.17,421.32 z "
   style="fill:white;fill-rule:nonzero;stroke:white;stroke-width:0"
   id="path36" />
</g>  </g>
</svg>
