<?xml version="1.0" encoding="UTF-8" standalone="no"?>
<svg
   xmlns:dc="http://purl.org/dc/elements/1.1/"
   xmlns:cc="http://creativecommons.org/ns#"
   xmlns:rdf="http://www.w3.org/1999/02/22-rdf-syntax-ns#"
   xmlns:svg="http://www.w3.org/2000/svg"
   xmlns="http://www.w3.org/2000/svg"
   xmlns:sodipodi="http://sodipodi.sourceforge.net/DTD/sodipodi-0.dtd"
   xmlns:inkscape="http://www.inkscape.org/namespaces/inkscape"
   version="1.0"
   width="150.39"
   height="150.39"
   id="svg1905"
   inkscape:version="0.48.4 r9939"
   sodipodi:docname="construction.svg">
  <metadata
     id="metadata3747">
    <rdf:RDF>
      <cc:Work
         rdf:about="">
        <dc:format>image/svg+xml</dc:format>
        <dc:type
           rdf:resource="http://purl.org/dc/dcmitype/StillImage" />
      </cc:Work>
    </rdf:RDF>
  </metadata>
  <sodipodi:namedview
     pagecolor="#ffffff"
     bordercolor="#666666"
     borderopacity="1"
     objecttolerance="10"
     gridtolerance="10"
     guidetolerance="10"
     inkscape:pageopacity="0"
     inkscape:pageshadow="2"
     inkscape:window-width="640"
     inkscape:window-height="480"
     id="namedview3745"
     showgrid="false"
     inkscape:zoom="1.789373"
     inkscape:cx="8.4133503"
     inkscape:cy="65.944885"
     inkscape:window-x="0"
     inkscape:window-y="0"
     inkscape:window-maximized="0"
     inkscape:current-layer="svg1905" />
  <defs
     id="defs1907" />
  <g
     transform="translate(-256.2321,-368.59575)"
     id="layer1">
    <g
       transform="matrix(1.249992,0,0,-1.249992,-45.31369,985.3201)"
       style="font-style:normal;font-variant:normal;font-weight:normal;font-stretch:normal;letter-spacing:normal;word-spacing:normal;text-anchor:start;fill:none;stroke:#000000;stroke-linecap:butt;stroke-linejoin:miter;stroke-miterlimit:10.43299961;stroke-opacity:1;stroke-dasharray:none;stroke-dashoffset:0"
       id="g10"
       xml:space="preserve">
<path
   d="m 246.21,380.47 110.38,0 0,0 c 3.82,0 6.2,4.14 4.29,7.44 l 0,0 -55.19,95.59 0,0 c -1.9,3.31 -6.68,3.31 -8.59,0 l 0,0 -55.19,-95.59 0,0 c -1.91,-3.3 0.48,-7.44 4.3,-7.44 z"
   style="fill:#ff1721;fill-rule:nonzero;stroke:#ff1721;stroke-width:0"
   id="path12"
   inkscape:connector-curvature="0" />
<polygon
   points="254.8,390.39 254.8,390.39 348,390.39 301.4,471.1 "
   style="fill:#ffffff;fill-rule:nonzero;stroke:#ffffff;stroke-width:0"
   id="polygon14" />
<path
   d="m 339.18,397.63 -0.07,0.01 -0.07,0.01 -0.07,0.01 -0.07,0.02 -0.14,0.03 -0.15,0.05 -0.14,0.04 -0.15,0.06 -0.15,0.05 -0.14,0.07 -0.15,0.06 -0.14,0.08 -0.13,0.07 -0.07,0.04 -0.06,0.05 -0.07,0.04 -0.06,0.04 -0.06,0.05 -0.05,0.04 -0.06,0.05 -0.05,0.04 -0.05,0.05 -0.05,0.05 c -0.47,0.48 -0.88,1.06 -1.1,1.7 -0.06,0.17 -0.13,0.44 -0.16,0.62 l -1.04,2.83 c -0.11,0.27 -0.28,0.52 -0.5,0.73 -0.48,0.46 -1.48,0.75 -1.98,1.2 l -1.12,1.54 c -0.09,0.15 -0.48,0.74 -0.63,0.84 -0.45,0.3 -1.45,0.45 -1.89,0.78 -0.68,0.48 -1.26,1.5 -1.82,2.17 -0.44,0.51 -0.98,0.95 -1.55,1.3 -0.67,0.42 -1.37,0.92 -2.13,1.15 -0.31,0.11 -0.66,0.11 -1,0.08 -0.87,-0.08 -2.34,-0.15 -3.05,-0.69 l -1.05,-1.75 c -0.44,-0.87 -1.21,-1.85 -1.95,-2.51 -0.13,-0.11 -0.29,-0.31 -0.41,-0.44 -0.49,0.18 -1,0.42 -1.43,0.69 -0.42,0.26 -0.86,0.58 -1.26,0.88 -0.48,0.38 -0.99,0.85 -1.42,1.29 l -0.98,1.06 c -0.37,0.36 -0.81,0.67 -1.25,0.96 L 303,417.2 c 0.14,0.39 0.39,0.94 0.57,1.28 0.16,0.31 0.42,0.89 0.54,1.18 0.12,0.31 0.24,0.63 0.35,0.95 l 1.27,3.32 c 0.19,0.37 0.39,0.73 0.61,1.08 0.23,0.38 0.54,0.83 0.79,1.17 0.17,0.35 0.83,1.1 1.05,1.41 0.36,0.54 0.61,1.17 0.75,1.81 0.15,0.73 0.05,1.52 -0.16,2.23 -0.14,0.57 -0.37,1.13 -0.61,1.66 -0.11,0.26 -0.25,0.55 -0.37,0.81 l -0.31,0.65 c 0.06,0.05 0.14,0.14 0.2,0.16 0.11,0.05 0.45,0.41 0.56,0.38 0.29,-0.09 0.4,-0.72 0.7,-0.66 l 0.56,0.26 c 0.11,0.08 0.19,0.07 0.51,0.27 0.23,0.14 0.77,-0.07 1.11,0.2 0.11,0.08 0.42,-0.05 0.5,0.03 0.13,0.13 0.67,0.72 0.86,0.84 l 0.54,0.29 0.43,0.37 c 0.07,0.09 0.48,0.31 0.56,0.38 0.3,0.27 0.51,0.5 0.58,0.81 0.09,0.34 0.11,0.71 0.1,1.06 -0.01,0.48 -0.12,0.97 -0.34,1.39 -0.24,0.45 -0.57,0.86 -0.96,1.19 -0.44,0.4 -1.03,0.64 -1.58,0.88 -0.65,0.28 -1.67,0.33 -2.63,0.04 -0.38,-0.12 -0.64,-0.3 -1,-0.62 -0.38,-0.34 -0.68,-0.82 -0.85,-1.25 -0.23,-0.53 -0.4,-1.15 -0.71,-1.64 -0.19,-0.29 -0.51,-0.49 -0.83,-0.63 -0.09,-0.04 -0.2,-0.09 -0.3,-0.12 -0.18,0.16 -0.44,0.42 -0.61,0.57 -0.26,0.28 -0.56,0.62 -0.86,0.83 -0.44,0.29 -1.06,0.44 -1.59,0.51 -0.8,0.1 -1.59,0.14 -2.4,0.12 -0.89,-0.02 -1.77,-0.06 -2.66,-0.13 -0.76,-0.06 -1.54,-0.13 -2.3,-0.2 -0.92,-0.09 -2.27,-0.33 -3.17,-0.45 -0.5,-0.07 -1.34,-0.22 -1.78,-0.46 -0.25,-0.13 -0.5,-0.43 -0.67,-0.66 -0.37,-0.51 -0.72,-1.11 -0.9,-1.68 l -1.65,-5.55 c -0.15,-0.5 -0.27,-1.25 -0.23,-1.82 0.01,-0.17 0.19,-0.55 0.25,-0.71 -0.24,-0.09 -0.67,-0.46 -0.72,-0.43 l -0.76,0.45 c -0.24,0.14 -0.54,0.1 -0.72,-0.11 -0.22,-0.26 -0.17,-0.65 0.11,-0.84 l 0.9,-0.7 c 0.03,-0.03 -0.23,-0.28 -0.05,-0.41 0.64,-0.51 0.76,-0.69 1.5,-0.94 0.01,-0.01 -0.27,-0.67 -0.29,-0.72 -0.24,-0.53 -0.46,-1.18 -0.61,-1.74 -0.17,-0.58 -0.27,-1.21 -0.25,-1.82 l 0.63,-3.36 c 0.21,-0.91 0.41,-2 0.53,-2.95 0.04,-0.35 0.08,-0.71 0.11,-1.07 0.02,-0.41 0.05,-0.81 0.06,-1.21 0.03,-0.97 0.02,-1.98 -0.02,-2.95 -0.02,-0.59 -0.06,-1.33 -0.14,-1.92 l -1.06,-8.53 0.36,-1.18 c -0.17,0 -0.43,0 -0.59,0.04 -0.23,0.03 -0.56,0.16 -0.79,0.23 l -1.84,-0.13 c -0.47,-0.12 -0.71,-0.14 -1.05,-0.17 -0.65,-0.06 -1.29,0.17 -1.96,0.28 -0.39,0.1 -1.07,-0.15 -1.34,0.14 l -1.06,1.96 c -0.09,0.28 -0.32,0.52 -0.55,0.7 l -0.77,0.52 -0.87,0.73 c -0.14,0.2 -0.26,0.59 -0.37,0.81 -0.11,0.24 -0.29,0.46 -0.52,0.59 -0.53,0.29 -1.39,0.35 -1.94,0.59 -0.14,0.06 -0.48,0.2 -0.63,0.19 -0.27,-0.02 -0.72,-0.35 -0.93,-0.52 -0.59,-0.44 -1.54,-1.04 -2.04,-1.58 -0.39,-0.41 -0.65,-0.99 -0.82,-1.53 -0.11,-0.35 -0.26,-0.95 -0.43,-1.3 -0.27,-0.56 -0.76,-1.07 -1.24,-1.48 -0.16,-0.12 -0.6,-0.31 -0.77,-0.42 l -2.63,-0.09 0.02,-1.82 75.81,0.01 -0.01,1.56 z"
   style="fill:#000000;fill-rule:nonzero;stroke-width:0"
   id="path16"
   inkscape:connector-curvature="0" />
<path
   d="m 299.69,423.46 0.01,0.06 0.01,0.05 0.01,0.11 0.01,0.11 0.01,0.11 0.01,0.11 0.01,0.12 0.01,0.12 0.01,0.11 0.01,0.12 0.01,0.11 0.02,0.12 0.01,0.05 0.01,0.06 0.01,0.05 0.01,0.06 0.02,0.05 0.01,0.05 0.02,0.05 0.02,0.05 0.02,0.05 0.03,0.05 c 0.11,0.22 0.29,0.42 0.48,0.59 l 2.36,1.8 c 0.14,0.11 0.38,0.38 0.52,0.49 l -0.73,-1.52 c -0.44,-0.64 -0.69,-1.48 -0.86,-2.23 l -0.27,-1.28 c -0.1,-0.48 -0.19,-1.26 -0.31,-1.76 -0.07,-0.32 -0.12,-0.74 -0.15,-1.07 l -1.52,2.61 c 0.07,0.16 0.16,0.43 0.19,0.6 z"
   style="fill:#000000;fill-rule:nonzero;stroke-width:0"
   id="path18"
   inkscape:connector-curvature="0" />
<path
   d="m 290.4,431.07 0.05,0.09 0.04,0.08 0.04,0.09 0.03,0.08 0.03,0.09 0.03,0.08 0.03,0.09 0.03,0.08 0.04,0.17 0.05,0.17 0.03,0.16 0.04,0.17 0.03,0.16 0.04,0.16 0.03,0.16 0.04,0.15 0.05,0.15 0.03,0.08 0.02,0.07 0.03,0.08 0.04,0.07 0.03,0.07 0.04,0.07 1.24,2.18 3.98,0.09 -1.67,-1.45 -2.73,-2.6 -1.79,-1.71 c 0,0.24 0.04,0.71 0.15,0.92 z"
   style="fill:#000000;fill-rule:nonzero;stroke-width:0"
   id="path20"
   inkscape:connector-curvature="0" />
<polygon
   points="294.15,398.65 295,398.28 295.7,398.57 296.05,398.07 294.18,397.84 294.18,397.84 "
   style="fill:#000000;fill-rule:nonzero;stroke-width:0"
   id="polygon22" />
<path
   d="m 295.4,405.9 -1.28,-2.99 c -0.28,-0.59 0.51,-0.57 0.33,-1.01 -0.21,-0.49 -0.83,-1.02 -1.03,-1.5 -0.08,-0.18 -0.27,-1.08 -0.18,-1.23 0.04,-0.07 -1.57,0.5 -2.06,0.62 0.11,0.12 0.25,0.29 0.32,0.44 0.14,0.29 0.08,0.83 0.12,1.13 l 1.29,5.39 0.62,2.44 0.43,1.56 c 0.1,0.34 0.2,0.69 0.25,1.03 0.17,1.06 0.06,2.5 0.06,3.58 0,0.62 0,1.5 -0.06,2.11 -0.01,0.25 -0.03,0.51 -0.06,0.76 0.16,-0.11 0.34,-0.25 0.49,-0.37 0.38,-0.29 0.67,-0.73 0.97,-1.1 l 2.18,-2.69 c 0.17,-0.21 0.57,-0.72 0.6,-1.02 0.07,-0.57 -0.64,-1.87 -0.86,-2.34 l -2.13,-4.81 z"
   style="fill:#000000;fill-rule:nonzero;stroke-width:0"
   id="path24"
   inkscape:connector-curvature="0" />
<path
   d="m 311.17,404.3 -0.02,-0.02 -0.02,-0.03 -0.01,-0.02 -0.02,-0.02 -0.01,-0.03 -0.01,-0.02 -0.01,-0.03 -0.01,-0.03 -0.01,-0.03 0,-0.03 -0.01,-0.02 0,-0.03 -0.01,-0.03 0,-0.03 0,-0.06 0,-0.07 0,-0.06 -0.01,-0.06 0,-0.06 0,-0.03 0,-0.02 -0.01,-0.03 0,-0.03 0,-0.03 -0.01,-0.02 -0.01,-0.03 -0.01,-0.02 c -0.03,-0.09 -0.11,-0.22 -0.16,-0.3 -0.32,-0.51 -0.05,-1.52 -0.28,-2.05 -0.15,-0.36 -0.65,-0.65 -0.98,-0.86 l -1.45,-0.85 c -0.41,-0.23 -0.9,-0.55 -1.33,-0.72 -0.32,-0.12 -0.84,-0.22 -1.17,-0.29 l -1.77,-0.33 -2.76,-0.06 c 0.01,0.33 0.05,0.78 -0.13,1.05 -0.17,0.22 -0.6,0.41 -0.86,0.51 l -1.36,0.64 c -0.08,0.03 -0.29,0.12 -0.35,0.18 -0.09,0.12 -0.12,0.37 -0.12,0.52 0.22,-0.02 0.66,-0.03 0.83,0.11 0.13,0.11 0.22,0.46 0.26,0.63 0.14,0.61 0.46,1.18 0.75,1.74 0.27,0.54 0.6,1.28 0.85,1.85 l 1.73,3.54 1.24,2.46 c 0.26,0.52 0.69,1.25 0.76,1.84 0.07,0.52 -0.15,1.12 -0.34,1.65 l 0.88,-0.57 4.21,-2.88 c 0.27,-0.2 0.5,-0.43 0.69,-0.7 0.41,-0.54 0.97,-1.22 1.36,-1.82 l 2.27,-2.09 c 0.05,-0.05 -0.91,-0.77 -2.58,-2.31 z"
   style="fill:#000000;fill-rule:nonzero;stroke-width:0"
   id="path26"
   inkscape:connector-curvature="0" />
<polygon
   points="294.15,398.65 294.18,397.84 296.05,398.07 295.7,398.57 295,398.28 295,398.28 "
   style="fill:#ffffff;fill-rule:nonzero;stroke:#ffffff;stroke-width:0"
   id="polygon28" />
<path
   d="m 311.48,408.7 -0.08,0.12 -0.08,0.11 -0.08,0.12 -0.08,0.11 -0.09,0.12 -0.08,0.12 -0.18,0.23 -0.18,0.24 -0.09,0.11 -0.09,0.11 -0.08,0.11 -0.09,0.11 -0.08,0.11 -0.08,0.1 c -0.19,0.27 -0.42,0.5 -0.69,0.7 l -4.21,2.88 -0.88,0.57 c 0.19,-0.53 0.41,-1.13 0.34,-1.65 -0.07,-0.59 -0.5,-1.32 -0.76,-1.84 l -1.24,-2.46 -1.73,-3.54 c -0.25,-0.57 -0.58,-1.31 -0.85,-1.85 -0.29,-0.56 -0.61,-1.13 -0.75,-1.74 -0.04,-0.17 -0.13,-0.52 -0.26,-0.63 -0.17,-0.14 -0.61,-0.13 -0.83,-0.11 0,-0.15 0.03,-0.4 0.12,-0.52 0.06,-0.06 0.27,-0.15 0.35,-0.18 l 1.36,-0.64 c 0.26,-0.1 0.69,-0.29 0.86,-0.51 0.18,-0.27 0.14,-0.72 0.13,-1.05 l 2.76,0.06 1.77,0.33 c 0.33,0.07 0.85,0.17 1.17,0.29 0.43,0.17 0.92,0.49 1.33,0.72 l 1.45,0.85 c 0.33,0.21 0.83,0.5 0.98,0.86 0.23,0.53 -0.04,1.54 0.28,2.05 0.05,0.08 0.13,0.21 0.16,0.3 0.1,0.25 -0.04,0.67 0.19,0.89 1.67,1.54 2.63,2.26 2.58,2.31 l -2.27,2.09 z"
   style="fill:#ffffff;fill-rule:nonzero;stroke:#ffffff;stroke-width:0"
   id="path30"
   inkscape:connector-curvature="0" />
<path
   d="m 298.39,413.05 0,0.03 -0.01,0.03 -0.01,0.03 -0.01,0.03 -0.01,0.04 -0.01,0.03 -0.02,0.03 -0.01,0.04 -0.02,0.03 -0.02,0.04 -0.02,0.03 -0.02,0.04 -0.04,0.07 -0.05,0.07 -0.05,0.08 -0.05,0.07 -0.04,0.06 -0.03,0.03 -0.02,0.04 -0.02,0.03 -0.03,0.02 -0.02,0.03 -0.02,0.03 -0.02,0.02 -0.02,0.03 -0.01,0.02 -0.02,0.02 -2.18,2.69 c -0.3,0.37 -0.59,0.81 -0.97,1.1 -0.15,0.12 -0.33,0.26 -0.49,0.37 0.03,-0.25 0.05,-0.51 0.06,-0.76 0.06,-0.61 0.06,-1.49 0.06,-2.11 0,-1.08 0.11,-2.52 -0.06,-3.58 -0.05,-0.34 -0.15,-0.69 -0.25,-1.03 l -0.43,-1.56 -0.62,-2.44 -1.29,-5.39 c -0.04,-0.3 0.02,-0.84 -0.12,-1.13 -0.07,-0.15 -0.21,-0.32 -0.32,-0.44 0.49,-0.12 2.1,-0.69 2.06,-0.62 -0.09,0.15 0.1,1.05 0.18,1.23 0.2,0.48 0.82,1.01 1.03,1.5 0.18,0.44 -0.61,0.42 -0.33,1.01 l 1.28,2.99 2.13,4.81 c 0.22,0.47 0.93,1.77 0.86,2.34 z"
   style="fill:#ffffff;fill-rule:nonzero;stroke:#ffffff;stroke-width:0"
   id="path32"
   inkscape:connector-curvature="0" />
<path
   d="m 294.77,434.46 1.67,1.45 -3.98,-0.09 -1.24,-2.18 c -0.42,-0.74 -0.33,-1.66 -0.82,-2.57 -0.11,-0.21 -0.15,-0.68 -0.15,-0.92 l 1.79,1.71 2.73,2.6 z"
   style="fill:#ffffff;fill-rule:nonzero;stroke:#ffffff;stroke-width:0"
   id="path34"
   inkscape:connector-curvature="0" />
<path
   d="m 301.17,421.32 0.01,0.05 0.01,0.05 0.01,0.05 0.01,0.05 0.02,0.11 0.02,0.11 0.02,0.11 0.02,0.12 0.02,0.12 0.02,0.12 0.02,0.11 0.02,0.12 0.02,0.12 0.01,0.11 0.02,0.11 0.02,0.11 0.01,0.05 0.01,0.05 0.01,0.05 0.01,0.04 0.27,1.28 c 0.17,0.75 0.42,1.59 0.86,2.23 l 0.73,1.52 c -0.14,-0.11 -0.38,-0.38 -0.52,-0.49 l -2.36,-1.8 c -0.19,-0.17 -0.37,-0.37 -0.48,-0.59 -0.26,-0.5 -0.19,-1.22 -0.29,-1.77 -0.03,-0.17 -0.12,-0.44 -0.19,-0.6 l 1.52,-2.61 c 0.03,0.33 0.08,0.75 0.15,1.07 z"
   style="fill:#ffffff;fill-rule:nonzero;stroke:#ffffff;stroke-width:0"
   id="path36"
   inkscape:connector-curvature="0" />
</g>  </g>
</svg>
