<?xml version="1.0" encoding="UTF-8" standalone="no"?>
<!DOCTYPE svg PUBLIC "-//W3C//DTD SVG 1.0//EN" "http://www.w3.org/TR/2001/REC-SVG-20010904/DTD/svg10.dtd">
<svg
   xmlns:svg="http://www.w3.org/2000/svg"
   xmlns="http://www.w3.org/2000/svg"
   version="1.0"
   width="106.65369"
   height="106.65369"
   id="svg1907">
  <defs
     id="defs1909" />
  <g
     transform="translate(-318.1017,-339.0354)"
     id="layer1">
    <g
       transform="matrix(1.249992,0,0,-1.249992,0.780944,923.3838)"
       style="font-style:normal;font-variant:normal;font-weight:normal;font-stretch:normal;letter-spacing:normal;word-spacing:normal;text-anchor:start;fill:none;fill-opacity:1;stroke:black;stroke-linecap:butt;stroke-linejoin:miter;stroke-miterlimit:10.43299961;stroke-dasharray:none;stroke-dashoffset:0;stroke-opacity:1"
       id="g10"
       xml:space="preserve">
<path
   d="M 296.52,467.34 L 294.33,467.29 L 292.17,467.12 L 290.04,466.85 L 287.95,466.48 L 285.89,466.01 L 283.87,465.43 L 281.9,464.76 L 279.97,464 L 278.08,463.15 L 276.25,462.21 L 274.47,461.19 L 272.75,460.08 L 271.08,458.9 L 269.47,457.63 L 267.93,456.3 L 266.45,454.89 L 265.04,453.41 L 263.71,451.87 L 262.45,450.26 L 261.26,448.6 L 260.15,446.87 L 259.13,445.09 L 258.19,443.26 L 257.34,441.37 L 256.58,439.44 L 255.91,437.47 L 255.34,435.45 L 254.86,433.39 L 254.49,431.3 L 254.22,429.17 L 254.05,427.01 L 254,424.82 C 254,401.35 273.04,382.3 296.52,382.3 C 320,382.3 339.04,401.35 339.04,424.82 C 339.04,448.3 320,467.34 296.52,467.34 z "
   style="fill:white;fill-rule:nonzero;stroke:white;stroke-width:0;stroke-linejoin:round"
   id="path12" />
<path
   d="M 296.52,467.34 L 294.33,467.29 L 292.17,467.12 L 290.04,466.85 L 287.95,466.48 L 285.89,466.01 L 283.87,465.43 L 281.9,464.76 L 279.97,464 L 278.08,463.15 L 276.25,462.21 L 274.47,461.19 L 272.75,460.08 L 271.08,458.9 L 269.47,457.63 L 267.93,456.3 L 266.45,454.89 L 265.04,453.41 L 263.71,451.87 L 262.45,450.26 L 261.26,448.6 L 260.15,446.87 L 259.13,445.09 L 258.19,443.26 L 257.34,441.37 L 256.58,439.44 L 255.91,437.47 L 255.34,435.45 L 254.86,433.39 L 254.49,431.3 L 254.22,429.17 L 254.05,427.01 L 254,424.82 C 254,401.35 273.04,382.3 296.52,382.3 C 320,382.3 339.04,401.35 339.04,424.82 C 339.04,448.3 320,467.34 296.52,467.34 z "
   style="stroke-width:0.28349999;stroke-linejoin:round"
   id="path14" />
<path
   d="M 296.52,465.93 L 294.4,465.88 L 292.32,465.72 L 290.26,465.46 L 288.24,465.1 L 286.25,464.64 L 284.3,464.09 L 282.39,463.44 L 280.52,462.7 L 278.7,461.88 L 276.93,460.97 L 275.21,459.98 L 273.54,458.91 L 271.93,457.77 L 270.37,456.55 L 268.88,455.25 L 267.45,453.89 L 266.09,452.47 L 264.8,450.97 L 263.58,449.42 L 262.43,447.81 L 261.37,446.14 L 260.38,444.42 L 259.47,442.65 L 258.64,440.83 L 257.91,438.96 L 257.26,437.05 L 256.71,435.1 L 256.25,433.11 L 255.89,431.09 L 255.63,429.03 L 255.47,426.94 L 255.41,424.83 C 255.41,402.13 273.82,383.72 296.52,383.72 C 319.22,383.72 337.62,402.13 337.62,424.83 C 337.62,447.53 319.22,465.93 296.52,465.93 z "
   style="fill:#0070ff;fill-rule:nonzero;stroke:#0070ff;stroke-width:0"
   id="path16" />
<path
   d="M 285.32,444.65 L 289.82,446.08 L 291.87,444.92 L 290.96,443.65 L 289.54,444.21 L 286.67,443.39 L 286.08,441.96 L 289.46,441.91 L 287.5,438.66 L 308.46,438.62 L 309.46,440.45 L 309.46,440.45 C 308.82,440.42 307.54,440.6 306.94,440.89 C 306.5,441.1 306.09,441.7 306.39,442.1 C 306.5,442.25 306.75,442.31 306.93,442.34 C 307.11,442.37 308,442.36 308.18,442.36 C 309.02,442.35 311.12,442.61 311.93,442.77 L 311.93,442.77 L 313.62,443.17 L 313.62,443.17 C 313.92,443.22 314.32,443.27 314.62,443.16 C 314.89,443.05 315.13,442.85 315.23,442.57 C 315.3,442.32 315.24,442.04 315.14,441.8 C 315.02,441.53 314.56,440.99 313.1,440.68 L 313.1,440.68 L 311.32,440.52 L 310.19,438.54 L 313.48,431.56 L 313.48,431.56 C 315.14,432.21 317.13,432.56 318.89,432.32 C 321.62,431.96 324.14,430.65 326.01,428.62 C 327.92,426.54 329.05,423.85 329.12,421.01 C 329.18,417.96 328.04,415.02 325.96,412.81 C 323.8,410.53 320.81,409.25 317.7,409.24 C 314.82,409.23 312.02,410.3 309.92,412.29 C 308.89,413.25 308.07,414.43 307.47,415.71 C 306.96,416.79 306.61,417.94 306.46,419.12 C 306.41,419.49 306.37,420.01 306.34,420.37 L 306.34,420.37 L 302.19,420.4 L 302.19,420.4 C 302.05,420.04 301.9,419.66 301.68,419.34 C 301.46,419.01 301.19,418.71 300.86,418.5 C 300.73,418.43 300.54,418.33 300.41,418.27 L 300.41,418.27 L 300.86,416.55 L 301.78,416.78 L 301.95,416.05 L 299.5,415.37 L 299.27,416.1 L 300.13,416.36 L 299.7,418.02 L 299.7,418.02 C 298.43,417.79 297.07,418.2 296.22,419.18 C 295.43,420.11 295.14,421.37 295.5,422.53 C 295.52,422.61 295.57,422.75 295.6,422.83 L 295.6,422.83 L 283.61,432.17 L 282.34,430.31 L 282.34,430.31 C 285.17,428.04 287.2,424.58 287,420.96 C 286.66,414.49 281.53,409.22 275.15,409.38 C 268.89,409.52 264.17,414.98 263.93,421.33 C 263.78,425.05 265.69,428.52 268.72,430.61 C 272.26,433.06 277.02,433.3 280.85,431.35 L 280.85,431.35 L 286.51,440.34 L 283.42,440.45 L 285.32,444.65 z "
   style="fill:white;fill-rule:nonzero;stroke:white;stroke-width:0"
   id="path18" />
<path
   d="M 276.38,420.96 L 281.44,428.96 L 281.44,428.96 C 283.93,427.04 285.34,424.2 285.19,421.16 C 284.93,415.75 280.87,411.14 275.53,411.08 C 270.09,411.01 265.8,415.6 265.54,421.12 C 265.38,424.35 267.03,427.38 269.64,429.22 C 271.52,430.54 273.8,431.11 276.07,431.04 C 277.41,431 278.91,430.62 280.01,429.89 L 280.01,429.89 L 274.86,421.79 L 274.86,421.79 C 274.85,421.76 274.52,421.25 274.51,421.22 C 274.44,420.88 274.58,420.54 274.86,420.34 C 275.22,420.08 275.7,420.1 276.04,420.39 L 276.04,420.39 L 276.38,420.96 z "
   style="fill:#0070ff;fill-rule:nonzero;stroke:#0070ff;stroke-width:0"
   id="path20" />
<path
   d="M 317.79,422.96 L 314.24,430.18 L 314.24,430.18 C 317.22,431.12 320.49,430.79 323.09,429.09 C 325.84,427.29 327.65,424.23 327.54,420.9 C 327.37,415.46 323.29,410.83 317.93,410.71 C 312.82,410.59 308.58,414.56 307.87,419.7 C 307.85,419.86 307.82,420.09 307.81,420.25 L 307.81,420.25 L 315.57,420.35 L 315.57,420.35 C 315.9,419.38 316.8,418.55 317.81,418.64 C 318.89,418.73 319.72,419.62 319.77,420.72 C 319.81,421.86 318.92,422.85 317.79,422.96 z "
   style="fill:#0070ff;fill-rule:nonzero;stroke:#0070ff;stroke-width:0"
   id="path22" />
<path
   d="M 286.45,436.87 L 307.3,436.84 L 300.22,424.65 L 300.22,424.65 C 300.34,424.87 298.67,425.23 298.73,424.97 L 298.73,424.97 L 298.48,426.07 L 299.26,426.3 L 299.06,426.96 L 296.69,426.34 L 296.87,425.66 L 297.65,425.86 L 297.9,424.88 L 297.9,424.88 C 297.48,424.75 296.91,424.43 296.6,424.12 L 296.6,424.12 L 284.39,433.5 L 286.45,436.87 z "
   style="fill:#0070ff;fill-rule:nonzero;stroke:#0070ff;stroke-width:0"
   id="path24" />
<path
   d="M 309.18,436.73 L 312.07,430.82 L 312.07,430.82 C 308.89,429.21 306.9,425.5 306.32,421.9 L 306.32,421.9 L 302.37,421.85 L 302.37,421.85 C 302.3,422.2 302.17,422.63 302.01,422.95 C 301.86,423.24 301.63,423.57 301.41,423.79 L 301.41,423.79 L 309.18,436.73 z "
   style="fill:#0070ff;fill-rule:nonzero;stroke:#0070ff;stroke-width:0"
   id="path26" />
<path
   d="M 312.86,429.5 L 316.27,422.49 L 316.27,422.49 C 316.12,422.37 315.96,422.15 315.87,421.99 L 315.87,421.99 L 307.93,421.91 L 307.93,421.91 C 308.01,425.03 310.25,427.91 312.86,429.5 z "
   style="fill:#0070ff;fill-rule:nonzero;stroke:#0070ff;stroke-width:0"
   id="path28" />
<path
   d="M 296.39,422.16 L 299.13,420.23 L 299.46,419.01 L 299.46,419.01 C 297.86,418.66 296.36,419.97 296.34,421.62 C 296.34,421.78 296.37,422 296.39,422.16 z "
   style="fill:#0070ff;fill-rule:nonzero;stroke:#0070ff;stroke-width:0"
   id="path30" />
<polygon
   points="297.31,423.46 297.35,423.5 297.4,423.53 297.45,423.57 297.5,423.6 297.55,423.64 297.61,423.67 297.66,423.7 297.72,423.73 297.77,423.76 297.83,423.78 297.89,423.81 297.94,423.83 298,423.85 298.05,423.87 298.08,423.88 298.11,423.89 298.14,423.89 298.16,423.9 298.16,423.9 298.5,422.57 297.31,423.46 "
   style="fill:#0070ff;fill-rule:nonzero;stroke:#0070ff;stroke-width:0"
   id="polygon32" />
<path
   d="M 299.15,423.17 L 298.93,423.96 L 298.93,423.96 C 299.13,424 299.41,423.95 299.61,423.91 L 299.61,423.91 L 299.15,423.17 z "
   style="fill:#0070ff;fill-rule:nonzero;stroke:#0070ff;stroke-width:0"
   id="path34" />
<path
   d="M 300.22,422 L 300.88,423.08 L 300.88,423.08 C 300.85,423.05 301.35,422.31 301.4,421.99 L 301.4,421.99 L 300.22,422 z "
   style="fill:#0070ff;fill-rule:nonzero;stroke:#0070ff;stroke-width:0"
   id="path36" />
<path
   d="M 299.91,420.28 L 301.24,420.29 L 301.24,420.29 C 301.07,420 300.84,419.67 300.59,419.45 C 300.5,419.36 300.34,419.24 300.23,419.16 L 300.23,419.16 L 299.91,420.28 z "
   style="fill:#0070ff;fill-rule:nonzero;stroke:#0070ff;stroke-width:0"
   id="path38" />
</g>  </g>
</svg>
