<?xml version="1.0" encoding="UTF-8" standalone="no"?>
<svg
   xmlns:dc="http://purl.org/dc/elements/1.1/"
   xmlns:cc="http://creativecommons.org/ns#"
   xmlns:rdf="http://www.w3.org/1999/02/22-rdf-syntax-ns#"
   xmlns:svg="http://www.w3.org/2000/svg"
   xmlns="http://www.w3.org/2000/svg"
   viewBox="0 0 160.41333 140.67999"
   height="140.67999"
   width="160.41333"
   xml:space="preserve"
   id="svg2"
   version="1.1"><metadata
     id="metadata8"><rdf:RDF><cc:Work
         rdf:about=""><dc:format>image/svg+xml</dc:format><dc:type
           rdf:resource="http://purl.org/dc/dcmitype/StillImage" /></cc:Work></rdf:RDF></metadata><defs
     id="defs6" /><g
     transform="matrix(1.3333333,0,0,-1.3333333,0,140.68)"
     id="g10"><g
       transform="scale(0.1)"
       id="g12"><path
         id="path14"
         style="fill:#ee2c30;fill-opacity:1;fill-rule:nonzero;stroke:none"
         d="M 49.6875,0 H 1153.44 v 0 c 38.2,0 62.07,41.3281 42.99,74.4141 v 0 L 644.516,1030.29 v 0 c -19.082,33.08 -66.817,33.08 -85.899,0 v 0 L 6.70313,74.4141 v 0 C -12.3789,41.3281 11.4883,0 49.6875,0 v 0" /><path
         id="path16"
         style="fill:#ffffff;fill-opacity:1;fill-rule:nonzero;stroke:none"
         d="M 135.582,99.2188 H 1067.55 L 601.566,906.262 135.582,99.2188" /><path
         id="path18"
         style="fill:#231f20;fill-opacity:1;fill-rule:nonzero;stroke:none"
         d="M 658.227,640.227 630.043,318.098 v 0 c -1.875,-7.278 -8.281,-14.582 -15.156,-18.106 -9.684,-3.75 -23.438,-3.07 -30.782,4.461 -12.058,14.582 -8.531,35.246 -11.589,54.289 v 0 l -27.719,285.223 v 0 c 1.652,20.449 16.125,40.176 36.25,46.769 36.937,14.539 79.777,-12.707 77.18,-50.507 v 0" /><path
         id="path20"
         style="fill:#231f20;fill-opacity:1;fill-rule:nonzero;stroke:none"
         d="m 601.566,269.316 c 31.321,0 56.7,-25.418 56.7,-56.699 0,-31.289 -25.379,-56.699 -56.7,-56.699 -31.285,0 -56.699,25.41 -56.699,56.699 0,31.281 25.414,56.699 56.699,56.699 v 0" /></g></g></svg>