<?xml version="1.0" encoding="UTF-8" standalone="no"?>
<svg
   xmlns:dc="http://purl.org/dc/elements/1.1/"
   xmlns:cc="http://creativecommons.org/ns#"
   xmlns:rdf="http://www.w3.org/1999/02/22-rdf-syntax-ns#"
   xmlns:svg="http://www.w3.org/2000/svg"
   xmlns="http://www.w3.org/2000/svg"
   viewBox="0 0 94.866669 132.66667"
   height="132.66667"
   width="94.866669"
   xml:space="preserve"
   id="svg2"
   version="1.1"><metadata
     id="metadata8"><rdf:RDF><cc:Work
         rdf:about=""><dc:format>image/svg+xml</dc:format><dc:type
           rdf:resource="http://purl.org/dc/dcmitype/StillImage" /></cc:Work></rdf:RDF></metadata><defs
     id="defs6" /><g
     transform="matrix(1.3333333,0,0,-1.3333333,0,132.66667)"
     id="g10"><g
       transform="scale(0.1)"
       id="g12"><path
         id="path14"
         style="fill:#ffffff;fill-opacity:1;fill-rule:nonzero;stroke:none"
         d="m 1.41797,1.41797 h 708.66 v 992.121 h -708.66 z" /><path
         id="path16"
         style="fill:none;stroke:#231f20;stroke-width:2.83500004;stroke-linecap:butt;stroke-linejoin:miter;stroke-miterlimit:4;stroke-dasharray:none;stroke-opacity:1"
         d="M 1.41797,1.41797 H 710.078 V 993.539 H 1.41797 V 1.41797" /><path
         id="path18"
         style="fill:#1a67bb;fill-opacity:1;fill-rule:nonzero;stroke:none"
         d="m 356.418,15.6445 338.875,-0.0468 0.598,963.0353 -339.473,0.359 V 836.969 L 610.793,690.398 610.781,304.512 356.418,157.273 V 15.6445" /><path
         id="path20"
         style="fill:#1a67bb;fill-opacity:1;fill-rule:nonzero;stroke:none"
         d="M 100.988,979.27 16.2305,979.355 15.5859,15.6914 100.988,15.6758 V 979.27" /><path
         id="path22"
         style="fill:#231f20;fill-opacity:1;fill-rule:nonzero;stroke:none"
         d="m 355.977,210.398 h 21.2813 v 63.7891 H 355.977 Z" /><path
         id="path24"
         style="fill:#231f20;fill-opacity:1;fill-rule:nonzero;stroke:none"
         d="m 355.977,337.98 h 21.2813 v 63.7969 H 355.977 Z" /><path
         id="path26"
         style="fill:#231f20;fill-opacity:1;fill-rule:nonzero;stroke:none"
         d="m 355.977,465.566 h 21.2813 v 63.793 H 355.977 Z" /><path
         id="path28"
         style="fill:#231f20;fill-opacity:1;fill-rule:nonzero;stroke:none"
         d="m 355.977,593.148 h 21.2813 v 63.793 H 355.977 Z" /><path
         id="path30"
         style="fill:#231f20;fill-opacity:1;fill-rule:nonzero;stroke:none"
         d="m 355.977,720.73 h 21.2813 v 63.7969 H 355.977 Z" /><path
         id="path32"
         style="fill:#231f20;fill-opacity:1;fill-rule:nonzero;stroke:none"
         d="m 467.648,571.086 c 2.559,-1.406 5.692,-2.414 9.364,-3.211 3.711,-0.719 7.812,-1.004 12.383,-1.004 9.472,0 17.14,2.52 22.675,7.633 5.547,5.109 8.254,12.238 8.254,21.312 v 0 c 0,4.282 -0.547,7.954 -1.836,10.942 -1.261,2.988 -3.136,5.687 -5.265,7.953 -2.118,2.305 -4.676,4.43 -7.664,6.266 -2.989,1.875 -6.114,3.711 -9.399,5.546 -2.41,1.442 -4.5,2.7 -6.187,3.997 -1.875,1.257 -3.274,2.41 -4.289,3.668 -1.114,1.156 -1.973,2.449 -2.411,3.855 -0.429,1.293 -0.714,2.84 -0.714,4.535 0,3.852 1.289,7.129 3.847,9.539 2.559,2.414 6.125,3.707 10.762,3.707 3.566,0 6.953,-0.429 9.941,-1.293 2.989,-1.011 5.539,-1.98 7.813,-3.133 v 0 l 0.43,13.645 v 0 c -1.836,0.719 -4.539,1.582 -7.813,2.266 -3.418,0.722 -7.234,1.152 -11.523,1.152 -3.926,0 -7.625,-0.574 -11.192,-1.547 -3.523,-1.152 -6.66,-2.844 -9.363,-5.004 -2.695,-2.265 -4.824,-4.969 -6.406,-8.242 -1.543,-3.242 -2.414,-6.949 -2.414,-11.23 0,-4.395 0.578,-7.961 1.836,-10.95 1.3,-2.988 2.988,-5.687 5.117,-7.812 2.16,-2.266 4.57,-4.246 7.558,-5.977 2.844,-1.836 5.977,-3.672 9.219,-5.687 2.695,-1.547 4.961,-3.094 6.797,-4.391 1.836,-1.406 3.281,-2.84 4.395,-4.101 1.007,-1.297 1.875,-2.7 2.265,-4.141 0.43,-1.547 0.578,-3.133 0.578,-4.969 0,-4.535 -1.543,-8.101 -4.531,-10.801 -2.988,-2.703 -6.953,-4.14 -11.777,-4.14 -3.957,0 -7.668,0.722 -11.231,2.164 -3.527,1.258 -6.367,2.699 -8.672,4.097 v 0 l -0.547,-14.644 v 0" /><path
         id="path34"
         style="fill:#231f20;fill-opacity:1;fill-rule:nonzero;stroke:none"
         d="m 466.359,456.352 c 3.418,-4.247 7.371,-7.383 12.09,-9.504 4.539,-2.266 9.512,-3.278 14.766,-3.278 5.508,0 10.613,1.012 15.332,3.133 4.676,2.125 8.68,5.254 12.058,9.504 3.418,4.141 6.125,9.539 8.106,15.945 1.867,6.371 2.844,14.043 2.844,22.715 v 0 c 0,8.391 -0.977,15.664 -2.844,21.891 -1.981,6.265 -4.688,11.519 -8.106,15.805 -3.378,4.101 -7.382,7.378 -11.914,9.503 -4.714,2.122 -9.687,3.133 -14.941,3.133 -5.508,0 -10.477,-1.011 -15.156,-3.133 -4.715,-2.125 -8.817,-5.253 -12.235,-9.394 -3.418,-4.25 -6.125,-9.649 -7.961,-16.055 -1.98,-6.375 -2.988,-14.078 -2.988,-22.719 0,-8.39 1.008,-15.66 2.988,-21.886 1.836,-6.266 4.543,-11.524 7.961,-15.66 v 0" /><path
         id="path36"
         style="fill:#231f20;fill-opacity:1;fill-rule:nonzero;stroke:none"
         d="m 467.648,324.523 c 2.559,-1.41 5.692,-2.414 9.364,-3.246 3.711,-0.718 7.812,-1.004 12.383,-1.004 9.472,0 17.14,2.547 22.675,7.665 5.547,5.109 8.254,12.238 8.254,21.312 v 0 c 0,4.285 -0.547,7.957 -1.836,10.945 -1.261,2.989 -3.136,5.684 -5.265,7.957 -2.118,2.309 -4.676,4.426 -7.664,6.262 -2.989,1.875 -6.114,3.711 -9.399,5.547 -2.41,1.437 -4.5,2.695 -6.187,3.996 -1.875,1.258 -3.274,2.41 -4.289,3.672 -1.114,1.148 -1.973,2.449 -2.411,3.848 -0.429,1.296 -0.714,2.847 -0.714,4.539 0,3.847 1.289,7.129 3.847,9.543 2.559,2.41 6.125,3.699 10.762,3.699 3.566,0 6.953,-0.43 9.941,-1.289 2.989,-1.004 5.539,-1.985 7.813,-3.133 v 0 l 0.43,13.641 v 0 c -1.836,0.722 -4.539,1.582 -7.813,2.265 -3.418,0.723 -7.234,1.153 -11.523,1.153 -3.926,0 -7.625,-0.579 -11.192,-1.543 -3.523,-1.153 -6.66,-2.84 -9.363,-5.008 -2.695,-2.27 -4.824,-4.961 -6.406,-8.242 -1.543,-3.235 -2.414,-6.946 -2.414,-11.235 0,-4.39 0.578,-7.957 1.836,-10.945 1.3,-2.988 2.988,-5.684 5.117,-7.805 2.16,-2.273 4.57,-4.246 7.558,-5.972 2.844,-1.836 5.977,-3.672 9.219,-5.696 2.695,-1.543 4.961,-3.094 6.797,-4.394 1.836,-1.399 3.281,-2.84 4.395,-4.102 1.007,-1.301 1.875,-2.695 2.265,-4.14 0.43,-1.543 0.578,-3.133 0.578,-4.969 0,-4.531 -1.543,-8.098 -4.531,-10.793 -2.988,-2.703 -6.953,-4.141 -11.777,-4.141 -3.957,0 -7.668,0.715 -11.231,2.156 -3.527,1.262 -6.367,2.7 -8.672,4.106 v 0 l -0.547,-14.649 v 0" /><path
         id="path38"
         style="fill:#ffffff;fill-opacity:1;fill-rule:nonzero;stroke:none"
         d="m 477.012,465.891 c -3.817,6.804 -5.692,16.199 -5.692,28.007 0,7.235 0.575,13.36 1.875,18.325 1.114,4.968 2.703,9.105 4.825,12.203 1.98,2.988 4.39,5.293 7.089,6.699 2.704,1.293 5.692,1.977 8.641,1.977 7.129,0 12.531,-3.383 16.348,-10.227 3.703,-6.801 5.539,-16.195 5.539,-28.008 v 0 c 0,-7.234 -0.578,-13.351 -1.692,-18.32 -1.297,-4.969 -2.84,-9.109 -4.824,-12.098 -2.156,-3.133 -4.57,-5.402 -7.266,-6.66 -2.703,-1.437 -5.695,-2.125 -8.64,-2.125 -7.09,0 -12.492,3.383 -16.203,10.227 v 0" /></g></g></svg>