<?xml version="1.0" encoding="UTF-8" standalone="no"?>
<svg
   xmlns:dc="http://purl.org/dc/elements/1.1/"
   xmlns:cc="http://creativecommons.org/ns#"
   xmlns:rdf="http://www.w3.org/1999/02/22-rdf-syntax-ns#"
   xmlns:svg="http://www.w3.org/2000/svg"
   xmlns="http://www.w3.org/2000/svg"
   viewBox="0 0 94.866669 132.66667"
   height="132.66667"
   width="94.866669"
   xml:space="preserve"
   id="svg2"
   version="1.1"><metadata
     id="metadata8"><rdf:RDF><cc:Work
         rdf:about=""><dc:format>image/svg+xml</dc:format><dc:type
           rdf:resource="http://purl.org/dc/dcmitype/StillImage" /></cc:Work></rdf:RDF></metadata><defs
     id="defs6" /><g
     transform="matrix(1.3333333,0,0,-1.3333333,0,132.66667)"
     id="g10"><g
       transform="scale(0.1)"
       id="g12"><path
         id="path14"
         style="fill:#ffffff;fill-opacity:1;fill-rule:nonzero;stroke:none"
         d="m 1.41797,1.41797 h 708.66 v 992.121 h -708.66 z" /><path
         id="path16"
         style="fill:none;stroke:#231f20;stroke-width:2.83500004;stroke-linecap:butt;stroke-linejoin:miter;stroke-miterlimit:4;stroke-dasharray:none;stroke-opacity:1"
         d="M 1.41797,1.41797 H 710.078 V 993.539 H 1.41797 V 1.41797" /><path
         id="path18"
         style="fill:#1a67bb;fill-opacity:1;fill-rule:nonzero;stroke:none"
         d="m 15.5859,15.5977 h 680.313 v 963.773 H 15.5859 Z" /><path
         id="path20"
         style="fill:#ffffff;fill-opacity:1;fill-rule:nonzero;stroke:none"
         d="m 372.023,86.457 c -0.195,25.879 0.594,136.582 -1.074,156.961 -1.269,22.629 -3.379,45.246 -6.769,67.656 -6.121,41.016 -16.059,83.508 -31.278,121.985 -19.66,49.464 -46.718,101.683 -72.929,147.98 -20.504,35.938 -65.953,114.371 -86.668,150.098 -25.157,43.551 -55.805,97.039 -80.5355,140.586 -5.9218,10.781 -14.5859,26.211 -20.5078,36.785 v 0 l 192.5743,-0.211 v 0 c 1.687,-3.176 4.437,-7.824 6.34,-11.207 8.453,-14.801 20.929,-36.363 29.59,-51.16 2.332,-4.227 6.132,-10.36 8.457,-14.586 9.304,-15.856 22.41,-38.899 31.5,-54.758 11.203,-20.082 27.902,-49.469 39.738,-69.34 19.656,-33.187 52.637,-89.633 70.605,-123.883 8.243,-16.277 16.914,-36.57 23.672,-53.695 11.414,-28.539 22.832,-59.617 31.492,-89.004 3.594,-12.051 7.825,-27.695 10.997,-39.949 1.269,-5.5 3.378,-13.117 4.863,-18.606 v 0 l -0.418,189.414 -16.067,-0.21 v 268.488 l 133.497,0.179 0.097,-268.457 H 621.867 L 622.422,86.457 H 372.023 v 0" /><path
         id="path22"
         style="fill:#ee2c30;fill-opacity:1;fill-rule:nonzero;stroke:none"
         d="m 522.012,587.32 h 33.957 v 33.9531 h -33.957 z" /><path
         id="path24"
         style="fill:#ee2c30;fill-opacity:1;fill-rule:nonzero;stroke:none"
         d="m 589.902,587.32 h 33.957 v 33.9531 h -33.957 z" /><path
         id="path26"
         style="fill:#ee2c30;fill-opacity:1;fill-rule:nonzero;stroke:none"
         d="m 522.012,655.215 h 33.957 v 33.957 h -33.957 z" /><path
         id="path28"
         style="fill:#ee2c30;fill-opacity:1;fill-rule:nonzero;stroke:none"
         d="m 589.902,655.215 h 33.957 v 33.957 h -33.957 z" /><path
         id="path30"
         style="fill:#ee2c30;fill-opacity:1;fill-rule:nonzero;stroke:none"
         d="m 522.012,723.145 h 33.957 v 33.957 h -33.957 z" /><path
         id="path32"
         style="fill:#ee2c30;fill-opacity:1;fill-rule:nonzero;stroke:none"
         d="m 589.902,723.145 h 33.957 v 33.957 h -33.957 z" /><path
         id="path34"
         style="fill:#ee2c30;fill-opacity:1;fill-rule:nonzero;stroke:none"
         d="m 522.012,791.039 h 33.957 v 33.9609 h -33.957 z" /><path
         id="path36"
         style="fill:#ee2c30;fill-opacity:1;fill-rule:nonzero;stroke:none"
         d="m 589.902,791.039 h 33.957 v 33.9609 h -33.957 z" /><path
         id="path38"
         style="fill:#ee2c30;fill-opacity:1;fill-rule:nonzero;stroke:none"
         d="m 555.957,621.266 h 33.9531 v 33.9531 H 555.957 Z" /><path
         id="path40"
         style="fill:#ee2c30;fill-opacity:1;fill-rule:nonzero;stroke:none"
         d="m 555.957,689.16 h 33.9531 v 33.9531 H 555.957 Z" /><path
         id="path42"
         style="fill:#ee2c30;fill-opacity:1;fill-rule:nonzero;stroke:none"
         d="m 555.957,757.094 h 33.9531 v 33.957 H 555.957 Z" /></g></g></svg>