<?xml version="1.0" encoding="utf-8"?>
<!-- Generator: Adobe Illustrator 15.0.0, SVG Export Plug-In  -->
<!DOCTYPE svg PUBLIC "-//W3C//DTD SVG 1.1//EN" "http://www.w3.org/Graphics/SVG/1.1/DTD/svg11.dtd" [
	<!ENTITY ns_flows "http://ns.adobe.com/Flows/1.0/">
]>
<svg version="1.1"
	 xmlns="http://www.w3.org/2000/svg" xmlns:xlink="http://www.w3.org/1999/xlink" xmlns:a="http://ns.adobe.com/AdobeSVGViewerExtensions/3.0/"
	 x="0px" y="0px" width="503px" height="505px" viewBox="0 -0.61 503 505" enable-background="new 0 -0.61 503 505"
	 xml:space="preserve">
<defs>
</defs>
<g>
	<rect x="0.5" y="0.5" fill="#FFFFFF" width="502" height="503"/>
	<g>
		<polyline fill="none" stroke="#000000" points="502.5,497.5 502.5,503.5 496.5,503.5 		"/>
		<line fill="none" stroke="#000000" stroke-dasharray="11.9512,11.9512" x1="484.549" y1="503.5" x2="12.476" y2="503.5"/>
		<polyline fill="none" stroke="#000000" points="6.5,503.5 0.5,503.5 0.5,497.5 		"/>
		<line fill="none" stroke="#000000" stroke-dasharray="11.9756,11.9756" x1="0.5" y1="485.524" x2="0.5" y2="12.488"/>
		<polyline fill="none" stroke="#000000" points="0.5,6.5 0.5,0.5 6.5,0.5 		"/>
		<line fill="none" stroke="#000000" stroke-dasharray="11.9512,11.9512" x1="18.451" y1="0.5" x2="490.524" y2="0.5"/>
		<polyline fill="none" stroke="#000000" points="496.5,0.5 502.5,0.5 502.5,6.5 		"/>
		<line fill="none" stroke="#000000" stroke-dasharray="11.9756,11.9756" x1="502.5" y1="18.476" x2="502.5" y2="491.512"/>
	</g>
</g>
<rect x="18.5" y="17.5" width="467" height="469"/>
<rect x="51" y="52.5" fill="#FFFFFF" stroke="#000000" width="401" height="399"/>
<path fill="#010101" d="M214.629,365.237h2.115c31.608,2.119,46.836,23.575,79.876,7.338l1.265-0.924
	c28.648-12.401,43.158,7.271,71.895,9.295h1.961c29.303-2.12,43.419-23.576,74.048-7.339l6.879,3.833v-9.629l-7.584-4.225
	c-21.046-11.156-34.301-4.521-50.038,1.41l-5.15,1.409l1.235-5.678l1.763-8.017l0.162,0.146
	c10.724-44.626,28.834-85.27,49.867-126.694l-2.95-1.552l-0.112-0.467l-149.764-64L137.047,226.95
	c22.299,43.651,41.488,86.29,52.357,133.493c-17.583,5.826-32.001,13.059-54.473,3.462v-71.819H51V438.39h83.932v-7.914
	c31.153,12.712,46.813-7.089,77.934-9.122h2.116c31.608,2.119,46.835,23.577,79.875,7.339l1.265-0.923
	c28.65-12.404,43.16,7.27,71.895,9.293h1.961c29.303-2.118,43.42-23.575,74.049-7.338l8.642,4.813v-9.627l-9.347-5.208
	c-30.631-16.236-44.746,5.22-74.049,7.339h-1.961c-28.735-2.024-43.245-21.697-71.895-9.294l-1.266,0.924
	c-33.04,16.237-48.267-5.22-79.875-7.339h-2.115c-30.884,2.017-46.545,21.529-77.229,9.402v-17.37
	c30.684,12.13,46.345-7.384,77.229-9.401h2.115c31.608,2.119,46.835,23.575,79.875,7.339l1.266-0.924
	c28.648-12.402,43.158,7.27,71.895,9.294h1.961c29.302-2.119,43.419-23.575,74.048-7.339l9.347,5.209v-9.629l-10.052-5.601
	c-30.631-16.237-44.746,5.221-74.05,7.338h-1.961c-28.733-2.023-43.243-21.696-71.895-9.293l-1.266,0.924
	c-33.04,16.236-48.266-5.221-79.874-7.338h-2.116c-30.646,2-46.301,21.237-76.522,9.681v-20.013
	C167.268,387.818,182.928,367.307,214.629,365.237z"/>
<polygon fill="#010101" points="345.373,265.628 347.754,263.042 347.754,260.456 339.833,232.525 241.888,232.525 234.554,258.387 
	234.554,260.973 236.934,263.56 240.372,266.404 243.197,268.387 342.038,268.387 "/>
<polygon fill="none" points="241.888,232.525 234.554,258.387 234.554,260.973 236.934,263.56 240.372,266.404 243.197,268.387 
	342.038,268.387 345.373,265.628 347.754,263.042 347.754,260.456 339.833,232.525 "/>
<path fill="#FFFFFF" d="M366.003,272.948c0-2.313-1.623-4.231-3.767-4.644l-0.465-0.606c0,0-1.322-0.776-1.587-1.552
	s-1.058-1.552-1.058-1.552l-1.322-3.362l-8.853-33.881c0.078-0.391,0.124-0.793,0.124-1.205c0-3.523-3.015-6.379-6.734-6.379
	H240.054c-2.826,0-5.243,1.649-6.242,3.986l-0.051-0.021l-0.175,0.664l-0.06,0.236c-0.019,0.064-0.048,0.124-0.062,0.189
	c-0.008,0.039-0.012,0.078-0.02,0.117l-8.941,34.225l-1.323,3.362c0,0-0.793,0.776-1.059,1.552
	c-0.264,0.776-1.586,1.552-1.586,1.552l-1.587,2.069l-0.146,0.426c-0.958,0.867-1.574,2.12-1.574,3.531v6.31
	c0,0.31,0.033,0.61,0.089,0.903c-0.14,0.754-0.221,1.527-0.221,2.322v19.914c0,6.218,4.396,11.396,10.228,12.556v26.108
	c0,3.428,3.394,6.207,7.581,6.207c4.188,0,7.582-2.779,7.582-6.207v-25.862h98.037v25.173c0,3.428,3.394,6.207,7.581,6.207
	c4.188,0,7.582-2.779,7.582-6.207v-25.419c5.829-1.159,10.227-6.338,10.227-12.556v-19.914c0-0.279-0.034-0.549-0.052-0.824
	c0.083-0.357,0.14-0.724,0.14-1.108V272.948z M347.754,263.042l-2.381,2.586l-3.335,2.759h-98.841l-2.825-1.983l-3.438-2.845
	l-2.38-2.586v-2.586l7.334-25.862h97.945l7.921,27.931V263.042z"/>
<polygon fill="#010101" points="415,131 369.5,131 369.5,129.5 347,63.5 241.5,63.5 219.5,128.5 219.5,129.5 174,129.5 174,166 
	189.473,166 178,195.5 176.5,197.5 181.5,196.5 290,151 408,196.5 394.291,167.5 415,167.5 "/>
</svg>
