<?xml version="1.0" encoding="utf-8"?>
<!-- Generator: Adobe Illustrator 15.0.0, SVG Export Plug-In  -->
<!DOCTYPE svg PUBLIC "-//W3C//DTD SVG 1.1//EN" "http://www.w3.org/Graphics/SVG/1.1/DTD/svg11.dtd" [
	<!ENTITY ns_flows "http://ns.adobe.com/Flows/1.0/">
]>
<svg version="1.1"
	 xmlns="http://www.w3.org/2000/svg" xmlns:xlink="http://www.w3.org/1999/xlink" xmlns:a="http://ns.adobe.com/AdobeSVGViewerExtensions/3.0/"
	 x="0px" y="0px" width="503px" height="505px" viewBox="0 -0.61 503 505" enable-background="new 0 -0.61 503 505"
	 xml:space="preserve">
<defs>
</defs>
<g>
	<rect x="0.5" y="0.5" fill="#FFFFFF" width="502" height="503"/>
	<g>
		<polyline fill="none" stroke="#000000" points="502.5,497.5 502.5,503.5 496.5,503.5 		"/>
		<line fill="none" stroke="#000000" stroke-dasharray="11.9512,11.9512" x1="484.549" y1="503.5" x2="12.476" y2="503.5"/>
		<polyline fill="none" stroke="#000000" points="6.5,503.5 0.5,503.5 0.5,497.5 		"/>
		<line fill="none" stroke="#000000" stroke-dasharray="11.9756,11.9756" x1="0.5" y1="485.524" x2="0.5" y2="12.488"/>
		<polyline fill="none" stroke="#000000" points="0.5,6.5 0.5,0.5 6.5,0.5 		"/>
		<line fill="none" stroke="#000000" stroke-dasharray="11.9512,11.9512" x1="18.451" y1="0.5" x2="490.524" y2="0.5"/>
		<polyline fill="none" stroke="#000000" points="496.5,0.5 502.5,0.5 502.5,6.5 		"/>
		<line fill="none" stroke="#000000" stroke-dasharray="11.9756,11.9756" x1="502.5" y1="18.476" x2="502.5" y2="491.512"/>
	</g>
</g>
<rect x="18.5" y="17.5" width="467" height="469"/>
<rect x="51" y="52.5" fill="#FFFFFF" width="401" height="399"/>
<path fill="#010101" d="M399.919,372.727L267.07,257.353l38.336-43.754c22.854,12.159,62.727-1.383,94.558-33.681
	c15.011-15.23,25.811-32.188,31.743-48.239l-6.755-6.86L354.1,189.511h-5.6l-1.401-2.1l0.351-3.15l67.258-69.845l-7.642-7.76
	l-70.816,66.755h-3.851l-2.1-2.45v-1.75l66.628-72.85l-5.747-5.837l-71.381,67.836l-2.449-0.7l-1.751-2.1l2.101-3.85l61.247-73.609
	l-4.906-4.982c-16.335,6.063-33.625,17.296-49.029,32.927c-31.186,31.644-44.274,70.754-33.044,93.651l-46.433,38.953l-49.25-42.771
	c9.433-21.518,1.532-53.13-21.418-77.941c-28.141-30.423-68.24-39.095-89.565-19.369c-21.322,19.725-15.797,60.377,12.343,90.799
	c27.024,29.214,65.067,38.354,86.93,21.565l39.032,46.114L85.419,372.973c-9.57,5.302-16.032,15.181-16.082,26.527
	c-0.075,17.01,14.279,30.862,32.064,30.94c12.672,0.055,23.659-6.9,28.959-17.055l114.732-130.95l114.61,135.408
	c5.343,9.549,15.249,15.967,26.598,15.967c17.01,0,30.799-14.415,30.799-32.199C417.1,388.938,410.096,377.982,399.919,372.727z"/>
</svg>
