<?xml version="1.0" encoding="UTF-8" standalone="no"?>
<!DOCTYPE svg PUBLIC "-//W3C//DTD SVG 1.0//EN" "http://www.w3.org/TR/2001/REC-SVG-20010904/DTD/svg10.dtd">
<svg
   xmlns:svg="http://www.w3.org/2000/svg"
   xmlns="http://www.w3.org/2000/svg"
   version="1.0"
   width="106.66454"
   height="106.66358"
   id="svg1909">
  <defs
     id="defs1911" />
  <g
     transform="translate(-203.8106,-273.3161)"
     id="layer1">
    <g
       transform="matrix(1.249992,0,0,-1.249992,-68.07989,925.9891)"
       style="font-style:normal;font-variant:normal;font-weight:normal;font-stretch:normal;letter-spacing:normal;word-spacing:normal;text-anchor:start;fill:none;fill-opacity:1;stroke:black;stroke-linecap:butt;stroke-linejoin:miter;stroke-miterlimit:10.43299961;stroke-dasharray:none;stroke-dashoffset:0;stroke-opacity:1"
       id="g10"
       xml:space="preserve">
<path
   d="M 272.21,520.2 L 271.21,520.48 L 270.22,520.74 L 269.22,520.97 L 268.23,521.18 L 267.24,521.37 L 266.24,521.53 L 265.25,521.67 L 264.26,521.78 L 263.27,521.87 L 262.28,521.94 L 261.3,521.98 L 260.31,522 L 259.33,521.99 L 258.35,521.97 L 257.37,521.91 L 256.39,521.84 L 255.41,521.74 L 254.44,521.61 L 253.47,521.47 L 252.5,521.29 L 251.53,521.1 L 250.57,520.88 L 249.61,520.64 L 248.65,520.37 L 247.7,520.08 L 246.75,519.77 L 245.8,519.43 L 244.86,519.07 L 243.91,518.69 L 242.98,518.28 L 242.04,517.85 L 241.11,517.39 C 231.21,512.41 224.15,504.48 220.34,494.08 C 216.52,483.68 216.78,473.07 221.1,462.87 C 225.43,452.67 232.88,445.1 243.01,440.61 C 266.58,430.17 293.95,442.96 301.05,467.76 C 307.48,490.19 294.6,513.61 272.21,520.2 z "
   style="fill:white;fill-rule:nonzero;stroke:white;stroke-width:0;stroke-linejoin:round"
   id="path12" />
<path
   d="M 272.21,520.2 L 271.21,520.48 L 270.22,520.74 L 269.22,520.97 L 268.23,521.18 L 267.24,521.37 L 266.24,521.53 L 265.25,521.67 L 264.26,521.78 L 263.27,521.87 L 262.28,521.94 L 261.3,521.98 L 260.31,522 L 259.33,521.99 L 258.35,521.97 L 257.37,521.91 L 256.39,521.84 L 255.41,521.74 L 254.44,521.61 L 253.47,521.47 L 252.5,521.29 L 251.53,521.1 L 250.57,520.88 L 249.61,520.64 L 248.65,520.37 L 247.7,520.08 L 246.75,519.77 L 245.8,519.43 L 244.86,519.07 L 243.91,518.69 L 242.98,518.28 L 242.04,517.85 L 241.11,517.39 C 231.21,512.41 224.15,504.48 220.34,494.08 C 216.52,483.68 216.78,473.07 221.1,462.87 C 225.43,452.67 232.88,445.1 243.01,440.61 C 266.58,430.17 293.95,442.96 301.05,467.76 C 307.48,490.19 294.6,513.61 272.21,520.2 z "
   style="stroke-width:0.28349999;stroke-linejoin:round"
   id="path14" />
<path
   d="M 271.81,518.84 L 272.63,518.59 L 273.44,518.32 L 274.25,518.04 L 275.04,517.75 L 275.83,517.43 L 276.61,517.1 L 277.38,516.76 L 278.14,516.4 L 278.9,516.03 L 279.65,515.63 L 280.38,515.23 L 281.12,514.81 L 281.84,514.37 L 282.55,513.92 L 283.26,513.45 L 283.96,512.97 C 287.54,510.43 290.64,507.39 293.25,503.84 C 295.84,500.33 297.82,496.5 299.2,492.37 C 300.59,488.17 301.29,483.88 301.29,479.47 C 301.29,475.64 300.75,471.87 299.69,468.15 C 298.41,463.67 296.45,459.55 293.8,455.79 C 291.26,452.18 288.2,449.05 284.61,446.41 C 281.09,443.82 277.25,441.83 273.09,440.46 C 268.89,439.07 264.59,438.37 260.19,438.37 C 254.44,438.37 248.91,439.55 243.58,441.91 C 233.69,446.29 226.63,453.46 222.41,463.42 C 220.19,468.67 219.07,474 219.07,479.39 C 219.07,484.15 219.94,488.88 221.67,493.59 C 225.39,503.75 232.09,511.26 241.75,516.12 C 247.65,519.1 253.74,520.58 260.02,520.58 C 263.93,520.58 267.86,520 271.81,518.84 z "
   style="fill:#0070ff;fill-rule:nonzero;stroke:#0070ff;stroke-width:0"
   id="path16" />
<path
   d="M 253.25,470.05 L 256.03,470.96 L 257.3,470.22 L 256.73,469.42 L 255.86,469.77 L 254.08,469.25 L 253.71,468.34 L 255.81,468.31 L 254.59,466.25 L 267.58,466.23 L 268.2,467.38 L 268.2,467.38 C 267.8,467.37 267.01,467.48 266.64,467.66 C 266.37,467.8 266.11,468.18 266.3,468.44 C 266.36,468.53 266.52,468.57 266.63,468.59 C 266.75,468.61 267.29,468.6 267.41,468.6 C 267.93,468.59 269.22,468.76 269.73,468.86 L 269.73,468.86 L 270.78,469.11 L 270.78,469.11 C 270.96,469.14 271.21,469.17 271.39,469.11 C 271.56,469.04 271.71,468.91 271.77,468.73 C 271.82,468.57 271.78,468.39 271.72,468.24 C 271.64,468.07 271.36,467.73 270.45,467.53 L 270.45,467.53 L 269.35,467.43 L 268.65,466.17 L 270.69,461.74 L 270.69,461.74 C 271.72,462.16 272.95,462.38 274.05,462.23 C 275.73,462 277.29,461.17 278.45,459.88 C 279.64,458.56 280.34,456.85 280.38,455.05 C 280.42,453.12 279.71,451.25 278.42,449.85 C 277.08,448.39 275.23,447.59 273.3,447.58 C 271.52,447.57 269.79,448.25 268.48,449.51 C 267.85,450.12 267.34,450.88 266.96,451.69 C 266.65,452.37 266.43,453.1 266.34,453.86 C 266.31,454.09 266.29,454.41 266.27,454.64 L 266.27,454.64 L 263.7,454.66 L 263.7,454.66 C 263.61,454.43 263.52,454.19 263.38,453.99 C 263.24,453.78 263.07,453.59 262.87,453.46 C 262.79,453.41 262.67,453.35 262.59,453.31 L 262.59,453.31 L 262.87,452.22 L 263.44,452.37 L 263.55,451.9 L 262.03,451.47 L 261.89,451.93 L 262.42,452.1 L 262.16,453.16 L 262.16,453.16 C 261.36,453.01 260.52,453.26 260,453.89 C 259.51,454.48 259.32,455.28 259.55,456.02 C 259.56,456.07 259.59,456.15 259.61,456.2 L 259.61,456.2 L 252.19,462.13 L 251.4,460.95 L 251.4,460.95 C 253.15,459.51 254.41,457.32 254.29,455.02 C 254.07,450.91 250.9,447.57 246.94,447.67 C 243.06,447.76 240.14,451.22 239.99,455.25 C 239.9,457.61 241.08,459.81 242.96,461.14 C 245.15,462.7 248.1,462.85 250.47,461.61 L 250.47,461.61 L 253.98,467.32 L 252.07,467.38 L 253.25,470.05 z "
   style="fill:white;fill-rule:nonzero;stroke:white;stroke-width:0"
   id="path18" />
<path
   d="M 247.7,455.02 L 250.83,460.1 L 250.83,460.1 C 252.38,458.88 253.25,457.07 253.16,455.14 C 253,451.71 250.48,448.79 247.18,448.75 C 243.8,448.71 241.15,451.62 240.98,455.12 C 240.89,457.17 241.91,459.09 243.53,460.26 C 244.68,461.1 246.1,461.46 247.51,461.42 C 248.33,461.39 249.27,461.15 249.95,460.69 L 249.95,460.69 L 246.76,455.54 L 246.76,455.54 C 246.75,455.53 246.55,455.2 246.54,455.18 C 246.5,454.97 246.59,454.75 246.76,454.62 C 246.98,454.46 247.28,454.47 247.49,454.66 L 247.49,454.66 L 247.7,455.02 z "
   style="fill:#0070ff;fill-rule:nonzero;stroke:#0070ff;stroke-width:0"
   id="path20" />
<path
   d="M 273.36,456.29 L 271.16,460.87 L 271.16,460.87 C 273,461.47 275.03,461.25 276.64,460.18 C 278.35,459.03 279.46,457.09 279.4,454.98 C 279.29,451.53 276.77,448.59 273.45,448.51 C 270.28,448.44 267.65,450.95 267.21,454.22 C 267.2,454.32 267.18,454.46 267.17,454.56 L 267.17,454.56 L 271.98,454.63 L 271.98,454.63 C 272.19,454.02 272.75,453.49 273.37,453.54 C 274.04,453.61 274.55,454.17 274.58,454.86 C 274.61,455.59 274.06,456.22 273.36,456.29 z "
   style="fill:#0070ff;fill-rule:nonzero;stroke:#0070ff;stroke-width:0"
   id="path22" />
<path
   d="M 253.94,465.11 L 266.86,465.09 L 262.47,457.36 L 262.47,457.36 C 262.55,457.5 261.51,457.72 261.55,457.56 L 261.55,457.56 L 261.39,458.25 L 261.88,458.4 L 261.75,458.82 L 260.28,458.43 L 260.39,457.99 L 260.88,458.12 L 261.04,457.5 L 261.04,457.5 C 260.77,457.42 260.42,457.22 260.23,457.02 L 260.23,457.02 L 252.66,462.98 L 253.94,465.11 z "
   style="fill:#0070ff;fill-rule:nonzero;stroke:#0070ff;stroke-width:0"
   id="path24" />
<path
   d="M 268.02,465.02 L 269.81,461.28 L 269.81,461.28 C 267.84,460.25 266.61,457.89 266.25,455.61 L 266.25,455.61 L 263.8,455.58 L 263.8,455.58 C 263.76,455.8 263.68,456.07 263.58,456.28 C 263.48,456.46 263.34,456.67 263.2,456.81 L 263.2,456.81 L 268.02,465.02 z "
   style="fill:#0070ff;fill-rule:nonzero;stroke:#0070ff;stroke-width:0"
   id="path26" />
<path
   d="M 270.3,460.44 L 272.41,455.99 L 272.41,455.99 C 272.33,455.91 272.22,455.77 272.17,455.68 L 272.17,455.68 L 267.25,455.62 L 267.25,455.62 C 267.3,457.6 268.69,459.43 270.3,460.44 z "
   style="fill:#0070ff;fill-rule:nonzero;stroke:#0070ff;stroke-width:0"
   id="path28" />
<path
   d="M 260.1,455.78 L 261.8,454.56 L 262,453.79 L 262,453.79 C 261.01,453.56 260.08,454.39 260.07,455.45 C 260.07,455.54 260.09,455.68 260.1,455.78 z "
   style="fill:#0070ff;fill-rule:nonzero;stroke:#0070ff;stroke-width:0"
   id="path30" />
<polygon
   points="260.67,456.6 260.7,456.62 260.73,456.64 260.76,456.67 260.79,456.69 260.82,456.71 260.85,456.73 260.89,456.75 260.92,456.77 260.95,456.79 260.99,456.8 261.02,456.82 261.06,456.83 261.09,456.85 261.13,456.86 261.16,456.87 261.18,456.87 261.2,456.88 261.2,456.88 261.4,456.03 260.67,456.6 "
   style="fill:#0070ff;fill-rule:nonzero;stroke:#0070ff;stroke-width:0"
   id="polygon32" />
<path
   d="M 261.81,456.42 L 261.68,456.92 L 261.68,456.92 C 261.8,456.95 261.97,456.91 262.09,456.89 L 262.09,456.89 L 261.81,456.42 z "
   style="fill:#0070ff;fill-rule:nonzero;stroke:#0070ff;stroke-width:0"
   id="path34" />
<path
   d="M 262.47,455.67 L 262.88,456.36 L 262.88,456.36 C 262.86,456.34 263.17,455.87 263.2,455.67 L 263.2,455.67 L 262.47,455.67 z "
   style="fill:#0070ff;fill-rule:nonzero;stroke:#0070ff;stroke-width:0"
   id="path36" />
<path
   d="M 262.29,454.59 L 263.11,454.59 L 263.11,454.59 C 263.01,454.41 262.86,454.2 262.71,454.06 C 262.64,454 262.55,453.93 262.48,453.87 L 262.48,453.87 L 262.29,454.59 z "
   style="fill:#0070ff;fill-rule:nonzero;stroke:#0070ff;stroke-width:0"
   id="path38" />
<path
   d="M 253.35,512.56 L 253.35,512.56 L 253.35,512.56 L 253.35,512.57 L 253.34,512.57 L 253.34,512.57 L 253.34,512.58 L 253.33,512.58 L 253.32,512.59 L 253.32,512.6 L 253.31,512.61 L 253.3,512.62 L 253.29,512.63 L 253.29,512.64 L 253.28,512.65 L 253.27,512.66 L 253.26,512.67 L 253.24,512.7 L 253.22,512.72 L 253.2,512.75 L 253.18,512.78 L 253.16,512.82 L 253.14,512.85 L 253.13,512.88 L 253.11,512.92 L 253.11,512.94 L 253.1,512.95 L 253.1,512.97 L 253.09,512.99 L 253.09,513.01 L 253.09,513.02 L 253.08,513.04 L 253.08,513.06 L 253.08,513.08 L 253.08,513.09 L 253.09,513.11 L 253.09,513.13 L 253.1,513.14 L 253.1,513.16 L 253.11,513.17 L 253.12,513.19 L 253.13,513.2 L 253.14,513.22 L 253.15,513.23 L 253.16,513.25 L 253.18,513.26 L 253.2,513.27 L 253.22,513.28 L 253.24,513.29 L 253.26,513.31 L 253.28,513.32 L 253.31,513.33 L 253.34,513.33 L 253.37,513.34 L 253.4,513.35 L 253.43,513.36 L 253.47,513.36 C 254.27,513.48 254.18,513.36 254.35,513.94 C 254.52,514.52 254.7,514.8 254.98,514.78 C 255.25,514.75 255.4,514.96 255.58,514.88 C 255.76,514.8 255.96,514.7 256.15,514.69 C 256.35,514.68 256.92,514.77 257.05,514.69 C 257.18,514.61 257.44,514.51 257.44,514.23 C 257.44,513.94 257.35,513.07 257.55,512.98 C 257.74,512.88 258.14,512.72 258.09,512.45 C 258.04,512.18 257.9,512.19 257.62,512.19 C 257.35,512.19 257.18,512.12 257.2,511.96 C 257.21,511.79 257.32,511.5 257.31,511.2 C 257.3,510.89 257.06,510.25 256.86,509.96 C 256.65,509.66 256.74,509.55 256.75,509.45 C 256.76,509.34 256.89,509.25 257,509.16 C 257.1,509.07 258.95,507.89 259.24,507.68 C 259.52,507.47 260.02,507.2 260.11,506.27 C 260.2,505.34 260.12,504.79 260.34,504.34 C 260.57,503.89 260.72,502.68 260.87,501.72 C 261.01,500.77 261.13,499.97 261.14,499.68 C 261.15,499.4 261.38,498.94 261.43,498.81 C 261.48,498.68 262.6,496.32 262.85,495.96 C 262.85,495.96 262.98,495.74 262.87,495.68 C 262.77,495.61 262.71,495.47 262.9,495.41 C 263.08,495.34 263.26,495.03 263.34,494.89 C 263.42,494.75 263.54,494.41 263.45,494.23 C 263.35,494.05 263.11,493.85 263.3,493.63 C 263.5,493.41 263.64,493.29 263.77,493.09 C 263.9,492.88 264.34,492.17 264.4,492.02 C 264.45,491.86 264.56,491.72 264.72,491.7 C 264.88,491.67 265.45,491.6 265.73,491.5 C 266,491.39 266.4,491.16 266.6,491.16 C 266.79,491.16 267.13,491.16 267.46,491.06 C 267.78,490.96 267.8,491.05 267.8,491.16 C 267.8,491.25 267.82,491.37 267.68,491.42 C 267.54,491.47 267.24,491.58 267.14,491.8 C 267.05,492.02 266.86,492.35 266.99,492.77 C 266.99,492.77 266.86,493.38 267.08,493.7 C 267.3,494.03 267.7,494.26 267.84,494.26 C 267.99,494.26 268.18,494.15 268.34,494.21 C 268.5,494.26 268.56,494.32 268.73,494.26 C 268.9,494.2 269.11,494.08 269.25,494.07 C 269.39,494.05 269.58,494.03 269.68,493.95 C 269.79,493.87 270.02,493.75 270.11,493.59 C 270.2,493.42 270.2,493.34 270.19,493 C 270.18,492.65 270.18,492.27 270.24,492.16 C 270.31,492.04 270.31,491.77 270.2,491.67 C 270.1,491.57 269.8,491.39 269.64,491.39 C 269.49,491.39 269.46,491.35 269.46,491.25 C 269.46,491.16 269.41,490.89 269.43,490.82 C 269.46,490.74 269.46,490.63 269.62,490.57 C 269.77,490.51 270.37,490.13 270.57,489.91 C 270.77,489.7 271.11,489.39 271.14,489.31 C 271.17,489.23 271.09,489.18 271.09,489.18 C 271.09,489.18 271.09,489.09 271.2,488.92 C 271.3,488.75 271.57,488.25 271.66,487.9 C 271.75,487.55 272.05,486.59 272.05,486.39 C 272.05,486.2 272.25,485.5 272.25,485.41 C 272.25,485.3 272.13,485.32 272.13,485.32 C 272.13,485.32 272.21,485.02 272.21,484.88 C 272.21,484.73 272.2,484.63 272.08,484.57 C 271.96,484.5 271.96,484.4 271.83,484.4 C 271.7,484.4 271.74,484.46 271.61,484.53 C 271.48,484.59 271.36,484.62 271.39,484.73 C 271.41,484.85 271.4,485.17 271.4,485.24 C 271.4,485.3 271.38,485.36 271.32,485.36 C 271.27,485.36 271.14,485.43 271.14,485.62 C 271.14,485.82 271.07,486.23 271.04,486.37 C 271,486.51 271.06,486.75 271,486.87 C 270.93,486.99 270.41,487.58 270.32,487.75 C 270.23,487.92 270.15,487.76 270.15,487.67 C 270.15,487.58 270.17,486.74 270.24,486.59 C 270.32,486.43 270.24,486.23 270.39,485.92 C 270.53,485.61 270.86,484.25 270.91,484.06 C 270.96,483.87 271.11,483.57 271.11,483.29 C 271.13,483 271.27,482.59 270.89,482.61 C 270.52,482.62 270.31,482.46 269.97,482.58 C 269.63,482.7 269.61,482.58 269.62,482.44 C 269.63,482.3 269.68,481.78 269.77,481.54 C 269.86,481.29 269.66,480.53 269.79,480.27 C 269.92,480.02 270.07,479.97 270.11,479.89 C 270.17,479.79 270.2,479.52 269.97,479.11 C 269.73,478.7 269.02,478.5 268.89,478.93 C 268.76,479.36 268.92,479.44 269.01,479.57 C 269.1,479.72 269.1,479.91 268.94,480.05 C 268.79,480.2 268.47,480.97 268.41,481.15 C 268.34,481.33 268.04,482.26 267.98,482.45 C 267.91,482.64 267.81,482.8 267.7,482.58 C 267.6,482.36 267.35,481.85 267.39,481.61 C 267.43,481.38 267.5,481.15 267.5,480.93 C 267.5,480.71 267.38,479.86 267.3,479.63 C 267.22,479.4 267.3,479.33 267.34,479.19 C 267.38,479.05 267.57,478.77 267.39,478.64 C 267.21,478.5 266.21,478.11 266.05,478.05 C 265.89,478 265.67,478.27 265.77,478.55 C 265.88,478.82 266.22,479.02 266.27,479.12 C 266.32,479.23 266.32,479.27 266.25,479.54 C 266.16,479.81 266.1,480.99 266.16,481.18 C 266.21,481.36 266.25,481.69 266.08,481.8 C 265.91,481.92 265.87,482.29 265.91,482.48 C 265.95,482.67 266.04,483.3 266.01,483.4 C 265.98,483.51 266.04,483.62 265.87,483.68 C 265.7,483.73 264.88,484.14 264.81,484.41 C 264.75,484.68 264.81,484.93 265.02,485.18 C 265.23,485.44 266.01,486.64 266.18,487.2 C 266.35,487.75 266.5,488.43 266.5,488.82 C 266.5,489.2 266.54,489.48 266.4,489.54 C 266.27,489.61 264.88,490.28 264.63,490.26 C 264.38,490.25 263.47,490.77 263.33,490.96 C 263.19,491.16 262.98,491.29 262.69,492.29 C 262.4,493.28 262.47,493.33 262.23,493.34 C 262,493.36 261.44,493.55 261.28,493.86 C 261.13,494.17 261.47,494.55 261.16,494.45 C 260.87,494.35 260.84,494.26 260.63,494.62 C 260.43,494.98 259.3,497.57 258.96,498.69 C 258.62,499.82 258.64,499.21 258.64,499.02 C 258.64,498.82 258.76,497.63 258.85,497.39 C 258.94,497.14 258.93,496.79 258.95,496.41 C 258.98,496.04 259.11,494.72 259.21,494.21 C 259.32,493.69 259.12,493.85 258.95,493.78 C 258.78,493.72 258.74,493.59 258.76,493.48 C 258.77,493.38 258.55,491.57 258.51,491.19 C 258.47,490.82 258.14,488.73 258.11,488.55 C 258.07,488.37 258.07,488.28 258.11,488.11 C 258.14,487.94 258.72,484.73 258.72,484.42 C 258.72,484.11 258.99,482.85 259,482.66 C 259.02,482.46 258.96,482.48 258.93,482.36 C 258.89,482.25 258.95,482.2 259.02,482.04 C 259.08,481.87 259.36,481.8 259.32,481.48 C 259.28,481.16 259.12,481.09 258.95,480.87 C 258.78,480.64 258.43,479.66 257.83,479.38 C 257.23,479.09 256.76,479.25 256.66,479.54 C 256.55,479.82 256.61,480.24 256.96,480.38 C 256.96,480.38 257.14,480.48 257.17,480.58 C 257.2,480.69 257.17,480.82 257.03,480.84 C 256.88,480.86 256.86,481.31 256.7,482.36 C 256.54,483.42 256.29,484.59 256.12,485.14 C 255.97,485.7 255.38,488.11 255.32,488.29 C 255.25,488.47 255.2,488.98 255.24,489.31 C 255.28,489.63 255.2,491.8 254.98,490.83 C 254.76,489.86 254.3,488.28 254.21,487.98 C 254.12,487.69 254.09,487.52 254.09,487.39 C 254.09,487.26 254.22,482.52 254.15,480.31 C 254.15,480.31 254.16,480.18 254.04,480.17 C 253.93,480.16 254.1,479.92 254.13,479.81 C 254.16,479.69 254.37,479.25 254.02,479.1 C 253.66,478.95 253.13,478.88 252.77,478.67 C 252.4,478.47 251.45,478.26 250.87,478.48 C 250.28,478.7 250.88,479.63 251.74,479.57 C 251.74,479.57 252.09,479.62 251.8,479.69 C 251.8,479.69 251.68,479.7 251.7,479.98 C 251.71,480.25 251.71,484.14 251.57,485.71 C 251.42,487.29 251.19,489.04 251.54,490.62 C 251.89,492.21 252.01,493.99 251.79,494.03 C 251.57,494.07 251.29,494.09 251.35,494.48 C 251.4,494.87 251.66,497.08 251.77,497.78 C 251.89,498.47 252.28,499.08 252.26,499.48 C 252.23,499.88 252.22,501.81 251.88,501.16 C 251.54,500.5 251.32,500.2 251.3,499.38 C 251.29,498.55 251,497.14 250.9,496.8 C 250.8,496.46 250.6,495.13 250.59,494.77 C 250.58,494.41 250.4,494.61 250.26,494.62 C 250.13,494.63 249.96,494.75 249.93,494.53 C 249.89,494.31 249.98,494.31 250.02,494.1 C 250.06,493.9 250.16,493.5 249.79,493.2 C 249.4,492.9 249.29,492.58 248.75,492.65 C 248.22,492.71 248.06,493.16 248.12,493.65 C 248.17,494.14 248.31,494.48 248.49,494.66 C 248.68,494.84 248.61,494.92 248.51,494.95 C 248.4,494.99 248.17,494.94 248.19,495.25 C 248.22,495.56 248.61,498.24 248.66,498.88 C 248.71,499.5 248.65,500.95 248.96,501.84 C 249.27,502.73 249.9,505.1 250.06,506.23 C 250.21,507.37 250.82,508.04 251.21,508.26 C 251.58,508.48 254.04,509.39 254.17,509.52 C 254.3,509.65 254.5,509.89 254.34,510.21 C 254.18,510.54 253.89,510.91 253.89,511.38 C 253.89,511.84 253.94,512.25 253.78,512.32 C 253.63,512.38 253.38,512.5 253.35,512.56 L 253.35,512.56 L 253.35,512.56 L 253.35,512.56 z "
   style="fill:white;fill-rule:nonzero;stroke:white;stroke-width:0"
   id="path40" />
</g>  </g>
</svg>
