<?xml version="1.0" encoding="UTF-8" standalone="no"?>
<!DOCTYPE svg PUBLIC "-//W3C//DTD SVG 1.0//EN" "http://www.w3.org/TR/2001/REC-SVG-20010904/DTD/svg10.dtd">
<svg
   xmlns:svg="http://www.w3.org/2000/svg"
   xmlns="http://www.w3.org/2000/svg"
   version="1.0"
   width="106.65369"
   height="106.65369"
   id="svg1887">
  <defs
     id="defs1889" />
  <g
     transform="translate(-298.1017,-344.7497)"
     id="layer1">
    <g
       transform="matrix(1.249992,0,0,-1.249992,-19.21906,929.0981)"
       style="font-style:normal;font-variant:normal;font-weight:normal;font-stretch:normal;letter-spacing:normal;word-spacing:normal;text-anchor:start;fill:none;fill-opacity:1;stroke:black;stroke-linecap:butt;stroke-linejoin:miter;stroke-miterlimit:10.43299961;stroke-dasharray:none;stroke-dashoffset:0;stroke-opacity:1"
       id="g10"
       xml:space="preserve">
<path
   d="M 296.52,467.34 L 298.7,467.29 L 300.86,467.12 L 302.99,466.85 L 305.08,466.48 L 307.13,466 L 309.15,465.43 L 311.13,464.76 L 313.06,464 L 314.94,463.15 L 316.77,462.21 L 318.55,461.18 L 320.28,460.08 L 321.95,458.89 L 323.55,457.63 L 325.1,456.29 L 326.57,454.88 L 327.98,453.4 L 329.32,451.86 L 330.58,450.25 L 331.77,448.59 L 332.87,446.86 L 333.9,445.08 L 334.84,443.25 L 335.69,441.36 L 336.45,439.43 L 337.12,437.46 L 337.7,435.44 L 338.17,433.39 L 338.54,431.29 L 338.82,429.17 L 338.98,427.01 L 339.04,424.82 C 339.04,401.37 319.98,382.3 296.52,382.3 C 273.06,382.3 254,401.37 254,424.82 C 254,448.28 273.06,467.34 296.52,467.34 z "
   style="fill:white;fill-rule:nonzero;stroke:white;stroke-width:0;stroke-linejoin:round"
   id="path12" />
<path
   d="M 296.52,467.34 L 298.7,467.29 L 300.86,467.12 L 302.99,466.85 L 305.08,466.48 L 307.13,466 L 309.15,465.43 L 311.13,464.76 L 313.06,464 L 314.94,463.15 L 316.77,462.21 L 318.55,461.18 L 320.28,460.08 L 321.95,458.89 L 323.55,457.63 L 325.1,456.29 L 326.57,454.88 L 327.98,453.4 L 329.32,451.86 L 330.58,450.25 L 331.77,448.59 L 332.87,446.86 L 333.9,445.08 L 334.84,443.25 L 335.69,441.36 L 336.45,439.43 L 337.12,437.46 L 337.7,435.44 L 338.17,433.39 L 338.54,431.29 L 338.82,429.17 L 338.98,427.01 L 339.04,424.82 C 339.04,401.37 319.98,382.3 296.52,382.3 C 273.06,382.3 254,401.37 254,424.82 C 254,448.28 273.06,467.34 296.52,467.34 z "
   style="stroke-width:0.28349999;stroke-linejoin:round"
   id="path14" />
<path
   d="M 296.51,465.93 L 297.55,465.91 L 298.59,465.88 L 299.62,465.81 L 300.64,465.72 L 301.66,465.61 L 302.67,465.47 L 303.68,465.31 L 304.68,465.12 L 305.68,464.9 L 306.67,464.66 L 307.65,464.4 L 308.63,464.11 L 309.61,463.79 L 310.58,463.45 L 311.54,463.08 L 312.5,462.69 C 317.41,460.61 321.77,457.67 325.56,453.88 C 329.36,450.08 332.3,445.73 334.38,440.81 C 336.54,435.72 337.61,430.39 337.61,424.82 C 337.61,419.25 336.54,413.93 334.38,408.84 C 332.3,403.92 329.36,399.56 325.56,395.77 C 321.77,391.97 317.41,389.04 312.5,386.95 C 307.41,384.8 302.08,383.72 296.51,383.72 C 290.94,383.72 285.61,384.8 280.52,386.95 C 275.61,389.04 271.25,391.97 267.46,395.77 C 263.66,399.56 260.72,403.92 258.64,408.84 C 256.48,413.93 255.41,419.25 255.41,424.82 C 255.41,430.39 256.48,435.72 258.64,440.81 C 260.72,445.73 263.66,450.08 267.46,453.88 C 271.25,457.67 275.61,460.61 280.52,462.69 C 285.61,464.85 290.94,465.93 296.51,465.93 z "
   style="fill:#0070ff;fill-rule:nonzero;stroke:#0070ff;stroke-width:0"
   id="path16" />
<path
   d="M 285.29,452.9 L 285.28,452.9 L 285.28,452.91 L 285.28,452.91 L 285.27,452.91 L 285.27,452.92 L 285.26,452.93 L 285.25,452.94 L 285.24,452.95 L 285.23,452.96 L 285.22,452.98 L 285.2,452.99 L 285.19,453.01 L 285.18,453.02 L 285.16,453.04 L 285.15,453.06 L 285.13,453.08 L 285.1,453.12 L 285.07,453.17 L 285.03,453.21 L 285,453.26 L 284.97,453.32 L 284.94,453.37 L 284.92,453.43 L 284.89,453.48 L 284.88,453.51 L 284.87,453.54 L 284.86,453.57 L 284.86,453.6 L 284.85,453.63 L 284.85,453.65 L 284.84,453.68 L 284.84,453.71 L 284.84,453.74 L 284.85,453.77 L 284.85,453.79 L 284.86,453.82 L 284.86,453.85 L 284.87,453.87 L 284.88,453.9 L 284.9,453.92 L 284.91,453.95 L 284.93,453.97 L 284.95,453.99 L 284.98,454.02 L 285,454.04 L 285.03,454.06 L 285.06,454.08 L 285.1,454.1 L 285.13,454.11 L 285.17,454.13 L 285.22,454.15 L 285.26,454.16 L 285.31,454.17 L 285.36,454.19 L 285.42,454.2 L 285.48,454.21 C 286.79,454.39 286.65,454.21 286.93,455.16 C 287.21,456.1 287.51,456.57 287.96,456.53 C 288.41,456.48 288.64,456.82 288.94,456.69 C 289.25,456.57 289.57,456.4 289.89,456.38 C 290.21,456.36 291.15,456.5 291.37,456.38 C 291.58,456.25 292.01,456.08 292.01,455.62 C 292.01,455.16 291.86,453.73 292.18,453.57 C 292.5,453.42 293.16,453.15 293.07,452.71 C 292.99,452.27 292.76,452.29 292.31,452.29 C 291.86,452.29 291.58,452.18 291.6,451.91 C 291.62,451.63 291.82,451.17 291.8,450.67 C 291.77,450.16 291.38,449.12 291.05,448.64 C 290.7,448.16 290.86,447.97 290.87,447.8 C 290.89,447.63 291.11,447.49 291.28,447.34 C 291.45,447.19 294.49,445.25 294.96,444.91 C 295.43,444.57 296.25,444.13 296.39,442.62 C 296.55,441.1 296.42,440.2 296.78,439.46 C 297.14,438.72 297.4,436.74 297.64,435.18 C 297.88,433.62 298.07,432.31 298.09,431.84 C 298.11,431.38 298.47,430.62 298.56,430.42 C 298.64,430.21 300.48,426.34 300.89,425.76 C 300.89,425.76 301.11,425.4 300.93,425.29 C 300.76,425.19 300.68,424.95 300.98,424.85 C 301.28,424.75 301.58,424.24 301.7,424.01 C 301.84,423.78 302.03,423.23 301.88,422.93 C 301.72,422.64 301.32,422.3 301.64,421.95 C 301.96,421.59 302.2,421.39 302.41,421.06 C 302.62,420.72 303.36,419.56 303.45,419.31 C 303.52,419.06 303.71,418.82 303.97,418.79 C 304.23,418.75 305.18,418.63 305.62,418.47 C 306.07,418.3 306.73,417.92 307.06,417.92 C 307.38,417.92 307.94,417.92 308.47,417.75 C 309,417.58 309.03,417.73 309.03,417.9 C 309.03,418.07 309.07,418.25 308.84,418.34 C 308.6,418.43 308.11,418.59 307.95,418.95 C 307.81,419.31 307.49,419.86 307.7,420.54 C 307.7,420.54 307.49,421.55 307.85,422.07 C 308.21,422.6 308.88,422.98 309.11,422.98 C 309.35,422.98 309.67,422.8 309.93,422.89 C 310.19,422.98 310.29,423.08 310.57,422.98 C 310.85,422.87 311.19,422.68 311.43,422.66 C 311.66,422.64 311.96,422.6 312.13,422.47 C 312.3,422.34 312.69,422.15 312.84,421.88 C 312.99,421.6 312.99,421.48 312.96,420.91 C 312.95,420.34 312.95,419.73 313.05,419.54 C 313.16,419.35 313.16,418.91 312.99,418.75 C 312.82,418.57 312.32,418.3 312.07,418.3 C 311.81,418.3 311.77,418.21 311.77,418.07 C 311.77,417.92 311.68,417.48 311.72,417.35 C 311.77,417.22 311.77,417.05 312.02,416.95 C 312.28,416.84 313.26,416.23 313.59,415.88 C 313.91,415.52 314.48,415.02 314.53,414.89 C 314.57,414.76 314.45,414.68 314.45,414.68 C 314.45,414.68 314.45,414.52 314.62,414.25 C 314.79,413.98 315.24,413.16 315.39,412.59 C 315.54,412.02 316.02,410.44 316.02,410.12 C 316.02,409.81 316.35,408.66 316.35,408.5 C 316.35,408.33 316.16,408.38 316.16,408.38 C 316.16,408.38 316.29,407.87 316.29,407.63 C 316.29,407.41 316.26,407.23 316.07,407.13 C 315.88,407.03 315.88,406.86 315.66,406.86 C 315.45,406.86 315.51,406.96 315.3,407.07 C 315.09,407.17 314.89,407.22 314.94,407.41 C 314.98,407.6 314.96,408.12 314.96,408.23 C 314.96,408.33 314.92,408.44 314.83,408.44 C 314.74,408.44 314.53,408.54 314.53,408.86 C 314.53,409.18 314.42,409.85 314.36,410.07 C 314.29,410.31 314.4,410.71 314.29,410.9 C 314.19,411.09 313.33,412.06 313.18,412.34 C 313.04,412.61 312.9,412.36 312.9,412.21 C 312.9,412.06 312.93,410.69 313.05,410.44 C 313.18,410.19 313.05,409.85 313.29,409.34 C 313.52,408.84 314.06,406.62 314.14,406.31 C 314.23,405.99 314.47,405.5 314.48,405.04 C 314.51,404.58 314.74,403.91 314.12,403.93 C 313.5,403.95 313.16,403.7 312.6,403.88 C 312.04,404.07 312,403.88 312.02,403.65 C 312.04,403.42 312.13,402.58 312.28,402.18 C 312.43,401.78 312.09,400.54 312.3,400.11 C 312.52,399.7 312.77,399.61 312.84,399.48 C 312.93,399.32 312.99,398.89 312.6,398.22 C 312.22,397.54 311.04,397.22 310.83,397.92 C 310.61,398.61 310.87,398.75 311.02,398.97 C 311.17,399.21 311.17,399.52 310.91,399.75 C 310.66,399.98 310.14,401.25 310.03,401.55 C 309.93,401.84 309.43,403.36 309.33,403.68 C 309.22,403.99 309.05,404.25 308.88,403.88 C 308.71,403.53 308.3,402.69 308.37,402.3 C 308.43,401.93 308.54,401.55 308.54,401.19 C 308.54,400.83 308.34,399.44 308.21,399.06 C 308.09,398.68 308.21,398.58 308.28,398.34 C 308.34,398.11 308.67,397.65 308.37,397.44 C 308.06,397.22 306.42,396.57 306.16,396.49 C 305.91,396.41 305.54,396.85 305.7,397.29 C 305.88,397.73 306.43,398.07 306.52,398.23 C 306.61,398.41 306.61,398.47 306.48,398.91 C 306.35,399.35 306.25,401.29 306.33,401.59 C 306.42,401.88 306.48,402.43 306.2,402.62 C 305.93,402.81 305.86,403.4 305.93,403.71 C 305.98,404.03 306.14,405.07 306.1,405.23 C 306.05,405.4 306.14,405.59 305.86,405.68 C 305.58,405.76 304.23,406.43 304.13,406.88 C 304.02,407.32 304.13,407.72 304.46,408.14 C 304.81,408.56 306.1,410.52 306.37,411.43 C 306.65,412.34 306.91,413.45 306.91,414.09 C 306.91,414.71 306.95,415.16 306.73,415.26 C 306.52,415.37 304.23,416.46 303.83,416.45 C 303.42,416.43 301.92,417.27 301.68,417.58 C 301.45,417.9 301.11,418.13 300.63,419.75 C 300.16,421.38 300.27,421.46 299.89,421.48 C 299.5,421.5 298.58,421.82 298.32,422.32 C 298.07,422.83 298.62,423.46 298.12,423.3 C 297.64,423.12 297.6,422.98 297.25,423.57 C 296.91,424.16 295.07,428.39 294.51,430.23 C 293.95,432.06 293.98,431.07 293.98,430.75 C 293.98,430.43 294.17,428.49 294.32,428.1 C 294.47,427.7 294.45,427.11 294.49,426.5 C 294.53,425.88 294.75,423.73 294.92,422.89 C 295.09,422.05 294.77,422.3 294.49,422.2 C 294.21,422.09 294.14,421.88 294.17,421.71 C 294.19,421.55 293.83,418.57 293.76,417.96 C 293.7,417.35 293.16,413.94 293.1,413.64 C 293.04,413.35 293.04,413.2 293.1,412.93 C 293.16,412.65 294.11,407.41 294.11,406.9 C 294.11,406.39 294.56,404.33 294.58,404.01 C 294.6,403.7 294.51,403.71 294.45,403.53 C 294.39,403.34 294.49,403.27 294.6,403 C 294.7,402.73 295.15,402.62 295.09,402.09 C 295.03,401.57 294.77,401.45 294.49,401.08 C 294.21,400.72 293.63,399.11 292.65,398.64 C 291.66,398.18 290.89,398.45 290.72,398.91 C 290.55,399.38 290.63,400.05 291.21,400.28 C 291.21,400.28 291.52,400.45 291.55,400.62 C 291.6,400.79 291.55,401.02 291.32,401.04 C 291.09,401.07 291.05,401.8 290.79,403.53 C 290.53,405.26 290.11,407.17 289.85,408.08 C 289.59,408.98 288.62,412.93 288.52,413.22 C 288.41,413.51 288.33,414.36 288.39,414.89 C 288.45,415.41 288.33,418.95 287.96,417.38 C 287.6,415.79 286.84,413.2 286.7,412.71 C 286.55,412.23 286.5,411.96 286.5,411.74 C 286.5,411.54 286.72,403.78 286.59,400.18 C 286.59,400.18 286.61,399.97 286.42,399.95 C 286.23,399.92 286.53,399.54 286.57,399.35 C 286.61,399.16 286.95,398.45 286.38,398.2 C 285.8,397.95 284.92,397.84 284.32,397.5 C 283.72,397.17 282.16,396.82 281.2,397.18 C 280.23,397.54 281.22,399.06 282.63,398.97 C 282.63,398.97 283.21,399.04 282.73,399.16 C 282.73,399.16 282.55,399.18 282.56,399.63 C 282.59,400.07 282.59,406.43 282.36,409.01 C 282.11,411.58 281.73,414.44 282.31,417.03 C 282.88,419.63 283.08,422.53 282.72,422.6 C 282.36,422.66 281.9,422.7 281.99,423.34 C 282.07,423.97 282.5,427.59 282.69,428.73 C 282.88,429.87 283.53,430.86 283.49,431.52 C 283.44,432.16 283.42,435.32 282.86,434.25 C 282.31,433.18 281.95,432.7 281.92,431.34 C 281.9,430 281.43,427.68 281.26,427.13 C 281.09,426.58 280.77,424.41 280.75,423.82 C 280.73,423.23 280.43,423.54 280.21,423.57 C 280,423.59 279.72,423.78 279.65,423.42 C 279.59,423.06 279.74,423.06 279.8,422.72 C 279.87,422.39 280.04,421.74 279.42,421.25 C 278.79,420.76 278.6,420.24 277.73,420.34 C 276.85,420.45 276.59,421.19 276.68,421.98 C 276.76,422.79 277,423.34 277.3,423.63 C 277.6,423.92 277.5,424.05 277.32,424.11 C 277.15,424.18 276.76,424.09 276.8,424.6 C 276.85,425.11 277.5,429.49 277.57,430.52 C 277.66,431.55 277.55,433.91 278.07,435.37 C 278.58,436.82 279.61,440.7 279.87,442.55 C 280.12,444.41 281.13,445.5 281.76,445.86 C 282.37,446.22 286.42,447.72 286.63,447.93 C 286.84,448.14 287.17,448.54 286.91,449.06 C 286.65,449.59 286.16,450.2 286.16,450.96 C 286.16,451.72 286.25,452.39 285.99,452.5 C 285.74,452.61 285.32,452.8 285.29,452.9 L 285.29,452.9 L 285.29,452.9 L 285.29,452.9 z "
   style="fill:white;fill-rule:nonzero;stroke:white;stroke-width:0"
   id="path18" />
</g>  </g>
</svg>
