<?xml version="1.0" encoding="utf-8"?>
<!-- Generator: Adobe Illustrator 15.0.0, SVG Export Plug-In  -->
<!DOCTYPE svg PUBLIC "-//W3C//DTD SVG 1.1//EN" "http://www.w3.org/Graphics/SVG/1.1/DTD/svg11.dtd" [
	<!ENTITY ns_flows "http://ns.adobe.com/Flows/1.0/">
]>
<svg version="1.1"
	 xmlns="http://www.w3.org/2000/svg" xmlns:xlink="http://www.w3.org/1999/xlink" xmlns:a="http://ns.adobe.com/AdobeSVGViewerExtensions/3.0/"
	 x="0px" y="0px" width="503px" height="505px" viewBox="0 -0.61 503 505" enable-background="new 0 -0.61 503 505"
	 xml:space="preserve">
<defs>
</defs>
<g>
	<rect x="0.5" y="0.5" fill="#FFFFFF" width="502" height="503"/>
	<g>
		<polyline fill="none" stroke="#000000" points="502.5,497.5 502.5,503.5 496.5,503.5 		"/>
		<line fill="none" stroke="#000000" stroke-dasharray="11.9512,11.9512" x1="484.549" y1="503.5" x2="12.476" y2="503.5"/>
		<polyline fill="none" stroke="#000000" points="6.5,503.5 0.5,503.5 0.5,497.5 		"/>
		<line fill="none" stroke="#000000" stroke-dasharray="11.9756,11.9756" x1="0.5" y1="485.524" x2="0.5" y2="12.488"/>
		<polyline fill="none" stroke="#000000" points="0.5,6.5 0.5,0.5 6.5,0.5 		"/>
		<line fill="none" stroke="#000000" stroke-dasharray="11.9512,11.9512" x1="18.451" y1="0.5" x2="490.524" y2="0.5"/>
		<polyline fill="none" stroke="#000000" points="496.5,0.5 502.5,0.5 502.5,6.5 		"/>
		<line fill="none" stroke="#000000" stroke-dasharray="11.9756,11.9756" x1="502.5" y1="18.476" x2="502.5" y2="491.512"/>
	</g>
</g>
<rect x="18.5" y="17.5" stroke="#000000" width="467" height="469"/>
<rect x="51" y="52.5" fill="#FFFFFF" stroke="#000000" width="401" height="399"/>
<path fill="#010101" d="M367,223.47V77.89H183.512v40.92v50.581v54.08h23.708l0.058,4.104H207v16.235h0.498l2.08,152.003h-26.066
	v31.578H367v-31.578h-27.215l6.807-172.341H367z M337.117,192.962H213.918v-85.1h123.199V192.962z"/>
<path d="M210,256.25h-12v-0.083h-16v0.083v16.25v76.667h0.096c-1.184,7.563-8,13.368-16.262,13.368
	c-8.62,0-15.656-6.324-16.371-14.367h0.071V195.029L193,136.167l-5.95-26.667l-53.051,76.001V347.5h-0.314
	c0.374,16.627,14.618,30,32.149,30c16.94,0,30.809-12.488,32.062-28.333H198V272.5h12V256.25z"/>
</svg>
