<?xml version="1.0" encoding="UTF-8" standalone="no"?>
<!--
   ***************************************************************************
   Bundesanstalt fuer Strassenwesen
   RWB-Symbol Nr.: 9
   Bezeichnung:
   Hafen, Faehrhafen, Faehre
   Ausdehnung in cm:
         X_min     X_max     Y_min     Y_max
         0.00000  15.00000   0.00000  15.00000
-->
<svg
   xmlns:dc="http://purl.org/dc/elements/1.1/"
   xmlns:cc="http://web.resource.org/cc/"
   xmlns:rdf="http://www.w3.org/1999/02/22-rdf-syntax-ns#"
   xmlns:svg="http://www.w3.org/2000/svg"
   xmlns="http://www.w3.org/2000/svg"
   xmlns:sodipodi="http://inkscape.sourceforge.net/DTD/sodipodi-0.dtd"
   xmlns:inkscape="http://www.inkscape.org/namespaces/inkscape"
   width="150"
   height="100"
   version="1.0"
   id="svg2"
   sodipodi:version="0.32"
   inkscape:version="0.43"
   sodipodi:docname="RWBA_Fähre(R).svg"
   sodipodi:docbase="/home/torben/Desktop">
  <metadata
     id="metadata17">
    <rdf:RDF>
      <cc:Work
         rdf:about="">
        <dc:format>image/svg+xml</dc:format>
        <dc:type
           rdf:resource="http://purl.org/dc/dcmitype/StillImage" />
      </cc:Work>
    </rdf:RDF>
  </metadata>
  <defs
     id="defs15" />
  <sodipodi:namedview
     inkscape:window-height="673"
     inkscape:window-width="1024"
     inkscape:pageshadow="2"
     inkscape:pageopacity="0.0"
     borderopacity="1.0"
     bordercolor="#666666"
     pagecolor="#ffffff"
     id="base"
     inkscape:zoom="2.6866667"
     inkscape:cx="75"
     inkscape:cy="48.300784"
     inkscape:window-x="0"
     inkscape:window-y="23"
     inkscape:current-layer="svg2" />
<!--
   ***************************************************************************
--><!--
      INHALT
-->  <path
     d="M 8,67.8453 L 10,68.6786 L 12.142855,69.57143 C 16.714276,71.47619 21.857124,71.47619 26.428545,69.57143 L 30.714255,67.78577 C 35.285676,65.88101 40.428524,65.88101 44.999945,67.78577 L 49.285755,69.57143 C 53.857176,71.47619 59.000024,71.47619 63.571445,69.57143 L 67.857155,67.78577 C 70.120455,66.84273 72.548093,66.3572 75,66.3572 C 77.451907,66.3572 79.879545,66.84273 82.142845,67.78577 L 86.428555,69.57143 C 90.999976,71.47619 96.142824,71.47619 100.71424,69.57143 L 105.00006,67.78577 C 109.57148,65.88101 114.71432,65.88101 119.28574,67.78577 L 123.57146,69.57143 C 128.14288,71.47619 133.28572,71.47619 137.85714,69.57143 L 140,68.6786 L 142,67.8453 L 142,75.8453 L 140,76.6786 L 137.85714,77.57143 C 133.28572,79.47619 128.14288,79.47619 123.57146,77.57143 L 119.28574,75.78577 C 114.71432,73.88101 109.57148,73.88101 105.00006,75.78577 L 100.71424,77.57143 C 96.142824,79.47619 90.999976,79.47619 86.428555,77.57143 L 82.142845,75.78577 C 79.879545,74.84273 77.451907,74.3572 75,74.3572 C 72.548093,74.3572 70.120455,74.84273 67.857155,75.78577 L 63.571445,77.57143 C 59.000024,79.47619 53.857176,79.47619 49.285755,77.57143 L 44.999945,75.78577 C 40.428524,73.88101 35.285676,73.88101 30.714255,75.78577 L 26.428545,77.57143 C 21.857124,79.47619 16.714276,79.47619 12.142855,77.57143 L 10,76.6786 L 8,75.8453 L 8,67.8453 z "
     id="path6"
     style="fill:#000000;fill-rule:evenodd;stroke:none" />
<!--
       OBERE WASSERWELLE
       UNTERE WASSERWELLE
-->  <path
     d="M 8,82.8453 L 10,83.6786 L 12.142855,84.57143 C 16.714276,86.47619 21.857124,86.47619 26.428545,84.57143 L 30.714255,82.78577 C 35.285676,80.88101 40.428524,80.88101 44.999945,82.78577 L 49.285755,84.57143 C 53.857176,86.47619 59.000024,86.47619 63.571445,84.57143 L 67.857155,82.78577 C 70.120455,81.84273 72.548093,81.3572 75,81.3572 C 77.451907,81.3572 79.879545,81.84273 82.142845,82.78577 L 86.428555,84.57143 C 90.999976,86.47619 96.142824,86.47619 100.71424,84.57143 L 105.00006,82.78577 C 109.57148,80.88101 114.71432,80.88101 119.28574,82.78577 L 123.57146,84.57143 C 128.14288,86.47619 133.28572,86.47619 137.85714,84.57143 L 140,83.6786 L 142,82.8453 L 142,90.8453 L 140,91.6786 L 137.85714,92.57143 C 133.28572,94.47619 128.14288,94.47619 123.57146,92.57143 L 119.28574,90.78577 C 114.71432,88.88101 109.57148,88.88101 105.00006,90.78577 L 100.71424,92.57143 C 96.142824,94.47619 90.999976,94.47619 86.428555,92.57143 L 82.142845,90.78577 C 79.879545,89.84273 77.451907,89.3572 75,89.3572 C 72.548093,89.3572 70.120455,89.84273 67.857155,90.78577 L 63.571445,92.57143 C 59.000024,94.47619 53.857176,94.47619 49.285755,92.57143 L 44.999945,90.78577 C 40.428524,88.88101 35.285676,88.88101 30.714255,90.78577 L 26.428545,92.57143 C 21.857124,94.47619 16.714276,94.47619 12.142855,92.57143 L 10,91.6786 L 8,90.8453 L 8,82.8453 z "
     id="path8"
     style="fill:#000000;fill-rule:evenodd;stroke:none" />
<!--
      SCHIFF
-->  <path
     d="M 16.329678,62.753775 C 12.209858,56.870063 10,49.861287 10,42.6786 L 10,40.6786 L 23.3333,40.6786 L 20,33.6786 L 47,33.6786 L 43.6667,26.6786 L 72,26.6786 L 69,20.6786 L 93,20.6786 L 96,26.6786 L 113,26.6786 L 116.3333,33.6786 L 141.4721,33.6786 L 139.337,38.9632 L 139.33698,38.963214 C 138.05941,42.125289 136.29211,45.066574 134.09994,47.679097 L 134.0999,47.6791 L 130.6116,51.3265 L 130.61163,51.326465 C 127.53074,54.998128 125.18229,59.226371 123.69342,63.782276 L 123.6934,63.7823 L 119.28574,61.821469 C 114.71432,59.91671 109.57148,59.91671 105.00006,61.821469 L 100.71424,63.607131 C 96.142824,65.51189 90.999976,65.51189 86.428555,63.607131 L 82.142845,61.821469 C 79.879545,60.878427 77.451907,60.3929 75,60.3929 C 72.548093,60.3929 70.120455,60.878427 67.857155,61.821469 L 63.571445,63.607131 C 59.000024,65.51189 53.857176,65.51189 49.285755,63.607131 L 44.999945,61.821469 C 40.428524,59.91671 35.285676,59.91671 30.714255,61.821469 L 26.428545,63.607131 C 24.165245,64.55017 21.737607,65.0357 19.2857,65.0357 L 19.006179,65.0357 C 17.93437,64.51526 17.013144,63.729843 16.329736,62.753835 L 16.329678,62.753775 z "
     id="path10"
     style="fill:#000000;fill-rule:evenodd;stroke:none" />
<!--
      HECK
      AUFBAU
      SCHORNSTEIN UNTERTEIL
      VORDECK
      BUG
      GEWELLTE WASSERLINIE
      SCHORNSTEIN
-->  <path
     d="M 91,14.6786 L 67,14.6786 L 63.6667,7.6786 L 87.6667,7.6786 L 91,14.6786 z "
     id="path12"
     style="fill:#000000;fill-rule:evenodd;stroke:none" />
</svg>
