<?xml version="1.0" encoding="UTF-8" standalone="no"?>
<svg
   xmlns:dc="http://purl.org/dc/elements/1.1/"
   xmlns:cc="http://creativecommons.org/ns#"
   xmlns:rdf="http://www.w3.org/1999/02/22-rdf-syntax-ns#"
   xmlns:svg="http://www.w3.org/2000/svg"
   xmlns="http://www.w3.org/2000/svg"
   xmlns:sodipodi="http://sodipodi.sourceforge.net/DTD/sodipodi-0.dtd"
   xmlns:inkscape="http://www.inkscape.org/namespaces/inkscape"
   version="1.0"
   width="124.38"
   height="124.38"
   id="svg1945"
   inkscape:version="0.48.4 r9939"
   sodipodi:docname="homezone.svg">
  <metadata
     id="metadata3849">
    <rdf:RDF>
      <cc:Work
         rdf:about="">
        <dc:format>image/svg+xml</dc:format>
        <dc:type
           rdf:resource="http://purl.org/dc/dcmitype/StillImage" />
      </cc:Work>
    </rdf:RDF>
  </metadata>
  <sodipodi:namedview
     pagecolor="#ffffff"
     bordercolor="#666666"
     borderopacity="1"
     objecttolerance="10"
     gridtolerance="10"
     guidetolerance="10"
     inkscape:pageopacity="0"
     inkscape:pageshadow="2"
     inkscape:window-width="640"
     inkscape:window-height="480"
     id="namedview3847"
     showgrid="false"
     inkscape:zoom="2.6534353"
     inkscape:cx="17.153331"
     inkscape:cy="44.470654"
     inkscape:window-x="0"
     inkscape:window-y="0"
     inkscape:window-maximized="0"
     inkscape:current-layer="svg1945" />
  <defs
     id="defs1947" />
  <g
     id="g3851"
     transform="translate(0,17.71935)">
    <g
       id="layer1"
       transform="translate(-180.6678,-390.7487)">
      <g
         xml:space="preserve"
         id="g10"
         style="font-style:normal;font-variant:normal;font-weight:normal;font-stretch:normal;letter-spacing:normal;word-spacing:normal;text-anchor:start;fill:none;stroke:#000000;stroke-linecap:butt;stroke-linejoin:miter;stroke-miterlimit:10.43299961;stroke-opacity:1;stroke-dasharray:none;stroke-dashoffset:0"
         transform="matrix(1.249992,0,0,-1.249992,-127.7655,966.1847)">
<polygon
   id="polygon12"
   style="fill:#ffffff;fill-rule:nonzero;stroke:#ffffff;stroke-width:0;stroke-linejoin:round"
   points="346.11,460.21 246.89,460.21 246.89,389.34 246.89,389.34 346.11,389.34 " />
<polygon
   id="polygon14"
   style="stroke-width:0.28349999;stroke-linejoin:round"
   points="346.11,460.21 246.89,460.21 246.89,389.34 246.89,389.34 346.11,389.34 " />
<path
   id="path16"
   style="fill:#000000;fill-rule:nonzero;stroke-width:0"
   d="m 251.15,458.8 -0.15,-0.01 -0.14,-0.01 -0.14,-0.02 -0.14,-0.02 -0.14,-0.03 -0.14,-0.04 -0.13,-0.05 -0.13,-0.05 -0.12,-0.05 -0.13,-0.07 -0.11,-0.06 -0.12,-0.08 -0.11,-0.08 -0.11,-0.08 -0.1,-0.09 -0.1,-0.09 -0.09,-0.1 -0.09,-0.11 -0.09,-0.1 -0.07,-0.11 -0.08,-0.12 -0.07,-0.12 -0.06,-0.12 -0.06,-0.13 -0.05,-0.12 -0.04,-0.14 -0.04,-0.13 -0.03,-0.14 -0.03,-0.14 -0.01,-0.14 -0.01,-0.14 -0.01,-0.15 0,0 0,-62.36 0,0 c 0,-1.57 1.27,-2.83 2.84,-2.83 l 0,0 90.71,0 0,0 c 1.56,0 2.83,1.26 2.83,2.83 l 0,0 0,62.36 0,0 c 0,1.57 -1.27,2.84 -2.83,2.84 l 0,0 -90.71,0 z"
   inkscape:connector-curvature="0" />
<path
   id="path18"
   style="fill:#ffffff;fill-rule:nonzero;stroke:#ffffff;stroke-width:0"
   d="m 251.15,457.38 -0.08,0 -0.07,0 -0.07,-0.01 -0.07,-0.02 -0.07,-0.01 -0.07,-0.02 -0.06,-0.02 -0.07,-0.03 -0.06,-0.03 -0.06,-0.03 -0.06,-0.03 -0.06,-0.04 -0.05,-0.04 -0.06,-0.04 -0.05,-0.05 -0.05,-0.04 -0.04,-0.05 -0.05,-0.05 -0.04,-0.06 -0.04,-0.05 -0.04,-0.06 -0.03,-0.06 -0.03,-0.06 -0.03,-0.07 -0.02,-0.06 -0.03,-0.07 -0.02,-0.06 -0.01,-0.07 -0.01,-0.07 -0.01,-0.07 -0.01,-0.08 0,-0.07 0,0 0,-62.36 0,0 c 0,-0.78 0.63,-1.42 1.42,-1.42 l 0,0 90.71,0 0,0 c 0.78,0 1.41,0.64 1.41,1.42 l 0,0 0,62.36 0,0 c 0,0.79 -0.63,1.42 -1.41,1.42 l 0,0 -90.71,0 z"
   inkscape:connector-curvature="0" />
<path
   id="path20"
   style="fill:#0070ff;fill-rule:nonzero;stroke:#0070ff;stroke-width:0"
   d="m 328.93,400.01 0,-3.58 -64.86,0 0,42.5 0,0 64.86,0 0.01,-25.79 0,0 c -2.68,2.77 -6.77,3.65 -10.34,2.21 -3.58,-1.44 -5.92,-4.91 -5.92,-8.76 0,-3.86 2.34,-7.33 5.92,-8.77 3.57,-1.44 7.65,-0.59 10.33,2.19 z"
   inkscape:connector-curvature="0" />
<path
   id="path22"
   style="fill:#ffffff;fill-rule:nonzero;stroke:#ffffff;stroke-width:0"
   d="m 306.15,426.69 0.05,0 0.04,-0.01 0.04,0 0.05,-0.01 0.04,-0.01 0.04,-0.01 0.04,-0.01 0.04,-0.02 0.04,-0.02 0.04,-0.02 0.03,-0.02 0.04,-0.02 0.03,-0.02 0.03,-0.03 0.04,-0.03 0.03,-0.03 0.03,-0.03 0.02,-0.03 0.03,-0.03 0.02,-0.03 0.02,-0.04 0.03,-0.04 0.01,-0.03 0.02,-0.04 0.02,-0.04 0.01,-0.04 0.01,-0.04 0.01,-0.04 0.01,-0.05 0.01,-0.04 0,-0.05 0,-0.04 c 0,-0.48 -0.39,-0.87 -0.87,-0.87 -0.47,0 -0.86,0.39 -0.86,0.87 0,0.48 0.39,0.87 0.86,0.87 z"
   inkscape:connector-curvature="0" />
<path
   id="path24"
   style="fill:#ffffff;fill-rule:nonzero;stroke:#ffffff;stroke-width:0"
   d="m 288.66,414.54 0.46,0 0.46,0.01 0.45,0.01 0.45,0.01 0.43,0.02 0.21,0.01 0.21,0.01 0.2,0.02 0.2,0.01 0.2,0.01 0.19,0.02 0.18,0.01 0.18,0.02 0.17,0.02 0.16,0.02 0.16,0.02 0.15,0.02 0.14,0.02 0.14,0.02 0.12,0.03 0.12,0.02 0.11,0.03 0.09,0.02 0.09,0.03 0.08,0.03 0.07,0.03 0.05,0.03 c 0,-0.94 -0.28,-2.69 1.3,-2.16 0.74,0.24 0.44,1.81 0.44,2.17 1.04,0.52 0.76,1.17 0.79,2.33 0.04,1.99 -0.38,3.98 -1.41,4.44 l 0,0 0.04,0.01 0,0 c 0.54,0.09 1.11,0.08 1.59,0.05 0.12,-0.02 0.22,0.05 0.23,0.23 l 0,0 -0.06,0.75 0,0 c 0,0.15 -0.1,0.2 -0.22,0.19 l 0,0 -0.83,0.03 0,0 c -0.29,0.02 -0.49,0.04 -0.67,-0.17 l 0,0 -0.39,-0.73 0,0 c -0.34,1.32 -0.53,2.44 -1,3.76 -0.32,0.88 -3.01,1.03 -5.28,1.01 -2.26,0.02 -4.96,-0.13 -5.27,-1.01 -0.48,-1.32 -0.67,-2.44 -1,-3.76 l 0,0 -0.39,0.73 0,0 c -0.18,0.21 -0.39,0.19 -0.67,0.17 l 0,0 -0.84,-0.03 0,0 c -0.11,0.01 -0.22,-0.04 -0.22,-0.19 l 0,0 -0.06,-0.75 0,0 c 0.01,-0.18 0.11,-0.25 0.23,-0.23 0.48,0.03 1.05,0.04 1.6,-0.05 l 0,0 0.03,-0.01 0,0 c -1.03,-0.46 -1.45,-2.45 -1.4,-4.44 0.03,-1.16 -0.25,-1.81 0.78,-2.33 0,-0.36 -0.29,-1.93 0.44,-2.17 1.58,-0.53 1.3,1.22 1.3,2.16 0.54,-0.32 3.02,-0.5 5.47,-0.5 z"
   inkscape:connector-curvature="0" />
<path
   id="path26"
   style="fill:#ffffff;fill-rule:nonzero;stroke:#ffffff;stroke-width:0"
   d="m 274.14,422.37 0.12,0 0.12,-0.01 0.11,-0.02 0.12,-0.02 0.11,-0.02 0.11,-0.03 0.11,-0.04 0.1,-0.04 0.11,-0.05 0.1,-0.05 0.09,-0.05 0.1,-0.07 0.09,-0.06 0.09,-0.07 0.08,-0.07 0.08,-0.08 0.08,-0.08 0.07,-0.08 0.07,-0.09 0.07,-0.09 0.06,-0.1 0.05,-0.09 0.06,-0.1 0.04,-0.11 0.04,-0.1 0.04,-0.11 0.03,-0.11 0.03,-0.11 0.02,-0.12 0.01,-0.11 0.01,-0.12 0,-0.12 c 0,-1.28 -1.04,-2.32 -2.32,-2.32 -1.28,0 -2.32,1.04 -2.32,2.32 0,1.28 1.04,2.32 2.32,2.32 z"
   inkscape:connector-curvature="0" />
<path
   id="path28"
   style="fill:#ffffff;fill-rule:nonzero;stroke:#ffffff;stroke-width:0"
   d="m 301.91,431.69 0.05,0 0.04,0 0.05,-0.01 0.05,-0.01 0.05,-0.01 0.04,-0.01 0.05,-0.02 0.04,-0.02 0.04,-0.01 0.05,-0.03 0.04,-0.02 0.04,-0.02 0.03,-0.03 0.04,-0.03 0.04,-0.03 0.03,-0.03 0.03,-0.04 0.03,-0.03 0.03,-0.04 0.03,-0.04 0.02,-0.03 0.03,-0.05 0.02,-0.04 0.02,-0.04 0.02,-0.04 0.01,-0.05 0.01,-0.04 0.02,-0.05 0,-0.05 0.01,-0.05 0,-0.05 0.01,-0.05 c 0,-0.53 -0.44,-0.97 -0.97,-0.97 -0.54,0 -0.97,0.44 -0.97,0.97 0,0.54 0.43,0.97 0.97,0.97 z"
   inkscape:connector-curvature="0" />
<path
   id="path30"
   style="fill:#ffffff;fill-rule:nonzero;stroke:#ffffff;stroke-width:0"
   d="m 298.68,410.42 0.09,0 0.09,-0.01 0.08,-0.01 0.08,-0.02 0.08,-0.02 0.08,-0.02 0.08,-0.02 0.08,-0.03 0.07,-0.04 0.07,-0.04 0.07,-0.04 0.07,-0.04 0.07,-0.05 0.06,-0.05 0.06,-0.05 0.06,-0.06 0.06,-0.06 0.05,-0.06 0.05,-0.06 0.05,-0.07 0.04,-0.06 0.04,-0.08 0.04,-0.07 0.03,-0.07 0.03,-0.08 0.03,-0.08 0.02,-0.08 0.02,-0.08 0.01,-0.08 0.01,-0.08 0.01,-0.09 0,-0.09 c 0,-0.92 -0.75,-1.68 -1.68,-1.68 -0.92,0 -1.68,0.76 -1.68,1.68 0,0.93 0.76,1.69 1.68,1.69 z"
   inkscape:connector-curvature="0" />
<path
   id="path32"
   style="fill:#ffffff;fill-rule:nonzero;stroke:#ffffff;stroke-width:0"
   d="m 270.71,412.54 -0.08,-0.17 -0.09,-0.16 -0.08,-0.16 -0.08,-0.15 -0.08,-0.15 -0.07,-0.16 -0.16,-0.3 -0.15,-0.29 -0.08,-0.15 -0.09,-0.16 -0.08,-0.15 -0.09,-0.15 -0.1,-0.16 -0.09,-0.16 c -0.3,-0.69 -0.53,-1.46 -0.85,-2.07 -0.22,-0.44 -0.64,-0.85 -1.15,-0.75 -0.32,0.13 -0.26,0.32 -0.35,0.5 0.19,3.39 2.3,6.42 3.37,8.23 0.53,0.32 1.89,1.48 2.39,1.47 0.69,-0.02 1.36,-0.16 2.06,-0.18 l 0,0 1.13,-1.38 1.05,-2.57 0,0 c 0.08,-0.26 0.39,-0.64 0.62,-0.78 0.59,-0.79 2.19,-1.41 2.92,-2.31 0.51,-0.64 -0.44,-1.29 -0.97,-0.98 l 0,0 -0.01,0 0,0 c -1.5,0.55 -3.1,1.29 -4.39,2.37 -0.09,0.09 -0.19,0.18 -0.28,0.26 -0.48,-1.92 1.27,-4.37 1.99,-5.84 0.97,-1.96 1.95,-3.93 2.92,-5.9 0.4,-0.04 0.84,-0.14 1.25,-0.14 0.33,-0.05 0.06,-0.3 -0.07,-0.39 -0.38,-0.27 -0.73,-0.6 -1.16,-0.82 l 0,0 -1.68,-0.85 0,0 c -1.07,1.76 -1.24,2.51 -1.86,3.76 -1.03,2.18 -2.05,4.35 -3.07,6.52 l 0,0 -0.41,0.01 -2.99,-7.94 -0.42,-1.33 0.77,-0.75 0,0 c 0.09,-0.09 0.23,-0.33 -0.05,-0.34 l 0,0 -0.49,0.03 0,0 c -0.64,-0.02 -0.94,0.13 -1.4,0.22 -0.43,0.17 -0.98,0.09 -1.39,0.29 -0.32,0.13 0.07,0.71 0.18,1.04 0.09,0.28 0.27,0.53 0.36,0.82 0.99,3.01 1.98,6.03 2.97,9.05 0.33,0.98 0.33,2.18 0.33,3.22 z"
   inkscape:connector-curvature="0" />
<path
   id="path34"
   style="fill:#ffffff;fill-rule:nonzero;stroke:#ffffff;stroke-width:0"
   d="m 301.36,405.52 0,-0.36 -0.01,-0.36 0,-0.18 0,-0.18 0,-0.18 0.01,-0.18 0.01,-0.19 0.01,-0.17 0.02,-0.18 0.03,-0.18 0.03,-0.18 0.03,-0.17 0.05,-0.18 0.02,-0.08 0.03,-0.09 0,0 0.25,-0.33 0,0 c 0.13,-0.17 0.35,-0.22 0.61,-0.24 0.96,0.03 1.65,0.7 2.59,1.01 0.11,0.04 0.12,0.08 0.32,0.12 0.36,-0.57 0.4,-0.87 0.67,-1.44 -0.02,-0.16 -0.05,-0.3 -0.14,-0.44 -0.03,-0.06 -0.17,-0.05 -0.23,0.01 l 0,0 -0.43,0.4 0,0 c -0.05,0.04 -0.11,0.07 -0.17,0.03 -0.78,-0.59 -1.56,-1.2 -2.37,-1.74 -1.05,0.35 -2.08,1.09 -2.99,1.7 -1.93,-0.81 -3.85,-2.12 -5.52,-3.38 l 0,0 -0.45,-0.24 -0.73,0.77 0,0 c -0.15,0.16 -0.37,0.45 -0.26,0.65 -0.01,0.15 0.08,0.29 0.31,0.2 l 0,0 0.72,-0.29 0,0 c 1.43,1.24 2.87,2.38 4.41,3.48 -0.02,0.24 -0.04,0.36 -0.08,0.55 -0.17,0.36 -0.27,1.48 -0.3,1.67 -0.68,0 -1.35,-0.34 -2.02,-0.34 -0.93,-0.04 -1.64,-0.61 -2.48,-0.65 -0.27,-0.05 -0.48,-0.08 -0.73,-0.09 -0.39,-0.03 -0.54,0.32 -0.26,0.54 0.24,0.19 0.48,0.39 0.77,0.49 0.77,0.26 1.52,0.58 2.31,0.81 1.69,0.55 4.54,1.05 5.59,0.84 0.51,0 0.91,-0.04 1.52,0.16 l 0,0 1.48,1.77 0.36,0.32 0.01,0 0,0 c 0.8,0.51 1.19,-0.42 0.94,-0.57 l 0,0 -1.6,-2.13 -0.43,-0.46 0,0 c -0.26,-0.27 -0.64,-0.4 -1.02,-0.4 -0.3,0 -0.58,0.01 -0.88,0.08 z"
   inkscape:connector-curvature="0" />
<path
   id="path36"
   style="fill:#ffffff;fill-rule:nonzero;stroke:#ffffff;stroke-width:0"
   d="m 301.79,423.1 -0.01,-0.65 0,-0.64 0,-0.65 0,-0.64 c -0.12,-0.42 -0.58,-0.35 -0.74,-0.04 -0.09,0.59 -0.01,1.95 -0.01,2.61 l 0,0 0.76,0.01 z"
   inkscape:connector-curvature="0" />
<path
   id="path38"
   style="fill:#ffffff;fill-rule:nonzero;stroke:#ffffff;stroke-width:0"
   d="m 302.77,423.09 0,-0.82 -0.01,-0.82 0,-0.82 0,-0.83 c -0.01,-0.28 -0.58,-0.43 -0.74,0.02 0,1.09 -0.01,2.18 -0.01,3.27 l 0,0 0.76,0 z"
   inkscape:connector-curvature="0" />
<path
   id="path40"
   style="fill:#ffffff;fill-rule:nonzero;stroke:#ffffff;stroke-width:0"
   d="m 307.16,423.3 1.02,-1.22 0,0 c 0.13,0.1 0.15,0.26 0.22,0.4 0.03,0.18 0.03,0.31 -0.06,0.43 -0.57,0.57 -1.04,1.23 -1.57,1.85 -0.98,-0.49 -1.59,0.29 -2.21,1.02 0.02,0.02 0.15,0.19 0.08,0.37 -0.48,1.1 -1.39,4.1 -3.57,2.97 -1.02,-0.64 -0.87,-1.89 -0.87,-2.91 0,-0.12 0.05,-0.15 0.2,-0.29 -0.58,-0.72 -0.85,-1.78 -0.85,-2.69 l 0,0 4.7,-0.02 0,0 c 0,1.36 -0.57,2.72 -1.64,3.56 l 0,0 0,1.32 0,0 c 0.08,0.15 0.17,0.07 0.23,0.01 0.51,-0.67 0.79,-1.61 1.15,-2.33 0.03,-0.15 -0.06,-0.2 0.15,-0.48 0.31,-0.62 0.88,-1.01 1.32,-1.59 -0.11,-1.33 -0.34,-2.66 -0.34,-4 0,-0.4 0.55,-0.46 0.65,-0.08 l 0,0 0.16,1.98 0.39,0 0,0 c 0.06,-0.6 0.17,-1.21 0.17,-1.81 0.06,-0.33 0.56,-0.4 0.65,-0.01 l 0,0 0,0.08 0,0 c 0,0.58 -0.12,1.16 -0.17,1.73 l 0,0 0.45,0 -0.26,1.71 z"
   inkscape:connector-curvature="0" />
<path
   id="path42"
   style="fill:#ffffff;fill-rule:nonzero;stroke:#ffffff;stroke-width:0"
   d="m 322.42,430.8 0,-9.34 0,0 c -4.26,0 -8.51,-0.01 -12.76,-0.01 l 0,0 0,9.34 0,0 c -0.18,-0.13 -0.39,-0.34 -0.63,-0.34 -0.51,-0.08 -0.94,0.34 -0.65,0.91 0.02,0.07 0.11,0.14 0.17,0.19 2.49,1.87 4.99,3.74 7.48,5.61 2.5,-1.87 5,-3.73 7.51,-5.6 0.11,-0.08 0.18,-0.22 0.23,-0.35 0.17,-0.8 -0.72,-0.91 -1.06,-0.62 -0.1,0.02 -0.22,0.14 -0.29,0.21 z"
   inkscape:connector-curvature="0" />
<path
   id="path44"
   style="fill:#0070ff;fill-rule:nonzero;stroke:#0070ff;stroke-width:0"
   d="m 288.66,415.82 -0.88,0.01 -0.88,0.01 -0.89,0.03 -0.88,0.03 -0.88,0.05 -0.88,0.05 -0.89,0.07 -0.88,0.07 c -0.18,0.02 -0.33,0.18 -0.33,0.37 l 0,0 0,0.22 0,0 c 0,0.18 0.15,0.32 0.33,0.31 2.35,-0.22 4.71,-0.33 7.06,-0.32 2.36,-0.01 4.71,0.1 7.07,0.32 0.18,0.01 0.33,-0.13 0.33,-0.31 l 0,0 0,-0.22 0,0 c 0,-0.19 -0.15,-0.35 -0.33,-0.37 -2.36,-0.21 -4.71,-0.32 -7.07,-0.32 z"
   inkscape:connector-curvature="0" />
<path
   id="path46"
   style="fill:#0070ff;fill-rule:nonzero;stroke:#0070ff;stroke-width:0"
   d="m 288.66,417.71 -3.66,0 0,0 c -0.28,0 -0.48,0.21 -0.38,0.4 l 0,0 0.94,1.92 0,0 c 0.05,0.12 0.21,0.2 0.39,0.2 l 0,0 2.71,0 2.72,0 0,0 c 0.18,0 0.33,-0.08 0.39,-0.2 l 0,0 0.94,-1.92 0,0 c 0.1,-0.19 -0.1,-0.4 -0.39,-0.4 l 0,0 -3.66,0 z"
   inkscape:connector-curvature="0" />
<path
   id="path48"
   style="fill:#0070ff;fill-rule:nonzero;stroke:#0070ff;stroke-width:0"
   d="m 294.55,420.68 0.06,0 0.05,0 0.06,-0.01 0.05,-0.01 0.06,-0.01 0.05,-0.02 0.05,-0.01 0.05,-0.02 0.05,-0.03 0.05,-0.02 0.04,-0.03 0.05,-0.03 0.04,-0.03 0.04,-0.03 0.04,-0.03 0.04,-0.04 0.04,-0.04 0.03,-0.04 0.03,-0.04 0.03,-0.04 0.03,-0.05 0.03,-0.05 0.02,-0.04 0.03,-0.05 0.02,-0.05 0.01,-0.05 0.02,-0.06 0.01,-0.05 0.01,-0.05 0.01,-0.06 0,-0.06 0,-0.05 c 0,-0.61 -0.49,-1.1 -1.1,-1.1 -0.6,0 -1.1,0.49 -1.1,1.1 0,0.61 0.5,1.1 1.1,1.1 z"
   inkscape:connector-curvature="0" />
<path
   id="path50"
   style="fill:#0070ff;fill-rule:nonzero;stroke:#0070ff;stroke-width:0"
   d="m 282.77,420.68 -0.05,0 -0.06,0 -0.05,-0.01 -0.06,-0.01 -0.05,-0.01 -0.05,-0.02 -0.06,-0.01 -0.05,-0.02 -0.04,-0.03 -0.05,-0.02 -0.05,-0.03 -0.04,-0.03 -0.05,-0.03 -0.04,-0.03 -0.04,-0.03 -0.04,-0.04 -0.03,-0.04 -0.04,-0.04 -0.03,-0.04 -0.03,-0.04 -0.03,-0.05 -0.03,-0.05 -0.02,-0.04 -0.02,-0.05 -0.02,-0.05 -0.02,-0.05 -0.01,-0.06 -0.02,-0.05 -0.01,-0.05 0,-0.06 -0.01,-0.06 0,-0.05 c 0,-0.61 0.49,-1.1 1.1,-1.1 0.61,0 1.11,0.49 1.11,1.1 0,0.61 -0.5,1.1 -1.11,1.1 z"
   inkscape:connector-curvature="0" />
<path
   id="path52"
   style="fill:#0070ff;fill-rule:nonzero;stroke:#0070ff;stroke-width:0"
   d="m 288.69,422.25 0.38,0 0.38,-0.01 0.37,0 0.36,-0.01 0.36,-0.02 0.35,-0.01 0.35,-0.02 0.35,-0.02 0.34,-0.01 0.33,-0.03 0.34,-0.02 0.32,-0.02 0.65,-0.05 0.63,-0.05 c -0.16,0.67 -0.58,2.89 -0.83,3.43 -0.14,0.36 -0.23,0.68 -0.94,0.77 -0.54,0.25 -2.11,0.34 -3.74,0.32 -1.64,0.02 -3.26,-0.07 -3.79,-0.32 -0.71,-0.09 -0.81,-0.41 -0.94,-0.77 -0.26,-0.54 -0.67,-2.76 -0.84,-3.43 1.68,0.14 3.51,0.26 5.57,0.27 z"
   inkscape:connector-curvature="0" />
<polygon
   id="polygon54"
   style="fill:#0070ff;fill-rule:nonzero;stroke:#0070ff;stroke-width:0"
   points="316,435.32 321.48,431.14 321.48,422.69 321.48,422.69 317.55,422.71 317.55,426.25 314.54,426.25 314.54,422.71 310.64,422.71 310.64,431.43 " />
<path
   id="path56"
   style="fill:#0070ff;fill-rule:nonzero;stroke:#0070ff;stroke-width:0"
   d="m 300.92,426.54 0,1.51 c 0.02,0.16 0.27,0.17 0.27,-0.01 0,-0.43 0,-0.85 0,-1.28 -0.12,-0.1 -0.13,0.01 -0.27,-0.22 z"
   inkscape:connector-curvature="0" />
<path
   id="path58"
   style="fill:#000000;fill-rule:nonzero;stroke-width:0"
   d="m 318.26,403.28 3.38,0 0,-1.27 -4.98,0 0,0 c 0,3.11 1.89,4.15 3.46,6.64 0.9,1.42 -2.04,2.83 -2.04,0.11 l 0,0 -1.41,0 0,0 c -0.29,4.45 6.27,3.22 4.83,-0.53 -0.66,-1.71 -3.01,-3.03 -3.24,-4.95 z"
   inkscape:connector-curvature="0" />
<path
   id="path60"
   style="fill:#000000;fill-rule:nonzero;stroke-width:0"
   d="m 325.05,411.65 0.19,-0.01 0.18,-0.02 0.17,-0.04 0.17,-0.06 0.16,-0.08 0.15,-0.08 0.15,-0.1 0.14,-0.12 0.13,-0.13 0.12,-0.14 0.12,-0.15 0.1,-0.16 0.11,-0.17 0.09,-0.18 0.09,-0.19 0.08,-0.2 0.07,-0.21 0.07,-0.22 0.06,-0.22 0.05,-0.22 0.05,-0.24 0.04,-0.24 0.03,-0.24 0.03,-0.24 0.04,-0.5 0.01,-0.51 -0.02,-0.51 -0.04,-0.5 -0.06,-0.5 -0.04,-0.25 -0.05,-0.24 -0.05,-0.24 -0.06,-0.23 -0.06,-0.23 -0.07,-0.22 -0.08,-0.21 -0.08,-0.21 -0.09,-0.2 -0.09,-0.19 -0.09,-0.18 -0.11,-0.17 -0.1,-0.17 -0.12,-0.15 -0.11,-0.14 -0.13,-0.12 -0.12,-0.12 -0.14,-0.1 -0.13,-0.08 -0.15,-0.08 -0.14,-0.05 -0.16,-0.04 -0.15,-0.03 -0.16,-0.01 -0.17,0.01 -0.17,0.03 -0.17,0.05 -0.18,0.06 -0.19,0.09 -0.19,0.11 c -2.15,1.32 -2.25,9.49 1.07,9.49 z"
   inkscape:connector-curvature="0" />
<path
   id="path62"
   style="fill:#ff1721;fill-rule:nonzero;stroke:#ff1721;stroke-width:0"
   d="m 328.93,419.04 0,-5.89 0,0 c -2.67,2.78 -6.76,3.65 -10.34,2.21 -3.57,-1.44 -5.91,-4.91 -5.91,-8.76 0,-3.85 2.34,-7.32 5.91,-8.76 3.58,-1.45 7.66,-0.59 10.33,2.19 l 0,0 0,-3.58 -16.68,-0.01 0,0 c -5.08,4.94 -5.73,12.88 -1.51,18.58 4.21,5.7 11.98,7.42 18.2,4.02 z"
   inkscape:connector-curvature="0" />
<polygon
   id="polygon64"
   style="fill:#ffffff;fill-rule:nonzero;stroke:#ffffff;stroke-width:0"
   points="317.55,427.68 314.56,427.68 314.56,430.68 314.56,430.68 317.55,430.68 " />
<path
   id="path66"
   style="fill:#ffffff;fill-rule:nonzero;stroke:#ffffff;stroke-width:0"
   d="m 325.08,410.24 0.07,0 0.08,-0.02 0.07,-0.03 0.07,-0.04 0.06,-0.06 0.06,-0.06 0.06,-0.07 0.05,-0.08 0.06,-0.09 0.05,-0.1 0.04,-0.11 0.05,-0.12 0.04,-0.12 0.03,-0.13 0.04,-0.14 0.03,-0.14 0.03,-0.15 0.03,-0.15 0.02,-0.16 0.02,-0.16 0.03,-0.34 0.03,-0.35 0.01,-0.35 0,-0.37 -0.01,-0.36 -0.01,-0.36 -0.03,-0.36 -0.04,-0.35 -0.04,-0.34 -0.05,-0.32 -0.04,-0.16 -0.03,-0.15 -0.03,-0.14 -0.04,-0.14 -0.04,-0.13 -0.04,-0.13 -0.04,-0.12 -0.05,-0.11 -0.04,-0.1 -0.05,-0.09 -0.05,-0.08 -0.06,-0.08 -0.05,-0.06 -0.06,-0.06 -0.06,-0.04 -0.06,-0.04 -0.06,-0.02 -0.06,-0.01 -0.07,0.01 -0.07,0.01 -0.07,0.03 -0.07,0.04 -0.07,0.06 -0.07,0.07 c -0.82,0.86 -1.01,6.87 0.43,6.87 z"
   inkscape:connector-curvature="0" />
<polygon
   id="polygon68"
   style="fill:#000000;fill-rule:nonzero;stroke-width:0"
   points="283.26,445.16 287.4,445.16 287.4,443.89 281.54,443.89 281.54,443.89 281.54,445.29 285.52,452.55 281.67,452.55 281.67,453.81 287.33,453.81 287.33,452.52 " />
<path
   id="path70"
   style="fill:#000000;fill-rule:nonzero;stroke-width:0"
   d="m 289.38,445.06 0.06,-0.08 0.07,-0.08 0.06,-0.07 0.07,-0.07 0.07,-0.07 0.07,-0.06 0.08,-0.07 0.07,-0.06 0.08,-0.06 0.08,-0.05 0.07,-0.05 0.09,-0.06 0.08,-0.04 0.08,-0.05 0.09,-0.04 0.09,-0.04 c 0.45,-0.23 0.95,-0.33 1.47,-0.33 0.56,0 1.07,0.1 1.54,0.31 0.47,0.21 0.86,0.53 1.2,0.95 0.35,0.42 0.62,0.96 0.82,1.6 0.18,0.63 0.28,1.4 0.28,2.27 l 0,0 0,0 0,0 c 0,0.84 -0.1,1.57 -0.28,2.19 -0.2,0.62 -0.47,1.15 -0.82,1.58 -0.34,0.41 -0.73,0.74 -1.19,0.95 -0.47,0.21 -0.97,0.31 -1.49,0.31 -0.55,0 -1.05,-0.1 -1.52,-0.31 -0.47,-0.21 -0.88,-0.53 -1.22,-0.94 -0.34,-0.42 -0.61,-0.97 -0.8,-1.61 -0.2,-0.63 -0.3,-1.4 -0.3,-2.27 0,-0.84 0.1,-1.56 0.3,-2.19 0.19,-0.62 0.46,-1.15 0.8,-1.56 z"
   inkscape:connector-curvature="0" />
<polygon
   id="polygon72"
   style="fill:#000000;fill-rule:nonzero;stroke-width:0"
   points="302.91,453.81 302.91,445.82 302.88,445.82 299.37,453.81 297.51,453.81 297.51,443.89 297.51,443.89 298.93,443.89 298.93,451.82 298.96,451.82 302.47,443.89 304.33,443.89 304.33,453.81 " />
<polygon
   id="polygon74"
   style="fill:#000000;fill-rule:nonzero;stroke-width:0"
   points="307.93,449.65 307.93,452.55 311.32,452.55 311.32,453.81 306.4,453.81 306.4,443.89 306.4,443.89 311.47,443.89 311.47,445.16 307.93,445.16 307.93,448.38 311.15,448.38 311.15,449.65 " />
<path
   id="path76"
   style="fill:#ffffff;fill-rule:nonzero;stroke:#ffffff;stroke-width:0"
   d="m 290.44,446.01 0,0 c 0.37,-0.68 0.91,-1.02 1.62,-1.02 0.3,0 0.6,0.07 0.87,0.21 0.27,0.13 0.51,0.35 0.72,0.67 0.21,0.3 0.36,0.71 0.49,1.21 0.11,0.49 0.17,1.11 0.17,1.83 l 0,0 0,0 0,0 c 0,1.18 -0.19,2.12 -0.56,2.8 -0.38,0.68 -0.92,1.02 -1.63,1.02 -0.3,0 -0.6,-0.07 -0.87,-0.19 -0.27,-0.15 -0.51,-0.38 -0.71,-0.68 -0.21,-0.31 -0.37,-0.72 -0.48,-1.22 -0.13,-0.49 -0.18,-1.1 -0.18,-1.83 0,-1.18 0.18,-2.12 0.56,-2.8 z"
   inkscape:connector-curvature="0" />
</g>    </g>
  </g>
</svg>
