<?xml version="1.0" encoding="UTF-8" standalone="no"?>
<!DOCTYPE svg PUBLIC "-//W3C//DTD SVG 1.0//EN" "http://www.w3.org/TR/2001/REC-SVG-20010904/DTD/svg10.dtd">
<svg
   xmlns:svg="http://www.w3.org/2000/svg"
   xmlns="http://www.w3.org/2000/svg"
   version="1.0"
   width="124.37858"
   height="88.941307"
   id="svg1945">
  <defs
     id="defs1947" />
  <g
     transform="translate(-180.6678,-390.7487)"
     id="layer1">
    <g
       transform="matrix(1.249992,0,0,-1.249992,-127.7655,966.1847)"
       style="font-style:normal;font-variant:normal;font-weight:normal;font-stretch:normal;letter-spacing:normal;word-spacing:normal;text-anchor:start;fill:none;fill-opacity:1;stroke:black;stroke-linecap:butt;stroke-linejoin:miter;stroke-miterlimit:10.43299961;stroke-dasharray:none;stroke-dashoffset:0;stroke-opacity:1"
       id="g10"
       xml:space="preserve">
<polygon
   points="246.89,389.34 346.11,389.34 346.11,460.21 246.89,460.21 246.89,389.34 "
   style="fill:white;fill-rule:nonzero;stroke:white;stroke-width:0;stroke-linejoin:round"
   id="polygon12" />
<polygon
   points="246.89,389.34 346.11,389.34 346.11,460.21 246.89,460.21 246.89,389.34 "
   style="stroke-width:0.28349999;stroke-linejoin:round"
   id="polygon14" />
<path
   d="M 251.15,458.8 L 251,458.79 L 250.86,458.78 L 250.72,458.76 L 250.58,458.74 L 250.44,458.71 L 250.3,458.67 L 250.17,458.62 L 250.04,458.57 L 249.92,458.52 L 249.79,458.45 L 249.68,458.39 L 249.56,458.31 L 249.45,458.23 L 249.34,458.15 L 249.24,458.06 L 249.14,457.97 L 249.05,457.87 L 248.96,457.76 L 248.87,457.66 L 248.8,457.55 L 248.72,457.43 L 248.65,457.31 L 248.59,457.19 L 248.53,457.06 L 248.48,456.94 L 248.44,456.8 L 248.4,456.67 L 248.37,456.53 L 248.34,456.39 L 248.33,456.25 L 248.32,456.11 L 248.31,455.96 L 248.31,455.96 L 248.31,393.6 L 248.31,393.6 C 248.31,392.03 249.58,390.77 251.15,390.77 L 251.15,390.77 L 341.86,390.77 L 341.86,390.77 C 343.42,390.77 344.69,392.03 344.69,393.6 L 344.69,393.6 L 344.69,455.96 L 344.69,455.96 C 344.69,457.53 343.42,458.8 341.86,458.8 L 341.86,458.8 L 251.15,458.8 z "
   style="fill:black;fill-rule:nonzero;stroke-width:0"
   id="path16" />
<path
   d="M 251.15,457.38 L 251.07,457.38 L 251,457.38 L 250.93,457.37 L 250.86,457.35 L 250.79,457.34 L 250.72,457.32 L 250.66,457.3 L 250.59,457.27 L 250.53,457.24 L 250.47,457.21 L 250.41,457.18 L 250.35,457.14 L 250.3,457.1 L 250.24,457.06 L 250.19,457.01 L 250.14,456.97 L 250.1,456.92 L 250.05,456.87 L 250.01,456.81 L 249.97,456.76 L 249.93,456.7 L 249.9,456.64 L 249.87,456.58 L 249.84,456.51 L 249.82,456.45 L 249.79,456.38 L 249.77,456.32 L 249.76,456.25 L 249.75,456.18 L 249.74,456.11 L 249.73,456.03 L 249.73,455.96 L 249.73,455.96 L 249.73,393.6 L 249.73,393.6 C 249.73,392.82 250.36,392.18 251.15,392.18 L 251.15,392.18 L 341.86,392.18 L 341.86,392.18 C 342.64,392.18 343.27,392.82 343.27,393.6 L 343.27,393.6 L 343.27,455.96 L 343.27,455.96 C 343.27,456.75 342.64,457.38 341.86,457.38 L 341.86,457.38 L 251.15,457.38 z "
   style="fill:white;fill-rule:nonzero;stroke:white;stroke-width:0"
   id="path18" />
<path
   d="M 328.93,400.01 L 328.93,396.43 L 264.07,396.43 L 264.07,438.93 L 264.07,438.93 L 328.93,438.93 L 328.94,413.14 L 328.94,413.14 C 326.26,415.91 322.17,416.79 318.6,415.35 C 315.02,413.91 312.68,410.44 312.68,406.59 C 312.68,402.73 315.02,399.26 318.6,397.82 C 322.17,396.38 326.25,397.23 328.93,400.01 z "
   style="fill:#0070ff;fill-rule:nonzero;stroke:#0070ff;stroke-width:0"
   id="path20" />
<path
   d="M 306.15,426.69 L 306.2,426.69 L 306.24,426.68 L 306.28,426.68 L 306.33,426.67 L 306.37,426.66 L 306.41,426.65 L 306.45,426.64 L 306.49,426.62 L 306.53,426.6 L 306.57,426.58 L 306.6,426.56 L 306.64,426.54 L 306.67,426.52 L 306.7,426.49 L 306.74,426.46 L 306.77,426.43 L 306.8,426.4 L 306.82,426.37 L 306.85,426.34 L 306.87,426.31 L 306.89,426.27 L 306.92,426.23 L 306.93,426.2 L 306.95,426.16 L 306.97,426.12 L 306.98,426.08 L 306.99,426.04 L 307,426 L 307.01,425.95 L 307.02,425.91 L 307.02,425.86 L 307.02,425.82 C 307.02,425.34 306.63,424.95 306.15,424.95 C 305.68,424.95 305.29,425.34 305.29,425.82 C 305.29,426.3 305.68,426.69 306.15,426.69 z "
   style="fill:white;fill-rule:nonzero;stroke:white;stroke-width:0"
   id="path22" />
<path
   d="M 288.66,414.54 L 289.12,414.54 L 289.58,414.55 L 290.03,414.56 L 290.48,414.57 L 290.91,414.59 L 291.12,414.6 L 291.33,414.61 L 291.53,414.63 L 291.73,414.64 L 291.93,414.65 L 292.12,414.67 L 292.3,414.68 L 292.48,414.7 L 292.65,414.72 L 292.81,414.74 L 292.97,414.76 L 293.12,414.78 L 293.26,414.8 L 293.4,414.82 L 293.52,414.85 L 293.64,414.87 L 293.75,414.9 L 293.84,414.92 L 293.93,414.95 L 294.01,414.98 L 294.08,415.01 L 294.13,415.04 C 294.13,414.1 293.85,412.35 295.43,412.88 C 296.17,413.12 295.87,414.69 295.87,415.05 C 296.91,415.57 296.63,416.22 296.66,417.38 C 296.7,419.37 296.28,421.36 295.25,421.82 L 295.25,421.82 L 295.29,421.83 L 295.29,421.83 C 295.83,421.92 296.4,421.91 296.88,421.88 C 297,421.86 297.1,421.93 297.11,422.11 L 297.11,422.11 L 297.05,422.86 L 297.05,422.86 C 297.05,423.01 296.95,423.06 296.83,423.05 L 296.83,423.05 L 296,423.08 L 296,423.08 C 295.71,423.1 295.51,423.12 295.33,422.91 L 295.33,422.91 L 294.94,422.18 L 294.94,422.18 C 294.6,423.5 294.41,424.62 293.94,425.94 C 293.62,426.82 290.93,426.97 288.66,426.95 C 286.4,426.97 283.7,426.82 283.39,425.94 C 282.91,424.62 282.72,423.5 282.39,422.18 L 282.39,422.18 L 282,422.91 L 282,422.91 C 281.82,423.12 281.61,423.1 281.33,423.08 L 281.33,423.08 L 280.49,423.05 L 280.49,423.05 C 280.38,423.06 280.27,423.01 280.27,422.86 L 280.27,422.86 L 280.21,422.11 L 280.21,422.11 C 280.22,421.93 280.32,421.86 280.44,421.88 C 280.92,421.91 281.49,421.92 282.04,421.83 L 282.04,421.83 L 282.07,421.82 L 282.07,421.82 C 281.04,421.36 280.62,419.37 280.67,417.38 C 280.7,416.22 280.42,415.57 281.45,415.05 C 281.45,414.69 281.16,413.12 281.89,412.88 C 283.47,412.35 283.19,414.1 283.19,415.04 C 283.73,414.72 286.21,414.54 288.66,414.54 z "
   style="fill:white;fill-rule:nonzero;stroke:white;stroke-width:0"
   id="path24" />
<path
   d="M 274.14,422.37 L 274.26,422.37 L 274.38,422.36 L 274.49,422.34 L 274.61,422.32 L 274.72,422.3 L 274.83,422.27 L 274.94,422.23 L 275.04,422.19 L 275.15,422.14 L 275.25,422.09 L 275.34,422.04 L 275.44,421.97 L 275.53,421.91 L 275.62,421.84 L 275.7,421.77 L 275.78,421.69 L 275.86,421.61 L 275.93,421.53 L 276,421.44 L 276.07,421.35 L 276.13,421.25 L 276.18,421.16 L 276.24,421.06 L 276.28,420.95 L 276.32,420.85 L 276.36,420.74 L 276.39,420.63 L 276.42,420.52 L 276.44,420.4 L 276.45,420.29 L 276.46,420.17 L 276.46,420.05 C 276.46,418.77 275.42,417.73 274.14,417.73 C 272.86,417.73 271.82,418.77 271.82,420.05 C 271.82,421.33 272.86,422.37 274.14,422.37 z "
   style="fill:white;fill-rule:nonzero;stroke:white;stroke-width:0"
   id="path26" />
<path
   d="M 301.91,431.69 L 301.96,431.69 L 302,431.69 L 302.05,431.68 L 302.1,431.67 L 302.15,431.66 L 302.19,431.65 L 302.24,431.63 L 302.28,431.61 L 302.32,431.6 L 302.37,431.57 L 302.41,431.55 L 302.45,431.53 L 302.48,431.5 L 302.52,431.47 L 302.56,431.44 L 302.59,431.41 L 302.62,431.37 L 302.65,431.34 L 302.68,431.3 L 302.71,431.26 L 302.73,431.23 L 302.76,431.18 L 302.78,431.14 L 302.8,431.1 L 302.82,431.06 L 302.83,431.01 L 302.84,430.97 L 302.86,430.92 L 302.86,430.87 L 302.87,430.82 L 302.87,430.77 L 302.88,430.72 C 302.88,430.19 302.44,429.75 301.91,429.75 C 301.37,429.75 300.94,430.19 300.94,430.72 C 300.94,431.26 301.37,431.69 301.91,431.69 z "
   style="fill:white;fill-rule:nonzero;stroke:white;stroke-width:0"
   id="path28" />
<path
   d="M 298.68,410.42 L 298.77,410.42 L 298.86,410.41 L 298.94,410.4 L 299.02,410.38 L 299.1,410.36 L 299.18,410.34 L 299.26,410.32 L 299.34,410.29 L 299.41,410.25 L 299.48,410.21 L 299.55,410.17 L 299.62,410.13 L 299.69,410.08 L 299.75,410.03 L 299.81,409.98 L 299.87,409.92 L 299.93,409.86 L 299.98,409.8 L 300.03,409.74 L 300.08,409.67 L 300.12,409.61 L 300.16,409.53 L 300.2,409.46 L 300.23,409.39 L 300.26,409.31 L 300.29,409.23 L 300.31,409.15 L 300.33,409.07 L 300.34,408.99 L 300.35,408.91 L 300.36,408.82 L 300.36,408.73 C 300.36,407.81 299.61,407.05 298.68,407.05 C 297.76,407.05 297,407.81 297,408.73 C 297,409.66 297.76,410.42 298.68,410.42 z "
   style="fill:white;fill-rule:nonzero;stroke:white;stroke-width:0"
   id="path30" />
<path
   d="M 270.71,412.54 L 270.63,412.37 L 270.54,412.21 L 270.46,412.05 L 270.38,411.9 L 270.3,411.75 L 270.23,411.59 L 270.07,411.29 L 269.92,411 L 269.84,410.85 L 269.75,410.69 L 269.67,410.54 L 269.58,410.39 L 269.48,410.23 L 269.39,410.07 C 269.09,409.38 268.86,408.61 268.54,408 C 268.32,407.56 267.9,407.15 267.39,407.25 C 267.07,407.38 267.13,407.57 267.04,407.75 C 267.23,411.14 269.34,414.17 270.41,415.98 C 270.94,416.3 272.3,417.46 272.8,417.45 C 273.49,417.43 274.16,417.29 274.86,417.27 L 274.86,417.27 L 275.99,415.89 L 277.04,413.32 L 277.04,413.32 C 277.12,413.06 277.43,412.68 277.66,412.54 C 278.25,411.75 279.85,411.13 280.58,410.23 C 281.09,409.59 280.14,408.94 279.61,409.25 L 279.61,409.25 L 279.6,409.25 L 279.6,409.25 C 278.1,409.8 276.5,410.54 275.21,411.62 C 275.12,411.71 275.02,411.8 274.93,411.88 C 274.45,409.96 276.2,407.51 276.92,406.04 C 277.89,404.08 278.87,402.11 279.84,400.14 C 280.24,400.1 280.68,400 281.09,400 C 281.42,399.95 281.15,399.7 281.02,399.61 C 280.64,399.34 280.29,399.01 279.86,398.79 L 279.86,398.79 L 278.18,397.94 L 278.18,397.94 C 277.11,399.7 276.94,400.45 276.32,401.7 C 275.29,403.88 274.27,406.05 273.25,408.22 L 273.25,408.22 L 272.84,408.23 L 269.85,400.29 L 269.43,398.96 L 270.2,398.21 L 270.2,398.21 C 270.29,398.12 270.43,397.88 270.15,397.87 L 270.15,397.87 L 269.66,397.9 L 269.66,397.9 C 269.02,397.88 268.72,398.03 268.26,398.12 C 267.83,398.29 267.28,398.21 266.87,398.41 C 266.55,398.54 266.94,399.12 267.05,399.45 C 267.14,399.73 267.32,399.98 267.41,400.27 C 268.4,403.28 269.39,406.3 270.38,409.32 C 270.71,410.3 270.71,411.5 270.71,412.54 z "
   style="fill:white;fill-rule:nonzero;stroke:white;stroke-width:0"
   id="path32" />
<path
   d="M 301.36,405.52 L 301.36,405.16 L 301.35,404.8 L 301.35,404.62 L 301.35,404.44 L 301.35,404.26 L 301.36,404.08 L 301.37,403.89 L 301.38,403.72 L 301.4,403.54 L 301.43,403.36 L 301.46,403.18 L 301.49,403.01 L 301.54,402.83 L 301.56,402.75 L 301.59,402.66 L 301.59,402.66 L 301.84,402.33 L 301.84,402.33 C 301.97,402.16 302.19,402.11 302.45,402.09 C 303.41,402.12 304.1,402.79 305.04,403.1 C 305.15,403.14 305.16,403.18 305.36,403.22 C 305.72,402.65 305.76,402.35 306.03,401.78 C 306.01,401.62 305.98,401.48 305.89,401.34 C 305.86,401.28 305.72,401.29 305.66,401.35 L 305.66,401.35 L 305.23,401.75 L 305.23,401.75 C 305.18,401.79 305.12,401.82 305.06,401.78 C 304.28,401.19 303.5,400.58 302.69,400.04 C 301.64,400.39 300.61,401.13 299.7,401.74 C 297.77,400.93 295.85,399.62 294.18,398.36 L 294.18,398.36 L 293.73,398.12 L 293,398.89 L 293,398.89 C 292.85,399.05 292.63,399.34 292.74,399.54 C 292.73,399.69 292.82,399.83 293.05,399.74 L 293.05,399.74 L 293.77,399.45 L 293.77,399.45 C 295.2,400.69 296.64,401.83 298.18,402.93 C 298.16,403.17 298.14,403.29 298.1,403.48 C 297.93,403.84 297.83,404.96 297.8,405.15 C 297.12,405.15 296.45,404.81 295.78,404.81 C 294.85,404.77 294.14,404.2 293.3,404.16 C 293.03,404.11 292.82,404.08 292.57,404.07 C 292.18,404.04 292.03,404.39 292.31,404.61 C 292.55,404.8 292.79,405 293.08,405.1 C 293.85,405.36 294.6,405.68 295.39,405.91 C 297.08,406.46 299.93,406.96 300.98,406.75 C 301.49,406.75 301.89,406.71 302.5,406.91 L 302.5,406.91 L 303.98,408.68 L 304.34,409 L 304.35,409 L 304.35,409 C 305.15,409.51 305.54,408.58 305.29,408.43 L 305.29,408.43 L 303.69,406.3 L 303.26,405.84 L 303.26,405.84 C 303,405.57 302.62,405.44 302.24,405.44 C 301.94,405.44 301.66,405.45 301.36,405.52 z "
   style="fill:white;fill-rule:nonzero;stroke:white;stroke-width:0"
   id="path34" />
<path
   d="M 301.79,423.1 L 301.78,422.45 L 301.78,421.81 L 301.78,421.16 L 301.78,420.52 C 301.66,420.1 301.2,420.17 301.04,420.48 C 300.95,421.07 301.03,422.43 301.03,423.09 L 301.03,423.09 L 301.79,423.1 z "
   style="fill:white;fill-rule:nonzero;stroke:white;stroke-width:0"
   id="path36" />
<path
   d="M 302.77,423.09 L 302.77,422.27 L 302.76,421.45 L 302.76,420.63 L 302.76,419.8 C 302.75,419.52 302.18,419.37 302.02,419.82 C 302.02,420.91 302.01,422 302.01,423.09 L 302.01,423.09 L 302.77,423.09 z "
   style="fill:white;fill-rule:nonzero;stroke:white;stroke-width:0"
   id="path38" />
<path
   d="M 307.16,423.3 L 308.18,422.08 L 308.18,422.08 C 308.31,422.18 308.33,422.34 308.4,422.48 C 308.43,422.66 308.43,422.79 308.34,422.91 C 307.77,423.48 307.3,424.14 306.77,424.76 C 305.79,424.27 305.18,425.05 304.56,425.78 C 304.58,425.8 304.71,425.97 304.64,426.15 C 304.16,427.25 303.25,430.25 301.07,429.12 C 300.05,428.48 300.2,427.23 300.2,426.21 C 300.2,426.09 300.25,426.06 300.4,425.92 C 299.82,425.2 299.55,424.14 299.55,423.23 L 299.55,423.23 L 304.25,423.21 L 304.25,423.21 C 304.25,424.57 303.68,425.93 302.61,426.77 L 302.61,426.77 L 302.61,428.09 L 302.61,428.09 C 302.69,428.24 302.78,428.16 302.84,428.1 C 303.35,427.43 303.63,426.49 303.99,425.77 C 304.02,425.62 303.93,425.57 304.14,425.29 C 304.45,424.67 305.02,424.28 305.46,423.7 C 305.35,422.37 305.12,421.04 305.12,419.7 C 305.12,419.3 305.67,419.24 305.77,419.62 L 305.77,419.62 L 305.93,421.6 L 306.32,421.6 L 306.32,421.6 C 306.38,421 306.49,420.39 306.49,419.79 C 306.55,419.46 307.05,419.39 307.14,419.78 L 307.14,419.78 L 307.14,419.86 L 307.14,419.86 C 307.14,420.44 307.02,421.02 306.97,421.59 L 306.97,421.59 L 307.42,421.59 L 307.16,423.3 z "
   style="fill:white;fill-rule:nonzero;stroke:white;stroke-width:0"
   id="path40" />
<path
   d="M 322.42,430.8 L 322.42,421.46 L 322.42,421.46 C 318.16,421.46 313.91,421.45 309.66,421.45 L 309.66,421.45 L 309.66,430.79 L 309.66,430.79 C 309.48,430.66 309.27,430.45 309.03,430.45 C 308.52,430.37 308.09,430.79 308.38,431.36 C 308.4,431.43 308.49,431.5 308.55,431.55 C 311.04,433.42 313.54,435.29 316.03,437.16 C 318.53,435.29 321.03,433.43 323.54,431.56 C 323.65,431.48 323.72,431.34 323.77,431.21 C 323.94,430.41 323.05,430.3 322.71,430.59 C 322.61,430.61 322.49,430.73 322.42,430.8 z "
   style="fill:white;fill-rule:nonzero;stroke:white;stroke-width:0"
   id="path42" />
<path
   d="M 288.66,415.82 L 287.78,415.83 L 286.9,415.84 L 286.01,415.87 L 285.13,415.9 L 284.25,415.95 L 283.37,416 L 282.48,416.07 L 281.6,416.14 C 281.42,416.16 281.27,416.32 281.27,416.51 L 281.27,416.51 L 281.27,416.73 L 281.27,416.73 C 281.27,416.91 281.42,417.05 281.6,417.04 C 283.95,416.82 286.31,416.71 288.66,416.72 C 291.02,416.71 293.37,416.82 295.73,417.04 C 295.91,417.05 296.06,416.91 296.06,416.73 L 296.06,416.73 L 296.06,416.51 L 296.06,416.51 C 296.06,416.32 295.91,416.16 295.73,416.14 C 293.37,415.93 291.02,415.82 288.66,415.82 z "
   style="fill:#0070ff;fill-rule:nonzero;stroke:#0070ff;stroke-width:0"
   id="path44" />
<path
   d="M 288.66,417.71 L 285,417.71 L 285,417.71 C 284.72,417.71 284.52,417.92 284.62,418.11 L 284.62,418.11 L 285.56,420.03 L 285.56,420.03 C 285.61,420.15 285.77,420.23 285.95,420.23 L 285.95,420.23 L 288.66,420.23 L 291.38,420.23 L 291.38,420.23 C 291.56,420.23 291.71,420.15 291.77,420.03 L 291.77,420.03 L 292.71,418.11 L 292.71,418.11 C 292.81,417.92 292.61,417.71 292.32,417.71 L 292.32,417.71 L 288.66,417.71 z "
   style="fill:#0070ff;fill-rule:nonzero;stroke:#0070ff;stroke-width:0"
   id="path46" />
<path
   d="M 294.55,420.68 L 294.61,420.68 L 294.66,420.68 L 294.72,420.67 L 294.77,420.66 L 294.83,420.65 L 294.88,420.63 L 294.93,420.62 L 294.98,420.6 L 295.03,420.57 L 295.08,420.55 L 295.12,420.52 L 295.17,420.49 L 295.21,420.46 L 295.25,420.43 L 295.29,420.4 L 295.33,420.36 L 295.37,420.32 L 295.4,420.28 L 295.43,420.24 L 295.46,420.2 L 295.49,420.15 L 295.52,420.1 L 295.54,420.06 L 295.57,420.01 L 295.59,419.96 L 295.6,419.91 L 295.62,419.85 L 295.63,419.8 L 295.64,419.75 L 295.65,419.69 L 295.65,419.63 L 295.65,419.58 C 295.65,418.97 295.16,418.48 294.55,418.48 C 293.95,418.48 293.45,418.97 293.45,419.58 C 293.45,420.19 293.95,420.68 294.55,420.68 z "
   style="fill:#0070ff;fill-rule:nonzero;stroke:#0070ff;stroke-width:0"
   id="path48" />
<path
   d="M 282.77,420.68 L 282.72,420.68 L 282.66,420.68 L 282.61,420.67 L 282.55,420.66 L 282.5,420.65 L 282.45,420.63 L 282.39,420.62 L 282.34,420.6 L 282.3,420.57 L 282.25,420.55 L 282.2,420.52 L 282.16,420.49 L 282.11,420.46 L 282.07,420.43 L 282.03,420.4 L 281.99,420.36 L 281.96,420.32 L 281.92,420.28 L 281.89,420.24 L 281.86,420.2 L 281.83,420.15 L 281.8,420.1 L 281.78,420.06 L 281.76,420.01 L 281.74,419.96 L 281.72,419.91 L 281.71,419.85 L 281.69,419.8 L 281.68,419.75 L 281.68,419.69 L 281.67,419.63 L 281.67,419.58 C 281.67,418.97 282.16,418.48 282.77,418.48 C 283.38,418.48 283.88,418.97 283.88,419.58 C 283.88,420.19 283.38,420.68 282.77,420.68 z "
   style="fill:#0070ff;fill-rule:nonzero;stroke:#0070ff;stroke-width:0"
   id="path50" />
<path
   d="M 288.69,422.25 L 289.07,422.25 L 289.45,422.24 L 289.82,422.24 L 290.18,422.23 L 290.54,422.21 L 290.89,422.2 L 291.24,422.18 L 291.59,422.16 L 291.93,422.15 L 292.26,422.12 L 292.6,422.1 L 292.92,422.08 L 293.57,422.03 L 294.2,421.98 C 294.04,422.65 293.62,424.87 293.37,425.41 C 293.23,425.77 293.14,426.09 292.43,426.18 C 291.89,426.43 290.32,426.52 288.69,426.5 C 287.05,426.52 285.43,426.43 284.9,426.18 C 284.19,426.09 284.09,425.77 283.96,425.41 C 283.7,424.87 283.29,422.65 283.12,421.98 C 284.8,422.12 286.63,422.24 288.69,422.25 z "
   style="fill:#0070ff;fill-rule:nonzero;stroke:#0070ff;stroke-width:0"
   id="path52" />
<polygon
   points="321.48,422.69 317.55,422.71 317.55,426.25 314.54,426.25 314.54,422.71 310.64,422.71 310.64,431.43 316,435.32 321.48,431.14 321.48,422.69 "
   style="fill:#0070ff;fill-rule:nonzero;stroke:#0070ff;stroke-width:0"
   id="polygon54" />
<path
   d="M 300.92,426.54 L 300.92,428.05 C 300.94,428.21 301.19,428.22 301.19,428.04 C 301.19,427.61 301.19,427.19 301.19,426.76 C 301.07,426.66 301.06,426.77 300.92,426.54 z "
   style="fill:#0070ff;fill-rule:nonzero;stroke:#0070ff;stroke-width:0"
   id="path56" />
<path
   d="M 318.26,403.28 L 321.64,403.28 L 321.64,402.01 L 316.66,402.01 L 316.66,402.01 C 316.66,405.12 318.55,406.16 320.12,408.65 C 321.02,410.07 318.08,411.48 318.08,408.76 L 318.08,408.76 L 316.67,408.76 L 316.67,408.76 C 316.38,413.21 322.94,411.98 321.5,408.23 C 320.84,406.52 318.49,405.2 318.26,403.28 z "
   style="fill:black;fill-rule:nonzero;stroke-width:0"
   id="path58" />
<path
   d="M 325.05,411.65 L 325.24,411.64 L 325.42,411.62 L 325.59,411.58 L 325.76,411.52 L 325.92,411.44 L 326.07,411.36 L 326.22,411.26 L 326.36,411.14 L 326.49,411.01 L 326.61,410.87 L 326.73,410.72 L 326.83,410.56 L 326.94,410.39 L 327.03,410.21 L 327.12,410.02 L 327.2,409.82 L 327.27,409.61 L 327.34,409.39 L 327.4,409.17 L 327.45,408.95 L 327.5,408.71 L 327.54,408.47 L 327.57,408.23 L 327.6,407.99 L 327.64,407.49 L 327.65,406.98 L 327.63,406.47 L 327.59,405.97 L 327.53,405.47 L 327.49,405.22 L 327.44,404.98 L 327.39,404.74 L 327.33,404.51 L 327.27,404.28 L 327.2,404.06 L 327.12,403.85 L 327.04,403.64 L 326.95,403.44 L 326.86,403.25 L 326.77,403.07 L 326.66,402.9 L 326.56,402.73 L 326.44,402.58 L 326.33,402.44 L 326.2,402.32 L 326.08,402.2 L 325.94,402.1 L 325.81,402.02 L 325.66,401.94 L 325.52,401.89 L 325.36,401.85 L 325.21,401.82 L 325.05,401.81 L 324.88,401.82 L 324.71,401.85 L 324.54,401.9 L 324.36,401.96 L 324.17,402.05 L 323.98,402.16 C 321.83,403.48 321.73,411.65 325.05,411.65 z "
   style="fill:black;fill-rule:nonzero;stroke-width:0"
   id="path60" />
<path
   d="M 328.93,419.04 L 328.93,413.15 L 328.93,413.15 C 326.26,415.93 322.17,416.8 318.59,415.36 C 315.02,413.92 312.68,410.45 312.68,406.6 C 312.68,402.75 315.02,399.28 318.59,397.84 C 322.17,396.39 326.25,397.25 328.92,400.03 L 328.92,400.03 L 328.92,396.45 L 312.24,396.44 L 312.24,396.44 C 307.16,401.38 306.51,409.32 310.73,415.02 C 314.94,420.72 322.71,422.44 328.93,419.04 z "
   style="fill:#ff1721;fill-rule:nonzero;stroke:#ff1721;stroke-width:0"
   id="path62" />
<polygon
   points="314.56,430.68 317.55,430.68 317.55,427.68 314.56,427.68 314.56,430.68 "
   style="fill:white;fill-rule:nonzero;stroke:white;stroke-width:0"
   id="polygon64" />
<path
   d="M 325.08,410.24 L 325.15,410.24 L 325.23,410.22 L 325.3,410.19 L 325.37,410.15 L 325.43,410.09 L 325.49,410.03 L 325.55,409.96 L 325.6,409.88 L 325.66,409.79 L 325.71,409.69 L 325.75,409.58 L 325.8,409.46 L 325.84,409.34 L 325.87,409.21 L 325.91,409.07 L 325.94,408.93 L 325.97,408.78 L 326,408.63 L 326.02,408.47 L 326.04,408.31 L 326.07,407.97 L 326.1,407.62 L 326.11,407.27 L 326.11,406.9 L 326.1,406.54 L 326.09,406.18 L 326.06,405.82 L 326.02,405.47 L 325.98,405.13 L 325.93,404.81 L 325.89,404.65 L 325.86,404.5 L 325.83,404.36 L 325.79,404.22 L 325.75,404.09 L 325.71,403.96 L 325.67,403.84 L 325.62,403.73 L 325.58,403.63 L 325.53,403.54 L 325.48,403.46 L 325.42,403.38 L 325.37,403.32 L 325.31,403.26 L 325.25,403.22 L 325.19,403.18 L 325.13,403.16 L 325.07,403.15 L 325,403.16 L 324.93,403.17 L 324.86,403.2 L 324.79,403.24 L 324.72,403.3 L 324.65,403.37 C 323.83,404.23 323.64,410.24 325.08,410.24 z "
   style="fill:white;fill-rule:nonzero;stroke:white;stroke-width:0"
   id="path66" />
<polygon
   points="281.54,443.89 281.54,445.29 285.52,452.55 281.67,452.55 281.67,453.81 287.33,453.81 287.33,452.52 283.26,445.16 287.4,445.16 287.4,443.89 281.54,443.89 "
   style="fill:black;fill-rule:nonzero;stroke-width:0"
   id="polygon68" />
<path
   d="M 289.38,445.06 L 289.44,444.98 L 289.51,444.9 L 289.57,444.83 L 289.64,444.76 L 289.71,444.69 L 289.78,444.63 L 289.86,444.56 L 289.93,444.5 L 290.01,444.44 L 290.09,444.39 L 290.16,444.34 L 290.25,444.28 L 290.33,444.24 L 290.41,444.19 L 290.5,444.15 L 290.59,444.11 C 291.04,443.88 291.54,443.78 292.06,443.78 C 292.62,443.78 293.13,443.88 293.6,444.09 C 294.07,444.3 294.46,444.62 294.8,445.04 C 295.15,445.46 295.42,446 295.62,446.64 C 295.8,447.27 295.9,448.04 295.9,448.91 L 295.9,448.91 L 295.9,448.91 L 295.9,448.91 C 295.9,449.75 295.8,450.48 295.62,451.1 C 295.42,451.72 295.15,452.25 294.8,452.68 C 294.46,453.09 294.07,453.42 293.61,453.63 C 293.14,453.84 292.64,453.94 292.12,453.94 C 291.57,453.94 291.07,453.84 290.6,453.63 C 290.13,453.42 289.72,453.1 289.38,452.69 C 289.04,452.27 288.77,451.72 288.58,451.08 C 288.38,450.45 288.28,449.68 288.28,448.81 C 288.28,447.97 288.38,447.25 288.58,446.62 C 288.77,446 289.04,445.47 289.38,445.06 z "
   style="fill:black;fill-rule:nonzero;stroke-width:0"
   id="path70" />
<polygon
   points="297.51,443.89 298.93,443.89 298.93,451.82 298.96,451.82 302.47,443.89 304.33,443.89 304.33,453.81 302.91,453.81 302.91,445.82 302.88,445.82 299.37,453.81 297.51,453.81 297.51,443.89 "
   style="fill:black;fill-rule:nonzero;stroke-width:0"
   id="polygon72" />
<polygon
   points="306.4,443.89 311.47,443.89 311.47,445.16 307.93,445.16 307.93,448.38 311.15,448.38 311.15,449.65 307.93,449.65 307.93,452.55 311.32,452.55 311.32,453.81 306.4,453.81 306.4,443.89 "
   style="fill:black;fill-rule:nonzero;stroke-width:0"
   id="polygon74" />
<path
   d="M 290.44,446.01 L 290.44,446.01 C 290.81,445.33 291.35,444.99 292.06,444.99 C 292.36,444.99 292.66,445.06 292.93,445.2 C 293.2,445.33 293.44,445.55 293.65,445.87 C 293.86,446.17 294.01,446.58 294.14,447.08 C 294.25,447.57 294.31,448.19 294.31,448.91 L 294.31,448.91 L 294.31,448.91 L 294.31,448.91 C 294.31,450.09 294.12,451.03 293.75,451.71 C 293.37,452.39 292.83,452.73 292.12,452.73 C 291.82,452.73 291.52,452.66 291.25,452.54 C 290.98,452.39 290.74,452.16 290.54,451.86 C 290.33,451.55 290.17,451.14 290.06,450.64 C 289.93,450.15 289.88,449.54 289.88,448.81 C 289.88,447.63 290.06,446.69 290.44,446.01 z "
   style="fill:white;fill-rule:nonzero;stroke:white;stroke-width:0"
   id="path76" />
</g>  </g>
</svg>
