<?xml version="1.0" encoding="UTF-8" standalone="no"?>
<!-- Generator: Adobe Illustrator 15.0.0, SVG Export Plug-In . SVG Version: 6.00 Build 0)  -->

<svg
   xmlns:dc="http://purl.org/dc/elements/1.1/"
   xmlns:cc="http://creativecommons.org/ns#"
   xmlns:rdf="http://www.w3.org/1999/02/22-rdf-syntax-ns#"
   xmlns:svg="http://www.w3.org/2000/svg"
   xmlns="http://www.w3.org/2000/svg"
   xmlns:sodipodi="http://sodipodi.sourceforge.net/DTD/sodipodi-0.dtd"
   xmlns:inkscape="http://www.inkscape.org/namespaces/inkscape"
   version="1.1"
   x="0px"
   y="0px"
   width="580px"
   height="580px"
   viewBox="0 0 580 580"
   enable-background="new 0 0 580 580"
   xml:space="preserve"
   id="svg2"
   inkscape:version="0.92.3 (2405546, 2018-03-11)"
   sodipodi:docname="javascript.svg"
   inkscape:export-filename="C:\Users\simon\git\preset-scripting-examples\icons\png\javascript.png"
   inkscape:export-xdpi="7.4369802"
   inkscape:export-ydpi="7.4369802"><metadata
   id="metadata23"><rdf:RDF><cc:Work
       rdf:about=""><dc:format>image/svg+xml</dc:format><dc:type
         rdf:resource="http://purl.org/dc/dcmitype/StillImage" /><dc:title></dc:title></cc:Work></rdf:RDF></metadata><defs
   id="defs21">
	

		
		
		
		
	</defs><sodipodi:namedview
   pagecolor="#ffffff"
   bordercolor="#666666"
   borderopacity="1"
   objecttolerance="10"
   gridtolerance="10"
   guidetolerance="10"
   inkscape:pageopacity="0"
   inkscape:pageshadow="2"
   inkscape:window-width="1312"
   inkscape:window-height="862"
   id="namedview19"
   showgrid="false"
   inkscape:zoom="0.81454783"
   inkscape:cx="283.21443"
   inkscape:cy="290"
   inkscape:window-x="208"
   inkscape:window-y="208"
   inkscape:window-maximized="1"
   inkscape:current-layer="flowRoot13" />
<g
   id="Layer_2"
   style="fill:#009800;fill-opacity:1">
	<g
   id="g1327"
   style="fill:#009800;fill-opacity:1">
		<path
   id="path1329"
   fill="#111111"
   stroke="#EEEEEE"
   stroke-width="3.408"
   d="M66.275,1.768    c-41.335,0-64.571,21.371-64.571,65.036v450.123c0,40.844,20.895,62.229,62.192,62.229H515.92    c41.307,0,62.229-20.315,62.229-62.229V66.804c0-42.601-20.923-65.036-63.521-65.036C514.624,1.768,66.133,1.625,66.275,1.768z"
   style="fill:#009800;fill-opacity:1" />
	</g>
</g>
<g
   id="Layer_3">
</g>

<g
   aria-label="JS"
   transform="translate(52.043688,-1.0463403)"
   style="font-style:normal;font-weight:bold;line-height:0.01%;font-family:sans-serif;-inkscape-font-specification:'Sans Bold';letter-spacing:0px;word-spacing:0px;fill:#ffffff;fill-opacity:1;stroke:none"
   id="flowRoot13"><path
     d="m 120.8418,154.07422 h 56.39648 v 197.46094 q 0,40.86914 -22.26562,61.08398 -22.11914,20.21484 -67.089848,20.21484 H 76.457031 v -42.62695 h 8.789063 q 17.578126,0 26.513676,-9.81445 9.08203,-9.81446 9.08203,-28.85742 z"
     style="font-size:300px;line-height:1.25;font-family:sans-serif"
     id="path4542" /><path
     d="m 384.95312,160.95898 v 46.28907 q -18.01757,-8.05664 -35.15625,-12.15821 -17.13867,-4.10156 -32.37304,-4.10156 -20.21485,0 -29.88281,5.56641 -9.66797,5.5664 -9.66797,17.28515 0,8.78907 6.44531,13.76953 6.5918,4.83399 23.73047,8.34961 l 24.02344,4.83399 q 36.4746,7.32422 51.85546,22.26562 15.38086,14.94141 15.38086,42.48047 0,36.18164 -21.5332,53.90625 -21.38672,17.57813 -65.47852,17.57813 -20.80078,0 -41.74804,-3.95508 -20.94727,-3.95508 -41.89453,-11.71875 v -47.60742 q 20.94726,11.13281 40.42968,16.8457 19.62891,5.56641 37.79297,5.56641 18.45703,0 28.27149,-6.15235 9.81445,-6.15234 9.81445,-17.57812 0,-10.25391 -6.73828,-15.82031 -6.5918,-5.56641 -26.51367,-9.96094 l -21.82617,-4.83399 Q 257.07227,274.77734 241.83789,259.39648 226.75,244.01562 226.75,217.94141 q 0,-32.66602 21.09375,-50.24414 21.09375,-17.57813 60.64453,-17.57813 18.01758,0 37.06055,2.7832 19.04297,2.63672 39.40429,8.05664 z"
     style="font-size:300px;line-height:1.25;font-family:sans-serif"
     id="path4544" /></g></svg>