<?xml version="1.0" encoding="UTF-8" standalone="no"?>
<svg
   xmlns:dc="http://purl.org/dc/elements/1.1/"
   xmlns:cc="http://creativecommons.org/ns#"
   xmlns:rdf="http://www.w3.org/1999/02/22-rdf-syntax-ns#"
   xmlns:svg="http://www.w3.org/2000/svg"
   xmlns="http://www.w3.org/2000/svg"
   xmlns:sodipodi="http://sodipodi.sourceforge.net/DTD/sodipodi-0.dtd"
   xmlns:inkscape="http://www.inkscape.org/namespaces/inkscape"
   version="1.0"
   width="95.669998"
   height="95.669998"
   id="svg1883"
   inkscape:version="0.48.4 r9939"
   sodipodi:docname="level_crossing.svg">
  <metadata
     id="metadata3974">
    <rdf:RDF>
      <cc:Work
         rdf:about="">
        <dc:format>image/svg+xml</dc:format>
        <dc:type
           rdf:resource="http://purl.org/dc/dcmitype/StillImage" />
      </cc:Work>
    </rdf:RDF>
  </metadata>
  <sodipodi:namedview
     pagecolor="#ffffff"
     bordercolor="#666666"
     borderopacity="1"
     objecttolerance="10"
     gridtolerance="10"
     guidetolerance="10"
     inkscape:pageopacity="0"
     inkscape:pageshadow="2"
     inkscape:window-width="640"
     inkscape:window-height="480"
     id="namedview3972"
     showgrid="false"
     inkscape:zoom="3.6059808"
     inkscape:cx="14.697804"
     inkscape:cy="25.599836"
     inkscape:window-x="0"
     inkscape:window-y="0"
     inkscape:window-maximized="0"
     inkscape:current-layer="svg1883" />
  <defs
     id="defs1885" />
  <g
     id="g3976"
     transform="translate(0,22.235201)">
    <g
       id="layer1"
       transform="translate(-246.4485,-381.0481)">
      <g
         xml:space="preserve"
         id="g10"
         style="font-style:normal;font-variant:normal;font-weight:normal;font-stretch:normal;letter-spacing:normal;word-spacing:normal;text-anchor:start;fill:none;stroke:#000000;stroke-linecap:butt;stroke-linejoin:miter;stroke-miterlimit:10.43299961;stroke-opacity:1;stroke-dasharray:none;stroke-dashoffset:0"
         transform="matrix(1.249992,0,0,-1.249992,-76.36191,937.6695)">
<polygon
   id="polygon12"
   style="fill:#ff1721;fill-rule:nonzero;stroke:#ff1721;stroke-width:0"
   points="265.49,404.34 296.52,418.81 327.55,404.34 334.79,406.98 332.15,414.22 309.41,424.82 332.15,435.43 334.79,442.67 327.55,445.3 296.52,430.84 296.52,430.84 265.49,445.3 258.25,442.67 260.88,435.43 283.62,424.82 260.88,414.22 258.25,406.98 " />
<polygon
   id="polygon14"
   style="fill:#ffffff;fill-rule:nonzero;stroke:#ffffff;stroke-width:0"
   points="265.02,435.91 267.78,441.83 296.52,428.43 325.25,441.83 328.01,435.91 304.25,424.82 304.25,424.82 328.01,413.74 325.25,407.82 296.52,421.22 267.78,407.82 265.02,413.74 288.79,424.82 " />
</g>    </g>
  </g>
</svg>
