<?xml version="1.0" encoding="utf-8"?>
<!-- Generator: Adobe Illustrator 15.0.0, SVG Export Plug-In  -->
<!DOCTYPE svg PUBLIC "-//W3C//DTD SVG 1.1//EN" "http://www.w3.org/Graphics/SVG/1.1/DTD/svg11.dtd" [
	<!ENTITY ns_flows "http://ns.adobe.com/Flows/1.0/">
]>
<svg version="1.1"
	 xmlns="http://www.w3.org/2000/svg" xmlns:xlink="http://www.w3.org/1999/xlink" xmlns:a="http://ns.adobe.com/AdobeSVGViewerExtensions/3.0/"
	 x="0px" y="0px" width="503px" height="505px" viewBox="0 -0.61 503 505" enable-background="new 0 -0.61 503 505"
	 xml:space="preserve">
<defs>
</defs>
<g>
	<rect x="0.5" y="0.5" fill="#FFFFFF" width="502" height="503"/>
	<g>
		<polyline fill="none" stroke="#000000" points="502.5,497.5 502.5,503.5 496.5,503.5 		"/>
		<line fill="none" stroke="#000000" stroke-dasharray="11.9512,11.9512" x1="484.549" y1="503.5" x2="12.476" y2="503.5"/>
		<polyline fill="none" stroke="#000000" points="6.5,503.5 0.5,503.5 0.5,497.5 		"/>
		<line fill="none" stroke="#000000" stroke-dasharray="11.9756,11.9756" x1="0.5" y1="485.524" x2="0.5" y2="12.488"/>
		<polyline fill="none" stroke="#000000" points="0.5,6.5 0.5,0.5 6.5,0.5 		"/>
		<line fill="none" stroke="#000000" stroke-dasharray="11.9512,11.9512" x1="18.451" y1="0.5" x2="490.524" y2="0.5"/>
		<polyline fill="none" stroke="#000000" points="496.5,0.5 502.5,0.5 502.5,6.5 		"/>
		<line fill="none" stroke="#000000" stroke-dasharray="11.9756,11.9756" x1="502.5" y1="18.476" x2="502.5" y2="491.512"/>
	</g>
</g>
<rect x="18.5" y="17.5" width="467" height="469"/>
<rect x="51" y="52.5" fill="#FFFFFF" width="401" height="399"/>
<polygon fill="#010101" points="205.278,121.011 68.08,181.194 67.158,181.598 67.158,239.943 205.278,173.371 "/>
<polygon fill="#010101" points="435.092,241.731 309.8,297.871 309.8,323.412 67.905,256.495 67.905,303.75 68.278,303.853 
	68.278,314.95 79.722,317.979 85.823,314.368 85.823,308.707 302.708,368.706 302.708,380.379 308.457,382.438 311.49,382.438 
	320.253,378.269 320.253,368.571 420.336,323.728 431.742,326.585 437.278,323.511 437.278,316.136 437.466,316.053 
	437.466,247.047 "/>
<path fill="none" stroke="#010101" stroke-width="2" d="M204.233,173.556c8.875,2.928,15.19,10.448,15.19,19.262
	c0,3.592-1.048,6.969-2.893,9.908L83.409,268.1c3.854-3.667,6.206-8.565,6.206-13.946c0-11.032-9.893-20.035-22.315-20.547"/>
<line fill="none" stroke="#010101" stroke-width="2" x1="216.516" y1="202.726" x2="412.407" y2="256.398"/>
<line fill="none" stroke="#010101" stroke-width="2" x1="67.579" y1="181.224" x2="67.579" y2="315.117"/>
</svg>
