<?xml version="1.0" encoding="UTF-8" standalone="no"?>
<svg
   xmlns:dc="http://purl.org/dc/elements/1.1/"
   xmlns:cc="http://creativecommons.org/ns#"
   xmlns:rdf="http://www.w3.org/1999/02/22-rdf-syntax-ns#"
   xmlns:svg="http://www.w3.org/2000/svg"
   xmlns="http://www.w3.org/2000/svg"
   viewBox="0 0 113.38667 113.38667"
   height="113.38667"
   width="113.38667"
   xml:space="preserve"
   id="svg2"
   version="1.1"><metadata
     id="metadata8"><rdf:RDF><cc:Work
         rdf:about=""><dc:format>image/svg+xml</dc:format><dc:type
           rdf:resource="http://purl.org/dc/dcmitype/StillImage" /></cc:Work></rdf:RDF></metadata><defs
     id="defs6" /><g
     transform="matrix(1.3333333,0,0,-1.3333333,0,113.38667)"
     id="g10"><g
       transform="scale(0.1)"
       id="g12"><path
         id="path14"
         style="fill:#ee2c30;fill-opacity:1;fill-rule:nonzero;stroke:none"
         d="m 425.195,850.395 c 234.832,0 425.196,-190.368 425.196,-425.2 C 850.391,190.371 660.027,0 425.195,0 190.367,0 0,190.371 0,425.195 c 0,234.832 190.367,425.2 425.195,425.2 v 0" /><path
         id="path16"
         style="fill:#ffffff;fill-opacity:1;fill-rule:nonzero;stroke:none"
         d="m 425.195,708.664 c 38.504,0 75.274,-7.41 110.293,-22.219 33.899,-14.336 63.946,-34.609 90.149,-60.804 26.199,-26.203 46.472,-56.25 60.808,-90.149 14.805,-35.019 22.215,-71.785 22.215,-110.297 0,-38.507 -7.41,-75.273 -22.215,-110.293 -14.336,-33.894 -34.609,-63.945 -60.808,-90.144 -26.203,-26.203 -56.25,-46.465 -90.149,-60.801 -35.019,-14.816 -71.789,-22.227 -110.293,-22.227 -38.511,0 -75.273,7.411 -110.293,22.227 -33.894,14.336 -63.945,34.598 -90.144,60.801 -26.203,26.199 -46.473,56.25 -60.809,90.144 -14.812,35.02 -22.222,71.786 -22.222,110.293 0,38.512 7.41,75.278 22.222,110.297 14.336,33.899 34.606,63.946 60.809,90.149 26.199,26.195 56.25,46.468 90.144,60.804 35.02,14.809 71.782,22.219 110.293,22.219 v 0" /><path
         id="path18"
         style="fill:#231f20;fill-opacity:1;fill-rule:nonzero;stroke:none"
         d="m 233.738,345.02 c 5.153,-1.981 11.125,-3.957 18.188,-5.399 6.765,-1.66 14.324,-2.519 22.211,-2.519 20.047,0 35.492,6.23 46.328,18.464 10.84,12.497 16.234,29.27 16.234,50.582 v 0 c 0,9.684 -1.328,18.465 -4.066,25.883 -2.988,7.672 -6.77,13.93 -11.371,19.043 -4.614,5.114 -10.301,8.824 -16.532,11.375 -6.511,2.563 -13.281,3.961 -20.3,3.961 -4.356,0 -8.422,-0.285 -11.953,-0.824 -3.782,-0.289 -7.016,-1.152 -9.469,-2.016 v 50.039 h 64.765 v 24.157 H 236.48 v -101.2 c 4.571,1.442 9.465,2.848 14.325,4.286 4.898,1.406 10.586,1.98 16.812,1.98 12.996,0 22.754,-3.707 29.524,-10.801 6.511,-7.129 9.754,-16.777 9.754,-28.437 0,-12.207 -3.243,-22.176 -10.008,-29.844 -6.77,-7.957 -15.985,-11.953 -27.649,-11.953 -6.765,0 -13,1.152 -18.687,3.137 -5.688,1.976 -10.832,4.281 -15.192,6.836 v 0 l -1.621,-26.75 v 0" /><path
         id="path20"
         style="fill:#231f20;fill-opacity:1;fill-rule:nonzero;stroke:none"
         d="m 357.871,305.273 h 23.289 l 19.227,68.188 h -28.731 l -13.785,-68.188 v 0" /><path
         id="path22"
         style="fill:#231f20;fill-opacity:1;fill-rule:nonzero;stroke:none"
         d="m 424.145,343.613 c 3.851,-1.511 8.316,-2.988 13.609,-4.062 5.078,-1.231 10.762,-1.875 16.672,-1.875 15.008,0 26.597,4.648 34.734,13.828 8.137,9.394 12.207,21.957 12.207,37.937 v 0 c 0,7.274 -1.047,13.864 -3.066,19.407 -2.227,5.761 -5.071,10.441 -8.528,14.293 -3.457,3.851 -7.742,6.625 -12.382,8.531 -4.903,1.906 -9.969,2.984 -15.262,2.984 -3.242,0 -6.301,-0.215 -8.938,-0.64 -2.839,-0.223 -5.281,-0.868 -7.117,-1.481 v 37.516 h 48.555 v 18.101 H 426.16 v -75.886 c 3.457,1.086 7.133,2.125 10.766,3.207 3.672,1.043 7.957,1.476 12.594,1.476 9.757,0 17.074,-2.773 22.179,-8.101 4.864,-5.328 7.317,-12.563 7.317,-21.313 0,-9.18 -2.453,-16.633 -7.532,-22.39 -5.078,-5.973 -11.98,-8.961 -20.73,-8.961 -5.078,0 -9.758,0.859 -14.008,2.371 -4.285,1.472 -8.137,3.175 -11.375,5.117 v 0 l -1.226,-20.059 v 0" /><path
         id="path24"
         style="fill:#231f20;fill-opacity:1;fill-rule:nonzero;stroke:none"
         d="m 616.672,341.641 v 22.168 c -1.867,-0.86 -3.781,-1.727 -5.942,-2.305 -2.156,-0.82 -4.609,-1.113 -7.593,-1.113 -5.149,0 -8.672,1.691 -11.086,4.824 -2.453,3.137 -3.528,8.535 -3.528,16.488 v 80.746 h 28.149 v 22.719 h -28.149 v 38.664 l -28.191,-8.781 v -29.883 h -22.207 v -22.719 h 22.207 v -86.722 c 0,-13.93 2.988,-23.872 9.219,-29.555 6.23,-5.977 14.902,-8.777 26.277,-8.777 4.074,0 8.137,0.281 11.633,1.14 3.523,1.086 6.797,1.953 9.211,3.106 v 0" /></g></g></svg>