<?xml version="1.0" encoding="UTF-8" standalone="no"?>
<!DOCTYPE svg PUBLIC "-//W3C//DTD SVG 1.0//EN" "http://www.w3.org/TR/2001/REC-SVG-20010904/DTD/svg10.dtd">
<svg
   xmlns:svg="http://www.w3.org/2000/svg"
   xmlns="http://www.w3.org/2000/svg"
   version="1.0"
   width="106.29932"
   height="106.29932"
   id="svg1891">
  <defs
     id="defs1893" />
  <g
     transform="translate(-26.85037,-279.2125)"
     id="layer1">
    <g
       transform="matrix(1.249992,0,0,-1.249992,-290.6476,863.3963)"
       style="font-style:normal;font-variant:normal;font-weight:normal;font-stretch:normal;letter-spacing:normal;word-spacing:normal;text-anchor:start;fill:none;fill-opacity:1;stroke:black;stroke-linecap:butt;stroke-linejoin:miter;stroke-miterlimit:10.43299961;stroke-dasharray:none;stroke-dashoffset:0;stroke-opacity:1"
       id="g10"
       xml:space="preserve">
<path
   d="M 296.52,467.35 L 298.71,467.3 L 300.87,467.13 L 303,466.86 L 305.09,466.49 L 307.15,466.01 L 309.17,465.44 L 311.14,464.77 L 313.07,464.01 L 314.96,463.16 L 316.79,462.22 L 318.57,461.2 L 320.3,460.09 L 321.96,458.9 L 323.57,457.64 L 325.11,456.3 L 326.59,454.9 L 328,453.42 L 329.33,451.88 L 330.6,450.27 L 331.78,448.6 L 332.89,446.88 L 333.91,445.1 L 334.85,443.26 L 335.7,441.38 L 336.46,439.45 L 337.13,437.47 L 337.7,435.45 L 338.18,433.4 L 338.55,431.3 L 338.82,429.18 L 338.99,427.02 L 339.04,424.83 C 339.04,401.35 320.01,382.31 296.52,382.31 C 273.04,382.31 254,401.35 254,424.83 C 254,448.31 273.04,467.35 296.52,467.35 z "
   style="fill:#ff1721;fill-rule:nonzero;stroke:#ff1721;stroke-width:0"
   id="path12" />
<path
   d="M 296.52,453.18 L 297.24,453.17 L 297.96,453.14 L 298.67,453.1 L 299.38,453.04 L 300.08,452.96 L 300.78,452.86 L 301.48,452.75 L 302.17,452.62 L 302.86,452.47 L 303.54,452.31 L 304.22,452.13 L 304.89,451.93 L 305.56,451.71 L 306.23,451.47 L 306.89,451.22 L 307.55,450.95 C 310.94,449.52 313.95,447.5 316.57,444.88 C 319.19,442.25 321.21,439.25 322.65,435.86 C 324.13,432.36 324.87,428.68 324.87,424.83 C 324.87,420.98 324.13,417.3 322.65,413.8 C 321.21,410.41 319.19,407.41 316.57,404.79 C 313.95,402.17 310.94,400.14 307.55,398.71 C 304.05,397.23 300.38,396.48 296.52,396.48 C 292.67,396.48 289,397.23 285.49,398.71 C 282.11,400.14 279.1,402.17 276.48,404.79 C 273.86,407.41 271.83,410.41 270.4,413.8 C 268.92,417.3 268.18,420.98 268.18,424.83 C 268.18,428.68 268.92,432.36 270.4,435.86 C 271.83,439.25 273.86,442.25 276.48,444.88 C 279.1,447.5 282.11,449.52 285.49,450.95 C 289,452.44 292.67,453.18 296.52,453.18 z "
   style="fill:white;fill-rule:nonzero;stroke:white;stroke-width:0"
   id="path14" />
<path
   d="M 269.96,434.75 L 269.74,434.15 L 269.54,433.56 L 269.35,432.95 L 269.18,432.35 L 269.02,431.74 L 268.87,431.13 L 268.74,430.51 L 268.62,429.89 L 268.52,429.27 L 268.43,428.65 L 268.35,428.02 L 268.29,427.39 L 268.24,426.75 L 268.2,426.11 L 268.18,425.47 L 268.18,424.83 C 268.18,421.38 268.77,418.07 269.96,414.91 L 269.96,414.91 L 278.8,424.86 L 269.96,434.75 z "
   style="fill:black;fill-rule:nonzero;stroke-width:0"
   id="path16" />
<path
   d="M 323.09,414.91 L 323.3,415.5 L 323.51,416.1 L 323.69,416.7 L 323.87,417.31 L 324.03,417.92 L 324.17,418.53 L 324.3,419.15 L 324.42,419.76 L 324.53,420.39 L 324.62,421.01 L 324.69,421.64 L 324.76,422.27 L 324.8,422.9 L 324.84,423.54 L 324.86,424.18 L 324.87,424.83 C 324.87,428.28 324.27,431.58 323.09,434.75 L 323.09,434.75 L 314.24,424.86 L 323.09,414.91 z "
   style="fill:black;fill-rule:nonzero;stroke-width:0"
   id="path18" />
<path
   d="M 285.14,416.3 L 294.89,416.3 L 294.89,418.57 L 288.19,418.57 L 288.86,419.29 L 288.86,419.29 C 289.65,420.16 290.41,421.06 291.13,421.98 C 291.82,422.88 292.44,423.8 292.97,424.69 C 293.51,425.59 293.92,426.46 294.23,427.33 C 294.54,428.17 294.69,428.99 294.69,429.76 C 294.69,430.39 294.59,430.98 294.41,431.55 C 294.2,432.11 293.89,432.6 293.51,433.03 C 293.1,433.44 292.59,433.78 292,434.03 C 291.38,434.26 290.67,434.39 289.86,434.39 C 289.01,434.39 288.22,434.29 287.52,434.11 C 286.81,433.9 286.14,433.64 285.55,433.34 L 285.55,433.34 L 285.84,430.73 L 285.84,430.73 C 286.25,431.06 286.76,431.39 287.35,431.68 C 287.94,431.96 288.6,432.11 289.34,432.11 C 290.13,432.11 290.77,431.86 291.21,431.32 C 291.64,430.78 291.88,430.11 291.88,429.27 C 291.88,428.68 291.75,428.04 291.49,427.36 C 291.21,426.66 290.85,425.92 290.36,425.18 C 289.88,424.41 289.32,423.62 288.68,422.77 C 288.01,421.93 287.3,421.06 286.5,420.16 L 286.5,420.16 L 285.14,418.6 L 285.14,416.3 z "
   style="fill:black;fill-rule:nonzero;stroke-width:0"
   id="path20" />
<path
   d="M 298.65,426.04 L 300.25,426.04 L 300.25,430.86 L 300.25,430.86 C 300.25,431.44 300.37,431.89 300.6,432.21 C 300.83,432.53 301.18,432.68 301.63,432.68 C 302.37,432.68 302.73,432.19 302.73,431.23 L 302.73,431.23 L 302.73,426.04 L 304.33,426.04 L 304.33,430.86 L 304.33,430.86 C 304.33,431.44 304.45,431.89 304.68,432.21 C 304.91,432.53 305.27,432.68 305.71,432.68 C 306.45,432.68 306.82,432.19 306.82,431.23 L 306.82,431.23 L 306.82,426.04 L 308.41,426.04 L 308.41,431.2 L 308.41,431.2 C 308.41,432.12 308.23,432.82 307.86,433.3 C 307.48,433.78 306.91,434.02 306.14,434.02 C 305.63,434.02 305.22,433.9 304.89,433.65 C 304.57,433.39 304.33,433.1 304.13,432.77 C 304.05,432.93 303.96,433.09 303.85,433.23 C 303.74,433.38 303.61,433.51 303.45,433.64 C 303.3,433.74 303.12,433.84 302.92,433.91 C 302.72,433.99 302.48,434.02 302.21,434.02 C 301.72,434.02 301.32,433.9 301,433.65 C 300.68,433.39 300.42,433.09 300.25,432.7 L 300.25,432.7 L 300.22,432.7 L 300.22,432.7 C 300.22,432.75 300.22,432.84 300.22,432.96 C 300.2,433.07 300.2,433.19 300.2,433.32 C 300.19,433.44 300.19,433.56 300.19,433.67 C 300.17,433.78 300.17,433.87 300.17,433.91 L 300.17,433.91 L 298.59,433.91 L 298.59,433.91 C 298.61,433.7 298.62,433.46 298.64,433.22 C 298.65,432.98 298.65,432.71 298.65,432.42 L 298.65,432.42 L 298.65,426.04 z "
   style="fill:black;fill-rule:nonzero;stroke-width:0"
   id="path22" />
</g>  </g>
</svg>
