<?xml version="1.0" encoding="UTF-8" standalone="no"?>
<svg
   xmlns:dc="http://purl.org/dc/elements/1.1/"
   xmlns:cc="http://creativecommons.org/ns#"
   xmlns:rdf="http://www.w3.org/1999/02/22-rdf-syntax-ns#"
   xmlns:svg="http://www.w3.org/2000/svg"
   xmlns="http://www.w3.org/2000/svg"
   viewBox="0 0 113.38667 113.38667"
   height="113.38667"
   width="113.38667"
   xml:space="preserve"
   id="svg2"
   version="1.1"><metadata
     id="metadata8"><rdf:RDF><cc:Work
         rdf:about=""><dc:format>image/svg+xml</dc:format><dc:type
           rdf:resource="http://purl.org/dc/dcmitype/StillImage" /></cc:Work></rdf:RDF></metadata><defs
     id="defs6" /><g
     transform="matrix(1.3333333,0,0,-1.3333333,0,113.38667)"
     id="g10"><g
       transform="scale(0.1)"
       id="g12"><path
         id="path14"
         style="fill:#ee2c30;fill-opacity:1;fill-rule:nonzero;stroke:none"
         d="m 0,425.195 c 0,234.832 190.367,425.2 425.199,425.2 234.832,0 425.192,-190.368 425.192,-425.2 C 850.391,190.371 660.031,0 425.199,0 190.367,0 0,190.371 0,425.195 v 0" /><path
         id="path16"
         style="fill:#ffffff;fill-opacity:1;fill-rule:nonzero;stroke:none"
         d="m 141.77,425.195 c 0,38.512 7.406,75.278 22.218,110.297 14.336,33.899 34.606,63.946 60.809,90.149 26.199,26.195 56.25,46.468 90.144,60.804 35.02,14.809 71.782,22.219 110.293,22.219 38.504,0 75.274,-7.41 110.293,-22.219 33.899,-14.336 63.946,-34.609 90.149,-60.804 26.199,-26.203 46.465,-56.25 60.808,-90.149 14.805,-35.019 22.219,-71.785 22.219,-110.297 0,-38.507 -7.414,-75.273 -22.219,-110.293 -14.343,-33.894 -34.609,-63.945 -60.808,-90.144 -26.203,-26.203 -56.25,-46.465 -90.149,-60.801 -35.019,-14.816 -71.789,-22.227 -110.293,-22.227 -38.511,0 -75.273,7.411 -110.293,22.227 -33.894,14.336 -63.945,34.598 -90.144,60.801 -26.203,26.199 -46.473,56.25 -60.809,90.144 -14.812,35.02 -22.218,71.786 -22.218,110.293 v 0" /><path
         id="path18"
         style="fill:#231f20;fill-opacity:1;fill-rule:nonzero;stroke:none"
         d="m 325.988,159.551 c 31.68,-11.883 64.731,-17.821 99.219,-17.821 34.453,0 67.539,5.938 99.219,17.821 v 0 l -99.547,88.488 -98.891,-88.488 v 0" /><path
         id="path20"
         style="fill:#231f20;fill-opacity:1;fill-rule:nonzero;stroke:none"
         d="m 524.426,690.875 c -31.68,11.84 -64.766,17.781 -99.219,17.781 -34.488,0 -67.539,-5.941 -99.219,-17.781 v 0 l 98.891,-88.527 99.547,88.527 v 0" /><path
         id="path22"
         style="fill:#231f20;fill-opacity:1;fill-rule:nonzero;stroke:none"
         d="m 206.934,346.316 c 5.976,-1.98 12.785,-3.961 20.488,-5.398 7.668,-1.66 15.621,-2.52 24.156,-2.52 9.938,0 19.043,1.438 27.285,3.957 8.246,2.84 15.047,6.805 21.024,11.668 5.976,5.11 10.515,11.375 13.644,18.461 3.133,7.098 4.824,15.051 4.824,24.161 v 0 c 0,7.378 -1.113,13.929 -3.097,19.621 -2.305,5.687 -5.145,10.222 -8.817,14.218 -3.711,3.957 -7.961,7.094 -12.816,9.36 -4.824,2.304 -9.937,3.996 -15.34,4.859 v 0.543 c 4.289,0.863 8.535,2.305 13.074,4.281 4.282,1.981 8.528,4.825 12.235,8.536 3.711,3.671 6.519,8.242 8.824,13.929 2.266,5.403 3.383,11.914 3.383,19.871 0,7.992 -1.406,15.371 -4.246,21.637 -3.137,6.227 -7.098,11.34 -12.242,15.625 -5.114,4.25 -11.09,7.379 -18.18,9.395 -7.094,1.98 -14.508,3.097 -22.754,3.097 -9.649,0 -18.18,-0.832 -25.563,-2.269 -7.699,-1.692 -14.218,-3.672 -19.906,-5.973 v 0 l 1.985,-27.004 v 0 c 5.976,3.133 12.527,5.692 19.043,7.668 6.55,2.016 12.816,2.848 18.214,2.848 9.364,0 17.317,-2.563 23.868,-7.672 6.554,-5.113 9.648,-12.492 9.648,-21.887 0,-5.976 -1.117,-10.801 -3.383,-14.762 -2.305,-4.281 -5.398,-7.414 -9.398,-10.257 -4.25,-2.559 -9.106,-4.536 -14.797,-5.688 -5.688,-1.406 -11.914,-1.98 -18.465,-1.98 h -8.242 V 430.77 c 1.722,0 3.992,0 6.836,0.289 2.558,0 5.941,0 9.937,0 11.953,0 21.313,-2.84 28.153,-8.243 6.8,-5.398 10.226,-13.39 10.226,-23.328 0,-6.265 -1.152,-11.668 -3.137,-16.203 -1.976,-4.535 -4.824,-8.242 -8.242,-11.082 -3.672,-3.137 -7.672,-5.406 -12.207,-6.805 -4.859,-1.441 -9.683,-2.3 -15.082,-2.3 -7.668,0 -14.762,1.152 -21.308,3.418 -6.555,1.976 -12.532,4.535 -17.641,7.121 v 0 l -1.984,-27.321 v 0" /><path
         id="path24"
         style="fill:#231f20;fill-opacity:1;fill-rule:nonzero;stroke:none"
         d="m 339.809,315.105 h 18.293 l 15.156,51.118 h -22.61 l -10.839,-51.118 v 0" /><path
         id="path26"
         style="fill:#231f20;fill-opacity:1;fill-rule:nonzero;stroke:none"
         d="m 403.242,344.914 c 4.067,-1.516 8.75,-2.988 14.293,-4.074 5.328,-1.219 11.305,-1.863 17.465,-1.863 15.801,0 27.93,4.636 36.465,13.816 8.535,9.395 12.812,21.965 12.812,37.945 v 0 c 0,7.274 -1.074,13.864 -3.203,19.403 -2.336,5.761 -5.32,10.445 -8.965,14.293 -3.632,3.851 -8.093,6.625 -12.996,8.535 -5.109,1.91 -10.468,2.988 -15.976,2.988 -3.43,0 -6.633,-0.219 -9.399,-0.648 -2.984,-0.215 -5.543,-0.868 -7.453,-1.477 v 37.512 h 50.942 v 18.109 h -71.86 v -75.89 c 3.637,1.082 7.488,2.125 11.305,3.207 3.851,1.043 8.312,1.472 13.211,1.472 10.265,0 17.93,-2.769 23.254,-8.101 5.117,-5.328 7.676,-12.563 7.676,-21.309 0,-9.18 -2.559,-16.629 -7.891,-22.394 -5.324,-5.977 -12.559,-8.958 -21.738,-8.958 -5.332,0 -10.227,0.86 -14.727,2.375 -4.465,1.473 -8.531,3.165 -11.914,5.106 v 0 l -1.301,-20.047 v 0" /><path
         id="path28"
         style="fill:#231f20;fill-opacity:1;fill-rule:nonzero;stroke:none"
         d="m 526.973,410.074 h 22.179 v 66.957 c 0,8.102 1.688,14.293 4.891,18.754 3.215,4.504 8.105,6.629 14.297,6.629 10.226,0 15.332,-6.844 15.332,-20.269 v -72.071 h 22.148 v 66.957 c 0,8.102 1.692,14.293 4.895,18.754 3.203,4.504 8.094,6.629 14.285,6.629 10.227,0 15.344,-6.844 15.344,-20.269 v -72.071 h 22.176 v 71.641 c 0,12.812 -2.559,22.605 -7.676,29.226 -5.321,6.594 -13.211,10.012 -23.867,10.012 -7.051,0 -12.774,-1.695 -17.274,-5.113 -4.465,-3.637 -7.883,-7.664 -10.656,-12.168 -1.082,2.16 -2.344,4.281 -3.856,6.406 -1.476,1.91 -3.378,3.852 -5.507,5.547 -2.121,1.508 -4.68,2.77 -7.454,3.852 -2.773,1.043 -6.191,1.476 -9.792,1.476 -6.836,0 -12.383,-1.695 -16.848,-5.113 -4.461,-3.637 -8.094,-7.887 -10.438,-13.211 h -0.429 v 0 c 0,0.648 0,1.906 0,3.637 -0.215,1.472 -0.215,3.168 -0.215,4.898 -0.215,1.688 -0.215,3.383 -0.215,4.891 -0.215,1.48 -0.215,2.773 -0.215,3.422 h -21.965 v 0 c 0.215,-2.989 0.43,-6.192 0.645,-9.614 0.215,-3.418 0.215,-7.019 0.215,-11.09 v -88.699" /></g></g></svg>