<?xml version="1.0" encoding="UTF-8" standalone="no"?>
<!-- Created with Inkscape (http://www.inkscape.org/) -->

<svg
   xmlns:dc="http://purl.org/dc/elements/1.1/"
   xmlns:cc="http://creativecommons.org/ns#"
   xmlns:rdf="http://www.w3.org/1999/02/22-rdf-syntax-ns#"
   xmlns:svg="http://www.w3.org/2000/svg"
   xmlns="http://www.w3.org/2000/svg"
   xmlns:sodipodi="http://sodipodi.sourceforge.net/DTD/sodipodi-0.dtd"
   xmlns:inkscape="http://www.inkscape.org/namespaces/inkscape"
   width="300.10001"
   height="300.10001"
   id="svg4088"
   version="1.1"
   inkscape:version="0.48.4 r9939"
   sodipodi:docname="AJAX1.svg">
  <defs
     id="defs4090" />
  <sodipodi:namedview
     id="base"
     pagecolor="#ffffff"
     bordercolor="#666666"
     borderopacity="1.0"
     inkscape:pageopacity="0.0"
     inkscape:pageshadow="2"
     inkscape:zoom="2.2066406"
     inkscape:cx="96.210492"
     inkscape:cy="132.18839"
     inkscape:document-units="px"
     inkscape:current-layer="g4034"
     showgrid="false"
     fit-margin-top="0.3"
     fit-margin-left="0.3"
     fit-margin-right="0.3"
     fit-margin-bottom="0.3"
     inkscape:window-width="1280"
     inkscape:window-height="1004"
     inkscape:window-x="-8"
     inkscape:window-y="-8"
     inkscape:window-maximized="1" />
  <metadata
     id="metadata4093">
    <rdf:RDF>
      <cc:Work
         rdf:about="">
        <dc:format>image/svg+xml</dc:format>
        <dc:type
           rdf:resource="http://purl.org/dc/dcmitype/StillImage" />
        <dc:title />
      </cc:Work>
    </rdf:RDF>
  </metadata>
  <g
     inkscape:label="Ebene 1"
     inkscape:groupmode="layer"
     id="layer1"
     transform="translate(-632.80412,-270.89062)">
    <g
       id="g4034"
       transform="translate(626.51037,195.53437)">
      <rect
         style="fill:#fefefe;fill-opacity:1;fill-rule:nonzero;stroke:#000000;stroke-width:1.5;stroke-miterlimit:4;stroke-opacity:1;stroke-dasharray:none"
         id="rect4026"
         width="298"
         height="298"
         x="7.3467708"
         y="76.399239"
         rx="20"
         ry="20" />
      <rect
         ry="5"
         rx="5"
         y="92.899239"
         x="23.846771"
         height="265"
         width="265"
         id="rect4028"
         style="fill:#003399;fill-opacity:1;fill-rule:nonzero;stroke:none" />
      <path
         inkscape:connector-curvature="0"
         id="path7442"
         d="m 117.69052,106.97736 -9.0625,62.09375 32.3125,0 0,-62.09375 -23.25,0 z m 54.0625,0 0,62.09375 32.3125,0 -9.09375,-62.09375 -23.21875,0 z m -134.843749,76.75 0,17.1875 c 23.72171,3.4e-4 23.71875,0.0906 23.71875,32.8125 l 17.6875,0 c 0,-32.82828 -0.01863,-32.8125 23.718749,-32.8125 l 110.125,0 c 22.22222,0 22.21875,-0.0158 22.21875,32.8125 l 17.65625,0 c 0,-32.82828 0.0126,-32.8125 23.75,-32.8125 l 0,-17.1875 -238.874999,0 z m 62.625,29.8125 -20.71875,130.28125 62.124999,0 0,-130.28125 -41.406249,0 z m 72.218749,0 0,130.28125 62.125,0 -20.71875,-130.28125 -41.40625,0 z"
         style="fill:#fefefe;fill-opacity:1;fill-rule:evenodd;stroke:none;stroke-width:0;stroke-linecap:butt;stroke-linejoin:miter;stroke-miterlimit:4;stroke-opacity:1;stroke-dasharray:none" />
    </g>
  </g>
</svg>
