<?xml version="1.0" encoding="UTF-8" standalone="no"?>
<!-- Generator: Adobe Illustrator 13.0.0, SVG Export Plug-In  -->

<svg
   xmlns:dc="http://purl.org/dc/elements/1.1/"
   xmlns:cc="http://creativecommons.org/ns#"
   xmlns:rdf="http://www.w3.org/1999/02/22-rdf-syntax-ns#"
   xmlns:svg="http://www.w3.org/2000/svg"
   xmlns="http://www.w3.org/2000/svg"
   xmlns:sodipodi="http://sodipodi.sourceforge.net/DTD/sodipodi-0.dtd"
   xmlns:inkscape="http://www.inkscape.org/namespaces/inkscape"
   version="1.1"
   x="0px"
   y="0px"
   width="2170"
   height="2170"
   viewBox="-0.937 -0.042 2170 2170"
   enable-background="new -0.937 -0.042 576 660"
   xml:space="preserve"
   id="svg2"
   inkscape:version="0.48.2 r9819"
   sodipodi:docname="AJAX1.svg"><metadata
   id="metadata44"><rdf:RDF><cc:Work
       rdf:about=""><dc:format>image/svg+xml</dc:format><dc:type
         rdf:resource="http://purl.org/dc/dcmitype/StillImage" /></cc:Work></rdf:RDF></metadata><sodipodi:namedview
   pagecolor="#ffffff"
   bordercolor="#666666"
   borderopacity="1"
   objecttolerance="10"
   gridtolerance="10"
   guidetolerance="10"
   inkscape:pageopacity="0"
   inkscape:pageshadow="2"
   inkscape:window-width="1280"
   inkscape:window-height="1004"
   id="namedview42"
   showgrid="false"
   fit-margin-top="0"
   fit-margin-left="0"
   fit-margin-right="0"
   fit-margin-bottom="0"
   inkscape:zoom="0.25284424"
   inkscape:cx="809.06379"
   inkscape:cy="986.14961"
   inkscape:window-x="-8"
   inkscape:window-y="-8"
   inkscape:window-maximized="1"
   inkscape:current-layer="svg2" />
<defs
   id="defs4">
</defs>


















<path
   inkscape:connector-curvature="0"
   style="fill:#ffffff;fill-rule:nonzero;stroke:#000000;stroke-width:10;stroke-linecap:butt;stroke-linejoin:miter;stroke-miterlimit:4;stroke-opacity:1;stroke-dasharray:none"
   d="m 2164.0655,2029.9605 c 0,74.5625 -60.4375,135 -135,135 l -1890,0 c -74.559375,0 -135,-60.4375 -135,-135 l 0,-1890.0001 c 0,-74.559401 60.440625,-135.0000012 135,-135.0000012 l 1890,0 c 74.5625,0 135,60.4406002 135,135.0000012 l 0,1890.0001 z"
   id="path11" /><path
   inkscape:connector-curvature="0"
   style="fill:#000000;fill-rule:nonzero;stroke:none"
   d="m 2074.0655,2029.9605 c 0,24.8125 -20.1875,45 -45,45 l -1890,0 c -24.81325,0 -45,-20.1875 -45,-45 l 0,-1890.0001 c 0,-24.8132 20.18675,-45.000001 45,-45.000001 l 1890,0 c 24.8125,0 45,20.186801 45,45.000001 l 0,1890.0001 z m -45,-1991.250101 -1890,0 c -55.830125,0 -101.25,45.4199 -101.25,101.250001 l 0,1889.9999 c 0,55.825 45.419875,101.25 101.25,101.25 l 1890,0 c 55.825,0 101.25,-45.425 101.25,-101.25 l 0,-1889.9999 c 0,-55.830101 -45.425,-101.250001 -101.25,-101.250001 z"
   id="path13" /><path
   inkscape:connector-curvature="0"
   style="fill:#000000;fill-rule:nonzero;stroke:none"
   d="m 1246.4318,1813.3355 c -7.8737,26.1125 -31.7413,42.9375 -63.48,42.9375 -36.8187,0 -59.67,-15.15 -71.0987,-48 -10.1563,-30.3125 -15.2338,-79.5749 -15.2338,-137.6749 0,-32.85 3.8087,-80.85 8.8863,-108.6375 10.1562,-55.5751 31.7412,-77.0501 74.9075,-77.0501 40.625,0 67.2874,25.2625 71.0962,69.475 l -46.975,0 c -1.27,-15.1625 -10.1563,-22.7375 -22.8512,-22.7375 -16.5063,0 -25.3938,11.3625 -30.4713,35.3626 -6.3475,29.0625 -7.6175,55.5875 -7.6175,103.5875 0,50.525 1.27,72 7.6175,102.3124 5.0775,24 13.965,36.6375 29.2013,36.6375 16.5037,0 24.1212,-12.6375 24.1212,-44.2125 l 46.975,0 c 0,27.7875 -1.27,35.3625 -5.0775,48 z"
   id="path15" /><path
   inkscape:connector-curvature="0"
   style="fill:#000000;fill-rule:nonzero;stroke:none"
   d="m 552.8405,1849.9605 0,-360 131.8675,0 0,46.7375 -86.65625,0 0,92.2126 57.77,0 0,48 -57.77,0 0,126.3124 91.67875,0 0,46.7375 -136.89,0 z"
   id="path17" /><path
   inkscape:connector-curvature="0"
   style="fill:#000000;fill-rule:nonzero;stroke:none"
   d="m 1507.203,1849.9605 0,-360 131.8625,0 0,46.7375 -86.65,0 0,92.2126 57.7625,0 0,48 -57.7625,0 0,126.3124 91.675,0 0,46.7375 -136.8875,0 z"
   id="path19" /><path
   inkscape:connector-curvature="0"
   style="fill:#000000;fill-rule:nonzero;stroke:none"
   d="m 856.88675,1849.9605 0,-167.9999 -64.22375,0 0,167.9999 -45.33375,0 0,-360 45.33375,0 0,145.2626 64.22375,0 0,-145.2626 45.3325,0 0,360 -45.3325,0 z"
   id="path21" /><path
   inkscape:connector-curvature="0"
   style="fill:#000000;fill-rule:nonzero;stroke:none"
   d="m 981.41925,1849.9605 0,-360 46.79995,0 0,360 -46.79995,0 z"
   id="path23" /><path
   inkscape:connector-curvature="0"
   style="fill:#000000;fill-rule:nonzero;stroke:none"
   d="m 1319.9155,1849.9605 0,-360 45.2125,0 0,318.3125 91.675,0 0,41.6875 -136.8875,0 z"
   id="path25" /><path
   inkscape:connector-curvature="0"
   style="fill:#000000;fill-rule:nonzero;stroke:none"
   d="m 1817.278,1694.5981 c 10.3875,22.3 17.7,53.05 17.7,78.3124 0,25.2625 -11.375,51.7875 -29.075,66.95 -11.3875,10.1 -27.5125,16.425 -46.475,16.425 -50.575,0 -76.8125,-32.85 -79.3375,-96.0125 l 46.775,0 c 0,13.9 1.275,18.95 3.8,26.5375 3.7875,13.8875 14.8625,22.7374 28.7625,22.7374 17.7,0 28.775,-13.9002 28.775,-36.6376 0,-31.575 -11.075,-58.0998 -38.8875,-90.95 -16.4375,-18.95 -27.5,-32.8375 -31.3,-37.8875 -20.225,-24 -29.075,-49.2625 -29.075,-74.525 0,-49.2751 30.0375,-84.6376 73.0125,-84.6376 44.2625,0 67.975,27.7875 73.025,84.6376 l -46.775,0 c -1.275,-27.8001 -8.5375,-39.1626 -24.975,-39.1626 -17.7,0 -27.5125,15.1625 -27.5125,39.1627 0,16.4124 6.0125,29.0499 24.975,49.2626 39.2,44.2001 45.85,52.7374 56.5875,75.7873 z"
   id="path27" /><path
   inkscape:connector-curvature="0"
   style="fill:#000000;fill-rule:nonzero;stroke:none"
   d="m 437.1855,1849.9605 -39.09375,0 -64.94125,-360 46.6625,0 38.45625,205.2626 37.50875,-205.2626 46.66125,0 -65.25375,360 z"
   id="path29" /><path
   inkscape:connector-curvature="0"
   style="fill:#000000;fill-rule:nonzero;stroke:none"
   d="m 630.71925,1264.9605 0,-202.105 -67.035,202.105 -67.03375,-202.105 0,202.105 -51.855,0 0,-359.99885 51.855,0 67.03375,202.10515 67.035,-202.10515 51.85625,0 0,359.99885 -51.85625,0 z"
   id="path31" /><path
   inkscape:connector-curvature="0"
   style="fill:#000000;fill-rule:nonzero;stroke:none"
   d="m 905.98925,994.64415 c -8.90625,-31.5775 -22.9025,-45.47375 -44.53375,-45.47375 -22.9025,0 -36.89875,13.89625 -45.805,44.21125 -8.90625,27.78855 -11.45125,51.79005 -11.45125,92.21015 0,39.16 3.81625,61.8962 11.45125,90.95 8.90625,30.315 22.9025,44.2087 45.805,44.2087 21.63125,0 35.6275,-13.8938 44.53375,-44.2087 8.90875,-29.0538 11.4525,-50.5275 11.4525,-92.2125 0,-40.4201 -3.81875,-63.1591 -11.4525,-89.68515 z m 40.7175,214.73885 c -17.815,42.9475 -44.53375,61.89 -85.25125,61.89 -43.26125,0 -68.70875,-18.9425 -86.52125,-61.89 -15.27,-35.3687 -20.35875,-69.475 -20.35875,-125.0538 0,-54.3162 5.08875,-90.94755 20.35875,-125.0538 19.085,-42.94625 44.53375,-60.63 86.52125,-60.63 41.99,0 67.43625,17.68375 85.25125,61.895 15.26875,35.36875 20.35875,69.4726 20.35875,123.7888 0,55.5788 -5.09,90.9475 -20.35875,125.0538 z"
   id="path33" /><path
   inkscape:connector-curvature="0"
   style="fill:#000000;fill-rule:nonzero;stroke:none"
   d="m 1388.5781,994.64415 c -8.9125,-31.5775 -22.9125,-45.47375 -44.5375,-45.47375 -22.9,0 -36.9,13.89625 -45.8125,44.21125 -8.9,27.78855 -11.45,51.79005 -11.45,92.21015 0,39.16 3.825,61.8962 11.45,90.95 8.9125,30.315 22.9125,44.2087 45.8125,44.2087 21.625,0 35.625,-13.8938 44.5375,-44.2087 8.9,-29.0538 11.45,-50.5275 11.45,-92.2125 0,-40.4201 -3.825,-63.1591 -11.45,-89.68515 z m 40.7125,214.73885 c -17.8125,42.9475 -44.5375,61.89 -85.25,61.89 -43.2625,0 -68.7125,-18.9425 -86.525,-61.89 -15.2688,-35.3687 -20.3588,-69.475 -20.3588,-125.0538 0,-54.3162 5.09,-90.94755 20.3588,-125.0538 19.0875,-42.94625 44.5375,-60.63 86.525,-60.63 41.9875,0 67.4375,17.68375 85.25,61.895 15.2625,35.36875 20.35,69.4726 20.35,123.7888 0,55.5788 -5.0875,90.9475 -20.35,125.0538 z"
   id="path35" /><path
   inkscape:connector-curvature="0"
   style="fill:#000000;fill-rule:nonzero;stroke:none"
   d="m 1626.278,955.48665 -52.95,0 0,90.94755 52.95,0 c 30.25,0 46.6375,-16.4212 46.6375,-45.4737 0,-27.7901 -18.9125,-45.47385 -46.6375,-45.47385 z m 44.1125,309.47385 -47.9,-169.2637 -49.1625,0 0,169.2637 -51.6875,0 0,-360.0001 107.15,0 c 56.725,0 94.55,37.89375 94.55,96.0001 0,42.9462 -17.65,74.5262 -51.6875,87.1575 l 51.6875,176.8425 -52.95,0 z"
   id="path37" /><path
   inkscape:connector-curvature="0"
   style="fill:#000000;fill-rule:nonzero;stroke:none"
   d="m 1128.0817,952.9604 0,312.0001 -51.9425,0 0,-312.0001 -65.875,0 0,-48 183.6913,0 0,48 -65.8738,0 z"
   id="path39" /><path
   inkscape:connector-curvature="0"
   style="fill:#000000;fill-rule:nonzero;stroke:none"
   d="m 980.6605,679.9604 -137.695,-243.7912 0,243.7912 -56.845,0 0,-360.0012 56.845,0 131.3775,229.8962 0,-229.8962 56.845,0 0,360.0012 -50.5275,0 z"
   id="path41" /><path
   inkscape:connector-curvature="0"
   style="fill:#000000;fill-rule:nonzero;stroke:none"
   d="m 1303.5031,399.5379 c -11.4,-18.9475 -25.325,-26.5262 -46.85,-27.7887 -27.8575,-1.2638 -45.5825,12.63 -58.245,44.21 -8.865,21.475 -13.9288,54.3162 -13.9288,84.6312 0,37.895 7.595,77.0525 21.5238,99.79 11.3987,18.9475 26.5912,27.79 49.3875,27.79 26.5875,0 43.05,-13.8962 55.7125,-45.4737 7.6,-18.9475 13.925,-54.3163 13.925,-82.1063 0,-40.42 -7.6,-77.0512 -21.525,-101.0525 z m 39.25,246.3163 c -20.25,27.78995 -49.375,40.42245 -87.3625,40.42245 -50.6525,0 -82.31,-20.2125 -103.8363,-64.42125 -15.1925,-30.3175 -25.3225,-78.3162 -25.3225,-121.265 0,-59.3675 15.1938,-112.42 39.2538,-146.5262 21.525,-27.79 50.6487,-40.4213 92.43,-40.4213 45.5875,0 77.25,20.2113 100.0375,64.4213 15.1875,31.5787 24.0625,77.0525 24.0625,122.5262 0,56.8438 -13.9375,113.6838 -39.2625,145.2638 z"
   id="path43" /></svg>