<?xml version="1.0" encoding="UTF-8" standalone="no"?>
<!-- Generator: Adobe Illustrator 13.0.0, SVG Export Plug-In  -->

<svg
   xmlns:dc="http://purl.org/dc/elements/1.1/"
   xmlns:cc="http://creativecommons.org/ns#"
   xmlns:rdf="http://www.w3.org/1999/02/22-rdf-syntax-ns#"
   xmlns:svg="http://www.w3.org/2000/svg"
   xmlns="http://www.w3.org/2000/svg"
   xmlns:sodipodi="http://sodipodi.sourceforge.net/DTD/sodipodi-0.dtd"
   xmlns:inkscape="http://www.inkscape.org/namespaces/inkscape"
   version="1.1"
   x="0px"
   y="0px"
   width="2710"
   height="1630"
   viewBox="-0.937 -0.042 2710 1630"
   enable-background="new -0.937 -0.042 576 660"
   xml:space="preserve"
   id="svg2"
   inkscape:version="0.48.2 r9819"
   sodipodi:docname="AJAX5.svg"><metadata
   id="metadata44"><rdf:RDF><cc:Work
       rdf:about=""><dc:format>image/svg+xml</dc:format><dc:type
         rdf:resource="http://purl.org/dc/dcmitype/StillImage" /><dc:title></dc:title></cc:Work></rdf:RDF></metadata><sodipodi:namedview
   pagecolor="#ffffff"
   bordercolor="#666666"
   borderopacity="1"
   objecttolerance="10"
   gridtolerance="10"
   guidetolerance="10"
   inkscape:pageopacity="0"
   inkscape:pageshadow="2"
   inkscape:window-width="1280"
   inkscape:window-height="1004"
   id="namedview42"
   showgrid="false"
   fit-margin-top="0"
   fit-margin-left="0"
   fit-margin-right="0"
   fit-margin-bottom="0"
   inkscape:zoom="0.25284424"
   inkscape:cx="811.04264"
   inkscape:cy="1287.3885"
   inkscape:window-x="-8"
   inkscape:window-y="-8"
   inkscape:window-maximized="1"
   inkscape:current-layer="svg2" />
<defs
   id="defs4">
</defs>


















<path
   inkscape:connector-curvature="0"
   style="fill:#ffffff;fill-rule:nonzero;stroke:#000000;stroke-width:10;stroke-linecap:butt;stroke-linejoin:miter;stroke-miterlimit:4;stroke-opacity:1;stroke-dasharray:none"
   d="m 2704.0655,1489.9669 c 0,74.5625 -60.4375,135 -135,135 l -2430,0 c -74.558125,0 -135,-60.4375 -135,-135 l 0,-1350.00015 c 0,-74.55937 60.441875,-135 135,-135 l 2430,0 c 74.5625,0 135,60.44063 135,135 l 0,1350.00015 z"
   id="path11" /><path
   inkscape:connector-curvature="0"
   style="fill:#000000;fill-rule:nonzero;stroke:none"
   d="m 2614.0655,1489.9669 c 0,24.8125 -20.1875,45 -45,45 l -2430,0 c -24.81325,0 -45,-20.1875 -45,-45 l 0,-1350.00015 c 0,-24.81325 20.18675,-45 45,-45 l 2430,0 c 24.8125,0 45,20.18675 45,45 l 0,1350.00015 z m -45,-1451.25015 -2430,0 c -55.830125,0 -101.25,45.41988 -101.25,101.25 l 0,1350.00015 c 0,55.825 45.419875,101.25 101.25,101.25 l 2430,0 c 55.825,0 101.25,-45.425 101.25,-101.25 l 0,-1350.00015 c 0,-55.83012 -45.425,-101.25 -101.25,-101.25 z"
   id="path13" /><path
   inkscape:connector-curvature="0"
   style="fill:#000000;fill-rule:nonzero;stroke:none"
   d="m 1854.1405,760.49425 -19,77.6838 38.9375,0 -19.9375,-77.6838 z m 48.4375,189.4737 -19,-73.8937 -57.9375,0 -18.05,73.8937 -38.9375,0 67.4375,-270 37.9875,0 67.4375,270 -38.9375,0 z"
   id="path15" /><path
   inkscape:connector-curvature="0"
   style="fill:#000000;fill-rule:nonzero;stroke:none"
   d="m 875.2005,745.33675 c -6.6175,-18.9475 -17.9625,-27.4738 -34.98,-27.4738 l -32.145,0 0,194.2138 32.145,0 c 22.69,0 34.98,-18.0037 38.7625,-38.845 1.89,-17.0525 3.78125,-35.9987 3.78125,-56.8425 0,-30.315 -2.8375,-59.6825 -7.56375,-71.0525 z m 6.6175,192.315 c -9.45375,8.5275 -22.68875,12.3162 -37.81625,12.3162 l -74.68875,0 0,-270 69.01625,0 c 22.69,0 34.035,2.8413 43.48875,10.4201 16.07375,11.3699 27.41875,32.2112 32.145,59.685 3.78125,19.8949 6.6175,43.5787 6.6175,64.4225 0,62.5262 -12.29,102.3162 -38.7625,123.1562 z"
   id="path17" /><path
   inkscape:connector-curvature="0"
   style="fill:#000000;fill-rule:nonzero;stroke:none"
   d="m 585.64675,949.96795 0,-270 127.31375,0 0,37.895 -88.36,0 0,68.2113 56.05625,0 0,36.9462 -56.05625,0 0,89.0563 98.81375,0 0,37.8912 -137.7675,0 z"
   id="path19" /><path
   inkscape:connector-curvature="0"
   style="fill:#000000;fill-rule:nonzero;stroke:none"
   d="m 974.5805,949.96795 0,-270 127.3163,0 0,37.895 -88.3626,0 0,68.2113 56.0588,0 0,36.9462 -56.0588,0 0,89.0563 98.8138,0 0,37.8912 -137.7675,0 z"
   id="path21" /><path
   inkscape:connector-curvature="0"
   style="fill:#000000;fill-rule:nonzero;stroke:none"
   d="m 1693.053,949.96795 0,-270 37.8,0 0,270 -37.8,0 z"
   id="path23" /><path
   inkscape:connector-curvature="0"
   style="fill:#000000;fill-rule:nonzero;stroke:none"
   d="m 2101.278,949.96795 -83.2,-180.9474 0,180.9474 -38.7625,0 0,-270 38.7625,0 73.75,162.0013 0,-162.0013 38.7625,0 0,270 -29.3125,0 z"
   id="path25" /><path
   inkscape:connector-curvature="0"
   style="fill:#000000;fill-rule:nonzero;stroke:none"
   d="m 458.8455,717.86295 -39.7075,0 0,76.7363 39.7075,0 c 22.69125,0 34.98125,-14.2087 34.98125,-38.84 0,-22.7387 -14.18125,-37.8963 -34.98125,-37.8963 z m 1.8925,113.6851 -41.6,0 0,118.4199 -38.76125,0 0,-270 80.36125,0 c 42.5425,0 70.90625,30.3151 70.90625,75.7913 0,49.2625 -25.5275,75.7888 -70.90625,75.7888 z"
   id="path27" /><path
   inkscape:connector-curvature="0"
   style="fill:#000000;fill-rule:nonzero;stroke:none"
   d="m 1574.353,717.86295 -39.7125,0 0,68.2113 39.7125,0 c 22.6875,0 34.975,-12.3175 34.975,-34.1063 0,-20.8424 -14.175,-34.105 -34.975,-34.105 z m 33.0875,232.105 -35.925,-126.9487 -36.875,0 0,126.9487 -38.75,0 0,-270 80.35,0 c 42.55,0 70.9125,28.4201 70.9125,72 0,32.2088 -13.2375,55.895 -38.7625,65.3688 l 38.7625,132.6312 -39.7125,0 z"
   id="path29" /><path
   inkscape:connector-curvature="0"
   style="fill:#000000;fill-rule:nonzero;stroke:none"
   d="m 1221.6292,825.27805 c -11.6812,-7.5688 -23.0237,-15.1613 -30.2649,-20.2563 -21.7675,-15.3225 -33.2976,-36.0012 -33.2976,-59.685 0,-38.8425 30.4451,-70.105 69.45,-70.105 38.0613,0 67.5488,29.3675 68.4988,70.105 l -37.1,0 c -0.95,-18.9475 -14.2738,-31.2637 -31.3988,-31.2637 -18.0762,0 -32.3462,13.2637 -32.3462,31.2637 0,13.2638 5.7075,20.8425 25.6875,32.2112 52.32,30.315 75.1575,59.6851 75.1575,98.5263 0,43.5787 -33.3,78.6325 -75.1575,78.6325 -47.57,0 -76.11,-39.7925 -76.11,-84.3162 l 38.0538,0 c 0,22.7337 11.4175,46.4212 38.0562,46.4212 20.93,0 38.0575,-18.9488 38.0575,-40.7375 0,-16.9188 -6.995,-31.17 -37.2863,-50.7963 z"
   id="path31" /><path
   inkscape:connector-curvature="0"
   style="fill:#000000;fill-rule:nonzero;stroke:none"
   d="m 2253.3655,825.27805 c -11.675,-7.5688 -23.025,-15.1613 -30.2625,-20.2563 -21.7625,-15.3225 -33.3,-36.0012 -33.3,-59.685 0,-38.8425 30.45,-70.105 69.45,-70.105 38.0625,0 67.55,29.3675 68.5,70.105 l -37.1,0 c -0.95,-18.9475 -14.275,-31.2637 -31.4,-31.2637 -18.075,0 -32.3375,13.2637 -32.3375,31.2637 0,13.2638 5.7,20.8425 25.675,32.2112 52.3375,30.315 75.1625,59.6851 75.1625,98.5263 0,43.5787 -33.3,78.6325 -75.1625,78.6325 -47.5625,0 -76.1,-39.7925 -76.1,-84.3162 l 38.05,0 c 0,22.7337 11.4125,46.4212 38.05,46.4212 20.9375,0 38.0625,-18.9488 38.0625,-40.7375 0,-16.9188 -6.9875,-31.17 -37.2875,-50.7963 z"
   id="path33" /><path
   inkscape:connector-curvature="0"
   style="fill:#000000;fill-rule:nonzero;stroke:none"
   d="m 1408.678,715.96925 0,233.9987 -38.95,0 0,-233.9987 -49.4125,0 0,-36.0013 137.7625,0 0,36.0013 -49.4,0 z"
   id="path35" /><path
   inkscape:connector-curvature="0"
   style="fill:#000000;fill-rule:nonzero;stroke:none"
   d="m 493.973,1174.7332 c -6.68,-23.6863 -17.17625,-34.1088 -33.4,-34.1088 -17.1775,0 -27.675,10.4225 -34.35375,33.16 -6.68125,20.8438 -8.58875,38.8413 -8.58875,69.1575 0,29.375 2.8625,46.425 8.58875,68.2125 6.67875,22.7375 17.17625,33.15 34.35375,33.15 16.22375,0 26.72,-10.4125 33.4,-33.15 6.68125,-21.7875 8.58875,-37.9 8.58875,-69.16 0,-30.315 -2.8625,-47.3662 -8.58875,-67.2612 z m 30.5375,161.0462 c -13.36,32.2125 -33.4,46.425 -63.9375,46.425 -32.44625,0 -51.5325,-14.2126 -64.89125,-46.425 -11.4525,-26.5251 -15.27,-52.1 -15.27,-93.785 0,-40.7375 3.8175,-68.2101 15.27,-93.7888 14.31375,-32.2125 33.4,-45.4738 64.89125,-45.4738 31.49125,0 50.5775,13.2613 63.9375,46.4213 11.4525,26.5251 15.26875,52.1038 15.26875,92.8413 0,41.6849 -3.81625,68.21 -15.26875,93.785 z"
   id="path37" /><path
   inkscape:connector-curvature="0"
   style="fill:#000000;fill-rule:nonzero;stroke:none"
   d="m 672.24925,1145.3607 -39.7075,0 0,68.2112 39.7075,0 c 22.69,0 34.98,-12.315 34.98,-34.1039 0,-20.8424 -14.17875,-34.1075 -34.98,-34.1075 z m 33.09,232.1062 -35.92625,-126.9475 -36.87125,0 0,126.9475 -38.7625,0 0,-269.9989 80.36125,0 c 42.54375,0 70.90625,28.4202 70.90625,72 0,32.2088 -13.23625,55.8925 -38.7625,65.3688 l 38.7625,132.6299 -39.7075,0 z"
   id="path39" /><path
   inkscape:connector-curvature="0"
   style="fill:#000000;fill-rule:nonzero;stroke:none"
   d="m 1025.0717,1255.2545 -38.76245,0 0,84.3125 38.76245,0 c 21.7438,0 35.9263,-15.15 35.9263,-38.8375 0,-25.5751 -16.0725,-45.475 -35.9263,-45.475 z m 1.89,-109.8913 -40.65245,0 0,72 40.65245,0 c 17.9638,0 29.3088,-15.1588 29.3088,-39.79 0,-22.7362 -8.5087,-32.21 -29.3088,-32.21 z m 0,232.1037 -79.41495,0 0,-269.9988 85.08755,0 c 35.9275,0 61.4525,28.4201 61.4525,70.1051 0,24.6312 -6.6175,36.0012 -28.3625,58.7349 20.8,17.0537 33.09,39.7963 33.09,67.2711 0,40.7375 -32.145,73.8876 -71.8526,73.8876 z"
   id="path41" /><path
   inkscape:connector-curvature="0"
   style="fill:#000000;fill-rule:nonzero;stroke:none"
   d="m 1737.7155,1179.4682 c -3.8125,-26.5263 -14.275,-38.8438 -32.35,-38.8438 -31.4,0 -42.8125,24.6313 -42.8125,94.7388 0,77.6787 13.3125,108.9537 46.6125,108.9537 22.8375,0 28.55,-18.95 28.55,-38.85 l 39,0 c -0.95,44.525 -29.4875,76.7375 -67.55,76.7375 -58.025,0 -83.7125,-46.425 -83.7125,-145.8962 0,-87.1575 27.5875,-133.5788 80.8625,-133.5788 21.8875,0 40.9125,9.475 53.275,27.475 10.4625,13.2625 14.275,24.6325 17.125,49.2638 l -39,0 z"
   id="path43" /><path
   inkscape:connector-curvature="0"
   style="fill:#000000;fill-rule:nonzero;stroke:none"
   d="m 1348.778,1179.4682 c -3.8,-26.5263 -14.275,-38.8438 -32.35,-38.8438 -31.3875,0 -42.8125,24.6313 -42.8125,94.7388 0,77.6787 13.325,108.9537 46.625,108.9537 22.825,0 28.5375,-18.95 28.5375,-38.85 l 39,0 c -0.95,44.525 -29.4875,76.7375 -67.5375,76.7375 -58.0375,0 -83.725,-46.425 -83.725,-145.8962 0,-87.1575 27.5875,-133.5788 80.8625,-133.5788 21.8875,0 40.9125,9.475 53.275,27.475 10.475,13.2625 14.275,24.6325 17.125,49.2638 l -39,0 z"
   id="path45" /><path
   inkscape:connector-curvature="0"
   style="fill:#000000;fill-rule:nonzero;stroke:none"
   d="m 1830.7155,1377.4669 0,-269.9988 38.9625,0 0,233.9988 98.8125,0 0,36 -137.775,0 z"
   id="path47" /><path
   inkscape:connector-curvature="0"
   style="fill:#000000;fill-rule:nonzero;stroke:none"
   d="m 2006.2905,1377.4669 0,-269.9988 127.3125,0 0,37.895 -88.3625,0 0,68.2113 56.0625,0 0,36.9462 -56.0625,0 0,89.0588 98.8125,0 0,37.8875 -137.7625,0 z"
   id="path49" /><path
   inkscape:connector-curvature="0"
   style="fill:#000000;fill-rule:nonzero;stroke:none"
   d="m 1144.7167,1377.4669 0,-269.9988 37.7988,0 0,269.9988 -37.7988,0 z"
   id="path51" /><path
   inkscape:connector-curvature="0"
   style="fill:#000000;fill-rule:nonzero;stroke:none"
   d="m 2253.3405,1252.7769 c -11.6875,-7.5675 -23.025,-15.1612 -30.275,-20.2575 -21.7625,-15.3225 -33.2875,-36 -33.2875,-59.685 0,-38.8412 30.4375,-70.1025 69.45,-70.1025 38.05,0 67.5375,29.3675 68.4875,70.1025 l -37.1,0 c -0.95,-18.945 -14.2625,-31.2612 -31.3875,-31.2612 -18.075,0 -32.35,13.2637 -32.35,31.2612 0,13.2638 5.7125,20.8438 25.6875,32.2113 52.325,30.315 75.15,59.6837 75.15,98.5212 0,43.5875 -33.2875,78.6375 -75.15,78.6375 -47.575,0 -76.1125,-39.7875 -76.1125,-84.3125 l 38.05,0 c 0,22.7375 11.425,46.4125 38.0625,46.4125 20.925,0 38.05,-18.9375 38.05,-40.7375 0,-16.9125 -6.9875,-31.1625 -37.275,-50.79 z"
   id="path53" /><path
   inkscape:connector-curvature="0"
   style="fill:#000000;fill-rule:nonzero;stroke:none"
   d="m 1525.6155,1255.2545 0,122.2124 -38.95,0 0,-122.2124 -66.4875,-147.7863 40.85,0 45.5875,97.5775 44.6375,-97.5775 41.8,0 -67.4375,147.7863 z"
   id="path55" /><path
   inkscape:connector-curvature="0"
   style="fill:#000000;fill-rule:nonzero;stroke:none"
   d="m 1276.5155,522.46795 -103.275,-182.84245 0,182.84245 -42.635,0 0,-270.0012 42.635,0 98.5375,172.4225 0,-172.4225 42.625,0 0,270.0012 -37.8875,0 z"
   id="path57" /><path
   inkscape:connector-curvature="0"
   style="fill:#000000;fill-rule:nonzero;stroke:none"
   d="m 1518.6405,312.1505 c -8.5375,-14.21 -18.9875,-19.89375 -35.1375,-20.84125 -20.8875,-0.94875 -34.1875,9.4725 -43.675,33.1575 -6.65,16.105 -10.45,40.73625 -10.45,63.47375 0,28.42125 5.6875,57.78875 16.1375,74.84245 8.55,14.21 19.95,20.8426 37.0375,20.8426 19.95,0 32.2875,-10.4226 41.7875,-34.10505 5.7,-14.21125 10.45,-40.7375 10.45,-61.58 0,-30.315 -5.7,-57.78875 -16.15,-75.79 z m 29.4375,184.73755 c -15.1875,20.8425 -37.0375,30.3162 -65.525,30.3162 -37.9875,0 -61.725,-15.1587 -77.875,-48.315 -11.3875,-22.7388 -18.9875,-58.7375 -18.9875,-90.94875 0,-44.52625 11.4,-84.315 29.4375,-109.895 16.15,-20.8425 37.9875,-30.315 69.325,-30.315 34.1875,0 57.9375,15.1575 75.025,48.31625 11.4,23.68375 18.05,57.78875 18.05,91.89375 0,42.63125 -10.45,85.26245 -29.45,108.94755 z"
   id="path59" /></svg>