<?xml version="1.0" encoding="UTF-8" standalone="no"?>
<!-- Generator: Adobe Illustrator 13.0.0, SVG Export Plug-In  -->

<svg
   xmlns:dc="http://purl.org/dc/elements/1.1/"
   xmlns:cc="http://creativecommons.org/ns#"
   xmlns:rdf="http://www.w3.org/1999/02/22-rdf-syntax-ns#"
   xmlns:svg="http://www.w3.org/2000/svg"
   xmlns="http://www.w3.org/2000/svg"
   xmlns:sodipodi="http://sodipodi.sourceforge.net/DTD/sodipodi-0.dtd"
   xmlns:inkscape="http://www.inkscape.org/namespaces/inkscape"
   version="1.1"
   x="0px"
   y="0px"
   width="2170"
   height="1090"
   viewBox="-0.937 -0.042 2170 1090"
   enable-background="new -0.937 -0.042 576 660"
   xml:space="preserve"
   id="svg2"
   inkscape:version="0.48.2 r9819"
   sodipodi:docname="AJAX6.svg"><metadata
   id="metadata44"><rdf:RDF><cc:Work
       rdf:about=""><dc:format>image/svg+xml</dc:format><dc:type
         rdf:resource="http://purl.org/dc/dcmitype/StillImage" /><dc:title></dc:title></cc:Work></rdf:RDF></metadata><sodipodi:namedview
   pagecolor="#ffffff"
   bordercolor="#666666"
   borderopacity="1"
   objecttolerance="10"
   gridtolerance="10"
   guidetolerance="10"
   inkscape:pageopacity="0"
   inkscape:pageshadow="2"
   inkscape:window-width="1280"
   inkscape:window-height="1004"
   id="namedview42"
   showgrid="false"
   fit-margin-top="0"
   fit-margin-left="0"
   fit-margin-right="0"
   fit-margin-bottom="0"
   inkscape:zoom="0.25284424"
   inkscape:cx="608.46626"
   inkscape:cy="790.74635"
   inkscape:window-x="-8"
   inkscape:window-y="-8"
   inkscape:window-maximized="1"
   inkscape:current-layer="svg2" />
<defs
   id="defs4">
</defs>


















<path
   inkscape:connector-curvature="0"
   style="fill:#ffffff;fill-rule:nonzero;stroke:#000000;stroke-width:10;stroke-linecap:butt;stroke-linejoin:miter;stroke-miterlimit:4;stroke-opacity:1;stroke-dasharray:none"
   d="m 2164.066,949.956 c 0,74.5577 -60.4375,135.0002 -135,135.0002 l -1890,0 c -74.558125,0 -135,-60.4426 -135,-135.0002 l 0,-810 c 0,-74.55812 60.441875,-135 135,-135 l 1890,0 c 74.5625,0 135,60.44188 135,135 l 0,810 z"
   id="path11" /><path
   inkscape:connector-curvature="0"
   style="fill:#000000;fill-rule:nonzero;stroke:none"
   d="m 2074.066,949.956 c 0,24.8137 -20.1875,45 -45,45 l -1890,0 c -24.81325,0 -45,-20.1863 -45,-45 l 0,-810 c 0,-24.81325 20.18675,-45 45,-45 l 1890,0 c 24.8125,0 45,20.18675 45,45 l 0,810 z m -45,-911.25 -1890,0 c -55.830125,0 -101.25,45.41988 -101.25,101.25 l 0,810 c 0,55.8302 45.419875,101.2502 101.25,101.2502 l 1890,0 c 55.825,0 101.25,-45.42 101.25,-101.2502 l 0,-810 c 0,-55.83012 -45.425,-101.25 -101.25,-101.25 z"
   id="path13" /><path
   inkscape:connector-curvature="0"
   style="fill:#000000;fill-rule:nonzero;stroke:none"
   d="M 1012.4522,477.4572 909.181,294.61475 l 0,182.84245 -42.635,0 0,-270.0012 42.635,0 98.5325,172.4225 0,-172.4225 42.6337,0 0,270.0012 -37.895,0 z"
   id="path15" /><path
   inkscape:connector-curvature="0"
   style="fill:#000000;fill-rule:nonzero;stroke:none"
   d="m 1242.7061,267.141 c -8.5475,-14.21125 -18.9938,-19.89375 -35.1388,-20.8425 -20.8937,-0.9475 -34.19,9.4725 -43.6837,33.1575 -6.6513,16.10625 -10.4475,40.7375 -10.4475,63.47375 0,28.42125 5.6962,57.79 16.1425,74.8425 8.55,14.21125 19.9437,20.8425 37.0387,20.8425 19.9438,0 32.2875,-10.4225 41.7875,-34.105 5.6988,-14.21125 10.4488,-40.7375 10.4488,-61.58 0,-30.315 -5.7025,-57.78875 -16.1475,-75.78875 z m 29.435,184.73625 c -15.1875,20.84255 -37.035,30.31755 -65.5238,30.31755 -37.9887,0 -61.7312,-15.1601 -77.8762,-48.3163 -11.3938,-22.73875 -18.9913,-58.7375 -18.9913,-90.94875 0,-44.52625 11.3963,-84.315 29.4413,-109.895 16.145,-20.8425 37.985,-30.315 69.3262,-30.315 34.1888,0 57.9238,15.1575 75.0238,48.31625 11.4,23.68375 18.05,57.78875 18.05,91.89375 0,42.6325 -10.45,85.2625 -29.45,108.9475 z"
   id="path17" /><path
   inkscape:connector-curvature="0"
   style="fill:#000000;fill-rule:nonzero;stroke:none"
   d="m 1534.4535,692.9835 -18.9875,77.6838 38.9375,0 -19.95,-77.6838 z m 48.4375,189.4737 -18.9875,-73.8962 -57.9375,0 -18.05,73.8962 -38.9375,0 67.4375,-270 37.9875,0 67.4375,270 -38.95,0 z"
   id="path19" /><path
   inkscape:connector-curvature="0"
   style="fill:#000000;fill-rule:nonzero;stroke:none"
   d="M 648.39975,677.8235 C 641.7835,658.876 630.4385,650.3498 613.4185,650.3498 l -32.1425,0 0,194.2125 32.1425,0 c 22.69125,0 34.98125,-18 38.76375,-38.8438 1.89125,-17.0512 3.785,-35.9987 3.785,-56.84 0,-30.3175 -2.83875,-59.685 -7.5675,-71.055 z m 6.61875,192.3175 c -9.45375,8.5263 -22.68875,12.3162 -37.81625,12.3162 l -74.68875,0 0,-270 69.01625,0 c 22.69,0 34.035,2.8388 43.48875,10.4201 16.07125,11.3674 27.41625,32.21 32.14625,59.6837 3.78125,19.8937 6.615,43.5788 6.615,64.4225 0,62.5275 -12.29,102.315 -38.76125,123.1575 z"
   id="path21" /><path
   inkscape:connector-curvature="0"
   style="fill:#000000;fill-rule:nonzero;stroke:none"
   d="m 377.206,882.4572 0,-270 127.31375,0 0,37.8926 -88.36125,0 0,68.2112 56.0575,0 0,36.9488 -56.0575,0 0,89.0525 98.81375,0 0,37.895 -137.76625,0 z"
   id="path23" /><path
   inkscape:connector-curvature="0"
   style="fill:#000000;fill-rule:nonzero;stroke:none"
   d="m 726.18225,882.4572 0,-270 127.315,0 0,37.8926 -88.3625,0 0,68.2112 56.0575,0 0,36.9488 -56.0575,0 0,89.0525 98.81375,0 0,37.895 -137.76625,0 z"
   id="path25" /><path
   inkscape:connector-curvature="0"
   style="fill:#000000;fill-rule:nonzero;stroke:none"
   d="m 1388.491,882.4572 0,-270 37.8,0 0,270 -37.8,0 z"
   id="path27" /><path
   inkscape:connector-curvature="0"
   style="fill:#000000;fill-rule:nonzero;stroke:none"
   d="m 1766.4785,882.4572 -83.2,-180.9474 0,180.9474 -38.7625,0 0,-270 38.7625,0 73.75,162 0,-162 38.7625,0 0,270 -29.3125,0 z"
   id="path29" /><path
   inkscape:connector-curvature="0"
   style="fill:#000000;fill-rule:nonzero;stroke:none"
   d="m 272.006,650.3498 -39.7075,0 0,76.7387 39.7075,0 c 22.69,0 34.98,-14.2112 34.98,-38.8425 0,-22.7375 -14.18125,-37.8962 -34.98,-37.8962 z m 1.89125,113.6862 -41.59875,0 0,118.4212 -38.7625,0 0,-270 80.36125,0 c 42.5425,0 70.90625,30.3151 70.90625,75.7888 0,49.2625 -25.5275,75.79 -70.90625,75.79 z"
   id="path31" /><path
   inkscape:connector-curvature="0"
   style="fill:#000000;fill-rule:nonzero;stroke:none"
   d="m 1288.1535,650.3498 -39.7062,0 0,68.2112 39.7062,0 c 22.6875,0 34.9875,-12.315 34.9875,-34.1037 0,-20.8425 -14.1875,-34.1075 -34.9875,-34.1075 z m 33.0875,232.1074 -35.925,-126.9487 -36.8687,0 0,126.9487 -38.7638,0 0,-270 80.3575,0 c 42.55,0 70.9125,28.4201 70.9125,72 0,32.2088 -13.2375,55.8926 -38.7625,65.3688 l 38.7625,132.6312 -39.7125,0 z"
   id="path33" /><path
   inkscape:connector-curvature="0"
   style="fill:#000000;fill-rule:nonzero;stroke:none"
   d="m 960.27225,757.766 c -11.6825,-7.5675 -23.025,-15.1612 -30.26625,-20.2575 -21.7675,-15.3225 -33.29875,-36 -33.29875,-59.685 0,-38.8412 30.445,-70.105 69.45125,-70.105 38.0537,0 67.5462,29.37 68.4987,70.105 l -37.10495,0 c -0.95,-18.945 -14.2675,-31.2625 -31.39375,-31.2625 -18.07625,0 -32.34625,13.265 -32.34625,31.2625 0,13.2638 5.7075,20.8438 25.6875,32.2112 52.32495,30.315 75.15745,59.6851 75.15745,98.5263 0,43.5787 -33.2987,78.6325 -75.15745,78.6325 -47.57,0 -76.11,-39.79 -76.11,-84.3162 l 38.05375,0 c 0,22.7362 11.41625,46.4212 38.05625,46.4212 20.92875,0 38.0525,-18.9488 38.0525,-40.7375 0,-16.9188 -6.99,-31.1675 -37.28,-50.795 z"
   id="path35" /><path
   inkscape:connector-curvature="0"
   style="fill:#000000;fill-rule:nonzero;stroke:none"
   d="m 1900.216,757.766 c -11.6875,-7.5675 -23.025,-15.1612 -30.275,-20.2575 -21.7625,-15.3225 -33.3,-36 -33.3,-59.685 0,-38.8412 30.45,-70.105 69.4625,-70.105 38.05,0 67.5375,29.37 68.4875,70.105 l -37.1,0 c -0.95,-18.945 -14.2625,-31.2625 -31.3875,-31.2625 -18.0875,0 -32.35,13.265 -32.35,31.2625 0,13.2638 5.7,20.8438 25.6875,32.2112 52.325,30.315 75.15,59.6851 75.15,98.5263 0,43.5787 -33.2875,78.6325 -75.15,78.6325 -47.575,0 -76.1125,-39.79 -76.1125,-84.3162 l 38.05,0 c 0,22.7362 11.425,46.4212 38.0625,46.4212 20.925,0 38.05,-18.9488 38.05,-40.7375 0,-16.9188 -6.9875,-31.1675 -37.275,-50.795 z"
   id="path37" /><path
   inkscape:connector-curvature="0"
   style="fill:#000000;fill-rule:nonzero;stroke:none"
   d="m 1137.5985,648.456 0,234.0012 -38.955,0 0,-234.0012 -49.4063,0 0,-35.9988 137.7688,0 0,35.9988 -49.4075,0 z"
   id="path39" /></svg>