<?xml version="1.0" encoding="UTF-8" standalone="no"?>
<!-- Generator: Adobe Illustrator 13.0.0, SVG Export Plug-In  -->

<svg
   xmlns:dc="http://purl.org/dc/elements/1.1/"
   xmlns:cc="http://creativecommons.org/ns#"
   xmlns:rdf="http://www.w3.org/1999/02/22-rdf-syntax-ns#"
   xmlns:svg="http://www.w3.org/2000/svg"
   xmlns="http://www.w3.org/2000/svg"
   xmlns:sodipodi="http://sodipodi.sourceforge.net/DTD/sodipodi-0.dtd"
   xmlns:inkscape="http://www.inkscape.org/namespaces/inkscape"
   version="1.1"
   x="0px"
   y="0px"
   width="2710"
   height="2710"
   viewBox="-0.937 -0.042 2710 2710"
   enable-background="new -0.937 -0.042 576 660"
   xml:space="preserve"
   id="svg2"
   inkscape:version="0.48.4 r9939"
   sodipodi:docname="MUTCD_no_non-motorized_traffic.svg"><metadata
   id="metadata44"><rdf:RDF><cc:Work
       rdf:about=""><dc:format>image/svg+xml</dc:format><dc:type
         rdf:resource="http://purl.org/dc/dcmitype/StillImage" /><dc:title /></cc:Work></rdf:RDF></metadata><sodipodi:namedview
   pagecolor="#ffffff"
   bordercolor="#666666"
   borderopacity="1"
   objecttolerance="10"
   gridtolerance="10"
   guidetolerance="10"
   inkscape:pageopacity="0"
   inkscape:pageshadow="2"
   inkscape:window-width="1920"
   inkscape:window-height="1147"
   id="namedview42"
   showgrid="false"
   fit-margin-top="0"
   fit-margin-left="0"
   fit-margin-right="0"
   fit-margin-bottom="0"
   inkscape:zoom="0.25284424"
   inkscape:cx="868.77491"
   inkscape:cy="995.66886"
   inkscape:window-x="-8"
   inkscape:window-y="-8"
   inkscape:window-maximized="1"
   inkscape:current-layer="svg2" />
<defs
   id="defs4">
</defs>


















<g
   id="g3541"
   transform="translate(0,-270.00882)"><path
     id="path11"
     d="m 2704.0655,2569.9669 c 0,74.5625 -60.4375,135 -135,135 l -2430,0 c -74.559375,0 -135,-60.4375 -135,-135 l 0,-1890.00015 c 0,-74.55812 60.440625,-135 135,-135 l 2430,0 c 74.5625,0 135,60.44188 135,135 l 0,1890.00015 z"
     style="fill:#ffffff;fill-rule:nonzero;stroke:#000000;stroke-width:10;stroke-linecap:butt;stroke-linejoin:miter;stroke-miterlimit:4;stroke-opacity:1;stroke-dasharray:none"
     inkscape:connector-curvature="0" /><path
     id="path13"
     d="m 2614.0655,2569.9669 c 0,24.8125 -20.1875,45 -45,45 l -2430,0 c -24.812,0 -45,-20.1875 -45,-45 l 0,-1890.00015 c 0,-24.812 20.188,-45 45,-45 l 2430,0 c 24.8125,0 45,20.188 45,45 l 0,1890.00015 z m -45,-1991.25015 -2430,0 c -55.830125,0 -101.25,45.41988 -101.25,101.25 l 0,1890.00015 c 0,55.8249 45.419875,101.25 101.25,101.25 l 2430,0 c 55.825,0 101.25,-45.4251 101.25,-101.25 l 0,-1890.00015 c 0,-55.83012 -45.425,-101.25 -101.25,-101.25 z"
     style="fill:#000000;fill-rule:nonzero;stroke:none"
     inkscape:connector-curvature="0" /><path
     id="path15"
     d="m 1828.3405,2344.9669 0,-315 50.4,0 0,315 -50.4,0 z"
     style="fill:#000000;fill-rule:nonzero;stroke:none"
     inkscape:connector-curvature="0" /><path
     id="path17"
     d="m 667.768,2074.1794 0,270.7875 -49.95,0 0,-270.7875 -72.16125,0 0,-44.2125 195.38,0 0,44.2125 -73.26875,0 z"
     style="fill:#000000;fill-rule:nonzero;stroke:none"
     inkscape:connector-curvature="0" /><path
     id="path19"
     d="m 926.45175,2085.2294 c -7.735,-4.4125 -12.1575,-5.5251 -28.7375,-5.5251 l -59.68875,0 0,77.375 59.68875,0 c 15.47625,0 21.0025,-1.1125 28.7375,-5.5252 12.16125,-6.6374 19.89875,-19.9 19.89875,-33.1623 0,-13.2626 -7.7375,-26.5252 -19.89875,-33.1624 z m 22.1075,259.7375 -50.845,-137.05 -59.68875,0 0,137.05 -49.73875,0 0,-315 103.9,0 c 24.31875,0 40.89875,2.2125 56.3725,9.95 27.63375,13.2625 47.53,46.425 47.53,78.4749 0,33.1624 -19.89625,66.3125 -48.63375,79.5751 l 55.2687,147 -54.16495,0 z"
     style="fill:#000000;fill-rule:nonzero;stroke:none"
     inkscape:connector-curvature="0" /><path
     id="path21"
     d="m 1162.4318,2117.2919 -32.2375,88.4124 63.365,0 -31.1275,-88.4124 z m 80.04,227.675 -31.1263,-88.4125 -98.9375,0 -31.1262,88.4125 -53.3588,0 108.9413,-315 50.025,0 108.9387,315 -53.3562,0 z"
     style="fill:#000000;fill-rule:nonzero;stroke:none"
     inkscape:connector-curvature="0" /><path
     id="path23"
     d="m 2067.4155,2350.4919 c -46.425,0 -76.275,-17.675 -96.1625,-56.3625 -14.375,-27.625 -23.2125,-67.4251 -23.2125,-107.2125 0,-49.7376 13.2625,-99.475 35.3625,-127.1 18.8,-23.2125 45.325,-35.375 80.7,-35.375 47.525,0 77.3625,19.9 98.375,64.1125 l -46.425,19.8875 c -17.6875,-26.525 -27.6375,-33.1625 -51.95,-33.1625 -25.425,0 -42.0125,11.0625 -53.0625,38.6875 -7.7375,18.7875 -12.1625,46.425 -12.1625,72.95 0,34.2624 7.7375,68.525 19.9,88.425 11.05,16.575 25.425,24.3125 47.525,24.3125 21.0125,0 36.475,-11.05 48.6375,-36.475 l 47.5375,17.6875 c -18.8,46.425 -49.75,69.625 -95.0625,69.625 z"
     style="fill:#000000;fill-rule:nonzero;stroke:none"
     inkscape:connector-curvature="0" /><path
     id="path25"
     d="m 1392.753,2079.7043 0,77.375 91.6125,0 0,50.8376 -91.6125,0 0,137.05 -49.675,0 0,-315 195.375,0 0,49.7375 -145.7,0 z"
     style="fill:#000000;fill-rule:nonzero;stroke:none"
     inkscape:connector-curvature="0" /><path
     id="path27"
     d="m 1635.378,2079.7043 0,77.375 91.625,0 0,50.8376 -91.625,0 0,137.05 -49.675,0 0,-315 195.3875,0 0,49.7375 -145.7125,0 z"
     style="fill:#000000;fill-rule:nonzero;stroke:none"
     inkscape:connector-curvature="0" /><path
     id="path29"
     d="m 1263.5905,1219.9693 -120.4875,-213.3163 0,213.3163 -49.74,0 0,-315.0013 49.74,0 114.95,201.1588 0,-201.1588 49.75,0 0,315.0012 -44.2125,0 z"
     style="fill:#000000;fill-rule:nonzero;stroke:none"
     inkscape:connector-curvature="0" /><path
     id="path31"
     d="m 1546.078,974.6005 c -9.975,-16.58 -22.1625,-23.21125 -41,-24.31625 -24.375,-1.105 -39.8875,11.05125 -50.9625,38.68375 -7.7625,18.79 -12.1875,47.5276 -12.1875,74.0526 0,33.1587 6.65,67.4212 18.8375,87.3162 9.975,16.5788 23.2625,24.3162 43.2125,24.3162 23.2625,0 37.6625,-12.1599 48.75,-39.79 6.6375,-16.5787 12.1875,-47.5262 12.1875,-71.8424 0,-35.3676 -6.65,-67.4201 -18.8375,-88.4201 z m 34.3375,215.5251 c -17.725,24.3174 -43.2,35.37 -76.4375,35.37 -44.325,0 -72.025,-17.6863 -90.8625,-56.3688 -13.2875,-26.5287 -22.15,-68.5262 -22.15,-106.1062 0,-51.9464 13.2875,-98.36635 34.3375,-128.2101 18.8375,-24.3175 44.325,-35.36875 80.8875,-35.36875 39.8875,0 67.5875,17.685 87.525,56.36875 13.3,27.63125 21.05,67.42 21.05,107.2101 0,49.7375 -12.1875,99.4725 -34.35,127.105 z"
     style="fill:#000000;fill-rule:nonzero;stroke:none"
     inkscape:connector-curvature="0" /><path
     id="path33"
     d="m 268.89425,1782.4669 -61.70375,-186.79 0,186.79 -39.6675,0 0,-315.0002 39.6675,0 56.19375,156.9477 0,-156.9477 39.6675,0 0,315.0002 -34.1575,0 z"
     style="fill:#000000;fill-rule:nonzero;stroke:none"
     inkscape:connector-curvature="0" /><path
     id="path35"
     d="m 669.10175,1782.4669 -61.70375,-186.79 0,186.79 -39.66625,0 0,-315.0002 39.66625,0 56.195,156.9477 0,-156.9477 39.6675,0 0,315.0002 -34.15875,0 z"
     style="fill:#000000;fill-rule:nonzero;stroke:none"
     inkscape:connector-curvature="0" /><path
     id="path37"
     d="m 435.41425,1503.9406 c -36.475,0 -31.50625,98.3688 -31.50625,120.4738 0,20.9988 -4.96875,122.6838 31.50625,122.6838 35.37,0 30.40125,-101.685 30.40125,-122.6838 0,-25.4212 -0.55875,-120.4739 -30.40125,-120.4739 z m 0,284.0538 c -78.47625,0 -72.4025,-111.6325 -72.4025,-163.58 0,-54.1587 -4.96875,-161.3688 72.4025,-161.3688 77.37125,0 72.40125,108.3163 72.40125,161.3688 0,51.9475 4.97,163.58 -72.40125,163.58 z"
     style="fill:#000000;fill-rule:nonzero;stroke:none"
     inkscape:connector-curvature="0" /><path
     id="path39"
     d="m 2496.2655,1553.6782 c -3.3,-34.264 -9.9125,-45.3164 -26.4375,-45.3164 l -25.35,0 0,233.2114 25.35,0 c 14.325,0 22.0375,-9.9488 26.4375,-33.1588 1.1,-11.0525 3.3125,-46.4213 3.3125,-74.0525 0,-23.2112 -2.2125,-58.5787 -3.3125,-80.6837 z m 37.4625,-9.9475 c 3.6125,25.52 6.6125,54.1574 6.6125,80.6837 0,74.0537 -9.9125,121.5787 -28.65,142.5787 -8.8125,9.9476 -24.2375,15.4738 -41.8625,15.4738 l -65.0125,0 0,-315.0002 65.0125,0 c 22.0375,0 37.4625,7.7363 47.375,23.21 7.7125,12.1588 13.725,33.235 16.525,53.054 z"
     style="fill:#000000;fill-rule:nonzero;stroke:none"
     inkscape:connector-curvature="0" /><path
     id="path41"
     d="m 2234.6405,1782.4669 0,-315.0002 115.375,0 0,40.895 -75.825,0 0,80.684 50.55,0 0,42 -50.55,0 0,110.5262 80.225,0 0,40.895 -119.775,0 z"
     style="fill:#000000;fill-rule:nonzero;stroke:none"
     inkscape:connector-curvature="0" /><path
     id="path43"
     d="m 1957.353,1782.4669 0,-315.0002 40.95,0 0,315.0002 -40.95,0 z"
     style="fill:#000000;fill-rule:nonzero;stroke:none"
     inkscape:connector-curvature="0" /><path
     id="path45"
     d="m 1132.9118,1782.4669 0,-186.79 -36.475,118.265 -38.3988,-118.265 0,186.79 -39.7775,0 0,-315.0002 39.7775,0 38.3988,111.6327 36.475,-111.6327 39.7775,0 0,315.0002 -39.7775,0 z"
     style="fill:#000000;fill-rule:nonzero;stroke:none"
     inkscape:connector-curvature="0" /><path
     id="path47"
     d="m 1305.053,1503.9406 c -36.475,0 -31.5125,98.3688 -31.5125,120.4738 0,20.9988 -4.9625,122.6838 31.5125,122.6838 35.3625,0 30.4,-101.685 30.4,-122.6838 0,-25.4212 -0.5625,-120.4739 -30.4,-120.4739 z m 0,284.0538 c -78.4775,0 -72.4037,-111.6325 -72.4037,-163.58 0,-54.1587 -4.9688,-161.3688 72.4037,-161.3688 77.375,0 72.4,108.3163 72.4,161.3688 0,51.9475 4.975,163.58 -72.4,163.58 z"
     style="fill:#000000;fill-rule:nonzero;stroke:none"
     inkscape:connector-curvature="0" /><path
     id="path49"
     d="m 1639.1155,1503.9406 c -36.475,0 -31.5125,98.3688 -31.5125,120.4738 0,20.9988 -4.9625,122.6838 31.5125,122.6838 35.3625,0 30.4,-101.685 30.4,-122.6838 0,-25.4212 -0.5625,-120.4739 -30.4,-120.4739 z m 0,284.0538 c -78.4875,0 -72.4125,-111.6325 -72.4125,-163.58 0,-54.1587 -4.9625,-161.3688 72.4125,-161.3688 77.3625,0 72.4,108.3163 72.4,161.3688 0,51.9475 4.9625,163.58 -72.4,163.58 z"
     style="fill:#000000;fill-rule:nonzero;stroke:none"
     inkscape:connector-curvature="0" /><path
     id="path51"
     d="m 1830.6155,1508.3618 -19.3625,0 0,86.2114 26,0 c 22.125,0 28.775,-9.9475 28.775,-39.7888 0,-35.3701 -7.75,-46.4226 -35.4125,-46.4226 z m 43.15,117.1576 32.0875,156.9486 -40.9375,0 -35.4,-147.0011 -18.2625,0 0,147.0011 -39.825,0 0,-315.0012 61.4,0 c 48.6875,0 74.125,29.8425 74.125,88.4212 0,35.3689 -9.95,55.2638 -33.1875,69.6312 z"
     style="fill:#000000;fill-rule:nonzero;stroke:none"
     inkscape:connector-curvature="0" /><path
     id="path53"
     d="m 1490.828,1508.3618 0,274.1064 -39.75,0 0,-274.1064 -38.9125,0 0,-40.895 119.7875,0 0,40.895 -41.125,0 z"
     style="fill:#000000;fill-rule:nonzero;stroke:none"
     inkscape:connector-curvature="0" /><path
     id="path55"
     d="m 2048.703,1782.4669 0,-44.2087 91.55,-229.8964 -84.075,0 0,-40.895 128.05,0 0,40.895 -91.5375,229.8964 91.5375,0 0,44.2087 -135.525,0 z"
     style="fill:#000000;fill-rule:nonzero;stroke:none"
     inkscape:connector-curvature="0" /><path
     id="path57"
     d="m 782.0105,1655.6444 0,-40.895 157.5,0 0,40.895 -157.5,0 z"
     style="fill:#000000;fill-rule:nonzero;stroke:none"
     inkscape:connector-curvature="0" /></g></svg>