<?xml version="1.0" encoding="UTF-8" standalone="no"?>
<!-- Generator: Adobe Illustrator 13.0.0, SVG Export Plug-In  -->

<svg
   xmlns:dc="http://purl.org/dc/elements/1.1/"
   xmlns:cc="http://creativecommons.org/ns#"
   xmlns:rdf="http://www.w3.org/1999/02/22-rdf-syntax-ns#"
   xmlns:svg="http://www.w3.org/2000/svg"
   xmlns="http://www.w3.org/2000/svg"
   xmlns:sodipodi="http://sodipodi.sourceforge.net/DTD/sodipodi-0.dtd"
   xmlns:inkscape="http://www.inkscape.org/namespaces/inkscape"
   version="1.1"
   x="0px"
   y="0px"
   width="2170"
   height="2710"
   viewBox="-0.937 -0.042 2170 2710"
   enable-background="new -0.937 -0.042 576 660"
   xml:space="preserve"
   id="svg2"
   inkscape:version="0.48.2 r9819"
   sodipodi:docname="AJAX2.svg"><metadata
   id="metadata44"><rdf:RDF><cc:Work
       rdf:about=""><dc:format>image/svg+xml</dc:format><dc:type
         rdf:resource="http://purl.org/dc/dcmitype/StillImage" /><dc:title></dc:title></cc:Work></rdf:RDF></metadata><sodipodi:namedview
   pagecolor="#ffffff"
   bordercolor="#666666"
   borderopacity="1"
   objecttolerance="10"
   gridtolerance="10"
   guidetolerance="10"
   inkscape:pageopacity="0"
   inkscape:pageshadow="2"
   inkscape:window-width="1280"
   inkscape:window-height="1004"
   id="namedview42"
   showgrid="false"
   fit-margin-top="0"
   fit-margin-left="0"
   fit-margin-right="0"
   fit-margin-bottom="0"
   inkscape:zoom="0.25284424"
   inkscape:cx="819.3329"
   inkscape:cy="1513.7892"
   inkscape:window-x="-8"
   inkscape:window-y="-8"
   inkscape:window-maximized="1"
   inkscape:current-layer="svg2" />
<defs
   id="defs4">
</defs>


















<path
   inkscape:connector-curvature="0"
   style="fill:#ffffff;fill-rule:nonzero;stroke:#000000;stroke-width:10;stroke-linecap:butt;stroke-linejoin:miter;stroke-miterlimit:4;stroke-opacity:1;stroke-dasharray:none"
   d="m 2164.0655,2569.9669 c 0,74.5625 -60.4375,135 -135,135 l -1890,0 c -74.559375,0 -135,-60.4375 -135,-135 l 0,-2430.00015 c 0,-74.559375 60.440625,-135 135,-135 l 1890,0 c 74.5625,0 135,60.440625 135,135 l 0,2430.00015 z"
   id="path11" /><path
   inkscape:connector-curvature="0"
   style="fill:#000000;fill-rule:nonzero;stroke:none"
   d="m 2074.0655,2569.9669 c 0,24.8125 -20.1875,45 -45,45 l -1890,0 c -24.81325,0 -45,-20.1875 -45,-45 l 0,-2430.00015 c 0,-24.81325 20.18675,-45 45,-45 l 1890,0 c 24.8125,0 45,20.18675 45,45 l 0,2430.00015 z m -45,-2531.25015 -1890,0 c -55.830125,0 -101.25,45.419875 -101.25,101.25 l 0,2430.00015 c 0,55.8249 45.419875,101.25 101.25,101.25 l 1890,0 c 55.825,0 101.25,-45.4251 101.25,-101.25 l 0,-2430.00015 c 0,-55.830125 -45.425,-101.25 -101.25,-101.25 z"
   id="path13" /><path
   inkscape:connector-curvature="0"
   style="fill:#000000;fill-rule:nonzero;stroke:none"
   d="m 1711.0155,2219.6044 c -8.2875,25.05 -31.7375,41.675 -64.75,41.675 -36.825,0 -58.4,-13.8875 -69.825,-48 -11.425,-32.8375 -15.2375,-65.675 -15.2375,-138.9375 0,-72 3.8125,-103.5875 16.5,-137.6875 11.425,-32.8375 33.0125,-46.7375 68.5625,-46.7375 40.625,0 64.75,25.2625 69.825,69.475 l -45.7,0 c -2.5375,-15.1625 -10.1625,-22.7375 -22.8625,-22.7375 -16.5,0 -27.925,11.375 -31.7375,35.3625 -5.075,29.0625 -7.6125,53.0625 -7.6125,102.325 0,49.2625 2.5375,73.2625 6.35,103.575 5.075,24 13.9625,36.6374 30.4625,36.6374 16.5125,0 25.4,-15.1625 25.4,-39.1625 l 0,-48 -21.5875,0 0,-46.7375 67.2875,0 0,92.2125 c 0,16.4251 -1.4375,35.6999 -5.075,46.7376 z"
   id="path15" /><path
   inkscape:connector-curvature="0"
   style="fill:#000000;fill-rule:nonzero;stroke:none"
   d="m 1150.6205,2254.9669 0,-360 45.2113,0 0,318.3125 91.6837,0 0,41.6875 -136.895,0 z"
   id="path17" /><path
   inkscape:connector-curvature="0"
   style="fill:#000000;fill-rule:nonzero;stroke:none"
   d="m 1900.078,2099.6044 c 10.3875,22.3 17.7,53.05 17.7,78.3125 0,25.2624 -11.375,51.7874 -29.075,66.9499 -11.3875,10.1 -27.5,16.4251 -46.475,16.4251 -50.5625,0 -76.8125,-32.85 -79.3375,-96 l 46.7875,0 c 0,13.8874 1.2625,18.9375 3.7875,26.525 3.7875,13.8874 14.8625,22.7375 28.7625,22.7375 17.7,0 28.775,-13.9 28.775,-36.6375 0,-31.575 -11.075,-58.1 -38.8875,-90.95 -16.4375,-18.9375 -27.5,-32.8375 -31.2875,-37.8875 -20.2375,-24 -29.0875,-49.2625 -29.0875,-74.525 0,-49.2625 30.0375,-84.6375 73.025,-84.6375 44.25,0 67.9625,27.7875 73.0125,84.6375 l -46.775,0 c -1.2625,-27.8 -8.5375,-39.1625 -24.975,-39.1625 -17.7,0 -27.5,15.1625 -27.5,39.1625 0,16.4125 6,29.05 24.975,49.2625 39.1875,44.2125 45.8375,52.7375 56.575,75.7875 z"
   id="path19" /><path
   inkscape:connector-curvature="0"
   style="fill:#000000;fill-rule:nonzero;stroke:none"
   d="m 1481.4405,2223.3918 c -13.875,26.525 -34.0625,37.9 -65.6125,37.9 -36.5875,0 -58.9875,-16.4251 -71.6125,-49.275 -3.775,-11.3626 -6.3,-23.9876 -6.3,-45.4626 l 0,-271.5875 45.425,0 0,277.9 c 0,26.5251 11.0375,41.6875 32.4875,41.6875 20.1875,0 31.55,-15.1624 31.55,-41.6875 l 0,-277.9 45.425,0 0,271.5875 c 0,25.2625 -3.7875,42.95 -11.3625,56.8376 z"
   id="path21" /><path
   inkscape:connector-curvature="0"
   style="fill:#000000;fill-rule:nonzero;stroke:none"
   d="m 925.28675,2254.9669 0,-168 -64.22375,0 0,168 -45.3325,0 0,-360 45.3325,0 0,145.2625 64.22375,0 0,-145.2625 45.33375,0 0,360 -45.33375,0 z"
   id="path23" /><path
   inkscape:connector-curvature="0"
   style="fill:#000000;fill-rule:nonzero;stroke:none"
   d="m 531.23925,2254.9669 0,-360 46.80125,0 0,360 -46.80125,0 z"
   id="path25" /><path
   inkscape:connector-curvature="0"
   style="fill:#000000;fill-rule:nonzero;stroke:none"
   d="m 718.33425,1941.7044 0,313.2625 -45.42125,0 0,-313.2625 -44.4725,0 0,-46.7375 136.89,0 0,46.7375 -46.99625,0 z"
   id="path27" /><path
   inkscape:connector-curvature="0"
   style="fill:#000000;fill-rule:nonzero;stroke:none"
   d="m 438.618,2254.9669 -39.37,0 -34.2875,-202.1 -33.02,202.1 -39.3675,0 -42.22375,-360 46.98875,0 19.3625,166.7375 29.21,-166.7375 39.36875,0 29.20875,166.7375 19.36375,-166.7375 46.9875,0 -42.22125,360 z"
   id="path29" /><path
   inkscape:connector-curvature="0"
   style="fill:#000000;fill-rule:nonzero;stroke:none"
   d="m 980.6605,814.968 -137.695,-243.79 0,243.79 -56.845,0 0,-360.00125 56.845,0 131.3775,229.89625 0,-229.89625 56.845,0 0,360.00125 -50.5275,0 z"
   id="path31" /><path
   inkscape:connector-curvature="0"
   style="fill:#000000;fill-rule:nonzero;stroke:none"
   d="m 1303.5031,534.54675 c -11.4,-18.94875 -25.325,-26.52625 -46.85,-27.79 -27.8575,-1.26375 -45.5825,12.63125 -58.245,44.21 -8.865,21.475 -13.9288,54.31625 -13.9288,84.63125 0,37.89625 7.595,77.05375 21.5238,99.79 11.3987,18.94875 26.5912,27.79125 49.3875,27.79125 26.5875,0 43.05,-13.89625 55.7125,-45.47375 7.6,-18.9475 13.925,-54.31625 13.925,-82.1075 0,-40.42 -7.6,-77.05 -21.525,-101.05125 z m 39.25,246.315 c -20.25,27.79125 -49.375,40.4225 -87.3625,40.4225 -50.6525,0 -82.31,-20.2125 -103.8363,-64.42125 -15.1925,-30.3175 -25.3225,-78.315 -25.3225,-121.265 0,-59.3675 15.1938,-112.41875 39.2538,-146.525 21.525,-27.79125 50.6487,-40.42125 92.43,-40.42125 45.5875,0 77.25,20.21125 100.0375,64.42125 15.1875,31.57875 24.0625,77.05125 24.0625,122.525 0,56.84375 -13.9375,113.685 -39.2625,145.26375 z"
   id="path33" /><path
   inkscape:connector-curvature="0"
   style="fill:#000000;fill-rule:nonzero;stroke:none"
   d="m 1256.5156,1498.3419 c -7.8775,26.1125 -31.745,42.95 -63.4825,42.95 -36.8188,0 -59.67,-15.1625 -71.0988,-48 -10.1562,-30.325 -15.235,-79.5875 -15.235,-137.6875 0,-32.85 3.8088,-80.85 8.8875,-108.6325 10.1563,-55.5812 31.74,-77.055 74.9075,-77.055 40.625,0 67.2838,25.2638 71.0963,69.4738 l -46.9763,0 c -1.2687,-15.1575 -10.1562,-22.7363 -22.8512,-22.7363 -16.5063,0 -25.3925,11.3688 -30.4713,35.3699 -6.3475,29.0551 -7.6162,55.58 -7.6162,103.58 0,50.525 1.2687,72 7.6162,102.3125 5.0788,24 13.965,36.6375 29.2025,36.6375 16.5038,0 24.12,-12.6375 24.12,-44.2125 l 46.9763,0 c 0,27.7873 -1.275,35.3624 -5.075,48 z"
   id="path35" /><path
   inkscape:connector-curvature="0"
   style="fill:#000000;fill-rule:nonzero;stroke:none"
   d="m 521.8805,1534.9669 0,-359.9975 131.865,0 0,46.7375 -86.6525,0 0,92.21 57.76875,0 0,48 -57.76875,0 0,126.3125 91.6775,0 0,46.7375 -136.89,0 z"
   id="path37" /><path
   inkscape:connector-curvature="0"
   style="fill:#000000;fill-rule:nonzero;stroke:none"
   d="m 1541.0405,1534.9669 0,-359.9975 131.8625,0 0,46.7375 -86.65,0 0,92.21 57.7625,0 0,48 -57.7625,0 0,126.3125 91.675,0 0,46.7375 -136.8875,0 z"
   id="path39" /><path
   inkscape:connector-curvature="0"
   style="fill:#000000;fill-rule:nonzero;stroke:none"
   d="m 837.44675,1534.9669 0,-168 -64.22375,0 0,168 -45.33125,0 0,-359.9975 45.33125,0 0,145.26 64.22375,0 0,-145.26 45.335,0 0,359.9975 -45.335,0 z"
   id="path41" /><path
   inkscape:connector-curvature="0"
   style="fill:#000000;fill-rule:nonzero;stroke:none"
   d="m 977.8205,1534.9669 0,-359.9975 46.7987,0 0,359.9975 -46.7987,0 z"
   id="path43" /><path
   inkscape:connector-curvature="0"
   style="fill:#000000;fill-rule:nonzero;stroke:none"
   d="m 1343.6655,1534.9669 0,-359.9975 45.2125,0 0,318.3225 91.6875,0 0,41.675 -136.9,0 z"
   id="path45" /><path
   inkscape:connector-curvature="0"
   style="fill:#000000;fill-rule:nonzero;stroke:none"
   d="m 1858.3155,1379.6044 c 10.4,22.3 17.7,53.05 17.7,78.3125 0,25.2625 -11.375,51.7874 -29.075,66.95 -11.375,10.1 -27.5,16.425 -46.4625,16.425 -50.575,0 -76.8125,-32.85 -79.35,-96 l 46.7875,0 c 0,13.8875 1.2625,18.9375 3.7875,26.525 3.8,13.8875 14.8625,22.7375 28.775,22.7375 17.7,0 28.7625,-13.9 28.7625,-36.6375 0,-31.575 -11.0625,-58.1 -38.875,-90.95 -16.45,-18.9501 -27.5125,-32.8377 -31.3,-37.8876 -20.2375,-24 -29.0875,-49.2626 -29.0875,-74.5252 0,-49.2687 30.0375,-84.6375 73.025,-84.6375 44.25,0 67.9625,27.79 73.0125,84.6375 l -46.775,0 c -1.2625,-27.795 -8.5375,-39.1637 -24.975,-39.1637 -17.7,0 -27.5,15.1587 -27.5,39.1637 0,16.4125 6,29.05 24.975,49.2626 39.1875,44.2001 45.8375,52.7374 56.575,75.7874 z"
   id="path47" /><path
   inkscape:connector-curvature="0"
   style="fill:#000000;fill-rule:nonzero;stroke:none"
   d="m 396.1455,1534.9669 -39.09375,0 -64.94125,-359.9975 46.6625,0 38.45625,205.26 37.50875,-205.26 46.66125,0 -65.25375,359.9975 z"
   id="path49" /></svg>