<?xml version="1.0" encoding="UTF-8" standalone="no"?>
<!-- Generator: Adobe Illustrator 13.0.0, SVG Export Plug-In  -->

<svg
   xmlns:dc="http://purl.org/dc/elements/1.1/"
   xmlns:cc="http://creativecommons.org/ns#"
   xmlns:rdf="http://www.w3.org/1999/02/22-rdf-syntax-ns#"
   xmlns:svg="http://www.w3.org/2000/svg"
   xmlns="http://www.w3.org/2000/svg"
   xmlns:sodipodi="http://sodipodi.sourceforge.net/DTD/sodipodi-0.dtd"
   xmlns:inkscape="http://www.inkscape.org/namespaces/inkscape"
   version="1.1"
   x="0px"
   y="0px"
   width="2710"
   height="2170"
   viewBox="-0.937 -0.042 2710 2170"
   enable-background="new -0.937 -0.042 576 660"
   xml:space="preserve"
   id="svg2"
   inkscape:version="0.48.2 r9819"
   sodipodi:docname="AJAX7.svg"><metadata
   id="metadata44"><rdf:RDF><cc:Work
       rdf:about=""><dc:format>image/svg+xml</dc:format><dc:type
         rdf:resource="http://purl.org/dc/dcmitype/StillImage" /><dc:title></dc:title></cc:Work></rdf:RDF></metadata><sodipodi:namedview
   pagecolor="#ffffff"
   bordercolor="#666666"
   borderopacity="1"
   objecttolerance="10"
   gridtolerance="10"
   guidetolerance="10"
   inkscape:pageopacity="0"
   inkscape:pageshadow="2"
   inkscape:window-width="1280"
   inkscape:window-height="1004"
   id="namedview42"
   showgrid="false"
   fit-margin-top="0"
   fit-margin-left="0"
   fit-margin-right="0"
   fit-margin-bottom="0"
   inkscape:zoom="0.25284424"
   inkscape:cx="613.15626"
   inkscape:cy="795.4251"
   inkscape:window-x="-8"
   inkscape:window-y="-8"
   inkscape:window-maximized="1"
   inkscape:current-layer="svg2" />
<defs
   id="defs4">
</defs>


















<path
   inkscape:connector-curvature="0"
   style="fill:#ffffff;fill-rule:nonzero;stroke:#000000;stroke-width:10;stroke-linecap:butt;stroke-linejoin:miter;stroke-miterlimit:4;stroke-opacity:1;stroke-dasharray:none"
   d="m 2704.0655,2029.9669 c 0,74.5625 -60.4375,135 -135,135 l -2430,0 c -74.559375,0 -135,-60.4375 -135,-135 l 0,-1890.00015 c 0,-74.5594 60.440625,-135 135,-135 l 2430,0 c 74.5625,0 135,60.4406 135,135 l 0,1890.00015 z"
   id="path11" /><path
   inkscape:connector-curvature="0"
   style="fill:#000000;fill-rule:nonzero;stroke:none"
   d="m 139.0655,2131.2169 c -55.830125,0 -101.25,-45.4251 -101.25,-101.25 l 0,-1890.00015 c 0,-55.83012 45.419875,-101.25 101.25,-101.25 l 2430,0 c 55.825,0 101.25,45.41988 101.25,101.25 l 0,1890.00015 c 0,55.8249 -45.425,101.25 -101.25,101.25 l -2430,0 z"
   id="path13" /><path
   inkscape:connector-curvature="0"
   style="fill:#ffffff;fill-rule:nonzero;stroke:none"
   d="m 139.0655,2074.9669 c -24.812,0 -45,-20.1875 -45,-45 l 0,-1890.00015 c 0,-24.812 20.188,-45 45,-45 l 2430,0 c 24.8125,0 45,20.188 45,45 l 0,1890.00015 c 0,24.8125 -20.1875,45 -45,45 l -2430,0 z"
   id="path15" /><path
   inkscape:connector-curvature="0"
   style="fill:#000000;fill-rule:nonzero;stroke:none"
   d="m 290.43675,427.33555 -25.33,103.57875 51.92625,0 -26.59625,-103.57875 z m 64.5875,252.63125 -25.32875,-98.52625 -77.25125,0 -24.0625,98.52625 -51.92375,0 89.91625,-360 50.65875,0 89.915,360 -51.92375,0 z"
   id="path17" /><path
   inkscape:connector-curvature="0"
   style="fill:#000000;fill-rule:nonzero;stroke:none"
   d="m 2471.1655,407.1243 c -8.825,-25.26375 -23.95,-36.6325 -46.6375,-36.6325 l -42.8625,0 0,258.94875 42.8625,0 c 30.25,0 46.6375,-24 51.675,-51.79 2.525,-22.73625 5.05,-48 5.05,-75.78875 0,-40.42125 -3.7875,-79.58 -10.0875,-94.7375 z m 8.825,256.42125 c -12.6125,11.36875 -30.25,16.42125 -50.425,16.42125 l -99.5875,0 0,-360 92.025,0 c 30.25,0 45.375,3.78875 57.9875,13.89375 21.425,15.1575 36.55,42.9475 42.8625,79.57875 5.0375,26.5275 8.825,58.10625 8.825,85.89625 0,83.3675 -16.4,136.42125 -51.6875,164.21 z"
   id="path19" /><path
   inkscape:connector-curvature="0"
   style="fill:#000000;fill-rule:nonzero;stroke:none"
   d="m 2091.2155,679.9668 0,-360 169.75,0 0,50.525 -117.8125,0 0,90.94875 74.7375,0 0,49.26375 -74.7375,0 0,118.73625 131.75,0 0,50.52625 -183.6875,0 z"
   id="path21" /><path
   inkscape:connector-curvature="0"
   style="fill:#000000;fill-rule:nonzero;stroke:none"
   d="m 1078.4167,679.9668 0,-162.9475 -98.32245,0 0,162.9475 -51.68375,0 0,-360 51.68375,0 0,146.52625 98.32245,0 0,-146.52625 51.6826,0 0,360 -51.6826,0 z"
   id="path23" /><path
   inkscape:connector-curvature="0"
   style="fill:#000000;fill-rule:nonzero;stroke:none"
   d="m 1728.953,679.9668 0,-360 50.4,0 0,360 -50.4,0 z"
   id="path25" /><path
   inkscape:connector-curvature="0"
   style="fill:#000000;fill-rule:nonzero;stroke:none"
   d="m 1346.3156,409.65055 c -8.9125,-31.57875 -22.9,-45.47375 -44.5375,-45.47375 -22.9,0 -36.9,13.895 -45.8,44.21 -8.9113,27.79 -11.455,51.79 -11.455,92.21125 0,39.15875 3.8175,61.895 11.455,90.9475 8.9,30.31625 22.9,44.21 45.8,44.21 21.6375,0 35.625,-13.89375 44.5375,-44.21 8.9,-29.0525 11.45,-50.52625 11.45,-92.21 0,-40.42125 -3.8125,-63.15875 -11.45,-89.685 z m 40.7125,214.7375 c -17.8125,42.94875 -44.525,61.895 -85.25,61.895 -43.2625,0 -68.7063,-18.94625 -86.52,-61.895 -15.27,-35.36875 -20.3588,-69.47375 -20.3588,-125.0525 0,-54.31625 5.0888,-90.94875 20.3588,-125.05375 19.0862,-42.9475 44.5325,-60.63125 86.52,-60.63125 41.9875,0 67.4375,17.68375 85.25,61.89375 15.275,35.37 20.3625,69.475 20.3625,123.79125 0,55.57875 -5.0875,90.94625 -20.3625,125.0525 z"
   id="path27" /><path
   inkscape:connector-curvature="0"
   style="fill:#000000;fill-rule:nonzero;stroke:none"
   d="m 1576.8155,370.49305 -52.9375,0 0,90.9475 52.9375,0 c 30.25,0 46.6375,-16.42125 46.6375,-45.47375 0,-27.79 -18.9125,-45.47375 -46.6375,-45.47375 z m 44.125,309.47375 -47.9125,-169.26375 -49.15,0 0,169.26375 -51.6875,0 0,-360 107.15,0 c 56.725,0 94.5375,37.89375 94.5375,96 0,42.94625 -17.65,74.52625 -51.6875,87.1575 l 51.6875,176.8425 -52.9375,0 z"
   id="path29" /><path
   inkscape:connector-curvature="0"
   style="fill:#000000;fill-rule:nonzero;stroke:none"
   d="m 817.17425,367.9668 0,312 -51.93875,0 0,-312 -65.87625,0 0,-48 183.69125,0 0,48 -65.87625,0 z"
   id="path31" /><path
   inkscape:connector-curvature="0"
   style="fill:#000000;fill-rule:nonzero;stroke:none"
   d="m 640.133,635.7568 c -17.64875,29.0525 -51.68375,50.52625 -85.71875,50.52625 -35.29625,0 -70.5925,-20.21125 -88.23875,-50.52625 -10.08625,-18.9475 -13.86875,-34.105 -13.86875,-63.15875 l 0,-252.63125 51.68375,0 0,258.9475 c 0,34.105 20.17,56.8425 50.42375,56.8425 27.7325,0 47.9025,-22.7375 47.9025,-56.8425 l 0,-258.9475 51.6825,0 0,252.63125 c 0,29.05375 -3.78125,44.21125 -13.86625,63.15875 z"
   id="path33" /><path
   inkscape:connector-curvature="0"
   style="fill:#000000;fill-rule:nonzero;stroke:none"
   d="m 1834.4405,679.9668 0,-55.3825 136.175,-254.26375 -122.0375,0 0,-50.34875 187.55,0 0,32.7275 -147.7375,278.17875 147.7375,0 0,49.08875 -201.6875,0 z"
   id="path35" /><path
   inkscape:connector-curvature="0"
   style="fill:#000000;fill-rule:nonzero;stroke:none"
   d="m 1496.503,1000.9657 c -5.075,-35.3689 -19.025,-51.79015 -43.125,-51.79015 -41.8625,0 -57.0875,32.8425 -57.0875,126.31515 0,103.58 17.7625,145.265 62.15,145.265 30.45,0 38.0625,-25.2638 38.0625,-51.7925 l 52,0 c -1.2625,59.3699 -39.3125,102.3162 -90.0625,102.3162 -77.375,0 -111.625,-61.8938 -111.625,-194.5262 0,-116.21015 36.7875,-178.10515 107.825,-178.10515 29.175,0 54.55,12.6325 71.0375,36.63375 13.95,17.6825 19.025,32.84125 22.825,65.6838 l -52,0 z"
   id="path37" /><path
   inkscape:connector-curvature="0"
   style="fill:#000000;fill-rule:nonzero;stroke:none"
   d="m 1854.603,1264.9669 0,-360.0001 169.75,0 0,50.525 -117.8125,0 0,90.9464 74.7375,0 0,49.2636 -74.7375,0 0,118.7375 131.75,0 0,50.5275 -183.6875,0 z"
   id="path39" /><path
   inkscape:connector-curvature="0"
   style="fill:#000000;fill-rule:nonzero;stroke:none"
   d="m 698.63925,1264.9669 0,-360.0001 169.75375,0 0,50.525 -117.815,0 0,90.9464 74.745,0 0,49.2636 -74.745,0 0,118.7375 131.75,0 0,50.5275 -183.68875,0 z"
   id="path41" /><path
   inkscape:connector-curvature="0"
   style="fill:#000000;fill-rule:nonzero;stroke:none"
   d="m 1093.538,1264.9669 0,-162.9487 -98.3225,0 0,162.9487 -51.68625,0 0,-360.0001 51.68625,0 0,146.5251 98.3225,0 0,-146.5251 51.6812,0 0,360.0001 -51.6812,0 z"
   id="path43" /><path
   inkscape:connector-curvature="0"
   style="fill:#000000;fill-rule:nonzero;stroke:none"
   d="m 1224.4193,1264.9669 0,-360.0001 50.3963,0 0,360.0001 -50.3963,0 z"
   id="path45" /><path
   inkscape:connector-curvature="0"
   style="fill:#000000;fill-rule:nonzero;stroke:none"
   d="m 1620.5155,1264.9669 0,-360.0001 51.9375,0 0,312.0001 131.75,0 0,48 -183.6875,0 z"
   id="path47" /><path
   inkscape:connector-curvature="0"
   style="fill:#000000;fill-rule:nonzero;stroke:none"
   d="m 2184.003,1098.7119 c -15.575,-10.09 -30.7,-20.215 -40.35,-27.01 -29.025,-20.43 -44.4,-48 -44.4,-79.57885 0,-51.79 40.5875,-93.475 92.6,-93.475 50.7375,0 90.0625,39.1575 91.325,93.475 l -49.4625,0 c -1.275,-25.26375 -19.0375,-41.685 -41.8625,-41.685 -24.1,0 -43.1375,17.685 -43.1375,41.685 0,17.68385 7.6125,27.79005 34.25,42.94765 69.775,40.42 100.2125,79.5787 100.2125,131.3687 0,58.105 -44.4,104.84 -100.2125,104.84 -63.425,0 -101.475,-53.0514 -101.475,-112.4187 l 50.7375,0 c 0,30.315 15.225,61.895 50.7375,61.895 27.9125,0 50.75,-25.2638 50.75,-54.3163 0,-22.5587 -9.325,-41.56 -49.7125,-67.7275 z"
   id="path49" /><path
   inkscape:connector-curvature="0"
   style="fill:#000000;fill-rule:nonzero;stroke:none"
   d="m 555.6255,1264.9669 -39.3275,0 -91.3475,-360.0026 52.01625,0 59.62875,233.6839 59.62875,-233.6839 52.0175,0 -92.61625,360.0026 z"
   id="path51" /><path
   inkscape:connector-curvature="0"
   style="fill:#000000;fill-rule:nonzero;stroke:none"
   d="m 1270.1406,1849.967 -137.6925,-243.7875 0,243.7875 -56.8463,0 0,-360 56.8463,0 131.38,229.9 0,-229.9 56.8374,0 0,360 -50.5249,0 z"
   id="path53" /><path
   inkscape:connector-curvature="0"
   style="fill:#000000;fill-rule:nonzero;stroke:none"
   d="m 902.058,1569.542 c -11.3975,-18.95 -25.325,-26.525 -46.85125,-27.7875 -27.85875,-1.2625 -45.58625,12.6375 -58.2475,44.2125 -8.86375,21.475 -13.9275,54.3125 -13.9275,84.625 0,37.9 7.595,77.0625 21.52375,99.8 11.39875,18.9375 26.59125,27.7875 49.38375,27.7875 26.5925,0 43.0525,-13.9 55.71625,-45.475 7.5975,-18.95 13.9275,-54.3125 13.9275,-82.1125 0,-40.4125 -7.5975,-77.05 -21.525,-101.05 z m 39.2525,246.3125 c -20.26125,27.8 -49.385,40.425 -87.37125,40.425 -50.64875,0 -82.30625,-20.2126 -103.8325,-64.4125 -15.1925,-30.325 -25.3225,-78.325 -25.3225,-121.275 0,-59.3625 15.1925,-112.4125 39.255,-146.5251 21.52375,-27.7874 50.6475,-40.4124 92.4325,-40.4124 45.58625,0 77.24125,20.2125 100.03375,64.4124 15.1925,31.5876 24.0575,77.0625 24.0575,122.5251 0,56.8499 -13.9275,113.6875 -39.2525,145.2625 z"
   id="path55" /><path
   inkscape:connector-curvature="0"
   style="fill:#000000;fill-rule:nonzero;stroke:none"
   d="m 1424.353,1849.967 0,-360 56.775,0 0,306.95 166.5125,0 0,53.05 -223.2875,0 z"
   id="path57" /><path
   inkscape:connector-curvature="0"
   style="fill:#000000;fill-rule:nonzero;stroke:none"
   d="m 1857.653,1693.3295 0,156.6375 -57.125,0 0,-156.6375 -126.9625,-203.3625 68.5625,0 86.325,138.95 87.6,-138.95 67.2875,0 -125.6875,203.3625 z"
   id="path59" /></svg>