<?xml version="1.0" encoding="UTF-8" standalone="no"?>
<!-- Generator: Adobe Illustrator 12.0.1, SVG Export Plug-In  -->

<svg
   xmlns:dc="http://purl.org/dc/elements/1.1/"
   xmlns:cc="http://creativecommons.org/ns#"
   xmlns:rdf="http://www.w3.org/1999/02/22-rdf-syntax-ns#"
   xmlns:svg="http://www.w3.org/2000/svg"
   xmlns="http://www.w3.org/2000/svg"
   xmlns:sodipodi="http://sodipodi.sourceforge.net/DTD/sodipodi-0.dtd"
   xmlns:inkscape="http://www.inkscape.org/namespaces/inkscape"
   version="1.1"
   width="227.84375"
   height="227.84375"
   viewBox="-0.999 0 227.84375 227.84375"
   enable-background="new -0.999 0 289 289"
   xml:space="preserve"
   id="svg2"
   inkscape:version="0.48.2 r9819"
   sodipodi:docname="AJAX1.svg"><metadata
   id="metadata18"><rdf:RDF><cc:Work
       rdf:about=""><dc:format>image/svg+xml</dc:format><dc:type
         rdf:resource="http://purl.org/dc/dcmitype/StillImage" /><dc:title></dc:title></cc:Work></rdf:RDF></metadata><sodipodi:namedview
   pagecolor="#ffffff"
   bordercolor="#666666"
   borderopacity="1"
   objecttolerance="10"
   gridtolerance="10"
   guidetolerance="10"
   inkscape:pageopacity="0"
   inkscape:pageshadow="2"
   inkscape:window-width="1280"
   inkscape:window-height="1004"
   id="namedview16"
   showgrid="false"
   fit-margin-top="0"
   fit-margin-left="0"
   fit-margin-right="0"
   fit-margin-bottom="0"
   inkscape:zoom="1.8901802"
   inkscape:cx="51.850382"
   inkscape:cy="131.0217"
   inkscape:window-x="-8"
   inkscape:window-y="-8"
   inkscape:window-maximized="1"
   inkscape:current-layer="svg2"
   showguides="true"
   inkscape:guide-bbox="true" />
<defs
   id="defs4">
</defs>





<path
   inkscape:connector-curvature="0"
   d="m 226.1045,212.95075 c 0,7.78125 -6.36625,14.14625 -14.14625,14.14625 l -198.0525,0 c -7.78125,0 -14.1475,-6.365 -14.1475,-14.14625 l 0,-198.0525 C -0.24175,7.117 6.1245,0.752 13.90575,0.752 l 198.0525,0 c 7.78,0 14.14625,6.365 14.14625,14.14625 l 0,198.0525 z"
   style="fill:#ffffff;fill-opacity:1;fill-rule:nonzero;stroke:#000000;stroke-width:1.5;stroke-miterlimit:4;stroke-opacity:1;stroke-dasharray:none"
   id="path7250" /><path
   inkscape:connector-curvature="0"
   d="m 211.95786,4.524 -198.0525,0 C 8.19911,4.524 3.53161,9.19275 3.53161,14.89775 l 0,198.0525 c 0,5.70625 4.6675,10.375 10.37375,10.375 l 198.0525,0 c 5.70625,0 10.37375,-4.66875 10.37375,-10.375 l 0,-198.0525 c 0,-5.705 -4.6675,-10.37375 -10.37375,-10.37375 m 4.715,208.42625 c 0,2.59375 -2.12125,4.71625 -4.715,4.71625 l -198.0525,0 c -2.59375,0 -4.715,-2.1225 -4.715,-4.71625 l 0,-198.0525 c 0,-2.5925 2.12125,-4.715 4.715,-4.715 l 198.0525,0 c 2.59375,0 4.715,2.1225 4.715,4.715 l 0,198.0525 z"
   style="fill:#000000;fill-opacity:1;fill-rule:nonzero;stroke:none"
   id="path7258" /><path
   inkscape:connector-curvature="0"
   d="m 159.29911,126.18486 0.0937,0 14.84125,0 0,-53.94125 -81.05375,-0.1425 0,9.41875 -12.98625,0 c -5.2775,0 -8.58125,0 -10.76875,7.2975 l -3.64375,14.25 -8.41875,0 c -4.13875,0 -4.13875,0 -4.13875,3.99625 l 0,19.12125 -4.42375,0 0,4.42375 15.8475,0 c 0.80625,6.0175 4.6525,10.1325 10.7175,10.1325 6.0175,0 10.10375,-4.21 11.45625,-10.1325 l 6.35875,0 0,-4.42375 42.23875,0 c -0.095,0.56875 -0.1425,1.81 -0.1425,2.42625 0,6.68 5.44875,12.13 12.13,12.13 6.68,0 12.12875,-5.45 12.12875,-12.13 0,-0.75875 -0.0937,-1.715 -0.23625,-2.42625"
   style="fill:#000000;fill-opacity:1;fill-rule:evenodd;stroke:none"
   id="path7262" /><path
   inkscape:connector-curvature="0"
   d="m 112.93162,14.89814 c -54.69125,0 -99.02625,44.33625 -99.02625,99.02625 0,54.69 44.335,99.02625 99.02625,99.02625 54.69125,0 99.02625,-44.33625 99.02625,-99.02625 0,-54.69 -44.335,-99.02625 -99.02625,-99.02625 m -80.16375,99.02625 c 0,-18.73875 6.42875,-35.97375 17.2025,-49.62375 l 112.585,112.585 c -13.64875,10.7725 -30.885,17.2025 -49.62375,17.2025 -44.27375,0 -80.16375,-35.89 -80.16375,-80.16375 m 143.125,49.62375 -112.585,-112.585 c 13.64875,-10.7725 30.885,-17.2025 49.62375,-17.2025 44.27375,0 80.16375,35.89 80.16375,80.16375 0,18.73875 -6.43,35.975 -17.2025,49.62375"
   style="fill:#bf2033;fill-opacity:1;fill-rule:nonzero;stroke:none"
   id="path7266" /></svg>