<?xml version="1.0" encoding="UTF-8" standalone="no"?>
<!-- Generator: Adobe Illustrator 12.0.1, SVG Export Plug-In  -->

<svg
   xmlns:dc="http://purl.org/dc/elements/1.1/"
   xmlns:cc="http://creativecommons.org/ns#"
   xmlns:rdf="http://www.w3.org/1999/02/22-rdf-syntax-ns#"
   xmlns:svg="http://www.w3.org/2000/svg"
   xmlns="http://www.w3.org/2000/svg"
   xmlns:sodipodi="http://sodipodi.sourceforge.net/DTD/sodipodi-0.dtd"
   xmlns:inkscape="http://www.inkscape.org/namespaces/inkscape"
   version="1.1"
   width="227.78125"
   height="227.8125"
   viewBox="-0.999 0 227.78125 227.8125"
   enable-background="new -0.999 0 289 289"
   xml:space="preserve"
   id="svg2"
   inkscape:version="0.48.2 r9819"
   sodipodi:docname="AJAX1.svg"><metadata
   id="metadata18"><rdf:RDF><cc:Work
       rdf:about=""><dc:format>image/svg+xml</dc:format><dc:type
         rdf:resource="http://purl.org/dc/dcmitype/StillImage" /><dc:title></dc:title></cc:Work></rdf:RDF></metadata><sodipodi:namedview
   pagecolor="#ffffff"
   bordercolor="#666666"
   borderopacity="1"
   objecttolerance="10"
   gridtolerance="10"
   guidetolerance="10"
   inkscape:pageopacity="0"
   inkscape:pageshadow="2"
   inkscape:window-width="1280"
   inkscape:window-height="1004"
   id="namedview16"
   showgrid="false"
   fit-margin-top="0"
   fit-margin-left="0"
   fit-margin-right="0"
   fit-margin-bottom="0"
   inkscape:zoom="1.8901802"
   inkscape:cx="96.447811"
   inkscape:cy="93.290959"
   inkscape:window-x="-8"
   inkscape:window-y="-8"
   inkscape:window-maximized="1"
   inkscape:current-layer="svg2"
   showguides="true"
   inkscape:guide-bbox="true" />
<defs
   id="defs4">
</defs>





<path
   inkscape:connector-curvature="0"
   d="m 226.04199,212.91476 c 0,7.77875 -6.365,14.14375 -14.14375,14.14375 l -198.00625,0 c -7.77875,0 -14.14375,-6.365 -14.14375,-14.14375 l 0,-198.00625 c 0,-7.77875 6.365,-14.14375 14.14375,-14.14375 l 198.00625,0 c 7.77875,0 14.14375,6.365 14.14375,14.14375 l 0,198.00625 z"
   style="fill:#ffffff;fill-opacity:1;fill-rule:nonzero;stroke:#000000;stroke-width:1.5;stroke-miterlimit:4;stroke-opacity:1;stroke-dasharray:none"
   id="path6298" /><path
   inkscape:connector-curvature="0"
   d="m 211.89862,4.3005 -198.00625,0 c -5.835,0 -10.6075,4.77375 -10.6075,10.6075 l 0,198.00625 c 0,5.835 4.7725,10.6075 10.6075,10.6075 l 198.00625,0 c 5.83375,0 10.6075,-4.7725 10.6075,-10.6075 l 0,-198.00625 c 0,-5.83375 -4.77375,-10.6075 -10.6075,-10.6075 m 4.715,208.61375 c 0,2.59375 -2.1225,4.715 -4.715,4.715 l -198.00625,0 c -2.59375,0 -4.715,-2.12125 -4.715,-4.715 l 0,-198.00625 c 0,-2.5925 2.12125,-4.715 4.715,-4.715 l 198.00625,0 c 2.5925,0 4.715,2.1225 4.715,4.715 l 0,198.00625 z"
   style="fill:#000000;fill-opacity:1;fill-rule:nonzero;stroke:none"
   id="path6306" /><path
   inkscape:connector-curvature="0"
   d="m 80.94089,96.812 7.95625,-21.95 -2.52125,-4.3 5.0425,-5.4875 10.82625,0 0.1475,3.115 -9.49125,0 -1.9275,2.075 2.225,4.005 -2.7975,9.91375 38.85125,0 0.59375,-1.81375 c -3.1225,-0.40625 -8.50875,-2.33 -9.795,-3.4475 -1.28625,-1.11625 -0.16,-2.14375 1.305,-2.1925 7.66875,-0.325 19.06,-0.9675 21.225,-0.9775 2.16375,-0.01 2.385,1.07875 0.93625,2.66375 -1.4475,1.585 -2.71375,3.01125 -8.2025,3.86125 l -1.4825,4.00375 9.1925,11.39 c 4.33375,-2.63125 9.575,-4 14.6675,-4 15.27625,0 27.7375,12.46125 27.7375,27.7375 0,15.2775 -12.46125,27.7375 -27.7375,27.7375 -12.56875,0 -23.62125,-8.6675 -26.86875,-20.64625 l -8.4475,1.5175 c -0.36125,0.99625 -1.205,1.75875 -2.2125,2.3575 l 1.5075,7.14625 1.9275,0 0.14875,1.9275 -6.08,0.29625 0,-2.07625 1.4825,0 -1.83625,-7.14125 c -2.7325,-0.4475 -4.165,-2.7875 -3.35125,-5.10875 L 86.36589,96.207 85.12964,99.5545 c 6.69875,5.27625 10.7075,13.4025 10.7075,21.85375 0,15.2775 -12.46,27.7375 -27.7375,27.7375 -15.2775,0 -27.7375,-12.46 -27.7375,-27.7375 0,-15.27625 12.46,-27.7375 27.7375,-27.7375 4.4425,0 8.9925,1.08375 12.84125,3.14125 m 55.17125,30.7475 c 2.54125,9.46625 11.5775,16.31 21.58,16.31 12.37,0 22.46,-10.09 22.46,-22.46125 0,-12.37 -10.09,-22.46 -22.46,-22.46 -3.94875,0 -8.5175,0.9325 -11.85,2.88375 l 12.19125,16.185 c 1.49125,0.0238 2.78875,1.35625 2.78875,2.96625 0,1.63375 -1.3325,2.96625 -2.96625,2.96625 -0.4525,0 -0.92625,-0.11625 -1.3275,-0.305 l -20.41625,3.915 z m -64.9825,-6.65125 c 5.2075,-4.135 9.26125,-8.0775 12.18375,-15.9675 4.61375,4.185 7.24625,10.23875 7.24625,16.4675 0,12.37125 -10.09,22.46 -22.46,22.46 -12.37125,0 -22.46,-10.08875 -22.46,-22.46 0,-12.37 10.08875,-22.45875 22.46,-22.45875 3.9475,0 7.98375,1.14 11.2375,3.06125 -2.2025,6.96 -4.345,10.55 -11.1225,16.00625 -1.64625,0.07 -2.8975,1.39 -2.8975,2.96625 0,1.63375 1.3325,2.96625 2.96625,2.96625 1.63375,0 2.84625,-1.3325 2.84625,-3.04125 m 17.17375,-30.04 0.60375,-1.84875 38.77875,-0.05 -10.315,31.2725 -0.445,-3.2625 1.18625,0 -0.14875,-2.07625 -5.19,0 0.1475,1.9275 1.335,0 0.29625,3.55875 c 0,0 -26.1,-29.3725 -26.24875,-29.52125 m 41.79,33.05625 c -0.0312,-0.67375 -0.13875,-1.7575 -0.13875,-2.51625 0,-7.6925 2.4875,-15.1675 9.2425,-21.38125 l -7.035,-8.4225 -10.8875,33.215 8.81875,-0.895 z m 5.22375,-1.13625 18.99,-3.1 -11.96875,-15.54625 c -6.20375,5.40875 -6.975,11.90125 -7.02125,18.64625"
   style="fill:#000000;fill-opacity:1;fill-rule:evenodd;stroke:none"
   id="path6310" /><path
   inkscape:connector-curvature="0"
   d="m 112.89539,14.90799 c -54.6775,0 -99.00375,44.325 -99.00375,99.00375 0,54.6775 44.32625,99.0025 99.00375,99.0025 54.6775,0 99.00375,-44.325 99.00375,-99.0025 0,-54.67875 -44.32625,-99.00375 -99.00375,-99.00375 m -80.145,99.00375 c 0,-18.73375 6.4275,-35.96625 17.1975,-49.6125 l 112.56,112.55875 c -13.64625,10.77 -30.87875,17.19875 -49.6125,17.19875 -44.26375,0 -80.145,-35.8825 -80.145,-80.145 m 143.0925,49.6125 -112.56,-112.56 c 13.64625,-10.77 30.87875,-17.19875 49.6125,-17.19875 44.26375,0 80.145,35.8825 80.145,80.14625 0,18.73375 -6.4275,35.96625 -17.1975,49.6125"
   style="fill:#bf2033;fill-opacity:1;fill-rule:nonzero;stroke:none"
   id="path6314" /></svg>