<?xml version="1.0" encoding="UTF-8" standalone="no"?>
<!-- Generator: Adobe Illustrator 13.0.0, SVG Export Plug-In  -->

<svg
   xmlns:dc="http://purl.org/dc/elements/1.1/"
   xmlns:cc="http://creativecommons.org/ns#"
   xmlns:rdf="http://www.w3.org/1999/02/22-rdf-syntax-ns#"
   xmlns:svg="http://www.w3.org/2000/svg"
   xmlns="http://www.w3.org/2000/svg"
   xmlns:sodipodi="http://sodipodi.sourceforge.net/DTD/sodipodi-0.dtd"
   xmlns:inkscape="http://www.inkscape.org/namespaces/inkscape"
   version="1.1"
   x="0px"
   y="0px"
   width="2710"
   height="2170"
   viewBox="-0.937 -0.042 2710 2170"
   enable-background="new -0.937 -0.042 576 660"
   xml:space="preserve"
   id="svg2"
   inkscape:version="0.48.2 r9819"
   sodipodi:docname="AJAX4.svg"><metadata
   id="metadata44"><rdf:RDF><cc:Work
       rdf:about=""><dc:format>image/svg+xml</dc:format><dc:type
         rdf:resource="http://purl.org/dc/dcmitype/StillImage" /><dc:title></dc:title></cc:Work></rdf:RDF></metadata><sodipodi:namedview
   pagecolor="#ffffff"
   bordercolor="#666666"
   borderopacity="1"
   objecttolerance="10"
   gridtolerance="10"
   guidetolerance="10"
   inkscape:pageopacity="0"
   inkscape:pageshadow="2"
   inkscape:window-width="1280"
   inkscape:window-height="1004"
   id="namedview42"
   showgrid="false"
   fit-margin-top="0"
   fit-margin-left="0"
   fit-margin-right="0"
   fit-margin-bottom="0"
   inkscape:zoom="0.25284424"
   inkscape:cx="728.79526"
   inkscape:cy="1282.7097"
   inkscape:window-x="-8"
   inkscape:window-y="-8"
   inkscape:window-maximized="1"
   inkscape:current-layer="svg2" />
<defs
   id="defs4">
</defs>


















<path
   inkscape:connector-curvature="0"
   style="fill:#ffffff;fill-rule:nonzero;stroke:#000000;stroke-width:10;stroke-linecap:butt;stroke-linejoin:miter;stroke-miterlimit:4;stroke-opacity:1;stroke-dasharray:none"
   d="m 2704.066,2029.9562 c 0,74.5625 -60.4375,135 -135,135 l -2430,0 c -74.558125,0 -135,-60.4375 -135,-135 l 0,-1890.0002 c 0,-74.559375 60.441875,-135 135,-135 l 2430,0 c 74.5625,0 135,60.440625 135,135 l 0,1890.0002 z"
   id="path11" /><path
   inkscape:connector-curvature="0"
   style="fill:#000000;fill-rule:nonzero;stroke:none"
   d="m 2614.066,2029.9562 c 0,24.8125 -20.1875,45 -45,45 l -2430,0 c -24.812,0 -45,-20.1875 -45,-45 l 0,-1890.0002 c 0,-24.812 20.188,-45 45,-45 l 2430,0 c 24.8125,0 45,20.188 45,45 l 0,1890.0002 z m -45,-1991.2502 -2430,0 c -55.830125,0 -101.25,45.419875 -101.25,101.25 l 0,1890.0002 c 0,55.8249 45.419875,101.25 101.25,101.25 l 2430,0 c 55.825,0 101.25,-45.4251 101.25,-101.25 l 0,-1890.0002 c 0,-55.830125 -45.425,-101.25 -101.25,-101.25 z"
   id="path13" /><path
   inkscape:connector-curvature="0"
   style="fill:#000000;fill-rule:nonzero;stroke:none"
   d="m 1437.666,1804.9562 0,-315.0125 49.6625,0 0,268.5874 145.7125,0 0,46.425 -195.375,0 z"
   id="path15" /><path
   inkscape:connector-curvature="0"
   style="fill:#000000;fill-rule:nonzero;stroke:none"
   d="m 2090.6535,1786.1687 c -17.6875,15.475 -42,24.3125 -68.525,24.3125 -54.1625,0 -93.9625,-32.05 -114.9625,-79.575 l 47.5375,-17.6875 c 13.2625,29.8499 37.575,46.425 67.425,46.425 28.7375,0 48.625,-19.9002 48.625,-46.425 0,-42 -48.625,-48.625 -89.525,-65.2 -18.7875,-7.7375 -60.8,-26.5375 -60.8,-78.475 0,-61.9 42.0125,-85.1125 98.375,-85.1125 44.2125,0 74.0625,25.425 89.5375,64.1125 l -44.2125,13.2625 c 0,0 -11.05,-26.525 -46.425,-27.6375 -23.2125,-1.1 -50.85,7.7375 -48.6375,36.475 4.425,58.575 152.5375,19.9 152.5375,143.6875 0,28.7374 -11.05,54.15 -30.95,71.8375 z"
   id="path17" /><path
   inkscape:connector-curvature="0"
   style="fill:#000000;fill-rule:nonzero;stroke:none"
   d="m 1002.9935,1667.9062 0,137.05 -49.99,0 0,-137.05 -111.08875,-177.95 59.99,0 75.53875,121.5875 76.65,-121.5875 58.88,0 -109.98,177.95 z"
   id="path19" /><path
   inkscape:connector-curvature="0"
   style="fill:#000000;fill-rule:nonzero;stroke:none"
   d="m 1680.291,1804.9562 0,-315 185.4375,0 0,49.7375 -135.775,0 0,77.3624 91.625,0 0,50.8376 -91.625,0 0,86.2125 145.7125,0 0,50.85 -195.375,0 z"
   id="path21" /><path
   inkscape:connector-curvature="0"
   style="fill:#000000;fill-rule:nonzero;stroke:none"
   d="m 705.9035,1810.4937 c -46.42375,0 -76.2675,-17.6875 -96.16375,-56.375 -14.36875,-27.6375 -23.21125,-67.425 -23.21125,-107.2125 0,-49.7375 13.26375,-99.475 35.37,-127.1 18.79,-23.2125 45.31875,-35.375 80.68875,-35.375 47.53125,0 77.375,19.9 98.3775,64.1125 l -46.425,19.8875 c -17.6875,-26.525 -27.63375,-33.15 -51.9525,-33.15 -25.42125,0 -42.00125,11.05 -53.055,38.675 -7.73625,18.7873 -12.15875,46.4249 -12.15875,72.95 0,34.2625 7.7375,68.525 19.89625,88.425 11.0525,16.575 25.4225,24.3125 47.53,24.3125 21.00125,0 36.47625,-11.05 48.635,-36.475 l 47.53,17.6875 c -18.79125,46.425 -49.74,69.6375 -95.06125,69.6375 z"
   id="path23" /><path
   inkscape:connector-curvature="0"
   style="fill:#000000;fill-rule:nonzero;stroke:none"
   d="m 1273.3035,1810.4937 c -46.4275,0 -76.2725,-17.6875 -96.1675,-56.375 -14.37,-27.6375 -23.2125,-67.425 -23.2125,-107.2125 0,-49.7375 13.2638,-99.475 35.3713,-127.1 18.79,-23.2125 45.3187,-35.375 80.6837,-35.375 47.5375,0 77.375,19.9 98.375,64.1125 l -46.425,19.8875 c -17.675,-26.525 -27.625,-33.15 -51.95,-33.15 -25.4175,0 -41.9975,11.05 -53.05,38.675 -7.7375,18.7873 -12.1587,46.4249 -12.1587,72.95 0,34.2625 7.7362,68.525 19.895,88.425 11.0537,16.575 25.4225,24.3125 47.5262,24.3125 21,0 36.475,-11.05 48.6375,-36.475 l 47.525,17.6875 c -18.7875,46.425 -49.7375,69.6375 -95.05,69.6375 z"
   id="path25" /><path
   inkscape:connector-curvature="0"
   style="fill:#000000;fill-rule:nonzero;stroke:none"
   d="m 1263.591,679.956 -120.4875,-213.31625 0,213.31625 -49.74,0 0,-315 49.74,0 114.95,201.15875 0,-201.15875 49.75,0 0,315 -44.2125,0 z"
   id="path27" /><path
   inkscape:connector-curvature="0"
   style="fill:#000000;fill-rule:nonzero;stroke:none"
   d="m 1546.0785,434.58725 c -9.975,-16.57875 -22.1625,-23.21 -41,-24.315 -24.375,-1.10625 -39.8875,11.05125 -50.9625,38.68375 -7.7625,18.79 -12.1875,47.5275 -12.1875,74.0525 0,33.15875 6.65,67.42125 18.8375,87.31625 9.9625,16.58 23.2625,24.31625 43.2125,24.31625 23.2625,0 37.6625,-12.15875 48.75,-39.78875 6.6375,-16.58 12.1875,-47.52625 12.1875,-71.84375 0,-35.3675 -6.65,-67.42 -18.8375,-88.42125 z m 34.3375,215.52625 c -17.725,24.3175 -43.2,35.37 -76.4375,35.37 -44.325,0 -72.025,-17.68625 -90.8625,-56.36875 -13.2875,-26.5275 -22.15,-68.52625 -22.15,-106.10625 0,-51.94625 13.2875,-98.3675 34.3375,-128.21 18.8375,-24.3175 44.325,-35.36875 80.8875,-35.36875 39.8875,0 67.5875,17.685 87.525,56.36875 13.3,27.63125 21.05,67.42 21.05,107.21 0,49.7375 -12.1875,99.47375 -34.35,127.105 z"
   id="path29" /><path
   inkscape:connector-curvature="0"
   style="fill:#000000;fill-rule:nonzero;stroke:none"
   d="m 332.1385,1242.4575 0,-176.8425 -58.65375,176.8425 -58.655,-176.8425 0,176.8425 -45.3725,0 0,-315.0015 45.3725,0 58.655,176.844 58.65375,-176.844 45.37375,0 0,315.0015 -45.37375,0 z"
   id="path31" /><path
   inkscape:connector-curvature="0"
   style="fill:#000000;fill-rule:nonzero;stroke:none"
   d="m 541.501,1005.9299 c -7.7925,-27.6314 -20.04,-39.79015 -38.9675,-39.79015 -20.04,0 -32.28625,12.15875 -40.07875,38.68645 -7.79375,24.3138 -10.02125,45.3138 -10.02125,80.6825 0,34.265 3.34,54.1613 10.02125,79.5788 7.7925,26.5262 20.03875,38.6849 40.07875,38.6849 18.9275,0 31.175,-12.1587 38.9675,-38.6849 7.795,-25.4175 10.02,-44.21 10.02,-80.6838 0,-35.3677 -3.34,-55.2638 -10.02,-78.474 z m 35.62625,187.8963 c -15.58625,37.5775 -38.96625,54.1575 -74.59375,54.1575 -37.85375,0 -60.11875,-16.58 -75.70625,-54.1575 -13.36,-30.9475 -17.81375,-60.7912 -17.81375,-109.4225 0,-47.5262 4.45375,-79.5775 17.81375,-109.42145 16.7,-37.57875 38.9675,-53.0525 75.70625,-53.0525 36.74125,0 59.0075,15.47375 74.59375,54.1575 13.3625,30.94895 17.815,60.79025 17.815,108.31645 0,48.6313 -4.4525,79.5788 -17.815,109.4225 z"
   id="path33" /><path
   inkscape:connector-curvature="0"
   style="fill:#000000;fill-rule:nonzero;stroke:none"
   d="M 925.95975,1005.9299 C 918.166,978.2985 905.9185,966.13975 886.9935,966.13975 c -20.04,0 -32.2875,12.15875 -40.08125,38.68645 -7.79375,24.3138 -10.01875,45.3138 -10.01875,80.6825 0,34.265 3.34,54.1613 10.01875,79.5788 7.79375,26.5262 20.04125,38.6849 40.08125,38.6849 18.925,0 31.1725,-12.1587 38.96625,-38.6849 7.79375,-25.4175 10.02,-44.21 10.02,-80.6838 0,-35.3677 -3.34,-55.2638 -10.02,-78.474 z m 35.6275,187.8963 c -15.5875,37.5775 -38.9675,54.1575 -74.59375,54.1575 -37.85375,0 -60.12125,-16.58 -75.70875,-54.1575 -13.36,-30.9475 -17.81375,-60.7912 -17.81375,-109.4225 0,-47.5262 4.45375,-79.5775 17.81375,-109.42145 16.70125,-37.57875 38.9675,-53.0525 75.70875,-53.0525 36.74,0 59.00625,15.47375 74.59375,54.1575 13.36,30.94895 17.81375,60.79025 17.81375,108.31645 0,48.6313 -4.45375,79.5788 -17.81375,109.4225 z"
   id="path35" /><path
   inkscape:connector-curvature="0"
   style="fill:#000000;fill-rule:nonzero;stroke:none"
   d="m 1102.4485,971.66725 -46.325,0 0,79.58015 46.325,0 c 26.4725,0 40.81,-14.3687 40.81,-39.79 0,-24.3164 -16.545,-39.79015 -40.81,-39.79015 z m 38.605,270.78895 -41.9137,-148.1039 -43.0163,0 0,148.1039 -45.2225,0 0,-315.0002 93.7538,0 c 49.6362,0 82.7237,33.15875 82.7237,84.0013 0,37.5789 -15.44,65.2113 -45.2212,76.2638 l 45.2212,154.7351 -46.325,0 z"
   id="path37" /><path
   inkscape:connector-curvature="0"
   style="fill:#000000;fill-rule:nonzero;stroke:none"
   d="m 716.931,969.45725 0,272.99895 -45.4475,0 0,-272.99895 -57.64125,0 0,-42.00125 160.72875,0 0,42.00125 -57.64,0 z"
   id="path39" /><path
   inkscape:connector-curvature="0"
   style="fill:#000000;fill-rule:nonzero;stroke:none"
   d="m 1603.416,1003.7187 c -7.725,-22.1052 -20.9625,-32.0527 -40.8125,-32.0527 l -37.5,0 0,226.5815 37.5,0 c 26.475,0 40.8125,-21.0013 45.225,-45.3176 2.2,-19.8949 4.4125,-41.9999 4.4125,-66.3162 0,-35.3675 -3.3125,-69.6315 -8.825,-82.8953 z m 7.7125,224.37 c -11.025,9.9475 -26.4625,14.3675 -44.1125,14.3675 l -87.1375,0 0,-315.0002 80.525,0 c 26.4625,0 39.7,3.315 50.725,12.15875 18.7625,13.26125 32,37.57875 37.5125,69.63145 4.4125,23.21 7.7125,50.8413 7.7125,75.1575 0,72.9475 -14.3375,119.3688 -45.225,143.685 z"
   id="path41" /><path
   inkscape:connector-curvature="0"
   style="fill:#000000;fill-rule:nonzero;stroke:none"
   d="m 2174.691,1242.4562 0,-315.0002 148.5375,0 0,44.21 -103.0875,0 0,79.5802 65.4,0 0,43.1061 -65.4,0 0,103.895 115.275,0 0,44.2087 -160.725,0 z"
   id="path43" /><path
   inkscape:connector-curvature="0"
   style="fill:#000000;fill-rule:nonzero;stroke:none"
   d="m 1891.116,1242.4575 0,-315.0015 44.1,0 0,315.0015 -44.1,0 z"
   id="path45" /><path
   inkscape:connector-curvature="0"
   style="fill:#000000;fill-rule:nonzero;stroke:none"
   d="m 2504.4785,1242.4575 -97.0625,-211.1051 0,211.1051 -45.225,0 0,-315.0015 45.225,0 86.0375,189.0015 0,-189.0015 45.225,0 0,315.0015 -34.2,0 z"
   id="path47" /><path
   inkscape:connector-curvature="0"
   style="fill:#000000;fill-rule:nonzero;stroke:none"
   d="m 1779.4035,971.66725 -46.325,0 0,79.58015 46.325,0 c 26.475,0 40.8125,-14.3687 40.8125,-39.79 0,-24.3164 -16.5375,-39.79015 -40.8125,-39.79015 z m 38.6125,270.78895 -41.9125,-148.1039 -43.025,0 0,148.1039 -45.225,0 0,-315.0002 93.7625,0 c 49.6375,0 82.725,33.15875 82.725,84.0013 0,37.5789 -15.45,65.2113 -45.225,76.2638 l 45.225,154.7351 -46.325,0 z"
   id="path49" /><path
   inkscape:connector-curvature="0"
   style="fill:#000000;fill-rule:nonzero;stroke:none"
   d="m 2071.6035,1242.4562 -34.4125,0 -79.925,-315.0002 45.5125,0 52.175,204.474 52.175,-204.474 45.5125,0 -81.0375,315.0002 z"
   id="path51" /><path
   inkscape:connector-curvature="0"
   style="fill:#000000;fill-rule:nonzero;stroke:none"
   d="m 1243.6285,1113.14 0,-42 157.5,0 0,42 -157.5,0 z"
   id="path53" /></svg>