<?xml version="1.0" encoding="UTF-8" standalone="no"?>
<!-- Generator: Adobe Illustrator 14.0.0, SVG Export Plug-In  -->

<svg
   xmlns:dc="http://purl.org/dc/elements/1.1/"
   xmlns:cc="http://creativecommons.org/ns#"
   xmlns:rdf="http://www.w3.org/1999/02/22-rdf-syntax-ns#"
   xmlns:svg="http://www.w3.org/2000/svg"
   xmlns="http://www.w3.org/2000/svg"
   xmlns:sodipodi="http://sodipodi.sourceforge.net/DTD/sodipodi-0.dtd"
   xmlns:inkscape="http://www.inkscape.org/namespaces/inkscape"
   version="1.1"
   x="0px"
   y="0px"
   width="113.18748"
   height="135.68747"
   viewBox="0 -0.321 113.18748 135.6875"
   enable-background="new 0 -0.321 144 120"
   xml:space="preserve"
   id="svg2"
   inkscape:version="0.48.2 r9819"
   sodipodi:docname="MUTCD R4-10.svg"><metadata
   id="metadata44"><rdf:RDF><cc:Work
       rdf:about=""><dc:format>image/svg+xml</dc:format><dc:type
         rdf:resource="http://purl.org/dc/dcmitype/StillImage" /><dc:title></dc:title></cc:Work></rdf:RDF></metadata><sodipodi:namedview
   pagecolor="#ffffff"
   bordercolor="#666666"
   borderopacity="1"
   objecttolerance="10"
   gridtolerance="10"
   guidetolerance="10"
   inkscape:pageopacity="0"
   inkscape:pageshadow="2"
   inkscape:window-width="1280"
   inkscape:window-height="1004"
   id="namedview42"
   showgrid="false"
   fit-margin-top="0"
   fit-margin-left="0"
   fit-margin-right="0"
   fit-margin-bottom="0"
   inkscape:zoom="2.6802662"
   inkscape:cx="7.2662015"
   inkscape:cy="124.63029"
   inkscape:window-x="-8"
   inkscape:window-y="-8"
   inkscape:window-maximized="1"
   inkscape:current-layer="svg2" />
<defs
   id="defs4">
</defs>


















<path
   inkscape:connector-curvature="0"
   d="m 112.84083,127.98344 c 0,3.88375 -3.1475,7.03125 -7.03125,7.03125 l -98.4375202,0 c -3.8825,0 -7.03124992,-3.1475 -7.03124992,-7.03125 l 0,-120.93753 c 0,-3.88375 3.14874992,-7.03125 7.03124992,-7.03125 l 98.4375202,0 c 3.88375,0 7.03125,3.1475 7.03125,7.03125 l 0,120.93753 z"
   style="fill:#ffffff;fill-opacity:1;fill-rule:nonzero;stroke:#000000;stroke-width:0.70000017;stroke-miterlimit:4;stroke-opacity:1;stroke-dasharray:none"
   id="path7483" /><path
   inkscape:connector-curvature="0"
   d="m 108.15333,127.98344 c 0,1.2925 -1.04999,2.34375 -2.34375,2.34375 l -98.4375202,0 c -1.2925,0 -2.34375,-1.05125 -2.34375,-2.34375 l 0,-120.93753 c 0,-1.2925 1.05125,-2.34375 2.34375,-2.34375 l 98.4375202,0 c 1.29376,0 2.34375,1.05125 2.34375,2.34375 l 0,120.93753 z m -2.34375,-126.09378 -98.4375202,0 c -2.8425,0 -5.15625,2.3125 -5.15625,5.15625 l 0,120.93753 c 0,2.84375 2.31375,5.15625 5.15625,5.15625 l 98.4375202,0 c 2.84375,0 5.15625,-2.3125 5.15625,-5.15625 l 0,-120.93753 c 0,-2.84375 -2.3125,-5.15625 -5.15625,-5.15625"
   style="fill:#000000;fill-opacity:1;fill-rule:nonzero;stroke:none"
   id="path7491" /><path
   inkscape:connector-curvature="0"
   d="m 54.690821,30.01467 -2.295,0 -5.47875,-9.945 0,9.945 -2.395,0 0,-15.00001 2.3275,0 5.44625,9.88501 0,-9.88501 2.395,0 0,15.00001 z"
   style="fill:#000000;fill-opacity:1;fill-rule:nonzero;stroke:none"
   id="path7495" /><path
   inkscape:connector-curvature="0"
   d="m 66.265821,22.51467 c 0,-1.5325 -0.2275,-2.76 -0.67625,-3.68125 -0.5125,-1.05251 -1.2625,-1.57876 -2.25375,-1.57876 -1.00375,0 -1.7525,0.52625 -2.25625,1.57876 -0.44875,0.91125 -0.67375,2.13875 -0.67375,3.68125 0,1.53375 0.225,2.76125 0.67375,3.6825 0.51375,1.0525 1.2625,1.5775 2.25625,1.5775 0.99125,0 1.74125,-0.525 2.25375,-1.5775 0.44875,-0.92125 0.67625,-2.14875 0.67625,-3.6825 m 2.395,0 c 0,2.0225 -0.36125,3.70875 -1.08125,5.06 -0.93125,1.73 -2.34375,2.59625 -4.24375,2.59625 -1.91125,0 -3.3275,-0.86625 -4.245,-2.59625 -0.72125,-1.3425 -1.0825,-3.02875 -1.0825,-5.06 0,-2.03125 0.36125,-3.7175 1.0825,-5.05876 0.9175,-1.73125 2.33375,-2.5975 4.245,-2.5975 1.9,0 3.3125,0.86625 4.24375,2.5975 0.72,1.35126 1.08125,3.03751 1.08125,5.05876"
   style="fill:#000000;fill-opacity:1;fill-rule:nonzero;stroke:none"
   id="path7499" /><path
   inkscape:connector-curvature="0"
   d="m 17.579561,42.29842 c 0,-1.66875 -0.49875,-2.47375 -1.4975,-2.41375 l -1.045,0 0,4.64875 1.045,0 c 0.99875,-0.03 1.4975,-0.775 1.4975,-2.235 m 1.9525,0 c 0,1.69125 -0.52,2.89125 -1.5575,3.6025 -0.58125,0.39 -1.17375,0.585 -1.785,0.585 l -1.1525,0 0,6.445 -1.95,0 0,-15 2.995,0 c 0.7325,0 1.3625,0.175 1.8875,0.52625 1.0425,0.69 1.5625,1.97125 1.5625,3.84125"
   style="fill:#000000;fill-opacity:1;fill-rule:nonzero;stroke:none"
   id="path7503" /><path
   inkscape:connector-curvature="0"
   d="m 27.337061,52.93092 -5.7,0 0,-15 5.7,0 0,1.95375 -3.7475,0 0,4.05 2.3975,0 0,1.835 -2.3975,0 0,5.20875 3.7475,0 0,1.9525 z"
   style="fill:#000000;fill-opacity:1;fill-rule:nonzero;stroke:none"
   id="path7507" /><path
   inkscape:connector-curvature="0"
   d="m 34.229561,45.43092 c 0,-2.4875 -0.225,-4.1425 -0.67375,-4.96125 -0.2175,-0.39 -0.5525,-0.585 -1.00125,-0.585 l -0.86375,0 0,11.09375 0.86375,0 c 0.45875,0 0.79375,-0.19 1.00125,-0.57 0.44875,-0.79875 0.67375,-2.45875 0.67375,-4.9775 m 1.9525,0 c 0,3.26125 -0.43875,5.45125 -1.32,6.57125 -0.48875,0.62 -1.22375,0.92875 -2.2025,0.92875 l -2.9225,0 0,-15 2.9225,0 c 0.96875,0 1.69875,0.32125 2.1875,0.96 0.88875,1.13125 1.335,3.31 1.335,6.54"
   style="fill:#000000;fill-opacity:1;fill-rule:nonzero;stroke:none"
   id="path7511" /><path
   inkscape:connector-curvature="0"
   d="m 44.737201,52.93092 -5.7,0 0,-15 5.7,0 0,1.95375 -3.7475,0 0,4.05 2.3975,0 0,1.835 -2.3975,0 0,5.20875 3.7475,0 0,1.9525 z"
   style="fill:#000000;fill-opacity:1;fill-rule:nonzero;stroke:none"
   id="path7515" /><path
   inkscape:connector-curvature="0"
   d="m 52.695821,49.77092 c 0,0.91 -0.25375,1.66625 -0.76375,2.26625 -0.58125,0.70125 -1.41875,1.05 -2.52,1.05 -1.3575,0 -2.2925,-0.65 -2.8025,-1.9525 -0.21,-0.54125 -0.32875,-1.19125 -0.35875,-1.95375 l 1.94625,0 c 0.0612,1.3025 0.46375,1.95375 1.2125,1.95375 0.88875,0 1.33375,-0.455 1.33375,-1.36625 0,-1.22125 -0.37125,-2.31625 -1.10875,-3.2875 -0.68125,-0.78 -1.36,-1.56 -2.04125,-2.34125 -0.74,-0.97 -1.1075,-2.07125 -1.1075,-3.3025 0,-0.62 0.22875,-1.235 0.69,-1.84625 0.58875,-0.8 1.39,-1.205 2.4,-1.21625 1.29875,-0.009 2.21,0.565 2.73,1.72625 0.22,0.48 0.35125,1.055 0.39,1.725 l -1.9475,0 c -0.0712,-0.99875 -0.46125,-1.4975 -1.17,-1.4975 -0.32,0 -0.59,0.11 -0.81,0.33 -0.22,0.22 -0.33,0.48 -0.33,0.78125 0,0.87 0.36875,1.73125 1.10875,2.58125 1.34,1.56125 2.01875,2.35625 2.04125,2.3875 0.73625,1.12 1.1075,2.44125 1.1075,3.9625"
   style="fill:#000000;fill-opacity:1;fill-rule:nonzero;stroke:none"
   id="path7519" /><path
   inkscape:connector-curvature="0"
   d="m 59.590821,39.88467 -1.875,0 0,13.04625 -1.95375,0 0,-13.04625 -1.875,0 0,-1.95375 5.70375,0 0,1.95375 z"
   style="fill:#000000;fill-opacity:1;fill-rule:nonzero;stroke:none"
   id="path7523" /><path
   inkscape:connector-curvature="0"
   d="m 66.177191,41.98467 c 0,-1.4 -0.42625,-2.1 -1.28625,-2.1 l -1.255,0 0,4.05 1.21125,0 c 0.88625,0 1.33,-0.65 1.33,-1.95 m 1.95375,10.94625 -1.9925,0 -1.5575,-7.04375 -0.945,0 0,7.04375 -1.95,0 0,-15 2.6975,0 c 0.85,0 1.57,0.18 2.1575,0.54 1.06,0.66 1.59,1.83 1.59,3.51125 0,1.73 -0.5475,2.885 -1.64125,3.465 l 1.64125,7.48375 z"
   style="fill:#000000;fill-opacity:1;fill-rule:nonzero;stroke:none"
   id="path7527" /><path
   inkscape:connector-curvature="0"
   d="m 72.488821,52.93142 -1.9525,0 0,-15 1.9525,0 0,15 z"
   style="fill:#000000;fill-opacity:1;fill-rule:nonzero;stroke:none"
   id="path7529" /><path
   inkscape:connector-curvature="0"
   d="m 79.508321,47.22842 -0.87,-4.2425 -0.88625,4.2425 1.75625,0 z m 3.17876,5.7025 -2.01001,0 -0.76375,-3.75 -2.55125,0 -0.77875,3.75 -1.995,0 3.07375,-15 1.95125,0 3.07376,15 z"
   style="fill:#000000;fill-opacity:1;fill-rule:nonzero;stroke:none"
   id="path7533" /><path
   inkscape:connector-curvature="0"
   d="m 91.243331,52.93092 -1.79625,0 -2.69625,-8.595 0,8.595 -1.9525,0 0,-15 1.94625,0 2.54625,8.07 0,-8.07 1.9525,0 0,15 z"
   style="fill:#000000;fill-opacity:1;fill-rule:nonzero;stroke:none"
   id="path7537" /><path
   inkscape:connector-curvature="0"
   d="m 100.09596,49.77092 c 0,0.91 -0.256259,1.66625 -0.766259,2.26625 -0.57875,0.70125 -1.41875,1.05 -2.5175,1.05 -1.36,0 -2.2925,-0.65 -2.8025,-1.9525 -0.21,-0.54125 -0.33,-1.19125 -0.35875,-1.95375 l 1.94625,0 c 0.0588,1.3025 0.46375,1.95375 1.2125,1.95375 0.88875,0 1.33375,-0.455 1.33375,-1.36625 0,-1.22125 -0.37125,-2.31625 -1.11125,-3.2875 -0.67875,-0.78 -1.36,-1.56 -2.03875,-2.34125 -0.74,-0.97 -1.10875,-2.07125 -1.10875,-3.3025 0,-0.62 0.23,-1.235 0.68875,-1.84625 0.59125,-0.8 1.3925,-1.205 2.4,-1.21625 1.30125,-0.009 2.2125,0.565 2.7325,1.72625 0.22,0.48 0.348749,1.055 0.389999,1.725 l -1.949999,0 c -0.0688,-0.99875 -0.45875,-1.4975 -1.17,-1.4975 -0.32,0 -0.58875,0.11 -0.8075,0.33 -0.22,0.22 -0.33,0.48 -0.33,0.78125 0,0.87 0.36875,1.73125 1.10875,2.58125 1.34,1.56125 2.01875,2.35625 2.03875,2.3875 0.73875,1.12 1.109999,2.44125 1.109999,3.9625"
   style="fill:#000000;fill-opacity:1;fill-rule:nonzero;stroke:none"
   id="path7541" /><path
   inkscape:connector-curvature="0"
   d="m 29.954561,70.93343 c 0,-1.20875 -0.13375,-1.9825 -0.405,-2.3225 -0.12,-0.14875 -0.37375,-0.22375 -0.7625,-0.22375 l -1.37125,0 0,5.09125 1.255,0 c 0.42625,0 0.705,-0.075 0.835,-0.225 0.2975,-0.33875 0.44875,-1.1125 0.44875,-2.32 m -0.21,-6.53875 c 0,-0.92 -0.13,-1.52501 -0.38875,-1.81501 -0.10875,-0.13 -0.2975,-0.195 -0.56625,-0.195 l -1.37375,0 0,4.05001 1.4625,0 c 0.32875,0 0.53875,-0.0713 0.6275,-0.21 0.16,-0.25 0.23875,-0.86 0.23875,-1.83 m 2.1625,6.86625 c 0,1.13125 -0.15125,2.01125 -0.45125,2.64125 -0.45875,0.98 -1.3275,1.48875 -2.6075,1.52875 l -3.38625,0 0,-15.00001 3.40375,0 c 1.8875,0 2.83125,1.30625 2.83125,3.91626 0,1.78875 -0.2975,2.845 -0.895,3.16375 0.36875,0.13 0.6225,0.365 0.76125,0.70625 0.23,0.55875 0.34375,1.575 0.34375,3.04375"
   style="fill:#000000;fill-opacity:1;fill-rule:nonzero;stroke:none"
   id="path7545" /><path
   inkscape:connector-curvature="0"
   d="m 36.266311,75.43143 -1.95375,0 0,-15.00001 1.95375,0 0,15.00001 z"
   style="fill:#000000;fill-opacity:1;fill-rule:nonzero;stroke:none"
   id="path7547" /><path
   inkscape:connector-curvature="0"
   d="m 45.569571,71.80093 c -0.0213,0.73125 -0.13125,1.3625 -0.33125,1.89375 -0.48875,1.26125 -1.38,1.8925 -2.66875,1.8925 -1.4925,0 -2.48625,-0.825 -2.98625,-2.47625 -0.31,-1.03 -0.46625,-2.7575 -0.46625,-5.18 0,-2.48125 0.2,-4.2875 0.60125,-5.41876 0.52875,-1.49125 1.47875,-2.2375 2.85125,-2.2375 1.03,0 1.82875,0.42 2.4,1.26 0.4,0.58 0.6,1.11875 0.6,1.61875 l -1.965,0 c -0.26875,-0.6175 -0.615,-0.925 -1.035,-0.925 -0.99875,0 -1.49875,1.90126 -1.49875,5.70251 0,1.92125 0.075,3.2725 0.22625,4.05375 0.22,1.09875 0.645,1.65 1.2725,1.65 0.64875,0 1.00125,-0.61 1.05,-1.83375 l 1.95,0 z"
   style="fill:#000000;fill-opacity:1;fill-rule:nonzero;stroke:none"
   id="path7551" /><path
   inkscape:connector-curvature="0"
   d="m 55.313321,60.43092 -3.07375,7.95126 0,7.04875 -1.9525,0 0,-7.04875 -3.07375,-7.95126 2.085,0 1.965,5.05501 1.965,-5.05501 2.085,0 z"
   style="fill:#000000;fill-opacity:1;fill-rule:nonzero;stroke:none"
   id="path7555" /><path
   inkscape:connector-curvature="0"
   d="m 63.418321,71.80093 c -0.0187,0.73125 -0.12875,1.3625 -0.32875,1.89375 -0.49125,1.26125 -1.3825,1.8925 -2.67125,1.8925 -1.48875,0 -2.485,-0.825 -2.98625,-2.47625 -0.31,-1.03 -0.46375,-2.7575 -0.46375,-5.18 0,-2.48125 0.2,-4.2875 0.60125,-5.41876 0.53,-1.49125 1.47875,-2.2375 2.84875,-2.2375 1.03,0 1.83125,0.42 2.4,1.26 0.4,0.58 0.6,1.11875 0.6,1.61875 l -1.965,0 c -0.26875,-0.6175 -0.6125,-0.925 -1.0325,-0.925 -0.99875,0 -1.49875,1.90126 -1.49875,5.70251 0,1.92125 0.075,3.2725 0.22375,4.05375 0.22,1.09875 0.645,1.65 1.275,1.65 0.65,0 0.99875,-0.61 1.05,-1.83375 l 1.9475,0 z"
   style="fill:#000000;fill-opacity:1;fill-rule:nonzero;stroke:none"
   id="path7559" /><path
   inkscape:connector-curvature="0"
   d="m 71.960821,75.43093 -5.7,0 0,-15.00001 1.9525,0 0,13.04751 3.7475,0 0,1.9525 z"
   style="fill:#000000;fill-opacity:1;fill-rule:nonzero;stroke:none"
   id="path7563" /><path
   inkscape:connector-curvature="0"
   d="m 79.762071,75.43093 -5.70125,0 0,-15.00001 5.70125,0 0,1.95375 -3.7475,0 0,4.05001 2.3975,0 0,1.835 -2.3975,0 0,5.20875 3.7475,0 0,1.9525 z"
   style="fill:#000000;fill-opacity:1;fill-rule:nonzero;stroke:none"
   id="path7567" /><path
   inkscape:connector-curvature="0"
   d="m 87.720831,72.27093 c 0,0.91125 -0.25625,1.66625 -0.76375,2.26625 -0.58125,0.7 -1.42125,1.05 -2.52,1.05 -1.3575,0 -2.2925,-0.65 -2.80251,-1.9525 -0.21,-0.54125 -0.33,-1.19125 -0.35875,-1.95375 l 1.94501,0 c 0.0612,1.3025 0.46375,1.95375 1.21375,1.95375 0.88875,0 1.3325,-0.455 1.3325,-1.36625 0,-1.22125 -0.37125,-2.31625 -1.11,-3.2875 -0.67875,-0.78 -1.3575,-1.56 -2.03875,-2.34125 -0.74,-0.97 -1.10876,-2.07125 -1.10876,-3.3025 0,-0.62001 0.23,-1.23501 0.69126,-1.84626 0.58875,-0.8 1.38875,-1.205 2.4,-1.21625 1.29875,-0.009 2.20875,0.565 2.72875,1.72625 0.22,0.48 0.35,1.055 0.39125,1.72501 l -1.94875,0 c -0.07,-0.99876 -0.46125,-1.49751 -1.16875,-1.49751 -0.32,0 -0.59125,0.11 -0.81125,0.33 -0.22,0.22 -0.32875,0.48 -0.32875,0.78126 0,0.87 0.36875,1.73125 1.1075,2.58125 1.34125,1.56125 2.02,2.3575 2.03875,2.38625 0.74,1.12125 1.11125,2.4425 1.11125,3.96375"
   style="fill:#000000;fill-opacity:1;fill-rule:nonzero;stroke:none"
   id="path7571" /><path
   inkscape:connector-curvature="0"
   d="m 15.863311,97.930933 -1.95375,0 0,-8.700003 -1.71875,5.401252 -1.71875,-5.401252 0,8.700003 -1.9525012,0 0,-15.000003 1.9475012,0 1.72375,5.55125 1.8575,-5.55125 1.815,0 0,15.000003 z"
   style="fill:#000000;fill-opacity:1;fill-rule:nonzero;stroke:none"
   id="path7575" /><path
   inkscape:connector-curvature="0"
   d="m 22.164561,84.72843 c -0.58875,0 -0.99875,0.525 -1.22875,1.57625 -0.18,0.85 -0.26875,2.22625 -0.26875,4.12625 0,1.67125 0.035,2.7925 0.1025,3.3625 0.21,1.561253 0.67375,2.341253 1.395,2.341253 0.6975,0 1.15125,-0.78 1.36125,-2.341253 0.0912,-0.66125 0.135,-1.78125 0.135,-3.3625 0,-1.9 -0.09,-3.27625 -0.26875,-4.12625 -0.23,-1.05125 -0.64,-1.57625 -1.2275,-1.57625 m 0,-1.95375 c 1.38875,0 2.33875,0.70625 2.84875,2.1175 0.4,1.10125 0.6,2.9475 0.6,5.53875 0,2.5325 -0.18,4.333752 -0.53875,5.405003 -0.51125,1.50125 -1.48,2.25125 -2.91,2.25125 -1.46,0 -2.4425,-0.78 -2.9425,-2.34125 -0.33875,-1.051251 -0.5075,-2.822503 -0.5075,-5.315003 0,-2.54125 0.215,-4.3875 0.64375,-5.53875 0.53,-1.41125 1.465,-2.1175 2.80625,-2.1175"
   style="fill:#000000;fill-opacity:1;fill-rule:nonzero;stroke:none"
   id="path7579" /><path
   inkscape:connector-curvature="0"
   d="m 32.959561,84.88468 -1.875,0 0,13.046253 -1.9525,0 0,-13.046253 -1.875,0 0,-1.95375 5.7025,0 0,1.95375 z"
   style="fill:#000000;fill-opacity:1;fill-rule:nonzero;stroke:none"
   id="path7583" /><path
   inkscape:connector-curvature="0"
   d="m 38.062071,84.72843 c -0.5875,0 -0.99875,0.525 -1.2275,1.57625 -0.17875,0.85 -0.26875,2.22625 -0.26875,4.12625 0,1.67125 0.0338,2.7925 0.105,3.3625 0.21,1.561253 0.67375,2.341253 1.39125,2.341253 0.70125,0 1.155,-0.78 1.365,-2.341253 0.0875,-0.66125 0.135,-1.78125 0.135,-3.3625 0,-1.9 -0.0913,-3.27625 -0.27125,-4.12625 -0.23,-1.05125 -0.6375,-1.57625 -1.22875,-1.57625 m 0,-1.95375 c 1.3925,0 2.34125,0.70625 2.8525,2.1175 0.4,1.10125 0.6,2.9475 0.6,5.53875 0,2.5325 -0.18125,4.333752 -0.5425,5.405003 -0.5075,1.50125 -1.47875,2.25125 -2.91,2.25125 -1.46,0 -2.43876,-0.78 -2.93876,-2.34125 -0.34,-1.051251 -0.51,-2.822503 -0.51,-5.315003 0,-2.54125 0.21375,-4.3875 0.64375,-5.53875 0.53,-1.41125 1.46501,-2.1175 2.80501,-2.1175"
   style="fill:#000000;fill-opacity:1;fill-rule:nonzero;stroke:none"
   id="path7587" /><path
   inkscape:connector-curvature="0"
   d="m 48.848321,86.98468 c 0,-1.4 -0.43,-2.1 -1.28625,-2.1 l -1.2575,0 0,4.04875 1.21375,0 c 0.88625,0 1.33,-0.64875 1.33,-1.94875 m 1.95375,10.946253 -1.995,0 -1.5575,-7.043753 -0.945,0 0,7.043753 -1.94875,0 0,-15.000003 2.69875,0 c 0.84875,0 1.5675,0.18125 2.1575,0.54 1.06,0.66 1.59,1.83125 1.59,3.51125 0,1.72875 -0.5475,2.88375 -1.64125,3.46375 l 1.64125,7.485003 z"
   style="fill:#000000;fill-opacity:1;fill-rule:nonzero;stroke:none"
   id="path7591" /><path
   inkscape:connector-curvature="0"
   d="m 56.656321,91.64268 -4.6475,0 0,-1.94 4.6475,0 0,1.94 z"
   style="fill:#000000;fill-opacity:1;fill-rule:nonzero;stroke:none"
   id="path7593" /><path
   inkscape:connector-curvature="0"
   d="m 63.248321,90.43093 c 0,-2.48875 -0.225,-4.1425 -0.67375,-4.96125 -0.2175,-0.39 -0.5525,-0.585 -0.99875,-0.585 l -0.8675,0 0,11.093753 0.8675,0 c 0.45625,0 0.79125,-0.19 0.99875,-0.57 0.44875,-0.800001 0.67375,-2.458753 0.67375,-4.977503 m 1.9525,0 c 0,3.26125 -0.43875,5.451253 -1.3175,6.570003 -0.49125,0.62 -1.22625,0.93 -2.205,0.93 l -2.9225,0 0,-15.000003 2.9225,0 c 0.96875,0 1.69875,0.32 2.1875,0.96125 0.89125,1.12875 1.335,3.30875 1.335,6.53875"
   style="fill:#000000;fill-opacity:1;fill-rule:nonzero;stroke:none"
   id="path7597" /><path
   inkscape:connector-curvature="0"
   d="m 72.547071,86.98468 c 0,-1.4 -0.43,-2.1 -1.28625,-2.1 l -1.255,0 0,4.04875 1.21125,0 c 0.88625,0 1.33,-0.64875 1.33,-1.94875 m 1.95375,10.946253 -1.9925,0 -1.56,-7.043753 -0.9425,0 0,7.043753 -1.95125,0 0,-15.000003 2.69875,0 c 0.84875,0 1.56875,0.18125 2.1575,0.54 1.06,0.66 1.59,1.83125 1.59,3.51125 0,1.72875 -0.5475,2.88375 -1.64125,3.46375 l 1.64125,7.485003 z"
   style="fill:#000000;fill-opacity:1;fill-rule:nonzero;stroke:none"
   id="path7601" /><path
   inkscape:connector-curvature="0"
   d="m 78.858821,97.931433 -1.9525,0 0,-15.000003 1.9525,0 0,15.000003 z"
   style="fill:#000000;fill-opacity:1;fill-rule:nonzero;stroke:none"
   id="path7603" /><path
   inkscape:connector-curvature="0"
   d="m 88.020831,82.93093 -2.55125,15.000003 -1.95,0 -2.55001,-15.000003 1.98001,0 1.54625,9.09125 1.545,-9.09125 1.98,0 z"
   style="fill:#000000;fill-opacity:1;fill-rule:nonzero;stroke:none"
   id="path7607" /><path
   inkscape:connector-curvature="0"
   d="m 95.804701,97.930933 -5.69875,0 0,-15.000003 5.69875,0 0,1.95375 -3.745,0 0,4.04875 2.395,0 0,1.83625 -2.395,0 0,5.208753 3.745,0 0,1.9525 z"
   style="fill:#000000;fill-opacity:1;fill-rule:nonzero;stroke:none"
   id="path7611" /><path
   inkscape:connector-curvature="0"
   d="m 104.66459,97.930933 -1.79751,0 -2.695,-8.595003 0,8.595003 -1.953749,0 0,-15.000003 1.946249,0 2.54625,8.07 0,-8.07 1.95375,0 0,15.000003 z"
   style="fill:#000000;fill-opacity:1;fill-rule:nonzero;stroke:none"
   id="path7615" /><path
   inkscape:connector-curvature="0"
   d="m 38.738321,116.80094 c -0.0187,0.73125 -0.12875,1.3625 -0.32875,1.89375 -0.48875,1.26125 -1.38,1.8925 -2.66876,1.8925 -1.49125,0 -2.485,-0.825 -2.98625,-2.47625 -0.31,-1.03 -0.46375,-2.75751 -0.46375,-5.18001 0,-2.48125 0.1975,-4.2875 0.59875,-5.42 0.52875,-1.49 1.47875,-2.23625 2.85125,-2.23625 1.02751,0 1.82876,0.42 2.40001,1.25875 0.4,0.58 0.5975,1.12 0.5975,1.61875 l -1.9625,0 c -0.26875,-0.615 -0.61501,-0.92375 -1.03251,-0.92375 -1.00125,0 -1.49875,1.9 -1.49875,5.7025 0,1.92125 0.0725,3.27251 0.22375,4.05376 0.22,1.09875 0.645,1.65 1.275,1.65 0.64876,0 0.99876,-0.61 1.04751,-1.83375 l 1.9475,0 z"
   style="fill:#000000;fill-opacity:1;fill-rule:nonzero;stroke:none"
   id="path7619" /><path
   inkscape:connector-curvature="0"
   d="m 48.484571,105.43093 -3.07375,7.95125 0,7.04876 -1.9525,0 0,-7.04876 -3.07375,-7.95125 2.085,0 1.965,5.055 1.965,-5.055 2.085,0 z"
   style="fill:#000000;fill-opacity:1;fill-rule:nonzero;stroke:none"
   id="path7623" /><path
   inkscape:connector-curvature="0"
   d="m 56.590821,116.80094 c -0.02,0.73125 -0.13,1.3625 -0.33,1.89375 -0.49125,1.26125 -1.3825,1.8925 -2.67125,1.8925 -1.48875,0 -2.485,-0.825 -2.98625,-2.47625 -0.31,-1.03 -0.46375,-2.75751 -0.46375,-5.18001 0,-2.48125 0.20125,-4.2875 0.60125,-5.42 0.53,-1.49 1.47875,-2.23625 2.84875,-2.23625 1.03,0 1.83125,0.42 2.4,1.25875 0.4,0.58 0.60125,1.12 0.60125,1.61875 l -1.96375,0 c -0.27125,-0.615 -0.615,-0.92375 -1.035,-0.92375 -0.99875,0 -1.49875,1.9 -1.49875,5.7025 0,1.92125 0.075,3.27251 0.225,4.05376 0.21875,1.09875 0.64375,1.65 1.27375,1.65 0.65,0 0.99875,-0.61 1.05,-1.83375 l 1.94875,0 z"
   style="fill:#000000;fill-opacity:1;fill-rule:nonzero;stroke:none"
   id="path7627" /><path
   inkscape:connector-curvature="0"
   d="m 65.133321,120.43081 -5.70125,0 0,-15.00001 1.9525,0 0,13.04751 3.74875,0 0,1.9525 z"
   style="fill:#000000;fill-opacity:1;fill-rule:nonzero;stroke:none"
   id="path7631" /><path
   inkscape:connector-curvature="0"
   d="m 72.933451,120.43081 -5.70125,0 0,-15.00001 5.70125,0 0,1.95375 -3.7475,0 0,4.04875 2.3975,0 0,1.83625 -2.3975,0 0,5.20876 3.7475,0 0,1.9525 z"
   style="fill:#000000;fill-opacity:1;fill-rule:nonzero;stroke:none"
   id="path7635" /><path
   inkscape:connector-curvature="0"
   d="m 80.892071,117.27094 c 0,0.91125 -0.25375,1.66625 -0.76375,2.26625 -0.58125,0.7 -1.41875,1.05 -2.52,1.05 -1.3575,0 -2.2925,-0.65 -2.8025,-1.9525 -0.21,-0.54125 -0.33,-1.19125 -0.35875,-1.95375 l 1.945,0 c 0.0613,1.3025 0.46375,1.95375 1.21375,1.95375 0.88875,0 1.3325,-0.455 1.3325,-1.36625 0,-1.22125 -0.37,-2.31626 -1.1075,-3.28751 -0.68125,-0.78 -1.36,-1.56125 -2.04125,-2.34125 -0.74,-0.97 -1.10875,-2.07125 -1.10875,-3.30125 0,-0.6225 0.23,-1.2375 0.69125,-1.8475 0.58875,-0.80125 1.38875,-1.20625 2.4,-1.21625 1.29875,-0.009 2.20875,0.565 2.72875,1.725 0.22,0.48125 0.3525,1.05625 0.39125,1.72625 l -1.94875,0 c -0.07,-0.99875 -0.46125,-1.4975 -1.16875,-1.4975 -0.32,0 -0.59125,0.11 -0.81125,0.33 -0.21875,0.22 -0.32875,0.48 -0.32875,0.78125 0,0.87 0.36875,1.73 1.1075,2.58125 1.34125,1.56125 2.02,2.3575 2.04125,2.38625 0.7375,1.12125 1.10875,2.44251 1.10875,3.96376"
   style="fill:#000000;fill-opacity:1;fill-rule:nonzero;stroke:none"
   id="path7639" /></svg>