<?xml version="1.0" encoding="UTF-8" standalone="no"?>
<!-- Generator: Adobe Illustrator 13.0.0, SVG Export Plug-In  -->

<svg
   xmlns:dc="http://purl.org/dc/elements/1.1/"
   xmlns:cc="http://creativecommons.org/ns#"
   xmlns:rdf="http://www.w3.org/1999/02/22-rdf-syntax-ns#"
   xmlns:svg="http://www.w3.org/2000/svg"
   xmlns="http://www.w3.org/2000/svg"
   xmlns:sodipodi="http://sodipodi.sourceforge.net/DTD/sodipodi-0.dtd"
   xmlns:inkscape="http://www.inkscape.org/namespaces/inkscape"
   version="1.1"
   x="0px"
   y="0px"
   width="2170"
   height="2710"
   viewBox="-0.937 -0.042 2170 2710"
   enable-background="new -0.937 -0.042 576 660"
   xml:space="preserve"
   id="svg2"
   inkscape:version="0.48.2 r9819"
   sodipodi:docname="AJAX1.svg"><metadata
   id="metadata44"><rdf:RDF><cc:Work
       rdf:about=""><dc:format>image/svg+xml</dc:format><dc:type
         rdf:resource="http://purl.org/dc/dcmitype/StillImage" /><dc:title></dc:title></cc:Work></rdf:RDF></metadata><sodipodi:namedview
   pagecolor="#ffffff"
   bordercolor="#666666"
   borderopacity="1"
   objecttolerance="10"
   gridtolerance="10"
   guidetolerance="10"
   inkscape:pageopacity="0"
   inkscape:pageshadow="2"
   inkscape:window-width="1280"
   inkscape:window-height="1004"
   id="namedview42"
   showgrid="false"
   fit-margin-top="0"
   fit-margin-left="0"
   fit-margin-right="0"
   fit-margin-bottom="0"
   inkscape:zoom="0.25284424"
   inkscape:cx="813.75379"
   inkscape:cy="990.82836"
   inkscape:window-x="-8"
   inkscape:window-y="-8"
   inkscape:window-maximized="1"
   inkscape:current-layer="svg2" />
<defs
   id="defs4">
</defs>


















<path
   inkscape:connector-curvature="0"
   style="fill:#ffffff;fill-rule:nonzero;stroke:#000000;stroke-width:10;stroke-linecap:butt;stroke-linejoin:miter;stroke-miterlimit:4;stroke-opacity:1;stroke-dasharray:none"
   d="m 2164.0655,2569.9669 c 0,74.5625 -60.4375,135 -135,135 l -1890,0 c -74.559375,0 -135,-60.4375 -135,-135 l 0,-2430.00015 c 0,-74.55937 60.440625,-135 135,-135 l 1890,0 c 74.5625,0 135,60.44063 135,135 l 0,2430.00015 z"
   id="path11" /><path
   inkscape:connector-curvature="0"
   style="fill:#000000;fill-rule:nonzero;stroke:none"
   d="m 2074.0655,2569.9669 c 0,24.8125 -20.1875,45 -45,45 l -1890,0 c -24.81325,0 -45,-20.1875 -45,-45 l 0,-2430.00015 c 0,-24.81325 20.18675,-45 45,-45 l 1890,0 c 24.8125,0 45,20.18675 45,45 l 0,2430.00015 z m -45,-2531.25015 -1890,0 c -55.830125,0 -101.25,45.41988 -101.25,101.25 l 0,2430.00015 c 0,55.8249 45.419875,101.25 101.25,101.25 l 1890,0 c 55.825,0 101.25,-45.4251 101.25,-101.25 l 0,-2430.00015 c 0,-55.83012 -45.425,-101.25 -101.25,-101.25 z"
   id="path13" /><path
   inkscape:connector-curvature="0"
   style="fill:#000000;fill-rule:nonzero;stroke:none"
   d="m 1713.4405,1297.4919 -20.2125,94.7375 39.15,0 -18.9375,-94.7375 z m 49.25,237.475 -20.2125,-96 -59.35,0 -20.2125,96 -46.725,0 73.25,-360 46.725,0 74.5125,360 -47.9875,0 z"
   id="path15" /><path
   inkscape:connector-curvature="0"
   style="fill:#000000;fill-rule:nonzero;stroke:none"
   d="m 345.1705,1498.3419 c -7.87375,26.1124 -31.74,42.9375 -63.48,42.9375 -36.8175,0 -59.67125,-15.1499 -71.09625,-48 -10.15625,-30.3125 -15.235,-79.5751 -15.235,-137.6749 0,-32.8502 3.80875,-80.8502 8.8875,-108.6364 10.15625,-55.5787 31.73875,-77.0525 74.90375,-77.0525 40.6275,0 67.28875,25.2626 71.09875,69.475 l -46.975,0 c -1.27,-15.1587 -10.1575,-22.7375 -22.8525,-22.7375 -16.505,0 -25.3925,11.3675 -30.47,35.3688 -6.34875,29.0574 -7.6175,55.5825 -7.6175,103.5825 0,50.525 1.26875,72 7.6175,102.3125 5.0775,24 13.965,36.6374 29.19875,36.6374 16.505,0 24.12375,-12.6374 24.12375,-44.2125 l 46.975,0 c 0,27.7874 -1.27,35.3624 -5.07875,48 z"
   id="path17" /><path
   inkscape:connector-curvature="0"
   style="fill:#000000;fill-rule:nonzero;stroke:none"
   d="m 1504.9155,1498.3419 c -7.875,26.1124 -31.7375,42.9375 -63.4875,42.9375 -36.8125,0 -59.6625,-15.1499 -71.0875,-48 -10.1625,-30.3125 -15.2375,-79.5751 -15.2375,-137.6749 0,-32.8502 3.8125,-80.8502 8.8875,-108.6364 10.15,-55.5787 31.7375,-77.0525 74.9,-77.0525 40.625,0 67.2875,25.2626 71.1,69.475 l -46.975,0 c -1.275,-15.1587 -10.15,-22.7375 -22.85,-22.7375 -16.5125,0 -25.4,11.3675 -30.475,35.3688 -6.35,29.0574 -7.6125,55.5825 -7.6125,103.5825 0,50.525 1.2625,72 7.6125,102.3125 5.075,24 13.9625,36.6374 29.2,36.6374 16.5125,0 24.125,-12.6374 24.125,-44.2125 l 46.975,0 c 0,27.7874 -1.275,35.3624 -5.075,48 z"
   id="path19" /><path
   inkscape:connector-curvature="0"
   style="fill:#000000;fill-rule:nonzero;stroke:none"
   d="m 1011.1205,1534.9669 0,-359.9988 131.8662,0 0,46.7363 -86.655,0 0,92.2126 57.77,0 0,48 -57.77,0 0,126.3125 91.6788,0 0,46.7374 -136.89,0 z"
   id="path21" /><path
   inkscape:connector-curvature="0"
   style="fill:#000000;fill-rule:nonzero;stroke:none"
   d="m 1544.1905,1534.9669 0,-359.9988 46.8,0 0,359.9988 -46.8,0 z"
   id="path23" /><path
   style="fill:#000000;fill-rule:nonzero;stroke:none"
   d="m 1835.878,1534.9669 0,-359.9975 45.2125,0 0,196.854 0,121.456 91.675,0 0,41.6875 z"
   id="path25"
   inkscape:connector-curvature="0"
   sodipodi:nodetypes="cccccccc" /><path
   inkscape:connector-curvature="0"
   style="fill:#000000;fill-rule:nonzero;stroke:none"
   d="m 926.05925,1534.9669 0,-213.475 -41.685,135.1625 -43.88375,-135.1625 0,213.475 -45.46125,0 0,-359.9975 45.46125,0 43.88375,127.5725 41.685,-127.5725 45.46125,0 0,359.9975 -45.46125,0 z"
   id="path27" /><path
   inkscape:connector-curvature="0"
   style="fill:#000000;fill-rule:nonzero;stroke:none"
   d="m 709.96925,1534.9669 0,-213.475 -41.685,135.1625 -43.88375,-135.1625 0,213.475 -45.46125,0 0,-359.9975 45.46125,0 43.88375,127.5725 41.685,-127.5725 45.46125,0 0,359.9975 -45.46125,0 z"
   id="path29" /><path
   inkscape:connector-curvature="0"
   style="fill:#000000;fill-rule:nonzero;stroke:none"
   d="m 461.9205,1216.6507 c -41.685,0 -36.00625,112.4161 -36.00625,137.6912 0,24 -5.67875,140.2001 36.00625,140.2001 40.4225,0 34.745,-116.2001 34.745,-140.2001 0,-29.0625 -0.64,-137.6912 -34.745,-137.6912 z m 0,324.6287 c -89.68625,0 -82.745,-127.5751 -82.745,-186.9375 0,-61.9001 -5.67875,-184.4262 82.745,-184.4262 88.42375,0 82.745,123.7887 82.745,184.4262 0,59.3624 5.67875,186.9375 -82.745,186.9375 z"
   id="path31" /><path
   inkscape:connector-curvature="0"
   style="fill:#000000;fill-rule:nonzero;stroke:none"
   d="m 1244.4605,1221.7044 -22.1337,0 0,98.525 29.72,0 c 25.2813,0 32.8688,-11.3625 32.8688,-45.475 0,-40.4175 -8.8501,-53.05 -40.4551,-53.05 z m 49.3051,133.9 36.6749,179.3625 -46.7874,0 -40.4563,-168 -20.87,0 0,168 -45.5175,0 0,-360 70.1788,0 c 55.6275,0 84.715,34.1063 84.715,101.05 0,40.425 -11.3876,63.1625 -37.9375,79.5875 z"
   id="path33" /><path
   inkscape:connector-curvature="0"
   style="fill:#000000;fill-rule:nonzero;stroke:none"
   d="m 1256.5156,2218.3419 c -7.88,26.1125 -31.7463,42.9375 -63.485,42.9375 -36.8188,0 -59.67,-15.1501 -71.0963,-48 -10.1587,-30.3125 -15.2375,-79.575 -15.2375,-137.6751 0,-32.85 3.8113,-80.85 8.89,-108.6375 10.1563,-55.575 31.7375,-77.05 74.905,-77.05 40.6275,0 67.2863,25.2625 71.0988,69.475 l -46.9775,0 c -1.27,-15.1625 -10.1563,-22.7375 -22.8525,-22.7375 -16.5038,0 -25.3925,11.3625 -30.4713,35.3625 -6.3475,29.0625 -7.6162,55.5875 -7.6162,103.5875 0,50.525 1.2687,72 7.6162,102.3125 5.0788,24 13.9675,36.6375 29.2025,36.6375 16.5038,0 24.1213,-12.6375 24.1213,-44.2125 l 46.9775,0 c 0,27.7874 -1.275,35.3625 -5.075,48 z"
   id="path35" /><path
   inkscape:connector-curvature="0"
   style="fill:#000000;fill-rule:nonzero;stroke:none"
   d="m 521.88175,2254.9669 0,-360 131.865,0 0,46.7375 -86.655,0 0,92.2125 57.77125,0 0,48 -57.77125,0 0,126.3125 91.68,0 0,46.7375 -136.89,0 z"
   id="path37" /><path
   inkscape:connector-curvature="0"
   style="fill:#000000;fill-rule:nonzero;stroke:none"
   d="m 1541.0405,2254.9669 0,-360 131.8625,0 0,46.7375 -86.65,0 0,92.2125 57.7625,0 0,48 -57.7625,0 0,126.3125 91.675,0 0,46.7375 -136.8875,0 z"
   id="path39" /><path
   inkscape:connector-curvature="0"
   style="fill:#000000;fill-rule:nonzero;stroke:none"
   d="m 837.4455,2254.9669 0,-168 -64.22375,0 0,168 -45.33125,0 0,-360 45.33125,0 0,145.2625 64.22375,0 0,-145.2625 45.335,0 0,360 -45.335,0 z"
   id="path41" /><path
   inkscape:connector-curvature="0"
   style="fill:#000000;fill-rule:nonzero;stroke:none"
   d="m 977.81925,2254.9669 0,-360 46.80125,0 0,360 -46.80125,0 z"
   id="path43" /><path
   inkscape:connector-curvature="0"
   style="fill:#000000;fill-rule:nonzero;stroke:none"
   d="m 1343.6655,2254.9669 0,-360 45.2125,0 0,318.3125 91.6875,0 0,41.6875 -136.9,0 z"
   id="path45" /><path
   inkscape:connector-curvature="0"
   style="fill:#000000;fill-rule:nonzero;stroke:none"
   d="m 1858.3155,2099.6044 c 10.3875,22.3 17.7,53.05 17.7,78.3125 0,25.2624 -11.375,51.7874 -29.075,66.9499 -11.375,10.1001 -27.5,16.4251 -46.4625,16.4251 -50.575,0 -76.825,-32.85 -79.35,-96 l 46.7875,0 c 0,13.8874 1.2625,18.9375 3.7875,26.525 3.7875,13.8874 14.8625,22.7374 28.775,22.7374 17.7,0 28.7625,-13.8999 28.7625,-36.6374 0,-31.575 -11.0625,-58.1 -38.8875,-90.95 -16.4375,-18.9501 -27.5,-32.8376 -31.2875,-37.8876 -20.2375,-24 -29.0875,-49.2625 -29.0875,-74.525 0,-49.275 30.0375,-84.6375 73.025,-84.6375 44.25,0 67.9625,27.7875 73.0125,84.6375 l -46.775,0 c -1.2625,-27.8 -8.5375,-39.1625 -24.975,-39.1625 -17.7,0 -27.5,15.1625 -27.5,39.1625 0,16.4125 6,29.05 24.975,49.2625 39.1875,44.2 45.8375,52.7375 56.575,75.7876 z"
   id="path47" /><path
   inkscape:connector-curvature="0"
   style="fill:#000000;fill-rule:nonzero;stroke:none"
   d="m 396.1455,2254.9669 -39.09375,0 -64.94125,-360 46.6625,0 38.45625,205.2624 37.50875,-205.2625 46.66125,0 -65.25375,360 z"
   id="path49" /><path
   inkscape:connector-curvature="0"
   style="fill:#000000;fill-rule:nonzero;stroke:none"
   d="m 980.6605,814.968 -137.695,-243.79 0,243.79 -56.845,0 0,-360.00125 56.845,0 131.3775,229.89625 0,-229.89625 56.845,0 0,360.00125 -50.5275,0 z"
   id="path51" /><path
   inkscape:connector-curvature="0"
   style="fill:#000000;fill-rule:nonzero;stroke:none"
   d="m 1303.5031,534.54675 c -11.4,-18.9475 -25.325,-26.52625 -46.85,-27.78875 -27.8575,-1.26375 -45.5825,12.63 -58.245,44.21 -8.865,21.47375 -13.9288,54.31625 -13.9288,84.63125 0,37.895 7.595,77.0525 21.5238,99.79 11.3987,18.9475 26.5912,27.79 49.3875,27.79 26.5875,0 43.05,-13.89625 55.7125,-45.47375 7.6,-18.9475 13.925,-54.31625 13.925,-82.10625 0,-40.42 -7.6,-77.05125 -21.525,-101.0525 z m 39.25,246.31625 c -20.25,27.79 -49.375,40.4225 -87.3625,40.4225 -50.6525,0 -82.31,-20.2125 -103.8363,-64.42125 -15.1925,-30.3175 -25.3225,-78.31625 -25.3225,-121.265 0,-59.3675 15.1938,-112.42 39.2538,-146.52625 21.525,-27.79 50.6487,-40.42125 92.43,-40.42125 45.5875,0 77.25,20.21125 100.0375,64.42125 15.1875,31.57875 24.0625,77.0525 24.0625,122.52625 0,56.8425 -13.9375,113.68375 -39.2625,145.26375 z"
   id="path53" /></svg>