<?xml version="1.0" encoding="UTF-8" standalone="no"?>
<svg
   xmlns:dc="http://purl.org/dc/elements/1.1/"
   xmlns:cc="http://creativecommons.org/ns#"
   xmlns:rdf="http://www.w3.org/1999/02/22-rdf-syntax-ns#"
   xmlns:svg="http://www.w3.org/2000/svg"
   xmlns="http://www.w3.org/2000/svg"
   viewBox="0 0 113.38667 113.38667"
   height="113.38667"
   width="113.38667"
   xml:space="preserve"
   id="svg2"
   version="1.1"><metadata
     id="metadata8"><rdf:RDF><cc:Work
         rdf:about=""><dc:format>image/svg+xml</dc:format><dc:type
           rdf:resource="http://purl.org/dc/dcmitype/StillImage" /></cc:Work></rdf:RDF></metadata><defs
     id="defs6" /><g
     transform="matrix(1.3333333,0,0,-1.3333333,0,113.38667)"
     id="g10"><g
       transform="scale(0.1)"
       id="g12"><path
         id="path14"
         style="fill:#ee2c30;fill-opacity:1;fill-rule:nonzero;stroke:none"
         d="m 425.195,850.395 c 234.832,0 425.196,-190.368 425.196,-425.2 C 850.391,190.371 660.027,0 425.195,0 190.367,0 0,190.371 0,425.195 c 0,234.832 190.367,425.2 425.195,425.2 v 0" /><path
         id="path16"
         style="fill:#ffffff;fill-opacity:1;fill-rule:nonzero;stroke:none"
         d="m 425.23,708.695 c 38.508,0 75.278,-7.402 110.297,-22.215 33.899,-14.335 63.946,-34.605 90.149,-60.804 26.199,-26.203 46.465,-56.25 60.797,-90.149 14.816,-35.019 22.218,-71.781 22.218,-110.293 0,-38.511 -7.402,-75.273 -22.218,-110.293 C 672.141,281.047 651.875,250.996 625.676,224.797 599.473,198.594 569.426,178.32 535.527,163.984 500.508,149.18 463.738,141.77 425.23,141.77 c -38.507,0 -75.273,7.41 -110.292,22.214 -33.899,14.336 -63.946,34.61 -90.149,60.813 -26.199,26.199 -46.469,56.25 -60.805,90.144 -14.808,35.02 -22.218,71.782 -22.218,110.293 0,38.512 7.41,75.274 22.218,110.293 14.336,33.899 34.606,63.946 60.805,90.149 26.203,26.199 56.25,46.469 90.149,60.804 35.019,14.813 71.785,22.215 110.292,22.215 v 0" /><path
         id="path18"
         style="fill:#322f2f;fill-opacity:1;fill-rule:nonzero;stroke:none"
         d="m 352.234,550.797 29.364,9.121 13.332,-7.406 -5.942,-8.039 -9.23,3.566 -18.746,-5.246 -3.86,-9.047 22.11,-0.312 -12.84,-20.657 136.742,-0.242 6.406,11.778 v 0 c -0.781,-0.036 -4.14,0.136 -4.922,0.136 -3.425,0.176 -8.203,0.981 -11.386,2.485 -1.629,0.765 -3.223,2.027 -3.86,3.703 -0.496,1.293 -0.601,2.898 0.246,4.015 0.711,0.911 2.332,1.328 3.504,1.504 1.203,0.176 6.977,0.106 8.203,0.106 3.008,-0.035 9.7,0.734 12.668,1.082 2.403,0.277 9.375,1.086 11.739,1.539 v 0 l 11.035,2.512 v 0 c 1.98,0.355 4.598,0.632 6.512,-0.067 1.769,-0.629 3.363,-1.926 3.964,-3.707 0.532,-1.57 0.098,-3.422 -0.562,-4.926 -0.742,-1.675 -1.875,-3.246 -3.469,-4.261 -1.277,-0.801 -4.746,-1.676 -6.23,-2.063 v 0 l -7.571,-1.922 v 0 c -2.398,-0.664 -5.41,-0.734 -7.957,-0.836 v 0 l -7.07,-11.601 21.465,-44.305 v 0 c 2.441,0.941 6.125,2.336 8.633,3.07 8.633,2.52 17.793,2.934 26.711,1.782 17.781,-2.305 34.199,-10.586 46.406,-23.516 12.449,-13.172 19.801,-30.258 20.223,-48.258 0.457,-19.355 -7.032,-38.09 -20.586,-52.062 -14.075,-14.504 -33.567,-22.61 -53.868,-22.676 -18.781,-0.07 -36.992,6.707 -50.753,19.324 -6.688,6.145 -12.059,13.625 -15.957,21.77 -3.29,6.843 -5.586,14.148 -6.61,21.664 -0.281,2.304 -0.566,5.59 -0.742,7.894 v 0 l -27.102,0.176 v 0 c -0.175,-0.453 -0.379,-1.082 -0.562,-1.539 -0.664,-1.852 -1.594,-3.563 -2.719,-5.203 -1.453,-2.067 -3.262,-3.949 -5.418,-5.278 -0.812,-0.492 -2.051,-1.121 -2.93,-1.503 v 0 l 2.508,-10.446 6.192,1.395 1.379,-5.067 -15.743,-3.953 -1.23,4.442 5.09,1.539 -2.754,10.551 v 0 c -0.609,-0.102 -1.527,-0.282 -2.129,-0.348 -7.746,-1.016 -15.488,1.887 -20.621,7.683 -5.129,5.872 -7.035,13.875 -4.703,21.282 0.176,0.527 0.461,1.363 0.668,1.89 v 0 l -78.168,59.297 -8.278,-11.812 v 0 c 2.055,-1.606 4.957,-3.875 6.868,-5.625 15.382,-13.731 24.652,-33.301 23.519,-53.742 -2.265,-41.051 -35.687,-74.5 -77.32,-73.524 -40.82,0.945 -71.59,35.535 -73.184,75.863 -0.957,23.625 11.461,45.637 31.231,58.953 21.508,14.426 48.992,17.821 72.867,7.649 1.801,-0.805 4.492,-2.094 6.258,-2.969 v 0 l 36.929,57.063 -20.16,0.664 12.41,26.66 v 0" /><path
         id="path20"
         style="fill:#ffffff;fill-opacity:1;fill-rule:nonzero;stroke:none"
         d="m 293.883,400.422 32.965,50.734 v 0 c 1.023,-0.765 2.406,-1.816 3.355,-2.582 14.117,-11.531 22.039,-28.867 21.121,-46.929 -1.699,-34.348 -28.195,-63.598 -63,-63.977 -35.508,-0.422 -63.453,28.68 -65.183,63.727 -1.028,20.515 9.726,39.699 26.777,51.441 12.199,8.352 27.129,11.949 41.945,11.527 7.571,-0.242 15.739,-1.636 22.356,-5.269 0.957,-0.563 2.406,-1.438 3.324,-2.031 v 0 l -33.602,-51.438 v 0 c -0.07,-0.137 -2.226,-3.422 -2.261,-3.598 -0.5,-2.129 0.461,-4.332 2.261,-5.589 2.332,-1.641 5.516,-1.5 7.676,0.351 v 0 l 2.266,3.633 v 0" /><path
         id="path22"
         style="fill:#ffffff;fill-opacity:1;fill-rule:nonzero;stroke:none"
         d="m 563.926,413.137 -23.098,45.843 v 0 c 1.137,0.344 2.832,0.868 3.969,1.188 18.25,5.137 37.769,2.023 53.719,-8.148 17.968,-11.422 29.754,-30.852 29.043,-51.957 -1.133,-34.524 -27.735,-63.938 -62.676,-64.711 -33.36,-0.731 -61.016,24.461 -65.617,57.093 -0.133,1.016 -0.313,2.45 -0.418,3.457 v 0 l 50.644,0.629 v 0 c 0.36,-1.008 0.93,-2.476 1.453,-3.422 2.618,-4.785 7.676,-7.859 13.157,-7.406 7,0.59 12.453,6.254 12.734,13.207 0.254,6.465 -3.992,12.301 -10.363,13.84 -0.703,0.176 -1.805,0.313 -2.547,0.387 v 0" /><path
         id="path24"
         style="fill:#ffffff;fill-opacity:1;fill-rule:nonzero;stroke:none"
         d="m 359.543,501.441 135.992,-0.211 -45.976,-76.699 v 0 c -1.59,0.453 -3.961,1.043 -5.594,1.254 -1.231,0.145 -3.074,0.145 -4.309,0.145 v 0 l -1.629,6.953 5.086,1.469 -1.308,4.187 -15.489,-3.945 1.168,-4.336 5.133,1.297 1.621,-6.223 v 0 c -1.515,-0.453 -3.777,-1.187 -5.129,-2.027 -1.058,-0.664 -2.433,-1.918 -3.324,-2.793 v 0 l -79.652,59.578 13.41,21.351 v 0" /><path
         id="path26"
         style="fill:#ffffff;fill-opacity:1;fill-rule:nonzero;stroke:none"
         d="m 507.805,500.527 18.894,-37.496 v 0 c -1.847,-0.906 -4.519,-2.125 -6.191,-3.32 -14.387,-10.32 -25.789,-26.766 -29.785,-44.727 -0.528,-2.511 -1.133,-6.043 -1.551,-8.593 v 0 l -25.793,-0.352 v 0 c -0.176,0.91 -0.457,2.238 -0.703,3.145 -0.43,1.328 -0.996,2.656 -1.629,3.879 -0.598,1.117 -1.313,2.273 -2.082,3.25 -0.496,0.628 -1.281,1.503 -1.848,2.062 v 0 l 50.688,82.152 v 0" /><path
         id="path28"
         style="fill:#ffffff;fill-opacity:1;fill-rule:nonzero;stroke:none"
         d="m 531.758,454.656 22.246,-44.515 v 0 c -0.457,-0.383 -1.133,-0.981 -1.484,-1.434 -0.391,-0.453 -0.821,-1.187 -1.102,-1.711 v 0 l -51.82,-0.558 v 0 c 0.043,1.183 0.07,2.91 0.254,4.085 2.179,14.364 12.519,31.485 26.742,40.918 1.48,1.016 3.64,2.309 5.164,3.215 v 0" /><path
         id="path30"
         style="fill:#ffffff;fill-opacity:1;fill-rule:nonzero;stroke:none"
         d="m 424.355,408.113 17.864,-12.23 2.156,-7.754 v 0 c -0.496,-0.106 -1.27,-0.277 -1.77,-0.383 -10.046,-1.433 -18.425,6.949 -18.566,16.981 0,0.976 0.176,2.414 0.316,3.386 v 0" /><path
         id="path32"
         style="fill:#ffffff;fill-opacity:1;fill-rule:nonzero;stroke:none"
         d="m 430.41,416.344 c 0.32,0.242 0.813,0.629 1.133,0.875 1.27,0.906 2.93,1.57 4.426,1.886 v 0 l 2.183,-8.421 -7.742,5.66 v 0" /><path
         id="path34"
         style="fill:#ffffff;fill-opacity:1;fill-rule:nonzero;stroke:none"
         d="m 442.371,414.504 -1.453,5.027 v 0 c 1.309,0.278 3.113,-0.101 4.426,-0.312 v 0 l -2.973,-4.715 v 0" /><path
         id="path36"
         style="fill:#ffffff;fill-opacity:1;fill-rule:nonzero;stroke:none"
         d="m 449.414,406.973 4.246,6.882 v 0 c 0.324,-0.453 0.813,-1.183 1.137,-1.636 0.738,-1.086 1.629,-2.516 1.98,-3.742 0.137,-0.454 0.282,-1.118 0.352,-1.539 v 0 l -7.715,0.035 v 0" /><path
         id="path38"
         style="fill:#ffffff;fill-opacity:1;fill-rule:nonzero;stroke:none"
         d="m 447.363,396.137 8.633,0.074 v 0 c -0.391,-0.664 -0.957,-1.68 -1.418,-2.309 -0.777,-1.121 -1.765,-2.129 -2.793,-3.039 -0.633,-0.558 -1.629,-1.328 -2.332,-1.847 v 0 l -2.09,7.121 v 0" /></g></g></svg>