<?xml version="1.0" encoding="UTF-8" standalone="no"?>
<svg
   xmlns:dc="http://purl.org/dc/elements/1.1/"
   xmlns:cc="http://creativecommons.org/ns#"
   xmlns:rdf="http://www.w3.org/1999/02/22-rdf-syntax-ns#"
   xmlns:svg="http://www.w3.org/2000/svg"
   xmlns="http://www.w3.org/2000/svg"
   viewBox="0 0 113.38667 113.38667"
   height="113.38667"
   width="113.38667"
   xml:space="preserve"
   id="svg2"
   version="1.1"><metadata
     id="metadata8"><rdf:RDF><cc:Work
         rdf:about=""><dc:format>image/svg+xml</dc:format><dc:type
           rdf:resource="http://purl.org/dc/dcmitype/StillImage" /></cc:Work></rdf:RDF></metadata><defs
     id="defs6" /><g
     transform="matrix(1.3333333,0,0,-1.3333333,0,113.38667)"
     id="g10"><g
       transform="scale(0.1)"
       id="g12"><path
         id="path14"
         style="fill:#ee2c30;fill-opacity:1;fill-rule:nonzero;stroke:none"
         d="m 425.199,850.391 c 234.723,0 425.192,-190.473 425.192,-425.196 C 850.391,190.48 659.922,0 425.199,0 190.48,0 0,190.48 0,425.195 0,659.918 190.48,850.391 425.199,850.391 v 0" /><path
         id="path16"
         style="fill:#ffffff;fill-opacity:1;fill-rule:nonzero;stroke:none"
         d="m 44.75,340.164 h 760.965 v 0 c 6.199,27.649 9.258,56.012 9.258,85.066 0,29.016 -3.059,57.348 -9.219,84.997 H 44.7109 v 0 C 38.5586,482.578 35.5,454.246 35.5,425.23 c 0,-29.054 3.0586,-57.417 9.25,-85.066 v 0" /></g></g></svg>