<?xml version="1.0" encoding="UTF-8" standalone="no"?>
<!DOCTYPE svg PUBLIC "-//W3C//DTD SVG 1.0//EN" "http://www.w3.org/TR/2001/REC-SVG-20010904/DTD/svg10.dtd">
<svg
   xmlns:svg="http://www.w3.org/2000/svg"
   xmlns="http://www.w3.org/2000/svg"
   version="1.0"
   width="106.29932"
   height="106.29932"
   id="svg1897">
  <defs
     id="defs1899" />
  <g
     transform="translate(-101.1361,-270.6411)"
     id="layer1">
    <g
       transform="matrix(1.249992,0,0,-1.249992,-216.3619,854.8249)"
       style="font-style:normal;font-variant:normal;font-weight:normal;font-stretch:normal;letter-spacing:normal;word-spacing:normal;text-anchor:start;fill:none;fill-opacity:1;stroke:black;stroke-linecap:butt;stroke-linejoin:miter;stroke-miterlimit:10.43299961;stroke-dasharray:none;stroke-dashoffset:0;stroke-opacity:1"
       id="g10"
       xml:space="preserve">
<path
   d="M 296.52,467.35 L 298.71,467.3 L 300.87,467.13 L 303,466.86 L 305.09,466.49 L 307.15,466.01 L 309.17,465.44 L 311.14,464.77 L 313.07,464.01 L 314.96,463.16 L 316.79,462.22 L 318.57,461.2 L 320.3,460.09 L 321.96,458.9 L 323.57,457.64 L 325.11,456.3 L 326.59,454.9 L 328,453.42 L 329.33,451.88 L 330.6,450.27 L 331.78,448.6 L 332.89,446.88 L 333.91,445.1 L 334.85,443.26 L 335.7,441.38 L 336.46,439.45 L 337.13,437.47 L 337.7,435.45 L 338.18,433.4 L 338.55,431.3 L 338.82,429.18 L 338.99,427.02 L 339.04,424.83 C 339.04,401.35 320.01,382.31 296.52,382.31 C 273.04,382.31 254,401.35 254,424.83 C 254,448.31 273.04,467.35 296.52,467.35 z "
   style="fill:#ff1721;fill-rule:nonzero;stroke:#ff1721;stroke-width:0"
   id="path12" />
<path
   d="M 296.53,453.18 L 297.25,453.17 L 297.96,453.15 L 298.68,453.1 L 299.38,453.04 L 300.09,452.96 L 300.79,452.87 L 301.48,452.76 L 302.17,452.62 L 302.86,452.48 L 303.54,452.31 L 304.22,452.13 L 304.9,451.93 L 305.57,451.71 L 306.23,451.48 L 306.9,451.23 L 307.55,450.96 C 310.95,449.52 313.95,447.5 316.57,444.88 C 319.19,442.26 321.22,439.25 322.65,435.86 C 324.13,432.36 324.87,428.68 324.87,424.83 C 324.87,420.98 324.13,417.3 322.65,413.8 C 321.22,410.41 319.19,407.41 316.57,404.79 C 313.95,402.17 310.95,400.14 307.55,398.71 C 304.05,397.23 300.38,396.49 296.53,396.49 C 292.68,396.49 289,397.23 285.5,398.71 C 282.11,400.14 279.1,402.17 276.48,404.79 C 273.86,407.41 271.84,410.41 270.4,413.8 C 268.92,417.3 268.18,420.98 268.18,424.83 C 268.18,428.68 268.92,432.36 270.4,435.86 C 271.84,439.25 273.86,442.26 276.48,444.88 C 279.1,447.5 282.11,449.52 285.5,450.96 C 289,452.44 292.68,453.18 296.53,453.18 z "
   style="fill:white;fill-rule:nonzero;stroke:white;stroke-width:0"
   id="path14" />
<path
   d="M 282.21,422.33 L 282.4,422.33 L 282.58,422.31 L 282.77,422.29 L 282.95,422.26 L 283.13,422.21 L 283.3,422.16 L 283.47,422.11 L 283.64,422.04 L 283.8,421.96 L 283.96,421.88 L 284.11,421.79 L 284.26,421.7 L 284.4,421.59 L 284.54,421.48 L 284.67,421.37 L 284.8,421.25 L 284.92,421.12 L 285.04,420.98 L 285.15,420.85 L 285.25,420.7 L 285.34,420.55 L 285.43,420.4 L 285.51,420.24 L 285.58,420.08 L 285.65,419.92 L 285.7,419.75 L 285.75,419.57 L 285.79,419.4 L 285.83,419.22 L 285.85,419.04 L 285.86,418.86 L 285.87,418.67 C 285.92,416.64 284.3,414.91 282.21,414.91 C 280.17,414.91 278.55,416.58 278.55,418.67 C 278.55,420.66 280.22,422.33 282.21,422.33 z "
   style="fill:black;fill-rule:nonzero;stroke-width:0"
   id="path16" />
<path
   d="M 308.28,422.33 L 308.47,422.33 L 308.66,422.31 L 308.85,422.29 L 309.04,422.25 L 309.22,422.21 L 309.4,422.16 L 309.58,422.1 L 309.75,422.03 L 309.92,421.95 L 310.08,421.87 L 310.24,421.78 L 310.4,421.68 L 310.55,421.57 L 310.69,421.45 L 310.83,421.33 L 310.96,421.21 L 311.08,421.08 L 311.2,420.94 L 311.32,420.79 L 311.42,420.64 L 311.52,420.49 L 311.61,420.33 L 311.69,420.16 L 311.77,420 L 311.83,419.82 L 311.89,419.65 L 311.94,419.47 L 311.98,419.28 L 312.01,419.1 L 312.03,418.91 L 312.04,418.71 L 312.04,418.52 C 311.98,416.53 310.31,414.96 308.33,414.96 C 306.29,414.96 304.62,416.53 304.57,418.57 C 304.52,420.61 306.18,422.33 308.28,422.33 z "
   style="fill:black;fill-rule:nonzero;stroke-width:0"
   id="path18" />
<path
   d="M 317.79,422.8 L 311.94,422.8 L 312.46,422.12 L 317.27,422.02 L 317.27,420.66 L 313.77,419.41 L 313.77,419.41 C 313.77,419.35 313.82,418.57 313.82,418.52 L 313.82,418.52 L 312.88,418.52 L 312.88,418.52 C 312.88,418.57 312.88,418.67 312.88,418.67 C 312.67,421.13 310.79,423.22 308.33,423.22 C 305.88,423.27 303.89,421.23 303.68,418.83 C 303.68,418.72 303.68,418.62 303.63,418.57 L 303.63,418.57 L 286.65,418.62 L 286.65,418.62 C 286.65,418.67 286.65,418.78 286.65,418.83 C 286.7,421.23 284.62,423.06 282.21,423.06 C 279.86,423.06 277.88,421.18 277.77,418.83 C 277.77,418.72 277.77,418.62 277.77,418.57 L 277.77,418.57 L 275.58,418.57 L 275.63,419.09 L 275.63,419.09 C 275.58,419.14 275.47,419.14 275.37,419.25 C 275.27,419.35 275.27,419.51 275.27,419.56 L 275.27,419.56 L 275.27,420.03 L 275.27,420.03 C 275.27,420.08 275.27,420.34 275.32,420.39 C 275.37,420.5 275.53,420.5 275.63,420.5 L 275.63,420.5 L 276.15,420.5 L 276.68,425.57 L 276.68,425.57 C 276.68,425.78 276.78,426.04 276.93,426.2 C 277.14,426.4 277.56,426.51 277.61,426.51 L 277.61,426.51 L 278.24,426.56 L 279.81,429.9 L 279.81,429.9 C 280.12,430.53 281.17,431.26 282.05,431.26 L 282.05,431.26 L 287.18,431.26 L 287.12,422.07 L 303.89,422.02 L 304.52,422.7 L 287.7,422.75 L 287.8,435.44 L 317.79,435.49 L 317.79,422.8 z "
   style="fill:black;fill-rule:nonzero;stroke-width:0"
   id="path20" />
<path
   d="M 282.21,420.14 L 282.28,420.14 L 282.36,420.13 L 282.44,420.12 L 282.51,420.11 L 282.59,420.09 L 282.66,420.07 L 282.73,420.05 L 282.8,420.02 L 282.86,419.99 L 282.93,419.96 L 282.99,419.92 L 283.05,419.88 L 283.11,419.84 L 283.17,419.79 L 283.23,419.75 L 283.28,419.7 L 283.33,419.65 L 283.38,419.59 L 283.42,419.54 L 283.46,419.48 L 283.5,419.42 L 283.54,419.36 L 283.57,419.3 L 283.6,419.23 L 283.63,419.17 L 283.65,419.1 L 283.68,419.03 L 283.69,418.96 L 283.71,418.89 L 283.72,418.82 L 283.72,418.75 L 283.72,418.67 C 283.72,417.79 283.1,417.11 282.26,417.11 C 281.38,417.05 280.69,417.79 280.69,418.62 C 280.69,419.46 281.38,420.14 282.21,420.14 z "
   style="fill:white;fill-rule:nonzero;stroke:white;stroke-width:0"
   id="path22" />
<path
   d="M 308.33,420.19 L 308.41,420.19 L 308.49,420.18 L 308.57,420.17 L 308.65,420.15 L 308.72,420.13 L 308.8,420.11 L 308.87,420.08 L 308.94,420.05 L 309.01,420.02 L 309.07,419.98 L 309.14,419.94 L 309.2,419.89 L 309.26,419.84 L 309.31,419.79 L 309.36,419.74 L 309.42,419.68 L 309.46,419.63 L 309.51,419.56 L 309.55,419.5 L 309.59,419.43 L 309.62,419.37 L 309.66,419.3 L 309.69,419.22 L 309.71,419.15 L 309.74,419.08 L 309.75,419 L 309.77,418.92 L 309.78,418.84 L 309.79,418.76 L 309.8,418.68 L 309.8,418.6 L 309.79,418.52 C 309.79,417.73 309.11,417.11 308.33,417.11 C 307.5,417.11 306.82,417.68 306.77,418.52 C 306.71,419.4 307.44,420.19 308.33,420.19 z "
   style="fill:white;fill-rule:nonzero;stroke:white;stroke-width:0"
   id="path24" />
<polygon
   points="282.52,429.85 285.19,429.8 285.19,426.51 280.96,426.56 282.52,429.85 "
   style="fill:white;fill-rule:nonzero;stroke:white;stroke-width:0"
   id="polygon26" />
<polygon
   points="280.38,429.85 281.53,429.85 280.02,426.51 278.92,426.51 280.38,429.85 "
   style="fill:white;fill-rule:nonzero;stroke:white;stroke-width:0"
   id="polygon28" />
</g>  </g>
</svg>
