<?xml version="1.0" encoding="UTF-8" standalone="no"?>
<!DOCTYPE svg PUBLIC "-//W3C//DTD SVG 1.0//EN" "http://www.w3.org/TR/2001/REC-SVG-20010904/DTD/svg10.dtd">
<svg
   xmlns:svg="http://www.w3.org/2000/svg"
   xmlns="http://www.w3.org/2000/svg"
   version="1.0"
   width="106.30557"
   height="106.30865"
   id="svg1891">
  <defs
     id="defs1893" />
  <g
     transform="translate(-258.2758,-373.4935)"
     id="layer1">
    <g
       transform="matrix(1.249992,0,0,-1.249992,-59.21594,957.6804)"
       style="font-style:normal;font-variant:normal;font-weight:normal;font-stretch:normal;letter-spacing:normal;word-spacing:normal;text-anchor:start;fill:none;fill-opacity:1;stroke:black;stroke-linecap:butt;stroke-linejoin:miter;stroke-miterlimit:10.43299961;stroke-dasharray:none;stroke-dashoffset:0;stroke-opacity:1"
       id="g10"
       xml:space="preserve">
<path
   d="M 326.6,454.91 L 328.11,453.32 L 329.52,451.68 L 330.83,449.98 L 332.04,448.24 L 333.16,446.45 L 334.18,444.61 L 335.11,442.74 L 335.93,440.84 L 336.66,438.9 L 337.29,436.94 L 337.83,434.96 L 338.26,432.95 L 338.6,430.94 L 338.85,428.91 L 338.99,426.87 L 339.04,424.83 L 338.99,422.79 L 338.85,420.75 L 338.6,418.72 L 338.26,416.7 L 337.83,414.7 L 337.29,412.71 L 336.66,410.75 L 335.93,408.81 L 335.11,406.91 L 334.18,405.04 L 333.16,403.21 L 332.04,401.41 L 330.83,399.67 L 329.52,397.97 L 328.11,396.33 L 326.6,394.74 C 310,378.16 283.04,378.16 266.43,394.74 C 249.85,411.35 249.85,438.3 266.43,454.91 C 283.04,471.5 310,471.5 326.6,454.91 z "
   style="fill:#ff1721;fill-rule:nonzero;stroke:#ff1721;stroke-width:0"
   id="path12" />
<path
   d="M 275.09,451.27 L 322.96,403.4 L 322.96,403.4 C 325.08,406 326.77,408.88 328.04,412.01 C 329.7,416.11 330.54,420.38 330.54,424.82 C 330.54,429.27 329.7,433.55 328.04,437.64 C 326.33,441.88 323.84,445.62 320.57,448.89 C 317.32,452.15 313.57,454.64 309.33,456.36 C 305.23,458.02 300.96,458.85 296.52,458.85 C 292.06,458.85 287.8,458.02 283.7,456.36 C 280.56,455.08 277.69,453.39 275.09,451.27 z "
   style="fill:white;fill-rule:nonzero;stroke:white;stroke-width:0"
   id="path14" />
<path
   d="M 317.95,398.38 L 270.08,446.26 L 270.08,446.26 C 267.96,443.65 266.26,440.78 264.99,437.64 C 263.33,433.55 262.5,429.28 262.5,424.82 C 262.5,420.38 263.33,416.11 264.99,412.01 C 266.7,407.78 269.19,404.03 272.46,400.76 C 275.72,397.5 279.47,395.01 283.7,393.3 C 287.8,391.64 292.07,390.8 296.52,390.8 C 300.97,390.8 305.24,391.64 309.34,393.3 C 312.48,394.57 315.34,396.26 317.95,398.38 z "
   style="fill:white;fill-rule:nonzero;stroke:white;stroke-width:0"
   id="path16" />
<polygon
   points="312.82,403.51 303.05,413.28 303.05,398.61 312.82,398.61 312.82,403.51 "
   style="fill:black;fill-rule:nonzero;stroke-width:0"
   id="polygon18" />
<path
   d="M 293.93,432.43 L 295.98,432.43 L 295.98,432.43 C 297.93,432.43 299.84,431.66 301.16,430.22 C 302.38,428.93 303.05,427.1 303.05,425.31 L 303.05,425.31 L 303.05,423.3 L 312.82,413.53 L 312.82,425.51 L 312.82,425.51 C 312.81,429.22 311.57,432.8 309.29,435.73 C 306.07,439.83 301.2,442.04 295.98,441.97 L 295.98,441.97 L 285.96,442.01 L 285.96,448.21 L 281.19,445.16 L 293.93,432.43 z "
   style="fill:black;fill-rule:nonzero;stroke-width:0"
   id="path20" />
<polygon
   points="285.94,430.4 275.07,441.26 270.3,438.21 285.94,426.96 285.94,430.4 "
   style="fill:black;fill-rule:nonzero;stroke-width:0"
   id="polygon22" />
</g>  </g>
</svg>
