<?xml version="1.0" encoding="UTF-8" standalone="no"?>
<!-- Created with Inkscape (http://www.inkscape.org/) -->

<svg
   version="1.1"
   id="svg9782"
   width="400"
   height="400"
   viewBox="0 0 400 400"
   sodipodi:docname="C31.svg"
   inkscape:version="1.4 (86a8ad7, 2024-10-11)"
   inkscape:export-filename="C31.png"
   inkscape:export-xdpi="300"
   inkscape:export-ydpi="300"
   xmlns:inkscape="http://www.inkscape.org/namespaces/inkscape"
   xmlns:sodipodi="http://sodipodi.sourceforge.net/DTD/sodipodi-0.dtd"
   xmlns="http://www.w3.org/2000/svg"
   xmlns:svg="http://www.w3.org/2000/svg">
  <defs
     id="defs9786" />
  <sodipodi:namedview
     id="namedview9784"
     pagecolor="#ffffff"
     bordercolor="#000000"
     borderopacity="0.25"
     inkscape:showpageshadow="2"
     inkscape:pageopacity="0.0"
     inkscape:pagecheckerboard="true"
     inkscape:deskcolor="#d1d1d1"
     showgrid="false"
     inkscape:zoom="2.0925"
     inkscape:cx="90.561529"
     inkscape:cy="200.4779"
     inkscape:window-width="1920"
     inkscape:window-height="1017"
     inkscape:window-x="-8"
     inkscape:window-y="323"
     inkscape:window-maximized="1"
     inkscape:current-layer="g9790">
    <inkscape:page
       x="0"
       y="0"
       id="page9788"
       width="400"
       height="400"
       inkscape:export-filename="C31.png"
       inkscape:export-xdpi="96"
       inkscape:export-ydpi="96"
       margin="0"
       bleed="0" />
  </sodipodi:namedview>
  <g
     id="g9790"
     inkscape:groupmode="layer"
     inkscape:label="Page 1"
     transform="matrix(1.3333333,0,0,-1.3333333,0,400)">
    <g
       id="g9792"
       transform="scale(0.1)"
       style="display:inline">
      <path
         d="M 3000,1500 C 3000,671.57 2328.43,-0.0117188 1500,-0.0117188 671.57,-0.0117188 0,671.57 0,1500 c 0,828.43 671.57,1500 1500,1500 828.43,0 1500,-671.57 1500,-1500"
         style="fill:#ffffff;fill-opacity:1;fill-rule:nonzero;stroke:none"
         id="path9794" />
      <path
         d="M 2925,1500 C 2925,712.988 2287.01,75 1500,75 712.996,75 74.9961,712.988 74.9961,1500 c 0,787 637.9999,1425 1425.0039,1425 787.01,0 1425,-638 1425,-1425"
         style="fill:#ed1d24;fill-opacity:1;fill-rule:nonzero;stroke:none"
         id="path9796" />
      <path
         d="M 2575,1500 C 2575,906.289 2093.71,425 1500,425 906.293,425 424.996,906.289 424.996,1500 c 0,593.7 481.297,1075 1075.004,1075 593.71,0 1075,-481.3 1075,-1075"
         style="fill:#ffffff;fill-opacity:1;fill-rule:nonzero;stroke:none"
         id="path9798" />
    </g>
    <path
       d="m 197.72696,138.06827 c -7.10005,0 -12.84943,-5.74938 -12.84943,-12.85029 0,-7.09919 5.74938,-12.84857 12.84943,-12.84857 7.10005,0 12.85029,5.74938 12.85029,12.84857 0,7.10091 -5.75024,12.85029 -12.85029,12.85029 z m 0,-19.82528 c -3.85448,0 -6.97499,3.12136 -6.97499,6.97499 0,3.85534 3.12051,6.97584 6.97499,6.97584 3.85448,0 6.97499,-3.1205 6.97499,-6.97584 0,-3.85363 -3.12051,-6.97499 -6.97499,-6.97499"
       style="display:none;fill:#100f0d;fill-opacity:1;fill-rule:nonzero;stroke:none;stroke-width:0.0862494"
       id="path9961" />
    <path
       d="m 96.765616,138.06827 c -7.100392,0 -12.849774,-5.74938 -12.849774,-12.85029 0,-7.09919 5.749382,-12.84857 12.849774,-12.84857 7.100394,0 12.849864,5.74938 12.849864,12.84857 0,7.10091 -5.74947,12.85029 -12.849864,12.85029 z m 0,-19.82528 c -3.854225,0 -6.975762,3.12136 -6.975762,6.97499 0,3.85534 3.121537,6.97584 6.975762,6.97584 3.854654,0 6.975414,-3.1205 6.975414,-6.97584 0,-3.85363 -3.12076,-6.97499 -6.975414,-6.97499"
       style="display:none;fill:#100f0d;fill-opacity:1;fill-rule:nonzero;stroke:none;stroke-width:0.0862494"
       id="path9963" />
    <path
       d="m 245.03042,156.07282 -7.49593,26.23274 c -0.90389,3.16363 -3.76996,5.32504 -7.06037,5.32504 H 63.723745 c -1.01412,0 -1.835558,-0.82109 -1.835558,-1.83539 v -3.67077 c 0,-0.87198 0.611162,-1.62235 1.4646,-1.7983 h -0.0014 c 0.853782,-0.17595 1.464859,-0.92632 1.464859,-1.79743 0,-0.21218 -0.03571,-0.41831 -0.106777,-0.61755 l -9.522447,-26.66485 c -0.426848,-1.19542 -0.641781,-2.43482 -0.641781,-3.70527 v -18.65057 c 0,-2.02858 1.64305,-3.67249 3.671635,-3.67249 H 80.24479 c 0,9.12949 7.391829,16.52192 16.520806,16.52192 9.128634,0 16.520634,-7.39243 16.520634,-16.52192 h 67.92053 c 0,9.12949 7.39157,16.52192 16.5202,16.52192 9.1295,0 16.52107,-7.39243 16.52107,-16.52192 h 23.86347 c 4.05717,0 7.34327,3.2861 7.34327,7.34327 v 20.48508 c 0,1.03931 -0.13886,2.02772 -0.42435,3.02649 z m -156.341539,1.27045 c 0,-1.52143 -1.232158,-2.75394 -2.753597,-2.75394 H 63.958861 c -1.521784,0 -2.753942,1.23251 -2.753942,2.75394 0,0.31654 0.05356,0.62704 0.160769,0.92546 l 7.211913,20.19184 c 0.39183,1.09709 1.428117,1.82762 2.593173,1.82762 h 14.76451 c 1.521439,0 2.753597,-1.23164 2.753597,-2.75308 z m 26.820879,-2.75394 H 96.214742 c -1.521439,0 -2.753511,1.23251 -2.753511,2.75394 v 20.19184 c 0,1.52144 1.232072,2.75308 2.753511,2.75308 h 13.525798 c 1.23336,0 2.30803,-0.80988 2.64699,-1.99667 l 5.77008,-20.1927 c 0.0716,-0.24926 0.10609,-0.49593 0.10609,-0.75555 0,-1.52143 -1.2325,-2.75394 -2.75394,-2.75394 z m 29.00393,0 h -18.50393 c -1.23337,0 -2.30804,0.81075 -2.64786,1.99668 l -5.76922,20.1927 c -0.0716,0.24926 -0.10609,0.49679 -0.10609,0.7564 0,1.52144 1.23164,2.75308 2.75395,2.75308 h 18.50307 c 1.23423,0 2.3089,-0.80988 2.64786,-1.99667 l 5.76922,-20.1927 c 0.0716,-0.24926 0.10608,-0.49593 0.10608,-0.75555 0,-1.52143 -1.23164,-2.75394 -2.75308,-2.75394 z m 29.00307,0 h -18.50307 c -1.23423,0 -2.3089,0.81075 -2.64786,1.99668 l -5.77008,20.1927 c -0.0707,0.24926 -0.10608,0.49679 -0.10608,0.7564 0,1.52144 1.2325,2.75308 2.75394,2.75308 h 18.50393 c 1.23337,0 2.30803,-0.80988 2.64699,-1.99667 l 5.77009,-20.1927 c 0.0707,-0.24926 0.10522,-0.49593 0.10522,-0.75555 0,-1.52143 -1.23164,-2.75394 -2.75308,-2.75394 z m 29.00308,0 h -18.50222 c -1.23509,0 -2.30889,0.81075 -2.64871,1.99668 l -5.76923,20.1927 c -0.0716,0.24926 -0.10608,0.49679 -0.10608,0.7564 0,1.52144 1.2325,2.75308 2.75394,2.75308 h 18.50308 c 1.23423,0 2.30803,-0.80988 2.64785,-1.99667 l 5.76922,-20.1927 c 0.0716,-0.24926 0.10609,-0.49593 0.10609,-0.75555 0,-1.52143 -1.23164,-2.75394 -2.75394,-2.75394 z m 29.00393,0 h -18.50394 c -1.23336,0 -2.30803,0.81075 -2.64699,1.99668 l -5.77008,20.1927 c -0.0707,0.24926 -0.10522,0.49679 -0.10522,0.7564 0,1.52144 1.23164,2.75308 2.75307,2.75308 h 18.50308 c 1.23337,0 2.3089,-0.80988 2.64699,-1.99667 l 5.77095,-20.1927 c 0.0707,-0.24926 0.10608,-0.49593 0.10608,-0.75555 0,-1.52143 -1.2325,-2.75394 -2.75394,-2.75394"
       style="display:none;fill:#100f0d;fill-opacity:1;fill-rule:nonzero;stroke:none;stroke-width:0.0862494"
       id="path9965" />
    <path
       id="path2223"
       d="m 84.841276,199.99946 c -0.989356,0 -1.956413,-0.29446 -2.776433,-0.84181 L 64.311504,187.632 c -0.620013,-0.62734 -0.973655,-1.4792 -0.973655,-2.35454 v -3.89562 c 0,-0.88801 0.353642,-1.73745 0.973655,-2.35747 l 4.213965,-4.23057 c 0.938021,-0.93801 2.216306,-1.46975 3.545004,-1.46975 l 44.590857,0.0107 v -3.33113 l -16.59901,-2.98442 c -1.318017,-0.22867 -2.489309,-0.98126 -3.239326,-2.08794 L 84.541463,147.0657 c -0.789351,-1.13536 -1.904098,-2.01283 -3.206128,-2.48149 l -15.819701,-5.78725 c -1.302698,-0.47867 -2.177785,-1.72832 -2.177785,-3.12704 V 116.6695 c 0,-1.83071 1.487089,-3.31845 3.331133,-3.31845 l 13.322571,-0.0254 c 0,9.20621 7.463786,16.66934 16.669332,16.66934 9.216875,0 16.681035,-7.46313 16.681035,-16.66934 h 63.30029 c 0,9.20621 7.46338,16.66934 16.67228,16.66934 9.20821,0 16.68006,-7.46313 16.68006,-16.66934 l 6.66715,0.008 20.00046,6.66716 -0.0205,70.00357 c 0,1.83337 -1.48755,3.32039 -3.32625,3.32039 l -43.31839,0.008 -13.33625,6.66714 z m 6.819496,-6.65052 h 23.329638 c 0.92135,0 1.67385,-0.75355 1.67385,-1.6729 v -10.00512 c 0,-0.91935 -0.7525,-1.67192 -1.67385,-1.67192 H 91.660772 c -0.919356,0 -1.670943,0.75257 -1.670943,1.67192 v 10.00512 c 0,0.91935 0.751587,1.6729 1.670943,1.6729 z m 50.004088,-19.99851 h 26.65196 c 0.9267,0 1.67192,-0.75551 1.67192,-1.67485 v -50.0031 c 0,-0.91937 -0.74522,-1.67194 -1.67192,-1.67194 h -26.65196 c -0.92669,0 -1.67191,0.75257 -1.67191,1.67194 v 50.0031 c 0,0.91934 0.74522,1.67485 1.67191,1.67485 z m 43.32911,0 h 23.32086 c 0.92934,0 1.68266,-0.75551 1.68266,-1.67485 V 154.9955 c 0,-0.91936 -0.75332,-1.67191 -1.68266,-1.67191 0,0 -23.32086,0.0107 -23.32086,0 -0.92934,0 -1.68167,0.75255 -1.68167,1.67191 v 16.68008 c 0,0.91934 0.75233,1.67485 1.68167,1.67485 z m -83.23042,-9.35179 h 13.22686 c 0.92135,0 1.67385,-0.74989 1.67385,-1.6719 v -15.40369 c 0,-0.89336 -0.70751,-1.63018 -1.60355,-1.67484 l -25.790628,-1.12503 h -0.05863 c -0.729339,0 -1.323271,0.59348 -1.323271,1.32815 0,0.25802 0.07303,0.51306 0.223644,0.73439 l 10.887947,16.33632 c 0.61202,0.92201 1.649048,1.4766 2.763738,1.4766 z m -5.102665,-37.3495 c -7.356846,0 -13.322573,-5.9687 -13.322573,-13.32356 0,-7.35948 5.965727,-13.32548 13.322573,-13.32548 7.359505,0 13.326465,5.966 13.326465,13.32548 0,7.35486 -5.96696,13.32356 -13.326465,13.32356 z m 96.653605,0 c -7.35686,0 -13.32259,-5.9687 -13.32259,-13.32356 0,-7.35948 5.96573,-13.32548 13.32259,-13.32548 7.36483,0 13.32355,5.966 13.32355,13.32548 0,7.35486 -5.95872,13.32356 -13.32355,13.32356 z"
       style="fill:#000000;fill-opacity:1;fill-rule:nonzero;stroke:none;stroke-width:0.999992" />
  </g>
</svg>
