<?xml version="1.0" encoding="UTF-8" standalone="no"?>
<!DOCTYPE svg PUBLIC "-//W3C//DTD SVG 1.0//EN" "http://www.w3.org/TR/2001/REC-SVG-20010904/DTD/svg10.dtd">
<svg
   xmlns:svg="http://www.w3.org/2000/svg"
   xmlns="http://www.w3.org/2000/svg"
   version="1.0"
   width="106.29932"
   height="106.29932"
   id="svg1897">
  <defs
     id="defs1899" />
  <g
     transform="translate(-23.99317,-384.9268)"
     id="layer1">
    <g
       transform="matrix(1.249992,0,0,-1.249992,-293.5048,969.1106)"
       style="font-style:normal;font-variant:normal;font-weight:normal;font-stretch:normal;letter-spacing:normal;word-spacing:normal;text-anchor:start;fill:none;fill-opacity:1;stroke:black;stroke-linecap:butt;stroke-linejoin:miter;stroke-miterlimit:10.43299961;stroke-dasharray:none;stroke-dashoffset:0;stroke-opacity:1"
       id="g10"
       xml:space="preserve">
<path
   d="M 296.52,467.35 L 298.71,467.3 L 300.87,467.13 L 303,466.86 L 305.09,466.49 L 307.15,466.01 L 309.17,465.44 L 311.14,464.77 L 313.07,464.01 L 314.96,463.16 L 316.79,462.22 L 318.57,461.2 L 320.3,460.09 L 321.96,458.9 L 323.57,457.64 L 325.11,456.3 L 326.59,454.9 L 328,453.42 L 329.33,451.88 L 330.6,450.27 L 331.78,448.6 L 332.89,446.88 L 333.91,445.1 L 334.85,443.26 L 335.7,441.38 L 336.46,439.45 L 337.13,437.47 L 337.7,435.45 L 338.18,433.4 L 338.55,431.3 L 338.82,429.18 L 338.99,427.02 L 339.04,424.83 C 339.04,401.35 320.01,382.31 296.52,382.31 C 273.04,382.31 254,401.35 254,424.83 C 254,448.31 273.04,467.35 296.52,467.35 z "
   style="fill:#ff1721;fill-rule:nonzero;stroke:#ff1721;stroke-width:0"
   id="path12" />
<path
   d="M 296.53,453.18 L 297.25,453.17 L 297.96,453.15 L 298.68,453.1 L 299.38,453.04 L 300.09,452.96 L 300.79,452.87 L 301.48,452.76 L 302.17,452.62 L 302.86,452.48 L 303.54,452.31 L 304.22,452.13 L 304.9,451.93 L 305.57,451.71 L 306.23,451.48 L 306.9,451.23 L 307.55,450.96 C 310.95,449.52 313.95,447.5 316.57,444.88 C 319.19,442.26 321.22,439.25 322.65,435.86 C 324.13,432.36 324.87,428.68 324.87,424.83 C 324.87,420.98 324.13,417.3 322.65,413.8 C 321.22,410.41 319.19,407.41 316.57,404.79 C 313.95,402.17 310.95,400.14 307.55,398.71 C 304.05,397.23 300.38,396.49 296.53,396.49 C 292.68,396.49 289,397.23 285.5,398.71 C 282.11,400.14 279.1,402.17 276.48,404.79 C 273.86,407.41 271.84,410.41 270.4,413.8 C 268.92,417.3 268.18,420.98 268.18,424.83 C 268.18,428.68 268.92,432.36 270.4,435.86 C 271.84,439.25 273.86,442.26 276.48,444.88 C 279.1,447.5 282.11,449.52 285.5,450.96 C 289,452.44 292.68,453.18 296.53,453.18 z "
   style="fill:white;fill-rule:nonzero;stroke:white;stroke-width:0"
   id="path14" />
<path
   d="M 276.2,425.62 L 275.91,425.94 L 275.91,425.94 C 275.5,426.39 278.04,427.8 279.16,428.19 C 279.95,428.46 282.02,428.83 282.46,428.83 L 282.46,428.83 L 282.46,430.06 L 282.46,430.06 C 282.46,430.12 282.46,430.36 282.57,430.48 C 282.7,430.59 282.96,430.55 283.05,430.54 C 283.22,430.5 283.64,430.36 283.64,430.36 C 283.7,430.42 283.82,430.54 283.88,430.59 C 283.99,430.71 284.82,431.24 285.17,431.3 C 285.82,431.36 286.35,431.24 286.94,431.06 L 286.94,431.06 L 287.65,430.83 L 287.65,430.83 C 287.89,430.75 288.41,431.19 288.65,431.18 C 289.09,431.16 291.18,430.46 291.07,430.88 L 291.07,430.88 L 290.71,432.24 L 290.71,432.24 C 290.66,432.44 290.34,433.66 290.18,433.77 C 290.14,433.8 290.02,433.76 289.95,433.7 C 289.73,433.54 289.34,433.59 289.28,433.82 C 289.24,434 289.17,434.19 289.06,434.3 C 288.96,434.41 288.36,434.52 288.18,434.54 C 288.09,434.54 287.98,434.62 288,434.71 C 288.05,434.95 288.12,435.18 287.95,435.48 L 287.95,435.48 L 287.53,436.3 L 287.53,436.3 C 287.41,436.48 287.41,436.77 287.41,436.95 C 287.41,437.18 287.41,437.42 287.47,437.66 C 287.65,438.77 288.83,439.36 289.77,439.42 C 290.54,439.48 291.89,439.36 292.43,437.3 C 292.48,437.07 292.48,436.71 292.48,436.54 C 292.59,436.54 294.58,436.43 295.26,436.18 C 296.05,435.89 298.59,433.97 299.86,432.71 C 300.7,432.09 302.27,430.71 303.16,429.53 C 303.35,429.16 303.59,428.71 303.5,428.07 C 303.48,427.91 303.28,427.12 303.1,426.95 L 303.1,426.95 L 305.34,425.47 L 306.82,427.24 L 306.82,427.24 C 307,427.41 307.02,427.64 306.96,427.79 C 306.87,428.02 306.52,428.06 306.17,428.18 L 306.17,428.18 L 304.7,428.71 L 304.7,428.71 C 304.64,428.77 304.19,428.86 304.27,429.36 C 304.31,429.69 304.62,429.82 304.75,429.83 L 304.75,429.83 L 313.95,430 L 315.2,429.95 L 315.2,429.95 C 315.34,429.94 315.56,429.75 315.66,429.51 C 315.8,429.16 315.69,428.85 315.59,428.74 L 315.59,428.74 L 314.86,427.98 L 314.86,427.98 C 314.83,427.79 314.9,427.69 315.02,427.59 C 315.1,427.51 316.45,426.38 316.79,425.71 C 316.9,425.53 316.91,424.87 317.08,424.87 C 317.45,424.88 317.79,424.64 317.79,424.36 L 317.79,424.36 L 317.79,420.41 L 317.79,420.41 C 317.79,420.35 317.77,420.2 317.73,420.12 C 317.67,420.01 317.42,419.95 317.25,419.95 C 316.91,419.97 316.67,420.12 316.61,420.12 C 316.61,420.06 315.55,416.38 311.24,416.35 C 306.1,416.31 305.23,421.12 305.23,421.12 L 305.23,421.12 L 300.26,419.13 L 291.6,419.12 L 291.6,419.12 C 291.42,419.12 290.49,419.09 290.35,419.73 C 290.25,420.18 290.95,420.82 291.01,420.88 L 291.01,420.88 L 288.95,423.65 L 288.95,423.65 C 288.95,423.65 288.77,424 288.47,423.88 C 288.24,423.82 288.24,423.47 288.24,423.47 L 288.24,423.47 L 288.22,421.77 L 288.22,421.77 C 288.22,421.71 288.22,421.43 288.06,421.29 C 287.87,421.12 287.48,421.23 287.31,421.23 C 286.77,418.44 284.3,416.33 281.34,416.33 C 277.99,416.33 275.27,419.05 275.27,422.39 C 275.27,423.58 275.61,424.69 276.2,425.62 z "
   style="fill:black;fill-rule:nonzero;stroke-width:0"
   id="path16" />
<path
   d="M 291.53,422.76 L 289.94,425.29 L 289.94,425.29 C 289.76,425.7 289.76,426.23 290.06,426.58 C 290.29,426.82 290.71,426.82 291.06,426.46 C 291.53,425.99 291.71,425.05 291.71,424.64 C 291.71,424.17 291.53,423.4 291.53,422.76 z "
   style="fill:white;fill-rule:nonzero;stroke:white;stroke-width:0"
   id="path18" />
<path
   d="M 299.9,421.99 L 298.25,422.17 L 298.25,422.17 C 298.25,422.17 298.9,423.35 299.49,423.94 C 299.96,424.41 300.67,424.88 301.14,425.17 L 301.14,425.17 L 299.9,421.99 z "
   style="fill:white;fill-rule:nonzero;stroke:white;stroke-width:0"
   id="path20" />
<path
   d="M 289.41,428.53 L 285.7,428.53 L 285.7,428.53 C 285.7,428.53 286.22,429.71 287.29,429.65 C 287.64,429.65 287.88,429.71 288.35,429.41 C 288.76,429.12 289.11,428.82 289.41,428.53 z "
   style="fill:white;fill-rule:nonzero;stroke:white;stroke-width:0"
   id="path22" />
<path
   d="M 282.54,423.07 L 283.23,424.09 L 283.23,424.09 C 283.69,423.63 283.97,423 283.97,422.29 C 283.97,420.86 282.81,419.7 281.38,419.7 C 279.94,419.7 278.78,420.86 278.78,422.29 C 278.78,423.68 279.88,424.82 281.26,424.88 L 281.26,424.88 L 281.32,423.7 L 281.32,423.7 C 280.57,423.67 279.96,423.05 279.96,422.3 C 279.96,421.52 280.59,420.89 281.37,420.89 C 282.14,420.89 282.77,421.52 282.77,422.3 C 282.77,422.58 282.69,422.84 282.54,423.07 z "
   style="fill:white;fill-rule:nonzero;stroke:white;stroke-width:0"
   id="path24" />
<path
   d="M 312.38,421.75 L 313.42,421.23 L 313.42,421.23 C 313.02,420.31 312.11,419.67 311.04,419.67 C 309.61,419.67 308.45,420.83 308.45,422.26 C 308.45,422.73 308.57,423.17 308.8,423.55 L 308.8,423.55 L 309.86,423.02 L 309.86,423.02 C 309.71,422.8 309.62,422.53 309.62,422.24 C 309.62,421.46 310.26,420.82 311.05,420.82 C 311.66,420.82 312.18,421.21 312.38,421.75 z "
   style="fill:white;fill-rule:nonzero;stroke:white;stroke-width:0"
   id="path26" />
<path
   d="M 313.5,423.07 L 312.37,422.75 L 312.37,422.75 C 312.16,423.28 311.65,423.66 311.05,423.66 C 310.91,423.66 310.79,423.64 310.67,423.61 L 310.67,423.61 L 310.22,424.71 L 310.22,424.71 C 310.48,424.8 310.75,424.84 311.04,424.84 C 312.19,424.84 313.16,424.1 313.5,423.07 z "
   style="fill:white;fill-rule:nonzero;stroke:white;stroke-width:0"
   id="path28" />
</g>  </g>
</svg>
