<?xml version="1.0" encoding="UTF-8" standalone="no"?>
<!DOCTYPE svg PUBLIC "-//W3C//DTD SVG 1.0//EN" "http://www.w3.org/TR/2001/REC-SVG-20010904/DTD/svg10.dtd">
<svg
   xmlns:svg="http://www.w3.org/2000/svg"
   xmlns="http://www.w3.org/2000/svg"
   version="1.0"
   width="106.28974"
   height="106.29266"
   id="svg1931">
  <defs
     id="defs1933" />
  <g
     transform="translate(770.288,83.64128)"
     id="layer1">
    <g
       transform="matrix(1.249992,0,0,-1.249992,-1087.783,500.5329)"
       style="font-style:normal;font-variant:normal;font-weight:normal;font-stretch:normal;letter-spacing:normal;word-spacing:normal;text-anchor:start;fill:none;fill-opacity:1;stroke:black;stroke-linecap:butt;stroke-linejoin:miter;stroke-miterlimit:10.43299961;stroke-dasharray:none;stroke-dashoffset:0;stroke-opacity:1"
       id="g10"
       xml:space="preserve">
<path
   d="M 317.77,461.64 L 319.64,460.5 L 321.43,459.28 L 323.14,457.98 L 324.76,456.61 L 326.31,455.17 L 327.77,453.67 L 329.14,452.1 L 330.43,450.47 L 331.64,448.8 L 332.76,447.07 L 333.79,445.29 L 334.73,443.47 L 335.58,441.61 L 336.34,439.71 L 337.01,437.79 L 337.58,435.83 L 338.06,433.85 L 338.45,431.84 L 338.74,429.82 L 338.93,427.78 L 339.03,425.74 L 339.02,423.68 L 338.92,421.63 L 338.72,419.57 L 338.41,417.52 L 338,415.47 L 337.49,413.44 L 336.87,411.42 L 336.15,409.42 L 335.32,407.44 L 334.38,405.49 L 333.34,403.57 C 321.59,383.24 295.59,376.27 275.26,388.01 C 254.93,399.75 247.96,425.75 259.7,446.08 C 271.44,466.41 297.44,473.38 317.77,461.64 z "
   style="fill:#ff1721;fill-rule:nonzero;stroke:#ff1721;stroke-width:0"
   id="path12" />
<path
   d="M 273.9,441.91 L 296.41,428.91 L 319.07,442 L 319.07,442 C 316.79,445 314,447.46 310.69,449.37 C 307.36,451.29 303.8,452.49 300.03,452.96 C 296.38,453.41 292.76,453.15 289.18,452.2 C 285.6,451.24 282.35,449.65 279.41,447.43 C 277.3,445.84 275.47,444 273.9,441.91 z "
   style="fill:white;fill-rule:nonzero;stroke:white;stroke-width:0"
   id="path14" />
<path
   d="M 293.03,396.68 L 293.03,422.68 L 270.36,435.77 L 270.36,435.77 C 269.36,433.39 268.7,430.91 268.38,428.33 C 267.93,424.68 268.18,421.07 269.14,417.48 C 270.1,413.91 271.68,410.65 273.91,407.72 C 276.2,404.68 279.01,402.2 282.34,400.28 C 285.68,398.36 289.23,397.16 293,396.69 C 293.01,396.69 293.02,396.68 293.03,396.68 z "
   style="fill:white;fill-rule:nonzero;stroke:white;stroke-width:0"
   id="path16" />
<path
   d="M 322.62,435.87 L 300.12,422.88 L 300.12,396.71 L 300.12,396.71 C 301.37,396.87 302.61,397.12 303.85,397.45 C 307.43,398.41 310.69,400 313.62,402.21 C 316.66,404.51 319.13,407.32 321.06,410.65 C 322.99,413.99 324.18,417.54 324.65,421.31 C 325.1,424.96 324.85,428.58 323.89,432.16 C 323.55,433.44 323.13,434.67 322.62,435.87 z "
   style="fill:white;fill-rule:nonzero;stroke:white;stroke-width:0"
   id="path18" />
<path
   d="M 282.9,414.2 L 279.15,414.18 L 279.15,414.18 C 279.07,414.18 279,414.18 278.95,414.18 C 278.89,414.2 278.84,414.2 278.82,414.23 C 278.74,414.25 278.69,414.28 278.67,414.33 C 278.64,414.38 278.61,414.43 278.61,414.48 C 278.61,414.53 278.61,414.58 278.61,414.63 C 278.64,414.68 278.67,414.73 278.71,414.78 C 278.71,414.81 278.79,414.86 278.82,414.86 C 278.84,414.88 278.87,414.91 278.89,414.94 L 278.89,414.94 L 278,416.12 L 278,416.12 C 278,416.12 277.93,416.27 277.8,416.23 C 277.7,416.2 277.7,416.05 277.7,416.05 L 277.7,416.05 L 277.67,415.32 L 277.67,415.32 C 277.67,415.29 277.67,415.21 277.64,415.19 C 277.64,415.16 277.64,415.11 277.62,415.11 C 277.59,415.09 277.44,415.04 277.39,415.04 C 277.36,415.04 277.34,415.06 277.31,415.06 C 277.31,415.01 277.29,414.99 277.29,414.94 C 276.85,412.96 274.25,412.38 272.9,413.72 C 272.11,414.48 271.77,415.67 272.41,416.79 C 272.44,416.83 272.49,416.91 272.54,416.93 L 272.54,416.93 L 272.41,417.01 L 272.41,417.01 C 272.41,417.04 272.36,417.09 272.36,417.11 C 272.36,417.14 272.36,417.16 272.36,417.21 C 272.39,417.24 272.41,417.32 272.46,417.34 C 272.59,417.49 272.75,417.64 272.9,417.75 C 273.07,417.89 273.28,418 273.51,418.1 C 273.71,418.2 273.97,418.3 274.2,418.33 C 274.4,418.38 274.61,418.4 274.84,418.38 C 274.91,418.38 275.17,418.35 275.2,418.35 L 275.2,418.35 L 275.2,418.89 L 275.2,418.89 C 275.2,418.91 275.2,419.01 275.25,419.06 C 275.3,419.11 275.42,419.11 275.45,419.09 C 275.53,419.06 275.7,419.01 275.7,419.01 C 275.73,419.04 275.78,419.09 275.81,419.11 C 275.86,419.16 275.91,419.21 275.96,419.24 C 276.06,419.34 276.21,419.39 276.37,419.41 C 276.65,419.44 276.88,419.39 277.13,419.31 L 277.13,419.31 L 277.44,419.21 L 277.44,419.21 C 277.46,419.24 277.8,419.36 277.88,419.36 C 277.95,419.36 278.05,419.36 278.13,419.34 C 278.23,419.31 278.77,419.19 278.82,419.19 C 278.84,419.19 278.89,419.21 278.92,419.24 L 278.92,419.24 L 278.77,419.82 L 278.77,419.82 C 278.74,419.87 278.64,420.07 278.64,420.1 C 278.61,420.15 278.59,420.2 278.59,420.25 C 278.56,420.3 278.56,420.35 278.54,420.41 C 278.54,420.43 278.54,420.45 278.54,420.48 C 278.51,420.48 278.46,420.45 278.44,420.45 C 278.39,420.43 278.33,420.41 278.3,420.41 C 278.28,420.41 278.25,420.43 278.2,420.43 C 278.18,420.45 278.16,420.48 278.16,420.51 C 278.13,420.53 278.11,420.58 278.11,420.63 C 278.08,420.66 278.08,420.68 278.05,420.71 C 278.02,420.73 278,420.76 277.98,420.78 C 277.98,420.78 277.95,420.78 277.93,420.78 C 277.9,420.78 277.88,420.78 277.88,420.78 L 277.88,420.78 L 277.77,420.78 L 277.77,420.78 C 277.75,420.78 277.72,420.78 277.72,420.78 C 277.7,420.81 277.67,420.81 277.64,420.83 C 277.64,420.86 277.64,420.91 277.64,420.93 C 277.64,420.98 277.64,421.04 277.62,421.09 C 277.59,421.11 277.59,421.16 277.57,421.21 L 277.57,421.21 L 277.39,421.59 L 277.39,421.59 C 277.34,421.67 277.34,421.77 277.34,421.84 C 277.34,421.95 277.34,422.05 277.36,422.15 C 277.39,422.25 277.44,422.35 277.49,422.45 C 277.62,422.63 277.82,422.79 278,422.86 C 278.13,422.89 278.23,422.91 278.36,422.91 C 278.46,422.94 278.84,422.89 278.95,422.84 C 279.02,422.79 279.1,422.76 279.17,422.68 C 279.25,422.61 279.3,422.55 279.36,422.48 C 279.45,422.33 279.48,422.15 279.5,422 C 279.5,421.89 279.54,421.75 279.54,421.67 C 279.56,421.67 279.99,421.59 280.09,421.59 C 280.17,421.59 280.65,421.54 280.73,421.52 C 280.83,421.49 281.39,421.21 281.52,421.11 C 281.7,420.93 282.39,420.35 282.72,420.02 C 282.93,419.87 283.16,419.62 283.36,419.46 C 283.44,419.39 283.84,419.04 283.92,418.94 C 284,418.86 284.07,418.76 284.15,418.66 C 284.2,418.55 284.23,418.43 284.25,418.3 C 284.28,418.23 284.28,418.12 284.28,418.02 C 284.28,417.95 284.25,417.87 284.23,417.8 C 284.23,417.67 284.2,417.62 284.12,417.54 L 284.12,417.54 L 285.1,416.91 L 285.14,416.98 L 285.14,416.98 C 285.27,417.16 285.43,417.37 285.55,417.49 C 285.58,417.54 285.71,417.64 285.73,417.67 C 285.76,417.7 285.79,417.75 285.79,417.77 C 285.79,417.82 285.79,417.85 285.76,417.87 C 285.71,417.97 285.6,418.02 285.45,418.07 C 285.4,418.1 285.32,418.12 285.25,418.15 L 285.25,418.15 L 284.82,418.3 L 284.82,418.3 C 284.79,418.33 284.73,418.33 284.71,418.38 C 284.63,418.45 284.63,418.63 284.71,418.71 C 284.77,418.73 284.79,418.76 284.84,418.78 L 284.84,418.78 L 288.82,418.86 L 289.36,418.84 L 289.36,418.84 C 289.41,418.78 289.54,418.61 289.54,418.55 C 289.56,418.5 289.56,418.43 289.54,418.38 C 289.54,418.33 289.48,418.28 289.46,418.25 L 289.46,418.25 L 289.36,418.12 L 289.36,418.12 C 289.3,418.1 289.28,418.05 289.25,418 C 289.25,417.97 289.25,417.95 289.25,417.92 C 289.25,417.87 289.25,417.85 289.28,417.82 C 289.3,417.8 289.36,417.77 289.38,417.75 C 289.51,417.67 289.66,417.52 289.77,417.42 C 289.89,417.32 289.96,417.16 290.05,417.01 C 290.1,416.93 290.14,416.83 290.17,416.73 C 290.17,416.71 290.17,416.66 290.2,416.63 C 290.22,416.63 290.3,416.63 290.3,416.63 C 290.35,416.63 290.38,416.63 290.4,416.61 C 290.43,416.61 290.45,416.58 290.48,416.56 C 290.48,416.53 290.48,416.43 290.48,416.43 L 290.48,416.43 L 290.48,414.73 L 290.48,414.73 C 290.48,414.71 290.48,414.63 290.45,414.61 C 290.43,414.58 290.4,414.55 290.38,414.53 C 290.35,414.53 290.3,414.53 290.25,414.53 C 290.22,414.53 290.17,414.53 290.14,414.53 C 290.1,414.55 290.07,414.58 290.02,414.58 C 290.02,414.61 289.99,414.61 289.96,414.61 C 289.96,414.58 289.94,414.55 289.94,414.5 C 289.59,413.67 288.62,412.98 287.64,412.98 C 286.47,412.98 285.38,413.72 285.1,414.94 C 285.07,414.96 285.07,415.01 285.04,415.04 L 285.04,415.04 L 282.9,414.2 z "
   style="fill:black;fill-rule:nonzero;stroke-width:0"
   id="path20" />
<path
   d="M 314.56,414.77 L 312.31,414.72 L 312.33,413.89 L 312.71,413.91 L 312.71,413.66 L 311.68,413.64 L 311.66,413.89 L 312.01,413.91 L 311.98,414.72 L 311.53,414.72 L 311.53,414.72 C 311.38,414.72 311.23,414.72 311.11,414.77 C 310.63,414.92 310.26,415.29 310.21,415.8 C 310.18,416.15 310.33,416.5 310.58,416.75 C 310.61,416.78 310.66,416.8 310.66,416.82 L 310.66,416.82 L 310.38,417.23 L 310.5,417.45 L 310.5,417.45 C 310.53,417.55 310.61,417.68 310.61,417.78 L 310.61,417.78 L 308.68,418.96 L 308.68,418.96 C 308.61,419.01 308.48,419.09 308.4,419.16 C 308.32,419.21 308.25,419.29 308.2,419.36 C 308.13,419.44 307.98,419.86 307.98,419.94 L 307.98,419.94 L 307.58,419.16 L 307.58,419.16 L 307.68,419.11 C 308.28,418.63 308.48,418.46 308.73,418.01 C 309.05,417.5 309.2,416.93 309.25,416.32 C 309.25,416.32 309.18,416.25 309.16,416.25 L 309.16,416.25 L 308.98,416.23 L 308.98,416.23 C 309.03,414.02 306.85,412.46 304.77,413.18 C 302.75,413.91 302.02,416.42 303.35,418.13 L 303.35,418.13 L 303.22,418.23 L 303.22,418.23 C 303.14,418.29 303.1,418.36 303.14,418.41 L 303.14,418.41 L 303.25,418.51 L 303.25,418.51 C 303.42,418.68 303.7,418.94 303.92,419.09 C 304.27,419.31 304.65,419.49 305.05,419.56 C 305.72,419.71 306.4,419.66 307.05,419.41 C 307.1,419.41 307.18,419.39 307.23,419.36 L 307.23,419.36 L 307.7,420.37 L 307.7,420.37 C 307.68,420.37 307.2,420.24 307.15,420.24 C 307.13,420.24 307.08,420.24 307.05,420.27 C 307.03,420.29 307,420.32 307,420.37 L 307,420.37 L 307,421.12 L 307,421.07 L 307,421.07 C 307,421.07 306.98,421.22 307.05,421.3 C 307.08,421.32 307.15,421.35 307.2,421.35 C 307.32,421.35 307.45,421.32 307.58,421.3 L 307.58,421.3 L 308.11,421.2 L 308.32,421.7 L 308.32,421.7 C 308.08,421.7 307.77,422 307.77,422.33 C 307.77,422.58 307.82,422.88 308.13,422.88 C 308.2,422.88 308.35,422.9 308.43,422.9 L 308.43,422.9 L 310.78,422.88 L 310.78,422.58 L 308.4,422.58 L 308.4,422.58 C 308.23,422.58 308.11,422.48 308.11,422.35 C 308.11,422.12 308.2,422.07 308.32,422.05 L 308.32,422.05 L 308.9,421.9 L 308.53,421.1 L 308.53,421.1 C 308.58,421.12 308.95,421.22 309.16,421.2 C 309.48,421.14 309.78,421.07 310.11,420.84 C 310.5,420.59 310.81,420.09 310.88,419.71 L 310.88,419.71 L 310.91,419.11 L 310.91,419.11 C 310.91,418.99 310.93,418.86 310.98,418.73 C 311.11,418.48 311.41,418.26 311.73,418.08 C 311.91,418.01 312.26,417.93 312.46,417.88 C 312.63,417.86 313.06,417.7 313.13,417.83 L 313.13,417.83 L 314.96,421.38 L 314.96,421.38 C 314.91,421.38 314.51,421.47 314.38,421.52 C 314.16,421.62 313.86,421.75 313.81,421.98 C 313.73,422.18 313.96,422.45 314.21,422.38 C 314.49,422.38 314.89,422.2 315.21,422.2 C 315.49,422.18 316.04,422.25 316.32,422.25 C 316.64,422.25 316.77,421.75 316.59,421.52 C 316.54,421.4 316.32,421.22 316.06,421.17 C 315.91,421.14 315.54,421.17 315.51,421.22 L 315.51,421.22 L 316.29,419.46 L 316.29,419.46 C 316.36,419.49 316.46,419.54 316.56,419.56 C 316.89,419.64 317.27,419.66 317.61,419.64 C 318.49,419.56 319.32,419.14 319.92,418.48 C 320.19,418.21 320.42,417.86 320.52,417.48 C 320.55,417.43 320.55,417.38 320.55,417.38 L 320.55,417.38 L 320.92,417.35 L 320.92,417.35 C 320.95,417.35 321.05,417.35 321.07,417.33 C 321.1,417.3 321.1,417.25 321.1,417.2 L 321.1,417.2 L 321.1,415.77 L 321.1,415.77 C 321.1,415.72 321.1,415.67 321.05,415.64 L 321.05,415.64 L 320.5,415.52 L 320.5,415.52 C 320.09,414.21 318.94,413.29 317.59,413.18 C 316.36,413.11 315.21,413.71 314.56,414.77 z "
   style="fill:black;fill-rule:nonzero;stroke-width:0"
   id="path22" />
<path
   d="M 304.42,438.94 L 304.42,436.52 L 304.42,436.52 C 304.42,436.48 304.42,436.44 304.42,436.39 C 304.41,436.35 304.41,436.29 304.38,436.25 C 304.35,436.22 304.3,436.2 304.26,436.18 C 304.21,436.17 304.16,436.16 304.11,436.16 L 304.11,436.16 L 303.16,436.16 L 303.16,436.16 C 303.13,436.16 303.08,436.17 303.04,436.18 C 303,436.19 302.95,436.21 302.93,436.24 C 302.91,436.27 302.89,436.31 302.89,436.34 C 302.88,436.39 302.87,436.44 302.87,436.49 L 302.87,436.49 L 302.87,438.7 L 302.87,438.7 C 302.82,438.69 302.72,438.67 302.67,438.66 C 301.82,438.53 300.42,438.49 299.56,438.47 C 299.06,438.46 296.89,438.41 296.39,438.41 C 295.42,438.41 294.39,438.44 293.43,438.48 C 292.53,438.51 291.28,438.58 290.38,438.62 L 290.38,438.62 L 290.18,438.64 L 290.18,436.55 L 290.18,436.39 L 290.18,436.39 C 290.17,436.34 290.15,436.28 290.11,436.24 C 290.08,436.2 290.04,436.18 290,436.17 C 289.98,436.16 289.85,436.16 289.83,436.16 L 289.83,436.16 L 288.94,436.16 L 288.94,436.16 C 288.93,436.16 288.84,436.16 288.83,436.17 C 288.78,436.18 288.73,436.2 288.69,436.24 C 288.66,436.28 288.64,436.34 288.64,436.39 C 288.64,436.41 288.64,436.52 288.64,436.54 L 288.64,436.54 L 288.64,438.96 L 288,438.96 L 288,438.96 C 287.98,438.96 287.87,438.96 287.85,438.96 C 287.8,438.97 287.75,439 287.71,439.04 C 287.67,439.07 287.65,439.12 287.64,439.17 C 287.62,439.23 287.62,439.35 287.62,439.41 C 287.64,439.66 287.63,440.02 287.62,440.27 C 287.61,440.55 287.59,440.95 287.56,441.23 C 287.53,441.6 287.47,441.97 287.38,442.33 C 287.36,442.4 287.3,442.6 287.29,442.68 C 287.26,442.85 287.27,443.02 287.3,443.19 C 287.33,443.38 287.38,443.56 287.47,443.73 C 287.61,443.99 287.82,444.21 288.07,444.38 C 288.25,444.5 288.45,444.6 288.66,444.64 C 288.7,444.65 288.75,444.66 288.79,444.66 L 288.79,444.66 L 291.32,447.98 L 291.32,447.98 C 291.35,448.01 291.38,448.05 291.41,448.08 C 291.45,448.11 291.49,448.15 291.54,448.17 C 291.6,448.2 291.68,448.21 291.74,448.21 C 291.77,448.21 291.87,448.21 291.89,448.21 L 291.89,448.21 L 301.09,448.21 L 301.09,448.21 C 301.14,448.21 301.2,448.21 301.25,448.21 C 301.31,448.21 301.38,448.2 301.43,448.17 C 301.49,448.15 301.54,448.11 301.58,448.07 C 301.59,448.06 301.68,447.95 301.68,447.94 L 301.68,447.94 L 304.29,444.63 L 304.29,444.63 C 304.34,444.62 304.42,444.59 304.47,444.57 C 304.65,444.52 304.82,444.43 304.97,444.33 C 305.18,444.18 305.35,443.98 305.47,443.77 C 305.61,443.54 305.69,443.28 305.7,443.02 C 305.71,442.82 305.64,442.42 305.61,442.22 C 305.56,442 305.52,441.76 305.5,441.54 C 305.46,441.31 305.43,441.05 305.41,440.82 C 305.39,440.61 305.38,440.39 305.37,440.19 C 305.36,439.96 305.37,439.73 305.39,439.51 C 305.39,439.45 305.41,439.32 305.4,439.25 C 305.4,439.18 305.38,439.11 305.34,439.05 C 305.31,439 305.26,438.96 305.2,438.95 C 305.18,438.94 305.09,438.94 305.06,438.94 L 305.06,438.94 L 304.42,438.94 z "
   style="fill:black;fill-rule:nonzero;stroke-width:0"
   id="path24" />
<path
   d="M 289.12,443.75 L 289.18,443.75 L 289.24,443.75 L 289.3,443.74 L 289.35,443.73 L 289.41,443.72 L 289.47,443.71 L 289.52,443.69 L 289.57,443.67 L 289.62,443.65 L 289.68,443.62 L 289.72,443.59 L 289.77,443.56 L 289.82,443.53 L 289.86,443.5 L 289.91,443.46 L 289.95,443.43 L 289.99,443.39 L 290.02,443.35 L 290.06,443.3 L 290.09,443.26 L 290.12,443.21 L 290.15,443.17 L 290.18,443.12 L 290.2,443.07 L 290.22,443.01 L 290.24,442.96 L 290.26,442.91 L 290.27,442.85 L 290.28,442.8 L 290.29,442.74 L 290.3,442.68 L 290.3,442.62 C 290.3,441.98 289.76,441.46 289.1,441.47 C 288.46,441.48 287.95,441.99 287.96,442.62 C 287.96,443.24 288.48,443.75 289.12,443.75 z "
   style="fill:white;fill-rule:nonzero;stroke:white;stroke-width:0"
   id="path26" />
<path
   d="M 294.24,442.61 L 294.24,440.03 L 290.87,440.03 L 290.87,440.03 C 290.85,440.03 290.75,440.03 290.73,440.03 C 290.62,440.04 290.5,440.07 290.43,440.16 C 290.36,440.23 290.33,440.33 290.34,440.43 C 290.35,440.49 290.36,440.55 290.39,440.6 L 290.39,440.6 L 291.46,442.38 L 291.46,442.38 C 291.48,442.41 291.51,442.46 291.54,442.49 C 291.57,442.54 291.62,442.57 291.69,442.59 C 291.74,442.61 291.83,442.61 291.89,442.61 L 291.89,442.61 L 292.04,442.61 L 294.24,442.61 z "
   style="fill:white;fill-rule:nonzero;stroke:white;stroke-width:0"
   id="path28" />
<polygon
   points="294.5,442.61 298.55,442.61 298.55,440.03 294.5,440.03 294.5,442.61 "
   style="fill:white;fill-rule:nonzero;stroke:white;stroke-width:0"
   id="polygon30" />
<path
   d="M 298.82,442.61 L 300.97,442.61 L 300.97,442.61 C 301.03,442.61 301.11,442.61 301.16,442.61 C 301.23,442.61 301.32,442.6 301.39,442.57 C 301.44,442.54 301.49,442.5 301.52,442.45 C 301.54,442.43 301.58,442.37 301.59,442.34 L 301.59,442.34 L 302.64,440.62 L 302.64,440.62 C 302.66,440.58 302.69,440.53 302.7,440.49 C 302.73,440.39 302.71,440.29 302.66,440.21 C 302.61,440.11 302.52,440.05 302.41,440.03 C 302.39,440.03 302.23,440.03 302.2,440.03 L 302.2,440.03 L 298.82,440.03 L 298.82,442.61 z "
   style="fill:white;fill-rule:nonzero;stroke:white;stroke-width:0"
   id="path32" />
<path
   d="M 303.92,443.76 L 303.98,443.76 L 304.04,443.75 L 304.1,443.75 L 304.15,443.74 L 304.21,443.72 L 304.26,443.71 L 304.32,443.69 L 304.37,443.67 L 304.42,443.64 L 304.47,443.62 L 304.52,443.59 L 304.57,443.56 L 304.61,443.53 L 304.66,443.49 L 304.7,443.46 L 304.74,443.42 L 304.78,443.38 L 304.81,443.34 L 304.85,443.29 L 304.88,443.25 L 304.91,443.2 L 304.94,443.15 L 304.96,443.1 L 304.99,443.05 L 305.01,443 L 305.02,442.95 L 305.04,442.89 L 305.05,442.84 L 305.06,442.78 L 305.07,442.72 L 305.07,442.66 L 305.07,442.61 C 305.07,441.96 304.53,441.45 303.88,441.46 C 303.24,441.46 302.72,441.97 302.71,442.6 C 302.71,443.25 303.25,443.77 303.92,443.76 z "
   style="fill:white;fill-rule:nonzero;stroke:white;stroke-width:0"
   id="path34" />
<path
   d="M 303.54,444.53 L 303.53,444.53 L 303.53,444.53 L 303.52,444.53 L 303.52,444.53 L 303.51,444.53 L 303.51,444.53 L 303.5,444.53 L 303.5,444.53 L 303.49,444.53 L 303.47,444.53 L 303.46,444.53 L 303.45,444.53 L 303.44,444.53 L 303.42,444.53 L 303.41,444.53 L 303.4,444.53 L 303.39,444.53 L 303.38,444.53 L 303.38,444.53 L 303.37,444.53 L 303.36,444.53 L 303.36,444.53 L 303.36,444.53 L 303.36,444.53 L 300,444.79 L 300,444.79 C 298.96,444.87 297.22,444.87 296.18,444.86 C 295.31,444.86 293.7,444.84 292.83,444.81 L 292.83,444.81 L 289.68,444.61 L 289.68,444.61 C 289.62,444.6 289.56,444.6 289.5,444.6 L 289.5,444.6 L 291.66,447.37 L 291.66,447.37 C 291.68,447.39 291.7,447.43 291.73,447.45 C 291.76,447.48 291.81,447.52 291.86,447.53 C 291.91,447.55 291.98,447.56 292.03,447.56 C 292.07,447.57 292.12,447.57 292.17,447.57 L 292.17,447.57 L 300.83,447.57 L 300.83,447.57 C 300.88,447.57 300.94,447.57 300.98,447.56 C 301.04,447.56 301.09,447.55 301.14,447.54 C 301.19,447.52 301.24,447.5 301.27,447.46 C 301.3,447.44 301.34,447.4 301.37,447.36 L 301.37,447.36 L 303.54,444.53 z "
   style="fill:white;fill-rule:nonzero;stroke:white;stroke-width:0"
   id="path36" />
<path
   d="M 308.27,416.01 L 306.41,416.01 L 306.41,416.01 C 306.41,415.76 306.09,415.54 305.79,415.54 C 305.34,415.54 304.96,416.06 305.19,416.44 C 305.19,416.49 305.23,416.54 305.26,416.59 L 305.26,416.59 L 304.21,418.1 L 304.21,418.1 C 302.78,416.87 303.21,414.55 304.96,413.9 C 306.49,413.32 308.14,414.38 308.27,416.01 z "
   style="fill:white;fill-rule:nonzero;stroke:white;stroke-width:0"
   id="path38" />
<path
   d="M 306.32,416.56 L 307.15,418.26 L 307.15,418.26 C 307.18,418.24 307.23,418.21 307.25,418.19 C 307.55,418.01 307.77,417.74 307.95,417.46 C 308.13,417.16 308.23,416.81 308.25,416.48 C 308.28,416.43 308.28,416.38 308.28,416.36 L 308.28,416.36 L 306.45,416.3 L 306.45,416.3 C 306.45,416.33 306.45,416.38 306.43,416.46 C 306.4,416.51 306.35,416.56 306.32,416.56 z "
   style="fill:white;fill-rule:nonzero;stroke:white;stroke-width:0"
   id="path40" />
<path
   d="M 305.52,416.75 L 304.45,418.26 L 304.45,418.26 C 304.5,418.29 304.52,418.31 304.57,418.34 C 304.87,418.51 305.22,418.61 305.57,418.66 C 305.95,418.69 306.35,418.66 306.7,418.51 C 306.73,418.49 306.77,418.46 306.8,418.46 L 306.8,418.46 L 306,416.78 L 306,416.78 C 305.97,416.78 305.89,416.83 305.77,416.83 C 305.7,416.83 305.6,416.83 305.52,416.75 z "
   style="fill:white;fill-rule:nonzero;stroke:white;stroke-width:0"
   id="path42" />
<path
   d="M 313.63,417.15 L 315.26,420.79 L 315.94,419.31 L 315.94,419.31 C 315.91,419.29 315.86,419.26 315.84,419.23 C 315.44,419.04 315.11,418.76 314.81,418.43 C 314.51,418.08 314.23,417.68 314.13,417.23 C 314.13,417.2 314.11,417.15 314.11,417.12 L 314.11,417.12 L 313.63,417.15 z "
   style="fill:white;fill-rule:nonzero;stroke:white;stroke-width:0"
   id="path44" />
<path
   d="M 316.33,418.43 L 316.88,417.12 L 316.88,417.12 C 316.88,417.12 316.88,417.09 316.86,417.09 C 316.78,417.09 316.63,416.92 316.63,416.82 L 316.63,416.82 L 315.05,416.82 L 315.05,416.82 C 315.1,417.22 315.28,417.62 315.53,417.92 C 315.75,418.15 316.03,418.32 316.33,418.43 z "
   style="fill:white;fill-rule:nonzero;stroke:white;stroke-width:0"
   id="path46" />
<path
   d="M 319.82,416.51 L 318.34,416.53 L 318.34,416.53 C 318.34,416.56 318.24,416.86 317.99,417.06 C 317.79,417.21 317.54,417.23 317.29,417.23 L 317.29,417.23 L 316.69,418.57 L 316.69,418.57 C 317.39,418.79 318.16,418.67 318.77,418.24 C 319.37,417.84 319.74,417.21 319.82,416.51 z "
   style="fill:white;fill-rule:nonzero;stroke:white;stroke-width:0"
   id="path48" />
<path
   d="M 317.41,415.18 L 317.41,415.01 L 318.24,415.01 L 318.24,414.76 L 315.51,414.76 L 315.51,414.76 C 315.54,414.71 315.56,414.66 315.58,414.63 C 316.23,413.78 317.41,413.6 318.39,414.03 C 319.21,414.38 319.79,415.16 319.82,416.06 C 319.82,416.11 319.82,416.16 319.82,416.19 L 319.82,416.19 L 318.36,416.19 L 318.36,416.19 C 318.36,415.91 318.26,415.66 318.09,415.46 C 317.91,415.28 317.66,415.18 317.41,415.18 z "
   style="fill:white;fill-rule:nonzero;stroke:white;stroke-width:0"
   id="path50" />
<path
   d="M 278.2,418.23 L 276.59,418.23 L 276.59,418.23 C 276.54,418.23 276.75,418.5 276.88,418.61 C 277,418.71 277.15,418.71 277.28,418.71 C 277.43,418.71 277.59,418.68 277.74,418.61 C 277.87,418.53 278,418.43 278.1,418.33 C 278.12,418.3 278.17,418.25 278.2,418.23 z "
   style="fill:white;fill-rule:nonzero;stroke:white;stroke-width:0"
   id="path52" />
<path
   d="M 275.23,415.89 L 275.54,416.35 L 275.54,416.35 C 275.77,416.12 275.9,415.82 275.87,415.54 C 275.87,415.23 275.74,414.96 275.54,414.75 C 275.31,414.53 275.03,414.43 274.72,414.43 C 274.42,414.43 274.11,414.55 273.91,414.78 C 273.7,414.98 273.6,415.26 273.6,415.54 C 273.57,415.84 273.7,416.12 273.93,416.35 C 274.14,416.55 274.67,416.63 274.67,416.63 L 274.67,416.63 L 274.7,416.12 L 274.7,416.12 C 274.67,416.12 274.47,416.07 274.42,416.05 C 274.37,416 274.32,415.97 274.29,415.92 C 274.19,415.82 274.14,415.69 274.14,415.54 C 274.14,415.39 274.16,415.23 274.29,415.11 C 274.39,414.98 274.57,414.93 274.72,414.93 C 274.98,414.93 275.23,415.01 275.34,415.36 C 275.36,415.51 275.29,415.77 275.29,415.84 C 275.26,415.87 275.26,415.87 275.23,415.89 z "
   style="fill:white;fill-rule:nonzero;stroke:white;stroke-width:0"
   id="path54" />
<path
   d="M 279.11,415.74 L 278.42,416.82 L 278.42,416.82 C 278.35,417.01 278.35,417.23 278.48,417.38 C 278.57,417.48 278.75,417.48 278.91,417.33 C 279.11,417.13 279.19,416.73 279.19,416.55 C 279.19,416.35 279.11,416.02 279.11,415.74 z "
   style="fill:white;fill-rule:nonzero;stroke:white;stroke-width:0"
   id="path56" />
<path
   d="M 282.73,415.41 L 282.02,415.49 L 282.02,415.49 C 282.04,415.51 282.14,415.77 282.2,415.84 C 282.27,416.02 282.45,416.17 282.63,416.35 C 282.84,416.55 283.07,416.65 283.27,416.78 L 283.27,416.78 L 282.73,415.41 z "
   style="fill:white;fill-rule:nonzero;stroke:white;stroke-width:0"
   id="path58" />
<path
   d="M 287.05,415.79 L 287.05,415.78 L 287.04,415.76 L 287.03,415.75 L 287.03,415.73 L 287.02,415.71 L 287.02,415.7 L 287.01,415.68 L 287.01,415.66 L 287,415.65 L 287,415.63 L 287,415.61 L 286.99,415.59 L 286.99,415.58 L 286.99,415.56 L 286.99,415.54 L 286.99,415.52 C 286.99,415.21 287.25,414.95 287.56,414.95 C 287.81,414.95 288.02,415.11 288.1,415.32 L 288.1,415.32 L 288.58,415.09 L 288.58,415.09 C 288.4,414.71 288.02,414.43 287.56,414.43 C 286.95,414.43 286.46,414.91 286.46,415.52 C 286.46,415.72 286.49,415.87 286.59,416.02 L 286.59,416.02 L 287.05,415.79 z "
   style="fill:white;fill-rule:nonzero;stroke:white;stroke-width:0"
   id="path60" />
<path
   d="M 288.11,415.73 L 288.21,415.75 L 288.62,415.86 L 288.62,415.86 C 288.47,416.29 288.06,416.61 287.57,416.61 C 287.45,416.61 287.32,416.59 287.22,416.56 L 287.22,416.56 L 287.22,416.56 L 287.42,416.08 L 287.42,416.08 C 287.48,416.08 287.52,416.08 287.57,416.08 C 287.8,416.08 288.01,415.93 288.11,415.73 z "
   style="fill:white;fill-rule:nonzero;stroke:white;stroke-width:0"
   id="path62" />
</g>  </g>
</svg>
