<?xml version="1.0" encoding="UTF-8" standalone="no"?>
<!DOCTYPE svg PUBLIC "-//W3C//DTD SVG 1.0//EN" "http://www.w3.org/TR/2001/REC-SVG-20010904/DTD/svg10.dtd">
<svg
   xmlns:svg="http://www.w3.org/2000/svg"
   xmlns="http://www.w3.org/2000/svg"
   version="1.0"
   width="106.29932"
   height="106.29932"
   id="svg1897">
  <defs
     id="defs1899" />
  <g
     transform="translate(-301.1361,-364.9268)"
     id="layer1">
    <g
       transform="matrix(1.249992,0,0,-1.249992,-16.36191,949.1106)"
       style="font-style:normal;font-variant:normal;font-weight:normal;font-stretch:normal;letter-spacing:normal;word-spacing:normal;text-anchor:start;fill:none;fill-opacity:1;stroke:black;stroke-linecap:butt;stroke-linejoin:miter;stroke-miterlimit:10.43299961;stroke-dasharray:none;stroke-dashoffset:0;stroke-opacity:1"
       id="g10"
       xml:space="preserve">
<path
   d="M 296.52,467.35 L 298.71,467.3 L 300.87,467.13 L 303,466.86 L 305.09,466.49 L 307.15,466.01 L 309.17,465.44 L 311.14,464.77 L 313.07,464.01 L 314.96,463.16 L 316.79,462.22 L 318.57,461.2 L 320.3,460.09 L 321.96,458.9 L 323.57,457.64 L 325.11,456.3 L 326.59,454.9 L 328,453.42 L 329.33,451.88 L 330.6,450.27 L 331.78,448.6 L 332.89,446.88 L 333.91,445.1 L 334.85,443.26 L 335.7,441.38 L 336.46,439.45 L 337.13,437.47 L 337.7,435.45 L 338.18,433.4 L 338.55,431.3 L 338.82,429.18 L 338.99,427.02 L 339.04,424.83 C 339.04,401.35 320.01,382.31 296.52,382.31 C 273.04,382.31 254,401.35 254,424.83 C 254,448.31 273.04,467.35 296.52,467.35 z "
   style="fill:#ff1721;fill-rule:nonzero;stroke:#ff1721;stroke-width:0"
   id="path12" />
<path
   d="M 296.53,453.18 L 297.25,453.17 L 297.96,453.15 L 298.68,453.1 L 299.38,453.04 L 300.09,452.96 L 300.79,452.87 L 301.48,452.76 L 302.17,452.62 L 302.86,452.48 L 303.54,452.31 L 304.22,452.13 L 304.9,451.93 L 305.57,451.71 L 306.23,451.48 L 306.9,451.23 L 307.55,450.96 C 310.95,449.52 313.95,447.5 316.57,444.88 C 319.19,442.26 321.22,439.25 322.65,435.86 C 324.13,432.36 324.87,428.68 324.87,424.83 C 324.87,420.98 324.13,417.3 322.65,413.8 C 321.22,410.41 319.19,407.41 316.57,404.79 C 313.95,402.17 310.95,400.14 307.55,398.71 C 304.05,397.23 300.38,396.49 296.53,396.49 C 292.68,396.49 289,397.23 285.5,398.71 C 282.11,400.14 279.1,402.17 276.48,404.79 C 273.86,407.41 271.84,410.41 270.4,413.8 C 268.92,417.3 268.18,420.98 268.18,424.83 C 268.18,428.68 268.92,432.36 270.4,435.86 C 271.84,439.25 273.86,442.26 276.48,444.88 C 279.1,447.5 282.11,449.52 285.5,450.96 C 289,452.44 292.68,453.18 296.53,453.18 z "
   style="fill:white;fill-rule:nonzero;stroke:white;stroke-width:0"
   id="path14" />
<path
   d="M 313.61,418.68 L 313.61,413.57 L 313.61,413.57 C 313.61,413.44 313.61,413.37 313.61,413.3 C 313.61,413.18 313.55,413.05 313.48,412.98 C 313.48,412.92 313.35,412.85 313.28,412.85 C 313.15,412.79 313.01,412.79 312.95,412.79 L 312.95,412.79 L 310.93,412.79 L 310.93,412.79 C 310.8,412.79 310.73,412.79 310.66,412.79 C 310.53,412.85 310.46,412.85 310.39,412.98 C 310.32,412.98 310.32,413.11 310.32,413.18 C 310.26,413.24 310.26,413.37 310.26,413.5 L 310.26,413.5 L 310.26,418.16 L 310.26,418.16 C 310.12,418.1 309.93,418.1 309.86,418.1 C 307.98,417.77 305.02,417.71 303.14,417.64 C 302.07,417.64 297.37,417.52 296.29,417.52 C 294.21,417.52 292,417.58 289.91,417.71 C 287.96,417.77 285.35,417.9 283.4,417.97 L 283.4,417.97 L 282.93,418.03 L 282.93,413.63 L 282.93,413.24 L 282.93,413.24 C 282.93,413.18 282.86,413.05 282.8,412.92 C 282.73,412.85 282.66,412.79 282.53,412.79 L 282.19,412.79 L 282.19,412.79 L 280.25,412.79 L 280.25,412.79 L 280.05,412.79 C 279.91,412.79 279.84,412.85 279.71,412.92 C 279.64,413.05 279.64,413.18 279.64,413.24 C 279.64,413.3 279.64,413.57 279.64,413.57 L 279.64,413.57 L 279.64,418.68 L 278.23,418.68 L 278.23,418.68 C 278.23,418.68 277.96,418.68 277.89,418.68 C 277.83,418.75 277.7,418.81 277.62,418.88 C 277.56,418.94 277.49,419.07 277.49,419.13 C 277.43,419.27 277.43,419.52 277.43,419.65 C 277.49,420.17 277.43,420.95 277.43,421.46 C 277.43,422.05 277.36,422.89 277.29,423.54 C 277.22,424.32 277.09,425.09 276.89,425.8 C 276.89,426 276.75,426.38 276.75,426.58 C 276.69,426.9 276.69,427.29 276.75,427.68 C 276.82,428.07 276.96,428.46 277.09,428.78 C 277.43,429.37 277.89,429.82 278.43,430.14 C 278.77,430.4 279.24,430.66 279.64,430.72 C 279.77,430.72 279.84,430.72 279.98,430.79 L 279.98,430.79 L 285.42,437.78 L 285.42,437.78 C 285.48,437.85 285.55,437.91 285.62,437.98 C 285.68,438.04 285.75,438.17 285.88,438.17 C 286.02,438.23 286.16,438.3 286.29,438.3 C 286.36,438.3 286.56,438.3 286.62,438.3 L 286.62,438.3 L 306.43,438.3 L 306.43,438.3 C 306.57,438.3 306.7,438.3 306.77,438.3 C 306.9,438.23 307.04,438.23 307.17,438.17 C 307.3,438.17 307.37,438.04 307.51,437.98 L 307.71,437.72 L 307.71,437.72 L 313.35,430.72 L 313.35,430.72 C 313.41,430.66 313.61,430.59 313.68,430.59 C 314.09,430.46 314.42,430.27 314.76,430.07 C 315.23,429.75 315.56,429.37 315.83,428.85 C 316.17,428.39 316.3,427.81 316.37,427.29 C 316.37,426.84 316.23,426 316.17,425.61 C 316.04,425.15 315.96,424.64 315.9,424.18 C 315.83,423.67 315.77,423.15 315.77,422.63 C 315.7,422.18 315.63,421.72 315.63,421.27 C 315.63,420.82 315.63,420.36 315.7,419.85 C 315.7,419.72 315.7,419.46 315.7,419.33 C 315.7,419.2 315.7,419 315.56,418.88 C 315.5,418.81 315.43,418.68 315.3,418.68 C 315.23,418.68 315.03,418.68 314.96,418.68 L 314.96,418.68 L 313.61,418.68 z "
   style="fill:black;fill-rule:nonzero;stroke-width:0"
   id="path16" />
<path
   d="M 280.62,428.82 L 280.75,428.82 L 280.87,428.81 L 280.99,428.79 L 281.11,428.77 L 281.23,428.75 L 281.35,428.72 L 281.46,428.68 L 281.58,428.64 L 281.69,428.59 L 281.79,428.54 L 281.9,428.48 L 282,428.42 L 282.1,428.35 L 282.19,428.28 L 282.28,428.21 L 282.37,428.13 L 282.45,428.05 L 282.53,427.96 L 282.6,427.87 L 282.67,427.78 L 282.74,427.68 L 282.8,427.58 L 282.86,427.48 L 282.91,427.37 L 282.95,427.26 L 282.99,427.15 L 283.03,427.03 L 283.05,426.92 L 283.08,426.8 L 283.09,426.67 L 283.1,426.55 L 283.11,426.42 C 283.11,425.06 281.96,423.96 280.55,424.03 C 279.21,424.03 278.07,425.13 278.07,426.42 C 278.14,427.72 279.21,428.82 280.62,428.82 z "
   style="fill:white;fill-rule:nonzero;stroke:white;stroke-width:0"
   id="path18" />
<path
   d="M 291.63,426.43 L 291.63,420.99 L 284.38,420.99 L 284.38,420.99 C 284.32,420.99 284.11,420.99 284.11,420.99 C 283.85,420.99 283.58,421.06 283.45,421.25 C 283.31,421.38 283.24,421.57 283.24,421.84 C 283.24,421.96 283.31,422.09 283.38,422.16 L 283.38,422.16 L 285.66,425.91 L 285.66,425.91 C 285.66,425.98 285.73,426.11 285.79,426.17 C 285.93,426.3 286,426.37 286.13,426.37 C 286.26,426.43 286.46,426.43 286.6,426.43 L 286.6,426.43 L 286.87,426.43 L 291.63,426.43 z "
   style="fill:white;fill-rule:nonzero;stroke:white;stroke-width:0"
   id="path20" />
<polygon
   points="292.18,426.43 300.91,426.43 300.91,420.99 292.18,420.99 292.18,426.43 "
   style="fill:white;fill-rule:nonzero;stroke:white;stroke-width:0"
   id="polygon22" />
<path
   d="M 301.51,426.43 L 306.14,426.43 L 306.14,426.43 C 306.27,426.43 306.48,426.43 306.54,426.43 C 306.68,426.43 306.88,426.37 307.01,426.3 C 307.15,426.3 307.28,426.17 307.35,426.11 C 307.35,426.04 307.41,425.91 307.48,425.85 L 307.48,425.85 L 309.77,422.22 L 309.77,422.22 C 309.77,422.16 309.84,422.03 309.84,421.96 C 309.9,421.7 309.9,421.51 309.77,421.32 C 309.7,421.12 309.5,420.99 309.23,420.99 C 309.16,420.99 308.83,420.99 308.76,420.99 L 308.76,420.99 L 301.51,420.99 L 301.51,426.43 z "
   style="fill:white;fill-rule:nonzero;stroke:white;stroke-width:0"
   id="path24" />
<path
   d="M 312.45,428.82 L 312.58,428.82 L 312.71,428.81 L 312.84,428.79 L 312.97,428.77 L 313.09,428.74 L 313.21,428.71 L 313.33,428.67 L 313.44,428.63 L 313.56,428.58 L 313.67,428.53 L 313.77,428.47 L 313.88,428.4 L 313.98,428.34 L 314.07,428.26 L 314.17,428.19 L 314.26,428.11 L 314.34,428.02 L 314.42,427.94 L 314.5,427.84 L 314.57,427.75 L 314.63,427.65 L 314.7,427.55 L 314.75,427.45 L 314.8,427.34 L 314.85,427.24 L 314.89,427.12 L 314.92,427.01 L 314.95,426.9 L 314.97,426.78 L 314.99,426.66 L 315,426.54 L 315,426.42 C 314.94,425.06 313.8,423.96 312.38,423.96 C 311.04,423.96 309.9,425.06 309.9,426.36 C 309.9,427.78 311.04,428.88 312.45,428.82 z "
   style="fill:white;fill-rule:nonzero;stroke:white;stroke-width:0"
   id="path26" />
<path
   d="M 311.63,430.5 L 311.63,430.5 L 311.62,430.5 L 311.61,430.5 L 311.6,430.5 L 311.59,430.5 L 311.58,430.5 L 311.57,430.5 L 311.56,430.5 L 311.55,430.5 L 311.54,430.5 L 311.53,430.5 L 311.51,430.5 L 311.5,430.5 L 311.49,430.5 L 311.46,430.5 L 311.43,430.5 L 311.4,430.5 L 311.37,430.5 L 311.34,430.5 L 311.31,430.5 L 311.28,430.5 L 311.27,430.5 L 311.26,430.5 L 311.24,430.5 L 311.23,430.5 L 311.23,430.5 L 304.05,431.02 L 304.05,431.02 C 301.76,431.21 298.07,431.21 295.79,431.15 C 293.91,431.15 290.48,431.15 288.61,431.09 L 288.61,431.09 L 281.82,430.63 L 281.42,430.63 L 286.05,436.46 L 286.05,436.46 C 286.12,436.53 286.19,436.59 286.19,436.66 C 286.32,436.72 286.39,436.79 286.52,436.85 C 286.59,436.85 286.72,436.91 286.86,436.91 C 286.99,436.91 287.06,436.91 287.2,436.91 L 287.2,436.91 L 305.8,436.91 L 305.8,436.91 C 305.93,436.91 306.06,436.91 306.13,436.91 C 306.26,436.91 306.4,436.85 306.54,436.85 C 306.6,436.79 306.67,436.79 306.8,436.72 C 306.87,436.66 306.94,436.53 307,436.46 L 307,436.46 L 311.63,430.5 z "
   style="fill:white;fill-rule:nonzero;stroke:white;stroke-width:0"
   id="path28" />
</g>  </g>
</svg>
