<?xml version="1.0" encoding="UTF-8" standalone="no"?>
<svg
   xmlns:dc="http://purl.org/dc/elements/1.1/"
   xmlns:cc="http://creativecommons.org/ns#"
   xmlns:rdf="http://www.w3.org/1999/02/22-rdf-syntax-ns#"
   xmlns:svg="http://www.w3.org/2000/svg"
   xmlns="http://www.w3.org/2000/svg"
   viewBox="0 0 113.38667 113.38667"
   height="113.38667"
   width="113.38667"
   xml:space="preserve"
   id="svg2"
   version="1.1"><metadata
     id="metadata8"><rdf:RDF><cc:Work
         rdf:about=""><dc:format>image/svg+xml</dc:format><dc:type
           rdf:resource="http://purl.org/dc/dcmitype/StillImage" /></cc:Work></rdf:RDF></metadata><defs
     id="defs6" /><g
     transform="matrix(1.3333333,0,0,-1.3333333,0,113.38667)"
     id="g10"><g
       transform="scale(0.1)"
       id="g12"><path
         id="path14"
         style="fill:#ee2c30;fill-opacity:1;fill-rule:nonzero;stroke:none"
         d="m 425.195,850.391 c 234.832,0 425.2,-190.368 425.2,-425.196 C 850.395,190.367 660.027,0 425.195,0 190.367,0 0,190.367 0,425.195 0,660.023 190.367,850.391 425.195,850.391 v 0" /><path
         id="path16"
         style="fill:#ffffff;fill-opacity:1;fill-rule:nonzero;stroke:none"
         d="m 425.234,708.695 c 38.512,0 75.274,-7.406 110.293,-22.215 33.899,-14.335 63.946,-34.609 90.149,-60.812 26.199,-26.195 46.469,-56.242 60.804,-90.141 14.813,-35.019 22.215,-71.789 22.215,-110.297 0,-38.507 -7.402,-75.273 -22.215,-110.292 -14.335,-33.899 -34.605,-63.946 -60.804,-90.149 -26.203,-26.199 -56.25,-46.469 -90.149,-60.805 -35.019,-14.808 -71.781,-22.214 -110.293,-22.214 -38.511,0 -75.273,7.406 -110.293,22.214 -33.894,14.336 -63.945,34.606 -90.144,60.805 -26.203,26.203 -46.473,56.25 -60.813,90.149 -14.808,35.019 -22.218,71.785 -22.218,110.292 0,38.508 7.41,75.278 22.218,110.297 14.34,33.899 34.61,63.946 60.813,90.141 26.199,26.203 56.25,46.477 90.144,60.812 35.02,14.809 71.782,22.215 110.293,22.215 v 0" /><path
         id="path18"
         style="fill:#231f20;fill-opacity:1;fill-rule:nonzero;stroke:none"
         d="m 484.984,372.594 -50.254,-1.078 0.543,-18.364 8.383,0.539 v -5.543 l -22.894,-0.574 -0.578,5.578 7.851,0.539 -0.574,17.825 h -10.043 v 0 c -3.352,0 -6.699,0 -9.508,1.078 -10.621,3.347 -18.969,11.699 -20.09,22.828 -0.574,7.769 2.778,15.586 8.356,21.125 0.578,0.543 1.691,1.121 1.691,1.66 v 0 l -6.152,8.926 2.805,5.008 v 0 c 0.539,2.195 2.234,5.004 2.234,7.195 v 0 l -43.024,26.172 v 0 c -1.656,1.117 -4.464,2.773 -6.117,4.43 -1.695,1.117 -3.351,2.808 -4.465,4.46 -1.695,1.661 -5.043,11.129 -5.043,12.786 v 0 l -8.925,-17.246 v 0 l 2.23,-1.114 c 13.395,-10.554 17.856,-14.437 23.438,-24.445 7.269,-11.125 10.621,-23.941 11.734,-37.297 0,0 -1.656,-1.656 -2.23,-1.656 v 0 l -3.887,-0.539 v 0 c 1.113,-48.957 -47.488,-83.449 -93.856,-67.324 -45.214,16.128 -61.414,71.75 -31.824,109.585 v 0 l -2.769,2.231 v 0 c -1.696,1.086 -2.805,2.773 -1.696,3.891 v 0 l 2.235,2.234 v 0 c 3.925,3.887 10.043,9.43 15.086,12.777 7.808,5.004 16.199,8.891 25.129,10.547 15.082,3.352 30.164,2.231 44.671,-3.308 1.118,0 2.813,-0.579 3.926,-1.122 v 0 l 10.586,22.25 v 0 c -0.543,0 -11.16,-2.769 -12.273,-2.769 -0.543,0 -1.664,0 -2.239,0.539 -0.539,0.578 -1.113,1.113 -1.113,2.23 v 16.668 -1.113 c 0,0 -0.543,3.348 1.113,5.039 0.575,0.539 2.239,1.078 3.352,1.078 2.805,0 5.578,-0.539 8.387,-1.078 v 0 l 11.734,-2.23 5.004,11.121 v 0 c -5.574,0 -12.277,6.66 -12.277,13.894 0,5.582 1.121,12.243 7.812,12.243 1.695,0 5.039,0.539 6.695,0.539 v 0 l 52.528,-0.539 v -6.661 h -53.063 v 0 c -3.925,0 -6.699,-2.23 -6.699,-5.039 0,-5.004 2.234,-6.082 5.004,-6.66 v 0 l 12.852,-3.347 -8.383,-17.786 v 0 c 1.113,0.539 9.5,2.774 13.965,2.235 7.269,-1.121 13.968,-2.809 21.238,-7.817 8.93,-5.539 15.625,-16.664 17.316,-25.015 v 0 l 0.539,-13.356 v 0 c 0,-2.773 0.578,-5.547 1.696,-8.316 2.769,-5.582 9.468,-10.586 16.738,-14.473 3.926,-1.656 11.734,-3.347 16.203,-4.469 3.887,-0.535 13.387,-3.886 15.082,-1.113 v 0 l 40.754,78.442 v 0 c -1.121,0 -10.047,2.234 -12.855,3.351 -5.004,2.195 -11.7,5.004 -12.817,10.012 -1.687,4.422 3.352,10.547 8.934,8.89 6.117,0 15.082,-3.89 22.316,-3.89 6.152,-0.578 18.434,1.117 24.586,1.117 7.273,0 10.043,-11.125 6.121,-16.129 -1.117,-2.808 -6.121,-6.695 -11.695,-7.812 -3.352,-0.543 -11.742,0 -12.317,1.117 v 0 l 17.317,-38.914 v 0 c 1.691,0.535 3.922,1.656 6.156,2.191 7.27,1.695 15.625,2.231 23.473,1.695 19.508,-1.695 37.941,-11.125 51.371,-25.597 6.121,-6.121 11.16,-13.895 13.39,-22.25 0.579,-1.113 0.579,-2.231 0.579,-2.231 v 0 l 8.347,-0.539 v 0 c 0.578,0 2.809,0 3.352,-0.574 0.578,-0.543 0.578,-1.656 0.578,-2.773 v -31.715 c 0,-1.082 0,-2.199 -1.121,-2.774 v 0 l -12.309,-2.773 v 0 c -8.929,-28.906 -34.594,-49.496 -64.765,-51.734 -27.36,-1.657 -53.063,11.707 -67.575,35.031 v 0" /><path
         id="path20"
         style="fill:#ffffff;fill-opacity:1;fill-rule:nonzero;stroke:none"
         d="m 344.625,400.207 h -41.328 v 0 c 0,-5.543 -7.238,-10.551 -13.934,-10.551 -10.082,0 -18.429,11.668 -13.425,20.016 0,1.121 1.113,2.23 1.691,3.351 v 0 l -23.473,33.368 v 0 c -31.828,-27.25 -22.32,-78.442 16.778,-92.914 34.05,-12.778 70.918,10.586 73.691,46.73 v 0" /><path
         id="path22"
         style="fill:#ffffff;fill-opacity:1;fill-rule:nonzero;stroke:none"
         d="m 301.313,412.125 18.433,37.797 v 0 c 0.543,-0.543 1.656,-1.117 2.231,-1.656 6.699,-3.887 11.738,-10.008 15.625,-16.125 3.925,-6.703 6.16,-14.473 6.699,-21.711 0.57,-1.117 0.57,-2.231 0.57,-2.774 v 0 l -40.75,-1.113 v 0 c 0,0.539 0,1.656 -0.57,3.344 -0.543,1.121 -1.66,2.238 -2.238,2.238 v 0" /><path
         id="path24"
         style="fill:#ffffff;fill-opacity:1;fill-rule:nonzero;stroke:none"
         d="m 283.316,416.586 -24.015,33.371 v 0 c 1.121,0.543 1.695,1.117 2.808,1.66 6.7,3.922 14.512,6.117 22.325,7.231 8.382,0.578 17.312,0 25.125,-3.309 0.578,-0.578 1.691,-1.113 2.234,-1.113 v 0 l -17.859,-37.301 v 0 c -0.575,0 -2.231,1.117 -5.039,1.117 -1.653,0 -3.883,0 -5.579,-1.656 v 0" /><path
         id="path26"
         style="fill:#ffffff;fill-opacity:1;fill-rule:nonzero;stroke:none"
         d="m 464.359,425.227 36.289,80.675 15.082,-32.832 v 0 c -0.539,-0.543 -1.652,-1.117 -2.23,-1.652 -8.93,-4.469 -16.199,-10.586 -22.895,-17.824 -6.699,-7.778 -12.851,-16.668 -15.089,-26.676 0,-0.574 -0.536,-1.691 -0.536,-2.23 v 0 l -10.621,0.539 v 0" /><path
         id="path28"
         style="fill:#ffffff;fill-opacity:1;fill-rule:nonzero;stroke:none"
         d="m 524.516,453.559 12.277,-28.946 v 0 c 0,0 0,-0.543 -0.543,-0.543 -1.691,0 -5.039,-3.882 -5.039,-6.117 h -35.172 v 0 c 1.113,8.895 5.039,17.785 10.621,24.481 5.004,5.004 11.156,8.894 17.856,11.125 v 0" /><path
         id="path30"
         style="fill:#ffffff;fill-opacity:1;fill-rule:nonzero;stroke:none"
         d="m 602.273,410.973 -32.937,0.535 v 0 c 0,0.578 -2.231,7.238 -7.813,11.699 -4.464,3.352 -10.078,3.895 -15.66,3.895 v 0 l -13.39,29.48 v 0 c 15.625,5.004 32.937,2.231 46.367,-7.234 13.39,-8.895 21.781,-22.789 23.433,-38.375 v 0" /><path
         id="path32"
         style="fill:#ffffff;fill-opacity:1;fill-rule:nonzero;stroke:none"
         d="m 548.563,381.848 v -3.887 h 18.433 v -5.547 h -60.879 v 0 c 0.578,-1.113 1.117,-2.234 1.696,-2.809 14.507,-18.898 40.75,-22.789 62.531,-13.32 18.429,7.778 31.281,25.02 31.824,45.039 0,1.114 0,2.231 0,2.77 h -32.402 v 0 c 0,-6.121 -2.231,-11.66 -6.118,-16.129 -3.925,-3.887 -9.503,-6.117 -15.085,-6.117 v 0" /></g></g></svg>