<?xml version="1.0" encoding="UTF-8" standalone="no"?>
<svg
   xmlns:dc="http://purl.org/dc/elements/1.1/"
   xmlns:cc="http://creativecommons.org/ns#"
   xmlns:rdf="http://www.w3.org/1999/02/22-rdf-syntax-ns#"
   xmlns:svg="http://www.w3.org/2000/svg"
   xmlns="http://www.w3.org/2000/svg"
   viewBox="0 0 113.4 113.4"
   height="113.4"
   width="113.4"
   xml:space="preserve"
   id="svg2"
   version="1.1"><metadata
     id="metadata8"><rdf:RDF><cc:Work
         rdf:about=""><dc:format>image/svg+xml</dc:format><dc:type
           rdf:resource="http://purl.org/dc/dcmitype/StillImage" /></cc:Work></rdf:RDF></metadata><defs
     id="defs6" /><g
     transform="matrix(1.3333333,0,0,-1.3333333,0,113.4)"
     id="g10"><g
       transform="scale(0.1)"
       id="g12"><path
         id="path14"
         style="fill:#ee2c30;fill-opacity:1;fill-rule:nonzero;stroke:none"
         d="m 124.391,726.098 c -165.8519,-166.063 -165.8519,-435.629 0,-601.703 166.07,-165.8481 435.636,-165.8481 601.703,0 165.851,166.074 165.851,435.64 0,601.703 -166.067,165.855 -435.633,165.855 -601.703,0 v 0" /><path
         id="path16"
         style="fill:#ffffff;fill-opacity:1;fill-rule:nonzero;stroke:none"
         d="M 639.551,689.707 160.82,210.977 v 0 c -21.199,26.027 -38.121,54.757 -50.828,86.113 -16.5975,41.008 -24.949,83.66 -24.9881,128.16 0.0391,44.496 8.3906,87.191 24.9881,128.16 17.133,42.371 42.012,79.848 74.66,112.5 32.618,32.617 70.094,57.488 112.469,74.66 40.965,16.598 83.66,24.914 128.125,24.914 44.531,0 87.188,-8.316 128.192,-24.914 31.359,-12.742 60.089,-29.695 86.113,-50.863 v 0" /><path
         id="path18"
         style="fill:#ffffff;fill-opacity:1;fill-rule:nonzero;stroke:none"
         d="M 210.898,160.832 689.59,639.594 v 0 c 21.242,-26.102 38.195,-54.793 50.91,-86.153 16.59,-41 24.91,-83.66 24.91,-128.191 0,-44.5 -8.32,-87.152 -24.91,-128.16 C 723.359,254.758 698.488,217.277 665.832,184.629 633.215,152.012 595.703,127.102 553.371,109.961 512.363,93.3672 469.699,85.0508 425.172,85.0117 c -44.465,0.0391 -87.16,8.3555 -128.125,24.9493 -31.395,12.707 -60.082,29.668 -86.149,50.871 v 0" /><path
         id="path20"
         style="fill:#231f20;fill-opacity:1;fill-rule:nonzero;stroke:none"
         d="m 262.164,212.09 97.703,97.703 V 163.137 h -97.703 v 48.953" /><path
         id="path22"
         style="fill:#231f20;fill-opacity:1;fill-rule:nonzero;stroke:none"
         d="m 451.125,501.281 h -20.48 v 0 c -19.477,0 -38.594,-7.668 -51.805,-22.105 -12.168,-12.852 -18.973,-31.211 -18.973,-49.067 V 410.02 L 262.164,312.316 V 432.09 c 0.18,37.078 12.488,72.933 35.387,102.203 32.148,41.004 80.926,63.145 133.094,62.426 v 0 l 100.187,0.355 v 62.067 L 578.496,628.648 451.125,501.281 v 0" /><path
         id="path24"
         style="fill:#231f20;fill-opacity:1;fill-rule:nonzero;stroke:none"
         d="M 531.047,480.977 639.66,589.59 687.355,559.063 531.047,446.598 v 34.379" /></g></g></svg>