<?xml version="1.0" encoding="UTF-8" standalone="no"?>
<svg
   xmlns:dc="http://purl.org/dc/elements/1.1/"
   xmlns:cc="http://creativecommons.org/ns#"
   xmlns:rdf="http://www.w3.org/1999/02/22-rdf-syntax-ns#"
   xmlns:svg="http://www.w3.org/2000/svg"
   xmlns="http://www.w3.org/2000/svg"
   viewBox="0 0 113.38667 113.38667"
   height="113.38667"
   width="113.38667"
   xml:space="preserve"
   id="svg2"
   version="1.1"><metadata
     id="metadata8"><rdf:RDF><cc:Work
         rdf:about=""><dc:format>image/svg+xml</dc:format><dc:type
           rdf:resource="http://purl.org/dc/dcmitype/StillImage" /></cc:Work></rdf:RDF></metadata><defs
     id="defs6" /><g
     transform="matrix(1.3333333,0,0,-1.3333333,0,113.38667)"
     id="g10"><g
       transform="scale(0.1)"
       id="g12"><path
         id="path14"
         style="fill:#ee2c30;fill-opacity:1;fill-rule:nonzero;stroke:none"
         d="m 425.195,850.395 c 234.828,0 425.196,-190.372 425.196,-425.2 C 850.391,190.367 660.023,0 425.195,0 190.367,0 0,190.367 0,425.195 c 0,234.828 190.367,425.2 425.195,425.2 v 0" /><path
         id="path16"
         style="fill:#ffffff;fill-opacity:1;fill-rule:nonzero;stroke:none"
         d="m 425.23,708.695 c 38.508,0 75.274,-7.402 110.293,-22.215 33.895,-14.335 63.946,-34.605 90.145,-60.804 26.203,-26.203 46.473,-56.25 60.812,-90.149 14.809,-35.019 22.215,-71.781 22.215,-110.293 0,-38.511 -7.406,-75.273 -22.215,-110.293 -14.339,-33.894 -34.609,-63.945 -60.812,-90.144 -26.199,-26.203 -56.25,-46.473 -90.145,-60.813 -35.019,-14.808 -71.785,-22.214 -110.293,-22.214 -38.511,0 -75.273,7.406 -110.292,22.214 -33.899,14.34 -63.946,34.61 -90.149,60.813 -26.199,26.199 -46.469,56.25 -60.805,90.144 -14.812,35.02 -22.214,71.782 -22.214,110.293 0,38.512 7.402,75.274 22.214,110.293 14.336,33.899 34.606,63.946 60.805,90.149 26.203,26.199 56.25,46.469 90.149,60.804 35.019,14.813 71.781,22.215 110.292,22.215 v 0" /><path
         id="path18"
         style="fill:#231f20;fill-opacity:1;fill-rule:nonzero;stroke:none"
         d="m 229.926,297.68 h 390.601 v 13.035 l -56.019,-0.758 v 0 c 0,2.305 0.758,4.609 0.758,6.156 0,0.75 -0.758,6.91 0,8.422 0,0.793 0,2.305 0.754,3.098 0.757,0.758 0.757,2.265 1.546,3.062 0,1.508 0,4.602 0,6.118 -0.789,0.789 -0.789,1.546 -0.789,2.304 0,3.094 0,8.457 0.789,11.52 0,3.851 0.758,8.461 1.516,11.515 2.305,4.61 2.305,7.672 2.305,8.461 0.793,2.27 1.547,4.575 1.547,6.875 0,3.098 -1.547,6.918 -2.305,10.012 -1.547,1.516 -5.363,9.18 -6.121,10.727 -2.301,3.851 -3.848,8.464 -4.606,12.277 -0.793,3.851 -0.793,8.461 -0.793,13.066 0.793,4.61 1.551,9.977 3.098,14.578 0,2.305 1.508,9.219 3.059,13.829 0.754,4.605 1.511,9.179 1.511,14.582 0,3.812 -1.511,6.91 -1.511,10.726 0.754,-0.758 3.816,-1.512 5.363,-14.582 0.758,-5.363 0,-11.519 -0.754,-16.883 0,-5.367 -0.793,-15.336 -0.793,-20.738 0,-6.117 1.547,-13.031 2.305,-19.187 1.547,-6.911 4.605,-14.582 6.91,-21.489 0.789,-3.82 3.058,-7.672 5.367,-10.73 0.789,-1.547 3.094,-3.063 4.602,-3.063 0.797,0.758 1.554,3.063 1.554,3.821 0,4.605 -0.757,6.91 -0.757,14.582 0,8.457 -1.547,19.183 -0.797,28.402 0,2.305 1.554,15.371 1.554,19.184 0.75,8.461 0,16.886 -2.304,24.554 -2.305,7.703 -6.914,15.371 -11.524,21.492 -2.301,3.094 -5.363,6.915 -8.426,8.461 -0.789,0.754 -3.058,1.547 -4.605,1.547 -1.551,3.059 -4.606,7.664 -6.91,9.969 -3.856,4.613 -9.973,7.668 -15.336,9.973 -4.61,2.304 -9.973,3.851 -15.371,4.609 -7.672,0.758 -14.582,0 -21.457,-1.547 -5.403,-0.758 -13.828,-3.062 -19.192,-4.609 -3.093,-0.758 -6.156,-1.512 -9.968,-2.305 -9.977,-2.301 -20.739,-3.812 -32.254,-4.605 -7.672,0 -16.094,0 -23.762,3.097 -6.914,2.301 -13.07,6.117 -19.191,11.516 -5.364,5.367 -11.516,10.73 -16.125,16.887 -4.61,5.359 -9.973,11.484 -13.825,16.882 -3.816,5.364 -9.179,11.52 -14.582,16.09 -4.574,4.61 -9.972,8.461 -16.093,10.766 -3.852,1.551 -7.665,3.062 -11.516,4.609 -1.547,0 -3.856,0.754 -5.367,1.547 -0.758,2.27 -1.547,5.363 -2.305,7.668 -0.75,1.516 -3.059,6.914 -3.848,9.215 -0.757,-0.793 -4.609,-17.676 -4.609,-19.184 0,-0.793 -1.516,-2.304 -1.516,-2.304 -2.3,-3.098 -6.156,-9.223 -9.211,-13.067 -3.851,-4.613 -8.429,-13.035 -10.726,-16.129 -2.309,-3.062 -2.309,-4.609 -2.309,-6.125 0,-0.789 0,-2.304 0,-3.058 -0.789,-2.301 -3.093,-6.153 -4.605,-9.215 -0.793,-0.793 -1.551,-3.098 -2.309,-3.852 -1.547,-3.062 -2.304,-6.16 -3.851,-8.425 -2.305,-3.852 -3.813,-7.704 -4.602,-12.313 -0.758,-2.301 -1.516,-4.605 -1.516,-6.91 0,-2.27 1.516,-3.816 3.063,-5.367 1.547,-0.754 2.301,-1.508 3.848,-1.508 0,0 5.367,-2.305 6.879,-2.305 0.793,0 2.304,0 3.093,0.758 0,1.547 0.758,3.852 0.758,3.852 0.754,1.507 1.551,2.3 2.301,3.054 1.547,1.516 6.914,6.125 7.672,6.918 2.304,1.508 4.609,3.055 6.91,3.813 2.305,0.789 9.219,3.094 10.73,4.609 2.301,1.547 4.606,3.852 6.153,6.156 1.511,1.508 2.304,4.606 3.062,4.606 2.305,0.758 5.364,-6.91 7.664,-9.973 4.61,-6.156 7.672,-13.066 9.977,-20.734 2.301,-9.215 4.605,-19.188 6.152,-28.406 0.758,-3.852 3.063,-19.184 4.61,-23.036 0.757,-3.82 3.062,-9.179 5.367,-12.277 0.75,-3.058 2.304,-6.121 3.851,-9.219 2.301,-6.117 3.813,-12.273 4.571,-19.187 0.793,-9.215 1.547,-19.942 1.547,-29.156 0,-1.551 0,-3.821 0,-5.368 0,-0.753 0.757,-16.882 0.757,-21.492 0,-4.605 0,-9.215 0,-13.066 0,-1.516 0,-2.305 0.789,-3.813 -1.546,-1.55 -1.546,-3.062 -1.546,-3.062 0,-0.793 0.757,-3.098 0.757,-4.61 -0.757,-0.793 -3.062,-3.851 -3.816,-5.402 -0.758,-0.758 -2.309,-6.117 -2.309,-7.664 H 229.926 V 297.68" /><path
         id="path20"
         style="fill:#ffffff;fill-opacity:1;fill-rule:nonzero;stroke:none"
         d="m 381.738,309.918 c 0,1.547 1.547,6.914 0.758,8.461 0,0.758 -0.758,3.062 -0.758,3.816 0,0.754 3.852,4.606 3.852,5.364 0,0.793 0,1.546 -0.793,3.097 0,0.754 -0.754,3.059 -0.754,3.817 -0.758,3.097 -0.758,6.91 -0.758,9.215 0,1.546 0.758,4.609 0.758,6.156 0.754,2.304 1.547,12.273 1.547,13.789 0.754,1.547 1.512,6.152 1.512,7.699 0,1.516 0,3.82 0,5.367 0,0 3.851,21.496 3.851,23.793 0.758,3.063 1.512,6.914 1.512,9.977 0.793,1.547 1.551,9.215 2.305,11.519 16.886,-4.609 36.863,-6.16 50.652,-3.062 34.523,8.429 42.98,13.789 56.016,16.887 0.792,0 1.546,-9.215 2.3,-12.278 1.551,-5.398 4.614,-10.762 7.672,-15.371 2.301,-7.672 7.668,-10.726 10.762,-16.129 1.516,-2.305 3.062,-5.363 4.609,-8.422 0,-1.547 0.758,-2.304 0.758,-3.851 0,-2.305 -0.758,-6.125 -1.547,-9.219 -3.062,-9.18 -6.914,-22.246 -9.976,-31.465 0,-0.754 -3.813,-7.668 -4.606,-9.215 0,-1.511 -0.758,-4.609 -1.512,-6.117 -0.793,-2.305 -3.097,-4.609 -3.851,-6.914 -0.758,-1.551 -1.551,-4.609 -2.309,-6.914 h -122 v 0" /><path
         id="path22"
         style="fill:#ffffff;fill-opacity:1;fill-rule:nonzero;stroke:none"
         d="m 522.207,309.918 c 0,1.547 0,2.305 0,3.852 0,0.757 -0.75,6.125 0,7.671 0,0 2.305,2.305 3.098,3.055 0.754,0 1.511,0.758 2.3,1.551 0.758,1.512 2.274,9.219 3.063,10.73 0.758,4.606 3.062,9.215 5.367,13.067 1.547,3.062 5.36,9.972 6.91,12.273 1.512,2.309 4.61,6.914 5.368,8.426 v 13.82 c 0.753,-3.054 5.359,-3.054 5.359,-14.578 0,-2.301 0,-7.668 0,-9.969 -0.758,-4.613 -0.758,-9.972 -0.758,-14.582 v -2.304 c 0,-2.305 0,-5.36 0,-8.457 0,-1.516 0,-6.121 -0.75,-7.672 -0.797,-3.055 -2.305,-6.153 -3.851,-8.422 -0.758,-1.547 -2.305,-3.852 -3.063,-5.399 0,-0.757 -0.793,-2.304 -0.793,-3.062 h -22.25 v 0" /></g></g></svg>