<?xml version="1.0" encoding="UTF-8" standalone="no"?>
<svg
   xmlns:dc="http://purl.org/dc/elements/1.1/"
   xmlns:cc="http://creativecommons.org/ns#"
   xmlns:rdf="http://www.w3.org/1999/02/22-rdf-syntax-ns#"
   xmlns:svg="http://www.w3.org/2000/svg"
   xmlns="http://www.w3.org/2000/svg"
   xmlns:sodipodi="http://sodipodi.sourceforge.net/DTD/sodipodi-0.dtd"
   xmlns:inkscape="http://www.inkscape.org/namespaces/inkscape"
   version="1.1"
   viewBox="0.95 0.95 21 20.999992"
   id="svg847"
   sodipodi:docname="no_straight_on.svg"
   width="21"
   height="20.999992"
   inkscape:version="0.92.3 (2405546, 2018-03-11)">
  <metadata
     id="metadata853">
    <rdf:RDF>
      <cc:Work
         rdf:about="">
        <dc:format>image/svg+xml</dc:format>
        <dc:type
           rdf:resource="http://purl.org/dc/dcmitype/StillImage" />
        <dc:title></dc:title>
      </cc:Work>
    </rdf:RDF>
  </metadata>
  <defs
     id="defs851" />
  <sodipodi:namedview
     pagecolor="#ffffff"
     bordercolor="#666666"
     borderopacity="1"
     objecttolerance="10"
     gridtolerance="10"
     guidetolerance="10"
     inkscape:pageopacity="0"
     inkscape:pageshadow="2"
     inkscape:window-width="1664"
     inkscape:window-height="1039"
     id="namedview849"
     showgrid="false"
     fit-margin-top="0"
     fit-margin-left="0"
     fit-margin-right="0"
     fit-margin-bottom="0"
     inkscape:zoom="25.033275"
     inkscape:cx="1.7716175"
     inkscape:cy="10.499996"
     inkscape:window-x="147"
     inkscape:window-y="12"
     inkscape:window-maximized="0"
     inkscape:current-layer="svg847" />
  <path
     d="M 11.45,6.4499959 V 19.574996"
     id="path841"
     inkscape:connector-curvature="0"
     style="fill:none;stroke:#000000;stroke-width:2.5" />
  <path
     d="M 8.1628906,7.8542928 A 0.5,0.5 0 0 0 8.797656,8.5847619 L 11.45,7.2624959 14.102344,8.5847619 A 0.5,0.5 0 0 0 14.737109,7.8542928 L 11.45,3.0749959 Z"
     id="path843"
     inkscape:connector-curvature="0" />
  <path
     d="m 20.95,11.449996 a 9.5,9.5 0 0 1 -19,0 9.5,9.5 0 0 1 19,0 z m -16,-6.5000001 13,13.0000001"
     id="path845"
     inkscape:connector-curvature="0"
     style="fill:none;stroke:#a6192e;stroke-width:2" />
  <path
     style="color:#000000;display:inline;overflow:visible;visibility:visible;opacity:1;fill:#ffffff;fill-opacity:1;fill-rule:nonzero;stroke:none;stroke-width:0.00235686;stroke-miterlimit:4;stroke-dasharray:none;stroke-dashoffset:51.59054947;stroke-opacity:0.6;marker:none;enable-background:accumulate"
     d="M 14.460617,13.022528 11.774304,10.335994 V 8.64814 6.9602861 l 0.72903,0.3650737 c 0.774996,0.3880923 0.92917,0.4287481 1.129103,0.2977469 C 13.689128,7.585961 13.77054,7.4981231 13.81335,7.4279121 13.959475,7.1882591 13.927411,7.0931565 13.47733,6.4312738 12.351602,4.7757973 10.531161,2.1460604 10.505282,2.1379701 10.489194,2.132941 9.8471118,3.0452267 9.0784314,4.1652718 8.3097511,5.2853169 7.6714881,6.2017174 7.6600692,6.2017174 c -0.011419,0 -0.5575021,-0.5369642 -1.2135183,-1.1932538 L 5.2537944,3.8152097 5.6278906,3.5553787 C 8.1803801,1.78253 11.427987,1.5203683 14.191087,2.8641182 c 0.927584,0.4511019 1.657883,0.9828422 2.397221,1.745447 0.881973,0.909727 1.486221,1.8729213 1.895607,3.0216675 0.341456,0.9581315 0.487234,1.8163628 0.486607,2.8647693 -7.95e-4,1.326914 -0.254225,2.477159 -0.800534,3.633393 -0.279014,0.590516 -0.901588,1.579668 -0.994246,1.579668 -0.01585,0 -1.237652,-1.20894 -2.715125,-2.686535 z"
     id="path5089"
     inkscape:connector-curvature="0"
     transform="translate(0.95,0.95)" />
  <path
     style="color:#000000;display:inline;overflow:visible;visibility:visible;opacity:1;fill:#ffffff;fill-opacity:1;fill-rule:nonzero;stroke:none;stroke-width:0.00235686;stroke-miterlimit:4;stroke-dasharray:none;stroke-dashoffset:51.59054947;stroke-opacity:0.6;marker:none;enable-background:accumulate"
     d="M 9.7969358,18.959072 C 8.5899155,18.821482 7.6481274,18.559921 6.7632005,18.116515 4.6132228,17.039239 3.0070571,15.13436 2.3625455,12.897432 2.0943502,11.966598 2.0479215,11.610723 2.0492466,10.496002 2.0505124,9.4310855 2.0818891,9.1528106 2.2902206,8.3588462 2.5626759,7.3205025 3.0975493,6.215863 3.7331419,5.3788746 l 0.088018,-0.1159077 2.6982734,2.6963001 2.6982734,2.6963 v 3.984807 3.984808 h 1.2782983 1.278299 v -2.706247 -2.706246 l 1.97558,1.975278 c 1.568941,1.568701 1.966337,1.986415 1.930674,2.029387 -0.109781,0.132278 -0.938407,0.644574 -1.439144,0.889748 -0.915475,0.448241 -1.917639,0.737055 -2.900771,0.835977 -0.383283,0.03856 -1.265508,0.04771 -1.5437072,0.01599 z"
     id="path5091"
     inkscape:connector-curvature="0"
     transform="translate(0.95,0.95)" />
  <path
     style="color:#000000;display:inline;overflow:visible;visibility:visible;opacity:1;fill:#ffffff;fill-opacity:1;fill-rule:nonzero;stroke:none;stroke-width:0.00235686;stroke-miterlimit:4;stroke-dasharray:none;stroke-dashoffset:51.59054947;stroke-opacity:0.6;marker:none;enable-background:accumulate"
     d="M 8.9391615,7.5010817 C 8.7982164,7.3588725 8.6908793,7.2351705 8.7006345,7.2261883 8.7103898,7.2172061 8.8307218,7.1535396 8.968039,7.0847071 l 0.2496677,-0.12515 v 0.4000433 c 0,0.2200239 -0.00501,0.4000434 -0.011141,0.4000434 -0.00613,0 -0.1264594,-0.116353 -0.2674042,-0.2585621 z"
     id="path5093"
     inkscape:connector-curvature="0"
     transform="translate(0.95,0.95)" />
</svg>
