<?xml version="1.0" encoding="UTF-8" standalone="no"?>
<svg
   xmlns:dc="http://purl.org/dc/elements/1.1/"
   xmlns:cc="http://creativecommons.org/ns#"
   xmlns:rdf="http://www.w3.org/1999/02/22-rdf-syntax-ns#"
   xmlns:svg="http://www.w3.org/2000/svg"
   xmlns="http://www.w3.org/2000/svg"
   viewBox="0 0 113.38667 113.38667"
   height="113.38667"
   width="113.38667"
   xml:space="preserve"
   id="svg2"
   version="1.1"><metadata
     id="metadata8"><rdf:RDF><cc:Work
         rdf:about=""><dc:format>image/svg+xml</dc:format><dc:type
           rdf:resource="http://purl.org/dc/dcmitype/StillImage" /></cc:Work></rdf:RDF></metadata><defs
     id="defs6" /><g
     transform="matrix(1.3333333,0,0,-1.3333333,0,113.38667)"
     id="g10"><g
       transform="scale(0.1)"
       id="g12"><path
         id="path14"
         style="fill:#ee2c30;fill-opacity:1;fill-rule:nonzero;stroke:none"
         d="m 425.195,850.391 c 234.832,0 425.2,-190.368 425.2,-425.196 C 850.395,190.367 660.027,0 425.195,0 190.367,0 0,190.367 0,425.195 0,660.023 190.367,850.391 425.195,850.391 v 0" /><path
         id="path16"
         style="fill:#ffffff;fill-opacity:1;fill-rule:nonzero;stroke:none"
         d="m 425.234,708.695 c 38.512,0 75.274,-7.406 110.293,-22.215 33.899,-14.335 63.946,-34.609 90.149,-60.812 26.199,-26.195 46.469,-56.242 60.804,-90.141 14.813,-35.019 22.215,-71.789 22.215,-110.297 0,-38.507 -7.402,-75.273 -22.215,-110.292 -14.335,-33.899 -34.605,-63.946 -60.804,-90.149 -26.203,-26.199 -56.25,-46.469 -90.149,-60.805 -35.019,-14.808 -71.781,-22.214 -110.293,-22.214 -38.511,0 -75.273,7.406 -110.293,22.214 -33.894,14.336 -63.945,34.606 -90.144,60.805 -26.203,26.203 -46.473,56.25 -60.813,90.149 -14.808,35.019 -22.218,71.785 -22.218,110.292 0,38.508 7.41,75.278 22.218,110.297 14.34,33.899 34.61,63.946 60.813,90.141 26.199,26.203 56.25,46.477 90.144,60.812 35.02,14.809 71.782,22.215 110.293,22.215 v 0" /><path
         id="path18"
         style="fill:#231f20;fill-opacity:1;fill-rule:nonzero;stroke:none"
         d="m 177.188,401.035 h 78.261 l -0.14,102.094 346.711,0.035 0.363,-112.535 h -98.531 v 0 c -0.075,0.469 -0.075,1.047 -0.106,1.476 -2.594,38.485 -35.93,66.782 -74.344,66.922 -38.484,0.075 -72.074,-28.113 -74.914,-66.742 -0.035,-0.469 -0.035,-1.113 -0.074,-1.656 H 177.188 v 10.406" /><path
         id="path20"
         style="fill:#231f20;fill-opacity:1;fill-rule:nonzero;stroke:none"
         d="m 371.949,383.754 h -10.48 v 0 c 0,2.48 0,6.16 0.254,8.641 3.168,34.378 32.906,59.578 67.211,59.578 34.273,0 63.144,-25.668 67.535,-59.828 0.289,-2.454 0.469,-5.946 0.543,-8.391 h -10.696 v 0 c -0.14,2.445 -0.359,5.937 -0.753,8.351 -4.391,28.047 -28.192,49 -56.446,49.067 -28.402,0.113 -53.027,-20.484 -56.668,-48.777 -0.32,-2.481 -0.469,-6.161 -0.5,-8.641 v 0" /><path
         id="path22"
         style="fill:#231f20;fill-opacity:1;fill-rule:nonzero;stroke:none"
         d="m 429.043,433.938 c 27.613,0 50.039,-22.356 50.219,-50.043 0.148,-27.965 -22.321,-50.793 -50.219,-50.793 -27.793,0 -50.188,22.789 -50.039,50.761 0.105,27.684 22.465,50.075 50.039,50.075 v 0" /><path
         id="path24"
         style="fill:#ffffff;fill-opacity:1;fill-rule:nonzero;stroke:none"
         d="m 429.008,400.422 c 9.18,0 16.707,-7.453 16.812,-16.668 0.075,-9.324 -7.418,-16.918 -16.703,-16.992 -9.394,-0.074 -17.066,7.558 -17.027,16.992 0.105,9.289 7.668,16.668 16.918,16.668 v 0" /></g></g></svg>