<?xml version="1.0" encoding="UTF-8" standalone="no"?>
<!DOCTYPE svg PUBLIC "-//W3C//DTD SVG 1.0//EN" "http://www.w3.org/TR/2001/REC-SVG-20010904/DTD/svg10.dtd">
<svg
   xmlns:svg="http://www.w3.org/2000/svg"
   xmlns="http://www.w3.org/2000/svg"
   version="1.0"
   width="106.31494"
   height="106.30865"
   id="svg1891">
  <defs
     id="defs1893" />
  <g
     transform="translate(-272.5568,-347.7793)"
     id="layer1">
    <g
       transform="matrix(1.249992,0,0,-1.249992,-43.76304,928.9568)"
       style="font-style:normal;font-variant:normal;font-weight:normal;font-stretch:normal;letter-spacing:normal;word-spacing:normal;text-anchor:start;fill:none;fill-opacity:1;stroke:black;stroke-linecap:butt;stroke-linejoin:miter;stroke-miterlimit:10.43299961;stroke-dasharray:none;stroke-dashoffset:0;stroke-opacity:1"
       id="g10"
       xml:space="preserve">
<path
   d="M 325.67,452.51 L 327.18,450.92 L 328.59,449.28 L 329.9,447.58 L 331.11,445.84 L 332.23,444.04 L 333.25,442.21 L 334.18,440.34 L 335,438.44 L 335.73,436.5 L 336.36,434.54 L 336.9,432.55 L 337.33,430.55 L 337.67,428.53 L 337.92,426.5 L 338.06,424.46 L 338.11,422.42 L 338.06,420.38 L 337.92,418.34 L 337.67,416.31 L 337.33,414.3 L 336.9,412.29 L 336.36,410.31 L 335.73,408.34 L 335,406.41 L 334.18,404.5 L 333.25,402.63 L 332.23,400.8 L 331.11,399.01 L 329.9,397.26 L 328.59,395.57 L 327.18,393.92 L 325.67,392.34 C 309.06,375.75 282.11,375.75 265.5,392.34 C 248.91,408.95 248.91,435.9 265.5,452.51 C 282.11,469.09 309.06,469.09 325.67,452.51 z "
   style="fill:#ff1721;fill-rule:nonzero;stroke:#ff1721;stroke-width:0"
   id="path12" />
<path
   d="M 274.16,448.87 L 322.03,401 L 322.03,401 C 324.15,403.6 325.84,406.47 327.11,409.61 C 328.77,413.71 329.61,417.97 329.61,422.42 C 329.61,426.87 328.77,431.14 327.11,435.24 C 325.39,439.48 322.91,443.22 319.64,446.49 C 316.38,449.75 312.63,452.24 308.4,453.95 C 304.3,455.61 300.03,456.45 295.59,456.45 C 291.13,456.45 286.87,455.61 282.77,453.95 C 279.63,452.68 276.76,450.98 274.16,448.87 z "
   style="fill:white;fill-rule:nonzero;stroke:white;stroke-width:0"
   id="path14" />
<path
   d="M 317.02,395.98 L 269.15,443.86 L 269.15,443.86 C 267.03,441.25 265.33,438.38 264.06,435.24 C 262.4,431.14 261.57,426.88 261.57,422.42 C 261.57,417.97 262.4,413.71 264.06,409.61 C 265.77,405.38 268.26,401.62 271.53,398.36 C 274.79,395.1 278.54,392.61 282.77,390.89 C 286.88,389.23 291.14,388.4 295.59,388.4 C 300.04,388.4 304.31,389.23 308.41,390.89 C 311.54,392.16 314.41,393.86 317.02,395.98 z "
   style="fill:white;fill-rule:nonzero;stroke:white;stroke-width:0"
   id="path16" />
<polygon
   points="313.31,399.69 304,409 304,399.69 313.31,399.69 "
   style="fill:black;fill-rule:nonzero;stroke-width:0"
   id="polygon18" />
<path
   d="M 289.04,433.98 L 289.33,434.22 L 289.64,434.43 L 289.96,434.64 L 290.29,434.83 L 290.62,435.01 L 290.97,435.18 L 291.32,435.33 L 291.68,435.47 L 292.04,435.6 L 292.42,435.7 L 292.8,435.8 L 293.18,435.87 L 293.57,435.94 L 293.97,435.98 L 294.37,436.01 L 294.78,436.02 C 299.85,436.04 303.98,431.95 304,426.91 L 304,426.91 L 304,419.02 L 313.3,409.71 L 313.3,427.12 L 313.3,427.12 C 313.17,437.12 305.02,445.19 294.96,445.28 C 290.15,445.32 285.75,443.54 282.44,440.58 L 282.44,440.58 L 289.04,433.98 z "
   style="fill:black;fill-rule:nonzero;stroke-width:0"
   id="path20" />
<path
   d="M 285.64,427.36 L 278.12,434.88 L 278.12,434.88 C 276.93,432.44 276.27,429.7 276.28,426.81 L 276.28,426.81 L 276.3,412.71 L 272.19,413.67 L 272.19,413.67 C 272,413.74 271.77,413.69 271.63,413.54 C 271.49,413.38 271.46,413.15 271.56,412.96 L 271.56,412.96 L 280.54,399.86 L 280.54,399.86 C 280.64,399.73 280.79,399.64 280.95,399.64 C 281.11,399.64 281.27,399.72 281.36,399.85 L 281.36,399.85 L 290.3,412.92 L 290.3,412.92 C 290.43,413.09 290.45,413.32 290.32,413.5 C 290.21,413.66 290,413.74 289.81,413.7 L 289.81,413.7 L 285.59,412.76 L 285.63,426.83 L 285.63,426.83 C 285.63,427 285.63,427.18 285.64,427.36 z "
   style="fill:black;fill-rule:nonzero;stroke-width:0"
   id="path22" />
</g>  </g>
</svg>
