<?xml version="1.0" encoding="UTF-8" standalone="no"?>
<!DOCTYPE svg PUBLIC "-//W3C//DTD SVG 1.0//EN" "http://www.w3.org/TR/2001/REC-SVG-20010904/DTD/svg10.dtd">
<svg
   xmlns:svg="http://www.w3.org/2000/svg"
   xmlns="http://www.w3.org/2000/svg"
   version="1.0"
   width="106.29932"
   height="106.29932"
   id="svg1885">
  <defs
     id="defs1887" />
  <g
     transform="translate(-106.8504,-444.9272)"
     id="layer1">
    <g
       transform="matrix(1.249992,0,0,-1.249992,-210.6476,1029.111)"
       style="font-style:normal;font-variant:normal;font-weight:normal;font-stretch:normal;letter-spacing:normal;word-spacing:normal;text-anchor:start;fill:none;fill-opacity:1;stroke:black;stroke-linecap:butt;stroke-linejoin:miter;stroke-miterlimit:10.43299961;stroke-dasharray:none;stroke-dashoffset:0;stroke-opacity:1"
       id="g10"
       xml:space="preserve">
<path
   d="M 296.52,467.35 L 298.71,467.3 L 300.87,467.13 L 303,466.86 L 305.09,466.49 L 307.15,466.01 L 309.17,465.44 L 311.14,464.77 L 313.07,464.01 L 314.96,463.16 L 316.79,462.22 L 318.57,461.2 L 320.3,460.09 L 321.96,458.9 L 323.57,457.64 L 325.11,456.3 L 326.59,454.9 L 328,453.42 L 329.33,451.88 L 330.6,450.27 L 331.78,448.6 L 332.89,446.88 L 333.91,445.1 L 334.85,443.26 L 335.7,441.38 L 336.46,439.45 L 337.13,437.47 L 337.7,435.45 L 338.18,433.4 L 338.55,431.3 L 338.82,429.18 L 338.99,427.02 L 339.04,424.83 C 339.04,401.35 320.01,382.31 296.52,382.31 C 273.04,382.31 254,401.35 254,424.83 C 254,448.31 273.04,467.35 296.52,467.35 z "
   style="fill:#ff1721;fill-rule:nonzero;stroke:#ff1721;stroke-width:0"
   id="path12" />
<path
   d="M 296.53,453.18 L 297.25,453.17 L 297.96,453.15 L 298.68,453.1 L 299.38,453.04 L 300.09,452.96 L 300.79,452.87 L 301.48,452.76 L 302.17,452.62 L 302.86,452.48 L 303.54,452.31 L 304.22,452.13 L 304.9,451.93 L 305.57,451.71 L 306.23,451.48 L 306.9,451.23 L 307.55,450.96 C 310.95,449.52 313.95,447.5 316.57,444.88 C 319.19,442.26 321.22,439.25 322.65,435.86 C 324.13,432.36 324.87,428.68 324.87,424.83 C 324.87,420.98 324.13,417.31 322.65,413.8 C 321.22,410.41 319.19,407.41 316.57,404.79 C 313.95,402.17 310.95,400.14 307.55,398.71 C 304.05,397.23 300.38,396.49 296.53,396.49 C 292.68,396.49 289,397.23 285.5,398.71 C 282.11,400.14 279.1,402.17 276.48,404.79 C 273.86,407.41 271.84,410.41 270.4,413.8 C 268.92,417.31 268.18,420.98 268.18,424.83 C 268.18,428.68 268.92,432.36 270.4,435.86 C 271.84,439.25 273.86,442.26 276.48,444.88 C 279.1,447.5 282.11,449.52 285.5,450.96 C 289,452.44 292.68,453.18 296.53,453.18 z "
   style="fill:white;fill-rule:nonzero;stroke:white;stroke-width:0"
   id="path14" />
<path
   d="M 305.61,424.93 L 304.98,424.89 L 304.98,424.89 C 305,424.84 305.02,424.77 305.04,424.73 L 305.04,424.73 L 305.08,424.62 L 305.08,424.62 C 305.22,424.29 305.36,424.45 305.48,424.03 C 305.6,423.58 305.52,422.98 305.21,422.79 C 305.06,422.68 304.79,422.73 304.69,422.74 C 304.3,422.8 303.84,422.99 303.7,423.38 C 303.66,423.48 303.65,423.64 303.64,423.76 C 303.64,423.97 303.66,424.32 303.68,424.53 C 303.69,424.63 303.7,424.77 303.71,424.87 L 303.71,424.87 L 303.25,424.85 L 302.63,430.61 L 300.24,432.91 L 300.5,426.64 L 302.55,422.26 L 301.64,421.7 L 303.99,415.41 L 309.01,406.39 L 308.64,406.16 L 308.64,406.16 C 308.66,406.12 308.69,406.06 308.71,406.03 L 308.71,406.03 L 308.91,405.86 L 308.91,405.86 C 308.98,405.79 309.05,405.69 309.09,405.61 C 309.15,405.5 309.21,405.37 309.23,405.26 C 309.25,405.19 309.25,405.04 309.25,404.98 C 309.25,404.93 309.27,404.78 309.27,404.73 C 309.27,404.66 309.28,404.56 309.28,404.49 L 309.28,404.49 L 307.06,403.62 L 304.62,403.62 L 304.61,403.95 L 304.61,403.95 C 304.61,404 304.61,404.05 304.61,404.09 C 304.61,404.17 304.63,404.25 304.66,404.32 C 304.7,404.4 304.75,404.48 304.82,404.54 C 304.89,404.6 305.04,404.66 305.13,404.7 C 305.2,404.73 305.36,404.79 305.43,404.81 L 305.43,404.81 L 305.68,404.88 L 305.68,404.88 C 305.76,404.9 305.85,404.93 305.93,404.98 C 305.99,405.02 306.06,405.07 306.11,405.13 C 306.15,405.18 306.18,405.26 306.2,405.32 C 306.21,405.38 306.23,405.45 306.25,405.51 L 306.25,405.51 L 305.79,405.36 L 300.86,413.33 L 297.45,420.54 L 292.91,405.46 L 292.65,405.53 L 292.21,403.57 L 287.94,404.82 L 287.94,404.82 C 287.92,404.86 287.89,404.92 287.89,404.96 C 287.89,405.03 287.91,405.11 287.94,405.17 C 287.98,405.25 288.04,405.33 288.11,405.39 C 288.2,405.47 288.31,405.52 288.43,405.55 C 288.54,405.59 288.67,405.61 288.79,405.61 L 288.79,405.61 L 289.3,405.62 L 289.3,405.62 C 289.37,405.62 289.59,405.63 289.67,405.64 C 289.75,405.64 289.93,405.65 290.02,405.66 C 290.11,405.67 290.25,405.69 290.33,405.74 C 290.38,405.78 290.43,405.84 290.47,405.89 C 290.54,406 290.59,406.16 290.62,406.27 L 290.62,406.27 L 289.45,406.77 L 292.89,421.29 L 292.34,421.53 L 293.21,426.81 L 291.84,430.61 L 290.97,429.36 L 290.75,429.04 L 290.39,428.75 L 286.33,425.45 L 286.09,425.75 L 286.09,425.75 C 286.07,425.71 286.06,425.66 286.05,425.61 C 286.03,425.54 286.01,425.45 286,425.38 L 286,425.38 L 285.97,425.14 L 285.97,425.14 C 285.96,425.07 285.94,424.98 285.91,424.92 C 285.88,424.86 285.81,424.81 285.75,424.78 C 285.68,424.73 285.59,424.69 285.5,424.68 L 285.5,424.68 L 285.32,424.68 L 285.32,424.68 C 285.14,424.67 284.98,424.54 284.86,424.41 L 284.86,424.41 L 284.63,424.18 L 284.63,424.18 C 284.55,424.1 284.44,424.02 284.33,424 C 284.14,423.96 283.95,424.07 283.86,424.23 C 283.68,424.56 283.81,425.02 283.88,425.39 C 283.92,425.57 283.98,425.77 284.06,425.93 C 284.14,426.07 284.23,426.2 284.35,426.29 L 284.35,426.29 L 284.64,426.51 L 284.87,426.71 L 284.87,426.71 C 284.93,426.75 285.01,426.81 285.07,426.85 L 285.07,426.85 L 284.84,427.23 L 288.84,430.86 L 290.6,437.75 L 290.6,437.75 C 290.84,438.7 291.27,438.73 291.64,438.84 L 291.64,438.84 L 293.62,439.45 L 293.62,439.45 C 293.66,439.78 293.39,440.06 293.09,440.12 C 293.04,440.13 292.77,440.18 292.72,440.2 C 292.57,440.24 292.38,440.29 292.27,440.41 C 292.11,440.58 292.19,441.09 292.16,441.28 C 292.16,441.32 292.17,441.48 292.05,441.54 L 292.05,441.54 L 291.93,441.59 L 291.93,441.59 C 291.88,441.62 291.85,441.66 291.83,441.72 C 291.81,441.77 291.82,441.83 291.83,441.88 C 291.86,441.99 292,442.16 292.07,442.25 C 292.12,442.33 292.19,442.45 292.24,442.53 C 292.2,442.64 292.18,442.78 292.19,442.89 C 292.19,443.06 292.21,443.32 292.22,443.48 L 292.22,443.48 L 291.09,443.59 L 291.19,444.11 L 292.3,444.15 L 292.3,444.15 C 292.32,444.27 292.38,444.52 292.41,444.63 L 292.41,444.63 L 292.5,444.95 L 292.5,444.95 C 292.55,445.08 292.73,445.64 292.8,445.76 C 292.89,445.89 293.13,446.09 293.27,446.1 C 293.49,446.11 293.86,446 294.05,445.95 C 294.23,445.9 294.5,445.78 294.69,445.78 C 294.74,445.78 294.9,445.83 294.96,445.84 C 295.27,445.94 295.64,445.96 295.96,445.93 C 296.19,445.9 296.43,445.77 296.52,445.55 C 296.66,445.25 296.71,444.79 296.79,444.48 L 296.79,444.48 L 297.5,444.41 L 297.46,443.71 L 296.59,443.71 L 296.59,443.71 C 296.61,443.52 296.64,443.29 296.64,443.1 C 296.63,442.8 296.55,442.49 296.45,442.21 L 296.45,442.21 L 296.02,441.25 L 296.02,441.25 C 295.97,441.02 296.04,440.78 296.16,440.58 C 296.23,440.46 296.34,440.34 296.44,440.26 L 296.44,440.26 L 297.08,440.32 L 297.08,440.32 C 297.5,440.35 297.76,440.21 298.18,439.8 L 298.18,439.8 L 304.13,433.6 L 304.13,433.6 C 304.51,433.19 304.82,432.5 304.9,431.8 L 304.9,431.8 L 305.61,424.93 z "
   style="fill:black;fill-rule:nonzero;stroke-width:0"
   id="path16" />
</g>  </g>
</svg>
