<?xml version="1.0" encoding="UTF-8" standalone="no"?>
<svg
   xmlns:dc="http://purl.org/dc/elements/1.1/"
   xmlns:cc="http://creativecommons.org/ns#"
   xmlns:rdf="http://www.w3.org/1999/02/22-rdf-syntax-ns#"
   xmlns:svg="http://www.w3.org/2000/svg"
   xmlns="http://www.w3.org/2000/svg"
   viewBox="0 0 113.76 113.76"
   height="113.76"
   width="113.76"
   xml:space="preserve"
   id="svg2"
   version="1.1"><metadata
     id="metadata8"><rdf:RDF><cc:Work
         rdf:about=""><dc:format>image/svg+xml</dc:format><dc:type
           rdf:resource="http://purl.org/dc/dcmitype/StillImage" /></cc:Work></rdf:RDF></metadata><defs
     id="defs6" /><g
     transform="matrix(1.3333333,0,0,-1.3333333,0,113.76)"
     id="g10"><g
       transform="scale(0.1)"
       id="g12"><path
         id="path14"
         style="fill:#ffffff;fill-opacity:1;fill-rule:nonzero;stroke:none"
         d="m 851.809,426.609 c 0,234.832 -190.364,425.2 -425.192,425.2 C 191.781,851.809 1.41797,661.441 1.41797,426.609 1.41797,191.777 191.781,1.41797 426.617,1.41797 c 234.828,0 425.192,190.35903 425.192,425.19103 v 0" /><path
         id="path16"
         style="fill:none;stroke:#231f20;stroke-width:2.83500004;stroke-linecap:butt;stroke-linejoin:round;stroke-miterlimit:4;stroke-dasharray:none;stroke-opacity:1"
         d="m 851.809,426.609 c 0,234.832 -190.364,425.2 -425.192,425.2 C 191.781,851.809 1.41797,661.441 1.41797,426.609 1.41797,191.777 191.781,1.41797 426.617,1.41797 c 234.828,0 425.192,190.35903 425.192,425.19103 v 0" /><path
         id="path18"
         style="fill:#1a67bb;fill-opacity:1;fill-rule:nonzero;stroke:none"
         d="m 837.637,426.645 c 0,55.757 -10.762,109.082 -32.293,159.988 -20.801,49.172 -50.168,92.722 -88.086,130.652 -37.93,37.93 -81.485,67.293 -130.656,88.09 -50.907,21.527 -104.227,32.297 -159.985,32.297 -55.758,0 -109.086,-10.77 -159.984,-32.297 -49.176,-20.797 -92.727,-50.16 -130.656,-88.09 C 98.0469,679.355 68.6836,635.805 47.8867,586.633 26.3594,535.727 15.5898,482.402 15.5898,426.645 15.5898,370.895 26.3594,317.57 47.8867,266.66 68.6836,217.492 98.0469,173.938 135.977,136.008 173.906,98.0781 217.457,68.7227 266.633,47.9219 317.531,26.3867 370.859,15.625 426.617,15.625 c 55.758,0 109.078,10.7617 159.985,32.2969 49.171,20.8008 92.726,50.1562 130.656,88.0861 37.93,37.93 67.285,81.484 88.086,130.652 21.531,50.91 32.293,104.235 32.293,159.985 v 0" /><path
         id="path20"
         style="fill:#ffffff;fill-opacity:1;fill-rule:nonzero;stroke:none"
         d="m 167.23,197.512 106.168,-0.547 -0.359,83.953 v 0 c -0.363,51.445 21.387,100.66 59.109,134.281 30.641,27.36 69.665,42.621 110.274,42.985 v 0 l 69.082,0.539 -21.707,-99.543 v 0 c -1.445,-6.621 0.859,-13.426 6.043,-17.461 5.695,-4.602 13.535,-4.785 19.59,-0.535 v 0 l 218.34,152.82 v 0 c 4.64,3.312 7.668,8.457 7.304,14.508 -0.176,5.328 -2.84,11.015 -7.488,14.148 v 0 L 508.84,674.039 v 0 c -4.289,2.914 -9.61,3.133 -14.074,0.723 -5.696,-2.922 -8.719,-9.543 -7.313,-15.989 v 0 l 22.11,-100.117 -71.426,-0.715 v 0 C 343.203,556.82 255.758,505.02 206.797,421.246 181.129,377.363 167.594,327.219 167.414,275.945 v 0 l -0.184,-78.433 v 0" /></g></g></svg>