<?xml version="1.0" encoding="UTF-8" standalone="no"?>
<svg
   xmlns:dc="http://purl.org/dc/elements/1.1/"
   xmlns:cc="http://creativecommons.org/ns#"
   xmlns:rdf="http://www.w3.org/1999/02/22-rdf-syntax-ns#"
   xmlns:svg="http://www.w3.org/2000/svg"
   xmlns="http://www.w3.org/2000/svg"
   viewBox="0 0 113.76 113.76"
   height="113.76"
   width="113.76"
   xml:space="preserve"
   id="svg2"
   version="1.1"><metadata
     id="metadata8"><rdf:RDF><cc:Work
         rdf:about=""><dc:format>image/svg+xml</dc:format><dc:type
           rdf:resource="http://purl.org/dc/dcmitype/StillImage" /></cc:Work></rdf:RDF></metadata><defs
     id="defs6" /><g
     transform="matrix(1.3333333,0,0,-1.3333333,0,113.76)"
     id="g10"><g
       transform="scale(0.1)"
       id="g12"><path
         id="path14"
         style="fill:#ffffff;fill-opacity:1;fill-rule:nonzero;stroke:none"
         d="m 1.41797,426.609 c 0,234.832 190.36303,425.2 425.19903,425.2 234.828,0 425.192,-190.368 425.192,-425.2 C 851.809,191.777 661.445,1.41797 426.617,1.41797 191.781,1.41797 1.41797,191.777 1.41797,426.609 v 0" /><path
         id="path16"
         style="fill:none;stroke:#231f20;stroke-width:2.83500004;stroke-linecap:butt;stroke-linejoin:round;stroke-miterlimit:4;stroke-dasharray:none;stroke-opacity:1"
         d="m 1.41797,426.609 c 0,234.832 190.36303,425.2 425.19903,425.2 234.828,0 425.192,-190.368 425.192,-425.2 C 851.809,191.777 661.445,1.41797 426.617,1.41797 191.781,1.41797 1.41797,191.777 1.41797,426.609 v 0" /><path
         id="path18"
         style="fill:#1a67bb;fill-opacity:1;fill-rule:nonzero;stroke:none"
         d="m 15.5898,426.645 c 0,55.757 10.7696,109.082 32.2969,159.988 20.7969,49.172 50.1602,92.722 88.0903,130.652 37.929,37.93 81.48,67.293 130.656,88.09 50.898,21.527 104.226,32.297 159.984,32.297 55.758,0 109.078,-10.77 159.985,-32.297 49.171,-20.797 92.726,-50.16 130.656,-88.09 37.93,-37.93 67.285,-81.48 88.086,-130.652 21.531,-50.906 32.293,-104.231 32.293,-159.988 0,-55.75 -10.762,-109.075 -32.293,-159.985 C 784.543,217.492 755.188,173.938 717.258,136.008 679.328,98.0781 635.773,68.7227 586.602,47.9219 535.695,26.3867 482.375,15.625 426.617,15.625 370.859,15.625 317.531,26.3867 266.633,47.9219 217.457,68.7227 173.906,98.0781 135.977,136.008 98.0469,173.938 68.6836,217.492 47.8867,266.66 26.3516,317.57 15.5898,370.895 15.5898,426.645 v 0" /><path
         id="path20"
         style="fill:#ffffff;fill-opacity:1;fill-rule:nonzero;stroke:none"
         d="m 685.996,197.512 -106.16,-0.547 0.352,83.953 v 0 c 0.359,51.445 -21.379,100.66 -59.114,134.281 -30.633,27.36 -69.656,42.621 -110.261,42.985 v 0 l -69.09,0.539 21.711,-99.543 v 0 c 1.441,-6.621 -0.864,-13.426 -6.047,-17.461 -5.688,-4.602 -13.539,-4.785 -19.582,-0.535 v 0 l -218.34,152.82 v 0 c -4.645,3.312 -7.672,8.457 -7.313,14.508 0.184,5.328 2.848,11.015 7.493,14.148 v 0 l 224.746,151.379 v 0 c 4.281,2.914 9.613,3.133 14.078,0.723 5.687,-2.922 8.711,-9.543 7.304,-15.989 v 0 l -22.101,-100.117 71.422,-0.715 v 0 c 94.937,-1.121 182.379,-52.921 231.332,-136.695 25.676,-43.883 39.211,-94.027 39.387,-145.301 v 0 l 0.183,-78.433 v 0" /></g></g></svg>