<?xml version="1.0" encoding="UTF-8" standalone="no"?>
<svg
   xmlns:dc="http://purl.org/dc/elements/1.1/"
   xmlns:cc="http://creativecommons.org/ns#"
   xmlns:rdf="http://www.w3.org/1999/02/22-rdf-syntax-ns#"
   xmlns:svg="http://www.w3.org/2000/svg"
   xmlns="http://www.w3.org/2000/svg"
   xmlns:sodipodi="http://sodipodi.sourceforge.net/DTD/sodipodi-0.dtd"
   xmlns:inkscape="http://www.inkscape.org/namespaces/inkscape"
   version="1.0"
   width="124.37"
   height="124.37"
   id="svg1911"
   inkscape:version="0.48.4 r9939"
   sodipodi:docname="pedestrian_zone.svg">
  <metadata
     id="metadata3934">
    <rdf:RDF>
      <cc:Work
         rdf:about="">
        <dc:format>image/svg+xml</dc:format>
        <dc:type
           rdf:resource="http://purl.org/dc/dcmitype/StillImage" />
      </cc:Work>
    </rdf:RDF>
  </metadata>
  <sodipodi:namedview
     pagecolor="#ffffff"
     bordercolor="#666666"
     borderopacity="1"
     objecttolerance="10"
     gridtolerance="10"
     guidetolerance="10"
     inkscape:pageopacity="0"
     inkscape:pageshadow="2"
     inkscape:window-width="640"
     inkscape:window-height="480"
     id="namedview3932"
     showgrid="false"
     inkscape:zoom="1.8976235"
     inkscape:cx="-18.502849"
     inkscape:cy="62.183041"
     inkscape:window-x="0"
     inkscape:window-y="0"
     inkscape:window-maximized="0"
     inkscape:current-layer="svg1911" />
  <defs
     id="defs1913" />
  <g
     id="g3936"
     transform="translate(17.714363,0.00391601)">
    <g
       id="layer1"
       transform="translate(-238.3865,-355.8934)">
      <g
         xml:space="preserve"
         id="g10"
         style="font-style:normal;font-variant:normal;font-weight:normal;font-stretch:normal;letter-spacing:normal;word-spacing:normal;text-anchor:start;fill:none;stroke:#000000;stroke-linecap:butt;stroke-linejoin:miter;stroke-miterlimit:10.43299961;stroke-opacity:1;stroke-dasharray:none;stroke-dashoffset:0"
         transform="matrix(1.249992,0,0,-1.249992,-87.78424,949.1043)">
<polygon
   id="polygon12"
   style="fill:#ffffff;fill-rule:nonzero;stroke:#ffffff;stroke-width:0"
   points="331.95,474.43 261.08,474.43 261.08,375.22 261.08,375.22 331.95,375.22 " />
<polygon
   id="polygon14"
   style="stroke-width:0.28349999"
   points="331.95,474.43 261.08,474.43 261.08,375.22 261.08,375.22 331.95,375.22 " />
<path
   id="path16"
   style="fill:#000000;fill-rule:nonzero;stroke-width:0"
   d="m 262.5,379.47 0,90.71 0,0 c 0,0.78 0.28,1.45 0.83,2 0.56,0.56 1.22,0.84 2.01,0.84 l 0,0 62.36,0 0,0 c 0.78,0 1.45,-0.28 2,-0.84 0.56,-0.55 0.83,-1.22 0.83,-2 l 0,0 0,-90.71 0,0 c 0,-0.78 -0.27,-1.45 -0.83,-2 -0.55,-0.56 -1.22,-0.83 -2,-0.83 l 0,0 -62.36,0 0,0 c -0.79,0 -1.45,0.27 -2.01,0.83 -0.55,0.55 -0.83,1.22 -0.83,2 z"
   inkscape:connector-curvature="0" />
<path
   id="path18"
   style="fill:#ffffff;fill-rule:nonzero;stroke:#ffffff;stroke-width:0"
   d="m 263.92,379.47 0,90.71 0,0 c 0,0.39 0.14,0.73 0.41,1 0.28,0.28 0.62,0.42 1.01,0.42 l 0,0 62.36,0 0,0 c 0.39,0 0.72,-0.14 1,-0.42 0.28,-0.27 0.42,-0.61 0.42,-1 l 0,0 0,-90.71 0,0 c 0,-0.39 -0.14,-0.72 -0.42,-1 -0.28,-0.28 -0.61,-0.42 -1,-0.42 l 0,0 -62.36,0 0,0 c -0.39,0 -0.73,0.14 -1.01,0.42 -0.27,0.28 -0.41,0.61 -0.41,1 z"
   inkscape:connector-curvature="0" />
<polygon
   id="polygon20"
   style="fill:#000000;fill-rule:nonzero;stroke-width:0"
   points="281.68,465.37 285.53,465.37 281.55,458.11 281.55,456.71 281.55,456.71 287.41,456.71 287.41,457.98 283.27,457.98 287.34,465.34 287.34,466.63 281.68,466.63 " />
<path
   id="path22"
   style="fill:#000000;fill-rule:nonzero;stroke-width:0"
   d="m 289.38,457.88 0.07,-0.08 0.06,-0.08 0.07,-0.07 0.07,-0.07 0.07,-0.07 0.07,-0.06 0.08,-0.07 0.07,-0.06 0.08,-0.05 0.07,-0.06 0.08,-0.05 0.08,-0.05 0.09,-0.05 0.08,-0.05 0.09,-0.04 0.08,-0.04 c 0.46,-0.23 0.95,-0.32 1.48,-0.32 0.55,0 1.06,0.09 1.54,0.3 0.46,0.21 0.86,0.53 1.2,0.95 0.35,0.42 0.62,0.96 0.81,1.6 0.19,0.64 0.29,1.4 0.29,2.27 l 0,0 0,0 0,0 c 0,0.84 -0.1,1.57 -0.29,2.19 -0.19,0.63 -0.46,1.15 -0.81,1.58 -0.34,0.41 -0.74,0.74 -1.19,0.95 -0.47,0.21 -0.97,0.31 -1.5,0.31 -0.55,0 -1.05,-0.1 -1.51,-0.31 -0.47,-0.21 -0.88,-0.52 -1.23,-0.94 -0.34,-0.42 -0.61,-0.96 -0.79,-1.6 -0.2,-0.64 -0.3,-1.41 -0.3,-2.28 0,-0.84 0.1,-1.56 0.3,-2.18 0.18,-0.63 0.45,-1.16 0.79,-1.57 z"
   inkscape:connector-curvature="0" />
<polygon
   id="polygon24"
   style="fill:#000000;fill-rule:nonzero;stroke-width:0"
   points="302.92,466.63 302.92,458.64 302.89,458.64 299.38,466.63 297.52,466.63 297.52,456.71 297.52,456.71 298.94,456.71 298.94,464.64 298.97,464.64 302.48,456.71 304.34,456.71 304.34,466.63 " />
<polygon
   id="polygon26"
   style="fill:#000000;fill-rule:nonzero;stroke-width:0"
   points="307.94,462.47 307.94,465.37 311.32,465.37 311.32,466.63 306.41,466.63 306.41,456.71 306.41,456.71 311.48,456.71 311.48,457.98 307.94,457.98 307.94,461.2 311.16,461.2 311.16,462.47 " />
<path
   id="path28"
   style="fill:#ffffff;fill-rule:nonzero;stroke:#ffffff;stroke-width:0"
   d="m 290.45,458.83 -0.07,0.13 -0.07,0.14 -0.06,0.14 -0.05,0.15 -0.05,0.16 -0.05,0.16 -0.04,0.16 -0.04,0.17 -0.03,0.18 -0.03,0.19 -0.03,0.19 -0.02,0.19 -0.01,0.2 -0.01,0.21 -0.01,0.21 0,0.22 c 0,0.73 0.06,1.34 0.18,1.83 0.12,0.5 0.27,0.92 0.49,1.23 0.2,0.29 0.44,0.52 0.71,0.67 0.27,0.12 0.57,0.19 0.86,0.19 0.72,0 1.26,-0.34 1.64,-1.02 0.37,-0.68 0.56,-1.62 0.56,-2.8 l 0,0 0,0 0,0 c 0,-0.72 -0.06,-1.34 -0.18,-1.83 -0.12,-0.5 -0.28,-0.91 -0.48,-1.21 -0.21,-0.31 -0.45,-0.54 -0.72,-0.67 -0.27,-0.14 -0.57,-0.21 -0.87,-0.21 -0.71,0 -1.25,0.34 -1.62,1.02 z"
   inkscape:connector-curvature="0" />
<path
   id="path30"
   style="fill:#0070ff;fill-rule:nonzero;stroke:#0070ff;stroke-width:0"
   d="m 296.52,453.17 1.46,-0.03 1.44,-0.11 1.42,-0.18 1.39,-0.25 1.37,-0.32 1.35,-0.38 1.32,-0.45 1.28,-0.51 1.26,-0.56 1.22,-0.63 1.19,-0.68 1.15,-0.74 1.11,-0.79 1.07,-0.84 1.03,-0.89 0.98,-0.94 0.94,-0.98 0.89,-1.03 0.84,-1.07 0.79,-1.12 0.74,-1.15 0.68,-1.18 0.63,-1.22 0.57,-1.26 0.51,-1.29 0.44,-1.31 0.38,-1.35 0.32,-1.37 0.25,-1.4 0.18,-1.41 0.11,-1.44 0.04,-1.46 c 0,-15.66 -12.7,-28.35 -28.35,-28.35 -15.66,0 -28.35,12.69 -28.35,28.35 0,15.65 12.69,28.34 28.35,28.34 z"
   inkscape:connector-curvature="0" />
<path
   id="path32"
   style="fill:#ffffff;fill-rule:nonzero;stroke:#ffffff;stroke-width:0"
   d="m 287.25,416.73 2.53,0.01 0.01,-8.36 0,0 c -0.02,-0.68 -0.58,-1.22 -1.26,-1.23 -0.71,-0.01 -1.29,0.56 -1.28,1.28 l 0,0 0,8.3 z"
   inkscape:connector-curvature="0" />
<path
   id="path34"
   style="fill:#ffffff;fill-rule:nonzero;stroke:#ffffff;stroke-width:0"
   d="m 290.52,416.72 2.54,0.01 -0.01,-10.63 0,0 c 0,-0.69 -0.55,-1.26 -1.24,-1.27 -0.7,-0.01 -1.28,0.56 -1.29,1.26 l 0,0 0,10.63 z"
   inkscape:connector-curvature="0" />
<path
   id="path36"
   style="fill:#ffffff;fill-rule:nonzero;stroke:#ffffff;stroke-width:0"
   d="m 297.98,417.13 0,0.48 -0.02,0.48 -0.03,0.48 -0.05,0.48 -0.06,0.47 -0.08,0.48 -0.09,0.47 -0.11,0.46 -0.12,0.47 -0.14,0.45 -0.15,0.46 -0.17,0.45 -0.18,0.44 -0.19,0.44 -0.21,0.44 -0.22,0.42 c -0.92,1.72 -2.16,3.25 -3.64,4.5 l 0,0 0,4.2 0,0 c -0.02,0.17 0.08,0.32 0.23,0.39 0.2,0.09 0.44,-0.01 0.52,-0.21 l 0,0 3.85,-7.71 0,0 c -0.03,-0.27 -0.01,-0.55 0.06,-0.81 0.09,-0.32 0.25,-0.61 0.48,-0.85 l 0,0 4.39,-5.24 -1.17,-13.32 0,0 c -0.06,-0.59 0.37,-1.12 0.96,-1.2 0.59,-0.07 1.13,0.34 1.22,0.92 l 0,0 0.54,6.59 1.31,0.01 0.54,-6 0,0 c 0.06,-0.63 0.64,-1.07 1.26,-0.97 0.56,0.09 0.97,0.61 0.9,1.19 l 0,0 -0.56,5.75 1.52,0.01 -0.87,5.7 3.37,-4.08 0,0 c 0.4,0.34 0.66,0.81 0.75,1.32 0.11,0.56 -0.01,1.15 -0.33,1.63 l 0,0 -5.08,5.98 0,0 c -0.89,-0.54 -1.96,-0.72 -2.99,-0.51 -0.66,0.14 -1.28,0.44 -1.8,0.87 l 0,0 -2.58,3.03 0,0 c 0.14,0.15 0.23,0.34 0.28,0.54 0.08,0.29 0.04,0.61 -0.11,0.88 l 0,0 -3.69,7.35 0,0 c -1.04,1.95 -3.09,3.15 -5.3,3.12 -3.04,-0.05 -5.54,-2.39 -5.79,-5.42 l 0,0 0.03,-4.87 0,0 c 0.01,-0.3 0.13,-0.6 0.33,-0.83 0.11,-0.12 0.23,-0.22 0.38,-0.3 -0.87,-1.23 -1.55,-2.58 -2.03,-4.01 -0.53,-1.6 -0.8,-3.27 -0.81,-4.95 l 0,0 15.65,-0.07 z"
   inkscape:connector-curvature="0" />
<path
   id="path38"
   style="fill:#ffffff;fill-rule:nonzero;stroke:#ffffff;stroke-width:0"
   d="m 303.46,423.13 0.2,-0.04 0.19,-0.04 0.19,-0.02 0.18,-0.01 0.19,0.01 0.18,0.01 0.18,0.03 0.18,0.04 0.17,0.05 0.17,0.06 0.16,0.07 0.16,0.08 0.15,0.09 0.15,0.1 0.14,0.11 0.13,0.11 0.13,0.13 0.12,0.13 0.11,0.14 0.1,0.14 0.09,0.15 0.09,0.16 0.07,0.16 0.07,0.17 0.05,0.17 0.04,0.18 0.03,0.18 0.02,0.18 0.01,0.19 0,0.19 -0.02,0.2 -0.03,0.19 c -0.38,2 -2.66,2.97 -4.38,1.88 -0.47,-0.31 -0.82,-0.73 -1.06,-1.24 -0.23,-0.51 -0.31,-1.06 -0.22,-1.61 0.08,-0.55 0.31,-1.05 0.69,-1.47 0.36,-0.42 0.84,-0.72 1.37,-0.87 z"
   inkscape:connector-curvature="0" />
<path
   id="path40"
   style="fill:#ffffff;fill-rule:nonzero;stroke:#ffffff;stroke-width:0"
   d="m 290.19,438.9 0.21,0.01 0.2,0.02 0.19,0.04 0.2,0.04 0.18,0.06 0.18,0.07 0.18,0.07 0.17,0.09 0.16,0.1 0.15,0.1 0.15,0.12 0.14,0.12 0.14,0.13 0.12,0.14 0.12,0.14 0.11,0.15 0.1,0.16 0.09,0.16 0.09,0.17 0.07,0.17 0.06,0.18 0.06,0.18 0.04,0.18 0.03,0.19 0.02,0.18 0.01,0.2 0,0.19 -0.02,0.19 -0.02,0.2 -0.04,0.19 -0.06,0.2 -0.06,0.19 c -0.8,2.18 -3.55,2.83 -5.24,1.24 -0.48,-0.45 -0.8,-1.01 -0.94,-1.65 -0.14,-0.65 -0.09,-1.3 0.16,-1.91 0.25,-0.61 0.66,-1.12 1.22,-1.48 0.55,-0.36 1.17,-0.54 1.83,-0.53 z"
   inkscape:connector-curvature="0" />
<path
   id="path42"
   style="fill:#0070ff;fill-rule:nonzero;stroke:#0070ff;stroke-width:0"
   d="m 286.9,428.21 0,5 0,0 c 0.01,0.25 0.24,0.45 0.49,0.42 0.22,-0.02 0.39,-0.2 0.4,-0.43 l 0,0 0.01,-4.23 0,0 c -0.14,-0.06 -0.27,-0.15 -0.4,-0.24 -0.19,-0.15 -0.36,-0.32 -0.5,-0.52 z"
   inkscape:connector-curvature="0" />
</g>    </g>
  </g>
</svg>
