<?xml version="1.0" encoding="UTF-8" standalone="no"?>
<!DOCTYPE svg PUBLIC "-//W3C//DTD SVG 1.0//EN" "http://www.w3.org/TR/2001/REC-SVG-20010904/DTD/svg10.dtd">
<svg
   xmlns:svg="http://www.w3.org/2000/svg"
   xmlns="http://www.w3.org/2000/svg"
   version="1.0"
   width="88.941307"
   height="124.36608"
   id="svg1911">
  <defs
     id="defs1913" />
  <g
     transform="translate(-238.3865,-355.8934)"
     id="layer1">
    <g
       transform="matrix(1.249992,0,0,-1.249992,-87.78424,949.1043)"
       style="font-style:normal;font-variant:normal;font-weight:normal;font-stretch:normal;letter-spacing:normal;word-spacing:normal;text-anchor:start;fill:none;fill-opacity:1;stroke:black;stroke-linecap:butt;stroke-linejoin:miter;stroke-miterlimit:10.43299961;stroke-dasharray:none;stroke-dashoffset:0;stroke-opacity:1"
       id="g10"
       xml:space="preserve">
<polygon
   points="261.08,375.22 331.95,375.22 331.95,474.43 261.08,474.43 261.08,375.22 "
   style="fill:white;fill-rule:nonzero;stroke:white;stroke-width:0"
   id="polygon12" />
<polygon
   points="261.08,375.22 331.95,375.22 331.95,474.43 261.08,474.43 261.08,375.22 "
   style="stroke-width:0.28349999"
   id="polygon14" />
<path
   d="M 262.5,379.47 L 262.5,470.18 L 262.5,470.18 C 262.5,470.96 262.78,471.63 263.33,472.18 C 263.89,472.74 264.55,473.02 265.34,473.02 L 265.34,473.02 L 327.7,473.02 L 327.7,473.02 C 328.48,473.02 329.15,472.74 329.7,472.18 C 330.26,471.63 330.53,470.96 330.53,470.18 L 330.53,470.18 L 330.53,379.47 L 330.53,379.47 C 330.53,378.69 330.26,378.02 329.7,377.47 C 329.15,376.91 328.48,376.64 327.7,376.64 L 327.7,376.64 L 265.34,376.64 L 265.34,376.64 C 264.55,376.64 263.89,376.91 263.33,377.47 C 262.78,378.02 262.5,378.69 262.5,379.47 z "
   style="fill:black;fill-rule:nonzero;stroke-width:0"
   id="path16" />
<path
   d="M 263.92,379.47 L 263.92,470.18 L 263.92,470.18 C 263.92,470.57 264.06,470.91 264.33,471.18 C 264.61,471.46 264.95,471.6 265.34,471.6 L 265.34,471.6 L 327.7,471.6 L 327.7,471.6 C 328.09,471.6 328.42,471.46 328.7,471.18 C 328.98,470.91 329.12,470.57 329.12,470.18 L 329.12,470.18 L 329.12,379.47 L 329.12,379.47 C 329.12,379.08 328.98,378.75 328.7,378.47 C 328.42,378.19 328.09,378.05 327.7,378.05 L 327.7,378.05 L 265.34,378.05 L 265.34,378.05 C 264.95,378.05 264.61,378.19 264.33,378.47 C 264.06,378.75 263.92,379.08 263.92,379.47 z "
   style="fill:white;fill-rule:nonzero;stroke:white;stroke-width:0"
   id="path18" />
<polygon
   points="281.55,456.71 287.41,456.71 287.41,457.98 283.27,457.98 287.34,465.34 287.34,466.63 281.68,466.63 281.68,465.37 285.53,465.37 281.55,458.11 281.55,456.71 "
   style="fill:black;fill-rule:nonzero;stroke-width:0"
   id="polygon20" />
<path
   d="M 289.38,457.88 L 289.45,457.8 L 289.51,457.72 L 289.58,457.65 L 289.65,457.58 L 289.72,457.51 L 289.79,457.45 L 289.87,457.38 L 289.94,457.32 L 290.02,457.27 L 290.09,457.21 L 290.17,457.16 L 290.25,457.11 L 290.34,457.06 L 290.42,457.01 L 290.51,456.97 L 290.59,456.93 C 291.05,456.7 291.54,456.61 292.07,456.61 C 292.62,456.61 293.13,456.7 293.61,456.91 C 294.07,457.12 294.47,457.44 294.81,457.86 C 295.16,458.28 295.43,458.82 295.62,459.46 C 295.81,460.1 295.91,460.86 295.91,461.73 L 295.91,461.73 L 295.91,461.73 L 295.91,461.73 C 295.91,462.57 295.81,463.3 295.62,463.92 C 295.43,464.55 295.16,465.07 294.81,465.5 C 294.47,465.91 294.07,466.24 293.62,466.45 C 293.15,466.66 292.65,466.76 292.12,466.76 C 291.57,466.76 291.07,466.66 290.61,466.45 C 290.14,466.24 289.73,465.93 289.38,465.51 C 289.04,465.09 288.77,464.55 288.59,463.91 C 288.39,463.27 288.29,462.5 288.29,461.63 C 288.29,460.79 288.39,460.07 288.59,459.45 C 288.77,458.82 289.04,458.29 289.38,457.88 z "
   style="fill:black;fill-rule:nonzero;stroke-width:0"
   id="path22" />
<polygon
   points="297.52,456.71 298.94,456.71 298.94,464.64 298.97,464.64 302.48,456.71 304.34,456.71 304.34,466.63 302.92,466.63 302.92,458.64 302.89,458.64 299.38,466.63 297.52,466.63 297.52,456.71 "
   style="fill:black;fill-rule:nonzero;stroke-width:0"
   id="polygon24" />
<polygon
   points="306.41,456.71 311.48,456.71 311.48,457.98 307.94,457.98 307.94,461.2 311.16,461.2 311.16,462.47 307.94,462.47 307.94,465.37 311.32,465.37 311.32,466.63 306.41,466.63 306.41,456.71 "
   style="fill:black;fill-rule:nonzero;stroke-width:0"
   id="polygon26" />
<path
   d="M 290.45,458.83 L 290.38,458.96 L 290.31,459.1 L 290.25,459.24 L 290.2,459.39 L 290.15,459.55 L 290.1,459.71 L 290.06,459.87 L 290.02,460.04 L 289.99,460.22 L 289.96,460.41 L 289.93,460.6 L 289.91,460.79 L 289.9,460.99 L 289.89,461.2 L 289.88,461.41 L 289.88,461.63 C 289.88,462.36 289.94,462.97 290.06,463.46 C 290.18,463.96 290.33,464.38 290.55,464.69 C 290.75,464.98 290.99,465.21 291.26,465.36 C 291.53,465.48 291.83,465.55 292.12,465.55 C 292.84,465.55 293.38,465.21 293.76,464.53 C 294.13,463.85 294.32,462.91 294.32,461.73 L 294.32,461.73 L 294.32,461.73 L 294.32,461.73 C 294.32,461.01 294.26,460.39 294.14,459.9 C 294.02,459.4 293.86,458.99 293.66,458.69 C 293.45,458.38 293.21,458.15 292.94,458.02 C 292.67,457.88 292.37,457.81 292.07,457.81 C 291.36,457.81 290.82,458.15 290.45,458.83 z "
   style="fill:white;fill-rule:nonzero;stroke:white;stroke-width:0"
   id="path28" />
<path
   d="M 296.52,453.17 L 297.98,453.14 L 299.42,453.03 L 300.84,452.85 L 302.23,452.6 L 303.6,452.28 L 304.95,451.9 L 306.27,451.45 L 307.55,450.94 L 308.81,450.38 L 310.03,449.75 L 311.22,449.07 L 312.37,448.33 L 313.48,447.54 L 314.55,446.7 L 315.58,445.81 L 316.56,444.87 L 317.5,443.89 L 318.39,442.86 L 319.23,441.79 L 320.02,440.67 L 320.76,439.52 L 321.44,438.34 L 322.07,437.12 L 322.64,435.86 L 323.15,434.57 L 323.59,433.26 L 323.97,431.91 L 324.29,430.54 L 324.54,429.14 L 324.72,427.73 L 324.83,426.29 L 324.87,424.83 C 324.87,409.17 312.17,396.48 296.52,396.48 C 280.86,396.48 268.17,409.17 268.17,424.83 C 268.17,440.48 280.86,453.17 296.52,453.17 z "
   style="fill:#0070ff;fill-rule:nonzero;stroke:#0070ff;stroke-width:0"
   id="path30" />
<path
   d="M 287.25,416.73 L 289.78,416.74 L 289.79,408.38 L 289.79,408.38 C 289.77,407.7 289.21,407.16 288.53,407.15 C 287.82,407.14 287.24,407.71 287.25,408.43 L 287.25,408.43 L 287.25,416.73 z "
   style="fill:white;fill-rule:nonzero;stroke:white;stroke-width:0"
   id="path32" />
<path
   d="M 290.52,416.72 L 293.06,416.73 L 293.05,406.1 L 293.05,406.1 C 293.05,405.41 292.5,404.84 291.81,404.83 C 291.11,404.82 290.53,405.39 290.52,406.09 L 290.52,406.09 L 290.52,416.72 z "
   style="fill:white;fill-rule:nonzero;stroke:white;stroke-width:0"
   id="path34" />
<path
   d="M 297.98,417.13 L 297.98,417.61 L 297.96,418.09 L 297.93,418.57 L 297.88,419.05 L 297.82,419.52 L 297.74,420 L 297.65,420.47 L 297.54,420.93 L 297.42,421.4 L 297.28,421.85 L 297.13,422.31 L 296.96,422.76 L 296.78,423.2 L 296.59,423.64 L 296.38,424.08 L 296.16,424.5 C 295.24,426.22 294,427.75 292.52,429 L 292.52,429 L 292.52,433.2 L 292.52,433.2 C 292.5,433.37 292.6,433.52 292.75,433.59 C 292.95,433.68 293.19,433.58 293.27,433.38 L 293.27,433.38 L 297.12,425.67 L 297.12,425.67 C 297.09,425.4 297.11,425.12 297.18,424.86 C 297.27,424.54 297.43,424.25 297.66,424.01 L 297.66,424.01 L 302.05,418.77 L 300.88,405.45 L 300.88,405.45 C 300.82,404.86 301.25,404.33 301.84,404.25 C 302.43,404.18 302.97,404.59 303.06,405.17 L 303.06,405.17 L 303.6,411.76 L 304.91,411.77 L 305.45,405.77 L 305.45,405.77 C 305.51,405.14 306.09,404.7 306.71,404.8 C 307.27,404.89 307.68,405.41 307.61,405.99 L 307.61,405.99 L 307.05,411.74 L 308.57,411.75 L 307.7,417.45 L 311.07,413.37 L 311.07,413.37 C 311.47,413.71 311.73,414.18 311.82,414.69 C 311.93,415.25 311.81,415.84 311.49,416.32 L 311.49,416.32 L 306.41,422.3 L 306.41,422.3 C 305.52,421.76 304.45,421.58 303.42,421.79 C 302.76,421.93 302.14,422.23 301.62,422.66 L 301.62,422.66 L 299.04,425.69 L 299.04,425.69 C 299.18,425.84 299.27,426.03 299.32,426.23 C 299.4,426.52 299.36,426.84 299.21,427.11 L 299.21,427.11 L 295.52,434.46 L 295.52,434.46 C 294.48,436.41 292.43,437.61 290.22,437.58 C 287.18,437.53 284.68,435.19 284.43,432.16 L 284.43,432.16 L 284.46,427.29 L 284.46,427.29 C 284.47,426.99 284.59,426.69 284.79,426.46 C 284.9,426.34 285.02,426.24 285.17,426.16 C 284.3,424.93 283.62,423.58 283.14,422.15 C 282.61,420.55 282.34,418.88 282.33,417.2 L 282.33,417.2 L 297.98,417.13 z "
   style="fill:white;fill-rule:nonzero;stroke:white;stroke-width:0"
   id="path36" />
<path
   d="M 303.46,423.13 L 303.66,423.09 L 303.85,423.05 L 304.04,423.03 L 304.22,423.02 L 304.41,423.03 L 304.59,423.04 L 304.77,423.07 L 304.95,423.11 L 305.12,423.16 L 305.29,423.22 L 305.45,423.29 L 305.61,423.37 L 305.76,423.46 L 305.91,423.56 L 306.05,423.67 L 306.18,423.78 L 306.31,423.91 L 306.43,424.04 L 306.54,424.18 L 306.64,424.32 L 306.73,424.47 L 306.82,424.63 L 306.89,424.79 L 306.96,424.96 L 307.01,425.13 L 307.05,425.31 L 307.08,425.49 L 307.1,425.67 L 307.11,425.86 L 307.11,426.05 L 307.09,426.25 L 307.06,426.44 C 306.68,428.44 304.4,429.41 302.68,428.32 C 302.21,428.01 301.86,427.59 301.62,427.08 C 301.39,426.57 301.31,426.02 301.4,425.47 C 301.48,424.92 301.71,424.42 302.09,424 C 302.45,423.58 302.93,423.28 303.46,423.13 z "
   style="fill:white;fill-rule:nonzero;stroke:white;stroke-width:0"
   id="path38" />
<path
   d="M 290.19,438.9 L 290.4,438.91 L 290.6,438.93 L 290.79,438.97 L 290.99,439.01 L 291.17,439.07 L 291.35,439.14 L 291.53,439.21 L 291.7,439.3 L 291.86,439.4 L 292.01,439.5 L 292.16,439.62 L 292.3,439.74 L 292.44,439.87 L 292.56,440.01 L 292.68,440.15 L 292.79,440.3 L 292.89,440.46 L 292.98,440.62 L 293.07,440.79 L 293.14,440.96 L 293.2,441.14 L 293.26,441.32 L 293.3,441.5 L 293.33,441.69 L 293.35,441.87 L 293.36,442.07 L 293.36,442.26 L 293.34,442.45 L 293.32,442.65 L 293.28,442.84 L 293.22,443.04 L 293.16,443.23 C 292.36,445.41 289.61,446.06 287.92,444.47 C 287.44,444.02 287.12,443.46 286.98,442.82 C 286.84,442.17 286.89,441.52 287.14,440.91 C 287.39,440.3 287.8,439.79 288.36,439.43 C 288.91,439.07 289.53,438.89 290.19,438.9 z "
   style="fill:white;fill-rule:nonzero;stroke:white;stroke-width:0"
   id="path40" />
<path
   d="M 286.9,428.21 L 286.9,433.21 L 286.9,433.21 C 286.91,433.46 287.14,433.66 287.39,433.63 C 287.61,433.61 287.78,433.43 287.79,433.2 L 287.79,433.2 L 287.8,428.97 L 287.8,428.97 C 287.66,428.91 287.53,428.82 287.4,428.73 C 287.21,428.58 287.04,428.41 286.9,428.21 z "
   style="fill:#0070ff;fill-rule:nonzero;stroke:#0070ff;stroke-width:0"
   id="path42" />
</g>  </g>
</svg>
