<?xml version="1.0" encoding="UTF-8" standalone="no"?>
<svg xmlns="http://www.w3.org/2000/svg" width="2170" height="2170">
  <path fill="#fff" stroke="#000" stroke-width="10" d="M2165 2030c0 74.5625-60.4375 135-135 135H140c-74.559375 0-135-60.4375-135-135V140C5 65.4406 65.440625 5 140 5h1890c74.5625 0 135 60.4406 135 135v1890z"/>
  <path fill="#005597" d="M140 2120c-49.6265 0-90-40.375-90-90V140c0-49.6265 40.3735-90 90-90h1890c49.625 0 90 40.3735 90 90v1890c0 49.625-40.375 90-90 90H140z"/>
  <path fill="#fff" d="M1643.975 1335.9c-13.7749 45.7-55.5374 75.15-111.0874 75.15-64.425 0-104.4251-26.525-124.4251-84-17.7624-53.05-26.6499-139.26-26.6499-240.9437 0-57.4763 6.6624-141.47505 15.55-190.10755 17.775-97.26125 55.5375-134.84125 131.0875-134.84125 71.0874 0 117.75 44.21125 124.4125 121.57875h-82.2001c-2.2249-26.5275-17.7749-39.79-39.9874-39.79-28.8876 0-44.4501 19.895-53.3251 61.8975-11.1124 50.8425-13.3374 97.26375-13.3374 181.26255 0 88.42 2.225 126.0012 13.3374 179.0562 8.875 42 24.4375 64.1 51.1001 64.1 28.875 0 42.2124-22.1 42.2124-77.3675h82.2001c0 48.63-2.2125 61.8925-8.8875 84.005zm104.6501 64.1V770h230.7625v81.79h-151.6375v161.3687H1928.85v84.0025h-101.0999v221.0513h160.4375V1400h-239.5625zm-544.4776 0V770h81.9026v630h-81.9026zm-310.1175 0V770h79.12125v557.05h160.43625V1400H894.03zM653.335 842.94625c-72.95 0-63.0125 196.73625-63.0125 240.94755 0 42-9.9375 245.3687 63.0125 245.3687 70.74 0 60.80375-203.3687 60.80375-245.3687 0-50.8425-1.11875-240.94755-60.80375-240.94755zm0 568.10375c-156.9525 0-144.805-223.2625-144.805-327.1562 0-108.31505-9.93625-322.7388 144.805-322.7388s144.80375 216.6325 144.80375 322.7388c0 103.8937 9.9375 327.1562-144.80375 327.1562zm-348.71-559.2625h-43.16v192.3163h43.16c48.6775 0 66.3775-24.3138 66.3775-90.63255 0-70.73625-22.12625-101.68375-66.3775-101.68375zm0 274.1063h-43.16V1400h-79.65125V770H304.625c35.40125 0 68.59 8.84 88.505 26.52375 35.40125 28.7375 59.74125 88.4225 59.74125 156.9475 0 103.89875-59.74125 172.42255-148.24625 172.42255z"/>
</svg>