<?xml version="1.0" encoding="UTF-8" standalone="no"?>
<!DOCTYPE svg PUBLIC "-//W3C//DTD SVG 1.0//EN" "http://www.w3.org/TR/2001/REC-SVG-20010904/DTD/svg10.dtd">
<svg
   xmlns:svg="http://www.w3.org/2000/svg"
   xmlns="http://www.w3.org/2000/svg"
   version="1.0"
   width="95.674385"
   height="51.199673"
   id="svg1883">
  <defs
     id="defs1885" />
  <g
     transform="translate(-246.4485,-381.0481)"
     id="layer1">
    <g
       transform="matrix(1.249992,0,0,-1.249992,-76.36191,937.6695)"
       style="font-style:normal;font-variant:normal;font-weight:normal;font-stretch:normal;letter-spacing:normal;word-spacing:normal;text-anchor:start;fill:none;fill-opacity:1;stroke:black;stroke-linecap:butt;stroke-linejoin:miter;stroke-miterlimit:10.43299961;stroke-dasharray:none;stroke-dashoffset:0;stroke-opacity:1"
       id="g10"
       xml:space="preserve">
<polygon
   points="296.52,430.84 265.49,445.3 258.25,442.67 260.88,435.43 283.62,424.82 260.88,414.22 258.25,406.98 265.49,404.34 296.52,418.81 327.55,404.34 334.79,406.98 332.15,414.22 309.41,424.82 332.15,435.43 334.79,442.67 327.55,445.3 296.52,430.84 "
   style="fill:#ff1721;fill-rule:nonzero;stroke:#ff1721;stroke-width:0"
   id="polygon12" />
<polygon
   points="304.25,424.82 328.01,413.74 325.25,407.82 296.52,421.22 267.78,407.82 265.02,413.74 288.79,424.82 265.02,435.91 267.78,441.83 296.52,428.43 325.25,441.83 328.01,435.91 304.25,424.82 "
   style="fill:white;fill-rule:nonzero;stroke:white;stroke-width:0"
   id="polygon14" />
</g>  </g>
</svg>
