<?xml version="1.0" encoding="UTF-8" standalone="no"?>
<!DOCTYPE svg PUBLIC "-//W3C//DTD SVG 1.0//EN" "http://www.w3.org/TR/2001/REC-SVG-20010904/DTD/svg10.dtd">
<svg
   xmlns:svg="http://www.w3.org/2000/svg"
   xmlns="http://www.w3.org/2000/svg"
   version="1.0"
   width="106.67576"
   height="106.66196"
   id="svg1911">
  <defs
     id="defs1913" />
  <g
     transform="translate(-183.805,-276.1741)"
     id="layer1">
    <g
       transform="matrix(1.249992,0,0,-1.249992,-88.07428,928.8096)"
       style="font-style:normal;font-variant:normal;font-weight:normal;font-stretch:normal;letter-spacing:normal;word-spacing:normal;text-anchor:start;fill:none;fill-opacity:1;stroke:black;stroke-linecap:butt;stroke-linejoin:miter;stroke-miterlimit:10.43299961;stroke-dasharray:none;stroke-dashoffset:0;stroke-opacity:1"
       id="g10"
       xml:space="preserve">
<path
   d="M 272.21,520.17 L 271.21,520.45 L 270.22,520.71 L 269.22,520.94 L 268.23,521.15 L 267.23,521.34 L 266.24,521.5 L 265.25,521.64 L 264.26,521.75 L 263.27,521.84 L 262.28,521.91 L 261.29,521.95 L 260.31,521.97 L 259.32,521.97 L 258.34,521.94 L 257.36,521.89 L 256.39,521.81 L 255.41,521.71 L 254.44,521.59 L 253.47,521.44 L 252.5,521.27 L 251.53,521.07 L 250.57,520.85 L 249.61,520.61 L 248.65,520.34 L 247.7,520.06 L 246.74,519.74 L 245.8,519.4 L 244.85,519.04 L 243.91,518.66 L 242.97,518.25 L 242.04,517.82 L 241.11,517.36 C 231.21,512.38 224.15,504.46 220.33,494.05 C 216.51,483.65 216.77,473.04 221.1,462.84 C 225.43,452.64 232.88,445.07 243,440.58 C 266.58,430.14 293.95,442.94 301.05,467.73 C 307.48,490.16 294.6,513.58 272.21,520.17 z "
   style="fill:white;fill-rule:nonzero;stroke:white;stroke-width:0;stroke-linejoin:round"
   id="path12" />
<path
   d="M 272.21,520.17 L 271.21,520.45 L 270.22,520.71 L 269.22,520.94 L 268.23,521.15 L 267.23,521.34 L 266.24,521.5 L 265.25,521.64 L 264.26,521.75 L 263.27,521.84 L 262.28,521.91 L 261.29,521.95 L 260.31,521.97 L 259.32,521.97 L 258.34,521.94 L 257.36,521.89 L 256.39,521.81 L 255.41,521.71 L 254.44,521.59 L 253.47,521.44 L 252.5,521.27 L 251.53,521.07 L 250.57,520.85 L 249.61,520.61 L 248.65,520.34 L 247.7,520.06 L 246.74,519.74 L 245.8,519.4 L 244.85,519.04 L 243.91,518.66 L 242.97,518.25 L 242.04,517.82 L 241.11,517.36 C 231.21,512.38 224.15,504.46 220.33,494.05 C 216.51,483.65 216.77,473.04 221.1,462.84 C 225.43,452.64 232.88,445.07 243,440.58 C 266.58,430.14 293.95,442.94 301.05,467.73 C 307.48,490.16 294.6,513.58 272.21,520.17 z "
   style="stroke-width:0.28349999;stroke-linejoin:round"
   id="path14" />
<path
   d="M 262.3,520.49 L 262.3,438.39 L 262.3,438.39 C 265.96,438.58 269.56,439.26 273.09,440.43 C 277.25,441.8 281.09,443.79 284.61,446.38 C 288.19,449.02 291.25,452.15 293.8,455.76 C 296.44,459.52 298.41,463.64 299.69,468.11 C 300.75,471.83 301.29,475.61 301.29,479.44 C 301.29,483.85 300.59,488.14 299.2,492.34 C 297.82,496.48 295.84,500.3 293.25,503.81 C 290.63,507.36 287.54,510.4 283.95,512.93 C 280.25,515.56 276.2,517.51 271.81,518.81 L 271.81,518.81 L 271.81,518.81 L 271.81,518.81 C 268.62,519.75 265.45,520.31 262.3,520.49 z "
   style="fill:#0070ff;fill-rule:nonzero;stroke:#0070ff;stroke-width:0"
   id="path16" />
<path
   d="M 258.05,438.39 L 258.05,520.5 L 258.05,520.5 C 252.46,520.23 247.03,518.75 241.75,516.09 C 232.08,511.23 225.39,503.72 221.66,493.57 C 219.93,488.86 219.07,484.12 219.07,479.37 C 219.07,473.97 220.18,468.64 222.41,463.39 C 226.63,453.43 233.69,446.26 243.57,441.88 C 248.23,439.82 253.06,438.65 258.05,438.39 z "
   style="fill:#0070ff;fill-rule:nonzero;stroke:#0070ff;stroke-width:0"
   id="path18" />
<path
   d="M 243.53,475.46 L 241.48,475.51 L 241.45,475.42 L 241.45,475.42 C 241.45,475.41 241.44,475.38 241.44,475.38 C 241.38,475.22 241.31,475.07 241.22,474.93 C 241.11,474.76 240.96,474.6 240.79,474.48 C 240.77,474.47 240.73,474.45 240.71,474.44 C 240.69,474.42 240.58,474.37 240.55,474.36 L 240.55,474.36 L 240.77,473.41 L 241.27,473.5 L 241.36,473.16 L 240.1,472.82 L 240,473.2 L 240.42,473.33 L 240.19,474.23 L 240.19,474.23 C 240.15,474.21 240.07,474.2 240.02,474.2 C 239.39,474.11 238.8,474.36 238.38,474.85 C 237.97,475.33 237.82,476.05 238,476.66 C 238.01,476.67 238.01,476.7 238.02,476.71 L 238.02,476.71 L 238.05,476.82 L 231.82,481.86 L 231.17,480.86 L 231.17,480.86 C 232.37,479.89 233.12,478.59 233.38,477.03 C 233.64,475.48 233.35,474 232.54,472.66 C 231.72,471.33 230.55,470.43 229.08,470.02 C 227.61,469.6 226.16,469.75 224.8,470.47 C 224.1,470.84 223.47,471.36 222.96,471.99 C 222.44,472.61 222.06,473.35 221.82,474.13 C 221.59,474.92 221.5,475.75 221.57,476.57 C 221.65,477.39 221.89,478.19 222.27,478.91 C 222.64,479.64 223.15,480.27 223.77,480.8 C 224.39,481.31 225.1,481.69 225.87,481.92 C 226.63,482.14 227.44,482.21 228.23,482.11 C 229.02,482.01 229.77,481.75 230.46,481.34 L 230.46,481.34 L 233.33,486.27 L 231.72,486.32 L 232.71,488.59 L 235.05,489.36 L 236.12,488.74 L 235.64,488.05 L 234.91,488.36 L 233.41,487.91 L 233.1,487.14 L 234.86,487.11 L 233.85,485.36 L 244.75,485.34 L 245.27,486.32 L 245.27,486.32 C 245.2,486.32 245.12,486.32 245.05,486.32 C 244.93,486.32 244.66,486.38 244.54,486.4 C 244.38,486.43 244.1,486.49 243.96,486.56 C 243.83,486.62 243.7,486.73 243.65,486.88 C 243.61,486.98 243.6,487.12 243.67,487.21 C 243.73,487.3 243.85,487.34 243.95,487.34 C 244.05,487.36 244.5,487.36 244.6,487.36 C 244.85,487.35 245.37,487.42 245.61,487.45 C 245.79,487.47 246.18,487.52 246.35,487.55 C 246.42,487.55 246.48,487.57 246.55,487.58 L 246.55,487.58 L 247.43,487.79 L 247.43,487.79 C 247.59,487.82 247.79,487.85 247.95,487.79 C 248.09,487.73 248.21,487.62 248.26,487.47 C 248.3,487.34 248.27,487.18 248.22,487.05 C 248.16,486.91 248.07,486.77 247.94,486.69 C 247.84,486.62 247.57,486.55 247.44,486.51 L 247.44,486.51 L 246.82,486.32 L 246.82,486.32 C 246.67,486.29 246.54,486.26 246.4,486.25 C 246.33,486.24 246.25,486.24 246.18,486.23 L 246.18,486.23 L 245.64,485.29 L 247.41,481.61 L 247.41,481.61 C 248.65,482.09 249.94,482.14 251.21,481.77 C 252.48,481.38 253.55,480.62 254.34,479.53 C 255.15,478.43 255.55,477.16 255.56,475.78 C 255.56,474.41 255.16,473.14 254.36,472.04 C 253.61,470.99 252.6,470.25 251.41,469.84 C 250.22,469.43 248.99,469.42 247.79,469.8 C 246.58,470.18 245.56,470.9 244.79,471.94 C 244.02,472.97 243.59,474.16 243.53,475.46 z "
   style="fill:white;fill-rule:nonzero;stroke:white;stroke-width:0"
   id="path20" />
<path
   d="M 273.69,497.39 L 273.69,497.39 L 273.69,497.39 L 273.68,497.4 L 273.68,497.4 L 273.68,497.4 L 273.67,497.41 L 273.66,497.42 L 273.66,497.42 L 273.65,497.43 L 273.64,497.44 L 273.63,497.45 L 273.62,497.46 L 273.61,497.47 L 273.6,497.49 L 273.59,497.5 L 273.58,497.51 L 273.56,497.54 L 273.54,497.57 L 273.52,497.6 L 273.5,497.64 L 273.48,497.67 L 273.46,497.71 L 273.44,497.75 L 273.42,497.79 L 273.41,497.81 L 273.41,497.83 L 273.4,497.85 L 273.4,497.87 L 273.39,497.88 L 273.39,497.9 L 273.39,497.92 L 273.39,497.94 L 273.39,497.96 L 273.39,497.98 L 273.39,498 L 273.4,498.02 L 273.4,498.04 L 273.41,498.05 L 273.42,498.07 L 273.43,498.09 L 273.44,498.1 L 273.45,498.12 L 273.46,498.14 L 273.48,498.15 L 273.5,498.17 L 273.52,498.18 L 273.54,498.19 L 273.56,498.21 L 273.59,498.22 L 273.61,498.23 L 273.64,498.24 L 273.67,498.25 L 273.71,498.26 L 273.74,498.27 L 273.78,498.27 L 273.82,498.28 C 274.71,498.41 274.62,498.28 274.8,498.93 C 275,499.57 275.2,499.89 275.5,499.86 C 275.81,499.83 275.97,500.07 276.17,499.97 C 276.38,499.89 276.59,499.77 276.81,499.76 C 277.03,499.75 277.67,499.85 277.82,499.76 C 277.96,499.68 278.25,499.56 278.25,499.25 C 278.25,498.93 278.14,497.95 278.37,497.85 C 278.58,497.75 279.04,497.56 278.98,497.26 C 278.92,496.96 278.76,496.97 278.45,496.97 C 278.14,496.97 277.96,496.9 277.98,496.71 C 277.99,496.52 278.12,496.21 278.11,495.87 C 278.09,495.52 277.83,494.81 277.6,494.48 C 277.36,494.16 277.47,494.02 277.48,493.91 C 277.5,493.79 277.64,493.7 277.76,493.59 C 277.88,493.49 279.93,492.17 280.25,491.94 C 280.57,491.71 281.13,491.41 281.23,490.37 C 281.33,489.34 281.24,488.72 281.49,488.21 C 281.73,487.71 281.91,486.36 282.07,485.29 C 282.23,484.23 282.36,483.34 282.38,483.02 C 282.39,482.7 282.64,482.19 282.7,482.05 C 282.75,481.9 284,479.27 284.28,478.87 C 284.28,478.87 284.43,478.62 284.31,478.55 C 284.19,478.48 284.13,478.32 284.34,478.25 C 284.54,478.18 284.75,477.83 284.83,477.68 C 284.92,477.52 285.05,477.14 284.95,476.94 C 284.84,476.74 284.57,476.51 284.79,476.27 C 285.01,476.02 285.16,475.89 285.31,475.66 C 285.46,475.43 285.95,474.64 286.01,474.47 C 286.07,474.3 286.2,474.14 286.37,474.11 C 286.55,474.08 287.19,474.01 287.49,473.89 C 287.79,473.78 288.24,473.52 288.46,473.52 C 288.68,473.52 289.06,473.52 289.42,473.41 C 289.79,473.29 289.8,473.39 289.8,473.51 C 289.8,473.62 289.83,473.75 289.67,473.8 C 289.51,473.86 289.18,473.98 289.07,474.23 C 288.97,474.47 288.75,474.84 288.9,475.3 C 288.9,475.3 288.75,475.99 289,476.35 C 289.25,476.71 289.7,476.97 289.86,476.97 C 290.02,476.97 290.23,476.86 290.41,476.91 C 290.59,476.97 290.66,477.04 290.85,476.97 C 291.04,476.9 291.27,476.77 291.43,476.75 C 291.59,476.74 291.79,476.71 291.91,476.63 C 292.02,476.54 292.29,476.41 292.39,476.22 C 292.49,476.03 292.49,475.95 292.47,475.56 C 292.46,475.17 292.46,474.75 292.53,474.62 C 292.61,474.5 292.61,474.19 292.49,474.08 C 292.38,473.97 292.04,473.78 291.86,473.78 C 291.69,473.78 291.66,473.72 291.66,473.62 C 291.66,473.52 291.6,473.22 291.63,473.13 C 291.66,473.04 291.66,472.93 291.83,472.86 C 292.01,472.79 292.68,472.37 292.89,472.12 C 293.11,471.88 293.5,471.54 293.54,471.45 C 293.56,471.36 293.48,471.31 293.48,471.31 C 293.48,471.31 293.48,471.2 293.59,471.02 C 293.71,470.83 294.01,470.27 294.12,469.88 C 294.22,469.49 294.55,468.41 294.55,468.2 C 294.55,467.98 294.77,467.2 294.77,467.09 C 294.77,466.98 294.64,467 294.64,467 C 294.64,467 294.73,466.66 294.73,466.5 C 294.73,466.34 294.71,466.23 294.58,466.16 C 294.45,466.09 294.45,465.97 294.3,465.97 C 294.16,465.97 294.2,466.04 294.06,466.11 C 293.91,466.18 293.78,466.22 293.81,466.34 C 293.84,466.48 293.82,466.83 293.82,466.91 C 293.82,466.98 293.8,467.05 293.74,467.05 C 293.68,467.05 293.54,467.12 293.54,467.34 C 293.54,467.55 293.46,468.01 293.42,468.17 C 293.38,468.33 293.45,468.6 293.38,468.73 C 293.3,468.86 292.72,469.52 292.62,469.71 C 292.52,469.89 292.43,469.72 292.43,469.62 C 292.43,469.52 292.45,468.59 292.53,468.41 C 292.62,468.24 292.53,468.01 292.7,467.67 C 292.85,467.32 293.21,465.81 293.27,465.6 C 293.33,465.38 293.49,465.05 293.5,464.73 C 293.52,464.42 293.68,463.96 293.26,463.97 C 292.84,463.99 292.61,463.81 292.23,463.94 C 291.85,464.07 291.82,463.94 291.83,463.78 C 291.85,463.63 291.91,463.05 292.01,462.78 C 292.11,462.5 291.88,461.66 292.02,461.37 C 292.17,461.08 292.34,461.03 292.39,460.94 C 292.45,460.82 292.49,460.54 292.23,460.07 C 291.96,459.62 291.17,459.4 291.02,459.88 C 290.88,460.35 291.05,460.44 291.15,460.59 C 291.25,460.75 291.25,460.97 291.08,461.12 C 290.91,461.28 290.55,462.14 290.48,462.35 C 290.41,462.55 290.07,463.58 290,463.8 C 289.93,464.02 289.82,464.19 289.7,463.94 C 289.58,463.7 289.3,463.12 289.35,462.86 C 289.39,462.61 289.46,462.35 289.46,462.1 C 289.46,461.86 289.33,460.91 289.25,460.65 C 289.16,460.39 289.25,460.32 289.29,460.16 C 289.33,460 289.55,459.69 289.35,459.55 C 289.14,459.4 288.03,458.95 287.85,458.89 C 287.68,458.84 287.43,459.14 287.55,459.44 C 287.66,459.75 288.04,459.97 288.1,460.09 C 288.16,460.2 288.16,460.25 288.07,460.55 C 287.98,460.85 287.91,462.17 287.97,462.38 C 288.03,462.57 288.07,462.95 287.88,463.08 C 287.7,463.21 287.65,463.61 287.7,463.83 C 287.73,464.04 287.84,464.75 287.81,464.86 C 287.78,464.98 287.84,465.11 287.65,465.16 C 287.46,465.22 286.55,465.68 286.48,465.98 C 286.4,466.29 286.48,466.56 286.7,466.85 C 286.94,467.13 287.81,468.47 288,469.09 C 288.18,469.71 288.36,470.47 288.36,470.9 C 288.36,471.33 288.39,471.64 288.24,471.71 C 288.1,471.78 286.55,472.53 286.27,472.51 C 285.99,472.5 284.98,473.07 284.82,473.29 C 284.66,473.51 284.43,473.66 284.11,474.77 C 283.79,475.88 283.86,475.93 283.6,475.95 C 283.34,475.96 282.71,476.18 282.54,476.52 C 282.36,476.87 282.74,477.3 282.4,477.19 C 282.07,477.07 282.04,476.97 281.81,477.37 C 281.58,477.78 280.32,480.66 279.95,481.92 C 279.57,483.17 279.59,482.49 279.59,482.28 C 279.59,482.06 279.72,480.73 279.82,480.46 C 279.92,480.19 279.91,479.79 279.93,479.37 C 279.96,478.95 280.11,477.49 280.23,476.91 C 280.34,476.34 280.12,476.51 279.93,476.44 C 279.75,476.37 279.7,476.22 279.72,476.11 C 279.73,475.99 279.48,473.97 279.44,473.55 C 279.4,473.13 279.04,470.8 278.99,470.6 C 278.95,470.4 278.95,470.3 278.99,470.11 C 279.04,469.92 279.67,466.34 279.67,466 C 279.67,465.66 279.98,464.25 279.99,464.03 C 280.01,463.81 279.95,463.83 279.91,463.7 C 279.86,463.57 279.93,463.52 280.01,463.34 C 280.08,463.15 280.38,463.08 280.34,462.72 C 280.3,462.36 280.12,462.28 279.93,462.03 C 279.75,461.79 279.36,460.68 278.69,460.37 C 278.02,460.05 277.5,460.23 277.38,460.55 C 277.26,460.86 277.32,461.33 277.71,461.48 C 277.71,461.48 277.92,461.6 277.95,461.71 C 277.98,461.83 277.95,461.99 277.79,462 C 277.62,462.02 277.6,462.52 277.42,463.7 C 277.25,464.88 276.96,466.18 276.79,466.8 C 276.61,467.42 275.95,470.11 275.88,470.31 C 275.81,470.51 275.75,471.09 275.8,471.45 C 275.84,471.81 275.75,474.23 275.5,473.14 C 275.26,472.07 274.75,470.3 274.65,469.97 C 274.55,469.64 274.52,469.45 274.52,469.3 C 274.52,469.16 274.66,463.87 274.57,461.41 C 274.57,461.41 274.59,461.27 274.46,461.26 C 274.33,461.24 274.53,460.98 274.56,460.85 C 274.59,460.72 274.82,460.23 274.43,460.06 C 274.04,459.89 273.44,459.82 273.04,459.58 C 272.62,459.36 271.57,459.12 270.91,459.37 C 270.26,459.62 270.93,460.65 271.89,460.59 C 271.89,460.59 272.28,460.64 271.96,460.72 C 271.96,460.72 271.83,460.73 271.84,461.04 C 271.86,461.34 271.86,465.68 271.7,467.44 C 271.54,469.2 271.27,471.14 271.67,472.91 C 272.06,474.68 272.19,476.67 271.95,476.71 C 271.7,476.75 271.39,476.78 271.45,477.21 C 271.51,477.65 271.8,480.12 271.93,480.9 C 272.06,481.67 272.5,482.35 272.47,482.8 C 272.44,483.24 272.42,485.4 272.04,484.66 C 271.67,483.93 271.42,483.6 271.41,482.68 C 271.39,481.76 271.07,480.18 270.95,479.8 C 270.84,479.43 270.62,477.95 270.61,477.54 C 270.59,477.14 270.39,477.36 270.24,477.37 C 270.1,477.39 269.91,477.52 269.86,477.27 C 269.82,477.03 269.92,477.03 269.97,476.8 C 270.02,476.57 270.12,476.12 269.71,475.79 C 269.29,475.46 269.15,475.1 268.56,475.17 C 267.96,475.25 267.79,475.75 267.85,476.29 C 267.91,476.84 268.07,477.21 268.27,477.42 C 268.48,477.61 268.4,477.71 268.29,477.75 C 268.17,477.79 267.91,477.73 267.93,478.08 C 267.96,478.42 268.4,481.41 268.45,482.12 C 268.52,482.82 268.44,484.43 268.8,485.43 C 269.14,486.42 269.84,489.07 270.02,490.33 C 270.18,491.59 270.87,492.34 271.29,492.59 C 271.71,492.83 274.46,493.85 274.61,494 C 274.75,494.14 274.97,494.41 274.79,494.77 C 274.62,495.13 274.29,495.55 274.29,496.07 C 274.29,496.58 274.34,497.04 274.17,497.11 C 274,497.19 273.71,497.32 273.69,497.39 L 273.69,497.39 L 273.69,497.39 L 273.69,497.39 z "
   style="fill:white;fill-rule:nonzero;stroke:white;stroke-width:0"
   id="path22" />
<path
   d="M 230.7,480.13 L 228.07,475.82 L 227.89,475.51 L 227.89,475.51 C 227.77,475.31 227.47,475.36 227.27,475.48 C 227.11,475.57 227.01,475.77 227.1,475.95 C 227.11,475.99 227.26,476.23 227.28,476.26 L 227.28,476.26 L 229.96,480.63 L 229.96,480.63 C 228.82,481.27 227.58,481.43 226.32,481.12 C 225.07,480.8 224.03,480.08 223.29,478.98 C 222.55,477.89 222.25,476.63 222.39,475.31 C 222.54,473.97 223.11,472.82 224.07,471.93 C 224.59,471.45 225.19,471.08 225.85,470.85 C 226.5,470.62 227.19,470.52 227.88,470.57 C 228.57,470.62 229.25,470.82 229.86,471.14 C 230.48,471.47 231.03,471.92 231.47,472.47 C 231.92,473.02 232.25,473.66 232.45,474.35 C 232.66,475.04 232.72,475.76 232.65,476.47 C 232.57,477.19 232.36,477.88 232.03,478.5 C 231.69,479.14 231.24,479.68 230.7,480.13 z "
   style="fill:#0070ff;fill-rule:nonzero;stroke:#0070ff;stroke-width:0"
   id="path24" />
<path
   d="M 248.45,475.48 L 244.41,475.43 L 244.41,475.43 C 244.49,474.26 244.91,473.2 245.65,472.32 C 246.4,471.44 247.35,470.86 248.45,470.61 C 249.55,470.37 250.65,470.5 251.68,470.99 C 252.7,471.49 253.5,472.27 254.03,473.31 C 254.52,474.27 254.71,475.32 254.6,476.41 C 254.48,477.49 254.06,478.47 253.37,479.29 C 252.68,480.11 251.8,480.68 250.79,480.95 C 249.77,481.21 248.74,481.16 247.76,480.79 L 247.76,480.79 L 249.6,476.9 L 249.6,476.9 C 249.81,476.88 250.02,476.81 250.19,476.68 C 250.37,476.55 250.5,476.37 250.58,476.16 C 250.66,475.95 250.68,475.73 250.63,475.51 C 250.59,475.3 250.49,475.09 250.34,474.94 C 250.2,474.78 250.03,474.67 249.83,474.62 C 249.64,474.56 249.43,474.57 249.23,474.62 C 249.04,474.68 248.87,474.79 248.73,474.94 C 248.59,475.09 248.49,475.28 248.45,475.48 z "
   style="fill:#0070ff;fill-rule:nonzero;stroke:#0070ff;stroke-width:0"
   id="path26" />
<path
   d="M 233.3,484.4 L 244.15,484.38 L 240.48,477.86 L 240.48,477.86 C 240.35,477.89 240.18,477.95 240.04,477.96 C 239.94,477.98 239.8,477.98 239.7,477.98 L 239.7,477.98 L 239.57,478.57 L 239.97,478.69 L 239.87,479.05 L 238.63,478.71 L 238.73,478.34 L 239.14,478.46 L 239.27,477.93 L 239.27,477.93 C 239.14,477.89 238.97,477.83 238.86,477.75 C 238.77,477.7 238.66,477.59 238.59,477.52 L 238.59,477.52 L 232.24,482.58 L 233.3,484.4 z "
   style="fill:#0070ff;fill-rule:nonzero;stroke:#0070ff;stroke-width:0"
   id="path28" />
<path
   d="M 243.58,476.29 L 241.58,476.3 L 241.58,476.3 C 241.57,476.37 241.55,476.5 241.52,476.57 C 241.49,476.68 241.44,476.79 241.4,476.9 C 241.34,476.99 241.29,477.09 241.23,477.17 C 241.21,477.19 241.19,477.22 241.18,477.23 L 241.18,477.23 L 241.08,477.34 L 245.12,484.33 L 246.56,481.25 L 246.56,481.25 C 245.76,480.77 245.07,480.11 244.56,479.32 C 243.98,478.42 243.64,477.38 243.58,476.29 z "
   style="fill:#0070ff;fill-rule:nonzero;stroke:#0070ff;stroke-width:0"
   id="path30" />
<path
   d="M 238.48,476.46 L 239.9,475.43 L 240.07,474.77 L 240.07,474.77 C 240.04,474.76 239.98,474.74 239.93,474.74 C 239.12,474.62 238.46,475.34 238.45,476.18 C 238.45,476.26 238.46,476.39 238.48,476.46 z "
   style="fill:#0070ff;fill-rule:nonzero;stroke:#0070ff;stroke-width:0"
   id="path32" />
<path
   d="M 238.95,477.16 L 239.01,477.21 L 239.01,477.21 C 239.02,477.22 239.04,477.24 239.04,477.24 C 239.13,477.3 239.21,477.35 239.3,477.38 C 239.33,477.38 239.37,477.39 239.4,477.41 L 239.4,477.41 L 239.57,476.68 L 238.95,477.16 z "
   style="fill:#0070ff;fill-rule:nonzero;stroke:#0070ff;stroke-width:0"
   id="path34" />
<path
   d="M 239.91,477.01 L 239.8,477.44 L 239.8,477.44 C 239.83,477.44 239.9,477.45 239.93,477.45 C 239.96,477.45 240.01,477.44 240.04,477.43 L 240.08,477.43 L 240.08,477.43 L 240.15,477.41 L 239.91,477.01 z "
   style="fill:#0070ff;fill-rule:nonzero;stroke:#0070ff;stroke-width:0"
   id="path36" />
<path
   d="M 240.46,476.38 L 240.8,476.96 L 240.87,476.86 L 240.9,476.82 L 240.9,476.82 C 240.96,476.73 241.02,476.6 241.05,476.5 C 241.06,476.46 241.07,476.41 241.08,476.37 L 241.08,476.37 L 240.46,476.38 z "
   style="fill:#0070ff;fill-rule:nonzero;stroke:#0070ff;stroke-width:0"
   id="path38" />
<path
   d="M 240.3,475.45 L 241,475.46 L 241,475.46 C 240.98,475.44 240.93,475.34 240.92,475.32 C 240.91,475.31 240.89,475.28 240.88,475.26 C 240.82,475.17 240.74,475.07 240.66,475 C 240.65,474.99 240.61,474.96 240.6,474.95 L 240.6,474.95 L 240.47,474.85 L 240.3,475.45 z "
   style="fill:#0070ff;fill-rule:nonzero;stroke:#0070ff;stroke-width:0"
   id="path40" />
<path
   d="M 248.79,476.66 L 248.78,476.65 L 248.77,476.65 L 248.76,476.64 L 248.75,476.63 L 248.74,476.63 L 248.73,476.62 L 248.72,476.61 L 248.71,476.6 L 248.7,476.59 L 248.69,476.58 L 248.68,476.57 L 248.67,476.56 L 248.66,476.55 L 248.65,476.54 L 248.64,476.53 L 248.63,476.52 C 248.59,476.48 248.56,476.43 248.54,476.37 L 248.54,476.37 L 244.47,476.32 L 244.47,476.32 C 244.5,477.32 244.83,478.27 245.41,479.06 C 245.84,479.63 246.4,480.11 247.03,480.43 L 247.03,480.43 L 248.79,476.66 z "
   style="fill:#0070ff;fill-rule:nonzero;stroke:#0070ff;stroke-width:0"
   id="path42" />
</g>  </g>
</svg>
