<?xml version="1.0" encoding="UTF-8" standalone="no"?>
<svg
   xmlns:dc="http://purl.org/dc/elements/1.1/"
   xmlns:cc="http://creativecommons.org/ns#"
   xmlns:rdf="http://www.w3.org/1999/02/22-rdf-syntax-ns#"
   xmlns:svg="http://www.w3.org/2000/svg"
   xmlns="http://www.w3.org/2000/svg"
   xmlns:sodipodi="http://sodipodi.sourceforge.net/DTD/sodipodi-0.dtd"
   xmlns:inkscape="http://www.inkscape.org/namespaces/inkscape"
   viewBox="0 0 94.866669 132.66667"
   height="132.66667"
   width="94.866669"
   xml:space="preserve"
   id="svg2"
   version="1.1"
   sodipodi:docname="speed_display.svg"
   inkscape:version="0.92.3 (2405546, 2018-03-11)"><sodipodi:namedview
     pagecolor="#ffffff"
     bordercolor="#666666"
     borderopacity="1"
     objecttolerance="10"
     gridtolerance="10"
     guidetolerance="10"
     inkscape:pageopacity="0"
     inkscape:pageshadow="2"
     inkscape:window-width="1392"
     inkscape:window-height="1129"
     id="namedview853"
     showgrid="false"
     inkscape:zoom="4.8797625"
     inkscape:cx="44.559943"
     inkscape:cy="63.920867"
     inkscape:window-x="260"
     inkscape:window-y="0"
     inkscape:window-maximized="0"
     inkscape:current-layer="svg2" /><metadata
     id="metadata8"><rdf:RDF><cc:Work
         rdf:about=""><dc:format>image/svg+xml</dc:format><dc:type
           rdf:resource="http://purl.org/dc/dcmitype/StillImage" /><dc:title></dc:title></cc:Work></rdf:RDF></metadata><defs
     id="defs6" /><path
     id="path14"
     style="fill:#ffffff;fill-opacity:1;fill-rule:nonzero;stroke:none;stroke-width:0.13333333"
     d="M 0.18906266,132.47761 H 94.67706 V 0.19481065 H 0.18906266 Z"
     inkscape:connector-curvature="0" /><path
     id="path16"
     style="fill:none;stroke:#231f20;stroke-width:0.37799999;stroke-linecap:butt;stroke-linejoin:miter;stroke-miterlimit:4;stroke-dasharray:none;stroke-opacity:1"
     d="M 0.18906266,132.47761 H 94.677064 V 0.19480665 H 0.18906266 V 132.47761"
     inkscape:connector-curvature="0" /><g
     aria-label="YOUR
SPEED"
     style="font-style:normal;font-variant:normal;font-weight:normal;font-stretch:normal;font-size:21.33333397px;line-height:125%;font-family:'DejaVu Sans';-inkscape-font-specification:'DejaVu Sans';text-align:center;letter-spacing:0px;word-spacing:0px;text-anchor:middle;fill:#000000;fill-opacity:1;stroke:none;stroke-width:1px;stroke-linecap:butt;stroke-linejoin:miter;stroke-opacity:1"
     id="text884"
     transform="matrix(0.95212196,0,0,0.95212196,2.2710019,0.46290736)"><path
       d="m 17.750771,9.9497186 h 2.260417 l 4.3125,6.3958334 4.28125,-6.3958334 h 2.260417 l -5.5,8.1458334 v 7.40625 h -2.114584 v -7.40625 z"
       id="path892"
       inkscape:connector-curvature="0" /><path
       d="m 38.073688,11.376802 q -2.291667,0 -3.645834,1.708333 -1.34375,1.708334 -1.34375,4.656251 0,2.9375 1.34375,4.645833 1.354167,1.708333 3.645834,1.708333 2.291667,0 3.625,-1.708333 1.34375,-1.708333 1.34375,-4.645833 0,-2.947917 -1.34375,-4.656251 -1.333333,-1.708333 -3.625,-1.708333 z m 0,-1.7083334 q 3.270833,0 5.229167,2.1979164 1.958333,2.1875 1.958333,5.875001 0,3.677083 -1.958333,5.875 -1.958334,2.1875 -5.229167,2.1875 -3.28125,0 -5.25,-2.1875 -1.958334,-2.1875 -1.958334,-5.875 0,-3.687501 1.958334,-5.875001 1.96875,-2.1979164 5.25,-2.1979164 z"
       id="path894"
       inkscape:connector-curvature="0" /><path
       d="m 48.313272,9.9497186 h 2.114584 v 9.4479174 q 0,2.5 0.90625,3.604166 0.90625,1.09375 2.9375,1.09375 2.020833,0 2.927083,-1.09375 0.90625,-1.104166 0.90625,-3.604166 V 9.9497186 h 2.114584 v 9.7083334 q 0,3.041667 -1.510417,4.59375 -1.5,1.552084 -4.4375,1.552084 -2.947917,0 -4.458334,-1.552084 -1.5,-1.552083 -1.5,-4.59375 z"
       id="path896"
       inkscape:connector-curvature="0" /><path
       d="m 71.552856,18.210136 q 0.677083,0.229166 1.3125,0.979166 0.645833,0.75 1.291667,2.0625 l 2.135416,4.25 h -2.260416 l -1.989584,-3.989583 q -0.770833,-1.5625 -1.5,-2.072917 -0.71875,-0.510416 -1.96875,-0.510416 h -2.291667 v 6.572916 H 64.177856 V 9.9497186 h 4.75 q 2.666667,0 3.979167,1.1145834 1.3125,1.114583 1.3125,3.364583 0,1.46875 -0.6875,2.437501 -0.677084,0.96875 -1.979167,1.34375 z m -5.270834,-6.531251 v 5.520834 h 2.645834 q 1.520833,0 2.291667,-0.697917 0.78125,-0.708333 0.78125,-2.072917 0,-1.364583 -0.78125,-2.052083 -0.770834,-0.697917 -2.291667,-0.697917 z"
       id="path898"
       inkscape:connector-curvature="0" /><path
       d="m 23.854938,37.126803 v 2.052083 q -1.197917,-0.572916 -2.260417,-0.854167 -1.0625,-0.28125 -2.052083,-0.28125 -1.71875,0 -2.65625,0.666667 -0.927084,0.666667 -0.927084,1.895834 0,1.03125 0.614584,1.5625 0.625,0.520833 2.354166,0.84375 l 1.270834,0.260416 q 2.354166,0.447917 3.46875,1.583334 1.125,1.125 1.125,3.020833 0,2.260417 -1.520834,3.427084 -1.510416,1.166666 -4.4375,1.166666 -1.104166,0 -2.354166,-0.25 -1.239584,-0.25 -2.572917,-0.739583 v -2.166667 q 1.28125,0.71875 2.510417,1.083334 1.229166,0.364583 2.416666,0.364583 1.802084,0 2.78125,-0.708333 0.979167,-0.708334 0.979167,-2.020834 0,-1.145833 -0.708333,-1.791667 -0.697917,-0.645833 -2.302084,-0.96875 l -1.28125,-0.25 q -2.354166,-0.46875 -3.40625,-1.46875 -1.052083,-1 -1.052083,-2.78125 0,-2.0625 1.447917,-3.25 1.458333,-1.1875 4.010416,-1.1875 1.09375,0 2.229167,0.197917 1.135417,0.197916 2.322917,0.59375 z"
       id="path900"
       inkscape:connector-curvature="0" /><path
       d="m 30.177855,38.345553 v 5.84375 h 2.645833 q 1.46875,0 2.270833,-0.760417 0.802084,-0.760416 0.802084,-2.166666 0,-1.395834 -0.802084,-2.15625 -0.802083,-0.760417 -2.270833,-0.760417 z m -2.104167,-1.729167 h 4.75 q 2.614583,0 3.947917,1.1875 1.34375,1.177084 1.34375,3.458334 0,2.302083 -1.34375,3.479166 -1.333334,1.177084 -3.947917,1.177084 h -2.645833 v 6.25 h -2.104167 z"
       id="path902"
       inkscape:connector-curvature="0" /><path
       d="m 40.948689,36.616386 h 9.833333 v 1.770833 h -7.729166 v 4.604167 h 7.40625 v 1.770834 h -7.40625 v 5.635417 h 7.916666 V 52.16847 H 40.948689 Z"
       id="path904"
       inkscape:connector-curvature="0" /><path
       d="m 54.448689,36.616386 h 9.833333 v 1.770833 h -7.729166 v 4.604167 h 7.40625 v 1.770834 h -7.40625 v 5.635417 h 7.916666 V 52.16847 H 54.448689 Z"
       id="path906"
       inkscape:connector-curvature="0" /><path
       d="m 70.052856,38.345553 v 12.09375 h 2.541666 q 3.21875,0 4.708334,-1.458333 1.5,-1.458334 1.5,-4.604167 0,-3.125 -1.5,-4.572917 -1.489584,-1.458333 -4.708334,-1.458333 z m -2.104167,-1.729167 h 4.322917 q 4.520833,0 6.635416,1.885417 2.114584,1.875 2.114584,5.875 0,4.020833 -2.125,5.90625 -2.125,1.885417 -6.625,1.885417 h -4.322917 z"
       id="path908"
       inkscape:connector-curvature="0" /></g><g
     aria-label="67"
     style="font-style:normal;font-variant:normal;font-weight:normal;font-stretch:normal;font-size:74.66666412px;line-height:125%;font-family:'DejaVu Sans';-inkscape-font-specification:'DejaVu Sans';letter-spacing:0px;word-spacing:0px;fill:#000000;fill-opacity:1;stroke:none;stroke-width:1px;stroke-linecap:butt;stroke-linejoin:miter;stroke-opacity:1"
     id="text890"
     transform="matrix(0.96371283,0,0,0.96371283,1.7212116,2.3453262)"><path
       d="m 25.138794,89.898001 q -4.958333,0 -7.875,3.390625 -2.880208,3.390625 -2.880208,9.296874 0,5.86979 2.880208,9.29688 2.916667,3.39062 7.875,3.39062 4.958333,0 7.838541,-3.39062 2.916667,-3.42709 2.916667,-9.29688 0,-5.906249 -2.916667,-9.296874 -2.880208,-3.390625 -7.838541,-3.390625 z M 39.758585,66.819877 v 6.708333 q -2.770833,-1.3125 -5.614583,-2.005208 -2.807292,-0.692709 -5.578125,-0.692709 -7.291666,0 -11.15625,4.921875 -3.828125,4.921875 -4.375,14.875 2.151042,-3.171875 5.395834,-4.848958 3.244791,-1.713542 7.145833,-1.713542 8.203124,0 12.942708,4.994791 4.776041,4.958334 4.776041,13.526041 0,8.38542 -4.958333,13.45313 -4.958333,5.0677 -13.197916,5.0677 -9.442708,0 -14.4375,-7.21875 -4.9947913,-7.2552 -4.9947913,-20.999996 0,-12.906249 6.1250003,-20.562499 6.124999,-7.692708 16.442707,-7.692708 2.770834,0 5.578125,0.546875 2.84375,0.546875 5.90625,1.640625 z"
       id="path911"
       inkscape:connector-curvature="0" /><path
       d="m 54.159625,65.616752 h 34.999999 v 3.135416 L 69.399208,120.04904 H 61.7065 L 80.300249,71.814668 H 54.159625 Z"
       id="path913"
       inkscape:connector-curvature="0" /></g></svg>