<?xml version="1.0" encoding="UTF-8" standalone="no"?>
<!DOCTYPE svg PUBLIC "-//W3C//DTD SVG 1.0//EN" "http://www.w3.org/TR/2001/REC-SVG-20010904/DTD/svg10.dtd">
<svg
   xmlns:svg="http://www.w3.org/2000/svg"
   xmlns="http://www.w3.org/2000/svg"
   version="1.0"
   width="106.29932"
   height="106.29932"
   id="svg1891">
  <defs
     id="defs1893" />
  <g
     transform="translate(-212.5647,-259.2125)"
     id="layer1">
    <g
       transform="matrix(1.249992,0,0,-1.249992,-104.9333,843.3838)"
       style="font-style:normal;font-variant:normal;font-weight:normal;font-stretch:normal;letter-spacing:normal;word-spacing:normal;text-anchor:start;fill:none;fill-opacity:1;stroke:black;stroke-linecap:butt;stroke-linejoin:miter;stroke-miterlimit:10.43299961;stroke-dasharray:none;stroke-dashoffset:0;stroke-opacity:1"
       id="g10"
       xml:space="preserve">
<path
   d="M 296.52,467.34 L 294.33,467.29 L 292.17,467.12 L 290.04,466.85 L 287.95,466.48 L 285.89,466.01 L 283.87,465.43 L 281.9,464.76 L 279.97,464 L 278.08,463.15 L 276.25,462.21 L 274.47,461.19 L 272.74,460.08 L 271.08,458.9 L 269.47,457.64 L 267.93,456.3 L 266.45,454.89 L 265.04,453.41 L 263.71,451.87 L 262.44,450.27 L 261.26,448.6 L 260.15,446.87 L 259.13,445.09 L 258.19,443.26 L 257.34,441.38 L 256.58,439.44 L 255.91,437.47 L 255.33,435.45 L 254.86,433.39 L 254.49,431.3 L 254.22,429.17 L 254.05,427.01 L 254,424.82 C 254,401.34 273.04,382.3 296.52,382.3 C 320,382.3 339.04,401.34 339.04,424.82 C 339.04,448.31 320,467.34 296.52,467.34 z "
   style="fill:#ff1721;fill-rule:nonzero;stroke:#ff1721;stroke-width:0"
   id="path12" />
<path
   d="M 296.52,453.17 L 295.06,453.14 L 293.62,453.03 L 292.2,452.85 L 290.8,452.6 L 289.43,452.28 L 288.09,451.9 L 286.77,451.45 L 285.48,450.94 L 284.23,450.38 L 283.01,449.75 L 281.82,449.07 L 280.67,448.33 L 279.56,447.54 L 278.49,446.7 L 277.46,445.81 L 276.47,444.87 L 275.54,443.88 L 274.64,442.85 L 273.8,441.78 L 273.01,440.67 L 272.28,439.52 L 271.59,438.33 L 270.97,437.11 L 270.4,435.86 L 269.89,434.57 L 269.45,433.25 L 269.06,431.91 L 268.75,430.54 L 268.5,429.14 L 268.32,427.72 L 268.21,426.28 L 268.17,424.82 C 268.17,409.17 280.86,396.48 296.52,396.48 C 312.17,396.48 324.86,409.17 324.86,424.82 C 324.86,440.48 312.17,453.17 296.52,453.17 z "
   style="fill:white;fill-rule:nonzero;stroke:white;stroke-width:0"
   id="path14" />
<path
   d="M 290.52,440.42 L 292.64,436.96 L 292.64,436.96 C 292.54,436.9 292.43,436.84 292.34,436.78 C 291.83,436.47 291.34,436.12 290.88,435.75 C 290.38,435.34 289.91,434.9 289.47,434.44 C 289.03,433.99 288.6,433.49 288.2,433.02 C 287.77,432.5 287.27,431.86 286.91,431.29 C 286.62,430.84 286.24,430.1 286,429.62 L 286,429.62 L 285.86,429.35 L 285.86,429.35 C 286,429.36 286.23,429.38 286.38,429.38 C 287.04,429.41 287.7,429.36 288.33,429.23 C 288.96,429.1 289.57,428.89 290.12,428.58 C 291.3,427.92 292.21,426.83 292.86,425.64 C 293.47,424.5 293.84,423.23 293.99,421.93 C 294.14,420.74 294.11,419.5 293.97,418.31 C 293.84,417.11 293.57,415.81 293.07,414.72 C 292.45,413.39 291.48,412.21 290.21,411.48 C 289.12,410.86 287.87,410.58 286.61,410.68 C 285.47,410.76 284.37,411.14 283.41,411.78 C 282.46,412.42 281.68,413.3 281.11,414.29 C 280.49,415.32 280.09,416.49 279.84,417.66 C 279.6,418.85 279.49,420.05 279.52,421.26 C 279.54,422.61 279.73,423.96 280.02,425.27 C 280.23,426.22 280.49,427.16 280.82,428.08 C 281.2,429.18 281.68,430.25 282.23,431.29 C 282.86,432.48 283.6,433.63 284.39,434.72 C 285.19,435.82 286.09,436.91 287.07,437.85 C 287.96,438.69 288.93,439.44 289.98,440.09 C 290.14,440.2 290.36,440.32 290.52,440.42 z "
   style="fill:black;fill-rule:nonzero;stroke-width:0"
   id="path16" />
<path
   d="M 306.11,439 L 306.22,438.99 L 306.33,438.99 L 306.44,438.98 L 306.55,438.97 L 306.67,438.96 L 306.78,438.95 L 306.89,438.93 L 307,438.91 L 307.11,438.89 L 307.22,438.87 L 307.33,438.85 L 307.44,438.82 L 307.55,438.79 L 307.66,438.76 L 307.77,438.73 L 307.88,438.7 C 309.11,438.33 310.17,437.45 310.95,436.43 C 311.63,435.53 312.12,434.45 312.48,433.39 C 312.82,432.36 313.06,431.29 313.22,430.22 C 313.38,429.12 313.46,427.98 313.5,426.87 C 313.55,425.59 313.53,424.3 313.45,423.01 C 313.36,421.81 313.21,420.61 313,419.43 C 312.75,418.07 312.4,416.7 311.89,415.42 C 311.44,414.27 310.79,413.02 309.88,412.19 C 308.86,411.25 307.54,410.7 306.15,410.66 C 304.85,410.61 303.55,411 302.52,411.82 C 301.42,412.69 300.65,414.14 300.16,415.47 C 299.69,416.73 299.37,418.07 299.16,419.41 C 298.97,420.57 298.86,421.82 298.77,423 C 298.68,424.15 298.63,425.45 298.68,426.61 C 298.73,427.8 298.89,429.04 299.09,430.21 C 299.27,431.24 299.5,432.33 299.82,433.33 C 300.16,434.41 300.64,435.51 301.32,436.41 C 302.12,437.49 303.23,438.38 304.53,438.74 C 305.03,438.88 305.59,439 306.11,439 z "
   style="fill:black;fill-rule:nonzero;stroke-width:0"
   id="path18" />
<path
   d="M 286.8,425.65 L 286.86,425.65 L 286.92,425.65 L 286.98,425.65 L 287.04,425.64 L 287.1,425.63 L 287.16,425.63 L 287.23,425.62 L 287.29,425.61 L 287.35,425.59 L 287.4,425.58 L 287.52,425.55 L 287.64,425.51 L 287.75,425.47 L 287.87,425.42 L 287.98,425.37 L 288.09,425.32 L 288.19,425.25 L 288.3,425.19 L 288.4,425.12 L 288.5,425.05 L 288.59,424.97 C 289.02,424.62 289.3,424.06 289.48,423.54 C 289.66,422.99 289.78,422.27 289.86,421.7 C 289.93,421.18 290.01,420.52 290.02,420 C 290.02,419.45 290.02,418.77 289.93,418.23 C 289.63,416.54 288.76,414.61 286.77,414.72 C 284.99,414.81 284.21,416.48 283.86,418.02 C 283.74,418.51 283.65,419.22 283.61,419.72 C 283.54,420.38 283.57,421.04 283.67,421.69 C 283.77,422.32 283.94,422.94 284.18,423.54 C 284.39,424.07 284.73,424.7 285.19,425.05 C 285.65,425.4 286.22,425.64 286.8,425.65 z "
   style="fill:white;fill-rule:nonzero;stroke:white;stroke-width:0"
   id="path20" />
<path
   d="M 306.14,434.92 L 306.2,434.92 L 306.26,434.92 L 306.32,434.92 L 306.38,434.91 L 306.44,434.9 L 306.5,434.9 L 306.55,434.89 L 306.61,434.87 L 306.67,434.86 L 306.72,434.84 L 306.78,434.83 L 306.83,434.81 L 306.89,434.78 L 306.94,434.76 L 306.99,434.73 L 307.05,434.71 C 307.32,434.57 307.54,434.31 307.71,434.06 C 307.98,433.63 308.17,433.04 308.3,432.55 C 308.51,431.72 308.68,430.87 308.81,430.02 C 308.94,429.14 309.04,428.25 309.1,427.36 C 309.16,426.45 309.19,425.54 309.19,424.63 C 309.18,423.6 309.14,422.57 309.05,421.54 C 308.95,420.51 308.81,419.44 308.59,418.43 C 308.43,417.73 308.22,417.02 307.95,416.36 C 307.81,416.02 307.63,415.65 307.41,415.35 C 307.27,415.15 307.09,414.95 306.88,414.81 C 306.65,414.67 306.38,414.57 306.11,414.56 C 305.79,414.54 305.45,414.62 305.19,414.8 C 305,414.93 304.82,415.15 304.69,415.35 C 304.48,415.66 304.3,416 304.16,416.35 C 303.89,417 303.7,417.75 303.57,418.44 C 303.39,419.42 303.27,420.6 303.19,421.59 C 303.11,422.57 303.04,423.7 303.04,424.68 C 303.04,425.58 303.09,426.5 303.19,427.4 C 303.28,428.29 303.41,429.18 303.56,430.07 C 303.71,430.88 303.88,431.72 304.1,432.51 C 304.24,433.02 304.45,433.63 304.75,434.07 C 304.92,434.32 305.14,434.56 305.41,434.7 C 305.63,434.82 305.88,434.91 306.14,434.92 z "
   style="fill:white;fill-rule:nonzero;stroke:white;stroke-width:0"
   id="path22" />
</g>  </g>
</svg>
