<?xml version="1.0" encoding="UTF-8" standalone="no"?>
<svg
   xmlns:dc="http://purl.org/dc/elements/1.1/"
   xmlns:cc="http://creativecommons.org/ns#"
   xmlns:rdf="http://www.w3.org/1999/02/22-rdf-syntax-ns#"
   xmlns:svg="http://www.w3.org/2000/svg"
   xmlns="http://www.w3.org/2000/svg"
   xmlns:sodipodi="http://sodipodi.sourceforge.net/DTD/sodipodi-0.dtd"
   xmlns:inkscape="http://www.inkscape.org/namespaces/inkscape"
   width="256"
   height="256"
   viewBox="0 0 204.8 204.8"
   id="svg2"
   version="1.1"
   inkscape:version="0.48.4 r9939"
   sodipodi:docname="spurpfeile1.svg">
  <metadata
     id="metadata84">
    <rdf:RDF>
      <cc:Work
         rdf:about="">
        <dc:format>image/svg+xml</dc:format>
        <dc:type
           rdf:resource="http://purl.org/dc/dcmitype/StillImage" />
        <dc:title></dc:title>
      </cc:Work>
    </rdf:RDF>
  </metadata>
  <defs
     id="defs82" />
  <sodipodi:namedview
     pagecolor="#ffffff"
     bordercolor="#666666"
     borderopacity="1"
     objecttolerance="10"
     gridtolerance="10"
     guidetolerance="10"
     inkscape:pageopacity="0"
     inkscape:pageshadow="2"
     inkscape:window-width="1394"
     inkscape:window-height="978"
     id="namedview80"
     showgrid="false"
     inkscape:zoom="2.1068702"
     inkscape:cx="25.155797"
     inkscape:cy="125.85593"
     inkscape:window-x="652"
     inkscape:window-y="25"
     inkscape:window-maximized="0"
     inkscape:current-layer="svg2" />
  <g
     transform="matrix(0,-1.5695709,2.2155503,0,14.513006,205.10865)"
     style="fill:#c4c6c7;fill-rule:nonzero;stroke:none"
     id="g4">
    <path
       inkscape:connector-curvature="0"
       d="m 0,79.3438 c 0,0 130.393,0 130.393,0 0,0 0,-79.3438 0,-79.3438 C 130.393,0 0,0 0,0 0,0 0,79.3438 0,79.3438"
       id="path6" />
  </g>
  <g
     transform="matrix(0,-1.5695709,2.2155503,0,64.760911,197.42328)"
     style="fill:#ffffff;fill-rule:nonzero;stroke:none"
     id="g8">
    <path
       inkscape:connector-curvature="0"
       d="m 0,0 c 0,0 11.2314,0 11.2314,0 0,0 0,2.0879 0,2.0879 0,0 -11.2314,0 -11.2314,0 C 0,2.0879 0,0 0,0"
       id="path10" />
  </g>
  <g
     transform="matrix(0,-1.5695709,2.2155503,0,64.760911,142.04988)"
     style="fill:#ffffff;fill-rule:nonzero;stroke:none"
     id="g12">
    <path
       inkscape:connector-curvature="0"
       d="m 0,0 c 0,0 12.3847,0 12.3847,0 0,0 0,2.0879 0,2.0879 0,0 -12.3847,0 -12.3847,0 C 0,2.0879 0,0 0,0"
       id="path14" />
  </g>
  <g
     transform="matrix(0,-1.5695709,2.2155503,0,64.760911,84.867904)"
     style="fill:#ffffff;fill-rule:nonzero;stroke:none"
     id="g16">
    <path
       inkscape:connector-curvature="0"
       d="m 0,0 c 0,0 12.3848,0 12.3848,0 0,0 0,2.0879 0,2.0879 0,0 -12.3848,0 -12.3848,0 C 0,2.0879 0,0 0,0"
       id="path18" />
  </g>
  <g
     transform="matrix(0,-1.5695709,2.2155503,0,64.760911,27.684355)"
     style="fill:#ffffff;fill-rule:nonzero;stroke:none"
     id="g20">
    <path
       inkscape:connector-curvature="0"
       d="m 0,0 c 0,0 12.384,0 12.384,0 0,0 0,2.0879 0,2.0879 0,0 -12.384,0 -12.384,0 C 0,2.0879 0,0 0,0"
       id="path22" />
  </g>
  <g
     transform="matrix(0,-1.5695709,2.2155503,0,135.90733,197.42328)"
     style="fill:#ffffff;fill-rule:nonzero;stroke:none"
     id="g24">
    <path
       inkscape:connector-curvature="0"
       d="m 0,0 c 0,0 11.2314,0 11.2314,0 0,0 0,2.0879 0,2.0879 0,0 -11.2314,0 -11.2314,0 C 0,2.0879 0,0 0,0"
       id="path26" />
  </g>
  <g
     transform="matrix(0,-1.5695709,2.2155503,0,135.90733,142.04988)"
     style="fill:#ffffff;fill-rule:nonzero;stroke:none"
     id="g28">
    <path
       inkscape:connector-curvature="0"
       d="m 0,0 c 0,0 12.3847,0 12.3847,0 0,0 0,2.0879 0,2.0879 0,0 -12.3847,0 -12.3847,0 C 0,2.0879 0,0 0,0"
       id="path30" />
  </g>
  <g
     transform="matrix(0,-1.5695709,2.2155503,0,135.90733,84.867904)"
     style="fill:#ffffff;fill-rule:nonzero;stroke:none"
     id="g32">
    <path
       inkscape:connector-curvature="0"
       d="m 0,0 c 0,0 12.3848,0 12.3848,0 0,0 0,2.0879 0,2.0879 0,0 -12.3848,0 -12.3848,0 C 0,2.0879 0,0 0,0"
       id="path34" />
  </g>
  <g
     transform="matrix(0,-1.5695709,2.2155503,0,135.90733,27.684355)"
     style="fill:#ffffff;fill-rule:nonzero;stroke:none"
     id="g36">
    <path
       inkscape:connector-curvature="0"
       d="m 0,0 c 0,0 12.384,0 12.384,0 0,0 0,2.0879 0,2.0879 0,0 -12.384,0 -12.384,0 C 0,2.0879 0,0 0,0"
       id="path38" />
  </g>
  <g
     transform="matrix(0,1.5695709,2.2155503,0,90.118609,67.942659)"
     style="fill:#ffffff;fill-rule:nonzero;stroke:none"
     id="g40">
    <path
       inkscape:connector-curvature="0"
       d="m 46.3682,7.5596 c 0,0 11.3051,-1.7998 11.3051,-1.7998 0,0 -57.6733,0 -57.6733,0 0,0 0,-2.0156 0,-2.0156 0,0 57.8163,0 57.8163,0 0,0 -11.4481,-1.9444 -11.4481,-1.9444 0,0 0,-1.7998 0,-1.7998 0,0 28.5121,4.6797 28.5121,4.6797 0,0 -28.5121,4.752 -28.5121,4.752 0,0 0,-1.8721 0,-1.8721"
       id="path42" />
  </g>
  <g
     transform="matrix(0,1.5695709,2.2155503,0,27.372516,68.299765)"
     style="fill:#ffffff;fill-rule:nonzero;stroke:none"
     id="g44">
    <path
       inkscape:connector-curvature="0"
       d="m 60.8413,7.91996 c 0,0 5.254,-4.67973 5.254,-4.67973 0,0 -17.063,4.03123 -17.063,4.03123 0,0 -49.0323,0 -49.0323,0 0,0 0,-2.0146 0,-2.0146 0,0 47.8077,0 47.8077,0 0,0 13.8966,-3.09671 13.8966,-3.09671 0,0 -15.3361,0 -15.3361,0 0,0 0.0723,-2.16015 0.0723,-2.16015 0,0 29.6638,0 29.6638,0 0,0 -11.88,11.4483 -11.88,11.4483 0,0 -3.383,-3.52834 -3.383,-3.52834"
       id="path46" />
  </g>
  <g
     transform="matrix(0,-1.5695709,2.2155503,0,148.35052,135.49426)"
     style="fill:#ffffff;fill-rule:nonzero;stroke:none"
     id="g48">
    <path
       inkscape:connector-curvature="0"
       d="m 46.3672,7.5595 c 0,0 11.3033,-1.7998 11.3033,-1.7998 0,0 -40.3912,0 -40.3912,0 0,0 8.2803,6.624 8.2803,6.624 0,0 0.5762,-4.8242 0.5762,-4.8242 0,0 3.5996,0.3604 3.5996,0.3604 0,0 -0.9356,8.0635 -0.9356,8.0635 0,0 -14.6162,-1.7999 -14.6162,-1.7999 0,0 0.1446,-1.9433 0.1446,-1.9433 0,0 8.1347,1.0068 8.1347,1.0068 0,0 -9.7187,-7.4873 -9.7187,-7.4873 0,0 -12.7442,0 -12.7442,0 0,0 0,-2.0166 0,-2.0166 0,0 57.8155,0 57.8155,0 0,0 -11.4483,-1.8721 -11.4483,-1.8721 0,0 0,-1.871 0,-1.871 0,0 28.5113,4.7509 28.5113,4.7509 0,0 -28.5113,4.6807 -28.5113,4.6807 0,0 0,-1.8721 0,-1.8721"
       id="path50" />
  </g>
</svg>
