<?xml version="1.0" encoding="UTF-8" standalone="no"?>
<!-- Created with Inkscape (http://www.inkscape.org/) -->

<svg
   xmlns:dc="http://purl.org/dc/elements/1.1/"
   xmlns:cc="http://creativecommons.org/ns#"
   xmlns:rdf="http://www.w3.org/1999/02/22-rdf-syntax-ns#"
   xmlns:svg="http://www.w3.org/2000/svg"
   xmlns="http://www.w3.org/2000/svg"
   xmlns:sodipodi="http://sodipodi.sourceforge.net/DTD/sodipodi-0.dtd"
   xmlns:inkscape="http://www.inkscape.org/namespaces/inkscape"
   width="124"
   height="70"
   id="svg2"
   version="1.1"
   inkscape:version="0.48.4 r9939"
   sodipodi:docname="stadium icon.svg">
  <defs
     id="defs4" />
  <sodipodi:namedview
     id="base"
     pagecolor="#ffffff"
     bordercolor="#666666"
     borderopacity="1.0"
     inkscape:pageopacity="0.0"
     inkscape:pageshadow="2"
     inkscape:zoom="5.6"
     inkscape:cx="68.650039"
     inkscape:cy="43.202683"
     inkscape:document-units="px"
     inkscape:current-layer="layer1"
     showgrid="false"
     fit-margin-top="0"
     fit-margin-left="0"
     fit-margin-right="0"
     fit-margin-bottom="0"
     inkscape:window-width="1680"
     inkscape:window-height="988"
     inkscape:window-x="-8"
     inkscape:window-y="-8"
     inkscape:window-maximized="1">
    <inkscape:grid
       type="xygrid"
       id="grid2987"
       empspacing="5"
       visible="true"
       enabled="true"
       snapvisiblegridlinesonly="true"
       originx="-111px"
       originy="-600px" />
  </sodipodi:namedview>
  <metadata
     id="metadata7">
    <rdf:RDF>
      <cc:Work
         rdf:about="">
        <dc:format>image/svg+xml</dc:format>
        <dc:type
           rdf:resource="http://purl.org/dc/dcmitype/StillImage" />
        <dc:title></dc:title>
      </cc:Work>
    </rdf:RDF>
  </metadata>
  <g
     inkscape:label="Layer 1"
     inkscape:groupmode="layer"
     id="layer1"
     transform="translate(-111,-382.36218)">
    <path
       sodipodi:type="arc"
       style="fill:#000000;fill-opacity:1;stroke:none"
       id="path2989"
       sodipodi:cx="150"
       sodipodi:cy="417.36218"
       sodipodi:rx="35"
       sodipodi:ry="35"
       d="m 185,417.36218 c 0,19.32997 -15.67003,35 -35,35 -19.32997,0 -35,-15.67003 -35,-35 0,-19.32996 15.67003,-35 35,-35 19.32997,0 35,15.67004 35,35 z"
       transform="translate(-4,0)" />
    <path
       transform="translate(50,0)"
       sodipodi:type="arc"
       style="fill:#000000;fill-opacity:1;stroke:none"
       id="path2989-1"
       sodipodi:cx="150"
       sodipodi:cy="417.36218"
       sodipodi:rx="35"
       sodipodi:ry="35"
       d="m 185,417.36218 c 0,19.32997 -15.67003,35 -35,35 -19.32997,0 -35,-15.67003 -35,-35 0,-19.32996 15.67003,-35 35,-35 19.32997,0 35,15.67004 35,35 z" />
    <rect
       style="fill:#000000;fill-opacity:1;stroke:none"
       id="rect3009"
       width="53.888321"
       height="70"
       x="145"
       y="382.36218" />
    <path
       sodipodi:type="arc"
       style="fill:#ffffff;fill-opacity:1;stroke:none"
       id="path2989-9"
       sodipodi:cx="150"
       sodipodi:cy="417.36218"
       sodipodi:rx="35"
       sodipodi:ry="35"
       d="m 185,417.36218 c 0,19.32997 -15.67003,35 -35,35 -19.32997,0 -35,-15.67003 -35,-35 0,-19.32996 15.67003,-35 35,-35 19.32997,0 35,15.67004 35,35 z"
       transform="matrix(0.8136613,0,0,0.91326523,21.393239,36.378392)" />
    <path
       transform="matrix(0.83662049,0,0,0.91326523,77.281332,36.378392)"
       sodipodi:type="arc"
       style="fill:#ffffff;fill-opacity:1;stroke:none"
       id="path2989-1-4"
       sodipodi:cx="150"
       sodipodi:cy="417.36218"
       sodipodi:rx="35"
       sodipodi:ry="35"
       d="m 185,417.36218 c 0,19.32997 -15.67003,35 -35,35 -19.32997,0 -35,-15.67003 -35,-35 0,-19.32996 15.67003,-35 35,-35 19.32997,0 35,15.67004 35,35 z" />
    <rect
       style="fill:#ffffff;fill-opacity:1;stroke:none"
       id="rect3009-8"
       width="63.072067"
       height="63.92857"
       x="142.24612"
       y="385.57645" />
    <path
       sodipodi:type="arc"
       style="fill:#000000;fill-opacity:1;stroke:none"
       id="path2989-9-8"
       sodipodi:cx="150"
       sodipodi:cy="417.36218"
       sodipodi:rx="35"
       sodipodi:ry="35"
       d="m 185,417.36218 c 0,19.32997 -15.67003,35 -35,35 -19.32997,0 -35,-15.67003 -35,-35 0,-19.32996 15.67003,-35 35,-35 19.32997,0 35,15.67004 35,35 z"
       transform="matrix(0.63289097,0,0,0.71938779,55.646107,117.08121)" />
    <path
       transform="matrix(0.63289097,0,0,0.71938779,100.3299,117.08121)"
       sodipodi:type="arc"
       style="fill:#000000;fill-opacity:1;stroke:none"
       id="path2989-1-4-2"
       sodipodi:cx="150"
       sodipodi:cy="417.36218"
       sodipodi:rx="35"
       sodipodi:ry="35"
       d="m 185,417.36218 c 0,19.32997 -15.67003,35 -35,35 -19.32997,0 -35,-15.67003 -35,-35 0,-19.32996 15.67003,-35 35,-35 19.32997,0 35,15.67004 35,35 z" />
    <rect
       style="fill:#000000;fill-opacity:1;stroke:none"
       id="rect3009-8-4"
       width="44.431377"
       height="50.357147"
       x="149.21542"
       y="392.14786" />
    <path
       sodipodi:type="arc"
       style="fill:#ffffff;fill-opacity:1;stroke:none"
       id="path2989-9-8-5"
       sodipodi:cx="150"
       sodipodi:cy="417.36218"
       sodipodi:rx="35"
       sodipodi:ry="35"
       d="m 185,417.36218 c 0,19.32997 -15.67003,35 -35,35 -19.32997,0 -35,-15.67003 -35,-35 0,-19.32996 15.67003,-35 35,-35 19.32997,0 35,15.67004 35,35 z"
       transform="matrix(0.59648782,0,0,0.60841744,64.6811,162.87124)" />
    <path
       transform="matrix(0.60158986,0,0,0.60841744,102.31396,162.87124)"
       sodipodi:type="arc"
       style="fill:#ffffff;fill-opacity:1;stroke:none"
       id="path2989-1-4-2-5"
       sodipodi:cx="150"
       sodipodi:cy="417.36218"
       sodipodi:rx="35"
       sodipodi:ry="35"
       d="m 185,417.36218 c 0,19.32997 -15.67003,35 -35,35 -19.32997,0 -35,-15.67003 -35,-35 0,-19.32996 15.67003,-35 35,-35 19.32997,0 35,15.67004 35,35 z" />
    <rect
       style="fill:#ffffff;fill-opacity:1;stroke:none"
       id="rect3009-8-4-1"
       width="42.041828"
       height="42.589226"
       x="151.92896"
       y="395.50702" />
    <rect
       style="fill:#000000;fill-opacity:1;stroke:none"
       id="rect3875"
       width="13.75"
       height="9.2857141"
       x="146.60715"
       y="384.14789" />
    <rect
       style="fill:#000000;fill-opacity:1;stroke:none"
       id="rect3875-7"
       width="13.75"
       height="9.2857141"
       x="183.75"
       y="384.68359" />
    <rect
       style="fill:#000000;fill-opacity:1;stroke:none"
       id="rect3875-1"
       width="13.75"
       height="9.2857141"
       x="146.42857"
       y="441.29074" />
    <rect
       style="fill:#000000;fill-opacity:1;stroke:none"
       id="rect3875-15"
       width="13.75"
       height="9.2857141"
       x="183.39287"
       y="441.46933" />
    <rect
       style="fill:#000000;fill-opacity:1;stroke:none"
       id="rect3875-2"
       width="17.678572"
       height="9.2857141"
       x="312.82684"
       y="268.16693"
       transform="matrix(0.84650536,0.5323802,-0.5323802,0.84650536,0,0)" />
    <rect
       style="fill:#000000;fill-opacity:1;stroke:none"
       id="rect3875-2-7"
       width="17.678572"
       height="9.2857141"
       x="406.89746"
       y="246.34286"
       transform="matrix(0.84650536,0.5323802,-0.5323802,0.84650536,0,0)"
       inkscape:transform-center-x="47.94644"
       inkscape:transform-center-y="-10.178555" />
    <rect
       style="fill:#000000;fill-opacity:1;stroke:none"
       id="rect3875-2-1"
       width="17.678572"
       height="9.2857141"
       x="31.241795"
       y="-461.88232"
       transform="matrix(-0.83305097,0.55319624,-0.55319624,-0.83305097,0,0)" />
    <rect
       style="fill:#000000;fill-opacity:1;stroke:none"
       id="rect3875-2-1-4"
       width="17.678572"
       height="9.2857141"
       x="125.88249"
       y="-435.38736"
       transform="matrix(-0.83305097,0.55319624,-0.55319624,-0.83305097,0,0)" />
  </g>
</svg>
