<?xml version="1.0" encoding="UTF-8" standalone="no"?>
<svg
   xmlns:dc="http://purl.org/dc/elements/1.1/"
   xmlns:cc="http://creativecommons.org/ns#"
   xmlns:rdf="http://www.w3.org/1999/02/22-rdf-syntax-ns#"
   xmlns:svg="http://www.w3.org/2000/svg"
   xmlns="http://www.w3.org/2000/svg"
   viewBox="0 0 113.76 113.76"
   height="113.76"
   width="113.76"
   xml:space="preserve"
   id="svg2"
   version="1.1"><metadata
     id="metadata8"><rdf:RDF><cc:Work
         rdf:about=""><dc:format>image/svg+xml</dc:format><dc:type
           rdf:resource="http://purl.org/dc/dcmitype/StillImage" /></cc:Work></rdf:RDF></metadata><defs
     id="defs6" /><g
     transform="matrix(1.3333333,0,0,-1.3333333,0,113.76)"
     id="g10"><g
       transform="scale(0.1)"
       id="g12"><path
         id="path14"
         style="fill:#ffffff;fill-opacity:1;fill-rule:nonzero;stroke:none"
         d="M 250.504,1.41797 H 602.727 L 851.809,250.5 V 602.727 L 602.727,851.809 H 250.504 L 1.41797,602.727 V 250.5 L 250.504,1.41797" /><path
         id="path16"
         style="fill:none;stroke:#231f20;stroke-width:2.83500004;stroke-linecap:butt;stroke-linejoin:round;stroke-miterlimit:4;stroke-dasharray:none;stroke-opacity:1"
         d="M 250.504,1.41797 H 602.727 L 851.809,250.5 V 602.727 L 602.727,851.809 H 250.504 L 1.41797,602.727 V 250.5 L 250.504,1.41797" /><path
         id="path18"
         style="fill:#ee2c30;fill-opacity:1;fill-rule:nonzero;stroke:none"
         d="M 264.164,34.4336 H 589.063 L 818.789,264.16 V 589.063 L 589.063,818.789 H 264.164 L 34.4336,589.063 V 264.16 L 264.164,34.4336" /><path
         id="path20"
         style="fill:#ffffff;fill-opacity:1;fill-rule:nonzero;stroke:none"
         d="m 120.758,310.227 c 6.156,-3.567 13.64,-6.047 22.539,-8.137 8.891,-1.809 18.789,-2.488 29.695,-2.488 22.899,0 41.328,6.336 54.649,19.16 13.32,12.769 19.836,30.523 19.836,53.273 v 0 c 0,10.656 -1.368,19.91 -4.465,27.36 -3.055,7.453 -7.485,14.218 -12.637,19.906 -5.109,5.687 -11.262,11.015 -18.43,15.625 -7.164,4.644 -14.687,9.254 -22.535,13.863 -5.797,3.559 -10.941,6.77 -15.051,9.973 -4.425,3.168 -7.843,6.008 -10.222,9.211 -2.735,2.847 -4.785,6.05 -5.832,9.617 -1.004,3.199 -1.688,7.09 -1.688,11.375 0,9.574 3.055,17.746 9.215,23.793 6.156,6.051 14.688,9.254 25.957,9.254 8.527,0 16.738,-1.078 23.899,-3.203 7.203,-2.485 13.32,-4.969 18.796,-7.813 v 0 l 1.043,34.094 v 0 c -4.468,1.797 -10.945,3.918 -18.793,5.687 -8.207,1.762 -17.421,2.84 -27.687,2.84 -9.535,0 -18.426,-1.398 -26.961,-3.887 -8.531,-2.843 -16.055,-7.128 -22.535,-12.453 -6.52,-5.691 -11.629,-12.422 -15.371,-20.593 -3.785,-8.172 -5.797,-17.426 -5.797,-28.079 0,-11.015 1.328,-19.91 4.426,-27.359 3.062,-7.492 7.168,-14.223 12.281,-19.551 5.144,-5.687 10.941,-10.656 18.105,-14.941 6.84,-4.606 14.364,-9.215 22.211,-14.219 6.481,-3.887 11.953,-7.812 16.383,-11.015 4.461,-3.528 7.844,-7.09 10.578,-10.297 2.414,-3.203 4.469,-6.731 5.477,-10.293 1.043,-3.926 1.367,-7.817 1.367,-12.457 0,-11.344 -3.746,-20.231 -10.945,-26.996 -7.161,-6.743 -16.703,-10.305 -28.332,-10.305 -9.579,0 -18.43,1.769 -26.965,5.332 -8.571,3.203 -15.371,6.769 -20.844,10.293 v 0 l -1.367,-36.57 v 0" /><path
         id="path22"
         style="fill:#ffffff;fill-opacity:1;fill-rule:nonzero;stroke:none"
         d="m 306.555,302.41 h 36.863 v 216.399 h 53.637 v 31.605 H 252.59 v -31.605 h 53.965 V 302.41" /><path
         id="path24"
         style="fill:#ffffff;fill-opacity:1;fill-rule:nonzero;stroke:none"
         d="m 417.504,331.531 c 8.211,-10.652 17.75,-18.465 29.019,-23.797 10.911,-5.644 22.864,-8.132 35.528,-8.132 13.32,0 25.597,2.488 36.867,7.781 11.27,5.32 20.848,13.137 29.051,23.789 8.176,10.305 14.648,23.801 19.445,39.82 4.461,15.981 6.836,35.168 6.836,56.844 v 0 c 0,20.953 -2.375,39.094 -6.836,54.719 -4.797,15.625 -11.269,28.765 -19.445,39.457 -8.203,10.293 -17.781,18.468 -28.692,23.793 -11.269,5.328 -23.25,7.812 -35.886,7.812 -13.321,0 -25.274,-2.484 -36.543,-7.812 -11.27,-5.325 -21.133,-13.141 -29.344,-23.469 -8.168,-10.656 -14.652,-24.156 -19.113,-40.141 -4.786,-15.984 -7.164,-35.172 -7.164,-56.843 0,-20.989 2.378,-39.098 7.164,-54.723 4.461,-15.656 10.945,-28.793 19.113,-39.098 v 0" /><path
         id="path26"
         style="fill:#ffffff;fill-opacity:1;fill-rule:nonzero;stroke:none"
         d="m 599.59,302.41 h 36.867 v 100.551 h 22.215 v 0 c 24.941,0 44.062,6.402 57.023,19.543 12.637,12.785 19.149,31.25 19.149,55.086 v 0 c 0,23.793 -6.512,41.937 -19.473,54.359 -12.996,12.414 -30.742,18.465 -52.957,18.465 H 599.59 V 302.41" /><path
         id="path28"
         style="fill:#ee2c30;fill-opacity:1;fill-rule:nonzero;stroke:none"
         d="m 443.105,355.332 c -9.218,17.063 -13.648,40.496 -13.648,70.02 0,18.105 1.336,33.41 4.43,45.824 2.734,12.457 6.476,22.754 11.593,30.566 4.786,7.453 10.586,13.141 17.098,16.703 6.485,3.207 13.645,4.969 20.813,4.969 17.097,0 30.054,-8.531 39.277,-25.598 8.887,-17.027 13.32,-40.496 13.32,-69.98 v 0 c 0,-18.145 -1.34,-33.406 -4.074,-45.828 -3.094,-12.457 -6.836,-22.75 -11.629,-30.199 -5.109,-7.856 -10.937,-13.536 -17.422,-16.711 -6.484,-3.567 -13.644,-5.321 -20.812,-5.321 -17.098,0 -30.059,8.496 -38.946,25.555 v 0" /><path
         id="path30"
         style="fill:#ee2c30;fill-opacity:1;fill-rule:nonzero;stroke:none"
         d="m 636.457,433.164 v 87.047 h 16.738 v 0 c 14.688,0 25.633,-3.527 33.164,-10.293 7.157,-7.098 10.907,-18.473 10.907,-33.77 v 0 c 0,-13.863 -3.426,-24.156 -10.223,-31.609 -6.848,-7.453 -18.117,-11.375 -34.172,-11.375 h -16.414 v 0" /></g></g></svg>