<?xml version="1.0" encoding="UTF-8" standalone="no"?>
<svg
   xmlns:dc="http://purl.org/dc/elements/1.1/"
   xmlns:cc="http://creativecommons.org/ns#"
   xmlns:rdf="http://www.w3.org/1999/02/22-rdf-syntax-ns#"
   xmlns:svg="http://www.w3.org/2000/svg"
   xmlns="http://www.w3.org/2000/svg"
   xmlns:sodipodi="http://sodipodi.sourceforge.net/DTD/sodipodi-0.dtd"
   xmlns:inkscape="http://www.inkscape.org/namespaces/inkscape"
   viewBox="0 0 173.88 105.82667"
   height="105.82667"
   width="173.88"
   xml:space="preserve"
   id="svg2"
   version="1.1"
   sodipodi:docname="street_area.svg"
   inkscape:version="0.92.3 (2405546, 2018-03-11)"><sodipodi:namedview
     pagecolor="#ffffff"
     bordercolor="#666666"
     borderopacity="1"
     objecttolerance="10"
     gridtolerance="10"
     guidetolerance="10"
     inkscape:pageopacity="0"
     inkscape:pageshadow="2"
     inkscape:window-width="1268"
     inkscape:window-height="821"
     id="namedview215"
     showgrid="false"
     inkscape:zoom="2.0416379"
     inkscape:cx="86.940002"
     inkscape:cy="52.913334"
     inkscape:window-x="329"
     inkscape:window-y="112"
     inkscape:window-maximized="0"
     inkscape:current-layer="svg2" /><metadata
     id="metadata8"><rdf:RDF><cc:Work
         rdf:about=""><dc:format>image/svg+xml</dc:format><dc:type
           rdf:resource="http://purl.org/dc/dcmitype/StillImage" /></cc:Work></rdf:RDF></metadata><defs
     id="defs6" /><g
     id="g308"><path
       inkscape:connector-curvature="0"
       d="M 0,105.82146 H 173.856 V 0.02879798 H 0 Z"
       style="fill:#bdbcbc;fill-opacity:1;fill-rule:nonzero;stroke:none;stroke-width:0.13333333"
       id="path14" /><path
       inkscape:connector-curvature="0"
       d="M 58.491199,6.7264565e-4 H 173.884 V 12.537606 L 58.491199,6.7264565e-4 v 0"
       style="fill:#918f90;fill-opacity:1;fill-rule:nonzero;stroke:none;stroke-width:0.13333333"
       id="path16" /><path
       inkscape:connector-curvature="0"
       d="M 173.884,91.274537 V 105.82667 H 108.65106 V 94.27875 L 173.884,91.274537 v 0"
       style="fill:#918f90;fill-opacity:1;fill-rule:nonzero;stroke:none;stroke-width:0.13333333"
       id="path18" /><path
       inkscape:connector-curvature="0"
       d="M 53.085999,105.82667 H 0.02604173 V 99.27979 L 53.085999,96.831884 v 8.994786"
       style="fill:#918f90;fill-opacity:1;fill-rule:nonzero;stroke:none;stroke-width:0.13333333"
       id="path20" /><path
       inkscape:connector-curvature="0"
       d="m 173.884,46.683471 v 2.390534 l -5.11734,-0.518667 5.11734,8.352 v 5.481866 l -65.32774,3.052 14.65827,-23.922399 50.66947,5.164666 v 0"
       style="fill:#ffffff;fill-opacity:1;fill-rule:nonzero;stroke:none;stroke-width:0.13333333"
       id="path22" /><path
       inkscape:connector-curvature="0"
       d="m 101.6432,65.758938 -9.235336,0.431333 1.7864,-2.918267 9.225066,-0.413066 -1.77613,2.9 v 0"
       style="fill:#ffffff;fill-opacity:1;fill-rule:nonzero;stroke:none;stroke-width:0.13333333"
       id="path24" /><path
       inkscape:connector-curvature="0"
       d="m 115.47653,43.179738 -8.43747,-0.854666 1.4104,-2.3036 8.43854,0.854133 -1.41147,2.304133 v 0"
       style="fill:#ffffff;fill-opacity:1;fill-rule:nonzero;stroke:none;stroke-width:0.13333333"
       id="path26" /><path
       inkscape:connector-curvature="0"
       d="m 85.496398,66.516804 -8.909467,0.412934 1.814134,-2.9572 8.890666,-0.3932 -1.795333,2.937466 v 0"
       style="fill:#ffffff;fill-opacity:1;fill-rule:nonzero;stroke:none;stroke-width:0.13333333"
       id="path28" /><path
       inkscape:connector-curvature="0"
       d="m 100.71253,41.691738 -8.151066,-0.826 1.420267,-2.322933 8.142269,0.835467 -1.41147,2.313466 v 0"
       style="fill:#ffffff;fill-opacity:1;fill-rule:nonzero;stroke:none;stroke-width:0.13333333"
       id="path30" /><path
       inkscape:connector-curvature="0"
       d="m 69.674532,67.246004 -8.803734,0.4124 1.834934,-2.994266 8.792666,-0.3844 -1.823866,2.966266 v 0"
       style="fill:#ffffff;fill-opacity:1;fill-rule:nonzero;stroke:none;stroke-width:0.13333333"
       id="path32" /><path
       inkscape:connector-curvature="0"
       d="m 86.234398,40.222538 -8.053733,-0.805733 1.430266,-2.3328 8.045333,0.8156 -1.421866,2.322933 v 0"
       style="fill:#ffffff;fill-opacity:1;fill-rule:nonzero;stroke:none;stroke-width:0.13333333"
       id="path34" /><path
       inkscape:connector-curvature="0"
       d="m 53.959332,67.985471 -53.93329027,2.5052 v -3.0432 L 5.2197865,67.217338 0.02604173,58.740671 v -4.6656 L 8.0036398,67.092271 14.032266,66.824004 0.02604173,43.956938 V 39.282405 L 16.826533,66.699071 22.855733,66.430804 1.55208,31.669872 0.02604173,31.516272 V 28.972005 L 73.294265,36.440672 53.959332,67.985471 v 0"
       style="fill:#ffffff;fill-opacity:1;fill-rule:nonzero;stroke:none;stroke-width:0.13333333"
       id="path36" /><path
       inkscape:connector-curvature="0"
       d="m 172.79066,59.787071 -7.076,-11.539066 -6.60533,-0.662 7.64267,12.469866 6.03866,-0.2688 v 0"
       style="fill:#bdbcbc;fill-opacity:1;fill-rule:nonzero;stroke:none;stroke-width:0.13333333"
       id="path38" /><path
       inkscape:connector-curvature="0"
       d="m 163.968,60.180804 -7.91067,-12.901999 -6.596,-0.671867 8.47733,13.842133 6.02934,-0.268267 v 0"
       style="fill:#bdbcbc;fill-opacity:1;fill-rule:nonzero;stroke:none;stroke-width:0.13333333"
       id="path40" /><path
       inkscape:connector-curvature="0"
       d="m 155.14533,60.564138 -8.736,-14.264533 -6.60667,-0.662533 9.31334,15.196399 6.02933,-0.269333 v 0"
       style="fill:#bdbcbc;fill-opacity:1;fill-rule:nonzero;stroke:none;stroke-width:0.13333333"
       id="path42" /><path
       inkscape:connector-curvature="0"
       d="m 146.32133,60.958404 -9.56933,-15.628666 -6.60614,-0.671866 10.14747,16.569866 6.028,-0.269334 v 0"
       style="fill:#bdbcbc;fill-opacity:1;fill-rule:nonzero;stroke:none;stroke-width:0.13333333"
       id="path44" /><path
       inkscape:connector-curvature="0"
       d="m 137.50933,61.352671 -10.4156,-17.001999 -2.6692,-0.2688 -1.84387,3.014533 8.9,14.524533 6.02867,-0.268267 v 0"
       style="fill:#bdbcbc;fill-opacity:1;fill-rule:nonzero;stroke:none;stroke-width:0.13333333"
       id="path46" /><path
       inkscape:connector-curvature="0"
       d="m 128.68746,61.746004 -7.5364,-12.307333 -3.1016,5.049467 4.6084,7.5156 6.0296,-0.257734 v 0"
       style="fill:#bdbcbc;fill-opacity:1;fill-rule:nonzero;stroke:none;stroke-width:0.13333333"
       id="path48" /><path
       inkscape:connector-curvature="0"
       d="m 119.86453,62.128804 -3.2448,-5.297999 -3.10147,5.049466 0.31774,0.517733 6.02853,-0.2692 v 0"
       style="fill:#bdbcbc;fill-opacity:1;fill-rule:nonzero;stroke:none;stroke-width:0.13333333"
       id="path50" /><path
       inkscape:connector-curvature="0"
       d="M 4.6057332,31.986005 25.639599,66.305871 31.677066,66.045471 11.209373,32.649072 4.6057332,31.986005 v 0"
       style="fill:#bdbcbc;fill-opacity:1;fill-rule:nonzero;stroke:none;stroke-width:0.13333333"
       id="path52" /><path
       inkscape:connector-curvature="0"
       d="m 14.263066,32.955872 20.197866,32.964532 6.030267,-0.268266 -19.624,-32.023866 -6.604133,-0.6724 v 0"
       style="fill:#bdbcbc;fill-opacity:1;fill-rule:nonzero;stroke:none;stroke-width:0.13333333"
       id="path54" /><path
       inkscape:connector-curvature="0"
       d="m 23.920266,33.935472 19.3636,31.591732 6.028666,-0.268266 -18.786533,-30.661466 -6.605733,-0.662 v 0"
       style="fill:#bdbcbc;fill-opacity:1;fill-rule:nonzero;stroke:none;stroke-width:0.13333333"
       id="path56" /><path
       inkscape:connector-curvature="0"
       d="m 33.578132,34.904805 18.5192,30.229199 0.834933,-0.03907 2.669334,-4.3568 -15.417733,-25.161466 -6.605734,-0.671867 v 0"
       style="fill:#bdbcbc;fill-opacity:1;fill-rule:nonzero;stroke:none;stroke-width:0.13333333"
       id="path58" /><path
       inkscape:connector-curvature="0"
       d="m 43.235999,35.884005 13.7952,22.5208 3.101599,-5.059334 -10.291599,-16.799466 -6.6052,-0.662 v 0"
       style="fill:#bdbcbc;fill-opacity:1;fill-rule:nonzero;stroke:none;stroke-width:0.13333333"
       id="path60" /><path
       inkscape:connector-curvature="0"
       d="m 52.893199,36.853205 8.669333,14.159866 3.101466,-5.059333 -5.165599,-8.428666 -6.6052,-0.671867 v 0"
       style="fill:#bdbcbc;fill-opacity:1;fill-rule:nonzero;stroke:none;stroke-width:0.13333333"
       id="path62" /><path
       inkscape:connector-curvature="0"
       d="m 62.552132,37.832405 3.5416,5.788533 3.130266,-5.116666 -6.671866,-0.671867 v 0"
       style="fill:#bdbcbc;fill-opacity:1;fill-rule:nonzero;stroke:none;stroke-width:0.13333333"
       id="path64" /></g></svg>