<?xml version="1.0" encoding="utf-8"?>
<!-- Generator: Adobe Illustrator 15.0.0, SVG Export Plug-In  -->
<!DOCTYPE svg PUBLIC "-//W3C//DTD SVG 1.1//EN" "http://www.w3.org/Graphics/SVG/1.1/DTD/svg11.dtd" [
	<!ENTITY ns_flows "http://ns.adobe.com/Flows/1.0/">
]>
<svg version="1.1"
	 xmlns="http://www.w3.org/2000/svg" xmlns:xlink="http://www.w3.org/1999/xlink" xmlns:a="http://ns.adobe.com/AdobeSVGViewerExtensions/3.0/"
	 x="0px" y="0px" width="503px" height="505px" viewBox="0 -0.61 503 505" enable-background="new 0 -0.61 503 505"
	 xml:space="preserve">
<defs>
</defs>
<g>
	<rect x="0.5" y="0.5" fill="#FFFFFF" width="502" height="503"/>
	<g>
		<polyline fill="none" stroke="#000000" points="502.5,497.5 502.5,503.5 496.5,503.5 		"/>
		<line fill="none" stroke="#000000" stroke-dasharray="11.9512,11.9512" x1="484.549" y1="503.5" x2="12.476" y2="503.5"/>
		<polyline fill="none" stroke="#000000" points="6.5,503.5 0.5,503.5 0.5,497.5 		"/>
		<line fill="none" stroke="#000000" stroke-dasharray="11.9756,11.9756" x1="0.5" y1="485.524" x2="0.5" y2="12.488"/>
		<polyline fill="none" stroke="#000000" points="0.5,6.5 0.5,0.5 6.5,0.5 		"/>
		<line fill="none" stroke="#000000" stroke-dasharray="11.9512,11.9512" x1="18.451" y1="0.5" x2="490.524" y2="0.5"/>
		<polyline fill="none" stroke="#000000" points="496.5,0.5 502.5,0.5 502.5,6.5 		"/>
		<line fill="none" stroke="#000000" stroke-dasharray="11.9756,11.9756" x1="502.5" y1="18.476" x2="502.5" y2="491.512"/>
	</g>
</g>
<rect x="18.5" y="17.5" width="467" height="469"/>
<rect x="259.293" y="63.39" fill="#FFFFFF" width="188.207" height="389"/>
<rect x="53.5" y="63.39" fill="#FFFFFF" width="188.207" height="389"/>
<path fill="#010101" d="M217.287,258.324l-35.61-81.045c-0.557-1.268-1.524-2.249-2.728-2.903
	c-5.868-5.738-13.295-9.842-21.365-11.252v-11.655c8.807-4.212,14.892-13.215,14.892-23.643c0-14.462-11.702-26.187-26.14-26.187
	c-14.437,0-26.141,11.725-26.141,26.187c0,10.302,5.941,19.211,14.576,23.486v11.867c-7.352,1.679-14.096,5.583-19.512,10.879
	c-1.203,0.654-2.171,1.635-2.728,2.903l-35.61,81.044c-1.543,3.512,0.611,7.857,4.813,9.71c4.201,1.854,8.855,0.509,10.398-3.002
	l27.875-63.442l4.893,0.98l-5.481,19.371l-28.025,99.036h29.753v81.896c0,5.435,4.965,9.84,11.091,9.84
	c6.125,0,11.089-4.405,11.089-9.84v-81.896h4.119h3.802v82.214c0,5.435,4.966,9.84,11.09,9.84c6.125,0,11.089-4.405,11.089-9.84
	v-82.214h30.07l-28.025-99.036l-5.433-19.199l4.162-0.834l27.876,63.442c1.543,3.511,6.197,4.856,10.398,3.002
	C216.675,266.181,218.829,261.836,217.287,258.324z"/>
<path fill="#010101" d="M431.949,255.234l-32.927-74.39c-1.705-9.262-10.778-16.533-22.179-17.745v-0.198h-9.506v-12.445
	c7.768-4.54,12.99-12.971,12.99-22.63c0-14.462-11.703-26.187-26.141-26.187c-14.437,0-26.14,11.725-26.14,26.187
	c0,10.048,5.651,18.771,13.942,23.161v11.914h-4.89c-1.449-0.207-2.938-0.317-4.458-0.317c-12.945,0-23.664,7.787-25.533,17.942
	l-32.927,74.391c-1.952,4.413,0.572,9.814,5.638,12.065c5.066,2.251,10.757,0.497,12.71-3.915l27.069-61.158
	c1.557,0.746,3.222,1.356,4.964,1.826v67.928l-35.495,123.184c-1.994,6.918,2.63,14.331,10.326,16.556
	c7.695,2.227,15.551-1.576,17.545-8.495l34.309-119.068h5.909l34.31,119.068c1.993,6.919,9.85,10.722,17.545,8.495
	c7.696-2.225,12.319-9.638,10.326-16.556l-35.86-124.449c-0.162-0.564-0.377-1.099-0.614-1.62v-65.109
	c1.272-0.407,2.502-0.884,3.668-1.442l27.07,61.159c1.953,4.411,7.644,6.166,12.71,3.913
	C431.377,265.048,433.9,259.647,431.949,255.234z"/>
</svg>
