<?xml version="1.0" encoding="UTF-8" standalone="no"?>
<!-- Created with Inkscape (http://www.inkscape.org/) -->

<svg
   xmlns:dc="http://purl.org/dc/elements/1.1/"
   xmlns:cc="http://creativecommons.org/ns#"
   xmlns:rdf="http://www.w3.org/1999/02/22-rdf-syntax-ns#"
   xmlns:svg="http://www.w3.org/2000/svg"
   xmlns="http://www.w3.org/2000/svg"
   xmlns:sodipodi="http://sodipodi.sourceforge.net/DTD/sodipodi-0.dtd"
   xmlns:inkscape="http://www.inkscape.org/namespaces/inkscape"
   version="1.1"
   width="219.91"
   height="219.91"
   id="svg2816"
   xml:space="preserve"
   inkscape:version="0.48.4 r9939"
   sodipodi:docname="traffic_lights.svg"><metadata
     id="metadata81"><rdf:RDF><cc:Work
         rdf:about=""><dc:format>image/svg+xml</dc:format><dc:type
           rdf:resource="http://purl.org/dc/dcmitype/StillImage" /><dc:title /></cc:Work></rdf:RDF></metadata><sodipodi:namedview
     pagecolor="#ffffff"
     bordercolor="#666666"
     borderopacity="1"
     objecttolerance="10"
     gridtolerance="10"
     guidetolerance="10"
     inkscape:pageopacity="0"
     inkscape:pageshadow="2"
     inkscape:window-width="1920"
     inkscape:window-height="1147"
     id="namedview79"
     showgrid="false"
     fit-margin-top="0.1"
     fit-margin-left="0.1"
     fit-margin-right="0.1"
     fit-margin-bottom="0.1"
     inkscape:zoom="1.4142136"
     inkscape:cx="-13.071976"
     inkscape:cy="-14.159395"
     inkscape:window-x="-8"
     inkscape:window-y="-8"
     inkscape:window-maximized="1"
     inkscape:current-layer="svg2816"
     showguides="true"
     inkscape:guide-bbox="true" /><defs
     id="defs2820"><clipPath
       id="clipPath2832"><path
         d="m -0.24,595.138 317.48,0 0,-595.276 -317.48,0 0,595.276 z"
         id="path2834"
         inkscape:connector-curvature="0" /></clipPath><clipPath
       id="clipPath2840"><path
         d="m 0.03,595.32 317.46,0 0,-595.32 -317.46,0 0,595.32 z"
         id="path2842"
         inkscape:connector-curvature="0" /></clipPath><clipPath
       id="clipPath2858"><path
         d="m -0.24,595.138 317.48,0 0,-595.276 -317.48,0 0,595.276 z"
         id="path2860"
         inkscape:connector-curvature="0" /></clipPath><clipPath
       id="clipPath2864"><path
         d="m 0.03,595.32 317.46,0 0,-595.32 -317.46,0 0,595.32 z"
         id="path2866"
         inkscape:connector-curvature="0" /></clipPath><clipPath
       id="clipPath3306"><path
         d="m 199.238,472.977 0,-29.74 29.744,0 0,29.74"
         id="path3308"
         inkscape:connector-curvature="0" /></clipPath><clipPath
       id="clipPath3322"><path
         d="m -0.24,595.138 317.48,0 0,-595.276 -317.48,0 0,595.276 z"
         id="path3324"
         inkscape:connector-curvature="0" /></clipPath><clipPath
       id="clipPath3330"><path
         d="m 0.03,595.32 317.46,0 0,-595.32 -317.46,0 0,595.32 z"
         id="path3332"
         inkscape:connector-curvature="0" /></clipPath><clipPath
       id="clipPath3344"><path
         d="m 88.233,387.221 0,-28.335 32.08,0 0,28.335"
         id="path3346"
         inkscape:connector-curvature="0" /></clipPath><clipPath
       id="clipPath3462"><path
         d="m -0.24,595.138 317.48,0 0,-595.276 -317.48,0 0,595.276 z"
         id="path3464"
         inkscape:connector-curvature="0" /></clipPath><clipPath
       id="clipPath3470"><path
         d="m 0.03,595.32 317.46,0 0,-595.32 -317.46,0 0,595.32 z"
         id="path3472"
         inkscape:connector-curvature="0" /></clipPath><clipPath
       id="clipPath3490"><path
         d="m -0.24,595.138 317.48,0 0,-595.276 -317.48,0 0,595.276 z"
         id="path3492"
         inkscape:connector-curvature="0" /></clipPath><clipPath
       id="clipPath3496"><path
         d="m 0.03,595.32 317.46,0 0,-595.32 -317.46,0 0,595.32 z"
         id="path3498"
         inkscape:connector-curvature="0" /></clipPath><clipPath
       id="clipPath3520"><path
         d="m 254.788,326.215 0,-28.309 28.326,0 0,28.309"
         id="path3522"
         inkscape:connector-curvature="0" /></clipPath><clipPath
       id="clipPath3544"><path
         d="m 145.049,326.142 0,-28.333 28.342,0 0,28.333"
         id="path3546"
         inkscape:connector-curvature="0" /></clipPath><clipPath
       id="clipPath3682"><path
         d="m -0.24,595.138 317.48,0 0,-595.276 -317.48,0 0,595.276 z"
         id="path3684"
         inkscape:connector-curvature="0" /></clipPath><clipPath
       id="clipPath3690"><path
         d="m 0.03,595.32 317.46,0 0,-595.32 -317.46,0 0,595.32 z"
         id="path3692"
         inkscape:connector-curvature="0" /></clipPath><clipPath
       id="clipPath3980"><path
         d="m -0.24,595.138 317.48,0 0,-595.276 -317.48,0 0,595.276 z"
         id="path3982"
         inkscape:connector-curvature="0" /></clipPath><clipPath
       id="clipPath3988"><path
         d="m 0.03,595.32 317.46,0 0,-595.32 -317.46,0 0,595.32 z"
         id="path3990"
         inkscape:connector-curvature="0" /></clipPath><clipPath
       id="clipPath4010"><path
         d="m -0.24,595.138 317.48,0 0,-595.276 -317.48,0 0,595.276 z"
         id="path4012"
         inkscape:connector-curvature="0" /></clipPath><clipPath
       id="clipPath4016"><path
         d="m 0.03,595.32 317.46,0 0,-595.32 -317.46,0 0,595.32 z"
         id="path4018"
         inkscape:connector-curvature="0" /></clipPath><clipPath
       id="clipPath4062"><path
         d="m 200.163,177.773 0,-28.284 28.283,0 0,28.284"
         id="path4064"
         inkscape:connector-curvature="0" /></clipPath><clipPath
       id="clipPath4090"><path
         d="m 34.886,177.515 0,-51.632 30.367,0 0,51.632"
         id="path4092"
         inkscape:connector-curvature="0" /></clipPath><clipPath
       id="clipPath4106"><path
         d="m 34.886,177.515 0,-51.632 30.367,0 0,51.632"
         id="path4108"
         inkscape:connector-curvature="0" /></clipPath><clipPath
       id="clipPath4272"><path
         d="m 34.886,177.515 0,-51.632 30.367,0 0,51.632"
         id="path4274"
         inkscape:connector-curvature="0" /></clipPath><clipPath
       id="clipPath4304"><path
         d="m 254.653,176.442 0,-48.167 28.317,0 0,48.167"
         id="path4306"
         inkscape:connector-curvature="0" /></clipPath><clipPath
       id="clipPath4310"><path
         d="m 253.565,177.983 31.181,0 0,-49.183 -31.181,0 0,49.183 z"
         id="path4312"
         inkscape:connector-curvature="0" /></clipPath><clipPath
       id="clipPath4316"><path
         d="m -0.24,595.138 317.48,0 0,-595.276 -317.48,0 0,595.276 z"
         id="path4318"
         inkscape:connector-curvature="0" /></clipPath><clipPath
       id="clipPath4322"><path
         d="m 0.03,595.32 317.46,0 0,-595.32 -317.46,0 0,595.32 z"
         id="path4324"
         inkscape:connector-curvature="0" /></clipPath><clipPath
       id="clipPath4456"><path
         d="m -0.24,595.138 317.48,0 0,-595.276 -317.48,0 0,595.276 z"
         id="path4458"
         inkscape:connector-curvature="0" /></clipPath><clipPath
       id="clipPath4464"><path
         d="m 0.03,595.32 317.46,0 0,-595.32 -317.46,0 0,595.32 z"
         id="path4466"
         inkscape:connector-curvature="0" /></clipPath></defs><g
     id="g3047"
     transform="matrix(1.152015,0,0,1.152015,-97.562074,-100.77873)"><path
       sodipodi:nodetypes="sssssss"
       inkscape:connector-curvature="0"
       id="path3774"
       d="m 211.98901,119.11635 c 0,-17.44347 -14.26075,-31.547096 -31.855,-31.547096 -17.59803,0 -31.85501,14.103156 -31.85501,31.547096 l 0,127.61968 c 0,17.44397 14.25697,31.54713 31.85501,31.54713 17.59425,0 31.855,-14.10379 31.855,-31.54713 z"
       style="font-size:medium;font-style:normal;font-variant:normal;font-weight:normal;font-stretch:normal;text-indent:0;text-align:start;text-decoration:none;line-height:normal;letter-spacing:normal;word-spacing:normal;text-transform:none;direction:ltr;block-progression:tb;writing-mode:lr-tb;text-anchor:start;baseline-shift:baseline;color:#000000;fill:#000000;fill-opacity:1;fill-rule:evenodd;stroke:none;stroke-width:0;marker:none;visibility:visible;display:inline;overflow:visible;enable-background:accumulate;font-family:Sans;-inkscape-font-specification:Sans" /><path
       inkscape:connector-curvature="0"
       id="path3607"
       d="m 180.13401,273.28316 c -14.83162,0 -26.85501,-12.02338 -26.85501,-26.85499 0,-14.83162 12.0234,-26.85501 26.85501,-26.85501 14.83161,0 26.85499,12.02339 26.85499,26.85501 0,14.83161 -12.02339,26.85499 -26.85499,26.85499 z"
       style="fill:#077251;fill-opacity:1;stroke:none"
       sodipodi:nodetypes="sssss" /><path
       sodipodi:nodetypes="sssss"
       style="fill:#de0029;fill-opacity:1;stroke:none"
       d="m 180.13401,92.569254 c -14.83162,0 -26.85501,12.023376 -26.85501,26.854986 0,14.83162 12.0234,26.85501 26.85501,26.85501 14.83161,0 26.85499,-12.02339 26.85499,-26.85501 0,-14.83161 -12.02339,-26.854986 -26.85499,-26.854986 z"
       id="path3226"
       inkscape:connector-curvature="0" /><path
       inkscape:connector-curvature="0"
       id="path3239"
       d="m 180.13401,156.07116 c -14.83162,0 -26.85501,12.02338 -26.85501,26.85498 0,14.83163 12.0234,26.85502 26.85501,26.85502 14.83161,0 26.85499,-12.02339 26.85499,-26.85502 0,-14.8316 -12.02339,-26.85498 -26.85499,-26.85498 z"
       style="fill:#fcd213;fill-opacity:1;stroke:none"
       sodipodi:nodetypes="sssss" /></g></svg>