<?xml version="1.0" encoding="utf-8"?>
<!-- Generator: Adobe Illustrator 13.0.0, SVG Export Plug-In  -->
<!DOCTYPE svg PUBLIC "-//W3C//DTD SVG 1.1//EN" "http://www.w3.org/Graphics/SVG/1.1/DTD/svg11.dtd" [
	<!ENTITY ns_flows "http://ns.adobe.com/Flows/1.0/">
]>
<svg version="1.1"
	 xmlns="http://www.w3.org/2000/svg" xmlns:xlink="http://www.w3.org/1999/xlink" xmlns:a="http://ns.adobe.com/AdobeSVGViewerExtensions/3.0/"
	 x="0px" y="0px" width="503px" height="507px" viewBox="0 -0.61 503 507" enable-background="new 0 -0.61 503 507"
	 xml:space="preserve">
<defs>
</defs>
<line fill="none" stroke="#000000" x1="60.333" y1="293.5" x2="61" y2="272.833"/>
<rect x="0.5" y="0.5" fill="#FFFFFF" stroke="#000000" width="502" height="505"/>
<rect x="19.5" y="15.5" stroke="#000000" width="467" height="473"/>
<rect x="54.5" y="55.5" fill="#FFFFFF" stroke="#000000" width="395" height="394"/>
<path stroke="#000000" d="M60.5,250.5c25.649-20.985,52.617-38.902,73.135-65.575c10.127-13.166,19.145-27.807,29.865-40.425
	c13.355-15.719,24.449-17.532,44.225-18.944c14.593-1.042,30.515,4.065,45.192,5.323c16.8,1.44,35.003,0.385,51.583,2.622
	c34.254,4.621,51.858,36.667,70.369,62.199c18.562,25.602,34.398,55.652,42.672,86.381c6.966,25.874,20.074,70.934,2.087,94.916
	c-4.917,6.556-9.798,16.321-16.128,21.504c-6.598,5.402-17.839,8.233-25.621,11.825c-12.125,5.596-36.955,2.175-50.189,2.175
	c-31.987,0-66.52-2.02-97.189-12c-20.475-6.663-39.919-17.792-60.257-25.092c-22.409-8.045-44.654-15.682-67.454-22.521
	c-9.603-2.881-18.546-7.451-28.3-9.89c-13.88-3.47-13.989-1.603-13.989-15.199C60.5,302.032,60.5,276.266,60.5,250.5"/>
<path fill="#FFFFFF" d="M351,163.5c-30.543,4.072-58.689-0.477-89.013-4.722c-21.395-2.995-57.49-12.946-76.987,0.722
	c-9.753,6.837-16.667,22.906-24.556,31.921c-10.499,11.999-21.602,21.674-33.803,31.998C106.416,240.533,82.771,253.217,60,266.5
	l0.5,8.5c25.231-10.44,74.448-35.632,74.448-35.632c12.302-8.202,24.707-16.194,37.181-24.132
	c11.783-7.499,15.852-20.188,31.387-21.601c31.158-2.833,61.575,0.719,92.455,4.93c14.458,1.971,28.705,0.944,43.299,0.55
	c13.028-0.352,26.255,1.773,39.229,2.886"/>
<path fill="#FFFFFF" d="M415,275c-28.761,0-57.276-0.776-86.056-1.376c-29.89-0.623-60.209-4.853-89.957-2.373
	c-29.206,2.434-57.43,7.921-86.219,13.155C121.779,290.04,92.458,293.112,61,295v23l28,5l35,6l36,8l32,8l42,11l28,6l26,3h43l40-1
	l36-3l12-5l9-4l1-13l-2-12l-4-24l-5.459-20.42L414,274"/>
<rect x="109.667" y="242.833" fill="#FFFFFF" width="11.333" height="58.667"/>
<rect x="71" y="264.167" fill="#FFFFFF" width="8.667" height="35.333"/>
<path d="M264.333,321.5c12.96,0.216,25.92,0.433,38.88,0.648c9.659,0.161,9.332,22.718,7.433,28.414
	c-0.685,2.054-30.443,3.33-32.955,1.012C269.455,343.971,257.849,333.779,264.333,321.5"/>
<path d="M381.667,326.833c10.195-0.204,20.39-0.407,30.585-0.611c5.882-0.117,10.465,14.946,7.415,19.945
	c-4.147,6.798-18.681,4.821-25.667,3.999C384.031,348.994,384.297,335.775,381.667,326.833"/>
<path d="M216.166,85.695c-13.437-1.748-26.874-3.496-40.311-5.244C165.23,79.07,160.828,84.313,157,93.5
	c2.787,5.61,6.956,6.667,12.79,6.667c3.826,0,7.599-5.586,9.888-5.227c9.701,1.522,19.401,3.043,29.102,4.565l10.887,23.329
	l22,3.333l-11.551-24.064c7.206,0.586,14.942,1.616,18.958,5.298c6.974,6.393,23.259,11.18,23.259-3.901
	C272.333,86.397,226.337,87.019,216.166,85.695z"/>
<polygon stroke="#000000" points="123,366.834 188.333,391.5 231,418.167 272.333,446.167 234.333,446.834 "/>
<polygon stroke="#000000" points="331,422.834 355.667,422.834 361.667,421.5 374.333,418.167 446.333,446.167 381.667,446.834 "/>
</svg>
