<?xml version="1.0" encoding="utf-8"?>
<!-- Generator: Adobe Illustrator 15.0.0, SVG Export Plug-In . SVG Version: 6.00 Build 0)  -->
<!DOCTYPE svg PUBLIC "-//W3C//DTD SVG 1.1//EN" "http://www.w3.org/Graphics/SVG/1.1/DTD/svg11.dtd">
<svg version="1.1" xmlns="http://www.w3.org/2000/svg" xmlns:xlink="http://www.w3.org/1999/xlink" x="0px" y="0px" width="580px"
	 height="580px" viewBox="0 0 580 580" enable-background="new 0 0 580 580" xml:space="preserve">
<g id="Layer_2_1_">
	<g id="Layer_2">
		<g id="g1327">
			<path id="path1329" fill="#111111" stroke="#EEEEEE" stroke-width="3.408" d="M66.275,1.768
				c-41.335,0-64.571,21.371-64.571,65.036v450.123c0,40.844,20.895,62.229,62.192,62.229h452.024
				c41.307,0,62.229-20.315,62.229-62.229V66.804c0-42.602-20.923-65.036-63.521-65.036C514.625,1.768,66.133,1.625,66.275,1.768z"
				/>
		</g>
	</g>
</g>
<g id="Layer_1">
	<path fill="#FFFFFF" d="M290,39.529L58.123,239.906h46.375V540.47h139.127V387.727h95.932V540.47h135.945V239.906h46.375
		L290,39.529z M271.976,259.703h130.188c14.844,0,26.92,12.076,26.92,26.92c0,14.843-12.076,26.918-26.92,26.918H271.976
		c-14.843,0-26.918-12.075-26.918-26.918C245.058,271.779,257.134,259.703,271.976,259.703z M209.365,212.302
		c19.166,0,34.76,14.46,34.77,32.236c0.004,8.799-3.911,17.307-10.742,23.356c-6.486,5.745-15.008,8.908-23.999,8.908h-0.024
		c-19.145,0-34.729-14.455-34.738-32.225C174.623,226.784,190.205,212.312,209.365,212.302z M167.321,283.412h56.082
		c7.565,0,13.72,6.157,13.72,13.725c0,7.563-6.154,13.715-13.72,13.715h-56.082c-7.564,0-13.718-6.152-13.718-13.715
		C153.603,289.57,159.757,283.412,167.321,283.412z M453.434,381.983h-20.423v-41.272H146.991v47.2h-20.426V231.394h20.426v90.259
		h286.021v-42.261h20.423V381.983z"/>
</g>
</svg>
