<?xml version="1.0" encoding="UTF-8" standalone="no"?>
<!-- Generator: Adobe Illustrator 15.0.0, SVG Export Plug-In . SVG Version: 6.00 Build 0)  -->

<svg
   xmlns:dc="http://purl.org/dc/elements/1.1/"
   xmlns:cc="http://creativecommons.org/ns#"
   xmlns:rdf="http://www.w3.org/1999/02/22-rdf-syntax-ns#"
   xmlns:svg="http://www.w3.org/2000/svg"
   xmlns="http://www.w3.org/2000/svg"
   xmlns:sodipodi="http://sodipodi.sourceforge.net/DTD/sodipodi-0.dtd"
   xmlns:inkscape="http://www.inkscape.org/namespaces/inkscape"
   version="1.1"
   x="0px"
   y="0px"
   width="580px"
   height="580px"
   viewBox="0 0 580 580"
   enable-background="new 0 0 580 580"
   xml:space="preserve"
   id="svg2"
   inkscape:version="0.48.4 r9939"
   sodipodi:docname="religious.svg"><metadata
   id="metadata47"><rdf:RDF><cc:Work
       rdf:about=""><dc:format>image/svg+xml</dc:format><dc:type
         rdf:resource="http://purl.org/dc/dcmitype/StillImage" /><dc:title></dc:title></cc:Work></rdf:RDF></metadata><defs
   id="defs45">
	
	
	
</defs><sodipodi:namedview
   pagecolor="#ffffff"
   bordercolor="#666666"
   borderopacity="1"
   objecttolerance="10"
   gridtolerance="10"
   guidetolerance="10"
   inkscape:pageopacity="0"
   inkscape:pageshadow="2"
   inkscape:window-width="1028"
   inkscape:window-height="883"
   id="namedview43"
   showgrid="false"
   inkscape:zoom="1.2311444"
   inkscape:cx="192.93584"
   inkscape:cy="290"
   inkscape:window-x="838"
   inkscape:window-y="134"
   inkscape:window-maximized="0"
   inkscape:current-layer="svg2" />
<g
   id="Layer_2">
	<g
   id="g1327">
		<path
   id="path1329"
   fill="#111111"
   stroke="#EEEEEE"
   stroke-width="3.408"
   d="M66.275,1.768    c-41.335,0-64.571,21.371-64.571,65.036v450.123c0,40.844,20.894,62.229,62.192,62.229H515.92    c41.307,0,62.229-20.316,62.229-62.229V66.804c0-42.601-20.923-65.036-63.522-65.036C514.624,1.768,66.133,1.625,66.275,1.768z" />
	</g>
</g>

<g
   transform="matrix(0.81573294,0,0,0.81573294,36.291285,133.49327)"
   id="g3770"><path
     d="m 434.46383,147.98096 -127.11917,0 -39.01678,-20.97675 0,-59.15448 250.04301,-23.074434 0,77.194494 -83.90706,16.36186 0,9.64931 z"
     style="color:#000000;fill:#ffffff;fill-opacity:1;fill-rule:nonzero;stroke:none;stroke-width:1;marker:none;visibility:visible;display:inline;overflow:visible"
     id="path5534"
     inkscape:connector-curvature="0" /><path
     d="m 28.77328,229.60387 573.0851,1.02553 -0.0959,-106.56194 -164.36182,36.08002 -239.13507,0 -169.492234,45.3098 c -9.984672,4.03823 -13.29426,24.14659 0,24.14659 z"
     style="color:#000000;fill:#ffffff;fill-opacity:1;fill-rule:nonzero;stroke:none;stroke-width:1;marker:none;visibility:visible;display:inline;overflow:visible"
     id="path5536"
     inkscape:connector-curvature="0" /><path
     d="m 191.83074,277.70208 c -5e-5,20.35269 -16.4721,36.86607 -36.82472,36.91714 -20.35262,0.0511 -36.90733,-16.37944 -37.00951,-36.73188 -0.10224,-20.35242 16.28669,-36.94835 36.6388,-37.10166 20.3521,-0.15336 36.98914,16.19385 37.19356,36.54549"
     style="fill:#ffffff;fill-opacity:1;fill-rule:evenodd;stroke:none"
     id="path1874"
     inkscape:connector-curvature="0" /><path
     d="m 274.92306,277.70208 c -5e-5,20.35269 -16.4721,36.86607 -36.82472,36.91714 -20.35262,0.0511 -36.90733,-16.37944 -37.00951,-36.73188 -0.10224,-20.35242 16.28669,-36.94835 36.6388,-37.10166 20.3521,-0.15336 36.98914,16.19385 37.19356,36.54549"
     style="fill:#ffffff;fill-opacity:1;fill-rule:evenodd;stroke:none"
     id="path1876"
     inkscape:connector-curvature="0" /><path
     d="m 356.55846,277.70208 c -5e-5,20.35269 -16.4721,36.86607 -36.82472,36.91714 -20.35262,0.0511 -36.90733,-16.37944 -37.00951,-36.73188 -0.10224,-20.35242 16.28669,-36.94835 36.6388,-37.10166 20.3521,-0.15336 36.98914,16.19385 37.19356,36.54549"
     style="fill:#ffffff;fill-opacity:1;fill-rule:evenodd;stroke:none"
     id="path1880"
     inkscape:connector-curvature="0" /><path
     d="m 440.13786,277.70208 c -5e-5,20.35269 -16.4721,36.86607 -36.82472,36.91714 -20.35262,0.0511 -36.90733,-16.37944 -37.00951,-36.73188 -0.10224,-20.35242 16.28669,-36.94835 36.6388,-37.10166 20.3521,-0.15336 36.98914,16.19385 37.19356,36.54549"
     style="fill:#ffffff;fill-opacity:1;fill-rule:evenodd;stroke:none"
     id="path3511"
     inkscape:connector-curvature="0" /><path
     d="m 62.11864,241.28128 -17.2125,0.7875 c -9.586188,23.84658 -1.601856,45.66666 24.75,61.81875 29.695464,18.20149 65.37776,35.72885 75.7125,36 l 351.1125,0.1125 c 10.33474,-0.27115 46.01705,-17.79847 75.7125,-36 26.35186,-16.15209 34.33619,-38.02842 24.75,-61.875 l -17.2125,-0.73125 c 5.17975,22.31181 9.65025,37.37086 -22.6125,52.65 -26.40589,12.50539 -54.31747,27.39269 -58.66875,28.29375 l -355.05,-0.0562 c -4.35127,-0.9011 -32.20661,-15.84461 -58.6125,-28.35 -32.26275,-15.27912 -27.848502,-30.33819 -22.66875,-52.65 z M 20.171332,79.203788 l 0,24.457532 239.757908,8.15251 0,-32.980608 -239.757908,0.370566 z"
     style="color:#000000;fill:#ffffff;fill-opacity:1;fill-rule:nonzero;stroke:none;stroke-width:1;marker:none;visibility:visible;display:inline;overflow:visible"
     id="path1890"
     inkscape:connector-curvature="0" /><path
     d="m 523.06908,279.63276 c -5e-5,20.35269 -16.4721,36.86607 -36.82472,36.91714 -20.35262,0.0511 -36.90733,-16.37944 -37.00951,-36.73188 -0.10224,-20.35242 16.28669,-36.94835 36.6388,-37.10166 20.3521,-0.15336 36.98914,16.19385 37.19356,36.54549"
     style="fill:#ffffff;fill-opacity:1;fill-rule:evenodd;stroke:none"
     id="path1884"
     inkscape:connector-curvature="0" /><path
     d="m 574.2534,262.47633 c -4e-5,11.60151 -9.38949,21.01453 -20.99097,21.04364 -11.60149,0.0292 -21.03806,-9.33667 -21.09631,-20.93805 -0.0583,-11.60136 9.28381,-21.06144 20.88499,-21.14883 11.6012,-0.0875 21.08469,9.23089 21.20123,20.83181"
     style="fill:#ffffff;fill-opacity:1;fill-rule:evenodd;stroke:none"
     id="path1886"
     inkscape:connector-curvature="0" /><path
     d="m 109.38414,262.47633 c -4e-5,11.60151 -9.389486,21.01453 -20.990972,21.04364 -11.601486,0.0292 -21.038058,-9.33667 -21.096306,-20.93805 -0.05825,-11.60136 9.283806,-21.06144 20.884986,-21.14883 11.601198,-0.0875 21.084692,9.23089 21.201232,20.83181"
     style="fill:#ffffff;fill-opacity:1;fill-rule:evenodd;stroke:none"
     id="path1888"
     inkscape:connector-curvature="0" /></g></svg>