<?xml version="1.0" encoding="UTF-8" standalone="no"?>
<!-- Generator: Adobe Illustrator 15.0.0, SVG Export Plug-In . SVG Version: 6.00 Build 0)  -->

<svg
   xmlns:dc="http://purl.org/dc/elements/1.1/"
   xmlns:cc="http://creativecommons.org/ns#"
   xmlns:rdf="http://www.w3.org/1999/02/22-rdf-syntax-ns#"
   xmlns:svg="http://www.w3.org/2000/svg"
   xmlns="http://www.w3.org/2000/svg"
   xmlns:sodipodi="http://sodipodi.sourceforge.net/DTD/sodipodi-0.dtd"
   xmlns:inkscape="http://www.inkscape.org/namespaces/inkscape"
   version="1.1"
   x="0px"
   y="0px"
   width="580px"
   height="580px"
   viewBox="0 0 580 580"
   enable-background="new 0 0 580 580"
   xml:space="preserve"
   id="svg3000"
   inkscape:version="0.48.4 r9939"
   sodipodi:docname="charging_station_osmic.svg"><metadata
   id="metadata3013"><rdf:RDF><cc:Work
       rdf:about=""><dc:format>image/svg+xml</dc:format><dc:type
         rdf:resource="http://purl.org/dc/dcmitype/StillImage" /><dc:title /></cc:Work></rdf:RDF></metadata><defs
   id="defs3011">
	
</defs><sodipodi:namedview
   pagecolor="#ffffff"
   bordercolor="#666666"
   borderopacity="1"
   objecttolerance="10"
   gridtolerance="10"
   guidetolerance="10"
   inkscape:pageopacity="0"
   inkscape:pageshadow="2"
   inkscape:window-width="1725"
   inkscape:window-height="1026"
   id="namedview3009"
   showgrid="false"
   inkscape:snap-nodes="false"
   inkscape:zoom="0.54"
   inkscape:cx="321.00627"
   inkscape:cy="398.69183"
   inkscape:window-x="145"
   inkscape:window-y="76"
   inkscape:window-maximized="0"
   inkscape:current-layer="svg3000" />
<g
   id="Layer_2"
   transform="translate(0.0735,-0.43022222)">
		<g
   id="g1327">
			<path
   style="fill:#111111;stroke:#eeeeee;stroke-width:3.40799999"
   inkscape:connector-curvature="0"
   d="M 66.275,1.768 C 24.94,1.768 1.704,23.139 1.704,66.804 v 450.123 c 0,40.844 20.895,62.229 62.192,62.229 H 515.92 c 41.307,0 62.229,-20.315 62.229,-62.229 V 66.804 c 0,-42.602 -20.923,-65.036 -63.521,-65.036 -0.003,0 -448.495,-0.143 -448.353,0 z"
   id="path1329" />
		</g>
	</g>

<path
   inkscape:connector-curvature="0"
   d="m 137.99865,82.000003 c -37.29696,0 -64.000005,25.456637 -64.000005,64.000007 l 0,351.99999 223.999995,0 0,-251.99999 c 0,0 28,-4 28,28 l 0,128 c 0,63.99999 59.6704,67.99999 68,67.99999 8.8208,0 68,-3.99904 68,-67.99999 l 0,-128 c 0,0 44.40192,0.5568 44,-95 l -24,0 0,-64 c 0,-18.149127 -24,-18.039687 -24,-0.9984 l 0,64 -32,0 0,-64 c 0,-17.477767 -24,-17.446087 -24,0 l 0,64 -24,0 c 0.4,95.56448 44,96 44,96 l 0,128 c 0,27.97311 -24.54848,27.99999 -28,27.99999 -3.45184,0 -28,-1.3696 -28,-27.99999 l 0,-128 c 0,-40.98912 -36,-68 -68,-68 l 0,-60 c 0,-39.11841 -26.12801,-64.000007 -64.00001,-64.000007 z m 32,96.000007 63.99998,0 -39.99998,64 47.99998,0 -87.99998,128 -16,0 32,-96 -40,0 z"
   id="charging-station"
   style="fill:#ffffff;fill-opacity:1" /></svg>