<?xml version="1.0" encoding="utf-8"?>
<!-- Generator: Adobe Illustrator 15.0.0, SVG Export Plug-In . SVG Version: 6.00 Build 0)  -->
<!DOCTYPE svg PUBLIC "-//W3C//DTD SVG 1.1//EN" "http://www.w3.org/Graphics/SVG/1.1/DTD/svg11.dtd">
<svg version="1.1" xmlns="http://www.w3.org/2000/svg" xmlns:xlink="http://www.w3.org/1999/xlink" x="0px" y="0px" width="580px"
	 height="580px" viewBox="0 0 580 580" enable-background="new 0 0 580 580" xml:space="preserve">
<g id="Layer_1">
	<g id="Layer_2">
		<g id="g1327">
			<path id="path1329" fill="#111111" stroke="#EEEEEE" stroke-width="3.408" d="M66.275,1.768
				c-41.335,0-64.571,21.371-64.571,65.036v450.123c0,40.844,20.895,62.229,62.192,62.229H515.92
				c41.307,0,62.229-20.315,62.229-62.229V66.804c0-42.601-20.924-65.036-63.521-65.036C514.624,1.768,66.133,1.625,66.275,1.768z"
				/>
		</g>
	</g>
</g>
<g id="Layer_3">
	<g id="layer1" transform="matrix(31.324341,0,0,31.324341,38.009594,-32426.481)">
		<g id="g3903" transform="translate(-0.0301595,0)">
			<g id="g3890" transform="matrix(1.0752098,0,0,1.1328229,-44.033537,-140.05992)">
				<path id="path2853" fill="#FFFFFF" d="M48.441,1043.071c-0.409-0.086-0.845,0.032-1.219,0.287
					c-0.374,0.254-0.705,0.654-1.031,1.176c-0.653,1.043-1.244,2.867-1.425,3.694c-0.181,0.828-0.389,1.789-0.477,2.503
					c0.155-0.683,0.443-1.711,0.682-2.499c0.239-0.788,0.966-2.574,1.59-3.468c0.33-0.473,0.683-0.835,0.973-1.032
					c0.29-0.197,0.53-0.253,0.781-0.201c0.503,0.105,1.374,0.671,1.912,2.059c0.538,1.387,1.119,3.485,1.414,6.303l0.143,0.039
					c-0.298-2.842-0.751-4.948-1.312-6.395C49.911,1044.09,49.26,1043.242,48.441,1043.071v-0.001v0V1043.071L48.441,1043.071z"/>
				<path id="path2857" fill="#FFFFFF" d="M50.606,1038.337c-0.111-0.068-0.288-0.036-0.394,0.031
					c-0.213,0.135-0.356,0.33-0.464,0.625c-0.087,0.238-0.28,0.861-0.438,1.633c-0.158,0.772-0.159,1.214-0.212,1.883
					c0.082-0.674,0.232-1.101,0.418-1.838c0.209-0.718,0.53-1.293,0.669-1.51c0.097-0.152,0.159-0.26,0.208-0.261
					c0.131,0,0.278,0.618,0.371,1.033c0.382,1.702,0.707,5.295,0.853,11.821l0.292-0.011c-0.146-6.537-0.436-10.384-0.788-12.156
					c-0.088-0.443-0.189-0.748-0.303-0.969C50.761,1038.507,50.717,1038.404,50.606,1038.337L50.606,1038.337L50.606,1038.337
					L50.606,1038.337z"/>
				<path id="use3670" fill="#FFFFFF" d="M48.972,1043.071c-0.369-0.091-0.774,0.029-1.094,0.287
					c-0.32,0.259-0.601,0.655-0.875,1.176c-0.549,1.041-0.929,2.42-1.143,3.634c-0.214,1.214-0.318,2.617-0.318,2.617
					s0.263-1.363,0.508-2.572c0.245-1.208,0.739-2.505,1.253-3.479c0.257-0.487,0.68-0.811,0.919-1.004
					c0.239-0.193,0.437-0.247,0.625-0.201c0.188,0.047,0.5,0.17,0.743,0.523c0.243,0.353,0.662,0.904,0.89,1.599
					c0.454,1.391,0.797,3.473,1.046,6.293l0.29-0.013c-0.251-2.84-0.653-4.951-1.125-6.395c-0.236-0.722-0.469-1.284-0.75-1.692
					c-0.281-0.408-0.6-0.683-0.969-0.774L48.972,1043.071L48.972,1043.071L48.972,1043.071L48.972,1043.071z"/>
				<path id="use3672" fill="#FFFFFF" d="M49.191,1043.1c-0.156,0.06-0.285,0.155-0.406,0.287c-0.243,0.263-0.452,0.658-0.656,1.176
					c-0.408,1.036-0.749,2.52-0.949,3.766c-0.201,1.246-0.235,2.269-0.235,2.269s0.2-0.972,0.492-2.231
					c0.292-1.259,0.732-2.653,1.117-3.632c0.193-0.489,0.433-0.844,0.607-1.032c0.087-0.094,0.165-0.151,0.219-0.172
					c0.054-0.021,0.077-0.015,0.125,0c0.095,0.032,0.399,0.145,0.582,0.5c0.183,0.355,0.457,0.914,0.627,1.612
					c0.341,1.396,0.711,3.481,0.898,6.303l0.237-0.012c-0.187-2.838-0.493-4.928-0.844-6.366c-0.175-0.719-0.354-1.286-0.563-1.692
					c-0.209-0.405-0.43-0.668-0.75-0.774c-0.16-0.053-0.344-0.06-0.5,0v-0.001v0V1043.1L49.191,1043.1z"/>
				<path id="use3674" fill="#FFFFFF" d="M50.472,1043.043c-0.089,0.01-0.161,0.045-0.219,0.087
					c-0.116,0.083-0.185,0.185-0.25,0.315c-0.129,0.26-0.235,0.635-0.344,1.147c-0.217,1.025-0.438,2.593-0.594,4.617l-0.01,1.353
					l0.298-1.324c0.155-2.012,0.463-3.57,0.673-4.559c0.105-0.495,0.319-0.841,0.414-1.032c0.018-0.036,0.016-0.035,0.031-0.057
					c0.012,0.017,0.019,0,0.031,0.029c0.045,0.092,0.163,0.25,0.249,0.421c0.173,0.346,0.3,0.884,0.392,1.586
					c0.184,1.405,0.399,3.501,0.499,6.327l0.235-0.018c-0.1-2.834-0.25-4.937-0.438-6.366c-0.094-0.714-0.202-1.238-0.313-1.635
					c-0.055-0.198-0.092-0.385-0.156-0.516c-0.064-0.13-0.153-0.237-0.281-0.315c-0.064-0.039-0.13-0.062-0.219-0.057v-0.001h0
					V1043.043z"/>
				<path id="use3678" fill="#FFFFFF" d="M50.998,1038.43c-0.078,0.082-0.187,0.403-0.272,0.657
					c-0.085,0.254-0.275,1.068-0.328,1.514c-0.052,0.446-0.106,1.702-0.099,1.702c0,0,0.221-1.388,0.275-1.697
					c0.054-0.308,0.208-0.92,0.337-1.256c0.107-0.28,0.249-0.426,0.329-0.426c0.08,0,0.178,0.234,0.257,1.326
					c0.079,1.092,0.064,5.251,0.118,11.477l0.189,0.016c-0.057-6.534-0.02-11.139-0.093-12.125
					c-0.073-0.986-0.354-1.313-0.487-1.313C51.092,1038.306,51.075,1038.348,50.998,1038.43L50.998,1038.43z"/>
				<path id="path3680" fill="#FFFFFF" d="M52.637,1050.735c-3.22-0.36-4.973,1.311-7.44,1.235v0.415c0.93,0,1.86,0,6.51,0"/>
			</g>
		</g>
	</g>
</g>
</svg>
