<?xml version="1.0" encoding="utf-8"?>
<!-- Generator: Adobe Illustrator 15.0.0, SVG Export Plug-In . SVG Version: 6.00 Build 0)  -->
<!DOCTYPE svg PUBLIC "-//W3C//DTD SVG 1.1//EN" "http://www.w3.org/Graphics/SVG/1.1/DTD/svg11.dtd">
<svg version="1.1" xmlns="http://www.w3.org/2000/svg" xmlns:xlink="http://www.w3.org/1999/xlink" x="0px" y="0px" width="580px"
	 height="580px" viewBox="0 0 580 580" enable-background="new 0 0 580 580" xml:space="preserve">
<g id="Layer_1">
	<g id="Layer_2">
		<g id="g1327">
			<path id="path1329" fill="#111111" stroke="#EEEEEE" stroke-width="3.408" d="M66.275,1.768
				c-41.335,0-64.571,21.371-64.571,65.036v450.123c0,40.844,20.895,62.229,62.192,62.229h452.024
				c41.307,0,62.229-20.315,62.229-62.229V66.804c0-42.602-20.923-65.036-63.521-65.036C514.625,1.768,66.133,1.625,66.275,1.768z"
				/>
		</g>
	</g>
</g>
<g id="Layer_2_1_">
	<path fill="#FFFFFF" d="M464.968,198.906l30.219-61.84l54.627,166.688l13.305-4.359L497.751,99.933l-38.777,79.352l-75.891-43.783
		l-46.488,41.599l1.81,2.021c-48.171-21.194-145.39-4.062-172.786,1.4l-48.874-75.959L87.137,161.5H57.828L16.57,338.914
		l13.636,3.172L68.947,175.5h26.691l22.393-43.064l140.206,217.911c5.969,123.68-93.251,167.232-93.251,167.232l355.482-29.998
		c-73.497-19.499-94.495-215.99-163.492-295.484c-2.314-2.667-5.039-5.053-8.11-7.189l36.001-32.214L464.968,198.906z"/>
</g>
</svg>
