<?xml version="1.0" encoding="utf-8"?>
<!-- Generator: Adobe Illustrator 15.0.0, SVG Export Plug-In . SVG Version: 6.00 Build 0)  -->
<!DOCTYPE svg PUBLIC "-//W3C//DTD SVG 1.1//EN" "http://www.w3.org/Graphics/SVG/1.1/DTD/svg11.dtd">
<svg version="1.1" xmlns="http://www.w3.org/2000/svg" xmlns:xlink="http://www.w3.org/1999/xlink" x="0px" y="0px" width="580px"
	 height="580px" viewBox="0 0 580 580" enable-background="new 0 0 580 580" xml:space="preserve">
<g id="Layer_2">
	<g id="g1327">
		<path id="path1329" fill="#111111" stroke="#EEEEEE" stroke-width="3.408" d="M66.275,1.768
			c-41.335,0-64.571,21.371-64.571,65.036v450.123c0,40.844,20.894,62.229,62.192,62.229H515.92
			c41.307,0,62.229-20.316,62.229-62.229V66.804c0-42.601-20.923-65.036-63.522-65.036C514.624,1.768,66.133,1.625,66.275,1.768z"/>
	</g>
</g>
<g id="svg2" inkscape:version="0.46" sodipodi:docname="waste_bin.svg" sodipodi:version="0.32" xmlns:cc="http://creativecommons.org/ns#" xmlns:dc="http://purl.org/dc/elements/1.1/" xmlns:rdf="http://www.w3.org/1999/02/22-rdf-syntax-ns#" xmlns:inkscape="http://www.inkscape.org/namespaces/inkscape" xmlns:svg="http://www.w3.org/2000/svg" xmlns:sodipodi="http://sodipodi.sourceforge.net/DTD/sodipodi-0.dtd" inkscape:output_extension="org.inkscape.output.svg.inkscape">
	<path fill-rule="evenodd" clip-rule="evenodd" fill="#FFFFFF" d="M534.623,176.926c-83.959-10.6-114.914,54.943-168.224,84.113
		c-36.115-9.615-54.859-45.824-99.281-39.988c-36.691,4.821-69.054,26.82-95.144,49.64c-27.168,23.763-54.518,48.905-97.901,45.503
		c8.672-11.789,36.537-15.012,30.335-37.229c-4.697-16.831-48.171-15.463-52.398,4.137c2.814-3.852,40.892-14.479,39.988,1.379
		c-0.214,3.751-19.392,12.422-26.199,16.546c-10.297,6.24-19.106,11.681-23.441,19.305c-3.983,5.171-8.963,13.1,0,23.441
		c38.8,30.188,116.96,2.405,157.194-6.895c6.083,15.015-3.771,36.197-6.895,51.02c5.867,4.923,17.278,10.922,26.199,8.272
		c-1.637-12.263-5.353-27.57,1.379-37.229c2.514,14.032,4.476,28.617,6.895,42.745c9.057,1.123,18.494,5.098,26.199,0
		c-10.645-13.594-13.515-36.66-8.273-59.292c10.736,1.674,22.026,2.794,31.714,5.516c-1.458,16.467-5.573,30.277-8.273,45.504
		c6.623,4.167,20.95,7.249,28.957,5.515c-2.497-16.064-0.502-36.041,5.516-53.776c11.961-2.874,26.721-9.879,41.367-5.516
		c9.053,18.524,20.012,35.145,33.094,49.641c14.687,0.438,24.165-4.332,26.198-16.547c-21.179-6.858-31.618-24.457-30.335-53.777
		c37.642-25.124,53.229-75.535,88.248-104.796c17.013-14.216,46.648-14.618,74.46-16.546
		C547.865,189.203,541.637,178.799,534.623,176.926z"/>
</g>
</svg>
