<?xml version="1.0" encoding="UTF-8" standalone="no"?>
<!-- Generator: Adobe Illustrator 15.0.0, SVG Export Plug-In . SVG Version: 6.00 Build 0)  -->

<svg
   xmlns:dc="http://purl.org/dc/elements/1.1/"
   xmlns:cc="http://creativecommons.org/ns#"
   xmlns:rdf="http://www.w3.org/1999/02/22-rdf-syntax-ns#"
   xmlns:svg="http://www.w3.org/2000/svg"
   xmlns="http://www.w3.org/2000/svg"
   xmlns:sodipodi="http://sodipodi.sourceforge.net/DTD/sodipodi-0.dtd"
   xmlns:inkscape="http://www.inkscape.org/namespaces/inkscape"
   version="1.1"
   x="0px"
   y="0px"
   width="580px"
   height="580px"
   viewBox="0 0 580 580"
   enable-background="new 0 0 580 580"
   xml:space="preserve"
   id="svg30"
   sodipodi:docname="shrubbery.svg"
   inkscape:version="0.92.3 (2405546, 2018-03-11)"><metadata
   id="metadata36"><rdf:RDF><cc:Work
       rdf:about=""><dc:format>image/svg+xml</dc:format><dc:type
         rdf:resource="http://purl.org/dc/dcmitype/StillImage" /><dc:title></dc:title></cc:Work></rdf:RDF></metadata><defs
   id="defs34">
	
</defs><sodipodi:namedview
   pagecolor="#ffffff"
   bordercolor="#666666"
   borderopacity="1"
   objecttolerance="10"
   gridtolerance="10"
   guidetolerance="10"
   inkscape:pageopacity="0"
   inkscape:pageshadow="2"
   inkscape:window-width="1231"
   inkscape:window-height="949"
   id="namedview32"
   showgrid="false"
   inkscape:zoom="0.96"
   inkscape:cx="290"
   inkscape:cy="290"
   inkscape:window-x="226"
   inkscape:window-y="78"
   inkscape:window-maximized="1"
   inkscape:current-layer="svg30" />
<g
   id="Layer_2">
	<g
   id="g1327">
		<path
   id="path1329"
   d="M66.275,1.768    c-41.335,0-64.571,21.371-64.571,65.036v450.123c0,40.844,20.894,62.229,62.192,62.229H515.92    c41.307,0,62.229-20.316,62.229-62.229V66.804c0-42.601-20.923-65.036-63.522-65.036C514.624,1.768,66.133,1.625,66.275,1.768z"
   stroke-width="3.408"
   stroke="#EEEEEE"
   fill="#111111" />
	</g>
</g>

<g
   id="g840"
   transform="translate(-4.420945,-36.953707)"><path
     style="fill:#ffffff;stroke:#000000;stroke-width:6.2022047;stroke-miterlimit:4;stroke-dasharray:none;stroke-opacity:1"
     inkscape:connector-curvature="0"
     id="path831"
     d="m 405.09343,289.74789 c 0,-16.94152 -10.15938,-31.50212 -24.7136,-37.94649 1.86709,-4.72144 2.90436,-9.8615 2.90436,-15.24679 0,-22.9146 -18.57617,-41.49075 -41.49076,-41.49075 -12.20626,0 -23.18004,5.27251 -30.77232,13.66268 -7.33322,-11.71581 -20.34642,-19.51395 -35.18736,-19.51395 -21.24114,0 -38.74278,15.96543 -41.18755,36.54911 -4.43845,-1.62027 -9.23063,-2.5054 -14.2292,-2.5054 -22.9146,0 -41.49076,18.57614 -41.49076,41.49075 0,15.54148 8.55028,29.07864 21.19858,36.18685 -6.56404,7.33908 -10.55993,17.02399 -10.55993,27.64509 12.92272,59.67637 95.18516,44.38781 138.56849,44.15042 22.91461,0 41.49076,-18.57616 41.49076,-41.49076 0,-0.14682 -0.01,-0.29203 -0.0112,-0.43885 20.06557,-2.91286 35.48045,-20.17887 35.48045,-41.05191 z"
     sodipodi:nodetypes="ccsscscsscccscsc" /><path
     sodipodi:nodetypes="ccsscscsscccscsc"
     d="m 536.99899,379.77575 c 0,-16.94152 -10.15938,-31.50212 -24.7136,-37.94649 1.86709,-4.72144 2.90436,-9.8615 2.90436,-15.24679 0,-22.9146 -18.57617,-41.49075 -41.49076,-41.49075 -12.20626,0 -23.18004,5.27251 -30.77232,13.66268 -7.33322,-11.71581 -20.34642,-19.51395 -35.18736,-19.51395 -21.24114,0 -38.74278,15.96543 -41.18755,36.54911 -4.43845,-1.62027 -9.23063,-2.5054 -14.2292,-2.5054 -22.9146,0 -41.49076,18.57614 -41.49076,41.49075 0,15.54148 8.55028,29.07864 21.19858,36.18685 -6.56404,7.33908 -10.55993,17.02399 -10.55993,27.64509 12.92272,59.67637 95.18516,44.38781 138.56849,44.15042 22.91461,0 41.49076,-18.57616 41.49076,-41.49076 0,-0.14682 -0.01,-0.29203 -0.0112,-0.43885 20.06557,-2.91286 35.48045,-20.17887 35.48045,-41.05191 z"
     id="path833"
     inkscape:connector-curvature="0"
     style="fill:#ffffff;stroke:#000000;stroke-width:6.2022047;stroke-miterlimit:4;stroke-dasharray:none;stroke-opacity:1" /><path
     style="fill:#ffffff;stroke:#000000;stroke-width:6.2022047;stroke-miterlimit:4;stroke-dasharray:none;stroke-opacity:1"
     inkscape:connector-curvature="0"
     id="path835"
     d="m 278.01009,355.3729 c 0,-16.94152 -10.15938,-31.50212 -24.7136,-37.94649 1.86709,-4.72144 2.90436,-9.8615 2.90436,-15.24679 0,-22.9146 -18.57617,-41.49075 -41.49076,-41.49075 -12.20626,0 -23.18004,5.27251 -30.77232,13.66268 -7.33322,-11.71581 -20.34642,-19.51395 -35.18736,-19.51395 -21.24114,0 -38.74278,15.96543 -41.18755,36.54911 -4.43845,-1.62027 -9.23063,-2.5054 -14.2292,-2.5054 -22.9146,0 -41.49076,18.57614 -41.49076,41.49075 0,15.54148 8.55028,29.07864 21.19858,36.18685 -6.56404,7.33908 -10.55993,17.02399 -10.55993,27.64509 12.92272,59.67637 95.18516,44.38781 138.56849,44.15042 22.91461,0 41.49076,-18.57616 41.49076,-41.49076 0,-0.14682 -0.01,-0.29203 -0.0112,-0.43885 20.06557,-2.91286 35.48045,-20.17887 35.48045,-41.05191 z"
     sodipodi:nodetypes="ccsscscsscccscsc" /></g></svg>