<?xml version="1.0" encoding="UTF-8" standalone="no"?>
<!-- Generator: Adobe Illustrator 15.0.0, SVG Export Plug-In . SVG Version: 6.00 Build 0)  -->

<svg
   xmlns:dc="http://purl.org/dc/elements/1.1/"
   xmlns:cc="http://creativecommons.org/ns#"
   xmlns:rdf="http://www.w3.org/1999/02/22-rdf-syntax-ns#"
   xmlns:svg="http://www.w3.org/2000/svg"
   xmlns="http://www.w3.org/2000/svg"
   xmlns:sodipodi="http://sodipodi.sourceforge.net/DTD/sodipodi-0.dtd"
   xmlns:inkscape="http://www.inkscape.org/namespaces/inkscape"
   version="1.1"
   x="0px"
   y="0px"
   width="580px"
   height="580px"
   viewBox="0 0 580 580"
   enable-background="new 0 0 580 580"
   xml:space="preserve"
   id="svg30"
   sodipodi:docname="shrub.svg"
   inkscape:version="0.92.3 (2405546, 2018-03-11)"><metadata
   id="metadata36"><rdf:RDF><cc:Work
       rdf:about=""><dc:format>image/svg+xml</dc:format><dc:type
         rdf:resource="http://purl.org/dc/dcmitype/StillImage" /><dc:title></dc:title></cc:Work></rdf:RDF></metadata><defs
   id="defs34">
	
</defs><sodipodi:namedview
   pagecolor="#ffffff"
   bordercolor="#666666"
   borderopacity="1"
   objecttolerance="10"
   gridtolerance="10"
   guidetolerance="10"
   inkscape:pageopacity="0"
   inkscape:pageshadow="2"
   inkscape:window-width="1231"
   inkscape:window-height="949"
   id="namedview32"
   showgrid="false"
   inkscape:zoom="0.96"
   inkscape:cx="290"
   inkscape:cy="290"
   inkscape:window-x="226"
   inkscape:window-y="78"
   inkscape:window-maximized="0"
   inkscape:current-layer="svg30" />
<g
   id="Layer_2">
	<g
   id="g1327">
		<path
   id="path1329"
   fill="#111111"
   stroke="#EEEEEE"
   stroke-width="3.408"
   d="M66.275,1.768    c-41.335,0-64.571,21.371-64.571,65.036v450.123c0,40.844,20.894,62.229,62.192,62.229H515.92    c41.307,0,62.229-20.316,62.229-62.229V66.804c0-42.601-20.923-65.036-63.522-65.036C514.624,1.768,66.133,1.625,66.275,1.768z" />
	</g>
</g>
<path
   style="fill:#ffffff;stroke-width:0.71812844"
   inkscape:connector-curvature="0"
   id="path27"
   d="m 442.59343,300.98054 c 0,-22.87167 -13.71554,-42.529 -33.36425,-51.22913 2.52063,-6.37411 3.92098,-13.31338 3.92098,-20.58372 0,-30.93553 -25.07849,-56.01401 -56.01401,-56.01401 -16.4789,0 -31.29389,7.11809 -41.54374,18.44512 -9.90012,-15.81677 -27.46841,-26.34454 -47.50421,-26.34454 -28.6763,0 -52.30415,21.55391 -55.60467,49.34261 -5.99207,-2.18742 -12.46169,-3.38238 -19.20994,-3.38238 -30.93554,0 -56.01402,25.07847 -56.01402,56.01401 0,20.98156 11.54319,39.25721 28.61885,48.85356 -8.8617,9.90802 -14.25629,22.98299 -14.25629,37.32186 17.44614,80.56525 128.50339,59.92514 187.07245,59.60466 30.93555,0 56.01403,-25.07848 56.01403,-56.01402 0,-0.19821 -0.0129,-0.39425 -0.0151,-0.59246 27.08924,-3.93247 47.89989,-27.2422 47.89989,-55.42156 z"
   sodipodi:nodetypes="ccsscscsscccscsc" />
</svg>