<?xml version="1.0" encoding="utf-8"?>
<!-- Generator: Adobe Illustrator 15.0.0, SVG Export Plug-In . SVG Version: 6.00 Build 0)  -->
<!DOCTYPE svg PUBLIC "-//W3C//DTD SVG 1.1//EN" "http://www.w3.org/Graphics/SVG/1.1/DTD/svg11.dtd">
<svg version="1.1" xmlns="http://www.w3.org/2000/svg" xmlns:xlink="http://www.w3.org/1999/xlink" x="0px" y="0px" width="580px"
	 height="580px" viewBox="0 0 580 580" enable-background="new 0 0 580 580" xml:space="preserve">
<g id="Layer_2">
	<g id="g1327">
		<path id="path1329" fill="#111111" stroke="#EEEEEE" stroke-width="3.408" d="M66.275,1.768
			c-41.335,0-64.571,21.371-64.571,65.036v450.123c0,40.844,20.894,62.229,62.192,62.229H515.92
			c41.307,0,62.229-20.316,62.229-62.229V66.804c0-42.601-20.923-65.036-63.522-65.036C514.624,1.768,66.133,1.625,66.275,1.768z"/>
	</g>
</g>
<g id="svg2" inkscape:output_extension="org.inkscape.output.svg.inkscape" xmlns:cc="http://creativecommons.org/ns#" xmlns:svg="http://www.w3.org/2000/svg" xmlns:sodipodi="http://sodipodi.sourceforge.net/DTD/sodipodi-0.dtd" xmlns:rdf="http://www.w3.org/1999/02/22-rdf-syntax-ns#" xmlns:dc="http://purl.org/dc/elements/1.1/" xmlns:inkscape="http://www.inkscape.org/namespaces/inkscape" sodipodi:docname="waste_bin.svg" inkscape:version="0.46" sodipodi:version="0.32">
	<g>
		<g id="path2157">
			<g>
				<path fill="#FFFFFF" d="M518.808,239.328c-4.704,0-9.008-3.136-10.289-7.895c-0.352-1.31-0.709-2.608-1.068-3.897
					c-1.584-5.671,1.728-11.553,7.397-13.138c5.675-1.583,11.555,1.728,13.138,7.398c0.38,1.354,0.755,2.721,1.125,4.099
					c1.529,5.686-1.84,11.536-7.527,13.065C520.656,239.208,519.725,239.328,518.808,239.328z M302.175,230.939
					c-0.497,0-1-0.034-1.507-0.106c-5.83-0.824-9.888-6.219-9.063-12.05c0.204-1.437,0.419-2.867,0.646-4.288
					c0.93-5.815,6.399-9.774,12.21-8.846c5.815,0.929,9.775,6.396,8.847,12.21c-0.208,1.297-0.403,2.601-0.589,3.912
					C311.964,227.094,307.401,230.939,302.175,230.939z M504.585,196.038c-4.233,0-8.236-2.537-9.903-6.707
					c-0.502-1.253-1.006-2.492-1.514-3.718c-2.253-5.44,0.33-11.677,5.771-13.93c5.438-2.254,11.676,0.33,13.929,5.771
					c0.541,1.305,1.078,2.625,1.611,3.961c2.187,5.468-0.474,11.672-5.941,13.858C507.24,195.792,505.901,196.038,504.585,196.038z
					 M313.113,186.754c-1.221,0-2.46-0.211-3.672-0.655c-5.527-2.028-8.365-8.154-6.337-13.682c0.505-1.375,1.021-2.738,1.548-4.087
					c2.145-5.483,8.326-8.192,13.813-6.047c5.483,2.145,8.19,8.329,6.046,13.813c-0.474,1.21-0.937,2.434-1.389,3.667
					C321.539,184.079,317.458,186.754,313.113,186.754z M484.246,155.309c-3.541,0-7.005-1.762-9.03-4.98
					c-0.704-1.116-1.412-2.212-2.122-3.287c-3.248-4.913-1.897-11.527,3.016-14.773c4.912-3.25,11.527-1.895,14.772,3.016
					c0.796,1.204,1.587,2.429,2.373,3.679c3.141,4.982,1.646,11.565-3.336,14.703C488.154,154.778,486.188,155.309,484.246,155.309z
					 M334.009,146.367c-2.135,0-4.288-0.638-6.161-1.967c-4.802-3.407-5.934-10.062-2.525-14.864
					c0.863-1.217,1.737-2.414,2.622-3.591c3.545-4.705,10.229-5.646,14.933-2.105c4.703,3.542,5.646,10.226,2.104,14.93
					c-0.766,1.018-1.523,2.052-2.27,3.105C340.634,144.804,337.346,146.367,334.009,146.367z M454.736,120.815
					c-2.369,0-4.753-0.785-6.73-2.399c-0.972-0.791-1.944-1.553-2.923-2.284c-4.71-3.532-5.666-10.215-2.134-14.926
					c3.531-4.712,10.214-5.667,14.926-2.136c1.202,0.902,2.416,1.851,3.604,2.821c4.565,3.72,5.248,10.436,1.527,15
					C460.898,119.476,457.829,120.815,454.736,120.815z M366.413,114.671c-3.53,0-6.982-1.75-9.014-4.95
					c-3.154-4.972-1.681-11.56,3.292-14.714c1.302-0.826,2.636-1.631,3.966-2.393c5.113-2.924,11.625-1.149,14.549,3.961
					c2.924,5.111,1.15,11.625-3.96,14.548c-1.049,0.6-2.103,1.235-3.132,1.888C370.343,114.134,368.366,114.671,366.413,114.671z
					 M413.679,102.636c-0.376,0-0.756-0.02-1.138-0.061c-1.144-0.121-2.31-0.208-3.469-0.259
					c-5.884-0.256-10.445-5.232-10.188-11.115c0.257-5.882,5.239-10.441,11.114-10.188c1.601,0.069,3.213,0.19,4.793,0.358
					c5.855,0.621,10.098,5.872,9.477,11.727C423.688,98.572,419.062,102.636,413.679,102.636z"/>
			</g>
			<g>
				<path fill="#FFFFFF" d="M528.413,281.912c-5.039,0-9.518-3.584-10.471-8.716l-0.362-1.917
					c-1.102-5.784,2.691-11.368,8.475-12.472c5.792-1.106,11.367,2.691,12.472,8.474l0.38,2.02
					c1.075,5.789-2.745,11.354-8.535,12.43C529.713,281.853,529.058,281.912,528.413,281.912z"/>
			</g>
		</g>
		<g id="path3129">
			<g>
				<path fill="#FFFFFF" d="M303.955,270.411c-0.148,0-0.295-0.002-0.444-0.009c-6.177-0.241-10.989-5.443-10.748-11.621
					c0.024-0.634,0.047-1.268,0.066-1.9c0.187-6.18,5.349-11.056,11.527-10.849c6.179,0.187,11.035,5.348,10.849,11.527
					c-0.021,0.697-0.045,1.395-0.073,2.094C314.897,265.682,309.936,270.411,303.955,270.411z"/>
			</g>
			<g>
				<path fill="#FFFFFF" d="M61.935,238.077c-1.034,0-2.085-0.145-3.128-0.448c-5.936-1.725-9.351-7.936-7.626-13.872
					c0.375-1.288,0.752-2.566,1.133-3.834c1.778-5.921,8.017-9.281,13.939-7.502c5.921,1.777,9.28,8.018,7.502,13.939
					c-0.362,1.206-0.72,2.42-1.076,3.644C71.257,234.896,66.787,238.077,61.935,238.077z M301.867,229.522
					c-5.475,0-10.262-4.021-11.064-9.599c-0.177-1.226-0.364-2.445-0.561-3.657c-0.99-6.102,3.154-11.851,9.256-12.842
					c6.104-0.987,11.852,3.153,12.842,9.255c0.219,1.343,0.426,2.694,0.621,4.052c0.882,6.119-3.364,11.794-9.484,12.675
					C302.937,229.484,302.398,229.522,301.867,229.522z M76.052,197.614c-1.436,0-2.894-0.278-4.303-0.865
					c-5.706-2.379-8.403-8.934-6.024-14.64c0.523-1.253,1.05-2.494,1.58-3.722c2.453-5.675,9.045-8.285,14.716-5.835
					c5.674,2.453,8.287,9.042,5.835,14.716c-0.493,1.14-0.982,2.292-1.467,3.456C84.596,195.023,80.435,197.614,76.052,197.614z
					 M291.432,188.009c-4.549,0-8.826-2.793-10.498-7.31c-0.426-1.15-0.863-2.292-1.309-3.424
					c-2.267-5.752,0.558-12.252,6.309-14.519c5.751-2.269,12.251,0.557,14.519,6.309c0.503,1.276,0.995,2.563,1.476,3.859
					c2.146,5.797-0.812,12.238-6.609,14.385C294.037,187.784,292.724,188.009,291.432,188.009z M95.514,159.462
					c-2.031,0-4.086-0.552-5.934-1.709c-5.238-3.283-6.824-10.191-3.541-15.429c0.733-1.17,1.47-2.323,2.21-3.458
					c3.378-5.177,10.313-6.635,15.492-3.256c5.177,3.379,6.635,10.315,3.257,15.492c-0.667,1.021-1.33,2.058-1.989,3.111
					C102.885,157.603,99.24,159.462,95.514,159.462z M271.887,149.954c-3.56,0-7.061-1.694-9.232-4.85
					c-0.686-0.997-1.381-1.981-2.086-2.952c-3.632-5.002-2.521-12.002,2.481-15.635c5.001-3.63,12.001-2.521,15.635,2.481
					c0.815,1.123,1.62,2.262,2.414,3.417c3.504,5.093,2.216,12.063-2.877,15.566C276.284,149.314,274.074,149.954,271.887,149.954z
					 M122.331,126.155c-2.981,0-5.955-1.182-8.158-3.526c-4.234-4.504-4.016-11.588,0.488-15.823
					c1.038-0.976,2.081-1.927,3.126-2.853c4.63-4.097,11.704-3.667,15.801,0.962c4.097,4.629,3.667,11.704-0.962,15.801
					c-0.88,0.779-1.757,1.58-2.631,2.4C127.835,125.148,125.08,126.155,122.331,126.155z M242.669,118.783
					c-2.37,0-4.757-0.75-6.786-2.299c-0.937-0.716-1.881-1.413-2.833-2.09c-5.036-3.585-6.213-10.574-2.629-15.611
					c3.586-5.035,10.575-6.214,15.61-2.629c1.156,0.822,2.302,1.669,3.441,2.539c4.913,3.752,5.854,10.776,2.101,15.69
					C249.37,117.268,246.039,118.783,242.669,118.783z M158.279,103.372c-4.581,0-8.879-2.833-10.527-7.39
					c-2.103-5.813,0.905-12.23,6.719-14.333c1.374-0.497,2.777-0.969,4.172-1.403c5.904-1.838,12.177,1.457,14.015,7.36
					c1.838,5.902-1.458,12.177-7.36,14.015c-1.072,0.333-2.143,0.694-3.213,1.081C160.829,103.156,159.543,103.372,158.279,103.372z
					 M204.322,100.387c-0.805,0-1.623-0.088-2.442-0.27c-1.103-0.246-2.221-0.468-3.323-0.66
					c-6.089-1.064-10.164-6.864-9.099-12.954c1.065-6.089,6.861-10.159,12.954-9.099c1.438,0.251,2.896,0.542,4.331,0.861
					c6.035,1.343,9.838,7.323,8.495,13.357C214.078,96.837,209.453,100.387,204.322,100.387z"/>
			</g>
			<g>
				<path fill="#FFFFFF" d="M52.12,278.035c-0.747,0-1.503-0.076-2.263-0.231c-6.056-1.243-9.958-7.161-8.713-13.216l0.416-2.005
					c1.269-6.05,7.199-9.931,13.252-8.659c6.051,1.268,9.928,7.201,8.659,13.251l-0.398,1.916
					C61.985,274.386,57.323,278.035,52.12,278.035z"/>
			</g>
		</g>
		<g id="path3129_2_">
			<g>
				<path fill="#FFFFFF" d="M188.81,216.281c-2.489,0-4.995-0.826-7.074-2.525c-4.788-3.911-5.499-10.962-1.588-15.75
					c1.005-1.231,2.045-2.441,3.089-3.595c4.149-4.583,11.227-4.936,15.811-0.791c4.584,4.148,4.938,11.227,0.791,15.81
					c-0.793,0.876-1.584,1.798-2.352,2.737C195.273,214.876,192.055,216.281,188.81,216.281z M271.283,212.575
					c-3.086,0-6.158-1.268-8.371-3.758c-0.798-0.898-1.616-1.769-2.43-2.588c-4.358-4.384-4.336-11.472,0.048-15.83
					c4.383-4.359,11.472-4.337,15.83,0.048c1.106,1.113,2.212,2.291,3.286,3.498c4.107,4.622,3.69,11.696-0.93,15.804
					C276.583,211.644,273.928,212.575,271.283,212.575z M227.176,193.223c-5.635,0-10.484-4.243-11.113-9.973
					c-0.675-6.145,3.759-11.674,9.904-12.348c1.729-0.19,3.482-0.3,5.212-0.327c6.195-0.124,11.27,4.838,11.365,11.02
					c0.096,6.181-4.838,11.269-11.019,11.365c-1.032,0.016-2.08,0.082-3.114,0.195C227.997,193.2,227.584,193.223,227.176,193.223z"
					/>
			</g>
			<g>
				<path fill="#FFFFFF" d="M168.815,254.967c-1.119,0-2.256-0.169-3.38-0.525c-5.894-1.864-9.16-8.154-7.295-14.049
					c0.216-0.685,0.436-1.365,0.659-2.04c1.94-5.871,8.274-9.054,14.141-7.115c5.87,1.94,9.055,8.271,7.115,14.141
					c-0.193,0.584-0.383,1.174-0.571,1.768C177.975,251.917,173.565,254.967,168.815,254.967z"/>
			</g>
		</g>
		<g id="path3129_1_">
			<g>
				<path fill="#FFFFFF" d="M431.333,254.967c-4.748,0-9.153-3.044-10.667-7.811c-0.188-0.596-0.381-1.189-0.574-1.777
					c-1.94-5.87,1.244-12.201,7.113-14.141c5.873-1.941,12.203,1.246,14.143,7.115c0.222,0.671,0.44,1.349,0.658,2.03
					c1.87,5.893-1.392,12.186-7.283,14.057C433.596,254.796,432.454,254.967,431.333,254.967z"/>
			</g>
			<g>
				<path fill="#FFFFFF" d="M411.364,216.314c-3.246,0-6.466-1.405-8.679-4.116c-0.771-0.943-1.562-1.866-2.353-2.741
					c-4.145-4.587-3.787-11.665,0.8-15.81c4.589-4.146,11.666-3.786,15.81,0.8c1.042,1.153,2.08,2.363,3.086,3.595
					c3.91,4.79,3.196,11.841-1.594,15.75C416.356,215.488,413.852,216.314,411.364,216.314z M328.891,212.545
					c-2.646,0-5.302-0.933-7.435-2.829c-4.62-4.108-5.035-11.184-0.927-15.803c1.07-1.204,2.176-2.38,3.288-3.497
					c4.358-4.381,11.445-4.402,15.829-0.042c4.383,4.359,4.402,11.447,0.043,15.83c-0.819,0.823-1.636,1.693-2.431,2.585
					C335.048,211.277,331.976,212.545,328.891,212.545z M373.008,193.226c-0.41,0-0.825-0.022-1.241-0.068
					c-1.039-0.115-2.089-0.181-3.122-0.198c-6.182-0.101-11.11-5.194-11.009-11.375c0.102-6.182,5.165-11.076,11.376-11.009
					c1.727,0.029,3.479,0.139,5.208,0.33c6.146,0.678,10.577,6.208,9.9,12.353C383.488,188.986,378.639,193.226,373.008,193.226z"/>
			</g>
		</g>
		<g id="path3131">
			<g>
				<g>
					<path fill="#FFFFFF" d="M303.781,268.666c-5.888,0-10.662-4.774-10.662-10.662v-1.997c0-5.889,4.774-10.662,10.662-10.662
						s10.661,4.773,10.661,10.662v1.997C314.442,263.892,309.669,268.666,303.781,268.666z"/>
				</g>
				<g>
					<path fill="#FFFFFF" d="M303.781,457.783c-5.888,0-10.662-4.773-10.662-10.662v-4.298c0-5.889,4.774-10.661,10.662-10.661
						s10.661,4.772,10.661,10.661v4.298C314.442,453.01,309.669,457.783,303.781,457.783z M303.781,410.503
						c-5.888,0-10.662-4.772-10.662-10.661v-4.299c0-5.889,4.774-10.661,10.662-10.661s10.661,4.772,10.661,10.661v4.299
						C314.442,405.73,309.669,410.503,303.781,410.503z M303.781,363.225c-5.888,0-10.662-4.773-10.662-10.662v-4.298
						c0-5.889,4.774-10.662,10.662-10.662s10.661,4.773,10.661,10.662v4.298C314.442,358.451,309.669,363.225,303.781,363.225z
						 M303.781,315.943c-5.888,0-10.662-4.771-10.662-10.66v-4.299c0-5.889,4.774-10.661,10.662-10.661s10.661,4.772,10.661,10.661
						v4.299C314.442,311.172,309.669,315.943,303.781,315.943z"/>
				</g>
				<g>
					<path fill="#FFFFFF" d="M303.781,502.764c-5.888,0-10.662-4.773-10.662-10.662v-1.998c0-5.889,4.774-10.661,10.662-10.661
						s10.661,4.772,10.661,10.661v1.998C314.442,497.99,309.669,502.764,303.781,502.764z"/>
				</g>
			</g>
		</g>
	</g>
	<g>
		<path fill="#FFFFFF" d="M104.771,510.098c-23.487-15.278-22.229-31.914-17.038-43.18c5.359-11.629,15.76-19.813,16.719-20.551
			c0.584-0.478,11.181-9.257,16.416-21.194c6.972-15.898,1.556-29.781-16.097-41.266c-20.213-13.148-26.626-29.6-18.545-47.575
			c5.98-13.304,17.729-22.648,18.227-23.039l7.707,4.145c-0.254,0.202-11.106,8.926-16.421,20.911
			c-6.962,15.699-1.544,29.48,16.103,40.96c20.209,13.146,26.623,29.695,18.549,47.86c-5.974,13.441-17.708,22.926-18.205,23.323
			l-0.081,0.063c-0.095,0.073-10.039,7.752-14.88,18.424c-6.277,13.839-1.359,26.126,14.617,36.52L104.771,510.098z M112.16,317.438
			l-3.854-2.072l3.857,2.069C112.163,317.435,112.162,317.436,112.16,317.438L112.16,317.438z"/>
	</g>
	<g>
		<path fill="#FFFFFF" d="M165.584,510.098c-23.486-15.278-22.229-31.914-17.037-43.18c5.359-11.631,15.762-19.814,16.718-20.551
			c0.587-0.479,11.182-9.258,16.416-21.194c6.973-15.898,1.557-29.781-16.097-41.266c-20.213-13.148-26.625-29.6-18.545-47.575
			c5.98-13.304,17.729-22.648,18.227-23.039l7.711,4.142c-0.11,0.087-11.073,8.847-16.424,20.914
			c-6.962,15.699-1.545,29.48,16.102,40.96c20.209,13.146,26.623,29.695,18.55,47.86c-5.975,13.441-17.71,22.926-18.206,23.323
			l-0.081,0.063c-0.095,0.073-10.039,7.752-14.88,18.424c-6.277,13.839-1.359,26.126,14.617,36.52L165.584,510.098z"/>
	</g>
	<g>
		<path fill="#FFFFFF" d="M226.397,510.098c-23.487-15.278-22.229-31.914-17.038-43.18c5.359-11.629,15.76-19.813,16.719-20.551
			c0.584-0.478,11.181-9.257,16.416-21.194c6.972-15.898,1.556-29.781-16.097-41.266c-20.213-13.148-26.626-29.6-18.545-47.575
			c5.98-13.304,17.729-22.648,18.227-23.039l7.707,4.145c-0.254,0.202-11.106,8.926-16.421,20.911
			c-6.962,15.699-1.544,29.48,16.103,40.96c20.209,13.146,26.623,29.695,18.549,47.86c-5.974,13.441-17.708,22.926-18.205,23.323
			l-0.081,0.063c-0.095,0.073-10.039,7.752-14.88,18.424c-6.277,13.839-1.359,26.126,14.617,36.52L226.397,510.098z
			 M233.786,317.438l-3.854-2.072l3.857,2.069C233.789,317.435,233.788,317.436,233.786,317.438L233.786,317.438z"/>
	</g>
	<g>
		<path fill="#FFFFFF" d="M366.681,510.098c-23.487-15.278-22.229-31.914-17.038-43.18c5.359-11.629,15.76-19.813,16.719-20.551
			c0.584-0.478,11.181-9.257,16.416-21.194c6.972-15.898,1.556-29.781-16.097-41.266c-20.213-13.148-26.626-29.6-18.545-47.575
			c5.98-13.304,17.729-22.648,18.227-23.039l7.707,4.145c-0.254,0.202-11.106,8.926-16.421,20.911
			c-6.962,15.699-1.544,29.48,16.103,40.96c20.209,13.146,26.623,29.695,18.549,47.86c-5.974,13.441-17.708,22.926-18.205,23.323
			l-0.081,0.063c-0.095,0.073-10.039,7.752-14.88,18.424c-6.277,13.839-1.359,26.126,14.617,36.52L366.681,510.098z
			 M374.069,317.438l-3.854-2.072l3.857,2.069C374.072,317.435,374.071,317.436,374.069,317.438L374.069,317.438z"/>
	</g>
	<g>
		<path fill="#FFFFFF" d="M427.493,510.098c-23.486-15.278-22.229-31.914-17.037-43.18c5.359-11.631,15.762-19.814,16.718-20.551
			c0.587-0.479,11.182-9.258,16.416-21.194c6.973-15.898,1.557-29.781-16.097-41.266c-20.213-13.148-26.625-29.6-18.545-47.575
			c5.98-13.304,17.729-22.648,18.227-23.039l7.711,4.142c-0.11,0.087-11.073,8.847-16.424,20.914
			c-6.962,15.699-1.545,29.48,16.102,40.96c20.209,13.146,26.623,29.695,18.55,47.86c-5.975,13.441-17.71,22.926-18.206,23.323
			l-0.081,0.063c-0.095,0.073-10.039,7.752-14.88,18.424c-6.277,13.839-1.359,26.126,14.617,36.52L427.493,510.098z"/>
	</g>
	<g>
		<path fill="#FFFFFF" d="M488.307,510.098c-23.487-15.278-22.229-31.914-17.038-43.18c5.359-11.629,15.76-19.813,16.719-20.551
			c0.584-0.478,11.181-9.257,16.416-21.194c6.972-15.898,1.556-29.781-16.097-41.266c-20.213-13.148-26.626-29.6-18.545-47.575
			c5.98-13.304,17.729-22.648,18.227-23.039l7.707,4.145c-0.254,0.202-11.106,8.926-16.421,20.911
			c-6.962,15.699-1.544,29.48,16.103,40.96c20.209,13.146,26.623,29.695,18.549,47.86c-5.974,13.441-17.708,22.926-18.205,23.323
			l-0.081,0.063c-0.095,0.073-10.039,7.752-14.88,18.424c-6.277,13.839-1.359,26.126,14.617,36.52L488.307,510.098z
			 M495.695,317.438l-3.854-2.072l3.857,2.069C495.698,317.435,495.697,317.436,495.695,317.438L495.695,317.438z"/>
	</g>
</g>
</svg>
