<?xml version="1.0" encoding="utf-8"?>
<!-- Generator: Adobe Illustrator 15.0.0, SVG Export Plug-In . SVG Version: 6.00 Build 0)  -->
<!DOCTYPE svg PUBLIC "-//W3C//DTD SVG 1.1//EN" "http://www.w3.org/Graphics/SVG/1.1/DTD/svg11.dtd">
<svg version="1.1" xmlns="http://www.w3.org/2000/svg" xmlns:xlink="http://www.w3.org/1999/xlink" x="0px" y="0px" width="580px"
	 height="580px" viewBox="0 0 580 580" enable-background="new 0 0 580 580" xml:space="preserve">
<g id="Layer_2">
	<g id="g1327">
		<path id="path1329" fill="#111111" stroke="#EEEEEE" stroke-width="3.408" d="M66.275,1.768
			c-41.335,0-64.571,21.371-64.571,65.036v450.123c0,40.844,20.894,62.229,62.192,62.229H515.92
			c41.307,0,62.229-20.316,62.229-62.229V66.804c0-42.601-20.923-65.036-63.522-65.036C514.624,1.768,66.133,1.625,66.275,1.768z"/>
	</g>
</g>
<g id="svg2" inkscape:version="0.46" sodipodi:docname="waste_bin.svg" sodipodi:version="0.32" xmlns:dc="http://purl.org/dc/elements/1.1/" xmlns:cc="http://creativecommons.org/ns#" xmlns:sodipodi="http://sodipodi.sourceforge.net/DTD/sodipodi-0.dtd" xmlns:svg="http://www.w3.org/2000/svg" xmlns:rdf="http://www.w3.org/1999/02/22-rdf-syntax-ns#" xmlns:inkscape="http://www.inkscape.org/namespaces/inkscape" inkscape:output_extension="org.inkscape.output.svg.inkscape">
	<path fill="#FFFFFF" d="M502.59,239.877c0-31.849-19.099-59.222-46.46-71.337c3.51-8.876,5.46-18.539,5.46-28.663
		c0-43.078-34.922-78-78-78c-22.947,0-43.577,9.912-57.85,25.685c-13.786-22.025-38.25-36.685-66.15-36.685
		c-39.932,0-72.834,30.014-77.43,68.71c-8.344-3.046-17.353-4.71-26.75-4.71c-43.078,0-78,34.922-78,78
		c0,29.217,16.074,54.666,39.852,68.029c-12.34,13.797-19.852,32.004-19.852,51.971c0,43.078,34.922,78,78,78
		c19.925,0,38.096-7.481,51.882-19.775c-3.233,49.334-13.461,127.465-45.702,158.021h166.658c0,0-35.912-73.61-25.492-141.623
		c10.566,5.346,22.503,8.377,35.154,8.377c43.078,0,78-34.922,78-78c0-0.276-0.018-0.549-0.021-0.825
		C473.611,311.576,502.59,279.117,502.59,239.877z"/>
</g>
</svg>
