<?xml version="1.0" encoding="UTF-8" standalone="no"?>
<!-- Generator: Adobe Illustrator 16.0.0, SVG Export Plug-In . SVG Version: 6.00 Build 0)  -->

<svg
   xmlns:dc="http://purl.org/dc/elements/1.1/"
   xmlns:cc="http://creativecommons.org/ns#"
   xmlns:rdf="http://www.w3.org/1999/02/22-rdf-syntax-ns#"
   xmlns:svg="http://www.w3.org/2000/svg"
   xmlns="http://www.w3.org/2000/svg"
   xmlns:xlink="http://www.w3.org/1999/xlink"
   xmlns:sodipodi="http://sodipodi.sourceforge.net/DTD/sodipodi-0.dtd"
   xmlns:inkscape="http://www.inkscape.org/namespaces/inkscape"
   version="1.1"
   id="Ebene_1"
   x="0px"
   y="0px"
   width="580px"
   height="580px"
   viewBox="0 0 580 580"
   enable-background="new 0 0 580 580"
   xml:space="preserve"
   sodipodi:docname="advertising_totem.svg"
   inkscape:version="0.92.3 (2405546, 2018-03-11)"><metadata
   id="metadata1325"><rdf:RDF><cc:Work
       rdf:about=""><dc:format>image/svg+xml</dc:format><dc:type
         rdf:resource="http://purl.org/dc/dcmitype/StillImage" /></cc:Work></rdf:RDF></metadata><defs
   id="defs1323">
	<defs
   id="defs1291">
		<rect
   y="0"
   x="0"
   height="580"
   width="580"
   id="SVGID_1_" />
	</defs>
	<clipPath
   id="SVGID_2_">
		<use
   height="100%"
   width="100%"
   y="0"
   x="0"
   style="overflow:visible"
   id="use1293"
   overflow="visible"
   xlink:href="#SVGID_1_" />
	</clipPath>
	
	
	
	
	
	
	
	
	
	
	
</defs><sodipodi:namedview
   pagecolor="#ffffff"
   bordercolor="#666666"
   borderopacity="1"
   objecttolerance="10"
   gridtolerance="10"
   guidetolerance="10"
   inkscape:pageopacity="0"
   inkscape:pageshadow="2"
   inkscape:window-width="1617"
   inkscape:window-height="1024"
   id="namedview1321"
   showgrid="false"
   inkscape:zoom="1.47"
   inkscape:cx="290"
   inkscape:cy="290"
   inkscape:window-x="156"
   inkscape:window-y="23"
   inkscape:window-maximized="0"
   inkscape:current-layer="Ebene_1" />
<path
   style="fill:#111111"
   inkscape:connector-curvature="0"
   id="path1296"
   d="M 66.275,1.768 C 24.94,1.768 1.704,23.139 1.704,66.804 v 450.123 c 0,40.845 20.894,62.229 62.192,62.229 H 515.92 c 41.307,0 62.229,-20.316 62.229,-62.229 V 66.804 c 0,-42.601 -20.924,-65.036 -63.522,-65.036 -0.003,0 -448.494,-0.143 -448.352,0"
   clip-path="url(#SVGID_2_)" /><path
   style="fill:#eeeeee"
   inkscape:connector-curvature="0"
   id="path1298"
   d="M 515.92,580.86 H 63.896 c -20.964,0 -37.043,-5.484 -47.792,-16.301 C 5.418,553.806 0,537.779 0,516.927 V 66.804 C 0,23.142 22.917,0.064 66.275,0.064 v 0.028 c 0.519,-0.039 1.239,-0.042 2.269,-0.045 1.493,-0.005 3.699,-0.009 6.553,-0.013 5.706,-0.008 14.004,-0.015 24.376,-0.02 103.438,-0.048 413.251,0.049 415.146,0.05 21.565,0 38.039,5.741 48.97,17.063 10.792,11.179 16.265,27.893 16.265,49.677 v 450.123 c 0,42.423 -21.511,63.933 -63.934,63.933 z M 67.437,3.46 67.432,3.472 H 66.275 C 45.915,3.472 30.24,8.739 19.684,19.126 8.884,29.754 3.408,45.795 3.408,66.804 v 450.123 c 0,40.162 20.351,60.525 60.488,60.525 H 515.92 c 40.728,0 60.525,-19.798 60.525,-60.525 V 66.804 c 0,-42.024 -20.799,-63.332 -61.818,-63.332 -1.523,0 -199.84,-0.063 -332.176,-0.063 -84.029,0 -109.775,0.026 -115.014,0.051 z"
   clip-path="url(#SVGID_2_)" /><g
   id="g5074"
   transform="matrix(1.4514147,0,0,1.5511259,-136.84897,-125.32337)"><path
     transform="translate(-110.08163,-114.22449)"
     clip-path="url(#SVGID_2_)"
     d="m 302.728,526.953 h 14.105 l -0.266,-269.368 c 0,0 -0.298,-3.04 1.073,-4.753 1.371,-1.714 4.178,-2.444 4.178,-2.444 l 162.676,-0.342 c 0,0 3.427,0.685 5.141,2.056 1.714,1.371 2.741,4.798 2.741,4.798 l 0.277,270.053 h 13.078 l -0.332,-269.711 c 0,0 0,-10.966 -5.142,-15.764 -5.313,-4.96 -14.393,-4.455 -14.393,-4.455 h -164.5 c 0,0 -9.253,0.685 -14.051,5.14 -4.617,4.288 -4.798,13.023 -4.798,13.023 z"
     id="path1306"
     inkscape:connector-curvature="0"
     style="fill:#ffffff" /><path
     transform="matrix(1,0,0,2.4306108,-110.08163,-486.76764)"
     clip-path="url(#SVGID_2_)"
     d="m 337.762,260.455 h 134.59 c 0,0 4.243,-0.055 6.665,1.587 1.813,1.229 2.54,4.762 2.54,4.762 v 92.054 c 0,0 0.317,4.444 -1.905,6.983 -2.365,2.703 -5.713,2.54 -5.713,2.54 H 334.588 c 0,0 -3.176,0 -5.397,-2.223 -2.222,-2.222 -2.539,-4.443 -2.539,-4.443 v -92.689 c 0,0 0.358,-4.619 3.215,-6.841 2.857,-2.223 7.895,-1.73 7.895,-1.73"
     id="path1308"
     inkscape:connector-curvature="0"
     style="fill:#ffffff" /><path
     transform="translate(-110.08163,-114.22449)"
     clip-path="url(#SVGID_2_)"
     d="m 476.955,266.838 h 20.562 v 7.54 H 476.8 c 1.028,0 0.155,-7.54 0.155,-7.54"
     id="path1310"
     inkscape:connector-curvature="0"
     style="fill:#ffffff" /><path
     transform="translate(-110.08163,-114.22449)"
     clip-path="url(#SVGID_2_)"
     d="m 313.141,266.838 h 20.562 v 7.54 h -20.717 c 1.028,0 0.155,-7.54 0.155,-7.54"
     id="path1312"
     inkscape:connector-curvature="0"
     style="fill:#ffffff" /><path
     transform="translate(-113.04081,37.285714)"
     clip-path="url(#SVGID_2_)"
     d="m 313.141,351.145 h 20.562 v 7.54 h -20.717 c 1.028,0 0.155,-7.54 0.155,-7.54"
     id="path1314"
     inkscape:connector-curvature="0"
     style="fill:#ffffff" /><path
     transform="translate(-113.04081,37.285714)"
     clip-path="url(#SVGID_2_)"
     d="m 478.325,351.145 h 20.562 v 7.54 H 478.17 c 1.029,0 0.155,-7.54 0.155,-7.54"
     id="path1316"
     inkscape:connector-curvature="0"
     style="fill:#ffffff" /></g>
</svg>