<?xml version="1.0" encoding="utf-8"?>
<!-- Generator: Adobe Illustrator 16.0.0, SVG Export Plug-In . SVG Version: 6.00 Build 0)  -->
<!DOCTYPE svg PUBLIC "-//W3C//DTD SVG 1.1//EN" "http://www.w3.org/Graphics/SVG/1.1/DTD/svg11.dtd">
<svg version="1.1" id="Ebene_1" xmlns="http://www.w3.org/2000/svg" xmlns:xlink="http://www.w3.org/1999/xlink" x="0px" y="0px"
	 width="580px" height="580px" viewBox="0 0 580 580" enable-background="new 0 0 580 580" xml:space="preserve">
<g>
	<defs>
		<rect id="SVGID_1_" width="580" height="580"/>
	</defs>
	<clipPath id="SVGID_2_">
		<use xlink:href="#SVGID_1_"  overflow="visible"/>
	</clipPath>
	<path clip-path="url(#SVGID_2_)" fill="#111111" d="M66.275,1.768c-41.335,0-64.571,21.371-64.571,65.036v450.123
		c0,40.845,20.894,62.229,62.192,62.229H515.92c41.307,0,62.229-20.316,62.229-62.229V66.804c0-42.601-20.924-65.036-63.522-65.036
		C514.624,1.768,66.133,1.625,66.275,1.768"/>
	<path clip-path="url(#SVGID_2_)" fill="#EEEEEE" d="M515.92,580.86H63.896c-20.964,0-37.043-5.484-47.792-16.301
		C5.418,553.806,0,537.779,0,516.927V66.804c0-43.662,22.917-66.74,66.275-66.74v0.028c0.519-0.039,1.239-0.042,2.269-0.045
		c1.493-0.005,3.699-0.009,6.553-0.013c5.706-0.008,14.004-0.015,24.376-0.02c103.438-0.048,413.251,0.049,415.146,0.05
		c21.565,0,38.039,5.741,48.97,17.063c10.792,11.179,16.265,27.893,16.265,49.677v450.123
		C579.854,559.35,558.343,580.86,515.92,580.86z M67.437,3.46l-0.005,0.012h-1.157c-20.36,0-36.035,5.267-46.591,15.654
		C8.884,29.754,3.408,45.795,3.408,66.804v450.123c0,40.162,20.351,60.525,60.488,60.525H515.92
		c40.728,0,60.525-19.798,60.525-60.525V66.804c0-42.024-20.799-63.332-61.818-63.332c-1.523,0-199.84-0.063-332.176-0.063
		C98.422,3.409,72.676,3.435,67.437,3.46z"/>
	<g clip-path="url(#SVGID_2_)">
		<polygon fill="#EEEEEE" points="445.575,87.464 167.954,70.405 135.703,84.589 135.46,495.747 163.892,509.871 445.544,502.56 		
			"/>
		<polyline fill="#EEEEEE" points="446.343,119.144 165.517,106.147 134.247,115.082 		"/>
		<path fill="#111111" d="M446.158,123.139l-280.053-12.96l-30.538,10.679l-2.641-7.552l31.27-10.935
			c0.483-0.168,0.994-0.243,1.505-0.22l280.826,12.996L446.158,123.139z"/>
		<line fill="#EEEEEE" x1="164.569" y1="459.507" x2="164.569" y2="509.871"/>
		<rect x="160.569" y="459.507" fill="#111111" width="8" height="50.364"/>
		<path fill="#111111" d="M165.055,464.319c-0.453,0-0.908-0.077-1.346-0.233l-31.809-11.366l2.692-7.533l26.47,9.458l0.454-348.503
			l0.287-36.044l8,0.063l-0.287,36.018l-0.461,354.146c-0.001,1.301-0.635,2.519-1.698,3.267
			C166.674,464.071,165.869,464.319,165.055,464.319z"/>
		<line fill="#EEEEEE" x1="446.753" y1="453.577" x2="162.267" y2="459.507"/>
		
			<rect x="300.51" y="314.268" transform="matrix(0.0209 0.9998 -0.9998 0.0209 754.5959 142.5682)" fill="#111111" width="8" height="284.549"/>
		<polygon fill="#A5A5A5" points="419.345,453.207 191.905,458.693 191.905,135.98 419.063,145.708 		"/>
		<path fill="#111111" d="M191.905,462.693c-1.043,0-2.046-0.407-2.794-1.138c-0.771-0.753-1.206-1.785-1.206-2.862V135.98
			c0-1.09,0.445-2.134,1.233-2.888c0.787-0.754,1.849-1.15,2.938-1.108l227.158,9.728c2.14,0.092,3.827,1.852,3.829,3.993
			l0.281,307.499c0.002,2.173-1.731,3.95-3.903,4.003l-227.44,5.486C191.97,462.693,191.938,462.693,191.905,462.693z
			 M195.905,140.155v314.44l219.436-5.293l-0.273-299.762L195.905,140.155z"/>
		<polygon fill="#FFFFFF" points="391.668,164.449 191.97,155.756 192.119,438.421 391.425,434.359 		"/>
		<path fill="#111111" d="M192.119,442.421c-1.045,0-2.05-0.409-2.799-1.143c-0.768-0.752-1.201-1.78-1.201-2.855l-0.149-283.665
			c0-1.091,0.445-2.136,1.233-2.891s1.849-1.155,2.941-1.107l199.698,8.693c2.141,0.093,3.828,1.857,3.826,4l-0.243,270.911
			c-0.002,2.176-1.743,3.951-3.919,3.995l-199.305,4.062C192.173,442.421,192.146,442.421,192.119,442.421z M195.972,158.934
			l0.145,275.405l191.312-3.898l0.235-263.162L195.972,158.934z"/>
		
			<rect x="401.204" y="139.322" transform="matrix(0.5616 0.8274 -0.8274 0.5616 305.7883 -267.3888)" fill="#111111" width="8" height="31.055"/>
		
			<rect x="390.521" y="438.043" transform="matrix(0.8687 0.4954 -0.4954 0.8687 272.1556 -142.4531)" fill="#111111" width="28.43" height="8"/>
	</g>
</g>
</svg>
