<?xml version="1.0" encoding="utf-8"?>
<!-- Generator: Adobe Illustrator 16.0.0, SVG Export Plug-In . SVG Version: 6.00 Build 0)  -->
<!DOCTYPE svg PUBLIC "-//W3C//DTD SVG 1.1//EN" "http://www.w3.org/Graphics/SVG/1.1/DTD/svg11.dtd">
<svg version="1.1" id="Ebene_1" xmlns="http://www.w3.org/2000/svg" xmlns:xlink="http://www.w3.org/1999/xlink" x="0px" y="0px"
	 width="580px" height="580px" viewBox="0 0 580 580" enable-background="new 0 0 580 580" xml:space="preserve">
<g>
	<defs>
		<rect id="SVGID_1_" width="580" height="580"/>
	</defs>
	<clipPath id="SVGID_2_">
		<use xlink:href="#SVGID_1_"  overflow="visible"/>
	</clipPath>
	<path clip-path="url(#SVGID_2_)" fill="#111111" d="M66.275,1.768c-41.335,0-64.571,21.371-64.571,65.036v450.123
		c0,40.845,20.894,62.229,62.192,62.229H515.92c41.307,0,62.229-20.316,62.229-62.229V66.804c0-42.601-20.924-65.036-63.522-65.036
		C514.624,1.768,66.133,1.625,66.275,1.768"/>
	<path clip-path="url(#SVGID_2_)" fill="#EEEEEE" d="M515.92,580.86H63.896c-20.964,0-37.043-5.484-47.792-16.301
		C5.418,553.806,0,537.779,0,516.927V66.804c0-43.662,22.917-66.74,66.275-66.74v0.028c0.519-0.039,1.239-0.042,2.269-0.045
		c1.493-0.005,3.699-0.009,6.553-0.013c5.706-0.008,14.004-0.015,24.376-0.02c103.438-0.048,413.251,0.049,415.146,0.05
		c21.565,0,38.039,5.741,48.97,17.063c10.792,11.179,16.265,27.893,16.265,49.677v450.123
		C579.854,559.35,558.343,580.86,515.92,580.86z M67.437,3.46l-0.005,0.012h-1.157c-20.36,0-36.035,5.267-46.591,15.654
		C8.884,29.754,3.408,45.795,3.408,66.804v450.123c0,40.162,20.351,60.525,60.488,60.525H515.92
		c40.728,0,60.525-19.798,60.525-60.525V66.804c0-42.024-20.799-63.332-61.818-63.332c-1.523,0-199.84-0.063-332.176-0.063
		C98.422,3.409,72.676,3.435,67.437,3.46z"/>
	<g clip-path="url(#SVGID_2_)">
		<path fill="#848484" d="M296.468,44.78c6.679,1.158,13.355,2.319,20.032,3.475c15.499,2.681,29.256,8.705,41.202,19.328
			c3.397,3.021,9.081,3.85,13.89,4.799c5.614,1.107,7.427,1.996,7.919,9.569c0.331,5.088,0.469,10.343-0.34,15.344
			c-0.485,3.011-3.441,5.541-4.755,8.52c-2.271,5.156-4.79,10.353-5.956,15.799c-0.993,4.636-0.242,9.647-0.242,14.494
			c0.002,114.589,0.006,229.177,0.006,343.765c0,5.591-0.354,10.219-0.283,15.421c0.171,12.453,7.849,10.065,8.53,20.643
			c0.513,9.213,0,12.283-8.28,14.11c-52.525,7.866-105.077,6.597-157.618,0.362c-2.99-0.356-7.101-3.213-7.511-6.114
			c-0.441-5.97-0.844-11.577,2.608-15.232c4.595-4.866,5.743-8.832,5.743-15.165c-0.006-87.485,0.4-174.973,0.635-262.459
			c0.093-34.49,0.116-68.981-0.097-103.47c-0.037-5.892-0.4-7.126-2.104-12.81c-1.435-4.779-2.518-7.414-3.506-8.921
			c-3.346-5.098-5.735-5.895-5.895-11.151c-0.126-4.152-0.615-9.405,0.479-17.523c1.912-4.937,7.025-4.019,10.231-5.467
			c4.714-2.13,10.083-3.492,13.962-6.663c12.108-9.892,25.869-15.279,41.133-17.507c5.592-0.815,11.135-1.976,16.7-2.979
			C287.742,44.271,290.928,44.43,296.468,44.78 M354.711,482.563V119.87c-3.847-0.63-7.186-1.404-10.566-1.695
			c-40.985-3.543-67.194-3.291-108.211-0.187c-8.67,0.656-11.166,3.6-11.144,12.391c0.315,114.026,0.209,228.053,0.209,342.082
			v10.089C273.449,487.778,306.349,487.938,354.711,482.563"/>
		<path fill="#FFFFFF" d="M358.651,482.563c-48.362,5.375-88.647,5.215-137.096-0.014v-10.089
			c0-114.029,0.107-242.402-0.208-356.428c18.27-1.613,85.751-3.401,126.737,0.142c3.382,0.292,6.72,1.065,10.567,1.695V482.563z"/>
	</g>
</g>
</svg>
