<?xml version="1.0" encoding="utf-8"?>
<!-- Generator: Adobe Illustrator 16.0.0, SVG Export Plug-In . SVG Version: 6.00 Build 0)  -->
<!DOCTYPE svg PUBLIC "-//W3C//DTD SVG 1.1//EN" "http://www.w3.org/Graphics/SVG/1.1/DTD/svg11.dtd">
<svg version="1.1" id="Ebene_1" xmlns="http://www.w3.org/2000/svg" xmlns:xlink="http://www.w3.org/1999/xlink" x="0px" y="0px"
	 width="580px" height="580px" viewBox="0 0 580 580" enable-background="new 0 0 580 580" xml:space="preserve">
<g>
	<defs>
		<rect id="SVGID_1_" width="580" height="580"/>
	</defs>
	<clipPath id="SVGID_2_">
		<use xlink:href="#SVGID_1_"  overflow="visible"/>
	</clipPath>
	<path clip-path="url(#SVGID_2_)" fill="#111111" d="M66.275,1.768c-41.335,0-64.571,21.371-64.571,65.036v450.123
		c0,40.845,20.894,62.229,62.192,62.229H515.92c41.307,0,62.229-20.316,62.229-62.229V66.804c0-42.601-20.924-65.036-63.522-65.036
		C514.624,1.768,66.133,1.625,66.275,1.768"/>
	<path clip-path="url(#SVGID_2_)" fill="#EEEEEE" d="M515.92,580.86H63.896c-20.964,0-37.043-5.484-47.792-16.301
		C5.418,553.806,0,537.779,0,516.927V66.804c0-43.662,22.917-66.74,66.275-66.74v0.028c0.519-0.039,1.239-0.042,2.269-0.045
		c1.493-0.005,3.699-0.009,6.553-0.013c5.706-0.008,14.004-0.015,24.376-0.02c103.438-0.048,413.251,0.049,415.146,0.05
		c21.565,0,38.039,5.741,48.97,17.063c10.792,11.179,16.265,27.893,16.265,49.677v450.123
		C579.854,559.35,558.343,580.86,515.92,580.86z M67.437,3.46l-0.005,0.012h-1.157c-20.36,0-36.035,5.267-46.591,15.654
		C8.884,29.754,3.408,45.795,3.408,66.804v450.123c0,40.162,20.351,60.525,60.488,60.525H515.92
		c40.728,0,60.525-19.798,60.525-60.525V66.804c0-42.024-20.799-63.332-61.818-63.332c-1.523,0-199.84-0.063-332.176-0.063
		C98.422,3.409,72.676,3.435,67.437,3.46z"/>
	<path clip-path="url(#SVGID_2_)" fill="#FFFFFF" d="M414.728,338.485c-3.407,15.598-7.42,29.707-12.644,43.425
		c-4.454,11.696-9.541,23.094-16.876,33.275c-3.646,5.058-7.65,9.793-13.127,12.851c-7.331,4.094-15.752,4.195-22.847-2.318
		c-4.388-4.027-8.627-8.239-12.749-12.553c-9.296-9.726-20.156-17.198-31.764-23.667c-16.18-9.016-32.826-17.033-49.864-24.179
		c-10.968-4.602-22.002-9.063-33.142-13.204c-14.737-5.479-29.698-10.257-45.119-13.365c-5.694-1.147-8.366,0.236-10.626,5.769
		c-2.061,5.047-4.667,42.308-2.536,71.52c2.349,28.639,6.851,47.661,7.389,49.831c1.03,4.156-0.56,13.174-7.28,13.898
		c-9.519,0.421-21.306-6.015-27.612-9.967c-9.562-5.992-15.006-14.741-17.199-25.84c-1.975-9.996-2.103-20.109-2.011-30.244
		c0.119-13.04,0.439-26.084-0.796-39.093c-0.913-9.606-2.813-17.105-5.698-26.614c-3.846-8.524-7.447-10.914-12.365-13.604
		c-4.017-1.558-30.001-5.618-34.101-6.95c-11.219-3.646-26.167-20.289-24.528-58.65c1.82-36.684,21.482-52.571,28.036-56.109
		c8.01-4.283,29.004-4.841,46.725-6.894c14.975-2.317,24.971-3.611,38.876-6.368c25.725-4.736,49.444-9.417,72.812-17.175
		c21.64-7.184,42.757-15.745,63.45-25.407c15.092-7.047,29.8-14.839,43.992-23.648c5.276-3.276,8.793-5.869,11.62-11.523
		c2.658-5.319,5.419-10.12,10.345-14.13c4.422-3.599,7.611-5.554,11.416-6.582c2.982-0.72,4.96-0.84,6.836-0.71
		c6.908,0.477,13.588,1.915,19.373,6.173c5.138,3.783,8.605,8.946,11.391,14.632c7.293,14.886,11.229,30.834,14.084,47.109
		c4.481,25.548,6.208,51.334,6.303,77.26c0.057,15.67-0.686,31.305-2.309,46.881C420.629,307.229,418.277,323.253,414.728,338.485
		 M323.533,380.829c0.127-0.081,0.253-0.163,0.38-0.244c-0.463-2.556-0.881-2.671-1.396-5.216
		c-1.854-9.165-3.962-18.283-5.573-27.493c-4.08-23.316-5.703-46.862-5.72-70.535c-0.011-17.207,0.703-34.386,2.856-51.45
		c1.401-11.11,3.238-22.176,5.289-33.183c1.931-10.371,4.796-20.52,8.601-30.36c-0.35-0.274-2.76,1.753-5.875,3.778
		c-14.829,9.642-30.673,17.108-47.312,22.778c-18.37,6.26-36.831,12.239-55.224,18.429c-11.083,3.73-22.07,7.721-32.415,13.349
		c-9.867,5.368-17.282,12.966-21.134,23.89c-3.125,8.86-5.237,10.595-5.961,20.003c-0.912,11.86,0.238,20.965,5.03,31.933
		c3.64,8.332,8.901,15.453,16.823,19.828c4.843,2.675,10.171,4.532,15.428,6.302c10.746,3.618,21.608,6.87,32.389,10.384
		c12.209,3.978,24.335,8.194,35.977,13.738c16.2,7.716,32.04,16.096,46.889,26.321C316.266,375.616,319.886,378.244,323.533,380.829
		 M342.088,347.806c0.21,0.034,0.419,0.068,0.629,0.102c0.913-1.546,1.891-3.057,2.728-4.646c4.136-7.856,7.515-16.044,10.3-24.503
		c3.894-11.827,7.053-23.84,8.439-36.252c1.907-17.06,1.116-34.018-2.657-50.777c-2.683-11.918-6.522-22.468-14.688-31.718
		c-0.284-0.322-1.617-1.517-3.639-2.758c-0.76,6.214-7.693,42.797-7.134,74.873c-0.56,26.347,4.076,58.176,4.917,69.132
		C341.15,343.457,341.709,345.624,342.088,347.806"/>
	<path clip-path="url(#SVGID_2_)" fill="#FFFFFF" d="M467.496,398.633c0.13-1.358,0.692-1.864,1.379-2.941
		c4.013-6.297,8.223-12.471,12.057-18.879c6.541-10.93,12.648-22.176,16.93-34.213c3.982-11.194,7.451-22.376,9.801-34.033
		c2.068-10.254,4.634-21.21,5.418-31.659c1.238-16.516,0.216-33.974-2.064-50.391c-2.032-14.637-7.033-27.996-13.069-41.5
		c-3.479-7.784-7.736-15.097-13.174-21.648c-2.726-3.284-5.447-6.574-8.157-9.872c-0.307-0.375-0.655-1.036-0.476-1.865
		c0.81-2.026,3.248-0.709,3.331-0.829c1.171,0.553,3.903,1.924,4.682,2.487c3.513,2.395,6.665,4.667,9.863,7.232
		c8.812,7.065,16.894,14.883,23.462,24.235c10.398,14.804,17.23,31.181,20.796,49.017c1.654,8.27,2.329,17.282,2.617,25.376
		c0.004,6.649-0.583,14.932-1.683,21.104c-1.618,9.079-3.138,15.627-5.355,24.575c-8.179,27.469-20.789,51.784-39.362,72.977
		c-5.675,6.474-11.857,12.484-17.863,18.651c-1.106,1.137-2.993,2.775-4.242,3.767C470.282,402.022,467.373,401.526,467.496,398.633
		"/>
	<path clip-path="url(#SVGID_2_)" fill="#FFFFFF" d="M435.427,377.073c0.207-1.143,0.507-1.693,1.021-2.491
		c3.264-5.049,6.653-10.016,9.816-15.129c4.77-7.71,8.453-15.979,11.367-24.589c4.552-13.447,8.266-27.141,11.005-41.094
		c2.689-13.696,2.915-27.544,1.998-41.429c-0.743-11.251-1.893-22.471-5.242-33.269c-3.58-11.542-8.768-22.322-15.936-32.014
		c-1.497-2.026-3.423-3.717-5.091-5.618c-0.573-0.656-1.271-1.626-1.091-2.731c1.08-2.671,2.971-2.027,3.872-1.658
		c0.75,0.26,3.213,2.083,3.843,2.523c2.707,1.891,5.466,3.734,7.991,5.862c7.341,6.188,14.19,12.885,19.689,20.901
		c7.503,10.937,12.493,22.976,15.038,36.066c2.692,13.859,2.522,27.738,0.192,41.636c-3.782,22.564-11.855,43.33-24.813,62.035
		c-7.301,10.537-15.729,20.082-24.952,28.891c-0.976,0.932-2.468,2.225-4.17,3.211C437.47,379.801,435.427,378.641,435.427,377.073"
		/>
</g>
</svg>
