<?xml version="1.0" encoding="utf-8"?>
<!-- Generator: Adobe Illustrator 16.0.0, SVG Export Plug-In . SVG Version: 6.00 Build 0)  -->
<!DOCTYPE svg PUBLIC "-//W3C//DTD SVG 1.1//EN" "http://www.w3.org/Graphics/SVG/1.1/DTD/svg11.dtd">
<svg version="1.1" id="Ebene_1" xmlns="http://www.w3.org/2000/svg" xmlns:xlink="http://www.w3.org/1999/xlink" x="0px" y="0px"
	 width="580px" height="580px" viewBox="0 0 580 580" enable-background="new 0 0 580 580" xml:space="preserve">
<g>
	<defs>
		<rect id="SVGID_1_" width="580" height="580"/>
	</defs>
	<clipPath id="SVGID_2_">
		<use xlink:href="#SVGID_1_"  overflow="visible"/>
	</clipPath>
	<path clip-path="url(#SVGID_2_)" fill="#111111" d="M66.275,1.768c-41.335,0-64.571,21.371-64.571,65.036v450.123
		c0,40.845,20.894,62.229,62.192,62.229H515.92c41.307,0,62.229-20.316,62.229-62.229V66.804c0-42.601-20.924-65.036-63.522-65.036
		C514.624,1.768,66.133,1.625,66.275,1.768"/>
	<path clip-path="url(#SVGID_2_)" fill="#EEEEEE" d="M515.92,580.86H63.896c-20.964,0-37.043-5.484-47.792-16.301
		C5.418,553.806,0,537.779,0,516.927V66.804c0-43.662,22.917-66.74,66.275-66.74v0.028c0.519-0.039,1.239-0.042,2.269-0.045
		c1.493-0.005,3.699-0.009,6.553-0.013c5.706-0.008,14.004-0.015,24.376-0.02c103.438-0.048,413.251,0.049,415.146,0.05
		c21.565,0,38.039,5.741,48.97,17.063c10.792,11.179,16.265,27.893,16.265,49.677v450.123
		C579.854,559.35,558.343,580.86,515.92,580.86z M67.437,3.46l-0.005,0.012h-1.157c-20.36,0-36.035,5.267-46.591,15.654
		C8.884,29.754,3.408,45.795,3.408,66.804v450.123c0,40.162,20.351,60.525,60.488,60.525H515.92
		c40.728,0,60.525-19.798,60.525-60.525V66.804c0-42.024-20.799-63.332-61.818-63.332c-1.523,0-199.84-0.063-332.176-0.063
		C98.422,3.409,72.676,3.435,67.437,3.46z"/>
	<g clip-path="url(#SVGID_2_)">
		<rect x="84.715" y="144.104" fill="#111111" width="410.571" height="291.791"/>
		<path fill="#FFFFFF" d="M487.089,427.701H92.911V152.3h394.178V427.701z M503.481,135.907H76.519v308.186h426.963V135.907z"/>
		<path fill="#FFFFFF" d="M285.726,176.753c0,4.146-3.363,7.509-7.512,7.509c-4.148,0-7.511-3.363-7.511-7.509
			c0-4.148,3.363-7.513,7.511-7.513C282.362,169.24,285.726,172.604,285.726,176.753"/>
		<path fill="#FFFFFF" d="M258.832,176.753c0,4.146-3.362,7.509-7.511,7.509c-4.147,0-7.511-3.363-7.511-7.509
			c0-4.148,3.364-7.513,7.511-7.513C255.47,169.24,258.832,172.604,258.832,176.753"/>
		<path fill="#FFFFFF" d="M231.941,176.753c0,4.146-3.363,7.509-7.512,7.509c-4.147,0-7.511-3.363-7.511-7.509
			c0-4.148,3.364-7.513,7.511-7.513C228.579,169.24,231.941,172.604,231.941,176.753"/>
		<path fill="#FFFFFF" d="M205.049,176.753c0,4.146-3.363,7.509-7.511,7.509c-4.147,0-7.511-3.363-7.511-7.509
			c0-4.148,3.364-7.513,7.511-7.513C201.686,169.24,205.049,172.604,205.049,176.753"/>
		<path fill="#FFFFFF" d="M178.158,176.753c0,4.146-3.363,7.509-7.51,7.509c-4.149,0-7.512-3.363-7.512-7.509
			c0-4.148,3.363-7.513,7.512-7.513C174.794,169.24,178.158,172.604,178.158,176.753"/>
		<path fill="#FFFFFF" d="M151.266,176.753c0,4.146-3.363,7.509-7.511,7.509c-4.147,0-7.511-3.363-7.511-7.509
			c0-4.148,3.364-7.513,7.511-7.513C147.902,169.24,151.266,172.604,151.266,176.753"/>
		<path fill="#FFFFFF" d="M124.374,176.753c0,4.146-3.363,7.509-7.51,7.509c-4.148,0-7.513-3.363-7.513-7.509
			c0-4.148,3.364-7.513,7.513-7.513C121.011,169.24,124.374,172.604,124.374,176.753"/>
		<path fill="#FFFFFF" d="M285.726,202.066c0,4.148-3.363,7.513-7.512,7.513c-4.148,0-7.511-3.364-7.511-7.513
			c0-4.147,3.363-7.51,7.511-7.51C282.362,194.557,285.726,197.919,285.726,202.066"/>
		<path fill="#FFFFFF" d="M258.832,202.066c0,4.148-3.362,7.513-7.511,7.513c-4.147,0-7.511-3.364-7.511-7.513
			c0-4.147,3.364-7.51,7.511-7.51C255.47,194.557,258.832,197.919,258.832,202.066"/>
		<path fill="#FFFFFF" d="M231.941,202.066c0,4.148-3.363,7.513-7.512,7.513c-4.147,0-7.511-3.364-7.511-7.513
			c0-4.147,3.364-7.51,7.511-7.51C228.579,194.557,231.941,197.919,231.941,202.066"/>
		<path fill="#FFFFFF" d="M205.049,202.066c0,4.148-3.363,7.513-7.511,7.513c-4.147,0-7.511-3.364-7.511-7.513
			c0-4.147,3.364-7.51,7.511-7.51C201.686,194.557,205.049,197.919,205.049,202.066"/>
		<path fill="#FFFFFF" d="M178.158,202.066c0,4.148-3.363,7.513-7.51,7.513c-4.149,0-7.512-3.364-7.512-7.513
			c0-4.147,3.363-7.51,7.512-7.51C174.794,194.557,178.158,197.919,178.158,202.066"/>
		<path fill="#FFFFFF" d="M151.266,202.066c0,4.148-3.363,7.513-7.511,7.513c-4.147,0-7.511-3.364-7.511-7.513
			c0-4.147,3.364-7.51,7.511-7.51C147.902,194.557,151.266,197.919,151.266,202.066"/>
		<path fill="#FFFFFF" d="M124.374,202.066c0,4.148-3.363,7.513-7.51,7.513c-4.148,0-7.513-3.364-7.513-7.513
			c0-4.147,3.364-7.51,7.513-7.51C121.011,194.557,124.374,197.919,124.374,202.066"/>
		<path fill="#FFFFFF" d="M285.726,227.383c0,4.147-3.363,7.511-7.512,7.511c-4.148,0-7.511-3.363-7.511-7.511
			s3.363-7.512,7.511-7.512C282.362,219.871,285.726,223.235,285.726,227.383"/>
		<path fill="#FFFFFF" d="M258.832,227.383c0,4.147-3.362,7.511-7.511,7.511c-4.147,0-7.511-3.363-7.511-7.511
			s3.364-7.512,7.511-7.512C255.47,219.871,258.832,223.235,258.832,227.383"/>
		<path fill="#FFFFFF" d="M231.941,227.383c0,4.147-3.363,7.511-7.512,7.511c-4.147,0-7.511-3.363-7.511-7.511
			s3.364-7.512,7.511-7.512C228.579,219.871,231.941,223.235,231.941,227.383"/>
		<path fill="#FFFFFF" d="M205.049,227.383c0,4.147-3.363,7.511-7.511,7.511c-4.147,0-7.511-3.363-7.511-7.511
			s3.364-7.512,7.511-7.512C201.686,219.871,205.049,223.235,205.049,227.383"/>
		<path fill="#FFFFFF" d="M178.158,227.383c0,4.147-3.363,7.511-7.51,7.511c-4.149,0-7.512-3.363-7.512-7.511
			s3.363-7.512,7.512-7.512C174.794,219.871,178.158,223.235,178.158,227.383"/>
		<path fill="#FFFFFF" d="M151.266,227.383c0,4.147-3.363,7.511-7.511,7.511c-4.147,0-7.511-3.363-7.511-7.511
			s3.364-7.512,7.511-7.512C147.902,219.871,151.266,223.235,151.266,227.383"/>
		<path fill="#FFFFFF" d="M124.374,227.383c0,4.147-3.363,7.511-7.51,7.511c-4.148,0-7.513-3.363-7.513-7.511
			s3.364-7.512,7.513-7.512C121.011,219.871,124.374,223.235,124.374,227.383"/>
		<path fill="#FFFFFF" d="M285.726,252.698c0,4.148-3.363,7.511-7.512,7.511c-4.148,0-7.511-3.362-7.511-7.511
			c0-4.147,3.363-7.511,7.511-7.511C282.362,245.188,285.726,248.551,285.726,252.698"/>
		<path fill="#FFFFFF" d="M258.832,252.698c0,4.148-3.362,7.511-7.511,7.511c-4.147,0-7.511-3.362-7.511-7.511
			c0-4.147,3.364-7.511,7.511-7.511C255.47,245.188,258.832,248.551,258.832,252.698"/>
		<path fill="#FFFFFF" d="M231.941,252.698c0,4.148-3.363,7.511-7.512,7.511c-4.147,0-7.511-3.362-7.511-7.511
			c0-4.147,3.364-7.511,7.511-7.511C228.579,245.188,231.941,248.551,231.941,252.698"/>
		<path fill="#FFFFFF" d="M205.049,252.698c0,4.148-3.363,7.511-7.511,7.511c-4.147,0-7.511-3.362-7.511-7.511
			c0-4.147,3.364-7.511,7.511-7.511C201.686,245.188,205.049,248.551,205.049,252.698"/>
		<path fill="#FFFFFF" d="M178.158,252.698c0,4.148-3.363,7.511-7.51,7.511c-4.149,0-7.512-3.362-7.512-7.511
			c0-4.147,3.363-7.511,7.512-7.511C174.794,245.188,178.158,248.551,178.158,252.698"/>
		<path fill="#FFFFFF" d="M151.266,252.698c0,4.148-3.363,7.511-7.511,7.511c-4.147,0-7.511-3.362-7.511-7.511
			c0-4.147,3.364-7.511,7.511-7.511C147.902,245.188,151.266,248.551,151.266,252.698"/>
		<path fill="#FFFFFF" d="M124.374,252.698c0,4.148-3.363,7.511-7.51,7.511c-4.148,0-7.513-3.362-7.513-7.511
			c0-4.147,3.364-7.511,7.513-7.511C121.011,245.188,124.374,248.551,124.374,252.698"/>
		<path fill="#FFFFFF" d="M285.726,278.013c0,4.147-3.363,7.513-7.512,7.513c-4.148,0-7.511-3.365-7.511-7.513
			c0-4.146,3.363-7.51,7.511-7.51C282.362,270.503,285.726,273.866,285.726,278.013"/>
		<path fill="#FFFFFF" d="M258.832,278.013c0,4.147-3.362,7.513-7.511,7.513c-4.147,0-7.511-3.365-7.511-7.513
			c0-4.146,3.364-7.51,7.511-7.51C255.47,270.503,258.832,273.866,258.832,278.013"/>
		<path fill="#FFFFFF" d="M231.941,278.013c0,4.147-3.363,7.513-7.512,7.513c-4.147,0-7.511-3.365-7.511-7.513
			c0-4.146,3.364-7.51,7.511-7.51C228.579,270.503,231.941,273.866,231.941,278.013"/>
		<path fill="#FFFFFF" d="M205.049,278.013c0,4.147-3.363,7.513-7.511,7.513c-4.147,0-7.511-3.365-7.511-7.513
			c0-4.146,3.364-7.51,7.511-7.51C201.686,270.503,205.049,273.866,205.049,278.013"/>
		<path fill="#FFFFFF" d="M178.158,278.013c0,4.147-3.363,7.513-7.51,7.513c-4.149,0-7.512-3.365-7.512-7.513
			c0-4.146,3.363-7.51,7.512-7.51C174.794,270.503,178.158,273.866,178.158,278.013"/>
		<path fill="#FFFFFF" d="M151.266,278.013c0,4.147-3.363,7.513-7.511,7.513c-4.147,0-7.511-3.365-7.511-7.513
			c0-4.146,3.364-7.51,7.511-7.51C147.902,270.503,151.266,273.866,151.266,278.013"/>
		<path fill="#FFFFFF" d="M124.374,278.013c0,4.147-3.363,7.513-7.51,7.513c-4.148,0-7.513-3.365-7.513-7.513
			c0-4.146,3.364-7.51,7.513-7.51C121.011,270.503,124.374,273.866,124.374,278.013"/>
		<path fill="#FFFFFF" d="M285.726,302.052c0,4.148-3.363,7.512-7.512,7.512c-4.148,0-7.511-3.363-7.511-7.512
			c0-4.146,3.363-7.512,7.511-7.512C282.362,294.54,285.726,297.905,285.726,302.052"/>
		<path fill="#FFFFFF" d="M258.832,302.052c0,4.148-3.362,7.512-7.511,7.512c-4.147,0-7.511-3.363-7.511-7.512
			c0-4.146,3.364-7.512,7.511-7.512C255.47,294.54,258.832,297.905,258.832,302.052"/>
		<path fill="#FFFFFF" d="M231.941,302.052c0,4.148-3.363,7.512-7.512,7.512c-4.147,0-7.511-3.363-7.511-7.512
			c0-4.146,3.364-7.512,7.511-7.512C228.579,294.54,231.941,297.905,231.941,302.052"/>
		<path fill="#FFFFFF" d="M205.049,302.052c0,4.148-3.363,7.512-7.511,7.512c-4.147,0-7.511-3.363-7.511-7.512
			c0-4.146,3.364-7.512,7.511-7.512C201.686,294.54,205.049,297.905,205.049,302.052"/>
		<path fill="#FFFFFF" d="M178.158,302.052c0,4.148-3.363,7.512-7.51,7.512c-4.149,0-7.512-3.363-7.512-7.512
			c0-4.146,3.363-7.512,7.512-7.512C174.794,294.54,178.158,297.905,178.158,302.052"/>
		<path fill="#FFFFFF" d="M151.266,302.052c0,4.148-3.363,7.512-7.511,7.512c-4.147,0-7.511-3.363-7.511-7.512
			c0-4.146,3.364-7.512,7.511-7.512C147.902,294.54,151.266,297.905,151.266,302.052"/>
		<path fill="#FFFFFF" d="M124.374,302.052c0,4.148-3.363,7.512-7.51,7.512c-4.148,0-7.513-3.363-7.513-7.512
			c0-4.146,3.364-7.512,7.513-7.512C121.011,294.54,124.374,297.905,124.374,302.052"/>
		<path fill="#FFFFFF" d="M285.726,327.367c0,4.147-3.363,7.511-7.512,7.511c-4.148,0-7.511-3.363-7.511-7.511
			s3.363-7.51,7.511-7.51C282.362,319.857,285.726,323.22,285.726,327.367"/>
		<path fill="#FFFFFF" d="M258.832,327.367c0,4.147-3.362,7.511-7.511,7.511c-4.147,0-7.511-3.363-7.511-7.511
			s3.364-7.51,7.511-7.51C255.47,319.857,258.832,323.22,258.832,327.367"/>
		<path fill="#FFFFFF" d="M231.941,327.367c0,4.147-3.363,7.511-7.512,7.511c-4.147,0-7.511-3.363-7.511-7.511
			s3.364-7.51,7.511-7.51C228.579,319.857,231.941,323.22,231.941,327.367"/>
		<path fill="#FFFFFF" d="M205.049,327.367c0,4.147-3.363,7.511-7.511,7.511c-4.147,0-7.511-3.363-7.511-7.511
			s3.364-7.51,7.511-7.51C201.686,319.857,205.049,323.22,205.049,327.367"/>
		<path fill="#FFFFFF" d="M178.158,327.367c0,4.147-3.363,7.511-7.51,7.511c-4.149,0-7.512-3.363-7.512-7.511s3.363-7.51,7.512-7.51
			C174.794,319.857,178.158,323.22,178.158,327.367"/>
		<path fill="#FFFFFF" d="M151.266,327.367c0,4.147-3.363,7.511-7.511,7.511c-4.147,0-7.511-3.363-7.511-7.511
			s3.364-7.51,7.511-7.51C147.902,319.857,151.266,323.22,151.266,327.367"/>
		<path fill="#FFFFFF" d="M124.374,327.367c0,4.147-3.363,7.511-7.51,7.511c-4.148,0-7.513-3.363-7.513-7.511s3.364-7.51,7.513-7.51
			C121.011,319.857,124.374,323.22,124.374,327.367"/>
		<path fill="#FFFFFF" d="M285.726,352.682c0,4.147-3.363,7.511-7.512,7.511c-4.148,0-7.511-3.363-7.511-7.511
			c0-4.145,3.363-7.51,7.511-7.51C282.362,345.172,285.726,348.537,285.726,352.682"/>
		<path fill="#FFFFFF" d="M258.832,352.682c0,4.147-3.362,7.511-7.511,7.511c-4.147,0-7.511-3.363-7.511-7.511
			c0-4.145,3.364-7.51,7.511-7.51C255.47,345.172,258.832,348.537,258.832,352.682"/>
		<path fill="#FFFFFF" d="M231.941,352.682c0,4.147-3.363,7.511-7.512,7.511c-4.147,0-7.511-3.363-7.511-7.511
			c0-4.145,3.364-7.51,7.511-7.51C228.579,345.172,231.941,348.537,231.941,352.682"/>
		<path fill="#FFFFFF" d="M205.049,352.682c0,4.147-3.363,7.511-7.511,7.511c-4.147,0-7.511-3.363-7.511-7.511
			c0-4.145,3.364-7.51,7.511-7.51C201.686,345.172,205.049,348.537,205.049,352.682"/>
		<path fill="#FFFFFF" d="M178.158,352.682c0,4.147-3.363,7.511-7.51,7.511c-4.149,0-7.512-3.363-7.512-7.511
			c0-4.145,3.363-7.51,7.512-7.51C174.794,345.172,178.158,348.537,178.158,352.682"/>
		<path fill="#FFFFFF" d="M151.266,352.682c0,4.147-3.363,7.511-7.511,7.511c-4.147,0-7.511-3.363-7.511-7.511
			c0-4.145,3.364-7.51,7.511-7.51C147.902,345.172,151.266,348.537,151.266,352.682"/>
		<path fill="#FFFFFF" d="M124.374,352.682c0,4.147-3.363,7.511-7.51,7.511c-4.148,0-7.513-3.363-7.513-7.511
			c0-4.145,3.364-7.51,7.513-7.51C121.011,345.172,124.374,348.537,124.374,352.682"/>
		<path fill="#FFFFFF" d="M285.726,377.997c0,4.149-3.363,7.512-7.512,7.512c-4.148,0-7.511-3.362-7.511-7.512
			c0-4.147,3.363-7.511,7.511-7.511C282.362,370.486,285.726,373.85,285.726,377.997"/>
		<path fill="#FFFFFF" d="M258.832,377.997c0,4.149-3.362,7.512-7.511,7.512c-4.147,0-7.511-3.362-7.511-7.512
			c0-4.147,3.364-7.511,7.511-7.511C255.47,370.486,258.832,373.85,258.832,377.997"/>
		<path fill="#FFFFFF" d="M231.941,377.997c0,4.149-3.363,7.512-7.512,7.512c-4.147,0-7.511-3.362-7.511-7.512
			c0-4.147,3.364-7.511,7.511-7.511C228.579,370.486,231.941,373.85,231.941,377.997"/>
		<path fill="#FFFFFF" d="M205.049,377.997c0,4.149-3.363,7.512-7.511,7.512c-4.147,0-7.511-3.362-7.511-7.512
			c0-4.147,3.364-7.511,7.511-7.511C201.686,370.486,205.049,373.85,205.049,377.997"/>
		<path fill="#FFFFFF" d="M178.158,377.997c0,4.149-3.363,7.512-7.51,7.512c-4.149,0-7.512-3.362-7.512-7.512
			c0-4.147,3.363-7.511,7.512-7.511C174.794,370.486,178.158,373.85,178.158,377.997"/>
		<path fill="#FFFFFF" d="M151.266,377.997c0,4.149-3.363,7.512-7.511,7.512c-4.147,0-7.511-3.362-7.511-7.512
			c0-4.147,3.364-7.511,7.511-7.511C147.902,370.486,151.266,373.85,151.266,377.997"/>
		<path fill="#FFFFFF" d="M124.374,377.997c0,4.149-3.363,7.512-7.51,7.512c-4.148,0-7.513-3.362-7.513-7.512
			c0-4.147,3.364-7.511,7.513-7.511C121.011,370.486,124.374,373.85,124.374,377.997"/>
		<path fill="#FFFFFF" d="M285.726,403.314c0,4.146-3.363,7.51-7.512,7.51c-4.148,0-7.511-3.363-7.511-7.51
			c0-4.148,3.363-7.514,7.511-7.514C282.362,395.801,285.726,399.166,285.726,403.314"/>
		<path fill="#FFFFFF" d="M258.832,403.314c0,4.146-3.362,7.51-7.511,7.51c-4.147,0-7.511-3.363-7.511-7.51
			c0-4.148,3.364-7.514,7.511-7.514C255.47,395.801,258.832,399.166,258.832,403.314"/>
		<path fill="#FFFFFF" d="M231.941,403.314c0,4.146-3.363,7.51-7.512,7.51c-4.147,0-7.511-3.363-7.511-7.51
			c0-4.148,3.364-7.514,7.511-7.514C228.579,395.801,231.941,399.166,231.941,403.314"/>
		<path fill="#FFFFFF" d="M205.049,403.314c0,4.146-3.363,7.51-7.511,7.51c-4.147,0-7.511-3.363-7.511-7.51
			c0-4.148,3.364-7.514,7.511-7.514C201.686,395.801,205.049,399.166,205.049,403.314"/>
		<path fill="#FFFFFF" d="M178.158,403.314c0,4.146-3.363,7.51-7.51,7.51c-4.149,0-7.512-3.363-7.512-7.51
			c0-4.148,3.363-7.514,7.512-7.514C174.794,395.801,178.158,399.166,178.158,403.314"/>
		<path fill="#FFFFFF" d="M151.266,403.314c0,4.146-3.363,7.51-7.511,7.51c-4.147,0-7.511-3.363-7.511-7.51
			c0-4.148,3.364-7.514,7.511-7.514C147.902,395.801,151.266,399.166,151.266,403.314"/>
		<path fill="#FFFFFF" d="M124.374,403.314c0,4.146-3.363,7.51-7.51,7.51c-4.148,0-7.513-3.363-7.513-7.51
			c0-4.148,3.364-7.514,7.513-7.514C121.011,395.801,124.374,399.166,124.374,403.314"/>
		<path fill="#FFFFFF" d="M471.698,176.753c0,4.146-3.363,7.509-7.512,7.509c-4.146,0-7.51-3.363-7.51-7.509
			c0-4.148,3.363-7.513,7.51-7.513C468.335,169.24,471.698,172.604,471.698,176.753"/>
		<path fill="#FFFFFF" d="M444.806,176.753c0,4.146-3.363,7.509-7.511,7.509c-4.148,0-7.512-3.363-7.512-7.509
			c0-4.148,3.363-7.513,7.512-7.513C441.442,169.24,444.806,172.604,444.806,176.753"/>
		<path fill="#FFFFFF" d="M417.915,176.753c0,4.146-3.363,7.509-7.513,7.509c-4.146,0-7.51-3.363-7.51-7.509
			c0-4.148,3.363-7.513,7.51-7.513C414.552,169.24,417.915,172.604,417.915,176.753"/>
		<path fill="#FFFFFF" d="M391.022,176.753c0,4.146-3.363,7.509-7.511,7.509c-4.148,0-7.512-3.363-7.512-7.509
			c0-4.148,3.363-7.513,7.512-7.513C387.659,169.24,391.022,172.604,391.022,176.753"/>
		<path fill="#FFFFFF" d="M364.131,176.753c0,4.146-3.363,7.509-7.512,7.509c-4.147,0-7.511-3.363-7.511-7.509
			c0-4.148,3.363-7.513,7.511-7.513C360.768,169.24,364.131,172.604,364.131,176.753"/>
		<path fill="#FFFFFF" d="M337.24,176.753c0,4.146-3.364,7.509-7.512,7.509c-4.148,0-7.511-3.363-7.511-7.509
			c0-4.148,3.362-7.513,7.511-7.513C333.876,169.24,337.24,172.604,337.24,176.753"/>
		<path fill="#FFFFFF" d="M310.347,176.753c0,4.146-3.362,7.509-7.511,7.509c-4.147,0-7.511-3.363-7.511-7.509
			c0-4.148,3.363-7.513,7.511-7.513C306.984,169.24,310.347,172.604,310.347,176.753"/>
		<path fill="#FFFFFF" d="M471.698,202.066c0,4.148-3.363,7.513-7.512,7.513c-4.146,0-7.51-3.364-7.51-7.513
			c0-4.147,3.363-7.51,7.51-7.51C468.335,194.557,471.698,197.919,471.698,202.066"/>
		<path fill="#FFFFFF" d="M444.806,202.066c0,4.148-3.363,7.513-7.511,7.513c-4.148,0-7.512-3.364-7.512-7.513
			c0-4.147,3.363-7.51,7.512-7.51C441.442,194.557,444.806,197.919,444.806,202.066"/>
		<path fill="#FFFFFF" d="M417.915,202.066c0,4.148-3.363,7.513-7.513,7.513c-4.146,0-7.51-3.364-7.51-7.513
			c0-4.147,3.363-7.51,7.51-7.51C414.552,194.557,417.915,197.919,417.915,202.066"/>
		<path fill="#FFFFFF" d="M391.022,202.066c0,4.148-3.363,7.513-7.511,7.513c-4.148,0-7.512-3.364-7.512-7.513
			c0-4.147,3.363-7.51,7.512-7.51C387.659,194.557,391.022,197.919,391.022,202.066"/>
		<path fill="#FFFFFF" d="M364.131,202.066c0,4.148-3.363,7.513-7.512,7.513c-4.147,0-7.511-3.364-7.511-7.513
			c0-4.147,3.363-7.51,7.511-7.51C360.768,194.557,364.131,197.919,364.131,202.066"/>
		<path fill="#FFFFFF" d="M337.24,202.066c0,4.148-3.364,7.513-7.512,7.513c-4.148,0-7.511-3.364-7.511-7.513
			c0-4.147,3.362-7.51,7.511-7.51C333.876,194.557,337.24,197.919,337.24,202.066"/>
		<path fill="#FFFFFF" d="M310.347,202.066c0,4.148-3.362,7.513-7.511,7.513c-4.147,0-7.511-3.364-7.511-7.513
			c0-4.147,3.363-7.51,7.511-7.51C306.984,194.557,310.347,197.919,310.347,202.066"/>
		<path fill="#FFFFFF" d="M471.698,227.383c0,4.147-3.363,7.511-7.512,7.511c-4.146,0-7.51-3.363-7.51-7.511s3.363-7.512,7.51-7.512
			C468.335,219.871,471.698,223.235,471.698,227.383"/>
		<path fill="#FFFFFF" d="M444.806,227.383c0,4.147-3.363,7.511-7.511,7.511c-4.148,0-7.512-3.363-7.512-7.511
			s3.363-7.512,7.512-7.512C441.442,219.871,444.806,223.235,444.806,227.383"/>
		<path fill="#FFFFFF" d="M417.915,227.383c0,4.147-3.363,7.511-7.513,7.511c-4.146,0-7.51-3.363-7.51-7.511s3.363-7.512,7.51-7.512
			C414.552,219.871,417.915,223.235,417.915,227.383"/>
		<path fill="#FFFFFF" d="M391.022,227.383c0,4.147-3.363,7.511-7.511,7.511c-4.148,0-7.512-3.363-7.512-7.511
			s3.363-7.512,7.512-7.512C387.659,219.871,391.022,223.235,391.022,227.383"/>
		<path fill="#FFFFFF" d="M364.131,227.383c0,4.147-3.363,7.511-7.512,7.511c-4.147,0-7.511-3.363-7.511-7.511
			s3.363-7.512,7.511-7.512C360.768,219.871,364.131,223.235,364.131,227.383"/>
		<path fill="#FFFFFF" d="M337.24,227.383c0,4.147-3.364,7.511-7.512,7.511c-4.148,0-7.511-3.363-7.511-7.511
			s3.362-7.512,7.511-7.512C333.876,219.871,337.24,223.235,337.24,227.383"/>
		<path fill="#FFFFFF" d="M310.347,227.383c0,4.147-3.362,7.511-7.511,7.511c-4.147,0-7.511-3.363-7.511-7.511
			s3.363-7.512,7.511-7.512C306.984,219.871,310.347,223.235,310.347,227.383"/>
		<path fill="#FFFFFF" d="M471.698,252.698c0,4.148-3.363,7.511-7.512,7.511c-4.146,0-7.51-3.362-7.51-7.511
			c0-4.147,3.363-7.511,7.51-7.511C468.335,245.188,471.698,248.551,471.698,252.698"/>
		<path fill="#FFFFFF" d="M444.806,252.698c0,4.148-3.363,7.511-7.511,7.511c-4.148,0-7.512-3.362-7.512-7.511
			c0-4.147,3.363-7.511,7.512-7.511C441.442,245.188,444.806,248.551,444.806,252.698"/>
		<path fill="#FFFFFF" d="M417.915,252.698c0,4.148-3.363,7.511-7.513,7.511c-4.146,0-7.51-3.362-7.51-7.511
			c0-4.147,3.363-7.511,7.51-7.511C414.552,245.188,417.915,248.551,417.915,252.698"/>
		<path fill="#FFFFFF" d="M391.022,252.698c0,4.148-3.363,7.511-7.511,7.511c-4.148,0-7.512-3.362-7.512-7.511
			c0-4.147,3.363-7.511,7.512-7.511C387.659,245.188,391.022,248.551,391.022,252.698"/>
		<path fill="#FFFFFF" d="M364.131,252.698c0,4.148-3.363,7.511-7.512,7.511c-4.147,0-7.511-3.362-7.511-7.511
			c0-4.147,3.363-7.511,7.511-7.511C360.768,245.188,364.131,248.551,364.131,252.698"/>
		<path fill="#FFFFFF" d="M337.24,252.698c0,4.148-3.364,7.511-7.512,7.511c-4.148,0-7.511-3.362-7.511-7.511
			c0-4.147,3.362-7.511,7.511-7.511C333.876,245.188,337.24,248.551,337.24,252.698"/>
		<path fill="#FFFFFF" d="M310.347,252.698c0,4.148-3.362,7.511-7.511,7.511c-4.147,0-7.511-3.362-7.511-7.511
			c0-4.147,3.363-7.511,7.511-7.511C306.984,245.188,310.347,248.551,310.347,252.698"/>
		<path fill="#FFFFFF" d="M471.698,278.013c0,4.147-3.363,7.513-7.512,7.513c-4.146,0-7.51-3.365-7.51-7.513
			c0-4.146,3.363-7.51,7.51-7.51C468.335,270.503,471.698,273.866,471.698,278.013"/>
		<path fill="#FFFFFF" d="M444.806,278.013c0,4.147-3.363,7.513-7.511,7.513c-4.148,0-7.512-3.365-7.512-7.513
			c0-4.146,3.363-7.51,7.512-7.51C441.442,270.503,444.806,273.866,444.806,278.013"/>
		<path fill="#FFFFFF" d="M417.915,278.013c0,4.147-3.363,7.513-7.513,7.513c-4.146,0-7.51-3.365-7.51-7.513
			c0-4.146,3.363-7.51,7.51-7.51C414.552,270.503,417.915,273.866,417.915,278.013"/>
		<path fill="#FFFFFF" d="M391.022,278.013c0,4.147-3.363,7.513-7.511,7.513c-4.148,0-7.512-3.365-7.512-7.513
			c0-4.146,3.363-7.51,7.512-7.51C387.659,270.503,391.022,273.866,391.022,278.013"/>
		<path fill="#FFFFFF" d="M364.131,278.013c0,4.147-3.363,7.513-7.512,7.513c-4.147,0-7.511-3.365-7.511-7.513
			c0-4.146,3.363-7.51,7.511-7.51C360.768,270.503,364.131,273.866,364.131,278.013"/>
		<path fill="#FFFFFF" d="M337.24,278.013c0,4.147-3.364,7.513-7.512,7.513c-4.148,0-7.511-3.365-7.511-7.513
			c0-4.146,3.362-7.51,7.511-7.51C333.876,270.503,337.24,273.866,337.24,278.013"/>
		<path fill="#FFFFFF" d="M310.347,278.013c0,4.147-3.362,7.513-7.511,7.513c-4.147,0-7.511-3.365-7.511-7.513
			c0-4.146,3.363-7.51,7.511-7.51C306.984,270.503,310.347,273.866,310.347,278.013"/>
		<path fill="#FFFFFF" d="M471.698,302.987c0,4.147-3.363,7.511-7.512,7.511c-4.146,0-7.51-3.363-7.51-7.511s3.363-7.511,7.51-7.511
			C468.335,295.477,471.698,298.84,471.698,302.987"/>
		<path fill="#FFFFFF" d="M444.806,302.987c0,4.147-3.363,7.511-7.511,7.511c-4.148,0-7.512-3.363-7.512-7.511
			s3.363-7.511,7.512-7.511C441.442,295.477,444.806,298.84,444.806,302.987"/>
		<path fill="#FFFFFF" d="M417.915,302.987c0,4.147-3.363,7.511-7.513,7.511c-4.146,0-7.51-3.363-7.51-7.511s3.363-7.511,7.51-7.511
			C414.552,295.477,417.915,298.84,417.915,302.987"/>
		<path fill="#FFFFFF" d="M391.022,302.987c0,4.147-3.363,7.511-7.511,7.511c-4.148,0-7.512-3.363-7.512-7.511
			s3.363-7.511,7.512-7.511C387.659,295.477,391.022,298.84,391.022,302.987"/>
		<path fill="#FFFFFF" d="M364.131,302.987c0,4.147-3.363,7.511-7.512,7.511c-4.147,0-7.511-3.363-7.511-7.511
			s3.363-7.511,7.511-7.511C360.768,295.477,364.131,298.84,364.131,302.987"/>
		<path fill="#FFFFFF" d="M337.24,302.987c0,4.147-3.364,7.511-7.512,7.511c-4.148,0-7.511-3.363-7.511-7.511
			s3.362-7.511,7.511-7.511C333.876,295.477,337.24,298.84,337.24,302.987"/>
		<path fill="#FFFFFF" d="M310.347,302.987c0,4.147-3.362,7.511-7.511,7.511c-4.147,0-7.511-3.363-7.511-7.511
			s3.363-7.511,7.511-7.511C306.984,295.477,310.347,298.84,310.347,302.987"/>
		<path fill="#FFFFFF" d="M471.698,328.303c0,4.146-3.363,7.51-7.512,7.51c-4.146,0-7.51-3.363-7.51-7.51
			c0-4.147,3.363-7.511,7.51-7.511C468.335,320.792,471.698,324.155,471.698,328.303"/>
		<path fill="#FFFFFF" d="M444.806,328.303c0,4.146-3.363,7.51-7.511,7.51c-4.148,0-7.512-3.363-7.512-7.51
			c0-4.147,3.363-7.511,7.512-7.511C441.442,320.792,444.806,324.155,444.806,328.303"/>
		<path fill="#FFFFFF" d="M417.915,328.303c0,4.146-3.363,7.51-7.513,7.51c-4.146,0-7.51-3.363-7.51-7.51
			c0-4.147,3.363-7.511,7.51-7.511C414.552,320.792,417.915,324.155,417.915,328.303"/>
		<path fill="#FFFFFF" d="M391.022,328.303c0,4.146-3.363,7.51-7.511,7.51c-4.148,0-7.512-3.363-7.512-7.51
			c0-4.147,3.363-7.511,7.512-7.511C387.659,320.792,391.022,324.155,391.022,328.303"/>
		<path fill="#FFFFFF" d="M364.131,328.303c0,4.146-3.363,7.51-7.512,7.51c-4.147,0-7.511-3.363-7.511-7.51
			c0-4.147,3.363-7.511,7.511-7.511C360.768,320.792,364.131,324.155,364.131,328.303"/>
		<path fill="#FFFFFF" d="M337.24,328.303c0,4.146-3.364,7.51-7.512,7.51c-4.148,0-7.511-3.363-7.511-7.51
			c0-4.147,3.362-7.511,7.511-7.511C333.876,320.792,337.24,324.155,337.24,328.303"/>
		<path fill="#FFFFFF" d="M310.347,328.303c0,4.146-3.362,7.51-7.511,7.51c-4.147,0-7.511-3.363-7.511-7.51
			c0-4.147,3.363-7.511,7.511-7.511C306.984,320.792,310.347,324.155,310.347,328.303"/>
		<path fill="#FFFFFF" d="M471.698,353.617c0,4.146-3.363,7.51-7.512,7.51c-4.146,0-7.51-3.363-7.51-7.51
			c0-4.146,3.363-7.509,7.51-7.509C468.335,346.108,471.698,349.472,471.698,353.617"/>
		<path fill="#FFFFFF" d="M444.806,353.617c0,4.146-3.363,7.51-7.511,7.51c-4.148,0-7.512-3.363-7.512-7.51
			c0-4.146,3.363-7.509,7.512-7.509C441.442,346.108,444.806,349.472,444.806,353.617"/>
		<path fill="#FFFFFF" d="M417.915,353.617c0,4.146-3.363,7.51-7.513,7.51c-4.146,0-7.51-3.363-7.51-7.51
			c0-4.146,3.363-7.509,7.51-7.509C414.552,346.108,417.915,349.472,417.915,353.617"/>
		<path fill="#FFFFFF" d="M391.022,353.617c0,4.146-3.363,7.51-7.511,7.51c-4.148,0-7.512-3.363-7.512-7.51
			c0-4.146,3.363-7.509,7.512-7.509C387.659,346.108,391.022,349.472,391.022,353.617"/>
		<path fill="#FFFFFF" d="M364.131,353.617c0,4.146-3.363,7.51-7.512,7.51c-4.147,0-7.511-3.363-7.511-7.51
			c0-4.146,3.363-7.509,7.511-7.509C360.768,346.108,364.131,349.472,364.131,353.617"/>
		<path fill="#FFFFFF" d="M337.24,353.617c0,4.146-3.364,7.51-7.512,7.51c-4.148,0-7.511-3.363-7.511-7.51
			c0-4.146,3.362-7.509,7.511-7.509C333.876,346.108,337.24,349.472,337.24,353.617"/>
		<path fill="#FFFFFF" d="M310.347,353.617c0,4.146-3.362,7.51-7.511,7.51c-4.147,0-7.511-3.363-7.511-7.51
			c0-4.146,3.363-7.509,7.511-7.509C306.984,346.108,310.347,349.472,310.347,353.617"/>
		<path fill="#FFFFFF" d="M471.698,378.934c0,4.147-3.363,7.511-7.512,7.511c-4.146,0-7.51-3.363-7.51-7.511s3.363-7.513,7.51-7.513
			C468.335,371.421,471.698,374.786,471.698,378.934"/>
		<path fill="#FFFFFF" d="M444.806,378.934c0,4.147-3.363,7.511-7.511,7.511c-4.148,0-7.512-3.363-7.512-7.511
			s3.363-7.513,7.512-7.513C441.442,371.421,444.806,374.786,444.806,378.934"/>
		<path fill="#FFFFFF" d="M417.915,378.934c0,4.147-3.363,7.511-7.513,7.511c-4.146,0-7.51-3.363-7.51-7.511s3.363-7.513,7.51-7.513
			C414.552,371.421,417.915,374.786,417.915,378.934"/>
		<path fill="#FFFFFF" d="M391.022,378.934c0,4.147-3.363,7.511-7.511,7.511c-4.148,0-7.512-3.363-7.512-7.511
			s3.363-7.513,7.512-7.513C387.659,371.421,391.022,374.786,391.022,378.934"/>
		<path fill="#FFFFFF" d="M364.131,378.934c0,4.147-3.363,7.511-7.512,7.511c-4.147,0-7.511-3.363-7.511-7.511
			s3.363-7.513,7.511-7.513C360.768,371.421,364.131,374.786,364.131,378.934"/>
		<path fill="#FFFFFF" d="M337.24,378.934c0,4.147-3.364,7.511-7.512,7.511c-4.148,0-7.511-3.363-7.511-7.511
			s3.362-7.513,7.511-7.513C333.876,371.421,337.24,374.786,337.24,378.934"/>
		<path fill="#FFFFFF" d="M310.347,378.934c0,4.147-3.362,7.511-7.511,7.511c-4.147,0-7.511-3.363-7.511-7.511
			s3.363-7.513,7.511-7.513C306.984,371.421,310.347,374.786,310.347,378.934"/>
		<path fill="#FFFFFF" d="M471.698,404.249c0,4.147-3.363,7.51-7.512,7.51c-4.146,0-7.51-3.362-7.51-7.51
			c0-4.148,3.363-7.51,7.51-7.51C468.335,396.739,471.698,400.101,471.698,404.249"/>
		<path fill="#FFFFFF" d="M444.806,404.249c0,4.147-3.363,7.51-7.511,7.51c-4.148,0-7.512-3.362-7.512-7.51
			c0-4.148,3.363-7.51,7.512-7.51C441.442,396.739,444.806,400.101,444.806,404.249"/>
		<path fill="#FFFFFF" d="M417.915,404.249c0,4.147-3.363,7.51-7.513,7.51c-4.146,0-7.51-3.362-7.51-7.51
			c0-4.148,3.363-7.51,7.51-7.51C414.552,396.739,417.915,400.101,417.915,404.249"/>
		<path fill="#FFFFFF" d="M391.022,404.249c0,4.147-3.363,7.51-7.511,7.51c-4.148,0-7.512-3.362-7.512-7.51
			c0-4.148,3.363-7.51,7.512-7.51C387.659,396.739,391.022,400.101,391.022,404.249"/>
		<path fill="#FFFFFF" d="M364.131,404.249c0,4.147-3.363,7.51-7.512,7.51c-4.147,0-7.511-3.362-7.511-7.51
			c0-4.148,3.363-7.51,7.511-7.51C360.768,396.739,364.131,400.101,364.131,404.249"/>
		<path fill="#FFFFFF" d="M337.24,404.249c0,4.147-3.364,7.51-7.512,7.51c-4.148,0-7.511-3.362-7.511-7.51
			c0-4.148,3.362-7.51,7.511-7.51C333.876,396.739,337.24,400.101,337.24,404.249"/>
		<path fill="#FFFFFF" d="M310.347,404.249c0,4.147-3.362,7.51-7.511,7.51c-4.147,0-7.511-3.362-7.511-7.51
			c0-4.148,3.363-7.51,7.511-7.51C306.984,396.739,310.347,400.101,310.347,404.249"/>
	</g>
</g>
</svg>
