<?xml version="1.0" encoding="utf-8"?>
<!-- Generator: Adobe Illustrator 15.0.0, SVG Export Plug-In . SVG Version: 6.00 Build 0)  -->
<!DOCTYPE svg PUBLIC "-//W3C//DTD SVG 1.1//EN" "http://www.w3.org/Graphics/SVG/1.1/DTD/svg11.dtd">
<svg version="1.1" xmlns="http://www.w3.org/2000/svg" xmlns:xlink="http://www.w3.org/1999/xlink" x="0px" y="0px" width="580px"
	 height="580px" viewBox="0 0 580 580" enable-background="new 0 0 580 580" xml:space="preserve">
<g id="Layer_2">
	<g id="g1327">
		<path id="path1329" fill="#111111" stroke="#EEEEEE" stroke-width="3.408" d="M66.275,1.768
			c-41.335,0-64.571,21.371-64.571,65.036v450.123c0,40.844,20.894,62.229,62.192,62.229H515.92
			c41.307,0,62.229-20.316,62.229-62.229V66.804c0-42.601-20.923-65.036-63.522-65.036C514.624,1.768,66.133,1.625,66.275,1.768z"/>
	</g>
</g>
<g id="svg2" inkscape:output_extension="org.inkscape.output.svg.inkscape" sodipodi:version="0.32" sodipodi:docname="waste_bin.svg" inkscape:version="0.46" xmlns:dc="http://purl.org/dc/elements/1.1/" xmlns:cc="http://creativecommons.org/ns#" xmlns:rdf="http://www.w3.org/1999/02/22-rdf-syntax-ns#" xmlns:svg="http://www.w3.org/2000/svg" xmlns:sodipodi="http://sodipodi.sourceforge.net/DTD/sodipodi-0.dtd" xmlns:inkscape="http://www.inkscape.org/namespaces/inkscape">
	<g>
		<polygon fill="#FFFFFF" points="537.688,207.146 285.395,91.754 42.734,207.047 29.002,178.144 285.139,56.448 550.998,178.045 		
			"/>
	</g>
	<g>
		<g>
			<rect x="51.512" y="211.833" fill="#FFFFFF" width="15" height="323.333"/>
		</g>
		<g>
			<rect x="513.488" y="211.833" fill="#FFFFFF" width="15" height="323.333"/>
		</g>
	</g>
	<path fill="#FFFFFF" d="M459.971,310.29c0.037-0.938,0.037-1.442,0.037-1.442c0-53.58-43.438-97.016-97.018-97.016
		c-29.111,0-55.207,12.839-72.991,33.143c-17.783-20.304-43.879-33.143-72.99-33.143c-53.581,0-97.017,43.436-97.017,97.016
		c0,0,0.001,0.504,0.037,1.442c0.116,7.916,1.158,15.608,3.061,22.957c3.951,18.748,12.939,45.622,33.398,70.851
		c36.495,45.006,128.692,95.251,128.692,95.251h9.64c0,0,92.195-50.245,128.691-95.251c20.457-25.228,29.445-52.1,33.396-70.849
		C458.813,325.899,459.855,318.208,459.971,310.29z"/>
</g>
</svg>
