<?xml version="1.0" encoding="utf-8"?>
<!-- Generator: Adobe Illustrator 15.0.0, SVG Export Plug-In . SVG Version: 6.00 Build 0)  -->
<!DOCTYPE svg PUBLIC "-//W3C//DTD SVG 1.1//EN" "http://www.w3.org/Graphics/SVG/1.1/DTD/svg11.dtd">
<svg version="1.1" xmlns="http://www.w3.org/2000/svg" xmlns:xlink="http://www.w3.org/1999/xlink" x="0px" y="0px" width="580px"
	 height="580px" viewBox="0 0 580 580" enable-background="new 0 0 580 580" xml:space="preserve">
<g id="Layer_1">
	<g id="Layer_1_1_">
		<g id="Layer_2">
			<g id="g1327">
				<path id="path1329" fill="#111111" stroke="#EEEEEE" stroke-width="3.408" d="M66.275,1.768
					c-41.335,0-64.571,21.371-64.571,65.036v450.123c0,40.844,20.895,62.229,62.192,62.229H515.92
					c41.307,0,62.229-20.315,62.229-62.229V66.804c0-42.601-20.925-65.036-63.521-65.036C514.624,1.768,66.133,1.625,66.275,1.768z"
					/>
			</g>
		</g>
	</g>
</g>
<g id="Layer_2_1_">
	<g>
		<rect x="126.8" y="95.511" fill="#FFFFFF" width="326.399" height="107.995"/>
		<g>
			<path fill="#FFFFFF" d="M175.949,345.471c31.179,28.646,71.683,44.421,114.051,44.421c42.369,0,82.873-15.775,114.051-44.421
				c29.288-26.909,47.991-62.936,53.132-102.06h-15.146c-10.791,75.512-74.76,131.48-152.036,131.48
				c-77.277,0-141.246-55.967-152.037-131.48h-15.146C127.958,282.535,146.661,318.562,175.949,345.471z"/>
			<path fill="#FFFFFF" d="M140.857,380.432c40.557,38.02,93.523,58.958,149.143,58.958c55.62,0,108.587-20.938,149.144-58.958
				c38.649-36.233,62.569-84.666,67.854-137.021h-15.083C480.813,345.527,393.646,424.39,290,424.39
				c-103.645,0-190.812-78.862-201.913-180.979H73.003C78.288,295.766,102.208,344.198,140.857,380.432z"/>
			<path fill="#FFFFFF" d="M537.248,243.411C525.996,370.82,418.891,469.489,290,469.489S54.004,370.82,42.752,243.411H27.703
				C39.012,379.163,152.877,484.489,290,484.489s250.989-105.326,262.297-241.078H537.248z"/>
		</g>
	</g>
</g>
</svg>
