<?xml version="1.0" encoding="UTF-8" standalone="no"?>
<!-- Generator: Adobe Illustrator 15.0.0, SVG Export Plug-In . SVG Version: 6.00 Build 0)  -->

<svg
   version="1.1"
   x="0px"
   y="0px"
   width="580px"
   height="580px"
   viewBox="0 0 580 580"
   enable-background="new 0 0 580 580"
   xml:space="preserve"
   id="svg4586"
   sodipodi:docname="animal_hirse_walker.svg"
   inkscape:version="1.4 (86a8ad7, 2024-10-11)"
   xmlns:inkscape="http://www.inkscape.org/namespaces/inkscape"
   xmlns:sodipodi="http://sodipodi.sourceforge.net/DTD/sodipodi-0.dtd"
   xmlns="http://www.w3.org/2000/svg"
   xmlns:svg="http://www.w3.org/2000/svg"
   xmlns:rdf="http://www.w3.org/1999/02/22-rdf-syntax-ns#"
   xmlns:cc="http://creativecommons.org/ns#"
   xmlns:dc="http://purl.org/dc/elements/1.1/"><metadata
   id="metadata4592"><rdf:RDF><cc:Work
       rdf:about=""><dc:format>image/svg+xml</dc:format><dc:type
         rdf:resource="http://purl.org/dc/dcmitype/StillImage" /></cc:Work></rdf:RDF></metadata><defs
   id="defs4590">
	
	
	
</defs><sodipodi:namedview
   pagecolor="#ffffff"
   bordercolor="#666666"
   borderopacity="1"
   objecttolerance="10"
   gridtolerance="10"
   guidetolerance="10"
   inkscape:pageopacity="0"
   inkscape:pageshadow="2"
   inkscape:window-width="1565"
   inkscape:window-height="862"
   id="namedview4588"
   showgrid="false"
   inkscape:zoom="0.63"
   inkscape:cx="203.96825"
   inkscape:cy="301.5873"
   inkscape:window-x="185"
   inkscape:window-y="75"
   inkscape:window-maximized="0"
   inkscape:current-layer="svg4586"
   inkscape:showpageshadow="2"
   inkscape:pagecheckerboard="0"
   inkscape:deskcolor="#d1d1d1" />


<g
   id="g24"
   transform="translate(-6.0095464,-5.6894081)"><g
     id="Layer_1"
     transform="translate(6.0830464,5.2591859)">
	<g
   id="Layer_1_1_">
		<g
   id="Layer_2">
			<g
   id="g1327">
				<path
   id="path1329"
   fill="#111111"
   stroke="#eeeeee"
   stroke-width="3.408"
   d="M 66.275,1.768 C 24.94,1.768 1.704,23.139 1.704,66.804 v 450.123 c 0,40.844 20.895,62.229 62.192,62.229 H 515.92 c 41.307,0 62.229,-20.315 62.229,-62.229 V 66.804 c 0,-42.601 -20.925,-65.036 -63.521,-65.036 -0.004,0 -448.495,-0.143 -448.353,0 z" />
			</g>
		</g>
	</g>
</g><circle
     style="color:#000000;overflow:visible;fill:none;stroke:#ffffff;stroke-width:20.8"
     id="path1"
     cx="290"
     cy="290"
     r="215" /><path
     style="fill:#ff0000;fill-opacity:1;fill-rule:evenodd;stroke:#000000;stroke-width:5;stroke-linecap:butt;stroke-linejoin:miter;stroke-dasharray:none;stroke-opacity:1"
     d="M 138.88889,212.22222 432.62997,381.81371"
     id="path2" /><g
     id="g4"
     transform="rotate(-19.125496,290,290)"><path
       style="fill:#ff0000;fill-opacity:1;fill-rule:evenodd;stroke:#ffffff;stroke-width:9.1;stroke-linecap:butt;stroke-linejoin:miter;stroke-dasharray:none;stroke-opacity:1"
       d="M 162.22222,160 417.77778,420"
       id="path3" /><path
       style="fill:#ff0000;fill-opacity:1;fill-rule:evenodd;stroke:#ffffff;stroke-width:9.1;stroke-linecap:butt;stroke-linejoin:miter;stroke-dasharray:none;stroke-opacity:1"
       d="M 420,162.22222 160,417.77778"
       id="path4" /></g><g
     id="g9"
     transform="rotate(-38.190311,235.0794,127.36185)"><rect
       style="color:#000000;overflow:visible;fill:#ffffff;fill-opacity:1;stroke:#ffffff;stroke-width:10.6;stroke-linejoin:bevel;stroke-dasharray:none;stroke-opacity:1"
       id="rect4"
       width="75.483871"
       height="25.161291"
       x="184.51613"
       y="160.64516"
       ry="9.0090094"
       rx="9.0090094" /><ellipse
       style="color:#000000;overflow:visible;fill:#ffffff;fill-opacity:1;stroke:#ffffff;stroke-width:8.77802;stroke-linejoin:bevel;stroke-dasharray:none;stroke-opacity:1"
       id="path5"
       cx="169.39706"
       cy="171.87468"
       rx="9.2980862"
       ry="3.1926985" /><circle
       style="color:#000000;overflow:visible;fill:#ffffff;fill-opacity:1;stroke:#ffffff;stroke-width:3.42321;stroke-linejoin:miter;stroke-dasharray:none;stroke-opacity:1"
       id="path6"
       cx="187.17279"
       cy="190.31413"
       r="3.5797369" /><circle
       style="color:#000000;overflow:visible;fill:#ffffff;fill-opacity:1;stroke:#ffffff;stroke-width:3.42321;stroke-linejoin:miter;stroke-dasharray:none;stroke-opacity:1"
       id="circle6"
       cx="187.69635"
       cy="155.75916"
       r="3.5797369" /><circle
       style="color:#000000;overflow:visible;fill:#ffffff;fill-opacity:1;stroke:#ffffff;stroke-width:3.42321;stroke-linejoin:miter;stroke-dasharray:none;stroke-opacity:1"
       id="circle7"
       cx="258.90054"
       cy="189.79057"
       r="3.5797369" /><circle
       style="color:#000000;overflow:visible;fill:#ffffff;fill-opacity:1;stroke:#ffffff;stroke-width:3.42321;stroke-linejoin:miter;stroke-dasharray:none;stroke-opacity:1"
       id="circle8"
       cx="260.47122"
       cy="156.28271"
       r="3.5797369" /><ellipse
       style="color:#000000;overflow:visible;fill:#ffffff;fill-opacity:1;stroke:#ffffff;stroke-width:4.10365;stroke-linejoin:miter;stroke-dasharray:none;stroke-opacity:1"
       id="path8"
       cx="170.9424"
       cy="183.70416"
       rx="1.6688358"
       ry="5.0065074" /><ellipse
       style="color:#000000;overflow:visible;fill:#ffffff;fill-opacity:1;stroke:#ffffff;stroke-width:4.10365;stroke-linejoin:miter;stroke-dasharray:none;stroke-opacity:1"
       id="ellipse8"
       cx="171.46596"
       cy="159.62041"
       rx="1.6688358"
       ry="5.0065074" /><path
       style="fill:none;fill-rule:evenodd;stroke:#ffffff;stroke-width:1.97297;stroke-linecap:butt;stroke-linejoin:bevel;stroke-dasharray:none;stroke-opacity:1"
       d="m 258.1755,173.25041 c 0.4168,-0.16246 0.84889,-0.29175 1.25041,-0.48739 1.17054,-0.57032 -2.31095,-0.37129 1.75058,-0.73108 1.3283,-0.11767 2.66755,0 4.00132,0 0.33344,0 0.66689,0 1.00033,0 0.0834,0 0.16993,0.0223 0.25008,0 0.50694,-0.14114 0.98177,-0.39549 1.50049,-0.4874 0.41009,-0.0726 0.83361,0 1.25041,0 0.50017,0 1.0042,-0.0605 1.5005,0 0.53278,0.0649 0.41442,0.26084 0.75024,0.4874 0.98848,0.66685 2.00067,1.29971 3.001,1.94956 0.75025,0.4874 1.52939,0.93499 2.25074,1.46218 0.28293,0.20678 0.47855,0.51046 0.75025,0.73109 0.23089,0.1875 0.55464,0.26501 0.75024,0.48739 0.31634,0.35963 0.49263,0.81682 0.75025,1.21848 0.1593,0.24837 0.23134,0.6001 0.50016,0.73109 0.29825,0.14531 0.66689,0 1.00033,0 0.50018,0 1.00034,0 1.5005,0 0.25009,0 0.50017,0 0.75025,0 0.0834,0 0.18072,0.045 0.25008,0 0.44412,-0.28853 0.76265,-0.76353 1.25041,-0.97478 0.30471,-0.13197 0.67483,0.0705 1.00033,0 2.43669,-0.52766 0.6502,-0.17871 1.5005,-0.73109 0.15509,-0.10076 0.33344,-0.16247 0.50016,-0.2437"
       id="path9" /></g><g
     id="g13"
     transform="rotate(-130.68577,229.1161,259.29815)"><rect
       style="color:#000000;overflow:visible;fill:#ffffff;fill-opacity:1;stroke:#ffffff;stroke-width:10.6;stroke-linejoin:bevel;stroke-dasharray:none;stroke-opacity:1"
       id="rect9"
       width="75.483871"
       height="25.161291"
       x="184.51613"
       y="160.64516"
       ry="9.0090094"
       rx="9.0090094" /><ellipse
       style="color:#000000;overflow:visible;fill:#ffffff;fill-opacity:1;stroke:#ffffff;stroke-width:8.77802;stroke-linejoin:bevel;stroke-dasharray:none;stroke-opacity:1"
       id="ellipse9"
       cx="169.39706"
       cy="171.87468"
       rx="9.2980862"
       ry="3.1926985" /><circle
       style="color:#000000;overflow:visible;fill:#ffffff;fill-opacity:1;stroke:#ffffff;stroke-width:3.42321;stroke-linejoin:miter;stroke-dasharray:none;stroke-opacity:1"
       id="circle9"
       cx="187.17279"
       cy="190.31413"
       r="3.5797369" /><circle
       style="color:#000000;overflow:visible;fill:#ffffff;fill-opacity:1;stroke:#ffffff;stroke-width:3.42321;stroke-linejoin:miter;stroke-dasharray:none;stroke-opacity:1"
       id="circle10"
       cx="187.69635"
       cy="155.75916"
       r="3.5797369" /><circle
       style="color:#000000;overflow:visible;fill:#ffffff;fill-opacity:1;stroke:#ffffff;stroke-width:3.42321;stroke-linejoin:miter;stroke-dasharray:none;stroke-opacity:1"
       id="circle11"
       cx="258.90054"
       cy="189.79057"
       r="3.5797369" /><circle
       style="color:#000000;overflow:visible;fill:#ffffff;fill-opacity:1;stroke:#ffffff;stroke-width:3.42321;stroke-linejoin:miter;stroke-dasharray:none;stroke-opacity:1"
       id="circle12"
       cx="260.47122"
       cy="156.28271"
       r="3.5797369" /><ellipse
       style="color:#000000;overflow:visible;fill:#ffffff;fill-opacity:1;stroke:#ffffff;stroke-width:4.10365;stroke-linejoin:miter;stroke-dasharray:none;stroke-opacity:1"
       id="ellipse12"
       cx="170.9424"
       cy="183.70416"
       rx="1.6688358"
       ry="5.0065074" /><ellipse
       style="color:#000000;overflow:visible;fill:#ffffff;fill-opacity:1;stroke:#ffffff;stroke-width:4.10365;stroke-linejoin:miter;stroke-dasharray:none;stroke-opacity:1"
       id="ellipse13"
       cx="171.46596"
       cy="159.62041"
       rx="1.6688358"
       ry="5.0065074" /><path
       style="fill:none;fill-rule:evenodd;stroke:#ffffff;stroke-width:1.97297;stroke-linecap:butt;stroke-linejoin:bevel;stroke-dasharray:none;stroke-opacity:1"
       d="m 258.1755,173.25041 c 0.4168,-0.16246 0.84889,-0.29175 1.25041,-0.48739 1.17054,-0.57032 -2.31095,-0.37129 1.75058,-0.73108 1.3283,-0.11767 2.66755,0 4.00132,0 0.33344,0 0.66689,0 1.00033,0 0.0834,0 0.16993,0.0223 0.25008,0 0.50694,-0.14114 0.98177,-0.39549 1.50049,-0.4874 0.41009,-0.0726 0.83361,0 1.25041,0 0.50017,0 1.0042,-0.0605 1.5005,0 0.53278,0.0649 0.41442,0.26084 0.75024,0.4874 0.98848,0.66685 2.00067,1.29971 3.001,1.94956 0.75025,0.4874 1.52939,0.93499 2.25074,1.46218 0.28293,0.20678 0.47855,0.51046 0.75025,0.73109 0.23089,0.1875 0.55464,0.26501 0.75024,0.48739 0.31634,0.35963 0.49263,0.81682 0.75025,1.21848 0.1593,0.24837 0.23134,0.6001 0.50016,0.73109 0.29825,0.14531 0.66689,0 1.00033,0 0.50018,0 1.00034,0 1.5005,0 0.25009,0 0.50017,0 0.75025,0 0.0834,0 0.18072,0.045 0.25008,0 0.44412,-0.28853 0.76265,-0.76353 1.25041,-0.97478 0.30471,-0.13197 0.67483,0.0705 1.00033,0 2.43669,-0.52766 0.6502,-0.17871 1.5005,-0.73109 0.15509,-0.10076 0.33344,-0.16247 0.50016,-0.2437"
       id="path13" /></g><g
     id="g18"
     transform="rotate(149.73977,238.47861,297.30872)"><rect
       style="color:#000000;overflow:visible;fill:#ffffff;fill-opacity:1;stroke:#ffffff;stroke-width:10.6;stroke-linejoin:bevel;stroke-dasharray:none;stroke-opacity:1"
       id="rect13"
       width="75.483871"
       height="25.161291"
       x="184.51613"
       y="160.64516"
       ry="9.0090094"
       rx="9.0090094" /><ellipse
       style="color:#000000;overflow:visible;fill:#ffffff;fill-opacity:1;stroke:#ffffff;stroke-width:8.77802;stroke-linejoin:bevel;stroke-dasharray:none;stroke-opacity:1"
       id="ellipse14"
       cx="169.39706"
       cy="171.87468"
       rx="9.2980862"
       ry="3.1926985" /><circle
       style="color:#000000;overflow:visible;fill:#ffffff;fill-opacity:1;stroke:#ffffff;stroke-width:3.42321;stroke-linejoin:miter;stroke-dasharray:none;stroke-opacity:1"
       id="circle14"
       cx="187.17279"
       cy="190.31413"
       r="3.5797369" /><circle
       style="color:#000000;overflow:visible;fill:#ffffff;fill-opacity:1;stroke:#ffffff;stroke-width:3.42321;stroke-linejoin:miter;stroke-dasharray:none;stroke-opacity:1"
       id="circle15"
       cx="187.69635"
       cy="155.75916"
       r="3.5797369" /><circle
       style="color:#000000;overflow:visible;fill:#ffffff;fill-opacity:1;stroke:#ffffff;stroke-width:3.42321;stroke-linejoin:miter;stroke-dasharray:none;stroke-opacity:1"
       id="circle16"
       cx="258.90054"
       cy="189.79057"
       r="3.5797369" /><circle
       style="color:#000000;overflow:visible;fill:#ffffff;fill-opacity:1;stroke:#ffffff;stroke-width:3.42321;stroke-linejoin:miter;stroke-dasharray:none;stroke-opacity:1"
       id="circle17"
       cx="260.47122"
       cy="156.28271"
       r="3.5797369" /><ellipse
       style="color:#000000;overflow:visible;fill:#ffffff;fill-opacity:1;stroke:#ffffff;stroke-width:4.10365;stroke-linejoin:miter;stroke-dasharray:none;stroke-opacity:1"
       id="ellipse17"
       cx="170.9424"
       cy="183.70416"
       rx="1.6688358"
       ry="5.0065074" /><ellipse
       style="color:#000000;overflow:visible;fill:#ffffff;fill-opacity:1;stroke:#ffffff;stroke-width:4.10365;stroke-linejoin:miter;stroke-dasharray:none;stroke-opacity:1"
       id="ellipse18"
       cx="171.46596"
       cy="159.62041"
       rx="1.6688358"
       ry="5.0065074" /><path
       style="fill:none;fill-rule:evenodd;stroke:#ffffff;stroke-width:1.97297;stroke-linecap:butt;stroke-linejoin:bevel;stroke-dasharray:none;stroke-opacity:1"
       d="m 258.1755,173.25041 c 0.4168,-0.16246 0.84889,-0.29175 1.25041,-0.48739 1.17054,-0.57032 -2.31095,-0.37129 1.75058,-0.73108 1.3283,-0.11767 2.66755,0 4.00132,0 0.33344,0 0.66689,0 1.00033,0 0.0834,0 0.16993,0.0223 0.25008,0 0.50694,-0.14114 0.98177,-0.39549 1.50049,-0.4874 0.41009,-0.0726 0.83361,0 1.25041,0 0.50017,0 1.0042,-0.0605 1.5005,0 0.53278,0.0649 0.41442,0.26084 0.75024,0.4874 0.98848,0.66685 2.00067,1.29971 3.001,1.94956 0.75025,0.4874 1.52939,0.93499 2.25074,1.46218 0.28293,0.20678 0.47855,0.51046 0.75025,0.73109 0.23089,0.1875 0.55464,0.26501 0.75024,0.48739 0.31634,0.35963 0.49263,0.81682 0.75025,1.21848 0.1593,0.24837 0.23134,0.6001 0.50016,0.73109 0.29825,0.14531 0.66689,0 1.00033,0 0.50018,0 1.00034,0 1.5005,0 0.25009,0 0.50017,0 0.75025,0 0.0834,0 0.18072,0.045 0.25008,0 0.44412,-0.28853 0.76265,-0.76353 1.25041,-0.97478 0.30471,-0.13197 0.67483,0.0705 1.00033,0 2.43669,-0.52766 0.6502,-0.17871 1.5005,-0.73109 0.15509,-0.10076 0.33344,-0.16247 0.50016,-0.2437"
       id="path18" /></g><g
     id="g23"
     transform="rotate(55.866739,233.93279,375.45843)"><rect
       style="color:#000000;overflow:visible;fill:#ffffff;fill-opacity:1;stroke:#ffffff;stroke-width:10.6;stroke-linejoin:bevel;stroke-dasharray:none;stroke-opacity:1"
       id="rect18"
       width="75.483871"
       height="25.161291"
       x="184.51613"
       y="160.64516"
       ry="9.0090094"
       rx="9.0090094" /><ellipse
       style="color:#000000;overflow:visible;fill:#ffffff;fill-opacity:1;stroke:#ffffff;stroke-width:8.77802;stroke-linejoin:bevel;stroke-dasharray:none;stroke-opacity:1"
       id="ellipse19"
       cx="169.39706"
       cy="171.87468"
       rx="9.2980862"
       ry="3.1926985" /><circle
       style="color:#000000;overflow:visible;fill:#ffffff;fill-opacity:1;stroke:#ffffff;stroke-width:3.42321;stroke-linejoin:miter;stroke-dasharray:none;stroke-opacity:1"
       id="circle19"
       cx="187.17279"
       cy="190.31413"
       r="3.5797369" /><circle
       style="color:#000000;overflow:visible;fill:#ffffff;fill-opacity:1;stroke:#ffffff;stroke-width:3.42321;stroke-linejoin:miter;stroke-dasharray:none;stroke-opacity:1"
       id="circle20"
       cx="187.69635"
       cy="155.75916"
       r="3.5797369" /><circle
       style="color:#000000;overflow:visible;fill:#ffffff;fill-opacity:1;stroke:#ffffff;stroke-width:3.42321;stroke-linejoin:miter;stroke-dasharray:none;stroke-opacity:1"
       id="circle21"
       cx="258.90054"
       cy="189.79057"
       r="3.5797369" /><circle
       style="color:#000000;overflow:visible;fill:#ffffff;fill-opacity:1;stroke:#ffffff;stroke-width:3.42321;stroke-linejoin:miter;stroke-dasharray:none;stroke-opacity:1"
       id="circle22"
       cx="260.47122"
       cy="156.28271"
       r="3.5797369" /><ellipse
       style="color:#000000;overflow:visible;fill:#ffffff;fill-opacity:1;stroke:#ffffff;stroke-width:4.10365;stroke-linejoin:miter;stroke-dasharray:none;stroke-opacity:1"
       id="ellipse22"
       cx="170.9424"
       cy="183.70416"
       rx="1.6688358"
       ry="5.0065074" /><ellipse
       style="color:#000000;overflow:visible;fill:#ffffff;fill-opacity:1;stroke:#ffffff;stroke-width:4.10365;stroke-linejoin:miter;stroke-dasharray:none;stroke-opacity:1"
       id="ellipse23"
       cx="171.46596"
       cy="159.62041"
       rx="1.6688358"
       ry="5.0065074" /><path
       style="fill:none;fill-rule:evenodd;stroke:#ffffff;stroke-width:1.97297;stroke-linecap:butt;stroke-linejoin:bevel;stroke-dasharray:none;stroke-opacity:1"
       d="m 258.1755,173.25041 c 0.4168,-0.16246 0.84889,-0.29175 1.25041,-0.48739 1.17054,-0.57032 -2.31095,-0.37129 1.75058,-0.73108 1.3283,-0.11767 2.66755,0 4.00132,0 0.33344,0 0.66689,0 1.00033,0 0.0834,0 0.16993,0.0223 0.25008,0 0.50694,-0.14114 0.98177,-0.39549 1.50049,-0.4874 0.41009,-0.0726 0.83361,0 1.25041,0 0.50017,0 1.0042,-0.0605 1.5005,0 0.53278,0.0649 0.41442,0.26084 0.75024,0.4874 0.98848,0.66685 2.00067,1.29971 3.001,1.94956 0.75025,0.4874 1.52939,0.93499 2.25074,1.46218 0.28293,0.20678 0.47855,0.51046 0.75025,0.73109 0.23089,0.1875 0.55464,0.26501 0.75024,0.48739 0.31634,0.35963 0.49263,0.81682 0.75025,1.21848 0.1593,0.24837 0.23134,0.6001 0.50016,0.73109 0.29825,0.14531 0.66689,0 1.00033,0 0.50018,0 1.00034,0 1.5005,0 0.25009,0 0.50017,0 0.75025,0 0.0834,0 0.18072,0.045 0.25008,0 0.44412,-0.28853 0.76265,-0.76353 1.25041,-0.97478 0.30471,-0.13197 0.67483,0.0705 1.00033,0 2.43669,-0.52766 0.6502,-0.17871 1.5005,-0.73109 0.15509,-0.10076 0.33344,-0.16247 0.50016,-0.2437"
       id="path23" /></g></g></svg>
