<?xml version="1.0" encoding="utf-8"?>
<!-- Generator: Adobe Illustrator 15.0.0, SVG Export Plug-In . SVG Version: 6.00 Build 0)  -->
<!DOCTYPE svg PUBLIC "-//W3C//DTD SVG 1.1//EN" "http://www.w3.org/Graphics/SVG/1.1/DTD/svg11.dtd">
<svg version="1.1" xmlns="http://www.w3.org/2000/svg" xmlns:xlink="http://www.w3.org/1999/xlink" x="0px" y="0px" width="580px"
	 height="580px" viewBox="0 0 580 580" enable-background="new 0 0 580 580" xml:space="preserve">
<g id="Layer_1">
	<g id="Layer_1_1_">
		<g id="Layer_2">
			<g id="g1327">
				<path id="path1329" fill="#111111" stroke="#EEEEEE" stroke-width="3.408" d="M66.275,1.768
					c-41.335,0-64.571,21.371-64.571,65.036v450.123c0,40.844,20.895,62.229,62.192,62.229H515.92
					c41.307,0,62.229-20.315,62.229-62.229V66.804c0-42.601-20.925-65.036-63.521-65.036C514.624,1.768,66.133,1.625,66.275,1.768z"
					/>
			</g>
		</g>
	</g>
</g>
<g id="Layer_2_1_">
	<g>
		<g>
			<polygon fill="#FFFFFF" points="537.688,201.338 285.395,85.947 42.734,201.24 29.002,172.336 285.139,50.641 550.998,172.238 
							"/>
		</g>
		<g>
			<g>
				<rect x="51.512" y="206.025" fill="#FFFFFF" width="15" height="323.334"/>
			</g>
			<g>
				<rect x="513.488" y="206.025" fill="#FFFFFF" width="15" height="323.334"/>
			</g>
		</g>
	</g>
	<g>
		<path fill="#FFFFFF" d="M286.241,399.296l-44.925-13.562c-3.082,4.179-9.057,9.583-19.864,10.694c0,0-56.059,2.311-64.855,4.168
			c0,0-13.761-0.719-24.736,7.905c-2.087,0.259-22.251,3.416-38.701,27.766c0,0-11.822,15.983-23.634,15.286
			c0,0,19.456,5.562,43.083-19.45c0,0,3.525-9,11.149-14.082c-2.184,3.917-3.882,8.663-4.688,14.54c0,0-8.337,73.202-11.118,76.903
			c0,0-4.634,17.602,4.168,18.531c0,0,22.7,4.632,7.413-6.021c0,0-6.949,3.705,5.099-37.063c0,0,1.29-0.643,3.397-1.836
			l-3.995,35.072c0,0,2.194,8.295,16.599,10.989c6.189,1.147,4.714-2.449,3.831-4.592c0,0-12.516-5.117-10.833-13.699l11.297-39.385
			c8.719-7.193,17.4-16.798,19.547-27.783c28.282,6.033,45.568,19.895,62.305,22.751c-0.072,13.971-0.236,45.709-0.236,52.535
			c0,0,24.558,16.214,21.777,2.315c0,0-8.801,0-11.119-13.897c0,0,2.225-17.757,6.17-34.055c1.841,13.711,5.413,41.182,5.413,47.717
			c0,0,24.553,16.217,21.772,2.318c0,0-8.797,0-11.118-13.899c0,0-0.847-43.615,8.791-54.743c0.444-0.511,0.914-0.949,1.398-1.312
			c11.123-8.337,14.364-19.46,16.68-40.767C286.308,412.644,285.592,406.95,286.241,399.296z"/>
		<path fill="#FFFFFF" d="M319.661,363.999l-20.378-11.114c0,0,1.842-4.826-12.047-13.898c-1.596-1.045-1.388-1.858-1.388-1.858
			l-6.812-19.337l-9.724,18.758c0,0-14.95,21.093-22.573,37.829l41.736,12.575c1.164-4.036,2.832-8.106,5.251-11.831
			c0,0,21.46,5.919,26.403-9.272C320.733,363.999,319.661,363.999,319.661,363.999z"/>
	</g>
	<path fill="#FFFFFF" d="M485.569,421.412c-1.174-1.641-1.19-4.294-1.195-4.381c-1.436-9.331-11.286-15.645-12.904-16.624
		c0.127-6.08-4.442-12.641-4.639-12.92l-0.16-0.227l-0.27,0.067c-1.735,0.436-4.127,3.806-5.125,5.319
		c-1.199-2.129-5.408-4.916-5.945-5.266l-0.236-0.154l-0.227,0.169c-6.831,5.121-8.998,19.973-9.251,21.873
		c-3.792,2.805-4.553,14.143-4.576,14.575c-1.712,8.31-15.212,14.595-15.419,14.698c-3.419,2.525-12.353,3.86-25.837,3.86
		c-10.593,0-20.501-0.829-21.311-0.898c-2.995-1.089-5.93-1.642-8.723-1.642c-6.044,0-10.32,2.506-12.945,4.758
		c-6.005-13.451-3.209-27.784,6.743-34.237c3.564-2.312,7.925-3.535,12.611-3.535c8.237,0,16.642,3.8,22.472,10.149
		c0.676,0.802,1.282,1.235,1.91,1.364c1.308,0.257,2.305-1.121,2.305-2.35c0-0.895-0.458-1.396-1.109-1.994
		c-7.638-8.564-18.063-13.677-27.888-13.677c-5.152,0-10.053,1.411-14.168,4.083c-13.195,8.559-16.1,28.623-6.651,45.748
		c-1.54,3.769-2.271,7.493-2.18,11.085l-0.074-0.056l-0.131,0.622c-0.069,0.329-0.039,0.627,0.004,1.041
		c0.201,1.927,0.733,7.046-6.835,32.604c-0.816,2.767-2.313,16.616-2.444,17.856c-2.899,6.143,4.715,12.504,5.104,12.814
		c2.515,1.38,4.612,2.078,6.234,2.078c1.72,0,2.941-0.813,3.439-2.288c0.885-2.624-0.646-7.027-3.167-8.937
		c-1.254-0.579-1.987-1.419-2.244-2.566c-0.841-3.773,3.855-9.41,3.904-9.467l0.078-0.146c3.166-10.874,13.258-15.384,13.358-15.429
		l0.117-0.051l0.065-0.108c1.239-2.018,3.431-3.245,6.518-3.654c4.475,6.119-0.998,11.767-1.254,12.025
		c-6.202,7.119-2.729,12.425-1.245,14.688c0.188,0.286,0.34,0.519,0.429,0.694c0.771,1.543,8.578,11.306,8.911,11.721l0.085,0.08
		c3.354,2.322,10.314,2.35,10.61,2.35l0.189-0.048c1.761-0.935,2.679-2.078,2.728-3.398c0.103-2.706-3.561-5.05-3.717-5.148
		l-0.104-0.047c-3.341-0.952-6.937-7.34-6.993-7.435c-2.463-3.588,0.677-7.372,1.069-7.819c3.836-2.469,7.596-10.852,9.104-14.523
		c0.388-0.144,1.213-0.292,2.97-0.292c5.521,0,15.604,1.47,15.644,1.47c2.682,0.865,5.416,1.461,8.129,1.771
		c1.398,8.096,2.853,15.708,4.051,17.063c1.763,1.991,3.364,11.532,3.53,12.544c-0.341,1.375,0.274,5.545,0.348,6.027l0.022,0.151
		l0.117,0.098c2.063,1.729,5.171,2.092,7.417,2.092c1.926,0,3.371-0.259,3.408-0.265c2.522-0.305,4.006-1.471,3.969-3.12
		c-0.041-1.792-2.062-3.873-5.265-4.16c-0.65-0.596-1.219-3.411-1.438-5.366c-2.56-8.458-0.703-21.658,0.267-27.188
		c0.469,0.784,1.549,2.884,2.771,5.258c4.471,8.69,8.623,16.574,10.323,17.595c2.282,1.37,6.684,9.984,7.146,10.898
		c0.09,1.38,1.917,3.469,2.13,3.707l0.146,0.106c1.573,0.645,3.565,0.974,5.923,0.974c2.686,0,4.853-0.427,5.03-0.473
		c1.354-0.616,2.053-1.42,2.075-2.393c0.063-2.566-4.794-5.138-5.325-5.41c-1.183-0.71-3.152-3.41-3.166-3.429
		c-6.448-9.421-8.272-28.733-8.31-29.022c-2.078-6.003,5.302-11.956,5.903-12.429c12.782-5.445,4.585-31.282,4.229-32.376
		c-0.61-1.969-0.493-3.63,0.349-4.938c1.555-2.416,5.104-2.895,5.13-2.896c5.075-0.51,8.349-1.996,8.483-2.058
		c3.083-1.41,4.998-3.282,5.688-5.562C487.194,424.1,485.651,421.543,485.569,421.412z"/>
</g>
</svg>
