<?xml version="1.0" encoding="utf-8"?>
<!-- Generator: Adobe Illustrator 15.0.0, SVG Export Plug-In . SVG Version: 6.00 Build 0)  -->
<!DOCTYPE svg PUBLIC "-//W3C//DTD SVG 1.1//EN" "http://www.w3.org/Graphics/SVG/1.1/DTD/svg11.dtd">
<svg version="1.1" xmlns="http://www.w3.org/2000/svg" xmlns:xlink="http://www.w3.org/1999/xlink" x="0px" y="0px" width="580px"
	 height="580px" viewBox="0 0 580 580" enable-background="new 0 0 580 580" xml:space="preserve">
<g id="Layer_1">
	<g id="Layer_1_1_">
		<g id="Layer_2">
			<g id="g1327">
				<path id="path1329" fill="#111111" stroke="#EEEEEE" stroke-width="3.408" d="M66.275,1.768
					c-41.335,0-64.571,21.371-64.571,65.036v450.123c0,40.844,20.895,62.229,62.192,62.229H515.92
					c41.307,0,62.229-20.315,62.229-62.229V66.804c0-42.601-20.925-65.036-63.521-65.036C514.624,1.768,66.133,1.625,66.275,1.768z"
					/>
			</g>
		</g>
	</g>
</g>
<g id="Layer_2_1_">
	<g>
		<g>
			<polygon fill="#FFFFFF" points="537.688,201.338 285.395,85.947 42.734,201.24 29.002,172.336 285.139,50.641 550.998,172.238 
							"/>
		</g>
		<g>
			<g>
				<rect x="51.512" y="206.025" fill="#FFFFFF" width="15" height="323.334"/>
			</g>
			<g>
				<rect x="513.488" y="206.025" fill="#FFFFFF" width="15" height="323.334"/>
			</g>
		</g>
	</g>
	<g>
		<path fill="#FFFFFF" d="M234.375,275.604V136.446h28.097v54.771h55.056v-54.771h28.097v139.158h-28.097v-60.846h-55.056v60.846
			H234.375z"/>
	</g>
	<g>
		<path fill="#FFFFFF" d="M411.523,347.658l-62.761-18.945c-4.306,5.838-12.653,13.388-27.751,14.94c0,0-78.315,3.228-90.603,5.822
			c0,0-19.224-1.004-34.557,11.044c-2.915,0.361-31.085,4.772-54.065,38.789c0,0-16.515,22.329-33.017,21.355
			c0,0,27.18,7.77,60.188-27.173c0,0,4.925-12.573,15.575-19.673c-3.051,5.473-5.424,12.103-6.55,20.313
			c0,0-11.647,102.265-15.532,107.436c0,0-6.474,24.59,5.823,25.889c0,0,31.712,6.471,10.355-8.411c0,0-9.708,5.176,7.123-51.776
			c0,0,1.802-0.898,4.746-2.565l-5.582,48.997c0,0,3.065,11.588,23.188,15.352c8.646,1.604,6.586-3.421,5.352-6.414
			c0,0-17.485-7.149-15.133-19.139l15.782-55.021c12.181-10.05,24.308-23.468,27.307-38.814
			c39.51,8.429,63.661,27.793,87.042,31.784c-0.1,19.517-0.33,63.855-0.33,73.393c0,0,34.308,22.65,30.423,3.234
			c0,0-12.294,0-15.532-19.415c0,0,3.108-24.807,8.619-47.575c2.571,19.154,7.563,57.531,7.563,66.661c0,0,34.3,22.655,30.415,3.239
			c0,0-12.29,0-15.532-19.418c0,0-1.183-60.932,12.281-76.478c0.62-0.713,1.276-1.325,1.953-1.832
			c15.539-11.646,20.066-27.186,23.302-56.951C411.616,366.306,410.617,358.352,411.523,347.658z"/>
		<path fill="#FFFFFF" d="M458.212,298.349l-28.469-15.527c0,0,2.573-6.742-16.83-19.416c-2.229-1.46-1.939-2.596-1.939-2.596
			l-9.516-27.014L387.873,260c0,0-20.886,29.467-31.534,52.848l58.307,17.568c1.625-5.639,3.956-11.325,7.335-16.528
			c0,0,29.98,8.269,36.887-12.954C459.71,298.349,458.212,298.349,458.212,298.349z"/>
	</g>
</g>
</svg>
