<?xml version="1.0" encoding="UTF-8" standalone="no"?>
<!-- Generator: Adobe Illustrator 15.0.0, SVG Export Plug-In . SVG Version: 6.00 Build 0)  -->

<svg
   version="1.1"
   x="0px"
   y="0px"
   width="580px"
   height="580px"
   viewBox="0 0 580 580"
   enable-background="new 0 0 580 580"
   xml:space="preserve"
   id="svg7"
   sodipodi:docname="animal_training.svg"
   inkscape:version="1.4 (86a8ad7, 2024-10-11)"
   xmlns:inkscape="http://www.inkscape.org/namespaces/inkscape"
   xmlns:sodipodi="http://sodipodi.sourceforge.net/DTD/sodipodi-0.dtd"
   xmlns:xlink="http://www.w3.org/1999/xlink"
   xmlns="http://www.w3.org/2000/svg"
   xmlns:svg="http://www.w3.org/2000/svg"><defs
   id="defs7"><linearGradient
   id="swatch9"
   inkscape:swatch="solid"><stop
     style="stop-color:#000000;stop-opacity:1;"
     offset="0"
     id="stop9" /></linearGradient><linearGradient
   id="swatch8"
   inkscape:swatch="solid"><stop
     style="stop-color:#000000;stop-opacity:1;"
     offset="0"
     id="stop8" /></linearGradient>
	
	
	
<linearGradient
   inkscape:collect="always"
   xlink:href="#swatch9"
   id="linearGradient9"
   x1="270"
   y1="236.1775"
   x2="607.75267"
   y2="236.1775"
   gradientUnits="userSpaceOnUse" /><linearGradient
   inkscape:collect="always"
   xlink:href="#swatch9"
   id="linearGradient10"
   gradientUnits="userSpaceOnUse"
   x1="270"
   y1="236.1775"
   x2="607.75267"
   y2="236.1775" /><linearGradient
   inkscape:collect="always"
   xlink:href="#swatch9"
   id="linearGradient11"
   gradientUnits="userSpaceOnUse"
   x1="270"
   y1="236.1775"
   x2="607.75267"
   y2="236.1775" /><linearGradient
   inkscape:collect="always"
   xlink:href="#swatch8"
   id="linearGradient12"
   gradientUnits="userSpaceOnUse"
   x1="108.769"
   y1="381.5783"
   x2="459.12482"
   y2="381.5783" /><linearGradient
   inkscape:collect="always"
   xlink:href="#swatch8"
   id="linearGradient13"
   gradientUnits="userSpaceOnUse"
   x1="108.769"
   y1="381.5783"
   x2="459.12482"
   y2="381.5783" /><linearGradient
   inkscape:collect="always"
   xlink:href="#swatch8"
   id="linearGradient15"
   gradientUnits="userSpaceOnUse"
   x1="108.769"
   y1="381.5783"
   x2="459.12482"
   y2="381.5783" /></defs><sodipodi:namedview
   id="namedview7"
   pagecolor="#ffffff"
   bordercolor="#666666"
   borderopacity="1.0"
   inkscape:showpageshadow="2"
   inkscape:pageopacity="0.0"
   inkscape:pagecheckerboard="0"
   inkscape:deskcolor="#d1d1d1"
   inkscape:zoom="1.5568966"
   inkscape:cx="290"
   inkscape:cy="290"
   inkscape:window-width="1920"
   inkscape:window-height="1147"
   inkscape:window-x="-8"
   inkscape:window-y="-8"
   inkscape:window-maximized="1"
   inkscape:current-layer="svg7" />
<g
   id="Layer_1">
	<g
   id="Layer_1_1_">
		<g
   id="Layer_2">
			<g
   id="g1327">
				<path
   id="path1329"
   fill="#111111"
   stroke="#EEEEEE"
   stroke-width="3.408"
   d="M66.275,1.768      c-41.335,0-64.571,21.371-64.571,65.036v450.123c0,40.844,20.895,62.229,62.192,62.229H515.92      c41.307,0,62.229-20.315,62.229-62.229V66.804c0-42.601-20.925-65.036-63.521-65.036C514.624,1.768,66.133,1.625,66.275,1.768z" />
			</g>
		</g>
	</g>
</g>

<g
   id="g14"
   transform="translate(-23.122924,7.0653378)"><g
     id="g7"
     transform="matrix(-1,0,0,1,548.62471,-33.399778)"
     style="stroke:url(#linearGradient15);stroke-width:0;stroke-dasharray:none">
		<path
   fill="#ffffff"
   d="m 411.523,347.658 -62.761,-18.945 c -4.306,5.838 -12.653,13.388 -27.751,14.94 0,0 -78.315,3.228 -90.603,5.822 0,0 -19.224,-1.004 -34.557,11.044 -2.915,0.361 -31.085,4.772 -54.065,38.789 0,0 -16.515,22.329 -33.017,21.355 0,0 27.18,7.77 60.188,-27.173 0,0 4.925,-12.573 15.575,-19.673 -3.051,5.473 -5.424,12.103 -6.55,20.313 0,0 -11.647,102.265 -15.532,107.436 0,0 -6.474,24.59 5.823,25.889 0,0 31.712,6.471 10.355,-8.411 0,0 -9.708,5.176 7.123,-51.776 0,0 1.802,-0.898 4.746,-2.565 l -5.582,48.997 c 0,0 3.065,11.588 23.188,15.352 8.646,1.604 6.586,-3.421 5.352,-6.414 0,0 -17.485,-7.149 -15.133,-19.139 l 15.782,-55.021 c 12.181,-10.05 24.308,-23.468 27.307,-38.814 39.51,8.429 63.661,27.793 87.042,31.784 -0.1,19.517 -0.33,63.855 -0.33,73.393 0,0 34.308,22.65 30.423,3.234 0,0 -12.294,0 -15.532,-19.415 0,0 3.108,-24.807 8.619,-47.575 2.571,19.154 7.563,57.531 7.563,66.661 0,0 34.3,22.655 30.415,3.239 0,0 -12.29,0 -15.532,-19.418 0,0 -1.183,-60.932 12.281,-76.478 0.62,-0.713 1.276,-1.325 1.953,-1.832 15.539,-11.646 20.066,-27.186 23.302,-56.951 10e-4,0 -0.998,-7.954 -0.092,-18.648 z"
   id="path6"
   style="stroke:url(#linearGradient12);stroke-width:0;stroke-dasharray:none" />
		<path
   fill="#ffffff"
   d="m 458.212,298.349 -28.469,-15.527 c 0,0 2.573,-6.742 -16.83,-19.416 -2.229,-1.46 -1.939,-2.596 -1.939,-2.596 L 401.458,233.796 387.873,260 c 0,0 -20.886,29.467 -31.534,52.848 l 58.307,17.568 c 1.625,-5.639 3.956,-11.325 7.335,-16.528 0,0 29.98,8.269 36.887,-12.954 0.842,-2.585 -0.656,-2.585 -0.656,-2.585 z"
   id="path7"
   style="stroke:url(#linearGradient13);stroke-width:0;stroke-dasharray:none" />
	</g><g
     id="g8"
     transform="translate(-55.238094,53.311185)"
     style="stroke:url(#linearGradient9);stroke-width:2.6;stroke-dasharray:none"><path
       id="path5681"
       fill="#ffffff"
       d="m 471.411,59.009 c 0,23.752 -19.254,43.009 -43.009,43.009 -23.754,0 -43.008,-19.257 -43.008,-43.009 0,-23.754 19.254,-43.009 43.008,-43.009 23.755,0.001 43.009,19.255 43.009,43.009 z"
       style="stroke:url(#linearGradient10);stroke-width:2.6;stroke-dasharray:none" /><path
       id="path5677"
       fill="#ffffff"
       d="m 270,191.067 c 11.597,-3.624 129.02,-76.107 129.02,-76.107 27.41,15.332 50.494,4.103 73.207,-9.424 l 73.209,23.196 38.415,75.381 c -15.074,7.968 -29.824,5.947 -44.216,-7.248 l -19.57,-39.14 -40.589,-13.772 10.146,94.227 32.617,79.007 73.209,31.894 c 18.195,20.449 11.389,30.637 9.422,44.214 l -108,-43.489 c -5.657,-1.058 -7.74,-7.474 -10.873,-12.322 l -34.065,-79.73 -36.241,176.857 -40.59,21.744 34.79,-201.503 -9.422,-95.677 -90.604,50.014 c -23.391,3.62 -31.84,-7.048 -39.865,-18.122 z"
       style="stroke:url(#linearGradient11);stroke-width:2.6;stroke-dasharray:none" /></g></g></svg>
