<?xml version="1.0" encoding="UTF-8" standalone="no"?>
<!-- Generator: Adobe Illustrator 15.0.0, SVG Export Plug-In . SVG Version: 6.00 Build 0)  -->

<svg
   xmlns:dc="http://purl.org/dc/elements/1.1/"
   xmlns:cc="http://creativecommons.org/ns#"
   xmlns:rdf="http://www.w3.org/1999/02/22-rdf-syntax-ns#"
   xmlns:svg="http://www.w3.org/2000/svg"
   xmlns="http://www.w3.org/2000/svg"
   xmlns:sodipodi="http://sodipodi.sourceforge.net/DTD/sodipodi-0.dtd"
   xmlns:inkscape="http://www.inkscape.org/namespaces/inkscape"
   version="1.1"
   x="0px"
   y="0px"
   width="580px"
   height="580px"
   viewBox="0 0 580 580"
   enable-background="new 0 0 580 580"
   xml:space="preserve"
   id="svg4586"
   sodipodi:docname="animal.svg"
   inkscape:version="0.92.3 (2405546, 2018-03-11)"><metadata
   id="metadata4592"><rdf:RDF><cc:Work
       rdf:about=""><dc:format>image/svg+xml</dc:format><dc:type
         rdf:resource="http://purl.org/dc/dcmitype/StillImage" /><dc:title></dc:title></cc:Work></rdf:RDF></metadata><defs
   id="defs4590">
	
	
	
</defs><sodipodi:namedview
   pagecolor="#ffffff"
   bordercolor="#666666"
   borderopacity="1"
   objecttolerance="10"
   gridtolerance="10"
   guidetolerance="10"
   inkscape:pageopacity="0"
   inkscape:pageshadow="2"
   inkscape:window-width="1082"
   inkscape:window-height="784"
   id="namedview4588"
   showgrid="false"
   inkscape:zoom="0.9"
   inkscape:cx="290"
   inkscape:cy="290"
   inkscape:window-x="52"
   inkscape:window-y="52"
   inkscape:window-maximized="0"
   inkscape:current-layer="svg4586" />
<g
   id="Layer_1">
	<g
   id="Layer_1_1_">
		<g
   id="Layer_2">
			<g
   id="g1327">
				<path
   id="path1329"
   fill="#111111"
   stroke="#EEEEEE"
   stroke-width="3.408"
   d="M66.275,1.768      c-41.335,0-64.571,21.371-64.571,65.036v450.123c0,40.844,20.895,62.229,62.192,62.229H515.92      c41.307,0,62.229-20.315,62.229-62.229V66.804c0-42.601-20.925-65.036-63.521-65.036C514.624,1.768,66.133,1.625,66.275,1.768z" />
			</g>
		</g>
	</g>
</g>
<g
   id="g4581"
   transform="matrix(1.2481073,0,0,1.3256164,-52.805464,-366.81163)">
		<path
   style="fill:#ffffff"
   inkscape:connector-curvature="0"
   id="path4577"
   d="m 286.241,399.296 -44.925,-13.562 c -3.082,4.179 -9.057,9.583 -19.864,10.694 0,0 -56.059,2.311 -64.855,4.168 0,0 -13.761,-0.719 -24.736,7.905 -2.087,0.259 -22.251,3.416 -38.701,27.766 0,0 -11.822,15.983 -23.634,15.286 0,0 19.456,5.562 43.083,-19.45 0,0 3.525,-9 11.149,-14.082 -2.184,3.917 -3.882,8.663 -4.688,14.54 0,0 -8.337,73.202 -11.118,76.903 0,0 -4.634,17.602 4.168,18.531 0,0 22.7,4.632 7.413,-6.021 0,0 -6.949,3.705 5.099,-37.063 0,0 1.29,-0.643 3.397,-1.836 l -3.995,35.072 c 0,0 2.194,8.295 16.599,10.989 6.189,1.147 4.714,-2.449 3.831,-4.592 0,0 -12.516,-5.117 -10.833,-13.699 l 11.297,-39.385 c 8.719,-7.193 17.4,-16.798 19.547,-27.783 28.282,6.033 45.568,19.895 62.305,22.751 -0.072,13.971 -0.236,45.709 -0.236,52.535 0,0 24.558,16.214 21.777,2.315 0,0 -8.801,0 -11.119,-13.897 0,0 2.225,-17.757 6.17,-34.055 1.841,13.711 5.413,41.182 5.413,47.717 0,0 24.553,16.217 21.772,2.318 0,0 -8.797,0 -11.118,-13.899 0,0 -0.847,-43.615 8.791,-54.743 0.444,-0.511 0.914,-0.949 1.398,-1.312 11.123,-8.337 14.364,-19.46 16.68,-40.767 0,0.004 -0.716,-5.69 -0.067,-13.344 z" />
		<path
   style="fill:#ffffff"
   inkscape:connector-curvature="0"
   id="path4579"
   d="m 319.661,363.999 -20.378,-11.114 c 0,0 1.842,-4.826 -12.047,-13.898 -1.596,-1.045 -1.388,-1.858 -1.388,-1.858 l -6.812,-19.337 -9.724,18.758 c 0,0 -14.95,21.093 -22.573,37.829 l 41.736,12.575 c 1.164,-4.036 2.832,-8.106 5.251,-11.831 0,0 21.46,5.919 26.403,-9.272 0.604,-1.852 -0.468,-1.852 -0.468,-1.852 z" />
	</g><path
   style="fill:#ffffff;stroke-width:1.53061438"
   inkscape:connector-curvature="0"
   id="path4583"
   d="m 521.65623,360.1717 c -1.8537,-2.43483 -1.87896,-6.37122 -1.88685,-6.50031 -2.26739,-13.84487 -17.82014,-23.21327 -20.37489,-24.66586 0.20053,-9.0212 -7.01374,-18.75608 -7.32479,-19.17005 l -0.25264,-0.33681 -0.42632,0.0994 c -2.73949,0.64692 -6.51636,5.64716 -8.09216,7.89207 -1.89317,-3.1589 -8.53901,-7.29411 -9.38691,-7.81343 l -0.37264,-0.22849 -0.35842,0.25075 c -10.78587,7.59828 -14.20748,29.63494 -14.60695,32.45406 -5.98742,4.16192 -7.189,20.98468 -7.22532,21.62566 -2.70318,12.32996 -24.01913,21.65533 -24.34597,21.80815 -5.39846,3.74647 -19.50488,5.72728 -40.79557,5.72728 -16.72591,0 -32.37024,-1.23003 -33.6492,-1.33241 -4.72898,-1.6158 -9.36323,-2.43632 -13.77326,-2.43632 -9.54323,0 -16.29486,3.71828 -20.43962,7.05968 -9.48165,-19.95792 -5.06688,-41.2245 10.64692,-50.79914 5.62741,-3.43043 12.51325,-5.24506 19.91225,-5.24506 13.00589,0 26.27704,5.63825 35.48237,15.05858 1.06738,1.18997 2.02423,1.83243 3.01581,2.02384 2.06528,0.38132 3.6395,-1.66329 3.6395,-3.48682 0,-1.32795 -0.72316,-2.07131 -1.75106,-2.95859 -12.06009,-12.70684 -28.52074,-20.29325 -44.03401,-20.29325 -8.1348,0 -15.87328,2.09357 -22.3707,6.05815 -20.83436,12.69941 -25.42124,42.46937 -10.50165,67.87859 -2.4316,5.59225 -3.58582,11.11774 -3.44214,16.44737 l -0.11684,-0.0831 -0.20684,0.92289 c -0.10895,0.48815 -0.0616,0.93031 0.006,1.54458 0.31737,2.85919 1.15738,10.45451 -10.79218,48.37619 -1.28843,4.10553 -3.65213,24.65398 -3.85898,26.49383 -4.5774,9.11468 7.44479,18.55281 8.05901,19.01277 3.97108,2.04758 7.28216,3.08324 9.84323,3.08324 2.71581,0 4.64372,-1.20629 5.43004,-3.39482 1.39738,-3.89336 -1.02001,-10.42631 -5.00056,-13.26028 -1.98002,-0.85909 -3.13739,-2.10544 -3.54319,-3.8073 -1.3279,-5.59819 6.08689,-13.96208 6.16426,-14.04666 l 0.12316,-0.21663 c 4.99898,-16.13429 20.93384,-22.826 21.09173,-22.89277 l 0.18474,-0.0757 0.10264,-0.16025 c 1.95633,-2.99421 5.4174,-4.81477 10.29165,-5.42162 7.06584,9.07906 -1.5758,17.45928 -1.98001,17.84209 -9.79271,10.56282 -4.30898,18.43559 -1.96581,21.79332 0.29685,0.42435 0.53685,0.77007 0.67738,1.02972 1.21737,2.28943 13.54431,16.77528 14.0701,17.39103 l 0.13421,0.1187 c 5.29583,3.44527 16.28539,3.48682 16.75276,3.48682 l 0.29842,-0.0712 c 2.78055,-1.38731 4.23003,-3.08324 4.3074,-5.04178 0.16264,-4.01503 -5.62267,-7.49294 -5.86899,-7.63835 l -0.16421,-0.0697 c -5.2753,-1.41253 -10.95324,-10.89072 -11.04166,-11.03168 -3.88898,-5.32369 1.06895,-10.9382 1.68791,-11.60144 6.05688,-3.66338 11.99377,-16.10165 14.37484,-21.5485 0.61264,-0.21366 1.91528,-0.43325 4.68951,-0.43325 8.71743,0 24.63808,2.18111 24.70124,2.18111 4.23476,1.28344 8.55164,2.16776 12.83535,2.62772 2.20739,12.01244 4.50477,23.30675 6.39637,25.31723 2.7837,2.95414 5.31162,17.1106 5.57372,18.61216 -0.53842,2.04015 0.43264,8.22739 0.54948,8.94256 l 0.0347,0.22404 0.18474,0.14541 c 3.25739,2.5654 8.16479,3.104 11.71114,3.104 3.04107,0 5.32267,-0.38429 5.38109,-0.39319 3.98213,-0.45254 6.32531,-2.1826 6.26689,-4.6293 -0.0647,-2.65888 -3.25582,-5.74656 -8.31322,-6.1724 -1.02633,-0.88431 -1.92475,-5.06107 -2.27055,-7.9618 -4.04213,-12.54956 -1.11,-32.13506 0.42159,-40.34019 0.74053,1.16326 2.4458,4.27913 4.37529,7.80155 7.05953,12.89379 13.61537,24.59167 16.2996,26.10658 3.60318,2.03274 10.55376,14.81376 11.28324,16.16991 0.14211,2.04757 3.02686,5.14713 3.36318,5.50026 l 0.23053,0.15728 c 2.4837,0.95702 5.62899,1.44517 9.35218,1.44517 4.24108,0 7.66268,-0.63356 7.94216,-0.70181 2.13791,-0.91399 3.2416,-2.10693 3.27634,-3.55062 0.0995,-3.8073 -7.56953,-7.6235 -8.40796,-8.02708 -1.86791,-1.05347 -4.97688,-5.05959 -4.99898,-5.08778 -10.18113,-13.97841 -13.06115,-42.63259 -13.12115,-43.06139 -3.28108,-8.90695 8.37164,-17.73972 9.32059,-18.44153 20.18226,-8.07902 7.23953,-46.41466 6.67742,-48.03789 -0.96316,-2.9215 -0.77842,-5.38601 0.55106,-7.32675 2.45528,-3.58474 8.05901,-4.29546 8.10006,-4.29694 8.01322,-0.75672 13.18273,-2.96157 13.39431,-3.05356 4.86793,-2.09209 7.89164,-4.86967 8.98112,-8.25262 1.43843,-4.42899 -0.9979,-8.22294 -1.12738,-8.41731 z" />
</svg>