<?xml version="1.0" encoding="utf-8"?>
<!-- Generator: Adobe Illustrator 15.0.0, SVG Export Plug-In . SVG Version: 6.00 Build 0)  -->
<!DOCTYPE svg PUBLIC "-//W3C//DTD SVG 1.1//EN" "http://www.w3.org/Graphics/SVG/1.1/DTD/svg11.dtd">
<svg version="1.1" xmlns="http://www.w3.org/2000/svg" xmlns:xlink="http://www.w3.org/1999/xlink" x="0px" y="0px" width="580px"
	 height="580px" viewBox="0 0 580 580" enable-background="new 0 0 580 580" xml:space="preserve">
<g id="Layer_2">
	<g id="g1327">
		<path id="path1329" fill="#111111" stroke="#EEEEEE" stroke-width="3.408" d="M66.275,1.768
			c-41.335,0-64.571,21.371-64.571,65.036v450.123c0,40.844,20.894,62.229,62.192,62.229H515.92
			c41.307,0,62.229-20.316,62.229-62.229V66.804c0-42.601-20.923-65.036-63.522-65.036C514.624,1.768,66.133,1.625,66.275,1.768z"/>
	</g>
</g>
<g id="svg2" inkscape:version="0.46" sodipodi:docname="waste_bin.svg" sodipodi:version="0.32" xmlns:dc="http://purl.org/dc/elements/1.1/" xmlns:cc="http://creativecommons.org/ns#" xmlns:sodipodi="http://sodipodi.sourceforge.net/DTD/sodipodi-0.dtd" xmlns:svg="http://www.w3.org/2000/svg" xmlns:rdf="http://www.w3.org/1999/02/22-rdf-syntax-ns#" xmlns:inkscape="http://www.inkscape.org/namespaces/inkscape" inkscape:output_extension="org.inkscape.output.svg.inkscape">
	<g>
		<path fill="#FFFFFF" d="M383.473,227.341c-6.883,0.86-18.927,2.582-41.297-12.045c-40.901-26.741,13.766-44.738,13.766-44.738
			c86.609-47.033-50.762-86.896-50.762-86.896s-118.729-19.788-204.764,39.577C14.38,182.603,10.08,330.583,135.69,396.83
			c125.612,66.246,258.967-30.974,286.497-92.918C449.72,241.967,390.355,226.48,383.473,227.341z M110.574,297.951
			c-0.508-0.467-1.114-0.971-1.783-1.504c-1.563,2.467-3.373,4.418-5.442,5.453c-3.52,4-8.167,6.873-13.697,6.529
			c-15.633-0.973-19.47-14.648-18.751-28.579c-1.115-1.667-1.909-3.231-2.235-4.538c-1.011-4.052,0.734-7.367,3.955-9.716
			c0.16-0.117,0.332-0.229,0.499-0.343c0.766-3.118,1.653-5.971,2.55-8.368c2.449-6.548,9.619-7.819,13.969-3.902
			c1.852-1.649,3.681-3.323,5.45-5.057c4.396-4.31,13.007-2.695,14.38,3.797c0.783,3.704,1.483,7.541,1.981,11.427
			c0.377,0.186,0.75,0.374,1.105,0.571c3.794,2.1,4.77,5.596,3.937,8.83c-0.264,1.92-0.715,4.444-1.368,7.225
			c2.694,1.929,5.301,3.886,7.618,6.006C130.946,293.287,118.743,305.422,110.574,297.951z M125.71,193.705
			c-10.063,3.64-20.4,1.724-30.163-1.947c-6.381-2.399-7.758-8.882-4.168-13.599c-0.331-0.058-0.662-0.106-0.994-0.167
			c-7.61-1.398-8.036-12.174-2.055-15.725c5.341-3.172,11.029-4.784,16.876-5.723c-2.019-1.931-2.667-5.512-1.902-8.063
			c2.862-9.544,14.661-8.289,22.008-5.531c1.341,0.503,2.601,1.097,3.786,1.761c2.255-4.579,9.028-7.667,14.396-3.468
			c4.707,3.683,10.994,5.112,15.199,9.509c5.567,5.821,7.061,12.885,7.97,20.665c0.546,4.679-4.329,8.59-8.604,8.603
			c-2.859,0.009-5.725,0.049-8.595,0.104c-0.262,0.156-0.535,0.304-0.829,0.443C140.641,184.343,134.075,190.678,125.71,193.705z
			 M197.72,400.271c-14.702-1.501-31.15-4.832-39.602-18.357c-7.018-11.23-7.791-25.135-9.99-37.86
			c-1.858-10.749,14.387-15.395,16.526-4.866c2.214-1.944,4.53-3.441,6.537-4.164c2.721-0.979,6.457,0.099,8.371,2.212
			c7.522,8.303,15.611,15.203,19.679,25.982c3.177,8.418,4.214,17.544,6.776,26.164C207.493,394.351,203.301,400.841,197.72,400.271
			z M226.262,139.773c-0.976-1.82-1.622-3.849-2.274-5.804c-0.131-0.393-1.21-3.005-1.322-3.512
			c-0.581-1.109-0.939-2.369-0.939-3.778c0-7.617,5.766-15.924,12.669-19.697c3.224-1.763,7.862-1.605,10.426,1.345
			c-1.519-1.749,0.411-1.031,2.52-0.01c1.69-0.055,3.459,0.238,5.246,0.789c10.234-2.518,22.033,0.771,21.214,12.24
			c0.605,0.173,1.211,0.34,1.832,0.478c7.845,1.734,7.596,10.906,2.759,14.93c0.332,0.356,0.672,0.708,1.038,1.048
			c6.405,5.962-0.241,16.625-8.371,14.379c-12.335-3.407-24.061-6.96-36.829-8.241C231.093,144.125,227.857,142.75,226.262,139.773z
			 M286.171,350.777c-1.447,4.199-2.699,9.363-4.868,13.658c0.173,0.172,0.356,0.33,0.53,0.501
			c6.948,6.852-1.602,17.064-9.139,14.161c-0.384,0.491-0.773,0.978-1.186,1.446c-1.862,2.118-5.695,3.205-8.37,2.212
			c-7.72-2.858-14.674-7.474-22.369-10.323c-8.801-3.259-7.899-16.896,2.287-16.899c1.702,0,3.521,0.064,5.4,0.145
			c-0.34-0.664-0.637-1.338-0.893-2.02c-0.686-0.297-1.35-0.625-1.966-1.021c-8.52-5.463-2.016-18.399,6.333-15.94
			c7.049-6.478,19.413-9.403,27.4-11.554c0.382-0.175,0.764-0.352,1.18-0.492c5.11-1.733,11.229,2.89,10.89,8.295
			C291.026,338.952,288.109,345.168,286.171,350.777z M354.22,328.002c-17.106,0-30.973-13.867-30.973-30.973
			s13.866-30.972,30.973-30.972s30.974,13.867,30.974,30.972S371.326,328.002,354.22,328.002z"/>
		<path fill="#FFFFFF" d="M467.979,416.543l73.519-291.061c1.072-4.246-1.499-8.557-5.746-9.629l-3.294-0.833
			c-4.247-1.072-8.558,1.5-9.629,5.746l-73.521,291.06c-1.07,4.243,1.496,8.549,5.735,9.628l-7.676-1.939
			c0,0-50.983,18.667-27.208,70.237c23.776,51.568-9.709,38.438-9.709,38.438s73.639,41.968,55.586-103.959l-7.679-1.938
			C462.603,423.357,466.908,420.786,467.979,416.543z"/>
	</g>
</g>
</svg>
