<?xml version="1.0" encoding="utf-8"?>
<!-- Generator: Adobe Illustrator 15.0.0, SVG Export Plug-In . SVG Version: 6.00 Build 0)  -->
<!DOCTYPE svg PUBLIC "-//W3C//DTD SVG 1.1//EN" "http://www.w3.org/Graphics/SVG/1.1/DTD/svg11.dtd">
<svg version="1.1" xmlns="http://www.w3.org/2000/svg" xmlns:xlink="http://www.w3.org/1999/xlink" x="0px" y="0px" width="580px"
	 height="580px" viewBox="0 0 580 580" enable-background="new 0 0 580 580" xml:space="preserve">
<g id="Layer_2">
	<g id="g1327">
		<path id="path1329" fill="#111111" stroke="#EEEEEE" stroke-width="3.408" d="M66.275,1.768
			c-41.335,0-64.571,21.371-64.571,65.036v450.123c0,40.844,20.894,62.229,62.192,62.229H515.92
			c41.307,0,62.229-20.316,62.229-62.229V66.804c0-42.601-20.923-65.036-63.522-65.036C514.624,1.768,66.133,1.625,66.275,1.768z"/>
	</g>
</g>
<g id="svg2" inkscape:output_extension="org.inkscape.output.svg.inkscape" sodipodi:version="0.32" sodipodi:docname="waste_bin.svg" inkscape:version="0.46" xmlns:dc="http://purl.org/dc/elements/1.1/" xmlns:cc="http://creativecommons.org/ns#" xmlns:rdf="http://www.w3.org/1999/02/22-rdf-syntax-ns#" xmlns:svg="http://www.w3.org/2000/svg" xmlns:sodipodi="http://sodipodi.sourceforge.net/DTD/sodipodi-0.dtd" xmlns:inkscape="http://www.inkscape.org/namespaces/inkscape">
	<g>
		<circle fill="#FFFFFF" cx="290" cy="224.075" r="46.596"/>
		<circle fill="#FFFFFF" cx="136.684" cy="168.958" r="46.596"/>
		<circle fill="#FFFFFF" cx="443.315" cy="168.958" r="46.596"/>
		<path fill="#FFFFFF" d="M483.399,231.749h-80.168c-21.028,0-38.077,17.047-38.077,38.077v40.263
			c-5.788-13.649-19.312-23.224-35.071-23.224h-80.167c-15.76,0-29.282,9.574-35.071,23.225v-40.264
			c0-21.03-17.047-38.077-38.077-38.077H96.6c-21.029,0-38.077,17.047-38.077,38.077v62.13c0,18.279,12.883,33.544,30.062,37.226
			v-86.327h9.019v119.667h78.161V282.855h9.019v86.327c12.23-2.622,22.279-11.117,27.055-22.388v40.279
			c0,18.278,12.883,33.543,30.062,37.225v-86.327h9.019v119.667h78.162V337.971h9.019v86.327
			c17.179-3.683,30.062-18.946,30.062-37.225v-40.278c4.777,11.271,14.825,19.766,27.055,22.387v-86.327h9.02v119.667h78.161
			V282.855h9.02v86.327c17.178-3.683,30.061-18.946,30.061-37.226v-62.13C521.477,248.796,504.43,231.749,483.399,231.749z"/>
	</g>
</g>
</svg>
