<?xml version="1.0" encoding="UTF-8" standalone="no"?>
<!-- Generator: Adobe Illustrator 15.0.0, SVG Export Plug-In . SVG Version: 6.00 Build 0)  -->

<svg
   xmlns:dc="http://purl.org/dc/elements/1.1/"
   xmlns:cc="http://creativecommons.org/ns#"
   xmlns:rdf="http://www.w3.org/1999/02/22-rdf-syntax-ns#"
   xmlns:svg="http://www.w3.org/2000/svg"
   xmlns="http://www.w3.org/2000/svg"
   xmlns:sodipodi="http://sodipodi.sourceforge.net/DTD/sodipodi-0.dtd"
   xmlns:inkscape="http://www.inkscape.org/namespaces/inkscape"
   version="1.1"
   x="0px"
   y="0px"
   width="580px"
   height="580px"
   viewBox="0 0 580 580"
   enable-background="new 0 0 580 580"
   xml:space="preserve"
   id="svg881"
   sodipodi:docname="bleachers.svg"
   inkscape:version="0.92.3 (2405546, 2018-03-11)"><metadata
   id="metadata887"><rdf:RDF><cc:Work
       rdf:about=""><dc:format>image/svg+xml</dc:format><dc:type
         rdf:resource="http://purl.org/dc/dcmitype/StillImage" /><dc:title></dc:title></cc:Work></rdf:RDF></metadata><defs
   id="defs885" /><sodipodi:namedview
   pagecolor="#ffffff"
   bordercolor="#666666"
   borderopacity="1"
   objecttolerance="10"
   gridtolerance="10"
   guidetolerance="10"
   inkscape:pageopacity="0"
   inkscape:pageshadow="2"
   inkscape:window-width="1387"
   inkscape:window-height="981"
   id="namedview883"
   showgrid="false"
   inkscape:zoom="1.2316035"
   inkscape:cx="290"
   inkscape:cy="290"
   inkscape:window-x="383"
   inkscape:window-y="81"
   inkscape:window-maximized="0"
   inkscape:current-layer="svg881" />
<g
   id="Layer_2"
   transform="translate(0.81194959,-0.5683013)">
	<g
   id="g1327">
		<path
   id="path1329"
   d="M 66.275,1.768 C 24.94,1.768 1.704,23.139 1.704,66.804 v 450.123 c 0,40.844 20.894,62.229 62.192,62.229 H 515.92 c 41.307,0 62.229,-20.316 62.229,-62.229 V 66.804 c 0,-42.601 -20.923,-65.036 -63.522,-65.036 -0.003,0 -448.494,-0.143 -448.352,0 z"
   inkscape:connector-curvature="0"
   style="fill:#111111;stroke:#eeeeee;stroke-width:3.40799999" />
	</g>
</g>

<path
   inkscape:connector-curvature="0"
   d="m 504.31885,84.653835 c 0,0 0,416.083475 0,416.083475 H 102.58309 c -7.173846,0 -7.173846,-28.69542 0,-28.69542 h 57.39082 c 0,0 0,-129.12935 0,-129.12935 0,-7.17384 28.69542,-7.17384 28.69542,0 0,0 0,115.44163 0,115.44163 l 100.43394,-47.95003 c 0,0 0,-124.88242 0,-124.88242 0,-7.17386 28.6954,-7.17386 28.6954,0 0,0 0,111.19473 0,111.19473 l 100.43395,-48.06483 c 0,0 0,-120.52072 0,-120.52072 0,-7.17386 28.6954,-7.17386 28.6954,0 0,0 0,106.94779 0,106.94779 l 28.69542,-13.68772 c 0,0 0,-236.737135 0,-236.737135 0,-7.173841 28.69541,-7.202544 28.69541,0 z m -28.69541,265.432555 -28.69542,12.91294 v 109.04256 h 28.69542 z m -57.39082,27.26065 -100.43395,47.34743 v 47.34742 h 100.43395 z m -129.12935,61.69513 -68.869,32.99972 h 68.869 z M 145.62622,414.65107 H 81.061542 c -7.173861,0 -7.173861,28.6954 0,28.6954 h 64.564678 c 7.17384,0 7.17384,-28.6954 0,-28.6954 z m 129.12935,-57.39082 h -64.56468 c -7.17386,0 -7.17386,28.6954 0,28.6954 h 64.56468 c 7.17384,0 7.17384,-28.6954 0,-28.6954 z M 403.8849,299.86942 h -64.56468 c -7.17384,0 -7.17384,28.69541 0,28.69541 h 64.56468 c 7.17386,0 7.17386,-28.69541 0,-28.69541 z m -200.86787,0 h -71.73854 c -7.17383,0 -7.17383,28.69541 0,28.69541 0,0 71.73854,0 71.73854,0 7.17386,0 7.17386,-28.69541 0,-28.69541 z M 332.14638,242.4786 h -71.73853 c -7.17384,0 -7.17384,28.69542 0,28.69542 h 71.73853 c 7.17384,0 7.17384,-28.69542 0,-28.69542 z M 461.27574,185.08778 H 389.5372 c -7.17385,0 -7.17385,28.6954 0,28.6954 h 71.73854 c 7.17383,0 7.17383,-28.6954 0,-28.6954 z"
   id="path2652"
   style="fill:#ffffff;fill-opacity:1;stroke-width:28.69541168" /></svg>