<?xml version="1.0" encoding="utf-8"?>
<!-- Generator: Adobe Illustrator 15.0.0, SVG Export Plug-In . SVG Version: 6.00 Build 0)  -->
<!DOCTYPE svg PUBLIC "-//W3C//DTD SVG 1.1//EN" "http://www.w3.org/Graphics/SVG/1.1/DTD/svg11.dtd">
<svg version="1.1" id="Layer_1" xmlns="http://www.w3.org/2000/svg" xmlns:xlink="http://www.w3.org/1999/xlink" x="0px" y="0px"
	 width="580px" height="580px" viewBox="0 0 580 580" enable-background="new 0 0 580 580" xml:space="preserve">
<g id="Layer_2">
	<g id="g1327">
		<path id="path1329" fill="#111111" stroke="#EEEEEE" stroke-width="3.408" d="M66.275,1.768
			c-41.335,0-64.571,21.371-64.571,65.036v450.123c0,40.844,20.895,62.229,62.192,62.229h452.024
			c41.307,0,62.229-20.315,62.229-62.229V66.804c0-42.602-20.923-65.036-63.521-65.036C514.625,1.768,66.133,1.625,66.275,1.768z"/>
	</g>
</g>
<g>
	<g>
		<path fill="#FFFFFF" d="M267.411,409.379l-7.487-62.2c-0.239-9.98-8.435-18.026-18.473-18.026h-61.826l-2.516-7.594
			c0-6.464-5.239-11.703-11.703-11.703h-25.559c-6.464,0-11.703,5.239-11.703,11.703l-1.739,7.594H64.062
			c-10.038,0-18.231,8.046-18.474,18.026l-7.486,62.2c-16.09,6.694-6.348,21.76-6.348,21.76l49.889,84.995h142.226l49.888-84.995
			C273.757,431.138,283.501,416.073,267.411,409.379z M59.134,347.631c0-2.719,2.211-4.929,4.928-4.929H241.45
			c2.717,0,4.928,2.21,4.928,4.929v0.405l6.749,56.07c-31.881-11.683-100.372-36.714-100.372-36.714s-68.489,25.031-100.371,36.714
			l6.75-56.07V347.631z"/>
		<path fill="#FFFFFF" d="M146.304,351.941H79.856c-5.313,0-9.619,4.307-9.619,9.618l-3.254,27.038
			c27.052-9.902,64.467-23.58,79.321-29.01V351.941z"/>
		<path fill="#FFFFFF" d="M235.275,361.56c0-5.313-4.308-9.618-9.618-9.618h-66.448v7.647c14.855,5.43,52.27,19.105,79.32,29.009
			L235.275,361.56z"/>
	</g>
	<g>
		<path fill="#FFFFFF" d="M541.897,409.379l-7.487-62.2c-0.239-9.98-8.435-18.026-18.473-18.026h-61.826l-2.517-7.594
			c0-6.464-5.238-11.703-11.702-11.703h-25.561c-6.463,0-11.702,5.239-11.702,11.703l-1.738,7.594h-62.345
			c-10.037,0-18.229,8.046-18.473,18.026l-7.486,62.2c-16.09,6.694-6.347,21.76-6.347,21.76l49.888,84.995h142.228l49.888-84.995
			C548.244,431.138,557.987,416.073,541.897,409.379z M333.621,347.631c0-2.719,2.21-4.929,4.927-4.929h177.391
			c2.717,0,4.928,2.21,4.928,4.929v0.405l6.749,56.07c-31.881-11.683-100.371-36.714-100.371-36.714s-68.49,25.031-100.371,36.714
			l6.749-56.07L333.621,347.631L333.621,347.631z"/>
		<path fill="#FFFFFF" d="M420.791,351.941h-66.448c-5.312,0-9.617,4.307-9.617,9.618l-3.255,27.038
			c27.053-9.902,64.467-23.58,79.32-29.01V351.941L420.791,351.941z"/>
		<path fill="#FFFFFF" d="M509.762,361.56c0-5.313-4.308-9.618-9.618-9.618h-66.447v7.647c14.854,5.43,52.27,19.105,79.319,29.009
			L509.762,361.56z"/>
	</g>
	<g>
		<path fill="#FFFFFF" d="M267.411,163.391l-7.487-62.2c-0.239-9.98-8.435-18.026-18.473-18.026h-61.826l-2.516-7.594
			c0-6.464-5.239-11.703-11.703-11.703h-25.559c-6.464,0-11.703,5.239-11.703,11.703l-1.739,7.594H64.062
			c-10.038,0-18.231,8.046-18.474,18.026l-7.486,62.2c-16.09,6.694-6.348,21.76-6.348,21.76l49.889,84.995h142.226l49.888-84.995
			C273.757,185.15,283.501,170.086,267.411,163.391z M59.134,101.643c0-2.719,2.211-4.929,4.928-4.929H241.45
			c2.717,0,4.928,2.21,4.928,4.929v0.405l6.749,56.07c-31.881-11.683-100.372-36.714-100.372-36.714s-68.489,25.031-100.371,36.714
			l6.75-56.07V101.643z"/>
		<path fill="#FFFFFF" d="M146.304,105.954H79.856c-5.313,0-9.619,4.308-9.619,9.618l-3.254,27.038
			c27.052-9.902,64.467-23.58,79.321-29.01V105.954z"/>
		<path fill="#FFFFFF" d="M235.275,115.572c0-5.312-4.308-9.618-9.618-9.618h-66.448v7.647c14.855,5.43,52.27,19.105,79.32,29.009
			L235.275,115.572z"/>
	</g>
	<g>
		<path fill="#FFFFFF" d="M541.897,163.391l-7.487-62.2c-0.239-9.98-8.435-18.026-18.473-18.026h-61.826l-2.517-7.594
			c0-6.464-5.238-11.703-11.702-11.703h-25.561c-6.463,0-11.702,5.239-11.702,11.703l-1.738,7.594h-62.345
			c-10.037,0-18.229,8.046-18.473,18.026l-7.486,62.2c-16.09,6.694-6.347,21.76-6.347,21.76l49.888,84.995h142.228l49.888-84.995
			C548.244,185.15,557.987,170.086,541.897,163.391z M333.621,101.643c0-2.719,2.21-4.929,4.927-4.929h177.391
			c2.717,0,4.928,2.21,4.928,4.929v0.405l6.749,56.07c-31.881-11.683-100.371-36.714-100.371-36.714s-68.49,25.031-100.371,36.714
			l6.749-56.07L333.621,101.643L333.621,101.643z"/>
		<path fill="#FFFFFF" d="M420.791,105.954h-66.448c-5.312,0-9.617,4.308-9.617,9.618l-3.255,27.038
			c27.053-9.902,64.467-23.58,79.32-29.01V105.954L420.791,105.954z"/>
		<path fill="#FFFFFF" d="M509.762,115.572c0-5.312-4.308-9.618-9.618-9.618h-66.447v7.647c14.854,5.43,52.27,19.105,79.319,29.009
			L509.762,115.572z"/>
	</g>
</g>
</svg>
