<?xml version="1.0" encoding="UTF-8" standalone="no"?>
<!-- Generator: Adobe Illustrator 15.0.0, SVG Export Plug-In . SVG Version: 6.00 Build 0)  -->

<svg
   xmlns:dc="http://purl.org/dc/elements/1.1/"
   xmlns:cc="http://creativecommons.org/ns#"
   xmlns:rdf="http://www.w3.org/1999/02/22-rdf-syntax-ns#"
   xmlns:svg="http://www.w3.org/2000/svg"
   xmlns="http://www.w3.org/2000/svg"
   xmlns:sodipodi="http://sodipodi.sourceforge.net/DTD/sodipodi-0.dtd"
   xmlns:inkscape="http://www.inkscape.org/namespaces/inkscape"
   version="1.1"
   x="0px"
   y="0px"
   width="580px"
   height="580px"
   viewBox="0 0 580 580"
   enable-background="new 0 0 580 580"
   xml:space="preserve"
   id="svg2042"
   sodipodi:docname="bottle_return.svg"
   inkscape:version="0.92.3 (2405546, 2018-03-11)"><metadata
   id="metadata2048"><rdf:RDF><cc:Work
       rdf:about=""><dc:format>image/svg+xml</dc:format><dc:type
         rdf:resource="http://purl.org/dc/dcmitype/StillImage" /></cc:Work></rdf:RDF></metadata><defs
   id="defs2046">
	
	

		
		
		
		
		
		
		
		
		
	</defs><sodipodi:namedview
   pagecolor="#ffffff"
   bordercolor="#666666"
   borderopacity="1"
   objecttolerance="10"
   gridtolerance="10"
   guidetolerance="10"
   inkscape:pageopacity="0"
   inkscape:pageshadow="2"
   inkscape:window-width="1282"
   inkscape:window-height="1015"
   id="namedview2044"
   showgrid="false"
   inkscape:zoom="1.0824912"
   inkscape:cx="290"
   inkscape:cy="290"
   inkscape:window-x="467"
   inkscape:window-y="43"
   inkscape:window-maximized="0"
   inkscape:current-layer="svg2042" />
<g
   id="Layer_1">
	<g
   id="Layer_1_1_">
		<g
   id="Layer_2">
			<g
   id="g1327">
				<path
   id="path1329"
   fill="#111111"
   stroke="#EEEEEE"
   stroke-width="3.408"
   d="M66.275,1.768      c-41.335,0-64.571,21.371-64.571,65.036v450.123c0,40.844,20.895,62.229,62.192,62.229H515.92      c41.307,0,62.229-20.315,62.229-62.229V66.804c0-42.601-20.925-65.036-63.521-65.036C514.624,1.768,66.133,1.625,66.275,1.768z" />
			</g>
		</g>
	</g>
</g>
<path
   style="fill:#ffffff"
   inkscape:connector-curvature="0"
   id="path2039"
   d="m 471.75189,212.42346 c -4.412,-2.435 -9.621,-5.068 -15.01,-7.283 v -35.76 c 0,-3.358 -2.723,-6.08 -6.08,-6.08 h -30.119 c -3.357,0 -6.08,2.722 -6.08,6.08 v 35.461 c -13.848,5.222 -28.481,13.845 -35.163,21.758 -5.447,6.452 -6.531,12.631 -6.238,17.221 v 264.778 c 0,5.707 2.65,11.089 7.174,14.567 14.414,11.085 43.957,12.282 55.989,12.282 13.237,0 37.992,-1.394 55.065,-10.724 5.896,-3.223 9.564,-9.406 9.564,-16.126 v -265.624 c 0,-2.376 -0.461,-4.729 -1.356,-6.93 -1.306,-3.206 -4.363,-10.715 -27.746,-23.62 z" />
<g
   id="g2263"
   transform="matrix(1.2154624,0,0,1.2154624,24.59234,16.585218)"><rect
     style="fill:#ffffff"
     id="rect2007"
     height="38"
     width="112.667"
     y="299.16599"
     x="79.833" /><g
     id="g2257"><path
       d="m 44.5,34.5 v 343 h 201 V 34.5 Z M 212,70 c 3.59,0 6.5,2.91 6.5,6.5 0,3.59 -2.91,6.5 -6.5,6.5 -3.59,0 -6.5,-2.91 -6.5,-6.5 0,-3.59 2.91,-6.5 6.5,-6.5 z m 0,16.847 c 3.59,0 6.5,2.91 6.5,6.5 0,3.59 -2.91,6.5 -6.5,6.5 -3.59,0 -6.5,-2.91 -6.5,-6.5 0,-3.59 2.91,-6.5 6.5,-6.5 z m 0,16.846 c 3.59,0 6.5,2.91 6.5,6.5 0,3.59 -2.91,6.5 -6.5,6.5 -3.59,0 -6.5,-2.91 -6.5,-6.5 0,-3.59 2.91,-6.5 6.5,-6.5 z m 0,16.847 c 3.59,0 6.5,2.91 6.5,6.5 0,3.59 -2.91,6.5 -6.5,6.5 -3.59,0 -6.5,-2.91 -6.5,-6.5 0,-3.59 2.91,-6.5 6.5,-6.5 z m 0,16.847 c 3.59,0 6.5,2.91 6.5,6.5 0,3.59 -2.91,6.5 -6.5,6.5 -3.59,0 -6.5,-2.91 -6.5,-6.5 0,-3.59 2.91,-6.5 6.5,-6.5 z M 198.5,344.5 h -127 v -282 h 127 z m 38,-176.5 h -31 v -6 h 31 z M 230,150.387 c -3.59,0 -6.5,-2.91 -6.5,-6.5 0,-3.59 2.91,-6.5 6.5,-6.5 3.59,0 6.5,2.91 6.5,6.5 0,3.59 -2.91,6.5 -6.5,6.5 z m 0,-16.847 c -3.59,0 -6.5,-2.91 -6.5,-6.5 0,-3.59 2.91,-6.5 6.5,-6.5 3.59,0 6.5,2.91 6.5,6.5 0,3.59 -2.91,6.5 -6.5,6.5 z m 0,-16.847 c -3.59,0 -6.5,-2.91 -6.5,-6.5 0,-3.59 2.91,-6.5 6.5,-6.5 3.59,0 6.5,2.91 6.5,6.5 0,3.59 -2.91,6.5 -6.5,6.5 z m 0,-16.846 c -3.59,0 -6.5,-2.91 -6.5,-6.5 0,-3.59 2.91,-6.5 6.5,-6.5 3.59,0 6.5,2.91 6.5,6.5 0,3.59 -2.91,6.5 -6.5,6.5 z M 230,83 c -3.59,0 -6.5,-2.91 -6.5,-6.5 0,-3.59 2.91,-6.5 6.5,-6.5 3.59,0 6.5,2.91 6.5,6.5 0,3.59 -2.91,6.5 -6.5,6.5 z"
       id="path2005"
       inkscape:connector-curvature="0"
       style="fill:#ffffff" /><path
       inkscape:connector-curvature="0"
       style="font-style:normal;font-variant:normal;font-weight:normal;font-stretch:normal;font-size:40px;line-height:125%;font-family:NPSPICT3;-inkscape-font-specification:NPSPICT3;text-align:start;writing-mode:lr-tb;text-anchor:start;fill:#ffffff;fill-opacity:1;stroke:none;stroke-width:0.16062891px;stroke-linecap:butt;stroke-linejoin:miter;stroke-opacity:1"
       d="m 121.87932,166.9618 -9.99545,-17.41578 H 91.781434 l 8.171536,4.73038 -5.05185,8.70624 c -0.430845,0.78951 -0.646261,1.61399 -0.646249,2.47344 -1.2e-5,0.85949 0.215404,1.68398 0.646249,2.47344 l 7.95175,13.86635 c 0.35863,-1.0038 0.71729,-1.86436 1.07597,-2.58169 l 9.89048,-16.98275 z m -14.93905,13.9746 c -0.57519,0.93165 -0.86277,1.93436 -0.86275,3.00815 -2e-5,1.64896 0.59154,3.04642 1.77471,4.19238 1.18311,1.14596 2.59806,1.71895 4.24487,1.71895 h 19.78096 V 173.84084 H 111.0244 c -0.14437,0.28651 -0.68236,1.21815 -1.61397,2.79492 z m 26.76498,-39.66689 h 19.99419 l 10.10371,-17.41249 -8.16826,4.73037 -5.05513,-8.70953 c -0.93171,-1.6467 -2.36416,-2.47009 -4.29736,-2.47016 h -15.91006 c 0.6451,0.71521 1.18309,1.43143 1.61397,2.14868 l 9.77895,16.98276 -1.61069,0.96772 z m -9.78222,-23.00233 c -2.29415,7e-5 -4.01419,1.00278 -5.16011,3.00814 l -9.99545,17.19927 c 3.79651,2.22198 8.41862,4.87366 13.86635,7.95503 3.22352,-5.51763 6.69858,-11.5372 10.42519,-18.05874 l -3.97587,-7.09556 c -1.14601,-2.00536 -2.86605,-3.00807 -5.16011,-3.00814 z m 25.69229,55.35716 v -1.93546 -7.41375 l -9.99874,17.41249 9.99874,17.30752 v -9.3525 h 9.99545 c 1.93537,0 3.4039,-0.82447 4.4056,-2.47343 l 7.95503,-13.86636 c -1.07387,0.28651 -1.96943,0.42976 -2.68666,0.42974 z m 14.83408,-29.45166 c -0.35875,0.21437 -4.98196,2.86604 -13.86964,7.95504 4.44381,7.66747 7.95604,13.72313 10.53672,18.16698 h 8.06001 c 2.36619,2e-5 4.1223,-1.00378 5.26836,-3.01142 1.07369,-1.93543 1.03761,-3.90587 -0.10825,-5.91133 z"
       id="flowRoot3192" /></g></g></svg>