<?xml version="1.0" encoding="utf-8"?>
<!-- Generator: Adobe Illustrator 15.0.0, SVG Export Plug-In . SVG Version: 6.00 Build 0)  -->
<!DOCTYPE svg PUBLIC "-//W3C//DTD SVG 1.1//EN" "http://www.w3.org/Graphics/SVG/1.1/DTD/svg11.dtd">
<svg version="1.1" xmlns="http://www.w3.org/2000/svg" xmlns:xlink="http://www.w3.org/1999/xlink" x="0px" y="0px" width="580px"
	 height="580px" viewBox="0 0 580 580" enable-background="new 0 0 580 580" xml:space="preserve">
<g id="Layer_2">
	<g id="g1327">
		<path id="path1329" fill="#111111" stroke="#EEEEEE" stroke-width="3.408" d="M66.275,1.768
			c-41.335,0-64.571,21.371-64.571,65.036v450.123c0,40.844,20.894,62.229,62.192,62.229H515.92
			c41.307,0,62.229-20.316,62.229-62.229V66.804c0-42.601-20.923-65.036-63.522-65.036C514.624,1.768,66.133,1.625,66.275,1.768z"/>
	</g>
</g>
<g id="svg2" inkscape:version="0.46" sodipodi:docname="waste_bin.svg" sodipodi:version="0.32" xmlns:dc="http://purl.org/dc/elements/1.1/" xmlns:cc="http://creativecommons.org/ns#" xmlns:sodipodi="http://sodipodi.sourceforge.net/DTD/sodipodi-0.dtd" xmlns:svg="http://www.w3.org/2000/svg" xmlns:rdf="http://www.w3.org/1999/02/22-rdf-syntax-ns#" xmlns:inkscape="http://www.inkscape.org/namespaces/inkscape" inkscape:output_extension="org.inkscape.output.svg.inkscape">
	<path fill="#FFFFFF" d="M230.197,440.795l-77.63-66.559c-0.249,0.416-0.483,0.838-0.697,1.268L230.197,440.795z"/>
	<path fill="#FFFFFF" d="M230.197,440.795h117.488l-4.871-4.063C311.82,414.75,230.197,416.102,230.197,440.795z"/>
	<path fill="#FFFFFF" d="M299.85,44.203L43.621,240.149h59.146v295.648H477.26V240.149h59.119L299.85,44.203z M255.735,208.801
		h16.473l13.996,22.423l13.711-22.423h16.329l-21.708,33.896l23.851,35.896h-16.995l-15.473-24.137l-15.521,24.137h-16.9
		l23.852-36.42L255.735,208.801z M347.688,506.059c0,13.063-26.1,13.063-26.1,0v-39.164h-78.329v39.164
		c0,13.063-26.126,13.063-26.126,0v-39.164l-65.263-52.227v26.127c0,13.037-26.127,13.037-26.127,0V310.24
		c0-13.063,26.127-13.063,26.127,0v13.037h78.327V310.24c0-13.063,26.099-13.063,26.099,0v39.162
		c-13.037-13.063-107.033-13.063-117.489,13.037l13.761,11.797c14.904-24.824,91.122-24.402,116.792,1.268l73.456,61.23
		c1.801,1.275,3.439,2.627,4.872,4.061V506.059z M371.297,278.594l-15.472-24.137l-15.521,24.137h-16.9l23.852-36.42l-21.614-33.373
		h16.473l13.996,22.423l13.711-22.423h16.329l-21.709,33.896l23.852,35.896H371.297z M441.205,278.594l-15.473-24.137
		l-15.521,24.137h-16.9l23.852-36.42l-21.614-33.373h16.473l13.996,22.423l13.711-22.423h16.33l-21.709,33.896l23.851,35.896
		H441.205z"/>
</g>
</svg>
