<?xml version="1.0" encoding="UTF-8" standalone="no"?>
<!-- Generator: Adobe Illustrator 15.0.0, SVG Export Plug-In . SVG Version: 6.00 Build 0)  -->

<svg
   xmlns:dc="http://purl.org/dc/elements/1.1/"
   xmlns:cc="http://creativecommons.org/ns#"
   xmlns:rdf="http://www.w3.org/1999/02/22-rdf-syntax-ns#"
   xmlns:svg="http://www.w3.org/2000/svg"
   xmlns="http://www.w3.org/2000/svg"
   xmlns:sodipodi="http://sodipodi.sourceforge.net/DTD/sodipodi-0.dtd"
   xmlns:inkscape="http://www.inkscape.org/namespaces/inkscape"
   version="1.1"
   x="0px"
   y="0px"
   width="580px"
   height="580px"
   viewBox="0 0 580 580"
   enable-background="new 0 0 580 580"
   xml:space="preserve"
   id="svg881"
   sodipodi:docname="bubble_tea.svg"
   inkscape:version="0.92.3 (2405546, 2018-03-11)"><metadata
   id="metadata887"><rdf:RDF><cc:Work
       rdf:about=""><dc:format>image/svg+xml</dc:format><dc:type
         rdf:resource="http://purl.org/dc/dcmitype/StillImage" /><dc:title></dc:title></cc:Work></rdf:RDF></metadata><defs
   id="defs885" /><sodipodi:namedview
   pagecolor="#ffffff"
   bordercolor="#666666"
   borderopacity="1"
   objecttolerance="10"
   gridtolerance="10"
   guidetolerance="10"
   inkscape:pageopacity="0"
   inkscape:pageshadow="2"
   inkscape:window-width="1387"
   inkscape:window-height="981"
   id="namedview883"
   showgrid="false"
   inkscape:zoom="1.2316035"
   inkscape:cx="290"
   inkscape:cy="290"
   inkscape:window-x="383"
   inkscape:window-y="81"
   inkscape:window-maximized="0"
   inkscape:current-layer="svg881" />
<g
   id="Layer_2"
   transform="translate(0,10.798993)">
	<g
   id="g1327">
		<path
   id="path1329"
   d="M 66.275,1.768 C 24.94,1.768 1.704,23.139 1.704,66.804 v 450.123 c 0,40.844 20.894,62.229 62.192,62.229 H 515.92 c 41.307,0 62.229,-20.316 62.229,-62.229 V 66.804 c 0,-42.601 -20.923,-65.036 -63.522,-65.036 -0.003,0 -448.494,-0.143 -448.352,0 z"
   inkscape:connector-curvature="0"
   style="fill:#111111;stroke:#eeeeee;stroke-width:3.40799999" />
	</g>
</g>

<path
   inkscape:connector-curvature="0"
   d="m 291.30563,179.12889 38.03332,-114.099965 43.44654,14.482176 -33.20594,99.617789 h 87.81043 L 366.32777,514.97108 H 213.67224 L 152.61002,179.12889 Z M 290,392.84666 c -12.6464,0 -22.89833,10.25191 -22.89833,22.89833 0,12.64641 10.25193,22.89833 22.89833,22.89833 12.6464,0 22.89833,-10.25192 22.89833,-22.89833 0,-12.64642 -10.25193,-22.89833 -22.89833,-22.89833 z m -38.16388,53.42943 c -12.6464,0 -22.89833,10.25192 -22.89833,22.89833 0,12.64641 10.25193,22.89833 22.89833,22.89833 12.6464,0 22.89833,-10.25192 22.89833,-22.89833 0,-12.64641 -10.25193,-22.89833 -22.89833,-22.89833 z m 76.32777,0 c -12.6464,0 -22.89833,10.25192 -22.89833,22.89833 0,12.64641 10.25193,22.89833 22.89833,22.89833 12.6464,0 22.89833,-10.25192 22.89833,-22.89833 0,-12.64641 -10.25193,-22.89833 -22.89833,-22.89833 z M 290.12213,324.15164 c -12.6464,0 -22.89833,10.25194 -22.89833,22.89833 0,12.64641 10.25193,22.89833 22.89833,22.89833 12.6464,0 22.89833,-10.25192 22.89833,-22.89833 0,-12.64639 -10.25193,-22.89833 -22.89833,-22.89833 z m 60.94009,38.16388 c -12.6464,0 -22.89833,10.25195 -22.89833,22.89836 0,12.64641 10.25193,22.89833 22.89833,22.89833 12.6464,0 22.89832,-10.25192 22.89832,-22.89833 0,-12.64641 -10.25192,-22.89836 -22.89832,-22.89836 z m -122.12443,0 c -12.6464,0 -22.89833,10.25195 -22.89833,22.89836 0,12.64641 10.25193,22.89833 22.89833,22.89833 12.6464,0 22.89833,-10.25192 22.89833,-22.89833 0,-12.64641 -10.25193,-22.89836 -22.89833,-22.89836 z m 129.7572,-68.69499 c -12.6464,0 -22.89833,10.25195 -22.89833,22.89833 0,12.64641 10.25193,22.89833 22.89833,22.89833 12.64641,0 22.89832,-10.25192 22.89832,-22.89833 0,-12.64638 -10.25191,-22.89833 -22.89832,-22.89833 z"
   id="path1496"
   style="fill:#ffffff;fill-opacity:1;stroke-width:30.53110695" /></svg>