<?xml version="1.0" encoding="utf-8"?>
<!-- Generator: Adobe Illustrator 15.0.0, SVG Export Plug-In . SVG Version: 6.00 Build 0)  -->
<!DOCTYPE svg PUBLIC "-//W3C//DTD SVG 1.1//EN" "http://www.w3.org/Graphics/SVG/1.1/DTD/svg11.dtd">
<svg version="1.1" xmlns="http://www.w3.org/2000/svg" xmlns:xlink="http://www.w3.org/1999/xlink" x="0px" y="0px" width="580px"
	 height="580px" viewBox="0 0 580 580" enable-background="new 0 0 580 580" xml:space="preserve">
<g id="Layer_2">
	<g id="g1327">
		<path id="path1329" fill="#111111" stroke="#EEEEEE" stroke-width="3.408" d="M66.275,1.768
			c-41.335,0-64.571,21.371-64.571,65.036v450.123c0,40.844,20.895,62.229,62.192,62.229H515.92
			c41.307,0,62.229-20.315,62.229-62.229V66.804c0-42.601-20.923-65.036-63.521-65.036C514.624,1.768,66.133,1.625,66.275,1.768z"/>
	</g>
</g>
<g id="Layer_4">
	<path fill="#FFFFFF" d="M431.468,376.611l-27.671-71.371c-5.207-13.588-16.486-25.195-37.749-25.195h-39.074h-66.539h-39.546
		c-21.262,0-32.542,11.607-37.749,25.195l-27.641,71.371c-10.958,1.406-30.382,14.268-30.382,38.633v90.762h26.905v29.026
		c0,35.711,50.538,35.29,50.538,0v-29.026h90.909h0.029h90.909v29.026c0,35.29,50.537,35.711,50.537,0v-29.026h26.904v-90.762
		C461.849,390.879,442.425,378.018,431.468,376.611z M178.101,451.313c-12.893,0-23.339-10.786-23.339-24.075
		s10.446-24.047,23.339-24.047c12.893,0,23.339,10.758,23.339,24.047C201.439,440.527,190.994,451.313,178.101,451.313z
		 M293.498,375.875h-0.029h-0.059H184.112l20.834-56.166c2.604-7.89,6.505-13.588,15.618-13.674h72.846h0.059h0.029h72.874
		c9.112,0.086,13.015,5.784,15.618,13.674l20.834,56.166H293.498z M408.865,451.313c-12.893,0-23.368-10.786-23.368-24.075
		s10.476-24.047,23.368-24.047c12.894,0,23.339,10.758,23.339,24.047S421.759,451.313,408.865,451.313z"/>
	<g>
		<ellipse fill="#FFFFFF" cx="483.82" cy="181.136" rx="19.867" ry="34.403"/>
		<ellipse fill="#FFFFFF" cx="418.891" cy="233.468" rx="19.867" ry="34.403"/>
		<ellipse fill="#FFFFFF" cx="353.961" cy="157.878" rx="19.867" ry="34.403"/>
		<ellipse fill="#FFFFFF" cx="214.41" cy="172.414" rx="19.867" ry="34.403"/>
		<ellipse fill="#FFFFFF" cx="146.573" cy="136.558" rx="19.866" ry="34.403"/>
		<ellipse fill="#FFFFFF" cx="96.18" cy="189.858" rx="19.867" ry="34.403"/>
		<ellipse fill="#FFFFFF" cx="283.216" cy="129.774" rx="19.867" ry="34.403"/>
	</g>
</g>
</svg>
