<?xml version="1.0" encoding="utf-8"?>
<!-- Generator: Adobe Illustrator 15.0.0, SVG Export Plug-In . SVG Version: 6.00 Build 0)  -->
<!DOCTYPE svg PUBLIC "-//W3C//DTD SVG 1.1//EN" "http://www.w3.org/Graphics/SVG/1.1/DTD/svg11.dtd">
<svg version="1.1" xmlns="http://www.w3.org/2000/svg" xmlns:xlink="http://www.w3.org/1999/xlink" x="0px" y="0px" width="580px"
	 height="580px" viewBox="0 0 580 580" enable-background="new 0 0 580 580" xml:space="preserve">
<g id="Layer_2">
	<g id="g1327">
		<path id="path1329" fill="#111111" stroke="#EEEEEE" stroke-width="3.408" d="M66.275,1.768
			c-41.335,0-64.571,21.371-64.571,65.036v450.123c0,40.844,20.894,62.229,62.192,62.229H515.92
			c41.307,0,62.229-20.316,62.229-62.229V66.804c0-42.601-20.923-65.036-63.522-65.036C514.624,1.768,66.133,1.625,66.275,1.768z"/>
	</g>
</g>
<g id="svg2" sodipodi:docname="waste_bin.svg" inkscape:version="0.46" sodipodi:version="0.32" inkscape:output_extension="org.inkscape.output.svg.inkscape" xmlns:inkscape="http://www.inkscape.org/namespaces/inkscape" xmlns:dc="http://purl.org/dc/elements/1.1/" xmlns:rdf="http://www.w3.org/1999/02/22-rdf-syntax-ns#" xmlns:sodipodi="http://sodipodi.sourceforge.net/DTD/sodipodi-0.dtd" xmlns:svg="http://www.w3.org/2000/svg" xmlns:cc="http://creativecommons.org/ns#">
	<g>
		<path fill="#FFFFFF" d="M461.512,208.626c-2.871-1.186-5.912-2.272-9.078-3.274c-0.002,0.006-0.003,0.013-0.005,0.021
			c0.03,0.009,0.06,0.018,0.088,0.026v68.919c3.139-0.997,6.146-2.084,8.997-3.262c18.854-7.792,29.238-18.882,29.238-31.228
			C490.752,227.495,480.367,216.414,461.512,208.626z"/>
		<path fill="#FFFFFF" d="M344.765,205.398c0.026-0.008,0.053-0.016,0.08-0.024c-0.02-0.071-0.035-0.143-0.049-0.215
			c-3.387,1.054-6.634,2.205-9.691,3.467c-18.856,7.789-29.24,18.869-29.24,31.202c0,12.345,10.384,23.435,29.239,31.228
			c3.07,1.269,6.324,2.43,9.727,3.488c0.016-0.035,0.034-0.069,0.052-0.104c-0.039-0.012-0.079-0.024-0.117-0.036V205.398z"/>
		<path fill="#FFFFFF" d="M362.587,200.834v78.017c11.145,2.025,23.248,3.091,35.717,3.091c12.725,0,25.067-1.108,36.398-3.214
			v-77.771c-11.332-2.105-23.675-3.214-36.398-3.214C385.836,197.743,373.732,198.809,362.587,200.834z M422.875,224.531h-48.329
			v-8.856h48.329V224.531z"/>
		<path fill="#FFFFFF" d="M538.063,42.49h-16.102v137.334c-15.672,1.903-27.257,8.312-27.257,16.151
			c0,6.934,9.029,13.174,21.939,15.741c2.281,0.454,4.474,0.873,6.684,0.738h14.735V42.49z"/>
		<path fill="#FFFFFF" d="M464.905,132.706c9.266,0,16.774-7.51,16.774-16.774v-38.15c0-9.264-7.509-16.774-16.774-16.774h-1.093
			c-9.265,0-16.774,7.51-16.774,16.774V93.24h-91.821V77.782c0-9.264-7.511-16.774-16.774-16.774h-1.094
			c-9.265,0-16.774,7.51-16.774,16.774v38.15c0,9.264,7.51,16.774,16.774,16.774h1.094c9.264,0,16.774-7.51,16.774-16.774v-9.81
			h91.821v9.81c0,9.264,7.51,16.774,16.774,16.774H464.905z"/>
	</g>
	<g>
		<g>
			<polygon fill="#FFFFFF" points="333.792,332.818 182.625,263.68 37.229,332.76 29.002,315.441 182.472,242.524 341.768,315.382 
							"/>
		</g>
		<g>
			<g>
				<rect x="42.489" y="335.627" fill="#FFFFFF" width="8.987" height="193.732"/>
			</g>
			<g>
				<rect x="319.292" y="335.627" fill="#FFFFFF" width="8.988" height="193.732"/>
			</g>
		</g>
	</g>
	<g>
		<path id="flowRoot3192" sodipodi:nodetypes="csscssssccccsccsccccsccccsccccsccccc" fill="#FFFFFF" d="M117.5,348.542
			c4.699,0,8.757-1.709,12.175-5.128c3.418-3.417,5.127-7.476,5.128-12.176c-0.001-4.906-1.709-9.016-5.128-12.326
			c-3.418-3.311-7.476-4.966-12.175-4.966c-4.699,0-8.756,1.655-12.171,4.966c-3.416,3.311-5.122,7.42-5.122,12.326
			c0,4.7,1.706,8.759,5.122,12.176C108.744,346.833,112.801,348.542,117.5,348.542L117.5,348.542z M140.248,352.062H94.439
			c-6.191,0-11.477,2.189-15.856,6.568c-4.38,4.381-6.569,9.772-6.569,16.179v53.17c0,5.129,2.349,7.693,7.048,7.693
			c4.483,0,6.725-2.564,6.725-7.693V376.09h8.33v140.945c0,6.406,3.203,9.609,9.608,9.609c6.407,0,9.61-3.203,9.61-9.609V435.35
			h8.329v81.686c0,6.406,3.203,9.609,9.61,9.609c6.621,0,9.932-3.203,9.932-9.609V376.09h8.006v51.889
			c0,5.337,2.242,8.006,6.726,8.006c4.49,0,6.734-2.669,6.735-8.006v-52.856c0-6.191-2.083-11.582-6.246-16.174
			C152.263,354.356,146.87,352.062,140.248,352.062L140.248,352.062z"/>
		<path id="flowRoot3192_1_" sodipodi:nodetypes="csscssssccccsccsccccsccccsccccsccccc" fill="#FFFFFF" d="M253.582,348.542
			c4.698,0,8.757-1.709,12.175-5.128c3.418-3.417,5.127-7.476,5.127-12.176c0-4.906-1.708-9.016-5.127-12.326
			c-3.418-3.311-7.478-4.966-12.175-4.966c-4.699,0-8.756,1.655-12.171,4.966c-3.416,3.311-5.122,7.42-5.122,12.326
			c0,4.7,1.706,8.759,5.122,12.176C244.826,346.833,248.883,348.542,253.582,348.542L253.582,348.542z M276.331,352.062h-45.81
			c-6.191,0-11.477,2.189-15.856,6.568c-4.379,4.381-6.569,9.772-6.569,16.179v53.17c0,5.129,2.349,7.693,7.049,7.693
			c4.483,0,6.725-2.564,6.725-7.693V376.09h8.33v140.945c0,6.406,3.203,9.609,9.609,9.609c6.407,0,9.61-3.203,9.61-9.609V435.35
			h8.329v81.686c0,6.406,3.203,9.609,9.609,9.609c6.621,0,9.933-3.203,9.933-9.609V376.09h8.005v51.889
			c0,5.337,2.242,8.006,6.727,8.006c4.489,0,6.734-2.669,6.734-8.006v-52.856c0-6.191-2.083-11.582-6.247-16.174
			C288.345,354.356,282.951,352.062,276.331,352.062L276.331,352.062z"/>
	</g>
</g>
</svg>
