<?xml version="1.0" encoding="utf-8"?>
<!-- Generator: Adobe Illustrator 15.0.0, SVG Export Plug-In . SVG Version: 6.00 Build 0)  -->
<!DOCTYPE svg PUBLIC "-//W3C//DTD SVG 1.1//EN" "http://www.w3.org/Graphics/SVG/1.1/DTD/svg11.dtd">
<svg version="1.1" xmlns="http://www.w3.org/2000/svg" xmlns:xlink="http://www.w3.org/1999/xlink" x="0px" y="0px" width="580px"
	 height="580px" viewBox="0 0 580 580" enable-background="new 0 0 580 580" xml:space="preserve">
<g id="Layer_1">
	<g id="Layer_1_1_">
		<g id="Layer_2">
			<g id="g1327">
				<path id="path1329" fill="#111111" stroke="#EEEEEE" stroke-width="3.408" d="M66.275,1.768
					c-41.335,0-64.571,21.371-64.571,65.036v450.123c0,40.844,20.895,62.229,62.192,62.229H515.92
					c41.307,0,62.229-20.315,62.229-62.229V66.804c0-42.601-20.925-65.036-63.521-65.036C514.624,1.768,66.133,1.625,66.275,1.768z"
					/>
			</g>
		</g>
	</g>
</g>
<g id="Layer_2_1_">
	<g>
		<g>
			<polygon fill="#FFFFFF" points="537.688,201.338 285.395,85.946 42.734,201.239 29.002,172.336 285.139,50.641 550.998,172.237 
							"/>
		</g>
		<g>
			<g>
				<rect x="51.512" y="206.025" fill="#FFFFFF" width="15" height="323.334"/>
			</g>
			<g>
				<rect x="513.488" y="206.025" fill="#FFFFFF" width="15" height="323.334"/>
			</g>
		</g>
	</g>
	<g>
		<path fill="#FFFFFF" d="M128.132,346.379c5.042,0,9.318-1.754,12.831-5.263c3.511-3.509,5.268-7.677,5.268-12.504
			c0-5.049-1.756-9.327-5.268-12.836c-3.512-3.509-7.789-5.263-12.831-5.263c-4.828,0-8.997,1.754-12.509,5.263
			c-3.512,3.509-5.268,7.787-5.268,12.836c0,4.827,1.756,8.995,5.268,12.504C119.135,344.625,123.305,346.379,128.132,346.379z"/>
		<path fill="#FFFFFF" d="M168.276,366.134c-1.098-3.515-3.62-6.916-7.563-10.204c-4.827-3.95-10.094-5.925-15.798-5.925h-35.212
			c-5.491,0-10.429,1.975-14.814,5.925c-3.294,3.067-5.487,6.469-6.579,10.204l-15.145,50.349c-0.436,1.098-0.653,2.085-0.653,2.962
			c0,5.049,2.521,7.573,7.563,7.573c3.515,0,5.822-1.976,6.92-5.926l13.82-46.079h7.563l-22.708,81.943h22.055v63.846
			c0,5.705,2.742,8.558,8.226,8.558s8.226-2.853,8.226-8.558v-64.166h8.235v64.498c0,5.483,2.742,8.226,8.226,8.226
			c5.483,0,8.226-2.742,8.226-8.226v-64.178h22.045l-23.029-81.943h7.894l13.819,46.079c1.098,3.95,3.401,5.926,6.91,5.926
			c5.048,0,7.573-2.524,7.573-7.573c0-1.098-0.218-2.086-0.653-2.962L168.276,366.134z"/>
	</g>
	<g>
		<path fill="#FFFFFF" d="M348.149,346.379c5.041,0,9.317-1.754,12.83-5.263c3.512-3.509,5.268-7.677,5.268-12.504
			c0-5.049-1.756-9.327-5.268-12.836c-3.513-3.509-7.789-5.263-12.83-5.263c-4.829,0-8.998,1.754-12.51,5.263
			s-5.268,7.787-5.268,12.836c0,4.827,1.756,8.995,5.268,12.504S343.32,346.379,348.149,346.379z"/>
		<path fill="#FFFFFF" d="M388.292,366.134c-1.098-3.515-3.619-6.916-7.563-10.204c-4.827-3.95-10.094-5.925-15.798-5.925H329.72
			c-5.49,0-10.429,1.975-14.814,5.925c-3.294,3.067-5.487,6.469-6.578,10.204l-15.146,50.349c-0.436,1.098-0.653,2.085-0.653,2.962
			c0,5.049,2.521,7.573,7.563,7.573c3.516,0,5.821-1.976,6.919-5.926l13.82-46.079h7.563l-22.708,81.943h22.056v63.846
			c0,5.705,2.741,8.558,8.225,8.558c5.484,0,8.227-2.853,8.227-8.558v-64.166h8.235v64.498c-0.001,5.483,2.741,8.226,8.225,8.226
			c5.484,0,8.227-2.742,8.227-8.226v-64.178h22.045l-23.029-81.943h7.895l13.819,46.079c1.099,3.95,3.4,5.926,6.909,5.926
			c5.049,0,7.573-2.524,7.573-7.573c0-1.098-0.219-2.086-0.652-2.962L388.292,366.134z"/>
	</g>
	<g>
		<path fill="#FFFFFF" d="M239.701,346.058c4.828,0,8.997-1.756,12.51-5.269c3.511-3.512,5.268-7.681,5.268-12.508
			c0-5.042-1.756-9.264-5.268-12.666c-3.513-3.4-7.682-5.102-12.51-5.102s-8.996,1.701-12.504,5.102
			c-3.508,3.402-5.262,7.624-5.262,12.666c0,4.827,1.754,8.996,5.262,12.508C230.706,344.302,234.874,346.058,239.701,346.058z"/>
		<path fill="#FFFFFF" d="M279.693,356.748c-4.278-4.716-9.818-7.074-16.621-7.075h-47.063c-6.361,0.001-11.792,2.25-16.291,6.749
			c-4.5,4.5-6.749,10.04-6.749,16.622v54.626c0,5.27,2.414,7.904,7.241,7.904c4.607,0,6.909-2.635,6.91-7.904v-53.31h8.557v144.805
			c0,6.582,3.291,9.873,9.873,9.873c6.581,0,9.872-3.291,9.872-9.873v-83.922h8.558v83.922c0,6.582,3.29,9.873,9.872,9.873
			c6.802,0,10.205-3.291,10.205-9.873V374.36h8.226v53.31c0,5.484,2.303,8.227,6.909,8.227c4.613,0,6.921-2.742,6.921-8.227v-54.305
			C286.112,367.005,283.973,361.466,279.693,356.748z"/>
	</g>
	<g>
		<path fill="#FFFFFF" d="M456.818,346.058c4.828,0,8.997-1.756,12.51-5.269c3.512-3.512,5.268-7.681,5.268-12.508
			c0-5.042-1.756-9.264-5.268-12.666c-3.513-3.4-7.682-5.102-12.51-5.102c-4.827,0-8.995,1.701-12.504,5.102
			c-3.508,3.402-5.263,7.624-5.263,12.666c0,4.827,1.755,8.996,5.263,12.508C447.823,344.302,451.991,346.058,456.818,346.058z"/>
		<path fill="#FFFFFF" d="M496.812,356.748c-4.278-4.716-9.819-7.074-16.621-7.075h-47.063c-6.361,0.001-11.792,2.25-16.291,6.749
			c-4.499,4.5-6.749,10.04-6.749,16.622v54.626c0,5.27,2.414,7.904,7.241,7.904c4.606,0,6.909-2.635,6.91-7.904v-53.31h8.557
			v144.805c0,6.582,3.291,9.873,9.873,9.873c6.581,0,9.872-3.291,9.872-9.873v-83.922h8.558v83.922c0,6.582,3.29,9.873,9.872,9.873
			c6.803,0,10.204-3.291,10.205-9.873V374.36h8.226v53.31c-0.001,5.484,2.303,8.227,6.909,8.227c4.612,0,6.92-2.742,6.92-8.227
			v-54.305C503.229,367.005,501.09,361.466,496.812,356.748z"/>
	</g>
</g>
</svg>
