<?xml version="1.0" encoding="utf-8"?>
<!-- Generator: Adobe Illustrator 15.0.0, SVG Export Plug-In . SVG Version: 6.00 Build 0)  -->
<!DOCTYPE svg PUBLIC "-//W3C//DTD SVG 1.1//EN" "http://www.w3.org/Graphics/SVG/1.1/DTD/svg11.dtd">
<svg version="1.1" xmlns="http://www.w3.org/2000/svg" xmlns:xlink="http://www.w3.org/1999/xlink" x="0px" y="0px" width="580px"
	 height="580px" viewBox="0 0 580 580" enable-background="new 0 0 580 580" xml:space="preserve">
<g id="Layer_2">
	<g id="g1327">
		<path id="path1329" fill="#111111" stroke="#EEEEEE" stroke-width="3.408" d="M66.275,1.768
			c-41.335,0-64.571,21.371-64.571,65.036v450.123c0,40.844,20.894,62.229,62.192,62.229H515.92
			c41.307,0,62.229-20.316,62.229-62.229V66.804c0-42.601-20.923-65.036-63.522-65.036C514.624,1.768,66.133,1.625,66.275,1.768z"/>
	</g>
</g>
<g id="svg2" sodipodi:docname="waste_bin.svg" inkscape:version="0.46" sodipodi:version="0.32" inkscape:output_extension="org.inkscape.output.svg.inkscape" xmlns:inkscape="http://www.inkscape.org/namespaces/inkscape" xmlns:dc="http://purl.org/dc/elements/1.1/" xmlns:rdf="http://www.w3.org/1999/02/22-rdf-syntax-ns#" xmlns:sodipodi="http://sodipodi.sourceforge.net/DTD/sodipodi-0.dtd" xmlns:svg="http://www.w3.org/2000/svg" xmlns:cc="http://creativecommons.org/ns#">
	<g>
		<g>
			<polygon fill="#FFFFFF" points="333.792,332.818 182.625,263.68 37.229,332.76 29.002,315.441 182.472,242.524 341.768,315.382 
							"/>
		</g>
		<g>
			<g>
				<rect x="42.489" y="335.627" fill="#FFFFFF" width="8.987" height="193.732"/>
			</g>
			<g>
				<rect x="319.292" y="335.627" fill="#FFFFFF" width="8.988" height="193.732"/>
			</g>
		</g>
	</g>
	<g>
		<path id="flowRoot3192" sodipodi:nodetypes="csscssssccccsccsccccsccccsccccsccccc" fill="#FFFFFF" d="M117.5,348.542
			c4.699,0,8.757-1.709,12.175-5.128c3.418-3.417,5.127-7.476,5.128-12.176c-0.001-4.906-1.709-9.016-5.128-12.326
			c-3.418-3.311-7.476-4.966-12.175-4.966c-4.699,0-8.756,1.655-12.171,4.966c-3.416,3.311-5.122,7.42-5.122,12.326
			c0,4.7,1.706,8.759,5.122,12.176C108.744,346.833,112.801,348.542,117.5,348.542L117.5,348.542z M140.248,352.062H94.439
			c-6.191,0-11.477,2.189-15.856,6.568c-4.38,4.381-6.569,9.772-6.569,16.179v53.17c0,5.129,2.349,7.693,7.048,7.693
			c4.483,0,6.725-2.564,6.725-7.693V376.09h8.33v140.945c0,6.406,3.203,9.609,9.608,9.609c6.407,0,9.61-3.203,9.61-9.609V435.35
			h8.329v81.686c0,6.406,3.203,9.609,9.61,9.609c6.621,0,9.932-3.203,9.932-9.609V376.09h8.006v51.889
			c0,5.337,2.242,8.006,6.726,8.006c4.49,0,6.734-2.669,6.735-8.006v-52.856c0-6.191-2.083-11.582-6.246-16.174
			C152.263,354.356,146.87,352.062,140.248,352.062L140.248,352.062z"/>
		<path id="flowRoot3192_1_" sodipodi:nodetypes="csscssssccccsccsccccsccccsccccsccccc" fill="#FFFFFF" d="M253.582,348.542
			c4.698,0,8.757-1.709,12.175-5.128c3.418-3.417,5.127-7.476,5.127-12.176c0-4.906-1.708-9.016-5.127-12.326
			c-3.418-3.311-7.478-4.966-12.175-4.966c-4.699,0-8.756,1.655-12.171,4.966c-3.416,3.311-5.122,7.42-5.122,12.326
			c0,4.7,1.706,8.759,5.122,12.176C244.826,346.833,248.883,348.542,253.582,348.542L253.582,348.542z M276.331,352.062h-45.81
			c-6.191,0-11.477,2.189-15.856,6.568c-4.379,4.381-6.569,9.772-6.569,16.179v53.17c0,5.129,2.349,7.693,7.049,7.693
			c4.483,0,6.725-2.564,6.725-7.693V376.09h8.33v140.945c0,6.406,3.203,9.609,9.609,9.609c6.407,0,9.61-3.203,9.61-9.609V435.35
			h8.329v81.686c0,6.406,3.203,9.609,9.609,9.609c6.621,0,9.933-3.203,9.933-9.609V376.09h8.005v51.889
			c0,5.337,2.242,8.006,6.727,8.006c4.489,0,6.734-2.669,6.734-8.006v-52.856c0-6.191-2.083-11.582-6.247-16.174
			C288.345,354.356,282.951,352.062,276.331,352.062L276.331,352.062z"/>
	</g>
	<g>
		<path fill="#FFFFFF" d="M280.724,63.151c-9.048,8.975-9.109,23.587-0.134,32.636l23.886,24.083l8.77-56.69
			C304.261,54.243,289.737,54.213,280.724,63.151z"/>
		<path fill="#FFFFFF" d="M391.429,168.101l-19.011-25.62l-6.141,39.701l1.435,1.447
			C372.018,176.218,380.716,170.468,391.429,168.101z"/>
		<polygon fill="#FFFFFF" points="339.748,155.434 357.168,172.997 363.705,130.738 347.042,108.282 		"/>
		<polygon fill="#FFFFFF" points="313.584,129.054 330.639,146.249 338.329,96.539 322.015,74.554 		"/>
		<path fill="#FFFFFF" d="M521.496,61.003c-6.914-5.129-15.745-5.802-23.095-2.554l8.469,54.74l17.26-17.403
			c0.729-0.745,1.509-1.639,2.147-2.499C533.872,83.052,531.731,68.598,521.496,61.003z"/>
		<polygon fill="#FFFFFF" points="447.353,122.198 454.178,166.317 471.597,148.753 464.016,99.741 		"/>
		<polygon fill="#FFFFFF" points="472.729,87.999 480.707,139.569 497.761,122.374 489.043,66.013 		"/>
		<path fill="#FFFFFF" d="M413.291,168.101c10.712,2.368,19.411,8.117,23.716,15.529l8.062-8.129l-6.43-41.561L413.291,168.101z"/>
		<path fill="#FFFFFF" d="M409.471,173.25c-2.289-0.354-4.667-0.548-7.112-0.548c-2.444,0-4.821,0.194-7.108,0.548
			c-11.096,1.719-19.996,7.365-23.298,14.653c-0.9,1.985-1.388,4.091-1.388,6.272c0,11.84,14.263,21.473,31.794,21.473
			c17.532,0,31.796-9.633,31.796-21.473c0-2.182-0.487-4.287-1.387-6.271C429.466,180.617,420.566,174.97,409.471,173.25z"/>
		<path fill="#FFFFFF" d="M379.341,387.174c-0.057,0.963-0.065,2.073,0,3.062c0.846,12.712,11.836,22.332,24.549,21.487
			c8.856-0.59,16.2-6.108,19.563-13.696l-42.46-35.69L379.341,387.174z"/>
		<polygon fill="#FFFFFF" points="384.331,312.119 422.522,344.222 420.691,316.685 385.968,287.497 		"/>
		<polygon fill="#FFFFFF" points="386.824,274.624 419.733,302.287 417.942,275.329 388.427,250.519 		"/>
		<polygon fill="#FFFFFF" points="383.476,324.993 381.849,349.464 425.299,385.987 423.48,358.619 		"/>
		<path fill="#FFFFFF" d="M406.97,221.216c-1.177-0.457-2.438-0.755-3.765-0.843c-1.921-0.127-3.765,0.19-5.448,0.844
			c-4.472,1.737-7.775,5.925-8.115,11.028l-0.359,5.4l27.702,23.285l-1.907-28.685C414.751,227.255,411.519,222.982,406.97,221.216z
			"/>
	</g>
</g>
</svg>
