<?xml version="1.0" encoding="utf-8"?>
<!-- Generator: Adobe Illustrator 15.0.0, SVG Export Plug-In . SVG Version: 6.00 Build 0)  -->
<!DOCTYPE svg PUBLIC "-//W3C//DTD SVG 1.1//EN" "http://www.w3.org/Graphics/SVG/1.1/DTD/svg11.dtd">
<svg version="1.1" xmlns="http://www.w3.org/2000/svg" xmlns:xlink="http://www.w3.org/1999/xlink" x="0px" y="0px" width="580px"
	 height="580px" viewBox="0 0 580 580" enable-background="new 0 0 580 580" xml:space="preserve">
<g id="Layer_2">
	<g id="g1327">
		<path id="path1329" fill="#111111" stroke="#EEEEEE" stroke-width="3.408" d="M66.275,1.768
			c-41.335,0-64.571,21.371-64.571,65.036v450.123c0,40.844,20.894,62.229,62.192,62.229H515.92
			c41.307,0,62.229-20.316,62.229-62.229V66.804c0-42.601-20.923-65.036-63.522-65.036C514.624,1.768,66.133,1.625,66.275,1.768z"/>
	</g>
</g>
<g id="svg2" inkscape:version="0.46" sodipodi:docname="waste_bin.svg" sodipodi:version="0.32" xmlns:dc="http://purl.org/dc/elements/1.1/" xmlns:cc="http://creativecommons.org/ns#" xmlns:sodipodi="http://sodipodi.sourceforge.net/DTD/sodipodi-0.dtd" xmlns:svg="http://www.w3.org/2000/svg" xmlns:rdf="http://www.w3.org/1999/02/22-rdf-syntax-ns#" xmlns:inkscape="http://www.inkscape.org/namespaces/inkscape" inkscape:output_extension="org.inkscape.output.svg.inkscape">
	<defs>
		
		
			<inkscape:perspective  id="perspective24" inkscape:persp3d-origin="290 : 193.33333 : 1" inkscape:vp_y="0 : 1000 : 0" inkscape:vp_x="0 : 290 : 1" sodipodi:type="inkscape:persp3d" inkscape:vp_z="580 : 290 : 1">
			</inkscape:perspective>
		
			<inkscape:perspective  id="perspective2683" inkscape:persp3d-origin="306.082 : 204.39034 : 1" inkscape:vp_y="0 : 1000 : 0" inkscape:vp_x="0 : 306.58551 : 1" sodipodi:type="inkscape:persp3d" inkscape:vp_z="612.164 : 306.58551 : 1">
			</inkscape:perspective>
		
			<inkscape:perspective  id="perspective2953" inkscape:persp3d-origin="306.082 : 204.39034 : 1" inkscape:vp_y="0 : 1000 : 0" inkscape:vp_x="0 : 306.58551 : 1" sodipodi:type="inkscape:persp3d" inkscape:vp_z="612.164 : 306.58551 : 1">
			</inkscape:perspective>
		
			<inkscape:perspective  id="perspective3071" inkscape:persp3d-origin="180.936 : 163.92867 : 1" inkscape:vp_y="0 : 1000 : 0" inkscape:vp_x="0 : 245.89301 : 1" sodipodi:type="inkscape:persp3d" inkscape:vp_z="361.87201 : 245.89301 : 1">
			</inkscape:perspective>
	</defs>
	
		<sodipodi:namedview  id="base" inkscape:window-x="-4" inkscape:current-layer="svg2" inkscape:window-width="1280" inkscape:window-y="-4" inkscape:pageopacity="0.0" inkscape:window-height="1005" inkscape:pageshadow="2" bordercolor="#666666" inkscape:cy="415.25176" pagecolor="#ffffff" borderopacity="1.0" objecttolerance="10.0" inkscape:zoom="0.70710678" gridtolerance="10.0" showgrid="false" inkscape:cx="615.26172" guidetolerance="10.0">
		</sodipodi:namedview>
	<g>
		<rect x="93.538" y="461.075" fill="#FFFFFF" width="392.925" height="13.849"/>
		<polygon fill="#FFFFFF" points="508.965,487.039 71.035,487.039 62.957,537.237 517.043,537.237 		"/>
		<rect x="111.712" y="192.778" fill="#FFFFFF" width="34.62" height="254.449"/>
		<rect x="219.031" y="192.778" fill="#FFFFFF" width="34.62" height="254.449"/>
		<rect x="326.35" y="192.778" fill="#FFFFFF" width="34.619" height="254.449"/>
		<rect x="433.668" y="192.778" fill="#FFFFFF" width="34.62" height="254.449"/>
		<path fill="#FFFFFF" d="M513.961,176.046L290,42.763L66.039,176.046h228.957H513.961z M258.607,120.655
			c0-17.338,14.056-31.393,31.393-31.393c17.339,0,31.393,14.055,31.393,31.393c0,17.337-14.054,31.393-31.393,31.393
			C272.663,152.048,258.607,137.993,258.607,120.655z"/>
	</g>
</g>
</svg>
