<?xml version="1.0" encoding="UTF-8" standalone="no"?>
<!-- Generator: Adobe Illustrator 15.0.0, SVG Export Plug-In . SVG Version: 6.00 Build 0)  -->

<svg
   xmlns:dc="http://purl.org/dc/elements/1.1/"
   xmlns:cc="http://creativecommons.org/ns#"
   xmlns:rdf="http://www.w3.org/1999/02/22-rdf-syntax-ns#"
   xmlns:svg="http://www.w3.org/2000/svg"
   xmlns="http://www.w3.org/2000/svg"
   xmlns:sodipodi="http://sodipodi.sourceforge.net/DTD/sodipodi-0.dtd"
   xmlns:inkscape="http://www.inkscape.org/namespaces/inkscape"
   version="1.1"
   x="0px"
   y="0px"
   width="580px"
   height="580px"
   viewBox="0 0 580 580"
   enable-background="new 0 0 580 580"
   xml:space="preserve"
   id="svg2"
   inkscape:version="0.48.4 r9939"
   sodipodi:docname="cooperative_25045.svg"><metadata
   id="metadata43"><rdf:RDF><cc:Work
       rdf:about=""><dc:format>image/svg+xml</dc:format><dc:type
         rdf:resource="http://purl.org/dc/dcmitype/StillImage" /><dc:title></dc:title></cc:Work></rdf:RDF></metadata><defs
   id="defs41">
	
	
	
	
	
</defs><sodipodi:namedview
   pagecolor="#ffffff"
   bordercolor="#666666"
   borderopacity="1"
   objecttolerance="10"
   gridtolerance="10"
   guidetolerance="10"
   inkscape:pageopacity="0"
   inkscape:pageshadow="2"
   inkscape:window-width="1097"
   inkscape:window-height="747"
   id="namedview39"
   showgrid="false"
   inkscape:zoom="0.13788582"
   inkscape:cx="290"
   inkscape:cy="290"
   inkscape:window-x="567"
   inkscape:window-y="286"
   inkscape:window-maximized="0"
   inkscape:current-layer="svg2" />
<g
   id="Layer_2">
	<g
   id="g1327">
		<path
   id="path1329"
   fill="#111111"
   stroke="#EEEEEE"
   stroke-width="3.408"
   d="M66.275,1.768    c-41.335,0-64.571,21.371-64.571,65.036v450.123c0,40.844,20.894,62.229,62.192,62.229H515.92    c41.307,0,62.229-20.316,62.229-62.229V66.804c0-42.601-20.923-65.036-63.522-65.036C514.624,1.768,66.133,1.625,66.275,1.768z" />
	</g>
</g>
<g
   id="g9"
   transform="matrix(0.71683497,0,0,0.78219212,33.371849,92.159804)">
		<path
   style="fill:#ffffff"
   inkscape:connector-curvature="0"
   id="path11"
   d="m 309.094,427.584 h -66.456 c 1.362,-3.477 2.116,-7.256 2.116,-11.215 v -32.546 l -2.429,-29.659 c -4.677,-11.028 -15.604,-18.766 -28.338,-18.766 h -64.775 c -12.734,0 -23.661,7.737 -28.338,18.767 l -2.429,29.657 v 32.547 c 0,3.959 0.754,7.738 2.116,11.215 H 54.106 v 22.498 9 77.996 h 10.5 v -77.996 h 233.988 v 77.996 h 10.498 v -77.996 h 0.002 v -31.498 z m -88.63,-50.891 v 50.891 h -7.287 v -50.891 h 7.287 z m -77.729,0 h 7.288 v 50.891 h -7.288 v -50.891 z" />
		<circle
   style="fill:#ffffff"
   sodipodi:ry="37.650002"
   sodipodi:rx="37.650002"
   sodipodi:cy="284.664"
   sodipodi:cx="181.60001"
   id="circle13"
   r="37.650002"
   cy="284.664"
   cx="181.60001"
   d="m 219.25001,284.664 c 0,20.79352 -16.85648,37.65 -37.65,37.65 -20.79353,0 -37.65001,-16.85648 -37.65001,-37.65 0,-20.79352 16.85648,-37.65 37.65001,-37.65 20.79352,0 37.65,16.85648 37.65,37.65 z" />
	</g>
<g
   transform="matrix(0.71683497,0,0,0.78219212,73.986426,-147.01491)"
   id="g3041">
		<path
   d="m 309.094,427.584 h -66.456 c 1.362,-3.477 2.116,-7.256 2.116,-11.215 v -32.546 l -2.429,-29.659 c -4.677,-11.028 -15.604,-18.766 -28.338,-18.766 h -64.775 c -12.734,0 -23.661,7.737 -28.338,18.767 l -2.429,29.657 v 32.547 c 0,3.959 0.754,7.738 2.116,11.215 H 54.106 v 22.498 9 77.996 h 10.5 v -77.996 h 233.988 v 77.996 h 10.498 v -77.996 h 0.002 v -31.498 z m -88.63,-50.891 v 50.891 h -7.287 v -50.891 h 7.287 z m -77.729,0 h 7.288 v 50.891 h -7.288 v -50.891 z"
   id="path3043"
   inkscape:connector-curvature="0"
   style="fill:#ffffff" />
		<circle
   d="m 219.25001,284.664 c 0,20.79352 -16.85648,37.65 -37.65,37.65 -20.79353,0 -37.65001,-16.85648 -37.65001,-37.65 0,-20.79352 16.85648,-37.65 37.65001,-37.65 20.79352,0 37.65,16.85648 37.65,37.65 z"
   cx="181.60001"
   cy="284.664"
   r="37.650002"
   id="circle3045"
   sodipodi:cx="181.60001"
   sodipodi:cy="284.664"
   sodipodi:rx="37.650002"
   sodipodi:ry="37.650002"
   style="fill:#ffffff" />
	</g><g
   id="g3047"
   transform="matrix(0.71683497,0,0,0.78219212,290.59749,8.6742906)">
		<path
   style="fill:#ffffff"
   inkscape:connector-curvature="0"
   id="path3049"
   d="m 309.094,427.584 h -66.456 c 1.362,-3.477 2.116,-7.256 2.116,-11.215 v -32.546 l -2.429,-29.659 c -4.677,-11.028 -15.604,-18.766 -28.338,-18.766 h -64.775 c -12.734,0 -23.661,7.737 -28.338,18.767 l -2.429,29.657 v 32.547 c 0,3.959 0.754,7.738 2.116,11.215 H 54.106 v 22.498 9 77.996 h 10.5 v -77.996 h 233.988 v 77.996 h 10.498 v -77.996 h 0.002 v -31.498 z m -88.63,-50.891 v 50.891 h -7.287 v -50.891 h 7.287 z m -77.729,0 h 7.288 v 50.891 h -7.288 v -50.891 z" />
		<circle
   style="fill:#ffffff"
   sodipodi:ry="37.650002"
   sodipodi:rx="37.650002"
   sodipodi:cy="284.664"
   sodipodi:cx="181.60001"
   id="circle3051"
   r="37.650002"
   cy="284.664"
   cx="181.60001"
   d="m 219.25001,284.664 c 0,20.79352 -16.85648,37.65 -37.65,37.65 -20.79353,0 -37.65001,-16.85648 -37.65001,-37.65 0,-20.79352 16.85648,-37.65 37.65001,-37.65 20.79352,0 37.65,16.85648 37.65,37.65 z" />
	</g></svg>