<?xml version="1.0" encoding="utf-8"?>
<!-- Generator: Adobe Illustrator 15.0.0, SVG Export Plug-In . SVG Version: 6.00 Build 0)  -->
<!DOCTYPE svg PUBLIC "-//W3C//DTD SVG 1.1//EN" "http://www.w3.org/Graphics/SVG/1.1/DTD/svg11.dtd">
<svg version="1.1" xmlns="http://www.w3.org/2000/svg" xmlns:xlink="http://www.w3.org/1999/xlink" x="0px" y="0px" width="580px"
	 height="580px" viewBox="0 0 580 580" enable-background="new 0 0 580 580" xml:space="preserve">
<g id="Layer_1">
	<g id="Layer_1_1_">
		<g id="Layer_2">
			<g id="g1327">
				<path id="path1329" fill="#111111" stroke="#EEEEEE" stroke-width="3.408" d="M66.275,1.768
					c-41.335,0-64.571,21.371-64.571,65.036v450.123c0,40.844,20.895,62.229,62.192,62.229H515.92
					c41.307,0,62.229-20.315,62.229-62.229V66.804c0-42.601-20.925-65.036-63.521-65.036C514.624,1.768,66.133,1.625,66.275,1.768z"
					/>
			</g>
		</g>
	</g>
</g>
<g id="Layer_2_1_">
	<g>
		<g>
			<polygon fill="#FFFFFF" points="123.508,313.282 116.365,198.021 67.365,198.021 58.436,313.282 38.365,340.193 38.365,482.366 
				304.865,482.366 304.865,372.366 282.823,335.324 			"/>
			<path fill="#FFFFFF" d="M92.966,168.124c9.94,0,18-8.059,18-17.999c0-0.322-0.031-0.636-0.048-0.953
				c2.16,0.616,4.439,0.953,6.798,0.953c13.668,0,24.748-11.081,24.748-24.749c0-1.977-0.238-3.896-0.676-5.737
				c1.799,0.249,3.652,0.386,5.551,0.386c16.36,0,29.624-9.715,29.624-21.698s-13.263-21.698-29.624-21.698
				s-29.623,9.715-29.623,21.698c0,0.778,0.059,1.548,0.168,2.306c-0.057-0.001-0.111-0.005-0.168-0.005
				c-13.669,0-24.749,11.081-24.749,24.749c0,2.358,0.337,4.637,0.953,6.798c-0.318-0.017-0.632-0.048-0.954-0.048
				c-9.94,0-17.999,8.059-17.999,17.999S83.026,168.124,92.966,168.124z"/>
		</g>
		<g>
			<path fill-rule="evenodd" clip-rule="evenodd" fill="#FFFFFF" d="M508.382,217.936c-0.048,4.612-3.726,7.045-3.845,12.175
				c-0.087,3.755,2.912,6.563,2.563,10.252c-0.391,4.123-9.813,9.159-6.407,10.251c50.014,16.036,42.336,67.776,37.162,105.722
				c-2.388,17.515-10.984,38.062-17.94,51.898c-3.234,6.434-7.861,14.356-12.814,22.427c-4.237,6.902-12.475,16.931-12.815,21.784
				c-0.355,5.08,3.703,8.888,2.563,17.3c-3.006,22.188-31.077,35.894-60.87,33.318c-19.161-1.656-40.313-10.876-42.929-30.755
				c-0.938-7.13,1.117-14.491,0-20.504c-0.952-5.118-7.028-11.914-10.893-18.581c-10.335-17.827-20.6-39.241-26.271-61.51
				c-2.574-10.111-24.338-92.889,28.833-121.1c0.313-3.249-5.204-4.801-5.767-9.61c-0.353-3.019,2.641-6.916,2.563-10.893
				c-0.098-5.007-4.089-7.439-3.844-10.893c0.467-6.604,8.979-9.448,16.658-9.611c4.496-14.299,11.887-25.702,22.426-33.959
				c8.409-2.696,15.55-6.662,19.862-13.455c-4.426-10.112-1.029-23.667,9.611-20.504c1.67,0.497,5.383,3.952,5.767,7.689
				c0.512,4.978-3.272,6.058-2.563,12.174c0.373,3.212,1.902,2.893,2.563,6.408c17.686,7.943,29.623,21.635,38.444,38.444
				C497.266,209.403,505.292,211.2,508.382,217.936z"/>
		</g>
	</g>
</g>
</svg>
