<?xml version="1.0" encoding="UTF-8" standalone="no"?>
<!-- Generator: Adobe Illustrator 15.0.0, SVG Export Plug-In . SVG Version: 6.00 Build 0)  -->

<svg
   xmlns:dc="http://purl.org/dc/elements/1.1/"
   xmlns:cc="http://creativecommons.org/ns#"
   xmlns:rdf="http://www.w3.org/1999/02/22-rdf-syntax-ns#"
   xmlns:svg="http://www.w3.org/2000/svg"
   xmlns="http://www.w3.org/2000/svg"
   xmlns:sodipodi="http://sodipodi.sourceforge.net/DTD/sodipodi-0.dtd"
   xmlns:inkscape="http://www.inkscape.org/namespaces/inkscape"
   version="1.1"
   x="0px"
   y="0px"
   width="580px"
   height="580px"
   viewBox="0 0 580 580"
   enable-background="new 0 0 580 580"
   xml:space="preserve"
   id="svg4586"
   sodipodi:docname="dog_toilet.svg"
   inkscape:version="0.92.3 (2405546, 2018-03-11)"><metadata
   id="metadata4592"><rdf:RDF><cc:Work
       rdf:about=""><dc:format>image/svg+xml</dc:format><dc:type
         rdf:resource="http://purl.org/dc/dcmitype/StillImage" /><dc:title></dc:title></cc:Work></rdf:RDF></metadata><defs
   id="defs4590">
	
	
	
</defs><sodipodi:namedview
   pagecolor="#ffffff"
   bordercolor="#666666"
   borderopacity="1"
   objecttolerance="10"
   gridtolerance="10"
   guidetolerance="10"
   inkscape:pageopacity="0"
   inkscape:pageshadow="2"
   inkscape:window-width="1734"
   inkscape:window-height="923"
   id="namedview4588"
   showgrid="false"
   inkscape:zoom="0.9"
   inkscape:cx="47.222222"
   inkscape:cy="290"
   inkscape:window-x="52"
   inkscape:window-y="52"
   inkscape:window-maximized="0"
   inkscape:current-layer="svg4586" />
<g
   id="Layer_1">
	<g
   id="Layer_1_1_">
		<g
   id="Layer_2">
			<g
   id="g1327">
				<path
   id="path1329"
   d="M66.275,1.768      c-41.335,0-64.571,21.371-64.571,65.036v450.123c0,40.844,20.895,62.229,62.192,62.229H515.92      c41.307,0,62.229-20.315,62.229-62.229V66.804c0-42.601-20.925-65.036-63.521-65.036C514.624,1.768,66.133,1.625,66.275,1.768z"
   stroke-width="3.408"
   stroke="#EEEEEE"
   fill="#111111" />
			</g>
		</g>
	</g>
</g>

<g
   transform="matrix(1.068774,0,0,1.068774,56.514195,57.017832)"
   id="g43"
   style="fill:#ffffff;fill-opacity:1"><path
     inkscape:connector-curvature="0"
     d="m 434.562,76.253 c -1.656,-1.895 -4.029,-3.01 -6.544,-3.075 l -44.219,-1.146 c -6.147,-10.159 -17.319,-16.65 -29.45,-16.65 -1.294,0 -2.581,0.073 -3.86,0.218 L 339.435,32.374 c -1.537,-3.231 -4.839,-5.23 -8.42,-5.127 -3.577,0.117 -6.744,2.342 -8.068,5.666 l -6.016,15.11 -14.394,-19.498 c -2.308,-3.127 -6.362,-4.419 -10.054,-3.204 -3.692,1.215 -6.186,4.662 -6.186,8.549 v 150.995 c 0,0 -164.967,35.907 -165.607,36.219 -10.604,1.422 -21.143,-1.31 -29.727,-7.721 -8.706,-6.502 -14.357,-16.005 -15.915,-26.759 -1.558,-10.753 1.164,-21.469 7.665,-30.174 6.502,-8.705 16.004,-14.357 26.757,-15.915 4.92,-0.713 8.329,-5.278 7.616,-10.198 -0.713,-4.919 -5.275,-8.331 -10.197,-7.616 -15.512,2.248 -29.219,10.401 -38.598,22.959 -9.379,12.557 -13.306,28.015 -11.058,43.525 2.247,15.512 10.4,29.22 22.958,38.6 8.133,6.075 17.483,9.852 27.276,11.156 -1.827,3.778 -3.58,8.186 -4.968,13.204 -4.396,15.891 -5.973,41.246 10.281,73.465 l -26.406,35.866 c -1.712,2.325 -2.205,5.331 -1.324,8.081 l 11.565,36.104 c 1.194,3.727 4.658,6.255 8.571,6.255 h 11.777 c 0.006,0 0.012,0 0.02,0 4.971,0 9,-4.029 9,-9 0,-1.057 -0.182,-2.07 -0.516,-3.012 l -5.092,-18.279 75.044,-51.939 c 0.229,-0.159 0.452,-0.329 0.666,-0.509 7.26,-6.097 13.024,-13.28 17.194,-21.414 l 94.665,-1.674 15.443,98.224 c 0.688,4.378 4.46,7.603 8.891,7.603 h 9.691 c 4.971,0 9,-4.029 9,-9 V 302.724 c 11.568,-5.962 14.228,-18.303 14.23,-28.383 V 149.618 c 37.415,-0.701 67.39,-28.437 71.533,-66.468 0.273,-2.501 -0.514,-5.002 -2.17,-6.897 z"
     id="path39"
     style="fill:#ffffff;fill-opacity:1" /><path
     inkscape:connector-curvature="0"
     d="m 59.414,388.566 h -0.837 c 1.479,-1.832 2.37,-4.159 2.37,-6.692 0,-5.886 -4.788,-10.675 -10.674,-10.675 h -0.696 c 1.479,-1.832 2.37,-4.159 2.37,-6.692 0,-5.887 -4.788,-10.676 -10.674,-10.676 H 28.816 c -5.886,0 -10.674,4.789 -10.674,10.676 0,2.533 0.891,4.86 2.37,6.692 h -0.696 c -5.886,0 -10.674,4.789 -10.674,10.675 0,2.533 0.891,4.86 2.37,6.692 H 10.675 C 4.789,388.566 0,393.355 0,399.242 c 0,5.886 4.789,10.675 10.676,10.675 h 48.738 c 5.886,0 10.674,-4.789 10.674,-10.675 0,-5.887 -4.788,-10.676 -10.674,-10.676 z"
     id="path41"
     style="fill:#ffffff;fill-opacity:1" /></g></svg>