<?xml version="1.0" encoding="utf-8"?>
<!-- Generator: Adobe Illustrator 15.0.0, SVG Export Plug-In . SVG Version: 6.00 Build 0)  -->
<!DOCTYPE svg PUBLIC "-//W3C//DTD SVG 1.1//EN" "http://www.w3.org/Graphics/SVG/1.1/DTD/svg11.dtd">
<svg version="1.1" xmlns="http://www.w3.org/2000/svg" xmlns:xlink="http://www.w3.org/1999/xlink" x="0px" y="0px" width="580px"
	 height="580px" viewBox="0 0 580 580" enable-background="new 0 0 580 580" xml:space="preserve">
<g id="Layer_1">
	<g id="Layer_1_1_">
		<g id="Layer_2">
			<g id="g1327">
				<path id="path1329" fill="#111111" stroke="#EEEEEE" stroke-width="3.408" d="M66.275,1.768
					c-41.335,0-64.571,21.371-64.571,65.036v450.123c0,40.844,20.895,62.229,62.192,62.229H515.92
					c41.307,0,62.229-20.315,62.229-62.229V66.804c0-42.601-20.925-65.036-63.521-65.036C514.624,1.768,66.133,1.625,66.275,1.768z"
					/>
			</g>
		</g>
	</g>
</g>
<g id="Layer_2_1_">
	<path fill="#FFFFFF" d="M495.496,314.459l0.189-0.379h-6.697c-21.64-1.869-37.002-9.506-46.734-16.38v-8.504h40.638l-0.063-0.174
		c1.587-0.066,3.162-0.151,4.723-0.259c47.479-3.274,58.392-48.023,58.392-48.023c-79.672,37.179-114.879-26.954-116.703-30.406
		v-0.154h-0.178l-39.277-36.51h-56.127v-26.795h27.233c0,0-34.324-13.097-51.787-30.56C291.641,98.851,290,74.84,290,74.84
		s-1.64,24.011-19.104,41.475c-17.464,17.463-51.788,30.56-51.788,30.56h27.234v26.795h-61.196l-34.208,36.51h-0.097
		c0,0-34.926,68.759-116.784,30.56c0,0,10.812,44.306,57.702,47.966l-0.212,0.49h56.268c-6.743,6.912-24.985,22.136-56.802,24.884
		H75.531l0.203,0.324c-12.252-0.504-26.114-2.816-41.677-7.771c0,0,10.755,30.023,57.257,32.692l0.232,0.372h36.646V505.16H249.95
		v-72.165c0-22.119,17.931-40.051,40.05-40.051c22.119,0,40.05,17.932,40.05,40.051v72.165h121.758V339.697h31.084l0.062-0.122
		c1.545-0.045,3.079-0.103,4.599-0.174c47.479-2.233,58.392-32.769,58.392-32.769C526.544,312.81,509.784,314.884,495.496,314.459z"
		/>
</g>
</svg>
