<?xml version="1.0" encoding="UTF-8" standalone="no"?>
<!-- Generator: Adobe Illustrator 15.0.0, SVG Export Plug-In . SVG Version: 6.00 Build 0)  -->

<svg
   xmlns:dc="http://purl.org/dc/elements/1.1/"
   xmlns:cc="http://creativecommons.org/ns#"
   xmlns:rdf="http://www.w3.org/1999/02/22-rdf-syntax-ns#"
   xmlns:svg="http://www.w3.org/2000/svg"
   xmlns="http://www.w3.org/2000/svg"
   xmlns:sodipodi="http://sodipodi.sourceforge.net/DTD/sodipodi-0.dtd"
   xmlns:inkscape="http://www.inkscape.org/namespaces/inkscape"
   version="1.1"
   x="0px"
   y="0px"
   width="580px"
   height="580px"
   viewBox="0 0 580 580"
   enable-background="new 0 0 580 580"
   xml:space="preserve"
   id="svg5913"
   sodipodi:docname="dressing_room.svg"
   inkscape:version="0.92.3 (2405546, 2018-03-11)"><metadata
   id="metadata5919"><rdf:RDF><cc:Work
       rdf:about=""><dc:format>image/svg+xml</dc:format><dc:type
         rdf:resource="http://purl.org/dc/dcmitype/StillImage" /><dc:title></dc:title></cc:Work></rdf:RDF></metadata><defs
   id="defs5917" /><sodipodi:namedview
   pagecolor="#ffffff"
   bordercolor="#666666"
   borderopacity="1"
   objecttolerance="10"
   gridtolerance="10"
   guidetolerance="10"
   inkscape:pageopacity="0"
   inkscape:pageshadow="2"
   inkscape:window-width="1346"
   inkscape:window-height="806"
   id="namedview5915"
   showgrid="false"
   inkscape:zoom="1.0824912"
   inkscape:cx="290"
   inkscape:cy="290"
   inkscape:window-x="521"
   inkscape:window-y="34"
   inkscape:window-maximized="0"
   inkscape:current-layer="svg5913" />
<g
   id="Layer_2">
	<g
   id="g1327">
		<path
   id="path1329"
   fill="#111111"
   stroke="#EEEEEE"
   stroke-width="3.408"
   d="M66.275,1.768    c-41.335,0-64.571,21.371-64.571,65.036v450.123c0,40.844,20.894,62.229,62.192,62.229H515.92    c41.307,0,62.229-20.316,62.229-62.229V66.804c0-42.601-20.923-65.036-63.522-65.036C514.624,1.768,66.133,1.625,66.275,1.768z" />
	</g>
</g>

<g
   id="g6589"><g
     id="g6466"
     inkscape:version="0.46"
     sodipodi:docname="waste_bin.svg"
     sodipodi:version="0.32"
     inkscape:output_extension="org.inkscape.output.svg.inkscape"
     transform="matrix(0.51558769,0,0,0.51558769,135.66568,118.47263)">
	<path
   d="M 166.597,69.102 V 528.079 H 433.583 V 69.102 Z m 220.489,249.827 c -13.144,0 -24.202,-8.899 -27.495,-20.999 h -91.749 c -4.557,0 -8.25,-3.693 -8.25,-8.249 0,-4.557 3.693,-8.25 8.25,-8.25 h 92.204 c 3.769,-11.327 14.446,-19.499 27.04,-19.499 15.738,0 28.498,12.759 28.498,28.499 0,15.739 -12.76,28.498 -28.498,28.498 z"
   id="path6464"
   inkscape:connector-curvature="0"
   style="fill:#ffffff" />
</g><g
     transform="matrix(0.51558769,0,0,0.51558769,-14.912905,119.39643)"
     inkscape:output_extension="org.inkscape.output.svg.inkscape"
     sodipodi:version="0.32"
     sodipodi:docname="waste_bin.svg"
     inkscape:version="0.46"
     id="svg2">
	<path
   style="fill:#ffffff"
   inkscape:connector-curvature="0"
   id="path5910"
   d="M 166.597,69.102 V 528.079 H 433.583 V 69.102 Z m 220.489,249.827 c -13.144,0 -24.202,-8.899 -27.495,-20.999 h -91.749 c -4.557,0 -8.25,-3.693 -8.25,-8.249 0,-4.557 3.693,-8.25 8.25,-8.25 h 92.204 c 3.769,-11.327 14.446,-19.499 27.04,-19.499 15.738,0 28.498,12.759 28.498,28.499 0,15.739 -12.76,28.498 -28.498,28.498 z" />
</g><g
     transform="matrix(0.51558769,0,0,0.51558769,285.32048,119.39643)"
     inkscape:output_extension="org.inkscape.output.svg.inkscape"
     sodipodi:version="0.32"
     sodipodi:docname="waste_bin.svg"
     inkscape:version="0.46"
     id="g6470">
	<path
   style="fill:#ffffff"
   inkscape:connector-curvature="0"
   id="path6468"
   d="M 166.597,69.102 V 528.079 H 433.583 V 69.102 Z m 220.489,249.827 c -13.144,0 -24.202,-8.899 -27.495,-20.999 h -91.749 c -4.557,0 -8.25,-3.693 -8.25,-8.249 0,-4.557 3.693,-8.25 8.25,-8.25 h 92.204 c 3.769,-11.327 14.446,-19.499 27.04,-19.499 15.738,0 28.498,12.759 28.498,28.499 0,15.739 -12.76,28.498 -28.498,28.498 z" />
</g><g
     transform="matrix(1,0,0,0.52652994,-317.15478,146.35774)"
     id="g6525"><path
       style="fill:#ffffff"
       inkscape:connector-curvature="0"
       id="path6521"
       d="m 456.818,346.058 c 4.828,0 8.997,-1.756 12.51,-5.269 3.512,-3.512 5.268,-7.681 5.268,-12.508 0,-5.042 -1.756,-9.264 -5.268,-12.666 -3.513,-3.4 -7.682,-5.102 -12.51,-5.102 -4.827,0 -8.995,1.701 -12.504,5.102 -3.508,3.402 -5.263,7.624 -5.263,12.666 0,4.827 1.755,8.996 5.263,12.508 3.509,3.513 7.677,5.269 12.504,5.269 z" /><path
       style="fill:#ffffff"
       inkscape:connector-curvature="0"
       id="path6523"
       d="m 496.812,356.748 c -4.278,-4.716 -9.819,-7.074 -16.621,-7.075 h -47.063 c -6.361,10e-4 -11.792,2.25 -16.291,6.749 -4.499,4.5 -6.749,10.04 -6.749,16.622 v 54.626 c 0,5.27 2.414,7.904 7.241,7.904 4.606,0 6.909,-2.635 6.91,-7.904 v -53.31 h 8.557 v 144.805 c 0,6.582 3.291,9.873 9.873,9.873 6.581,0 9.872,-3.291 9.872,-9.873 v -83.922 h 8.558 v 83.922 c 0,6.582 3.29,9.873 9.872,9.873 6.803,0 10.204,-3.291 10.205,-9.873 V 374.36 h 8.226 v 53.31 c -10e-4,5.484 2.303,8.227 6.909,8.227 4.612,0 6.92,-2.742 6.92,-8.227 v -54.305 c -0.002,-6.36 -2.141,-11.899 -6.419,-16.617 z" /></g><g
     id="g6541"
     transform="matrix(1,0,0,0.52652994,-167.49998,148.20533)"><path
       d="m 456.818,346.058 c 4.828,0 8.997,-1.756 12.51,-5.269 3.512,-3.512 5.268,-7.681 5.268,-12.508 0,-5.042 -1.756,-9.264 -5.268,-12.666 -3.513,-3.4 -7.682,-5.102 -12.51,-5.102 -4.827,0 -8.995,1.701 -12.504,5.102 -3.508,3.402 -5.263,7.624 -5.263,12.666 0,4.827 1.755,8.996 5.263,12.508 3.509,3.513 7.677,5.269 12.504,5.269 z"
       id="path6537"
       inkscape:connector-curvature="0"
       style="fill:#ffffff" /><path
       d="m 496.812,356.748 c -4.278,-4.716 -9.819,-7.074 -16.621,-7.075 h -47.063 c -6.361,10e-4 -11.792,2.25 -16.291,6.749 -4.499,4.5 -6.749,10.04 -6.749,16.622 v 54.626 c 0,5.27 2.414,7.904 7.241,7.904 4.606,0 6.909,-2.635 6.91,-7.904 v -53.31 h 8.557 v 144.805 c 0,6.582 3.291,9.873 9.873,9.873 6.581,0 9.872,-3.291 9.872,-9.873 v -83.922 h 8.558 v 83.922 c 0,6.582 3.29,9.873 9.872,9.873 6.803,0 10.204,-3.291 10.205,-9.873 V 374.36 h 8.226 v 53.31 c -10e-4,5.484 2.303,8.227 6.909,8.227 4.612,0 6.92,-2.742 6.92,-8.227 v -54.305 c -0.002,-6.36 -2.141,-11.899 -6.419,-16.617 z"
       id="path6539"
       inkscape:connector-curvature="0"
       style="fill:#ffffff" /></g></g></svg>