<?xml version="1.0" encoding="utf-8"?>
<!-- Generator: Adobe Illustrator 15.0.0, SVG Export Plug-In . SVG Version: 6.00 Build 0)  -->
<!DOCTYPE svg PUBLIC "-//W3C//DTD SVG 1.1//EN" "http://www.w3.org/Graphics/SVG/1.1/DTD/svg11.dtd">
<svg version="1.1" xmlns="http://www.w3.org/2000/svg" xmlns:xlink="http://www.w3.org/1999/xlink" x="0px" y="0px" width="580px"
	 height="580px" viewBox="0 0 580 580" enable-background="new 0 0 580 580" xml:space="preserve">
<g id="Layer_2">
	<g id="g1327">
		<path id="path1329" fill="#111111" stroke="#EEEEEE" stroke-width="3.408" d="M66.275,1.768
			c-41.335,0-64.571,21.371-64.571,65.036v450.123c0,40.844,20.894,62.229,62.192,62.229H515.92
			c41.307,0,62.229-20.316,62.229-62.229V66.804c0-42.601-20.923-65.036-63.522-65.036C514.624,1.768,66.133,1.625,66.275,1.768z"/>
	</g>
</g>
<g id="svg2" inkscape:output_extension="org.inkscape.output.svg.inkscape" inkscape:version="0.46" sodipodi:docname="waste_bin.svg" sodipodi:version="0.32" xmlns:inkscape="http://www.inkscape.org/namespaces/inkscape" xmlns:rdf="http://www.w3.org/1999/02/22-rdf-syntax-ns#" xmlns:svg="http://www.w3.org/2000/svg" xmlns:sodipodi="http://sodipodi.sourceforge.net/DTD/sodipodi-0.dtd" xmlns:cc="http://creativecommons.org/ns#" xmlns:dc="http://purl.org/dc/elements/1.1/">
	<g>
		<g>
			<path fill="#FFFFFF" d="M246.405,155.62c28.695-2.847,64.129-3.718,99.387,0c24.745,2.729,48.909,7.261,48.909,27.474
				l141.5-0.116c-2.498-23.118-41.067-107.343-239.492-109.841C87.597,70.522,43.625,159.801,44.031,183.21h138.072
				C182.104,163.925,203.073,160.092,246.405,155.62z"/>
			<path fill="#FFFFFF" d="M182.277,246.873v-39.15H43.857c0,0-0.116,39.034,0,39.034v0.116h-0.059
				c0,8.945,7.261,15.335,15.451,15.335l0.116,0.116c0,0,107.577-0.116,107.692-0.116
				C175.54,262.208,182.277,255.296,182.277,246.873z"/>
			<path fill="#FFFFFF" d="M394.701,246.873c0,8.945,7.261,15.335,15.451,15.335v0.116c0,0,110.714-0.116,110.83-0.116
				c8.48,0,15.219-6.912,15.219-15.335v-39.15h-141.5l-0.116,39.034L394.701,246.873z"/>
		</g>
		<g>
			<path fill="#FFFFFF" d="M529.139,425.527c-4.624-7.47-11.026-13.355-19.207-17.665c-8.181-4.309-20.808-8.478-37.881-12.509
				c-17.072-4.03-27.822-7.902-32.248-11.619c-3.479-2.924-5.218-6.44-5.218-10.551c0-4.506,1.857-8.103,5.574-10.79
				c5.768-4.189,13.752-6.284,23.948-6.284c9.881,0,17.29,1.956,22.23,5.869c4.938,3.913,8.161,10.336,9.663,19.268l35.095-1.542
				c-0.556-15.965-6.343-28.73-17.369-38.295c-11.027-9.563-27.446-14.347-49.263-14.347c-13.358,0-24.762,2.015-34.206,6.045
				c-9.446,4.032-16.678,9.901-21.696,17.607c-5.021,7.707-7.529,15.988-7.529,24.84c0,13.754,5.335,25.412,16.006,34.975
				c7.589,6.798,20.787,12.529,39.6,17.191c14.623,3.637,23.988,6.166,28.101,7.588c6.005,2.135,10.215,4.645,12.626,7.529
				c2.41,2.887,3.616,6.384,3.616,10.492c0,6.402-2.865,11.994-8.596,16.776c-5.732,4.785-14.247,7.174-25.55,7.174
				c-10.671,0-19.148-2.686-25.433-8.063c-6.282-5.375-10.454-13.792-12.509-25.254l-34.146,3.32
				c2.291,19.444,9.327,34.245,21.104,44.401c11.775,10.158,28.652,15.234,50.626,15.234c15.097,0,27.704-2.114,37.822-6.342
				c10.117-4.229,17.94-10.689,23.475-19.385c5.531-8.695,8.3-18.023,8.3-27.981C536.075,442.228,533.763,432.997,529.139,425.527z"
				/>
			<path fill="#FFFFFF" d="M159.107,407.862c-8.18-4.309-20.808-8.478-37.88-12.509c-17.073-4.03-27.823-7.902-32.249-11.619
				c-3.48-2.924-5.217-6.44-5.217-10.551c0-4.506,1.856-8.103,5.571-10.79c5.77-4.189,13.754-6.284,23.95-6.284
				c9.879,0,17.291,1.956,22.231,5.869c4.938,3.913,8.161,10.336,9.663,19.268l35.094-1.542
				c-0.554-15.965-6.344-28.73-17.369-38.295c-11.027-9.563-27.448-14.347-49.262-14.347c-13.358,0-24.761,2.015-34.206,6.045
				c-9.446,4.032-16.679,9.901-21.697,17.607c-5.021,7.707-7.528,15.988-7.528,24.84c0,13.754,5.335,25.412,16.005,34.975
				c7.589,6.798,20.788,12.529,39.601,17.191c14.622,3.637,23.988,6.166,28.1,7.588c6.006,2.135,10.213,4.645,12.626,7.529
				c2.409,2.887,3.616,6.384,3.616,10.492c0,6.402-2.866,11.994-8.597,16.776c-5.731,4.785-14.248,7.174-25.549,7.174
				c-10.671,0-19.148-2.686-25.432-8.063c-6.284-5.375-10.454-13.792-12.508-25.254l-34.146,3.32
				c2.291,19.444,9.326,34.245,21.104,44.401c11.776,10.158,28.652,15.234,50.626,15.234c15.096,0,27.704-2.114,37.821-6.342
				c10.117-4.229,17.943-10.689,23.477-19.385c5.53-8.695,8.299-18.023,8.299-27.981c0-10.984-2.313-20.215-6.936-27.685
				C173.692,418.058,167.289,412.172,159.107,407.862z"/>
			<path fill="#FFFFFF" d="M291.719,327.063c-14.15,0-26.639,2.292-37.464,6.877c-8.144,3.397-15.633,8.615-22.469,15.649
				c-6.837,7.035-12.231,14.979-16.184,23.831c-5.296,12.016-7.943,26.874-7.943,44.579c0,27.666,7.626,49.38,22.883,65.148
				c15.254,15.771,35.804,23.655,61.651,23.655c25.529,0,45.922-7.925,61.177-23.772s22.884-37.801,22.884-65.86
				c0-28.297-7.688-50.39-23.061-66.276C337.818,335.006,317.327,327.063,291.719,327.063z M326.516,461.688
				c-8.972,10.079-20.451,15.117-34.442,15.117c-13.99,0-25.53-5.078-34.621-15.235c-9.088-10.154-13.632-25.076-13.632-44.758
				c0-19.995,4.427-34.954,13.278-44.874s20.51-14.88,34.975-14.88s26.063,4.902,34.799,14.701c8.732,9.803,13.1,24.661,13.1,44.579
				C339.972,436.494,335.487,451.612,326.516,461.688z"/>
		</g>
	</g>
</g>
</svg>
