<?xml version="1.0" encoding="utf-8"?>
<!-- Generator: Adobe Illustrator 15.0.0, SVG Export Plug-In . SVG Version: 6.00 Build 0)  -->
<!DOCTYPE svg PUBLIC "-//W3C//DTD SVG 1.1//EN" "http://www.w3.org/Graphics/SVG/1.1/DTD/svg11.dtd">
<svg version="1.1" xmlns="http://www.w3.org/2000/svg" xmlns:xlink="http://www.w3.org/1999/xlink" x="0px" y="0px" width="580px"
	 height="580px" viewBox="0 0 580 580" enable-background="new 0 0 580 580" xml:space="preserve">
<g id="Layer_1">
	<g id="Layer_2">
		<g id="g1327">
			<path id="path1329" fill="#111111" stroke="#EEEEEE" stroke-width="3.408" d="M66.275,1.768
				c-41.335,0-64.571,21.371-64.571,65.036v450.123c0,40.844,20.895,62.229,62.192,62.229h452.024
				c41.307,0,62.229-20.315,62.229-62.229V66.804c0-42.602-20.923-65.036-63.521-65.036C514.625,1.768,66.133,1.625,66.275,1.768z"
				/>
		</g>
	</g>
</g>
<g id="Layer_2_1_">
	<g>
		<rect x="164.006" y="523.949" fill="#FFFFFF" width="240.508" height="24.051"/>
		<rect x="172.752" y="133.669" fill="#FFFFFF" width="223.018" height="19.678"/>
		<path fill="#FFFFFF" d="M299.955,53.142c0.454-1.502,0.704-3.094,0.704-4.744c0-9.057-7.342-16.398-16.398-16.398
			s-16.398,7.342-16.398,16.398c0,1.65,0.25,3.242,0.704,4.744c-35.114,6.625-62.516,35.057-67.615,70.688h166.618
			C362.47,88.199,335.068,59.767,299.955,53.142z"/>
		<path fill="#FFFFFF" d="M422.552,264.309v-39.902h-45.368v146.492h45.368v-40.996c9.057,0,16.398-7.342,16.398-16.398v-32.796
			C438.951,271.651,431.609,264.309,422.552,264.309z"/>
		<polygon fill="#FFFFFF" points="200.082,370.898 200.082,516.297 368.438,516.297 368.438,370.898 368.438,224.406 
			368.438,162.093 200.082,162.093 200.082,224.406 		"/>
		<path fill="#FFFFFF" d="M191.337,370.898V224.406h-33.89v39.902c-9.057,0-16.398,7.342-16.398,16.398v32.796
			c0,9.057,7.342,16.398,16.398,16.398v40.996H191.337z"/>
	</g>
</g>
</svg>
