<?xml version="1.0" encoding="utf-8"?>
<!-- Generator: Adobe Illustrator 15.0.0, SVG Export Plug-In . SVG Version: 6.00 Build 0)  -->
<!DOCTYPE svg PUBLIC "-//W3C//DTD SVG 1.1//EN" "http://www.w3.org/Graphics/SVG/1.1/DTD/svg11.dtd">
<svg version="1.1" xmlns="http://www.w3.org/2000/svg" xmlns:xlink="http://www.w3.org/1999/xlink" x="0px" y="0px" width="580px"
	 height="580px" viewBox="0 0 580 580" enable-background="new 0 0 580 580" xml:space="preserve">
<g id="Layer_2">
	<g id="g1327">
		<path id="path1329" fill="#111111" stroke="#EEEEEE" stroke-width="3.408" d="M66.275,1.768
			c-41.335,0-64.571,21.371-64.571,65.036v450.123c0,40.844,20.894,62.229,62.192,62.229H515.92
			c41.307,0,62.229-20.316,62.229-62.229V66.804c0-42.601-20.923-65.036-63.522-65.036C514.624,1.768,66.133,1.625,66.275,1.768z"/>
	</g>
</g>
<g id="svg2" inkscape:output_extension="org.inkscape.output.svg.inkscape" sodipodi:version="0.32" sodipodi:docname="waste_bin.svg" inkscape:version="0.46" xmlns:dc="http://purl.org/dc/elements/1.1/" xmlns:cc="http://creativecommons.org/ns#" xmlns:rdf="http://www.w3.org/1999/02/22-rdf-syntax-ns#" xmlns:svg="http://www.w3.org/2000/svg" xmlns:sodipodi="http://sodipodi.sourceforge.net/DTD/sodipodi-0.dtd" xmlns:inkscape="http://www.inkscape.org/namespaces/inkscape">
	<g>
		<path fill="#FFFFFF" d="M312.771,345.396h107.713h3.87l3.142,2.262c15.889,11.439,19.259,23.84,19.289,32.229
			c0.027,7.553-2.525,14.244-5.845,19.754c63.702-14.539,111.235-71.541,111.235-139.65c0-3.277-0.119-6.526-0.336-9.749H266.028
			c-0.217,3.223-0.337,6.472-0.337,9.749c0,27.798,7.927,53.74,21.63,75.707C299.719,339.346,308.471,343.27,312.771,345.396z"/>
		<path fill="#FFFFFF" d="M542.537,397.057l-158.934,32.781l-69.807-17.123l105.371-6.586c0,0,1.791-1.311,4.158-3.611
			c7.989-7.764,22.559-26.834-2.842-45.121H309.846c0,0-3.542-2.004-10.077-4.672c-13.095-5.346-38.265-13.373-71.423-13.373
			c-11.834,0-24.68,1.021-38.359,3.555l-172.542-9.219v148.834l139.614-22.391l134.348,61.904c0,0,7.025,4.098,19.513,4.098
			c6.245,0,13.854-1.023,22.636-4.098l217.322-86.93C550.877,435.105,582.051,415.494,542.537,397.057z"/>
		<path fill="#FFFFFF" d="M337.158,155.608c-0.959,0.908-11.359,10.968-16.719,25.264c-5.19,13.849-6.449,34.3,17.038,53.082
			l7.07-5.654c-15.977-12.777-20.895-27.882-14.617-44.896c4.841-13.119,14.785-22.559,14.88-22.648l0.081-0.077
			c0.497-0.488,12.231-12.147,18.205-28.672c8.074-22.331,1.66-42.676-18.549-58.837c-7.433-5.943-12.687-12.391-15.769-19.303
			h-10.471c3.362,9.05,9.772,17.443,19.169,24.958c17.652,14.117,23.068,31.185,16.097,50.729
			C348.339,144.228,337.742,155.021,337.158,155.608z"/>
		<path fill="#FFFFFF" d="M397.971,155.608c-0.956,0.905-11.358,10.965-16.718,25.264c-5.191,13.849-6.449,34.3,17.037,53.082
			l7.07-5.654c-15.977-12.777-20.895-27.882-14.617-44.896c4.841-13.119,14.785-22.559,14.88-22.648l0.081-0.077
			c0.496-0.488,12.231-12.147,18.206-28.672c8.073-22.331,1.659-42.676-18.55-58.837c-7.433-5.943-12.687-12.391-15.769-19.303
			h-10.471c3.362,9.05,9.772,17.443,19.169,24.958c17.653,14.117,23.069,31.185,16.097,50.729
			C409.152,144.227,398.558,155.019,397.971,155.608z"/>
		<path fill="#FFFFFF" d="M458.784,155.608c-0.959,0.908-11.359,10.968-16.719,25.264c-5.19,13.849-6.449,34.3,17.038,53.082
			l7.07-5.654c-15.977-12.777-20.895-27.882-14.617-44.896c4.841-13.119,14.785-22.559,14.88-22.648l0.081-0.077
			c0.497-0.488,12.231-12.147,18.205-28.672c8.074-22.331,1.66-42.676-18.549-58.837c-7.432-5.943-12.687-12.391-15.769-19.303
			h-10.471c3.362,9.05,9.772,17.443,19.169,24.958c17.652,14.117,23.068,31.185,16.097,50.729
			C469.965,144.228,459.368,155.021,458.784,155.608z"/>
	</g>
</g>
</svg>
