<?xml version="1.0" encoding="UTF-8" standalone="no"?>
<!-- Generator: Adobe Illustrator 15.0.0, SVG Export Plug-In . SVG Version: 6.00 Build 0)  -->

<svg
   xmlns:dc="http://purl.org/dc/elements/1.1/"
   xmlns:cc="http://creativecommons.org/ns#"
   xmlns:rdf="http://www.w3.org/1999/02/22-rdf-syntax-ns#"
   xmlns:svg="http://www.w3.org/2000/svg"
   xmlns="http://www.w3.org/2000/svg"
   xmlns:sodipodi="http://sodipodi.sourceforge.net/DTD/sodipodi-0.dtd"
   xmlns:inkscape="http://www.inkscape.org/namespaces/inkscape"
   version="1.1"
   x="0px"
   y="0px"
   width="580px"
   height="580px"
   viewBox="0 0 580 580"
   enable-background="new 0 0 580 580"
   xml:space="preserve"
   id="svg898"
   sodipodi:docname="fork_lift.svg"
   inkscape:version="0.92.3 (2405546, 2018-03-11)"><metadata
   id="metadata904"><rdf:RDF><cc:Work
       rdf:about=""><dc:format>image/svg+xml</dc:format><dc:type
         rdf:resource="http://purl.org/dc/dcmitype/StillImage" /><dc:title></dc:title></cc:Work></rdf:RDF></metadata><defs
   id="defs902" /><sodipodi:namedview
   pagecolor="#ffffff"
   bordercolor="#666666"
   borderopacity="1"
   objecttolerance="10"
   gridtolerance="10"
   guidetolerance="10"
   inkscape:pageopacity="0"
   inkscape:pageshadow="2"
   inkscape:window-width="823"
   inkscape:window-height="480"
   id="namedview900"
   showgrid="false"
   inkscape:zoom="0.40689655"
   inkscape:cx="290"
   inkscape:cy="290"
   inkscape:window-x="1038"
   inkscape:window-y="464"
   inkscape:window-maximized="0"
   inkscape:current-layer="svg898" />
<g
   id="Layer_2">
	<g
   id="g1327">
		<path
   id="path1329"
   fill="#111111"
   stroke="#EEEEEE"
   stroke-width="3.408"
   d="M66.275,1.768    c-41.335,0-64.571,21.371-64.571,65.036v450.123c0,40.844,20.894,62.229,62.192,62.229H515.92    c41.307,0,62.229-20.316,62.229-62.229V66.804c0-42.601-20.923-65.036-63.522-65.036C514.624,1.768,66.133,1.625,66.275,1.768z" />
	</g>
</g>

<g
   transform="matrix(1.2992884,0,0,1.2992884,696.94857,-40.055741)"
   id="g948"
   style="fill:#ffffff;fill-opacity:1"><g
     style="fill:#ffffff;fill-opacity:1;stroke:#000000"
     transform="matrix(1.1414343,0,0,1.1414343,245.53947,-98.124337)"
     id="g946"><path
       inkscape:connector-curvature="0"
       d="m -501.18,175.99 -92.65,234.62 -41.071,-12.975 -5.0243,15.605 c 18.917,4.5648 38.838,13.073 57.575,17.624 l 6.2377,-21.562 h 25.406 c 0.75683,14.134 8.9195,28.421 24.088,28.455 15.236,1.2808 28.699,-9.6512 29.467,-27.705 l 61.273,-0.23767 c -1.8048,20.282 20.959,27.14 30.492,27.431 13.443,0 29.724,-11.957 30.492,-27.193 l 35.321,-0.23767 0.51234,-75.768 c -1.223,-13.743 -6.9086,-19.236 -19.488,-19.744 h -32.219 l 0.19983,-89.108 c 0.44117,-8.9421 -7.1692,-15.879 -16.312,-16.917 l -65.498,0.23954 c -8.3026,1.917 -11.841,4.2538 -15.838,12.9 -20.424,51.952 -37.549,95.269 -56.235,146.35 l -13.369,-0.25617 71.576,-186.16 z m 25.912,50.779 c 0.99833,-2.1049 1.4462,-4.2885 7.0519,-5.7352 l 56.644,-0.66894 c 4.473,0.0866 6.6344,3.4047 7.4288,7.3892 v 86.549 h -9.4062 l -0.7685,-47.951 c -0.003,-2.6837 -2.8595,-4.8717 -5.7932,-5 l -6.6403,-0.25617 c -2.4095,-0.0929 -6.5513,3.4396 -7.4739,5.1531 l -10.812,21.104 -23.845,-6.148 c -5.2118,-1.572 -8.9752,8.1123 -3.3055,10.025 l 28.317,8.9926 c 6.7546,2.2663 4.377,-0.54081 5.6276,-1.3323 l 4.6945,-9.5863 v 18 l -29.827,0.25617 c -2.1721,0.36168 -3.1832,1.8512 -3.6365,3.7862 l -12.044,38.213 -33.82,-0.25617 35.164,-51.87 6.8063,6.2627 c 5.9506,1.3813 3.0076,-2.1783 3.4185,-3.8746 l -14.707,-18.518 c -2.9681,-0.34367 -5.7492,-0.46923 -4.6994,3.8746 l 5.8943,7.1752 -37.289,56.438 -10.261,0.51233 z m 18.461,94.071 7.233,-0.7685 1.0247,29.232 -16.67,0.25617 z m -67.506,76.963 c 7.4686,10e-6 13.5,6.0631 13.5,13.531 -1e-5,7.4682 -6.0314,13.531 -13.5,13.531 -7.4686,0 -13.531,-6.0631 -13.531,-13.531 0,-7.4682 6.0626,-13.531 13.531,-13.531 z m 118.67,-8.7097 c 11.873,-1.2661 17.855,9.9056 17.855,17.374 -10e-6,7.4682 -4.7506,16.349 -16.574,17.117 -7.4529,0.48442 -18.148,-9.1551 -17.63,-16.605 0.7685,-11.055 5.8891,-16.77 16.349,-17.886 z"
       id="path942"
       style="fill:#ffffff;fill-opacity:1" /><path
       style="fill:#ffffff;fill-opacity:1;stroke-width:2.62827206"
       inkscape:connector-curvature="0"
       d="m -426.16,235.53 c -8.4176,-0.4144 -12.347,11.494 -6.0625,16.562 5.6393,6.9769 18.987,1.6265 17.656,-7.5938 -0.17628,-5.733 -6.2011,-9.6474 -11.594,-8.9688 z"
       id="path944" /></g></g></svg>