<?xml version="1.0" encoding="UTF-8" standalone="no"?>
<!-- Generator: Adobe Illustrator 15.0.0, SVG Export Plug-In . SVG Version: 6.00 Build 0)  -->

<svg
   xmlns:dc="http://purl.org/dc/elements/1.1/"
   xmlns:cc="http://creativecommons.org/ns#"
   xmlns:rdf="http://www.w3.org/1999/02/22-rdf-syntax-ns#"
   xmlns:svg="http://www.w3.org/2000/svg"
   xmlns="http://www.w3.org/2000/svg"
   xmlns:sodipodi="http://sodipodi.sourceforge.net/DTD/sodipodi-0.dtd"
   xmlns:inkscape="http://www.inkscape.org/namespaces/inkscape"
   version="1.1"
   x="0px"
   y="0px"
   width="580px"
   height="580px"
   viewBox="0 0 580 580"
   enable-background="new 0 0 580 580"
   xml:space="preserve"
   id="svg1103"
   sodipodi:docname="gambling.svg"
   inkscape:version="0.92.3 (2405546, 2018-03-11)"><metadata
   id="metadata1109"><rdf:RDF><cc:Work
       rdf:about=""><dc:format>image/svg+xml</dc:format><dc:type
         rdf:resource="http://purl.org/dc/dcmitype/StillImage" /></cc:Work></rdf:RDF></metadata><defs
   id="defs1107">
	
	
	
</defs><sodipodi:namedview
   pagecolor="#ffffff"
   bordercolor="#666666"
   borderopacity="1"
   objecttolerance="10"
   gridtolerance="10"
   guidetolerance="10"
   inkscape:pageopacity="0"
   inkscape:pageshadow="2"
   inkscape:window-width="1051"
   inkscape:window-height="752"
   id="namedview1105"
   showgrid="false"
   inkscape:zoom="0.76095916"
   inkscape:cx="290"
   inkscape:cy="290"
   inkscape:window-x="412"
   inkscape:window-y="178"
   inkscape:window-maximized="0"
   inkscape:current-layer="svg1103" />
<g
   id="Layer_2">
	<g
   id="g1327">
		<path
   id="path1329"
   fill="#111111"
   stroke="#EEEEEE"
   stroke-width="3.408"
   d="M66.275,1.768    c-41.335,0-64.571,21.371-64.571,65.036v450.123c0,40.844,20.894,62.229,62.192,62.229H515.92    c41.307,0,62.229-20.316,62.229-62.229V66.804c0-42.601-20.923-65.036-63.522-65.036C514.624,1.768,66.133,1.625,66.275,1.768z" />
	</g>
</g>
<g
   id="g1100"
   transform="matrix(1.6133453,0,0,1.6133453,-359.7909,52.435977)">
		<path
   style="fill:#ffffff"
   inkscape:connector-curvature="0"
   id="path1094"
   d="M 331.01,214.32 V 53.249 l -69.052,26.867 c -6.077,2.366 -9.088,9.211 -6.723,15.289 l 59.952,154.083 c 1.817,4.671 6.281,7.531 11.009,7.531 1.423,0 2.871,-0.258 4.279,-0.807 l 52.018,-20.239 h -29.83 C 340.722,235.972 331.01,226.257 331.01,214.32 Z" />
		<path
   style="fill:#ffffff"
   inkscape:connector-curvature="0"
   id="path1096"
   d="m 352.662,226.129 h 23.43 l -4.121,-1.977 c -10.766,-5.16 -15.323,-18.118 -10.161,-28.883 l 33.348,-69.551 2.916,-6.08 2.914,-6.078 32.305,-67.374 c 1.811,-3.774 4.664,-6.869 8.114,-9.012 h -75.884 -12.86 c -4.596,0 -8.568,2.63 -10.521,6.463 -0.818,1.605 -1.288,3.419 -1.288,5.346 v 0.435 164.9 c -10e-4,6.523 5.285,11.811 11.808,11.811 z" />
		<path
   style="fill:#ffffff"
   inkscape:connector-curvature="0"
   id="path1098"
   d="m 544.293,86.313 -74.192,-35.575 -4.951,-2.375 -5.334,-2.557 -1.895,-0.909 c -1.646,-0.79 -3.386,-1.163 -5.098,-1.163 -4.401,0 -8.628,2.473 -10.657,6.707 l -36.291,75.685 -2.914,6.078 -2.914,6.08 -29.364,61.24 c -2.82,5.882 -0.338,12.938 5.541,15.756 l 22.628,10.85 4.003,1.919 6.08,2.914 0.18,0.086 5.898,2.828 4.365,2.095 43.221,20.724 c 1.646,0.788 3.385,1.162 5.097,1.162 4.401,0 8.628,-2.473 10.657,-6.707 l 71.485,-149.083 c 2.818,-5.88 0.338,-12.935 -5.545,-15.755 z" />
	</g>
</svg>