<?xml version="1.0" encoding="UTF-8" standalone="no"?>
<!-- Generator: Adobe Illustrator 15.0.0, SVG Export Plug-In . SVG Version: 6.00 Build 0)  -->

<svg
   xmlns:dc="http://purl.org/dc/elements/1.1/"
   xmlns:cc="http://creativecommons.org/ns#"
   xmlns:rdf="http://www.w3.org/1999/02/22-rdf-syntax-ns#"
   xmlns:svg="http://www.w3.org/2000/svg"
   xmlns="http://www.w3.org/2000/svg"
   xmlns:sodipodi="http://sodipodi.sourceforge.net/DTD/sodipodi-0.dtd"
   xmlns:inkscape="http://www.inkscape.org/namespaces/inkscape"
   version="1.1"
   x="0px"
   y="0px"
   width="580px"
   height="580px"
   viewBox="0 0 580 580"
   enable-background="new 0 0 580 580"
   xml:space="preserve"
   id="svg898"
   sodipodi:docname="garbage_truck.svg"
   inkscape:version="0.92.3 (2405546, 2018-03-11)"><metadata
   id="metadata904"><rdf:RDF><cc:Work
       rdf:about=""><dc:format>image/svg+xml</dc:format><dc:type
         rdf:resource="http://purl.org/dc/dcmitype/StillImage" /><dc:title></dc:title></cc:Work></rdf:RDF></metadata><defs
   id="defs902" /><sodipodi:namedview
   pagecolor="#ffffff"
   bordercolor="#666666"
   borderopacity="1"
   objecttolerance="10"
   gridtolerance="10"
   guidetolerance="10"
   inkscape:pageopacity="0"
   inkscape:pageshadow="2"
   inkscape:window-width="1243"
   inkscape:window-height="878"
   id="namedview900"
   showgrid="true"
   inkscape:zoom="0.87"
   inkscape:cx="178.90064"
   inkscape:cy="290"
   inkscape:window-x="618"
   inkscape:window-y="66"
   inkscape:window-maximized="0"
   inkscape:current-layer="svg898"><inkscape:grid
     type="xygrid"
     id="grid1858" /></sodipodi:namedview>
<g
   id="Layer_2">
	<g
   id="g1327">
		<path
   id="path1329"
   fill="#111111"
   stroke="#EEEEEE"
   stroke-width="3.408"
   d="M66.275,1.768    c-41.335,0-64.571,21.371-64.571,65.036v450.123c0,40.844,20.894,62.229,62.192,62.229H515.92    c41.307,0,62.229-20.316,62.229-62.229V66.804c0-42.601-20.923-65.036-63.522-65.036C514.624,1.768,66.133,1.625,66.275,1.768z" />
	</g>
</g>

<path
   d="M 90,165 H 350 V 335 H 45 V 240 Z M 529.50626,270.24698 500.96811,184.40457 470,170 H 370 V 350 H 210 c 6.74944,9.01632 7.12597,18.95896 7.12597,31.16914 h 167.24139 c 0,-29.62642 24.06031,-53.58349 53.73834,-53.58349 20.81506,0 38.79717,11.90175 47.70982,29.31671 3.19428,6.1311 5.26049,13.0868 5.67258,20.50599 0.0517,1.18502 0.25761,2.42152 0.25761,3.76121 h 42.91368 V 291.6752 Z m -137.9763,0 v -64.40385 h 95.11639 l 21.4334,64.40385 z m 46.57639,71.53784 c -21.78913,0 -39.46605,17.67218 -39.46605,39.31119 0,21.79343 17.67735,39.3628 39.46605,39.3628 21.69019,0 39.36926,-17.56915 39.36926,-39.3628 -0.005,-21.63857 -17.67735,-39.31119 -39.36926,-39.31119 z m 0,60.79706 c -11.85014,0 -21.53534,-9.58325 -21.53534,-21.48479 0,-11.79852 9.68628,-21.38179 21.53534,-21.38179 11.79852,0 21.43339,9.58327 21.43339,21.38179 0,11.90174 -9.63465,21.48479 -21.43339,21.48479 z M 163.50012,341.79127 c -21.77408,0 -39.44454,17.64637 -39.44454,39.31119 0,21.80419 17.67734,39.38432 39.44454,39.38432 21.70094,0 39.31119,-17.57433 39.31119,-39.38432 0,-21.67084 -17.61025,-39.31119 -39.31119,-39.31119 z m 0,60.77556 c -11.91208,0 -21.57191,-9.58842 -21.57191,-21.46932 0,-11.80884 9.66047,-21.39726 21.57191,-21.39726 11.80884,0 21.46931,9.58842 21.46931,21.39726 0,11.88111 -9.66047,21.46932 -21.46931,21.46932 z M 45.194474,348.96829 H 120.5972 c -6.77526,8.98556 -10.79908,19.99067 -10.79908,32.12987 H 59.954772 L 45.19361,370.84001 Z"
   id="path1835"
   inkscape:connector-curvature="0"
   sodipodi:nodetypes="ccccccccccccccscccccccccccssscsssssssssssssssscccccc"
   style="fill:#ffffff;fill-opacity:1;stroke-width:2.150738" /></svg>