<?xml version="1.0" encoding="UTF-8" standalone="no"?>
<!-- Generator: Adobe Illustrator 15.0.0, SVG Export Plug-In . SVG Version: 6.00 Build 0)  -->

<svg
   version="1.1"
   x="0px"
   y="0px"
   width="580px"
   height="580px"
   viewBox="0 0 580 580"
   enable-background="new 0 0 580 580"
   xml:space="preserve"
   id="svg5"
   sodipodi:docname="give_box.svg"
   inkscape:version="1.4 (86a8ad7, 2024-10-11)"
   xmlns:inkscape="http://www.inkscape.org/namespaces/inkscape"
   xmlns:sodipodi="http://sodipodi.sourceforge.net/DTD/sodipodi-0.dtd"
   xmlns="http://www.w3.org/2000/svg"
   xmlns:svg="http://www.w3.org/2000/svg"><defs
   id="defs5">
	

		
		
		
		
		
	</defs><sodipodi:namedview
   id="namedview5"
   pagecolor="#ffffff"
   bordercolor="#666666"
   borderopacity="1.0"
   inkscape:showpageshadow="2"
   inkscape:pageopacity="0.0"
   inkscape:pagecheckerboard="0"
   inkscape:deskcolor="#d1d1d1"
   inkscape:zoom="0.63446243"
   inkscape:cx="505.94012"
   inkscape:cy="289.22122"
   inkscape:window-width="1904"
   inkscape:window-height="1131"
   inkscape:window-x="535"
   inkscape:window-y="16"
   inkscape:window-maximized="0"
   inkscape:current-layer="svg5" />
<g
   id="Layer_2">
	<g
   id="g1327">
		<path
   id="path1329"
   fill="#111111"
   stroke="#eeeeee"
   stroke-width="3.408"
   d="M 66.275,1.768 C 24.94,1.768 1.704,23.139 1.704,66.804 v 450.123 c 0,40.844 20.894,62.229 62.192,62.229 H 515.92 c 41.307,0 62.229,-20.316 62.229,-62.229 V 66.804 c 0,-42.601 -20.923,-65.036 -63.522,-65.036 -0.003,0 -448.494,-0.143 -448.352,0 z"
   sodipodi:nodetypes="csssssssc" />
	</g>
</g>
<path
   fill="#ffffff"
   d="m 312.771,345.396 h 107.713 3.87 l 3.142,2.262 c 15.889,11.439 19.259,23.84 19.289,32.229 0.027,7.553 -2.525,14.244 -5.845,19.754 34.18807,0.40458 -2.07219,-0.95195 32.80517,0.2037 7.34373,0.24333 8.21246,-1.28898 51.55427,-11.38843 11.65782,-2.71649 12.19463,-3.83556 24.34055,1.20216 4.33712,1.79889 1.35391,-215.677 1.35391,-215.677 l -284.98167,-1.08758 0.0158,77.34815 1.2378,79.04034 c 0.0249,1.5934 1.0513,-1.07112 23.92425,6.71328 12.398,3.648 17.28095,7.27438 21.58095,9.40038 z"
   id="path1"
   sodipodi:nodetypes="cccsscssscccsccc" /><path
   fill="#ffffff"
   d="m 542.537,397.057 -158.934,32.781 -69.807,-17.123 105.371,-6.586 c 0,0 1.791,-1.311 4.158,-3.611 7.989,-7.764 22.559,-26.834 -2.842,-45.121 H 309.846 c 0,0 -3.542,-2.004 -10.077,-4.672 -13.095,-5.346 -38.265,-13.373 -71.423,-13.373 -11.834,0 -24.68,1.021 -38.359,3.555 L 17.445,333.688 v 148.834 l 139.614,-22.391 134.348,61.904 c 0,0 7.025,4.098 19.513,4.098 6.245,0 13.854,-1.023 22.636,-4.098 l 217.322,-86.93 c -0.001,0 31.173,-19.611 -8.341,-38.048 z"
   id="path2" />
</svg>
