<?xml version="1.0" encoding="utf-8"?>
<!-- Generator: Adobe Illustrator 15.0.0, SVG Export Plug-In . SVG Version: 6.00 Build 0)  -->
<!DOCTYPE svg PUBLIC "-//W3C//DTD SVG 1.1//EN" "http://www.w3.org/Graphics/SVG/1.1/DTD/svg11.dtd">
<svg version="1.1" xmlns="http://www.w3.org/2000/svg" xmlns:xlink="http://www.w3.org/1999/xlink" x="0px" y="0px" width="580px"
	 height="580px" viewBox="0 0 580 580" enable-background="new 0 0 580 580" xml:space="preserve">
<g id="Layer_2">
	<g id="g1327">
		<path id="path1329" fill="#111111" stroke="#EEEEEE" stroke-width="3.408" d="M66.275,1.768
			c-41.335,0-64.571,21.371-64.571,65.036v450.123c0,40.844,20.894,62.229,62.192,62.229H515.92
			c41.307,0,62.229-20.316,62.229-62.229V66.804c0-42.601-20.923-65.036-63.522-65.036C514.624,1.768,66.133,1.625,66.275,1.768z"/>
	</g>
</g>
<g id="svg2" inkscape:output_extension="org.inkscape.output.svg.inkscape" sodipodi:version="0.32" sodipodi:docname="waste_bin.svg" inkscape:version="0.46" xmlns:dc="http://purl.org/dc/elements/1.1/" xmlns:cc="http://creativecommons.org/ns#" xmlns:rdf="http://www.w3.org/1999/02/22-rdf-syntax-ns#" xmlns:svg="http://www.w3.org/2000/svg" xmlns:sodipodi="http://sodipodi.sourceforge.net/DTD/sodipodi-0.dtd" xmlns:inkscape="http://www.inkscape.org/namespaces/inkscape">
	<g>
		<polygon fill="#FFFFFF" points="537.688,207.146 285.395,91.754 42.734,207.047 29.002,178.144 285.139,56.448 550.998,178.045 		
			"/>
	</g>
	<g>
		<g>
			<rect x="51.512" y="211.833" fill="#FFFFFF" width="15" height="323.333"/>
		</g>
		<g>
			<rect x="513.488" y="211.833" fill="#FFFFFF" width="15" height="323.333"/>
		</g>
	</g>
	<g>
		<circle fill="#FFFFFF" cx="290" cy="303.262" r="40.256"/>
		<circle fill="#FFFFFF" cx="157.547" cy="255.645" r="40.255"/>
		<circle fill="#FFFFFF" cx="422.453" cy="255.645" r="40.255"/>
		<path fill="#FFFFFF" d="M457.082,309.892h-69.259c-18.167,0-32.896,14.728-32.896,32.896v34.784
			c-5.001-11.792-16.684-20.063-30.299-20.063H255.37c-13.615,0-25.298,8.271-30.298,20.064v-34.785
			c0-18.168-14.728-32.896-32.896-32.896h-69.259c-18.167,0-32.896,14.728-32.896,32.896v53.676c0,15.792,11.13,28.979,25.971,32.16
			v-74.58h7.792v103.383h67.525V354.043h7.792v74.58c10.566-2.266,19.247-9.604,23.374-19.342v34.799
			c0,15.791,11.13,28.979,25.971,32.159v-74.58h7.792v103.383h67.525V401.659h7.792v74.58c14.841-3.182,25.971-16.368,25.971-32.159
			v-34.798c4.127,9.737,12.808,17.076,23.373,19.341v-74.58h7.792v103.383h67.525V354.043h7.792v74.58
			c14.841-3.182,25.971-16.368,25.971-32.16v-53.676C489.979,324.619,475.251,309.892,457.082,309.892z"/>
	</g>
</g>
</svg>
