<?xml version="1.0" encoding="UTF-8" standalone="no"?>
<!-- Generator: Adobe Illustrator 15.0.0, SVG Export Plug-In . SVG Version: 6.00 Build 0)  -->

<svg
   xmlns:dc="http://purl.org/dc/elements/1.1/"
   xmlns:cc="http://creativecommons.org/ns#"
   xmlns:rdf="http://www.w3.org/1999/02/22-rdf-syntax-ns#"
   xmlns:svg="http://www.w3.org/2000/svg"
   xmlns="http://www.w3.org/2000/svg"
   xmlns:sodipodi="http://sodipodi.sourceforge.net/DTD/sodipodi-0.dtd"
   xmlns:inkscape="http://www.inkscape.org/namespaces/inkscape"
   version="1.1"
   x="0px"
   y="0px"
   width="580px"
   height="580px"
   viewBox="0 0 580 580"
   enable-background="new 0 0 580 580"
   xml:space="preserve"
   id="svg1519"
   sodipodi:docname="hookah.svg"
   inkscape:version="0.92.3 (2405546, 2018-03-11)"><metadata
   id="metadata1525"><rdf:RDF><cc:Work
       rdf:about=""><dc:format>image/svg+xml</dc:format><dc:type
         rdf:resource="http://purl.org/dc/dcmitype/StillImage" /><dc:title></dc:title></cc:Work></rdf:RDF></metadata><defs
   id="defs1523" /><sodipodi:namedview
   pagecolor="#ffffff"
   bordercolor="#666666"
   borderopacity="1"
   objecttolerance="10"
   gridtolerance="10"
   guidetolerance="10"
   inkscape:pageopacity="0"
   inkscape:pageshadow="2"
   inkscape:window-width="1562"
   inkscape:window-height="1023"
   id="namedview1521"
   showgrid="false"
   inkscape:zoom="1.414741"
   inkscape:cx="290"
   inkscape:cy="355.53723"
   inkscape:window-x="43"
   inkscape:window-y="35"
   inkscape:window-maximized="0"
   inkscape:current-layer="svg1519" />
<g
   id="Layer_2_1_">
	<g
   id="Layer_2">
		<g
   id="g1327">
			<path
   id="path1329"
   fill="#111111"
   stroke="#EEEEEE"
   stroke-width="3.408"
   d="M66.275,1.768     c-41.335,0-64.571,21.371-64.571,65.036v450.123c0,40.844,20.895,62.229,62.192,62.229h452.024     c41.307,0,62.229-20.315,62.229-62.229V66.804c0-42.602-20.923-65.036-63.521-65.036C514.625,1.768,66.133,1.625,66.275,1.768z" />
		</g>
	</g>
</g>

<g
   id="Layer_1"
   transform="matrix(0.42917617,0,0,0.6965872,64.324811,154.35125)">
	<path
   d="M 359.44202,132.744 C 348.44802,129.447 351.197,117.36 351.197,117.36 V 88.232 h 45.959 c 8.192,0 14.838,-6.646 14.838,-14.837 0,-8.191 -6.646,-14.836 -14.838,-14.836 H 182.843 c -8.191,0 -14.837,6.645 -14.837,14.836 0,8.191 6.646,14.837 14.837,14.837 h 45.96 v 29.127 c 0,0 1.101,12.087 -9.892,15.384 -10.992,3.297 -39.21959,51.14888 -112.65398,144.05928 C 60.864899,346.302 200.558,448.41 237.246,476.491 v 26.257 h -18.215 c -2.383,0 -4.313,1.931 -4.313,4.313 v 10.065 c 0,2.383 1.931,4.313 4.313,4.313 h 141.938 c 2.384,0 4.314,-1.931 4.314,-4.313 v -10.065 c 0,-2.383 -1.931,-4.313 -4.314,-4.313 H 342.754 V 476.491 C 379.442,448.41 523.67978,342.48786 472.097,277.817 394.81943,158.17805 370.43302,136.041 359.44202,132.744 Z"
   id="path1516"
   inkscape:connector-curvature="0"
   style="fill:#ffffff"
   sodipodi:nodetypes="cccssssssccccccsssssssscccc" />
</g><path
   style="fill:none;fill-rule:evenodd;stroke:#ffffff;stroke-width:15.89999962;stroke-linecap:butt;stroke-linejoin:miter;stroke-miterlimit:4;stroke-dasharray:none;stroke-opacity:1"
   d="m 192.2236,206.28911 c -2.03557,-10.47836 1.42638,-41.82777 7.39505,-60.39205 33.26151,-103.452911 124.49625,-81.499795 148.54807,-40.56138 33.63534,58.389 17.70018,171.72552 16.63202,213.8293 -3.72917,71.44997 2.08259,86.25418 10.31632,90.66891 34.46298,18.47822 46.74747,-82.12276 64.95303,-76.24339 l 29.77853,-0.52316"
   id="path2650"
   inkscape:connector-curvature="0"
   sodipodi:nodetypes="csccscc" /></svg>