<?xml version="1.0" encoding="utf-8"?>
<!-- Generator: Adobe Illustrator 15.0.0, SVG Export Plug-In . SVG Version: 6.00 Build 0)  -->
<!DOCTYPE svg PUBLIC "-//W3C//DTD SVG 1.1//EN" "http://www.w3.org/Graphics/SVG/1.1/DTD/svg11.dtd">
<svg version="1.1" xmlns="http://www.w3.org/2000/svg" xmlns:xlink="http://www.w3.org/1999/xlink" x="0px" y="0px" width="580px"
	 height="580px" viewBox="0 0 580 580" enable-background="new 0 0 580 580" xml:space="preserve">
<g id="Layer_2">
	<g id="g1327">
		<path id="path1329" fill="#111111" stroke="#EEEEEE" stroke-width="3.408" d="M66.275,1.768
			c-41.335,0-64.571,21.371-64.571,65.036v450.123c0,40.844,20.895,62.229,62.192,62.229H515.92
			c41.307,0,62.229-20.315,62.229-62.229V66.804c0-42.601-20.923-65.036-63.521-65.036C514.624,1.768,66.133,1.625,66.275,1.768z"/>
	</g>
</g>
<g id="Layer_4">
	<path fill="#FFFFFF" d="M517.78,210.839c-2.282-24.271-13.485-46.644-31.545-62.996c-17.939-16.243-41.103-25.188-65.222-25.188
		c-3.054,0-6.15,0.146-9.204,0.433c-0.759,0.071-1.514,0.154-2.267,0.242c-3.783-21.114-14.395-40.373-30.422-54.884
		c-17.94-16.243-41.103-25.188-65.223-25.188c-3.053,0-6.149,0.146-9.203,0.433c-25.872,2.434-49.249,14.796-65.823,34.812
		c-16.574,20.015-24.362,45.287-21.929,71.159c0.551,5.861,1.634,11.608,3.197,17.19c-3.041,1.602-5.43,4.272-6.632,7.564
		L80.264,539.208c-2.127,5.824-0.169,12.354,4.813,16.045c2.476,1.835,5.404,2.751,8.332,2.751c2.964,0,5.928-0.939,8.419-2.815
		l305.935-230.412c2.61-1.967,4.422-4.761,5.18-7.873c2.614,0.212,5.242,0.339,7.886,0.339c3.053,0,6.148-0.146,9.202-0.433
		C483.438,311.786,522.804,264.248,517.78,210.839z M265.83,100.824c10.611-12.815,25.578-20.73,42.143-22.288
		c1.969-0.186,3.963-0.279,5.926-0.279c31.968,0,58.373,23.818,61.814,55.55c-26.023,13.7-44.802,38.748-50.372,67.951
		c-1.878,0.351-3.778,0.626-5.703,0.807c-1.969,0.186-3.963,0.279-5.926,0.279c-32.274,0-58.895-24.273-61.921-56.461
		C250.232,129.819,255.219,113.639,265.83,100.824z M122.788,504.363l110.423-302.313l143.111,111.365L122.788,504.363z"/>
</g>
</svg>
