<?xml version="1.0" encoding="UTF-8" standalone="no"?>
<!-- Created with Inkscape (http://www.inkscape.org/) -->

<svg
   xmlns:dc="http://purl.org/dc/elements/1.1/"
   xmlns:cc="http://creativecommons.org/ns#"
   xmlns:rdf="http://www.w3.org/1999/02/22-rdf-syntax-ns#"
   xmlns:svg="http://www.w3.org/2000/svg"
   xmlns="http://www.w3.org/2000/svg"
   xmlns:sodipodi="http://sodipodi.sourceforge.net/DTD/sodipodi-0.dtd"
   xmlns:inkscape="http://www.inkscape.org/namespaces/inkscape"
   version="1.0"
   width="580"
   height="580"
   id="svg2"
   sodipodi:version="0.32"
   inkscape:version="0.48.4 r9939"
   sodipodi:docname="cafe.svg"
   inkscape:output_extension="org.inkscape.output.svg.inkscape">
  <metadata
     id="metadata2975">
    <rdf:RDF>
      <cc:Work
         rdf:about="">
        <dc:format>image/svg+xml</dc:format>
        <dc:type
           rdf:resource="http://purl.org/dc/dcmitype/StillImage" />
        <cc:license
           rdf:resource="http://web.resource.org/cc/PublicDomain" />
        <dc:language>en</dc:language>
        <dc:title></dc:title>
      </cc:Work>
    </rdf:RDF>
  </metadata>
  <sodipodi:namedview
     inkscape:window-height="721"
     inkscape:window-width="1024"
     inkscape:pageshadow="2"
     inkscape:pageopacity="0.0"
     guidetolerance="10.0"
     gridtolerance="10.0"
     objecttolerance="10.0"
     borderopacity="1.0"
     bordercolor="#666666"
     pagecolor="#ffffff"
     id="base"
     inkscape:zoom="0.62"
     inkscape:cx="310.55075"
     inkscape:cy="199.75115"
     inkscape:window-x="583"
     inkscape:window-y="278"
     inkscape:current-layer="svg2"
     showgrid="false"
     inkscape:window-maximized="0" />
  <defs
     id="defs4">
    <inkscape:perspective
       sodipodi:type="inkscape:persp3d"
       inkscape:vp_x="0 : 290 : 1"
       inkscape:vp_y="0 : 1000 : 0"
       inkscape:vp_z="580 : 290 : 1"
       inkscape:persp3d-origin="290 : 193.33333 : 1"
       id="perspective2441" />
    <inkscape:perspective
       id="perspective2466"
       inkscape:persp3d-origin="372.04724 : 350.78739 : 1"
       inkscape:vp_z="744.09448 : 526.18109 : 1"
       inkscape:vp_y="0 : 1000 : 0"
       inkscape:vp_x="0 : 526.18109 : 1"
       sodipodi:type="inkscape:persp3d" />
    <inkscape:perspective
       id="perspective3333"
       inkscape:persp3d-origin="372.04724 : 350.78739 : 1"
       inkscape:vp_z="744.09448 : 526.18109 : 1"
       inkscape:vp_y="0 : 1000 : 0"
       inkscape:vp_x="0 : 526.18109 : 1"
       sodipodi:type="inkscape:persp3d" />
    <inkscape:perspective
       id="perspective3401"
       inkscape:persp3d-origin="372.04724 : 350.78739 : 1"
       inkscape:vp_z="744.09448 : 526.18109 : 1"
       inkscape:vp_y="0 : 1000 : 0"
       inkscape:vp_x="0 : 526.18109 : 1"
       sodipodi:type="inkscape:persp3d" />
  </defs>
  <g
     id="g1327">
    <path
       d="M 66.275,1.768 C 24.94,1.768 1.704,23.139 1.704,66.804 L 1.704,516.927 C 1.704,557.771 22.599,579.156 63.896,579.156 L 515.92,579.156 C 557.227,579.156 578.149,558.841 578.149,516.927 L 578.149,66.804 C 578.149,24.203 557.227,1.768 514.628,1.768 C 514.624,1.768 66.133,1.625 66.275,1.768 z "
       style="fill:#111;stroke:#eee;stroke-width:3.40799999"
       id="path1329" />
  </g>
  <path
     inkscape:connector-curvature="0"
     d="M 201.36851,90.637858 C 91.202125,139.47429 41.307134,268.83099 90.112212,379.0113 l 0,0 C 138.98001,489.1638 268.33671,539.05877 378.50311,490.22235 488.66951,441.38591 538.55058,311.99784 489.72805,201.86281 l 0,0 C 440.89162,91.696397 311.53492,41.801426 201.36851,90.637858 z M 398.50306,322.03723 c -22.14022,2.87307 -46.31751,8.93805 -72.40419,19.41405 l -19.82374,-44.71885 75.82759,-33.61414 c 8.38753,21.12153 13.51301,40.72485 16.40034,58.91894 z m -217.3052,-63.17609 c 22.21684,-2.86954 46.43939,-8.91705 72.58881,-19.42086 l 19.80983,44.68748 -75.98442,33.68366 c -8.43277,-21.13899 -13.55826,-40.74232 -16.41422,-58.95028 z m 26.63937,81.50852 75.79624,-33.60025 19.80983,44.6875 c -25.21768,12.26706 -45.89856,26.05006 -62.89518,40.5262 -11.60528,-14.32942 -22.70658,-31.24618 -32.71089,-51.61345 z m 164.22851,-99.89302 -75.82759,33.61414 -19.82372,-44.71884 c 25.21767,-12.26706 45.89855,-26.05006 62.89516,-40.52622 11.6192,14.36079 22.75182,31.26364 32.75615,51.63092 z m 89.62584,-39.73086 -66.79601,29.61046 c -11.28328,-23.25235 -23.93217,-42.55987 -37.15523,-58.76118 14.70219,-15.33514 25.77539,-30.90015 34.08248,-45.76429 28.8146,17.76965 53.26828,43.13832 69.86876,74.91501 z m -91.76517,-86.5585 c -7.14163,12.58392 -16.47809,25.80311 -28.83411,38.89751 -29.11007,-29.27055 -59.54957,-45.11915 -84.17267,-53.602772 38.85845,-6.71964 78.1404,-1.05705 113.00678,14.705262 z m -47.2057,56.19699 c -15.21882,12.90009 -33.71455,25.26415 -56.34326,36.34601 l -39.77257,-89.71993 c 22.42211,4.61897 60.1506,17.61162 96.11583,53.37392 z M 203.852,126.79646 l 39.88379,89.9708 c -23.53266,9.38133 -45.29914,14.79036 -65.19957,17.38347 -2.48315,-51.05507 13.50028,-87.70797 25.31578,-107.35427 z m -33.23408,10.94284 c -10.21746,23.92834 -18.9148,57.12619 -16.77401,98.35213 -18.00009,0.36237 -34.06494,-1.59649 -48.18516,-4.7551 11.7027,-36.40623 33.91697,-69.32991 64.95917,-93.59703 z M 99.582368,255.38008 c 16.578562,3.79487 35.593152,6.05958 56.783862,5.446 3.12524,20.67763 8.93773,43.01571 18.5903,66.99095 L 108.16051,357.4275 C 95.744757,323.83326 93.399629,288.66395 99.582368,255.38008 z m 85.425042,95.10996 c 11.28328,23.25238 23.96351,42.54599 37.16913,58.79256 -14.71609,15.30379 -25.77539,30.90016 -34.09638,45.73293 -28.8146,-17.76963 -53.29962,-43.1244 -69.90013,-74.9011 l 66.82738,-29.62439 z m 25.00053,116.15508 c 7.11026,-12.57001 16.46061,-25.75784 28.8341,-38.8975 29.09619,29.23916 59.5182,45.13305 84.1413,53.61667 -38.85844,6.71963 -78.17174,1.07094 -112.9754,-14.71917 z m 47.14297,-56.16917 c 15.21881,-12.9001 33.71454,-25.26416 56.31189,-36.33212 l 39.78648,89.75129 c -22.35939,-4.64678 -60.1018,-17.67078 -96.09837,-53.41917 z m 118.85481,43.55642 -39.86988,-89.93943 c 23.50129,-9.36743 45.19115,-14.78 65.01496,-17.37667 2.51451,51.04117 -13.32959,87.66982 -25.14508,107.3161 z M 409.28506,443.107 c 10.21746,-23.92834 18.9148,-57.1262 16.77401,-98.35212 18.00009,-0.36237 34.06494,1.5965 48.1538,4.769 -11.70267,36.40623 -33.88562,69.31601 -64.92781,93.58312 z m 71.03555,-117.64077 c -16.57856,-3.79488 -35.59315,-6.05959 -56.78385,-5.44601 -3.13915,-20.70899 -8.93774,-43.01569 -18.60422,-67.02232 l 66.79602,-29.61047 c 12.42968,33.62562 14.77479,68.79494 8.59205,102.0788 z"
     style="fill:#ffffff;fill-opacity:1"
     id="path4" />
</svg>
