<?xml version="1.0" encoding="UTF-8" standalone="no"?>
<!-- Created with Inkscape (http://www.inkscape.org/) -->

<svg
   xmlns:dc="http://purl.org/dc/elements/1.1/"
   xmlns:cc="http://creativecommons.org/ns#"
   xmlns:rdf="http://www.w3.org/1999/02/22-rdf-syntax-ns#"
   xmlns:svg="http://www.w3.org/2000/svg"
   xmlns="http://www.w3.org/2000/svg"
   xmlns:sodipodi="http://sodipodi.sourceforge.net/DTD/sodipodi-0.dtd"
   xmlns:inkscape="http://www.inkscape.org/namespaces/inkscape"
   version="1.0"
   width="580"
   height="580"
   id="svg2"
   sodipodi:version="0.32"
   inkscape:version="0.48.4 r9939"
   sodipodi:docname="internet.svg"
   inkscape:output_extension="org.inkscape.output.svg.inkscape">
  <metadata
     id="metadata2975">
    <rdf:RDF>
      <cc:Work
         rdf:about="">
        <dc:format>image/svg+xml</dc:format>
        <dc:type
           rdf:resource="http://purl.org/dc/dcmitype/StillImage" />
        <cc:license
           rdf:resource="http://web.resource.org/cc/PublicDomain" />
        <dc:language>en</dc:language>
        <dc:title></dc:title>
      </cc:Work>
    </rdf:RDF>
  </metadata>
  <sodipodi:namedview
     inkscape:window-height="721"
     inkscape:window-width="1024"
     inkscape:pageshadow="2"
     inkscape:pageopacity="0.0"
     guidetolerance="10.0"
     gridtolerance="10.0"
     objecttolerance="10.0"
     borderopacity="1.0"
     bordercolor="#666666"
     pagecolor="#ffffff"
     id="base"
     inkscape:zoom="0.047"
     inkscape:cx="310.55075"
     inkscape:cy="199.75115"
     inkscape:window-x="583"
     inkscape:window-y="278"
     inkscape:current-layer="svg2"
     showgrid="false"
     inkscape:window-maximized="0" />
  <defs
     id="defs4">
    <inkscape:perspective
       sodipodi:type="inkscape:persp3d"
       inkscape:vp_x="0 : 290 : 1"
       inkscape:vp_y="0 : 1000 : 0"
       inkscape:vp_z="580 : 290 : 1"
       inkscape:persp3d-origin="290 : 193.33333 : 1"
       id="perspective2441" />
    <inkscape:perspective
       id="perspective2466"
       inkscape:persp3d-origin="372.04724 : 350.78739 : 1"
       inkscape:vp_z="744.09448 : 526.18109 : 1"
       inkscape:vp_y="0 : 1000 : 0"
       inkscape:vp_x="0 : 526.18109 : 1"
       sodipodi:type="inkscape:persp3d" />
    <inkscape:perspective
       id="perspective3333"
       inkscape:persp3d-origin="372.04724 : 350.78739 : 1"
       inkscape:vp_z="744.09448 : 526.18109 : 1"
       inkscape:vp_y="0 : 1000 : 0"
       inkscape:vp_x="0 : 526.18109 : 1"
       sodipodi:type="inkscape:persp3d" />
    <inkscape:perspective
       id="perspective3401"
       inkscape:persp3d-origin="372.04724 : 350.78739 : 1"
       inkscape:vp_z="744.09448 : 526.18109 : 1"
       inkscape:vp_y="0 : 1000 : 0"
       inkscape:vp_x="0 : 526.18109 : 1"
       sodipodi:type="inkscape:persp3d" />
  </defs>
  <g
     id="g1327">
    <path
       d="M 66.275,1.768 C 24.94,1.768 1.704,23.139 1.704,66.804 L 1.704,516.927 C 1.704,557.771 22.599,579.156 63.896,579.156 L 515.92,579.156 C 557.227,579.156 578.149,558.841 578.149,516.927 L 578.149,66.804 C 578.149,24.203 557.227,1.768 514.628,1.768 C 514.624,1.768 66.133,1.625 66.275,1.768 z "
       style="fill:#111;stroke:#eee;stroke-width:3.40799999"
       id="path1329" />
  </g>
  <path
     inkscape:connector-curvature="0"
     d="M 366.1686,74.225089 C 314.5427,97.110697 291.16103,157.72952 314.03194,209.36195 l 0,0 c 22.90031,51.6194 83.51914,75.00106 135.14505,52.11546 51.62591,-22.88562 75.00105,-83.51914 52.12196,-135.13035 l 0,0 C 478.41334,74.721139 417.79452,51.339479 366.1686,74.225089 z M 458.54932,182.6629 c -10.3753,1.34637 -21.7052,4.18853 -33.92988,9.09777 l -9.28975,-20.95604 35.53414,-15.75218 c 3.93054,9.89792 6.33243,19.08438 7.68549,27.61045 z M 356.71628,153.05748 c 10.4112,-1.34472 21.76231,-4.17869 34.01639,-9.10096 l 9.28324,20.94134 -35.60764,15.78476 c -3.95174,-9.90611 -6.35364,-19.09257 -7.69199,-27.62514 z m 12.48368,38.19632 35.51945,-15.74566 9.28323,20.94134 c -11.81745,5.74856 -21.50887,12.20752 -29.47379,18.99129 -5.43843,-6.71502 -10.6407,-14.64251 -15.32889,-24.18697 z m 76.96036,-46.81162 -35.53414,15.75217 -9.28974,-20.95603 c 11.81744,-5.74856 21.50887,-12.20752 29.47378,-18.9913 5.44496,6.72972 10.6619,14.65069 15.3501,24.19516 z m 42.00025,-18.61858 -31.30179,13.87598 c -5.28754,-10.89646 -11.21503,-19.9443 -17.41159,-27.53652 6.8897,-7.18632 12.0788,-14.480353 15.97165,-21.445954 13.50303,8.327171 24.96245,20.215374 32.74173,35.106494 z M 445.1578,85.260762 c -3.3467,5.897046 -7.72193,12.091795 -13.51218,18.228058 -13.64149,-13.716695 -27.90597,-21.143628 -39.44479,-25.119202 18.20975,-3.148942 36.61797,-0.495353 52.95697,6.891144 z m -22.12143,26.334898 c -7.1318,6.04521 -15.79923,11.83923 -26.40344,17.03238 L 377.99481,86.583702 c 10.50739,2.164531 28.18763,8.253115 45.04156,25.011958 z m -55.70396,-20.426015 18.69024,42.161905 c -11.02781,4.39625 -21.22797,6.93102 -30.55366,8.1462 -1.16365,-23.92531 6.32647,-41.1015 11.86342,-50.308105 z m -15.57408,5.128012 c -4.78808,11.213243 -8.8638,26.770333 -7.86059,46.089533 -8.43516,0.16981 -15.96343,-0.74814 -22.58041,-2.22832 5.48409,-17.0606 15.89408,-32.48922 30.441,-43.861213 z m -33.2885,55.128533 c 7.769,1.77834 16.67957,2.83963 26.60991,2.55209 1.46454,9.6899 4.18838,20.15792 8.71174,31.39314 l -31.30179,13.87599 c -5.81824,-15.74285 -6.9172,-32.22381 -4.01986,-47.82122 z m 40.03167,44.5702 c 5.28755,10.89647 11.22972,19.9378 17.41811,27.55123 -6.89622,7.17162 -12.0788,14.48036 -15.97816,21.43125 -13.50303,-8.32716 -24.97714,-20.20885 -32.75643,-35.09997 l 31.31648,-13.88251 z m 11.71569,54.43231 c 3.33199,-5.89053 7.71373,-12.07057 13.51217,-18.22805 13.63498,13.70198 27.89127,21.15014 39.43009,25.12571 -18.20975,3.14894 -36.63265,0.50187 -52.94226,-6.89766 z m 22.09202,-26.32186 c 7.13181,-6.04521 15.79923,-11.83923 26.38875,-17.02587 L 437.3426,249.14 c -10.478,-2.17756 -28.16476,-8.28083 -45.03339,-25.03316 z m 55.69746,20.41131 -18.68373,-42.1472 c 11.01312,-4.38974 21.17737,-6.92617 30.46715,-8.14301 1.17835,23.91878 -6.24648,41.08361 -11.78342,50.29021 z m 15.59528,-5.11982 c 4.78808,-11.21325 8.86381,-26.77035 7.8606,-46.08954 8.43515,-0.16981 15.96343,0.74815 22.56571,2.23484 -5.48407,17.0606 -15.87939,32.4827 -30.42631,43.8547 z m 33.28851,-55.12854 c -7.76901,-1.77834 -16.67958,-2.83963 -26.60991,-2.55209 -1.47106,-9.7046 -4.18838,-20.15791 -8.71827,-31.40784 l 31.30179,-13.87599 c 5.82477,15.75756 6.92373,32.23852 4.02639,47.83592 z"
     style="fill:#ffffff;fill-opacity:1"
     id="path4" />
  <g
     id="g3773"
     transform="matrix(0.69099366,0,0,0.69099366,9.9729953,92.194472)">
    <path
       id="path3407"
       d="m 98.103425,259.46358 c 10e-7,0 -44.018386,338.29601 148.920745,337.55949 4.70818,0.25895 9.1851,0.33321 13.44302,0.26188 4.25792,0.0713 8.73484,-0.003 13.44302,-0.26188 192.93913,0.73652 148.92075,-337.55949 148.92074,-337.55949 l -162.36376,0.66924 -162.363765,-0.66924 z"
       style="fill:#ffffff;fill-opacity:1;fill-rule:evenodd;stroke:#ffffff;stroke-width:18.62236595;stroke-linecap:round;stroke-linejoin:round;stroke-miterlimit:4;stroke-opacity:1;stroke-dasharray:none"
       inkscape:connector-curvature="0" />
    <path
       sodipodi:nodetypes="csssc"
       id="path3409"
       d="m 399.81311,331.41688 c 0,0 44.95613,-34.01908 80.49977,-34.01908 35.54387,0 51.84365,55.37989 51.08753,92.56347 -0.75634,37.18361 -27.98129,128.16507 -160.32494,129.74732 -132.34342,1.58226 29.49376,-188.29171 28.73764,-188.29171 z"
       style="fill:none;stroke:#ffffff;stroke-width:45.62662125;stroke-linecap:butt;stroke-linejoin:miter;stroke-miterlimit:4;stroke-opacity:1;stroke-dasharray:none"
       inkscape:connector-curvature="0" />
  </g>
</svg>
