<?xml version="1.0" encoding="UTF-8" standalone="no"?>
<!-- Generator: Adobe Illustrator 15.0.0, SVG Export Plug-In . SVG Version: 6.00 Build 0)  -->

<svg
   xmlns:dc="http://purl.org/dc/elements/1.1/"
   xmlns:cc="http://creativecommons.org/ns#"
   xmlns:rdf="http://www.w3.org/1999/02/22-rdf-syntax-ns#"
   xmlns:svg="http://www.w3.org/2000/svg"
   xmlns="http://www.w3.org/2000/svg"
   xmlns:sodipodi="http://sodipodi.sourceforge.net/DTD/sodipodi-0.dtd"
   xmlns:inkscape="http://www.inkscape.org/namespaces/inkscape"
   version="1.1"
   x="0px"
   y="0px"
   width="580px"
   height="580px"
   viewBox="0 0 580 580"
   enable-background="new 0 0 580 580"
   xml:space="preserve"
   id="svg10444"
   sodipodi:docname="karoke.svg"
   inkscape:version="0.92.3 (2405546, 2018-03-11)"><metadata
   id="metadata10450"><rdf:RDF><cc:Work
       rdf:about=""><dc:format>image/svg+xml</dc:format><dc:type
         rdf:resource="http://purl.org/dc/dcmitype/StillImage" /><dc:title></dc:title></cc:Work></rdf:RDF></metadata><defs
   id="defs10448">
	

		
		
		
	</defs><sodipodi:namedview
   pagecolor="#ffffff"
   bordercolor="#666666"
   borderopacity="1"
   objecttolerance="10"
   gridtolerance="10"
   guidetolerance="10"
   inkscape:pageopacity="0"
   inkscape:pageshadow="2"
   inkscape:window-width="1595"
   inkscape:window-height="1061"
   id="namedview10446"
   showgrid="false"
   inkscape:zoom="1.5219183"
   inkscape:cx="290"
   inkscape:cy="290"
   inkscape:window-x="164"
   inkscape:window-y="35"
   inkscape:window-maximized="0"
   inkscape:current-layer="svg10444" />
<g
   id="Layer_2">
	<g
   id="g1327">
		<path
   id="path1329"
   fill="#111111"
   stroke="#EEEEEE"
   stroke-width="3.408"
   d="M66.275,1.768    c-41.335,0-64.571,21.371-64.571,65.036v450.123c0,40.844,20.894,62.229,62.192,62.229H515.92    c41.307,0,62.229-20.316,62.229-62.229V66.804c0-42.601-20.923-65.036-63.522-65.036C514.624,1.768,66.133,1.625,66.275,1.768z" />
	</g>
</g>

<g
   transform="matrix(-1,0,0,1,645.12249,0.3440792)"
   id="g3302"><path
     style="fill:#ffffff"
     inkscape:connector-curvature="0"
     d="m 448.559,125.864 c 22.55,0 40.834,-18.284 40.834,-40.835 0,-22.552 -18.284,-40.836 -40.834,-40.836 -22.552,0 -40.834,18.284 -40.834,40.836 0,22.551 18.282,40.835 40.834,40.835 z"
     id="path3304" /><path
     style="fill:#ffffff"
     inkscape:connector-curvature="0"
     d="m 396.091,200.916 0.25,311.75 c 0,31.185 45.857,30.899 45.857,-0.714 l 0.027,-181.366 8.926,-0.086 -0.028,181.367 c 0,31.612 46.394,32.411 46.394,0.799 l 0.026,-313.057 h 8.059 v 111.795 c 0,26.838 36.42,26.838 36.42,0.48 V 189.586 c 0,-32.876 -24.469,-52.237 -50.348,-52.237 h -72.611 c -17.222,0 -29.722,6.817 -40.222,21.817 L 342.09,212.72 h -63.77 c -25.624,0 -24.186,36.34 -0.48,36.34 h 73.5 c 5.752,0 12.75,-2.144 16.773,-8.148 z"
     id="path3306" /></g><g
   id="g11670"
   transform="matrix(1.195262,-0.72315263,0.72315263,1.195262,-299.47399,268.05091)"><circle
     r="11.170114"
     cy="175.90472"
     cx="427.74963"
     id="path11664"
     style="color:#000000;display:inline;overflow:visible;visibility:visible;opacity:1;fill:#ffffff;fill-opacity:1;fill-rule:nonzero;stroke:#ffffff;stroke-width:10;stroke-linejoin:miter;stroke-miterlimit:4;stroke-dasharray:none;stroke-opacity:1;marker:none;enable-background:accumulate" /><rect
     y="186.41779"
     x="422.4931"
     height="64.392418"
     width="9.1989164"
     id="rect11666"
     style="color:#000000;display:inline;overflow:visible;visibility:visible;opacity:1;fill:#ffffff;fill-opacity:1;fill-rule:nonzero;stroke:#ffffff;stroke-width:10;stroke-linejoin:miter;stroke-miterlimit:4;stroke-dasharray:none;stroke-opacity:1;marker:none;enable-background:accumulate" /></g><path
   style="fill:none;fill-rule:evenodd;stroke:#ffffff;stroke-width:12.1;stroke-linecap:butt;stroke-linejoin:miter;stroke-miterlimit:4;stroke-dasharray:none;stroke-opacity:1"
   d="m 377.38474,249.08614 c 12.7614,8.09218 23.81408,22.14483 22.21039,38.02959 3.94197,17.89954 -2.8363,36.31924 -13.59533,50.54245 -9.06969,16.43326 -7.10731,35.91059 -8.54683,53.97112 0.31027,25.52033 7.85214,51.74321 24.34016,71.55587 11.00473,10.12412 25.32015,16.16662 35.11235,27.69518 13.83206,11.85735 28.40897,23.45083 38.34181,38.9813"
   id="path11674"
   inkscape:connector-curvature="0" /></svg>