<?xml version="1.0" encoding="UTF-8" standalone="no"?>
<!-- Created with Inkscape (http://www.inkscape.org/) -->

<svg
   xmlns:dc="http://purl.org/dc/elements/1.1/"
   xmlns:cc="http://creativecommons.org/ns#"
   xmlns:rdf="http://www.w3.org/1999/02/22-rdf-syntax-ns#"
   xmlns:svg="http://www.w3.org/2000/svg"
   xmlns="http://www.w3.org/2000/svg"
   xmlns:sodipodi="http://sodipodi.sourceforge.net/DTD/sodipodi-0.dtd"
   xmlns:inkscape="http://www.inkscape.org/namespaces/inkscape"
   width="580"
   height="580"
   viewBox="0 0 153.45833 153.45834"
   version="1.1"
   id="svg8"
   inkscape:version="0.92.3 (2405546, 2018-03-11)"
   sodipodi:docname="lost_property_office.svg">
  <defs
     id="defs2">
    <clipPath
       clipPathUnits="userSpaceOnUse"
       id="clipPath4810">
      <path
         inkscape:connector-curvature="0"
         d="M 0,792 H 1008 V 0 H 0 Z"
         id="path4812" />
    </clipPath>
  </defs>
  <sodipodi:namedview
     id="base"
     pagecolor="#ffffff"
     bordercolor="#666666"
     borderopacity="1.0"
     inkscape:pageopacity="0.0"
     inkscape:pageshadow="2"
     inkscape:zoom="0.94"
     inkscape:cx="7.0110654"
     inkscape:cy="144.06683"
     inkscape:document-units="mm"
     inkscape:current-layer="layer1"
     showgrid="false"
     units="px"
     inkscape:window-width="1920"
     inkscape:window-height="1147"
     inkscape:window-x="-8"
     inkscape:window-y="-8"
     inkscape:window-maximized="1" />
  <metadata
     id="metadata5">
    <rdf:RDF>
      <cc:Work
         rdf:about="">
        <dc:format>image/svg+xml</dc:format>
        <dc:type
           rdf:resource="http://purl.org/dc/dcmitype/StillImage" />
        <dc:title></dc:title>
      </cc:Work>
    </rdf:RDF>
  </metadata>
  <g
     inkscape:label="Ebene 1"
     inkscape:groupmode="layer"
     id="layer1"
     transform="translate(0,-143.54165)">
    <g
       id="g4814"
       transform="matrix(15.596214,0,0,-15.596214,18.078605,146.64151)">
      <path
         inkscape:connector-curvature="0"
         d="m 0,0 c -0.541,0 -0.982,-0.439 -0.982,-0.979 v -7.522 c 0,-0.541 0.441,-0.981 0.982,-0.981 h 7.521 c 0.542,0 0.982,0.44 0.982,0.981 v 7.522 C 8.503,-0.439 8.063,0 7.521,0 Z"
         style="fill:#ffffff;fill-opacity:1;fill-rule:nonzero;stroke:none"
         id="path4816" />
    </g>
    <g
       id="g4818"
       transform="matrix(15.596214,0,0,-15.596214,135.38553,297.65341)">
      <path
         inkscape:connector-curvature="0"
         d="m 0,0 c 0.652,0 1.182,0.529 1.182,1.182 v 7.521 c 0,0.652 -0.53,1.18 -1.182,1.18 h -7.521 c -0.653,0 -1.182,-0.528 -1.182,-1.18 V 1.182 C -8.703,0.529 -8.174,0 -7.521,0 Z"
         style="fill:#111111;fill-opacity:1;fill-rule:nonzero;stroke:none"
         id="path4820" />
    </g>
    <g
       id="g3912"
       transform="matrix(0.76761803,0,0,0.76761803,68.309522,38.191402)">
      <path
         style="opacity:1;fill:none;stroke:#ffffff;stroke-width:0.03527778;stroke-linecap:butt;stroke-linejoin:miter;stroke-miterlimit:10"
         d="m -10.779671,161.89862 c 3.9551609,-5.64667 11.41944086,-7.98706 18.0617839,-7.08733 6.8785051,0.84942 13.0487611,5.56296 15.8284521,11.88794 1.793531,3.9008 1.853051,8.49788 0.359241,12.5012 -0.895456,2.3965 -2.656033,4.33657 -4.592699,5.95268 -2.408028,1.98337 -5.164349,3.55408 -7.317859,5.83763 -0.905296,0.93819 -1.5871511,2.174 -1.5879471,3.50587 -0.0159,2.6992 0.0019,5.39902 -0.0035,8.09883 -3.528856,0.004 -7.057416,0.002 -10.58582004,8e-4 -0.0013,-4.13153 0.0047,-8.2629 -0.0045,-12.39415 -0.04291,-2.95923 1.621928,-5.73369 3.94275504,-7.48191 1.520171,-1.29399 3.440208,-1.9487 5.077005,-3.06458 1.7372381,-1.14285 3.2565891,-2.69819 4.0850501,-4.62744 1.243005,-2.87411 0.128974,-6.6129 -2.6002611,-8.21127 -2.023915,-1.18655 -4.479013,-1.21891 -6.749254,-0.99483 -2.48145004,0.27127 -5.026843,1.41039 -6.356374,3.61625 -1.739043,2.81935 -1.563555,6.2525 -1.538983,9.43388 -3.494577,0.007 -6.9889639,-0.0119 -10.4830989,0.01 -0.182118,-2.83225 -0.217546,-5.71255 0.316929,-8.51186 0.595296,-3.13732 2.21344,-5.97171 4.148989,-8.47164 z m 0,0"
         id="path63"
         inkscape:connector-curvature="0" />
      <path
         style="opacity:1;fill:#ffffff;fill-rule:nonzero;stroke:none;stroke-width:0.35277775"
         d="m -10.779671,161.89862 c 3.9551609,-5.64667 11.41944086,-7.98706 18.0617839,-7.08733 6.8785051,0.84942 13.0487611,5.56296 15.8284521,11.88794 1.793531,3.9008 1.853051,8.49788 0.359241,12.5012 -0.895456,2.3965 -2.656033,4.33657 -4.592699,5.95268 -2.408028,1.98337 -5.164349,3.55408 -7.317859,5.83763 -0.905296,0.93819 -1.5871511,2.174 -1.5879471,3.50587 -0.0159,2.6992 0.0019,5.39902 -0.0035,8.09883 -3.528856,0.004 -7.057416,0.002 -10.58582004,8e-4 -0.0013,-4.13153 0.0047,-8.2629 -0.0045,-12.39415 -0.04291,-2.95923 1.621928,-5.73369 3.94275504,-7.48191 1.520171,-1.29399 3.440208,-1.9487 5.077005,-3.06458 1.7372381,-1.14285 3.2565891,-2.69819 4.0850501,-4.62744 1.243005,-2.87411 0.128974,-6.6129 -2.6002611,-8.21127 -2.023915,-1.18655 -4.479013,-1.21891 -6.749254,-0.99483 -2.48145004,0.27127 -5.026843,1.41039 -6.356374,3.61625 -1.739043,2.81935 -1.563555,6.2525 -1.538983,9.43388 -3.494577,0.007 -6.9889639,-0.0119 -10.4830989,0.01 -0.182118,-2.83225 -0.217546,-5.71255 0.316929,-8.51186 0.595296,-3.13732 2.21344,-5.97171 4.148989,-8.47164 z m 0,0"
         id="path65"
         inkscape:connector-curvature="0" />
      <path
         style="opacity:1;fill:none;stroke:#ffffff;stroke-width:0.03527778;stroke-linecap:butt;stroke-linejoin:miter;stroke-miterlimit:10"
         d="m -0.61715214,206.30169 c 3.49816204,-0.001 6.99647204,-0.002 10.49508904,2.7e-4 0.0011,3.70351 1.35e-4,7.40711 2.65e-4,11.11097 -3.499054,0.001 -6.997798,0.001 -10.49639104,-6e-5 7.94e-4,-3.70393 -7.94e-4,-7.40762 7.94e-4,-11.11121 z m 0,0"
         id="path67"
         inkscape:connector-curvature="0" />
      <path
         style="opacity:1;fill:#ffffff;fill-rule:nonzero;stroke:none;stroke-width:0.35277775"
         d="m -0.61715214,206.30169 c 3.49816204,-0.001 6.99647204,-0.002 10.49508904,2.7e-4 0.0011,3.70351 1.35e-4,7.40711 2.65e-4,11.11097 -3.499054,0.001 -6.997798,0.001 -10.49639104,-6e-5 7.94e-4,-3.70393 -7.94e-4,-7.40762 7.94e-4,-11.11121 z m 0,0"
         id="path69"
         inkscape:connector-curvature="0" />
      <path
         style="opacity:1;fill:none;stroke:#ffffff;stroke-width:0.03527778;stroke-linecap:butt;stroke-linejoin:miter;stroke-miterlimit:10"
         d="m -54.321873,238.3386 c 36.425405,-7.69984 72.848934,-15.41029 109.267179,-23.14401 10e-4,7.03077 -0.001,14.06156 10e-4,21.09254 8.2763,0.0126 16.55356,-0.0265 24.82962,0.019 7.32345,0.15945 13.90804,5.37392 16.50902,12.09354 2.03256,4.82 1.49459,10.39544 -0.57486,15.10831 -2.10144,4.98581 -6.45651,9.01309 -11.71973,10.41111 -3.26682,0.83432 -6.80296,1.24894 -10.0966,0.3592 -3.18172,-0.86752 -4.27404,-5.27087 -2.25445,-7.71852 1.54667,-1.64352 3.97054,-1.95463 6.11573,-1.88163 2.67035,0.1249 5.49848,-0.61938 7.42009,-2.56173 1.92044,-2.00062 2.87581,-4.9051 2.59881,-7.65111 -0.87561,-4.14565 -4.4476,-7.88794 -8.77097,-8.28739 -8.0185,-0.029 -16.0379,-0.003 -24.05651,-0.0123 -0.004,6.68492 0.001,13.36992 -0.002,20.05513 -36.428571,-7.23762 -72.845292,-14.53464 -109.274384,-21.76905 0.0089,-2.03816 -0.0041,-4.07586 0.0084,-6.11316 z m 0,0"
         id="path71"
         inkscape:connector-curvature="0" />
      <path
         style="opacity:1;fill:#ffffff;fill-rule:nonzero;stroke:none;stroke-width:0.35277775"
         d="m -54.321873,238.3386 c 36.425405,-7.69984 72.848934,-15.41029 109.267179,-23.14401 10e-4,7.03077 -0.001,14.06156 10e-4,21.09254 8.2763,0.0126 16.55356,-0.0265 24.82962,0.019 7.32345,0.15945 13.90804,5.37392 16.50902,12.09354 2.03256,4.82 1.49459,10.39544 -0.57486,15.10831 -2.10144,4.98581 -6.45651,9.01309 -11.71973,10.41111 -3.26682,0.83432 -6.80296,1.24894 -10.0966,0.3592 -3.18172,-0.86752 -4.27404,-5.27087 -2.25445,-7.71852 1.54667,-1.64352 3.97054,-1.95463 6.11573,-1.88163 2.67035,0.1249 5.49848,-0.61938 7.42009,-2.56173 1.92044,-2.00062 2.87581,-4.9051 2.59881,-7.65111 -0.87561,-4.14565 -4.4476,-7.88794 -8.77097,-8.28739 -8.0185,-0.029 -16.0379,-0.003 -24.05651,-0.0123 -0.004,6.68492 0.001,13.36992 -0.002,20.05513 -36.428571,-7.23762 -72.845292,-14.53464 -109.274384,-21.76905 0.0089,-2.03816 -0.0041,-4.07586 0.0084,-6.11316 z m 0,0"
         id="path73"
         inkscape:connector-curvature="0" />
      <path
         style="opacity:1;fill:none;stroke:#ffffff;stroke-width:0.03527778;stroke-linecap:butt;stroke-linejoin:miter;stroke-miterlimit:10"
         d="m -75.049525,239.84769 c 0.560835,-0.65533 1.463896,-0.85223 2.290326,-0.8309 5.232772,0.011 10.465635,0.001 15.698553,0.006 -3.44e-4,1.55723 2.19e-4,3.11471 -7.14e-4,4.67307 -5.223028,0.004 -10.446014,-0.005 -15.668891,0.006 -0.644206,-0.006 -1.325108,-0.0825 -1.8682,-0.45834 -1.135046,-0.67277 -1.352991,-2.44993 -0.451168,-3.39545 z m 0,0"
         id="path75"
         inkscape:connector-curvature="0" />
      <path
         style="opacity:1;fill:#ffffff;fill-rule:nonzero;stroke:none;stroke-width:0.35277775"
         d="m -75.049525,239.84769 c 0.560835,-0.65533 1.463896,-0.85223 2.290326,-0.8309 5.232772,0.011 10.465635,0.001 15.698553,0.006 -3.44e-4,1.55723 2.19e-4,3.11471 -7.14e-4,4.67307 -5.223028,0.004 -10.446014,-0.005 -15.668891,0.006 -0.644206,-0.006 -1.325108,-0.0825 -1.8682,-0.45834 -1.135046,-0.67277 -1.352991,-2.44993 -0.451168,-3.39545 z m 0,0"
         id="path77"
         inkscape:connector-curvature="0" />
      <path
         style="opacity:1;fill:none;stroke:#ffffff;stroke-width:0.03527778;stroke-linecap:butt;stroke-linejoin:miter;stroke-miterlimit:10"
         d="m -13.7467,260.51768 c 1.550683,-1.09853 3.585487,-0.97041 5.3667969,-0.65937 20.9322591,4.06338 41.8648691,8.12484 62.7973791,12.18747 -0.005,4.14018 0.006,8.2808 -0.004,12.42138 0.0161,2.02875 -1.28235,4.21953 -3.39007,4.59483 -2.44007,0.22562 -4.92292,-0.17972 -7.34613,0.20649 -2.67587,0.76759 -2.5985,5.26447 0.083,5.96037 2.21072,0.16758 4.43771,-0.0218 6.6541,0.0828 1.50955,0.10444 2.99971,0.96837 3.68951,2.34169 0.40923,0.82608 0.30422,1.77365 0.31752,2.6665 -0.0143,6.75619 0.004,13.51259 -0.009,20.26921 -3.83747,-1.11457 -7.67785,-2.21779 -11.51358,-3.33599 -0.63737,-0.17596 -1.26583,-0.43614 -1.93309,-0.44137 -24.717216,-0.01 -49.4352601,0.005 -74.152344,-0.007 -2.979788,0.0112 -5.633022,-3.21696 -4.627793,-6.1215 0.57331,-2.02067 2.550594,-3.47952 4.642795,-3.48333 12.555905,-0.0101 25.1123759,-0.002 37.6686099,-0.004 -0.0013,-0.70791 -0.0013,-1.41315 -8.5e-5,-2.11617 -12.530132,-0.009 -25.0610369,0.0191 -37.5904969,-0.0135 -3.136601,0.0455 -5.855153,-3.43309 -4.640768,-6.42701 0.707057,-1.99548 2.782882,-3.16878 4.840991,-3.16201 12.463042,-0.025 24.9269439,-0.004 37.3904379,-0.0106 -0.0013,-0.64923 -0.0013,-1.2962 5e-5,-1.94095 -12.583427,-0.004 -25.1670839,0.006 -37.7501829,-0.005 -2.282209,-0.034 -4.399788,-1.85905 -4.740148,-4.12098 -0.360363,-2.76151 1.968661,-5.57449 4.793956,-5.57026 12.565094,-0.0117 25.1308709,-0.001 37.6963459,-0.005 -0.0013,-0.64907 -0.0013,-1.29602 1.9e-5,-1.94094 -12.539504,-0.0112 -25.0799629,0.0218 -37.6186729,-0.0161 -3.146338,-0.0184 -5.735698,-3.51135 -4.662699,-6.50876 0.655457,-2.06376 2.739781,-3.45884 4.886836,-3.41805 10.263732,-0.0564 20.529438,-0.005 30.7940389,-0.0252 -3.211314,-0.92138 -6.442668,-1.77103 -9.6613289,-2.66434 -1.640997,-0.43594 -3.122481,-1.68599 -3.606864,-3.34211 -0.486545,-1.90003 -0.0127,-4.17716 1.624153,-5.39152 z m 0,0"
         id="path79"
         inkscape:connector-curvature="0" />
      <path
         style="opacity:1;fill:#ffffff;fill-rule:nonzero;stroke:none;stroke-width:0.35277775"
         d="m -13.7467,260.51768 c 1.550683,-1.09853 3.585487,-0.97041 5.3667969,-0.65937 20.9322591,4.06338 41.8648691,8.12484 62.7973791,12.18747 -0.005,4.14018 0.006,8.2808 -0.004,12.42138 0.0161,2.02875 -1.28235,4.21953 -3.39007,4.59483 -2.44007,0.22562 -4.92292,-0.17972 -7.34613,0.20649 -2.67587,0.76759 -2.5985,5.26447 0.083,5.96037 2.21072,0.16758 4.43771,-0.0218 6.6541,0.0828 1.50955,0.10444 2.99971,0.96837 3.68951,2.34169 0.40923,0.82608 0.30422,1.77365 0.31752,2.6665 -0.0143,6.75619 0.004,13.51259 -0.009,20.26921 -3.83747,-1.11457 -7.67785,-2.21779 -11.51358,-3.33599 -0.63737,-0.17596 -1.26583,-0.43614 -1.93309,-0.44137 -24.717216,-0.01 -49.4352601,0.005 -74.152344,-0.007 -2.979788,0.0112 -5.633022,-3.21696 -4.627793,-6.1215 0.57331,-2.02067 2.550594,-3.47952 4.642795,-3.48333 12.555905,-0.0101 25.1123759,-0.002 37.6686099,-0.004 -0.0013,-0.70791 -0.0013,-1.41315 -8.5e-5,-2.11617 -12.530132,-0.009 -25.0610369,0.0191 -37.5904969,-0.0135 -3.136601,0.0455 -5.855153,-3.43309 -4.640768,-6.42701 0.707057,-1.99548 2.782882,-3.16878 4.840991,-3.16201 12.463042,-0.025 24.9269439,-0.004 37.3904379,-0.0106 -0.0013,-0.64923 -0.0013,-1.2962 5e-5,-1.94095 -12.583427,-0.004 -25.1670839,0.006 -37.7501829,-0.005 -2.282209,-0.034 -4.399788,-1.85905 -4.740148,-4.12098 -0.360363,-2.76151 1.968661,-5.57449 4.793956,-5.57026 12.565094,-0.0117 25.1308709,-0.001 37.6963459,-0.005 -0.0013,-0.64907 -0.0013,-1.29602 1.9e-5,-1.94094 -12.539504,-0.0112 -25.0799629,0.0218 -37.6186729,-0.0161 -3.146338,-0.0184 -5.735698,-3.51135 -4.662699,-6.50876 0.655457,-2.06376 2.739781,-3.45884 4.886836,-3.41805 10.263732,-0.0564 20.529438,-0.005 30.7940389,-0.0252 -3.211314,-0.92138 -6.442668,-1.77103 -9.6613289,-2.66434 -1.640997,-0.43594 -3.122481,-1.68599 -3.606864,-3.34211 -0.486545,-1.90003 -0.0127,-4.17716 1.624153,-5.39152 z m 0,0"
         id="path81"
         inkscape:connector-curvature="0" />
    </g>
  </g>
</svg>
