<?xml version="1.0" encoding="UTF-8" standalone="no"?>
<!-- Created with Inkscape (http://www.inkscape.org/) -->

<svg
   xmlns:dc="http://purl.org/dc/elements/1.1/"
   xmlns:cc="http://creativecommons.org/ns#"
   xmlns:rdf="http://www.w3.org/1999/02/22-rdf-syntax-ns#"
   xmlns:svg="http://www.w3.org/2000/svg"
   xmlns="http://www.w3.org/2000/svg"
   xmlns:sodipodi="http://sodipodi.sourceforge.net/DTD/sodipodi-0.dtd"
   xmlns:inkscape="http://www.inkscape.org/namespaces/inkscape"
   width="580"
   height="580"
   viewBox="0 0 153.45833 153.45834"
   version="1.1"
   id="svg8"
   inkscape:version="0.92.3 (2405546, 2018-03-11)"
   sodipodi:docname="luggage_locker.svg">
  <defs
     id="defs2">
    <clipPath
       clipPathUnits="userSpaceOnUse"
       id="clipPath4810">
      <path
         inkscape:connector-curvature="0"
         d="M 0,792 H 1008 V 0 H 0 Z"
         id="path4812" />
    </clipPath>
  </defs>
  <sodipodi:namedview
     id="base"
     pagecolor="#ffffff"
     bordercolor="#666666"
     borderopacity="1.0"
     inkscape:pageopacity="0.0"
     inkscape:pageshadow="2"
     inkscape:zoom="0.94"
     inkscape:cx="49.032342"
     inkscape:cy="144.06683"
     inkscape:document-units="mm"
     inkscape:current-layer="layer1"
     showgrid="false"
     units="px"
     inkscape:window-width="1920"
     inkscape:window-height="1147"
     inkscape:window-x="-8"
     inkscape:window-y="-8"
     inkscape:window-maximized="1" />
  <metadata
     id="metadata5">
    <rdf:RDF>
      <cc:Work
         rdf:about="">
        <dc:format>image/svg+xml</dc:format>
        <dc:type
           rdf:resource="http://purl.org/dc/dcmitype/StillImage" />
        <dc:title></dc:title>
      </cc:Work>
    </rdf:RDF>
  </metadata>
  <g
     inkscape:label="Ebene 1"
     inkscape:groupmode="layer"
     id="layer1"
     transform="translate(0,-143.54165)">
    <g
       transform="matrix(15.596214,0,0,-15.596214,-11151.855,4727.928)"
       id="g4806">
      <g
         id="g4808"
         clip-path="url(#clipPath4810)">
        <g
           id="g4814"
           transform="translate(716.1952,293.7435)">
          <path
             inkscape:connector-curvature="0"
             d="m 0,0 c -0.541,0 -0.982,-0.439 -0.982,-0.979 v -7.522 c 0,-0.541 0.441,-0.981 0.982,-0.981 h 7.521 c 0.542,0 0.982,0.44 0.982,0.981 v 7.522 C 8.503,-0.439 8.063,0 7.521,0 Z"
             style="fill:#ffffff;fill-opacity:1;fill-rule:nonzero;stroke:none"
             id="path4816" />
        </g>
        <g
           id="g4818"
           transform="translate(723.7167,284.0609)">
          <path
             inkscape:connector-curvature="0"
             d="m 0,0 c 0.652,0 1.182,0.529 1.182,1.182 v 7.521 c 0,0.652 -0.53,1.18 -1.182,1.18 h -7.521 c -0.653,0 -1.182,-0.528 -1.182,-1.18 V 1.182 C -8.703,0.529 -8.174,0 -7.521,0 Z"
             style="fill:#111111;fill-opacity:1;fill-rule:nonzero;stroke:none"
             id="path4820" />
        </g>
        <g
           id="g4822"
           transform="translate(718.4862,291.89)">
          <path
             inkscape:connector-curvature="0"
             d="M 0,0 C 0.143,0 0.258,0.117 0.258,0.26 0.258,0.4 0.143,0.518 0,0.518 -0.143,0.518 -0.258,0.4 -0.258,0.26 -0.258,0.117 -0.143,0 0,0 M 3.098,-0.158 2.857,0.084 2.625,-0.152 2.394,0.08 2.164,-0.152 1.935,0.08 1.635,-0.223 1.252,-0.227 c -0.164,-0.291 -0.475,-0.49 -0.832,-0.49 -0.531,0 -0.961,0.43 -0.961,0.961 0,0.531 0.43,0.961 0.961,0.961 0.353,0 0.658,-0.195 0.826,-0.48 L 3.18,0.721 3.504,0.393 C 3.555,0.342 3.551,0.299 3.506,0.252 L 3.103,-0.156"
             style="fill:#ffffff;fill-opacity:1;fill-rule:nonzero;stroke:none"
             id="path4824" />
        </g>
        <path
           inkscape:connector-curvature="0"
           d="m 717.055,285.642 h 5.792 v 4.408 h -5.792 z m 6.378,-0.585 h -6.963 v 5.578 h 6.963 z"
           style="fill:#ffffff;fill-opacity:1;fill-rule:nonzero;stroke:none"
           id="path4826" />
        <g
           id="g4828"
           transform="translate(718.9452,288.9672)">
          <path
             inkscape:connector-curvature="0"
             d="m 0,0 h 0.492 v 0.344 c 0,0.129 0.113,0.211 0.249,0.211 H 1.266 C 1.4,0.555 1.515,0.473 1.515,0.344 V 0 H 2.009 V -2.455 H 0 Z"
             style="fill:#ffffff;fill-opacity:1;fill-rule:nonzero;stroke:none"
             id="path4830" />
        </g>
        <g
           id="g4832"
           transform="translate(718.6463,286.516)">
          <path
             inkscape:connector-curvature="0"
             d="m 0,0 h -0.271 c -0.184,0 -0.365,0.138 -0.365,0.376 v 1.706 c 0,0.213 0.176,0.374 0.365,0.374 H 0 Z"
             style="fill:#ffffff;fill-opacity:1;fill-rule:nonzero;stroke:none"
             id="path4834" />
        </g>
        <g
           id="g4836"
           transform="translate(721.2567,286.516)">
          <path
             inkscape:connector-curvature="0"
             d="m 0,0 h 0.271 c 0.185,0 0.365,0.138 0.365,0.376 v 1.706 c 0,0.213 -0.176,0.374 -0.365,0.374 H 0 Z"
             style="fill:#ffffff;fill-opacity:1;fill-rule:nonzero;stroke:none"
             id="path4838" />
        </g>
        <path
           inkscape:connector-curvature="0"
           d="m 720.273,289.322 h -0.658 v -0.354 h 0.658 z"
           style="fill:#373535;fill-opacity:1;fill-rule:nonzero;stroke:none"
           id="path4840" />
      </g>
    </g>
  </g>
</svg>
