<?xml version="1.0" encoding="utf-8"?>
<!-- Generator: Adobe Illustrator 15.0.0, SVG Export Plug-In . SVG Version: 6.00 Build 0)  -->
<!DOCTYPE svg PUBLIC "-//W3C//DTD SVG 1.1//EN" "http://www.w3.org/Graphics/SVG/1.1/DTD/svg11.dtd">
<svg version="1.1" xmlns="http://www.w3.org/2000/svg" xmlns:xlink="http://www.w3.org/1999/xlink" x="0px" y="0px" width="580px"
	 height="580px" viewBox="0 0 580 580" enable-background="new 0 0 580 580" xml:space="preserve">
<g id="Layer_1">
	<g id="Layer_1_1_">
		<g id="Layer_2">
			<g id="g1327">
				<path id="path1329" fill="#111111" stroke="#EEEEEE" stroke-width="3.408" d="M66.275,1.768
					c-41.335,0-64.571,21.371-64.571,65.036v450.123c0,40.844,20.895,62.229,62.192,62.229H515.92
					c41.307,0,62.229-20.315,62.229-62.229V66.804c0-42.601-20.925-65.036-63.521-65.036C514.624,1.768,66.133,1.625,66.275,1.768z"
					/>
			</g>
		</g>
	</g>
</g>
<g id="Layer_2_1_">
	<g>
		<path fill="#FFFFFF" d="M386.692,144.076c0,0-80.621-51.026-103.073,34.697c0,0-13.267,37.759,38.78,96.949
			c52.047,59.191,16.329,126.544,16.329,126.544s-59.19,73.479,1.021,120.422c60.21,46.943,121.441-32.656,101.031-80.622
			c-20.411-47.964,10.205-122.462,24.491-142.872c14.289-20.41,8.165-94.909-18.368-113.277
			C420.369,167.548,386.692,144.076,386.692,144.076z"/>
		<ellipse fill="#FFFFFF" cx="303.52" cy="82.298" rx="27.044" ry="39.291"/>
		<ellipse fill="#FFFFFF" cx="359.45" cy="91.483" rx="20.722" ry="30.105"/>
		<ellipse fill="#FFFFFF" cx="405.658" cy="109.853" rx="18.966" ry="27.554"/>
		<ellipse fill="#FFFFFF" cx="445.909" cy="137.407" rx="18.965" ry="27.554"/>
		<ellipse fill="#FFFFFF" cx="478.86" cy="178.011" rx="16.306" ry="23.688"/>
		
			<ellipse fill="none" stroke="#FFFFFF" stroke-width="6.9578" stroke-miterlimit="10" cx="301.684" cy="119.428" rx="37.044" ry="9.576"/>
		
			<rect x="91.751" y="117.86" transform="matrix(0.9188 -0.3947 0.3947 0.9188 -45.9852 84.1733)" fill="#FFFFFF" width="179.743" height="72.022"/>
	</g>
</g>
</svg>
