<?xml version="1.0" encoding="UTF-8" standalone="no"?>
<!-- Generator: Adobe Illustrator 15.0.0, SVG Export Plug-In . SVG Version: 6.00 Build 0)  -->

<svg
   xmlns:dc="http://purl.org/dc/elements/1.1/"
   xmlns:cc="http://creativecommons.org/ns#"
   xmlns:rdf="http://www.w3.org/1999/02/22-rdf-syntax-ns#"
   xmlns:svg="http://www.w3.org/2000/svg"
   xmlns="http://www.w3.org/2000/svg"
   xmlns:sodipodi="http://sodipodi.sourceforge.net/DTD/sodipodi-0.dtd"
   xmlns:inkscape="http://www.inkscape.org/namespaces/inkscape"
   version="1.1"
   x="0px"
   y="0px"
   width="580px"
   height="580px"
   viewBox="0 0 580 580"
   enable-background="new 0 0 580 580"
   xml:space="preserve"
   id="svg915"
   sodipodi:docname="motorsport_track.svg"
   inkscape:version="0.92.3 (2405546, 2018-03-11)"><metadata
   id="metadata921"><rdf:RDF><cc:Work
       rdf:about=""><dc:format>image/svg+xml</dc:format><dc:type
         rdf:resource="http://purl.org/dc/dcmitype/StillImage" /><dc:title></dc:title></cc:Work></rdf:RDF></metadata><defs
   id="defs919">
	
	
	
	
	
</defs><sodipodi:namedview
   pagecolor="#ffffff"
   bordercolor="#666666"
   borderopacity="1"
   objecttolerance="10"
   gridtolerance="10"
   guidetolerance="10"
   inkscape:pageopacity="0"
   inkscape:pageshadow="2"
   inkscape:window-width="1721"
   inkscape:window-height="943"
   id="namedview917"
   showgrid="false"
   inkscape:zoom="1.19"
   inkscape:cx="106.38655"
   inkscape:cy="290"
   inkscape:window-x="360"
   inkscape:window-y="129"
   inkscape:window-maximized="0"
   inkscape:current-layer="svg915" />
<g
   id="Layer_1">
	<g
   id="Layer_1_1_">
		<g
   id="Layer_2">
			<g
   id="g1327">
				<path
   id="path1329"
   d="M66.275,1.768      c-41.335,0-64.571,21.371-64.571,65.036v450.123c0,40.844,20.895,62.229,62.192,62.229H515.92      c41.307,0,62.229-20.315,62.229-62.229V66.804c0-42.601-20.925-65.036-63.521-65.036C514.624,1.768,66.133,1.625,66.275,1.768z"
   stroke-width="3.408"
   stroke="#EEEEEE"
   fill="#111111" />
			</g>
		</g>
	</g>
</g>

<path
   style="fill:none;fill-rule:evenodd;stroke:#ffffff;stroke-width:74.19999695;stroke-linecap:butt;stroke-linejoin:round;stroke-miterlimit:4;stroke-dasharray:none;stroke-opacity:1"
   d="m 112.61558,426.14452 c 0.28011,-89.63585 0.56023,-179.27171 0.84034,-268.90756 14.0056,-16.80672 28.01121,-33.61345 42.01681,-50.42017 20.72829,0 41.45658,0 62.18487,0 14.28571,17.08684 28.57143,34.17367 42.85714,51.26051 -0.56022,58.82353 -1.12045,117.64705 -1.68067,176.47058 7.84314,8.96359 15.68627,17.92717 23.52941,26.89076 17.64706,-0.28011 35.29412,-0.56023 52.94118,-0.84034 6.16812,-9.18217 14.3973,-17.69231 19.31796,-27.28123 -0.27686,-34.88385 -0.55371,-69.76769 -0.83057,-104.65154 10.08403,-10.64426 20.16807,-21.28851 30.2521,-31.93277 16.80672,-0.28011 33.61345,-0.56023 50.42017,-0.84034 10.64426,8.68347 21.28852,17.36695 31.93278,26.05042 0.28011,70.02801 0.56022,140.05603 0.84033,210.08404 -10.08403,14.0056 -20.16807,28.0112 -30.2521,42.0168 -94.11765,-1.40056 -188.23529,-2.80112 -282.35294,-4.20168 -14.0056,-14.56583 -28.01121,-29.13165 -42.01681,-43.69748 z"
   id="path1505"
   inkscape:connector-curvature="0" /></svg>