<?xml version="1.0" encoding="utf-8"?>
<!-- Generator: Adobe Illustrator 15.0.0, SVG Export Plug-In . SVG Version: 6.00 Build 0)  -->
<!DOCTYPE svg PUBLIC "-//W3C//DTD SVG 1.1//EN" "http://www.w3.org/Graphics/SVG/1.1/DTD/svg11.dtd">
<svg version="1.1" xmlns="http://www.w3.org/2000/svg" xmlns:xlink="http://www.w3.org/1999/xlink" x="0px" y="0px" width="580px"
	 height="580px" viewBox="0 0 580 580" enable-background="new 0 0 580 580" xml:space="preserve">
<g id="Layer_2">
	<g id="g1327">
		<path id="path1329" fill="#111111" stroke="#EEEEEE" stroke-width="3.408" d="M66.275,1.768
			c-41.335,0-64.571,21.371-64.571,65.036v450.123c0,40.844,20.894,62.229,62.192,62.229H515.92
			c41.307,0,62.229-20.316,62.229-62.229V66.804c0-42.601-20.923-65.036-63.522-65.036C514.624,1.768,66.133,1.625,66.275,1.768z"/>
	</g>
</g>
<g id="svg2" inkscape:version="0.46" sodipodi:docname="waste_bin.svg" sodipodi:version="0.32" xmlns:dc="http://purl.org/dc/elements/1.1/" xmlns:cc="http://creativecommons.org/ns#" xmlns:sodipodi="http://sodipodi.sourceforge.net/DTD/sodipodi-0.dtd" xmlns:svg="http://www.w3.org/2000/svg" xmlns:rdf="http://www.w3.org/1999/02/22-rdf-syntax-ns#" xmlns:inkscape="http://www.inkscape.org/namespaces/inkscape" inkscape:output_extension="org.inkscape.output.svg.inkscape">
	<g>
		<polygon fill="#FFFFFF" points="537.582,195.146 285.29,79.754 42.629,195.047 28.896,166.144 285.033,44.448 550.893,166.045 		
			"/>
	</g>
	<g>
		<g>
			<rect x="51.512" y="199.833" fill="#FFFFFF" width="15" height="323.333"/>
		</g>
		<g>
			<rect x="513.488" y="199.833" fill="#FFFFFF" width="15" height="323.333"/>
		</g>
	</g>
	<g>
		<path fill="#FFFFFF" d="M342.217,437.339c-15.929,25.149-39.905,47.243-70.169,54.6c-40.365,10.982-85.615-11.531-103.5-47.422
			c-16.907-31.588-11.047-73.867,15.698-98.653c3.79-5.223,14.139-7.297,12.616-14.85c-1.023-8.705,2.822-21.918-2.894-27.037
			c-36.01,17.301-63.207,52.962-65.221,92.365c-4.155,34.753,11.437,69.903,38.426,92.657c18.874,16.398,43.613,26.624,78.986,30.43
			c39.327,2.627,78.248-15.882,102.54-45.394C363.073,464.384,348.877,442.506,342.217,437.339z"/>
		<path fill="#FFFFFF" d="M444.71,441.295c-6.855,0.425-19.948,10.282-37.984,12.391c-17.17-33.616-33.533-67.896-50.54-101.705
			c-29.584-0.022-78.005,0.061-107.675-0.077c0.043-1.12-4.557-12.081,1.266-25.097c26.27,0,52.542,0,78.813,0
			c0-8.365,0-16.729,0-25.094c-26.82-0.354-53.841,1.172-80.5-0.9c-1.201-19.005-0.765-38.104-0.291-57.136
			c6.61-8.985,26.202-12.952,25.343-29.25c3.192-20.629-21-38.195-40.608-30.382c-19.807,5.621-27.266,31.79-13.025,46.262
			c0.421,48.105,0.6,96.214,1.306,144.315c22.885,0.004,102.03-2.771,117.144,0.556c15.206,30.252,51.815,104.661,55.899,111.062
			c16.198-5.36,41.618-17.482,57.726-23.092C452.414,463.839,452.221,440.668,444.71,441.295z"/>
	</g>
</g>
</svg>
