<?xml version="1.0" encoding="UTF-8" standalone="no"?>
<!-- Generator: Adobe Illustrator 15.0.0, SVG Export Plug-In . SVG Version: 6.00 Build 0)  -->

<svg
   xmlns:dc="http://purl.org/dc/elements/1.1/"
   xmlns:cc="http://creativecommons.org/ns#"
   xmlns:rdf="http://www.w3.org/1999/02/22-rdf-syntax-ns#"
   xmlns:svg="http://www.w3.org/2000/svg"
   xmlns="http://www.w3.org/2000/svg"
   xmlns:sodipodi="http://sodipodi.sourceforge.net/DTD/sodipodi-0.dtd"
   xmlns:inkscape="http://www.inkscape.org/namespaces/inkscape"
   version="1.1"
   x="0px"
   y="0px"
   width="580px"
   height="580px"
   viewBox="0 0 580 580"
   enable-background="new 0 0 580 580"
   xml:space="preserve"
   id="svg5126"
   sodipodi:docname="outdoor_seating.svg"
   inkscape:version="0.92.3 (2405546, 2018-03-11)"><metadata
   id="metadata5132"><rdf:RDF><cc:Work
       rdf:about=""><dc:format>image/svg+xml</dc:format><dc:type
         rdf:resource="http://purl.org/dc/dcmitype/StillImage" /><dc:title></dc:title></cc:Work></rdf:RDF></metadata><defs
   id="defs5130">
	

		
		
		
	</defs><sodipodi:namedview
   pagecolor="#ffffff"
   bordercolor="#666666"
   borderopacity="1"
   objecttolerance="10"
   gridtolerance="10"
   guidetolerance="10"
   inkscape:pageopacity="0"
   inkscape:pageshadow="2"
   inkscape:window-width="1320"
   inkscape:window-height="740"
   id="namedview5128"
   showgrid="false"
   inkscape:zoom="0.94316065"
   inkscape:cx="290"
   inkscape:cy="290"
   inkscape:window-x="376"
   inkscape:window-y="158"
   inkscape:window-maximized="0"
   inkscape:current-layer="svg5126" />
<g
   id="Layer_1">
	<g
   id="Layer_2">
		<g
   id="g1327">
			<path
   id="path1329"
   fill="#111111"
   stroke="#EEEEEE"
   stroke-width="3.408"
   d="M66.275,1.768     c-41.335,0-64.571,21.371-64.571,65.036v450.123c0,40.844,20.895,62.229,62.192,62.229H515.92     c41.307,0,62.229-20.315,62.229-62.229V66.804c0-42.601-20.924-65.036-63.521-65.036C514.624,1.768,66.133,1.625,66.275,1.768z" />
		</g>
	</g>
</g>

<path
   inkscape:connector-curvature="0"
   id="rect23"
   d="M 290.16735,74.558065 74.054342,167.07469 v 30.83888 H 274.50704 V 321.26909 H 135.7321 v 30.83888 h 138.77494 v 154.19441 h 30.83889 V 352.10797 H 444.12091 V 321.26909 H 305.34593 V 197.91357 H 505.79866 V 167.07469 Z M 74.054342,259.59134 c 0,82.2368 0,164.47392 0,246.71104 h 30.838878 v -61.67775 h 61.67775 v 61.67775 h 30.83888 c 0,-30.83888 0,-61.67775 0,-92.51666 -30.83888,0 -61.67775,0 -92.51663,0 V 259.59134 Z m 400.905438,0 v 154.19438 c -30.83887,0 -61.67778,0 -92.51666,0 0,30.83891 0,61.67778 0,92.51666 H 413.282 v -61.67775 h 61.67778 v 61.67775 h 30.83888 c 0,-82.23712 0,-164.47424 0,-246.71104 z"
   style="fill:#ffffff;fill-opacity:1;stroke:none;stroke-width:1.55594897" /></svg>