<?xml version="1.0" encoding="UTF-8" standalone="no"?>
<!-- Generator: Adobe Illustrator 15.0.0, SVG Export Plug-In . SVG Version: 6.00 Build 0)  -->

<svg
   xmlns:dc="http://purl.org/dc/elements/1.1/"
   xmlns:cc="http://creativecommons.org/ns#"
   xmlns:rdf="http://www.w3.org/1999/02/22-rdf-syntax-ns#"
   xmlns:svg="http://www.w3.org/2000/svg"
   xmlns="http://www.w3.org/2000/svg"
   xmlns:sodipodi="http://sodipodi.sourceforge.net/DTD/sodipodi-0.dtd"
   xmlns:inkscape="http://www.inkscape.org/namespaces/inkscape"
   version="1.1"
   x="0px"
   y="0px"
   width="580px"
   height="580px"
   viewBox="0 0 580 580"
   enable-background="new 0 0 580 580"
   xml:space="preserve"
   id="svg898"
   sodipodi:docname="planetarium.svg"
   inkscape:version="0.92.3 (2405546, 2018-03-11)"><metadata
   id="metadata904"><rdf:RDF><cc:Work
       rdf:about=""><dc:format>image/svg+xml</dc:format><dc:type
         rdf:resource="http://purl.org/dc/dcmitype/StillImage" /><dc:title></dc:title></cc:Work></rdf:RDF></metadata><defs
   id="defs902" /><sodipodi:namedview
   pagecolor="#ffffff"
   bordercolor="#666666"
   borderopacity="1"
   objecttolerance="10"
   gridtolerance="10"
   guidetolerance="10"
   inkscape:pageopacity="0"
   inkscape:pageshadow="2"
   inkscape:window-width="823"
   inkscape:window-height="480"
   id="namedview900"
   showgrid="false"
   inkscape:zoom="0.40689655"
   inkscape:cx="290"
   inkscape:cy="290"
   inkscape:window-x="1038"
   inkscape:window-y="464"
   inkscape:window-maximized="0"
   inkscape:current-layer="svg898" />
<g
   id="Layer_2">
	<g
   id="g1327">
		<path
   id="path1329"
   fill="#111111"
   stroke="#EEEEEE"
   stroke-width="3.408"
   d="M66.275,1.768    c-41.335,0-64.571,21.371-64.571,65.036v450.123c0,40.844,20.894,62.229,62.192,62.229H515.92    c41.307,0,62.229-20.316,62.229-62.229V66.804c0-42.601-20.923-65.036-63.522-65.036C514.624,1.768,66.133,1.625,66.275,1.768z" />
	</g>
</g>

<g
   transform="matrix(5.5436606,0,0,5.5436606,18.376977,2.9042502)"
   id="g28"
   style="fill:#ffffff;fill-opacity:1"><path
     inkscape:connector-curvature="0"
     d="M 75.132,54.237 C 76.739,44.761 72.844,34.785 64.356,29.063 55.868,23.341 45.159,23.472 36.978,28.515 22.357,21.52 10.602,19.351 7.525,23.916 3.7,29.589 14.542,43.79 32.487,57.548 c 0.028,0.021 0.055,0.042 0.083,0.063 0.593,0.454 1.195,0.907 1.803,1.36 0.083,0.062 0.166,0.125 0.25,0.188 0.546,0.404 1.1,0.808 1.658,1.211 0.148,0.107 0.293,0.215 0.442,0.322 0.528,0.379 1.064,0.756 1.602,1.133 0.177,0.124 0.35,0.249 0.528,0.373 0.713,0.497 1.435,0.991 2.165,1.483 0.732,0.493 1.463,0.978 2.192,1.454 0.144,0.094 0.286,0.183 0.429,0.276 0.592,0.384 1.183,0.765 1.773,1.138 0.118,0.074 0.234,0.146 0.352,0.219 0.618,0.389 1.235,0.772 1.85,1.148 0.078,0.047 0.155,0.093 0.233,0.14 0.657,0.4 1.313,0.794 1.966,1.18 0.031,0.018 0.062,0.035 0.092,0.053 C 69.388,80.765 86.618,85.488 90.443,79.815 93.52,75.25 87.1,65.167 75.132,54.237 Z M 21.145,31.439 c 1.19,-1.766 5.329,-1.304 11.088,0.865 -1.063,1.085 -2.048,2.275 -2.928,3.581 -1.248,1.852 -2.209,3.81 -2.91,5.824 -4.374,-4.671 -6.468,-8.463 -5.25,-10.27 z m 57.214,38.573 c -1.218,1.807 -5.519,1.286 -11.488,-1.015 1.604,-1.405 3.059,-3.031 4.307,-4.883 0.88,-1.305 1.614,-2.664 2.221,-4.058 4.17,4.526 6.151,8.19 4.96,9.956 z"
     id="path24"
     style="fill:#ffffff;fill-opacity:1" /><path
     inkscape:connector-curvature="0"
     d="m 25.25,53.613 c 0.985,6.802 4.728,13.179 10.876,17.323 6.148,4.145 13.463,5.223 20.138,3.585 C 51.1,71.842 45.663,68.622 40.178,64.924 34.694,61.228 29.67,57.395 25.25,53.613 Z"
     id="path26"
     style="fill:#ffffff;fill-opacity:1" /></g></svg>