<?xml version="1.0" encoding="UTF-8" standalone="no"?>
<!-- Generator: Adobe Illustrator 15.0.0, SVG Export Plug-In . SVG Version: 6.00 Build 0)  -->

<svg
   xmlns:dc="http://purl.org/dc/elements/1.1/"
   xmlns:cc="http://creativecommons.org/ns#"
   xmlns:rdf="http://www.w3.org/1999/02/22-rdf-syntax-ns#"
   xmlns:svg="http://www.w3.org/2000/svg"
   xmlns="http://www.w3.org/2000/svg"
   xmlns:sodipodi="http://sodipodi.sourceforge.net/DTD/sodipodi-0.dtd"
   xmlns:inkscape="http://www.inkscape.org/namespaces/inkscape"
   version="1.1"
   x="0px"
   y="0px"
   width="580px"
   height="580px"
   viewBox="0 0 580 580"
   enable-background="new 0 0 580 580"
   xml:space="preserve"
   id="svg4145"
   sodipodi:docname="post_depot.svg"
   inkscape:version="0.92.3 (2405546, 2018-03-11)"><metadata
   id="metadata4151"><rdf:RDF><cc:Work
       rdf:about=""><dc:format>image/svg+xml</dc:format><dc:type
         rdf:resource="http://purl.org/dc/dcmitype/StillImage" /><dc:title></dc:title></cc:Work></rdf:RDF></metadata><defs
   id="defs4149">
	
	
	
	
	
</defs><sodipodi:namedview
   pagecolor="#ffffff"
   bordercolor="#666666"
   borderopacity="1"
   objecttolerance="10"
   gridtolerance="10"
   guidetolerance="10"
   inkscape:pageopacity="0"
   inkscape:pageshadow="2"
   inkscape:window-width="1114"
   inkscape:window-height="805"
   id="namedview4147"
   showgrid="false"
   inkscape:zoom="0.87885424"
   inkscape:cx="290"
   inkscape:cy="290"
   inkscape:window-x="447"
   inkscape:window-y="74"
   inkscape:window-maximized="0"
   inkscape:current-layer="svg4145" />
<g
   id="Layer_1">
	<g
   id="Layer_1_1_">
		<g
   id="Layer_2">
			<g
   id="g1327">
				<path
   id="path1329"
   fill="#111111"
   stroke="#EEEEEE"
   stroke-width="3.408"
   d="M66.275,1.768      c-41.335,0-64.571,21.371-64.571,65.036v450.123c0,40.844,20.895,62.229,62.192,62.229H515.92      c41.307,0,62.229-20.315,62.229-62.229V66.804c0-42.601-20.925-65.036-63.521-65.036C514.624,1.768,66.133,1.625,66.275,1.768z" />
			</g>
		</g>
	</g>
</g>
<g
   id="g4118">
		<g
   id="g4106">
			<polygon
   style="fill:#ffffff"
   id="polygon4104"
   points="42.734,201.239 29.002,172.336 285.139,50.641 550.998,172.237 537.688,201.338 285.395,85.946 " />
		</g>
		<g
   id="g4116">
			<g
   id="g4110">
				<rect
   style="fill:#ffffff"
   id="rect4108"
   height="323.33401"
   width="15"
   y="206.02499"
   x="51.512001" />
			</g>
			<g
   id="g4114">
				<rect
   style="fill:#ffffff"
   id="rect4112"
   height="323.33401"
   width="15"
   y="206.02499"
   x="513.48798" />
			</g>
		</g>
	</g>
<path
   inkscape:connector-curvature="0"
   style="font-style:normal;font-variant:normal;font-weight:normal;font-stretch:normal;font-size:40px;line-height:125%;font-family:NPSPICT3;-inkscape-font-specification:NPSPICT3;text-align:start;writing-mode:lr-tb;text-anchor:start;fill:#ffffff;fill-opacity:1;stroke:none;stroke-width:0.36882654px;stroke-linecap:butt;stroke-linejoin:miter;stroke-opacity:1"
   d="m 111.1025,224.51706 36.81917,36.99832 -36.81917,36.81917 z m 114.54493,-6.93719 -45.35224,45.17855 c -2.25459,2.25455 -5.10074,3.3818 -8.53849,3.38174 -3.55733,6e-5 -6.52292,-1.18691 -8.89675,-3.56088 l -44.99938,-44.99941 z m 7.11632,80.75468 -36.81919,-36.81917 36.81919,-36.99832 z m -115.08232,6.93718 36.9983,-36.81917 1.60131,1.60129 c 4.27007,4.15078 9.42861,6.22615 15.47566,6.22611 6.04687,4e-5 11.14571,-2.07533 15.29654,-6.22611 l 1.60131,-1.60129 36.99288,36.81917 z m -16.5396,9.96067 H 243.08267 V 207.44009 H 101.14183 Z"
   id="flowRoot3192" /></svg>