<?xml version="1.0" encoding="utf-8"?>
<!-- Generator: Adobe Illustrator 15.0.0, SVG Export Plug-In . SVG Version: 6.00 Build 0)  -->
<!DOCTYPE svg PUBLIC "-//W3C//DTD SVG 1.1//EN" "http://www.w3.org/Graphics/SVG/1.1/DTD/svg11.dtd">
<svg version="1.1" xmlns="http://www.w3.org/2000/svg" xmlns:xlink="http://www.w3.org/1999/xlink" x="0px" y="0px" width="580px"
	 height="580px" viewBox="0 0 580 580" enable-background="new 0 0 580 580" xml:space="preserve">
<g id="Layer_1">
	<g id="Layer_2">
		<g id="g1327">
			<path id="path1329" fill="#111111" stroke="#EEEEEE" stroke-width="3.408" d="M66.275,1.768
				c-41.335,0-64.571,21.371-64.571,65.036v450.123c0,40.844,20.895,62.229,62.192,62.229h452.024
				c41.307,0,62.229-20.315,62.229-62.229V66.804c0-42.602-20.923-65.036-63.521-65.036C514.625,1.768,66.133,1.625,66.275,1.768z"
				/>
		</g>
	</g>
</g>
<g id="Layer_2_1_">
	<g>
		<path fill-rule="evenodd" clip-rule="evenodd" fill="#FFFFFF" d="M47.5,339.316c0,64.116,47.382,117.155,109.039,126.035
			l-5.039,19.315c0,6.075,4.925,11,11,11h6c6.075,0,11-4.925,11-11l4.696-18h211.609l4.695,18c0,6.075,4.925,11,11,11h6
			c6.075,0,11-4.925,11-11l-5.039-19.315c61.657-8.88,109.039-61.919,109.039-126.035v-28.215h-485V339.316z"/>
		<path fill-rule="evenodd" clip-rule="evenodd" fill="#FFFFFF" d="M527.834,293.666H87.166V114.333
			c0-0.236-0.004-0.394-0.025-0.629c-0.005-0.08-0.479-8.043,5.022-13.931c4.612-4.937,12.351-7.439,23.003-7.439h36.667v20.192
			c-16.958,3.669-29.667,18.75-29.667,36.808c0,0.335,0.017,0.667,0.025,1h75.283c0.009-0.333,0.025-0.665,0.025-1
			c0-18.057-12.708-33.138-29.667-36.808V84.333c0-4.418-3.582-8-8-8h-44.667c-15.423,0-27.175,4.296-34.929,12.77
			c-9.412,10.286-9.24,22.74-9.071,25.511v179.052H52.167c-3.683,0-6.667,2.985-6.667,6.667c0,3.683,2.984,6.667,6.667,6.667
			h475.667c3.682,0,6.666-2.984,6.666-6.667C534.5,296.651,531.515,293.666,527.834,293.666z"/>
	</g>
</g>
</svg>
