<?xml version="1.0" encoding="UTF-8" standalone="no"?>
<!-- Generator: Adobe Illustrator 15.0.0, SVG Export Plug-In . SVG Version: 6.00 Build 0)  -->

<svg
   version="1.1"
   x="0px"
   y="0px"
   width="580px"
   height="580px"
   viewBox="0 0 580 580"
   enable-background="new 0 0 580 580"
   xml:space="preserve"
   id="svg4"
   sodipodi:docname="reception_desk.svg"
   inkscape:version="1.4.4 (dcaf3e7, 2026-05-05)"
   xmlns:inkscape="http://www.inkscape.org/namespaces/inkscape"
   xmlns:sodipodi="http://sodipodi.sourceforge.net/DTD/sodipodi-0.dtd"
   xmlns="http://www.w3.org/2000/svg"
   xmlns:svg="http://www.w3.org/2000/svg"><defs
   id="defs4">
	
	

		
		
	</defs><sodipodi:namedview
   id="namedview4"
   pagecolor="#ffffff"
   bordercolor="#666666"
   borderopacity="1.0"
   inkscape:showpageshadow="2"
   inkscape:pageopacity="0.0"
   inkscape:pagecheckerboard="0"
   inkscape:deskcolor="#d1d1d1"
   inkscape:zoom="1.5568966"
   inkscape:cx="289.67885"
   inkscape:cy="290"
   inkscape:window-width="1904"
   inkscape:window-height="1131"
   inkscape:window-x="259"
   inkscape:window-y="-9"
   inkscape:window-maximized="0"
   inkscape:current-layer="svg4" />
<g
   id="Layer_2">
	<g
   id="g1327">
		<path
   id="path1329"
   fill="#111111"
   stroke="#EEEEEE"
   stroke-width="3.408"
   d="M66.275,1.768    c-41.335,0-64.571,21.371-64.571,65.036v450.123c0,40.844,20.894,62.229,62.192,62.229H515.92    c41.307,0,62.229-20.316,62.229-62.229V66.804c0-42.601-20.923-65.036-63.522-65.036C514.624,1.768,66.133,1.625,66.275,1.768z" />
	</g>
</g>
<g
   id="g4"
   transform="translate(-2.35e-4,-29.545969)"><path
     fill="#ffffff"
     d="M 451.65428,335.05993 H 367.3923 c 1.72693,-4.40862 2.68296,-9.20015 2.68296,-14.21991 v -41.26626 l -3.07982,-37.60572 c -5.93014,-13.98281 -19.78488,-23.7941 -35.93078,-23.7941 h -82.13058 c -16.14591,0 -30.00065,9.81003 -35.93079,23.79537 l -3.07981,37.60318 v 41.26753 c 0,5.01976 0.95602,9.81129 2.68295,14.21991 h -84.26071 v 28.52603 11.41143 l 0.6423,157.98589 c 0,0 136.76249,-1.08567 322.02143,-0.64231 l 0.6423,-157.34358 h 0.003 z m -112.3772,-64.52655 v 64.52655 h -9.23945 v -64.52655 z m -98.55543,0 h 9.24072 v 64.52655 h -9.24072 z"
     id="path1"
     style="stroke-width:1.26794"
     sodipodi:nodetypes="ccsccssccsccccccccccccccccccc" /><circle
     fill="#ffffff"
     cx="290"
     cy="153.84647"
     r="47.737808"
     id="circle1"
     style="stroke-width:1.26794" /></g>
</svg>
