<?xml version="1.0" encoding="UTF-8" standalone="no"?>
<!-- Generator: Adobe Illustrator 15.0.0, SVG Export Plug-In . SVG Version: 6.00 Build 0)  -->

<svg
   xmlns:dc="http://purl.org/dc/elements/1.1/"
   xmlns:cc="http://creativecommons.org/ns#"
   xmlns:rdf="http://www.w3.org/1999/02/22-rdf-syntax-ns#"
   xmlns:svg="http://www.w3.org/2000/svg"
   xmlns="http://www.w3.org/2000/svg"
   xmlns:sodipodi="http://sodipodi.sourceforge.net/DTD/sodipodi-0.dtd"
   xmlns:inkscape="http://www.inkscape.org/namespaces/inkscape"
   version="1.1"
   x="0px"
   y="0px"
   width="580px"
   height="580px"
   viewBox="0 0 580 580"
   enable-background="new 0 0 580 580"
   xml:space="preserve"
   id="svg1634"
   sodipodi:docname="research.svg"
   inkscape:version="0.92.3 (2405546, 2018-03-11)"><metadata
   id="metadata1640"><rdf:RDF><cc:Work
       rdf:about=""><dc:format>image/svg+xml</dc:format><dc:type
         rdf:resource="http://purl.org/dc/dcmitype/StillImage" /></cc:Work></rdf:RDF></metadata><defs
   id="defs1638">
	
	
	
	
</defs><sodipodi:namedview
   pagecolor="#ffffff"
   bordercolor="#666666"
   borderopacity="1"
   objecttolerance="10"
   gridtolerance="10"
   guidetolerance="10"
   inkscape:pageopacity="0"
   inkscape:pageshadow="2"
   inkscape:window-width="1706"
   inkscape:window-height="1016"
   id="namedview1636"
   showgrid="false"
   inkscape:zoom="1.0074671"
   inkscape:cx="290"
   inkscape:cy="290"
   inkscape:window-x="0"
   inkscape:window-y="0"
   inkscape:window-maximized="0"
   inkscape:current-layer="svg1634" />
<g
   id="Layer_2_1_">
	<g
   id="Layer_1_1_">
		<g
   id="Layer_2">
			<g
   id="g1327">
				<path
   id="path1329"
   fill="#111111"
   stroke="#EEEEEE"
   stroke-width="3.408"
   d="M66.275,1.768      c-41.335,0-64.571,21.371-64.571,65.036v450.123c0,40.844,20.895,62.229,62.192,62.229H515.92      c41.307,0,62.229-20.315,62.229-62.229V66.804c0-42.601-20.925-65.036-63.521-65.036C514.624,1.768,66.133,1.625,66.275,1.768z" />
			</g>
		</g>
	</g>
</g>
<g
   id="g2198"><path
     d="m 285.908,266.912 h -32.943 v 83.926 c 0,5.198 -4.214,9.412 -9.412,9.412 h -1.569 c -5.198,0 -9.412,-4.214 -9.412,-9.412 v -83.926 h -28.237 v 83.926 c 0,5.198 -4.214,9.412 -9.412,9.412 h -1.569 c -5.198,0 -9.412,-4.214 -9.412,-9.412 v -83.926 h -27.453 v 83.926 c 0,5.198 -4.214,9.412 -9.412,9.412 h -1.569 c -5.198,0 -9.412,-4.214 -9.412,-9.412 v -83.926 h -29.021 c -1.946,0 -3.53,1.583 -3.53,3.529 v 93.744 c 0,1.946 1.583,3.53 3.53,3.53 h 178.833 c 1.946,0 3.53,-1.584 3.53,-3.53 v -93.744 c 0,-1.946 -1.584,-3.529 -3.53,-3.529 z"
     id="path1621"
     inkscape:connector-curvature="0"
     style="fill:#ffffff" /><path
     d="M 508.874,144.006 H 71.126 c -5.667,0 -10.262,4.594 -10.262,10.262 v 273.987 c 0,5.668 4.595,10.263 10.262,10.263 h 437.748 c 5.668,0 10.263,-4.595 10.263,-10.263 V 154.268 c 0,-5.668 -4.595,-10.262 -10.263,-10.262 z M 301.203,385.35 c 0,8.434 -6.862,15.295 -15.295,15.295 H 107.075 c -8.434,0 -15.295,-6.861 -15.295,-15.295 V 270.441 c 0,-8.433 6.861,-15.294 15.295,-15.294 h 29.021 v -65.102 c 0,-5.198 20.393,-5.198 20.393,0 v 65.102 h 27.453 v -65.102 c 0,-5.198 20.393,-5.198 20.393,0 v 65.102 h 28.237 v -65.102 c 0,-5.198 20.393,-5.198 20.393,0 v 65.102 h 32.943 c 8.433,0 15.295,6.861 15.295,15.294 V 385.35 Z m 195.108,1.176 c 0,5.197 -4.215,9.412 -9.412,9.412 H 373.167 c -5.198,0 -9.412,-4.215 -9.412,-9.412 V 261.814 L 323.36,221.42 h 47.846 v 0.208 c 0.633,-0.134 1.288,-0.208 1.961,-0.208 h 14.118 99.613 c 5.197,0 9.412,4.214 9.412,9.412 v 155.694 z"
     id="path1623"
     inkscape:connector-curvature="0"
     style="fill:#ffffff" /><g
     id="g1631">
		<path
   d="m 476.702,279.462 h -2.682 c 3.972,-2.589 6.603,-7.063 6.603,-12.157 0,-8.014 -6.496,-14.511 -14.51,-14.511 -8.014,0 -14.511,6.497 -14.511,14.511 0,5.095 2.631,9.568 6.604,12.157 h -75.627 c -5.197,0 -9.412,4.215 -9.412,9.412 v 85.495 c 0,5.197 4.215,9.412 9.412,9.412 h 94.123 c 5.197,0 9.412,-4.215 9.412,-9.412 v -85.495 c 0,-5.197 -4.215,-9.412 -9.412,-9.412 z"
   id="path1625"
   inkscape:connector-curvature="0"
   style="fill:#ffffff" />
		<circle
   cx="438.66699"
   cy="264.173"
   r="9.026"
   id="circle1627"
   style="fill:#ffffff" />
		<circle
   cx="459.642"
   cy="239.65601"
   r="8.04"
   id="circle1629"
   style="fill:#ffffff" />
	</g></g>
</svg>