<?xml version="1.0" encoding="utf-8"?>
<!-- Generator: Adobe Illustrator 15.0.0, SVG Export Plug-In . SVG Version: 6.00 Build 0)  -->
<!DOCTYPE svg PUBLIC "-//W3C//DTD SVG 1.1//EN" "http://www.w3.org/Graphics/SVG/1.1/DTD/svg11.dtd">
<svg version="1.1" id="Layer_1" xmlns="http://www.w3.org/2000/svg" xmlns:xlink="http://www.w3.org/1999/xlink" x="0px" y="0px"
	 width="580px" height="580px" viewBox="0 0 580 580" enable-background="new 0 0 580 580" xml:space="preserve">
<g id="Layer_2">
	<g id="g1327">
		<path id="path1329" fill="#111111" stroke="#EEEEEE" stroke-width="3.408" d="M66.275,1.768
			c-41.335,0-64.571,21.371-64.571,65.036v450.123c0,40.844,20.895,62.229,62.192,62.229h452.024
			c41.307,0,62.229-20.315,62.229-62.229V66.804c0-42.602-20.923-65.036-63.521-65.036C514.625,1.768,66.133,1.625,66.275,1.768z"/>
	</g>
</g>
<g id="svg2" sodipodi:version="0.32" inkscape:version="0.46" sodipodi:docname="waste_bin.svg" xmlns:cc="http://creativecommons.org/ns#" xmlns:sodipodi="http://sodipodi.sourceforge.net/DTD/sodipodi-0.dtd" xmlns:svg="http://www.w3.org/2000/svg" xmlns:inkscape="http://www.inkscape.org/namespaces/inkscape" xmlns:rdf="http://www.w3.org/1999/02/22-rdf-syntax-ns#" xmlns:dc="http://purl.org/dc/elements/1.1/" inkscape:output_extension="org.inkscape.output.svg.inkscape">
	<g>
		<polygon fill="#FFFFFF" points="537.582,195.146 285.29,79.754 42.629,195.047 28.896,166.144 285.033,44.448 550.893,166.045 		
			"/>
	</g>
	<g>
		<path fill="#FFFFFF" d="M211.094,247.658c7.724,0,14.273-2.687,19.653-8.062s8.069-11.76,8.069-19.155
			c0-7.733-2.689-14.288-8.069-19.662c-2.539-2.536-5.342-4.466-8.401-5.806c1.039-1.417,1.644-3.057,1.644-4.809
			c0-5.339-5.522-9.667-12.333-9.667s-12.333,4.328-12.333,9.667c0,1.648,0.529,3.2,1.458,4.559
			c-3.203,1.344-6.153,3.361-8.85,6.056c-5.381,5.375-8.07,11.929-8.07,19.662c0,7.396,2.689,13.78,8.07,19.155
			C197.311,244.971,203.698,247.659,211.094,247.658z"/>
		<path fill="#FFFFFF" d="M460.339,358.049c-3.271,0-6.408,0.571-9.325,1.613v-70.663c0-9.744-3.277-18.229-9.831-25.456
			c-6.555-7.226-15.042-10.838-25.463-10.838h-72.096c-9.745,0-18.928,2.68-24.956,10.338c-2.649,3.367-5.511,16.457-10.339,25.462
			l-19.846,42.253l-15.896-52.838c-1.683-5.384-5.545-10.595-11.585-15.631c-7.396-6.051-15.463-9.077-24.2-9.078h-53.94
			c-8.412,0-15.976,3.026-22.693,9.078c-5.047,4.698-8.405,9.908-10.078,15.631l-23.199,77.128c-0.536,1.353-0.848,2.59-0.952,3.724
			c-2.02-0.468-4.117-0.724-6.276-0.724c-15.321,0-27.786,12.465-27.786,27.786c0,2.366,1.919,4.285,4.286,4.285
			s4.286-1.919,4.286-4.285c0-10.596,8.619-19.215,19.214-19.215s19.214,8.619,19.214,19.215v137.332
			c0,2.366,1.919,4.285,4.286,4.285s4.286-1.919,4.286-4.285V417.051h32.383v97.805c-0.001,8.739,4.2,13.108,12.601,13.108
			c8.399,0,12.602-4.369,12.602-13.108v-98.296h12.616v98.804c-0.001,8.4,4.199,12.602,12.6,12.602
			c8.401,0,12.602-4.2,12.602-12.602v-98.313h33.771l-35.277-125.528h12.094l21.17,70.588c0.845,3.04,2.156,5.314,3.933,6.828
			c0.184,0.159,0.378,0.304,0.576,0.447c0.036,0.025,0.07,0.054,0.105,0.079c0.202,0.143,0.415,0.273,0.632,0.4
			c0.046,0.026,0.093,0.055,0.141,0.08c0.214,0.119,0.435,0.231,0.663,0.336c0.041,0.02,0.084,0.035,0.125,0.053
			c1.51,0.66,3.313,1.003,5.426,1.003c7.057,0,9.319-3.424,12.452-11.087l31.352-69.728h13.106v221.825
			c0,10.081,5.041,15.123,15.124,15.123c10.082,0,15.123-5.042,15.124-15.123V383.787h13.108v128.561
			c0,10.081,5.04,15.123,15.123,15.123c10.421,0,15.631-5.042,15.632-15.123V290.522h12.601v81.664c0,4.461,1.006,7.726,2.995,9.817
			c-0.174,1.253-0.271,2.529-0.271,3.829v137.332c0,2.367,1.919,4.286,4.286,4.286c2.366,0,4.286-1.919,4.286-4.286v-137.33
			c0-0.363,0.033-0.718,0.055-1.075c6.549-0.303,9.834-4.484,9.834-12.572v-3.138c2.765-1.542,5.94-2.43,9.325-2.43
			c10.595,0,19.214,8.619,19.214,19.215c0,2.366,1.919,4.285,4.286,4.285s4.286-1.919,4.286-4.285
			C488.124,370.513,475.659,358.049,460.339,358.049z M147.448,411.986v-26.152c0-5.864-1.832-11.309-4.946-15.798
			c2.626-1.385,4.487-4.021,5.574-7.927l21.17-70.588h11.585L147.448,411.986z"/>
		<path fill="#FFFFFF" d="M347.925,212.745h5.648c-0.578,2.262-0.872,4.657-0.872,7.189c-0.001,7.396,2.688,13.782,8.063,19.163
			c5.374,5.38,11.759,8.069,19.154,8.068c7.396,0,13.782-2.688,19.162-8.068c5.379-5.381,8.068-11.768,8.069-19.163
			c0-2.532-0.296-4.928-0.874-7.189h5.648c2.394,0,4.334-1.939,4.334-4.333s-1.94-4.333-4.334-4.333h-3.439l-3.817-14.159
			c0-3.865-3.134-7-7-7h-35.955c-3.865,0-7,3.135-7,7l-3.16,14.159h-3.627c-2.393,0-4.334,1.94-4.334,4.333
			C343.591,210.805,345.532,212.745,347.925,212.745z"/>
	</g>
	<g>
		<g>
			<rect x="51.512" y="199.833" fill="#FFFFFF" width="15" height="323.333"/>
		</g>
		<g>
			<rect x="513.488" y="199.833" fill="#FFFFFF" width="15" height="323.333"/>
		</g>
	</g>
</g>
</svg>
