<?xml version="1.0" encoding="UTF-8" standalone="no"?>
<!-- Generator: Adobe Illustrator 15.0.0, SVG Export Plug-In . SVG Version: 6.00 Build 0)  -->

<svg
   xmlns:dc="http://purl.org/dc/elements/1.1/"
   xmlns:cc="http://creativecommons.org/ns#"
   xmlns:rdf="http://www.w3.org/1999/02/22-rdf-syntax-ns#"
   xmlns:svg="http://www.w3.org/2000/svg"
   xmlns="http://www.w3.org/2000/svg"
   xmlns:sodipodi="http://sodipodi.sourceforge.net/DTD/sodipodi-0.dtd"
   xmlns:inkscape="http://www.inkscape.org/namespaces/inkscape"
   version="1.1"
   x="0px"
   y="0px"
   width="580px"
   height="580px"
   viewBox="0 0 580 580"
   enable-background="new 0 0 580 580"
   xml:space="preserve"
   id="svg2"
   inkscape:version="0.48.4 r9939"
   sodipodi:docname="sanitary_dump_station.svg"><metadata
   id="metadata27"><rdf:RDF><cc:Work
       rdf:about=""><dc:format>image/svg+xml</dc:format><dc:type
         rdf:resource="http://purl.org/dc/dcmitype/StillImage" /><dc:title></dc:title></cc:Work></rdf:RDF></metadata><defs
   id="defs25">
	
	
	
</defs><sodipodi:namedview
   pagecolor="#ffffff"
   bordercolor="#666666"
   borderopacity="1"
   objecttolerance="10"
   gridtolerance="10"
   guidetolerance="10"
   inkscape:pageopacity="0"
   inkscape:pageshadow="2"
   inkscape:window-width="1110"
   inkscape:window-height="895"
   id="namedview23"
   showgrid="false"
   inkscape:zoom="0.079"
   inkscape:cx="159.96151"
   inkscape:cy="290"
   inkscape:window-x="633"
   inkscape:window-y="92"
   inkscape:window-maximized="0"
   inkscape:current-layer="svg2" />
<g
   id="Layer_2">
	<g
   id="g1327">
		<path
   id="path1329"
   fill="#111111"
   stroke="#EEEEEE"
   stroke-width="3.408"
   d="M66.275,1.768    c-41.335,0-64.571,21.371-64.571,65.036v450.123c0,40.844,20.894,62.229,62.192,62.229H515.92    c41.307,0,62.229-20.316,62.229-62.229V66.804c0-42.601-20.923-65.036-63.522-65.036C514.624,1.768,66.133,1.625,66.275,1.768z" />
	</g>
</g>

<g
   transform="matrix(-0.87828575,0,0,0.87828575,519.122,-7.1100718)"
   id="Layer_1"><g
     id="g3045"
     transform="translate(1.1106213,-20.902565)"><path
       transform="matrix(-1.1385816,0,0,1.1385816,591.06276,8.095397)"
       sodipodi:nodetypes="ccsscssscsssssssscssscccc"
       style="fill:#ffffff"
       inkscape:connector-curvature="0"
       id="path3052"
       d="m 351.25428,290.88903 c 63.28047,-0.95708 -19.7999,-0.44996 -0.0189,0.82005 l 134.69173,0 c 8.7148,0 15.78005,7.06525 15.78005,15.78005 l 0,60.49023 3.94501,0 c 2.32389,0 4.20802,1.88414 4.20802,4.20802 l 0,12.62404 c 0,0.1783 -0.0148,0.35347 -0.0363,0.526 l 21.07638,0 c 2.32388,0 4.20801,1.88412 4.20801,4.20802 l 0,105.72637 c 0,2.32388 -1.88413,4.20802 -4.20801,4.20802 l -131.50047,0 c -2.32389,0 -4.20801,-1.88414 -4.20801,-4.20802 l 0,-105.72637 c 0,-2.3239 1.88412,-4.20802 4.20801,-4.20802 l 62.63053,0 c -0.0215,-0.17253 -0.0363,-0.3477 -0.0363,-0.526 l 0,-12.62404 c 0,-2.32388 1.88413,-4.20802 4.208,-4.20802 l 3.94501,0 0,-44.71017 -119.20784,0.45737 c 0.0738,-39.5755 1.19509,13.97741 0.31512,-32.83753 z" /><path
       d="m 429.221,237.716 c -10e-4,11.354 -5.48,17.031 -16.439,17.03 h -58.155 c -10.972,0.001 -16.458,-5.677 -16.457,-17.03 v -27.607 c -0.001,-10.972 5.485,-16.457 16.457,-16.457 h 58.155 c 10.959,0 16.438,5.485 16.439,16.457 v 27.607 z m -165.646,0.591 c 0,10.959 -5.683,16.439 -17.049,16.438 H 120.822 c -10.972,0.001 -16.457,-5.479 -16.457,-16.438 v -28.199 c 0,-10.972 5.485,-16.457 16.457,-16.457 h 125.704 c 11.366,0 17.049,5.485 17.049,16.457 v 28.199 z M 521.456,370.483 H 479.148 V 223.625 c -0.001,-22.719 -7.931,-41.91 -23.789,-57.572 -15.86,-15.662 -34.952,-23.493 -57.277,-23.494 H 123.171 c -22.72,0.001 -41.911,7.832 -57.573,23.494 -15.662,15.662 -23.493,34.854 -23.493,57.572 v 103.978 c 0,16.445 5.874,30.542 17.622,42.29 11.748,11.748 25.845,17.622 42.29,17.622 H 196.6 c 1.171,-16.84 7.828,-31.134 19.971,-42.882 12.143,-11.748 26.831,-17.622 44.065,-17.622 16.839,0 31.426,5.874 43.76,17.622 12.333,11.748 18.895,25.845 19.684,42.29 h 213.816 c -0.002,-10.959 -5.481,-16.44 -16.44,-16.44 l 0,0 z m -260.821,41.108 c -5.486,0 -10.187,-1.957 -14.101,-5.871 -3.914,-3.914 -5.871,-8.614 -5.871,-14.1 0,-5.868 1.957,-10.664 5.871,-14.387 3.914,-3.723 8.614,-5.584 14.101,-5.584 5.473,0 10.17,1.861 14.09,5.584 3.92,3.723 5.88,8.519 5.881,14.387 -10e-4,5.485 -1.961,10.186 -5.881,14.1 -3.92,3.914 -8.617,5.871 -14.09,5.871 l 0,0 z m 0,-66.367 c -12.932,0 -23.9,4.503 -32.905,13.508 -9.006,9.006 -13.509,19.968 -13.509,32.888 0,12.537 4.503,23.308 13.509,32.313 9.005,9.005 19.974,13.508 32.905,13.508 12.524,0 23.292,-4.503 32.304,-13.508 9.012,-9.006 13.517,-19.776 13.518,-32.313 -10e-4,-12.92 -4.506,-23.882 -13.518,-32.888 -9.012,-9.005 -19.779,-13.508 -32.304,-13.508 l 0,0 z"
       id="flowRoot3192"
       inkscape:connector-curvature="0"
       style="fill:#ffffff" /></g></g></svg>