<?xml version="1.0" encoding="utf-8"?>
<!-- Generator: Adobe Illustrator 15.0.0, SVG Export Plug-In . SVG Version: 6.00 Build 0)  -->
<!DOCTYPE svg PUBLIC "-//W3C//DTD SVG 1.1//EN" "http://www.w3.org/Graphics/SVG/1.1/DTD/svg11.dtd">
<svg version="1.1" id="Layer_1" xmlns="http://www.w3.org/2000/svg" xmlns:xlink="http://www.w3.org/1999/xlink" x="0px" y="0px"
	 width="580px" height="580px" viewBox="0 0 580 580" enable-background="new 0 0 580 580" xml:space="preserve">
<g id="Layer_2">
	<g id="g1327">
		<path id="path1329" fill="#111111" stroke="#EEEEEE" stroke-width="3.408" d="M66.275,1.768
			c-41.335,0-64.571,21.371-64.571,65.036v450.123c0,40.844,20.895,62.229,62.192,62.229h452.024
			c41.307,0,62.229-20.315,62.229-62.229V66.804c0-42.602-20.923-65.036-63.521-65.036C514.625,1.768,66.133,1.625,66.275,1.768z"/>
	</g>
</g>
<g id="svg2" sodipodi:version="0.32" inkscape:version="0.46" sodipodi:docname="waste_bin.svg" xmlns:cc="http://creativecommons.org/ns#" xmlns:sodipodi="http://sodipodi.sourceforge.net/DTD/sodipodi-0.dtd" xmlns:svg="http://www.w3.org/2000/svg" xmlns:inkscape="http://www.inkscape.org/namespaces/inkscape" xmlns:rdf="http://www.w3.org/1999/02/22-rdf-syntax-ns#" xmlns:dc="http://purl.org/dc/elements/1.1/" inkscape:output_extension="org.inkscape.output.svg.inkscape">
	<g>
		<path fill="#FFFFFF" d="M320.973,435.584l-33.946-82.474c-4.292-10.425-15.071-16.217-25.741-14.632
			c-1.156-0.171-2.338-0.262-3.542-0.262h-73.938v-80.829l47.259,62.729c5.177,5.985,14.227,6.643,20.211,1.466
			c5.986-5.18,6.641-14.227,1.463-20.213l-73.558-97.636c-5.179-5.984-25.422-10.458-35.739-9.691l0.019,0.011
			c-21.205,0.563-38.222,17.916-38.222,39.257v113.688c0,20.53,15.748,37.37,35.822,39.123c0.672,0.104,1.453,0.16,2.381,0.16
			h105.261l27.822,67.599c5.054,12.27,19.097,18.122,31.375,13.073C320.172,461.899,326.025,447.853,320.973,435.584z"/>
		<path fill="#FFFFFF" d="M199.051,396.45H67.793c-10.973,0-19.871,8.898-19.871,19.871c0,10.977,8.898,19.874,19.871,19.874
			h131.258c10.974,0,19.871-8.897,19.871-19.874C218.922,405.349,210.024,396.45,199.051,396.45z"/>
		<path fill="#FFFFFF" d="M167.163,181.087c22.975,0,41.593-18.622,41.593-41.593S190.137,97.9,167.163,97.9
			s-41.595,18.623-41.595,41.594S144.188,181.087,167.163,181.087z"/>
	</g>
	<g>
		<path fill="#FFFFFF" d="M379.199,419.857c-23.487-23.486-22.229-49.061-17.038-66.379c5.359-17.877,15.76-30.457,16.719-31.592
			c0.584-0.734,11.182-14.23,16.416-32.582c6.973-24.439,1.557-45.782-16.097-63.437c-20.213-20.213-26.626-45.503-18.545-73.137
			c5.98-20.451,17.729-34.816,18.227-35.417l7.707,6.371c-0.254,0.312-11.105,13.722-16.421,32.146
			c-6.962,24.134-1.544,45.319,16.104,62.966c20.209,20.208,26.623,45.65,18.549,73.575c-5.974,20.664-17.708,35.244-18.205,35.854
			l-0.081,0.097c-0.095,0.112-10.039,11.916-14.88,28.321c-6.277,21.275-1.359,40.164,14.617,56.142L379.199,419.857z
			 M386.588,123.686l-3.854-3.187l3.856,3.182C386.591,123.682,386.59,123.684,386.588,123.686L386.588,123.686z"/>
	</g>
	<g>
		<path fill="#FFFFFF" d="M440.012,419.857c-23.486-23.486-22.229-49.061-17.037-66.379c5.359-17.88,15.762-30.46,16.718-31.592
			c0.587-0.737,11.182-14.232,16.416-32.582c6.973-24.439,1.557-45.782-16.097-63.437c-20.214-20.213-26.625-45.503-18.546-73.137
			c5.98-20.451,17.729-34.816,18.228-35.417l7.711,6.367c-0.109,0.134-11.073,13.601-16.424,32.149
			c-6.962,24.135-1.545,45.319,16.102,62.966c20.21,20.208,26.623,45.65,18.551,73.575c-5.976,20.664-17.71,35.244-18.206,35.854
			l-0.081,0.097c-0.095,0.112-10.039,11.916-14.88,28.321c-6.277,21.275-1.359,40.164,14.616,56.142L440.012,419.857z"/>
	</g>
	<g>
		<path fill="#FFFFFF" d="M500.825,419.857c-23.486-23.486-22.229-49.061-17.038-66.379c5.359-17.877,15.761-30.457,16.72-31.592
			c0.584-0.734,11.181-14.23,16.416-32.582c6.972-24.439,1.556-45.782-16.098-63.437c-20.213-20.213-26.626-45.503-18.545-73.137
			c5.98-20.451,17.729-34.816,18.228-35.417l7.707,6.371c-0.254,0.312-11.106,13.722-16.421,32.146
			c-6.963,24.134-1.545,45.319,16.103,62.966c20.209,20.208,26.623,45.65,18.549,73.575c-5.974,20.664-17.708,35.244-18.205,35.854
			l-0.081,0.097c-0.095,0.112-10.039,11.916-14.88,28.321c-6.276,21.275-1.358,40.164,14.617,56.142L500.825,419.857z
			 M508.215,123.686l-3.854-3.187l3.857,3.182C508.218,123.682,508.217,123.684,508.215,123.686L508.215,123.686z"/>
	</g>
</g>
</svg>
