<?xml version="1.0" encoding="UTF-8" standalone="no"?>
<!-- Created with Inkscape (http://www.inkscape.org/) -->

<svg
   version="1.0"
   width="580"
   height="580"
   id="svg2"
   sodipodi:version="0.32"
   inkscape:version="1.4 (86a8ad7, 2024-10-11)"
   sodipodi:docname="schoolyard.svg"
   inkscape:output_extension="org.inkscape.output.svg.inkscape"
   inkscape:export-filename="C:\Users\peter\OSM\Entwürfe\amenity_playground.png"
   inkscape:export-xdpi="2.4790845"
   inkscape:export-ydpi="2.4790845"
   xmlns:inkscape="http://www.inkscape.org/namespaces/inkscape"
   xmlns:sodipodi="http://sodipodi.sourceforge.net/DTD/sodipodi-0.dtd"
   xmlns="http://www.w3.org/2000/svg"
   xmlns:svg="http://www.w3.org/2000/svg"
   xmlns:rdf="http://www.w3.org/1999/02/22-rdf-syntax-ns#"
   xmlns:cc="http://creativecommons.org/ns#"
   xmlns:dc="http://purl.org/dc/elements/1.1/">
  <metadata
     id="metadata10">
    <rdf:RDF>
      <cc:Work
         rdf:about="">
        <dc:format>image/svg+xml</dc:format>
        <dc:type
           rdf:resource="http://purl.org/dc/dcmitype/StillImage" />
        <cc:license
           rdf:resource="" />
        <dc:language>en</dc:language>
      </cc:Work>
    </rdf:RDF>
  </metadata>
  <sodipodi:namedview
     inkscape:window-height="888"
     inkscape:window-width="1514"
     inkscape:pageshadow="2"
     inkscape:pageopacity="0.0"
     guidetolerance="10.0"
     gridtolerance="10.0"
     objecttolerance="10.0"
     borderopacity="1.0"
     bordercolor="#666666"
     pagecolor="#ffffff"
     id="base"
     showgrid="false"
     inkscape:zoom="1.06"
     inkscape:cx="312.26415"
     inkscape:cy="289.62264"
     inkscape:window-x="355"
     inkscape:window-y="33"
     inkscape:current-layer="svg2"
     inkscape:window-maximized="0"
     inkscape:showpageshadow="2"
     inkscape:pagecheckerboard="0"
     inkscape:deskcolor="#d1d1d1" />
  <defs
     id="defs4">
    <inkscape:perspective
       sodipodi:type="inkscape:persp3d"
       inkscape:vp_x="0 : 290 : 1"
       inkscape:vp_y="0 : 1000 : 0"
       inkscape:vp_z="580 : 290 : 1"
       inkscape:persp3d-origin="290 : 193.33333 : 1"
       id="perspective12" />
    <inkscape:perspective
       id="perspective2539"
       inkscape:persp3d-origin="16 : 10.666667 : 1"
       inkscape:vp_z="32 : 16 : 1"
       inkscape:vp_y="0 : 1000 : 0"
       inkscape:vp_x="0 : 16 : 1"
       sodipodi:type="inkscape:persp3d" />
    <inkscape:perspective
       id="perspective18697"
       inkscape:persp3d-origin="0.5 : 0.33333333 : 1"
       inkscape:vp_z="1 : 0.5 : 1"
       inkscape:vp_y="0 : 1000 : 0"
       inkscape:vp_x="0 : 0.5 : 1"
       sodipodi:type="inkscape:persp3d" />
    <inkscape:perspective
       id="perspective18782"
       inkscape:persp3d-origin="0.5 : 0.33333333 : 1"
       inkscape:vp_z="1 : 0.5 : 1"
       inkscape:vp_y="0 : 1000 : 0"
       inkscape:vp_x="0 : 0.5 : 1"
       sodipodi:type="inkscape:persp3d" />
    <inkscape:perspective
       id="perspective2832"
       inkscape:persp3d-origin="0.5 : 0.33333333 : 1"
       inkscape:vp_z="1 : 0.5 : 1"
       inkscape:vp_y="0 : 1000 : 0"
       inkscape:vp_x="0 : 0.5 : 1"
       sodipodi:type="inkscape:persp3d" />
    <inkscape:perspective
       id="perspective2832-1"
       inkscape:persp3d-origin="0.5 : 0.33333333 : 1"
       inkscape:vp_z="1 : 0.5 : 1"
       inkscape:vp_y="0 : 1000 : 0"
       inkscape:vp_x="0 : 0.5 : 1"
       sodipodi:type="inkscape:persp3d" />
  </defs>
  <g
     id="g1327"
     style="opacity:1">
    <path
       d="M 66.275,1.768 C 24.94,1.768 1.704,23.139 1.704,66.804 L 1.704,516.927 C 1.704,557.771 22.598,579.156 63.896,579.156 L 515.92,579.156 C 557.227,579.156 578.149,558.84 578.149,516.927 L 578.149,66.804 C 578.149,24.203 557.227,1.768 514.627,1.768 C 514.624,1.768 66.133,1.625 66.275,1.768 z"
       style="fill:#111111;stroke:#eeeeee;stroke-width:3.40799999000000000"
       id="path1329" />
  </g>
  <g
     id="g1"
     transform="matrix(0.74567897,0,0,0.74567897,19.171219,197.7541)">
    <path
       d="M 44.421016,269.96274 540.35091,367.8097"
       style="fill:#ffffff;fill-opacity:1;stroke:#ffffff;stroke-width:34.5243;stroke-linecap:round;stroke-linejoin:miter;stroke-miterlimit:1.1;stroke-dasharray:none;stroke-opacity:1"
       id="path2383" />
    <path
       d="M 292.38579,322.02486 240.09252,431.86215 H 344.67977 Z"
       style="fill:#ffffff;fill-opacity:1;fill-rule:evenodd;stroke:#ffffff;stroke-width:2.02257px;stroke-linecap:butt;stroke-linejoin:miter;stroke-opacity:1"
       id="path2385" />
    <g
       transform="matrix(2.1357106,0.90429401,-0.84164613,2.2946826,-206.63356,-1194.9871)"
       id="g3185"
       style="fill:#ffffff;fill-opacity:1;stroke:#ffffff;stroke-opacity:1">
      <path
         d="m 338.53918,463.22191 c -8.9525,1.66739 -20.95672,48.62705 -20.95672,48.62705 l 34.61374,-4.78652 c 0,0 -4.32951,15.51183 -8.18502,27.01742 -2.40466,7.17586 5.60707,9.49056 9.63988,1.52914 7.449,-14.70555 13.0522,-30.95967 13.0522,-30.95967 0,0 -18.70966,-43.18825 -28.16408,-41.42742 z"
         style="fill:#ffffff;fill-opacity:1;fill-rule:evenodd;stroke:#ffffff;stroke-width:1.33471px;stroke-linecap:butt;stroke-linejoin:miter;stroke-opacity:1"
         id="path3181" />
      <path
         d="m 286.86472,449.50504 c 0.004,5.13117 -3.71051,9.29292 -8.29328,9.29292 -4.58277,0 -8.29684,-4.16175 -8.29328,-9.29292 -0.004,-5.13117 3.71051,-9.29292 8.29328,-9.29292 4.58277,0 8.29684,4.16175 8.29328,9.29292 z"
         transform="matrix(-1.664894,-0.163643,-0.2881576,1.3383147,941.37379,-110.14043)"
         style="fill:#ffffff;fill-opacity:1;stroke:#ffffff;stroke-width:5.9;stroke-miterlimit:4;stroke-dasharray:none;stroke-opacity:1"
         id="path3183" />
    </g>
    <g
       transform="matrix(-2.3075369,-0.23175279,-0.36219803,2.4172678,1457.3558,-786.99777)"
       id="g3193"
       style="fill:#ffffff;fill-opacity:1;stroke:#ffffff;stroke-opacity:1">
      <path
         d="m 338.53918,463.22191 c -8.9525,1.66739 -20.95672,48.62705 -20.95672,48.62705 l 34.61374,-4.78652 c 0,0 -4.32951,15.51183 -8.18502,27.01742 -2.40466,7.17586 5.60707,9.49056 9.63988,1.52914 7.449,-14.70555 13.0522,-30.95967 13.0522,-30.95967 0,0 -18.70966,-43.18825 -28.16408,-41.42742 z"
         style="fill:#ffffff;fill-opacity:1;fill-rule:evenodd;stroke:#ffffff;stroke-width:1.33471px;stroke-linecap:butt;stroke-linejoin:miter;stroke-opacity:1"
         id="path3195" />
      <path
         d="m 286.86472,449.50504 c 0.004,5.13117 -3.71051,9.29292 -8.29328,9.29292 -4.58277,0 -8.29684,-4.16175 -8.29328,-9.29292 -0.004,-5.13117 3.71051,-9.29292 8.29328,-9.29292 4.58277,0 8.29684,4.16175 8.29328,9.29292 z"
         transform="matrix(-1.664894,-0.163643,-0.2881576,1.3383147,941.37379,-110.14043)"
         style="fill:#ffffff;fill-opacity:1;stroke:#ffffff;stroke-width:5.9;stroke-miterlimit:4;stroke-dasharray:none;stroke-opacity:1"
         id="path3197" />
    </g>
  </g>
  <g
     id="g2"
     transform="matrix(0.56234847,0,0,0.56234847,195.66582,19.17018)">
    <path
       id="path3526"
       style="opacity:0.75;fill:none;fill-rule:evenodd;stroke:#ffffff;stroke-width:30.7868;stroke-linecap:round;stroke-linejoin:miter;stroke-miterlimit:4;stroke-dasharray:none;stroke-opacity:1"
       d="m 109.53419,508.69651 44.83749,-108.55394 67.26813,-38.79503 1.63527,-147.12758 18.51055,-40.23748 L 289.0426,62.097177 M 471.71115,508.69651 437.81131,426.6232 329.70819,251.33902 333.85002,160.40114 292.20274,62.097177"
       sodipodi:nodetypes="ccccccccccc" />
    <path
       style="fill:#ffffff;fill-opacity:1;stroke:none;stroke-width:20;stroke-linecap:round;stroke-linejoin:round;stroke-miterlimit:4;stroke-dasharray:none;stroke-dashoffset:0;stroke-opacity:1"
       d="M 73.249534,149.81914 V 423.82196 H 510.99983 V 149.81914 Z m 69.975906,25.88018 c 12.26115,1e-4 22.09889,0.71111 29.53612,2.08453 7.43703,1.37362 13.64218,4.23968 18.60038,8.59466 3.48395,3.01515 6.23173,7.26826 8.24189,12.79578 2.00992,5.52768 3.01442,10.81737 3.01455,15.84239 v 47.11026 c -1.3e-4,5.02511 0.32544,8.98617 0.96208,11.8337 0.6364,2.84757 2.02489,6.48154 4.16905,10.90367 h -38.38733 c -1.54113,-2.7471 -2.54563,-4.84513 -3.01455,-6.28564 -0.4691,-1.44063 -0.94213,-3.71665 -1.41105,-6.79877 -5.36016,5.15911 -10.70973,8.85302 -16.00275,11.06402 -7.23619,2.94803 -15.62558,4.42561 -25.20671,4.42561 -12.73027,0 -22.39134,-2.95513 -28.990941,-8.85121 -6.59963,-5.89615 -9.90952,-13.16417 -9.909512,-21.80735 -1e-5,-8.10712 2.394428,-14.7853 7.151525,-20.01144 4.757069,-5.22604 13.531888,-9.09517 26.329158,-11.64127 15.34323,-3.082 25.2686,-5.23847 29.82474,-6.47806 4.55601,-1.23946 9.4033,-2.86448 14.49547,-4.87459 -8e-5,-5.025 -1.0338,-8.54078 -3.11075,-10.5509 -2.07714,-2.00995 -5.74179,-3.01446 -10.96781,-3.01455 -6.70017,8e-5 -11.72271,1.06301 -15.07273,3.20697 -2.61309,1.67511 -4.74179,4.83752 -6.34978,9.46054 l -39.092861,-4.13699 c 1.474013,-6.83404 3.601289,-12.21134 6.381854,-16.13101 2.780533,-3.91947 6.799987,-7.317 12.026107,-10.19814 3.75203,-2.07693 8.8914,-3.67133 15.45756,-4.81044 6.56607,-1.13892 13.6881,-1.73166 21.32629,-1.73177 z m 280.96193,0 c 17.42023,1.1e-4 30.68469,3.13332 39.83047,9.36433 9.14555,6.23121 15.58865,15.33018 19.27384,27.32332 l -38.51561,5.13114 c -1.20611,-4.55602 -3.39181,-7.98273 -6.57427,-10.29435 -3.18265,-2.31145 -7.46783,-3.46343 -12.82785,-3.46352 -6.76718,8e-5 -12.23214,2.42229 -16.41965,7.2798 -4.18763,4.85766 -6.28569,12.21478 -6.28564,22.0639 -6e-5,8.7772 2.06737,15.42334 6.22151,19.97937 4.15402,4.55612 9.47434,6.86293 15.90653,6.8629 5.36,3e-5 9.84966,-1.3899 13.5013,-4.13698 3.65148,-2.74703 6.40071,-6.97235 8.20982,-12.66749 l 38.86839,4.4256 c -2.14417,8.10718 -5.65994,15.14015 -10.55091,21.06974 -4.8912,5.92959 -11.12413,10.5389 -18.72866,13.82201 -7.60473,3.283 -17.2658,4.90665 -28.99093,4.90665 -11.32326,0 -20.74782,-1.06435 -28.28541,-3.1749 -7.53767,-2.11053 -14.03918,-5.50658 -19.46625,-10.2302 -5.42714,-4.72356 -9.68168,-10.279 -12.76372,-16.64413 -3.08207,-6.36509 -4.61803,-14.81577 -4.61801,-25.33501 0,-10.98814 1.86009,-20.11631 5.61217,-27.41952 2.74702,-5.36 6.49933,-10.17666 11.25644,-14.43132 4.75707,-4.25451 9.66276,-7.41547 14.68788,-9.49261 7.9731,-3.28296 18.19628,-4.93862 30.65856,-4.93873 z m -261.55981,58.49499 c -5.62818,2.01008 -11.50919,3.78257 -17.60622,5.32355 -8.30821,2.2111 -13.56726,4.39821 -15.77825,6.54221 -2.27811,2.21108 -3.39943,4.72234 -3.39938,7.53636 -4e-5,3.21609 1.12271,5.84562 3.36731,7.88912 2.24448,2.04356 5.5223,3.07871 9.87744,3.07869 4.55602,2e-5 8.81199,-1.12418 12.73164,-3.33524 3.91948,-2.21101 6.69649,-4.89896 8.3381,-8.08154 1.64145,-3.18253 2.46928,-7.31881 2.46936,-12.41095 z m 77.80089,20.94146 h 41.30568 v 51.05483 c 4.08702,-4.28797 8.72556,-7.50881 13.91821,-9.65295 5.19254,-2.14395 10.92319,-3.20685 17.22139,-3.20697 12.99814,1.2e-4 23.75276,4.66786 32.26203,14.01443 8.50903,9.34674 12.76358,22.76012 12.76371,40.24737 -1.3e-4,11.65825 -1.95073,21.94128 -5.83667,30.8189 -3.8862,8.87768 -9.26351,15.4945 -16.13102,19.88317 -6.86774,4.38857 -14.49058,6.60634 -22.86564,6.60634 -7.16921,0 -13.72771,-1.56802 -19.69074,-4.65009 -4.48914,-2.41195 -9.36279,-6.93227 -14.65582,-13.56545 v 15.77825 h -38.29113 z m 59.87399,68.75726 c -5.56115,7e-5 -10.08001,2.03688 -13.59753,6.15737 -3.51759,4.12064 -5.29153,10.38563 -5.29148,18.76073 -5e-5,9.17921 1.74466,15.82677 5.19528,19.9473 3.45051,4.1206 7.79124,6.18947 13.0844,6.18944 4.89101,3e-5 8.99809,-2.03963 12.31473,-6.09323 3.31648,-4.05354 5.00278,-10.8792 5.00287,-20.46042 -8e-5,-8.44211 -1.62512,-14.61517 -4.87459,-18.5683 -3.24964,-3.953 -7.21067,-5.93281 -11.83368,-5.93289 z"
       id="rect3530" />
    <rect
       y="149.82085"
       x="73.263275"
       height="273.98654"
       width="437.7486"
       id="rect3544"
       style="fill:none;fill-opacity:1;stroke:#ffffff;stroke-width:20.5246;stroke-linecap:round;stroke-linejoin:round;stroke-miterlimit:4;stroke-dasharray:none;stroke-dashoffset:0;stroke-opacity:1" />
  </g>
</svg>
