<?xml version="1.0" encoding="utf-8"?>
<!-- Generator: Adobe Illustrator 15.0.0, SVG Export Plug-In . SVG Version: 6.00 Build 0)  -->
<!DOCTYPE svg PUBLIC "-//W3C//DTD SVG 1.1//EN" "http://www.w3.org/Graphics/SVG/1.1/DTD/svg11.dtd">
<svg version="1.1" xmlns="http://www.w3.org/2000/svg" xmlns:xlink="http://www.w3.org/1999/xlink" x="0px" y="0px" width="580px"
	 height="580px" viewBox="0 0 580 580" enable-background="new 0 0 580 580" xml:space="preserve">
<g id="Layer_2">
	<g id="g1327">
		<path id="path1329" fill="#111111" stroke="#EEEEEE" stroke-width="3.408" d="M66.275,1.768
			c-41.335,0-64.571,21.371-64.571,65.036v450.123c0,40.844,20.894,62.229,62.192,62.229H515.92
			c41.307,0,62.229-20.316,62.229-62.229V66.804c0-42.601-20.923-65.036-63.522-65.036C514.624,1.768,66.133,1.625,66.275,1.768z"/>
	</g>
</g>
<g id="svg2" inkscape:output_extension="org.inkscape.output.svg.inkscape" sodipodi:version="0.32" sodipodi:docname="waste_bin.svg" inkscape:version="0.46" xmlns:dc="http://purl.org/dc/elements/1.1/" xmlns:cc="http://creativecommons.org/ns#" xmlns:rdf="http://www.w3.org/1999/02/22-rdf-syntax-ns#" xmlns:svg="http://www.w3.org/2000/svg" xmlns:sodipodi="http://sodipodi.sourceforge.net/DTD/sodipodi-0.dtd" xmlns:inkscape="http://www.inkscape.org/namespaces/inkscape">
	<g>
		<polygon fill="#FFFFFF" points="537.688,207.146 285.395,91.754 42.734,207.047 29.002,178.144 285.139,56.448 550.998,178.045 		
			"/>
	</g>
	<g>
		<g>
			<rect x="51.512" y="211.833" fill="#FFFFFF" width="15" height="323.333"/>
		</g>
		<g>
			<rect x="513.488" y="211.833" fill="#FFFFFF" width="15" height="323.333"/>
		</g>
	</g>
	<g>
		<circle fill="#FFFFFF" cx="403.994" cy="290.374" r="40.256"/>
		<path fill="#FFFFFF" d="M336.469,396.394v34.799c0,15.791,11.131,28.979,25.972,32.159v-74.58h7.792v103.383h67.525V388.771h7.791
			v74.58c14.842-3.182,25.971-16.368,25.971-32.159v-34.798l-2.598-31.711c-5-11.792-16.684-20.063-30.299-20.063h-69.258
			c-13.615,0-25.299,8.271-30.299,20.064L336.469,396.394z"/>
	</g>
	<path fill="#FFFFFF" d="M313.201,487.082c0,13.063-26.1,13.063-26.1,0v-39.164h-78.329v39.164c0,13.063-26.126,13.063-26.126,0
		v-39.164l-65.263-52.227v26.127c0,13.037-26.127,13.037-26.127,0V291.264c0-13.063,26.127-13.063,26.127,0v13.037h78.327v-13.037
		c0-13.063,26.099-13.063,26.099,0v39.162c-13.037-13.063-107.032-13.063-117.489,13.037l13.762,11.797
		c14.904-24.824,91.121-24.402,116.791,1.268l73.456,61.23c1.801,1.275,3.439,2.627,4.872,4.061V487.082z"/>
</g>
</svg>
