<?xml version="1.0" encoding="utf-8"?>
<!-- Generator: Adobe Illustrator 15.0.0, SVG Export Plug-In . SVG Version: 6.00 Build 0)  -->
<!DOCTYPE svg PUBLIC "-//W3C//DTD SVG 1.1//EN" "http://www.w3.org/Graphics/SVG/1.1/DTD/svg11.dtd">
<svg version="1.1" xmlns="http://www.w3.org/2000/svg" xmlns:xlink="http://www.w3.org/1999/xlink" x="0px" y="0px" width="580px"
	 height="580px" viewBox="0 0 580 580" enable-background="new 0 0 580 580" xml:space="preserve">
<g id="Layer_2">
	<g id="g1327">
		<path id="path1329" fill="#111111" stroke="#EEEEEE" stroke-width="3.408" d="M66.275,1.768
			c-41.335,0-64.571,21.371-64.571,65.036v450.123c0,40.844,20.894,62.229,62.192,62.229H515.92
			c41.307,0,62.229-20.316,62.229-62.229V66.804c0-42.601-20.923-65.036-63.522-65.036C514.624,1.768,66.133,1.625,66.275,1.768z"/>
	</g>
</g>
<g id="svg2" inkscape:version="0.46" sodipodi:docname="waste_bin.svg" sodipodi:version="0.32" xmlns:dc="http://purl.org/dc/elements/1.1/" xmlns:cc="http://creativecommons.org/ns#" xmlns:sodipodi="http://sodipodi.sourceforge.net/DTD/sodipodi-0.dtd" xmlns:svg="http://www.w3.org/2000/svg" xmlns:rdf="http://www.w3.org/1999/02/22-rdf-syntax-ns#" xmlns:inkscape="http://www.inkscape.org/namespaces/inkscape" inkscape:output_extension="org.inkscape.output.svg.inkscape">
	<g>
		<path fill="#FFFFFF" d="M184.934,217.542L306.64,95.836c-28.225-28.225-71.173-32.735-104.117-13.552
			c-14.342-19.734-37.588-32.6-63.795-32.6c-43.469,0-78.834,35.365-78.834,78.834v389.637c0,6.716,5.444,12.16,12.161,12.16
			s12.161-5.444,12.161-12.16V128.519c0-30.059,24.455-54.513,54.513-54.513c18.496,0,34.859,9.268,44.72,23.394
			C151.358,131.112,151.837,184.446,184.934,217.542z"/>
		<path fill="#FFFFFF" d="M322.812,96.73c-2.403-2.404-6.301-2.404-8.706,0.001L185.829,225.007
			c-2.404,2.405-2.405,6.303-0.001,8.707c2.405,2.405,6.303,2.404,8.707,0l128.277-128.277
			C325.217,103.032,325.217,99.135,322.812,96.73z"/>
		<path fill="#FFFFFF" d="M377.32,226.471l-3.662-2.392c-2.696-1.762-6.311-1.001-8.071,1.694c-1.761,2.696-1.003,6.31,1.694,8.071
			l3.662,2.392c0.983,0.643,2.09,0.949,3.183,0.949c1.904,0,3.77-0.931,4.889-2.644C380.775,231.846,380.018,228.232,377.32,226.471
			z"/>
		<path fill="#FFFFFF" d="M289.44,169.065c-2.697-1.76-6.31-1.002-8.072,1.693c-1.761,2.696-1.003,6.31,1.693,8.071l3.662,2.392
			c0.984,0.643,2.09,0.95,3.184,0.95c1.903,0,3.77-0.931,4.889-2.643c1.761-2.696,1.003-6.31-1.693-8.071L289.44,169.065z"/>
		<path fill="#FFFFFF" d="M322.867,197.868c1.762-2.696,1.004-6.31-1.692-8.072l-3.661-2.392c-2.694-1.761-6.31-1.003-8.071,1.692
			c-1.762,2.696-1.004,6.31,1.692,8.072l3.661,2.392c0.983,0.643,2.09,0.95,3.184,0.95
			C319.883,200.51,321.749,199.58,322.867,197.868z"/>
		<path fill="#FFFFFF" d="M405.394,244.809l-3.662-2.392c-2.696-1.763-6.31-1.002-8.071,1.694c-1.761,2.696-1.003,6.31,1.694,8.071
			l3.662,2.392c0.983,0.643,2.09,0.949,3.183,0.949c1.904,0,3.77-0.931,4.889-2.644C408.849,250.184,408.091,246.57,405.394,244.809
			z"/>
		<path fill="#FFFFFF" d="M337.516,207.434c-1.762,2.696-1.004,6.31,1.692,8.072l3.661,2.392c0.983,0.643,2.09,0.951,3.184,0.951
			c1.903,0,3.77-0.931,4.888-2.643c1.762-2.696,1.004-6.31-1.692-8.072l-3.661-2.392
			C342.893,203.98,339.276,204.739,337.516,207.434z"/>
		<path fill="#FFFFFF" d="M461.54,281.486l-3.661-2.392c-2.693-1.762-6.311-1.003-8.071,1.692c-1.762,2.696-1.004,6.31,1.692,8.072
			l3.661,2.393c0.983,0.643,2.09,0.949,3.184,0.949c1.903,0,3.77-0.93,4.888-2.642C464.994,286.861,464.236,283.248,461.54,281.486z
			"/>
		<path fill="#FFFFFF" d="M489.612,299.822l-3.662-2.391c-2.697-1.763-6.31-1.002-8.071,1.693c-1.761,2.697-1.003,6.311,1.694,8.072
			l3.662,2.391c0.983,0.643,2.09,0.949,3.183,0.949c1.904,0,3.77-0.93,4.889-2.643C493.067,305.197,492.31,301.584,489.612,299.822z
			"/>
		<path fill="#FFFFFF" d="M433.467,263.148l-3.661-2.392c-2.694-1.761-6.311-1.003-8.071,1.692c-1.762,2.696-1.004,6.31,1.692,8.072
			l3.661,2.392c0.983,0.643,2.09,0.95,3.184,0.95c1.903,0,3.77-0.93,4.888-2.642C436.921,268.523,436.163,264.91,433.467,263.148z"
			/>
		<path fill="#FFFFFF" d="M305.58,253.359c1.153,1.408,2.827,2.137,4.515,2.137c1.3,0,2.608-0.432,3.691-1.32
			c2.492-2.041,2.858-5.715,0.817-8.207l-2.771-3.384c-2.042-2.492-5.717-2.857-8.206-0.817c-2.492,2.041-2.858,5.715-0.817,8.207
			L305.58,253.359z"/>
		<path fill="#FFFFFF" d="M418.054,372.301c-2.042-2.49-5.717-2.857-8.207-0.816c-2.491,2.041-2.857,5.715-0.816,8.207l2.771,3.385
			c1.153,1.406,2.827,2.137,4.515,2.137c1.3,0,2.608-0.434,3.692-1.32c2.491-2.041,2.857-5.715,0.816-8.207L418.054,372.301z"/>
		<path fill="#FFFFFF" d="M335.848,271.912l-2.771-3.384c-2.043-2.492-5.717-2.857-8.207-0.816
			c-2.491,2.041-2.857,5.715-0.816,8.207l2.771,3.384c1.153,1.407,2.827,2.136,4.515,2.136c1.3,0,2.608-0.432,3.692-1.32
			C337.522,278.078,337.889,274.404,335.848,271.912z"/>
		<path fill="#FFFFFF" d="M272.114,194.083l-2.771-3.384c-2.042-2.492-5.717-2.856-8.207-0.816
			c-2.491,2.041-2.857,5.715-0.816,8.207l2.771,3.384c1.153,1.407,2.827,2.136,4.515,2.136c1.3,0,2.608-0.432,3.692-1.32
			C273.789,200.249,274.155,196.574,272.114,194.083z"/>
		<path fill="#FFFFFF" d="M375.565,320.416c-2.041-2.494-5.715-2.859-8.206-0.818c-2.492,2.041-2.858,5.715-0.817,8.207l2.771,3.383
			c1.152,1.408,2.827,2.139,4.515,2.139c1.3,0,2.607-0.434,3.691-1.32c2.492-2.041,2.858-5.715,0.817-8.207L375.565,320.416z"/>
		<path fill="#FFFFFF" d="M292.541,228.233c2.492-2.041,2.858-5.714,0.817-8.207l-2.771-3.384c-2.041-2.493-5.715-2.858-8.206-0.818
			c-2.492,2.041-2.858,5.714-0.817,8.207l2.771,3.384c1.152,1.408,2.827,2.137,4.515,2.137
			C290.149,229.553,291.457,229.121,292.541,228.233z"/>
		<path fill="#FFFFFF" d="M357.092,297.855l-2.771-3.383c-2.04-2.493-5.715-2.858-8.206-0.818c-2.492,2.041-2.858,5.715-0.817,8.207
			l2.771,3.383c1.152,1.408,2.827,2.139,4.515,2.139c1.3,0,2.607-0.434,3.691-1.32C358.767,304.021,359.133,300.348,357.092,297.855
			z"/>
		<path fill="#FFFFFF" d="M396.81,346.357c-2.042-2.49-5.716-2.857-8.207-0.816s-2.857,5.715-0.816,8.207l2.771,3.385
			c1.153,1.406,2.827,2.137,4.515,2.137c1.3,0,2.608-0.434,3.692-1.32c2.491-2.041,2.857-5.715,0.816-8.207L396.81,346.357z"/>
		<path fill="#FFFFFF" d="M279.085,272.04c-1.636-2.775-5.21-3.7-7.985-2.064c-2.774,1.635-3.698,5.21-2.063,7.985l2.221,3.769
			c1.088,1.846,3.032,2.872,5.03,2.872c1.006,0,2.025-0.261,2.955-0.808c2.774-1.635,3.698-5.21,2.063-7.985L279.085,272.04z"/>
		<path fill="#FFFFFF" d="M262.063,243.151c-1.635-2.775-5.208-3.702-7.984-2.064c-2.775,1.635-3.699,5.209-2.064,7.984l2.22,3.768
			c1.087,1.846,3.032,2.873,5.03,2.873c1.006,0,2.024-0.26,2.954-0.808c2.775-1.635,3.699-5.209,2.064-7.984L262.063,243.151z"/>
		<path fill="#FFFFFF" d="M245.041,214.26c-1.637-2.776-5.211-3.699-7.985-2.063c-2.774,1.635-3.698,5.21-2.063,7.985l2.221,3.768
			c1.087,1.845,3.032,2.872,5.03,2.872c1.006,0,2.025-0.261,2.955-0.809c2.774-1.635,3.698-5.21,2.063-7.985L245.041,214.26z"/>
		<path fill="#FFFFFF" d="M313.13,329.82c-1.635-2.773-5.211-3.701-7.984-2.064c-2.775,1.635-3.699,5.211-2.064,7.984l2.22,3.768
			c1.087,1.846,3.032,2.873,5.03,2.873c1.006,0,2.025-0.26,2.954-0.809c2.775-1.635,3.699-5.209,2.064-7.984L313.13,329.82z"/>
		<path fill="#FFFFFF" d="M296.107,300.93c-1.636-2.775-5.209-3.701-7.985-2.064c-2.774,1.637-3.698,5.211-2.063,7.986l2.221,3.768
			c1.088,1.846,3.032,2.871,5.03,2.871c1.006,0,2.025-0.26,2.955-0.807c2.774-1.637,3.698-5.211,2.063-7.986L296.107,300.93z"/>
		<path fill="#FFFFFF" d="M364.195,416.488c-1.636-2.773-5.21-3.699-7.985-2.063c-2.774,1.635-3.698,5.209-2.063,7.984l2.221,3.77
			c1.088,1.844,3.032,2.871,5.03,2.871c1.006,0,2.025-0.26,2.955-0.809c2.774-1.635,3.698-5.209,2.063-7.984L364.195,416.488z"/>
		<path fill="#FFFFFF" d="M347.174,387.6c-1.634-2.773-5.206-3.703-7.984-2.064c-2.774,1.635-3.699,5.209-2.064,7.984l2.22,3.77
			c1.087,1.846,3.032,2.873,5.03,2.873c1.005,0,2.024-0.262,2.954-0.809c2.774-1.635,3.699-5.209,2.064-7.984L347.174,387.6z"/>
		<path fill="#FFFFFF" d="M330.151,358.709c-1.636-2.773-5.21-3.699-7.985-2.063c-2.774,1.635-3.698,5.209-2.063,7.984l2.221,3.77
			c1.088,1.844,3.032,2.871,5.03,2.871c1.006,0,2.025-0.26,2.955-0.809c2.774-1.635,3.698-5.209,2.063-7.984L330.151,358.709z"/>
		<path fill="#FFFFFF" d="M366.342,184.684l3.893,1.994c0.852,0.436,1.76,0.643,2.654,0.643c2.119,0,4.163-1.159,5.195-3.174
			c1.468-2.866,0.335-6.38-2.531-7.849l-3.893-1.994c-2.867-1.468-6.382-0.335-7.85,2.531S363.476,183.216,366.342,184.684z"/>
		<path fill="#FFFFFF" d="M396.187,199.973l3.894,1.994c0.852,0.436,1.759,0.642,2.653,0.642c2.119,0,4.163-1.159,5.195-3.175
			c1.468-2.867,0.334-6.38-2.532-7.849l-3.894-1.994c-2.868-1.466-6.381-0.333-7.849,2.533S393.32,198.505,396.187,199.973z"/>
		<path fill="#FFFFFF" d="M494.929,237.45l-3.893-1.994c-2.868-1.469-6.382-0.334-7.85,2.531c-1.468,2.866-0.335,6.38,2.531,7.849
			l3.893,1.995c0.852,0.436,1.76,0.643,2.654,0.643c2.119,0,4.163-1.159,5.195-3.174
			C498.928,242.432,497.795,238.918,494.929,237.45z"/>
		<path fill="#FFFFFF" d="M336.498,169.396l3.893,1.995c0.852,0.436,1.76,0.643,2.654,0.643c2.119,0,4.163-1.159,5.195-3.174
			c1.468-2.866,0.335-6.38-2.531-7.849l-3.893-1.994c-2.867-1.468-6.382-0.335-7.85,2.531
			C332.499,164.414,333.632,167.928,336.498,169.396z"/>
		<path fill="#FFFFFF" d="M524.772,252.738l-3.893-1.994c-2.868-1.468-6.382-0.335-7.85,2.531s-0.335,6.38,2.531,7.849l3.893,1.994
			c0.852,0.436,1.76,0.643,2.654,0.643c2.119,0,4.163-1.159,5.195-3.174C528.771,257.72,527.639,254.206,524.772,252.738z"/>
		<path fill="#FFFFFF" d="M465.085,222.162l-3.893-1.994c-2.868-1.468-6.382-0.334-7.85,2.531c-1.468,2.866-0.335,6.38,2.531,7.849
			l3.893,1.994c0.852,0.436,1.76,0.643,2.654,0.643c2.119,0,4.163-1.159,5.195-3.174
			C469.084,227.145,467.951,223.63,465.085,222.162z"/>
		<path fill="#FFFFFF" d="M435.241,206.874l-3.893-1.994c-2.868-1.469-6.382-0.334-7.85,2.531c-1.468,2.866-0.335,6.38,2.531,7.849
			l3.893,1.994c0.852,0.436,1.76,0.643,2.654,0.643c2.119,0,4.163-1.159,5.195-3.174
			C439.24,211.856,438.107,208.342,435.241,206.874z"/>
		<path fill="#FFFFFF" d="M311.972,143.728c-2.865-1.469-6.381-0.333-7.849,2.532c-1.468,2.866-0.335,6.38,2.532,7.849l3.893,1.994
			c0.851,0.436,1.759,0.643,2.653,0.643c2.119,0,4.163-1.159,5.195-3.175c1.468-2.866,0.335-6.38-2.532-7.849L311.972,143.728z"/>
	</g>
</g>
</svg>
