<?xml version="1.0" encoding="utf-8"?>
<!-- Generator: Adobe Illustrator 15.0.0, SVG Export Plug-In . SVG Version: 6.00 Build 0)  -->
<!DOCTYPE svg PUBLIC "-//W3C//DTD SVG 1.1//EN" "http://www.w3.org/Graphics/SVG/1.1/DTD/svg11.dtd">
<svg version="1.1" xmlns="http://www.w3.org/2000/svg" xmlns:xlink="http://www.w3.org/1999/xlink" x="0px" y="0px" width="580px"
	 height="580px" viewBox="0 0 580 580" enable-background="new 0 0 580 580" xml:space="preserve">
<g id="Layer_1">
	<g id="Layer_1_1_">
		<g id="Layer_2">
			<g id="g1327">
				<path id="path1329" fill="#111111" stroke="#EEEEEE" stroke-width="3.408" d="M66.275,1.768
					c-41.335,0-64.571,21.371-64.571,65.036v450.123c0,40.844,20.895,62.229,62.192,62.229H515.92
					c41.307,0,62.229-20.315,62.229-62.229V66.804c0-42.601-20.925-65.036-63.521-65.036C514.624,1.768,66.133,1.625,66.275,1.768z"
					/>
			</g>
		</g>
	</g>
</g>
<g id="Layer_2_1_">
	<path fill="#FFFFFF" d="M69.132,428.495c6.585,0,11.923-5.339,11.923-11.923v-19.909h49.478v19.909
		c0,6.584,5.338,11.923,11.923,11.923c6.585,0,11.923-5.339,11.923-11.923v-253.25h22.584c7.655,20.526,30.583,76.053,73.109,132.51
		c30.987,41.139,65.976,74.125,103.996,98.039c47.861,30.106,100.555,45.802,156.618,46.652c0.062,0.001,0.122,0.001,0.184,0.001
		c6.501,0,11.819-5.22,11.919-11.743c0.1-6.584-5.157-12.002-11.742-12.103c-93.827-1.422-175.086-46.724-241.517-134.651
		c-50.244-66.5-72.601-133.668-72.819-134.333c-1.602-4.902-6.175-8.219-11.333-8.219H69.132c-6.585,0-11.923,5.338-11.923,11.923
		v265.173C57.209,423.156,62.547,428.495,69.132,428.495z M81.056,163.322h49.478v37.555H81.056V163.322z M81.056,224.724h49.478
		v33.467H81.056V224.724z M81.056,282.037h49.478v33.467H81.056V282.037z M81.056,339.35h49.478v33.467H81.056V339.35z"/>
</g>
</svg>
