<?xml version="1.0" encoding="utf-8"?>
<!-- Generator: Adobe Illustrator 15.0.0, SVG Export Plug-In . SVG Version: 6.00 Build 0)  -->
<!DOCTYPE svg PUBLIC "-//W3C//DTD SVG 1.1//EN" "http://www.w3.org/Graphics/SVG/1.1/DTD/svg11.dtd">
<svg version="1.1" xmlns="http://www.w3.org/2000/svg" xmlns:xlink="http://www.w3.org/1999/xlink" x="0px" y="0px" width="580px"
	 height="580px" viewBox="0 0 580 580" enable-background="new 0 0 580 580" xml:space="preserve">
<g id="Layer_1">
	<g id="Layer_1_1_">
		<g id="Layer_2">
			<g id="g1327">
				<path id="path1329" fill="#111111" stroke="#EEEEEE" stroke-width="3.408" d="M66.275,1.768
					c-41.335,0-64.571,21.371-64.571,65.036v450.123c0,40.844,20.895,62.229,62.192,62.229H515.92
					c41.307,0,62.229-20.315,62.229-62.229V66.804c0-42.601-20.925-65.036-63.521-65.036C514.624,1.768,66.133,1.625,66.275,1.768z"
					/>
			</g>
		</g>
	</g>
</g>
<g id="Layer_2_1_">
	<g>
		<g>
			<polygon fill="#FFFFFF" points="537.688,201.338 285.395,85.947 42.734,201.24 29.002,172.336 285.139,50.641 550.998,172.238 
							"/>
		</g>
		<g>
			<g>
				<rect x="51.512" y="206.025" fill="#FFFFFF" width="15" height="323.334"/>
			</g>
			<g>
				<rect x="513.488" y="206.025" fill="#FFFFFF" width="15" height="323.334"/>
			</g>
		</g>
	</g>
	<g>
		<path fill="#FFFFFF" d="M417.494,413.923h-66.455c1.361-3.477,2.115-7.256,2.115-11.215v-32.546l-2.43-29.659
			c-4.676-11.028-15.604-18.766-28.338-18.766h-64.775c-12.734,0-23.661,7.737-28.338,18.767l-2.429,29.657v32.547
			c0,3.959,0.754,7.738,2.116,11.215h-66.455v22.498v9v77.996h10.5v-77.996h233.988v77.996h10.498v-77.996h0.002V413.923z
			 M328.865,363.032v50.891h-7.287v-50.891H328.865z M251.134,363.032h7.288v50.891h-7.288V363.032z"/>
		<circle fill="#FFFFFF" cx="290" cy="271.003" r="37.65"/>
	</g>
</g>
</svg>
