<?xml version="1.0" encoding="utf-8"?>
<!-- Generator: Adobe Illustrator 15.0.0, SVG Export Plug-In . SVG Version: 6.00 Build 0)  -->
<!DOCTYPE svg PUBLIC "-//W3C//DTD SVG 1.1//EN" "http://www.w3.org/Graphics/SVG/1.1/DTD/svg11.dtd">
<svg version="1.1" xmlns="http://www.w3.org/2000/svg" xmlns:xlink="http://www.w3.org/1999/xlink" x="0px" y="0px" width="580px"
	 height="580px" viewBox="0 0 580 580" enable-background="new 0 0 580 580" xml:space="preserve">
<g id="Layer_2">
	<g id="g1327">
		<path id="path1329" fill="#111111" stroke="#EEEEEE" stroke-width="3.408" d="M66.275,1.768
			c-41.335,0-64.571,21.371-64.571,65.036v450.123c0,40.844,20.894,62.229,62.192,62.229H515.92
			c41.307,0,62.229-20.316,62.229-62.229V66.804c0-42.601-20.923-65.036-63.522-65.036C514.624,1.768,66.133,1.625,66.275,1.768z"/>
	</g>
</g>
<g id="svg2" inkscape:output_extension="org.inkscape.output.svg.inkscape" sodipodi:version="0.32" sodipodi:docname="waste_bin.svg" inkscape:version="0.46" xmlns:dc="http://purl.org/dc/elements/1.1/" xmlns:cc="http://creativecommons.org/ns#" xmlns:rdf="http://www.w3.org/1999/02/22-rdf-syntax-ns#" xmlns:svg="http://www.w3.org/2000/svg" xmlns:sodipodi="http://sodipodi.sourceforge.net/DTD/sodipodi-0.dtd" xmlns:inkscape="http://www.inkscape.org/namespaces/inkscape">
	<g>
		<circle fill="#FFFFFF" cx="362" cy="116.797" r="46.597"/>
		<path fill="#FFFFFF" d="M313.9,317.021v-86.328h9.02v100.371h78.161V230.692h9.019v86.328
			c17.179-3.684,30.062-18.947,30.062-37.225v-40.279l-3.007-36.706c-5.788-13.649-19.312-23.224-35.071-23.224h-80.167
			c-15.76,0-29.283,9.574-35.071,23.225l-3.006,36.704v40.28C283.839,298.073,296.722,313.339,313.9,317.021z M355.713,197.667
			l-6.287-10.889H362h12.574l-6.287,10.889l-3.144,5.443l3.144,5.445l6.287,10.889L362,282.778l-12.574-63.334l6.287-10.889
			l3.144-5.444L355.713,197.667z"/>
		<path fill="#FFFFFF" d="M542.537,380.724l-158.934,32.781l-69.807-17.123l105.371-6.586c0,0,1.791-1.311,4.158-3.611
			c7.989-7.764,22.559-26.834-2.842-45.121h-19.403H322.92h-13.074c0,0-3.542-2.004-10.077-4.672
			c-13.095-5.346-38.265-13.373-71.423-13.373c-11.834,0-24.68,1.021-38.359,3.555l-172.542-9.219v148.834l139.614-22.391
			l134.348,61.904c0,0,7.025,4.098,19.513,4.098c6.245,0,13.854-1.023,22.636-4.098l217.322-86.93
			C550.877,418.772,582.051,399.161,542.537,380.724z"/>
	</g>
</g>
</svg>
