<?xml version="1.0" encoding="utf-8"?>
<!-- Generator: Adobe Illustrator 15.0.0, SVG Export Plug-In . SVG Version: 6.00 Build 0)  -->
<!DOCTYPE svg PUBLIC "-//W3C//DTD SVG 1.1//EN" "http://www.w3.org/Graphics/SVG/1.1/DTD/svg11.dtd">
<svg version="1.1" xmlns="http://www.w3.org/2000/svg" xmlns:xlink="http://www.w3.org/1999/xlink" x="0px" y="0px" width="580px"
	 height="580px" viewBox="0 0 580 580" enable-background="new 0 0 580 580" xml:space="preserve">
<g id="Layer_2">
	<g id="g1327">
		<path id="path1329" fill="#111111" stroke="#EEEEEE" stroke-width="3.408" d="M66.275,1.768
			c-41.335,0-64.571,21.371-64.571,65.036v450.123c0,40.844,20.894,62.229,62.192,62.229H515.92
			c41.307,0,62.229-20.316,62.229-62.229V66.804c0-42.601-20.923-65.036-63.522-65.036C514.624,1.768,66.133,1.625,66.275,1.768z"/>
	</g>
</g>
<g id="svg2" sodipodi:docname="waste_bin.svg" inkscape:version="0.46" sodipodi:version="0.32" inkscape:output_extension="org.inkscape.output.svg.inkscape" xmlns:inkscape="http://www.inkscape.org/namespaces/inkscape" xmlns:dc="http://purl.org/dc/elements/1.1/" xmlns:rdf="http://www.w3.org/1999/02/22-rdf-syntax-ns#" xmlns:sodipodi="http://sodipodi.sourceforge.net/DTD/sodipodi-0.dtd" xmlns:svg="http://www.w3.org/2000/svg" xmlns:cc="http://creativecommons.org/ns#">
	<g>
		<g>
			<polygon fill="#FFFFFF" points="537.688,201.338 285.395,85.947 42.734,201.24 29.002,172.336 285.139,50.641 550.998,172.238 
							"/>
		</g>
		<g>
			<g>
				<rect x="51.512" y="206.025" fill="#FFFFFF" width="15" height="323.334"/>
			</g>
			<g>
				<rect x="513.488" y="206.025" fill="#FFFFFF" width="15" height="323.334"/>
			</g>
		</g>
	</g>
	<g>
		<path id="flowRoot3192" sodipodi:nodetypes="csscssssccccsccsccccsccccsccccsccccc" fill="#FFFFFF" d="M151.758,271.168
			c6.32,0.001,11.781-2.299,16.379-6.897c4.599-4.598,6.897-10.057,6.897-16.378c0-6.601-2.299-12.129-6.897-16.582
			c-4.598-4.453-10.059-6.681-16.379-6.681c-6.321,0-11.779,2.228-16.373,6.681c-4.594,4.453-6.89,9.981-6.89,16.582
			c0,6.321,2.295,11.78,6.89,16.378C139.979,268.87,145.438,271.169,151.758,271.168L151.758,271.168z M182.36,275.904h-61.623
			c-8.329,0-15.439,2.945-21.33,8.836c-5.892,5.893-8.837,13.147-8.836,21.764v71.524c-0.001,6.9,3.16,10.35,9.481,10.35
			c6.031,0,9.047-3.449,9.047-10.35v-69.802h11.205v189.603c0,8.617,4.309,12.926,12.926,12.926c8.619,0,12.927-4.309,12.927-12.926
			V387.944h11.204v109.885c0,8.617,4.309,12.926,12.928,12.926c8.906,0,13.361-4.309,13.361-12.926V308.227h10.77v69.802
			c0,7.18,3.016,10.77,9.047,10.77c6.04,0,9.06-3.59,9.061-10.77v-71.103c-0.001-8.33-2.802-15.582-8.403-21.758
			C198.521,278.992,191.267,275.904,182.36,275.904L182.36,275.904z"/>
		<path id="flowRoot3192_1_" sodipodi:nodetypes="csscssssccccsccsccccsccccsccccsccccc" fill="#FFFFFF" d="M290.085,271.168
			c6.321,0.001,11.781-2.299,16.38-6.897c4.599-4.598,6.896-10.057,6.897-16.378c-0.001-6.601-2.299-12.129-6.897-16.582
			s-10.059-6.681-16.38-6.681c-6.32,0-11.778,2.228-16.372,6.681c-4.595,4.453-6.89,9.981-6.89,16.582
			c0,6.321,2.295,11.78,6.89,16.378C278.307,268.87,283.765,271.169,290.085,271.168L290.085,271.168z M320.688,275.904h-61.624
			c-8.329,0-15.439,2.945-21.33,8.836c-5.891,5.893-8.836,13.147-8.836,21.764v71.524c0,6.9,3.16,10.35,9.482,10.35
			c6.031,0,9.046-3.449,9.046-10.35v-69.802h11.205v189.603c0,8.617,4.309,12.926,12.926,12.926c8.619,0,12.927-4.309,12.927-12.926
			V387.944h11.204v109.885c0,8.617,4.309,12.926,12.928,12.926c8.906,0,13.36-4.309,13.36-12.926V308.227h10.771v69.802
			c0,7.18,3.016,10.77,9.047,10.77c6.04,0,9.06-3.59,9.061-10.77v-71.103c-0.001-8.33-2.802-15.582-8.403-21.758
			C336.849,278.992,329.594,275.904,320.688,275.904L320.688,275.904z"/>
		<path id="flowRoot3192_2_" sodipodi:nodetypes="csscssssccccsccsccccsccccsccccsccccc" fill="#FFFFFF" d="M428.661,271.168
			c6.321,0.001,11.781-2.299,16.38-6.897c4.598-4.598,6.896-10.057,6.897-16.378c-0.001-6.601-2.3-12.129-6.897-16.582
			c-4.599-4.453-10.059-6.681-16.38-6.681c-6.32,0-11.778,2.228-16.372,6.681s-6.89,9.981-6.89,16.582
			c0,6.321,2.296,11.78,6.89,16.378C416.883,268.87,422.341,271.169,428.661,271.168L428.661,271.168z M459.264,275.904h-61.623
			c-8.329,0-15.439,2.945-21.331,8.836c-5.891,5.893-8.836,13.147-8.836,21.764v71.524c0,6.9,3.159,10.35,9.481,10.35
			c6.031,0,9.047-3.449,9.047-10.35v-69.802h11.204v189.603c0,8.617,4.31,12.926,12.927,12.926c8.619,0,12.927-4.309,12.927-12.926
			V387.944h11.204v109.885c0,8.617,4.309,12.926,12.928,12.926c8.906,0,13.36-4.309,13.36-12.926V308.227h10.771v69.802
			c0,7.18,3.015,10.77,9.047,10.77c6.04,0,9.06-3.59,9.061-10.77v-71.103c-0.001-8.33-2.802-15.582-8.403-21.758
			C475.425,278.992,468.17,275.904,459.264,275.904L459.264,275.904z"/>
	</g>
</g>
</svg>
