<?xml version="1.0" encoding="utf-8"?>
<!-- Generator: Adobe Illustrator 15.0.0, SVG Export Plug-In . SVG Version: 6.00 Build 0)  -->
<!DOCTYPE svg PUBLIC "-//W3C//DTD SVG 1.1//EN" "http://www.w3.org/Graphics/SVG/1.1/DTD/svg11.dtd">
<svg version="1.1" xmlns="http://www.w3.org/2000/svg" xmlns:xlink="http://www.w3.org/1999/xlink" x="0px" y="0px" width="580px"
	 height="580px" viewBox="0 0 580 580" enable-background="new 0 0 580 580" xml:space="preserve">
<g id="Layer_2">
	<g id="g1327">
		<path id="path1329" fill="#111111" stroke="#EEEEEE" stroke-width="3.408" d="M66.275,1.768
			c-41.335,0-64.571,21.371-64.571,65.036v450.123c0,40.844,20.894,62.229,62.192,62.229H515.92
			c41.307,0,62.229-20.316,62.229-62.229V66.804c0-42.601-20.923-65.036-63.522-65.036C514.624,1.768,66.133,1.625,66.275,1.768z"/>
	</g>
</g>
<g id="svg2" inkscape:output_extension="org.inkscape.output.svg.inkscape" sodipodi:version="0.32" sodipodi:docname="waste_bin.svg" inkscape:version="0.46" xmlns:dc="http://purl.org/dc/elements/1.1/" xmlns:cc="http://creativecommons.org/ns#" xmlns:rdf="http://www.w3.org/1999/02/22-rdf-syntax-ns#" xmlns:svg="http://www.w3.org/2000/svg" xmlns:sodipodi="http://sodipodi.sourceforge.net/DTD/sodipodi-0.dtd" xmlns:inkscape="http://www.inkscape.org/namespaces/inkscape">
	<g>
		<polygon fill="#FFFFFF" points="537.582,195.146 285.29,79.754 42.629,195.047 28.896,166.144 285.033,44.448 550.893,166.045 		
			"/>
	</g>
	<g>
		<g>
			<rect x="51.512" y="199.833" fill="#FFFFFF" width="15" height="323.333"/>
		</g>
		<g>
			<rect x="513.488" y="199.833" fill="#FFFFFF" width="15" height="323.333"/>
		</g>
	</g>
	<g>
		<path fill="#FFFFFF" d="M279.009,454.146c-12.678,20.016-31.76,37.6-55.846,43.455c-32.125,8.74-68.139-9.178-82.373-37.742
			c-13.457-25.141-8.792-58.789,12.494-78.517c3.016-4.156,11.253-5.807,10.041-11.818c-0.814-6.928,2.246-17.443-2.303-21.518
			c-28.66,13.769-50.305,42.15-51.908,73.511c-3.307,27.659,9.103,55.635,30.583,73.744c15.021,13.052,34.711,21.189,62.863,24.219
			c31.299,2.091,62.276-12.641,81.609-36.128C295.607,475.67,284.31,458.258,279.009,454.146z"/>
		<path fill="#FFFFFF" d="M360.581,457.294c-5.457,0.338-15.877,8.184-30.231,9.861c-13.665-26.754-26.688-54.037-40.224-80.944
			c-23.545-0.019-62.083,0.048-85.696-0.062c0.035-0.892-3.627-9.615,1.008-19.974c20.908,0,41.816,0,62.726,0
			c0-6.658,0-13.314,0-19.972c-21.346-0.281-42.851,0.933-64.068-0.717c-0.956-15.126-0.609-30.326-0.231-45.474
			c5.261-7.151,20.853-10.308,20.169-23.279c2.541-16.418-16.713-30.398-32.319-24.18c-15.764,4.474-21.7,25.301-10.367,36.819
			c0.335,38.286,0.478,76.575,1.039,114.857c18.214,0.003,81.204-2.205,93.232,0.442c12.102,24.077,41.238,83.298,44.489,88.392
			c12.892-4.267,33.123-13.914,45.942-18.378C366.712,475.236,366.559,456.795,360.581,457.294z"/>
	</g>
	<path fill="#FFFFFF" d="M284.246,242.718l35.784-6.14l124.074,136.979c4.339,4.533,9.444,6.961,14.761,7.018
		c5.134,0.057,10.336-2.17,14.276-6.109c4.055-4.057,6.345-9.418,6.283-14.711c-0.06-4.996-2.188-9.637-6.149-13.412
		L340.444,216.089l5.707-23.314l3.145-12.511c0.068-0.271,0.001-0.552-0.168-0.763c-0.065-0.102-0.149-0.19-0.254-0.26l-5.931-3.975
		l-34.75-23.546l-3.862-2.821c-0.195-0.142-0.431-0.193-0.654-0.157c-0.273-0.054-0.567,0.025-0.779,0.23l-13.344,12.931
		c-0.329,0.333-0.357,0.889-0.021,1.237l25.83,26.759l-5.18,17.017l-17.192,4.562l-25.83-26.78c-0.16-0.167-0.38-0.263-0.613-0.268
		c-0.231-0.005-0.456,0.084-0.622,0.245l-12.275,11.84c-0.005,0.004-0.009,0.007-0.012,0.011c-0.143,0.144-0.228,0.328-0.25,0.519
		c-0.224,0.295-0.241,0.708-0.024,1.023l17.624,25.72l12.384,18.554C283.563,242.629,283.906,242.777,284.246,242.718z
		 M454.093,366.838c-1.854-3.615-1.052-9.541,1.685-12.277l0.078-0.074c0.243-0.236,0.53-0.475,0.873-0.725
		c3.026-1.213,6.431-0.486,8.696,1.863c2.998,3.107,2.954,8.119-0.099,11.172l-0.103,0.102
		C462.121,369.873,457.155,369.836,454.093,366.838z"/>
</g>
</svg>
