<?xml version="1.0" encoding="utf-8"?>
<!-- Generator: Adobe Illustrator 15.0.0, SVG Export Plug-In . SVG Version: 6.00 Build 0)  -->
<!DOCTYPE svg PUBLIC "-//W3C//DTD SVG 1.1//EN" "http://www.w3.org/Graphics/SVG/1.1/DTD/svg11.dtd">
<svg version="1.1" xmlns="http://www.w3.org/2000/svg" xmlns:xlink="http://www.w3.org/1999/xlink" x="0px" y="0px" width="580px"
	 height="580px" viewBox="0 0 580 580" enable-background="new 0 0 580 580" xml:space="preserve">
<g id="Layer_2">
	<g id="g1327">
		<path id="path1329" fill="#111111" stroke="#EEEEEE" stroke-width="3.408" d="M66.275,1.768
			c-41.335,0-64.571,21.371-64.571,65.036v450.123c0,40.844,20.894,62.229,62.192,62.229H515.92
			c41.307,0,62.229-20.316,62.229-62.229V66.804c0-42.601-20.923-65.036-63.522-65.036C514.624,1.768,66.133,1.625,66.275,1.768z"/>
	</g>
</g>
<g id="svg2" inkscape:version="0.46" sodipodi:docname="waste_bin.svg" sodipodi:version="0.32" xmlns:cc="http://creativecommons.org/ns#" xmlns:dc="http://purl.org/dc/elements/1.1/" xmlns:rdf="http://www.w3.org/1999/02/22-rdf-syntax-ns#" xmlns:inkscape="http://www.inkscape.org/namespaces/inkscape" xmlns:svg="http://www.w3.org/2000/svg" xmlns:sodipodi="http://sodipodi.sourceforge.net/DTD/sodipodi-0.dtd" inkscape:output_extension="org.inkscape.output.svg.inkscape">
	<g>
		<path fill="#FFFFFF" d="M235.516,178.732c10.469,0.001,19.482-3.587,27.041-10.761s11.338-15.989,11.338-26.446
			c0-10.469-3.779-19.29-11.338-26.465c-7.559-7.174-16.572-10.761-27.041-10.761c-10.457,0-19.37,3.587-26.739,10.761
			c-7.369,7.175-11.054,15.996-11.054,26.465c0,10.457,3.685,19.272,11.054,26.446S225.059,178.733,235.516,178.732z"/>
		<path fill="#FFFFFF" d="M428.545,178.147c-1.159-5.039-4.063-9.304-8.712-12.793c0,0-1.582-1.34-6.332-2.097V56
			c0-7.18-5.82-13-13-13s-13,5.82-13,13v108.788c-21.721,3.918-144.994,26.153-144.994,26.153c-5.43,1.159-9.792,3.969-13.086,8.428
			c-3.294,4.46-4.167,9.209-2.617,14.248l31.974,125.001l-104.65,156.407c-1.939,3.478-2.908,7.156-2.908,11.036
			c0,6.199,2.229,11.527,6.689,15.987c4.459,4.459,9.787,6.688,15.986,6.689c8.137-0.001,14.727-3.874,19.765-11.622
			l109.298-164.552l5.82,22.677l-16.271,123.262c-0.78,6.199,0.574,11.723,4.063,16.572s8.333,7.854,14.532,9.014
			c6.21,1.159,11.929-0.101,17.157-3.779s8.233-8.623,9.014-14.833L354.13,379.32c0.39-4.27,0.006-8.729-1.153-13.378
			l-37.226-148.264l71.75-12.887V524c0,7.18,5.82,13,13,13s13-5.82,13-13V200.107c4.739-0.888,8.602-3.446,11.566-7.712
			C428.166,187.936,429.325,183.187,428.545,178.147z"/>
	</g>
</g>
</svg>
