<?xml version="1.0" encoding="utf-8"?>
<!-- Generator: Adobe Illustrator 15.0.0, SVG Export Plug-In . SVG Version: 6.00 Build 0)  -->
<!DOCTYPE svg PUBLIC "-//W3C//DTD SVG 1.1//EN" "http://www.w3.org/Graphics/SVG/1.1/DTD/svg11.dtd">
<svg version="1.1" xmlns="http://www.w3.org/2000/svg" xmlns:xlink="http://www.w3.org/1999/xlink" x="0px" y="0px" width="580px"
	 height="580px" viewBox="0 0 580 580" enable-background="new 0 0 580 580" xml:space="preserve">
<g id="Layer_2">
	<g id="g1327">
		<path id="path1329" fill="#111111" stroke="#EEEEEE" stroke-width="3.408" d="M66.275,1.768
			c-41.335,0-64.571,21.371-64.571,65.036v450.123c0,40.844,20.894,62.229,62.192,62.229H515.92
			c41.307,0,62.229-20.316,62.229-62.229V66.804c0-42.601-20.923-65.036-63.522-65.036C514.624,1.768,66.133,1.625,66.275,1.768z"/>
	</g>
</g>
<g id="svg2" inkscape:version="0.46" sodipodi:docname="waste_bin.svg" sodipodi:version="0.32" xmlns:dc="http://purl.org/dc/elements/1.1/" xmlns:cc="http://creativecommons.org/ns#" xmlns:sodipodi="http://sodipodi.sourceforge.net/DTD/sodipodi-0.dtd" xmlns:svg="http://www.w3.org/2000/svg" xmlns:rdf="http://www.w3.org/1999/02/22-rdf-syntax-ns#" xmlns:inkscape="http://www.inkscape.org/namespaces/inkscape" inkscape:output_extension="org.inkscape.output.svg.inkscape">
	<g>
		<path fill="#FFFFFF" d="M367.659,251.999v60.33c0,41.759-33.975,75.733-75.733,75.733h-3.851
			c-41.76,0-75.733-33.975-75.733-75.733v-64.181h-12.836v64.181c0,47.331,37.319,86.107,84.077,88.455v143.88h-35.621V557.5h84.077
			v-12.836h-35.62v-143.88c46.758-2.348,84.077-41.124,84.077-88.455v-60.33H367.659z"/>
		<path fill="#FFFFFF" d="M286.149,367.524h7.702c31.901,0,57.763-25.861,57.763-57.763v-16.045H228.386v16.045
			C228.386,341.663,254.248,367.524,286.149,367.524z"/>
		<path fill="#FFFFFF" d="M351.613,99.249c0-16.048-6.548-30.564-17.114-41.031v61.142h-12.836V48.618
			c-7.546-4.154-16.12-6.667-25.245-7.067v77.808h-12.836V41.551c-9.125,0.399-17.699,2.913-25.245,7.067v70.741h-12.836V58.216
			c-10.566,10.468-17.115,24.984-17.115,41.032V280.88h123.227V99.249z"/>
	</g>
</g>
</svg>
