<?xml version="1.0" encoding="UTF-8" standalone="no"?>
<!-- Created with Inkscape (http://www.inkscape.org/) -->

<svg
   xmlns:dc="http://purl.org/dc/elements/1.1/"
   xmlns:cc="http://creativecommons.org/ns#"
   xmlns:rdf="http://www.w3.org/1999/02/22-rdf-syntax-ns#"
   xmlns:svg="http://www.w3.org/2000/svg"
   xmlns="http://www.w3.org/2000/svg"
   xmlns:sodipodi="http://sodipodi.sourceforge.net/DTD/sodipodi-0.dtd"
   xmlns:inkscape="http://www.inkscape.org/namespaces/inkscape"
   width="580"
   height="580"
   viewBox="0 0 153.45833 153.45833"
   version="1.1"
   id="svg8"
   inkscape:version="0.92.3 (2405546, 2018-03-11)"
   sodipodi:docname="swing.svg">
  <defs
     id="defs2">
    <clipPath
       clipPathUnits="userSpaceOnUse"
       id="clipPath356">
      <path
         inkscape:connector-curvature="0"
         d="M 0,792 1008,792 1008,0 0,0 0,792 z"
         id="path358" />
    </clipPath>
  </defs>
  <sodipodi:namedview
     id="base"
     pagecolor="#ffffff"
     bordercolor="#666666"
     borderopacity="1.0"
     inkscape:pageopacity="0.0"
     inkscape:pageshadow="2"
     inkscape:zoom="0.82"
     inkscape:cx="297.154"
     inkscape:cy="196.05848"
     inkscape:document-units="mm"
     inkscape:current-layer="layer1"
     showgrid="false"
     units="px"
     inkscape:window-width="1920"
     inkscape:window-height="1147"
     inkscape:window-x="-8"
     inkscape:window-y="-8"
     inkscape:window-maximized="1" />
  <metadata
     id="metadata5">
    <rdf:RDF>
      <cc:Work
         rdf:about="">
        <dc:format>image/svg+xml</dc:format>
        <dc:type
           rdf:resource="http://purl.org/dc/dcmitype/StillImage" />
        <dc:title></dc:title>
      </cc:Work>
    </rdf:RDF>
  </metadata>
  <g
     inkscape:label="Ebene 1"
     inkscape:groupmode="layer"
     id="layer1"
     transform="translate(0,-143.54166)">
    <g
       transform="matrix(15.577459,0,0,-15.577459,-8581.103,9073.0547)"
       id="g352">
      <g
         id="g354"
         clip-path="url(#clipPath356)">
        <g
           id="g360"
           transform="translate(552.0468,573.0629)">
          <path
             inkscape:connector-curvature="0"
             d="m 0,0 c -0.541,0 -0.981,-0.44 -0.981,-0.981 v -7.522 c 0,-0.54 0.44,-0.979 0.981,-0.979 h 7.521 c 0.541,0 0.981,0.439 0.981,0.979 v 7.522 C 8.502,-0.44 8.062,0 7.521,0 Z"
             style="fill:#ffffff;fill-opacity:1;fill-rule:nonzero;stroke:none"
             id="path362" />
        </g>
        <g
           id="g364"
           transform="translate(559.5673,563.3803)">
          <path
             inkscape:connector-curvature="0"
             d="M 0,0 C 0.652,0 1.182,0.527 1.182,1.18 V 8.701 C 1.182,9.353 0.652,9.883 0,9.883 h -7.521 c -0.652,0 -1.181,-0.53 -1.181,-1.182 V 1.18 C -8.702,0.527 -8.173,0 -7.521,0 Z"
             style="fill:#111111;fill-opacity:1;fill-rule:nonzero;stroke:none"
             id="path366" />
        </g>
        <g
           id="g368"
           transform="translate(553.0078,568.3568)">
          <path
             inkscape:connector-curvature="0"
             d="M 0,0 C 0.439,0 0.795,0.356 0.795,0.795 0.795,1.233 0.439,1.588 0,1.588 -0.437,1.588 -0.793,1.233 -0.793,0.795 -0.793,0.356 -0.437,0 0,0"
             style="fill:#ffffff;fill-opacity:1;fill-rule:nonzero;stroke:none"
             id="path370" />
        </g>
        <g
           id="g372"
           transform="translate(557.4599,566.9916)">
          <path
             inkscape:connector-curvature="0"
             d="M 0,0 C 0.037,0.025 0.086,0.018 0.113,-0.018 L 0.26,-0.221 C 0.285,-0.256 0.277,-0.307 0.242,-0.334 L -0.836,-1.117 C -0.871,-1.143 -0.922,-1.135 -0.949,-1.1 l -0.147,0.204 c -0.025,0.035 -0.017,0.086 0.018,0.113 z"
             style="fill:#ffffff;fill-opacity:1;fill-rule:nonzero;stroke:none"
             id="path374" />
        </g>
        <g
           id="g376"
           transform="translate(556.2411,568.0014)">
          <path
             inkscape:connector-curvature="0"
             d="M 0,0 -0.428,0.75 -0.652,0.586 -0.225,-0.168 Z"
             style="fill:#ffffff;fill-opacity:1;fill-rule:nonzero;stroke:none"
             id="path378" />
        </g>
        <g
           id="g380"
           transform="translate(555.2431,569.7533)">
          <path
             inkscape:connector-curvature="0"
             d="M 0,0 -1.663,2.92 -1.981,2.918 -0.227,-0.166 Z"
             style="fill:#ffffff;fill-opacity:1;fill-rule:nonzero;stroke:none"
             id="path382" />
        </g>
        <g
           id="g384"
           transform="translate(556.8095,568.2084)">
          <path
             inkscape:connector-curvature="0"
             d="M 0,0 C 0.094,0.068 0.201,0.121 0.324,0.121 L 1.869,0.119 c 0.301,0 0.543,-0.244 0.543,-0.543 0,-0.301 -0.242,-0.543 -0.543,-0.543 L 0.58,-0.965 -1.066,-2.127 c -0.58,-0.418 -0.932,0.041 -0.932,0.041 l -1.292,1.293 c -0.217,0.26 -0.17,0.754 0.09,0.973 l 1.788,1.273 c 0.178,0.149 0.441,0.125 0.592,-0.051 0.148,-0.177 0.125,-0.443 -0.053,-0.591 l -1.145,-0.838 0.823,-0.813 z"
             style="fill:#ffffff;fill-opacity:1;fill-rule:nonzero;stroke:none"
             id="path386" />
        </g>
      </g>
    </g>
  </g>
</svg>
