<?xml version="1.0" encoding="UTF-8" standalone="no"?>
<!-- Generator: Adobe Illustrator 15.0.0, SVG Export Plug-In . SVG Version: 6.00 Build 0)  -->

<svg
   xmlns:dc="http://purl.org/dc/elements/1.1/"
   xmlns:cc="http://creativecommons.org/ns#"
   xmlns:rdf="http://www.w3.org/1999/02/22-rdf-syntax-ns#"
   xmlns:svg="http://www.w3.org/2000/svg"
   xmlns="http://www.w3.org/2000/svg"
   xmlns:sodipodi="http://sodipodi.sourceforge.net/DTD/sodipodi-0.dtd"
   xmlns:inkscape="http://www.inkscape.org/namespaces/inkscape"
   version="1.1"
   x="0px"
   y="0px"
   width="580px"
   height="580px"
   viewBox="0 0 580 580"
   enable-background="new 0 0 580 580"
   xml:space="preserve"
   id="svg881"
   sodipodi:docname="vacuum_station.svg"
   inkscape:version="0.92.3 (2405546, 2018-03-11)"><metadata
   id="metadata887"><rdf:RDF><cc:Work
       rdf:about=""><dc:format>image/svg+xml</dc:format><dc:type
         rdf:resource="http://purl.org/dc/dcmitype/StillImage" /><dc:title></dc:title></cc:Work></rdf:RDF></metadata><defs
   id="defs885" /><sodipodi:namedview
   pagecolor="#ffffff"
   bordercolor="#666666"
   borderopacity="1"
   objecttolerance="10"
   gridtolerance="10"
   guidetolerance="10"
   inkscape:pageopacity="0"
   inkscape:pageshadow="2"
   inkscape:window-width="1387"
   inkscape:window-height="981"
   id="namedview883"
   showgrid="false"
   inkscape:zoom="1.2316035"
   inkscape:cx="290"
   inkscape:cy="290"
   inkscape:window-x="383"
   inkscape:window-y="81"
   inkscape:window-maximized="0"
   inkscape:current-layer="svg881" />
<g
   id="Layer_2"
   transform="translate(0.81194959,-0.5683013)">
	<g
   id="g1327">
		<path
   id="path1329"
   d="M 66.275,1.768 C 24.94,1.768 1.704,23.139 1.704,66.804 v 450.123 c 0,40.844 20.894,62.229 62.192,62.229 H 515.92 c 41.307,0 62.229,-20.316 62.229,-62.229 V 66.804 c 0,-42.601 -20.923,-65.036 -63.522,-65.036 -0.003,0 -448.494,-0.143 -448.352,0 z"
   inkscape:connector-curvature="0"
   style="fill:#111111;stroke:#eeeeee;stroke-width:3.40799999" />
	</g>
</g>

<path
   inkscape:connector-curvature="0"
   d="M 190.11119,247.1905 V 475.50782 H 75.952515 V 161.57151 c 0,-31.52406 25.555275,-57.07933 57.079335,-57.07933 31.52405,0 57.07934,25.55527 57.07934,57.07933 v 28.53966 h 35.84752 c 17.63037,-49.88134 65.202,-85.61899 121.12062,-85.61899 70.92905,0 128.4285,57.49943 128.4285,128.4285 V 347.07932 H 418.42851 V 232.92068 c 0,-39.40502 -31.94419,-71.34917 -71.34918,-71.34917 -23.34287,0 -44.06751,11.20981 -57.08446,28.53966 h 14.27497 c 47.28594,0 85.61899,38.33277 85.61899,85.619 v 114.15865 c 0,47.28595 -38.33305,85.619 -85.61899,85.619 -47.28594,0 -85.61899,-38.33305 -85.61899,-85.619 V 247.1905 Z m 228.31732,114.15866 h 57.07932 v 57.07933 l 28.53965,28.53968 v 28.53965 H 389.88883 v -28.53965 l 28.53968,-28.53968 z m -142.69835,28.53966 c 0,15.7619 12.77749,28.53967 28.53967,28.53967 15.76189,0 28.53967,-12.77777 28.53967,-28.53967 V 275.73017 c 0,-15.76217 -12.77778,-28.53967 -28.53967,-28.53967 h -28.53967 z"
   id="path2074"
   style="fill:#ffffff;fill-opacity:1;stroke-width:28.53966522" /></svg>