<?xml version="1.0" encoding="utf-8"?>
<!-- Generator: Adobe Illustrator 15.0.0, SVG Export Plug-In . SVG Version: 6.00 Build 0)  -->
<!DOCTYPE svg PUBLIC "-//W3C//DTD SVG 1.1//EN" "http://www.w3.org/Graphics/SVG/1.1/DTD/svg11.dtd">
<svg version="1.1" xmlns="http://www.w3.org/2000/svg" xmlns:xlink="http://www.w3.org/1999/xlink" x="0px" y="0px" width="580px"
	 height="580px" viewBox="0 0 580 580" enable-background="new 0 0 580 580" xml:space="preserve">
<g id="Layer_2">
	<g id="g1327">
		<path id="path1329" fill="#111111" stroke="#EEEEEE" stroke-width="3.408" d="M66.275,1.768
			c-41.335,0-64.571,21.371-64.571,65.036v450.123c0,40.844,20.894,62.229,62.192,62.229H515.92
			c41.307,0,62.229-20.316,62.229-62.229V66.804c0-42.601-20.923-65.036-63.522-65.036C514.624,1.768,66.133,1.625,66.275,1.768z"/>
	</g>
</g>
<g id="svg2" inkscape:version="0.46" sodipodi:docname="waste_bin.svg" sodipodi:version="0.32" xmlns:dc="http://purl.org/dc/elements/1.1/" xmlns:cc="http://creativecommons.org/ns#" xmlns:sodipodi="http://sodipodi.sourceforge.net/DTD/sodipodi-0.dtd" xmlns:svg="http://www.w3.org/2000/svg" xmlns:rdf="http://www.w3.org/1999/02/22-rdf-syntax-ns#" xmlns:inkscape="http://www.inkscape.org/namespaces/inkscape" inkscape:output_extension="org.inkscape.output.svg.inkscape">
	<defs>
		
		
			<inkscape:perspective  id="perspective24" inkscape:persp3d-origin="290 : 193.33333 : 1" inkscape:vp_y="0 : 1000 : 0" inkscape:vp_x="0 : 290 : 1" sodipodi:type="inkscape:persp3d" inkscape:vp_z="580 : 290 : 1">
			</inkscape:perspective>
		
			<inkscape:perspective  id="perspective2683" inkscape:persp3d-origin="306.082 : 204.39034 : 1" inkscape:vp_y="0 : 1000 : 0" inkscape:vp_x="0 : 306.58551 : 1" sodipodi:type="inkscape:persp3d" inkscape:vp_z="612.164 : 306.58551 : 1">
			</inkscape:perspective>
		
			<inkscape:perspective  id="perspective2953" inkscape:persp3d-origin="306.082 : 204.39034 : 1" inkscape:vp_y="0 : 1000 : 0" inkscape:vp_x="0 : 306.58551 : 1" sodipodi:type="inkscape:persp3d" inkscape:vp_z="612.164 : 306.58551 : 1">
			</inkscape:perspective>
		
			<inkscape:perspective  id="perspective3071" inkscape:persp3d-origin="180.936 : 163.92867 : 1" inkscape:vp_y="0 : 1000 : 0" inkscape:vp_x="0 : 245.89301 : 1" sodipodi:type="inkscape:persp3d" inkscape:vp_z="361.87201 : 245.89301 : 1">
			</inkscape:perspective>
	</defs>
	
		<sodipodi:namedview  id="base" inkscape:window-x="-4" inkscape:current-layer="svg2" inkscape:window-width="1280" inkscape:window-y="-4" inkscape:pageopacity="0.0" inkscape:window-height="1005" inkscape:pageshadow="2" bordercolor="#666666" inkscape:cy="415.25176" pagecolor="#ffffff" borderopacity="1.0" objecttolerance="10.0" inkscape:zoom="0.70710678" gridtolerance="10.0" showgrid="false" inkscape:cx="615.26172" guidetolerance="10.0">
		</sodipodi:namedview>
	<g id="g2319" transform="translate(879.29125,36.805119)">
		<path id="path2323" fill="#111111" stroke="#EEEEEE" stroke-width="3.408" d="M0,0"/>
	</g>
	<g id="g2325" transform="translate(879.29125,36.805119)">
		<path id="path2329" fill="#111111" stroke="#EEEEEE" stroke-width="3.408" d="M0,0"/>
	</g>
	<g id="g3302">
		<path id="path3304" fill="#FFFFFF" d="M448.559,125.864c22.55,0,40.834-18.284,40.834-40.835
			c0-22.552-18.284-40.836-40.834-40.836c-22.552,0-40.834,18.284-40.834,40.836C407.725,107.58,426.007,125.864,448.559,125.864z"
			/>
		<path id="path3306" fill="#FFFFFF" d="M396.091,200.916l0.25,311.75c0,31.185,45.857,30.899,45.857-0.714l0.027-181.366
			l8.926-0.086l-0.028,181.367c0,31.612,46.394,32.411,46.394,0.799l0.026-313.057h8.059v111.795c0,26.838,36.42,26.838,36.42,0.48
			V189.586c0-32.876-24.469-52.237-50.348-52.237h-72.611c-17.222,0-29.722,6.817-40.222,21.817L342.09,212.72h-63.77
			c-25.624,0-24.186,36.34-0.48,36.34h73.5c5.752,0,12.75-2.144,16.773-8.148L396.091,200.916z"/>
	</g>
	<g id="g3312_2_">
		<path id="path3314_2_" fill="#FFFFFF" d="M168.179,252.75v-29.863h-29.863v29.863H168.179z"/>
	</g>
	<g id="g3318_2_">
		<path id="path3320_2_" fill="#FFFFFF" d="M229.481,237.82l-21.751-21.752l-21.75,21.752l21.75,21.748L229.481,237.82z"/>
	</g>
	<g id="g3324_2_">
		<path id="path3326_2_" fill="#FFFFFF" d="M209.191,196.739l-21.752-21.749l-21.751,21.749l21.751,21.751L209.191,196.739z"/>
	</g>
	<path fill="#FFFFFF" d="M89.47,425.77c36.333,0,65.772,29.435,65.772,65.77l-0.611,44.687h77.475l70.043-44.686l0.379-219.918
		l-235.205,0.109L67.21,425.65L89.47,425.77z"/>
	<path fill="#FFFFFF" d="M38.954,491.539c0-27.414,22.264-49.679,49.683-49.679c27.415,0,49.68,22.265,49.68,49.679
		c0,27.419-22.265,49.681-49.68,49.681C61.218,541.22,38.954,518.953,38.954,491.539z"/>
	<polygon fill="#FFFFFF" points="219.715,89.907 206.714,78.967 53.856,260.069 66.937,271.012 	"/>
</g>
</svg>
