<?xml version="1.0" encoding="utf-8"?>
<!-- Generator: Adobe Illustrator 15.0.0, SVG Export Plug-In . SVG Version: 6.00 Build 0)  -->
<!DOCTYPE svg PUBLIC "-//W3C//DTD SVG 1.1//EN" "http://www.w3.org/Graphics/SVG/1.1/DTD/svg11.dtd">
<svg version="1.1" xmlns="http://www.w3.org/2000/svg" xmlns:xlink="http://www.w3.org/1999/xlink" x="0px" y="0px" width="580px"
	 height="580px" viewBox="0 0 580 580" enable-background="new 0 0 580 580" xml:space="preserve">
<g id="Layer_2_1_">
	<g id="Layer_2">
		<g id="g1327">
			<path id="path1329" fill="#111111" stroke="#EEEEEE" stroke-width="3.408" d="M66.275,1.768
				c-41.335,0-64.571,21.371-64.571,65.036v450.123c0,40.844,20.895,62.229,62.192,62.229h452.024
				c41.307,0,62.229-20.315,62.229-62.229V66.804c0-42.602-20.923-65.036-63.521-65.036C514.625,1.768,66.133,1.625,66.275,1.768z"
				/>
		</g>
	</g>
</g>
<g id="Layer_1">
	<g>
		<path fill="#FFFFFF" d="M390.244,122.006H267.659V76.01h33.748c7.041,0,12.749-5.708,12.749-12.75
			c0-7.041-5.708-12.749-12.749-12.749h-88.496c-7.041,0-12.749,5.708-12.749,12.749c0,7.042,5.708,12.75,12.749,12.75h33.749
			v45.996H87.102v67h269.642v155.491h67V155.506C423.744,137.005,408.746,122.006,390.244,122.006z"/>
		<path fill="#FFFFFF" d="M363.58,367.995c-3.59,0-6.5,2.91-6.5,6.5v1.5c0,3.59,2.91,6.5,6.5,6.5s6.5-2.91,6.5-6.5v-1.5
			C370.08,370.905,367.17,367.995,363.58,367.995z"/>
		<path fill="#FFFFFF" d="M363.58,440.776c-3.59,0-6.5,2.91-6.5,6.5v2.93c0,3.59,2.91,6.5,6.5,6.5s6.5-2.91,6.5-6.5v-2.93
			C370.08,443.686,367.17,440.776,363.58,440.776z"/>
		<path fill="#FFFFFF" d="M363.58,477.882c-3.59,0-6.5,2.91-6.5,6.5v2.93c0,3.59,2.91,6.5,6.5,6.5s6.5-2.91,6.5-6.5v-2.93
			C370.08,480.792,367.17,477.882,363.58,477.882z"/>
		<path fill="#FFFFFF" d="M363.58,403.671c-3.59,0-6.5,2.91-6.5,6.5v2.93c0,3.59,2.91,6.5,6.5,6.5s6.5-2.91,6.5-6.5v-2.93
			C370.08,406.581,367.17,403.671,363.58,403.671z"/>
		<path fill="#FFFFFF" d="M363.58,514.988c-3.59,0-6.5,2.91-6.5,6.5v1.5c0,3.59,2.91,6.5,6.5,6.5s6.5-2.91,6.5-6.5v-1.5
			C370.08,517.898,367.17,514.988,363.58,514.988z"/>
		<path fill="#FFFFFF" d="M417.244,367.995c-3.59,0-6.5,2.91-6.5,6.5v1.5c0,3.59,2.91,6.5,6.5,6.5s6.5-2.91,6.5-6.5v-1.5
			C423.744,370.905,420.834,367.995,417.244,367.995z"/>
		<path fill="#FFFFFF" d="M417.244,440.776c-3.59,0-6.5,2.91-6.5,6.5v2.93c0,3.59,2.91,6.5,6.5,6.5s6.5-2.91,6.5-6.5v-2.93
			C423.744,443.686,420.834,440.776,417.244,440.776z"/>
		<path fill="#FFFFFF" d="M417.244,477.882c-3.59,0-6.5,2.91-6.5,6.5v2.93c0,3.59,2.91,6.5,6.5,6.5s6.5-2.91,6.5-6.5v-2.93
			C423.744,480.792,420.834,477.882,417.244,477.882z"/>
		<path fill="#FFFFFF" d="M417.244,403.671c-3.59,0-6.5,2.91-6.5,6.5v2.93c0,3.59,2.91,6.5,6.5,6.5s6.5-2.91,6.5-6.5v-2.93
			C423.744,406.581,420.834,403.671,417.244,403.671z"/>
		<path fill="#FFFFFF" d="M417.244,514.988c-3.59,0-6.5,2.91-6.5,6.5v1.5c0,3.59,2.91,6.5,6.5,6.5s6.5-2.91,6.5-6.5v-1.5
			C423.744,517.898,420.834,514.988,417.244,514.988z"/>
		<path fill="#FFFFFF" d="M390.244,367.995c-3.59,0-6.5,2.91-6.5,6.5v1.5c0,3.59,2.91,6.5,6.5,6.5s6.5-2.91,6.5-6.5v-1.5
			C396.744,370.905,393.834,367.995,390.244,367.995z"/>
		<path fill="#FFFFFF" d="M390.244,403.671c-3.59,0-6.5,2.91-6.5,6.5v2.93c0,3.59,2.91,6.5,6.5,6.5s6.5-2.91,6.5-6.5v-2.93
			C396.744,406.581,393.834,403.671,390.244,403.671z"/>
		<path fill="#FFFFFF" d="M390.244,440.776c-3.59,0-6.5,2.91-6.5,6.5v2.93c0,3.59,2.91,6.5,6.5,6.5s6.5-2.91,6.5-6.5v-2.93
			C396.744,443.686,393.834,440.776,390.244,440.776z"/>
		<path fill="#FFFFFF" d="M390.244,477.882c-3.59,0-6.5,2.91-6.5,6.5v2.93c0,3.59,2.91,6.5,6.5,6.5s6.5-2.91,6.5-6.5v-2.93
			C396.744,480.792,393.834,477.882,390.244,477.882z"/>
		<path fill="#FFFFFF" d="M390.244,514.988c-3.59,0-6.5,2.91-6.5,6.5v1.5c0,3.59,2.91,6.5,6.5,6.5s6.5-2.91,6.5-6.5v-1.5
			C396.744,517.898,393.834,514.988,390.244,514.988z"/>
	</g>
</g>
</svg>
