<?xml version="1.0" encoding="utf-8"?>
<!-- Generator: Adobe Illustrator 15.0.0, SVG Export Plug-In . SVG Version: 6.00 Build 0)  -->
<!DOCTYPE svg PUBLIC "-//W3C//DTD SVG 1.1//EN" "http://www.w3.org/Graphics/SVG/1.1/DTD/svg11.dtd">
<svg version="1.1" xmlns="http://www.w3.org/2000/svg" xmlns:xlink="http://www.w3.org/1999/xlink" x="0px" y="0px" width="580px"
	 height="580px" viewBox="0 0 580 580" enable-background="new 0 0 580 580" xml:space="preserve">
<g id="Layer_1">
	<g id="Layer_1_1_">
		<g id="Layer_2">
			<g id="g1327">
				<path id="path1329" fill="#111111" stroke="#EEEEEE" stroke-width="3.408" d="M66.275,1.768
					c-41.335,0-64.571,21.371-64.571,65.036v450.123c0,40.844,20.895,62.229,62.192,62.229H515.92
					c41.307,0,62.229-20.315,62.229-62.229V66.804c0-42.601-20.925-65.036-63.521-65.036C514.624,1.768,66.133,1.625,66.275,1.768z"
					/>
			</g>
		</g>
	</g>
</g>
<g id="Layer_2_1_">
	<g>
		<g>
			<polygon fill="#FFFFFF" points="537.688,201.338 285.395,85.946 42.734,201.239 29.002,172.336 285.139,50.641 550.998,172.237 
							"/>
		</g>
		<g>
			<g>
				<rect x="51.512" y="206.025" fill="#FFFFFF" width="15" height="323.334"/>
			</g>
			<g>
				<rect x="513.488" y="206.025" fill="#FFFFFF" width="15" height="323.334"/>
			</g>
		</g>
	</g>
	<g>
		<path fill-rule="evenodd" clip-rule="evenodd" fill="#FFFFFF" d="M349.282,305.235c4.147,4.151,9.074,6.228,14.781,6.227
			c5.706,0.001,10.635-2.075,14.787-6.227c4.15-4.151,6.226-9.08,6.227-14.787c0-1.021-0.084-2.002-0.206-2.966
			c0.064,0.005,0.129,0.008,0.193,0.013c-0.038-0.242-0.063-0.517-0.054-0.875c0.111-3.545,1.37-4.783,1.157-6.685
			c-0.257-2.271-1.808-4.322-4.173-6.054h0.03c-0.174-5.401-11.967-6.642-11.967-6.642c-2.867-0.956-2.867-3.823-2.867-3.823
			c-1.774,1.843,0.717,5.237-1.549,3.494c-2.268-1.743-2.965-5.23-2.965-5.23c-1.045,1.745-0.347,5.23-0.347,5.23
			c-1.918-2.09-2.789-8.715-2.789-8.715c-2.965,2.79-1.744,8.365-1.744,8.365c-3.836-5.925-1.396-15.162-1.396-15.162
			c-9.516,5.798-9.39,17.532-9.146,20.861c-1.412,1.356-2.342,3.059-2.57,5.17c-0.205,1.899-0.283,3.184-0.135,4.992
			c-0.987,2.446-1.49,5.119-1.489,8.026C343.061,296.155,345.136,301.084,349.282,305.235z"/>
		<path fill-rule="evenodd" clip-rule="evenodd" fill="#FFFFFF" d="M274.276,335.194c-1.298-4.154-4.278-8.176-8.94-12.062
			c-5.707-4.67-11.932-7.005-18.674-7.005h-41.624c-6.491,0-12.328,2.335-17.511,7.005c-3.894,3.625-6.487,7.646-7.777,12.062
			l-17.903,59.516c-0.515,1.298-0.772,2.465-0.772,3.502c0,5.969,2.98,8.952,8.94,8.952c4.155,0,6.882-2.335,8.18-7.005
			l16.336-54.47h8.94l-26.843,96.865h26.071v75.471c0,6.743,3.241,10.115,9.723,10.115s9.723-3.372,9.723-10.115v-75.851h9.735
			v76.243c0,6.481,3.241,9.723,9.723,9.723c6.482,0,9.724-3.241,9.724-9.723v-75.863h26.059l-27.222-96.865h9.332l16.336,54.47
			c1.298,4.67,4.02,7.005,8.168,7.005c5.967,0,8.951-2.983,8.951-8.952c0-1.298-0.258-2.465-0.771-3.502L274.276,335.194z"/>
		<path fill-rule="evenodd" clip-rule="evenodd" fill="#FFFFFF" d="M411.338,324.101c-5.058-5.576-11.607-8.364-19.647-8.364
			h-55.633c-7.521,0-13.938,2.66-19.257,7.979c-5.319,5.318-7.979,11.868-7.979,19.647v64.573c0,6.229,2.854,9.344,8.561,9.344
			c5.444,0,8.167-3.114,8.168-9.344v-63.018h10.114v171.173c0,7.779,3.89,11.67,11.671,11.67c7.779,0,11.669-3.891,11.67-11.67
			v-99.203h10.115v99.203c0,7.779,3.89,11.67,11.67,11.67c8.041,0,12.062-3.891,12.063-11.67V344.918h9.724v63.018
			c-0.001,6.482,2.722,9.724,8.167,9.724c5.453,0,8.18-3.241,8.181-9.724v-64.192C418.924,336.224,416.396,329.677,411.338,324.101z
			"/>
		<path fill-rule="evenodd" clip-rule="evenodd" fill="#FFFFFF" d="M174.719,300.237c0,0,24.542,6.787,17.962-14.045
			c-1.614-3.375,2.275-8.403,10.507-3.994c-0.001,0.053-0.009,0.103-0.009,0.154c0,2.224,0.876,4.026,1.955,4.026
			c0.3,0,0.582-0.152,0.835-0.401c0.06,0.285,0.129,0.54,0.194,0.81c-0.229,1.302-0.354,2.651-0.354,4.054
			c0,5.706,2.076,10.634,6.227,14.78c4.151,4.147,9.08,6.222,14.787,6.221c5.959,0.001,11.015-2.073,15.166-6.221
			c4.151-4.146,6.227-9.074,6.227-14.78c0-0.509-0.036-1.003-0.066-1.499c0.34-1.097,0.558-2.212,0.684-3.306
			c0.24,0.216,0.506,0.342,0.785,0.342c1.082,0,1.956-1.802,1.956-4.026c0-0.094-0.011-0.18-0.011-0.274
			c8.051-4.167,11.85,0.773,10.251,4.114c-6.578,20.832,17.959,14.045,17.959,14.045c-17.541-1.042-1.48-14.705-8.978-23.602
			c-7.083-8.399-16.078-0.339-19.566,3.444c-0.352-1.054-0.942-1.749-1.612-1.749c-0.371,0-0.714,0.225-1.01,0.596
			c-0.055-0.317-0.111-0.6-0.162-0.828c-0.544-2.446-6.892-15.404-21.086-8.729c-13.846-6.362-20,4.845-20.511,6.347
			c-0.38,1.12-0.629,2.121-0.826,3.074c-0.269-0.284-0.567-0.459-0.889-0.459c-0.711,0-1.33,0.794-1.671,1.968
			c-3.333-3.68-12.542-12.228-19.76-3.664C176.2,285.533,192.266,299.195,174.719,300.237z"/>
	</g>
</g>
</svg>
