<?xml version="1.0" encoding="utf-8"?>
<!-- Generator: Adobe Illustrator 15.0.0, SVG Export Plug-In . SVG Version: 6.00 Build 0)  -->
<!DOCTYPE svg PUBLIC "-//W3C//DTD SVG 1.1//EN" "http://www.w3.org/Graphics/SVG/1.1/DTD/svg11.dtd">
<svg version="1.1" xmlns="http://www.w3.org/2000/svg" xmlns:xlink="http://www.w3.org/1999/xlink" x="0px" y="0px" width="580px"
	 height="580px" viewBox="0 0 580 580" enable-background="new 0 0 580 580" xml:space="preserve">
<g id="Layer_1">
	<g id="Layer_2">
		<g id="g1327">
			<path id="path1329" fill="#111111" stroke="#EEEEEE" stroke-width="3.408" d="M66.275,1.768
				c-41.335,0-64.571,21.371-64.571,65.036v450.123c0,40.844,20.895,62.229,62.192,62.229h452.024
				c41.307,0,62.229-20.315,62.229-62.229V66.804c0-42.602-20.923-65.036-63.521-65.036C514.625,1.768,66.133,1.625,66.275,1.768z"
				/>
		</g>
	</g>
</g>
<g id="Layer_2_1_">
	<circle fill="#FFFFFF" cx="119.999" cy="114" r="8"/>
	<circle fill="#FFFFFF" cx="187.999" cy="114" r="8"/>
	<circle fill="#FFFFFF" cx="392.001" cy="114" r="8"/>
	<circle fill="#FFFFFF" cx="460.001" cy="114" r="8"/>
	<circle fill="#FFFFFF" cx="119.999" cy="202" r="8"/>
	<circle fill="#FFFFFF" cx="460.001" cy="202" r="8"/>
	<circle fill="#FFFFFF" cx="119.999" cy="290" r="8"/>
	<circle fill="#FFFFFF" cx="460.001" cy="290" r="8"/>
	<circle fill="#FFFFFF" cx="119.999" cy="378" r="8"/>
	<circle fill="#FFFFFF" cx="460.001" cy="378" r="8"/>
	<circle fill="#FFFFFF" cx="119.999" cy="466" r="8"/>
	<circle fill="#FFFFFF" cx="187.999" cy="466" r="8"/>
	<circle fill="#FFFFFF" cx="392.001" cy="466" r="8"/>
	<g>
		<path fill="#FFFFFF" d="M60.5,58.5v466h450v-466H60.5z M119.999,490.5c-13.531,0-24.5-10.969-24.5-24.5
			c0-13.53,10.969-24.5,24.5-24.5s24.5,10.97,24.5,24.5C144.499,479.531,133.53,490.5,119.999,490.5z M119.999,402.5
			c-13.531,0-24.5-10.969-24.5-24.5c0-13.53,10.969-24.5,24.5-24.5s24.5,10.97,24.5,24.5
			C144.499,391.531,133.53,402.5,119.999,402.5z M119.999,314.5c-13.531,0-24.5-10.969-24.5-24.5c0-13.531,10.969-24.5,24.5-24.5
			s24.5,10.969,24.5,24.5C144.499,303.531,133.53,314.5,119.999,314.5z M119.999,226.5c-13.531,0-24.5-10.969-24.5-24.5
			c0-13.531,10.969-24.5,24.5-24.5s24.5,10.969,24.5,24.5C144.499,215.531,133.53,226.5,119.999,226.5z M119.999,138.5
			c-13.531,0-24.5-10.969-24.5-24.5c0-13.531,10.969-24.5,24.5-24.5s24.5,10.969,24.5,24.5
			C144.499,127.531,133.53,138.5,119.999,138.5z M187.999,490.5c-13.53,0-24.5-10.969-24.5-24.5c0-13.53,10.97-24.5,24.5-24.5
			c13.531,0,24.5,10.97,24.5,24.5C212.499,479.531,201.53,490.5,187.999,490.5z M187.999,138.5c-13.53,0-24.5-10.969-24.5-24.5
			c0-13.531,10.97-24.5,24.5-24.5c13.531,0,24.5,10.969,24.5,24.5C212.499,127.531,201.53,138.5,187.999,138.5z M392.001,490.5
			c-13.531,0-24.5-10.969-24.5-24.5c0-13.53,10.969-24.5,24.5-24.5s24.5,10.97,24.5,24.5
			C416.501,479.531,405.532,490.5,392.001,490.5z M392.001,138.5c-13.531,0-24.5-10.969-24.5-24.5c0-13.531,10.969-24.5,24.5-24.5
			s24.5,10.969,24.5,24.5C416.501,127.531,405.532,138.5,392.001,138.5z M460.001,490.5c-13.531,0-24.5-10.969-24.5-24.5
			c0-13.53,10.969-24.5,24.5-24.5s24.5,10.97,24.5,24.5C484.501,479.531,473.532,490.5,460.001,490.5z M460.001,402.5
			c-13.531,0-24.5-10.969-24.5-24.5c0-13.53,10.969-24.5,24.5-24.5s24.5,10.97,24.5,24.5
			C484.501,391.531,473.532,402.5,460.001,402.5z M460.001,314.5c-13.531,0-24.5-10.969-24.5-24.5c0-13.531,10.969-24.5,24.5-24.5
			s24.5,10.969,24.5,24.5C484.501,303.531,473.532,314.5,460.001,314.5z M460.001,226.5c-13.531,0-24.5-10.969-24.5-24.5
			c0-13.531,10.969-24.5,24.5-24.5s24.5,10.969,24.5,24.5C484.501,215.531,473.532,226.5,460.001,226.5z M460.001,138.5
			c-13.531,0-24.5-10.969-24.5-24.5c0-13.531,10.969-24.5,24.5-24.5s24.5,10.969,24.5,24.5
			C484.501,127.531,473.532,138.5,460.001,138.5z"/>
		<circle fill="#FFFFFF" cx="460.001" cy="466" r="8"/>
	</g>
	<polygon points="378.913,253.639 252.217,265.593 315.344,99.54 262.997,82.47 208.839,280.353 201.087,308.676 228.082,303.333 
		339.085,282.574 299.158,417.565 273.331,392.675 276.896,497.529 349.51,421.802 315.68,423.04 	"/>
</g>
</svg>
