<?xml version="1.0" encoding="utf-8"?>
<!-- Generator: Adobe Illustrator 15.0.0, SVG Export Plug-In . SVG Version: 6.00 Build 0)  -->
<!DOCTYPE svg PUBLIC "-//W3C//DTD SVG 1.1//EN" "http://www.w3.org/Graphics/SVG/1.1/DTD/svg11.dtd">
<svg version="1.1" xmlns="http://www.w3.org/2000/svg" xmlns:xlink="http://www.w3.org/1999/xlink" x="0px" y="0px" width="580px"
	 height="580px" viewBox="0 0 580 580" enable-background="new 0 0 580 580" xml:space="preserve">
<g id="Layer_1">
	<g id="Layer_2">
		<g id="g1327">
			<path id="path1329" fill="#111111" stroke="#EEEEEE" stroke-width="3.408" d="M66.275,1.768
				c-41.335,0-64.571,21.371-64.571,65.036v450.123c0,40.844,20.895,62.229,62.192,62.229h452.024
				c41.307,0,62.229-20.315,62.229-62.229V66.804c0-42.602-20.923-65.036-63.521-65.036C514.625,1.768,66.133,1.625,66.275,1.768z"
				/>
		</g>
	</g>
</g>
<g id="Layer_2_1_">
	<g>
		<path fill="#FFFFFF" d="M290,445.734c-136.965,0-247.998-34.854-248-77.852v56.116c0,36.347,111.034,65.813,248,65.813
			c136.967,0,248-29.466,248-65.813v-56.116C537.998,410.88,426.965,445.734,290,445.734z"/>
		<path fill="#FFFFFF" d="M413.533,294.343l-0.004,36.408c-0.032,0.417-3.708,41.827-41.634,55.843
			c-28.972,10.708-62.458,11.864-75.512,11.864c-3.614,0-5.868-0.085-6.384-0.106c-0.517,0.021-2.769,0.106-6.383,0.106
			c0,0,0,0-0.001,0c-13.054,0-46.541-1.157-75.512-11.864c-37.926-14.016-41.601-55.426-41.632-55.843l-0.008-0.188v-36.219
			C92.081,307.784,42,332.987,42,361.862v0.002c0.002,42.996,111.035,77.852,248,77.852c136.965,0,247.998-34.855,248-77.852v-0.002
			C538,332.987,487.918,307.783,413.533,294.343z"/>
		<path fill="#FFFFFF" d="M209.773,382.077c28.242,10.438,61.048,11.565,73.843,11.565c0.001,0,0.001,0,0.001,0
			c3.934,0,6.249-0.105,6.271-0.106l0.111-0.005l0.111,0.005c0.022,0.001,2.342,0.106,6.273,0.106
			c12.794,0,45.601-1.128,73.843-11.565c34.287-12.673,38.305-49.62,38.495-51.621v-36.958v-24.726
			c-36.063,5.192-76.604,7.953-118.722,7.953s-82.66-2.761-118.721-7.953v24.726v36.957
			C171.47,332.438,175.554,369.43,209.773,382.077z"/>
		<path fill="#FFFFFF" d="M523.734,184.058c-11.009,8.22-27.992,15.69-49.579,22.038C428.767,219.442,363.078,227.832,290,227.832
			s-138.768-8.39-184.155-21.736c-21.586-6.348-38.57-13.818-49.579-22.038C47.039,177.166,42,169.749,42,162.019v44.077
			c0,24.41,50.081,45.717,124.463,57.079c0.797,0.121,1.604,0.239,2.408,0.358c0.802,0.119,1.6,0.24,2.408,0.356
			c35.261,5.113,75.71,8.019,118.721,8.019s83.461-2.906,118.722-8.019c0.808-0.116,1.605-0.237,2.407-0.356
			c0.802-0.12,1.61-0.237,2.406-0.358C487.919,251.813,538,230.506,538,206.096v-44.077
			C538,169.749,532.961,177.166,523.734,184.058z"/>
		<path fill="#FFFFFF" d="M45,166.239c2.4,4.068,6.196,8.015,11.265,11.8c0.407,0.304,0.84,0.605,1.263,0.907
			c0.522,0.417,1.058,0.836,1.618,1.253c10.328,7.712,26.945,15.068,48.057,21.277c46.555,13.688,113.181,21.54,182.797,21.54
			s136.243-7.852,182.796-21.54c21.112-6.209,37.729-13.565,48.057-21.276c0.56-0.418,1.098-0.837,1.619-1.255
			c0.423-0.301,0.856-0.602,1.263-0.906c5.069-3.786,8.866-7.732,11.266-11.8c0.821-1.392,1.478-2.799,1.964-4.22
			c0.68-1.982,1.036-3.989,1.036-6.019c0-35.929-108.493-65.127-243.279-65.796c68.223,0.499,122.893,13.954,122.893,30.481
			c0,4.819-4.655,9.376-12.93,13.429c-11.66,5.708-30.517,10.412-53.731,13.426c-17.898,2.323-38.382,3.644-60.149,3.644
			c-21.766,0-42.251-1.32-60.149-3.644c-23.213-3.014-42.07-7.718-53.73-13.426c-8.274-4.053-12.929-8.61-12.929-13.429
			c0-16.809,56.547-30.441,126.388-30.496c-0.127,0-0.254-0.001-0.382-0.001c-136.966,0-248,29.464-248,65.812
			c0,2.03,0.356,4.037,1.036,6.019C43.522,163.439,44.179,164.846,45,166.239z M163.994,126.704c0,4.819,4.655,9.376,12.929,13.428
			c11.66,5.708,30.517,10.412,53.73,13.426c17.898,2.323,38.383,3.644,60.149,3.644c21.768,0,42.251-1.32,60.149-3.644
			c23.215-3.014,42.071-7.718,53.731-13.426c8.274-4.052,12.93-8.609,12.93-13.428v26.854c0,16.845-56.774,30.499-126.811,30.499
			c-70.034,0-126.809-13.654-126.809-30.499V126.704z"/>
		<ellipse fill="#FFFFFF" cx="290.803" cy="120.685" rx="62.247" ry="14.971"/>
	</g>
</g>
</svg>
