<?xml version="1.0" encoding="utf-8"?>
<!-- Generator: Adobe Illustrator 15.0.0, SVG Export Plug-In . SVG Version: 6.00 Build 0)  -->
<!DOCTYPE svg PUBLIC "-//W3C//DTD SVG 1.1//EN" "http://www.w3.org/Graphics/SVG/1.1/DTD/svg11.dtd">
<svg version="1.1" xmlns="http://www.w3.org/2000/svg" xmlns:xlink="http://www.w3.org/1999/xlink" x="0px" y="0px" width="580px"
	 height="580px" viewBox="0 0 580 580" enable-background="new 0 0 580 580" xml:space="preserve">
<g id="Layer_1">
	<g id="Layer_2">
		<g id="g1327">
			<path id="path1329" fill="#111111" stroke="#EEEEEE" stroke-width="3.408" d="M66.275,1.768
				c-41.335,0-64.571,21.371-64.571,65.036v450.123c0,40.844,20.895,62.229,62.192,62.229h452.024
				c41.307,0,62.229-20.315,62.229-62.229V66.804c0-42.602-20.923-65.036-63.521-65.036C514.625,1.768,66.133,1.625,66.275,1.768z"
				/>
		</g>
	</g>
</g>
<g id="Layer_2_1_">
	<g>
		<path fill="#FFFFFF" d="M218.576,352.583l62.931-62.583H76.561v203.814l65.566-65.203
			c36.496,37.444,195.413,177.016,361.311-35.571c0,0-3.153,1.96-8.861,4.956C362.635,483.816,249.057,383.777,218.576,352.583z"/>
		<path fill="#FFFFFF" d="M437.872,151.389C401.377,113.945,242.459-25.626,76.561,186.96c0,0,3.154-1.959,8.862-4.956
			c131.941-85.821,245.518,14.218,276,45.412l-62.931,62.583h204.946V86.185L437.872,151.389z"/>
	</g>
</g>
</svg>
