<?xml version="1.0" encoding="utf-8"?>
<!-- Generator: Adobe Illustrator 15.0.0, SVG Export Plug-In . SVG Version: 6.00 Build 0)  -->
<!DOCTYPE svg PUBLIC "-//W3C//DTD SVG 1.1//EN" "http://www.w3.org/Graphics/SVG/1.1/DTD/svg11.dtd">
<svg version="1.1" xmlns="http://www.w3.org/2000/svg" xmlns:xlink="http://www.w3.org/1999/xlink" x="0px" y="0px" width="580px"
	 height="580px" viewBox="0 0 580 580" enable-background="new 0 0 580 580" xml:space="preserve">
<g id="Layer_1">
	<g id="Layer_2">
		<g id="g1327">
			<path id="path1329" fill="#111111" stroke="#EEEEEE" stroke-width="3.408" d="M66.275,1.768
				c-41.335,0-64.571,21.371-64.571,65.036v450.123c0,40.844,20.895,62.229,62.192,62.229h452.024
				c41.307,0,62.229-20.315,62.229-62.229V66.804c0-42.602-20.923-65.036-63.521-65.036C514.625,1.768,66.133,1.625,66.275,1.768z"
				/>
		</g>
	</g>
</g>
<g id="Layer_2_1_">
	<g>
		<path fill="#FFFFFF" d="M57.868,449.901h32.29c6.392,0,11.158,0.267,14.299,0.799c3.141,0.533,5.951,1.645,8.431,3.334
			c2.479,1.689,4.546,3.939,6.199,6.75c1.653,2.81,2.48,5.96,2.48,9.45c0,3.783-1.02,7.255-3.059,10.414
			c-2.039,3.16-4.803,5.529-8.293,7.108c4.922,1.433,8.707,3.876,11.352,7.328c2.645,3.454,3.967,7.514,3.967,12.178
			c0,3.674-0.854,7.246-2.563,10.718c-1.708,3.472-4.042,6.245-6.998,8.32c-2.958,2.076-6.604,3.353-10.938,3.83
			c-2.719,0.294-9.276,0.478-19.672,0.551H57.868V449.901z M74.178,463.345v18.681h10.69c6.355,0,10.304-0.092,11.847-0.276
			c2.792-0.33,4.987-1.295,6.585-2.893c1.598-1.598,2.397-3.7,2.397-6.31c0-2.497-0.689-4.526-2.066-6.089
			c-1.377-1.561-3.426-2.507-6.144-2.837c-1.617-0.184-6.264-0.276-13.941-0.276H74.178z M74.178,495.47v21.601h15.098
			c5.877,0,9.606-0.165,11.186-0.496c2.424-0.44,4.399-1.516,5.923-3.224c1.524-1.708,2.287-3.995,2.287-6.86
			c0-2.424-0.588-4.481-1.764-6.171c-1.176-1.689-2.875-2.921-5.097-3.692c-2.223-0.771-7.044-1.157-14.464-1.157H74.178z"/>
		<path fill="#FFFFFF" d="M138.814,530.681v-80.78h16.311v80.78H138.814z"/>
		<path fill="#FFFFFF" d="M167.357,490.787c0-8.229,1.23-15.134,3.692-20.719c1.836-4.113,4.343-7.806,7.521-11.075
			c3.177-3.27,6.658-5.694,10.442-7.273c5.032-2.131,10.836-3.196,17.413-3.196c11.902,0,21.425,3.692,28.571,11.075
			c7.144,7.384,10.717,17.652,10.717,30.803c0,13.041-3.545,23.245-10.635,30.609c-7.09,7.366-16.568,11.049-28.433,11.049
			c-12.012,0-21.564-3.665-28.653-10.993C170.902,513.737,167.357,503.645,167.357,490.787z M184.163,490.236
			c0,9.146,2.112,16.081,6.337,20.801c4.224,4.721,9.588,7.081,16.09,7.081c6.502,0,11.838-2.342,16.007-7.025
			c4.169-4.684,6.254-11.71,6.254-21.077c0-9.257-2.03-16.163-6.089-20.719c-4.06-4.555-9.45-6.832-16.173-6.832
			s-12.142,2.306-16.255,6.915C186.22,473.99,184.163,480.942,184.163,490.236z"/>
		<path fill="#FFFFFF" d="M258.552,530.681v-80.78h55.379v13.665h-39.068v19.121h33.723v13.665h-33.723v34.329H258.552z"/>
		<path fill="#FFFFFF" d="M327.265,449.901h16.31v43.751c0,6.943,0.202,11.443,0.606,13.5c0.697,3.307,2.36,5.961,4.987,7.963
			c2.626,2.003,6.217,3.003,10.772,3.003c4.628,0,8.118-0.945,10.469-2.838c2.351-1.892,3.766-4.215,4.243-6.971
			c0.478-2.755,0.717-7.328,0.717-13.721v-44.688h16.311v42.429c0,9.698-0.441,16.55-1.323,20.554
			c-0.881,4.004-2.507,7.384-4.876,10.139c-2.37,2.755-5.538,4.95-9.506,6.585c-3.967,1.634-9.146,2.452-15.539,2.452
			c-7.714,0-13.564-0.892-17.55-2.673c-3.986-1.781-7.136-4.096-9.45-6.943c-2.314-2.846-3.839-5.831-4.573-8.954
			c-1.066-4.628-1.598-11.461-1.598-20.498V449.901z"/>
		<path fill="#FFFFFF" d="M408.872,530.681v-80.78h59.897v13.665h-43.587v17.908h40.556v13.61h-40.556v21.986h45.129v13.61H408.872z
			"/>
		<path fill="#FFFFFF" d="M484.584,530.681v-80.119h16.311v66.509h40.556v13.61H484.584z"/>
	</g>
	<path fill="#FFFFFF" d="M452.809,383.969c-81.099-125.26-50.932-313.42-50.932-313.42c0-7.681-50.093-13.906-111.881-13.906
		c-61.785,0-111.875,6.225-111.875,13.906c0,0,30.163,188.16-50.935,313.42c-0.618,0.49-0.954,0.988-0.954,1.492
		c0,7.68,73.322,13.904,163.764,13.904c90.444,0,163.77-6.225,163.77-13.904C453.766,384.957,453.43,384.459,452.809,383.969z"/>
</g>
</svg>
