<?xml version="1.0" encoding="utf-8"?>
<!-- Generator: Adobe Illustrator 15.0.0, SVG Export Plug-In . SVG Version: 6.00 Build 0)  -->
<!DOCTYPE svg PUBLIC "-//W3C//DTD SVG 1.1//EN" "http://www.w3.org/Graphics/SVG/1.1/DTD/svg11.dtd">
<svg version="1.1" xmlns="http://www.w3.org/2000/svg" xmlns:xlink="http://www.w3.org/1999/xlink" x="0px" y="0px" width="580px"
	 height="580px" viewBox="0 0 580 580" enable-background="new 0 0 580 580" xml:space="preserve">
<g id="Layer_1">
	<g id="Layer_2">
		<g id="g1327">
			<path id="path1329" fill="#111111" stroke="#EEEEEE" stroke-width="3.408" d="M66.275,1.768
				c-41.335,0-64.571,21.371-64.571,65.036v450.123c0,40.844,20.895,62.229,62.192,62.229h452.024
				c41.307,0,62.229-20.315,62.229-62.229V66.804c0-42.602-20.923-65.036-63.521-65.036C514.625,1.768,66.133,1.625,66.275,1.768z"
				/>
		</g>
	</g>
</g>
<g id="Layer_2_1_">
	<g>
		<path fill="#FFFFFF" d="M95.377,449.901h29.811c6.723,0,11.847,0.515,15.374,1.543c4.739,1.396,8.797,3.876,12.178,7.438
			c3.379,3.563,5.951,7.926,7.714,13.087s2.645,11.526,2.645,19.093c0,6.649-0.827,12.38-2.479,17.192
			c-2.021,5.878-4.904,10.635-8.651,14.271c-2.829,2.755-6.649,4.904-11.461,6.447c-3.601,1.139-8.413,1.708-14.437,1.708H95.377
			V449.901z M111.687,463.566v53.505h12.178c4.554,0,7.842-0.257,9.863-0.771c2.645-0.661,4.839-1.781,6.584-3.361
			c1.745-1.579,3.168-4.179,4.271-7.797s1.653-8.55,1.653-14.795s-0.551-11.039-1.653-14.382s-2.645-5.951-4.628-7.825
			c-1.984-1.873-4.5-3.141-7.549-3.802c-2.278-0.514-6.741-0.771-13.39-0.771H111.687z"/>
		<path fill="#FFFFFF" d="M176.433,530.681v-80.78h16.311v80.78H176.433z"/>
		<path fill="#FFFFFF" d="M208.282,530.681v-80.78h59.896v13.665h-43.586v17.908h40.556v13.61h-40.556v21.986h45.129v13.61H208.282z
			"/>
		<path fill="#FFFFFF" d="M279.42,504.397l15.87-1.543c0.954,5.327,2.893,9.239,5.813,11.737c2.92,2.498,6.859,3.747,11.819,3.747
			c5.253,0,9.211-1.111,11.874-3.334c2.663-2.222,3.995-4.821,3.995-7.797c0-1.91-0.561-3.535-1.681-4.877
			c-1.121-1.34-3.077-2.507-5.868-3.499c-1.91-0.661-6.264-1.836-13.06-3.526c-8.743-2.167-14.878-4.83-18.404-7.99
			c-4.959-4.444-7.439-9.863-7.439-16.255c0-4.114,1.166-7.963,3.499-11.544c2.333-3.582,5.694-6.31,10.084-8.183
			c4.389-1.874,9.688-2.811,15.896-2.811c10.139,0,17.771,2.223,22.896,6.667c5.124,4.445,7.815,10.379,8.072,17.799l-16.311,0.716
			c-0.698-4.15-2.195-7.136-4.49-8.954c-2.297-1.818-5.74-2.728-10.332-2.728c-4.739,0-8.449,0.974-11.131,2.921
			c-1.728,1.249-2.59,2.92-2.59,5.014c0,1.911,0.808,3.546,2.425,4.904c2.057,1.728,7.053,3.526,14.987,5.4
			c7.936,1.873,13.804,3.812,17.605,5.813c3.803,2.002,6.778,4.738,8.927,8.21c2.149,3.472,3.224,7.761,3.224,12.866
			c0,4.629-1.286,8.964-3.857,13.005s-6.208,7.044-10.91,9.009s-10.562,2.948-17.578,2.948c-10.213,0-18.055-2.36-23.529-7.081
			C283.754,520.313,280.485,513.434,279.42,504.397z"/>
		<path fill="#FFFFFF" d="M358.823,530.681v-80.78h59.896v13.665h-43.586v17.908h40.556v13.61h-40.556v21.986h45.129v13.61H358.823z
			"/>
		<path fill="#FFFFFF" d="M434.535,530.681v-80.119h16.31v66.509H491.4v13.61H434.535z"/>
	</g>
	<path fill="#FFFFFF" d="M452.809,383.969c-81.099-125.26-50.932-313.42-50.932-313.42c0-7.681-50.093-13.906-111.881-13.906
		c-61.785,0-111.875,6.225-111.875,13.906c0,0,30.163,188.16-50.935,313.42c-0.618,0.49-0.954,0.988-0.954,1.492
		c0,7.68,73.322,13.904,163.764,13.904c90.444,0,163.77-6.225,163.77-13.904C453.766,384.957,453.43,384.459,452.809,383.969z"/>
</g>
</svg>
