<?xml version="1.0" encoding="utf-8"?>
<!-- Generator: Adobe Illustrator 15.0.0, SVG Export Plug-In . SVG Version: 6.00 Build 0)  -->
<!DOCTYPE svg PUBLIC "-//W3C//DTD SVG 1.1//EN" "http://www.w3.org/Graphics/SVG/1.1/DTD/svg11.dtd">
<svg version="1.1" xmlns="http://www.w3.org/2000/svg" xmlns:xlink="http://www.w3.org/1999/xlink" x="0px" y="0px" width="580px"
	 height="580px" viewBox="0 0 580 580" enable-background="new 0 0 580 580" xml:space="preserve">
<g id="Layer_1">
	<g id="Layer_2">
		<g id="g1327">
			<path id="path1329" fill="#111111" stroke="#EEEEEE" stroke-width="3.408" d="M66.275,1.768
				c-41.335,0-64.571,21.371-64.571,65.036v450.123c0,40.844,20.895,62.229,62.192,62.229h452.024
				c41.307,0,62.229-20.315,62.229-62.229V66.804c0-42.602-20.923-65.036-63.521-65.036C514.625,1.768,66.133,1.625,66.275,1.768z"
				/>
		</g>
	</g>
</g>
<g id="Layer_2_1_">
	<g>
		<path fill="#FFFFFF" d="M201.891,490.787c0-8.229,1.23-15.134,3.692-20.719c1.836-4.113,4.343-7.806,7.521-11.075
			c3.177-3.27,6.658-5.694,10.442-7.273c5.032-2.131,10.836-3.196,17.413-3.196c11.902,0,21.425,3.692,28.571,11.075
			c7.144,7.384,10.717,17.652,10.717,30.803c0,13.041-3.545,23.245-10.635,30.609c-7.09,7.366-16.568,11.049-28.433,11.049
			c-12.012,0-21.564-3.665-28.653-10.993C205.435,513.737,201.891,503.645,201.891,490.787z M218.697,490.236
			c0,9.146,2.112,16.081,6.337,20.801c4.224,4.721,9.588,7.081,16.09,7.081c6.502,0,11.838-2.342,16.007-7.025
			c4.169-4.684,6.254-11.71,6.254-21.077c0-9.257-2.03-16.163-6.089-20.719c-4.06-4.555-9.45-6.832-16.173-6.832
			s-12.142,2.306-16.255,6.915C220.754,473.99,218.697,480.942,218.697,490.236z"/>
		<path fill="#FFFFFF" d="M292.48,530.681v-80.78h16.311v80.78H292.48z"/>
		<path fill="#FFFFFF" d="M324.77,530.681v-80.119h16.311v66.509h40.556v13.61H324.77z"/>
	</g>
	<path fill="#FFFFFF" d="M452.809,383.969c-81.099-125.26-50.932-313.42-50.932-313.42c0-7.681-50.093-13.906-111.881-13.906
		c-61.785,0-111.875,6.225-111.875,13.906c0,0,30.163,188.16-50.935,313.42c-0.618,0.49-0.954,0.988-0.954,1.492
		c0,7.68,73.322,13.904,163.764,13.904c90.444,0,163.77-6.225,163.77-13.904C453.766,384.957,453.43,384.459,452.809,383.969z"/>
</g>
</svg>
