<?xml version="1.0" encoding="utf-8"?>
<!-- Generator: Adobe Illustrator 15.0.0, SVG Export Plug-In . SVG Version: 6.00 Build 0)  -->
<!DOCTYPE svg PUBLIC "-//W3C//DTD SVG 1.1//EN" "http://www.w3.org/Graphics/SVG/1.1/DTD/svg11.dtd">
<svg version="1.1" xmlns="http://www.w3.org/2000/svg" xmlns:xlink="http://www.w3.org/1999/xlink" x="0px" y="0px" width="580px"
	 height="580px" viewBox="0 0 580 580" enable-background="new 0 0 580 580" xml:space="preserve">
<g id="Layer_1">
	<g id="Layer_2">
		<g id="g1327">
			<path id="path1329" fill="#111111" stroke="#EEEEEE" stroke-width="3.408" d="M66.275,1.768
				c-41.335,0-64.571,21.371-64.571,65.036v450.123c0,40.844,20.895,62.229,62.192,62.229h452.024
				c41.307,0,62.229-20.315,62.229-62.229V66.804c0-42.602-20.923-65.036-63.521-65.036C514.625,1.768,66.133,1.625,66.275,1.768z"
				/>
		</g>
	</g>
</g>
<g id="Layer_2_1_">
	<path fill="#FFFFFF" d="M421.966,69.093c-0.027-0.017-0.058-0.032-0.084-0.051L311.161,250.318
		c-7.063-4.262-15.352-6.694-24.205-6.641c-7.607,0.045-14.769,1.932-21.084,5.216L169.401,71.837
		c-29.426,18.845-55.143,44.481-74.581,76.306c-25.771,42.194-36.834,89.24-34.646,135.165l180.738,4.393
		c-0.044,0.876-0.07,1.756-0.065,2.644c0.1,16.552,8.862,31.017,21.957,39.147l-89.018,145.745c0.028,0.016,0.056,0.035,0.083,0.053
		c69.973,42.737,153.293,45.038,222.71,13.493l-86.33-158.444c14.047-8.045,23.479-23.212,23.376-40.553
		c-0.002-0.148-0.013-0.295-0.016-0.443l201.543,2.219C542.161,204.886,501.247,117.515,421.966,69.093z"/>
</g>
</svg>
