<?xml version="1.0" encoding="utf-8"?>
<!-- Generator: Adobe Illustrator 15.0.0, SVG Export Plug-In . SVG Version: 6.00 Build 0)  -->
<!DOCTYPE svg PUBLIC "-//W3C//DTD SVG 1.1//EN" "http://www.w3.org/Graphics/SVG/1.1/DTD/svg11.dtd">
<svg version="1.1" xmlns="http://www.w3.org/2000/svg" xmlns:xlink="http://www.w3.org/1999/xlink" x="0px" y="0px" width="580px"
	 height="580px" viewBox="0 0 580 580" enable-background="new 0 0 580 580" xml:space="preserve">
<g id="Layer_1">
	<g id="Layer_2">
		<g id="g1327">
			<path id="path1329" fill="#111111" stroke="#EEEEEE" stroke-width="3.408" d="M66.275,1.768
				c-41.335,0-64.571,21.371-64.571,65.036v450.123c0,40.844,20.895,62.229,62.192,62.229h452.024
				c41.307,0,62.229-20.315,62.229-62.229V66.804c0-42.602-20.923-65.036-63.521-65.036C514.625,1.768,66.133,1.625,66.275,1.768z"
				/>
		</g>
	</g>
</g>
<g id="Layer_2_1_">
	<g>
		<path fill="#FFFFFF" d="M171.374,130.856l-13.519,61.182L290,81.508l-171.73-13.625l47.087,42.644
			c-26.645,18.549-49.027,42.93-65.162,71.141C81.416,214.501,71.49,251.962,71.49,290c0,22.826,3.506,45.322,10.422,66.864
			l19.077-6.125c-6.279-19.56-9.463-39.995-9.463-60.739C91.527,226.502,121.072,168.246,171.374,130.856z"/>
		<path fill="#FFFFFF" d="M389.402,460.351c-19.614,10.992-41.054,18.529-63.078,22.213c-22.014,3.694-44.657,3.585-66.508-0.241
			c-14.268-2.493-28.205-6.612-41.493-12.201l52.903-16.742l-161.815-59.117l74.121,155.509l12.301-57.161
			c19.022,8.469,39.199,14.24,59.728,17.07c25.118,3.468,50.684,2.648,75.393-2.41c24.702-5.048,48.446-14.396,69.853-27.423
			c21.408-13,40.527-29.695,56.218-48.952l-15.268-12.975C426.794,434.995,409.033,449.364,389.402,460.351z"/>
		<path fill="#FFFFFF" d="M507.745,271.83c-3.778-45.177-21.672-88.508-51.098-123.17c-31.758-37.408-75.595-63.296-123.437-72.896
			l-3.941,19.645c83.912,16.837,147.82,87.416,157.827,171.37l-46.135-42.226l29.627,169.709l97.684-141.897L507.745,271.83z"/>
	</g>
</g>
</svg>
