<?xml version="1.0" encoding="utf-8"?>
<!-- Generator: Adobe Illustrator 15.0.0, SVG Export Plug-In . SVG Version: 6.00 Build 0)  -->
<!DOCTYPE svg PUBLIC "-//W3C//DTD SVG 1.1//EN" "http://www.w3.org/Graphics/SVG/1.1/DTD/svg11.dtd">
<svg version="1.1" xmlns="http://www.w3.org/2000/svg" xmlns:xlink="http://www.w3.org/1999/xlink" x="0px" y="0px" width="580px"
	 height="580px" viewBox="0 0 580 580" enable-background="new 0 0 580 580" xml:space="preserve">
<g id="Layer_1">
	<g id="Layer_2">
		<g id="g1327">
			<path id="path1329" fill="#111111" stroke="#EEEEEE" stroke-width="3.408" d="M66.275,1.768
				c-41.335,0-64.571,21.371-64.571,65.036v450.123c0,40.844,20.895,62.229,62.192,62.229h452.024
				c41.307,0,62.229-20.315,62.229-62.229V66.804c0-42.602-20.923-65.036-63.521-65.036C514.625,1.768,66.133,1.625,66.275,1.768z"
				/>
		</g>
	</g>
</g>
<g id="Layer_2_1_">
	<g>
		<path fill="#FFFFFF" d="M81.469,505.679v-11.458h29.595v27.09c-2.876,2.783-7.043,5.234-12.501,7.353
			c-5.458,2.117-10.987,3.178-16.583,3.178c-7.113,0-13.313-1.492-18.601-4.477s-9.262-7.252-11.921-12.803
			c-2.66-5.551-3.989-11.589-3.989-18.114c0-7.081,1.484-13.375,4.453-18.88c2.969-5.504,7.313-9.725,13.035-12.663
			c4.36-2.257,9.788-3.386,16.282-3.386c8.442,0,15.037,1.771,19.784,5.311c4.747,3.542,7.8,8.436,9.162,14.682l-13.638,2.551
			c-0.959-3.34-2.76-5.976-5.404-7.908c-2.645-1.933-5.946-2.899-9.904-2.899c-6,0-10.77,1.901-14.31,5.706
			c-3.542,3.803-5.312,9.447-5.312,16.931c0,8.071,1.793,14.125,5.381,18.16c3.587,4.036,8.287,6.054,14.102,6.054
			c2.876,0,5.759-0.563,8.651-1.693c2.891-1.128,5.373-2.497,7.445-4.105v-8.627H81.469z"/>
		<path fill="#FFFFFF" d="M184.765,530.681h-14.937l-5.938-15.447h-27.183l-5.613,15.447H116.53l26.487-68.003h14.519
			L184.765,530.681z M159.484,503.777l-9.37-25.234l-9.185,25.234H159.484z"/>
		<path fill="#FFFFFF" d="M188.284,508.554l13.359-1.299c0.804,4.484,2.436,7.778,4.894,9.881c2.459,2.104,5.775,3.154,9.95,3.154
			c4.422,0,7.754-0.935,9.996-2.807c2.242-1.87,3.363-4.059,3.363-6.563c0-1.607-0.472-2.976-1.415-4.105
			c-0.943-1.128-2.59-2.11-4.94-2.945c-1.608-0.557-5.273-1.546-10.994-2.969c-7.36-1.824-12.524-4.066-15.493-6.726
			c-4.175-3.742-6.262-8.304-6.262-13.685c0-3.463,0.981-6.703,2.946-9.718c1.963-3.016,4.793-5.312,8.488-6.889
			s8.156-2.365,13.383-2.365c8.535,0,14.96,1.871,19.273,5.612c4.314,3.742,6.579,8.736,6.796,14.983l-13.73,0.603
			c-0.588-3.494-1.848-6.007-3.78-7.538c-1.933-1.53-4.833-2.296-8.698-2.296c-3.989,0-7.113,0.819-9.37,2.458
			c-1.454,1.052-2.18,2.459-2.18,4.222c0,1.608,0.68,2.984,2.041,4.128c1.731,1.454,5.938,2.969,12.617,4.547
			c6.68,1.576,11.62,3.208,14.82,4.894c3.201,1.686,5.706,3.989,7.515,6.911c1.81,2.923,2.714,6.533,2.714,10.832
			c0,3.896-1.083,7.545-3.247,10.947c-2.165,3.401-5.227,5.93-9.185,7.584c-3.959,1.653-8.891,2.481-14.797,2.481
			c-8.598,0-15.2-1.986-19.807-5.961C191.932,521.954,189.18,516.162,188.284,508.554z"/>
		<path fill="#FFFFFF" d="M252.059,497.097c0-6.927,1.036-12.74,3.108-17.441c1.546-3.463,3.657-6.571,6.332-9.324
			c2.674-2.752,5.604-4.793,8.79-6.123c4.236-1.793,9.122-2.689,14.658-2.689c10.02,0,18.037,3.107,24.052,9.323
			s9.022,14.859,9.022,25.931c0,10.978-2.985,19.567-8.953,25.768c-5.969,6.2-13.947,9.301-23.936,9.301
			c-10.112,0-18.153-3.085-24.121-9.255C255.043,516.418,252.059,507.922,252.059,497.097z M266.207,496.634
			c0,7.7,1.778,13.538,5.334,17.511c3.556,3.975,8.071,5.961,13.545,5.961c5.474,0,9.965-1.972,13.475-5.914
			c3.51-3.943,5.266-9.857,5.266-17.743c0-7.793-1.709-13.606-5.126-17.441c-3.417-3.834-7.955-5.752-13.615-5.752
			c-5.659,0-10.221,1.941-13.684,5.821C267.938,482.958,266.207,488.81,266.207,496.634z"/>
		<path fill="#FFFFFF" d="M328.822,530.681v-67.446h13.73v55.989h34.141v11.457H328.822z"/>
		<path fill="#FFFFFF" d="M385.779,530.681v-68.003h13.73v68.003H385.779z"/>
		<path fill="#FFFFFF" d="M412.444,530.681v-68.003h13.359l27.832,45.413v-45.413h12.757v68.003h-13.777l-27.414-44.346v44.346
			H412.444z"/>
		<path fill="#FFFFFF" d="M480.626,530.681v-68.003h50.422v11.504h-36.691v15.075h34.141v11.458h-34.141v18.509h37.99v11.457
			H480.626z"/>
	</g>
	<path fill="#FFFFFF" d="M452.809,383.969c-81.099-125.26-50.932-313.42-50.932-313.42c0-7.681-50.093-13.906-111.881-13.906
		c-61.785,0-111.875,6.225-111.875,13.906c0,0,30.163,188.16-50.935,313.42c-0.618,0.49-0.954,0.988-0.954,1.492
		c0,7.68,73.322,13.904,163.764,13.904c90.444,0,163.77-6.225,163.77-13.904C453.766,384.957,453.43,384.459,452.809,383.969z"/>
</g>
</svg>
