<?xml version="1.0" encoding="utf-8"?>
<!-- Generator: Adobe Illustrator 15.0.0, SVG Export Plug-In . SVG Version: 6.00 Build 0)  -->
<!DOCTYPE svg PUBLIC "-//W3C//DTD SVG 1.1//EN" "http://www.w3.org/Graphics/SVG/1.1/DTD/svg11.dtd">
<svg version="1.1" xmlns="http://www.w3.org/2000/svg" xmlns:xlink="http://www.w3.org/1999/xlink" x="0px" y="0px" width="580px"
	 height="580px" viewBox="0 0 580 580" enable-background="new 0 0 580 580" xml:space="preserve">
<g id="Layer_1">
	<g id="Layer_2">
		<g id="g1327">
			<path id="path1329" fill="#111111" stroke="#EEEEEE" stroke-width="3.408" d="M66.275,1.768
				c-41.335,0-64.571,21.371-64.571,65.036v450.123c0,40.844,20.895,62.229,62.192,62.229h452.024
				c41.307,0,62.229-20.315,62.229-62.229V66.804c0-42.602-20.923-65.036-63.521-65.036C514.625,1.768,66.133,1.625,66.275,1.768z"
				/>
		</g>
	</g>
</g>
<g id="Layer_2_1_">
	<g>
		<path fill="#FFFFFF" d="M75.678,449.901h32.29c6.392,0,11.158,0.267,14.299,0.799c3.141,0.533,5.951,1.645,8.431,3.334
			c2.479,1.689,4.546,3.939,6.199,6.75c1.653,2.81,2.48,5.96,2.48,9.45c0,3.783-1.02,7.255-3.059,10.414
			c-2.039,3.16-4.803,5.529-8.293,7.108c4.922,1.433,8.707,3.876,11.352,7.328c2.645,3.454,3.967,7.514,3.967,12.178
			c0,3.674-0.854,7.246-2.563,10.718c-1.708,3.472-4.042,6.245-6.998,8.32c-2.958,2.076-6.604,3.353-10.938,3.83
			c-2.719,0.294-9.276,0.478-19.672,0.551H75.678V449.901z M91.988,463.345v18.681h10.69c6.355,0,10.304-0.092,11.847-0.276
			c2.792-0.33,4.987-1.295,6.585-2.893c1.598-1.598,2.397-3.7,2.397-6.31c0-2.497-0.689-4.526-2.066-6.089
			c-1.377-1.561-3.426-2.507-6.144-2.837c-1.617-0.184-6.264-0.276-13.941-0.276H91.988z M91.988,495.47v21.601h15.098
			c5.877,0,9.606-0.165,11.186-0.496c2.424-0.44,4.399-1.516,5.923-3.224c1.524-1.708,2.287-3.995,2.287-6.86
			c0-2.424-0.588-4.481-1.764-6.171c-1.176-1.689-2.875-2.921-5.097-3.692c-2.223-0.771-7.044-1.157-14.464-1.157H91.988z"/>
		<path fill="#FFFFFF" d="M156.624,530.681v-80.78h16.311v80.78H156.624z"/>
		<path fill="#FFFFFF" d="M185.167,490.787c0-8.229,1.23-15.134,3.692-20.719c1.836-4.113,4.343-7.806,7.521-11.075
			c3.177-3.27,6.658-5.694,10.442-7.273c5.032-2.131,10.836-3.196,17.413-3.196c11.902,0,21.425,3.692,28.571,11.075
			c7.144,7.384,10.717,17.652,10.717,30.803c0,13.041-3.545,23.245-10.635,30.609c-7.09,7.366-16.568,11.049-28.433,11.049
			c-12.012,0-21.564-3.665-28.653-10.993C188.712,513.737,185.167,503.645,185.167,490.787z M201.973,490.236
			c0,9.146,2.112,16.081,6.337,20.801c4.224,4.721,9.588,7.081,16.09,7.081c6.502,0,11.838-2.342,16.007-7.025
			c4.169-4.684,6.254-11.71,6.254-21.077c0-9.257-2.03-16.163-6.089-20.719c-4.06-4.555-9.45-6.832-16.173-6.832
			s-12.142,2.306-16.255,6.915C204.031,473.99,201.973,480.942,201.973,490.236z"/>
		<path fill="#FFFFFF" d="M313.832,500.981v-13.61h35.155v32.18c-3.416,3.307-8.366,6.218-14.85,8.734
			c-6.484,2.516-13.051,3.774-19.699,3.774c-8.45,0-15.814-1.772-22.097-5.317c-6.282-3.545-11.002-8.614-14.162-15.209
			c-3.16-6.593-4.739-13.766-4.739-21.518c0-8.411,1.764-15.888,5.29-22.427c3.526-6.538,8.688-11.553,15.484-15.043
			c5.18-2.681,11.626-4.022,19.341-4.022c10.028,0,17.862,2.104,23.501,6.31s9.267,10.02,10.883,17.439l-16.2,3.031
			c-1.139-3.968-3.278-7.099-6.419-9.396c-3.141-2.295-7.063-3.443-11.765-3.443c-7.127,0-12.793,2.259-16.999,6.777
			c-4.207,4.519-6.31,11.223-6.31,20.112c0,9.588,2.13,16.779,6.392,21.573s9.845,7.19,16.752,7.19c3.416,0,6.841-0.67,10.276-2.011
			c3.435-1.341,6.383-2.967,8.844-4.877v-10.249H313.832z"/>
		<path fill="#FFFFFF" d="M436.877,530.681h-17.743l-7.054-18.35h-32.29l-6.667,18.35H355.82l31.464-80.78h17.247L436.877,530.681z
			 M406.845,498.721l-11.131-29.976l-10.91,29.976H406.845z"/>
		<path fill="#FFFFFF" d="M441.395,504.397l15.869-1.543c0.955,5.327,2.893,9.239,5.813,11.737s6.86,3.747,11.819,3.747
			c5.253,0,9.211-1.111,11.875-3.334c2.663-2.222,3.995-4.821,3.995-7.797c0-1.91-0.561-3.535-1.681-4.877
			c-1.121-1.34-3.077-2.507-5.869-3.499c-1.91-0.661-6.264-1.836-13.059-3.526c-8.743-2.167-14.878-4.83-18.404-7.99
			c-4.96-4.444-7.439-9.863-7.439-16.255c0-4.114,1.166-7.963,3.499-11.544c2.333-3.582,5.694-6.31,10.084-8.183
			c4.39-1.874,9.688-2.811,15.897-2.811c10.139,0,17.771,2.223,22.895,6.667c5.125,4.445,7.815,10.379,8.073,17.799l-16.311,0.716
			c-0.698-4.15-2.195-7.136-4.491-8.954s-5.74-2.728-10.332-2.728c-4.738,0-8.449,0.974-11.13,2.921
			c-1.728,1.249-2.59,2.92-2.59,5.014c0,1.911,0.808,3.546,2.424,4.904c2.058,1.728,7.054,3.526,14.988,5.4
			c7.935,1.873,13.803,3.812,17.605,5.813c3.802,2.002,6.777,4.738,8.927,8.21c2.148,3.472,3.224,7.761,3.224,12.866
			c0,4.629-1.287,8.964-3.857,13.005c-2.572,4.041-6.209,7.044-10.91,9.009c-4.703,1.965-10.563,2.948-17.578,2.948
			c-10.213,0-18.056-2.36-23.529-7.081C445.729,520.313,442.46,513.434,441.395,504.397z"/>
	</g>
	<path fill="#FFFFFF" d="M452.809,383.969c-81.099-125.26-50.932-313.42-50.932-313.42c0-7.681-50.093-13.906-111.881-13.906
		c-61.785,0-111.875,6.225-111.875,13.906c0,0,30.163,188.16-50.935,313.42c-0.618,0.49-0.954,0.988-0.954,1.492
		c0,7.68,73.322,13.904,163.764,13.904c90.444,0,163.77-6.225,163.77-13.904C453.766,384.957,453.43,384.459,452.809,383.969z"/>
</g>
</svg>
