<?xml version="1.0" encoding="utf-8"?>
<!-- Generator: Adobe Illustrator 15.0.0, SVG Export Plug-In . SVG Version: 6.00 Build 0)  -->
<!DOCTYPE svg PUBLIC "-//W3C//DTD SVG 1.1//EN" "http://www.w3.org/Graphics/SVG/1.1/DTD/svg11.dtd">
<svg version="1.1" xmlns="http://www.w3.org/2000/svg" xmlns:xlink="http://www.w3.org/1999/xlink" x="0px" y="0px" width="580px"
	 height="580px" viewBox="0 0 580 580" enable-background="new 0 0 580 580" xml:space="preserve">
<g id="Layer_1">
	<g id="Layer_2">
		<g id="g1327">
			<path id="path1329" fill="#111111" stroke="#EEEEEE" stroke-width="3.408" d="M66.275,1.768
				c-41.335,0-64.571,21.371-64.571,65.036v450.123c0,40.844,20.895,62.229,62.192,62.229h452.024
				c41.307,0,62.229-20.315,62.229-62.229V66.804c0-42.602-20.923-65.036-63.521-65.036C514.625,1.768,66.133,1.625,66.275,1.768z"
				/>
		</g>
	</g>
</g>
<g id="Layer_2_1_">
	<g>
		<g>
			<path fill="#FFFFFF" d="M530.052,382.275c-7.151-3.737-14.971-9.267-26.733-8.729c-16.231,0.561-39.151,15.099-61.303,15.099
				c-22.46-0.479-47.688-15.74-70.608-15.74c-22.844,0.162-43.609,15.985-65.531,16.464c-22.304,0.081-44.533-14.777-66.375-15.1
				c-22.152-0.563-43.148,13.174-63.84,13.013c-20.382-0.4-38.458-15.021-58.687-14.377c-20.767,0.801-43.534,16.865-63.839,17.832
				c-1.069,0.017-2.131-0.019-3.189-0.083v42.571c1.058,0.064,2.12,0.1,3.189,0.083c20.305-0.969,43.072-17.031,63.839-17.835
				c20.229-0.643,38.303,13.978,58.687,14.378c20.692,0.161,41.688-13.574,63.84-13.012c21.842,0.323,44.071,15.182,66.375,15.1
				c21.922-0.479,42.688-16.308,65.531-16.466c22.92,0,48.148,15.263,70.608,15.743c22.151,0,45.074-14.539,61.303-15.101
				c11.763-0.418,19.582,5.049,26.733,8.784v3.091V382.275z"/>
			<path fill="#FFFFFF" d="M530.052,306.072c-7.151-3.737-14.971-9.267-26.733-8.729c-16.231,0.561-39.151,15.099-61.303,15.099
				c-22.46-0.479-47.688-15.74-70.608-15.74c-22.844,0.162-43.609,15.985-65.531,16.464c-22.304,0.081-44.533-14.777-66.375-15.1
				c-22.152-0.563-43.148,13.174-63.84,13.013c-20.382-0.4-38.458-15.021-58.687-14.377c-20.767,0.801-43.534,16.865-63.839,17.832
				c-1.069,0.017-2.131-0.019-3.189-0.083v42.571c1.058,0.064,2.12,0.1,3.189,0.083c20.305-0.969,43.072-17.031,63.839-17.835
				c20.229-0.643,38.303,13.978,58.687,14.378c20.692,0.161,41.688-13.574,63.84-13.012c21.842,0.323,44.071,15.182,66.375,15.1
				c21.922-0.479,42.688-16.308,65.531-16.466c22.92,0,48.148,15.263,70.608,15.743c22.151,0,45.074-14.539,61.303-15.101
				c11.763-0.418,19.582,5.049,26.733,8.784v3.091V306.072z"/>
		</g>
		<g>
			<path fill="#FFFFFF" d="M530.052,232.282c-7.151-3.737-14.971-9.267-26.733-8.729c-16.231,0.561-39.151,15.099-61.303,15.099
				c-22.46-0.479-47.688-15.74-70.608-15.74c-22.844,0.162-43.609,15.985-65.531,16.464c-22.304,0.081-44.533-14.777-66.375-15.1
				c-22.152-0.563-43.148,13.174-63.84,13.013c-20.382-0.4-38.458-15.021-58.687-14.377c-20.767,0.801-43.534,16.865-63.839,17.832
				c-1.069,0.017-2.131-0.019-3.189-0.083v42.571c1.058,0.064,2.12,0.1,3.189,0.083c20.305-0.969,43.072-17.031,63.839-17.835
				c20.229-0.643,38.303,13.978,58.687,14.378c20.692,0.161,41.688-13.574,63.84-13.012c21.842,0.323,44.071,15.182,66.375,15.1
				c21.922-0.479,42.688-16.308,65.531-16.466c22.92,0,48.148,15.263,70.608,15.743c22.151,0,45.074-14.539,61.303-15.101
				c11.763-0.418,19.582,5.049,26.733,8.784v3.091V232.282z"/>
			<path fill="#FFFFFF" d="M530.052,156.079c-7.151-3.737-14.971-9.267-26.733-8.729c-16.231,0.561-39.151,15.099-61.303,15.099
				c-22.46-0.479-47.688-15.74-70.608-15.74c-22.844,0.162-43.609,15.985-65.531,16.464c-22.304,0.081-44.533-14.777-66.375-15.1
				c-22.152-0.563-43.148,13.174-63.84,13.013c-20.382-0.4-38.458-15.021-58.687-14.377c-20.767,0.801-43.534,16.865-63.839,17.832
				c-1.069,0.017-2.131-0.019-3.189-0.083v42.571c1.058,0.064,2.12,0.1,3.189,0.083c20.305-0.969,43.072-17.031,63.839-17.835
				c20.229-0.643,38.303,13.978,58.687,14.378c20.692,0.161,41.688-13.574,63.84-13.012c21.842,0.323,44.071,15.182,66.375,15.1
				c21.922-0.479,42.688-16.308,65.531-16.466c22.92,0,48.148,15.263,70.608,15.743c22.151,0,45.074-14.539,61.303-15.101
				c11.763-0.418,19.582,5.049,26.733,8.784v3.091V156.079z"/>
		</g>
	</g>
</g>
</svg>
