<?xml version="1.0" encoding="utf-8"?>
<!-- Generator: Adobe Illustrator 15.0.0, SVG Export Plug-In . SVG Version: 6.00 Build 0)  -->
<!DOCTYPE svg PUBLIC "-//W3C//DTD SVG 1.1//EN" "http://www.w3.org/Graphics/SVG/1.1/DTD/svg11.dtd">
<svg version="1.1" xmlns="http://www.w3.org/2000/svg" xmlns:xlink="http://www.w3.org/1999/xlink" x="0px" y="0px" width="580px"
	 height="580px" viewBox="0 0 580 580" enable-background="new 0 0 580 580" xml:space="preserve">
<g id="Layer_2_1_">
	<g id="Layer_2">
		<g id="g1327">
			<path id="path1329" fill="#111111" stroke="#EEEEEE" stroke-width="3.408" d="M66.275,1.768
				c-41.335,0-64.571,21.371-64.571,65.036v450.123c0,40.844,20.895,62.229,62.192,62.229h452.024
				c41.307,0,62.229-20.315,62.229-62.229V66.804c0-42.602-20.923-65.036-63.521-65.036C514.625,1.768,66.133,1.625,66.275,1.768z"
				/>
		</g>
	</g>
</g>
<g id="Layer_1">
	<g id="g3183" transform="translate(2,-6)">
		<g id="path4742">
			<path fill="#FFFFFF" d="M399.043,448.829c-25.036,0-45.404-20.369-45.404-45.405c0-14.461,6.795-27.364,17.359-35.685
				c-10.564-8.321-17.359-21.225-17.359-35.686c0-14.676,6.997-27.748,17.833-36.054c-10.836-8.306-17.833-21.377-17.833-36.053
				c0-14.46,6.795-27.364,17.359-35.685c-10.564-8.321-17.359-21.225-17.359-35.685c0-25.037,20.368-45.406,45.404-45.406
				c0.402,0,40.259,0.001,40.713,0.012c5.521,0.13,9.892,4.712,9.761,10.233c-0.128,5.44-4.579,9.764-9.992,9.764
				c-0.033,0-0.065,0-0.098,0c-1.421-0.005-38.475-0.008-40.384-0.008c-14.008,0-25.404,11.397-25.404,25.406
				c0,14.008,11.396,25.405,25.404,25.405c0.183,0,0.365-0.002,0.547-0.006c0.067-0.001,0.135-0.002,0.201-0.002
				c5.432,0,9.887,4.348,9.994,9.803c0.003,0.163,0.003,0.324-0.002,0.484c0.005,0.161,0.005,0.322,0.002,0.484
				c-0.107,5.455-4.563,9.803-9.994,9.803c-0.066,0-0.134,0-0.201-0.002c-0.182-0.003-0.364-0.006-0.547-0.006
				c-14.008,0-25.404,11.397-25.404,25.405s11.396,25.405,25.404,25.405c0.183,0,0.365-0.002,0.547-0.006
				c0.067-0.001,0.135-0.002,0.201-0.002c5.432,0,9.887,4.348,9.994,9.803c0.006,0.287-0.001,0.571-0.019,0.852
				c0.018,0.281,0.024,0.565,0.019,0.853c-0.107,5.454-4.563,9.803-9.994,9.803c-0.066,0-0.134-0.001-0.201-0.002
				c-0.182-0.004-0.364-0.006-0.547-0.006c-14.008,0-25.404,11.397-25.404,25.406s11.396,25.405,25.404,25.405
				c0.183,0,0.365-0.002,0.547-0.006c0.067-0.001,0.135-0.002,0.201-0.002c5.432,0,9.887,4.349,9.994,9.803
				c0.003,0.163,0.003,0.324-0.002,0.485c0.005,0.16,0.005,0.321,0.002,0.484c-0.107,5.454-4.563,9.803-9.994,9.803
				c-0.066,0-0.134-0.001-0.201-0.002c-0.182-0.004-0.364-0.006-0.547-0.006c-14.008,0-25.404,11.396-25.404,25.405
				s11.396,25.405,25.404,25.405c0.386,0,39.075-0.003,40.396-0.008c0.028,0,0.056,0,0.084,0c5.432,0,9.887,4.348,9.994,9.803
				c0.108,5.522-4.279,10.087-9.801,10.195C439.297,448.827,399.444,448.829,399.043,448.829z"/>
		</g>
		<g id="path4749">
			<path fill="#FFFFFF" d="M176.956,448.829c-0.402,0-40.255-0.002-40.673-0.01c-5.521-0.109-9.909-4.674-9.8-10.195
				c0.108-5.455,4.563-9.803,9.994-9.803c0.029,0,0.059,0,0.088,0c1.393,0.005,40.006,0.008,40.392,0.008
				c14.008,0,25.405-11.396,25.405-25.405s-11.397-25.405-25.405-25.405c-0.182,0-0.364,0.002-0.545,0.006
				c-5.528,0.073-10.086-4.278-10.196-9.801c-0.003-0.162-0.002-0.324,0.002-0.484c-0.004-0.161-0.005-0.323-0.002-0.485
				c0.109-5.522,4.666-9.884,10.196-9.801c0.181,0.004,0.363,0.006,0.545,0.006c14.008,0,25.405-11.396,25.405-25.405
				s-11.397-25.406-25.405-25.406c-0.182,0-0.364,0.002-0.545,0.006c-5.528,0.09-10.086-4.278-10.196-9.801
				c-0.006-0.287,0.001-0.571,0.019-0.853c-0.018-0.281-0.025-0.566-0.019-0.853c0.109-5.521,4.666-9.927,10.196-9.8
				c0.181,0.003,0.363,0.006,0.545,0.006c14.008,0,25.405-11.397,25.405-25.405s-11.397-25.405-25.405-25.405
				c-0.182,0-0.364,0.002-0.545,0.006c-5.528,0.119-10.086-4.278-10.196-9.8c-0.003-0.163-0.002-0.325,0.002-0.485
				c-0.004-0.161-0.005-0.323-0.002-0.485c0.109-5.522,4.714-9.907,10.196-9.8c0.181,0.003,0.363,0.006,0.545,0.006
				c14.008,0,25.405-11.397,25.405-25.405c0-14.009-11.397-25.406-25.405-25.406c-1.911,0-39.039,0.003-40.387,0.008
				c-0.031,0-0.063,0-0.093,0c-5.413,0-9.864-4.322-9.993-9.763c-0.131-5.521,4.239-10.104,9.76-10.234
				c0.453-0.011,40.311-0.012,40.713-0.012c25.037,0,45.405,20.369,45.405,45.406c0,14.46-6.795,27.364-17.36,35.685
				c10.565,8.321,17.36,21.225,17.36,35.685c0,14.676-6.998,27.747-17.833,36.053c10.835,8.306,17.833,21.378,17.833,36.054
				c0,14.461-6.795,27.364-17.36,35.686c10.565,8.32,17.36,21.224,17.36,35.685C222.362,428.46,201.993,448.829,176.956,448.829z"/>
		</g>
		<g id="path4755">
			<path fill="#FFFFFF" d="M316.484,447.476c-5.522,0-10-4.478-10-10v-280.95c0-5.523,4.478-10,10-10s10,4.477,10,10v280.95
				C326.484,442.999,322.007,447.476,316.484,447.476z"/>
		</g>
		<g id="path4759">
			<path fill="#FFFFFF" d="M262.411,447.476c-5.523,0-10-4.478-10-10v-280.95c0-5.523,4.477-10,10-10s10,4.477,10,10v280.95
				C272.411,442.999,267.934,447.476,262.411,447.476z"/>
		</g>
	</g>
</g>
</svg>
