<?xml version="1.0" encoding="UTF-8" standalone="no"?>
<!-- Generator: Adobe Illustrator 15.0.0, SVG Export Plug-In . SVG Version: 6.00 Build 0)  -->

<svg
   xmlns:dc="http://purl.org/dc/elements/1.1/"
   xmlns:cc="http://creativecommons.org/ns#"
   xmlns:rdf="http://www.w3.org/1999/02/22-rdf-syntax-ns#"
   xmlns:svg="http://www.w3.org/2000/svg"
   xmlns="http://www.w3.org/2000/svg"
   xmlns:sodipodi="http://sodipodi.sourceforge.net/DTD/sodipodi-0.dtd"
   xmlns:inkscape="http://www.inkscape.org/namespaces/inkscape"
   version="1.1"
   x="0px"
   y="0px"
   width="580px"
   height="580px"
   viewBox="0 0 580 580"
   enable-background="new 0 0 580 580"
   xml:space="preserve"
   id="svg4538"
   sodipodi:docname="arch.svg"
   inkscape:version="0.92.3 (2405546, 2018-03-11)"><metadata
   id="metadata4544"><rdf:RDF><cc:Work
       rdf:about=""><dc:format>image/svg+xml</dc:format><dc:type
         rdf:resource="http://purl.org/dc/dcmitype/StillImage" /><dc:title></dc:title></cc:Work></rdf:RDF></metadata><defs
   id="defs4542" /><sodipodi:namedview
   pagecolor="#ffffff"
   bordercolor="#666666"
   borderopacity="1"
   objecttolerance="10"
   gridtolerance="10"
   guidetolerance="10"
   inkscape:pageopacity="0"
   inkscape:pageshadow="2"
   inkscape:window-width="1561"
   inkscape:window-height="892"
   id="namedview4540"
   showgrid="false"
   inkscape:zoom="0.96"
   inkscape:cx="290"
   inkscape:cy="290"
   inkscape:window-x="297"
   inkscape:window-y="71"
   inkscape:window-maximized="0"
   inkscape:current-layer="svg4538" />
<g
   id="Layer_2">
	<g
   id="g1327">
		<path
   id="path1329"
   d="M 66.275,1.768 C 24.94,1.768 1.704,23.139 1.704,66.804 v 450.123 c 0,40.844 20.894,62.229 62.192,62.229 H 515.92 c 41.307,0 62.229,-20.316 62.229,-62.229 V 66.804 c 0,-42.601 -20.923,-65.036 -63.522,-65.036 -0.003,0 -448.494,-0.143 -448.352,0 z"
   inkscape:connector-curvature="0"
   style="fill:#111111;stroke:#eeeeee;stroke-width:3.40799999" />
	</g>
</g>

<path
   inkscape:connector-curvature="0"
   style="vector-effect:non-scaling-stroke;fill:#ffffff;fill-opacity:1;stroke:none;stroke-width:0.0491903"
   d="m 233.63402,117.45751 c -5.70607,0.0984 -25.62814,0.73786 -39.96713,1.30355 -20.85668,0.81163 -32.26883,1.22976 -39.37684,1.45111 -6.61609,0.19676 -6.83746,0.22136 -8.26396,0.88543 -0.81165,0.34434 -1.94302,1.10679 -2.48411,1.67247 -0.54111,0.59029 -3.41873,5.1404 -6.59149,10.50213 l -5.58311,9.46914 -1.82005,5.04201 c -1.00841,2.77925 -2.60708,7.18178 -3.5417,9.81346 -0.93462,2.60708 -1.86924,4.99281 -2.06599,5.26336 -0.19677,0.29515 -0.36893,0.71326 -0.36893,0.93462 0,0.24595 -1.0576,2.55788 -2.36113,5.18958 -1.30354,2.60707 -4.72228,9.5675 -7.59991,15.44575 -2.87763,5.87825 -7.25557,14.78169 -9.71508,19.79911 -7.722893,15.6671 -7.181793,14.46195 -7.304763,16.84768 -0.0492,1.15597 0.44271,15.64251 1.10677,32.21965 0.81165,19.99586 1.15598,30.57178 1.03301,31.4326 -0.14758,0.81164 -2.92683,7.62451 -7.23098,17.73312 -3.861438,9.051 -7.132599,16.92144 -7.280171,17.51174 -0.172159,0.76244 -0.24595,14.24058 -0.196745,45.50103 l 0.07382,44.41886 -3.197359,1.62327 c -13.207616,6.68988 -23.562166,16.60175 -26.169242,25.06246 -0.270549,0.91003 -0.565698,2.45952 -0.639487,3.44333 -0.147559,1.64787 0.172177,8.43613 0.516499,11.43675 0.147574,1.10678 0.09834,1.30354 -0.22135,1.30354 -0.442708,0 -0.418122,0.34433 0.245949,3.07439 0.491898,2.1152 1.032996,3.73848 1.72167,5.33717 l 0.639472,1.4265 H 290.91619 c 128.65727,0 234.17046,-0.0738 234.4902,-0.14758 0.49191,-0.14756 0.54109,-0.29513 0.54109,-1.82004 0,-3.86143 -2.01678,-7.89504 -6.00121,-12.00242 -3.88604,-4.00902 -8.87886,-7.30475 -15.59335,-10.28079 -11.11699,-4.91901 -25.11163,-9.02641 -42.15608,-12.32217 l -6.09958,-1.18057 v -0.98379 c 0,-0.5411 -0.12301,-1.42653 -0.27055,-1.96762 -0.14757,-0.54109 -3.32036,-7.96884 -7.03421,-16.47875 -3.7139,-8.53453 -8.28858,-18.98746 -10.15781,-23.24243 l -3.36955,-7.74747 -9.05101,-31.60477 c -4.96822,-17.38878 -9.41993,-32.58858 -9.86265,-33.76915 -1.91842,-5.04201 -4.30415,-9.10021 -9.91184,-16.89687 -7.32937,-10.18239 -16.99526,-24.66895 -31.9983,-47.96056 l -15.12602,-23.48837 -5.77986,-5.87823 c -3.17278,-3.22197 -6.59151,-6.56691 -7.57531,-7.40315 -1.69707,-1.4511 -2.0414,-1.64787 -6.02582,-3.07439 -5.11579,-1.82004 -5.90284,-2.26274 -7.6245,-4.25496 -19.65152,-22.43079 -26.66114,-30.81773 -33.84294,-40.38524 -6.66527,-8.87886 -10.64969,-15.05224 -13.33055,-20.65994 -1.96761,-4.13199 -2.43492,-5.80446 -2.68089,-9.54292 -0.17216,-2.65628 -0.29514,-3.34494 -0.83622,-4.47631 -1.5987,-3.22197 -5.68149,-5.58311 -12.24839,-7.05882 -2.16436,-0.49189 -3.02521,-0.5165 -17.04444,-0.56568 -8.1164,-0.0246 -16.52795,0 -18.69233,0.0492 z m -14.28978,76.07282 c 2.26276,0.56569 4.42713,1.67248 5.97662,3.0252 0.61488,0.56569 3.81226,4.18118 7.08341,8.04262 3.29575,3.88603 6.61609,7.62449 7.40312,8.33775 1.13141,1.00842 2.5825,1.84465 6.49313,3.76306 2.77926,1.35273 5.53391,2.68088 6.1242,2.97601 1.84462,0.91003 3.78765,2.95143 10.1824,10.7481 3.39412,4.13198 8.48532,10.32996 11.33836,13.77327 5.5585,6.76367 6.49313,8.26397 7.13259,11.43674 0.34432,1.64789 0.46733,4.15659 1.15597,24.4722 0.22136,6.78825 0.44271,9.34615 1.72168,20.53696 0.81164,7.03418 1.62328,13.33056 1.79544,14.01923 0.19677,0.66406 1.77085,4.77146 3.51711,9.10019 1.77085,4.32876 4.10739,10.30538 5.23877,13.28139 2.01681,5.31255 2.04139,5.46012 2.13978,7.99345 0.0984,2.18894 -2.48412,56.27368 -2.68089,56.44588 -0.0492,0.0492 -2.60709,-0.19678 -5.73066,-0.51651 -19.11043,-1.96762 -41.19689,-3.68927 -59.64326,-4.64849 -13.01083,-0.66407 -21.54535,-0.95921 -35.04808,-1.25434 -4.64849,-0.0984 -7.94425,-0.27056 -8.01803,-0.39354 -0.0984,-0.14758 -0.27054,-1.30353 -0.44271,-2.60708 -0.24594,-2.18898 -1.0576,-8.60832 -3.34494,-26.61196 -0.4919,-3.71387 -1.08219,-8.43613 -1.35273,-10.45294 -0.27055,-2.04141 -0.86083,-6.83746 -1.35274,-10.69889 -1.00839,-8.141 -1.22976,-9.27237 -1.96762,-10.94486 -0.29513,-0.66407 -2.58248,-4.45172 -5.09119,-8.36234 -13.67491,-21.47158 -22.23402,-36.08109 -23.34081,-39.81956 -0.27053,-0.93461 0.29516,-3.19736 2.41033,-9.49372 4.5255,-13.60112 19.99588,-55.73263 21.47157,-58.51188 0.86083,-1.59867 11.04322,-13.57651 13.06003,-15.34737 2.60709,-2.31194 4.13198,-2.85304 16.33119,-5.80445 6.0996,-1.47573 11.33835,-2.73006 11.68269,-2.80385 1.50031,-0.27055 3.98442,-0.14758 5.75527,0.31973 z"
   id="path4556" /></svg>