<?xml version="1.0" encoding="UTF-8" standalone="no"?>
<!-- Generator: Adobe Illustrator 15.0.0, SVG Export Plug-In . SVG Version: 6.00 Build 0)  -->

<svg
   xmlns:dc="http://purl.org/dc/elements/1.1/"
   xmlns:cc="http://creativecommons.org/ns#"
   xmlns:rdf="http://www.w3.org/1999/02/22-rdf-syntax-ns#"
   xmlns:svg="http://www.w3.org/2000/svg"
   xmlns="http://www.w3.org/2000/svg"
   xmlns:sodipodi="http://sodipodi.sourceforge.net/DTD/sodipodi-0.dtd"
   xmlns:inkscape="http://www.inkscape.org/namespaces/inkscape"
   version="1.1"
   x="0px"
   y="0px"
   width="580px"
   height="580px"
   viewBox="0 0 580 580"
   enable-background="new 0 0 580 580"
   xml:space="preserve"
   id="svg881"
   sodipodi:docname="cliff.svg"
   inkscape:version="0.92.3 (2405546, 2018-03-11)"><metadata
   id="metadata887"><rdf:RDF><cc:Work
       rdf:about=""><dc:format>image/svg+xml</dc:format><dc:type
         rdf:resource="http://purl.org/dc/dcmitype/StillImage" /><dc:title></dc:title></cc:Work></rdf:RDF></metadata><defs
   id="defs885" /><sodipodi:namedview
   pagecolor="#ffffff"
   bordercolor="#666666"
   borderopacity="1"
   objecttolerance="10"
   gridtolerance="10"
   guidetolerance="10"
   inkscape:pageopacity="0"
   inkscape:pageshadow="2"
   inkscape:window-width="1387"
   inkscape:window-height="981"
   id="namedview883"
   showgrid="false"
   inkscape:zoom="1.2316035"
   inkscape:cx="246.65766"
   inkscape:cy="290"
   inkscape:window-x="383"
   inkscape:window-y="81"
   inkscape:window-maximized="0"
   inkscape:current-layer="svg881" />
<g
   id="Layer_2"
   transform="translate(0.81194959,-0.5683013)">
	<g
   id="g1327">
		<path
   id="path1329"
   d="M 66.275,1.768 C 24.94,1.768 1.704,23.139 1.704,66.804 v 450.123 c 0,40.844 20.894,62.229 62.192,62.229 H 515.92 c 41.307,0 62.229,-20.316 62.229,-62.229 V 66.804 c 0,-42.601 -20.923,-65.036 -63.522,-65.036 -0.003,0 -448.494,-0.143 -448.352,0 z"
   inkscape:connector-curvature="0"
   style="fill:#111111;stroke:#eeeeee;stroke-width:3.40799999" />
	</g>
</g>

<path
   inkscape:connector-curvature="0"
   d="m 103.42423,75.02976 h 57.87655 c 5.2046,0 10.10591,2.45067 13.22894,6.61447 l 94.2561,125.67481 -33.07233,165.36159 99.21698,66.14465 27.0892,54.17907 c 2.04387,4.08411 0.38695,9.05057 -3.69748,11.0928 -1.14761,0.57544 -2.41429,0.87309 -3.69749,0.87309 H 103.42423 c -18.265507,0 -33.072322,-14.80714 -33.072322,-33.07231 V 108.10241 c 0,-18.26519 14.806815,-33.07233 33.072322,-33.07233 z m 245.72501,133.14189 74.43257,24.81085 c 4.93769,1.647 8.81245,5.52042 10.45846,10.45846 l 25.22856,75.68533 c 2.88721,8.66396 -1.79583,18.02873 -10.45847,20.91693 l -77.03138,25.67701 c -4.1605,1.38573 -8.70166,1.06494 -12.62436,-0.89626 l -48.15396,-24.07664 c -6.9323,-3.46632 -10.52693,-11.28196 -8.6471,-18.80129 l 25.52422,-102.09655 c 2.21586,-8.86009 11.193,-14.24691 20.05309,-12.03173 0.4101,0.0992 0.81687,0.23151 1.21705,0.35389 z m 51.92586,241.54402 v -39.38848 c 0,-6.26357 3.53873,-11.98939 9.14085,-14.79061 l 44.65989,-22.32976 c 7.1479,-3.57413 15.82906,-1.52464 20.62421,4.86857 l 30.83994,41.11981 c 5.47944,7.30633 3.99878,17.6712 -3.30723,23.15062 -0.2315,0.16534 -0.49277,0.36049 -0.74743,0.52917 l -30.89814,20.59875 c -2.71524,1.81236 -5.90804,2.77809 -9.17262,2.77809 h -44.60166 c -9.13292,0 -16.53616,-7.40357 -16.53616,-16.53616 z"
   id="path8585"
   style="fill:#ffffff;fill-opacity:1;stroke-width:33.07231903" /></svg>