<?xml version="1.0" encoding="UTF-8" standalone="no"?>
<!-- Generator: Adobe Illustrator 15.0.0, SVG Export Plug-In . SVG Version: 6.00 Build 0)  -->

<svg
   version="1.1"
   x="0px"
   y="0px"
   width="580px"
   height="580px"
   viewBox="0 0 580 580"
   enable-background="new 0 0 580 580"
   xml:space="preserve"
   id="svg881"
   sodipodi:docname="gully.svg"
   inkscape:version="1.4 (86a8ad7, 2024-10-11)"
   xmlns:inkscape="http://www.inkscape.org/namespaces/inkscape"
   xmlns:sodipodi="http://sodipodi.sourceforge.net/DTD/sodipodi-0.dtd"
   xmlns="http://www.w3.org/2000/svg"
   xmlns:svg="http://www.w3.org/2000/svg"
   xmlns:rdf="http://www.w3.org/1999/02/22-rdf-syntax-ns#"
   xmlns:cc="http://creativecommons.org/ns#"
   xmlns:dc="http://purl.org/dc/elements/1.1/"><metadata
   id="metadata887"><rdf:RDF><cc:Work
       rdf:about=""><dc:format>image/svg+xml</dc:format><dc:type
         rdf:resource="http://purl.org/dc/dcmitype/StillImage" /></cc:Work></rdf:RDF></metadata><defs
   id="defs885" /><sodipodi:namedview
   pagecolor="#ffffff"
   bordercolor="#666666"
   borderopacity="1"
   objecttolerance="10"
   gridtolerance="10"
   guidetolerance="10"
   inkscape:pageopacity="0"
   inkscape:pageshadow="2"
   inkscape:window-width="1560"
   inkscape:window-height="981"
   id="namedview883"
   showgrid="false"
   inkscape:zoom="0.87"
   inkscape:cx="289.65517"
   inkscape:cy="453.44828"
   inkscape:window-x="383"
   inkscape:window-y="81"
   inkscape:window-maximized="0"
   inkscape:current-layer="svg881"
   inkscape:showpageshadow="2"
   inkscape:pagecheckerboard="0"
   inkscape:deskcolor="#d1d1d1" />
<g
   id="Layer_2"
   transform="translate(0.81194959,-0.5683013)">
	<g
   id="g1327">
		<path
   id="path1329"
   d="M 66.275,1.768 C 24.94,1.768 1.704,23.139 1.704,66.804 v 450.123 c 0,40.844 20.894,62.229 62.192,62.229 H 515.92 c 41.307,0 62.229,-20.316 62.229,-62.229 V 66.804 c 0,-42.601 -20.923,-65.036 -63.522,-65.036 -0.003,0 -448.494,-0.143 -448.352,0 z"
   inkscape:connector-curvature="0"
   style="fill:#111111;stroke:#eeeeee;stroke-width:3.40799999" />
	</g>
</g>

<path
   inkscape:connector-curvature="0"
   d="m 243.58091,412.10697 -142.52215,0.0246 c -46.990997,0.008 -40.889306,7.19458 -40.609525,-26.30341 L 61.128841,304.4591 V 188.1258 l 69.055139,-7.15362 c -30.390668,2.90479 137.57563,-19.70724 142.88392,-7.32072 l 2.17888,84.92525 15.29414,45.88241 c 24.72572,19.44896 23.48554,36.85578 25.85751,61.37538 -8.89593,19.59004 2.64173,19.44443 -72.81752,46.27247 z m 63.96919,-0.58887 c 0,0 33.72382,-1.02364 42.5601,-28.47562 8.70499,-27.04408 6.38673,-45.30714 -7.78993,-62.43737 -8.68758,-10.49755 -9.36719,-20.05601 -42.50832,-28.05062 l 1.1514,-33.97779 -1.88116,-77.61769 c 2.65064,-6.18465 142.94831,0.13929 145.3167,5.69803 l 75.55409,1.56665 V 312.1062 l -1.22699,72.54788 c -0.59001,34.88493 4.88363,28.01779 -15.5725,27.90855 z m 59.46151,-214.11793 61.17654,-30.58829 z"
   id="path9163"
   style="fill:#ffffff;fill-opacity:1;stroke-width:30.5883"
   sodipodi:nodetypes="csscccccccccssccccccsscccc" /></svg>
