<?xml version="1.0" encoding="UTF-8" standalone="no"?>
<!-- Generator: Adobe Illustrator 15.0.0, SVG Export Plug-In . SVG Version: 6.00 Build 0)  -->

<svg
   xmlns:dc="http://purl.org/dc/elements/1.1/"
   xmlns:cc="http://creativecommons.org/ns#"
   xmlns:rdf="http://www.w3.org/1999/02/22-rdf-syntax-ns#"
   xmlns:svg="http://www.w3.org/2000/svg"
   xmlns="http://www.w3.org/2000/svg"
   xmlns:sodipodi="http://sodipodi.sourceforge.net/DTD/sodipodi-0.dtd"
   xmlns:inkscape="http://www.inkscape.org/namespaces/inkscape"
   version="1.1"
   x="0px"
   y="0px"
   width="580px"
   height="580px"
   viewBox="0 0 580 580"
   enable-background="new 0 0 580 580"
   xml:space="preserve"
   id="svg4538"
   sodipodi:docname="hill.svg"
   inkscape:version="0.92.3 (2405546, 2018-03-11)"><metadata
   id="metadata4544"><rdf:RDF><cc:Work
       rdf:about=""><dc:format>image/svg+xml</dc:format><dc:type
         rdf:resource="http://purl.org/dc/dcmitype/StillImage" /><dc:title></dc:title></cc:Work></rdf:RDF></metadata><defs
   id="defs4542" /><sodipodi:namedview
   pagecolor="#ffffff"
   bordercolor="#666666"
   borderopacity="1"
   objecttolerance="10"
   gridtolerance="10"
   guidetolerance="10"
   inkscape:pageopacity="0"
   inkscape:pageshadow="2"
   inkscape:window-width="1561"
   inkscape:window-height="892"
   id="namedview4540"
   showgrid="false"
   inkscape:zoom="1.18"
   inkscape:cx="290"
   inkscape:cy="290"
   inkscape:window-x="297"
   inkscape:window-y="71"
   inkscape:window-maximized="0"
   inkscape:current-layer="svg4538" />
<g
   id="Layer_2">
	<g
   id="g1327">
		<path
   id="path1329"
   d="M 66.275,1.768 C 24.94,1.768 1.704,23.139 1.704,66.804 v 450.123 c 0,40.844 20.894,62.229 62.192,62.229 H 515.92 c 41.307,0 62.229,-20.316 62.229,-62.229 V 66.804 c 0,-42.601 -20.923,-65.036 -63.522,-65.036 -0.003,0 -448.494,-0.143 -448.352,0 z"
   inkscape:connector-curvature="0"
   style="fill:#111111;stroke:#eeeeee;stroke-width:3.40799999" />
	</g>
</g>

<path
   inkscape:connector-curvature="0"
   style="vector-effect:non-scaling-stroke;fill:#ffffff;fill-opacity:1;stroke:none;stroke-width:0.0546617"
   d="m 361.14565,214.46866 c -22.83217,2.30813 -50.38281,16.89785 -81.47232,43.19926 -2.49029,2.10867 -7.02528,6.09804 -10.06608,8.86212 -3.04078,2.79255 -5.79323,5.27167 -6.13401,5.55662 -0.60291,0.51293 -0.65534,0.51293 -3.04079,-0.51292 -5.68839,-2.45061 -11.71754,-4.27433 -17.11758,-5.1292 -4.45635,-0.71238 -13.08066,-0.54141 -16.30494,0.34195 -0.47185,0.11401 -1.10098,-0.31345 -2.88352,-2.05168 -16.2263,-15.47308 -30.67008,-26.64334 -43.59343,-33.76722 -16.88165,-9.26106 -28.99244,-11.39823 -42.99058,-7.55134 -11.27191,3.07753 -24.79816,10.68584 -38.874941,21.85611 -15.544776,12.33856 -33.081751,29.94881 -49.648845,49.92419 -4.823348,5.8131 -10.669006,13.27894 -10.511726,13.42141 0.05266,0.0854 19.214679,0.17098 42.571109,0.19947 23.330273,0.057 50.356613,0.14248 60.055723,0.22796 l 17.61562,0.14249 -2.93593,2.82105 c -11.74375,11.28425 -27.13125,28.18211 -38.74393,42.48688 -4.08932,5.04371 -8.44082,10.71433 -8.33597,10.7998 0.0527,0.057 58.01103,0.19948 128.78812,0.31346 l 128.70948,0.19947 -0.73397,-0.94036 c -1.28449,-1.68122 -8.10005,-9.97343 -11.24569,-13.64937 l -3.0146,-3.56195 95.12968,-0.14245 95.12969,-0.1425 -2.41167,-2.99203 c -26.39722,-32.85537 -58.92852,-66.28065 -85.87623,-88.27922 -37.09245,-30.29077 -67.55282,-44.08262 -92.06267,-41.632 z"
   id="path5134" /></svg>