<?xml version="1.0" encoding="UTF-8" standalone="no"?>
<!-- Generator: Adobe Illustrator 15.0.0, SVG Export Plug-In . SVG Version: 6.00 Build 0)  -->

<svg
   xmlns:dc="http://purl.org/dc/elements/1.1/"
   xmlns:cc="http://creativecommons.org/ns#"
   xmlns:rdf="http://www.w3.org/1999/02/22-rdf-syntax-ns#"
   xmlns:svg="http://www.w3.org/2000/svg"
   xmlns="http://www.w3.org/2000/svg"
   xmlns:sodipodi="http://sodipodi.sourceforge.net/DTD/sodipodi-0.dtd"
   xmlns:inkscape="http://www.inkscape.org/namespaces/inkscape"
   version="1.1"
   x="0px"
   y="0px"
   width="580px"
   height="580px"
   viewBox="0 0 580 580"
   enable-background="new 0 0 580 580"
   xml:space="preserve"
   id="svg881"
   sodipodi:docname="island.svg"
   inkscape:version="0.92.3 (2405546, 2018-03-11)"><metadata
   id="metadata887"><rdf:RDF><cc:Work
       rdf:about=""><dc:format>image/svg+xml</dc:format><dc:type
         rdf:resource="http://purl.org/dc/dcmitype/StillImage" /><dc:title></dc:title></cc:Work></rdf:RDF></metadata><defs
   id="defs885" /><sodipodi:namedview
   pagecolor="#ffffff"
   bordercolor="#666666"
   borderopacity="1"
   objecttolerance="10"
   gridtolerance="10"
   guidetolerance="10"
   inkscape:pageopacity="0"
   inkscape:pageshadow="2"
   inkscape:window-width="1387"
   inkscape:window-height="981"
   id="namedview883"
   showgrid="false"
   inkscape:zoom="1.2316035"
   inkscape:cx="345.0419"
   inkscape:cy="290"
   inkscape:window-x="383"
   inkscape:window-y="81"
   inkscape:window-maximized="0"
   inkscape:current-layer="svg881" />
<g
   id="Layer_2"
   transform="translate(0.81194959,-0.5683013)">
	<g
   id="g1327">
		<path
   id="path1329"
   d="M 66.275,1.768 C 24.94,1.768 1.704,23.139 1.704,66.804 v 450.123 c 0,40.844 20.894,62.229 62.192,62.229 H 515.92 c 41.307,0 62.229,-20.316 62.229,-62.229 V 66.804 c 0,-42.601 -20.923,-65.036 -63.522,-65.036 -0.003,0 -448.494,-0.143 -448.352,0 z"
   inkscape:connector-curvature="0"
   style="fill:#111111;stroke:#eeeeee;stroke-width:3.40799999" />
	</g>
</g>

<path
   inkscape:connector-curvature="0"
   d="m 306.75619,284.57405 v -47.25942 h -12.0429 c -9.25431,0 -16.75654,-7.50224 -16.75654,-16.75654 0,-1.37403 0.16762,-2.738 0.50269,-4.07049 l 28.85611,-115.23263 c 2.24871,-8.977144 11.34783,-14.432408 20.32499,-12.184334 6.00284,1.501366 10.68865,6.192534 12.18734,12.196724 l 28.76057,115.23296 c 2.24203,8.97883 -3.22061,18.07462 -12.2001,20.31562 -1.32712,0.33513 -2.6911,0.49935 -4.05775,0.49935 h -12.06034 v 49.23839 c 0.79092,0.33512 1.57512,0.6669 2.35597,1.0322 l 28.61611,13.36802 c 4.83393,2.25878 9.75565,4.32285 14.75347,6.18953 l 21.29955,7.95499 v -44.26906 h -12.04291 c -9.2543,0 -16.75653,-7.50223 -16.75653,-16.75654 0,-1.37402 0.16762,-2.73802 0.50269,-4.07049 L 407.85435,134.7697 c 2.24872,-8.97714 11.34787,-14.4324 20.325,-12.18435 6.0032,1.50139 10.689,6.19256 12.18737,12.19675 l 28.7609,115.23296 c 2.24202,8.97882 -3.22062,18.07459 -12.20009,20.31562 -1.32713,0.33512 -2.6911,0.49934 -4.0581,0.49934 h -12.06035 v 56.78552 l 16.48576,6.15703 c 7.23512,2.70115 13.94847,6.63424 19.84441,11.62299 l 10.89308,9.2171 c 12.55934,10.62733 19.80286,26.24541 19.80286,42.69764 v 8.41547 c -13.78727,-0.0156 -27.16231,4.61742 -37.86973,13.11734 l -15.75115,13.44509 c -9.59814,8.20469 -23.91492,8.20469 -33.51306,0 -5.02697,-3.9351 -9.71877,-8.52605 -14.74574,-12.78924 -23.87134,-19.48884 -58.57077,-19.48884 -82.44212,0 -5.36208,4.26319 -10.38905,9.18191 -15.75112,13.44511 -9.59815,8.20466 -23.91492,8.20466 -33.51308,0 -5.36207,-4.2632 -10.38904,-9.18192 -15.75112,-13.44511 -23.8144,-19.30855 -58.29261,-19.30855 -82.107,0 -5.36209,4.26319 -9.71877,8.85414 -15.08087,12.78924 -3.09326,2.37274 -6.61884,4.15495 -10.38905,5.24681 -9.89641,2.26214 -20.27205,-0.86798 -27.14557,-8.19829 -8.29783,-7.01428 -17.15198,-13.37305 -26.475305,-19.02 -2.57381,-1.35059 -5.268261,-2.42971 -8.040116,-3.2273 11.748001,-20.68661 28.986451,-37.96695 49.931441,-49.73808 v -69.7658 h 100.53915 v 48.03595 c 10.66855,-4.67106 24.82648,-16.66705 42.47378,-35.98834 6.77568,-7.4181 15.33323,-12.51177 24.55233,-15.05774 z m 201.07833,154.66242 v 32.7932 c -8.80053,0.63675 -16.98776,4.64322 -22.78887,11.14946 -9.1055,9.45436 -20.70436,16.2622 -33.51305,19.67585 -20.60047,5.95191 -42.87996,1.39414 -59.31811,-12.1334 l -13.07011,-11.47757 c -4.49509,-4.3741 -10.20873,-6.81988 -16.06648,-7.33801 h -4.73139 c -5.85773,0.51945 -11.57103,2.96255 -16.06648,7.33801 -4.69182,3.93512 -9.04853,8.19832 -14.07548,12.13342 -24.55837,19.20364 -59.70017,18.23278 -83.11237,-2.29566 l -13.07009,-11.47755 c -3.49374,-2.98601 -7.6125,-4.88585 -11.90151,-5.69822 h -9.70973 c -4.28901,0.81101 -8.4081,2.71122 -11.90182,5.69822 -6.36747,4.91905 -12.0647,10.49395 -18.43218,15.413 -23.60325,17.10139 -56.07404,16.29136 -78.75566,-1.96722 L 90.932127,482.19585 C 86.08279,476.76205 79.443839,473.16441 72.164815,472.03 v -32.79319 c 8.663115,-1.04897 17.443535,0.55296 25.13479,4.59096 9.323325,5.64693 18.177465,12.00571 26.475305,19.02 5.30612,5.65767 12.69878,8.81425 20.34712,8.91882 1.56841,-0.0335 3.13682,-0.16762 4.6992,-0.33512 0.70042,-0.10068 1.40084,-0.2346 2.09792,-0.39881 3.77022,-1.09253 7.2958,-2.87207 10.38903,-5.24682 5.3621,-3.9351 9.7188,-8.52604 15.08089,-12.78924 8.93523,-7.24451 19.37121,-11.7708 30.18185,-13.57915 4.72669,-1.67901 9.8535,-1.94041 14.7062,-0.7909 13.27553,0.77414 26.35669,5.56282 37.21893,14.37005 5.36209,4.2632 10.38905,9.18191 15.75114,13.44511 2.74472,2.34591 5.87149,4.01955 9.16516,5.02426 6.24079,0.43903 12.5389,-0.009 18.68318,-1.35391 2.00743,-0.95177 3.91432,-2.17502 5.66472,-3.67035 5.36208,-4.2632 10.38905,-9.18225 15.75113,-13.44511 8.68189,-7.08801 18.79579,-11.5982 29.30014,-13.53057 3.38413,-1.04561 6.94221,-1.4042 10.445,-1.06906 15.13148,-0.33849 30.36048,4.52827 42.69698,14.60029 5.02695,4.26321 9.71879,8.85415 14.74573,12.78927 4.25918,3.64086 9.44769,5.66605 14.7404,6.07557 3.09661,-0.10048 6.20057,-0.4122 9.28513,-0.95513 3.41195,-0.99197 6.65535,-2.69779 9.48754,-5.12011 l 15.75113,-13.44511 c 9.09311,-7.21837 20.11018,-11.64846 31.66951,-12.81037 2.01413,-0.5295 4.09026,-0.87468 6.20025,-1.0255 z M 284.99115,471.906 h 12.02818 c -3.94885,0.93501 -8.07934,0.93501 -12.02818,0 z M 189.4605,170.28851 273.24314,270.82767 H 105.67786 Z"
   id="path9741"
   style="stroke-width:33.51305771;fill:#ffffff;fill-opacity:1" /></svg>