<?xml version="1.0" encoding="UTF-8" standalone="no"?>
<!-- Generator: Adobe Illustrator 15.0.0, SVG Export Plug-In . SVG Version: 6.00 Build 0)  -->

<svg
   xmlns:dc="http://purl.org/dc/elements/1.1/"
   xmlns:cc="http://creativecommons.org/ns#"
   xmlns:rdf="http://www.w3.org/1999/02/22-rdf-syntax-ns#"
   xmlns:svg="http://www.w3.org/2000/svg"
   xmlns="http://www.w3.org/2000/svg"
   xmlns:sodipodi="http://sodipodi.sourceforge.net/DTD/sodipodi-0.dtd"
   xmlns:inkscape="http://www.inkscape.org/namespaces/inkscape"
   version="1.1"
   x="0px"
   y="0px"
   width="580px"
   height="580px"
   viewBox="0 0 580 580"
   enable-background="new 0 0 580 580"
   xml:space="preserve"
   id="svg881"
   sodipodi:docname="islet.svg"
   inkscape:version="0.92.3 (2405546, 2018-03-11)"><metadata
   id="metadata887"><rdf:RDF><cc:Work
       rdf:about=""><dc:format>image/svg+xml</dc:format><dc:type
         rdf:resource="http://purl.org/dc/dcmitype/StillImage" /><dc:title></dc:title></cc:Work></rdf:RDF></metadata><defs
   id="defs885" /><sodipodi:namedview
   pagecolor="#ffffff"
   bordercolor="#666666"
   borderopacity="1"
   objecttolerance="10"
   gridtolerance="10"
   guidetolerance="10"
   inkscape:pageopacity="0"
   inkscape:pageshadow="2"
   inkscape:window-width="1387"
   inkscape:window-height="981"
   id="namedview883"
   showgrid="false"
   inkscape:zoom="1.2316035"
   inkscape:cx="246.65766"
   inkscape:cy="290"
   inkscape:window-x="383"
   inkscape:window-y="81"
   inkscape:window-maximized="0"
   inkscape:current-layer="svg881" />
<g
   id="Layer_2"
   transform="translate(0.81194959,-0.5683013)">
	<g
   id="g1327">
		<path
   id="path1329"
   d="M 66.275,1.768 C 24.94,1.768 1.704,23.139 1.704,66.804 v 450.123 c 0,40.844 20.894,62.229 62.192,62.229 H 515.92 c 41.307,0 62.229,-20.316 62.229,-62.229 V 66.804 c 0,-42.601 -20.923,-65.036 -63.522,-65.036 -0.003,0 -448.494,-0.143 -448.352,0 z"
   inkscape:connector-curvature="0"
   style="fill:#111111;stroke:#eeeeee;stroke-width:3.40799999" />
	</g>
</g>

<path
   inkscape:connector-curvature="0"
   d="m 179.25473,358.77991 v -44.51257 c -8.72391,-2.4111 -19.27105,-8.56415 -31.64169,-18.46039 -63.283374,-50.6267 26.44644,-219.382578 47.4701,-219.382578 21.19047,0 110.73832,168.755878 47.45497,219.382578 -12.3428,9.87442 -22.89024,16.01197 -31.64171,18.41294 v 33.40284 c 7.44277,-1.47134 15.13741,-2.24338 23.01239,-2.24338 10.51359,0 26.75714,-12.02924 48.73135,-36.08735 14.48368,-15.85723 37.59065,-20.46457 57.04838,-11.37519 l 25.21337,11.7786 c 5.76513,2.69273 11.39164,5.67464 16.85744,8.93278 l 40.38935,24.0768 c 2.98694,1.78141 5.82016,3.80302 8.47395,6.0483 l 14.71022,12.44688 c 11.85803,10.0339 18.69707,24.77989 18.69707,40.31374 v 17.35577 c -1.41123,0.92709 -2.78449,1.92065 -4.11343,2.97433 l -14.87161,12.69432 c -9.06218,7.74652 -22.57951,7.74652 -31.64165,0 -4.74629,-3.71568 -9.17611,-8.05027 -13.92235,-12.07508 -22.53839,-18.40092 -55.30019,-18.40092 -77.83855,0 -5.06269,4.02481 -9.80894,8.66919 -14.8716,12.69431 -9.06218,7.74651 -22.57952,7.74651 -31.6417,0 -5.06265,-4.02512 -9.80891,-8.6695 -14.8716,-12.69431 -22.48457,-18.23038 -55.03752,-18.23038 -77.52212,0 -5.06266,4.02481 -9.17608,8.3594 -14.23876,12.07508 -2.92053,2.24024 -6.24922,3.92261 -9.80891,4.95383 -9.34379,2.1358 -19.14007,-0.81951 -25.62978,-7.74051 -3.3249,-2.80978 -6.74442,-5.51009 -10.25253,-8.09362 10.01586,-28.057 30.35797,-51.20859 56.4494,-64.87779 z m 179.74345,113.16554 h -4.46688 c -5.53095,0.49044 -10.92522,2.8003 -15.16965,6.92827 -4.42981,3.71567 -8.54325,7.74051 -13.28949,11.45587 -23.18703,18.13131 -56.3665,17.21497 -78.47139,-2.16745 L 235.26052,477.3255 c -3.29865,-2.81929 -7.18742,-4.61338 -11.23691,-5.38037 h -9.16755 c -4.0495,0.76572 -7.93826,2.55981 -11.23724,5.38037 -6.01192,4.64436 -11.39099,9.90763 -17.40291,14.55199 -22.28525,16.14676 -52.94289,15.38197 -74.35797,-1.85737 l -9.80892,-8.35971 c -4.578556,-5.13039 -10.846768,-8.52681 -17.719354,-9.5982 v -30.9617 c 8.179391,-0.9904 16.469504,0.52209 23.731264,4.33459 8.80272,5.33161 17.16245,11.335 24.99693,17.95793 5.00983,5.34174 11.98967,8.32206 19.21094,8.42079 1.48083,-0.0316 2.96165,-0.15812 4.4368,-0.31642 0.66131,-0.095 1.32262,-0.22149 1.98077,-0.37652 3.5597,-1.03153 6.88838,-2.71171 9.80892,-4.95384 5.06266,-3.71568 9.17609,-8.05028 14.23877,-12.0754 8.43629,-6.83967 18.28951,-11.11319 28.49649,-12.82059 4.46275,-1.58523 9.3036,-1.83205 13.88501,-0.74675 12.53421,0.73093 24.88493,5.25189 35.14061,13.56734 5.06268,4.02512 9.80894,8.6695 14.8716,12.69433 2.58829,2.21492 5.54361,3.7951 8.65338,4.74371 5.8923,0.41451 11.83873,-0.0106 17.63992,-1.27833 1.89534,-0.89862 3.69574,-2.05354 5.34839,-3.46538 5.06266,-4.02514 9.80893,-8.66921 14.8716,-12.69433 8.19709,-6.69225 17.74622,-10.95025 27.66434,-12.7747 3.19483,-0.98723 6.55422,-1.3258 9.86144,-1.00938 14.28653,-0.31957 28.66513,4.27541 40.31276,13.78471 4.74626,4.02515 9.17608,8.35973 13.92236,12.07509 4.02131,3.43756 8.9201,5.34968 13.91725,5.73665 2.92368,-0.095 5.85435,-0.38919 8.76667,-0.9018 3.22145,-0.93659 6.28372,-2.54713 8.95775,-4.83454 l 14.87159,-12.69433 c 10.10953,-8.02527 22.73773,-12.40004 35.75511,-12.38454 v 30.9617 c -8.3091,0.60118 -16.03917,4.38427 -21.51635,10.52719 -8.59704,8.92611 -19.54821,15.35382 -31.64168,18.57684 -19.45013,5.61988 -40.48554,1.31628 -56.00579,-11.45588 L 374.16627,478.862 c -4.24411,-4.12956 -9.63872,-6.43907 -15.16934,-6.92825 z m -73.72639,0 h 11.35649 c -3.72834,0.8828 -7.62815,0.8828 -11.35649,0 z"
   id="path10319"
   style="stroke-width:31.64168739;fill:#ffffff;fill-opacity:1" /></svg>