<?xml version="1.0" encoding="utf-8"?>
<!-- Generator: Adobe Illustrator 15.0.0, SVG Export Plug-In . SVG Version: 6.00 Build 0)  -->
<!DOCTYPE svg PUBLIC "-//W3C//DTD SVG 1.1//EN" "http://www.w3.org/Graphics/SVG/1.1/DTD/svg11.dtd">
<svg version="1.1" xmlns="http://www.w3.org/2000/svg" xmlns:xlink="http://www.w3.org/1999/xlink" x="0px" y="0px" width="580px"
	 height="580px" viewBox="0 0 580 580" enable-background="new 0 0 580 580" xml:space="preserve">
<g id="Layer_2">
	<g id="g1327">
		<path id="path1329" fill="#111111" stroke="#EEEEEE" stroke-width="3.408" d="M66.275,1.768
			c-41.335,0-64.571,21.371-64.571,65.036v450.123c0,40.844,20.894,62.229,62.192,62.229H515.92
			c41.307,0,62.229-20.316,62.229-62.229V66.804c0-42.601-20.923-65.036-63.522-65.036C514.624,1.768,66.133,1.625,66.275,1.768z"/>
	</g>
</g>
<g id="svg2" inkscape:output_extension="org.inkscape.output.svg.inkscape" inkscape:version="0.46" sodipodi:docname="waste_bin.svg" sodipodi:version="0.32" xmlns:inkscape="http://www.inkscape.org/namespaces/inkscape" xmlns:rdf="http://www.w3.org/1999/02/22-rdf-syntax-ns#" xmlns:svg="http://www.w3.org/2000/svg" xmlns:sodipodi="http://sodipodi.sourceforge.net/DTD/sodipodi-0.dtd" xmlns:cc="http://creativecommons.org/ns#" xmlns:dc="http://purl.org/dc/elements/1.1/">
	<path id="flowRoot3192" fill="#FFFFFF" d="M290.879,146.969c-7.052,0-13.222-2.645-18.51-7.933
		c-5.289-5.288-7.933-11.655-7.933-19.102c0-7.051,2.644-13.218,7.933-18.501c5.288-5.282,11.458-7.923,18.51-7.924
		c7.445,0.001,13.809,2.642,19.092,7.924c5.281,5.283,7.924,11.45,7.924,18.501c0,7.446-2.643,13.813-7.924,19.102
		C304.688,144.325,298.324,146.969,290.879,146.969L290.879,146.969z M491.787,290.887c-1.566-9.405-7.439-14.108-17.623-14.108
		c-4.709,0-9.018,1.96-12.924,5.88l-65.221,61.095c-4.697,3.908-7.045,8.605-7.045,14.092c0,9.406,4.309,15.477,12.926,18.213
		l16.457,5.289c-8.223,22.324-21.342,41.418-39.359,57.277c-18.016,15.859-38.773,26.137-62.27,30.834V179.865
		c26.234-11.365,39.35-31.342,39.35-59.93c0-17.616-6.363-32.788-19.092-45.517c-12.729-12.728-28.098-19.092-46.107-19.093
		c-17.629,0.001-32.804,6.365-45.526,19.093c-12.723,12.729-19.084,27.9-19.084,45.517c0,28.588,13.313,48.564,39.941,59.93v290.186
		c-23.891-4.697-45.236-14.979-64.035-30.844c-18.8-15.865-32.311-35.152-40.533-57.859l16.457-5.289
		c8.604-2.736,12.907-8.807,12.907-18.213c0-5.092-2.151-9.789-6.453-14.092l-65.792-61.095c-3.921-3.92-8.229-5.88-12.926-5.88
		c-10.183,0-16.057,4.703-17.622,14.108L74.123,379.59c-0.395,1.949-0.592,3.318-0.592,4.105c0,12.537,6.46,18.807,19.379,18.807
		c1.96,0,3.723-0.197,5.289-0.592l15.273-5.289c12.537,37.6,34.958,68.342,67.263,92.227
		c32.304,23.885,68.821,35.826,109.552,35.826c40.336,0,76.956-12.137,109.858-36.41c31.719-23.496,53.846-54.043,66.383-91.643
		l15.273,5.289c1.566,0.395,3.328,0.592,5.289,0.592c12.92,0,19.379-6.27,19.379-18.807c0-0.787-0.197-2.156-0.592-4.105
		L491.787,290.887z"/>
</g>
</svg>
