<?xml version="1.0" encoding="UTF-8" standalone="no"?>
<!-- Generator: Adobe Illustrator 15.0.0, SVG Export Plug-In . SVG Version: 6.00 Build 0)  -->

<svg
   version="1.1"
   x="0px"
   y="0px"
   width="580px"
   height="580px"
   viewBox="0 0 580 580"
   enable-background="new 0 0 580 580"
   xml:space="preserve"
   id="svg881"
   sodipodi:docname="reef.svg"
   inkscape:version="1.4 (86a8ad7, 2024-10-11)"
   xmlns:inkscape="http://www.inkscape.org/namespaces/inkscape"
   xmlns:sodipodi="http://sodipodi.sourceforge.net/DTD/sodipodi-0.dtd"
   xmlns="http://www.w3.org/2000/svg"
   xmlns:svg="http://www.w3.org/2000/svg"
   xmlns:rdf="http://www.w3.org/1999/02/22-rdf-syntax-ns#"
   xmlns:cc="http://creativecommons.org/ns#"
   xmlns:dc="http://purl.org/dc/elements/1.1/"><metadata
   id="metadata887"><rdf:RDF><cc:Work
       rdf:about=""><dc:format>image/svg+xml</dc:format><dc:type
         rdf:resource="http://purl.org/dc/dcmitype/StillImage" /></cc:Work></rdf:RDF></metadata><defs
   id="defs885" /><sodipodi:namedview
   pagecolor="#ffffff"
   bordercolor="#666666"
   borderopacity="1"
   objecttolerance="10"
   gridtolerance="10"
   guidetolerance="10"
   inkscape:pageopacity="0"
   inkscape:pageshadow="2"
   inkscape:window-width="1387"
   inkscape:window-height="981"
   id="namedview883"
   showgrid="false"
   inkscape:zoom="0.93"
   inkscape:cx="246.77419"
   inkscape:cy="279.03226"
   inkscape:window-x="383"
   inkscape:window-y="81"
   inkscape:window-maximized="0"
   inkscape:current-layer="svg881"
   inkscape:showpageshadow="2"
   inkscape:pagecheckerboard="0"
   inkscape:deskcolor="#d1d1d1" />
<g
   id="Layer_2"
   transform="translate(0.81194959,-0.5683013)">
	<g
   id="g1327">
		<path
   id="path1329"
   d="M 66.275,1.768 C 24.94,1.768 1.704,23.139 1.704,66.804 v 450.123 c 0,40.844 20.894,62.229 62.192,62.229 H 515.92 c 41.307,0 62.229,-20.316 62.229,-62.229 V 66.804 c 0,-42.601 -20.923,-65.036 -63.522,-65.036 -0.003,0 -448.494,-0.143 -448.352,0 z"
   inkscape:connector-curvature="0"
   style="fill:#111111;stroke:#eeeeee;stroke-width:3.40799999" />
	</g>
</g>

<path
   inkscape:connector-curvature="0"
   d="m 497.30501,413.60259 c -108.47129,-0.95417 -307.92435,1.5088 -413.626601,0.0164 0.603269,-28.26871 -3.972084,-82.76282 1.600872,-97.36392 0,0 24.152959,-58.32256 35.667089,-68.6355 l 14.87161,-12.69432 c 9.06218,-7.74652 22.57951,-7.74652 31.64165,0 4.74629,3.71568 19.70243,17.91869 24.44867,21.9435 18.07477,9.54634 182.15065,21.40237 193.71925,4.60526 5.06266,-4.02481 21.67608,-22.83308 26.73876,-26.54876 2.92053,-2.24024 6.24922,-3.92261 9.80891,-4.95383 9.34379,-2.1358 19.14007,0.81951 25.62978,7.74051 3.3249,2.80978 44.13578,37.5512 48.30178,59.87157 2.16339,31.3048 1.19823,116.0191 1.19823,116.0191 z M 221.86468,197.51812 h 4.46688 c 5.53095,-0.49044 10.92522,-2.8003 15.16965,-6.92827 4.42981,-3.71567 8.54325,-7.74051 13.28949,-11.45587 23.18703,-18.13131 56.3665,-17.21497 78.47139,2.16745 l 12.34025,10.83664 c 3.29865,2.81929 7.18742,4.61338 11.23691,5.38037 h 9.16755 c 4.0495,-0.76572 7.93826,-2.55981 11.23724,-5.38037 6.01192,-4.64436 11.39099,-9.90763 17.40291,-14.55199 22.28525,-16.14676 52.94289,-15.38197 74.35797,1.85737 l 9.80892,8.35971 c 4.57855,5.13039 10.84676,8.52681 17.71935,9.5982 v 30.9617 c -8.17939,0.9904 -16.4695,-0.52209 -23.73126,-4.33459 -8.80272,-5.33161 -17.16245,-11.335 -24.99693,-17.95793 -5.00983,-5.34174 -11.98967,-8.32206 -19.21094,-8.42079 -1.48083,0.0316 -2.96165,0.15812 -4.4368,0.31642 -0.66131,0.095 -1.32262,0.22149 -1.98077,0.37652 -3.5597,1.03153 -6.88838,2.71171 -9.80892,4.95384 -5.06266,3.71568 -9.17609,8.05028 -14.23877,12.0754 -8.43629,6.83967 -18.28951,11.11319 -28.49649,12.82059 -4.46275,1.58523 -9.3036,1.83205 -13.88501,0.74675 -12.53421,-0.73093 -24.88493,-5.25189 -35.14061,-13.56734 -5.06268,-4.02512 -9.80894,-8.6695 -14.8716,-12.69433 -2.58829,-2.21492 -5.54361,-3.7951 -8.65338,-4.74371 -5.8923,-0.41451 -11.83873,0.0106 -17.63992,1.27833 -1.89534,0.89862 -3.69574,2.05354 -5.34839,3.46538 -5.06266,4.02514 -9.80893,8.66921 -14.8716,12.69433 -8.19709,6.69225 -17.74622,10.95025 -27.66434,12.7747 -3.19483,0.98723 -6.55422,1.3258 -9.86144,1.00938 -14.28653,0.31957 -28.66513,-4.27541 -40.31276,-13.78471 -4.74626,-4.02515 -9.17608,-8.35973 -13.92236,-12.07509 -4.02131,-3.43756 -8.9201,-5.34968 -13.91725,-5.73665 -2.92368,0.095 -5.85435,0.38919 -8.76667,0.9018 -3.22145,0.93659 -6.28372,2.54713 -8.95775,4.83454 l -14.87159,12.69433 c -10.10953,8.02527 -22.737737,12.40004 -35.755117,12.38454 v -30.9617 c 8.3091,-0.60118 16.039177,-4.38427 21.516357,-10.52719 8.59704,-8.92611 19.54821,-15.35382 31.64168,-18.57684 19.45013,-5.61988 40.48554,-1.31628 56.00579,11.45588 l 12.34024,10.83665 c 4.24411,4.12956 9.63872,6.43907 15.16934,6.92825 z m 73.72639,0 h -11.35649 c 3.72834,-0.8828 7.62815,-0.8828 11.35649,0 z"
   id="path10319"
   style="fill:#ffffff;fill-opacity:1;stroke-width:31.6417"
   sodipodi:nodetypes="ccsccccccccccccccccccccccccccccccccccccccccccccccccccccccccccc" /></svg>
