<?xml version="1.0" encoding="UTF-8" standalone="no"?>
<!-- Generator: Adobe Illustrator 15.0.0, SVG Export Plug-In . SVG Version: 6.00 Build 0)  -->

<svg
   xmlns:dc="http://purl.org/dc/elements/1.1/"
   xmlns:cc="http://creativecommons.org/ns#"
   xmlns:rdf="http://www.w3.org/1999/02/22-rdf-syntax-ns#"
   xmlns:svg="http://www.w3.org/2000/svg"
   xmlns="http://www.w3.org/2000/svg"
   xmlns:sodipodi="http://sodipodi.sourceforge.net/DTD/sodipodi-0.dtd"
   xmlns:inkscape="http://www.inkscape.org/namespaces/inkscape"
   version="1.1"
   x="0px"
   y="0px"
   width="580px"
   height="580px"
   viewBox="0 0 580 580"
   enable-background="new 0 0 580 580"
   xml:space="preserve"
   id="svg3000"
   inkscape:version="0.48.4 r9939"
   sodipodi:docname="number.svg"><metadata
   id="metadata3013"><rdf:RDF><cc:Work
       rdf:about=""><dc:format>image/svg+xml</dc:format><dc:type
         rdf:resource="http://purl.org/dc/dcmitype/StillImage" /><dc:title></dc:title></cc:Work></rdf:RDF></metadata><defs
   id="defs3011" /><sodipodi:namedview
   pagecolor="#ffffff"
   bordercolor="#666666"
   borderopacity="1"
   objecttolerance="10"
   gridtolerance="10"
   guidetolerance="10"
   inkscape:pageopacity="0"
   inkscape:pageshadow="2"
   inkscape:window-width="1725"
   inkscape:window-height="1026"
   id="namedview3009"
   showgrid="false"
   inkscape:snap-nodes="false"
   inkscape:zoom="1.0965517"
   inkscape:cx="115.36164"
   inkscape:cy="290"
   inkscape:window-x="0"
   inkscape:window-y="0"
   inkscape:window-maximized="0"
   inkscape:current-layer="svg3000" />
<g
   id="Layer_1">
	<g
   id="Layer_2">
		<g
   id="g1327">
			<path
   id="path1329"
   d="M66.275,1.768     c-41.335,0-64.571,21.371-64.571,65.036v450.123c0,40.844,20.895,62.229,62.192,62.229h452.024     c41.307,0,62.229-20.315,62.229-62.229V66.804c0-42.602-20.923-65.036-63.521-65.036C514.625,1.768,66.133,1.625,66.275,1.768z"
   stroke-width="3.408"
   stroke="#EEEEEE"
   fill="#111111" />
		</g>
	</g>
</g>

<g
   id="g6722"
   transform="translate(-2e-6,-13.469929)"><path
     sodipodi:nodetypes="cssssscc"
     inkscape:connector-curvature="0"
     id="path6718"
     d="m 88.003144,176.15865 c 0,0 26.663236,-13.29831 75.691826,88.45912 48.33334,100.31446 39.21384,105.78616 58.36478,124.93711 19.35611,19.35612 28.27044,14.59119 43.77359,13.67924 16.7865,-0.98744 76.60377,-13.67924 107.61006,-47.42138 31.00629,-33.74214 21.34935,-48.62746 51.98113,-103.96227 28.27044,-51.06918 66.57233,-72.04402 66.57233,-72.04402 l 0,0 -0.45598,248.8099 -401.257861,2.73585 z"
     style="fill:none;stroke:#ffffff;stroke-width:11.89999962;stroke-linecap:butt;stroke-linejoin:miter;stroke-miterlimit:4;stroke-opacity:1;stroke-dasharray:none" /><path
     inkscape:connector-curvature="0"
     id="path6720"
     d="m 96.258969,386.25629 c -0.324659,-21.19143 -0.86006,-75.83175 -1.18978,-121.42293 l -0.59949,-82.89306 4.89538,2.64148 c 5.907261,3.18749 16.861571,13.81544 23.871561,23.16036 19.568,26.08582 48.88962,85.04147 71.72015,144.20444 3.95463,10.24804 8.53405,21.38885 10.17647,24.75736 7.08482,14.53055 24.97309,30.36564 37.32187,33.03814 15.21342,3.29244 55.44505,-4.25463 82.59795,-15.4946 26.79561,-11.09207 43.41765,-22.66735 58.29192,-40.59339 11.01343,-13.27306 15.57931,-21.86791 24.24007,-45.62968 8.02534,-22.01843 9.73266,-26.05208 17.93542,-42.37347 15.04506,-29.93577 33.35723,-52.97705 57.02999,-71.75795 l 3.4121,-2.70701 -0.57488,115.20418 c -0.31618,63.3623 -0.72743,115.37949 -0.91386,115.59376 -0.34719,0.39906 -289.00366,2.64965 -352.42342,2.74777 l -35.20116,0.0545 -0.590291,-38.52987 z"
     style="fill:#ffffff;fill-opacity:1;stroke:#ffffff;stroke-width:10.85220051;stroke-linejoin:miter;stroke-miterlimit:4;stroke-opacity:1;stroke-dasharray:none" /></g></svg>