<?xml version="1.0" encoding="UTF-8" standalone="no"?>
<!-- Generator: Adobe Illustrator 15.0.0, SVG Export Plug-In . SVG Version: 6.00 Build 0)  -->

<svg
   xmlns:dc="http://purl.org/dc/elements/1.1/"
   xmlns:cc="http://creativecommons.org/ns#"
   xmlns:rdf="http://www.w3.org/1999/02/22-rdf-syntax-ns#"
   xmlns:svg="http://www.w3.org/2000/svg"
   xmlns="http://www.w3.org/2000/svg"
   xmlns:sodipodi="http://sodipodi.sourceforge.net/DTD/sodipodi-0.dtd"
   xmlns:inkscape="http://www.inkscape.org/namespaces/inkscape"
   version="1.1"
   x="0px"
   y="0px"
   width="580px"
   height="580px"
   viewBox="0 0 580 580"
   enable-background="new 0 0 580 580"
   xml:space="preserve"
   id="svg881"
   sodipodi:docname="cliff.svg"
   inkscape:version="0.92.3 (2405546, 2018-03-11)"><metadata
   id="metadata887"><rdf:RDF><cc:Work
       rdf:about=""><dc:format>image/svg+xml</dc:format><dc:type
         rdf:resource="http://purl.org/dc/dcmitype/StillImage" /><dc:title></dc:title></cc:Work></rdf:RDF></metadata><defs
   id="defs885" /><sodipodi:namedview
   pagecolor="#ffffff"
   bordercolor="#666666"
   borderopacity="1"
   objecttolerance="10"
   gridtolerance="10"
   guidetolerance="10"
   inkscape:pageopacity="0"
   inkscape:pageshadow="2"
   inkscape:window-width="1387"
   inkscape:window-height="981"
   id="namedview883"
   showgrid="false"
   inkscape:zoom="1.2316035"
   inkscape:cx="289.13919"
   inkscape:cy="290"
   inkscape:window-x="383"
   inkscape:window-y="81"
   inkscape:window-maximized="0"
   inkscape:current-layer="svg881" />
<g
   id="Layer_2"
   transform="translate(0.81194959,-0.5683013)">
	<g
   id="g1327">
		<path
   id="path1329"
   d="M 66.275,1.768 C 24.94,1.768 1.704,23.139 1.704,66.804 v 450.123 c 0,40.844 20.894,62.229 62.192,62.229 H 515.92 c 41.307,0 62.229,-20.316 62.229,-62.229 V 66.804 c 0,-42.601 -20.923,-65.036 -63.522,-65.036 -0.003,0 -448.494,-0.143 -448.352,0 z"
   inkscape:connector-curvature="0"
   style="fill:#111111;stroke:#eeeeee;stroke-width:3.40799999" />
	</g>
</g>

<path
   inkscape:connector-curvature="0"
   d="m 152.35277,488.8238 h -45.88242 c -25.340245,0 -45.882418,-20.54218 -45.882418,-45.88243 V 381.76482 265.4315 L 128.01917,107.25525 c 4.15695,-9.750945 13.73323,-16.079045 24.3336,-16.079045 10.60372,0 20.18733,6.31953 24.36416,16.065875 l 97.98894,228.64033 15.29414,45.88241 c 24.72572,19.44896 29.82357,34.7431 15.29413,45.88242 -14.52974,11.13934 -65.51029,31.53162 -152.94137,61.17656 z m 183.52966,0 c 0,0 10.19598,-10.196 30.58827,-30.5883 39.39159,-39.39157 15.47675,-69.60759 -71.74511,-90.64804 l 10.56855,-31.70506 97.98864,-228.64032 c 4.17713,-9.746345 13.76042,-16.065875 24.36446,-16.065875 10.59976,0 20.17543,6.32872 24.33024,16.080255 l 67.43459,158.27293 v 123.88251 53.52948 c 0,25.34025 -20.54247,45.88242 -45.88242,45.88242 z M 152.35277,129.41155 91.176208,274.70587 l 61.176562,-30.58829 30.58827,61.17656 30.58827,-30.58827 z m 275.29447,0 -61.17654,145.29432 61.17654,-30.58829 30.58829,61.17656 30.58827,-30.58827 z"
   id="path9163"
   style="stroke-width:30.588274;fill:#ffffff;fill-opacity:1" /></svg>