<?xml version="1.0" encoding="UTF-8" standalone="no"?>
<!-- Generator: Adobe Illustrator 15.0.0, SVG Export Plug-In . SVG Version: 6.00 Build 0)  -->

<svg
   xmlns:dc="http://purl.org/dc/elements/1.1/"
   xmlns:cc="http://creativecommons.org/ns#"
   xmlns:rdf="http://www.w3.org/1999/02/22-rdf-syntax-ns#"
   xmlns:svg="http://www.w3.org/2000/svg"
   xmlns="http://www.w3.org/2000/svg"
   xmlns:sodipodi="http://sodipodi.sourceforge.net/DTD/sodipodi-0.dtd"
   xmlns:inkscape="http://www.inkscape.org/namespaces/inkscape"
   version="1.1"
   x="0px"
   y="0px"
   width="580px"
   height="580px"
   viewBox="0 0 580 580"
   enable-background="new 0 0 580 580"
   xml:space="preserve"
   id="svg8"
   sodipodi:docname="tree_stump.svg"
   inkscape:version="0.48.4 r9939"><metadata
     id="metadata14"><rdf:RDF><cc:Work
         rdf:about=""><dc:format>image/svg+xml</dc:format><dc:type
           rdf:resource="http://purl.org/dc/dcmitype/StillImage" /><dc:title></dc:title></cc:Work></rdf:RDF></metadata><defs
     id="defs12" /><sodipodi:namedview
     pagecolor="#ffffff"
     bordercolor="#666666"
     borderopacity="1"
     objecttolerance="10"
     gridtolerance="10"
     guidetolerance="10"
     inkscape:pageopacity="0"
     inkscape:pageshadow="2"
     inkscape:window-width="1332"
     inkscape:window-height="911"
     id="namedview10"
     showgrid="false"
     inkscape:zoom="0.94"
     inkscape:cx="289.57046"
     inkscape:cy="340.03324"
     inkscape:window-x="482"
     inkscape:window-y="142"
     inkscape:window-maximized="0"
     inkscape:current-layer="svg2" /><g
     id="Layer_2"><g
       id="g1327"><path
         id="path1329"
         fill="#111111"
         stroke="#EEEEEE"
         stroke-width="3.408"
         d="M66.275,1.768    c-41.335,0-64.571,21.371-64.571,65.036v450.123c0,40.844,20.894,62.229,62.192,62.229H515.92    c41.307,0,62.229-20.316,62.229-62.229V66.804c0-42.601-20.923-65.036-63.522-65.036C514.624,1.768,66.133,1.625,66.275,1.768z" /></g></g><g
     id="svg2"
     inkscape:version="0.46"
     sodipodi:docname="waste_bin.svg"
     sodipodi:version="0.32"
     inkscape:output_extension="org.inkscape.output.svg.inkscape"
     transform="matrix(2.4053452,0,0,7.8410721,-345.80657,-3707.8046)"><g
       id="g3761"
       transform="translate(0.52537871,1.6802973)"><path
         sodipodi:nodetypes="ccccc"
         style="fill:#ffffff"
         inkscape:connector-curvature="0"
         id="path5"
         d="m 250.6989,499.81583 c -5.54328,10.93369 -48.84342,29.79395 -70.25314,34.57232 l 166.658,0 c -30.01304,-10.10571 -61.70241,-28.77242 -61.59959,-34.4691 z" /><path
         inkscape:connector-curvature="0"
         id="path2988"
         d="m 227.77115,485.96772 c -1.93692,-0.24534 0.37546,-0.4048 -0.3138,-0.0698 -3.6022,-0.67939 -7.30106,-0.1858 -10.94298,-0.30141 -2.10414,-0.45425 -5.04894,1.94767 -2.09239,3.14999 1.02281,1.08831 5.38679,0.80138 5.03636,1.23604 -2.09272,-0.44729 -3.9494,2.01412 -1.53079,2.909 2.68291,0.20885 5.38242,-0.17087 8.07801,0.10299 1.83887,0.15484 2.79005,-1.11104 4.36231,0.0874 2.40274,0.75568 4.8886,1.18631 7.43142,1.12349 3.4789,0.0589 6.9975,0.2016 10.43352,-0.32817 2.86596,-0.0357 5.64652,0.99105 8.53014,0.63775 3.44194,-0.0518 6.86942,0.35291 10.31088,0.3261 1.8656,-2.03015 4.57268,-1.14886 7.01582,-1.0235 4.45514,0.37502 8.88099,1.11699 13.37179,0.93103 3.68679,-0.14836 7.44142,0.3336 11.06744,-0.42925 0.33185,-0.48397 -2.89877,-0.40148 -0.63105,-0.47974 3.36335,-0.0282 6.76071,0.0498 10.09206,-0.41534 2.25339,-0.59364 3.16573,-3.46514 5.29681,-4.15859 2.55269,0.36863 5.04213,-0.16789 7.52478,-0.36603 2.03907,0.29784 3.61382,-2.51945 0.80269,-2.46545 -1.96577,0.42541 -3.74188,-0.0859 -5.23993,-0.91724 -3.36532,-0.74718 -6.66251,-1.91546 -10.17293,-1.96027 -4.30255,-0.11614 -8.60894,-0.0627 -12.91329,-0.0813 -3.42855,-1.0865 -7.16431,-0.93762 -10.74086,-0.84262 -2.85284,0.19932 -5.68991,0.75184 -8.55261,0.28057 -5.3804,-0.0647 -10.77375,-0.29797 -16.15043,-0.0224 -2.30594,0.53442 -4.45721,1.41031 -6.70407,0.0333 -2.58207,-0.19108 -5.21046,-0.32614 -7.81102,-0.56752 -3.09653,-0.21231 -6.22492,-0.32919 -9.31409,-0.12221 -2.26972,0.8328 -4.5843,0.87775 -6.89316,1.32244 -1.88623,1.62927 1.16366,3.01614 2.76282,2.80931"
         style="fill:#ffffff;fill-opacity:1;stroke:#000000;stroke-width:0.20425327px;stroke-linecap:butt;stroke-linejoin:miter;stroke-opacity:1" /></g></g></svg>