<?xml version="1.0" encoding="utf-8"?>
<!-- Generator: Adobe Illustrator 15.0.0, SVG Export Plug-In . SVG Version: 6.00 Build 0)  -->
<!DOCTYPE svg PUBLIC "-//W3C//DTD SVG 1.1//EN" "http://www.w3.org/Graphics/SVG/1.1/DTD/svg11.dtd">
<svg version="1.1" xmlns="http://www.w3.org/2000/svg" xmlns:xlink="http://www.w3.org/1999/xlink" x="0px" y="0px" width="580px"
	 height="580px" viewBox="0 0 580 580" enable-background="new 0 0 580 580" xml:space="preserve">
<g id="Layer_2_1_">
	<g id="Layer_2">
		<g id="g1327">
			<path id="path1329" fill="#111111" stroke="#EEEEEE" stroke-width="3.408" d="M66.275,1.768
				c-41.335,0-64.571,21.371-64.571,65.036v450.123c0,40.844,20.895,62.229,62.192,62.229h452.024
				c41.307,0,62.229-20.315,62.229-62.229V66.804c0-42.602-20.923-65.036-63.521-65.036C514.625,1.768,66.133,1.625,66.275,1.768z"
				/>
		</g>
	</g>
</g>
<g id="Layer_1">
	<g>
		<path fill="#FFFFFF" d="M345.117,301.038c2.824-3.544,5.824-6.933,9.051-10.109c20.016-19.697,47.436-31.891,77.666-31.891
			c14.029,0,27.4,2.726,39.762,7.498v-60.095H442.82v-76.728h33.133v-20.926H263.08v20.926h29.652l-41.739,85.454H104.181
			c0,0-17.438-3.488-19.612,19.619l-26.376,58.853l17.219,53.832c9.298-4.899,19.86-7.71,31.078-7.71
			c23.029,0,43.384,11.706,55.414,29.476l159.223,3.509c-0.02-0.96-0.141-1.892-0.141-2.859
			C320.986,343.871,330.058,319.972,345.117,301.038z M319.771,139.302h90.791l0.877,108.999H300.695l17.439-59.29l-16.139-2.542
			L319.771,139.302z M299.771,192.371l-17.396,57.673h-4.342L299.771,192.371z M99.825,241.325h92.43v10.463h-92.43V241.325z
			 M99.825,263.994h92.43v10.471h-92.43V263.994z"/>
		<path fill="#FFFFFF" d="M446.273,330.944c-4.506-1.666-9.355-2.626-14.439-2.626c-3.691,0-7.264,0.529-10.674,1.433
			c-17.77,4.724-30.895,20.884-30.895,40.136c0,22.952,18.617,41.569,41.568,41.569c22.967,0,41.57-18.617,41.57-41.569
			C473.404,352.018,462.107,336.818,446.273,330.944z"/>
		<path fill="#FFFFFF" d="M106.49,346.991c-10.47,0-20.29,2.719-28.847,7.448c-18.356,10.174-30.796,29.723-30.796,52.194
			c0,32.935,26.701,59.643,59.643,59.643s59.643-26.708,59.643-59.643c0-14.254-5.02-27.329-13.364-37.594
			C141.832,355.597,125.171,346.991,106.49,346.991z M106.49,438.559c-17.636,0-31.925-14.297-31.925-31.926
			s14.289-31.925,31.925-31.925s31.925,14.296,31.925,31.925S124.126,438.559,106.49,438.559z"/>
		<path fill="#FFFFFF" d="M533.152,385.504v-31.269h-6.311c-0.291-1.758-0.572-3.523-0.953-5.246l5.795-2.329l-11.641-29.017
			l-5.854,2.344c-1.299-2.132-2.662-4.222-4.115-6.248l4.447-4.448l-22.111-22.111l-4.209,4.208l-0.24,0.239
			c-1.447-1.037-2.916-2.033-4.412-2.993l0.092-0.219l2.373-5.549l-14.418-6.164l-14.33-6.128l-2.479,5.789
			c-2.414-0.593-4.857-1.087-7.336-1.489v-6.312h-31.268v6.318c-1.766,0.29-3.523,0.572-5.254,0.953l-2.322-5.789l-29.016,11.642
			l2.344,5.846c-1.695,1.031-3.383,2.062-5.006,3.185c-0.432,0.296-0.826,0.628-1.25,0.932l-0.91-0.911l-3.529-3.529l-3.602,3.593
			l-9.523,9.531l-8.988,8.987l4.449,4.448c-1.039,1.447-2.033,2.908-2.994,4.412l-5.775-2.464l-12.283,28.748l5.789,2.479
			c-0.594,2.407-1.088,4.85-1.49,7.328h-6.305v18.681v12.588h6.311c0.291,1.765,0.572,3.522,0.953,5.26l-5.789,2.322l11.643,29.017
			l5.854-2.344c1.299,2.139,2.66,4.222,4.115,6.248l-4.447,4.447l22.111,22.112l4.447-4.448c1.447,1.031,2.916,2.033,4.42,2.986
			l-2.471,5.782l28.748,12.284l2.479-5.789c2.406,0.586,4.85,1.08,7.328,1.482v6.313h31.268v-6.319
			c1.766-0.289,3.523-0.571,5.254-0.953l2.328,5.797l29.018-11.643l-2.344-5.859c2.131-1.299,4.221-2.654,6.248-4.109l4.447,4.448
			l22.111-22.112l-4.455-4.454c1.039-1.44,2.033-2.909,2.994-4.413l5.775,2.472l12.291-28.748l-5.797-2.479
			c0.594-2.414,1.088-4.857,1.49-7.335H533.152z M431.834,430.13c-33.266,0-60.242-26.977-60.242-60.243
			c0-10.356,2.619-20.1,7.223-28.614c2.252-4.165,5.033-7.998,8.168-11.5c2.33-2.605,4.871-5.02,7.625-7.188
			c10.252-8.076,23.164-12.94,37.227-12.94c19.133,0,36.148,8.952,47.184,22.853c8.152,10.279,13.061,23.256,13.061,37.39
			C492.078,403.153,465.109,430.13,431.834,430.13z"/>
	</g>
</g>
</svg>
