<?xml version="1.0" encoding="UTF-8" standalone="no"?>
<!-- Created with Inkscape (http://www.inkscape.org/) -->

<svg
   xmlns:dc="http://purl.org/dc/elements/1.1/"
   xmlns:cc="http://creativecommons.org/ns#"
   xmlns:rdf="http://www.w3.org/1999/02/22-rdf-syntax-ns#"
   xmlns:svg="http://www.w3.org/2000/svg"
   xmlns="http://www.w3.org/2000/svg"
   xmlns:sodipodi="http://sodipodi.sourceforge.net/DTD/sodipodi-0.dtd"
   xmlns:inkscape="http://www.inkscape.org/namespaces/inkscape"
   width="580"
   height="580"
   viewBox="0 0 153.45833 153.45833"
   version="1.1"
   id="svg8"
   inkscape:version="0.92.3 (2405546, 2018-03-11)"
   sodipodi:docname="avalanche_protector.svg">
  <defs
     id="defs2">
    <clipPath
       clipPathUnits="userSpaceOnUse"
       id="clipPath356">
      <path
         inkscape:connector-curvature="0"
         d="M 0,792 1008,792 1008,0 0,0 0,792 z"
         id="path358" />
    </clipPath>
  </defs>
  <sodipodi:namedview
     id="base"
     pagecolor="#ffffff"
     bordercolor="#666666"
     borderopacity="1.0"
     inkscape:pageopacity="0.0"
     inkscape:pageshadow="2"
     inkscape:zoom="0.93"
     inkscape:cx="336.25577"
     inkscape:cy="154.21676"
     inkscape:document-units="mm"
     inkscape:current-layer="layer1"
     showgrid="false"
     units="px"
     inkscape:window-width="1920"
     inkscape:window-height="1147"
     inkscape:window-x="-8"
     inkscape:window-y="-8"
     inkscape:window-maximized="1" />
  <metadata
     id="metadata5">
    <rdf:RDF>
      <cc:Work
         rdf:about="">
        <dc:format>image/svg+xml</dc:format>
        <dc:type
           rdf:resource="http://purl.org/dc/dcmitype/StillImage" />
        <dc:title></dc:title>
      </cc:Work>
    </rdf:RDF>
  </metadata>
  <g
     inkscape:label="Ebene 1"
     inkscape:groupmode="layer"
     id="layer1"
     transform="translate(0,-143.54166)">
    <path
       d="m 128.04902,285.12922 h -25.71524 v -55.43786 l -43.941816,-32.4303 c -4.564378,1.08308 -5.415364,5.36896 -8.618165,4.48703 -3.465834,-0.92835 -8.943088,-0.85099 -10.536751,3.77527 -0.49512,2.72316 -3.079022,-3.28016 -6.018791,-3.07901 -3.481305,0.60342 -3.930007,2.05783 -4.595324,9.67028 -0.696261,8.04569 -5.013079,9.65482 -4.378708,4.68816 1.021183,-7.82906 -0.479646,-10.72242 -0.789096,-14.25014 -1.083072,-11.94474 6.235406,-13.73955 17.220858,-14.60601 8.200408,-1.0676 6.745996,-2.27445 13.569355,-6.79241 9.407261,-6.20446 12.300613,-4.47155 21.274644,-4.99761 10.366555,-0.60342 7.767179,-4.79647 16.41629,-5.86407 4.95119,-0.60342 10.428444,-1.29968 14.621484,-4.03831 7.56604,-4.93572 9.46915,0.43323 21.84712,-7.30301 0.46417,0 -0.35586,126.17799 -0.35586,126.17799 M 26.626985,227.2003 c -1.995948,3.63602 -3.295636,8.46343 -5.492726,11.96021 0.572481,-2.21256 2.057838,-13.69313 2.692209,-16.23062 0.293977,-1.2378 2.63032,0.99024 7.241116,-5.39989 -1.934059,4.95119 -2.738627,6.52938 -4.440599,9.6703 m 1.005711,28.12894 c -0.572482,-2.49107 -3.171856,-10.79978 -3.419416,-12.3625 -0.355866,-2.04237 2.32087,-5.09044 2.785044,-7.78265 0.572482,5.49272 0.665317,18.75263 0.634372,20.14515 M 135.33655,144.03577 H 18.859806 c -10.0880496,0 -18.27298552,8.18494 -18.27298552,18.28847 v 116.46127 c 0,10.08804 8.18493592,18.27298 18.27298552,18.27298 H 135.33655 c 10.08805,0 18.27299,-8.18494 18.27299,-18.27298 V 162.32424 c 0,-10.10353 -8.18494,-18.28847 -18.27299,-18.28847"
       style="fill:#373535;fill-opacity:1;fill-rule:nonzero;stroke:none;stroke-width:15.47246838"
       id="path4376"
       inkscape:connector-curvature="0"
       sodipodi:nodetypes="cccccccccccccccccccccccccccsssssssc" />
    <g
       transform="matrix(15.436167,0,0,-15.436167,102.36148,217.18342)"
       id="g4378">
      <path
         inkscape:connector-curvature="0"
         id="path4380"
         style="fill:#111111;fill-opacity:1;fill-rule:nonzero;stroke:none"
         d="M 0,0 V 2.145 L -1.969,1.462 Z" />
    </g>
    <path
       style="fill:#ffffff;stroke:none;stroke-width:0.19918016"
       d="m 49.861154,228.7289 c -4.235024,0 -6.48161,2.31205 -7.518769,5.01838 l -5.505548,14.21581 c -2.182498,0.27986 -6.051406,2.84171 -6.051406,7.69486 v 18.07792 h 5.358812 v 5.78141 c 0,7.11283 10.066109,7.02906 10.06611,0 v -5.78141 h 18.107265 0.0059 18.107253 v 5.78141 c 0,7.02906 10.066062,7.11283 10.066119,0 v -5.78141 h 5.358801 v -18.07792 c 0,-4.85314 -3.868875,-7.415 -6.051418,-7.69486 L 86.292878,233.74728 C 85.255722,231.04095 83.009155,228.7289 78.7741,228.7289 H 70.991193 57.737946 49.86115 Z m -0.06456,5.17686 h 14.509292 0.01173 0.0059 14.51515 c 1.814925,0.0169 2.592231,1.15191 3.110809,2.72342 l 4.149695,11.18718 H 64.32348 64.31758 64.30585 42.536046 l 4.149702,-11.18718 c 0.518582,-1.57151 1.295692,-2.70652 3.11081,-2.72342 z m -8.457879,19.35158 c 2.568097,0 4.648607,2.14268 4.648607,4.78948 -4e-6,2.64698 -2.08051,4.79534 -4.648607,4.79534 -2.567911,0 -4.648609,-2.14837 -4.648609,-4.79534 0,-2.64679 2.080698,-4.78948 4.648609,-4.78948 z m 45.963686,0 c 2.568098,0 4.648627,2.14269 4.648604,4.78948 0,2.64697 -2.080506,4.79534 -4.648604,4.79534 -2.567907,0 -4.654486,-2.14836 -4.654486,-4.79534 0,-2.6468 2.086579,-4.78948 4.654486,-4.78948 z"
       id="path2301"
       inkscape:connector-curvature="0" />
  </g>
</svg>
