<?xml version="1.0" encoding="UTF-8" standalone="no"?>
<!-- Generator: Adobe Illustrator 15.0.0, SVG Export Plug-In . SVG Version: 6.00 Build 0)  -->

<svg
   xmlns:dc="http://purl.org/dc/elements/1.1/"
   xmlns:cc="http://creativecommons.org/ns#"
   xmlns:rdf="http://www.w3.org/1999/02/22-rdf-syntax-ns#"
   xmlns:svg="http://www.w3.org/2000/svg"
   xmlns="http://www.w3.org/2000/svg"
   xmlns:sodipodi="http://sodipodi.sourceforge.net/DTD/sodipodi-0.dtd"
   xmlns:inkscape="http://www.inkscape.org/namespaces/inkscape"
   version="1.1"
   x="0px"
   y="0px"
   width="580px"
   height="580px"
   viewBox="0 0 580 580"
   enable-background="new 0 0 580 580"
   xml:space="preserve"
   id="svg3000"
   inkscape:version="0.92.3 (2405546, 2018-03-11)"
   sodipodi:docname="busway.svg"><metadata
   id="metadata3013"><rdf:RDF><cc:Work
       rdf:about=""><dc:format>image/svg+xml</dc:format><dc:type
         rdf:resource="http://purl.org/dc/dcmitype/StillImage" /><dc:title></dc:title></cc:Work></rdf:RDF></metadata><defs
   id="defs3011" /><sodipodi:namedview
   pagecolor="#ffffff"
   bordercolor="#666666"
   borderopacity="1"
   objecttolerance="10"
   gridtolerance="10"
   guidetolerance="10"
   inkscape:pageopacity="0"
   inkscape:pageshadow="2"
   inkscape:window-width="1725"
   inkscape:window-height="1026"
   id="namedview3009"
   showgrid="false"
   inkscape:snap-nodes="false"
   inkscape:zoom="1.0965517"
   inkscape:cx="140.05831"
   inkscape:cy="398.69183"
   inkscape:window-x="145"
   inkscape:window-y="76"
   inkscape:window-maximized="1"
   inkscape:current-layer="svg3000" />
<g
   id="Layer_1"
   transform="translate(0.0735,-0.43022222)">
	<g
   id="Layer_2">
		<g
   id="g1327">
			<path
   id="path1329"
   d="M 66.275,1.768 C 24.94,1.768 1.704,23.139 1.704,66.804 v 450.123 c 0,40.844 20.895,62.229 62.192,62.229 H 515.92 c 41.307,0 62.229,-20.315 62.229,-62.229 V 66.804 c 0,-42.602 -20.923,-65.036 -63.521,-65.036 -0.003,0 -448.495,-0.143 -448.353,0 z"
   inkscape:connector-curvature="0"
   style="fill:#111111;stroke:#eeeeee;stroke-width:3.40799999" />
		</g>
	</g>
</g>

<path
   inkscape:connector-curvature="0"
   id="path3797"
   d="m 154.95641,62.743802 c 0,0 7.99939,51.706088 33.4219,100.213088 23.11528,44.10468 71.67593,59.05412 -2.41604,110.95019 -74.09194,51.89605 -14.09357,-4.47381 11.67754,97.52879 25.77113,102.00261 -11.27485,144.95107 -11.27485,144.95107 l -109.12457,1.78953 c 0,0 96.23901,-36.68515 70.46789,-138.68776 -25.7711,-102.00259 -99.863064,-50.10653 -25.7711,-102.00259 74.09195,-51.89606 83.46318,-34.15806 45.90479,-110.95019 C 146.4432,122.78389 142.07086,61.849042 142.07086,61.849042 Z"
   style="fill:#ffffff;fill-opacity:1;stroke:#ffffff;stroke-width:0.65820163px;stroke-linecap:butt;stroke-linejoin:miter;stroke-opacity:1"
   sodipodi:nodetypes="ssscccssscs" /><path
   inkscape:connector-curvature="0"
   style="fill:#ffffff;stroke:none;stroke-width:0.53264493"
   d="m 381.96502,151.24683 c 0.36026,0 0.73455,0.0138 1.09858,0.0166 0.36655,-0.003 0.73585,-0.0166 1.09858,-0.0166 z m 1.09858,0.0166 c -25.58019,0.20268 -60.23777,7.40528 -74.70345,13.43264 -14.67297,6.11374 -24.45789,12.23042 -27.51444,27.51444 l -11.00245,84.74048 V 393.7001 h 18.95883 v 18.30967 c 0,22.32455 32.65779,22.32454 32.65779,0 V 393.7001 h 60.32204 0.1831 62.70229 v 18.30967 c 0,22.32455 32.67444,22.32454 32.67444,0 V 393.7001 h 18.95883 V 276.95103 l -11.00244,-84.74048 c -3.05655,-15.28402 -12.84147,-21.4007 -27.51444,-27.51444 -14.4671,-6.02795 -49.13918,-13.23131 -74.7201,-13.43264 z m -46.57314,21.38903 h 45.47456 47.68837 c 9.17092,0 9.17092,13.7489 0,13.7489 h -47.78824 -45.37469 c -9.17092,0 -9.17093,-13.7489 0,-13.7489 z m -24.7347,27.6476 h 70.10939 72.50629 c 9.68758,0 12.22317,4.91738 13.39935,12.38399 l 8.57225,61.45391 c 0.79858,5.89049 -0.91671,11.73482 -9.05496,11.73483 h -85.32306 -83.1259 c -8.13826,0 -9.8369,-5.84435 -9.03832,-11.73483 l 8.57225,-61.45391 c 1.17619,-7.46661 3.69513,-12.38399 13.38271,-12.38399 z m -6.60813,125.45452 c 8.65427,-10e-6 15.66309,7.02546 15.66309,15.67973 0,8.65428 -7.00882,15.66309 -15.66309,15.66309 -8.65427,1e-5 -15.67973,-7.00881 -15.67973,-15.66309 0,-8.65426 7.02546,-15.67973 15.67973,-15.67973 z m 155.84858,0 c 8.65427,0 15.66309,7.02547 15.66309,15.67973 0,8.65428 -7.00882,15.6631 -15.66309,15.66309 -8.65427,0 -15.67974,-7.00881 -15.67973,-15.66309 0,-8.65427 7.02547,-15.67974 15.67973,-15.67973 z"
   id="path2115" /></svg>