<?xml version="1.0" encoding="utf-8"?>
<!-- Generator: Adobe Illustrator 15.0.0, SVG Export Plug-In . SVG Version: 6.00 Build 0)  -->
<!DOCTYPE svg PUBLIC "-//W3C//DTD SVG 1.1//EN" "http://www.w3.org/Graphics/SVG/1.1/DTD/svg11.dtd">
<svg version="1.1" xmlns="http://www.w3.org/2000/svg" xmlns:xlink="http://www.w3.org/1999/xlink" x="0px" y="0px" width="580px"
	 height="580px" viewBox="0 0 580 580" enable-background="new 0 0 580 580" xml:space="preserve">
<g id="Layer_1">
	<g id="Layer_2">
		<g id="g1327">
			<path id="path1329" fill="#111111" stroke="#EEEEEE" stroke-width="3.408" d="M66.275,1.768
				c-41.335,0-64.571,21.371-64.571,65.036v450.123c0,40.844,20.895,62.229,62.192,62.229h452.024
				c41.307,0,62.229-20.315,62.229-62.229V66.804c0-42.602-20.923-65.036-63.521-65.036C514.625,1.768,66.133,1.625,66.275,1.768z"
				/>
		</g>
	</g>
</g>
<g id="Layer_2_1_">
	<path id="path2323" fill="#FFFFFF" d="M181.667,79.876c-31.729,0-48.561,17.322-56.331,37.598L84.087,223.981
		c-16.352,2.097-45.338,21.29-45.338,57.651v135.442h40.149v43.315c0,53.291,75.417,52.663,75.417,0v-43.315h135.662h0.044h135.663
		v43.315c0,52.663,75.417,53.291,75.417,0v-43.315h40.149V281.633c0-36.361-28.986-55.555-45.339-57.651L454.62,117.473
		c-7.771-20.275-24.603-37.598-56.332-37.598h-58.311h-99.296H181.667z M181.183,118.661h108.706h0.088h0.044h108.75
		c13.598,0.127,19.422,8.631,23.307,20.404l31.091,83.816H290.021h-0.044h-0.088H126.787l31.09-83.816
		C161.762,127.292,167.585,118.788,181.183,118.661z M117.815,263.646c19.241,0,34.828,16.054,34.828,35.884
		c0,19.832-15.587,35.928-34.828,35.928c-19.239,0-34.828-16.096-34.828-35.928C82.987,279.7,98.576,263.646,117.815,263.646z
		 M462.183,263.646c19.241,0,34.828,16.054,34.828,35.884c0,19.832-15.587,35.928-34.828,35.928
		c-19.239,0-34.872-16.096-34.872-35.928C427.311,279.7,442.944,263.646,462.183,263.646z"/>
</g>
</svg>
