<?xml version="1.0" encoding="utf-8"?>
<!-- Generator: Adobe Illustrator 15.0.0, SVG Export Plug-In . SVG Version: 6.00 Build 0)  -->
<!DOCTYPE svg PUBLIC "-//W3C//DTD SVG 1.1//EN" "http://www.w3.org/Graphics/SVG/1.1/DTD/svg11.dtd">
<svg version="1.1" xmlns="http://www.w3.org/2000/svg" xmlns:xlink="http://www.w3.org/1999/xlink" x="0px" y="0px" width="580px"
	 height="580px" viewBox="0 0 580 580" enable-background="new 0 0 580 580" xml:space="preserve">
<g id="Layer_2">
	<g id="g1327">
		<path id="path1329" fill="#111111" stroke="#EEEEEE" stroke-width="3.408" d="M66.275,1.768
			c-41.335,0-64.571,21.371-64.571,65.036v450.123c0,40.844,20.894,62.229,62.192,62.229H515.92
			c41.307,0,62.229-20.316,62.229-62.229V66.804c0-42.601-20.923-65.036-63.522-65.036C514.624,1.768,66.133,1.625,66.275,1.768z"/>
	</g>
</g>
<g id="svg2" inkscape:version="0.46" sodipodi:docname="waste_bin.svg" sodipodi:version="0.32" xmlns:dc="http://purl.org/dc/elements/1.1/" xmlns:cc="http://creativecommons.org/ns#" xmlns:sodipodi="http://sodipodi.sourceforge.net/DTD/sodipodi-0.dtd" xmlns:svg="http://www.w3.org/2000/svg" xmlns:rdf="http://www.w3.org/1999/02/22-rdf-syntax-ns#" xmlns:inkscape="http://www.inkscape.org/namespaces/inkscape" inkscape:output_extension="org.inkscape.output.svg.inkscape">
	<g>
		<path fill="#FFFFFF" d="M109.5,534c0,1.933-1.567,3.5-3.5,3.5l0,0c-1.933,0-3.5-1.567-3.5-3.5V48c0-1.933,1.567-3.5,3.5-3.5l0,0
			c1.933,0,3.5,1.567,3.5,3.5V534z"/>
	</g>
	<g>
		<path fill="#FFFFFF" d="M489.5,534c0,1.933-1.566,3.5-3.5,3.5l0,0c-1.934,0-3.5-1.567-3.5-3.5V48c0-1.933,1.566-3.5,3.5-3.5l0,0
			c1.934,0,3.5,1.567,3.5,3.5V534z"/>
	</g>
	<g>
		<path fill="#FFFFFF" d="M415,489H177c-33.36,0-60.5-27.141-60.5-60.5v-263c0-33.36,27.14-60.5,60.5-60.5h238
			c33.359,0,60.5,27.14,60.5,60.5v263C475.5,461.859,448.359,489,415,489z M177,124c-22.883,0-41.5,18.617-41.5,41.5v263
			c0,22.883,18.617,41.5,41.5,41.5h238c22.883,0,41.5-18.617,41.5-41.5v-263c0-22.883-18.617-41.5-41.5-41.5H177z"/>
	</g>
	<g>
		<g>
			<path fill="#FFFFFF" d="M217.201,209.701c6.555,0,12.116-2.28,16.682-6.842c4.566-4.562,6.849-9.981,6.849-16.258
				c0-6.563-2.283-12.126-6.849-16.688c-4.566-4.562-10.126-6.842-16.682-6.842c-6.277,0-11.698,2.281-16.265,6.842
				c-4.566,4.562-6.849,10.125-6.849,16.688c0,6.277,2.283,11.696,6.849,16.258C205.503,207.421,210.924,209.702,217.201,209.701z"
				/>
		</g>
		<g>
			<path fill="#FFFFFF" d="M374.773,209.283c6.276,0,11.698-2.283,16.265-6.849c4.565-4.566,6.849-9.987,6.849-16.264
				c0-6.555-2.283-12.044-6.849-16.467c-4.566-4.422-9.988-6.633-16.265-6.633c-6.277,0-11.696,2.211-16.258,6.633
				c-4.562,4.423-6.843,9.912-6.842,16.467c-0.001,6.277,2.28,11.698,6.842,16.264S368.496,209.284,374.773,209.283z"/>
		</g>
		<g>
			<path fill="#FFFFFF" d="M269.395,235.387c-1.427-4.57-4.705-8.992-9.832-13.267c-6.277-5.136-13.124-7.704-20.541-7.704h-45.782
				c-7.139,0-13.56,2.568-19.261,7.704c-4.283,3.987-7.135,8.41-8.554,13.267l-19.691,65.461c-0.566,1.429-0.849,2.713-0.849,3.853
				c0,6.564,3.278,9.846,9.833,9.846c4.57,0,7.569-2.567,8.997-7.704l17.968-59.911h9.833L161.99,353.473h28.676v83.012
				c0,7.417,3.565,11.126,10.694,11.126c7.13,0,10.695-3.709,10.695-11.126v-83.429h10.708v83.86
				c-0.001,7.129,3.564,10.694,10.694,10.694s10.695-3.565,10.695-10.694v-83.443h28.663l-29.942-106.542h10.264l17.968,59.911
				c1.428,5.137,4.422,7.704,8.984,7.704c6.563,0,9.846-3.281,9.846-9.846c0-1.428-0.283-2.712-0.849-3.853L269.395,235.387z"/>
		</g>
		<g>
			<path fill="#FFFFFF" d="M426.771,223.184c-5.563-6.133-12.767-9.199-21.611-9.2h-61.191c-8.271,0-15.33,2.925-21.181,8.775
				c-5.85,5.85-8.775,13.054-8.775,21.611v71.023c0,6.853,3.139,10.277,9.416,10.277c5.989,0,8.983-3.425,8.983-10.277v-69.313
				h11.126v188.274c0,8.557,4.278,12.836,12.836,12.836s12.836-4.279,12.837-12.836V325.242h11.125v109.114
				c0,8.557,4.278,12.836,12.837,12.836c8.844,0,13.267-4.279,13.268-12.836V246.082h10.694v69.313
				c0,7.131,2.994,10.696,8.983,10.696c5.998,0,8.997-3.565,8.998-10.696v-70.605C435.115,236.519,432.334,229.317,426.771,223.184z
				"/>
		</g>
	</g>
</g>
</svg>
