<?xml version="1.0" encoding="utf-8"?>
<!-- Generator: Adobe Illustrator 15.0.0, SVG Export Plug-In . SVG Version: 6.00 Build 0)  -->
<!DOCTYPE svg PUBLIC "-//W3C//DTD SVG 1.1//EN" "http://www.w3.org/Graphics/SVG/1.1/DTD/svg11.dtd">
<svg version="1.1" xmlns="http://www.w3.org/2000/svg" xmlns:xlink="http://www.w3.org/1999/xlink" x="0px" y="0px" width="580px"
	 height="580px" viewBox="0 0 580 580" enable-background="new 0 0 580 580" xml:space="preserve">
<g id="Layer_2">
	<g id="g1327">
		<path id="path1329" fill="#111111" stroke="#EEEEEE" stroke-width="3.408" d="M66.275,1.768
			c-41.335,0-64.571,21.371-64.571,65.036v450.123c0,40.844,20.894,62.229,62.192,62.229H515.92
			c41.307,0,62.229-20.316,62.229-62.229V66.804c0-42.601-20.923-65.036-63.522-65.036C514.624,1.768,66.133,1.625,66.275,1.768z"/>
	</g>
</g>
<g id="svg2" inkscape:version="0.46" sodipodi:docname="waste_bin.svg" sodipodi:version="0.32" xmlns:dc="http://purl.org/dc/elements/1.1/" xmlns:cc="http://creativecommons.org/ns#" xmlns:sodipodi="http://sodipodi.sourceforge.net/DTD/sodipodi-0.dtd" xmlns:svg="http://www.w3.org/2000/svg" xmlns:rdf="http://www.w3.org/1999/02/22-rdf-syntax-ns#" xmlns:inkscape="http://www.inkscape.org/namespaces/inkscape" inkscape:output_extension="org.inkscape.output.svg.inkscape">
	<g>
		<polygon fill="#FFFFFF" points="491.699,59.425 417.571,59.425 417.571,86.146 329.65,86.146 329.65,59.425 253.798,59.425 
			253.798,86.146 165.015,86.146 165.015,59.425 90.887,59.425 37.445,282.673 542.555,282.673 		"/>
		<polygon fill="#FFFFFF" points="41.679,302.499 535.999,302.499 539.175,292.154 38.504,292.154 		"/>
		<polygon fill="#FFFFFF" points="65.894,381.368 511.785,381.368 528.764,326.065 528.764,311.118 44.325,311.118 		"/>
		<polygon fill="#FFFFFF" points="125.233,496.44 132.616,520.574 171.912,520.574 171.912,496.44 264.141,496.44 264.141,520.574 
			312.411,520.574 312.411,496.44 404.642,496.44 404.642,520.574 445.062,520.574 452.446,496.44 485.93,386.971 91.749,386.971 		
			"/>
		<rect x="171.794" y="59.425" fill="#FFFFFF" width="74.129" height="21.837"/>
		<rect x="335.566" y="59.425" fill="#FFFFFF" width="74.13" height="21.837"/>
	</g>
</g>
</svg>
