<?xml version="1.0" encoding="utf-8"?>
<!-- Generator: Adobe Illustrator 15.0.0, SVG Export Plug-In . SVG Version: 6.00 Build 0)  -->
<!DOCTYPE svg PUBLIC "-//W3C//DTD SVG 1.1//EN" "http://www.w3.org/Graphics/SVG/1.1/DTD/svg11.dtd">
<svg version="1.1" xmlns="http://www.w3.org/2000/svg" xmlns:xlink="http://www.w3.org/1999/xlink" x="0px" y="0px" width="580px"
	 height="580px" viewBox="0 0 580 580" enable-background="new 0 0 580 580" xml:space="preserve">
<g id="Layer_2">
	<g id="g1327">
		<path id="path1329" fill="#111111" stroke="#EEEEEE" stroke-width="3.408" d="M66.275,1.768
			c-41.335,0-64.571,21.371-64.571,65.036v450.123c0,40.844,20.894,62.229,62.192,62.229H515.92
			c41.307,0,62.229-20.316,62.229-62.229V66.804c0-42.601-20.923-65.036-63.522-65.036C514.624,1.768,66.133,1.625,66.275,1.768z"/>
	</g>
</g>
<g id="svg2" inkscape:output_extension="org.inkscape.output.svg.inkscape" inkscape:version="0.46" sodipodi:docname="waste_bin.svg" sodipodi:version="0.32" xmlns:inkscape="http://www.inkscape.org/namespaces/inkscape" xmlns:rdf="http://www.w3.org/1999/02/22-rdf-syntax-ns#" xmlns:svg="http://www.w3.org/2000/svg" xmlns:sodipodi="http://sodipodi.sourceforge.net/DTD/sodipodi-0.dtd" xmlns:cc="http://creativecommons.org/ns#" xmlns:dc="http://purl.org/dc/elements/1.1/">
	<g>
		<path fill="#FFFFFF" d="M295.574,77.5h-11.148C193.616,77.5,120,151.116,120,241.926v11.147h340v-11.147
			C460,151.116,386.385,77.5,295.574,77.5z"/>
		<path fill="#FFFFFF" d="M179.144,373.058c4.125,0,7.427-1.225,9.902-3.675c2.475-2.448,3.713-5.841,3.713-10.173
			c0-4.073-1.226-7.336-3.674-9.786c-2.45-2.448-5.686-3.674-9.708-3.674c-4.178,0-7.504,1.237-9.979,3.713
			s-3.713,5.751-3.713,9.824c0,4.333,1.225,7.711,3.674,10.135C171.807,371.847,175.069,373.058,179.144,373.058z"/>
		<path fill="#FFFFFF" d="M179.763,426.899c4.487,0,8.2-1.61,11.14-4.835c2.939-3.222,4.41-7.877,4.41-13.963
			c0-5.312-1.497-9.579-4.487-12.803c-2.992-3.223-6.783-4.835-11.372-4.835c-5.313,0-9.271,1.831-11.875,5.492
			c-2.605,3.662-3.907,7.633-3.907,11.913c0,5.983,1.534,10.65,4.603,14.002C171.342,425.225,175.172,426.899,179.763,426.899z"/>
		<path fill="#FFFFFF" d="M120,502.5h340V269.795H120V502.5z M410.681,394.409c-2.939-3.197-6.524-4.797-10.753-4.797
			c-2.785,0-6.111,0.542-9.979,1.625l2.398-17.716c5.879,0.155,10.366-1.121,13.46-3.829c3.095-2.707,4.642-6.305,4.642-10.792
			c0-3.815-1.135-6.858-3.403-9.128c-2.271-2.269-5.287-3.404-9.052-3.404c-3.713,0-6.885,1.29-9.515,3.868
			c-2.63,2.58-4.229,6.344-4.797,11.295l-20.036-3.404c1.393-6.858,3.494-12.339,6.306-16.438c2.81-4.101,6.729-7.323,11.758-9.67
			s10.663-3.521,16.903-3.521c10.676,0,19.236,3.404,25.684,10.212c5.312,5.57,7.968,11.862,7.968,18.876
			c0,9.954-5.441,17.896-16.322,23.826c6.498,1.393,11.693,4.514,15.588,9.361c3.894,4.848,5.841,10.702,5.841,17.561
			c0,9.954-3.637,18.438-10.908,25.451s-16.323,10.521-27.153,10.521c-10.264,0-18.772-2.951-25.528-8.857
			c-6.757-5.905-10.676-13.628-11.759-23.169l21.042-2.554c0.669,5.365,2.476,9.465,5.415,12.301
			c2.939,2.837,6.498,4.255,10.676,4.255c4.486,0,8.264-1.702,11.333-5.106c3.067-3.403,4.603-7.993,4.603-13.77
			C415.09,401.939,413.62,397.607,410.681,394.409z M323.419,420.634h21.738v21.738h-21.738V420.634z M230.666,330.51h74.342v15.781
			c-6.138,6.034-12.378,14.698-18.721,25.993c-6.344,11.294-11.179,23.299-14.505,36.011c-3.327,12.714-4.964,24.072-4.913,34.077
			h-20.964c0.36-15.678,3.597-31.666,9.708-47.963s14.273-30.867,24.484-43.709h-49.433V330.51z M148.935,371.395
			c-2.553-4.151-3.829-8.703-3.829-13.654c0-8.457,2.952-15.445,8.857-20.964c5.905-5.519,14.298-8.278,25.181-8.278
			c10.778,0,19.146,2.76,25.104,8.278c5.957,5.519,8.935,12.507,8.935,20.964c0,5.261-1.367,9.94-4.1,14.041
			c-2.734,4.1-6.576,7.233-11.527,9.399c6.292,2.527,11.075,6.215,14.35,11.063c3.275,4.848,4.913,10.443,4.913,16.787
			c0,10.47-3.34,18.979-10.018,25.528c-6.68,6.55-15.563,9.824-26.65,9.824c-10.315,0-18.902-2.707-25.761-8.122
			c-8.098-6.395-12.146-15.163-12.146-26.303c0-6.137,1.521-11.771,4.564-16.903c3.042-5.131,7.839-9.09,14.389-11.874
			C155.574,378.809,151.488,375.547,148.935,371.395z"/>
	</g>
</g>
</svg>
