<?xml version="1.0" encoding="utf-8"?>
<!-- Generator: Adobe Illustrator 15.0.0, SVG Export Plug-In . SVG Version: 6.00 Build 0)  -->
<!DOCTYPE svg PUBLIC "-//W3C//DTD SVG 1.1//EN" "http://www.w3.org/Graphics/SVG/1.1/DTD/svg11.dtd">
<svg version="1.1" xmlns="http://www.w3.org/2000/svg" xmlns:xlink="http://www.w3.org/1999/xlink" x="0px" y="0px" width="580px"
	 height="580px" viewBox="0 0 580 580" enable-background="new 0 0 580 580" xml:space="preserve">
<g id="Layer_2">
	<g id="g1327">
		<path id="path1329" fill="#111111" stroke="#EEEEEE" stroke-width="3.408" d="M66.275,1.768
			c-41.335,0-64.571,21.371-64.571,65.036v450.123c0,40.844,20.894,62.229,62.192,62.229H515.92
			c41.307,0,62.229-20.316,62.229-62.229V66.804c0-42.601-20.923-65.036-63.522-65.036C514.624,1.768,66.133,1.625,66.275,1.768z"/>
	</g>
</g>
<g id="svg2" inkscape:version="0.46" sodipodi:docname="waste_bin.svg" sodipodi:version="0.32" xmlns:dc="http://purl.org/dc/elements/1.1/" xmlns:cc="http://creativecommons.org/ns#" xmlns:sodipodi="http://sodipodi.sourceforge.net/DTD/sodipodi-0.dtd" xmlns:svg="http://www.w3.org/2000/svg" xmlns:rdf="http://www.w3.org/1999/02/22-rdf-syntax-ns#" xmlns:inkscape="http://www.inkscape.org/namespaces/inkscape" inkscape:output_extension="org.inkscape.output.svg.inkscape">
	<g>
		<path fill="#FFFFFF" d="M551.5,184c0-0.33,0-0.67,0-1c-13.39-7.939-25.819-16.85-40-24c-54.149,33.19-106.359,68.311-161,101
			c10.25,10.62,25.521,17.55,39,26c26.78-16.89,55.94-36.729,82-51c-11.409,17.09-18.84,47.32-14,75c2.37,13.561,9.54,25.011,13,35
			c-86.62-54.83-178.39-110.989-263-166c48.95,10.561,115.96,10.3,165,0c-24.779,16.221-49.84,32.16-76,47
			c10.62,10.61,26.17,17.511,40,26c53.21-34.79,108.261-67.739,161-103c-12.13-8.2-25.399-15.27-37-24c-1,0-2,0-3,0
			c-44.38,29.16-111.76,46.04-181,43c-59.29-2.609-117.49-16.319-154-43c-1,0-2,0-3,0c-12.04,7.96-23.83,16.17-37,23
			c6.87,8.261,17.29,12.55,26,18c133.57,83.511,268.45,170.891,403,255c13.851-7.479,26.311-16.35,40-24c0-0.33,0-0.67,0-1
			c-21.319-15.149-43.189-31.95-56-55c-4.909-8.84-10.63-20.81-13-32c-4.88-23.08,1.04-43.39,7-58
			C501.82,220.811,527.301,200.32,551.5,184z"/>
		<path fill="#FFFFFF" d="M28.5,182c0,0.67,0,1.33,0,2c25.471,17.011,51.561,39.98,63,71c7.96,21.601,7.98,50.351,0,71
			c-11.56,29.92-37.59,52.98-63,69c0,0.67,0,1.33,0,2c13.17,7.83,25.29,16.71,39,24c53.181-34.479,108.29-67.04,161-102
			c-12.93-8.399-25.26-17.41-39-25c-27.05,15.95-55.399,35.931-81,50c6.59-14.88,15.03-33.52,15-54
			c-0.029-20.689-8.649-39.729-15-55c76.811,47.33,154.061,97.49,231,146c10.37,6.54,22.19,11.48,31,20
			c-46.729-11.08-116.189-10.68-163,0c24.62-16.71,50.931-31.729,75-49c-13.06-7.939-25.18-16.819-39-24
			c-54.149,33.19-106.359,68.311-161,101c9.811,11.19,25.91,16.091,37,26c0.67,0,1.33,0,2,0c38.28-23.779,92.101-41.319,153-44
			c72.561-3.189,138.57,16.671,183,44c0.671,0,1.33,0,2,0c12.41-8.26,25.051-16.279,38-24c-142.04-91.96-286.81-181.189-430-272
			C53.24,165.41,42.601,175.431,28.5,182z"/>
	</g>
</g>
</svg>
