<?xml version="1.0" encoding="UTF-8" standalone="no"?>
<!-- Generator: Adobe Illustrator 15.0.0, SVG Export Plug-In . SVG Version: 6.00 Build 0)  -->

<svg
   version="1.1"
   x="0px"
   y="0px"
   width="580px"
   height="580px"
   viewBox="0 0 580 580"
   enable-background="new 0 0 580 580"
   xml:space="preserve"
   id="svg4"
   sodipodi:docname="scramble.svg"
   inkscape:version="1.4 (86a8ad7, 2024-10-11)"
   xmlns:inkscape="http://www.inkscape.org/namespaces/inkscape"
   xmlns:sodipodi="http://sodipodi.sourceforge.net/DTD/sodipodi-0.dtd"
   xmlns="http://www.w3.org/2000/svg"
   xmlns:svg="http://www.w3.org/2000/svg"><defs
   id="defs4">
	

		
		
		
		
	</defs><sodipodi:namedview
   id="namedview4"
   pagecolor="#ffffff"
   bordercolor="#666666"
   borderopacity="1.0"
   inkscape:showpageshadow="2"
   inkscape:pageopacity="0.0"
   inkscape:pagecheckerboard="0"
   inkscape:deskcolor="#d1d1d1"
   inkscape:zoom="1.1009789"
   inkscape:cx="412.3603"
   inkscape:cy="428.25524"
   inkscape:window-width="1904"
   inkscape:window-height="1131"
   inkscape:window-x="38"
   inkscape:window-y="10"
   inkscape:window-maximized="0"
   inkscape:current-layer="svg4" />
<g
   id="Layer_2">
	<g
   id="g1327">
		<path
   id="path1329"
   fill="#111111"
   stroke="#EEEEEE"
   stroke-width="3.408"
   d="M66.275,1.768    c-41.335,0-64.571,21.371-64.571,65.036v450.123c0,40.844,20.894,62.229,62.192,62.229H515.92    c41.307,0,62.229-20.316,62.229-62.229V66.804c0-42.601-20.923-65.036-63.522-65.036C514.624,1.768,66.133,1.625,66.275,1.768z" />
	</g>
</g>
<path
   fill="#ffffff"
   d="m 273.1075,286.64309 c -11.31812,-1.52102 -15.85753,-14.15435 -15.93165,-20.25861 -0.0278,-6.18728 5.65365,-11.28211 15.8582,-15.99009 10.48306,-4.92369 25.75896,-9.18875 46.32865,-12.93504 5.29451,-22.53624 10.07196,-40.18148 14.32909,-53.96373 4.40114,-13.75348 5.82236,-20.27638 11.12899,-27.81399 5.59595,-7.96212 12.39794,-15.91836 21.03146,-18.4668 8.55305,-2.59494 15.34554,-2.21985 30.10064,3.70783 15.02305,5.92184 41.98166,21.79575 58.55035,31.55215 16.54993,9.41904 30.04105,17.14464 39.49587,25.30974 9.48334,8.01917 14.39688,13.94253 16.67678,23.07856 2.27888,9.1363 2.23224,19.33346 -3.47103,30.6984 -5.75699,10.89939 -17.50931,21.40577 -31.02042,34.88057 -13.3879,13.44153 -29.46078,28.11551 -48.97374,44.98581 7.41427,26.28543 13.05432,47.62984 17.37678,65.76122 4.47187,17.67697 8.32172,27.96589 10.36733,40.99606 -1.20903,16.417 0.30061,25.36564 -17.24691,29.1438 -5.05193,-0.75296 -7.97546,-4.6939 -13.97546,-20.14981 -17.80925,-46.65072 -9.72569,-22.91442 -18.57382,-45.96262 -7.03128,-18.33793 -16.50921,-41.59423 -24.42319,-73.31332 l 50.68421,-78.85565 -61.7261,-35.20746 c -3.94207,13.21373 -7.17536,24.02699 -10.39088,32.63043 -2.94057,8.391 -2.73838,13.70195 -8.32186,18.4268 -5.52304,4.43322 -12.58277,5.57778 -25.61831,9.21732 -13.01055,3.70493 -40.7324,13.57854 -52.25498,12.52843 z"
   id="path1"
   style="stroke-width:1.07624"
   sodipodi:nodetypes="cccccccccccccccccccccccccc" /><path
   fill="#ffffff"
   d="m 327.6675,148.31272 c -22.01534,5.97977 -44.38568,-5.74444 -49.93399,-26.17133 -5.54858,-20.42787 7.81729,-41.85867 29.83167,-47.838173 22.01631,-5.98003 44.38621,5.746373 49.93426,26.172303 5.54805,20.42593 -7.81466,41.85691 -29.83194,47.8372 z"
   id="path2" />
<path
   style="fill:#ffffff;stroke-linecap:round"
   d="M 83.783415,114.61387 V 490.43613 H 455.75021 L 281.04368,408.14654 252.42525,291.24731 Z m 379.674425,375.8206 -9.70763,-1.99834 H 85.783415 Z"
   id="rect4"
   sodipodi:nodetypes="cccccccccc" /></svg>
