<?xml version="1.0" encoding="UTF-8" standalone="no"?>
<!-- Generator: Adobe Illustrator 15.0.0, SVG Export Plug-In . SVG Version: 6.00 Build 0)  -->

<svg
   xmlns:dc="http://purl.org/dc/elements/1.1/"
   xmlns:cc="http://creativecommons.org/ns#"
   xmlns:rdf="http://www.w3.org/1999/02/22-rdf-syntax-ns#"
   xmlns:svg="http://www.w3.org/2000/svg"
   xmlns="http://www.w3.org/2000/svg"
   xmlns:sodipodi="http://sodipodi.sourceforge.net/DTD/sodipodi-0.dtd"
   xmlns:inkscape="http://www.inkscape.org/namespaces/inkscape"
   version="1.1"
   x="0px"
   y="0px"
   width="580px"
   height="580px"
   viewBox="0 0 580 580"
   enable-background="new 0 0 580 580"
   xml:space="preserve"
   id="svg3000"
   inkscape:version="0.48.4 r9939"
   sodipodi:docname="residential_sp.svg"><metadata
   id="metadata3013"><rdf:RDF><cc:Work
       rdf:about=""><dc:format>image/svg+xml</dc:format><dc:type
         rdf:resource="http://purl.org/dc/dcmitype/StillImage" /><dc:title></dc:title></cc:Work></rdf:RDF></metadata><defs
   id="defs3011" /><sodipodi:namedview
   pagecolor="#ffffff"
   bordercolor="#666666"
   borderopacity="1"
   objecttolerance="10"
   gridtolerance="10"
   guidetolerance="10"
   inkscape:pageopacity="0"
   inkscape:pageshadow="2"
   inkscape:window-width="1725"
   inkscape:window-height="1026"
   id="namedview3009"
   showgrid="false"
   inkscape:snap-nodes="false"
   inkscape:zoom="1.0965517"
   inkscape:cx="140.05831"
   inkscape:cy="398.69183"
   inkscape:window-x="145"
   inkscape:window-y="76"
   inkscape:window-maximized="0"
   inkscape:current-layer="svg3000" />
<g
   id="Layer_1"
   transform="translate(0.0735,-0.43022222)">
	<g
   id="Layer_2">
		<g
   id="g1327">
			<path
   id="path1329"
   d="M 66.275,1.768 C 24.94,1.768 1.704,23.139 1.704,66.804 v 450.123 c 0,40.844 20.895,62.229 62.192,62.229 H 515.92 c 41.307,0 62.229,-20.315 62.229,-62.229 V 66.804 c 0,-42.602 -20.923,-65.036 -63.521,-65.036 -0.003,0 -448.495,-0.143 -448.353,0 z"
   inkscape:connector-curvature="0"
   style="fill:#111111;stroke:#eeeeee;stroke-width:3.40799999" />
		</g>
	</g>
</g>

<path
   inkscape:connector-curvature="0"
   id="path3797"
   d="m 306.43625,63.607583 c 0,0 6.13177,51.714147 25.61887,100.228697 17.71855,44.11156 54.94172,59.06333 -1.85196,110.96748 -56.79367,51.90414 -10.80314,-4.4745 8.95118,97.54399 19.75433,102.0185 -8.64251,144.97366 -8.64251,144.97366 l -83.64721,1.78981 c 0,0 73.77005,-36.69087 54.01572,-138.70938 -19.75431,-102.01848 -76.54799,-50.11433 -19.75431,-102.01848 56.79367,-51.90415 63.977,-34.16338 35.18738,-110.96748 C 299.91062,123.65702 296.55909,62.712683 296.55909,62.712683 z"
   style="fill:#ffffff;fill-opacity:1;stroke:#ffffff;stroke-width:0.57631147px;stroke-linecap:butt;stroke-linejoin:miter;stroke-opacity:1"
   sodipodi:nodetypes="ssscccssscs" /><g
   id="g4432"
   transform="matrix(1.9361148,0,0,1.7538978,-352.1719,-161.81795)"><path
     style="fill:none;stroke:#ffffff;stroke-width:9;stroke-linecap:butt;stroke-linejoin:miter;stroke-miterlimit:4;stroke-opacity:1;stroke-dasharray:none"
     d="m 250.15974,221.29338 -0.11509,-58.19999"
     id="path4434"
     inkscape:connector-curvature="0" /><path
     inkscape:connector-curvature="0"
     id="path4436"
     d="m 301.68491,222.20533 -0.1151,-58.19999"
     style="fill:none;stroke:#ffffff;stroke-width:9;stroke-linecap:butt;stroke-linejoin:miter;stroke-miterlimit:4;stroke-opacity:1;stroke-dasharray:none" /><path
     style="fill:none;stroke:#ffffff;stroke-width:9;stroke-linecap:butt;stroke-linejoin:miter;stroke-miterlimit:4;stroke-opacity:1;stroke-dasharray:none"
     d="m 235.511,173.49841 38.75787,-26.90251 41.94968,26.44654"
     id="path4438"
     inkscape:connector-curvature="0" /></g><g
   transform="matrix(1.9359021,0,0,1.764792,-391.32705,81.031634)"
   id="g4472"><path
     inkscape:connector-curvature="0"
     id="path4474"
     d="m 250.15974,221.29338 -0.11509,-58.19999"
     style="fill:none;stroke:#ffffff;stroke-width:9;stroke-linecap:butt;stroke-linejoin:miter;stroke-miterlimit:4;stroke-opacity:1;stroke-dasharray:none" /><path
     style="fill:none;stroke:#ffffff;stroke-width:9;stroke-linecap:butt;stroke-linejoin:miter;stroke-miterlimit:4;stroke-opacity:1;stroke-dasharray:none"
     d="m 301.68491,222.20533 -0.1151,-58.19999"
     id="path4476"
     inkscape:connector-curvature="0" /><path
     inkscape:connector-curvature="0"
     id="path4478"
     d="m 235.511,173.49841 38.75787,-26.90251 41.94968,26.44654"
     style="fill:none;stroke:#ffffff;stroke-width:9;stroke-linecap:butt;stroke-linejoin:miter;stroke-miterlimit:4;stroke-opacity:1;stroke-dasharray:none" /></g><g
   id="g4480"
   transform="matrix(1.7321934,0,0,1.6464767,-5.0052015,22.141502)"><path
     style="fill:none;stroke:#ffffff;stroke-width:9;stroke-linecap:butt;stroke-linejoin:miter;stroke-miterlimit:4;stroke-opacity:1;stroke-dasharray:none"
     d="m 250.15974,221.29338 -0.11509,-58.19999"
     id="path4482"
     inkscape:connector-curvature="0" /><path
     inkscape:connector-curvature="0"
     id="path4484"
     d="m 301.68491,222.20533 -0.1151,-58.19999"
     style="fill:none;stroke:#ffffff;stroke-width:9;stroke-linecap:butt;stroke-linejoin:miter;stroke-miterlimit:4;stroke-opacity:1;stroke-dasharray:none" /><path
     style="fill:none;stroke:#ffffff;stroke-width:9;stroke-linecap:butt;stroke-linejoin:miter;stroke-miterlimit:4;stroke-opacity:1;stroke-dasharray:none"
     d="m 235.511,173.49841 38.75787,-26.90251 41.94968,26.44654"
     id="path4486"
     inkscape:connector-curvature="0" /></g></svg>