<?xml version="1.0" encoding="utf-8"?>
<!-- Generator: Adobe Illustrator 15.0.0, SVG Export Plug-In . SVG Version: 6.00 Build 0)  -->
<!DOCTYPE svg PUBLIC "-//W3C//DTD SVG 1.1//EN" "http://www.w3.org/Graphics/SVG/1.1/DTD/svg11.dtd">
<svg version="1.1" xmlns="http://www.w3.org/2000/svg" xmlns:xlink="http://www.w3.org/1999/xlink" x="0px" y="0px" width="580px"
	 height="580px" viewBox="0 0 580 580" enable-background="new 0 0 580 580" xml:space="preserve">
<g id="Layer_2">
	<g id="g1327">
		<path id="path1329" fill="#111111" stroke="#EEEEEE" stroke-width="3.408" d="M66.275,1.768
			c-41.335,0-64.571,21.371-64.571,65.036v450.123c0,40.844,20.894,62.229,62.192,62.229H515.92
			c41.307,0,62.229-20.316,62.229-62.229V66.804c0-42.601-20.923-65.036-63.522-65.036C514.624,1.768,66.133,1.625,66.275,1.768z"/>
	</g>
</g>
<g id="svg2" inkscape:version="0.46" sodipodi:docname="waste_bin.svg" sodipodi:version="0.32" xmlns:inkscape="http://www.inkscape.org/namespaces/inkscape" xmlns:rdf="http://www.w3.org/1999/02/22-rdf-syntax-ns#" xmlns:dc="http://purl.org/dc/elements/1.1/" xmlns:cc="http://creativecommons.org/ns#" xmlns:svg="http://www.w3.org/2000/svg" xmlns:sodipodi="http://sodipodi.sourceforge.net/DTD/sodipodi-0.dtd" inkscape:output_extension="org.inkscape.output.svg.inkscape">
	<g>
		<path fill="#FFFFFF" d="M82.12,271.48c-11.592,0-33.983,29.377-33.983,56.213c0,21.598,9.858,39.893,23.487,46.218l-2.821,152.503
			h26.633l-2.821-152.503c13.63-6.325,23.486-24.62,23.486-46.218C116.102,300.857,93.712,271.48,82.12,271.48z"/>
		<path fill="#FFFFFF" d="M221.244,348.719l-3.542-73.437c0-1.403-1.138-2.541-2.542-2.541h-1.667c-1.404,0-2.541,1.138-2.541,2.541
			l1.18,73.437h-7.335l-1.858-74.152c0-1.403-1.138-2.541-2.541-2.541h-2.171c-1.403,0-2.54,1.138-2.54,2.541l1.003,74.152h-9.101
			l1.003-74.152c0-1.403-1.135-2.541-2.54-2.541h-2.17c-1.404,0-2.542,1.138-2.542,2.541l-1.858,74.152h-7.18l1.179-73.428
			c0-1.402-1.136-2.54-2.54-2.54h-1.668c-1.403,0-2.542,1.138-2.542,2.54l-3.682,73.428c0,21.598,4.966,29.73,18.596,36.055
			l-2.822,141.641h26.632l-2.818-141.641C216.265,378.449,221.244,370.316,221.244,348.719z"/>
	</g>
	<g>
		<path fill="#FFFFFF" d="M380.402,214.637H187.338c-2.538,0-4.597,2.057-4.597,4.596s2.059,4.598,4.597,4.598h193.064
			c2.539,0,4.597-2.059,4.597-4.598S382.941,214.637,380.402,214.637z"/>
		<path fill="#FFFFFF" d="M394.537,56.508H370.29h-14.136H201.128V190.55c0,8.949,7.255,16.204,16.204,16.204h136.754
			c8.949,0,16.204-7.255,16.204-16.204v-86.235h24.247c8.95,0,16.204-7.256,16.204-16.204V72.711
			C410.741,63.762,403.487,56.508,394.537,56.508z M402.467,88.111c0,4.372-3.557,7.929-7.93,7.929H370.29V64.782h24.247
			c4.373,0,7.93,3.557,7.93,7.93V88.111z"/>
	</g>
	<g>
		<path fill="#FFFFFF" d="M341.047,349.871c4.855,0,8.974-1.689,12.356-5.068c3.382-3.379,5.073-7.393,5.073-12.042
			c0-4.862-1.691-8.982-5.073-12.362c-3.383-3.379-7.501-5.066-12.356-5.066c-4.649,0-8.666,1.688-12.047,5.066
			c-3.382,3.38-5.074,7.5-5.074,12.362c0,4.649,1.692,8.663,5.074,12.042C332.381,348.182,336.397,349.871,341.047,349.871z"/>
		<path fill="#FFFFFF" d="M489.306,349.563c4.647,0,8.663-1.692,12.046-5.073c3.382-3.382,5.073-7.399,5.073-12.048
			c0-4.854-1.691-8.92-5.073-12.197c-3.383-3.275-7.398-4.912-12.046-4.912c-4.651,0-8.665,1.637-12.044,4.912
			c-3.379,3.277-5.068,7.343-5.067,12.197c-0.001,4.648,1.688,8.666,5.067,12.048C480.641,347.87,484.654,349.563,489.306,349.563z"
			/>
		<path fill="#FFFFFF" d="M379.708,368.896c-1.059-3.385-3.485-6.66-7.284-9.827c-4.649-3.805-9.721-5.707-15.214-5.707h-33.912
			c-5.288,0-10.043,1.902-14.267,5.707c-3.173,2.954-5.285,6.229-6.336,9.827l-14.586,48.488c-0.42,1.058-0.629,2.008-0.629,2.854
			c0,4.861,2.428,7.293,7.284,7.293c3.385,0,5.605-1.902,6.663-5.707l13.31-44.376h7.283l-21.869,78.917h21.241v61.487
			c-0.001,5.493,2.64,8.241,7.922,8.241c5.281,0,7.922-2.748,7.922-8.241v-61.797h7.931v62.116c0,5.281,2.641,7.922,7.922,7.922
			c5.28,0,7.921-2.641,7.921-7.922v-61.807h21.232l-22.18-78.917h7.603l13.31,44.376c1.058,3.805,3.275,5.707,6.654,5.707
			c4.861,0,7.293-2.432,7.293-7.293c0-1.057-0.209-2.008-0.628-2.854L379.708,368.896z"/>
		<path fill="#FFFFFF" d="M527.821,359.857c-4.121-4.542-9.458-6.813-16.01-6.813h-45.325c-6.126,0-11.355,2.165-15.689,6.498
			c-4.332,4.334-6.499,9.67-6.499,16.01v52.607c0,5.076,2.325,7.611,6.975,7.611c4.436,0,6.654-2.535,6.654-7.611v-51.342h8.241
			v139.458c0,6.339,3.169,9.507,9.508,9.507s9.508-3.168,9.509-9.507v-80.822h8.24v80.822c0,6.339,3.17,9.507,9.507,9.507
			c6.552,0,9.828-3.168,9.828-9.507V376.818h7.923v51.342c-0.002,5.282,2.217,7.922,6.653,7.922c4.443,0,6.664-2.64,6.666-7.922
			v-52.299C534,369.735,531.94,364.401,527.821,359.857z"/>
		<rect x="407.728" y="314.693" fill="#FFFFFF" width="16.802" height="211.721"/>
	</g>
</g>
</svg>
