<?xml version="1.0" encoding="utf-8"?>
<!-- Generator: Adobe Illustrator 15.0.0, SVG Export Plug-In . SVG Version: 6.00 Build 0)  -->
<!DOCTYPE svg PUBLIC "-//W3C//DTD SVG 1.1//EN" "http://www.w3.org/Graphics/SVG/1.1/DTD/svg11.dtd">
<svg version="1.1" xmlns="http://www.w3.org/2000/svg" xmlns:xlink="http://www.w3.org/1999/xlink" x="0px" y="0px" width="580px"
	 height="580px" viewBox="0 0 580 580" enable-background="new 0 0 580 580" xml:space="preserve">
<g id="Layer_1">
	<g id="Layer_1_1_">
		<g id="Layer_2">
			<g id="g1327">
				<path id="path1329" fill="#111111" stroke="#EEEEEE" stroke-width="3.408" d="M66.275,1.768
					c-41.335,0-64.571,21.371-64.571,65.036v450.123c0,40.844,20.895,62.229,62.192,62.229H515.92
					c41.307,0,62.229-20.315,62.229-62.229V66.804c0-42.601-20.925-65.036-63.521-65.036C514.624,1.768,66.133,1.625,66.275,1.768z"
					/>
			</g>
		</g>
	</g>
</g>
<g id="Layer_2_1_">
	<g>
		<path fill="#FFFFFF" d="M463.758,252.316c-2.711-0.511-8.158-0.768-16.341-0.768h-10.97v31.915h12.428
			c8.949,0,14.934-0.587,17.952-1.765c3.017-1.176,5.382-3.017,7.096-5.523c1.713-2.505,2.57-5.42,2.57-8.746
			c0-4.091-1.202-7.467-3.605-10.127C470.483,254.644,467.44,252.981,463.758,252.316z"/>
		<path fill="#FFFFFF" d="M341.547,250.014c-9.359,0-16.903,3.21-22.632,9.628c-5.729,6.419-8.592,16.099-8.592,29.038
			c0,12.735,2.94,22.39,8.822,28.961c5.881,6.572,13.349,9.858,22.401,9.858s16.481-3.261,22.287-9.781
			c5.804-6.521,8.707-16.303,8.707-29.345c0-12.889-2.826-22.503-8.478-28.846C358.412,253.186,350.907,250.014,341.547,250.014z"/>
		<path fill="#FFFFFF" d="M391.528,44.888H188.471L44.888,188.471v203.058l143.583,143.583h203.057l143.584-143.583V188.471
			L391.528,44.888z M173.92,330.338c-3.581,5.626-8.644,9.808-15.19,12.543c-6.547,2.735-14.705,4.104-24.473,4.104
			c-14.219,0-25.138-3.286-32.758-9.858c-7.622-6.571-12.173-16.149-13.656-28.73l22.094-2.148
			c1.33,7.417,4.028,12.863,8.094,16.341c4.066,3.479,9.551,5.217,16.456,5.217c7.313,0,12.824-1.546,16.533-4.642
			c3.708-3.094,5.562-6.713,5.562-10.855c0-2.658-0.781-4.922-2.34-6.789c-1.561-1.866-4.285-3.491-8.17-4.872
			c-2.66-0.92-8.721-2.557-18.182-4.909c-12.173-3.018-20.714-6.725-25.624-11.125c-6.905-6.188-10.357-13.732-10.357-22.632
			c0-5.727,1.623-11.085,4.872-16.072c3.247-4.986,7.927-8.784,14.039-11.393c6.111-2.608,13.489-3.913,22.133-3.913
			c14.116,0,24.741,3.095,31.876,9.283c7.135,6.189,10.88,14.449,11.239,24.779l-22.708,0.998
			c-0.972-5.779-3.057-9.935-6.252-12.467c-3.197-2.531-7.992-3.797-14.385-3.797c-6.598,0-11.764,1.356-15.497,4.066
			c-2.405,1.739-3.606,4.066-3.606,6.981c0,2.66,1.125,4.936,3.375,6.828c2.864,2.405,9.82,4.91,20.867,7.519
			s19.218,5.307,24.511,8.094c5.293,2.788,9.436,6.598,12.428,11.431c2.992,4.834,4.488,10.806,4.488,17.914
			C179.29,318.677,177.5,324.712,173.92,330.338z M279.713,251.548h-33.295v93.442h-22.708v-93.442h-33.372v-19.026h89.376V251.548z
			 M381.21,331.526c-9.871,10.255-23.066,15.382-39.586,15.382c-16.725,0-30.023-5.102-39.894-15.305
			c-9.871-10.204-14.806-24.255-14.806-42.157c0-11.456,1.713-21.071,5.14-28.846c2.557-5.728,6.048-10.867,10.472-15.42
			c4.424-4.552,9.27-7.927,14.538-10.127c7.007-2.965,15.087-4.45,24.243-4.45c16.57,0,29.829,5.14,39.777,15.42
			c9.947,10.28,14.922,24.576,14.922,42.885C396.017,307.067,391.08,321.272,381.21,331.526z M496.133,284.537
			c-2.507,4.706-5.69,8.4-9.551,11.086c-3.862,2.685-7.787,4.463-11.776,5.332c-5.422,1.073-13.272,1.61-23.553,1.61h-14.806v42.425
			h-22.709V232.522h36.441c13.809,0,22.81,0.563,27.004,1.688c6.444,1.688,11.84,5.358,16.188,11.009
			c4.347,5.652,6.521,12.953,6.521,21.903C499.892,274.027,498.639,279.832,496.133,284.537z"/>
	</g>
</g>
</svg>
