<?xml version="1.0" encoding="utf-8"?>
<!-- Generator: Adobe Illustrator 15.0.0, SVG Export Plug-In . SVG Version: 6.00 Build 0)  -->
<!DOCTYPE svg PUBLIC "-//W3C//DTD SVG 1.1//EN" "http://www.w3.org/Graphics/SVG/1.1/DTD/svg11.dtd">
<svg version="1.1" xmlns="http://www.w3.org/2000/svg" xmlns:xlink="http://www.w3.org/1999/xlink" x="0px" y="0px" width="580px"
	 height="580px" viewBox="0 0 580 580" enable-background="new 0 0 580 580" xml:space="preserve">
<g id="Layer_2">
	<g id="g1327">
		<path id="path1329" fill="#111111" stroke="#EEEEEE" stroke-width="3.408" d="M66.275,1.768
			c-41.335,0-64.571,21.371-64.571,65.036v450.123c0,40.844,20.894,62.229,62.192,62.229H515.92
			c41.307,0,62.229-20.316,62.229-62.229V66.804c0-42.601-20.923-65.036-63.522-65.036C514.624,1.768,66.133,1.625,66.275,1.768z"/>
	</g>
</g>
<g id="svg2" inkscape:version="0.46" sodipodi:docname="waste_bin.svg" sodipodi:version="0.32" xmlns:dc="http://purl.org/dc/elements/1.1/" xmlns:cc="http://creativecommons.org/ns#" xmlns:sodipodi="http://sodipodi.sourceforge.net/DTD/sodipodi-0.dtd" xmlns:svg="http://www.w3.org/2000/svg" xmlns:rdf="http://www.w3.org/1999/02/22-rdf-syntax-ns#" xmlns:inkscape="http://www.inkscape.org/namespaces/inkscape" inkscape:output_extension="org.inkscape.output.svg.inkscape">
	<g>
		<polygon opacity="0.5" fill="#FFFFFF" points="430.155,240.011 430.155,240.011 430.155,240.011 		"/>
		<path opacity="0.5" fill="#FFFFFF" d="M378.076,115.519c2,15.5,52.077,64.49,52.079,64.492
			c-7.479-66.448-69.035-124.657-118.577-124.657c-4.043,0-8.027,0.345-11.939,1.006C346.275,64.985,376.429,102.75,378.076,115.519
			z"/>
		<path opacity="0.5" fill="#FFFFFF" d="M299.639,56.36c-0.005-0.001-0.01-0.002-0.015-0.003c-9.969-1.842-20.69-2.353-32.048-1.003
			c-64.5,7.665-72.15,80.351-61.5,96.665l10.686,15.968h0.001C222.49,109.704,256.631,63.637,299.639,56.36z"/>
		<path fill="#FFFFFF" d="M430.911,193.354c0-4.475-0.259-8.927-0.756-13.343c-0.002-0.002-50.079-48.992-52.079-64.492
			c-1.647-12.769-31.801-50.534-78.438-59.159c-43.008,7.276-77.149,53.343-82.875,111.627c-0.558,5.682-0.852,11.478-0.852,17.367
			c0,71.797,70.164,136.667,123,136.667c0.36,0,0.713-0.016,1.07-0.02v237.575h20V319.226
			C411.947,304.749,430.911,237.204,430.911,193.354z"/>
	</g>
</g>
</svg>
