<?xml version="1.0" encoding="UTF-8" standalone="no"?>
<!-- Generator: Adobe Illustrator 15.0.0, SVG Export Plug-In . SVG Version: 6.00 Build 0)  -->

<svg
   xmlns:dc="http://purl.org/dc/elements/1.1/"
   xmlns:cc="http://creativecommons.org/ns#"
   xmlns:rdf="http://www.w3.org/1999/02/22-rdf-syntax-ns#"
   xmlns:svg="http://www.w3.org/2000/svg"
   xmlns="http://www.w3.org/2000/svg"
   xmlns:sodipodi="http://sodipodi.sourceforge.net/DTD/sodipodi-0.dtd"
   xmlns:inkscape="http://www.inkscape.org/namespaces/inkscape"
   version="1.1"
   x="0px"
   y="0px"
   width="580px"
   height="580px"
   viewBox="0 0 580 580"
   enable-background="new 0 0 580 580"
   xml:space="preserve"
   id="svg3000"
   inkscape:version="0.48.4 r9939"
   sodipodi:docname="way_sp.svg"><metadata
   id="metadata3013"><rdf:RDF><cc:Work
       rdf:about=""><dc:format>image/svg+xml</dc:format><dc:type
         rdf:resource="http://purl.org/dc/dcmitype/StillImage" /><dc:title></dc:title></cc:Work></rdf:RDF></metadata><defs
   id="defs3011" /><sodipodi:namedview
   pagecolor="#ffffff"
   bordercolor="#666666"
   borderopacity="1"
   objecttolerance="10"
   gridtolerance="10"
   guidetolerance="10"
   inkscape:pageopacity="0"
   inkscape:pageshadow="2"
   inkscape:window-width="1725"
   inkscape:window-height="1026"
   id="namedview3009"
   showgrid="false"
   inkscape:snap-nodes="false"
   inkscape:zoom="1.0965517"
   inkscape:cx="44.703621"
   inkscape:cy="345.30308"
   inkscape:window-x="145"
   inkscape:window-y="76"
   inkscape:window-maximized="0"
   inkscape:current-layer="svg3000" />
<g
   id="Layer_1"
   transform="translate(0.0735,-0.43022222)">
	<g
   id="Layer_2">
		<g
   id="g1327">
			<path
   id="path1329"
   d="M 66.275,1.768 C 24.94,1.768 1.704,23.139 1.704,66.804 v 450.123 c 0,40.844 20.895,62.229 62.192,62.229 H 515.92 c 41.307,0 62.229,-20.315 62.229,-62.229 V 66.804 c 0,-42.602 -20.923,-65.036 -63.521,-65.036 -0.003,0 -448.495,-0.143 -448.353,0 z"
   inkscape:connector-curvature="0"
   style="fill:#111111;stroke:#eeeeee;stroke-width:3.40799999" />
		</g>
	</g>
</g>

<path
   inkscape:connector-curvature="0"
   id="path3797"
   d="m 478.6291,59.276728 c 0,0 -9.77186,84.336232 -19.04991,108.522012 -21.70024,56.56763 -151.14334,-20.96716 -159.90273,82.98742 -15.81512,187.69036 -14.1153,59.27673 -15.29895,158.67924 -14.8629,103.96227 -104.97235,96.66667 -104.97235,96.66667 l -92.479654,1.8239 c 0,0 147.625574,2.73585 162.488484,-101.22642 14.8629,-103.96226 -11.10995,1.92641 14.8629,-110.3459 C 310.67143,95.834931 421.18572,237.19343 447.89031,157.76729 462.8832,113.17469 471.0639,56.540879 471.0639,56.540879 z"
   style="fill:#ffffff;fill-opacity:1;stroke:#ffffff;stroke-width:1;stroke-linecap:butt;stroke-linejoin:miter;stroke-miterlimit:4;stroke-opacity:1;stroke-dasharray:none;stroke-dashoffset:5.8"
   sodipodi:nodetypes="csscccssscc" /><rect
   style="fill:#000000;fill-opacity:1;stroke:#000000;stroke-width:1.20495927;stroke-linecap:butt;stroke-linejoin:miter;stroke-miterlimit:4;stroke-opacity:1;stroke-dasharray:none;stroke-dashoffset:5.8"
   id="rect5594"
   width="204.07178"
   height="49.040325"
   x="165.16537"
   y="425.07104"
   rx="2.6206126"
   ry="3.3262599" /><rect
   style="fill:#000000;fill-opacity:1;stroke:#000000;stroke-width:1.00501466;stroke-linecap:butt;stroke-linejoin:miter;stroke-miterlimit:4;stroke-opacity:1;stroke-dasharray:none;stroke-dashoffset:5.8"
   id="rect5594-1"
   width="206.33061"
   height="33.742138"
   x="175.93369"
   y="367.12799"
   rx="2.6496196"
   ry="2.2886293"
   transform="matrix(0.99004572,-0.14074611,0,1,0,0)" /><rect
   style="fill:#000000;fill-opacity:1;stroke:#000000;stroke-width:1.03313136;stroke-linecap:butt;stroke-linejoin:miter;stroke-miterlimit:4;stroke-opacity:1;stroke-dasharray:none;stroke-dashoffset:5.8"
   id="rect5594-4"
   width="218.0369"
   height="33.742138"
   x="206.35635"
   y="137.33221"
   rx="2.7999473"
   ry="2.2886293"
   transform="matrix(0.93689066,0.34962249,0,1,0,0)" /><rect
   style="fill:#000000;fill-opacity:1;stroke:#000000;stroke-width:0.92756766;stroke-linecap:butt;stroke-linejoin:miter;stroke-miterlimit:4;stroke-opacity:1;stroke-dasharray:none;stroke-dashoffset:5.8"
   id="rect5594-4-2"
   width="195.75824"
   height="30.29442"
   x="291.95917"
   y="67.542938"
   rx="2.5138533"
   ry="2.054781"
   transform="matrix(0.93689066,0.34962249,0,1,0,0)" /><rect
   style="fill:#000000;fill-opacity:1;stroke:#000000;stroke-width:1.01342738;stroke-linecap:butt;stroke-linejoin:miter;stroke-miterlimit:4;stroke-opacity:1;stroke-dasharray:none;stroke-dashoffset:5.8"
   id="rect5594-4-2-3"
   width="215.6906"
   height="32.820522"
   x="346.72729"
   y="-25.746622"
   rx="2.7698171"
   ry="2.226119"
   transform="matrix(0.90124303,0.43331397,0.21837765,0.97586434,0,0)" /><rect
   style="fill:#000000;fill-opacity:1;stroke:#000000;stroke-width:0.91377759;stroke-linecap:butt;stroke-linejoin:miter;stroke-miterlimit:4;stroke-opacity:1;stroke-dasharray:none;stroke-dashoffset:5.8"
   id="rect5594-4-2-3-2"
   width="194.42601"
   height="29.601801"
   x="347.60269"
   y="118.26044"
   rx="2.4967453"
   ry="2.0078027"
   transform="matrix(0.99981299,0.01933882,0.24212274,0.97024563,0,0)" /></svg>