<?xml version="1.0" encoding="UTF-8" standalone="no"?>
<!-- Generator: Adobe Illustrator 15.0.0, SVG Export Plug-In . SVG Version: 6.00 Build 0)  -->

<svg
   xmlns:dc="http://purl.org/dc/elements/1.1/"
   xmlns:cc="http://creativecommons.org/ns#"
   xmlns:rdf="http://www.w3.org/1999/02/22-rdf-syntax-ns#"
   xmlns:svg="http://www.w3.org/2000/svg"
   xmlns="http://www.w3.org/2000/svg"
   xmlns:sodipodi="http://sodipodi.sourceforge.net/DTD/sodipodi-0.dtd"
   xmlns:inkscape="http://www.inkscape.org/namespaces/inkscape"
   version="1.1"
   x="0px"
   y="0px"
   width="580px"
   height="580px"
   viewBox="0 0 580 580"
   enable-background="new 0 0 580 580"
   xml:space="preserve"
   id="svg3000"
   inkscape:version="0.48.4 r9939"
   sodipodi:docname="way_point_sp.svg"><metadata
   id="metadata3013"><rdf:RDF><cc:Work
       rdf:about=""><dc:format>image/svg+xml</dc:format><dc:type
         rdf:resource="http://purl.org/dc/dcmitype/StillImage" /><dc:title></dc:title></cc:Work></rdf:RDF></metadata><defs
   id="defs3011" /><sodipodi:namedview
   pagecolor="#ffffff"
   bordercolor="#666666"
   borderopacity="1"
   objecttolerance="10"
   gridtolerance="10"
   guidetolerance="10"
   inkscape:pageopacity="0"
   inkscape:pageshadow="2"
   inkscape:window-width="1725"
   inkscape:window-height="1026"
   id="namedview3009"
   showgrid="false"
   inkscape:snap-nodes="false"
   inkscape:zoom="1.0965517"
   inkscape:cx="44.703621"
   inkscape:cy="398.69183"
   inkscape:window-x="145"
   inkscape:window-y="76"
   inkscape:window-maximized="0"
   inkscape:current-layer="svg3000" />
<g
   id="Layer_1"
   transform="translate(0.0735,-0.43022222)">
	<g
   id="Layer_2">
		<g
   id="g1327">
			<path
   id="path1329"
   d="M 66.275,1.768 C 24.94,1.768 1.704,23.139 1.704,66.804 v 450.123 c 0,40.844 20.895,62.229 62.192,62.229 H 515.92 c 41.307,0 62.229,-20.315 62.229,-62.229 V 66.804 c 0,-42.602 -20.923,-65.036 -63.521,-65.036 -0.003,0 -448.495,-0.143 -448.353,0 z"
   inkscape:connector-curvature="0"
   style="fill:#111111;stroke:#eeeeee;stroke-width:3.40799999" />
		</g>
	</g>
</g>

<path
   inkscape:connector-curvature="0"
   id="path3797"
   d="m 461.30205,58.364779 c 0,0 -19.0033,52.699471 3.74884,102.138361 20.68725,44.95203 119.93207,60.18868 -85.12286,113.08176 -205.05493,52.89308 -56.97693,31.91824 -71.83983,135.8805 -14.8629,103.96227 -83.99751,98.49057 -83.99751,98.49057 l -175.467072,0.91195 c 0,0 141.241922,-3.6478 156.104832,-107.61007 14.8629,-103.96226 -177.424736,-71.13207 27.6302,-124.02515 205.05492,-52.89308 213.5442,-34.8143 183.61342,-113.08176 -17.05296,-44.5926 16.78994,-106.698111 16.78994,-106.698111 z"
   style="fill:#ffffff;fill-opacity:1;stroke:#ffffff;stroke-width:1;stroke-linecap:butt;stroke-linejoin:miter;stroke-opacity:1;stroke-miterlimit:4;stroke-dasharray:none;stroke-dashoffset:5.79999999999999980"
   sodipodi:nodetypes="ssscccssscs" /><rect
   style="fill:#000000;fill-opacity:1;stroke:#000000;stroke-width:1.20495927;stroke-linecap:butt;stroke-linejoin:miter;stroke-miterlimit:4;stroke-opacity:1;stroke-dasharray:none;stroke-dashoffset:5.8"
   id="rect5594"
   width="204.07178"
   height="49.040325"
   x="126.86349"
   y="425.983"
   rx="2.6206126"
   ry="3.3262599" /><rect
   style="fill:#000000;fill-opacity:1;stroke:#000000;stroke-width:1.00501466;stroke-linecap:butt;stroke-linejoin:miter;stroke-miterlimit:4;stroke-opacity:1;stroke-dasharray:none;stroke-dashoffset:5.8"
   id="rect5594-1"
   width="206.33061"
   height="33.742138"
   x="137.2467"
   y="362.59491"
   rx="2.6496196"
   ry="2.2886293"
   transform="matrix(0.99004572,-0.14074611,0,1,0,0)" /><rect
   style="fill:#000000;fill-opacity:1;stroke:#000000;stroke-width:1.03313136;stroke-linecap:butt;stroke-linejoin:miter;stroke-miterlimit:4;stroke-opacity:1;stroke-dasharray:none;stroke-dashoffset:5.8"
   id="rect5594-4"
   width="218.0369"
   height="33.742138"
   x="165.47444"
   y="152.5374"
   rx="2.7999473"
   ry="2.2886293"
   transform="matrix(0.93689066,0.34962249,0,1,0,0)" /><rect
   style="fill:#000000;fill-opacity:1;stroke:#000000;stroke-width:0.92756766;stroke-linecap:butt;stroke-linejoin:miter;stroke-miterlimit:4;stroke-opacity:1;stroke-dasharray:none;stroke-dashoffset:5.8"
   id="rect5594-4-2"
   width="195.75824"
   height="30.29442"
   x="325.05405"
   y="90.626312"
   rx="2.5138533"
   ry="2.054781"
   transform="matrix(0.93689066,0.34962249,0,1,0,0)" /><rect
   style="fill:#000000;fill-opacity:1;stroke:#000000;stroke-width:0.92756766;stroke-linecap:butt;stroke-linejoin:miter;stroke-miterlimit:4;stroke-opacity:1;stroke-dasharray:none;stroke-dashoffset:5.8"
   id="rect5594-4-2-3"
   width="195.75824"
   height="30.29442"
   x="327.21625"
   y="147.20804"
   rx="2.5138533"
   ry="2.054781"
   transform="matrix(0.99300877,0.11804056,0.2365871,0.97161028,0,0)" /><rect
   style="fill:#000000;fill-opacity:1;stroke:#000000;stroke-width:0.91377759;stroke-linecap:butt;stroke-linejoin:miter;stroke-miterlimit:4;stroke-opacity:1;stroke-dasharray:none;stroke-dashoffset:5.8"
   id="rect5594-4-2-3-2"
   width="194.42601"
   height="29.601801"
   x="308.87912"
   y="119.97219"
   rx="2.4967453"
   ry="2.0078027"
   transform="matrix(0.99981299,0.01933882,0.24212274,0.97024563,0,0)" /></svg>