<?xml version="1.0" encoding="UTF-8" standalone="no"?>
<!-- Generator: Adobe Illustrator 15.0.0, SVG Export Plug-In . SVG Version: 6.00 Build 0)  -->

<svg
   xmlns:dc="http://purl.org/dc/elements/1.1/"
   xmlns:cc="http://creativecommons.org/ns#"
   xmlns:rdf="http://www.w3.org/1999/02/22-rdf-syntax-ns#"
   xmlns:svg="http://www.w3.org/2000/svg"
   xmlns="http://www.w3.org/2000/svg"
   xmlns:sodipodi="http://sodipodi.sourceforge.net/DTD/sodipodi-0.dtd"
   xmlns:inkscape="http://www.inkscape.org/namespaces/inkscape"
   version="1.1"
   x="0px"
   y="0px"
   width="580px"
   height="580px"
   viewBox="0 0 580 580"
   enable-background="new 0 0 580 580"
   xml:space="preserve"
   id="svg3000"
   inkscape:version="0.48.4 r9939"
   sodipodi:docname="way_thin_sp.svg"><metadata
   id="metadata3013"><rdf:RDF><cc:Work
       rdf:about=""><dc:format>image/svg+xml</dc:format><dc:type
         rdf:resource="http://purl.org/dc/dcmitype/StillImage" /><dc:title /></cc:Work></rdf:RDF></metadata><defs
   id="defs3011"><pattern
     inkscape:stockid="Checkerboard white"
     id="Checkerboardwhite"
     patternTransform="translate(0,0) scale(10,10)"
     height="2"
     width="2"
     patternUnits="userSpaceOnUse"
     inkscape:collect="always"><rect
       id="rect7033"
       height="1"
       width="1"
       y="0"
       x="0"
       style="fill:white;stroke:none" /><rect
       id="rect7035"
       height="1"
       width="1"
       y="1"
       x="1"
       style="fill:white;stroke:none" /></pattern></defs><sodipodi:namedview
   pagecolor="#ffffff"
   bordercolor="#666666"
   borderopacity="1"
   objecttolerance="10"
   gridtolerance="10"
   guidetolerance="10"
   inkscape:pageopacity="0"
   inkscape:pageshadow="2"
   inkscape:window-width="1725"
   inkscape:window-height="1026"
   id="namedview3009"
   showgrid="false"
   inkscape:snap-nodes="false"
   inkscape:zoom="1.0965517"
   inkscape:cx="155.74137"
   inkscape:cy="345.30308"
   inkscape:window-x="145"
   inkscape:window-y="76"
   inkscape:window-maximized="0"
   inkscape:current-layer="svg3000" />
<g
   id="Layer_1"
   transform="translate(0.0735,-0.43022222)">
	<g
   id="Layer_2">
		<g
   id="g1327">
			<path
   id="path1329"
   d="M 66.275,1.768 C 24.94,1.768 1.704,23.139 1.704,66.804 v 450.123 c 0,40.844 20.895,62.229 62.192,62.229 H 515.92 c 41.307,0 62.229,-20.315 62.229,-62.229 V 66.804 c 0,-42.602 -20.923,-65.036 -63.521,-65.036 -0.003,0 -448.495,-0.143 -448.353,0 z"
   inkscape:connector-curvature="0"
   style="fill:#111111;stroke:#eeeeee;stroke-width:3.40799999" />
		</g>
	</g>
</g>

<path
   inkscape:connector-curvature="0"
   id="path3797"
   d="m 478.6291,59.276728 c 0,0 -9.77186,84.336232 -19.04991,108.522012 -21.70024,56.56763 -151.14334,-20.96716 -159.90273,82.98742 -15.81512,187.69036 -3.1719,61.10063 -15.29895,158.67924 -14.8629,103.96227 -104.97235,96.66667 -104.97235,96.66667 l -92.479654,1.8239 c 0,0 153.631514,2.93236 167.048234,-101.22642 13.039,-101.22641 -2.9024,-19.04843 15.77485,-132.23269 C 303.26317,71.398321 421.18572,237.19343 447.89031,157.76729 462.8832,113.17469 471.0639,56.540879 471.0639,56.540879 z"
   style="fill:url(#Checkerboardwhite);fill-opacity:1;stroke:#ffffff;stroke-width:1;stroke-linecap:butt;stroke-linejoin:miter;stroke-miterlimit:4;stroke-opacity:1;stroke-dasharray:none;stroke-dashoffset:5.8"
   sodipodi:nodetypes="csscccssscc" /></svg>