<?xml version="1.0" encoding="utf-8"?>
<!-- Generator: Adobe Illustrator 17.0.0, SVG Export Plug-In . SVG Version: 6.00 Build 0)  -->
<!DOCTYPE svg PUBLIC "-//W3C//DTD SVG 1.1//EN" "http://www.w3.org/Graphics/SVG/1.1/DTD/svg11.dtd">
<svg version="1.1" id="Ebene_1" xmlns="http://www.w3.org/2000/svg" xmlns:xlink="http://www.w3.org/1999/xlink" x="0px" y="0px"
	 width="580px" height="580px" viewBox="0 0 580 580" enable-background="new 0 0 580 580" xml:space="preserve">
<g id="Layer_2">
	<g id="g1327">
		<path id="path1329" fill="#111111" stroke="#EEEEEE" stroke-width="3.408" d="M68.126,0.064C26.791,0.064,3.555,21.435,3.555,65.1
			v450.123c0,40.844,20.894,62.229,62.192,62.229h452.024c41.307,0,62.229-20.316,62.229-62.229V65.1
			c0-42.601-20.923-65.036-63.522-65.036C516.475,0.064,67.984-0.079,68.126,0.064z"/>
	</g>
</g>
<g>
	<path fill="#FFFFFF" d="M186.011,246.561c0.267,43.06,7.296,81.112,42.132,107.013c37.577,27.94,79.853,25.764,124.783,15.77
		c-7.103-24.447-9.295-43.544-15.108-66.416c-1.42-5.588-0.685-13.332,2.241-18.152c16.721-27.546,32.025-51.08,51.108-80.942
		c34.288,0.094,54.667,0,95.902,0.044c14.951,0.016,24.993-1.826,27.502-16.511c2.602-15.227-8.794-21.324-20.819-21.426
		c-43.919-0.374-251.284,0.744-298.651,0.476c-11.413-0.065-21.935,4.084-21.268,18.85c0.574,12.705,9.385,18.162,23.039,18.26
		c42.961,0.307,56.294-0.359,102.294-0.092c-6.656,19.047-31.163,52.018-60.667,48.339
		C220.103,249.479,208.46,248.463,186.011,246.561z"/>
	<path fill="#FFFFFF" d="M385.97,109.779c-0.084-21.635-15.272-36.393-37.527-36.465c-21.897-0.071-38.011,15.095-38.376,36.115
		c-0.368,21.189,17.2,38.303,38.916,37.91C370.281,146.954,386.052,130.94,385.97,109.779z"/>
	<path fill="#FFFFFF" d="M318.997,387.408c-16.033,1.465-23.164,2.425-37.658-0.195c0,36.096-0.713,78.324,1.123,113.682
		c0.321,6.177,4.313,16.583,19.137,16.346c13.689-0.219,16.572-10.48,16.857-16.702
		C320.059,465.683,318.997,424.184,318.997,387.408z"/>
	<path fill="#FFFFFF" d="M177.063,290.875c-4.886-16.287-3.257-43.975-3.257-43.975s-63.992-8.721-89.083-12.215
		c-10.45-1.456-19.697-0.941-24.007,12.996c-3.953,12.78,0.994,22.308,13.91,25.498C106.71,281.102,138.788,284.36,177.063,290.875z
		"/>
</g>
</svg>
