<?xml version="1.0" encoding="utf-8"?>
<!-- Generator: Adobe Illustrator 15.0.0, SVG Export Plug-In . SVG Version: 6.00 Build 0)  -->
<!DOCTYPE svg PUBLIC "-//W3C//DTD SVG 1.1//EN" "http://www.w3.org/Graphics/SVG/1.1/DTD/svg11.dtd">
<svg version="1.1" xmlns="http://www.w3.org/2000/svg" xmlns:xlink="http://www.w3.org/1999/xlink" x="0px" y="0px" width="580px"
	 height="580px" viewBox="0 0 580 580" enable-background="new 0 0 580 580" xml:space="preserve">
<g id="Layer_2">
	<g id="g1327">
		<path id="path1329" fill="#111111" stroke="#EEEEEE" stroke-width="3.408" d="M66.275,1.768
			c-41.335,0-64.571,21.371-64.571,65.036v450.123c0,40.844,20.894,62.229,62.192,62.229H515.92
			c41.307,0,62.229-20.316,62.229-62.229V66.804c0-42.601-20.923-65.036-63.522-65.036C514.624,1.768,66.133,1.625,66.275,1.768z"/>
	</g>
</g>
<g id="svg2" inkscape:version="0.46" sodipodi:docname="waste_bin.svg" sodipodi:version="0.32" xmlns:dc="http://purl.org/dc/elements/1.1/" xmlns:cc="http://creativecommons.org/ns#" xmlns:sodipodi="http://sodipodi.sourceforge.net/DTD/sodipodi-0.dtd" xmlns:svg="http://www.w3.org/2000/svg" xmlns:rdf="http://www.w3.org/1999/02/22-rdf-syntax-ns#" xmlns:inkscape="http://www.inkscape.org/namespaces/inkscape" inkscape:output_extension="org.inkscape.output.svg.inkscape">
	<g>
		<path fill="#FFFFFF" d="M186.36,219.557c-83.078,0-150.667,67.589-150.667,150.667c0,83.077,67.589,150.666,150.667,150.666
			c83.077,0,150.665-67.589,150.665-150.666C337.025,287.146,269.438,219.557,186.36,219.557z M186.36,237.557
			c55.431,0,103.022,34.177,122.831,82.562l-75.477,21.511c-9.706-16.015-27.301-26.739-47.355-26.739
			c-20.062,0-37.662,10.733-47.365,26.757l-75.475-21.51C83.324,271.743,130.921,237.557,186.36,237.557z M53.693,370.224
			c0-7.563,0.646-14.979,1.868-22.2l75.483,21.513c-0.003,0.229-0.018,0.457-0.018,0.688c0,25.467,17.299,46.958,40.76,53.371
			v78.491C105.466,494.805,53.693,438.45,53.693,370.224z M200.786,502.103v-78.466c23.536-6.364,40.906-27.893,40.906-53.413
			c0-0.237-0.015-0.471-0.018-0.708l75.48-21.512c1.225,7.228,1.871,14.649,1.871,22.22
			C319.025,438.502,267.177,494.89,200.786,502.103z"/>
		<path fill="#FFFFFF" d="M516.307,58.11h-95c-15.99,0-29,13.009-29,29v311c0,15.99,13.01,29,29,29h95c15.99,0,29-13.01,29-29v-311
			C545.307,71.12,532.297,58.11,516.307,58.11z M525.307,398.11c0,4.963-4.037,9-9,9h-95c-4.963,0-9-4.037-9-9v-311
			c0-4.962,4.037-9,9-9h95c4.963,0,9,4.038,9,9V398.11z"/>
		<circle fill="#FFFFFF" cx="468.807" cy="139.903" r="38.5"/>
		<circle fill="#FFFFFF" cx="468.807" cy="242.61" r="38.5"/>
		<circle fill="#FFFFFF" cx="468.807" cy="345.317" r="38.5"/>
	</g>
</g>
</svg>
