<?xml version="1.0" encoding="utf-8"?>
<!-- Generator: Adobe Illustrator 15.0.0, SVG Export Plug-In . SVG Version: 6.00 Build 0)  -->
<!DOCTYPE svg PUBLIC "-//W3C//DTD SVG 1.1//EN" "http://www.w3.org/Graphics/SVG/1.1/DTD/svg11.dtd">
<svg version="1.1" xmlns="http://www.w3.org/2000/svg" xmlns:xlink="http://www.w3.org/1999/xlink" x="0px" y="0px" width="580px"
	 height="580px" viewBox="0 0 580 580" enable-background="new 0 0 580 580" xml:space="preserve">
<g id="Layer_2">
	<g id="g1327">
		<path id="path1329" fill="#111111" stroke="#EEEEEE" stroke-width="3.408" d="M66.275,1.768
			c-41.335,0-64.571,21.371-64.571,65.036v450.123c0,40.844,20.894,62.229,62.192,62.229H515.92
			c41.307,0,62.229-20.316,62.229-62.229V66.804c0-42.601-20.923-65.036-63.522-65.036C514.624,1.768,66.133,1.625,66.275,1.768z"/>
	</g>
</g>
<g id="svg2" inkscape:version="0.46" sodipodi:docname="waste_bin.svg" sodipodi:version="0.32" xmlns:cc="http://creativecommons.org/ns#" xmlns:dc="http://purl.org/dc/elements/1.1/" xmlns:rdf="http://www.w3.org/1999/02/22-rdf-syntax-ns#" xmlns:inkscape="http://www.inkscape.org/namespaces/inkscape" xmlns:svg="http://www.w3.org/2000/svg" xmlns:sodipodi="http://sodipodi.sourceforge.net/DTD/sodipodi-0.dtd" inkscape:output_extension="org.inkscape.output.svg.inkscape">
	<g>
		<circle fill="#FFFFFF" cx="290.003" cy="99.781" r="60.357"/>
		<path fill="#FFFFFF" d="M177.311,289.357l48.793-49.118v46.071h63.8h0.061h63.359v-46.321l50.073,50.177
			c20.161,21.234,50.846-7.3,29.824-28.319l-81.609-81.738c-6.744-6.634-14.421-10.646-25.802-10.646h-35.846h-0.061h-36.539
			c-11.381,0-18.554,4.14-25.106,10.646l-80.79,80.944C125.39,283.137,155.268,311.4,177.311,289.357z"/>
		<path fill="#FFFFFF" d="M334.34,459.086l57.048-59.316c12.244-12.494,15.629-35.572,2.505-48.695
			c-0.046-0.045-40.832-40.873-40.832-40.873l-47.948,47.953l35.204,35.137l-36.072,36.07
			C282.954,450.654,312.324,481.104,334.34,459.086z"/>
		<path fill="#FFFFFF" d="M226.114,310.201c0,0-40.785,40.828-40.83,40.873c-13.126,13.123-9.74,36.201,2.502,48.695l57.049,59.316
			c22.016,22.018,51.385-8.432,30.096-29.725l-36.071-36.07l35.204-35.137L226.114,310.201z"/>
		<path fill="#FFFFFF" d="M473,223.575v236.001c0,22.607-18.393,41-41,41H148c-22.607,0-41-18.393-41-41V223.575H67v236.001
			c0,44.664,36.336,81,81,81h284c44.664,0,81-36.336,81-81V223.575H473z"/>
	</g>
</g>
</svg>
