<?xml version="1.0" encoding="utf-8"?>
<!-- Generator: Adobe Illustrator 15.0.0, SVG Export Plug-In . SVG Version: 6.00 Build 0)  -->
<!DOCTYPE svg PUBLIC "-//W3C//DTD SVG 1.1//EN" "http://www.w3.org/Graphics/SVG/1.1/DTD/svg11.dtd">
<svg version="1.1" xmlns="http://www.w3.org/2000/svg" xmlns:xlink="http://www.w3.org/1999/xlink" x="0px" y="0px" width="580px"
	 height="580px" viewBox="0 0 580 580" enable-background="new 0 0 580 580" xml:space="preserve">
<g id="Layer_2">
	<g id="g1327">
		<path id="path1329" fill="#111111" stroke="#EEEEEE" stroke-width="3.408" d="M66.275,1.768
			c-41.335,0-64.571,21.371-64.571,65.036v450.123c0,40.844,20.894,62.229,62.192,62.229H515.92
			c41.307,0,62.229-20.316,62.229-62.229V66.804c0-42.601-20.923-65.036-63.522-65.036C514.624,1.768,66.133,1.625,66.275,1.768z"/>
	</g>
</g>
<g id="svg2" inkscape:version="0.46" sodipodi:docname="waste_bin.svg" sodipodi:version="0.32" xmlns:dc="http://purl.org/dc/elements/1.1/" xmlns:cc="http://creativecommons.org/ns#" xmlns:sodipodi="http://sodipodi.sourceforge.net/DTD/sodipodi-0.dtd" xmlns:svg="http://www.w3.org/2000/svg" xmlns:rdf="http://www.w3.org/1999/02/22-rdf-syntax-ns#" xmlns:inkscape="http://www.inkscape.org/namespaces/inkscape" inkscape:output_extension="org.inkscape.output.svg.inkscape">
	<g>
		<polygon fill="#FFFFFF" points="459.491,349.997 459.491,230.003 349.997,230.003 349.997,120.509 230.003,120.509 
			230.003,230.003 120.509,230.003 120.509,349.996 230.003,349.996 230.003,459.491 349.996,459.491 349.996,349.997 		"/>
		<polygon fill="#FFFFFF" points="495.271,142.266 470.083,117.078 537.555,49.606 524.826,36.878 457.355,104.35 431.813,78.807 
			408.591,165.494 		"/>
		<polygon fill="#FFFFFF" points="475.65,457.355 501.193,431.813 414.506,408.591 437.734,495.271 462.922,470.084 
			530.394,537.555 543.122,524.826 		"/>
		<polygon fill="#FFFFFF" points="84.729,437.734 109.917,462.923 42.446,530.394 55.173,543.122 122.645,475.65 148.188,501.193 
			171.409,414.506 		"/>
		<polygon fill="#FFFFFF" points="78.807,148.188 165.494,171.409 142.266,84.729 117.077,109.917 49.606,42.446 36.878,55.173 
			104.35,122.645 		"/>
	</g>
</g>
</svg>
