<?xml version="1.0" encoding="utf-8"?>
<!-- Generator: Adobe Illustrator 15.0.0, SVG Export Plug-In . SVG Version: 6.00 Build 0)  -->
<!DOCTYPE svg PUBLIC "-//W3C//DTD SVG 1.1//EN" "http://www.w3.org/Graphics/SVG/1.1/DTD/svg11.dtd">
<svg version="1.1" xmlns="http://www.w3.org/2000/svg" xmlns:xlink="http://www.w3.org/1999/xlink" x="0px" y="0px" width="580px"
	 height="580px" viewBox="0 0 580 580" enable-background="new 0 0 580 580" xml:space="preserve">
<g id="Layer_2">
	<g id="g1327">
		<path id="path1329" fill="#111111" stroke="#EEEEEE" stroke-width="3.408" d="M66.275,1.768
			c-41.335,0-64.571,21.371-64.571,65.036v450.123c0,40.844,20.894,62.229,62.192,62.229H515.92
			c41.307,0,62.229-20.316,62.229-62.229V66.804c0-42.601-20.923-65.036-63.522-65.036C514.624,1.768,66.133,1.625,66.275,1.768z"/>
	</g>
</g>
<g id="svg2" inkscape:output_extension="org.inkscape.output.svg.inkscape" inkscape:version="0.46" sodipodi:docname="waste_bin.svg" sodipodi:version="0.32" xmlns:inkscape="http://www.inkscape.org/namespaces/inkscape" xmlns:rdf="http://www.w3.org/1999/02/22-rdf-syntax-ns#" xmlns:svg="http://www.w3.org/2000/svg" xmlns:sodipodi="http://sodipodi.sourceforge.net/DTD/sodipodi-0.dtd" xmlns:cc="http://creativecommons.org/ns#" xmlns:dc="http://purl.org/dc/elements/1.1/">
	<path fill="#FFFFFF" d="M495,320.75h-66.181L310.192,155.901l-0.104-91.424l-41,0.047l0.104,92.271L151.491,320.75H85V495h184.577
		l0.023,20.523l41-0.047L310.577,495H495V320.75z M474.5,372H310.438l-0.034-30.75H474.5V372z M310.461,392.5H474.5v30.75H310.496
		L310.461,392.5z M269.496,423.25H105.5V392.5h163.961L269.496,423.25z M403.27,320.343l-92.891,0.153l-0.146-129.442
		L403.27,320.343z M269.233,191.892l0.146,128.672l-92.629,0.153L269.233,191.892z M136.774,341.25l-0.024,0.033l20.078-0.033
		h112.575l0.035,30.75H105.5v-30.75H136.774z M105.5,474.5v-30.75h164.019l0.035,30.75H105.5z M310.554,474.5l-0.034-30.75H474.5
		v30.75H310.554z"/>
</g>
</svg>
