<?xml version="1.0" encoding="utf-8"?>
<!-- Generator: Adobe Illustrator 15.0.0, SVG Export Plug-In . SVG Version: 6.00 Build 0)  -->
<!DOCTYPE svg PUBLIC "-//W3C//DTD SVG 1.1//EN" "http://www.w3.org/Graphics/SVG/1.1/DTD/svg11.dtd">
<svg version="1.1" xmlns="http://www.w3.org/2000/svg" xmlns:xlink="http://www.w3.org/1999/xlink" x="0px" y="0px" width="580px"
	 height="580px" viewBox="0 0 580 580" enable-background="new 0 0 580 580" xml:space="preserve">
<g id="Layer_2">
	<g id="g1327">
		<path id="path1329" fill="#111111" stroke="#EEEEEE" stroke-width="3.408" d="M66.275,1.768
			c-41.335,0-64.571,21.371-64.571,65.036v450.123c0,40.844,20.894,62.229,62.192,62.229H515.92
			c41.307,0,62.229-20.316,62.229-62.229V66.804c0-42.601-20.923-65.036-63.522-65.036C514.624,1.768,66.133,1.625,66.275,1.768z"/>
	</g>
</g>
<g id="svg2" xmlns:inkscape="http://www.inkscape.org/namespaces/inkscape" xmlns:cc="http://creativecommons.org/ns#" xmlns:svg="http://www.w3.org/2000/svg" xmlns:dc="http://purl.org/dc/elements/1.1/" xmlns:rdf="http://www.w3.org/1999/02/22-rdf-syntax-ns#" xmlns:sodipodi="http://sodipodi.sourceforge.net/DTD/sodipodi-0.dtd" inkscape:output_extension="org.inkscape.output.svg.inkscape" sodipodi:docname="waste_bin.svg" sodipodi:version="0.32" inkscape:version="0.46">
	<g>
		<path fill="#FFFFFF" d="M193.661,429.823l-75.303,75.303c-11.988,11.988-31.495,11.989-43.484,0
			c-11.989-11.988-11.989-31.496,0-43.484l75.303-75.303c5.522-5.522,12.642-8.494,19.886-8.929l25.341-25.341
			c-22.068-9.219-48.509-4.875-66.44,13.057l-75.303,75.303c-23.686,23.686-23.686,62.226,0,85.911
			c23.685,23.685,62.225,23.686,85.911,0l75.303-75.303c17.932-17.933,22.275-44.373,13.057-66.44l-25.34,25.34
			C202.156,417.182,199.184,424.301,193.661,429.823z"/>
		<path fill="#FFFFFF" d="M440.43,53.659l-75.304,75.304c-16.748,16.748-21.638,40.919-14.7,62.018
			c-21.099-6.937-45.27-2.049-62.017,14.699l-75.304,75.304c-17.932,17.932-22.276,44.373-13.057,66.44l25.341-25.341
			c0.434-7.244,3.406-14.363,8.928-19.887l75.304-75.304c5.522-5.522,12.642-8.494,19.886-8.928l22.562-22.562l2.778-2.779
			l22.563-22.563c0.435-7.244,3.406-14.363,8.929-19.886l75.305-75.304c11.987-11.988,31.494-11.987,43.482,0.001
			c11.989,11.989,11.989,31.495,0.002,43.483l-75.305,75.304c-5.522,5.523-12.642,8.495-19.887,8.93l-22.562,22.562l-2.778,2.779
			l-22.563,22.562c-0.434,7.244-3.404,14.362-8.928,19.885l-75.304,75.304c-5.523,5.523-12.643,8.495-19.887,8.93l-25.341,25.341
			c22.067,9.219,48.509,4.875,66.44-13.057l75.304-75.305c16.748-16.747,21.636-40.918,14.699-62.017
			c21.099,6.937,45.27,2.048,62.019-14.7l75.304-75.304c23.685-23.685,23.684-62.224-0.001-85.909
			C502.654,29.975,464.114,29.975,440.43,53.659z"/>
		<path fill="#FFFFFF" d="M267.197,334.016c5.857-5.857,5.857-15.355,0-21.213s-15.355-5.857-21.213,0l-19.5,19.5l-22.658,22.658
			l-0.887,0.887l-22.658,22.658l-19.146,19.146c-5.858,5.858-5.858,15.355,0,21.213c5.858,5.858,15.355,5.858,21.213,0
			l19.146-19.146l22.658-22.658l0.887-0.887l22.658-22.658L267.197,334.016z"/>
		<path fill="#FFFFFF" d="M360.939,240.274l16.121-16.121l6.536-6.537l16.122-16.122l24.448-24.448
			c5.857-5.857,5.857-15.355,0-21.213c-5.858-5.858-15.355-5.858-21.214,0l-24.447,24.448l-16.122,16.122l-6.536,6.537
			l-16.122,16.121l-21.621,21.622c-5.857,5.858-5.857,15.355,0,21.213c5.858,5.857,15.355,5.857,21.214,0L360.939,240.274z"/>
	</g>
</g>
</svg>
