<?xml version="1.0" encoding="UTF-8" standalone="no"?>
<!-- Generator: Adobe Illustrator 15.0.0, SVG Export Plug-In . SVG Version: 6.00 Build 0)  -->

<svg
   xmlns:dc="http://purl.org/dc/elements/1.1/"
   xmlns:cc="http://creativecommons.org/ns#"
   xmlns:rdf="http://www.w3.org/1999/02/22-rdf-syntax-ns#"
   xmlns:svg="http://www.w3.org/2000/svg"
   xmlns="http://www.w3.org/2000/svg"
   xmlns:sodipodi="http://sodipodi.sourceforge.net/DTD/sodipodi-0.dtd"
   xmlns:inkscape="http://www.inkscape.org/namespaces/inkscape"
   version="1.1"
   x="0px"
   y="0px"
   width="580px"
   height="580px"
   viewBox="0 0 580 580"
   enable-background="new 0 0 580 580"
   xml:space="preserve"
   id="svg2"
   inkscape:version="0.48.4 r9939"
   sodipodi:docname="19034.svg"><metadata
   id="metadata15"><rdf:RDF><cc:Work
       rdf:about=""><dc:format>image/svg+xml</dc:format><dc:type
         rdf:resource="http://purl.org/dc/dcmitype/StillImage" /><dc:title></dc:title></cc:Work></rdf:RDF></metadata><defs
   id="defs13">
	
</defs><sodipodi:namedview
   pagecolor="#ffffff"
   bordercolor="#666666"
   borderopacity="1"
   objecttolerance="10"
   gridtolerance="10"
   guidetolerance="10"
   inkscape:pageopacity="0"
   inkscape:pageshadow="2"
   inkscape:window-width="1343"
   inkscape:window-height="744"
   id="namedview11"
   showgrid="false"
   inkscape:zoom="0.63"
   inkscape:cx="160.6477"
   inkscape:cy="290"
   inkscape:window-x="2373"
   inkscape:window-y="329"
   inkscape:window-maximized="0"
   inkscape:current-layer="svg2" />
<g
   id="Layer_2">
	<g
   id="g1327">
		<path
   id="path1329"
   fill="#111111"
   stroke="#EEEEEE"
   stroke-width="3.408"
   d="M66.275,1.768    c-41.335,0-64.571,21.371-64.571,65.036v450.123c0,40.844,20.894,62.229,62.192,62.229H515.92    c41.307,0,62.229-20.316,62.229-62.229V66.804c0-42.601-20.923-65.036-63.522-65.036C514.624,1.768,66.133,1.625,66.275,1.768z" />
	</g>
</g>
<path
   style="fill:#ffffff;stroke-width:14;stroke-miterlimit:4;stroke-dasharray:none;stroke:#ffffff;stroke-opacity:1"
   inkscape:connector-curvature="0"
   id="path9"
   d="m 513.879,211.2371 v -29.29922 l -5.303,-3.85903 -5.301,3.85903 v 29.29922 h -33.111 v -29.29922 l -5.303,-3.85903 -5.303,3.85903 v 29.29922 h -33.109 v -29.29922 l -5.303,-3.85903 -5.303,3.85903 v 29.29922 h -33.111 v -29.29922 l -5.301,-3.85903 -5.303,3.85903 v 29.29922 h -33.111 v -29.29922 l -5.303,-3.85903 -5.301,3.85903 v 29.29922 h -33.111 v -29.29922 l -5.302,-3.85903 -5.302,3.85903 v 29.29922 h -33.111 v -29.29922 l -5.302,-3.85903 -5.302,3.85903 v 29.29922 h -33.111 v -29.29922 l -5.302,-3.85903 -5.302,3.85903 v 29.29922 h -33.111 v -29.29922 l -5.302,-3.85903 -5.302,3.85903 V 211.2371 H 120.44 v -29.29922 l -5.302,-3.85903 -5.302,3.85903 V 211.2371 H 76.725 v -29.29922 l -5.302,-3.85903 -5.302,3.85903 V 211.2371 H 31.604 v 1.96264 H 66.12 V 371.67479 H 31.604 v 1.96264 H 66.12 v 29.14417 h 10.604 v -29.14417 h 33.111 v 29.14417 h 10.604 v -29.14417 h 33.111 v 29.14417 h 10.604 v -29.14417 h 33.111 v 29.14417 h 10.604 v -29.14417 h 33.111 v 29.14417 h 10.604 v -29.14417 h 33.111 V 402.7816 H 295.3 v -29.14417 h 33.111 v 29.14417 h 10.604 v -29.14417 h 33.111 v 29.14417 h 10.604 v -29.14417 h 33.111 v 29.14417 h 10.605 v -29.14417 h 33.109 v 29.14417 h 10.605 v -29.14417 h 33.111 v 29.14417 h 10.604 v -29.14417 h 36.699 v -1.96264 H 513.875 V 213.19974 h 36.699 v -1.96264 h -36.695 z m -349.723,1.96264 h 33.111 V 371.67479 H 164.156 V 213.19974 z M 153.551,371.67479 H 120.44 V 213.19974 h 33.111 v 158.47505 z m 54.32,-158.47505 h 33.111 V 371.67479 H 207.871 V 213.19974 z m 43.715,0 h 33.111 V 371.67479 H 251.586 V 213.19974 z m 43.717,0 h 33.111 V 371.67479 H 295.303 V 213.19974 z m 43.715,0 h 33.111 V 371.67479 H 339.018 V 213.19974 z m 43.714,0 h 33.111 V 371.67479 H 382.732 V 213.19974 z m 43.717,0 h 33.109 V 371.67479 H 426.449 V 213.19974 z m -349.724,0 h 33.111 V 371.67479 H 76.725 V 213.19974 z m 426.55,158.47505 H 470.164 V 213.19974 h 33.111 v 158.47505 z" />
</svg>