<?xml version="1.0" encoding="UTF-8" standalone="no"?>
<!-- Generator: Adobe Illustrator 15.0.0, SVG Export Plug-In . SVG Version: 6.00 Build 0)  -->

<svg
   xmlns:dc="http://purl.org/dc/elements/1.1/"
   xmlns:cc="http://creativecommons.org/ns#"
   xmlns:rdf="http://www.w3.org/1999/02/22-rdf-syntax-ns#"
   xmlns:svg="http://www.w3.org/2000/svg"
   xmlns="http://www.w3.org/2000/svg"
   xmlns:sodipodi="http://sodipodi.sourceforge.net/DTD/sodipodi-0.dtd"
   xmlns:inkscape="http://www.inkscape.org/namespaces/inkscape"
   version="1.1"
   x="0px"
   y="0px"
   width="580px"
   height="580px"
   viewBox="0 0 580 580"
   enable-background="new 0 0 580 580"
   xml:space="preserve"
   id="svg881"
   sodipodi:docname="guard_rail.svg"
   inkscape:version="0.92.3 (2405546, 2018-03-11)"><metadata
   id="metadata887"><rdf:RDF><cc:Work
       rdf:about=""><dc:format>image/svg+xml</dc:format><dc:type
         rdf:resource="http://purl.org/dc/dcmitype/StillImage" /><dc:title></dc:title></cc:Work></rdf:RDF></metadata><defs
   id="defs885" /><sodipodi:namedview
   pagecolor="#ffffff"
   bordercolor="#666666"
   borderopacity="1"
   objecttolerance="10"
   gridtolerance="10"
   guidetolerance="10"
   inkscape:pageopacity="0"
   inkscape:pageshadow="2"
   inkscape:window-width="1387"
   inkscape:window-height="981"
   id="namedview883"
   showgrid="false"
   inkscape:zoom="1.2316035"
   inkscape:cx="289.13919"
   inkscape:cy="290"
   inkscape:window-x="383"
   inkscape:window-y="81"
   inkscape:window-maximized="0"
   inkscape:current-layer="svg881" />
<g
   id="Layer_2"
   transform="translate(0.81194959,-0.5683013)">
	<g
   id="g1327">
		<path
   id="path1329"
   d="M 66.275,1.768 C 24.94,1.768 1.704,23.139 1.704,66.804 v 450.123 c 0,40.844 20.894,62.229 62.192,62.229 H 515.92 c 41.307,0 62.229,-20.316 62.229,-62.229 V 66.804 c 0,-42.601 -20.923,-65.036 -63.522,-65.036 -0.003,0 -448.494,-0.143 -448.352,0 z"
   inkscape:connector-curvature="0"
   style="fill:#111111;stroke:#eeeeee;stroke-width:3.40799999" />
	</g>
</g>

<path
   inkscape:connector-curvature="0"
   d="m 460.81148,165.77346 c 15.52833,0 23.29248,0 23.29248,23.29248 23.29248,0 23.29248,15.52831 23.29248,31.05663 0,15.52831 0,31.05663 -23.29248,31.05663 v 31.05664 c 23.29248,0 23.29248,15.52833 23.29248,31.05663 0,13.63387 0,31.05664 -23.29248,31.05664 v 46.58496 c 0,15.52831 -10.43503,23.29247 -23.29248,23.29247 -12.85744,0 -23.29247,-7.76416 -23.29247,-23.29247 V 344.34911 H 142.48098 v 46.58496 c 0,15.52831 -7.76415,23.29247 -23.29247,23.29247 -15.52832,0 -23.292468,-7.76416 -23.292468,-23.29247 v -46.58496 c -23.292484,0 -23.292484,-18.07496 -23.292484,-31.05664 0,-15.5283 0,-31.05663 23.292484,-31.05663 V 251.1792 c -23.292484,0 -23.292484,-18.07495 -23.292484,-31.05663 0,-15.52832 0,-31.05663 23.292484,-31.05663 0,-23.29247 7.764148,-23.29247 23.292468,-23.29247 15.52832,0 23.29247,0 23.29247,23.29247 h 295.03803 c 0,-23.29247 7.76416,-23.29247 23.29247,-23.29248 z M 437.51901,251.1792 H 142.48098 v 31.05664 h 295.03803 z"
   id="path4386"
   style="stroke-width:31.0566349;fill:#ffffff;fill-opacity:1" /></svg>