<?xml version="1.0" encoding="UTF-8" standalone="no"?>
<!-- Generator: Adobe Illustrator 15.0.0, SVG Export Plug-In . SVG Version: 6.00 Build 0)  -->

<svg
   xmlns:dc="http://purl.org/dc/elements/1.1/"
   xmlns:cc="http://creativecommons.org/ns#"
   xmlns:rdf="http://www.w3.org/1999/02/22-rdf-syntax-ns#"
   xmlns:svg="http://www.w3.org/2000/svg"
   xmlns="http://www.w3.org/2000/svg"
   xmlns:sodipodi="http://sodipodi.sourceforge.net/DTD/sodipodi-0.dtd"
   xmlns:inkscape="http://www.inkscape.org/namespaces/inkscape"
   version="1.1"
   x="0px"
   y="0px"
   width="580px"
   height="580px"
   viewBox="0 0 580 580"
   enable-background="new 0 0 580 580"
   xml:space="preserve"
   id="svg881"
   sodipodi:docname="hedge.svg"
   inkscape:version="0.92.3 (2405546, 2018-03-11)"><metadata
   id="metadata887"><rdf:RDF><cc:Work
       rdf:about=""><dc:format>image/svg+xml</dc:format><dc:type
         rdf:resource="http://purl.org/dc/dcmitype/StillImage" /><dc:title></dc:title></cc:Work></rdf:RDF></metadata><defs
   id="defs885" /><sodipodi:namedview
   pagecolor="#ffffff"
   bordercolor="#666666"
   borderopacity="1"
   objecttolerance="10"
   gridtolerance="10"
   guidetolerance="10"
   inkscape:pageopacity="0"
   inkscape:pageshadow="2"
   inkscape:window-width="1387"
   inkscape:window-height="981"
   id="namedview883"
   showgrid="false"
   inkscape:zoom="1.2316035"
   inkscape:cx="289.13919"
   inkscape:cy="290"
   inkscape:window-x="383"
   inkscape:window-y="81"
   inkscape:window-maximized="0"
   inkscape:current-layer="svg881" />
<g
   id="Layer_2"
   transform="translate(0.81194959,-0.5683013)">
	<g
   id="g1327">
		<path
   id="path1329"
   d="M 66.275,1.768 C 24.94,1.768 1.704,23.139 1.704,66.804 v 450.123 c 0,40.844 20.894,62.229 62.192,62.229 H 515.92 c 41.307,0 62.229,-20.316 62.229,-62.229 V 66.804 c 0,-42.601 -20.923,-65.036 -63.522,-65.036 -0.003,0 -448.494,-0.143 -448.352,0 z"
   inkscape:connector-curvature="0"
   style="fill:#111111;stroke:#eeeeee;stroke-width:3.40799999" />
	</g>
</g>

<path
   inkscape:connector-curvature="0"
   d="m 363.59266,417.20991 -73.59267,-63.0792 -73.59265,63.0792 v 42.0532 h -29.43706 v -42.0532 L 99.339073,342.09772 h -8.039256 c -12.193427,0 -22.077796,-9.88468 -22.077796,-22.0778 V 155.21593 c 0,-11.24966 8.458742,-20.70044 19.639524,-21.94297 l 46.593865,-5.1768 c 44.12175,-4.90246 88.48105,-7.35927 132.8742,-7.35927 h 21.67038 21.67012 c 44.39344,0 88.75273,2.458 132.87447,7.35927 l 46.59357,5.1768 c 11.18109,1.24225 19.63983,10.69331 19.63983,21.94297 v 164.80399 c 0,12.19312 -9.88467,22.0778 -22.07779,22.0778 h -8.03956 l -87.63091,75.11219 v 42.0532 h -29.43706 z m 29.43706,-37.0589 44.15559,-38.63616 H 319.43707 l 44.15559,38.63616 v -38.63616 h 29.43706 z m -176.62238,0 44.15559,-38.63616 H 142.81468 l 44.1556,38.63616 v -38.63616 h 29.43706 z"
   id="path3808"
   style="fill:#ffffff;fill-opacity:1;stroke-width:29.43706322" /></svg>