<?xml version="1.0" encoding="UTF-8" standalone="no"?>
<!-- Generator: Adobe Illustrator 15.0.0, SVG Export Plug-In . SVG Version: 6.00 Build 0)  -->

<svg
   xmlns:dc="http://purl.org/dc/elements/1.1/"
   xmlns:cc="http://creativecommons.org/ns#"
   xmlns:rdf="http://www.w3.org/1999/02/22-rdf-syntax-ns#"
   xmlns:svg="http://www.w3.org/2000/svg"
   xmlns="http://www.w3.org/2000/svg"
   xmlns:sodipodi="http://sodipodi.sourceforge.net/DTD/sodipodi-0.dtd"
   xmlns:inkscape="http://www.inkscape.org/namespaces/inkscape"
   version="1.1"
   x="0px"
   y="0px"
   width="580px"
   height="580px"
   viewBox="0 0 580 580"
   enable-background="new 0 0 580 580"
   xml:space="preserve"
   id="svg881"
   sodipodi:docname="height_restrictor.svg"
   inkscape:version="0.92.3 (2405546, 2018-03-11)"><metadata
   id="metadata887"><rdf:RDF><cc:Work
       rdf:about=""><dc:format>image/svg+xml</dc:format><dc:type
         rdf:resource="http://purl.org/dc/dcmitype/StillImage" /><dc:title></dc:title></cc:Work></rdf:RDF></metadata><defs
   id="defs885" /><sodipodi:namedview
   pagecolor="#ffffff"
   bordercolor="#666666"
   borderopacity="1"
   objecttolerance="10"
   gridtolerance="10"
   guidetolerance="10"
   inkscape:pageopacity="0"
   inkscape:pageshadow="2"
   inkscape:window-width="1387"
   inkscape:window-height="981"
   id="namedview883"
   showgrid="false"
   inkscape:zoom="1.2316035"
   inkscape:cx="289.13919"
   inkscape:cy="290"
   inkscape:window-x="383"
   inkscape:window-y="81"
   inkscape:window-maximized="0"
   inkscape:current-layer="svg881" />
<g
   id="Layer_2"
   transform="translate(0.81194959,-0.5683013)">
	<g
   id="g1327">
		<path
   id="path1329"
   d="M 66.275,1.768 C 24.94,1.768 1.704,23.139 1.704,66.804 v 450.123 c 0,40.844 20.894,62.229 62.192,62.229 H 515.92 c 41.307,0 62.229,-20.316 62.229,-62.229 V 66.804 c 0,-42.601 -20.923,-65.036 -63.522,-65.036 -0.003,0 -448.494,-0.143 -448.352,0 z"
   inkscape:connector-curvature="0"
   style="fill:#111111;stroke:#eeeeee;stroke-width:3.40799999" />
	</g>
</g>

<path
   inkscape:connector-curvature="0"
   d="m 118.94898,150.77242 v 350.0579 H 79.169678 V 99.059334 c 0,-10.984821 8.904825,-19.889655 19.889655,-19.889655 10.984497,0 19.889647,8.904833 19.889647,19.889655 V 110.99312 H 461.05102 V 99.059334 c 0,-10.984821 8.90484,-19.889655 19.88964,-19.889655 10.98452,0 19.88966,8.904833 19.88966,19.889655 V 500.83032 h -39.7793 v -350.0579 h -59.66897 v 27.84553 h -11.2515 l -63.64689,63.64687 h -57.05594 l 63.64689,-63.64687 H 369.5586 V 150.77242 H 210.44139 v 27.84553 h 20.57194 l -63.64689,63.64687 h -4.66022 c -8.78805,0 -15.91173,-7.12398 -15.91173,-15.9117 v -31.82345 c 0,-8.78774 7.12368,-15.91172 15.91173,-15.91172 h 15.91172 v -27.84553 z m 191.62296,27.84553 -63.64689,63.64687 h -57.05593 l 63.6469,-63.64687 z m 102.0613,0 h 4.66053 c 8.78775,0 15.91173,7.12398 15.91173,15.91172 v 31.82345 c 0,8.78772 -7.12398,15.9117 -15.91173,15.9117 h -68.30742 z"
   id="path4964"
   style="stroke-width:31.82344627;fill:#ffffff;fill-opacity:1" /></svg>