<?xml version="1.0" encoding="UTF-8" standalone="no"?>
<!-- Generator: Adobe Illustrator 15.0.0, SVG Export Plug-In . SVG Version: 6.00 Build 0)  -->

<svg
   xmlns:dc="http://purl.org/dc/elements/1.1/"
   xmlns:cc="http://creativecommons.org/ns#"
   xmlns:rdf="http://www.w3.org/1999/02/22-rdf-syntax-ns#"
   xmlns:svg="http://www.w3.org/2000/svg"
   xmlns="http://www.w3.org/2000/svg"
   xmlns:sodipodi="http://sodipodi.sourceforge.net/DTD/sodipodi-0.dtd"
   xmlns:inkscape="http://www.inkscape.org/namespaces/inkscape"
   version="1.1"
   x="0px"
   y="0px"
   width="580px"
   height="580px"
   viewBox="0 0 580 580"
   enable-background="new 0 0 580 580"
   xml:space="preserve"
   id="svg2915"
   sodipodi:docname="log.svg"
   inkscape:version="0.92.3 (2405546, 2018-03-11)"><metadata
   id="metadata2921"><rdf:RDF><cc:Work
       rdf:about=""><dc:format>image/svg+xml</dc:format><dc:type
         rdf:resource="http://purl.org/dc/dcmitype/StillImage" /><dc:title></dc:title></cc:Work></rdf:RDF></metadata><defs
   id="defs2919" /><sodipodi:namedview
   pagecolor="#ffffff"
   bordercolor="#666666"
   borderopacity="1"
   objecttolerance="10"
   gridtolerance="10"
   guidetolerance="10"
   inkscape:pageopacity="0"
   inkscape:pageshadow="2"
   inkscape:window-width="1450"
   inkscape:window-height="995"
   id="namedview2917"
   showgrid="false"
   inkscape:zoom="0.81454783"
   inkscape:cx="160.05872"
   inkscape:cy="290"
   inkscape:window-x="346"
   inkscape:window-y="-4"
   inkscape:window-maximized="0"
   inkscape:current-layer="svg2915" />
<g
   id="Layer_1">
	<g
   id="Layer_2">
		<g
   id="g1327">
			<path
   id="path1329"
   fill="#111111"
   stroke="#EEEEEE"
   stroke-width="3.408"
   d="M66.275,1.768     c-41.335,0-64.571,21.371-64.571,65.036v450.123c0,40.844,20.895,62.229,62.192,62.229h452.024     c41.307,0,62.229-20.315,62.229-62.229V66.804c0-42.602-20.923-65.036-63.521-65.036C514.625,1.768,66.133,1.625,66.275,1.768z" />
		</g>
	</g>
</g>

<path
   style="fill:#ffffff;fill-opacity:1;stroke-width:11.93478489"
   d="m 509.53565,372.11282 c -5.6238,0 -436.197144,0 -442.200214,0 -6.00307,0 -7.938701,-3.80096 -8.435686,-7.25341 -1.38633,-9.95439 -3.845106,-30.25524 -3.845106,-51.7541 0,-25.80081 4.904471,-50.69766 4.904471,-52.62537 0,-4.08413 3.818941,-8.16826 10.345161,-8.16826 6.52621,0 279.018644,0 279.018644,0 l 55.58401,-43.56406 27.792,17.6979 -30.11999,25.86616 c 0,0 94.97672,0 103.15084,0 8.17412,0 11.99306,5.4455 11.99306,9.52963 0.83704,4.0079 7.07552,25.18003 7.07552,49.90262 0,22.13054 -5.41454,52.15707 -6.04231,55.34813 -0.62776,3.19107 -3.23041,5.02076 -9.2204,5.02076 z"
   id="path3488"
   inkscape:connector-curvature="0" /></svg>