<?xml version="1.0" encoding="utf-8"?>
<!-- Generator: Adobe Illustrator 15.0.0, SVG Export Plug-In . SVG Version: 6.00 Build 0)  -->
<!DOCTYPE svg PUBLIC "-//W3C//DTD SVG 1.1//EN" "http://www.w3.org/Graphics/SVG/1.1/DTD/svg11.dtd">
<svg version="1.1" xmlns="http://www.w3.org/2000/svg" xmlns:xlink="http://www.w3.org/1999/xlink" x="0px" y="0px" width="580px"
	 height="580px" viewBox="0 0 580 580" enable-background="new 0 0 580 580" xml:space="preserve">
<g id="Layer_2">
	<g id="g1327">
		<path id="path1329" fill="#111111" stroke="#EEEEEE" stroke-width="3.408" d="M66.275,1.768
			c-41.335,0-64.571,21.371-64.571,65.036v450.123c0,40.844,20.894,62.229,62.192,62.229H515.92
			c41.307,0,62.229-20.316,62.229-62.229V66.804c0-42.601-20.923-65.036-63.522-65.036C514.624,1.768,66.133,1.625,66.275,1.768z"/>
	</g>
</g>
<g id="svg2" inkscape:output_extension="org.inkscape.output.svg.inkscape" inkscape:version="0.46" sodipodi:docname="waste_bin.svg" sodipodi:version="0.32" xmlns:inkscape="http://www.inkscape.org/namespaces/inkscape" xmlns:rdf="http://www.w3.org/1999/02/22-rdf-syntax-ns#" xmlns:svg="http://www.w3.org/2000/svg" xmlns:sodipodi="http://sodipodi.sourceforge.net/DTD/sodipodi-0.dtd" xmlns:cc="http://creativecommons.org/ns#" xmlns:dc="http://purl.org/dc/elements/1.1/">
	<g>
		<g>
			<path fill="#FFFFFF" d="M438.664,531.797c-8.617,0-15.602-6.985-15.602-15.603V405.471c0-16.666-18.18-118.385-38.457-169.859
				c-21.73-55.163-9.436-168.72-8.9-173.527c0.951-8.565,8.682-14.735,17.229-13.785c8.564,0.952,14.736,8.664,13.785,17.228l0,0
				c-0.121,1.102-11.98,110.667,6.92,158.647c21.313,54.101,40.629,159.405,40.629,181.296v110.724
				C454.268,524.812,447.281,531.797,438.664,531.797z"/>
		</g>
		<g>
			<path fill="#FFFFFF" d="M141.335,531.797c-8.617,0-15.603-6.985-15.603-15.603V405.471c0-21.892,19.317-127.195,40.628-181.296
				c18.901-47.98,7.042-157.545,6.92-158.647c-0.949-8.563,5.223-16.276,13.787-17.227c8.557-0.955,16.276,5.22,17.228,13.784
				c0.534,4.807,12.83,118.364-8.9,173.527c-20.277,51.475-38.458,153.193-38.458,169.859v110.724
				C156.938,524.812,149.953,531.797,141.335,531.797z"/>
		</g>
	</g>
</g>
</svg>
