<?xml version="1.0" encoding="UTF-8" standalone="no"?>
<!-- Generator: Adobe Illustrator 15.0.0, SVG Export Plug-In . SVG Version: 6.00 Build 0)  -->

<svg
   version="1.1"
   x="0px"
   y="0px"
   width="580px"
   height="580px"
   viewBox="0 0 580 580"
   enable-background="new 0 0 580 580"
   xml:space="preserve"
   id="svg2"
   inkscape:version="1.2.2 (b0a8486541, 2022-12-01)"
   sodipodi:docname="retaining_wall.svg"
   xmlns:inkscape="http://www.inkscape.org/namespaces/inkscape"
   xmlns:sodipodi="http://sodipodi.sourceforge.net/DTD/sodipodi-0.dtd"
   xmlns="http://www.w3.org/2000/svg"
   xmlns:svg="http://www.w3.org/2000/svg"
   xmlns:rdf="http://www.w3.org/1999/02/22-rdf-syntax-ns#"
   xmlns:cc="http://creativecommons.org/ns#"
   xmlns:dc="http://purl.org/dc/elements/1.1/"><metadata
   id="metadata33"><rdf:RDF><cc:Work
       rdf:about=""><dc:format>image/svg+xml</dc:format><dc:type
         rdf:resource="http://purl.org/dc/dcmitype/StillImage" /><dc:title /></cc:Work></rdf:RDF></metadata><defs
   id="defs31">
	

		
		
		
		
		
		
		
		
		
	<clipPath
   clipPathUnits="userSpaceOnUse"
   id="clipPath1273"><rect
     style="fill:none;stroke:#ffffff;stroke-width:23.4821"
     id="rect1275"
     width="676.51575"
     height="430.40002"
     x="99.980606"
     y="40.502132"
     rx="101.46917"
     ry="6.118794"
     transform="matrix(0.99801701,0.06294487,-0.58964727,0.80766088,0,0)" /></clipPath></defs><sodipodi:namedview
   pagecolor="#ffffff"
   bordercolor="#666666"
   borderopacity="1"
   objecttolerance="10"
   gridtolerance="10"
   guidetolerance="10"
   inkscape:pageopacity="0"
   inkscape:pageshadow="2"
   inkscape:window-width="1972"
   inkscape:window-height="1367"
   id="namedview29"
   showgrid="false"
   inkscape:zoom="0.35355339"
   inkscape:cx="-49.497475"
   inkscape:cy="656.19509"
   inkscape:window-x="0"
   inkscape:window-y="0"
   inkscape:window-maximized="0"
   inkscape:current-layer="svg2"
   inkscape:showpageshadow="2"
   inkscape:pagecheckerboard="0"
   inkscape:deskcolor="#d1d1d1"
   showguides="true" />
<g
   id="Layer_2_1_">
	<g
   id="Layer_2">
		<g
   id="g1327">
			<path
   id="path1329"
   fill="#111111"
   stroke="#eeeeee"
   stroke-width="3.408"
   d="M 68.275,1.768 C 26.94,1.768 3.8980117,23.139431 3.704,66.804 L 3.7013772,67.394299 1.704,516.927 c -0.1814775,40.8436 20.895,62.229 62.192,62.229 H 517.92 c 41.307,0 60.229,-20.315 60.229,-62.229 V 66.804 c 0,-42.602 -18.923,-65.036 -61.521,-65.036 z"
   sodipodi:nodetypes="sscsssssss" />
		</g>
	</g>
</g>

<path
   style="fill:none;stroke:#ffffff;stroke-width:20;stroke-linecap:butt;stroke-linejoin:miter;stroke-dasharray:none;stroke-opacity:1"
   d="M 446.63123,361.18367 H 575.88137"
   id="path1337" /><g
   id="path437"><path
     style="color:#000000;fill:#ffffff;stroke-width:20;-inkscape-stroke:none"
     d="M 151.57166,96.795761 4.3916868,67.472131"
     id="path5164" /><path
     style="color:#000000;fill:#ffffff;-inkscape-stroke:none"
     d="M 5.3970988,67.349173 5.3128021,87.399762 149.61719,106.60352 153.52539,86.988281 Z"
     id="path5166"
     sodipodi:nodetypes="ccccc" /></g><g
   id="g255"
   transform="matrix(0.59070502,-0.08781498,0.43125476,1.3923428,19.747568,-10.787724)"
   style="display:inline"
   clip-path="url(#clipPath1273)"><g
     id="g335"
     transform="translate(8.84029,70.6929)"
     style="display:inline"><path
       id="rect23-8-2-2"
       style="fill:#ffffff"
       d="m 142.57,82.0068 67.274,7.857 0.116,-82.36398 -67.229,-18.32222 z m 332.282,38.8082 25.799,3.013 V 86.7238 L 474.857,79.694 Z m -36.634,-4.279 33.007,3.855 0.006,-41.6852 -32.999,-8.9935 z m -48.438,-5.657 43.725,5.107 0.016,-47.5576 -43.712,-11.913 z m -67.041,-7.83 60.672,7.086 0.031,-55.3548 -60.648,-16.5288 z m -98.911,-11.5519 89.829,10.4909 0.06,-66.2106 -89.781,-24.4686 z m 264.001,77.8619 12.76,-0.9 v -37.13 l -12.757,-1.088 z m -345.072,26.263 117.138,-8.64 0.087,-74.626 -117.064,-9.606 z m 312.202,-23.872 29.62,-2.097 0.003,-39.624 -29.614,-2.518 z m -42.775,3.028 38.611,-2.733 0.011,-44.888 -38.6,-3.282 z m -57.949,4.608 52.424,-3.78 0.023,-51.763 -52.404,-4.387 z m -82.938,5.98 75.257,-5.426 0.045,-61.127 -75.221,-6.297 z m -129.118,122.124 67.383,-17.598 0.116,-82.524 -67.338,7.09 z m 332.66,-86.879 25.812,-6.741 v -37.136 l -25.807,2.717 z m -36.656,9.573 33.027,-8.625 0.006,-41.726 -33.019,3.476 z m -48.474,12.66 43.759,-11.428 0.015,-47.611 -43.745,4.606 z m -67.106,17.526 60.732,-15.861 0.031,-55.427 -60.707,6.391 z m -99.036,25.864 89.944,-23.49 0.06,-66.314 -89.896,9.465 z m 264.256,-21.943 12.766,-5.728 v -37.162 l -12.763,3.736 z m -345.457,156.917 117.318,-53.014 0.087,-74.757 -117.244,34.696 z m 312.569,-142.089 29.637,-13.304 0.003,-39.661 -29.63,8.68 z m -42.804,19.215 38.637,-17.345 0.011,-44.934 -38.626,11.316 z m -57.999,26.542 52.469,-23.622 0.024,-51.827 -52.45,15.435 z m -83.032,37.383 75.343,-33.921 0.045,-61.214 -75.307,22.161 z" /></g></g><g
   id="path4119"
   transform="matrix(1.1584158,0,0,1.1584158,-11.509805,-28.430855)"><path
     style="color:#000000;fill:#ffffff;-inkscape-stroke:none"
     d="m 142.44922,242.85547 -114.429689,0.375 0.05273,16 114.429679,-0.375 z"
     id="path1246" /><g
     id="g1238"><path
       style="color:#000000;fill:#ffffff;-inkscape-stroke:none"
       d="m 103.95703,197.32422 -11.277343,11.34961 42.480473,42.20508 -42.203129,42.48242 11.351559,11.27539 53.48047,-53.83203 z"
       id="path1240" /></g></g></svg>
