<?xml version="1.0" encoding="utf-8"?>
<!-- Generator: Adobe Illustrator 15.0.0, SVG Export Plug-In . SVG Version: 6.00 Build 0)  -->
<!DOCTYPE svg PUBLIC "-//W3C//DTD SVG 1.1//EN" "http://www.w3.org/Graphics/SVG/1.1/DTD/svg11.dtd">
<svg version="1.1" xmlns="http://www.w3.org/2000/svg" xmlns:xlink="http://www.w3.org/1999/xlink" x="0px" y="0px" width="580px"
	 height="580px" viewBox="0 0 580 580" enable-background="new 0 0 580 580" xml:space="preserve">
<g id="Layer_2">
	<g id="g1327">
		<path id="path1329" fill="#111111" stroke="#EEEEEE" stroke-width="3.408" d="M66.275,1.768
			c-41.335,0-64.571,21.371-64.571,65.036v450.123c0,40.844,20.894,62.229,62.192,62.229H515.92
			c41.307,0,62.229-20.316,62.229-62.229V66.804c0-42.601-20.923-65.036-63.522-65.036C514.624,1.768,66.133,1.625,66.275,1.768z"/>
	</g>
</g>
<g id="svg2" inkscape:version="0.46" sodipodi:docname="waste_bin.svg" sodipodi:version="0.32" xmlns:dc="http://purl.org/dc/elements/1.1/" xmlns:cc="http://creativecommons.org/ns#" xmlns:sodipodi="http://sodipodi.sourceforge.net/DTD/sodipodi-0.dtd" xmlns:svg="http://www.w3.org/2000/svg" xmlns:rdf="http://www.w3.org/1999/02/22-rdf-syntax-ns#" xmlns:inkscape="http://www.inkscape.org/namespaces/inkscape" inkscape:output_extension="org.inkscape.output.svg.inkscape">
	<path fill="#FFFFFF" d="M502.99,123.508c-8.211,0-15.123,5.503-17.286,13.017c-0.238-0.005-0.475-0.018-0.714-0.018
		c-16.973,0-30.817,13.604-31.229,30.479c-80.595,53.248-161.15,68.91-239.641,46.541c-34.481-9.828-61.4-25.35-78.557-37.238
		c0.771-2.714,1.193-5.574,1.193-8.532c0-17.23-14.018-31.249-31.248-31.249c-3.788,0-7.42,0.679-10.782,1.918
		c-1.464-8.469-8.829-14.917-17.717-14.917c-9.94,0-17.999,8.059-17.999,17.999v296.985c0,9.941,8.059,18,17.999,18
		s17.999-8.059,17.999-18V197.185c3.284,1.175,6.817,1.82,10.5,1.82c5.832,0,11.293-1.61,15.97-4.403
		c18.525,12.975,47.567,29.827,85.243,40.73c25.142,7.275,50.806,10.921,76.712,10.921c14.738,0,29.559-1.181,44.396-3.545
		c44.866-7.149,89.947-25.2,134.267-53.714c5.71,6.151,13.858,10.011,22.894,10.011v239.488c0,9.941,8.059,18,18,18
		c9.939,0,17.998-8.059,17.998-18V141.507C520.988,131.567,512.93,123.508,502.99,123.508z M132.758,167.756
		c0,2.086-0.243,4.115-0.689,6.068c-11.418-8.205-17.632-14.158-17.782-14.304c-4.544-4.428-11.814-4.341-16.25,0.196
		c-1.594,1.63-2.595,3.616-3.026,5.694v-22.797c3.233-1.355,6.78-2.106,10.5-2.106C120.534,140.507,132.758,152.731,132.758,167.756
		z M105.51,195.004c-3.72,0-7.267-0.751-10.5-2.106v-22.762c0.453,2.149,1.522,4.192,3.21,5.843
		c0.665,0.649,7.454,7.194,19.652,16.047C114.159,193.925,109.959,195.004,105.51,195.004z M465.511,186.783
		c4.721-3.097,9.432-6.313,14.133-9.646c5.181-3.674,6.402-10.853,2.729-16.033c-3.675-5.181-10.855-6.403-16.033-2.728
		c-2.784,1.975-5.568,3.901-8.353,5.786c1.766-13.331,13.198-23.654,27.004-23.654c0.017,0,0.033,0.001,0.051,0.001
		c-0.019,0.333-0.051,0.662-0.051,0.999v53.497C477.363,195.004,470.462,191.85,465.511,186.783z"/>
</g>
</svg>
