<?xml version="1.0" encoding="utf-8"?>
<!-- Generator: Adobe Illustrator 15.0.0, SVG Export Plug-In . SVG Version: 6.00 Build 0)  -->
<!DOCTYPE svg PUBLIC "-//W3C//DTD SVG 1.1//EN" "http://www.w3.org/Graphics/SVG/1.1/DTD/svg11.dtd">
<svg version="1.1" xmlns="http://www.w3.org/2000/svg" xmlns:xlink="http://www.w3.org/1999/xlink" x="0px" y="0px" width="580px"
	 height="580px" viewBox="0 0 580 580" enable-background="new 0 0 580 580" xml:space="preserve">
<g id="Layer_2">
	<g id="g1327">
		<path id="path1329" fill="#111111" stroke="#EEEEEE" stroke-width="3.408" d="M66.275,1.768
			c-41.335,0-64.571,21.371-64.571,65.036v450.123c0,40.844,20.894,62.229,62.192,62.229H515.92
			c41.307,0,62.229-20.316,62.229-62.229V66.804c0-42.601-20.923-65.036-63.522-65.036C514.624,1.768,66.133,1.625,66.275,1.768z"/>
	</g>
</g>
<g id="svg2" inkscape:version="0.46" sodipodi:docname="waste_bin.svg" sodipodi:version="0.32" xmlns:dc="http://purl.org/dc/elements/1.1/" xmlns:cc="http://creativecommons.org/ns#" xmlns:sodipodi="http://sodipodi.sourceforge.net/DTD/sodipodi-0.dtd" xmlns:svg="http://www.w3.org/2000/svg" xmlns:rdf="http://www.w3.org/1999/02/22-rdf-syntax-ns#" xmlns:inkscape="http://www.inkscape.org/namespaces/inkscape" inkscape:output_extension="org.inkscape.output.svg.inkscape">
	<path fill="#FFFFFF" d="M483.493,138.553c-6.306-11.303-18.377-17.035-35.878-17.035h-303.25c-4.267,0-8.38,0.664-12.246,1.89
		V93.798c0-11.067-8.972-20.039-20.038-20.039s-20.038,8.971-20.038,20.039v392.404c0,11.066,8.971,20.038,20.038,20.038
		s20.038-8.972,20.038-20.038V296.46c3.866,1.226,7.979,1.89,12.246,1.89h203.057c68.306,0,115.241-70.735,117.206-73.746
		l0.111-0.176C468.324,218.621,499.3,166.883,483.493,138.553z M450.594,215.553c-1.69,2.541-44.702,66.098-103.172,66.098H144.365
		c-4.478,0-8.658-1.259-12.246-3.408V141.625c3.588-2.149,7.768-3.408,12.246-3.408h303.25c16.563,0,20.123,6.372,21.293,8.466
		C477.244,161.611,462.123,196.798,450.594,215.553z"/>
</g>
</svg>
