<?xml version="1.0" encoding="UTF-8" standalone="no"?>
<!-- Generator: Adobe Illustrator 15.0.0, SVG Export Plug-In . SVG Version: 6.00 Build 0)  -->

<svg
   xmlns:dc="http://purl.org/dc/elements/1.1/"
   xmlns:cc="http://creativecommons.org/ns#"
   xmlns:rdf="http://www.w3.org/1999/02/22-rdf-syntax-ns#"
   xmlns:svg="http://www.w3.org/2000/svg"
   xmlns="http://www.w3.org/2000/svg"
   xmlns:sodipodi="http://sodipodi.sourceforge.net/DTD/sodipodi-0.dtd"
   xmlns:inkscape="http://www.inkscape.org/namespaces/inkscape"
   version="1.1"
   x="0px"
   y="0px"
   width="580px"
   height="580px"
   viewBox="0 0 580 580"
   enable-background="new 0 0 580 580"
   xml:space="preserve"
   id="svg2"
   inkscape:version="0.48.4 r9939"
   sodipodi:docname="ride.svg"><metadata
   id="metadata14"><rdf:RDF><cc:Work
       rdf:about=""><dc:format>image/svg+xml</dc:format><dc:type
         rdf:resource="http://purl.org/dc/dcmitype/StillImage" /><dc:title></dc:title></cc:Work></rdf:RDF></metadata><defs
   id="defs12" /><sodipodi:namedview
   pagecolor="#ffffff"
   bordercolor="#666666"
   borderopacity="1"
   objecttolerance="10"
   gridtolerance="10"
   guidetolerance="10"
   inkscape:pageopacity="0"
   inkscape:pageshadow="2"
   inkscape:window-width="1352"
   inkscape:window-height="927"
   id="namedview10"
   showgrid="false"
   inkscape:zoom="1.3995495"
   inkscape:cx="214.72228"
   inkscape:cy="246.68185"
   inkscape:window-x="536"
   inkscape:window-y="113"
   inkscape:window-maximized="0"
   inkscape:current-layer="svg2" />
<g
   id="Layer_2_1_">
	<g
   id="Layer_2">
		<g
   id="g1327">
			<path
   id="path1329"
   fill="#111111"
   stroke="#EEEEEE"
   stroke-width="3.408"
   d="M66.275,1.768     c-41.335,0-64.571,21.371-64.571,65.036v450.123c0,40.844,20.895,62.229,62.192,62.229h452.024     c41.307,0,62.229-20.315,62.229-62.229V66.804c0-42.602-20.923-65.036-63.521-65.036C514.625,1.768,66.133,1.625,66.275,1.768z" />
		</g>
	</g>
</g>

<g
   id="Layer_4"
   style="fill:none;stroke:#c8c8c8;stroke-opacity:1"
   transform="matrix(1.9749306,0,0,1.9749306,37.135379,67.018172)"><polyline
     points="75.493,45.829 128.642,20.16 180.507,45.829 203.42,98.965    180.507,152.145 128.642,171.91 75.493,152.145 52.579,99.859 75.493,45.829  "
     id="polyline8"
     style="fill:none;stroke:#c8c8c8;stroke-width:2;stroke-opacity:1" /></g><g
   id="Layer_1"
   style="fill:none;stroke:#ffffff;stroke-width:8.30000019;stroke-miterlimit:4;stroke-opacity:1;stroke-dasharray:none"
   transform="matrix(1.9749306,0,0,1.9749306,37.135379,67.018172)"><line
     x1="128.642"
     y1="88.553001"
     x2="128.642"
     y2="3.1040001"
     id="line11"
     style="fill:none;stroke:#ffffff;stroke-width:8.30000019;stroke-miterlimit:4;stroke-opacity:1;stroke-dasharray:none" /><line
     x1="139.054"
     y1="98.964996"
     x2="224.606"
     y2="98.964996"
     id="line13"
     style="fill:none;stroke:#ffffff;stroke-width:8.30000019;stroke-miterlimit:4;stroke-opacity:1;stroke-dasharray:none" /><line
     x1="128.642"
     y1="109.378"
     x2="128.642"
     y2="194.912"
     id="line15"
     style="fill:none;stroke:#ffffff;stroke-width:8.30000019;stroke-miterlimit:4;stroke-opacity:1;stroke-dasharray:none" /><line
     x1="118.229"
     y1="98.964996"
     x2="32.756001"
     y2="98.964996"
     id="line17"
     style="fill:none;stroke:#ffffff;stroke-width:8.30000019;stroke-miterlimit:4;stroke-opacity:1;stroke-dasharray:none" /><line
     x1="121.279"
     y1="106.328"
     x2="60.784"
     y2="166.823"
     id="line19"
     style="fill:none;stroke:#ffffff;stroke-width:8.30000019;stroke-miterlimit:4;stroke-opacity:1;stroke-dasharray:none" /><line
     x1="136.005"
     y1="106.328"
     x2="196.27499"
     y2="166.601"
     id="line21"
     style="fill:none;stroke:#ffffff;stroke-width:8.30000019;stroke-miterlimit:4;stroke-opacity:1;stroke-dasharray:none" /><line
     x1="121.279"
     y1="91.603996"
     x2="60.784"
     y2="31.107"
     id="line23"
     style="fill:none;stroke:#ffffff;stroke-width:8.30000019;stroke-miterlimit:4;stroke-opacity:1;stroke-dasharray:none" /><line
     x1="136.005"
     y1="91.602997"
     x2="196.367"
     y2="31.24"
     id="line25"
     style="fill:none;stroke:#ffffff;stroke-width:8.30000019;stroke-miterlimit:4;stroke-opacity:1;stroke-dasharray:none" /><circle
     cx="128.64101"
     cy="98.964996"
     r="95.964996"
     id="circle27"
     style="fill:none;stroke:#ffffff;stroke-width:8.30000019;stroke-miterlimit:4;stroke-opacity:1;stroke-dasharray:none"
     sodipodi:cx="128.64101"
     sodipodi:cy="98.964996"
     sodipodi:rx="95.964996"
     sodipodi:ry="95.964996"
     d="m 224.606,98.964996 c 0,53.000004 -42.96499,95.964994 -95.96499,95.964994 -53.000008,0 -95.965,-42.96499 -95.965,-95.964994 C 32.67601,45.964992 75.641002,3 128.64101,3 c 53,0 95.96499,42.964992 95.96499,95.964996 z" /><circle
     cx="128.64101"
     cy="98.964996"
     r="10.412"
     id="circle29"
     style="fill:none;stroke:#ffffff;stroke-width:8.30000019;stroke-linecap:round;stroke-linejoin:round;stroke-miterlimit:4;stroke-opacity:1;stroke-dasharray:none"
     sodipodi:cx="128.64101"
     sodipodi:cy="98.964996"
     sodipodi:rx="10.412"
     sodipodi:ry="10.412"
     d="m 139.05301,98.964996 c 0,5.750384 -4.66161,10.412004 -10.412,10.412004 -5.75039,0 -10.412,-4.66162 -10.412,-10.412004 0,-5.750388 4.66161,-10.411999 10.412,-10.411999 5.75039,0 10.412,4.661611 10.412,10.411999 z" /></g><polyline
   style="fill:none;stroke:#c8c8c8;stroke-width:3;stroke-linecap:round;stroke-linejoin:round;stroke-opacity:1"
   id="polyline34"
   points="105.728,204.33    128.642,171.91 151.555,204.33  "
   transform="matrix(1.9749306,0,0,1.9749306,37.135379,67.018172)" /><polyline
   style="fill:none;stroke:#c8c8c8;stroke-width:3;stroke-linecap:round;stroke-linejoin:round;stroke-opacity:1"
   id="polyline38"
   points="180.507,131.387    203.42,98.965 226.335,131.387  "
   transform="matrix(1.9749306,0,0,1.9749306,37.135379,67.018172)" /><polyline
   style="fill:none;stroke:#c8c8c8;stroke-width:3;stroke-linecap:round;stroke-linejoin:round;stroke-opacity:1"
   id="polyline42"
   points="29.665,132.28    52.579,99.859 75.493,132.28  "
   transform="matrix(1.9749306,0,0,1.9749306,37.135379,67.018172)" /><polyline
   style="fill:none;stroke:#c8c8c8;stroke-width:3;stroke-linecap:round;stroke-linejoin:round;stroke-opacity:1"
   id="polyline58"
   points="105.728,52.581    128.642,20.16 151.555,52.581  "
   transform="matrix(1.9749306,0,0,1.9749306,37.135379,67.018172)" /><rect
   style="fill:#c8c8c8;stroke:#c8c8c8;stroke-width:16.39192389999999800;stroke-miterlimit:4;stroke-opacity:1;stroke-dasharray:none;fill-opacity:1"
   id="rect32"
   height="37.361736"
   width="90.505142"
   y="470.55576"
   x="245.94084" /><rect
   style="fill:#c8c8c8;stroke:#c8c8c8;stroke-width:16.39192389999999800;stroke-miterlimit:4;stroke-opacity:1;stroke-dasharray:none;fill-opacity:1"
   id="rect36"
   height="37.35976"
   width="90.507118"
   y="326.49835"
   x="393.62418" /><rect
   style="fill:#c8c8c8;stroke:#c8c8c8;stroke-width:16.39192389999999800;stroke-miterlimit:4;stroke-opacity:1;stroke-dasharray:none;fill-opacity:1"
   id="rect40"
   height="37.361736"
   width="90.507118"
   y="328.26199"
   x="95.721695" /><rect
   style="fill:#c8c8c8;stroke:#c8c8c8;stroke-width:16.39192389999999800;stroke-miterlimit:4;stroke-opacity:1;stroke-dasharray:none;fill-opacity:1"
   id="rect56"
   height="37.35976"
   width="90.505142"
   y="170.862"
   x="245.94084" /></svg>