<?xml version="1.0" encoding="utf-8"?>
<!-- Generator: Adobe Illustrator 15.0.0, SVG Export Plug-In . SVG Version: 6.00 Build 0)  -->
<!DOCTYPE svg PUBLIC "-//W3C//DTD SVG 1.1//EN" "http://www.w3.org/Graphics/SVG/1.1/DTD/svg11.dtd">
<svg version="1.1" xmlns="http://www.w3.org/2000/svg" xmlns:xlink="http://www.w3.org/1999/xlink" x="0px" y="0px" width="580px"
	 height="580px" viewBox="0 0 580 580" enable-background="new 0 0 580 580" xml:space="preserve">
<g id="Layer_2_1_">
	<g id="Layer_2">
		<g id="g1327">
			<path id="path1329" fill="#111111" stroke="#EEEEEE" stroke-width="3.408" d="M66.275,1.768
				c-41.335,0-64.571,21.371-64.571,65.036v450.123c0,40.844,20.895,62.229,62.192,62.229h452.024
				c41.307,0,62.229-20.315,62.229-62.229V66.804c0-42.602-20.923-65.036-63.521-65.036C514.625,1.768,66.133,1.625,66.275,1.768z"
				/>
		</g>
	</g>
</g>
<g id="Layer_1">
	<path opacity="0.5" fill="#FFFFFF" d="M289.74,354.493c92.517,0,170.676-32.283,170.676-70.493h-0.493v-5.232
		c-6.731-35.88-81.922-65.261-170.183-65.261c-88.241,0-163.417,29.378-170.156,65.254v10.479
		C126.322,325.115,201.499,354.493,289.74,354.493z"/>
	<path fill="#FFFFFF" d="M475.407,203.514c-1.094-41.941-18.257-81.2-48.323-110.543c-30.123-29.397-69.896-45.588-111.993-45.588
		h-50.18c-88.426,0-160.365,71.939-160.365,160.364v82.923h0.433v104.979c0,75.524,61.443,136.967,136.968,136.967h96.107
		c75.524,0,136.967-61.442,136.967-136.967V284.18h0.434v-76.433C475.454,206.343,475.437,204.944,475.407,203.514z M119.83,207.748
		c0-79.997,65.082-145.079,145.081-145.079h50.18c79.261,0,142.971,62.042,145.037,141.209c0.028,1.283,0.041,2.573,0.041,3.87
		v42.618c-27.974-30.257-92.824-50.978-170.183-50.978c-77.349,0-142.187,20.721-170.156,50.978V207.748z M289.986,213.687
		c88.261,0,163.451,29.381,170.183,65.261v5.232h0.493c0,38.21-78.159,70.493-170.676,70.493
		c-88.241,0-163.418-29.378-170.156-65.254v-10.479C126.568,243.065,201.745,213.687,289.986,213.687z"/>
</g>
</svg>
