<?xml version="1.0" encoding="utf-8"?>
<!-- Generator: Adobe Illustrator 15.0.0, SVG Export Plug-In . SVG Version: 6.00 Build 0)  -->
<!DOCTYPE svg PUBLIC "-//W3C//DTD SVG 1.1//EN" "http://www.w3.org/Graphics/SVG/1.1/DTD/svg11.dtd">
<svg version="1.1" xmlns="http://www.w3.org/2000/svg" xmlns:xlink="http://www.w3.org/1999/xlink" x="0px" y="0px" width="580px"
	 height="580px" viewBox="0 0 580 580" enable-background="new 0 0 580 580" xml:space="preserve">
<g id="Layer_2">
	<g id="g1327">
		<path id="path1329" fill="#111111" stroke="#EEEEEE" stroke-width="3.408" d="M66.275,1.768
			c-41.335,0-64.571,21.371-64.571,65.036v450.123c0,40.844,20.894,62.229,62.192,62.229H515.92
			c41.307,0,62.229-20.316,62.229-62.229V66.804c0-42.601-20.923-65.036-63.522-65.036C514.624,1.768,66.133,1.625,66.275,1.768z"/>
	</g>
</g>
<g id="svg2" xmlns:inkscape="http://www.inkscape.org/namespaces/inkscape" xmlns:cc="http://creativecommons.org/ns#" xmlns:svg="http://www.w3.org/2000/svg" xmlns:dc="http://purl.org/dc/elements/1.1/" xmlns:rdf="http://www.w3.org/1999/02/22-rdf-syntax-ns#" xmlns:sodipodi="http://sodipodi.sourceforge.net/DTD/sodipodi-0.dtd" inkscape:output_extension="org.inkscape.output.svg.inkscape" sodipodi:docname="waste_bin.svg" sodipodi:version="0.32" inkscape:version="0.46">
	<g>
		<path fill="#FFFFFF" d="M406.459,199.13l-11.396-94.687c-0.365-15.193-12.842-27.441-28.121-27.441h-94.118l-3.831-11.56
			c0-9.84-7.975-17.815-17.813-17.815h-38.91c-9.84,0-17.814,7.976-17.814,17.815l-2.649,11.56H96.902
			c-15.28,0-27.753,12.249-28.121,27.441L57.384,199.13c-24.493,10.192-9.662,33.125-9.662,33.125l75.945,129.387h216.508
			l75.945-129.387C416.121,232.255,430.953,209.323,406.459,199.13z M89.402,105.132c0-4.137,3.365-7.501,7.5-7.501h270.039
			c4.135,0,7.502,3.364,7.502,7.501v0.618l10.271,85.355c-48.531-17.784-152.793-55.889-152.793-55.889
			s-104.263,38.105-152.794,55.889l10.275-85.355V105.132z"/>
		<path fill="#FFFFFF" d="M222.101,111.695H120.947c-8.086,0-14.643,6.556-14.643,14.642l-4.954,41.16
			c41.181-15.074,98.137-35.896,120.75-44.162V111.695z"/>
		<path fill="#FFFFFF" d="M357.539,126.337c0-8.086-6.555-14.642-14.643-14.642H241.745v11.642
			c22.614,8.266,79.57,29.085,120.75,44.16L357.539,126.337z"/>
	</g>
	<g id="Layer_2_1_">
		<g>
			<path id="rect3530_1_" fill="#FFFFFF" d="M513.385,398.864c-1.39,0.976-3.285,1.188-4.856,0.541l-27.968-11.52l-0.415-0.15
				c-7.795-2.506-14.146-6.412-19.573-7.477c-71.729,54.076-143.436,108.147-215.175,162.214c-0.064,0.054-0.132,0.093-0.196,0.146
				c-13.124,10.723-32.74,6.393-42.012-6.818l-0.024,0.018c-0.061-0.072-0.106-0.15-0.164-0.221
				c-0.042-0.06-0.088-0.112-0.127-0.173l0.024-0.019c-10.022-12.593-7.982-32.024,5.23-41.791c0.056-0.044,0.114-0.087,0.173-0.128
				c53.936-36.607,108.512-72.242,162.627-108.435c0.01-0.007,0.017-0.014,0.024-0.02c20.906-14.249,42.473-27.639,62.594-42.084
				c0.547-16.303-0.637-33.291-0.669-50.344c-0.013-1.933,1.182-3.822,2.932-4.641l68.033-31.935
				c2.136-0.997,4.935-0.254,6.297,1.669l12.188,17.12c1.532,2.155,0.986,5.5-1.147,7.055
				c-13.854,10.204-28.308,19.616-41.301,29.819c0.404,7.755,1.26,15.725,2.618,23.239c6.642,3.775,13.988,7.185,21.153,10.078
				c14.294-9.249,28.197-20.021,42.711-30.024c2.173-1.506,5.512-0.921,7.043,1.233l13.371,18.721
				c1.34,1.886,1.157,4.701-0.414,6.399l-52.145,56.796C513.968,398.407,513.688,398.652,513.385,398.864L513.385,398.864z
				 M231.733,526.292c0.181-0.131,0.353-0.276,0.525-0.425c0.097-0.092,0.198-0.179,0.301-0.261
				c4.985-3.704,4.701-12.215-0.475-15.645c-0.093-0.068-0.185-0.141-0.273-0.216c-5.75-4.402-15.76,1.01-15.192,8.251
				c0.012,0.175,0.015,0.352,0.007,0.527C216.437,525.525,226.161,530.335,231.733,526.292L231.733,526.292z"/>
		</g>
	</g>
	<path fill="#FFFFFF" d="M535.012,471.922l-44.305-44.305l-60.521,16.217l-16.217,60.521l44.305,44.305l60.521-16.217
		L535.012,471.922z M459.642,502.988c-8.201-8.201-8.201-21.496,0-29.697c8.2-8.201,21.496-8.201,29.697,0
		c8.2,8.201,8.2,21.496,0,29.697C481.138,511.189,467.842,511.189,459.642,502.988z"/>
</g>
</svg>
