<?xml version="1.0" encoding="utf-8"?>
<!-- Generator: Adobe Illustrator 15.0.0, SVG Export Plug-In . SVG Version: 6.00 Build 0)  -->
<!DOCTYPE svg PUBLIC "-//W3C//DTD SVG 1.1//EN" "http://www.w3.org/Graphics/SVG/1.1/DTD/svg11.dtd">
<svg version="1.1" xmlns="http://www.w3.org/2000/svg" xmlns:xlink="http://www.w3.org/1999/xlink" x="0px" y="0px" width="580px"
	 height="580px" viewBox="0 0 580 580" enable-background="new 0 0 580 580" xml:space="preserve">
<g id="Layer_2">
	<g id="g1327">
		<path id="path1329" fill="#111111" stroke="#EEEEEE" stroke-width="3.408" d="M66.275,1.768
			c-41.335,0-64.571,21.371-64.571,65.036v450.123c0,40.844,20.895,62.229,62.192,62.229H515.92
			c41.307,0,62.229-20.315,62.229-62.229V66.804c0-42.601-20.923-65.036-63.521-65.036C514.624,1.768,66.133,1.625,66.275,1.768z"/>
	</g>
</g>
<g id="Layer_4">
	<g>
		<path fill="#FFFFFF" d="M133.626,118.397h-4.828v388.042c0,0,42.474,43.43,66.606,37.645v-398.51
			C195.405,145.574,133.626,141.565,133.626,118.397z"/>
		<polygon fill="#FFFFFF" points="204.092,145.574 204.092,540.227 443.479,447.559 451.201,71.101 		"/>
		<polygon fill="#FFFFFF" points="368.833,35.385 360.468,35.385 134.594,114.859 140.385,118.397 		"/>
		<polygon fill="#FFFFFF" points="359.183,42.142 435.761,71.101 439.623,69.17 364.33,42.142 		"/>
	</g>
</g>
</svg>
