<?xml version="1.0" encoding="utf-8"?>
<!-- Generator: Adobe Illustrator 15.0.0, SVG Export Plug-In . SVG Version: 6.00 Build 0)  -->
<!DOCTYPE svg PUBLIC "-//W3C//DTD SVG 1.1//EN" "http://www.w3.org/Graphics/SVG/1.1/DTD/svg11.dtd">
<svg version="1.1" xmlns="http://www.w3.org/2000/svg" xmlns:xlink="http://www.w3.org/1999/xlink" x="0px" y="0px" width="580px"
	 height="580px" viewBox="0 0 580 580" enable-background="new 0 0 580 580" xml:space="preserve">
<g id="Layer_2_1_">
	<g id="Layer_2">
		<g id="g1327">
			<path id="path1329" fill="#111111" stroke="#EEEEEE" stroke-width="3.408" d="M66.275,1.768
				c-41.335,0-64.571,21.371-64.571,65.036v450.123c0,40.844,20.895,62.229,62.192,62.229h452.024
				c41.307,0,62.229-20.315,62.229-62.229V66.804c0-42.602-20.923-65.036-63.521-65.036C514.625,1.768,66.133,1.625,66.275,1.768z"
				/>
		</g>
	</g>
</g>
<g id="Layer_1">
	<g>
		<path fill="none" d="M129.292,128.361l3.809,298.736c32.074,28.199,85.688,29.932,109.079,29.178
			c47.888-1.549,87.213-13.115,108.688-31.488l1.855-306.133C255.352,115.946,202.724,170.474,129.292,128.361z"/>
		<path fill="none" d="M233.855,486.408c-18.965,0-43.959-1.869-68.608-9.273c-19.636-5.898-36.179-14.414-49.471-25.396
			c-3.63,4.939-5.503,10.111-5.472,13.307c0.129,13.719,45.393,40.418,127.903,40.418c1.139,0,2.279-0.004,3.424-0.016
			c84.669-0.801,130.597-28.746,130.463-42.879c-0.027-2.961-1.698-7.938-4.77-12.447C329.605,480,269.742,485.4,243.148,486.26
			C240.256,486.353,237.144,486.408,233.855,486.408z"/>
		<path fill="none" d="M449.559,331.974c0.017-0.359,0.046-0.717,0.088-1.074l20.949-177.385c-0.405-5.807-2.297-9.25-9.792-11.042
			l-73.244,3.349l-1.22,201.154l53.512-6.553C449.265,338.396,449.395,335.554,449.559,331.974z"/>
		<path opacity="0.75" fill="#FFFFFF" d="M247.7,74.537c-5.435,0-11.14,0.064-16.956,0.192c-38.077,0.839-70.552,3.37-101.979,12.33
			l0.527,41.302c73.432,42.113,126.061-12.415,223.432-9.707l0.202-33.258C321.361,78.007,287.536,74.537,247.7,74.537z"/>
		<path fill="#FFFFFF" d="M504.686,144.689c-0.82-20.729-12.79-34.34-33.706-38.326c-0.94-0.18-1.896-0.252-2.856-0.208
			l-80.344,3.413l0.229-37.657c0.048-7.927-5.238-14.896-12.884-16.986C336.736,44.427,296.246,39.537,247.7,39.537
			c-5.69,0-11.654,0.067-17.728,0.201C190,40.619,147.248,43.404,105.438,57.7c-7.158,2.447-11.933,9.218-11.836,16.782
			l4.366,342.414c-0.9,1.426-1.554,2.977-1.93,4.592c-12.707,12.045-20.876,28.783-20.733,43.889
			c0.466,49.295,82.303,75.086,162.902,75.086c1.25,0,2.5-0.006,3.756-0.018c41.802-0.395,81.3-7.363,111.218-19.621
			c47.206-19.342,54.04-45.008,53.911-58.586c-0.145-15.311-8.648-32.488-21.186-43.586l0.227-37.314l61.965-6.92
			c0.372-0.043,0.743-0.102,1.109-0.176c25.204-5.15,31.429-21.057,32.146-33.697l23.256-193.883
			C504.686,146.008,504.713,145.347,504.686,144.689z M387.56,145.822l73.244-3.349c7.495,1.792,9.387,5.235,9.792,11.042
			L449.647,330.9c-0.042,0.357-0.071,0.715-0.088,1.074c-0.164,3.58-0.294,6.422-9.707,8.449l-53.512,6.553L387.56,145.822z
			 M352.926,85.396l-0.202,33.258l-1.855,306.133c-21.476,18.373-60.801,29.939-108.688,31.488
			c-23.391,0.754-77.005-0.979-109.079-29.178l-3.809-298.736l-0.527-41.302c31.427-8.96,63.902-11.491,101.979-12.33
			c5.816-0.128,11.521-0.192,16.956-0.192C287.536,74.537,321.361,78.007,352.926,85.396z M241.631,505.447
			c-1.145,0.012-2.285,0.016-3.424,0.016c-82.51,0-127.774-26.699-127.903-40.418c-0.031-3.195,1.842-8.367,5.472-13.307
			c13.292,10.982,29.835,19.498,49.471,25.396c24.649,7.404,49.644,9.273,68.608,9.273c3.289,0,6.4-0.055,9.293-0.148
			c26.594-0.859,86.457-6.26,124.176-36.139c3.071,4.51,4.742,9.486,4.77,12.447C372.227,476.701,326.3,504.646,241.631,505.447z"/>
	</g>
</g>
</svg>
