<?xml version="1.0" encoding="utf-8"?>
<!-- Generator: Adobe Illustrator 15.0.0, SVG Export Plug-In . SVG Version: 6.00 Build 0)  -->
<!DOCTYPE svg PUBLIC "-//W3C//DTD SVG 1.1//EN" "http://www.w3.org/Graphics/SVG/1.1/DTD/svg11.dtd">
<svg version="1.1" xmlns="http://www.w3.org/2000/svg" xmlns:xlink="http://www.w3.org/1999/xlink" x="0px" y="0px" width="580px"
	 height="580px" viewBox="0 0 580 580" enable-background="new 0 0 580 580" xml:space="preserve">
<g id="Layer_2">
	<g id="g1327">
		<path id="path1329" fill="#111111" stroke="#EEEEEE" stroke-width="3.408" d="M66.275,1.768
			c-41.335,0-64.571,21.371-64.571,65.036v450.123c0,40.844,20.895,62.229,62.192,62.229H515.92
			c41.307,0,62.229-20.315,62.229-62.229V66.804c0-42.601-20.923-65.036-63.521-65.036C514.624,1.768,66.133,1.625,66.275,1.768z"/>
	</g>
</g>
<g id="Layer_4">
	<g>
		<path fill="#FFFFFF" d="M539.122,265.404L507.7,233.982c-7.795-7.795-20.432-7.795-28.227,0l-5.088,5.088l-26.457-25.025
			c18.224-22.78,0-37.358,0-37.358s-27.335-28.246-73.804-71.071c-46.47-42.824-197.723-35.535-197.723-35.535
			c61.958,7.29,122.096,67.426,143.964,97.495c21.867,30.067,0,46.47,0,46.47l0.538,0.413c-6.745,5.729-13.988,12.993-22.004,21.008
			l-51.051,51.052l64.659,64.66l51.053-51.054c12.725-13.875,39.04-42.474,39.04-42.474l26.521,26.683l-5.568,5.569
			c-7.796,7.795-7.796,20.432,0,28.227l31.42,31.422c7.795,7.795,20.434,7.795,28.228,0l55.92-55.92
			C546.917,285.838,546.917,273.199,539.122,265.404z"/>
		<path fill="#FFFFFF" d="M121.576,412.791c-24.718,24.717-37.906,51.604-29.455,60.055l34.06,34.061
			c8.45,8.45,35.339-4.738,60.053-29.453l77.115-77.115l-64.659-64.66L121.576,412.791z"/>
		<path fill="#FFFFFF" d="M305.137,358.549l-64.66-64.658l-48.354-48.354c16.825-31.554,11.942-71.641-14.655-98.238
			c-16.292-16.291-37.646-24.438-58.999-24.438c-10.064,0-20.126,1.81-29.663,5.428l56.517,56.516l-48.348,48.347L40.46,176.637
			c-11.296,29.763-4.961,64.688,19.009,88.659c16.291,16.29,37.643,24.436,58.994,24.436c13.509,0,27.017-3.26,39.244-9.78
			l48.354,48.355l64.66,64.66l113.426,113.425c2.665,2.665,6.158,3.997,9.651,3.997s6.985-1.332,9.651-3.997l15.114-15.113
			c5.329-5.329,5.329-13.973-0.001-19.303L305.137,358.549z M405.271,493.1c-2.603,2.601-6.013,3.902-9.424,3.902
			s-6.821-1.302-9.424-3.902c-5.204-5.205-5.204-13.644,0-18.848c2.603-2.602,6.013-3.903,9.424-3.903s6.821,1.302,9.424,3.903
			C410.476,479.456,410.476,487.895,405.271,493.1z"/>
	</g>
</g>
</svg>
