<?xml version="1.0" encoding="utf-8"?>
<!-- Generator: Adobe Illustrator 15.0.0, SVG Export Plug-In . SVG Version: 6.00 Build 0)  -->
<!DOCTYPE svg PUBLIC "-//W3C//DTD SVG 1.1//EN" "http://www.w3.org/Graphics/SVG/1.1/DTD/svg11.dtd">
<svg version="1.1" xmlns="http://www.w3.org/2000/svg" xmlns:xlink="http://www.w3.org/1999/xlink" x="0px" y="0px" width="580px"
	 height="580px" viewBox="0 0 580 580" enable-background="new 0 0 580 580" xml:space="preserve">
<g id="Layer_2">
	<g id="g1327">
		<path id="path1329" fill="#111111" stroke="#EEEEEE" stroke-width="3.408" d="M66.275,1.768
			c-41.335,0-64.571,21.371-64.571,65.036v450.123c0,40.844,20.895,62.229,62.192,62.229H515.92
			c41.307,0,62.229-20.315,62.229-62.229V66.804c0-42.601-20.923-65.036-63.521-65.036C514.624,1.768,66.133,1.625,66.275,1.768z"/>
	</g>
</g>
<g id="Layer_4">
	<g>
		<path fill="#FFFFFF" d="M306.71,443.786l-84.892-1.557l-54.113,66.942l1.681,1.361l7.386-3.032l3.375,11.73l4.667,3.771
			l8.944,7.23l4.4-5.444l2.989,11.417l12.176,0.842l1.044,9.844l9.844-1.043L306.71,443.786z M210.582,507.827
			c-3.65-2.948-4.218-8.302-1.267-11.951c2.951-3.651,8.303-4.22,11.954-1.269c3.65,2.951,4.218,8.303,1.267,11.953
			C219.584,510.212,214.233,510.779,210.582,507.827z"/>
		<path fill="#FFFFFF" d="M279.176,371.269l84.89,1.559L479.436,230.1l-15.124-5.152l1.747-5.661l-4.136-3.343l-16.354,9.925
			l-5.379-17.207l5.028-6.221l-9.696,2.449l1.919-8.736l-10.474,1.822l2.54-8.234l-2.177-1.762L279.176,371.269z M419.602,249.242
			c-3.649-2.951-4.218-8.302-1.266-11.954c2.95-3.652,8.302-4.217,11.953-1.266c3.651,2.95,4.219,8.303,1.269,11.953
			C428.604,251.625,423.253,252.193,419.602,249.242z"/>
		<path fill="#FFFFFF" d="M535.79,429.07l6.226-2.36l0.033-1.869l-19.222-7.324l12.856-18.536l1.839,0.035l-5.164-4.024l8.363-3.991
			l-8.135-7.383l6.784-2.572l-179.288-3.29l-84.89-1.558l-136.958-2.513l4.782,2.735l-8.36,11.488l-0.26,14.21l9.447,0.172
			l-9.09,11.874l6.984,10.377l-6.838,6.593l4.417,4.579l86.483,1.588l84.894,1.559l229.942,4.219L535.79,429.07z M308.975,417.044
			c-5.691,4.877-14.256,4.218-19.132-1.474c-4.876-5.689-4.215-14.255,1.476-19.13c5.688-4.875,14.253-4.216,19.129,1.473
			C315.323,403.604,314.664,412.169,308.975,417.044z"/>
	</g>
	<g>
		<path fill="#FFFFFF" d="M137.65,277.198l12.415-122.056c0.349-3.431-0.092-6.297-1.162-8.481
			c-2.448-4.997-8.185-6.437-15.272-2.968l-62.966,30.825c-10.188,4.988-19.458,18.298-20.607,29.58l-12.414,122.06
			c-0.349,3.432,0.093,6.297,1.161,8.48c2.449,4.998,8.187,6.436,15.274,2.967l62.966-30.825
			C127.229,301.791,136.503,288.482,137.65,277.198z M52.545,322.282l1.484-14.578c3.5-6.261,9.841-17.893,20.029-37.556
			c9.953-19.207-1.685-39.029-10.794-53.258l1.153-11.332c0.645-6.326,6.88-15.277,12.594-18.075l58.152-28.467L123.29,275.74
			c-0.644,6.326-6.879,15.278-12.592,18.075L52.545,322.282z"/>
		<polygon fill="#FFFFFF" points="154.152,269.917 159.876,272.377 167.641,275.717 166.653,267.319 165.921,261.126 
			166.487,260.702 172.219,263.167 179.982,266.511 178.995,258.111 178.264,251.909 178.82,251.491 184.559,253.957 
			192.325,257.302 191.337,248.9 190.606,242.69 191.156,242.278 196.901,244.752 204.669,248.093 203.68,239.693 202.945,233.474 
			203.487,233.067 209.244,235.542 217.01,238.883 216.023,230.482 215.287,224.255 215.822,223.855 221.586,226.332 
			229.353,229.674 228.365,221.276 227.628,215.037 228.158,214.644 233.928,217.124 241.696,220.466 240.707,212.067 
			239.968,205.818 240.491,205.43 246.27,207.915 254.038,211.256 253.048,202.857 252.313,196.601 252.825,196.218 
			258.615,198.706 266.38,202.048 265.391,193.65 264.652,187.383 265.16,187.006 270.956,189.5 278.723,192.841 277.734,184.44 
			276.993,178.166 277.49,177.793 283.297,180.29 291.064,183.629 290.076,175.232 289.336,168.947 289.826,168.583 
			295.641,171.081 303.408,174.423 302.42,166.022 301.676,159.731 302.162,159.37 307.984,161.873 315.75,165.215 314.76,156.814 
			314.019,150.513 314.495,150.156 320.324,152.663 328.092,156.005 327.104,147.606 326.359,141.297 326.828,140.945 
			332.668,143.455 340.436,146.795 339.445,138.396 338.701,132.079 339.164,131.732 345.01,134.245 352.775,137.587 
			351.789,129.189 351.043,122.86 351.496,122.521 357.352,125.037 365.119,128.38 364.131,119.979 363.383,113.644 363.83,113.309 
			369.695,115.829 377.463,119.17 376.473,110.771 375.725,104.425 376.166,104.097 382.037,106.619 389.803,109.96 
			388.814,101.562 388.066,95.208 388.5,94.883 394.379,97.411 402.146,100.752 401.158,92.354 400.406,85.988 400.959,85.577 
			378.145,38.971 159.792,145.867 156.338,147.555 143.21,278.09 		"/>
	</g>
</g>
</svg>
