<?xml version="1.0" encoding="utf-8"?>
<!-- Generator: Adobe Illustrator 15.0.0, SVG Export Plug-In . SVG Version: 6.00 Build 0)  -->
<!DOCTYPE svg PUBLIC "-//W3C//DTD SVG 1.1//EN" "http://www.w3.org/Graphics/SVG/1.1/DTD/svg11.dtd">
<svg version="1.1" xmlns="http://www.w3.org/2000/svg" xmlns:xlink="http://www.w3.org/1999/xlink" x="0px" y="0px" width="580px"
	 height="580px" viewBox="0 0 580 580" enable-background="new 0 0 580 580" xml:space="preserve">
<g id="Layer_2_1_">
	<g id="Layer_2">
		<g id="g1327">
			<path id="path1329" fill="#111111" stroke="#EEEEEE" stroke-width="3.408" d="M66.275,1.768
				c-41.335,0-64.571,21.371-64.571,65.036v450.123c0,40.844,20.895,62.229,62.192,62.229h452.024
				c41.307,0,62.229-20.315,62.229-62.229V66.804c0-42.602-20.923-65.036-63.521-65.036C514.625,1.768,66.133,1.625,66.275,1.768z"
				/>
		</g>
	</g>
</g>
<g id="Layer_1">
	<g>
		<path fill="#FFFFFF" d="M265.737,65.875l-5.613-8.154l-8.154,5.613l-8.563-8.698l-10.613,5.16l1.271-6.884l-11.31-2.087
			l-5.9-1.089l-11.104,5.069l-2.505-7.581l-2.126-0.392l-15.621,84.65l56.422,63.447L265.737,65.875z M234.815,90.167
			c-0.852,4.616-5.285,7.668-9.901,6.816c-4.616-0.852-7.668-5.285-6.815-9.902c0.852-4.616,5.285-7.668,9.9-6.816
			C232.616,81.117,235.667,85.551,234.815,90.167z"/>
		<path fill="#FFFFFF" d="M126.168,452.974l2.753,0.508l4.599-7.286l5.432,9.138l5.386-7.142l4.448,8.956l1.452-7.867l16.565-7.111
			l3.106,18.877l5.231,0.966l3.162-5.01l13.752,8.131l33.307-180.477L168.94,221.21L126.168,452.974z M174.473,417.146
			c-0.852,4.616-5.285,7.668-9.901,6.815c-4.617-0.852-7.668-5.284-6.816-9.901c0.852-4.616,5.285-7.668,9.901-6.815
			C172.273,408.096,175.325,412.529,174.473,417.146z"/>
		<path fill="#FFFFFF" d="M240.771,201.161l-56.423-63.447l-57.48-64.637l-6.353-0.373l-0.556,9.481l-12.424,1.449l-3.102,14.628
			l-6.278-7.061l-10.621,9.444l-3.283,13.823l-5.19-1.85l91.027,102.36l56.423,63.447l119.16,133.998l-2.461-6.826l10.9,1.372
			l-2.412-8.947l6.416,1.304l-1.223-1.374l5.709-21.824l18.067,9.831l1.398-1.242l-2.26-6.264l13.791-5.437L240.771,201.161z
			 M209.52,227.618c-7.493,0-13.567-6.074-13.567-13.568c0-7.493,6.074-13.567,13.567-13.567c7.494,0,13.568,6.074,13.568,13.567
			C223.089,221.544,217.014,227.618,209.52,227.618z"/>
		<path fill="#FFFFFF" d="M478.293,87.675c-14.008-5.871-26.652-7.551-28.246-3.753c-1.158,2.766,3.865,7.673,12.086,12.403
			L447.24,155.51l35.729-50.385c9.375,2.677,16.623,2.873,17.803,0.059C502.363,101.384,492.299,93.545,478.293,87.675z"/>
		<path fill="#FFFFFF" d="M338.966,226.901l39.046,46.906l-19.659-58.556c7.688-5.997,12.117-11.738,10.537-14.35
			c-2.131-3.524-14.395-0.012-27.391,7.847c-12.998,7.857-21.805,17.085-19.676,20.61
			C323.376,231.924,330.302,230.756,338.966,226.901z"/>
		<path fill="#FFFFFF" d="M251.492,494.265c-4.056-8.865-8.617-14.502-11.522-13.57c-3.924,1.258-3.342,14.003,1.297,28.464
			c4.639,14.462,11.579,25.165,15.5,23.908c2.856-0.916,3.32-7.924,1.575-17.246l54.665-27.136L251.492,494.265z"/>
		<path fill="#FFFFFF" d="M445.894,419.249c-2.133,2.107,0.619,8.569,6.387,16.097l-36.508,48.906l52.357-32.771
			c7.623,6.077,14.24,9.044,16.41,6.9c2.934-2.895-3.344-14.002-14.016-24.807C459.853,422.768,448.826,416.356,445.894,419.249z"/>
	</g>
</g>
</svg>
