<?xml version="1.0" encoding="utf-8"?>
<!-- Generator: Adobe Illustrator 15.0.0, SVG Export Plug-In . SVG Version: 6.00 Build 0)  -->
<!DOCTYPE svg PUBLIC "-//W3C//DTD SVG 1.1//EN" "http://www.w3.org/Graphics/SVG/1.1/DTD/svg11.dtd">
<svg version="1.1" xmlns="http://www.w3.org/2000/svg" xmlns:xlink="http://www.w3.org/1999/xlink" x="0px" y="0px" width="580px"
	 height="580px" viewBox="0 0 580 580" enable-background="new 0 0 580 580" xml:space="preserve">
<g id="Layer_2_1_">
	<g id="Layer_2">
		<g id="g1327">
			<path id="path1329" fill="#111111" stroke="#EEEEEE" stroke-width="3.408" d="M66.275,1.768
				c-41.335,0-64.571,21.371-64.571,65.036v450.123c0,40.844,20.895,62.229,62.192,62.229h452.024
				c41.307,0,62.229-20.315,62.229-62.229V66.804c0-42.602-20.923-65.036-63.521-65.036C514.625,1.768,66.133,1.625,66.275,1.768z"
				/>
		</g>
	</g>
</g>
<g id="Layer_1">
	<g>
		<path fill="#FFFFFF" d="M530.472,291.772H156.991c-5.384,0-9.75,7.826-9.75,17.481c0,9.653,4.365,17.479,9.75,17.479h373.481
			c5.385,0,9.75-7.826,9.75-17.479C540.222,299.598,535.857,291.772,530.472,291.772z"/>
		<path fill="#FFFFFF" d="M358.134,113.77c1.398-2.434,2.21-5.248,2.21-8.256c0-9.174-7.438-16.611-16.611-16.611
			s-16.611,7.437-16.611,16.611c0,3.009,0.812,5.822,2.21,8.256c-82.717,7.289-147.59,76.736-147.59,161.346h323.984
			C505.724,190.506,440.851,121.058,358.134,113.77z"/>
		<path fill="#FFFFFF" d="M129.876,344.52l-90.099,58.465v99.112l148.37-101.314l90.628,12.042l77.997-37.498l77.006-8.223
			c14.415-9,6.406-22.584,6.406-22.584H129.876z"/>
	</g>
</g>
</svg>
