<?xml version="1.0" encoding="utf-8"?>
<!-- Generator: Adobe Illustrator 15.0.0, SVG Export Plug-In . SVG Version: 6.00 Build 0)  -->
<!DOCTYPE svg PUBLIC "-//W3C//DTD SVG 1.1//EN" "http://www.w3.org/Graphics/SVG/1.1/DTD/svg11.dtd">
<svg version="1.1" xmlns="http://www.w3.org/2000/svg" xmlns:xlink="http://www.w3.org/1999/xlink" x="0px" y="0px" width="580px"
	 height="580px" viewBox="0 0 580 580" enable-background="new 0 0 580 580" xml:space="preserve">
<g id="Layer_2_1_">
	<g id="Layer_2">
		<g id="g1327">
			<path id="path1329" fill="#111111" stroke="#EEEEEE" stroke-width="3.408" d="M66.275,1.768
				c-41.335,0-64.571,21.371-64.571,65.036v450.123c0,40.844,20.895,62.229,62.192,62.229h452.024
				c41.307,0,62.229-20.315,62.229-62.229V66.804c0-42.602-20.923-65.036-63.521-65.036C514.625,1.768,66.133,1.625,66.275,1.768z"
				/>
		</g>
	</g>
</g>
<g id="Layer_1">
	<g>
		<path fill="#FFFFFF" d="M255.691,325.257c-3.248,5.776-10.563,7.826-16.341,4.578l-1.306-0.734
			c-5.777-3.249-7.826-10.565-4.578-16.342L381.23,49.969c3.249-5.777,10.564-7.827,16.342-4.578l1.306,0.733
			c5.777,3.249,7.826,10.564,4.578,16.342L255.691,325.257z"/>
		<g>
			<path fill="#FFFFFF" d="M262.291,443.592l20.095-35.738c20.572-36.586,7.591-82.922-28.996-103.494l-0.872-0.49
				c-36.586-20.572-82.923-7.591-103.494,28.996l-20.096,35.737L262.291,443.592z"/>
			<path fill="#FFFFFF" d="M121.086,382.55l-26.467,47.069c-5.314,9.451-12.769,24.561-13.776,34.701l20.645-10.189l-9.313,16.562
				l17.213-4.089l-2.994,15.525l7.353-13.074l3.706,15.851l14.543-13.62l-3.372,27.933l12.743-22.663l-1.204,28.004l17.982-18.57
				l-4.355,20.496l15.687-14.124l-8.111,28.709l17.7-23.317l-5.553,22.117l21.242-13.295l-7.106,12.639l19.465-8.377l-2.604,25.315
				l7.839-12.099c6.088-5.436,11.411-11.934,15.635-19.445l26.467-47.069L121.086,382.55z"/>
		</g>
		<path fill="#FFFFFF" d="M499.157,385.085L499.157,385.085L499.157,385.085c-0.001-28.975-32.009-63.503-71.494-63.503
			c-39.486,0-71.494,34.528-71.495,63.503l0,0l0,0v0.001c0,6.189,1.465,12.126,4.146,17.639l24.06,102.356h94.061l18.446-106.814
			C498.366,394.054,499.157,389.638,499.157,385.085L499.157,385.085z M379.958,345.478c13.448-12.737,30.39-19.751,47.705-19.751
			s34.257,7.014,47.704,19.751c12.302,11.65,19.646,26.457,19.646,39.606h-134.7C360.312,371.935,367.657,357.129,379.958,345.478z"
			/>
	</g>
</g>
</svg>
