<?xml version="1.0" encoding="utf-8"?>
<!-- Generator: Adobe Illustrator 15.0.0, SVG Export Plug-In . SVG Version: 6.00 Build 0)  -->
<!DOCTYPE svg PUBLIC "-//W3C//DTD SVG 1.1//EN" "http://www.w3.org/Graphics/SVG/1.1/DTD/svg11.dtd">
<svg version="1.1" xmlns="http://www.w3.org/2000/svg" xmlns:xlink="http://www.w3.org/1999/xlink" x="0px" y="0px" width="580px"
	 height="580px" viewBox="0 0 580 580" enable-background="new 0 0 580 580" xml:space="preserve">
<g id="Layer_2_1_">
	<g id="Layer_2">
		<g id="g1327">
			<path id="path1329" fill="#111111" stroke="#EEEEEE" stroke-width="3.408" d="M66.275,1.768
				c-41.335,0-64.571,21.371-64.571,65.036v450.123c0,40.844,20.895,62.229,62.192,62.229h452.024
				c41.307,0,62.229-20.315,62.229-62.229V66.804c0-42.602-20.923-65.036-63.521-65.036C514.625,1.768,66.133,1.625,66.275,1.768z"
				/>
		</g>
	</g>
</g>
<g id="Layer_1">
	<path fill="#FFFFFF" d="M127.26,60.01C65.415,73.839,26.491,135.183,40.32,197.028c11.729,52.455,57.641,88.413,109.047,89.688
		c-40.499-8.396-74.438-39.693-84.035-82.609c-10.669-47.712,19.468-95.207,67.18-105.875c39.163-8.757,78.15,15.98,86.907,55.142
		c7.228,32.324-13.19,64.502-45.513,71.729c-26.853,6.004-53.585-10.957-59.589-37.809c-5.026-22.477,9.17-44.851,31.647-49.876
		c18.974-4.243,37.863,7.742,42.105,26.716c3.617,16.173-6.599,32.274-22.771,35.89l-4.029-18.02
		c6.235-1.395,10.175-7.603,8.78-13.841c-2.021-9.037-11.018-14.747-20.056-12.726c-12.54,2.804-20.46,15.287-17.656,27.827
		c3.783,16.916,20.623,27.6,37.539,23.817c22.387-5.006,36.528-27.292,31.522-49.68c-6.535-29.226-35.63-47.686-64.856-41.151
		c-37.775,8.447-61.635,46.051-53.188,83.826c9.012,40.302,43.895,68.253,83.259,70.292l57.26,264.448
		c0.904,4.043,4.913,6.586,8.955,5.683c4.042-0.904,6.587-4.913,5.683-8.956l-56.642-261.687c3.002-0.358,6.013-0.872,9.025-1.545
		c21.312-4.766,39.916-15.204,54.582-29.369c22.696-30.081,26.237-58.749,18.804-91.994C250.449,85.105,189.104,46.181,127.26,60.01
		z"/>
	<g>
		<polygon fill="#FFFFFF" points="348.032,277.203 330.029,327.567 351.959,358.316 369.962,307.952 		"/>
		<path fill="#FFFFFF" d="M407.375,123.087c-5.009,6.212-8.999,13.283-11.765,21.019l-9.07,25.374l21.93,30.749l16.332-45.688
			c0.541-1.513,1.172-2.975,1.872-4.395L407.375,123.087z"/>
		<polygon fill="#FFFFFF" points="323.703,437.36 341.707,386.996 319.776,356.247 301.773,406.611 		"/>
		<path fill="#FFFFFF" d="M291.521,435.291l-16.296,45.587c-2.881,8.062,1.317,16.932,9.378,19.813
			c1.724,0.616,3.485,0.908,5.217,0.908c6.364,0,12.331-3.95,14.596-10.286l9.034-25.273L291.521,435.291z"/>
		<polygon fill="#FFFFFF" points="376.288,198.159 358.284,248.523 380.214,279.272 398.218,228.908 		"/>
		<path fill="#FFFFFF" d="M528.486,137.537c-8.228-17.383-22.732-30.521-40.842-36.995c-18.111-6.474-37.658-5.507-55.039,2.721
			c-2.158,1.021-4.25,2.14-6.272,3.35l18.107,25.389c0.472-0.246,0.944-0.49,1.428-0.719c9.897-4.686,21.03-5.236,31.342-1.549
			c10.313,3.686,18.572,11.167,23.257,21.066c4.686,9.898,5.235,21.029,1.549,31.341c-2.882,8.061,1.317,16.932,9.378,19.813
			c8.059,2.881,16.931-1.316,19.813-9.378C537.68,174.467,536.715,154.92,528.486,137.537z"/>
	</g>
</g>
</svg>
