<?xml version="1.0" encoding="utf-8"?>
<!-- Generator: Adobe Illustrator 15.0.0, SVG Export Plug-In . SVG Version: 6.00 Build 0)  -->
<!DOCTYPE svg PUBLIC "-//W3C//DTD SVG 1.1//EN" "http://www.w3.org/Graphics/SVG/1.1/DTD/svg11.dtd">
<svg version="1.1" xmlns="http://www.w3.org/2000/svg" xmlns:xlink="http://www.w3.org/1999/xlink" x="0px" y="0px" width="580px"
	 height="580px" viewBox="0 0 580 580" enable-background="new 0 0 580 580" xml:space="preserve">
<g id="Layer_2_1_">
	<g id="Layer_2">
		<g id="g1327">
			<path id="path1329" fill="#111111" stroke="#EEEEEE" stroke-width="3.408" d="M66.275,1.768
				c-41.335,0-64.571,21.371-64.571,65.036v450.123c0,40.844,20.895,62.229,62.192,62.229h452.024
				c41.307,0,62.229-20.315,62.229-62.229V66.804c0-42.602-20.923-65.036-63.521-65.036C514.625,1.768,66.133,1.625,66.275,1.768z"
				/>
		</g>
	</g>
</g>
<g id="Layer_1">
	<path fill="#FFFFFF" d="M375.621,49.19c-3.93-9.423-15.472-13.517-25.978-9.143c-9.53,3.885-14.464,13.238-12.486,22.015
		c-31.27,10.791-30.236-1.302-71.09,13.095l-72.251,28.769c-50.548,21.334-70.126,68.301-75.046,119.682l1.738-2.522
		c2.739-36.645,75.054-91.251,105.895-59.472c4.194,6.54,14.965,10.227,23.606,8.065l52.616,128.039
		c-7.173,2.946-11.763,14.239-8.971,21.476l80.948,209.213c7.38,19.07,22.951,13.008,31.214,9.705l37.979-15.598
		c8.271-3.428,22.595-15.613,15.54-31.471l-89.666-202.98c-3.115-7.072-14.202-11.746-21.365-8.924c0,0-0.058-0.066-0.072-0.031
		l-52.755-128.524c12.624-5.97,17.147-14.698,18.382-24.254c2.386-18.456,22.447-20.92,38.429-25.884l2.533,6.316
		c3.93,9.422,15.472,13.517,25.998,9.193c10.527-4.323,15.875-15.385,12.018-24.776L375.621,49.19z"/>
</g>
</svg>
