<?xml version="1.0" encoding="utf-8"?>
<!-- Generator: Adobe Illustrator 15.0.0, SVG Export Plug-In . SVG Version: 6.00 Build 0)  -->
<!DOCTYPE svg PUBLIC "-//W3C//DTD SVG 1.1//EN" "http://www.w3.org/Graphics/SVG/1.1/DTD/svg11.dtd">
<svg version="1.1" xmlns="http://www.w3.org/2000/svg" xmlns:xlink="http://www.w3.org/1999/xlink" x="0px" y="0px" width="580px"
	 height="580px" viewBox="0 0 580 580" enable-background="new 0 0 580 580" xml:space="preserve">
<g id="Layer_2_1_">
	<g id="Layer_2">
		<g id="g1327">
			<path id="path1329" fill="#111111" stroke="#EEEEEE" stroke-width="3.408" d="M66.275,1.768
				c-41.335,0-64.571,21.371-64.571,65.036v450.123c0,40.844,20.895,62.229,62.192,62.229h452.024
				c41.307,0,62.229-20.315,62.229-62.229V66.804c0-42.602-20.923-65.036-63.521-65.036C514.625,1.768,66.133,1.625,66.275,1.768z"
				/>
		</g>
	</g>
</g>
<g id="Layer_1">
	<g>
		<path fill="#FFFFFF" d="M456.953,75.226c-0.239,0.635-0.569,1.25-1.014,1.846c-0.353,0.472-0.782,0.93-1.268,1.38
			c-2.502,2.318-6.781,4.366-13.087,6.31c-8.769,2.705-21.249,5.124-37.095,7.191c-32.338,4.217-75.301,6.541-120.973,6.541
			c-45.675,0-88.637-2.323-120.975-6.541c-15.846-2.067-28.327-4.486-37.097-7.191c-6.567-2.025-10.934-4.163-13.386-6.603
			c-0.522-0.519-0.958-1.052-1.307-1.601c-0.517-0.811-0.849-1.655-1.002-2.541c-3.308,10.596-20.896,69.369-28.466,144.166
			c-7.698,76.065-6.316,184.748,43.98,270.549l0.24,0.409l0.417,0.227c0.379,0.208,38.562,20.777,97.873,30.97
			c18.868,3.241,41.269,5.637,66.289,5.635c47.544,0,104.531-8.648,164.61-36.554l0.514-0.239l0.271-0.499
			c0.262-0.486,26.507-49.578,39.517-125.09C506.891,294.541,509.809,188.712,456.953,75.226z M98.7,130.682
			c167.786,58.358,323.659,17.188,376.362-0.374c4.39,13.4,8.07,26.617,11.108,39.598C448.144,183.848,275.909,239,90.962,171.408
			C93.403,156.529,96.073,142.821,98.7,130.682z M454.631,338.337c0,13.539-10.975,24.514-24.513,24.514
			c-13.539,0-24.514-10.975-24.514-24.514c0-13.538,10.975-24.514,24.514-24.514C443.656,313.823,454.631,324.799,454.631,338.337z
			 M473.397,435.75c-53.524,17.61-204.556,56.522-368.099,2.059c-5.732-15.795-10.228-31.966-13.714-48.229
			c185.631,67.576,358.319,11.647,395.152-1.933C482.655,405.842,477.97,422.009,473.397,435.75z"/>
		<path fill="#FFFFFF" d="M165.89,85.484c31.757,3.978,73.532,6.168,117.627,6.168c44.094,0,85.868-2.19,117.625-6.168
			c43.557-5.456,48.845-11.779,49.371-12.645c-0.526-0.865-5.814-7.188-49.371-12.644c-31.757-3.979-73.53-6.169-117.625-6.169
			c-44.095,0-85.87,2.19-117.627,6.169c-43.557,5.456-48.846,11.779-49.371,12.644C117.044,73.704,122.333,80.028,165.89,85.484z"/>
	</g>
</g>
</svg>
