<?xml version="1.0" encoding="utf-8"?>
<!-- Generator: Adobe Illustrator 15.0.0, SVG Export Plug-In . SVG Version: 6.00 Build 0)  -->
<!DOCTYPE svg PUBLIC "-//W3C//DTD SVG 1.1//EN" "http://www.w3.org/Graphics/SVG/1.1/DTD/svg11.dtd">
<svg version="1.1" xmlns="http://www.w3.org/2000/svg" xmlns:xlink="http://www.w3.org/1999/xlink" x="0px" y="0px" width="580px"
	 height="580px" viewBox="0 0 580 580" enable-background="new 0 0 580 580" xml:space="preserve">
<g id="Layer_1">
	<g id="Layer_1_1_">
		<g id="Layer_2">
			<g id="g1327">
				<path id="path1329" fill="#111111" stroke="#EEEEEE" stroke-width="3.408" d="M66.275,1.768
					c-41.335,0-64.571,21.371-64.571,65.036v450.123c0,40.844,20.895,62.229,62.192,62.229H515.92
					c41.307,0,62.229-20.315,62.229-62.229V66.804c0-42.601-20.925-65.036-63.521-65.036C514.624,1.768,66.133,1.625,66.275,1.768z"
					/>
			</g>
		</g>
	</g>
</g>
<g id="Layer_2_1_">
	<g>
		<path fill="#FFFFFF" d="M481.223,352.182c-31.294-5.069-53.561,26.314-81.69,34.125c-5.05,1.392-44.9,8.837-45.544-0.144
			c-0.981-14.112,2.154-29.843,9.371-42.069c13.429-22.748,48.547-28.55,52.212-57.712c1.956-15.562-8.417-29.078-22.729-34.27
			c-32.509-11.724-73.121,23.209-49.63,55.406c4.186,5.691,18.174,11.709,18.938,18.419c0.449,4.133-7.935,11.851-9.929,14.389
			c-9.604,12.155-19.235,24.342-28.854,36.539c-1.188,1.504-2.998,2.878-5.29,4.134l0.186-0.265
			c-63.727,6.456-140.175,0.587-189.992,47.877c53.029-1.622,106.062-3.267,159.091-4.883
			c-27.689,40.011-55.395,80.014-83.084,120.021c66.774-16.101,103.413-83.454,143.478-133.428
			c2.629-3.291,22.364-2.655,27.44-3.535c7.144-1.29,14.106-2.885,20.811-5.672c7.571-3.131,22.655-16.412,31.697-11.688
			c6.385,3.314,8.556,18.395,15.873,23.624c7.119,5.104,15.598,7.422,24.308,7.423C509.326,420.468,529.271,359.986,481.223,352.182
			z M353.774,270.962c21.749-24.902,68.74,0.769,43.779,28.871C374.387,325.454,329.03,299.334,353.774,270.962z M324.085,409.771
			c-2.943,0-5.331-2.909-5.331-6.5c0-3.59,2.388-6.5,5.331-6.5c2.945,0,5.332,2.91,5.332,6.5
			C329.417,406.862,327.03,409.771,324.085,409.771z M450.817,403.838c-25.755-22.993,15.879-52.528,38.395-37.805
			C520.719,386.602,475.228,424.989,450.817,403.838z"/>
		<path fill="#FFFFFF" d="M91.14,107.275l144.779,243.103L108.982,97.257C84.003,73.667,91.14,107.275,91.14,107.275z
			 M113.467,126.143c-1.232,0.692-5.693-4.915-9.965-12.522c-4.271-7.608-6.736-14.335-5.504-15.027
			c1.232-0.692,5.693,4.916,9.964,12.523S114.699,125.451,113.467,126.143z"/>
		<path fill="none" stroke="#FFFFFF" stroke-width="3.6109" stroke-miterlimit="10" d="M79.981,234.094
			c0,0-23.041-49.72,3.728-72.034s24.254-50.944,24.254-50.944s-15.051-91.646,75.045-72.141
			c90.095,19.505,154.842,118.431,263.318,80.53"/>
	</g>
	<path fill="#FFFFFF" d="M466.5,163.167c0,1.104-0.896,2-2,2h-20c-1.104,0-2-0.896-2-2v-76c0-1.104,0.896-2,2-2h20
		c1.104,0,2,0.896,2,2V163.167z"/>
	<path fill="#FFFFFF" d="M478.5,166.5c0,1.104-0.896,2-2,2h-44c-1.104,0-2-0.896-2-2v-5.333c0-1.104,0.896-2,2-2h44
		c1.104,0,2,0.896,2,2V166.5z"/>
	<path fill="#FFFFFF" d="M478.5,91.527c0,1.104-0.896,2-2,2h-44c-1.104,0-2-0.896-2-2v-5.333c0-1.104,0.896-2,2-2h44
		c1.104,0,2,0.896,2,2V91.527z"/>
</g>
</svg>
