<?xml version="1.0" encoding="utf-8"?>
<!-- Generator: Adobe Illustrator 15.0.0, SVG Export Plug-In . SVG Version: 6.00 Build 0)  -->
<!DOCTYPE svg PUBLIC "-//W3C//DTD SVG 1.1//EN" "http://www.w3.org/Graphics/SVG/1.1/DTD/svg11.dtd">
<svg version="1.1" xmlns="http://www.w3.org/2000/svg" xmlns:xlink="http://www.w3.org/1999/xlink" x="0px" y="0px" width="580px"
	 height="580px" viewBox="0 0 580 580" enable-background="new 0 0 580 580" xml:space="preserve">
<g id="Layer_2">
	<g id="g1327">
		<path id="path1329" fill="#111111" stroke="#EEEEEE" stroke-width="3.408" d="M66.275,1.768
			c-41.335,0-64.571,21.371-64.571,65.036v450.123c0,40.844,20.895,62.229,62.192,62.229H515.92
			c41.307,0,62.229-20.315,62.229-62.229V66.804c0-42.601-20.923-65.036-63.521-65.036C514.624,1.768,66.133,1.625,66.275,1.768z"/>
	</g>
</g>
<g id="Layer_4">
	<g>
		<path fill="#FFFFFF" d="M271.394,507.134c1.483,7.04,9.24,12.418,18.604,12.418c9.369,0,17.125-5.378,18.609-12.418H271.394z"/>
		<path fill="#FFFFFF" d="M336.827,392.219h-93.655c-14.522,0-26.333-11.811-26.333-26.34v-10.481
			c-1.253-34.572-9.629-47.314-19.328-62.059c-2.378-3.623-4.844-7.367-7.247-11.524c-6.712-7.591-12.542-15.901-17.335-24.726
			l-3.118-3.641l0.808-0.817c-9.028-18.242-13.778-38.553-13.778-59.022c0-73.425,59.739-133.16,133.157-133.16
			c73.424,0,133.163,59.735,133.163,133.16c0,32.724-11.978,64.151-33.734,88.56c-2.452,4.263-4.949,8.051-7.383,11.714
			c-9.326,14.114-17.392,26.31-18.889,59.728l0.007,12.27C363.161,380.408,351.346,392.219,336.827,392.219z M183.297,251.641
			c4.439,8.159,9.861,15.837,16.113,22.838l0.715,0.993c2.316,4.058,4.78,7.808,7.165,11.435
			c9.772,14.859,19.869,30.229,21.248,68.28v10.692c0,8.072,6.569,14.642,14.634,14.642h93.655c8.065,0,14.63-6.569,14.63-14.642
			v-12.53c1.645-36.92,11.4-51.661,20.825-65.921c2.422-3.663,4.931-7.451,7.282-11.596l0.74-1.021
			c20.08-22.322,31.146-51.161,31.146-81.202c0-66.969-54.48-121.455-121.453-121.455S168.544,126.64,168.544,193.608
			c0,19.997,4.98,39.829,14.381,57.353L183.297,251.641z"/>
		<path fill="#FFFFFF" d="M340.199,430.281H239.801c-6.004,0-10.865-4.868-10.865-10.866s4.861-10.866,10.865-10.866h100.398
			c6.004,0,10.865,4.868,10.865,10.866S346.203,430.281,340.199,430.281z"/>
		<path fill="#FFFFFF" d="M340.199,464.246H239.801c-6.004,0-10.865-4.868-10.865-10.867c0-6.003,4.861-10.871,10.865-10.871
			h100.398c6.004,0,10.865,4.868,10.865,10.871C351.064,459.378,346.203,464.246,340.199,464.246z"/>
		<path fill="#FFFFFF" d="M340.199,498.204H239.801c-6.004,0-10.865-4.862-10.865-10.866s4.861-10.872,10.865-10.872h100.398
			c6.004,0,10.865,4.868,10.865,10.872S346.203,498.204,340.199,498.204z"/>
		<path fill="#FFFFFF" d="M255.994,359.645c-1.719,0-3.104-1.391-3.104-3.104v-89.799l-62.229-62.226
			c-1.217-1.211-1.217-3.177,0-4.39c1.218-1.215,3.18-1.215,4.392,0l64.048,64.045v92.369
			C259.101,358.254,257.709,359.645,255.994,359.645z"/>
		<path fill="#FFFFFF" d="M319.497,359.645c-1.719,0-3.104-1.391-3.104-3.104v-92.369l64.049-64.045
			c1.205-1.215,3.173-1.215,4.383,0c1.219,1.213,1.219,3.179,0,4.39l-62.223,62.226v89.799
			C322.602,358.254,321.218,359.645,319.497,359.645z"/>
		<path fill="#FFFFFF" d="M255.994,268.561c-0.794,0-1.589-0.304-2.196-0.909l-63.137-63.136c-1.217-1.211-1.217-3.177,0-4.39
			c1.218-1.215,3.18-1.215,4.392,0l63.135,63.136c1.21,1.211,1.21,3.176,0,4.39C257.585,268.257,256.79,268.561,255.994,268.561z"/>
		<path fill="#FFFFFF" d="M245.377,211.268l-18.392-14.813c-1.34-1.073-1.545-3.029-0.472-4.361c1.067-1.335,3.03-1.552,4.366-0.472
			l15.024,12.102l22.41-13.315l21.553,13.353l18.671-13.498l20.354,13.558l20.564-12.438c1.471-0.888,3.377-0.419,4.26,1.049
			c0.894,1.47,0.423,3.379-1.043,4.264l-23.943,14.48l-20.049-13.356l-18.548,13.414l-21.882-13.561L245.377,211.268z"/>
	</g>
</g>
</svg>
