<?xml version="1.0" encoding="utf-8"?>
<!-- Generator: Adobe Illustrator 15.0.0, SVG Export Plug-In . SVG Version: 6.00 Build 0)  -->
<!DOCTYPE svg PUBLIC "-//W3C//DTD SVG 1.1//EN" "http://www.w3.org/Graphics/SVG/1.1/DTD/svg11.dtd">
<svg version="1.1" xmlns="http://www.w3.org/2000/svg" xmlns:xlink="http://www.w3.org/1999/xlink" x="0px" y="0px" width="580px"
	 height="580px" viewBox="0 0 580 580" enable-background="new 0 0 580 580" xml:space="preserve">
<g id="Layer_2_1_">
	<g id="Layer_2">
		<g id="g1327">
			<path id="path1329" fill="#111111" stroke="#EEEEEE" stroke-width="3.408" d="M66.275,1.768
				c-41.335,0-64.571,21.371-64.571,65.036v450.123c0,40.844,20.895,62.229,62.192,62.229h452.024
				c41.307,0,62.229-20.315,62.229-62.229V66.804c0-42.602-20.923-65.036-63.521-65.036C514.625,1.768,66.133,1.625,66.275,1.768z"
				/>
		</g>
	</g>
</g>
<g id="Layer_1">
	<path fill="#FFFFFF" d="M503.514,438.148h-51.115v-37.662h51.115c5.942,0,10.761-4.818,10.761-10.762s-4.818-10.762-10.761-10.762
		h-51.115v-16.025c0-8.914-7.228-16.141-16.142-16.141H324.613c-8.914,0-16.142,7.227-16.142,16.141v45.822H160.763
		c-41.377,0-75.039-31.848-75.039-70.996c0-39.146,33.662-70.996,75.039-70.996h198.903c52.404,0,95.039-39.812,95.039-88.746
		s-42.635-88.746-95.039-88.746H75.724v20h283.942c41.377,0,75.039,30.839,75.039,68.746s-33.662,68.746-75.039,68.746H160.763
		c-52.404,0-95.039,40.821-95.039,90.996c0,50.176,42.635,90.996,95.039,90.996h147.708v45.822c0,8.914,7.228,16.143,16.142,16.143
		h111.645c8.914,0,16.142-7.229,16.142-16.143V459.67h51.115c5.942,0,10.761-4.818,10.761-10.76
		C514.275,442.967,509.457,438.148,503.514,438.148z"/>
</g>
</svg>
