<?xml version="1.0" encoding="utf-8"?>
<!-- Generator: Adobe Illustrator 15.0.0, SVG Export Plug-In . SVG Version: 6.00 Build 0)  -->
<!DOCTYPE svg PUBLIC "-//W3C//DTD SVG 1.1//EN" "http://www.w3.org/Graphics/SVG/1.1/DTD/svg11.dtd">
<svg version="1.1" xmlns="http://www.w3.org/2000/svg" xmlns:xlink="http://www.w3.org/1999/xlink" x="0px" y="0px" width="580px"
	 height="580px" viewBox="0 0 580 580" enable-background="new 0 0 580 580" xml:space="preserve">
<g id="Layer_2_1_">
	<g id="Layer_2">
		<g id="g1327">
			<path id="path1329" fill="#111111" stroke="#EEEEEE" stroke-width="3.408" d="M66.275,1.768
				c-41.335,0-64.571,21.371-64.571,65.036v450.123c0,40.844,20.896,62.229,62.192,62.229h452.024
				c41.307,0,62.229-20.314,62.229-62.229V66.804c0-42.602-20.923-65.036-63.521-65.036C514.625,1.768,66.133,1.625,66.275,1.768z"
				/>
		</g>
	</g>
</g>
<g id="Layer_1">
	<g>
		<path fill="#FFFFFF" d="M419.172,370.911H160.827c-16.913,0-30.624,25.176-30.624,56.233h319.594
			C449.797,396.087,436.086,370.911,419.172,370.911z"/>
		<g>
			<path fill="#FFFFFF" d="M189.596,429.094c-32.236,0-58.463,26.226-58.463,58.461c0,32.236,26.227,58.462,58.463,58.462
				c32.235,0,58.461-26.226,58.461-58.462C248.057,455.32,221.832,429.094,189.596,429.094z M232.597,481.532l-31.529,2.262
				c-0.53-1.187-1.248-2.269-2.111-3.219l20.898-24.13C226.609,463.017,231.235,471.758,232.597,481.532z M216.068,453.164
				l-21.19,24.466c-0.979-0.432-2.026-0.729-3.121-0.891l-2.339-32.607c0.06,0,0.118-0.005,0.179-0.005
				C199.554,444.127,208.734,447.505,216.068,453.164z M184.418,444.446l2.338,32.602c-1.08,0.298-2.098,0.743-3.034,1.312
				l-24.819-21.498C165.614,450.149,174.51,445.63,184.418,444.446z M155.576,460.608l24.466,21.192
				c-0.761,1.092-1.342,2.312-1.713,3.625l-32.157,2.307c-0.001-0.059-0.005-0.118-0.005-0.177
				C146.167,477.38,149.693,468.02,155.576,460.608z M146.487,492.733l31.514-2.262c0.244,1.697,0.838,3.278,1.709,4.671
				l-20.374,23.521C152.388,511.905,147.694,502.849,146.487,492.733z M163.122,521.947l20.07-23.173
				c1.539,1.043,3.332,1.733,5.264,1.978l2.167,30.206c-0.343,0.009-0.683,0.026-1.026,0.026
				C179.636,530.984,170.457,527.606,163.122,521.947z M195.617,530.557l-2.166-30.205c1.823-0.542,3.46-1.504,4.813-2.769
				l22.855,19.796C214.505,524.37,205.601,529.166,195.617,530.557z M224.36,513.556l-23.197-20.091
				c0.616-1.452,0.958-3.047,0.96-4.724l30.876-2.216c0.008,0.344,0.025,0.685,0.025,1.029
				C233.024,497.299,229.799,506.302,224.36,513.556z"/>
			<path fill="#FFFFFF" d="M390.404,429.094c-32.236,0-58.463,26.226-58.463,58.461c0,32.236,26.227,58.462,58.463,58.462
				c32.234,0,58.461-26.226,58.461-58.462C448.865,455.32,422.638,429.094,390.404,429.094z M433.406,481.532l-31.531,2.262
				c-0.529-1.187-1.246-2.269-2.111-3.219l20.9-24.13C427.418,463.017,432.043,471.757,433.406,481.532z M384.529,478.359
				l-24.82-21.499c6.713-6.711,15.609-11.23,25.516-12.414l2.34,32.602C386.482,477.345,385.467,477.79,384.529,478.359z
				 M416.877,453.162l-21.191,24.468c-0.979-0.432-2.025-0.729-3.119-0.891l-2.34-32.607c0.061,0,0.119-0.005,0.178-0.005
				C400.361,444.127,409.543,447.505,416.877,453.162z M356.383,460.609l24.467,21.191c-0.762,1.092-1.342,2.313-1.713,3.625
				l-32.156,2.307c0-0.059-0.004-0.118-0.004-0.177C346.976,477.38,350.502,468.02,356.383,460.609z M347.295,492.733l31.516-2.262
				c0.244,1.697,0.836,3.278,1.707,4.671l-20.373,23.521C353.197,511.905,348.502,502.848,347.295,492.733z M363.929,521.947
				L384,498.774c1.539,1.043,3.33,1.733,5.264,1.978l2.166,30.206c-0.342,0.009-0.682,0.026-1.025,0.026
				C380.443,530.984,371.263,527.606,363.929,521.947z M396.424,530.557l-2.164-30.205c1.82-0.542,3.459-1.503,4.813-2.769
				l22.857,19.796C415.312,524.37,406.408,529.166,396.424,530.557z M425.168,513.556l-23.197-20.091
				c0.617-1.452,0.957-3.047,0.961-4.724l30.875-2.216c0.008,0.344,0.025,0.685,0.025,1.029
				C433.832,497.299,430.607,506.302,425.168,513.556z"/>
		</g>
		<g>
			<path fill="#FFFFFF" d="M298.397,367.316l2.617-17.26c9.557-14.738,40.12-62.199,39.557-65.583
				c-0.244-1.46-3.778-5.724-12.396-15.837c-8.501-9.975-20.144-23.638-20.447-26.974c-0.534-5.893-6.917-21.376-7.772-23.43
				l7.197-61.999l19.98-40.516c0.106-0.212,0.114-0.46,0.025-0.681l-23.942-59.575c-0.098-0.246-0.309-0.43-0.563-0.496
				c-0.259-0.066-0.529-0.008-0.736,0.159l-6.541,5.29c-0.261,0.211-0.37,0.558-0.277,0.88l15.411,53.313
				c-0.983,14.503-30.286,38.27-30.583,38.51c-0.093,0.075-0.17,0.17-0.224,0.276c-5.582,11.164-28.373,14.547-28.603,14.58
				c-0.346,0.05-0.625,0.31-0.698,0.652l-1.627,7.653l-12.583,30.638l-39.504-1.646c-0.455-0.043-0.83,0.318-0.865,0.765
				c-0.017,0.179-0.345,4.4,1.544,6.452c0.693,0.752,1.576,1.134,2.628,1.134c3.107,0,34.26,8.019,45.999,11.108
				c0.384,0.106,0.783-0.08,0.961-0.434l11.628-23.256l10.607,14.901l-15.391,33.804c-0.05,0.108-0.074,0.227-0.074,0.346v61.245
				c0,0.096,0.016,0.192,0.049,0.284c0.121,0.337,12.216,33.943,12.757,41.533c0.537,7.524-4.904,22.331-4.96,22.479
				c-0.095,0.255-0.059,0.543,0.098,0.767c0.157,0.225,0.411,0.358,0.685,0.358h19.488c0.23,0,0.452-0.096,0.608-0.264
				c0.158-0.169,0.239-0.394,0.225-0.626l-0.088-1.386l32.047,2.274c0.02,0.001,0.04,0.001,0.06,0.001
				c0.251,0,0.488-0.112,0.648-0.309c0.172-0.212,0.229-0.493,0.153-0.757C313.44,368.499,301.874,367.464,298.397,367.316z
				 M279.121,270.722c2.764-3.031,6.731-3.548,7.932-3.634c3.427,3.756,8.882,7.938,14.16,11.984
				c5.942,4.556,13.339,10.226,13.004,12.358c-0.046,0.292-0.355,0.542-0.92,0.744c-7.908,2.821-29.757,52.683-32.172,58.264
				c-0.028,0.047-0.058,0.095-0.085,0.142c-1.479-22.681-3.881-58.86-4.77-68.829C275.844,276.978,276.803,273.267,279.121,270.722z
				"/>
			<path fill="#FFFFFF" d="M213.755,105.785c4.095,3.319,21.219,22.594,21.219,22.594l-1.042,2.129l4.644,5.964
				c0,0-11.933,8.582-1.16,8.663c2.292,0.017,5.046-0.517,7.988-1.479c0.29,1.197,0.672,2.401,1.158,3.595
				c3.999,9.826,13.245,15.35,20.651,12.335c7.405-3.014,10.165-13.422,6.165-23.248c-1.239-3.046-2.984-5.678-5.024-7.771
				c1.982-2.396,3.462-4.9,4.175-7.407c3.426-12.04-7.262-2.232-9.369-0.801l-4.202-5.18l-2.202-0.061l-10.33-30.11
				c0,0-1.976-3.338-6.373-1.354c-4.398,1.979-25.825,15.239-25.825,15.239S209.665,102.464,213.755,105.785z"/>
			<path fill="#FFFFFF" d="M299.64,51.04c0.302-7.242-7.099-22.55-13.78-15.033c-6.682,7.516,7.099,22.132,7.099,22.132
				L299.64,51.04z"/>
			<path fill="#FFFFFF" d="M178.123,201.37c-7.099,8.77,14.615,11.275,14.615,11.275v-8.352
				C192.738,204.294,185.221,192.601,178.123,201.37z"/>
		</g>
	</g>
</g>
</svg>
