<?xml version="1.0" encoding="utf-8"?>
<!-- Generator: Adobe Illustrator 15.0.0, SVG Export Plug-In . SVG Version: 6.00 Build 0)  -->
<!DOCTYPE svg PUBLIC "-//W3C//DTD SVG 1.1//EN" "http://www.w3.org/Graphics/SVG/1.1/DTD/svg11.dtd">
<svg version="1.1" xmlns="http://www.w3.org/2000/svg" xmlns:xlink="http://www.w3.org/1999/xlink" x="0px" y="0px" width="580px"
	 height="580px" viewBox="0 0 580 580" enable-background="new 0 0 580 580" xml:space="preserve">
<g id="Layer_2_1_">
	<g id="Layer_2">
		<g id="g1327">
			<path id="path1329" fill="#111111" stroke="#EEEEEE" stroke-width="3.408" d="M66.275,1.768
				c-41.335,0-64.571,21.371-64.571,65.036v450.123c0,40.844,20.895,62.229,62.192,62.229h452.024
				c41.307,0,62.229-20.315,62.229-62.229V66.804c0-42.602-20.923-65.036-63.521-65.036C514.625,1.768,66.133,1.625,66.275,1.768z"
				/>
		</g>
	</g>
</g>
<g id="Layer_1">
	<path fill="#FFFFFF" d="M492.983,360.069c0-12.664-10.267-22.931-22.931-22.931H229.501l-25.75-69.23h194.564l18.915-25.478
		H194.275l-22.483-60.449c3.447,0.966,7.197,1.004,10.875-0.121l13.379-4.097c10.229-3.132,15.984-13.964,12.852-24.194
		l-24.891-81.298c-3.132-10.23-13.964-15.984-24.194-12.853l-13.379,4.097c-6.991,2.14-11.886,7.878-13.289,14.562l-1.7-4.569
		c-4.415-11.87-17.616-17.912-29.486-13.499c-11.87,4.415-17.913,17.616-13.499,29.486l68.34,183.74L97.608,505.547
		c-1.737,6.816,2.381,13.753,9.2,15.489c1.056,0.27,2.113,0.398,3.155,0.398c5.685,0,10.867-3.836,12.335-9.598l11.588-45.478
		h315.739l8.061,32.646c1.686,6.829,8.592,11.002,15.421,9.313c6.831-1.687,11.001-8.59,9.314-15.421l-27.137-109.897h14.769
		C482.717,383.001,492.983,372.733,492.983,360.069z M443.333,440.88H140.378l32.027-125.693l25.223,67.814H429.04L443.333,440.88z"
		/>
</g>
</svg>
