<?xml version="1.0" encoding="utf-8"?>
<!-- Generator: Adobe Illustrator 15.0.0, SVG Export Plug-In . SVG Version: 6.00 Build 0)  -->
<!DOCTYPE svg PUBLIC "-//W3C//DTD SVG 1.1//EN" "http://www.w3.org/Graphics/SVG/1.1/DTD/svg11.dtd">
<svg version="1.1" xmlns="http://www.w3.org/2000/svg" xmlns:xlink="http://www.w3.org/1999/xlink" x="0px" y="0px" width="580px"
	 height="580px" viewBox="0 0 580 580" enable-background="new 0 0 580 580" xml:space="preserve">
<g id="Layer_2_1_">
	<g id="Layer_2">
		<g id="g1327">
			<path id="path1329" fill="#111111" stroke="#EEEEEE" stroke-width="3.408" d="M66.275,1.768
				c-41.335,0-64.571,21.371-64.571,65.036v450.123c0,40.844,20.895,62.229,62.192,62.229h452.024
				c41.307,0,62.229-20.315,62.229-62.229V66.804c0-42.602-20.923-65.036-63.521-65.036C514.625,1.768,66.133,1.625,66.275,1.768z"
				/>
		</g>
	</g>
</g>
<g id="Layer_1">
	<g>
		<g>
			<path fill="#FFFFFF" d="M302.966,308.671c0,7.162-5.806,12.966-12.966,12.966l0,0c-7.16,0-12.966-5.804-12.966-12.966V83.929
				c0-7.16,5.806-12.966,12.966-12.966l0,0c7.16,0,12.966,5.806,12.966,12.966V308.671z"/>
		</g>
		<g>
			<path fill="#FFFFFF" d="M315.931,341.085c0,14.321-11.611,25.932-25.932,25.932l0,0c-14.321,0-25.932-11.61-25.932-25.932l0,0
				c0-14.32,11.61-25.932,25.932-25.932l0,0C304.32,315.153,315.931,326.764,315.931,341.085L315.931,341.085z"/>
		</g>
		<polygon fill="#FFFFFF" points="168.364,509.036 262.618,384.402 197.965,509.036 207.702,509.036 272.802,383.544 
			234.013,509.036 243.061,509.036 284.001,376.581 269.927,509.036 278.62,509.036 292.336,379.954 305.635,509.036 
			314.324,509.036 300.898,378.719 341.177,509.036 350.224,509.036 311.984,385.314 376.515,509.036 386.265,509.036 
			319.506,381.043 411.814,509.036 422.474,509.036 295.625,333.154 292.121,335.682 292.119,335.682 287.99,334.406 
			286.689,338.612 286.51,338.477 157.525,509.036 		"/>
		<rect x="230" y="416.09" fill="#FFFFFF" width="120" height="5.738"/>
	</g>
</g>
</svg>
