<?xml version="1.0" encoding="utf-8"?>
<!-- Generator: Adobe Illustrator 15.0.0, SVG Export Plug-In . SVG Version: 6.00 Build 0)  -->
<!DOCTYPE svg PUBLIC "-//W3C//DTD SVG 1.1//EN" "http://www.w3.org/Graphics/SVG/1.1/DTD/svg11.dtd">
<svg version="1.1" xmlns="http://www.w3.org/2000/svg" xmlns:xlink="http://www.w3.org/1999/xlink" x="0px" y="0px" width="580px"
	 height="580px" viewBox="0 0 580 580" enable-background="new 0 0 580 580" xml:space="preserve">
<g id="Layer_2_1_">
	<g id="Layer_2">
		<g id="g1327">
			<path id="path1329" fill="#111111" stroke="#EEEEEE" stroke-width="3.408" d="M66.275,1.768
				c-41.335,0-64.571,21.371-64.571,65.036v450.123c0,40.844,20.895,62.229,62.192,62.229h452.024
				c41.307,0,62.229-20.315,62.229-62.229V66.804c0-42.602-20.923-65.036-63.521-65.036C514.625,1.768,66.133,1.625,66.275,1.768z"
				/>
		</g>
	</g>
</g>
<g id="Layer_1">
	<path fill="#FFFFFF" d="M308.429,447.177V294.529c27.743-6.621,53.158-28.17,72.934-62.334
		c23.373-40.387,36.245-93.937,36.245-150.789c0-2.959-0.039-5.897-0.108-8.828c-0.078-3.2-2.27-5.958-5.367-6.754
		c-37.59-9.661-78.629-14.559-121.974-14.559c-43.753,0-88.363,5.316-122.391,14.584c-3.05,0.832-5.193,3.568-5.268,6.729
		c-0.07,2.93-0.108,5.868-0.108,8.828c0,56.852,12.872,110.402,36.245,150.789c18.495,31.956,41.927,52.869,67.582,60.862v154.021
		c-53.64,3.446-94.345,20.266-94.304,40.5c0,0.019,0,0.038,0,0.059c0.045,22.714,51.405,41.115,114.716,41.098
		c63.31-0.016,114.599-18.442,114.553-41.156c0-0.021,0-0.039,0-0.058C401.143,467.501,361.237,450.843,308.429,447.177z"/>
</g>
</svg>
