<?xml version="1.0" encoding="utf-8"?>
<!-- Generator: Adobe Illustrator 15.0.0, SVG Export Plug-In . SVG Version: 6.00 Build 0)  -->
<!DOCTYPE svg PUBLIC "-//W3C//DTD SVG 1.1//EN" "http://www.w3.org/Graphics/SVG/1.1/DTD/svg11.dtd">
<svg version="1.1" xmlns="http://www.w3.org/2000/svg" xmlns:xlink="http://www.w3.org/1999/xlink" x="0px" y="0px" width="580px"
	 height="580px" viewBox="0 0 580 580" enable-background="new 0 0 580 580" xml:space="preserve">
<g id="Layer_2_1_">
	<g id="Layer_2">
		<g id="g1327">
			<path id="path1329" fill="#111111" stroke="#EEEEEE" stroke-width="3.408" d="M66.275,1.768
				c-41.335,0-64.571,21.371-64.571,65.036v450.123c0,40.844,20.895,62.229,62.192,62.229h452.024
				c41.307,0,62.229-20.315,62.229-62.229V66.804c0-42.602-20.923-65.036-63.521-65.036C514.625,1.768,66.133,1.625,66.275,1.768z"
				/>
		</g>
	</g>
</g>
<g id="Layer_1">
	<g>
		<path fill="#FFFFFF" d="M162.778,123.509c-14.083,0-25.499,11.416-25.499,25.498v186.99h-35.453V309.09
			c0-4.97-4.029-8.999-9-8.999s-9,4.029-9,8.999v26.907H38.33v120.494h19V354.997h79.949v75.995
			c0,14.083,11.416,25.499,25.499,25.499s25.499-11.416,25.499-25.499V149.007C188.277,134.925,176.861,123.509,162.778,123.509z"/>
		<path fill="#FFFFFF" d="M232.252,123.509c-14.082,0-25.498,11.416-25.498,25.498v281.985c0,14.083,11.416,25.499,25.498,25.499
			c14.083,0,25.499-11.416,25.499-25.499V149.007C257.751,134.925,246.335,123.509,232.252,123.509z"/>
		<path fill="#FFFFFF" d="M301.726,123.509c-14.083,0-25.499,11.416-25.499,25.498v281.985c0,14.083,11.416,25.499,25.499,25.499
			s25.499-11.416,25.499-25.499V149.007C327.225,134.925,315.809,123.509,301.726,123.509z"/>
		<path fill="#FFFFFF" d="M371.201,123.509c-14.082,0-25.498,11.416-25.498,25.498v281.985c0,14.083,11.416,25.499,25.498,25.499
			s25.498-11.416,25.498-25.499V149.007C396.699,134.925,385.283,123.509,371.201,123.509z"/>
		<path fill="#FFFFFF" d="M466.174,335.997v-186.99c0-14.082-11.416-25.498-25.499-25.498c-14.082,0-25.498,11.416-25.498,25.498
			v281.985c0,14.083,11.416,25.499,25.498,25.499c14.083,0,25.499-11.416,25.499-25.499v-75.995h56.496v101.494h19V335.997H466.174z
			"/>
	</g>
</g>
</svg>
