<?xml version="1.0" encoding="utf-8"?>
<!-- Generator: Adobe Illustrator 15.0.0, SVG Export Plug-In . SVG Version: 6.00 Build 0)  -->
<!DOCTYPE svg PUBLIC "-//W3C//DTD SVG 1.1//EN" "http://www.w3.org/Graphics/SVG/1.1/DTD/svg11.dtd">
<svg version="1.1" xmlns="http://www.w3.org/2000/svg" xmlns:xlink="http://www.w3.org/1999/xlink" x="0px" y="0px" width="580px"
	 height="580px" viewBox="0 0 580 580" enable-background="new 0 0 580 580" xml:space="preserve">
<g id="Layer_2_1_">
	<g id="Layer_2">
		<g id="g1327">
			<path id="path1329" fill="#111111" stroke="#EEEEEE" stroke-width="3.408" d="M66.275,1.768
				c-41.335,0-64.571,21.371-64.571,65.036v450.123c0,40.844,20.895,62.229,62.192,62.229h452.024
				c41.307,0,62.229-20.315,62.229-62.229V66.804c0-42.602-20.923-65.036-63.521-65.036C514.625,1.768,66.133,1.625,66.275,1.768z"
				/>
		</g>
	</g>
</g>
<g id="Layer_1">
	<g>
		<path fill="#FFFFFF" d="M335.506,170.597c0-5.444-4.424-9.867-9.867-9.867h-33.619l17.529-24.608
			c1.24-1.735,1.832-3.732,1.832-5.714c0-3.09-1.441-6.12-4.145-8.05c-4.441-3.162-10.6-2.125-13.762,2.313l-25.689,36.06h-53.912
			l27.473-46.498l44.117-3.777c5.148-0.436,9.027-4.746,9.027-9.814c0-0.286-0.008-0.567-0.039-0.856
			c-0.457-5.429-5.24-9.454-10.669-8.985l-30.113,2.572l17.115-28.949c0.93-1.581,1.373-3.304,1.373-5.012
			c0-3.375-1.738-6.661-4.852-8.497c-4.689-2.778-10.738-1.224-13.508,3.469l-17.104,28.952L224.42,55.712
			c-2.219-4.975-8.055-7.22-13.029-5.009c-4.971,2.215-7.225,8.028-5.012,13.029l17.988,40.468l-27.642,46.772l-27.281-47.11
			l18.322-40.295c0.601-1.322,0.887-2.715,0.887-4.085c0-3.748-2.145-7.329-5.786-8.981c-4.96-2.26-10.81-0.064-13.063,4.896
			l-12.507,27.5l-16.851-29.095c-2.729-4.716-8.771-6.319-13.487-3.593c-4.716,2.741-6.327,8.756-3.593,13.483l16.851,29.099
			l-30.09-2.835c-5.429-0.511-10.235,3.469-10.746,8.898c-0.556,5.444,3.466,10.239,8.895,10.746l44.083,4.153l27.102,46.798
			h-54.177l-25.693-36.06c-3.162-4.438-9.319-5.467-13.757-2.313c-4.438,3.173-5.474,9.331-2.313,13.765l17.527,24.608H67.433
			c-5.448,0-9.868,4.423-9.868,9.868c0,5.452,4.419,9.867,9.868,9.867h33.615l-17.527,24.615
			c-3.161,4.416-2.125,10.586,2.313,13.758c4.438,3.162,10.596,2.125,13.757-2.313l25.693-36.061h53.914l-27.478,46.506
			l-44.117,3.777c-5.437,0.457-9.537,5.242-8.985,10.67c0.455,5.43,5.238,9.455,10.667,8.982l30.113-2.576l-17.11,28.956
			c-2.76,4.68-1.216,10.738,3.477,13.51c4.689,2.779,10.738,1.224,13.509-3.477l17.103-28.946l12.274,27.618
			c2.219,4.982,8.054,7.222,13.028,5.008c3.676-1.629,5.857-5.242,5.857-9.023c0-1.332-0.267-2.699-0.849-4.006l-17.988-40.459
			l27.642-46.776l27.281,47.106l-18.318,40.303c-2.26,4.947-0.068,10.816,4.893,13.066c4.963,2.252,10.816,0.063,13.066-4.896
			l12.51-27.508l16.852,29.104c2.729,4.714,8.771,6.318,13.486,3.589c3.162-1.832,4.918-5.14,4.918-8.542
			c0-1.689-0.424-3.383-1.328-4.941l-16.852-29.098l30.09,2.834c5.43,0.516,10.24-3.473,10.746-8.902
			c0.037-0.307,0.045-0.623,0.045-0.938c0-5.025-3.826-9.324-8.935-9.805l-44.088-4.148l-27.102-46.806h54.18l25.689,36.06
			c3.162,4.438,9.32,5.475,13.762,2.313c4.445-3.168,5.486-9.342,2.313-13.756l-17.529-24.616h33.619
			C331.082,180.465,335.506,176.05,335.506,170.597z"/>
		<path fill="#FFFFFF" d="M348.88,460.554c6.217-16.844,19.058-29.09,19.237-29.26l0.107-0.106
			c0.686-0.673,16.879-16.75,25.125-39.555c11.302-31.257,2.375-59.694-25.814-82.238c-9.523-7.615-16.345-15.944-20.274-24.755
			l-0.793-1.778H326.17l1.503,4.045c4.719,12.698,13.68,24.391,26.634,34.754c22.559,18.04,29.499,39.793,20.629,64.655
			c-6.84,19.174-20.717,33.228-21.243,33.757c-1.593,1.509-15.776,15.304-23.161,34.993c-7.305,19.498-9.109,48.26,23.776,74.556
			l1.873,1.498l14.284-11.419l-2.93-2.343C347.238,501.128,340.962,482.015,348.88,460.554z"/>
		<path fill="#FFFFFF" d="M411.044,460.553c6.194-16.794,19.062-29.094,19.216-29.24l0.135-0.131
			c1.724-1.702,17.066-17.277,25.118-39.55c11.299-31.26,2.372-59.697-25.814-82.237c-9.524-7.615-16.346-15.944-20.273-24.755
			l-0.793-1.778h-20.298l1.503,4.045c4.72,12.703,13.681,24.396,26.634,34.754c22.559,18.039,29.498,39.792,20.628,64.655
			c-6.823,19.123-20.718,33.229-21.242,33.757c-1.593,1.509-15.779,15.304-23.159,34.993c-7.308,19.496-9.115,48.257,23.773,74.556
			l1.874,1.498l14.284-11.419l-2.93-2.343C409.401,501.127,403.125,482.014,411.044,460.553z"/>
		<path fill="#FFFFFF" d="M492.423,431.313l0.129-0.124c0.686-0.674,16.878-16.749,25.125-39.556
			c11.302-31.257,2.375-59.694-25.815-82.238c-9.521-7.613-16.343-15.942-20.273-24.755l-0.793-1.778h-20.298l1.503,4.045
			c4.719,12.698,13.68,24.391,26.634,34.754c22.56,18.04,29.499,39.794,20.627,64.655c-6.841,19.178-20.716,33.229-21.241,33.757
			c-1.594,1.509-15.779,15.307-23.163,34.993c-7.305,19.498-9.109,48.261,23.778,74.556l1.873,1.498l14.284-11.419l-2.93-2.343
			c-20.298-16.231-26.574-35.344-18.655-56.804C479.405,443.759,492.268,431.459,492.423,431.313z"/>
	</g>
</g>
</svg>
