<?xml version="1.0" encoding="utf-8"?>
<!-- Generator: Adobe Illustrator 15.0.0, SVG Export Plug-In . SVG Version: 6.00 Build 0)  -->
<!DOCTYPE svg PUBLIC "-//W3C//DTD SVG 1.1//EN" "http://www.w3.org/Graphics/SVG/1.1/DTD/svg11.dtd">
<svg version="1.1" xmlns="http://www.w3.org/2000/svg" xmlns:xlink="http://www.w3.org/1999/xlink" x="0px" y="0px" width="580px"
	 height="580px" viewBox="0 0 580 580" enable-background="new 0 0 580 580" xml:space="preserve">
<g id="Layer_1">
	<g id="Layer_1_1_">
		<g id="Layer_2">
			<g id="g1327">
				<path id="path1329" fill="#111111" stroke="#EEEEEE" stroke-width="3.408" d="M66.275,1.768
					c-41.335,0-64.571,21.371-64.571,65.036v450.123c0,40.844,20.895,62.229,62.192,62.229H515.92
					c41.307,0,62.229-20.315,62.229-62.229V66.804c0-42.601-20.925-65.036-63.521-65.036C514.624,1.768,66.133,1.625,66.275,1.768z"
					/>
			</g>
		</g>
	</g>
</g>
<g id="Layer_2_1_">
	<g>
		<polygon fill="#FFFFFF" points="135.368,346.574 140.307,329.108 103.474,329.108 108.252,346.574 		"/>
		<path fill="#FFFFFF" d="M163.459,346.574c-0.124-0.246-0.274-0.482-0.457-0.702l-12.873-15.448
			c-0.695-0.834-1.726-1.315-2.812-1.315h-5.2l-4.939,17.466H163.459z"/>
		<path fill="#FFFFFF" d="M101.667,329.108h-5.838c-1.086,0-2.117,0.481-2.812,1.316l-12.873,15.447
			c-0.183,0.22-0.333,0.456-0.457,0.702h26.757L101.667,329.108z"/>
		<path fill="#FFFFFF" d="M126.865,393.923l36.137-43.365c0.542-0.65,0.822-1.442,0.844-2.239h-27.159l-12.842,45.423
			c-0.598-0.021-1.198-0.034-1.8-0.038l12.831-45.385h-26.146l12.416,45.385c-0.601,0.005-1.2,0.019-1.796,0.04l-12.427-45.425
			H79.301c0.022,0.797,0.302,1.589,0.844,2.239l36.142,43.37c-31.736,2.709-56.736,29.4-56.736,61.825
			c0,34.218,27.838,62.057,62.057,62.057c34.218,0,62.056-27.839,62.056-62.057C183.664,423.307,158.631,396.601,126.865,393.923z
			 M121.607,509.091c-29.41,0-53.337-23.928-53.337-53.338c0-29.409,23.928-53.336,53.337-53.336s53.337,23.927,53.337,53.336
			C174.944,485.163,151.017,509.091,121.607,509.091z"/>
	</g>
	<g>
		<path fill="#FFFFFF" d="M514.151,75.628l1.854,3.22c1.024,1.782,0.412,4.058-1.37,5.083c-1.782,1.024-4.057,0.412-5.082-1.369
			c-0.032-0.056-0.062-0.114-0.093-0.171l-0.031-0.063l-1.633-3.235l-0.014-0.029c-0.9-1.786-0.182-3.963,1.604-4.862
			C511.107,73.333,513.2,73.979,514.151,75.628z"/>
		<path fill="#FFFFFF" d="M529.384,107.044l1.307,3.504c0.918,2.464-0.335,5.206-2.799,6.125c-2.462,0.918-5.205-0.334-6.123-2.798
			c-0.033-0.086-0.063-0.175-0.091-0.263l-0.029-0.098l-1.048-3.445l-0.016-0.049c-0.747-2.455,0.637-5.05,3.093-5.798
			C526.036,103.505,528.53,104.768,529.384,107.044z"/>
		<path fill="#FFFFFF" d="M538.786,140.993l0.301,1.81l0.292,1.913c0.487,3.173-1.69,6.14-4.863,6.627
			c-3.175,0.487-6.142-1.691-6.628-4.865c-0.019-0.114-0.032-0.228-0.042-0.339l-0.006-0.064l-0.156-1.73l-0.189-1.825
			c-0.326-3.132,1.949-5.932,5.08-6.258C535.581,135.947,538.29,138.052,538.786,140.993z"/>
		<path fill="#FFFFFF" d="M540.985,176.412l-0.171,3.756c-0.171,3.805-3.396,6.751-7.201,6.58c-3.806-0.173-6.752-3.397-6.579-7.203
			c0.006-0.151,0.018-0.3,0.035-0.448l0.014-0.127l0.403-3.558l0.008-0.07c0.422-3.715,3.775-6.386,7.491-5.964
			C538.54,169.784,541.137,172.893,540.985,176.412z"/>
		<path fill="#FFFFFF" d="M536.81,211.583l-0.778,3.695c-0.917,4.356-5.192,7.145-9.548,6.227s-7.144-5.191-6.227-9.549
			c0.036-0.171,0.077-0.341,0.124-0.509l0.04-0.14l0.97-3.434l0.022-0.08c1.19-4.217,5.574-6.669,9.789-5.479
			C535.237,203.454,537.649,207.542,536.81,211.583z"/>
		<path fill="#FFFFFF" d="M526.926,245.753l-1.367,3.529c-1.822,4.702-7.109,7.035-11.812,5.214c-4.7-1.823-7.035-7.11-5.213-11.812
			c0.064-0.165,0.132-0.326,0.205-0.485l0.066-0.149l1.484-3.232l0.04-0.084c2.076-4.524,7.429-6.507,11.953-4.43
			C526.63,236.302,528.623,241.35,526.926,245.753z"/>
		<path fill="#FFFFFF" d="M511.665,278.041l-1.841,3.175c-2.786,4.807-8.942,6.445-13.749,3.659
			c-4.809-2.787-6.446-8.943-3.66-13.75c0.084-0.146,0.19-0.315,0.28-0.455l2.005-3.073c3.008-4.607,9.183-5.906,13.791-2.898
			C512.942,267.606,514.29,273.491,511.665,278.041z"/>
		<path fill="#FFFFFF" d="M491.59,307.625l-2.302,2.859c-3.753,4.66-10.573,5.396-15.235,1.643
			c-4.66-3.752-5.397-10.574-1.644-15.235c0.09-0.11,0.209-0.25,0.302-0.355l2.422-2.758c3.923-4.462,10.719-4.901,15.181-0.979
			C494.653,296.612,495.171,303.164,491.59,307.625z"/>
		<path fill="#FFFFFF" d="M467.238,333.871l-2.813,2.563c-4.667,4.255-11.896,3.924-16.152-0.744
			c-4.253-4.664-3.92-11.896,0.746-16.149c0.075-0.069,0.154-0.14,0.231-0.206l0.167-0.144l2.685-2.298l0.08-0.066
			c4.773-4.084,11.951-3.525,16.033,1.247C472.218,322.75,471.747,329.75,467.238,333.871z"/>
		<path fill="#FFFFFF" d="M438.967,356.165l-3.202,2.09c-5.477,3.576-12.815,2.033-16.39-3.446
			c-3.575-5.478-2.032-12.815,3.446-16.39c0.046-0.031,0.094-0.061,0.14-0.091l0.221-0.137l2.977-1.862l0.096-0.061
			c5.528-3.458,12.813-1.779,16.271,3.748C445.94,345.479,444.334,352.658,438.967,356.165z"/>
		<path fill="#FFFFFF" d="M407.085,373.537l-3.563,1.483c-6.157,2.56-13.224-0.354-15.786-6.511
			c-2.561-6.157,0.355-13.225,6.512-15.785c0.001,0,0.002-0.002,0.004-0.001l0.297-0.124l3.221-1.315l0.121-0.049
			c6.165-2.52,13.208,0.436,15.727,6.604C416.129,363.979,413.201,370.99,407.085,373.537z"/>
		<path fill="#FFFFFF" d="M371.815,384.337l-1.809,0.308l-2.067,0.323c-6.621,1.037-12.83-3.492-13.864-10.114
			c-1.032-6.596,3.459-12.783,10.042-13.853l0.184-0.03l1.557-0.251l1.807-0.32c6.607-1.168,12.91,3.241,14.077,9.848
			c1.168,6.607-3.242,12.908-9.847,14.077C371.891,384.324,371.817,384.337,371.815,384.337z"/>
		<path fill="#FFFFFF" d="M334.032,385.398l-1.818-0.252l-2.101-0.326c-6.565-1.014-11.064-7.158-10.05-13.723
			c1.011-6.546,7.123-11.038,13.665-10.059l0.204,0.031l1.523,0.227l1.818,0.242c6.592,0.875,11.224,6.929,10.35,13.52
			c-0.876,6.592-6.929,11.225-13.521,10.349L334.032,385.398z"/>
		<path fill="#FFFFFF" d="M298.189,375.408l-3.557-1.535c-5.951-2.57-8.691-9.478-6.122-15.429c2.54-5.883,9.32-8.629,15.223-6.208
			l0.273,0.111l3.204,1.317l0.116,0.048c6.014,2.47,8.887,9.348,6.415,15.36c-2.47,6.015-9.347,8.886-15.36,6.417
			C298.336,375.471,298.233,375.427,298.189,375.408z"/>
		<path fill="#FFFFFF" d="M266.222,357.953l-3.146-2.175c-5.137-3.556-6.42-10.601-2.866-15.739
			c3.489-5.041,10.342-6.37,15.451-3.058l0.202,0.131l2.944,1.914l0.077,0.051c5.262,3.42,6.756,10.461,3.336,15.724
			c-3.421,5.264-10.462,6.758-15.725,3.337C266.417,358.087,266.298,358.006,266.222,357.953z"/>
		<path fill="#FFFFFF" d="M238.24,335.304l-2.724-2.652c-4.252-4.138-4.346-10.938-0.207-15.191
			c4.034-4.147,10.602-4.337,14.869-0.509l0.159,0.144l2.628,2.364l0.055,0.05c4.441,3.995,4.803,10.837,0.806,15.279
			c-3.998,4.44-10.837,4.802-15.278,0.806C238.454,335.508,238.331,335.391,238.24,335.304z"/>
		<path fill="#FFFFFF" d="M214.323,308.649l-2.205-2.933c-3.333-4.43-2.443-10.724,1.987-14.058
			c4.296-3.232,10.358-2.475,13.76,1.611l2.343,2.822c3.573,4.303,2.98,10.688-1.324,14.262c-4.303,3.571-10.688,2.978-14.26-1.325
			C214.528,308.914,214.413,308.768,214.323,308.649z"/>
		<path fill="#FFFFFF" d="M194.791,278.843l-1.742-3.229c-2.412-4.474-0.741-10.056,3.732-12.469
			c4.315-2.327,9.677-0.831,12.215,3.294l1.917,3.128c2.684,4.383,1.308,10.109-3.074,12.793
			c-4.381,2.684-10.109,1.307-12.792-3.074C194.962,279.149,194.868,278.983,194.791,278.843z"/>
		<path fill="#FFFFFF" d="M180.032,246.55l-1.269-3.552c-1.534-4.291,0.702-9.013,4.994-10.547c4.13-1.475,8.66,0.541,10.362,4.521
			l0.068,0.161l1.395,3.283l0.021,0.051c1.807,4.25-0.175,9.161-4.425,10.966c-4.25,1.807-9.16-0.175-10.967-4.426
			C180.149,246.865,180.083,246.696,180.032,246.55z"/>
		<path fill="#FFFFFF" d="M170.485,212.422l-0.692-3.699c-0.733-3.909,1.842-7.671,5.752-8.404c3.755-0.704,7.376,1.645,8.304,5.298
			l0.039,0.152l0.873,3.469l0.013,0.049c0.986,3.918-1.391,7.895-5.31,8.883c-3.918,0.986-7.895-1.392-8.882-5.31
			C170.546,212.721,170.512,212.562,170.485,212.422z"/>
		<path fill="#FFFFFF" d="M166.482,177.341l-0.089-3.749c-0.081-3.396,2.607-6.214,6.004-6.295c3.263-0.078,5.993,2.4,6.274,5.606
			l0.012,0.135l0.305,3.576l0.004,0.047c0.294,3.448-2.262,6.482-5.711,6.777c-3.448,0.295-6.482-2.262-6.777-5.711
			C166.493,177.603,166.486,177.463,166.482,177.341z"/>
		<path fill="#FFFFFF" d="M168.072,142.341l0.425-3.646c0.324-2.781,2.842-4.774,5.623-4.45c2.666,0.31,4.606,2.651,4.478,5.293
			l-0.185,3.665c-0.146,2.864-2.583,5.067-5.448,4.922c-2.863-0.145-5.067-2.583-4.922-5.447
			C168.049,142.57,168.06,142.448,168.072,142.341z"/>
		<path fill="#FFFFFF" d="M173.639,108.078l0.797-3.583c0.475-2.129,2.585-3.472,4.714-2.998c2.041,0.454,3.356,2.423,3.047,4.461
			l-0.562,3.626c-0.344,2.222-2.424,3.744-4.646,3.4c-2.221-0.344-3.744-2.424-3.4-4.646
			C173.603,108.256,173.621,108.161,173.639,108.078z"/>
		<path fill="#FFFFFF" d="M182.688,74.659l1.176-3.478c0.519-1.536,2.184-2.358,3.719-1.839c1.478,0.499,2.294,2.069,1.891,3.554
			l-0.969,3.54c-0.444,1.62-2.117,2.574-3.737,2.13c-1.621-0.443-2.575-2.117-2.13-3.737
			C182.651,74.775,182.67,74.711,182.688,74.659z"/>
	</g>
</g>
</svg>
