<?xml version="1.0" encoding="utf-8"?>
<!-- Generator: Adobe Illustrator 15.0.0, SVG Export Plug-In . SVG Version: 6.00 Build 0)  -->
<!DOCTYPE svg PUBLIC "-//W3C//DTD SVG 1.1//EN" "http://www.w3.org/Graphics/SVG/1.1/DTD/svg11.dtd">
<svg version="1.1" xmlns="http://www.w3.org/2000/svg" xmlns:xlink="http://www.w3.org/1999/xlink" x="0px" y="0px" width="580px"
	 height="580px" viewBox="0 0 580 580" enable-background="new 0 0 580 580" xml:space="preserve">
<g id="Layer_2_1_">
	<g id="Layer_2">
		<g id="g1327">
			<path id="path1329" fill="#111111" stroke="#EEEEEE" stroke-width="3.408" d="M66.275,1.768
				c-41.335,0-64.571,21.371-64.571,65.036v450.123c0,40.844,20.895,62.229,62.192,62.229h452.024
				c41.307,0,62.229-20.315,62.229-62.229V66.804c0-42.602-20.923-65.036-63.521-65.036C514.625,1.768,66.133,1.625,66.275,1.768z"
				/>
		</g>
	</g>
</g>
<g id="Layer_1">
	<g>
		<path fill="#FFFFFF" d="M223.802,419.936l-24.379-151.145c-0.685-4.25-2.14-7.563-4.134-9.85
			c-4.563-5.236-11.942-5.121-19.368,1.345l-65.971,57.458c-10.674,9.296-17.56,28.332-15.307,42.302l24.38,151.148
			c0.686,4.248,2.142,7.561,4.133,9.85c4.563,5.235,11.944,5.12,19.37-1.347l65.971-57.458
			C219.168,452.944,226.056,433.908,223.802,419.936z M135.739,501.72l-2.91-18.055c2.202-8.673,6.097-24.741,12.04-51.729
			c5.807-26.364-14.612-46.509-30.18-60.725l-2.264-14.033c-1.262-7.834,3.37-20.636,9.356-25.851l60.927-53.063l23.314,144.542
			c1.264,7.833-3.369,20.636-9.354,25.85L135.739,501.72z"/>
		<polygon fill="#FFFFFF" points="241.35,405.838 249.042,406.96 259.481,408.483 255.581,398.678 252.703,391.448 253.249,390.755 
			260.953,391.878 271.39,393.406 267.492,383.597 264.612,376.357 265.148,375.675 272.86,376.798 283.302,378.326 
			279.402,368.516 276.519,361.265 277.049,360.593 284.773,361.72 295.214,363.247 291.314,353.437 288.424,346.177 
			288.945,345.511 296.683,346.641 307.123,348.165 303.224,338.356 300.33,331.086 300.846,330.43 308.594,331.559 
			319.034,333.084 315.135,323.278 312.237,315.994 312.748,315.349 320.504,316.479 330.945,318.005 327.046,308.199 
			324.141,300.903 324.646,300.266 332.414,301.398 342.855,302.924 338.955,293.117 336.052,285.812 336.546,285.186 
			344.327,286.319 354.765,287.844 350.866,278.039 347.955,270.723 348.446,270.103 356.237,271.242 366.677,272.765 
			362.777,262.958 359.862,255.632 360.342,255.023 368.145,256.161 378.587,257.684 374.689,247.878 371.769,240.541 
			372.243,239.943 380.057,241.079 390.5,242.605 386.6,232.797 383.676,225.452 384.144,224.86 391.97,226.001 402.411,227.527 
			398.508,217.718 395.583,210.362 396.043,209.778 403.879,210.919 414.318,212.445 410.42,202.639 407.489,195.273 
			407.942,194.698 415.792,195.841 426.231,197.364 422.33,187.558 419.396,180.181 419.843,179.615 427.7,180.759 438.139,182.285 
			434.241,172.479 431.303,165.09 431.742,164.534 439.612,165.68 450.052,167.206 446.153,157.398 443.208,150.001 443.64,149.454 
			451.521,150.601 461.964,152.125 458.063,142.319 455.114,134.909 455.542,134.372 463.432,135.52 473.873,137.044 
			469.973,127.238 467.022,119.819 467.44,119.289 475.343,120.441 485.784,121.965 481.885,112.159 478.927,104.727 
			479.462,104.053 436.933,55.223 208.16,254.474 204.541,257.623 230.792,419.219 		"/>
	</g>
	<path fill="#FFFFFF" d="M201.586,56.675c-14.008-5.871-26.652-7.551-28.246-3.753c-1.158,2.766,3.865,7.673,12.086,12.403
		l-14.893,59.185l35.729-50.385c9.375,2.677,16.623,2.873,17.803,0.059C225.656,70.384,215.592,62.545,201.586,56.675z"/>
	<path fill="#FFFFFF" d="M62.259,195.9l39.046,46.906l-19.659-58.556c7.688-5.997,12.117-11.738,10.537-14.35
		c-2.131-3.524-14.395-0.012-27.391,7.847c-12.998,7.857-21.805,17.085-19.676,20.609C46.669,200.924,53.594,199.756,62.259,195.9z"
		/>
	<path fill="none" d="M486.137,376.909c1.903,0,3.587-0.902,4.691-2.279c0.012-0.012,0.023-0.022,0.035-0.034
		c0.242-0.313,0.451-0.637,0.636-0.995c0.018-0.035,0.041-0.069,0.058-0.104c0.162-0.347,0.301-0.705,0.405-1.081
		c0.012-0.041,0.023-0.087,0.035-0.128c0.115-0.463,0.185-0.931,0.185-1.429c0-3.332-2.707-6.051-6.045-6.051
		c-0.416,0-0.821,0.046-1.215,0.127c-0.19,0.035-0.358,0.11-0.544,0.162c-0.19,0.069-0.399,0.104-0.584,0.186
		c-0.277,0.115-0.526,0.266-0.775,0.416c-0.081,0.053-0.173,0.081-0.243,0.14c-0.313,0.208-0.602,0.445-0.867,0.705
		c-0.006,0.012-0.023,0.012-0.023,0.023c-1.093,1.082-1.77,2.574-1.793,4.223c0,0.006,0,0.012,0,0.012l0,0
		c0,0.023-0.012,0.034-0.012,0.058C480.081,374.19,482.8,376.909,486.137,376.909z"/>
	<path fill="#FFFFFF" d="M489.514,250.748c-3.731-0.709-7.348,1.685-8.05,5.339l-0.002,0.019l-4.723,24.897
		c-0.434,2.266,0.35,4.466,1.872,6.001l-1.148,5.81c-5.12-0.493-10.427,0.088-15.559,2.005
		c-18.036,6.737-27.226,26.886-20.487,44.922c1.572,4.209,3.904,7.916,6.742,11.072l-72.861,112.988
		c-3.723,8.707-4.287,14.574-3.496,18.57l-7.264,21.271l9.595-14.397l0.729-0.964c2.213,2.092,4.689,2.456,4.689,2.456
		l75.367-125.25c-0.6-0.895-1.145-1.848-1.542-2.912c-2.685-7.184,0.982-15.226,8.176-17.913c2.021-0.755,4.087-0.958,6.104-0.782
		c0.555-2.094,0.971-7.395-3.444-17.97l-11.717,18.175c-1.605-2.091-2.928-4.439-3.895-7.027
		c-5.259-14.077,1.916-29.798,15.986-35.055c14.071-5.256,29.796,1.91,35.055,15.987c4.912,13.148-1.035,27.717-13.292,33.869
		l0.452-22.277c-15.352,14.662-9.419,19.079-9.419,19.079l-0.038,0.507c0.855,1.093,1.616,2.296,2.126,3.659
		c2.028,5.43,0.422,11.327-3.558,15.06l-10.84,142.205c0,0,2.31,0.398,5.295-0.055l-0.098,4.937l0.592,14.391l2.854-20.209
		c5.348-2.017,10.993-7.556,9.893-22.325l2.566-126.557c0.059-0.021,0.113-0.023,0.164-0.043
		c18.028-6.734,27.223-26.895,20.486-44.925c-4.178-11.184-13.525-18.958-24.328-21.643l0.924-4.608
		c3.313,0.068,6.284-2.179,6.914-5.464l4.721-24.905l-0.003-0.008C495.77,255.007,493.277,251.456,489.514,250.748z"/>
	<circle fill="#FFFFFF" cx="466.25" cy="357.75" r="7.75"/>
</g>
</svg>
