<?xml version="1.0" encoding="utf-8"?>
<!-- Generator: Adobe Illustrator 15.0.0, SVG Export Plug-In . SVG Version: 6.00 Build 0)  -->
<!DOCTYPE svg PUBLIC "-//W3C//DTD SVG 1.1//EN" "http://www.w3.org/Graphics/SVG/1.1/DTD/svg11.dtd">
<svg version="1.1" xmlns="http://www.w3.org/2000/svg" xmlns:xlink="http://www.w3.org/1999/xlink" x="0px" y="0px" width="580px"
	 height="580px" viewBox="0 0 580 580" enable-background="new 0 0 580 580" xml:space="preserve">
<g id="Layer_2_1_">
	<g id="Layer_2">
		<g id="g1327">
			<path id="path1329" fill="#111111" stroke="#EEEEEE" stroke-width="3.408" d="M66.275,1.768
				c-41.335,0-64.571,21.371-64.571,65.036v450.123c0,40.844,20.895,62.229,62.192,62.229h452.024
				c41.307,0,62.229-20.315,62.229-62.229V66.804c0-42.602-20.923-65.036-63.521-65.036C514.625,1.768,66.133,1.625,66.275,1.768z"
				/>
		</g>
	</g>
</g>
<g id="Layer_1">
	<path fill="#FFFFFF" d="M380.919,159.438C366.201,94.83,301.893,54.386,237.287,69.104
		c-64.609,14.718-105.053,79.024-90.335,143.632c11.991,52.637,56.897,89.226,108.064,93.021l78.568,210.956l39.656,8.237
		l20.21-62.907l-31.17-23.108l-7.52-18.796l9.809-23.284l-14.182-48.04l23.031-26.835l-22.493-53.266
		C377.598,240.58,390.176,200.073,380.919,159.438z M243.598,96.808c14.169-3.228,28.27,5.642,31.497,19.81
		s-5.64,28.27-19.809,31.498c-14.168,3.228-28.271-5.642-31.499-19.81C220.56,114.137,229.429,100.035,243.598,96.808z"/>
</g>
</svg>
