<?xml version="1.0" encoding="utf-8"?>
<!-- Generator: Adobe Illustrator 15.0.0, SVG Export Plug-In . SVG Version: 6.00 Build 0)  -->
<!DOCTYPE svg PUBLIC "-//W3C//DTD SVG 1.1//EN" "http://www.w3.org/Graphics/SVG/1.1/DTD/svg11.dtd">
<svg version="1.1" xmlns="http://www.w3.org/2000/svg" xmlns:xlink="http://www.w3.org/1999/xlink" x="0px" y="0px" width="580px"
	 height="580px" viewBox="0 0 580 580" enable-background="new 0 0 580 580" xml:space="preserve">
<g id="Layer_1">
	<g id="Layer_1_1_">
		<g id="Layer_2">
			<g id="g1327">
				<path id="path1329" fill="#111111" stroke="#EEEEEE" stroke-width="3.408" d="M66.275,1.768
					c-41.335,0-64.571,21.371-64.571,65.036v450.123c0,40.844,20.895,62.229,62.192,62.229H515.92
					c41.307,0,62.229-20.315,62.229-62.229V66.804c0-42.601-20.925-65.036-63.521-65.036C514.624,1.768,66.133,1.625,66.275,1.768z"
					/>
			</g>
		</g>
	</g>
</g>
<g id="Layer_2_1_">
	<g>
		<path fill="#FFFFFF" d="M123.068,541.111h333.863l-46.548-44.942H290c-179.63-146.722-52.354-212.612-11.447-228.7l36.051,71.372
			c6.095,11.95,25.813,6.217,46.705-4.328c21.358-13.404,32.833-25.07,28.861-33.83L285.334,93.185
			c-4.854-9.56-19.743-12.21-36.2-7.492l-21.985-43.521c-2.055-4.011-9.353-4.401-16.35-0.863
			c-7.025,3.546-11.037,9.668-9.005,13.681l22.125,43.823c-12.66,10.295-18.78,23.291-14.124,32.532l39.951,79.094
			c-232.393,110.845-43.212,285.731-43.212,285.731h-33.708L123.068,541.111z M273.949,211.032
			c13.665,0,24.781,11.117,24.781,24.781c0,13.667-11.116,24.785-24.781,24.785c-13.679,0-24.808-11.118-24.808-24.785
			C249.141,222.149,260.27,211.032,273.949,211.032z"/>
		<path fill="#FFFFFF" d="M273.949,255.324c10.757,0,19.508-8.752,19.508-19.511c0-10.756-8.751-19.507-19.508-19.507
			c-10.771,0-19.534,8.751-19.534,19.507C254.415,246.572,263.179,255.324,273.949,255.324z"/>
		<polygon fill="#FFFFFF" points="323.31,382.377 425.959,322.623 418.312,309.442 315.659,369.195 		"/>
		<polygon fill="#FFFFFF" points="361.253,393.085 380.993,382.362 371.035,364.016 351.299,374.738 		"/>
		<polygon fill="#FFFFFF" points="398.698,371.152 418.436,360.43 408.48,342.085 388.741,352.806 		"/>
	</g>
</g>
</svg>
