<?xml version="1.0" encoding="utf-8"?>
<!-- Generator: Adobe Illustrator 15.0.0, SVG Export Plug-In . SVG Version: 6.00 Build 0)  -->
<!DOCTYPE svg PUBLIC "-//W3C//DTD SVG 1.1//EN" "http://www.w3.org/Graphics/SVG/1.1/DTD/svg11.dtd">
<svg version="1.1" xmlns="http://www.w3.org/2000/svg" xmlns:xlink="http://www.w3.org/1999/xlink" x="0px" y="0px" width="580px"
	 height="580px" viewBox="0 0 580 580" enable-background="new 0 0 580 580" xml:space="preserve">
<g id="Layer_2_1_">
	<g id="Layer_2">
		<g id="g1327">
			<path id="path1329" fill="#111111" stroke="#EEEEEE" stroke-width="3.408" d="M66.275,1.768
				c-41.335,0-64.571,21.371-64.571,65.036v450.123c0,40.844,20.895,62.229,62.192,62.229h452.024
				c41.307,0,62.229-20.315,62.229-62.229V66.804c0-42.602-20.923-65.036-63.521-65.036C514.625,1.768,66.133,1.625,66.275,1.768z"
				/>
		</g>
	</g>
</g>
<g id="Layer_1">
	<path fill="#FFFFFF" d="M460.764,450.912c-122.414-128.907-11.129-248.539,1.853-260.595c12.987-12.057,6.493-24.112,6.493-24.112
		s-8.346-12.056-15.769-31.531c-7.418-19.475-34.31-12.055-54.714-11.128c-20.399,0.926-42.661-15.765-42.661-46.369
		s-24.572-28.749-24.572-28.749h-28.538h-25.714h-28.536c0,0-24.574-1.854-24.574,28.749s-22.26,47.295-42.662,46.369
		c-20.401-0.927-47.293-8.346-54.713,11.128c-7.42,19.475-15.766,31.531-15.766,31.531s-6.494,12.055,6.491,24.112
		s124.27,131.688,1.855,260.595c0,0-24.58,13.911-9.971,33.387c14.609,19.474,25.737,34.309,25.737,34.309
		s0.927,15.769,28.748,3.712c27.821-12.059,72.336-25.04,100.157-8.348c27.821,16.693,25.039,17.622,25.039,17.622h2.105
		c0,0-2.781-0.929,25.041-17.622c27.821-16.692,72.336-3.711,100.157,8.348c27.822,12.057,28.745-3.712,28.745-3.712
		s11.129-14.835,25.74-34.309C485.341,464.823,460.764,450.912,460.764,450.912z M292.075,95.724
		c-8.258,0-14.952-6.695-14.952-14.954c0-8.26,6.694-14.954,14.952-14.954c8.26,0,14.955,6.694,14.955,14.954
		C307.03,89.03,300.335,95.724,292.075,95.724z"/>
</g>
</svg>
