<?xml version="1.0" encoding="utf-8"?>
<!-- Generator: Adobe Illustrator 15.0.0, SVG Export Plug-In . SVG Version: 6.00 Build 0)  -->
<!DOCTYPE svg PUBLIC "-//W3C//DTD SVG 1.1//EN" "http://www.w3.org/Graphics/SVG/1.1/DTD/svg11.dtd">
<svg version="1.1" xmlns="http://www.w3.org/2000/svg" xmlns:xlink="http://www.w3.org/1999/xlink" x="0px" y="0px" width="580px"
	 height="580px" viewBox="0 0 580 580" enable-background="new 0 0 580 580" xml:space="preserve">
<g id="Layer_2_1_">
	<g id="Layer_2">
		<g id="g1327">
			<path id="path1329" fill="#111111" stroke="#EEEEEE" stroke-width="3.408" d="M66.275,1.768
				c-41.335,0-64.571,21.371-64.571,65.036v450.123c0,40.844,20.896,62.229,62.192,62.229h452.024
				c41.307,0,62.229-20.314,62.229-62.229V66.804c0-42.602-20.923-65.036-63.521-65.036C514.625,1.768,66.133,1.625,66.275,1.768z"
				/>
		</g>
	</g>
</g>
<g id="Layer_1">
	<g>
		<path fill="#FFFFFF" d="M487.025,226.493c-6.217-27.288-33.377-44.369-60.664-38.153c-27.289,6.216-44.369,33.376-38.154,60.664
			c5.064,22.231,24.031,37.686,45.643,39.288l33.184,89.099l16.75,3.479l8.535-26.568l-13.164-9.76l-3.176-7.939l4.143-9.834
			l-5.99-20.291l9.727-11.334l-9.5-22.497C485.623,260.764,490.935,243.656,487.025,226.493z M429.027,200.041
			c5.984-1.363,11.939,2.383,13.303,8.367c1.363,5.984-2.383,11.94-8.367,13.303s-11.939-2.383-13.303-8.367
			S423.043,201.404,429.027,200.041z"/>
		<path fill="#FFFFFF" d="M87.681,60.511v458.977h266.987V60.511H87.681z M308.17,310.339c-13.143,0-24.202-8.899-27.495-20.999
			h-91.749c-4.557,0-8.25-3.693-8.25-8.249c0-4.557,3.693-8.25,8.25-8.25h92.204c3.769-11.327,14.446-19.499,27.04-19.499
			c15.738,0,28.498,12.76,28.498,28.498C336.668,297.58,323.908,310.339,308.17,310.339z"/>
	</g>
</g>
</svg>
