<?xml version="1.0" encoding="utf-8"?>
<!-- Generator: Adobe Illustrator 15.0.0, SVG Export Plug-In . SVG Version: 6.00 Build 0)  -->
<!DOCTYPE svg PUBLIC "-//W3C//DTD SVG 1.1//EN" "http://www.w3.org/Graphics/SVG/1.1/DTD/svg11.dtd">
<svg version="1.1" xmlns="http://www.w3.org/2000/svg" xmlns:xlink="http://www.w3.org/1999/xlink" x="0px" y="0px" width="580px"
	 height="580px" viewBox="0 0 580 580" enable-background="new 0 0 580 580" xml:space="preserve">
<g id="Layer_2_1_">
	<g id="Layer_2">
		<g id="g1327">
			<path id="path1329" fill="#111111" stroke="#EEEEEE" stroke-width="3.408" d="M66.275,1.768
				c-41.335,0-64.571,21.371-64.571,65.036v450.123c0,40.844,20.895,62.229,62.192,62.229h452.024
				c41.307,0,62.229-20.315,62.229-62.229V66.804c0-42.602-20.923-65.036-63.521-65.036C514.625,1.768,66.133,1.625,66.275,1.768z"
				/>
		</g>
	</g>
</g>
<g id="Layer_1">
	<g>
		<polygon fill="#FFFFFF" points="279.391,152.658 279.391,180.849 279.391,466.148 289.778,466.148 289.778,113.852 
			279.391,119.336 		"/>
		<polygon fill="#FFFFFF" points="290.883,466.148 301.269,466.148 301.269,119.336 290.883,113.852 		"/>
		<path fill="#FFFFFF" d="M33.058,234.015v198.247h10.745V278.534l121.907-50.548v219.215h13.256V222.489l99.381-41.208v-13.809
			l-99.381,41.208v-27.837l99.381-47.189v-14.121L37.461,234.015H33.058z M165.71,187.137v27.04L43.802,264.725v-19.702
			L165.71,187.137z"/>
		<path fill="#FFFFFF" d="M542.537,234.015L301.652,119.533v14.121l99.381,47.189v27.837l-99.381-41.208v13.809l99.381,41.208
			v224.712h13.256V227.986l121.908,50.548v153.727h10.744V234.015H542.537z M536.197,245.023v19.702l-121.908-50.548v-27.04
			L536.197,245.023z"/>
	</g>
</g>
</svg>
