<?xml version="1.0" encoding="utf-8"?>
<!-- Generator: Adobe Illustrator 15.0.0, SVG Export Plug-In . SVG Version: 6.00 Build 0)  -->
<!DOCTYPE svg PUBLIC "-//W3C//DTD SVG 1.1//EN" "http://www.w3.org/Graphics/SVG/1.1/DTD/svg11.dtd">
<svg version="1.1" xmlns="http://www.w3.org/2000/svg" xmlns:xlink="http://www.w3.org/1999/xlink" x="0px" y="0px" width="580px"
	 height="580px" viewBox="0 0 580 580" enable-background="new 0 0 580 580" xml:space="preserve">
<g id="Layer_1">
	<g id="Layer_1_1_">
		<g id="Layer_2">
			<g id="g1327">
				<path id="path1329" fill="#111111" stroke="#EEEEEE" stroke-width="3.408" d="M66.275,1.768
					c-41.335,0-64.571,21.371-64.571,65.036v450.123c0,40.844,20.896,62.229,62.192,62.229h452.024
					c41.307,0,62.229-20.314,62.229-62.229V66.804c0-42.602-20.924-65.036-63.521-65.036C514.625,1.768,66.133,1.625,66.275,1.768z"
					/>
			</g>
		</g>
	</g>
</g>
<g id="Layer_2_2_">
	<g>
		<path fill="#FFFFFF" d="M187.658,363.135c-2.576-2.637-6.152-3.701-9.539-3.186c-0.43,2.432-0.026,4.979,1.19,7.201l-25.7,21.197
			l29.139-17.408c2.342,1.604,5.162,2.221,7.87,1.809C191.214,369.375,190.234,365.773,187.658,363.135z"/>
		<path fill="#FFFFFF" d="M191.743,371.511l99.045-71.695c5.838,4.627,12.359,7.359,18.486,7.904
			c0.889-8.652-2.352-18.926-9.533-27.634c-7.184-8.704-16.651-13.834-25.319-14.608c-0.722,7.056,1.297,15.184,5.958,22.663
			L180.28,358.658C180.28,358.658,191.743,361.871,191.743,371.511z"/>
		<path fill="#FFFFFF" d="M135.618,387.927c-0.038-0.082-0.943-2.027-2.784-5.387l-1.754,0.961c1.805,3.293,2.715,5.248,2.724,5.268
			L135.618,387.927z"/>
		<path fill="#FFFFFF" d="M113.391,353.57c-2.423-3.035-4.948-6.029-7.506-8.898l-1.493,1.33c2.534,2.842,5.036,5.809,7.436,8.816
			L113.391,353.57z"/>
		<path fill="#FFFFFF" d="M50.006,304.072c3.413,1.65,6.832,3.465,10.163,5.393l1.002-1.729c-3.374-1.953-6.837-3.791-10.294-5.465
			L50.006,304.072z"/>
		<path fill="#FFFFFF" d="M118.775,364.023c2.24,3.141,4.406,6.357,6.439,9.566l1.689-1.07c-2.053-3.238-4.239-6.488-6.501-9.658
			L118.775,364.023z"/>
		<path fill="#FFFFFF" d="M97.892,336.207c-2.76-2.76-5.611-5.445-8.476-7.984l-1.326,1.496c2.834,2.514,5.656,5.172,8.388,7.902
			L97.892,336.207z"/>
		<path fill="#FFFFFF" d="M80.464,320.773c-3.076-2.396-6.247-4.701-9.422-6.852l-1.121,1.656c3.139,2.125,6.272,4.402,9.313,6.771
			L80.464,320.773z"/>
		<path fill="#FFFFFF" d="M33.886,297.385c1.854,0.645,3.734,1.342,5.589,2.07l0.732-1.861c-1.879-0.738-3.785-1.445-5.664-2.098
			L33.886,297.385z"/>
		<path fill="#FFFFFF" d="M139.623,334.297c-0.911-1.467-1.93-2.867-3.025-4.166l-1.528,1.291c1.034,1.223,1.994,2.547,2.855,3.932
			L139.623,334.297z"/>
		<path fill="#FFFFFF" d="M143.734,369.572c-0.394,3.758-1.037,7.707-1.912,11.738l1.954,0.424
			c0.892-4.104,1.546-8.123,1.947-11.953L143.734,369.572z"/>
		<path fill="#FFFFFF" d="M146.141,357.646c-0.189-4.311-0.778-8.369-1.75-12.064l-1.935,0.508
			c0.936,3.561,1.503,7.477,1.687,11.646L146.141,357.646z"/>
		<path fill="#FFFFFF" d="M87.562,400.392l0.396,1.961c3.812-0.77,7.768-1.301,11.758-1.576l-0.139-1.996
			C95.501,399.064,91.459,399.607,87.562,400.392z"/>
		<path fill="#FFFFFF" d="M64.74,408.443l0.93,1.77c3.477-1.824,7.13-3.414,10.859-4.725l-0.663-1.887
			C72.045,404.945,68.302,406.574,64.74,408.443z"/>
		<path fill="#FFFFFF" d="M45.144,422.636l1.387,1.441c2.877-2.768,5.932-5.328,9.08-7.615l-1.176-1.619
			C51.213,417.185,48.088,419.806,45.144,422.636z"/>
		<path fill="#FFFFFF" d="M111.591,400.668c3.945,0.195,7.92,0.623,11.815,1.27l0.327-1.973c-3.971-0.66-8.022-1.094-12.043-1.295
			L111.591,400.668z"/>
		<path fill="#FFFFFF" d="M134.918,403.457l0.356,0.156l-0.323,1.006c0.355,0.115,0.544,0.18,0.551,0.184l0.875,0.307l0.372-0.85
			c0.076-0.172,1.883-4.311,3.924-10.834l-1.909-0.598C136.759,399.236,134.936,403.416,134.918,403.457z"/>
		<path fill="#FFFFFF" d="M189.331,389.875l0.606,1.906c3.787-1.203,7.647-2.352,11.473-3.406l-0.532-1.928
			C197.027,387.51,193.143,388.664,189.331,389.875z"/>
		<path fill="#FFFFFF" d="M212.548,383.467l0.456,1.947c3.884-0.91,7.821-1.748,11.701-2.494l-0.377-1.965
			C220.421,381.707,216.458,382.551,212.548,383.467z"/>
		<path fill="#FFFFFF" d="M353.844,393.344c3.658,1.516,7.318,3.164,10.883,4.904l0.877-1.797c-3.6-1.758-7.299-3.426-10.994-4.955
			L353.844,393.344z"/>
		<path fill="#FFFFFF" d="M375.285,403.812c3.352,1.902,6.707,3.938,9.971,6.053l1.088-1.682c-3.297-2.135-6.686-4.189-10.072-6.109
			L375.285,403.812z"/>
		<path fill="#FFFFFF" d="M236.203,378.933l0.294,1.979c3.955-0.586,7.947-1.09,11.865-1.494l-0.206-1.99
			C244.209,377.836,240.187,378.342,236.203,378.933z"/>
		<path fill="#FFFFFF" d="M260.167,376.465l0.113,1.996c3.998-0.227,8.018-0.355,11.946-0.387l-0.017-2
			C268.25,376.103,264.198,376.236,260.167,376.465z"/>
		<path fill="#FFFFFF" d="M166.67,398.047l0.751,1.854c3.644-1.477,7.406-2.914,11.181-4.275l-0.679-1.881
			C174.124,395.111,170.338,396.558,166.67,398.047z"/>
		<path fill="#FFFFFF" d="M331.277,385.592c3.84,1.063,7.676,2.25,11.402,3.531l0.65-1.891c-3.768-1.297-7.643-2.494-11.52-3.568
			L331.277,385.592z"/>
		<path fill="#FFFFFF" d="M307.937,380.599c3.945,0.607,7.896,1.332,11.744,2.152l0.418-1.955c-3.885-0.83-7.875-1.563-11.857-2.174
			L307.937,380.599z"/>
		<path fill="#FFFFFF" d="M284.173,378.283c3.997,0.174,8.006,0.455,11.917,0.834l0.193-1.99c-3.945-0.383-7.991-0.666-12.024-0.842
			L284.173,378.283z"/>
		<path fill="#FFFFFF" d="M145.695,409.898c0.038-0.021,3.906-2.158,10.728-5.271l-0.83-1.82c-6.901,3.15-10.829,5.322-10.868,5.344
			L145.695,409.898z"/>
		<path fill="#FFFFFF" d="M156.857,476.892l1.905,0.609c1.245-3.895,2.037-7.924,2.352-11.977l-1.994-0.154
			C158.817,469.269,158.056,473.144,156.857,476.892z"/>
		<path fill="#FFFFFF" d="M144.454,421.588c0.032,0.037,3.187,3.701,6.556,9.809l1.751-0.967c-3.47-6.289-6.661-9.996-6.795-10.15
			L144.454,421.588z"/>
		<path fill="#FFFFFF" d="M160.683,453.34c-0.568-3.912-1.557-7.889-2.937-11.818l-1.887,0.662c1.337,3.811,2.294,7.66,2.844,11.443
			L160.683,453.34z"/>
		<path fill="#FFFFFF" d="M95.42,359.953c3.734,1.48,7.297,3.24,10.59,5.225l1.032-1.713c-3.386-2.041-7.048-3.848-10.884-5.371
			L95.42,359.953z"/>
		<path fill="#FFFFFF" d="M55.198,351.474l0.033,2c1.832-0.029,3.621-0.021,5.369,0.016l0.044-2
			C58.871,351.453,57.057,351.445,55.198,351.474z"/>
		<path fill="#FFFFFF" d="M116.844,370.656l-1.327,1.496c2.95,2.617,5.651,5.521,8.028,8.633l1.589-1.215
			C122.679,376.357,119.89,373.359,116.844,370.656z"/>
		<path fill="#FFFFFF" d="M131.552,389.927l-1.796,0.881c3.106,6.33,3.961,10.996,3.97,11.043l1.969-0.35
			C135.66,401.302,134.793,396.533,131.552,389.927z"/>
		<path fill="#FFFFFF" d="M72.455,354.312c4.04,0.484,7.97,1.186,11.678,2.08l0.47-1.943c-3.784-0.914-7.791-1.627-11.909-2.123
			L72.455,354.312z"/>
		<path fill="#FFFFFF" d="M546.113,102.498c-13.834,6.575-25.92,13.532-35.771,19.799c-19.346,12.306-33.088,23.685-39.725,29.532
			c-2.732-1.545-6.117-2.827-10.342-3.648L281.61,259.513c0,0,36.666,8.668,32.666,47.334L481.609,172.18
			c0,0,0.957-6.997-3.5-13.589c10.01-8.676,34.424-28.299,68.004-44.954V102.498z"/>
	</g>
</g>
</svg>
