<?xml version="1.0" encoding="utf-8"?>
<!-- Generator: Adobe Illustrator 15.0.0, SVG Export Plug-In . SVG Version: 6.00 Build 0)  -->
<!DOCTYPE svg PUBLIC "-//W3C//DTD SVG 1.1//EN" "http://www.w3.org/Graphics/SVG/1.1/DTD/svg11.dtd">
<svg version="1.1" xmlns="http://www.w3.org/2000/svg" xmlns:xlink="http://www.w3.org/1999/xlink" x="0px" y="0px" width="580px"
	 height="580px" viewBox="0 0 580 580" enable-background="new 0 0 580 580" xml:space="preserve">
<g id="Layer_1">
	<g id="Layer_1_1_">
		<g id="Layer_2">
			<g id="g1327">
				<path id="path1329" fill="#111111" stroke="#EEEEEE" stroke-width="3.408" d="M66.275,1.768
					c-41.335,0-64.571,21.371-64.571,65.036v450.123c0,40.844,20.895,62.229,62.192,62.229H515.92
					c41.307,0,62.229-20.315,62.229-62.229V66.804c0-42.601-20.925-65.036-63.521-65.036C514.624,1.768,66.133,1.625,66.275,1.768z"
					/>
			</g>
		</g>
	</g>
</g>
<g id="Layer_2_1_">
	<g>
		<path fill="#FFFFFF" d="M519.82,364.473c-68.071,44.381-91.081,50.18-130.051,32.777c-62.053-27.713-95.62-32.193-131.816-17.596
			c-11.453,4.621-15.957,5.215-23.848,3.15c-5.35-1.398-17.303-3.992-26.561-5.762c-13.303-2.543-19.813-5.645-31.037-14.789
			c-17.377-14.154-44.301-27.238-56.793-27.598c-29.244-0.84-19.672-9.18,28.824-25.111c32.807-10.779,65.291-27.373,102.975,2.631
			c15.709,12.506,17.189,12.803,21.092,4.236c4.633-10.168,1.816-13.088-27.984-29.002c-42.721-22.813-71.566-3.16-128.262,15.756
			c-81.38,27.152-103.991,44.154-85.032,63.941c5.19,5.418,8.278,13.332,11.945,30.617c17.111,80.65,85.139,120.34,126.237,73.65
			c11.336-12.879,32.346-50.764,32.346-58.328c0-3.789,1.619-4.229,9.938-2.701c13.297,2.443,15.637,5.162,11.344,13.182
			c-3.094,5.781-2.656,8.939,3.627,26.164c19.854,54.438,49.738,80.441,94.729,85.174c14.152,2.49,26.07,2.4,38.271-3.684
			c24.326-12.412,36.331-27.299,49.96-62.049c7.54-19.229,8.928-21.061,18.427-24.326c5.65-1.941,16.365-7.598,23.813-12.566
			c7.446-4.969,20.097-13.039,28.112-17.932c8.016-4.895,22.9-15.277,33.078-23.074c18.505-14.178,18.505,25.822,20.756,32.574
			c3.782,11.348,11.397,8.576,16.022-5.832C560.888,383.84,555.305,341.336,519.82,364.473z M107.732,467.744
			c-42.427-19.273-62.833-99.023-28.958-113.178c42.201-17.633,87.263,16.684,87.283,66.467
			C166.072,464.883,142.678,483.619,107.732,467.744z M303.272,516.014c-38.413-13.602-62.515-65.566-48.755-105.121
			c14.727-42.33,118.699-14.928,131.565,34.674C398.903,494.99,353.347,533.746,303.272,516.014z"/>
		<path fill="#FFFFFF" d="M410.905,360.545c-2.518,1.359-9.626,4.031-15.781,5.938c-0.693,0.215-1.285,0.42-1.906,0.625
			c7.048,2.371,14.146,4.434,21.219,5.969c2.838-6.023,2.261-13-1.344-13.156C412.451,359.893,411.737,360.098,410.905,360.545z"/>
		<path fill="#FFFFFF" d="M422.968,275.639c-2.501-2.906-3.768-4.225-5.406-4.313c-1.274-0.066-2.76,0.607-5.25,1.844
			c-3.294,1.637-11.252,4.598-17.688,6.563c-11.7,3.574-11.719,3.559-11.719,13.438s0.021,9.879,6.125,7.75
			c5.546-1.932,6.094-2.953,6.094-11.156c0-8.363,0.305-8.869,4.031-6.875c13.358,7.15,7.422,17.598-14,24.688
			c-24.182,8.006-36.705,28.225-25.313,40.813c4.134,4.568,3.241,4.648,11.281-0.844c5.237-3.576,6.557-5.781,6.063-10.063
			c-0.726-6.285,2.297-8.254,24.563-15.969C428.495,312.248,437.567,292.613,422.968,275.639z"/>
		<path fill="#FFFFFF" d="M412.874,138.295c13.782,4.092,36.067,1.023,43.281-5.969c6.659-6.453,7.055-6.565,12.813-3.563
			c10.492,5.472,20.178,2.798,26.094-7.219c2.792-4.725,4.919-5.938,10.5-5.938c7.413,0,15.156-5.754,15.156-11.25
			c0-2.243,1.342-2.73,4.875-1.844c6.522,1.637,16.699-3.894,20.406-11.063c2.981-5.764,3.002-5.748-36.063-6.906
			c-34.434-1.021-40.994-1.799-55.344-6.406c-10.649-3.419-18.311-5.104-23.844-4.969c-7.112,0.174-10.747,3.37-12.813,9.875
			c-0.707,2.229-3.523,4.621-6.281,5.313C403.771,90.337,404.883,135.923,412.874,138.295z"/>
		<path fill="#FFFFFF" d="M407.374,324.107c-5.652,0.193-13.393,3.08-22.469,8.688c-5.842,3.611-2.012,9.268,4.125,6.094
			c3.357-1.734,6.094-4.248,6.094-5.563c0-1.754,0.588-1.787,2.25-0.125c3.466,3.467,0.495,6.436-12.094,12
			c-8.578,3.793-14.705,7.76-18.375,11.906c6.177,2.514,12.474,5.063,18.906,7.406c1.317-0.447,2.87-0.809,4.719-1.156
			c19.351-3.629,26.969-11.988,26.969-29.531C417.499,327.15,413.781,323.891,407.374,324.107z"/>
		<path fill="#FFFFFF" d="M438.905,232.264c-1.5-8.881-4.371-13.963-7.5-13.813c-0.722,0.035-1.45,0.357-2.188,0.969
			c-1.633,1.355-7.27,3.061-12.531,3.781c-7.732,1.061-9.313,1.92-8.219,4.563c3.229,7.797,2.931,10.068-2.063,16
			c-3.41,4.055-10.475,8.27-19.969,11.875c-36.599,13.9-49.231,32.301-34.969,51c6.243,8.186,6.048,8.16,19.063,1.406
			c9.893-5.131,10.211-5.518,6.313-8.25c-11.818-8.277-4.124-17.688,22.031-26.938C428.816,262.27,441.757,249.141,438.905,232.264z
			"/>
		<path fill="#FFFFFF" d="M252.467,102.514c3.896-0.978,4.875-0.445,4.875,2.75c0,5.292,7.492,10.344,15.375,10.344
			c4.797,0,6.898,1.235,8.656,5.094c4.084,8.963,14.771,12.543,25.22,8.438c8.186-3.215,8.895-3.221,11.25,0
			c1.382,1.889,5.03,5.115,8.125,7.156c5.835,3.848,23.947,5.029,36.906,2.438c8.104-1.62,10.343-48.054,2.438-50.563
			c-2.157-0.685-5.78-4.413-8.063-8.281c-2.931-4.967-6.172-7.229-12.469-6.969c-4.897,0.203-11.622,1.952-21.531,5.156
			c-14.097,4.559-20.852,5.333-55.251,6.406c-21.543,0.673-39.156,1.8-39.156,2.5C228.842,93.931,244.82,104.434,252.467,102.514z"
			/>
		<path fill="#FFFFFF" d="M376.905,76.889c3.423,2.397,3.964,5.232,3.969,20.469c0.004,9.729,0.61,34.86,1.344,55.844
			c1.334,38.153,1.343,38.156,7.125,38.156c5.783,0,5.781,0.013,5.781-54.125s0.007-54.141,5.094-60.188
			c9.691-11.518,8.251-25.334-3.25-31.281c-3.102-1.604-6.163-2.241-9.063-2.156C372.252,44.07,361.52,66.113,376.905,76.889z"/>
		<path fill="#FFFFFF" d="M348.062,175.202c6.995,5.172,22.03,4.857,25.406-0.531c6.567-10.481-9.073-23.388-26.344-23.031
			c-1.151,0.024-2.309,0.104-3.469,0.25c-35.609,4.499-42.901,32.233-13.656,51.875c9.282,6.233,13.214,7.242,15.313,3.844
			c0.706-1.143,5.844-4.711,11.438-7.906c10.171-5.809,10.18-5.785,2.406-7.188c-15.021-2.709-25.063-8.978-25.063-15.594
			C334.093,169.61,339.583,168.933,348.062,175.202z"/>
		<path fill="#FFFFFF" d="M395.124,236.17c0-10.004-0.121-10.219-6.094-10.219c-6.104,0-6.125,0.01-6.125,12.219
			c0,6.715,0.42,12.188,0.906,12.188C391.569,250.357,395.124,245.895,395.124,236.17z"/>
		<path fill="#FFFFFF" d="M464.312,175.92c0-13.562-17.973-23.643-34.688-24c-7.598-0.162-14.937,1.681-20.219,6.125
			c-16.359,13.766,3.32,29.918,20.75,17.031c7.329-5.418,12.781-4.634,12.781,1.844c0,9.477-29.892,20.377-56.219,20.5
			c-36.34,0.17-62.247,36.14-41.719,57.906c8.214,8.711,9.471,8.783,22.844,1.781c10.429-5.459,10.442-5.447,4.625-10.344
			c-16.021-13.48-7.715-21.541,27.844-27C442.222,213.332,464.312,198.187,464.312,175.92z"/>
	</g>
</g>
</svg>
