<?xml version="1.0" encoding="utf-8"?>
<!-- Generator: Adobe Illustrator 15.0.0, SVG Export Plug-In . SVG Version: 6.00 Build 0)  -->
<!DOCTYPE svg PUBLIC "-//W3C//DTD SVG 1.1//EN" "http://www.w3.org/Graphics/SVG/1.1/DTD/svg11.dtd">
<svg version="1.1" xmlns="http://www.w3.org/2000/svg" xmlns:xlink="http://www.w3.org/1999/xlink" x="0px" y="0px" width="580px"
	 height="580px" viewBox="0 0 580 580" enable-background="new 0 0 580 580" xml:space="preserve">
<g id="Layer_2_1_">
	<g id="Layer_2">
		<g id="g1327">
			<path id="path1329" fill="#111111" stroke="#EEEEEE" stroke-width="3.408" d="M66.275,1.768
				c-41.335,0-64.571,21.371-64.571,65.036v450.123c0,40.844,20.895,62.229,62.192,62.229h452.024
				c41.307,0,62.229-20.315,62.229-62.229V66.804c0-42.602-20.923-65.036-63.521-65.036C514.625,1.768,66.133,1.625,66.275,1.768z"
				/>
		</g>
	</g>
</g>
<g id="Layer_1">
	<g>
		<g>
			<path fill="#FFFFFF" d="M419.143,73.785l-24.324,9.036l-0.477-1.286c-5.799-15.611-23.156-23.565-38.768-17.767l-215.86,80.186
				c-15.612,5.799-23.565,23.156-17.767,38.768l4.773,12.849c5.799,15.612,23.156,23.566,38.768,17.767l215.859-80.186
				c15.611-5.799,23.566-23.155,17.768-38.768l-0.479-1.285l19.186-7.126l29.592,79.662l-155.471,57.752
				c-2.838,1.054-4.285,4.21-3.23,7.049l31.024,83.518l-12.117,4.501c-4.26,1.582-6.428,6.315-4.846,10.573l68.253,183.737
				c1.582,4.258,6.314,6.427,10.572,4.845l34.691-12.887c4.26-1.582,6.428-6.314,4.846-10.572l-68.252-183.737
				c-1.582-4.258-6.314-6.428-10.572-4.846l-12.297,4.567l-29.114-78.378l155.47-57.752c2.84-1.054,4.285-4.21,3.23-7.048
				l-33.41-89.941C425.137,74.177,421.981,72.731,419.143,73.785z"/>
		</g>
	</g>
</g>
</svg>
