<?xml version="1.0" encoding="utf-8"?>
<!-- Generator: Adobe Illustrator 15.0.0, SVG Export Plug-In . SVG Version: 6.00 Build 0)  -->
<!DOCTYPE svg PUBLIC "-//W3C//DTD SVG 1.1//EN" "http://www.w3.org/Graphics/SVG/1.1/DTD/svg11.dtd">
<svg version="1.1" xmlns="http://www.w3.org/2000/svg" xmlns:xlink="http://www.w3.org/1999/xlink" x="0px" y="0px" width="580px"
	 height="580px" viewBox="0 0 580 580" enable-background="new 0 0 580 580" xml:space="preserve">
<g id="Layer_2_1_">
	<g id="Layer_2">
		<g id="g1327">
			<path id="path1329" fill="#111111" stroke="#EEEEEE" stroke-width="3.408" d="M66.275,1.768
				c-41.335,0-64.571,21.371-64.571,65.036v450.123c0,40.844,20.895,62.229,62.192,62.229h452.024
				c41.307,0,62.229-20.315,62.229-62.229V66.804c0-42.602-20.923-65.036-63.521-65.036C514.625,1.768,66.133,1.625,66.275,1.768z"
				/>
		</g>
	</g>
</g>
<g id="Layer_1">
	<g>
		<g>
			<rect x="127.976" y="73.504" fill="#FFFFFF" width="46.248" height="209.271"/>
			<rect x="73.635" y="73.504" fill="#FFFFFF" width="46.248" height="209.271"/>
			<rect x="182.317" y="73.504" fill="#FFFFFF" width="46.248" height="209.271"/>
			<rect x="236.658" y="73.504" fill="#FFFFFF" width="46.248" height="209.271"/>
		</g>
		<g>
			<rect x="297.401" y="127.844" fill="#FFFFFF" width="208.963" height="46.248"/>
			<rect x="297.401" y="73.504" fill="#FFFFFF" width="208.963" height="46.247"/>
			<rect x="297.401" y="182.185" fill="#FFFFFF" width="208.963" height="46.248"/>
			<rect x="297.401" y="236.526" fill="#FFFFFF" width="208.963" height="46.248"/>
		</g>
		<g>
			<rect x="405.775" y="297.226" fill="#FFFFFF" width="46.248" height="209.27"/>
			<rect x="460.116" y="297.226" fill="#FFFFFF" width="46.248" height="209.27"/>
			<rect x="351.434" y="297.226" fill="#FFFFFF" width="46.248" height="209.27"/>
			<rect x="297.094" y="297.226" fill="#FFFFFF" width="46.247" height="209.27"/>
		</g>
		<g>
			<rect x="73.635" y="405.908" fill="#FFFFFF" width="208.964" height="46.247"/>
			<rect x="73.635" y="460.249" fill="#FFFFFF" width="208.964" height="46.247"/>
			<rect x="73.635" y="351.567" fill="#FFFFFF" width="208.964" height="46.247"/>
			<rect x="73.635" y="297.226" fill="#FFFFFF" width="208.964" height="46.247"/>
		</g>
	</g>
</g>
</svg>
