<?xml version="1.0" encoding="utf-8"?>
<!-- Generator: Adobe Illustrator 15.0.0, SVG Export Plug-In . SVG Version: 6.00 Build 0)  -->
<!DOCTYPE svg PUBLIC "-//W3C//DTD SVG 1.1//EN" "http://www.w3.org/Graphics/SVG/1.1/DTD/svg11.dtd">
<svg version="1.1" xmlns="http://www.w3.org/2000/svg" xmlns:xlink="http://www.w3.org/1999/xlink" x="0px" y="0px" width="580px"
	 height="580px" viewBox="0 0 580 580" enable-background="new 0 0 580 580" xml:space="preserve">
<g id="Layer_1">
	<g id="Layer_1_1_">
		<g id="Layer_2">
			<g id="g1327">
				<path id="path1329" fill="#111111" stroke="#EEEEEE" stroke-width="3.408" d="M66.275,1.768
					c-41.335,0-64.571,21.371-64.571,65.036v450.123c0,40.844,20.895,62.229,62.192,62.229H515.92
					c41.307,0,62.229-20.315,62.229-62.229V66.804c0-42.601-20.925-65.036-63.521-65.036C514.624,1.768,66.133,1.625,66.275,1.768z"
					/>
			</g>
		</g>
	</g>
</g>
<g id="Layer_2_1_">
	<g>
		<g>
			<path fill="#FFFFFF" d="M238.033,181.896l62.26-78.056c-59.681-30.603-127.88-10.882-147.851-3.918l82.663,80.027l-5.292,6.013
				l-81.942-79.33c-3.938,26.695-10.876,91.406,7.306,128.294l73.856-46.999v247.377l-64.863,80.632l7.013,5.641l26.426-32.851
				l31.425,14.401v46.817h9v-46.999l33.016-17.526l23.876,26.598l6.697-6.012l-63.589-70.84V181.896z M229.033,449.662v25.632
				h-20.62L229.033,449.662z M209.54,484.294h19.493v8.934L209.54,484.294z M238.033,492.756v-8.462h15.939L238.033,492.756z
				 M238.033,475.294v-26.655l23.927,26.655H238.033z"/>
			<path fill="#FFFFFF" d="M158.882,66.323c-10.104,7.683-24.798,13.919-33.049,17.082l18.377,5.702L158.882,66.323z"/>
			<path fill="#FFFFFF" d="M118.447,89.49c-3.391,9.776-9.816,18.267-16.377,24.971l33.92-19.527L118.447,89.49z"/>
			<path fill="#FFFFFF" d="M140.312,102.855c-46.707,38.688-53.194,133.575-53.701,142.496l60.978-7.729
				C128.084,196.876,136.304,128.33,140.312,102.855z"/>
			<path fill="#FFFFFF" d="M118.749,114.09l-35.15,20.235l-1.996-3.467l-24.365,67.248l21.779,41.046
				c0.847-10.424,3.214-32.07,9.432-56.407C95.774,154.075,105.92,131.123,118.749,114.09z"/>
			<path fill="#FFFFFF" d="M302.586,41.977c-75.217-4.779-128.488,33.031-146.808,48.37c9.287-2.945,23.315-6.705,40.238-9.044
				c27.77-3.838,68.652-4.297,106.824,14.867V37.984L302.586,41.977z"/>
			<path fill="#FFFFFF" d="M186.295,60.09c19.47-10.555,48.172-22.259,83.576-25.589l-42.076-4.445l-55.052,22.131l3.363,2.165
				l-12.993,20.178C169.438,70.025,177.19,65.026,186.295,60.09z"/>
		</g>
		<g>
			<g>
				<path fill="#FFFFFF" d="M456.705,228.304H423.02l-6.962,10.161h46.994L456.705,228.304z M446.869,237.479h-14.12v-7.962h14.12
					V237.479z"/>
			</g>
			<g>
				<polygon fill="#FFFFFF" points="493.35,232.602 479.492,232.602 477.028,238.398 495.599,238.398 				"/>
			</g>
			<g>
				<polygon fill="#FFFFFF" points="399.47,234.596 389.053,234.596 387.848,238.358 400.339,238.358 				"/>
			</g>
			<g>
				<path fill="#FFFFFF" d="M452.479,304.814c10.612-0.003,19.212-8.608,19.208-19.221c0-0.005,0-0.01,0-0.015
					c-0.005-10.611-8.61-19.21-19.222-19.207c-10.612,0.004-19.213,8.609-19.208,19.222c0,0.005,0,0.009,0,0.014
					C433.262,296.22,441.868,304.819,452.479,304.814z"/>
			</g>
			<g>
				<path fill="#FFFFFF" d="M450.185,330.705h47.564c6.712,0,12.114-5.403,12.114-12.114v-64.74c0-6.711-5.402-12.114-12.114-12.114
					H381.625c-6.71,0-12.114,5.403-12.114,12.114v64.74c0,6.711,5.404,12.114,12.114,12.114h47.563l-72.576,217.614h14.034
					l69.041-207.01l69.039,207.01h14.035L450.185,330.705z M452.474,253.434c17.764,0,32.165,14.395,32.165,32.157
					c0,17.765-14.401,32.166-32.165,32.166s-32.167-14.401-32.167-32.166C420.307,267.828,434.71,253.434,452.474,253.434z"/>
			</g>
		</g>
	</g>
</g>
</svg>
