<?xml version="1.0" encoding="utf-8"?>
<!-- Generator: Adobe Illustrator 15.0.0, SVG Export Plug-In . SVG Version: 6.00 Build 0)  -->
<!DOCTYPE svg PUBLIC "-//W3C//DTD SVG 1.1//EN" "http://www.w3.org/Graphics/SVG/1.1/DTD/svg11.dtd">
<svg version="1.1" xmlns="http://www.w3.org/2000/svg" xmlns:xlink="http://www.w3.org/1999/xlink" x="0px" y="0px" width="580px"
	 height="580px" viewBox="0 0 580 580" enable-background="new 0 0 580 580" xml:space="preserve">
<g id="Layer_2_1_">
	<g id="Layer_2">
		<g id="g1327">
			<path id="path1329" fill="#111111" stroke="#EEEEEE" stroke-width="3.408" d="M66.275,1.768
				c-41.335,0-64.571,21.371-64.571,65.036v450.123c0,40.844,20.895,62.229,62.192,62.229h452.024
				c41.307,0,62.229-20.315,62.229-62.229V66.804c0-42.602-20.923-65.036-63.521-65.036C514.625,1.768,66.133,1.625,66.275,1.768z"
				/>
		</g>
	</g>
</g>
<g id="Layer_1">
	<path fill="#FFFFFF" d="M488.552,90.66c-10.963-12.429-24.316-19.85-35.724-19.85c-5.978,0-11.102,2.065-14.817,5.974
		L303.371,218.408c-7.447,7.843-10.345,18.365-8.397,27.478l-49.406,39.3c-1.449,1.153-2.293,2.903-2.293,4.754v93.074
		l-40.583-20.123c-18.599-9.225-42.855-2.388-53.901,15.191L81.149,485.736c-11.046,17.581-3.709,27.442,16.304,21.917
		l218.756-60.386c20.013-5.523,21.168-17.589,2.569-26.813l-63.358-31.417V292.87l45.164-35.925
		c4.571,5.012,11.459,7.892,18.984,7.892c6.757,0,13.551-2.269,19.13-6.385l157.309-115.909c4.464-3.291,7.174-8.285,7.831-14.444
		C505.038,116.868,499.324,102.872,488.552,90.66z"/>
</g>
</svg>
