<?xml version="1.0" encoding="utf-8"?>
<!-- Generator: Adobe Illustrator 15.0.0, SVG Export Plug-In . SVG Version: 6.00 Build 0)  -->
<!DOCTYPE svg PUBLIC "-//W3C//DTD SVG 1.1//EN" "http://www.w3.org/Graphics/SVG/1.1/DTD/svg11.dtd">
<svg version="1.1" xmlns="http://www.w3.org/2000/svg" xmlns:xlink="http://www.w3.org/1999/xlink" x="0px" y="0px" width="580px"
	 height="580px" viewBox="0 0 580 580" enable-background="new 0 0 580 580" xml:space="preserve">
<g id="Layer_2_1_">
	<g id="Layer_2">
		<g id="g1327">
			<path id="path1329" fill="#111111" stroke="#EEEEEE" stroke-width="3.408" d="M66.275,1.768
				c-41.335,0-64.571,21.371-64.571,65.036v450.123c0,40.844,20.895,62.229,62.192,62.229h452.024
				c41.307,0,62.229-20.315,62.229-62.229V66.804c0-42.602-20.923-65.036-63.521-65.036C514.625,1.768,66.133,1.625,66.275,1.768z"
				/>
		</g>
	</g>
</g>
<g id="Layer_1">
	<g>
		<path fill="#FFFFFF" d="M424.821,122.006H302.236V76.01h33.748c7.041,0,12.749-5.708,12.749-12.75
			c0-7.041-5.708-12.749-12.749-12.749h-88.496c-7.041,0-12.749,5.708-12.749,12.749c0,7.042,5.708,12.75,12.749,12.75h33.749
			v45.996H121.678v67h269.643v155.491h67V155.506C458.321,137.005,443.323,122.006,424.821,122.006z"/>
		<path fill="#FFFFFF" d="M398.157,367.995c-3.59,0-6.5,2.91-6.5,6.5v1.5c0,3.59,2.91,6.5,6.5,6.5s6.5-2.91,6.5-6.5v-1.5
			C404.657,370.905,401.747,367.995,398.157,367.995z"/>
		<path fill="#FFFFFF" d="M398.157,440.776c-3.59,0-6.5,2.91-6.5,6.5v2.93c0,3.59,2.91,6.5,6.5,6.5s6.5-2.91,6.5-6.5v-2.93
			C404.657,443.686,401.747,440.776,398.157,440.776z"/>
		<path fill="#FFFFFF" d="M398.157,477.882c-3.59,0-6.5,2.91-6.5,6.5v2.93c0,3.59,2.91,6.5,6.5,6.5s6.5-2.91,6.5-6.5v-2.93
			C404.657,480.792,401.747,477.882,398.157,477.882z"/>
		<path fill="#FFFFFF" d="M398.157,403.671c-3.59,0-6.5,2.91-6.5,6.5v2.93c0,3.59,2.91,6.5,6.5,6.5s6.5-2.91,6.5-6.5v-2.93
			C404.657,406.581,401.747,403.671,398.157,403.671z"/>
		<path fill="#FFFFFF" d="M398.157,514.988c-3.59,0-6.5,2.91-6.5,6.5v1.5c0,3.59,2.91,6.5,6.5,6.5s6.5-2.91,6.5-6.5v-1.5
			C404.657,517.898,401.747,514.988,398.157,514.988z"/>
		<path fill="#FFFFFF" d="M451.821,367.995c-3.59,0-6.5,2.91-6.5,6.5v1.5c0,3.59,2.91,6.5,6.5,6.5s6.5-2.91,6.5-6.5v-1.5
			C458.321,370.905,455.411,367.995,451.821,367.995z"/>
		<path fill="#FFFFFF" d="M451.821,440.776c-3.59,0-6.5,2.91-6.5,6.5v2.93c0,3.59,2.91,6.5,6.5,6.5s6.5-2.91,6.5-6.5v-2.93
			C458.321,443.686,455.411,440.776,451.821,440.776z"/>
		<path fill="#FFFFFF" d="M451.821,477.882c-3.59,0-6.5,2.91-6.5,6.5v2.93c0,3.59,2.91,6.5,6.5,6.5s6.5-2.91,6.5-6.5v-2.93
			C458.321,480.792,455.411,477.882,451.821,477.882z"/>
		<path fill="#FFFFFF" d="M451.821,403.671c-3.59,0-6.5,2.91-6.5,6.5v2.93c0,3.59,2.91,6.5,6.5,6.5s6.5-2.91,6.5-6.5v-2.93
			C458.321,406.581,455.411,403.671,451.821,403.671z"/>
		<path fill="#FFFFFF" d="M451.821,514.988c-3.59,0-6.5,2.91-6.5,6.5v1.5c0,3.59,2.91,6.5,6.5,6.5s6.5-2.91,6.5-6.5v-1.5
			C458.321,517.898,455.411,514.988,451.821,514.988z"/>
		<path fill="#FFFFFF" d="M424.821,367.995c-3.59,0-6.5,2.91-6.5,6.5v1.5c0,3.59,2.91,6.5,6.5,6.5s6.5-2.91,6.5-6.5v-1.5
			C431.321,370.905,428.411,367.995,424.821,367.995z"/>
		<path fill="#FFFFFF" d="M424.821,403.671c-3.59,0-6.5,2.91-6.5,6.5v2.93c0,3.59,2.91,6.5,6.5,6.5s6.5-2.91,6.5-6.5v-2.93
			C431.321,406.581,428.411,403.671,424.821,403.671z"/>
		<path fill="#FFFFFF" d="M424.821,440.776c-3.59,0-6.5,2.91-6.5,6.5v2.93c0,3.59,2.91,6.5,6.5,6.5s6.5-2.91,6.5-6.5v-2.93
			C431.321,443.686,428.411,440.776,424.821,440.776z"/>
		<path fill="#FFFFFF" d="M424.821,477.882c-3.59,0-6.5,2.91-6.5,6.5v2.93c0,3.59,2.91,6.5,6.5,6.5s6.5-2.91,6.5-6.5v-2.93
			C431.321,480.792,428.411,477.882,424.821,477.882z"/>
		<path fill="#FFFFFF" d="M424.821,514.988c-3.59,0-6.5,2.91-6.5,6.5v1.5c0,3.59,2.91,6.5,6.5,6.5s6.5-2.91,6.5-6.5v-1.5
			C431.321,517.898,428.411,514.988,424.821,514.988z"/>
	</g>
</g>
</svg>
