<?xml version="1.0" encoding="utf-8"?>
<!-- Generator: Adobe Illustrator 15.0.0, SVG Export Plug-In . SVG Version: 6.00 Build 0)  -->
<!DOCTYPE svg PUBLIC "-//W3C//DTD SVG 1.1//EN" "http://www.w3.org/Graphics/SVG/1.1/DTD/svg11.dtd">
<svg version="1.1" xmlns="http://www.w3.org/2000/svg" xmlns:xlink="http://www.w3.org/1999/xlink" x="0px" y="0px" width="580px"
	 height="580px" viewBox="0 0 580 580" enable-background="new 0 0 580 580" xml:space="preserve">
<g id="Layer_2_1_">
	<g id="Layer_2">
		<g id="g1327">
			<path id="path1329" fill="#111111" stroke="#EEEEEE" stroke-width="3.408" d="M66.275,1.768
				c-41.335,0-64.571,21.371-64.571,65.036v450.123c0,40.844,20.895,62.229,62.192,62.229h452.024
				c41.307,0,62.229-20.315,62.229-62.229V66.804c0-42.602-20.923-65.036-63.521-65.036C514.625,1.768,66.133,1.625,66.275,1.768z"
				/>
		</g>
	</g>
</g>
<g id="Layer_1">
	<g>
		<path fill="#FFFFFF" d="M43.532,135.77l413.633,397.857l79.303-82.448L122.835,53.323L43.532,135.77z M473.558,470.033
			c-5.692,5.918-15.103,6.1-21.021,0.409c-5.916-5.692-6.1-15.103-0.407-21.021c5.691-5.916,15.102-6.1,21.02-0.408
			C479.067,454.705,479.25,464.115,473.558,470.033z M455.545,389.931l-62.729,65.216l-36.333-34.949l62.727-65.216L455.545,389.931
			z M406.168,342.437l-62.729,65.215l-36.333-34.948l62.728-65.216L406.168,342.437z M356.79,294.942l-62.728,65.216l-36.335-34.949
			l62.729-65.215L356.79,294.942z M307.413,247.448l-62.729,65.216l-36.334-34.949l62.728-65.215L307.413,247.448z M258.035,199.953
			l-62.729,65.216l-36.334-34.948l62.728-65.216L258.035,199.953z M208.657,152.459l-62.728,65.216l-36.334-34.949l62.728-65.216
			L208.657,152.459z M159.28,104.965L96.551,170.18l-36.334-34.949l62.729-65.215L159.28,104.965z"/>
		
			<rect x="64.505" y="94.891" transform="matrix(0.6932 -0.7207 0.7207 0.6932 -52.8893 115.9391)" opacity="0.9" fill="#FFFFFF" width="90.487" height="50.414"/>
		
			<rect x="113.882" y="142.386" transform="matrix(0.6932 -0.7207 0.7207 0.6932 -71.9718 166.0983)" opacity="0.8" fill="#FFFFFF" width="90.487" height="50.414"/>
		
			<rect x="163.26" y="189.88" transform="matrix(0.6932 -0.7207 0.7207 0.6932 -91.0539 216.2543)" opacity="0.6" fill="#FFFFFF" width="90.487" height="50.414"/>
		
			<rect x="212.637" y="237.374" transform="matrix(0.6932 -0.7207 0.7207 0.6932 -110.1362 266.4131)" opacity="0.5" fill="#FFFFFF" width="90.488" height="50.415"/>
		
			<rect x="262.015" y="284.868" transform="matrix(0.6932 -0.7207 0.7207 0.6932 -129.2188 316.5718)" opacity="0.4" fill="#FFFFFF" width="90.487" height="50.415"/>
		
			<rect x="311.393" y="332.364" transform="matrix(0.6932 -0.7207 0.7207 0.6932 -148.3017 366.7185)" opacity="0.3" fill="#FFFFFF" width="90.487" height="50.413"/>
		
			<rect x="360.77" y="379.858" transform="matrix(0.6932 -0.7207 0.7207 0.6932 -167.3839 416.8831)" opacity="0.2" fill="#FFFFFF" width="90.487" height="50.414"/>
	</g>
</g>
</svg>
