<?xml version="1.0" encoding="utf-8"?>
<!-- Generator: Adobe Illustrator 15.0.0, SVG Export Plug-In . SVG Version: 6.00 Build 0)  -->
<!DOCTYPE svg PUBLIC "-//W3C//DTD SVG 1.1//EN" "http://www.w3.org/Graphics/SVG/1.1/DTD/svg11.dtd">
<svg version="1.1" xmlns="http://www.w3.org/2000/svg" xmlns:xlink="http://www.w3.org/1999/xlink" x="0px" y="0px" width="580px"
	 height="580px" viewBox="0 0 580 580" enable-background="new 0 0 580 580" xml:space="preserve">
<g id="Layer_2_1_">
	<g id="Layer_2">
		<g id="g1327">
			<path id="path1329" fill="#111111" stroke="#EEEEEE" stroke-width="3.408" d="M66.275,1.768
				c-41.335,0-64.571,21.371-64.571,65.036v450.123c0,40.844,20.895,62.229,62.192,62.229h452.024
				c41.307,0,62.229-20.315,62.229-62.229V66.804c0-42.602-20.923-65.036-63.521-65.036C514.625,1.768,66.133,1.625,66.275,1.768z"
				/>
		</g>
	</g>
</g>
<g id="Layer_1">
	<g>
		<path fill="#FFFFFF" d="M394.559,110.269c3.549-31.851-15.884-62.733-47.646-72.481c-32.14-9.864-65.968,5.27-80.628,34.294
			l-1.435-0.427c-4.263-1.268-8.583-2.233-12.841-2.868c-24.917-3.717-43.973,3.816-48.546,19.191l-14.108,47.428
			c-2.936,9.871,0.855,20.452,10.675,29.793c7.754,7.377,18.866,13.498,31.327,17.277L207.13,261.42
			c-3.429,11.173,6.799,22.731,22.847,32.275l-11.515,37.517l23.841,7.316l-10.831,40.667l16.627,20.697l17.357-54.259l23.192,7.118
			l11.513-37.516c18.638,1.101,33.59-2.729,37.019-13.903l24.584-80.103c3.536,0.96,7.096,1.722,10.613,2.247
			c24.916,3.716,43.972-3.817,48.544-19.192l14.107-47.429C440.291,139.16,422.97,119.383,394.559,110.269z M215.585,148.848
			c-4.248-4.042-4.693-6.689-4.598-7.008l14.107-47.428c0.469-1.575,8.455-5.562,23.586-3.305c3.212,0.479,6.488,1.212,9.737,2.179
			l0.288,0.085l-20.727,67.533C228.924,158.168,220.774,153.785,215.585,148.848z M413.398,150.424l-14.106,47.427
			c-0.47,1.575-8.455,5.563-23.585,3.306c-2.416-0.361-4.871-0.865-7.32-1.505l20.695-67.43
			C407.371,138.466,413.966,148.517,413.398,150.424z"/>
		<polygon fill="#FFFFFF" points="188.104,542.024 201.333,546.084 213.853,506.948 201.531,491.611 		"/>
		<polygon fill="#FFFFFF" points="212.491,450.458 226.389,467.759 235.562,439.082 220.511,420.346 		"/>
		<polygon fill="#FFFFFF" points="203.001,486.092 215.534,501.692 224.708,473.015 211.022,455.977 		"/>
		<polygon fill="#FFFFFF" points="221.981,414.827 237.244,433.826 246.417,405.149 230.002,384.715 		"/>
	</g>
</g>
</svg>
