<?xml version="1.0" encoding="utf-8"?>
<!-- Generator: Adobe Illustrator 15.0.0, SVG Export Plug-In . SVG Version: 6.00 Build 0)  -->
<!DOCTYPE svg PUBLIC "-//W3C//DTD SVG 1.1//EN" "http://www.w3.org/Graphics/SVG/1.1/DTD/svg11.dtd">
<svg version="1.1" xmlns="http://www.w3.org/2000/svg" xmlns:xlink="http://www.w3.org/1999/xlink" x="0px" y="0px" width="580px"
	 height="580px" viewBox="0 0 580 580" enable-background="new 0 0 580 580" xml:space="preserve">
<g id="Layer_2_1_">
	<g id="Layer_2">
		<g id="g1327">
			<path id="path1329" fill="#111111" stroke="#EEEEEE" stroke-width="3.408" d="M66.275,1.768
				c-41.335,0-64.571,21.371-64.571,65.036v450.123c0,40.844,20.895,62.229,62.192,62.229h452.024
				c41.307,0,62.229-20.315,62.229-62.229V66.804c0-42.602-20.923-65.036-63.521-65.036C514.625,1.768,66.133,1.625,66.275,1.768z"
				/>
		</g>
	</g>
</g>
<g id="Layer_1">
	<path fill="#FFFFFF" d="M410.457,51.751c-8.084,0-15.203,4.295-19.379,10.813c-108.226,44.049-202.506-2.297-204.863-3.471
		c-4.231-4.524-10.133-7.342-16.673-7.342c-12.866,0-23.297,10.875-23.297,24.289c0,10.212,6.051,18.936,14.613,22.528
		c-0.146,25.284,9.642,112.528,98.051,127.774c-0.229,1.381-0.377,2.79-0.377,4.236v58.493c0,14.236,11.541,25.776,25.777,25.776
		h3.966v165.155c-2.65,1.023-5.034,3.159-6.811,6.237l-13.879,24.04c-2.547,4.41-2.848,8.951-0.824,12.454
		c2.023,3.505,6.104,5.515,11.198,5.515h27.759c5.094,0,9.176-2.01,11.199-5.515c2.021-3.503,1.723-8.044-0.824-12.454
		l-13.879-24.04c-1.598-2.765-3.682-4.791-6.01-5.916V314.847h3.967c14.236,0,25.777-11.54,25.777-25.776v-58.493
		c0-2.064-0.27-4.062-0.727-5.985c86.619-19.65,96.633-105.101,97.752-128.088c6.477-4.314,10.783-11.857,10.783-20.465
		C433.756,62.625,423.324,51.751,410.457,51.751z M309.222,514.245c1.076,1.863,1.383,3.556,0.824,4.523
		c-0.559,0.971-2.178,1.549-4.33,1.549h-27.759c-2.151,0-3.77-0.578-4.33-1.549c-0.559-0.968-0.251-2.66,0.824-4.523l13.88-24.039
		c0.444-0.77,0.933-1.373,1.426-1.861h4.159c0.494,0.488,0.982,1.092,1.426,1.861L309.222,514.245z"/>
</g>
</svg>
