<?xml version="1.0" encoding="utf-8"?>
<!-- Generator: Adobe Illustrator 15.0.0, SVG Export Plug-In . SVG Version: 6.00 Build 0)  -->
<!DOCTYPE svg PUBLIC "-//W3C//DTD SVG 1.1//EN" "http://www.w3.org/Graphics/SVG/1.1/DTD/svg11.dtd">
<svg version="1.1" xmlns="http://www.w3.org/2000/svg" xmlns:xlink="http://www.w3.org/1999/xlink" x="0px" y="0px" width="580px"
	 height="580px" viewBox="0 0 580 580" enable-background="new 0 0 580 580" xml:space="preserve">
<g id="Layer_2_1_">
	<g id="Layer_2">
		<g id="g1327">
			<path id="path1329" fill="#111111" stroke="#EEEEEE" stroke-width="3.408" d="M66.275,1.768
				c-41.335,0-64.571,21.371-64.571,65.036v450.123c0,40.844,20.895,62.229,62.192,62.229h452.024
				c41.307,0,62.229-20.315,62.229-62.229V66.804c0-42.602-20.923-65.036-63.521-65.036C514.625,1.768,66.133,1.625,66.275,1.768z"
				/>
		</g>
	</g>
</g>
<g id="Layer_1">
	<g>
		<path fill="#FFFFFF" d="M508.171,437.675c-12.439,0.433-28.722,8.895-45.636,13.102c18.119-11.889,32.33-29.209,40.342-49.694
			h-57.532h-10.184H319.812h-25.722H175.909h-10.143h-70.2c5.35,13.688,13.473,25.961,23.675,36.149
			c-1.936-0.194-3.887-0.276-5.858-0.213c-21.221,0.824-44.484,17.238-65.233,18.224c-1.092,0.018-2.178-0.019-3.258-0.084v43.499
			c1.081,0.064,2.166,0.1,3.258,0.083c20.749-0.818,44.012-17.646,65.233-18.222c20.671-0.819,39.141,14.447,59.969,14.773
			c21.145,0.168,42.599-13.785,65.235-13.376c22.32,0.326,45.034,15.508,67.826,15.432c22.399-0.495,43.618-16.664,66.963-16.829
			c23.419-0.077,49.2,15.761,72.151,16.175c22.635,0,46.058-14.862,62.643-15.434c11.811-0.542,19.731,4.901,26.938,8.716v-43.523
			C527.902,442.644,519.981,437.257,508.171,437.675z"/>
		<path fill="#FFFFFF" d="M292.762,90.184c0-4.931-1.237-8.928-2.763-8.928l0,0c-1.525,0-2.763,3.997-2.763,8.928v318.298
			c0,4.932,1.238,8.929,2.763,8.929l0,0c1.525,0,2.763-3.997,2.763-8.929V90.184z"/>
		<g>
			<path fill="#FFFFFF" d="M270.606,86.643V384.01H119.767C119.767,384.01,228.587,213.778,270.606,86.643z"/>
			<path fill="#FFFFFF" d="M309.393,86.643V384.01h150.839C460.232,384.01,351.413,213.778,309.393,86.643z"/>
		</g>
	</g>
</g>
</svg>
