<?xml version="1.0" encoding="utf-8"?>
<!-- Generator: Adobe Illustrator 15.0.0, SVG Export Plug-In . SVG Version: 6.00 Build 0)  -->
<!DOCTYPE svg PUBLIC "-//W3C//DTD SVG 1.1//EN" "http://www.w3.org/Graphics/SVG/1.1/DTD/svg11.dtd">
<svg version="1.1" xmlns="http://www.w3.org/2000/svg" xmlns:xlink="http://www.w3.org/1999/xlink" x="0px" y="0px" width="580px"
	 height="580px" viewBox="0 0 580 580" enable-background="new 0 0 580 580" xml:space="preserve">
<g id="Layer_2_1_">
	<g id="Layer_2">
		<g id="g1327">
			<path id="path1329" fill="#111111" stroke="#EEEEEE" stroke-width="3.408" d="M66.275,1.768
				c-41.335,0-64.571,21.371-64.571,65.036v450.123c0,40.844,20.895,62.229,62.192,62.229h452.024
				c41.307,0,62.229-20.315,62.229-62.229V66.804c0-42.602-20.923-65.036-63.521-65.036C514.625,1.768,66.133,1.625,66.275,1.768z"
				/>
		</g>
	</g>
</g>
<g id="Layer_1">
	<path fill="#FFFFFF" d="M488.367,282.758c-0.408-11.78-1.801-23.305-4.104-34.49c13.181-13.904,32.641,7.652,32.641,7.652
		s-7.24-43.977-40.258-34.889c-2.603-7.305-5.615-14.409-8.996-21.294c9.461-15.818,33.165-0.314,33.165-0.314
		s-17.919-40.133-47.184-23.872c-4.454-6.59-9.279-12.898-14.449-18.892c5.777-16.484,31.727-7.797,31.727-7.797
		s-27.019-33.639-51.029-11.735c-6.118-5.394-12.565-10.41-19.302-15.02c2.402-16.278,28.565-14.554,28.565-14.554
		s-34.038-25.202-51.844,0.868c-7.438-3.716-15.135-6.976-23.063-9.734c-0.853-15.685,24.021-20.484,24.021-20.484
		s-38.856-15.547-49.732,13.477c-8.188-1.641-16.556-2.765-25.07-3.346c-4.394-14.794,18.132-25.599,18.132-25.599
		s-41.453-5.164-44.673,25.575c-8.509,0.564-16.873,1.672-25.056,3.295c-8.13-13.208,10.989-29.442,10.989-29.442
		s-41.668,5.568-36.667,36.375c-7.908,2.732-15.589,5.964-23.015,9.649c-12.007-10.592,2.72-31.662,2.72-31.662
		s-39.553,16.232-25.907,45.211c-6.711,4.56-13.136,9.522-19.237,14.858c-15.544-6.634-6.304-31.716-6.304-31.716
		s-34.791,26.244-12.955,51.021c-5.161,5.921-9.984,12.152-14.441,18.664c-17.842-1.52-15.166-29.197-15.166-29.197
		s-27.441,34.785,1.099,53.092c-3.408,6.818-6.441,13.861-9.084,21.099c-18.323,4.065-22.901-24.223-22.901-24.223
		s-17.903,41.073,15.112,51.244c-1.57,7.301-2.762,14.744-3.533,22.317c-16.942,9.325-28.766-17.389-28.766-17.389
		s-6.914,44.447,27.832,45.736c0.407,11.779,1.798,23.304,4.105,34.486c-13.18,13.91-32.644-7.648-32.644-7.648
		s7.243,43.978,40.258,34.888c2.605,7.304,5.616,14.408,8.997,21.292c-9.459,15.822-33.165,0.316-33.165,0.316
		s17.923,40.136,47.184,23.87c4.454,6.59,9.28,12.898,14.451,18.892c-5.776,16.486-31.726,7.799-31.726,7.799
		s27.02,33.639,51.029,11.733c6.117,5.395,12.564,10.411,19.302,15.021c-2.402,16.278-28.566,14.556-28.566,14.556
		s34.038,25.201,51.842-0.869c7.438,3.716,15.136,6.976,23.063,9.734c0.855,15.686-24.02,20.485-24.02,20.485
		s38.855,15.548,49.73-13.477c6.213,1.243,12.529,2.198,18.935,2.837c3.948,14.925-18.901,25.04-18.901,25.04s3.199,0.497,7.9,0.556
		c-0.628,0.335-0.994,0.512-0.994,0.512s41.453,5.164,44.67-25.575c8.51-0.564,16.873-1.674,25.057-3.295
		c8.133,13.207-10.986,29.44-10.986,29.44s41.669-5.566,36.664-36.372c7.907-2.733,15.59-5.966,23.014-9.649
		c12.01,10.59-2.718,31.661-2.718,31.661s39.555-16.231,25.906-45.211c6.71-4.561,13.134-9.523,19.235-14.858
		c15.548,6.631,6.307,31.716,6.307,31.716s34.792-26.245,12.954-51.021c5.161-5.922,9.984-12.152,14.439-18.663
		c17.845,1.517,15.169,29.195,15.169,29.195s27.441-34.785-1.101-53.092c3.406-6.816,6.44-13.86,9.085-21.099
		c18.325-4.068,22.901,24.223,22.901,24.223s17.906-41.074-15.112-51.243c1.57-7.301,2.763-14.745,3.534-22.317
		c16.941-9.327,28.765,17.388,28.765,17.388S523.115,284.046,488.367,282.758z M292.902,323.09
		c-17.954,0-32.509-14.555-32.509-32.509c0-17.955,14.555-32.51,32.509-32.51s32.51,14.555,32.51,32.51
		C325.412,308.535,310.856,323.09,292.902,323.09z"/>
</g>
</svg>
