<?xml version="1.0" encoding="utf-8"?>
<!-- Generator: Adobe Illustrator 15.0.0, SVG Export Plug-In . SVG Version: 6.00 Build 0)  -->
<!DOCTYPE svg PUBLIC "-//W3C//DTD SVG 1.1//EN" "http://www.w3.org/Graphics/SVG/1.1/DTD/svg11.dtd">
<svg version="1.1" id="Layer_1" xmlns="http://www.w3.org/2000/svg" xmlns:xlink="http://www.w3.org/1999/xlink" x="0px" y="0px"
	 width="580px" height="580px" viewBox="0 0 580 580" enable-background="new 0 0 580 580" xml:space="preserve">
<g id="Layer_2_1_">
	<g id="Layer_2">
		<g id="g1327">
			<path id="path1329" fill="#111111" stroke="#EEEEEE" stroke-width="3.408" d="M66.275,1.768
				c-41.335,0-64.571,21.371-64.571,65.036v450.123c0,40.844,20.896,62.229,62.192,62.229h452.024
				c41.307,0,62.229-20.314,62.229-62.229V66.804c0-42.603-20.923-65.036-63.521-65.036C514.625,1.768,66.133,1.625,66.275,1.768z"
				/>
		</g>
	</g>
</g>
<g id="Layer_1_1_">
	<path fill="#FFFFFF" d="M382.474,124.892l-1.349-0.373V81.475l1.349-0.285l-1.349-0.372V53.136h-6.61V78.99l-38.56-10.659V37.713
		h-6.608v30.36l-76.017,14.604v-8.607h-6.609v9.877l-40.764,7.83V68.56h-6.608v24.484l-1.823,0.351l1.823,0.452v42.9l-1.823,0.351
		l1.823,0.451v11.82l-1.823,0.351l1.823,0.451v64.845l-1.823,0.35l1.823,0.452V270.1l-1.823,0.35l1.823,0.452v78.744l-1.823,0.351
		l1.823,0.451v12.148l-1.823,0.349l1.823,0.453v76.652l-1.823,0.35l1.823,0.452v79.401h6.608v-77.762l40.764,10.108v62.144h6.609
		v-61.927l76.017-13.513v102.981h6.608v-104.26l38.56-8.15v98.089h6.61v-99.487l1.349-0.284l-1.349-0.373v-76.797l1.349-0.285
		l-1.349-0.372v-12.293l1.349-0.284l-1.349-0.372v-78.888l1.349-0.285l-1.349-0.372v-54.427l1.349-0.286l-1.349-0.372V137.8
		l1.349-0.284l-1.349-0.373v-11.967L382.474,124.892z M374.515,122.691l-38.56-10.659v-21.01l38.56-8.15V122.691z M253.331,105.814
		L329.347,92.3v19.475l-76.017,14.603V105.814z M253.331,141.243l76.017-14.602v7.123l-76.017,13.512V141.243z M329.347,136.002
		v10.387l-76.017,13.514v-10.386L329.347,136.002z M329.347,114.019v10.378L253.331,139v-10.378L329.347,114.019z M246.721,140.27
		l-15.357,2.95l-23.583-5.849l38.94-7.48V140.27L246.721,140.27z M246.721,142.513v4.516l-10.261-2.544L246.721,142.513z
		 M246.721,149.299v10.354l-38.94-9.659l23.523-4.519L246.721,149.299z M253.331,162.139l76.017-13.515v41.417l-76.017,14.604
		V162.139z M253.331,227.782l76.017-13.513v30.856l-76.017,14.603V227.782z M329.347,247.37v19.746l-76.017,13.514v-18.657
		L329.347,247.37z M246.721,280.381l-38.94-9.658l38.94-7.479V280.381z M253.331,282.868l76.017-13.514v55.317l-76.017,14.604
		V282.868z M329.347,326.916v10.705l-76.017,14.604V341.52L329.347,326.916z M253.331,354.469l76.017-14.604v6.797l-76.017,13.514
		V354.469z M329.347,348.899v10.712l-76.017,13.512v-10.711L329.347,348.899z M246.721,353.494l-14.615,2.809l-24.326-6.032
		l38.94-7.48L246.721,353.494L246.721,353.494z M246.721,355.738v4.188l-9.518-2.359L246.721,355.738z M246.721,362.196v10.679
		l-38.94-9.655l24.265-4.662L246.721,362.196z M253.331,375.362l76.017-13.514v53.229l-76.017,14.604V375.362z M335.957,347.622
		l15.285-3.23l21.928,6.062l-37.213,7.866V347.622z M335.957,345.369v-5.203l10.67,2.948L335.957,345.369z M335.957,337.881v-10.663
		l37.213,10.286l-21.856,4.621L335.957,337.881z M335.957,247.671l37.213,10.286l-37.213,7.868V247.671z M335.957,134.724
		l15.953-3.372l21.26,5.876l-37.213,7.867V134.724z M335.957,132.472v-5.53l11.336,3.133L335.957,132.472z M335.957,124.656v-10.337
		l37.213,10.286l-21.188,4.479L335.957,124.656z M373.17,80.904l-37.213,7.867V70.617L373.17,80.904z M329.347,70.317v19.746
		l-76.017,13.514V84.919L329.347,70.317z M246.721,86.189v17.139l-38.94-9.659L246.721,86.189z M205.958,95.487l40.764,10.111v22.05
		l-40.764,7.83V95.487z M205.958,139.19l20.248,5.021l-20.248,3.89V139.19z M205.958,151.812l40.764,10.11v43.992l-40.764,7.83
		V151.812z M205.958,217.457l40.764,10.109v33.432l-40.764,7.831V217.457z M205.958,272.54l40.764,10.112v57.895l-40.764,7.829
		V272.54z M205.958,352.089l20.99,5.205l-20.99,4.031V352.089z M205.958,365.036l40.764,10.108v55.806l-40.764,7.83V365.036z
		 M374.515,425.994l-38.56-10.657V360.57l38.56-8.149V425.994z M374.515,348.538l-18.588-5.138l18.588-3.93V348.538z
		 M374.515,335.59l-38.56-10.658v-56.855l38.56-8.15V335.59z M374.515,256.043l-38.56-10.657v-32.394l38.56-8.151V256.043z
		 M374.515,200.959L335.957,190.3v-42.953l38.56-8.15L374.515,200.959L374.515,200.959z M374.515,135.314l-17.918-4.953
		l17.918-3.788V135.314z"/>
</g>
</svg>
