<?xml version="1.0" encoding="utf-8"?>
<!-- Generator: Adobe Illustrator 15.0.0, SVG Export Plug-In . SVG Version: 6.00 Build 0)  -->
<!DOCTYPE svg PUBLIC "-//W3C//DTD SVG 1.1//EN" "http://www.w3.org/Graphics/SVG/1.1/DTD/svg11.dtd">
<svg version="1.1" xmlns="http://www.w3.org/2000/svg" xmlns:xlink="http://www.w3.org/1999/xlink" x="0px" y="0px" width="580px"
	 height="580px" viewBox="0 0 580 580" enable-background="new 0 0 580 580" xml:space="preserve">
<g id="Layer_2_1_">
	<g id="Layer_2">
		<g id="g1327">
			<path id="path1329" fill="#111111" stroke="#EEEEEE" stroke-width="3.408" d="M66.275,1.768
				c-41.335,0-64.571,21.371-64.571,65.036v450.123c0,40.844,20.895,62.229,62.192,62.229h452.024
				c41.307,0,62.229-20.315,62.229-62.229V66.804c0-42.602-20.923-65.036-63.521-65.036C514.625,1.768,66.133,1.625,66.275,1.768z"
				/>
		</g>
	</g>
</g>
<g id="Layer_1">
	<g>
		<path fill="#FFFFFF" d="M230.921,175.923c2.754,6.426,3.118,6.426,2.018,10.098c-1.099,3.673,3.95,6.427,5.327,7.344
			c1.377,0.918-5.604,1.836-5.327,5.048c0.278,3.214,6.245,4.821,6.245,4.821s-3.294,6.701-3.044,11.743
			c-0.003,0.001-15.18,5.447-15.18,21.607c0,16.162,6.468-5.622,15.18-3.514c5.591,1.353,13.377-5.831,17.313-11.57
			c6.41,0.101,13.94-0.189,20.775-0.918c-5.042,13.508-9.005,24.145-40.099,42.932c-34.261,20.699-19.271,112.06-19.271,112.06
			h154.885c0,0,18.559-101.354,0.713-122.053c-17.844-20.699-32.832-10.707-46.393-22.127c-8.217-6.919-5.43-24.84-1.955-37.894
			c2.826-2.148,5.152-3.847,6.58-4.726c5.967-3.672,57.377-117.504-18.818-120.259c-76.194-2.753-53.703,5.967-53.703,5.967
			s-34.425,11.934-32.589,47.277c0,0,7.802,11.934,5.967,17.901c-1.836,5.967-11.475,18.053-13.312,24.174
			c-1.836,6.12-9.18,4.743-5.508,12.087C214.397,183.267,228.167,169.497,230.921,175.923z"/>
		<rect x="180.61" y="383.323" fill="#FFFFFF" width="218.781" height="10.983"/>
		<rect x="154.979" y="401.631" fill="#FFFFFF" width="270.042" height="11.9"/>
		<rect x="172.829" y="424.514" fill="#FFFFFF" width="15.562" height="111.505"/>
		<rect x="391.609" y="424.514" fill="#FFFFFF" width="15.563" height="111.505"/>
	</g>
</g>
</svg>
