<?xml version="1.0" encoding="utf-8"?>
<!-- Generator: Adobe Illustrator 15.0.0, SVG Export Plug-In . SVG Version: 6.00 Build 0)  -->
<!DOCTYPE svg PUBLIC "-//W3C//DTD SVG 1.1//EN" "http://www.w3.org/Graphics/SVG/1.1/DTD/svg11.dtd">
<svg version="1.1" xmlns="http://www.w3.org/2000/svg" xmlns:xlink="http://www.w3.org/1999/xlink" x="0px" y="0px" width="580px"
	 height="580px" viewBox="0 0 580 580" enable-background="new 0 0 580 580" xml:space="preserve">
<g id="Layer_2_1_">
	<g id="Layer_2">
		<g id="g1327">
			<path id="path1329" fill="#111111" stroke="#EEEEEE" stroke-width="3.408" d="M66.275,1.768
				c-41.335,0-64.571,21.371-64.571,65.036v450.123c0,40.844,20.896,62.229,62.192,62.229h452.024
				c41.307,0,62.229-20.314,62.229-62.229V66.804c0-42.602-20.923-65.036-63.521-65.036C514.625,1.768,66.133,1.625,66.275,1.768z"
				/>
		</g>
	</g>
</g>
<g id="Layer_1">
	<g>
		<path fill="#FFFFFF" d="M387.684,182.555c-0.996-0.024-100.179-2.526-155.355-8.955c-54.739-6.377-174.328-47.253-175.53-47.665
			c-2.138-0.735-4.499-0.39-6.339,0.925c-1.84,1.313-2.932,3.436-2.932,5.696v289.485c0,2.053,0.9,4.001,2.464,5.331
			c1.274,1.085,2.886,1.669,4.536,1.669c0.372,0,0.747-0.029,1.12-0.09l166.492-26.998c51.583-8.365,97.121-10.121,126.239-10.121
			c23.854,0,38.412,1.176,38.557,1.188c1.942,0.161,3.878-0.502,5.317-1.828c1.438-1.325,2.258-3.192,2.258-5.148v-196.49
			C394.511,185.755,391.481,182.649,387.684,182.555z"/>
		<circle fill="#FFFFFF" cx="475.471" cy="250.88" r="19.605"/>
		<path fill="#FFFFFF" d="M455.234,298.802h3.795v23.612c4.925,0.633,10.404,1.03,16.442,1.03c6.039,0,11.519-0.397,16.443-1.03
			v-23.612h3.794v23.066c4.85-0.786,9.065-1.792,12.648-2.841v-16.514l-1.265-15.444c-2.436-5.742-8.126-9.771-14.757-9.771h-33.729
			c-6.631,0-12.321,4.028-14.756,9.772l-1.265,15.442v16.515c3.582,1.048,7.799,2.054,12.648,2.84V298.802z"/>
		<path fill="#FFFFFF" d="M530.365,317.927c-0.593-0.319-1.245-0.478-1.896-0.478c-0.771,0-1.539,0.222-2.205,0.66
			c-0.105,0.069-6.612,4.245-19.147,7.508c-3.369,0.877-7.173,1.687-11.407,2.334c-1.229,0.188-2.492,0.361-3.794,0.52
			c-4.963,0.603-10.442,0.974-16.443,0.974s-11.479-0.371-16.442-0.974c-1.302-0.157-2.565-0.332-3.795-0.52
			c-4.234-0.647-8.038-1.457-11.406-2.334c-12.535-3.262-19.039-7.437-19.138-7.501c-0.669-0.446-1.442-0.671-2.219-0.671
			c-0.646,0-1.296,0.156-1.888,0.473c-1.301,0.695-2.112,2.051-2.112,3.526v118c0,0.121,0.006,0.242,0.017,0.362
			c0.4,4.401,6.753,14.638,56.983,14.638s56.583-10.236,56.983-14.638c0.011-0.12,0.017-0.241,0.017-0.362v-118
			C532.471,319.973,531.659,318.625,530.365,317.927z"/>
	</g>
</g>
</svg>
