<?xml version="1.0" encoding="utf-8"?>
<!-- Generator: Adobe Illustrator 15.0.0, SVG Export Plug-In . SVG Version: 6.00 Build 0)  -->
<!DOCTYPE svg PUBLIC "-//W3C//DTD SVG 1.1//EN" "http://www.w3.org/Graphics/SVG/1.1/DTD/svg11.dtd">
<svg version="1.1" xmlns="http://www.w3.org/2000/svg" xmlns:xlink="http://www.w3.org/1999/xlink" x="0px" y="0px" width="580px"
	 height="580px" viewBox="0 0 580 580" enable-background="new 0 0 580 580" xml:space="preserve">
<g id="Layer_2_1_">
	<g id="Layer_2">
		<g id="g1327">
			<path id="path1329" fill="#111111" stroke="#EEEEEE" stroke-width="3.408" d="M66.275,1.768
				c-41.335,0-64.571,21.371-64.571,65.036v450.123c0,40.844,20.895,62.229,62.192,62.229h452.024
				c41.307,0,62.229-20.315,62.229-62.229V66.804c0-42.602-20.923-65.036-63.521-65.036C514.625,1.768,66.133,1.625,66.275,1.768z"
				/>
		</g>
	</g>
</g>
<g id="Layer_1">
	<g>
		<polygon fill="#FFFFFF" points="89.523,533.047 84.936,531.634 163.318,260.745 179.372,265.688 		"/>
		<path fill="#FFFFFF" d="M209.015,60.704l-70.362,96.305c-11.727,16.051-7.144,37.153,10.184,46.895l96.428,54.208
			c17.329,9.742,41.1,4.579,52.828-11.472l14.54-19.9l150.328,117.416c8.917,6.966,21.559,5.208,28.23-3.928
			c6.671-9.129,4.506-21.705-4.843-28.086L328.797,204.617l16.738-22.91c11.726-16.051,9.149-39.971-5.726-53.156l-82.425-73.057
			C242.509,42.308,220.742,44.654,209.015,60.704z"/>
	</g>
</g>
</svg>
