<?xml version="1.0" encoding="utf-8"?>
<!-- Generator: Adobe Illustrator 15.0.0, SVG Export Plug-In . SVG Version: 6.00 Build 0)  -->
<!DOCTYPE svg PUBLIC "-//W3C//DTD SVG 1.1//EN" "http://www.w3.org/Graphics/SVG/1.1/DTD/svg11.dtd">
<svg version="1.1" xmlns="http://www.w3.org/2000/svg" xmlns:xlink="http://www.w3.org/1999/xlink" x="0px" y="0px" width="580px"
	 height="580px" viewBox="0 0 580 580" enable-background="new 0 0 580 580" xml:space="preserve">
<g id="Layer_2_1_">
	<g id="Layer_2">
		<g id="g1327">
			<path id="path1329" fill="#111111" stroke="#EEEEEE" stroke-width="3.408" d="M66.275,1.768
				c-41.335,0-64.571,21.371-64.571,65.036v450.123c0,40.844,20.895,62.229,62.192,62.229h452.024
				c41.307,0,62.229-20.315,62.229-62.229V66.804c0-42.602-20.923-65.036-63.521-65.036C514.625,1.768,66.133,1.625,66.275,1.768z"
				/>
		</g>
	</g>
</g>
<g id="Layer_1">
	<g>
		<path fill="#FFFFFF" d="M227.367,332.174c65.301-46.256,107.93-18.141,107.93-18.141c5.299-9.186,11.201-16.861,17.447-23.283
			l127.281,223.809c1.043,1.836,2.961,2.865,4.93,2.865c0.949,0,1.912-0.238,2.797-0.742c2.719-1.547,3.672-5.004,2.125-7.725
			L361.299,282.87c40.746-33.408,91-21.442,91-21.442c22.676-43.536,65.305-51.699,65.305-51.699
			c-77.648-62.779-204.98-22.428-204.98-22.428c-105.209,34.712-130.606,131.267-130.606,131.267
			C216.482,311.312,227.367,332.174,227.367,332.174z"/>
		<circle fill="#FFFFFF" cx="151.693" cy="151.873" r="40.591"/>
		<rect x="148.969" y="62.575" fill="#FFFFFF" width="5.449" height="43.691"/>
		
			<rect x="196.665" y="82.333" transform="matrix(0.7072 0.707 -0.707 0.7072 132.0235 -110.4642)" fill="#FFFFFF" width="5.449" height="43.689"/>
		<rect x="197.3" y="149.15" fill="#FFFFFF" width="43.689" height="5.447"/>
		
			<rect x="177.544" y="196.845" transform="matrix(0.7071 0.7071 -0.7071 0.7071 199.5073 -82.5375)" fill="#FFFFFF" width="43.691" height="5.447"/>
		<rect x="148.969" y="197.479" fill="#FFFFFF" width="5.449" height="43.69"/>
		
			<rect x="82.152" y="196.844" transform="matrix(-0.7071 0.7071 -0.7071 -0.7071 318.6481 267.1543)" fill="#FFFFFF" width="43.691" height="5.449"/>
		<rect x="62.396" y="149.149" fill="#FFFFFF" width="43.69" height="5.447"/>
		
			<rect x="82.153" y="101.453" transform="matrix(0.7071 0.7071 -0.7071 0.7071 104.1189 -43.0247)" fill="#FFFFFF" width="43.69" height="5.448"/>
	</g>
</g>
</svg>
