<?xml version="1.0" encoding="utf-8"?>
<!-- Generator: Adobe Illustrator 15.0.0, SVG Export Plug-In . SVG Version: 6.00 Build 0)  -->
<!DOCTYPE svg PUBLIC "-//W3C//DTD SVG 1.1//EN" "http://www.w3.org/Graphics/SVG/1.1/DTD/svg11.dtd">
<svg version="1.1" xmlns="http://www.w3.org/2000/svg" xmlns:xlink="http://www.w3.org/1999/xlink" x="0px" y="0px" width="580px"
	 height="580px" viewBox="0 0 580 580" enable-background="new 0 0 580 580" xml:space="preserve">
<g id="Layer_2_1_">
	<g id="Layer_2">
		<g id="g1327">
			<path id="path1329" fill="#111111" stroke="#EEEEEE" stroke-width="3.408" d="M66.275,1.768
				c-41.335,0-64.571,21.371-64.571,65.036v450.123c0,40.844,20.895,62.229,62.192,62.229h452.024
				c41.307,0,62.229-20.315,62.229-62.229V66.804c0-42.602-20.923-65.036-63.521-65.036C514.625,1.768,66.133,1.625,66.275,1.768z"
				/>
		</g>
	</g>
</g>
<g id="Layer_1">
	<g>
		<polygon fill="#FFFFFF" points="404.832,364.089 231.597,452.445 220.952,338.885 151.713,338.885 132.026,503.229 
			72.084,533.802 532.303,533.802 532.303,425.581 		"/>
		<path fill="#FFFFFF" d="M317.802,285.639c-0.361-37.254-11.075-66.695-30.983-85.139c-27.652-25.62-72.367-30.811-133.141-15.574
			l12.581-7.95l-30.073,9.837l21.705-23.023l-26.683,17.006l15.297-27.698l-21.615,23.108l7.929-30.632l-15.189,27.757l0.062-31.642
			l-7.81,30.663l-7.809-30.663l0.061,31.642l-15.189-27.757l7.929,30.632l-21.615-23.108l15.298,27.698L61.872,163.79l21.705,23.023
			l-30.073-9.837l26.749,16.902l-31.575-2.048l30.111,9.719l-31.093,5.869l31.583,1.926L50.623,222.76l31.07-5.989l-24.42,20.121
			l28.604-13.527l-18.649,25.562l24.341-20.216l-11.705,29.396l18.549-25.635l-4.026,31.385l11.591-29.442l3.904,31.399
			l3.905-31.399l11.591,29.442l-4.027-31.385l18.549,25.635l-11.705-29.396l24.341,20.216l-18.648-25.562l28.604,13.527
			l-24.419-20.121l31.069,5.989l-28.656-13.416l31.583-1.926l-31.093-5.869l30.112-9.719l-12.293,0.797
			c56.141-13.6,97.126-8.847,122.078,14.254c44.05,40.781,23.277,126.564,23.063,127.426l8.463,2.116
			C312.629,335.497,318.073,313.412,317.802,285.639z"/>
		<path fill="#FFFFFF" d="M371.288,53.052l21.823,35.206l-67.736,41.988L303.552,95.04l-11.059,6.855l149.958,241.912l11.058-6.855
			l-21.822-35.204l67.736-41.987l21.822,35.205l11.059-6.855L382.345,46.197L371.288,53.052z M397.681,95.63l20.864,33.66
			l-67.736,41.988l-20.865-33.659L397.681,95.63z M376.246,212.311l-20.866-33.66l67.736-41.989l20.866,33.66L376.246,212.311z
			 M448.552,177.695l20.864,33.66l-67.736,41.988l-20.865-33.66L448.552,177.695z M427.116,294.376l-20.865-33.659l67.736-41.988
			l20.865,33.659L427.116,294.376z"/>
	</g>
</g>
</svg>
