<?xml version="1.0" encoding="utf-8"?>
<!-- Generator: Adobe Illustrator 15.0.0, SVG Export Plug-In . SVG Version: 6.00 Build 0)  -->
<!DOCTYPE svg PUBLIC "-//W3C//DTD SVG 1.1//EN" "http://www.w3.org/Graphics/SVG/1.1/DTD/svg11.dtd">
<svg version="1.1" xmlns="http://www.w3.org/2000/svg" xmlns:xlink="http://www.w3.org/1999/xlink" x="0px" y="0px" width="580px"
	 height="580px" viewBox="0 0 580 580" enable-background="new 0 0 580 580" xml:space="preserve">
<g id="Layer_2_1_">
	<g id="Layer_2">
		<g id="g1327">
			<path id="path1329" fill="#111111" stroke="#EEEEEE" stroke-width="3.408" d="M66.275,1.768
				c-41.335,0-64.571,21.371-64.571,65.036v450.123c0,40.844,20.895,62.229,62.192,62.229h452.024
				c41.307,0,62.229-20.315,62.229-62.229V66.804c0-42.602-20.923-65.036-63.521-65.036C514.625,1.768,66.133,1.625,66.275,1.768z"
				/>
		</g>
	</g>
</g>
<g id="Layer_1">
	<g id="Grass_4">
	</g>
	<path fill="#FFFFFF" d="M351.625,386.688l1.601,17.003l31.345-39.087l-49.868,4.825l13.35,10.649l-50.948,27.548V275.652
		l65.453-0.257l-6.616,15.745l46.087-19.656l-46.24-19.293l6.74,15.692l-48.377,0.189c-5.27-3.294-13.383-3.744-17.047-8.644
		c-3.697-19.592,9.864-18.667,18.245-28.977c2.276-2.799,2.92-7.039,4.293-8.585c5.096-5.739,13.753-8.497,19.317-13.952
		c8.259-8.094,12.118-16.629,17.172-25.757c2.188,0.599,2.104,3.229,4.293,1.073c3.729-15.511,6.509-37.524,2.146-54.734
		c4.427-0.134,6.721,1.866,11.806,1.073c10.017-7.01,1.243-16.554,0-26.831c0.836-0.237,1.247-0.899,1.073-2.146
		c2.904-2.819,9.316-2.131,15.023-2.146c0.281-6.004-5.367-6.079-5.365-11.806c6.373-1.954,8.855-8.201,7.512-12.878
		c-1.537-5.355-7.029-2.363-11.805-6.439c-5.026-4.292-3.646-12.48-8.585-10.732c-10.646,6.748-35.772-11.882-33.271,9.659
		c0.998,8.587,9.982,8.493,16.099,13.952c-16.786,11.833-40.927,16.31-41.855,44.002c1.207,4.135,4.161-4.136,5.366,0
		c-0.229,21.617-33.097,39.108-44.002,17.171c-10.841-21.808-18.253-50.893-48.295-54.734
		c-28.364-3.627-48.005,16.899-48.295,47.222c-0.293,30.787,15.761,47.369,36.49,61.174c-6.344-7.867-11.573-30.699-4.293-41.855
		c1.761,16.126,4.988,30.786,12.878,40.782c0.436-5.123-3.127-11.85,0-16.099c4.186,6.547,3.343,18.123,10.732,21.465
		c-0.742-2.807-0.698-9.533,2.146-11.806c5.226,6.58,7.746,15.865,12.879,22.538c4.01,1.148,3.059-2.665,6.439-2.146
		c9.75,14.576,31.112,17.541,27.904,45.076c-4.274,2.165-10.132,2.747-11.805,7.512c2.436-0.711,9-2.774,9.659,1.073
		c-2.542,3.054-5.839,5.182-9.727,6.666l-79.113,0.31l0.029,7.513l95.25-0.374v131.005l-47.217-32.03l14.352-9.259l-49.136-9.8
		l27.27,42.032l3.297-16.756l49.036,33.264l-52.123,28.183l-1.602-17.001l-31.346,39.087l49.871-4.827l-13.35-10.649l50.947-27.548
		v103.125h9.659V422.325l47.216,32.028l-14.351,9.26l49.135,9.8l-27.268-42.032l-3.299,16.756l-49.036-33.265L351.625,386.688z"/>
</g>
</svg>
