<?xml version="1.0" encoding="utf-8"?>
<!-- Generator: Adobe Illustrator 15.0.0, SVG Export Plug-In . SVG Version: 6.00 Build 0)  -->
<!DOCTYPE svg PUBLIC "-//W3C//DTD SVG 1.1//EN" "http://www.w3.org/Graphics/SVG/1.1/DTD/svg11.dtd">
<svg version="1.1" xmlns="http://www.w3.org/2000/svg" xmlns:xlink="http://www.w3.org/1999/xlink" x="0px" y="0px" width="580px"
	 height="580px" viewBox="0 0 580 580" enable-background="new 0 0 580 580" xml:space="preserve">
<g id="Layer_2_1_">
	<g id="Layer_2">
		<g id="g1327">
			<path id="path1329" fill="#111111" stroke="#EEEEEE" stroke-width="3.408" d="M66.275,1.768
				c-41.335,0-64.571,21.371-64.571,65.036v450.123c0,40.844,20.895,62.229,62.192,62.229h452.024
				c41.307,0,62.229-20.315,62.229-62.229V66.804c0-42.602-20.923-65.036-63.521-65.036C514.625,1.768,66.133,1.625,66.275,1.768z"
				/>
		</g>
	</g>
</g>
<g id="Layer_1">
	<g id="Grass_4">
	</g>
	<g>
		<g>
			<path fill="#FFFFFF" d="M150.041,521.252c-0.681-0.408-1.325-0.826-1.977-1.242c-0.662-0.402-1.321-0.795-1.988-1.225
				L150.041,521.252z"/>
			<path fill="#FFFFFF" d="M398.696,77.601l10.192,6.344L264.126,316.513l-13.59-8.46c0,0-56.278,76.529-97.681,90.036
				c0,0-67.202,82.034-4.79,121.92c63.341,38.39,107.279-58.126,107.279-58.126c-6.16-43.113,37.659-127.396,37.659-127.396
				l-16.419-10.22L421.344,91.699l8.494,5.287l28.646-46.021l-50.438,11.613L398.696,77.601z"/>
		</g>
	</g>
</g>
</svg>
