<?xml version="1.0" encoding="utf-8"?>
<!-- Generator: Adobe Illustrator 15.0.0, SVG Export Plug-In . SVG Version: 6.00 Build 0)  -->
<!DOCTYPE svg PUBLIC "-//W3C//DTD SVG 1.1//EN" "http://www.w3.org/Graphics/SVG/1.1/DTD/svg11.dtd">
<svg version="1.1" xmlns="http://www.w3.org/2000/svg" xmlns:xlink="http://www.w3.org/1999/xlink" x="0px" y="0px" width="580px"
	 height="580px" viewBox="0 0 580 580" enable-background="new 0 0 580 580" xml:space="preserve">
<g id="Layer_2_1_">
	<g id="Layer_2">
		<g id="g1327">
			<path id="path1329" fill="#111111" stroke="#EEEEEE" stroke-width="3.408" d="M66.275,1.768
				c-41.335,0-64.571,21.371-64.571,65.036v450.123c0,40.844,20.895,62.229,62.192,62.229h452.024
				c41.307,0,62.229-20.315,62.229-62.229V66.804c0-42.602-20.923-65.036-63.521-65.036C514.625,1.768,66.133,1.625,66.275,1.768z"
				/>
		</g>
	</g>
</g>
<g id="Layer_1">
	<g id="Grass_4">
	</g>
	<g>
		<path fill="#FFFFFF" d="M203.603,531.132l14.772-3.884c7.098-3.027,13.613-7.435,19.208-13.078
			c8.877-8.955,13.736-20.83,13.68-33.433c-0.053-12.609-5.015-24.44-13.968-33.316c-6.94-6.88-16.145-10.646-25.917-10.606
			c-4.268,0.021-8.423,0.764-12.321,2.175l-0.059,0.028l-0.002-0.005c-5.002,1.821-9.583,4.74-13.441,8.633
			c-10.91,11.001-10.833,28.828,0.169,39.736c4.042,4.007,9.402,6.2,15.095,6.176c3.027-0.014,5.943-0.67,8.622-1.871
			c2.363-1.061,4.541-2.541,6.419-4.435c6.162-6.211,6.121-16.286-0.095-22.452c-4.516-4.475-11.832-4.443-16.308,0.071
			c-1.512,1.525-2.344,3.552-2.333,5.704c0.007,2.15,0.854,4.169,2.382,5.683c2.066,2.048,5.411,2.034,7.458-0.032l4.156,4.124
			c0,0-4.582,9.313-17.126,4.987c-4.99-1.72-8.557-9.433-8.578-14.71c-0.022-5.28,2.013-10.252,5.727-13.999
			c9.023-9.099,23.765-9.162,32.865-0.143c5.231,5.188,8.13,12.104,8.162,19.472c0.031,7.366-2.809,14.307-7.996,19.538
			c-4.613,4.65-10.368,7.76-16.638,9.067c-2.168,0.452-4.399,0.692-6.666,0.703c-8.818,0.037-17.126-3.359-23.388-9.569
			c-7.55-7.488-11.733-17.467-11.779-28.099c-0.047-10.632,4.052-20.646,11.538-28.196c4.983-5.026,10.881-8.814,17.317-11.227
			l140.903-64.3l17.835-8.14l29.466-13.446l10.106-4.612l0.517,1.134l0.369-2.875l35.123-273.833L141.388,48.781l12.31,360.805
			c0.354,21.172,0.21,42.42,0.065,56.994C153.065,536.323,203.603,531.132,203.603,531.132z"/>
		<path fill="#FFFFFF" d="M245.539,439.107c11.173,11.077,17.363,25.843,17.432,41.578c0.063,14.288-4.934,27.821-14.146,38.554
			l167.439-44.027c20.602-32.008,27.003-60.077,19.023-83.439c-8.007-23.449-28.762-36.644-40.063-42.303L225.197,427.06
			C232.791,429.289,239.76,433.379,245.539,439.107z"/>
	</g>
</g>
</svg>
