<?xml version="1.0" encoding="utf-8"?>
<!-- Generator: Adobe Illustrator 15.0.0, SVG Export Plug-In . SVG Version: 6.00 Build 0)  -->
<!DOCTYPE svg PUBLIC "-//W3C//DTD SVG 1.1//EN" "http://www.w3.org/Graphics/SVG/1.1/DTD/svg11.dtd">
<svg version="1.1" xmlns="http://www.w3.org/2000/svg" xmlns:xlink="http://www.w3.org/1999/xlink" x="0px" y="0px" width="580px"
	 height="580px" viewBox="0 0 580 580" enable-background="new 0 0 580 580" xml:space="preserve">
<g id="Layer_2_1_">
	<g id="Layer_2">
		<g id="g1327">
			<path id="path1329" fill="#111111" stroke="#EEEEEE" stroke-width="3.408" d="M66.275,1.768
				c-41.335,0-64.571,21.371-64.571,65.036v450.123c0,40.844,20.895,62.229,62.192,62.229h452.024
				c41.307,0,62.229-20.315,62.229-62.229V66.804c0-42.602-20.923-65.036-63.521-65.036C514.625,1.768,66.133,1.625,66.275,1.768z"
				/>
		</g>
	</g>
</g>
<g id="Layer_1">
	<g id="Grass_4">
	</g>
	<g>
		<path fill="#FFFFFF" d="M220.458,450.031v98.705h140.993v-98.705c-21.695,10.543-45.666,16.119-70.496,16.119
			C266.124,466.15,242.153,460.574,220.458,450.031z"/>
		<path fill="#FFFFFF" d="M361.451,159.285V31.263H220.458v128.022c21.695-10.542,45.666-16.12,70.497-16.12
			C315.785,143.166,339.756,148.743,361.451,159.285z"/>
		<path fill="#FFFFFF" d="M475.535,279.159h-8.498c-7.18,0-13,5.82-13,13v24.998c0,7.18,5.82,13,13,13h8.498c7.18,0,13-5.82,13-13
			V292.16C488.535,284.98,482.715,279.159,475.535,279.159z"/>
		<path fill="#FFFFFF" d="M361.451,173.938c-20.975-11.334-44.982-17.772-70.496-17.772s-49.523,6.438-70.497,17.773
			c-46.443,25.1-77.996,74.224-77.996,130.719c0,56.496,31.553,105.621,77.996,130.721c20.974,11.334,44.983,17.771,70.497,17.771
			s49.521-6.438,70.496-17.771c46.443-25.1,77.996-74.225,77.996-130.721C439.447,248.161,407.894,199.037,361.451,173.938z
			 M327.318,353.295l-43.937-43.939V189.158h15v113.984l39.545,39.545L327.318,353.295z"/>
	</g>
</g>
</svg>
