<?xml version="1.0" encoding="UTF-8" standalone="no"?>
<!-- Generator: Adobe Illustrator 15.0.0, SVG Export Plug-In . SVG Version: 6.00 Build 0)  -->

<svg
   xmlns:dc="http://purl.org/dc/elements/1.1/"
   xmlns:cc="http://creativecommons.org/ns#"
   xmlns:rdf="http://www.w3.org/1999/02/22-rdf-syntax-ns#"
   xmlns:svg="http://www.w3.org/2000/svg"
   xmlns="http://www.w3.org/2000/svg"
   xmlns:sodipodi="http://sodipodi.sourceforge.net/DTD/sodipodi-0.dtd"
   xmlns:inkscape="http://www.inkscape.org/namespaces/inkscape"
   version="1.1"
   x="0px"
   y="0px"
   width="580px"
   height="580px"
   viewBox="0 0 580 580"
   enable-background="new 0 0 580 580"
   xml:space="preserve"
   id="svg2384"
   sodipodi:docname="bay.svg"
   inkscape:version="0.92.3 (2405546, 2018-03-11)"><metadata
   id="metadata2390"><rdf:RDF><cc:Work
       rdf:about=""><dc:format>image/svg+xml</dc:format><dc:type
         rdf:resource="http://purl.org/dc/dcmitype/StillImage" /><dc:title></dc:title></cc:Work></rdf:RDF></metadata><defs
   id="defs2388">
	

		
		
		
		
		
		
		
		
	</defs><sodipodi:namedview
   pagecolor="#ffffff"
   bordercolor="#666666"
   borderopacity="1"
   objecttolerance="10"
   gridtolerance="10"
   guidetolerance="10"
   inkscape:pageopacity="0"
   inkscape:pageshadow="2"
   inkscape:window-width="1353"
   inkscape:window-height="968"
   id="namedview2386"
   showgrid="false"
   inkscape:zoom="1.1575153"
   inkscape:cx="217.54621"
   inkscape:cy="290"
   inkscape:window-x="351"
   inkscape:window-y="82"
   inkscape:window-maximized="0"
   inkscape:current-layer="g2522" />
<g
   id="Layer_2">
	<g
   id="g1327">
		<path
   id="path1329"
   d="M66.275,1.768    c-41.335,0-64.571,21.371-64.571,65.036v450.123c0,40.844,20.894,62.229,62.192,62.229H515.92    c41.307,0,62.229-20.316,62.229-62.229V66.804c0-42.601-20.923-65.036-63.522-65.036C514.624,1.768,66.133,1.625,66.275,1.768z"
   stroke-width="3.408"
   stroke="#EEEEEE"
   fill="#111111" />
	</g>
</g>

<g
   id="g2522"
   transform="translate(15.318977,4.3089297)"><path
     sodipodi:nodetypes="csccsscc"
     style="fill:#ffffff;stroke-width:1.40613616"
     inkscape:connector-curvature="0"
     id="path2365"
     d="m 44.685228,47.267315 c 0,0 -1.51509,-12.322794 -0.73556,155.089785 0.677868,145.57951 -0.305869,159.31239 0.228927,314.84289 l 457.456835,2.59176 c 0,0 -294.42602,-3.92237 -357.97481,-49.28231 C 60.947672,411.47048 96.395155,245.20549 206.05061,148.38322 292.09515,72.408623 395.73323,51.809307 500.68051,45.539477 Z" /><g
     id="g2444"
     transform="matrix(0.88547222,0,0,0.50724863,37.16,167.06847)"><path
       style="fill:#ffffff;stroke-width:1.06607115"
       inkscape:connector-curvature="0"
       id="path2430"
       d="M 465.63981,68.885 C 446.99994,68.943 428.42372,58.019 410.16914,57.782 391.6577,57.37 374.11002,67.47 356.81919,67.349 339.78635,67.056 324.68103,56.304 307.77661,56.776 290.42101,57.37 271.39473,69.18 254.42667,69.889 237.33018,70.126 221.83845,58.905 206.73426,58.785 c -12.91073,-0.2 -27.14549,5.824 -37.45247,8.821 7.76462,7.996 15.05645,16.205 21.89936,24.592 5.17793,-1.29 10.46724,-2.188 15.55311,-2.109 15.10532,0.119 30.59592,11.34 47.69241,11.102 16.9692,-0.588 35.99547,-12.697 53.34994,-13.111 16.90442,-0.59 32.00861,10.396 49.04258,10.631 17.29197,0.12 34.83851,-9.92 53.34995,-9.625 18.25458,0.234 36.82967,11.159 55.47067,11.104 14.05973,-0.273 27.55235,-7.186 41.69619,-10.441 V 58.445 c -14.1427,3.255 -27.63532,10.167 -41.69619,10.44 z" /><path
       d="m 465.63981,136.27072 c -18.63987,0.058 -37.21609,-10.866 -55.47067,-11.103 -18.51144,-0.412 -36.05912,9.688 -53.34995,9.567 -17.03284,-0.293 -32.13816,-11.045 -49.04258,-10.573 -17.3556,0.594 -36.38188,12.404 -53.34994,13.113 -17.09649,0.237 -32.58822,-10.984 -47.69241,-11.104 -12.91073,-0.2 -27.14549,5.824 -37.45247,8.821 7.76462,7.996 15.05645,16.205 21.89936,24.592 5.17793,-1.29 10.46724,-2.188 15.55311,-2.109 15.10532,0.119 30.59592,11.34 47.69241,11.102 16.9692,-0.588 35.99547,-12.697 53.34994,-13.111 16.90442,-0.59 32.00861,10.396 49.04258,10.631 17.29197,0.12 34.83851,-9.92 53.34995,-9.625 18.25458,0.234 36.82967,11.159 55.47067,11.104 14.05973,-0.273 27.55235,-7.186 41.69619,-10.441 v -31.304 c -14.1427,3.255 -27.63532,10.167 -41.69619,10.44 z"
       id="path2432"
       inkscape:connector-curvature="0"
       style="fill:#ffffff;stroke-width:1.06607115" /><path
       style="fill:#ffffff;stroke-width:1.06607115"
       inkscape:connector-curvature="0"
       id="path2434"
       d="m 465.63981,201.9286 c -18.63987,0.058 -37.21609,-10.866 -55.47067,-11.103 -18.51144,-0.412 -36.05912,9.688 -53.34995,9.567 -17.03284,-0.293 -32.13816,-11.045 -49.04258,-10.573 -17.3556,0.594 -36.38188,12.404 -53.34994,13.113 -17.09649,0.237 -32.58822,-10.984 -47.69241,-11.104 -12.91073,-0.2 -27.14549,5.824 -37.45247,8.821 7.76462,7.996 15.05645,16.205 21.89936,24.592 5.17793,-1.29 10.46724,-2.188 15.55311,-2.109 15.10532,0.119 30.59592,11.34 47.69241,11.102 16.9692,-0.588 35.99547,-12.697 53.34994,-13.111 16.90442,-0.59 32.00861,10.396 49.04258,10.631 17.29197,0.12 34.83851,-9.92 53.34995,-9.625 18.25458,0.234 36.82967,11.159 55.47067,11.104 14.05973,-0.273 27.55235,-7.186 41.69619,-10.441 v -31.304 c -14.1427,3.255 -27.63532,10.167 -41.69619,10.44 z" /><path
       d="m 465.63981,268.4504 c -18.63987,0.058 -37.21609,-10.866 -55.47067,-11.103 -18.51144,-0.412 -36.05912,9.688 -53.34995,9.567 -17.03284,-0.293 -32.13816,-11.045 -49.04258,-10.573 -17.3556,0.594 -36.38188,12.404 -53.34994,13.113 -17.09649,0.237 -32.58822,-10.984 -47.69241,-11.104 -12.91073,-0.2 -27.14549,5.824 -37.45247,8.821 7.76462,7.996 15.05645,16.205 21.89936,24.592 5.17793,-1.29 10.46724,-2.188 15.55311,-2.109 15.10532,0.119 30.59592,11.34 47.69241,11.102 16.9692,-0.588 35.99547,-12.697 53.34994,-13.111 16.90442,-0.59 32.00861,10.396 49.04258,10.631 17.29197,0.12 34.83851,-9.92 53.34995,-9.625 18.25458,0.234 36.82967,11.159 55.47067,11.104 14.05973,-0.273 27.55235,-7.186 41.69619,-10.441 v -31.304 c -14.1427,3.255 -27.63532,10.167 -41.69619,10.44 z"
       id="path2436"
       inkscape:connector-curvature="0"
       style="fill:#ffffff;stroke-width:1.06607115" /><path
       style="fill:#ffffff;stroke-width:1.06607115"
       inkscape:connector-curvature="0"
       id="path2438"
       d="m 465.63981,336.70003 c -18.63987,0.058 -37.21609,-10.866 -55.47067,-11.103 -18.51144,-0.412 -36.05912,9.688 -53.34995,9.567 -17.03284,-0.293 -32.13816,-11.045 -49.04258,-10.573 -17.3556,0.594 -36.38188,12.404 -53.34994,13.113 -17.09649,0.237 -32.58822,-10.984 -47.69241,-11.104 -12.91073,-0.2 -27.14549,5.824 -37.45247,8.821 7.76462,7.996 15.05645,16.205 21.89936,24.592 5.17793,-1.29 10.46724,-2.188 15.55311,-2.109 15.10532,0.119 30.59592,11.34 47.69241,11.102 16.9692,-0.588 35.99547,-12.697 53.34994,-13.111 16.90442,-0.59 32.00861,10.396 49.04258,10.631 17.29197,0.12 34.83851,-9.92 53.34995,-9.625 18.25458,0.234 36.82967,11.159 55.47067,11.104 14.05973,-0.273 27.55235,-7.186 41.69619,-10.441 v -31.304 c -14.1427,3.255 -27.63532,10.167 -41.69619,10.44 z" /><path
       d="m 465.63981,403.22183 c -18.63987,0.058 -37.21609,-10.866 -55.47067,-11.103 -18.51144,-0.412 -36.05912,9.688 -53.34995,9.567 -17.03284,-0.293 -32.13816,-11.045 -49.04258,-10.573 -17.3556,0.594 -36.38188,12.404 -53.34994,13.113 -17.09649,0.237 -32.58822,-10.984 -47.69241,-11.104 -12.91073,-0.2 -27.14549,5.824 -37.45247,8.821 7.76462,7.996 15.05645,16.205 21.89936,24.592 5.17793,-1.29 10.46724,-2.188 15.55311,-2.109 15.10532,0.119 30.59592,11.34 47.69241,11.102 16.9692,-0.588 35.99547,-12.697 53.34994,-13.111 16.90442,-0.59 32.00861,10.396 49.04258,10.631 17.29197,0.12 34.83851,-9.92 53.34995,-9.625 18.25458,0.234 36.82967,11.159 55.47067,11.104 14.05973,-0.273 27.55235,-7.186 41.69619,-10.441 v -31.304 c -14.1427,3.255 -27.63532,10.167 -41.69619,10.44 z"
       id="path2440"
       inkscape:connector-curvature="0"
       style="fill:#ffffff;stroke-width:1.06607115" /><path
       style="fill:#ffffff;stroke-width:1.06607115"
       inkscape:connector-curvature="0"
       id="path2442"
       d="m 465.63981,467.15187 c -18.63987,0.058 -37.21609,-10.866 -55.47067,-11.103 -18.51144,-0.412 -36.05912,9.688 -53.34995,9.567 -17.03284,-0.293 -32.13816,-11.045 -49.04258,-10.573 -17.3556,0.594 -36.38188,12.404 -53.34994,13.113 -17.09649,0.237 -32.58822,-10.984 -47.69241,-11.104 -12.91073,-0.2 -27.14549,5.824 -37.45247,8.821 7.76462,7.996 15.05645,16.205 21.89936,24.592 5.17793,-1.29 10.46724,-2.188 15.55311,-2.109 15.10532,0.119 30.59592,11.34 47.69241,11.102 16.9692,-0.588 35.99547,-12.697 53.34994,-13.111 16.90442,-0.59 32.00861,10.396 49.04258,10.631 17.29197,0.12 34.83851,-9.92 53.34995,-9.625 18.25458,0.234 36.82967,11.159 55.47067,11.104 14.05973,-0.273 27.55235,-7.186 41.69619,-10.441 v -31.304 c -14.1427,3.255 -27.63532,10.167 -41.69619,10.44 z" /></g></g></svg>