<?xml version="1.0" encoding="utf-8"?>
<!-- Generator: Adobe Illustrator 15.0.0, SVG Export Plug-In . SVG Version: 6.00 Build 0)  -->
<!DOCTYPE svg PUBLIC "-//W3C//DTD SVG 1.1//EN" "http://www.w3.org/Graphics/SVG/1.1/DTD/svg11.dtd">
<svg version="1.1" xmlns="http://www.w3.org/2000/svg" xmlns:xlink="http://www.w3.org/1999/xlink" x="0px" y="0px" width="580px"
	 height="580px" viewBox="0 0 580 580" enable-background="new 0 0 580 580" xml:space="preserve">
<g id="Layer_2_1_">
	<g id="Layer_2">
		<g id="g1327">
			<path id="path1329" fill="#111111" stroke="#EEEEEE" stroke-width="3.408" d="M66.275,1.768
				c-41.335,0-64.571,21.371-64.571,65.036v450.123c0,40.844,20.895,62.229,62.192,62.229h452.024
				c41.307,0,62.229-20.315,62.229-62.229V66.804c0-42.602-20.923-65.036-63.521-65.036C514.625,1.768,66.133,1.625,66.275,1.768z"
				/>
		</g>
	</g>
</g>
<g id="Layer_1">
	<g>
		<g>
			<path fill="#FFFFFF" d="M440.94,212.898l-9.631-80.021c-0.309-12.839-10.852-23.19-23.765-23.19h-79.539l-3.237-9.769
				c0-8.316-6.739-15.057-15.055-15.057h-32.883c-8.315,0-15.055,6.74-15.055,15.057l-2.238,9.769h-80.204
				c-12.913,0-23.455,10.351-23.765,23.19l-9.632,80.021c-20.699,8.613-8.165,27.994-8.165,27.994l64.181,109.345h182.972
				l64.182-109.345C449.107,240.892,461.64,221.51,440.94,212.898z M172.995,133.46c0-3.498,2.844-6.34,6.339-6.34h228.21
				c3.494,0,6.34,2.843,6.34,6.34v0.522l8.681,72.134c-41.015-15.029-129.126-47.231-129.126-47.231s-88.113,32.203-129.127,47.231
				l8.684-72.134V133.46z"/>
			<path fill="#FFFFFF" d="M285.139,139.006h-85.485c-6.834,0-12.375,5.54-12.375,12.373l-4.186,34.786
				c34.802-12.739,82.936-30.337,102.046-37.321V139.006z"/>
			<path fill="#FFFFFF" d="M399.598,151.379c0-6.833-5.539-12.373-12.374-12.373H301.74v9.838
				c19.112,6.986,67.245,24.581,102.046,37.32L399.598,151.379z"/>
		</g>
		<path fill="#FFFFFF" d="M71.208,489.427c-0.981,4.016-5.031,6.477-9.047,5.497l0,0c-4.016-0.98-6.477-5.031-5.497-9.047
			l55.709-228.219c0.981-4.016,5.031-6.478,9.047-5.497l0,0c4.017,0.981,6.477,5.032,5.497,9.047L71.208,489.427z"/>
		<path fill="#FFFFFF" d="M508.792,489.427c0.98,4.016,5.03,6.477,9.046,5.497l0,0c4.018-0.98,6.478-5.031,5.497-9.047
			l-55.709-228.219c-0.98-4.016-5.031-6.478-9.047-5.497l0,0c-4.017,0.981-6.477,5.032-5.497,9.047L508.792,489.427z"/>
		<path fill="#FFFFFF" d="M433.364,489.427c0.98,4.016,5.03,6.477,9.046,5.497l0,0c4.018-0.98,6.479-5.031,5.497-9.047
			l-36.742-134.56c-0.98-4.016-5.031-6.478-9.047-5.497l0,0c-4.016,0.981-6.477,5.031-5.497,9.048L433.364,489.427z"/>
		<path fill="#FFFFFF" d="M153.727,489.427c-0.98,4.016-5.03,6.477-9.046,5.497l0,0c-4.017-0.98-6.478-5.031-5.497-9.047
			l36.742-134.56c0.98-4.016,5.031-6.478,9.047-5.497l0,0c4.016,0.981,6.476,5.031,5.497,9.048L153.727,489.427z"/>
	</g>
</g>
</svg>
