<?xml version="1.0" encoding="utf-8"?>
<!-- Generator: Adobe Illustrator 15.0.0, SVG Export Plug-In . SVG Version: 6.00 Build 0)  -->
<!DOCTYPE svg PUBLIC "-//W3C//DTD SVG 1.1//EN" "http://www.w3.org/Graphics/SVG/1.1/DTD/svg11.dtd">
<svg version="1.1" xmlns="http://www.w3.org/2000/svg" xmlns:xlink="http://www.w3.org/1999/xlink" x="0px" y="0px" width="580px"
	 height="580px" viewBox="0 0 580 580" enable-background="new 0 0 580 580" xml:space="preserve">
<g id="Layer_2">
	<g id="g1327">
		<path id="path1329" fill="#111111" stroke="#EEEEEE" stroke-width="3.408" d="M66.275,1.768
			c-41.335,0-64.571,21.371-64.571,65.036v450.123c0,40.844,20.894,62.229,62.192,62.229H515.92
			c41.307,0,62.229-20.316,62.229-62.229V66.804c0-42.601-20.923-65.036-63.522-65.036C514.624,1.768,66.133,1.625,66.275,1.768z"/>
	</g>
</g>
<g id="svg2" xmlns:inkscape="http://www.inkscape.org/namespaces/inkscape" xmlns:rdf="http://www.w3.org/1999/02/22-rdf-syntax-ns#" xmlns:svg="http://www.w3.org/2000/svg" xmlns:sodipodi="http://sodipodi.sourceforge.net/DTD/sodipodi-0.dtd" xmlns:cc="http://creativecommons.org/ns#" xmlns:dc="http://purl.org/dc/elements/1.1/" inkscape:output_extension="org.inkscape.output.svg.inkscape" inkscape:version="0.46" sodipodi:docname="waste_bin.svg" sodipodi:version="0.32">
	<g>
		<path fill="#FFFFFF" d="M108.839,56.762c0,0,169.455,222.767-36.176,466.477h199.918c0,0,54.149-291.31-108.108-466.477H108.839z"
			/>
		<path fill="#FFFFFF" d="M470.648,68.885c-16.401,0.058-32.746-10.866-48.808-11.103c-16.288-0.412-31.728,9.688-46.942,9.567
			c-14.987-0.293-28.278-11.045-43.152-10.573c-15.271,0.594-32.012,12.404-46.942,13.113
			c-15.043,0.237-28.674-10.984-41.964-11.104c-11.36-0.2-23.885,5.824-32.954,8.821c6.832,7.996,13.248,16.205,19.269,24.592
			c4.556-1.29,9.21-2.188,13.685-2.109c13.291,0.119,26.921,11.34,41.964,11.102c14.931-0.588,31.672-12.697,46.942-13.111
			c14.874-0.59,28.164,10.396,43.152,10.631c15.215,0.12,30.654-9.92,46.942-9.625c16.062,0.234,32.406,11.159,48.808,11.104
			c12.371-0.273,24.243-7.186,36.688-10.441V58.445C494.892,61.7,483.02,68.612,470.648,68.885z"/>
		<path fill="#FFFFFF" d="M421.841,128.069c-16.288-0.414-31.728,9.687-46.942,9.568c-14.987-0.295-28.278-11.045-43.152-10.571
			c-15.271,0.589-32.012,12.401-46.942,13.112c-10.958,0.171-21.165-5.734-31.039-9.001c6.943,12.555,13.167,25.357,18.736,38.308
			c4.006,1.231,8.1,2.061,12.303,1.996c14.931-0.712,31.672-12.523,46.942-13.113c14.874-0.473,28.164,10.277,43.152,10.572
			c15.215,0.118,30.654-9.982,46.942-9.568c16.062,0.237,32.406,11.163,48.808,11.103c12.371-0.271,24.243-7.185,36.688-10.439
			v-31.3c-12.445,3.255-24.317,10.167-36.688,10.438C454.247,139.232,437.902,128.307,421.841,128.069z"/>
		<path fill="#FFFFFF" d="M421.841,198.338c-16.288-0.414-31.728,9.687-46.942,9.568c-14.987-0.295-28.278-11.045-43.152-10.571
			c-14.258,0.55-29.797,10.881-43.948,12.828c3.181,9.754,6.041,19.528,8.608,29.284c11.688-3.658,23.925-10.369,35.34-10.81
			c14.874-0.473,28.164,10.277,43.152,10.572c15.215,0.118,30.654-9.982,46.942-9.568c16.062,0.237,32.406,11.163,48.808,11.103
			c12.371-0.271,24.243-7.185,36.688-10.439v-31.3c-12.445,3.255-24.317,10.167-36.688,10.438
			C454.247,209.501,437.902,198.576,421.841,198.338z"/>
		<path fill="#FFFFFF" d="M421.841,268.607c-16.288-0.414-31.728,9.687-46.942,9.568c-14.987-0.295-28.278-11.045-43.152-10.571
			c-8.757,0.338-17.997,4.365-27.103,7.875c1.931,9.874,3.593,19.672,5.011,29.349c7.462-2.906,14.938-5.646,22.092-5.922
			c14.874-0.473,28.164,10.277,43.152,10.572c15.215,0.118,30.654-9.982,46.942-9.568c16.062,0.237,32.406,11.163,48.808,11.103
			c12.371-0.271,24.243-7.185,36.688-10.439v-31.3c-12.445,3.255-24.317,10.167-36.688,10.438
			C454.247,279.771,437.902,268.845,421.841,268.607z"/>
		<path fill="#FFFFFF" d="M421.841,338.877c-16.288-0.414-31.728,9.687-46.942,9.568c-14.987-0.295-28.278-11.045-43.152-10.571
			c-5.747,0.222-11.701,2.033-17.69,4.244c0.943,10.43,1.63,20.632,2.105,30.545c5.277-1.854,10.513-3.291,15.585-3.487
			c14.874-0.473,28.164,10.277,43.152,10.572c15.215,0.118,30.654-9.982,46.942-9.568c16.062,0.237,32.406,11.163,48.808,11.103
			c12.371-0.271,24.243-7.185,36.688-10.439v-31.3c-12.445,3.255-24.317,10.167-36.688,10.438
			C454.247,350.04,437.902,339.114,421.841,338.877z"/>
		<path fill="#FFFFFF" d="M421.841,409.146c-16.288-0.414-31.728,9.687-46.942,9.568c-14.987-0.295-28.278-11.045-43.152-10.571
			c-4.794,0.185-9.732,1.477-14.715,3.183c-0.028,11.135-0.292,21.692-0.713,31.551c5.224-1.827,10.405-3.237,15.428-3.432
			c14.874-0.473,28.164,10.277,43.152,10.572c15.215,0.118,30.654-9.982,46.942-9.568c16.062,0.237,32.406,11.163,48.808,11.103
			c12.371-0.271,24.243-7.185,36.688-10.439v-31.301c-12.445,3.256-24.317,10.168-36.688,10.438
			C454.247,420.309,437.902,409.383,421.841,409.146z"/>
		<path fill="#FFFFFF" d="M421.841,479.415c-16.288-0.414-31.728,9.687-46.942,9.568c-14.987-0.295-28.278-11.045-43.152-10.571
			c-5.899,0.228-12.019,2.132-18.168,4.423c-1.406,14.726-2.939,25.978-3.979,32.822c7.48-2.915,14.976-5.666,22.146-5.943
			c14.874-0.473,28.164,10.277,43.152,10.572c15.215,0.118,30.654-9.982,46.942-9.568c16.062,0.237,32.406,11.163,48.808,11.103
			c12.371-0.271,24.243-7.185,36.688-10.439V480.08c-12.445,3.256-24.317,10.168-36.688,10.438
			C454.247,490.578,437.902,479.652,421.841,479.415z"/>
	</g>
</g>
</svg>
