<?xml version="1.0" encoding="utf-8"?>
<!-- Generator: Adobe Illustrator 15.0.0, SVG Export Plug-In . SVG Version: 6.00 Build 0)  -->
<!DOCTYPE svg PUBLIC "-//W3C//DTD SVG 1.1//EN" "http://www.w3.org/Graphics/SVG/1.1/DTD/svg11.dtd">
<svg version="1.1" xmlns="http://www.w3.org/2000/svg" xmlns:xlink="http://www.w3.org/1999/xlink" x="0px" y="0px" width="580px"
	 height="580px" viewBox="0 0 580 580" enable-background="new 0 0 580 580" xml:space="preserve">
<g id="Layer_2_1_">
	<g id="Layer_2">
		<g id="g1327">
			<path id="path1329" fill="#111111" stroke="#EEEEEE" stroke-width="3.408" d="M66.275,1.768
				c-41.335,0-64.571,21.371-64.571,65.036v450.123c0,40.844,20.895,62.229,62.192,62.229h452.024
				c41.307,0,62.229-20.315,62.229-62.229V66.804c0-42.602-20.923-65.036-63.521-65.036C514.625,1.768,66.133,1.625,66.275,1.768z"
				/>
		</g>
	</g>
</g>
<g id="Layer_1">
	<path fill="#FFFFFF" d="M487.999,340.903V196.77c0-4.87-8.199-8.817-18.313-8.817s-18.312,3.947-18.312,8.817v114.5l-22.148-17.92
		v-82.29c0-2.916-4.909-5.28-10.966-5.28c-6.056,0-10.965,2.364-10.965,5.28v64.546l-32.68-26.441v-30.189
		c0-1.853-3.118-3.354-6.965-3.354c-3.846,0-6.966,1.502-6.966,3.354v20.177H234.217v-20.177c0-1.853-3.12-3.354-6.965-3.354
		c-3.847,0-6.965,1.502-6.965,3.354v28.148l-26.148,19.789V211.06c0-2.916-4.91-5.28-10.966-5.28s-10.966,2.364-10.966,5.28v72.45
		l-28.678,21.703V196.77c0-4.87-8.199-8.817-18.312-8.817c-10.113,0-18.312,3.947-18.312,8.817v136.16L28.79,392.047h4.286H551.21
		L487.999,340.903z"/>
</g>
</svg>
