<?xml version="1.0" encoding="utf-8"?>
<!-- Generator: Adobe Illustrator 15.0.0, SVG Export Plug-In . SVG Version: 6.00 Build 0)  -->
<!DOCTYPE svg PUBLIC "-//W3C//DTD SVG 1.1//EN" "http://www.w3.org/Graphics/SVG/1.1/DTD/svg11.dtd">
<svg version="1.1" xmlns="http://www.w3.org/2000/svg" xmlns:xlink="http://www.w3.org/1999/xlink" x="0px" y="0px" width="580px"
	 height="580px" viewBox="0 0 580 580" enable-background="new 0 0 580 580" xml:space="preserve">
<g id="Layer_1">
	<g id="Layer_2">
		<g id="g1327">
			<path id="path1329" fill="#111111" stroke="#EEEEEE" stroke-width="3.408" d="M66.275,1.768
				c-41.335,0-64.571,21.371-64.571,65.036v450.123c0,40.844,20.895,62.229,62.192,62.229h452.024
				c41.307,0,62.229-20.315,62.229-62.229V66.804c0-42.602-20.923-65.036-63.521-65.036C514.625,1.768,66.133,1.625,66.275,1.768z"
				/>
		</g>
	</g>
</g>
<g id="Layer_2_1_">
	<path fill="#FFFFFF" d="M539.499,315.023c6.141-18.828,12.434-41.819,20.688-59.938c4.717-8.309,5.585-16.723,1.781-16.813
		c-0.629-0.015-3.282,0.963-6,2.219c-2.717,1.256-9.799,4.507-15.594,7.125c-5.794,2.618-12.849,6.713-15.688,9.188
		c-16.913,11.088-35.234,16.465-55.813,15.594c-22.998-4.606-52.801-8.219-75.781-23.906
		c-35.322-18.992-38.362-20.479-53.031-25.656c-7.975-2.814-14.82-5.475-15.188-5.875c-0.367-0.399,1.624-2.789,4.406-5.344
		s4.831-5.966,4.531-7.531c-0.3-1.564-8.724-5.854-18.688-9.656c-11.607-4.43-22.649-11.076-30.75-18.438
		c-6.519-5.923-13.262-10.325-15.594-10.25c-0.155,0.005-0.291,0.049-0.406,0.094c-1.839,0.727-11.612,11.524-21.719,24.031
		l-18.406,22.719l-13.313,1c-60.887,7.377-110.523,32.322-156.219,72.438c-9.473,10.012-45.17,43.257-42.969,51.313
		c0.758,0.807,9.244-0.206,18.594,1c17.523,2.262,44.375,5.688,44.219,9.344c-0.081,1.9-15.148,3.721-42.688,7.219
		c-23.609,3-23.395,7.969,0.688,16.469c28.827,10.176,66.719,16.521,127.969,12.063c0.698,0.008,1.391-0.001,2.086-0.001
		c15.831,15.405,36.259,29.554,52.188,30.588c41.815,2.714,28.771-17.728,26.991-43.675c15.829-4.324,31.602-9.006,47.705-12.85
		c3.011-0.152,11.866-2.667,19.625-5.656c46.749-13.36,85.194-26.475,123.438-22.531c35.338,1.811,58.87,25.818,86.75,43.125
		c1.152,0.027,8.263,4.625,15.75,10.219c20.376,15.223,25.555,13.063,17.563-7.25C550.059,358.714,539.271,320.703,539.499,315.023z
		 M83.061,317.054c-5.093,0-9.219-4.125-9.219-9.219c0-5.093,4.126-9.219,9.219-9.219c5.094,0,9.219,4.126,9.219,9.219
		C92.28,312.929,88.155,317.054,83.061,317.054z"/>
</g>
</svg>
