<?xml version="1.0" encoding="utf-8"?>
<!-- Generator: Adobe Illustrator 15.0.0, SVG Export Plug-In . SVG Version: 6.00 Build 0)  -->
<!DOCTYPE svg PUBLIC "-//W3C//DTD SVG 1.1//EN" "http://www.w3.org/Graphics/SVG/1.1/DTD/svg11.dtd">
<svg version="1.1" xmlns="http://www.w3.org/2000/svg" xmlns:xlink="http://www.w3.org/1999/xlink" x="0px" y="0px" width="580px"
	 height="580px" viewBox="0 0 580 580" enable-background="new 0 0 580 580" xml:space="preserve">
<g id="Layer_2_1_">
	<g id="Layer_2">
		<g id="g1327">
			<path id="path1329" fill="#111111" stroke="#EEEEEE" stroke-width="3.408" d="M66.275,1.768
				c-41.335,0-64.571,21.371-64.571,65.036v450.123c0,40.844,20.895,62.229,62.192,62.229h452.024
				c41.307,0,62.229-20.315,62.229-62.229V66.804c0-42.602-20.923-65.036-63.521-65.036C514.625,1.768,66.133,1.625,66.275,1.768z"
				/>
		</g>
	</g>
</g>
<g id="Layer_1">
	<polygon fill="#FFFFFF" points="528.113,299.83 528.113,324.996 412.994,324.996 412.994,315.328 412.994,302.996 412.994,277.83 
		405.119,277.83 405.119,302.996 290,302.996 290,293.328 290,280.995 290,255.83 282.125,255.83 282.125,280.995 167.006,280.995 
		167.006,271.328 167.006,258.995 167.006,233.83 159.13,233.83 159.13,258.995 51.887,258.995 51.887,213.006 44.011,213.006 
		44.011,258.995 44.011,271.328 44.011,324.996 44.011,337.328 44.011,366.994 535.988,366.994 535.988,337.328 535.988,324.996 
		535.988,299.83 	"/>
</g>
</svg>
