<?xml version="1.0" encoding="utf-8"?>
<!-- Generator: Adobe Illustrator 15.0.0, SVG Export Plug-In . SVG Version: 6.00 Build 0)  -->
<!DOCTYPE svg PUBLIC "-//W3C//DTD SVG 1.1//EN" "http://www.w3.org/Graphics/SVG/1.1/DTD/svg11.dtd">
<svg version="1.1" xmlns="http://www.w3.org/2000/svg" xmlns:xlink="http://www.w3.org/1999/xlink" x="0px" y="0px" width="580px"
	 height="580px" viewBox="0 0 580 580" enable-background="new 0 0 580 580" xml:space="preserve">
<g id="Layer_2_1_">
	<g id="Layer_2">
		<g id="g1327">
			<path id="path1329" fill="#111111" stroke="#EEEEEE" stroke-width="3.408" d="M66.275,1.768
				c-41.335,0-64.571,21.371-64.571,65.036v450.123c0,40.844,20.895,62.229,62.192,62.229h452.024
				c41.307,0,62.229-20.315,62.229-62.229V66.804c0-42.602-20.923-65.036-63.521-65.036C514.625,1.768,66.133,1.625,66.275,1.768z"
				/>
		</g>
	</g>
</g>
<g id="Layer_1">
	<path fill="#FFFFFF" d="M455.088,180.466v-41.377h-93.886v224.522c-4.912-2.564-10.283-6.32-18.362-6.035
		c-8.361,0.291-19.307,5.979-30.676,8.807c12.181-7.991,21.733-19.634,27.118-33.403H300.61L229.69,198.74h49.903v-52.734h-63.367
		v-4.928c0-4.775-3.87-8.645-8.645-8.645s-8.645,3.869-8.645,8.645v25.772l-86.259,166.129H65.491
		c3.597,9.2,9.057,17.45,15.914,24.299c-1.301-0.131-2.612-0.186-3.938-0.144c-14.265,0.555-29.902,11.588-43.85,12.25
		c-0.734,0.012-1.464-0.012-2.19-0.056v29.239c0.727,0.043,1.456,0.067,2.19,0.056c13.947-0.55,29.585-11.861,43.85-12.248
		c13.895-0.551,26.31,9.711,40.311,9.931c14.213,0.112,28.635-9.267,43.851-8.991c15.003,0.219,30.271,10.424,45.592,10.372
		c15.058-0.332,29.321-11.201,45.012-11.312c15.743-0.053,33.072,10.594,48.5,10.872c15.215,0,30.96-9.99,42.107-10.374
		c8.079-0.37,13.45,3.426,18.362,5.994v19.643c-4.912-2.567-10.283-6.365-18.362-5.996c-11.149,0.385-26.893,10.371-42.107,10.371
		c-15.428-0.329-32.757-10.812-48.5-10.812c-15.69,0.111-29.954,10.979-45.012,11.309c-15.32,0.056-30.589-10.15-45.592-10.372
		c-15.216-0.387-29.638,9.049-43.851,8.938c-14-0.275-26.416-10.317-40.311-9.875c-14.265,0.55-29.902,11.584-43.85,12.248
		c-0.734,0.012-1.464-0.013-2.19-0.057v29.241c0.727,0.044,1.456,0.068,2.19,0.057c13.947-0.665,29.585-11.698,43.85-12.25
		c13.895-0.441,26.31,9.601,40.311,9.876c14.213,0.11,28.635-9.324,43.851-8.938c15.003,0.222,30.271,10.428,45.592,10.371
		c15.058-0.329,29.321-11.201,45.012-11.31c15.743,0,33.072,10.483,48.5,10.813c15.215,0,30.96-9.986,42.107-10.372
		c8.079-0.287,13.45,3.468,18.362,6.033v2.123h5.551c6.189,1.28,10.952,1.469,14.652,0.343v-0.343h73.683V267.675h93.484v-87.209
		H455.088z M216.226,198.74h6.62l70.918,134.239h-77.538V198.74z M198.937,179.981v152.998h-79.44L198.937,179.981z"/>
</g>
</svg>
