<?xml version="1.0" encoding="utf-8"?>
<!-- Generator: Adobe Illustrator 15.0.0, SVG Export Plug-In . SVG Version: 6.00 Build 0)  -->
<!DOCTYPE svg PUBLIC "-//W3C//DTD SVG 1.1//EN" "http://www.w3.org/Graphics/SVG/1.1/DTD/svg11.dtd">
<svg version="1.1" xmlns="http://www.w3.org/2000/svg" xmlns:xlink="http://www.w3.org/1999/xlink" x="0px" y="0px" width="580px"
	 height="580px" viewBox="0 0 580 580" enable-background="new 0 0 580 580" xml:space="preserve">
<g id="Layer_2_1_">
	<g id="Layer_2">
		<g id="g1327">
			<path id="path1329" fill="#111111" stroke="#EEEEEE" stroke-width="3.408" d="M66.275,1.768
				c-41.335,0-64.571,21.371-64.571,65.036v450.123c0,40.844,20.895,62.229,62.192,62.229h452.024
				c41.307,0,62.229-20.315,62.229-62.229V66.804c0-42.602-20.923-65.036-63.521-65.036C514.625,1.768,66.133,1.625,66.275,1.768z"
				/>
		</g>
	</g>
</g>
<g id="Layer_1">
	<g>
		<g>
			<path fill="#FFFFFF" d="M299.871,49.965h-9.115c-74.251,0-134.443,60.192-134.443,134.443v9.114h278.002v-9.114
				C434.314,110.157,374.123,49.965,299.871,49.965z"/>
			<path fill="#FFFFFF" d="M204.672,291.628c3.373,0,6.072-1.001,8.097-3.005c2.023-2.002,3.035-4.775,3.035-8.317
				c0-3.331-1.002-5.999-3.004-8.002c-2.003-2.002-4.649-3.004-7.938-3.004c-3.416,0-6.136,1.012-8.159,3.036
				c-2.024,2.023-3.036,4.702-3.036,8.032c0,3.543,1.001,6.305,3.004,8.287S201.34,291.628,204.672,291.628z"/>
			<path fill="#FFFFFF" d="M205.177,335.652c3.669,0,6.705-1.317,9.108-3.954c2.403-2.634,3.605-6.44,3.605-11.416
				c0-4.344-1.224-7.832-3.669-10.469c-2.445-2.635-5.546-3.953-9.298-3.953c-4.344,0-7.58,1.497-9.709,4.49
				c-2.13,2.994-3.194,6.242-3.194,9.741c0,4.893,1.254,8.708,3.763,11.449S201.424,335.652,205.177,335.652z"/>
			<path fill="#FFFFFF" d="M156.312,397.467h278.002V207.195H156.312V397.467z M393.988,309.087
				c-2.403-2.615-5.335-3.923-8.792-3.923c-2.277,0-4.997,0.443-8.16,1.329l1.961-14.486c4.808,0.127,8.477-0.916,11.006-3.131
				c2.53-2.213,3.795-5.154,3.795-8.824c0-3.119-0.928-5.607-2.782-7.463c-1.856-1.855-4.323-2.784-7.401-2.784
				c-3.036,0-5.629,1.056-7.779,3.163c-2.15,2.109-3.459,5.188-3.923,9.235l-16.382-2.783c1.139-5.608,2.856-10.089,5.155-13.441
				c2.298-3.353,5.503-5.987,9.614-7.906s8.719-2.879,13.82-2.879c8.729,0,15.729,2.784,21.001,8.35
				c4.343,4.555,6.515,9.699,6.515,15.435c0,8.139-4.449,14.633-13.346,19.481c5.313,1.139,9.561,3.69,12.745,7.654
				c3.184,3.964,4.776,8.751,4.776,14.358c0,8.14-2.974,15.076-8.92,20.811c-5.945,5.734-13.347,8.602-22.201,8.602
				c-8.393,0-15.35-2.412-20.874-7.242c-5.524-4.828-8.729-11.143-9.614-18.943l17.205-2.088c0.547,4.387,2.024,7.738,4.428,10.058
				s5.313,3.479,8.729,3.479c3.669,0,6.757-1.392,9.267-4.175c2.508-2.783,3.764-6.536,3.764-11.26
				C397.594,315.243,396.391,311.701,393.988,309.087z M322.638,330.529h17.774v17.774h-17.774V330.529z M246.799,256.839h60.786
				v12.903c-5.019,4.934-10.121,12.018-15.307,21.253c-5.188,9.235-9.141,19.051-11.86,29.445
				c-2.721,10.396-4.059,19.683-4.018,27.863H259.26c0.294-12.819,2.94-25.893,7.938-39.217
				c4.997-13.326,11.671-25.239,20.02-35.739h-40.418V256.839z M179.97,290.267c-2.087-3.394-3.131-7.115-3.131-11.164
				c0-6.915,2.414-12.629,7.243-17.141c4.827-4.513,11.69-6.77,20.589-6.77c8.813,0,15.655,2.257,20.525,6.77
				c4.87,4.512,7.306,10.226,7.306,17.141c0,4.302-1.118,8.128-3.352,11.48c-2.236,3.353-5.378,5.915-9.426,7.687
				c5.145,2.066,9.056,5.081,11.733,9.045c2.678,3.963,4.018,8.539,4.018,13.726c0,8.561-2.73,15.519-8.191,20.874
				c-5.462,5.355-12.725,8.032-21.791,8.032c-8.435,0-15.456-2.213-21.063-6.641c-6.621-5.229-9.931-12.398-9.931-21.507
				c0-5.018,1.243-9.624,3.731-13.821c2.488-4.194,6.409-7.433,11.766-9.708C185.4,296.331,182.058,293.663,179.97,290.267z"/>
		</g>
		<path id="path121" fill="#FFFFFF" d="M534.956,493.181c-4.256,1.17-9.754,0.987-16.967-0.556
			c-7.332-1.605-14.012-9.511-26.189-8.955c-12.475,0.432-30.094,11.606-47.117,11.606c-17.264-0.369-36.654-12.099-54.271-12.099
			c-17.557,0.124-33.52,12.286-50.369,12.653c-17.143,0.064-34.229-11.356-51.017-11.605c-17.027-0.432-33.166,10.125-49.068,10.003
			c-15.667-0.308-29.561-11.547-45.108-11.051c-15.962,0.616-33.461,12.963-49.068,13.706
			c-15.726,0.246-29.974-11.485-43.865-11.607c-14.01-0.247-29.736,8.582-39.195,10.557c-9.46,1.916-15.431,1.854-17.676,0.495
			v32.721c2.245,1.358,8.216,1.421,17.676-0.494c9.459-1.978,25.184-10.804,39.195-10.558c13.894,0.122,28.14,11.854,43.865,11.607
			c15.607-0.743,33.106-13.09,49.068-13.706c15.548-0.496,29.44,10.741,45.108,11.051c15.902,0.122,32.041-10.435,49.068-10.003
			c16.788,0.248,33.874,11.67,51.017,11.605c16.85-0.368,32.813-12.534,50.369-12.653c17.617,0,37.008,11.729,54.271,12.097
			c17.023,0,34.646-11.173,47.117-11.604c12.178-0.434,18.857,7.344,26.189,9.014c7.213,1.544,12.711,1.791,16.967,0.496V493.181z"
			/>
		<path id="path121_1_" fill="#FFFFFF" d="M534.956,442.634c-4.256,1.17-9.754,0.987-16.967-0.556
			c-7.332-1.605-14.012-9.511-26.189-8.955c-12.475,0.432-30.094,11.606-47.117,11.606c-17.264-0.369-36.654-12.099-54.271-12.099
			c-17.557,0.124-33.52,12.286-50.369,12.653c-17.143,0.064-34.229-11.356-51.017-11.605c-17.027-0.432-33.166,10.125-49.068,10.003
			c-15.667-0.308-29.561-11.547-45.108-11.051c-15.962,0.616-33.461,12.963-49.068,13.706
			c-15.726,0.246-29.974-11.485-43.865-11.607c-14.01-0.247-29.736,8.582-39.195,10.557c-9.46,1.916-15.431,1.854-17.676,0.495
			v32.721c2.245,1.358,8.216,1.421,17.676-0.494c9.459-1.978,25.184-10.804,39.195-10.558c13.894,0.122,28.14,11.854,43.865,11.607
			c15.607-0.743,33.106-13.09,49.068-13.706c15.548-0.496,29.44,10.741,45.108,11.051c15.902,0.122,32.041-10.435,49.068-10.003
			c16.788,0.248,33.874,11.67,51.017,11.605c16.85-0.368,32.813-12.534,50.369-12.653c17.617,0,37.008,11.729,54.271,12.097
			c17.023,0,34.646-11.173,47.117-11.604c12.178-0.434,18.857,7.344,26.189,9.014c7.213,1.544,12.711,1.791,16.967,0.496V442.634z"
			/>
	</g>
</g>
</svg>
