<?xml version="1.0" encoding="utf-8"?>
<!-- Generator: Adobe Illustrator 15.0.0, SVG Export Plug-In . SVG Version: 6.00 Build 0)  -->
<!DOCTYPE svg PUBLIC "-//W3C//DTD SVG 1.1//EN" "http://www.w3.org/Graphics/SVG/1.1/DTD/svg11.dtd">
<svg version="1.1" xmlns="http://www.w3.org/2000/svg" xmlns:xlink="http://www.w3.org/1999/xlink" x="0px" y="0px" width="580px"
	 height="580px" viewBox="0 0 580 580" enable-background="new 0 0 580 580" xml:space="preserve">
<g id="Layer_2">
	<g id="g1327">
		<path id="path1329" fill="#111111" stroke="#EEEEEE" stroke-width="3.408" d="M66.275,1.768
			c-41.335,0-64.571,21.371-64.571,65.036v450.123c0,40.844,20.894,62.229,62.192,62.229H515.92
			c41.307,0,62.229-20.316,62.229-62.229V66.804c0-42.601-20.923-65.036-63.522-65.036C514.624,1.768,66.133,1.625,66.275,1.768z"/>
	</g>
</g>
<g id="svg2" inkscape:output_extension="org.inkscape.output.svg.inkscape" inkscape:version="0.46" sodipodi:docname="waste_bin.svg" sodipodi:version="0.32" xmlns:inkscape="http://www.inkscape.org/namespaces/inkscape" xmlns:rdf="http://www.w3.org/1999/02/22-rdf-syntax-ns#" xmlns:svg="http://www.w3.org/2000/svg" xmlns:sodipodi="http://sodipodi.sourceforge.net/DTD/sodipodi-0.dtd" xmlns:cc="http://creativecommons.org/ns#" xmlns:dc="http://purl.org/dc/elements/1.1/">
	<polygon fill="#FFFFFF" points="544.299,284.815 544.271,263.815 35.701,263.815 35.728,285.487 50.42,285.468 51.175,445.673 
		64.175,445.612 63.42,285.451 116.848,285.38 116.639,445.634 129.639,445.651 129.848,285.363 183.311,285.292 183.104,412.634 
		196.104,412.655 196.311,285.275 249.5,285.205 248.91,379.626 261.91,379.708 262.5,285.188 316.207,285.117 316.486,361.824 
		329.486,361.777 329.207,285.1 383.48,285.028 382.732,346.857 395.732,347.014 396.482,285.011 449.955,284.94 449.863,332.057 
		462.863,332.082 462.955,284.923 516.227,284.853 516.246,317.207 529.246,317.199 529.227,284.835 	"/>
</g>
</svg>
