<?xml version="1.0" encoding="utf-8"?>
<!-- Generator: Adobe Illustrator 15.0.0, SVG Export Plug-In . SVG Version: 6.00 Build 0)  -->
<!DOCTYPE svg PUBLIC "-//W3C//DTD SVG 1.1//EN" "http://www.w3.org/Graphics/SVG/1.1/DTD/svg11.dtd">
<svg version="1.1" xmlns="http://www.w3.org/2000/svg" xmlns:xlink="http://www.w3.org/1999/xlink" x="0px" y="0px" width="580px"
	 height="580px" viewBox="0 0 580 580" enable-background="new 0 0 580 580" xml:space="preserve">
<g id="Layer_2">
	<g id="g1327">
		<path id="path1329" fill="#111111" stroke="#EEEEEE" stroke-width="3.408" d="M66.275,1.768
			c-41.335,0-64.571,21.371-64.571,65.036v450.123c0,40.844,20.894,62.229,62.192,62.229H515.92
			c41.307,0,62.229-20.316,62.229-62.229V66.804c0-42.601-20.923-65.036-63.522-65.036C514.624,1.768,66.133,1.625,66.275,1.768z"/>
	</g>
</g>
<g id="svg2" inkscape:output_extension="org.inkscape.output.svg.inkscape" inkscape:version="0.46" sodipodi:docname="waste_bin.svg" sodipodi:version="0.32" xmlns:inkscape="http://www.inkscape.org/namespaces/inkscape" xmlns:rdf="http://www.w3.org/1999/02/22-rdf-syntax-ns#" xmlns:svg="http://www.w3.org/2000/svg" xmlns:sodipodi="http://sodipodi.sourceforge.net/DTD/sodipodi-0.dtd" xmlns:cc="http://creativecommons.org/ns#" xmlns:dc="http://purl.org/dc/elements/1.1/">
	<path fill="#FFFFFF" d="M519.781,202.5c-30-42-82-105-236-98c0,0-163-14-170,83s-108,156-43,221s236,111,343,82
		S549.781,244.5,519.781,202.5z M234.05,355.755c0.422-4.811,0.395-9.332,0.113-13.415c7.24-6.244,15.516-11.249,24.912-14.017
		c0,0,0.655,10.692-3.023,24.718c-4.075,1.51-8.169,3.392-12.271,5.661c-3.755,2.078-7.52,4.479-11.278,7.182
		C233.23,362.584,233.749,359.205,234.05,355.755z M207.548,344.153c0.549-0.964,1.121-1.914,1.71-2.854
		c4.551-7.252,10.313-13.718,17.619-18.573c0,0,2.665,7.055,3.672,17.7c0.076,0.801,0.144,1.62,0.198,2.46
		c0.053,0.797,0.096,1.61,0.126,2.44c0.26,7.063-0.332,15.267-2.736,23.835c-4.333,3.394-8.649,7.184-12.924,11.36
		c-3.904,3.814-7.434,7.614-10.549,11.188c-0.993,1.14-1.942,2.255-2.85,3.342c-1.062,1.274-2.065,2.506-3.004,3.686
		c-0.704,0.884-1.371,1.738-2.004,2.56c-0.135,0.176-0.274,0.354-0.406,0.527c-0.425,0.556-0.828,1.09-1.219,1.61
		c-0.217,0.29-0.43,0.575-0.635,0.854c-0.344,0.464-0.672,0.912-0.985,1.343c-0.138,0.189-0.272,0.375-0.404,0.557
		c-0.053,0.074-0.105,0.147-0.158,0.221c-0.15,0.208-0.296,0.411-0.437,0.609c-0.059,0.083-0.116,0.164-0.173,0.245
		c0.013-0.521,0.028-1.062,0.048-1.633c0.016-0.443,0.034-0.906,0.054-1.379c0.046-1.063,0.104-2.193,0.179-3.389
		c0.03-0.493,0.063-0.994,0.099-1.507c0.067-0.94,0.143-1.916,0.23-2.92c0.214-2.471,0.496-5.125,0.863-7.914
		c0.251-1.897,0.543-3.859,0.88-5.867c1.886-11.24,5.225-23.941,11.102-35.361C206.391,346.234,206.959,345.188,207.548,344.153z
		 M192.437,305.723c7.816,10.311,11.603,22.688,12.942,35.335c-0.93,1.56-1.827,3.168-2.684,4.839
		c-4.11,8.029-7.363,17.359-9.695,27.769c-2.333-10.409-5.586-19.739-9.697-27.769c-1.937-3.782-4.07-7.274-6.384-10.479
		C182.585,317.303,192.437,305.723,192.437,305.723z M126.924,328.323c9.397,2.768,17.673,7.772,24.913,14.017
		c-0.281,4.083-0.309,8.604,0.113,13.415c0.303,3.449,0.821,6.827,1.546,10.126c-3.759-2.702-7.523-5.103-11.278-7.181
		c-4.101-2.27-8.195-4.151-12.27-5.661C126.27,339.015,126.924,328.323,126.924,328.323z M188.93,407.884
		c-0.023,1.205-0.032,2.267-0.031,3.156c0,0.034,0,0.063,0,0.098c0.001,0.435,0.004,0.834,0.008,1.185
		c-0.016,0.056-0.034,0.119-0.048,0.17l-0.141,0.224l-0.122,0.193l-0.347,0.55l-0.554,0.876c-0.022,0-0.044,0-0.066,0.001
		c-0.043,0.001-0.086,0.002-0.129,0.002c-0.402,0.005-0.813,0.021-1.212,0.021c-1.712,0-3.384-0.051-5.029-0.132
		c-61.792-3.049-76.776-61.782-76.776-61.782c0.616-0.02,1.224-0.029,1.836-0.029c7.053,0,13.903,1.319,20.465,3.561
		c0.746,0.256,1.486,0.522,2.224,0.801c0.766,0.289,1.527,0.59,2.285,0.902c8.548,3.53,16.544,8.546,23.767,14.154
		c0.844,0.655,1.675,1.319,2.498,1.989c0.876,0.714,1.742,1.434,2.593,2.16c5.556,4.743,10.568,9.729,14.92,14.476
		c1.476,1.609,2.871,3.188,4.19,4.722c2.509,2.919,4.732,5.672,6.629,8.124c1.136,1.468,2.154,2.826,3.052,4.052
		C188.937,407.537,188.934,407.709,188.93,407.884z M189.951,392.248c-0.155,1.423-0.288,2.8-0.401,4.124
		c-0.134,1.558-0.241,3.039-0.327,4.438c-0.01,0.162-0.02,0.326-0.029,0.486c-2.885-3.746-6.525-8.196-10.824-12.913
		c-1.038-1.14-2.11-2.293-3.224-3.456c-0.961-1.005-1.95-2.017-2.966-3.03c-0.458-0.459-0.922-0.917-1.392-1.377
		c-4.275-4.177-8.592-7.968-12.925-11.361c-2.403-8.567-2.995-16.77-2.735-23.832c0.031-0.83,0.074-1.644,0.126-2.44
		c0.055-0.84,0.122-1.659,0.198-2.46c1.007-10.646,3.672-17.7,3.672-17.7c5.356,3.56,9.882,7.985,13.711,12.95
		c0.492,0.638,0.97,1.285,1.439,1.94c0.489,0.683,0.965,1.373,1.429,2.072c8.721,13.135,13.235,29.153,15.554,42.966
		C190.703,386.017,190.278,389.233,189.951,392.248z M204.742,414.227c-1.646,0.081-3.317,0.132-5.03,0.132
		c-0.399,0-0.81-0.016-1.212-0.021c-0.042,0-0.086-0.001-0.129-0.002c-0.022-0.001-0.044-0.001-0.066-0.001
		c-0.211-0.003-0.423-0.007-0.635-0.011c-0.013,0-0.026-0.001-0.039-0.001c-0.195-0.004-0.389-0.005-0.584-0.01
		c-0.347-0.008-0.686-0.008-1.034-0.02c-0.122-0.005-0.249-0.015-0.371-0.02c-0.004,0-0.008,0-0.013,0
		c-0.081-0.003-0.165-0.009-0.246-0.013c-0.018-0.001-0.037-0.002-0.055-0.003c-0.769-0.031-1.543-0.068-2.326-0.116
		c-0.195-0.012-0.383-0.016-0.579-0.028c-0.011-0.001-0.022-0.002-0.033-0.002c-0.006,0-0.011,0-0.016-0.001
		c0,0,0.01-0.015,0.015-0.023c0.001-0.001,0.001-0.002,0.001-0.002c0.021-0.033,0.078-0.123,0.171-0.266
		c0.045-0.071,0.101-0.155,0.164-0.253c0.064-0.097,0.136-0.206,0.217-0.328c0.02-0.03,0.039-0.06,0.061-0.092
		c0.074-0.112,0.156-0.235,0.244-0.366c0.125-0.186,0.259-0.386,0.409-0.606c0.155-0.229,0.321-0.474,0.504-0.74
		c0.149-0.215,0.306-0.443,0.473-0.682c0.181-0.261,0.375-0.537,0.577-0.823c0.042-0.06,0.087-0.122,0.13-0.184
		c0.01-0.014,0.019-0.027,0.029-0.041c0.21-0.297,0.431-0.607,0.663-0.93c0.323-0.451,0.665-0.922,1.029-1.419
		c0.581-0.793,1.213-1.642,1.894-2.539c1.006-1.326,2.121-2.76,3.336-4.275c5.772-7.2,13.831-16.249,23.56-24.557
		c0.852-0.727,1.718-1.445,2.594-2.159c0.822-0.67,1.653-1.335,2.497-1.99c7.223-5.608,15.219-10.623,23.768-14.155
		c0.758-0.313,1.519-0.613,2.284-0.902c0.738-0.278,1.479-0.545,2.225-0.8c6.562-2.243,13.413-3.563,20.466-3.563
		c0.612,0,1.22,0.01,1.836,0.029C281.517,352.444,266.533,411.178,204.742,414.227z M448.051,201.755
		c0.422-4.811,0.395-9.332,0.113-13.415c7.24-6.244,15.516-11.249,24.912-14.017c0,0,0.654,10.692-3.023,24.718
		c-4.076,1.51-8.17,3.392-12.271,5.661c-3.754,2.078-7.52,4.479-11.277,7.182C447.23,208.584,447.748,205.205,448.051,201.755z
		 M421.549,190.153c0.549-0.964,1.121-1.914,1.709-2.854c4.551-7.252,10.314-13.718,17.619-18.573c0,0,2.666,7.055,3.672,17.7
		c0.076,0.801,0.145,1.62,0.199,2.46c0.053,0.797,0.096,1.61,0.125,2.44c0.26,7.063-0.332,15.267-2.736,23.835
		c-4.332,3.394-8.648,7.184-12.924,11.36c-3.904,3.814-7.434,7.614-10.549,11.188c-0.992,1.14-1.941,2.255-2.85,3.342
		c-1.062,1.274-2.064,2.506-3.004,3.686c-0.703,0.884-1.371,1.738-2.004,2.56c-0.135,0.176-0.273,0.354-0.406,0.527
		c-0.425,0.556-0.828,1.09-1.219,1.61c-0.217,0.29-0.43,0.575-0.635,0.854c-0.344,0.464-0.672,0.912-0.984,1.343
		c-0.139,0.189-0.272,0.375-0.404,0.557c-0.053,0.074-0.105,0.147-0.158,0.221c-0.149,0.208-0.295,0.411-0.437,0.609
		c-0.059,0.083-0.116,0.164-0.173,0.245c0.013-0.521,0.027-1.062,0.047-1.633c0.016-0.443,0.035-0.906,0.055-1.379
		c0.047-1.063,0.104-2.193,0.179-3.389c0.03-0.493,0.063-0.994,0.099-1.507c0.067-0.94,0.144-1.916,0.23-2.92
		c0.215-2.471,0.496-5.125,0.863-7.914c0.252-1.897,0.543-3.859,0.881-5.867c1.887-11.24,5.225-23.941,11.102-35.361
		C420.391,192.234,420.959,191.188,421.549,190.153z M406.438,151.723c7.815,10.311,11.602,22.688,12.941,35.335
		c-0.93,1.56-1.826,3.168-2.684,4.839c-4.109,8.029-7.363,17.359-9.695,27.769c-2.332-10.409-5.586-19.739-9.696-27.769
		c-1.937-3.782-4.07-7.274-6.384-10.479C396.585,163.303,406.438,151.723,406.438,151.723z M340.924,174.323
		c9.396,2.768,17.673,7.772,24.912,14.017c-0.28,4.083-0.309,8.604,0.113,13.415c0.303,3.449,0.82,6.827,1.547,10.126
		c-3.76-2.702-7.523-5.103-11.278-7.181c-4.101-2.27-8.195-4.151-12.271-5.661C340.27,185.015,340.924,174.323,340.924,174.323z
		 M402.93,253.884c-0.023,1.205-0.031,2.267-0.031,3.156c0,0.034,0.001,0.063,0.001,0.098c0.001,0.435,0.004,0.834,0.009,1.185
		c-0.016,0.056-0.034,0.119-0.049,0.17l-0.141,0.224l-0.121,0.193l-0.348,0.55l-0.554,0.876c-0.022,0-0.044,0-0.066,0.001
		c-0.044,0.001-0.087,0.002-0.13,0.002c-0.402,0.005-0.813,0.021-1.212,0.021c-1.712,0-3.384-0.051-5.029-0.132
		c-61.792-3.049-76.776-61.782-76.776-61.782c0.616-0.02,1.225-0.029,1.836-0.029c7.054,0,13.904,1.319,20.465,3.561
		c0.746,0.256,1.486,0.522,2.225,0.801c0.766,0.289,1.527,0.59,2.285,0.902c8.549,3.53,16.544,8.546,23.767,14.154
		c0.845,0.655,1.675,1.319,2.497,1.989c0.877,0.714,1.742,1.434,2.594,2.16c5.555,4.743,10.567,9.729,14.92,14.476
		c1.475,1.609,2.87,3.188,4.189,4.722c2.51,2.919,4.732,5.672,6.629,8.124c1.137,1.468,2.154,2.826,3.053,4.052
		C402.938,253.537,402.934,253.709,402.93,253.884z M403.951,238.248c-0.155,1.423-0.288,2.8-0.402,4.124
		c-0.133,1.558-0.24,3.039-0.326,4.438c-0.01,0.162-0.021,0.326-0.029,0.486c-2.885-3.746-6.525-8.196-10.824-12.913
		c-1.038-1.14-2.11-2.293-3.224-3.456c-0.961-1.005-1.95-2.017-2.966-3.03c-0.459-0.459-0.923-0.917-1.393-1.377
		c-4.275-4.177-8.592-7.968-12.926-11.361c-2.402-8.567-2.994-16.77-2.734-23.832c0.031-0.83,0.073-1.644,0.125-2.44
		c0.055-0.84,0.122-1.659,0.198-2.46c1.007-10.646,3.672-17.7,3.672-17.7c5.356,3.56,9.882,7.985,13.712,12.95
		c0.491,0.638,0.97,1.285,1.439,1.94c0.488,0.683,0.965,1.373,1.429,2.072c8.722,13.135,13.235,29.153,15.554,42.966
		C404.703,232.017,404.278,235.233,403.951,238.248z M418.742,260.227c-1.646,0.081-3.318,0.132-5.03,0.132
		c-0.399,0-0.81-0.016-1.212-0.021c-0.043,0-0.086-0.001-0.13-0.002c-0.022-0.001-0.044-0.001-0.066-0.001
		c-0.211-0.003-0.423-0.007-0.636-0.011c-0.013,0-0.025-0.001-0.039-0.001c-0.195-0.004-0.389-0.005-0.584-0.01
		c-0.347-0.008-0.686-0.008-1.034-0.02c-0.122-0.005-0.249-0.015-0.371-0.02c-0.005,0-0.009,0-0.013,0
		c-0.081-0.003-0.164-0.009-0.246-0.013c-0.018-0.001-0.037-0.002-0.055-0.003c-0.77-0.031-1.543-0.068-2.326-0.116
		c-0.195-0.012-0.383-0.016-0.578-0.028c-0.012-0.001-0.022-0.002-0.033-0.002c-0.006,0-0.012,0-0.017-0.001
		c0,0,0.01-0.015,0.015-0.023c0.001-0.001,0.001-0.002,0.002-0.002c0.021-0.033,0.078-0.123,0.17-0.266
		c0.046-0.071,0.102-0.155,0.164-0.253c0.064-0.097,0.137-0.206,0.217-0.328c0.021-0.03,0.039-0.06,0.061-0.092
		c0.074-0.112,0.156-0.235,0.244-0.366c0.125-0.186,0.26-0.386,0.409-0.606c0.155-0.229,0.321-0.474,0.505-0.74
		c0.148-0.215,0.306-0.443,0.473-0.682c0.181-0.261,0.374-0.537,0.576-0.823c0.043-0.06,0.088-0.122,0.13-0.184
		c0.01-0.014,0.019-0.027,0.029-0.041c0.21-0.297,0.431-0.607,0.663-0.93c0.323-0.451,0.665-0.922,1.029-1.419
		c0.58-0.793,1.213-1.642,1.894-2.539c1.007-1.326,2.121-2.76,3.337-4.275c5.771-7.2,13.83-16.249,23.559-24.557
		c0.852-0.727,1.719-1.445,2.594-2.159c0.822-0.67,1.654-1.335,2.498-1.99c7.223-5.608,15.219-10.623,23.768-14.155
		c0.758-0.313,1.518-0.613,2.283-0.902c0.738-0.278,1.48-0.545,2.225-0.8c6.563-2.243,13.414-3.563,20.467-3.563
		c0.611,0,1.219,0.01,1.836,0.029C495.518,198.444,480.533,257.178,418.742,260.227z"/>
</g>
</svg>
