<?xml version="1.0" encoding="UTF-8" standalone="no"?>
<!-- Generator: Adobe Illustrator 15.0.0, SVG Export Plug-In . SVG Version: 6.00 Build 0)  -->

<svg
   xmlns:dc="http://purl.org/dc/elements/1.1/"
   xmlns:cc="http://creativecommons.org/ns#"
   xmlns:rdf="http://www.w3.org/1999/02/22-rdf-syntax-ns#"
   xmlns:svg="http://www.w3.org/2000/svg"
   xmlns="http://www.w3.org/2000/svg"
   xmlns:sodipodi="http://sodipodi.sourceforge.net/DTD/sodipodi-0.dtd"
   xmlns:inkscape="http://www.inkscape.org/namespaces/inkscape"
   version="1.1"
   x="0px"
   y="0px"
   width="580px"
   height="580px"
   viewBox="0 0 580 580"
   enable-background="new 0 0 580 580"
   xml:space="preserve"
   id="svg2254"
   sodipodi:docname="quay.svg"
   inkscape:version="0.92.3 (2405546, 2018-03-11)"><metadata
   id="metadata2260"><rdf:RDF><cc:Work
       rdf:about=""><dc:format>image/svg+xml</dc:format><dc:type
         rdf:resource="http://purl.org/dc/dcmitype/StillImage" /><dc:title></dc:title></cc:Work></rdf:RDF></metadata><defs
   id="defs2258">
	

		
		
		
		
		
	</defs><sodipodi:namedview
   pagecolor="#ffffff"
   bordercolor="#666666"
   borderopacity="1"
   objecttolerance="10"
   gridtolerance="10"
   guidetolerance="10"
   inkscape:pageopacity="0"
   inkscape:pageshadow="2"
   inkscape:window-width="1498"
   inkscape:window-height="957"
   id="namedview2256"
   showgrid="false"
   inkscape:zoom="1.2432572"
   inkscape:cx="290"
   inkscape:cy="290"
   inkscape:window-x="375"
   inkscape:window-y="43"
   inkscape:window-maximized="0"
   inkscape:current-layer="svg2254" />
<g
   id="Layer_2_1_">
	<g
   id="Layer_2">
		<g
   id="g1327">
			<path
   id="path1329"
   fill="#111111"
   stroke="#EEEEEE"
   stroke-width="3.408"
   d="M66.275,1.768     c-41.335,0-64.571,21.371-64.571,65.036v450.123c0,40.844,20.895,62.229,62.192,62.229h452.024     c41.307,0,62.229-20.315,62.229-62.229V66.804c0-42.602-20.923-65.036-63.521-65.036C514.625,1.768,66.133,1.625,66.275,1.768z" />
		</g>
	</g>
</g>
<g
   id="g2241"
   transform="matrix(0.81116113,0,0,0.75449384,-61.562163,238.80972)">
			<path
   d="m 440.94,212.898 -9.631,-80.021 C 431,120.038 420.457,109.687 407.544,109.687 h -79.539 l -3.237,-9.769 c 0,-8.316 -6.739,-15.057 -15.055,-15.057 H 276.83 c -8.315,0 -15.055,6.74 -15.055,15.057 l -2.238,9.769 h -80.204 c -12.913,0 -23.455,10.351 -23.765,23.19 l -9.632,80.021 c -20.699,8.613 -8.165,27.994 -8.165,27.994 l 64.181,109.345 h 182.972 l 64.182,-109.345 c 0.001,0 12.534,-19.382 -8.166,-27.994 z M 172.995,133.46 c 0,-3.498 2.844,-6.34 6.339,-6.34 h 228.21 c 3.494,0 6.34,2.843 6.34,6.34 v 0.522 l 8.681,72.134 C 381.55,191.087 293.439,158.885 293.439,158.885 c 0,0 -88.113,32.203 -129.127,47.231 l 8.684,-72.134 v -0.522 z"
   id="path2235"
   inkscape:connector-curvature="0"
   style="fill:#ffffff" />
			<path
   d="m 285.139,139.006 h -85.485 c -6.834,0 -12.375,5.54 -12.375,12.373 l -4.186,34.786 c 34.802,-12.739 82.936,-30.337 102.046,-37.321 z"
   id="path2237"
   inkscape:connector-curvature="0"
   style="fill:#ffffff" />
			<path
   d="m 399.598,151.379 c 0,-6.833 -5.539,-12.373 -12.374,-12.373 H 301.74 v 9.838 c 19.112,6.986 67.245,24.581 102.046,37.32 z"
   id="path2239"
   inkscape:connector-curvature="0"
   style="fill:#ffffff" />
		</g>
<rect
   style="color:#000000;display:inline;overflow:visible;visibility:visible;opacity:1;fill:#ffffff;fill-opacity:1;fill-rule:nonzero;stroke:#ffffff;stroke-width:9.69035912;stroke-linejoin:miter;stroke-miterlimit:4;stroke-dasharray:none;stroke-opacity:1;marker:none;enable-background:accumulate"
   id="rect2822"
   width="196.33774"
   height="242.97517"
   x="316.06564"
   y="262.26089" /><g
   transform="translate(-60.120479,-272.50976)"
   id="g2921"><path
     style="fill:#ffffff"
     inkscape:connector-curvature="0"
     id="path2917"
     d="m 456.818,346.058 c 4.828,0 8.997,-1.756 12.51,-5.269 3.512,-3.512 5.268,-7.681 5.268,-12.508 0,-5.042 -1.756,-9.264 -5.268,-12.666 -3.513,-3.4 -7.682,-5.102 -12.51,-5.102 -4.827,0 -8.995,1.701 -12.504,5.102 -3.508,3.402 -5.263,7.624 -5.263,12.666 0,4.827 1.755,8.996 5.263,12.508 3.509,3.513 7.677,5.269 12.504,5.269 z" /><path
     style="fill:#ffffff"
     inkscape:connector-curvature="0"
     id="path2919"
     d="m 496.812,356.748 c -4.278,-4.716 -9.819,-7.074 -16.621,-7.075 h -47.063 c -6.361,10e-4 -11.792,2.25 -16.291,6.749 -4.499,4.5 -6.749,10.04 -6.749,16.622 v 54.626 c 0,5.27 2.414,7.904 7.241,7.904 4.606,0 6.909,-2.635 6.91,-7.904 v -53.31 h 8.557 v 144.805 c 0,6.582 3.291,9.873 9.873,9.873 6.581,0 9.872,-3.291 9.872,-9.873 v -83.922 h 8.558 v 83.922 c 0,6.582 3.29,9.873 9.872,9.873 6.803,0 10.204,-3.291 10.205,-9.873 V 374.36 h 8.226 v 53.31 c -10e-4,5.484 2.303,8.227 6.909,8.227 4.612,0 6.92,-2.742 6.92,-8.227 v -54.305 c -0.002,-6.36 -2.141,-11.899 -6.419,-16.617 z" /></g></svg>