<?xml version="1.0" encoding="utf-8"?>
<!-- Generator: Adobe Illustrator 15.0.0, SVG Export Plug-In . SVG Version: 6.00 Build 0)  -->
<!DOCTYPE svg PUBLIC "-//W3C//DTD SVG 1.1//EN" "http://www.w3.org/Graphics/SVG/1.1/DTD/svg11.dtd">
<svg version="1.1" xmlns="http://www.w3.org/2000/svg" xmlns:xlink="http://www.w3.org/1999/xlink" x="0px" y="0px" width="580px"
	 height="580px" viewBox="0 0 580 580" enable-background="new 0 0 580 580" xml:space="preserve">
<g id="Layer_2_1_">
	<g id="Layer_2">
		<g id="g1327">
			<path id="path1329" fill="#111111" stroke="#EEEEEE" stroke-width="3.408" d="M66.275,1.768
				c-41.335,0-64.571,21.371-64.571,65.036v450.123c0,40.844,20.895,62.229,62.192,62.229h452.024
				c41.307,0,62.229-20.315,62.229-62.229V66.804c0-42.602-20.923-65.036-63.521-65.036C514.625,1.768,66.133,1.625,66.275,1.768z"
				/>
		</g>
	</g>
</g>
<g id="Layer_1">
	<path fill="#FFFFFF" d="M535.726,418.099c-2.581-1.457-5.858-0.55-7.318,2.033c-19.543,34.573-63.568,46.804-98.145,27.262
		c-13.149-7.432-22.616-19.54-26.659-34.093c-4.042-14.554-2.176-29.809,5.257-42.958c5.805-10.27,15.261-17.664,26.627-20.82
		c11.369-3.158,23.281-1.7,33.551,4.105c16.443,9.294,22.26,30.233,12.966,46.678c-7.145,12.639-23.239,17.108-35.879,9.965
		c-9.596-5.423-12.99-17.644-7.566-27.238c4.049-7.162,13.167-9.695,20.328-5.647c5.213,2.947,7.058,9.586,4.11,14.799
		c-2.066,3.655-6.72,4.947-10.377,2.882c-1.165-0.659-2.005-1.733-2.363-3.023c-0.359-1.292-0.193-2.646,0.467-3.813
		c1.459-2.582,0.549-5.857-2.033-7.317c-2.578-1.459-5.858-0.551-7.318,2.032c-2.071,3.664-2.592,7.916-1.466,11.972
		c1.127,4.057,3.765,7.431,7.429,9.502c8.813,4.979,20.031,1.863,25.014-6.947c5.86-10.37,2.192-23.575-8.176-29.436
		c-12.317-6.962-28.001-2.605-34.966,9.712c-8.338,14.752-3.12,33.537,11.633,41.876c5.748,3.249,12.003,4.792,18.179,4.791
		c12.94-0.001,25.527-6.776,32.337-18.822c12.208-21.602,4.567-49.106-17.032-61.314c-12.766-7.216-27.578-9.029-41.711-5.104
		c-2.034,0.565-4.012,1.251-5.94,2.029c10.345-6.946,19.271-16.329,25.808-27.895c1.46-2.583,0.55-5.859-2.033-7.318
		c-2.58-1.458-5.857-0.55-7.317,2.032c-19.543,34.574-63.568,46.804-98.145,27.263c-13.149-7.432-22.617-19.54-26.659-34.094
		c-4.042-14.553-2.176-29.809,5.257-42.958c5.805-10.27,15.261-17.664,26.626-20.821c11.369-3.157,23.282-1.699,33.552,4.105
		c16.442,9.294,22.26,30.234,12.966,46.679c-7.145,12.64-23.239,17.108-35.88,9.965c-9.595-5.424-12.989-17.644-7.565-27.238
		c4.049-7.161,13.167-9.694,20.328-5.646c5.213,2.946,7.057,9.586,4.11,14.798c-2.066,3.655-6.721,4.948-10.377,2.882
		c-1.166-0.659-2.006-1.732-2.364-3.024c-0.358-1.291-0.192-2.646,0.467-3.813c1.459-2.581,0.55-5.858-2.033-7.318
		c-2.577-1.458-5.857-0.55-7.318,2.033c-2.07,3.665-2.592,7.916-1.465,11.972c1.126,4.057,3.765,7.432,7.429,9.502
		c8.813,4.979,20.031,1.863,25.013-6.947c5.861-10.369,2.193-23.574-8.176-29.436c-12.316-6.962-28-2.606-34.965,9.712
		c-8.338,14.753-3.12,33.538,11.633,41.876c5.748,3.25,12.003,4.793,18.178,4.792c12.941-0.001,25.528-6.777,32.338-18.824
		c11.223-19.856,5.66-44.695-12.09-58.061c11.004,5.021,22.643,7.435,34.162,7.435c28.891,0,56.992-15.131,72.194-42.025
		c1.459-2.582,0.549-5.858-2.034-7.318c-2.58-1.457-5.857-0.55-7.317,2.032c-19.543,34.574-63.568,46.805-98.145,27.263
		c-13.149-7.433-22.616-19.54-26.659-34.093c-4.042-14.554-2.176-29.81,5.257-42.958c5.805-10.27,15.261-17.664,26.627-20.821
		c11.369-3.158,23.281-1.699,33.551,4.105c16.442,9.294,22.26,30.233,12.966,46.678c-7.145,12.64-23.239,17.109-35.879,9.966
		c-9.596-5.424-12.99-17.644-7.566-27.239c4.049-7.161,13.167-9.694,20.328-5.646c5.213,2.946,7.057,9.586,4.11,14.799
		c-2.066,3.654-6.721,4.947-10.377,2.881c-1.165-0.658-2.005-1.732-2.363-3.023c-0.359-1.292-0.193-2.646,0.466-3.813
		c1.46-2.582,0.55-5.858-2.033-7.318c-2.577-1.458-5.857-0.55-7.317,2.032c-2.071,3.665-2.592,7.917-1.466,11.972
		c1.127,4.057,3.765,7.432,7.429,9.502c8.813,4.98,20.031,1.863,25.013-6.947c5.861-10.369,2.193-23.574-8.176-29.435
		c-12.316-6.962-28-2.606-34.965,9.711c-8.338,14.753-3.12,33.538,11.633,41.877c5.748,3.249,12.003,4.792,18.179,4.791
		c12.94-0.001,25.527-6.777,32.337-18.823c12.207-21.601,4.566-49.105-17.032-61.314c-12.767-7.216-27.578-9.028-41.711-5.104
		c-14.131,3.925-25.887,13.118-33.104,25.885c-8.844,15.646-11.065,33.801-6.255,51.118c0.567,2.043,1.232,4.041,1.976,5.999
		c-20.097,33.004-63.056,44.372-96.94,25.22c-13.149-7.433-22.617-19.54-26.659-34.093c-4.042-14.554-2.176-29.81,5.257-42.958
		c5.804-10.27,15.26-17.664,26.626-20.821s23.281-1.699,33.551,4.105c16.444,9.294,22.261,30.233,12.966,46.678
		c-7.144,12.639-23.239,17.109-35.879,9.966c-9.596-5.424-12.99-17.644-7.566-27.239c1.96-3.47,5.155-5.967,8.995-7.033
		c3.84-1.067,7.864-0.573,11.333,1.387c2.526,1.428,4.344,3.753,5.121,6.548c0.775,2.795,0.417,5.726-1.011,8.251
		c-1,1.771-2.631,3.045-4.59,3.59c-1.96,0.543-4.015,0.292-5.786-0.709c-1.166-0.658-2.006-1.732-2.364-3.023
		c-0.359-1.292-0.193-2.646,0.467-3.813c1.459-2.582,0.549-5.859-2.034-7.318c-2.583-1.46-5.859-0.549-7.318,2.033
		c-2.071,3.664-2.591,7.916-1.465,11.972s3.765,7.431,7.429,9.501c4.268,2.412,9.219,3.02,13.944,1.707
		c4.725-1.313,8.654-4.386,11.067-8.653c2.84-5.023,3.552-10.852,2.008-16.412c-1.544-5.56-5.161-10.185-10.184-13.023
		c-5.967-3.374-12.89-4.221-19.494-2.386c-6.604,1.834-12.098,6.131-15.47,12.097c-8.339,14.753-3.121,33.538,11.631,41.877
		c17.797,10.059,40.457,3.764,50.517-14.032c5.914-10.464,7.399-22.604,4.183-34.185s-10.751-21.216-21.215-27.13
		c-12.767-7.216-27.58-9.028-41.711-5.104c-14.13,3.925-25.887,13.118-33.103,25.885c-8.844,15.646-11.066,33.801-6.256,51.118
		c0.568,2.043,1.232,4.041,1.976,5.998c-20.097,33.005-63.055,44.373-96.939,25.221c-13.149-7.433-22.618-19.54-26.66-34.093
		c-4.042-14.554-2.176-29.81,5.257-42.958c5.804-10.27,15.26-17.664,26.626-20.821c11.366-3.157,23.281-1.698,33.551,4.105
		c7.966,4.502,13.701,11.837,16.15,20.653c2.449,8.816,1.318,18.059-3.185,26.024c-3.46,6.123-9.098,10.531-15.875,12.414
		c-6.778,1.881-13.881,1.013-20.003-2.448c-9.596-5.424-12.99-17.644-7.566-27.239c1.96-3.47,5.154-5.967,8.994-7.033
		c3.839-1.067,7.865-0.573,11.334,1.387c2.525,1.428,4.344,3.753,5.12,6.548s0.418,5.726-1.01,8.251c-1,1.771-2.63,3.045-4.59,3.59
		c-1.96,0.543-4.015,0.292-5.785-0.709c-1.167-0.658-2.006-1.732-2.365-3.023c-0.358-1.292-0.192-2.646,0.467-3.813
		c1.46-2.582,0.55-5.858-2.032-7.318c-2.582-1.459-5.859-0.55-7.318,2.032c-2.072,3.665-2.592,7.917-1.466,11.973
		s3.765,7.431,7.429,9.501c4.269,2.413,9.221,3.021,13.945,1.707c4.724-1.313,8.655-4.386,11.067-8.653
		c2.839-5.023,3.552-10.853,2.008-16.412c-1.544-5.56-5.161-10.185-10.184-13.024c-5.967-3.372-12.89-4.219-19.494-2.385
		s-12.098,6.131-15.47,12.097c-4.04,7.146-5.054,15.438-2.857,23.348c2.197,7.909,7.342,14.489,14.489,18.528
		c8.621,4.873,18.622,6.098,28.164,3.446c9.541-2.649,17.479-8.856,22.352-17.478c5.914-10.464,7.399-22.604,4.183-34.185
		c-3.217-11.581-10.751-21.216-21.215-27.13c-26.356-14.896-59.917-5.574-74.814,20.781c-8.844,15.646-11.065,33.801-6.255,51.119
		c4.295,15.463,13.75,28.594,26.862,37.527c-25.18-10.256-54.746-0.451-68.471,23.833c-8.844,15.646-11.065,33.801-6.255,51.118
		s16.077,31.725,31.724,40.57c12.836,7.254,26.799,10.697,40.587,10.697c11.955,0,23.77-2.598,34.594-7.542
		c-6.117,4.465-11.409,10.256-15.372,17.268c-8.844,15.646-11.065,33.801-6.255,51.118s16.077,31.726,31.724,40.569
		c12.835,7.255,26.799,10.698,40.587,10.698c25.923,0,51.204-12.19,67.107-34.123c5.893,9.652,14.163,17.707,24.279,23.425
		c12.836,7.254,26.799,10.697,40.587,10.697c25.924,0,51.204-12.189,67.107-34.12c5.893,9.651,14.163,17.705,24.279,23.423
		c12.836,7.254,26.799,10.697,40.587,10.697c28.891,0,56.992-15.131,72.194-42.025C539.219,422.836,538.308,419.559,535.726,418.099
		z M332.409,339.876c-10.207-3.362-21.18-3.644-31.77-0.703c-2.045,0.568-4.033,1.259-5.972,2.043
		c7.883-5.292,14.945-11.995,20.753-20.004C319.828,328.43,325.565,334.754,332.409,339.876z M363.284,208.732
		c4.905,8.034,11.462,14.955,19.356,20.35c-11.182-4.556-23.479-5.304-35.306-2.021c-1.533,0.426-3.033,0.926-4.508,1.474
		C350.591,223.275,357.55,216.641,363.284,208.732z M328.958,236.118c-5.938,4.477-10.957,10.159-14.727,16.829
		c-8.844,15.646-11.065,33.801-6.255,51.118c0.567,2.043,1.231,4.042,1.976,5.998c-20.097,33.005-63.056,44.372-96.94,25.221
		c-13.149-7.432-22.617-19.54-26.66-34.094c-4.042-14.553-2.176-29.809,5.257-42.958c5.804-10.27,15.261-17.664,26.626-20.821
		c11.367-3.157,23.281-1.699,33.551,4.105c16.444,9.294,22.261,30.234,12.966,46.679c-7.145,12.639-23.24,17.108-35.88,9.966
		c-9.596-5.425-12.99-17.645-7.566-27.239c1.96-3.47,5.155-5.968,8.994-7.034c3.84-1.066,7.864-0.573,11.333,1.388
		c2.525,1.427,4.343,3.752,5.12,6.548c0.776,2.795,0.417,5.726-1.01,8.251c-1,1.771-2.631,3.045-4.59,3.59
		c-1.96,0.542-4.014,0.292-5.785-0.709c-1.167-0.659-2.006-1.732-2.364-3.024c-0.359-1.291-0.193-2.646,0.466-3.813
		c1.459-2.581,0.549-5.858-2.033-7.318c-2.583-1.459-5.859-0.549-7.318,2.033c-2.071,3.665-2.591,7.917-1.465,11.973
		s3.765,7.431,7.429,9.501c4.268,2.412,9.22,3.019,13.945,1.706c4.724-1.312,8.654-4.384,11.067-8.653
		c2.839-5.023,3.552-10.851,2.008-16.411c-1.544-5.56-5.161-10.186-10.185-13.024c-5.967-3.373-12.89-4.221-19.494-2.386
		c-6.604,1.835-12.098,6.131-15.47,12.098c-8.338,14.752-3.121,33.537,11.631,41.876c17.796,10.059,40.457,3.765,50.517-14.032
		c5.914-10.463,7.399-22.604,4.183-34.184c-2.681-9.651-8.369-17.942-16.244-23.864c10.996,5.013,22.625,7.422,34.133,7.422
		C307.467,242.853,318.634,240.539,328.958,236.118z M231.31,208.731c4.905,8.034,11.462,14.956,19.355,20.35
		c-11.182-4.555-23.48-5.303-35.305-2.02c-1.533,0.426-3.032,0.926-4.506,1.474C218.617,223.274,225.576,216.64,231.31,208.731z
		 M81.038,335.284c-13.149-7.432-22.617-19.54-26.66-34.094c-4.043-14.553-2.176-29.809,5.256-42.958
		c5.805-10.27,15.26-17.664,26.626-20.821s23.281-1.698,33.551,4.105c7.965,4.503,13.701,11.838,16.15,20.653
		c2.449,8.817,1.318,18.06-3.185,26.025c-3.46,6.123-9.099,10.53-15.875,12.413c-6.778,1.882-13.881,1.014-20.003-2.447
		c-9.596-5.425-12.991-17.645-7.566-27.24c1.96-3.469,5.154-5.967,8.994-7.033s7.865-0.573,11.334,1.388
		c2.525,1.427,4.344,3.752,5.12,6.548c0.776,2.795,0.418,5.726-1.01,8.251c-1,1.771-2.631,3.045-4.59,3.59
		c-1.96,0.542-4.015,0.292-5.785-0.709c-1.167-0.659-2.006-1.733-2.365-3.024c-0.359-1.291-0.193-2.646,0.467-3.812
		c1.46-2.582,0.55-5.859-2.033-7.318c-2.582-1.459-5.858-0.55-7.318,2.032c-2.072,3.664-2.592,7.916-1.466,11.973
		c1.126,4.056,3.765,7.431,7.429,9.501c4.268,2.413,9.221,3.02,13.945,1.706c4.724-1.312,8.655-4.384,11.067-8.653
		c2.839-5.023,3.552-10.852,2.008-16.411c-1.544-5.56-5.161-10.186-10.184-13.024c-5.967-3.373-12.89-4.219-19.494-2.386
		c-6.604,1.835-12.098,6.131-15.47,12.098c-4.04,7.146-5.055,15.438-2.857,23.348s7.343,14.489,14.489,18.528
		c8.621,4.873,18.623,6.097,28.164,3.446c9.541-2.65,17.479-8.857,22.352-17.478c5.914-10.464,7.4-22.604,4.183-34.185
		c-2.681-9.652-8.369-17.943-16.243-23.864c10.996,5.013,22.625,7.422,34.134,7.422c11.29,0,22.456-2.313,32.78-6.734
		c-5.938,4.477-10.956,10.158-14.725,16.828c-8.845,15.646-11.066,33.801-6.256,51.118c0.567,2.043,1.232,4.041,1.975,5.998
		C157.882,343.068,114.923,354.436,81.038,335.284z M183.447,321.211c4.416,7.233,10.167,13.568,17.029,18.696
		c-12.609-4.142-26.051-3.446-37.905,1.392C170.505,335.994,177.61,329.262,183.447,321.211z M267.537,365.058
		c-8.844,15.646-11.066,33.801-6.255,51.118c0.567,2.043,1.232,4.04,1.975,5.997c-20.097,33.006-63.055,44.373-96.939,25.221
		c-13.149-7.432-22.618-19.54-26.66-34.093c-4.042-14.554-2.176-29.809,5.257-42.958c5.804-10.27,15.26-17.664,26.626-20.82
		c11.366-3.158,23.281-1.698,33.551,4.105c7.966,4.501,13.701,11.836,16.15,20.652s1.318,18.059-3.185,26.025
		c-3.46,6.122-9.098,10.53-15.875,12.413c-6.777,1.882-13.881,1.014-20.003-2.448c-9.596-5.423-12.99-17.644-7.566-27.239
		c1.96-3.469,5.154-5.967,8.994-7.033c3.839-1.067,7.864-0.573,11.333,1.387c2.525,1.428,4.344,3.754,5.12,6.549
		s0.418,5.725-1.01,8.251c-1.001,1.771-2.631,3.045-4.591,3.589c-1.96,0.543-4.015,0.293-5.785-0.708
		c-1.167-0.659-2.006-1.733-2.365-3.023c-0.359-1.292-0.193-2.646,0.466-3.813c1.46-2.581,0.55-5.857-2.032-7.317
		c-2.582-1.459-5.859-0.551-7.318,2.031c-2.072,3.665-2.592,7.917-1.466,11.973c1.126,4.057,3.765,7.431,7.429,9.501
		c4.269,2.413,9.222,3.021,13.945,1.707c4.724-1.312,8.654-4.385,11.067-8.653c2.839-5.023,3.553-10.852,2.008-16.411
		s-5.161-10.186-10.184-13.025c-5.966-3.371-12.89-4.218-19.494-2.385c-6.604,1.835-12.098,6.131-15.47,12.098
		c-4.04,7.146-5.054,15.438-2.857,23.347c2.197,7.91,7.342,14.489,14.489,18.529c8.621,4.872,18.622,6.097,28.164,3.446
		c9.541-2.65,17.479-8.857,22.352-17.478c5.914-10.464,7.399-22.604,4.183-34.185c-2.407-8.663-7.229-16.236-13.886-21.978
		c9.94,3.984,20.322,5.903,30.608,5.903c11.905,0,23.671-2.577,34.458-7.481C276.61,352.385,271.413,358.199,267.537,365.058z
		 M399.51,365.058c-8.844,15.646-11.064,33.801-6.254,51.118c0.566,2.043,1.231,4.041,1.975,5.998
		c-20.097,33.005-63.056,44.372-96.94,25.22c-13.148-7.432-22.616-19.54-26.659-34.093c-4.042-14.554-2.176-29.809,5.257-42.958
		c5.804-10.27,15.26-17.664,26.626-20.82c11.366-3.158,23.281-1.7,33.551,4.105c16.444,9.294,22.261,30.233,12.967,46.678
		c-7.145,12.639-23.24,17.108-35.88,9.965c-9.597-5.423-12.99-17.644-7.566-27.239c1.961-3.469,5.155-5.967,8.994-7.033
		c3.841-1.067,7.864-0.573,11.333,1.387c2.526,1.428,4.344,3.754,5.121,6.549c0.775,2.795,0.417,5.725-1.011,8.251
		c-1,1.771-2.631,3.045-4.59,3.589c-1.96,0.543-4.015,0.293-5.785-0.708c-1.167-0.659-2.007-1.733-2.365-3.023
		c-0.358-1.292-0.192-2.646,0.468-3.813c1.459-2.582,0.548-5.858-2.033-7.317c-2.584-1.46-5.86-0.55-7.318,2.033
		c-2.071,3.664-2.592,7.915-1.466,11.971c1.127,4.057,3.766,7.432,7.43,9.501c4.268,2.413,9.22,3.02,13.945,1.707
		c4.724-1.312,8.653-4.385,11.066-8.653c2.84-5.023,3.553-10.852,2.008-16.411c-1.544-5.56-5.16-10.185-10.184-13.024
		c-5.967-3.373-12.89-4.221-19.494-2.386c-6.604,1.835-12.098,6.131-15.47,12.098c-8.339,14.752-3.121,33.537,11.631,41.876
		c17.796,10.059,40.457,3.765,50.517-14.031c5.914-10.464,7.399-22.604,4.183-34.185c-2.406-8.663-7.229-16.235-13.886-21.978
		c9.939,3.984,20.321,5.903,30.607,5.903c11.896,0,23.655-2.57,34.438-7.466C408.572,352.397,403.383,358.207,399.51,365.058z"/>
</g>
</svg>
