<?xml version="1.0" encoding="utf-8"?>
<!-- Generator: Adobe Illustrator 15.0.0, SVG Export Plug-In . SVG Version: 6.00 Build 0)  -->
<!DOCTYPE svg PUBLIC "-//W3C//DTD SVG 1.1//EN" "http://www.w3.org/Graphics/SVG/1.1/DTD/svg11.dtd">
<svg version="1.1" xmlns="http://www.w3.org/2000/svg" xmlns:xlink="http://www.w3.org/1999/xlink" x="0px" y="0px" width="580px"
	 height="580px" viewBox="0 0 580 580" enable-background="new 0 0 580 580" xml:space="preserve">
<g id="Layer_2">
	<g id="g1327">
		<path id="path1329" fill="#111111" stroke="#EEEEEE" stroke-width="3.408" d="M66.275,1.768
			c-41.335,0-64.571,21.371-64.571,65.036v450.123c0,40.844,20.894,62.229,62.192,62.229H515.92
			c41.307,0,62.229-20.316,62.229-62.229V66.804c0-42.601-20.923-65.036-63.522-65.036C514.624,1.768,66.133,1.625,66.275,1.768z"/>
	</g>
</g>
<g id="svg2" inkscape:output_extension="org.inkscape.output.svg.inkscape" inkscape:version="0.46" sodipodi:docname="waste_bin.svg" sodipodi:version="0.32" xmlns:inkscape="http://www.inkscape.org/namespaces/inkscape" xmlns:rdf="http://www.w3.org/1999/02/22-rdf-syntax-ns#" xmlns:svg="http://www.w3.org/2000/svg" xmlns:sodipodi="http://sodipodi.sourceforge.net/DTD/sodipodi-0.dtd" xmlns:cc="http://creativecommons.org/ns#" xmlns:dc="http://purl.org/dc/elements/1.1/">
	<g>
		<g id="path3447">
			<polygon fill="#FFFFFF" points="63.801,399.894 47.479,391.593 154.713,180.74 430.294,180.106 532.521,390.128 516.058,398.142 
				418.854,198.443 165.956,199.024 			"/>
		</g>
		<g id="path3449">
			<path fill="#FFFFFF" d="M291.488,385.926c-27.977,0.001-54.856-9.784-76.644-28.089c-25.009-21.012-40.326-50.647-43.132-83.447
				c-0.636-7.365-0.604-14.835,0.098-22.197l7.956,0.757c-0.655,6.884-0.686,13.867-0.091,20.757
				c2.623,30.671,16.938,58.375,40.311,78.012c22.894,19.234,51.806,28.388,81.421,25.778
				c61.786-5.419,107.689-60.831,102.327-123.523l7.963-0.681c5.736,67.073-43.425,126.362-109.59,132.165
				C298.556,385.771,295.013,385.926,291.488,385.926z"/>
		</g>
		<g id="path3449_1_" opacity="0.5">
			
				<path sodipodi:start="6.1966302" sodipodi:end="9.5203826" sodipodi:open="true" sodipodi:ry="3.0357144" sodipodi:rx="4.1071429" sodipodi:cy="26.285715" sodipodi:cx="13.035714" sodipodi:type="arc" fill="#FFFFFF" d="
				M407.716,253.633c5.557,64.968-41.88,122.224-105.958,127.844c-64.063,5.649-120.507-42.459-126.063-107.427
				c-0.617-7.149-0.586-14.33,0.094-21.479L407.716,253.633z"/>
		</g>
	</g>
</g>
</svg>
