<?xml version="1.0" encoding="utf-8"?>
<!-- Generator: Adobe Illustrator 15.0.0, SVG Export Plug-In . SVG Version: 6.00 Build 0)  -->
<!DOCTYPE svg PUBLIC "-//W3C//DTD SVG 1.1//EN" "http://www.w3.org/Graphics/SVG/1.1/DTD/svg11.dtd">
<svg version="1.1" xmlns="http://www.w3.org/2000/svg" xmlns:xlink="http://www.w3.org/1999/xlink" x="0px" y="0px" width="580px"
	 height="580px" viewBox="0 0 580 580" enable-background="new 0 0 580 580" xml:space="preserve">
<g id="Layer_2_1_">
	<g id="Layer_2">
		<g id="g1327">
			<path id="path1329" fill="#111111" stroke="#EEEEEE" stroke-width="3.408" d="M66.275,1.768
				c-41.335,0-64.571,21.371-64.571,65.036v450.123c0,40.844,20.895,62.229,62.192,62.229h452.024
				c41.307,0,62.229-20.315,62.229-62.229V66.804c0-42.602-20.923-65.036-63.521-65.036C514.625,1.768,66.133,1.625,66.275,1.768z"
				/>
		</g>
	</g>
</g>
<g id="Layer_1">
	<path fill="#FFFFFF" d="M507.5,160.5v28.305c-6.876-1.703-13.249-8.994-24.703-8.47c-11.935,0.412-28.789,11.103-45.075,11.103
		c-16.517-0.353-35.066-11.574-51.92-11.574c-16.797,0.119-32.067,11.754-48.186,12.106c-16.401,0.06-32.746-10.866-48.808-11.104
		c-16.288-0.414-31.728,9.687-46.942,9.568c-14.987-0.295-28.278-11.045-43.152-10.571c-15.271,0.589-32.012,12.401-46.942,13.112
		c-15.043,0.234-28.674-10.987-41.964-11.105c-13.313-0.233-28.24,8.09-37.308,10.055V160.5h-19v240v19h19h435h19v-19v-240H507.5z
		 M507.5,400.5h-435v-15.044c9.067-1.967,23.993-10.287,37.308-10.055c13.291,0.118,26.921,11.34,41.964,11.105
		c14.931-0.712,31.672-12.523,46.942-13.113c14.874-0.473,28.164,10.277,43.152,10.572c15.215,0.118,30.654-9.982,46.942-9.568
		c16.062,0.237,32.406,11.163,48.808,11.103c16.118-0.353,31.389-11.991,48.186-12.106c16.854,0,35.403,11.223,51.92,11.575
		c16.286,0,33.143-10.69,45.075-11.104c11.454-0.407,17.827,6.767,24.703,8.526V400.5z M507.5,351.034
		c-6.876-1.703-13.249-8.994-24.703-8.471c-11.935,0.412-28.789,11.103-45.075,11.103c-16.517-0.353-35.066-11.574-51.92-11.574
		c-16.797,0.119-32.067,11.754-48.186,12.106c-16.401,0.06-32.746-10.866-48.808-11.104c-16.288-0.414-31.728,9.687-46.942,9.568
		c-14.987-0.295-28.278-11.045-43.152-10.571c-15.271,0.589-32.012,12.401-46.942,13.112c-15.043,0.234-28.674-10.987-41.964-11.105
		c-13.313-0.232-28.24,8.09-37.308,10.055V331.38c9.067-1.967,23.993-10.287,37.308-10.055c13.291,0.118,26.921,11.34,41.964,11.105
		c14.931-0.712,31.672-12.523,46.942-13.113c14.874-0.473,28.164,10.277,43.152,10.572c15.215,0.118,30.654-9.982,46.942-9.568
		c16.062,0.237,32.406,11.163,48.808,11.103c16.118-0.353,31.389-11.991,48.186-12.106c16.854,0,35.403,11.223,51.92,11.575
		c16.286,0,33.143-10.69,45.075-11.104c11.454-0.407,17.827,6.767,24.703,8.526V351.034z M507.5,296.957
		c-6.876-1.702-13.249-8.993-24.703-8.47c-11.935,0.412-28.789,11.103-45.075,11.103c-16.517-0.353-35.066-11.574-51.92-11.574
		c-16.797,0.119-32.067,11.754-48.186,12.106c-16.401,0.06-32.746-10.866-48.808-11.104c-16.288-0.414-31.728,9.687-46.942,9.568
		c-14.987-0.295-28.278-11.045-43.152-10.571c-15.271,0.589-32.012,12.401-46.942,13.112c-15.043,0.234-28.674-10.987-41.964-11.105
		c-13.313-0.233-28.24,8.09-37.308,10.055v-22.773c9.067-1.967,23.993-10.288,37.308-10.055
		c13.291,0.118,26.921,11.34,41.964,11.105c14.931-0.712,31.672-12.523,46.942-13.113c14.874-0.473,28.164,10.277,43.152,10.572
		c15.215,0.118,30.654-9.982,46.942-9.568c16.062,0.237,32.406,11.163,48.808,11.103c16.118-0.353,31.389-11.991,48.186-12.106
		c16.854,0,35.403,11.223,51.92,11.575c16.286,0,33.143-10.69,45.075-11.104c11.454-0.407,17.827,6.767,24.703,8.526V296.957z
		 M507.5,242.881c-6.876-1.703-13.249-8.994-24.703-8.47c-11.935,0.412-28.789,11.103-45.075,11.103
		c-16.517-0.353-35.066-11.574-51.92-11.574c-16.797,0.119-32.067,11.754-48.186,12.106c-16.401,0.06-32.746-10.866-48.808-11.104
		c-16.288-0.414-31.728,9.687-46.942,9.568c-14.987-0.295-28.278-11.045-43.152-10.571c-15.271,0.589-32.012,12.401-46.942,13.112
		c-15.043,0.234-28.674-10.987-41.964-11.105c-13.313-0.233-28.24,8.09-37.308,10.055v-22.773
		c9.067-1.967,23.993-10.288,37.308-10.055c13.291,0.118,26.921,11.34,41.964,11.105c14.931-0.712,31.672-12.523,46.942-13.113
		c14.874-0.473,28.164,10.277,43.152,10.572c15.215,0.118,30.654-9.982,46.942-9.568c16.062,0.237,32.406,11.163,48.808,11.103
		c16.118-0.353,31.389-11.991,48.186-12.106c16.854,0,35.403,11.223,51.92,11.575c16.286,0,33.143-10.69,45.075-11.104
		c11.454-0.407,17.827,6.767,24.703,8.526V242.881z"/>
</g>
</svg>
