<?xml version="1.0" encoding="UTF-8" standalone="no"?>
<!-- Generator: Adobe Illustrator 15.0.0, SVG Export Plug-In . SVG Version: 6.00 Build 0)  -->

<svg
   xmlns:dc="http://purl.org/dc/elements/1.1/"
   xmlns:cc="http://creativecommons.org/ns#"
   xmlns:rdf="http://www.w3.org/1999/02/22-rdf-syntax-ns#"
   xmlns:svg="http://www.w3.org/2000/svg"
   xmlns="http://www.w3.org/2000/svg"
   xmlns:sodipodi="http://sodipodi.sourceforge.net/DTD/sodipodi-0.dtd"
   xmlns:inkscape="http://www.inkscape.org/namespaces/inkscape"
   version="1.1"
   x="0px"
   y="0px"
   width="580px"
   height="580px"
   viewBox="0 0 580 580"
   enable-background="new 0 0 580 580"
   xml:space="preserve"
   id="svg42"
   sodipodi:docname="riverbank.svg"
   inkscape:version="0.92.3 (2405546, 2018-03-11)"><metadata
   id="metadata48"><rdf:RDF><cc:Work
       rdf:about=""><dc:format>image/svg+xml</dc:format><dc:type
         rdf:resource="http://purl.org/dc/dcmitype/StillImage" /><dc:title></dc:title></cc:Work></rdf:RDF></metadata><defs
   id="defs46">
	

		
		
		
	</defs><sodipodi:namedview
   pagecolor="#ffffff"
   bordercolor="#666666"
   borderopacity="1"
   objecttolerance="10"
   gridtolerance="10"
   guidetolerance="10"
   inkscape:pageopacity="0"
   inkscape:pageshadow="2"
   inkscape:window-width="1287"
   inkscape:window-height="813"
   id="namedview44"
   showgrid="false"
   inkscape:zoom="0.97035431"
   inkscape:cx="290"
   inkscape:cy="290"
   inkscape:window-x="156"
   inkscape:window-y="156"
   inkscape:window-maximized="0"
   inkscape:current-layer="svg42" />
<g
   id="Layer_2">
	<g
   id="g1327">
		<path
   id="path1329"
   fill="#111111"
   stroke="#EEEEEE"
   stroke-width="3.408"
   d="M66.275,1.768    c-41.335,0-64.571,21.371-64.571,65.036v450.123c0,40.844,20.894,62.229,62.192,62.229H515.92    c41.307,0,62.229-20.316,62.229-62.229V66.804c0-42.601-20.923-65.036-63.522-65.036C514.624,1.768,66.133,1.625,66.275,1.768z" />
	</g>
</g>

<g
   id="g222"
   transform="translate(10.698236,-52.505978)"><path
     style="fill:#ffffff"
     inkscape:connector-curvature="0"
     id="path33"
     d="m 155.751,224.287 c -20.672,-0.032 -74.868,0.704 -101.47,1.438 V 467.038 H 291.713 C 276.041,221.453 284.017,197.486 155.751,224.287 Z" /><g
     id="g188"
     transform="translate(-38.324472,0.83244501)"><path
       style="fill:#ffffff;fill-opacity:1;fill-rule:evenodd"
       d="m 371,320.03125 c -21.16508,0.47154 -41.70183,12.29345 -61.5625,11.59375 -0.81011,-0.038 -1.57291,-0.0763 -2.375,-0.15625 v 43.71875 c 0.40337,0.0285 0.81332,0.0451 1.21875,0.0625 21.16268,0.74556 43.00554,-12.62271 65.65625,-11.59375 22.33727,0.93646 44.71025,16.76797 67.53125,17.3125 22.43815,0.11817 44.06307,-15.47396 67.4375,-15 10.92376,0.26166 22.26914,3.98713 33.59375,8 V 329.9375 c -10.91701,-3.81786 -21.84664,-7.27505 -32.375,-7.5625 -23.37449,-0.47218 -45.06186,15.18069 -67.5,15.0625 -22.82106,-0.54273 -45.16278,-16.37424 -67.5,-17.3125 -0.7077,-0.0373 -1.38757,-0.0842 -2.09375,-0.0937 -0.6841,-0.009 -1.34851,-0.0152 -2.03125,0 z"
       id="path3815"
       inkscape:connector-curvature="0" /><path
       style="fill:#ffffff;fill-opacity:1;fill-rule:evenodd"
       d="m 378.65625,408.4375 c -21.89129,-0.29547 -43.0924,12.34726 -63.59375,11.625 -0.8101,-0.038 -1.60417,-0.10752 -2.40625,-0.1875 v 43.71875 c 0.40337,0.0285 0.81332,0.0763 1.21875,0.0937 21.16268,0.74557 43.0368,-12.65395 65.6875,-11.625 22.33727,0.93647 44.67899,16.76797 67.5,17.3125 22.43815,0.11817 44.09432,-15.47395 67.46875,-15 9.11534,0.21834 18.52347,2.86553 27.96875,6.0625 v -44 c -9.0369,-2.99128 -18.02651,-5.41808 -26.75,-5.65625 -23.37449,-0.47219 -45.06187,15.1807 -67.5,15.0625 -22.82106,-0.54272 -45.16278,-16.37424 -67.5,-17.3125 -0.7077,-0.0373 -1.38757,-0.0842 -2.09375,-0.0937 z"
       id="path3831"
       inkscape:connector-curvature="0" /></g></g></svg>