<?xml version="1.0" encoding="UTF-8" standalone="no"?>
<!-- Created with Inkscape (http://www.inkscape.org/) -->

<svg
   xmlns:dc="http://purl.org/dc/elements/1.1/"
   xmlns:cc="http://creativecommons.org/ns#"
   xmlns:rdf="http://www.w3.org/1999/02/22-rdf-syntax-ns#"
   xmlns:svg="http://www.w3.org/2000/svg"
   xmlns="http://www.w3.org/2000/svg"
   xmlns:sodipodi="http://sodipodi.sourceforge.net/DTD/sodipodi-0.dtd"
   xmlns:inkscape="http://www.inkscape.org/namespaces/inkscape"
   version="1.0"
   width="580"
   height="580"
   id="svg2"
   sodipodi:version="0.32"
   inkscape:version="0.92.3 (2405546, 2018-03-11)"
   sodipodi:docname="seamark.svg"
   inkscape:output_extension="org.inkscape.output.svg.inkscape">
  <metadata
     id="metadata2975">
    <rdf:RDF>
      <cc:Work
         rdf:about="">
        <dc:format>image/svg+xml</dc:format>
        <dc:type
           rdf:resource="http://purl.org/dc/dcmitype/StillImage" />
        <cc:license
           rdf:resource="http://web.resource.org/cc/PublicDomain" />
        <dc:language>en</dc:language>
        <dc:title></dc:title>
      </cc:Work>
    </rdf:RDF>
  </metadata>
  <sodipodi:namedview
     inkscape:window-height="813"
     inkscape:window-width="1340"
     inkscape:pageshadow="2"
     inkscape:pageopacity="0.0"
     guidetolerance="10.0"
     gridtolerance="10.0"
     objecttolerance="10.0"
     borderopacity="1.0"
     bordercolor="#666666"
     pagecolor="#ffffff"
     id="base"
     inkscape:zoom="0.92167712"
     inkscape:cx="301.5186"
     inkscape:cy="281.19503"
     inkscape:window-x="361"
     inkscape:window-y="91"
     inkscape:current-layer="svg2"
     showgrid="false"
     inkscape:window-maximized="0" />
  <defs
     id="defs4">
    <inkscape:perspective
       sodipodi:type="inkscape:persp3d"
       inkscape:vp_x="0 : 290 : 1"
       inkscape:vp_y="0 : 1000 : 0"
       inkscape:vp_z="580 : 290 : 1"
       inkscape:persp3d-origin="290 : 193.33333 : 1"
       id="perspective2441" />
    <inkscape:perspective
       id="perspective3452"
       inkscape:persp3d-origin="30 : 20 : 1"
       inkscape:vp_z="60 : 30 : 1"
       inkscape:vp_y="0 : 1000 : 0"
       inkscape:vp_x="0 : 30 : 1"
       sodipodi:type="inkscape:persp3d" />
    <symbol
       viewBox="244.5 110 489 219.9"
       id="symbol-university">
      <path
         id="path4460"
         d="M79,43l57,119c0,0,21-96,104-96s124,106,124,106l43-133l82-17L0,17L79,43z" />
      <path
         id="path4462"
         d="M94,176l-21,39"
         stroke-width="20"
         stroke="#000000"
         fill="none" />
      <path
         id="path4464"
         d="M300,19c0,10.5-22.6,19-50.5,19S199,29.5,199,19s22.6-19,50.5-19S300,8.5,300,19z" />
      <path
         id="path4466"
         d="M112,216l-16-38L64,88c0,0-9-8-4-35s16-24,16-24"
         stroke-width="20"
         stroke="#000000"
         ill="none" />
    </symbol>
    <inkscape:perspective
       id="perspective4471"
       inkscape:persp3d-origin="372.04724 : 350.78739 : 1"
       inkscape:vp_z="744.09448 : 526.18109 : 1"
       inkscape:vp_y="0 : 1000 : 0"
       inkscape:vp_x="0 : 526.18109 : 1"
       sodipodi:type="inkscape:persp3d" />
    <inkscape:perspective
       id="perspective4668"
       inkscape:persp3d-origin="6 : 4 : 1"
       inkscape:vp_z="12 : 6 : 1"
       inkscape:vp_y="0 : 1000 : 0"
       inkscape:vp_x="0 : 6 : 1"
       sodipodi:type="inkscape:persp3d" />
  </defs>
  <g
     id="g1327">
    <path
       d="M 66.275,1.768 C 24.94,1.768 1.704,23.139 1.704,66.804 L 1.704,516.927 C 1.704,557.771 22.599,579.156 63.896,579.156 L 515.92,579.156 C 557.227,579.156 578.149,558.841 578.149,516.927 L 578.149,66.804 C 578.149,24.203 557.227,1.768 514.628,1.768 C 514.624,1.768 66.133,1.625 66.275,1.768 z "
       style="fill:#111;stroke:#eee;stroke-width:3.40799999"
       id="path1329" />
  </g>
  <g
     id="layer3"
     inkscape:label="Layout"
     style="display:none;stroke:#757575;stroke-opacity:1"
     transform="matrix(48.14969,0,0,48.14969,-536.27327,-33.306752)">
    <rect
       style="fill:none;stroke:#757575;stroke-width:0.10000000000000001;stroke-miterlimit:4;stroke-dasharray:none;stroke-opacity:1;display:inline"
       id="rect4134"
       width="10"
       height="10"
       x="1"
       y="1" />
    <rect
       style="fill:none;stroke:#757575;stroke-width:0.10000000000000001;stroke-miterlimit:4;stroke-dasharray:none;stroke-opacity:1;display:inline"
       id="rect4136"
       width="8"
       height="8"
       x="2"
       y="2" />
  </g>
  <path
     style="fill:#7d7d7d;fill-opacity:1;fill-rule:evenodd;stroke:#000000;stroke-width:1.13061845px;stroke-linecap:butt;stroke-linejoin:miter;stroke-opacity:1"
     d="M 57.483811,78.943475 522.35316,77.57506 286.2605,502.67659 Z"
     id="path853"
     inkscape:connector-curvature="0"
     sodipodi:nodetypes="cccc" />
  <path
     style="font-style:normal;font-variant:normal;font-weight:normal;font-stretch:normal;font-size:40px;line-height:125%;font-family:NPSPICT3;-inkscape-font-specification:NPSPICT3;text-align:start;writing-mode:lr-tb;text-anchor:start;fill:#ffffff;fill-opacity:1;stroke:none;stroke-width:6.84365749px;stroke-linecap:butt;stroke-linejoin:miter;stroke-opacity:1"
     d="m 281.65603,138.06393 c -3.28608,1.5e-4 -6.16127,-1.23208 -8.62559,-3.69668 -2.46457,-2.46429 -3.6968,-5.43137 -3.69667,-8.90126 -1.3e-4,-3.28577 1.2321,-6.15957 3.69667,-8.62141 2.46432,-2.46149 5.33951,-3.69232 8.62559,-3.6925 3.46958,1.8e-4 6.43527,1.23101 8.89709,3.6925 2.46152,2.46184 3.69235,5.33564 3.6925,8.62141 -1.5e-4,3.46989 -1.23098,6.43697 -3.6925,8.90126 -2.46182,2.4646 -5.42751,3.69683 -8.89709,3.69668 z m 93.6241,67.06651 c -0.72982,-4.38302 -3.46716,-6.57458 -8.21205,-6.57466 -2.19456,8e-5 -4.20232,0.91347 -6.02329,2.74013 l -30.39212,28.47069 c -2.18895,1.82125 -3.28333,4.01001 -3.28315,6.5663 -1.8e-4,4.38315 2.00758,7.2124 6.02328,8.48774 l 7.66905,2.46445 c -3.83193,10.40364 -9.94571,19.30072 -18.34137,26.69127 -8.39602,7.39057 -18.06864,12.18024 -29.01788,14.36901 V 153.39365 c 12.22464,-5.29634 18.33703,-14.60555 18.33719,-27.92766 -1.6e-4,-8.2091 -2.96585,-15.27942 -8.89709,-21.21099 -5.93154,-5.931214 -13.09376,-8.896904 -21.48667,-8.897094 -8.21497,1.9e-4 -15.28669,2.96588 -21.21518,8.897094 -5.92871,5.93157 -8.89302,13.00189 -8.89291,21.21099 -1.1e-4,13.32211 6.20418,22.63132 18.61288,27.92766 v 135.2274 c -11.13331,-2.18876 -21.08022,-6.97982 -29.84075,-14.37318 -8.76073,-7.39334 -15.05691,-16.38092 -18.88856,-26.96278 l 7.66904,-2.46445 c 4.00986,-1.27534 6.01484,-4.10459 6.01493,-8.48774 -9e-5,-2.3725 -1.00258,-4.56127 -3.00747,-6.5663 l -30.65945,-28.47069 c -1.82681,-1.82666 -3.83457,-2.74005 -6.02328,-2.74013 -4.74516,8e-5 -7.48251,2.19164 -8.21206,6.57466 l -6.5663,41.33595 c -0.18382,0.90785 -0.27572,1.54555 -0.27569,1.91309 -3e-5,5.84231 3.01022,8.76345 9.03076,8.76342 0.91333,3e-5 1.73482,-0.0919 2.46445,-0.27569 l 7.11767,-2.46445 c 5.84222,17.52129 16.29038,31.84713 31.34449,42.97754 15.05393,11.13038 32.07117,16.69559 51.05174,16.69561 18.79651,-2e-5 35.86108,-5.65573 51.19377,-16.96712 14.78094,-10.94941 25.09264,-25.18474 30.93513,-42.70603 l 7.11767,2.46445 c 0.72937,0.18382 1.55085,0.27572 2.46446,0.27569 6.02026,3e-5 9.03051,-2.92111 9.03075,-8.76342 -2.4e-4,-0.36754 -0.0921,-1.00524 -0.27568,-1.91309 z"
     id="flowRoot3192"
     inkscape:connector-curvature="0" />
</svg>
