<?xml version="1.0" encoding="utf-8"?>
<!-- Generator: Adobe Illustrator 15.0.0, SVG Export Plug-In . SVG Version: 6.00 Build 0)  -->
<!DOCTYPE svg PUBLIC "-//W3C//DTD SVG 1.1//EN" "http://www.w3.org/Graphics/SVG/1.1/DTD/svg11.dtd">
<svg version="1.1" xmlns="http://www.w3.org/2000/svg" xmlns:xlink="http://www.w3.org/1999/xlink" x="0px" y="0px" width="580px"
	 height="580px" viewBox="0 0 580 580" enable-background="new 0 0 580 580" xml:space="preserve">
<g id="Layer_2_1_">
	<g id="Layer_2">
		<g id="g1327">
			<path id="path1329" fill="#111111" stroke="#EEEEEE" stroke-width="3.408" d="M66.275,1.768
				c-41.335,0-64.571,21.371-64.571,65.036v450.123c0,40.844,20.895,62.229,62.192,62.229h452.024
				c41.307,0,62.229-20.315,62.229-62.229V66.804c0-42.602-20.923-65.036-63.521-65.036C514.625,1.768,66.133,1.625,66.275,1.768z"
				/>
		</g>
	</g>
</g>
<g id="Layer_1">
	<g>
		<path fill="#FFFFFF" d="M52.174,484.869c0,0,111-169,182-149s90,7,114,3s59-20,179.652,143.915L52.174,484.869z"/>
		<path fill="#FFFFFF" d="M296,123.869c64-43,124-25,124-25c-110,11-95,102.007-95,102.007c88-31.993,137,20.993,137,20.993
			c-128-33-157,112.355-157,112.355h-34.826c0,0-29-145.355-157-112.355c0,0,49-52.985,137-20.993c0,0,15-91.007-95-102.007
			c0,0,60-18,124,25C279.174,123.869,287.587,133.869,296,123.869L296,123.869z"/>
	</g>
</g>
</svg>
