<?xml version="1.0" encoding="utf-8"?>
<!-- Generator: Adobe Illustrator 15.0.0, SVG Export Plug-In . SVG Version: 6.00 Build 0)  -->
<!DOCTYPE svg PUBLIC "-//W3C//DTD SVG 1.1//EN" "http://www.w3.org/Graphics/SVG/1.1/DTD/svg11.dtd">
<svg version="1.1" xmlns="http://www.w3.org/2000/svg" xmlns:xlink="http://www.w3.org/1999/xlink" x="0px" y="0px" width="580px"
	 height="580px" viewBox="0 0 580 580" enable-background="new 0 0 580 580" xml:space="preserve">
<g id="Layer_2_1_">
	<g id="Layer_2">
		<g id="g1327">
			<path id="path1329" fill="#111111" stroke="#EEEEEE" stroke-width="3.408" d="M66.275,1.768
				c-41.335,0-64.571,21.371-64.571,65.036v450.123c0,40.844,20.895,62.229,62.192,62.229h452.024
				c41.307,0,62.229-20.315,62.229-62.229V66.804c0-42.602-20.923-65.036-63.521-65.036C514.625,1.768,66.133,1.625,66.275,1.768z"
				/>
		</g>
	</g>
</g>
<g id="Layer_1">
	<g>
		<path fill="#FFFFFF" d="M353.326,357.056c-9.259-2.748-18.478-5.043-27.294-4.914c-21.243,0.455-40.343,15.449-60.724,16.189
			c-20.742,0.377-41.613-13.145-61.933-13.152c-20.608-0.227-39.951,12.83-59.196,12.961c-18.959-0.102-35.966-13.455-54.771-12.586
			c-9.997,0.533-20.438,4.875-30.803,9.105v39.82c10.552-4.301,21.193-8.795,31.373-9.334c18.806-0.871,35.81,12.486,54.771,12.58
			c19.245-0.125,38.588-13.182,59.197-12.957c20.318,0.008,41.19,13.529,61.933,13.15c20.381-0.738,39.479-15.738,60.723-16.191
			c8.635-0.125,17.657,2.078,26.723,4.748V357.056z"/>
		<path fill="#FFFFFF" d="M353.326,446.9c-9.259-2.748-18.478-5.043-27.294-4.916c-21.243,0.457-40.343,15.451-60.724,16.189
			c-20.742,0.377-41.613-13.145-61.933-13.15c-20.608-0.227-39.951,12.83-59.196,12.959c-18.959-0.1-35.966-13.453-54.771-12.586
			c-9.997,0.533-20.438,4.877-30.803,9.105v39.822c10.552-4.301,21.193-8.797,31.373-9.336c18.806-0.871,35.81,12.486,54.771,12.582
			c19.245-0.127,38.588-13.184,59.197-12.957c20.318,0.006,41.19,13.527,61.933,13.148c20.381-0.738,39.479-15.736,60.723-16.189
			c8.635-0.125,17.657,2.076,26.723,4.748V446.9z"/>
		<g>
			<path fill="#FFFFFF" d="M442.708,482.646c-4.44-41.578-22.431-148.127-94.308-261.669c-0.092,0.16-0.185,0.317-0.277,0.478
				c-0.008-0.313-0.008-0.619-0.013-0.931c-2.042-3.217-4.139-6.441-6.269-9.668c-73.383,23.778-95.022,47.914-124.382,98.492
				c-1.87-83.312,50.328-104.109,92.213-107.458c-55.781-2.206-83.453,11.55-124.415,40.802
				c40.233-94.556,116.202-68.608,152.733-48.919C296.33,139.25,360.712,82.23,360.712,82.23
				c-15.77,48.12-17.434,74.541-9.193,102.03c21.799-94.648,139.728-67.037,139.728-67.037
				c-62.473,18.182-92.207,35.34-115.412,62.999c71.419-52.53,145.56,33.755,145.56,33.755
				c-72.582-26.32-107.101-26.595-150.243-11.143c49.743,77.806,74.69,152.163,86.933,201.844
				c10.147,41.174,13.446,72.055,14.507,86.578C484.209,495.267,417.171,476.642,442.708,482.646z"/>
		</g>
	</g>
</g>
</svg>
