<?xml version="1.0" encoding="UTF-8" standalone="no"?>
<!-- Generator: Adobe Illustrator 15.0.0, SVG Export Plug-In . SVG Version: 6.00 Build 0)  -->

<svg
   xmlns:dc="http://purl.org/dc/elements/1.1/"
   xmlns:cc="http://creativecommons.org/ns#"
   xmlns:rdf="http://www.w3.org/1999/02/22-rdf-syntax-ns#"
   xmlns:svg="http://www.w3.org/2000/svg"
   xmlns="http://www.w3.org/2000/svg"
   xmlns:sodipodi="http://sodipodi.sourceforge.net/DTD/sodipodi-0.dtd"
   xmlns:inkscape="http://www.inkscape.org/namespaces/inkscape"
   version="1.1"
   x="0px"
   y="0px"
   width="580px"
   height="580px"
   viewBox="0 0 580 580"
   enable-background="new 0 0 580 580"
   xml:space="preserve"
   id="svg3000"
   inkscape:version="0.48.4 r9939"
   sodipodi:docname="way_sp.svg"><metadata
   id="metadata3013"><rdf:RDF><cc:Work
       rdf:about=""><dc:format>image/svg+xml</dc:format><dc:type
         rdf:resource="http://purl.org/dc/dcmitype/StillImage" /><dc:title></dc:title></cc:Work></rdf:RDF></metadata><defs
   id="defs3011" /><sodipodi:namedview
   pagecolor="#ffffff"
   bordercolor="#666666"
   borderopacity="1"
   objecttolerance="10"
   gridtolerance="10"
   guidetolerance="10"
   inkscape:pageopacity="0"
   inkscape:pageshadow="2"
   inkscape:window-width="1725"
   inkscape:window-height="1026"
   id="namedview3009"
   showgrid="false"
   inkscape:snap-nodes="false"
   inkscape:zoom="1.0965517"
   inkscape:cx="309.84776"
   inkscape:cy="398.69183"
   inkscape:window-x="145"
   inkscape:window-y="76"
   inkscape:window-maximized="0"
   inkscape:current-layer="svg3000" />
<g
   id="Layer_1"
   transform="translate(0.0735,-0.43022222)">
	<g
   id="Layer_2">
		<g
   id="g1327">
			<path
   id="path1329"
   d="M 66.275,1.768 C 24.94,1.768 1.704,23.139 1.704,66.804 v 450.123 c 0,40.844 20.895,62.229 62.192,62.229 H 515.92 c 41.307,0 62.229,-20.315 62.229,-62.229 V 66.804 c 0,-42.602 -20.923,-65.036 -63.521,-65.036 -0.003,0 -448.495,-0.143 -448.353,0 z"
   inkscape:connector-curvature="0"
   style="fill:#111111;stroke:#eeeeee;stroke-width:3.40799999" />
		</g>
	</g>
</g>

<path
   inkscape:connector-curvature="0"
   id="path3797"
   d="m 543.4995,175.53431 c 0,0 -42.12881,35.83972 -72.37419,80.3595 -27.50041,40.47938 -15.73648,78.96876 -100.5373,64.99548 -84.8008,-13.97327 -129.8959,-44.69066 -179.56215,6.55318 -74.28891,74.04259 -70.15662,99.68546 -70.15662,99.68546 l -84.385787,0.97331 c 0,0 28.581171,-57.91743 106.517877,-134.69589 77.93669,-76.7784 110.77995,-45.49425 191.2355,-17.08461 78.783,27.81903 73.77944,38.07212 123.05319,-30.77278 28.07355,-39.22418 86.22653,-93.64921 86.22653,-93.64921 z"
   style="fill:#ffffff;fill-opacity:1;stroke:#ffffff;stroke-width:0.60840148px;stroke-linecap:butt;stroke-linejoin:miter;stroke-opacity:1"
   sodipodi:nodetypes="ssscccssscs" /></svg>