<?xml version="1.0" encoding="utf-8"?>
<!-- Generator: Adobe Illustrator 15.0.0, SVG Export Plug-In . SVG Version: 6.00 Build 0)  -->
<!DOCTYPE svg PUBLIC "-//W3C//DTD SVG 1.1//EN" "http://www.w3.org/Graphics/SVG/1.1/DTD/svg11.dtd">
<svg version="1.1" xmlns="http://www.w3.org/2000/svg" xmlns:xlink="http://www.w3.org/1999/xlink" x="0px" y="0px" width="580px"
	 height="580px" viewBox="0 0 580 580" enable-background="new 0 0 580 580" xml:space="preserve">
<g id="Layer_2">
	<g id="g1327">
		<path id="path1329" fill="#111111" stroke="#EEEEEE" stroke-width="3.408" d="M66.275,1.768
			c-41.335,0-64.571,21.371-64.571,65.036v450.123c0,40.844,20.894,62.229,62.192,62.229H515.92
			c41.307,0,62.229-20.316,62.229-62.229V66.804c0-42.601-20.923-65.036-63.522-65.036C514.624,1.768,66.133,1.625,66.275,1.768z"/>
	</g>
</g>
<g id="svg2" inkscape:version="0.46" sodipodi:docname="waste_bin.svg" sodipodi:version="0.32" xmlns:inkscape="http://www.inkscape.org/namespaces/inkscape" xmlns:rdf="http://www.w3.org/1999/02/22-rdf-syntax-ns#" xmlns:dc="http://purl.org/dc/elements/1.1/" xmlns:cc="http://creativecommons.org/ns#" xmlns:svg="http://www.w3.org/2000/svg" xmlns:sodipodi="http://sodipodi.sourceforge.net/DTD/sodipodi-0.dtd" inkscape:output_extension="org.inkscape.output.svg.inkscape">
	<g>
		<path fill="#FFFFFF" d="M155.751,224.287c-20.672-0.032-74.868,0.704-101.47,1.438v241.313h237.432
			C276.041,221.453,284.017,197.486,155.751,224.287z"/>
		<path fill="#FFFFFF" d="M364.137,299.545c-7.261-19.992-18.906-37.183-26.184-56.673c-6.693-19.842,2.394-42.659-3.088-60.326
			c-3.109-11.015-7.865-18.445-13.122-23.544c-1.188-2.345-6.063-6.583-18.149-13.871c-13.969-9.876-30.052-12.11-46.281-11.813
			c-16.618,0.121-40.436,14.369-63.094,13.75c-22.966-1.117-48.364-17.453-71.813-18.094c-0.73-0.015-1.46-0.016-2.188,0
			c-22.544,0.486-43.575,15.118-65.313,15c-0.21-0.005-0.415-0.023-0.625-0.031v43.625c22.24-0.135,43.757-15.474,66.938-15
			c23.448,0.641,48.815,16.914,71.781,18.031c22.658,0.619,46.539-13.629,63.156-13.75c8.9-0.073,15.508,3.088,21.262,6.368
			c3.358,2.956,6.927,6.379,10.614,10.458c5.483,17.668,1.733,42.62,8.428,62.462c7.277,19.49,11.448,27.604,18.708,47.597
			c0.306,0.859,5.203,12.658,7.414,18.171C322.481,321.896,334.5,354,330.75,404c-3.122,41.634-1.25,63.037-1.25,63.037
			c8.219,6.9,36.85-0.709,59.5,0.319c22.338,0.937-19-144.356-20.96-154.237C367.239,309.387,365.958,304.905,364.137,299.545z"/>
		<path fill="#FFFFFF" d="M508.5,349.5c-70-13-98,108-98,108c30-33,66-31,98-39S578.5,362.5,508.5,349.5z"/>
	</g>
</g>
</svg>
