<?xml version="1.0" encoding="UTF-8" standalone="no"?>
<!-- Generator: Adobe Illustrator 15.0.0, SVG Export Plug-In . SVG Version: 6.00 Build 0)  -->

<svg
   xmlns:dc="http://purl.org/dc/elements/1.1/"
   xmlns:cc="http://creativecommons.org/ns#"
   xmlns:rdf="http://www.w3.org/1999/02/22-rdf-syntax-ns#"
   xmlns:svg="http://www.w3.org/2000/svg"
   xmlns="http://www.w3.org/2000/svg"
   xmlns:sodipodi="http://sodipodi.sourceforge.net/DTD/sodipodi-0.dtd"
   xmlns:inkscape="http://www.inkscape.org/namespaces/inkscape"
   version="1.1"
   x="0px"
   y="0px"
   width="580px"
   height="580px"
   viewBox="0 0 580 580"
   enable-background="new 0 0 580 580"
   xml:space="preserve"
   id="svg3000"
   inkscape:version="0.48.4 r9939"
   sodipodi:docname="waterway_sp.svg"><metadata
   id="metadata3013"><rdf:RDF><cc:Work
       rdf:about=""><dc:format>image/svg+xml</dc:format><dc:type
         rdf:resource="http://purl.org/dc/dcmitype/StillImage" /><dc:title></dc:title></cc:Work></rdf:RDF></metadata><defs
   id="defs3011" /><sodipodi:namedview
   pagecolor="#ffffff"
   bordercolor="#666666"
   borderopacity="1"
   objecttolerance="10"
   gridtolerance="10"
   guidetolerance="10"
   inkscape:pageopacity="0"
   inkscape:pageshadow="2"
   inkscape:window-width="1725"
   inkscape:window-height="1026"
   id="namedview3009"
   showgrid="false"
   inkscape:snap-nodes="false"
   inkscape:zoom="1.0965517"
   inkscape:cx="309.84776"
   inkscape:cy="398.69183"
   inkscape:window-x="145"
   inkscape:window-y="76"
   inkscape:window-maximized="0"
   inkscape:current-layer="svg3000" />
<g
   id="Layer_1"
   transform="translate(0.0735,-0.43022222)">
	<g
   id="Layer_2">
		<g
   id="g1327">
			<path
   id="path1329"
   d="M 66.275,1.768 C 24.94,1.768 1.704,23.139 1.704,66.804 v 450.123 c 0,40.844 20.895,62.229 62.192,62.229 H 515.92 c 41.307,0 62.229,-20.315 62.229,-62.229 V 66.804 c 0,-42.602 -20.923,-65.036 -63.521,-65.036 -0.003,0 -448.495,-0.143 -448.353,0 z"
   inkscape:connector-curvature="0"
   style="fill:#111111;stroke:#eeeeee;stroke-width:3.40799999" />
		</g>
	</g>
</g>

<path
   inkscape:connector-curvature="0"
   id="path3797"
   d="m 542.58755,157.29531 c 0,0 -26.01472,19.58628 -56.87105,62.12051 C 422.56407,306.46895 404.08186,329.2834 335.02197,303.56224 197.4573,252.32667 190.53488,268.90304 140.86863,320.14687 66.579716,394.18946 63.416408,428.03988 63.416408,428.03988 l -26.932955,0.0614 c 0,0 21.188442,-66.22728 106.517877,-134.69589 84.32033,-67.6589 100.54984,-22.52275 183.02795,-0.66951 70.57545,18.69953 82.29655,21.87753 131.26074,-47.18788 27.1616,-38.31223 86.22653,-93.64921 86.22653,-93.64921 z"
   style="fill:#ffffff;fill-opacity:1;stroke:#ffffff;stroke-width:0.60840148px;stroke-linecap:butt;stroke-linejoin:miter;stroke-opacity:1"
   sodipodi:nodetypes="ssscccssscs" /></svg>