<?xml version="1.0" encoding="UTF-8" standalone="no"?>
<!-- Generator: Adobe Illustrator 15.0.0, SVG Export Plug-In . SVG Version: 6.00 Build 0)  -->

<svg
   xmlns:dc="http://purl.org/dc/elements/1.1/"
   xmlns:cc="http://creativecommons.org/ns#"
   xmlns:rdf="http://www.w3.org/1999/02/22-rdf-syntax-ns#"
   xmlns:svg="http://www.w3.org/2000/svg"
   xmlns="http://www.w3.org/2000/svg"
   xmlns:sodipodi="http://sodipodi.sourceforge.net/DTD/sodipodi-0.dtd"
   xmlns:inkscape="http://www.inkscape.org/namespaces/inkscape"
   version="1.1"
   x="0px"
   y="0px"
   width="580px"
   height="580px"
   viewBox="0 0 580 580"
   enable-background="new 0 0 580 580"
   xml:space="preserve"
   id="svg937"
   sodipodi:docname="bathing_place.svg"
   inkscape:version="0.92.3 (2405546, 2018-03-11)"><metadata
   id="metadata943"><rdf:RDF><cc:Work
       rdf:about=""><dc:format>image/svg+xml</dc:format><dc:type
         rdf:resource="http://purl.org/dc/dcmitype/StillImage" /><dc:title></dc:title></cc:Work></rdf:RDF></metadata><defs
   id="defs941">
	
	
</defs><sodipodi:namedview
   pagecolor="#ffffff"
   bordercolor="#666666"
   borderopacity="1"
   objecttolerance="10"
   gridtolerance="10"
   guidetolerance="10"
   inkscape:pageopacity="0"
   inkscape:pageshadow="2"
   inkscape:window-width="1542"
   inkscape:window-height="942"
   id="namedview939"
   showgrid="false"
   inkscape:zoom="0.99827586"
   inkscape:cx="290"
   inkscape:cy="290"
   inkscape:window-x="112"
   inkscape:window-y="66"
   inkscape:window-maximized="0"
   inkscape:current-layer="svg937" />
<g
   id="Layer_2">
	<g
   id="g1327">
		<path
   id="path1329"
   d="M 66.275,1.768 C 24.94,1.768 1.704,23.139 1.704,66.804 v 450.123 c 0,40.844 20.894,62.229 62.192,62.229 H 515.92 c 41.307,0 62.229,-20.316 62.229,-62.229 V 66.804 c 0,-42.601 -20.923,-65.036 -63.522,-65.036 -0.003,0 -448.494,-0.143 -448.352,0 z"
   inkscape:connector-curvature="0"
   style="fill:#111111;stroke:#eeeeee;stroke-width:3.40799999" />
	</g>
</g>
<g
   id="g898"
   transform="matrix(0.78678501,0,0,0.78678501,121.9502,108.07085)">
		<g
   id="path113">
			<path
   style="fill:#ffffff"
   inkscape:connector-curvature="0"
   id="path883"
   d="m 520.083,438.008 c -4.073,1.243 -9.333,1.005 -16.232,-0.471 -7.012,-1.596 -13.404,-9.036 -25.054,-8.625 -11.935,0.414 -28.789,11.104 -45.075,11.104 -16.517,-0.352 -35.066,-11.577 -51.92,-11.577 -16.797,0.119 -32.067,11.753 -48.186,12.108 -16.401,0.058 -32.746,-10.866 -48.808,-11.103 -16.288,-0.412 -31.728,9.688 -46.942,9.567 -14.987,-0.293 -28.278,-11.045 -43.152,-10.573 -15.271,0.594 -32.012,12.404 -46.942,13.113 -15.043,0.237 -28.674,-10.984 -41.964,-11.104 -13.403,-0.236 -28.448,8.21 -37.497,10.101 -9.05,1.715 -14.762,1.892 -16.91,0.532 v 31.304 c 2.148,1.357 7.86,1.182 16.91,-0.532 9.049,-1.891 24.093,-10.336 37.497,-10.101 13.291,0.119 26.921,11.34 41.964,11.102 14.931,-0.588 31.672,-12.697 46.942,-13.111 14.874,-0.59 28.164,10.396 43.152,10.631 15.215,0.12 30.654,-9.92 46.942,-9.625 16.062,0.234 32.406,11.159 48.808,11.104 16.118,-0.355 31.389,-11.991 48.186,-12.109 16.854,-0.057 35.403,11.341 51.92,11.639 16.286,0 33.143,-10.694 45.075,-11.105 11.649,-0.533 18.042,7.027 25.054,8.563 6.899,1.477 12.159,1.712 16.232,0.472 z" />
		</g>
		<g
   id="path115">
			<path
   style="fill:#ffffff"
   inkscape:connector-curvature="0"
   id="path886"
   d="m 252.062,421.355 129.399,-69.043 c -10.178,-22.326 -17.361,-39.157 -21.547,-51.147 -4.3,-11.931 -6.108,-14.588 -3.677,-20.258 2.488,-5.848 -0.962,-6.733 17.985,-14.47 18.945,-8.032 75.614,-31.066 94.108,-32.188 18.098,-0.944 17.363,19.018 14.366,25.752 -3.281,6.555 -20.136,8.208 -32.916,13.406 -12.953,4.961 -27.204,10.513 -43.662,16.655 l 59.213,130.289 c -7.634,6.555 -17.759,9.097 -31.444,8.091 -13.913,-1.355 -32.465,-14.585 -49.77,-14.647 -17.25,0.063 -36.932,14.826 -52.71,15.12 -15.835,-0.061 -28.391,-12.815 -41.626,-14.113 -13.287,-1.304 -25.786,0.881 -37.719,6.553 z" />
		</g>
		<g
   id="path117">
			<path
   style="fill:#ffffff"
   inkscape:connector-curvature="0"
   id="path889"
   d="m 484.546,308.613 c 19.949,0 36.138,16.906 36.138,37.739 0,20.833 -16.189,37.739 -36.138,37.739 -19.949,0 -36.14,-16.906 -36.14,-37.739 0,-20.833 16.191,-37.739 36.14,-37.739" />
		</g>
		<g
   id="path119">
			<path
   style="fill:#ffffff"
   inkscape:connector-curvature="0"
   id="path892"
   d="m 164.739,423.894 c -15.327,-2.836 -30.936,-7.202 -47.902,-13.113 -17.08,-6.257 -46.206,-14.646 -53.106,-22.855 -6.899,-8.445 -1.867,-25.336 12.047,-26.104 13.969,-0.768 41.682,11.636 70.469,21.913 28.617,10.16 61.363,22.857 99.991,38.745 -4.751,2.599 -11.028,3.425 -19.06,2.243 -8.145,-1.36 -18.437,-8.86 -28.9,-9.096 -10.52,-0.179 -21.549,2.657 -33.539,8.267 z" />
		</g>
		<g
   id="path121">
			<path
   style="fill:#ffffff"
   inkscape:connector-curvature="0"
   id="path895"
   d="m 520.083,490.398 c -4.073,1.12 -9.333,0.944 -16.232,-0.532 -7.012,-1.534 -13.404,-9.098 -25.054,-8.565 -11.935,0.412 -28.789,11.103 -45.075,11.103 -16.517,-0.353 -35.066,-11.574 -51.92,-11.574 -16.797,0.119 -32.067,11.754 -48.186,12.106 -16.401,0.06 -32.746,-10.866 -48.808,-11.104 -16.288,-0.414 -31.728,9.687 -46.942,9.568 -14.987,-0.295 -28.278,-11.045 -43.152,-10.571 -15.271,0.589 -32.012,12.401 -46.942,13.112 -15.043,0.234 -28.674,-10.987 -41.964,-11.105 -13.403,-0.234 -28.448,8.21 -37.497,10.101 -9.05,1.833 -14.762,1.771 -16.91,0.473 v 31.303 c 2.148,1.299 7.86,1.36 16.91,-0.473 9.049,-1.893 24.093,-10.335 37.497,-10.101 13.291,0.118 26.921,11.34 41.964,11.105 14.931,-0.712 31.672,-12.523 46.942,-13.113 14.874,-0.473 28.164,10.277 43.152,10.572 15.215,0.118 30.654,-9.982 46.942,-9.568 16.062,0.237 32.406,11.163 48.808,11.103 16.118,-0.353 31.389,-11.991 48.186,-12.106 16.854,0 35.403,11.223 51.92,11.575 16.286,0 33.143,-10.69 45.075,-11.104 11.649,-0.414 18.042,7.026 25.054,8.624 6.899,1.477 12.159,1.714 16.232,0.475 z" />
		</g>
	</g><g
   id="g934"
   transform="matrix(0.88302578,0,0,0.88302578,24.84443,37.446763)">
		<circle
   style="fill:#ffffff"
   id="circle900"
   r="56.247002"
   cy="152.705"
   cx="153.45" />
		<g
   id="g904">
			<rect
   style="fill:#ffffff"
   id="rect902"
   height="60.542999"
   width="7.5489998"
   y="28.964001"
   x="149.675" />
		</g>
		<g
   id="g908">
			
				<rect
   style="fill:#ffffff"
   id="rect906"
   height="60.542"
   width="7.5489998"
   transform="matrix(0.7071,0.7071,-0.7071,0.7071,125.5468,-129.8717)"
   y="56.341"
   x="215.76801" />
		</g>
		<g
   id="g912">
			<rect
   style="fill:#ffffff"
   id="rect910"
   height="7.5489998"
   width="60.542"
   y="148.931"
   x="216.64799" />
		</g>
		<g
   id="g916">
			
				<rect
   style="fill:#ffffff"
   id="rect914"
   height="7.5489998"
   width="60.542"
   transform="matrix(0.7071,0.7071,-0.7071,0.7071,219.0146,-91.1556)"
   y="215.024"
   x="189.272" />
		</g>
		<g
   id="g920">
			<rect
   style="fill:#ffffff"
   id="rect918"
   height="60.542"
   width="7.5489998"
   y="215.90401"
   x="149.675" />
		</g>
		<g
   id="g924">
			
				<rect
   style="fill:#ffffff"
   id="rect922"
   height="60.542"
   width="7.5489998"
   transform="matrix(0.7071,0.7071,-0.7071,0.7071,180.3,2.314)"
   y="188.52699"
   x="83.582001" />
		</g>
		<g
   id="g928">
			<rect
   style="fill:#ffffff"
   id="rect926"
   height="7.5489998"
   width="60.542"
   y="148.931"
   x="29.708" />
		</g>
		<g
   id="g932">
			
				<rect
   style="fill:#ffffff"
   id="rect930"
   height="7.5489998"
   width="60.542"
   transform="matrix(0.7071,0.7071,-0.7071,0.7071,86.8283,-36.4021)"
   y="82.837997"
   x="57.084999" />
		</g>
	</g>
<path
   d="m 104.60513,376.55937 c -12.502193,-0.0194 -45.279336,0.42578 -61.367931,0.86969 V 523.37249 H 186.83345 C 177.35519,374.8454 182.179,360.35042 104.60513,376.55937 Z"
   id="path33"
   inkscape:connector-curvature="0"
   style="fill:#ffffff;stroke-width:0.6047889" /></svg>