<?xml version="1.0" encoding="utf-8"?>
<!-- Generator: Adobe Illustrator 15.0.0, SVG Export Plug-In . SVG Version: 6.00 Build 0)  -->
<!DOCTYPE svg PUBLIC "-//W3C//DTD SVG 1.1//EN" "http://www.w3.org/Graphics/SVG/1.1/DTD/svg11.dtd">
<svg version="1.1" xmlns="http://www.w3.org/2000/svg" xmlns:xlink="http://www.w3.org/1999/xlink" x="0px" y="0px" width="580px"
	 height="580px" viewBox="0 0 580 580" enable-background="new 0 0 580 580" xml:space="preserve">
<g id="Layer_2">
	<g id="g1327">
		<path id="path1329" fill="#111111" stroke="#EEEEEE" stroke-width="3.408" d="M66.275,1.768
			c-41.335,0-64.571,21.371-64.571,65.036v450.123c0,40.844,20.895,62.229,62.192,62.229H515.92
			c41.307,0,62.229-20.315,62.229-62.229V66.804c0-42.601-20.923-65.036-63.521-65.036C514.624,1.768,66.133,1.625,66.275,1.768z"/>
	</g>
</g>
<g id="Layer_4">
	<g>
		<polygon opacity="0.75" fill="#FFFFFF" points="344.123,286.61 312.072,242.54 294.043,286.61 322.242,286.61 		"/>
		<path fill="#FFFFFF" d="M381.599,364.979c23.665-17.952,38.953-46.373,38.953-78.368h-76.429h-21.881h-28.199H230.71v-94.92V93.38
			c-0.048,0-0.097,0-0.146,0c-54.295,0.04-98.277,44.088-98.236,98.383c0.039,52.036,40.498,94.591,91.659,98.009
			c1.006,31.839,17.147,59.859,41.471,77.099l-75.935,176.168l21.356,9.205l75.1-174.229c11.221,4.455,23.455,6.906,36.263,6.906
			c13.91,0,27.142-2.895,39.135-8.105l75.617,175.429l21.355-9.205L381.599,364.979z"/>
		<polygon fill="#FFFFFF" points="366.604,209.562 383.793,140.809 370.255,90.04 386.905,33.431 379.62,31.288 362.368,89.939 
			375.951,140.871 359.237,207.72 		"/>
		<polygon fill="#FFFFFF" points="315.756,209.562 332.942,140.809 319.404,90.04 336.055,33.431 328.77,31.288 311.518,89.939 
			325.101,140.871 308.389,207.72 		"/>
		<polygon fill="#FFFFFF" points="268.295,212.951 285.482,144.199 271.944,93.43 288.594,36.82 281.309,34.678 264.058,93.33 
			277.64,144.26 260.928,211.109 		"/>
	</g>
</g>
</svg>
