<?xml version="1.0" encoding="utf-8"?>
<!-- Generator: Adobe Illustrator 15.0.0, SVG Export Plug-In . SVG Version: 6.00 Build 0)  -->
<!DOCTYPE svg PUBLIC "-//W3C//DTD SVG 1.1//EN" "http://www.w3.org/Graphics/SVG/1.1/DTD/svg11.dtd">
<svg version="1.1" xmlns="http://www.w3.org/2000/svg" xmlns:xlink="http://www.w3.org/1999/xlink" x="0px" y="0px" width="580px"
	 height="580px" viewBox="0 0 580 580" enable-background="new 0 0 580 580" xml:space="preserve">
<g id="Layer_2">
	<g id="g1327">
		<path id="path1329" fill="#111111" stroke="#EEEEEE" stroke-width="3.408" d="M66.275,1.768
			c-41.335,0-64.571,21.371-64.571,65.036v450.123c0,40.844,20.894,62.229,62.192,62.229H515.92
			c41.307,0,62.229-20.316,62.229-62.229V66.804c0-42.601-20.923-65.036-63.522-65.036C514.624,1.768,66.133,1.625,66.275,1.768z"/>
	</g>
</g>
<g id="svg2" inkscape:version="0.46" sodipodi:docname="waste_bin.svg" sodipodi:version="0.32" xmlns:inkscape="http://www.inkscape.org/namespaces/inkscape" xmlns:rdf="http://www.w3.org/1999/02/22-rdf-syntax-ns#" xmlns:dc="http://purl.org/dc/elements/1.1/" xmlns:cc="http://creativecommons.org/ns#" xmlns:svg="http://www.w3.org/2000/svg" xmlns:sodipodi="http://sodipodi.sourceforge.net/DTD/sodipodi-0.dtd" inkscape:output_extension="org.inkscape.output.svg.inkscape">
	<g>
		<path fill="#FFFFFF" d="M320.402,262.276c46.105-32.659,76.203-12.808,76.203-12.808c3.742-6.486,7.908-11.905,12.318-16.44
			l89.867,158.02c0.736,1.296,2.09,2.023,3.48,2.023c0.67,0,1.35-0.169,1.975-0.524c1.92-1.092,2.592-3.533,1.5-5.454
			l-90.781-159.627c28.768-23.587,64.25-15.139,64.25-15.139c16.01-30.738,46.107-36.502,46.107-36.502
			C470.5,131.5,380.598,159.989,380.598,159.989c-74.283,24.508-92.215,92.681-92.215,92.681
			C312.717,247.547,320.402,262.276,320.402,262.276z"/>
		<path fill="#FFFFFF" d="M276.686,300.725l-69.662,10.827l-9.016-9.175c-1.549-1.576-4.082-1.597-5.656-0.049
			c-1.576,1.548-1.598,4.081-0.05,5.656l75.255,76.576l-39.348,8.935c-2.154,0.489-3.505,2.632-3.016,4.786
			c0.422,1.856,2.07,3.115,3.897,3.115c0.293,0,0.591-0.032,0.89-0.101l44.168-10.029l27.658,28.144
			c0.783,0.797,1.816,1.196,2.852,1.196c1.012,0,2.025-0.382,2.805-1.147c1.574-1.548,1.598-4.081,0.049-5.656l-24.194-24.618
			l65.651-14.908l29.789,30.312c0.783,0.797,1.818,1.196,2.854,1.196c1.012,0,2.025-0.382,2.803-1.147
			c1.576-1.548,1.598-4.081,0.049-5.656l-26.324-26.786l18.488-4.198c2.154-0.489,3.504-2.632,3.014-4.786
			c-0.488-2.155-2.637-3.509-4.785-3.015l-23.307,5.292l-76.59-77.933c-1.549-1.576-4.081-1.597-5.656-0.049
			c-1.576,1.548-1.598,4.081-0.049,5.656L276.686,300.725z"/>
		<path fill="#FFFFFF" d="M507.127,445.989c-7.012-1.596-13.404-9.036-25.053-8.625c-11.936,0.414-28.789,11.104-45.076,11.104
			c-16.516-0.352-35.066-11.577-51.92-11.577c-16.797,0.119-32.066,11.753-48.186,12.108c-16.4,0.058-32.746-10.866-48.807-11.103
			c-16.289-0.412-31.729,9.688-46.943,9.567c-14.986-0.293-28.277-11.045-43.152-10.573c-15.27,0.594-32.012,12.404-46.941,13.113
			c-15.043,0.237-28.674-10.984-41.964-11.104c-13.403-0.236-28.448,8.21-37.497,10.101c-9.05,1.715-14.762,1.892-16.91,0.532
			v31.304c2.148,1.357,7.86,1.182,16.91-0.532c9.049-1.891,24.093-10.336,37.497-10.101c13.29,0.119,26.921,11.34,41.964,11.102
			c14.93-0.588,31.672-12.697,46.941-13.111c14.875-0.59,28.164,10.396,43.152,10.631c15.215,0.12,30.654-9.92,46.943-9.625
			c16.061,0.234,32.406,11.159,48.807,11.104c16.119-0.355,31.389-11.991,48.186-12.109c16.854-0.057,35.404,11.341,51.92,11.639
			c16.287,0,33.143-10.694,45.076-11.105c11.648-0.533,18.041,7.027,25.053,8.563c6.9,1.477,12.16,1.712,16.232,0.472V446.46
			C519.287,447.703,514.027,447.465,507.127,445.989z"/>
		<path fill="#FFFFFF" d="M507.127,498.318c-7.012-1.534-13.404-9.098-25.053-8.565c-11.936,0.412-28.789,11.103-45.076,11.103
			c-16.516-0.353-35.066-11.574-51.92-11.574c-16.797,0.119-32.066,11.754-48.186,12.106c-16.4,0.06-32.746-10.866-48.807-11.104
			c-16.289-0.414-31.729,9.687-46.943,9.568c-14.986-0.295-28.277-11.045-43.152-10.571c-15.27,0.589-32.012,12.401-46.941,13.112
			c-15.043,0.234-28.674-10.987-41.964-11.105c-13.403-0.234-28.448,8.21-37.497,10.101c-9.05,1.833-14.762,1.771-16.91,0.473
			v31.303c2.148,1.299,7.86,1.36,16.91-0.473c9.049-1.893,24.093-10.335,37.497-10.101c13.29,0.118,26.921,11.34,41.964,11.105
			c14.93-0.712,31.672-12.523,46.941-13.113c14.875-0.473,28.164,10.277,43.152,10.572c15.215,0.118,30.654-9.982,46.943-9.568
			c16.061,0.237,32.406,11.163,48.807,11.103c16.119-0.353,31.389-11.991,48.186-12.106c16.854,0,35.404,11.223,51.92,11.575
			c16.287,0,33.143-10.69,45.076-11.104c11.648-0.414,18.041,7.026,25.053,8.624c6.9,1.477,12.16,1.714,16.232,0.475v-31.303
			C519.287,499.971,514.027,499.795,507.127,498.318z"/>
		<circle fill="#FFFFFF" cx="150.453" cy="141.668" r="43.536"/>
		<rect x="147.531" y="45.893" fill="#FFFFFF" width="5.844" height="46.861"/>
		
			<rect x="198.688" y="67.083" transform="matrix(0.7072 0.707 -0.707 0.7072 123.028 -116.0402)" fill="#FFFFFF" width="5.844" height="46.859"/>
		<rect x="199.369" y="138.748" fill="#FFFFFF" width="46.859" height="5.842"/>
		
			<rect x="178.18" y="189.903" transform="matrix(0.7071 0.7071 -0.7071 0.7071 195.3897 -86.0828)" fill="#FFFFFF" width="46.861" height="5.843"/>
		<rect x="147.531" y="190.584" fill="#FFFFFF" width="5.844" height="46.86"/>
		
			<rect x="75.868" y="189.903" transform="matrix(-0.7071 0.7071 -0.7071 -0.7071 305.8587 258.9612)" fill="#FFFFFF" width="46.86" height="5.843"/>
		<rect x="54.678" y="138.748" fill="#FFFFFF" width="46.86" height="5.842"/>
		
			<rect x="75.868" y="87.591" transform="matrix(0.7071 0.7071 -0.7071 0.7071 93.0818 -43.7034)" fill="#FFFFFF" width="46.86" height="5.843"/>
	</g>
</g>
</svg>
