<?xml version="1.0" encoding="utf-8"?>
<!-- Generator: Adobe Illustrator 15.0.0, SVG Export Plug-In . SVG Version: 6.00 Build 0)  -->
<!DOCTYPE svg PUBLIC "-//W3C//DTD SVG 1.1//EN" "http://www.w3.org/Graphics/SVG/1.1/DTD/svg11.dtd">
<svg version="1.1" xmlns="http://www.w3.org/2000/svg" xmlns:xlink="http://www.w3.org/1999/xlink" x="0px" y="0px" width="580px"
	 height="580px" viewBox="0 0 580 580" enable-background="new 0 0 580 580" xml:space="preserve">
<g id="Layer_2">
	<g id="g1327">
		<path id="path1329" fill="#111111" stroke="#EEEEEE" stroke-width="3.408" d="M66.275,1.768
			c-41.335,0-64.571,21.371-64.571,65.036v450.123c0,40.844,20.894,62.229,62.192,62.229H515.92
			c41.307,0,62.229-20.316,62.229-62.229V66.804c0-42.601-20.923-65.036-63.522-65.036C514.624,1.768,66.133,1.625,66.275,1.768z"/>
	</g>
</g>
<g id="svg2" xmlns:inkscape="http://www.inkscape.org/namespaces/inkscape" xmlns:cc="http://creativecommons.org/ns#" xmlns:svg="http://www.w3.org/2000/svg" xmlns:dc="http://purl.org/dc/elements/1.1/" xmlns:rdf="http://www.w3.org/1999/02/22-rdf-syntax-ns#" xmlns:sodipodi="http://sodipodi.sourceforge.net/DTD/sodipodi-0.dtd" inkscape:output_extension="org.inkscape.output.svg.inkscape" sodipodi:docname="waste_bin.svg" sodipodi:version="0.32" inkscape:version="0.46">
	<path fill="#FFFFFF" d="M90.5,399.5c0,0,85-2,184.5,75c0,0,89.5-70,214.5-101c0,0-214,136-214.5,168
		C275,541.5,179.5,428.5,90.5,399.5z"/>
	<g>
		<path fill="#FFFFFF" d="M219.626,85.422h38.46c5.424,0,9.82-4.396,9.82-9.82V56.782c0-5.423-4.396-9.82-9.82-9.82h-38.46
			c-5.423,0-9.82,4.397-9.82,9.82v18.821C209.806,81.026,214.203,85.422,219.626,85.422z"/>
		<path fill="#FFFFFF" d="M383.287,94.424h-59.612h-22.218h-22.913h-22.366h-59.465l-27.822,93.287v127.656h0.545
			c3.347,12.52,21.792,22.095,44.053,22.095s40.706-9.575,44.053-22.095h0.545V202.354l20.458,3.359v-34.617h22.913v34.617
			l20.457-3.359v113.013h0.545c3.348,12.52,21.793,22.095,44.053,22.095c22.262,0,40.707-9.575,44.053-22.095h0.545V187.711
			L383.287,94.424z"/>
		<path fill="#FFFFFF" d="M321.914,85.422h38.461c5.422,0,9.82-4.396,9.82-9.82V56.782c0-5.423-4.398-9.82-9.82-9.82h-38.461
			c-5.424,0-9.82,4.397-9.82,9.82v18.821C312.094,81.026,316.49,85.422,321.914,85.422z"/>
	</g>
</g>
</svg>
