<?xml version="1.0" encoding="utf-8"?>
<!-- Generator: Adobe Illustrator 15.0.0, SVG Export Plug-In . SVG Version: 6.00 Build 0)  -->
<!DOCTYPE svg PUBLIC "-//W3C//DTD SVG 1.1//EN" "http://www.w3.org/Graphics/SVG/1.1/DTD/svg11.dtd">
<svg version="1.1" xmlns="http://www.w3.org/2000/svg" xmlns:xlink="http://www.w3.org/1999/xlink" x="0px" y="0px" width="580px"
	 height="580px" viewBox="0 0 580 580" enable-background="new 0 0 580 580" xml:space="preserve">
<g id="Layer_1">
	<g id="Layer_1_1_">
		<g id="Layer_2">
			<g id="g1327">
				<path id="path1329" fill="#111111" stroke="#EEEEEE" stroke-width="3.408" d="M66.275,1.768
					c-41.335,0-64.571,21.371-64.571,65.036v450.123c0,40.844,20.895,62.229,62.192,62.229H515.92
					c41.307,0,62.229-20.315,62.229-62.229V66.804c0-42.601-20.925-65.036-63.521-65.036C514.624,1.768,66.133,1.625,66.275,1.768z"
					/>
			</g>
		</g>
	</g>
</g>
<g id="Layer_2_1_">
	<g>
		<path fill="#FFFFFF" d="M100.601,111.364h373.481l47.997,130.494c0,0-71.996,37.498-234.738,37.498S52.603,241.857,52.603,241.857
			L100.601,111.364z"/>
		<g>
			<g>
				<path fill="#FFFFFF" d="M314.882,368.169c0.609,5.466,5.604,9.756,11.101,9.533l43.646-2.344
					c5.486-0.391,9.263-5.154,8.393-10.585l-2.149-13.421c-0.87-5.431-6.066-9.496-11.547-9.033l-41.992,2.622
					c-5.494,0.253-9.49,4.934-8.881,10.399L314.882,368.169z"/>
			</g>
			<g>
				<path fill="#FFFFFF" d="M327.013,386.948c-5.495,0.227-9.492,4.885-8.883,10.351l1.718,15.408
					c0.609,5.466,5.604,9.732,11.098,9.48l45.742-2.724c5.483-0.429,9.258-5.223,8.388-10.653l-2.42-15.105
					c-0.87-5.431-6.07-9.551-11.557-9.156L327.013,386.948z"/>
			</g>
			<g>
				<path fill="#FFFFFF" d="M260.349,397.369c0.737-5.451-3.157-10.086-8.653-10.3l-49.049-2.602
					c-5.486-0.396-10.686,3.725-11.556,9.155l-2.418,15.099c-0.87,5.431,2.904,10.225,8.388,10.654l49.871,2.915
					c5.495,0.242,10.593-4.02,11.33-9.471L260.349,397.369z"/>
			</g>
			<g>
				<path fill="#FFFFFF" d="M266.017,355.433c0.737-5.451-3.157-10.101-8.652-10.334l-47.941-2.877
					c-5.48-0.46-10.677,3.606-11.547,9.037l-2.151,13.433c-0.87,5.431,2.907,10.193,8.393,10.584l48.828,2.548
					c5.496,0.21,10.595-4.078,11.332-9.529L266.017,355.433z"/>
			</g>
			<g>
				<path fill="#FFFFFF" d="M181.627,452.7c-0.87,5.431,2.901,10.258,8.381,10.727l50.911,3.304
					c5.493,0.274,10.59-3.959,11.327-9.41l2.086-15.433c0.737-5.451-3.156-10.111-8.65-10.357l-50.093-2.969
					c-5.483-0.433-10.681,3.656-11.551,9.087L181.627,452.7z"/>
			</g>
			<g>
				<path fill="#FFFFFF" d="M383.74,463.517c5.48-0.466,9.252-5.291,8.382-10.722l-2.412-15.058
					c-0.87-5.431-6.068-9.521-11.551-9.088l-46.182,2.783c-5.494,0.257-9.49,4.938-8.881,10.404l1.715,15.383
					c0.609,5.466,5.603,9.709,11.096,9.428L383.74,463.517z"/>
			</g>
			<g>
				<path fill="#FFFFFF" d="M188.646,350.231c0.87-5.431-2.871-10.526-8.313-11.322l-44.778-7.481
					c-5.391-1.091-10.712,2.424-11.825,7.81l-3.226,15.61c-1.113,5.386,2.418,10.51,7.848,11.387l46.602,6.298
					c5.461,0.651,10.642-3.259,11.511-8.689L188.646,350.231z"/>
			</g>
			<g>
				<path fill="#FFFFFF" d="M387.282,363.932c0.87,5.431,6.051,9.346,11.513,8.701l46.618-6.248
					c5.431-0.869,8.963-5.988,7.851-11.374l-3.218-15.568c-1.112-5.386-6.436-8.908-11.828-7.826l-44.798,7.416
					c-5.443,0.789-9.185,5.878-8.314,11.309L387.282,363.932z"/>
			</g>
			<g>
				<path fill="#FFFFFF" d="M484.925,412.96c-5.375,1.167-8.861,6.529-7.749,11.915l2.914,14.096
					c1.112,5.386,5.267,9.054,9.23,8.149c0,0,0,0,3.31-0.806c28.19-6.865,47.371-14.253,47.371-14.253
					c5.133-1.977,8.363-7.988,7.179-13.359l-2.737-12.418c-1.185-5.371-6.413-8.315-11.619-6.542c0,0-16.929,5.764-37.485,10.79
					C489.247,412.021,484.925,412.96,484.925,412.96z"/>
			</g>
			<g>
				<path fill="#FFFFFF" d="M400.265,381.805c-5.462,0.648-9.219,5.622-8.349,11.053l2.409,15.042
					c0.87,5.431,6.046,9.305,11.502,8.608l48.496-6.988c5.42-0.936,8.943-6.108,7.83-11.494l-2.964-14.342
					c-1.113-5.386-6.468-9.08-11.898-8.208L400.265,381.805z"/>
			</g>
			<g>
				<path fill="#FFFFFF" d="M111.617,397.849c-1.113,5.386,2.41,10.564,7.828,11.508l48.479,7.044
					c5.455,0.702,10.63-3.166,11.5-8.597l2.408-15.035c0.87-5.431-2.886-10.409-8.347-11.063l-47.011-6.381
					c-5.429-0.879-10.782,2.81-11.896,8.195L111.617,397.849z"/>
			</g>
			<g>
				<path fill="#FFFFFF" d="M463.211,452.543c5.408-1.005,8.921-6.234,7.808-11.62l-2.939-14.226
					c-1.113-5.386-6.459-9.026-11.878-8.09l-48.905,7.068c-5.455,0.699-9.207,5.714-8.337,11.145l2.401,14.993
					c0.87,5.431,6.04,9.261,11.489,8.512L463.211,452.543z"/>
			</g>
			<g>
				<path fill="#FFFFFF" d="M396.756,481.718c-0.87-5.431-6.065-9.49-11.546-9.021l-48.272,3.19
					c-5.492,0.285-9.487,4.99-8.878,10.456l1.608,14.429c0.609,5.466,5.596,9.595,11.079,9.175l49.684-4.567
					c5.466-0.608,9.227-5.55,8.356-10.98L396.756,481.718z"/>
			</g>
			<g>
				<path fill="#FFFFFF" d="M102.754,440.733c-1.113,5.386,2.399,10.622,7.805,11.635l50.343,7.842
					c5.448,0.757,10.617-3.068,11.487-8.499l2.401-14.986c0.87-5.431-2.881-10.451-8.336-11.156l-48.887-7.125
					c-5.418-0.944-10.762,2.69-11.875,8.076L102.754,440.733z"/>
			</g>
			<g>
				<path fill="#FFFFFF" d="M462.387,353.311c1.112,5.386,6.431,8.884,11.817,7.771c0,0,10.198-2.104,18.426-4.108
					c15.766-3.84,28.971-8.032,28.971-8.032c5.242-1.665,8.563-7.421,7.378-12.792l-4.746-21.529
					c-1.185-5.371-6.067-7.545-10.851-4.83l-46.883,14.437c-5.194,1.81-8.532,7.698-7.42,13.084L462.387,353.311z"/>
			</g>
			<g>
				<path fill="#FFFFFF" d="M82.052,356.974c7.991,1.945,17.517,3.922,17.517,3.922c5.385,1.117,10.702-2.376,11.815-7.762
					l3.316-16.044c1.113-5.386-2.224-11.279-7.415-13.097l-45.986-14.202c-4.783-2.715-9.44-0.498-10.349,4.926l-3.69,22.026
					c-0.909,5.424,2.643,11.203,7.893,12.842C55.152,349.585,67.355,353.395,82.052,356.974z"/>
			</g>
			<g>
				<path fill="#FFFFFF" d="M87.761,467.439c1.113-5.386-1.194-10.531-5.128-11.433c0,0,0,0-3.289-0.804
					c-22.171-5.421-39.99-11.639-39.99-11.639c-5.193-1.813-10.186,1.144-11.095,6.567l-2.502,14.935
					c-0.909,5.424,2.709,10.969,8.04,12.321l39.949,8.459c5.372,1.182,10.677-2.259,11.791-7.645L87.761,467.439z"/>
			</g>
			<g>
				<path fill="#FFFFFF" d="M495.338,455.203c-3.562,0.871-3.562,0.871-3.562,0.871c-4.282,0.977-6.874,6.184-5.761,11.569
					l2.566,12.421c1.113,5.386,6.423,8.841,11.798,7.678l49.504-10.354c5.331-1.353,8.725-6.854,7.54-12.225l-3.904-17.71
					c-1.185-5.371-6.364-8.179-11.511-6.238C542.009,441.215,522.543,448.552,495.338,455.203z"/>
			</g>
			<g>
				<path fill="#FFFFFF" d="M476.081,370.163c-5.386,1.114-8.882,6.433-7.77,11.818l2.939,14.223
					c1.112,5.386,6.421,8.839,11.796,7.673c0,0,3.73-0.809,9.583-2.233c21.117-5.143,38.185-11.032,38.185-11.032
					c5.199-1.795,8.484-7.657,7.3-13.028l-2.814-12.767c-1.185-5.371-6.446-8.416-11.693-6.768c0,0-12.914,4.06-28.269,7.813
					C486.881,367.93,476.081,370.163,476.081,370.163z"/>
			</g>
			<g>
				<path fill="#FFFFFF" d="M85.089,447.054c3.616,0.829,7.484-2.9,8.598-8.286l2.91-14.083c1.113-5.386-2.373-10.752-7.746-11.924
					c0,0-3.669-0.801-9.507-2.229c-17.826-4.358-32.87-9.271-32.87-9.271c-5.228-1.708-10.25,1.334-11.158,6.758l-2.184,13.032
					c-0.909,5.424,2.587,11.371,7.769,13.216c0,0,18.025,6.415,41.151,12.047C85.089,447.054,85.089,447.054,85.089,447.054z"/>
			</g>
			<g>
				<path fill="#FFFFFF" d="M53.608,358.827c-5.256-1.62-10.3,1.493-11.209,6.917l-2.218,13.237
					c-0.909,5.424,2.618,11.279,7.839,13.011c0,0,15.469,5.131,34.031,9.651c5.599,1.363,8.676,2.034,8.676,2.034
					c5.374,1.171,10.681-2.278,11.794-7.664l2.937-14.209c1.113-5.386-2.382-10.709-7.767-11.828c0,0-10.127-2.104-18.348-4.114
					C65.26,362.419,53.608,358.827,53.608,358.827z"/>
			</g>
			<g>
				<path fill="#FFFFFF" d="M476.944,469.595c-1.112-5.386-6.447-8.971-11.855-7.966l-50.771,7.862
					c-5.448,0.751-9.194,5.809-8.324,11.239l1.999,12.479c0.87,5.431,6.033,9.21,11.473,8.397l52.173-8.305
					c5.417-0.95,8.938-6.134,7.826-11.52L476.944,469.595z"/>
			</g>
			<g>
				<path fill="#FFFFFF" d="M248.319,486.381c0.737-5.451-3.155-10.139-8.648-10.418l-51.133-3.356
					c-5.479-0.473-10.675,3.585-11.545,9.016l-1.845,11.516c-0.87,5.431,2.887,10.409,8.348,11.063l51.634,5.191
					c5.48,0.47,10.566-3.604,11.303-9.056L248.319,486.381z"/>
			</g>
			<g>
				<path fill="#FFFFFF" d="M167.757,480.628c0.87-5.431-2.875-10.494-8.323-11.252l-50.752-7.923
					c-5.406-1.013-10.74,2.565-11.853,7.951l-2.185,10.572c-1.113,5.386,2.403,10.6,7.814,11.585l52.035,8.643
					c5.434,0.852,10.591-2.895,11.461-8.325L167.757,480.628z"/>
			</g>
		</g>
	</g>
</g>
</svg>
