<?xml version="1.0" encoding="UTF-8" standalone="no"?>
<!-- Generator: Adobe Illustrator 15.0.0, SVG Export Plug-In . SVG Version: 6.00 Build 0)  -->

<svg
   xmlns:dc="http://purl.org/dc/elements/1.1/"
   xmlns:cc="http://creativecommons.org/ns#"
   xmlns:rdf="http://www.w3.org/1999/02/22-rdf-syntax-ns#"
   xmlns:svg="http://www.w3.org/2000/svg"
   xmlns="http://www.w3.org/2000/svg"
   xmlns:sodipodi="http://sodipodi.sourceforge.net/DTD/sodipodi-0.dtd"
   xmlns:inkscape="http://www.inkscape.org/namespaces/inkscape"
   version="1.1"
   x="0px"
   y="0px"
   width="580px"
   height="580px"
   viewBox="0 0 580 580"
   enable-background="new 0 0 580 580"
   xml:space="preserve"
   id="svg4578"
   sodipodi:docname="cycle_network_junction.svg"
   inkscape:version="0.92.3 (2405546, 2018-03-11)"><metadata
   id="metadata4584"><rdf:RDF><cc:Work
       rdf:about=""><dc:format>image/svg+xml</dc:format><dc:type
         rdf:resource="http://purl.org/dc/dcmitype/StillImage" /></cc:Work></rdf:RDF></metadata><defs
   id="defs4582">
	
	
	

		
		
	</defs><sodipodi:namedview
   pagecolor="#ffffff"
   bordercolor="#666666"
   borderopacity="1"
   objecttolerance="10"
   gridtolerance="10"
   guidetolerance="10"
   inkscape:pageopacity="0"
   inkscape:pageshadow="2"
   inkscape:window-width="1725"
   inkscape:window-height="973"
   id="namedview4580"
   showgrid="false"
   inkscape:zoom="0.97035431"
   inkscape:cx="290"
   inkscape:cy="290"
   inkscape:window-x="156"
   inkscape:window-y="-2"
   inkscape:window-maximized="0"
   inkscape:current-layer="svg4578" />
<g
   id="Layer_2">
	<g
   id="g1327">
		<path
   id="path1329"
   d="M 66.275,1.768 C 24.94,1.768 1.704,23.139 1.704,66.804 v 450.123 c 0,40.844 20.894,62.229 62.192,62.229 H 515.92 c 41.307,0 62.229,-20.316 62.229,-62.229 V 66.804 c 0,-42.601 -20.923,-65.036 -63.522,-65.036 -0.003,0 -448.494,-0.143 -448.352,0 z"
   inkscape:connector-curvature="0"
   style="fill:#111111;stroke:#eeeeee;stroke-width:3.40799999" />
	</g>
</g>
<path
   style="fill:#ffffff"
   inkscape:connector-curvature="0"
   id="path4575"
   d="m 407.2135,150.6362 c -8.643,0 -16.892,1.728 -24.42,4.85 -0.696,-2.409 -1.404,-4.853 -2.113,-7.307 -2.959,-10.226 -5.974,-20.607 -8.513,-29.089 -2.499,-8.356 -4.814,-13.502 -5.571,-17.206 -0.591,-2.886004 3.065,-2.638004 6.918,-5.849004 2.91,-2.424 5.378,-6.52 6.133,-10.689 0.629,-3.666 -0.151,-7.349 -1.855,-10.365 -5.922,-9.049 -11.7,-8.878 -19.347,-8.878 -10.052,0 -26.645,0 -26.645,0 l 0.063,16.327 25.563,0.052 c 3.05,0.006 4.631,4.295 -1.332,5.962 -2.609,0.724 -5.521,3.835 -6.495,7.689 -0.973,3.854 -0.245,7.700004 1.179,11.260004 0.327,0.819 0.968,3.334 1.908,6.857 l -116.053,0.585 -6.852,-16.774004 c 7.737,-1.77 25.49,-6.027 27.949,-8.368 2.919,-2.659 0,-6.66 -2.263,-6.66 h -60.566 c 0.748,13.36 11.219,16.265 16.886,17.145004 l 6.695,16.391 c -0.72,0.592 -1.335,1.321 -1.791,2.169 l -20.23,37.569 c -7.367,-2.968 -15.406,-4.604 -23.822,-4.604 -35.271,0 -63.966,28.695 -63.966,63.966 0,35.27 28.695,63.964 63.966,63.964 33.17,0 60.523,-25.38 63.66,-57.742 h 6.345 c 2.108,6.54 7.048,11.945 13.485,14.979 l -3.11,7.242 -11.474,0.105 c -2.459,0.022 -4.435,2.034 -4.412,4.492 0.023,2.445 2.011,4.411 4.452,4.411 0.013,0 0.027,0 0.042,0 l 25.753,-0.236 c 2.457,-0.023 4.433,-2.034 4.411,-4.493 -0.024,-2.444 -2.012,-4.411 -4.451,-4.411 -0.015,0 -0.027,0 -0.042,0 l -7.317,0.067 2.21,-5.143 c 1.892,0.4 3.856,0.618 5.877,0.618 14.639,0 26.547,-11.1 26.547,-24.744 0,-2.814 -0.516,-5.517 -1.446,-8.04 l 72.129,-48.944 c 0.671,2.324 1.335,4.624 1.984,6.876 -14.641,11.733 -24.033,29.754 -24.033,49.93 0,35.271 28.694,63.965 63.964,63.965 35.271,0 63.966,-28.694 63.966,-63.965 0,-35.271 -28.695,-63.964 -63.966,-63.964 z m -50.363,-21.83 c 1.317,4.453 2.735,9.291 4.184,14.267 l -76.789,52.105 c -0.82,-0.588 -1.675,-1.136 -2.566,-1.634 l 3.184,-7.407 11.524,-0.105 c 2.457,-0.022 4.433,-2.034 4.41,-4.493 -0.023,-2.459 -2.063,-4.421 -4.492,-4.411 l -25.755,0.236 c -2.458,0.022 -4.433,2.034 -4.409,4.493 0.021,2.445 2.01,4.411 4.449,4.411 0.014,0 0.028,0 0.041,0 l 7.269,-0.066 -2.108,4.905 c -2.444,-0.694 -5.036,-1.071 -7.723,-1.071 -0.238,0 -0.473,0.011 -0.707,0.016 l -24.786,-60.667 z m -131.495,4.587 25.547,62.533 c -3.758,2.977 -6.617,6.907 -8.144,11.388 h -6.7 c -2.383,-18.184 -12.432,-33.986 -26.787,-44.052 z m -7.994,73.921 h -31.809 l 14.881,-27.636 c 8.662,6.704 14.843,16.455 16.928,27.636 z m -44.722,53.857 c -25.091,0 -45.504,-20.413 -45.504,-45.502 0,-25.091 20.413,-45.504 45.504,-45.504 5.25,0 10.291,0.904 14.987,2.548 l -20.694,38.435 c -1.216,2.258 -1.155,4.991 0.16,7.193 1.316,2.202 3.692,3.551 6.257,3.551 h 44.356 c -3.043,22.154 -22.087,39.279 -45.066,39.279 z m 234.574,-1.066 c -25.091,0 -45.502,-20.413 -45.502,-45.503 0,-11.498 4.294,-22.005 11.354,-30.024 0.756,2.555 1.437,4.812 2.006,6.678 0.808,2.644 1.217,4.125 1.898,5.805 l 0.284,0.698 0.415,0.632 c 0.296,0.475 3.21,8.673 11.086,15.429 l 0.065,0.043 0.043,0.066 c 5.66,4.688 10.541,6.369 13.625,7.348 3.247,0.999 7.688,0.486 9.842,-2.851 1.706,-2.449 0.204,-7.405 -3.028,-9.753 -1.272,-0.89 -4.939,-3.802 -9.445,-7.744 -4.018,-3.586 -4.343,-6.333 -6.738,-10.546 0.062,0.136 -0.603,-1.774 -1.354,-4.234 -0.771,-2.524 -1.773,-5.895 -2.923,-9.82 -0.278,-0.952 -0.567,-1.938 -0.862,-2.952 5.846,-2.74 12.363,-4.28 19.234,-4.28 25.092,0 45.505,20.414 45.505,45.504 0,25.092 -20.414,45.504 -45.505,45.504 z" />
<circle
   style="color:#000000;display:inline;overflow:visible;visibility:visible;opacity:1;fill:#ffffff;fill-opacity:1;fill-rule:nonzero;stroke:#ffffff;stroke-width:15.06000042;stroke-linecap:round;stroke-linejoin:round;stroke-miterlimit:4;stroke-dasharray:none;stroke-opacity:1;marker:none;enable-background:accumulate"
   id="path4612"
   cx="289.92651"
   cy="413.06195"
   r="70.07299" /></svg>