<?xml version="1.0" encoding="UTF-8" standalone="no"?>
<!-- Generator: Adobe Illustrator 15.0.0, SVG Export Plug-In . SVG Version: 6.00 Build 0)  -->

<svg
   xmlns:dc="http://purl.org/dc/elements/1.1/"
   xmlns:cc="http://creativecommons.org/ns#"
   xmlns:rdf="http://www.w3.org/1999/02/22-rdf-syntax-ns#"
   xmlns:svg="http://www.w3.org/2000/svg"
   xmlns="http://www.w3.org/2000/svg"
   xmlns:sodipodi="http://sodipodi.sourceforge.net/DTD/sodipodi-0.dtd"
   xmlns:inkscape="http://www.inkscape.org/namespaces/inkscape"
   version="1.1"
   id="Layer_1"
   x="0px"
   y="0px"
   width="580px"
   height="580px"
   viewBox="0 0 580 580"
   enable-background="new 0 0 580 580"
   xml:space="preserve"
   inkscape:version="0.48.4 r9939"
   sodipodi:docname="27002.svg"><metadata
   id="metadata18"><rdf:RDF><cc:Work
       rdf:about=""><dc:format>image/svg+xml</dc:format><dc:type
         rdf:resource="http://purl.org/dc/dcmitype/StillImage" /><dc:title></dc:title></cc:Work></rdf:RDF></metadata><defs
   id="defs16">
	

		
		
	</defs><sodipodi:namedview
   pagecolor="#ffffff"
   bordercolor="#666666"
   borderopacity="1"
   objecttolerance="10"
   gridtolerance="10"
   guidetolerance="10"
   inkscape:pageopacity="0"
   inkscape:pageshadow="2"
   inkscape:window-width="1536"
   inkscape:window-height="1067"
   id="namedview14"
   showgrid="false"
   inkscape:zoom="1.56"
   inkscape:cx="258.73351"
   inkscape:cy="290.04574"
   inkscape:window-x="384"
   inkscape:window-y="42"
   inkscape:window-maximized="0"
   inkscape:current-layer="Layer_1" />
<g
   id="Layer_2_1_">
	<g
   id="Layer_2">
		<g
   id="g1327">
			<path
   id="path1329"
   fill="#111111"
   stroke="#EEEEEE"
   stroke-width="3.408"
   d="M66.275,1.768     c-41.335,0-64.571,21.371-64.571,65.036v450.123c0,40.844,20.896,62.229,62.192,62.229h452.024     c41.307,0,62.229-20.314,62.229-62.229V66.804c0-42.603-20.923-65.036-63.521-65.036C514.625,1.768,66.133,1.625,66.275,1.768z" />
		</g>
	</g>
</g>
<path
   d="m 507.309,205.81386 -7.01223,-8.60978 -27.71883,22.57561 -76.49413,-93.92119 27.71882,-22.5756 -7.01224,-8.609785 -27.71882,22.575605 -25.73607,-31.599313 -3.87686,3.157515 25.73606,31.599318 -36.82713,29.99387 -25.73607,-31.59931 -3.87686,3.15751 25.73606,31.59931 -36.82791,29.99451 -25.73606,-31.59932 -3.87687,3.15752 25.73607,31.59931 -36.82714,29.99387 -25.73606,-31.59931 -3.87687,3.15752 25.73607,31.59931 -36.82791,29.9945 -25.73607,-31.59931 -3.87687,3.15751 25.73607,31.59931 -36.82868,29.99514 -25.73607,-31.59932 -3.87687,3.15752 25.73607,31.59931 -36.82713,29.99387 -25.73607,-31.59931 -3.87687,3.15752 25.73607,31.59931 -36.82869,29.99513 -25.736063,-31.59931 -3.876867,3.15751 25.73607,31.59931 -27.71805,22.57498 7.012235,8.60977 27.716495,-22.57371 76.49414,93.92119 -27.71805,22.57497 7.01224,8.60978 27.71804,-22.57497 25.73607,31.59931 3.87687,-3.15752 -25.73607,-31.59931 36.82869,-29.99513 25.73606,31.59931 3.87687,-3.15752 -25.73607,-31.59931 36.82714,-29.99387 25.73606,31.59932 3.87687,-3.15752 -25.73607,-31.59931 36.82869,-29.99513 25.73607,31.59931 3.87686,-3.15752 -25.73607,-31.59931 36.82791,-29.9945 25.73607,31.59931 3.87687,-3.15752 -25.73607,-31.59931 36.82713,-29.99387 25.73607,31.59932 3.87687,-3.15752 -25.73607,-31.59931 36.82791,-29.9945 25.73607,31.59931 3.87687,-3.15752 -25.73607,-31.59931 36.82868,-29.99513 25.73607,31.59931 3.87687,-3.15752 -25.73607,-31.59931 27.71882,-22.5756 z m -319.66526,246.03058 -76.49414,-93.92119 36.82868,-29.99513 76.49414,93.92118 -36.82868,29.99514 z m 40.70555,-33.15265 -76.49414,-93.92119 36.82713,-29.99387 76.49414,93.92119 -36.82713,29.99387 z m 40.704,-33.15139 -76.49414,-93.92118 36.82868,-29.99514 76.49414,93.92119 -36.82868,29.99513 z m 40.70555,-33.15265 -76.49414,-93.92118 36.82791,-29.9945 76.49414,93.92118 -36.82791,29.9945 z m 40.70478,-33.15201 -76.49414,-93.92119 36.82713,-29.99387 76.49414,93.92119 -36.82713,29.99387 z m 40.704,-33.15139 -76.49414,-93.92118 36.82791,-29.99451 76.49414,93.92119 -36.82791,29.9945 z m 40.70477,-33.15201 -76.49414,-93.92119 36.82869,-29.99513 76.49414,93.92118 -36.82869,29.99514 z"
   id="path10"
   inkscape:connector-curvature="0"
   style="fill:#d2d2d2;fill-opacity:1;stroke:#d2d2d2;stroke-width:5.0999999;stroke-miterlimit:4;stroke-opacity:1;stroke-dasharray:none" />
</svg>