<?xml version="1.0" encoding="utf-8"?>
<!-- Generator: Adobe Illustrator 15.0.0, SVG Export Plug-In . SVG Version: 6.00 Build 0)  -->
<!DOCTYPE svg PUBLIC "-//W3C//DTD SVG 1.1//EN" "http://www.w3.org/Graphics/SVG/1.1/DTD/svg11.dtd">
<svg version="1.1" xmlns="http://www.w3.org/2000/svg" xmlns:xlink="http://www.w3.org/1999/xlink" x="0px" y="0px" width="580px"
	 height="580px" viewBox="0 0 580 580" enable-background="new 0 0 580 580" xml:space="preserve">
<g id="Layer_2">
	<g id="g1327">
		<path id="path1329" fill="#111111" stroke="#EEEEEE" stroke-width="3.408" d="M66.275,1.768
			c-41.335,0-64.571,21.371-64.571,65.036v450.123c0,40.844,20.894,62.229,62.192,62.229H515.92
			c41.307,0,62.229-20.316,62.229-62.229V66.804c0-42.601-20.923-65.036-63.522-65.036C514.624,1.768,66.133,1.625,66.275,1.768z"/>
	</g>
</g>
<g id="svg2" inkscape:output_extension="org.inkscape.output.svg.inkscape" xmlns:cc="http://creativecommons.org/ns#" xmlns:svg="http://www.w3.org/2000/svg" xmlns:sodipodi="http://sodipodi.sourceforge.net/DTD/sodipodi-0.dtd" xmlns:rdf="http://www.w3.org/1999/02/22-rdf-syntax-ns#" xmlns:dc="http://purl.org/dc/elements/1.1/" xmlns:inkscape="http://www.inkscape.org/namespaces/inkscape" sodipodi:docname="waste_bin.svg" inkscape:version="0.46" sodipodi:version="0.32">
	<g>
		<path fill="#FFFFFF" d="M527.485,530.397H52.516V49.603h474.97V530.397z M88.637,494.276h402.728V85.724H88.637V494.276z"/>
	</g>
	<g>
		<g>
			<path fill="#FFFFFF" d="M347.147,197.816c9.229,73.617-9.684,83.375-18.775,113.023c-21.374-63.058-63.477-67.355-73.973-136.68
				c-15.295,56.037,5.983,82.906,4.507,123.915c-21.418-37.921-42.656-71.495-63.083-85.614
				c16.839,33.937-5.132,74.693-12.672,107.718c-10.749,47.076,3.808,78.573,27.692,92.045l0,0
				c-0.361-22.939,7.177-43.212,11.642-48.064c5.883,41.454,12.622,66.855,45.434,91.621c3.31-52.209,19.72-38.696,25.534-103.637
				c23.948,39.554,19.3,79.104,7.509,118.657c21.096-18.855,44.45-34.398,73.598-118.657l-6.007,63.084
				C387.114,369.827,440.084,324.739,347.147,197.816z"/>
		</g>
		<g>
			<path fill="#FFFFFF" d="M269.433,109.199c-24.306,98.693,20.07,97.825,44.684,155.831
				C331.381,175.588,279.731,195.712,269.433,109.199z"/>
		</g>
	</g>
</g>
</svg>
