<?xml version="1.0" encoding="utf-8"?>
<!-- Generator: Adobe Illustrator 15.0.0, SVG Export Plug-In . SVG Version: 6.00 Build 0)  -->
<!DOCTYPE svg PUBLIC "-//W3C//DTD SVG 1.1//EN" "http://www.w3.org/Graphics/SVG/1.1/DTD/svg11.dtd">
<svg version="1.1" xmlns="http://www.w3.org/2000/svg" xmlns:xlink="http://www.w3.org/1999/xlink" x="0px" y="0px" width="580px"
	 height="580px" viewBox="0 0 580 580" enable-background="new 0 0 580 580" xml:space="preserve">
<g id="Layer_1">
	<g id="Layer_2">
		<g id="g1327">
			<path id="path1329" fill="#111111" stroke="#EEEEEE" stroke-width="3.408" d="M66.275,1.768
				c-41.335,0-64.571,21.371-64.571,65.036v450.123c0,40.844,20.895,62.229,62.192,62.229h452.024
				c41.307,0,62.229-20.315,62.229-62.229V66.804c0-42.602-20.923-65.036-63.521-65.036C514.625,1.768,66.133,1.625,66.275,1.768z"
				/>
		</g>
	</g>
</g>
<g id="Layer_2_1_">
	<g>
		<path id="path5483" fill="#FFFFFF" d="M335.478,378.095c11.809,0,21.229-9.554,21.229-21.296c0-11.743-9.487-21.296-21.229-21.296
			c-11.743,0-21.362,9.553-21.362,21.296C314.116,368.542,323.735,378.095,335.478,378.095z M546.715,531.746
			c-126.317,1.857-258.406-22.225-359.447-103.495l0,0c-0.663-0.597-0.929-1.393-0.929-2.322c0-1.857,1.526-3.383,3.384-3.383
			l99.647,0.133c4.776,0,8.823-3.98,8.823-8.824c0-3.648-1.658-6.17-5.572-8.094l-90.027-42.99
			c-1.659-1.062-2.854-2.919-2.854-5.042c0-1.592,0.664-3.052,1.659-4.18l0,0c0,0,109.731-96.993,345.315-94.871V531.746z"/>
		<path id="path5485" fill="#FFFFFF" d="M498.616,48.172C420.53,49.034,344.169,82.339,258.52,152.596
			c-3.185-0.862-10.217-2.786-10.217-2.786c-13.601,0-24.68,11.013-24.68,24.613c0,0,0.995,4.577,1.526,7.43
			c-2.654,2.455-69.196,64.95-69.196,64.95l-58.847,55.462c-5.506,5.042-12.671,7.563-20.168,7.231
			c-7.431-0.332-14.264-3.582-19.239-9.089c-4.843-5.374-7.165-12.074-7.165-18.775c0-7.563,3.052-15.126,9.022-20.633
			c0,0,4.445-2.454,7.828-4.379c0.73,5.043,2.787,20.435,2.787,20.435l48.032-61.169l-52.941,18.046
			c-13.933,4.776-19.704,11.809-19.903,12.141c-19.372,17.581-20.898,48.364-2.985,68.2c18.045,19.903,48.828,21.297,68.731,3.317
			l0.53-0.663l55.795-53.141c0,0,68.931-65.148,71.119-67.338c3.317,0.862,9.819,2.521,9.819,2.521
			c13.534,0,24.547-11.079,24.547-24.68c0,0-0.663-3.583-1.128-6.17c82.862-68.135,155.309-100.51,227.889-101.306
			c14.927-0.133,26.869,1.791,46.44,5.971l4.047,0.862V54.276l-2.654-0.531C527.21,49.499,513.941,47.973,498.616,48.172z"/>
	</g>
</g>
</svg>
