<?xml version="1.0" encoding="utf-8"?>
<!-- Generator: Adobe Illustrator 15.0.0, SVG Export Plug-In . SVG Version: 6.00 Build 0)  -->
<!DOCTYPE svg PUBLIC "-//W3C//DTD SVG 1.1//EN" "http://www.w3.org/Graphics/SVG/1.1/DTD/svg11.dtd">
<svg version="1.1" xmlns="http://www.w3.org/2000/svg" xmlns:xlink="http://www.w3.org/1999/xlink" x="0px" y="0px" width="580px"
	 height="580px" viewBox="0 0 580 580" enable-background="new 0 0 580 580" xml:space="preserve">
<g id="Layer_2">
	<g id="g1327">
		<path id="path1329" fill="#111111" stroke="#EEEEEE" stroke-width="3.408" d="M66.275,1.768
			c-41.335,0-64.571,21.371-64.571,65.036v450.123c0,40.844,20.894,62.229,62.192,62.229H515.92
			c41.307,0,62.229-20.316,62.229-62.229V66.804c0-42.601-20.923-65.036-63.522-65.036C514.624,1.768,66.133,1.625,66.275,1.768z"/>
	</g>
</g>
<g id="svg2" xmlns:inkscape="http://www.inkscape.org/namespaces/inkscape" xmlns:cc="http://creativecommons.org/ns#" xmlns:svg="http://www.w3.org/2000/svg" xmlns:dc="http://purl.org/dc/elements/1.1/" xmlns:rdf="http://www.w3.org/1999/02/22-rdf-syntax-ns#" xmlns:sodipodi="http://sodipodi.sourceforge.net/DTD/sodipodi-0.dtd" inkscape:output_extension="org.inkscape.output.svg.inkscape" sodipodi:docname="waste_bin.svg" sodipodi:version="0.32" inkscape:version="0.46">
	<path fill="#FFFFFF" d="M482.981,199.01v23.831h-18.95V199.01H444.22v23.831h-18.951V199.01h-19.812v23.831h-18.95V199.01h-19.813
		v23.831l18.52,21.766v115.562h-27.612v-19.164H337.79v19.164h-18.95v-19.164h-19.812v19.164h-18.951v-19.164h-19.812v19.164h-18.95
		v-19.164h-19.813v19.164h-26.716V244.606l18.519-21.766V199.01h-19.812v23.831h-18.95V199.01h-19.812v23.831h-2.41v-97.932
		c1.275,1.038,2.917,2.048,4.891,3.009c4.333,2.109,8.83,3.369,12.03,3.369c4.305,0,9.353-1.653,14.235-3.25l0.201-0.066
		c4.52-1.479,9.641-3.155,12.903-3.155c3.113,0,6.928,1.493,10.968,3.074l0.138,0.054c3.807,1.489,8.545,3.344,13.358,3.344
		c9.111,0,19.329-5.153,19.429-5.204c0.53-0.266,0.889-0.843,0.889-1.437V57.008c-0.002-0.543-0.301-1.08-0.763-1.365
		c-0.456-0.282-1.083-0.31-1.56-0.072c-0.101,0.048-10.035,4.865-17.995,4.865c-3.87,0-7.972-1.479-12.183-3.128l-0.84-0.329
		c-3.941-1.55-7.664-3.015-11.441-3.015c-3.799,0-8.272,1.469-13.01,3.024l-0.89,0.292c-5.081,1.663-9.932,3.156-13.439,3.156
		c-4.009,0-9.034-1.971-11.672-3.145c-2.335-1.04-4.27-2.083-5.283-2.655c-0.156-0.727-0.831-1.295-1.573-1.296h-3.852
		c-0.855,0-1.606,0.751-1.607,1.607v167.894h-9.475V199.01H115.97v23.831H97.019V199.01H77.207v23.831l18.52,21.766v115.562h-0.415
		V526.66h388.481V420.098h0.481V244.606l18.519-21.766V199.01H482.981z M234.232,450.627h56.215v21h-42.105v4h42.105v19h-42.105v4
		h42.105v21.059h-56.215V450.627z M346.451,519.686h-54.215v-21.059h42.105v-4h-42.105v-19h42.105v-4h-42.105v-21h54.215V519.686z"
		/>
</g>
</svg>
