<?xml version="1.0" encoding="utf-8"?>
<!-- Generator: Adobe Illustrator 15.0.0, SVG Export Plug-In . SVG Version: 6.00 Build 0)  -->
<!DOCTYPE svg PUBLIC "-//W3C//DTD SVG 1.1//EN" "http://www.w3.org/Graphics/SVG/1.1/DTD/svg11.dtd">
<svg version="1.1" xmlns="http://www.w3.org/2000/svg" xmlns:xlink="http://www.w3.org/1999/xlink" x="0px" y="0px" width="580px"
	 height="580px" viewBox="0 0 580 580" enable-background="new 0 0 580 580" xml:space="preserve">
<g id="Layer_1">
	<g id="Layer_2">
		<g id="g1327">
			<path id="path1329" fill="#111111" stroke="#EEEEEE" stroke-width="3.408" d="M66.275,1.768
				c-41.335,0-64.571,21.371-64.571,65.036v450.123c0,40.844,20.895,62.229,62.192,62.229h452.024
				c41.307,0,62.229-20.315,62.229-62.229V66.804c0-42.602-20.923-65.036-63.521-65.036C514.625,1.768,66.133,1.625,66.275,1.768z"
				/>
		</g>
	</g>
</g>
<g id="Layer_2_1_">
	<g>
		<g>
			<g>
				<polygon fill="#FFFFFF" points="82.994,287.579 82.994,188.404 44.798,145.243 44.798,330.737 				"/>
			</g>
			<g>
				<polygon fill="#FFFFFF" points="51.448,140.573 88.054,181.993 256.238,181.993 292.844,140.573 				"/>
			</g>
			<g>
				<polygon fill="#FFFFFF" points="256.378,294.143 87.914,294.143 51.308,335.563 292.982,335.563 				"/>
			</g>
			<g>
				<polygon fill="#FFFFFF" points="261.708,187.957 261.708,288.028 299.902,331.186 299.902,144.798 				"/>
			</g>
		</g>
		<g>
			<polygon fill="#FFFFFF" points="245.533,146.176 172.149,53.709 99.172,146.173 96.817,144.314 172.142,48.875 247.883,144.311 
							"/>
		</g>
		<g>
			<circle fill="#FFFFFF" cx="172.484" cy="50.884" r="10.752"/>
		</g>
		<g>
			<g>
				<path fill="#FFFFFF" d="M386.967,264.864c2.105,4.907,2.383,4.907,1.541,7.712c-0.838,2.805,3.018,4.908,4.068,5.609
					c1.053,0.701-4.279,1.402-4.068,3.855c0.213,2.454,4.77,3.682,4.77,3.682s-2.516,5.117-2.324,8.968
					c-0.002,0.001-11.594,4.159-11.594,16.502s4.939-4.294,11.594-2.684c4.27,1.033,10.217-4.453,13.221-8.835
					c4.896,0.075,10.646-0.146,15.867-0.701c-3.852,10.315-6.877,18.438-30.623,32.786c-26.166,15.808-14.719,85.58-14.719,85.58
					h118.285c0,0,14.174-77.404,0.545-93.212c-13.627-15.809-25.074-8.177-35.43-16.898c-6.275-5.283-4.146-18.971-1.494-28.939
					c2.16-1.641,3.936-2.938,5.025-3.609c4.557-2.804,43.82-89.738-14.371-91.841c-58.188-2.103-41.012,4.557-41.012,4.557
					s-26.291,9.114-24.889,36.105c0,0,5.959,9.114,4.557,13.671s-8.762,13.787-10.166,18.461c-1.402,4.674-7.01,3.622-4.207,9.231
					C374.347,270.472,384.865,259.956,386.967,264.864z"/>
			</g>
			<g>
				<rect x="348.545" y="423.255" fill="#FFFFFF" width="167.082" height="8.388"/>
			</g>
			<g>
				<rect x="328.97" y="437.236" fill="#FFFFFF" width="206.23" height="9.088"/>
			</g>
			<g>
				<rect x="342.603" y="454.713" fill="#FFFFFF" width="11.883" height="85.155"/>
			</g>
			<g>
				<rect x="509.685" y="454.713" fill="#FFFFFF" width="11.885" height="85.155"/>
			</g>
		</g>
	</g>
</g>
</svg>
