<?xml version="1.0" encoding="UTF-8" standalone="no"?>
<!-- Generator: Adobe Illustrator 15.0.0, SVG Export Plug-In . SVG Version: 6.00 Build 0)  -->

<svg
   xmlns:dc="http://purl.org/dc/elements/1.1/"
   xmlns:cc="http://creativecommons.org/ns#"
   xmlns:rdf="http://www.w3.org/1999/02/22-rdf-syntax-ns#"
   xmlns:svg="http://www.w3.org/2000/svg"
   xmlns="http://www.w3.org/2000/svg"
   xmlns:sodipodi="http://sodipodi.sourceforge.net/DTD/sodipodi-0.dtd"
   xmlns:inkscape="http://www.inkscape.org/namespaces/inkscape"
   version="1.1"
   x="0px"
   y="0px"
   width="580px"
   height="580px"
   viewBox="0 0 580 580"
   enable-background="new 0 0 580 580"
   xml:space="preserve"
   id="svg4578"
   sodipodi:docname="hiking_network_junction.svg"
   inkscape:version="0.92.3 (2405546, 2018-03-11)"><metadata
   id="metadata4584"><rdf:RDF><cc:Work
       rdf:about=""><dc:format>image/svg+xml</dc:format><dc:type
         rdf:resource="http://purl.org/dc/dcmitype/StillImage" /><dc:title></dc:title></cc:Work></rdf:RDF></metadata><defs
   id="defs4582">
	
	
	

		
		
	</defs><sodipodi:namedview
   pagecolor="#ffffff"
   bordercolor="#666666"
   borderopacity="1"
   objecttolerance="10"
   gridtolerance="10"
   guidetolerance="10"
   inkscape:pageopacity="0"
   inkscape:pageshadow="2"
   inkscape:window-width="1725"
   inkscape:window-height="973"
   id="namedview4580"
   showgrid="false"
   inkscape:zoom="0.97035431"
   inkscape:cx="290"
   inkscape:cy="290"
   inkscape:window-x="156"
   inkscape:window-y="-2"
   inkscape:window-maximized="0"
   inkscape:current-layer="svg4578" />
<g
   id="Layer_2">
	<g
   id="g1327">
		<path
   id="path1329"
   d="M 66.275,1.768 C 24.94,1.768 1.704,23.139 1.704,66.804 v 450.123 c 0,40.844 20.894,62.229 62.192,62.229 H 515.92 c 41.307,0 62.229,-20.316 62.229,-62.229 V 66.804 c 0,-42.601 -20.923,-65.036 -63.522,-65.036 -0.003,0 -448.494,-0.143 -448.352,0 z"
   inkscape:connector-curvature="0"
   style="fill:#111111;stroke:#eeeeee;stroke-width:3.40799999" />
	</g>
</g>

<circle
   style="color:#000000;display:inline;overflow:visible;visibility:visible;opacity:1;fill:#ffffff;fill-opacity:1;fill-rule:nonzero;stroke:#ffffff;stroke-width:15.06000042;stroke-linecap:round;stroke-linejoin:round;stroke-miterlimit:4;stroke-dasharray:none;stroke-opacity:1;marker:none;enable-background:accumulate"
   id="path4612"
   cx="289.92651"
   cy="413.06195"
   r="70.07299" /><g
   transform="matrix(0.53637891,0,0,0.53637891,134.3767,22.395888)"
   id="Layer_2_1_"><g
     id="g5276"><path
       d="m 254.54,294.732 16.169,-60.584 25.812,66.143 94.146,21.473 c 1.438,0.328 2.874,0.484 4.289,0.484 8.762,0 16.68,-6.037 18.711,-14.941 2.358,-10.344 -4.114,-20.64 -14.457,-22.999 l -74.3,-16.946 -38.777,-99.365 c -0.684,-5.954 -3.084,-11.546 -6.82,-16.12 -1.715,-2.528 -3.968,-4.569 -6.55,-6.003 -2.812,-1.913 -5.982,-3.398 -9.454,-4.325 -14.12,-3.771 -28.556,2.834 -35.245,15.126 -2.024,2.501 -3.581,5.447 -4.465,8.757 L 135.07,497.135 c -3.367,12.615 4.13,25.572 16.746,28.939 2.043,0.545 4.093,0.805 6.111,0.805 10.447,0 20.005,-6.979 22.827,-17.551 l 35.27,-132.15 c 3.046,-0.768 5.941,-2.01 8.603,-3.637 l 29.922,126.236 c 2.577,10.873 12.277,18.195 22.984,18.195 1.805,0 3.639,-0.207 5.473,-0.643 12.704,-3.012 20.563,-15.752 17.551,-28.457 z"
       id="path5268"
       inkscape:connector-curvature="0"
       style="fill:#ffffff" /><circle
       cx="285.59601"
       cy="90.999001"
       r="43.589001"
       id="circle5270"
       style="fill:#ffffff" /><path
       d="m 439.436,223.479 c -4.034,-0.601 -7.795,2.18 -8.397,6.217 l -43.964,294.411 c -0.604,4.039 2.178,7.795 6.215,8.4 4.035,0.602 7.795,-2.18 8.399,-6.217 l 43.964,-294.414 c 0.603,-4.034 -2.18,-7.794 -6.217,-8.397 z"
       id="path5272"
       inkscape:connector-curvature="0"
       style="fill:#ffffff" /><path
       d="m 147.735,285.093 14.229,3.982 c 9.427,2.641 19.214,-2.866 21.854,-12.298 l 29.074,-103.871 c 2.64,-9.429 -2.866,-19.215 -12.297,-21.854 l -14.228,-3.983 c -9.431,-2.638 -19.214,2.866 -21.855,12.296 l -29.073,103.872 c -2.641,9.431 2.865,19.215 12.296,21.856 z"
       id="path5274"
       inkscape:connector-curvature="0"
       style="fill:#ffffff" /></g></g></svg>