<?xml version="1.0" encoding="utf-8"?>
<!-- Generator: Adobe Illustrator 15.0.0, SVG Export Plug-In . SVG Version: 6.00 Build 0)  -->
<!DOCTYPE svg PUBLIC "-//W3C//DTD SVG 1.1//EN" "http://www.w3.org/Graphics/SVG/1.1/DTD/svg11.dtd">
<svg version="1.1" xmlns="http://www.w3.org/2000/svg" xmlns:xlink="http://www.w3.org/1999/xlink" x="0px" y="0px" width="580px"
	 height="580px" viewBox="0 0 580 580" enable-background="new 0 0 580 580" xml:space="preserve">
<g id="Layer_2">
	<g id="g1327">
		<path id="path1329" fill="#111111" stroke="#EEEEEE" stroke-width="3.408" d="M66.275,1.768
			c-41.335,0-64.571,21.371-64.571,65.036v450.123c0,40.844,20.894,62.229,62.192,62.229H515.92
			c41.307,0,62.229-20.316,62.229-62.229V66.804c0-42.601-20.923-65.036-63.522-65.036C514.624,1.768,66.133,1.625,66.275,1.768z"/>
	</g>
</g>
<g id="svg2" inkscape:version="0.46" sodipodi:docname="waste_bin.svg" sodipodi:version="0.32" xmlns:inkscape="http://www.inkscape.org/namespaces/inkscape" xmlns:rdf="http://www.w3.org/1999/02/22-rdf-syntax-ns#" xmlns:dc="http://purl.org/dc/elements/1.1/" xmlns:cc="http://creativecommons.org/ns#" xmlns:svg="http://www.w3.org/2000/svg" xmlns:sodipodi="http://sodipodi.sourceforge.net/DTD/sodipodi-0.dtd" inkscape:output_extension="org.inkscape.output.svg.inkscape">
	<path fill="#FFFFFF" d="M498.549,76.658v31.961h-30.363V76.658h-25.569v31.961h-30.364V76.658h-25.568v31.961v135.836h-27.966
		v-31.961h-25.569v31.961h-30.363v-31.961h-25.569v31.961h-30.364v-31.961h-25.568v31.961h-27.967V108.619V76.658h-25.569v31.961
		h-30.363V76.658h-25.569v31.961H81.452V76.658H55.882v31.961v394.723h0.001h137.434h46.435V392.91
		c0-26.441,21.431-47.873,47.871-47.873h4.753c26.439,0,47.872,21.432,47.872,47.873v110.432h46.436h137.435V244.455V108.619V76.658
		H498.549z M144.675,234.233h-39.421v-56.868c0-10.371,8.407-18.778,18.778-18.778h1.864c10.372,0,18.778,8.407,18.778,18.778
		V234.233z M476.01,234.233h-39.421v-56.868c0-10.371,8.407-18.778,18.778-18.778h1.864c10.371,0,18.778,8.407,18.778,18.778
		V234.233z"/>
</g>
</svg>
