<?xml version="1.0" encoding="utf-8"?>
<!-- Generator: Adobe Illustrator 15.0.0, SVG Export Plug-In . SVG Version: 6.00 Build 0)  -->
<!DOCTYPE svg PUBLIC "-//W3C//DTD SVG 1.1//EN" "http://www.w3.org/Graphics/SVG/1.1/DTD/svg11.dtd">
<svg version="1.1" xmlns="http://www.w3.org/2000/svg" xmlns:xlink="http://www.w3.org/1999/xlink" x="0px" y="0px" width="580px"
	 height="580px" viewBox="0 0 580 580" enable-background="new 0 0 580 580" xml:space="preserve">
<g id="Layer_2_1_">
	<g id="Layer_2">
		<g id="g1327">
			<path id="path1329" fill="#111111" stroke="#EEEEEE" stroke-width="3.408" d="M66.275,1.768
				c-41.335,0-64.571,21.371-64.571,65.036v450.123c0,40.844,20.895,62.229,62.192,62.229h452.024
				c41.307,0,62.229-20.315,62.229-62.229V66.804c0-42.602-20.923-65.036-63.521-65.036C514.625,1.768,66.133,1.625,66.275,1.768z"
				/>
		</g>
	</g>
</g>
<g id="Layer_1">
	<path id="flowRoot6828" fill="#FFFFFF" d="M85.008,72.667c0-7.665,2.485-13.945,7.452-18.842
		c4.968-4.896,11.355-7.345,19.162-7.345c8.375,0,15.329,2.591,20.865,7.771c5.536,5.18,8.303,11.036,8.303,17.564
		c0,4.827-1.1,9.652-3.299,14.478c-2.2,4.827-5.678,8.694-10.433,11.604c-4.755,2.909-9.616,4.365-14.584,4.365
		c-6.813,0-13.093-2.911-18.842-8.729C87.883,87.712,85.008,80.758,85.008,72.667L85.008,72.667z M55.201,326.664l-0.426-13.839
		l24.059-3.193c3.549-0.994,5.997-2.449,7.345-4.364c1.349-1.916,2.023-6.21,2.023-12.882v-2.341c0-1.703,0.107-4.791,0.319-9.261
		c0.213-4.471,0.32-8.41,0.32-11.816c0-2.697-0.213-7.877-0.639-15.542l0.213-10.646l-0.213-10.006l0.426-34.704
		c0-4.401-0.426-8.942-1.277-13.626c-1.562-2.13-4.4-3.974-8.517-5.536c-4.117-1.561-11.284-2.697-21.503-3.407v-11.923
		c14.62-0.851,27.465-3.903,38.536-9.155c7.523-3.406,15.684-9.439,24.484-18.097h14.266c0.567,17.6,0.852,40.452,0.852,68.556
		l-1.491,86.866c0,5.961,0.284,11.354,0.852,16.18c4.401,1.563,11.568,3.124,21.503,4.685c3.833,0.568,6.885,1.277,9.156,2.13
		l-0.214,11.709c-3.832,0.143-6.67,0.213-8.516,0.213c-2.129,0-5.393-0.141-9.794-0.425c-14.477-0.71-33.852-1.065-58.123-1.065
		c-6.956,0-13.697,0.249-20.226,0.745C62.086,326.416,57.615,326.664,55.201,326.664L55.201,326.664z"/>
	<path fill="#FFFFFF" d="M499.366,395.309c-0.396,0-0.783,0.026-1.166,0.074c-2.242-4.936-7.004-8.351-12.533-8.351
		c-2.028,0-3.948,0.469-5.687,1.292c-18.239-68.647-77.055-119.039-146.601-119.039c-69.62,0-128.489,50.501-146.66,119.261
		c-1.849-0.96-3.921-1.514-6.121-1.514c-5.53,0-10.292,3.415-12.534,8.351c-0.383-0.048-0.771-0.074-1.166-0.074
		c-26.564,0-48.099,23.749-48.099,53.048c0,29.3,21.535,53.05,48.099,53.05c0.507,0,1.001-0.052,1.489-0.127
		c2.36,4.557,6.943,7.649,12.21,7.649c7.681,0,13.908-6.574,13.908-14.685V433.4h1.445c0-81.749,61.649-148.257,137.427-148.257
		c75.777,0,137.429,66.508,137.429,148.257h0.949v60.845c0,8.11,6.229,14.685,13.909,14.685c5.268,0,9.849-3.093,12.21-7.649
		c0.487,0.075,0.981,0.127,1.489,0.127c26.564,0,48.099-23.75,48.099-53.05C547.465,419.058,525.93,395.309,499.366,395.309z"/>
</g>
</svg>
