<?xml version="1.0" encoding="utf-8"?>
<!-- Generator: Adobe Illustrator 15.0.0, SVG Export Plug-In . SVG Version: 6.00 Build 0)  -->
<!DOCTYPE svg PUBLIC "-//W3C//DTD SVG 1.1//EN" "http://www.w3.org/Graphics/SVG/1.1/DTD/svg11.dtd">
<svg version="1.1" xmlns="http://www.w3.org/2000/svg" xmlns:xlink="http://www.w3.org/1999/xlink" x="0px" y="0px" width="580px"
	 height="580px" viewBox="0 0 580 580" enable-background="new 0 0 580 580" xml:space="preserve">
<g id="Layer_2_1_">
	<g id="Layer_2">
		<g id="g1327">
			<path id="path1329" fill="#111111" stroke="#EEEEEE" stroke-width="3.408" d="M66.275,1.768
				c-41.335,0-64.571,21.371-64.571,65.036v450.123c0,40.844,20.895,62.229,62.192,62.229h452.024
				c41.307,0,62.229-20.315,62.229-62.229V66.804c0-42.602-20.923-65.036-63.521-65.036C514.625,1.768,66.133,1.625,66.275,1.768z"
				/>
		</g>
	</g>
</g>
<g id="Layer_1">
	<path id="flowRoot6828" fill="#FFFFFF" d="M85.008,72.667c0-7.665,2.485-13.945,7.452-18.842
		c4.968-4.896,11.355-7.345,19.162-7.345c8.375,0,15.329,2.591,20.865,7.771c5.536,5.18,8.303,11.036,8.303,17.564
		c0,4.827-1.1,9.652-3.299,14.478c-2.2,4.827-5.678,8.694-10.433,11.604c-4.755,2.909-9.616,4.365-14.584,4.365
		c-6.813,0-13.093-2.911-18.842-8.729C87.883,87.712,85.008,80.758,85.008,72.667L85.008,72.667z M55.201,326.664l-0.426-13.839
		l24.059-3.193c3.549-0.994,5.997-2.449,7.345-4.364c1.349-1.916,2.023-6.21,2.023-12.882v-2.341c0-1.703,0.107-4.791,0.319-9.261
		c0.213-4.471,0.32-8.41,0.32-11.816c0-2.697-0.213-7.877-0.639-15.542l0.213-10.646l-0.213-10.006l0.426-34.704
		c0-4.401-0.426-8.942-1.277-13.626c-1.562-2.13-4.4-3.974-8.517-5.536c-4.117-1.561-11.284-2.697-21.503-3.407v-11.923
		c14.62-0.851,27.465-3.903,38.536-9.155c7.523-3.406,15.684-9.439,24.484-18.097h14.266c0.567,17.6,0.852,40.452,0.852,68.556
		l-1.491,86.866c0,5.961,0.284,11.354,0.852,16.18c4.401,1.563,11.568,3.124,21.503,4.685c3.833,0.568,6.885,1.277,9.156,2.13
		l-0.214,11.709c-3.832,0.143-6.67,0.213-8.516,0.213c-2.129,0-5.393-0.141-9.794-0.425c-14.477-0.71-33.852-1.065-58.123-1.065
		c-6.956,0-13.697,0.249-20.226,0.745C62.086,326.416,57.615,326.664,55.201,326.664L55.201,326.664z"/>
	<g>
		<path fill="#FFFFFF" d="M259.171,418.5c27.533,0,32.687,40.293,33.579,51.264c2.063,0.178,4.073,0.397,5.99,0.608
			c6.117,0.672,11.895,1.31,15.479,0.25c6.63-1.954,14.889-5.621,16.587-11.991c1.404-5.27-1.783-12.018-9.474-20.058
			c-16.755-17.517-7.327-39.546,2.251-51.886c-11.975-2.093-22.972-8.871-26-21.487c-0.927-3.861-2.608-6.119-5.14-6.901
			c-2.821-0.874-6.499-0.099-10.375,1.518c-3.457,5.35-9.209,9.075-15.875,9.749c-1.402,1.086-2.655,2.112-3.7,3.008
			c3.348,14.952,2.082,31.146,1.996,32.176l-5.979-0.497c0.023-0.276,1.679-21.533-3.575-36.604
			c-5.694-2.656-10.021-7.723-11.678-13.897c-2.422-0.764-5.134-0.877-8.205-0.303c-2.42,0.454-4.7,0.668-6.838,0.668
			c-12.664,0.002-20.542-7.485-25.715-16.884v86.875c8.334-0.497,17.742-1.699,26.241-2.786
			C240.092,419.87,250.814,418.5,259.171,418.5z"/>
		<path fill="#FFFFFF" d="M344.543,378.531c0.531-3.687,2.784-6.47,6.209-7.777c-36.492-52.559-108.917-77.943-148.252-88.31v38.873
			c5.114,16.647,13.141,29.667,31.447,26.235c3.062-0.576,5.928-0.624,8.592-0.163c0.414-11.512,9.853-20.725,21.466-20.725
			c11.878,0,21.506,9.629,21.506,21.506c0,1.515-0.16,2.99-0.458,4.416c3.227-0.755,6.36-0.887,9.158-0.021
			c3.207,0.99,7.407,3.744,9.205,11.234c3.117,12.986,16.686,16.318,22.375,17.148C336.047,382.443,343.567,379.937,344.543,378.531
			z"/>
		<path fill="#FFFFFF" d="M374.117,325.593c-7.17,0.001-15.058-5.647-23.561-14.827c0.311,7.789,2.293,30.282,14.729,39.876
			c5.999,4.629,13.876,5.628,23.407,2.969c22.258-6.211,25.058-18.525,26.562-25.141c0.683-3.001,1.271-5.592,3.946-6.25
			c3.029-0.747,5.589,1.838,11.582,8.869c13.384,15.703,19.434,37.42,14.712,52.813c-2.168,7.066-6.535,12.314-12.484,15.118
			c4.707,0.42,9.498,1.148,12.548,2.865l-0.64,1.137c41.308,1.438,84.077-10.246,103.581-16.441v-12.215
			c-7.488-0.313-15.298-1.349-21.728-2.956c-3.098-0.774-5.301-2.384-6.548-4.783c-2.885-5.552,0.235-13.662,3.849-23.054
			c3.313-8.608,7.066-18.366,5.498-25.423c-0.51-2.297-1.388-2.621-1.676-2.728c-4.414-1.636-16.943,7.765-24.43,13.381
			c-7.305,5.48-11.952,8.878-15.315,9.625c-3.647,0.812-15.777,3.014-18.699-2.667c-2.126-4.132,1.899-8.445,5.113-11.33
			c5.439-4.884,5.032-20.637,2.768-35.434c-3.206,1.898-6.934,3.008-10.93,3.008c-4.839,0-9.29-1.618-12.883-4.315
			c-11.146,16.679-56.349,34.883-77.614,37.782C375.314,325.552,374.718,325.593,374.117,325.593z"/>
		<path fill="#FFFFFF" d="M417.693,399.876c0.419-2.494,3.757-3.54,10.008-5.268c7.436-2.056,10.661-7.913,12.058-12.466
			c4.153-13.54-1.415-32.934-13.542-47.161c-0.959-1.125-3.31-3.883-5.018-5.592c-0.032,0.14-0.063,0.277-0.094,0.41
			c-1.654,7.276-5.097,22.417-30.799,29.59c-11.461,3.196-21.115,1.849-28.697-4.006c-17.467-13.489-17.132-46.059-17.109-47.438
			l3.578,0.059c-8.854-10.11-18.346-23.725-28.368-38.577c-6.785-10.056-13.194-19.554-15.931-21.469
			c-4.783-3.352-17.919,1.821-30.621,6.822c-9.563,3.765-19.451,7.658-29.047,9.657c-15.83,3.298-31.734-3.8-41.612-9.734v15.269
			c12.473,3.163,28.632,7.896,46.278,14.678c35.813,13.766,84.434,38.901,112.685,80.479
			C374.79,384.741,395.091,395.148,417.693,399.876z"/>
		<path fill="#FFFFFF" d="M458.281,415.147c-7.994,11.472-14.521,10.172-21.518,7.361c-5.194-2.084-8.626-3.465-14.96,6.59
			c-4.008,6.363-5.18,12.296-3.485,17.634c2.23,7.021,8.894,11.688,12.777,13.892c1.962-5.103,5.403-10.931,11.456-15.51
			c11.16-8.445,27.547-9.955,48.698-4.494c0.422,0.108,0.824,0.21,1.234,0.315c0.004-0.003,0.009-0.006,0.013-0.008l0.007,0.013
			c23.305,5.938,28.361,5.018,29.439,4.414c-0.019-0.905-1.088-3.184-1.742-4.579c-1.946-4.146-4.61-9.825-0.777-14.241
			c5.703-6.572,20.307-13.503,29.076-17.269V399.21c-15.33,4.742-40.724,11.498-68.99,14.507
			C472.199,414.494,465.121,414.967,458.281,415.147z"/>
		<path fill="#FFFFFF" d="M415.034,488.5c0-9.203,5.793-17.034,13.922-20.104c0.101-0.584,0.223-1.217,0.372-1.891
			c-4.396-2.306-13.593-8.142-16.717-17.921c-2.271-7.11-0.887-14.742,4.116-22.684c8.999-14.288,16.669-11.211,22.272-8.96
			c4.02,1.613,7.222,2.892,11.609-1.727c-15.05-0.104-28.842-1.72-41.2-4.869c-8.209-2.092-15.785-4.865-22.73-8.287
			c10.041,18.556,20.821,44.515,20.821,70.441c0,7.853,0.937,15.212,2.529,22h5.87C415.345,492.594,415.034,490.585,415.034,488.5z"
			/>
		<path fill="#FFFFFF" d="M485.379,445.399c-17.142-3.721-30.324-2.223-39.207,4.499c-6.757,5.112-9.605,12.251-10.805,17.155
			c0.391-0.021,0.776-0.06,1.173-0.06c11.878,0,21.506,9.629,21.506,21.506c0,2.085-0.312,4.094-0.865,6h39.838
			c-2.485-3.489-4.526-7.516-5.896-12.15c-1.069-3.62-2.526-5.905-4.329-6.793c-2.626-1.292-6.501,0.209-9.923,1.53
			c-3.713,1.434-7.218,2.789-10.175,1.104c-1.683-0.96-2.744-2.691-3.155-5.146C461.872,463.075,475.977,451.744,485.379,445.399z"
			/>
		<path fill="#FFFFFF" d="M395.5,472.5c0-42.381-33.297-87.225-35.146-89.677c-2.053-2.174-3.998-4.45-5.827-6.836
			c-0.451,0.04-0.899,0.107-1.327,0.24c-1.614,0.501-2.507,1.556-2.729,3.226c-0.873,6.589-12.477,7.7-16.012,7.884
			c-0.844,0.044-1.693,0.066-2.547,0.066c-0.359,0-0.72-0.008-1.081-0.016c-4.366,4.941-23.095,28.294-5.164,47.039
			c9.236,9.655,12.915,18.319,10.935,25.749c-1.911,7.173-9.064,12.775-20.687,16.202c-4.738,1.396-11.099,0.698-17.831-0.042
			c-14.839-1.629-30.182-3.315-36.089,13.176l-5.648-2.023c5.585-15.592,18.184-18.35,30.333-18.074
			c-1.03-10.83-5.985-44.914-27.509-44.914c-7.976,0-18.513,1.347-29.669,2.773c-9.498,1.214-18.782,2.398-27.002,2.865V494.5
			h195.264C396.327,487.619,395.5,480.264,395.5,472.5z"/>
		<path fill="#FFFFFF" d="M242.888,258.563c9.097-1.895,18.743-5.693,28.072-9.366c15.472-6.092,28.833-11.354,36.26-6.154
			c3.477,2.434,8.639,9.951,17.463,23.028c13.943,20.663,37.275,55.249,50.411,53.457c9.906-1.351,24.709-6.135,38.561-12.255
			c-9.156-7.884-30.928-29.145-22.891-47.003c8.038-17.863,4.846-21.383-16.701-33.135l2.873-5.268
			c22.417,12.228,29.363,18.501,19.299,40.865c-2.085,4.634-1.259,9.942,1.124,15.252c7.064-7.399,24.864-23.661,36.998-14.091
			c2.622,2.067,6.409,3.164,10.773,3.599c1.468-10.449,10.419-18.497,21.271-18.497c8.474,0,15.781,4.913,19.286,12.035
			c6.319-2.594,27.495-31.752,27.813-36.552c-0.001-1.458,0.776-4.892,7.58-5.977H202.5v29.073
			C211.064,253.174,227.382,261.794,242.888,258.563z"/>
		<path fill="#FFFFFF" d="M445.134,273.529c-5.632-0.517-10.748-1.974-14.491-4.926c-8.142-6.419-23.43,7.346-30.266,14.923
			c5.468,8.633,13.9,16.624,19.297,20.972c13.99-6.729,26.015-14.572,29.495-21.172C447.069,280.51,445.648,277.169,445.134,273.529
			z"/>
		<path fill="#FFFFFF" d="M523.955,430.466c-1.181,1.361,0.005,4.196,1.678,7.761c1.706,3.637,3.641,7.759,1.027,10.909
			c-2.812,3.392-9.299,4.18-33.233-1.776c-11.219,6.875-25.042,18.277-23.968,24.694c0.087,0.521,0.196,0.795,0.259,0.918
			c0.864,0.108,3.338-0.844,4.991-1.481c4.346-1.679,9.753-3.769,14.734-1.316c3.416,1.682,5.848,5.108,7.434,10.477
			c1.65,5.585,4.431,10.159,7.838,13.85H548.5v-78.686C539.601,419.776,528.198,425.576,523.955,430.466z"/>
		<path fill="#FFFFFF" d="M548.5,226.008V218.5h-18.106C536.497,219.325,543.066,221.719,548.5,226.008z"/>
		<path fill="#FFFFFF" d="M478.572,328.896c-2.502,2.247-3.313,3.564-3.572,4.143c1.501,0.646,6.238,0.778,11.85-0.468
			c2.269-0.504,7.979-4.788,13.016-8.567c11.123-8.346,22.616-16.973,30.111-14.209c1.931,0.715,4.444,2.518,5.452,7.055
			c1.961,8.823-2.139,19.478-5.756,28.879c-2.833,7.364-5.763,14.979-4.124,18.132c0.271,0.522,0.845,1.271,2.679,1.729
			c6.614,1.653,13.747,2.553,20.272,2.833V234.318c-4.296-5.121-10.006-7.595-13.828-8.733c-7.443-2.216-13.651-1.366-15.216-0.434
			c-0.684,5.422-9.189,17.231-12.934,22.208c-3.902,5.186-13.533,17.417-18.963,19.387c0.216,1.221,0.349,2.471,0.349,3.754
			c0,5.361-1.974,10.252-5.219,14.019C485.335,299.447,487.298,321.062,478.572,328.896z"/>
	</g>
</g>
</svg>
