<?xml version="1.0" encoding="utf-8"?>
<!-- Generator: Adobe Illustrator 15.0.0, SVG Export Plug-In . SVG Version: 6.00 Build 0)  -->
<!DOCTYPE svg PUBLIC "-//W3C//DTD SVG 1.1//EN" "http://www.w3.org/Graphics/SVG/1.1/DTD/svg11.dtd">
<svg version="1.1" xmlns="http://www.w3.org/2000/svg" xmlns:xlink="http://www.w3.org/1999/xlink" x="0px" y="0px" width="580px"
	 height="580px" viewBox="0 0 580 580" enable-background="new 0 0 580 580" xml:space="preserve">
<g id="Layer_2_1_">
	<g id="Layer_2">
		<g id="g1327">
			<path id="path1329" fill="#111111" stroke="#EEEEEE" stroke-width="3.408" d="M66.275,1.768
				c-41.335,0-64.571,21.371-64.571,65.036v450.123c0,40.844,20.895,62.229,62.192,62.229h452.024
				c41.307,0,62.229-20.315,62.229-62.229V66.804c0-42.602-20.923-65.036-63.521-65.036C514.625,1.768,66.133,1.625,66.275,1.768z"
				/>
		</g>
	</g>
</g>
<g id="Layer_1">
	<path id="flowRoot6828" fill="#FFFFFF" d="M85.008,72.667c0-7.665,2.485-13.945,7.452-18.842
		c4.968-4.896,11.355-7.345,19.162-7.345c8.375,0,15.329,2.591,20.865,7.771c5.536,5.18,8.303,11.036,8.303,17.564
		c0,4.827-1.1,9.652-3.299,14.478c-2.2,4.827-5.678,8.694-10.433,11.604c-4.755,2.909-9.616,4.365-14.584,4.365
		c-6.813,0-13.093-2.911-18.842-8.729C87.883,87.712,85.008,80.758,85.008,72.667L85.008,72.667z M55.201,326.664l-0.426-13.839
		l24.059-3.193c3.549-0.994,5.997-2.449,7.345-4.364c1.349-1.916,2.023-6.21,2.023-12.882v-2.341c0-1.703,0.107-4.791,0.319-9.261
		c0.213-4.471,0.32-8.41,0.32-11.816c0-2.697-0.213-7.877-0.639-15.542l0.213-10.646l-0.213-10.006l0.426-34.704
		c0-4.401-0.426-8.942-1.277-13.626c-1.562-2.13-4.4-3.974-8.517-5.536c-4.117-1.561-11.284-2.697-21.503-3.407v-11.923
		c14.62-0.851,27.465-3.903,38.536-9.155c7.523-3.406,15.684-9.439,24.484-18.097h14.266c0.567,17.6,0.852,40.452,0.852,68.556
		l-1.491,86.866c0,5.961,0.284,11.354,0.852,16.18c4.401,1.563,11.568,3.124,21.503,4.685c3.833,0.568,6.885,1.277,9.156,2.13
		l-0.214,11.709c-3.832,0.143-6.67,0.213-8.516,0.213c-2.129,0-5.393-0.141-9.794-0.425c-14.477-0.71-33.852-1.065-58.123-1.065
		c-6.956,0-13.697,0.249-20.226,0.745C62.086,326.416,57.615,326.664,55.201,326.664L55.201,326.664z"/>
	<g>
		<path fill="#FFFFFF" d="M543.986,218.501c0.38,0.184,0.76,0.375,1.137,0.573c1.663,0.874,2.824,2.324,3.377,3.974V218.5h-4.518
			C543.984,218.5,543.985,218.501,543.986,218.501z"/>
		<path fill="#FFFFFF" d="M548.313,378.401l-1.05-0.048c-3.861-0.193-6.834-3.48-6.641-7.342c0.193-3.86,3.498-6.82,7.342-6.641
			l0.535,0.024V227.489c-0.118,0.352-0.257,0.7-0.435,1.038c-1.252,2.384-3.686,3.747-6.203,3.747c-1.098,0-2.21-0.259-3.249-0.804
			c-0.242-0.127-0.485-0.25-0.73-0.368c-3.479-1.685-4.934-5.872-3.248-9.351c0.717-1.48,1.889-2.589,3.264-3.25h-14.657
			c0.1,0.131,0.201,0.261,0.293,0.401c2.031,3.099,1.286,7.214-1.626,9.417c-1.353,1.388-3.175,2.109-5.014,2.109
			c-1.519,0-3.049-0.492-4.333-1.507c-3.034-2.396-3.552-6.798-1.155-9.832c0.159-0.202,0.329-0.398,0.507-0.588H202.5v50.477
			c3.471,1.127,5.527,4.762,4.625,8.354c-0.608,2.422-2.414,4.222-4.625,4.944V494.5h53.066c-2.806-1.683-4.13-5.162-2.985-8.359
			l0.207-0.564c1.355-3.621,5.39-5.459,9.009-4.103c3.621,1.354,5.458,5.389,4.103,9.009l-0.138,0.377
			c-0.571,1.596-1.671,2.838-3.023,3.641H548.5V378.405C548.437,378.404,548.376,378.404,548.313,378.401z M525.94,321.802
			c0-3.866,3.134-7,7-7s7,3.134,7,7c0,0.423-0.009,0.849-0.026,1.278c-0.154,3.765-3.256,6.713-6.989,6.713
			c-0.097,0-0.194-0.002-0.292-0.006c-3.862-0.158-6.865-3.419-6.707-7.281C525.935,322.269,525.94,322.035,525.94,321.802z
			 M529.374,338.154c3.607,1.389,5.407,5.439,4.019,9.048l-0.355,0.921c-1.068,2.783-3.722,4.492-6.535,4.492
			c-0.835,0-1.684-0.15-2.509-0.468c-3.609-1.386-5.411-5.436-4.024-9.044l0.357-0.931
			C521.715,338.566,525.763,336.763,529.374,338.154z M521.759,373.703c-0.605-0.344-1.184-0.732-1.718-1.156
			c-3.029-2.401-3.537-6.805-1.135-9.834c2.389-3.014,6.762-3.532,9.789-1.171c3.34,1.916,4.507,6.173,2.605,9.525
			c-1.289,2.272-3.657,3.548-6.096,3.548C524.035,374.615,522.848,374.321,521.759,373.703z M517.61,408.399l-0.981,0.216
			c-0.505,0.11-1.01,0.164-1.506,0.164c-3.217,0-6.113-2.231-6.831-5.503c-0.827-3.776,1.563-7.509,5.339-8.337l0.964-0.212
			c3.778-0.831,7.511,1.553,8.344,5.328C523.77,403.831,521.385,407.566,517.61,408.399z M513.098,309.949
			c0.327-0.189,0.652-0.375,0.976-0.556c3.38-1.881,7.641-0.665,9.521,2.714s0.664,7.641-2.714,9.521
			c-0.249,0.138-0.498,0.28-0.749,0.427c-1.106,0.643-2.316,0.948-3.51,0.948c-2.413,0-4.76-1.248-6.06-3.484
			C508.62,316.176,509.756,311.891,513.098,309.949z M498.889,240.868l0.602-0.811c2.297-3.109,6.682-3.768,9.79-1.471
			c3.109,2.297,3.769,6.68,1.472,9.79l-0.646,0.87c-1.375,1.84-3.481,2.812-5.614,2.812c-1.457,0-2.926-0.453-4.184-1.392
			C497.212,248.351,496.576,243.965,498.889,240.868z M462.162,262.718c0.32-0.049,0.64-0.1,0.957-0.152
			c3.253-0.536,6.334,1.257,7.57,4.152c0.912-1.417,2.327-2.515,4.084-2.98c2.105-0.56,4.239-0.097,5.879,1.08
			c-0.563-2.848,0.688-5.863,3.337-7.407c0.116-0.068,0.238-0.15,0.367-0.241c3.158-2.227,7.524-1.477,9.756,1.683
			c2.229,3.159,1.475,7.526-1.684,9.755c-0.482,0.341-0.938,0.635-1.391,0.898c-1.108,0.646-2.321,0.953-3.518,0.953
			c-1.454,0-2.88-0.46-4.071-1.31l0.026,0.101c0.955,3.746-1.308,7.558-5.053,8.513c-0.581,0.148-1.163,0.219-1.735,0.219
			c-2.922,0-5.579-1.855-6.574-4.684c-1.035,1.583-2.698,2.749-4.711,3.081c-0.368,0.061-0.738,0.12-1.109,0.177
			c-0.361,0.056-0.72,0.083-1.074,0.083c-3.396,0-6.377-2.476-6.91-5.936C455.72,266.88,458.342,263.306,462.162,262.718z
			 M474.09,316.529c0.057-0.255,0.111-0.513,0.161-0.774c0.734-3.796,4.408-6.278,8.202-5.544c3.796,0.734,6.277,4.407,5.544,8.202
			c-0.077,0.395-0.157,0.783-0.243,1.167c-0.728,3.26-3.619,5.477-6.825,5.477c-0.506,0-1.019-0.056-1.532-0.17
			C475.624,324.044,473.248,320.302,474.09,316.529z M480.083,286.431c3.847-0.477,7.336,2.24,7.816,6.075l0.125,1.01
			c0.467,3.838-2.267,7.327-6.104,7.795c-0.287,0.034-0.572,0.052-0.854,0.052c-3.488,0-6.508-2.604-6.94-6.155l-0.117-0.959
			C473.527,290.411,476.247,286.912,480.083,286.431z M454.999,276.708c3.611,1.38,5.42,5.426,4.04,9.038
			c-0.093,0.242-0.191,0.485-0.297,0.729c-1.14,2.649-3.722,4.235-6.433,4.235c-0.924,0-1.862-0.184-2.765-0.572
			c-3.551-1.528-5.19-5.646-3.662-9.197l0.078-0.193C447.342,277.137,451.389,275.328,454.999,276.708z M451.979,409.363
			c-0.134,3.779-3.24,6.753-6.991,6.753c-0.084,0-0.168-0.001-0.252-0.004l-1.017-0.037c-3.863-0.148-6.874-3.4-6.727-7.264
			s3.389-6.842,7.264-6.727l0.974,0.035C449.094,402.257,452.115,405.5,451.979,409.363z M431.658,267.104
			c1.165-3.687,5.098-5.729,8.784-4.565c0.242,0.077,0.487,0.148,0.737,0.217c3.729,1.018,5.928,4.867,4.909,8.596
			c-0.85,3.113-3.671,5.159-6.749,5.159c-0.61,0-1.23-0.081-1.848-0.249c-0.43-0.117-0.853-0.242-1.269-0.373
			C432.537,274.723,430.493,270.791,431.658,267.104z M411.694,261.196c0.363-0.206,0.727-0.406,1.092-0.6
			c3.413-1.81,7.652-0.511,9.464,2.905c1.811,3.416,0.51,7.652-2.905,9.464c-0.248,0.131-0.496,0.268-0.742,0.407
			c-1.091,0.619-2.277,0.913-3.447,0.913c-2.438,0-4.807-1.275-6.096-3.547C407.152,267.375,408.332,263.103,411.694,261.196z
			 M391.273,278.75c0,0,0.138-0.165,0.398-0.466c2.535-2.921,6.956-3.234,9.875-0.701c2.92,2.533,3.234,6.954,0.701,9.875
			l-0.25,0.291c-1.384,1.645-3.364,2.493-5.358,2.493c-1.587,0-3.183-0.537-4.494-1.637
			C389.185,286.123,388.797,281.713,391.273,278.75z M404.749,403.013c-1.058,2.803-3.722,4.53-6.55,4.53
			c-0.821,0-1.656-0.146-2.471-0.453c-0.335-0.126-0.669-0.255-1.001-0.385c-3.602-1.406-5.381-5.466-3.975-9.066
			s5.468-5.383,9.066-3.975c0.283,0.11,0.566,0.22,0.853,0.328C404.289,395.357,406.114,399.396,404.749,403.013z M388.84,312.231
			l0.928-0.281c3.701-1.133,7.612,0.949,8.742,4.645c1.132,3.697-0.948,7.611-4.645,8.742l-0.994,0.303
			c-0.672,0.201-1.352,0.298-2.019,0.298c-3.01,0-5.79-1.956-6.701-4.986C383.039,317.248,385.137,313.344,388.84,312.231z
			 M361.22,317.714c1.712-3.467,5.911-4.889,9.376-3.179c0.208,0.104,0.414,0.2,0.62,0.29c3.54,1.552,5.152,5.681,3.601,9.222
			c-1.151,2.626-3.72,4.191-6.415,4.191c-0.938,0-1.892-0.189-2.807-0.591c-0.396-0.174-0.795-0.359-1.196-0.558
			C360.932,325.378,359.51,321.18,361.22,317.714z M344.873,299.739c2.926-2.529,7.346-2.21,9.874,0.712l0.633,0.728
			c2.547,2.909,2.253,7.331-0.655,9.878c-1.328,1.163-2.972,1.733-4.608,1.733c-1.948,0-3.886-0.809-5.27-2.389l-0.686-0.788
			C341.631,306.689,341.95,302.268,344.873,299.739z M330.648,280.233c3.148-2.24,7.521-1.501,9.761,1.65l0.571,0.801
			c2.25,3.144,1.525,7.517-1.619,9.766c-1.233,0.884-2.657,1.309-4.067,1.309c-2.182,0-4.332-1.018-5.698-2.928l-0.599-0.838
			C326.758,286.843,327.497,282.472,330.648,280.233z M333.719,341.878c-1.384,1.589-3.327,2.402-5.281,2.402
			c-1.631,0-3.269-0.566-4.595-1.722l-0.73-0.633c-2.926-2.526-3.248-6.947-0.721-9.873c2.527-2.925,6.948-3.249,9.873-0.721
			l0.773,0.67C335.954,334.541,336.259,338.963,333.719,341.878z M317.122,260.24c3.204-2.166,7.556-1.324,9.72,1.878l0.574,0.852
			c2.155,3.21,1.3,7.559-1.91,9.714c-1.197,0.804-2.554,1.188-3.895,1.188c-2.255,0-4.468-1.086-5.818-3.099l-0.549-0.813
			C313.079,266.758,313.92,262.406,317.122,260.24z M315.306,326.654c-1.358,1.964-3.543,3.019-5.763,3.019
			c-1.374,0-2.762-0.403-3.977-1.244l-0.781-0.536c-3.194-2.179-4.017-6.534-1.839-9.728c2.18-3.196,6.535-4.016,9.728-1.839
			l0.857,0.589C316.712,319.114,317.506,323.474,315.306,326.654z M301.772,241.687c2.707-2.761,7.139-2.803,9.898-0.098
			c0.298,0.292,0.607,0.611,0.929,0.957c2.631,2.833,2.468,7.262-0.365,9.893c-1.348,1.252-3.057,1.871-4.762,1.871
			c-1.879,0-3.752-0.751-5.131-2.236c-0.163-0.176-0.32-0.339-0.472-0.487C299.109,248.88,299.065,244.448,301.772,241.687z
			 M306.969,361.588c0.111,0.386,0.217,0.782,0.315,1.189l0.105,0.478c0.713,3.8-1.79,7.458-5.59,8.17
			c-0.436,0.082-0.87,0.121-1.298,0.121c-3.205,0-6.067-2.21-6.811-5.415l-0.001-0.003c-0.055-0.229-0.113-0.451-0.175-0.667
			c-1.07-3.715,1.074-7.594,4.79-8.663C302.023,355.727,305.901,357.873,306.969,361.588z M284.292,443.261
			c3.725-1.051,7.588,1.113,8.639,4.834c0.093,0.329,0.184,0.657,0.271,0.986c1.004,3.733-1.21,7.573-4.943,8.576
			c-0.608,0.164-1.22,0.242-1.821,0.242c-3.089,0-5.916-2.06-6.756-5.186c-0.073-0.271-0.147-0.542-0.224-0.814
			C278.408,448.18,280.572,444.312,284.292,443.261z M277.102,437.698c-2.059,0-4.099-0.904-5.481-2.641
			c-0.151-0.189-0.305-0.376-0.46-0.561c-2.497-2.952-2.127-7.369,0.825-9.865c2.952-2.497,7.369-2.126,9.865,0.824
			c0.246,0.29,0.487,0.584,0.724,0.883c2.408,3.024,1.908,7.429-1.117,9.836C280.169,437.2,278.63,437.698,277.102,437.698z
			 M295.368,313.493c-1.282,2.291-3.662,3.581-6.114,3.581c-1.158,0-2.331-0.287-3.413-0.894l-0.85-0.474
			c-3.379-1.878-4.597-6.139-2.72-9.519c1.877-3.381,6.137-4.6,9.519-2.72l0.89,0.497
			C296.053,305.853,297.257,310.119,295.368,313.493z M281.531,240.892l0.995-0.348c3.654-1.262,7.64,0.678,8.902,4.332
			c1.261,3.654-0.679,7.64-4.333,8.901l-0.9,0.314c-0.771,0.272-1.559,0.402-2.332,0.402c-2.884,0-5.584-1.796-6.6-4.67
			C275.974,246.178,277.885,242.179,281.531,240.892z M277.816,350.791c3.555-1.519,7.668,0.132,9.188,3.688
			c1.519,3.555-0.131,7.668-3.687,9.188c-0.273,0.116-0.547,0.236-0.821,0.36c-0.939,0.428-1.923,0.63-2.892,0.63
			c-2.661,0-5.204-1.525-6.377-4.105c-1.6-3.52-0.043-7.669,3.476-9.27C277.074,351.113,277.445,350.95,277.816,350.791z
			 M258.934,249.541l0.913-0.338c3.621-1.352,7.653,0.488,9.006,4.11c1.352,3.622-0.488,7.654-4.11,9.006l-0.973,0.36
			c-0.797,0.293-1.614,0.433-2.417,0.433c-2.85,0-5.528-1.754-6.57-4.584C253.448,254.9,255.306,250.877,258.934,249.541z
			 M237.719,255.216c0.269-0.015,0.539-0.034,0.808-0.057c3.859-0.328,7.24,2.531,7.567,6.383s-2.531,7.24-6.383,7.567
			c-0.398,0.034-0.796,0.062-1.194,0.084c-0.136,0.008-0.271,0.011-0.405,0.011c-3.684,0-6.77-2.877-6.982-6.601
			C230.908,258.744,233.859,255.436,237.719,255.216z M208.244,254.821c1.501-3.563,5.605-5.234,9.168-3.733
			c0.279,0.117,0.56,0.233,0.843,0.349c3.582,1.454,5.307,5.537,3.853,9.119c-1.104,2.72-3.724,4.369-6.488,4.369
			c-0.877,0-1.768-0.166-2.63-0.516c-0.34-0.138-0.678-0.277-1.013-0.419C208.414,262.489,206.743,258.384,208.244,254.821z
			 M213.866,433.185l-0.97,0.102c-0.239,0.023-0.477,0.036-0.712,0.036c-3.55,0-6.591-2.689-6.956-6.297
			c-0.389-3.847,2.414-7.279,6.26-7.669l0.888-0.092c3.838-0.413,7.293,2.371,7.706,6.215
			C220.493,429.324,217.711,432.774,213.866,433.185z M221.247,288.814l-0.94-0.294c-3.69-1.152-5.748-5.078-4.596-8.768
			c1.152-3.69,5.077-5.75,8.768-4.596l0.96,0.301c3.688,1.158,5.74,5.086,4.583,8.775c-0.938,2.991-3.7,4.906-6.677,4.906
			C222.651,289.137,221.945,289.033,221.247,288.814z M236.227,430.453l-0.93,0.115c-0.291,0.036-0.579,0.054-0.864,0.054
			c-3.485,0-6.502-2.6-6.939-6.146c-0.472-3.837,2.256-7.33,6.093-7.802l0.922-0.115c3.834-0.476,7.332,2.251,7.806,6.089
			C242.79,426.483,240.064,429.978,236.227,430.453z M243.428,296.521l-0.914-0.348c-3.616-1.368-5.438-5.409-4.069-9.024
			c1.37-3.617,5.412-5.437,9.025-4.068l0.948,0.36c3.612,1.378,5.423,5.423,4.045,9.035c-1.064,2.791-3.722,4.507-6.542,4.507
			C245.093,296.983,244.25,296.835,243.428,296.521z M257.817,428.513l-0.871,0.021c-0.067,0.002-0.133,0.003-0.199,0.003
			c-3.776,0-6.888-3.007-6.994-6.805c-0.108-3.864,2.937-7.085,6.801-7.192l0.996-0.024c3.889-0.073,7.059,3.001,7.132,6.866
			C264.756,425.247,261.682,428.439,257.817,428.513z M264.158,376.432l-0.294,0.261c-1.338,1.208-3.015,1.803-4.686,1.803
			c-1.909,0-3.811-0.776-5.193-2.305c-2.591-2.864-2.372-7.287,0.489-9.882l0.452-0.4c2.907-2.55,7.33-2.259,9.878,0.646
			C267.354,369.461,267.065,373.884,264.158,376.432z M265.018,305.595l-0.875-0.402c-3.516-1.606-5.064-5.76-3.457-9.276
			c1.607-3.516,5.759-5.066,9.276-3.456l0.935,0.43c3.508,1.623,5.037,5.784,3.413,9.293c-1.183,2.556-3.714,4.062-6.357,4.062
			C266.969,306.245,265.969,306.036,265.018,305.595z M308.66,474.413c-0.365,3.606-3.407,6.295-6.955,6.295
			c-0.236,0-0.476-0.013-0.715-0.037l-1.067-0.111c-2.141-0.232-3.948-1.408-5.061-3.068c-1.201,1.2-2.834,1.975-4.664,2.046
			c-0.092,0.004-0.185,0.006-0.277,0.006c-2.705,0-5.069-1.547-6.23-3.827c-0.891,2.104-2.789,3.732-5.206,4.168
			c-0.261,0.047-0.52,0.099-0.778,0.153c-0.494,0.105-0.987,0.156-1.472,0.156c-3.231,0-6.134-2.249-6.838-5.535
			c-0.81-3.781,1.599-7.501,5.379-8.311c0.408-0.088,0.817-0.169,1.229-0.243c3.018-0.541,5.931,0.944,7.348,3.482
			c0.946-2.506,3.29-4.354,6.135-4.521c2.694-0.158,5.126,1.239,6.424,3.414c1.438-1.339,3.421-2.072,5.521-1.838l0.968,0.102
			C306.249,467.133,309.051,470.567,308.66,474.413z M312.228,432.901c-0.201-0.373-0.396-0.747-0.582-1.121
			c-1.72-3.462-0.307-7.663,3.155-9.384c3.459-1.716,7.662-0.309,9.384,3.155c0.114,0.231,0.234,0.463,0.359,0.693
			c1.838,3.401,0.571,7.648-2.83,9.486c-1.058,0.572-2.198,0.843-3.322,0.843C315.904,436.574,313.495,435.244,312.228,432.901z
			 M310.128,403.652c0.118-0.373,0.239-0.743,0.364-1.11c1.246-3.66,5.222-5.613,8.883-4.371c3.66,1.246,5.616,5.223,4.371,8.883
			c-0.094,0.275-0.186,0.554-0.274,0.833c-0.945,2.98-3.701,4.885-6.67,4.885c-0.702,0-1.415-0.106-2.119-0.33
			C310.997,411.272,308.958,407.337,310.128,403.652z M328.86,475.234c-0.359,0.214-0.724,0.423-1.093,0.626
			c-1.071,0.59-2.229,0.869-3.37,0.869c-2.469,0-4.863-1.309-6.138-3.625c-1.865-3.387-0.631-7.644,2.756-9.508
			c0.23-0.127,0.458-0.258,0.683-0.392c3.325-1.977,7.618-0.888,9.596,2.434C333.271,468.961,332.181,473.257,328.86,475.234z
			 M335.345,455.865c-0.884,0.37-1.801,0.546-2.702,0.546c-2.736,0-5.335-1.615-6.459-4.297c-0.093-0.222-0.192-0.447-0.299-0.675
			c-1.638-3.503-0.126-7.669,3.376-9.306c3.505-1.638,7.67-0.125,9.306,3.376c0.188,0.403,0.364,0.801,0.529,1.194
			C340.591,450.269,338.911,454.371,335.345,455.865z M344.424,389.683c-0.424,0.135-0.863,0.264-1.317,0.385
			c-0.607,0.163-1.218,0.241-1.817,0.241c-2.187,0-4.227-1.047-5.539-2.758c-0.304,0.604-0.7,1.173-1.191,1.687l-0.219,0.236
			c-1.381,1.518-3.276,2.288-5.179,2.288c-1.682,0-3.368-0.603-4.71-1.823c-0.985-0.896-1.647-2.012-1.996-3.202
			c-1.317,1.397-3.155,2.218-5.086,2.218c-0.787,0-1.587-0.134-2.37-0.415c-0.392-0.142-0.781-0.287-1.168-0.438
			c-3.6-1.408-5.377-5.469-3.97-9.069c1.408-3.6,5.469-5.377,9.068-3.97c0.269,0.105,0.539,0.206,0.81,0.303
			c2.176,0.783,3.718,2.534,4.332,4.592c0.243-0.265,0.381-0.408,0.381-0.408c2.684-2.775,7.116-2.862,9.897-0.183
			c0.259,0.249,0.486,0.518,0.698,0.795c0.866-1.719,2.427-3.078,4.432-3.615c0.245-0.066,0.481-0.135,0.71-0.207
			c3.685-1.172,7.62,0.869,8.789,4.555C350.148,384.579,348.109,388.514,344.424,389.683z M349.965,359.39
			c-1.326,1.155-2.964,1.722-4.595,1.722c-1.954,0-3.896-0.813-5.281-2.402l-0.618-0.703c-2.563-2.894-2.295-7.318,0.599-9.882
			c2.895-2.563,7.318-2.294,9.882,0.599l0.694,0.791C353.184,352.429,352.88,356.851,349.965,359.39z M369.515,393.064
			c-1.257,0.938-2.725,1.39-4.181,1.39c-2.135,0-4.241-0.972-5.616-2.813l-0.229-0.304c-2.151-2.792-1.859-6.688,0.53-9.144
			c-1.268-0.322-2.46-0.994-3.411-2.024c-0.589-0.553-1.054-1.186-1.407-1.864c-0.307-0.273-0.6-0.568-0.862-0.903
			c-0.219-0.279-0.437-0.561-0.653-0.843c-2.352-3.067-1.771-7.462,1.297-9.814c3.065-2.352,7.46-1.772,9.814,1.297l0.565,0.731
			c0.265,0.338,0.488,0.695,0.682,1.063c0.032,0.028,0.067,0.054,0.1,0.083c0.284,0.262,0.552,0.532,0.802,0.81
			c2.488,2.754,2.373,6.939-0.178,9.563c1.456,0.371,2.806,1.206,3.799,2.485c0,0,0.13,0.166,0.373,0.492
			c0.16,0.215,0.303,0.437,0.435,0.663c2.386-2.378,6.204-2.756,9.025-0.721l0.76,0.543c3.156,2.232,3.904,6.602,1.671,9.757
			c-1.364,1.929-3.525,2.958-5.72,2.958c-1.398,0-2.81-0.418-4.037-1.287l-0.861-0.615c-0.821-0.593-1.472-1.332-1.951-2.154
			C370.029,392.641,369.785,392.863,369.515,393.064z M379.102,415.842c-2.438,0-4.805-1.273-6.094-3.545l-0.51-0.895
			c-1.924-3.354-0.766-7.631,2.588-9.555c3.354-1.927,7.632-0.764,9.555,2.588l0.541,0.949c1.909,3.361,0.731,7.634-2.631,9.543
			C381.461,415.548,380.273,415.842,379.102,415.842z M383.897,434.358l-0.396-0.94c-1.511-3.559,0.148-7.668,3.707-9.18
			c3.556-1.509,7.667,0.147,9.18,3.707l0.428,1.015c1.49,3.567-0.192,7.667-3.76,9.158c-0.882,0.368-1.797,0.543-2.696,0.543
			C387.62,438.661,385.019,437.043,383.897,434.358z M391.568,457.415l-0.236-0.971c-0.931-3.752,1.357-7.548,5.11-8.478
			c3.752-0.933,7.549,1.357,8.478,5.109l0.266,1.089c0.897,3.761-1.424,7.536-5.184,8.434c-0.546,0.131-1.093,0.193-1.631,0.193
			C395.205,462.792,392.335,460.629,391.568,457.415z M401.543,487.99c-0.015,0-0.028,0-0.043,0c-3.847,0-6.976-3.106-6.999-6.958
			l-0.003-1.066c-0.02-3.866,3.099-7.017,6.964-7.036c0.013,0,0.024,0,0.037,0c3.85,0,6.979,3.11,6.999,6.964l0.003,1.055
			C408.524,484.814,405.409,487.967,401.543,487.99z M407.042,313.386c-1.532-3.549,0.103-7.669,3.652-9.201l0.88-0.383
			c3.539-1.558,7.67,0.053,9.225,3.592c1.556,3.539-0.053,7.669-3.592,9.225l-0.964,0.42c-0.903,0.391-1.845,0.575-2.771,0.575
			C410.762,317.614,408.184,316.032,407.042,313.386z M428.121,407.954c-0.6,3.395-3.554,5.783-6.886,5.783
			c-0.404,0-0.813-0.035-1.226-0.107l-1.001-0.179c-3.805-0.686-6.333-4.325-5.647-8.13s4.326-6.336,8.13-5.647l0.954,0.169
			C426.252,400.515,428.793,404.146,428.121,407.954z M428.954,303.309c-2.019-3.297-0.982-7.606,2.314-9.625l0.793-0.492
			c3.279-2.054,7.596-1.059,9.648,2.217c2.052,3.276,1.06,7.597-2.217,9.648c-0.303,0.189-0.606,0.378-0.914,0.566
			c-1.141,0.698-2.402,1.031-3.648,1.031C432.574,306.655,430.274,305.466,428.954,303.309z M445.212,486.586l-0.159,0.947
			c-0.558,3.437-3.528,5.88-6.9,5.88c-0.373,0-0.75-0.029-1.13-0.092c-3.816-0.619-6.408-4.215-5.788-8.03
			c0.058-0.359,0.118-0.722,0.181-1.084c0.657-3.809,4.273-6.363,8.088-5.709C443.312,479.155,445.868,482.776,445.212,486.586z
			 M451.959,465.159c-0.14,0.269-0.277,0.538-0.413,0.81c-1.227,2.452-3.698,3.871-6.267,3.871c-1.052,0-2.119-0.238-3.125-0.741
			c-3.457-1.729-4.859-5.934-3.13-9.392c0.173-0.346,0.348-0.689,0.526-1.03c1.79-3.427,6.021-4.752,9.445-2.963
			C452.423,457.504,453.749,461.732,451.959,465.159z M465.7,451.025c-0.245,0.112-0.487,0.228-0.728,0.347
			c-1.002,0.5-2.067,0.737-3.116,0.737c-2.571,0-5.046-1.422-6.271-3.88c-1.725-3.46-0.318-7.662,3.143-9.387
			c0.371-0.186,0.748-0.365,1.128-0.54c3.511-1.613,7.668-0.073,9.283,3.439C470.753,445.255,469.214,449.411,465.7,451.025z
			 M469.365,415.617l-1.04,0.07c-0.152,0.01-0.306,0.015-0.457,0.015c-3.66,0-6.739-2.845-6.979-6.55
			c-0.249-3.857,2.677-7.187,6.535-7.436l0.954-0.064c3.871-0.271,7.204,2.634,7.476,6.489
			C476.127,411.998,473.221,415.344,469.365,415.617z M475.085,343.275c-0.54-0.076-1.059-0.171-1.551-0.282
			c-3.77-0.856-6.132-4.606-5.275-8.377c0.855-3.77,4.595-6.131,8.377-5.275c0.127,0.029,0.261,0.052,0.4,0.071
			c3.829,0.539,6.495,4.079,5.956,7.907c-0.492,3.497-3.489,6.025-6.923,6.025C475.744,343.344,475.416,343.322,475.085,343.275z
			 M493.847,444.08c-0.66,3.333-3.586,5.64-6.858,5.64c-0.452,0-0.909-0.044-1.369-0.135c-0.301-0.06-0.599-0.116-0.896-0.17
			c-3.805-0.688-6.331-4.329-5.644-8.134c0.688-3.804,4.331-6.332,8.134-5.644c0.373,0.067,0.749,0.14,1.128,0.215
			C492.135,436.604,494.599,440.288,493.847,444.08z M493.669,412.887l-1.011,0.152c-0.348,0.052-0.694,0.077-1.036,0.077
			c-3.412,0-6.399-2.497-6.915-5.974c-0.567-3.824,2.072-7.384,5.896-7.951l0.958-0.145c3.828-0.583,7.392,2.045,7.974,5.866
			C500.117,408.736,497.491,412.306,493.669,412.887z M502.113,334.803l-0.808,0.594c-1.247,0.915-2.697,1.355-4.134,1.355
			c-2.154,0-4.279-0.99-5.65-2.86c-2.286-3.117-1.612-7.498,1.505-9.784l0.792-0.582c3.116-2.292,7.496-1.623,9.786,1.491
			C505.895,328.132,505.227,332.513,502.113,334.803z M518.017,449.104c-0.531,3.462-3.513,5.939-6.91,5.939
			c-0.354,0-0.711-0.026-1.07-0.082c-0.359-0.055-0.727-0.114-1.103-0.177c-3.813-0.634-6.392-4.239-5.758-8.053
			c0.634-3.814,4.243-6.395,8.053-5.758c0.317,0.053,0.628,0.103,0.931,0.149C515.981,441.71,518.603,445.283,518.017,449.104z
			 M525.045,444.272c-0.933,0.42-1.909,0.619-2.87,0.619c-2.67,0-5.22-1.535-6.387-4.128c-0.167-0.37-0.33-0.741-0.485-1.112
			c-1.494-3.564,0.185-7.667,3.75-9.162c3.563-1.494,7.665,0.184,9.162,3.75c0.108,0.258,0.223,0.518,0.339,0.776
			C530.14,438.54,528.57,442.684,525.045,444.272z M537.83,425.489l-0.843,0.468c-1.082,0.607-2.258,0.896-3.416,0.896
			c-2.451,0-4.829-1.288-6.112-3.578c-1.891-3.372-0.69-7.638,2.683-9.528l0.954-0.53c3.39-1.857,7.645-0.62,9.504,2.77
			S541.219,423.63,537.83,425.489z M541.197,402.408l-0.972,0.277c-0.641,0.183-1.287,0.27-1.922,0.27
			c-3.048,0-5.852-2.007-6.729-5.084c-1.059-3.719,1.097-7.591,4.814-8.65l0.944-0.27c3.721-1.066,7.593,1.082,8.66,4.797
			C547.06,397.464,544.913,401.342,541.197,402.408z"/>
	</g>
</g>
</svg>
