<?xml version="1.0" encoding="utf-8"?>
<!-- Generator: Adobe Illustrator 15.0.0, SVG Export Plug-In . SVG Version: 6.00 Build 0)  -->
<!DOCTYPE svg PUBLIC "-//W3C//DTD SVG 1.1//EN" "http://www.w3.org/Graphics/SVG/1.1/DTD/svg11.dtd">
<svg version="1.1" xmlns="http://www.w3.org/2000/svg" xmlns:xlink="http://www.w3.org/1999/xlink" x="0px" y="0px" width="580px"
	 height="580px" viewBox="0 0 580 580" enable-background="new 0 0 580 580" xml:space="preserve">
<g id="Layer_2_1_">
	<g id="Layer_2">
		<g id="g1327">
			<path id="path1329" fill="#111111" stroke="#EEEEEE" stroke-width="3.408" d="M66.275,1.768
				c-41.335,0-64.571,21.371-64.571,65.036v450.123c0,40.844,20.895,62.229,62.192,62.229h452.024
				c41.307,0,62.229-20.315,62.229-62.229V66.804c0-42.602-20.923-65.036-63.521-65.036C514.625,1.768,66.133,1.625,66.275,1.768z"
				/>
		</g>
	</g>
</g>
<g id="Layer_1">
	<path fill="#FFFFFF" d="M536.29,219.654h-37.628c-2.762,0-5,2.239-5,5v106.743H445.51V158.959h49.731c2.762,0,5-2.239,5-5v-33.067
		c0-2.761-2.238-5-5-5H394.901c-2.762,0-5,2.239-5,5v91.92h-73.895c-3.474-20.468-15.549-43.601-39.735-47.299
		c-4.145-1.028-8.482-1.549-12.898-1.549c-21.336,0-45.685,12.902-50.941,37.562c-0.083,0.388-0.119,0.785-0.108,1.181
		c0.125,4.506-0.671,7.674-2.365,9.417c-2.245,2.309-6.783,2.925-14.231,1.878c-0.23-0.032-0.463-0.048-0.696-0.048h-41.421v-87.359
		c0-2.761-2.239-5-5-5H97.301c-2.761,0-5,2.239-5,5v85.078H69.934c-1.097,0-2.164,0.361-3.036,1.027
		c-17.969,13.73-26.313,32.06-27.052,59.431c-0.005,0.178,0,0.355,0.014,0.533c1.43,17.917,8.496,36.352,17.979,48.473H43.71
		c-2.761,0-5,2.238-5,5v41.049c0,2.762,2.239,5,5,5h31.507c-9.737,9.178-15.856,22.439-15.857,37.189
		c-0.002,27.709,21.577,50.174,48.199,50.176c26.621,0.002,48.204-22.457,48.207-50.166v-0.01
		c-0.001-14.75-6.12-28.012-15.857-37.189h74.403c-9.06,9.119-14.702,21.896-14.703,36.051
		c-0.002,27.707,21.576,50.172,48.198,50.176c26.621,0.002,48.205-22.459,48.207-50.166v-0.01
		c-0.001-14.154-5.643-26.932-14.703-36.051h66.45c-8.415,9.031-13.604,21.336-13.605,34.91
		c-0.002,27.707,21.577,50.172,48.199,50.176c26.621,0.002,48.204-22.459,48.207-50.166v-0.01
		c-0.001-13.574-5.19-25.879-13.605-34.91h33.378v30.346c0,2.762,2.238,5,5,5h11.615c-4.273,5.912-6.808,13.262-6.809,21.229
		c-0.002,19.521,15.202,35.348,33.958,35.35s33.962-15.822,33.964-35.344v-0.006c-0.001-7.967-2.535-15.316-6.809-21.229h15.036
		c2.762,0,5-2.238,5-5V224.654C541.29,221.892,539.052,219.654,536.29,219.654z"/>
</g>
</svg>
