<?xml version="1.0" encoding="UTF-8" standalone="no"?>
<!-- Created with Inkscape (http://www.inkscape.org/) -->

<svg
   xmlns:dc="http://purl.org/dc/elements/1.1/"
   xmlns:cc="http://creativecommons.org/ns#"
   xmlns:rdf="http://www.w3.org/1999/02/22-rdf-syntax-ns#"
   xmlns:svg="http://www.w3.org/2000/svg"
   xmlns="http://www.w3.org/2000/svg"
   xmlns:sodipodi="http://sodipodi.sourceforge.net/DTD/sodipodi-0.dtd"
   xmlns:inkscape="http://www.inkscape.org/namespaces/inkscape"
   id="svg15454"
   version="1.1"
   inkscape:version="0.92.3 (2405546, 2018-03-11)"
   width="580"
   height="580"
   sodipodi:docname="trailhead.svg">
  <metadata
     id="metadata15460">
    <rdf:RDF>
      <cc:Work
         rdf:about="">
        <dc:format>image/svg+xml</dc:format>
        <dc:type
           rdf:resource="http://purl.org/dc/dcmitype/StillImage" />
        <dc:title></dc:title>
      </cc:Work>
    </rdf:RDF>
  </metadata>
  <defs
     id="defs15458">
    <clipPath
       clipPathUnits="userSpaceOnUse"
       id="clipPath2504">
      <path
         inkscape:connector-curvature="0"
         d="M 0,792 H 1008 V 0 H 0 Z"
         id="path2506" />
    </clipPath>
  </defs>
  <sodipodi:namedview
     pagecolor="#ffffff"
     bordercolor="#666666"
     borderopacity="1"
     objecttolerance="10"
     gridtolerance="10"
     guidetolerance="10"
     inkscape:pageopacity="0"
     inkscape:pageshadow="2"
     inkscape:window-width="1717"
     inkscape:window-height="808"
     id="namedview15456"
     showgrid="false"
     inkscape:zoom="0.68"
     inkscape:cx="-234.11765"
     inkscape:cy="265.48265"
     inkscape:window-x="189"
     inkscape:window-y="133"
     inkscape:window-maximized="0"
     inkscape:current-layer="svg15454" />
  <g
     id="g2508"
     transform="matrix(58.61149,0,0,-58.61149,69.248533,12.429535)">
    <path
       inkscape:connector-curvature="0"
       d="m 0,0 c -0.542,0 -0.982,-0.44 -0.982,-0.98 v -7.522 c 0,-0.541 0.44,-0.982 0.982,-0.982 h 7.521 c 0.542,0 0.981,0.441 0.981,0.982 V -0.98 C 8.502,-0.44 8.063,0 7.521,0 Z"
       style="fill:#ffffff;fill-opacity:1;fill-rule:nonzero;stroke:none"
       id="path2510" />
  </g>
  <g
     id="g2512"
     transform="matrix(58.61149,0,0,-58.61149,510.09603,579.99976)">
    <path
       inkscape:connector-curvature="0"
       d="m 0,0 c 0.652,0 1.182,0.529 1.182,1.182 v 7.521 c 0,0.652 -0.53,1.18 -1.182,1.18 h -7.521 c -0.653,0 -1.182,-0.528 -1.182,-1.18 V 1.182 C -8.703,0.529 -8.174,0 -7.521,0 Z"
       style="fill:#373535;fill-opacity:1;fill-rule:nonzero;stroke:none"
       id="path2514" />
  </g>
  <g
     id="g930">
    <g
       transform="matrix(58.61149,0,0,-58.61149,272.6726,80.998883)"
       id="g2516">
      <path
         id="path2518"
         style="fill:#ffffff;fill-opacity:1;fill-rule:nonzero;stroke:none"
         d="M 0,0 V -7.141 H 0.55 V 0.002 Z"
         inkscape:connector-curvature="0" />
    </g>
    <path
       id="path2520"
       style="fill:#ffffff;fill-opacity:1;fill-rule:nonzero;stroke:none;stroke-width:46.88919067"
       d="m 498.27057,499.54963 h 32.1191 V 81.004978 h -32.1191 z"
       inkscape:connector-curvature="0" />
    <path
       id="path2522"
       style="fill:#ffffff;fill-opacity:1;fill-rule:nonzero;stroke:none;stroke-width:46.88919067"
       d="M 468.43967,120.50912 H 334.74452 v -16.58705 h 133.69515 z m 0,31.47437 H 334.74452 v -16.64566 h 133.69515 z m 0,31.41576 H 334.74452 v -16.64566 h 133.69515 z m 0,31.41576 H 334.74452 V 198.16935 H 468.43967 Z M 319.80093,238.02516 H 483.32699 V 80.008583 H 319.80093 Z"
       inkscape:connector-curvature="0" />
    <g
       transform="matrix(58.61149,0,0,-58.61149,162.1454,146.02247)"
       id="g2524">
      <path
         id="path2526"
         style="fill:#ffffff;fill-opacity:1;fill-rule:nonzero;stroke:none"
         d="M 0,0 C 0.311,0 0.562,0.253 0.562,0.564 0.562,0.875 0.311,1.126 0,1.126 -0.311,1.126 -0.563,0.875 -0.563,0.564 -0.563,0.253 -0.311,0 0,0"
         inkscape:connector-curvature="0" />
    </g>
    <g
       transform="matrix(58.61149,0,0,-58.61149,106.40353,151.46208)"
       id="g2528">
      <path
         id="path2530"
         style="fill:#ffffff;fill-opacity:1;fill-rule:nonzero;stroke:none"
         d="M 0,0 C 0.022,0.087 -0.033,0.173 -0.117,0.194 L -0.586,0.308 C -0.675,0.327 -0.761,0.276 -0.78,0.189 L -1.175,-1.44 c -0.021,-0.087 0.032,-0.173 0.118,-0.195 l 0.471,-0.113 c 0.085,-0.022 0.173,0.031 0.192,0.118 z"
         inkscape:connector-curvature="0" />
    </g>
    <g
       transform="matrix(58.61149,0,0,-58.61149,49.161203,471.65056)"
       id="g2532">
      <path
         id="path2534"
         style="fill:#ffffff;fill-opacity:1;fill-rule:nonzero;stroke:none"
         d="m 0,0 c -0.005,-0.026 -0.007,-0.053 -0.007,-0.079 0,-0.22 0.176,-0.397 0.396,-0.397 0.179,0 0.331,0.121 0.379,0.284 l 0.679,2.813 0.649,-2.797 c 0.041,-0.173 0.197,-0.3 0.382,-0.3 0.219,0 0.395,0.177 0.395,0.397 0,0.029 -0.003,0.058 -0.008,0.086 L 1.976,3.724 2.051,4.051 2.108,3.793 C 2.162,3.625 2.314,3.608 2.314,3.608 L 3.23,3.376 C 3.249,3.372 3.268,3.371 3.285,3.371 c 0.15,0 0.272,0.119 0.272,0.269 0,0.128 -0.088,0.236 -0.208,0.264 L 2.556,4.104 2.338,4.987 C 2.235,5.482 1.763,5.47 1.763,5.47 1.305,5.482 1.189,4.999 1.189,4.999 Z"
         inkscape:connector-curvature="0" />
    </g>
  </g>
</svg>
