<?xml version="1.0" encoding="UTF-8" standalone="no"?>
<!-- Generator: Adobe Illustrator 15.0.0, SVG Export Plug-In . SVG Version: 6.00 Build 0)  -->

<svg
   xmlns:dc="http://purl.org/dc/elements/1.1/"
   xmlns:cc="http://creativecommons.org/ns#"
   xmlns:rdf="http://www.w3.org/1999/02/22-rdf-syntax-ns#"
   xmlns:svg="http://www.w3.org/2000/svg"
   xmlns="http://www.w3.org/2000/svg"
   xmlns:sodipodi="http://sodipodi.sourceforge.net/DTD/sodipodi-0.dtd"
   xmlns:inkscape="http://www.inkscape.org/namespaces/inkscape"
   version="1.1"
   x="0px"
   y="0px"
   width="580px"
   height="580px"
   viewBox="0 0 580 580"
   enable-background="new 0 0 580 580"
   xml:space="preserve"
   id="svg4578"
   sodipodi:docname="walking_network_junction.svg"
   inkscape:version="0.92.3 (2405546, 2018-03-11)"><metadata
   id="metadata4584"><rdf:RDF><cc:Work
       rdf:about=""><dc:format>image/svg+xml</dc:format><dc:type
         rdf:resource="http://purl.org/dc/dcmitype/StillImage" /><dc:title></dc:title></cc:Work></rdf:RDF></metadata><defs
   id="defs4582">
	
	
	

		
		
	</defs><sodipodi:namedview
   pagecolor="#ffffff"
   bordercolor="#666666"
   borderopacity="1"
   objecttolerance="10"
   gridtolerance="10"
   guidetolerance="10"
   inkscape:pageopacity="0"
   inkscape:pageshadow="2"
   inkscape:window-width="1725"
   inkscape:window-height="973"
   id="namedview4580"
   showgrid="false"
   inkscape:zoom="0.97035431"
   inkscape:cx="290"
   inkscape:cy="290"
   inkscape:window-x="156"
   inkscape:window-y="-2"
   inkscape:window-maximized="0"
   inkscape:current-layer="svg4578" />
<g
   id="Layer_2">
	<g
   id="g1327">
		<path
   id="path1329"
   d="M 66.275,1.768 C 24.94,1.768 1.704,23.139 1.704,66.804 v 450.123 c 0,40.844 20.894,62.229 62.192,62.229 H 515.92 c 41.307,0 62.229,-20.316 62.229,-62.229 V 66.804 c 0,-42.601 -20.923,-65.036 -63.522,-65.036 -0.003,0 -448.494,-0.143 -448.352,0 z"
   inkscape:connector-curvature="0"
   style="fill:#111111;stroke:#eeeeee;stroke-width:3.40799999" />
	</g>
</g>

<circle
   style="color:#000000;display:inline;overflow:visible;visibility:visible;opacity:1;fill:#ffffff;fill-opacity:1;fill-rule:nonzero;stroke:#ffffff;stroke-width:15.06000042;stroke-linecap:round;stroke-linejoin:round;stroke-miterlimit:4;stroke-dasharray:none;stroke-opacity:1;marker:none;enable-background:accumulate"
   id="path4612"
   cx="289.92651"
   cy="413.06195"
   r="70.07299" /><g
   transform="matrix(0.55163295,0,0,0.55163295,129.95288,15.032478)"
   id="g5907"><path
     style="fill:#ffffff"
     inkscape:connector-curvature="0"
     id="path5901"
     d="m 161.466,189.385 c -3.186,47.518 15.344,94.145 19.742,127.576 4.478,34.014 3.548,85.937 16.707,103.274 19.661,25.905 63.669,13.33 72.901,-3.036 8.973,-15.913 3.863,-52.936 0,-72.901 -4.875,-25.199 -12.118,-49.571 -10.632,-71.381 1.873,-27.481 24.083,-57.049 24.301,-94.164 0.285,-48.585 -18.935,-114.95 -62.269,-106.312 -35.685,7.113 -57.645,70.637 -60.75,116.944 z m 135.169,69.863 c 1.014,27.644 21.761,62.27 18.225,100.237 -2.903,31.166 -33.092,87.481 -16.706,126.057 6.898,16.243 33.612,26.89 54.676,21.263 32.335,-8.637 31.235,-57.233 37.968,-104.793 5.737,-40.533 18.853,-61.711 25.82,-98.72 6.449,-34.269 -2.104,-81.985 -9.114,-103.276 -8.88,-26.977 -29.473,-56.715 -56.192,-54.675 -37.811,2.886 -56.195,72.573 -54.677,113.907 z" /><path
     style="fill:#ffffff"
     inkscape:connector-curvature="0"
     id="path5903"
     d="m 222.216,72.441 c 43.333,-8.638 62.554,57.727 62.269,106.312 -0.217,37.114 -22.428,66.683 -24.301,94.164 -1.485,21.81 5.757,46.182 10.632,71.381 3.863,19.966 8.973,56.988 0,72.901 -9.232,16.366 -53.24,28.941 -72.901,3.036 C 184.757,402.897 185.686,350.974 181.208,316.961 176.81,283.53 158.28,236.902 161.466,189.385 164.571,143.078 186.531,79.554 222.216,72.441 Z" /><path
     style="fill:#ffffff"
     inkscape:connector-curvature="0"
     id="path5905"
     d="m 351.31,145.341 c 26.72,-2.04 47.313,27.698 56.192,54.675 7.01,21.291 15.563,69.007 9.114,103.276 -6.968,37.009 -20.083,58.187 -25.82,98.72 -6.732,47.56 -5.633,96.156 -37.968,104.793 -21.063,5.627 -47.777,-5.02 -54.676,-21.263 -16.386,-38.575 13.803,-94.891 16.706,-126.057 3.536,-37.968 -17.211,-72.593 -18.225,-100.237 -1.516,-41.334 16.868,-111.021 54.677,-113.907 z" /></g></svg>