<?xml version="1.0" encoding="utf-8"?>
<!-- Generator: Adobe Illustrator 15.0.0, SVG Export Plug-In . SVG Version: 6.00 Build 0)  -->
<!DOCTYPE svg PUBLIC "-//W3C//DTD SVG 1.1//EN" "http://www.w3.org/Graphics/SVG/1.1/DTD/svg11.dtd">
<svg version="1.1" xmlns="http://www.w3.org/2000/svg" xmlns:xlink="http://www.w3.org/1999/xlink" x="0px" y="0px" width="580px"
	 height="580px" viewBox="0 0 580 580" enable-background="new 0 0 580 580" xml:space="preserve">
<g id="Layer_1">
	<g id="Layer_2">
		<g id="g1327">
			<path id="path1329" fill="#111111" stroke="#EEEEEE" stroke-width="3.408" d="M66.275,1.768
				c-41.335,0-64.571,21.371-64.571,65.036v450.123c0,40.844,20.895,62.229,62.192,62.229h452.024
				c41.307,0,62.229-20.315,62.229-62.229V66.804c0-42.602-20.923-65.036-63.521-65.036C514.625,1.768,66.133,1.625,66.275,1.768z"
				/>
		</g>
	</g>
</g>
<g id="Layer_2_1_">
	<path fill="#FFFFFF" d="M557.968,202.405c-0.549-3.574-2.751-6.681-5.941-8.383L295.398,57.156c-3.374-1.8-7.424-1.8-10.797,0
		L27.973,194.022c-3.206,1.711-5.413,4.838-5.948,8.432s0.663,7.229,3.231,9.8l17.098,17.113c3.254,3.257,8.142,4.253,12.414,2.528
		l19.15-7.738v287.454c0,6.949,5.633,12.583,12.583,12.583h31.996c6.949,0,12.583-5.634,12.583-12.583V203.48
		c0-0.798-0.083-1.575-0.225-2.332l7.835-3.166l151.207-17.895l150.872,18.157l5.526,2.229c-0.237,0.965-0.377,1.969-0.377,3.007
		v308.131c0,6.949,5.634,12.583,12.583,12.583h31.996c6.949,0,12.583-5.634,12.583-12.583V223.379l22.074,8.903
		c1.391,0.562,2.846,0.834,4.288,0.834c3.021,0,5.988-1.194,8.188-3.435l17.183-17.498
		C557.346,209.602,558.515,205.979,557.968,202.405z"/>
	<rect x="274.591" y="357.087" fill="#FFFFFF" width="134.994" height="82.496"/>
	<rect x="390.086" y="439.583" fill="#FFFFFF" width="19.499" height="84.611"/>
	<rect x="390.086" y="49.602" fill="#FFFFFF" width="19.499" height="325.439"/>
	<rect x="274.591" y="439.583" fill="#FFFFFF" width="19.499" height="84.611"/>
</g>
</svg>
