<?xml version="1.0" encoding="utf-8"?>
<!-- Generator: Adobe Illustrator 15.0.0, SVG Export Plug-In . SVG Version: 6.00 Build 0)  -->
<!DOCTYPE svg PUBLIC "-//W3C//DTD SVG 1.1//EN" "http://www.w3.org/Graphics/SVG/1.1/DTD/svg11.dtd">
<svg version="1.1" xmlns="http://www.w3.org/2000/svg" xmlns:xlink="http://www.w3.org/1999/xlink" x="0px" y="0px" width="580px"
	 height="580px" viewBox="0 0 580 580" enable-background="new 0 0 580 580" xml:space="preserve">
<g id="Layer_2">
	<g id="g1327">
		<path id="path1329" fill="#111111" stroke="#EEEEEE" stroke-width="3.408" d="M66.275,1.768
			c-41.335,0-64.571,21.371-64.571,65.036v450.123c0,40.844,20.894,62.229,62.192,62.229H515.92
			c41.307,0,62.229-20.316,62.229-62.229V66.804c0-42.601-20.923-65.036-63.522-65.036C514.624,1.768,66.133,1.625,66.275,1.768z"/>
	</g>
</g>
<g id="svg2" inkscape:output_extension="org.inkscape.output.svg.inkscape" inkscape:version="0.46" sodipodi:docname="waste_bin.svg" sodipodi:version="0.32" xmlns:inkscape="http://www.inkscape.org/namespaces/inkscape" xmlns:rdf="http://www.w3.org/1999/02/22-rdf-syntax-ns#" xmlns:svg="http://www.w3.org/2000/svg" xmlns:sodipodi="http://sodipodi.sourceforge.net/DTD/sodipodi-0.dtd" xmlns:cc="http://creativecommons.org/ns#" xmlns:dc="http://purl.org/dc/elements/1.1/">
	<g>
		<path fill="#FFFFFF" d="M510.188,428.602c-9.635-4.453-20.428-7.074-31.891-7.074c-11.281,0-22.135,2.621-31.77,7.074
			c-9.391,4.207-19.879,6.707-30.977,6.707c-10.975,0-21.463-2.5-30.977-6.707c-9.633-4.453-20.488-7.074-31.768-7.074
			c-11.281,0-22.135,2.621-31.891,7.074c-9.27,4.207-19.879,6.707-30.855,6.707c-10.976,0-21.586-2.5-30.977-6.707
			c-9.635-4.453-20.427-7.074-31.769-7.074c-11.403,0-22.257,2.621-31.892,7.074c-9.391,4.207-19.878,6.707-30.854,6.707
			c-11.098,0-21.585-2.5-31.098-6.707c-9.513-4.453-20.488-7.074-31.77-7.074c-11.28,0-22.134,2.621-31.769,7.074
			c-9.391,4.207-20.001,6.707-30.977,6.707v46.342c10.976,0,21.586-2.439,30.977-6.646c9.635-4.451,20.488-7.072,31.769-7.072
			c11.281,0,22.257,2.621,31.77,7.072c9.513,4.207,20,6.646,31.098,6.646c10.977,0,21.464-2.439,30.854-6.646
			c9.635-4.451,20.428-7.072,31.892-7.072c11.28,0,22.134,2.621,31.769,7.072c9.391,4.207,20.001,6.646,30.977,6.646
			c10.976,0,21.585-2.439,30.855-6.646c9.756-4.451,20.609-7.072,31.891-7.072c11.279,0,22.135,2.621,31.768,7.072
			c9.514,4.207,20.002,6.646,30.977,6.646c11.098,0,21.586-2.439,30.977-6.646c9.635-4.451,20.428-7.072,31.77-7.072
			c11.402,0,22.256,2.621,31.891,7.072c9.391,4.207,19.879,6.646,30.855,6.646v-46.342
			C530.066,435.309,519.578,432.809,510.188,428.602z"/>
		<path fill="#FFFFFF" d="M101.581,378.234c11.342,0,22.257,2.621,31.77,7.072c9.513,4.207,20,6.646,31.099,6.646
			c10.976,0,21.464-2.439,30.854-6.646c9.635-4.451,20.488-7.072,31.892-7.072c11.342,0,22.135,2.621,31.769,7.072
			c9.391,4.207,20.001,6.646,30.977,6.646c10.975,0,21.586-2.439,30.854-6.646c9.756-4.451,20.611-7.072,31.891-7.072
			c11.281,0,22.135,2.621,31.77,7.072c9.512,4.207,20,6.646,30.977,6.646c3.109,0,6.098-0.67,9.146-1.037
			c5.488-1.219,11.098-1.707,16.463-3.84c0.123-0.063,0.244-0.123,0.367-0.184c9.939-55.672,32.865-167.138,32.865-167.138
			s-79.818,32.988-165.674,68.843l-45.367-108.051l45.732-19.208l-11.768-28.11c-15.264,6.425-30.534,12.836-45.793,19.269
			l-22.745-54.147l-28.11,11.769l22.745,54.209c-24.025,10.061-49.026,20.609-49.026,20.609l11.769,28.111l49.087-20.61
			l45.367,107.991C187.009,339.574,96.032,378.234,101.581,378.234z"/>
	</g>
</g>
</svg>
