<?xml version="1.0" encoding="UTF-8" standalone="no"?>
<!-- Generator: Adobe Illustrator 15.0.0, SVG Export Plug-In . SVG Version: 6.00 Build 0)  -->

<svg
   xmlns:dc="http://purl.org/dc/elements/1.1/"
   xmlns:cc="http://creativecommons.org/ns#"
   xmlns:rdf="http://www.w3.org/1999/02/22-rdf-syntax-ns#"
   xmlns:svg="http://www.w3.org/2000/svg"
   xmlns="http://www.w3.org/2000/svg"
   xmlns:sodipodi="http://sodipodi.sourceforge.net/DTD/sodipodi-0.dtd"
   xmlns:inkscape="http://www.inkscape.org/namespaces/inkscape"
   version="1.1"
   x="0px"
   y="0px"
   width="580px"
   height="580px"
   viewBox="0 0 580 580"
   enable-background="new 0 0 580 580"
   xml:space="preserve"
   id="svg3777"
   sodipodi:docname="gurudwara.svg"
   inkscape:version="0.92.3 (2405546, 2018-03-11)"><metadata
   id="metadata3783"><rdf:RDF><cc:Work
       rdf:about=""><dc:format>image/svg+xml</dc:format><dc:type
         rdf:resource="http://purl.org/dc/dcmitype/StillImage" /><dc:title></dc:title></cc:Work></rdf:RDF></metadata><defs
   id="defs3781" /><sodipodi:namedview
   pagecolor="#ffffff"
   bordercolor="#666666"
   borderopacity="1"
   objecttolerance="10"
   gridtolerance="10"
   guidetolerance="10"
   inkscape:pageopacity="0"
   inkscape:pageshadow="2"
   inkscape:window-width="1716"
   inkscape:window-height="843"
   id="namedview3779"
   showgrid="false"
   inkscape:zoom="0.70737049"
   inkscape:cx="129.85264"
   inkscape:cy="290"
   inkscape:window-x="171"
   inkscape:window-y="105"
   inkscape:window-maximized="0"
   inkscape:current-layer="svg3777" />
<g
   id="Layer_2">
	<g
   id="g1327">
		<path
   id="path1329"
   fill="#111111"
   stroke="#EEEEEE"
   stroke-width="3.408"
   d="M66.275,1.768    c-41.335,0-64.571,21.371-64.571,65.036v450.123c0,40.844,20.894,62.229,62.192,62.229H515.92    c41.307,0,62.229-20.316,62.229-62.229V66.804c0-42.601-20.923-65.036-63.522-65.036C514.624,1.768,66.133,1.625,66.275,1.768z" />
	</g>
</g>

<g
   transform="matrix(0.13333333,0,0,-0.13333333,88.029222,539.63546)"
   id="g3729"
   style="fill:#ffffff;fill-opacity:1;stroke:none"><path
     inkscape:connector-curvature="0"
     d="m 1459,3667 c -99,-129 -117,-147 -362,-338 -18,-14 -18,-17 -5,-45 35,-67 34,-71 -24,-100 -242,-122 -436,-359 -504,-614 -39,-143 -36,-327 7,-466 73,-239 265,-468 479,-570 44,-22 80,-42 80,-46 0,-4 -15,-40 -34,-82 l -34,-74 81,-37 c 45,-21 119,-64 165,-97 l 82,-59 v -116 c 0,-104 -2,-115 -17,-109 -9,4 -71,39 -137,78 -349,205 -635,467 -768,703 -155,274 -220,666 -144,868 44,117 74,163 206,311 72,82 129,150 127,152 -7,8 -133,-47 -201,-88 C 374,2889 235,2760 174,2675 108,2581 54,2461 25,2337 0,2235 -2,2212 2,2075 8,1900 31,1789 104,1593 181,1386 229,1303 404,1072 492,955 579,836 597,807 c 37,-60 70,-151 79,-219 4,-27 9,-48 13,-48 3,0 89,74 191,165 102,90 192,164 200,164 23,1 125,-44 185,-80 l 54,-32 -97,-42 C 1100,663 1055,634 984,564 915,494 891,444 890,367 c 0,-54 3,-62 34,-93 28,-28 41,-34 77,-34 57,0 121,38 144,87 17,35 17,41 2,99 -10,34 -17,65 -17,67 0,9 123,74 160,85 19,6 52,13 73,17 l 37,6 V 457 c 0,-139 -1,-144 -24,-166 -81,-76 -71,-186 22,-257 51,-40 138,-45 206,-13 59,27 106,94 106,149 0,34 -43,118 -69,134 -13,8 -16,296 -3,296 36,-1 132,-34 188,-64 38,-21 70,-39 72,-41 2,-1 -5,-33 -15,-69 -17,-66 -17,-68 2,-104 38,-69 148,-105 204,-66 27,19 51,71 51,112 0,65 -32,125 -104,197 -71,70 -150,119 -274,170 l -55,22 60,35 c 32,19 84,43 114,53 30,10 59,20 65,22 6,2 96,-70 200,-161 104,-91 192,-166 195,-166 3,0 9,27 12,60 9,102 64,201 232,420 83,108 163,212 178,233 44,58 141,269 186,402 94,280 104,539 31,769 -81,252 -299,486 -540,581 -35,14 -66,23 -68,20 -6,-6 53,-80 160,-199 156,-173 192,-265 193,-486 0,-159 -13,-240 -67,-408 -96,-302 -316,-566 -698,-834 -70,-49 -308,-188 -322,-188 -4,0 -8,51 -8,113 v 112 l 83,59 c 45,32 121,77 168,100 l 86,42 -38,76 -38,76 52,21 c 140,59 314,203 404,336 102,151 150,289 160,460 14,261 -85,502 -288,702 -80,79 -211,168 -284,195 l -33,11 23,53 23,52 -61,43 c -139,98 -228,185 -339,330 l -35,47 z m -230,-783 c 64,-227 101,-454 101,-614 0,-90 -22,-262 -45,-351 -13,-54 -73,-237 -81,-247 -4,-7 -91,42 -163,92 -135,93 -245,251 -287,416 -24,92 -21,253 5,353 50,191 193,371 370,466 31,16 57,28 58,27 2,-1 20,-65 42,-142 z m 695,109 c 89,-47 234,-189 289,-283 52,-90 96,-251 97,-353 0,-70 -27,-181 -64,-262 -35,-75 -130,-207 -193,-266 -42,-41 -212,-169 -223,-169 -8,0 -46,133 -97,335 -26,102 -28,124 -27,295 1,140 6,213 22,299 26,146 103,441 115,441 5,0 41,-17 81,-37 z"
     id="path3727"
     style="fill:#ffffff;fill-opacity:1" /></g></svg>