<?xml version="1.0" encoding="utf-8"?>
<!-- Generator: Adobe Illustrator 15.0.0, SVG Export Plug-In . SVG Version: 6.00 Build 0)  -->
<!DOCTYPE svg PUBLIC "-//W3C//DTD SVG 1.1//EN" "http://www.w3.org/Graphics/SVG/1.1/DTD/svg11.dtd">
<svg version="1.1" xmlns="http://www.w3.org/2000/svg" xmlns:xlink="http://www.w3.org/1999/xlink" x="0px" y="0px" width="580px"
	 height="580px" viewBox="0 0 580 580" enable-background="new 0 0 580 580" xml:space="preserve">
<g id="Layer_1">
	<g id="Layer_2">
		<g id="g1327">
			<path id="path1329" fill="#111111" stroke="#EEEEEE" stroke-width="3.408" d="M66.275,1.768
				c-41.335,0-64.571,21.371-64.571,65.036v450.123c0,40.844,20.895,62.229,62.192,62.229h452.024
				c41.307,0,62.229-20.315,62.229-62.229V66.804c0-42.602-20.923-65.036-63.521-65.036C514.625,1.768,66.133,1.625,66.275,1.768z"
				/>
		</g>
	</g>
</g>
<g id="Layer_2_1_">
	<g>
		<g>
			<g>
				<path fill="#FFFFFF" d="M35.945,163.51v372.609h227.153V163.51H35.945z"/>
			</g>
			<polygon fill="#FFFFFF" points="43.113,156.305 35.984,163.434 36.334,164.009 37.504,164.009 37.246,163.586 43.527,157.305 
				267.808,157.305 267.808,531.517 263.252,534.771 261.75,532.304 262.135,534.863 262.676,535.752 262.957,536.211 
				268.808,532.031 268.808,156.305 			"/>
		</g>
		<path fill="#FFFFFF" d="M413.234,43.788c-70.876,0-128.333,35.581-128.333,79.473c0,19.53,11.383,37.41,30.254,51.247
			l-30.254,28.226l50.458-16.307c21.597,10.227,48.588,16.307,77.875,16.307c70.877,0,128.333-35.581,128.333-79.473
			S484.111,43.788,413.234,43.788z"/>
		<g>
			
				<ellipse transform="matrix(-0.9847 0.1743 -0.1743 -0.9847 941.9082 632.0562)" fill="#FFFFFF" cx="443.206" cy="357.379" rx="101.691" ry="68.198"/>
			<circle fill="#FFFFFF" cx="376.723" cy="448.423" r="14.343"/>
			<circle fill="#FFFFFF" cx="346.369" cy="479.426" r="10.896"/>
			<circle fill="#FFFFFF" cx="317.672" cy="495.57" r="6.456"/>
		</g>
	</g>
</g>
</svg>
