<?xml version="1.0" encoding="utf-8"?>
<!-- Generator: Adobe Illustrator 15.0.0, SVG Export Plug-In . SVG Version: 6.00 Build 0)  -->
<!DOCTYPE svg PUBLIC "-//W3C//DTD SVG 1.1//EN" "http://www.w3.org/Graphics/SVG/1.1/DTD/svg11.dtd">
<svg version="1.1" xmlns="http://www.w3.org/2000/svg" xmlns:xlink="http://www.w3.org/1999/xlink" x="0px" y="0px" width="580px"
	 height="580px" viewBox="0 0 580 580" enable-background="new 0 0 580 580" xml:space="preserve">
<g id="Layer_1">
	<g id="Layer_2">
		<g id="g1327">
			<path id="path1329" fill="#111111" stroke="#EEEEEE" stroke-width="3.408" d="M66.275,1.768
				c-41.335,0-64.571,21.371-64.571,65.036v450.123c0,40.844,20.895,62.229,62.192,62.229h452.024
				c41.307,0,62.229-20.315,62.229-62.229V66.804c0-42.602-20.923-65.036-63.521-65.036C514.625,1.768,66.133,1.625,66.275,1.768z"
				/>
		</g>
	</g>
</g>
<g id="Layer_2_1_">
	<g>
		<g>
			<path fill="#FFFFFF" d="M419.546,162.322l66.05,0.069l26.038,0.027c1.662-1.89,2.644-4.184,2.644-6.662
				c0-6.449-6.601-11.678-14.74-11.678h-1.654c0.818-2.866,1.264-5.852,1.264-8.926c0-16.743-12.841-30.993-30.793-36.348
				c0.311-1.872,0.479-3.827,0.479-5.842c0-13.366-7.263-24.201-16.222-24.201s-16.223,10.834-16.223,24.201
				c0,2.015,0.168,3.971,0.479,5.842c-17.952,5.356-30.793,19.605-30.793,36.348c0,3.074,0.446,6.06,1.263,8.926h-1.652
				c-8.141,0-14.741,5.229-14.741,11.678c0,2.423,0.933,4.673,2.527,6.539L419.546,162.322z"/>
			<path fill="#FFFFFF" d="M513.354,171.42l-1.721-0.002l-26.038-0.027l-66.05-0.069l-26.075-0.027l-1.45-0.001
				c-6.505,5.318-10.656,13.405-10.656,22.462v49.403h55.079v5h-55.079v36.931h55.079v5h-55.079v36.93h55.079v5h-55.079v36.932
				h55.079v5h-55.079v36.93h55.079v5h-55.079v66.357c0,16.018,12.982,29,29,29h84.492c16.018,0,29-12.982,29-29V193.756
				C523.856,184.77,519.77,176.739,513.354,171.42z"/>
		</g>
		<g>
			<path fill="#FFFFFF" d="M269.357,269.539c-4.325,8.742-13.231,18.24-25.613,27.531c-1.406,1.055-2.874,2.105-4.37,3.154
				c-15.788,11.074-36.342,21.678-59.693,30.113c-23.35,8.434-45.938,13.412-65.159,14.982c-1.819,0.148-3.619,0.279-5.376,0.365
				c-15.462,0.768-28.382-0.848-37.293-4.809c-6.163-2.74-10.422-6.598-12.225-11.588l7.836,21.693
				c0.244,0.676,0.533,1.33,0.865,1.967L68.192,353l1.661,4.6c0.244,0.674,0.533,1.33,0.865,1.967
				c4.848,9.264,18.923,14.137,38.353,14.584c0.144,7.283,1.439,14.588,4.011,21.709c14.15,39.176,61.482,58.109,105.512,42.207
				c44.027-15.902,68.334-60.713,54.184-99.889c-2.572-7.119-6.243-13.566-10.788-19.262c14.66-12.76,22.375-25.504,20.183-35.726
				c-0.152-0.702-0.349-1.39-0.593-2.065l-1.662-4.601l-0.134,0.049c-0.153-0.702-0.35-1.389-0.594-2.065l-7.836-21.695
				C273.158,257.805,272.345,263.493,269.357,269.539z M204.526,399.121c-22.554,8.146-46.105,0.373-52.499-17.33
				c-1.4-3.877-1.863-7.912-1.496-11.938c12.531-2.58,25.825-6.311,39.375-11.205c13.55-4.895,26.161-10.52,37.448-16.543
				c2.855,2.861,5.079,6.262,6.479,10.139C240.227,369.945,227.08,390.974,204.526,399.121z"/>
			<path fill="#FFFFFF" d="M267.526,243.291c-8.835-14.427-41.241-17.466-81.061-8.966c5.157,4.085,9.711,4.18,9.878,4.182
				l0.473-0.005l0.459,0.119c11.337,2.949,18.225,8.104,20.47,15.317c3.544,11.39-6.323,22.983-6.745,23.47l-0.212,0.245
				l-0.252,0.201c-0.579,0.463-14.443,11.441-37.415,19.74c-13.485,4.869-27.321,7.791-41.125,8.68
				c-16.134,1.039-25.908-2.004-29.877-9.309c-5.715-10.51,4.217-24.398,5.368-25.948l0.237-0.332l0.347-0.28
				c0.152-0.131,3.592-3.111,4.951-9.536c-36.009,18.896-58.954,41.918-56.534,58.649l-0.344,0.125l1.094,3.029
				c1.803,4.992,6.062,8.848,12.226,11.588c8.911,3.963,21.832,5.578,37.293,4.811c3.568-0.18,7.275-0.49,11.092-0.92
				c17.918-2.021,38.371-6.818,59.442-14.43c21.073-7.611,39.87-16.99,54.942-26.887c3.213-2.107,6.262-4.238,9.121-6.379
				c12.382-9.291,21.287-18.789,25.612-27.531c2.988-6.047,3.802-11.733,1.999-16.727l-1.095-3.03L267.526,243.291z"/>
			<path fill="#FFFFFF" d="M116.891,258.878c-1.078,9.769-6.582,14.238-6.582,14.238s-24.224,32.591,21.461,29.647
				c15.228-0.98,28.813-4.383,40.157-8.48c22.688-8.193,36.413-19.175,36.413-19.175s21.154-24.471-11.949-33.084
				c0,0-7.096,0.081-14.171-6.755c-5.989-5.786-11.964-16.523-13.609-36.502c-3.586-43.583-13.329-55.023-40.231-51.852
				l-13.225,4.777l-13.307,4.807c-22.721,14.751-22.904,29.777,2.187,65.592C115.543,238.518,117.804,250.598,116.891,258.878z"/>
		</g>
	</g>
</g>
</svg>
