<?xml version="1.0" encoding="utf-8"?>
<!-- Generator: Adobe Illustrator 15.0.0, SVG Export Plug-In . SVG Version: 6.00 Build 0)  -->
<!DOCTYPE svg PUBLIC "-//W3C//DTD SVG 1.1//EN" "http://www.w3.org/Graphics/SVG/1.1/DTD/svg11.dtd">
<svg version="1.1" xmlns="http://www.w3.org/2000/svg" xmlns:xlink="http://www.w3.org/1999/xlink" x="0px" y="0px" width="580px"
	 height="580px" viewBox="0 0 580 580" enable-background="new 0 0 580 580" xml:space="preserve">
<g id="Layer_2">
	<g id="g1327">
		<path id="path1329" fill="#111111" stroke="#EEEEEE" stroke-width="3.408" d="M66.275,1.768
			c-41.335,0-64.571,21.371-64.571,65.036v450.123c0,40.844,20.895,62.229,62.192,62.229H515.92
			c41.307,0,62.229-20.315,62.229-62.229V66.804c0-42.601-20.923-65.036-63.521-65.036C514.624,1.768,66.133,1.625,66.275,1.768z"/>
	</g>
</g>
<g id="Layer_4">
	
		<rect id="rect3745" x="185.287" y="301.19" opacity="0.5" fill="#FFFFFF" fill-opacity="0.7931" width="219.366" height="130.439"/>
	<path fill="#FFFFFF" d="M519.541,373.07c-8.829-53.347-25.664-103.896-57.669-112.967c-11.534-3.271-23.136-5.961-34.794-8.164
		c-5.134-18.873-13.859-47.721-26.016-76.818c-29.331-70.212-63.808-105.8-102.488-105.8c-0.295,0-0.592,0.001-0.888,0.006
		c-39.455,0.565-73.586,37.582-101.446,110.021c-9.722,25.276-16.951,50.3-21.765,69.071c-3.146,0.439-6.289,0.898-9.427,1.401
		c-15.743,2.524-31.392,5.878-46.921,10.283c-32.004,9.071-48.839,59.621-57.668,112.967c-9.681,58.498-9.735,120.351-9.604,134.569
		c-0.016,0.488-0.024,0.74-0.024,0.74h0.032c0.016,1.497,0.032,2.299,0.032,2.299v-0.037L290,509.511l239.104,1.131v0.037
		c0,0,0.017-0.802,0.033-2.299h0.031c0,0-0.008-0.252-0.023-0.74C529.275,493.421,529.222,431.568,519.541,373.07z M230.723,192.142
		c20.969-54.367,45.568-85.728,67.485-86.042c0.107-0.001,0.212-0.002,0.32-0.002c21.451,0,46.374,30.143,68.432,82.797
		c8.501,20.292,15.293,40.79,20.221,57.324c-32.122-3.269-64.58-3.6-97.181-2.652c-25.582-0.744-51.075-0.699-76.388,0.93
		C217.958,228.833,223.671,210.426,230.723,192.142z M404.652,431.63H185.287V301.19h219.366V431.63z"/>
</g>
</svg>
