<?xml version="1.0" encoding="utf-8"?>
<!-- Generator: Adobe Illustrator 15.0.0, SVG Export Plug-In . SVG Version: 6.00 Build 0)  -->
<!DOCTYPE svg PUBLIC "-//W3C//DTD SVG 1.1//EN" "http://www.w3.org/Graphics/SVG/1.1/DTD/svg11.dtd">
<svg version="1.1" id="Layer_1" xmlns="http://www.w3.org/2000/svg" xmlns:xlink="http://www.w3.org/1999/xlink" x="0px" y="0px"
	 width="580px" height="580px" viewBox="0 0 580 580" enable-background="new 0 0 580 580" xml:space="preserve">
<g id="Layer_2">
	<g id="g1327">
		<path id="path1329" fill="#111111" stroke="#EEEEEE" stroke-width="3.408" d="M66.275,1.768
			c-41.335,0-64.571,21.371-64.571,65.036v450.123c0,40.844,20.896,62.229,62.192,62.229h452.024
			c41.307,0,62.229-20.314,62.229-62.229V66.804c0-42.602-20.923-65.036-63.521-65.036C514.625,1.768,66.133,1.625,66.275,1.768z"/>
	</g>
</g>
<g id="Layer_4">
	<g>
		<path fill="#FFFFFF" d="M501.238,457.471H78.762c-28.121,0-51-22.879-51-51V123.488c0-28.122,22.879-51,51-51h422.477
			c28.121,0,51,22.878,51,51v282.983C552.238,434.593,529.359,457.471,501.238,457.471z M78.762,106.488c-9.373,0-17,7.626-17,17
			v282.983c0,9.374,7.627,17,17,17h422.477c9.374,0,17-7.626,17-17V123.488c0-9.374-7.626-17-17-17H78.762z"/>
	</g>
	<g>
		<path fill="#FFFFFF" d="M319.248,531.218c0,16.152-13.094,29.248-29.247,29.248l0,0c-16.153,0-29.249-13.096-29.249-29.248
			v-61.498c0-16.153,13.096-29.248,29.249-29.248l0,0c16.153,0,29.247,13.095,29.247,29.248V531.218z"/>
	</g>
	<g>
		<path fill="#FFFFFF" d="M116.009,285.443c0,0,72.08-68.923,112.037-89.441c35.854-18.41,43.956,36.943,84.453,11.445
			s59.997-1.5,73.496,6s77.996,71.997,77.996,71.997S343.997,235.946,116.009,285.443z"/>
	</g>
	<g>
		<path fill="#FFFFFF" d="M116.009,295.895c0,0,142.929,172.07,347.982,3.07L116.009,295.895z"/>
	</g>
</g>
</svg>
