<?xml version="1.0" encoding="utf-8"?>
<!-- Generator: Adobe Illustrator 15.0.0, SVG Export Plug-In . SVG Version: 6.00 Build 0)  -->
<!DOCTYPE svg PUBLIC "-//W3C//DTD SVG 1.1//EN" "http://www.w3.org/Graphics/SVG/1.1/DTD/svg11.dtd">
<svg version="1.1" xmlns="http://www.w3.org/2000/svg" xmlns:xlink="http://www.w3.org/1999/xlink" x="0px" y="0px" width="580px"
	 height="580px" viewBox="0 0 580 580" enable-background="new 0 0 580 580" xml:space="preserve">
<g id="Layer_1">
	<g id="Layer_2">
		<g id="g1327">
			<path id="path1329" fill="#111111" stroke="#EEEEEE" stroke-width="3.408" d="M66.275,1.768
				c-41.335,0-64.571,21.371-64.571,65.036v450.123c0,40.844,20.895,62.229,62.192,62.229h452.024
				c41.307,0,62.229-20.315,62.229-62.229V66.804c0-42.602-20.923-65.036-63.521-65.036C514.625,1.768,66.133,1.625,66.275,1.768z"
				/>
		</g>
	</g>
</g>
<g id="Layer_2_1_">
	<g>
		<g>
			<polygon fill="#FFFFFF" points="505.769,244.344 505.769,308.105 74.236,308.105 74.236,171.927 43.418,171.927 43.418,408.072 
				74.236,408.072 74.236,336.858 505.769,336.858 505.769,399.128 536.582,399.128 536.582,244.344 			"/>
		</g>
		<path fill="#FFFFFF" d="M203.5,272.866c0,12.702-10.297,23-23,23h-73.288c-12.702,0-23-10.298-23-23v-35.228
			c0-12.703,10.298-23,23-23H180.5c12.703,0,23,10.297,23,23V272.866z"/>
		<path fill="#FFFFFF" d="M493.5,273.137c0,12.553-10.176,22.729-22.729,22.729h-228.95c-12.552,0-22.728-10.176-22.728-22.729l0,0
			c0-12.552,10.176-22.728,22.728-22.728h228.95C483.324,250.41,493.5,260.586,493.5,273.137L493.5,273.137z"/>
	</g>
</g>
</svg>
