<?xml version="1.0" encoding="utf-8"?>
<!-- Generator: Adobe Illustrator 15.0.0, SVG Export Plug-In . SVG Version: 6.00 Build 0)  -->
<!DOCTYPE svg PUBLIC "-//W3C//DTD SVG 1.1//EN" "http://www.w3.org/Graphics/SVG/1.1/DTD/svg11.dtd">
<svg version="1.1" xmlns="http://www.w3.org/2000/svg" xmlns:xlink="http://www.w3.org/1999/xlink" x="0px" y="0px" width="580px"
	 height="580px" viewBox="0 0 580 580" enable-background="new 0 0 580 580" xml:space="preserve">
<g id="Layer_1">
	<g id="Layer_2">
		<g id="g1327">
			<path id="path1329" fill="#111111" stroke="#EEEEEE" stroke-width="3.408" d="M66.275,1.768
				c-41.335,0-64.571,21.371-64.571,65.036v450.123c0,40.844,20.895,62.229,62.192,62.229h452.024
				c41.307,0,62.229-20.315,62.229-62.229V66.804c0-42.602-20.923-65.036-63.521-65.036C514.625,1.768,66.133,1.625,66.275,1.768z"
				/>
		</g>
	</g>
</g>
<g id="Layer_2_1_">
	<path fill="#FFFFFF" d="M327.235,175.048c-4.93-2.722-10.75-5.663-16.772-8.139V74.891c0-3.753-3.042-6.794-6.794-6.794h-33.654
		c-3.752,0-6.794,3.041-6.794,6.794v91.685c-15.474,5.835-31.827,15.471-39.292,24.312c-6.087,7.209-7.297,14.114-6.971,19.244
		v295.866c0,6.376,2.962,12.391,8.017,16.278C241.081,534.662,274.093,536,287.538,536c14.79,0,42.451-1.557,61.529-11.982
		c6.588-3.602,10.688-10.511,10.688-18.02V209.184c0-2.655-0.516-5.285-1.516-7.744C356.78,197.857,353.364,189.467,327.235,175.048
		z"/>
	<path fill="#FFFFFF" d="M138.552,267.333l-7.851-82.134h6.552c0.027-0.274,0.043-0.549,0.043-0.829v-10.367
		c0-4.809-3.898-8.708-8.707-8.708H100.6c-4.809,0-8.707,3.899-8.707,8.708v10.367c0,0.57,0.059,1.127,0.162,1.667
		c1.078-0.532,2.287-0.838,3.568-0.838h2.864l-7.851,82.134c0,0-47.021,37.104-44.667,87.333C54.47,536.095,36.47,536,70.972,536
		h24.912h3.334h30.752h3.334h24.912c34.502,0,16.502,0.096,25.002-181.334C185.572,304.437,138.552,267.333,138.552,267.333z
		 M114.594,469.982c-18.385,0-33.287-29.549-33.287-66s14.902-66,33.287-66s33.287,29.549,33.287,66
		S132.979,469.982,114.594,469.982z"/>
	<g>
		<path fill="#FFFFFF" d="M533.01,315.832c-2.234-3.13-12.508-24.346-14.555-28.585h0.68c1.984,0,3.592-1.559,3.592-3.48
			c0-1.921-1.607-3.479-3.592-3.479H408.34c-1.984,0-3.592,1.559-3.592,3.479c0,1.922,1.607,3.48,3.592,3.48h0.68
			c-2.045,4.239-12.318,25.455-14.555,28.585c-2.484,3.48,0,183.939,0,183.939s-2.486,15.411,14.914,20.88
			c17.4,5.468,42.102,8.45,54.359,7.953c12.258,0.497,36.957-2.485,54.357-7.953c17.4-5.469,14.914-20.88,14.914-20.88
			S535.496,319.312,533.01,315.832z"/>
		<path fill="#FFFFFF" d="M463.942,530.842c-10.22,0.415-29.087-1.592-45.163-5.438C425.84,531.309,441.291,536,461.62,536
			c27.735,0,46.789-5.575,53.704-12.223C498.183,528.677,475.517,531.31,463.942,530.842z"/>
	</g>
</g>
</svg>
