<?xml version="1.0" encoding="UTF-8" standalone="no"?>
<!-- Generator: Adobe Illustrator 15.0.0, SVG Export Plug-In . SVG Version: 6.00 Build 0)  -->

<svg
   xmlns:dc="http://purl.org/dc/elements/1.1/"
   xmlns:cc="http://creativecommons.org/ns#"
   xmlns:rdf="http://www.w3.org/1999/02/22-rdf-syntax-ns#"
   xmlns:svg="http://www.w3.org/2000/svg"
   xmlns="http://www.w3.org/2000/svg"
   xmlns:sodipodi="http://sodipodi.sourceforge.net/DTD/sodipodi-0.dtd"
   xmlns:inkscape="http://www.inkscape.org/namespaces/inkscape"
   version="1.1"
   x="0px"
   y="0px"
   width="580px"
   height="580px"
   viewBox="0 0 580 580"
   enable-background="new 0 0 580 580"
   xml:space="preserve"
   id="svg2"
   inkscape:version="0.92.3 (2405546, 2018-03-11)"
   sodipodi:docname="boat.svg"><metadata
   id="metadata27"><rdf:RDF><cc:Work
       rdf:about=""><dc:format>image/svg+xml</dc:format><dc:type
         rdf:resource="http://purl.org/dc/dcmitype/StillImage" /><dc:title></dc:title></cc:Work></rdf:RDF></metadata><defs
   id="defs25">
	
	
	
</defs><sodipodi:namedview
   pagecolor="#ffffff"
   bordercolor="#666666"
   borderopacity="1"
   objecttolerance="10"
   gridtolerance="10"
   guidetolerance="10"
   inkscape:pageopacity="0"
   inkscape:pageshadow="2"
   inkscape:window-width="1244"
   inkscape:window-height="814"
   id="namedview23"
   showgrid="false"
   inkscape:zoom="0.76095916"
   inkscape:cx="232.70389"
   inkscape:cy="290"
   inkscape:window-x="431"
   inkscape:window-y="145"
   inkscape:window-maximized="0"
   inkscape:current-layer="svg2" />
<g
   id="Layer_2">
	<g
   id="g1327">
		<path
   id="path1329"
   fill="#111111"
   stroke="#EEEEEE"
   stroke-width="3.408"
   d="M66.275,1.768    c-41.335,0-64.571,21.371-64.571,65.036v450.123c0,40.844,20.894,62.229,62.192,62.229H515.92    c41.307,0,62.229-20.316,62.229-62.229V66.804c0-42.601-20.923-65.036-63.522-65.036C514.624,1.768,66.133,1.625,66.275,1.768z" />
	</g>
</g>
<g
   id="g9"
   transform="matrix(1.1149392,0,0,1.1149392,31.421453,61.844974)">
		<path
   style="fill:#ffffff"
   inkscape:connector-curvature="0"
   id="path11"
   d="M 406.459,199.13 395.063,104.443 C 394.698,89.25 382.221,77.002 366.942,77.002 h -94.118 l -3.831,-11.56 c 0,-9.84 -7.975,-17.815 -17.813,-17.815 h -38.91 c -9.84,0 -17.814,7.976 -17.814,17.815 l -2.649,11.56 H 96.902 c -15.28,0 -27.753,12.249 -28.121,27.441 L 57.384,199.13 c -24.493,10.192 -9.662,33.125 -9.662,33.125 l 75.945,129.387 H 340.175 L 416.12,232.255 c 10e-4,0 14.833,-22.932 -9.661,-33.125 z M 89.402,105.132 c 0,-4.137 3.365,-7.501 7.5,-7.501 h 270.039 c 4.135,0 7.502,3.364 7.502,7.501 v 0.618 l 10.271,85.355 c -48.531,-17.784 -152.793,-55.889 -152.793,-55.889 0,0 -104.263,38.105 -152.794,55.889 L 89.402,105.75 Z" />
		<path
   style="fill:#ffffff"
   inkscape:connector-curvature="0"
   id="path13"
   d="M 222.101,111.695 H 120.947 c -8.086,0 -14.643,6.556 -14.643,14.642 l -4.954,41.16 c 41.181,-15.074 98.137,-35.896 120.75,-44.162 v -11.64 z" />
		<path
   style="fill:#ffffff"
   inkscape:connector-curvature="0"
   id="path15"
   d="m 357.539,126.337 c 0,-8.086 -6.555,-14.642 -14.643,-14.642 H 241.745 v 11.642 c 22.614,8.266 79.57,29.085 120.75,44.16 z" />
	</g>
</svg>