<?xml version="1.0" encoding="UTF-8" standalone="no"?>
<!-- Generator: Adobe Illustrator 15.0.0, SVG Export Plug-In . SVG Version: 6.00 Build 0)  -->

<svg
   xmlns:dc="http://purl.org/dc/elements/1.1/"
   xmlns:cc="http://creativecommons.org/ns#"
   xmlns:rdf="http://www.w3.org/1999/02/22-rdf-syntax-ns#"
   xmlns:svg="http://www.w3.org/2000/svg"
   xmlns="http://www.w3.org/2000/svg"
   xmlns:sodipodi="http://sodipodi.sourceforge.net/DTD/sodipodi-0.dtd"
   xmlns:inkscape="http://www.inkscape.org/namespaces/inkscape"
   version="1.1"
   x="0px"
   y="0px"
   width="580px"
   height="580px"
   viewBox="0 0 580 580"
   enable-background="new 0 0 580 580"
   xml:space="preserve"
   id="svg3007"
   inkscape:version="0.48.4 r9939"
   sodipodi:docname="body.svg"><metadata
   id="metadata3027"><rdf:RDF><cc:Work
       rdf:about=""><dc:format>image/svg+xml</dc:format><dc:type
         rdf:resource="http://purl.org/dc/dcmitype/StillImage" /></cc:Work></rdf:RDF></metadata><defs
   id="defs3025">
	

		
		
		
		
	</defs><sodipodi:namedview
   pagecolor="#ffffff"
   bordercolor="#666666"
   borderopacity="1"
   objecttolerance="10"
   gridtolerance="10"
   guidetolerance="10"
   inkscape:pageopacity="0"
   inkscape:pageshadow="2"
   inkscape:window-width="1920"
   inkscape:window-height="1147"
   id="namedview3023"
   showgrid="false"
   inkscape:zoom="1.63"
   inkscape:cx="237.54601"
   inkscape:cy="273.60213"
   inkscape:window-x="-8"
   inkscape:window-y="-8"
   inkscape:window-maximized="1"
   inkscape:current-layer="svg3007" />
<g
   id="Layer_2">
	<g
   id="g1327">
		<path
   id="path1329"
   fill="#111111"
   stroke="#EEEEEE"
   stroke-width="3.408"
   d="M66.275,1.768    c-41.335,0-64.571,21.371-64.571,65.036v450.123c0,40.844,20.894,62.229,62.192,62.229H515.92    c41.307,0,62.229-20.316,62.229-62.229V66.804c0-42.601-20.923-65.036-63.522-65.036C514.624,1.768,66.133,1.625,66.275,1.768z" />
	</g>
</g>
<g
   id="g3038"
   transform="matrix(1.3986685,0,0,1.3219031,-115.84786,-129.35134)"><circle
     style="fill:#ffffff"
     sodipodi:ry="46.596001"
     sodipodi:rx="46.596001"
     sodipodi:cy="224.075"
     sodipodi:cx="290"
     id="circle3015"
     r="46.596001"
     cy="224.075"
     cx="290"
     d="m 336.596,224.075 c 0,25.73426 -20.86174,46.596 -46.596,46.596 -25.73426,0 -46.596,-20.86174 -46.596,-46.596 0,-25.73426 20.86174,-46.596 46.596,-46.596 25.73426,0 46.596,20.86174 46.596,46.596 z" /><path
     sodipodi:nodetypes="cssccsccccccccscc"
     style="fill:#ffffff"
     inkscape:connector-curvature="0"
     id="path3021"
     d="M 363.83811,307.30439 C 358.05011,293.65539 345.842,286.865 330.083,286.865 l -80.167,0 c -15.76,0 -29.282,9.574 -35.071,23.225 -4.42701,11.44965 -3.006,36.704 -3.006,36.704 l 0,40.279 c 0,18.278 12.883,33.543 30.062,37.225 l 0,-86.327 9.019,0 0,119.667 78.162,0 0,-119.667 9.019,0 0,86.327 c 17.179,-3.683 30.062,-18.946 30.062,-37.225 l 0,-40.278 c 1.27011,-33.68528 -4.51687,-40.44397 -4.32489,-39.49061 z" /></g>
</svg>