<?xml version="1.0" encoding="utf-8"?>
<!-- Generator: Adobe Illustrator 15.0.0, SVG Export Plug-In . SVG Version: 6.00 Build 0)  -->
<!DOCTYPE svg PUBLIC "-//W3C//DTD SVG 1.1//EN" "http://www.w3.org/Graphics/SVG/1.1/DTD/svg11.dtd">
<svg version="1.1" xmlns="http://www.w3.org/2000/svg" xmlns:xlink="http://www.w3.org/1999/xlink" x="0px" y="0px" width="580px"
	 height="580px" viewBox="0 0 580 580" enable-background="new 0 0 580 580" xml:space="preserve">
<g id="Layer_2">
	<g id="g1327">
		<path id="path1329" fill="#111111" stroke="#EEEEEE" stroke-width="3.408" d="M66.275,1.768
			c-41.335,0-64.571,21.371-64.571,65.036v450.123c0,40.844,20.894,62.229,62.192,62.229H515.92
			c41.307,0,62.229-20.316,62.229-62.229V66.804c0-42.601-20.923-65.036-63.522-65.036C514.624,1.768,66.133,1.625,66.275,1.768z"/>
	</g>
</g>
<g id="svg2" xmlns:inkscape="http://www.inkscape.org/namespaces/inkscape" xmlns:cc="http://creativecommons.org/ns#" xmlns:svg="http://www.w3.org/2000/svg" xmlns:dc="http://purl.org/dc/elements/1.1/" xmlns:rdf="http://www.w3.org/1999/02/22-rdf-syntax-ns#" xmlns:sodipodi="http://sodipodi.sourceforge.net/DTD/sodipodi-0.dtd" inkscape:output_extension="org.inkscape.output.svg.inkscape" sodipodi:docname="waste_bin.svg" sodipodi:version="0.32" inkscape:version="0.46">
	<g>
		<polygon fill="#FFFFFF" points="134.405,409.771 445.596,409.771 290,318.092 		"/>
		<path fill="#FFFFFF" d="M299.85,44.203L43.621,240.149h59.146v295.648H477.26V240.149h59.119L299.85,44.203z M464.806,421.091
			l-5.549-3.271H120.742l-5.547,3.271c0,0-3.829-19.739,16.499-32.112c0,0,100.976-57.011,106.057-59.659
			c5.083-2.656,16.792-13.477,20.771-25.632c4.498-13.74,17.579-18.892,28.141-19.771v-15.562c0-5.967,4.9-8.318,8.833-10.209
			c4.746-2.276,8.843-4.246,8.843-11.442c0-7.799-6.342-14.143-14.144-14.143c-7.796,0-14.139,6.344-14.139,14.143
			c0,0.789,0.066,1.581,0.195,2.354l-6.977,1.16c-0.194-1.151-0.292-2.333-0.292-3.513c0-11.698,9.518-21.211,21.212-21.211
			c11.7,0,21.213,9.514,21.213,21.211c0,11.65-7.731,15.363-12.846,17.814c-3.741,1.795-4.83,2.514-4.83,3.837v15.594
			c10.487,0.97,23.304,6.174,27.749,19.739c3.978,12.155,15.682,22.976,20.767,25.632c5.085,2.648,106.061,59.659,106.061,59.659
			C468.634,401.352,464.806,421.091,464.806,421.091z"/>
	</g>
</g>
</svg>
