<?xml version="1.0" encoding="UTF-8" standalone="no"?>
<!-- Generator: Adobe Illustrator 15.0.0, SVG Export Plug-In . SVG Version: 6.00 Build 0)  -->

<svg
   xmlns:dc="http://purl.org/dc/elements/1.1/"
   xmlns:cc="http://creativecommons.org/ns#"
   xmlns:rdf="http://www.w3.org/1999/02/22-rdf-syntax-ns#"
   xmlns:svg="http://www.w3.org/2000/svg"
   xmlns="http://www.w3.org/2000/svg"
   xmlns:sodipodi="http://sodipodi.sourceforge.net/DTD/sodipodi-0.dtd"
   xmlns:inkscape="http://www.inkscape.org/namespaces/inkscape"
   version="1.1"
   x="0px"
   y="0px"
   width="580px"
   height="580px"
   viewBox="0 0 580 580"
   enable-background="new 0 0 580 580"
   xml:space="preserve"
   id="svg2"
   inkscape:version="0.48.4 r9939"
   sodipodi:docname="29169.svg"><metadata
   id="metadata15"><rdf:RDF><cc:Work
       rdf:about=""><dc:format>image/svg+xml</dc:format><dc:type
         rdf:resource="http://purl.org/dc/dcmitype/StillImage" /><dc:title></dc:title></cc:Work></rdf:RDF></metadata><defs
   id="defs13">
	
</defs><sodipodi:namedview
   pagecolor="#ffffff"
   bordercolor="#666666"
   borderopacity="1"
   objecttolerance="10"
   gridtolerance="10"
   guidetolerance="10"
   inkscape:pageopacity="0"
   inkscape:pageshadow="2"
   inkscape:window-width="1060"
   inkscape:window-height="889"
   id="namedview11"
   showgrid="false"
   inkscape:zoom="0.50373353"
   inkscape:cx="156.89838"
   inkscape:cy="321.68254"
   inkscape:window-x="845"
   inkscape:window-y="120"
   inkscape:window-maximized="0"
   inkscape:current-layer="svg2" />
<g
   id="Layer_1">
	<g
   id="Layer_2">
		<g
   id="g1327">
			<path
   id="path1329"
   d="M66.275,1.768     c-41.335,0-64.571,21.371-64.571,65.036v450.123c0,40.844,20.895,62.229,62.192,62.229h452.024     c41.307,0,62.229-20.315,62.229-62.229V66.804c0-42.602-20.923-65.036-63.521-65.036C514.625,1.768,66.133,1.625,66.275,1.768z"
   stroke-width="3.408"
   stroke="#EEEEEE"
   fill="#111111" />
		</g>
	</g>
</g>
<path
   style="fill:#ffffff;fill-rule:evenodd"
   inkscape:connector-curvature="0"
   id="path9"
   d="m 399.81795,177.41835 0,-43.53364 -32.4815,-11.9621 c -23.4858,-11.88529 -54.23324,-18.91792 -43.39954,-58.175926 -0.25613,-0.32843 -0.5484,-0.616183 -0.84068,-0.90695 l -62.62479,0 c 0.25761,6.051862 3.59616,20.395848 -0.0211,29.929376 -5.81383,15.32626 -28.86725,20.90807 -47.15391,28.86724 l -10e-4,0 -33.26038,12.24836 0,43.53364 28.91094,27.87141 c 11.43029,21.43689 23.0956,44.70424 20.66853,72.49731 -3.14721,36.06259 -37.10664,68.6616 -38.09193,105.2063 -0.82711,30.69771 35.9963,117.77404 51.43406,134.23022 105.33465,-0.0136 1.02893,-0.55121 105.39312,0.79712 8.19419,-10.54745 39.35291,-87.91863 40.88809,-125.95784 2.11672,-52.46303 -35.50365,-75.31156 -38.09193,-117.9036 -1.63161,-26.84996 9.21263,-49.06724 20.05687,-69.15425 z"
   clip-rule="evenodd"
   sodipodi:nodetypes="cccccccccccccccccscc" />
</svg>