<?xml version="1.0" encoding="utf-8"?>
<!-- Generator: Adobe Illustrator 15.0.0, SVG Export Plug-In . SVG Version: 6.00 Build 0)  -->
<!DOCTYPE svg PUBLIC "-//W3C//DTD SVG 1.1//EN" "http://www.w3.org/Graphics/SVG/1.1/DTD/svg11.dtd">
<svg version="1.1" xmlns="http://www.w3.org/2000/svg" xmlns:xlink="http://www.w3.org/1999/xlink" x="0px" y="0px" width="580px"
	 height="580px" viewBox="0 0 580 580" enable-background="new 0 0 580 580" xml:space="preserve">
<g id="Layer_1">
	<g id="Layer_2">
		<g id="g1327">
			<path id="path1329" fill="#111111" stroke="#EEEEEE" stroke-width="3.408" d="M66.275,1.768
				c-41.335,0-64.571,21.371-64.571,65.036v450.123c0,40.844,20.895,62.229,62.192,62.229h452.024
				c41.307,0,62.229-20.315,62.229-62.229V66.804c0-42.602-20.923-65.036-63.521-65.036C514.625,1.768,66.133,1.625,66.275,1.768z"
				/>
		</g>
	</g>
</g>
<g id="Layer_2_1_">
	<path fill="#FFFFFF" d="M320.975,471.919v-67.581c10.035,0.236,9.133-17.411,9.133-17.411l-9.133-55.908v-147.59
		c0-8.944-4.732-16.78-11.828-21.148c-3.996,4.247-9.591,7.148-15.91,7.897v-18.688h2.871
		c47.483-62.053-21.044-117.09-13.49-105.219s18.885,16.727-5.936,55.577s5.936,49.642,5.936,49.642h4.144v18.688
		c-6.318-0.749-11.913-3.65-15.911-7.897c-7.096,4.369-11.828,12.205-11.828,21.149v23.667c-3.408,10.495-7.343,22.659-9.493,29.468
		c-3.347,10.598,2.389,15.57,9.493,15.595v219.761c-36.676,9.153-62.99,34.095-62.99,63.435h187.932
		C383.966,506.013,357.651,481.071,320.975,471.919z"/>
</g>
</svg>
