<?xml version="1.0" encoding="UTF-8" standalone="no"?>
<!-- Generator: Adobe Illustrator 15.0.0, SVG Export Plug-In . SVG Version: 6.00 Build 0)  -->

<svg
   xmlns:dc="http://purl.org/dc/elements/1.1/"
   xmlns:cc="http://creativecommons.org/ns#"
   xmlns:rdf="http://www.w3.org/1999/02/22-rdf-syntax-ns#"
   xmlns:svg="http://www.w3.org/2000/svg"
   xmlns="http://www.w3.org/2000/svg"
   xmlns:sodipodi="http://sodipodi.sourceforge.net/DTD/sodipodi-0.dtd"
   xmlns:inkscape="http://www.inkscape.org/namespaces/inkscape"
   version="1.1"
   x="0px"
   y="0px"
   width="580px"
   height="580px"
   viewBox="0 0 580 580"
   enable-background="new 0 0 580 580"
   xml:space="preserve"
   id="svg4659"
   sodipodi:docname="cannabis.svg"
   inkscape:version="0.92.3 (2405546, 2018-03-11)"><metadata
   id="metadata4665"><rdf:RDF><cc:Work
       rdf:about=""><dc:format>image/svg+xml</dc:format><dc:type
         rdf:resource="http://purl.org/dc/dcmitype/StillImage" /><dc:title></dc:title></cc:Work></rdf:RDF></metadata><defs
   id="defs4663" /><sodipodi:namedview
   pagecolor="#ffffff"
   bordercolor="#666666"
   borderopacity="1"
   objecttolerance="10"
   gridtolerance="10"
   guidetolerance="10"
   inkscape:pageopacity="0"
   inkscape:pageshadow="2"
   inkscape:window-width="1262"
   inkscape:window-height="828"
   id="namedview4661"
   showgrid="false"
   inkscape:zoom="0.065975396"
   inkscape:cx="290"
   inkscape:cy="290"
   inkscape:window-x="537"
   inkscape:window-y="-6"
   inkscape:window-maximized="0"
   inkscape:current-layer="svg4659" />
<g
   id="Layer_2">
	<g
   id="g1327">
		<path
   id="path1329"
   fill="#111111"
   stroke="#EEEEEE"
   stroke-width="3.408"
   d="M66.275,1.768    c-41.335,0-64.571,21.371-64.571,65.036v450.123c0,40.844,20.894,62.229,62.192,62.229H515.92    c41.307,0,62.229-20.316,62.229-62.229V66.804c0-42.601-20.923-65.036-63.522-65.036C514.624,1.768,66.133,1.625,66.275,1.768z" />
	</g>
</g>

<g
   transform="matrix(2.0348354,0,0,2.0348354,-17.913529,-67.2155)"
   id="g4592"
   style="fill:#ffffff;fill-opacity:1"><path
     inkscape:connector-curvature="0"
     style="fill:#ffffff;fill-opacity:1"
     d="m 96.198,135.752 c 2.003,1.333 2.668,3.336 4.005,5.335 0.667,0 0.667,0 1.327,0 0.672,0.67 1.337,1.333 2.004,2 0,0.665 0,0.665 0,1.334 0.667,0 1.333,0 1.333,0.666 0,0.667 0,1.331 0,2 1.333,1.334 2.67,0.668 3.335,2.001 0,0.669 0,0.669 0,1.333 0.669,0 1.333,0 1.333,0.667 -0.664,1.337 1.337,2 0.667,3.334 3.336,1.998 4.003,5.333 5.338,8.67 0.667,0 0.667,0 1.334,0 0.667,0.666 0.667,0.666 1.331,1.333 0,3.334 2.001,6.669 4.668,8.666 0,0.671 0,0.671 0,1.335 0.667,0.665 0.667,0.665 1.335,1.336 0,1.998 0,3.334 1.333,4.664 0,0.67 0,1.337 0,2.005 1.333,0 1.333,0.664 2.003,1.33 0.667,2.67 0.667,6.67 3.333,8.005 0,0.665 0,1.335 0,1.999 1.997,1.334 0.665,3.334 1.997,5.337 l -0.668,0.663 c 0.668,0.668 1.339,1.338 2.003,2.001 0,1.331 0.668,2.668 1.335,4.002 l -0.667,0.67 c 0,1.331 2,0 2,1.331 0.667,2.67 1.331,4.669 2.004,7.332 0.664,0 1.331,0 1.331,0.671 0,1.333 0,2.666 0,3.997 1.334,0.67 1.334,2.004 1.334,3.338 3.334,4.001 3.998,8.666 6.666,12.67 0.67,-2 -0.667,-4.67 -0.667,-6.671 -1.331,-1.331 -0.664,-3.332 -2,-4.665 l 0.67,-0.668 c -2.004,-2 -1.334,-6.001 -2.004,-8.672 -0.663,0 -1.334,0 -1.334,-0.663 1.334,-3.335 -1.33,-7.336 -2.664,-10.671 0,-0.67 0,-1.333 0.667,-1.333 0,-0.668 0,-1.331 -0.667,-1.331 l 0.667,-0.67 c -0.667,-0.668 -0.667,-0.668 -1.334,-1.331 0,-2.003 -0.664,-3.334 -2,-4.671 0,-1.33 1.337,-2 0.664,-3.334 -0.664,-0.666 -0.664,-0.666 -1.331,-1.33 -0.667,-2.001 0,-4.669 -2,-6.672 0,-0.664 0,-1.332 0.667,-1.999 -1.335,-3.336 -1.999,-7.334 -2.67,-10.67 1.335,-1.999 0,-5.335 -1.333,-7.334 0.665,-2.003 -1.999,-4.67 1.333,-5.333 0,-2.004 -0.668,-3.337 -1.333,-4.672 -0.665,-2 0.665,-4.667 -0.665,-6.671 0.665,-0.664 1.329,-0.664 1.997,-0.664 0,-1.333 0.671,-3.334 -0.668,-4.667 l 0.668,-0.668 c -0.668,-2 -1.333,-4.667 0.671,-6.001 0,-0.666 0,-1.332 -0.671,-1.332 2.004,-2.667 -0.668,-6.003 2.67,-7.335 0,-2.668 0,-5.335 0,-8.003 0,-0.666 0.666,-0.666 1.333,-0.666 -0.667,-2.667 0.667,-4.667 0,-7.337 0.667,-0.664 0.667,-1.998 2.004,-2.665 l 0.664,0.667 c -0.664,-3.334 0.667,-6.002 0.667,-9.337 0.667,-0.664 1.334,-0.664 2,-0.664 0,-0.67 0,-1.336 -0.667,-1.336 1.33,-1.332 1.33,-2.665 1.33,-4.669 1.334,-1.332 2.004,-3.331 2.668,-5.333 0,-0.666 0,-1.334 -0.664,-1.334 1.334,0 0,-2 1.334,-2 l -0.67,-0.668 c 1.336,-2.667 0,-6.669 2,-9.335 0,-0.668 0,-1.332 -0.664,-1.332 1.331,-2.001 0,-4.667 0,-6.67 h 1.331 c 1.337,0.668 0,2.002 1.337,2.666 0,0.67 0.666,2.003 -0.667,2.667 2,2.668 0.667,6.004 2.667,8.003 0,1.333 -0.667,2.667 0.667,4.001 l -0.667,0.668 c 0.667,0.666 0.667,0.666 1.333,1.333 l -0.666,0.667 c 0.666,1.334 0.666,1.334 2.003,2 l -0.673,0.664 c 2.001,2.004 1.337,4.671 2.001,6.669 0.67,0 1.337,0 1.337,0.67 0,0.666 0,1.332 0.666,1.998 l -0.666,0.67 c 1.334,1.998 0,4.667 2.664,6.001 0,2.666 0.667,5.334 0,8 0.667,0 0.667,0 1.334,0 1.334,3.333 0,6.667 0.667,10.001 0.667,0 1.334,0 1.334,0.67 0,1.998 0.663,4 1.334,5.333 -2.001,1.334 0.666,3.335 0,5.335 0.666,0.666 0.666,0.666 1.333,1.332 0,0.664 0,1.334 -0.667,2 1.334,2.67 -0.666,6.002 0,8.669 0.667,0 1.334,0 1.334,0.667 0,1.333 0.667,2.668 -0.667,4.003 l 0.667,0.665 c -1.334,0.667 0,2.004 -1.334,2.667 0,5.334 1.334,10.671 -1.337,15.34 0.671,0.666 0.671,0.666 1.337,1.333 0,3.331 -0.666,6.002 -2,8.669 1.334,2.667 0.663,6.669 -1.334,8.667 1.997,3.335 -1.334,6.669 -0.667,10.003 0,0.667 -0.667,0.667 -1.334,0.667 0.667,0.669 0.667,0.669 1.334,1.336 0,0.663 0,0.663 0,1.331 0,0.67 -0.667,0.67 -1.334,0.67 0,0.663 0,1.331 -0.667,1.994 l 0.667,0.67 c 0,0.667 -0.667,0.667 -1.33,0.667 0,2.004 -1.334,3.335 0,5.336 0,0.669 -0.668,0.669 -1.334,0.669 0,1.999 0,4.662 -1.337,6.666 l 0.67,0.667 c 0,1.997 -0.67,4.001 -1.334,5.335 l 0.664,0.666 c -2.001,2.001 0.67,4.002 -1.328,6.003 0,0.664 0,1.331 0.664,1.331 -1.337,0.666 -0.664,2.004 -0.664,3.334 0,-0.664 0,-0.664 0,-1.33 0.664,-0.668 0.664,-0.668 1.328,-1.338 0.67,-3.998 2.003,-8 4.668,-10.666 -0.667,-1.999 2.001,-4.002 0,-5.335 1.334,-1.998 2.668,-3.334 2.001,-5.333 0.667,-0.669 0.667,-0.669 1.33,-1.337 0,-1.333 0,-2 0,-3.334 0.671,-0.667 1.337,-0.667 2.004,-0.667 0,-1.334 0,-2.667 0,-3.998 0.667,-0.67 0.667,-2.001 2.001,-2.668 0,-1.336 0,-2.667 0,-4.004 1.33,-1.33 1.33,-2.665 1.33,-4.664 0.67,-0.668 1.337,-0.668 2.004,-0.668 l -0.667,-0.667 c 1.334,-1.336 0.667,-3.334 2.001,-4.671 l -0.667,-0.666 c 0.667,-1.332 0.667,-2.669 2.665,-3.329 1.337,-3.338 0.67,-7.339 2.67,-10.006 0.667,0 0.667,0 1.334,0 0,-1.333 0.67,-1.333 1.333,-2.001 0,-2.668 0.668,-5.338 2.001,-7.335 0.666,0 0.666,0 1.334,0 1.337,-3.338 2.001,-6.667 4.669,-8.668 0,-2 1.996,-3.335 1.996,-5.34 2.671,-1.996 5.339,-4.661 5.339,-7.999 0.667,-1.334 2.001,-0.667 2.667,-0.667 0,-1.334 1.998,-2 1.998,-4 2.671,-2.001 5.335,-5.336 8.005,-7.335 1.998,-2.002 4.002,-3.334 4.666,-6.002 0.669,-0.666 2.003,-0.666 2.667,-2.001 0.667,0 0.667,0 1.334,0 2.671,-3.334 6.005,-5.333 9.336,-8 0.666,-1.333 1.334,-3.334 2.004,-4.668 0.66,0 1.327,0 1.327,0.666 0,6.669 -2.665,12.668 -3.331,19.339 -1.33,0 0,2 -1.33,2 0,0.666 0,1.334 0,2 -0.667,0.668 -0.667,0.668 -1.338,1.335 0,0.665 0,0.665 0,1.331 0.671,0 1.338,0 1.338,0.669 -2.001,2.667 -2.671,5.333 -4.005,8.001 0.666,0.67 0.666,1.333 0.666,2 -1.33,0 0,2 -1.33,2 0,2.668 -1.334,4.67 -2.004,6.67 0.67,0 1.338,0 1.338,0.669 -1.338,1.997 -2.001,3.995 -2.671,6.666 0,0.665 -0.667,0.665 -1.334,0.665 0,0.669 0,1.334 0.667,1.334 -0.667,2.003 -1.331,4.67 -3.334,6.67 0.669,0.668 0.669,1.334 0.669,2.001 -1.333,0.666 -2,2.001 -2,3.331 -0.67,0.671 -1.998,2 -2.668,2.671 0.67,2.667 -2.67,4.664 -3.337,7.333 0,0.666 -0.667,0.666 -1.331,0.666 -1.333,2.001 -1.333,4.005 -2.668,6.006 -2,1.33 -3.334,2.664 -4.667,4.664 0.667,0 0.667,0.668 0.667,1.337 -2.001,2.667 -6.002,3.997 -6.002,7.329 -2.004,0.67 -3.334,2.671 -5.335,3.341 0.666,1.998 -1.331,3.332 -2.668,4.665 -0.668,0 -0.668,0 -1.334,0 -0.666,1.335 -2.001,1.335 -1.333,3.335 -2.001,2 -5.335,2.667 -6.005,6.001 -5.996,4.668 -11.334,10.668 -16.667,16.669 0.668,0 0.668,0 1.331,0 0.667,-0.663 0.667,-0.663 1.334,-1.331 0.667,0 0.667,0 1.334,0 1.334,-1.336 2.668,-3.334 5.335,-3.334 0,-0.67 0,-1.336 0.667,-1.336 0.67,0 1.33,0 2,0 1.334,-1.331 3.334,-2.665 4.666,-4.669 0.67,0 1.337,0 2.003,0 2.001,-1.331 3.334,-2.665 4.669,-4.665 0.666,0 1.332,0 2,0 2.001,-2.004 4.001,-4.668 7.336,-4.001 0.667,-0.667 0.667,-0.667 1.333,-1.334 0.667,0 0.667,0 1.334,0 0,-0.666 0,-1.337 0.664,-1.337 l 0.667,0.671 0.67,-0.671 c 0.667,0 1.334,0 1.334,0.671 1.333,0 2,-1.334 3.331,-0.671 1.336,-1.327 2.671,-1.997 4.668,-1.997 0.667,0.67 0.667,0.67 1.334,1.334 2.003,-1.334 5.338,-2 8.002,-0.664 l 0.67,-0.67 c 0.664,0 1.331,0 1.331,0.67 0.667,-1.336 3.338,0 4.004,-1.336 2.668,2.663 5.999,0.666 9.33,1.336 2.004,2.664 6.006,0 8.673,1.998 -0.667,0 -0.667,0.666 -0.667,1.333 2.667,1.333 4.668,0.667 7.333,0.667 0.669,0.666 0.669,1.336 0.669,1.997 4.669,0.67 8.003,4.004 12.671,5.338 0.667,1.331 2,1.331 2.664,2.001 0,1.334 2.004,0.667 1.337,1.998 0,0.67 -0.667,0.67 -1.337,0.67 -0.664,-0.67 -0.664,-0.67 -1.33,-1.334 l -0.667,0.664 c -0.667,-1.331 -3.337,0 -4.002,-1.331 l -0.666,0.667 c -2.001,-1.334 -4.001,-0.667 -6.002,-1.334 -0.667,0.667 -1.331,1.334 -2.001,1.998 l -0.667,-0.664 c -3.334,1.334 -7.335,0.664 -10.669,2.665 -0.671,0 -1.331,0 -2.001,-0.667 0,0.667 0,1.333 -0.667,2.003 l -0.667,-0.67 c -2.004,1.338 -4.669,1.338 -6.665,1.338 -0.667,1.33 -2.671,0.666 -4.005,2 l -0.664,-0.67 c -0.666,0.67 -1.334,0.67 -2.004,0.67 0,0.666 0,1.334 -0.663,1.334 -1.337,0 -2.668,0.663 -4.002,-0.668 l -0.669,0.668 -0.664,-0.668 -0.667,0.668 -0.67,-0.668 c -0.667,0.668 -1.328,0.668 -1.998,0.668 0,0.663 0,1.332 -0.667,1.332 -5.334,-0.669 -10.003,1.999 -15.338,0 -0.667,0 -1.333,0 -1.333,0.668 l -0.667,-0.668 c -1.337,0 0,1.999 -1.337,1.999 -3.331,-2.668 -7.999,1.333 -12.001,0 -2,2.667 -5.335,0 -8.006,2.001 -0.66,0 -1.33,0 -1.33,-0.668 -3.334,0 -7.336,0 -10.667,1.334 2.664,-0.666 5.332,-1.334 6.662,1.333 l 0.671,-0.666 c 2,1.334 4.004,-0.667 5.334,1.998 2.001,0.673 4.004,0.673 6.003,0.673 0.666,2.665 2.667,3.334 5.335,2.665 0.666,0.669 0.666,0.669 1.332,1.333 l -0.666,0.667 c 0.666,0 0.666,0 1.334,0 0.667,0.67 0.667,0.67 1.337,1.334 l 0.664,-0.664 c 0.667,0.664 2,0.664 2.668,1.997 0,0.667 0,0.667 0,1.337 1.996,0.664 3.334,2 4.667,2.668 0,0.666 0,1.33 0,1.997 0.667,1.333 2.668,1.333 3.335,2.665 -0.667,3.338 3.998,4.004 5.334,6.672 l -0.666,0.666 c 2.667,2.001 4.665,4.669 7.335,6.669 0.667,1.334 1.998,1.998 1.998,3.334 0.667,0 1.337,0 1.337,0.667 0,0.665 0,0.665 0,1.334 0,0.666 -0.67,0.666 -1.337,0.666 -0.661,-1.335 -1.998,-1.335 -2.667,-2 -0.665,0 -0.665,0 -1.334,0 -0.667,-0.667 -0.667,-0.667 -1.334,-1.336 -2.667,-0.667 -5.332,-1.331 -7.332,-3.331 -1.334,0 -2.671,0 -3.338,-1.334 -0.664,0 -0.664,0 -1.331,0 -0.667,-1.334 -2,-1.334 -2.671,-2.004 -0.666,0 -1.333,0 -1.333,0.67 -1.998,-1.334 -3.995,-2 -6,-3.335 0,0.667 0,1.335 -0.666,1.335 -0.666,-1.335 -2.664,-1.335 -3.334,-3.335 -0.667,0 -1.334,0 -1.334,0.666 -2.67,-1.336 -4.002,-4.667 -7.336,-5.331 -1.33,-2.005 -2.667,-4.669 -5.334,-4.669 -1.334,-1.334 -2.001,-3.334 -3.335,-4.671 -0.667,0 -0.667,0 -1.334,0 -0.667,-0.663 -0.667,-1.333 -0.667,-1.997 -1.997,-0.67 -1.997,-2.001 -3.334,-3.338 -2.001,8.672 0,17.34 -0.664,26.009 1.334,2 1.334,3.998 1.334,6.001 -0.67,2 -1.998,3.999 -4.001,5.335 -0.667,0 -0.667,0 -1.334,0 -0.667,0.667 -0.667,0.667 -1.333,1.334 -1.337,-0.667 0,-2.004 -1.337,-2.67 0,-3.334 0.67,-7.334 0,-10.664 2.003,-1.34 0,-3.338 1.337,-4.671 0,-6.672 0,-14.002 0,-20.674 -0.667,0 -0.667,0 -1.337,0 -1.998,2.001 -4.001,4.672 -5.335,6.672 -0.664,0 -0.664,0 -1.33,0 -0.667,2 -2.001,3.998 -3.338,5.335 -0.664,0 -0.664,0 -1.331,0 0.667,1.331 -2,0.663 -0.667,1.995 -1.333,0.673 -2.665,2.003 -3.336,3.338 -0.668,0 -1.333,0 -1.997,0 -1.334,2 -2.003,4 -4.003,4.667 -0.667,0 -1.333,0 -1.333,-0.667 -0.665,1.335 -2,2.001 -2.667,3.335 -2.667,-1.334 -4.668,1.334 -7.333,2.668 -0.669,0 -1.335,0 -1.335,-0.668 -1.333,0.668 -1.333,0.668 -2.002,2 -2.667,0.668 -5.335,1.999 -8.001,4 -0.667,0 -1.333,0 -1.999,0 0,0.669 0,1.335 -0.672,1.335 -2.664,0 -4.663,1.999 -6.666,3.335 -0.667,0 -1.334,0 -1.334,-0.67 0,-2.001 2,-4.665 4.003,-5.332 0,-0.669 0,-0.669 0,-1.336 2.002,-1.998 5.335,-3.998 6.002,-7.332 1.333,-0.668 2.002,-2.001 4.002,-2.669 0,-0.666 0,-1.336 -0.67,-1.336 1.335,-2.665 4.671,-3.995 4.005,-6.663 3.998,-2.001 5.335,-6.005 9.333,-7.335 1.333,0 0.667,-2.004 2.003,-2.004 0.665,0 2,0 2.667,0 1.332,-0.667 1.999,-2 2.668,-2.668 l 0.667,0.668 c 0.664,-1.332 2,0 2.667,-1.332 l 0.665,0.664 c 1.333,-0.664 1.333,-0.664 2.004,-1.997 1.999,-0.673 3.999,-0.673 6,-0.673 0,-0.664 0,-1.332 0.667,-1.332 2,0 3.335,0 5.332,0 -1.334,-1.999 -3.332,0 -4.665,-1.333 l -0.667,0.667 c -0.667,0 -2.004,0.666 -2.667,-0.667 -0.667,0 -1.334,0 -1.334,0.667 -1.333,0 -3.336,0.666 -4.669,-0.667 l -0.665,0.667 -0.667,-0.667 -0.667,0.667 c -0.668,0 -1.332,0 -1.999,-0.667 0,0.667 -0.67,0.667 -1.336,0.667 -0.667,0 -0.667,-0.667 -0.667,-1.333 -2.667,-0.668 -4.668,1.333 -6.667,-0.668 l -0.668,0.668 c -0.664,0 -1.331,0 -1.331,-0.668 l -0.667,0.668 c -2.669,0.666 -6.005,-2.001 -8.67,0 l -0.67,-0.668 -0.667,0.668 c -2,0.666 -3.333,-0.668 -4.67,-1.331 -1.995,1.331 -4.663,0 -7.333,0.663 -0.667,-0.663 -0.667,-0.663 -1.332,-1.333 -2.67,0.67 -5.334,-0.664 -7.337,0.67 -0.664,-0.67 -1.331,-0.67 -1.331,-2.001 -2,0.667 -5.335,0.667 -6.67,-1.337 -0.666,0 -1.332,0 -1.332,0.669 -0.667,0 -1.334,0 -1.334,-0.669 l -0.666,0.669 -0.665,-0.669 c -0.67,0 -1.337,0 -1.337,0.669 -0.664,-1.332 -2.668,-0.669 -2.668,-2.666 -0.665,0 -1.332,0 -1.332,0.666 -0.669,0 -1.335,0 -2,-0.666 -0.669,0 -1.333,0 -1.333,0.666 -0.67,-0.666 -1.335,-0.666 -2.002,-0.666 -0.668,0 -0.668,-0.67 -0.668,-1.334 -2.667,-0.666 -5.335,2 -6.669,-0.666 -4.001,-0.668 -7.336,0.666 -11.333,0.666 -0.67,1.334 -2.001,2 -3.334,0.664 0.667,-1.33 2.665,-1.998 3.334,-3.334 0.664,0 0.664,0 1.333,0 0.667,-1.331 2,-2.001 3.332,-2.001 0.67,-1.331 2.667,-1.331 3.335,-2.668 0.667,0 0.667,0 1.332,0 0.667,-0.664 0.667,-0.664 1.334,-1.331 l 0.667,0.667 c 0.667,-0.667 1.333,-0.667 2.002,-0.667 l -0.668,-0.666 c 0,-0.668 0,-1.334 0.668,-1.334 0.667,0 2,0.666 2.666,-0.667 l 0.667,0.667 c 2.002,-0.667 3.334,-1.334 4.668,-3.338 1.333,2.004 3.336,-0.661 5.334,0 0.67,-0.661 0.67,-0.661 1.334,-1.331 2.667,0 5.333,0 8.002,0 0,-0.666 0,-1.333 0.667,-2 1.999,1.334 4.665,1.334 7.333,1.334 0.668,-0.667 0.668,-0.667 1.337,-1.334 l 0.662,0.667 0.668,-0.667 c 0.666,0.667 0.666,0.667 1.335,1.334 l 0.667,-0.667 c 0.665,1.333 1.999,0.667 3.333,0.667 0,-0.667 0,-1.334 0.669,-1.334 2.667,0.667 4.663,1.334 7.333,2.67 1.335,-2.003 3.336,-0.67 4.67,0.661 0.664,0 0.664,0 1.33,0 0.67,1.338 2,1.338 3.336,0.67 1.332,1.334 4.002,2.001 4.666,4.002 3.334,-0.668 5.335,2.667 7.336,4.665 0.667,-0.664 0.667,-0.664 1.333,-1.331 2,2.665 4.668,6.002 8.004,5.336 0.667,0.666 0.667,0.666 1.333,1.33 0.667,0 0.667,0 1.334,0 2,2.004 4.668,2.667 7.335,4.004 -2.004,-2.668 -4.001,-5.334 -7.335,-6.672 -2,-2.667 -4.67,-3.998 -6.003,-6.666 -1.332,0 -1.999,-0.666 -2.667,-1.334 0.668,-1.333 -1.331,-0.666 -2,-2 0,-0.666 0,-0.666 0,-1.334 -2.666,-1.331 -4.666,-2.667 -6.668,-4.001 0,-0.666 0,-1.337 0.667,-1.337 -1.999,-1.327 -3.998,-1.997 -5.332,-3.331 0,-3.334 -4.001,-4.001 -6.004,-6.002 0,-0.667 0,-0.667 0,-1.334 -1.998,-2 -4.668,-3.331 -6,-5.332 -1.333,-0.667 2.002,-0.667 0,-1.336 -1.333,-2.667 -4,-4.001 -6.002,-6.669 0.669,-3.331 -3.336,-4.666 -4.667,-6.666 0,-0.67 0,-0.67 0,-1.336 -0.667,0 -1.336,0 -1.336,-0.664 0.669,-2.005 -0.666,-2.665 -1.996,-4.002 0,-0.669 0,-0.669 0,-1.333 -2.002,-0.668 -2.002,-2.67 -3.336,-4.005 0,-0.664 0,-1.33 0.667,-1.33 -1.337,-2.001 -2.668,-4.002 -4.003,-6.002 0.669,-0.668 0.669,-1.334 0.669,-2.001 -2.002,-2.002 -2.667,-4.668 -4,-7.338 l 0.666,-0.665 c 0.667,-3.331 -4.001,-6.668 -2.001,-10.003 -0.668,-0.667 -0.668,-0.667 -1.334,-1.333 0,-0.669 0,-0.669 0,-1.334 -0.666,0 -1.333,0 -1.333,-0.667 0.667,-2.001 -1.333,-3.332 -1.998,-4.668 0.665,-0.667 0.665,-0.667 1.331,-1.334 -1.331,-2.667 -2.001,-5.999 -4.001,-8.668 0,-0.667 0,-1.333 0.67,-2 -1.333,-2.668 -2.004,-6.001 -3.335,-8.669 l 0.667,-0.67 c -1.336,-0.665 0,-1.997 -1.336,-2.665 l 0.669,-0.666 c -0.669,-0.667 -0.669,-1.335 -0.669,-2 l -2.222,-4.445 2.222,0.443 3.554,3.555 4.179,3.164 c 0.792,0 0.792,0 1.582,0 0.79,1.586 2.376,1.586 3.165,2.378 0.792,3.167 3.167,4.749 5.541,7.121 3.168,2.375 6.333,6.336 9.503,8.71 0,2.374 2.376,3.164 2.376,4.75"
     id="path4590" /></g></svg>