<?xml version="1.0" encoding="utf-8"?>
<!-- Generator: Adobe Illustrator 15.0.0, SVG Export Plug-In . SVG Version: 6.00 Build 0)  -->
<!DOCTYPE svg PUBLIC "-//W3C//DTD SVG 1.1//EN" "http://www.w3.org/Graphics/SVG/1.1/DTD/svg11.dtd">
<svg version="1.1" xmlns="http://www.w3.org/2000/svg" xmlns:xlink="http://www.w3.org/1999/xlink" x="0px" y="0px" width="580px"
	 height="580px" viewBox="0 0 580 580" enable-background="new 0 0 580 580" xml:space="preserve">
<g id="Layer_2_1_">
	<g id="Layer_2">
		<g id="g1327">
			<path id="path1329" fill="#111111" stroke="#EEEEEE" stroke-width="3.408" d="M66.275,1.768
				c-41.335,0-64.571,21.371-64.571,65.036v450.123c0,40.844,20.895,62.229,62.192,62.229h452.024
				c41.307,0,62.229-20.315,62.229-62.229V66.804c0-42.602-20.923-65.036-63.521-65.036C514.625,1.768,66.133,1.625,66.275,1.768z"
				/>
		</g>
	</g>
</g>
<g id="Layer_1">
	<path id="flowRoot3192" fill="#FFFFFF" d="M429.221,237.716c-0.001,11.354-5.48,17.031-16.439,17.03h-58.155
		c-10.972,0.001-16.458-5.677-16.457-17.03v-27.607c-0.001-10.972,5.485-16.457,16.457-16.457h58.155
		c10.959,0,16.438,5.485,16.439,16.457V237.716z M263.575,238.307c0,10.959-5.683,16.439-17.049,16.438H120.822
		c-10.972,0.001-16.457-5.479-16.457-16.438v-28.199c0-10.972,5.485-16.457,16.457-16.457h125.704
		c11.366,0,17.049,5.485,17.049,16.457V238.307z M521.456,370.483h-42.308V223.625c-0.001-22.719-7.931-41.91-23.789-57.572
		c-15.86-15.662-34.952-23.493-57.277-23.494H123.171c-22.72,0.001-41.911,7.832-57.573,23.494s-23.493,34.854-23.493,57.572
		v103.978c0,16.445,5.874,30.542,17.622,42.29s25.845,17.622,42.29,17.622h94.583c1.171-16.84,7.828-31.134,19.971-42.882
		s26.831-17.622,44.065-17.622c16.839,0,31.426,5.874,43.76,17.622c12.333,11.748,18.895,25.845,19.684,42.29h213.816
		C537.894,375.964,532.415,370.483,521.456,370.483L521.456,370.483z M260.635,411.591c-5.486,0-10.187-1.957-14.101-5.871
		s-5.871-8.614-5.871-14.1c0-5.868,1.957-10.664,5.871-14.387s8.614-5.584,14.101-5.584c5.473,0,10.17,1.861,14.09,5.584
		s5.88,8.519,5.881,14.387c-0.001,5.485-1.961,10.186-5.881,14.1S266.108,411.591,260.635,411.591L260.635,411.591z
		 M260.635,345.224c-12.932,0-23.9,4.503-32.905,13.508c-9.006,9.006-13.509,19.968-13.509,32.888
		c0,12.537,4.503,23.308,13.509,32.313c9.005,9.005,19.974,13.508,32.905,13.508c12.524,0,23.292-4.503,32.304-13.508
		c9.012-9.006,13.517-19.776,13.518-32.313c-0.001-12.92-4.506-23.882-13.518-32.888
		C283.927,349.727,273.16,345.224,260.635,345.224L260.635,345.224z"/>
</g>
</svg>
