<?xml version="1.0" encoding="utf-8"?>
<!-- Generator: Adobe Illustrator 15.0.0, SVG Export Plug-In . SVG Version: 6.00 Build 0)  -->
<!DOCTYPE svg PUBLIC "-//W3C//DTD SVG 1.1//EN" "http://www.w3.org/Graphics/SVG/1.1/DTD/svg11.dtd">
<svg version="1.1" xmlns="http://www.w3.org/2000/svg" xmlns:xlink="http://www.w3.org/1999/xlink" x="0px" y="0px" width="580px"
	 height="580px" viewBox="0 0 580 580" enable-background="new 0 0 580 580" xml:space="preserve">
<g id="Layer_2_1_">
	<g id="Layer_2">
		<g id="g1327">
			<path id="path1329" fill="#111111" stroke="#EEEEEE" stroke-width="3.408" d="M66.275,1.768
				c-41.335,0-64.571,21.371-64.571,65.036v450.123c0,40.844,20.895,62.229,62.192,62.229h452.024
				c41.307,0,62.229-20.315,62.229-62.229V66.804c0-42.602-20.923-65.036-63.521-65.036C514.625,1.768,66.133,1.625,66.275,1.768z"
				/>
		</g>
	</g>
</g>
<g id="Layer_1">
	<g>
		<path fill="#FFFFFF" d="M523.157,242.654l-9.203-10.537c-5.374-4.59-11.643-8.139-18.552-10.431
			c-10.962-3.636-22.683-2.785-32.999,2.394c-10.321,5.179-18.008,14.068-21.642,25.028c-2.818,8.496-2.159,17.58,1.854,25.581
			c1.755,3.495,4.057,6.6,6.803,9.223l0.046,0.038l-0.002,0.003c3.531,3.362,7.791,5.931,12.556,7.511
			c13.469,4.47,28.063-2.854,32.53-16.324c1.642-4.948,1.257-10.238-1.081-14.898c-1.244-2.477-2.97-4.603-5.047-6.312
			c-1.833-1.506-3.934-2.69-6.252-3.459c-7.604-2.525-15.854,1.612-18.381,9.223c-1.832,5.527,1.174,11.516,6.7,13.349
			c1.868,0.62,3.868,0.477,5.63-0.409c1.762-0.883,3.072-2.399,3.692-4.269c0.838-2.528-0.536-5.267-3.064-6.105l1.69-5.088
			c0,0,9.505-0.034,11.066,12.018c0.622,4.794-4.253,10.862-8.574,13.03c-4.322,2.168-9.229,2.523-13.816,1.002
			c-11.14-3.696-17.195-15.765-13.502-26.903c2.125-6.405,6.618-11.599,12.649-14.626c6.03-3.025,12.881-3.523,19.285-1.399
			c5.694,1.89,10.589,5.346,14.215,9.957c1.254,1.595,2.36,3.327,3.292,5.183c3.623,7.219,4.219,15.418,1.676,23.084
			c-3.068,9.244-9.551,16.739-18.255,21.107c-8.702,4.368-18.588,5.085-27.83,2.019c-6.153-2.041-11.663-5.336-16.263-9.634
			l-110.138-89.404l-13.942-11.317l-23.031-18.696l-7.9-6.413l0.72-0.887l-2.509,0.869l-238.95,82.713l106.16,241.273
			l290.981-157.049c17.225-8.914,34.715-17.449,46.73-23.266C548,282,523.157,242.654,523.157,242.654z"/>
		<path fill="#FFFFFF" d="M430.583,245.732c4.537-13.678,14.129-24.771,27.01-31.235c11.696-5.871,24.833-7.284,37.391-4.098
			L390.669,90.969c-34.649-3.864-60.283,2.316-76.2,18.378c-15.976,16.119-18.347,38.52-18.387,50.095l132.903,107.884
			C427.72,260.188,428.237,252.805,430.583,245.732z"/>
	</g>
</g>
</svg>
