<?xml version="1.0" encoding="utf-8"?>
<!-- Generator: Adobe Illustrator 15.0.0, SVG Export Plug-In . SVG Version: 6.00 Build 0)  -->
<!DOCTYPE svg PUBLIC "-//W3C//DTD SVG 1.1//EN" "http://www.w3.org/Graphics/SVG/1.1/DTD/svg11.dtd">
<svg version="1.1" xmlns="http://www.w3.org/2000/svg" xmlns:xlink="http://www.w3.org/1999/xlink" x="0px" y="0px" width="580px"
	 height="580px" viewBox="0 0 580 580" enable-background="new 0 0 580 580" xml:space="preserve">
<g id="Layer_1">
	<g id="Layer_2">
		<g id="g1327">
			<path id="path1329" fill="#111111" stroke="#EEEEEE" stroke-width="3.408" d="M66.275,1.768
				c-41.335,0-64.571,21.371-64.571,65.036v450.123c0,40.844,20.895,62.229,62.192,62.229h452.024
				c41.307,0,62.229-20.315,62.229-62.229V66.804c0-42.602-20.923-65.036-63.521-65.036C514.625,1.768,66.133,1.625,66.275,1.768z"
				/>
		</g>
	</g>
</g>
<g id="Layer_2_1_">
	<g>
		<rect x="112.5" y="174.5" opacity="0.5" fill="#FFFFFF" width="357" height="232"/>
		<path fill="#FFFFFF" d="M523.578,158.5v-6H491.5h-403h-1H54.102v6H87.5v16.25H54.102v6H87.5V197H54.102v6H87.5v16.25H54.102v6
			H87.5v16.25H54.102v6H87.5v16.25H54.102v6H87.5V286H54.102v6H87.5v16.25H54.102v6H87.5v16.25H54.102v6H87.5v16.25H54.102v6H87.5
			V375H54.102v6H87.5v16.25H54.102v6H87.5v16.25H54.102v6H87.5v2h404v-2h32.078v-6H491.5v-16.25h32.078v-6H491.5V381h32.078v-6
			H491.5v-16.25h32.078v-6H491.5V336.5h32.078v-6H491.5v-16.25h32.078v-6H491.5V292h32.078v-6H491.5v-16.25h32.078v-6H491.5V247.5
			h32.078v-6H491.5v-16.25h32.078v-6H491.5V203h32.078v-6H491.5v-16.25h32.078v-6H491.5V158.5H523.578z M469.5,406.5h-357v-232h357
			V406.5z"/>
	</g>
</g>
</svg>
