<?xml version="1.0" encoding="utf-8"?>
<!-- Generator: Adobe Illustrator 15.0.0, SVG Export Plug-In . SVG Version: 6.00 Build 0)  -->
<!DOCTYPE svg PUBLIC "-//W3C//DTD SVG 1.1//EN" "http://www.w3.org/Graphics/SVG/1.1/DTD/svg11.dtd">
<svg version="1.1" xmlns="http://www.w3.org/2000/svg" xmlns:xlink="http://www.w3.org/1999/xlink" x="0px" y="0px" width="580px"
	 height="580px" viewBox="0 0 580 580" enable-background="new 0 0 580 580" xml:space="preserve">
<g id="Layer_1">
	<g id="Layer_2">
		<g id="g1327">
			<path id="path1329" fill="#111111" stroke="#EEEEEE" stroke-width="3.408" d="M66.275,1.768
				c-41.335,0-64.571,21.371-64.571,65.036v450.123c0,40.844,20.895,62.229,62.192,62.229h452.024
				c41.307,0,62.229-20.315,62.229-62.229V66.804c0-42.602-20.923-65.036-63.521-65.036C514.625,1.768,66.133,1.625,66.275,1.768z"
				/>
		</g>
	</g>
</g>
<g id="Layer_2_1_">
	<g>
		<g>
			<path fill="#FFFFFF" d="M460.059,332.775h-31.19h-34.717h-305.8v0.002c0,107.607,76.229,194.841,170.259,194.841
				c63.018,0,118.035-39.183,147.475-97.422h53.974c17.446,0,31.588-21.809,31.588-48.71
				C491.647,354.584,477.506,332.775,460.059,332.775z M460.059,413.965h-46.641c8.044-20.054,13.198-41.938,14.858-64.957h31.782
				c6.112,0,15.355,12.954,15.355,32.479S466.172,413.965,460.059,413.965z"/>
			<path fill="#FFFFFF" d="M360.72,288.002c-26.104-26.108-34.14-56.973-23.885-91.735c7.91-26.806,24.158-46.093,24.313-46.275
				l0.133-0.158c0.813-0.997,19.985-24.82,29.747-58.585c3.856-13.341,5.676-26.332,5.513-38.866h-16.283
				c0.143,10.832-1.443,22.123-4.789,33.854c-8.555,29.986-25.87,52.038-26.823,53.238c-1.566,1.854-18.563,22.41-27.32,51.619
				c-8.481,28.298-10.537,70.086,27.839,108.462L360.72,288.002z"/>
			<path fill="#FFFFFF" d="M261.352,288.002c-26.105-26.108-34.14-56.973-23.883-91.735c7.909-26.806,24.159-46.093,24.314-46.275
				l0.132-0.158c0.811-0.997,19.983-24.82,29.747-58.585c3.857-13.341,5.677-26.332,5.512-38.866h-16.281
				c0.14,10.832-1.445,22.123-4.792,33.854c-8.554,29.983-25.864,52.034-26.822,53.238c-1.563,1.85-18.561,22.405-27.319,51.619
				c-8.483,28.298-10.538,70.086,27.84,108.462L261.352,288.002z"/>
			<path fill="#FFFFFF" d="M161.985,288.002c-26.105-26.108-34.141-56.973-23.884-91.735c7.909-26.806,24.159-46.093,24.314-46.275
				l0.132-0.158c0.813-0.997,19.986-24.82,29.747-58.585c3.855-13.341,5.676-26.332,5.512-38.866h-16.281
				c0.14,10.832-1.445,22.123-4.792,33.854c-8.554,29.986-25.868,52.038-26.824,53.238c-1.567,1.854-18.562,22.41-27.317,51.619
				c-8.481,28.298-10.538,70.086,27.839,108.462L161.985,288.002z"/>
		</g>
	</g>
</g>
</svg>
