<?xml version="1.0" encoding="UTF-8" standalone="no"?>
<!-- Generator: Adobe Illustrator 15.0.0, SVG Export Plug-In . SVG Version: 6.00 Build 0)  -->

<svg
   xmlns:dc="http://purl.org/dc/elements/1.1/"
   xmlns:cc="http://creativecommons.org/ns#"
   xmlns:rdf="http://www.w3.org/1999/02/22-rdf-syntax-ns#"
   xmlns:svg="http://www.w3.org/2000/svg"
   xmlns="http://www.w3.org/2000/svg"
   xmlns:sodipodi="http://sodipodi.sourceforge.net/DTD/sodipodi-0.dtd"
   xmlns:inkscape="http://www.inkscape.org/namespaces/inkscape"
   version="1.1"
   x="0px"
   y="0px"
   width="580px"
   height="580px"
   viewBox="0 0 580 580"
   enable-background="new 0 0 580 580"
   xml:space="preserve"
   id="svg2273"
   sodipodi:docname="collector.svg"
   inkscape:version="0.92.3 (2405546, 2018-03-11)"><metadata
   id="metadata2279"><rdf:RDF><cc:Work
       rdf:about=""><dc:format>image/svg+xml</dc:format><dc:type
         rdf:resource="http://purl.org/dc/dcmitype/StillImage" /></cc:Work></rdf:RDF></metadata><defs
   id="defs2277">
	
	
</defs><sodipodi:namedview
   pagecolor="#ffffff"
   bordercolor="#666666"
   borderopacity="1"
   objecttolerance="10"
   gridtolerance="10"
   guidetolerance="10"
   inkscape:pageopacity="0"
   inkscape:pageshadow="2"
   inkscape:window-width="1070"
   inkscape:window-height="781"
   id="namedview2275"
   showgrid="false"
   inkscape:zoom="0.66449955"
   inkscape:cx="290"
   inkscape:cy="290"
   inkscape:window-x="420"
   inkscape:window-y="129"
   inkscape:window-maximized="0"
   inkscape:current-layer="svg2273" />
<g
   id="Layer_1">
	<g
   id="Layer_1_1_">
		<g
   id="Layer_2">
			<g
   id="g1327">
				<path
   id="path1329"
   d="M66.275,1.768      c-41.335,0-64.571,21.371-64.571,65.036v450.123c0,40.844,20.895,62.229,62.192,62.229H515.92      c41.307,0,62.229-20.315,62.229-62.229V66.804c0-42.601-20.925-65.036-63.521-65.036C514.624,1.768,66.133,1.625,66.275,1.768z"
   stroke-width="3.408"
   stroke="#EEEEEE"
   fill="#111111" />
			</g>
		</g>
	</g>
</g>
<g
   id="g2262">
		
		
		
		
		
		
		
		
		
	</g><g
   id="g2270"
   transform="matrix(0.72239746,0,0,0.72239746,-120.23599,-89.359401)">
		<path
   style="fill:#ffffff"
   inkscape:connector-curvature="0"
   id="path2264"
   d="m 543.505,276.268 3.699,-10.917 -15.901,-5.389 c -3.733,4.925 -10.322,7.161 -16.496,5.068 -6.175,-2.092 -10.048,-7.873 -10.017,-14.053 l -12.207,-4.137 c -3.732,4.925 -10.322,7.161 -16.496,5.068 -6.175,-2.093 -10.047,-7.874 -10.017,-14.053 l -12.206,-4.137 c -3.733,4.925 -10.322,7.161 -16.497,5.068 -6.174,-2.092 -10.046,-7.873 -10.016,-14.053 l -12.206,-4.136 c -3.733,4.925 -10.322,7.161 -16.497,5.068 -6.174,-2.092 -10.047,-7.874 -10.016,-14.053 l -12.207,-4.137 c -3.732,4.925 -10.322,7.161 -16.497,5.068 -6.174,-2.092 -10.046,-7.873 -10.016,-14.053 l -15.902,-5.389 -3.699,10.917 c 3.968,3.844 5.618,9.759 3.728,15.339 -1.892,5.581 -6.798,9.273 -12.285,9.913 l -4.564,13.466 c 3.969,3.845 5.619,9.759 3.728,15.34 -1.892,5.581 -6.797,9.273 -12.285,9.914 l -4.564,13.466 c 3.969,3.844 5.619,9.758 3.728,15.339 -1.891,5.58 -6.797,9.273 -12.285,9.913 l -4.563,13.467 c 3.968,3.844 5.618,9.759 3.727,15.34 -1.891,5.58 -6.797,9.272 -12.285,9.912 l -4.564,13.467 c 3.968,3.845 5.619,9.759 3.728,15.34 -1.892,5.58 -6.797,9.272 -12.286,9.913 l -4.563,13.467 c 3.968,3.844 5.619,9.758 3.728,15.339 -1.892,5.581 -6.798,9.273 -12.286,9.913 l -4.563,13.467 c 3.968,3.844 5.618,9.759 3.727,15.34 -1.892,5.581 -6.797,9.272 -12.285,9.912 l -3.942,11.633 16.962,5.748 c 3.84,-3.456 9.38,-4.799 14.622,-3.022 5.242,1.776 8.824,6.21 9.771,11.289 l 14.326,4.855 c 3.84,-3.456 9.38,-4.8 14.622,-3.022 5.241,1.776 8.824,6.21 9.771,11.289 l 14.326,4.854 c 3.84,-3.456 9.38,-4.799 14.622,-3.022 5.241,1.776 8.824,6.211 9.771,11.289 l 14.326,4.855 c 3.84,-3.456 9.38,-4.799 14.621,-3.022 5.242,1.776 8.824,6.211 9.771,11.289 l 14.327,4.855 c 3.84,-3.456 9.379,-4.8 14.621,-3.022 5.241,1.776 8.824,6.21 9.771,11.289 l 16.962,5.748 3.942,-11.632 c -3.969,-3.845 -5.619,-9.759 -3.728,-15.339 1.892,-5.581 6.797,-9.274 12.285,-9.914 l 4.563,-13.467 c -3.968,-3.844 -5.618,-9.759 -3.727,-15.339 1.892,-5.581 6.797,-9.273 12.284,-9.913 l 4.564,-13.467 c -3.968,-3.845 -5.618,-9.759 -3.727,-15.34 1.891,-5.58 6.796,-9.272 12.284,-9.913 l 4.564,-13.467 c -3.969,-3.844 -5.619,-9.758 -3.728,-15.339 1.892,-5.58 6.797,-9.273 12.285,-9.913 l 4.563,-13.467 c -3.968,-3.844 -5.618,-9.759 -3.727,-15.34 1.892,-5.58 6.797,-9.272 12.285,-9.912 l 4.563,-13.467 c -3.968,-3.845 -5.618,-9.759 -3.727,-15.34 1.891,-5.58 6.797,-9.273 12.284,-9.913 l 4.564,-13.467 c -3.969,-3.844 -5.618,-9.758 -3.728,-15.339 1.896,-5.58 6.802,-9.273 12.29,-9.912 z M 440.037,520.685 263.864,460.98 346.248,217.883 522.422,277.588 Z" />
		
			<rect
   style="fill:#ffffff"
   id="rect2266"
   height="241.985"
   width="171.32401"
   transform="matrix(-0.9471,-0.321,0.321,-0.9471,646.9561,845.2139)"
   y="248.291"
   x="307.48001" />
		<path
   style="fill:#ffffff"
   inkscape:connector-curvature="0"
   id="path2268"
   d="M 435.438,511.369 273.178,456.38 350.847,227.198 513.106,282.187 Z" />
	</g>
<g
   transform="matrix(0.72239746,0,0,0.72239746,135.18726,-97.858719)"
   id="g2851">
		<path
   d="m 543.505,276.268 3.699,-10.917 -15.901,-5.389 c -3.733,4.925 -10.322,7.161 -16.496,5.068 -6.175,-2.092 -10.048,-7.873 -10.017,-14.053 l -12.207,-4.137 c -3.732,4.925 -10.322,7.161 -16.496,5.068 -6.175,-2.093 -10.047,-7.874 -10.017,-14.053 l -12.206,-4.137 c -3.733,4.925 -10.322,7.161 -16.497,5.068 -6.174,-2.092 -10.046,-7.873 -10.016,-14.053 l -12.206,-4.136 c -3.733,4.925 -10.322,7.161 -16.497,5.068 -6.174,-2.092 -10.047,-7.874 -10.016,-14.053 l -12.207,-4.137 c -3.732,4.925 -10.322,7.161 -16.497,5.068 -6.174,-2.092 -10.046,-7.873 -10.016,-14.053 l -15.902,-5.389 -3.699,10.917 c 3.968,3.844 5.618,9.759 3.728,15.339 -1.892,5.581 -6.798,9.273 -12.285,9.913 l -4.564,13.466 c 3.969,3.845 5.619,9.759 3.728,15.34 -1.892,5.581 -6.797,9.273 -12.285,9.914 l -4.564,13.466 c 3.969,3.844 5.619,9.758 3.728,15.339 -1.891,5.58 -6.797,9.273 -12.285,9.913 l -4.563,13.467 c 3.968,3.844 5.618,9.759 3.727,15.34 -1.891,5.58 -6.797,9.272 -12.285,9.912 l -4.564,13.467 c 3.968,3.845 5.619,9.759 3.728,15.34 -1.892,5.58 -6.797,9.272 -12.286,9.913 l -4.563,13.467 c 3.968,3.844 5.619,9.758 3.728,15.339 -1.892,5.581 -6.798,9.273 -12.286,9.913 l -4.563,13.467 c 3.968,3.844 5.618,9.759 3.727,15.34 -1.892,5.581 -6.797,9.272 -12.285,9.912 l -3.942,11.633 16.962,5.748 c 3.84,-3.456 9.38,-4.799 14.622,-3.022 5.242,1.776 8.824,6.21 9.771,11.289 l 14.326,4.855 c 3.84,-3.456 9.38,-4.8 14.622,-3.022 5.241,1.776 8.824,6.21 9.771,11.289 l 14.326,4.854 c 3.84,-3.456 9.38,-4.799 14.622,-3.022 5.241,1.776 8.824,6.211 9.771,11.289 l 14.326,4.855 c 3.84,-3.456 9.38,-4.799 14.621,-3.022 5.242,1.776 8.824,6.211 9.771,11.289 l 14.327,4.855 c 3.84,-3.456 9.379,-4.8 14.621,-3.022 5.241,1.776 8.824,6.21 9.771,11.289 l 16.962,5.748 3.942,-11.632 c -3.969,-3.845 -5.619,-9.759 -3.728,-15.339 1.892,-5.581 6.797,-9.274 12.285,-9.914 l 4.563,-13.467 c -3.968,-3.844 -5.618,-9.759 -3.727,-15.339 1.892,-5.581 6.797,-9.273 12.284,-9.913 l 4.564,-13.467 c -3.968,-3.845 -5.618,-9.759 -3.727,-15.34 1.891,-5.58 6.796,-9.272 12.284,-9.913 l 4.564,-13.467 c -3.969,-3.844 -5.619,-9.758 -3.728,-15.339 1.892,-5.58 6.797,-9.273 12.285,-9.913 l 4.563,-13.467 c -3.968,-3.844 -5.618,-9.759 -3.727,-15.34 1.892,-5.58 6.797,-9.272 12.285,-9.912 l 4.563,-13.467 c -3.968,-3.845 -5.618,-9.759 -3.727,-15.34 1.891,-5.58 6.797,-9.273 12.284,-9.913 l 4.564,-13.467 c -3.969,-3.844 -5.618,-9.758 -3.728,-15.339 1.896,-5.58 6.802,-9.273 12.29,-9.912 z M 440.037,520.685 263.864,460.98 346.248,217.883 522.422,277.588 Z"
   id="path2845"
   inkscape:connector-curvature="0"
   style="fill:#ffffff" />
		
			<rect
   x="307.48001"
   y="248.291"
   transform="matrix(-0.9471,-0.321,0.321,-0.9471,646.9561,845.2139)"
   width="171.32401"
   height="241.985"
   id="rect2847"
   style="fill:#ffffff" />
		<path
   d="M 435.438,511.369 273.178,456.38 350.847,227.198 513.106,282.187 Z"
   id="path2849"
   inkscape:connector-curvature="0"
   style="fill:#ffffff" />
	</g><g
   id="g2859"
   transform="matrix(0.72239746,0,0,0.72239746,7.7290007,144.8285)">
		<path
   style="fill:#ffffff"
   inkscape:connector-curvature="0"
   id="path2853"
   d="m 543.505,276.268 3.699,-10.917 -15.901,-5.389 c -3.733,4.925 -10.322,7.161 -16.496,5.068 -6.175,-2.092 -10.048,-7.873 -10.017,-14.053 l -12.207,-4.137 c -3.732,4.925 -10.322,7.161 -16.496,5.068 -6.175,-2.093 -10.047,-7.874 -10.017,-14.053 l -12.206,-4.137 c -3.733,4.925 -10.322,7.161 -16.497,5.068 -6.174,-2.092 -10.046,-7.873 -10.016,-14.053 l -12.206,-4.136 c -3.733,4.925 -10.322,7.161 -16.497,5.068 -6.174,-2.092 -10.047,-7.874 -10.016,-14.053 l -12.207,-4.137 c -3.732,4.925 -10.322,7.161 -16.497,5.068 -6.174,-2.092 -10.046,-7.873 -10.016,-14.053 l -15.902,-5.389 -3.699,10.917 c 3.968,3.844 5.618,9.759 3.728,15.339 -1.892,5.581 -6.798,9.273 -12.285,9.913 l -4.564,13.466 c 3.969,3.845 5.619,9.759 3.728,15.34 -1.892,5.581 -6.797,9.273 -12.285,9.914 l -4.564,13.466 c 3.969,3.844 5.619,9.758 3.728,15.339 -1.891,5.58 -6.797,9.273 -12.285,9.913 l -4.563,13.467 c 3.968,3.844 5.618,9.759 3.727,15.34 -1.891,5.58 -6.797,9.272 -12.285,9.912 l -4.564,13.467 c 3.968,3.845 5.619,9.759 3.728,15.34 -1.892,5.58 -6.797,9.272 -12.286,9.913 l -4.563,13.467 c 3.968,3.844 5.619,9.758 3.728,15.339 -1.892,5.581 -6.798,9.273 -12.286,9.913 l -4.563,13.467 c 3.968,3.844 5.618,9.759 3.727,15.34 -1.892,5.581 -6.797,9.272 -12.285,9.912 l -3.942,11.633 16.962,5.748 c 3.84,-3.456 9.38,-4.799 14.622,-3.022 5.242,1.776 8.824,6.21 9.771,11.289 l 14.326,4.855 c 3.84,-3.456 9.38,-4.8 14.622,-3.022 5.241,1.776 8.824,6.21 9.771,11.289 l 14.326,4.854 c 3.84,-3.456 9.38,-4.799 14.622,-3.022 5.241,1.776 8.824,6.211 9.771,11.289 l 14.326,4.855 c 3.84,-3.456 9.38,-4.799 14.621,-3.022 5.242,1.776 8.824,6.211 9.771,11.289 l 14.327,4.855 c 3.84,-3.456 9.379,-4.8 14.621,-3.022 5.241,1.776 8.824,6.21 9.771,11.289 l 16.962,5.748 3.942,-11.632 c -3.969,-3.845 -5.619,-9.759 -3.728,-15.339 1.892,-5.581 6.797,-9.274 12.285,-9.914 l 4.563,-13.467 c -3.968,-3.844 -5.618,-9.759 -3.727,-15.339 1.892,-5.581 6.797,-9.273 12.284,-9.913 l 4.564,-13.467 c -3.968,-3.845 -5.618,-9.759 -3.727,-15.34 1.891,-5.58 6.796,-9.272 12.284,-9.913 l 4.564,-13.467 c -3.969,-3.844 -5.619,-9.758 -3.728,-15.339 1.892,-5.58 6.797,-9.273 12.285,-9.913 l 4.563,-13.467 c -3.968,-3.844 -5.618,-9.759 -3.727,-15.34 1.892,-5.58 6.797,-9.272 12.285,-9.912 l 4.563,-13.467 c -3.968,-3.845 -5.618,-9.759 -3.727,-15.34 1.891,-5.58 6.797,-9.273 12.284,-9.913 l 4.564,-13.467 c -3.969,-3.844 -5.618,-9.758 -3.728,-15.339 1.896,-5.58 6.802,-9.273 12.29,-9.912 z M 440.037,520.685 263.864,460.98 346.248,217.883 522.422,277.588 Z" />
		
			<rect
   style="fill:#ffffff"
   id="rect2855"
   height="241.985"
   width="171.32401"
   transform="matrix(-0.9471,-0.321,0.321,-0.9471,646.9561,845.2139)"
   y="248.291"
   x="307.48001" />
		<path
   style="fill:#ffffff"
   inkscape:connector-curvature="0"
   id="path2857"
   d="M 435.438,511.369 273.178,456.38 350.847,227.198 513.106,282.187 Z" />
	</g></svg>