<?xml version="1.0" encoding="utf-8"?>
<!-- Generator: Adobe Illustrator 15.0.0, SVG Export Plug-In . SVG Version: 6.00 Build 0)  -->
<!DOCTYPE svg PUBLIC "-//W3C//DTD SVG 1.1//EN" "http://www.w3.org/Graphics/SVG/1.1/DTD/svg11.dtd">
<svg version="1.1" id="Layer_1" xmlns="http://www.w3.org/2000/svg" xmlns:xlink="http://www.w3.org/1999/xlink" x="0px" y="0px"
	 width="580px" height="580px" viewBox="0 0 580 580" enable-background="new 0 0 580 580" xml:space="preserve">
<g id="Layer_2">
	<g id="g1327">
		<path id="path1329" fill="#111111" stroke="#EEEEEE" stroke-width="3.408" d="M66.275,1.768
			c-41.335,0-64.571,21.371-64.571,65.036v450.123c0,40.844,20.896,62.229,62.192,62.229h452.024
			c41.307,0,62.229-20.314,62.229-62.229V66.804c0-42.602-20.923-65.036-63.521-65.036C514.625,1.768,66.133,1.625,66.275,1.768z"/>
	</g>
</g>
<g id="svg2" inkscape:output_extension="org.inkscape.output.svg.inkscape" sodipodi:version="0.32" sodipodi:docname="amenity_atm.svg" inkscape:version="0.46" sodipodi:docbase="s:\Data\FacilityIcons" xmlns:dc="http://purl.org/dc/elements/1.1/" xmlns:cc="http://creativecommons.org/ns#" xmlns:rdf="http://www.w3.org/1999/02/22-rdf-syntax-ns#" xmlns:svg="http://www.w3.org/2000/svg" xmlns:sodipodi="http://sodipodi.sourceforge.net/DTD/sodipodi-0.dtd" xmlns:inkscape="http://www.inkscape.org/namespaces/inkscape" display="none">
	
		<sodipodi:namedview  id="base" inkscape:window-width="1280" inkscape:window-x="0" inkscape:window-height="1005" inkscape:current-layer="svg2" inkscape:pageshadow="2" inkscape:window-y="0" inkscape:pageopacity="0.0" gridtolerance="10.0" objecttolerance="10.0" guidetolerance="10.0" inkscape:zoom="1.3034483" showgrid="false" borderopacity="1.0" bordercolor="#666666" pagecolor="#ffffff" inkscape:cy="302.63451" inkscape:cx="285.84646">
		</sodipodi:namedview>
	<defs  display="inline">
		
		
			<inkscape:perspective  id="perspective2441" inkscape:persp3d-origin="290 : 193.33333 : 1" inkscape:vp_z="580 : 290 : 1" inkscape:vp_y="0 : 1000 : 0" inkscape:vp_x="0 : 290 : 1" sodipodi:type="inkscape:persp3d">
			</inkscape:perspective>
	</defs>
	
		<path id="rect3241" sodipodi:nodetypes="ccccccccc" display="inline" opacity="0.75" fill="#FFFFFF" stroke="#FFFFFF" stroke-width="35.845" stroke-linecap="round" stroke-linejoin="round" enable-background="new    " d="
		M103.979,82.413v62.924h112.402c7.778-20.622,12.716-34.171,13.042-36.066l190.991-1.647l14.589,37.714h69.612V82.413H103.979z"/>
	
		<path id="path2443" sodipodi:nodetypes="ccccccc" display="inline" fill="none" stroke="#FFFFFF" stroke-width="20" stroke-linejoin="round" d="
		M227.906,158.094l-40.375,0.375c-1.603,9.296-122.313,358.625-122.313,358.625l403.813-3.406l-15.594-40.313l-333.094,2.845
		C120.344,476.219,195.438,243.832,227.906,158.094z"/>
	
		<path id="path3243" sodipodi:nodetypes="ccccc" display="inline" fill="none" stroke="#FFFFFF" stroke-width="20" stroke-linejoin="round" d="
		M242.694,117.588c-1.604,9.296-122.338,358.618-122.338,358.618l403.838-3.411L401.652,116.069L242.694,117.588z"/>
	
		<path id="path3163" sodipodi:nodetypes="ccccc" display="inline" opacity="0.1" fill="#FFFFFF" stroke="#FFFFFF" stroke-width="20" stroke-linecap="round" stroke-linejoin="round" enable-background="new    " d="
		M242.694,117.588c-1.604,9.296-122.338,358.618-122.338,358.618l403.838-3.411L401.652,116.069L242.694,117.588z"/>
	
		<path id="path3165" sodipodi:nodetypes="ccccccc" display="inline" opacity="0.1" fill="#FFFFFF" stroke="#FFFFFF" stroke-width="20" stroke-linecap="round" stroke-linejoin="round" enable-background="new    " d="
		M227.906,158.094l-40.375,0.375c-1.603,9.296-122.313,358.625-122.313,358.625l403.813-3.406l-15.594-40.313l-333.094,2.845
		C120.344,476.219,195.438,243.832,227.906,158.094z"/>
	<g id="g4372" transform="translate(-130.0802,122.26983)" display="inline">
	</g>
	<g id="g4998" transform="translate(-133.14896,123.86039)" display="inline">
		<g id="g5004">
			<path id="text2413" fill="#FFFFFF" d="M465.402,153.84c0.229,0.098,1.086,0.291,2.572,0.581
				c23.435,3.872,41.037,10.938,52.811,21.199c11.772,10.261,17.66,23.716,17.66,40.364c0,17.036-6.459,31.798-19.376,44.285
				c-12.917,12.487-30.807,19.263-53.669,20.327v26.426h-18.347v-26.135c-23.32-2.228-41.209-8.641-53.669-19.238
				c-12.46-10.6-19.49-25.434-21.09-44.504l30.864-4.646c2.399,14.326,7.259,25.36,14.574,33.104s17.09,12.148,29.321,13.213V175.62
				c-23.205-4.26-40.581-11.374-52.126-21.344s-17.318-22.795-17.318-38.478c0-15.584,5.717-28.966,17.147-40.146
				s28.863-17.641,52.297-19.384V43.782h18.347v12.487c19.434,1.646,34.75,6.873,45.953,15.681
				c11.202,8.81,18.232,21.15,21.091,37.025l-32.063,3.92c-1.829-9.873-5.659-17.689-11.488-23.449
				c-5.83-5.759-13.66-9.462-23.491-11.107L465.402,153.84L465.402,153.84z M447.055,150.646V78.048
				c-12.46,1.84-22.006,6.074-28.635,12.705c-6.63,6.632-9.945,14.303-9.945,23.015c0,9.971,3.429,17.835,10.288,23.595
				C425.622,143.12,435.052,147.549,447.055,150.646L447.055,150.646z M465.402,258.817c12.003-1.549,21.892-5.977,29.664-13.285
				s11.659-16.527,11.659-27.66c0-9.775-2.942-17.641-8.83-23.594s-16.719-11.012-32.493-15.174V258.817z"/>
		</g>
		
			<path id="path4370" sodipodi:nodetypes="cc" fill="none" stroke="#FFFFFF" stroke-width="30" stroke-linecap="round" stroke-linejoin="round" d="
			M455.376,43.427V308.47"/>
	</g>
</g>
<g id="Layer_3" display="none">
</g>
<g id="Layer_4">
	<g>
		<path fill="#FFFFFF" d="M217.76,107.11c0.326,0.084,2.318,0.567,4.894,0.567c4.372,0,10.048-1.38,12.911-7.75
			c-1.204-0.503-3.185-0.571-4.701-0.571c-1.447,0-3.091,0.072-4.832,0.147c-2.006,0.088-4.279,0.188-6.596,0.188
			c-8.152,0-18.446-1.098-25.75-9.662c-8.38-9.827-10.837-27.102-7.469-52.701C182.759,50.085,175.218,91.599,217.76,107.11z"/>
		<path fill="#FFFFFF" d="M202.148,465.61c28.8,0,51.359-10.518,51.359-23.945v-26.692c-11.311,10.589-31.256,17.918-51.359,17.918
			c-20.106,0-40.051-7.328-51.361-17.916v26.69C150.787,455.094,173.348,465.61,202.148,465.61z"/>
		<path fill="#FFFFFF" d="M145.117,454.676c-0.189,3.288-0.382,6.904-0.382,8.07v58.695c0,14.791,24.601,25.945,57.223,25.945
			s57.223-11.154,57.223-25.945v-66.403c-10.246,11.735-33.495,20.271-57.223,20.271C177.917,475.31,155.07,466.748,145.117,454.676
			z"/>
		<path fill="#FFFFFF" d="M353.119,224.608c-4.354,0-8.824,0.341-13.282,1.015c-25.591,3.867-45.699,18.055-45.104,31.736
			c2.78,10.633,18.81,18.031,39.185,18.032c0.001,0,0.002,0,0.003,0c4.354,0,8.821-0.343,13.28-1.016
			c25.59-3.865,45.7-18.054,45.107-31.737C389.522,232.006,373.491,224.608,353.119,224.608z"/>
		<path fill="#FFFFFF" d="M332.371,285.626c-15.59,0-28.244-3.688-35.976-10.006l38,251.578
			c1.771,11.731,18.791,20.247,40.466,20.248c0.001,0,0.003,0,0.004,0c4.401,0,8.918-0.345,13.424-1.024
			c27.023-4.086,48.006-19.789,45.815-34.288l-37.986-251.479c-7.44,11.219-24.778,20.292-47.409,23.71
			C343.16,285.201,337.664,285.626,332.371,285.626z"/>
		<path fill="#FFFFFF" d="M202.148,250.01c-22.483,0-40.647-6.758-48.353-17.587c-0.046,0.494-0.069,0.988-0.069,1.48v163.074
			c0,14.787,20.816,25.938,48.422,25.938c27.604,0,48.421-11.15,48.421-25.938V233.904c0-0.492-0.023-0.986-0.07-1.48
			C242.794,243.251,224.63,250.01,202.148,250.01z"/>
		<path fill="#FFFFFF" d="M241.902,229.444V112.067c0-20.04-10.041-67.592-41.016-87.563c-1.486,0.554-5.688,2.428-10.858,7.438
			c-4.344,27.54-2.346,46.426,5.938,56.14c6.508,7.63,15.959,8.608,23.468,8.608c2.25,0,4.393-0.094,6.464-0.186
			c1.773-0.077,3.451-0.15,4.963-0.15c2.979,0,5.966,0.24,7.63,1.983l0.646,0.678l-0.324,0.877
			c-2.563,6.953-8.303,10.783-16.162,10.783c-3.24,0-5.646-0.662-5.746-0.689l-0.109-0.035c-19.151-6.965-30.889-19.77-34.885-38.06
			c-2.552-11.68-1.241-23.087,0.273-30.504c-8.376,12.256-17.693,33.732-21.907,70.765v115.574
			c8.68,7.733,24.259,12.335,41.871,12.335C218.416,240.062,232.845,236.2,241.902,229.444z"/>
	</g>
</g>
</svg>
