<?xml version="1.0" encoding="utf-8"?>
<!-- Generator: Adobe Illustrator 15.0.0, SVG Export Plug-In . SVG Version: 6.00 Build 0)  -->
<!DOCTYPE svg PUBLIC "-//W3C//DTD SVG 1.1//EN" "http://www.w3.org/Graphics/SVG/1.1/DTD/svg11.dtd">
<svg version="1.1" xmlns="http://www.w3.org/2000/svg" xmlns:xlink="http://www.w3.org/1999/xlink" x="0px" y="0px" width="580px"
	 height="580px" viewBox="0 0 580 580" enable-background="new 0 0 580 580" xml:space="preserve">
<g id="Layer_1">
	<g id="Layer_2">
		<g id="g1327">
			<path id="path1329" fill="#111111" stroke="#EEEEEE" stroke-width="3.408" d="M66.275,1.768
				c-41.335,0-64.571,21.371-64.571,65.036v450.123c0,40.844,20.895,62.229,62.192,62.229h452.024
				c41.307,0,62.229-20.315,62.229-62.229V66.804c0-42.602-20.923-65.036-63.521-65.036C514.625,1.768,66.133,1.625,66.275,1.768z"
				/>
		</g>
	</g>
</g>
<g id="Layer_2_1_">
	<path fill="#FFFFFF" d="M504.114,90.76c-15.243,0-28.316,9.281-33.882,22.499h-23.911C442.992,97.474,436.987,85.76,428,85.76
		s-14.992,11.714-18.321,27.499h-9.357C396.992,97.474,390.987,85.76,382,85.76s-14.992,11.714-18.321,27.499h-9.357
		C350.992,97.474,344.987,85.76,336,85.76s-14.992,11.714-18.321,27.499h-9.357C304.992,97.474,298.987,85.76,290,85.76
		c-8.988,0-14.993,11.714-18.321,27.499h-9.357C258.992,97.474,252.988,85.76,244,85.76s-14.993,11.714-18.321,27.499h-9.357
		C212.992,97.474,206.988,85.76,198,85.76s-14.993,11.714-18.321,27.499h-9.357C166.992,97.474,160.988,85.76,152,85.76
		s-14.993,11.714-18.321,27.499h-23.911c-5.566-13.218-18.64-22.499-33.882-22.499c-20.296,0-36.748,16.453-36.748,36.748
		c0,20.295,16.452,36.748,36.748,36.748c15.242,0,28.315-9.281,33.882-22.499h20.8c-0.043,1.671-0.068,3.34-0.068,5.003
		c0,5.647,0.251,11.376,0.758,16.948h-12.658v320.984c60.918,37.902,221.082-52.903,344.982,0V163.708h-14.84
		c0.507-5.572,0.758-11.301,0.758-16.948c0-1.663-0.024-3.332-0.068-5.003h20.801c5.565,13.218,18.639,22.499,33.882,22.499
		c20.296,0,36.748-16.453,36.748-36.748C540.862,107.213,524.41,90.76,504.114,90.76z M420.985,109.068
		c3.066-10.684,6.365-13.247,7.012-13.308c0.652,0.062,3.951,2.624,7.018,13.308c0.385,1.339,0.744,2.741,1.082,4.191h-16.193
		C420.241,111.809,420.6,110.407,420.985,109.068z M406.568,141.757c-0.044,1.671-0.068,3.34-0.068,5.003
		c0,5.647,0.251,11.376,0.758,16.948h-4.516c0.507-5.572,0.758-11.301,0.758-16.948c0-1.663-0.024-3.332-0.068-5.003H406.568z
		 M371.292,163.708c-0.519-5.395-0.792-11.098-0.792-16.948c0-1.681,0.024-3.35,0.068-5.003h22.863
		c0.044,1.653,0.068,3.322,0.068,5.003c0,5.851-0.273,11.554-0.792,16.948H371.292z M374.985,109.068
		c3.066-10.684,6.365-13.247,7.012-13.308c0.652,0.062,3.951,2.624,7.018,13.308c0.385,1.339,0.744,2.741,1.082,4.191h-16.193
		C374.241,111.809,374.6,110.407,374.985,109.068z M360.568,141.757c-0.044,1.671-0.068,3.34-0.068,5.003
		c0,5.647,0.251,11.376,0.758,16.948h-4.516c0.507-5.572,0.758-11.301,0.758-16.948c0-1.663-0.024-3.332-0.068-5.003H360.568z
		 M325.292,163.708c-0.519-5.395-0.792-11.098-0.792-16.948c0-1.681,0.024-3.35,0.068-5.003h22.863
		c0.044,1.653,0.068,3.322,0.068,5.003c0,5.851-0.273,11.554-0.792,16.948H325.292z M328.985,109.068
		c3.066-10.684,6.365-13.247,7.012-13.308c0.652,0.062,3.951,2.624,7.018,13.308c0.385,1.339,0.744,2.741,1.082,4.191h-16.193
		C328.241,111.809,328.6,110.407,328.985,109.068z M314.568,141.757c-0.044,1.671-0.068,3.34-0.068,5.003
		c0,5.647,0.251,11.376,0.758,16.948h-4.516c0.507-5.572,0.758-11.301,0.758-16.948c0-1.663-0.024-3.332-0.068-5.003H314.568z
		 M279.292,163.708c-0.519-5.395-0.792-11.098-0.792-16.948c0-1.681,0.024-3.35,0.068-5.003h22.864
		c0.044,1.653,0.068,3.322,0.068,5.003c0,5.851-0.273,11.554-0.792,16.948H279.292z M282.985,109.068
		c3.066-10.684,6.365-13.247,7.012-13.308c0.652,0.062,3.951,2.624,7.017,13.308c0.385,1.339,0.744,2.741,1.082,4.191h-16.193
		C282.241,111.809,282.601,110.407,282.985,109.068z M268.568,141.757c-0.043,1.671-0.068,3.34-0.068,5.003
		c0,5.647,0.251,11.376,0.758,16.948h-4.516c0.507-5.572,0.758-11.301,0.758-16.948c0-1.663-0.024-3.332-0.068-5.003H268.568z
		 M233.292,163.708c-0.519-5.395-0.792-11.098-0.792-16.948c0-1.681,0.024-3.349,0.068-5.003h22.864
		c0.044,1.654,0.068,3.322,0.068,5.003c0,5.851-0.273,11.554-0.792,16.948H233.292z M236.985,109.071
		c3.066-10.685,6.365-13.249,7.013-13.311c0.652,0.062,3.952,2.626,7.018,13.311c0.384,1.338,0.744,2.739,1.081,4.188h-16.192
		C236.241,111.81,236.6,110.409,236.985,109.071z M222.568,141.757c-0.043,1.671-0.068,3.34-0.068,5.003
		c0,5.647,0.251,11.376,0.758,16.948h-4.516c0.507-5.572,0.758-11.301,0.758-16.948c0-1.663-0.024-3.332-0.068-5.003H222.568z
		 M187.292,163.708c-0.519-5.395-0.792-11.098-0.792-16.948c0-1.681,0.024-3.349,0.068-5.003h22.864
		c0.044,1.654,0.068,3.322,0.068,5.003c0,5.851-0.273,11.554-0.792,16.948H187.292z M190.985,109.071
		c3.066-10.685,6.365-13.249,7.013-13.311c0.652,0.062,3.952,2.626,7.018,13.311c0.384,1.338,0.744,2.739,1.081,4.188h-16.192
		C190.241,111.81,190.6,110.409,190.985,109.071z M176.568,141.757c-0.043,1.671-0.068,3.34-0.068,5.003
		c0,5.647,0.251,11.376,0.758,16.948h-4.516c0.507-5.572,0.758-11.301,0.758-16.948c0-1.663-0.024-3.332-0.068-5.003H176.568z
		 M144.985,109.071c3.066-10.685,6.365-13.249,7.013-13.311c0.652,0.062,3.952,2.626,7.018,13.311
		c0.384,1.338,0.744,2.739,1.081,4.188h-16.192C144.241,111.81,144.6,110.409,144.985,109.071z M140.5,146.76
		c0-1.681,0.024-3.349,0.068-5.003h22.864c0.044,1.654,0.068,3.322,0.068,5.003c0,5.851-0.273,11.554-0.792,16.948h-21.416
		C140.773,158.314,140.5,152.611,140.5,146.76z M439.5,146.76c0,5.851-0.273,11.554-0.792,16.948h-21.416
		c-0.519-5.395-0.792-11.098-0.792-16.948c0-1.681,0.024-3.35,0.068-5.003h22.863C439.475,143.41,439.5,145.079,439.5,146.76z"/>
</g>
</svg>
