<?xml version="1.0" encoding="utf-8"?>
<!-- Generator: Adobe Illustrator 15.0.0, SVG Export Plug-In . SVG Version: 6.00 Build 0)  -->
<!DOCTYPE svg PUBLIC "-//W3C//DTD SVG 1.1//EN" "http://www.w3.org/Graphics/SVG/1.1/DTD/svg11.dtd">
<svg version="1.1" xmlns="http://www.w3.org/2000/svg" xmlns:xlink="http://www.w3.org/1999/xlink" x="0px" y="0px" width="580px"
	 height="580px" viewBox="0 0 580 580" enable-background="new 0 0 580 580" xml:space="preserve">
<g id="Layer_2">
	<g id="g1327">
		<path id="path1329" fill="#111111" stroke="#EEEEEE" stroke-width="3.408" d="M66.275,1.768
			c-41.335,0-64.571,21.371-64.571,65.036v450.123c0,40.844,20.894,62.229,62.192,62.229H515.92
			c41.307,0,62.229-20.316,62.229-62.229V66.804c0-42.601-20.923-65.036-63.522-65.036C514.624,1.768,66.133,1.625,66.275,1.768z"/>
	</g>
</g>
<g id="svg2" inkscape:version="0.46" sodipodi:docname="waste_bin.svg" sodipodi:version="0.32" inkscape:output_extension="org.inkscape.output.svg.inkscape" xmlns:sodipodi="http://sodipodi.sourceforge.net/DTD/sodipodi-0.dtd" xmlns:inkscape="http://www.inkscape.org/namespaces/inkscape" xmlns:cc="http://creativecommons.org/ns#" xmlns:rdf="http://www.w3.org/1999/02/22-rdf-syntax-ns#" xmlns:svg="http://www.w3.org/2000/svg" xmlns:dc="http://purl.org/dc/elements/1.1/">
	<path fill="#FFFFFF" d="M491.774,34.501H88.226c3.835,47.795,44.425,89.019,103.101,111.134v60.131
		c0,10.078,8.17,18.248,18.248,18.248s18.248-8.169,18.248-18.248v-49.41c14.003,3.042,28.677,5.078,43.831,5.995v64.272
		c0,10.078,8.169,18.248,18.248,18.248c10.078,0,18.248-8.17,18.248-18.248v-64.261c15.225-0.911,29.965-2.952,44.029-6.007v49.411
		c0,10.078,8.169,18.248,18.247,18.248c10.079,0,18.248-8.169,18.248-18.248v-60.131C447.349,123.52,487.938,82.296,491.774,34.501z
		"/>
	<path fill="#FFFFFF" d="M345.533,509.454c0-81.298,0-142.089-9.522-158.201c-7.854-13.291-22.185-45.516-26.963-56.397h0.728
		c3.64,0,6.592-2.951,6.592-6.591s-2.952-6.592-6.592-6.592h-39.551c-3.64,0-6.592,2.952-6.592,6.592s2.952,6.591,6.592,6.591h0.728
		c-4.779,10.882-19.109,43.106-26.964,56.397c-9.522,16.112-9.522,76.903-9.522,158.201c0,0-5.126,38.086,30.03,39.551h51.006
		C350.659,547.54,345.533,509.454,345.533,509.454z"/>
</g>
</svg>
