<?xml version="1.0" encoding="utf-8"?>
<!-- Generator: Adobe Illustrator 15.0.0, SVG Export Plug-In . SVG Version: 6.00 Build 0)  -->
<!DOCTYPE svg PUBLIC "-//W3C//DTD SVG 1.1//EN" "http://www.w3.org/Graphics/SVG/1.1/DTD/svg11.dtd">
<svg version="1.1" id="Layer_1" xmlns="http://www.w3.org/2000/svg" xmlns:xlink="http://www.w3.org/1999/xlink" x="0px" y="0px"
	 width="580px" height="580px" viewBox="0 0 580 580" enable-background="new 0 0 580 580" xml:space="preserve">
<g id="Layer_2">
	<g id="g1327">
		<path id="path1329" fill="#111111" stroke="#EEEEEE" stroke-width="3.408" d="M66.275,1.768
			c-41.335,0-64.571,21.371-64.571,65.036v450.123c0,40.844,20.896,62.229,62.192,62.229h452.024
			c41.307,0,62.229-20.314,62.229-62.229V66.804c0-42.602-20.923-65.036-63.521-65.036C514.625,1.768,66.133,1.625,66.275,1.768z"/>
	</g>
</g>
<g id="svg2" sodipodi:version="0.32" inkscape:version="0.46" sodipodi:docname="amenity_atm.svg" sodipodi:docbase="s:\Data\FacilityIcons" xmlns:cc="http://creativecommons.org/ns#" xmlns:sodipodi="http://sodipodi.sourceforge.net/DTD/sodipodi-0.dtd" xmlns:svg="http://www.w3.org/2000/svg" xmlns:inkscape="http://www.inkscape.org/namespaces/inkscape" xmlns:rdf="http://www.w3.org/1999/02/22-rdf-syntax-ns#" xmlns:dc="http://purl.org/dc/elements/1.1/" inkscape:output_extension="org.inkscape.output.svg.inkscape" display="none">
	
		<sodipodi:namedview  id="base" inkscape:pageopacity="0.0" inkscape:window-y="0" inkscape:window-width="1280" inkscape:window-height="1005" inkscape:pageshadow="2" inkscape:current-layer="svg2" inkscape:window-x="0" showgrid="false" bordercolor="#666666" guidetolerance="10.0" inkscape:zoom="1.3034483" pagecolor="#ffffff" objecttolerance="10.0" borderopacity="1.0" inkscape:cx="285.84646" inkscape:cy="302.63451" gridtolerance="10.0">
		</sodipodi:namedview>
	<defs  display="inline">
		
		
			<inkscape:perspective  id="perspective2441" inkscape:persp3d-origin="290 : 193.33333 : 1" sodipodi:type="inkscape:persp3d" inkscape:vp_z="580 : 290 : 1" inkscape:vp_x="0 : 290 : 1" inkscape:vp_y="0 : 1000 : 0">
			</inkscape:perspective>
	</defs>
	
		<path id="rect3241" sodipodi:nodetypes="ccccccccc" display="inline" opacity="0.75" fill="#FFFFFF" stroke="#FFFFFF" stroke-width="35.845" stroke-linecap="round" stroke-linejoin="round" enable-background="new    " d="
		M103.979,82.413v62.924h112.402c7.778-20.622,12.716-34.171,13.042-36.066l190.991-1.647l14.589,37.714h69.612V82.413H103.979z"/>
	
		<path id="path2443" sodipodi:nodetypes="ccccccc" display="inline" fill="none" stroke="#FFFFFF" stroke-width="20" stroke-linejoin="round" d="
		M227.906,158.094l-40.375,0.375c-1.603,9.296-122.313,358.625-122.313,358.625l403.813-3.406l-15.594-40.313l-333.094,2.845
		C120.344,476.219,195.438,243.832,227.906,158.094z"/>
	
		<path id="path3243" sodipodi:nodetypes="ccccc" display="inline" fill="none" stroke="#FFFFFF" stroke-width="20" stroke-linejoin="round" d="
		M242.694,117.588c-1.604,9.296-122.338,358.618-122.338,358.618l403.838-3.411L401.652,116.069L242.694,117.588z"/>
	
		<path id="path3163" sodipodi:nodetypes="ccccc" display="inline" opacity="0.1" fill="#FFFFFF" stroke="#FFFFFF" stroke-width="20" stroke-linecap="round" stroke-linejoin="round" enable-background="new    " d="
		M242.694,117.588c-1.604,9.296-122.338,358.618-122.338,358.618l403.838-3.411L401.652,116.069L242.694,117.588z"/>
	
		<path id="path3165" sodipodi:nodetypes="ccccccc" display="inline" opacity="0.1" fill="#FFFFFF" stroke="#FFFFFF" stroke-width="20" stroke-linecap="round" stroke-linejoin="round" enable-background="new    " d="
		M227.906,158.094l-40.375,0.375c-1.603,9.296-122.313,358.625-122.313,358.625l403.813-3.406l-15.594-40.313l-333.094,2.845
		C120.344,476.219,195.438,243.832,227.906,158.094z"/>
	<g id="g4372" transform="translate(-130.0802,122.26983)" display="inline">
	</g>
	<g id="g4998" transform="translate(-133.14896,123.86039)" display="inline">
		<g id="g5004">
			<path id="text2413" fill="#FFFFFF" d="M465.402,153.84c0.229,0.098,1.086,0.291,2.572,0.581
				c23.435,3.872,41.037,10.938,52.811,21.199c11.772,10.261,17.66,23.716,17.66,40.364c0,17.036-6.459,31.798-19.376,44.285
				c-12.917,12.487-30.807,19.263-53.669,20.327v26.426h-18.347v-26.135c-23.32-2.228-41.209-8.641-53.669-19.238
				c-12.46-10.6-19.49-25.434-21.09-44.504l30.864-4.646c2.399,14.326,7.259,25.36,14.574,33.104s17.09,12.148,29.321,13.213V175.62
				c-23.205-4.26-40.581-11.374-52.126-21.344s-17.318-22.795-17.318-38.478c0-15.584,5.717-28.966,17.147-40.146
				s28.863-17.641,52.297-19.384V43.782h18.347v12.487c19.434,1.646,34.75,6.873,45.953,15.681
				c11.202,8.81,18.232,21.15,21.091,37.025l-32.063,3.92c-1.829-9.873-5.659-17.689-11.488-23.449
				c-5.83-5.759-13.66-9.462-23.491-11.107L465.402,153.84L465.402,153.84z M447.055,150.646V78.048
				c-12.46,1.84-22.006,6.074-28.635,12.705c-6.63,6.632-9.945,14.303-9.945,23.015c0,9.971,3.429,17.835,10.288,23.595
				C425.622,143.12,435.052,147.549,447.055,150.646L447.055,150.646z M465.402,258.817c12.003-1.549,21.892-5.977,29.664-13.285
				s11.659-16.527,11.659-27.66c0-9.775-2.942-17.641-8.83-23.594s-16.719-11.012-32.493-15.174V258.817z"/>
		</g>
		
			<path id="path4370" sodipodi:nodetypes="cc" fill="none" stroke="#FFFFFF" stroke-width="30" stroke-linecap="round" stroke-linejoin="round" d="
			M455.376,43.427V308.47"/>
	</g>
</g>
<g id="Layer_4">
	<path fill="#FFFFFF" d="M526.791,147.341c0-58.811-47.676-106.485-106.484-106.485c-31.726,0-60.205,13.879-79.714,35.89
		c-14.25-10.23-31.711-16.273-50.593-16.273c-18.881,0-36.342,6.043-50.593,16.273c-19.508-22.011-47.987-35.89-79.712-35.89
		c-58.811,0-106.486,47.675-106.486,106.485c0,51.784,36.968,94.929,85.949,104.5L183,538.5h20.129h173.742H391l48.869-286.473
		C489.335,242.841,526.791,199.469,526.791,147.341z"/>
	<g>
		
			<line fill="none" stroke="#000000" stroke-width="13" stroke-linecap="round" stroke-miterlimit="10" x1="220" y1="282.429" x2="220" y2="502.5"/>
		
			<line fill="none" stroke="#000000" stroke-width="13" stroke-linecap="round" stroke-miterlimit="10" x1="290" y1="282.429" x2="290" y2="502.5"/>
		
			<line fill="none" stroke="#000000" stroke-width="13" stroke-linecap="round" stroke-miterlimit="10" x1="360" y1="282.429" x2="360" y2="502.5"/>
	</g>
</g>
</svg>
