<?xml version="1.0" encoding="UTF-8" standalone="no"?>
<!-- Generator: Adobe Illustrator 15.0.0, SVG Export Plug-In . SVG Version: 6.00 Build 0)  -->

<svg
   xmlns:dc="http://purl.org/dc/elements/1.1/"
   xmlns:cc="http://creativecommons.org/ns#"
   xmlns:rdf="http://www.w3.org/1999/02/22-rdf-syntax-ns#"
   xmlns:svg="http://www.w3.org/2000/svg"
   xmlns="http://www.w3.org/2000/svg"
   xmlns:sodipodi="http://sodipodi.sourceforge.net/DTD/sodipodi-0.dtd"
   xmlns:inkscape="http://www.inkscape.org/namespaces/inkscape"
   version="1.1"
   x="0px"
   y="0px"
   width="580px"
   height="580px"
   viewBox="0 0 580 580"
   enable-background="new 0 0 580 580"
   xml:space="preserve"
   id="svg2"
   inkscape:version="0.48.4 r9939"
   sodipodi:docname="tobacco_29141.svg"><metadata
   id="metadata25"><rdf:RDF><cc:Work
       rdf:about=""><dc:format>image/svg+xml</dc:format><dc:type
         rdf:resource="http://purl.org/dc/dcmitype/StillImage" /><dc:title></dc:title></cc:Work></rdf:RDF></metadata><defs
   id="defs23">
	

		
		
		
		
		
	</defs><sodipodi:namedview
   pagecolor="#ffffff"
   bordercolor="#666666"
   borderopacity="1"
   objecttolerance="10"
   gridtolerance="10"
   guidetolerance="10"
   inkscape:pageopacity="0"
   inkscape:pageshadow="2"
   inkscape:window-width="1415"
   inkscape:window-height="1049"
   id="namedview21"
   showgrid="false"
   inkscape:zoom="1.3289991"
   inkscape:cx="200.08271"
   inkscape:cy="290"
   inkscape:window-x="0"
   inkscape:window-y="0"
   inkscape:window-maximized="0"
   inkscape:current-layer="svg2" />
<g
   id="Layer_1"
   style="stroke:#000000;stroke-opacity:1">
	<g
   id="Layer_2"
   style="stroke:#000000;stroke-opacity:1">
		<g
   id="g1327"
   style="stroke:#000000;stroke-opacity:1">
			<path
   id="path1329"
   d="M66.275,1.768     c-41.335,0-64.571,21.371-64.571,65.036v450.123c0,40.844,20.895,62.229,62.192,62.229h452.024     c41.307,0,62.229-20.315,62.229-62.229V66.804c0-42.602-20.923-65.036-63.521-65.036C514.625,1.768,66.133,1.625,66.275,1.768z"
   stroke-width="3.408"
   stroke="#EEEEEE"
   fill="#111111"
   style="stroke:#000000;stroke-opacity:1" />
		</g>
	</g>
</g>
<rect
   x="74.732002"
   y="395.004"
   width="430.33102"
   height="63.905998"
   id="rect11"
   style="fill:#ffffff" /><path
   d="m 426.217,293.148 h -65.451 c -17.52,0 -31.656,-14.255 -31.656,-31.657 0,-6.593 2.08,-12.65 5.465,-17.759 1.129,-1.781 1.842,-3.741 1.842,-5.939 0,-5.82 -4.752,-10.571 -10.572,-10.571 -0.832,0 -1.723,0.119 -2.555,0.356 -2.85,0.594 -5.762,0.95 -8.908,0.95 -24.588,0 -44.664,-20.074 -44.664,-44.663 0,-24.47 19.6,-44.307 43.951,-44.663 v -18.114 c -34.329,0.475 -61.947,28.33 -61.947,62.777 0,34.21 27.38,62.065 61.472,62.659 -1.486,4.751 -2.316,9.74 -2.316,14.967 0,27.498 22.391,49.77 49.889,49.77 v 0.061 h 65.451 c 14.729,0 26.666,11.938 26.666,26.666 v 35.695 h 18.234 l -0.119,-35.754 c -0.001,-24.707 -19.956,-44.781 -44.782,-44.781 z"
   id="path17"
   inkscape:connector-curvature="0"
   style="fill:#ffffff" /><path
   d="m 410.595,239.575 -12.77,0.119 c 4.039,-8.79 6.355,-18.649 6.355,-28.983 0,-38.546 -31.359,-69.846 -69.846,-69.846 h -4.039 v 18.233 h 4.039 c 28.508,0 51.613,23.104 51.613,51.612 0,11.818 -3.98,22.628 -10.691,31.3 -0.891,1.662 -1.604,3.385 -1.604,5.464 0,5.701 4.633,10.334 10.215,10.334 h 26.727 c 42.229,0 76.439,34.21 76.439,76.439 v 39.436 h 18.232 v -39.436 c 0.002,-52.206 -42.343,-94.672 -94.67,-94.672 z"
   id="path19"
   inkscape:connector-curvature="0"
   style="fill:#ffffff" />
<path
   sodipodi:type="arc"
   style="color:#000000;fill:none;stroke:#000000;stroke-width:45.90000153;stroke-linecap:round;stroke-linejoin:round;stroke-miterlimit:4;stroke-opacity:1;stroke-dasharray:none;stroke-dashoffset:1.76000004;marker:none;visibility:visible;display:inline;overflow:visible;enable-background:accumulate"
   id="path3013"
   sodipodi:cx="164.78566"
   sodipodi:cy="428.75836"
   sodipodi:rx="6.7720137"
   sodipodi:ry="6.7720137"
   d="m 171.55767,428.75836 a 6.7720137,6.7720137 0 1 1 -13.54402,0 6.7720137,6.7720137 0 1 1 13.54402,0 z"
   transform="matrix(0.83544525,0,0,0.83544525,27.492487,69.425562)" /></svg>