<?xml version="1.0" encoding="utf-8"?>
<!-- Generator: Adobe Illustrator 15.0.0, SVG Export Plug-In . SVG Version: 6.00 Build 0)  -->
<!DOCTYPE svg PUBLIC "-//W3C//DTD SVG 1.1//EN" "http://www.w3.org/Graphics/SVG/1.1/DTD/svg11.dtd">
<svg version="1.1" xmlns="http://www.w3.org/2000/svg" xmlns:xlink="http://www.w3.org/1999/xlink" x="0px" y="0px" width="580px"
	 height="580px" viewBox="0 0 580 580" enable-background="new 0 0 580 580" xml:space="preserve">
<g id="Layer_1">
	<g id="Layer_2">
		<g id="g1327">
			<path id="path1329" fill="#111111" stroke="#EEEEEE" stroke-width="3.408" d="M66.275,1.768
				c-41.335,0-64.571,21.371-64.571,65.036v450.123c0,40.844,20.895,62.229,62.192,62.229h452.024
				c41.307,0,62.229-20.315,62.229-62.229V66.804c0-42.602-20.923-65.036-63.521-65.036C514.625,1.768,66.133,1.625,66.275,1.768z"
				/>
		</g>
	</g>
</g>
<g id="Layer_2_1_">
	<path fill="#FFFFFF" d="M457.823,176.304H316.196c-0.574-1.646-1.295-3.22-2.155-4.708l68.022-68.022
		c2.248,1.049,4.744,1.652,7.388,1.652c9.674,0,17.518-7.843,17.518-17.517c0-9.674-7.844-17.517-17.518-17.517
		c-9.675,0-17.516,7.843-17.516,17.517c0,3.018,0.763,5.855,2.105,8.333l-68.655,66.304c-4.404-2.937-9.693-4.655-15.384-4.655
		c-5.234,0-10.114,1.475-14.294,3.993l-67.151-65.262c1.478-2.568,2.335-5.538,2.335-8.713c0-9.674-7.842-17.517-17.517-17.517
		c-9.674,0-17.517,7.843-17.517,17.517c0,9.674,7.843,17.517,17.517,17.517c4.609,0,8.789-1.793,11.917-4.704l60.98,70.564
		c-0.995,1.638-1.824,3.382-2.466,5.218H122.177c-30.896,0-55.941,25.045-55.941,55.941v221.623
		c0,30.895,25.045,55.939,55.941,55.939h335.646c30.896,0,55.94-25.045,55.94-55.939V232.245
		C513.763,201.349,488.719,176.304,457.823,176.304z M399.621,409.792c0,38.387-31.117,69.503-69.503,69.503H173.313
		c-38.385,0-69.502-31.116-69.502-69.503V286.61c0-38.385,31.117-69.502,69.502-69.502h156.805
		c38.386,0,69.503,31.117,69.503,69.502V409.792z M462.343,474.212c-7.801,0-14.126-6.325-14.126-14.128
		c0-7.801,6.325-14.127,14.126-14.127c7.803,0,14.128,6.326,14.128,14.127C476.47,467.886,470.145,474.212,462.343,474.212z
		 M462.343,432.96c-7.801,0-14.126-6.325-14.126-14.126s6.325-14.126,14.126-14.126c7.803,0,14.128,6.325,14.128,14.126
		S470.145,432.96,462.343,432.96z"/>
</g>
</svg>
