<?xml version="1.0" encoding="UTF-8" standalone="no"?>
<!-- Created with Inkscape (http://www.inkscape.org/) -->

<svg
   xmlns:dc="http://purl.org/dc/elements/1.1/"
   xmlns:cc="http://creativecommons.org/ns#"
   xmlns:rdf="http://www.w3.org/1999/02/22-rdf-syntax-ns#"
   xmlns:svg="http://www.w3.org/2000/svg"
   xmlns="http://www.w3.org/2000/svg"
   xmlns:sodipodi="http://sodipodi.sourceforge.net/DTD/sodipodi-0.dtd"
   xmlns:inkscape="http://www.inkscape.org/namespaces/inkscape"
   version="1.0"
   width="580"
   height="580"
   id="svg2"
   sodipodi:version="0.32"
   inkscape:version="0.48.4 r9939"
   sodipodi:docname="electrical.svg"
   inkscape:output_extension="org.inkscape.output.svg.inkscape">
  <metadata
     id="metadata2975">
    <rdf:RDF>
      <cc:Work
         rdf:about="">
        <dc:format>image/svg+xml</dc:format>
        <dc:type
           rdf:resource="http://purl.org/dc/dcmitype/StillImage" />
        <cc:license
           rdf:resource="http://web.resource.org/cc/PublicDomain" />
        <dc:language>en</dc:language>
        <dc:title></dc:title>
      </cc:Work>
    </rdf:RDF>
  </metadata>
  <sodipodi:namedview
     inkscape:window-height="978"
     inkscape:window-width="1400"
     inkscape:pageshadow="2"
     inkscape:pageopacity="0.0"
     guidetolerance="10.0"
     gridtolerance="10.0"
     objecttolerance="10.0"
     borderopacity="1.0"
     bordercolor="#666666"
     pagecolor="#ffffff"
     id="base"
     inkscape:zoom="0.85"
     inkscape:cx="483.74415"
     inkscape:cy="215.29401"
     inkscape:window-x="644"
     inkscape:window-y="38"
     inkscape:current-layer="svg2"
     showgrid="false"
     inkscape:window-maximized="0" />
  <defs
     id="defs4">
    <inkscape:perspective
       sodipodi:type="inkscape:persp3d"
       inkscape:vp_x="0 : 290 : 1"
       inkscape:vp_y="6.1230318e-14 : 1000 : 0"
       inkscape:vp_z="580 : 290 : 1"
       inkscape:persp3d-origin="290 : 193.33333 : 1"
       id="perspective2441" />
    <inkscape:perspective
       id="perspective3452"
       inkscape:persp3d-origin="30 : 20 : 1"
       inkscape:vp_z="60 : 30 : 1"
       inkscape:vp_y="0 : 1000 : 0"
       inkscape:vp_x="0 : 30 : 1"
       sodipodi:type="inkscape:persp3d" />
    <symbol
       viewBox="244.5 110 489 219.9"
       id="symbol-university">
      <path
         id="path4460"
         d="M79,43l57,119c0,0,21-96,104-96s124,106,124,106l43-133l82-17L0,17L79,43z" />
      <path
         id="path4462"
         d="M94,176l-21,39"
         stroke-width="20"
         stroke="#000000"
         fill="none" />
      <path
         id="path4464"
         d="M300,19c0,10.5-22.6,19-50.5,19S199,29.5,199,19s22.6-19,50.5-19S300,8.5,300,19z" />
      <path
         id="path4466"
         d="M112,216l-16-38L64,88c0,0-9-8-4-35s16-24,16-24"
         stroke-width="20"
         stroke="#000000"
         ill="none" />
    </symbol>
    <inkscape:perspective
       id="perspective4471"
       inkscape:persp3d-origin="372.04724 : 350.78739 : 1"
       inkscape:vp_z="744.09448 : 526.18109 : 1"
       inkscape:vp_y="0 : 1000 : 0"
       inkscape:vp_x="0 : 526.18109 : 1"
       sodipodi:type="inkscape:persp3d" />
    <inkscape:perspective
       id="perspective4668"
       inkscape:persp3d-origin="6 : 4 : 1"
       inkscape:vp_z="12 : 6 : 1"
       inkscape:vp_y="0 : 1000 : 0"
       inkscape:vp_x="0 : 6 : 1"
       sodipodi:type="inkscape:persp3d" />
  </defs>
  <g
     id="layer3"
     inkscape:label="Layout"
     style="display:none;stroke:#757575;stroke-opacity:1"
     transform="matrix(48.14969,0,0,48.14969,-536.27327,-33.306752)">
    <rect
       style="fill:none;stroke:#757575;stroke-width:0.10000000000000001;stroke-miterlimit:4;stroke-dasharray:none;stroke-opacity:1;display:inline"
       id="rect4134"
       width="10"
       height="10"
       x="1"
       y="1" />
    <rect
       style="fill:none;stroke:#757575;stroke-width:0.10000000000000001;stroke-miterlimit:4;stroke-dasharray:none;stroke-opacity:1;display:inline"
       id="rect4136"
       width="8"
       height="8"
       x="2"
       y="2" />
  </g>
  <g
     id="g3338"
     transform="matrix(1.3973279,-0.2437849,0.2437849,1.3973279,-185.07402,-56.183307)" />
  <g
     id="g1327">
    <path
       inkscape:connector-curvature="0"
       d="M 66.275,1.768 C 24.94,1.768 1.704,23.139 1.704,66.804 l 0,450.123 c 0,40.844 20.895,62.229 62.192,62.229 l 452.024,0 c 41.307,0 62.229,-20.315 62.229,-62.229 l 0,-450.123 c 0,-42.601 -20.922,-65.036 -63.521,-65.036 -0.004,0 -448.495,-0.143 -448.353,0 z"
       style="fill:#111111;stroke:#eeeeee;stroke-width:3.40799999"
       id="path1329" />
  </g>
  <g
     id="g3032"
     transform="matrix(0.60090051,0,0,0.60090051,19.6282,24.952248)">
    <path
       id="rect7039"
       d="m 82.4375,65.40625 0,454.96875 411.78125,0 0,-454.96875 -411.78125,0 z M 286,198.09375 c 55.22173,0 100.03125,44.84078 100.03125,100.0625 C 386.03124,353.37798 341.22172,398.1875 286,398.1875 c -55.22172,0 -100.0625,-44.80953 -100.0625,-100.03125 0,-55.22172 44.84078,-100.0625 100.0625,-100.0625 z"
       style="fill:none;stroke:#ffffff;stroke-width:20.95545197;stroke-linecap:round;stroke-linejoin:round;stroke-miterlimit:4;stroke-opacity:1;stroke-dasharray:none;stroke-dashoffset:0"
       inkscape:connector-curvature="0" />
    <g
       transform="matrix(1.0477726,0,0,1.0477726,-9.5831747,-13.991926)"
       id="g7055">
      <path
         sodipodi:type="arc"
         style="fill:none;stroke:#ffffff;stroke-width:20;stroke-linecap:round;stroke-linejoin:round;stroke-miterlimit:4;stroke-opacity:1;stroke-dasharray:none;stroke-dashoffset:0"
         id="path7043"
         sodipodi:cx="277.75455"
         sodipodi:cy="276.20596"
         sodipodi:rx="95.478119"
         sodipodi:ry="95.478119"
         d="m 373.23267,276.20596 c 0,52.73111 -42.74701,95.47812 -95.47812,95.47812 -52.73111,0 -95.47812,-42.74701 -95.47812,-95.47812 0,-52.73111 42.74701,-95.47812 95.47812,-95.47812 52.73111,0 95.47812,42.74701 95.47812,95.47812 z"
         transform="translate(4.3399146,21.699573)" />
      <path
         style="fill:none;stroke:#ffffff;stroke-width:18.66513062;stroke-linecap:round;stroke-linejoin:miter;stroke-miterlimit:4;stroke-opacity:1;stroke-dasharray:none"
         d="m 190.78628,250.19634 0,99.75833"
         id="path7045"
         sodipodi:nodetypes="cc"
         inkscape:connector-curvature="0" />
      <path
         style="fill:none;stroke:#ffffff;stroke-width:39.80064011;stroke-linecap:round;stroke-linejoin:round;stroke-miterlimit:4;stroke-opacity:1;stroke-dasharray:none"
         d="m 370.09478,300.0755 -19.89419,0"
         id="path7047"
         inkscape:connector-curvature="0" />
    </g>
    <path
       transform="matrix(0.853028,0,0,0.853028,92.865028,12.025478)"
       d="m 351.53308,124.30897 c 0,5.99217 -4.85762,10.84978 -10.84979,10.84978 -5.99217,0 -10.84979,-4.85761 -10.84979,-10.84978 0,-5.99217 4.85762,-10.84979 10.84979,-10.84979 5.99217,0 10.84979,4.85762 10.84979,10.84979 z"
       sodipodi:ry="10.849787"
       sodipodi:rx="10.849787"
       sodipodi:cy="124.30897"
       sodipodi:cx="340.68329"
       id="path7049"
       style="fill:none;stroke:#ffffff;stroke-width:25;stroke-linecap:round;stroke-linejoin:round;stroke-miterlimit:4;stroke-opacity:1;stroke-dasharray:none;stroke-dashoffset:0"
       sodipodi:type="arc" />
    <path
       sodipodi:type="arc"
       style="fill:none;stroke:#ffffff;stroke-width:25;stroke-linecap:round;stroke-linejoin:round;stroke-miterlimit:4;stroke-opacity:1;stroke-dasharray:none;stroke-dashoffset:0"
       id="path7051"
       sodipodi:cx="340.68329"
       sodipodi:cy="124.30897"
       sodipodi:rx="10.849787"
       sodipodi:ry="10.849787"
       d="m 351.53308,124.30897 c 0,5.99217 -4.85762,10.84978 -10.84979,10.84978 -5.99217,0 -10.84979,-4.85761 -10.84979,-10.84978 0,-5.99217 4.85762,-10.84979 10.84979,-10.84979 5.99217,0 10.84979,4.85762 10.84979,10.84979 z"
       transform="matrix(0.853028,0,0,0.853028,150.14226,12.025478)" />
    <path
       sodipodi:type="arc"
       style="fill:none;stroke:#ffffff;stroke-width:25;stroke-linecap:round;stroke-linejoin:round;stroke-miterlimit:4;stroke-opacity:1;stroke-dasharray:none;stroke-dashoffset:0"
       id="path7053"
       sodipodi:cx="340.68329"
       sodipodi:cy="124.30897"
       sodipodi:rx="10.849787"
       sodipodi:ry="10.849787"
       d="m 351.53308,124.30897 c 0,5.99217 -4.85762,10.84978 -10.84979,10.84978 -5.99217,0 -10.84979,-4.85761 -10.84979,-10.84978 0,-5.99217 4.85762,-10.84979 10.84979,-10.84979 5.99217,0 10.84979,4.85762 10.84979,10.84979 z"
       transform="matrix(0.853028,0,0,0.853028,35.587804,12.025478)" />
    <path
       style="opacity:0.1;fill:#ffffff;fill-opacity:1;stroke:#ffffff;stroke-width:20.95545197;stroke-linecap:round;stroke-linejoin:round;stroke-miterlimit:4;stroke-opacity:1;stroke-dasharray:none;stroke-dashoffset:0"
       d="m 82.4375,65.40625 0,454.96875 411.78125,0 0,-454.96875 -411.78125,0 z M 286,198.09375 c 55.22173,0 100.03125,44.84078 100.03125,100.0625 C 386.03124,353.37798 341.22172,398.1875 286,398.1875 c -55.22172,0 -100.0625,-44.80953 -100.0625,-100.03125 0,-55.22172 44.84078,-100.0625 100.0625,-100.0625 z"
       id="path7099"
       inkscape:connector-curvature="0" />
    <path
       sodipodi:type="arc"
       style="opacity:0.2;fill:#ffffff;fill-opacity:1;stroke:#ffffff;stroke-width:20;stroke-linecap:round;stroke-linejoin:round;stroke-miterlimit:4;stroke-opacity:1;stroke-dasharray:none;stroke-dashoffset:0"
       id="path7103"
       sodipodi:cx="277.75455"
       sodipodi:cy="276.20596"
       sodipodi:rx="95.478119"
       sodipodi:ry="95.478119"
       d="m 373.23267,276.20596 c 0,52.73111 -42.74701,95.47812 -95.47812,95.47812 -52.73111,0 -95.47812,-42.74701 -95.47812,-95.47812 0,-52.73111 42.74701,-95.47812 95.47812,-95.47812 52.73111,0 95.47812,42.74701 95.47812,95.47812 z"
       transform="matrix(1.0477726,0,0,1.0477726,-5.0359311,8.744292)" />
  </g>
  <g
     transform="matrix(0.48438577,0,0,0.48438577,279.92823,263.57423)"
     id="Layer_2_1_-1"
     style="stroke-width:0.41289404;stroke-miterlimit:4;stroke-dasharray:none">
    <path
       style="fill:#ffffff;stroke-width:0.41289404;stroke-miterlimit:4;stroke-dasharray:none"
       inkscape:connector-curvature="0"
       d="m 294.107,476.883 -26.848,51.139 H 506.33 L 479.482,476.883 H 397.515 V 126.017 c 0,-50.869 -65.888,-74.038 -127.104,-74.038 -31.758,0 -61.463,5.983 -83.646,16.848 -27.351,13.396 -41.808,33.172 -41.808,57.19 v 86.833 c -39.371,0 -71.288,31.917 -71.288,71.289 v 172.595 c 0,39.371 31.917,71.288 71.288,71.288 h 21.441 c 39.371,0 71.288,-31.917 71.288,-71.288 V 284.138 c 0,-39.372 -31.917,-71.289 -71.288,-71.289 v -86.833 c 0,-34.53 52.324,-52.597 104.012,-52.597 28.385,0 55.826,5.407 75.288,14.833 13.857,6.712 30.375,18.712 30.375,37.763 V 476.881 H 294.107 z M 174.975,240.186 c 10.213,0 18.492,8.279 18.492,18.492 0,10.213 -8.279,18.493 -18.492,18.493 h -38.592 c -10.213,0 -18.492,-8.279 -18.492,-18.493 0,-10.213 8.279,-18.492 18.492,-18.492 h 38.592 z"
       id="path9-7" />
  </g>
</svg>
