<?xml version="1.0" encoding="utf-8"?>
<!-- Generator: Adobe Illustrator 15.0.0, SVG Export Plug-In . SVG Version: 6.00 Build 0)  -->
<!DOCTYPE svg PUBLIC "-//W3C//DTD SVG 1.1//EN" "http://www.w3.org/Graphics/SVG/1.1/DTD/svg11.dtd">
<svg version="1.1" xmlns="http://www.w3.org/2000/svg" xmlns:xlink="http://www.w3.org/1999/xlink" x="0px" y="0px" width="580px"
	 height="580px" viewBox="0 0 580 580" enable-background="new 0 0 580 580" xml:space="preserve">
<g id="Layer_1">
	<g id="Layer_2">
		<g id="g1327">
			<path id="path1329" fill="#111111" stroke="#EEEEEE" stroke-width="3.408" d="M66.275,1.768
				c-41.335,0-64.571,21.371-64.571,65.036v450.123c0,40.844,20.895,62.229,62.192,62.229h452.024
				c41.307,0,62.229-20.315,62.229-62.229V66.804c0-42.602-20.923-65.036-63.521-65.036C514.625,1.768,66.133,1.625,66.275,1.768z"
				/>
		</g>
	</g>
</g>
<g id="Layer_2_1_">
	<g>
		<path fill="#FFFFFF" d="M157.058,477.779l134.348,61.904c0,0,15.805,9.22,42.147,0l217.323-86.93c0,0,31.173-19.611-8.341-38.051
			l-158.933,32.782l-69.807-17.123l105.37-6.586c0,0,34.244-25.024,1.316-48.732H309.844c0,0-48.733-27.659-119.858-14.489
			l-172.542-9.219v148.833L157.058,477.779z"/>
		<path fill="#FFFFFF" d="M436.97,212.219l1.793-0.465L401.265,66.881h10.754c4.136,0,7.488-3.353,7.488-7.488
			c0-4.134-3.353-7.486-7.488-7.486H292.22V40.154c0-2.174-1.916-3.936-4.279-3.936s-4.278,1.762-4.278,3.936v11.752h-119.8
			c-4.135,0-7.488,3.353-7.488,7.486c0,4.136,3.353,7.488,7.488,7.488h14.81l-37.498,144.873l1.791,0.465h-5.078
			c0,22.523,19.984,40.781,44.635,40.781c24.651,0,44.635-18.258,44.635-40.781h-5.078l1.794-0.465l-37.5-144.873h97.289v218.85
			c-43.499,0.828-78.084,14.218-78.084,30.613h164.726c0-16.396-34.586-29.785-78.084-30.613V66.881h101.343l-37.498,144.873
			l1.792,0.465h-5.076c0,22.523,19.984,40.781,44.635,40.781s44.635-18.258,44.635-40.781H436.97z M220.169,212.219H144.88
			l37.618-145.338h0.051L220.169,212.219z M359.77,212.219l37.619-145.338h0.05l37.619,145.338H359.77z"/>
	</g>
</g>
</svg>
