<?xml version="1.0" encoding="utf-8"?>
<!-- Generator: Adobe Illustrator 15.0.0, SVG Export Plug-In . SVG Version: 6.00 Build 0)  -->
<!DOCTYPE svg PUBLIC "-//W3C//DTD SVG 1.1//EN" "http://www.w3.org/Graphics/SVG/1.1/DTD/svg11.dtd">
<svg version="1.1" xmlns="http://www.w3.org/2000/svg" xmlns:xlink="http://www.w3.org/1999/xlink" x="0px" y="0px" width="580px"
	 height="580px" viewBox="0 0 580 580" enable-background="new 0 0 580 580" xml:space="preserve">
<g id="Layer_1">
	<g id="Layer_2">
		<g id="g1327">
			<path id="path1329" fill="#111111" stroke="#EEEEEE" stroke-width="3.408" d="M66.275,1.768
				c-41.335,0-64.571,21.371-64.571,65.036v450.123c0,40.844,20.896,62.229,62.192,62.229h452.024
				c41.307,0,62.229-20.314,62.229-62.229V66.804c0-42.602-20.923-65.036-63.521-65.036C514.625,1.768,66.133,1.625,66.275,1.768z"
				/>
		</g>
	</g>
	
		<g id="svg2" xmlns:inkscape="http://www.inkscape.org/namespaces/inkscape" xmlns:rdf="http://www.w3.org/1999/02/22-rdf-syntax-ns#" xmlns:svg="http://www.w3.org/2000/svg" xmlns:sodipodi="http://sodipodi.sourceforge.net/DTD/sodipodi-0.dtd" xmlns:cc="http://creativecommons.org/ns#" xmlns:dc="http://purl.org/dc/elements/1.1/" inkscape:output_extension="org.inkscape.output.svg.inkscape" inkscape:version="0.46" sodipodi:docname="amenity_atm.svg" sodipodi:version="0.32" sodipodi:docbase="s:\Data\FacilityIcons" display="none">
		
			<sodipodi:namedview  id="base" gridtolerance="10.0" guidetolerance="10.0" showgrid="false" inkscape:cy="302.63451" inkscape:cx="285.84646" inkscape:zoom="1.3034483" pagecolor="#ffffff" bordercolor="#666666" borderopacity="1.0" objecttolerance="10.0" inkscape:window-width="1280" inkscape:window-y="0" inkscape:current-layer="svg2" inkscape:pageshadow="2" inkscape:window-height="1005" inkscape:pageopacity="0.0" inkscape:window-x="0">
			</sodipodi:namedview>
		<defs  display="inline">
			
			
				<inkscape:perspective  id="perspective2441" inkscape:vp_z="580 : 290 : 1" inkscape:vp_y="0 : 1000 : 0" inkscape:vp_x="0 : 290 : 1" sodipodi:type="inkscape:persp3d" inkscape:persp3d-origin="290 : 193.33333 : 1">
				</inkscape:perspective>
		</defs>
		
			<path id="rect3241" sodipodi:nodetypes="ccccccccc" display="inline" opacity="0.75" fill="#FFFFFF" stroke="#FFFFFF" stroke-width="35.845" stroke-linecap="round" stroke-linejoin="round" enable-background="new    " d="
			M103.979,82.413v62.924h112.402c7.778-20.622,12.716-34.171,13.042-36.066l190.991-1.647l14.589,37.714h69.612V82.413H103.979z"/>
		
			<path id="path2443" sodipodi:nodetypes="ccccccc" display="inline" fill="none" stroke="#FFFFFF" stroke-width="20" stroke-linejoin="round" d="
			M227.906,158.094l-40.375,0.375c-1.603,9.296-122.313,358.625-122.313,358.625l403.813-3.406l-15.594-40.313l-333.094,2.845
			C120.344,476.219,195.438,243.832,227.906,158.094z"/>
		
			<path id="path3243" sodipodi:nodetypes="ccccc" display="inline" fill="none" stroke="#FFFFFF" stroke-width="20" stroke-linejoin="round" d="
			M242.694,117.588c-1.604,9.296-122.338,358.618-122.338,358.618l403.838-3.411L401.652,116.069L242.694,117.588z"/>
		
			<path id="path3163" sodipodi:nodetypes="ccccc" display="inline" opacity="0.1" fill="#FFFFFF" stroke="#FFFFFF" stroke-width="20" stroke-linecap="round" stroke-linejoin="round" enable-background="new    " d="
			M242.694,117.588c-1.604,9.296-122.338,358.618-122.338,358.618l403.838-3.411L401.652,116.069L242.694,117.588z"/>
		
			<path id="path3165" sodipodi:nodetypes="ccccccc" display="inline" opacity="0.1" fill="#FFFFFF" stroke="#FFFFFF" stroke-width="20" stroke-linecap="round" stroke-linejoin="round" enable-background="new    " d="
			M227.906,158.094l-40.375,0.375c-1.603,9.296-122.313,358.625-122.313,358.625l403.813-3.406l-15.594-40.313l-333.094,2.845
			C120.344,476.219,195.438,243.832,227.906,158.094z"/>
		<g id="g4372" transform="translate(-130.0802,122.26983)" display="inline">
		</g>
		<g id="g4998" transform="translate(-133.14896,123.86039)" display="inline">
			<g id="g5004">
				<path id="text2413" fill="#FFFFFF" d="M465.402,153.84c0.229,0.098,1.086,0.291,2.572,0.581
					c23.435,3.872,41.037,10.938,52.811,21.199c11.772,10.261,17.66,23.716,17.66,40.364c0,17.036-6.459,31.798-19.376,44.285
					c-12.917,12.487-30.807,19.263-53.669,20.327v26.426h-18.347v-26.135c-23.32-2.228-41.209-8.641-53.669-19.238
					c-12.46-10.6-19.49-25.434-21.09-44.504l30.864-4.646c2.399,14.326,7.259,25.36,14.574,33.104s17.09,12.148,29.321,13.213
					V175.62c-23.205-4.26-40.581-11.374-52.126-21.344s-17.318-22.795-17.318-38.478c0-15.584,5.717-28.966,17.147-40.146
					s28.863-17.641,52.297-19.384V43.782h18.347v12.487c19.434,1.646,34.75,6.873,45.953,15.681
					c11.202,8.81,18.232,21.15,21.091,37.025l-32.063,3.92c-1.829-9.873-5.659-17.689-11.488-23.449
					c-5.83-5.759-13.66-9.462-23.491-11.107L465.402,153.84L465.402,153.84z M447.055,150.646V78.048
					c-12.46,1.84-22.006,6.074-28.635,12.705c-6.63,6.632-9.945,14.303-9.945,23.015c0,9.971,3.429,17.835,10.288,23.595
					C425.622,143.12,435.052,147.549,447.055,150.646L447.055,150.646z M465.402,258.817c12.003-1.549,21.892-5.977,29.664-13.285
					s11.659-16.527,11.659-27.66c0-9.775-2.942-17.641-8.83-23.594s-16.719-11.012-32.493-15.174V258.817z"/>
			</g>
			
				<path id="path4370" sodipodi:nodetypes="cc" fill="none" stroke="#FFFFFF" stroke-width="30" stroke-linecap="round" stroke-linejoin="round" d="
				M455.376,43.427V308.47"/>
		</g>
	</g>
</g>
<g id="Layer_2_1_">
	<g>
		<g>
			<path fill="#FFFFFF" d="M134.37,423.578c-1.692-3.393-1.32-7.451,0.96-10.479l19.831-26.335V290.07
				c0-28.165-22.832-50.997-50.998-50.997c-28.164,0-50.996,22.832-50.996,50.997v246.976h101.994V429.114h-11.843
				C139.528,429.114,136.062,426.97,134.37,423.578z"/>
			<path fill="#FFFFFF" d="M365.435,340.668l-85.936-50.308l-77.061,50.245l-47.277,62.783l-11.843,15.727h11.843h17.171v115.999
				h216.05V419.114h28.133L365.435,340.668z M252.599,357.321h54.637v54.636h-54.637V357.321z M343.211,524.708H216.624v-81.601
				h126.586V524.708z"/>
		</g>
		<g>
			<path fill="#FFFFFF" d="M526.832,63.841c-70.301-11.255-77.266,46.708-77.256,46.667
				C507.215,130.324,526.832,63.841,526.832,63.841z"/>
			<path fill="#FFFFFF" d="M468.879,130.285c-15.1,0-28.703,5.945-38.664,15.798c-10.068-9.853-23.67-15.798-38.717-15.798
				c-30.578,0-55.373,24.688-55.373,55.212c0,1.178,0,2.142,0.162,3.267h0.268c0.857,11.834,4.658,26.775,13.654,45.196
				c0,0,15.584,29.615,27.9,43.216l1.125,1.071c6.051,6.104,14.404,9.854,23.67,9.854c11.246,0,21.207-5.461,27.258-13.923h0.16
				c6.051,8.462,16.012,13.923,27.258,13.923c9.156,0,17.617-3.802,23.615-9.854l1.125-1.071c12.424-13.602,27.9-43.216,27.9-43.216
				c8.996-18.421,12.799-33.255,13.764-45.196h0.105c0.055-1.179,0.055-2.142,0.055-3.267
				C524.144,154.973,499.349,130.285,468.879,130.285z"/>
			<path fill="#FFFFFF" d="M410.636,88.799c0.006,0.037-1.525-49.836-62.227-45.588C348.41,43.21,360.066,101.297,410.636,88.799z"
				/>
			<path fill="#FFFFFF" d="M427.349,134.403l2.488,0.218l14.205-76.072l-0.768-0.444c-0.502-0.289-12.348-7.083-18.77-7.083
				c-1.932,0-3.318,0.597-4.117,1.774c-1.025,1.51-0.924,3.754,0.309,6.859C426.72,74.819,427.344,133.808,427.349,134.403z"/>
		</g>
	</g>
</g>
</svg>
