<?xml version="1.0" encoding="UTF-8" standalone="no"?>
<!-- Generator: Adobe Illustrator 15.0.0, SVG Export Plug-In . SVG Version: 6.00 Build 0)  -->

<svg
   xmlns:dc="http://purl.org/dc/elements/1.1/"
   xmlns:cc="http://creativecommons.org/ns#"
   xmlns:rdf="http://www.w3.org/1999/02/22-rdf-syntax-ns#"
   xmlns:svg="http://www.w3.org/2000/svg"
   xmlns="http://www.w3.org/2000/svg"
   xmlns:sodipodi="http://sodipodi.sourceforge.net/DTD/sodipodi-0.dtd"
   xmlns:inkscape="http://www.inkscape.org/namespaces/inkscape"
   version="1.1"
   x="0px"
   y="0px"
   width="580px"
   height="580px"
   viewBox="0 0 580 580"
   enable-background="new 0 0 580 580"
   xml:space="preserve"
   id="svg881"
   sodipodi:docname="fashion_accessories.svg"
   inkscape:version="0.92.3 (2405546, 2018-03-11)"><metadata
   id="metadata887"><rdf:RDF><cc:Work
       rdf:about=""><dc:format>image/svg+xml</dc:format><dc:type
         rdf:resource="http://purl.org/dc/dcmitype/StillImage" /><dc:title></dc:title></cc:Work></rdf:RDF></metadata><defs
   id="defs885" /><sodipodi:namedview
   pagecolor="#ffffff"
   bordercolor="#666666"
   borderopacity="1"
   objecttolerance="10"
   gridtolerance="10"
   guidetolerance="10"
   inkscape:pageopacity="0"
   inkscape:pageshadow="2"
   inkscape:window-width="1387"
   inkscape:window-height="981"
   id="namedview883"
   showgrid="false"
   inkscape:zoom="1.2316035"
   inkscape:cx="289.13919"
   inkscape:cy="290"
   inkscape:window-x="383"
   inkscape:window-y="81"
   inkscape:window-maximized="0"
   inkscape:current-layer="svg881" />
<g
   id="Layer_2"
   transform="translate(0.81194959,-0.5683013)">
	<g
   id="g1327">
		<path
   id="path1329"
   d="M 66.275,1.768 C 24.94,1.768 1.704,23.139 1.704,66.804 v 450.123 c 0,40.844 20.894,62.229 62.192,62.229 H 515.92 c 41.307,0 62.229,-20.316 62.229,-62.229 V 66.804 c 0,-42.601 -20.923,-65.036 -63.522,-65.036 -0.003,0 -448.494,-0.143 -448.352,0 z"
   inkscape:connector-curvature="0"
   style="fill:#111111;stroke:#eeeeee;stroke-width:3.40799999" />
	</g>
</g>

<g
   id="g8573"
   transform="matrix(29.201964,0,0,29.201964,-7415.9198,-7518.5879)"
   style="fill:#ffffff;fill-opacity:1"><path
     id="path7992"
     d="m 269.38345,271.39941 c 0,2 -0.5,3.5 -1.5,3.5 0,0 -8,0 -8,0 -1,0 -1.5,-1.5 -1.5,-3.5 4.5,2.5 6.5,2.5 11,0 z m -5.5,-0.5 c 0.25,0 0.5,0.25 0.5,0.5 0,0.25 -0.25,0.5 -0.5,0.5 -0.25,0 -0.5,-0.25 -0.5,-0.5 0,-0.25 0.25,-0.5 0.5,-0.5 z m 4.5,-1 h -9 c -0.5,0 -1,0.5 -1,1 4.5,2.5 6.5,2.5 11,0 0,-0.5 -0.5,-1 -1,-1 z"
     inkscape:connector-curvature="0"
     style="fill:#ffffff;fill-opacity:1" /><path
     id="path7994"
     d="m 260.34945,268.39941 c -1.133,0 -1.983,0 -2.266,-1.133 0,0 -0.567,-2.267 -0.567,-3.117 0,-1.417 0.567,-1.983 1.983,-1.983 0.567,0 1.7,0 1.7,0 1.417,0 1.984,0.566 1.984,1.983 0,0.85 -0.567,3.117 -0.567,3.117 -0.283,1.133 -1.133,1.133 -2.267,1.133 z m 0.567,-8.5 h -1.133 c -0.567,0 -0.567,0.567 -0.567,0.708 0.425,0 0.425,0.567 0,0.567 0,0.142 0,0.708 0.567,0.708 0.566,0 0.566,0 1.133,0 0.567,0 0.708,-0.566 0.708,-0.85 h 0.709 c 0,0.284 0.283,0.567 0.85,0.567 0.566,0 1.133,-0.283 1.133,-0.708 0,-0.425 -0.567,-0.709 -1.133,-0.709 -0.567,0 -0.85,0.284 -0.85,0.567 h -0.709 c 0,-0.283 -0.141,-0.85 -0.708,-0.85 z m -2.448,1.135 c 0.077,-0.011 0.149,0.043 0.16,0.12 0.011,0.077 -0.043,0.149 -0.12,0.161 l -0.281,0.039 c -0.077,0.012 -0.149,-0.042 -0.16,-0.12 -0.011,-0.078 0.043,-0.149 0.12,-0.16 z m -0.841,0.12 c 0.077,-0.011 0.149,0.043 0.159,0.12 0.012,0.078 -0.042,0.149 -0.12,0.161 l -0.28,0.039 c -0.077,0.012 -0.149,-0.042 -0.161,-0.12 -0.01,-0.077 0.044,-0.149 0.121,-0.16 z m -0.842,0.12 c 0.077,-0.011 0.149,0.043 0.16,0.12 0.011,0.078 -0.043,0.149 -0.12,0.161 l -0.281,0.039 c -0.077,0.012 -0.149,-0.042 -0.159,-0.12 -0.012,-0.077 0.042,-0.149 0.12,-0.159 z m -0.241,-1.091 0.281,0.041 c 0.077,0.011 0.131,0.082 0.12,0.16 -0.011,0.078 -0.083,0.132 -0.16,0.12 l -0.28,-0.04 c -0.078,-0.011 -0.132,-0.083 -0.12,-0.16 0.01,-0.077 0.082,-0.131 0.159,-0.12 z m 0.842,0.121 0.28,0.04 c 0.078,0.011 0.132,0.083 0.12,0.16 -0.01,0.078 -0.082,0.132 -0.159,0.12 l -0.281,-0.039 c -0.077,-0.012 -0.131,-0.083 -0.121,-0.161 0.012,-0.077 0.084,-0.131 0.161,-0.12 z m 0.841,0.12 c -0.077,-0.011 -0.149,0.043 -0.16,0.12 -0.011,0.078 0.043,0.149 0.12,0.161 l 0.281,0.039 c 0.077,0.012 0.149,-0.042 0.16,-0.12 0.011,-0.077 -0.043,-0.149 -0.12,-0.16 z"
     inkscape:connector-curvature="0"
     style="fill:#ffffff;fill-opacity:1" /><path
     id="path7996"
     d="m 271.38345,263.89941 c 0,0 -1.875,-2 -1.875,-2 0,0 -3.75,0 -3.75,0 0,0 -1.875,2 -1.875,2 0,0 3.75,4.5 3.75,4.5 0,0 3.75,-4.5 3.75,-4.5 z m -2.203,0 0.328,-1.5 1.406,1.5 z m -0.141,0.5 h 1.406 l -2.343,3 z m -0.234,-0.5 -0.844,-1.5 h 1.219 z m -2.11,0.5 h 1.876 l -0.938,3.25 z m 0.141,-0.5 0.797,-1.5 0.797,1.5 z m -0.375,0 -0.375,-1.5 h 1.219 z m 0.703,3.5 -2.343,-3 h 1.406 z m -1.406,-5 0.328,1.5 h -1.734 z"
     inkscape:connector-curvature="0"
     style="fill:#ffffff;fill-opacity:1" /></g></svg>