<?xml version="1.0" encoding="utf-8"?>
<!-- Generator: Adobe Illustrator 15.0.0, SVG Export Plug-In . SVG Version: 6.00 Build 0)  -->
<!DOCTYPE svg PUBLIC "-//W3C//DTD SVG 1.1//EN" "http://www.w3.org/Graphics/SVG/1.1/DTD/svg11.dtd">
<svg version="1.1" xmlns="http://www.w3.org/2000/svg" xmlns:xlink="http://www.w3.org/1999/xlink" x="0px" y="0px" width="580px"
	 height="580px" viewBox="0 0 580 580" enable-background="new 0 0 580 580" xml:space="preserve">
<g id="Layer_1">
	<g id="Layer_2">
		<g id="g1327">
			<path id="path1329" fill="#111111" stroke="#EEEEEE" stroke-width="3.408" d="M66.275,1.768
				c-41.335,0-64.571,21.371-64.571,65.036v450.123c0,40.844,20.895,62.229,62.192,62.229h452.024
				c41.307,0,62.229-20.315,62.229-62.229V66.804c0-42.602-20.923-65.036-63.521-65.036C514.625,1.768,66.133,1.625,66.275,1.768z"
				/>
		</g>
	</g>
</g>
<g id="Layer_2_1_">
	<g>
		<polygon fill="#FFFFFF" points="146.847,432.527 146.847,147.257 71.417,64.787 71.417,514.994 		"/>
		<polygon fill="#FFFFFF" points="80.847,58.161 154.022,138.166 425.396,138.166 498.573,58.161 		"/>
		<polygon fill="#FFFFFF" points="425.594,441.834 153.823,441.834 80.648,521.838 498.77,521.838 		"/>
		<polygon fill="#FFFFFF" points="433.154,146.622 433.154,433.163 508.582,515.633 508.582,64.153 		"/>
	</g>
</g>
</svg>
