<?xml version="1.0" encoding="UTF-8" standalone="no"?>
<!-- Created with Inkscape (http://www.inkscape.org/) -->

<svg
   xmlns:dc="http://purl.org/dc/elements/1.1/"
   xmlns:cc="http://creativecommons.org/ns#"
   xmlns:rdf="http://www.w3.org/1999/02/22-rdf-syntax-ns#"
   xmlns:svg="http://www.w3.org/2000/svg"
   xmlns="http://www.w3.org/2000/svg"
   xmlns:sodipodi="http://sodipodi.sourceforge.net/DTD/sodipodi-0.dtd"
   xmlns:inkscape="http://www.inkscape.org/namespaces/inkscape"
   version="1.0"
   width="580"
   height="580"
   id="svg2"
   sodipodi:version="0.32"
   inkscape:version="0.48.4 r9939"
   sodipodi:docname="convenience.svg"
   inkscape:output_extension="org.inkscape.output.svg.inkscape">
  <metadata
     id="metadata2975">
    <rdf:RDF>
      <cc:Work
         rdf:about="">
        <dc:format>image/svg+xml</dc:format>
        <dc:type
           rdf:resource="http://purl.org/dc/dcmitype/StillImage" />
        <cc:license
           rdf:resource="http://web.resource.org/cc/PublicDomain" />
        <dc:language>en</dc:language>
        <dc:title></dc:title>
      </cc:Work>
    </rdf:RDF>
  </metadata>
  <sodipodi:namedview
     inkscape:window-height="945"
     inkscape:window-width="1624"
     inkscape:pageshadow="2"
     inkscape:pageopacity="0.0"
     guidetolerance="10.0"
     gridtolerance="10.0"
     objecttolerance="10.0"
     borderopacity="1.0"
     bordercolor="#666666"
     pagecolor="#ffffff"
     id="base"
     inkscape:zoom="0.99"
     inkscape:cx="195.60336"
     inkscape:cy="319.23647"
     inkscape:window-x="91"
     inkscape:window-y="88"
     inkscape:current-layer="svg2"
     showgrid="false"
     inkscape:window-maximized="0" />
  <defs
     id="defs4">
    <inkscape:perspective
       sodipodi:type="inkscape:persp3d"
       inkscape:vp_x="0 : 290 : 1"
       inkscape:vp_y="0 : 1000 : 0"
       inkscape:vp_z="580 : 290 : 1"
       inkscape:persp3d-origin="290 : 193.33333 : 1"
       id="perspective2441" />
    <inkscape:perspective
       id="perspective2466"
       inkscape:persp3d-origin="372.04724 : 350.78739 : 1"
       inkscape:vp_z="744.09448 : 526.18109 : 1"
       inkscape:vp_y="0 : 1000 : 0"
       inkscape:vp_x="0 : 526.18109 : 1"
       sodipodi:type="inkscape:persp3d" />
  </defs>
  <g
     id="g1327"
     transform="translate(25.252525,0)">
    <path
       d="M 66.275,1.768 C 24.94,1.768 1.704,23.139 1.704,66.804 l 0,450.123 c 0,40.844 20.895,62.229 62.192,62.229 l 452.024,0 c 41.307,0 62.229,-20.315 62.229,-62.229 l 0,-450.123 c 0,-42.601 -20.922,-65.036 -63.521,-65.036 -0.004,0 -448.495,-0.143 -448.353,0 z"
       style="fill:#111111;stroke:#eeeeee;stroke-width:3.40799999"
       id="path1329"
       inkscape:connector-curvature="0" />
  </g>
  <g
     id="g77"
     transform="translate(1.6237086,3.7556219)">
    <g
       transform="matrix(0.69286481,0,0,0.761479,187.98142,175.94872)"
       id="g19">
      <g
         id="g10747"
         transform="translate(32,66)">
        <path
           inkscape:connector-curvature="0"
           sodipodi:nodetypes="ccccc"
           id="path3264"
           d="m 477.06925,164.57688 -428.872756,0 49.667746,211.82583 329.53078,-1.4581 49.67423,-210.36773 z"
           style="fill:none;stroke:#ffffff;stroke-width:28.1733551;stroke-linecap:round;stroke-linejoin:round;stroke-miterlimit:4;stroke-opacity:1;stroke-dasharray:none" />
        <path
           inkscape:connector-curvature="0"
           sodipodi:nodetypes="cc"
           style="fill:none;stroke:#ffffff;stroke-width:18.7822361;stroke-linecap:round;stroke-linejoin:miter;stroke-miterlimit:4;stroke-opacity:1;stroke-dasharray:none"
           d="m 128.06871,165.73536 0,197.47173"
           id="path3268" />
        <path
           inkscape:connector-curvature="0"
           id="path3280"
           d="m 86.424707,243.00115 358.767383,0"
           style="fill:none;stroke:#ffffff;stroke-width:18.7822361;stroke-linecap:round;stroke-linejoin:miter;stroke-miterlimit:4;stroke-opacity:1;stroke-dasharray:none"
           sodipodi:nodetypes="cc" />
        <path
           inkscape:connector-curvature="0"
           sodipodi:nodetypes="cc"
           id="path3318"
           d="m 215.1525,165.73536 0,197.51559"
           style="fill:none;stroke:#ffffff;stroke-width:18.7822361;stroke-linecap:round;stroke-linejoin:miter;stroke-miterlimit:4;stroke-opacity:1;stroke-dasharray:none" />
        <path
           inkscape:connector-curvature="0"
           sodipodi:nodetypes="cc"
           style="fill:none;stroke:#ffffff;stroke-width:18.7822361;stroke-linecap:round;stroke-linejoin:miter;stroke-miterlimit:4;stroke-opacity:1;stroke-dasharray:none"
           d="m 306.2363,165.73536 0,206.42397"
           id="path3320" />
        <path
           inkscape:connector-curvature="0"
           sodipodi:nodetypes="cc"
           id="path3322"
           d="m 395.3201,165.73536 0,207.78654"
           style="fill:none;stroke:#ffffff;stroke-width:18.7822361;stroke-linecap:round;stroke-linejoin:miter;stroke-miterlimit:4;stroke-opacity:1;stroke-dasharray:none" />
        <path
           inkscape:connector-curvature="0"
           sodipodi:nodetypes="cc"
           style="fill:none;stroke:#ffffff;stroke-width:18.7822361;stroke-linecap:round;stroke-linejoin:miter;stroke-miterlimit:4;stroke-opacity:1;stroke-dasharray:none"
           d="m 104.24147,322.08495 323.13386,0"
           id="path3324" />
      </g>
      <path
         inkscape:connector-curvature="0"
         style="fill:#ffffff;fill-rule:evenodd;stroke:#ffffff;stroke-width:20;stroke-linecap:round;stroke-linejoin:round;stroke-miterlimit:4;stroke-opacity:1;stroke-dasharray:none"
         d="m 287.11282,222.95322 53.73023,-144.394222 15.66963,5.830793 -54.487,146.427949 -14.91286,-7.86452 z"
         id="path10756"
         sodipodi:nodetypes="ccccc" />
    </g>
    <path
       style="fill:#ffffff"
       inkscape:connector-curvature="0"
       id="path11"
       d="m 359.17252,174.21596 c 0,-5.54292 -4.50439,-10.04629 -10.0463,-10.04629 h -34.2299 l 17.84753,-25.05517 c 1.26253,-1.76653 1.86529,-3.79981 1.86529,-5.81783 0,-3.14615 -1.46719,-6.23121 -4.22032,-8.19628 -4.5217,-3.21945 -10.79262,-2.16361 -14.01207,2.35503 l -26.1558,36.71527 H 235.3293 l 27.97222,-47.34294 44.91866,-3.84563 c 5.24154,-0.44392 9.19103,-4.83224 9.19103,-9.99233 0,-0.29119 -0.008,-0.5773 -0.0397,-0.87155 -0.46531,-5.527653 -5.33522,-9.625792 -10.86287,-9.14827 l -30.6602,2.618736 17.426,-29.475036 c 0.9469,-1.609729 1.39795,-3.364038 1.39795,-5.103074 0,-3.436327 -1.76958,-6.782038 -4.94016,-8.6514 -4.77421,-2.82848 -10.93313,-1.246242 -13.75346,3.532036 l -17.4148,29.47809 -12.49601,-28.125959 c -2.25933,-5.065402 -8.20137,-7.351196 -13.26576,-5.100019 -5.06132,2.255249 -7.35628,8.173878 -5.10307,13.265751 l 18.31486,41.203355 -28.14428,47.62189 -27.77673,-47.96604 18.65493,-41.027203 c 0.61192,-1.346022 0.90312,-2.764334 0.90312,-4.159229 0,-3.816105 -2.18398,-7.462176 -5.89114,-9.144195 -5.05013,-2.301067 -11.00643,-0.06516 -13.30037,4.984966 l -12.73427,27.999706 -17.1572,-29.623689 c -2.77859,-4.801695 -8.93038,-6.433823 -13.73207,-3.658289 -4.80169,2.790807 -6.44197,8.915107 -3.65829,13.728002 l 17.1572,29.627762 -30.63677,-2.886516 c -5.52765,-0.520285 -10.42098,3.532036 -10.94126,9.059685 -0.56611,5.54293 3.52898,10.42505 9.05663,10.94127 l 44.88404,4.22846 27.59447,47.64838 h -55.16146 l -26.15987,-36.71526 c -3.21945,-4.51864 -9.48833,-5.56634 -14.00698,-2.35503 -4.51864,3.23066 -5.573465,9.50056 -2.35503,14.01513 l 17.84549,25.05516 H 86.228327 c -5.546997,0 -10.047313,4.50338 -10.047313,10.04732 0,5.55107 4.499298,10.04629 10.047313,10.04629 h 34.225823 l -17.84549,25.06228 c -3.218435,4.49625 -2.16361,10.77836 2.35503,14.008 4.51865,3.21946 10.78854,2.16362 14.00698,-2.35503 L 145.13054,184.08 h 54.89368 l -27.97731,47.35107 -44.91865,3.84563 c -5.5358,0.46531 -9.7103,5.33726 -9.14827,10.86389 0.46327,5.52867 5.33318,9.62681 10.86083,9.14521 l 30.66019,-2.62281 -17.42091,29.48217 c -2.81015,4.76504 -1.23809,10.93312 3.54018,13.75549 4.77421,2.8295 10.93312,1.24624 13.75448,-3.54018 l 17.41378,-29.47198 12.49703,28.11985 c 2.25932,5.07253 8.20035,7.35323 13.26473,5.099 3.7428,-1.6586 5.96343,-5.33726 5.96343,-9.18696 0,-1.3562 -0.27185,-2.74804 -0.86443,-4.07879 l -18.31486,-41.19419 28.14429,-47.62597 27.77673,47.96197 -18.65086,41.03535 c -2.30107,5.03689 -0.0692,11.01254 4.98191,13.30342 5.05318,2.29292 11.01254,0.0641 13.30342,-4.98496 l 12.73732,-28.00786 17.15822,29.63286 c 2.77859,4.79966 8.93038,6.4328 13.73106,3.65421 3.21946,-1.86529 5.00736,-5.2334 5.00736,-8.69721 0,-1.7197 -0.4317,-3.44448 -1.35213,-5.03079 l -17.15822,-29.62674 30.63677,2.8855 c 5.52867,0.52537 10.42608,-3.53611 10.94127,-9.06376 0.0377,-0.31258 0.0458,-0.63433 0.0458,-0.95505 0,-5.11631 -3.89553,-9.49343 -9.09736,-9.98317 l -44.88913,-4.22337 -27.59448,-47.65652 h 55.16452 l 26.1558,36.71525 c 3.21945,4.51865 9.48935,5.57449 14.01207,2.35503 4.52577,-3.22556 5.58568,-9.51175 2.35503,-14.00596 l -17.84753,-25.0633 h 34.2299 c 5.54191,-0.003 10.0463,-4.49828 10.0463,-10.05037 z" />
  </g>
</svg>
