<?xml version="1.0" encoding="UTF-8" standalone="no"?>
<!-- Generator: Adobe Illustrator 15.0.0, SVG Export Plug-In . SVG Version: 6.00 Build 0)  -->

<svg
   xmlns:dc="http://purl.org/dc/elements/1.1/"
   xmlns:cc="http://creativecommons.org/ns#"
   xmlns:rdf="http://www.w3.org/1999/02/22-rdf-syntax-ns#"
   xmlns:svg="http://www.w3.org/2000/svg"
   xmlns="http://www.w3.org/2000/svg"
   xmlns:sodipodi="http://sodipodi.sourceforge.net/DTD/sodipodi-0.dtd"
   xmlns:inkscape="http://www.inkscape.org/namespaces/inkscape"
   version="1.1"
   x="0px"
   y="0px"
   width="580px"
   height="580px"
   viewBox="0 0 580 580"
   enable-background="new 0 0 580 580"
   xml:space="preserve"
   id="svg2915"
   sodipodi:docname="fuel.svg"
   inkscape:version="0.92.3 (2405546, 2018-03-11)"><metadata
   id="metadata2921"><rdf:RDF><cc:Work
       rdf:about=""><dc:format>image/svg+xml</dc:format><dc:type
         rdf:resource="http://purl.org/dc/dcmitype/StillImage" /><dc:title></dc:title></cc:Work></rdf:RDF></metadata><defs
   id="defs2919" /><sodipodi:namedview
   pagecolor="#ffffff"
   bordercolor="#666666"
   borderopacity="1"
   objecttolerance="10"
   gridtolerance="10"
   guidetolerance="10"
   inkscape:pageopacity="0"
   inkscape:pageshadow="2"
   inkscape:window-width="1450"
   inkscape:window-height="995"
   id="namedview2917"
   showgrid="false"
   inkscape:zoom="0.81454783"
   inkscape:cx="184.74947"
   inkscape:cy="290"
   inkscape:window-x="346"
   inkscape:window-y="-4"
   inkscape:window-maximized="0"
   inkscape:current-layer="svg2915" />
<g
   id="Layer_1">
	<g
   id="Layer_2">
		<g
   id="g1327">
			<path
   id="path1329"
   fill="#111111"
   stroke="#EEEEEE"
   stroke-width="3.408"
   d="M66.275,1.768     c-41.335,0-64.571,21.371-64.571,65.036v450.123c0,40.844,20.895,62.229,62.192,62.229h452.024     c41.307,0,62.229-20.315,62.229-62.229V66.804c0-42.602-20.923-65.036-63.521-65.036C514.625,1.768,66.133,1.625,66.275,1.768z" />
		</g>
	</g>
</g>

<g
   transform="matrix(10.891013,0,0,10.891013,-260.96817,-258.35703)"
   id="g4044"
   style="fill:#ffffff;fill-opacity:1"><path
     inkscape:connector-curvature="0"
     id="path3482"
     d="m 50.53,57.124 c -2.454,-5.812 0.387,-6.731 4.004,-11.754 3.616,-5.022 2.324,-13.172 -7.104,-14.592 1.162,2.195 3.488,5.94 -4.237,12.268 -3.47,3.21 -3.116,6.991 -1.009,9.826 1.878,2.526 5.539,3.024 8.346,4.252 z"
     style="fill:#ffffff;fill-opacity:1" /><path
     inkscape:connector-curvature="0"
     id="path3484"
     d="M 52.47,56.448 C 53.313,53.812 62.75,56 57.737,43.346 c -0.845,2.972 -3.092,5.013 -4.842,7.284 -1.751,2.273 -1.252,3.662 -0.425,5.818 z"
     style="fill:#ffffff;fill-opacity:1" /><path
     inkscape:connector-curvature="0"
     id="path3488"
     d="m 67.374,70 c -0.43,0 -33.352,0 -33.811,0 -0.459,0 -0.607,-0.349 -0.645,-0.666 -0.106,-0.914 -0.294,-2.778 -0.294,-4.752 0,-2.369 0.375,-4.655 0.375,-4.832 0,-0.375 0.292,-0.75 0.791,-0.75 0.499,0 21.334,0 21.334,0 l 4.25,-4 2.125,1.625 L 59.196,59 c 0,0 7.262,0 7.887,0 0.625,0 0.917,0.5 0.917,0.875 0.064,0.368 0.541,2.312 0.541,4.582 0,2.032 -0.414,4.789 -0.462,5.082 C 68.031,69.832 67.832,70 67.374,70 Z"
     style="fill:#ffffff;fill-opacity:1" /></g></svg>