<?xml version="1.0" encoding="utf-8"?>
<!-- Generator: Adobe Illustrator 15.0.0, SVG Export Plug-In . SVG Version: 6.00 Build 0)  -->
<!DOCTYPE svg PUBLIC "-//W3C//DTD SVG 1.1//EN" "http://www.w3.org/Graphics/SVG/1.1/DTD/svg11.dtd">
<svg version="1.1" xmlns="http://www.w3.org/2000/svg" xmlns:xlink="http://www.w3.org/1999/xlink" x="0px" y="0px" width="580px"
	 height="580px" viewBox="0 0 580 580" enable-background="new 0 0 580 580" xml:space="preserve">
<g id="Layer_1">
	<g id="Layer_2">
		<g id="g1327">
			<path id="path1329" fill="#111111" stroke="#EEEEEE" stroke-width="3.408" d="M66.275,1.768
				c-41.335,0-64.571,21.371-64.571,65.036v450.123c0,40.844,20.895,62.229,62.192,62.229h452.024
				c41.307,0,62.229-20.315,62.229-62.229V66.804c0-42.602-20.923-65.036-63.521-65.036C514.625,1.768,66.133,1.625,66.275,1.768z"
				/>
		</g>
	</g>
</g>
<g id="Layer_2_1_">
	<g>
		<path fill="#FFFFFF" d="M346.7,241.008h-8.556V81.485c0-15.874-12.868-28.742-28.741-28.742h-96.779
			c-4.338-16.057-12.314-22.829-21.443-22.829c-13.758,0-20.911,20.45-20.911,50.609s7.153,50.609,20.911,50.609
			c8.759,0,16.456-5.92,20.897-20.905h68.584v130.781h-2.831c-34.812,0-63.031,28.22-63.031,63.031v183.016
			c0,34.811,28.22,63.031,63.031,63.031H346.7c34.81,0,63.03-28.221,63.03-63.031V304.039
			C409.73,269.228,381.51,241.008,346.7,241.008z M363.755,333.922h-0.233v139.516c-50.777,24.91-102.514,0-102.514,0V333.922
			h-0.231c-5.575,0-10.094-4.52-10.094-10.096c0-5.574,4.519-10.094,10.094-10.094h102.979c5.575,0,10.094,4.52,10.094,10.094
			C373.848,329.402,369.33,333.922,363.755,333.922z"/>
		<path fill="#FFFFFF" d="M352.826,445.252c-0.72-2.711-4.276-4.475-7.943-3.943l-20.477,2.973
			c36.164-58.678-26.232-108.564-19.005-97.207c7.554,11.871,18.885,16.727-5.936,55.578c-11.9,18.625-11.023,30.799-6.887,38.43
			l-6.248-1.236c-3.611-0.713-7.32,0.869-8.287,3.537s1.176,5.408,4.788,6.123l2.358,0.467l-2.396,0.348
			c-3.668,0.533-6.056,3.16-5.336,5.871c0.721,2.709,4.277,4.475,7.944,3.941l29.505-4.281l29.046,5.744
			c3.612,0.715,7.321-0.869,8.287-3.537c0.967-2.666-1.177-5.408-4.787-6.123l-2.358-0.467l2.396-0.348
			C351.159,450.588,353.547,447.961,352.826,445.252z M315.742,439.543h-5.409c-19.041-24.883,8.438-46.951,5.409-42.191
			s-7.573,6.707,2.38,22.285C328.075,435.217,315.742,439.543,315.742,439.543z"/>
	</g>
</g>
</svg>
