<?xml version="1.0" encoding="utf-8"?>
<!-- Generator: Adobe Illustrator 15.0.0, SVG Export Plug-In . SVG Version: 6.00 Build 0)  -->
<!DOCTYPE svg PUBLIC "-//W3C//DTD SVG 1.1//EN" "http://www.w3.org/Graphics/SVG/1.1/DTD/svg11.dtd">
<svg version="1.1" xmlns="http://www.w3.org/2000/svg" xmlns:xlink="http://www.w3.org/1999/xlink" x="0px" y="0px" width="580px"
	 height="580px" viewBox="0 0 580 580" enable-background="new 0 0 580 580" xml:space="preserve">
<g id="Layer_1">
	<g id="Layer_2">
		<g id="g1327">
			<path id="path1329" fill="#111111" stroke="#EEEEEE" stroke-width="3.408" d="M66.275,1.768
				c-41.335,0-64.571,21.371-64.571,65.036v450.123c0,40.844,20.895,62.229,62.192,62.229h452.024
				c41.307,0,62.229-20.315,62.229-62.229V66.804c0-42.602-20.923-65.036-63.521-65.036C514.625,1.768,66.133,1.625,66.275,1.768z"
				/>
		</g>
	</g>
</g>
<g id="Layer_2_1_">
	<g>
		<path fill="#FFFFFF" d="M126.838,306.038h137.215c11.809,0,21.384-9.575,21.384-21.386V179.515
			c0-11.81-9.575-21.385-21.384-21.385H126.838c-11.81,0-21.385,9.575-21.385,21.385v105.137
			C105.453,296.463,115.028,306.038,126.838,306.038z"/>
		<path fill="#FFFFFF" d="M452.954,158.131H315.739c-11.811,0-21.386,9.575-21.386,21.385v105.137
			c0,11.811,9.575,21.386,21.386,21.386h137.215c11.81,0,21.385-9.575,21.385-21.386V179.515
			C474.339,167.706,464.763,158.131,452.954,158.131z"/>
		<rect x="105.453" y="312.052" fill="#FFFFFF" width="368.886" height="74.402"/>
		<rect x="105.453" y="391.796" fill="#FFFFFF" width="368.886" height="30.073"/>
		<path fill="#FFFFFF" d="M80.497,269.503H54.434c-5.91,0-10.692,4.787-10.692,10.692v130.98c0,5.91,4.782,10.693,10.692,10.693
			h26.063c5.91,0,10.692-4.783,10.692-10.693v-130.98C91.189,274.29,86.407,269.503,80.497,269.503z"/>
		<path fill="#FFFFFF" d="M525.565,269.503h-26.062c-5.911,0-10.692,4.787-10.692,10.692v130.98c0,5.91,4.781,10.693,10.692,10.693
			h26.062c5.911,0,10.692-4.783,10.692-10.693v-130.98C536.258,274.29,531.476,269.503,525.565,269.503z"/>
	</g>
</g>
</svg>
