<?xml version="1.0" encoding="UTF-8" standalone="no"?>
<!-- Generator: Adobe Illustrator 15.0.0, SVG Export Plug-In . SVG Version: 6.00 Build 0)  -->

<svg
   xmlns:dc="http://purl.org/dc/elements/1.1/"
   xmlns:cc="http://creativecommons.org/ns#"
   xmlns:rdf="http://www.w3.org/1999/02/22-rdf-syntax-ns#"
   xmlns:svg="http://www.w3.org/2000/svg"
   xmlns="http://www.w3.org/2000/svg"
   xmlns:sodipodi="http://sodipodi.sourceforge.net/DTD/sodipodi-0.dtd"
   xmlns:inkscape="http://www.inkscape.org/namespaces/inkscape"
   version="1.1"
   x="0px"
   y="0px"
   width="580px"
   height="580px"
   viewBox="0 0 580 580"
   enable-background="new 0 0 580 580"
   xml:space="preserve"
   id="svg1961"
   sodipodi:docname="games.svg"
   inkscape:version="0.92.3 (2405546, 2018-03-11)"><metadata
   id="metadata1967"><rdf:RDF><cc:Work
       rdf:about=""><dc:format>image/svg+xml</dc:format><dc:type
         rdf:resource="http://purl.org/dc/dcmitype/StillImage" /></cc:Work></rdf:RDF></metadata><defs
   id="defs1965">
	
	
	
	
</defs><sodipodi:namedview
   pagecolor="#ffffff"
   bordercolor="#666666"
   borderopacity="1"
   objecttolerance="10"
   gridtolerance="10"
   guidetolerance="10"
   inkscape:pageopacity="0"
   inkscape:pageshadow="2"
   inkscape:window-width="1289"
   inkscape:window-height="868"
   id="namedview1963"
   showgrid="false"
   inkscape:zoom="0.81454783"
   inkscape:cx="290"
   inkscape:cy="290"
   inkscape:window-x="360"
   inkscape:window-y="42"
   inkscape:window-maximized="0"
   inkscape:current-layer="svg1961" />
<g
   id="Layer_2">
	<g
   id="g1327">
		<path
   id="path1329"
   fill="#111111"
   stroke="#EEEEEE"
   stroke-width="3.408"
   d="M66.275,1.768    c-41.335,0-64.571,21.371-64.571,65.036v450.123c0,40.844,20.894,62.229,62.192,62.229H515.92    c41.307,0,62.229-20.316,62.229-62.229V66.804c0-42.601-20.923-65.036-63.522-65.036C514.624,1.768,66.133,1.625,66.275,1.768z" />
	</g>
</g>
<g
   id="g1950"
   transform="matrix(1.1124155,0,0,1.1124155,-79.835251,198.68915)">
		
			<rect
   style="fill:#ffffff"
   id="rect1900"
   height="27.801001"
   width="26.499001"
   transform="matrix(-0.983,-0.1838,0.1838,-0.983,584.275,337.3397)"
   y="127.694"
   x="294.51999" />
		
			<rect
   style="fill:#ffffff"
   id="rect1902"
   height="27.799999"
   width="26.499001"
   transform="matrix(-0.983,-0.1838,0.1838,-0.983,622.2126,204.0267)"
   y="59.279999"
   x="307.311" />
		
			<rect
   style="fill:#ffffff"
   id="rect1904"
   height="27.799999"
   width="26.499001"
   transform="matrix(-0.983,-0.1838,0.1838,-0.983,603.2439,270.6827)"
   y="93.487"
   x="300.91599" />
		
			<rect
   style="fill:#ffffff"
   id="rect1906"
   height="27.799999"
   width="26.5"
   transform="matrix(-0.983,-0.1838,0.1838,-0.983,565.3065,403.9957)"
   y="161.90199"
   x="288.12399" />
		
			<rect
   style="fill:#ffffff"
   id="rect1908"
   height="27.799999"
   width="26.5"
   transform="matrix(-0.983,-0.1838,0.1838,-0.983,546.3378,470.6518)"
   y="196.10899"
   x="281.729" />
		
			<rect
   style="fill:#ffffff"
   id="rect1910"
   height="25.914"
   width="27.799999"
   transform="matrix(-0.983,-0.1838,0.1838,-0.983,659.9519,573.0836)"
   y="243.004"
   x="342.63199" />
		
			<rect
   style="fill:#ffffff"
   id="rect1912"
   height="25.914"
   width="27.799999"
   transform="matrix(-0.983,-0.1838,0.1838,-0.983,593.2958,554.1152)"
   y="236.608"
   x="308.42499" />
		
			<rect
   style="fill:#ffffff"
   id="rect1914"
   height="25.914"
   width="26.5"
   transform="matrix(-0.983,-0.1838,0.1838,-0.983,527.8832,535.502)"
   y="230.332"
   x="275.50699" />
		
			<rect
   style="fill:#ffffff"
   id="rect1916"
   height="27.086"
   width="26.499001"
   transform="matrix(-0.983,-0.1838,0.1838,-0.983,640.9872,138.0544)"
   y="25.780001"
   x="313.642" />
		
			<rect
   style="fill:#ffffff"
   id="rect1918"
   height="25.914"
   width="27.801001"
   transform="matrix(-0.983,-0.1838,0.1838,-0.983,726.6053,592.0563)"
   y="249.399"
   x="376.83899" />
		
			<rect
   style="fill:#ffffff"
   id="rect1920"
   height="26.499001"
   width="27.086"
   transform="matrix(0.1838,-0.983,0.983,0.1838,357.1627,585.0391)"
   y="64.208"
   x="517.31403" />
		
			<rect
   style="fill:#ffffff"
   id="rect1922"
   height="27.086"
   width="27.801001"
   transform="matrix(-0.983,-0.1838,0.1838,-0.983,973.0261,232.5372)"
   y="57.639"
   x="483.388" />
		
			<rect
   style="fill:#ffffff"
   id="rect1924"
   height="27.086"
   width="27.801001"
   transform="matrix(0.983,0.1838,-0.1838,0.983,18.0367,-77.8263)"
   y="44.847"
   x="414.97299" />
		
			<rect
   style="fill:#ffffff"
   id="rect1926"
   height="27.086"
   width="27.799999"
   transform="matrix(0.983,0.1838,-0.1838,0.983,14.5212,-65.4728)"
   y="32.056"
   x="346.55899" />
		
			<rect
   style="fill:#ffffff"
   id="rect1928"
   height="27.086"
   width="27.799999"
   transform="matrix(0.983,0.1838,-0.1838,0.983,16.2794,-71.6508)"
   y="38.452"
   x="380.76599" />
		
			<rect
   style="fill:#ffffff"
   id="rect1930"
   height="27.086"
   width="27.799999"
   transform="matrix(0.983,0.1838,-0.1838,0.983,19.7932,-83.9994)"
   y="51.243"
   x="449.181" />
		
			<rect
   style="fill:#ffffff"
   id="rect1932"
   height="27.801001"
   width="26.5"
   transform="matrix(-0.983,-0.1838,0.1838,-0.983,981.7249,450.4409)"
   y="165.828"
   x="498.48499" />
		
			<rect
   style="fill:#ffffff"
   id="rect1934"
   height="25.914"
   width="27.799999"
   transform="matrix(-0.983,-0.1838,0.1838,-0.983,859.916,629.9967)"
   y="262.19"
   x="445.254" />
		
			<rect
   style="fill:#ffffff"
   id="rect1936"
   height="27.799999"
   width="26.5"
   transform="matrix(-0.983,-0.1838,0.1838,-0.983,962.7563,517.098)"
   y="200.036"
   x="492.09" />
		
			<rect
   style="fill:#ffffff"
   id="rect1938"
   height="27.799999"
   width="26.5"
   transform="matrix(-0.983,-0.1838,0.1838,-0.983,943.7877,583.7542)"
   y="234.243"
   x="485.694" />
		
			<rect
   style="fill:#ffffff"
   id="rect1940"
   height="27.799999"
   width="26.499001"
   transform="matrix(-0.983,-0.1838,0.1838,-0.983,1019.6616,317.1313)"
   y="97.414001"
   x="511.27701" />
		
			<rect
   style="fill:#ffffff"
   id="rect1942"
   height="25.914"
   width="27.799999"
   transform="matrix(-0.983,-0.1838,0.1838,-0.983,793.2601,611.0276)"
   y="255.795"
   x="411.047" />
		
			<rect
   style="fill:#ffffff"
   id="rect1944"
   height="27.799999"
   width="26.499001"
   transform="matrix(-0.983,-0.1838,0.1838,-0.983,1000.6929,383.7873)"
   y="131.621"
   x="504.88199" />
		
			<rect
   style="fill:#ffffff"
   id="rect1946"
   height="25.915001"
   width="26.5"
   transform="matrix(-0.983,-0.1838,0.1838,-0.983,925.3199,648.62)"
   y="268.466"
   x="479.47198" />
		<polygon
   style="fill:#ffffff"
   id="polygon1948"
   points="370.347,68.347 343.021,63.238 337.911,90.564 336.625,97.445 331.516,124.771 330.229,131.652 325.12,158.979 323.834,165.86 318.725,193.187 317.438,200.067 312.329,227.394 339.655,232.502 346.536,233.789 373.862,238.898 380.743,240.185 408.07,245.294 414.951,246.58 442.277,251.689 449.158,252.976 476.484,258.085 481.594,230.758 482.88,223.878 487.989,196.551 489.275,189.671 494.385,162.343 495.672,155.462 500.78,128.136 502.067,121.255 507.176,93.929 479.85,88.82 472.969,87.534 445.643,82.425 438.762,81.138 411.435,76.029 404.554,74.743 377.228,69.633 " />
	</g><g
   id="g1958"
   transform="matrix(1.2702994,0,0,1.2702994,-23.360988,10.283657)">
		<path
   style="fill:#ffffff"
   inkscape:connector-curvature="0"
   id="path1952"
   d="m 115.172,147.684 v -98.67 l -42.3,16.458 c -3.723,1.449 -5.568,5.643 -4.119,9.366 l 36.726,94.389 c 1.113,2.861 3.847,4.613 6.744,4.613 0.872,0 1.759,-0.159 2.621,-0.494 l 31.866,-12.399 h -18.274 c -7.314,0 -13.264,-5.95 -13.264,-13.263 z" />
		<path
   style="fill:#ffffff"
   inkscape:connector-curvature="0"
   id="path1954"
   d="m 128.435,154.918 h 14.353 l -2.524,-1.21 c -6.595,-3.162 -9.387,-11.099 -6.225,-17.694 l 20.429,-42.606 1.786,-3.725 1.786,-3.723 19.79,-41.272 c 1.108,-2.312 2.857,-4.208 4.97,-5.521 h -46.485 -7.878 c -2.815,0 -5.249,1.611 -6.444,3.959 -0.501,0.983 -0.79,2.095 -0.79,3.275 v 0.267 101.016 c -0.002,3.995 3.237,7.234 7.232,7.234 z" />
		<path
   style="fill:#ffffff"
   inkscape:connector-curvature="0"
   id="path1956"
   d="m 245.827,69.269 -45.449,-21.792 -3.034,-1.455 -3.268,-1.566 -1.161,-0.557 c -1.008,-0.483 -2.073,-0.712 -3.122,-0.712 -2.697,0 -5.285,1.515 -6.529,4.108 l -22.231,46.363 -1.785,3.723 -1.786,3.725 -17.988,37.515 c -1.728,3.604 -0.207,7.925 3.395,9.652 l 13.861,6.646 2.452,1.176 3.725,1.786 0.11,0.053 3.613,1.732 2.674,1.282 26.477,12.695 c 1.008,0.483 2.073,0.712 3.122,0.712 2.697,0 5.285,-1.514 6.529,-4.108 l 43.79,-91.326 c 1.728,-3.604 0.207,-7.925 -3.395,-9.652 z" />
	</g>
</svg>