<?xml version="1.0" encoding="utf-8"?>
<!-- Generator: Adobe Illustrator 15.0.0, SVG Export Plug-In . SVG Version: 6.00 Build 0)  -->
<!DOCTYPE svg PUBLIC "-//W3C//DTD SVG 1.1//EN" "http://www.w3.org/Graphics/SVG/1.1/DTD/svg11.dtd">
<svg version="1.1" xmlns="http://www.w3.org/2000/svg" xmlns:xlink="http://www.w3.org/1999/xlink" x="0px" y="0px" width="580px"
	 height="580px" viewBox="0 0 580 580" enable-background="new 0 0 580 580" xml:space="preserve">
<g id="Layer_1">
	<g id="Layer_2">
		<g id="g1327">
			<path id="path1329" fill="#111111" stroke="#EEEEEE" stroke-width="3.408" d="M66.275,1.768
				c-41.335,0-64.571,21.371-64.571,65.036v450.123c0,40.844,20.895,62.229,62.192,62.229h452.024
				c41.307,0,62.229-20.315,62.229-62.229V66.804c0-42.602-20.923-65.036-63.521-65.036C514.625,1.768,66.133,1.625,66.275,1.768z"
				/>
		</g>
	</g>
</g>
<g id="Layer_2_1_">
	<g>
		<path fill="#FFFFFF" d="M290,493.34c0,0,139.29,12.144,139.29-83.216V215.117c0-32.983-21.604-60.912-51.431-70.432V96.148
			c8.542-0.376,15.358-7.4,15.358-16.036V58.683c0-8.876-7.196-16.072-16.071-16.072H202.854c-8.876,0-16.072,7.196-16.072,16.072
			v21.429c0,8.635,6.816,15.66,15.358,16.036v48.537c-29.826,9.521-51.43,37.449-51.43,70.432v195.006
			C150.71,502.626,290,493.34,290,493.34z M298.571,129.042v-16.784h7.501c2.366,0,4.285-1.919,4.285-4.286
			c0-2.367-1.919-4.286-4.285-4.286h-7.501v-7.501h38.811l-15.238,32.857H298.571z M278.749,107.971h-4.287
			c-2.662,0-4.821,2.159-4.821,4.821c0,2.663,2.159,4.82,4.821,4.82h4.287v11.429h-20.18l-14.286-32.857h34.465V107.971z"/>
		<path fill="#FFFFFF" d="M418.931,459.767c0,0-4.822,42.144-136.432,42.144c-97.86,0-126.432-42.144-126.432-42.144
			c-21.429,31.429-6.429,52.858-6.429,52.858c152.862,55.716,276.082,0,276.082,0C451.081,496.911,418.931,459.767,418.931,459.767z
			"/>
	</g>
</g>
</svg>
