<?xml version="1.0" encoding="utf-8"?>
<!-- Generator: Adobe Illustrator 15.0.0, SVG Export Plug-In . SVG Version: 6.00 Build 0)  -->
<!DOCTYPE svg PUBLIC "-//W3C//DTD SVG 1.1//EN" "http://www.w3.org/Graphics/SVG/1.1/DTD/svg11.dtd">
<svg version="1.1" xmlns="http://www.w3.org/2000/svg" xmlns:xlink="http://www.w3.org/1999/xlink" x="0px" y="0px" width="580px"
	 height="580px" viewBox="0 0 580 580" enable-background="new 0 0 580 580" xml:space="preserve">
<g id="Layer_1">
	<g id="Layer_2">
		<g id="g1327">
			<path id="path1329" fill="#111111" stroke="#EEEEEE" stroke-width="3.408" d="M66.275,1.768
				c-41.335,0-64.571,21.371-64.571,65.036v450.123c0,40.844,20.895,62.229,62.192,62.229h452.024
				c41.307,0,62.229-20.315,62.229-62.229V66.804c0-42.602-20.923-65.036-63.521-65.036C514.625,1.768,66.133,1.625,66.275,1.768z"
				/>
		</g>
	</g>
</g>
<g id="Layer_2_1_">
	<path fill="#FFFFFF" d="M384.342,348c58.471-114.582,11.699-255.636,11.699-255.636
		c-146.028,63.553-161.932,189.78-153.117,276.063c-42.075-65.86-133.271-79.538-133.271-79.538
		c-2.857,48.594,12.848,82.999,35.195,107.292c-52.274,3.969-95.133,29.67-95.133,29.67
		c75.858,103.92,188.725,48.899,216.697,32.902c156.113,74.085,263.873-98.837,263.873-98.837
		C473.611,331.342,424.517,333.135,384.342,348z"/>
	<path fill="none" stroke="#000000" stroke-width="5" stroke-linecap="round" stroke-miterlimit="10" d="M375.5,127.5
		c0,0-90.146,174-85.573,281"/>
	<path fill="none" stroke="#000000" stroke-width="5" stroke-linecap="round" stroke-miterlimit="10" d="M481.5,372.5
		c0,0-115,56-180,58"/>
	<path fill="none" stroke="#000000" stroke-width="5" stroke-linecap="round" stroke-miterlimit="10" d="M134.5,322.5
		c0,0,64,86,109,97"/>
	<path fill="none" stroke="#000000" stroke-width="5" stroke-linecap="round" stroke-miterlimit="10" d="M85.5,436.5
		c0,0,78,16,158,0"/>
</g>
</svg>
