<?xml version="1.0" encoding="utf-8"?>
<!-- Generator: Adobe Illustrator 15.0.0, SVG Export Plug-In . SVG Version: 6.00 Build 0)  -->
<!DOCTYPE svg PUBLIC "-//W3C//DTD SVG 1.1//EN" "http://www.w3.org/Graphics/SVG/1.1/DTD/svg11.dtd">
<svg version="1.1" xmlns="http://www.w3.org/2000/svg" xmlns:xlink="http://www.w3.org/1999/xlink" x="0px" y="0px" width="580px"
	 height="580px" viewBox="0 0 580 580" enable-background="new 0 0 580 580" xml:space="preserve">
<g id="Layer_1">
	<g id="Layer_2">
		<g id="g1327">
			<path id="path1329" fill="#111111" stroke="#EEEEEE" stroke-width="3.408" d="M66.275,1.768
				c-41.335,0-64.571,21.371-64.571,65.036v450.123c0,40.844,20.895,62.229,62.192,62.229h452.024
				c41.307,0,62.229-20.315,62.229-62.229V66.804c0-42.602-20.923-65.036-63.521-65.036C514.625,1.768,66.133,1.625,66.275,1.768z"
				/>
		</g>
	</g>
</g>
<g id="Layer_2_1_">
	<g>
		<g>
			<path fill="#FFFFFF" d="M263.509,369.183c0,4.824-3.91,8.732-8.732,8.732H54.732c-4.822,0-8.732-3.908-8.732-8.732V249.316
				c0-4.823,3.91-8.732,8.732-8.732h200.044c4.823,0,8.732,3.909,8.732,8.732V369.183z"/>
			<g>
				<path fill="#FFFFFF" d="M95.614,386.648c0,2.193-1.777,3.969-3.969,3.969H71.799c-2.192,0-3.969-1.775-3.969-3.969l0,0
					c0-2.191,1.777-3.969,3.969-3.969h19.846C93.837,382.679,95.614,384.457,95.614,386.648L95.614,386.648z"/>
				<path fill="#FFFFFF" d="M241.678,386.648c0,2.193-1.777,3.969-3.969,3.969h-20.64c-2.192,0-3.969-1.775-3.969-3.969l0,0
					c0-2.191,1.777-3.969,3.969-3.969h20.64C239.902,382.679,241.678,384.457,241.678,386.648L241.678,386.648z"/>
			</g>
			<path fill="#FFFFFF" d="M288.602,308.326c-0.753,1.584-2.648,2.258-4.232,1.504l-29.389-13.984
				c-1.583-0.754-2.256-2.65-1.503-4.232l0,0c0.753-1.584,2.648-2.257,4.232-1.503l29.389,13.985
				C288.683,304.849,289.356,306.744,288.602,308.326L288.602,308.326z"/>
			<path opacity="0.5" fill="#FFFFFF" d="M196.033,233.043v-34.928c0-4.823-3.909-8.732-8.732-8.732h-65.094
				c-4.823,0-8.732,3.91-8.732,8.732v34.928H196.033z"/>
		</g>
		<g>
			<path fill="#FFFFFF" d="M489.809,329.334c-2.468-14.646-16.638-26.631-31.491-26.631h-85.719
				c-14.854,0-29.024,11.984-31.492,26.631l-21.516,127.752c-2.468,14.648,7.667,26.631,22.521,26.631h146.692
				c14.854,0,24.988-11.982,22.521-26.631L489.809,329.334z"/>
			<path fill="#FFFFFF" d="M528.777,148.864c-2.901-4.326-7.314-7.262-12.425-8.27l-5.314-1.047l0.287-1.709
				c2.468-14.647-7.667-26.631-22.521-26.631h-44.796c0.824-1.454,1.301-3.131,1.301-4.922c0-5.524-4.479-10.003-10.004-10.003
				h-41.919c-5.524,0-10.004,4.479-10.004,10.003c0,1.791,0.477,3.468,1.301,4.922h-20.354h-22.217h-35.898
				c-5.788,0-10.479,4.692-10.479,10.479v9.846c0,7.146,12.604,16.567,27.006,25.001l18.367,109.058
				c2.468,14.646,16.639,26.63,31.492,26.63h85.719c14.854,0,29.023-11.984,31.491-26.63l3.711-22.037l2.45,0.483
				c1.246,0.246,2.52,0.37,3.783,0.37c9.283,0,17.324-6.617,19.119-15.733l12.843-65.178
				C532.723,158.387,531.679,153.19,528.777,148.864z M517.695,160.735l-12.844,65.179c-0.545,2.769-3.289,4.657-6.119,4.104
				l-2.837-0.559l12.769-75.813l4.925,0.97C516.408,155.171,518.25,157.916,517.695,160.735z"/>
		</g>
	</g>
</g>
</svg>
