<?xml version="1.0" encoding="utf-8"?>
<!-- Generator: Adobe Illustrator 15.0.0, SVG Export Plug-In . SVG Version: 6.00 Build 0)  -->
<!DOCTYPE svg PUBLIC "-//W3C//DTD SVG 1.1//EN" "http://www.w3.org/Graphics/SVG/1.1/DTD/svg11.dtd">
<svg version="1.1" xmlns="http://www.w3.org/2000/svg" xmlns:xlink="http://www.w3.org/1999/xlink" x="0px" y="0px" width="580px"
	 height="580px" viewBox="0 0 580 580" enable-background="new 0 0 580 580" xml:space="preserve">
<g id="Layer_1">
	<g id="Layer_2">
		<g id="g1327">
			<path id="path1329" fill="#111111" stroke="#EEEEEE" stroke-width="3.408" d="M66.275,1.768
				c-41.335,0-64.571,21.371-64.571,65.036v450.123c0,40.844,20.895,62.229,62.192,62.229h452.024
				c41.307,0,62.229-20.315,62.229-62.229V66.804c0-42.602-20.923-65.036-63.521-65.036C514.625,1.768,66.133,1.625,66.275,1.768z"
				/>
		</g>
	</g>
</g>
<g id="Layer_2_1_">
	<g>
		<path fill="#FFFFFF" d="M280.497,133.127l-2.463-6.908l1.884-0.672l21.349-7.614l-8.51-23.861l-18.033,14.925l-106.749,38.071
			l5.823,16.326l39.791-14.191l-11.499,26.043c0,0-5.119,17.396-14.942,21.608c0,0-14.847,6.003-22.062-6.288L60.222,227.966
			l24.41,68.444l107.208-66.547l7.039,3.86l17.582-6.271l9.532-32.721c4.699,3.943,12.012,5.219,19.047,2.709
			c9.868-3.519,15.485-13.143,12.521-21.453c-1.127-3.159-3.337-5.675-6.182-7.393l122.308-46.055l2.292-11.435l143.797-51.284
			l-3.807-10.674L280.497,133.127z M253.795,177.331c2.223,6.232-2.307,13.563-10.098,16.341
			c-6.404,2.285-13.043,0.785-16.439-3.282l4.16-14.28l14.636-5.511C249.692,171.637,252.601,173.985,253.795,177.331z"/>
		<g>
			<path fill="#FFFFFF" d="M390.813,503.605l103.669-57.83l-0.246-0.442c8.65-8.39,8.069-27.707-2.014-45.784
				c-10.086-18.079-26.218-28.721-37.9-25.767l-0.248-0.443l-91.776,51.198l-6.54-18.135l-90.378,50.417l37.071,66.454
				L390.813,503.605z"/>
			<path fill="#FFFFFF" d="M284.76,508.744l-17.424-31.233c-2.457-4.404-8.02-5.982-12.423-3.526l-15.285,8.526
				c-4.404,2.456-5.982,8.019-3.525,12.424l17.423,31.232c2.457,4.404,8.021,5.984,12.424,3.527l15.285-8.527
				C285.639,518.711,287.217,513.148,284.76,508.744z"/>
			<path fill="#FFFFFF" d="M217.927,371.756l37.071,66.454l90.378-50.417l-11.995-15.091l91.777-51.198l-0.247-0.442
				c8.65-8.39,8.07-27.706-2.015-45.784c-10.085-18.079-26.216-28.721-37.899-25.766l-0.247-0.443l-103.669,57.832L217.927,371.756z
				"/>
			<path fill="#FFFFFF" d="M238.421,425.676l-17.423-31.234c-2.457-4.402-8.02-5.981-12.424-3.525l-15.284,8.526
				c-4.404,2.458-5.982,8.02-3.526,12.424l17.423,31.232c2.458,4.405,8.021,5.983,12.424,3.527l15.285-8.526
				C239.299,435.643,240.878,430.08,238.421,425.676z"/>
		</g>
	</g>
</g>
</svg>
