<?xml version="1.0" encoding="utf-8"?>
<!-- Generator: Adobe Illustrator 15.0.0, SVG Export Plug-In . SVG Version: 6.00 Build 0)  -->
<!DOCTYPE svg PUBLIC "-//W3C//DTD SVG 1.1//EN" "http://www.w3.org/Graphics/SVG/1.1/DTD/svg11.dtd">
<svg version="1.1" xmlns="http://www.w3.org/2000/svg" xmlns:xlink="http://www.w3.org/1999/xlink" x="0px" y="0px" width="580px"
	 height="580px" viewBox="0 0 580 580" enable-background="new 0 0 580 580" xml:space="preserve">
<g id="Layer_1">
	<g id="Layer_2">
		<g id="g1327">
			<path id="path1329" fill="#111111" stroke="#EEEEEE" stroke-width="3.408" d="M66.275,1.768
				c-41.335,0-64.571,21.371-64.571,65.036v450.123c0,40.844,20.895,62.229,62.192,62.229h452.024
				c41.307,0,62.229-20.315,62.229-62.229V66.804c0-42.602-20.923-65.036-63.521-65.036C514.625,1.768,66.133,1.625,66.275,1.768z"
				/>
		</g>
	</g>
</g>
<g id="Layer_2_1_">
	<g>
		<path fill="#FFFFFF" d="M507.317,377.033h-69.712v-19.108c0-9.337-7.596-16.932-16.933-16.932h-45.332
			c-9.337,0-16.933,7.595-16.933,16.932v19.108h-69.711c-6.033,0-10.924,4.892-10.924,10.925v132.174
			c0,6.033,4.891,10.924,10.924,10.924h218.62c6.033,0,10.924-4.891,10.924-10.924V387.958
			C518.241,381.925,513.35,377.033,507.317,377.033z M370.425,357.925c0-2.711,2.205-4.916,4.916-4.916h45.332
			c2.711,0,4.916,2.205,4.916,4.916v19.108h-55.164V357.925z M454.536,467.153h-43.42v43.421h-26.219v-43.421h-43.42v-26.217h43.42
			v-43.422h26.219v43.422h43.42V467.153z"/>
		<path fill="#FFFFFF" d="M516.157,110.004l-26.852-26.852l-5.274-5.274l-26.85-26.85c-2.779-2.778-7.287-2.781-10.069,0
			c-2.779,2.781-2.779,7.29,0,10.069l18.699,18.699L452.67,92.938l-2.996-2.996c-4.503-4.501-11.801-4.504-16.302,0l-18.742,18.741
			l19.238,19.239l-3.357,3.358l-19.238-19.24l-7.147,7.146l11.148,11.148l-1.438,1.438l-11.148-11.148l-6.711,6.712l11.147,11.148
			l-1.438,1.438l-11.149-11.148l-6.998,7l19.237,19.238l-3.355,3.357l-19.238-19.239l-7.146,7.145l11.147,11.148l-1.438,1.438
			l-11.149-11.148l-6.712,6.714l11.149,11.146l-1.439,1.438l-11.147-11.146l-7,6.999l19.238,19.239l-3.355,3.356l-19.237-19.238
			l-7.148,7.146l11.149,11.147l-1.439,1.439l-11.147-11.148l-6.712,6.712l11.146,11.148l-1.438,1.438l-11.146-11.148l-7,7
			l19.239,19.238l-3.358,3.356l-19.238-19.238l-7.145,7.146l11.148,11.148l-1.438,1.438l-11.148-11.148l-6.714,6.712l11.148,11.148
			l-1.438,1.438l-11.147-11.148l-10.306,10.307c-4.503,4.5-4.503,11.801,0,16.302l11.472,11.473L187.657,381.325l131.59-128.377
			l11.28,11.28c4.502,4.5,11.801,4.5,16.302,0l130.414-130.414c4.502-4.503,4.502-11.802,0-16.303l-2.996-2.996l13.141-13.142
			l18.7,18.699c2.777,2.78,7.288,2.78,10.069,0C518.936,117.29,518.935,112.782,516.157,110.004z"/>
		<path fill="#FFFFFF" d="M105.666,67.626H90.208c-15.713,0-28.45,12.737-28.45,28.45v281.245c0,15.193,11.91,27.604,26.903,28.407
			v44.101c0,5.124,4.153,9.277,9.277,9.277s9.277-4.153,9.277-9.277v-44.101c14.993-0.805,26.902-13.214,26.902-28.407V96.076
			C134.116,80.363,121.38,67.626,105.666,67.626z M103.677,447.274c0,3.176-2.574,5.75-5.75,5.75s-5.75-2.574-5.75-5.75v-24.25h11.5
			V447.274z M105.968,114.3H86.795v18.966h19.173v3.711H86.795v18.966h19.173v3.711H86.795v18.966h19.173v3.711H86.795v18.966
			h19.173v3.711H86.795v18.966h19.173v3.711H86.795v18.967h19.173v3.711H86.795v18.966h19.173v3.711H86.795v18.966h19.173v3.711
			H86.795v18.966h19.173v3.711H86.795v18.967h19.173v3.711H86.795v18.966h19.173v3.711H86.795v7.222H80.61V102.548h6.185v8.041
			h19.173V114.3z"/>
	</g>
</g>
</svg>
