<?xml version="1.0" encoding="utf-8"?>
<!-- Generator: Adobe Illustrator 15.0.0, SVG Export Plug-In . SVG Version: 6.00 Build 0)  -->
<!DOCTYPE svg PUBLIC "-//W3C//DTD SVG 1.1//EN" "http://www.w3.org/Graphics/SVG/1.1/DTD/svg11.dtd">
<svg version="1.1" xmlns="http://www.w3.org/2000/svg" xmlns:xlink="http://www.w3.org/1999/xlink" x="0px" y="0px" width="580px"
	 height="580px" viewBox="0 0 580 580" enable-background="new 0 0 580 580" xml:space="preserve">
<g id="Layer_1">
	<g id="Layer_2">
		<g id="g1327">
			<path id="path1329" fill="#111111" stroke="#EEEEEE" stroke-width="3.408" d="M66.275,1.768
				c-41.335,0-64.571,21.371-64.571,65.036v450.123c0,40.844,20.895,62.229,62.192,62.229h452.024
				c41.307,0,62.229-20.315,62.229-62.229V66.804c0-42.602-20.923-65.036-63.521-65.036C514.625,1.768,66.133,1.625,66.275,1.768z"
				/>
		</g>
	</g>
</g>
<g id="Layer_2_1_">
	<path fill="#FFFFFF" d="M476.713,354.621V78.417c0.055-5.986-2.342-11.838-6.58-16.062c-4.164-4.152-9.928-6.533-15.813-6.533
		l-0.343,0.002c-5.878,0.093-11.601,2.563-15.701,6.779c-0.054,0.056-0.1,0.118-0.152,0.174l-203.461,80.647
		c-5.014,0.631-9.764,2.961-13.304,6.601c-4.083,4.2-6.39,9.961-6.334,15.817v218.94c-11.144-6.429-23.821-9.844-37.105-9.844
		c-41.156,0-74.639,33.465-74.639,74.6c0,41.156,33.483,74.639,74.639,74.639c19.015,0,37.475-6.18,51.978-17.4
		c16.246-12.568,26.372-30.369,29.29-51.48c0.265-1.501,0.346-3.154,0.438-5.003c0.14-2.854,0.202-5.855,0.172-8.251V176.491
		l172.145-68.235v189.104c-11.144-6.429-23.819-9.843-37.104-9.843c-41.156,0-74.639,33.466-74.639,74.601
		c0,41.156,33.482,74.639,74.639,74.639c19.015,0,37.475-6.18,51.979-17.401c16.245-12.568,26.371-30.368,29.289-51.48
		c0.265-1.501,0.346-3.154,0.438-5.003C476.68,360.017,476.743,357.016,476.713,354.621z"/>
</g>
</svg>
