<?xml version="1.0" encoding="utf-8"?>
<!-- Generator: Adobe Illustrator 15.0.0, SVG Export Plug-In . SVG Version: 6.00 Build 0)  -->
<!DOCTYPE svg PUBLIC "-//W3C//DTD SVG 1.1//EN" "http://www.w3.org/Graphics/SVG/1.1/DTD/svg11.dtd">
<svg version="1.1" xmlns="http://www.w3.org/2000/svg" xmlns:xlink="http://www.w3.org/1999/xlink" x="0px" y="0px" width="580px"
	 height="580px" viewBox="0 0 580 580" enable-background="new 0 0 580 580" xml:space="preserve">
<g id="Layer_2">
	<g id="g1327">
		<path id="path1329" fill="#111111" stroke="#EEEEEE" stroke-width="3.408" d="M66.275,1.768
			c-41.335,0-64.571,21.371-64.571,65.036v450.123c0,40.844,20.895,62.229,62.192,62.229H515.92
			c41.307,0,62.229-20.315,62.229-62.229V66.804c0-42.601-20.923-65.036-63.521-65.036C514.624,1.768,66.133,1.625,66.275,1.768z"/>
	</g>
</g>
<g id="svg2" sodipodi:version="0.32" inkscape:version="0.46" sodipodi:docbase="s:\Data\FacilityIcons" sodipodi:docname="amenity_atm.svg" inkscape:output_extension="org.inkscape.output.svg.inkscape" xmlns:cc="http://creativecommons.org/ns#" xmlns:dc="http://purl.org/dc/elements/1.1/" xmlns:inkscape="http://www.inkscape.org/namespaces/inkscape" xmlns:sodipodi="http://sodipodi.sourceforge.net/DTD/sodipodi-0.dtd" xmlns:svg="http://www.w3.org/2000/svg" xmlns:rdf="http://www.w3.org/1999/02/22-rdf-syntax-ns#" display="none">
	
		<sodipodi:namedview  id="base" bordercolor="#666666" pagecolor="#ffffff" inkscape:zoom="1.3034483" inkscape:cx="285.84646" inkscape:cy="302.63451" showgrid="false" guidetolerance="10.0" gridtolerance="10.0" objecttolerance="10.0" borderopacity="1.0" inkscape:window-height="1005" inkscape:pageshadow="2" inkscape:pageopacity="0.0" inkscape:window-width="1280" inkscape:window-x="0" inkscape:window-y="0" inkscape:current-layer="svg2">
		</sodipodi:namedview>
	<defs  display="inline">
		
		
			<inkscape:perspective  id="perspective2441" sodipodi:type="inkscape:persp3d" inkscape:vp_x="0 : 290 : 1" inkscape:vp_y="0 : 1000 : 0" inkscape:vp_z="580 : 290 : 1" inkscape:persp3d-origin="290 : 193.33333 : 1">
			</inkscape:perspective>
	</defs>
	
		<path id="rect3241" sodipodi:nodetypes="ccccccccc" display="inline" opacity="0.75" fill="#FFFFFF" stroke="#FFFFFF" stroke-width="35.845" stroke-linecap="round" stroke-linejoin="round" enable-background="new    " d="
		M103.979,82.413v62.924h112.403c7.778-20.622,12.715-34.171,13.042-36.067l190.991-1.647l14.588,37.714h69.613V82.413H103.979z"/>
	
		<path id="path2443" sodipodi:nodetypes="ccccccc" display="inline" fill="none" stroke="#FFFFFF" stroke-width="20" stroke-linejoin="round" d="
		M227.906,158.094l-40.375,0.375c-1.603,9.296-122.313,358.625-122.313,358.625l403.813-3.406l-15.594-40.313l-333.094,2.844
		C120.344,476.219,195.438,243.832,227.906,158.094z"/>
	
		<path id="path3243" sodipodi:nodetypes="ccccc" display="inline" fill="none" stroke="#FFFFFF" stroke-width="20" stroke-linejoin="round" d="
		M242.694,117.588c-1.603,9.296-122.338,358.618-122.338,358.618l403.838-3.412L401.652,116.069L242.694,117.588z"/>
	
		<path id="path3163" sodipodi:nodetypes="ccccc" display="inline" opacity="0.1" fill="#FFFFFF" stroke="#FFFFFF" stroke-width="20" stroke-linecap="round" stroke-linejoin="round" enable-background="new    " d="
		M242.694,117.588c-1.603,9.296-122.338,358.618-122.338,358.618l403.838-3.412L401.652,116.069L242.694,117.588z"/>
	
		<path id="path3165" sodipodi:nodetypes="ccccccc" display="inline" opacity="0.1" fill="#FFFFFF" stroke="#FFFFFF" stroke-width="20" stroke-linecap="round" stroke-linejoin="round" enable-background="new    " d="
		M227.906,158.094l-40.375,0.375c-1.603,9.296-122.313,358.625-122.313,358.625l403.813-3.406l-15.594-40.313l-333.094,2.844
		C120.344,476.219,195.438,243.832,227.906,158.094z"/>
	<g id="g4372" transform="translate(-130.0802,122.26983)" display="inline">
	</g>
	<g id="g4998" transform="translate(-133.14896,123.86039)" display="inline">
		<g id="g5004">
			<path id="text2413" fill="#FFFFFF" d="M465.402,153.84c0.229,0.097,1.086,0.291,2.572,0.581
				c23.434,3.872,41.037,10.938,52.811,21.199c11.773,10.26,17.661,23.715,17.661,40.364c0,17.036-6.459,31.798-19.376,44.285
				c-12.917,12.487-30.807,19.263-53.669,20.327v26.426h-18.347v-26.135c-23.32-2.227-41.209-8.64-53.669-19.238
				c-12.46-10.6-19.49-25.434-21.09-44.504l30.864-4.646c2.4,14.326,7.259,25.36,14.575,33.104
				c7.315,7.744,17.089,12.148,29.321,13.213V175.62c-23.205-4.26-40.581-11.374-52.126-21.344
				c-11.545-9.97-17.318-22.795-17.318-38.477c0-15.584,5.716-28.966,17.147-40.146s28.863-17.641,52.297-19.384V43.782h18.347
				v12.487c19.433,1.646,34.75,6.873,45.953,15.681c11.202,8.809,18.232,21.15,21.091,37.025l-32.064,3.92
				c-1.829-9.873-5.659-17.689-11.488-23.449c-5.83-5.759-13.66-9.462-23.491-11.107V153.84z M447.055,150.646V78.048
				c-12.46,1.839-22.006,6.074-28.635,12.705c-6.63,6.631-9.945,14.302-9.945,23.014c0,9.971,3.429,17.835,10.288,23.595
				C425.622,143.12,435.052,147.549,447.055,150.646L447.055,150.646z M465.402,258.817c12.003-1.549,21.891-5.977,29.664-13.285
				c7.772-7.309,11.659-16.528,11.659-27.66c0-9.776-2.943-17.641-8.83-23.594c-5.888-5.953-16.719-11.012-32.493-15.174V258.817z"
				/>
		</g>
		
			<path id="path4370" sodipodi:nodetypes="cc" fill="none" stroke="#FFFFFF" stroke-width="30" stroke-linecap="round" stroke-linejoin="round" d="
			M455.376,43.427v265.043"/>
	</g>
</g>
<g id="Layer_4">
	<path fill="#FFFFFF" d="M221.428,310.293c-14.518-34.844-55.854-39.658-61.93-40.181c-9.1-1.234-47.265-4.46-68.559,24.257
		c0,0-9.338,10.303-3.411,31.269c5.926,20.965,6.947,30.312-3.701,42.146c-10.646,11.834-53.604,52.483-30.509,104.819
		c22.354,50.657,63.081,50.482,75.046,52.669l-0.009,0.061c0.115,0,0.253,0.011,0.379,0.016c0.247,0.049,0.502,0.096,0.723,0.149
		l0.014-0.12c12.138,0.762,51.623,10.742,85.523-33.038c35.024-45.225,3.128-95.031-4.354-109.08
		c-7.483-14.05-4.242-22.874,6.563-41.794C228.007,322.544,221.428,310.293,221.428,310.293z"/>
	<polygon fill="#FFFFFF" points="147.842,269.343 177.609,104.944 196.321,105.837 181.611,279.274 	"/>
	<path fill="#FFFFFF" d="M207.559,98.664c-1.408,10.854-11.349,18.51-22.205,17.1l0,0c-10.852-1.409-18.507-11.35-17.099-22.203
		l3.017-23.223c1.407-10.854,11.349-18.51,22.202-17.102l0,0c10.854,1.412,18.51,11.352,17.101,22.206L207.559,98.664z"/>
	<circle cx="149.842" cy="343.834" r="26.667"/>
	<path fill="none" stroke="#000000" stroke-miterlimit="10" d="M1426.5,794.5"/>
	<rect x="96.5" y="474.644" transform="matrix(0.9932 0.1167 -0.1167 0.9932 56.886 -12.1626)" width="71.588" height="10"/>
	<g>
		<path fill="#FFFFFF" d="M304.478,175.606v174.476h33.703V175.984h-29.962C306.937,175.984,305.705,175.801,304.478,175.606z"/>
		<path fill="#FFFFFF" d="M338.181,128.175V99.184h-33.703v29.368c1.228-0.194,2.459-0.377,3.741-0.377H338.181z"/>
		<rect x="352.221" y="99.184" fill="#FFFFFF" width="33.707" height="28.991"/>
		<rect x="352.221" y="175.984" fill="#FFFFFF" width="33.707" height="131.973"/>
		<rect x="399.969" y="175.984" fill="#FFFFFF" width="33.702" height="104.819"/>
		<rect x="399.969" y="99.184" fill="#FFFFFF" width="33.702" height="28.991"/>
		<rect x="447.716" y="175.984" fill="#FFFFFF" width="33.697" height="65.501"/>
		<rect x="447.716" y="99.184" fill="#FFFFFF" width="33.697" height="28.991"/>
		<path fill="#FFFFFF" d="M495.459,175.984v40.223h33.702v-40.6c-1.227,0.194-2.465,0.377-3.746,0.377H495.459z"/>
		<path fill="#FFFFFF" d="M529.161,128.552V99.184h-33.702v28.991h29.956C526.696,128.175,527.935,128.358,529.161,128.552z"/>
		<path fill="#FFFFFF" d="M529.161,134.251c-1.21-0.255-2.465-0.394-3.746-0.394h-29.956h-14.046h-33.697h-14.045h-33.702h-14.041
			h-33.707h-14.04h-29.962c-1.282,0-2.531,0.139-3.741,0.394c-8.257,1.731-14.478,9.063-14.478,17.831
			c0,8.763,6.221,16.093,14.478,17.825c1.21,0.255,2.459,0.394,3.741,0.394h29.962h14.04h33.707h14.041h33.702h14.045h33.697h14.046
			h29.956c1.281,0,2.536-0.139,3.746-0.394c8.258-1.732,14.479-9.062,14.479-17.825C543.64,143.314,537.419,135.983,529.161,134.251
			z"/>
	</g>
</g>
</svg>
