<?xml version="1.0" encoding="utf-8"?>
<!-- Generator: Adobe Illustrator 15.0.0, SVG Export Plug-In . SVG Version: 6.00 Build 0)  -->
<!DOCTYPE svg PUBLIC "-//W3C//DTD SVG 1.1//EN" "http://www.w3.org/Graphics/SVG/1.1/DTD/svg11.dtd">
<svg version="1.1" id="Layer_1" xmlns="http://www.w3.org/2000/svg" xmlns:xlink="http://www.w3.org/1999/xlink" x="0px" y="0px"
	 width="580px" height="580px" viewBox="0 0 580 580" enable-background="new 0 0 580 580" xml:space="preserve">
<g id="Layer_2">
	<g id="g1327">
		<path id="path1329" fill="#111111" stroke="#EEEEEE" stroke-width="3.408" d="M66.275,1.768
			c-41.335,0-64.571,21.371-64.571,65.036v450.123c0,40.844,20.896,62.229,62.192,62.229h452.024
			c41.307,0,62.229-20.314,62.229-62.229V66.804c0-42.602-20.923-65.036-63.521-65.036C514.625,1.768,66.133,1.625,66.275,1.768z"/>
	</g>
</g>
<g id="svg2" inkscape:output_extension="org.inkscape.output.svg.inkscape" sodipodi:version="0.32" sodipodi:docname="amenity_atm.svg" inkscape:version="0.46" sodipodi:docbase="s:\Data\FacilityIcons" xmlns:dc="http://purl.org/dc/elements/1.1/" xmlns:cc="http://creativecommons.org/ns#" xmlns:rdf="http://www.w3.org/1999/02/22-rdf-syntax-ns#" xmlns:svg="http://www.w3.org/2000/svg" xmlns:sodipodi="http://sodipodi.sourceforge.net/DTD/sodipodi-0.dtd" xmlns:inkscape="http://www.inkscape.org/namespaces/inkscape" display="none">
	
		<sodipodi:namedview  id="base" inkscape:window-width="1280" inkscape:window-x="0" inkscape:window-height="1005" inkscape:current-layer="svg2" inkscape:pageshadow="2" inkscape:window-y="0" inkscape:pageopacity="0.0" gridtolerance="10.0" objecttolerance="10.0" guidetolerance="10.0" inkscape:zoom="1.3034483" showgrid="false" borderopacity="1.0" bordercolor="#666666" pagecolor="#ffffff" inkscape:cy="302.63451" inkscape:cx="285.84646">
		</sodipodi:namedview>
	<defs  display="inline">
		
		
			<inkscape:perspective  id="perspective2441" inkscape:persp3d-origin="290 : 193.33333 : 1" inkscape:vp_z="580 : 290 : 1" inkscape:vp_y="0 : 1000 : 0" inkscape:vp_x="0 : 290 : 1" sodipodi:type="inkscape:persp3d">
			</inkscape:perspective>
	</defs>
	
		<path id="rect3241" sodipodi:nodetypes="ccccccccc" display="inline" opacity="0.75" fill="#FFFFFF" stroke="#FFFFFF" stroke-width="35.845" stroke-linecap="round" stroke-linejoin="round" enable-background="new    " d="
		M103.979,82.413v62.924h112.402c7.778-20.622,12.716-34.171,13.042-36.066l190.991-1.647l14.589,37.714h69.612V82.413H103.979z"/>
	
		<path id="path2443" sodipodi:nodetypes="ccccccc" display="inline" fill="none" stroke="#FFFFFF" stroke-width="20" stroke-linejoin="round" d="
		M227.906,158.094l-40.375,0.375c-1.603,9.296-122.313,358.625-122.313,358.625l403.813-3.406l-15.594-40.313l-333.094,2.845
		C120.344,476.219,195.438,243.832,227.906,158.094z"/>
	
		<path id="path3243" sodipodi:nodetypes="ccccc" display="inline" fill="none" stroke="#FFFFFF" stroke-width="20" stroke-linejoin="round" d="
		M242.694,117.588c-1.604,9.296-122.338,358.618-122.338,358.618l403.838-3.411L401.652,116.069L242.694,117.588z"/>
	
		<path id="path3163" sodipodi:nodetypes="ccccc" display="inline" opacity="0.1" fill="#FFFFFF" stroke="#FFFFFF" stroke-width="20" stroke-linecap="round" stroke-linejoin="round" enable-background="new    " d="
		M242.694,117.588c-1.604,9.296-122.338,358.618-122.338,358.618l403.838-3.411L401.652,116.069L242.694,117.588z"/>
	
		<path id="path3165" sodipodi:nodetypes="ccccccc" display="inline" opacity="0.1" fill="#FFFFFF" stroke="#FFFFFF" stroke-width="20" stroke-linecap="round" stroke-linejoin="round" enable-background="new    " d="
		M227.906,158.094l-40.375,0.375c-1.603,9.296-122.313,358.625-122.313,358.625l403.813-3.406l-15.594-40.313l-333.094,2.845
		C120.344,476.219,195.438,243.832,227.906,158.094z"/>
	<g id="g4372" transform="translate(-130.0802,122.26983)" display="inline">
	</g>
	<g id="g4998" transform="translate(-133.14896,123.86039)" display="inline">
		<g id="g5004">
			<path id="text2413" fill="#FFFFFF" d="M465.402,153.84c0.229,0.098,1.086,0.291,2.572,0.581
				c23.435,3.872,41.037,10.938,52.811,21.199c11.772,10.261,17.66,23.716,17.66,40.364c0,17.036-6.459,31.798-19.376,44.285
				c-12.917,12.487-30.807,19.263-53.669,20.327v26.426h-18.347v-26.135c-23.32-2.228-41.209-8.641-53.669-19.238
				c-12.46-10.6-19.49-25.434-21.09-44.504l30.864-4.646c2.399,14.326,7.259,25.36,14.574,33.104s17.09,12.148,29.321,13.213V175.62
				c-23.205-4.26-40.581-11.374-52.126-21.344s-17.318-22.795-17.318-38.478c0-15.584,5.717-28.966,17.147-40.146
				s28.863-17.641,52.297-19.384V43.782h18.347v12.487c19.434,1.646,34.75,6.873,45.953,15.681
				c11.202,8.81,18.232,21.15,21.091,37.025l-32.063,3.92c-1.829-9.873-5.659-17.689-11.488-23.449
				c-5.83-5.759-13.66-9.462-23.491-11.107L465.402,153.84L465.402,153.84z M447.055,150.646V78.048
				c-12.46,1.84-22.006,6.074-28.635,12.705c-6.63,6.632-9.945,14.303-9.945,23.015c0,9.971,3.429,17.835,10.288,23.595
				C425.622,143.12,435.052,147.549,447.055,150.646L447.055,150.646z M465.402,258.817c12.003-1.549,21.892-5.977,29.664-13.285
				s11.659-16.527,11.659-27.66c0-9.775-2.942-17.641-8.83-23.594s-16.719-11.012-32.493-15.174V258.817z"/>
		</g>
		
			<path id="path4370" sodipodi:nodetypes="cc" fill="none" stroke="#FFFFFF" stroke-width="30" stroke-linecap="round" stroke-linejoin="round" d="
			M455.376,43.427V308.47"/>
	</g>
</g>
<g id="Layer_3" display="none">
</g>
<g id="Layer_4">
	<path fill="#FFFFFF" d="M312.247,285.809c5.217,39.466,61.67,249.601,61.67,249.601c4.264,11.631,13.175,13.063,13.175,13.063
		c55.49,3.563,93.345-18.91,93.345-18.91c10.125-4.827,8.502-17.455,8.502-17.455s-29.793-215.535-40.348-253.922
		c0,0-1.94-11.45-70.476,2.436C309.586,274.502,312.247,285.809,312.247,285.809z"/>
	<path fill="#FFFFFF" d="M267.178,289.63c0.346-0.849,0.578-1.795,0.648-2.814c0.014-0.179-0.003-0.343,0-0.519
		c0.05-3.506-1.788-6.396-4.285-6.562l-6.37-0.417v-2.751l5.444,0.359c2.623,0.167,4.956-2.722,5.211-6.459
		c0.255-3.74-1.663-6.911-4.285-7.083l-6.37-0.415v-3.193l5.496,0.359c2.626,0.174,4.956-2.721,5.212-6.453
		c0.259-3.74-1.663-6.912-4.285-7.084l-6.423-0.421v-6.808H156.61v0.222l-3.238-0.215c-2.623-0.171-4.956,2.72-5.211,6.458
		c-0.254,3.737,1.663,6.908,4.286,7.079l4.163,0.273v3.189l-3.291-0.215c-2.623-0.171-4.957,2.721-5.211,6.461
		c-0.259,3.739,1.659,6.909,4.285,7.076l4.216,0.276v2.753l-3.291-0.22c-2.623-0.171-4.957,2.72-5.211,6.459
		c-0.259,3.733,1.659,6.905,4.285,7.079l3.769,0.248l0.448,0.027v0.058h0.858l2.013,0.132
		c-10.792,2.814-55.723,15.742-55.723,35.695c0,0,6.351,209.524,49.891,220.409c0,0,39.335,22.73,107.718,1.25
		c1.271-0.396,1.271-0.396,1.271-0.396c43.535-10.886,49.597-221.263,49.597-221.263
		C312.233,306.475,284.291,295.113,267.178,289.63z"/>
	<path fill="#FFFFFF" d="M352.625,91.399l-15.282,3.098l32.343,159.25l15.289-3.095L352.625,91.399z"/>
	<path fill="#FFFFFF" d="M353.252,41.807c-2.071-10.233-19.385-20.607-29.614-18.535l-4.792,0.971
		c-10.234,2.074-4.707,14.837-2.639,25.07l18.02,63.604c2.071,10.23,6.988,17.865,17.216,15.792l0,0
		c10.229-2.071,11.788-11.016,9.717-21.247L353.252,41.807z"/>
</g>
</svg>
