<?xml version="1.0" encoding="UTF-8" standalone="no"?>
<!-- Generator: Adobe Illustrator 15.0.0, SVG Export Plug-In . SVG Version: 6.00 Build 0)  -->

<svg
   version="1.1"
   x="0px"
   y="0px"
   width="580px"
   height="580px"
   viewBox="0 0 580 580"
   enable-background="new 0 0 580 580"
   xml:space="preserve"
   id="svg4586"
   sodipodi:docname="nuts.svg"
   inkscape:version="1.4 (86a8ad7, 2024-10-11)"
   xmlns:inkscape="http://www.inkscape.org/namespaces/inkscape"
   xmlns:sodipodi="http://sodipodi.sourceforge.net/DTD/sodipodi-0.dtd"
   xmlns="http://www.w3.org/2000/svg"
   xmlns:svg="http://www.w3.org/2000/svg"
   xmlns:rdf="http://www.w3.org/1999/02/22-rdf-syntax-ns#"
   xmlns:cc="http://creativecommons.org/ns#"
   xmlns:dc="http://purl.org/dc/elements/1.1/"><metadata
   id="metadata4592"><rdf:RDF><cc:Work
       rdf:about=""><dc:format>image/svg+xml</dc:format><dc:type
         rdf:resource="http://purl.org/dc/dcmitype/StillImage" /></cc:Work></rdf:RDF></metadata><defs
   id="defs4590">
	
	
	
</defs><sodipodi:namedview
   pagecolor="#ffffff"
   bordercolor="#666666"
   borderopacity="1"
   objecttolerance="10"
   gridtolerance="10"
   guidetolerance="10"
   inkscape:pageopacity="0"
   inkscape:pageshadow="2"
   inkscape:window-width="1384"
   inkscape:window-height="764"
   id="namedview4588"
   showgrid="false"
   inkscape:zoom="0.9"
   inkscape:cx="289.44444"
   inkscape:cy="290"
   inkscape:window-x="963"
   inkscape:window-y="361"
   inkscape:window-maximized="0"
   inkscape:current-layer="svg4586"
   inkscape:showpageshadow="2"
   inkscape:pagecheckerboard="0"
   inkscape:deskcolor="#d1d1d1" />
<g
   id="Layer_1">
	<g
   id="Layer_1_1_">
		<g
   id="Layer_2">
			<g
   id="g1327">
				<path
   id="path1329"
   fill="#111111"
   stroke="#EEEEEE"
   stroke-width="3.408"
   d="M66.275,1.768      c-41.335,0-64.571,21.371-64.571,65.036v450.123c0,40.844,20.895,62.229,62.192,62.229H515.92      c41.307,0,62.229-20.315,62.229-62.229V66.804c0-42.601-20.925-65.036-63.521-65.036C514.624,1.768,66.133,1.625,66.275,1.768z" />
			</g>
		</g>
	</g>
</g><g
   id="g1"
   transform="matrix(1.4351488,0,0,1.4351488,-126.19315,-126.19315)"><g
     transform="matrix(6.9199219,-1.8541875,1.8541875,6.9199219,34.724663,77.954502)"
     id="g2"><path
       d="m 16,14 c -6,0 -7,6 -2,9 -5,3 -4,9 2,9 6,0 7,-6 3,-9 4,-3 3,-9 -3,-9 z"
       fill="#ffffff"
       id="path1" /></g><g
     transform="matrix(7.0551926,1.2440208,-1.2440208,7.0551926,93.777873,5.5557448)"
     id="g3"><path
       d="m 32,12 c -6,0 -7,6 -2,9 -5,3 -4,9 2,9 6,0 7,-6 3,-9 4,-3 3,-9 -3,-9 z"
       fill="#ffffff"
       id="path2" /></g><g
     transform="matrix(6.7319864,2.4502427,-2.4502427,6.7319864,142.54613,-64.701355)"
     id="g4"><path
       d="m 48,14 c -5,6 -5,16 0,20 5,-4 5,-14 0,-20 z"
       fill="#ffffff"
       id="path3" /></g><g
     transform="matrix(6.4928164,-3.02765,3.02765,6.4928164,-55.260088,146.94476)"
     id="g5"><path
       d="m 24,38 c -5,6 -5,16 0,20 5,-4 5,-14 0,-20 z"
       fill="#ffffff"
       id="path4" /></g><g
     transform="matrix(7.007479,1.4894856,-1.4894856,7.007479,143.30725,-14.93068)"
     id="g6"><path
       d="m 44,38 c -6,0 -7,6 -2,9 -5,3 -4,9 2,9 6,0 7,-6 3,-9 4,-3 3,-9 -3,-9 z"
       fill="#ffffff"
       id="path5" /></g></g>

</svg>
