<?xml version="1.0" encoding="utf-8"?>
<!-- Generator: Adobe Illustrator 15.0.0, SVG Export Plug-In . SVG Version: 6.00 Build 0)  -->
<!DOCTYPE svg PUBLIC "-//W3C//DTD SVG 1.1//EN" "http://www.w3.org/Graphics/SVG/1.1/DTD/svg11.dtd">
<svg version="1.1" id="Layer_1" xmlns="http://www.w3.org/2000/svg" xmlns:xlink="http://www.w3.org/1999/xlink" x="0px" y="0px"
	 width="580px" height="580px" viewBox="0 0 580 580" enable-background="new 0 0 580 580" xml:space="preserve">
<g id="Layer_2">
	<g id="g1327">
		<path id="path1329" fill="#111111" stroke="#EEEEEE" stroke-width="3.408" d="M66.275,1.768
			c-41.335,0-64.571,21.371-64.571,65.036v450.123c0,40.844,20.896,62.229,62.192,62.229h452.024
			c41.307,0,62.229-20.314,62.229-62.229V66.804c0-42.602-20.923-65.036-63.521-65.036C514.625,1.768,66.133,1.625,66.275,1.768z"/>
	</g>
</g>
<g id="svg2" inkscape:output_extension="org.inkscape.output.svg.inkscape" sodipodi:version="0.32" sodipodi:docname="amenity_atm.svg" inkscape:version="0.46" sodipodi:docbase="s:\Data\FacilityIcons" xmlns:dc="http://purl.org/dc/elements/1.1/" xmlns:cc="http://creativecommons.org/ns#" xmlns:rdf="http://www.w3.org/1999/02/22-rdf-syntax-ns#" xmlns:svg="http://www.w3.org/2000/svg" xmlns:sodipodi="http://sodipodi.sourceforge.net/DTD/sodipodi-0.dtd" xmlns:inkscape="http://www.inkscape.org/namespaces/inkscape" display="none">
	
		<sodipodi:namedview  id="base" inkscape:window-width="1280" inkscape:window-x="0" inkscape:window-height="1005" inkscape:current-layer="svg2" inkscape:pageshadow="2" inkscape:window-y="0" inkscape:pageopacity="0.0" gridtolerance="10.0" objecttolerance="10.0" guidetolerance="10.0" inkscape:zoom="1.3034483" showgrid="false" borderopacity="1.0" bordercolor="#666666" pagecolor="#ffffff" inkscape:cy="302.63451" inkscape:cx="285.84646">
		</sodipodi:namedview>
	<defs  display="inline">
		
		
			<inkscape:perspective  id="perspective2441" inkscape:persp3d-origin="290 : 193.33333 : 1" inkscape:vp_z="580 : 290 : 1" inkscape:vp_y="0 : 1000 : 0" inkscape:vp_x="0 : 290 : 1" sodipodi:type="inkscape:persp3d">
			</inkscape:perspective>
	</defs>
	
		<path id="rect3241" sodipodi:nodetypes="ccccccccc" display="inline" opacity="0.75" fill="#FFFFFF" stroke="#FFFFFF" stroke-width="35.845" stroke-linecap="round" stroke-linejoin="round" enable-background="new    " d="
		M103.979,82.413v62.924h112.402c7.778-20.622,12.716-34.171,13.042-36.066l190.991-1.647l14.589,37.714h69.612V82.413H103.979z"/>
	
		<path id="path2443" sodipodi:nodetypes="ccccccc" display="inline" fill="none" stroke="#FFFFFF" stroke-width="20" stroke-linejoin="round" d="
		M227.906,158.094l-40.375,0.375c-1.603,9.296-122.313,358.625-122.313,358.625l403.813-3.406l-15.594-40.313l-333.094,2.845
		C120.344,476.219,195.438,243.832,227.906,158.094z"/>
	
		<path id="path3243" sodipodi:nodetypes="ccccc" display="inline" fill="none" stroke="#FFFFFF" stroke-width="20" stroke-linejoin="round" d="
		M242.694,117.588c-1.604,9.296-122.338,358.618-122.338,358.618l403.838-3.411L401.652,116.069L242.694,117.588z"/>
	
		<path id="path3163" sodipodi:nodetypes="ccccc" display="inline" opacity="0.1" fill="#FFFFFF" stroke="#FFFFFF" stroke-width="20" stroke-linecap="round" stroke-linejoin="round" enable-background="new    " d="
		M242.694,117.588c-1.604,9.296-122.338,358.618-122.338,358.618l403.838-3.411L401.652,116.069L242.694,117.588z"/>
	
		<path id="path3165" sodipodi:nodetypes="ccccccc" display="inline" opacity="0.1" fill="#FFFFFF" stroke="#FFFFFF" stroke-width="20" stroke-linecap="round" stroke-linejoin="round" enable-background="new    " d="
		M227.906,158.094l-40.375,0.375c-1.603,9.296-122.313,358.625-122.313,358.625l403.813-3.406l-15.594-40.313l-333.094,2.845
		C120.344,476.219,195.438,243.832,227.906,158.094z"/>
	<g id="g4372" transform="translate(-130.0802,122.26983)" display="inline">
	</g>
	<g id="g4998" transform="translate(-133.14896,123.86039)" display="inline">
		<g id="g5004">
			<path id="text2413" fill="#FFFFFF" d="M465.402,153.84c0.229,0.098,1.086,0.291,2.572,0.581
				c23.435,3.872,41.037,10.938,52.811,21.199c11.772,10.261,17.66,23.716,17.66,40.364c0,17.036-6.459,31.798-19.376,44.285
				c-12.917,12.487-30.807,19.263-53.669,20.327v26.426h-18.347v-26.135c-23.32-2.228-41.209-8.641-53.669-19.238
				c-12.46-10.6-19.49-25.434-21.09-44.504l30.864-4.646c2.399,14.326,7.259,25.36,14.574,33.104s17.09,12.148,29.321,13.213V175.62
				c-23.205-4.26-40.581-11.374-52.126-21.344s-17.318-22.795-17.318-38.478c0-15.584,5.717-28.966,17.147-40.146
				s28.863-17.641,52.297-19.384V43.782h18.347v12.487c19.434,1.646,34.75,6.873,45.953,15.681
				c11.202,8.81,18.232,21.15,21.091,37.025l-32.063,3.92c-1.829-9.873-5.659-17.689-11.488-23.449
				c-5.83-5.759-13.66-9.462-23.491-11.107L465.402,153.84L465.402,153.84z M447.055,150.646V78.048
				c-12.46,1.84-22.006,6.074-28.635,12.705c-6.63,6.632-9.945,14.303-9.945,23.015c0,9.971,3.429,17.835,10.288,23.595
				C425.622,143.12,435.052,147.549,447.055,150.646L447.055,150.646z M465.402,258.817c12.003-1.549,21.892-5.977,29.664-13.285
				s11.659-16.527,11.659-27.66c0-9.775-2.942-17.641-8.83-23.594s-16.719-11.012-32.493-15.174V258.817z"/>
		</g>
		
			<path id="path4370" sodipodi:nodetypes="cc" fill="none" stroke="#FFFFFF" stroke-width="30" stroke-linecap="round" stroke-linejoin="round" d="
			M455.376,43.427V308.47"/>
	</g>
</g>
<path fill="#FFFFFF" d="M149.232,87.832c0,0-19.824-24.96-42.652-23.759c-22.828,1.202,42.413-8.636,51.662,11.859
	s-3.604,4.712,19.223-13.186c22.828-17.896-7.696,19.398-4.806,25.085C175.552,93.519,149.232,87.832,149.232,87.832z"/>
<path fill="#FFFFFF" d="M328.966,82.65c0,0-4.585-34.719,13.103-43.234c17.687-8.516,2.621,5.241,2.621,5.241
	s9.17-5.896,12.444-1.965c3.275,3.93,3.275,22.271,3.275,22.271s-7.206-2.62-9.825,0c-2.621,2.62-10.48,3.275-14.412,8.517
	C332.242,78.72,328.966,82.65,328.966,82.65z"/>
<path fill="#FFFFFF" d="M220.198,374.073c0,0-68.435-1.688-76.883,54.072c0,0,21.967-8.448,29.57-18.587
	c0,0-48.158,92.936-7.604,116.592c0,0,52.384-0.709,54.917-21.121C220.198,505.029,167.816,438.284,220.198,374.073z"/>
<path fill="#FFFFFF" d="M197.804,92.201c-13.815-4.979-19.782,5.512-35.43,5.512c-10.665,0-30.029-11.949-39.916-9.566
	c-54.396,13.109-94.646,60.026-94.646,115.895c0,33.532,18.752,61.191,42.106,82.899c22.63,21.034,49.321,36.646,83.445,36.646
	c69.34,0,125.136-63.292,125.136-129.314C278.5,143.147,245.209,109.288,197.804,92.201z M96.972,121.159
	c-23.896,43.187,1.156,141.375,1.156,141.375C20.452,193.077,96.972,121.159,96.972,121.159z"/>
<path fill="#FFFFFF" d="M492.957,258.423c-18.343-17.687-75.987-88.434-90.398-134.943c-14.413-46.51-34.063-44.544-34.063-44.544
	s-8.518-4.61-12.448-0.013c-3.929,4.599-13.755,0.667-15.721,7.218s-1.966,6.551-1.966,6.551s-25.548,17.687,0,82.539
	c25.548,64.852,52.406,167.698,59.612,178.834c7.204,11.136,49.785,106.12,122.497,70.092
	C593.182,388.128,511.299,276.111,492.957,258.423z M410.389,300.102c-6.998-41.947-58.315-164.888-58.315-164.888l129.46,270.981
	C461.706,399.198,417.387,342.05,410.389,300.102z"/>
<path fill="#FFFFFF" d="M286.099,343.659c-0.001-0.001-31.263-33.796-38.021,10.983c0,0-87.867,73.504-0.845,161.371
	c15.575,15.726,33.795,23.656,71.813,27.035c0,0,32.105,32.949,37.176-11.828c0,0,23.657-21.956,31.26-50.692
	C400.879,429.891,389.046,357.674,286.099,343.659z M239.5,459.5c-1.656,0-3-0.671-3-1.5c0-0.828,1.344-1.5,3-1.5
	c1.657,0,3,0.672,3,1.5C242.5,458.829,241.157,459.5,239.5,459.5z M253,386.5c-1.381,0-2.5-0.447-2.5-1c0-0.552,1.119-1,2.5-1
	s2.5,0.448,2.5,1C255.5,386.052,254.381,386.5,253,386.5z M274.5,510.5c-2.209,0-4-1.343-4-3c0-1.656,1.791-3,4-3s4,1.344,4,3
	C278.5,509.157,276.709,510.5,274.5,510.5z M285.25,443.08c-1.242,0-2.25-1.249-2.25-2.79c0-1.54,1.008-2.79,2.25-2.79
	c1.243,0,2.25,1.25,2.25,2.79C287.5,441.831,286.493,443.08,285.25,443.08z M302.938,402.5c-1.416,0-2.563-3.581-2.563-8
	c0-4.418,1.147-8,2.563-8c1.415,0,2.563,3.582,2.563,8C305.501,398.919,304.353,402.5,302.938,402.5z M330.364,402.5
	c1.18,0,2.136,1.567,2.136,3.5c0,1.934-0.956,3.5-2.136,3.5s-2.136-1.566-2.136-3.5C328.228,404.067,329.184,402.5,330.364,402.5z
	 M326,496.5c-3.59,0-6.5-1.343-6.5-3c0-1.656,2.91-3,6.5-3s6.5,1.344,6.5,3C332.5,495.157,329.59,496.5,326,496.5z M334,524
	c-0.828,0-1.5-0.335-1.5-0.75c0-0.414,0.672-0.75,1.5-0.75c0.829,0,1.5,0.336,1.5,0.75C335.5,523.665,334.829,524,334,524z
	 M349.75,384.5c-0.69,0-1.25-0.895-1.25-2c0-1.104,0.56-2,1.25-2s1.25,0.896,1.25,2C351,383.605,350.44,384.5,349.75,384.5z
	 M359.75,456.5c-1.519,0-2.75-1.43-2.75-3.194s1.231-3.195,2.75-3.195s2.75,1.431,2.75,3.195S361.268,456.5,359.75,456.5z"/>
</svg>
