<?xml version="1.0" encoding="utf-8"?>
<!-- Generator: Adobe Illustrator 15.0.0, SVG Export Plug-In . SVG Version: 6.00 Build 0)  -->
<!DOCTYPE svg PUBLIC "-//W3C//DTD SVG 1.1//EN" "http://www.w3.org/Graphics/SVG/1.1/DTD/svg11.dtd">
<svg version="1.1" xmlns="http://www.w3.org/2000/svg" xmlns:xlink="http://www.w3.org/1999/xlink" x="0px" y="0px" width="580px"
	 height="580px" viewBox="0 0 580 580" enable-background="new 0 0 580 580" xml:space="preserve">
<g id="Layer_1">
	<g id="Layer_2">
		<g id="g1327">
			<path id="path1329" fill="#111111" stroke="#EEEEEE" stroke-width="3.408" d="M66.275,1.768
				c-41.335,0-64.571,21.371-64.571,65.036v450.123c0,40.844,20.895,62.229,62.192,62.229h452.024
				c41.307,0,62.229-20.315,62.229-62.229V66.804c0-42.602-20.923-65.036-63.521-65.036C514.625,1.768,66.133,1.625,66.275,1.768z"
				/>
		</g>
	</g>
</g>
<g id="Layer_2_1_">
	<g>
		<path fill="#FFFFFF" d="M254.54,294.732l16.169-60.584l25.812,66.143l94.146,21.473c1.438,0.328,2.874,0.484,4.289,0.484
			c8.762,0,16.68-6.037,18.711-14.941c2.358-10.344-4.114-20.64-14.457-22.999l-74.3-16.946l-38.777-99.365
			c-0.684-5.954-3.084-11.546-6.82-16.12c-1.715-2.528-3.968-4.569-6.55-6.003c-2.812-1.913-5.982-3.398-9.454-4.325
			c-14.12-3.771-28.556,2.834-35.245,15.126c-2.024,2.501-3.581,5.447-4.465,8.757L135.07,497.135
			c-3.367,12.615,4.13,25.572,16.746,28.939c2.043,0.545,4.093,0.805,6.111,0.805c10.447,0,20.005-6.979,22.827-17.551l35.27-132.15
			c3.046-0.768,5.941-2.01,8.603-3.637l29.922,126.236c2.577,10.873,12.277,18.195,22.984,18.195c1.805,0,3.639-0.207,5.473-0.643
			c12.704-3.012,20.563-15.752,17.551-28.457L254.54,294.732z"/>
		<circle fill="#FFFFFF" cx="285.596" cy="90.999" r="43.589"/>
		<path fill="#FFFFFF" d="M439.436,223.479c-4.034-0.601-7.795,2.18-8.397,6.217l-43.964,294.411
			c-0.604,4.039,2.178,7.795,6.215,8.4c4.035,0.602,7.795-2.18,8.399-6.217l43.964-294.414
			C446.256,227.842,443.473,224.082,439.436,223.479z"/>
		<path fill="#FFFFFF" d="M147.735,285.093l14.229,3.982c9.427,2.641,19.214-2.866,21.854-12.298l29.074-103.871
			c2.64-9.429-2.866-19.215-12.297-21.854l-14.228-3.983c-9.431-2.638-19.214,2.866-21.855,12.296l-29.073,103.872
			C132.798,272.668,138.304,282.452,147.735,285.093z"/>
	</g>
</g>
</svg>
