<?xml version="1.0" encoding="UTF-8" standalone="no"?>
<!-- Generator: Adobe Illustrator 15.0.0, SVG Export Plug-In . SVG Version: 6.00 Build 0)  -->

<svg
   xmlns:dc="http://purl.org/dc/elements/1.1/"
   xmlns:cc="http://creativecommons.org/ns#"
   xmlns:rdf="http://www.w3.org/1999/02/22-rdf-syntax-ns#"
   xmlns:svg="http://www.w3.org/2000/svg"
   xmlns="http://www.w3.org/2000/svg"
   xmlns:sodipodi="http://sodipodi.sourceforge.net/DTD/sodipodi-0.dtd"
   xmlns:inkscape="http://www.inkscape.org/namespaces/inkscape"
   version="1.1"
   x="0px"
   y="0px"
   width="580px"
   height="580px"
   viewBox="0 0 580 580"
   enable-background="new 0 0 580 580"
   xml:space="preserve"
   id="svg2"
   inkscape:version="0.92.3 (2405546, 2018-03-11)"
   sodipodi:docname="party.svg"><metadata
   id="metadata33"><rdf:RDF><cc:Work
       rdf:about=""><dc:format>image/svg+xml</dc:format><dc:type
         rdf:resource="http://purl.org/dc/dcmitype/StillImage" /><dc:title></dc:title></cc:Work></rdf:RDF></metadata><defs
   id="defs31">
	

		
		
		
		
		
		
		
		
		
	</defs><sodipodi:namedview
   pagecolor="#ffffff"
   bordercolor="#666666"
   borderopacity="1"
   objecttolerance="10"
   gridtolerance="10"
   guidetolerance="10"
   inkscape:pageopacity="0"
   inkscape:pageshadow="2"
   inkscape:window-width="1614"
   inkscape:window-height="787"
   id="namedview29"
   showgrid="false"
   inkscape:zoom="0.54115914"
   inkscape:cx="165.59822"
   inkscape:cy="290"
   inkscape:window-x="168"
   inkscape:window-y="133"
   inkscape:window-maximized="0"
   inkscape:current-layer="svg2" />
<g
   id="Layer_2_1_">
	<g
   id="Layer_2">
		<g
   id="g1327">
			<path
   id="path1329"
   fill="#111111"
   stroke="#EEEEEE"
   stroke-width="3.408"
   d="M66.275,1.768     c-41.335,0-64.571,21.371-64.571,65.036v450.123c0,40.844,20.895,62.229,62.192,62.229h452.024     c41.307,0,62.229-20.315,62.229-62.229V66.804c0-42.602-20.923-65.036-63.521-65.036C514.625,1.768,66.133,1.625,66.275,1.768z" />
		</g>
	</g>
</g>

<path
   id="path1364"
   d="m 246.11069,317.51114 a 24.5429,24.020711 34.425501 0 1 28.12186,-8.85478 24.5429,24.020711 34.425501 0 1 16.44477,24.8389"
   style="fill:none;stroke:#ffffff;stroke-width:17.79055977;stroke-miterlimit:4;stroke-dasharray:none;stroke-opacity:1"
   inkscape:connector-curvature="0" /><path
   id="path2094"
   d="m 177.16609,293.19742 a 24.5429,24.020711 34.425501 0 1 28.12185,-8.85479 24.5429,24.020711 34.425501 0 1 16.44478,24.8389"
   style="fill:none;stroke:#ffffff;stroke-width:17.79055977;stroke-miterlimit:4;stroke-dasharray:none;stroke-opacity:1"
   inkscape:connector-curvature="0" /><path
   d="m 118.23551,319.90571 c -32.680139,55.54346 -8.14929,134.9443 56.31851,158.01286 66.83273,23.91474 133.81164,-25.12139 138.77418,-88.67536 l -195.09386,-69.3341 z"
   inkscape:connector-curvature="0"
   sodipodi:nodetypes="czcc"
   style="color:#000000;fill:none;stroke:#ffffff;stroke-width:19.02387047;stroke-miterlimit:4;stroke-dasharray:none;stroke-opacity:1"
   id="path2756" /><path
   style="color:#000000;fill:none;fill-rule:evenodd;stroke:#ffffff;stroke-width:14.80063152;stroke-linecap:round;stroke-linejoin:round;stroke-miterlimit:4;stroke-dasharray:none;stroke-opacity:1"
   d="m 207.78834,219.99199 c -8.65697,0.61097 -17.35333,1.30482 -25.85349,3.1732 -7.53464,1.542 -14.96842,3.73036 -22.1672,6.38555 -12.02116,4.46556 -23.5011,10.38603 -33.97257,17.80066 -6.50325,4.42883 -12.55932,9.5284 -18.29841,14.90989 -5.99486,5.71106 -11.388234,12.00009 -16.445508,18.55083 -5.352936,7.31975 -10.268018,15.00963 -14.305307,23.14839 -3.796606,7.66589 -7.007907,15.64821 -9.574474,23.80733 -2.791291,9.82183 -4.952252,19.83457 -5.825696,30.01621 -1.127862,10.8091 -0.849106,21.72765 0.407002,32.51462 1.027576,7.91172 2.469807,15.84857 4.761119,23.51499 2.302366,8.4399 5.596164,16.60543 9.322292,24.49716 5.544943,11.30759 12.305309,22.04538 20.538544,31.59485 5.275308,6.45155 11.284008,12.31027 17.559688,17.7928 6.27994,5.3957 13.07586,10.13432 20.09908,14.51173 7.77397,4.56787 15.8696,8.67849 24.32613,11.86506 11.05246,4.36509 22.72493,7.12536 34.48566,8.71688 9.78864,1.2988 19.69991,1.60394 29.56288,1.02984 8.14288,-0.5061 16.20873,-1.79283 24.17566,-3.52493 8.79984,-2.10039 17.51069,-4.8055 25.83203,-8.40393 7.07725,-3.00896 13.91881,-6.62623 20.45595,-10.66174 10.8957,-6.76334 20.96885,-14.84935 29.75895,-24.19639 5.49384,-5.63219 10.41739,-11.83343 14.97181,-18.24722 4.74007,-6.78868 8.7785,-14.02273 12.43239,-21.44841 4.57369,-10.06748 8.62938,-20.46001 10.82164,-31.33814 2.39354,-10.27683 3.7232,-20.83878 3.80768,-31.39182 0.30535,-8.6004 -0.49108,-17.23371 -1.71707,-25.72587 -1.97205,-12.55945 -5.37276,-24.90723 -10.49356,-36.55605 -3.08552,-7.48564 -6.99452,-14.64691 -11.24604,-21.54169 -4.40554,-7.00952 -9.5024,-13.54839 -14.91367,-19.80242 -6.10507,-6.69559 -12.65241,-13.02346 -19.81061,-18.59458 -5.96274,-4.65906 -12.3162,-8.88247 -18.88237,-12.60942 -9.1943,-5.21 -18.9165,-9.45502 -28.96519,-12.71371 -11.40399,-3.50415 -23.1755,-5.76382 -35.0724,-6.67516 -5.24057,-0.36785 -10.5213,-0.23563 -15.77494,-0.39851 z"
   id="path4320"
   inkscape:connector-curvature="0" /><path
   d="M 490.72933,80.636222 C 378.68136,71.104975 269.3918,137.60243 206.8537,217.96931 c 12.89092,46.31802 85.16275,57.69609 139.39284,79.60737 0.42203,-112.63878 68.76231,-169.24796 144.48279,-216.940458 z"
   inkscape:connector-curvature="0"
   style="fill:#ffffff;fill-opacity:1;stroke:#ffffff;stroke-width:9.09730148;stroke-linejoin:round;stroke-miterlimit:4;stroke-dasharray:none;stroke-opacity:1"
   sodipodi:nodetypes="cccc"
   id="path2985" /><path
   inkscape:connector-curvature="0"
   id="path2987"
   d="m 461.12875,64.297949 a 34.504061,30.595518 23.795704 0 0 6.76577,44.153801 34.504061,30.595518 23.795704 0 0 47.45986,-2.33595 34.504061,30.595518 23.795704 0 0 -6.76576,-44.153798 34.504061,30.595518 23.795704 0 0 -47.45987,2.335947 z"
   style="fill:#ffffff;fill-opacity:1;stroke:#ffffff;stroke-width:9.09749889;stroke-linejoin:round;stroke-opacity:1" /></svg>