<?xml version="1.0" encoding="UTF-8" standalone="no"?>
<!-- Generator: Adobe Illustrator 15.0.0, SVG Export Plug-In . SVG Version: 6.00 Build 0)  -->

<svg
   xmlns:dc="http://purl.org/dc/elements/1.1/"
   xmlns:cc="http://creativecommons.org/ns#"
   xmlns:rdf="http://www.w3.org/1999/02/22-rdf-syntax-ns#"
   xmlns:svg="http://www.w3.org/2000/svg"
   xmlns="http://www.w3.org/2000/svg"
   xmlns:sodipodi="http://sodipodi.sourceforge.net/DTD/sodipodi-0.dtd"
   xmlns:inkscape="http://www.inkscape.org/namespaces/inkscape"
   version="1.1"
   id="Layer_1"
   x="0px"
   y="0px"
   width="580px"
   height="580px"
   viewBox="0 0 580 580"
   enable-background="new 0 0 580 580"
   xml:space="preserve"
   inkscape:version="0.48.4 r9939"
   sodipodi:docname="perfumery.svg"><metadata
   id="metadata35"><rdf:RDF><cc:Work
       rdf:about=""><dc:format>image/svg+xml</dc:format><dc:type
         rdf:resource="http://purl.org/dc/dcmitype/StillImage" /><dc:title /></cc:Work></rdf:RDF></metadata><defs
   id="defs33">
	
	
	
	
</defs><sodipodi:namedview
   pagecolor="#ffffff"
   bordercolor="#666666"
   borderopacity="1"
   objecttolerance="10"
   gridtolerance="10"
   guidetolerance="10"
   inkscape:pageopacity="0"
   inkscape:pageshadow="2"
   inkscape:window-width="1087"
   inkscape:window-height="794"
   id="namedview31"
   showgrid="false"
   inkscape:zoom="0.75"
   inkscape:cx="107.9113"
   inkscape:cy="308.95095"
   inkscape:window-x="249"
   inkscape:window-y="106"
   inkscape:window-maximized="0"
   inkscape:current-layer="Layer_1" />
<g
   id="Layer_2">
	<g
   id="g1327">
		<path
   id="path1329"
   d="M66.275,1.768    c-41.335,0-64.571,21.371-64.571,65.036v450.123c0,40.844,20.896,62.229,62.192,62.229h452.024    c41.307,0,62.229-20.314,62.229-62.229V66.804c0-42.602-20.923-65.036-63.521-65.036C514.625,1.768,66.133,1.625,66.275,1.768z"
   stroke-width="3.408"
   stroke="#EEEEEE"
   fill="#111111" />
	</g>
</g>
<g
   id="svg2"
   inkscape:output_extension="org.inkscape.output.svg.inkscape"
   sodipodi:version="0.32"
   sodipodi:docname="amenity_atm.svg"
   inkscape:version="0.46"
   sodipodi:docbase="s:\Data\FacilityIcons"
   display="none">
	
		<sodipodi:namedview
   id="base"
   inkscape:window-width="1280"
   inkscape:window-x="0"
   inkscape:window-height="1005"
   inkscape:current-layer="svg2"
   inkscape:pageshadow="2"
   inkscape:window-y="0"
   inkscape:pageopacity="0.0"
   gridtolerance="10.0"
   objecttolerance="10.0"
   guidetolerance="10.0"
   inkscape:zoom="1.3034483"
   showgrid="false"
   borderopacity="1.0"
   bordercolor="#666666"
   pagecolor="#ffffff"
   inkscape:cy="302.63451"
   inkscape:cx="285.84646">
		</sodipodi:namedview>
	<defs
   display="inline"
   id="defs8">
		
		
			<inkscape:perspective
   id="perspective2441"
   inkscape:persp3d-origin="290 : 193.33333 : 1"
   inkscape:vp_z="580 : 290 : 1"
   inkscape:vp_y="0 : 1000 : 0"
   inkscape:vp_x="0 : 290 : 1"
   sodipodi:type="inkscape:persp3d">
			</inkscape:perspective>
	</defs>
	
		<path
   id="rect3241"
   sodipodi:nodetypes="ccccccccc"
   display="inline"
   opacity="0.75"
   fill="#FFFFFF"
   stroke="#FFFFFF"
   stroke-width="35.845"
   stroke-linecap="round"
   stroke-linejoin="round"
   enable-background="new    "
   d="   M103.979,82.413v62.924h112.402c7.778-20.622,12.716-34.171,13.042-36.066l190.991-1.647l14.589,37.714h69.612V82.413H103.979z" />
	
		<path
   id="path2443"
   sodipodi:nodetypes="ccccccc"
   display="inline"
   fill="none"
   stroke="#FFFFFF"
   stroke-width="20"
   stroke-linejoin="round"
   d="   M227.906,158.094l-40.375,0.375c-1.603,9.296-122.313,358.625-122.313,358.625l403.813-3.406l-15.594-40.313l-333.094,2.845   C120.344,476.219,195.438,243.832,227.906,158.094z" />
	
		<path
   id="path3243"
   sodipodi:nodetypes="ccccc"
   display="inline"
   fill="none"
   stroke="#FFFFFF"
   stroke-width="20"
   stroke-linejoin="round"
   d="   M242.694,117.588c-1.604,9.296-122.338,358.618-122.338,358.618l403.838-3.411L401.652,116.069L242.694,117.588z" />
	
		<path
   id="path3163"
   sodipodi:nodetypes="ccccc"
   display="inline"
   opacity="0.1"
   fill="#FFFFFF"
   stroke="#FFFFFF"
   stroke-width="20"
   stroke-linecap="round"
   stroke-linejoin="round"
   enable-background="new    "
   d="   M242.694,117.588c-1.604,9.296-122.338,358.618-122.338,358.618l403.838-3.411L401.652,116.069L242.694,117.588z" />
	
		<path
   id="path3165"
   sodipodi:nodetypes="ccccccc"
   display="inline"
   opacity="0.1"
   fill="#FFFFFF"
   stroke="#FFFFFF"
   stroke-width="20"
   stroke-linecap="round"
   stroke-linejoin="round"
   enable-background="new    "
   d="   M227.906,158.094l-40.375,0.375c-1.603,9.296-122.313,358.625-122.313,358.625l403.813-3.406l-15.594-40.313l-333.094,2.845   C120.344,476.219,195.438,243.832,227.906,158.094z" />
	<g
   id="g4372"
   transform="translate(-130.0802,122.26983)"
   display="inline">
	</g>
	<g
   id="g4998"
   transform="translate(-133.14896,123.86039)"
   display="inline">
		<g
   id="g5004">
			<path
   id="text2413"
   fill="#FFFFFF"
   d="M465.402,153.84c0.229,0.098,1.086,0.291,2.572,0.581     c23.435,3.872,41.037,10.938,52.811,21.199c11.772,10.261,17.66,23.716,17.66,40.364c0,17.036-6.459,31.798-19.376,44.285     c-12.917,12.487-30.807,19.263-53.669,20.327v26.426h-18.347v-26.135c-23.32-2.228-41.209-8.641-53.669-19.238     c-12.46-10.6-19.49-25.434-21.09-44.504l30.864-4.646c2.399,14.326,7.259,25.36,14.574,33.104s17.09,12.148,29.321,13.213V175.62     c-23.205-4.26-40.581-11.374-52.126-21.344s-17.318-22.795-17.318-38.478c0-15.584,5.717-28.966,17.147-40.146     s28.863-17.641,52.297-19.384V43.782h18.347v12.487c19.434,1.646,34.75,6.873,45.953,15.681     c11.202,8.81,18.232,21.15,21.091,37.025l-32.063,3.92c-1.829-9.873-5.659-17.689-11.488-23.449     c-5.83-5.759-13.66-9.462-23.491-11.107L465.402,153.84L465.402,153.84z M447.055,150.646V78.048     c-12.46,1.84-22.006,6.074-28.635,12.705c-6.63,6.632-9.945,14.303-9.945,23.015c0,9.971,3.429,17.835,10.288,23.595     C425.622,143.12,435.052,147.549,447.055,150.646L447.055,150.646z M465.402,258.817c12.003-1.549,21.892-5.977,29.664-13.285     s11.659-16.527,11.659-27.66c0-9.775-2.942-17.641-8.83-23.594s-16.719-11.012-32.493-15.174V258.817z" />
		</g>
		
			<path
   id="path4370"
   sodipodi:nodetypes="cc"
   fill="none"
   stroke="#FFFFFF"
   stroke-width="30"
   stroke-linecap="round"
   stroke-linejoin="round"
   d="    M455.376,43.427V308.47" />
	</g>
</g>
<g
   id="Layer_3"
   display="none">
</g>

<g
   id="g3003"
   transform="translate(0,-34.67279)"><path
     sodipodi:nodetypes="cccccccccccccccccccc"
     d="m 360.88148,255.64954 c -6.10707,-1.62392 -6.1529,-1.69611 -16.56435,-5.23684 -7.44488,-1.48661 -6.55443,-1.38473 -6.56601,-10.32454 0.17801,-16.53878 0.48836,-20.15946 -0.36154,-37.38577 l -25.16781,0.007 -0.47452,-41.79343 -49.69329,-0.38717 -0.16782,42.1944 -25.16781,0.007 c 0.24013,9.2339 0.4221,27.87141 0.47079,30.76621 -0.0899,6.14402 -0.35972,6.30205 -0.448,13.566 -0.88732,0.94275 -0.93504,1.0243 -1.67759,1.83139 l -1.47835,0.61581 c -14.84206,5.37183 -47.49794,12.12829 -49.24806,33.4648 0,0 6.351,209.524 49.891,220.409 0,0 39.335,22.73 107.718,1.25 1.271,-0.396 1.271,-0.396 1.271,-0.396 43.535,-10.886 49.597,-221.263 49.597,-221.263 -5.16914,-21.18051 -17.5743,-18.70976 -31.93264,-27.32462 z"
     id="path25"
     inkscape:connector-curvature="0"
     style="fill:#ffffff" /><path
     inkscape:connector-curvature="0"
     id="path3038"
     d="m 251.82528,177.91902 -149.86252,-39.57033 2.57275,0.79142 -1.28638,1.58281"
     style="fill:none;stroke:#ffffff;stroke-width:4.01819515;stroke-linecap:butt;stroke-linejoin:miter;stroke-miterlimit:4;stroke-opacity:1;stroke-dasharray:4.0181951, 4.0181951;stroke-dashoffset:3.21455615" /><path
     inkscape:connector-curvature="0"
     id="path3038-1"
     d="m 251.45027,182.89817 -150.89929,46.64309 2.59055,-0.93288 -1.29528,-1.86573"
     style="fill:none;stroke:#ffffff;stroke-width:4.37760782;stroke-linecap:butt;stroke-linejoin:miter;stroke-miterlimit:4;stroke-opacity:1;stroke-dasharray:4.37760795, 4.37760795;stroke-dashoffset:3.50208643" /><path
     sodipodi:nodetypes="cccc"
     inkscape:connector-curvature="0"
     id="path3038-1-4"
     d="m 244.02387,178.99426 -153.338519,1.81399 2.654658,-1.08413 -1.327338,-2.16829"
     style="fill:none;stroke:#ffffff;stroke-width:4.77726126;stroke-linecap:butt;stroke-linejoin:miter;stroke-miterlimit:4;stroke-opacity:1;stroke-dasharray:4.77726106, 4.77726106;stroke-dashoffset:3.82180893" /></g></svg>