<?xml version="1.0" encoding="UTF-8" standalone="no"?>
<!-- Generator: Adobe Illustrator 15.0.0, SVG Export Plug-In . SVG Version: 6.00 Build 0)  -->

<svg
   xmlns:dc="http://purl.org/dc/elements/1.1/"
   xmlns:cc="http://creativecommons.org/ns#"
   xmlns:rdf="http://www.w3.org/1999/02/22-rdf-syntax-ns#"
   xmlns:svg="http://www.w3.org/2000/svg"
   xmlns="http://www.w3.org/2000/svg"
   xmlns:sodipodi="http://sodipodi.sourceforge.net/DTD/sodipodi-0.dtd"
   xmlns:inkscape="http://www.inkscape.org/namespaces/inkscape"
   version="1.1"
   x="0px"
   y="0px"
   width="580px"
   height="580px"
   viewBox="0 0 580 580"
   enable-background="new 0 0 580 580"
   xml:space="preserve"
   id="svg2"
   inkscape:version="0.48.4 r9939"
   sodipodi:docname="pet_grooming.svg"><metadata
   id="metadata40"><rdf:RDF><cc:Work
       rdf:about=""><dc:format>image/svg+xml</dc:format><dc:type
         rdf:resource="http://purl.org/dc/dcmitype/StillImage" /></cc:Work></rdf:RDF></metadata><defs
   id="defs38">
	

		
	
	
	
	
</defs><sodipodi:namedview
   pagecolor="#ffffff"
   bordercolor="#666666"
   borderopacity="1"
   objecttolerance="10"
   gridtolerance="10"
   guidetolerance="10"
   inkscape:pageopacity="0"
   inkscape:pageshadow="2"
   inkscape:window-width="1054"
   inkscape:window-height="858"
   id="namedview36"
   showgrid="false"
   inkscape:zoom="0.51"
   inkscape:cx="290"
   inkscape:cy="391.29748"
   inkscape:window-x="320"
   inkscape:window-y="125"
   inkscape:window-maximized="0"
   inkscape:current-layer="svg2" />
<g
   id="Layer_2">
			<g
   id="g1327">
				<path
   id="path1329"
   d="M 66.275,1.768 C 24.94,1.768 1.704,23.139 1.704,66.804 v 450.123 c 0,40.844 20.895,62.229 62.192,62.229 H 515.92 c 41.307,0 62.229,-20.315 62.229,-62.229 V 66.804 c 0,-42.601 -20.925,-65.036 -63.521,-65.036 -0.004,0 -448.495,-0.143 -448.353,0 z"
   inkscape:connector-curvature="0"
   style="fill:#111111;stroke:#eeeeee;stroke-width:3.40799999" />
			</g>
		</g>
<g
   id="g30"
   transform="matrix(1.1061445,0,0,1.1061445,-89.640074,-50.30635)">
		<path
   style="fill:#ffffff"
   inkscape:connector-curvature="0"
   id="path32"
   d="m 411.523,347.658 -62.761,-18.945 c -4.306,5.838 -12.653,13.388 -27.751,14.94 0,0 -78.315,3.228 -90.603,5.822 0,0 -19.224,-1.004 -34.557,11.044 -2.915,0.361 -31.085,4.772 -54.065,38.789 0,0 -16.515,22.329 -33.017,21.355 0,0 27.18,7.77 60.188,-27.173 0,0 4.925,-12.573 15.575,-19.673 -3.051,5.473 -5.424,12.103 -6.55,20.313 0,0 -11.647,102.265 -15.532,107.436 0,0 -6.474,24.59 5.823,25.889 0,0 31.712,6.471 10.355,-8.411 0,0 -9.708,5.176 7.123,-51.776 0,0 1.802,-0.898 4.746,-2.565 l -5.582,48.997 c 0,0 3.065,11.588 23.188,15.352 8.646,1.604 6.586,-3.421 5.352,-6.414 0,0 -17.485,-7.149 -15.133,-19.139 l 15.782,-55.021 c 12.181,-10.05 24.308,-23.468 27.307,-38.814 39.51,8.429 63.661,27.793 87.042,31.784 -0.1,19.517 -0.33,63.855 -0.33,73.393 0,0 34.308,22.65 30.423,3.234 0,0 -12.294,0 -15.532,-19.415 0,0 3.108,-24.807 8.619,-47.575 2.571,19.154 7.563,57.531 7.563,66.661 0,0 34.3,22.655 30.415,3.239 0,0 -12.29,0 -15.532,-19.418 0,0 -1.183,-60.932 12.281,-76.478 0.62,-0.713 1.276,-1.325 1.953,-1.832 15.539,-11.646 20.066,-27.186 23.302,-56.951 10e-4,0 -0.998,-7.954 -0.092,-18.648 z" />
		<path
   style="fill:#ffffff"
   inkscape:connector-curvature="0"
   id="path34"
   d="m 458.212,298.349 -28.469,-15.527 c 0,0 2.573,-6.742 -16.83,-19.416 -2.229,-1.46 -1.939,-2.596 -1.939,-2.596 L 401.458,233.796 387.873,260 c 0,0 -20.886,29.467 -31.534,52.848 l 58.307,17.568 c 1.625,-5.639 3.956,-11.325 7.335,-16.528 0,0 29.98,8.269 36.887,-12.954 0.842,-2.585 -0.656,-2.585 -0.656,-2.585 z" />
	</g>
<g
   id="g3380"
   transform="matrix(0.3387577,-0.55361453,0.55361453,0.3387577,104.30186,279.84804)"><path
     inkscape:connector-curvature="0"
     sodipodi:nodetypes="csssssccccccssc"
     id="path3363"
     d="m 378.03125,82.59375 c -3.34391,0.315486 13.1714,105.45604 19.89448,131.33558 10.24912,39.45247 0.35667,4.67118 15.38677,67.60192 22.02627,92.22367 45.09441,167.90928 55.25493,178.84895 15.36328,16.54139 45.0101,11.1068 54.47922,-15.46146 7.10885,-19.94586 11.03654,-47.58963 -13.55789,-64.95383 -24.33791,-17.18309 -48.77989,1.65131 -48.77988,1.65132 L 379,82.84375 c -0.13367,-0.215343 -0.49105,-0.295069 -0.96875,-0.25 z m 112.90625,300.75 c 14.41202,0.0355 29.0817,16.8764 29.07744,38.27001 l 0,0.0625 c -0.0239,21.41216 -14.74665,39.29673 -29.17119,39.26124 -14.42455,-0.0355 -29.64384,-20.95778 -29.61993,-42.36993 0.0239,-21.41214 15.28914,-35.25931 29.71368,-35.22382 z"
     style="fill:#ffffff;fill-opacity:1;fill-rule:evenodd;stroke:#ffffff;stroke-width:8;stroke-linecap:round;stroke-linejoin:round;stroke-miterlimit:4;stroke-opacity:1;stroke-dasharray:none" /><path
     inkscape:connector-curvature="0"
     style="fill:#ffffff;fill-opacity:1;fill-rule:evenodd;stroke:#ffffff;stroke-width:8;stroke-linecap:round;stroke-linejoin:round;stroke-miterlimit:4;stroke-opacity:1;stroke-dasharray:none"
     d="m 478.09201,83.678729 c 3.34391,0.315486 -13.1714,105.456041 -19.89448,131.335581 -10.24912,39.45247 -0.35667,4.67118 -15.38677,67.60192 -22.02627,92.22367 -45.09441,167.90928 -55.25493,178.84895 -15.36328,16.54139 -45.0101,11.1068 -54.47922,-15.46146 -7.10885,-19.94586 -11.03654,-47.58963 13.55789,-64.95383 24.33791,-17.18309 48.77989,1.65131 48.77988,1.65132 L 477.12326,83.928729 c 0.13367,-0.215343 0.49105,-0.295069 0.96875,-0.25 z M 365.18576,384.42873 c -14.41202,0.0355 -29.0817,16.8764 -29.07744,38.27001 l 0,0.0625 c 0.0239,21.41216 14.74665,39.29673 29.17119,39.26124 14.42455,-0.0355 29.64384,-20.95778 29.61993,-42.36993 -0.0239,-21.41214 -15.28914,-35.25931 -29.71368,-35.22382 z"
     id="path3378"
     sodipodi:nodetypes="csssssccccccssc" /></g></svg>