<?xml version="1.0" encoding="utf-8"?>
<!-- Generator: Adobe Illustrator 15.0.0, SVG Export Plug-In . SVG Version: 6.00 Build 0)  -->
<!DOCTYPE svg PUBLIC "-//W3C//DTD SVG 1.1//EN" "http://www.w3.org/Graphics/SVG/1.1/DTD/svg11.dtd">
<svg version="1.1" xmlns="http://www.w3.org/2000/svg" xmlns:xlink="http://www.w3.org/1999/xlink" x="0px" y="0px" width="580px"
	 height="580px" viewBox="0 0 580 580" enable-background="new 0 0 580 580" xml:space="preserve">
<g id="Layer_1">
	<g id="Layer_2">
		<g id="g1327">
			<path id="path1329" fill="#111111" stroke="#EEEEEE" stroke-width="3.408" d="M66.275,1.768
				c-41.335,0-64.571,21.371-64.571,65.036v450.123c0,40.844,20.895,62.229,62.192,62.229h452.024
				c41.307,0,62.229-20.315,62.229-62.229V66.804c0-42.602-20.923-65.036-63.521-65.036C514.625,1.768,66.133,1.625,66.275,1.768z"
				/>
		</g>
	</g>
</g>
<g id="Layer_2_1_">
	<g>
		<path fill="#FFFFFF" d="M352.513,101.921H228.774l-25.573,37.328h172.624L352.513,101.921z M316.382,135.626h-51.869V106.38
			h51.869V135.626z"/>
		<polygon fill="#FFFFFF" points="487.121,117.708 436.219,117.708 427.17,139.003 495.383,139.003 		"/>
		<polygon fill="#FFFFFF" points="142.266,125.036 104.004,125.036 99.577,138.856 145.463,138.856 		"/>
		<path fill="#FFFFFF" d="M503.281,151.266H76.719c-24.651,0-44.5,19.849-44.5,44.5v237.812c0,24.652,19.849,44.5,44.5,44.5h426.563
			c24.652,0,44.5-19.848,44.5-44.5V195.766C547.781,171.115,527.933,151.266,503.281,151.266z M336.969,430.515
			c-65.251,0-118.156-52.904-118.156-118.156c0-65.25,52.905-118.125,118.156-118.125c65.252,0,118.156,52.874,118.156,118.125
			C455.125,377.611,402.22,430.515,336.969,430.515z"/>
		<path fill="#FFFFFF" d="M336.941,241.762c-38.981,0.014-70.571,31.626-70.557,70.607c0,0.018,0,0.035,0,0.051
			c0.014,38.982,31.626,70.572,70.606,70.557c38.981-0.014,70.571-31.625,70.557-70.607c0-0.016,0-0.033,0-0.051
			C407.534,273.337,375.922,241.748,336.941,241.762z"/>
	</g>
</g>
</svg>
