<?xml version="1.0" encoding="utf-8"?>
<!-- Generator: Adobe Illustrator 15.0.0, SVG Export Plug-In . SVG Version: 6.00 Build 0)  -->
<!DOCTYPE svg PUBLIC "-//W3C//DTD SVG 1.1//EN" "http://www.w3.org/Graphics/SVG/1.1/DTD/svg11.dtd">
<svg version="1.1" xmlns="http://www.w3.org/2000/svg" xmlns:xlink="http://www.w3.org/1999/xlink" x="0px" y="0px" width="580px"
	 height="580px" viewBox="0 0 580 580" enable-background="new 0 0 580 580" xml:space="preserve">
<g id="Layer_2_1_">
	<g id="Layer_2">
		<g id="g1327">
			<path id="path1329" fill="#111111" stroke="#EEEEEE" stroke-width="3.408" d="M66.275,1.768
				c-41.335,0-64.571,21.371-64.571,65.036v450.123c0,40.844,20.895,62.229,62.192,62.229h452.024
				c41.307,0,62.229-20.315,62.229-62.229V66.804c0-42.602-20.923-65.036-63.521-65.036C514.625,1.768,66.133,1.625,66.275,1.768z"
				/>
		</g>
	</g>
</g>
<g id="Layer_1">
	<path fill="#FFFFFF" d="M361.089,132.744c-10.994-3.297-9.892-15.384-9.892-15.384V88.232h45.959
		c8.192,0,14.838-6.646,14.838-14.837s-6.646-14.836-14.838-14.836H182.843c-8.191,0-14.837,6.645-14.837,14.836
		s6.646,14.837,14.837,14.837h45.96v29.127c0,0,1.101,12.087-9.892,15.384c-10.992,3.297-128.595,40.66-111.007,145.074
		c15.695,93.18,92.654,170.593,129.342,198.674v26.257h-18.215c-2.383,0-4.313,1.931-4.313,4.313v10.065
		c0,2.383,1.931,4.313,4.313,4.313h141.938c2.384,0,4.314-1.931,4.314-4.313v-10.065c0-2.383-1.931-4.313-4.314-4.313h-18.215
		v-26.257c36.688-28.081,113.648-105.494,129.343-198.674C489.682,173.404,372.08,136.041,361.089,132.744z"/>
</g>
</svg>
