<?xml version="1.0" encoding="utf-8"?>
<!-- Generator: Adobe Illustrator 15.0.0, SVG Export Plug-In . SVG Version: 6.00 Build 0)  -->
<!DOCTYPE svg PUBLIC "-//W3C//DTD SVG 1.1//EN" "http://www.w3.org/Graphics/SVG/1.1/DTD/svg11.dtd">
<svg version="1.1" xmlns="http://www.w3.org/2000/svg" xmlns:xlink="http://www.w3.org/1999/xlink" x="0px" y="0px" width="580px"
	 height="580px" viewBox="0 0 580 580" enable-background="new 0 0 580 580" xml:space="preserve">
<g id="Layer_1">
	<g id="Layer_2">
		<g id="g1327">
			<path id="path1329" fill="#111111" stroke="#EEEEEE" stroke-width="3.408" d="M66.275,1.768
				c-41.335,0-64.571,21.371-64.571,65.036v450.123c0,40.844,20.895,62.229,62.192,62.229h452.024
				c41.307,0,62.229-20.315,62.229-62.229V66.804c0-42.602-20.923-65.036-63.521-65.036C514.625,1.768,66.133,1.625,66.275,1.768z"
				/>
		</g>
	</g>
</g>
<g id="Layer_2_1_">
	<g>
		<g>
			<g>
				<rect x="491.876" y="55.307" fill="#FFFFFF" width="2.111" height="45.702"/>
			</g>
			<g>
				
					<rect x="496.447" y="55.769" transform="matrix(0.9798 0.1999 -0.1999 0.9798 25.7489 -97.8405)" fill="#FFFFFF" width="2.111" height="45.702"/>
			</g>
			<g>
				
					<rect x="500.835" y="57.137" transform="matrix(0.9198 0.3924 -0.3924 0.9198 71.6283 -190.5054)" fill="#FFFFFF" width="2.111" height="45.702"/>
			</g>
			<g>
				
					<rect x="504.86" y="59.354" transform="matrix(0.8228 0.5683 -0.5683 0.8228 136.3524 -272.9442)" fill="#FFFFFF" width="2.11" height="45.702"/>
			</g>
			<g>
				
					<rect x="508.359" y="62.332" transform="matrix(0.6929 0.7211 -0.7211 0.6929 217.8853 -341.162)" fill="#FFFFFF" width="2.111" height="45.702"/>
			</g>
			<g>
				
					<rect x="511.193" y="65.95" transform="matrix(0.534 0.8455 -0.8455 0.534 313.7714 -391.7099)" fill="#FFFFFF" width="2.11" height="45.702"/>
			</g>
			<g>
				
					<rect x="513.244" y="70.061" transform="matrix(0.3544 0.9351 -0.9351 0.3544 418.9041 -420.9324)" fill="#FFFFFF" width="2.111" height="45.702"/>
			</g>
			<g>
				
					<rect x="514.432" y="74.5" transform="matrix(0.16 0.9871 -0.9871 0.16 529.082 -427.0728)" fill="#FFFFFF" width="2.111" height="45.703"/>
			</g>
			<g>
				
					<rect x="492.913" y="100.882" transform="matrix(0.9992 0.0406 -0.0406 0.9992 4.5678 -20.8721)" fill="#FFFFFF" width="45.702" height="2.111"/>
			</g>
			<g>
				
					<rect x="492.265" y="105.432" transform="matrix(0.9708 0.2397 -0.2397 0.9708 40.5466 -120.3782)" fill="#FFFFFF" width="45.702" height="2.111"/>
			</g>
			<g>
				
					<rect x="490.721" y="109.759" transform="matrix(0.9033 0.4291 -0.4291 0.9033 97.2341 -209.6518)" fill="#FFFFFF" width="45.703" height="2.112"/>
			</g>
			<g>
				
					<rect x="488.342" y="113.69" transform="matrix(0.7991 0.6011 -0.6011 0.7991 171.6522 -284.2488)" fill="#FFFFFF" width="45.703" height="2.112"/>
			</g>
			<g>
				
					<rect x="485.224" y="117.067" transform="matrix(0.6627 0.7489 -0.7489 0.6627 259.8276 -340.6439)" fill="#FFFFFF" width="45.702" height="2.111"/>
			</g>
			<g>
				
					<rect x="481.494" y="119.751" transform="matrix(0.4995 0.8663 -0.8663 0.4995 357.0836 -376.459)" fill="#FFFFFF" width="45.702" height="2.111"/>
			</g>
			<g>
				
					<rect x="477.303" y="121.634" transform="matrix(0.3161 0.9487 -0.9487 0.3161 458.4699 -390.6031)" fill="#FFFFFF" width="45.703" height="2.11"/>
			</g>
			<g>
				
					<rect x="472.819" y="122.641" transform="matrix(0.1199 0.9928 -0.9928 0.1199 559.058 -383.228)" fill="#FFFFFF" width="45.703" height="2.111"/>
			</g>
			<g>
				
					<rect x="490.021" y="100.934" transform="matrix(0.9967 0.0814 -0.0814 0.9967 11.7119 -39.5806)" fill="#FFFFFF" width="2.111" height="45.703"/>
			</g>
			<g>
				
					<rect x="485.501" y="100.102" transform="matrix(0.9603 0.2789 -0.2789 0.9603 53.6073 -130.8371)" fill="#FFFFFF" width="2.111" height="45.703"/>
			</g>
			<g>
				
					<rect x="481.24" y="98.384" transform="matrix(0.8852 0.4653 -0.4653 0.8852 111.7823 -210.4681)" fill="#FFFFFF" width="2.112" height="45.703"/>
			</g>
			<g>
				
					<rect x="477.408" y="95.846" transform="matrix(0.7741 0.6331 -0.6331 0.7741 183.2274 -276.0832)" fill="#FFFFFF" width="2.112" height="45.703"/>
			</g>
			<g>
				
					<rect x="474.162" y="92.594" transform="matrix(0.6318 0.7752 -0.7752 0.6318 264.4747 -325.8554)" fill="#FFFFFF" width="2.111" height="45.703"/>
			</g>
			<g>
				
					<rect x="471.632" y="88.759" transform="matrix(0.4636 0.886 -0.886 0.4636 352.4362 -358.9529)" fill="#FFFFFF" width="2.111" height="45.704"/>
			</g>
			<g>
				
					<rect x="469.92" y="84.494" transform="matrix(0.2775 0.9607 -0.9607 0.2775 443.3946 -374.9198)" fill="#FFFFFF" width="2.111" height="45.704"/>
			</g>
			<g>
				
					<rect x="469.096" y="79.974" transform="matrix(0.0796 0.9968 -0.9968 0.0796 535.2454 -374.0174)" fill="#FFFFFF" width="2.111" height="45.703"/>
			</g>
			<g>
				
					<rect x="447.397" y="97.175" transform="matrix(0.9926 0.1216 -0.1216 0.9926 15.4327 -56.4481)" fill="#FFFFFF" width="45.704" height="2.111"/>
			</g>
			<g>
				
					<rect x="448.411" y="92.694" transform="matrix(0.9482 0.3177 -0.3177 0.9482 54.2018 -144.8669)" fill="#FFFFFF" width="45.704" height="2.111"/>
			</g>
			<g>
				
					<rect x="450.302" y="88.506" transform="matrix(0.8655 0.501 -0.501 0.8655 108.5261 -224.9899)" fill="#FFFFFF" width="45.704" height="2.111"/>
			</g>
			<g>
				
					<rect x="452.993" y="84.78" transform="matrix(0.7477 0.664 -0.664 0.7477 177.0363 -294.3081)" fill="#FFFFFF" width="45.703" height="2.111"/>
			</g>
			<g>
				
					<rect x="456.375" y="81.669" transform="matrix(0.5997 0.8002 -0.8002 0.5997 258.0059 -350.3609)" fill="#FFFFFF" width="45.703" height="2.111"/>
			</g>
			<g>
				
					<rect x="460.311" y="79.297" transform="matrix(0.4275 0.904 -0.904 0.4275 349.2345 -390.7799)" fill="#FFFFFF" width="45.702" height="2.111"/>
			</g>
			<g>
				
					<rect x="464.641" y="77.759" transform="matrix(0.238 0.9713 -0.9713 0.238 447.9999 -413.4252)" fill="#FFFFFF" width="45.702" height="2.112"/>
			</g>
		</g>
		<g>
			<g>
				<rect x="245.122" y="55.308" fill="#FFFFFF" width="4.211" height="203.132"/>
			</g>
			<g>
				
					<rect x="262.742" y="84.057" transform="matrix(0.9798 0.2001 -0.2001 0.9798 39.8077 -49.5211)" fill="#FFFFFF" width="4.211" height="176.164"/>
			</g>
			<g>
				
					<rect x="284.941" y="63.438" transform="matrix(0.9199 0.3921 -0.3921 0.9199 87.6922 -99.3439)" fill="#FFFFFF" width="4.211" height="203.133"/>
			</g>
			<g>
				
					<rect x="302.829" y="73.295" transform="matrix(0.823 0.5681 -0.5681 0.823 153.329 -142.2781)" fill="#FFFFFF" width="4.211" height="203.131"/>
			</g>
			<g>
				
					<rect x="292.609" y="151.126" transform="matrix(0.6724 0.7401 -0.7401 0.6724 255.8827 -147.6132)" fill="#FFFFFF" width="4.212" height="128.328"/>
			</g>
			<g>
				
					<rect x="330.977" y="102.609" transform="matrix(0.5343 0.8453 -0.8453 0.5343 327.7023 -186.4684)" fill="#FFFFFF" width="4.211" height="203.133"/>
			</g>
			<g>
				
					<rect x="336.864" y="123.902" transform="matrix(0.3653 0.9309 -0.9309 0.3653 422.2358 -174.3504)" fill="#FFFFFF" width="4.211" height="197.097"/>
			</g>
			<g>
				
					<rect x="327.311" y="160.613" transform="matrix(0.1725 0.985 -0.985 0.1725 512.9805 -122.5283)" fill="#FFFFFF" width="4.212" height="166.879"/>
			</g>
			<g>
				
					<rect x="247.143" y="260.461" transform="matrix(0.9992 0.0406 -0.0406 0.9992 10.9571 -13.9525)" fill="#FFFFFF" width="203.129" height="4.211"/>
			</g>
			<g>
				
					<rect x="244.544" y="278.396" transform="matrix(0.9708 0.2397 -0.2397 0.9708 77.0536 -72.5036)" fill="#FFFFFF" width="184.063" height="4.212"/>
			</g>
			<g>
				
					<rect x="237.401" y="299.917" transform="matrix(0.9033 0.4291 -0.4291 0.9033 162.3912 -116.2331)" fill="#FFFFFF" width="203.135" height="4.211"/>
			</g>
			<g>
				
					<rect x="229.284" y="310.036" transform="matrix(0.7991 0.6011 -0.6011 0.7991 251.6339 -128.8381)" fill="#FFFFFF" width="178.668" height="4.211"/>
			</g>
			<g>
				
					<rect x="212.969" y="332.395" transform="matrix(0.6627 0.7489 -0.7489 0.6627 356.5944 -122.7232)" fill="#FFFFFF" width="203.13" height="4.211"/>
			</g>
			<g>
				
					<rect x="211.251" y="318.605" transform="matrix(0.4995 0.8663 -0.8663 0.4995 419.5462 -84.7632)" fill="#FFFFFF" width="143.759" height="4.211"/>
			</g>
			<g>
				
					<rect x="177.762" y="352.695" transform="matrix(0.3161 0.9487 -0.9487 0.3161 527.6544 -22.3509)" fill="#FFFFFF" width="203.135" height="4.211"/>
			</g>
			<g>
				
					<rect x="168.726" y="346.19" transform="matrix(0.1343 0.9909 -0.9909 0.1343 569.7147 44.4777)" fill="#FFFFFF" width="181.353" height="4.211"/>
			</g>
			<g>
				
					<rect x="236.875" y="258.079" transform="matrix(0.9962 0.0872 -0.0872 0.9962 31.6391 -19.4945)" fill="#FFFFFF" width="4.211" height="188.717"/>
			</g>
			<g>
				
					<rect x="216.786" y="254.408" transform="matrix(0.9602 0.2792 -0.2792 0.9602 108.0892 -46.9572)" fill="#FFFFFF" width="4.211" height="203.139"/>
			</g>
			<g>
				
					<rect x="212.955" y="250.499" transform="matrix(0.885 0.4656 -0.4656 0.885 173.5318 -63.3746)" fill="#FFFFFF" width="4.212" height="138.221"/>
			</g>
			<g>
				
					<rect x="180.817" y="235.491" transform="matrix(0.7741 0.6331 -0.6331 0.7741 254.7141 -39.6571)" fill="#FFFFFF" width="4.211" height="203.139"/>
			</g>
			<g>
				
					<rect x="173.355" y="224.347" transform="matrix(0.6318 0.7751 -0.7751 0.6318 310.267 -19.3116)" fill="#FFFFFF" width="4.21" height="185.163"/>
			</g>
			<g>
				
					<rect x="155.142" y="203.988" transform="matrix(0.4638 0.8859 -0.8859 0.4638 355.0108 24.5207)" fill="#FFFFFF" width="4.211" height="203.14"/>
			</g>
			<g>
				
					<rect x="180.816" y="210.069" transform="matrix(0.2773 0.9608 -0.9608 0.2773 398.3359 24.4404)" fill="#FFFFFF" width="4.212" height="133.859"/>
			</g>
			<g>
				
					<rect x="153.066" y="173.431" transform="matrix(0.0795 0.9968 -0.9968 0.0795 407.7667 89.9591)" fill="#FFFFFF" width="4.212" height="184.694"/>
			</g>
			<g>
				
					<rect x="54.26" y="245.139" transform="matrix(0.9926 0.1216 -0.1216 0.9926 31.2181 -17.1128)" fill="#FFFFFF" width="203.143" height="4.211"/>
			</g>
			<g>
				
					<rect x="91.215" y="230.892" transform="matrix(0.9482 0.3177 -0.3177 0.9482 82.8999 -42.3499)" fill="#FFFFFF" width="160.161" height="4.211"/>
			</g>
			<g>
				
					<rect x="71.605" y="209.171" transform="matrix(0.8655 0.501 -0.501 0.8655 128.1439 -54.6115)" fill="#FFFFFF" width="188.288" height="4.211"/>
			</g>
			<g>
				
					<rect x="104.732" y="202.071" transform="matrix(0.7467 0.6652 -0.6652 0.7467 183.0041 -72.2095)" fill="#FFFFFF" width="163.16" height="4.211"/>
			</g>
			<g>
				
					<rect x="98.406" y="181.895" transform="matrix(0.5998 0.8002 -0.8002 0.5998 223.8562 -79.5368)" fill="#FFFFFF" width="186.056" height="4.211"/>
			</g>
			<g>
				
					<rect x="147.084" y="192.918" transform="matrix(0.4275 0.904 -0.904 0.4275 300.6602 -84.7362)" fill="#FFFFFF" width="140.302" height="4.211"/>
			</g>
			<g>
				
					<rect x="134.971" y="168.269" transform="matrix(0.238 0.9713 -0.9713 0.238 337.4072 -89.3391)" fill="#FFFFFF" width="181.344" height="4.211"/>
			</g>
		</g>
		<g>
			<g>
				<rect x="85.907" y="433.438" fill="#FFFFFF" width="2.111" height="45.701"/>
			</g>
			<g>
				
					<rect x="90.479" y="433.9" transform="matrix(0.9798 0.1999 -0.1999 0.9798 93.1288 -9.0789)" fill="#FFFFFF" width="2.111" height="45.701"/>
			</g>
			<g>
				
					<rect x="94.866" y="435.267" transform="matrix(0.9199 0.3922 -0.3922 0.9199 187.3532 -0.9172)" fill="#FFFFFF" width="2.112" height="45.702"/>
			</g>
			<g>
				
					<rect x="98.891" y="437.485" transform="matrix(0.823 0.5681 -0.5681 0.823 279.2 24.7141)" fill="#FFFFFF" width="2.111" height="45.701"/>
			</g>
			<g>
				
					<rect x="102.39" y="440.462" transform="matrix(0.6924 0.7215 -0.7215 0.6924 366.1138 67.882)" fill="#FFFFFF" width="2.111" height="45.702"/>
			</g>
			<g>
				
					<rect x="105.223" y="444.079" transform="matrix(0.5341 0.8454 -0.8454 0.5341 444.2485 127.6725)" fill="#FFFFFF" width="2.112" height="45.703"/>
			</g>
			<g>
				
					<rect x="107.276" y="448.192" transform="matrix(0.3543 0.9351 -0.9351 0.3543 510.4469 202.8638)" fill="#FFFFFF" width="2.112" height="45.702"/>
			</g>
			<g>
				
					<rect x="108.464" y="452.63" transform="matrix(0.16 0.9871 -0.9871 0.16 561.343 291.2744)" fill="#FFFFFF" width="2.111" height="45.703"/>
			</g>
			<g>
				
					<rect x="86.944" y="479.013" transform="matrix(0.9992 0.0406 -0.0406 0.9992 19.6013 -4.0656)" fill="#FFFFFF" width="45.703" height="2.111"/>
			</g>
			<g>
				
					<rect x="86.296" y="483.562" transform="matrix(0.9708 0.2397 -0.2397 0.9708 119.3467 -12.0346)" fill="#FFFFFF" width="45.703" height="2.11"/>
			</g>
			<g>
				
					<rect x="84.752" y="487.89" transform="matrix(0.9033 0.4291 -0.4291 0.9033 220.2192 1.1302)" fill="#FFFFFF" width="45.703" height="2.111"/>
			</g>
			<g>
				
					<rect x="82.373" y="491.821" transform="matrix(0.7991 0.6011 -0.6011 0.7991 317.4275 35.7449)" fill="#FFFFFF" width="45.704" height="2.112"/>
			</g>
			<g>
				
					<rect x="79.256" y="495.196" transform="matrix(0.6627 0.7489 -0.7489 0.6627 406.0615 90.9086)" fill="#FFFFFF" width="45.702" height="2.111"/>
			</g>
			<g>
				
					<rect x="75.525" y="497.881" transform="matrix(0.4995 0.8663 -0.8663 0.4995 481.4726 164.4913)" fill="#FFFFFF" width="45.704" height="2.111"/>
			</g>
			<g>
				
					<rect x="71.334" y="499.763" transform="matrix(0.3161 0.9487 -0.9487 0.3161 539.5602 253.1664)" fill="#FFFFFF" width="45.702" height="2.111"/>
			</g>
			<g>
				
					<rect x="66.851" y="500.77" transform="matrix(0.1199 0.9928 -0.9928 0.1199 577.1564 352.6154)" fill="#FFFFFF" width="45.703" height="2.111"/>
			</g>
			<g>
				
					<rect x="84.052" y="479.064" transform="matrix(0.9967 0.0814 -0.0814 0.9967 41.1381 -5.2621)" fill="#FFFFFF" width="2.111" height="45.704"/>
			</g>
			<g>
				
					<rect x="79.532" y="478.232" transform="matrix(0.9602 0.2794 -0.2794 0.9602 143.1915 -2.5631)" fill="#FFFFFF" width="2.111" height="45.703"/>
			</g>
			<g>
				
					<rect x="75.272" y="476.513" transform="matrix(0.8851 0.4654 -0.4654 0.8851 241.1967 21.862)" fill="#FFFFFF" width="2.111" height="45.703"/>
			</g>
			<g>
				
					<rect x="71.44" y="473.977" transform="matrix(0.7741 0.633 -0.633 0.7741 330.8711 66.3218)" fill="#FFFFFF" width="2.11" height="45.703"/>
			</g>
			<g>
				
					<rect x="68.194" y="470.725" transform="matrix(0.6318 0.7752 -0.7752 0.6318 408.0952 128.0679)" fill="#FFFFFF" width="2.111" height="45.702"/>
			</g>
			<g>
				
					<rect x="65.663" y="466.889" transform="matrix(0.4638 0.8859 -0.8859 0.4638 469.6606 203.4976)" fill="#FFFFFF" width="2.112" height="45.702"/>
			</g>
			<g>
				
					<rect x="63.952" y="462.625" transform="matrix(0.2772 0.9608 -0.9608 0.2772 513.4333 288.4304)" fill="#FFFFFF" width="2.11" height="45.704"/>
			</g>
			<g>
				
					<rect x="63.128" y="458.103" transform="matrix(0.0796 0.9968 -0.9968 0.0796 538.5032 378.692)" fill="#FFFFFF" width="2.11" height="45.703"/>
			</g>
			<g>
				
					<rect x="41.429" y="475.305" transform="matrix(0.9926 0.1216 -0.1216 0.9926 58.3932 -4.2814)" fill="#FFFFFF" width="45.703" height="2.111"/>
			</g>
			<g>
				
					<rect x="42.444" y="470.824" transform="matrix(0.9482 0.3177 -0.3177 0.9482 153.2967 3.7028)" fill="#FFFFFF" width="45.703" height="2.111"/>
			</g>
			<g>
				
					<rect x="44.334" y="466.636" transform="matrix(0.8655 0.501 -0.501 0.8655 243.3465 29.2663)" fill="#FFFFFF" width="45.703" height="2.11"/>
			</g>
			<g>
				
					<rect x="47.025" y="462.91" transform="matrix(0.7477 0.664 -0.664 0.7477 325.7106 70.6521)" fill="#FFFFFF" width="45.703" height="2.111"/>
			</g>
			<g>
				
					<rect x="50.406" y="459.799" transform="matrix(0.5998 0.8002 -0.8002 0.5998 398.0895 125.8356)" fill="#FFFFFF" width="45.702" height="2.111"/>
			</g>
			<g>
				
					<rect x="54.342" y="457.427" transform="matrix(0.4275 0.904 -0.904 0.4275 458.6582 192.6832)" fill="#FFFFFF" width="45.702" height="2.111"/>
			</g>
			<g>
				
					<rect x="58.673" y="455.889" transform="matrix(0.238 0.9713 -0.9713 0.238 505.9324 269.0031)" fill="#FFFFFF" width="45.702" height="2.111"/>
			</g>
		</g>
		<g>
			<g>
				<rect x="474.185" y="388.833" fill="#FFFFFF" width="2.889" height="62.551"/>
			</g>
			<g>
				
					<rect x="480.443" y="389.464" transform="matrix(0.9798 0.2001 -0.2001 0.9798 93.9596 -87.9343)" fill="#FFFFFF" width="2.889" height="62.552"/>
			</g>
			<g>
				
					<rect x="486.447" y="391.337" transform="matrix(0.9199 0.392 -0.392 0.9199 204.7388 -157.4429)" fill="#FFFFFF" width="2.89" height="62.551"/>
			</g>
			<g>
				
					<rect x="491.955" y="394.371" transform="matrix(0.8227 0.5685 -0.5685 0.8227 329.473 -205.0245)" fill="#FFFFFF" width="2.889" height="62.551"/>
			</g>
			<g>
				
					<rect x="496.744" y="398.447" transform="matrix(0.6928 0.7212 -0.7212 0.6928 462.9558 -227.2498)" fill="#FFFFFF" width="2.89" height="62.55"/>
			</g>
			<g>
				
					<rect x="500.623" y="403.398" transform="matrix(0.5342 0.8453 -0.8453 0.5342 601.2806 -221.9607)" fill="#FFFFFF" width="2.888" height="62.55"/>
			</g>
			<g>
				
					<rect x="503.432" y="409.024" transform="matrix(0.3543 0.9351 -0.9351 0.3543 737.7328 -187.8261)" fill="#FFFFFF" width="2.889" height="62.553"/>
			</g>
			<g>
				
					<rect x="505.057" y="415.101" transform="matrix(0.1602 0.9871 -0.9871 0.1602 865.9521 -125.1047)" fill="#FFFFFF" width="2.889" height="62.55"/>
			</g>
			<g>
				
					<rect x="475.604" y="451.21" transform="matrix(0.9992 0.0406 -0.0406 0.9992 18.807 -20.2178)" fill="#FFFFFF" width="62.55" height="2.889"/>
			</g>
			<g>
				
					<rect x="474.718" y="457.436" transform="matrix(0.9708 0.2397 -0.2397 0.9708 124.7527 -107.914)" fill="#FFFFFF" width="62.55" height="2.889"/>
			</g>
			<g>
				
					<rect x="472.604" y="463.359" transform="matrix(0.9033 0.4291 -0.4291 0.9033 248.1809 -171.2432)" fill="#FFFFFF" width="62.552" height="2.889"/>
			</g>
			<g>
				
					<rect x="469.348" y="468.74" transform="matrix(0.7991 0.6011 -0.6011 0.7991 383.1965 -206.5046)" fill="#FFFFFF" width="62.551" height="2.889"/>
			</g>
			<g>
				
					<rect x="465.081" y="473.36" transform="matrix(0.6627 0.7489 -0.7489 0.6627 522.962 -211.5642)" fill="#FFFFFF" width="62.551" height="2.889"/>
			</g>
			<g>
				
					<rect x="459.977" y="477.032" transform="matrix(0.4995 0.8663 -0.8663 0.4995 660.3856 -186.0991)" fill="#FFFFFF" width="62.549" height="2.89"/>
			</g>
			<g>
				
					<rect x="454.241" y="479.61" transform="matrix(0.3161 0.9487 -0.9487 0.3161 788.4349 -131.6268)" fill="#FFFFFF" width="62.549" height="2.889"/>
			</g>
			<g>
				
					<rect x="448.103" y="480.987" transform="matrix(0.1198 0.9928 -0.9928 0.1198 900.8822 -51.3072)" fill="#FFFFFF" width="62.548" height="2.89"/>
			</g>
			<g>
				
					<rect x="471.646" y="451.28" transform="matrix(0.9967 0.0811 -0.0811 0.9967 40.7159 -36.7966)" fill="#FFFFFF" width="2.888" height="62.552"/>
			</g>
			<g>
				
					<rect x="465.459" y="450.142" transform="matrix(0.9603 0.2791 -0.2791 0.9603 152.9124 -111.1796)" fill="#FFFFFF" width="2.89" height="62.552"/>
			</g>
			<g>
				
					<rect x="459.628" y="447.789" transform="matrix(0.8849 0.4658 -0.4658 0.8849 276.2041 -159.6172)" fill="#FFFFFF" width="2.889" height="62.551"/>
			</g>
			<g>
				
					<rect x="454.384" y="444.317" transform="matrix(0.7739 0.6333 -0.6333 0.7739 404.2624 -181.1487)" fill="#FFFFFF" width="2.89" height="62.551"/>
			</g>
			<g>
				
					<rect x="449.94" y="439.866" transform="matrix(0.6318 0.7751 -0.7751 0.6318 531.3644 -176.4124)" fill="#FFFFFF" width="2.89" height="62.552"/>
			</g>
			<g>
				
					<rect x="446.478" y="434.616" transform="matrix(0.4636 0.886 -0.886 0.4636 653.0476 -146.9813)" fill="#FFFFFF" width="2.89" height="62.552"/>
			</g>
			<g>
				
					<rect x="444.136" y="428.78" transform="matrix(0.2772 0.9608 -0.9608 0.2772 764.0804 -95.5978)" fill="#FFFFFF" width="2.889" height="62.551"/>
			</g>
			<g>
				
					<rect x="443.008" y="422.592" transform="matrix(0.0797 0.9968 -0.9968 0.0797 861.4324 -25.3633)" fill="#FFFFFF" width="2.89" height="62.551"/>
			</g>
			<g>
				
					<rect x="413.31" y="446.136" transform="matrix(0.9926 0.1216 -0.1216 0.9926 57.7182 -50.7349)" fill="#FFFFFF" width="62.552" height="2.889"/>
			</g>
			<g>
				
					<rect x="414.699" y="440.001" transform="matrix(0.9482 0.3177 -0.3177 0.9482 163.3766 -118.8275)" fill="#FFFFFF" width="62.551" height="2.89"/>
			</g>
			<g>
				
					<rect x="417.287" y="434.27" transform="matrix(0.8654 0.501 -0.501 0.8654 278.6461 -166.1025)" fill="#FFFFFF" width="62.551" height="2.889"/>
			</g>
			<g>
				
					<rect x="420.967" y="429.172" transform="matrix(0.7477 0.664 -0.664 0.7477 400.018 -191.6595)" fill="#FFFFFF" width="62.553" height="2.889"/>
			</g>
			<g>
				
					<rect x="425.597" y="424.912" transform="matrix(0.5997 0.8002 -0.8002 0.5997 524.0325 -194.9336)" fill="#FFFFFF" width="62.551" height="2.889"/>
			</g>
			<g>
				
					<rect x="430.983" y="421.666" transform="matrix(0.4275 0.904 -0.904 0.4275 647.1261 -175.6629)" fill="#FFFFFF" width="62.552" height="2.888"/>
			</g>
			<g>
				
					<rect x="436.909" y="419.562" transform="matrix(0.238 0.9713 -0.9713 0.238 765.6449 -133.9359)" fill="#FFFFFF" width="62.552" height="2.89"/>
			</g>
		</g>
	</g>
</g>
</svg>
