<?xml version="1.0" encoding="utf-8"?>
<!-- Generator: Adobe Illustrator 15.0.0, SVG Export Plug-In . SVG Version: 6.00 Build 0)  -->
<!DOCTYPE svg PUBLIC "-//W3C//DTD SVG 1.1//EN" "http://www.w3.org/Graphics/SVG/1.1/DTD/svg11.dtd">
<svg version="1.1" xmlns="http://www.w3.org/2000/svg" xmlns:xlink="http://www.w3.org/1999/xlink" x="0px" y="0px" width="580px"
	 height="580px" viewBox="0 0 580 580" enable-background="new 0 0 580 580" xml:space="preserve">
<g id="Layer_1">
	<g id="Layer_2">
		<g id="g1327">
			<path id="path1329" fill="#111111" stroke="#EEEEEE" stroke-width="3.408" d="M66.275,1.768
				c-41.335,0-64.571,21.371-64.571,65.036v450.123c0,40.844,20.895,62.229,62.192,62.229h452.024
				c41.307,0,62.229-20.315,62.229-62.229V66.804c0-42.602-20.923-65.036-63.521-65.036C514.625,1.768,66.133,1.625,66.275,1.768z"
				/>
		</g>
	</g>
</g>
<g id="Layer_2_1_">
	<g>
		<g>
			<circle fill="#FFFFFF" cx="142.833" cy="384.504" r="17.249"/>
			<path fill="#FFFFFF" d="M230.827,79.815H54.839c-12.703,0-23,10.297-23,23v367.98c0,12.701,10.297,23,23,23h175.988
				c12.703,0,23-10.299,23-23v-367.98C253.827,90.112,243.53,79.815,230.827,79.815z M142.833,138.312
				c24.852,0,44.998,20.146,44.998,44.998c0,24.852-20.146,44.998-44.998,44.998s-44.998-20.146-44.998-44.998
				C97.835,158.458,117.981,138.312,142.833,138.312z M142.833,457.797c-40.479,0-73.292-32.814-73.292-73.293
				s32.814-73.293,73.292-73.293s73.293,32.814,73.293,73.293S183.311,457.797,142.833,457.797z"/>
			<circle fill="#FFFFFF" cx="142.833" cy="181.888" r="12.578"/>
		</g>
		<g>
			<path fill="#FFFFFF" d="M455.892,369.377v25.832c0,17.879-14.547,32.426-32.428,32.426h-1.648
				c-17.881,0-32.428-14.547-32.428-32.426v-27.482h-5.496v27.482c0,20.266,15.979,36.869,36,37.873v61.607H404.64v5.496h36v-5.496
				h-15.252v-61.607c20.021-1.004,36-17.607,36-37.873v-25.832H455.892z"/>
			<path fill="#FFFFFF" d="M420.991,418.842h3.298c13.66,0,24.733-11.074,24.733-24.732v-6.871h-52.764v6.871
				C396.259,407.767,407.332,418.842,420.991,418.842z"/>
			<path fill="#FFFFFF" d="M449.022,303.972c0-6.873-2.804-13.088-7.328-17.57v26.179h-5.496v-30.29
				c-3.231-1.778-6.902-2.854-10.81-3.025v33.315h-5.496v-33.315c-3.907,0.171-7.578,1.247-10.81,3.025v30.29h-5.496v-26.179
				c-4.524,4.482-7.328,10.697-7.328,17.57v77.77h52.764V303.972z"/>
		</g>
		<path fill="#FFFFFF" d="M518.657,157.115c-0.242,0-0.479,0.017-0.715,0.046c-1.375-3.027-4.296-5.122-7.688-5.122
			c-1.244,0-2.422,0.287-3.488,0.792c-11.188-42.107-47.265-73.017-89.923-73.017c-42.704,0-78.813,30.977-89.959,73.152
			c-1.135-0.588-2.405-0.928-3.755-0.928c-3.392,0-6.313,2.095-7.688,5.122c-0.234-0.029-0.473-0.046-0.715-0.046
			c-16.294,0-29.503,14.567-29.503,32.539s13.209,32.54,29.503,32.54c0.312,0,0.614-0.031,0.914-0.078
			c1.447,2.795,4.258,4.692,7.489,4.692c4.712,0,8.531-4.032,8.531-9.008V180.48h0.887c0-50.144,37.814-90.938,84.296-90.938
			c46.48,0,84.297,40.795,84.297,90.938h0.582v37.321c0,4.976,3.821,9.008,8.532,9.008c3.231,0,6.041-1.897,7.489-4.692
			c0.299,0.047,0.603,0.078,0.913,0.078c16.295,0,29.504-14.568,29.504-32.54S534.952,157.115,518.657,157.115z"/>
	</g>
</g>
</svg>
