<?xml version="1.0" encoding="utf-8"?>
<!-- Generator: Adobe Illustrator 15.0.0, SVG Export Plug-In . SVG Version: 6.00 Build 0)  -->
<!DOCTYPE svg PUBLIC "-//W3C//DTD SVG 1.1//EN" "http://www.w3.org/Graphics/SVG/1.1/DTD/svg11.dtd">
<svg version="1.1" xmlns="http://www.w3.org/2000/svg" xmlns:xlink="http://www.w3.org/1999/xlink" x="0px" y="0px" width="580px"
	 height="580px" viewBox="0 0 580 580" enable-background="new 0 0 580 580" xml:space="preserve">
<g id="Layer_1">
	<g id="Layer_2">
		<g id="g1327">
			<path id="path1329" fill="#111111" stroke="#EEEEEE" stroke-width="3.408" d="M66.275,1.768
				c-41.335,0-64.571,21.371-64.571,65.036v450.123c0,40.844,20.895,62.229,62.192,62.229h452.024
				c41.307,0,62.229-20.315,62.229-62.229V66.804c0-42.602-20.923-65.036-63.521-65.036C514.625,1.768,66.133,1.625,66.275,1.768z"
				/>
		</g>
	</g>
</g>
<g id="Layer_2_1_">
	<g>
		<path fill="#FFFFFF" d="M247.494,196.362l-17.665-30.603l17.582-30.224c9.671-16.622,17.62-31.287,17.665-32.588
			c0.063-1.814-8.429-2.366-36.386-2.366h-36.47l-14.94-26.023c-16.42-28.603-21.469-36.433-23.491-36.433
			c-0.736,0-9.409,14.052-19.27,31.226l-17.93,31.226l-36.434,0.002c-26.381,0.002-36.433,0.608-36.433,2.199
			c0,1.208,7.189,14.622,15.976,29.809c8.787,15.187,16.547,29.112,17.244,30.944c0.864,2.272-4.26,12.942-16.114,33.552
			c-9.561,16.621-16.844,31.09-16.186,32.154c0.745,1.207,14.525,1.942,36.57,1.952l35.376,0.017L134.57,262.4
			c9.889,17.157,18.561,31.203,19.271,31.212c1.965,0.024,7.102-7.955,23.44-36.417l14.94-26.023h36.47
			c25.484,0,36.469-0.633,36.469-2.103C265.159,227.912,257.21,213.194,247.494,196.362z M217.72,121.4h13.271l-6.101,11.324
			c-3.355,6.229-6.526,11.328-7.047,11.333c-0.521,0.006-3.747-5.091-7.171-11.324l-6.226-11.333H217.72z M154.442,77.87
			c0.88,0,12.303,19.983,12.303,21.522c0,0.654-5.537,1.189-12.303,1.189s-12.302-0.535-12.302-1.189
			C142.14,97.853,153.562,77.87,154.442,77.87z M90.914,121.4h13.271l-6.1,11.324c-3.355,6.229-6.526,11.328-7.047,11.333
			c-0.521,0.006-3.748-5.091-7.172-11.324L77.643,121.4H90.914z M91.039,210.353H77.643l6.225-11.333
			c3.424-6.233,6.651-11.333,7.172-11.333s3.747,5.1,7.171,11.333l6.226,11.333H91.039z M160.927,243.717
			c-3.199,5.592-6.118,10.167-6.485,10.167c-0.88,0-12.302-19.983-12.302-21.522c0-0.654,5.536-1.189,12.302-1.189
			s12.303,0.535,12.303,1.189S164.126,238.126,160.927,243.717z M187.25,197.578l-7.426,12.775H154.59
			c-17.943,0-25.768-0.684-27.078-2.366c-3.602-4.622-23.225-40.491-23.225-42.453c0-1.096,5.382-11.262,11.961-22.591l11.96-20.596
			h26.317h26.317l12.261,21.593l12.26,21.594l-5.344,9.635C197.08,180.468,191.334,190.552,187.25,197.578z M217.844,210.353
			h-13.396l6.226-11.333c3.424-6.233,6.65-11.333,7.171-11.333s3.748,5.1,7.172,11.333l6.225,11.333H217.844z"/>
		<path fill="#FFFFFF" d="M535.086,157.796c-1.537-4.005-10.576-8.301-16.095-7.65c-4.181,0.494-4.77-0.156-5.867-6.474
			c-6.933-39.917-42.461-75.61-82.023-83.745c-6.58-1.353-7.814-1.465-11.615-1.838c-0.046-11.229-1.104-17.997-12.188-18.384
			c-14.023-0.481-13.229,9.749-14.101,18.921c-6.603,1.473-7.054,0.352-12.919,1.805c-19.305,4.783-32.678,12.809-48.654,28.791
			c-15.588,15.594-23.287,28.832-28.473,48.955l-3.108,12.061l-6.586,0.397c-8.789,0.529-13.604,5.112-13.604,12.946
			c0,8.619,5.661,14.326,14.212,14.326c2.734,0,4.165,0.1,6.752,0.301c8.483,42.453,43.441,83.424,82.968,91.2l10.186,2.005v6.793
			c0,4.454,1.209,8.004,3.511,10.307c4.512,4.51,15.882,4.762,19.788,0.438c1.527-1.689,3.032-6.209,3.345-10.043l0.569-6.971
			l13.167-3.655c25.573-7.101,47.602-22.583,61.731-43.392c8.018-11.806,15.198-28.24,17.027-38.973
			c1.169-6.852,1.52-7.173,8.912-8.166C533.312,176.235,538.891,167.714,535.086,157.796z M473.186,118.215
			c0.762,0,5.112,5.644,7.981,12.04c2.838,6.33,4.197,13.402,4.481,15.711c0.486,3.961,0.28,4.002-21.894,4.363
			c-12.312,0.201-22.385-0.047-22.385-0.549C441.372,148.52,471.917,118.215,473.186,118.215z M420.694,108.559l0.488-22.824
			l4.389,0.549c2.414,0.303,9.946,1.33,16.503,4.407l11.729,7.333l-16.798,16.68l-16.799,16.678L420.694,108.559z M389.141,85.882
			l4.828-1.091v22.856c0,12.571-0.215,22.857-0.476,22.857c-1.183,0-30.858-30.977-31.126-32.168
			C361.94,96.438,380.343,86.266,389.141,85.882z M338.04,123.952l3.746-6.059l15.558,15.486c8.558,8.517,15.558,15.896,15.558,16.4
			c0,0.502-9.875,0.914-21.945,0.914c-19.082,0-20.98,0.207-22.139,0.044C331.134,138.114,333.833,130.76,338.04,123.952z
			 M341.436,209.091c-1.712,0.69-10.265-17.582-11.626-24.84l-1.19-6.344h23.246h23.246l-16.269,15.361
			C349.896,201.718,342.063,208.837,341.436,209.091z M377.04,239.279c-9.332-3.837-13.062-8.028-15.186-9.585
			c1.723-2.486,6.359-7.555,14.57-15.809c8.158-8.201,15.443-14.911,16.189-14.911c0.745,0,1.355,9.876,1.355,21.945
			c0,13.771-0.203,19.272,0.284,22.94C391.304,243.415,384.86,242.493,377.04,239.279z M413.718,180.018
			c-6.359,3.289-14.322,0.848-19.244-4.912c-4.292-5.022-6.143-14.912,1.416-22.033c7.745-7.298,16.813-7.252,23.793,0.401
			c4.377,4.8,5.804,10.702,3.473,16.28C421.694,173.254,416.737,178.458,413.718,180.018z M446.693,235.156
			c-6.22,2.909-13.878,5.803-17.016,6.43l-9.374,1.718v-22.164c0-12.191,0.609-22.165,1.354-22.165s8.402,7.081,17.016,15.735
			l15.662,15.734L446.693,235.156z M485.995,183.7c-0.601,2.655-1.794,7.643-4.542,13.678c-2.747,6.034-7.19,12.131-7.985,12.131
			s-8.522-7.111-17.173-15.801l-15.728-15.801h23.259h23.259L485.995,183.7z"/>
		<g>
			<path fill="#FFFFFF" d="M212.627,519.875c-16.809,3.379-21.506,3.66-31.749,1.906c-33.006-5.654-62.889-31.299-74.687-64.09
				c-5.698-15.838-5.676-44.506,0.047-60.447c12.131-33.792,42.484-59.221,76.226-63.855c11.718-1.61,16.745-1.318,31.901,1.857
				c18.938,3.969,22.512,3.812,18.669-0.819c-7.517-9.058-44.646-21.455-64.256-21.455c-13.157,0-35.918,4.221-46.164,8.561
				c-28.205,11.946-53.782,39.457-63.895,68.724c-3.7,10.709-5.81,20.789-5.946,36.504c-0.141,15.703,2.246,27.363,5.946,38.074
				c10.606,30.697,39.031,59.832,68.467,70.178c5.743,2.02,13.86,4.35,18.036,5.18c20.425,4.061,48.914,0.58,68.451-8.363
				c13.23-6.059,22.254-12.479,20.248-14.41C233.06,516.59,223.477,517.695,212.627,519.875z"/>
			<path fill="#FFFFFF" d="M271.933,412.154c-7.994-0.512-16.011-0.182-24.016-0.275c-3.792-9.777-5.522-20.759-11.731-29.307
				c-0.485-0.39-1.124-0.69-1.771-0.506c-4.037,2.906-4.814,8.604-6.947,12.859c-1.94,5.316-3.741,10.695-5.636,16.033
				c-10.213,0.869-21.033-0.471-30.848,2.715c-2.479,2.924,2.572,5.211,4.232,7.107c6.256,5.131,13.068,9.494,19.393,14.563
				c-2.69,9.809-7.651,19.307-8.213,29.535c1.688,4.539,6.847,0.82,9.208-0.971c6.451-4.26,12.483-9.844,19.432-13.016
				c8.884,4.75,16.433,11.99,25.304,16.885c3.964,0.113,2.815-5.477,2.347-8.006c-1.464-8.139-5.533-16.064-6.855-23.992
				c7.289-7.5,16.97-12.207,23.923-20.035C280.201,411.814,274.432,412.763,271.933,412.154z"/>
		</g>
		<path fill="#FFFFFF" d="M486.317,386.005c-7.448-0.02-14.902-0.01-22.354,0.001c-4.367,0.007-8.732,0.013-13.1,0.013
			c-8.389,0-15.033-0.023-21.223-0.076c-0.014-0.55,0.029-1.264,0.06-1.761c0.056-0.938,0.114-1.904,0.042-2.907
			c-0.02-11.921-0.017-24.042-0.014-35.765c0.002-7.324,0.004-14.648,0-21.972c0-2.354-1.909-4.263-4.264-4.263h-36.762
			c-2.355,0-4.264,1.909-4.264,4.264v62.569c-0.143,0.01-0.313,0.017-0.516,0.017c-0.678,0-1.431-0.072-2.158-0.142l-0.588-0.055
			c-0.143-0.013-0.287-0.018-0.432-0.017c-5.852,0.075-12.042,0.109-20.075,0.109c-3.798,0-7.597-0.008-11.395-0.016
			c-6.491-0.012-12.98-0.024-19.471-0.001c-2.349,0.01-4.248,1.916-4.248,4.265V423.1c0,2.35,1.901,4.258,4.251,4.265
			c7.207,0.021,14.418,0.01,21.627-0.002c4.22-0.007,8.439-0.012,12.659-0.012c8.071,0,14.474,0.023,20.434,0.074
			c0.013,0.55-0.03,1.265-0.061,1.763c-0.057,0.938-0.114,1.902-0.042,2.906c0.019,21.65,0.016,43.661,0.014,64.951
			c-0.002,13.519-0.004,27.036,0,40.555c0,2.354,1.908,4.263,4.264,4.263h36.762c2.354,0,4.261-1.906,4.264-4.259
			c0.021-14.262,0.01-28.765,0-42.788c-0.018-22.144-0.034-45.02,0.07-67.541c0.074-0.001,0.155-0.003,0.244-0.003
			c0.455,0,0.967,0.03,1.51,0.063c0.617,0.038,1.256,0.076,1.916,0.076c0.352,0,0.68-0.011,0.99-0.034
			c6.799-0.012,13.6-0.015,20.398-0.015l23.188,0.004c2.756,0,5.508,0,8.263-0.001c2.354-0.002,4.262-1.911,4.262-4.265v-32.831
			C490.57,387.919,488.668,386.011,486.317,386.005z"/>
	</g>
</g>
</svg>
