<?xml version="1.0" encoding="utf-8"?>
<!-- Generator: Adobe Illustrator 15.0.0, SVG Export Plug-In . SVG Version: 6.00 Build 0)  -->
<!DOCTYPE svg PUBLIC "-//W3C//DTD SVG 1.1//EN" "http://www.w3.org/Graphics/SVG/1.1/DTD/svg11.dtd">
<svg version="1.1" xmlns="http://www.w3.org/2000/svg" xmlns:xlink="http://www.w3.org/1999/xlink" x="0px" y="0px" width="580px"
	 height="580px" viewBox="0 0 580 580" enable-background="new 0 0 580 580" xml:space="preserve">
<g id="Layer_2">
	<g id="g1327">
		<path id="path1329" fill="#111111" stroke="#EEEEEE" stroke-width="3.408" d="M66.275,1.768
			c-41.335,0-64.571,21.371-64.571,65.036v450.123c0,40.844,20.895,62.229,62.192,62.229H515.92
			c41.307,0,62.229-20.315,62.229-62.229V66.804c0-42.601-20.923-65.036-63.521-65.036C514.624,1.768,66.133,1.625,66.275,1.768z"/>
	</g>
</g>
<g id="svg2" sodipodi:version="0.32" inkscape:version="0.46" sodipodi:docbase="s:\Data\FacilityIcons" sodipodi:docname="amenity_atm.svg" inkscape:output_extension="org.inkscape.output.svg.inkscape" xmlns:cc="http://creativecommons.org/ns#" xmlns:dc="http://purl.org/dc/elements/1.1/" xmlns:inkscape="http://www.inkscape.org/namespaces/inkscape" xmlns:sodipodi="http://sodipodi.sourceforge.net/DTD/sodipodi-0.dtd" xmlns:svg="http://www.w3.org/2000/svg" xmlns:rdf="http://www.w3.org/1999/02/22-rdf-syntax-ns#" display="none">
	
		<sodipodi:namedview  id="base" bordercolor="#666666" pagecolor="#ffffff" inkscape:zoom="1.3034483" inkscape:cx="285.84646" inkscape:cy="302.63451" showgrid="false" guidetolerance="10.0" gridtolerance="10.0" objecttolerance="10.0" borderopacity="1.0" inkscape:window-height="1005" inkscape:pageshadow="2" inkscape:pageopacity="0.0" inkscape:window-width="1280" inkscape:window-x="0" inkscape:window-y="0" inkscape:current-layer="svg2">
		</sodipodi:namedview>
	<defs  display="inline">
		
		
			<inkscape:perspective  id="perspective2441" sodipodi:type="inkscape:persp3d" inkscape:vp_x="0 : 290 : 1" inkscape:vp_y="0 : 1000 : 0" inkscape:vp_z="580 : 290 : 1" inkscape:persp3d-origin="290 : 193.33333 : 1">
			</inkscape:perspective>
	</defs>
	
		<path id="rect3241" sodipodi:nodetypes="ccccccccc" display="inline" opacity="0.75" fill="#FFFFFF" stroke="#FFFFFF" stroke-width="35.845" stroke-linecap="round" stroke-linejoin="round" enable-background="new    " d="
		M103.979,82.413v62.924h112.403c7.778-20.622,12.715-34.171,13.042-36.067l190.991-1.647l14.588,37.714h69.613V82.413H103.979z"/>
	
		<path id="path2443" sodipodi:nodetypes="ccccccc" display="inline" fill="none" stroke="#FFFFFF" stroke-width="20" stroke-linejoin="round" d="
		M227.906,158.094l-40.375,0.375c-1.603,9.296-122.313,358.625-122.313,358.625l403.813-3.406l-15.594-40.313l-333.094,2.844
		C120.344,476.219,195.438,243.832,227.906,158.094z"/>
	
		<path id="path3243" sodipodi:nodetypes="ccccc" display="inline" fill="none" stroke="#FFFFFF" stroke-width="20" stroke-linejoin="round" d="
		M242.694,117.588c-1.603,9.296-122.338,358.618-122.338,358.618l403.838-3.412L401.652,116.069L242.694,117.588z"/>
	
		<path id="path3163" sodipodi:nodetypes="ccccc" display="inline" opacity="0.1" fill="#FFFFFF" stroke="#FFFFFF" stroke-width="20" stroke-linecap="round" stroke-linejoin="round" enable-background="new    " d="
		M242.694,117.588c-1.603,9.296-122.338,358.618-122.338,358.618l403.838-3.412L401.652,116.069L242.694,117.588z"/>
	
		<path id="path3165" sodipodi:nodetypes="ccccccc" display="inline" opacity="0.1" fill="#FFFFFF" stroke="#FFFFFF" stroke-width="20" stroke-linecap="round" stroke-linejoin="round" enable-background="new    " d="
		M227.906,158.094l-40.375,0.375c-1.603,9.296-122.313,358.625-122.313,358.625l403.813-3.406l-15.594-40.313l-333.094,2.844
		C120.344,476.219,195.438,243.832,227.906,158.094z"/>
	<g id="g4372" transform="translate(-130.0802,122.26983)" display="inline">
	</g>
	<g id="g4998" transform="translate(-133.14896,123.86039)" display="inline">
		<g id="g5004">
			<path id="text2413" fill="#FFFFFF" d="M465.402,153.84c0.229,0.097,1.086,0.291,2.572,0.581
				c23.434,3.872,41.037,10.938,52.811,21.199c11.773,10.26,17.661,23.715,17.661,40.364c0,17.036-6.459,31.798-19.376,44.285
				c-12.917,12.487-30.807,19.263-53.669,20.327v26.426h-18.347v-26.135c-23.32-2.227-41.209-8.64-53.669-19.238
				c-12.46-10.6-19.49-25.434-21.09-44.504l30.864-4.646c2.4,14.326,7.259,25.36,14.575,33.104
				c7.315,7.744,17.089,12.148,29.321,13.213V175.62c-23.205-4.26-40.581-11.374-52.126-21.344
				c-11.545-9.97-17.318-22.795-17.318-38.477c0-15.584,5.716-28.966,17.147-40.146s28.863-17.641,52.297-19.384V43.782h18.347
				v12.487c19.433,1.646,34.75,6.873,45.953,15.681c11.202,8.809,18.232,21.15,21.091,37.025l-32.064,3.92
				c-1.829-9.873-5.659-17.689-11.488-23.449c-5.83-5.759-13.66-9.462-23.491-11.107V153.84z M447.055,150.646V78.048
				c-12.46,1.839-22.006,6.074-28.635,12.705c-6.63,6.631-9.945,14.302-9.945,23.014c0,9.971,3.429,17.835,10.288,23.595
				C425.622,143.12,435.052,147.549,447.055,150.646L447.055,150.646z M465.402,258.817c12.003-1.549,21.891-5.977,29.664-13.285
				c7.772-7.309,11.659-16.528,11.659-27.66c0-9.776-2.943-17.641-8.83-23.594c-5.888-5.953-16.719-11.012-32.493-15.174V258.817z"
				/>
		</g>
		
			<path id="path4370" sodipodi:nodetypes="cc" fill="none" stroke="#FFFFFF" stroke-width="30" stroke-linecap="round" stroke-linejoin="round" d="
			M455.376,43.427v265.043"/>
	</g>
</g>
<g id="Layer_4">
	<path fill="#FFFFFF" d="M708.5,504.5"/>
	<g>
		<g>
			<g>
				<path fill="#FFFFFF" d="M244.536,382.014l126.954,93.405c0,0,21.76,19.952,48.06,0l127.863-88.867
					c0,0,18.141,38.087-7.253,57.13c-25.393,19.044-62.576,23.582-109.729,70.733c-47.149,47.15-67.104,0-67.104,0
					s-78.898-63.476-98.845-65.292C244.536,447.306,229.122,394.707,244.536,382.014z"/>
				<g>
					<path fill="#FFFFFF" d="M360.939,442.773l-103.379-73.454c0,0-9.065-38.994,18.142-55.318L360.939,442.773z"/>
					<path fill="#FFFFFF" d="M375.898,434.611l-92.496-129.674c0,0-0.909-28.12,46.247-42.625L375.898,434.611z"/>
					<path fill="#FFFFFF" d="M389.296,426.451V246.898c0,0-25.393-7.258-48.969,9.973L389.296,426.451z"/>
					<path fill="#FFFFFF" d="M431.011,442.773l103.379-73.454c0,0,9.065-38.994-18.141-55.318L431.011,442.773z"/>
					<path fill="#FFFFFF" d="M416.054,434.611l92.495-129.674c0,0,0.909-28.12-46.248-42.625L416.054,434.611z"/>
					<path fill="#FFFFFF" d="M402.656,426.451V246.898c0,0,25.393-7.258,48.969,9.973L402.656,426.451z"/>
				</g>
			</g>
			<g>
				<g>
					<line x1="212.612" y1="170.68" x2="224.038" y2="231.616"/>
					
						<rect x="187.326" y="195.435" transform="matrix(0.1843 0.9829 -0.9829 0.1843 375.7917 -50.5084)" fill="#FFFFFF" width="61.998" height="11.425"/>
				</g>
				<g>
					<line x1="243.806" y1="170.68" x2="255.231" y2="231.616"/>
					
						<rect x="218.52" y="195.435" transform="matrix(0.1843 0.9829 -0.9829 0.1843 401.2362 -81.1672)" fill="#FFFFFF" width="61.998" height="11.424"/>
				</g>
				<g>
					<line x1="265.915" y1="146.46" x2="277.34" y2="207.397"/>
					
						<rect x="240.628" y="171.217" transform="matrix(0.1843 0.9829 -0.9829 0.1843 395.4664 -122.653)" fill="#FFFFFF" width="61.998" height="11.423"/>
				</g>
				<g>
					<line x1="179.589" y1="170.68" x2="191.015" y2="231.616"/>
					
						<rect x="154.303" y="195.435" transform="matrix(0.1843 0.9829 -0.9829 0.1843 348.8541 -18.0504)" fill="#FFFFFF" width="61.998" height="11.424"/>
				</g>
				<g>
					<polygon fill="#FFFFFF" points="89.041,401.999 75.822,468.248 179.589,435.055 134.015,395.064 					"/>
				</g>
				<g>
					<path fill="#FFFFFF" d="M105.838,292.623c-2.992-11.887-5.417-23.479-6.75-34.303c-11.578,2.952-22.372,4.471-32.302,4.471
						c-11.429,0-21.741-1.967-30.897-5.882c2.886,13.288,6.183,26.017,9.722,38.076c1.4,0.64,2.849,1.25,4.406,1.791
						C65.397,302.124,84.112,300.698,105.838,292.623z"/>
					<path fill="#FFFFFF" d="M118.804,338.18c-3.397-11.337-6.899-22.961-10.044-34.458c-14.01,5.09-27.013,7.655-38.927,7.655
						c-7.06,0-13.729-0.909-20.015-2.703c3.764,11.728,7.703,22.723,11.639,32.87c0.593,0.233,1.162,0.479,1.779,0.695
						C78.558,347.569,97.186,346.171,118.804,338.18z"/>
					<path fill="#FFFFFF" d="M98.099,246.789c-0.515-11.399,0.589-21.612,4.056-29.973c-2.362,0.085-4.694,0.143-6.974,0.143
						c-28.603,0-50.717-6.782-65.933-20.262c-1.036-0.918-2.006-1.85-2.938-2.789c1.432,16.767,3.736,33.012,6.659,48.579
						c1.504,0.957,3.083,1.885,4.814,2.737C53.337,252.87,73.576,253.36,98.099,246.789z"/>
					<path fill="#FFFFFF" d="M37.014,188.312c15.519,13.612,40.077,19.177,73.033,16.606c3.112-3.052,6.917-5.552,11.496-7.424
						c-20.372-24.882-28.497-48.548-24.153-70.628c2.02-10.271,6.566-19.25,12.387-27.025
						c-43.365,15.837-77.511,39.767-83.056,75.908C29.095,179.898,32.383,184.25,37.014,188.312z"/>
					<path fill="#FFFFFF" d="M325.551,68.896c0,0-106.588-1.197-192.618,23.454c-11.188,9.203-21.338,21.43-24.339,36.757
						c-3.87,19.75,4.597,41.605,25.172,65.19c6.551-0.934,14.146-1.012,22.955-0.085c99.209,10.443,177.532-53.956,203.638-73.102
						C386.469,101.965,382.725,76.737,325.551,68.896z M317.982,112.283c-7.013,0-12.695-5.684-12.695-12.696
						c0-7.011,5.683-12.695,12.695-12.695c7.011,0,12.694,5.684,12.694,12.695C330.677,106.599,324.993,112.283,317.982,112.283z"/>
					<path fill="#FFFFFF" d="M130.273,379.341c-0.42-1.88-0.879-3.82-1.4-5.855c-1.981-7.742-4.318-15.917-6.803-24.332
						c-14.045,5.112-27.078,7.688-39.017,7.688c-5.625,0-11.002-0.581-16.138-1.719c4.414,10.588,8.706,20.018,12.618,28.134
						C93.801,387.483,110.781,386.171,130.273,379.341z"/>
					<path fill="#FFFFFF" d="M96.938,397.123c-3.73,0-7.349-0.266-10.866-0.768c6.877,13.285,11.472,20.642,11.472,20.642
						s42.052,26.091,34.816-26.293C119.68,394.978,107.854,397.123,96.938,397.123z"/>
					<circle cx="317.982" cy="99.587" r="12.695"/>
				</g>
			</g>
		</g>
		<polyline fill="none" stroke="#FFFFFF" stroke-width="5" stroke-miterlimit="10" points="305.287,75.629 360.939,44.629 
			508.55,80.629 		"/>
	</g>
</g>
</svg>
