<?xml version="1.0" encoding="utf-8"?>
<!-- Generator: Adobe Illustrator 15.0.0, SVG Export Plug-In . SVG Version: 6.00 Build 0)  -->
<!DOCTYPE svg PUBLIC "-//W3C//DTD SVG 1.1//EN" "http://www.w3.org/Graphics/SVG/1.1/DTD/svg11.dtd">
<svg version="1.1" id="Layer_1" xmlns="http://www.w3.org/2000/svg" xmlns:xlink="http://www.w3.org/1999/xlink" x="0px" y="0px"
	 width="580px" height="580px" viewBox="0 0 580 580" enable-background="new 0 0 580 580" xml:space="preserve">
<g id="Layer_2">
	<g id="g1327">
		<path id="path1329" fill="#111111" stroke="#EEEEEE" stroke-width="3.408" d="M66.275,1.768
			c-41.335,0-64.571,21.371-64.571,65.036v450.123c0,40.844,20.896,62.229,62.192,62.229h452.024
			c41.307,0,62.229-20.314,62.229-62.229V66.804c0-42.602-20.923-65.036-63.521-65.036C514.625,1.768,66.133,1.625,66.275,1.768z"/>
	</g>
</g>
<g id="svg2" sodipodi:version="0.32" inkscape:version="0.46" sodipodi:docname="amenity_atm.svg" sodipodi:docbase="s:\Data\FacilityIcons" xmlns:cc="http://creativecommons.org/ns#" xmlns:sodipodi="http://sodipodi.sourceforge.net/DTD/sodipodi-0.dtd" xmlns:svg="http://www.w3.org/2000/svg" xmlns:inkscape="http://www.inkscape.org/namespaces/inkscape" xmlns:rdf="http://www.w3.org/1999/02/22-rdf-syntax-ns#" xmlns:dc="http://purl.org/dc/elements/1.1/" inkscape:output_extension="org.inkscape.output.svg.inkscape" display="none">
	
		<sodipodi:namedview  id="base" inkscape:pageopacity="0.0" inkscape:window-y="0" inkscape:window-width="1280" inkscape:window-height="1005" inkscape:pageshadow="2" inkscape:current-layer="svg2" inkscape:window-x="0" showgrid="false" bordercolor="#666666" guidetolerance="10.0" inkscape:zoom="1.3034483" pagecolor="#ffffff" objecttolerance="10.0" borderopacity="1.0" inkscape:cx="285.84646" inkscape:cy="302.63451" gridtolerance="10.0">
		</sodipodi:namedview>
	<defs  display="inline">
		
		
			<inkscape:perspective  id="perspective2441" inkscape:persp3d-origin="290 : 193.33333 : 1" sodipodi:type="inkscape:persp3d" inkscape:vp_z="580 : 290 : 1" inkscape:vp_x="0 : 290 : 1" inkscape:vp_y="0 : 1000 : 0">
			</inkscape:perspective>
	</defs>
	
		<path id="rect3241" sodipodi:nodetypes="ccccccccc" display="inline" opacity="0.75" fill="#FFFFFF" stroke="#FFFFFF" stroke-width="35.845" stroke-linecap="round" stroke-linejoin="round" enable-background="new    " d="
		M103.979,82.413v62.924h112.402c7.778-20.622,12.716-34.171,13.042-36.066l190.991-1.647l14.589,37.714h69.612V82.413H103.979z"/>
	
		<path id="path2443" sodipodi:nodetypes="ccccccc" display="inline" fill="none" stroke="#FFFFFF" stroke-width="20" stroke-linejoin="round" d="
		M227.906,158.094l-40.375,0.375c-1.603,9.296-122.313,358.625-122.313,358.625l403.813-3.406l-15.594-40.313l-333.094,2.845
		C120.344,476.219,195.438,243.832,227.906,158.094z"/>
	
		<path id="path3243" sodipodi:nodetypes="ccccc" display="inline" fill="none" stroke="#FFFFFF" stroke-width="20" stroke-linejoin="round" d="
		M242.694,117.588c-1.604,9.296-122.338,358.618-122.338,358.618l403.838-3.411L401.652,116.069L242.694,117.588z"/>
	
		<path id="path3163" sodipodi:nodetypes="ccccc" display="inline" opacity="0.1" fill="#FFFFFF" stroke="#FFFFFF" stroke-width="20" stroke-linecap="round" stroke-linejoin="round" enable-background="new    " d="
		M242.694,117.588c-1.604,9.296-122.338,358.618-122.338,358.618l403.838-3.411L401.652,116.069L242.694,117.588z"/>
	
		<path id="path3165" sodipodi:nodetypes="ccccccc" display="inline" opacity="0.1" fill="#FFFFFF" stroke="#FFFFFF" stroke-width="20" stroke-linecap="round" stroke-linejoin="round" enable-background="new    " d="
		M227.906,158.094l-40.375,0.375c-1.603,9.296-122.313,358.625-122.313,358.625l403.813-3.406l-15.594-40.313l-333.094,2.845
		C120.344,476.219,195.438,243.832,227.906,158.094z"/>
	<g id="g4372" transform="translate(-130.0802,122.26983)" display="inline">
	</g>
	<g id="g4998" transform="translate(-133.14896,123.86039)" display="inline">
		<g id="g5004">
			<path id="text2413" fill="#FFFFFF" d="M465.402,153.84c0.229,0.098,1.086,0.291,2.572,0.581
				c23.435,3.872,41.037,10.938,52.811,21.199c11.772,10.261,17.66,23.716,17.66,40.364c0,17.036-6.459,31.798-19.376,44.285
				c-12.917,12.487-30.807,19.263-53.669,20.327v26.426h-18.347v-26.135c-23.32-2.228-41.209-8.641-53.669-19.238
				c-12.46-10.6-19.49-25.434-21.09-44.504l30.864-4.646c2.399,14.326,7.259,25.36,14.574,33.104s17.09,12.148,29.321,13.213V175.62
				c-23.205-4.26-40.581-11.374-52.126-21.344s-17.318-22.795-17.318-38.478c0-15.584,5.717-28.966,17.147-40.146
				s28.863-17.641,52.297-19.384V43.782h18.347v12.487c19.434,1.646,34.75,6.873,45.953,15.681
				c11.202,8.81,18.232,21.15,21.091,37.025l-32.063,3.92c-1.829-9.873-5.659-17.689-11.488-23.449
				c-5.83-5.759-13.66-9.462-23.491-11.107L465.402,153.84L465.402,153.84z M447.055,150.646V78.048
				c-12.46,1.84-22.006,6.074-28.635,12.705c-6.63,6.632-9.945,14.303-9.945,23.015c0,9.971,3.429,17.835,10.288,23.595
				C425.622,143.12,435.052,147.549,447.055,150.646L447.055,150.646z M465.402,258.817c12.003-1.549,21.892-5.977,29.664-13.285
				s11.659-16.527,11.659-27.66c0-9.775-2.942-17.641-8.83-23.594s-16.719-11.012-32.493-15.174V258.817z"/>
		</g>
		
			<path id="path4370" sodipodi:nodetypes="cc" fill="none" stroke="#FFFFFF" stroke-width="30" stroke-linecap="round" stroke-linejoin="round" d="
			M455.376,43.427V308.47"/>
	</g>
</g>
<g id="Layer_4">
	<g>
		<path fill="#FFFFFF" d="M485.895,45.767h-34.211c0.049,0.495,0.081,0.994,0.081,1.499c0,11.008-19.188,19.932-33.635,19.932
			c-14.445,0-33.012-8.924-33.012-19.932c0-0.505,0.033-1.003,0.083-1.499h-37.574h-0.751l-55.058,41.36v42.978l55.809-16.928v96.08
			h138.268v-95.853l55.059,16.7V87.128L485.895,45.767z"/>
		<polygon fill="#FFFFFF" points="209.849,283.787 12.628,446.624 43.564,493.028 238.949,326.743 		"/>
		<polygon fill="#FFFFFF" points="246.568,324.664 416.387,291.591 393.396,246.205 217.469,279.698 		"/>
		<polygon fill="#FFFFFF" points="148.876,420.157 148.876,541.875 371.282,541.875 371.282,368.313 212.272,368.313 		"/>
		<polygon fill="#FFFFFF" points="385.723,541.875 495.996,472.242 495.996,329.86 384.793,368.313 		"/>
		<polygon fill="#FFFFFF" points="365.364,320.047 250.788,340.063 219.836,356.24 383.754,353.765 485.936,319.469 		"/>
		<path fill="#FFFFFF" d="M30.326,222.235l0.439,5.984l34.987-2.57l-0.021,4.342l-34.995,2.571l0.438,5.982l34.528-2.537
			l-0.023,5.16l-34.944,2.567l0.438,5.982l34.478-2.532l-0.022,4.968l-34.894,2.563l0.438,5.983l34.427-2.529l-0.026,5.692
			l-34.839,2.56l0.438,5.983l36.494-2.681l-0.025-0.358l3.974-0.652l5.813-0.897c1.929-0.295,3.853-0.583,5.773-0.844
			c1.922-0.271,3.84-0.562,5.759-0.804l5.752-0.777l5.753-0.734c3.835-0.506,7.673-1.01,11.514-1.563
			c15.376-2.186,30.753-4.938,46.519-8.878c3.947-0.997,7.923-2.081,11.959-3.299c4.041-1.209,8.14-2.553,12.37-4.158
			c4.244-1.622,8.586-3.476,13.352-6.012c2.386-1.293,4.869-2.765,7.549-4.718c2.659-1.964,5.57-4.37,8.543-8.033
			c1.475-1.841,2.952-4.02,4.222-6.635c1.266-2.59,2.296-5.647,2.813-8.833c0.517-3.188,0.503-6.471,0.057-9.393
			c-0.435-2.941-1.248-5.541-2.178-7.757c-1.899-4.445-4.151-7.521-6.256-10.053c-2.132-2.517-4.208-4.478-6.229-6.216
			c-4.03-3.433-7.84-6.021-11.601-8.344c-3.742-2.324-7.407-4.366-11.055-6.255c-3.646-1.915-7.198-3.658-10.865-5.364l-4.883-2.279
			c-1.546-0.733-3.079-1.479-4.593-2.241c-6.011-3.123-11.814-6.42-17.03-10.093c-5.201-3.657-9.918-7.607-13.43-11.712
			c-1.757-2.037-3.252-4.064-4.309-6.033c-1.075-1.961-1.772-3.798-2.146-5.469c-0.343-1.688-0.372-3.204-0.168-4.772
			c0.196-1.567,0.735-3.209,1.569-5.007c0.829-1.798,2.036-3.709,3.558-5.645c1.502-1.948,3.333-3.901,5.394-5.796
			c4.101-3.822,9.123-7.368,14.515-10.517c2.712-1.556,5.521-3.027,8.392-4.346c1.43-0.667,2.894-1.266,4.326-1.844
			c0.717-0.286,1.433-0.562,2.125-0.814c0.673-0.236,1.434-0.49,1.865-0.573l-0.202-0.417l31.042-17.82l-2.987-5.203l-30.673,17.608
			l-1.751-3.622l30.108-19.1l-3.215-5.065l-29.522,18.73l-1.843-3.811l0.235,0.348l30.311-20.5l-3.361-4.97L154.866,58.23
			l-1.904-3.938l29.405-19.888l-3.361-4.97l-28.683,19.398l-2.678-5.538l29.174-19.73l-3.361-4.97l-30.311,20.5l0.017,0.024
			c-0.4,0.259-0.79,0.514-1.188,0.772c-0.943,0.609-1.855,1.217-2.756,1.831c-1.802,1.22-3.538,2.481-5.274,3.732
			c-3.459,2.519-6.844,5.107-10.159,7.849c-6.646,5.451-13.058,11.429-19.07,18.429c-2.983,3.52-5.856,7.31-8.501,11.496
			c-2.625,4.191-5.002,8.81-6.873,13.907c-1.864,5.09-3.103,10.72-3.453,16.536c-0.351,5.815,0.32,11.767,1.841,17.242
			c1.481,5.499,3.763,10.515,6.407,14.947c2.665,4.433,5.626,8.36,8.751,11.883c3.116,3.533,6.414,6.64,9.717,9.554
			c3.313,2.904,6.696,5.549,10.118,8.012c6.842,4.922,13.761,9.251,20.778,13.148c1.744,0.993,3.493,1.958,5.246,2.903l5.052,2.679
			c2.952,1.606,5.954,3.31,8.756,5.027c1.13,0.707,2.232,1.421,3.313,2.14c-4.955,0.772-10.381,1.313-15.904,1.66
			c-13.457,0.863-27.602,0.832-41.765,0.551c-3.546-0.085-7.1-0.183-10.658-0.338l-5.339-0.248l-5.343-0.372
			c-1.78-0.12-3.562-0.301-5.339-0.477c-1.778-0.166-3.555-0.371-5.326-0.597c-1.771-0.207-3.538-0.474-5.289-0.735l-1.936-0.325
			v-1.112l-36.477-0.007l-0.001,6l33.353,0.006l-0.021,4.59l-33.869,1.492l0.264,5.994l33.578-1.479l-0.018,3.82L30.326,222.235z
			 M177.117,210.997c-0.115-0.222-0.242-0.514-0.366-0.857c0.48,0.588,0.828,1.102,0.959,1.408
			C177.894,211.916,177.664,211.991,177.117,210.997z"/>
	</g>
</g>
</svg>
