<?xml version="1.0" encoding="utf-8"?>
<!-- Generator: Adobe Illustrator 15.0.0, SVG Export Plug-In . SVG Version: 6.00 Build 0)  -->
<!DOCTYPE svg PUBLIC "-//W3C//DTD SVG 1.1//EN" "http://www.w3.org/Graphics/SVG/1.1/DTD/svg11.dtd">
<svg version="1.1" xmlns="http://www.w3.org/2000/svg" xmlns:xlink="http://www.w3.org/1999/xlink" x="0px" y="0px" width="580px"
	 height="580px" viewBox="0 0 580 580" enable-background="new 0 0 580 580" xml:space="preserve">
<g id="Layer_1">
	<g id="Layer_2">
		<g id="g1327">
			<path id="path1329" fill="#111111" stroke="#EEEEEE" stroke-width="3.408" d="M66.275,1.768
				c-41.335,0-64.571,21.371-64.571,65.036v450.123c0,40.844,20.895,62.229,62.192,62.229h452.024
				c41.307,0,62.229-20.315,62.229-62.229V66.804c0-42.602-20.923-65.036-63.521-65.036C514.625,1.768,66.133,1.625,66.275,1.768z"
				/>
		</g>
	</g>
</g>
<g id="Layer_2_1_">
	<path fill="#FFFFFF" d="M509.302,249.335c12.532-14.619,27.09-41.844,5.256-76.24c-17.792-28.031-42.802-15.937-54.562-11.858
		c0,0-81.851,18.976-206.405,169.63c0,0-2.37,2.371-10.676,0c-8.305-2.37-47.75-43.002-47.75-43.002l-28.47,31.14
		c0,0-0.89,10.674-39.146,21.351c-38.255,10.677-49.822,7.118-49.822,7.118s-49.822,22.241-4.448,67.615
		c0,0,15.125,8.007,22.243,9.786h146.796c0,0,96.085-129.004,150.356-122.776l48.042,109.432h56.94v-0.21h11.646V249.335z"/>
</g>
</svg>
