<?xml version="1.0" encoding="utf-8"?>
<!-- Generator: Adobe Illustrator 15.0.0, SVG Export Plug-In . SVG Version: 6.00 Build 0)  -->
<!DOCTYPE svg PUBLIC "-//W3C//DTD SVG 1.1//EN" "http://www.w3.org/Graphics/SVG/1.1/DTD/svg11.dtd">
<svg version="1.1" xmlns="http://www.w3.org/2000/svg" xmlns:xlink="http://www.w3.org/1999/xlink" x="0px" y="0px" width="580px"
	 height="580px" viewBox="0 0 580 580" enable-background="new 0 0 580 580" xml:space="preserve">
<g id="Layer_2_1_">
	<g id="Layer_2">
		<g id="g1327">
			<path id="path1329" fill="#111111" stroke="#EEEEEE" stroke-width="3.408" d="M66.275,1.768
				c-41.335,0-64.571,21.371-64.571,65.036v450.123c0,40.844,20.895,62.229,62.192,62.229h452.024
				c41.307,0,62.229-20.315,62.229-62.229V66.804c0-42.602-20.923-65.036-63.521-65.036C514.625,1.768,66.133,1.625,66.275,1.768z"
				/>
		</g>
	</g>
</g>
<g id="Layer_1">
	<path fill="#FFFFFF" d="M374.536,51.951c-14.008-5.871-26.652-7.551-28.246-3.753c-1.158,2.766,3.865,7.673,12.086,12.403
		l-14.893,59.185l35.729-50.385c9.375,2.677,16.623,2.873,17.803,0.059C398.606,65.661,388.542,57.822,374.536,51.951z"/>
	<path fill="#FFFFFF" d="M83.209,204.177l39.046,46.906l-19.659-58.556c7.688-5.997,12.117-11.738,10.537-14.35
		c-2.131-3.524-14.395-0.012-27.391,7.847c-12.998,7.857-21.805,17.085-19.676,20.609C67.619,209.2,74.545,208.032,83.209,204.177z"
		/>
	<path fill="#FFFFFF" d="M491.54,361.805l-25.04,55.657l44.009-43.34c8.761,4.28,15.862,5.745,17.517,3.18
		c2.234-3.461-6.3-12.942-19.06-21.179c-12.761-8.237-24.916-12.106-27.149-8.648C480.19,349.996,484.276,355.709,491.54,361.805z"
		/>
	<path fill="#FFFFFF" d="M100.988,460.327L97.4,521.252l25.7-56.168c9.709,0.882,16.868-0.278,17.501-3.264
		c0.855-4.028-10.495-9.853-25.352-13.006c-14.857-3.155-27.592-2.446-28.45,1.582C86.177,453.331,92.03,457.215,100.988,460.327z"
		/>
	<g>
		<path fill="#FFFFFF" d="M161.466,189.385c-3.186,47.518,15.344,94.145,19.742,127.576c4.478,34.014,3.548,85.937,16.707,103.274
			c19.661,25.905,63.669,13.33,72.901-3.036c8.973-15.913,3.863-52.936,0-72.901c-4.875-25.199-12.118-49.571-10.632-71.381
			c1.873-27.481,24.083-57.049,24.301-94.164c0.285-48.585-18.935-114.95-62.269-106.312
			C186.531,79.554,164.571,143.078,161.466,189.385z M296.635,259.248c1.014,27.644,21.761,62.27,18.225,100.237
			c-2.903,31.166-33.092,87.481-16.706,126.057c6.898,16.243,33.612,26.89,54.676,21.263c32.335-8.637,31.235-57.233,37.968-104.793
			c5.737-40.533,18.853-61.711,25.82-98.72c6.449-34.269-2.104-81.985-9.114-103.276c-8.88-26.977-29.473-56.715-56.192-54.675
			C313.501,148.227,295.117,217.914,296.635,259.248z"/>
		<path fill="#FFFFFF" d="M222.216,72.441c43.333-8.638,62.554,57.727,62.269,106.312c-0.217,37.114-22.428,66.683-24.301,94.164
			c-1.485,21.81,5.757,46.182,10.632,71.381c3.863,19.966,8.973,56.988,0,72.901c-9.232,16.366-53.24,28.941-72.901,3.036
			c-13.158-17.338-12.229-69.261-16.707-103.274c-4.398-33.431-22.928-80.059-19.742-127.576
			C164.571,143.078,186.531,79.554,222.216,72.441z"/>
		<path fill="#FFFFFF" d="M351.31,145.341c26.72-2.04,47.313,27.698,56.192,54.675c7.01,21.291,15.563,69.007,9.114,103.276
			c-6.968,37.009-20.083,58.187-25.82,98.72c-6.732,47.56-5.633,96.156-37.968,104.793c-21.063,5.627-47.777-5.02-54.676-21.263
			c-16.386-38.575,13.803-94.891,16.706-126.057c3.536-37.968-17.211-72.593-18.225-100.237
			C295.117,217.914,313.501,148.227,351.31,145.341z"/>
	</g>
</g>
</svg>
