<?xml version="1.0" encoding="utf-8"?>
<!-- Generator: Adobe Illustrator 15.0.0, SVG Export Plug-In . SVG Version: 6.00 Build 0)  -->
<!DOCTYPE svg PUBLIC "-//W3C//DTD SVG 1.1//EN" "http://www.w3.org/Graphics/SVG/1.1/DTD/svg11.dtd">
<svg version="1.1" xmlns="http://www.w3.org/2000/svg" xmlns:xlink="http://www.w3.org/1999/xlink" x="0px" y="0px" width="580px"
	 height="580px" viewBox="0 0 580 580" enable-background="new 0 0 580 580" xml:space="preserve">
<g id="Layer_2">
	<g id="g1327">
		<path id="path1329" fill="#111111" stroke="#EEEEEE" stroke-width="3.408" d="M66.275,1.768
			c-41.335,0-64.571,21.371-64.571,65.036v450.123c0,40.844,20.895,62.229,62.192,62.229H515.92
			c41.307,0,62.229-20.315,62.229-62.229V66.804c0-42.601-20.923-65.036-63.521-65.036C514.624,1.768,66.133,1.625,66.275,1.768z"/>
	</g>
</g>
<g id="Layer_4">
	<g>
		<path fill="#FFFFFF" d="M370.162,384.235c-5.82-2.404-11.984-4.606-18.4-6.638c-0.004,0.014-0.006,0.027-0.01,0.042
			c0.061,0.018,0.119,0.035,0.178,0.054v139.693c6.361-2.021,12.459-4.225,18.236-6.612c38.217-15.794,59.264-38.273,59.264-63.296
			C429.43,422.48,408.381,400.021,370.162,384.235z"/>
		<path fill="#FFFFFF" d="M133.524,377.693c0.054-0.017,0.108-0.033,0.162-0.05c-0.039-0.144-0.071-0.289-0.098-0.436
			c-6.866,2.136-13.447,4.469-19.644,7.027c-38.221,15.786-59.27,38.246-59.27,63.243c0,25.021,21.048,47.501,59.267,63.296
			c6.222,2.572,12.818,4.926,19.714,7.07c0.033-0.071,0.069-0.141,0.105-0.21c-0.08-0.024-0.16-0.049-0.238-0.073V377.693z"/>
		<path fill="#FFFFFF" d="M169.649,368.441v158.135c22.588,4.105,47.121,6.266,72.395,6.266c25.791,0,50.809-2.247,73.776-6.516
			V368.691c-22.969-4.268-47.987-6.515-73.776-6.515C216.772,362.177,192.239,364.337,169.649,368.441z M291.848,416.473h-97.959
			v-17.95h97.959V416.473z"/>
		<path fill="#FFFFFF" d="M525.324,47.49h-32.637v278.367c-31.766,3.856-55.248,16.847-55.248,32.737
			c0,14.055,18.303,26.703,44.471,31.906c4.623,0.919,9.066,1.77,13.547,1.495h29.867V47.49z"/>
		<path fill="#FFFFFF" d="M377.041,230.351c18.779,0,34-15.222,34-34v-77.327c0-18.778-15.221-34-34-34h-2.217
			c-18.777,0-34,15.222-34,34v31.333H154.709v-31.333c0-18.778-15.222-34-34-34h-2.217c-18.778,0-34,15.222-34,34v77.327
			c0,18.778,15.222,34,34,34h2.217c18.778,0,34-15.222,34-34v-19.883h186.115v19.883c0,18.778,15.223,34,34,34H377.041z"/>
	</g>
</g>
</svg>
