<?xml version="1.0" encoding="utf-8"?>
<!-- Generator: Adobe Illustrator 15.0.0, SVG Export Plug-In . SVG Version: 6.00 Build 0)  -->
<!DOCTYPE svg PUBLIC "-//W3C//DTD SVG 1.1//EN" "http://www.w3.org/Graphics/SVG/1.1/DTD/svg11.dtd">
<svg version="1.1" xmlns="http://www.w3.org/2000/svg" xmlns:xlink="http://www.w3.org/1999/xlink" x="0px" y="0px" width="580px"
	 height="580px" viewBox="0 0 580 580" enable-background="new 0 0 580 580" xml:space="preserve">
<g id="Layer_1">
	<g id="Layer_2">
		<g id="g1327">
			<path id="path1329" fill="#111111" stroke="#EEEEEE" stroke-width="3.408" d="M66.275,1.768
				c-41.335,0-64.571,21.371-64.571,65.036v450.123c0,40.844,20.895,62.229,62.192,62.229h452.024
				c41.307,0,62.229-20.315,62.229-62.229V66.804c0-42.602-20.923-65.036-63.521-65.036C514.625,1.768,66.133,1.625,66.275,1.768z"
				/>
		</g>
	</g>
</g>
<g id="Layer_2_1_">
	<g>
		<path fill="#FFFFFF" d="M316.785,404.365h-18.506V289H123.052v115.365H98.495v78.014h-22.9v43.783h267.739v-43.783h-26.549
			V404.365z M134.273,300.221h152.786v104.144H134.273V300.221z M297.916,472.319h-23.782v-6.462h-11.221v6.462h-8.653v-27.554
			h-11.221v27.554h-15.298v-8.272H216.52v8.272h-8.713v-29.392h-11.221v29.392h-11.679v-8.272h-11.221v8.272h-8.653v-29.392h-11.221
			v29.392h-6.874v-7.085h-11.221v7.085h-12.302v-37.012h174.5V472.319z"/>
		
			<rect x="147.943" y="316.829" transform="matrix(1 -0.0035 0.0035 1 -1.114 0.6366)" fill="#FFFFFF" width="71.162" height="11.221"/>
		
			<rect x="196.205" y="339.543" transform="matrix(-1 0.0034 -0.0034 -1 464.7305 689.5063)" fill="#FFFFFF" width="71.132" height="11.221"/>
		
			<rect x="155.389" y="368.282" transform="matrix(-1 -0.0018 0.0018 -1 423.0747 748.5523)" fill="#FFFFFF" width="112.957" height="11.615"/>
		<path fill="#FFFFFF" d="M155.211,163.675c22.734,8.77,44.765,13.598,45.691,13.799c0.523,0.114,1.057,0.171,1.592,0.171H483.76
			c4.006,0,7.305-3.149,7.492-7.151l3.945-84.717c0.096-2.065-0.666-4.079-2.104-5.564c-1.438-1.486-3.463-2.318-5.492-2.284
			l-281.236,3.856c-0.981,0.014-1.95,0.219-2.852,0.606c-3.561,1.526-34.75,15.521-33.301,36.651
			c1.27,18.65,27.251,26.643,30.209,27.493c0.673,0.193,1.371,0.292,2.071,0.292h205.981c4.143,0,7.5-3.358,7.5-7.5
			s-3.357-7.5-7.5-7.5H203.612c-7.552-2.415-18.05-8.169-18.434-13.807c-0.496-7.223,12.944-16.652,22.935-21.257l271.729-3.726
			l-3.242,69.609H203.304c-34.463-7.599-82.996-25.864-84.463-43.204c-1.446-17.09,43.813-41.35,77.093-53.465l291.868-3.84
			c4.143-0.055,7.455-3.457,7.4-7.598c-0.053-4.142-3.461-7.502-7.598-7.401l-293.13,3.856c-0.829,0.011-1.65,0.159-2.43,0.438
			c-0.899,0.322-22.252,8.015-43.648,19.7c-31.321,17.106-45.877,33.322-44.502,49.574
			C105.259,136.826,122.045,150.882,155.211,163.675z"/>
		<polygon fill="#FFFFFF" points="501.527,431.892 501.527,223.182 478.42,223.182 478.42,431.892 466.91,431.892 455.342,431.892 
			455.342,223.182 434.578,223.182 434.578,431.892 429.386,431.892 448.164,482.379 466.91,532.865 485.658,482.379 
			504.404,431.892 		"/>
	</g>
</g>
</svg>
