<?xml version="1.0" encoding="UTF-8" standalone="no"?>
<!-- Generator: Adobe Illustrator 15.0.0, SVG Export Plug-In . SVG Version: 6.00 Build 0)  -->

<svg
   xmlns:dc="http://purl.org/dc/elements/1.1/"
   xmlns:cc="http://creativecommons.org/ns#"
   xmlns:rdf="http://www.w3.org/1999/02/22-rdf-syntax-ns#"
   xmlns:svg="http://www.w3.org/2000/svg"
   xmlns="http://www.w3.org/2000/svg"
   xmlns:sodipodi="http://sodipodi.sourceforge.net/DTD/sodipodi-0.dtd"
   xmlns:inkscape="http://www.inkscape.org/namespaces/inkscape"
   version="1.1"
   x="0px"
   y="0px"
   width="580px"
   height="580px"
   viewBox="0 0 580 580"
   enable-background="new 0 0 580 580"
   xml:space="preserve"
   id="svg2"
   inkscape:version="0.48.4 r9939"
   sodipodi:docname="storage_rental.svg"><metadata
   id="metadata55"><rdf:RDF><cc:Work
       rdf:about=""><dc:format>image/svg+xml</dc:format><dc:type
         rdf:resource="http://purl.org/dc/dcmitype/StillImage" /></cc:Work></rdf:RDF></metadata><defs
   id="defs53">
	

		
		
		
		
	</defs><sodipodi:namedview
   pagecolor="#ffffff"
   bordercolor="#666666"
   borderopacity="1"
   objecttolerance="10"
   gridtolerance="10"
   guidetolerance="10"
   inkscape:pageopacity="0"
   inkscape:pageshadow="2"
   inkscape:window-width="935"
   inkscape:window-height="775"
   id="namedview51"
   showgrid="false"
   inkscape:zoom="0.38466609"
   inkscape:cx="290"
   inkscape:cy="290"
   inkscape:window-x="675"
   inkscape:window-y="195"
   inkscape:window-maximized="0"
   inkscape:current-layer="svg2" />
<g
   id="Layer_2_1_">
	<g
   id="Layer_2">
		<g
   id="g1327">
			<path
   id="path1329"
   fill="#111111"
   stroke="#EEEEEE"
   stroke-width="3.408"
   d="M66.275,1.768     c-41.335,0-64.571,21.371-64.571,65.036v450.123c0,40.844,20.895,62.229,62.192,62.229h452.024     c41.307,0,62.229-20.315,62.229-62.229V66.804c0-42.602-20.923-65.036-63.521-65.036C514.625,1.768,66.133,1.625,66.275,1.768z" />
		</g>
	</g>
</g>
<g
   id="g21"
   transform="translate(-111.956,2.2756902)">
			<rect
   x="297.401"
   y="127.844"
   width="208.963"
   height="46.248001"
   id="rect23"
   style="fill:#ffffff" />
			<rect
   x="297.401"
   y="73.503998"
   width="208.963"
   height="46.247002"
   id="rect25"
   style="fill:#ffffff" />
			<rect
   x="297.401"
   y="182.185"
   width="208.963"
   height="46.248001"
   id="rect27"
   style="fill:#ffffff" />
			<rect
   x="297.401"
   y="236.526"
   width="208.963"
   height="46.248001"
   id="rect29"
   style="fill:#ffffff" />
		</g><g
   id="g31"
   transform="matrix(0,1,-1,0,803.59001,0.13201904)">
			<rect
   x="405.77499"
   y="297.22601"
   width="46.248001"
   height="209.27"
   id="rect33"
   style="fill:#ffffff" />
			<rect
   x="460.116"
   y="297.22601"
   width="46.248001"
   height="209.27"
   id="rect35"
   style="fill:#ffffff" />
			<rect
   x="351.43399"
   y="297.22601"
   width="46.248001"
   height="209.27"
   id="rect37"
   style="fill:#ffffff" />
			<rect
   x="297.09399"
   y="297.22601"
   width="46.247002"
   height="209.27"
   id="rect39"
   style="fill:#ffffff" />
		</g><g
   id="g41">
			<rect
   x="73.635002"
   y="405.90799"
   width="208.964"
   height="46.247002"
   id="rect43"
   style="fill:#ffffff" />
			<rect
   x="73.635002"
   y="460.24899"
   width="208.964"
   height="46.247002"
   id="rect45"
   style="fill:#ffffff" />
			<rect
   x="73.635002"
   y="351.56699"
   width="208.964"
   height="46.247002"
   id="rect47"
   style="fill:#ffffff" />
			<rect
   x="73.635002"
   y="297.22601"
   width="208.964"
   height="46.247002"
   id="rect49"
   style="fill:#ffffff" />
		</g>
</svg>