<?xml version="1.0" encoding="utf-8"?>
<!-- Generator: Adobe Illustrator 15.0.0, SVG Export Plug-In . SVG Version: 6.00 Build 0)  -->
<!DOCTYPE svg PUBLIC "-//W3C//DTD SVG 1.1//EN" "http://www.w3.org/Graphics/SVG/1.1/DTD/svg11.dtd">
<svg version="1.1" xmlns="http://www.w3.org/2000/svg" xmlns:xlink="http://www.w3.org/1999/xlink" x="0px" y="0px" width="580px"
	 height="580px" viewBox="0 0 580 580" enable-background="new 0 0 580 580" xml:space="preserve">
<g id="Layer_1">
	<g id="Layer_2">
		<g id="g1327">
			<path id="path1329" fill="#111111" stroke="#EEEEEE" stroke-width="3.408" d="M66.275,1.768
				c-41.335,0-64.571,21.371-64.571,65.036v450.123c0,40.844,20.895,62.229,62.192,62.229h452.024
				c41.307,0,62.229-20.315,62.229-62.229V66.804c0-42.602-20.923-65.036-63.521-65.036C514.625,1.768,66.133,1.625,66.275,1.768z"
				/>
		</g>
	</g>
</g>
<g id="Layer_2_1_">
	<g>
		<path fill-rule="evenodd" clip-rule="evenodd" fill="#FFFFFF" d="M270.681,338.544c48.514-21.003,92.012-49.875,123.051-89.62
			c14.844-19.009,28.994-42.481,36.986-69.351c7.547-25.367,10.215-57.255,6.758-86.42c-0.186-1.568,0.609-4.383-1.424-5.334
			c-8.576,42.141-24.096,79.291-46.232,106.691c-3.227-87.322-53-137.918-128.029-154.702c-0.415,0.059-0.387,0.563-0.356,1.067
			c-0.217,0.02-0.422,0.052-0.355,0.356c31.414,15.679,58.166,38.176,76.105,68.638c17.434,29.602,27.641,72.926,19.916,118.784
			c-8.588,7.534-19.117,15.023-29.518,19.56c13.115-47.739-0.814-97.49-21.339-127.674c-21.648-31.839-53.995-54.527-93.177-67.572
			c-5.189,6.593-11.236,12.154-16.358,18.849c-5.141,6.719-9.587,14.088-12.448,23.117c32.724,7.433,58.323,21.424,77.174,43.744
			c16.778,19.866,31.989,54.755,25.25,92.821c-5.719,32.307-25.242,56.425-49.078,71.839c-22.39,14.479-54.855,23.105-89.622,22.762
			c-2.432-0.024-5.904-1.021-6.401,0.711c101.204,30.753,179.738,85.756,223.697,173.196c6.373,12.674,10.852,26.472,16.715,40.187
			c0.676-11.518-1.941-22.865-4.268-33.43C361.051,431.033,322.806,376.807,270.681,338.544z"/>
		<path fill-rule="evenodd" clip-rule="evenodd" fill="#FFFFFF" d="M448.144,256.392c-34.807,41.824-79.549,76.415-132.652,100.29
			c-0.229,2.255,2.32,3.315,3.557,4.623c9.328,9.866,18.551,21.595,26.672,33.073c48.688-33.349,81.818-82.245,106.336-139.765
			c0-0.237,0-0.475,0-0.711C450.148,252.857,448.863,255.53,448.144,256.392z"/>
		<path fill-rule="evenodd" clip-rule="evenodd" fill="#FFFFFF" d="M193.49,285.037c36.541,0,66.164-30.763,66.164-68.711
			c0-36.721-27.739-66.714-62.644-68.614c14.513,10.002,24.213,28.144,24.213,48.866c0,31.528-22.453,57.086-50.151,57.086
			c-18.345,0-34.386-11.215-43.13-27.948C132.353,259.221,160.015,285.037,193.49,285.037z"/>
	</g>
</g>
</svg>
