<?xml version="1.0" encoding="utf-8"?>
<!-- Generator: Adobe Illustrator 15.0.0, SVG Export Plug-In . SVG Version: 6.00 Build 0)  -->
<!DOCTYPE svg PUBLIC "-//W3C//DTD SVG 1.1//EN" "http://www.w3.org/Graphics/SVG/1.1/DTD/svg11.dtd">
<svg version="1.1" xmlns="http://www.w3.org/2000/svg" xmlns:xlink="http://www.w3.org/1999/xlink" x="0px" y="0px" width="580px"
	 height="580px" viewBox="0 0 580 580" enable-background="new 0 0 580 580" xml:space="preserve">
<g id="Layer_1">
	<g id="Layer_2">
		<g id="g1327">
			<path id="path1329" fill="#111111" stroke="#EEEEEE" stroke-width="3.408" d="M66.275,1.768
				c-41.335,0-64.571,21.371-64.571,65.036v450.123c0,40.844,20.895,62.229,62.192,62.229h452.024
				c41.307,0,62.229-20.315,62.229-62.229V66.804c0-42.602-20.923-65.036-63.521-65.036C514.625,1.768,66.133,1.625,66.275,1.768z"
				/>
		</g>
	</g>
</g>
<g id="Layer_2_1_">
	<g>
		<g opacity="0.5">
			
				<rect x="271.208" y="195.659" transform="matrix(0.7071 0.7071 -0.7071 0.7071 262.6363 -186.1794)" fill="#FFFFFF" width="169.699" height="56.567"/>
			
				<rect x="105.154" y="361.712" transform="matrix(0.7071 0.7071 -0.7071 0.7071 331.4186 -20.126)" fill="#FFFFFF" width="169.699" height="56.567"/>
			
				<rect x="189.999" y="234.015" transform="matrix(0.7071 0.7071 -0.7071 0.7071 296.2747 -104.9703)" fill="#FFFFFF" width="169.699" height="142.271"/>
		</g>
		<path fill="#FFFFFF" d="M490.179,257.855l40.836-40.835c7.011-7.01,7.01-18.376,0-25.386L388.367,48.985
			c-7.012-7.011-18.377-7.011-25.388,0L322.143,89.82l1.6,1.6l-3.862,3.862l-1.6-1.599L48.984,362.979
			c-7.01,7.011-7.01,18.375,0.001,25.387l44.008,44.008c15.086-15.086,39.547-15.086,54.633,0c15.086,15.087,15.086,39.547,0,54.633
			l44.008,44.009c7.009,7.01,18.375,7.01,25.386,0l269.297-269.296l-1.6-1.599l3.864-3.863L490.179,257.855z M449.02,216.696
			l6.593,6.593l-3.862,3.863l-6.594-6.593L449.02,216.696z M435.833,203.509l6.593,6.593l-3.862,3.863l-6.594-6.593L435.833,203.509
			z M422.645,190.322l6.594,6.594l-3.862,3.863l-6.594-6.593L422.645,190.322z M409.459,177.134l6.593,6.594l-3.862,3.863
			l-6.594-6.594L409.459,177.134z M396.271,163.948l6.594,6.594l-3.862,3.863l-6.594-6.594L396.271,163.948z M383.085,150.76
			l6.593,6.594l-3.862,3.863l-6.594-6.593L383.085,150.76z M369.897,137.573l6.594,6.594l-3.862,3.862l-6.594-6.593L369.897,137.573
			z M356.711,124.386l6.594,6.594l-3.863,3.863l-6.594-6.594L356.711,124.386z M333.067,108.469l-6.594-6.593l3.863-3.863
			l6.593,6.594L333.067,108.469z M343.523,111.199l6.594,6.594l-3.862,3.863l-6.594-6.594L343.523,111.199z M230.002,469.993
			L110.007,349.998l39.999-39.999L270,429.995L230.002,469.993z M284.545,415.449L164.55,295.454l100.602-100.601l119.996,119.995
			L284.545,415.449z M396.056,303.939L276.06,183.944l39.999-39.999L436.054,263.94L396.056,303.939z M464.937,240.339l-6.594-6.593
			l3.863-3.863l6.593,6.593L464.937,240.339z M478.125,253.526l-6.594-6.594l3.862-3.863l6.595,6.594L478.125,253.526z"/>
	</g>
</g>
</svg>
