<?xml version="1.0" encoding="utf-8"?>
<!-- Generator: Adobe Illustrator 15.0.0, SVG Export Plug-In . SVG Version: 6.00 Build 0)  -->
<!DOCTYPE svg PUBLIC "-//W3C//DTD SVG 1.1//EN" "http://www.w3.org/Graphics/SVG/1.1/DTD/svg11.dtd">
<svg version="1.1" xmlns="http://www.w3.org/2000/svg" xmlns:xlink="http://www.w3.org/1999/xlink" x="0px" y="0px" width="580px"
	 height="580px" viewBox="0 0 580 580" enable-background="new 0 0 580 580" xml:space="preserve">
<g id="Layer_1">
	<g id="Layer_2">
		<g id="g1327">
			<path id="path1329" fill="#111111" stroke="#EEEEEE" stroke-width="3.408" d="M66.275,1.768
				c-41.335,0-64.571,21.371-64.571,65.036v450.123c0,40.844,20.895,62.229,62.192,62.229h452.024
				c41.307,0,62.229-20.315,62.229-62.229V66.804c0-42.602-20.923-65.036-63.521-65.036C514.625,1.768,66.133,1.625,66.275,1.768z"
				/>
		</g>
	</g>
</g>
<g id="Layer_2_1_">
	<g>
		<rect x="74.732" y="395.004" fill="#FFFFFF" width="361.106" height="63.906"/>
		<rect x="452.885" y="395.244" fill="#FFFFFF" width="18.232" height="63.668"/>
		<rect x="486.974" y="395.244" fill="#FFFFFF" width="18.234" height="63.668"/>
		<path fill="#FFFFFF" d="M426.217,293.148h-65.451c-17.52,0-31.656-14.255-31.656-31.657c0-6.593,2.08-12.65,5.465-17.759
			c1.129-1.781,1.842-3.741,1.842-5.939c0-5.82-4.752-10.571-10.572-10.571c-0.832,0-1.723,0.119-2.555,0.356
			c-2.85,0.594-5.762,0.95-8.908,0.95c-24.588,0-44.664-20.074-44.664-44.663c0-24.47,19.6-44.307,43.951-44.663v-18.114
			c-34.329,0.475-61.947,28.33-61.947,62.777c0,34.21,27.38,62.065,61.472,62.659c-1.486,4.751-2.316,9.74-2.316,14.967
			c0,27.498,22.391,49.77,49.889,49.77v0.061h65.451c14.729,0,26.666,11.938,26.666,26.666v35.695h18.234l-0.119-35.754
			C470.998,313.222,451.043,293.148,426.217,293.148z"/>
		<path fill="#FFFFFF" d="M410.595,239.575l-12.77,0.119c4.039-8.79,6.355-18.649,6.355-28.983
			c0-38.546-31.359-69.846-69.846-69.846h-4.039v18.233h4.039c28.508,0,51.613,23.104,51.613,51.612
			c0,11.818-3.98,22.628-10.691,31.3c-0.891,1.662-1.604,3.385-1.604,5.464c0,5.701,4.633,10.334,10.215,10.334h26.727
			c42.229,0,76.439,34.21,76.439,76.439v39.436h18.232v-39.436C505.267,282.041,462.922,239.575,410.595,239.575z"/>
	</g>
</g>
</svg>
