<?xml version="1.0" encoding="utf-8"?>
<!-- Generator: Adobe Illustrator 15.0.0, SVG Export Plug-In . SVG Version: 6.00 Build 0)  -->
<!DOCTYPE svg PUBLIC "-//W3C//DTD SVG 1.1//EN" "http://www.w3.org/Graphics/SVG/1.1/DTD/svg11.dtd">
<svg version="1.1" xmlns="http://www.w3.org/2000/svg" xmlns:xlink="http://www.w3.org/1999/xlink" x="0px" y="0px" width="580px"
	 height="580px" viewBox="0 0 580 580" enable-background="new 0 0 580 580" xml:space="preserve">
<g id="Layer_1">
	<g id="Layer_2">
		<g id="g1327">
			<path id="path1329" fill="#111111" stroke="#EEEEEE" stroke-width="3.408" d="M66.275,1.768
				c-41.335,0-64.571,21.371-64.571,65.036v450.123c0,40.844,20.895,62.229,62.192,62.229h452.024
				c41.307,0,62.229-20.315,62.229-62.229V66.804c0-42.602-20.923-65.036-63.521-65.036C514.625,1.768,66.133,1.625,66.275,1.768z"
				/>
		</g>
	</g>
</g>
<g id="Layer_2_1_">
	<g>
		<path fill="#FFFFFF" d="M210.405,439.078c-29.165,0-56.828,3.334-81.936,9.238c4.364-40.88,22.052-145.635,92.72-257.267
			c0.092,0.157,0.182,0.311,0.273,0.469c0.007-0.308,0.008-0.608,0.013-0.915c2.007-3.164,4.068-6.333,6.161-9.506
			c72.148,23.377,93.425,47.107,122.289,96.834c1.84-81.909-49.48-102.358-90.66-105.651c54.842-2.168,82.049,11.356,122.322,40.116
			c-39.558-92.965-114.248-67.454-150.164-48.096c40.961-53.604-22.339-109.666-22.339-109.666
			c15.505,47.31,17.141,73.287,9.039,100.313c-21.432-93.056-137.376-65.91-137.376-65.91
			c61.421,17.876,90.654,34.746,113.469,61.939c-70.216-51.646-143.109,33.187-143.109,33.187
			c71.36-25.877,105.299-26.147,147.715-10.956c-48.905,76.497-73.433,149.602-85.471,198.449
			c-9.977,40.481-13.218,70.841-14.262,85.122c-11.425,3.942-22.108,8.447-31.901,13.431v55.152h345.144
			C391.733,476.05,309.367,439.078,210.405,439.078z"/>
		<path fill="#FFFFFF" d="M470.711,74.448c-32.08,0.028-58.101,24.352-58.072,54.345c0,0.029,0,0.056,0,0.07
			c0.027,29.994,26.048,54.29,58.183,54.276c32.079-0.027,58.099-24.351,58.071-54.346c0-0.028,0-0.055,0-0.069
			C528.865,98.73,502.845,74.434,470.711,74.448z"/>
	</g>
</g>
</svg>
