<?xml version="1.0" encoding="utf-8"?>
<!-- Generator: Adobe Illustrator 15.0.0, SVG Export Plug-In . SVG Version: 6.00 Build 0)  -->
<!DOCTYPE svg PUBLIC "-//W3C//DTD SVG 1.1//EN" "http://www.w3.org/Graphics/SVG/1.1/DTD/svg11.dtd">
<svg version="1.1" xmlns="http://www.w3.org/2000/svg" xmlns:xlink="http://www.w3.org/1999/xlink" x="0px" y="0px" width="580px"
	 height="580px" viewBox="0 0 580 580" enable-background="new 0 0 580 580" xml:space="preserve">
<g id="Layer_2">
	<g id="g1327">
		<path id="path1329" fill="#111111" stroke="#EEEEEE" stroke-width="3.408" d="M66.275,1.768
			c-41.335,0-64.571,21.371-64.571,65.036v450.123c0,40.844,20.895,62.229,62.192,62.229H515.92
			c41.307,0,62.229-20.315,62.229-62.229V66.804c0-42.601-20.923-65.036-63.521-65.036C514.624,1.768,66.133,1.625,66.275,1.768z"/>
	</g>
</g>
<g id="svg2" inkscape:version="0.46" sodipodi:version="0.32" sodipodi:docname="amenity_atm.svg" inkscape:output_extension="org.inkscape.output.svg.inkscape" sodipodi:docbase="s:\Data\FacilityIcons" xmlns:svg="http://www.w3.org/2000/svg" xmlns:dc="http://purl.org/dc/elements/1.1/" xmlns:cc="http://creativecommons.org/ns#" xmlns:rdf="http://www.w3.org/1999/02/22-rdf-syntax-ns#" xmlns:inkscape="http://www.inkscape.org/namespaces/inkscape" xmlns:sodipodi="http://sodipodi.sourceforge.net/DTD/sodipodi-0.dtd" display="none">
	
		<sodipodi:namedview  inkscape:window-x="0" inkscape:pageopacity="0.0" inkscape:current-layer="svg2" inkscape:pageshadow="2" inkscape:window-width="1280" inkscape:window-y="0" inkscape:window-height="1005" id="base" borderopacity="1.0" inkscape:cy="302.63451" inkscape:cx="285.84646" bordercolor="#666666" gridtolerance="10.0" pagecolor="#ffffff" objecttolerance="10.0" showgrid="false" guidetolerance="10.0" inkscape:zoom="1.3034483">
		</sodipodi:namedview>
	<defs  display="inline">
		
		
			<inkscape:perspective  id="perspective2441" inkscape:persp3d-origin="290 : 193.33333 : 1" sodipodi:type="inkscape:persp3d" inkscape:vp_y="0 : 1000 : 0" inkscape:vp_z="580 : 290 : 1" inkscape:vp_x="0 : 290 : 1">
			</inkscape:perspective>
	</defs>
	
		<path id="rect3241" sodipodi:nodetypes="ccccccccc" display="inline" opacity="0.75" fill="#FFFFFF" stroke="#FFFFFF" stroke-width="35.845" stroke-linecap="round" stroke-linejoin="round" enable-background="new    " d="
		M103.979,82.413v62.924h112.403c7.778-20.622,12.715-34.171,13.042-36.067l190.991-1.647l14.588,37.714h69.613V82.413H103.979z"/>
	
		<path id="path2443" sodipodi:nodetypes="ccccccc" display="inline" fill="none" stroke="#FFFFFF" stroke-width="20" stroke-linejoin="round" d="
		M227.906,158.094l-40.375,0.375c-1.603,9.296-122.313,358.625-122.313,358.625l403.813-3.406l-15.594-40.313l-333.094,2.844
		C120.344,476.219,195.438,243.832,227.906,158.094z"/>
	
		<path id="path3243" sodipodi:nodetypes="ccccc" display="inline" fill="none" stroke="#FFFFFF" stroke-width="20" stroke-linejoin="round" d="
		M242.694,117.588c-1.603,9.296-122.338,358.618-122.338,358.618l403.838-3.412L401.652,116.069L242.694,117.588z"/>
	
		<path id="path3163" sodipodi:nodetypes="ccccc" display="inline" opacity="0.1" fill="#FFFFFF" stroke="#FFFFFF" stroke-width="20" stroke-linecap="round" stroke-linejoin="round" enable-background="new    " d="
		M242.694,117.588c-1.603,9.296-122.338,358.618-122.338,358.618l403.838-3.412L401.652,116.069L242.694,117.588z"/>
	
		<path id="path3165" sodipodi:nodetypes="ccccccc" display="inline" opacity="0.1" fill="#FFFFFF" stroke="#FFFFFF" stroke-width="20" stroke-linecap="round" stroke-linejoin="round" enable-background="new    " d="
		M227.906,158.094l-40.375,0.375c-1.603,9.296-122.313,358.625-122.313,358.625l403.813-3.406l-15.594-40.313l-333.094,2.844
		C120.344,476.219,195.438,243.832,227.906,158.094z"/>
	<g id="g4372" transform="translate(-130.0802,122.26983)" display="inline">
	</g>
	<g id="g4998" transform="translate(-133.14896,123.86039)" display="inline">
		<g id="g5004">
			<path id="text2413" fill="#FFFFFF" d="M465.402,153.84c0.229,0.097,1.086,0.291,2.572,0.581
				c23.434,3.872,41.037,10.938,52.811,21.199c11.773,10.26,17.661,23.715,17.661,40.364c0,17.036-6.459,31.798-19.376,44.285
				c-12.917,12.487-30.807,19.263-53.669,20.327v26.426h-18.347v-26.135c-23.32-2.227-41.209-8.64-53.669-19.238
				c-12.46-10.6-19.49-25.434-21.09-44.504l30.864-4.646c2.4,14.326,7.259,25.36,14.575,33.104
				c7.315,7.744,17.089,12.148,29.321,13.213V175.62c-23.205-4.26-40.581-11.374-52.126-21.344
				c-11.545-9.97-17.318-22.795-17.318-38.477c0-15.584,5.716-28.966,17.147-40.146s28.863-17.641,52.297-19.384V43.782h18.347
				v12.487c19.433,1.646,34.75,6.873,45.953,15.681c11.202,8.809,18.232,21.15,21.091,37.025l-32.064,3.92
				c-1.829-9.873-5.659-17.689-11.488-23.449c-5.83-5.759-13.66-9.462-23.491-11.107V153.84z M447.055,150.646V78.048
				c-12.46,1.839-22.006,6.074-28.635,12.705c-6.63,6.631-9.945,14.302-9.945,23.014c0,9.971,3.429,17.835,10.288,23.595
				C425.622,143.12,435.052,147.549,447.055,150.646L447.055,150.646z M465.402,258.817c12.003-1.549,21.891-5.977,29.664-13.285
				c7.772-7.309,11.659-16.528,11.659-27.66c0-9.776-2.943-17.641-8.83-23.594c-5.888-5.953-16.719-11.012-32.493-15.174V258.817z"
				/>
		</g>
		
			<path id="path4370" sodipodi:nodetypes="cc" fill="none" stroke="#FFFFFF" stroke-width="30" stroke-linecap="round" stroke-linejoin="round" d="
			M455.376,43.427v265.043"/>
	</g>
</g>
<g id="Layer_4">
	<circle fill="#FFFFFF" cx="290" cy="290" r="256.398"/>
	<path d="M150.179,366.485c0-15.564,10.471-26.319,25.47-26.319c14.716,0,24.904,10.472,25.188,26.319
		c0,15-10.188,26.037-25.753,26.037C160.65,392.522,150.179,381.485,150.179,366.485z"/>
	<path d="M134.326,300.829v28.583H60.179v-28.583H134.326z"/>
	<path d="M235.918,358.562c5.66,0.566,10.188,0.283,18.678,0c13.301-0.849,26.603-4.528,36.224-11.32
		c12.17-8.207,20.094-20.376,23.207-34.243l-0.566-0.283c-8.207,8.49-20.376,13.301-37.073,13.301
		c-31.131,0-57.167-21.508-57.167-57.45c0-35.941,28.866-66.223,69.336-66.223c47.262,0,69.619,36.225,69.619,79.241
		c0,38.489-12.169,66.223-32.263,84.901c-17.546,15.849-41.884,24.339-70.468,25.471c-7.075,0.566-14.716,0.283-19.527,0V358.562z
		 M261.954,266.019c0,15.848,8.773,29.432,26.037,29.432c11.886,0,20.093-5.376,24.055-11.886c1.415-2.83,1.981-5.66,1.981-11.037
		c0.282-19.527-7.075-38.772-27.168-38.772C272.425,233.756,261.954,246.775,261.954,266.019z"/>
	<path d="M392.981,358.562c5.66,0.566,10.188,0.283,18.679,0c13.301-0.849,26.602-4.528,36.225-11.32
		c12.169-8.207,20.093-20.376,23.206-34.243l-0.566-0.283c-8.207,8.49-20.376,13.301-37.073,13.301
		c-31.131,0-57.167-21.508-57.167-57.45c0-35.941,28.866-66.223,69.336-66.223c47.262,0,69.619,36.225,69.619,79.241
		c0,38.489-12.169,66.223-32.263,84.901c-17.546,15.849-41.885,24.339-70.468,25.471c-7.075,0.566-14.717,0.283-19.527,0V358.562z
		 M419.018,266.019c0,15.848,8.773,29.432,26.037,29.432c11.886,0,20.093-5.376,24.055-11.886c1.415-2.83,1.981-5.66,1.981-11.037
		c0.283-19.527-7.075-38.772-27.169-38.772C429.489,233.756,419.018,246.775,419.018,266.019z"/>
</g>
</svg>
