<?xml version="1.0" encoding="UTF-8" standalone="no"?>
<!-- Generator: Adobe Illustrator 15.0.0, SVG Export Plug-In . SVG Version: 6.00 Build 0)  -->

<svg
   xmlns:dc="http://purl.org/dc/elements/1.1/"
   xmlns:cc="http://creativecommons.org/ns#"
   xmlns:rdf="http://www.w3.org/1999/02/22-rdf-syntax-ns#"
   xmlns:svg="http://www.w3.org/2000/svg"
   xmlns="http://www.w3.org/2000/svg"
   xmlns:sodipodi="http://sodipodi.sourceforge.net/DTD/sodipodi-0.dtd"
   xmlns:inkscape="http://www.inkscape.org/namespaces/inkscape"
   version="1.1"
   x="0px"
   y="0px"
   width="580px"
   height="580px"
   viewBox="0 0 580 580"
   enable-background="new 0 0 580 580"
   xml:space="preserve"
   id="svg2229"
   sodipodi:docname="vending_machine.svg"
   inkscape:version="0.92.3 (2405546, 2018-03-11)"><metadata
   id="metadata2235"><rdf:RDF><cc:Work
       rdf:about=""><dc:format>image/svg+xml</dc:format><dc:type
         rdf:resource="http://purl.org/dc/dcmitype/StillImage" /></cc:Work></rdf:RDF></metadata><defs
   id="defs2233">
	
	
</defs><sodipodi:namedview
   pagecolor="#ffffff"
   bordercolor="#666666"
   borderopacity="1"
   objecttolerance="10"
   gridtolerance="10"
   guidetolerance="10"
   inkscape:pageopacity="0"
   inkscape:pageshadow="2"
   inkscape:window-width="1227"
   inkscape:window-height="947"
   id="namedview2231"
   showgrid="false"
   inkscape:zoom="0.41065966"
   inkscape:cx="290"
   inkscape:cy="290"
   inkscape:window-x="346"
   inkscape:window-y="129"
   inkscape:window-maximized="0"
   inkscape:current-layer="svg2229" />
<g
   id="Layer_1">
	<g
   id="Layer_1_1_">
		<g
   id="Layer_2">
			<g
   id="g1327">
				<path
   id="path1329"
   fill="#111111"
   stroke="#EEEEEE"
   stroke-width="3.408"
   d="M66.275,1.768      c-41.335,0-64.571,21.371-64.571,65.036v450.123c0,40.844,20.895,62.229,62.192,62.229H515.92      c41.307,0,62.229-20.315,62.229-62.229V66.804c0-42.601-20.925-65.036-63.521-65.036C514.624,1.768,66.133,1.625,66.275,1.768z" />
			</g>
		</g>
	</g>
</g>
<g
   id="g2224"
   transform="matrix(1.3444816,0,0,1.3444816,94.976668,13.467013)">
		<path
   style="fill:#ffffff"
   inkscape:connector-curvature="0"
   id="path2192"
   d="m 44.5,34.5 v 343 h 201 V 34.5 Z M 212,70 c 3.59,0 6.5,2.91 6.5,6.5 0,3.59 -2.91,6.5 -6.5,6.5 -3.59,0 -6.5,-2.91 -6.5,-6.5 0,-3.59 2.91,-6.5 6.5,-6.5 z m 0,16.847 c 3.59,0 6.5,2.91 6.5,6.5 0,3.59 -2.91,6.5 -6.5,6.5 -3.59,0 -6.5,-2.91 -6.5,-6.5 0,-3.59 2.91,-6.5 6.5,-6.5 z m 0,16.846 c 3.59,0 6.5,2.91 6.5,6.5 0,3.59 -2.91,6.5 -6.5,6.5 -3.59,0 -6.5,-2.91 -6.5,-6.5 0,-3.59 2.91,-6.5 6.5,-6.5 z m 0,16.847 c 3.59,0 6.5,2.91 6.5,6.5 0,3.59 -2.91,6.5 -6.5,6.5 -3.59,0 -6.5,-2.91 -6.5,-6.5 0,-3.59 2.91,-6.5 6.5,-6.5 z m 0,16.847 c 3.59,0 6.5,2.91 6.5,6.5 0,3.59 -2.91,6.5 -6.5,6.5 -3.59,0 -6.5,-2.91 -6.5,-6.5 0,-3.59 2.91,-6.5 6.5,-6.5 z M 198.5,344.5 h -127 v -282 h 127 z m 38,-176.5 h -31 v -6 h 31 z M 230,150.387 c -3.59,0 -6.5,-2.91 -6.5,-6.5 0,-3.59 2.91,-6.5 6.5,-6.5 3.59,0 6.5,2.91 6.5,6.5 0,3.59 -2.91,6.5 -6.5,6.5 z m 0,-16.847 c -3.59,0 -6.5,-2.91 -6.5,-6.5 0,-3.59 2.91,-6.5 6.5,-6.5 3.59,0 6.5,2.91 6.5,6.5 0,3.59 -2.91,6.5 -6.5,6.5 z m 0,-16.847 c -3.59,0 -6.5,-2.91 -6.5,-6.5 0,-3.59 2.91,-6.5 6.5,-6.5 3.59,0 6.5,2.91 6.5,6.5 0,3.59 -2.91,6.5 -6.5,6.5 z m 0,-16.846 c -3.59,0 -6.5,-2.91 -6.5,-6.5 0,-3.59 2.91,-6.5 6.5,-6.5 3.59,0 6.5,2.91 6.5,6.5 0,3.59 -2.91,6.5 -6.5,6.5 z M 230,83 c -3.59,0 -6.5,-2.91 -6.5,-6.5 0,-3.59 2.91,-6.5 6.5,-6.5 3.59,0 6.5,2.91 6.5,6.5 0,3.59 -2.91,6.5 -6.5,6.5 z" />
		<rect
   style="fill:#ffffff"
   id="rect2194"
   height="38"
   width="112.667"
   y="299.16599"
   x="79.833" />
		<g
   id="g2198">
			<rect
   style="fill:#ffffff"
   id="rect2196"
   height="5"
   width="112.667"
   y="90.847"
   x="79.833" />
		</g>
		<g
   id="g2202">
			<rect
   style="fill:#ffffff"
   id="rect2200"
   height="5"
   width="112.667"
   y="118.04"
   x="79.833" />
		</g>
		<g
   id="g2206">
			<rect
   style="fill:#ffffff"
   id="rect2204"
   height="5"
   width="112.667"
   y="145.233"
   x="79.833" />
		</g>
		<g
   id="g2210">
			<rect
   style="fill:#ffffff"
   id="rect2208"
   height="5"
   width="112.667"
   y="172.427"
   x="79.833" />
		</g>
		<g
   id="g2214">
			<rect
   style="fill:#ffffff"
   id="rect2212"
   height="5"
   width="112.667"
   y="199.62"
   x="79.833" />
		</g>
		<g
   id="g2218">
			<rect
   style="fill:#ffffff"
   id="rect2216"
   height="5"
   width="112.667"
   y="226.813"
   x="79.833" />
		</g>
		<g
   id="g2222">
			<rect
   style="fill:#ffffff"
   id="rect2220"
   height="5"
   width="112.667"
   y="254.007"
   x="79.833" />
		</g>
	</g>
</svg>