<?xml version="1.0" encoding="utf-8"?>
<!-- Generator: Adobe Illustrator 15.0.0, SVG Export Plug-In . SVG Version: 6.00 Build 0)  -->
<!DOCTYPE svg PUBLIC "-//W3C//DTD SVG 1.1//EN" "http://www.w3.org/Graphics/SVG/1.1/DTD/svg11.dtd">
<svg version="1.1" xmlns="http://www.w3.org/2000/svg" xmlns:xlink="http://www.w3.org/1999/xlink" x="0px" y="0px" width="580px"
	 height="580px" viewBox="0 0 580 580" enable-background="new 0 0 580 580" xml:space="preserve">
<g id="Layer_1">
	<g id="Layer_2">
		<g id="g1327">
			<path id="path1329" fill="#111111" stroke="#EEEEEE" stroke-width="3.408" d="M66.275,1.768
				c-41.335,0-64.571,21.371-64.571,65.036v450.123c0,40.844,20.895,62.229,62.192,62.229h452.024
				c41.307,0,62.229-20.315,62.229-62.229V66.804c0-42.602-20.923-65.036-63.521-65.036C514.625,1.768,66.133,1.625,66.275,1.768z"
				/>
		</g>
	</g>
</g>
<g id="Layer_2_1_">
	<g>
		<path fill="#FFFFFF" d="M412.636,369.844c-5.094,0-10.078,0.459-14.933,1.293H182.297c-4.855-0.834-9.839-1.293-14.933-1.293
			c-48.382,0-87.602,39.219-87.602,87.602s39.22,87.602,87.602,87.602c34.259,0,63.903-19.676,78.303-48.332h88.666
			c14.4,28.656,44.045,48.332,78.304,48.332c48.381,0,87.601-39.219,87.601-87.602S461.017,369.844,412.636,369.844z
			 M203.751,469.78h-26.686v26.686c0,6.811-5.522,12.332-12.337,12.332c-6.811,0-12.334-5.521-12.334-12.332V469.78h-26.682
			c-6.814,0-12.337-5.523-12.337-12.336c0-6.809,5.522-12.331,12.337-12.331h26.682v-26.686c0-6.812,5.523-12.334,12.334-12.334
			c6.814,0,12.337,5.522,12.337,12.334v26.686h26.686c6.809,0,12.33,5.522,12.33,12.331
			C216.081,464.257,210.559,469.78,203.751,469.78z M384.645,471.541c-7.785,0-14.096-6.31-14.096-14.095
			s6.311-14.095,14.096-14.095c7.784,0,14.095,6.31,14.095,14.095S392.429,471.541,384.645,471.541z M416.363,503.259
			c-7.785,0-14.095-6.311-14.095-14.094c0-7.787,6.31-14.095,14.095-14.095c7.784,0,14.095,6.308,14.095,14.095
			C430.458,496.948,424.147,503.259,416.363,503.259z M416.363,439.823c-7.785,0-14.095-6.311-14.095-14.094
			c0-7.785,6.31-14.096,14.095-14.096c7.784,0,14.095,6.311,14.095,14.096C430.458,433.512,424.147,439.823,416.363,439.823z
			 M448.08,471.541c-7.785,0-14.095-6.31-14.095-14.095s6.31-14.095,14.095-14.095s14.095,6.31,14.095,14.095
			S455.865,471.541,448.08,471.541z"/>
		<path fill="#FFFFFF" d="M126.974,331.452h326.052c17.755,0,32.199-14.445,32.199-32.199V67.152c0-17.756-14.444-32.2-32.199-32.2
			H126.974c-17.755,0-32.2,14.444-32.2,32.2v232.101C94.774,317.007,109.219,331.452,126.974,331.452z M127.118,67.296h325.763
			v231.813H127.118L127.118,67.296z"/>
	</g>
</g>
</svg>
