<?xml version="1.0" encoding="utf-8"?>
<!-- Generator: Adobe Illustrator 15.0.0, SVG Export Plug-In . SVG Version: 6.00 Build 0)  -->
<!DOCTYPE svg PUBLIC "-//W3C//DTD SVG 1.1//EN" "http://www.w3.org/Graphics/SVG/1.1/DTD/svg11.dtd">
<svg version="1.1" xmlns="http://www.w3.org/2000/svg" xmlns:xlink="http://www.w3.org/1999/xlink" x="0px" y="0px" width="580px"
	 height="580px" viewBox="0 0 580 580" enable-background="new 0 0 580 580" xml:space="preserve">
<g id="Layer_2">
	<g id="g1327">
		<path id="path1329" fill="#111111" stroke="#EEEEEE" stroke-width="3.408" d="M66.275,1.768
			c-41.335,0-64.571,21.371-64.571,65.036v450.123c0,40.844,20.894,62.229,62.192,62.229H515.92
			c41.307,0,62.229-20.316,62.229-62.229V66.804c0-42.601-20.923-65.036-63.522-65.036C514.624,1.768,66.133,1.625,66.275,1.768z"/>
	</g>
</g>
<g id="svg2" inkscape:version="0.46" sodipodi:docname="waste_bin.svg" sodipodi:version="0.32" inkscape:output_extension="org.inkscape.output.svg.inkscape" xmlns:sodipodi="http://sodipodi.sourceforge.net/DTD/sodipodi-0.dtd" xmlns:inkscape="http://www.inkscape.org/namespaces/inkscape" xmlns:cc="http://creativecommons.org/ns#" xmlns:rdf="http://www.w3.org/1999/02/22-rdf-syntax-ns#" xmlns:svg="http://www.w3.org/2000/svg" xmlns:dc="http://purl.org/dc/elements/1.1/">
	<g>
		<g>
			<path id="path113" fill="#FFFFFF" d="M534.956,358.698c-4.256,1.299-9.754,1.05-16.967-0.492
				c-7.332-1.668-14.012-9.445-26.189-9.015c-12.475,0.434-30.094,11.606-47.117,11.606c-17.264-0.368-36.654-12.102-54.271-12.102
				c-17.557,0.124-33.52,12.285-50.369,12.655c-17.143,0.062-34.229-11.356-51.018-11.604c-17.026-0.431-33.166,10.127-49.068,10
				c-15.666-0.306-29.56-11.544-45.107-11.052c-15.962,0.621-33.461,12.966-49.068,13.707
				c-15.726,0.248-29.974-11.481-43.865-11.607c-14.01-0.246-29.736,8.582-39.195,10.559c-9.46,1.794-15.431,1.978-17.676,0.556
				v32.722c2.245,1.42,8.216,1.235,17.676-0.557c9.459-1.977,25.184-10.805,39.195-10.557c13.894,0.122,28.14,11.854,43.865,11.604
				c15.607-0.615,33.106-13.274,49.068-13.706c15.548-0.616,29.44,10.866,45.107,11.112c15.902,0.126,32.042-10.37,49.068-10.062
				c16.789,0.245,33.875,11.666,51.018,11.606c16.85-0.371,32.813-12.535,50.369-12.657c17.617-0.06,37.008,11.855,54.271,12.166
				c17.023,0,34.646-11.178,47.117-11.608c12.178-0.558,18.857,7.346,26.189,8.951c7.213,1.543,12.711,1.79,16.967,0.493V358.698z"
				/>
			<path id="path121" fill="#FFFFFF" d="M534.956,413.462c-4.256,1.17-9.754,0.987-16.967-0.556
				c-7.332-1.605-14.012-9.511-26.189-8.955c-12.475,0.432-30.094,11.606-47.117,11.606c-17.264-0.369-36.654-12.099-54.271-12.099
				c-17.557,0.124-33.52,12.286-50.369,12.653c-17.143,0.064-34.229-11.356-51.018-11.605
				c-17.026-0.432-33.166,10.125-49.068,10.003c-15.666-0.308-29.56-11.547-45.107-11.051
				c-15.962,0.616-33.461,12.963-49.068,13.706c-15.726,0.246-29.974-11.485-43.865-11.607c-14.01-0.247-29.736,8.582-39.195,10.557
				c-9.46,1.916-15.431,1.854-17.676,0.495v32.721c2.245,1.358,8.216,1.421,17.676-0.494c9.459-1.978,25.184-10.804,39.195-10.558
				c13.894,0.122,28.14,11.854,43.865,11.607c15.607-0.743,33.106-13.09,49.068-13.706c15.548-0.496,29.44,10.741,45.107,11.051
				c15.902,0.122,32.042-10.435,49.068-10.003c16.789,0.248,33.875,11.67,51.018,11.605c16.85-0.368,32.813-12.534,50.369-12.653
				c17.617,0,37.008,11.729,54.271,12.097c17.023,0,34.646-11.173,47.117-11.604c12.178-0.434,18.857,7.344,26.189,9.014
				c7.213,1.544,12.711,1.791,16.967,0.496V413.462z"/>
		</g>
		<ellipse fill="#FFFFFF" cx="230.843" cy="152.661" rx="23.82" ry="22.977"/>
		<circle fill="#FFFFFF" cx="386.559" cy="186.766" r="38.375"/>
		<path fill="#FFFFFF" d="M245.771,250.859c47.787,8.213,26.27,19.913,5.088,46.439c0,0-17.266,20.771-25.297,31.837
			c-4.612,6.355-6.421,9.919-5.966,13.633c6.636,2.497,13.319,4.843,20.36,4.98c15.902,0.127,32.042-10.431,49.068-10
			c16.789,0.247,33.875,11.665,51.018,11.604c0.759-0.017,1.515-0.065,2.27-0.127c7.881-11.666,15.966-23.363,22.818-32.524
			c13.969-19.554,37.097-14.828,55.928,1.136c15.413,13.066,23.431,18.639,11.529,29.208c4.111,0.991,8.159,1.67,12.096,1.754
			c13.999,0,28.398-7.552,40.011-10.477c-1.217-8.894-5.8-18.18-13.181-27.167c0,0-57.986-55.342-83.56-68.382
			c-25.354-12.93-22.802-14.442-53.602-23.488c-30.8-9.048-87.548,0.95-108.487-13.085c-20.574-13.788-20.007-39.449-25.648-47.96
			c-5.573-8.406-17.674-3.505-15.277,21.799C187.493,206.994,198.049,242.659,245.771,250.859z"/>
	</g>
</g>
</svg>
