<?xml version="1.0" encoding="utf-8"?>
<!-- Generator: Adobe Illustrator 15.0.0, SVG Export Plug-In . SVG Version: 6.00 Build 0)  -->
<!DOCTYPE svg PUBLIC "-//W3C//DTD SVG 1.1//EN" "http://www.w3.org/Graphics/SVG/1.1/DTD/svg11.dtd">
<svg version="1.1" xmlns="http://www.w3.org/2000/svg" xmlns:xlink="http://www.w3.org/1999/xlink" x="0px" y="0px" width="580px"
	 height="580px" viewBox="0 0 580 580" enable-background="new 0 0 580 580" xml:space="preserve">
<g id="Layer_2">
	<g id="g1327">
		<path id="path1329" fill="#111111" stroke="#EEEEEE" stroke-width="3.408" d="M66.275,1.768
			c-41.335,0-64.571,21.371-64.571,65.036v450.123c0,40.844,20.894,62.229,62.192,62.229H515.92
			c41.307,0,62.229-20.316,62.229-62.229V66.804c0-42.601-20.923-65.036-63.522-65.036C514.624,1.768,66.133,1.625,66.275,1.768z"/>
	</g>
</g>
<g id="svg2" inkscape:output_extension="org.inkscape.output.svg.inkscape" inkscape:version="0.46" sodipodi:docname="waste_bin.svg" sodipodi:version="0.32" xmlns:inkscape="http://www.inkscape.org/namespaces/inkscape" xmlns:rdf="http://www.w3.org/1999/02/22-rdf-syntax-ns#" xmlns:svg="http://www.w3.org/2000/svg" xmlns:sodipodi="http://sodipodi.sourceforge.net/DTD/sodipodi-0.dtd" xmlns:cc="http://creativecommons.org/ns#" xmlns:dc="http://purl.org/dc/elements/1.1/">
	<path fill="#FFFFFF" d="M402.596,375.62c0.008-0.631,0.009-2.383-0.129-5.157c-0.015-0.313-0.033-0.623-0.051-0.935
		c-0.034-0.618-0.076-1.279-0.124-1.984c-0.012-0.126-0.018-0.253-0.027-0.378c-0.915-12.646-4.295-38.214-16.591-71.362
		c-17.8-47.98-95.381-204.304-95.381-204.304l-0.146,0.369L290,91.5c0,0-77.582,156.323-95.381,204.304
		c-9.223,24.86-13.425,45.444-15.338,59.526c-1.231,6.67-1.88,13.545-1.88,20.57c0,62.188,50.412,112.6,112.6,112.6
		c62.187,0,112.6-50.412,112.6-112.6C402.6,375.807,402.596,375.714,402.596,375.62z M275.397,456.276
		c-36.116,0-65.393-29.277-65.393-65.393c0-13.399,4.036-25.851,10.95-36.223c-2.092,6.771-3.222,13.964-3.222,21.422
		c0,40.02,32.443,72.464,72.464,72.464c7.459,0,14.652-1.13,21.423-3.222C301.25,452.239,288.797,456.276,275.397,456.276z"/>
</g>
</svg>
