<?xml version="1.0" encoding="utf-8"?>
<!-- Generator: Adobe Illustrator 15.0.0, SVG Export Plug-In . SVG Version: 6.00 Build 0)  -->
<!DOCTYPE svg PUBLIC "-//W3C//DTD SVG 1.1//EN" "http://www.w3.org/Graphics/SVG/1.1/DTD/svg11.dtd">
<svg version="1.1" xmlns="http://www.w3.org/2000/svg" xmlns:xlink="http://www.w3.org/1999/xlink" x="0px" y="0px" width="580px"
	 height="580px" viewBox="0 0 580 580" enable-background="new 0 0 580 580" xml:space="preserve">
<g id="Layer_1">
	<g id="Layer_2">
		<g id="g1327">
			<path id="path1329" fill="#111111" stroke="#EEEEEE" stroke-width="3.408" d="M66.275,1.768
				c-41.335,0-64.571,21.371-64.571,65.036v450.123c0,40.844,20.895,62.229,62.192,62.229h452.024
				c41.307,0,62.229-20.315,62.229-62.229V66.804c0-42.602-20.923-65.036-63.521-65.036C514.625,1.768,66.133,1.625,66.275,1.768z"
				/>
		</g>
	</g>
</g>
<g id="Layer_2_1_">
	<path fill="#FFFFFF" d="M274.302,250.633l-5.73-7.257l1.979-1.563l22.427-17.715l-19.798-25.064l-15.515,25.108l-112.138,88.571
		l13.547,17.149l41.8-33.016l-3.222,35.75c0,0,0.909,22.846-9.124,31.843c0,0-15.31,13.165-28.89,1.396L49.48,452.844l56.79,71.899
		L207.46,401.973l9.966,1.769l18.47-14.59l-1.824-42.933c7.205,2.813,16.454,1.385,23.845-4.453
		c10.366-8.187,13.19-21.951,6.295-30.679c-2.621-3.318-6.276-5.431-10.368-6.335l127.498-104.39l-1.877-14.583L530.519,66.469
		l-8.857-11.213L274.302,250.633z M260.254,314.214c5.17,6.546,2.72,17.132-5.465,23.596c-6.727,5.314-15.262,6.203-20.961,2.717
		l-0.796-18.736l15.257-12.491C253.054,309.068,257.477,310.698,260.254,314.214z"/>
</g>
</svg>
