<?xml version="1.0" encoding="UTF-8" standalone="no"?>
<!-- Generator: Adobe Illustrator 15.0.0, SVG Export Plug-In . SVG Version: 6.00 Build 0)  -->

<svg
   xmlns:dc="http://purl.org/dc/elements/1.1/"
   xmlns:cc="http://creativecommons.org/ns#"
   xmlns:rdf="http://www.w3.org/1999/02/22-rdf-syntax-ns#"
   xmlns:svg="http://www.w3.org/2000/svg"
   xmlns="http://www.w3.org/2000/svg"
   xmlns:sodipodi="http://sodipodi.sourceforge.net/DTD/sodipodi-0.dtd"
   xmlns:inkscape="http://www.inkscape.org/namespaces/inkscape"
   version="1.1"
   x="0px"
   y="0px"
   width="580px"
   height="580px"
   viewBox="0 0 580 580"
   enable-background="new 0 0 580 580"
   xml:space="preserve"
   id="svg2"
   inkscape:version="0.92.3 (2405546, 2018-03-11)"
   sodipodi:docname="wholesale.svg"><metadata
   id="metadata14"><rdf:RDF><cc:Work
       rdf:about=""><dc:format>image/svg+xml</dc:format><dc:type
         rdf:resource="http://purl.org/dc/dcmitype/StillImage" /><dc:title></dc:title></cc:Work></rdf:RDF></metadata><defs
   id="defs12" /><sodipodi:namedview
   pagecolor="#ffffff"
   bordercolor="#666666"
   borderopacity="1"
   objecttolerance="10"
   gridtolerance="10"
   guidetolerance="10"
   inkscape:pageopacity="0"
   inkscape:pageshadow="2"
   inkscape:window-width="1667"
   inkscape:window-height="927"
   id="namedview10"
   showgrid="false"
   inkscape:zoom="0.070710678"
   inkscape:cx="287.4249"
   inkscape:cy="290"
   inkscape:window-x="148"
   inkscape:window-y="83"
   inkscape:window-maximized="0"
   inkscape:current-layer="svg2" />
<g
   id="Layer_2_1_">
	<g
   id="Layer_2">
		<g
   id="g1327">
			<path
   id="path1329"
   d="M66.275,1.768     c-41.335,0-64.571,21.371-64.571,65.036v450.123c0,40.844,20.895,62.229,62.192,62.229h452.024     c41.307,0,62.229-20.315,62.229-62.229V66.804c0-42.602-20.923-65.036-63.521-65.036C514.625,1.768,66.133,1.625,66.275,1.768z"
   stroke-width="3.408"
   stroke="#EEEEEE"
   fill="#111111" />
		</g>
	</g>
</g>

<path
   inkscape:connector-curvature="0"
   id="rect826"
   d="M 168.74592,78.364234 V 199.54482 H 380.81191 V 78.364234 H 289.9265 V 138.95453 H 259.63139 V 78.364234 Z M 77.860516,229.83994 v 151.4757 H 229.33621 v -151.4757 h -60.59029 v 60.59029 H 138.4508 v -60.59029 z m 181.770874,0 v 151.4757 H 501.99248 V 229.83994 Z M 77.860516,411.6108 c 0,30.29512 0,60.59029 0,90.88541 H 138.4508 v -60.59029 h 121.18059 v 60.59029 h 60.59022 v -60.59029 h 121.18058 v 60.59029 h 60.59029 c 0,-30.29512 0,-60.59029 0,-90.88541 z"
   style="fill:#ffffff;fill-opacity:1;stroke:none;stroke-width:71.69139099;stroke-linecap:square;stroke-miterlimit:4;stroke-dasharray:none;stroke-opacity:1;paint-order:markers stroke fill" /></svg>