<?xml version="1.0" encoding="UTF-8" standalone="no"?>
<!-- Generator: Adobe Illustrator 15.0.0, SVG Export Plug-In . SVG Version: 6.00 Build 0)  -->

<svg
   version="1.1"
   x="0px"
   y="0px"
   width="580px"
   height="580px"
   viewBox="0 0 580 580"
   enable-background="new 0 0 580 580"
   xml:space="preserve"
   id="svg3"
   sodipodi:docname="wigs.svg"
   inkscape:version="1.4 (86a8ad7, 2024-10-11)"
   xmlns:inkscape="http://www.inkscape.org/namespaces/inkscape"
   xmlns:sodipodi="http://sodipodi.sourceforge.net/DTD/sodipodi-0.dtd"
   xmlns="http://www.w3.org/2000/svg"
   xmlns:svg="http://www.w3.org/2000/svg"><defs
   id="defs3">
	
	

		
		
	</defs><sodipodi:namedview
   id="namedview3"
   pagecolor="#ffffff"
   bordercolor="#666666"
   borderopacity="1.0"
   inkscape:showpageshadow="2"
   inkscape:pageopacity="0.0"
   inkscape:pagecheckerboard="0"
   inkscape:deskcolor="#d1d1d1"
   inkscape:zoom="1.5568966"
   inkscape:cx="289.67885"
   inkscape:cy="290"
   inkscape:window-width="1920"
   inkscape:window-height="1147"
   inkscape:window-x="-8"
   inkscape:window-y="-8"
   inkscape:window-maximized="1"
   inkscape:current-layer="svg3" />
<g
   id="Layer_2">
	<g
   id="g1327">
		<path
   id="path1329"
   fill="#111111"
   stroke="#EEEEEE"
   stroke-width="3.408"
   d="M66.275,1.768    c-41.335,0-64.571,21.371-64.571,65.036v450.123c0,40.844,20.894,62.229,62.192,62.229H515.92    c41.307,0,62.229-20.316,62.229-62.229V66.804c0-42.601-20.923-65.036-63.522-65.036C514.624,1.768,66.133,1.625,66.275,1.768z" />
	</g>
</g><path
   fill="#ffffff"
   d="m 210.97115,173.67631 34.19118,-32.51044 47.82998,-10.50167 40.73565,10.2989 36.45521,31.86911 21.35348,122.47851 h 42.52382 L 404.6289,147.47374 h -0.0317 C 389.76394,99.515842 345.08085,64.672204 292.25068,64.672204 c -53.01879,0 -97.83609,35.090701 -112.50964,83.312426 h -0.004 v 0.0156 l -33.79751,147.30989 h 41.65592 z"
   id="path1-7"
   style="stroke-width:0.578587"
   sodipodi:nodetypes="cccccccccscccccc" />
<g
   id="g3"
   transform="matrix(2.1809534,0,0,2.1809534,-316.18511,-477.47845)"><g
     id="g4"><path
       fill="#ffffff"
       d="m 338.98351,467.40681 c 1.362,-3.477 2.116,-7.256 2.116,-11.215 v -32.546 l -2.429,-29.659 c -4.677,-11.028 -15.604,-18.766 -28.338,-18.766 h -64.775 c -12.734,0 -23.661,7.737 -28.338,18.767 l -2.429,29.657 v 32.547 c 0,3.959 0.754,7.738 2.116,11.215 z m -22.174,-50.891 v 50.891 h -7.287 v -50.891 z m -77.729,0 h 7.288 v 50.891 h -7.288 z"
       id="path1"
       sodipodi:nodetypes="csccssccscccccccccccc" /><circle
       fill="#ffffff"
       cx="277.94553"
       cy="324.48682"
       r="37.650002"
       id="circle1" /></g></g>
</svg>
