<?xml version="1.0" encoding="utf-8"?>
<!-- Generator: Adobe Illustrator 15.0.0, SVG Export Plug-In . SVG Version: 6.00 Build 0)  -->
<!DOCTYPE svg PUBLIC "-//W3C//DTD SVG 1.1//EN" "http://www.w3.org/Graphics/SVG/1.1/DTD/svg11.dtd">
<svg version="1.1" xmlns="http://www.w3.org/2000/svg" xmlns:xlink="http://www.w3.org/1999/xlink" x="0px" y="0px" width="580px"
	 height="580px" viewBox="0 0 580 580" enable-background="new 0 0 580 580" xml:space="preserve">
<g id="Layer_1">
	<g id="Layer_2">
		<g id="g1327">
			<path id="path1329" fill="#111111" stroke="#EEEEEE" stroke-width="3.408" d="M66.275,1.768
				c-41.335,0-64.571,21.371-64.571,65.036v450.123c0,40.844,20.895,62.229,62.192,62.229h452.024
				c41.307,0,62.229-20.315,62.229-62.229V66.804c0-42.602-20.923-65.036-63.521-65.036C514.625,1.768,66.133,1.625,66.275,1.768z"
				/>
		</g>
	</g>
</g>
<g id="Layer_2_1_">
	<g>
		<path fill="#FFFFFF" d="M155.472,462.037v-86.791c15.773-3.764,30.224-16.016,41.467-35.441
			c13.289-22.961,20.607-53.408,20.607-85.731c0-1.683-0.021-3.354-0.062-5.02c-0.044-1.819-1.29-3.388-3.052-3.84
			c-21.372-5.493-44.705-8.278-69.35-8.278c-24.876,0-50.239,3.022-69.586,8.293c-1.734,0.473-2.952,2.028-2.995,3.825
			c-0.04,1.666-0.062,3.337-0.062,5.02c0,32.323,7.318,62.771,20.607,85.731c10.516,18.17,23.838,30.061,38.424,34.604v87.572
			c-30.497,1.959-53.641,11.521-53.617,23.025c0,0.012,0,0.021,0,0.033c0.025,12.914,29.227,23.377,65.223,23.367
			s65.156-10.486,65.131-23.4c0-0.012,0-0.021,0-0.033C208.185,473.592,185.497,464.119,155.472,462.037z"/>
		<path fill="#FFFFFF" d="M478.254,164.968c-16.184,0-29.305,17.103-29.305,38.2c0,8.832,2.307,16.957,6.166,23.428
			c-1.988-0.556-4.049-0.854-6.166-0.854c-2.115,0-4.176,0.299-6.166,0.854c3.861-6.471,6.166-14.596,6.166-23.428
			c0-21.098-13.119-38.2-29.305-38.2c-16.184,0-29.305,17.103-29.305,38.2c0,8.832,2.307,16.957,6.166,23.428
			c-1.988-0.556-4.049-0.854-6.166-0.854c-2.115,0-4.178,0.299-6.166,0.854c3.861-6.471,6.166-14.596,6.166-23.428
			c0-12.664-4.73-23.883-12.01-30.833c45.613-1.925,83.303-44.072,84.918-45.908l8.553-9.704l-12.779-1.989
			c-4.504-0.7-9.053-1.056-13.523-1.056c-37.186,0-63.484,23.787-75.672,37.675c4.041-19.87,17.688-55.559,63.762-65.925
			l-3.113-13.834c-39.471,8.881-58.213,33.833-66.986,53.202c-9.408,20.771-9.541,39.38-9.543,40.162l5.684,0.008l-0.033,0.05
			c-15.516,0.979-27.865,17.684-27.865,38.152c0,8.832,2.307,16.957,6.166,23.428c-1.988-0.556-4.051-0.854-6.166-0.854
			s-4.176,0.299-6.164,0.854c3.859-6.471,6.164-14.596,6.164-23.428c0-21.098-13.119-38.2-29.305-38.2
			c-16.184,0-29.305,17.103-29.305,38.2c0,8.832,2.306,16.957,6.166,23.428c-1.988-0.556-4.05-0.854-6.166-0.854
			s-4.178,0.299-6.166,0.854c3.86-6.471,6.166-14.596,6.166-23.428c0-21.098-13.119-38.2-29.305-38.2
			c-16.185,0-29.304,17.103-29.304,38.2c0,21.099,13.119,38.201,29.304,38.201c2.116,0,4.178-0.299,6.166-0.854
			c-3.86,6.471-6.166,14.596-6.166,23.429c0,21.098,13.121,38.2,29.305,38.2c4.677,0,9.096-1.436,13.018-3.976
			c-7.85,6.854-13.018,18.519-13.018,31.76c0,21.096,13.121,38.199,29.305,38.199c3.309,0,6.482-0.725,9.449-2.039
			c-5.807,6.979-9.449,16.977-9.449,28.086c0,21.098,13.121,38.201,29.305,38.201c1.117,0,2.219-0.09,3.303-0.248
			c-2.105,5.271-3.303,11.258-3.303,17.611c0,21.098,13.119,38.199,29.305,38.199s29.305-17.102,29.305-38.199
			c0-6.354-1.197-12.34-3.301-17.611c1.084,0.158,2.184,0.248,3.301,0.248c16.186,0,29.305-17.104,29.305-38.201
			c0-11.109-3.641-21.107-9.447-28.086c2.965,1.314,6.141,2.039,9.447,2.039c16.186,0,29.305-17.104,29.305-38.199
			c0-13.241-5.168-24.906-13.018-31.76c3.924,2.54,8.342,3.976,13.018,3.976c16.186,0,29.305-17.103,29.305-38.2
			c0-8.833-2.305-16.958-6.164-23.429c1.988,0.556,4.049,0.854,6.164,0.854c16.186,0,29.305-17.103,29.305-38.201
			C507.558,182.07,494.439,164.968,478.254,164.968z M374.052,295.7c-3.924-2.54-8.34-3.976-13.018-3.976
			c-4.676,0-9.094,1.436-13.016,3.976c7.848-6.854,13.016-18.518,13.016-31.757c0-8.833-2.305-16.958-6.166-23.429
			c1.988,0.556,4.051,0.854,6.166,0.854c2.117,0,4.178-0.299,6.168-0.854c-3.861,6.471-6.168,14.596-6.168,23.429
			C361.035,277.182,366.205,288.846,374.052,295.7z M289.408,295.7c7.85-6.854,13.018-18.518,13.018-31.757
			c0-8.833-2.305-16.958-6.166-23.429c1.99,0.556,4.051,0.854,6.166,0.854c2.117,0,4.178-0.299,6.166-0.854
			c-3.859,6.471-6.166,14.596-6.166,23.429c0,13.239,5.17,24.903,13.018,31.757c-3.922-2.54-8.34-3.976-13.018-3.976
			C297.75,291.724,293.332,293.16,289.408,295.7z M322.283,358.011c5.807-6.98,9.447-16.977,9.447-28.084
			c0-13.241-5.168-24.906-13.018-31.76c3.924,2.54,8.342,3.976,13.018,3.976c4.678,0,9.096-1.436,13.018-3.976
			c-7.848,6.854-13.018,18.519-13.018,31.76c0,11.107,3.641,21.105,9.447,28.084c-2.965-1.316-6.139-2.041-9.447-2.041
			C328.424,355.97,325.25,356.695,322.283,358.011z M357.732,411.785c2.107-5.271,3.303-11.258,3.303-17.611
			c0-11.109-3.641-21.107-9.447-28.086c2.967,1.314,6.141,2.039,9.447,2.039c3.309,0,6.482-0.725,9.447-2.039
			c-5.807,6.979-9.447,16.977-9.447,28.086c0,6.354,1.197,12.34,3.303,17.611c-1.084-0.16-2.186-0.248-3.303-0.248
			S358.818,411.625,357.732,411.785z M380.892,358.011c5.807-6.979,9.447-16.977,9.447-28.084c0-13.241-5.168-24.906-13.016-31.76
			c3.922,2.54,8.34,3.976,13.016,3.976c4.678,0,9.096-1.436,13.018-3.976c-7.85,6.854-13.018,18.519-13.018,31.76
			c0,11.107,3.641,21.104,9.447,28.084c-2.965-1.316-6.141-2.041-9.447-2.041S383.857,356.695,380.892,358.011z M419.644,291.724
			c-4.678,0-9.094,1.436-13.016,3.976c7.848-6.854,13.016-18.518,13.016-31.757c0-8.833-2.305-16.958-6.166-23.429
			c1.988,0.556,4.049,0.854,6.166,0.854s4.178-0.299,6.166-0.854c-3.861,6.471-6.166,14.596-6.166,23.429
			c0,13.239,5.168,24.903,13.018,31.757C428.74,293.16,424.322,291.724,419.644,291.724z"/>
	</g>
</g>
</svg>
